<?xml version="1.0" encoding="utf-8"?>
<!-- Generator: Adobe Illustrator 16.0.0, SVG Export Plug-In . SVG Version: 6.00 Build 0)  -->
<!DOCTYPE svg PUBLIC "-//W3C//DTD SVG 1.1//EN" "http://www.w3.org/Graphics/SVG/1.1/DTD/svg11.dtd">
<svg version="1.1" xmlns="http://www.w3.org/2000/svg" xmlns:xlink="http://www.w3.org/1999/xlink" x="0px" y="0px" width="1920px"
	 height="1080px" viewBox="6177.021 4439.673 1920 1080" enable-background="new 6177.021 4439.673 1920 1080" xml:space="preserve"
	>
<g id="Layer_2">
</g>
<g id="svg2" xmlns:cc="http://creativecommons.org/ns#" xmlns:sodipodi="http://sodipodi.sourceforge.net/DTD/sodipodi-0.dtd" xmlns:inkscape="http://www.inkscape.org/namespaces/inkscape" xmlns:rdf="http://www.w3.org/1999/02/22-rdf-syntax-ns#" xmlns:dc="http://purl.org/dc/elements/1.1/" xmlns:svg="http://www.w3.org/2000/svg" inkscape:version="0.91 r13725" sodipodi:docname="pivot-02.svg" display="none">
</g>
<g id="Layer_3">
	<g>
		<defs>
			<rect id="SVGID_20_" x="6177.021" y="4439.673" width="1920" height="1080"/>
		</defs>
		<clipPath id="SVGID_2_">
			<use xlink:href="#SVGID_20_"  overflow="visible"/>
		</clipPath>
		<g id="Layer_2_23_" clip-path="url(#SVGID_2_)">
			<rect x="6177.021" y="4439.673" fill="#DBDBDA" width="1920" height="1080"/>
		</g>
		<g id="Layer_2_22_" clip-path="url(#SVGID_2_)">
			<rect x="6177.021" y="4734.177" fill="none" width="1920" height="1078.876"/>
		</g>
		<g id="Layer_2_21_" clip-path="url(#SVGID_2_)">
			<rect x="6177.021" y="4733.614" fill="none" width="1920" height="1080"/>
		</g>
		<g clip-path="url(#SVGID_2_)">
			<g>
				<path fill="#BBBDBF" stroke="#000000" stroke-width="14.3096" stroke-miterlimit="10" d="M6427.374,5679.041
					c5.035,10.153,17.455,14.343,27.611,9.307l240.656-119.337c10.148-5.032,14.342-17.46,9.307-27.613L6537.3,5203.314
					l-277.574,137.644L6427.374,5679.041z"/>
				<path stroke="#000000" stroke-width="14.3096" stroke-miterlimit="10" d="M6506.899,5300.261
					c-2.516-5.073-0.426-11.289,4.651-13.808l15.132-7.504c5.078-2.518,11.291-0.418,13.807,4.655l116.779,235.499
					c2.516,5.072,0.43,11.292-4.648,13.811l-15.133,7.504c-5.078,2.518-11.293,0.414-13.809-4.658L6506.899,5300.261z"/>
				<path stroke="#000000" stroke-width="14.3096" stroke-miterlimit="10" d="M6445.172,5330.871
					c-2.516-5.074-0.441-11.283,4.652-13.809l15.119-7.498c5.078-2.518,11.291-0.418,13.807,4.654l116.779,235.5
					c2.516,5.072,0.43,11.293-4.648,13.811l-15.121,7.498c-5.092,2.525-11.293,0.414-13.809-4.658L6445.172,5330.871z"/>
				<path stroke="#000000" stroke-width="14.3096" stroke-miterlimit="10" d="M6383.432,5361.486
					c-2.517-5.073-0.427-11.289,4.654-13.809l15.132-7.504c5.078-2.519,11.29-0.419,13.807,4.654l116.779,235.499
					c2.516,5.073,0.428,11.292-4.65,13.812l-15.131,7.503c-5.082,2.52-11.297,0.416-13.812-4.656L6383.432,5361.486z"/>
				<path stroke="#000000" stroke-width="14.3096" stroke-miterlimit="10" d="M6321.693,5392.102
					c-2.518-5.074-0.418-11.295,4.65-13.807l15.131-7.504c5.082-2.52,11.295-0.422,13.811,4.652l116.779,235.498
					c2.516,5.074,0.428,11.293-4.652,13.813l-15.133,7.504c-5.068,2.514-11.293,0.416-13.807-4.658L6321.693,5392.102z"/>
			</g>
			<path fill="#A6A8AB" stroke="#000000" stroke-width="14.3096" stroke-miterlimit="10" d="M6517.989,5155.159l-88.109,43.692
				l-4.742-9.56c-2.515-5.073-8.727-7.173-13.809-4.652l-90.238,44.747c-5.066,2.513-7.156,8.729-4.641,13.802l4.74,9.56
				l-88.123,43.699c-5.068,2.513-7.17,8.732-4.654,13.805l20.262,40.859c2.518,5.078,8.738,7.165,13.806,4.652l284.923-141.288
				c5.078-2.519,7.17-8.728,4.652-13.806l-20.262-40.858C6529.279,5154.738,6523.067,5152.641,6517.989,5155.159z"/>
		</g>
		<g clip-path="url(#SVGID_2_)">
			
				<path fill="#57B2E5" stroke="#000000" stroke-width="12.3332" stroke-linecap="round" stroke-linejoin="round" stroke-miterlimit="10" d="
				M6931.288,4974.241c-113.233-23.381-190.876-4.17-219.703,135.436c-51.699,250.37-30.721,270.191,129.129,303.199
				c159.847,33.007,186.964,23.116,238.662-227.254C7108.204,5046.017,7044.506,4997.62,6931.288,4974.241z M7027.873,5213.219
				c-42.688-42.726-65.243-110.211-56.761-182.063c66.313,23.785,81.492,63.335,64.538,145.438
				C7033.032,5189.272,7030.456,5201.49,7027.873,5213.219z"/>
			
				<path fill="#0073B3" stroke="#000000" stroke-width="12.3332" stroke-linecap="round" stroke-linejoin="round" stroke-miterlimit="10" d="
				M6840.112,5020.944c56.77,11.723,51.117,85.699,82.051,147.719c30.943,62.029,108.848,124.764,54.445,184.768
				c-40.889,45.119-168.675,28.422-211.492-24.508c-19.924-24.617-35.324-76.454-18.48-158.553
				C6771.357,5049.938,6800.873,5012.843,6840.112,5020.944z"/>
			
				<polygon fill="#81358A" stroke="#000000" stroke-width="12.3332" stroke-linecap="round" stroke-linejoin="round" stroke-miterlimit="10" points="
				6976.907,4939.366 6985.841,4896.096 6974.905,4893.838 6926.964,4883.938 6916.026,4881.68 6907.092,4924.95 6869.69,4917.227 
				6859.577,4966.2 7000.315,4995.261 7010.427,4946.287 			"/>
		</g>
		<g clip-path="url(#SVGID_2_)">
			
				<path fill="#D45F14" stroke="#000000" stroke-width="14.3096" stroke-linecap="round" stroke-linejoin="round" stroke-miterlimit="10" d="
				M7560.797,4849.229l-69.85-294.614c-2.604-12.6-15.193-21.554-27.947-19.907c0,0,30.654-3.931,22.629-66.107
				c-4.596-35.604-37.19-60.748-72.789-56.153l-41.26,5.325l-5.709-44.234l-38.436,4.961l5.709,44.233l-41.262,5.326
				c-35.599,4.594-60.74,37.189-56.145,72.794c7.911,61.299,38.674,58.195,38.674,58.195c-12.77,1.647-22.674,13.505-21.979,26.351
				l7.242,302.694c0.667,12.862,11.669,22.029,24.436,20.382l258.223-33.327C7555.102,4873.499,7563.416,4861.839,7560.797,4849.229
				z"/>
			
				<path fill="#EFE342" stroke="#000000" stroke-width="14.3096" stroke-linecap="round" stroke-linejoin="round" stroke-miterlimit="10" d="
				M7402.912,4375.922l-21.752-22.328l-73.578,9.496l-15.381,27.121l2.53,19.603l110.71-14.288L7402.912,4375.922z
				 M7438.715,4588.317l-131.006,16.907l2.211,241.462l187.963-24.259L7438.715,4588.317z"/>
		</g>
		<g clip-path="url(#SVGID_2_)">
			<path fill="#A4DADA" stroke="#000000" stroke-width="14.3096" stroke-miterlimit="10" d="M7905.79,4778.121
				c51.605,49.222,72.082,111.52,22.861,163.122c-45.047,47.228-92.113,46.823-120.664,76.755
				c-28.553,29.935-27.356,78.43-70.961,124.145c-49.223,51.604-112.408,34.083-164.014-15.139
				c-51.595-49.214-72.076-111.498-22.854-163.102c43.605-45.716,92.098-46.815,120.65-76.75
				c28.551-29.932,25.928-76.922,70.975-124.15C7791.005,4711.4,7854.196,4728.907,7905.79,4778.121z"/>
			<path fill="#FFCB4E" stroke="#000000" stroke-width="14.3096" stroke-miterlimit="10" d="M7687.81,5058.599
				c-8.796,9.222-8.436,23.817,0.781,32.608c9.227,8.801,23.809,8.458,32.605-0.764c8.785-9.212,8.45-23.806-0.777-32.606
				C7711.204,5049.047,7696.596,5049.387,7687.81,5058.599z M7572.531,4991.918c-10.116,10.605-9.72,27.418,0.897,37.546
				c10.611,10.121,27.414,9.715,37.531-0.892c10.127-10.616,9.73-27.412-0.881-37.533
				C7599.462,4980.912,7582.657,4981.301,7572.531,4991.918z M7726.278,4934.168c-8.195,8.594-7.875,22.215,0.729,30.421
				c8.604,8.207,22.214,7.874,30.41-0.72c8.209-8.604,7.896-22.213-0.707-30.42
				C7748.105,4925.242,7734.487,4925.563,7726.278,4934.168z M7759.413,4807.696c-9.375,9.828-9.02,25.4,0.828,34.794
				c9.838,9.383,25.418,9.012,34.793-0.816c9.385-9.84,9.021-25.421-0.816-34.805
				C7784.37,4797.476,7768.798,4797.856,7759.413,4807.696z M7866.386,4876.211c-8.354,8.757-8.029,22.611,0.727,30.964
				c8.766,8.36,22.619,8.029,30.971-0.728c8.344-8.746,8.031-22.612-0.734-30.973
				C7888.593,4867.123,7874.728,4867.465,7866.386,4876.211z"/>
		</g>
		<g clip-path="url(#SVGID_2_)">
			<g>
				
					<path fill="#939958" stroke="#000000" stroke-width="14.3096" stroke-linecap="round" stroke-linejoin="round" stroke-miterlimit="10" d="
					M6530.342,4336.219l-397.191,78.749l-15.613,3.096l9.842,49.64l18.523-3.673l87.847,337.941
					c3.788,14.582,18.991,24.118,33.77,21.188l294.333-58.355c14.789-2.933,25.205-17.548,23.143-32.472l-47.721-345.896
					l18.514-3.671l-9.842-49.64L6530.342,4336.219z"/>
				<path stroke="#000000" stroke-width="14.3096" stroke-linecap="round" stroke-linejoin="round" stroke-miterlimit="10" d="
					M6398.164,4710.667c-31.744,6.294-63.625,11.893-68.707,11.441c-52.205-4.662-102.699-26.466-142.166-61.402
					c-40.77-36.113-67.936-83.51-78.557-137.081l-9.963-50.25c-3.127-15.778,7.152-31.154,22.935-34.284l1.718,8.665
					c-11.008,2.183-18.18,12.901-15.999,23.903l9.963,50.25c20.492,103.359,108.024,182.068,212.858,191.413
					c9.107,0.743,123.592-21.955,131.729-26.116c93.337-48.636,144.219-154.786,123.727-258.146l-9.963-50.251
					c-2.181-11.001-12.899-18.174-23.907-15.991l-1.718-8.664c15.771-3.127,31.162,7.16,34.29,22.938l9.963,50.251
					c10.621,53.571,3.582,107.749-20.324,156.686c-23.152,47.351-61.51,86.771-108.002,111.001
					C6461.534,4697.381,6429.926,4704.37,6398.164,4710.667z"/>
				
					<rect x="6329.188" y="4694.398" transform="matrix(0.9809 -0.1945 0.1945 0.9809 -793.3682 1334.0469)" stroke="#000000" stroke-width="14.3096" stroke-linecap="round" stroke-linejoin="round" stroke-miterlimit="10" width="136.762" height="26.439"/>
			</g>
			
				<line stroke="#000000" stroke-width="14.3096" stroke-linecap="round" stroke-linejoin="round" stroke-miterlimit="10" x1="6118.6" y1="4469.443" x2="6547.021" y2="4384.504"/>
		</g>
		<g clip-path="url(#SVGID_2_)">
			
				<path fill="#81358A" stroke="#000000" stroke-width="12.3332" stroke-linecap="round" stroke-linejoin="round" stroke-miterlimit="10" d="
				M7988.263,4622.272c61.756-56.807,89.873-145.611,65.148-231.754l-440.059,126.295c24.723,86.145,95.654,146.521,178.148,161.93
				L7988.263,4622.272z"/>
			
				<path fill="#81358A" stroke="#000000" stroke-width="12.3332" stroke-linecap="round" stroke-linejoin="round" stroke-miterlimit="10" d="
				M8044.86,4354.346c10.219-2.933,20.871,2.979,23.801,13.185c2.928,10.206-2.971,20.855-13.189,23.788l-443.438,127.267
				c-10.207,2.929-20.855-2.972-23.784-13.178c-2.93-10.205,2.966-20.866,13.173-23.796L8044.86,4354.346z"/>
		</g>
		
			<path clip-path="url(#SVGID_2_)" fill="#DBDADA" stroke="#000000" stroke-width="14.3096" stroke-linecap="round" stroke-linejoin="round" stroke-miterlimit="10" d="
			M6181.25,5174.066l190.638-139.769c28.393,15.521,64.394,14.317,92.219-6.082c27.831-20.405,39.807-54.378,33.549-86.128
			l-16.055,11.771l-12.473,9.145l-21.466,15.738l-38.52-16.949l-4.579-41.836l21.466-15.736l0,0l28.528-20.916
			c-28.405-15.527-64.406-14.324-92.237,6.08c-27.825,20.4-39.801,54.373-33.531,86.129l-190.638,139.77
			c-28.406-15.527-64.406-14.324-92.238,6.081c-27.824,20.399-39.805,54.376-33.535,86.132l14.541-10.66l12.474-9.146l21.464-15.736
			l38.509,16.941l4.582,41.832l-21.464,15.736l0.008,0.011l-27.016,19.807c28.393,15.521,64.399,14.315,92.225-6.085
			C6175.53,5239.79,6187.506,5205.816,6181.25,5174.066z"/>
		
			<path clip-path="url(#SVGID_2_)" fill="#DBDADA" stroke="#000000" stroke-width="14.3096" stroke-linecap="round" stroke-linejoin="round" stroke-miterlimit="10" d="
			M8135.349,5051.848l190.638-139.769c28.393,15.521,64.394,14.317,92.219-6.082c27.831-20.405,39.807-54.378,33.549-86.128
			l-16.055,11.771l-12.473,9.145l-21.466,15.738l-38.52-16.949l-4.579-41.836l21.466-15.736l0,0l28.528-20.916
			c-28.405-15.527-64.406-14.324-92.237,6.08c-27.825,20.4-39.801,54.373-33.531,86.129l-190.638,139.77
			c-28.406-15.527-64.406-14.324-92.238,6.081c-27.824,20.399-39.805,54.376-33.535,86.132l14.541-10.66l12.474-9.146l21.464-15.736
			l38.509,16.941l4.582,41.832l-21.464,15.736l0.008,0.011l-27.016,19.807c28.393,15.521,64.399,14.315,92.225-6.085
			C8129.629,5117.571,8141.604,5083.598,8135.349,5051.848z"/>
		
			<path clip-path="url(#SVGID_2_)" fill="#DBDADA" stroke="#000000" stroke-width="14.3096" stroke-linecap="round" stroke-linejoin="round" stroke-miterlimit="10" d="
			M7240.1,5186.397l-160.42,365.677l71.411,31.327l160.419-365.677c34.625-0.848,67.313-21.262,82.146-55.074
			c14.832-33.808,7.714-71.682-15.113-97.727l-26.644,60.734l-44.749,4.955l-26.662-36.282l26.644-60.734
			c-34.622,0.842-67.31,21.254-82.141,55.062C7210.158,5122.471,7217.275,5160.347,7240.1,5186.397z"/>
		<g clip-path="url(#SVGID_2_)">
			
				<rect x="7735.837" y="5043.493" transform="matrix(-0.184 -0.9829 0.9829 -0.184 4007.458 13900.4629)" fill="#4D4545" stroke="#000000" stroke-width="14.3096" stroke-linecap="round" stroke-linejoin="round" stroke-miterlimit="10" width="76" height="486.473"/>
			
				<polygon fill="#A6A8AB" stroke="#000000" stroke-width="14.3096" stroke-linecap="round" stroke-linejoin="round" stroke-miterlimit="10" points="
				7571.012,5249.777 7609.663,5456.303 7504.31,5476.02 7465.658,5269.494 7492.251,5173.618 7524.251,5167.538 			"/>
		</g>
		<g clip-path="url(#SVGID_2_)">
			
				<polygon fill="#A6A8AB" stroke="#000000" stroke-width="14.3096" stroke-linecap="round" stroke-linejoin="round" stroke-miterlimit="10" points="
				6607.552,5033.881 6716.66,4799.912 6697.224,4790.848 6588.115,5024.816 6578.993,5020.563 6548.514,5101.385 
				6576.193,5114.293 6618.528,5039 			"/>
			
				<path fill="#0073B3" stroke="#000100" stroke-width="14.3096" stroke-linecap="round" stroke-linejoin="round" stroke-miterlimit="10" d="
				M6809.311,4576.363c-52.561-24.511-75.637,43.669-75.637,43.669l-74.863,202.759l-26.779,15.199l92.415,43.097l-5.558-30.278
				l107.199-187.68C6826.088,4663.129,6861.88,4600.879,6809.311,4576.363z"/>
		</g>
		<g clip-path="url(#SVGID_2_)">
			
				<polygon fill="#A6A8AB" stroke="#000000" stroke-width="14.3096" stroke-linecap="round" stroke-linejoin="round" stroke-miterlimit="10" points="
				6817.894,4474.688 6984.946,4671.51 7001.286,4657.643 6834.233,4460.818 6841.918,4454.297 6781.199,4392.859 
				6757.915,4412.621 6808.657,4482.526 			"/>
			
				<path fill="#E20613" stroke="#000000" stroke-width="14.3096" stroke-linecap="round" stroke-linejoin="round" stroke-miterlimit="10" d="
				M7149.402,4849.027c44.215-37.527-8.113-86.953-8.113-86.953l-152.984-152.681l-2.638-30.674l-77.745,65.986l29.846,7.581
				l125.775,175.773C7063.543,4828.061,7105.176,4886.564,7149.402,4849.027z"/>
		</g>
		<g clip-path="url(#SVGID_2_)">
			
				<path fill="#6A300A" stroke="#000100" stroke-width="14.3096" stroke-linecap="round" stroke-linejoin="round" stroke-miterlimit="10" d="
				M7911.427,5369.927l-116.513,47.135l90.681,106.047l-18.76,7.588l20.791,21.123l16.728-6.766l58.969-23.855l55.744-22.553
				L7911.427,5369.927z M7925.632,5500.399l-58.999-70.547l37.276-15.08l58.999,70.547L7925.632,5500.399z"/>
			
				<polyline fill="#A6A8AB" stroke="#000000" stroke-width="14.3096" stroke-linecap="round" stroke-linejoin="round" stroke-miterlimit="10" points="
				7912.45,5369.726 7932.387,5381.409 7948.263,5363.745 7968.479,5376.194 7984.355,5358.532 8004.579,5370.976 8020.46,5353.325 
				8040.671,5365.774 8056.534,5348.103 8076.759,5360.562 8092.634,5342.899 8112.845,5355.349 8128.72,5337.687 8148.944,5350.13 
				8164.822,5332.479 8185.048,5344.925 8200.923,5327.265 8221.146,5339.706 8237.027,5322.042 8257.251,5334.501 
				8273.124,5316.839 8293.349,5329.284 8309.229,5311.634 8329.466,5324.075 8345.341,5306.411 8365.579,5318.851 
				8381.474,5301.192 8381.761,5301.97 8399.126,5344.892 8019.954,5498.286 7912.45,5369.726 			"/>
		</g>
	</g>
</g>
</svg>
