<?xml version="1.0" encoding="utf-8"?>
<!-- Generator: Adobe Illustrator 16.0.0, SVG Export Plug-In . SVG Version: 6.00 Build 0)  -->
<!DOCTYPE svg PUBLIC "-//W3C//DTD SVG 1.1//EN" "http://www.w3.org/Graphics/SVG/1.1/DTD/svg11.dtd">
<svg version="1.1" xmlns="http://www.w3.org/2000/svg" xmlns:xlink="http://www.w3.org/1999/xlink" x="0px" y="0px" width="1920px"
	 height="1078.876px" viewBox="0 5981.986 1920 1078.876" enable-background="new 0 5981.986 1920 1078.876" xml:space="preserve">
<g id="Layer_2">
</g>
<g id="svg2" xmlns:cc="http://creativecommons.org/ns#" xmlns:sodipodi="http://sodipodi.sourceforge.net/DTD/sodipodi-0.dtd" xmlns:inkscape="http://www.inkscape.org/namespaces/inkscape" xmlns:rdf="http://www.w3.org/1999/02/22-rdf-syntax-ns#" xmlns:dc="http://purl.org/dc/elements/1.1/" xmlns:svg="http://www.w3.org/2000/svg" inkscape:version="0.91 r13725" sodipodi:docname="pivot-02.svg" display="none">
</g>
<g id="Layer_3">
	<g>
		<defs>
			<rect id="SVGID_7_" y="5981.986" width="1920" height="1078.876"/>
		</defs>
		<clipPath id="SVGID_2_">
			<use xlink:href="#SVGID_7_"  overflow="visible"/>
		</clipPath>
		<g id="Layer_2_9_" clip-path="url(#SVGID_2_)">
			<rect y="5981.424" fill="#35A8DF" width="1920" height="1080"/>
		</g>
		<path clip-path="url(#SVGID_2_)" fill="#0073B3" d="M1846.273,7015.312c0,5.305-1.906,9.842-5.73,13.675
			c-3.816,3.822-8.379,5.733-13.678,5.733c-5.869,0-10.574-1.911-14.1-5.733c-3.533-3.828-5.297-8.37-5.297-13.675
			c0-5.883,1.76-10.725,5.297-14.548c3.525-3.832,8.24-5.733,14.1-5.733c5.299,0,9.855,1.901,13.678,5.733
			C1844.371,7004.591,1846.273,7009.438,1846.273,7015.312z"/>
		<path clip-path="url(#SVGID_2_)" fill="#FFFFFF" d="M1846.273,6771.912c0,5.877-1.906,10.729-5.73,14.547
			c-3.816,3.827-8.379,5.734-13.678,5.734c-5.869,0-10.574-1.907-14.1-5.734c-3.533-3.827-5.297-8.679-5.297-14.547
			c0-5.285,1.76-9.848,5.297-13.66c3.525-3.833,8.24-5.739,14.1-5.739c5.299,0,9.855,1.906,13.678,5.739
			C1844.371,6762.06,1846.273,6766.627,1846.273,6771.912z"/>
		<path clip-path="url(#SVGID_2_)" fill="#EFE342" d="M1846.273,6529.164c0,5.868-1.906,10.725-5.73,14.548
			c-3.816,3.826-8.379,5.733-13.678,5.733c-5.869,0-10.574-1.921-14.1-5.733c-3.533-3.823-5.297-8.685-5.297-14.548
			c0-5.291,1.76-9.853,5.297-13.666c3.525-3.841,8.24-5.743,14.1-5.743c5.299,0,9.855,1.902,13.678,5.743
			C1844.371,6519.316,1846.273,6523.873,1846.273,6529.164z"/>
		<path clip-path="url(#SVGID_2_)" fill="#E69F00" d="M1648.072,7015.312c0,19.408-6.912,36.015-20.725,49.833
			c-13.818,13.804-30.715,20.72-50.719,20.72c-19.404,0-36.006-6.921-49.83-20.72c-13.813-13.822-20.719-30.425-20.719-49.833
			c0-19.99,6.91-36.906,20.719-50.701c13.824-13.822,30.426-20.725,49.83-20.725c19.994,0,36.9,6.902,50.719,20.725
			C1641.16,6978.419,1648.072,6995.33,1648.072,7015.312z"/>
		<path clip-path="url(#SVGID_2_)" fill="#0073B3" d="M1648.072,6529.159c0,19.981-6.912,36.893-20.725,50.71
			c-13.818,13.813-30.715,20.721-50.719,20.721c-19.404,0-36.006-6.916-49.83-20.721c-13.813-13.822-20.719-30.729-20.719-50.71
			c0-19.404,6.91-36.02,20.719-49.819c13.824-13.831,30.426-20.729,49.83-20.729c19.994,0,36.9,6.916,50.719,20.729
			C1641.16,6493.149,1648.072,6509.765,1648.072,6529.159z"/>
		<path clip-path="url(#SVGID_2_)" fill="#FFFFFF" d="M1596.918,6771.912c0,5.877-1.902,10.729-5.729,14.547
			c-3.814,3.827-8.666,5.734-14.553,5.734c-5.291,0-9.838-1.907-13.67-5.734c-3.826-3.827-5.729-8.679-5.729-14.547
			c0-5.285,1.902-9.848,5.729-13.66c3.828-3.833,8.371-5.739,13.662-5.739c5.885,0,10.738,1.906,14.557,5.739
			C1595.012,6762.06,1596.918,6766.627,1596.918,6771.912z"/>
		<path clip-path="url(#SVGID_2_)" fill="#FFFFFF" d="M1357.301,7015.312c0,19.408-6.896,36.015-20.725,49.833
			c-13.809,13.804-30.42,20.72-49.824,20.72c-19.986,0-36.883-6.921-50.715-20.72c-13.805-13.822-20.725-30.425-20.725-49.833
			c0-19.99,6.926-36.906,20.725-50.701c13.832-13.822,30.729-20.725,50.715-20.725c19.404,0,36.016,6.902,49.824,20.725
			C1350.404,6978.419,1357.301,6995.33,1357.301,7015.312z"/>
		<path clip-path="url(#SVGID_2_)" fill="#EFE342" d="M1357.301,6771.903c0,19.985-6.896,36.896-20.725,50.715
			c-13.809,13.809-30.42,20.719-49.824,20.719c-19.986,0-36.883-6.924-50.715-20.719c-13.805-13.823-20.725-30.729-20.725-50.715
			c0-19.4,6.926-36.025,20.725-49.829c13.832-13.809,30.729-20.71,50.715-20.71c19.404,0,36.016,6.901,49.824,20.71
			C1350.404,6735.878,1357.301,6752.503,1357.301,6771.903z"/>
		<path clip-path="url(#SVGID_2_)" fill="#FFFFFF" d="M1306.152,6529.164c0,5.868-1.906,10.725-5.73,14.548
			c-3.813,3.826-8.383,5.733-13.67,5.733c-5.877,0-10.725-1.921-14.543-5.733c-3.826-3.823-5.738-8.685-5.738-14.548
			c0-5.291,1.912-9.853,5.738-13.666c3.818-3.841,8.67-5.743,14.543-5.743c5.287,0,9.861,1.902,13.67,5.743
			C1304.246,6519.316,1306.152,6523.873,1306.152,6529.164z"/>
		<path clip-path="url(#SVGID_2_)" fill="#FFFFFF" d="M1056.35,7015.312c0,5.305-1.77,9.842-5.295,13.675
			c-3.527,3.822-8.229,5.733-14.105,5.733c-5.299,0-9.838-1.911-13.67-5.733c-3.822-3.828-5.729-8.37-5.729-13.675
			c0-5.883,1.906-10.725,5.729-14.548c3.828-3.832,8.371-5.733,13.67-5.733c5.883,0,10.582,1.901,14.105,5.733
			C1054.586,7004.591,1056.35,7009.438,1056.35,7015.312z"/>
		<path clip-path="url(#SVGID_2_)" fill="#CB78A6" d="M1056.35,6771.912c0,5.877-1.77,10.729-5.295,14.547
			c-3.527,3.827-8.229,5.734-14.105,5.734c-5.299,0-9.838-1.907-13.67-5.734c-3.822-3.827-5.729-8.679-5.729-14.547
			c0-5.285,1.906-9.848,5.729-13.66c3.828-3.833,8.371-5.739,13.67-5.739c5.883,0,10.582,1.906,14.105,5.739
			C1054.586,6762.06,1056.35,6766.627,1056.35,6771.912z"/>
		<path clip-path="url(#SVGID_2_)" fill="#FFFFFF" d="M1056.35,6529.164c0,5.868-1.77,10.725-5.295,14.548
			c-3.527,3.826-8.229,5.733-14.105,5.733c-5.299,0-9.838-1.921-13.67-5.733c-3.822-3.823-5.729-8.685-5.729-14.548
			c0-5.291,1.906-9.853,5.729-13.666c3.828-3.841,8.371-5.743,13.67-5.743c5.883,0,10.582,1.902,14.105,5.743
			C1054.586,6519.316,1056.35,6523.873,1056.35,6529.164z"/>
		<path clip-path="url(#SVGID_2_)" fill="#009D73" d="M832.751,7014.435c0,19.977-6.897,36.892-20.733,50.705
			c-13.8,13.813-30.697,20.725-50.711,20.725c-19.395,0-36.01-6.921-49.828-20.725c-13.805-13.817-20.72-30.729-20.72-50.705
			c0-19.404,6.915-36.025,20.72-49.824c13.822-13.822,30.438-20.725,49.828-20.725c20,0,36.911,6.902,50.711,20.725
			C825.836,6978.414,832.751,6995.025,832.751,7014.435z"/>
		<path clip-path="url(#SVGID_2_)" fill="#FFFFFF" d="M832.751,6771.903c0,19.404-6.897,36.162-20.733,50.271
			c-13.8,14.113-30.697,21.167-50.711,21.167c-19.395,0-36.01-7.059-49.828-21.167c-13.805-14.104-20.72-30.863-20.72-50.271
			c0-9.405,1.916-18.375,5.729-26.893c3.832-8.527,8.822-16.034,14.99-22.479c6.182-6.482,13.67-11.62,22.492-15.434
			c8.822-3.832,17.941-5.733,27.336-5.733c10.01,0,19.262,1.901,27.774,5.733c8.536,3.822,16.044,8.951,22.498,15.434
			c6.478,6.454,11.615,13.961,15.438,22.479C830.85,6753.532,832.751,6762.498,832.751,6771.903z"/>
		<path clip-path="url(#SVGID_2_)" fill="#E69F00" d="M832.751,6529.159c0,19.981-6.897,36.893-20.733,50.71
			c-13.8,13.813-30.697,20.721-50.711,20.721c-19.395,0-36.01-6.916-49.828-20.721c-13.805-13.822-20.72-30.729-20.72-50.71
			c0-19.404,6.915-36.02,20.72-49.819c13.822-13.831,30.438-20.729,49.828-20.729c20,0,36.911,6.916,50.711,20.729
			C825.836,6493.149,832.751,6509.765,832.751,6529.159z"/>
		<path clip-path="url(#SVGID_2_)" fill="#CB78A6" d="M577.348,6771.903c0,19.404-6.892,36.162-20.714,50.271
			c-13.813,14.113-30.438,21.167-49.834,21.167c-19.972,0-36.878-7.059-50.7-21.167c-13.818-14.104-20.738-30.863-20.738-50.271
			c0-9.405,1.91-18.375,5.725-26.893c3.846-8.527,8.979-16.034,15.442-22.479c6.486-6.482,13.97-11.62,22.488-15.434
			c8.536-3.832,17.802-5.733,27.783-5.733c10.015,0,19.279,1.901,27.784,5.733c8.531,3.822,15.881,8.951,22.054,15.434
			c6.178,6.454,11.168,13.961,14.985,22.479C575.456,6753.532,577.348,6762.498,577.348,6771.903z"/>
		<path clip-path="url(#SVGID_2_)" fill="#FFFFFF" d="M525.748,7014.438c0,5.867-1.852,10.72-5.595,14.548
			c-3.74,3.822-8.195,5.733-13.361,5.733c-5.743,0-10.489-1.911-14.225-5.733c-3.749-3.828-5.6-8.681-5.6-14.548
			c0-5.291,1.851-9.852,5.6-13.67c3.735-3.832,8.481-5.734,14.225-5.734c5.166,0,9.621,1.907,13.361,5.734
			C523.887,7004.587,525.748,7009.147,525.748,7014.438z"/>
		<path clip-path="url(#SVGID_2_)" fill="#FFFFFF" d="M525.748,6529.164c0,5.868-1.852,10.725-5.595,14.548
			c-3.74,3.826-8.195,5.733-13.361,5.733c-5.743,0-10.489-1.921-14.225-5.733c-3.749-3.823-5.6-8.685-5.6-14.548
			c0-5.291,1.851-9.853,5.6-13.666c3.735-3.841,8.481-5.743,14.225-5.743c5.166,0,9.621,1.902,13.361,5.743
			C523.887,6519.316,525.748,6523.873,525.748,6529.164z"/>
		<path clip-path="url(#SVGID_2_)" fill="#0073B3" d="M318.179,7014.877c0,21.745-7.488,40.125-22.484,55.12
			c-14.985,14.994-33.369,22.487-55.118,22.487c-21.168,0-39.381-7.493-54.672-22.487c-15.281-14.995-22.932-33.385-22.932-55.12
			c0-10.586,2.064-20.586,6.168-29.985c4.123-9.404,9.714-17.64,16.764-24.695c7.05-7.059,15.286-12.645,24.686-16.754
			c9.409-4.132,19.404-6.173,29.99-6.173c21.754,0,40.134,7.628,55.124,22.932C310.691,6975.487,318.179,6993.709,318.179,7014.877z
			"/>
		<path clip-path="url(#SVGID_2_)" fill="#FFFFFF" d="M261.744,6772.355c0,5.863-1.906,10.863-5.729,14.99
			c-3.827,4.108-8.965,6.168-15.442,6.168c-5.873,0-10.872-2.068-14.995-6.168c-4.104-4.127-6.173-9.127-6.173-14.99
			c0-6.478,2.068-11.625,6.173-15.443c4.123-3.822,9.122-5.725,14.995-5.725c6.473,0,11.615,1.906,15.442,5.725
			C259.837,6760.73,261.744,6765.878,261.744,6772.355z"/>
		<path clip-path="url(#SVGID_2_)" fill="#009D73" d="M261.744,6529.598c0,6.469-1.906,11.603-5.729,15.438
			c-3.827,3.818-8.965,5.729-15.442,5.729c-5.873,0-10.872-1.911-14.995-5.729c-4.104-3.836-6.173-8.966-6.173-15.438
			c0-5.882,2.068-10.877,6.173-14.99c4.123-4.118,9.122-6.173,14.995-6.173c6.473,0,11.615,2.055,15.442,6.173
			C259.837,6518.711,261.744,6523.716,261.744,6529.598z"/>
		<path clip-path="url(#SVGID_2_)" fill="#FFFFFF" d="M58.312,7014.868c0,6.463-1.897,11.606-5.743,15.438
			c-3.805,3.823-8.947,5.73-15.43,5.73c-5.872,0-10.881-1.907-14.995-5.73c-4.108-3.827-6.182-8.961-6.182-15.438
			c0-5.877,2.073-10.877,6.182-14.99c4.114-4.128,9.123-6.174,14.995-6.174c6.482,0,11.625,2.06,15.43,6.174
			C56.405,7003.991,58.312,7008.991,58.312,7014.868z"/>
		<path clip-path="url(#SVGID_2_)" fill="#E69F00" d="M58.312,6772.355c0,5.863-1.897,10.863-5.743,14.99
			c-3.805,4.108-8.947,6.168-15.43,6.168c-5.872,0-10.881-2.068-14.995-6.168c-4.108-4.127-6.182-9.127-6.182-14.99
			c0-6.478,2.073-11.625,6.182-15.443c4.114-3.822,9.123-5.725,14.995-5.725c6.482,0,11.625,1.906,15.43,5.725
			C56.405,6760.73,58.312,6765.878,58.312,6772.355z"/>
		<path clip-path="url(#SVGID_2_)" fill="#FFFFFF" d="M58.312,6529.598c0,6.469-1.897,11.603-5.743,15.438
			c-3.805,3.818-8.947,5.729-15.43,5.729c-5.872,0-10.881-1.911-14.995-5.729c-4.108-3.836-6.182-8.966-6.182-15.438
			c0-5.882,2.073-10.877,6.182-14.99c4.114-4.118,9.123-6.173,14.995-6.173c6.482,0,11.625,2.055,15.43,6.173
			C56.405,6518.711,58.312,6523.716,58.312,6529.598z"/>
		<path clip-path="url(#SVGID_2_)" fill="#CB78A6" d="M1904.037,6027.519c0,21.172-7.496,39.252-22.486,54.246
			c-14.996,14.995-33.08,22.483-54.234,22.483c-21.754,0-40.129-7.488-55.127-22.483c-14.99-14.994-22.48-33.074-22.48-54.246
			s7.49-39.238,22.48-54.242c14.998-14.99,33.373-22.479,55.127-22.479c21.16,0,39.238,7.488,54.234,22.479
			C1896.537,5988.28,1904.037,6006.364,1904.037,6027.519z"/>
		<path clip-path="url(#SVGID_2_)" fill="#FFFFFF" d="M1848.48,6286.753c0,5.872-2.051,10.863-6.178,15
			c-4.104,4.1-9.104,6.167-14.99,6.167c-6.469,0-11.754-2.067-15.873-6.167c-4.104-4.137-6.172-9.128-6.172-15
			c0-6.478,2.068-11.769,6.174-15.887c4.127-4.117,9.408-6.172,15.871-6.172c5.887,0,10.887,2.055,14.99,6.172
			C1846.43,6274.984,1848.48,6280.275,1848.48,6286.753z"/>
		<path clip-path="url(#SVGID_2_)" fill="#FFFFFF" d="M1654.24,6286.748c0,21.163-7.498,39.242-22.484,54.229
			c-14.99,15.004-33.359,22.502-55.115,22.502c-21.166,0-39.246-7.498-54.242-22.502c-14.99-14.986-22.482-33.065-22.482-54.229
			c0-21.764,7.492-40.129,22.482-55.124c14.996-14.994,33.076-22.483,54.242-22.483c21.764,0,40.125,7.489,55.115,22.483
			C1646.742,6246.619,1654.24,6264.984,1654.24,6286.748z"/>
		<path clip-path="url(#SVGID_2_)" fill="#009D73" d="M1654.24,6027.519c0,21.172-7.498,39.252-22.484,54.246
			c-14.99,14.995-33.359,22.483-55.115,22.483c-21.166,0-39.246-7.488-54.242-22.483c-14.99-14.994-22.482-33.074-22.482-54.246
			s7.492-39.238,22.482-54.242c14.996-14.99,33.076-22.479,54.242-22.479c21.764,0,40.125,7.488,55.115,22.479
			C1646.742,5988.28,1654.24,6006.364,1654.24,6027.519z"/>
		<path clip-path="url(#SVGID_2_)" fill="#E69F00" d="M1363.912,6027.962c0,21.172-7.498,39.251-22.488,54.246
			c-14.996,14.99-33.361,22.488-55.119,22.488c-21.158,0-39.381-7.498-54.682-22.488c-15.275-14.995-22.926-33.061-22.926-54.246
			c0-21.759,7.65-40.12,22.926-55.124c15.301-14.996,33.523-22.475,54.682-22.475c21.768,0,40.123,7.479,55.119,22.475
			C1356.414,5987.833,1363.912,6006.203,1363.912,6027.962z"/>
		<path clip-path="url(#SVGID_2_)" fill="#FFFFFF" d="M1307.477,6286.31c0,6.459-1.902,11.602-5.729,15.434
			c-3.824,3.813-8.957,5.734-15.443,5.734c-5.873,0-10.867-1.921-14.99-5.734c-4.109-3.832-6.168-8.971-6.168-15.434
			c0-5.887,2.068-10.9,6.168-14.995c4.123-4.118,9.121-6.182,14.99-6.182c6.482,0,11.619,2.063,15.443,6.182
			C1305.57,6275.429,1307.477,6280.423,1307.477,6286.31z"/>
		<path clip-path="url(#SVGID_2_)" fill="#009D73" d="M1114.553,6286.31c0,21.74-7.498,40.124-22.492,55.114
			c-14.992,15.001-33.365,22.483-55.115,22.483c-21.168,0-39.391-7.482-54.672-22.483c-15.291-14.99-22.935-33.383-22.935-55.114
			c0-10.596,2.072-20.586,6.171-29.994c4.129-9.41,9.705-17.637,16.764-24.691c7.045-7.055,15.281-12.649,24.695-16.759
			c9.404-4.108,19.4-6.168,29.977-6.168c21.758,0,40.123,7.637,55.115,22.927C1107.055,6246.905,1114.553,6265.142,1114.553,6286.31
			z"/>
		<path clip-path="url(#SVGID_2_)" fill="#FFFFFF" d="M1058.117,6027.514c0,5.872-1.902,10.882-5.734,14.995
			c-3.826,4.108-8.955,6.191-15.438,6.191c-5.873,0-10.867-2.068-14.992-6.191c-4.111-4.113-6.182-9.123-6.182-14.995
			c0-6.468,2.074-11.602,6.182-15.42c4.125-3.837,9.119-5.747,14.992-5.747c6.473,0,11.611,1.91,15.438,5.747
			C1056.215,6015.912,1058.117,6021.046,1058.117,6027.514z"/>
		<path clip-path="url(#SVGID_2_)" fill="#FFFFFF" d="M839.363,6286.31c0,21.74-7.493,40.124-22.493,55.114
			c-14.99,15.001-33.36,22.483-55.119,22.483c-21.168,0-39.371-7.482-54.671-22.483c-15.282-14.99-22.932-33.383-22.932-55.114
			c0-10.596,2.06-20.586,6.167-29.994c4.123-9.41,9.719-17.637,16.765-24.691c7.05-7.055,15.3-12.649,24.69-16.759
			c9.408-4.108,19.395-6.168,29.985-6.168c21.764,0,40.128,7.637,55.119,22.927C831.87,6246.905,839.363,6265.142,839.363,6286.31z"
			/>
		<path clip-path="url(#SVGID_2_)" fill="#EFE342" d="M782.928,6027.514c0,5.872-1.912,10.882-5.739,14.995
			c-3.827,4.108-8.966,6.191-15.438,6.191c-5.877,0-10.873-2.068-14.991-6.191c-4.104-4.113-6.177-9.123-6.177-14.995
			c0-6.468,2.068-11.602,6.177-15.42c4.118-3.837,9.114-5.747,14.991-5.747c6.473,0,11.611,1.91,15.438,5.747
			C781.016,6015.912,782.928,6021.046,782.928,6027.514z"/>
		<path clip-path="url(#SVGID_2_)" fill="#EFE342" d="M583.969,6286.31c0,21.74-7.493,40.124-22.493,55.114
			c-14.985,15.001-33.351,22.483-55.109,22.483c-21.168,0-39.376-7.482-54.672-22.483c-15.286-14.99-22.944-33.383-22.944-55.114
			c0-10.596,2.067-20.586,6.182-29.994c4.127-9.41,9.699-17.637,16.763-24.691c7.06-7.055,15.296-12.649,24.69-16.759
			c9.404-4.108,19.395-6.168,29.985-6.168c21.764,0,40.124,7.637,55.11,22.927C576.471,6246.905,583.969,6265.142,583.969,6286.31z"
			/>
		<path clip-path="url(#SVGID_2_)" fill="#FFFFFF" d="M527.521,6027.514c0,5.872-1.894,10.882-5.734,14.995
			c-3.813,4.108-8.956,6.191-15.438,6.191c-5.873,0-10.877-2.068-14.995-6.191c-4.108-4.113-6.163-9.123-6.163-14.995
			c0-6.468,2.055-11.602,6.163-15.42c4.118-3.837,9.122-5.747,14.995-5.747c6.482,0,11.62,1.91,15.438,5.747
			C525.623,6015.912,527.521,6021.046,527.521,6027.514z"/>
		<path clip-path="url(#SVGID_2_)" fill="#CB78A6" d="M318.184,6286.31c0,21.74-7.498,40.124-22.479,55.114
			c-14.995,15.001-33.365,22.483-55.133,22.483c-21.159,0-39.371-7.482-54.662-22.483c-15.29-14.99-22.94-33.383-22.94-55.114
			c0-10.596,2.072-20.586,6.191-29.994c4.113-9.41,9.694-17.637,16.749-24.691c7.054-7.055,15.291-12.649,24.686-16.759
			c9.399-4.108,19.404-6.168,29.981-6.168c21.768,0,40.138,7.637,55.128,22.927C310.681,6246.905,318.184,6265.142,318.184,6286.31z
			"/>
		<path clip-path="url(#SVGID_2_)" fill="#0073B3" d="M261.744,6027.514c0,5.872-1.901,10.882-5.738,14.995
			c-3.823,4.108-8.956,6.191-15.442,6.191c-5.859,0-10.869-2.068-14.986-6.191c-4.109-4.113-6.178-9.123-6.178-14.995
			c0-6.468,2.068-11.602,6.178-15.42c4.117-3.837,9.127-5.747,14.986-5.747c6.486,0,11.619,1.91,15.442,5.747
			C259.842,6015.912,261.744,6021.046,261.744,6027.514z"/>
		<path clip-path="url(#SVGID_2_)" fill="#E69F00" d="M58.312,6286.31c0,6.459-1.897,11.602-5.733,15.434
			c-3.814,3.813-8.962,5.734-15.43,5.734c-5.892,0-10.882-1.921-15.005-5.734c-4.1-3.832-6.182-8.971-6.182-15.434
			c0-5.887,2.078-10.9,6.182-14.995c4.123-4.118,9.113-6.182,15.005-6.182c6.463,0,11.615,2.063,15.43,6.182
			C56.405,6275.429,58.312,6280.423,58.312,6286.31z"/>
		<path clip-path="url(#SVGID_2_)" fill="#FFFFFF" d="M58.312,6027.514c0,5.872-1.897,10.882-5.733,14.995
			c-3.814,4.108-8.962,6.191-15.43,6.191c-5.892,0-10.882-2.068-15.005-6.191c-4.1-4.113-6.182-9.123-6.182-14.995
			c0-6.468,2.078-11.602,6.182-15.42c4.123-3.837,9.113-5.747,15.005-5.747c6.463,0,11.615,1.91,15.43,5.747
			C56.405,6015.912,58.312,6021.046,58.312,6027.514z"/>
	</g>
</g>
</svg>
