<?xml version="1.0" encoding="utf-8"?>
<!-- Generator: Adobe Illustrator 16.0.0, SVG Export Plug-In . SVG Version: 6.00 Build 0)  -->
<!DOCTYPE svg PUBLIC "-//W3C//DTD SVG 1.1//EN" "http://www.w3.org/Graphics/SVG/1.1/DTD/svg11.dtd">
<svg version="1.1" xmlns="http://www.w3.org/2000/svg" xmlns:xlink="http://www.w3.org/1999/xlink" x="0px" y="0px" width="1920px"
	 height="1078.876px" viewBox="2049.024 5981.986 1920 1078.876" enable-background="new 2049.024 5981.986 1920 1078.876"
	 xml:space="preserve">
<g id="Layer_2">
</g>
<g id="svg2" xmlns:cc="http://creativecommons.org/ns#" xmlns:sodipodi="http://sodipodi.sourceforge.net/DTD/sodipodi-0.dtd" xmlns:inkscape="http://www.inkscape.org/namespaces/inkscape" xmlns:rdf="http://www.w3.org/1999/02/22-rdf-syntax-ns#" xmlns:dc="http://purl.org/dc/elements/1.1/" xmlns:svg="http://www.w3.org/2000/svg" inkscape:version="0.91 r13725" sodipodi:docname="pivot-02.svg" display="none">
</g>
<g id="Layer_3">
	<g>
		<defs>
			<rect id="SVGID_15_" x="2049.024" y="5981.986" width="1920" height="1078.876"/>
		</defs>
		<clipPath id="SVGID_2_">
			<use xlink:href="#SVGID_15_"  overflow="visible"/>
		</clipPath>
		<g id="Layer_2_11_" clip-path="url(#SVGID_2_)">
			<g>
				<rect x="2049.024" y="5981.424" fill="#32BCAD" width="1920" height="1080"/>
			</g>
		</g>
		<g clip-path="url(#SVGID_2_)">
			<path fill="#FFFFFF" d="M3895.298,7015.312c0,5.305-1.906,9.842-5.73,13.675c-3.816,3.822-8.379,5.733-13.678,5.733
				c-5.869,0-10.574-1.911-14.1-5.733c-3.533-3.828-5.297-8.37-5.297-13.675c0-5.883,1.76-10.725,5.297-14.548
				c3.525-3.832,8.24-5.733,14.1-5.733c5.299,0,9.855,1.901,13.678,5.733C3893.396,7004.591,3895.298,7009.438,3895.298,7015.312z"
				/>
			<path fill="#FFFFFF" d="M3895.298,6771.912c0,5.877-1.906,10.729-5.73,14.547c-3.816,3.827-8.379,5.734-13.678,5.734
				c-5.869,0-10.574-1.907-14.1-5.734c-3.533-3.827-5.297-8.679-5.297-14.547c0-5.285,1.76-9.848,5.297-13.66
				c3.525-3.833,8.24-5.739,14.1-5.739c5.299,0,9.855,1.906,13.678,5.739C3893.396,6762.06,3895.298,6766.627,3895.298,6771.912z"/>
			<path fill="#FFFFFF" d="M3895.298,6529.164c0,5.868-1.906,10.725-5.73,14.548c-3.816,3.826-8.379,5.733-13.678,5.733
				c-5.869,0-10.574-1.921-14.1-5.733c-3.533-3.823-5.297-8.685-5.297-14.548c0-5.291,1.76-9.853,5.297-13.666
				c3.525-3.841,8.24-5.743,14.1-5.743c5.299,0,9.855,1.902,13.678,5.743C3893.396,6519.316,3895.298,6523.873,3895.298,6529.164z"
				/>
			<path fill="#FFFFFF" d="M3697.097,7015.312c0,19.408-6.912,36.015-20.725,49.833c-13.818,13.804-30.715,20.72-50.719,20.72
				c-19.404,0-36.006-6.921-49.83-20.72c-13.813-13.822-20.719-30.425-20.719-49.833c0-19.99,6.91-36.906,20.719-50.701
				c13.824-13.822,30.426-20.725,49.83-20.725c19.994,0,36.9,6.902,50.719,20.725
				C3690.185,6978.419,3697.097,6995.33,3697.097,7015.312z"/>
			<path fill="#FFFFFF" d="M3697.097,6529.159c0,19.981-6.912,36.893-20.725,50.71c-13.818,13.813-30.715,20.721-50.719,20.721
				c-19.404,0-36.006-6.916-49.83-20.721c-13.813-13.822-20.719-30.729-20.719-50.71c0-19.404,6.91-36.02,20.719-49.819
				c13.824-13.831,30.426-20.729,49.83-20.729c19.994,0,36.9,6.916,50.719,20.729
				C3690.185,6493.149,3697.097,6509.765,3697.097,6529.159z"/>
			<path fill="#FFFFFF" d="M3645.942,6771.912c0,5.877-1.902,10.729-5.729,14.547c-3.814,3.827-8.666,5.734-14.553,5.734
				c-5.291,0-9.838-1.907-13.67-5.734c-3.826-3.827-5.729-8.679-5.729-14.547c0-5.285,1.902-9.848,5.729-13.66
				c3.828-3.833,8.371-5.739,13.662-5.739c5.885,0,10.738,1.906,14.557,5.739C3644.036,6762.06,3645.942,6766.627,3645.942,6771.912
				z"/>
			<path fill="#FFFFFF" d="M3406.325,7015.312c0,19.408-6.896,36.015-20.725,49.833c-13.809,13.804-30.42,20.72-49.824,20.72
				c-19.986,0-36.883-6.921-50.715-20.72c-13.805-13.822-20.725-30.425-20.725-49.833c0-19.99,6.926-36.906,20.725-50.701
				c13.832-13.822,30.729-20.725,50.715-20.725c19.404,0,36.016,6.902,49.824,20.725
				C3399.429,6978.419,3406.325,6995.33,3406.325,7015.312z"/>
			<path fill="#FFFFFF" d="M3406.325,6771.903c0,19.985-6.896,36.896-20.725,50.715c-13.809,13.809-30.42,20.719-49.824,20.719
				c-19.986,0-36.883-6.924-50.715-20.719c-13.805-13.823-20.725-30.729-20.725-50.715c0-19.4,6.926-36.025,20.725-49.829
				c13.832-13.809,30.729-20.71,50.715-20.71c19.404,0,36.016,6.901,49.824,20.71
				C3399.429,6735.878,3406.325,6752.503,3406.325,6771.903z"/>
			<path fill="#FFFFFF" d="M3355.177,6529.164c0,5.868-1.906,10.725-5.73,14.548c-3.813,3.826-8.383,5.733-13.67,5.733
				c-5.877,0-10.725-1.921-14.543-5.733c-3.826-3.823-5.738-8.685-5.738-14.548c0-5.291,1.912-9.853,5.738-13.666
				c3.818-3.841,8.67-5.743,14.543-5.743c5.287,0,9.861,1.902,13.67,5.743C3353.271,6519.316,3355.177,6523.873,3355.177,6529.164z"
				/>
			<path fill="#FFFFFF" d="M3105.374,7015.312c0,5.305-1.77,9.842-5.295,13.675c-3.527,3.822-8.229,5.733-14.105,5.733
				c-5.299,0-9.838-1.911-13.67-5.733c-3.822-3.828-5.729-8.37-5.729-13.675c0-5.883,1.906-10.725,5.729-14.548
				c3.828-3.832,8.371-5.733,13.67-5.733c5.883,0,10.582,1.901,14.105,5.733C3103.61,7004.591,3105.374,7009.438,3105.374,7015.312z
				"/>
			<path fill="#FFFFFF" d="M3105.374,6771.912c0,5.877-1.77,10.729-5.295,14.547c-3.527,3.827-8.229,5.734-14.105,5.734
				c-5.299,0-9.838-1.907-13.67-5.734c-3.822-3.827-5.729-8.679-5.729-14.547c0-5.285,1.906-9.848,5.729-13.66
				c3.828-3.833,8.371-5.739,13.67-5.739c5.883,0,10.582,1.906,14.105,5.739C3103.61,6762.06,3105.374,6766.627,3105.374,6771.912z"
				/>
			<path fill="#FFFFFF" d="M3105.374,6529.164c0,5.868-1.77,10.725-5.295,14.548c-3.527,3.826-8.229,5.733-14.105,5.733
				c-5.299,0-9.838-1.921-13.67-5.733c-3.822-3.823-5.729-8.685-5.729-14.548c0-5.291,1.906-9.853,5.729-13.666
				c3.828-3.841,8.371-5.743,13.67-5.743c5.883,0,10.582,1.902,14.105,5.743C3103.61,6519.316,3105.374,6523.873,3105.374,6529.164z
				"/>
			<path fill="#FFFFFF" d="M2881.775,7014.435c0,19.977-6.896,36.892-20.732,50.705c-13.801,13.813-30.697,20.725-50.711,20.725
				c-19.395,0-36.01-6.921-49.828-20.725c-13.805-13.817-20.721-30.729-20.721-50.705c0-19.404,6.916-36.025,20.721-49.824
				c13.822-13.822,30.438-20.725,49.828-20.725c20,0,36.91,6.902,50.711,20.725
				C2874.861,6978.414,2881.775,6995.025,2881.775,7014.435z"/>
			<path fill="#FFFFFF" d="M2881.775,6771.903c0,19.404-6.896,36.162-20.732,50.271c-13.801,14.113-30.697,21.167-50.711,21.167
				c-19.395,0-36.01-7.059-49.828-21.167c-13.805-14.104-20.721-30.863-20.721-50.271c0-9.405,1.916-18.375,5.73-26.893
				c3.832-8.527,8.822-16.034,14.99-22.479c6.182-6.482,13.67-11.62,22.492-15.434c8.822-3.832,17.941-5.733,27.336-5.733
				c10.01,0,19.262,1.901,27.773,5.733c8.537,3.822,16.045,8.951,22.498,15.434c6.479,6.454,11.615,13.961,15.438,22.479
				C2879.875,6753.532,2881.775,6762.498,2881.775,6771.903z"/>
			<path fill="#FFFFFF" d="M2881.775,6529.159c0,19.981-6.896,36.893-20.732,50.71c-13.801,13.813-30.697,20.721-50.711,20.721
				c-19.395,0-36.01-6.916-49.828-20.721c-13.805-13.822-20.721-30.729-20.721-50.71c0-19.404,6.916-36.02,20.721-49.819
				c13.822-13.831,30.438-20.729,49.828-20.729c20,0,36.91,6.916,50.711,20.729
				C2874.861,6493.149,2881.775,6509.765,2881.775,6529.159z"/>
			<path fill="#FFFFFF" d="M2626.373,6771.903c0,19.404-6.893,36.162-20.715,50.271c-13.813,14.113-30.438,21.167-49.834,21.167
				c-19.971,0-36.877-7.059-50.699-21.167c-13.818-14.104-20.738-30.863-20.738-50.271c0-9.405,1.91-18.375,5.725-26.893
				c3.846-8.527,8.979-16.034,15.441-22.479c6.486-6.482,13.971-11.62,22.488-15.434c8.537-3.832,17.803-5.733,27.783-5.733
				c10.016,0,19.279,1.901,27.785,5.733c8.531,3.822,15.881,8.951,22.053,15.434c6.178,6.454,11.168,13.961,14.986,22.479
				C2624.48,6753.532,2626.373,6762.498,2626.373,6771.903z"/>
			<path fill="#FFFFFF" d="M2574.771,7014.438c0,5.867-1.852,10.72-5.594,14.548c-3.74,3.822-8.195,5.733-13.361,5.733
				c-5.744,0-10.49-1.911-14.225-5.733c-3.75-3.828-5.6-8.681-5.6-14.548c0-5.291,1.85-9.852,5.6-13.67
				c3.734-3.832,8.48-5.734,14.225-5.734c5.166,0,9.621,1.907,13.361,5.734C2572.912,7004.587,2574.771,7009.147,2574.771,7014.438z
				"/>
			<path fill="#FFFFFF" d="M2574.771,6529.164c0,5.868-1.852,10.725-5.594,14.548c-3.74,3.826-8.195,5.733-13.361,5.733
				c-5.744,0-10.49-1.921-14.225-5.733c-3.75-3.823-5.6-8.685-5.6-14.548c0-5.291,1.85-9.853,5.6-13.666
				c3.734-3.841,8.48-5.743,14.225-5.743c5.166,0,9.621,1.902,13.361,5.743C2572.912,6519.316,2574.771,6523.873,2574.771,6529.164z
				"/>
			<path fill="#FFFFFF" d="M2367.203,7014.877c0,21.745-7.488,40.125-22.484,55.12c-14.984,14.994-33.369,22.487-55.117,22.487
				c-21.168,0-39.381-7.493-54.672-22.487c-15.281-14.995-22.932-33.385-22.932-55.12c0-10.586,2.064-20.586,6.168-29.985
				c4.123-9.404,9.713-17.64,16.764-24.695c7.049-7.059,15.285-12.645,24.686-16.754c9.408-4.132,19.404-6.173,29.99-6.173
				c21.754,0,40.133,7.628,55.123,22.932C2359.715,6975.487,2367.203,6993.709,2367.203,7014.877z"/>
			<path fill="#FFFFFF" d="M2310.768,6772.355c0,5.863-1.906,10.863-5.729,14.99c-3.828,4.108-8.965,6.168-15.443,6.168
				c-5.873,0-10.871-2.068-14.994-6.168c-4.105-4.127-6.174-9.127-6.174-14.99c0-6.478,2.068-11.625,6.174-15.443
				c4.123-3.822,9.121-5.725,14.994-5.725c6.473,0,11.615,1.906,15.443,5.725C2308.861,6760.73,2310.768,6765.878,2310.768,6772.355
				z"/>
			<path fill="#FFFFFF" d="M2310.768,6529.598c0,6.469-1.906,11.603-5.729,15.438c-3.828,3.818-8.965,5.729-15.443,5.729
				c-5.873,0-10.871-1.911-14.994-5.729c-4.105-3.836-6.174-8.966-6.174-15.438c0-5.882,2.068-10.877,6.174-14.99
				c4.123-4.118,9.121-6.173,14.994-6.173c6.473,0,11.615,2.055,15.443,6.173
				C2308.861,6518.711,2310.768,6523.716,2310.768,6529.598z"/>
			<path fill="#FFFFFF" d="M2107.336,7014.868c0,6.463-1.896,11.606-5.742,15.438c-3.805,3.823-8.947,5.73-15.43,5.73
				c-5.873,0-10.881-1.907-14.996-5.73c-4.107-3.827-6.182-8.961-6.182-15.438c0-5.877,2.074-10.877,6.182-14.99
				c4.115-4.128,9.123-6.174,14.996-6.174c6.482,0,11.625,2.06,15.43,6.174C2105.43,7003.991,2107.336,7008.991,2107.336,7014.868z"
				/>
			<path fill="#FFFFFF" d="M2107.336,6772.355c0,5.863-1.896,10.863-5.742,14.99c-3.805,4.108-8.947,6.168-15.43,6.168
				c-5.873,0-10.881-2.068-14.996-6.168c-4.107-4.127-6.182-9.127-6.182-14.99c0-6.478,2.074-11.625,6.182-15.443
				c4.115-3.822,9.123-5.725,14.996-5.725c6.482,0,11.625,1.906,15.43,5.725C2105.43,6760.73,2107.336,6765.878,2107.336,6772.355z"
				/>
			<path fill="#FFFFFF" d="M2107.336,6529.598c0,6.469-1.896,11.603-5.742,15.438c-3.805,3.818-8.947,5.729-15.43,5.729
				c-5.873,0-10.881-1.911-14.996-5.729c-4.107-3.836-6.182-8.966-6.182-15.438c0-5.882,2.074-10.877,6.182-14.99
				c4.115-4.118,9.123-6.173,14.996-6.173c6.482,0,11.625,2.055,15.43,6.173C2105.43,6518.711,2107.336,6523.716,2107.336,6529.598z
				"/>
			<path fill="#FFFFFF" d="M3953.062,6027.519c0,21.172-7.496,39.252-22.486,54.246c-14.996,14.995-33.08,22.483-54.234,22.483
				c-21.754,0-40.129-7.488-55.127-22.483c-14.99-14.994-22.48-33.074-22.48-54.246s7.49-39.238,22.48-54.242
				c14.998-14.99,33.373-22.479,55.127-22.479c21.16,0,39.238,7.488,54.234,22.479
				C3945.562,5988.28,3953.062,6006.364,3953.062,6027.519z"/>
			<path fill="#FFFFFF" d="M3897.505,6286.753c0,5.872-2.051,10.863-6.178,15c-4.104,4.1-9.104,6.167-14.99,6.167
				c-6.469,0-11.754-2.067-15.873-6.167c-4.104-4.137-6.172-9.128-6.172-15c0-6.478,2.068-11.769,6.174-15.887
				c4.127-4.117,9.408-6.172,15.871-6.172c5.887,0,10.887,2.055,14.99,6.172C3895.454,6274.984,3897.505,6280.275,3897.505,6286.753
				z"/>
			<path fill="#FFFFFF" d="M3703.265,6286.748c0,21.163-7.498,39.242-22.484,54.229c-14.99,15.004-33.359,22.502-55.115,22.502
				c-21.166,0-39.246-7.498-54.242-22.502c-14.99-14.986-22.482-33.065-22.482-54.229c0-21.764,7.492-40.129,22.482-55.124
				c14.996-14.994,33.076-22.483,54.242-22.483c21.764,0,40.125,7.489,55.115,22.483
				C3695.767,6246.619,3703.265,6264.984,3703.265,6286.748z"/>
			<path fill="#FFFFFF" d="M3703.265,6027.519c0,21.172-7.498,39.252-22.484,54.246c-14.99,14.995-33.359,22.483-55.115,22.483
				c-21.166,0-39.246-7.488-54.242-22.483c-14.99-14.994-22.482-33.074-22.482-54.246s7.492-39.238,22.482-54.242
				c14.996-14.99,33.076-22.479,54.242-22.479c21.764,0,40.125,7.488,55.115,22.479
				C3695.767,5988.28,3703.265,6006.364,3703.265,6027.519z"/>
			<path fill="#FFFFFF" d="M3412.937,6027.962c0,21.172-7.498,39.251-22.488,54.246c-14.996,14.99-33.361,22.488-55.119,22.488
				c-21.158,0-39.381-7.498-54.682-22.488c-15.275-14.995-22.926-33.061-22.926-54.246c0-21.759,7.65-40.12,22.926-55.124
				c15.301-14.996,33.523-22.475,54.682-22.475c21.768,0,40.123,7.479,55.119,22.475
				C3405.438,5987.833,3412.937,6006.203,3412.937,6027.962z"/>
			<path fill="#FFFFFF" d="M3356.501,6286.31c0,6.459-1.902,11.602-5.729,15.434c-3.824,3.813-8.957,5.734-15.443,5.734
				c-5.873,0-10.867-1.921-14.99-5.734c-4.109-3.832-6.168-8.971-6.168-15.434c0-5.887,2.068-10.9,6.168-14.995
				c4.123-4.118,9.121-6.182,14.99-6.182c6.482,0,11.619,2.063,15.443,6.182C3354.595,6275.429,3356.501,6280.423,3356.501,6286.31z
				"/>
			<path fill="#FFFFFF" d="M3163.577,6286.31c0,21.74-7.498,40.124-22.492,55.114c-14.992,15.001-33.365,22.483-55.115,22.483
				c-21.168,0-39.391-7.482-54.672-22.483c-15.291-14.99-22.935-33.383-22.935-55.114c0-10.596,2.071-20.586,6.171-29.994
				c4.129-9.41,9.705-17.637,16.764-24.691c7.045-7.055,15.281-12.649,24.695-16.759c9.404-4.108,19.4-6.168,29.977-6.168
				c21.758,0,40.123,7.637,55.115,22.927C3156.079,6246.905,3163.577,6265.142,3163.577,6286.31z"/>
			<path fill="#FFFFFF" d="M3107.142,6027.514c0,5.872-1.902,10.882-5.734,14.995c-3.826,4.108-8.955,6.191-15.438,6.191
				c-5.873,0-10.867-2.068-14.992-6.191c-4.111-4.113-6.182-9.123-6.182-14.995c0-6.468,2.074-11.602,6.182-15.42
				c4.125-3.837,9.119-5.747,14.992-5.747c6.473,0,11.611,1.91,15.438,5.747C3105.239,6015.912,3107.142,6021.046,3107.142,6027.514
				z"/>
			<path fill="#FFFFFF" d="M2888.387,6286.31c0,21.74-7.492,40.124-22.492,55.114c-14.99,15.001-33.361,22.483-55.119,22.483
				c-21.168,0-39.371-7.482-54.672-22.483c-15.281-14.99-22.932-33.383-22.932-55.114c0-10.596,2.061-20.586,6.168-29.994
				c4.123-9.41,9.719-17.637,16.764-24.691c7.051-7.055,15.301-12.649,24.691-16.759c9.408-4.108,19.395-6.168,29.984-6.168
				c21.764,0,40.129,7.637,55.119,22.927C2880.895,6246.905,2888.387,6265.142,2888.387,6286.31z"/>
			<path fill="#FFFFFF" d="M2831.953,6027.514c0,5.872-1.912,10.882-5.74,14.995c-3.826,4.108-8.965,6.191-15.438,6.191
				c-5.877,0-10.873-2.068-14.992-6.191c-4.104-4.113-6.176-9.123-6.176-14.995c0-6.468,2.068-11.602,6.176-15.42
				c4.119-3.837,9.115-5.747,14.992-5.747c6.473,0,11.611,1.91,15.438,5.747C2830.041,6015.912,2831.953,6021.046,2831.953,6027.514
				z"/>
			<path fill="#FFFFFF" d="M2632.994,6286.31c0,21.74-7.494,40.124-22.494,55.114c-14.984,15.001-33.35,22.483-55.109,22.483
				c-21.168,0-39.375-7.482-54.672-22.483c-15.285-14.99-22.943-33.383-22.943-55.114c0-10.596,2.066-20.586,6.182-29.994
				c4.127-9.41,9.699-17.637,16.762-24.691c7.061-7.055,15.297-12.649,24.691-16.759c9.404-4.108,19.395-6.168,29.984-6.168
				c21.764,0,40.125,7.637,55.111,22.927C2625.496,6246.905,2632.994,6265.142,2632.994,6286.31z"/>
			<path fill="#FFFFFF" d="M2576.545,6027.514c0,5.872-1.893,10.882-5.734,14.995c-3.813,4.108-8.955,6.191-15.438,6.191
				c-5.873,0-10.877-2.068-14.996-6.191c-4.107-4.113-6.162-9.123-6.162-14.995c0-6.468,2.055-11.602,6.162-15.42
				c4.119-3.837,9.123-5.747,14.996-5.747c6.482,0,11.619,1.91,15.438,5.747C2574.646,6015.912,2576.545,6021.046,2576.545,6027.514
				z"/>
			<path fill="#FFFFFF" d="M2367.209,6286.31c0,21.74-7.498,40.124-22.48,55.114c-14.994,15.001-33.365,22.483-55.133,22.483
				c-21.158,0-39.371-7.482-54.662-22.483c-15.289-14.99-22.939-33.383-22.939-55.114c0-10.596,2.072-20.586,6.191-29.994
				c4.113-9.41,9.693-17.637,16.748-24.691s15.291-12.649,24.686-16.759c9.4-4.108,19.404-6.168,29.982-6.168
				c21.768,0,40.137,7.637,55.127,22.927C2359.705,6246.905,2367.209,6265.142,2367.209,6286.31z"/>
			<path fill="#FFFFFF" d="M2310.768,6027.514c0,5.872-1.9,10.882-5.738,14.995c-3.822,4.108-8.955,6.191-15.441,6.191
				c-5.859,0-10.869-2.068-14.986-6.191c-4.109-4.113-6.178-9.123-6.178-14.995c0-6.468,2.068-11.602,6.178-15.42
				c4.117-3.837,9.127-5.747,14.986-5.747c6.486,0,11.619,1.91,15.441,5.747C2308.867,6015.912,2310.768,6021.046,2310.768,6027.514
				z"/>
			<path fill="#FFFFFF" d="M2107.336,6286.31c0,6.459-1.896,11.602-5.732,15.434c-3.814,3.813-8.963,5.734-15.43,5.734
				c-5.893,0-10.883-1.921-15.006-5.734c-4.1-3.832-6.182-8.971-6.182-15.434c0-5.887,2.078-10.9,6.182-14.995
				c4.123-4.118,9.113-6.182,15.006-6.182c6.463,0,11.615,2.063,15.43,6.182C2105.43,6275.429,2107.336,6280.423,2107.336,6286.31z"
				/>
			<path fill="#FFFFFF" d="M2107.336,6027.514c0,5.872-1.896,10.882-5.732,14.995c-3.814,4.108-8.963,6.191-15.43,6.191
				c-5.893,0-10.883-2.068-15.006-6.191c-4.1-4.113-6.182-9.123-6.182-14.995c0-6.468,2.078-11.602,6.182-15.42
				c4.123-3.837,9.113-5.747,15.006-5.747c6.463,0,11.615,1.91,15.43,5.747C2105.43,6015.912,2107.336,6021.046,2107.336,6027.514z"
				/>
		</g>
	</g>
</g>
</svg>
