<?xml version="1.0" encoding="utf-8"?>
<!-- Generator: Adobe Illustrator 16.0.0, SVG Export Plug-In . SVG Version: 6.00 Build 0)  -->
<!DOCTYPE svg PUBLIC "-//W3C//DTD SVG 1.1//EN" "http://www.w3.org/Graphics/SVG/1.1/DTD/svg11.dtd">
<svg version="1.1" xmlns="http://www.w3.org/2000/svg" xmlns:xlink="http://www.w3.org/1999/xlink" x="0px" y="0px"
	 width="453.544px" height="453.543px" viewBox="0 0 453.544 453.543" enable-background="new 0 0 453.544 453.543"
	 xml:space="preserve">
<g id="kvadrat" display="none">
</g>
<g id="color">
	<g id="rdeča7bela">
	</g>
	<g>
		
			<path fill="#CABA9F" stroke="#000000" stroke-width="8" stroke-linecap="round" stroke-linejoin="round" stroke-miterlimit="10" d="
			M269.36,347.931c0,16.793-4.836,30.402-10.8,30.402h-63.578c-5.965,0-10.8-13.609-10.8-30.402v-76.168h85.178V347.931z"/>
		
			<path fill="#E20613" stroke="#000000" stroke-width="8" stroke-linecap="round" stroke-linejoin="round" stroke-miterlimit="10" d="
			M252.347,224.275c-5.456-2.548-11.399-9.238-11.399-23.18c0-14.255,4.309-26.072,9.945-28.259l-0.115-64.836
			c0,0,2.686-32.789-16.993-32.792h-4.741h-4.544h-4.74c-19.679,0.003-16.995,32.792-16.995,32.792l-0.114,64.836
			c5.638,2.187,9.946,14.004,9.946,28.259c0,13.942-5.943,20.632-11.399,23.18l-19.466,10.344v41.81h90.082v-41.81L252.347,224.275z
			"/>
		
			<line fill="#0073B3" stroke="#000100" stroke-width="8" stroke-linecap="round" stroke-linejoin="round" stroke-miterlimit="10" x1="211.825" y1="311.917" x2="211.825" y2="375.81"/>
		
			<line fill="#0073B3" stroke="#000100" stroke-width="8" stroke-linecap="round" stroke-linejoin="round" stroke-miterlimit="10" x1="241.721" y1="311.917" x2="241.721" y2="375.81"/>
		
			<rect x="181.979" y="243.985" fill="#A6A8AB" stroke="#000000" stroke-width="8" stroke-linecap="round" stroke-linejoin="round" stroke-miterlimit="10" width="89.399" height="33.054"/>
	</g>
</g>
<g id="cb" display="none">
	<g id="rdeča7bela_copy" display="inline">
	</g>
	<g display="inline">
		<path fill="none" stroke="#000000" stroke-width="8" stroke-linecap="round" stroke-linejoin="round" stroke-miterlimit="10" d="
			M194.96,229.267c5.456,2.549,11.399,9.239,11.399,23.18c0,14.255-4.309,26.072-9.946,28.26l0.116,64.834
			c0,0-2.686,32.789,16.993,32.792h4.74h4.544h4.741c19.679-0.003,16.994-32.792,16.994-32.792l0.114-64.834
			c-5.637-2.188-9.945-14.005-9.945-28.26c0-13.941,5.943-20.631,11.399-23.18l19.466-10.344v-41.81h-90.082v41.81L194.96,229.267z"
			/>
		
			<line fill="none" stroke="#000000" stroke-width="8" stroke-linecap="round" stroke-linejoin="round" stroke-miterlimit="10" x1="235.48" y1="141.625" x2="235.48" y2="77.734"/>
		
			<line fill="none" stroke="#000000" stroke-width="8" stroke-linecap="round" stroke-linejoin="round" stroke-miterlimit="10" x1="205.586" y1="141.625" x2="205.586" y2="77.734"/>
		<path fill="none" stroke="#000000" stroke-width="8" stroke-linecap="round" stroke-linejoin="round" stroke-miterlimit="10" d="
			M263.124,176.505v-70.895c0-16.792-4.836-30.401-10.8-30.401h-63.578c-5.965,0-10.8,13.609-10.8,30.401v70.895H263.124z"/>
		
			<rect x="175.928" y="176.506" fill="none" stroke="#000000" stroke-width="8" stroke-linecap="round" stroke-linejoin="round" stroke-miterlimit="10" width="89.399" height="33.053"/>
	</g>
</g>
<g id="pivot">
	<circle fill="none" cx="226.411" cy="376.246" r="14.133"/>
</g>
</svg>
