<?xml version="1.0" encoding="utf-8"?>
<!-- Generator: Adobe Illustrator 16.0.0, SVG Export Plug-In . SVG Version: 6.00 Build 0)  -->
<!DOCTYPE svg PUBLIC "-//W3C//DTD SVG 1.1//EN" "http://www.w3.org/Graphics/SVG/1.1/DTD/svg11.dtd">
<svg version="1.1" xmlns="http://www.w3.org/2000/svg" xmlns:xlink="http://www.w3.org/1999/xlink" x="0px" y="0px"
	 width="453.544px" height="453.543px" viewBox="0 0 453.544 453.543" enable-background="new 0 0 453.544 453.543"
	 xml:space="preserve">
<g id="kvadrat" display="none">
</g>
<g id="color">
	<g id="rdeča7bela">
	</g>
	
		<path fill="#A6A8AB" stroke="#000000" stroke-width="8" stroke-linecap="round" stroke-linejoin="round" stroke-miterlimit="10" d="
		M274.89,103.324c0-19.289-11.355-35.921-27.744-43.593v11.131v8.644v14.882l-20.373,11.764l-20.375-11.764V79.505l0,0V59.731
		c-16.387,7.672-27.744,24.304-27.744,43.593c0,19.291,11.357,35.921,27.744,43.594v187.634
		c-7.766,6.064-12.764,15.507-12.764,26.123c0,18.301,14.836,33.138,33.139,33.138c18.301,0,33.137-14.837,33.137-33.138
		c0-10.616-4.998-20.059-12.764-26.124V146.917C263.534,139.245,274.89,122.615,274.89,103.324z M226.772,371.973
		c-6.24,0-11.299-5.059-11.299-11.298s5.059-11.297,11.299-11.297c6.238,0,11.297,5.058,11.297,11.297
		S233.011,371.973,226.772,371.973z"/>
</g>
<g id="cb" display="none">
	<g id="rdeča7bela_copy" display="inline">
	</g>
	
		<path display="inline" fill="none" stroke="#000000" stroke-width="8" stroke-linecap="round" stroke-linejoin="round" stroke-miterlimit="10" d="
		M274.89,103.324c0-19.289-11.355-35.921-27.744-43.593v11.131v8.644v14.882l-20.373,11.764l-20.375-11.764V79.505l0,0V59.731
		c-16.387,7.672-27.744,24.304-27.744,43.593c0,19.291,11.357,35.921,27.744,43.594v187.634
		c-7.766,6.064-12.764,15.507-12.764,26.123c0,18.301,14.836,33.138,33.139,33.138c18.301,0,33.137-14.837,33.137-33.138
		c0-10.616-4.998-20.059-12.764-26.124V146.917C263.534,139.245,274.89,122.615,274.89,103.324z M226.772,371.973
		c-6.24,0-11.299-5.059-11.299-11.298s5.059-11.297,11.299-11.297c6.238,0,11.297,5.058,11.297,11.297
		S233.011,371.973,226.772,371.973z"/>
</g>
<g id="pivot">
	<circle fill="none" cx="222.578" cy="386.373" r="14.133"/>
</g>
</svg>
