<?xml version="1.0" encoding="utf-8"?>
<!-- Generator: Adobe Illustrator 16.0.0, SVG Export Plug-In . SVG Version: 6.00 Build 0)  -->
<!DOCTYPE svg PUBLIC "-//W3C//DTD SVG 1.1//EN" "http://www.w3.org/Graphics/SVG/1.1/DTD/svg11.dtd">
<svg version="1.1"
	 id="svg2" inkscape:version="0.91 r13725" sodipodi:docname="pivot-01.svg" xmlns:rdf="http://www.w3.org/1999/02/22-rdf-syntax-ns#" xmlns:cc="http://creativecommons.org/ns#" xmlns:sodipodi="http://sodipodi.sourceforge.net/DTD/sodipodi-0.dtd" xmlns:dc="http://purl.org/dc/elements/1.1/" xmlns:svg="http://www.w3.org/2000/svg" xmlns:inkscape="http://www.inkscape.org/namespaces/inkscape"
	 xmlns="http://www.w3.org/2000/svg" xmlns:xlink="http://www.w3.org/1999/xlink" x="0px" y="0px" width="1920px" height="1080px"
	 viewBox="0 0 1920 1080" enable-background="new 0 0 1920 1080" xml:space="preserve">
<g id="AREA6">
	<circle id="circle430" fill="#FFFF00" cx="718.355" cy="877.604" r="7.857"/>
	<circle id="circle432" fill="#FFFF00" cx="550.012" cy="877.604" r="7.857"/>
	<circle id="circle434" fill="#FFFF00" cx="1153.629" cy="530.643" r="7.857"/>
	<circle id="circle436" fill="#FFFF00" cx="739.398" cy="1031.285" r="7.857"/>
	<circle id="circle438" fill="#FFFF00" cx="1222.357" cy="1000.501" r="7.857"/>
	<circle id="circle440" fill="#FFFF00" cx="1027.371" cy="530.643" r="7.857"/>
	<circle id="circle442" fill="#FFFF00" cx="1120.643" cy="708.501" r="7.857"/>
	<circle id="circle418" fill="#FFFF00" cx="267.77" cy="752.501" r="7.857"/>
	<circle id="circle420" fill="#FFFF00" cx="404.944" cy="752.501" r="7.857"/>
	<circle id="circle424" fill="#FFFF00" cx="344.5" cy="634.357" r="7.857"/>
	<circle id="circle426" fill="#FFFF00" cx="582.5" cy="982.643" r="7.857"/>
	<circle id="circle428" fill="#FFFF00" cx="866.644" cy="872.5" r="7.857"/>
	<circle id="circle410" fill="#FFFF00" cx="1280.643" cy="874.5" r="7.857"/>
	<circle id="circle412" fill="#FFFF00" cx="177.183" cy="270.5" r="7.857"/>
	<circle id="circle414" fill="#FFFF00" cx="314.357" cy="270.5" r="7.857"/>
	<circle id="circle416" fill="#FFFF00" cx="228.643" cy="120.5" r="7.857"/>
	<circle id="circle398" fill="#FFFF00" cx="893.124" cy="354.775" r="7.857"/>
	<circle id="circle400" fill="#FFFF00" cx="80.5" cy="960.643" r="7.857"/>
	<circle id="circle402" fill="#FFFF00" cx="196.25" cy="928.357" r="7.857"/>
	<circle id="circle404" fill="#FFFF00" cx="252.643" cy="988.501" r="7.857"/>
	<circle id="circle406" fill="#FFFF00" cx="376.748" cy="928.357" r="7.857"/>
	<circle id="circle408" fill="#FFFF00" cx="1140.595" cy="877.604" r="7.857"/>
	<circle id="circle380" fill="#FFFF00" cx="250.606" cy="406.501" r="7.857"/>
	<circle id="circle382" fill="#FFFF00" cx="807.373" cy="131.775" r="7.857"/>
	<circle id="circle384" fill="#FFFF00" cx="1073.623" cy="195.775" r="7.857"/>
	<circle id="circle386" fill="#FFFF00" cx="1306.357" cy="450.501" r="7.857"/>
	<circle id="circle388" fill="#FFFF00" cx="1254.121" cy="195.775" r="7.857"/>
	<circle id="circle390" fill="#FFFF00" cx="532.127" cy="354.775" r="7.857"/>
	<circle id="circle392" fill="#FFFF00" cx="586.357" cy="488.501" r="7.857"/>
	<circle id="circle394" fill="#FFFF00" cx="712.625" cy="354.775" r="7.857"/>
	<circle id="circle396" fill="#FFFF00" cx="1018.875" cy="290.775" r="7.857"/>
	<circle id="circle370" fill="#FFFF00" cx="970.919" cy="709.018" r="7.857"/>
	<circle id="circle372" fill="#FFFF00" cx="532.127" cy="195.775" r="7.857"/>
	<circle id="circle374" fill="#FFFF00" cx="622.376" cy="195.775" r="7.857"/>
	<circle id="circle376" fill="#FFFF00" cx="70.107" cy="406.501" r="7.857"/>
	<circle id="circle378" fill="#FFFF00" cx="180.357" cy="528.501" r="7.857"/>
	<circle id="circle368" fill="#FFFF00" cx="1233.867" cy="709.018" r="7.857"/>
	<circle id="circle366" fill="#FFFF00" cx="743.709" cy="693.018" r="7.857"/>
	<circle id="circle364" fill="#FFFF00" cx="590.151" cy="693.018" r="7.857"/>
	<circle id="circle352" fill="#FFFF00" cx="839.725" cy="579.901" r="7.857"/>
	<circle id="circle346" fill="#FFFF00" cx="540.816" cy="549.901" r="7.857"/>
	<circle id="circle348" fill="#FFFF00" cx="170.357" cy="632.501" r="7.857"/>
	<circle id="circle350" fill="#FFFF00" cx="656.089" cy="549.901" r="7.857"/>
</g>
</svg>
