<?xml version="1.0" encoding="utf-8"?>
<!-- Generator: Adobe Illustrator 16.0.0, SVG Export Plug-In . SVG Version: 6.00 Build 0)  -->
<!DOCTYPE svg PUBLIC "-//W3C//DTD SVG 1.1//EN" "http://www.w3.org/Graphics/SVG/1.1/DTD/svg11.dtd">
<svg version="1.1" xmlns="http://www.w3.org/2000/svg" xmlns:xlink="http://www.w3.org/1999/xlink" x="0px" y="0px" width="220px"
	 height="220px" viewBox="0 0 220 220" enable-background="new 0 0 220 220" xml:space="preserve">
<g id="bg" display="none">
	<rect x="-1345.836" y="-2481.787" display="inline" fill="#FFFFFF" width="3240.076" height="8444.104"/>
</g>
<g id="Layer_3" display="none">
</g>
<g id="Layer_1">
	<g>
		<defs>
			<rect id="SVGID_261_" x="-900" y="-1500" width="220" height="220"/>
		</defs>
		<clipPath id="SVGID_2_">
			<use xlink:href="#SVGID_261_"  overflow="visible"/>
		</clipPath>
	</g>
	<g>
		<defs>
			<rect id="SVGID_269_" x="-600" y="-1500" width="220" height="220"/>
		</defs>
		<clipPath id="SVGID_4_">
			<use xlink:href="#SVGID_269_"  overflow="visible"/>
		</clipPath>
	</g>
	<g>
		<defs>
			<rect id="SVGID_271_" x="0" y="-1500" width="220" height="220"/>
		</defs>
		<clipPath id="SVGID_6_">
			<use xlink:href="#SVGID_271_"  overflow="visible"/>
		</clipPath>
	</g>
	<g>
		<defs>
			<rect id="SVGID_341_" width="220" height="220"/>
		</defs>
		<clipPath id="SVGID_8_">
			<use xlink:href="#SVGID_341_"  overflow="visible"/>
		</clipPath>
		<rect clip-path="url(#SVGID_8_)" fill="#0073B3" width="220" height="220"/>
		<rect clip-path="url(#SVGID_8_)" fill="#57B3E6" width="220" height="110"/>
		<g clip-path="url(#SVGID_8_)">
			
				<line fill="none" stroke="#000100" stroke-width="2.4" stroke-linecap="round" stroke-linejoin="round" stroke-miterlimit="10" x1="42.862" y1="22.406" x2="44.617" y2="33.611"/>
			
				<line fill="none" stroke="#000100" stroke-width="2.4" stroke-linecap="round" stroke-linejoin="round" stroke-miterlimit="10" x1="55.761" y1="22.406" x2="54.006" y2="33.611"/>
			
				<rect x="43.74" y="33.611" fill="#7F4F25" stroke="#000100" stroke-width="2.4" stroke-linecap="round" stroke-linejoin="round" stroke-miterlimit="10" width="11.475" height="11.475"/>
			<g>
				
					<path fill="#026634" stroke="#000100" stroke-width="2.4" stroke-linecap="round" stroke-linejoin="round" stroke-miterlimit="10" d="
					M71.025-12.076c0,6.032-4.89,10.921-10.921,10.921c-6.032,0-10.921-4.889-10.921-10.921c0,6.032-4.89,10.921-10.921,10.921
					S27.341-6.044,27.341-12.076c0,3.815-1.957,7.171-4.921,9.124c8.392,15.337,20.242,24.418,20.242,24.418h8.934h3.956h0.921
					c0,0,11.67-8.941,20.049-24.065C73.238-4.482,71.025-8.02,71.025-12.076z"/>
				
					<path fill="#39A935" stroke="#000100" stroke-width="2.4" stroke-linecap="round" stroke-linejoin="round" stroke-miterlimit="10" d="
					M78.467-30.648c-1.414,1.266-3.279,2.036-5.326,2.036c-4.411,0-7.986-3.575-7.986-7.986c0,4.411-3.576,7.986-7.986,7.986
					c-4.411,0-7.986-3.575-7.986-7.986c0,4.411-3.575,7.986-7.986,7.986c-4.41,0-7.986-3.575-7.986-7.986
					c0,4.411-3.575,7.986-7.986,7.986c-1.783,0-3.429-0.584-4.757-1.573c-3.285,7.906-3.161,17.037,0.521,24.486
					c0.463,0.937,0.942,1.852,1.431,2.747c2.964-1.953,4.921-5.309,4.921-9.124c0,6.032,4.89,10.921,10.921,10.921
					s10.921-4.889,10.921-10.921c0,6.032,4.889,10.921,10.921,10.921c6.031,0,10.921-4.889,10.921-10.921
					c0,4.057,2.213,7.594,5.497,9.478c0.558-1.007,1.101-2.04,1.625-3.101C81.9-13.296,81.953-22.638,78.467-30.648z"/>
			</g>
		</g>
		<g clip-path="url(#SVGID_8_)">
			<g>
				
					<path fill="#DDDB01" stroke="#000100" stroke-width="2.4" stroke-linecap="round" stroke-linejoin="round" stroke-miterlimit="10" d="
					M33.211,183.401c0,4.411,3.576,7.986,7.986,7.986c4.411,0,7.986-3.575,7.986-7.986c0,4.411,3.575,7.986,7.986,7.986
					c4.41,0,7.986-3.575,7.986-7.986c0,4.411,3.575,7.986,7.986,7.986c2.047,0,3.912-0.771,5.326-2.036
					c-4.313-9.911-14.043-17.783-28.899-17.783c-15.088,0-24.892,8.118-29.1,18.247c1.329,0.988,2.975,1.572,4.757,1.572
					C29.636,191.388,33.211,187.813,33.211,183.401z"/>
				
					<path fill="#026634" stroke="#000100" stroke-width="2.4" stroke-linecap="round" stroke-linejoin="round" stroke-miterlimit="10" d="
					M71.025,207.924c0,6.032-4.89,10.921-10.921,10.921c-6.032,0-10.921-4.889-10.921-10.921c0,6.032-4.89,10.921-10.921,10.921
					s-10.921-4.889-10.921-10.921c0,3.815-1.957,7.171-4.921,9.124c8.392,15.337,20.242,24.418,20.242,24.418h8.934h3.956h0.921
					c0,0,11.67-8.941,20.049-24.065C73.238,215.518,71.025,211.98,71.025,207.924z"/>
				
					<path fill="#39A935" stroke="#000100" stroke-width="2.4" stroke-linecap="round" stroke-linejoin="round" stroke-miterlimit="10" d="
					M78.467,189.352c-1.414,1.266-3.279,2.036-5.326,2.036c-4.411,0-7.986-3.575-7.986-7.986c0,4.411-3.576,7.986-7.986,7.986
					c-4.411,0-7.986-3.575-7.986-7.986c0,4.411-3.575,7.986-7.986,7.986c-4.41,0-7.986-3.575-7.986-7.986
					c0,4.411-3.575,7.986-7.986,7.986c-1.783,0-3.429-0.584-4.757-1.572c-3.285,7.905-3.161,17.036,0.521,24.485
					c0.463,0.937,0.942,1.852,1.431,2.747c2.964-1.953,4.921-5.309,4.921-9.124c0,6.032,4.89,10.921,10.921,10.921
					s10.921-4.889,10.921-10.921c0,6.032,4.889,10.921,10.921,10.921c6.031,0,10.921-4.889,10.921-10.921
					c0,4.057,2.213,7.594,5.497,9.478c0.558-1.007,1.101-2.04,1.625-3.101C81.9,206.704,81.953,197.362,78.467,189.352z"/>
			</g>
		</g>
		<g clip-path="url(#SVGID_8_)">
			
				<line fill="none" stroke="#000100" stroke-width="2.4" stroke-linecap="round" stroke-linejoin="round" stroke-miterlimit="10" x1="157.384" y1="56.073" x2="159.14" y2="67.278"/>
			
				<line fill="none" stroke="#000100" stroke-width="2.4" stroke-linecap="round" stroke-linejoin="round" stroke-miterlimit="10" x1="170.284" y1="56.073" x2="168.529" y2="67.278"/>
			
				<rect x="158.263" y="67.278" fill="#7F4F25" stroke="#000100" stroke-width="2.4" stroke-linecap="round" stroke-linejoin="round" stroke-miterlimit="10" width="11.475" height="11.475"/>
			<g>
				
					<path fill="#026634" stroke="#000100" stroke-width="2.4" stroke-linecap="round" stroke-linejoin="round" stroke-miterlimit="10" d="
					M147.734-2.932c0,4.411,3.576,7.986,7.986,7.986c4.411,0,7.986-3.575,7.986-7.986c0,4.411,3.575,7.986,7.986,7.986
					c4.41,0,7.986-3.575,7.986-7.986c0,4.411,3.575,7.986,7.986,7.986c2.047,0,3.913-0.77,5.326-2.037
					c-4.313-9.91-14.043-17.782-28.899-17.782c-15.088,0-24.892,8.118-29.1,18.247c1.329,0.988,2.975,1.572,4.757,1.572
					C144.159,5.055,147.734,1.479,147.734-2.932z"/>
				
					<path fill="#DDDB01" stroke="#000100" stroke-width="2.4" stroke-linecap="round" stroke-linejoin="round" stroke-miterlimit="10" d="
					M185.548,21.591c0,6.032-4.89,10.921-10.921,10.921c-6.032,0-10.921-4.889-10.921-10.921c0,6.032-4.89,10.921-10.921,10.921
					s-10.921-4.889-10.921-10.921c0,3.815-1.957,7.171-4.921,9.124c8.392,15.337,20.242,24.418,20.242,24.418h8.934h3.956h0.921
					c0,0,11.67-8.94,20.049-24.064C187.761,29.185,185.548,25.648,185.548,21.591z"/>
				
					<path fill="#39A935" stroke="#000100" stroke-width="2.4" stroke-linecap="round" stroke-linejoin="round" stroke-miterlimit="10" d="
					M192.99,3.018c-1.414,1.268-3.279,2.037-5.326,2.037c-4.411,0-7.986-3.575-7.986-7.986c0,4.411-3.576,7.986-7.986,7.986
					c-4.411,0-7.986-3.575-7.986-7.986c0,4.411-3.575,7.986-7.986,7.986c-4.41,0-7.986-3.575-7.986-7.986
					c0,4.411-3.575,7.986-7.986,7.986c-1.783,0-3.429-0.584-4.757-1.572c-3.285,7.905-3.161,17.035,0.521,24.485
					c0.463,0.937,0.942,1.852,1.431,2.747c2.964-1.953,4.921-5.309,4.921-9.124c0,6.032,4.89,10.921,10.921,10.921
					s10.921-4.889,10.921-10.921c0,6.032,4.889,10.921,10.921,10.921c6.031,0,10.921-4.889,10.921-10.921
					c0,4.057,2.213,7.594,5.497,9.478c0.558-1.007,1.101-2.04,1.625-3.101C196.423,20.371,196.476,11.029,192.99,3.018z"/>
			</g>
		</g>
		<g clip-path="url(#SVGID_8_)">
			<g>
				
					<path fill="#026634" stroke="#000100" stroke-width="2.4" stroke-linecap="round" stroke-linejoin="round" stroke-miterlimit="10" d="
					M147.734,217.068c0,4.411,3.576,7.986,7.986,7.986c4.411,0,7.986-3.575,7.986-7.986c0,4.411,3.575,7.986,7.986,7.986
					c4.41,0,7.986-3.575,7.986-7.986c0,4.411,3.575,7.986,7.986,7.986c2.047,0,3.913-0.77,5.326-2.037
					c-4.313-9.91-14.043-17.782-28.899-17.782c-15.088,0-24.892,8.118-29.1,18.247c1.329,0.988,2.975,1.572,4.757,1.572
					C144.159,225.055,147.734,221.479,147.734,217.068z"/>
				
					<path fill="#39A935" stroke="#000100" stroke-width="2.4" stroke-linecap="round" stroke-linejoin="round" stroke-miterlimit="10" d="
					M192.99,223.018c-1.414,1.268-3.279,2.037-5.326,2.037c-4.411,0-7.986-3.575-7.986-7.986c0,4.411-3.576,7.986-7.986,7.986
					c-4.411,0-7.986-3.575-7.986-7.986c0,4.411-3.575,7.986-7.986,7.986c-4.41,0-7.986-3.575-7.986-7.986
					c0,4.411-3.575,7.986-7.986,7.986c-1.783,0-3.429-0.584-4.757-1.572c-3.285,7.905-3.161,17.035,0.521,24.485
					c0.463,0.937,0.942,1.852,1.431,2.747c2.964-1.953,4.921-5.309,4.921-9.124c0,6.032,4.89,10.921,10.921,10.921
					s10.921-4.889,10.921-10.921c0,6.032,4.889,10.921,10.921,10.921c6.031,0,10.921-4.889,10.921-10.921
					c0,4.057,2.213,7.594,5.497,9.478c0.558-1.007,1.101-2.04,1.625-3.101C196.423,240.371,196.476,231.029,192.99,223.018z"/>
			</g>
		</g>
		<g clip-path="url(#SVGID_8_)">
			
				<path fill="none" stroke="#000100" stroke-width="4.5" stroke-linecap="round" stroke-linejoin="round" stroke-miterlimit="10" d="
				M135.667,121.372c0,0,1.309,0,4.485,0c3.175,0,3.212,1.745,3.212,6.634c0,4.888,0,14.314,0,14.314"/>
			
				<polygon fill="#585757" stroke="#000100" stroke-width="2.4" stroke-linecap="round" stroke-linejoin="round" stroke-miterlimit="10" points="
				159.088,148.787 133.461,148.787 135.486,132.969 155.038,132.969 			"/>
			
				<path fill="#585757" stroke="#000100" stroke-width="2.4" stroke-linecap="round" stroke-linejoin="round" stroke-miterlimit="10" d="
				M203.403,164.648c0-13.207-93.403-36.946-93.403-0.574C110,200.446,203.403,177.854,203.403,164.648z"/>
			
				<circle fill="#FFFFFF" stroke="#000100" stroke-width="2.4" stroke-linecap="round" stroke-linejoin="round" stroke-miterlimit="10" cx="131.165" cy="161.319" r="5.832"/>
			
				<circle fill="#FFFFFF" stroke="#000100" stroke-width="2.4" stroke-linecap="round" stroke-linejoin="round" stroke-miterlimit="10" cx="147.903" cy="161.319" r="5.832"/>
			
				<circle fill="#FFFFFF" stroke="#000100" stroke-width="2.4" stroke-linecap="round" stroke-linejoin="round" stroke-miterlimit="10" cx="164.641" cy="161.319" r="5.833"/>
			
				<path fill="#000100" stroke="#000100" stroke-width="2.4" stroke-linecap="round" stroke-linejoin="round" stroke-miterlimit="10" d="
				M203.36,164.604c0.873,0,4.03-10.517,0.063-10.517S202.487,164.604,203.36,164.604z"/>
			
				<path fill="#000100" stroke="#000100" stroke-width="2.4" stroke-linecap="round" stroke-linejoin="round" stroke-miterlimit="10" d="
				M203.36,164.604c0.873,0,4.03,10.516,0.063,10.516S202.487,164.604,203.36,164.604z"/>
		</g>
		<g clip-path="url(#SVGID_8_)">
			
				<path fill="none" stroke="#000100" stroke-width="4.5" stroke-linecap="round" stroke-linejoin="round" stroke-miterlimit="10" d="
				M84.333,66.705c0,0-1.309,0-4.485,0c-3.175,0-3.212,1.745-3.212,6.634c0,4.888,0,14.314,0,14.314"/>
			
				<polygon fill="#585757" stroke="#000100" stroke-width="2.4" stroke-linecap="round" stroke-linejoin="round" stroke-miterlimit="10" points="
				60.912,94.12 86.539,94.12 84.514,78.301 64.962,78.301 			"/>
			
				<path fill="#585757" stroke="#000100" stroke-width="2.4" stroke-linecap="round" stroke-linejoin="round" stroke-miterlimit="10" d="
				M16.597,109.981c0-13.208,93.403-36.946,93.403-0.575C110,145.779,16.597,123.186,16.597,109.981z"/>
			
				<circle fill="#FFFFFF" stroke="#000100" stroke-width="2.4" stroke-linecap="round" stroke-linejoin="round" stroke-miterlimit="10" cx="88.835" cy="106.652" r="5.832"/>
			
				<circle fill="#FFFFFF" stroke="#000100" stroke-width="2.4" stroke-linecap="round" stroke-linejoin="round" stroke-miterlimit="10" cx="72.096" cy="106.652" r="5.832"/>
			
				<circle fill="#FFFFFF" stroke="#000100" stroke-width="2.4" stroke-linecap="round" stroke-linejoin="round" stroke-miterlimit="10" cx="55.359" cy="106.652" r="5.833"/>
			
				<path fill="#000100" stroke="#000100" stroke-width="2.4" stroke-linecap="round" stroke-linejoin="round" stroke-miterlimit="10" d="
				M16.64,109.938c-0.873,0-4.03-10.517-0.063-10.517S17.512,109.938,16.64,109.938z"/>
			
				<path fill="#000100" stroke="#000100" stroke-width="2.4" stroke-linecap="round" stroke-linejoin="round" stroke-miterlimit="10" d="
				M16.64,109.938c-0.873,0-4.03,10.515-0.063,10.515S17.512,109.938,16.64,109.938z"/>
		</g>
	</g>
</g>
</svg>
