<?xml version="1.0" encoding="utf-8"?>
<!-- Generator: Adobe Illustrator 16.0.0, SVG Export Plug-In . SVG Version: 6.00 Build 0)  -->
<!DOCTYPE svg PUBLIC "-//W3C//DTD SVG 1.1//EN" "http://www.w3.org/Graphics/SVG/1.1/DTD/svg11.dtd">
<svg version="1.1" xmlns="http://www.w3.org/2000/svg" xmlns:xlink="http://www.w3.org/1999/xlink" x="0px" y="0px" width="220px"
	 height="220px" viewBox="0 0 220 220" enable-background="new 0 0 220 220" xml:space="preserve">
<g id="bg" display="none">
	<rect x="-1045.836" y="-2481.787" display="inline" fill="#FFFFFF" width="3240.076" height="8444.104"/>
</g>
<g id="Layer_3" display="none">
</g>
<g id="Layer_1">
	<g>
		<defs>
			<rect id="SVGID_261_" x="-600" y="-1500" width="220" height="220"/>
		</defs>
		<clipPath id="SVGID_2_">
			<use xlink:href="#SVGID_261_"  overflow="visible"/>
		</clipPath>
	</g>
	<g>
		<defs>
			<rect id="SVGID_269_" x="-300" y="-1500" width="220" height="220"/>
		</defs>
		<clipPath id="SVGID_4_">
			<use xlink:href="#SVGID_269_"  overflow="visible"/>
		</clipPath>
	</g>
	<g>
		<defs>
			<rect id="SVGID_353_" width="220" height="220"/>
		</defs>
		<clipPath id="SVGID_6_">
			<use xlink:href="#SVGID_353_"  overflow="visible"/>
		</clipPath>
		<rect clip-path="url(#SVGID_6_)" fill="#0073B3" width="220" height="220"/>
		<rect clip-path="url(#SVGID_6_)" fill="#57B3E6" width="220" height="110"/>
		<g clip-path="url(#SVGID_6_)">
			
				<line fill="none" stroke="#000100" stroke-width="2.4" stroke-linecap="round" stroke-linejoin="round" stroke-miterlimit="10" x1="42.862" y1="46.406" x2="44.616" y2="57.611"/>
			
				<line fill="none" stroke="#000100" stroke-width="2.4" stroke-linecap="round" stroke-linejoin="round" stroke-miterlimit="10" x1="55.761" y1="46.406" x2="54.006" y2="57.611"/>
			
				<rect x="43.74" y="57.611" fill="#7F4F25" stroke="#000100" stroke-width="2.4" stroke-linecap="round" stroke-linejoin="round" stroke-miterlimit="10" width="11.475" height="11.475"/>
			<g>
				
					<path fill="#026634" stroke="#000100" stroke-width="2.4" stroke-linecap="round" stroke-linejoin="round" stroke-miterlimit="10" d="
					M71.025,11.924c0,6.032-4.89,10.921-10.921,10.921c-6.032,0-10.921-4.889-10.921-10.921c0,6.032-4.89,10.921-10.921,10.921
					s-10.921-4.889-10.921-10.921c0,3.815-1.957,7.171-4.921,9.124c8.392,15.337,20.242,24.418,20.242,24.418h6.324h2.609h3.956
					h0.921c0,0,11.67-8.941,20.049-24.065C73.238,19.518,71.025,15.98,71.025,11.924z"/>
				
					<path fill="#39A935" stroke="#000100" stroke-width="2.4" stroke-linecap="round" stroke-linejoin="round" stroke-miterlimit="10" d="
					M78.467-6.648c-1.414,1.266-3.279,2.036-5.326,2.036c-4.411,0-7.986-3.575-7.986-7.986c0,4.411-3.576,7.986-7.986,7.986
					c-4.411,0-7.986-3.575-7.986-7.986c0,4.411-3.575,7.986-7.986,7.986c-4.41,0-7.986-3.575-7.986-7.986
					c0,4.411-3.575,7.986-7.986,7.986c-1.783,0-3.429-0.584-4.757-1.573c-3.285,7.906-3.161,17.037,0.521,24.486
					c0.463,0.937,0.942,1.852,1.431,2.747c2.964-1.953,4.921-5.309,4.921-9.124c0,6.032,4.89,10.921,10.921,10.921
					s10.921-4.889,10.921-10.921c0,6.032,4.889,10.921,10.921,10.921c6.031,0,10.921-4.889,10.921-10.921
					c0,4.057,2.213,7.594,5.497,9.478c0.558-1.007,1.101-2.04,1.625-3.101C81.9,10.704,81.953,1.362,78.467-6.648z"/>
			</g>
		</g>
		<g clip-path="url(#SVGID_6_)">
			<g>
				
					<path fill="#DDDB01" stroke="#000100" stroke-width="2.4" stroke-linecap="round" stroke-linejoin="round" stroke-miterlimit="10" d="
					M33.211,207.401c0,4.411,3.576,7.986,7.986,7.986c4.411,0,7.986-3.575,7.986-7.986c0,4.411,3.575,7.986,7.986,7.986
					c4.41,0,7.986-3.575,7.986-7.986c0,4.411,3.575,7.986,7.986,7.986c2.047,0,3.912-0.771,5.326-2.036
					c-4.313-9.911-14.043-17.783-28.899-17.783c-15.088,0-24.892,8.118-29.1,18.247c1.329,0.988,2.975,1.572,4.757,1.572
					C29.636,215.388,33.211,211.813,33.211,207.401z"/>
				
					<path fill="#39A935" stroke="#000100" stroke-width="2.4" stroke-linecap="round" stroke-linejoin="round" stroke-miterlimit="10" d="
					M78.467,213.352c-1.414,1.266-3.279,2.036-5.326,2.036c-4.411,0-7.986-3.575-7.986-7.986c0,4.411-3.576,7.986-7.986,7.986
					c-4.411,0-7.986-3.575-7.986-7.986c0,4.411-3.575,7.986-7.986,7.986c-4.41,0-7.986-3.575-7.986-7.986
					c0,4.411-3.575,7.986-7.986,7.986c-1.783,0-3.429-0.584-4.757-1.572c-3.285,7.905-3.161,17.036,0.521,24.485
					c0.463,0.937,0.942,1.852,1.431,2.747c2.964-1.953,4.921-5.309,4.921-9.124c0,6.032,4.89,10.921,10.921,10.921
					s10.921-4.889,10.921-10.921c0,6.032,4.889,10.921,10.921,10.921c6.031,0,10.921-4.889,10.921-10.921
					c0,4.057,2.213,7.594,5.497,9.478c0.558-1.007,1.101-2.04,1.625-3.101C81.9,230.704,81.953,221.362,78.467,213.352z"/>
			</g>
		</g>
		<g clip-path="url(#SVGID_6_)">
			
				<line fill="none" stroke="#000100" stroke-width="2.4" stroke-linecap="round" stroke-linejoin="round" stroke-miterlimit="10" x1="157.384" y1="80.073" x2="159.14" y2="91.278"/>
			
				<line fill="none" stroke="#000100" stroke-width="2.4" stroke-linecap="round" stroke-linejoin="round" stroke-miterlimit="10" x1="170.284" y1="80.073" x2="168.529" y2="91.278"/>
			
				<rect x="158.263" y="91.278" fill="#7F4F25" stroke="#000100" stroke-width="2.4" stroke-linecap="round" stroke-linejoin="round" stroke-miterlimit="10" width="11.475" height="11.475"/>
			<g>
				
					<path fill="#DDDB01" stroke="#000100" stroke-width="2.4" stroke-linecap="round" stroke-linejoin="round" stroke-miterlimit="10" d="
					M147.734,21.068c0,4.411,3.576,7.986,7.986,7.986c4.411,0,7.986-3.575,7.986-7.986c0,4.411,3.575,7.986,7.986,7.986
					c4.41,0,7.986-3.575,7.986-7.986c0,4.411,3.575,7.986,7.986,7.986c2.047,0,3.913-0.77,5.326-2.037
					c-4.313-9.91-14.043-17.782-28.899-17.782c-15.088,0-24.892,8.118-29.1,18.247c1.329,0.988,2.975,1.572,4.757,1.572
					C144.159,29.055,147.734,25.479,147.734,21.068z"/>
				
					<path fill="#026634" stroke="#000100" stroke-width="2.4" stroke-linecap="round" stroke-linejoin="round" stroke-miterlimit="10" d="
					M185.548,45.591c0,6.032-4.89,10.921-10.921,10.921c-6.032,0-10.921-4.889-10.921-10.921c0,6.032-4.89,10.921-10.921,10.921
					s-10.921-4.889-10.921-10.921c0,3.815-1.957,7.171-4.921,9.124c8.392,15.337,20.242,24.418,20.242,24.418h8.934h3.956h0.921
					c0,0,11.67-8.94,20.049-24.064C187.761,53.185,185.548,49.648,185.548,45.591z"/>
				
					<path fill="#39A935" stroke="#000100" stroke-width="2.4" stroke-linecap="round" stroke-linejoin="round" stroke-miterlimit="10" d="
					M192.99,27.018c-1.414,1.268-3.279,2.037-5.326,2.037c-4.411,0-7.986-3.575-7.986-7.986c0,4.411-3.576,7.986-7.986,7.986
					c-4.411,0-7.986-3.575-7.986-7.986c0,4.411-3.575,7.986-7.986,7.986c-4.41,0-7.986-3.575-7.986-7.986
					c0,4.411-3.575,7.986-7.986,7.986c-1.783,0-3.429-0.584-4.757-1.572c-3.285,7.905-3.161,17.035,0.521,24.485
					c0.463,0.937,0.942,1.852,1.431,2.747c2.964-1.953,4.921-5.309,4.921-9.124c0,6.032,4.89,10.921,10.921,10.921
					s10.921-4.889,10.921-10.921c0,6.032,4.889,10.921,10.921,10.921c6.031,0,10.921-4.889,10.921-10.921
					c0,4.057,2.213,7.594,5.497,9.478c0.558-1.007,1.101-2.04,1.625-3.101C196.423,44.371,196.476,35.029,192.99,27.018z"/>
			</g>
		</g>
		<g clip-path="url(#SVGID_6_)">
			
				<path fill="none" stroke="#000100" stroke-width="4.5" stroke-linecap="round" stroke-linejoin="round" stroke-miterlimit="10" d="
				M179.711,145.372c0,0-1.309,0-4.485,0c-3.175,0-3.212,1.745-3.212,6.634c0,4.888,0,14.314,0,14.314"/>
			
				<polygon fill="#585757" stroke="#000100" stroke-width="2.4" stroke-linecap="round" stroke-linejoin="round" stroke-miterlimit="10" points="
				156.29,172.787 181.916,172.787 179.891,156.969 160.339,156.969 			"/>
			
				<path fill="#585757" stroke="#000100" stroke-width="2.4" stroke-linecap="round" stroke-linejoin="round" stroke-miterlimit="10" d="
				M111.974,188.648c0-13.207,93.403-36.946,93.403-0.574C205.377,224.446,111.974,201.854,111.974,188.648z"/>
			
				<circle fill="#FFFFFF" stroke="#000100" stroke-width="2.4" stroke-linecap="round" stroke-linejoin="round" stroke-miterlimit="10" cx="184.212" cy="185.319" r="5.832"/>
			
				<circle fill="#FFFFFF" stroke="#000100" stroke-width="2.4" stroke-linecap="round" stroke-linejoin="round" stroke-miterlimit="10" cx="167.474" cy="185.319" r="5.832"/>
			
				<circle fill="#FFFFFF" stroke="#000100" stroke-width="2.4" stroke-linecap="round" stroke-linejoin="round" stroke-miterlimit="10" cx="150.736" cy="185.319" r="5.832"/>
			
				<path fill="#000100" stroke="#000100" stroke-width="2.4" stroke-linecap="round" stroke-linejoin="round" stroke-miterlimit="10" d="
				M112.017,188.604c-0.873,0-4.03-10.517-0.063-10.517S112.89,188.604,112.017,188.604z"/>
			
				<path fill="#000100" stroke="#000100" stroke-width="2.4" stroke-linecap="round" stroke-linejoin="round" stroke-miterlimit="10" d="
				M112.017,188.604c-0.873,0-4.03,10.516-0.063,10.516S112.89,188.604,112.017,188.604z"/>
		</g>
		<g clip-path="url(#SVGID_6_)">
			
				<path fill="none" stroke="#000100" stroke-width="4.5" stroke-linecap="round" stroke-linejoin="round" stroke-miterlimit="10" d="
				M40.289,90.705c0,0,1.309,0,4.485,0c3.174,0,3.212,1.745,3.212,6.634c0,4.888,0,14.314,0,14.314"/>
			
				<polygon fill="#585757" stroke="#000100" stroke-width="2.4" stroke-linecap="round" stroke-linejoin="round" stroke-miterlimit="10" points="
				63.71,118.12 38.084,118.12 40.109,102.301 59.661,102.301 			"/>
			
				<path fill="#585757" stroke="#000100" stroke-width="2.4" stroke-linecap="round" stroke-linejoin="round" stroke-miterlimit="10" d="
				M108.026,133.981c0-13.208-93.403-36.946-93.403-0.575C14.623,169.779,108.026,147.186,108.026,133.981z"/>
			
				<circle fill="#FFFFFF" stroke="#000100" stroke-width="2.4" stroke-linecap="round" stroke-linejoin="round" stroke-miterlimit="10" cx="35.788" cy="130.652" r="5.832"/>
			
				<circle fill="#FFFFFF" stroke="#000100" stroke-width="2.4" stroke-linecap="round" stroke-linejoin="round" stroke-miterlimit="10" cx="52.526" cy="130.652" r="5.832"/>
			
				<circle fill="#FFFFFF" stroke="#000100" stroke-width="2.4" stroke-linecap="round" stroke-linejoin="round" stroke-miterlimit="10" cx="69.264" cy="130.652" r="5.832"/>
			
				<path fill="#000100" stroke="#000100" stroke-width="2.4" stroke-linecap="round" stroke-linejoin="round" stroke-miterlimit="10" d="
				M107.983,133.938c0.873,0,4.03-10.517,0.063-10.517S107.11,133.938,107.983,133.938z"/>
			
				<path fill="#000100" stroke="#000100" stroke-width="2.4" stroke-linecap="round" stroke-linejoin="round" stroke-miterlimit="10" d="
				M107.983,133.938c0.873,0,4.03,10.515,0.063,10.515S107.11,133.938,107.983,133.938z"/>
		</g>
		
			<line clip-path="url(#SVGID_6_)" fill="#026634" stroke="#000100" stroke-width="2.4" stroke-linecap="round" stroke-linejoin="round" stroke-miterlimit="10" x1="49.542" y1="57.611" x2="49.542" y2="46.104"/>
		
			<line clip-path="url(#SVGID_6_)" fill="#026634" stroke="#000100" stroke-width="2.4" stroke-linecap="round" stroke-linejoin="round" stroke-miterlimit="10" x1="163.673" y1="90.694" x2="163.673" y2="79.187"/>
	</g>
</g>
</svg>
