<?xml version="1.0" encoding="utf-8"?>
<!-- Generator: Adobe Illustrator 16.0.0, SVG Export Plug-In . SVG Version: 6.00 Build 0)  -->
<!DOCTYPE svg PUBLIC "-//W3C//DTD SVG 1.1//EN" "http://www.w3.org/Graphics/SVG/1.1/DTD/svg11.dtd">
<svg version="1.1" xmlns="http://www.w3.org/2000/svg" xmlns:xlink="http://www.w3.org/1999/xlink" x="0px" y="0px"
	 width="453.543px" height="453.543px" viewBox="0 0 453.543 453.543" enable-background="new 0 0 453.543 453.543"
	 xml:space="preserve">
<g id="kvadrat" display="none">
</g>
<g id="color">
	<g>
		
			<path fill="#7E4E24" stroke="#000000" stroke-width="8" stroke-linecap="round" stroke-linejoin="round" stroke-miterlimit="10" d="
			M242.346,105.727l-23.593,0.016l2.496,59.922l0.192-0.001c-0.007,0.506,0.067,1.01,0.233,1.506c0.892,2.659,4.06,3.991,7.076,2.98
			c2.215-0.745,3.728-2.546,4.024-4.503l0.141-0.001L242.346,105.727z"/>
		
			<ellipse fill="#EE7D00" stroke="#000000" stroke-width="8" stroke-linecap="round" stroke-linejoin="round" stroke-miterlimit="10" cx="246.529" cy="249.55" rx="65.101" ry="98.268"/>
		
			<path fill="#EE7D00" stroke="#000000" stroke-width="8" stroke-linecap="round" stroke-linejoin="round" stroke-miterlimit="10" d="
			M181.768,249.55c0-43.778,18.969-80.863,45.175-93.57c-6.282-3.045-12.977-4.698-19.927-4.698
			c-35.956,0-65.102,43.995-65.102,98.268c0,54.271,29.146,98.268,65.102,98.268c6.951,0,13.645-1.65,19.927-4.697
			C200.736,330.414,181.768,293.329,181.768,249.55z"/>
		<circle fill="none" cx="219.823" cy="346.33" r="26.708"/>
	</g>
	<g id="rdeča7bela">
	</g>
</g>
<g id="cb" display="none">
	<g id="rdeča7bela_copy" display="inline">
	</g>
</g>
<g id="pivot">
	<circle fill="none" cx="222.146" cy="341.561" r="14.132"/>
</g>
</svg>
