<?xml version="1.0" encoding="utf-8"?>
<!-- Generator: Adobe Illustrator 16.0.0, SVG Export Plug-In . SVG Version: 6.00 Build 0)  -->
<!DOCTYPE svg PUBLIC "-//W3C//DTD SVG 1.1//EN" "http://www.w3.org/Graphics/SVG/1.1/DTD/svg11.dtd">
<svg version="1.1" xmlns="http://www.w3.org/2000/svg" xmlns:xlink="http://www.w3.org/1999/xlink" x="0px" y="0px" width="220px"
	 height="220px" viewBox="0 0 220 220" enable-background="new 0 0 220 220" xml:space="preserve">
<g id="bg" display="none">
	<rect x="-1945.836" y="-3981.787" display="inline" fill="#FFFFFF" width="3240.076" height="8444.104"/>
</g>
<g id="Layer_3" display="none">
</g>
<g id="Layer_1">
	<g>
		<defs>
			<rect id="SVGID_261_" x="-1500" y="-3000" width="220" height="220"/>
		</defs>
		<clipPath id="SVGID_2_">
			<use xlink:href="#SVGID_261_"  overflow="visible"/>
		</clipPath>
	</g>
	<g>
		<defs>
			<rect id="SVGID_263_" x="-300" y="-3000" width="220" height="220"/>
		</defs>
		<clipPath id="SVGID_4_">
			<use xlink:href="#SVGID_263_"  overflow="visible"/>
		</clipPath>
	</g>
	<g>
		<defs>
			<rect id="SVGID_267_" x="0" y="-3000" width="220" height="220"/>
		</defs>
		<clipPath id="SVGID_6_">
			<use xlink:href="#SVGID_267_"  overflow="visible"/>
		</clipPath>
	</g>
	<g>
		<defs>
			<rect id="SVGID_269_" x="-1200" y="-3000" width="220" height="220"/>
		</defs>
		<clipPath id="SVGID_8_">
			<use xlink:href="#SVGID_269_"  overflow="visible"/>
		</clipPath>
	</g>
	<g>
		<defs>
			<rect id="SVGID_271_" x="-600" y="-3000" width="220" height="220"/>
		</defs>
		<clipPath id="SVGID_10_">
			<use xlink:href="#SVGID_271_"  overflow="visible"/>
		</clipPath>
	</g>
	<g>
		<defs>
			<rect id="SVGID_405_" x="0" width="220" height="220"/>
		</defs>
		<clipPath id="SVGID_12_">
			<use xlink:href="#SVGID_405_"  overflow="visible"/>
		</clipPath>
		<rect x="0" clip-path="url(#SVGID_12_)" fill="#D60B51" width="220" height="220"/>
		<circle clip-path="url(#SVGID_12_)" fill="#CC78A7" cx="33.33" cy="220" r="21.688"/>
		<circle clip-path="url(#SVGID_12_)" fill="#CC78A7" cx="33.33" cy="0" r="21.688"/>
		<polygon clip-path="url(#SVGID_12_)" fill="#F0E443" points="13.422,146.667 33.33,135.173 53.237,123.679 53.237,146.667 
			53.237,169.654 33.33,158.16 		"/>
		<polygon clip-path="url(#SVGID_12_)" fill="#F0E443" points="13.422,146.667 33.33,135.173 53.237,123.679 53.237,146.667 
			53.237,169.654 33.33,158.16 		"/>
		<polygon clip-path="url(#SVGID_12_)" fill="#D60B51" points="32.357,146.667 38.33,143.219 44.302,139.771 44.302,146.667 
			44.302,153.563 38.33,150.115 		"/>
		<rect x="12.531" y="52.536" clip-path="url(#SVGID_12_)" fill="#57B3E6" width="41.596" height="41.596"/>
		<rect x="166.838" y="199.202" clip-path="url(#SVGID_12_)" fill="#57B3E6" width="41.596" height="41.596"/>
		<rect x="166.838" y="-20.798" clip-path="url(#SVGID_12_)" fill="#57B3E6" width="41.596" height="41.596"/>
		<circle clip-path="url(#SVGID_12_)" fill="#CC78A7" cx="110" cy="73.333" r="21.688"/>
		<circle clip-path="url(#SVGID_12_)" fill="#CC78A7" cx="110" cy="73.333" r="21.688"/>
		<circle clip-path="url(#SVGID_12_)" fill="#D60B51" cx="110" cy="73.333" r="6.506"/>
		<circle clip-path="url(#SVGID_12_)" fill="#D60B51" cx="33.33" cy="0" r="6.507"/>
		<circle clip-path="url(#SVGID_12_)" fill="#D60B51" cx="33.33" cy="220" r="6.507"/>
		<circle clip-path="url(#SVGID_12_)" fill="#CC78A7" cx="184.964" cy="146.667" r="21.688"/>
		<rect x="89.203" y="125.869" clip-path="url(#SVGID_12_)" fill="#57B3E6" width="41.596" height="41.596"/>
		<rect x="89.203" y="125.869" clip-path="url(#SVGID_12_)" fill="#57B3E6" width="41.596" height="41.596"/>
		<rect x="103.761" y="140.427" clip-path="url(#SVGID_12_)" fill="#D60B51" width="12.479" height="12.479"/>
		<rect x="27.09" y="67.094" clip-path="url(#SVGID_12_)" fill="#D60B51" width="12.479" height="12.479"/>
		<rect x="181.396" y="213.761" clip-path="url(#SVGID_12_)" fill="#D60B51" width="12.479" height="12.479"/>
		<rect x="181.396" y="-6.239" clip-path="url(#SVGID_12_)" fill="#D60B51" width="12.479" height="12.479"/>
		<circle clip-path="url(#SVGID_12_)" fill="#D60B51" cx="184.964" cy="146.667" r="6.506"/>
		<polygon clip-path="url(#SVGID_12_)" fill="#F0E443" points="90.092,220 110,208.507 129.908,197.013 129.908,220 
			129.908,242.987 110,231.494 		"/>
		<polygon clip-path="url(#SVGID_12_)" fill="#D60B51" points="109.028,220 115,216.552 120.973,213.104 120.973,220 
			120.973,226.896 115,223.448 		"/>
		<polygon clip-path="url(#SVGID_12_)" fill="#F0E443" points="90.092,0 110,-11.493 129.908,-22.987 129.908,0 129.908,22.987 
			110,11.494 		"/>
		<polygon clip-path="url(#SVGID_12_)" fill="#D60B51" points="109.028,0 115,-3.448 120.973,-6.896 120.973,0 120.973,6.896 
			115,3.448 		"/>
		<g clip-path="url(#SVGID_12_)">
			<polygon fill="#F0E443" points="166.837,73.334 186.745,61.84 206.652,50.346 206.652,73.334 206.652,96.321 186.745,84.827 			
				"/>
			<polygon fill="#D60B51" points="185.772,73.334 191.745,69.885 197.717,66.438 197.717,73.334 197.717,80.23 191.745,76.782 			
				"/>
		</g>
	</g>
</g>
</svg>
