<?xml version="1.0" encoding="utf-8"?>
<!-- Generator: Adobe Illustrator 16.0.0, SVG Export Plug-In . SVG Version: 6.00 Build 0)  -->
<!DOCTYPE svg PUBLIC "-//W3C//DTD SVG 1.1//EN" "http://www.w3.org/Graphics/SVG/1.1/DTD/svg11.dtd">
<svg version="1.1" xmlns="http://www.w3.org/2000/svg" xmlns:xlink="http://www.w3.org/1999/xlink" x="0px" y="0px" width="220px"
	 height="220px" viewBox="0 0 220 220" enable-background="new 0 0 220 220" xml:space="preserve">
<g id="bg" display="none">
	<rect x="-145.836" y="-3981.787" display="inline" fill="#FFFFFF" width="3240.076" height="8444.104"/>
</g>
<g id="Layer_3" display="none">
</g>
<g id="Layer_1">
	<g>
		<defs>
			<rect id="SVGID_395_" width="220" height="220"/>
		</defs>
		<clipPath id="SVGID_2_">
			<use xlink:href="#SVGID_395_"  overflow="visible"/>
		</clipPath>
		<rect clip-path="url(#SVGID_2_)" fill="#D60B51" width="220" height="220"/>
		<circle clip-path="url(#SVGID_2_)" fill="#CC78A7" cx="0" cy="33.329" r="21.688"/>
		<circle clip-path="url(#SVGID_2_)" fill="#CC78A7" cx="220" cy="33.329" r="21.688"/>
		<polygon clip-path="url(#SVGID_2_)" fill="#F0E443" points="73.333,13.422 84.827,33.33 96.321,53.237 73.333,53.237 
			50.346,53.237 61.84,33.33 		"/>
		<rect x="125.869" y="12.531" clip-path="url(#SVGID_2_)" fill="#57B3E6" width="41.596" height="41.596"/>
		<polygon clip-path="url(#SVGID_2_)" fill="#F0E443" points="0,90.093 11.494,110 22.987,129.907 0,129.907 -22.987,129.907 
			-11.494,110 		"/>
		<polygon clip-path="url(#SVGID_2_)" fill="#F0E443" points="220,90.093 231.494,110 242.987,129.907 220,129.907 197.013,129.907 
			208.506,110 		"/>
		<polygon clip-path="url(#SVGID_2_)" fill="#F0E443" points="146.667,166.837 158.16,186.745 169.654,206.652 146.667,206.652 
			123.679,206.652 135.173,186.745 		"/>
		<rect x="52.536" y="89.202" clip-path="url(#SVGID_2_)" fill="#57B3E6" width="41.596" height="41.596"/>
		<rect x="-20.798" y="166.837" clip-path="url(#SVGID_2_)" fill="#57B3E6" width="41.596" height="41.597"/>
		<rect x="199.202" y="166.837" clip-path="url(#SVGID_2_)" fill="#57B3E6" width="41.596" height="41.597"/>
		<circle clip-path="url(#SVGID_2_)" fill="#CC78A7" cx="146.667" cy="110" r="21.688"/>
		<circle clip-path="url(#SVGID_2_)" fill="#CC78A7" cx="73.333" cy="184.964" r="21.688"/>
	</g>
</g>
</svg>
