<?xml version="1.0" encoding="utf-8"?>
<!-- Generator: Adobe Illustrator 16.0.0, SVG Export Plug-In . SVG Version: 6.00 Build 0)  -->
<!DOCTYPE svg PUBLIC "-//W3C//DTD SVG 1.1//EN" "http://www.w3.org/Graphics/SVG/1.1/DTD/svg11.dtd">
<svg version="1.1" xmlns="http://www.w3.org/2000/svg" xmlns:xlink="http://www.w3.org/1999/xlink" x="0px" y="0px" width="220px"
	 height="220px" viewBox="0 0 220 220" enable-background="new 0 0 220 220" xml:space="preserve">
<g id="bg" display="none">
	<rect x="-1345.836" y="-3981.787" display="inline" fill="#FFFFFF" width="3240.076" height="8444.104"/>
</g>
<g id="Layer_3" display="none">
</g>
<g id="Layer_1">
	<g>
		<defs>
			<rect id="SVGID_261_" x="-900" y="-3000" width="220" height="220"/>
		</defs>
		<clipPath id="SVGID_2_">
			<use xlink:href="#SVGID_261_"  overflow="visible"/>
		</clipPath>
	</g>
	<g>
		<defs>
			<rect id="SVGID_269_" x="-600" y="-3000" width="220" height="220"/>
		</defs>
		<clipPath id="SVGID_4_">
			<use xlink:href="#SVGID_269_"  overflow="visible"/>
		</clipPath>
	</g>
	<g>
		<defs>
			<rect id="SVGID_271_" x="0" y="-3000" width="220" height="220"/>
		</defs>
		<clipPath id="SVGID_6_">
			<use xlink:href="#SVGID_271_"  overflow="visible"/>
		</clipPath>
	</g>
	<g>
		<defs>
			<rect id="SVGID_407_" width="220" height="220"/>
		</defs>
		<clipPath id="SVGID_8_">
			<use xlink:href="#SVGID_407_"  overflow="visible"/>
		</clipPath>
		<rect clip-path="url(#SVGID_8_)" fill="#D60B51" width="220" height="220"/>
		<g clip-path="url(#SVGID_8_)">
			<circle fill="#CC78A7" cx="220" cy="33.329" r="21.688"/>
			<circle fill="#D60B51" cx="220" cy="33.33" r="6.506"/>
		</g>
		<g clip-path="url(#SVGID_8_)">
			<circle fill="#CC78A7" cx="0" cy="33.329" r="21.688"/>
			<circle fill="#D60B51" cx="0" cy="33.33" r="6.506"/>
		</g>
		<g clip-path="url(#SVGID_8_)">
			<circle fill="#CC78A7" cx="73.333" cy="33.329" r="21.688"/>
			<circle fill="#D60B51" cx="73.333" cy="33.33" r="6.506"/>
		</g>
		<g clip-path="url(#SVGID_8_)">
			<circle fill="#CC78A7" cx="146.667" cy="33.329" r="21.688"/>
			<circle fill="#D60B51" cx="146.667" cy="33.33" r="6.506"/>
		</g>
		<g clip-path="url(#SVGID_8_)">
			<rect x="-20.798" y="166.837" fill="#57B3E6" width="41.596" height="41.597"/>
			<rect x="-6.24" y="181.396" fill="#D60B51" width="12.479" height="12.479"/>
		</g>
		<g clip-path="url(#SVGID_8_)">
			<rect x="52.536" y="166.837" fill="#57B3E6" width="41.596" height="41.597"/>
			<rect x="67.094" y="181.396" fill="#D60B51" width="12.478" height="12.479"/>
		</g>
		<g clip-path="url(#SVGID_8_)">
			<rect x="125.869" y="166.837" fill="#57B3E6" width="41.596" height="41.597"/>
			<rect x="140.427" y="181.396" fill="#D60B51" width="12.478" height="12.479"/>
		</g>
		<g clip-path="url(#SVGID_8_)">
			<rect x="199.202" y="166.837" fill="#57B3E6" width="41.596" height="41.597"/>
			<rect x="213.76" y="181.396" fill="#D60B51" width="12.479" height="12.479"/>
		</g>
		<g clip-path="url(#SVGID_8_)">
			<polygon fill="#F0E443" points="0,90.093 11.494,110 22.987,129.907 0,129.907 -22.987,129.907 -11.494,110 			"/>
			<polygon fill="#D60B51" points="0,109.027 3.448,115 6.896,120.972 0,120.972 -6.896,120.972 -3.448,115 			"/>
		</g>
		<g clip-path="url(#SVGID_8_)">
			<polygon fill="#F0E443" points="73.333,90.093 84.827,110 96.321,129.907 73.333,129.907 50.346,129.907 61.84,110 			"/>
			<polygon fill="#D60B51" points="73.333,109.027 76.781,115 80.23,120.972 73.333,120.972 66.438,120.972 69.885,115 			"/>
		</g>
		<g clip-path="url(#SVGID_8_)">
			<polygon fill="#F0E443" points="146.667,90.093 158.16,110 169.654,129.907 146.667,129.907 123.679,129.907 135.173,110 			"/>
			<polygon fill="#D60B51" points="146.667,109.027 150.114,115 153.563,120.972 146.667,120.972 139.771,120.972 143.218,115 			
				"/>
		</g>
		<g clip-path="url(#SVGID_8_)">
			<polygon fill="#F0E443" points="220,90.093 231.494,110 242.987,129.907 220,129.907 197.013,129.907 208.506,110 			"/>
			<polygon fill="#D60B51" points="220,109.027 223.448,115 226.896,120.972 220,120.972 213.104,120.972 216.552,115 			"/>
		</g>
	</g>
</g>
</svg>
