<?xml version="1.0" encoding="utf-8"?>
<!-- Generator: Adobe Illustrator 16.0.0, SVG Export Plug-In . SVG Version: 6.00 Build 0)  -->
<!DOCTYPE svg PUBLIC "-//W3C//DTD SVG 1.1//EN" "http://www.w3.org/Graphics/SVG/1.1/DTD/svg11.dtd">
<svg version="1.1" id="Layer_1" xmlns="http://www.w3.org/2000/svg" xmlns:xlink="http://www.w3.org/1999/xlink" x="0px" y="0px"
	 width="453.543px" height="453.543px" viewBox="0 0 453.543 453.543" enable-background="new 0 0 453.543 453.543"
	 xml:space="preserve">
<g id="kvadrat" display="none">
</g>
<g id="color" display="none">
	<g display="inline">
		<g>
			<g>
				<g>
					<path fill="#C8C8C8" d="M374.411,243.209c0,5.5-4.5,10-10,10H166.718c-5.5,0-10-4.5-10-10v-120.86c0-5.5,4.5-10,10-10H364.41
						c5.5,0,10,4.5,10,10L374.411,243.209L374.411,243.209z"/>
					
						<path fill="none" stroke="#000000" stroke-width="8" stroke-linecap="round" stroke-linejoin="round" stroke-miterlimit="10" d="
						M374.411,243.209c0,5.5-4.5,10-10,10H166.718c-5.5,0-10-4.5-10-10v-120.86c0-5.5,4.5-10,10-10H364.41c5.5,0,10,4.5,10,10
						L374.411,243.209L374.411,243.209z"/>
				</g>
				<rect x="156.718" y="134.764" width="217.692" height="40.819"/>
			</g>
			<g>
				<path stroke="#000000" stroke-linecap="round" stroke-linejoin="round" stroke-miterlimit="10" d="M335.727,216.382
					c1.322-0.766,2.849-1.207,4.485-1.207c4.955,0,8.966,4.012,8.966,8.965c0,4.955-4.011,8.971-8.966,8.971
					c-1.637,0-3.163-0.446-4.485-1.211c2.681-1.553,4.485-4.44,4.485-7.76C340.211,220.823,338.406,217.935,335.727,216.382z"/>
				<path stroke="#000000" stroke-linecap="round" stroke-linejoin="round" stroke-miterlimit="10" d="M322.275,224.14
					c0-4.953,4.017-8.965,8.966-8.965c1.636,0,3.167,0.441,4.485,1.207c-2.677,1.553-4.485,4.44-4.485,7.758
					c0,3.318,1.809,6.207,4.485,7.76c-1.318,0.765-2.85,1.211-4.485,1.211C326.292,233.11,322.275,229.095,322.275,224.14z"/>
			</g>
		</g>
		<g>
			<path fill="#C8C8C8" d="M296.824,331.194c0,5.5-4.5,10-10,10H89.133c-5.5,0-10-4.5-10-10V210.335c0-5.5,4.5-10,10-10h197.691
				c5.5,0,10,4.5,10,10V331.194z"/>
			<path fill="none" stroke="#000000" stroke-width="8" stroke-linecap="round" stroke-linejoin="round" stroke-miterlimit="10" d="
				M296.824,331.194c0,5.5-4.5,10-10,10H89.133c-5.5,0-10-4.5-10-10V210.335c0-5.5,4.5-10,10-10h197.691c5.5,0,10,4.5,10,10V331.194
				z"/>
		</g>
		
			<line fill="none" stroke="#000000" stroke-width="8" stroke-linecap="round" stroke-linejoin="round" stroke-miterlimit="10" x1="102.375" y1="289.124" x2="273.583" y2="289.124"/>
		
			<line fill="none" stroke="#000000" stroke-width="8" stroke-linecap="round" stroke-linejoin="round" stroke-miterlimit="10" x1="102.375" y1="309.768" x2="130.242" y2="309.768"/>
		
			<line fill="none" stroke="#000000" stroke-width="8" stroke-linecap="round" stroke-linejoin="round" stroke-miterlimit="10" x1="146.723" y1="309.768" x2="206.714" y2="309.768"/>
		
			<polygon fill="#F8B133" stroke="#000000" stroke-width="4" stroke-linecap="round" stroke-linejoin="round" stroke-miterlimit="10" points="
			136.567,265.692 99.118,265.692 99.118,238.098 112.955,238.098 136.567,238.098 		"/>
		
			<line fill="none" stroke="#000000" stroke-width="4" stroke-linecap="round" stroke-linejoin="round" stroke-miterlimit="10" x1="113.109" y1="265.692" x2="113.109" y2="238.894"/>
		
			<line fill="none" stroke="#000000" stroke-width="4" stroke-linecap="round" stroke-linejoin="round" stroke-miterlimit="10" x1="123.719" y1="265.692" x2="123.719" y2="238.894"/>
		
			<line fill="none" stroke="#000000" stroke-width="4" stroke-linecap="round" stroke-linejoin="round" stroke-miterlimit="10" x1="124.883" y1="256.478" x2="134.254" y2="256.478"/>
		
			<line fill="none" stroke="#000000" stroke-width="4" stroke-linecap="round" stroke-linejoin="round" stroke-miterlimit="10" x1="101.644" y1="248.345" x2="111.015" y2="248.345"/>
	</g>
	<g id="rdeča7bela" display="inline">
	</g>
</g>
<g id="cb">
	<g>
		
			<line fill="none" stroke="#000000" stroke-width="8" stroke-linecap="round" stroke-linejoin="round" stroke-miterlimit="10" x1="102.375" y1="289.124" x2="273.583" y2="289.124"/>
		
			<line fill="none" stroke="#000000" stroke-width="8" stroke-linecap="round" stroke-linejoin="round" stroke-miterlimit="10" x1="102.375" y1="309.768" x2="130.242" y2="309.768"/>
		
			<line fill="none" stroke="#000000" stroke-width="8" stroke-linecap="round" stroke-linejoin="round" stroke-miterlimit="10" x1="146.723" y1="309.768" x2="206.714" y2="309.768"/>
		
			<polygon fill="none" stroke="#000000" stroke-width="4" stroke-linecap="round" stroke-linejoin="round" stroke-miterlimit="10" points="
			136.567,265.692 99.118,265.692 99.118,238.098 112.955,238.098 136.567,238.098 		"/>
		
			<line fill="none" stroke="#000000" stroke-width="4" stroke-linecap="round" stroke-linejoin="round" stroke-miterlimit="10" x1="113.109" y1="265.692" x2="113.109" y2="238.894"/>
		
			<line fill="none" stroke="#000000" stroke-width="4" stroke-linecap="round" stroke-linejoin="round" stroke-miterlimit="10" x1="123.719" y1="265.692" x2="123.719" y2="238.894"/>
		
			<line fill="none" stroke="#000000" stroke-width="4" stroke-linecap="round" stroke-linejoin="round" stroke-miterlimit="10" x1="124.883" y1="256.478" x2="134.254" y2="256.478"/>
		
			<line fill="none" stroke="#000000" stroke-width="4" stroke-linecap="round" stroke-linejoin="round" stroke-miterlimit="10" x1="101.644" y1="248.345" x2="111.015" y2="248.345"/>
		<rect x="156.718" y="134.764" width="217.692" height="40.819"/>
		<g>
			<path fill="none" stroke="#000000" stroke-width="8" stroke-miterlimit="10" d="M156.718,200.335v-77.986c0-5.5,4.5-10,10-10
				H364.41c5.5,0,10,4.5,10,10v120.86h0.001c0,5.5-4.5,10-10,10h-67.587"/>
			<path fill="none" stroke="#000000" stroke-width="8" stroke-miterlimit="10" d="M156.718,200.335h130.106c5.5,0,10,4.5,10,10
				v42.874"/>
			<path fill="none" stroke="#000000" stroke-width="8" stroke-miterlimit="10" d="M156.718,200.335H89.133c-5.5,0-10,4.5-10,10
				v120.858c0,5.5,4.5,10,10,10h197.691c5.5,0,10-4.5,10-10v-77.984"/>
		</g>
	</g>
	<g id="rdeča7bela_copy">
	</g>
</g>
<g id="pivot">
	<circle fill="none" cx="192.358" cy="336.094" r="14.132"/>
</g>
<g>
	<path stroke="#000000" stroke-linecap="round" stroke-linejoin="round" stroke-miterlimit="10" d="M335.727,216.382
		c1.322-0.766,2.849-1.207,4.485-1.207c4.955,0,8.966,4.012,8.966,8.965c0,4.955-4.011,8.971-8.966,8.971
		c-1.637,0-3.163-0.446-4.485-1.211c2.681-1.553,4.485-4.44,4.485-7.76C340.211,220.823,338.406,217.935,335.727,216.382z"/>
	<path stroke="#000000" stroke-linecap="round" stroke-linejoin="round" stroke-miterlimit="10" d="M322.275,224.14
		c0-4.953,4.017-8.965,8.966-8.965c1.636,0,3.167,0.441,4.485,1.207c-2.677,1.553-4.485,4.44-4.485,7.758
		c0,3.318,1.809,6.207,4.485,7.76c-1.318,0.765-2.85,1.211-4.485,1.211C326.292,233.11,322.275,229.095,322.275,224.14z"/>
</g>
</svg>
