<?xml version="1.0" encoding="utf-8"?>
<!-- Generator: Adobe Illustrator 16.0.0, SVG Export Plug-In . SVG Version: 6.00 Build 0)  -->
<!DOCTYPE svg PUBLIC "-//W3C//DTD SVG 1.1//EN" "http://www.w3.org/Graphics/SVG/1.1/DTD/svg11.dtd">
<svg version="1.1" xmlns="http://www.w3.org/2000/svg" xmlns:xlink="http://www.w3.org/1999/xlink" x="0px" y="0px"
	 width="453.543px" height="453.543px" viewBox="0 0 453.543 453.543" enable-background="new 0 0 453.543 453.543"
	 xml:space="preserve">
<g id="kvadrat" display="none">
</g>
<g id="color" display="none">
	<g display="inline">
		<g>
			
				<path fill="#FFCF00" stroke="#000000" stroke-width="8" stroke-linecap="round" stroke-linejoin="round" stroke-miterlimit="10" d="
				M251.737,210.459c0,0,0,10.461,0,23.367c0,12.904-25.838,23.365-57.709,23.365c-31.87,0-57.709-10.461-57.709-23.365
				c0-12.906,0-23.367,0-23.367"/>
			
				<path fill="#FFCF00" stroke="#000000" stroke-width="8" stroke-linecap="round" stroke-linejoin="round" stroke-miterlimit="10" d="
				M251.737,208.615c0,12.902-25.838,23.363-57.709,23.363c-31.87,0-57.709-10.461-57.709-23.363
				c0-12.908,25.839-23.369,57.709-23.369C225.898,185.246,251.737,195.707,251.737,208.615z"/>
			
				<line fill="none" stroke="#000000" stroke-width="4" stroke-linecap="round" stroke-linejoin="round" stroke-miterlimit="10" x1="150.983" y1="224.889" x2="150.983" y2="247.354"/>
			
				<line fill="none" stroke="#000000" stroke-width="4" stroke-linecap="round" stroke-linejoin="round" stroke-miterlimit="10" x1="165.049" y1="229.08" x2="165.049" y2="251.543"/>
			
				<line fill="none" stroke="#000000" stroke-width="4" stroke-linecap="round" stroke-linejoin="round" stroke-miterlimit="10" x1="179.116" y1="233.27" x2="179.116" y2="255.732"/>
			
				<line fill="none" stroke="#000000" stroke-width="4" stroke-linecap="round" stroke-linejoin="round" stroke-miterlimit="10" x1="193.182" y1="233.467" x2="193.182" y2="255.93"/>
			
				<line fill="none" stroke="#000000" stroke-width="4" stroke-linecap="round" stroke-linejoin="round" stroke-miterlimit="10" x1="207.248" y1="233.662" x2="207.248" y2="256.127"/>
			
				<line fill="none" stroke="#000000" stroke-width="4" stroke-linecap="round" stroke-linejoin="round" stroke-miterlimit="10" x1="221.314" y1="229.867" x2="221.314" y2="252.332"/>
			
				<line fill="none" stroke="#000000" stroke-width="4" stroke-linecap="round" stroke-linejoin="round" stroke-miterlimit="10" x1="235.38" y1="226.07" x2="235.38" y2="248.535"/>
		</g>
		<g>
			
				<path fill="#FFCF00" stroke="#000000" stroke-width="8" stroke-linecap="round" stroke-linejoin="round" stroke-miterlimit="10" d="
				M264.193,174.486c0,0,0,10.461,0,23.367c0,12.904-25.837,23.365-57.709,23.365c-31.87,0-57.709-10.461-57.709-23.365
				c0-12.906,0-23.367,0-23.367"/>
			
				<ellipse fill="#FFCF00" stroke="#000000" stroke-width="8" stroke-linecap="round" stroke-linejoin="round" stroke-miterlimit="10" cx="206.484" cy="172.643" rx="57.709" ry="23.365"/>
			
				<line fill="none" stroke="#000000" stroke-width="4" stroke-linecap="round" stroke-linejoin="round" stroke-miterlimit="10" x1="163.439" y1="188.918" x2="163.439" y2="211.381"/>
			
				<line fill="none" stroke="#000000" stroke-width="4" stroke-linecap="round" stroke-linejoin="round" stroke-miterlimit="10" x1="177.506" y1="193.107" x2="177.506" y2="215.57"/>
			
				<line fill="none" stroke="#000000" stroke-width="4" stroke-linecap="round" stroke-linejoin="round" stroke-miterlimit="10" x1="191.573" y1="197.297" x2="191.573" y2="219.762"/>
			
				<line fill="none" stroke="#000000" stroke-width="4" stroke-linecap="round" stroke-linejoin="round" stroke-miterlimit="10" x1="205.639" y1="197.494" x2="205.639" y2="219.959"/>
			
				<line fill="none" stroke="#000000" stroke-width="4" stroke-linecap="round" stroke-linejoin="round" stroke-miterlimit="10" x1="219.705" y1="197.691" x2="219.705" y2="220.154"/>
			
				<line fill="none" stroke="#000000" stroke-width="4" stroke-linecap="round" stroke-linejoin="round" stroke-miterlimit="10" x1="233.771" y1="193.895" x2="233.771" y2="216.359"/>
			
				<line fill="none" stroke="#000000" stroke-width="4" stroke-linecap="round" stroke-linejoin="round" stroke-miterlimit="10" x1="247.837" y1="190.1" x2="247.837" y2="212.563"/>
		</g>
		<g>
			
				<path fill="#FFCF00" stroke="#000000" stroke-width="8" stroke-linecap="round" stroke-linejoin="round" stroke-miterlimit="10" d="
				M247.422,139.973c0,0,0,10.461,0,23.367c0,12.904-25.839,23.365-57.709,23.365c-31.871,0-57.709-10.461-57.709-23.365
				c0-12.906,0-23.367,0-23.367"/>
			
				<path fill="#FFCF00" stroke="#000000" stroke-width="8" stroke-linecap="round" stroke-linejoin="round" stroke-miterlimit="10" d="
				M247.422,138.129c0,12.902-25.839,23.363-57.709,23.363c-31.871,0-57.709-10.461-57.709-23.363
				c0-12.908,25.838-23.369,57.709-23.369C221.583,114.76,247.422,125.221,247.422,138.129z"/>
			
				<line fill="none" stroke="#000000" stroke-width="4" stroke-linecap="round" stroke-linejoin="round" stroke-miterlimit="10" x1="146.668" y1="154.402" x2="146.668" y2="176.867"/>
			
				<line fill="none" stroke="#000000" stroke-width="4" stroke-linecap="round" stroke-linejoin="round" stroke-miterlimit="10" x1="160.734" y1="158.592" x2="160.734" y2="181.057"/>
			
				<line fill="none" stroke="#000000" stroke-width="4" stroke-linecap="round" stroke-linejoin="round" stroke-miterlimit="10" x1="174.802" y1="162.783" x2="174.802" y2="185.246"/>
			
				<line fill="none" stroke="#000000" stroke-width="4" stroke-linecap="round" stroke-linejoin="round" stroke-miterlimit="10" x1="188.868" y1="162.98" x2="188.868" y2="185.443"/>
			
				<line fill="none" stroke="#000000" stroke-width="4" stroke-linecap="round" stroke-linejoin="round" stroke-miterlimit="10" x1="202.934" y1="163.176" x2="202.934" y2="185.641"/>
			
				<line fill="none" stroke="#000000" stroke-width="4" stroke-linecap="round" stroke-linejoin="round" stroke-miterlimit="10" x1="217" y1="159.381" x2="217" y2="181.844"/>
			
				<line fill="none" stroke="#000000" stroke-width="4" stroke-linecap="round" stroke-linejoin="round" stroke-miterlimit="10" x1="231.066" y1="155.584" x2="231.066" y2="178.049"/>
		</g>
		<g>
			
				<path fill="#FFCF00" stroke="#000000" stroke-width="8" stroke-linecap="round" stroke-linejoin="round" stroke-miterlimit="10" d="
				M347.974,294.203c0,0,0,10.463,0,23.369c0,12.902-25.838,23.365-57.709,23.365c-31.871,0-57.708-10.463-57.708-23.365
				c0-12.906,0-23.369,0-23.369"/>
			
				<ellipse fill="#FFCF00" stroke="#000000" stroke-width="8" stroke-linecap="round" stroke-linejoin="round" stroke-miterlimit="10" cx="290.265" cy="292.359" rx="57.709" ry="23.365"/>
			
				<line fill="none" stroke="#000000" stroke-width="4" stroke-linecap="round" stroke-linejoin="round" stroke-miterlimit="10" x1="247.221" y1="308.635" x2="247.221" y2="331.1"/>
			
				<line fill="none" stroke="#000000" stroke-width="4" stroke-linecap="round" stroke-linejoin="round" stroke-miterlimit="10" x1="261.287" y1="312.824" x2="261.287" y2="335.289"/>
			
				<line fill="none" stroke="#000000" stroke-width="4" stroke-linecap="round" stroke-linejoin="round" stroke-miterlimit="10" x1="275.353" y1="317.014" x2="275.353" y2="339.479"/>
			
				<line fill="none" stroke="#000000" stroke-width="4" stroke-linecap="round" stroke-linejoin="round" stroke-miterlimit="10" x1="289.419" y1="317.211" x2="289.419" y2="339.676"/>
			
				<line fill="none" stroke="#000000" stroke-width="4" stroke-linecap="round" stroke-linejoin="round" stroke-miterlimit="10" x1="303.485" y1="317.408" x2="303.485" y2="339.873"/>
			
				<line fill="none" stroke="#000000" stroke-width="4" stroke-linecap="round" stroke-linejoin="round" stroke-miterlimit="10" x1="317.552" y1="313.611" x2="317.552" y2="336.076"/>
			
				<line fill="none" stroke="#000000" stroke-width="4" stroke-linecap="round" stroke-linejoin="round" stroke-miterlimit="10" x1="331.618" y1="309.816" x2="331.618" y2="332.281"/>
		</g>
		<g>
			
				<path fill="#FFCF00" stroke="#000000" stroke-width="8" stroke-linecap="round" stroke-linejoin="round" stroke-miterlimit="10" d="
				M368.431,258.232c0,0,0,10.461,0,23.367c0,12.902-25.837,23.365-57.709,23.365c-31.87,0-57.709-10.463-57.709-23.365
				c0-12.906,0-23.367,0-23.367"/>
			
				<ellipse fill="#FFCF00" stroke="#000000" stroke-width="8" stroke-linecap="round" stroke-linejoin="round" stroke-miterlimit="10" cx="310.722" cy="256.387" rx="57.709" ry="23.365"/>
			
				<line fill="none" stroke="#000000" stroke-width="4" stroke-linecap="round" stroke-linejoin="round" stroke-miterlimit="10" x1="267.677" y1="272.662" x2="267.677" y2="295.127"/>
			
				<line fill="none" stroke="#000000" stroke-width="4" stroke-linecap="round" stroke-linejoin="round" stroke-miterlimit="10" x1="281.743" y1="276.852" x2="281.743" y2="299.316"/>
			
				<line fill="none" stroke="#000000" stroke-width="4" stroke-linecap="round" stroke-linejoin="round" stroke-miterlimit="10" x1="295.81" y1="281.043" x2="295.81" y2="303.506"/>
			
				<line fill="none" stroke="#000000" stroke-width="4" stroke-linecap="round" stroke-linejoin="round" stroke-miterlimit="10" x1="309.876" y1="281.238" x2="309.876" y2="303.703"/>
			
				<line fill="none" stroke="#000000" stroke-width="4" stroke-linecap="round" stroke-linejoin="round" stroke-miterlimit="10" x1="323.942" y1="281.436" x2="323.942" y2="303.9"/>
			
				<line fill="none" stroke="#000000" stroke-width="4" stroke-linecap="round" stroke-linejoin="round" stroke-miterlimit="10" x1="338.009" y1="277.639" x2="338.009" y2="300.104"/>
			
				<line fill="none" stroke="#000000" stroke-width="4" stroke-linecap="round" stroke-linejoin="round" stroke-miterlimit="10" x1="352.075" y1="273.844" x2="352.075" y2="296.309"/>
		</g>
		<g>
			
				<path fill="#FFCF00" stroke="#000000" stroke-width="8" stroke-linecap="round" stroke-linejoin="round" stroke-miterlimit="10" d="
				M351.66,223.717c0,0,0,10.461,0,23.369c0,12.902-25.838,23.365-57.709,23.365c-31.872,0-57.708-10.463-57.708-23.365
				c0-12.908,0-23.369,0-23.369"/>
			
				<ellipse fill="#FFCF00" stroke="#000000" stroke-width="8" stroke-linecap="round" stroke-linejoin="round" stroke-miterlimit="10" cx="293.951" cy="221.873" rx="57.708" ry="23.365"/>
			
				<line fill="none" stroke="#000000" stroke-width="4" stroke-linecap="round" stroke-linejoin="round" stroke-miterlimit="10" x1="250.906" y1="238.148" x2="250.906" y2="260.613"/>
			
				<line fill="none" stroke="#000000" stroke-width="4" stroke-linecap="round" stroke-linejoin="round" stroke-miterlimit="10" x1="264.972" y1="242.338" x2="264.972" y2="264.803"/>
			
				<line fill="none" stroke="#000000" stroke-width="4" stroke-linecap="round" stroke-linejoin="round" stroke-miterlimit="10" x1="279.039" y1="246.527" x2="279.039" y2="268.992"/>
			
				<line fill="none" stroke="#000000" stroke-width="4" stroke-linecap="round" stroke-linejoin="round" stroke-miterlimit="10" x1="293.104" y1="246.725" x2="293.104" y2="269.189"/>
			
				<line fill="none" stroke="#000000" stroke-width="4" stroke-linecap="round" stroke-linejoin="round" stroke-miterlimit="10" x1="307.17" y1="246.922" x2="307.17" y2="269.385"/>
			
				<line fill="none" stroke="#000000" stroke-width="4" stroke-linecap="round" stroke-linejoin="round" stroke-miterlimit="10" x1="321.238" y1="243.125" x2="321.238" y2="265.59"/>
			
				<line fill="none" stroke="#000000" stroke-width="4" stroke-linecap="round" stroke-linejoin="round" stroke-miterlimit="10" x1="335.304" y1="239.33" x2="335.304" y2="261.793"/>
		</g>
		<g>
			
				<path fill="#FFCF00" stroke="#000000" stroke-width="8" stroke-linecap="round" stroke-linejoin="round" stroke-miterlimit="10" d="
				M208.288,294.203c0,0,0,10.463,0,23.369c0,12.902-25.838,23.365-57.709,23.365c-31.87,0-57.708-10.463-57.708-23.365
				c0-12.906,0-23.369,0-23.369"/>
			
				<ellipse fill="#FFCF00" stroke="#000000" stroke-width="8" stroke-linecap="round" stroke-linejoin="round" stroke-miterlimit="10" cx="150.579" cy="292.359" rx="57.709" ry="23.365"/>
			
				<line fill="none" stroke="#000000" stroke-width="4" stroke-linecap="round" stroke-linejoin="round" stroke-miterlimit="10" x1="107.535" y1="308.635" x2="107.535" y2="331.1"/>
			
				<line fill="none" stroke="#000000" stroke-width="4" stroke-linecap="round" stroke-linejoin="round" stroke-miterlimit="10" x1="121.601" y1="312.824" x2="121.601" y2="335.289"/>
			
				<line fill="none" stroke="#000000" stroke-width="4" stroke-linecap="round" stroke-linejoin="round" stroke-miterlimit="10" x1="135.667" y1="317.014" x2="135.667" y2="339.479"/>
			
				<line fill="none" stroke="#000000" stroke-width="4" stroke-linecap="round" stroke-linejoin="round" stroke-miterlimit="10" x1="149.733" y1="317.211" x2="149.733" y2="339.676"/>
			
				<line fill="none" stroke="#000000" stroke-width="4" stroke-linecap="round" stroke-linejoin="round" stroke-miterlimit="10" x1="163.799" y1="317.408" x2="163.799" y2="339.873"/>
			
				<line fill="none" stroke="#000000" stroke-width="4" stroke-linecap="round" stroke-linejoin="round" stroke-miterlimit="10" x1="177.867" y1="313.611" x2="177.867" y2="336.076"/>
			
				<line fill="none" stroke="#000000" stroke-width="4" stroke-linecap="round" stroke-linejoin="round" stroke-miterlimit="10" x1="191.933" y1="309.816" x2="191.933" y2="332.281"/>
		</g>
		<g>
			
				<path fill="#FFCF00" stroke="#000000" stroke-width="8" stroke-linecap="round" stroke-linejoin="round" stroke-miterlimit="10" d="
				M200.53,255.838c0,0,0,10.461,0,23.367c0,12.904-25.838,23.365-57.709,23.365c-31.87,0-57.708-10.461-57.708-23.365
				c0-12.906,0-23.367,0-23.367"/>
			
				<path fill="#FFCF00" stroke="#000000" stroke-width="8" stroke-linecap="round" stroke-linejoin="round" stroke-miterlimit="10" d="
				M200.53,253.994c0,12.902-25.838,23.363-57.709,23.363c-31.87,0-57.708-10.461-57.708-23.363
				c0-12.908,25.838-23.369,57.708-23.369C174.692,230.625,200.53,241.086,200.53,253.994z"/>
			
				<line fill="none" stroke="#000000" stroke-width="4" stroke-linecap="round" stroke-linejoin="round" stroke-miterlimit="10" x1="99.776" y1="270.268" x2="99.776" y2="292.732"/>
			
				<line fill="none" stroke="#000000" stroke-width="4" stroke-linecap="round" stroke-linejoin="round" stroke-miterlimit="10" x1="113.843" y1="274.457" x2="113.843" y2="296.922"/>
			
				<line fill="none" stroke="#000000" stroke-width="4" stroke-linecap="round" stroke-linejoin="round" stroke-miterlimit="10" x1="127.91" y1="278.648" x2="127.91" y2="301.111"/>
			
				<line fill="none" stroke="#000000" stroke-width="4" stroke-linecap="round" stroke-linejoin="round" stroke-miterlimit="10" x1="141.975" y1="278.846" x2="141.975" y2="301.309"/>
			
				<line fill="none" stroke="#000000" stroke-width="4" stroke-linecap="round" stroke-linejoin="round" stroke-miterlimit="10" x1="156.042" y1="279.041" x2="156.042" y2="301.506"/>
			
				<line fill="none" stroke="#000000" stroke-width="4" stroke-linecap="round" stroke-linejoin="round" stroke-miterlimit="10" x1="170.108" y1="275.246" x2="170.108" y2="297.709"/>
			
				<line fill="none" stroke="#000000" stroke-width="4" stroke-linecap="round" stroke-linejoin="round" stroke-miterlimit="10" x1="184.174" y1="271.449" x2="184.174" y2="293.914"/>
		</g>
	</g>
	<g id="rdeča7bela" display="inline">
	</g>
</g>
<g id="cb">
	<g>
		<path fill="none" stroke="#000000" stroke-width="8" stroke-linecap="round" stroke-linejoin="round" stroke-miterlimit="10" d="
			M236.581,249.605c-9.172,4.053-21.83,6.788-36.051,7.435"/>
		<path fill="none" stroke="#000000" stroke-width="8" stroke-linecap="round" stroke-linejoin="round" stroke-miterlimit="10" d="
			M200.018,257.066c0.172-0.008,0.341-0.019,0.513-0.026"/>
		<path fill="none" stroke="#000000" stroke-width="8" stroke-linecap="round" stroke-linejoin="round" stroke-miterlimit="10" d="
			M136.318,230.776c0,0.999,0,2.016,0,3.05c0,12.904,25.839,23.365,57.709,23.365c2.023,0,4.021-0.043,5.99-0.125"/>
		<path fill="none" stroke="#000000" stroke-width="8" stroke-linecap="round" stroke-linejoin="round" stroke-miterlimit="10" d="
			M136.318,230.776c0-11.464,0-20.317,0-20.317"/>
		<path fill="none" stroke="#000000" stroke-width="8" stroke-linecap="round" stroke-linejoin="round" stroke-miterlimit="10" d="
			M202.934,185.523c1.036,0.065,2.061,0.144,3.077,0.23"/>
		<path fill="none" stroke="#000000" stroke-width="8" stroke-linecap="round" stroke-linejoin="round" stroke-miterlimit="10" d="
			M148.775,194.121c-7.792,3.984-12.457,9.017-12.457,14.494c0,12.902,25.839,23.363,57.709,23.363
			c16.669,0,31.68-2.865,42.215-7.441"/>
		<path fill="none" stroke="#000000" stroke-width="8" stroke-linecap="round" stroke-linejoin="round" stroke-miterlimit="10" d="
			M236.242,224.537c0.112-0.049,0.229-0.095,0.339-0.144"/>
		<path fill="none" stroke="#000000" stroke-width="8" stroke-linecap="round" stroke-linejoin="round" stroke-miterlimit="10" d="
			M164.308,188.581c4.16-1.014,8.665-1.817,13.422-2.384"/>
		
			<line fill="none" stroke="#000000" stroke-width="8" stroke-linecap="round" stroke-linejoin="round" stroke-miterlimit="10" x1="150.983" y1="230.862" x2="150.983" y2="247.354"/>
		
			<line fill="none" stroke="#000000" stroke-width="8" stroke-linecap="round" stroke-linejoin="round" stroke-miterlimit="10" x1="150.983" y1="224.889" x2="150.983" y2="230.862"/>
		
			<line fill="none" stroke="#000000" stroke-width="8" stroke-linecap="round" stroke-linejoin="round" stroke-miterlimit="10" x1="179.116" y1="233.27" x2="179.116" y2="235.829"/>
		
			<line fill="none" stroke="#000000" stroke-width="8" stroke-linecap="round" stroke-linejoin="round" stroke-miterlimit="10" x1="179.116" y1="235.829" x2="179.116" y2="255.732"/>
		
			<line fill="none" stroke="#000000" stroke-width="8" stroke-linecap="round" stroke-linejoin="round" stroke-miterlimit="10" x1="207.248" y1="233.662" x2="207.248" y2="256.127"/>
		
			<line fill="none" stroke="#000000" stroke-width="8" stroke-linecap="round" stroke-linejoin="round" stroke-miterlimit="10" x1="235.38" y1="226.07" x2="235.38" y2="248.535"/>
		<path fill="none" stroke="#000000" stroke-width="8" stroke-linecap="round" stroke-linejoin="round" stroke-miterlimit="10" d="
			M148.775,194.121c0,1.216,0,2.462,0,3.732c0,12.904,25.839,23.365,57.709,23.365c11.297,0,21.827-1.319,30.725-3.591"/>
		<path fill="none" stroke="#000000" stroke-width="8" stroke-linecap="round" stroke-linejoin="round" stroke-miterlimit="10" d="
			M148.775,179.806c0,3.536,0,8.577,0,14.315"/>
		<path fill="none" stroke="#000000" stroke-width="8" stroke-linecap="round" stroke-linejoin="round" stroke-miterlimit="10" d="
			M264.193,174.486c0,0,0,10.461,0,23.367c0,1.449-0.343,2.866-0.967,4.243"/>
		<path fill="none" stroke="#000000" stroke-width="8" stroke-linecap="round" stroke-linejoin="round" stroke-miterlimit="10" d="
			M164.308,188.581c-4.823-2.091-8.704-4.54-11.381-7.239"/>
		<path fill="none" stroke="#000000" stroke-width="8" stroke-linecap="round" stroke-linejoin="round" stroke-miterlimit="10" d="
			M164.308,188.581c10.533,4.567,25.527,7.427,42.177,7.427c10.872,0,21.039-1.219,29.72-3.336"/>
		<path fill="none" stroke="#000000" stroke-width="8" stroke-linecap="round" stroke-linejoin="round" stroke-miterlimit="10" d="
			M236.205,192.672c16.769-4.088,27.989-11.528,27.989-20.029c0-6.426-6.407-12.243-16.771-16.468"/>
		
			<line fill="none" stroke="#000000" stroke-width="8" stroke-linecap="round" stroke-linejoin="round" stroke-miterlimit="10" x1="177.506" y1="193.107" x2="177.506" y2="215.57"/>
		
			<line fill="none" stroke="#000000" stroke-width="8" stroke-linecap="round" stroke-linejoin="round" stroke-miterlimit="10" x1="205.639" y1="197.494" x2="205.639" y2="219.959"/>
		
			<line fill="none" stroke="#000000" stroke-width="8" stroke-linecap="round" stroke-linejoin="round" stroke-miterlimit="10" x1="233.771" y1="216.359" x2="233.771" y2="193.895"/>
		<path fill="none" stroke="#000000" stroke-width="8" stroke-linecap="round" stroke-linejoin="round" stroke-miterlimit="10" d="
			M177.729,186.197c-9.287-0.794-17.752-2.49-24.803-4.855"/>
		<path fill="none" stroke="#000000" stroke-width="8" stroke-linecap="round" stroke-linejoin="round" stroke-miterlimit="10" d="
			M247.422,156.175c0-9.399,0-16.202,0-16.202"/>
		<path fill="none" stroke="#000000" stroke-width="8" stroke-linecap="round" stroke-linejoin="round" stroke-miterlimit="10" d="
			M247.422,156.175c0,2.259,0,4.665,0,7.165c0,10.611-17.48,19.565-41.412,22.414"/>
		<path fill="none" stroke="#000000" stroke-width="8" stroke-linecap="round" stroke-linejoin="round" stroke-miterlimit="10" d="
			M148.775,179.806c-10.364-4.224-16.771-10.042-16.771-16.466c0-12.906,0-23.367,0-23.367"/>
		<path fill="none" stroke="#000000" stroke-width="8" stroke-linecap="round" stroke-linejoin="round" stroke-miterlimit="10" d="
			M152.926,181.342c-1.445-0.484-2.83-0.998-4.151-1.536"/>
		<path fill="none" stroke="#000000" stroke-width="8" stroke-linecap="round" stroke-linejoin="round" stroke-miterlimit="10" d="
			M235.36,152.414c7.555-3.95,12.062-8.903,12.062-14.285c0-12.908-25.839-23.369-57.709-23.369
			c-31.871,0-57.709,10.461-57.709,23.369c0,8.642,11.601,16.184,28.833,20.225"/>
		<path fill="none" stroke="#000000" stroke-width="8" stroke-linecap="round" stroke-linejoin="round" stroke-miterlimit="10" d="
			M160.837,158.354c8.496,1.992,18.352,3.139,28.876,3.139c18.576,0,35.092-3.558,45.647-9.078"/>
		
			<line fill="none" stroke="#000000" stroke-width="8" stroke-linecap="round" stroke-linejoin="round" stroke-miterlimit="10" x1="160.734" y1="181.057" x2="160.734" y2="158.592"/>
		
			<line fill="none" stroke="#000000" stroke-width="8" stroke-linecap="round" stroke-linejoin="round" stroke-miterlimit="10" x1="188.868" y1="185.443" x2="188.868" y2="185.344"/>
		
			<line fill="none" stroke="#000000" stroke-width="8" stroke-linecap="round" stroke-linejoin="round" stroke-miterlimit="10" x1="188.868" y1="162.98" x2="188.868" y2="185.344"/>
		
			<line fill="none" stroke="#000000" stroke-width="8" stroke-linecap="round" stroke-linejoin="round" stroke-miterlimit="10" x1="217" y1="159.381" x2="217" y2="181.844"/>
		<path fill="none" stroke="#000000" stroke-width="8" stroke-linecap="round" stroke-linejoin="round" stroke-miterlimit="10" d="
			M232.556,294.203c0,0,0,10.463,0,23.369c0,12.902,25.838,23.365,57.708,23.365c31.872,0,57.709-10.463,57.709-23.365
			c0-7.319,0-13.85,0-18.135"/>
		<path fill="none" stroke="#000000" stroke-width="8" stroke-linecap="round" stroke-linejoin="round" stroke-miterlimit="10" d="
			M277.935,269.532c-4.161,0.367-8.152,0.915-11.924,1.624"/>
		<path fill="none" stroke="#000000" stroke-width="8" stroke-linecap="round" stroke-linejoin="round" stroke-miterlimit="10" d="
			M277.935,269.532c3.974-0.351,8.096-0.54,12.33-0.54c0.953,0,1.898,0.011,2.84,0.029"/>
		<path fill="none" stroke="#000000" stroke-width="8" stroke-linecap="round" stroke-linejoin="round" stroke-miterlimit="10" d="
			M306.28,269.911c-4.216-0.492-8.624-0.801-13.176-0.89"/>
		<path fill="none" stroke="#000000" stroke-width="8" stroke-linecap="round" stroke-linejoin="round" stroke-miterlimit="10" d="
			M253.013,274.519c-12.507,4.286-20.457,10.686-20.457,17.841c0,12.904,25.838,23.365,57.708,23.365c24.7,0,45.766-6.285,54-15.118
			"/>
		
			<line fill="none" stroke="#000000" stroke-width="8" stroke-linecap="round" stroke-linejoin="round" stroke-miterlimit="10" x1="247.221" y1="308.635" x2="247.221" y2="331.1"/>
		
			<line fill="none" stroke="#000000" stroke-width="8" stroke-linecap="round" stroke-linejoin="round" stroke-miterlimit="10" x1="275.353" y1="317.014" x2="275.353" y2="339.479"/>
		
			<line fill="none" stroke="#000000" stroke-width="8" stroke-linecap="round" stroke-linejoin="round" stroke-miterlimit="10" x1="303.485" y1="317.408" x2="303.485" y2="339.873"/>
		
			<line fill="none" stroke="#000000" stroke-width="8" stroke-linecap="round" stroke-linejoin="round" stroke-miterlimit="10" x1="331.618" y1="309.816" x2="331.618" y2="332.281"/>
		<path fill="none" stroke="#000000" stroke-width="8" stroke-linecap="round" stroke-linejoin="round" stroke-miterlimit="10" d="
			M253.013,274.519c0,2.234,0,4.612,0,7.081c0,12.902,25.839,23.365,57.709,23.365c12.514,0,24.088-1.618,33.543-4.358"/>
		<path fill="none" stroke="#000000" stroke-width="8" stroke-linecap="round" stroke-linejoin="round" stroke-miterlimit="10" d="
			M344.265,300.606c1.275-0.37,2.514-0.759,3.709-1.169"/>
		<path fill="none" stroke="#000000" stroke-width="8" stroke-linecap="round" stroke-linejoin="round" stroke-miterlimit="10" d="
			M368.431,258.232c0,0,0,10.461,0,23.367c0,7.152-7.949,13.552-20.457,17.838"/>
		<path fill="none" stroke="#000000" stroke-width="8" stroke-linecap="round" stroke-linejoin="round" stroke-miterlimit="10" d="
			M253.013,274.519c0-4.344,0-8.138,0-10.968"/>
		<path fill="none" stroke="#000000" stroke-width="8" stroke-linecap="round" stroke-linejoin="round" stroke-miterlimit="10" d="
			M334.976,277.588c-7.375,1.386-15.588,2.164-24.254,2.164c-18.032,0-34.128-3.351-44.711-8.596"/>
		<path fill="none" stroke="#000000" stroke-width="8" stroke-linecap="round" stroke-linejoin="round" stroke-miterlimit="10" d="
			M266.011,271.156c-3.663-1.815-6.654-3.859-8.847-6.068"/>
		<path fill="none" stroke="#000000" stroke-width="8" stroke-linecap="round" stroke-linejoin="round" stroke-miterlimit="10" d="
			M334.976,277.588c19.751-3.71,33.455-11.806,33.455-21.201c0-6.426-6.407-12.243-16.771-16.468"/>
		
			<line fill="none" stroke="#000000" stroke-width="8" stroke-linecap="round" stroke-linejoin="round" stroke-miterlimit="10" x1="267.677" y1="272.662" x2="267.677" y2="295.127"/>
		
			<line fill="none" stroke="#000000" stroke-width="8" stroke-linecap="round" stroke-linejoin="round" stroke-miterlimit="10" x1="295.81" y1="281.043" x2="295.81" y2="303.506"/>
		
			<line fill="none" stroke="#000000" stroke-width="8" stroke-linecap="round" stroke-linejoin="round" stroke-miterlimit="10" x1="323.942" y1="281.436" x2="323.942" y2="303.9"/>
		
			<line fill="none" stroke="#000000" stroke-width="8" stroke-linecap="round" stroke-linejoin="round" stroke-miterlimit="10" x1="352.075" y1="273.844" x2="352.075" y2="296.309"/>
		<path fill="none" stroke="#000000" stroke-width="8" stroke-linecap="round" stroke-linejoin="round" stroke-miterlimit="10" d="
			M253.013,263.551c1.322,0.539,2.706,1.052,4.151,1.537"/>
		<path fill="none" stroke="#000000" stroke-width="8" stroke-linecap="round" stroke-linejoin="round" stroke-miterlimit="10" d="
			M253.013,263.551c-8.99-3.664-14.996-8.527-16.432-13.945"/>
		<path fill="none" stroke="#000000" stroke-width="8" stroke-linecap="round" stroke-linejoin="round" stroke-miterlimit="10" d="
			M277.935,269.532c5.087,0.594,10.456,0.919,16.016,0.919c4.233,0,8.355-0.189,12.33-0.54"/>
		<path fill="none" stroke="#000000" stroke-width="8" stroke-linecap="round" stroke-linejoin="round" stroke-miterlimit="10" d="
			M236.242,223.717c0,0,0,0.289,0,0.82"/>
		<path fill="none" stroke="#000000" stroke-width="8" stroke-linecap="round" stroke-linejoin="round" stroke-miterlimit="10" d="
			M277.935,269.532c-7.706-0.9-14.755-2.427-20.771-4.444"/>
		<path fill="none" stroke="#000000" stroke-width="8" stroke-linecap="round" stroke-linejoin="round" stroke-miterlimit="10" d="
			M351.66,239.919c0-9.4,0-16.202,0-16.202"/>
		<path fill="none" stroke="#000000" stroke-width="8" stroke-linecap="round" stroke-linejoin="round" stroke-miterlimit="10" d="
			M236.242,224.537c0,2.696,0,11.767,0,22.549c0,0.852,0.12,1.691,0.339,2.52"/>
		<path fill="none" stroke="#000000" stroke-width="8" stroke-linecap="round" stroke-linejoin="round" stroke-miterlimit="10" d="
			M351.66,239.919c0,2.259,0,4.666,0,7.167c0,11.188-19.435,20.537-45.379,22.825"/>
		<path fill="none" stroke="#000000" stroke-width="8" stroke-linecap="round" stroke-linejoin="round" stroke-miterlimit="10" d="
			M263.227,202.097c-4.372,1.116-8.354,2.459-11.83,3.995"/>
		<path fill="none" stroke="#000000" stroke-width="8" stroke-linecap="round" stroke-linejoin="round" stroke-miterlimit="10" d="
			M237.209,217.628c1.646-3.631,5.352-6.969,10.628-9.804"/>
		<path fill="none" stroke="#000000" stroke-width="8" stroke-linecap="round" stroke-linejoin="round" stroke-miterlimit="10" d="
			M265.072,242.099c8.495,1.993,18.354,3.14,28.878,3.14c18.578,0,35.094-3.559,45.65-9.079"/>
		<path fill="none" stroke="#000000" stroke-width="8" stroke-linecap="round" stroke-linejoin="round" stroke-miterlimit="10" d="
			M247.837,207.824c1.118-0.601,2.306-1.179,3.56-1.732"/>
		<path fill="none" stroke="#000000" stroke-width="8" stroke-linecap="round" stroke-linejoin="round" stroke-miterlimit="10" d="
			M251.026,237.486c4.041,1.82,8.783,3.378,14.046,4.612"/>
		<path fill="none" stroke="#000000" stroke-width="8" stroke-linecap="round" stroke-linejoin="round" stroke-miterlimit="10" d="
			M251.026,237.486c-7.884-3.551-13.118-8.085-14.445-13.093"/>
		<path fill="none" stroke="#000000" stroke-width="8" stroke-linecap="round" stroke-linejoin="round" stroke-miterlimit="10" d="
			M237.209,217.628c-0.625,1.378-0.967,2.795-0.967,4.245c0,0.852,0.12,1.692,0.339,2.521"/>
		<path fill="none" stroke="#000000" stroke-width="8" stroke-linecap="round" stroke-linejoin="round" stroke-miterlimit="10" d="
			M339.601,236.159c7.553-3.95,12.059-8.904,12.059-14.286c0-12.906-25.838-23.367-57.709-23.367
			c-11.296,0-21.826,1.319-30.724,3.591"/>
		
			<line fill="none" stroke="#000000" stroke-width="8" stroke-linecap="round" stroke-linejoin="round" stroke-miterlimit="10" x1="250.906" y1="260.613" x2="250.906" y2="238.148"/>
		
			<line fill="none" stroke="#000000" stroke-width="8" stroke-linecap="round" stroke-linejoin="round" stroke-miterlimit="10" x1="279.039" y1="246.527" x2="279.039" y2="268.992"/>
		
			<line fill="none" stroke="#000000" stroke-width="8" stroke-linecap="round" stroke-linejoin="round" stroke-miterlimit="10" x1="293.104" y1="269.189" x2="293.104" y2="269.021"/>
		
			<line fill="none" stroke="#000000" stroke-width="8" stroke-linecap="round" stroke-linejoin="round" stroke-miterlimit="10" x1="307.17" y1="246.922" x2="307.17" y2="269.385"/>
		
			<line fill="none" stroke="#000000" stroke-width="8" stroke-linecap="round" stroke-linejoin="round" stroke-miterlimit="10" x1="335.304" y1="261.793" x2="335.304" y2="239.33"/>
		<path fill="none" stroke="#000000" stroke-width="8" stroke-linecap="round" stroke-linejoin="round" stroke-miterlimit="10" d="
			M92.871,294.203c0,0,0,10.463,0,23.369c0,12.902,25.838,23.365,57.708,23.365c31.872,0,57.709-10.463,57.709-23.365
			c0-12.906,0-23.369,0-23.369"/>
		<path fill="none" stroke="#000000" stroke-width="8" stroke-linecap="round" stroke-linejoin="round" stroke-miterlimit="10" d="
			M179.3,272.095c1.68,0.392,3.306,0.815,4.874,1.271"/>
		<path fill="none" stroke="#000000" stroke-width="8" stroke-linecap="round" stroke-linejoin="round" stroke-miterlimit="10" d="
			M92.979,290.978c-0.066,0.457-0.109,0.917-0.109,1.382c0,12.904,25.838,23.365,57.708,23.365
			c31.872,0,57.709-10.461,57.709-23.365c0-4.295-2.874-8.315-7.867-11.773"/>
		
			<line fill="none" stroke="#000000" stroke-width="8" stroke-linecap="round" stroke-linejoin="round" stroke-miterlimit="10" x1="121.601" y1="312.824" x2="121.601" y2="335.289"/>
		
			<line fill="none" stroke="#000000" stroke-width="8" stroke-linecap="round" stroke-linejoin="round" stroke-miterlimit="10" x1="149.733" y1="317.211" x2="149.733" y2="339.676"/>
		
			<line fill="none" stroke="#000000" stroke-width="8" stroke-linecap="round" stroke-linejoin="round" stroke-miterlimit="10" x1="177.867" y1="313.611" x2="177.867" y2="336.076"/>
		<path fill="none" stroke="#000000" stroke-width="8" stroke-linecap="round" stroke-linejoin="round" stroke-miterlimit="10" d="
			M200.421,280.586c-1.767,12.261-26.875,21.984-57.601,21.984c-21.265,0-39.831-4.66-49.841-11.593"/>
		<path fill="none" stroke="#000000" stroke-width="8" stroke-linecap="round" stroke-linejoin="round" stroke-miterlimit="10" d="
			M92.979,290.978c-4.993-3.458-7.867-7.479-7.867-11.772c0-12.906,0-23.367,0-23.367"/>
		<path fill="none" stroke="#000000" stroke-width="8" stroke-linecap="round" stroke-linejoin="round" stroke-miterlimit="10" d="
			M200.421,280.586c0.066-0.457,0.109-0.917,0.109-1.381c0-10.32,0-19.07,0-22.165"/>
		<path fill="none" stroke="#000000" stroke-width="8" stroke-linecap="round" stroke-linejoin="round" stroke-miterlimit="10" d="
			M136.318,230.776c-28.808,1.309-51.206,11.2-51.206,23.218c0,8.668,11.671,16.229,28.988,20.261"/>
		<path fill="none" stroke="#000000" stroke-width="8" stroke-linecap="round" stroke-linejoin="round" stroke-miterlimit="10" d="
			M179.3,272.095c11.105-3.673,18.756-8.987,20.717-15.028"/>
		<path fill="none" stroke="#000000" stroke-width="8" stroke-linecap="round" stroke-linejoin="round" stroke-miterlimit="10" d="
			M179.3,272.095c-9.943,3.288-22.64,5.263-36.479,5.263c-10.459,0-20.26-1.133-28.72-3.103"/>
		
			<line fill="none" stroke="#000000" stroke-width="8" stroke-linecap="round" stroke-linejoin="round" stroke-miterlimit="10" x1="99.776" y1="281.268" x2="99.776" y2="270.268"/>
		
			<line fill="none" stroke="#000000" stroke-width="8" stroke-linecap="round" stroke-linejoin="round" stroke-miterlimit="10" x1="99.776" y1="292.732" x2="99.776" y2="281.268"/>
		
			<line fill="none" stroke="#000000" stroke-width="8" stroke-linecap="round" stroke-linejoin="round" stroke-miterlimit="10" x1="127.91" y1="278.648" x2="127.91" y2="301.111"/>
		
			<line fill="none" stroke="#000000" stroke-width="8" stroke-linecap="round" stroke-linejoin="round" stroke-miterlimit="10" x1="156.042" y1="301.506" x2="156.042" y2="279.041"/>
		
			<line fill="none" stroke="#000000" stroke-width="8" stroke-linecap="round" stroke-linejoin="round" stroke-miterlimit="10" x1="184.174" y1="273.365" x2="184.174" y2="271.449"/>
		
			<line fill="none" stroke="#000000" stroke-width="8" stroke-linecap="round" stroke-linejoin="round" stroke-miterlimit="10" x1="184.174" y1="293.914" x2="184.174" y2="273.365"/>
		<path fill="none" stroke="#000000" stroke-width="8" stroke-linecap="round" stroke-linejoin="round" stroke-miterlimit="10" d="
			M177.729,186.197c3.867,0.331,7.874,0.508,11.984,0.508c5.662,0,11.127-0.336,16.297-0.951"/>
	</g>
	<g id="rdeča7bela_copy">
	</g>
</g>
<g id="pivot">
	<circle fill="none" cx="217.459" cy="323.072" r="14.133"/>
</g>
</svg>
