<?xml version="1.0" encoding="utf-8"?>
<!-- Generator: Adobe Illustrator 16.0.0, SVG Export Plug-In . SVG Version: 6.00 Build 0)  -->
<!DOCTYPE svg PUBLIC "-//W3C//DTD SVG 1.1//EN" "http://www.w3.org/Graphics/SVG/1.1/DTD/svg11.dtd">
<svg version="1.1" xmlns="http://www.w3.org/2000/svg" xmlns:xlink="http://www.w3.org/1999/xlink" x="0px" y="0px"
	 width="453.543px" height="453.542px" viewBox="0 0 453.543 453.542" enable-background="new 0 0 453.543 453.542"
	 xml:space="preserve">
<g id="kvadrat">
</g>
<g id="bg" display="none">
	<rect x="-5935.322" y="-1255.332" display="inline" width="15266.867" height="13678.951"/>
</g>
<g id="barvno" display="none">
	<g display="inline">
		<polygon stroke="#000000" stroke-width="8" stroke-linecap="round" stroke-linejoin="round" stroke-miterlimit="10" points="
			162.363,353.771 142.591,368.92 145.608,343.312 		"/>
		<path stroke="#000000" stroke-width="8" stroke-linecap="round" stroke-linejoin="round" stroke-miterlimit="10" d="
			M283.743,205.066c11.788-18.884,20.833-44.535-3.073-59.456c-25.177-15.717-45.132,7.886-54.781,23.343"/>
		
			<path fill="#FFCF00" stroke="#000000" stroke-width="8" stroke-linecap="round" stroke-linejoin="round" stroke-miterlimit="10" d="
			M258.752,199.94l-26.325,136.905c-28.845,25.209-60.488,32.334-82.51,18.587c-22.531-14.064-29.805-46.376-18.963-84.311
			l112.686-80.615L258.752,199.94z"/>
		<g>
			<path d="M184.932,361.942l-55.522-34.659c-3.514-2.192-4.054-20.212-0.54-18.02l72.489,45.249
				C204.872,356.706,188.446,364.135,184.932,361.942z"/>
			<path d="M219.056,343.157l-88.606-55.31c-3.513-2.193-4.584-6.819-2.391-10.333c2.193-3.513,6.82-4.584,10.334-2.391
				l88.606,55.31c3.514,2.195,4.584,6.82,2.391,10.333C227.196,344.281,222.569,345.351,219.056,343.157z"/>
			<path d="M243,318.019l-103.027-64.312c-3.514-2.193-4.584-6.821-2.391-10.333c2.193-3.514,6.819-4.584,10.333-2.392
				l103.027,64.312c3.514,2.193,4.584,6.819,2.391,10.334C251.14,319.141,246.513,320.212,243,318.019z"/>
			<path d="M261.005,289.173l-103.027-64.312c-3.514-2.193-4.584-6.82-2.391-10.333c2.193-3.513,6.819-4.584,10.333-2.391
				l103.027,64.312c3.514,2.192,4.584,6.821,2.391,10.332C269.146,290.295,264.519,291.366,261.005,289.173z"/>
		</g>
		<g>
			
				<path fill="#C8C8C8" stroke="#000000" stroke-width="8" stroke-linecap="round" stroke-linejoin="round" stroke-miterlimit="10" d="
				M232.021,344.371c-9.145-5.708-15.225-15.287-18.059-28.479c-8.382-38.771,45.643-139.333,46.957-138.226
				c33.126,28.476,44.582,105.21,29.293,143.903c-7.861,19.903-22.294,29.995-40.609,28.42
				C242.986,349.43,237.085,347.532,232.021,344.371z"/>
			
				<path fill="#C8C8C8" stroke="#000000" stroke-width="8" stroke-linecap="round" stroke-linejoin="round" stroke-miterlimit="10" d="
				M110.687,263.276c-9.458-15.762-6.731-33.161,7.696-48.965c28.046-30.729,102.015-54.142,142.147-36.889
				c1.57,0.694-65.043,93.398-103.556,102.896c-13.097,3.249-24.373,1.993-33.517-3.715
				C118.393,273.442,114.097,268.975,110.687,263.276z"/>
		</g>
		<path fill="none" stroke="#000000" stroke-width="10" stroke-linecap="round" stroke-linejoin="round" stroke-miterlimit="10" d="
			M241.252,84.623c29.824,23.614,23.08,43.085,14.729,64.14"/>
		<path fill="none" stroke="#000000" stroke-width="10" stroke-linecap="round" stroke-linejoin="round" stroke-miterlimit="10" d="
			M348.391,151.501c-34.313-16.422-48.844-1.811-64.092,14.939"/>
	</g>
	<g id="rde훾a7bela" display="inline">
	</g>
	
		<rect x="-6445.607" y="-1675.34" display="inline" fill="none" stroke="#000000" stroke-miterlimit="10" width="16736" height="13952"/>
</g>
<g id="barvno_copy_2">
	<g>
		<polygon stroke="#000000" stroke-width="8" stroke-linecap="round" stroke-linejoin="round" stroke-miterlimit="10" points="
			162.363,353.771 142.591,368.92 145.608,343.312 		"/>
		
			<path fill="#FFFF00" stroke="#000000" stroke-width="8" stroke-linecap="round" stroke-linejoin="round" stroke-miterlimit="10" d="
			M283.743,205.066c11.788-18.884,20.833-44.535-3.073-59.456c-25.177-15.717-45.132,7.886-54.781,23.343"/>
		
			<path fill="#FFFF00" stroke="#000000" stroke-width="8" stroke-linecap="round" stroke-linejoin="round" stroke-miterlimit="10" d="
			M258.752,199.94l-26.325,136.905c-28.845,25.209-60.488,32.334-82.51,18.587c-22.531-14.064-29.805-46.376-18.963-84.311
			l112.686-80.615L258.752,199.94z"/>
		<g>
			<path d="M184.932,361.942l-55.522-34.659c-3.514-2.192-4.054-20.212-0.54-18.02l72.489,45.249
				C204.872,356.706,188.446,364.135,184.932,361.942z"/>
			<path d="M219.056,343.157l-88.606-55.31c-3.513-2.193-4.584-6.819-2.391-10.333c2.193-3.513,6.82-4.584,10.334-2.391
				l88.606,55.31c3.514,2.195,4.584,6.82,2.391,10.333C227.196,344.281,222.569,345.351,219.056,343.157z"/>
			<path d="M243,318.019l-103.027-64.312c-3.514-2.193-4.584-6.821-2.391-10.333c2.193-3.514,6.819-4.584,10.333-2.392
				l103.027,64.312c3.514,2.193,4.584,6.819,2.391,10.334C251.14,319.141,246.513,320.212,243,318.019z"/>
			<path d="M261.005,289.173l-103.027-64.312c-3.514-2.193-4.584-6.82-2.391-10.333c2.193-3.513,6.819-4.584,10.333-2.391
				l103.027,64.312c3.514,2.192,4.584,6.821,2.391,10.332C269.146,290.295,264.519,291.366,261.005,289.173z"/>
		</g>
		<g>
			
				<path fill="#FFFFFF" stroke="#000000" stroke-width="8" stroke-linecap="round" stroke-linejoin="round" stroke-miterlimit="10" d="
				M232.021,344.371c-9.145-5.708-15.225-15.287-18.059-28.479c-8.382-38.771,45.643-139.333,46.957-138.226
				c33.126,28.476,44.582,105.21,29.293,143.903c-7.861,19.903-22.294,29.995-40.609,28.42
				C242.986,349.43,237.085,347.532,232.021,344.371z"/>
			
				<path fill="#FFFFFF" stroke="#000000" stroke-width="8" stroke-linecap="round" stroke-linejoin="round" stroke-miterlimit="10" d="
				M110.687,263.276c-9.458-15.762-6.731-33.161,7.696-48.965c28.046-30.729,102.015-54.142,142.147-36.889
				c1.57,0.694-65.043,93.398-103.556,102.896c-13.097,3.249-24.373,1.993-33.517-3.715
				C118.393,273.442,114.097,268.975,110.687,263.276z"/>
		</g>
		<path fill="none" stroke="#FFFF00" stroke-width="10" stroke-linecap="round" stroke-linejoin="round" stroke-miterlimit="10" d="
			M241.252,84.623c29.824,23.614,23.08,43.085,14.729,64.14"/>
		<path fill="none" stroke="#FFFF00" stroke-width="10" stroke-linecap="round" stroke-linejoin="round" stroke-miterlimit="10" d="
			M348.391,151.501c-34.313-16.422-48.844-1.811-64.092,14.939"/>
	</g>
	<g id="rde훾a7bela_copy_4">
	</g>
	<rect x="-6445.607" y="-1675.34" fill="none" stroke="#000000" stroke-miterlimit="10" width="16736" height="13952"/>
</g>
<g id="sivinsko" display="none">
	<g display="inline">
		<g>
			<polygon points="162.363,353.771 142.591,368.92 145.608,343.312 			"/>
			<path d="M142.59,372.92c-0.679,0-1.361-0.173-1.977-0.523c-1.397-0.795-2.183-2.349-1.995-3.945l3.017-25.607
				c0.161-1.362,1.006-2.546,2.241-3.139s2.688-0.514,3.85,0.212l16.755,10.459c1.113,0.694,1.814,1.892,1.877,3.201
				c0.063,1.311-0.521,2.568-1.563,3.366l-19.772,15.149C144.31,372.642,143.452,372.92,142.59,372.92z M148.842,350.046
				l-1.171,9.942l7.676-5.882L148.842,350.046z"/>
		</g>
		<g>
			<path d="M283.743,205.066c11.788-18.884,20.833-44.535-3.073-59.456c-25.177-15.717-45.132,7.886-54.781,23.343"/>
			<path d="M283.739,209.067c-0.723,0-1.455-0.196-2.114-0.607c-1.874-1.17-2.445-3.638-1.275-5.511
				c6.87-11.007,10.656-20.891,11.251-29.376c0.743-10.588-3.525-18.624-13.049-24.568c-9.791-6.113-19.267-6.12-28.968-0.025
				c-8.853,5.561-15.926,15.083-20.302,22.093c-1.169,1.874-3.636,2.446-5.511,1.274c-1.874-1.169-2.445-3.637-1.275-5.51
				c4.819-7.721,12.693-18.263,22.833-24.632c12.209-7.669,25.162-7.664,37.459,0.013c12.099,7.552,17.75,18.29,16.793,31.915
				c-0.688,9.803-4.875,20.924-12.446,33.052C286.377,208.4,285.073,209.067,283.739,209.067z"/>
		</g>
		<g>
			<path fill="#C7C7C7" d="M258.752,199.94l-26.325,136.905c-28.845,25.209-60.488,32.334-82.51,18.587
				c-22.531-14.064-29.805-46.376-18.963-84.311l112.686-80.615L258.752,199.94z"/>
			<path d="M174.975,366.325c-10.06,0-19.203-2.523-27.176-7.5c-24.115-15.052-32.043-49.08-20.691-88.802
				c0.249-0.869,0.784-1.628,1.519-2.154l112.686-80.615c1.317-0.942,3.073-0.997,4.445-0.14l15.112,9.434
				c1.403,0.876,2.122,2.524,1.81,4.148l-26.325,136.905c-0.168,0.875-0.625,1.669-1.296,2.256
				C215.529,356.926,194.19,366.325,174.975,366.325z M134.426,273.558c-9.792,35.565-3.094,65.558,17.61,78.482
				c6.683,4.171,14.4,6.286,22.939,6.286c16.95,0,36.007-8.37,53.786-23.597l25.545-132.848l-10.514-6.563L134.426,273.558z"/>
		</g>
		<g>
			<path d="M184.932,361.942l-55.522-34.659c-3.514-2.192-4.054-20.212-0.54-18.02l72.489,45.249
				C204.872,356.706,188.446,364.135,184.932,361.942z"/>
			<path d="M219.056,343.157l-88.606-55.31c-3.513-2.193-4.584-6.819-2.391-10.333c2.193-3.513,6.82-4.584,10.334-2.391
				l88.606,55.31c3.514,2.195,4.584,6.82,2.391,10.333C227.196,344.281,222.569,345.351,219.056,343.157z"/>
			<path d="M243,318.019l-103.027-64.312c-3.514-2.193-4.584-6.821-2.391-10.333c2.193-3.514,6.819-4.584,10.333-2.392
				l103.027,64.312c3.514,2.193,4.584,6.819,2.391,10.334C251.14,319.141,246.513,320.212,243,318.019z"/>
			<path d="M261.005,289.173l-103.027-64.312c-3.514-2.193-4.584-6.82-2.391-10.333c2.193-3.513,6.819-4.584,10.333-2.391
				l103.027,64.312c3.514,2.192,4.584,6.821,2.391,10.332C269.146,290.295,264.519,291.366,261.005,289.173z"/>
		</g>
		<g>
			<g>
				<path fill="#C8C8C8" d="M232.021,344.371c-9.145-5.708-15.225-15.287-18.059-28.479
					c-8.382-38.771,45.643-139.333,46.957-138.226c33.126,28.476,44.582,105.21,29.293,143.903
					c-7.861,19.903-22.294,29.995-40.609,28.42C242.986,349.43,237.085,347.532,232.021,344.371z"/>
				<path d="M253.277,354.149c-1.317,0-2.668-0.058-4.017-0.174c-7.219-0.611-13.734-2.7-19.358-6.21
					c-10.104-6.306-16.783-16.748-19.851-31.032c-8.477-39.209,42.201-134.851,47.381-141.271c0.966-1.197,2.13-1.804,3.46-1.804
					c0.943,0,1.883,0.343,2.604,0.951c15.986,13.741,28.425,39.41,34.158,70.452c5.403,29.255,4.012,58.407-3.722,77.98
					C286.009,343.101,271.571,354.149,253.277,354.149z M261.588,183.759c-4.673,8.028-15.551,28.972-25.464,52.883
					c-14.92,35.987-21.402,63.832-18.252,78.405c2.598,12.092,8.07,20.815,16.267,25.932c4.537,2.832,9.853,4.522,15.801,5.025
					c16.654,1.434,29.333-7.625,36.552-25.903c7.098-17.965,8.361-46.162,3.296-73.588
					C284.792,219.461,274.619,196.927,261.588,183.759z"/>
			</g>
			<g>
				<path fill="#C8C8C8" d="M110.687,263.276c-9.458-15.762-6.731-33.161,7.696-48.965c28.046-30.729,102.015-54.142,142.147-36.889
					c1.57,0.694-65.043,93.398-103.556,102.896c-13.097,3.249-24.373,1.993-33.517-3.715
					C118.393,273.442,114.097,268.975,110.687,263.276z"/>
				<path d="M143.504,286.079c-8.243,0-15.7-2.046-22.165-6.081c-5.623-3.511-10.361-8.444-14.085-14.668
					c-10.45-17.415-7.547-36.493,8.175-53.715c22.544-24.701,71.864-44.05,112.28-44.05c13.282,0,24.856,2.08,34.401,6.184
					c1.586,0.682,2.582,2.383,2.432,4.103c-0.083,0.944-0.236,2.701-11.737,18.115c-4.747,6.36-14.55,19.137-26.886,33.242
					c-19.447,22.236-47.028,49.827-67.986,54.996C152.915,285.447,148.059,286.079,143.504,286.079z M227.709,175.564
					c-37.796,0-85.514,18.591-106.371,41.443c-13.322,14.594-15.819,29.881-7.221,44.21c3.068,5.127,6.923,9.161,11.459,11.993
					c8.183,5.107,18.485,6.19,30.436,3.226c14.481-3.571,36.65-21.625,62.427-50.837c17.126-19.409,31.167-38.383,36.326-46.106
					C247.071,176.887,237.986,175.564,227.709,175.564z"/>
			</g>
		</g>
		<path d="M255.979,153.764c-0.613,0-1.237-0.113-1.842-0.354c-2.567-1.017-3.823-3.924-2.805-6.49
			c7.764-19.575,14.47-36.48-13.185-58.377c-2.165-1.714-2.53-4.859-0.816-7.024c1.714-2.165,4.858-2.53,7.024-0.815
			c33.483,26.512,24.34,49.564,16.273,69.903C259.851,152.569,257.969,153.764,255.979,153.764z"/>
		<path d="M284.298,171.44c-1.201,0-2.406-0.43-3.364-1.302c-2.042-1.859-2.19-5.022-0.332-7.064
			c14.729-16.18,31.426-34.52,69.948-16.083c2.491,1.192,3.543,4.178,2.352,6.668c-1.192,2.491-4.178,3.544-6.669,2.352
			c-31.817-15.228-44.059-1.777-58.236,13.795C287.01,170.89,285.656,171.44,284.298,171.44z"/>
	</g>
	<g id="rde훾a7bela_copy_3" display="inline">
	</g>
	<path display="inline" d="M10290.893,12277.16h-16737v-13953h16737V12277.16z M-6445.607,12276.16h16736l-0.5-13951h-16735.5
		l0.5,13951H-6445.607z"/>
</g>
<g id="linijsko" display="none">
	<g display="inline">
		<path fill="none" stroke="#000000" stroke-width="10" stroke-linecap="round" stroke-linejoin="round" stroke-miterlimit="10" d="
			M241.252,84.623c29.824,23.614,23.08,43.085,14.729,64.14"/>
		<path fill="none" stroke="#000000" stroke-width="10" stroke-linecap="round" stroke-linejoin="round" stroke-miterlimit="10" d="
			M348.391,151.501c-34.313-16.422-48.844-1.811-64.092,14.939"/>
		<path fill="none" stroke="#000000" stroke-width="8" stroke-linecap="round" stroke-linejoin="round" stroke-miterlimit="10" d="
			M283.743,205.066c11.788-18.884,20.833-44.535-3.073-59.456c-25.177-15.717-45.132,7.886-54.781,23.343"/>
		<path d="M184.932,361.942l-55.522-34.659c-3.514-2.192-4.054-20.212-0.54-18.02l72.489,45.249
			C204.872,356.706,188.446,364.135,184.932,361.942z"/>
		<path d="M216.151,283.578l-31.107-19.418c-4.492,3.635-8.914,6.836-13.181,9.455l41.584,25.958
			C213.925,294.588,214.859,289.209,216.151,283.578z"/>
		<path d="M226.561,249.99l-15.916-9.935c-3.557,3.751-7.177,7.421-10.816,10.932l21.662,13.522
			C223.046,259.697,224.753,254.833,226.561,249.99z"/>
		<path fill="none" stroke="#000000" stroke-width="8" stroke-linecap="round" stroke-linejoin="round" stroke-miterlimit="10" d="
			M213.962,315.892c-6.167-28.525,21.447-90.496,36.996-120.817l-1.693-1.056c-20.411,27.286-63.956,79.313-92.291,86.301
			c-10.621,2.635-20.042,2.306-28.102-0.956c-6.919,31.253-1.094,57.841,15.765,72.189l-2.046,17.369l13.454-10.309
			c20.182,8.57,46.563,2.119,71.424-17.632C220.835,335.161,216.296,326.754,213.962,315.892z"/>
		<path d="M216.17,323.674l-67.158-41.921c-8.015,0.891-15.232-0.118-21.566-3.015c-1.304,3.301-0.116,7.162,3.002,9.109
			l88.606,55.31c3.108,1.94,7.084,1.323,9.479-1.277C223.058,337.45,218.922,331.354,216.17,323.674z"/>
		<g>
			<path fill="none" stroke="#000000" stroke-width="8" stroke-linecap="round" stroke-linejoin="round" stroke-miterlimit="10" d="
				M232.021,344.371c-9.145-5.708-15.225-15.287-18.059-28.479c-8.382-38.771,45.643-139.333,46.957-138.226
				c33.126,28.476,44.582,105.21,29.293,143.903c-7.861,19.903-22.294,29.995-40.609,28.42
				C242.986,349.43,237.085,347.532,232.021,344.371z"/>
			<path fill="none" stroke="#000000" stroke-width="8" stroke-linecap="round" stroke-linejoin="round" stroke-miterlimit="10" d="
				M110.687,263.276c-9.458-15.762-6.731-33.161,7.696-48.965c28.046-30.729,102.015-54.142,142.147-36.889
				c1.57,0.694-65.043,93.398-103.556,102.896c-13.097,3.249-24.373,1.993-33.517-3.715
				C118.393,273.442,114.097,268.975,110.687,263.276z"/>
		</g>
	</g>
	<g id="rde훾a7bela_copy" display="inline">
	</g>
</g>
<g id="pivot">
	<circle fill="none" cx="152.703" cy="361.308" r="14.133"/>
</g>
</svg>
