<?xml version="1.0" encoding="utf-8"?>
<!-- Generator: Adobe Illustrator 16.0.0, SVG Export Plug-In . SVG Version: 6.00 Build 0)  -->
<!DOCTYPE svg PUBLIC "-//W3C//DTD SVG 1.1//EN" "http://www.w3.org/Graphics/SVG/1.1/DTD/svg11.dtd">
<svg version="1.1" xmlns="http://www.w3.org/2000/svg" xmlns:xlink="http://www.w3.org/1999/xlink" x="0px" y="0px"
	 width="453.543px" height="453.542px" viewBox="0 0 453.543 453.542" enable-background="new 0 0 453.543 453.542"
	 xml:space="preserve">
<g id="kvadrat">
</g>
<g id="bg" display="none">
	<rect x="-3894.376" y="-1255.332" display="inline" width="15266.867" height="13678.951"/>
</g>
<g id="barvno" display="none">
	<g id="rde훾a7bela" display="inline">
	</g>
	<g display="inline">
		
			<path fill="#EED2A3" stroke="#000000" stroke-width="8" stroke-linecap="round" stroke-linejoin="round" stroke-miterlimit="10" d="
			M333.978,166.458c4.518-11.741,35.89-98.746-47.37-47.391c-17.887-10.057-38.523-15.799-60.506-15.799
			c-21.81,0-42.296,5.655-60.085,15.565c-81.032-49.782-52.779,32.28-47.314,46.778c-10.335,18.069-16.245,38.995-16.245,61.303
			c0,68.288,55.356,123.648,123.645,123.648c68.293,0,123.648-55.36,123.648-123.648
			C349.75,204.954,344.018,184.333,333.978,166.458z"/>
		<g>
			<path fill="none" stroke="#000000" stroke-width="8" stroke-linecap="round" stroke-linejoin="round" stroke-miterlimit="10" d="
				M191.416,281.574c14.426,19.8,31.959,13.555,34.688,6.742"/>
			<path fill="none" stroke="#000000" stroke-width="8" stroke-linecap="round" stroke-linejoin="round" stroke-miterlimit="10" d="
				M260.792,281.574c-14.427,19.8-31.959,13.555-34.688,6.742v-11.245"/>
		</g>
		<g>
			
				<line fill="none" stroke="#000000" stroke-width="6" stroke-linecap="round" stroke-linejoin="round" stroke-miterlimit="10" x1="245.725" y1="250.417" x2="372.484" y2="212.363"/>
			
				<line fill="none" stroke="#000000" stroke-width="6" stroke-linecap="round" stroke-linejoin="round" stroke-miterlimit="10" x1="372.484" y1="303.025" x2="245.725" y2="264.974"/>
			
				<line fill="none" stroke="#000000" stroke-width="6" stroke-linecap="round" stroke-linejoin="round" stroke-miterlimit="10" x1="245.725" y1="258.087" x2="372.484" y2="258.087"/>
		</g>
		<g>
			
				<line fill="none" stroke="#000000" stroke-width="6" stroke-linecap="round" stroke-linejoin="round" stroke-miterlimit="10" x1="207.818" y1="264.971" x2="81.06" y2="303.025"/>
			
				<line fill="none" stroke="#000000" stroke-width="6" stroke-linecap="round" stroke-linejoin="round" stroke-miterlimit="10" x1="81.06" y1="212.363" x2="207.818" y2="250.414"/>
			
				<line fill="none" stroke="#000000" stroke-width="6" stroke-linecap="round" stroke-linejoin="round" stroke-miterlimit="10" x1="207.818" y1="257.302" x2="81.06" y2="257.302"/>
		</g>
		<g>
			<g>
				
					<circle fill="#FFFFFF" stroke="#000000" stroke-width="7" stroke-linecap="round" stroke-linejoin="round" stroke-miterlimit="10" cx="189.572" cy="183.151" r="17.064"/>
				<circle cx="196.493" cy="190.383" r="9.895"/>
			</g>
			<g>
				
					<circle fill="#FFFFFF" stroke="#000000" stroke-width="7" stroke-linecap="round" stroke-linejoin="round" stroke-miterlimit="10" cx="262.637" cy="183.151" r="17.063"/>
				<path d="M279.453,190.383c0,5.465-4.428,9.897-9.896,9.897c-5.464,0-9.894-4.432-9.894-9.897c0-5.466,4.43-9.896,9.894-9.896
					C275.025,180.487,279.453,184.917,279.453,190.383z"/>
			</g>
		</g>
		
			<path fill="#E73088" stroke="#000000" stroke-width="8" stroke-linecap="round" stroke-linejoin="round" stroke-miterlimit="10" d="
			M247.494,250.149c-2.064-4.402-8.541-5.175-21.389-5.175s-19.325,0.774-21.39,5.177c-1.772,3.776,1.07,7.954,3.744,11.169
			c3.229,3.895,15.273,13.993,15.785,14.419c0.536,0.45,1.197,0.676,1.858,0.676s1.322-0.226,1.861-0.676
			c0.512-0.428,12.552-10.524,15.785-14.417C246.423,258.104,249.264,253.926,247.494,250.149z"/>
	</g>
	
		<rect x="-4404.662" y="-1675.34" display="inline" fill="none" stroke="#000000" stroke-miterlimit="10" width="16736" height="13952"/>
</g>
<g id="barvno_copy_2">
	<g id="rde훾a7bela_copy_4">
	</g>
	<g>
		
			<path fill="#FFFF00" stroke="#000000" stroke-width="8" stroke-linecap="round" stroke-linejoin="round" stroke-miterlimit="10" d="
			M333.978,166.458c4.518-11.741,35.89-98.746-47.37-47.391c-17.887-10.057-38.523-15.799-60.506-15.799
			c-21.81,0-42.296,5.655-60.085,15.565c-81.032-49.782-52.779,32.28-47.314,46.778c-10.335,18.069-16.245,38.995-16.245,61.303
			c0,68.288,55.356,123.648,123.645,123.648c68.293,0,123.648-55.36,123.648-123.648
			C349.75,204.954,344.018,184.333,333.978,166.458z"/>
		<g>
			<path fill="none" stroke="#000000" stroke-width="8" stroke-linecap="round" stroke-linejoin="round" stroke-miterlimit="10" d="
				M191.416,281.574c14.426,19.8,31.959,13.555,34.688,6.742"/>
			<path fill="none" stroke="#000000" stroke-width="8" stroke-linecap="round" stroke-linejoin="round" stroke-miterlimit="10" d="
				M260.792,281.574c-14.427,19.8-31.959,13.555-34.688,6.742v-11.245"/>
		</g>
		<g>
			
				<line fill="none" stroke="#000000" stroke-width="6" stroke-linecap="round" stroke-linejoin="round" stroke-miterlimit="10" x1="245.725" y1="250.417" x2="372.484" y2="212.363"/>
			
				<line fill="none" stroke="#000000" stroke-width="6" stroke-linecap="round" stroke-linejoin="round" stroke-miterlimit="10" x1="372.484" y1="303.025" x2="245.725" y2="264.974"/>
			
				<line fill="none" stroke="#000000" stroke-width="6" stroke-linecap="round" stroke-linejoin="round" stroke-miterlimit="10" x1="245.725" y1="258.087" x2="372.484" y2="258.087"/>
		</g>
		<g>
			
				<line fill="none" stroke="#000000" stroke-width="6" stroke-linecap="round" stroke-linejoin="round" stroke-miterlimit="10" x1="207.818" y1="264.971" x2="81.06" y2="303.025"/>
			
				<line fill="none" stroke="#000000" stroke-width="6" stroke-linecap="round" stroke-linejoin="round" stroke-miterlimit="10" x1="81.06" y1="212.363" x2="207.818" y2="250.414"/>
			
				<line fill="none" stroke="#000000" stroke-width="6" stroke-linecap="round" stroke-linejoin="round" stroke-miterlimit="10" x1="207.818" y1="257.302" x2="81.06" y2="257.302"/>
		</g>
		
			<circle fill="#FFFFFF" stroke="#000000" stroke-width="7" stroke-linecap="round" stroke-linejoin="round" stroke-miterlimit="10" cx="189.572" cy="183.151" r="17.064"/>
		<circle cx="196.493" cy="190.383" r="9.895"/>
		
			<circle fill="#FFFFFF" stroke="#000000" stroke-width="7" stroke-linecap="round" stroke-linejoin="round" stroke-miterlimit="10" cx="262.637" cy="183.151" r="17.063"/>
		<path d="M279.453,190.383c0,5.465-4.428,9.897-9.896,9.897c-5.464,0-9.894-4.432-9.894-9.897c0-5.466,4.43-9.896,9.894-9.896
			C275.025,180.487,279.453,184.917,279.453,190.383z"/>
		<path stroke="#000000" stroke-width="8" stroke-linecap="round" stroke-linejoin="round" stroke-miterlimit="10" d="
			M247.494,250.149c-2.064-4.402-8.541-5.175-21.389-5.175s-19.325,0.774-21.39,5.177c-1.772,3.776,1.07,7.954,3.744,11.169
			c3.229,3.895,15.273,13.993,15.785,14.419c0.536,0.45,1.197,0.676,1.858,0.676s1.322-0.226,1.861-0.676
			c0.512-0.428,12.552-10.524,15.785-14.417C246.423,258.104,249.264,253.926,247.494,250.149z"/>
	</g>
	<rect x="-4404.662" y="-1675.34" fill="none" stroke="#000000" stroke-miterlimit="10" width="16736" height="13952"/>
</g>
<g id="sivinsko" display="none">
	<g id="rde훾a7bela_copy_3" display="inline">
	</g>
	<g display="inline">
		<g>
			<path fill="#D5D5D5" d="M333.978,166.458c4.518-11.741,35.89-98.746-47.37-47.391c-17.887-10.057-38.523-15.799-60.506-15.799
				c-21.81,0-42.296,5.655-60.085,15.565c-81.032-49.782-52.779,32.28-47.314,46.778c-10.335,18.069-16.245,38.995-16.245,61.303
				c0,68.288,55.356,123.648,123.645,123.648c68.293,0,123.648-55.36,123.648-123.648
				C349.75,204.954,344.018,184.333,333.978,166.458z"/>
			<path d="M226.102,354.563c-70.383,0-127.645-57.263-127.645-127.648c0-21.589,5.475-42.861,15.851-61.647
				c-5.147-14.08-14.296-44.253-4.396-58.566c2.437-3.522,7.214-7.72,16.139-7.72c9.909,0,23.033,4.988,40.076,15.238
				c18.366-9.788,39.05-14.951,59.976-14.951c21.096,0,41.926,5.241,60.401,15.177c17.221-10.4,30.466-15.462,40.447-15.462
				c8.953,0,13.735,4.227,16.17,7.772c10.23,14.897-0.247,47.278-4.748,59.388c10.065,18.566,15.377,39.536,15.377,60.771
				C353.75,297.299,296.488,354.563,226.102,354.563z M126.051,106.98c-4.444,0-7.571,1.397-9.559,4.272
				c-6.691,9.672-0.975,34.567,5.954,52.948c0.421,1.116,0.322,2.362-0.271,3.397c-10.282,17.977-15.717,38.488-15.717,59.317
				c0,65.974,53.672,119.648,119.645,119.648c65.974,0,119.648-53.674,119.648-119.648c0-20.496-5.277-40.723-15.26-58.498
				c-0.583-1.038-0.674-2.283-0.246-3.395c7.154-18.591,13.091-43.821,6.281-53.738c-1.987-2.894-5.12-4.3-9.575-4.3
				c-8.713,0-21.58,5.212-38.243,15.488c-1.239,0.764-2.793,0.795-4.061,0.082c-17.785-10-38.03-15.286-58.545-15.286
				c-20.35,0-40.454,5.208-58.138,15.06c-1.263,0.703-2.809,0.671-4.041-0.086C147.44,112.115,134.698,106.98,126.051,106.98z"/>
		</g>
		<g>
			<path d="M213.479,298.913c-5.773,0-15.949-2.153-25.296-14.983c-1.301-1.786-0.909-4.288,0.877-5.588
				c1.786-1.301,4.287-0.908,5.588,0.878c8.227,11.291,16.383,12.11,20.511,11.594c4.092-0.511,6.691-2.638,7.23-3.984
				c0.821-2.05,3.149-3.048,5.2-2.226c2.051,0.821,3.048,3.15,2.226,5.201c-1.854,4.63-7.217,8.143-13.664,8.949
				C215.426,298.842,214.524,298.913,213.479,298.913z"/>
			<path d="M238.729,298.913c-1.046,0-1.947-0.07-2.673-0.161c-6.447-0.806-11.81-4.318-13.664-8.949
				c-0.189-0.473-0.287-0.978-0.287-1.487v-11.245c0-2.209,1.791-4,4-4s4,1.791,4,4v10.279c0.906,1.318,3.349,3.014,6.943,3.463
				c4.129,0.517,12.284-0.303,20.511-11.594c1.301-1.786,3.802-2.179,5.588-0.878c1.786,1.301,2.178,3.803,0.877,5.588
				C254.679,296.758,244.502,298.913,238.729,298.913z"/>
		</g>
		<g>
			<path d="M245.724,253.417c-1.291,0-2.482-0.839-2.873-2.139c-0.476-1.587,0.423-3.259,2.011-3.734l126.759-38.055
				c1.589-0.478,3.26,0.425,3.736,2.011c0.477,1.587-0.423,3.261-2.01,3.736L246.588,253.29
				C246.3,253.376,246.009,253.417,245.724,253.417z"/>
			<path d="M372.485,306.026c-0.286,0-0.576-0.042-0.863-0.127l-126.759-38.052c-1.587-0.476-2.487-2.148-2.011-3.735
				c0.477-1.587,2.149-2.487,3.736-2.01l126.759,38.05c1.587,0.477,2.487,2.149,2.011,3.736
				C374.967,305.187,373.775,306.026,372.485,306.026z"/>
			<path d="M372.484,261.087H245.725c-1.657,0-3-1.343-3-3s1.343-3,3-3h126.759c1.657,0,3,1.343,3,3
				S374.141,261.087,372.484,261.087z"/>
		</g>
		<g>
			<path d="M81.059,306.026c-1.291,0-2.482-0.839-2.873-2.138c-0.476-1.587,0.424-3.26,2.011-3.736l126.759-38.054
				c1.589-0.477,3.26,0.424,3.736,2.011s-0.424,3.259-2.011,3.736L81.922,305.899C81.635,305.985,81.344,306.026,81.059,306.026z"/>
			<path d="M207.819,253.415c-0.286,0-0.576-0.041-0.863-0.127L80.197,215.236c-1.587-0.476-2.487-2.148-2.011-3.735
				c0.477-1.587,2.149-2.488,3.736-2.011l126.759,38.051c1.587,0.477,2.487,2.15,2.011,3.736
				C210.302,252.575,209.11,253.415,207.819,253.415z"/>
			<path d="M207.818,260.302H81.06c-1.657,0-3-1.342-3-3c0-1.657,1.343-3,3-3h126.759c1.657,0,3,1.343,3,3
				C210.818,258.96,209.475,260.302,207.818,260.302z"/>
		</g>
		<g>
			<g>
				<g>
					<circle fill="#FFFFFF" cx="189.572" cy="183.151" r="17.064"/>
					<path d="M189.573,203.712c-11.34,0-20.564-9.224-20.564-20.562c0-11.338,9.225-20.563,20.564-20.563
						c11.339,0,20.563,9.225,20.563,20.563C210.136,194.489,200.912,203.712,189.573,203.712z M189.573,169.588
						c-7.479,0-13.564,6.084-13.564,13.563c0,7.478,6.085,13.562,13.564,13.562c7.479,0,13.563-6.084,13.563-13.562
						C203.136,175.672,197.052,169.588,189.573,169.588z"/>
				</g>
				<circle cx="196.493" cy="190.383" r="9.895"/>
			</g>
			<g>
				<g>
					<circle fill="#FFFFFF" cx="262.637" cy="183.151" r="17.063"/>
					<path d="M262.638,203.712c-11.339,0-20.564-9.224-20.564-20.562c0-11.338,9.225-20.563,20.564-20.563
						c11.338,0,20.562,9.225,20.562,20.563C283.2,194.489,273.976,203.712,262.638,203.712z M262.638,169.588
						c-7.479,0-13.564,6.084-13.564,13.563c0,7.478,6.085,13.562,13.564,13.562c7.478,0,13.562-6.084,13.562-13.562
						C276.2,175.672,270.116,169.588,262.638,169.588z"/>
				</g>
				<path d="M279.453,190.383c0,5.465-4.428,9.897-9.896,9.897c-5.464,0-9.894-4.432-9.894-9.897c0-5.466,4.43-9.896,9.894-9.896
					C275.025,180.487,279.453,184.917,279.453,190.383z"/>
			</g>
		</g>
		<g>
			<path fill="#717171" d="M247.494,250.149c-2.064-4.402-8.541-5.175-21.389-5.175s-19.325,0.774-21.39,5.177
				c-1.772,3.776,1.07,7.954,3.744,11.169c3.229,3.895,15.273,13.993,15.785,14.419c0.536,0.45,1.197,0.676,1.858,0.676
				s1.322-0.226,1.861-0.676c0.512-0.428,12.552-10.524,15.785-14.417C246.423,258.104,249.264,253.926,247.494,250.149z"/>
			<path d="M226.103,280.415c-1.619,0-3.192-0.573-4.431-1.613c-0.117-0.097-12.729-10.631-16.292-14.93
				c-2.012-2.419-7.367-8.857-4.286-15.421c3.255-6.941,12.419-7.478,25.011-7.478c12.591,0,21.755,0.536,25.01,7.476
				c3.077,6.564-2.275,13.004-4.29,15.428c-3.512,4.229-15.776,14.494-16.296,14.93C229.29,279.845,227.718,280.415,226.103,280.415
				z M226.105,248.974c-7.944,0-16.524,0.223-17.768,2.875c-0.611,1.301,0.465,3.626,3.198,6.913
				c2.394,2.888,10.893,10.222,14.569,13.316c3.831-3.228,12.194-10.453,14.569-13.312c2.734-3.288,3.81-5.617,3.2-6.919
				C242.628,249.197,234.049,248.974,226.105,248.974z"/>
		</g>
	</g>
	<path display="inline" d="M12331.838,12277.16h-16737v-13953h16737V12277.16z M-4404.662,12276.16h16736l-0.5-13951h-16735.5
		l0.5,13951H-4404.662z"/>
</g>
<g id="linijsko" display="none">
	<g id="rde훾a7bela_copy" display="inline">
	</g>
	<g display="inline">
		<path fill="none" stroke="#000000" stroke-width="8" stroke-linecap="round" stroke-linejoin="round" stroke-miterlimit="10" d="
			M333.978,166.458c4.518-11.741,35.89-98.746-47.37-47.391c-17.887-10.057-38.523-15.799-60.506-15.799
			c-21.81,0-42.296,5.655-60.085,15.565c-81.032-49.782-52.779,32.28-47.314,46.778c-10.335,18.069-16.245,38.995-16.245,61.303
			c0,68.288,55.356,123.648,123.645,123.648c68.293,0,123.648-55.36,123.648-123.648
			C349.75,204.954,344.018,184.333,333.978,166.458z"/>
		<g>
			<path fill="none" stroke="#000000" stroke-width="8" stroke-linecap="round" stroke-linejoin="round" stroke-miterlimit="10" d="
				M191.416,281.574c14.426,19.8,31.959,13.555,34.688,6.742"/>
			<path fill="none" stroke="#000000" stroke-width="8" stroke-linecap="round" stroke-linejoin="round" stroke-miterlimit="10" d="
				M260.792,281.574c-14.427,19.8-31.959,13.555-34.688,6.742v-11.245"/>
		</g>
		<g>
			
				<line fill="none" stroke="#000000" stroke-width="6" stroke-linecap="round" stroke-linejoin="round" stroke-miterlimit="10" x1="246.725" y1="250.417" x2="373.484" y2="212.363"/>
			
				<line fill="none" stroke="#000000" stroke-width="6" stroke-linecap="round" stroke-linejoin="round" stroke-miterlimit="10" x1="373.484" y1="303.025" x2="246.725" y2="264.974"/>
			
				<line fill="none" stroke="#000000" stroke-width="6" stroke-linecap="round" stroke-linejoin="round" stroke-miterlimit="10" x1="246.725" y1="258.087" x2="373.484" y2="258.087"/>
		</g>
		<g>
			
				<line fill="none" stroke="#000000" stroke-width="6" stroke-linecap="round" stroke-linejoin="round" stroke-miterlimit="10" x1="205.818" y1="264.971" x2="79.06" y2="303.025"/>
			
				<line fill="none" stroke="#000000" stroke-width="6" stroke-linecap="round" stroke-linejoin="round" stroke-miterlimit="10" x1="79.06" y1="212.363" x2="205.818" y2="250.414"/>
			
				<line fill="none" stroke="#000000" stroke-width="6" stroke-linecap="round" stroke-linejoin="round" stroke-miterlimit="10" x1="205.818" y1="257.302" x2="79.06" y2="257.302"/>
		</g>
		
			<circle fill="none" stroke="#000000" stroke-width="7" stroke-linecap="round" stroke-linejoin="round" stroke-miterlimit="10" cx="189.572" cy="183.151" r="17.064"/>
		<circle cx="196.493" cy="190.383" r="9.895"/>
		
			<circle fill="none" stroke="#000000" stroke-width="7" stroke-linecap="round" stroke-linejoin="round" stroke-miterlimit="10" cx="262.637" cy="183.151" r="17.063"/>
		<path d="M279.453,190.383c0,5.465-4.428,9.897-9.896,9.897c-5.464,0-9.894-4.432-9.894-9.897c0-5.466,4.43-9.896,9.894-9.896
			C275.025,180.487,279.453,184.917,279.453,190.383z"/>
		<path fill="none" stroke="#000000" stroke-width="8" stroke-linecap="round" stroke-linejoin="round" stroke-miterlimit="10" d="
			M247.494,250.149c-2.064-4.402-8.541-5.175-21.389-5.175s-19.325,0.774-21.39,5.177c-1.772,3.776,1.07,7.954,3.744,11.169
			c3.229,3.895,15.273,13.993,15.785,14.419c0.536,0.45,1.197,0.676,1.858,0.676s1.322-0.226,1.861-0.676
			c0.512-0.428,12.552-10.524,15.785-14.417C246.423,258.104,249.264,253.926,247.494,250.149z"/>
	</g>
</g>
<g id="pivot">
	<circle fill="none" cx="234.737" cy="351.18" r="14.133"/>
</g>
</svg>
