<?xml version="1.0" encoding="utf-8"?>
<!-- Generator: Adobe Illustrator 16.0.0, SVG Export Plug-In . SVG Version: 6.00 Build 0)  -->
<!DOCTYPE svg PUBLIC "-//W3C//DTD SVG 1.1//EN" "http://www.w3.org/Graphics/SVG/1.1/DTD/svg11.dtd">
<svg version="1.1" xmlns="http://www.w3.org/2000/svg" xmlns:xlink="http://www.w3.org/1999/xlink" x="0px" y="0px"
	 width="453.543px" height="453.543px" viewBox="0 0 453.543 453.543" enable-background="new 0 0 453.543 453.543"
	 xml:space="preserve">
<g id="kvadrat">
</g>
<g id="bg" display="none">
	<rect x="-6955.794" y="-12480.53" display="inline" width="15266.867" height="13678.951"/>
</g>
<g id="barvno" display="none">
	<g id="rde훾a7bela" display="inline">
	</g>
	<g display="inline">
		<path fill="none" stroke="#000000" stroke-width="8" stroke-linecap="round" stroke-linejoin="round" stroke-miterlimit="10" d="
			M189.771,116.141c18.195,5.107,36.146,18.898,36.146,63.783"/>
		<path fill="none" stroke="#000000" stroke-width="8" stroke-linecap="round" stroke-linejoin="round" stroke-miterlimit="10" d="
			M262.064,116.141c-18.169,5.201-36.146,18.898-36.146,63.783"/>
		
			<path fill="#FFCF00" stroke="#000000" stroke-width="8" stroke-linecap="round" stroke-linejoin="round" stroke-miterlimit="10" d="
			M223.028,198.732c0-36.271-29.402-65.676-65.675-65.676s-65.675,29.404-65.675,65.676s29.402,65.674,65.675,65.674
			c1.198,0,2.387-0.035,3.569-0.1c-13.524,6.991-22.775,21.096-22.775,37.369c0,23.227,18.826,42.051,42.051,42.051
			s42.051-18.824,42.051-42.051C222.249,279.006,223.028,226.342,223.028,198.732z"/>
		
			<path fill="#FFCF00" stroke="#000000" stroke-width="8" stroke-linecap="round" stroke-linejoin="round" stroke-miterlimit="10" d="
			M361.863,198.732c0-36.271-29.402-65.676-65.675-65.676c-36.271,0-65.675,29.404-65.675,65.676c0,27.609,0.78,80.273,0.78,102.943
			c0,23.227,18.826,42.051,42.051,42.051s42.051-18.824,42.051-42.051c0-16.273-9.251-30.378-22.775-37.369
			c1.182,0.064,2.371,0.1,3.568,0.1C332.461,264.406,361.863,235.004,361.863,198.732z"/>
		
			<path fill="#7E4E24" stroke="#000000" stroke-width="8" stroke-linecap="round" stroke-linejoin="round" stroke-miterlimit="10" d="
			M227.904,349.399c11.783,0,13.407-41.951,13.407-41.951s0-110.755,0-120.532c0-12.125-0.073-35.09-13.907-35.09
			c-13.833,0-13.907,22.965-13.907,35.09c0,9.777,0,120.532,0,120.532S216.122,349.399,227.904,349.399z"/>
		<circle fill="#E84E1B" stroke="#000000" stroke-width="8" stroke-miterlimit="10" cx="157.353" cy="198.732" r="36.949"/>
		
			<circle fill="#E73088" stroke="#000000" stroke-width="8" stroke-linecap="round" stroke-linejoin="round" stroke-miterlimit="10" cx="180.198" cy="301.677" r="12.757"/>
		<circle fill="#E84E1B" stroke="#000000" stroke-width="8" stroke-miterlimit="10" cx="296.188" cy="198.732" r="36.948"/>
		
			<circle fill="#E73088" stroke="#000000" stroke-width="8" stroke-linecap="round" stroke-linejoin="round" stroke-miterlimit="10" cx="273.344" cy="301.677" r="12.757"/>
	</g>
	
		<rect x="-7466.08" y="-12900.539" display="inline" fill="none" stroke="#000000" stroke-miterlimit="10" width="16736" height="13952"/>
</g>
<g id="barvno_copy_2">
	<g id="rde훾a7bela_copy_4">
	</g>
	<g>
		<path fill="#00FFFF" d="M225.918,183.924c-2.209,0-4-1.791-4-4c0-45.359-18.963-55.928-33.228-59.932
			c-2.127-0.598-3.367-2.806-2.77-4.933c0.597-2.127,2.803-3.367,4.932-2.771c26.287,7.379,39.065,29.503,39.065,67.635
			C229.918,182.133,228.127,183.924,225.918,183.924z"/>
		<path fill="#00FFFF" d="M225.918,183.924c-2.209,0-4-1.791-4-4c0-21.474,3.919-37.522,11.981-49.063
			c6.355-9.099,15.208-15.171,27.064-18.565c2.129-0.609,4.339,0.622,4.947,2.745c0.608,2.124-0.621,4.338-2.745,4.946
			c-14.273,4.086-33.248,14.744-33.248,59.938C229.918,182.133,228.127,183.924,225.918,183.924z"/>
		<g>
			<path fill="#FFFF00" d="M223.028,198.732c0-36.271-29.402-65.676-65.675-65.676s-65.675,29.404-65.675,65.676
				s29.402,65.674,65.675,65.674c1.198,0,2.387-0.035,3.569-0.1c-13.524,6.991-22.775,21.096-22.775,37.369
				c0,23.227,18.826,42.051,42.051,42.051s42.051-18.824,42.051-42.051C222.249,279.006,223.028,226.342,223.028,198.732z"/>
			<path d="M180.198,347.727c-25.393,0-46.051-20.658-46.051-46.051c0-13.057,5.449-25.195,14.742-33.781
				c-34.441-4.19-61.21-33.609-61.21-69.162c0-38.419,31.256-69.676,69.675-69.676s69.675,31.257,69.675,69.676
				c0,14.505-0.213,35.718-0.418,56.232c-0.186,18.489-0.361,35.954-0.361,46.711C226.249,327.068,205.591,347.727,180.198,347.727z
				 M160.925,260.307c1.794,0,3.381,1.201,3.857,2.949c0.496,1.819-0.347,3.738-2.022,4.604
				c-12.714,6.572-20.612,19.529-20.612,33.815c0,20.981,17.069,38.051,38.051,38.051s38.051-17.069,38.051-38.051
				c0-10.797,0.175-28.281,0.361-46.792c0.206-20.494,0.418-41.687,0.418-56.151c0-34.008-27.667-61.676-61.675-61.676
				s-61.675,27.668-61.675,61.676c0,34.007,27.667,61.674,61.675,61.674c1.083,0,2.211-0.031,3.352-0.094
				C160.778,260.309,160.852,260.307,160.925,260.307z"/>
		</g>
		<g>
			<path fill="#FFFF00" d="M361.863,198.732c0-36.271-29.402-65.676-65.675-65.676c-36.271,0-65.675,29.404-65.675,65.676
				c0,27.609,0.78,80.273,0.78,102.943c0,23.227,18.826,42.051,42.051,42.051s42.051-18.824,42.051-42.051
				c0-16.273-9.251-30.378-22.775-37.369c1.182,0.064,2.371,0.1,3.568,0.1C332.461,264.406,361.863,235.004,361.863,198.732z"/>
			<path d="M273.345,347.727c-25.393,0-46.051-20.658-46.051-46.051c0-10.757-0.175-28.222-0.361-46.711
				c-0.206-20.515-0.419-41.728-0.419-56.232c0-38.419,31.256-69.676,69.675-69.676s69.675,31.257,69.675,69.676
				c0,35.553-26.769,64.972-61.209,69.162c9.292,8.586,14.742,20.725,14.742,33.781
				C319.396,327.068,298.737,347.727,273.345,347.727z M296.188,137.057c-34.008,0-61.675,27.668-61.675,61.676
				c0,14.464,0.213,35.657,0.419,56.151c0.186,18.511,0.361,35.995,0.361,46.792c0,20.981,17.069,38.051,38.051,38.051
				s38.051-17.069,38.051-38.051c0-14.286-7.898-27.243-20.612-33.815c-1.675-0.866-2.518-2.785-2.022-4.604
				c0.496-1.82,2.201-3.06,4.077-2.943c1.14,0.063,2.267,0.094,3.351,0.094c34.008,0,61.675-27.667,61.675-61.674
				C357.863,164.725,330.196,137.057,296.188,137.057z"/>
		</g>
		<g>
			<path fill="#0000FF" d="M227.904,349.399c11.783,0,13.407-41.951,13.407-41.951s0-110.755,0-120.532
				c0-12.125-0.073-35.09-13.907-35.09c-13.833,0-13.907,22.965-13.907,35.09c0,9.777,0,120.532,0,120.532
				S216.122,349.399,227.904,349.399z"/>
			<path d="M227.904,353.399c-9.531,0-13.435-13.8-15.542-24.18c-2.159-10.636-2.83-21.082-2.857-21.521
				c-0.005-0.083-0.008-0.167-0.008-0.25V186.916c0-12.688,0-39.09,17.907-39.09s17.907,26.401,17.907,39.09v120.532
				c0,0.052-0.001,0.104-0.003,0.154c-0.017,0.44-0.439,10.888-2.345,21.526C240.038,345.461,235.112,353.399,227.904,353.399z
				 M217.497,307.315c0.08,1.175,0.781,10.864,2.719,20.381c2.957,14.522,6.552,17.703,7.688,17.703
				c1.114,0,4.575-3.164,7.173-17.613c1.735-9.651,2.194-19.482,2.234-20.421V186.916c0-10.092,0-31.09-9.907-31.09
				s-9.907,20.998-9.907,31.09V307.315z"/>
		</g>
		<g>
			<circle fill="#FF00FF" cx="157.353" cy="198.732" r="36.949"/>
			<path d="M157.354,239.682c-22.58,0-40.949-18.37-40.949-40.949s18.37-40.949,40.949-40.949c22.579,0,40.948,18.37,40.948,40.949
				S179.933,239.682,157.354,239.682z M157.354,165.783c-18.168,0-32.949,14.781-32.949,32.949s14.781,32.949,32.949,32.949
				c18.168,0,32.948-14.781,32.948-32.949S175.521,165.783,157.354,165.783z"/>
		</g>
		<g>
			<circle fill="#FF0000" cx="180.198" cy="301.677" r="12.757"/>
			<path d="M180.198,318.435c-9.24,0-16.758-7.518-16.758-16.758c0-9.239,7.518-16.757,16.758-16.757
				c9.24,0,16.757,7.518,16.757,16.757C196.955,310.917,189.438,318.435,180.198,318.435z M180.198,292.92
				c-4.829,0-8.758,3.929-8.758,8.757c0,4.829,3.929,8.758,8.758,8.758c4.829,0,8.757-3.929,8.757-8.758
				C188.955,296.849,185.027,292.92,180.198,292.92z"/>
		</g>
		<g>
			<circle fill="#FF00FF" cx="296.188" cy="198.732" r="36.948"/>
			<path d="M296.188,239.682c-22.579,0-40.948-18.37-40.948-40.949s18.369-40.949,40.948-40.949s40.948,18.37,40.948,40.949
				S318.768,239.682,296.188,239.682z M296.188,165.783c-18.167,0-32.948,14.781-32.948,32.949s14.781,32.949,32.948,32.949
				s32.948-14.781,32.948-32.949S314.356,165.783,296.188,165.783z"/>
		</g>
		<g>
			<circle fill="#FF0000" cx="273.344" cy="301.677" r="12.757"/>
			<path d="M273.345,318.435c-9.24,0-16.758-7.518-16.758-16.758c0-9.239,7.518-16.757,16.758-16.757
				c9.24,0,16.757,7.518,16.757,16.757C290.102,310.917,282.584,318.435,273.345,318.435z M273.345,292.92
				c-4.829,0-8.758,3.929-8.758,8.757c0,4.829,3.929,8.758,8.758,8.758c4.829,0,8.757-3.929,8.757-8.758
				C282.102,296.849,278.173,292.92,273.345,292.92z"/>
		</g>
	</g>
	<rect x="-7466.08" y="-12900.539" fill="none" stroke="#000000" stroke-miterlimit="10" width="16736" height="13952"/>
</g>
<g id="sivinsko" display="none">
	<g id="rde훾a7bela_copy_3" display="inline">
	</g>
	<g display="inline">
		<path d="M225.918,183.924c-2.209,0-4-1.791-4-4c0-45.359-18.963-55.928-33.228-59.932c-2.127-0.598-3.367-2.806-2.77-4.933
			c0.597-2.127,2.803-3.367,4.932-2.771c26.287,7.379,39.065,29.503,39.065,67.635C229.918,182.133,228.127,183.924,225.918,183.924
			z"/>
		<path d="M225.918,183.924c-2.209,0-4-1.791-4-4c0-21.474,3.919-37.522,11.981-49.063c6.355-9.099,15.208-15.171,27.064-18.565
			c2.129-0.609,4.339,0.622,4.947,2.745c0.608,2.124-0.621,4.339-2.745,4.946c-14.273,4.086-33.248,14.744-33.248,59.938
			C229.918,182.133,228.127,183.924,225.918,183.924z"/>
		<g>
			<path fill="#C7C7C7" d="M223.028,198.732c0-36.271-29.402-65.676-65.675-65.676s-65.675,29.404-65.675,65.676
				s29.402,65.674,65.675,65.674c1.198,0,2.387-0.035,3.569-0.1c-13.524,6.991-22.775,21.096-22.775,37.369
				c0,23.227,18.826,42.051,42.051,42.051s42.051-18.824,42.051-42.051C222.249,279.006,223.028,226.342,223.028,198.732z"/>
			<path d="M180.198,347.727c-25.393,0-46.051-20.658-46.051-46.051c0-13.057,5.449-25.195,14.742-33.781
				c-34.441-4.19-61.21-33.609-61.21-69.162c0-38.419,31.256-69.676,69.675-69.676s69.675,31.257,69.675,69.676
				c0,14.505-0.213,35.718-0.418,56.232c-0.186,18.489-0.361,35.955-0.361,46.711C226.249,327.068,205.591,347.727,180.198,347.727z
				 M160.925,260.307c1.794,0,3.381,1.201,3.857,2.949c0.496,1.819-0.347,3.738-2.022,4.604
				c-12.714,6.572-20.612,19.529-20.612,33.815c0,20.981,17.069,38.051,38.051,38.051s38.051-17.069,38.051-38.051
				c0-10.797,0.175-28.281,0.361-46.792c0.206-20.494,0.418-41.687,0.418-56.151c0-34.008-27.667-61.676-61.675-61.676
				s-61.675,27.668-61.675,61.676c0,34.007,27.667,61.674,61.675,61.674c1.083,0,2.211-0.031,3.352-0.094
				C160.778,260.309,160.852,260.307,160.925,260.307z"/>
		</g>
		<g>
			<path fill="#C7C7C7" d="M361.863,198.732c0-36.271-29.402-65.676-65.675-65.676c-36.271,0-65.675,29.404-65.675,65.676
				c0,27.609,0.78,80.273,0.78,102.943c0,23.227,18.826,42.051,42.051,42.051s42.051-18.824,42.051-42.051
				c0-16.273-9.251-30.378-22.775-37.369c1.182,0.064,2.371,0.1,3.568,0.1C332.461,264.406,361.863,235.004,361.863,198.732z"/>
			<path d="M273.345,347.727c-25.393,0-46.051-20.658-46.051-46.051c0-10.756-0.175-28.222-0.361-46.711
				c-0.206-20.515-0.419-41.728-0.419-56.232c0-38.419,31.256-69.676,69.675-69.676s69.675,31.257,69.675,69.676
				c0,35.553-26.769,64.972-61.209,69.162c9.292,8.586,14.742,20.725,14.742,33.781
				C319.396,327.068,298.737,347.727,273.345,347.727z M296.188,137.057c-34.008,0-61.675,27.668-61.675,61.676
				c0,14.464,0.213,35.657,0.419,56.151c0.186,18.511,0.361,35.995,0.361,46.792c0,20.981,17.069,38.051,38.051,38.051
				s38.051-17.069,38.051-38.051c0-14.286-7.898-27.243-20.612-33.815c-1.675-0.866-2.518-2.785-2.022-4.604
				c0.496-1.82,2.201-3.06,4.077-2.943c1.14,0.063,2.267,0.094,3.351,0.094c34.008,0,61.675-27.667,61.675-61.674
				C357.863,164.725,330.196,137.057,296.188,137.057z"/>
		</g>
		<g>
			<path fill="#585858" d="M227.904,349.399c11.783,0,13.407-41.951,13.407-41.951s0-110.755,0-120.532
				c0-12.125-0.073-35.09-13.907-35.09c-13.833,0-13.907,22.965-13.907,35.09c0,9.777,0,120.532,0,120.532
				S216.122,349.399,227.904,349.399z"/>
			<path d="M227.904,353.399c-9.531,0-13.435-13.8-15.542-24.18c-2.159-10.636-2.83-21.082-2.857-21.521
				c-0.005-0.083-0.008-0.167-0.008-0.25V186.916c0-12.688,0-39.09,17.907-39.09s17.907,26.401,17.907,39.09v120.532
				c0,0.052-0.001,0.104-0.003,0.154c-0.017,0.44-0.439,10.888-2.345,21.526C240.038,345.461,235.112,353.399,227.904,353.399z
				 M217.497,307.315c0.08,1.175,0.781,10.864,2.719,20.381c2.957,14.522,6.552,17.703,7.688,17.703
				c1.114,0,4.575-3.164,7.173-17.613c1.735-9.651,2.194-19.482,2.234-20.421V186.916c0-10.092,0-31.09-9.907-31.09
				s-9.907,20.998-9.907,31.09V307.315z"/>
		</g>
		<g>
			<circle fill="#777777" cx="157.353" cy="198.732" r="36.949"/>
			<path d="M157.354,239.682c-22.58,0-40.949-18.37-40.949-40.949s18.37-40.949,40.949-40.949c22.579,0,40.948,18.37,40.948,40.949
				S179.933,239.682,157.354,239.682z M157.354,165.783c-18.168,0-32.949,14.781-32.949,32.949s14.781,32.949,32.949,32.949
				c18.168,0,32.948-14.781,32.948-32.949S175.521,165.783,157.354,165.783z"/>
		</g>
		<g>
			<circle fill="#717171" cx="180.198" cy="301.677" r="12.757"/>
			<path d="M180.198,318.435c-9.24,0-16.758-7.518-16.758-16.758c0-9.239,7.518-16.757,16.758-16.757
				c9.24,0,16.757,7.518,16.757,16.757C196.955,310.917,189.438,318.435,180.198,318.435z M180.198,292.92
				c-4.829,0-8.758,3.929-8.758,8.757c0,4.829,3.929,8.758,8.758,8.758c4.829,0,8.757-3.929,8.757-8.758
				C188.955,296.849,185.027,292.92,180.198,292.92z"/>
		</g>
		<g>
			<circle fill="#777777" cx="296.188" cy="198.732" r="36.948"/>
			<path d="M296.188,239.682c-22.579,0-40.948-18.37-40.948-40.949s18.369-40.949,40.948-40.949s40.948,18.37,40.948,40.949
				S318.768,239.682,296.188,239.682z M296.188,165.783c-18.167,0-32.948,14.781-32.948,32.949s14.781,32.949,32.948,32.949
				s32.948-14.781,32.948-32.949S314.356,165.783,296.188,165.783z"/>
		</g>
		<g>
			<circle fill="#717171" cx="273.344" cy="301.677" r="12.757"/>
			<path d="M273.345,318.435c-9.24,0-16.758-7.518-16.758-16.758c0-9.239,7.518-16.757,16.758-16.757
				c9.24,0,16.757,7.518,16.757,16.757C290.102,310.917,282.584,318.435,273.345,318.435z M273.345,292.92
				c-4.829,0-8.758,3.929-8.758,8.757c0,4.829,3.929,8.758,8.758,8.758c4.829,0,8.757-3.929,8.757-8.758
				C282.102,296.849,278.173,292.92,273.345,292.92z"/>
		</g>
	</g>
	<path display="inline" d="M9270.42,1051.961h-16737v-13953h16737V1051.961z M-7466.08,1050.961h16736l-0.5-13951h-16735.5
		l0.5,13951H-7466.08z"/>
</g>
<g id="linijsko" display="none">
	<g id="rde훾a7bela_copy" display="inline">
	</g>
	<g display="inline">
		<path fill="none" stroke="#000000" stroke-width="8" stroke-linecap="round" stroke-linejoin="round" stroke-miterlimit="10" d="
			M189.771,116.141c13.839,3.885,27.527,12.809,33.293,36.6"/>
		<path fill="none" stroke="#000000" stroke-width="8" stroke-linecap="round" stroke-linejoin="round" stroke-miterlimit="10" d="
			M228.966,151.943c5.883-23.171,19.435-31.892,33.098-35.803"/>
		<path fill="none" stroke="#000000" stroke-width="8" stroke-linecap="round" stroke-linejoin="round" stroke-miterlimit="10" d="
			M214.816,166.93c-11.202-20.196-32.73-33.873-57.462-33.873c-36.272,0-65.675,29.404-65.675,65.676s29.402,65.674,65.675,65.674
			c1.198,0,2.387-0.035,3.569-0.1c-13.524,6.991-22.775,21.096-22.775,37.369c0,23.227,18.826,42.051,42.051,42.051
			c14.83,0,27.856-7.682,35.343-19.277"/>
		<path fill="none" stroke="#000000" stroke-width="8" stroke-linecap="round" stroke-linejoin="round" stroke-miterlimit="10" d="
			M239.365,326.439c7.647,10.477,20.015,17.287,33.979,17.287c23.225,0,42.051-18.824,42.051-42.051
			c0-16.273-9.251-30.378-22.775-37.369c1.182,0.064,2.371,0.1,3.568,0.1c36.272,0,65.675-29.402,65.675-65.674
			s-29.402-65.676-65.675-65.676c-24.066,0-45.097,12.951-56.533,32.258"/>
		<path fill="none" stroke="#000000" stroke-width="8" stroke-linecap="round" stroke-linejoin="round" stroke-miterlimit="10" d="
			M239.365,326.439c1.59-9.787,1.946-18.991,1.946-18.991s0-110.755,0-120.532c0-5.928-0.022-14.442-1.656-21.602"/>
		<path fill="none" stroke="#000000" stroke-width="8" stroke-linecap="round" stroke-linejoin="round" stroke-miterlimit="10" d="
			M228.966,151.943c6.026,0.827,9.112,6.462,10.689,13.371"/>
		<path fill="none" stroke="#000000" stroke-width="8" stroke-linecap="round" stroke-linejoin="round" stroke-miterlimit="10" d="
			M214.816,166.93c1.232-6.446,3.622-12.064,8.249-14.189"/>
		<path fill="none" stroke="#000000" stroke-width="8" stroke-linecap="round" stroke-linejoin="round" stroke-miterlimit="10" d="
			M214.816,166.93c-1.299,6.795-1.319,14.499-1.319,19.986c0,9.777,0,120.532,0,120.532s0.5,7.993,2.044,17.001"/>
		<path fill="none" stroke="#000000" stroke-width="8" stroke-linecap="round" stroke-linejoin="round" stroke-miterlimit="10" d="
			M239.365,326.439c-1.804,11.105-5.197,22.96-11.461,22.96c-6.639,0-10.371-13.321-12.363-24.95"/>
		<path fill="none" stroke="#000000" stroke-width="8" stroke-linecap="round" stroke-linejoin="round" stroke-miterlimit="10" d="
			M228.966,151.943c-0.502-0.07-1.018-0.117-1.562-0.117c-1.633,0-3.068,0.33-4.339,0.914"/>
		
			<circle fill="none" stroke="#000000" stroke-width="8" stroke-linecap="round" stroke-linejoin="round" stroke-miterlimit="10" cx="157.353" cy="198.732" r="36.949"/>
		
			<circle fill="none" stroke="#000000" stroke-width="8" stroke-linecap="round" stroke-linejoin="round" stroke-miterlimit="10" cx="180.198" cy="301.677" r="12.757"/>
		
			<circle fill="none" stroke="#000000" stroke-width="8" stroke-linecap="round" stroke-linejoin="round" stroke-miterlimit="10" cx="296.188" cy="198.732" r="36.948"/>
		
			<circle fill="none" stroke="#000000" stroke-width="8" stroke-linecap="round" stroke-linejoin="round" stroke-miterlimit="10" cx="273.344" cy="301.677" r="12.757"/>
	</g>
</g>
<g id="pivot">
	<circle fill="none" cx="224.375" cy="344.461" r="14.133"/>
</g>
</svg>
