<?xml version="1.0" encoding="utf-8"?>
<!-- Generator: Adobe Illustrator 16.0.0, SVG Export Plug-In . SVG Version: 6.00 Build 0)  -->
<!DOCTYPE svg PUBLIC "-//W3C//DTD SVG 1.1//EN" "http://www.w3.org/Graphics/SVG/1.1/DTD/svg11.dtd">
<svg version="1.1" xmlns="http://www.w3.org/2000/svg" xmlns:xlink="http://www.w3.org/1999/xlink" x="0px" y="0px"
	 width="453.543px" height="453.543px" viewBox="0 0 453.543 453.543" enable-background="new 0 0 453.543 453.543"
	 xml:space="preserve">
<g id="kvadrat">
</g>
<g id="bg" display="none">
	<rect x="-6445.558" y="-12480.53" display="inline" width="15266.867" height="13678.951"/>
</g>
<g id="barvno" display="none">
	<g id="rde훾a7bela" display="inline">
	</g>
	<g display="inline">
		<g>
			<path fill="none" stroke="#000000" stroke-width="8" stroke-linecap="round" stroke-linejoin="round" stroke-miterlimit="10" d="
				M169.771,102.141c18.195,5.107,56.146,18.898,56.146,63.783"/>
			<path fill="none" stroke="#000000" stroke-width="8" stroke-linecap="round" stroke-linejoin="round" stroke-miterlimit="10" d="
				M282.064,102.141c-18.169,5.201-56.146,18.898-56.146,63.783"/>
			<path fill="#E84E1B" stroke="#000000" stroke-width="8" stroke-linejoin="round" stroke-miterlimit="10" d="M223.028,200.732
				c0-36.271-29.402-65.676-65.675-65.676s-65.676,29.404-65.676,65.676s29.403,65.674,65.676,65.674c1.198,0,2.387-0.035,3.569-0.1
				c-13.524,6.991-22.775,21.096-22.775,37.369c0,23.227,18.826,42.051,42.051,42.051s42.051-18.824,42.051-42.051
				C222.249,281.006,223.028,228.342,223.028,200.732z"/>
			<path fill="#E84E1B" stroke="#000000" stroke-width="8" stroke-linejoin="round" stroke-miterlimit="10" d="M361.863,200.732
				c0-36.271-29.402-65.676-65.675-65.676c-36.271,0-65.675,29.404-65.675,65.676c0,27.609,0.78,80.273,0.78,102.943
				c0,23.227,18.826,42.051,42.05,42.051c23.226,0,42.052-18.824,42.052-42.051c0-16.273-9.251-30.378-22.775-37.369
				c1.182,0.064,2.371,0.1,3.568,0.1C332.461,266.406,361.863,237.004,361.863,200.732z"/>
			
				<path fill="#7E4E24" stroke="#000000" stroke-width="8" stroke-linecap="round" stroke-linejoin="round" stroke-miterlimit="10" d="
				M227.904,351.399c11.783,0,13.407-41.951,13.407-41.951s0-110.755,0-120.532c0-12.125-0.073-35.09-13.907-35.09
				c-13.833,0-13.907,22.965-13.907,35.09c0,9.777,0,120.532,0,120.532S216.122,351.399,227.904,351.399z"/>
			
				<circle fill="#FFCF00" stroke="#000000" stroke-width="8" stroke-linecap="round" stroke-linejoin="round" stroke-miterlimit="10" cx="157.354" cy="200.732" r="21.734"/>
			
				<circle fill="#57B2E5" stroke="#000000" stroke-width="8" stroke-linecap="round" stroke-linejoin="round" stroke-miterlimit="10" cx="180.198" cy="303.677" r="12.757"/>
			
				<circle fill="#FFCF00" stroke="#000000" stroke-width="8" stroke-linecap="round" stroke-linejoin="round" stroke-miterlimit="10" cx="296.188" cy="200.732" r="21.734"/>
			
				<circle fill="#57B2E5" stroke="#000000" stroke-width="8" stroke-linecap="round" stroke-linejoin="round" stroke-miterlimit="10" cx="273.344" cy="303.677" r="12.757"/>
		</g>
	</g>
	
		<rect x="-6955.843" y="-12900.539" display="inline" fill="none" stroke="#000000" stroke-miterlimit="10" width="16736" height="13952"/>
</g>
<g id="barvno_copy_2">
	<g id="rde훾a7bela_copy_4">
	</g>
	<g>
		<g>
			<path fill="#00FFFF" d="M225.918,169.924c-2.209,0-4-1.791-4-4c0-29.854-17.908-50.018-53.228-59.932
				c-2.127-0.598-3.367-2.806-2.77-4.933c0.597-2.128,2.803-3.371,4.932-2.771c15.143,4.251,27.036,10.054,36.36,17.74
				c15.066,12.421,22.706,29.208,22.706,49.895C229.918,168.133,228.127,169.924,225.918,169.924z"/>
			<path fill="#00FFFF" d="M225.918,169.924c-2.209,0-4-1.791-4-4c0-33.659,19.866-56.413,59.045-67.629
				c2.128-0.607,4.339,0.622,4.947,2.745c0.608,2.124-0.621,4.338-2.745,4.946c-35.83,10.257-53.248,29.862-53.248,59.938
				C229.918,168.133,228.127,169.924,225.918,169.924z"/>
			<g>
				<g>
					<path fill="#FFFF00" d="M223.027,200.732c0-36.271-29.402-65.676-65.675-65.676c-36.273,0-65.675,29.404-65.675,65.676
						s29.402,65.674,65.675,65.674c1.198,0,2.387-0.035,3.569-0.1c-13.524,6.991-22.775,21.096-22.775,37.369
						c0,23.227,18.826,42.051,42.051,42.051s42.05-18.824,42.05-42.051C222.248,281.006,223.027,228.342,223.027,200.732z"/>
					<path d="M180.197,349.727c-25.393,0-46.051-20.658-46.051-46.051c0-13.057,5.449-25.195,14.742-33.781
						c-34.441-4.19-61.21-33.609-61.21-69.162c0-38.419,31.256-69.676,69.675-69.676s69.675,31.257,69.675,69.676
						c0,14.505-0.213,35.718-0.419,56.232c-0.186,18.489-0.361,35.954-0.361,46.711
						C226.248,329.068,205.589,349.727,180.197,349.727z M160.924,262.307c1.794,0,3.381,1.201,3.857,2.949
						c0.496,1.819-0.347,3.738-2.022,4.604c-12.714,6.572-20.612,19.529-20.612,33.815c0,20.981,17.069,38.051,38.051,38.051
						c20.981,0,38.05-17.069,38.05-38.051c0-10.797,0.175-28.281,0.361-46.792c0.206-20.494,0.418-41.688,0.418-56.151
						c0-34.008-27.667-61.676-61.675-61.676s-61.675,27.668-61.675,61.676c0,34.007,27.667,61.674,61.675,61.674
						c1.083,0,2.211-0.031,3.352-0.094C160.777,262.309,160.851,262.307,160.924,262.307z"/>
				</g>
				<g>
					<path fill="#FFFF00" d="M361.862,200.732c0-36.271-29.402-65.676-65.675-65.676c-36.271,0-65.675,29.404-65.675,65.676
						c0,27.609,0.78,80.273,0.78,102.943c0,23.227,18.826,42.051,42.051,42.051s42.051-18.824,42.051-42.051
						c0-16.273-9.251-30.378-22.775-37.369c1.182,0.064,2.371,0.1,3.568,0.1C332.46,266.406,361.862,237.004,361.862,200.732z"/>
					<path d="M273.344,349.727c-25.393,0-46.051-20.658-46.051-46.051c0-10.757-0.175-28.222-0.361-46.711
						c-0.206-20.515-0.419-41.728-0.419-56.232c0-38.419,31.256-69.676,69.675-69.676s69.675,31.257,69.675,69.676
						c0,35.553-26.769,64.972-61.209,69.162c9.292,8.586,14.742,20.725,14.742,33.781
						C319.395,329.068,298.736,349.727,273.344,349.727z M296.188,139.057c-34.008,0-61.675,27.668-61.675,61.676
						c0,14.464,0.213,35.657,0.419,56.151c0.186,18.511,0.361,35.995,0.361,46.792c0,20.981,17.069,38.051,38.051,38.051
						s38.051-17.069,38.051-38.051c0-14.286-7.898-27.243-20.612-33.815c-1.675-0.866-2.518-2.785-2.022-4.604
						s2.211-3.043,4.077-2.943c1.14,0.063,2.267,0.094,3.351,0.094c34.008,0,61.675-27.667,61.675-61.674
						C357.862,166.725,330.195,139.057,296.188,139.057z"/>
				</g>
				<g>
					<path fill="#0000FF" d="M227.903,351.399c12.687,0,13.407-20.951,13.407-20.951s0-131.755,0-141.532
						c0-12.125-0.073-35.09-13.907-35.09c-13.833,0-13.907,22.965-13.907,35.09c0,9.777,0,141.532,0,141.532
						S215.217,351.399,227.903,351.399z"/>
					<path d="M227.903,355.399c-12.923,0-17.643-15.479-18.394-24.624c-0.009-0.108-0.014-0.218-0.014-0.327V188.916
						c0-12.688,0-39.09,17.907-39.09s17.907,26.401,17.907,39.09v141.532c0,0.046-0.001,0.092-0.002,0.138
						C244.991,339.802,240.969,355.399,227.903,355.399z M217.496,330.25c0.174,1.591,2.105,17.149,10.407,17.149
						c8.353,0,9.354-16.025,9.407-17.04V188.916c0-10.092,0-31.09-9.907-31.09s-9.907,20.998-9.907,31.09V330.25z"/>
				</g>
				<g>
					<circle fill="#FF00FF" cx="157.353" cy="200.732" r="21.734"/>
					<path d="M157.353,226.467c-14.19,0-25.734-11.544-25.734-25.734s11.544-25.734,25.734-25.734s25.734,11.544,25.734,25.734
						S171.542,226.467,157.353,226.467z M157.353,182.998c-9.779,0-17.734,7.956-17.734,17.734s7.956,17.734,17.734,17.734
						s17.734-7.956,17.734-17.734S167.131,182.998,157.353,182.998z"/>
				</g>
				<g>
					<circle fill="#FF0000" cx="180.197" cy="303.677" r="12.757"/>
					<path d="M180.197,320.435c-9.24,0-16.758-7.518-16.758-16.758c0-9.239,7.518-16.757,16.758-16.757
						c9.24,0,16.757,7.518,16.757,16.757C196.954,312.917,189.437,320.435,180.197,320.435z M180.197,294.92
						c-4.829,0-8.758,3.929-8.758,8.757c0,4.829,3.929,8.758,8.758,8.758c4.829,0,8.757-3.929,8.757-8.758
						C188.954,298.849,185.026,294.92,180.197,294.92z"/>
				</g>
				<g>
					<circle fill="#FF00FF" cx="296.188" cy="200.732" r="21.734"/>
					<path d="M296.188,226.467c-14.19,0-25.734-11.544-25.734-25.734s11.544-25.734,25.734-25.734s25.734,11.544,25.734,25.734
						S310.377,226.467,296.188,226.467z M296.188,182.998c-9.779,0-17.734,7.956-17.734,17.734s7.956,17.734,17.734,17.734
						s17.734-7.956,17.734-17.734S305.966,182.998,296.188,182.998z"/>
				</g>
				<g>
					<circle fill="#FF0000" cx="273.343" cy="303.677" r="12.757"/>
					<path d="M273.344,320.435c-9.24,0-16.758-7.518-16.758-16.758c0-9.239,7.518-16.757,16.758-16.757
						c9.24,0,16.757,7.518,16.757,16.757C290.101,312.917,282.583,320.435,273.344,320.435z M273.344,294.92
						c-4.829,0-8.758,3.929-8.758,8.757c0,4.829,3.929,8.758,8.758,8.758c4.829,0,8.757-3.929,8.757-8.758
						C282.101,298.849,278.172,294.92,273.344,294.92z"/>
				</g>
			</g>
		</g>
	</g>
	<rect x="-6955.843" y="-12900.539" fill="none" stroke="#000000" stroke-miterlimit="10" width="16736" height="13952"/>
</g>
<g id="sivinsko" display="none">
	<g id="rde훾a7bela_copy_3" display="inline">
	</g>
	<g display="inline">
		<g>
			<path d="M225.918,169.924c-2.209,0-4-1.791-4-4c0-29.854-17.908-50.018-53.228-59.932c-2.127-0.598-3.367-2.806-2.77-4.933
				c0.597-2.128,2.803-3.371,4.932-2.771c15.143,4.251,27.036,10.054,36.36,17.74c15.066,12.421,22.706,29.208,22.706,49.895
				C229.918,168.133,228.127,169.924,225.918,169.924z"/>
			<path d="M225.918,169.924c-2.209,0-4-1.791-4-4c0-33.659,19.866-56.413,59.045-67.629c2.128-0.607,4.339,0.622,4.947,2.745
				c0.608,2.124-0.621,4.339-2.745,4.946c-35.83,10.257-53.248,29.862-53.248,59.938
				C229.918,168.133,228.127,169.924,225.918,169.924z"/>
			<g>
				<path fill="#777777" d="M223.028,200.732c0-36.271-29.402-65.676-65.675-65.676s-65.676,29.404-65.676,65.676
					s29.403,65.674,65.676,65.674c1.198,0,2.387-0.035,3.569-0.1c-13.524,6.991-22.775,21.096-22.775,37.369
					c0,23.227,18.826,42.051,42.051,42.051s42.051-18.824,42.051-42.051C222.249,281.006,223.028,228.342,223.028,200.732z"/>
				<path d="M180.198,349.727c-25.393,0-46.051-20.658-46.051-46.051c0-13.057,5.449-25.195,14.742-33.781
					c-34.441-4.19-61.211-33.609-61.211-69.162c0-38.419,31.256-69.676,69.676-69.676c38.419,0,69.675,31.257,69.675,69.676
					c0,14.505-0.213,35.718-0.418,56.232c-0.186,18.489-0.361,35.955-0.361,46.711C226.249,329.068,205.591,349.727,180.198,349.727
					z M160.925,262.307c1.794,0,3.381,1.201,3.857,2.949c0.496,1.819-0.347,3.738-2.022,4.604
					c-12.714,6.572-20.612,19.529-20.612,33.815c0,20.981,17.069,38.051,38.051,38.051s38.051-17.069,38.051-38.051
					c0-10.797,0.175-28.281,0.361-46.792c0.206-20.494,0.418-41.687,0.418-56.151c0-34.008-27.667-61.676-61.675-61.676
					c-34.008,0-61.676,27.668-61.676,61.676c0,34.007,27.667,61.674,61.676,61.674c1.083,0,2.211-0.031,3.352-0.094
					C160.779,262.309,160.852,262.307,160.925,262.307z"/>
			</g>
			<g>
				<path fill="#777777" d="M361.863,200.732c0-36.271-29.402-65.676-65.675-65.676c-36.271,0-65.675,29.404-65.675,65.676
					c0,27.609,0.78,80.273,0.78,102.943c0,23.227,18.826,42.051,42.05,42.051c23.226,0,42.052-18.824,42.052-42.051
					c0-16.273-9.251-30.378-22.775-37.369c1.182,0.064,2.371,0.1,3.568,0.1C332.461,266.406,361.863,237.004,361.863,200.732z"/>
				<path d="M273.344,349.727c-25.392,0-46.05-20.658-46.05-46.051c0-10.756-0.175-28.222-0.361-46.711
					c-0.206-20.515-0.419-41.728-0.419-56.232c0-38.419,31.256-69.676,69.675-69.676s69.675,31.257,69.675,69.676
					c0,35.553-26.769,64.972-61.209,69.162c9.292,8.586,14.742,20.725,14.742,33.781
					C319.396,329.068,298.737,349.727,273.344,349.727z M296.188,139.057c-34.008,0-61.675,27.668-61.675,61.676
					c0,14.464,0.213,35.657,0.419,56.151c0.186,18.511,0.361,35.995,0.361,46.792c0,20.981,17.069,38.051,38.05,38.051
					c20.982,0,38.052-17.069,38.052-38.051c0-14.286-7.898-27.243-20.612-33.815c-1.675-0.866-2.518-2.785-2.022-4.604
					s2.21-3.043,4.077-2.943c1.14,0.063,2.267,0.094,3.351,0.094c34.008,0,61.675-27.667,61.675-61.674
					C357.863,166.725,330.196,139.057,296.188,139.057z"/>
			</g>
			<g>
				<path fill="#585858" d="M227.904,351.399c11.783,0,13.407-41.951,13.407-41.951s0-110.755,0-120.532
					c0-12.125-0.073-35.09-13.907-35.09c-13.833,0-13.907,22.965-13.907,35.09c0,9.777,0,120.532,0,120.532
					S216.122,351.399,227.904,351.399z"/>
				<path d="M227.904,355.399c-9.531,0-13.435-13.8-15.542-24.18c-2.159-10.636-2.83-21.082-2.857-21.521
					c-0.005-0.083-0.008-0.167-0.008-0.25V188.916c0-12.688,0-39.09,17.907-39.09s17.907,26.401,17.907,39.09v120.532
					c0,0.052-0.001,0.104-0.003,0.154c-0.017,0.44-0.439,10.888-2.345,21.526C240.038,347.461,235.112,355.399,227.904,355.399z
					 M217.497,309.315c0.08,1.175,0.781,10.864,2.719,20.381c2.957,14.522,6.552,17.703,7.688,17.703
					c1.114,0,4.575-3.164,7.173-17.613c1.735-9.651,2.194-19.482,2.234-20.421V188.916c0-10.092,0-31.09-9.907-31.09
					s-9.907,20.998-9.907,31.09V309.315z"/>
			</g>
			<g>
				<circle fill="#C7C7C7" cx="157.354" cy="200.732" r="21.734"/>
				<path d="M157.354,226.467c-14.19,0-25.734-11.544-25.734-25.734s11.544-25.734,25.734-25.734s25.734,11.544,25.734,25.734
					S171.543,226.467,157.354,226.467z M157.354,182.998c-9.779,0-17.734,7.956-17.734,17.734s7.956,17.734,17.734,17.734
					s17.734-7.956,17.734-17.734S167.132,182.998,157.354,182.998z"/>
			</g>
			<g>
				<circle fill="#9C9C9C" cx="180.198" cy="303.677" r="12.757"/>
				<path d="M180.198,320.435c-9.24,0-16.758-7.518-16.758-16.758c0-9.239,7.518-16.757,16.758-16.757
					c9.24,0,16.757,7.518,16.757,16.757C196.955,312.917,189.438,320.435,180.198,320.435z M180.198,294.92
					c-4.829,0-8.758,3.929-8.758,8.757c0,4.829,3.929,8.758,8.758,8.758c4.829,0,8.757-3.929,8.757-8.758
					C188.955,298.849,185.027,294.92,180.198,294.92z"/>
			</g>
			<g>
				<circle fill="#C7C7C7" cx="296.188" cy="200.732" r="21.734"/>
				<path d="M296.188,226.467c-14.19,0-25.734-11.544-25.734-25.734s11.544-25.734,25.734-25.734s25.734,11.544,25.734,25.734
					S310.378,226.467,296.188,226.467z M296.188,182.998c-9.779,0-17.734,7.956-17.734,17.734s7.956,17.734,17.734,17.734
					s17.734-7.956,17.734-17.734S305.967,182.998,296.188,182.998z"/>
			</g>
			<g>
				<circle fill="#9C9C9C" cx="273.344" cy="303.677" r="12.757"/>
				<path d="M273.344,320.435c-9.24,0-16.757-7.518-16.757-16.758c0-9.239,7.517-16.757,16.757-16.757
					c9.24,0,16.758,7.518,16.758,16.757C290.102,312.917,282.584,320.435,273.344,320.435z M273.344,294.92
					c-4.829,0-8.757,3.929-8.757,8.757c0,4.829,3.928,8.758,8.757,8.758c4.829,0,8.758-3.929,8.758-8.758
					C282.102,298.849,278.173,294.92,273.344,294.92z"/>
			</g>
		</g>
	</g>
	<path display="inline" d="M9780.656,1051.961h-16737v-13953h16737V1051.961z M-6955.843,1050.961h16736l-0.5-13951h-16735.5
		l0.5,13951H-6955.843z"/>
</g>
<g id="linijsko" display="none">
	<g id="rde훾a7bela_copy" display="inline">
	</g>
</g>
<g id="pivot">
	<circle fill="none" cx="227.728" cy="349.479" r="14.133"/>
</g>
</svg>
