<?xml version="1.0" encoding="utf-8"?>
<!-- Generator: Adobe Illustrator 16.0.0, SVG Export Plug-In . SVG Version: 6.00 Build 0)  -->
<!DOCTYPE svg PUBLIC "-//W3C//DTD SVG 1.1//EN" "http://www.w3.org/Graphics/SVG/1.1/DTD/svg11.dtd">
<svg version="1.1" xmlns="http://www.w3.org/2000/svg" xmlns:xlink="http://www.w3.org/1999/xlink" x="0px" y="0px"
	 width="453.543px" height="453.543px" viewBox="0 0 453.543 453.543" enable-background="new 0 0 453.543 453.543"
	 xml:space="preserve">
<g id="kvadrat">
</g>
<g id="bg" display="none">
	<rect x="-322.723" y="-11970.294" display="inline" width="15266.867" height="13678.951"/>
</g>
<g id="barvno" display="none">
	<g id="rde훾a7bela" display="inline">
	</g>
	<g display="inline">
		
			<path fill="#57B2E5" stroke="#000000" stroke-width="8" stroke-linecap="round" stroke-linejoin="round" stroke-miterlimit="10" d="
			M374.514,227.876c0-28.977-49.297-79.632-95.584-79.632c-64.568,0-127.899,44.792-151.731,61.649
			c-0.977,0.688-1.863,1.333-2.695,1.905c-6.051-5.566-17.102-14.959-23.249-18.044c-3.449-1.722-6.729-2.598-9.733-2.598
			c-8.119,0-12.493,6.219-12.493,12.063v59.983c0,5.844,4.374,12.064,12.493,12.064c3.004,0,6.285-0.877,9.733-2.607
			c6.187-3.091,17.348-12.596,23.369-18.154c15.694,9.669,83.393,48.669,154.306,48.669
			C331.852,303.176,374.514,256.854,374.514,227.876z"/>
		<path fill="none" stroke="#000000" stroke-width="8" stroke-linecap="round" stroke-linejoin="round" stroke-miterlimit="10" d="
			M298.27,183.23c0,0-40.032,46.987,0,89.956"/>
		<path d="M338.836,218.281c0,5.481-4.446,9.931-9.932,9.931c-5.484,0-9.931-4.449-9.931-9.931c0-5.484,4.446-9.931,9.931-9.931
			C334.39,208.351,338.836,212.797,338.836,218.281z"/>
	</g>
	
		<rect x="-833.008" y="-12390.303" display="inline" fill="none" stroke="#000000" stroke-miterlimit="10" width="16736" height="13952"/>
</g>
<g id="barvno_copy_2">
	<g id="rde훾a7bela_copy_4">
	</g>
	<g>
		<g>
			<path fill="#00FFFF" d="M374.514,227.876c0-28.977-49.297-79.632-95.584-79.632c-64.568,0-127.899,44.792-151.731,61.649
				c-0.977,0.688-1.863,1.333-2.695,1.905c-6.051-5.566-17.102-14.959-23.249-18.044c-3.449-1.722-6.729-2.598-9.733-2.598
				c-8.119,0-12.493,6.219-12.493,12.063v59.983c0,5.844,4.374,12.064,12.493,12.064c3.004,0,6.285-0.877,9.733-2.607
				c6.187-3.091,17.348-12.596,23.369-18.154c15.694,9.669,83.393,48.669,154.306,48.669
				C331.852,303.176,374.514,256.854,374.514,227.876z"/>
			<path d="M278.93,307.176c-67.989,0-132.11-34.647-153.83-47.697c-6.23,5.579-16.066,13.768-22.058,16.761
				c-4.004,2.009-7.882,3.029-11.521,3.029c-10.712,0-16.493-8.276-16.493-16.064v-59.983c0-7.787,5.781-16.063,16.493-16.063
				c3.631,0,7.507,1.016,11.52,3.019c6.583,3.304,16.991,12.254,21.768,16.509l0.085-0.061
				c24.116-17.058,88.189-62.38,154.036-62.38c21.92,0,46.641,10.926,67.824,29.976c19.59,17.616,31.76,38.177,31.76,53.656
				C378.514,259.191,333.9,307.176,278.93,307.176z M124.625,250.507c0.723,0,1.45,0.195,2.097,0.595
				c13.03,8.027,81.609,48.074,152.208,48.074c49.671,0,91.584-43.795,91.584-71.3c0-26.449-47.076-75.632-91.584-75.632
				c-63.303,0-125.868,44.255-149.421,60.915l-1.055,0.749c-0.589,0.42-1.147,0.817-1.684,1.187
				c-1.538,1.056-3.602,0.912-4.975-0.353c-7.147-6.574-17.185-14.827-22.335-17.412c-2.886-1.44-5.559-2.173-7.939-2.173
				c-6.231,0-8.493,4.822-8.493,8.063v59.983c0,3.241,2.262,8.064,8.493,8.064c2.382,0,5.053-0.734,7.939-2.183
				c5.203-2.6,15.283-10.902,22.45-17.519C122.669,250.867,123.643,250.507,124.625,250.507z"/>
		</g>
		<path d="M298.271,277.187c-1.071,0-2.14-0.428-2.928-1.273c-21.961-23.572-20.782-48.325-15.925-64.94
			c5.185-17.734,15.375-29.83,15.807-30.336c1.433-1.682,3.958-1.883,5.639-0.451c1.681,1.432,1.883,3.955,0.453,5.637
			c-0.145,0.171-9.645,11.528-14.293,27.647c-6.104,21.17-1.335,40.344,14.173,56.99c1.506,1.616,1.417,4.147-0.2,5.653
			C300.226,276.831,299.247,277.187,298.271,277.187z"/>
		<path d="M338.836,218.281c0,5.481-4.446,9.931-9.932,9.931c-5.484,0-9.931-4.449-9.931-9.931c0-5.484,4.446-9.931,9.931-9.931
			C334.39,208.351,338.836,212.797,338.836,218.281z"/>
	</g>
	<rect x="-833.008" y="-12390.303" fill="none" stroke="#000000" stroke-miterlimit="10" width="16736" height="13952"/>
</g>
<g id="sivinsko" display="none">
	<g id="rde훾a7bela_copy_3" display="inline">
	</g>
	<g display="inline">
		<g>
			<path fill="#9C9C9C" d="M374.514,227.876c0-28.977-49.297-79.632-95.584-79.632c-64.568,0-127.899,44.792-151.731,61.649
				c-0.977,0.688-1.863,1.333-2.695,1.905c-6.051-5.566-17.102-14.959-23.249-18.044c-3.449-1.722-6.729-2.598-9.733-2.598
				c-8.119,0-12.493,6.219-12.493,12.063v59.983c0,5.844,4.374,12.064,12.493,12.064c3.004,0,6.285-0.877,9.733-2.607
				c6.187-3.091,17.348-12.596,23.369-18.154c15.694,9.669,83.393,48.669,154.306,48.669
				C331.852,303.176,374.514,256.854,374.514,227.876z"/>
			<path d="M278.93,307.176c-67.989,0-132.11-34.647-153.83-47.697c-6.231,5.579-16.067,13.768-22.058,16.762
				c-4.004,2.008-7.882,3.028-11.521,3.028c-10.712,0-16.493-8.276-16.493-16.064v-59.983c0-7.787,5.781-16.063,16.493-16.063
				c3.631,0,7.507,1.016,11.52,3.019c6.583,3.304,16.991,12.254,21.768,16.509l0.085-0.061
				c24.116-17.058,88.189-62.38,154.036-62.38c21.92,0,46.641,10.926,67.824,29.976c19.59,17.616,31.76,38.177,31.76,53.656
				C378.514,259.191,333.9,307.176,278.93,307.176z M124.625,250.507c0.722,0,1.449,0.195,2.097,0.595
				c13.03,8.027,81.609,48.074,152.208,48.074c49.671,0,91.584-43.795,91.584-71.3c0-26.449-47.076-75.632-91.584-75.632
				c-63.303,0-125.868,44.255-149.421,60.915l-1.055,0.749c-0.589,0.42-1.147,0.817-1.684,1.187
				c-1.538,1.056-3.602,0.912-4.975-0.353c-7.147-6.574-17.185-14.827-22.335-17.412c-2.886-1.44-5.559-2.173-7.939-2.173
				c-6.231,0-8.493,4.822-8.493,8.063v59.983c0,3.241,2.262,8.064,8.493,8.064c2.382,0,5.053-0.734,7.939-2.183
				c5.203-2.6,15.283-10.902,22.449-17.519C122.669,250.867,123.643,250.507,124.625,250.507z"/>
		</g>
		<path d="M298.271,277.187c-1.071,0-2.14-0.428-2.928-1.273c-21.961-23.572-20.782-48.325-15.925-64.94
			c5.185-17.734,15.375-29.83,15.807-30.336c1.433-1.682,3.958-1.883,5.639-0.451c1.681,1.432,1.883,3.955,0.453,5.637
			c-0.145,0.171-9.645,11.528-14.293,27.647c-6.104,21.17-1.335,40.344,14.173,56.99c1.506,1.616,1.417,4.147-0.2,5.653
			C300.226,276.831,299.247,277.187,298.271,277.187z"/>
		<path d="M338.836,218.281c0,5.481-4.446,9.931-9.932,9.931c-5.484,0-9.931-4.449-9.931-9.931c0-5.484,4.446-9.931,9.931-9.931
			C334.39,208.351,338.836,212.797,338.836,218.281z"/>
	</g>
	<path display="inline" d="M15903.492,1562.197h-16737v-13953h16737V1562.197z M-833.008,1561.197h16736l-0.5-13951h-16735.5
		l0.5,13951H-833.008z"/>
</g>
<g id="linijsko" display="none">
	<g id="rde훾a7bela_copy" display="inline">
	</g>
	<g display="inline">
		<path fill="none" stroke="#000000" stroke-width="8" stroke-linecap="round" stroke-linejoin="round" stroke-miterlimit="10" d="
			M374.514,227.876c0-28.977-49.297-79.632-95.584-79.632c-64.568,0-127.899,44.792-151.731,61.649
			c-0.977,0.688-1.863,1.333-2.695,1.905c-6.051-5.566-17.102-14.959-23.249-18.044c-3.449-1.722-6.729-2.598-9.733-2.598
			c-8.119,0-12.493,6.219-12.493,12.063v59.983c0,5.844,4.374,12.064,12.493,12.064c3.004,0,6.285-0.877,9.733-2.607
			c6.187-3.091,17.348-12.596,23.369-18.154c15.694,9.669,83.393,48.669,154.306,48.669
			C331.852,303.176,374.514,256.854,374.514,227.876z"/>
		<path fill="none" stroke="#000000" stroke-width="8" stroke-linecap="round" stroke-linejoin="round" stroke-miterlimit="10" d="
			M298.27,183.23c0,0-40.032,46.987,0,89.956"/>
		<path d="M338.836,218.281c0,5.481-4.446,9.931-9.932,9.931c-5.484,0-9.931-4.449-9.931-9.931c0-5.484,4.446-9.931,9.931-9.931
			C334.39,208.351,338.836,212.797,338.836,218.281z"/>
	</g>
</g>
<g id="pivot">
	<circle fill="none" cx="229.593" cy="315.661" r="14.133"/>
</g>
</svg>
