<?xml version="1.0" encoding="utf-8"?>
<!-- Generator: Adobe Illustrator 16.0.0, SVG Export Plug-In . SVG Version: 6.00 Build 0)  -->
<!DOCTYPE svg PUBLIC "-//W3C//DTD SVG 1.1//EN" "http://www.w3.org/Graphics/SVG/1.1/DTD/svg11.dtd">
<svg version="1.1" xmlns="http://www.w3.org/2000/svg" xmlns:xlink="http://www.w3.org/1999/xlink" x="0px" y="0px"
	 width="453.543px" height="453.542px" viewBox="0 0 453.543 453.542" enable-background="new 0 0 453.543 453.542"
	 xml:space="preserve">
<g id="kvadrat">
</g>
<g id="bg" display="none">
	<rect x="-2363.667" y="-1255.332" display="inline" width="15266.867" height="13678.951"/>
</g>
<g id="barvno" display="none">
	<g display="inline">
		
			<path fill="#EE7D00" stroke="#000000" stroke-width="8" stroke-linecap="round" stroke-linejoin="round" stroke-miterlimit="10" d="
			M344.126,179.406c13.076-13.069,12.844-42.841-2.736-58.757c-15.988-16.333-47.68-18.477-61.102-5.063
			c-5.018,5.018-9.457,10.445-13.23,16.159c-12.379-2.57-25.916-3.882-40.286-3.916c-14.369,0.034-27.907,1.346-40.284,3.916
			c-3.777-5.714-8.214-11.142-13.232-16.159c-13.421-13.414-45.111-11.271-61.101,5.063c-15.58,15.916-15.812,45.688-2.737,58.757
			c1.225,1.231,2.488,2.428,3.817,3.63c-5.598,12.051-8.435,25.881-8.435,41.179c0,5.719,1.165,16.876,1.165,16.876l1.462,8.417
			l3.872,14.118l3.101,8.134c18.534,43.863,61.9,74.752,112.372,74.982c50.473-0.23,93.838-31.12,112.372-74.982l3.102-8.134
			l3.871-14.118l1.463-8.417c0,0,1.164-11.157,1.164-16.876c0-15.298-2.836-29.128-8.434-41.179
			C341.64,181.834,342.901,180.637,344.126,179.406z"/>
		<path stroke="#000000" stroke-width="4" stroke-linecap="round" stroke-linejoin="round" stroke-miterlimit="10" d="
			M233.706,288.507c3.766-0.94,7.346-3.146,10.258-6.648c7.945-9.564,1.445-17.395-14.453-17.395
			c-15.898,0-22.405,7.831-14.453,17.395c2.905,3.502,6.492,5.708,10.256,6.648H233.706z"/>
		<path fill="none" stroke="#000000" stroke-width="8" stroke-linecap="round" stroke-linejoin="round" stroke-miterlimit="10" d="
			M178.587,288.501c21.137,29.01,46.822,19.859,50.82,9.877"/>
		<path fill="none" stroke="#000000" stroke-width="8" stroke-linecap="round" stroke-linejoin="round" stroke-miterlimit="10" d="
			M280.231,288.501c-21.136,29.01-46.822,19.859-50.82,9.877V287.08"/>
		<path stroke="#000000" stroke-width="8" stroke-linecap="round" stroke-linejoin="round" stroke-miterlimit="10" d="
			M196.736,132.483c0.057,7.552,3.547,16.811,9.732,26.072c6.085-8.677,11.384-18.947,11.327-27.049
			C217.789,130.398,196.719,129.757,196.736,132.483z"/>
		<path stroke="#000000" stroke-width="8" stroke-linecap="round" stroke-linejoin="round" stroke-miterlimit="10" d="
			M235.024,131.703c0.057,7.552,3.545,16.811,9.729,26.073c6.084-8.678,11.385-18.949,11.328-27.05
			C256.073,129.617,235.005,128.976,235.024,131.703z"/>
		<g>
			<path stroke="#000000" stroke-width="8.9378" stroke-linecap="round" stroke-linejoin="round" stroke-miterlimit="10" d="
				M110.948,229.909c9.418,0.282,21.158-2.789,33.054-8.552c-10.479-6.465-22.989-12.223-33.095-12.527
				C109.526,208.786,107.544,229.803,110.948,229.909z"/>
		</g>
		<g>
			<path stroke="#000000" stroke-width="8.9378" stroke-linecap="round" stroke-linejoin="round" stroke-miterlimit="10" d="
				M115.308,265.469c9.105-1.951,19.196-7.657,28.446-15.971c-12.392-3.707-26.462-6.257-36.232-4.165
				C106.186,245.617,112.017,266.171,115.308,265.469z"/>
		</g>
		<g>
			<path stroke="#000000" stroke-width="8.9378" stroke-linecap="round" stroke-linejoin="round" stroke-miterlimit="10" d="
				M133.083,297.719c8.25-3.216,16.356-10.285,22.886-19.82c-13.087-1.921-27.462-2.461-36.314,0.988
				C118.444,279.359,130.101,298.879,133.083,297.719z"/>
		</g>
		<g>
			<path stroke="#000000" stroke-width="8.9378" stroke-linecap="round" stroke-linejoin="round" stroke-miterlimit="10" d="
				M342.347,229.909c-9.418,0.282-21.158-2.789-33.055-8.552c10.48-6.465,22.989-12.223,33.095-12.527
				C343.769,208.786,345.75,229.803,342.347,229.909z"/>
		</g>
		<g>
			<path stroke="#000000" stroke-width="8.9378" stroke-linecap="round" stroke-linejoin="round" stroke-miterlimit="10" d="
				M337.986,265.469c-9.105-1.951-19.195-7.657-28.445-15.971c12.392-3.707,26.462-6.257,36.232-4.165
				C347.109,245.617,341.277,266.171,337.986,265.469z"/>
		</g>
		<g>
			<path stroke="#000000" stroke-width="8.9378" stroke-linecap="round" stroke-linejoin="round" stroke-miterlimit="10" d="
				M320.211,297.719c-8.25-3.216-16.356-10.285-22.886-19.82c13.087-1.921,27.462-2.461,36.314,0.988
				C334.85,279.359,323.194,298.879,320.211,297.719z"/>
		</g>
		<g>
			
				<circle fill="#FFFFFF" stroke="#000000" stroke-width="6" stroke-linecap="round" stroke-linejoin="round" stroke-miterlimit="10" cx="199.154" cy="210.956" r="13.382"/>
			<circle cx="204.582" cy="216.629" r="7.76"/>
		</g>
		<g>
			
				<circle fill="#FFFFFF" stroke="#000000" stroke-width="6" stroke-linecap="round" stroke-linejoin="round" stroke-miterlimit="10" cx="261.273" cy="210.956" r="13.382"/>
			<circle cx="266.702" cy="216.629" r="7.76"/>
		</g>
	</g>
	<g id="rde훾a7bela" display="inline">
	</g>
	
		<rect x="-2873.953" y="-1675.34" display="inline" fill="none" stroke="#000000" stroke-miterlimit="10" width="16736" height="13952"/>
</g>
<g id="barvno_copy_2">
	<g>
		
			<path fill="#FFFF00" stroke="#000000" stroke-width="8" stroke-linecap="round" stroke-linejoin="round" stroke-miterlimit="10" d="
			M344.126,179.406c13.076-13.069,12.844-42.841-2.736-58.757c-15.988-16.333-47.68-18.477-61.102-5.063
			c-5.018,5.018-9.457,10.445-13.23,16.159c-12.379-2.57-25.916-3.882-40.286-3.916c-14.369,0.034-27.907,1.346-40.284,3.916
			c-3.777-5.714-8.214-11.142-13.232-16.159c-13.421-13.414-45.111-11.271-61.101,5.063c-15.58,15.916-15.812,45.688-2.737,58.757
			c1.225,1.231,2.488,2.428,3.817,3.63c-5.598,12.051-8.435,25.881-8.435,41.179c0,5.719,1.165,16.876,1.165,16.876l1.462,8.417
			l3.872,14.118l3.101,8.134c18.534,43.863,61.9,74.752,112.372,74.982c50.473-0.23,93.838-31.12,112.372-74.982l3.102-8.134
			l3.871-14.118l1.463-8.417c0,0,1.164-11.157,1.164-16.876c0-15.298-2.836-29.128-8.434-41.179
			C341.64,181.834,342.901,180.637,344.126,179.406z"/>
		<path stroke="#000000" stroke-width="4" stroke-linecap="round" stroke-linejoin="round" stroke-miterlimit="10" d="
			M233.706,288.507c3.766-0.94,7.346-3.146,10.258-6.648c7.945-9.564,1.445-17.395-14.453-17.395
			c-15.898,0-22.405,7.831-14.453,17.395c2.905,3.502,6.492,5.708,10.256,6.648H233.706z"/>
		<path fill="none" stroke="#000000" stroke-width="8" stroke-linecap="round" stroke-linejoin="round" stroke-miterlimit="10" d="
			M178.587,288.501c21.137,29.01,46.822,19.859,50.82,9.877"/>
		<path fill="none" stroke="#000000" stroke-width="8" stroke-linecap="round" stroke-linejoin="round" stroke-miterlimit="10" d="
			M280.231,288.501c-21.136,29.01-46.822,19.859-50.82,9.877V287.08"/>
		<path stroke="#000000" stroke-width="8" stroke-linecap="round" stroke-linejoin="round" stroke-miterlimit="10" d="
			M196.736,132.483c0.057,7.552,3.547,16.811,9.732,26.072c6.085-8.677,11.384-18.947,11.327-27.049
			C217.789,130.398,196.719,129.757,196.736,132.483z"/>
		<path stroke="#000000" stroke-width="8" stroke-linecap="round" stroke-linejoin="round" stroke-miterlimit="10" d="
			M235.024,131.703c0.057,7.552,3.545,16.811,9.729,26.073c6.084-8.678,11.385-18.949,11.328-27.05
			C256.073,129.617,235.005,128.976,235.024,131.703z"/>
		<g>
			<path stroke="#000000" stroke-width="8.9378" stroke-linecap="round" stroke-linejoin="round" stroke-miterlimit="10" d="
				M110.948,229.909c9.418,0.282,21.158-2.789,33.054-8.552c-10.479-6.465-22.989-12.223-33.095-12.527
				C109.526,208.786,107.544,229.803,110.948,229.909z"/>
		</g>
		<g>
			<path stroke="#000000" stroke-width="8.9378" stroke-linecap="round" stroke-linejoin="round" stroke-miterlimit="10" d="
				M115.308,265.469c9.105-1.951,19.196-7.657,28.446-15.971c-12.392-3.707-26.462-6.257-36.232-4.165
				C106.186,245.617,112.017,266.171,115.308,265.469z"/>
		</g>
		<g>
			<path stroke="#000000" stroke-width="8.9378" stroke-linecap="round" stroke-linejoin="round" stroke-miterlimit="10" d="
				M133.083,297.719c8.25-3.216,16.356-10.285,22.886-19.82c-13.087-1.921-27.462-2.461-36.314,0.988
				C118.444,279.359,130.101,298.879,133.083,297.719z"/>
		</g>
		<g>
			<path stroke="#000000" stroke-width="8.9378" stroke-linecap="round" stroke-linejoin="round" stroke-miterlimit="10" d="
				M342.347,229.909c-9.418,0.282-21.158-2.789-33.055-8.552c10.48-6.465,22.989-12.223,33.095-12.527
				C343.769,208.786,345.75,229.803,342.347,229.909z"/>
		</g>
		<g>
			<path stroke="#000000" stroke-width="8.9378" stroke-linecap="round" stroke-linejoin="round" stroke-miterlimit="10" d="
				M337.986,265.469c-9.105-1.951-19.195-7.657-28.445-15.971c12.392-3.707,26.462-6.257,36.232-4.165
				C347.109,245.617,341.277,266.171,337.986,265.469z"/>
		</g>
		<g>
			<path stroke="#000000" stroke-width="8.9378" stroke-linecap="round" stroke-linejoin="round" stroke-miterlimit="10" d="
				M320.211,297.719c-8.25-3.216-16.356-10.285-22.886-19.82c13.087-1.921,27.462-2.461,36.314,0.988
				C334.85,279.359,323.194,298.879,320.211,297.719z"/>
		</g>
		
			<circle fill="#FFFFFF" stroke="#000000" stroke-width="6" stroke-linecap="round" stroke-linejoin="round" stroke-miterlimit="10" cx="199.154" cy="210.956" r="13.382"/>
		<circle cx="204.582" cy="216.629" r="7.76"/>
		
			<circle fill="#FFFFFF" stroke="#000000" stroke-width="6" stroke-linecap="round" stroke-linejoin="round" stroke-miterlimit="10" cx="261.273" cy="210.956" r="13.382"/>
		<circle cx="266.702" cy="216.629" r="7.76"/>
	</g>
	<g id="rde훾a7bela_copy_4">
	</g>
	<rect x="-2873.953" y="-1675.34" fill="none" stroke="#000000" stroke-miterlimit="10" width="16736" height="13952"/>
</g>
<g id="sivinsko" display="none">
	<g display="inline">
		<g>
			<path fill="#919191" d="M344.126,179.406c13.076-13.069,12.844-42.841-2.736-58.757c-15.988-16.333-47.68-18.477-61.102-5.063
				c-5.018,5.018-9.457,10.445-13.23,16.159c-12.379-2.57-25.916-3.882-40.286-3.916c-14.369,0.034-27.907,1.346-40.284,3.916
				c-3.777-5.714-8.214-11.142-13.232-16.159c-13.421-13.414-45.111-11.271-61.101,5.063c-15.58,15.916-15.812,45.688-2.737,58.757
				c1.225,1.231,2.488,2.428,3.817,3.63c-5.598,12.051-8.435,25.881-8.435,41.179c0,5.719,1.165,16.876,1.165,16.876l1.462,8.417
				l3.872,14.118l3.101,8.134c18.534,43.863,61.9,74.752,112.372,74.982c50.473-0.23,93.838-31.12,112.372-74.982l3.102-8.134
				l3.871-14.118l1.463-8.417c0,0,1.164-11.157,1.164-16.876c0-15.298-2.836-29.128-8.434-41.179
				C341.64,181.834,342.901,180.637,344.126,179.406z"/>
			<path d="M226.772,350.744c-0.006,0-0.012,0-0.019,0c-50.714-0.231-96.262-30.622-116.038-77.425
				c-0.019-0.044-0.036-0.088-0.053-0.132l-3.101-8.134c-0.046-0.121-0.086-0.242-0.12-0.366l-3.872-14.119
				c-0.034-0.123-0.062-0.248-0.083-0.374l-1.462-8.417c-0.016-0.089-0.028-0.18-0.038-0.269
				c-0.048-0.464-1.187-11.433-1.187-17.292c0-14.75,2.562-28.252,7.62-40.189c-0.633-0.604-1.244-1.201-1.839-1.799
				c-15.092-15.087-13.726-47.58,2.715-64.375c9.227-9.425,23.639-15.052,38.553-15.052c11.782,0,21.809,3.537,28.233,9.958
				c4.53,4.528,8.632,9.412,12.222,14.547c11.897-2.274,24.82-3.442,38.458-3.474c13.654,0.032,26.577,1.2,38.477,3.474
				c3.583-5.127,7.685-10.011,12.22-14.546c6.426-6.422,16.453-9.959,28.235-9.959c14.915,0,29.327,5.627,38.553,15.052
				c16.443,16.797,17.808,49.289,2.706,64.384c-0.594,0.598-1.201,1.192-1.829,1.79c5.058,11.936,7.619,25.439,7.619,40.19
				c0,5.859-1.137,16.828-1.186,17.292c-0.009,0.089-0.022,0.18-0.038,0.269l-1.463,8.419c-0.021,0.125-0.05,0.249-0.083,0.372
				l-3.871,14.118c-0.034,0.125-0.074,0.247-0.12,0.369l-3.102,8.133c-0.017,0.044-0.035,0.088-0.053,0.132
				c-19.776,46.803-65.323,77.194-116.038,77.425C226.784,350.744,226.778,350.744,226.772,350.744z M118.112,270.27
				c18.541,43.807,61.183,72.25,108.66,72.474c47.478-0.224,90.12-28.667,108.66-72.474l3.007-7.887l3.769-13.748l1.406-8.091
				c0.129-1.266,1.129-11.212,1.129-16.33c0-14.69-2.712-27.978-8.061-39.495c-0.739-1.59-0.355-3.477,0.946-4.652
				c1.315-1.189,2.514-2.328,3.661-3.482c10.98-10.975,11.877-38.188-2.758-53.139c-7.637-7.801-20.219-12.647-32.836-12.647
				c-9.506,0-17.736,2.776-22.579,7.617c-4.81,4.81-9.089,10.036-12.72,15.534c-0.903,1.367-2.547,2.046-4.151,1.712
				c-12.089-2.509-25.373-3.799-39.482-3.832c-14.091,0.033-27.375,1.323-39.461,3.832c-1.605,0.334-3.248-0.345-4.15-1.71
				c-3.641-5.508-7.921-10.735-12.724-15.537c-4.842-4.84-13.072-7.616-22.578-7.616c-12.617,0-25.2,4.846-32.836,12.647
				c-14.635,14.95-13.738,42.164-2.768,53.13c1.142,1.149,2.34,2.289,3.672,3.492c1.301,1.176,1.684,3.062,0.945,4.651
				c-5.35,11.518-8.063,24.806-8.063,39.495c0,5.118,1,15.065,1.13,16.33l1.405,8.091l3.771,13.748L118.112,270.27z"/>
		</g>
		<g>
			<path d="M233.706,288.507c3.766-0.94,7.346-3.146,10.258-6.648c7.945-9.564,1.445-17.395-14.453-17.395
				c-15.898,0-22.405,7.831-14.453,17.395c2.905,3.502,6.492,5.708,10.256,6.648H233.706z"/>
			<path d="M233.706,290.507h-8.392c-0.163,0-0.326-0.02-0.485-0.06c-4.328-1.082-8.239-3.61-11.31-7.312
				c-3.72-4.473-4.791-9.022-3.016-12.807c2.345-4.999,9.272-7.865,19.008-7.865c9.732,0,16.658,2.866,19.003,7.862
				c1.776,3.786,0.707,8.335-3.012,12.812c-3.08,3.704-6.992,6.231-11.312,7.31C234.032,290.487,233.87,290.507,233.706,290.507z
				 M225.568,286.507h7.885c3.399-0.904,6.497-2.949,8.974-5.927c1.889-2.274,3.852-5.605,2.467-8.555
				c-1.634-3.482-7.385-5.562-15.382-5.562c-8,0-13.752,2.081-15.386,5.563c-1.383,2.949,0.58,6.279,2.471,8.553
				C219.065,283.556,222.163,285.602,225.568,286.507z"/>
		</g>
		<path d="M210.908,312.044c-8.058,0-22.328-3.036-35.553-21.188c-1.301-1.786-0.908-4.288,0.877-5.588s4.288-0.908,5.588,0.877
			c12.614,17.313,25.329,18.545,31.784,17.738c6.42-0.801,10.942-4.125,12.09-6.992c0.821-2.05,3.149-3.046,5.2-2.225
			s3.047,3.149,2.226,5.2c-2.431,6.07-9.875,10.875-18.524,11.956C213.594,311.947,212.35,312.044,210.908,312.044z"/>
		<path d="M247.911,312.044c-1.442,0-2.685-0.097-3.688-0.223c-8.649-1.081-16.094-5.886-18.525-11.956
			c-0.189-0.472-0.287-0.978-0.287-1.487V287.08c0-2.209,1.791-4,4-4s4,1.791,4,4v10.413c1.498,2.714,5.829,5.645,11.804,6.391
			c6.458,0.808,19.169-0.425,31.783-17.738c1.301-1.786,3.803-2.178,5.588-0.877s2.178,3.803,0.877,5.588
			C270.24,309.007,255.969,312.044,247.911,312.044z"/>
		<g>
			<path d="M196.736,132.483c0.057,7.552,3.547,16.811,9.732,26.072c6.085-8.677,11.384-18.947,11.327-27.049
				C217.789,130.398,196.719,129.757,196.736,132.483z"/>
			<path d="M206.468,162.556c-0.015,0-0.03,0-0.046,0c-1.32-0.015-2.547-0.68-3.28-1.778c-6.647-9.954-10.343-19.992-10.406-28.264
				c-0.007-1.231,0.479-2.4,1.372-3.297c0.924-0.93,2.645-2.662,13.85-2.662c9.386,0,13.812,0.486,13.837,4.93
				c0.07,9.968-6.515,21.473-12.052,29.368C208.994,161.92,207.771,162.556,206.468,162.556z M200.889,134.938
				c0.54,4.823,2.501,10.366,5.697,16.142c3.726-6.124,6.124-11.786,6.917-16.339c-1.412-0.104-3.301-0.187-5.546-0.187
				C204.552,134.554,202.279,134.741,200.889,134.938z"/>
		</g>
		<g>
			<path d="M235.024,131.703c0.057,7.552,3.545,16.811,9.729,26.073c6.084-8.678,11.385-18.949,11.328-27.05
				C256.073,129.617,235.005,128.976,235.024,131.703z"/>
			<path d="M244.753,161.775c-0.015,0-0.03,0-0.045,0c-1.32-0.014-2.548-0.681-3.281-1.778c-6.646-9.954-10.34-19.992-10.402-28.264
				c-0.009-1.228,0.478-2.398,1.37-3.297c0.924-0.931,2.644-2.663,13.852-2.663c9.381,0,13.804,0.486,13.835,4.924
				c0.07,9.969-6.516,21.477-12.053,29.375C247.279,161.14,246.056,161.775,244.753,161.775z M239.177,134.157
				c0.54,4.825,2.5,10.367,5.694,16.142c3.726-6.125,6.125-11.788,6.919-16.339c-1.412-0.105-3.301-0.187-5.545-0.187
				C242.84,133.773,240.567,133.961,239.177,134.157z"/>
		</g>
		<g>
			<g>
				<path d="M110.948,229.909c9.418,0.282,21.158-2.789,33.054-8.552c-10.479-6.465-22.989-12.223-33.095-12.527
					C109.526,208.786,107.544,229.803,110.948,229.909z"/>
				<path d="M112.155,234.396c-0.447,0.021-0.898-0.007-1.341-0.02c-6.413-0.199-6.271-9.282-6.211-13.159
					c0.046-2.97,0.303-6.247,0.705-8.991c0.431-2.942,1.152-7.865,5.595-7.865c0.047,0,0.099,0,0.146,0.002
					c12.093,0.364,25.871,7.374,35.299,13.19c1.389,0.857,2.2,2.401,2.117,4.031c-0.083,1.629-1.047,3.084-2.515,3.794
					C133.948,231.193,121.945,234.396,112.155,234.396z M114.116,213.605c-0.479,3.402-0.776,8.832-0.472,11.824
					c6.034-0.229,13.045-1.829,20.384-4.621C126.58,216.916,119.758,214.444,114.116,213.605z"/>
			</g>
		</g>
		<g>
			<g>
				<path d="M115.308,265.469c9.105-1.951,19.196-7.657,28.446-15.971c-12.392-3.707-26.462-6.257-36.232-4.165
					C106.186,245.617,112.017,266.171,115.308,265.469z"/>
				<path d="M115.14,269.956C115.14,269.956,115.14,269.956,115.14,269.956c-4.171,0-6.6-4.266-8.962-10.671
					c-1.603-4.344-2.972-9.466-3.256-12.181c-0.511-4.867,2.682-5.932,3.672-6.142c2.632-0.564,5.635-0.851,8.917-0.851
					c10.293,0,21.737,2.776,29.523,5.105c1.549,0.463,2.727,1.726,3.08,3.303c0.354,1.577-0.171,3.221-1.373,4.302
					c-9.874,8.875-20.705,14.919-30.497,17.017C115.879,269.917,115.509,269.956,115.14,269.956z M112.375,249.162
					c0.903,3.617,2.683,8.909,4.063,11.429c5.651-1.571,11.726-4.68,17.706-9.038c-5.897-1.383-12.554-2.504-18.634-2.504
					C114.417,249.049,113.37,249.087,112.375,249.162z"/>
			</g>
		</g>
		<g>
			<g>
				<path d="M133.083,297.719c8.25-3.216,16.356-10.285,22.886-19.82c-13.087-1.921-27.462-2.461-36.314,0.988
					C118.444,279.359,130.101,298.879,133.083,297.719z"/>
				<path d="M132.804,302.238c0,0-0.001,0-0.002,0c-2.177-0.001-5.023-0.789-11.295-10.195c-0.58-0.87-5.684-8.593-6.31-11.929
					c-0.516-2.744,1.108-4.718,2.835-5.39c4.796-1.869,11.188-2.816,18.996-2.816c5.899,0,12.491,0.529,19.59,1.571
					c1.525,0.224,2.828,1.219,3.445,2.631c0.618,1.412,0.464,3.044-0.407,4.316c-7.067,10.321-15.928,17.941-24.95,21.458
					C134.099,302.119,133.46,302.238,132.804,302.238z M125.667,281.803c2.087,3.678,5.504,8.831,7.578,10.987
					c4.977-2.327,9.918-6.251,14.402-11.405c-3.766-0.359-7.317-0.54-10.619-0.54C132.623,280.845,128.822,281.167,125.667,281.803z
					"/>
			</g>
		</g>
		<g>
			<g>
				<path d="M342.347,229.909c-9.418,0.282-21.158-2.789-33.055-8.552c10.48-6.465,22.989-12.223,33.095-12.527
					C343.769,208.786,345.75,229.803,342.347,229.909z"/>
				<path d="M341.141,234.396c-9.792,0-21.794-3.201-33.797-9.018c-1.468-0.71-2.432-2.165-2.515-3.794
					c-0.083-1.629,0.729-3.174,2.117-4.031c9.428-5.816,23.207-12.826,35.307-13.19c0.045-0.001,0.094-0.002,0.139-0.002
					c4.443,0,5.164,4.923,5.594,7.865c0.402,2.744,0.659,6.021,0.705,8.989c0.061,3.879,0.202,12.961-6.205,13.161
					C342.039,234.389,341.591,234.396,341.141,234.396z M319.266,220.808c7.339,2.792,14.351,4.392,20.385,4.621
					c0.304-2.992,0.006-8.42-0.473-11.823C333.534,214.446,326.712,216.917,319.266,220.808z"/>
			</g>
		</g>
		<g>
			<g>
				<path d="M337.986,265.469c-9.105-1.951-19.195-7.657-28.445-15.971c12.392-3.707,26.462-6.257,36.232-4.165
					C347.109,245.617,341.277,266.171,337.986,265.469z"/>
				<path d="M338.154,269.956c-0.369,0-0.739-0.039-1.1-0.116c-9.796-2.099-20.626-8.143-30.5-17.018
					c-1.202-1.081-1.727-2.725-1.373-4.302s1.531-2.84,3.08-3.303c7.787-2.329,19.229-5.105,29.523-5.105
					c3.282,0,6.285,0.287,8.926,0.853c0.981,0.208,4.174,1.271,3.664,6.141c-0.285,2.714-1.654,7.836-3.256,12.18
					C344.753,265.69,342.325,269.956,338.154,269.956z M319.149,251.553c5.979,4.356,12.054,7.466,17.707,9.038
					c1.38-2.521,3.16-7.812,4.063-11.429c-0.995-0.075-2.041-0.112-3.135-0.112C331.703,249.049,325.047,250.17,319.149,251.553z"/>
			</g>
		</g>
		<g>
			<g>
				<path d="M320.211,297.719c-8.25-3.216-16.356-10.285-22.886-19.82c13.087-1.921,27.462-2.461,36.314,0.988
					C334.85,279.359,323.194,298.879,320.211,297.719z"/>
				<path d="M320.491,302.238c-0.657,0-1.296-0.119-1.899-0.353c-9.025-3.519-17.885-11.139-24.954-21.46
					c-0.871-1.272-1.024-2.904-0.407-4.316c0.618-1.412,1.92-2.407,3.445-2.631c7.1-1.042,13.69-1.571,19.59-1.571
					c7.809,0,14.199,0.947,18.996,2.816c1.728,0.673,3.351,2.647,2.835,5.392c-0.627,3.334-5.73,11.059-6.31,11.929
					C325.515,301.45,322.667,302.238,320.491,302.238z M305.647,281.385c4.484,5.153,9.425,9.077,14.403,11.405
					c2.073-2.156,5.491-7.31,7.578-10.987c-3.155-0.637-6.957-0.958-11.362-0.958C312.965,280.845,309.413,281.026,305.647,281.385z
					"/>
			</g>
		</g>
		<g>
			<g>
				<circle fill="#FFFFFF" cx="199.154" cy="210.956" r="13.382"/>
				<path d="M199.156,227.337c-9.034,0-16.384-7.348-16.384-16.381s7.35-16.382,16.384-16.382c9.032,0,16.381,7.349,16.381,16.382
					S208.188,227.337,199.156,227.337z M199.156,200.574c-5.726,0-10.384,4.658-10.384,10.382c0,5.724,4.658,10.381,10.384,10.381
					c5.724,0,10.381-4.657,10.381-10.381C209.537,205.232,204.88,200.574,199.156,200.574z"/>
			</g>
			<circle cx="204.582" cy="216.629" r="7.76"/>
		</g>
		<g>
			<g>
				<circle fill="#FFFFFF" cx="261.273" cy="210.956" r="13.382"/>
				<path d="M261.274,227.337c-9.034,0-16.383-7.348-16.383-16.381s7.349-16.382,16.383-16.382c9.033,0,16.381,7.349,16.381,16.382
					S270.307,227.337,261.274,227.337z M261.274,200.574c-5.725,0-10.383,4.658-10.383,10.382c0,5.724,4.658,10.381,10.383,10.381
					c5.724,0,10.381-4.657,10.381-10.381C271.655,205.232,266.999,200.574,261.274,200.574z"/>
			</g>
			<circle cx="266.702" cy="216.629" r="7.76"/>
		</g>
	</g>
	<g id="rde훾a7bela_copy_3" display="inline">
	</g>
	<path display="inline" d="M13862.547,12277.16h-16737v-13953h16737V12277.16z M-2873.953,12276.16h16736l-0.5-13951h-16735.5
		l0.5,13951H-2873.953z"/>
</g>
<g id="linijsko" display="none">
	<g display="inline">
		<path fill="none" stroke="#000000" stroke-width="8" stroke-linecap="round" stroke-linejoin="round" stroke-miterlimit="10" d="
			M344.126,179.406c13.076-13.069,12.844-42.841-2.736-58.757c-15.988-16.333-47.68-18.477-61.102-5.063
			c-5.018,5.018-9.457,10.445-13.23,16.159c-12.379-2.57-25.916-3.882-40.286-3.916c-14.369,0.034-27.907,1.346-40.284,3.916
			c-3.777-5.714-8.214-11.142-13.232-16.159c-13.421-13.414-45.111-11.271-61.101,5.063c-15.58,15.916-15.812,45.688-2.737,58.757
			c1.225,1.231,2.488,2.428,3.817,3.63c-5.598,12.051-8.435,25.881-8.435,41.179c0,5.719,1.165,16.876,1.165,16.876l1.462,8.417
			l3.872,14.118l3.101,8.134c18.534,43.863,61.9,74.752,112.372,74.982c50.473-0.23,93.838-31.12,112.372-74.982l3.102-8.134
			l3.871-14.118l1.463-8.417c0,0,1.164-11.157,1.164-16.876c0-15.298-2.836-29.128-8.434-41.179
			C341.64,181.834,342.901,180.637,344.126,179.406z"/>
		<path fill="none" stroke="#000000" stroke-width="8" stroke-linecap="round" stroke-linejoin="round" stroke-miterlimit="10" d="
			M233.706,286.507c3.766-0.94,7.346-3.146,10.258-6.648c7.945-9.564,1.445-17.395-14.453-17.395
			c-15.898,0-22.405,7.831-14.453,17.395c2.905,3.502,6.492,5.708,10.256,6.648H233.706z"/>
		<path fill="none" stroke="#000000" stroke-width="8" stroke-linecap="round" stroke-linejoin="round" stroke-miterlimit="10" d="
			M178.587,288.501c21.137,29.01,46.822,19.859,50.82,9.877"/>
		<path fill="none" stroke="#000000" stroke-width="8" stroke-linecap="round" stroke-linejoin="round" stroke-miterlimit="10" d="
			M280.231,288.501c-21.136,29.01-46.822,19.859-50.82,9.877V287.08"/>
		<path fill="none" stroke="#000000" stroke-width="6" stroke-linecap="round" stroke-linejoin="round" stroke-miterlimit="10" d="
			M196.736,131.483c0.057,7.552,3.547,16.811,9.732,26.072c6.085-8.677,11.384-18.947,11.327-27.049
			C217.789,129.398,196.719,128.757,196.736,131.483z"/>
		<path fill="none" stroke="#000000" stroke-width="6" stroke-linecap="round" stroke-linejoin="round" stroke-miterlimit="10" d="
			M235.024,131.703c0.057,7.552,3.545,16.811,9.729,26.073c6.084-8.678,11.385-18.949,11.328-27.05
			C256.073,129.617,235.005,128.976,235.024,131.703z"/>
		<g>
			<path fill="none" stroke="#000000" stroke-width="6" stroke-linecap="round" stroke-linejoin="round" stroke-miterlimit="10" d="
				M108.948,229.909c9.418,0.282,21.158-2.789,33.054-8.552c-10.479-6.465-22.989-12.223-33.095-12.527
				C107.526,208.786,105.544,229.803,108.948,229.909z"/>
		</g>
		<g>
			<path fill="none" stroke="#000000" stroke-width="6" stroke-linecap="round" stroke-linejoin="round" stroke-miterlimit="10" d="
				M115.308,265.469c9.105-1.951,19.196-7.657,28.446-15.971c-12.392-3.707-26.462-6.257-36.232-4.165
				C106.186,245.617,112.017,266.171,115.308,265.469z"/>
		</g>
		<g>
			<path fill="none" stroke="#000000" stroke-width="6" stroke-linecap="round" stroke-linejoin="round" stroke-miterlimit="10" d="
				M132.083,297.719c8.25-3.216,16.356-10.285,22.886-19.82c-13.087-1.921-27.462-2.461-36.314,0.988
				C117.444,279.359,129.101,298.879,132.083,297.719z"/>
		</g>
		<g>
			<path fill="none" stroke="#000000" stroke-width="6" stroke-linecap="round" stroke-linejoin="round" stroke-miterlimit="10" d="
				M344.347,229.909c-9.418,0.282-21.158-2.789-33.055-8.552c10.48-6.465,22.989-12.223,33.095-12.527
				C345.769,208.786,347.75,229.803,344.347,229.909z"/>
		</g>
		<g>
			<path fill="none" stroke="#000000" stroke-width="6" stroke-linecap="round" stroke-linejoin="round" stroke-miterlimit="10" d="
				M337.986,265.469c-9.105-1.951-19.195-7.657-28.445-15.971c12.392-3.707,26.462-6.257,36.232-4.165
				C347.109,245.617,341.277,266.171,337.986,265.469z"/>
		</g>
		<g>
			<path fill="none" stroke="#000000" stroke-width="6" stroke-linecap="round" stroke-linejoin="round" stroke-miterlimit="10" d="
				M320.211,297.719c-8.25-3.216-16.356-10.285-22.886-19.82c13.087-1.921,27.462-2.461,36.314,0.988
				C334.85,279.359,323.194,298.879,320.211,297.719z"/>
		</g>
		<g>
			
				<circle fill="none" stroke="#000000" stroke-width="6" stroke-linecap="round" stroke-linejoin="round" stroke-miterlimit="10" cx="199.154" cy="210.956" r="13.382"/>
			<circle cx="204.582" cy="216.629" r="7.76"/>
		</g>
		<g>
			
				<circle fill="none" stroke="#000000" stroke-width="6" stroke-linecap="round" stroke-linejoin="round" stroke-miterlimit="10" cx="261.273" cy="210.956" r="13.382"/>
			<circle cx="266.702" cy="216.629" r="7.76"/>
		</g>
	</g>
	<g id="rde훾a7bela_copy" display="inline">
	</g>
</g>
<g id="pivot">
	<circle fill="none" cx="234.774" cy="345.392" r="14.133"/>
</g>
</svg>
