<?xml version="1.0" encoding="utf-8"?>
<!-- Generator: Adobe Illustrator 16.0.0, SVG Export Plug-In . SVG Version: 6.00 Build 0)  -->
<!DOCTYPE svg PUBLIC "-//W3C//DTD SVG 1.1//EN" "http://www.w3.org/Graphics/SVG/1.1/DTD/svg11.dtd">
<svg version="1.1" xmlns="http://www.w3.org/2000/svg" xmlns:xlink="http://www.w3.org/1999/xlink" x="0px" y="0px"
	 width="453.543px" height="453.542px" viewBox="0 0 453.543 453.542" enable-background="new 0 0 453.543 453.542"
	 xml:space="preserve">
<g id="kvadrat">
</g>
<g id="bg" display="none">
	<rect x="-832.959" y="-1255.332" display="inline" width="15266.867" height="13678.951"/>
</g>
<g id="barvno" display="none">
	<g display="inline">
		
			<path fill="#93C01F" stroke="#000000" stroke-width="8" stroke-linecap="round" stroke-linejoin="round" stroke-miterlimit="10" d="
			M348.065,159.386c0-29.649-24.257-53.908-53.908-53.908c-25.336,0-46.63,17.25-52.291,41.239c-9.975-1.08-19.946-1.08-29.917,0
			c-5.931-23.988-27.228-41.239-52.564-41.239c-29.65,0-53.908,24.259-53.908,53.908c0,14.287,5.662,27.763,15.636,38.004
			c-10.245,15.097-15.636,32.077-15.636,49.597c0,55.798,54.449,101.078,121.297,101.078c66.842,0,121.291-45.28,121.291-101.078
			c0-17.52-5.388-34.5-15.628-49.597C342.407,187.149,348.065,173.672,348.065,159.386z"/>
		
			<circle fill="#FFFFFF" stroke="#000000" stroke-width="8" stroke-linecap="round" stroke-linejoin="round" stroke-miterlimit="10" cx="159.687" cy="159.513" r="22.099"/>
		<circle cx="168.651" cy="168.881" r="12.817"/>
		
			<circle fill="#FFFFFF" stroke="#000000" stroke-width="8" stroke-linecap="round" stroke-linejoin="round" stroke-miterlimit="10" cx="291.448" cy="159.513" r="22.099"/>
		<circle cx="300.413" cy="168.881" r="12.817"/>
		<path fill="none" stroke="#000000" stroke-width="8" stroke-linecap="round" stroke-linejoin="round" stroke-miterlimit="10" d="
			M160.584,267.094c48.193,35.066,108.531,19.886,130.865,0"/>
	</g>
	<g id="rde훾a7bela" display="inline">
	</g>
	
		<rect x="-1343.244" y="-1675.34" display="inline" fill="none" stroke="#000000" stroke-miterlimit="10" width="16736" height="13952"/>
</g>
<g id="barvno_copy_2">
	<g>
		
			<path fill="#00FF00" stroke="#000000" stroke-width="8" stroke-linecap="round" stroke-linejoin="round" stroke-miterlimit="10" d="
			M348.065,159.386c0-29.649-24.257-53.908-53.908-53.908c-25.336,0-46.63,17.25-52.291,41.239c-9.975-1.08-19.946-1.08-29.917,0
			c-5.931-23.988-27.228-41.239-52.564-41.239c-29.65,0-53.908,24.259-53.908,53.908c0,14.287,5.662,27.763,15.636,38.004
			c-10.245,15.097-15.636,32.077-15.636,49.597c0,55.798,54.449,101.078,121.297,101.078c66.842,0,121.291-45.28,121.291-101.078
			c0-17.52-5.388-34.5-15.628-49.597C342.407,187.149,348.065,173.672,348.065,159.386z"/>
		
			<circle fill="#FFFFFF" stroke="#000000" stroke-width="8" stroke-linecap="round" stroke-linejoin="round" stroke-miterlimit="10" cx="159.687" cy="159.513" r="22.099"/>
		<circle cx="168.651" cy="168.881" r="12.817"/>
		
			<circle fill="#FFFFFF" stroke="#000000" stroke-width="8" stroke-linecap="round" stroke-linejoin="round" stroke-miterlimit="10" cx="291.448" cy="159.513" r="22.099"/>
		<circle cx="300.413" cy="168.881" r="12.817"/>
		<path fill="none" stroke="#000000" stroke-width="8" stroke-linecap="round" stroke-linejoin="round" stroke-miterlimit="10" d="
			M160.584,267.094c48.193,35.066,108.531,19.886,130.865,0"/>
	</g>
	<g id="rde훾a7bela_copy_4">
	</g>
	<rect x="-1343.244" y="-1675.34" fill="none" stroke="#000000" stroke-miterlimit="10" width="16736" height="13952"/>
</g>
<g id="sivinsko" display="none">
	<g display="inline">
		<g>
			<path fill="#A1A1A1" d="M348.065,159.386c0-29.649-24.257-53.908-53.908-53.908c-25.336,0-46.63,17.25-52.291,41.239
				c-9.975-1.08-19.946-1.08-29.917,0c-5.931-23.988-27.228-41.239-52.564-41.239c-29.65,0-53.908,24.259-53.908,53.908
				c0,14.287,5.662,27.763,15.636,38.004c-10.245,15.097-15.636,32.077-15.636,49.597c0,55.798,54.449,101.078,121.297,101.078
				c66.842,0,121.291-45.28,121.291-101.078c0-17.52-5.388-34.5-15.628-49.597C342.407,187.149,348.065,173.672,348.065,159.386z"/>
			<path d="M226.774,352.065c-69.089,0-125.297-47.138-125.297-105.078c0-17.159,5.031-34.095,14.579-49.177
				c-9.425-10.756-14.579-24.281-14.579-38.424c0-31.93,25.977-57.908,57.908-57.908c25.628,0,47.983,16.666,55.517,40.937
				c7.988-0.673,15.988-0.673,23.978-0.003c7.285-24.272,29.536-40.934,55.278-40.934c31.93,0,57.908,25.978,57.908,57.908
				c0,14.143-5.152,27.667-14.572,38.424c9.543,15.081,14.572,32.018,14.572,49.177C352.065,304.927,295.86,352.065,226.774,352.065
				z M159.385,109.478c-27.519,0-49.908,22.388-49.908,49.908c0,13.105,5.15,25.612,14.501,35.214
				c1.325,1.36,1.511,3.465,0.444,5.038c-9.777,14.407-14.945,30.781-14.945,47.35c0,53.529,52.62,97.078,117.297,97.078
				c64.674,0,117.291-43.549,117.291-97.078c0-16.57-5.166-32.944-14.938-47.352c-1.065-1.571-0.88-3.675,0.444-5.035
				c9.347-9.602,14.494-22.108,14.494-35.214c0-27.52-22.389-49.908-49.908-49.908c-23.194,0-43.096,15.691-48.398,38.157
				c-0.463,1.965-2.317,3.274-4.324,3.06c-4.821-0.523-9.71-0.788-14.529-0.788c0,0,0,0-0.001,0c-4.819,0-9.706,0.264-14.526,0.788
				c-1.99,0.212-3.833-1.075-4.313-3.018C202.505,125.186,182.486,109.478,159.385,109.478z"/>
		</g>
		<g>
			<circle fill="#FFFFFF" cx="159.687" cy="159.513" r="22.099"/>
			<path d="M159.688,185.613c-14.392,0-26.1-11.708-26.1-26.1c0-14.391,11.708-26.099,26.1-26.099
				c14.391,0,26.098,11.708,26.098,26.099C185.786,173.905,174.078,185.613,159.688,185.613z M159.688,141.415
				c-9.98,0-18.1,8.119-18.1,18.099c0,9.98,8.12,18.1,18.1,18.1c9.979,0,18.098-8.119,18.098-18.1
				C177.786,149.533,169.667,141.415,159.688,141.415z"/>
		</g>
		<circle cx="168.651" cy="168.881" r="12.817"/>
		<g>
			<circle fill="#FFFFFF" cx="291.448" cy="159.513" r="22.099"/>
			<path d="M291.449,185.613c-14.392,0-26.1-11.708-26.1-26.1c0-14.391,11.708-26.099,26.1-26.099
				c14.39,0,26.098,11.708,26.098,26.099C317.547,173.905,305.839,185.613,291.449,185.613z M291.449,141.415
				c-9.98,0-18.1,8.119-18.1,18.099c0,9.98,8.12,18.1,18.1,18.1c9.979,0,18.098-8.119,18.098-18.1
				C309.547,149.533,301.429,141.415,291.449,141.415z"/>
		</g>
		<circle cx="300.413" cy="168.881" r="12.817"/>
		<path d="M226.092,292.083c-19.161,0-44.035-4.417-67.862-21.755c-1.786-1.299-2.181-3.801-0.881-5.587
			c1.3-1.787,3.801-2.182,5.588-0.882c48.45,35.253,106.785,17.224,125.852,0.247c1.65-1.469,4.179-1.323,5.647,0.328
			c1.469,1.65,1.323,4.178-0.327,5.648c-12.927,11.509-35.182,19.789-58.079,21.606
			C232.939,291.934,229.611,292.083,226.092,292.083z"/>
	</g>
	<g id="rde훾a7bela_copy_3" display="inline">
	</g>
	<path display="inline" d="M15393.256,12277.16h-16737v-13953h16737V12277.16z M-1343.244,12276.16h16736l-0.5-13951h-16735.5
		l0.5,13951H-1343.244z"/>
</g>
<g id="linijsko" display="none">
	<g display="inline">
		<path fill="none" stroke="#000000" stroke-width="8" stroke-linecap="round" stroke-linejoin="round" stroke-miterlimit="10" d="
			M348.065,159.386c0-29.649-24.257-53.908-53.908-53.908c-25.336,0-46.63,17.25-52.291,41.239c-9.975-1.08-19.946-1.08-29.917,0
			c-5.931-23.988-27.228-41.239-52.564-41.239c-29.65,0-53.908,24.259-53.908,53.908c0,14.287,5.662,27.763,15.636,38.004
			c-10.245,15.097-15.636,32.077-15.636,49.597c0,55.798,54.449,101.078,121.297,101.078c66.842,0,121.291-45.28,121.291-101.078
			c0-17.52-5.388-34.5-15.628-49.597C342.407,187.149,348.065,173.672,348.065,159.386z"/>
		
			<circle fill="none" stroke="#000000" stroke-width="8" stroke-linecap="round" stroke-linejoin="round" stroke-miterlimit="10" cx="159.687" cy="159.513" r="22.099"/>
		<circle cx="168.651" cy="168.881" r="12.817"/>
		
			<circle fill="none" stroke="#000000" stroke-width="8" stroke-linecap="round" stroke-linejoin="round" stroke-miterlimit="10" cx="291.448" cy="159.513" r="22.099"/>
		<circle cx="300.413" cy="168.881" r="12.817"/>
		<path fill="none" stroke="#000000" stroke-width="8" stroke-linecap="round" stroke-linejoin="round" stroke-miterlimit="10" d="
			M160.584,267.094c48.193,35.066,108.531,19.886,130.865,0"/>
	</g>
	<g id="rde훾a7bela_copy" display="inline">
	</g>
</g>
<g id="pivot">
	<circle fill="none" cx="231.918" cy="346.838" r="14.133"/>
</g>
</svg>
