<?xml version="1.0" encoding="utf-8"?>
<!-- Generator: Adobe Illustrator 16.0.0, SVG Export Plug-In . SVG Version: 6.00 Build 0)  -->
<!DOCTYPE svg PUBLIC "-//W3C//DTD SVG 1.1//EN" "http://www.w3.org/Graphics/SVG/1.1/DTD/svg11.dtd">
<svg version="1.1" xmlns="http://www.w3.org/2000/svg" xmlns:xlink="http://www.w3.org/1999/xlink" x="0px" y="0px"
	 width="453.543px" height="453.543px" viewBox="0 0 453.543 453.543" enable-background="new 0 0 453.543 453.543"
	 xml:space="preserve">
<g id="kvadrat">
</g>
<g id="bg" display="none">
	<rect x="-1853.431" y="-12480.53" display="inline" width="15266.867" height="13678.951"/>
</g>
<g id="barvno" display="none">
	<g id="rde훾a7bela" display="inline">
	</g>
	<g display="inline">
		<g>
			
				<path fill="#009D73" stroke="#000000" stroke-width="8" stroke-linecap="round" stroke-linejoin="round" stroke-miterlimit="10" d="
				M348.065,159.386c0-29.649-24.256-53.908-53.909-53.908c-25.335,0-46.628,17.251-52.291,41.239c-9.974-1.08-19.945-1.08-29.916,0
				c-5.931-23.988-27.228-41.239-52.564-41.239c-29.65,0-53.908,24.259-53.908,53.908c0,14.286,5.662,27.763,15.637,38.004
				c-10.246,15.097-15.637,32.077-15.637,49.598c0,55.798,54.449,101.077,121.297,101.077c66.844,0,121.291-45.279,121.291-101.077
				c0-17.521-5.387-34.501-15.627-49.598C342.406,187.148,348.065,173.672,348.065,159.386z"/>
			
				<circle fill="#FFFFFF" stroke="#000000" stroke-width="8" stroke-linecap="round" stroke-linejoin="round" stroke-miterlimit="10" cx="159.687" cy="159.513" r="22.099"/>
			<circle cx="168.652" cy="168.881" r="12.817"/>
			
				<circle fill="#FFFFFF" stroke="#000000" stroke-width="8" stroke-linecap="round" stroke-linejoin="round" stroke-miterlimit="10" cx="291.449" cy="159.513" r="22.099"/>
			<circle cx="300.414" cy="168.881" r="12.817"/>
			<path fill="none" stroke="#000000" stroke-width="8" stroke-linecap="round" stroke-linejoin="round" stroke-miterlimit="10" d="
				M160.584,267.094c48.193,35.066,108.531,19.886,130.865,0"/>
		</g>
	</g>
	
		<rect x="-2363.716" y="-12900.539" display="inline" fill="none" stroke="#000000" stroke-miterlimit="10" width="16736" height="13952"/>
</g>
<g id="barvno_copy_2">
	<g id="rde훾a7bela_copy_4">
	</g>
	<g>
		<path fill="#00FFFF" d="M348.065,159.386c0-29.649-24.256-53.908-53.909-53.908c-25.335,0-46.628,17.251-52.291,41.239
			c-9.974-1.08-19.945-1.08-29.916,0c-5.931-23.988-27.228-41.239-52.564-41.239c-29.65,0-53.908,24.259-53.908,53.908
			c0,14.286,5.662,27.763,15.637,38.004c-10.246,15.097-15.637,32.077-15.637,49.598c0,55.798,54.449,101.077,121.297,101.077
			c66.844,0,121.291-45.279,121.291-101.077c0-17.521-5.387-34.501-15.627-49.598C342.406,187.148,348.065,173.672,348.065,159.386z
			"/>
		<path d="M226.774,352.064c-69.089,0-125.297-47.138-125.297-105.077c0-17.16,5.031-34.097,14.58-49.179
			c-9.425-10.757-14.58-24.28-14.58-38.423c0-31.931,25.978-57.908,57.908-57.908c25.628,0,47.983,16.666,55.516,40.937
			c7.988-0.673,15.988-0.674,23.978-0.003c7.286-24.272,29.536-40.934,55.277-40.934c31.931,0,57.909,25.978,57.909,57.908
			c0,14.143-5.15,27.666-14.571,38.423c9.543,15.081,14.571,32.017,14.571,49.179C352.065,304.927,295.86,352.064,226.774,352.064z
			 M159.385,109.478c-27.52,0-49.908,22.389-49.908,49.908c0,13.105,5.15,25.611,14.502,35.213c1.325,1.36,1.511,3.466,0.444,5.037
			c-9.778,14.407-14.946,30.781-14.946,47.352c0,53.528,52.619,97.077,117.297,97.077c64.675,0,117.291-43.549,117.291-97.077
			c0-16.571-5.165-32.945-14.938-47.353c-1.065-1.571-0.88-3.675,0.444-5.035c9.346-9.602,14.493-22.108,14.493-35.214
			c0-27.52-22.389-49.908-49.909-49.908c-23.193,0-43.094,15.691-48.398,38.158c-0.464,1.964-2.319,3.282-4.324,3.058
			c-9.642-1.042-19.415-1.042-29.055,0c-1.99,0.216-3.833-1.073-4.314-3.017C202.505,125.186,182.487,109.478,159.385,109.478z"/>
	</g>
	<g>
		<circle fill="#FFFFFF" cx="159.687" cy="159.513" r="22.099"/>
		<path d="M159.688,185.612c-14.392,0-26.1-11.708-26.1-26.1c0-14.391,11.708-26.099,26.1-26.099
			c14.391,0,26.098,11.708,26.098,26.099C185.786,173.904,174.079,185.612,159.688,185.612z M159.688,141.414
			c-9.98,0-18.1,8.119-18.1,18.099c0,9.98,8.119,18.1,18.1,18.1c9.979,0,18.098-8.119,18.098-18.1
			C177.786,149.533,169.667,141.414,159.688,141.414z"/>
	</g>
	<circle cx="168.652" cy="168.881" r="12.817"/>
	<g>
		<circle fill="#FFFFFF" cx="291.449" cy="159.513" r="22.099"/>
		<path d="M291.449,185.612c-14.391,0-26.099-11.708-26.099-26.1c0-14.391,11.708-26.099,26.099-26.099
			c14.391,0,26.098,11.708,26.098,26.099C317.547,173.904,305.84,185.612,291.449,185.612z M291.449,141.414
			c-9.98,0-18.099,8.119-18.099,18.099c0,9.98,8.119,18.1,18.099,18.1c9.979,0,18.098-8.119,18.098-18.1
			C309.547,149.533,301.428,141.414,291.449,141.414z"/>
	</g>
	<circle cx="300.414" cy="168.881" r="12.817"/>
	<path d="M226.092,292.083c-19.161,0-44.035-4.418-67.861-21.755c-1.786-1.3-2.181-3.802-0.881-5.588
		c1.3-1.787,3.801-2.182,5.588-0.881c48.449,35.251,106.785,17.222,125.852,0.247c1.649-1.469,4.178-1.323,5.647,0.327
		s1.323,4.179-0.328,5.647c-12.927,11.51-35.181,19.789-58.078,21.607C232.939,291.934,229.611,292.083,226.092,292.083z"/>
	<rect x="-2363.716" y="-12900.539" fill="none" stroke="#000000" stroke-miterlimit="10" width="16736" height="13952"/>
</g>
<g id="sivinsko" display="none">
	<g id="rde훾a7bela_copy_3" display="inline">
	</g>
	<g display="inline">
		<g>
			<g>
				<path fill="#696969" d="M348.065,159.386c0-29.649-24.256-53.908-53.909-53.908c-25.335,0-46.628,17.251-52.291,41.239
					c-9.974-1.08-19.945-1.08-29.916,0c-5.931-23.988-27.228-41.239-52.564-41.239c-29.65,0-53.908,24.259-53.908,53.908
					c0,14.286,5.662,27.763,15.637,38.004c-10.246,15.097-15.637,32.077-15.637,49.598c0,55.798,54.449,101.077,121.297,101.077
					c66.844,0,121.291-45.279,121.291-101.077c0-17.521-5.387-34.501-15.627-49.598
					C342.406,187.148,348.065,173.672,348.065,159.386z"/>
				<path d="M226.774,352.064c-69.089,0-125.297-47.138-125.297-105.077c0-17.16,5.031-34.097,14.58-49.179
					c-9.425-10.757-14.58-24.28-14.58-38.423c0-31.931,25.978-57.908,57.908-57.908c25.628,0,47.983,16.666,55.516,40.937
					c7.988-0.673,15.988-0.674,23.978-0.003c7.286-24.272,29.536-40.934,55.277-40.934c31.931,0,57.909,25.978,57.909,57.908
					c0,14.143-5.15,27.666-14.571,38.423c9.543,15.081,14.571,32.017,14.571,49.179C352.065,304.927,295.86,352.064,226.774,352.064
					z M159.385,109.478c-27.52,0-49.908,22.389-49.908,49.908c0,13.105,5.15,25.611,14.502,35.213
					c1.325,1.36,1.511,3.466,0.444,5.037c-9.778,14.407-14.946,30.781-14.946,47.352c0,53.528,52.619,97.077,117.297,97.077
					c64.674,0,117.291-43.549,117.291-97.077c0-16.571-5.165-32.945-14.938-47.353c-1.065-1.571-0.88-3.674,0.444-5.035
					c9.346-9.602,14.493-22.108,14.493-35.214c0-27.52-22.389-49.908-49.909-49.908c-23.193,0-43.094,15.692-48.398,38.158
					c-0.464,1.964-2.319,3.282-4.324,3.058c-9.642-1.042-19.415-1.042-29.055,0c-1.99,0.216-3.833-1.073-4.314-3.017
					C202.505,125.186,182.487,109.478,159.385,109.478z"/>
			</g>
			<g>
				<circle fill="#FFFFFF" cx="159.687" cy="159.513" r="22.099"/>
				<path d="M159.688,185.612c-14.392,0-26.1-11.708-26.1-26.1c0-14.391,11.708-26.099,26.1-26.099
					c14.391,0,26.098,11.708,26.098,26.099C185.786,173.904,174.079,185.612,159.688,185.612z M159.688,141.414
					c-9.98,0-18.1,8.119-18.1,18.099c0,9.98,8.119,18.1,18.1,18.1c9.979,0,18.098-8.119,18.098-18.1
					C177.786,149.533,169.667,141.414,159.688,141.414z"/>
			</g>
			<circle cx="168.652" cy="168.881" r="12.817"/>
			<g>
				<circle fill="#FFFFFF" cx="291.449" cy="159.513" r="22.099"/>
				<path d="M291.449,185.612c-14.391,0-26.099-11.708-26.099-26.1c0-14.391,11.708-26.099,26.099-26.099
					c14.391,0,26.098,11.708,26.098,26.099C317.547,173.904,305.84,185.612,291.449,185.612z M291.449,141.414
					c-9.98,0-18.099,8.119-18.099,18.099c0,9.98,8.119,18.1,18.099,18.1c9.979,0,18.098-8.119,18.098-18.1
					C309.547,149.533,301.428,141.414,291.449,141.414z"/>
			</g>
			<circle cx="300.414" cy="168.881" r="12.817"/>
			<path d="M226.092,292.083c-19.161,0-44.035-4.418-67.861-21.755c-1.786-1.3-2.181-3.802-0.881-5.588
				c1.3-1.787,3.801-2.182,5.588-0.881c48.448,35.251,106.785,17.222,125.852,0.247c1.649-1.469,4.178-1.323,5.647,0.327
				s1.323,4.179-0.328,5.647c-12.927,11.51-35.181,19.789-58.078,21.607C232.939,291.934,229.611,292.083,226.092,292.083z"/>
		</g>
	</g>
	<path display="inline" d="M14372.783,1051.961h-16737v-13953h16737V1051.961z M-2363.716,1050.961h16736l-0.5-13951h-16735.5
		l0.5,13951H-2363.716z"/>
</g>
<g id="linijsko" display="none">
	<g id="rde훾a7bela_copy" display="inline">
	</g>
</g>
<g id="pivot">
	<circle fill="none" cx="227.097" cy="345.232" r="14.133"/>
</g>
</svg>
