<?xml version="1.0" encoding="utf-8"?>
<!-- Generator: Adobe Illustrator 16.0.0, SVG Export Plug-In . SVG Version: 6.00 Build 0)  -->
<!DOCTYPE svg PUBLIC "-//W3C//DTD SVG 1.1//EN" "http://www.w3.org/Graphics/SVG/1.1/DTD/svg11.dtd">
<svg version="1.1" xmlns="http://www.w3.org/2000/svg" xmlns:xlink="http://www.w3.org/1999/xlink" x="0px" y="0px"
	 width="453.543px" height="453.543px" viewBox="0 0 453.543 453.543" enable-background="new 0 0 453.543 453.543"
	 xml:space="preserve">
<g id="kvadrat">
</g>
<g id="bg" display="none">
	<rect x="-1853.431" y="-4316.749" display="inline" width="15266.867" height="13678.951"/>
</g>
<g id="barvno" display="none">
	<g id="rde훾a7bela" display="inline">
	</g>
	<g display="inline">
		<g>
			<path fill="#57B2E5" d="M264.927,150.15c0,15.59-12.756,28.346-28.347,28.346h-19.615c-15.59,0-28.347-12.756-28.347-28.346
				v-7.607c0-15.59,12.756-28.346,28.347-28.346h19.615c15.59,0,28.347,12.756,28.347,28.346V150.15z"/>
			<path fill="none" stroke="#000000" stroke-width="8" stroke-linecap="round" stroke-linejoin="round" stroke-miterlimit="10" d="
				M264.927,150.15c0,15.59-12.756,28.346-28.347,28.346h-19.615c-15.59,0-28.347-12.756-28.347-28.346v-7.607
				c0-15.59,12.756-28.346,28.347-28.346h19.615c15.59,0,28.347,12.756,28.347,28.346V150.15z"/>
		</g>
		<g>
			<path fill="#0073B3" d="M286.983,152.489c15.59,0,28.347,12.756,28.347,28.346v163.828c0,15.59-12.756,28.346-28.347,28.346
				H166.563c-15.59,0-28.347-12.756-28.347-28.346V180.835c0-15.59,12.756-28.346,28.347-28.346H286.983z"/>
			<path fill="none" stroke="#000000" stroke-width="8" stroke-linecap="round" stroke-linejoin="round" stroke-miterlimit="10" d="
				M286.983,152.489c15.59,0,28.347,12.756,28.347,28.346v163.828c0,15.59-12.756,28.346-28.347,28.346H166.563
				c-15.59,0-28.347-12.756-28.347-28.346V180.835c0-15.59,12.756-28.346,28.347-28.346H286.983z"/>
		</g>
		
			<rect x="211.722" y="86.679" stroke="#000000" stroke-width="8" stroke-linecap="round" stroke-linejoin="round" stroke-miterlimit="10" width="30.103" height="27.303"/>
		
			<path fill="#FFFFFF" stroke="#000000" stroke-width="10" stroke-linecap="round" stroke-linejoin="round" stroke-miterlimit="10" d="
			M264.226,84.579h-64.406c0,0-29.403-9.101-49.705,0"/>
		<g>
			
				<line fill="none" stroke="#000000" stroke-width="8" stroke-linecap="round" stroke-linejoin="round" stroke-miterlimit="10" x1="138.214" y1="218.019" x2="315.158" y2="218.019"/>
		</g>
		<g>
			
				<line fill="none" stroke="#000000" stroke-width="8" stroke-linecap="round" stroke-linejoin="round" stroke-miterlimit="10" x1="138.214" y1="291.159" x2="315.158" y2="291.159"/>
		</g>
	</g>
	
		<rect x="-2363.716" y="-4736.758" display="inline" fill="none" stroke="#000000" stroke-miterlimit="10" width="16736" height="13952"/>
</g>
<g id="barvno_copy_2">
	<g id="rde훾a7bela_copy_4">
	</g>
	<g>
		<g>
			<path fill="#00FFFF" d="M264.927,150.15c0,15.59-12.756,28.346-28.347,28.346h-19.615c-15.59,0-28.347-12.756-28.347-28.346
				v-7.607c0-15.59,12.756-28.346,28.347-28.346h19.615c15.59,0,28.347,12.756,28.347,28.346V150.15z"/>
			<path d="M236.58,182.497h-19.615c-17.836,0-32.347-14.51-32.347-32.346v-7.607c0-17.836,14.511-32.346,32.347-32.346h19.615
				c17.836,0,32.347,14.51,32.347,32.346v7.607C268.927,167.986,254.416,182.497,236.58,182.497z M216.965,118.197
				c-13.425,0-24.347,10.922-24.347,24.346v7.607c0,13.424,10.922,24.346,24.347,24.346h19.615
				c13.425,0,24.347-10.922,24.347-24.346v-7.607c0-13.424-10.922-24.346-24.347-24.346H216.965z"/>
		</g>
		<g>
			<path fill="#2626FF" d="M286.983,152.489c15.59,0,28.347,12.756,28.347,28.346v163.828c0,15.59-12.756,28.346-28.347,28.346
				H166.563c-15.59,0-28.347-12.756-28.347-28.346V180.835c0-15.59,12.756-28.346,28.347-28.346H286.983z"/>
			<path d="M286.983,377.009H166.563c-17.836,0-32.347-14.51-32.347-32.346V180.835c0-17.836,14.511-32.346,32.347-32.346h120.421
				c17.836,0,32.347,14.51,32.347,32.346v163.828C319.33,362.499,304.819,377.009,286.983,377.009z M166.563,156.489
				c-13.425,0-24.347,10.922-24.347,24.346v163.828c0,13.424,10.922,24.346,24.347,24.346h120.421
				c13.425,0,24.347-10.922,24.347-24.346V180.835c0-13.424-10.922-24.346-24.347-24.346H166.563z"/>
		</g>
		<g>
			<rect x="211.722" y="86.679" fill="#00FFFF" width="30.103" height="27.303"/>
			<path d="M241.824,117.982h-30.103c-2.209,0-4-1.791-4-4V86.679c0-2.209,1.791-4,4-4h30.103c2.209,0,4,1.791,4,4v27.303
				C245.824,116.191,244.034,117.982,241.824,117.982z M215.722,109.982h22.103V90.679h-22.103V109.982z"/>
		</g>
		<path fill="#00FFFF" d="M150.117,90.58c-1.91,0-3.734-1.101-4.565-2.956c-1.129-2.52-0.002-5.479,2.517-6.608
			c20.146-9.031,47.492-1.871,52.475-0.438h63.682c2.761,0,5,2.239,5,5s-2.239,5-5,5h-64.406c-0.501,0-1-0.075-1.478-0.224
			c-0.273-0.083-27.875-8.42-46.182-0.214C151.496,90.439,150.8,90.58,150.117,90.58z"/>
		<path d="M315.158,222.019H138.214c-2.209,0-4-1.791-4-4s1.791-4,4-4h176.944c2.209,0,4,1.791,4,4S317.368,222.019,315.158,222.019
			z"/>
		<path d="M315.158,295.159H138.214c-2.209,0-4-1.791-4-4s1.791-4,4-4h176.944c2.209,0,4,1.791,4,4S317.368,295.159,315.158,295.159
			z"/>
	</g>
	<rect x="-2363.716" y="-4736.758" fill="none" stroke="#000000" stroke-miterlimit="10" width="16736" height="13952"/>
</g>
<g id="sivinsko" display="none">
	<g id="rde훾a7bela_copy_3" display="inline">
	</g>
	<g display="inline">
		<g>
			<g>
				<path fill="#9C9C9C" d="M264.927,150.15c0,15.59-12.756,28.346-28.347,28.346h-19.615c-15.59,0-28.347-12.756-28.347-28.346
					v-7.607c0-15.59,12.756-28.346,28.347-28.346h19.615c15.59,0,28.347,12.756,28.347,28.346V150.15z"/>
			</g>
			<path d="M236.58,182.497h-19.615c-17.836,0-32.347-14.51-32.347-32.346v-7.607c0-17.836,14.511-32.346,32.347-32.346h19.615
				c17.836,0,32.347,14.51,32.347,32.346v7.607C268.927,167.986,254.416,182.497,236.58,182.497z M216.965,118.197
				c-13.425,0-24.347,10.922-24.347,24.346v7.607c0,13.424,10.922,24.346,24.347,24.346h19.615
				c13.425,0,24.347-10.922,24.347-24.346v-7.607c0-13.424-10.922-24.346-24.347-24.346H216.965z"/>
		</g>
		<g>
			<g>
				<path fill="#585858" d="M286.983,152.489c15.59,0,28.347,12.756,28.347,28.346v163.828c0,15.59-12.756,28.346-28.347,28.346
					H166.563c-15.59,0-28.347-12.756-28.347-28.346V180.835c0-15.59,12.756-28.346,28.347-28.346H286.983z"/>
			</g>
			<path d="M286.983,377.009H166.563c-17.836,0-32.347-14.51-32.347-32.346V180.835c0-17.836,14.511-32.346,32.347-32.346h120.421
				c17.836,0,32.347,14.51,32.347,32.346v163.828C319.33,362.499,304.819,377.009,286.983,377.009z M166.563,156.489
				c-13.425,0-24.347,10.922-24.347,24.346v163.828c0,13.424,10.921,24.346,24.347,24.346h120.421
				c13.425,0,24.347-10.922,24.347-24.346V180.835c0-13.424-10.922-24.346-24.347-24.346H166.563z"/>
		</g>
		<g>
			<rect x="211.722" y="86.679" width="30.103" height="27.303"/>
			<path d="M241.824,117.982h-30.103c-2.209,0-4-1.791-4-4V86.679c0-2.209,1.791-4,4-4h30.103c2.209,0,4,1.791,4,4v27.303
				C245.824,116.191,244.034,117.982,241.824,117.982z M215.722,109.982h22.103V90.679h-22.103V109.982z"/>
		</g>
		<g>
			<path fill="#FFFFFF" d="M264.226,84.579h-64.406c0,0-29.403-9.101-49.705,0"/>
			<path d="M150.117,89.58c-1.91,0-3.734-1.101-4.565-2.956c-1.129-2.52-0.002-5.479,2.517-6.607
				c20.146-9.031,47.492-1.871,52.475-0.438h63.682c2.761,0,5,2.239,5,5s-2.239,5-5,5h-64.406c-0.501,0-1-0.075-1.478-0.224
				c-0.273-0.083-27.875-8.42-46.182-0.214C151.496,89.439,150.8,89.58,150.117,89.58z"/>
		</g>
		<path d="M315.158,222.019H138.214c-2.209,0-4-1.791-4-4s1.791-4,4-4h176.944c2.209,0,4,1.791,4,4S317.368,222.019,315.158,222.019
			z"/>
		<path d="M315.158,295.159H138.214c-2.209,0-4-1.791-4-4s1.791-4,4-4h176.944c2.209,0,4,1.791,4,4S317.368,295.159,315.158,295.159
			z"/>
	</g>
	<path display="inline" d="M14372.783,9215.742h-16737v-13953h16737V9215.742z M-2363.716,9214.742h16736l-0.5-13951h-16735.5
		l0.5,13951H-2363.716z"/>
</g>
<g id="linijsko" display="none">
	<g id="rde훾a7bela_copy" display="inline">
	</g>
	<g display="inline">
		<path fill="none" stroke="#000000" stroke-width="8" stroke-linecap="round" stroke-linejoin="round" stroke-miterlimit="10" d="
			M264.822,152.489c0.064-0.772,0.105-1.55,0.105-2.338v-7.607c0-15.59-12.756-28.346-28.347-28.346h-19.615
			c-15.59,0-28.347,12.756-28.347,28.346v7.607c0,0.788,0.041,1.566,0.105,2.338H264.822z"/>
		
			<rect x="211.722" y="86.679" fill="none" stroke="#000000" stroke-width="8" stroke-linecap="round" stroke-linejoin="round" stroke-miterlimit="10" width="30.103" height="27.303"/>
		<path fill="none" stroke="#000000" stroke-width="10" stroke-linecap="round" stroke-linejoin="round" stroke-miterlimit="10" d="
			M264.226,84.579h-64.406c0,0-29.403-9.101-49.705,0"/>
		<g>
			
				<line fill="none" stroke="#000000" stroke-width="8" stroke-linecap="round" stroke-linejoin="round" stroke-miterlimit="10" x1="138.214" y1="218.019" x2="315.158" y2="218.019"/>
		</g>
		<g>
			
				<line fill="none" stroke="#000000" stroke-width="8" stroke-linecap="round" stroke-linejoin="round" stroke-miterlimit="10" x1="138.214" y1="291.159" x2="315.158" y2="291.159"/>
		</g>
		<path fill="none" stroke="#000000" stroke-width="8" stroke-linecap="round" stroke-linejoin="round" stroke-miterlimit="10" d="
			M286.983,152.489c15.59,0,28.347,12.756,28.347,28.346v163.828c0,15.59-12.756,28.346-28.347,28.346H166.563
			c-15.59,0-28.347-12.756-28.347-28.346V180.835c0-15.59,12.756-28.346,28.347-28.346H286.983z"/>
	</g>
</g>
<g id="pivot">
	<circle fill="none" cx="222.737" cy="365.572" r="14.133"/>
</g>
</svg>
