<?xml version="1.0" encoding="utf-8"?>
<!-- Generator: Adobe Illustrator 16.0.0, SVG Export Plug-In . SVG Version: 6.00 Build 0)  -->
<!DOCTYPE svg PUBLIC "-//W3C//DTD SVG 1.1//EN" "http://www.w3.org/Graphics/SVG/1.1/DTD/svg11.dtd">
<svg version="1.1" xmlns="http://www.w3.org/2000/svg" xmlns:xlink="http://www.w3.org/1999/xlink" x="0px" y="0px" width="220px"
	 height="220px" viewBox="0 0 220 220" enable-background="new 0 0 220 220" xml:space="preserve">
<g id="bg" display="none">
	<rect x="-2245.836" y="-3381.787" display="inline" fill="#FFFFFF" width="3240.076" height="8444.104"/>
</g>
<g id="Layer_3" display="none">
</g>
<g id="Layer_1">
	<g>
		<defs>
			<rect id="SVGID_261_" x="-1800" y="-2400" width="220" height="220"/>
		</defs>
		<clipPath id="SVGID_2_">
			<use xlink:href="#SVGID_261_"  overflow="visible"/>
		</clipPath>
	</g>
	<g>
		<defs>
			<rect id="SVGID_263_" x="-600" y="-2400" width="220" height="220"/>
		</defs>
		<clipPath id="SVGID_4_">
			<use xlink:href="#SVGID_263_"  overflow="visible"/>
		</clipPath>
	</g>
	<g>
		<defs>
			<rect id="SVGID_265_" x="0" y="-2400" width="220" height="220"/>
		</defs>
		<clipPath id="SVGID_6_">
			<use xlink:href="#SVGID_265_"  overflow="visible"/>
		</clipPath>
	</g>
	<g>
		<defs>
			<rect id="SVGID_267_" x="-300" y="-2400" width="220" height="220"/>
		</defs>
		<clipPath id="SVGID_8_">
			<use xlink:href="#SVGID_267_"  overflow="visible"/>
		</clipPath>
	</g>
	<g>
		<defs>
			<rect id="SVGID_269_" x="-1500" y="-2400" width="220" height="220"/>
		</defs>
		<clipPath id="SVGID_10_">
			<use xlink:href="#SVGID_269_"  overflow="visible"/>
		</clipPath>
	</g>
	<g>
		<defs>
			<rect id="SVGID_271_" x="-900" y="-2400" width="220" height="220"/>
		</defs>
		<clipPath id="SVGID_12_">
			<use xlink:href="#SVGID_271_"  overflow="visible"/>
		</clipPath>
	</g>
	<g>
		<rect x="0" fill="#E9E3D8" width="220" height="220"/>
		
			<polygon fill="#F0E443" stroke="#000100" stroke-width="2.7864" stroke-linecap="round" stroke-linejoin="round" stroke-miterlimit="10" points="
			104,198.093 60.214,202.155 16.429,206.218 34.805,166.266 53.18,126.316 78.589,162.205 		"/>
		<g>
			
				<path fill="#009E73" stroke="#000100" stroke-width="2.5206" stroke-linecap="round" stroke-linejoin="round" stroke-miterlimit="10" d="
				M126.194,169.031c0,20.538,16.649,37.187,37.189,37.187c20.541,0,37.191-16.65,37.191-37.187
				c0-20.541-16.65-37.192-37.191-37.192C142.843,131.839,126.194,148.489,126.194,169.031z"/>
		</g>
		
			<rect x="52.764" y="13.413" transform="matrix(0.6823 -0.7311 0.7311 0.6823 -32.0356 80.6381)" fill="#CC78A7" stroke="#000100" stroke-width="2.7864" stroke-linecap="round" stroke-linejoin="round" stroke-miterlimit="10" width="48.005" height="127.533"/>
		
			<rect x="140.06" y="20.314" fill="#57B3E6" stroke="#000000" stroke-width="2.7864" stroke-miterlimit="10" width="60.664" height="60.664"/>
	</g>
</g>
</svg>
