<?xml version="1.0" encoding="utf-8"?>
<!-- Generator: Adobe Illustrator 16.0.0, SVG Export Plug-In . SVG Version: 6.00 Build 0)  -->
<!DOCTYPE svg PUBLIC "-//W3C//DTD SVG 1.1//EN" "http://www.w3.org/Graphics/SVG/1.1/DTD/svg11.dtd">
<svg version="1.1" xmlns="http://www.w3.org/2000/svg" xmlns:xlink="http://www.w3.org/1999/xlink" x="0px" y="0px"
	 width="219.998px" height="220px" viewBox="0 0 219.998 220" enable-background="new 0 0 219.998 220" xml:space="preserve">
<g id="bg">
</g>
<g id="Layer_1">
	<rect x="-2687.91" y="-105.918" fill="#009E73" width="3724.224" height="710.867"/>
	<g>
		<defs>
			<rect id="SVGID_445_" width="219.998" height="220"/>
		</defs>
		<clipPath id="SVGID_2_">
			<use xlink:href="#SVGID_445_"  overflow="visible"/>
		</clipPath>
		<circle clip-path="url(#SVGID_2_)" fill="#0073B3" cx="219.998" cy="0" r="40"/>
		<circle clip-path="url(#SVGID_2_)" fill="#0073B3" cx="-0.002" cy="0" r="40"/>
		<circle clip-path="url(#SVGID_2_)" fill="#0073B3" cx="219.998" cy="220" r="40"/>
		<circle clip-path="url(#SVGID_2_)" fill="#0073B3" cx="-0.002" cy="220" r="40"/>
		<g clip-path="url(#SVGID_2_)">
			<path fill="#FFFFFF" d="M109.998-30c16.542,0,30,13.458,30,30s-13.458,30-30,30s-30-13.458-30-30S93.456-30,109.998-30
				 M109.998-40c-22.09,0-40,17.908-40,40c0,22.09,17.91,40,40,40c22.092,0,40-17.91,40-40C149.998-22.092,132.09-40,109.998-40
				L109.998-40z"/>
		</g>
		<g clip-path="url(#SVGID_2_)">
			<path fill="#FFFFFF" d="M109.998,190c16.542,0,30,13.458,30,30s-13.458,30-30,30s-30-13.458-30-30S93.456,190,109.998,190
				 M109.998,180c-22.09,0-40,17.908-40,40c0,22.09,17.91,40,40,40c22.092,0,40-17.91,40-40C149.998,197.908,132.09,180,109.998,180
				L109.998,180z"/>
		</g>
		<g clip-path="url(#SVGID_2_)">
			<path fill="#0073B3" d="M109.998,80c16.542,0,30,13.458,30,30s-13.458,30-30,30s-30-13.458-30-30S93.456,80,109.998,80
				 M109.998,70c-22.09,0-40,17.908-40,40c0,22.09,17.91,40,40,40c22.092,0,40-17.91,40-40C149.998,87.908,132.09,70,109.998,70
				L109.998,70z"/>
		</g>
		<circle clip-path="url(#SVGID_2_)" fill="#FFFFFF" cx="219.998" cy="110" r="40"/>
		<circle clip-path="url(#SVGID_2_)" fill="#FFFFFF" cx="0" cy="110" r="40"/>
	</g>
</g>
</svg>
