<?xml version="1.0" encoding="utf-8"?>
<!-- Generator: Adobe Illustrator 16.0.0, SVG Export Plug-In . SVG Version: 6.00 Build 0)  -->
<!DOCTYPE svg PUBLIC "-//W3C//DTD SVG 1.1//EN" "http://www.w3.org/Graphics/SVG/1.1/DTD/svg11.dtd">
<svg version="1.1" xmlns="http://www.w3.org/2000/svg" xmlns:xlink="http://www.w3.org/1999/xlink" x="0px" y="0px"
	 width="405.688px" height="228.211px" viewBox="0 0 405.688 228.211" enable-background="new 0 0 405.688 228.211"
	 xml:space="preserve">
<g id="ozadje" display="none">
</g>
<g id="Layer_1">
	<g>
		<g>
			<path fill="#FFED00" d="M202.83,28.078c13.357,0,26.791,52.415,26.791,52.415c0.549,2.143,2.806,3.803,5.014,3.69
				c0,0,54.227-2.766,58.129,9.235c3.898,12.003-41.599,41.636-41.599,41.636c-1.854,1.207-2.725,3.885-1.935,5.951
				c0,0,19.383,50.725,9.182,58.137c-10.201,7.411-52.453-26.697-52.453-26.697c-1.721-1.389-4.565-1.426-6.321-0.081
				c0,0-43.448,33.273-52.39,26.778c-8.943-6.498,9.274-58.102,9.274-58.102c0.736-2.086-0.163-4.801-1.999-6.034
				c0,0-45.264-30.393-41.627-41.589s58.122-9.179,58.122-9.179c2.21,0.082,4.468-1.604,5.018-3.747
				C176.036,80.493,189.471,28.078,202.83,28.078z"/>
		</g>
		
			<path fill="#FFFFFF" stroke="#000000" stroke-width="2.0968" stroke-linecap="round" stroke-linejoin="round" stroke-miterlimit="10" d="
			M194.566,98.066c-3.879-3.883-10.176-3.883-14.057,0c-3.883,3.881-3.883,12.001,0,15.882c3.883,3.882,10.176,3.882,14.057,0
			C198.449,110.067,198.449,101.947,194.566,98.066z"/>
		<path d="M192.094,116.163c-2.252,2.252-7.117,2.253-9.369,0c-2.25-2.252-1.643-5.901,0.607-8.152c2.252-2.253,5.902-2.253,8.154,0
			C193.74,110.262,194.346,113.911,192.094,116.163z"/>
		
			<path fill="#FFFFFF" stroke="#000000" stroke-width="2.0968" stroke-linecap="round" stroke-linejoin="round" stroke-miterlimit="10" d="
			M225.119,98.066c-3.881-3.883-10.176-3.883-14.057,0c-3.885,3.881-3.883,12.001,0,15.882c3.881,3.882,10.176,3.882,14.057,0
			C229,110.067,229,101.947,225.119,98.066z"/>
		<path d="M222.646,116.163c-2.252,2.252-7.117,2.253-9.369,0c-2.25-2.252-1.645-5.901,0.607-8.152c2.252-2.253,5.902-2.253,8.154,0
			C224.291,110.262,224.896,113.911,222.646,116.163z"/>
		<g>
			
				<line fill="none" stroke="#000000" stroke-width="2.4462" stroke-linecap="round" stroke-linejoin="round" stroke-miterlimit="10" x1="179.43" y1="138.038" x2="186.182" y2="134.482"/>
			
				<line fill="none" stroke="#000000" stroke-width="2.4462" stroke-linecap="round" stroke-linejoin="round" stroke-miterlimit="10" x1="227.57" y1="138.038" x2="220.818" y2="134.482"/>
			
				<path fill="none" stroke="#000000" stroke-width="2.4462" stroke-linecap="round" stroke-linejoin="round" stroke-miterlimit="10" d="
				M182.805,136.262c0,0,1.367,17.337,20.475,17.337c19.109,0,20.473-17.337,20.473-17.337"/>
		</g>
	</g>
</g>
</svg>
