<?xml version="1.0" encoding="utf-8"?>
<!-- Generator: Adobe Illustrator 16.0.0, SVG Export Plug-In . SVG Version: 6.00 Build 0)  -->
<!DOCTYPE svg PUBLIC "-//W3C//DTD SVG 1.1//EN" "http://www.w3.org/Graphics/SVG/1.1/DTD/svg11.dtd">
<svg version="1.1" xmlns="http://www.w3.org/2000/svg" xmlns:xlink="http://www.w3.org/1999/xlink" x="0px" y="0px" width="530.5px"
	 height="597.37px" viewBox="0 0 530.5 597.37" enable-background="new 0 0 530.5 597.37" xml:space="preserve">
<g id="ozadje" display="none">
</g>
<g id="Layer_1">
	<g>
		<text transform="matrix(0.98 0 0 0.95 185.2578 235.4556)"><tspan x="0" y="0" fill="#32BCAD" font-family="'FiraSans-Regular'" font-size="96.707">Zaznaj</tspan><tspan x="0" y="97.943" fill="#32BCAD" font-family="'FiraSans-Regular'" font-size="96.707">Spoznaj</tspan></text>
	</g>
	<g>
		<g>
			<g>
				<path fill="#35A8DF" d="M308.711,566.979c0,0,0.368-0.015,1.013-0.04c0.645-0.026,1.575-0.049,2.645-0.15
					c2.159-0.169,5.038-0.395,7.917-0.621c1.397-0.077,3.001-0.317,4.413-0.47c1.433-0.169,2.771-0.327,3.917-0.462
					c2.292-0.271,3.82-0.451,3.82-0.451l2.75,23.28c0,0-1.528,0.181-3.821,0.452c-1.146,0.135-2.483,0.293-3.916,0.462
					c-1.457,0.158-2.9,0.379-4.576,0.488c-3.258,0.259-6.517,0.519-8.96,0.713c-1.229,0.112-2.224,0.138-2.924,0.167
					c-0.701,0.028-1.102,0.045-1.102,0.045L308.711,566.979z"/>
				<path fill="#203341" d="M250.512,563.621c0,0,1.457,0.229,3.643,0.574c1.093,0.173,2.368,0.375,3.733,0.591
					c1.369,0.191,2.837,0.339,4.301,0.518c2.933,0.318,5.854,0.745,8.063,0.892c2.206,0.17,3.678,0.284,3.678,0.284l-1.832,23.371
					c0,0-1.598-0.124-3.995-0.311c-2.399-0.164-5.576-0.618-8.763-0.967c-1.591-0.194-3.186-0.359-4.674-0.566
					c-1.485-0.233-2.871-0.451-4.059-0.638c-2.375-0.375-3.959-0.625-3.959-0.625L250.512,563.621z"/>
				<path fill="#32BCAD" d="M194.386,547.88c0,0,0.34,0.144,0.935,0.394c0.604,0.227,1.468,0.55,2.504,0.938
					c2.073,0.774,4.838,1.807,7.602,2.839c2.802,0.923,5.604,1.847,7.707,2.539c1.051,0.345,1.927,0.633,2.541,0.834
					c0.61,0.209,0.97,0.296,0.97,0.296l-6.807,22.433c0,0-0.39-0.096-1.054-0.322c-0.667-0.218-1.619-0.53-2.761-0.904
					c-2.284-0.753-5.328-1.757-8.373-2.762c-3.003-1.121-6.007-2.241-8.259-3.081c-1.125-0.423-2.063-0.776-2.719-1.022
					c-0.646-0.271-1.016-0.426-1.016-0.426L194.386,547.88z"/>
				<path fill="#FBD639" d="M142.833,520.488c0,0,4.843,3.15,9.686,6.3c5.319,3.086,10.638,6.173,10.638,6.173l-11.75,20.285
					c0,0-5.33-3.093-10.66-6.186c-5.486-3.552-10.972-7.104-10.972-7.104L142.833,520.488z"/>
				<path fill="#35A8DF" d="M98.351,482.872c0,0,0.25,0.271,0.687,0.746c0.432,0.479,1.057,1.157,1.86,1.919
					c1.579,1.55,3.684,3.616,5.789,5.683c1.058,1.028,2.09,2.083,3.103,3.024c1.034,0.918,2,1.774,2.827,2.509
					c1.654,1.47,2.757,2.449,2.757,2.449l-15.5,17.586c0,0-1.198-1.065-2.996-2.663c-0.898-0.799-1.946-1.731-3.069-2.73
					c-1.101-1.023-2.226-2.167-3.376-3.283c-2.287-2.247-4.574-4.494-6.29-6.18c-0.871-0.83-1.551-1.565-2.022-2.085
					c-0.476-0.516-0.748-0.81-0.748-0.81L98.351,482.872z"/>
				<path fill="#203341" d="M62.972,436.548c0,0,0.77,1.258,1.925,3.146c0.577,0.944,1.25,2.046,1.972,3.226
					c0.755,1.158,1.604,2.366,2.429,3.588c1.66,2.439,3.32,4.878,4.565,6.708c0.604,0.928,1.188,1.644,1.571,2.163
					c0.389,0.515,0.611,0.809,0.611,0.809l-18.915,13.849c0,0-0.241-0.32-0.664-0.88c-0.416-0.564-1.046-1.345-1.706-2.351
					c-1.354-1.987-3.158-4.637-4.963-7.286c-0.896-1.329-1.815-2.643-2.635-3.902c-0.785-1.281-1.518-2.477-2.146-3.501
					c-1.255-2.05-2.092-3.417-2.092-3.417L62.972,436.548z"/>
				<path fill="#32BCAD" d="M38.201,383.757c0,0,0.1,0.356,0.321,0.962c0.226,0.605,0.549,1.469,0.938,2.505
					c0.774,2.074,1.806,4.839,2.838,7.604c0.262,0.69,0.505,1.387,0.778,2.06c0.287,0.667,0.569,1.324,0.842,1.96
					c0.546,1.271,1.055,2.458,1.492,3.475c0.872,2.035,1.453,3.391,1.453,3.391l-21.433,9.497c0,0-0.632-1.473-1.58-3.682
					c-0.473-1.104-1.025-2.394-1.617-3.774c-0.295-0.69-0.601-1.404-0.911-2.129c-0.296-0.731-0.563-1.487-0.848-2.236
					c-1.121-3.002-2.242-6.004-3.083-8.256c-0.419-1.126-0.769-2.064-1.014-2.722c-0.239-0.659-0.349-1.044-0.349-1.044
					L38.201,383.757z"/>
				<path fill="#FBD639" d="M25.315,326.879c0,0,0.174,1.465,0.435,3.663c0.142,1.097,0.256,2.385,0.469,3.751
					c0.23,1.364,0.475,2.819,0.72,4.274c0.488,2.911,0.976,5.822,1.341,8.005c0.469,2.163,0.782,3.605,0.782,3.605l-22.959,4.735
					c0,0-0.337-1.566-0.844-3.916c-0.399-2.37-0.931-5.53-1.462-8.69c-0.265-1.581-0.529-3.161-0.777-4.642
					c-0.23-1.484-0.36-2.882-0.514-4.074c-0.285-2.387-0.475-3.978-0.475-3.978L25.315,326.879z"/>
				<path fill="#35A8DF" d="M24.688,268.581c0,0-0.442,5.884-0.884,11.768c-0.184,2.944-0.181,5.897-0.264,8.108
					c-0.059,2.212-0.099,3.687-0.099,3.687L0,291.884c0,0,0.042-1.602,0.104-4.006c0.087-2.402,0.094-5.611,0.292-8.81
					c0.481-6.394,0.963-12.788,0.963-12.788L24.688,268.581z"/>
				<path fill="#203341" d="M36.709,211.547c0,0-0.469,1.398-1.173,3.497c-0.681,2.105-1.411,4.966-2.225,7.8
					c-0.398,1.42-0.796,2.841-1.169,4.172c-0.186,0.666-0.366,1.31-0.536,1.92c-0.14,0.618-0.272,1.203-0.394,1.742
					c-0.488,2.158-0.813,3.597-0.813,3.597l-22.84-5.283c0,0,0.355-1.563,0.888-3.908c0.133-0.586,0.278-1.221,0.431-1.893
					c0.184-0.664,0.378-1.364,0.579-2.088c0.404-1.448,0.836-2.992,1.267-4.536c0.883-3.082,1.686-6.188,2.424-8.476
					c0.762-2.28,1.27-3.801,1.27-3.801L36.709,211.547z"/>
				<path fill="#32BCAD" d="M60.615,158.314c0,0-0.771,1.332-1.928,3.33c-0.579,0.999-1.253,2.164-1.977,3.413
					c-0.592,1.151-1.224,2.378-1.856,3.605c-1.349,2.627-2.699,5.253-3.71,7.224c-0.505,0.985-0.941,1.799-1.188,2.397
					c-0.265,0.588-0.417,0.925-0.417,0.925l-21.185-10.038c0,0,0.165-0.365,0.454-1.004c0.271-0.647,0.74-1.532,1.287-2.602
					c1.097-2.137,2.56-4.987,4.023-7.837c0.366-0.712,0.732-1.424,1.093-2.125c0.181-0.35,0.359-0.698,0.536-1.042l0.264-0.512
					l0.065-0.127l0.213-0.379l0.136-0.235c0.723-1.249,1.398-2.414,1.977-3.413c1.157-1.998,1.928-3.33,1.928-3.33L60.615,158.314z"
					/>
				<path fill="#FBD639" d="M95.141,111.373c0,0-0.979,1.104-2.448,2.758c-1.457,1.665-3.459,3.834-5.364,6.086
					c-3.694,4.602-7.388,9.204-7.388,9.204l-18.587-14.285c0,0,4.014-5,8.028-10c2.069-2.448,4.24-4.81,5.825-6.619
					c1.598-1.797,2.663-2.995,2.663-2.995L95.141,111.373z"/>
				<path fill="#35A8DF" d="M138.959,72.943c0,0-0.305,0.207-0.839,0.57c-0.527,0.372-1.315,0.855-2.184,1.541
					c-1.766,1.333-4.12,3.111-6.474,4.89c-1.177,0.89-2.353,1.78-3.456,2.614c-1.061,0.887-2.051,1.715-2.9,2.424
					c-1.698,1.418-2.831,2.363-2.831,2.363l-15.089-17.941c0,0,1.231-1.027,3.077-2.568c0.923-0.77,2.001-1.668,3.155-2.63
					c1.197-0.908,2.475-1.877,3.751-2.846c2.56-1.931,5.119-3.862,7.039-5.31c0.947-0.742,1.8-1.271,2.372-1.676
					c0.58-0.395,0.911-0.621,0.911-0.621L138.959,72.943z"/>
				<path fill="#203341" d="M190.013,44.78c0,0-1.356,0.582-3.391,1.454c-2.031,0.879-4.771,1.984-7.397,3.333
					c-2.654,1.292-5.308,2.583-7.298,3.551c-0.996,0.483-1.83,0.878-2.387,1.206c-0.566,0.31-0.889,0.488-0.889,0.488L157.748,34.06
					c0,0,0.351-0.192,0.966-0.528c0.607-0.353,1.511-0.785,2.592-1.311c2.161-1.052,5.043-2.455,7.924-3.858
					c2.856-1.458,5.827-2.667,8.033-3.622c2.209-0.947,3.682-1.579,3.682-1.579L190.013,44.78z"/>
				<path fill="#32BCAD" d="M245.881,28.052c0,0-0.364,0.061-1,0.167c-0.64,0.088-1.54,0.293-2.621,0.53
					c-2.163,0.471-5.047,1.098-7.932,1.726c-2.899,0.565-5.734,1.394-7.875,1.958c-2.138,0.573-3.563,0.955-3.563,0.955
					l-6.25-22.594c0,0,1.548-0.415,3.869-1.038c2.324-0.613,5.404-1.503,8.55-2.125c3.131-0.681,6.263-1.362,8.612-1.872
					c1.174-0.256,2.151-0.475,2.846-0.574c0.691-0.117,1.086-0.184,1.086-0.184L245.881,28.052z"/>
				<path fill="#FBD639" d="M304.021,23.643c0,0-1.475-0.039-3.687-0.098c-1.106-0.03-2.396-0.064-3.779-0.102
					c-1.383-0.009-2.857,0.055-4.333,0.079c-2.949,0.064-5.899,0.129-8.112,0.178c-1.107,0.003-2.026,0.094-2.67,0.136
					c-0.645,0.046-1.012,0.072-1.012,0.072l-1.309-23.406c0,0,0.399-0.028,1.099-0.077c0.7-0.045,1.698-0.14,2.9-0.146
					c2.403-0.054,5.608-0.125,8.813-0.197c1.603-0.025,3.204-0.09,4.707-0.08c1.502,0.039,2.904,0.075,4.105,0.105
					c2.403,0.063,4.006,0.105,4.006,0.105L304.021,23.643z"/>
				<path fill="#35A8DF" d="M361.755,31.654c0,0-5.754-1.304-11.508-2.608c-1.432-0.36-2.893-0.575-4.253-0.819
					c-1.362-0.238-2.634-0.46-3.724-0.651c-2.179-0.382-3.632-0.637-3.632-0.637l3.733-23.143c0,0,1.579,0.276,3.948,0.69
					c1.185,0.208,2.565,0.45,4.046,0.71c1.479,0.267,3.065,0.506,4.623,0.893c6.254,1.419,12.508,2.837,12.508,2.837L361.755,31.654
					z"/>
				<path fill="#203341" d="M416.4,51.999c0,0-1.313-0.674-3.283-1.687c-2.019-0.91-4.71-2.122-7.401-3.335
					c-2.695-1.203-5.36-2.479-7.446-3.226c-2.061-0.806-3.435-1.344-3.435-1.344l8.607-21.805c0,0,1.492,0.585,3.73,1.462
					c2.263,0.819,5.159,2.194,8.086,3.5c2.92,1.319,5.841,2.638,8.03,3.627c2.139,1.094,3.564,1.824,3.564,1.824L416.4,51.999z"/>
				<path fill="#32BCAD" d="M465.55,83.399c0,0-1.154-0.919-2.885-2.299c-0.865-0.689-1.876-1.492-2.958-2.353
					c-1.124-0.807-2.322-1.668-3.521-2.528c-2.396-1.724-4.791-3.447-6.588-4.74c-0.893-0.672-1.662-1.108-2.19-1.466
					c-0.53-0.343-0.834-0.539-0.834-0.539l12.913-19.565c0,0,0.343,0.222,0.943,0.611c0.587,0.397,1.488,0.923,2.443,1.638
					c1.952,1.403,4.555,3.274,7.157,5.145c1.301,0.937,2.602,1.873,3.82,2.751c1.178,0.934,2.276,1.805,3.218,2.552
					c1.881,1.498,3.135,2.497,3.135,2.497L465.55,83.399z"/>
				<path fill="#FBD639" d="M506.904,124.474c0,0-3.815-4.5-7.631-9c-1.927-2.233-4.007-4.33-5.497-5.964
					c-1.51-1.617-2.517-2.695-2.517-2.695l16.885-16.261c0,0,1.096,1.171,2.737,2.927c1.622,1.775,3.876,4.061,5.972,6.486
					c4.146,4.892,8.293,9.784,8.293,9.784L506.904,124.474z"/>
			</g>
		</g>
	</g>
	<g>
		<g>
			<g>
				<path fill="#FFED00" d="M377.733,382.909c16.642,0,33.384,65.306,33.384,65.306c0.685,2.669,3.495,4.739,6.248,4.598
					c0,0,67.567-3.448,72.426,11.504c4.862,14.958-51.829,51.886-51.829,51.886c-2.309,1.504-3.394,4.841-2.41,7.416
					c0,0,24.152,63.204,11.439,72.437c-12.713,9.239-65.359-33.263-65.359-33.263c-2.145-1.731-5.688-1.776-7.877-0.101
					c0,0-54.139,41.458-65.276,33.364c-11.146-8.093,11.557-72.393,11.557-72.393c0.917-2.599-0.204-5.981-2.491-7.518
					c0,0-56.402-37.872-51.87-51.828c4.53-13.947,72.427-11.435,72.427-11.435c2.754,0.102,5.566-1.999,6.251-4.668
					C344.352,448.215,361.09,382.909,377.733,382.909z"/>
			</g>
			
				<path fill="#FFFFFF" stroke="#000000" stroke-width="2.6126" stroke-linecap="round" stroke-linejoin="round" stroke-miterlimit="10" d="
				M367.437,470.11c-4.835-4.836-12.681-4.836-17.517,0c-4.838,4.837-4.835,14.952,0.003,19.794c4.833,4.833,12.679,4.833,17.514,0
				C372.275,485.063,372.275,474.947,367.437,470.11z"/>
			<path d="M364.355,492.663c-2.805,2.8-8.867,2.803-11.674,0c-2.8-2.81-2.047-7.358,0.759-10.162c2.806-2.803,7.354-2.803,10.163,0
				C366.409,485.305,367.159,489.854,364.355,492.663z"/>
			
				<path fill="#FFFFFF" stroke="#000000" stroke-width="2.6126" stroke-linecap="round" stroke-linejoin="round" stroke-miterlimit="10" d="
				M405.508,470.11c-4.836-4.836-12.679-4.836-17.517,0c-4.84,4.837-4.838,14.952,0,19.794c4.838,4.833,12.681,4.833,17.517,0
				C410.344,485.063,410.344,474.947,405.508,470.11z"/>
			<path d="M402.424,492.663c-2.803,2.8-8.864,2.803-11.676,0c-2.805-2.81-2.045-7.358,0.763-10.162
				c2.804-2.803,7.349-2.803,10.159,0C404.473,485.305,405.232,489.854,402.424,492.663z"/>
			<g>
				
					<line fill="none" stroke="#000000" stroke-width="3.0481" stroke-linecap="round" stroke-linejoin="round" stroke-miterlimit="10" x1="348.576" y1="519.918" x2="356.988" y2="515.486"/>
				
					<line fill="none" stroke="#000000" stroke-width="3.0481" stroke-linecap="round" stroke-linejoin="round" stroke-miterlimit="10" x1="408.562" y1="519.918" x2="400.147" y2="515.486"/>
				
					<path fill="none" stroke="#000000" stroke-width="3.0481" stroke-linecap="round" stroke-linejoin="round" stroke-miterlimit="10" d="
					M352.781,517.705c0,0,1.704,21.603,25.515,21.603c23.812,0,25.507-21.603,25.507-21.603"/>
			</g>
		</g>
	</g>
</g>
</svg>
