<?xml version="1.0" encoding="utf-8"?>
<!-- Generator: Adobe Illustrator 16.0.0, SVG Export Plug-In . SVG Version: 6.00 Build 0)  -->
<!DOCTYPE svg PUBLIC "-//W3C//DTD SVG 1.1//EN" "http://www.w3.org/Graphics/SVG/1.1/DTD/svg11.dtd">
<svg version="1.1" id="Layer_1" xmlns="http://www.w3.org/2000/svg" xmlns:xlink="http://www.w3.org/1999/xlink" x="0px" y="0px"
	 width="577.111px" height="597.371px" viewBox="0 0 577.111 597.371" enable-background="new 0 0 577.111 597.371"
	 xml:space="preserve">
<g id="ozadje" display="none">
</g>
<g id="Layer_1_1_">
	<g>
		<g enable-background="new    ">
			<path fill="#32BCAD" d="M238.352,191.724c0,14.516-11.122,20.487-25.821,20.487h-8.414v23.244h-9.188v-63.301h17.505
				C228.487,172.155,238.352,178.402,238.352,191.724z M228.584,191.816c0-9.463-6.383-12.862-16.247-12.862h-8.221v26.368h8.027
				C222.008,205.321,228.584,202.565,228.584,191.816z"/>
			<path fill="#32BCAD" d="M286.996,214.141h-32.495c0.87,11.208,6.383,15.526,13.733,15.526c5.029,0,8.8-1.286,13.249-4.226
				l3.869,5.053c-5.029,3.767-10.735,6.063-17.795,6.063c-14.216,0-22.533-9.463-22.533-24.806c0-15.067,8.027-25.816,21.179-25.816
				c13.733,0,20.986,9.095,20.986,23.887C287.189,211.477,287.092,213.039,286.996,214.141z M278.388,207.342
				c0-9.463-3.965-14.7-11.992-14.7c-6.77,0-11.218,4.502-11.895,15.251h23.887V207.342z"/>
			<path fill="#32BCAD" d="M329.062,186.487l-1.645,8.269c-1.547-0.368-2.61-0.551-4.447-0.551c-6.384,0-10.059,4.318-12.186,13.597
				v27.654h-8.898v-48.417h7.641l0.87,9.83c2.708-7.258,7.446-10.933,13.636-10.933C325.677,185.936,327.515,186.12,329.062,186.487
				z"/>
			<path fill="#32BCAD" d="M372.386,191.173l-4.256,5.329c-3.48-2.389-6.672-3.583-10.928-3.583
				c-8.027,0-13.056,5.972-13.056,18.558c0,12.679,5.028,17.916,13.056,17.916c4.256,0,7.254-1.286,11.025-3.767l4.158,5.604
				c-4.545,3.491-9.671,5.329-15.57,5.329c-13.732,0-22.243-9.279-22.243-24.897c0-15.435,8.413-25.725,22.243-25.725
				C362.812,185.936,367.647,187.406,372.386,191.173z"/>
			<path fill="#32BCAD" d="M421.804,214.141H389.31c0.869,11.208,6.383,15.526,13.732,15.526c5.029,0,8.801-1.286,13.249-4.226
				l3.868,5.053c-5.029,3.767-10.734,6.063-17.795,6.063c-14.216,0-22.533-9.463-22.533-24.806c0-15.067,8.027-25.816,21.18-25.816
				c13.732,0,20.986,9.095,20.986,23.887C421.997,211.477,421.9,213.039,421.804,214.141z M413.196,207.342
				c0-9.463-3.965-14.7-11.992-14.7c-6.77,0-11.219,4.502-11.895,15.251h23.887V207.342z"/>
			<path fill="#32BCAD" d="M447.331,169.583c0,3.215-2.514,5.696-6.286,5.696c-3.675,0-6.189-2.481-6.189-5.696
				c0-3.308,2.515-5.788,6.189-5.788C444.817,163.794,447.331,166.275,447.331,169.583z M445.591,235.456h-8.897v-48.417h8.897
				V235.456z"/>
			<path fill="#32BCAD" d="M484.08,235.456h-10.734l-17.602-48.417h9.671l13.347,40.883l13.249-40.883h9.381L484.08,235.456z"/>
			<path fill="#32BCAD" d="M548.874,214.141H516.38c0.87,11.208,6.383,15.526,13.732,15.526c5.029,0,8.801-1.286,13.25-4.226
				l3.868,5.053c-5.029,3.767-10.735,6.063-17.795,6.063c-14.217,0-22.533-9.463-22.533-24.806c0-15.067,8.026-25.816,21.18-25.816
				c13.732,0,20.985,9.095,20.985,23.887C549.067,211.477,548.971,213.039,548.874,214.141z M540.268,207.342
				c0-9.463-3.966-14.7-11.992-14.7c-6.77,0-11.219,4.502-11.896,15.251h23.888V207.342z"/>
		</g>
		<g enable-background="new    ">
			<path fill="#32BCAD" d="M236.708,270.345l-5.029,5.604c-4.159-3.216-8.22-4.686-12.862-4.686
				c-10.058,0-18.472,6.431-18.472,25.541c0,18.283,8.027,25.449,18.375,25.449c6.286,0,10.348-2.665,14.12-5.329l4.642,5.604
				c-3.579,3.583-10.058,7.074-19.052,7.074c-16.15,0-27.853-11.484-27.853-32.799c0-21.406,12.573-32.707,27.659-32.707
				C226.65,264.097,231.389,266.302,236.708,270.345z"/>
			<path fill="#32BCAD" d="M289.413,304.246c0,14.976-8.317,25.357-22.727,25.357c-14.506,0-22.727-9.922-22.727-25.266
				c0-14.975,8.317-25.356,22.823-25.356C281.29,278.981,289.413,288.903,289.413,304.246z M253.534,304.337
				c0,12.587,4.642,18.467,13.152,18.467c8.511,0,13.153-5.88,13.153-18.559c0-12.586-4.642-18.466-13.056-18.466
				C258.272,285.779,253.534,291.659,253.534,304.337z"/>
			<path fill="#32BCAD" d="M342.892,293.772V328.5h-8.896v-33.534c0-7.258-3.096-9.371-8.027-9.371
				c-5.706,0-9.574,3.399-12.959,8.544v34.36h-8.897v-48.417h7.64l0.773,7.166c3.482-4.961,8.898-8.269,15.57-8.269
				C337.477,278.981,342.892,284.585,342.892,293.772z"/>
			<path fill="#32BCAD" d="M394.92,284.218l-4.255,5.329c-3.482-2.389-6.674-3.583-10.929-3.583
				c-8.026,0-13.056,5.972-13.056,18.559c0,12.678,5.029,17.915,13.056,17.915c4.255,0,7.253-1.286,11.024-3.767l4.159,5.604
				c-4.546,3.491-9.671,5.329-15.57,5.329c-13.733,0-22.243-9.279-22.243-24.897c0-15.435,8.414-25.725,22.243-25.725
				C385.346,278.981,390.181,280.451,394.92,284.218z"/>
			<path fill="#32BCAD" d="M444.338,307.186h-32.495c0.871,11.208,6.383,15.526,13.733,15.526c5.028,0,8.801-1.286,13.249-4.227
				l3.868,5.054c-5.028,3.767-10.734,6.063-17.794,6.063c-14.217,0-22.533-9.463-22.533-24.806c0-15.067,8.026-25.816,21.179-25.816
				c13.733,0,20.986,9.095,20.986,23.887C444.531,304.522,444.435,306.083,444.338,307.186z M435.73,300.387
				c0-9.463-3.965-14.7-11.992-14.7c-6.77,0-11.218,4.502-11.896,15.251h23.888V300.387z"/>
			<path fill="#32BCAD" d="M469.866,262.627c0,3.215-2.514,5.696-6.286,5.696c-3.675,0-6.189-2.481-6.189-5.696
				c0-3.308,2.515-5.788,6.189-5.788C467.353,256.839,469.866,259.32,469.866,262.627z M468.126,328.5h-8.897v-48.417h8.897V328.5z"
				/>
			<path fill="#32BCAD" d="M506.614,328.5H495.88l-17.602-48.417h9.671l13.347,40.884l13.249-40.884h9.381L506.614,328.5z"/>
			<path fill="#32BCAD" d="M571.408,307.186h-32.494c0.87,11.208,6.383,15.526,13.732,15.526c5.029,0,8.801-1.286,13.25-4.227
				l3.868,5.054c-5.029,3.767-10.735,6.063-17.795,6.063c-14.217,0-22.533-9.463-22.533-24.806c0-15.067,8.026-25.816,21.18-25.816
				c13.732,0,20.985,9.095,20.985,23.887C571.602,304.522,571.505,306.083,571.408,307.186z M562.802,300.387
				c0-9.463-3.966-14.7-11.992-14.7c-6.771,0-11.219,4.502-11.896,15.251h23.888V300.387z"/>
		</g>
	</g>
	<g>
		<g>
			<g>
				<path fill="#35A8DF" d="M308.711,566.978c0,0,0.368-0.014,1.013-0.039c0.646-0.025,1.575-0.049,2.646-0.15
					c2.159-0.168,5.038-0.395,7.917-0.621c1.396-0.076,3.001-0.316,4.413-0.469c1.433-0.17,2.771-0.328,3.917-0.463
					c2.292-0.271,3.82-0.451,3.82-0.451l2.75,23.281c0,0-1.528,0.18-3.822,0.451c-1.146,0.135-2.482,0.293-3.915,0.463
					c-1.457,0.156-2.9,0.379-4.576,0.486c-3.258,0.26-6.517,0.52-8.96,0.713c-1.229,0.113-2.225,0.139-2.924,0.168
					c-0.701,0.027-1.102,0.045-1.102,0.045L308.711,566.978z"/>
				<path fill="#203341" d="M250.512,563.621c0,0,1.457,0.229,3.643,0.574c1.093,0.174,2.368,0.375,3.733,0.592
					c1.369,0.189,2.837,0.338,4.301,0.518c2.933,0.318,5.854,0.744,8.063,0.893c2.206,0.17,3.678,0.283,3.678,0.283l-1.832,23.371
					c0,0-1.598-0.125-3.995-0.311c-2.399-0.164-5.576-0.619-8.763-0.967c-1.591-0.195-3.186-0.359-4.674-0.566
					c-1.485-0.232-2.871-0.451-4.059-0.639c-2.375-0.375-3.959-0.625-3.959-0.625L250.512,563.621z"/>
				<path fill="#32BCAD" d="M194.386,547.88c0,0,0.34,0.145,0.935,0.395c0.604,0.227,1.468,0.549,2.504,0.938
					c2.073,0.773,4.838,1.807,7.602,2.838c2.802,0.924,5.604,1.848,7.707,2.539c1.051,0.346,1.927,0.633,2.541,0.834
					c0.61,0.209,0.97,0.297,0.97,0.297l-6.807,22.434c0,0-0.39-0.098-1.054-0.322c-0.667-0.219-1.619-0.531-2.761-0.904
					c-2.284-0.754-5.328-1.758-8.373-2.762c-3.003-1.121-6.007-2.242-8.259-3.082c-1.125-0.422-2.063-0.775-2.719-1.021
					c-0.646-0.271-1.016-0.426-1.016-0.426L194.386,547.88z"/>
				<path fill="#FBD639" d="M142.833,520.488c0,0,4.843,3.15,9.686,6.301c5.319,3.086,10.638,6.172,10.638,6.172l-11.75,20.285
					c0,0-5.33-3.092-10.66-6.186c-5.486-3.553-10.972-7.104-10.972-7.104L142.833,520.488z"/>
				<path fill="#35A8DF" d="M98.351,482.873c0,0,0.25,0.27,0.687,0.746c0.432,0.479,1.057,1.156,1.86,1.918
					c1.579,1.551,3.684,3.617,5.789,5.684c1.058,1.027,2.09,2.082,3.103,3.023c1.034,0.918,2,1.773,2.827,2.51
					c1.654,1.469,2.757,2.449,2.757,2.449l-15.5,17.586c0,0-1.198-1.066-2.996-2.664c-0.898-0.799-1.946-1.73-3.069-2.73
					c-1.101-1.021-2.226-2.166-3.376-3.281c-2.287-2.248-4.574-4.494-6.29-6.182c-0.871-0.83-1.551-1.564-2.022-2.084
					c-0.476-0.516-0.748-0.811-0.748-0.811L98.351,482.873z"/>
				<path fill="#203341" d="M62.972,436.548c0,0,0.77,1.258,1.925,3.146c0.577,0.943,1.25,2.045,1.972,3.225
					c0.755,1.158,1.604,2.367,2.429,3.588c1.66,2.439,3.32,4.879,4.565,6.709c0.604,0.928,1.188,1.645,1.571,2.162
					c0.389,0.516,0.611,0.811,0.611,0.811L57.13,470.037c0,0-0.241-0.32-0.664-0.879c-0.416-0.564-1.046-1.346-1.706-2.352
					c-1.354-1.986-3.158-4.637-4.963-7.287c-0.896-1.328-1.815-2.643-2.635-3.9c-0.785-1.281-1.518-2.479-2.146-3.502
					c-1.255-2.049-2.092-3.416-2.092-3.416L62.972,436.548z"/>
				<path fill="#32BCAD" d="M38.201,383.757c0,0,0.1,0.355,0.321,0.961c0.226,0.605,0.549,1.469,0.938,2.506
					c0.774,2.074,1.806,4.838,2.838,7.604c0.262,0.689,0.505,1.387,0.778,2.061c0.287,0.666,0.569,1.324,0.842,1.959
					c0.546,1.271,1.055,2.459,1.492,3.477c0.872,2.035,1.453,3.391,1.453,3.391L25.43,415.21c0,0-0.632-1.473-1.58-3.682
					c-0.473-1.104-1.025-2.395-1.617-3.773c-0.295-0.689-0.601-1.404-0.911-2.129c-0.296-0.732-0.563-1.488-0.848-2.236
					c-1.121-3.002-2.242-6.004-3.083-8.256c-0.419-1.127-0.769-2.064-1.014-2.723c-0.239-0.658-0.349-1.043-0.349-1.043
					L38.201,383.757z"/>
				<path fill="#FBD639" d="M25.315,326.878c0,0,0.174,1.465,0.435,3.664c0.142,1.096,0.256,2.385,0.469,3.75
					c0.23,1.365,0.475,2.82,0.72,4.275c0.488,2.91,0.976,5.82,1.341,8.004c0.469,2.164,0.782,3.605,0.782,3.605l-22.959,4.734
					c0,0-0.337-1.566-0.844-3.916c-0.399-2.369-0.931-5.529-1.462-8.689c-0.265-1.582-0.529-3.162-0.777-4.643
					c-0.23-1.484-0.36-2.881-0.514-4.074c-0.285-2.387-0.475-3.977-0.475-3.977L25.315,326.878z"/>
				<path fill="#35A8DF" d="M24.688,268.581c0,0-0.442,5.884-0.884,11.768c-0.184,2.944-0.181,5.897-0.264,8.108
					c-0.059,2.212-0.099,3.687-0.099,3.687L0,291.884c0,0,0.042-1.602,0.104-4.006c0.087-2.402,0.094-5.611,0.292-8.81
					c0.481-6.394,0.963-12.788,0.963-12.788L24.688,268.581z"/>
				<path fill="#203341" d="M36.709,211.547c0,0-0.469,1.398-1.173,3.497c-0.681,2.105-1.411,4.966-2.225,7.8
					c-0.398,1.421-0.796,2.841-1.169,4.172c-0.186,0.666-0.366,1.31-0.536,1.92c-0.14,0.618-0.272,1.203-0.394,1.742
					c-0.488,2.158-0.813,3.597-0.813,3.597l-22.84-5.283c0,0,0.355-1.563,0.888-3.908c0.133-0.586,0.278-1.221,0.431-1.893
					c0.184-0.664,0.378-1.364,0.579-2.088c0.404-1.448,0.836-2.992,1.267-4.536c0.883-3.082,1.686-6.188,2.424-8.476
					c0.762-2.28,1.27-3.801,1.27-3.801L36.709,211.547z"/>
				<path fill="#32BCAD" d="M60.615,158.314c0,0-0.771,1.332-1.928,3.33c-0.579,0.999-1.253,2.164-1.977,3.413
					c-0.592,1.15-1.224,2.378-1.856,3.605c-1.349,2.627-2.699,5.253-3.71,7.224c-0.505,0.985-0.941,1.799-1.188,2.397
					c-0.265,0.589-0.417,0.925-0.417,0.925L28.354,169.17c0,0,0.165-0.365,0.454-1.004c0.271-0.647,0.74-1.532,1.287-2.602
					c1.097-2.137,2.56-4.987,4.023-7.837c0.366-0.712,0.732-1.424,1.093-2.125c0.181-0.35,0.359-0.698,0.536-1.042l0.264-0.512
					l0.065-0.127l0.213-0.379l0.136-0.235c0.723-1.249,1.398-2.414,1.977-3.413c1.157-1.998,1.928-3.33,1.928-3.33L60.615,158.314z"
					/>
				<path fill="#FBD639" d="M95.141,111.373c0,0-0.979,1.104-2.448,2.758c-1.457,1.665-3.459,3.834-5.364,6.086
					c-3.694,4.602-7.388,9.204-7.388,9.204l-18.587-14.285c0,0,4.014-5,8.028-10c2.069-2.448,4.24-4.81,5.825-6.619
					c1.598-1.797,2.663-2.995,2.663-2.995L95.141,111.373z"/>
				<path fill="#35A8DF" d="M138.959,72.943c0,0-0.305,0.207-0.839,0.57c-0.527,0.372-1.315,0.855-2.184,1.541
					c-1.766,1.333-4.12,3.111-6.474,4.89c-1.177,0.89-2.353,1.78-3.456,2.614c-1.061,0.887-2.051,1.715-2.9,2.424
					c-1.698,1.418-2.831,2.363-2.831,2.363l-15.089-17.941c0,0,1.231-1.027,3.077-2.568c0.923-0.77,2.001-1.668,3.155-2.63
					c1.197-0.908,2.475-1.877,3.751-2.846c2.56-1.931,5.119-3.862,7.039-5.31c0.947-0.742,1.8-1.271,2.372-1.676
					c0.58-0.395,0.911-0.621,0.911-0.621L138.959,72.943z"/>
				<path fill="#203341" d="M190.013,44.78c0,0-1.356,0.582-3.391,1.454c-2.031,0.879-4.771,1.984-7.397,3.333
					c-2.654,1.292-5.308,2.583-7.298,3.551c-0.996,0.483-1.83,0.878-2.387,1.205c-0.566,0.311-0.889,0.488-0.889,0.488
					L157.748,34.06c0,0,0.351-0.192,0.966-0.528c0.607-0.353,1.511-0.785,2.592-1.311c2.161-1.052,5.043-2.455,7.924-3.858
					c2.856-1.458,5.827-2.667,8.033-3.622c2.209-0.947,3.682-1.579,3.682-1.579L190.013,44.78z"/>
				<path fill="#32BCAD" d="M245.881,28.052c0,0-0.364,0.061-1,0.167c-0.64,0.088-1.54,0.293-2.621,0.53
					c-2.163,0.471-5.047,1.098-7.932,1.726c-2.899,0.565-5.734,1.394-7.875,1.958c-2.138,0.573-3.563,0.955-3.563,0.955
					l-6.25-22.594c0,0,1.548-0.415,3.869-1.038c2.324-0.613,5.404-1.503,8.55-2.125c3.131-0.681,6.263-1.362,8.612-1.872
					c1.174-0.256,2.151-0.475,2.846-0.574c0.691-0.117,1.086-0.184,1.086-0.184L245.881,28.052z"/>
				<path fill="#FBD639" d="M304.021,23.643c0,0-1.475-0.039-3.687-0.098c-1.106-0.03-2.396-0.064-3.778-0.102
					c-1.384-0.009-2.857,0.055-4.334,0.079c-2.949,0.064-5.898,0.129-8.112,0.178c-1.107,0.003-2.026,0.094-2.67,0.136
					c-0.645,0.046-1.012,0.072-1.012,0.072l-1.309-23.406c0,0,0.399-0.028,1.099-0.077c0.7-0.045,1.698-0.14,2.9-0.146
					c2.403-0.054,5.608-0.125,8.813-0.197c1.604-0.025,3.204-0.09,4.707-0.08c1.502,0.039,2.904,0.075,4.105,0.105
					c2.402,0.063,4.006,0.105,4.006,0.105L304.021,23.643z"/>
				<path fill="#35A8DF" d="M361.755,31.654c0,0-5.754-1.304-11.508-2.608c-1.432-0.36-2.893-0.575-4.253-0.819
					c-1.362-0.238-2.634-0.46-3.724-0.651c-2.18-0.382-3.633-0.637-3.633-0.637l3.733-23.143c0,0,1.579,0.276,3.948,0.69
					c1.185,0.208,2.564,0.45,4.046,0.71c1.479,0.267,3.065,0.506,4.622,0.893c6.255,1.419,12.509,2.837,12.509,2.837L361.755,31.654
					z"/>
				<path fill="#203341" d="M416.399,51.999c0,0-1.313-0.674-3.282-1.687c-2.019-0.91-4.71-2.122-7.401-3.335
					c-2.695-1.203-5.359-2.479-7.445-3.226c-2.062-0.806-3.436-1.344-3.436-1.344l8.607-21.805c0,0,1.492,0.585,3.729,1.462
					c2.263,0.819,5.159,2.194,8.086,3.5c2.921,1.319,5.841,2.638,8.03,3.627c2.139,1.094,3.563,1.824,3.563,1.824L416.399,51.999z"
					/>
				<path fill="#32BCAD" d="M465.55,83.399c0,0-1.153-0.919-2.885-2.299c-0.865-0.689-1.876-1.492-2.958-2.353
					c-1.124-0.807-2.322-1.668-3.521-2.528c-2.396-1.724-4.791-3.447-6.588-4.74c-0.893-0.672-1.662-1.108-2.189-1.466
					c-0.53-0.343-0.834-0.539-0.834-0.539l12.913-19.565c0,0,0.343,0.222,0.942,0.611c0.587,0.397,1.488,0.923,2.443,1.638
					c1.952,1.403,4.555,3.274,7.157,5.145c1.301,0.938,2.602,1.873,3.819,2.751c1.179,0.934,2.276,1.805,3.219,2.552
					c1.881,1.498,3.135,2.497,3.135,2.497L465.55,83.399z"/>
				<path fill="#FBD639" d="M506.904,124.474c0,0-3.815-4.5-7.631-9c-1.928-2.233-4.008-4.33-5.497-5.964
					c-1.511-1.617-2.518-2.695-2.518-2.695l16.885-16.261c0,0,1.097,1.171,2.737,2.927c1.622,1.775,3.876,4.061,5.972,6.486
					c4.146,4.892,8.294,9.784,8.294,9.784L506.904,124.474z"/>
			</g>
		</g>
	</g>
	<g>
		<g>
			<g>
				<path fill="#FFED00" d="M377.733,382.91c16.642,0,33.384,65.305,33.384,65.305c0.685,2.67,3.495,4.74,6.248,4.598
					c0,0,67.566-3.447,72.426,11.506c4.862,14.957-51.829,51.885-51.829,51.885c-2.309,1.504-3.394,4.842-2.41,7.416
					c0,0,24.152,63.205,11.439,72.438c-12.713,9.238-65.359-33.264-65.359-33.264c-2.145-1.73-5.688-1.775-7.877-0.1
					c0,0-54.139,41.457-65.275,33.363c-11.146-8.094,11.557-72.393,11.557-72.393c0.917-2.6-0.204-5.982-2.491-7.52
					c0,0-56.402-37.871-51.87-51.826c4.53-13.947,72.428-11.436,72.428-11.436c2.754,0.102,5.565-2,6.25-4.668
					C344.353,448.214,361.09,382.91,377.733,382.91z"/>
			</g>
			
				<path fill="#FFFFFF" stroke="#000000" stroke-width="2.6126" stroke-linecap="round" stroke-linejoin="round" stroke-miterlimit="10" d="
				M367.437,470.111c-4.834-4.836-12.681-4.836-17.517,0c-4.838,4.836-4.835,14.951,0.003,19.793c4.833,4.834,12.68,4.834,17.514,0
				C372.274,485.062,372.274,474.947,367.437,470.111z"/>
			<path d="M364.354,492.664c-2.805,2.799-8.867,2.803-11.674,0c-2.8-2.811-2.047-7.359,0.76-10.162
				c2.806-2.803,7.354-2.803,10.162,0C366.409,485.304,367.159,489.853,364.354,492.664z"/>
			
				<path fill="#FFFFFF" stroke="#000000" stroke-width="2.6126" stroke-linecap="round" stroke-linejoin="round" stroke-miterlimit="10" d="
				M405.508,470.111c-4.836-4.836-12.679-4.836-17.517,0c-4.84,4.836-4.838,14.951,0,19.793c4.838,4.834,12.681,4.834,17.517,0
				C410.344,485.062,410.344,474.947,405.508,470.111z"/>
			<path d="M402.424,492.664c-2.803,2.799-8.864,2.803-11.676,0c-2.806-2.811-2.045-7.359,0.763-10.162
				c2.805-2.803,7.35-2.803,10.159,0C404.474,485.304,405.231,489.853,402.424,492.664z"/>
			<g>
				
					<line fill="none" stroke="#000000" stroke-width="3.0481" stroke-linecap="round" stroke-linejoin="round" stroke-miterlimit="10" x1="348.576" y1="519.917" x2="356.987" y2="515.486"/>
				
					<line fill="none" stroke="#000000" stroke-width="3.0481" stroke-linecap="round" stroke-linejoin="round" stroke-miterlimit="10" x1="408.562" y1="519.917" x2="400.147" y2="515.486"/>
				
					<path fill="none" stroke="#000000" stroke-width="3.0481" stroke-linecap="round" stroke-linejoin="round" stroke-miterlimit="10" d="
					M352.781,517.705c0,0,1.704,21.604,25.515,21.604c23.813,0,25.508-21.604,25.508-21.604"/>
			</g>
		</g>
	</g>
</g>
</svg>
