<?xml version="1.0" encoding="utf-8"?>
<!-- Generator: Adobe Illustrator 16.0.0, SVG Export Plug-In . SVG Version: 6.00 Build 0)  -->
<!DOCTYPE svg PUBLIC "-//W3C//DTD SVG 1.1//EN" "http://www.w3.org/Graphics/SVG/1.1/DTD/svg11.dtd">
<svg version="1.1" xmlns="http://www.w3.org/2000/svg" xmlns:xlink="http://www.w3.org/1999/xlink" x="0px" y="0px" width="220px"
	 height="220px" viewBox="0 0 220 220" enable-background="new 0 0 220 220" xml:space="preserve">
<g id="bg" display="none">
	<rect x="-2845.836" y="-2181.787" display="inline" fill="#FFFFFF" width="3240.076" height="8444.104"/>
</g>
<g id="Layer_3" display="none">
</g>
<g id="Layer_1">
	<g>
		<defs>
			<rect id="SVGID_261_" x="-2400" y="-1200" width="220" height="220"/>
		</defs>
		<clipPath id="SVGID_2_">
			<use xlink:href="#SVGID_261_"  overflow="visible"/>
		</clipPath>
	</g>
	<g>
		<defs>
			<rect id="SVGID_263_" x="-1200" y="-1200" width="220" height="220"/>
		</defs>
		<clipPath id="SVGID_4_">
			<use xlink:href="#SVGID_263_"  overflow="visible"/>
		</clipPath>
	</g>
	<g>
		<defs>
			<rect id="SVGID_265_" x="-600" y="-1200" width="220" height="220"/>
		</defs>
		<clipPath id="SVGID_6_">
			<use xlink:href="#SVGID_265_"  overflow="visible"/>
		</clipPath>
	</g>
	<g>
		<defs>
			<rect id="SVGID_267_" x="-900" y="-1200" width="220" height="220"/>
		</defs>
		<clipPath id="SVGID_8_">
			<use xlink:href="#SVGID_267_"  overflow="visible"/>
		</clipPath>
	</g>
	<g>
		<defs>
			<rect id="SVGID_269_" x="-2100" y="-1200" width="220" height="220"/>
		</defs>
		<clipPath id="SVGID_10_">
			<use xlink:href="#SVGID_269_"  overflow="visible"/>
		</clipPath>
	</g>
	<g>
		<defs>
			<rect id="SVGID_271_" x="-1500" y="-1200" width="220" height="220"/>
		</defs>
		<clipPath id="SVGID_12_">
			<use xlink:href="#SVGID_271_"  overflow="visible"/>
		</clipPath>
	</g>
	<g>
		<defs>
			<rect id="SVGID_333_" x="0" width="220.001" height="220"/>
		</defs>
		<clipPath id="SVGID_14_">
			<use xlink:href="#SVGID_333_"  overflow="visible"/>
		</clipPath>
		<g clip-path="url(#SVGID_14_)">
			<g>
				<rect x="0" fill="#EAC6DA" width="220.001" height="220"/>
			</g>
		</g>
		<g clip-path="url(#SVGID_14_)">
			
				<polygon fill="#7F4F25" stroke="#000100" stroke-width="2" stroke-linecap="round" stroke-linejoin="round" stroke-miterlimit="10" points="
				36.632,48.407 20.714,-5.146 52.55,-5.146 			"/>
		</g>
		<g clip-path="url(#SVGID_14_)">
			
				<polygon fill="#7F4F25" stroke="#000100" stroke-width="2" stroke-linecap="round" stroke-linejoin="round" stroke-miterlimit="10" points="
				184.007,48.407 168.089,-5.146 199.925,-5.146 			"/>
		</g>
		<g clip-path="url(#SVGID_14_)">
			
				<polygon fill="#7F4F25" stroke="#000100" stroke-width="2" stroke-linecap="round" stroke-linejoin="round" stroke-miterlimit="10" points="
				36.632,268.407 20.714,214.854 52.55,214.854 			"/>
			
				<path fill="#CA77A5" stroke="#000100" stroke-width="2" stroke-linecap="round" stroke-linejoin="round" stroke-miterlimit="10" d="
				M36.625,204.852c0,6.903,1.875,12.5-12.501,12.5c-6.904,0-12.502-5.598-12.502-12.5c0-6.905,5.598-12.501,12.502-12.501
				S36.625,197.947,36.625,204.852z"/>
			
				<path fill="#E59F01" stroke="#000100" stroke-width="2" stroke-linecap="round" stroke-linejoin="round" stroke-miterlimit="10" d="
				M61.003,204.852c0,6.903-5.598,12.5-12.502,12.5c-15.001,0-12.501-5.598-12.501-12.5c0-6.905,5.597-12.501,12.501-12.501
				S61.003,197.947,61.003,204.852z"/>
			
				<circle fill="#C9B99F" stroke="#000100" stroke-width="2" stroke-linecap="round" stroke-linejoin="round" stroke-miterlimit="10" cx="36.631" cy="192.038" r="12.501"/>
		</g>
		<g clip-path="url(#SVGID_14_)">
			
				<polygon fill="#7F4F25" stroke="#000100" stroke-width="2" stroke-linecap="round" stroke-linejoin="round" stroke-miterlimit="10" points="
				184.007,268.407 168.089,214.854 199.925,214.854 			"/>
			
				<path fill="#CA77A5" stroke="#000100" stroke-width="2" stroke-linecap="round" stroke-linejoin="round" stroke-miterlimit="10" d="
				M183.999,204.852c0,6.903,1.876,12.5-12.5,12.5c-6.904,0-12.502-5.598-12.502-12.5c0-6.905,5.598-12.501,12.502-12.501
				S183.999,197.947,183.999,204.852z"/>
			
				<path fill="#E59F01" stroke="#000100" stroke-width="2" stroke-linecap="round" stroke-linejoin="round" stroke-miterlimit="10" d="
				M208.378,204.852c0,6.903-5.598,12.5-12.502,12.5c-15.001,0-12.501-5.598-12.501-12.5c0-6.905,5.597-12.501,12.501-12.501
				S208.378,197.947,208.378,204.852z"/>
			
				<circle fill="#C9B99F" stroke="#000100" stroke-width="2" stroke-linecap="round" stroke-linejoin="round" stroke-miterlimit="10" cx="184.006" cy="192.038" r="12.501"/>
		</g>
		
			<circle clip-path="url(#SVGID_14_)" fill="#CA77A5" stroke="#000100" stroke-width="2" stroke-linecap="round" stroke-linejoin="round" stroke-miterlimit="10" cx="219.608" cy="113.788" r="16.499"/>
		
			<circle clip-path="url(#SVGID_14_)" fill="#CA77A5" stroke="#000100" stroke-width="2" stroke-linecap="round" stroke-linejoin="round" stroke-miterlimit="10" cx="107.666" cy="113.788" r="13.199"/>
		
			<circle clip-path="url(#SVGID_14_)" fill="#CA77A5" stroke="#000100" stroke-width="2" stroke-linecap="round" stroke-linejoin="round" stroke-miterlimit="10" cx="-0.392" cy="113.788" r="16.499"/>
		<g clip-path="url(#SVGID_14_)">
			
				<polygon fill="#7F4F25" stroke="#000100" stroke-width="2" stroke-linecap="round" stroke-linejoin="round" stroke-miterlimit="10" points="
				159.042,147.071 143.124,93.518 174.959,93.518 			"/>
			
				<path fill="#CA77A5" stroke="#000100" stroke-width="2" stroke-linecap="round" stroke-linejoin="round" stroke-miterlimit="10" d="
				M159.034,83.516c0,6.902,1.875,12.5-12.5,12.5c-6.904,0-12.502-5.598-12.502-12.5c0-6.904,5.598-12.502,12.502-12.502
				S159.034,76.612,159.034,83.516z"/>
			
				<path fill="#E59F01" stroke="#000100" stroke-width="2" stroke-linecap="round" stroke-linejoin="round" stroke-miterlimit="10" d="
				M183.413,83.516c0,6.902-5.598,12.5-12.502,12.5c-15.002,0-12.502-5.598-12.502-12.5c0-6.904,5.598-12.502,12.502-12.502
				S183.413,76.612,183.413,83.516z"/>
			
				<circle fill="#C9B99F" stroke="#000100" stroke-width="2" stroke-linecap="round" stroke-linejoin="round" stroke-miterlimit="10" cx="159.041" cy="70.702" r="12.501"/>
		</g>
		<g clip-path="url(#SVGID_14_)">
			
				<polygon fill="#7F4F25" stroke="#000100" stroke-width="2" stroke-linecap="round" stroke-linejoin="round" stroke-miterlimit="10" points="
				61.597,147.071 45.679,93.518 77.515,93.518 			"/>
			
				<path fill="#CA77A5" stroke="#000100" stroke-width="2" stroke-linecap="round" stroke-linejoin="round" stroke-miterlimit="10" d="
				M61.589,83.516c0,6.902,1.875,12.5-12.5,12.5c-6.904,0-12.502-5.598-12.502-12.5c0-6.904,5.598-12.502,12.502-12.502
				S61.589,76.612,61.589,83.516z"/>
			
				<path fill="#E59F01" stroke="#000100" stroke-width="2" stroke-linecap="round" stroke-linejoin="round" stroke-miterlimit="10" d="
				M85.968,83.516c0,6.902-5.598,12.5-12.502,12.5c-15.002,0-12.502-5.598-12.502-12.5c0-6.904,5.598-12.502,12.502-12.502
				S85.968,76.612,85.968,83.516z"/>
			
				<circle fill="#C9B99F" stroke="#000100" stroke-width="2" stroke-linecap="round" stroke-linejoin="round" stroke-miterlimit="10" cx="61.596" cy="70.702" r="12.501"/>
		</g>
		<g clip-path="url(#SVGID_14_)">
			
				<path fill="#AB5D2D" stroke="#000100" stroke-width="2" stroke-linecap="round" stroke-linejoin="round" stroke-miterlimit="10" d="
				M105.145,157.193c0-3.221,2.61-5.832,5.83-5.832l0,0c3.221,0,5.831,2.611,5.831,5.832v36.329c0,3.22-2.61,5.83-5.831,5.83l0,0
				c-3.22,0-5.83-2.61-5.83-5.83V157.193z"/>
			
				<path fill="#C9B99F" stroke="#000100" stroke-width="2" stroke-linecap="round" stroke-linejoin="round" stroke-miterlimit="10" d="
				M93.708,196.422c0-5.316,4.31-9.627,9.627-9.627h15.281c5.316,0,9.627,4.311,9.627,9.627v33.902
				c0,4.371-2.466,20.056-17.268,20.056c-14.801,0-17.268-14.737-17.268-20.056V196.422z"/>
			
				<path fill="#422A19" stroke="#000100" stroke-width="2" stroke-linecap="round" stroke-linejoin="round" stroke-miterlimit="10" d="
				M93.708,198.456v31.869c0,5.319,2.467,20.056,17.268,20.056c14.802,0,17.268-15.686,17.268-20.056v-31.869H93.708z"/>
		</g>
		<g clip-path="url(#SVGID_14_)">
			
				<path fill="#C9B99F" stroke="#000100" stroke-width="2" stroke-linecap="round" stroke-linejoin="round" stroke-miterlimit="10" d="
				M93.708-23.578c0-5.316,4.31-9.627,9.627-9.627h15.281c5.316,0,9.627,4.311,9.627,9.627v33.902
				c0,4.371-2.466,20.056-17.268,20.056c-14.801,0-17.268-14.737-17.268-20.056V-23.578z"/>
			
				<path fill="#422A19" stroke="#000100" stroke-width="2" stroke-linecap="round" stroke-linejoin="round" stroke-miterlimit="10" d="
				M93.708-21.544v31.869c0,5.319,2.467,20.056,17.268,20.056c14.802,0,17.268-15.686,17.268-20.056v-31.869H93.708z"/>
		</g>
	</g>
</g>
</svg>
