<?xml version="1.0" encoding="utf-8"?>
<!-- Generator: Adobe Illustrator 16.0.0, SVG Export Plug-In . SVG Version: 6.00 Build 0)  -->
<!DOCTYPE svg PUBLIC "-//W3C//DTD SVG 1.1//EN" "http://www.w3.org/Graphics/SVG/1.1/DTD/svg11.dtd">
<svg version="1.1" xmlns="http://www.w3.org/2000/svg" xmlns:xlink="http://www.w3.org/1999/xlink" x="0px" y="0px" width="220px"
	 height="220px" viewBox="0 0 220 220" enable-background="new 0 0 220 220" xml:space="preserve">
<g id="bg" display="none">
	<rect x="-1645.836" y="-2181.787" display="inline" fill="#FFFFFF" width="3240.076" height="8444.104"/>
</g>
<g id="Layer_3" display="none">
</g>
<g id="Layer_1">
	<g>
		<defs>
			<rect id="SVGID_261_" x="-1200" y="-1200" width="220" height="220"/>
		</defs>
		<clipPath id="SVGID_2_">
			<use xlink:href="#SVGID_261_"  overflow="visible"/>
		</clipPath>
	</g>
	<g>
		<defs>
			<rect id="SVGID_263_" y="-1200" width="220" height="220"/>
		</defs>
		<clipPath id="SVGID_4_">
			<use xlink:href="#SVGID_263_"  overflow="visible"/>
		</clipPath>
	</g>
	<g>
		<defs>
			<rect id="SVGID_269_" x="-900" y="-1200" width="220" height="220"/>
		</defs>
		<clipPath id="SVGID_6_">
			<use xlink:href="#SVGID_269_"  overflow="visible"/>
		</clipPath>
	</g>
	<g>
		<defs>
			<rect id="SVGID_271_" x="-300" y="-1200" width="220" height="220"/>
		</defs>
		<clipPath id="SVGID_8_">
			<use xlink:href="#SVGID_271_"  overflow="visible"/>
		</clipPath>
	</g>
	<g>
		<defs>
			<rect id="SVGID_327_" x="0" width="220.001" height="220"/>
		</defs>
		<clipPath id="SVGID_10_">
			<use xlink:href="#SVGID_327_"  overflow="visible"/>
		</clipPath>
		<g clip-path="url(#SVGID_10_)">
			<g>
				<rect x="0" fill="#EAC6DA" width="220.001" height="220"/>
			</g>
		</g>
		
			<circle clip-path="url(#SVGID_10_)" fill="#CA77A5" stroke="#000100" stroke-width="2" stroke-linecap="round" stroke-linejoin="round" stroke-miterlimit="10" cx="220" cy="220" r="16.499"/>
		
			<circle clip-path="url(#SVGID_10_)" fill="#CA77A5" stroke="#000100" stroke-width="2" stroke-linecap="round" stroke-linejoin="round" stroke-miterlimit="10" cx="0" cy="220" r="16.499"/>
		
			<circle clip-path="url(#SVGID_10_)" fill="#CA77A5" stroke="#000100" stroke-width="2" stroke-linecap="round" stroke-linejoin="round" stroke-miterlimit="10" cx="220" cy="0" r="16.499"/>
		
			<circle clip-path="url(#SVGID_10_)" fill="#CA77A5" stroke="#000100" stroke-width="2" stroke-linecap="round" stroke-linejoin="round" stroke-miterlimit="10" cx="0" cy="0" r="16.499"/>
		
			<circle clip-path="url(#SVGID_10_)" fill="none" stroke="#000100" stroke-width="2" stroke-linecap="round" stroke-linejoin="round" stroke-miterlimit="10" cx="54.259" cy="52.666" r="9.899"/>
		
			<circle clip-path="url(#SVGID_10_)" fill="none" stroke="#000100" stroke-width="2" stroke-linecap="round" stroke-linejoin="round" stroke-miterlimit="10" cx="161.723" cy="158.527" r="9.899"/>
		<g clip-path="url(#SVGID_10_)">
			
				<polygon fill="#7F4F25" stroke="#000100" stroke-width="2" stroke-linecap="round" stroke-linejoin="round" stroke-miterlimit="10" points="
				109.047,152.436 93.129,98.883 124.965,98.883 			"/>
			
				<path fill="#CA77A5" stroke="#000100" stroke-width="2" stroke-linecap="round" stroke-linejoin="round" stroke-miterlimit="10" d="
				M109.041,88.88c0,6.903,1.875,12.5-12.501,12.5c-6.904,0-12.502-5.598-12.502-12.5c0-6.905,5.598-12.501,12.502-12.501
				S109.041,81.976,109.041,88.88z"/>
			
				<path fill="#E59F01" stroke="#000100" stroke-width="2" stroke-linecap="round" stroke-linejoin="round" stroke-miterlimit="10" d="
				M133.418,88.88c0,6.903-5.598,12.5-12.502,12.5c-15.001,0-12.501-5.598-12.501-12.5c0-6.905,5.597-12.501,12.501-12.501
				S133.418,81.976,133.418,88.88z"/>
			
				<circle fill="#C9B99F" stroke="#000100" stroke-width="2" stroke-linecap="round" stroke-linejoin="round" stroke-miterlimit="10" cx="109.046" cy="76.066" r="12.501"/>
		</g>
		<g clip-path="url(#SVGID_10_)">
			
				<polygon fill="#7F4F25" stroke="#000100" stroke-width="2" stroke-linecap="round" stroke-linejoin="round" stroke-miterlimit="10" points="
				-0.319,65.564 15.599,119.117 -16.237,119.117 			"/>
			
				<path fill="#CA77A5" stroke="#000100" stroke-width="2" stroke-linecap="round" stroke-linejoin="round" stroke-miterlimit="10" d="
				M-0.312,129.12c0-6.903-1.875-12.501,12.501-12.501c6.904,0,12.502,5.598,12.502,12.501c0,6.904-5.598,12.501-12.502,12.501
				S-0.312,136.024-0.312,129.12z"/>
			
				<path fill="#E59F01" stroke="#000100" stroke-width="2" stroke-linecap="round" stroke-linejoin="round" stroke-miterlimit="10" d="
				M-24.69,129.12c0-6.903,5.598-12.501,12.502-12.501c15.001,0,12.501,5.598,12.501,12.501c0,6.904-5.597,12.501-12.501,12.501
				S-24.69,136.024-24.69,129.12z"/>
			
				<circle fill="#C9B99F" stroke="#000100" stroke-width="2" stroke-linecap="round" stroke-linejoin="round" stroke-miterlimit="10" cx="-0.318" cy="141.934" r="12.501"/>
		</g>
		<g clip-path="url(#SVGID_10_)">
			
				<polygon fill="#7F4F25" stroke="#000100" stroke-width="2" stroke-linecap="round" stroke-linejoin="round" stroke-miterlimit="10" points="
				219.681,65.564 235.599,119.117 203.763,119.117 			"/>
			
				<path fill="#CA77A5" stroke="#000100" stroke-width="2" stroke-linecap="round" stroke-linejoin="round" stroke-miterlimit="10" d="
				M219.688,129.12c0-6.903-1.875-12.501,12.501-12.501c6.904,0,12.502,5.598,12.502,12.501c0,6.904-5.598,12.501-12.502,12.501
				S219.688,136.024,219.688,129.12z"/>
			
				<path fill="#E59F01" stroke="#000100" stroke-width="2" stroke-linecap="round" stroke-linejoin="round" stroke-miterlimit="10" d="
				M195.31,129.12c0-6.903,5.598-12.501,12.502-12.501c15.001,0,12.501,5.598,12.501,12.501c0,6.904-5.597,12.501-12.501,12.501
				S195.31,136.024,195.31,129.12z"/>
			
				<circle fill="#C9B99F" stroke="#000100" stroke-width="2" stroke-linecap="round" stroke-linejoin="round" stroke-miterlimit="10" cx="219.682" cy="141.934" r="12.501"/>
		</g>
		<g clip-path="url(#SVGID_10_)">
			
				<polygon fill="#7F4F25" stroke="#000100" stroke-width="2" stroke-linecap="round" stroke-linejoin="round" stroke-miterlimit="10" points="
				110.32,258.406 94.402,204.854 126.237,204.854 			"/>
			
				<path fill="#CA77A5" stroke="#000100" stroke-width="2" stroke-linecap="round" stroke-linejoin="round" stroke-miterlimit="10" d="
				M110.312,194.852c0,6.902,1.875,12.5-12.5,12.5c-6.904,0-12.502-5.598-12.502-12.5c0-6.904,5.598-12.502,12.502-12.502
				S110.312,187.947,110.312,194.852z"/>
			
				<path fill="#E59F01" stroke="#000100" stroke-width="2" stroke-linecap="round" stroke-linejoin="round" stroke-miterlimit="10" d="
				M134.691,194.852c0,6.902-5.598,12.5-12.502,12.5c-15.002,0-12.502-5.598-12.502-12.5c0-6.904,5.598-12.502,12.502-12.502
				S134.691,187.947,134.691,194.852z"/>
			
				<circle fill="#C9B99F" stroke="#000100" stroke-width="2" stroke-linecap="round" stroke-linejoin="round" stroke-miterlimit="10" cx="110.319" cy="182.037" r="12.501"/>
		</g>
		<g clip-path="url(#SVGID_10_)">
			
				<polygon fill="#7F4F25" stroke="#000100" stroke-width="2" stroke-linecap="round" stroke-linejoin="round" stroke-miterlimit="10" points="
				110.32,38.406 94.402,-15.146 126.237,-15.146 			"/>
		</g>
	</g>
</g>
</svg>
