<?xml version="1.0" encoding="utf-8"?>
<!-- Generator: Adobe Illustrator 16.0.0, SVG Export Plug-In . SVG Version: 6.00 Build 0)  -->
<!DOCTYPE svg PUBLIC "-//W3C//DTD SVG 1.1//EN" "http://www.w3.org/Graphics/SVG/1.1/DTD/svg11.dtd">
<svg version="1.1" xmlns="http://www.w3.org/2000/svg" xmlns:xlink="http://www.w3.org/1999/xlink" x="0px" y="0px" width="220px"
	 height="220px" viewBox="0 0 220 220" enable-background="new 0 0 220 220" xml:space="preserve">
<g id="bg" display="none">
	<rect x="-1345.836" y="-2181.787" display="inline" fill="#FFFFFF" width="3240.076" height="8444.104"/>
</g>
<g id="Layer_3" display="none">
</g>
<g id="Layer_1">
	<g>
		<defs>
			<rect id="SVGID_261_" x="-900" y="-1200" width="220" height="220"/>
		</defs>
		<clipPath id="SVGID_2_">
			<use xlink:href="#SVGID_261_"  overflow="visible"/>
		</clipPath>
	</g>
	<g>
		<defs>
			<rect id="SVGID_269_" x="-600" y="-1200" width="220" height="220"/>
		</defs>
		<clipPath id="SVGID_4_">
			<use xlink:href="#SVGID_269_"  overflow="visible"/>
		</clipPath>
	</g>
	<g>
		<defs>
			<rect id="SVGID_271_" x="0" y="-1200" width="220" height="220"/>
		</defs>
		<clipPath id="SVGID_6_">
			<use xlink:href="#SVGID_271_"  overflow="visible"/>
		</clipPath>
	</g>
	<g>
		<defs>
			<rect id="SVGID_325_" x="0" width="220.001" height="220"/>
		</defs>
		<clipPath id="SVGID_8_">
			<use xlink:href="#SVGID_325_"  overflow="visible"/>
		</clipPath>
		<g clip-path="url(#SVGID_8_)">
			<g>
				<rect x="0" fill="#EAC6DA" width="220.001" height="220"/>
			</g>
		</g>
		<g clip-path="url(#SVGID_8_)">
			
				<polygon fill="#7F4F25" stroke="#000100" stroke-width="2" stroke-linecap="round" stroke-linejoin="round" stroke-miterlimit="10" points="
				109.047,149.407 93.129,95.854 124.965,95.854 			"/>
			
				<path fill="#CA77A5" stroke="#000100" stroke-width="2" stroke-linecap="round" stroke-linejoin="round" stroke-miterlimit="10" d="
				M109.041,85.852c0,6.903,1.875,12.5-12.501,12.5c-6.904,0-12.502-5.598-12.502-12.5c0-6.905,5.598-12.501,12.502-12.501
				S109.041,78.947,109.041,85.852z"/>
			
				<path fill="#E59F01" stroke="#000100" stroke-width="2" stroke-linecap="round" stroke-linejoin="round" stroke-miterlimit="10" d="
				M133.418,85.852c0,6.903-5.598,12.5-12.502,12.5c-15.001,0-12.501-5.598-12.501-12.5c0-6.905,5.597-12.501,12.501-12.501
				S133.418,78.947,133.418,85.852z"/>
			
				<circle fill="#C9B99F" stroke="#000100" stroke-width="2" stroke-linecap="round" stroke-linejoin="round" stroke-miterlimit="10" cx="109.046" cy="73.038" r="12.501"/>
		</g>
		<g clip-path="url(#SVGID_8_)">
			
				<polygon fill="#7F4F25" stroke="#000100" stroke-width="2" stroke-linecap="round" stroke-linejoin="round" stroke-miterlimit="10" points="
				110.32,258.406 94.402,204.854 126.237,204.854 			"/>
			
				<path fill="#CA77A5" stroke="#000100" stroke-width="2" stroke-linecap="round" stroke-linejoin="round" stroke-miterlimit="10" d="
				M110.312,194.852c0,6.902,1.875,12.5-12.5,12.5c-6.905,0-12.502-5.598-12.502-12.5c0-6.904,5.597-12.502,12.502-12.502
				C104.716,182.35,110.312,187.947,110.312,194.852z"/>
			
				<path fill="#E59F01" stroke="#000100" stroke-width="2" stroke-linecap="round" stroke-linejoin="round" stroke-miterlimit="10" d="
				M134.691,194.852c0,6.902-5.598,12.5-12.502,12.5c-15.002,0-12.502-5.598-12.502-12.5c0-6.904,5.598-12.502,12.502-12.502
				S134.691,187.947,134.691,194.852z"/>
			
				<circle fill="#C9B99F" stroke="#000100" stroke-width="2" stroke-linecap="round" stroke-linejoin="round" stroke-miterlimit="10" cx="110.319" cy="182.037" r="12.501"/>
		</g>
		<g clip-path="url(#SVGID_8_)">
			
				<polygon fill="#7F4F25" stroke="#000100" stroke-width="2" stroke-linecap="round" stroke-linejoin="round" stroke-miterlimit="10" points="
				110.32,38.406 94.402,-15.146 126.237,-15.146 			"/>
		</g>
		<g clip-path="url(#SVGID_8_)">
			
				<path fill="#AB5D2D" stroke="#000100" stroke-width="2" stroke-linecap="round" stroke-linejoin="round" stroke-miterlimit="10" d="
				M48.821,195.188c0,3.221-2.61,5.832-5.83,5.832l0,0c-3.221,0-5.831-2.611-5.831-5.832v-36.329c0-3.219,2.61-5.83,5.831-5.83l0,0
				c3.22,0,5.83,2.611,5.83,5.83V195.188z"/>
			
				<path fill="#C9B99F" stroke="#000100" stroke-width="2" stroke-linecap="round" stroke-linejoin="round" stroke-miterlimit="10" d="
				M60.259,155.959c0,5.316-4.31,9.627-9.627,9.627H35.351c-5.316,0-9.627-4.311-9.627-9.627v-33.902
				c0-4.371,2.466-20.057,17.268-20.057c14.801,0,17.268,14.739,17.268,20.057V155.959z"/>
			
				<path fill="#422A19" stroke="#000100" stroke-width="2" stroke-linecap="round" stroke-linejoin="round" stroke-miterlimit="10" d="
				M60.259,153.927v-31.87c0-5.318-2.467-20.057-17.268-20.057c-14.802,0-17.268,15.686-17.268,20.057v31.87H60.259z"/>
		</g>
		<g clip-path="url(#SVGID_8_)">
			
				<path fill="#AB5D2D" stroke="#000100" stroke-width="2" stroke-linecap="round" stroke-linejoin="round" stroke-miterlimit="10" d="
				M182.326,195.188c0,3.221-2.61,5.832-5.83,5.832l0,0c-3.221,0-5.831-2.611-5.831-5.832v-36.329c0-3.219,2.61-5.83,5.831-5.83l0,0
				c3.22,0,5.83,2.611,5.83,5.83V195.188z"/>
			
				<path fill="#C9B99F" stroke="#000100" stroke-width="2" stroke-linecap="round" stroke-linejoin="round" stroke-miterlimit="10" d="
				M193.763,155.959c0,5.316-4.31,9.627-9.627,9.627h-15.281c-5.316,0-9.627-4.311-9.627-9.627v-33.902
				c0-4.371,2.466-20.057,17.268-20.057c14.801,0,17.268,14.739,17.268,20.057V155.959z"/>
			
				<path fill="#422A19" stroke="#000100" stroke-width="2" stroke-linecap="round" stroke-linejoin="round" stroke-miterlimit="10" d="
				M193.763,153.927v-31.87c0-5.318-2.467-20.057-17.268-20.057c-14.802,0-17.268,15.686-17.268,20.057v31.87H193.763z"/>
		</g>
		
			<circle clip-path="url(#SVGID_8_)" fill="#CA77A5" stroke="#000100" stroke-width="2" stroke-linecap="round" stroke-linejoin="round" stroke-miterlimit="10" cx="176.496" cy="43.316" r="16.499"/>
		
			<circle clip-path="url(#SVGID_8_)" fill="none" stroke="#000100" stroke-width="2" stroke-linecap="round" stroke-linejoin="round" stroke-miterlimit="10" cx="176.496" cy="43.316" r="32.998"/>
		
			<circle clip-path="url(#SVGID_8_)" fill="#CA77A5" stroke="#000100" stroke-width="2" stroke-linecap="round" stroke-linejoin="round" stroke-miterlimit="10" cx="42.992" cy="43.316" r="16.499"/>
		
			<circle clip-path="url(#SVGID_8_)" fill="none" stroke="#000100" stroke-width="2" stroke-linecap="round" stroke-linejoin="round" stroke-miterlimit="10" cx="42.992" cy="43.316" r="32.998"/>
	</g>
</g>
</svg>
