<?xml version="1.0" encoding="utf-8"?>
<!-- Generator: Adobe Illustrator 16.0.0, SVG Export Plug-In . SVG Version: 6.00 Build 0)  -->
<!DOCTYPE svg PUBLIC "-//W3C//DTD SVG 1.1//EN" "http://www.w3.org/Graphics/SVG/1.1/DTD/svg11.dtd">
<svg version="1.1" xmlns="http://www.w3.org/2000/svg" xmlns:xlink="http://www.w3.org/1999/xlink" x="0px" y="0px"
	 width="453.543px" height="453.543px" viewBox="0 0 453.543 453.543" enable-background="new 0 0 453.543 453.543"
	 xml:space="preserve">
<g id="kvadrat" display="none">
</g>
<g id="color" display="none">
	<g display="inline">
		<path stroke="#000000" stroke-width="8" stroke-linecap="round" stroke-linejoin="round" stroke-miterlimit="10" d="
			M365.17,361.875c0,0,0,14.861,0,19.226s-12.072,7.903-26.964,7.903s-26.964-3.538-26.964-7.903s0-19.226,0-19.226"/>
		
			<ellipse stroke="#000000" stroke-width="8" stroke-linecap="round" stroke-linejoin="round" stroke-miterlimit="10" cx="338.207" cy="361.875" rx="26.964" ry="7.903"/>
		
			<path fill="#7E4E24" stroke="#000000" stroke-width="8" stroke-linecap="round" stroke-linejoin="round" stroke-miterlimit="10" d="
			M224.361,344.878c-6.659,10.357-19.493,29.696-24.627,30.005H82.473c-3.36,0-11.167-1.089-11.167-11.167
			c0-8.577,21.683-32.898,27.918-33.502h100.51c4.325,0,8.534-1.428,12.495-3.606c0.074-0.037,0.141-0.045,0.206-0.089
			c0.118-0.059,0.239-0.147,0.357-0.22c0.765-0.435,1.51-0.898,2.237-1.392c0.203-0.141,0.42-0.272,0.626-0.42
			c12.021-8.23,21.024-22.696,22.386-24.985L374.669,64.54l7.567,5.043c-14.803,27.17-93.461,170.976-141.412,249.125
			c0,0,0,0.007-0.009,0.014c-2.097,3.424-4.128,6.721-6.131,9.901c-0.117,0.192-0.235,0.391-0.354,0.574
			c-1.994,3.203-3.945,6.272-5.801,9.159L224.361,344.878z"/>
		
			<polygon fill="#422918" stroke="#000000" stroke-width="8" stroke-linecap="round" stroke-linejoin="round" stroke-miterlimit="10" points="
			130.802,330.214 99.611,374.439 155.693,374.883 186.243,330.214 		"/>
		
			<polygon fill="#422918" stroke="#000000" stroke-width="8" stroke-linecap="round" stroke-linejoin="round" stroke-miterlimit="10" points="
			340.456,123.379 349.84,128.733 317.732,186.134 307.243,179.96 		"/>
	</g>
	<g id="rdeča7bela" display="inline">
	</g>
</g>
<g id="cb">
	<g>
		<path fill="none" stroke="#000000" stroke-width="8" stroke-linecap="round" stroke-linejoin="round" stroke-miterlimit="10" d="
			M365.17,361.875c0,0,0,14.861,0,19.226s-12.072,7.903-26.964,7.903s-26.964-3.538-26.964-7.903s0-19.226,0-19.226"/>
		
			<ellipse fill="none" stroke="#000000" stroke-width="8" stroke-linecap="round" stroke-linejoin="round" stroke-miterlimit="10" cx="338.207" cy="361.875" rx="26.964" ry="7.903"/>
		<path fill="none" stroke="#000000" stroke-width="8" stroke-linecap="round" stroke-linejoin="round" stroke-miterlimit="10" d="
			M224.361,344.878c-6.659,10.357-19.493,29.696-24.627,30.005H82.473c-3.36,0-11.167-1.089-11.167-11.167
			c0-8.577,21.683-32.898,27.918-33.502h100.51c4.325,0,8.534-1.428,12.495-3.606c0.074-0.037,0.141-0.045,0.206-0.089
			c0.118-0.059,0.239-0.147,0.357-0.22c0.765-0.435,1.51-0.898,2.237-1.392c0.203-0.141,0.42-0.272,0.626-0.42
			c12.021-8.23,21.024-22.696,22.386-24.985L374.669,64.54l7.567,5.043c-14.803,27.17-93.461,170.976-141.412,249.125
			c0,0,0,0.007-0.009,0.014c-2.097,3.424-4.128,6.721-6.131,9.901c-0.117,0.192-0.235,0.391-0.354,0.574
			c-1.994,3.203-3.945,6.272-5.801,9.159L224.361,344.878z"/>
		
			<polygon fill="none" stroke="#000000" stroke-width="8" stroke-linecap="round" stroke-linejoin="round" stroke-miterlimit="10" points="
			130.802,330.214 99.611,374.439 155.693,374.883 186.243,330.214 		"/>
		
			<polygon fill="none" stroke="#000000" stroke-width="8" stroke-linecap="round" stroke-linejoin="round" stroke-miterlimit="10" points="
			340.456,123.379 349.84,128.733 317.732,186.134 307.243,179.96 		"/>
	</g>
	<g id="rdeča7bela_copy">
	</g>
</g>
<g id="pivot">
	<circle fill="none" cx="256.447" cy="387.707" r="14.133"/>
</g>
</svg>
