<?xml version="1.0" encoding="utf-8"?>
<!-- Generator: Adobe Illustrator 16.0.0, SVG Export Plug-In . SVG Version: 6.00 Build 0)  -->
<!DOCTYPE svg PUBLIC "-//W3C//DTD SVG 1.1//EN" "http://www.w3.org/Graphics/SVG/1.1/DTD/svg11.dtd">
<svg version="1.1" xmlns="http://www.w3.org/2000/svg" xmlns:xlink="http://www.w3.org/1999/xlink" x="0px" y="0px"
	 width="453.543px" height="453.543px" viewBox="0 0 453.543 453.543" enable-background="new 0 0 453.543 453.543"
	 xml:space="preserve">
<g id="kvadrat" display="none">
</g>
<g id="color" display="none">
	<g id="rdeča7bela" display="inline">
	</g>
	<g display="inline">
		<path stroke="#000000" stroke-width="4" stroke-linecap="round" stroke-linejoin="round" stroke-miterlimit="10" d="
			M337.82,140.39c-22.595-29.22-52.5-46.764-89.052-52.752c-3.421-0.564-6.876-0.959-10.307-1.44h-23.713
			c-8.856,1.033-17.674,2.256-26.244,4.848c-46.201,14.004-77.843,43.596-94.789,88.788c-4.236,11.292-6.658,23.052-7.68,35.076
			v23.711c1.021,8.677,2.186,17.317,4.729,25.705c15.132,49.932,47.701,82.583,97.488,98.052c8.628,2.675,17.58,3.839,26.509,4.967
			h23.7c8.65-1.14,17.266-2.448,25.728-4.74c51.769-14.1,91.823-57.779,100.969-110.64
			C372.247,210.865,363.343,173.39,337.82,140.39z M324.15,197.449c-3.635,13.02-8.448,25.512-15.839,36.888
			c-1.536,2.364-3.445,4.476-5.028,6.804c-2.604,3.804-6.264,5.46-10.74,5.688c-2.724,0.143-5.436,0.552-8.149,0.575
			c-8.447,0.073-16.907,0.025-25.355,0.025v0.624c-2.352,0-4.728-0.228-7.056,0.06c-3.685,0.433-6.206-1.104-8.46-3.852
			c-6.984-8.508-13.274-17.531-19.561-26.556c-4.463-6.408-8.809-12.888-13.235-19.308c-0.852-1.225-1.333-2.304-0.612-3.863
			c6.324-13.752,12.601-27.529,20.134-40.669c1.403-2.435,3.037-4.739,4.5-7.139c0.9-1.488,2.484-1.357,3.77-1.477
			c8.134-0.732,16.296-1.596,24.467-1.188c9.36,0.469,18.768,0.661,28.008,2.64c1.417,0.312,2.748,0.66,3.768,1.74
			c11.064,11.736,21.276,24.084,28.379,38.736C324.787,190.549,325.173,193.777,324.15,197.449z M131.577,258.9
			c-1.766-3.984-2.004-7.8-0.72-12c3.804-12.432,8.075-24.671,14.483-36.036c2.604-4.596,5.436-9.023,10.417-11.567
			c1.5-0.756,2.939-1.141,4.559-1.141c7.346,0.012,14.676,0.012,22.021,0.012c0,0,0,0,0,0.013c7.056,0,14.112,0.108,21.168-0.06
			c2.556-0.049,4.117,0.816,5.532,2.928c8.988,13.344,17.94,26.711,27.744,39.48c1.885,2.448,3.877,4.835,5.928,7.164
			c0.949,1.067,1.103,2.028,0.528,3.312c-6.611,14.46-13.308,28.86-21.084,42.744c-2.724,4.848-6.372,7.2-11.7,7.884
			c-13.908,1.789-27.826,2.964-41.868,1.728c-4.176-0.372-7.656-1.596-10.536-5.016C147.762,286.166,138.08,273.625,131.577,258.9z
			 M218.227,90.96c24.565-3.912,47.401,2.088,69.252,12.708c6.589,3.204,10.836,9.469,15.528,14.977
			c0.719,0.84,0.361,1.752-0.083,2.627c-3.541,6.853-7.068,13.705-10.574,20.569c-0.697,1.356-1.643,1.823-3.204,1.548
			c-9.745-1.667-19.584-2.232-30.168-2.052c-7.475-0.265-15.624,0.24-23.723,1.427c-1.031,0.157-1.824,0.025-2.58-0.696
			c-10.32-10.068-23.064-16.428-35.628-23.027c-2.052-1.069-2.244-2.125-1.656-3.948c2.125-6.588,5.292-12.6,9.349-18.24
			C208.161,92.101,213.284,91.752,218.227,90.96z M114.451,149.953c0.131-2.412,1.044-4.2,2.353-5.88
			c21.119-27.383,48.492-44.832,82.355-51.983c1.657-0.348,3.973-1.667,4.957,0c0.839,1.44-1.549,2.664-2.484,3.996
			c-4.104,5.808-7.332,12.036-9.204,18.923c-0.469,1.729-1.188,2.856-3.204,2.821c-0.804-0.013-1.669,0.348-2.413,0.708
			c-12.492,6.035-24.828,12.527-34.729,22.319c-4.391,4.356-9.023,5.988-14.674,6.804c-6.78,0.973-13.5,2.4-20.136,4.165
			C115.28,152.365,114.069,152.16,114.451,149.953z M112.508,252.625c-3.877,0-6.709-0.144-9.516,0.047
			c-2.748,0.181-4.369-1.127-5.725-3.275c-4.38-6.9-7.211-14.532-7.5-22.524c-0.899-25.224,4.453-48.695,21.336-68.495
			c1.416-1.656,2.976-2.688,5.088-3.252c8.544-2.257,17.22-3.804,25.908-5.353c1.127-0.204,2.195-0.3,1.67,1.477
			c-1.909,6.468-1.022,13.081-0.709,19.608c0.312,6.252,1.249,12.504,3.119,18.552c0.842,2.713,1.789,5.352,3.553,7.621
			c0.695,0.912,1.057,1.715,0.107,2.711c-7.834,8.268-11.818,18.66-15.947,28.956c-2.723,6.804-4.992,13.775-6.684,20.916
			c-0.384,1.692-1.188,2.209-2.82,2.473C120.08,252.781,115.76,252.421,112.508,252.625z M242.457,359.197
			c-8.677,2.675-17.532,4.14-26.736,4.319c-20.233-2.387-39.722-6.839-55.693-20.771c-3.204-2.796-5.928-6.023-8.171-9.672
			c-0.864-1.391-1.021-2.712-0.48-4.271c2.52-7.188,5.303-14.268,8.231-21.3c0.841-2.016,2.003-2.292,3.925-2.04
			c17.771,2.269,35.425,1.524,52.944-2.244c1.068-0.216,2.1-0.72,3.084,0.456c6.791,8.196,15.901,13.429,24.697,19.021
			c3.887,2.471,7.92,4.715,11.964,6.912c1.39,0.768,1.871,1.524,1.523,3.121c-1.956,8.771-5.904,16.62-10.992,23.939
			C245.708,358.177,244.076,358.694,242.457,359.197z M340.857,302.018c-0.3,1.296-0.9,2.448-1.68,3.54
			c-19.873,27.792-46.333,46.021-79.416,54.588c-1.068,0.275-2.221,0.264-3.336,0.396c-1.837,0-3.564-0.444-5.317-0.829
			c-1.75-0.383-2.075-1.104-0.997-2.7c4.093-6.023,7.405-12.468,9.385-19.5c1.008-3.539,1.14-7.583,6.408-7.224
			c13.561-6.625,26.773-13.788,37.621-24.552c1.2-1.188,2.424-2.412,3.3-3.84c1.175-1.919,2.724-2.423,4.764-2.041
			c8.677,1.621,17.208,0.348,25.704-1.379C341.06,297.708,341.732,298.297,340.857,302.018z M351.343,283.249
			c-3.732,7.692-9.084,12.384-17.988,13.116c-6.828,0.565-13.571,1.957-20.472,0.804c-1.836-0.3-2.904-0.683-2.64-2.952
			c0.276-2.412,0.06-4.895,0.06-7.332c0.048-10.477-1.104-20.82-3.912-30.936c-0.624-2.256-1.225-4.632-2.688-6.48
			c-1.704-2.124-1.008-3.347,0.636-5.16c8.592-9.504,13.98-20.879,18.42-32.748c1.728-4.583,3.217-9.239,4.32-14.004
			c0.48-2.052,1.596-2.76,3.575-2.785c6.769-0.06,13.5,0.661,20.245,1.177c1.548,0.12,2.244,1.236,2.893,2.4
			c4.871,8.628,8.16,17.868,9.144,27.673C364.976,246.229,360.139,265.142,351.343,283.249z"/>
		
			<path fill="#FFFFFF" stroke="#000000" stroke-width="4" stroke-linecap="round" stroke-linejoin="round" stroke-miterlimit="10" d="
			M351.343,283.249c-3.732,7.692-9.084,12.384-17.988,13.116c-6.828,0.565-13.571,1.957-20.472,0.804
			c-1.836-0.3-2.904-0.683-2.64-2.952c0.276-2.412,0.06-4.895,0.06-7.332c0.048-10.477-1.104-20.82-3.912-30.936
			c-0.624-2.256-1.225-4.632-2.688-6.48c-1.704-2.124-1.008-3.347,0.636-5.16c8.592-9.504,13.98-20.879,18.42-32.748
			c1.728-4.583,3.217-9.239,4.32-14.004c0.48-2.052,1.596-2.76,3.575-2.785c6.769-0.06,13.5,0.661,20.245,1.177
			c1.548,0.12,2.244,1.236,2.893,2.4c4.871,8.628,8.16,17.868,9.144,27.673C364.976,246.229,360.139,265.142,351.343,283.249z"/>
		
			<path fill="#FFFFFF" stroke="#000000" stroke-width="4" stroke-linecap="round" stroke-linejoin="round" stroke-miterlimit="10" d="
			M340.857,302.018c-0.3,1.296-0.9,2.448-1.68,3.54c-19.873,27.792-46.333,46.021-79.416,54.588
			c-1.068,0.275-2.221,0.264-3.336,0.396c-1.837,0-3.564-0.444-5.317-0.829c-1.75-0.383-2.075-1.104-0.997-2.7
			c4.093-6.023,7.405-12.468,9.385-19.5c1.008-3.539,1.14-7.583,6.408-7.224c13.561-6.625,26.773-13.788,37.621-24.552
			c1.2-1.188,2.424-2.412,3.3-3.84c1.175-1.919,2.724-2.423,4.764-2.041c8.677,1.621,17.208,0.348,25.704-1.379
			C341.06,297.708,341.732,298.297,340.857,302.018z"/>
		
			<path fill="#FFFFFF" stroke="#000000" stroke-width="4" stroke-linecap="round" stroke-linejoin="round" stroke-miterlimit="10" d="
			M257.743,332.725c-1.956,8.771-5.904,16.62-10.992,23.939c-1.043,1.513-2.675,2.029-4.296,2.533
			c-8.677,2.675-17.532,4.14-26.735,4.319c-20.233-2.387-39.723-6.839-55.693-20.771c-3.204-2.796-5.928-6.023-8.173-9.672
			c-0.863-1.391-1.02-2.712-0.479-4.271c2.519-7.188,5.303-14.268,8.232-21.3c0.839-2.016,2.003-2.292,3.923-2.04
			c17.772,2.269,35.424,1.524,52.945-2.244c1.067-0.216,2.1-0.72,3.083,0.456c6.792,8.196,15.9,13.429,24.696,19.021
			c3.887,2.471,7.92,4.715,11.965,6.912C257.611,330.372,258.091,331.129,257.743,332.725z"/>
		
			<path fill="#FFFFFF" stroke="#000000" stroke-width="4" stroke-linecap="round" stroke-linejoin="round" stroke-miterlimit="10" d="
			M324.15,197.449c-3.635,13.02-8.448,25.512-15.839,36.888c-1.536,2.364-3.445,4.476-5.028,6.804
			c-2.604,3.804-6.264,5.46-10.74,5.688c-2.724,0.143-38.232,0.996-40.56,1.283c-3.685,0.433-6.206-1.104-8.46-3.852
			c-6.984-8.508-13.274-17.531-19.561-26.556c-4.463-6.408-8.809-12.888-13.235-19.308c-0.852-1.225-1.333-2.304-0.612-3.863
			c6.324-13.752,12.601-27.529,20.134-40.669c1.403-2.435,3.037-4.739,4.5-7.139c0.9-1.488,2.484-1.357,3.77-1.477
			c8.134-0.732,16.296-1.596,24.467-1.188c9.36,0.469,18.768,0.661,28.008,2.64c1.417,0.312,2.748,0.66,3.768,1.74
			c11.064,11.736,21.276,24.084,28.379,38.736C324.787,190.549,325.173,193.777,324.15,197.449z"/>
		
			<path fill="#FFFFFF" stroke="#000000" stroke-width="4" stroke-linecap="round" stroke-linejoin="round" stroke-miterlimit="10" d="
			M302.925,121.272c-3.541,6.853-7.068,13.705-10.574,20.569c-0.697,1.356-1.643,1.823-3.204,1.548
			c-9.745-1.667-19.584-2.232-30.168-2.052c-7.475-0.265-15.624,0.24-23.723,1.427c-1.031,0.157-1.824,0.025-2.58-0.696
			c-10.32-10.068-23.064-16.428-35.628-23.027c-2.052-1.069-2.244-2.125-1.656-3.948c2.125-6.588,5.292-12.6,9.349-18.24
			c3.419-4.752,8.544-5.1,13.488-5.892c24.564-3.912,47.4,2.088,69.251,12.708c6.588,3.204,10.837,9.469,15.529,14.977
			C303.727,119.485,303.369,120.396,302.925,121.272z"/>
		
			<path fill="#FFFFFF" stroke="#000000" stroke-width="4" stroke-linecap="round" stroke-linejoin="round" stroke-miterlimit="10" d="
			M201.632,96.085c-4.104,5.808-7.332,12.036-9.204,18.923c-0.467,1.729-1.188,2.856-3.203,2.821
			c-0.804-0.013-1.668,0.348-2.414,0.708c-12.491,6.035-24.827,12.527-34.727,22.319c-4.393,4.356-9.023,5.988-14.677,6.804
			c-6.78,0.973-13.5,2.4-20.136,4.165c-1.992,0.539-3.203,0.335-2.821-1.873c0.131-2.412,1.044-4.2,2.353-5.88
			c21.119-27.383,48.492-44.832,82.355-51.983c1.657-0.348,3.973-1.667,4.957,0C204.957,93.529,202.568,94.752,201.632,96.085z"/>
		
			<path fill="#FFFFFF" stroke="#000000" stroke-width="4" stroke-linecap="round" stroke-linejoin="round" stroke-miterlimit="10" d="
			M149.838,199.742c-7.836,8.268-11.818,18.66-15.947,28.956c-2.725,6.804-4.992,13.777-6.684,20.916
			c-0.384,1.692-1.187,2.208-2.82,2.473c-4.309,0.696-8.629,0.335-11.879,0.541c-3.877,0-6.709-0.144-9.518,0.048
			c-2.748,0.179-4.368-1.128-5.725-3.276c-4.379-6.9-7.211-14.533-7.5-22.523c-0.9-25.225,4.453-48.696,21.336-68.496
			c1.418-1.657,2.977-2.688,5.089-3.253c8.544-2.254,17.221-3.804,25.907-5.351c1.129-0.204,2.197-0.3,1.67,1.476
			c-1.907,6.467-1.021,13.08-0.707,19.607c0.311,6.252,1.246,12.504,3.119,18.552c0.84,2.711,1.789,5.352,3.553,7.621
			C150.428,197.942,150.788,198.746,149.838,199.742z"/>
		
			<path fill="#FFFFFF" stroke="#000000" stroke-width="4" stroke-linecap="round" stroke-linejoin="round" stroke-miterlimit="10" d="
			M243.236,251.004c-6.611,14.46-13.308,28.86-21.084,42.744c-2.724,4.848-6.372,7.2-11.7,7.884
			c-13.908,1.789-27.826,2.964-41.868,1.728c-4.176-0.372-7.656-1.596-10.536-5.016c-10.284-12.181-19.968-24.72-26.471-39.444
			c-1.766-3.984-2.004-7.8-0.72-12c3.804-12.432,8.075-24.671,14.483-36.036c2.604-4.596,5.436-9.023,10.417-11.567
			c1.5-0.756,2.939-1.141,4.559-1.141c7.346,0.012,14.676,0.012,22.021,0.012c0,0,0,0,0,0.013c7.056,0,14.112,0.108,21.168-0.06
			c2.556-0.049,4.117,0.816,5.532,2.928c8.988,13.344,17.94,26.711,27.744,39.48c1.885,2.448,3.877,4.835,5.928,7.164
			C243.657,248.76,243.811,249.721,243.236,251.004z"/>
		<path fill="#FFFFFF" d="M362.878,211.183c-2.113-5.405-4.241-10.719-7.252-15.633c-0.38-0.614-0.627-1.4-0.647-2.113
			c-0.15-5.342,0.236-10.699-0.426-16.063C359.07,188.239,361.817,199.518,362.878,211.183z"/>
		<path fill="#FFFFFF" d="M322.141,128.311c-4.509-2.939-9.081-5.707-13.73-8.377c-2.901-1.664-4.292-5.037-6.396-7.659
			C309.479,116.704,316.079,122.166,322.141,128.311z"/>
		<path fill="#FFFFFF" d="M90.354,242.832c2.095,4.099,3.949,8.304,7.223,11.633c0.643,0.654,0.69,1.526,0.664,2.38
			c-0.255,8.442,0.738,16.755,2.619,24.989C95.244,269.398,91.62,256.443,90.354,242.832z"/>
		<path fill="#FFFFFF" d="M125.178,319.163c5.238,3.123,10.139,6.808,15.654,9.369c4.442,2.057,8.202,4.446,10.561,9.009
			c1.651,3.196,4.617,5.556,7.062,8.252C145.795,338.857,134.75,329.935,125.178,319.163z"/>
	</g>
</g>
<g id="cb">
	<g id="rdeča7bela_copy">
	</g>
	<g>
		<g>
			<path d="M304,113.579c11.429,7.87,21.667,17.634,30.656,29.259c15.116,19.544,24.313,40.882,27.535,63.775
				c-1.364-3.429-3.001-6.837-4.906-10.212c-0.692-1.242-2.314-4.149-6.082-4.44c-1.396-0.107-2.793-0.223-4.189-0.338
				c-5.068-0.419-10.309-0.854-15.566-0.854c-0.276,0-0.553,0.001-0.845,0.004c-0.741,0.009-1.436,0.092-2.083,0.245
				c-0.28-1.87-0.873-3.726-1.78-5.585c-7.828-16.148-19.087-29.148-29.069-39.736c-0.634-0.672-1.323-1.182-2.014-1.574
				c0.087-0.147,0.172-0.301,0.254-0.461c3.149-6.165,6.507-12.696,10.58-20.58c1.715-3.382,0.705-5.693-0.439-7.03
				C305.366,115.244,304.695,114.429,304,113.579 M192.909,120.938c0.684,0.696,1.489,1.233,2.277,1.644l2.376,1.246
				c11.862,6.211,23.067,12.078,32.352,21.136c0.258,0.246,0.527,0.468,0.806,0.666c-0.402,0.635-0.817,1.272-1.248,1.934
				c-0.898,1.38-1.827,2.808-2.694,4.311c-7.35,12.82-13.583,26.379-19.611,39.492l-0.684,1.488
				c-0.234,0.507-0.404,0.998-0.52,1.469c-0.71-0.137-1.462-0.204-2.259-0.204c-0.092,0-0.186,0.001-0.297,0.003
				c-2.667,0.063-5.581,0.093-9.168,0.093c-1.978,0-3.957-0.009-5.935-0.017c-1.88-0.008-3.761-0.016-5.641-0.017
				c-0.108-0.009-0.218-0.013-0.328-0.013c-7.343,0-14.67,0-22.021-0.012c-2.184,0-4.264,0.513-6.378,1.578
				c-0.076,0.039-0.151,0.078-0.227,0.118c-0.215-0.413-0.485-0.839-0.819-1.277c-1.275-1.64-2.051-3.646-2.89-6.348
				c-1.637-5.293-2.628-11.205-2.945-17.562c-0.054-1.126-0.125-2.254-0.196-3.384c-0.329-5.249-0.64-10.206,0.745-14.897
				c0.434-1.467,0.343-2.63,0.051-3.517c2.415-1.164,4.858-2.805,7.238-5.166c9.671-9.564,21.93-15.896,33.659-21.563
				c0.431-0.209,0.643-0.282,0.733-0.308l0.027,0C190.442,121.83,191.725,121.621,192.909,120.938 M91.106,246.676
				c0.831,1.627,1.757,3.247,2.779,4.855c0.805,1.276,3.255,5.157,8.613,5.157c0.246,0,0.499-0.008,0.766-0.026
				c0.912-0.062,1.887-0.09,3.161-0.09c0.824,0,1.681,0.011,2.594,0.023c1.077,0.014,2.229,0.029,3.489,0.029
				c0.083,0,0.167-0.002,0.25-0.008c1.013-0.063,2.223-0.066,3.504-0.068c2.646-0.005,5.645-0.011,8.764-0.515
				c0.319-0.051,0.807-0.13,1.374-0.299c0.306,1.599,0.812,3.189,1.517,4.782c6.795,15.385,17.028,28.514,27.071,40.405
				c0.815,0.968,1.669,1.789,2.542,2.485c-0.612,0.644-1.166,1.479-1.615,2.557c-3.287,7.896-6.006,14.934-8.318,21.528
				c-0.93,2.686-0.64,5.273,0.853,7.675c1.795,2.921,3.894,5.617,6.264,8.05c-9.433-5.668-17.907-12.267-25.365-19.762
				c-15.729-15.808-27.423-36.092-34.756-60.289C92.964,257.796,91.911,252.205,91.106,246.676 M299.116,249.486
				c0.295,0.784,0.763,1.607,1.451,2.465c0.88,1.112,1.36,2.854,1.868,4.698l0.102,0.369c2.584,9.307,3.816,19.07,3.767,29.866
				c0,0.779,0.021,1.562,0.042,2.347c0.043,1.612,0.084,3.134-0.075,4.521c-0.112,0.961-0.1,2.007,0.175,3.005
				c-1.076,0.617-2.131,1.58-3.031,3.049c-0.643,1.047-1.691,2.085-2.708,3.092c-10.615,10.532-23.915,17.596-35.689,23.371
				c-2.041,0.041-3.604,0.582-4.81,1.396c-0.528-0.564-1.209-1.097-2.078-1.577c-3.83-2.08-7.901-4.34-11.727-6.772
				c-0.99-0.629-1.984-1.254-2.979-1.88c-7.797-4.902-15.162-9.532-20.797-16.333c-0.182-0.217-0.372-0.418-0.571-0.604
				c1.347-1.332,2.534-2.926,3.585-4.797c7.823-13.968,14.507-28.327,21.244-43.063c0.145-0.323,0.267-0.644,0.366-0.964
				c1.124,0.34,2.3,0.508,3.534,0.508c0.542,0,1.102-0.033,1.688-0.103c0.636-0.078,1.345-0.115,2.229-0.115
				c0.683,0,1.367,0.021,2.051,0.041c0.74,0.022,1.506,0.044,2.286,0.044c0.789,0,1.524-0.229,2.144-0.623
				c1.684,0.001,3.368,0.004,5.052,0.007c2.404,0.004,4.809,0.008,7.213,0.008c4.286,0,7.775-0.013,10.98-0.041
				c1.771-0.016,3.487-0.174,5.146-0.328c1.103-0.102,2.144-0.198,3.172-0.252C295.077,250.705,297.202,250.258,299.116,249.486
				 M246.769,361.8c0.088,0.096,0.181,0.188,0.277,0.278c-0.429,0.067-0.86,0.134-1.294,0.201
				C246.086,362.139,246.428,361.981,246.769,361.8 M238.461,86.198h-23.713c-8.856,1.033-17.674,2.256-26.244,4.848
				c-46.201,14.004-77.843,43.596-94.789,88.788c-4.236,11.292-6.658,23.052-7.68,35.076v23.711
				c1.021,8.677,2.186,17.317,4.729,25.705c15.132,49.932,47.701,82.583,97.488,98.052c8.628,2.675,17.58,3.839,26.509,4.967h23.7
				c8.65-1.14,17.266-2.448,25.728-4.74c51.769-14.1,91.823-57.779,100.969-110.64c7.09-41.1-1.814-78.575-27.337-111.575
				c-22.595-29.22-52.5-46.764-89.052-52.752C245.347,87.074,241.892,86.679,238.461,86.198L238.461,86.198z M234.547,142.823
				c-0.704,0-1.299-0.208-1.872-0.755c-10.32-10.068-23.064-16.428-35.628-23.027c-2.052-1.069-2.244-2.125-1.656-3.948
				c2.125-6.588,5.292-12.6,9.349-18.24c3.422-4.752,8.545-5.1,13.488-5.892c5.134-0.817,10.192-1.202,15.182-1.202
				c18.885,0,36.786,5.51,54.071,13.91c6.589,3.204,10.836,9.469,15.528,14.977c0.719,0.84,0.361,1.752-0.083,2.627
				c-3.541,6.853-7.068,13.705-10.574,20.569c-0.57,1.109-1.307,1.624-2.41,1.624c-0.246,0-0.509-0.025-0.794-0.076
				c-8.596-1.471-17.267-2.084-26.457-2.084c-1.228,0-2.464,0.011-3.712,0.032c-1.298-0.046-2.617-0.069-3.952-0.069
				c-6.353,0-13.078,0.515-19.771,1.496C235.006,142.802,234.771,142.823,234.547,142.823L234.547,142.823z M115.751,152.076
				c-1.042,0-1.571-0.558-1.301-2.124c0.131-2.412,1.044-4.2,2.353-5.88c21.119-27.383,48.492-44.832,82.355-51.983
				c1.044-0.219,2.351-0.825,3.42-0.825c0.627,0,1.173,0.208,1.537,0.825c0.839,1.44-1.549,2.664-2.484,3.996
				c-4.104,5.808-7.332,12.036-9.204,18.923c-0.461,1.702-1.167,2.822-3.113,2.822c-0.03,0-0.06,0-0.091-0.001
				c-0.014,0-0.027,0-0.042,0c-0.792,0-1.64,0.355-2.371,0.708c-12.492,6.035-24.828,12.527-34.729,22.319
				c-4.391,4.356-9.023,5.988-14.674,6.804c-6.78,0.973-13.5,2.4-20.136,4.165C116.692,151.982,116.179,152.076,115.751,152.076
				L115.751,152.076z M250.785,248.185c-3.049,0-5.26-1.485-7.262-3.924c-6.984-8.508-13.274-17.531-19.561-26.556
				c-4.463-6.408-8.809-12.888-13.235-19.308c-0.852-1.225-1.333-2.304-0.612-3.863c6.324-13.752,12.601-27.529,20.134-40.669
				c1.403-2.435,3.037-4.739,4.5-7.139c0.9-1.488,2.484-1.357,3.77-1.477c6.687-0.602,13.393-1.293,20.107-1.293
				c1.454,0,2.906,0.032,4.36,0.105c9.36,0.469,18.768,0.661,28.008,2.64c1.417,0.312,2.748,0.66,3.768,1.74
				c11.064,11.736,21.276,24.084,28.379,38.736c1.645,3.372,2.031,6.6,1.008,10.271c-3.635,13.02-8.448,25.512-15.839,36.888
				c-1.536,2.364-3.445,4.476-5.028,6.804c-2.604,3.804-6.264,5.46-10.74,5.688c-2.724,0.143-5.436,0.552-8.149,0.575
				c-3.646,0.031-7.296,0.041-10.946,0.041c-4.804,0-9.608-0.016-14.409-0.016v0.624c-1.442,0-2.894-0.085-4.337-0.085
				c-0.911,0-1.818,0.034-2.719,0.145C251.57,248.161,251.171,248.185,250.785,248.185L250.785,248.185z M102.498,252.688
				c-2.452,0-3.958-1.275-5.23-3.292c-4.38-6.9-7.211-14.532-7.5-22.524c-0.899-25.224,4.453-48.695,21.336-68.495
				c1.416-1.656,2.976-2.688,5.088-3.252c8.544-2.257,17.22-3.804,25.908-5.353c0.32-0.058,0.636-0.107,0.911-0.107
				c0.694,0,1.135,0.312,0.759,1.583c-1.909,6.468-1.022,13.081-0.709,19.608c0.312,6.252,1.249,12.504,3.119,18.552
				c0.842,2.713,1.789,5.352,3.553,7.621c0.695,0.912,1.057,1.715,0.107,2.711c-7.834,8.268-11.818,18.66-15.947,28.956
				c-2.723,6.804-4.992,13.775-6.684,20.916c-0.384,1.692-1.188,2.209-2.82,2.473c-4.309,0.696-8.629,0.336-11.881,0.54
				c-2.332,0-4.286-0.052-6.083-0.052c-1.191,0-2.314,0.023-3.433,0.099C102.824,252.683,102.659,252.688,102.498,252.688
				L102.498,252.688z M318.599,297.612c-1.897,0-3.8-0.124-5.716-0.444c-1.836-0.3-2.904-0.683-2.64-2.952
				c0.276-2.412,0.06-4.895,0.06-7.332c0.048-10.477-1.104-20.82-3.912-30.936c-0.624-2.256-1.225-4.632-2.688-6.48
				c-1.704-2.124-1.008-3.347,0.636-5.16c8.592-9.504,13.98-20.879,18.42-32.748c1.728-4.583,3.217-9.239,4.32-14.004
				c0.48-2.052,1.596-2.76,3.575-2.785c0.265-0.002,0.53-0.003,0.794-0.003c6.501,0,12.969,0.685,19.45,1.18
				c1.548,0.12,2.244,1.236,2.893,2.4c4.871,8.628,8.16,17.868,9.144,27.673c2.041,20.208-2.796,39.121-11.592,57.227
				c-3.732,7.692-9.084,12.384-17.988,13.116C328.422,296.772,323.533,297.612,318.599,297.612L318.599,297.612z M194.24,198.215
				c3.088,0,6.175-0.021,9.264-0.094c0.068-0.001,0.135-0.002,0.202-0.002c2.438,0,3.953,0.874,5.331,2.93
				c8.988,13.344,17.94,26.711,27.744,39.48c1.885,2.448,3.877,4.835,5.928,7.164c0.949,1.067,1.103,2.028,0.528,3.312
				c-6.611,14.46-13.308,28.86-21.084,42.744c-2.724,4.848-6.372,7.2-11.7,7.884c-9.916,1.275-19.837,2.239-29.804,2.239
				c-4.013,0-8.033-0.156-12.064-0.511c-4.176-0.372-7.656-1.596-10.536-5.016c-10.286-12.179-19.968-24.72-26.471-39.444
				c-1.766-3.984-2.004-7.8-0.72-12c3.804-12.432,8.075-24.671,14.483-36.036c2.604-4.596,5.436-9.023,10.417-11.567
				c1.5-0.756,2.939-1.141,4.559-1.141c7.346,0.012,14.676,0.012,22.021,0.012c0,0,0,0,0,0.013
				C186.304,198.181,190.272,198.215,194.24,198.215L194.24,198.215z M319.991,300.604c5.806,0,11.561-0.959,17.301-2.126
				c0.921-0.188,1.657-0.295,2.231-0.295c1.773,0,1.996,1.023,1.334,3.834c-0.3,1.296-0.9,2.448-1.68,3.54
				c-19.873,27.792-46.333,46.021-79.416,54.588c-1.068,0.275-2.221,0.264-3.336,0.396c-1.837,0-3.564-0.444-5.317-0.829
				c-1.75-0.383-2.075-1.104-0.997-2.7c4.093-6.023,7.405-12.468,9.385-19.5c0.966-3.391,1.128-7.246,5.773-7.246
				c0.203,0,0.414,0.007,0.634,0.022c13.561-6.625,26.773-13.788,37.621-24.552c1.2-1.188,2.424-2.412,3.3-3.84
				c0.936-1.529,2.109-2.16,3.578-2.16c0.375,0,0.771,0.041,1.186,0.119C314.403,300.383,317.203,300.604,319.991,300.604
				L319.991,300.604z M183.54,306.741c11.028,0,22.008-1.174,32.937-3.525c0.543-0.11,1.077-0.294,1.6-0.294
				c0.505,0,1,0.172,1.484,0.75c6.791,8.196,15.901,13.429,24.697,19.021c3.887,2.471,7.92,4.715,11.964,6.912
				c1.39,0.768,1.871,1.524,1.523,3.121c-1.956,8.771-5.904,16.62-10.992,23.939c-1.044,1.513-2.676,2.03-4.295,2.533
				c-8.677,2.675-17.532,4.14-26.736,4.319c-20.233-2.387-39.722-6.839-55.693-20.771c-3.204-2.796-5.928-6.023-8.171-9.672
				c-0.864-1.391-1.021-2.712-0.48-4.271c2.52-7.188,5.303-14.268,8.231-21.3c0.677-1.623,1.563-2.118,2.885-2.118
				c0.32,0,0.666,0.029,1.04,0.078C170.218,306.314,176.888,306.741,183.54,306.741L183.54,306.741z"/>
		</g>
		<g>
			<path d="M331.449,198.769c4.926,0,9.998,0.42,14.904,0.826c1.239,0.103,2.477,0.206,3.714,0.302
				c0.095,0.157,0.191,0.33,0.24,0.418c4.864,8.616,7.773,17.399,8.647,26.108c1.801,17.827-1.866,35.843-11.211,55.079
				c-3.424,7.057-7.825,10.309-14.72,10.875c-1.739,0.144-3.472,0.339-5.147,0.529c-3.214,0.363-6.25,0.706-9.278,0.706
				c-1.526,0-2.928-0.088-4.268-0.271c0.087-1.483,0.048-2.923,0.011-4.326c-0.02-0.712-0.039-1.424-0.039-2.113
				c0.053-11.523-1.275-21.999-4.057-32.021l-0.099-0.356c-0.637-2.314-1.355-4.924-3.09-7.256c0.072-0.082,0.154-0.175,0.249-0.279
				c9.783-10.822,15.399-23.87,19.195-34.02c1.9-5.04,3.342-9.691,4.401-14.202C331.085,198.769,331.267,198.769,331.449,198.769
				 M331.449,194.769c-0.265,0-0.53,0.001-0.795,0.003c-1.979,0.025-3.095,0.732-3.575,2.785c-1.103,4.765-2.592,9.42-4.32,14.004
				c-4.439,11.869-9.828,23.244-18.42,32.748c-1.644,1.813-2.34,3.036-0.636,5.16c1.463,1.848,2.064,4.225,2.688,6.48
				c2.808,10.116,3.96,20.459,3.912,30.936c0,2.437,0.217,4.92-0.06,7.332c-0.265,2.269,0.804,2.652,2.64,2.952
				c1.916,0.32,3.819,0.444,5.716,0.444c4.935,0,9.824-0.84,14.756-1.248c8.904-0.731,14.256-5.423,17.988-13.116
				c8.796-18.106,13.633-37.02,11.592-57.227c-0.984-9.805-4.273-19.044-9.144-27.673c-0.649-1.164-1.344-2.28-2.893-2.4
				C344.417,195.453,337.95,194.769,331.449,194.769L331.449,194.769z"/>
		</g>
		<g>
			<path d="M336.235,302.768c-0.095,0.151-0.199,0.305-0.312,0.463c-19.25,26.921-45.212,44.768-77.161,53.042
				c-0.367,0.095-0.923,0.136-1.512,0.18c-0.341,0.026-0.683,0.052-1.022,0.087c-0.321-0.008-0.647-0.036-0.98-0.078
				c3.744-5.972,6.402-11.841,8.095-17.852c0.153-0.537,0.288-1.084,0.421-1.627c0.211-0.86,0.563-2.288,0.866-2.643
				c0.06-0.021,0.247-0.072,0.639-0.072c0.116,0,0.236,0.004,0.362,0.013c0.091,0.006,0.182,0.009,0.272,0.009
				c0.607,0,1.208-0.138,1.756-0.406c12.559-6.135,26.94-13.656,38.679-25.304c1.225-1.212,2.748-2.721,3.897-4.594
				c0.074-0.121,0.133-0.2,0.174-0.248c0.083,0,0.225,0.01,0.444,0.051c2.936,0.548,5.925,0.815,9.138,0.815
				C325.664,304.604,331.122,303.763,336.235,302.768 M339.523,298.183c-0.574,0-1.31,0.107-2.231,0.295
				c-5.74,1.167-11.495,2.126-17.301,2.126c-2.788,0-5.588-0.221-8.403-0.747c-0.415-0.078-0.81-0.119-1.186-0.119
				c-1.469,0-2.643,0.631-3.578,2.16c-0.876,1.428-2.1,2.652-3.3,3.84c-10.848,10.764-24.06,17.927-37.621,24.552
				c-0.221-0.015-0.432-0.022-0.634-0.022c-4.646,0-4.808,3.855-5.773,7.246c-1.98,7.032-5.292,13.477-9.385,19.5
				c-1.079,1.596-0.754,2.316,0.997,2.7c1.753,0.384,3.48,0.829,5.317,0.829c1.115-0.132,2.268-0.121,3.336-0.396
				c33.083-8.568,59.543-26.796,79.416-54.588c0.78-1.092,1.38-2.244,1.68-3.54C341.518,299.206,341.296,298.183,339.523,298.183
				L339.523,298.183z"/>
		</g>
		<g>
			<path d="M216.536,306.293c6.434,7.736,14.669,12.914,22.635,17.921c0.981,0.617,1.962,1.233,2.938,1.854
				c3.811,2.423,7.782,4.645,11.522,6.682c-1.745,7.223-5.076,14.31-10.174,21.644c-0.265,0.385-1.244,0.689-2.182,0.98
				c-8.399,2.589-16.699,3.943-25.362,4.137c-18.427-2.19-37.612-6.131-53.257-19.78c-2.88-2.514-5.369-5.459-7.404-8.768
				c-0.234-0.376-0.241-0.44-0.103-0.839c2.252-6.428,4.918-13.325,8.149-21.085c0.098-0.235,0.185-0.412,0.256-0.543
				c6.651,0.827,13.37,1.246,19.982,1.246C194.555,309.741,205.667,308.578,216.536,306.293 M216.96,302.167
				c-0.161,0-0.322,0.017-0.484,0.049c-10.929,2.351-21.909,3.525-32.938,3.525c-6.651,0-13.321-0.427-20.007-1.281
				c-0.162-0.021-0.318-0.032-0.469-0.032c-1.644,0-2.685,1.226-3.454,3.072c-2.929,7.033-5.713,14.112-8.232,21.3
				c-0.541,1.56-0.385,2.88,0.479,4.271c2.245,3.649,4.969,6.876,8.173,9.672c15.97,13.933,35.46,18.384,55.693,20.771
				c9.203-0.179,18.058-1.644,26.735-4.319c1.622-0.504,3.253-1.02,4.296-2.533c5.088-7.319,9.036-15.167,10.992-23.939
				c0.348-1.596-0.132-2.353-1.523-3.121c-4.045-2.196-8.078-4.44-11.965-6.912c-8.796-5.592-17.904-10.825-24.696-19.021
				C218.725,302.675,217.856,302.167,216.96,302.167L216.96,302.167z"/>
		</g>
		<g>
			<path d="M258.627,143.956v4h0c1.432,0,2.831,0.034,4.159,0.1c1.265,0.063,2.53,0.122,3.796,0.18
				c8.177,0.377,15.9,0.733,23.553,2.372c0.715,0.157,1.497,0.345,1.716,0.577c9.565,10.146,20.334,22.563,27.695,37.747
				c1.26,2.582,1.484,4.809,0.75,7.442c-4.065,14.563-8.94,25.933-15.341,35.785c-0.729,1.122-1.58,2.215-2.481,3.373
				c-0.832,1.068-1.691,2.173-2.493,3.351c-1.477,2.157-4.001,4.768-7.649,4.954c-1.02,0.054-8.246,0.064-15.234,0.074
				c-16.921,0.025-24.219,0.063-25.582,0.231c-0.254,0.03-0.501,0.045-0.732,0.045c-1.291,0-2.493-0.418-4.17-2.462
				c-6.905-8.411-13.242-17.507-19.371-26.304c-2.565-3.683-5.139-7.459-7.628-11.112c-1.861-2.731-3.722-5.461-5.606-8.195
				c-0.051-0.074-0.094-0.138-0.13-0.192l0.557-1.212c5.954-12.952,12.111-26.346,19.278-38.846
				c0.754-1.308,1.584-2.584,2.463-3.935c0.552-0.849,1.121-1.721,1.68-2.621c0.124-0.01,0.255-0.019,0.362-0.025
				c0.229-0.014,0.453-0.029,0.658-0.048l2.247-0.205c5.762-0.527,11.72-1.072,17.501-1.072L258.627,143.956 M258.626,143.956
				c-6.714,0-13.42,0.691-20.107,1.293c-1.286,0.12-2.87-0.012-3.77,1.477c-1.463,2.4-3.097,4.704-4.5,7.139
				c-7.534,13.14-13.811,26.917-20.134,40.669c-0.721,1.56-0.24,2.639,0.612,3.863c4.427,6.42,8.772,12.9,13.235,19.308
				c6.287,9.024,12.577,18.048,19.561,26.556c2.001,2.439,4.212,3.924,7.262,3.924c0.385,0,0.785-0.024,1.198-0.072
				c2.328-0.287,37.836-0.14,40.56-0.283c4.477-0.229,8.136-2.884,10.74-6.688c1.583-2.328,3.492-4.44,5.028-6.804
				c7.392-11.376,12.205-23.869,15.839-36.888c1.022-3.671,0.637-6.9-1.008-10.271c-7.103-14.652-17.315-27-28.379-38.736
				c-1.02-1.081-2.351-1.429-3.768-1.74c-9.24-1.979-18.648-2.171-28.008-2.64C261.533,143.988,260.08,143.956,258.626,143.956
				L258.626,143.956z"/>
		</g>
		<g>
			<path d="M233.408,93.758c16.504,0,33.619,4.418,52.321,13.507c4.612,2.243,8.043,6.441,11.676,10.887
				c0.528,0.646,1.067,1.305,1.615,1.964c-3.903,7.558-7.163,13.898-10.227,19.896c-0.046,0.089-0.088,0.169-0.127,0.241
				c-8.077-1.311-16.588-1.949-25.977-1.949c-1.216,0-2.44,0.011-3.675,0.031c-1.302-0.045-2.643-0.068-3.988-0.068
				c-6.151,0-12.576,0.458-19.134,1.365c-0.153-0.16-0.3-0.31-0.425-0.428c-10.09-9.844-22.344-16.26-34.194-22.465l-1.889-0.99
				c1.929-5.778,4.747-11.202,8.602-16.562c2.019-2.806,4.916-3.372,9.475-4.063c0.467-0.071,0.933-0.142,1.395-0.215
				C223.658,94.146,228.553,93.758,233.408,93.758L233.408,93.758 M233.408,89.758c-4.989,0-10.047,0.385-15.181,1.202
				c-4.944,0.792-10.069,1.14-13.488,5.892c-4.056,5.64-7.224,11.652-9.349,18.24c-0.588,1.823-0.396,2.879,1.656,3.948
				c12.564,6.6,25.308,12.959,35.628,23.027c0.708,0.675,1.448,1.71,2.386,1.71c0.063,0,0.128-0.005,0.194-0.015
				c6.693-0.981,13.419-1.496,19.771-1.496c1.335,0,2.654,0.023,3.952,0.069c1.248-0.021,2.484-0.032,3.711-0.032
				c9.19,0,17.861,0.613,26.457,2.084c0.129,0.023,0.254,0.034,0.375,0.034c1.341,0,2.19-1.338,2.83-2.582
				c3.506-6.864,7.034-13.716,10.574-20.569c0.444-0.875,0.802-1.787,0.083-2.627c-4.692-5.508-8.941-11.772-15.529-14.977
				C270.193,95.268,252.293,89.758,233.408,89.758L233.408,89.758z"/>
		</g>
		<g>
			<path d="M196.312,96.827c-3.586,5.607-6.121,11.208-7.716,17.028c-1.373,0.119-2.588,0.629-3.525,1.081
				c-12.333,5.958-25.256,12.649-35.803,23.081c-3.812,3.78-7.726,5.006-12.428,5.685c-5.57,0.799-11.375,1.944-17.309,3.415
				c0.132-0.194,0.278-0.394,0.439-0.6C139.742,120.879,165.413,104.175,196.312,96.827 M202.578,91.264
				c-1.069,0-2.375,0.605-3.42,0.825c-33.863,7.152-61.236,24.6-82.355,51.983c-1.309,1.68-2.221,3.469-2.353,5.88
				c-0.271,1.565,0.259,2.124,1.301,2.124c0.427,0,0.941-0.094,1.521-0.251c6.636-1.765,13.355-3.192,20.136-4.165
				c5.653-0.815,10.284-2.448,14.677-6.804c9.9-9.792,22.235-16.284,34.727-22.319c0.733-0.354,1.58-0.708,2.372-0.708
				c0.014,0,0.028,0,0.042,0c0.031,0,0.061,0.001,0.091,0.001c1.947,0,2.653-1.12,3.112-2.822c1.872-6.887,5.1-13.116,9.204-18.923
				c0.937-1.333,3.325-2.556,2.483-3.996C203.751,91.472,203.205,91.264,202.578,91.264L202.578,91.264z"/>
		</g>
		<g>
			<path d="M138.998,154.392c-0.676,4.565-0.395,9.04-0.121,13.402c0.068,1.087,0.137,2.172,0.189,3.262
				c0.35,7.038,1.458,13.611,3.293,19.537c0.75,2.422,1.686,5.167,3.37,7.715c-7.287,8.257-11.247,18.15-15.083,27.733l-0.468,1.169
				c-2.808,7.012-5.072,14.054-6.742,20.975c-2.39,0.354-4.824,0.359-7.182,0.364c-1.36,0.003-2.648,0.005-3.867,0.077
				c-1.173-0.001-2.249-0.015-3.257-0.028c-0.948-0.012-1.839-0.023-2.695-0.023c-1.467,0-2.613,0.034-3.705,0.108
				c-0.079,0.005-0.156,0.008-0.231,0.008c-0.509,0-0.949,0-1.856-1.436c-4.319-6.805-6.634-13.71-6.88-20.522
				c-0.965-27.032,5.702-48.542,20.377-65.753c0.931-1.087,1.795-1.645,3.07-1.986C124.382,157.101,131.76,155.695,138.998,154.392
				 M143.011,149.667c-0.276,0-0.592,0.049-0.913,0.107c-8.687,1.547-17.363,3.096-25.907,5.351
				c-2.112,0.565-3.671,1.596-5.089,3.253c-16.883,19.8-22.236,43.271-21.336,68.496c0.289,7.991,3.121,15.624,7.5,22.523
				c1.274,2.017,2.779,3.292,5.233,3.292c0.16,0,0.324-0.005,0.491-0.016c1.123-0.077,2.249-0.1,3.445-0.1
				c1.795,0,3.746,0.052,6.073,0.052c3.25-0.205,7.57,0.156,11.879-0.541c1.633-0.265,2.436-0.78,2.82-2.473
				c1.692-7.139,3.959-14.111,6.684-20.916c4.129-10.296,8.111-20.688,15.947-28.956c0.949-0.996,0.59-1.8-0.105-2.712
				c-1.764-2.269-2.713-4.909-3.553-7.621c-1.873-6.048-2.808-12.3-3.119-18.552c-0.314-6.527-1.2-13.14,0.707-19.607
				C144.146,149.979,143.706,149.667,143.011,149.667L143.011,149.667z"/>
		</g>
		<g>
			<path d="M203.706,202.119c0.983,0,1.308,0.114,2.013,1.165l1.087,1.614c8.514,12.642,17.317,25.715,26.805,38.072
				c1.735,2.253,3.608,4.525,5.725,6.944c-6.565,14.352-13.1,28.354-20.672,41.875c-2.045,3.641-4.572,5.344-8.722,5.876
				c-7.987,1.027-18.534,2.206-29.293,2.206c-4.037,0-7.978-0.167-11.71-0.496c-3.68-0.327-5.949-1.373-7.834-3.612
				c-9.664-11.447-19.487-24.031-25.87-38.484c-1.378-3.11-1.549-5.95-0.552-9.209c3.53-11.537,7.686-23.792,14.139-35.235
				c2.312-4.082,4.722-7.917,8.736-9.967c0.992-0.5,1.816-0.713,2.752-0.713c7.239,0.012,14.462,0.012,21.7,0.012
				c0.108,0.009,0.217,0.013,0.327,0.013c1.978,0,3.957,0.008,5.935,0.017c1.99,0.008,3.979,0.017,5.969,0.017
				c3.654,0,6.628-0.03,9.34-0.095L203.706,202.119 M203.705,198.119c-0.066,0-0.133,0-0.201,0.002
				c-3.089,0.074-6.176,0.094-9.265,0.094c-3.968,0-7.936-0.034-11.903-0.034c0-0.013,0-0.013,0-0.013
				c-7.345,0-14.675,0-22.021-0.012c-1.62,0-3.059,0.385-4.559,1.141c-4.981,2.544-7.813,6.971-10.417,11.567
				c-6.408,11.365-10.68,23.604-14.483,36.036c-1.284,4.2-1.046,8.016,0.72,12c6.503,14.725,16.188,27.264,26.471,39.444
				c2.88,3.419,6.36,4.644,10.536,5.016c4.031,0.355,8.051,0.511,12.064,0.511c9.967,0,19.888-0.963,29.804-2.239
				c5.328-0.684,8.976-3.036,11.7-7.884c7.776-13.884,14.473-28.284,21.084-42.744c0.575-1.283,0.421-2.244-0.528-3.312
				c-2.051-2.329-4.043-4.716-5.928-7.164c-9.804-12.769-18.755-26.137-27.744-39.48
				C207.658,198.993,206.143,198.119,203.705,198.119L203.705,198.119z"/>
		</g>
		<path d="M362.878,211.183c-2.113-5.405-4.241-10.719-7.252-15.633c-0.38-0.614-0.627-1.4-0.647-2.113
			c-0.15-5.342,0.236-10.699-0.426-16.063C359.07,188.239,361.817,199.518,362.878,211.183z"/>
		<path d="M322.141,128.311c-4.509-2.939-9.081-5.707-13.73-8.377c-2.901-1.664-4.292-5.037-6.396-7.659
			C309.479,116.704,316.079,122.166,322.141,128.311z"/>
		<path d="M90.354,242.832c2.095,4.099,3.949,8.304,7.223,11.633c0.643,0.654,0.69,1.526,0.664,2.38
			c-0.255,8.442,0.738,16.755,2.619,24.989C95.244,269.398,91.62,256.443,90.354,242.832z"/>
		<path d="M125.178,319.163c5.238,3.123,10.139,6.808,15.654,9.369c4.442,2.057,8.202,4.446,10.561,9.009
			c1.651,3.196,4.617,5.556,7.062,8.252C145.795,338.857,134.75,329.935,125.178,319.163z"/>
	</g>
</g>
<g id="pivot">
	<circle fill="none" cx="239.63" cy="358.438" r="14.133"/>
</g>
</svg>
