<?xml version="1.0" encoding="utf-8"?>
<!-- Generator: Adobe Illustrator 16.0.0, SVG Export Plug-In . SVG Version: 6.00 Build 0)  -->
<!DOCTYPE svg PUBLIC "-//W3C//DTD SVG 1.1//EN" "http://www.w3.org/Graphics/SVG/1.1/DTD/svg11.dtd">
<svg version="1.1" id="Layer_1" xmlns="http://www.w3.org/2000/svg" xmlns:xlink="http://www.w3.org/1999/xlink" x="0px" y="0px"
	 width="453.543px" height="453.543px" viewBox="0 0 453.543 453.543" enable-background="new 0 0 453.543 453.543"
	 xml:space="preserve">
<g id="kvadrat" display="none">
</g>
<g id="color" display="none">
	<g id="rdeča7bela" display="inline">
	</g>
	<g display="inline">
		
			<path fill="#FFCF00" stroke="#000000" stroke-width="8" stroke-linecap="round" stroke-linejoin="round" stroke-miterlimit="10" d="
			M323.105,226.771c0,53.204-43.129,96.333-96.333,96.333c-53.207,0-96.335-43.129-96.335-96.333
			c0-53.202,43.128-96.332,96.335-96.332C279.977,130.439,323.105,173.569,323.105,226.771z"/>
		
			<path fill="#FFCF00" stroke="#000000" stroke-width="8" stroke-linecap="round" stroke-linejoin="round" stroke-miterlimit="10" d="
			M231.473,132.469c4.859,1.621,58.33,71.942-28.84,94.302c-29.436,6.936-59.309,24.63-61.248,42.777"/>
		
			<path fill="#FFCF00" stroke="#000000" stroke-width="8" stroke-linecap="round" stroke-linejoin="round" stroke-miterlimit="10" d="
			M310.542,187.234c-6.856-1.69-40.181,10.694-45.69,32.082c-5.51,21.389,4.993,48.341,4.993,48.341s6.671,22.953-5.319,42.396"/>
	</g>
</g>
<g id="cb">
	<g id="rdeča7bela_copy">
	</g>
	<g>
		<path fill="none" stroke="#000000" stroke-width="8" stroke-linecap="round" stroke-linejoin="round" stroke-miterlimit="10" d="
			M323.105,226.771c0,53.204-43.129,96.333-96.333,96.333c-53.207,0-96.335-43.129-96.335-96.333
			c0-53.202,43.128-96.332,96.335-96.332C279.977,130.439,323.105,173.569,323.105,226.771z"/>
		<path fill="none" stroke="#000000" stroke-width="8" stroke-linecap="round" stroke-linejoin="round" stroke-miterlimit="10" d="
			M231.473,132.469c4.859,1.621,58.33,71.942-28.84,94.302c-29.436,6.936-59.309,24.63-61.248,42.777"/>
		<path fill="none" stroke="#000000" stroke-width="8" stroke-linecap="round" stroke-linejoin="round" stroke-miterlimit="10" d="
			M310.542,187.234c-6.856-1.69-40.181,10.694-45.69,32.082c-5.51,21.389,4.993,48.341,4.993,48.341s6.671,22.953-5.319,42.396
			l-5.503,7.514"/>
	</g>
</g>
<g id="pivot">
	<circle fill="none" cx="226.535" cy="313.922" r="14.133"/>
</g>
</svg>
