<?xml version="1.0" encoding="utf-8"?>
<!-- Generator: Adobe Illustrator 16.0.0, SVG Export Plug-In . SVG Version: 6.00 Build 0)  -->
<!DOCTYPE svg PUBLIC "-//W3C//DTD SVG 1.1//EN" "http://www.w3.org/Graphics/SVG/1.1/DTD/svg11.dtd">
<svg version="1.1" xmlns="http://www.w3.org/2000/svg" xmlns:xlink="http://www.w3.org/1999/xlink" x="0px" y="0px" width="220px"
	 height="220px" viewBox="0 0 220 220" enable-background="new 0 0 220 220" xml:space="preserve">
<g id="bg" display="none">
	<rect x="-2545.836" y="-4881.787" display="inline" fill="#FFFFFF" width="3240.076" height="8444.104"/>
</g>
<g id="Layer_3" display="none">
</g>
<g id="Layer_1">
	<g>
		<defs>
			<rect id="SVGID_261_" x="-2100" y="-3900" width="220" height="220"/>
		</defs>
		<clipPath id="SVGID_2_">
			<use xlink:href="#SVGID_261_"  overflow="visible"/>
		</clipPath>
	</g>
	<g>
		<defs>
			<rect id="SVGID_263_" x="-900" y="-3900" width="220" height="220"/>
		</defs>
		<clipPath id="SVGID_4_">
			<use xlink:href="#SVGID_263_"  overflow="visible"/>
		</clipPath>
	</g>
	<g>
		<defs>
			<rect id="SVGID_265_" x="-300" y="-3900" width="220" height="220"/>
		</defs>
		<clipPath id="SVGID_6_">
			<use xlink:href="#SVGID_265_"  overflow="visible"/>
		</clipPath>
	</g>
	<g>
		<defs>
			<rect id="SVGID_267_" x="-600" y="-3900" width="220" height="220"/>
		</defs>
		<clipPath id="SVGID_8_">
			<use xlink:href="#SVGID_267_"  overflow="visible"/>
		</clipPath>
	</g>
	<g>
		<defs>
			<rect id="SVGID_269_" x="-1800" y="-3900" width="220" height="220"/>
		</defs>
		<clipPath id="SVGID_10_">
			<use xlink:href="#SVGID_269_"  overflow="visible"/>
		</clipPath>
	</g>
	<g>
		<defs>
			<rect id="SVGID_271_" x="-1200" y="-3900" width="220" height="220"/>
		</defs>
		<clipPath id="SVGID_12_">
			<use xlink:href="#SVGID_271_"  overflow="visible"/>
		</clipPath>
	</g>
	<g>
		<defs>
			<rect id="SVGID_451_" width="220" height="220"/>
		</defs>
		<clipPath id="SVGID_14_">
			<use xlink:href="#SVGID_451_"  overflow="visible"/>
		</clipPath>
		<rect clip-path="url(#SVGID_14_)" fill="#F0E443" width="220" height="220"/>
		<g clip-path="url(#SVGID_14_)">
			
				<path fill="none" stroke="#000000" stroke-width="1.5045" stroke-linecap="round" stroke-linejoin="round" stroke-miterlimit="10" d="
				M132.373,134.802c-5.226-6.742-8.03-16.567,4.032-32.844"/>
			
				<path fill="none" stroke="#000000" stroke-width="1.5045" stroke-linecap="round" stroke-linejoin="round" stroke-miterlimit="10" d="
				M106.157,115.374c7.987,2.996,18.187,2.86,30.249-13.416"/>
			
				<path fill="#57B2E5" stroke="#000000" stroke-width="1.5045" stroke-linecap="round" stroke-linejoin="round" stroke-miterlimit="10" d="
				M144.121,93.738c-9.749,13.154-6.988,31.718,6.166,41.465c13.154,9.749,31.718,6.986,41.466-6.167
				c9.747-13.152,6.987-31.716-6.167-41.465c-0.435-0.321-0.875-0.628-1.321-0.924c6.783,1.1,13.928-1.529,18.301-7.43
				c6.243-8.424,4.474-20.309-3.949-26.55c-8.422-6.241-20.307-4.475-26.55,3.948C165.976,64.837,151.541,83.726,144.121,93.738z"/>
			
				<path fill="#57B2E5" stroke="#000000" stroke-width="1.5045" stroke-linecap="round" stroke-linejoin="round" stroke-miterlimit="10" d="
				M93.774,56.427c-9.748,13.155-6.987,31.718,6.167,41.466c13.153,9.747,31.717,6.987,41.466-6.167
				c7.419-10.012,21.289-29.32,27.381-37.541c6.242-8.423,4.474-20.308-3.949-26.55c-8.421-6.241-20.307-4.475-26.549,3.949
				c-4.373,5.901-4.809,13.502-1.782,19.671c-0.412-0.34-0.834-0.673-1.268-0.994C122.085,40.513,103.521,43.275,93.774,56.427z"/>
			
				<path fill="#7E4E24" stroke="#000000" stroke-width="1.5045" stroke-linecap="round" stroke-linejoin="round" stroke-miterlimit="10" d="
				M182.842,37.79c-3.683-2.729-10.492,3.995-10.492,3.995s-35.408,47.779-38.036,51.324c-3.258,4.397-9.403,12.744-4.387,16.462
				c5.017,3.717,11.214-4.59,14.473-8.987c2.627-3.546,38.035-51.324,38.035-51.324S186.526,40.52,182.842,37.79z"/>
			
				<circle fill="#FFCF00" stroke="#000000" stroke-width="1.5045" stroke-linecap="round" stroke-linejoin="round" stroke-miterlimit="10" cx="167.937" cy="111.387" r="9.81"/>
			<circle fill="#E84E1B" stroke="#000000" stroke-width="1.5045" stroke-miterlimit="10" cx="187.317" cy="67.917" r="5.758"/>
			
				<circle fill="#FFCF00" stroke="#000000" stroke-width="1.5045" stroke-linecap="round" stroke-linejoin="round" stroke-miterlimit="10" cx="117.59" cy="74.077" r="9.81"/>
			<circle fill="#E84E1B" stroke="#000000" stroke-width="1.5045" stroke-miterlimit="10" cx="153.539" cy="42.885" r="5.758"/>
			<circle cx="132.373" cy="134.801" r="5.264"/>
			<circle cx="105.291" cy="114.732" r="5.264"/>
		</g>
		<g clip-path="url(#SVGID_14_)">
			
				<path fill="none" stroke="#000000" stroke-width="1.0547" stroke-linecap="round" stroke-linejoin="round" stroke-miterlimit="10" d="
				M23.193,127.345c5.726-1.719,12.86-1.076,20.466,10.917"/>
			
				<path fill="none" stroke="#000000" stroke-width="1.0547" stroke-linecap="round" stroke-linejoin="round" stroke-miterlimit="10" d="
				M42.508,115.095c-3.972,4.469-6.455,11.174,1.151,23.167"/>
			
				<path fill="#57B2E5" stroke="#000000" stroke-width="1.5" stroke-linecap="round" stroke-linejoin="round" stroke-miterlimit="10" d="
				M47.091,145.381c-6.146-9.692-18.985-12.566-28.678-6.42c-9.691,6.147-12.565,18.986-6.418,28.678
				c6.146,9.69,18.985,12.565,28.677,6.418c0.32-0.204,0.631-0.414,0.938-0.631c-2.429,4.159-2.511,9.496,0.247,13.844
				c3.936,6.206,12.155,8.046,18.36,4.11c6.206-3.936,8.046-12.155,4.11-18.361C60.485,166.961,51.769,152.758,47.091,145.381z"/>
			
				<path fill="#57B2E5" stroke="#000000" stroke-width="1.5" stroke-linecap="round" stroke-linejoin="round" stroke-miterlimit="10" d="
				M84.187,121.855c-6.147-9.692-18.985-12.566-28.677-6.419c-9.691,6.147-12.566,18.985-6.419,28.677
				c4.679,7.377,13.812,21.315,17.652,27.373c3.937,6.207,12.156,8.046,18.361,4.11c6.206-3.935,8.046-12.155,4.11-18.361
				c-2.758-4.348-7.62-6.549-12.418-6.125c0.327-0.184,0.651-0.376,0.971-0.579C87.459,144.385,90.333,131.546,84.187,121.855z"/>
			
				<path fill="#7E4E24" stroke="#000000" stroke-width="1.0547" stroke-linecap="round" stroke-linejoin="round" stroke-miterlimit="10" d="
				M73.925,184.812c2.713-1.72,0.031-7.87,0.031-7.87s-22.327-35.204-23.983-37.816c-2.054-3.24-5.965-9.364-9.661-7.019
				c-3.696,2.344,0.175,8.491,2.23,11.731c1.657,2.613,23.983,37.817,23.983,37.817S71.211,186.534,73.925,184.812z"/>
			
				<circle fill="#FFCF00" stroke="#000000" stroke-width="1.0547" stroke-linecap="round" stroke-linejoin="round" stroke-miterlimit="10" cx="29.542" cy="156.51" r="6.876"/>
			<circle fill="#E84E1B" stroke="#000000" stroke-width="1.0547" stroke-miterlimit="10" cx="53.091" cy="180.145" r="4.036"/>
			
				<circle fill="#FFCF00" stroke="#000000" stroke-width="1.0547" stroke-linecap="round" stroke-linejoin="round" stroke-miterlimit="10" cx="66.639" cy="132.984" r="6.877"/>
			<circle fill="#E84E1B" stroke="#000000" stroke-width="1.0547" stroke-miterlimit="10" cx="77.979" cy="164.361" r="4.036"/>
			<circle cx="23.192" cy="127.345" r="3.69"/>
			<circle cx="43.147" cy="114.69" r="3.69"/>
		</g>
		
			<circle clip-path="url(#SVGID_14_)" fill="#57B2E5" stroke="#000000" stroke-width="2" stroke-linecap="round" stroke-linejoin="round" stroke-miterlimit="10" cx="183.845" cy="0" r="7.654"/>
		
			<circle clip-path="url(#SVGID_14_)" fill="#57B2E5" stroke="#000000" stroke-width="2" stroke-linecap="round" stroke-linejoin="round" stroke-miterlimit="10" cx="220.512" cy="0" r="7.654"/>
		
			<circle clip-path="url(#SVGID_14_)" fill="#57B2E5" stroke="#000000" stroke-width="2" stroke-linecap="round" stroke-linejoin="round" stroke-miterlimit="10" cx="147.178" cy="0" r="7.654"/>
		
			<circle clip-path="url(#SVGID_14_)" fill="#57B2E5" stroke="#000000" stroke-width="2" stroke-linecap="round" stroke-linejoin="round" stroke-miterlimit="10" cx="110.512" cy="0" r="7.654"/>
		
			<circle clip-path="url(#SVGID_14_)" fill="#57B2E5" stroke="#000000" stroke-width="2" stroke-linecap="round" stroke-linejoin="round" stroke-miterlimit="10" cx="73.845" cy="0" r="7.654"/>
		
			<circle clip-path="url(#SVGID_14_)" fill="#57B2E5" stroke="#000000" stroke-width="2" stroke-linecap="round" stroke-linejoin="round" stroke-miterlimit="10" cx="37.178" cy="0" r="7.654"/>
		
			<circle clip-path="url(#SVGID_14_)" fill="#57B2E5" stroke="#000000" stroke-width="2" stroke-linecap="round" stroke-linejoin="round" stroke-miterlimit="10" cx="0.512" cy="0" r="7.654"/>
		
			<circle clip-path="url(#SVGID_14_)" fill="#57B2E5" stroke="#000000" stroke-width="2" stroke-linecap="round" stroke-linejoin="round" stroke-miterlimit="10" cx="183.845" cy="220" r="7.654"/>
		
			<circle clip-path="url(#SVGID_14_)" fill="#57B2E5" stroke="#000000" stroke-width="2" stroke-linecap="round" stroke-linejoin="round" stroke-miterlimit="10" cx="220.512" cy="220" r="7.654"/>
		
			<circle clip-path="url(#SVGID_14_)" fill="#57B2E5" stroke="#000000" stroke-width="2" stroke-linecap="round" stroke-linejoin="round" stroke-miterlimit="10" cx="147.178" cy="220" r="7.654"/>
		
			<circle clip-path="url(#SVGID_14_)" fill="#57B2E5" stroke="#000000" stroke-width="2" stroke-linecap="round" stroke-linejoin="round" stroke-miterlimit="10" cx="110.512" cy="220" r="7.654"/>
		
			<circle clip-path="url(#SVGID_14_)" fill="#57B2E5" stroke="#000000" stroke-width="2" stroke-linecap="round" stroke-linejoin="round" stroke-miterlimit="10" cx="73.845" cy="220" r="7.654"/>
		
			<circle clip-path="url(#SVGID_14_)" fill="#57B2E5" stroke="#000000" stroke-width="2" stroke-linecap="round" stroke-linejoin="round" stroke-miterlimit="10" cx="37.178" cy="220" r="7.654"/>
		
			<circle clip-path="url(#SVGID_14_)" fill="#57B2E5" stroke="#000000" stroke-width="2" stroke-linecap="round" stroke-linejoin="round" stroke-miterlimit="10" cx="0.512" cy="220" r="7.654"/>
	</g>
</g>
</svg>
