<?xml version="1.0" encoding="utf-8"?>
<!-- Generator: Adobe Illustrator 16.0.0, SVG Export Plug-In . SVG Version: 6.00 Build 0)  -->
<!DOCTYPE svg PUBLIC "-//W3C//DTD SVG 1.1//EN" "http://www.w3.org/Graphics/SVG/1.1/DTD/svg11.dtd">
<svg version="1.1" xmlns="http://www.w3.org/2000/svg" xmlns:xlink="http://www.w3.org/1999/xlink" x="0px" y="0px" width="220px"
	 height="220px" viewBox="0 0 220 220" enable-background="new 0 0 220 220" xml:space="preserve">
<g id="bg" display="none">
	<rect x="-1045.836" y="-4881.787" display="inline" fill="#FFFFFF" width="3240.076" height="8444.104"/>
</g>
<g id="Layer_3" display="none">
</g>
<g id="Layer_1">
	<g>
		<defs>
			<rect id="SVGID_261_" x="-600" y="-3900" width="220" height="220"/>
		</defs>
		<clipPath id="SVGID_2_">
			<use xlink:href="#SVGID_261_"  overflow="visible"/>
		</clipPath>
	</g>
	<g>
		<defs>
			<rect id="SVGID_269_" x="-300" y="-3900" width="220" height="220"/>
		</defs>
		<clipPath id="SVGID_4_">
			<use xlink:href="#SVGID_269_"  overflow="visible"/>
		</clipPath>
	</g>
	<g>
		<defs>
			<rect id="SVGID_435_" x="-300" width="220" height="220"/>
		</defs>
		<clipPath id="SVGID_6_">
			<use xlink:href="#SVGID_435_"  overflow="visible"/>
		</clipPath>
		<g clip-path="url(#SVGID_6_)">
			<path fill="#E84E1B" stroke="#000000" stroke-width="2" stroke-miterlimit="10" d="M0.803,97.876
				c0-21.764-17.641-39.405-39.405-39.405c-21.763,0-39.405,17.642-39.405,39.405c0,16.565,0.468,48.164,0.468,61.766
				c0,13.937,11.295,25.23,25.23,25.23c13.935,0,25.23-11.294,25.23-25.23c0-9.764-5.551-18.227-13.666-22.421
				c0.709,0.038,1.423,0.06,2.141,0.06C-16.838,137.28,0.803,119.638,0.803,97.876z"/>
		</g>
	</g>
	<g>
		<defs>
			<rect id="SVGID_437_" x="-0.001" width="220" height="220"/>
		</defs>
		<clipPath id="SVGID_8_">
			<use xlink:href="#SVGID_437_"  overflow="visible"/>
		</clipPath>
		<rect x="-0.001" clip-path="url(#SVGID_8_)" fill="#F0E443" width="220" height="220"/>
		
			<circle clip-path="url(#SVGID_8_)" fill="#57B2E5" stroke="#000000" stroke-width="2" stroke-linecap="round" stroke-linejoin="round" stroke-miterlimit="10" cx="27.69" cy="159.643" r="7.654"/>
		<g clip-path="url(#SVGID_8_)">
			<path fill="none" stroke="#000000" stroke-width="2" stroke-linecap="round" stroke-linejoin="round" stroke-miterlimit="10" d="
				M-22.453,44.721C-11.536,47.785-0.765,56.06-0.765,82.99"/>
			<path fill="none" stroke="#000000" stroke-width="2" stroke-linecap="round" stroke-linejoin="round" stroke-miterlimit="10" d="
				M20.923,44.721C10.021,47.842-0.765,56.06-0.765,82.99"/>
			<path fill="#E84E1B" stroke="#000000" stroke-width="2" stroke-miterlimit="10" d="M80.801,97.876
				c0-21.764-17.641-39.405-39.404-39.405c-21.763,0-39.405,17.642-39.405,39.405c0,16.565,0.468,48.164,0.468,61.766
				c0,13.937,11.295,25.23,25.23,25.23c13.935,0,25.23-11.294,25.23-25.23c0-9.764-5.551-18.227-13.666-22.421
				c0.709,0.038,1.422,0.06,2.141,0.06C63.161,137.28,80.801,119.638,80.801,97.876z"/>
			
				<path fill="#7E4E24" stroke="#000000" stroke-width="2" stroke-linecap="round" stroke-linejoin="round" stroke-miterlimit="10" d="
				M0.426,188.276c6.094,0,8.044-12.571,8.044-12.571s0-79.053,0-84.919c0-7.275-0.044-21.054-8.344-21.054
				s-8.344,13.778-8.344,21.054c0,5.866,0,84.919,0,84.919S-5.667,188.276,0.426,188.276z"/>
			
				<circle fill="#FFCF00" stroke="#000000" stroke-width="2" stroke-linecap="round" stroke-linejoin="round" stroke-miterlimit="10" cx="41.397" cy="97.876" r="13.041"/>
			<circle cx="22.356" cy="44.721" r="6.997"/>
			
				<circle fill="#57B2E5" stroke="#000000" stroke-width="2" stroke-linecap="round" stroke-linejoin="round" stroke-miterlimit="10" cx="27.69" cy="159.643" r="7.654"/>
		</g>
		<g clip-path="url(#SVGID_8_)">
			<path fill="none" stroke="#000000" stroke-width="2" stroke-linecap="round" stroke-linejoin="round" stroke-miterlimit="10" d="
				M197.547,44.721c10.917,3.064,21.688,11.339,21.688,38.27"/>
			<path fill="none" stroke="#000000" stroke-width="2" stroke-linecap="round" stroke-linejoin="round" stroke-miterlimit="10" d="
				M240.923,44.721c-10.901,3.121-21.688,11.339-21.688,38.27"/>
			<path fill="#E84E1B" stroke="#000000" stroke-width="2" stroke-miterlimit="10" d="M217.501,97.876
				c0-21.764-17.642-39.405-39.405-39.405c-21.764,0-39.405,17.642-39.405,39.405c0,21.762,17.641,39.404,39.405,39.404
				c0.719,0,1.432-0.021,2.141-0.06c-8.114,4.194-13.665,12.657-13.665,22.421c0,13.937,11.296,25.23,25.23,25.23
				c13.935,0,25.231-11.294,25.231-25.23C217.033,146.04,217.501,114.441,217.501,97.876z"/>
			
				<path fill="#7E4E24" stroke="#000000" stroke-width="2" stroke-linecap="round" stroke-linejoin="round" stroke-miterlimit="10" d="
				M220.426,188.276c6.094,0,8.044-12.571,8.044-12.571s0-79.053,0-84.919c0-7.275-0.044-21.054-8.344-21.054
				s-8.344,13.778-8.344,21.054c0,5.866,0,84.919,0,84.919S214.333,188.276,220.426,188.276z"/>
			
				<circle fill="#FFCF00" stroke="#000000" stroke-width="2" stroke-linecap="round" stroke-linejoin="round" stroke-miterlimit="10" cx="178.096" cy="97.876" r="13.04"/>
			
				<circle fill="#57B2E5" stroke="#000000" stroke-width="2" stroke-linecap="round" stroke-linejoin="round" stroke-miterlimit="10" cx="191.803" cy="159.643" r="7.654"/>
			<circle cx="197.547" cy="44.721" r="6.997"/>
		</g>
		
			<circle clip-path="url(#SVGID_8_)" fill="#57B2E5" stroke="#000000" stroke-width="2" stroke-linecap="round" stroke-linejoin="round" stroke-miterlimit="10" cx="109.999" cy="183.334" r="7.654"/>
		
			<circle clip-path="url(#SVGID_8_)" fill="#57B2E5" stroke="#000000" stroke-width="2" stroke-linecap="round" stroke-linejoin="round" stroke-miterlimit="10" cx="109.999" cy="220" r="7.654"/>
		
			<circle clip-path="url(#SVGID_8_)" fill="#57B2E5" stroke="#000000" stroke-width="2" stroke-linecap="round" stroke-linejoin="round" stroke-miterlimit="10" cx="109.999" cy="146.667" r="7.654"/>
		
			<circle clip-path="url(#SVGID_8_)" fill="#57B2E5" stroke="#000000" stroke-width="2" stroke-linecap="round" stroke-linejoin="round" stroke-miterlimit="10" cx="109.999" cy="110" r="7.654"/>
		
			<circle clip-path="url(#SVGID_8_)" fill="#57B2E5" stroke="#000000" stroke-width="2" stroke-linecap="round" stroke-linejoin="round" stroke-miterlimit="10" cx="109.999" cy="73.334" r="7.654"/>
		
			<circle clip-path="url(#SVGID_8_)" fill="#57B2E5" stroke="#000000" stroke-width="2" stroke-linecap="round" stroke-linejoin="round" stroke-miterlimit="10" cx="109.999" cy="36.667" r="7.654"/>
		
			<circle clip-path="url(#SVGID_8_)" fill="#57B2E5" stroke="#000000" stroke-width="2" stroke-linecap="round" stroke-linejoin="round" stroke-miterlimit="10" cx="109.999" cy="0" r="7.654"/>
	</g>
</g>
</svg>
