<?xml version="1.0" encoding="utf-8"?>
<!-- Generator: Adobe Illustrator 16.0.0, SVG Export Plug-In . SVG Version: 6.00 Build 0)  -->
<!DOCTYPE svg PUBLIC "-//W3C//DTD SVG 1.1//EN" "http://www.w3.org/Graphics/SVG/1.1/DTD/svg11.dtd">
<svg version="1.1" xmlns="http://www.w3.org/2000/svg" xmlns:xlink="http://www.w3.org/1999/xlink" x="0px" y="0px" width="220px"
	 height="220px" viewBox="0 0 220 220" enable-background="new 0 0 220 220" xml:space="preserve">
<g id="bg" display="none">
	<rect x="-2845.836" y="-2781.787" display="inline" fill="#FFFFFF" width="3240.076" height="8444.104"/>
</g>
<g id="Layer_3" display="none">
</g>
<g id="Layer_1">
	<g>
		<defs>
			<rect id="SVGID_261_" x="-2400" y="-1800" width="220" height="220"/>
		</defs>
		<clipPath id="SVGID_2_">
			<use xlink:href="#SVGID_261_"  overflow="visible"/>
		</clipPath>
	</g>
	<g>
		<defs>
			<rect id="SVGID_263_" x="-1200" y="-1800" width="220" height="220"/>
		</defs>
		<clipPath id="SVGID_4_">
			<use xlink:href="#SVGID_263_"  overflow="visible"/>
		</clipPath>
	</g>
	<g>
		<defs>
			<rect id="SVGID_265_" x="-600" y="-1800" width="220" height="220"/>
		</defs>
		<clipPath id="SVGID_6_">
			<use xlink:href="#SVGID_265_"  overflow="visible"/>
		</clipPath>
	</g>
	<g>
		<defs>
			<rect id="SVGID_267_" x="-900" y="-1800" width="220" height="220"/>
		</defs>
		<clipPath id="SVGID_8_">
			<use xlink:href="#SVGID_267_"  overflow="visible"/>
		</clipPath>
	</g>
	<g>
		<defs>
			<rect id="SVGID_269_" x="-2100" y="-1800" width="220" height="220"/>
		</defs>
		<clipPath id="SVGID_10_">
			<use xlink:href="#SVGID_269_"  overflow="visible"/>
		</clipPath>
	</g>
	<g>
		<defs>
			<rect id="SVGID_271_" x="-1500" y="-1800" width="220" height="220"/>
		</defs>
		<clipPath id="SVGID_12_">
			<use xlink:href="#SVGID_271_"  overflow="visible"/>
		</clipPath>
	</g>
	<g>
		<defs>
			<rect id="SVGID_373_" y="0" width="220" height="220"/>
		</defs>
		<clipPath id="SVGID_14_">
			<use xlink:href="#SVGID_373_"  overflow="visible"/>
		</clipPath>
		<rect y="0" clip-path="url(#SVGID_14_)" fill="#E84F1D" width="220" height="220"/>
		<g clip-path="url(#SVGID_14_)">
			
				<path fill="#56B0E3" stroke="#000100" stroke-width="2" stroke-linecap="round" stroke-linejoin="round" stroke-miterlimit="10" d="
				M66.646,201.028c0,6.742-4.417,10.604-12.121,10.604c-0.837,0-1.516-0.677-1.516-1.515c0-0.836,6.06-21.887,6.06-22.726
				c0-0.835,0.679-1.515,1.516-1.515C66.646,185.877,66.646,193.238,66.646,201.028z"/>
			
				<path fill="#56B0E3" stroke="#000100" stroke-width="2" stroke-linecap="round" stroke-linejoin="round" stroke-miterlimit="10" d="
				M14.855,180.042c-3.622,2.353-3.622,10.484-3.622,19.019c0,8.067,6.372,15.146,13.636,15.146h0c0.835,0,0-3.028,0-3.028h0
				v-32.101C24.869,179.077,15.534,179.601,14.855,180.042z"/>
			
				<path fill="#56B0E3" stroke="#000100" stroke-width="2" stroke-linecap="round" stroke-linejoin="round" stroke-miterlimit="10" d="
				M39.274,152.356c-8.784,0-24.14,14.944-24.14,28.976c0,19.575,13.578,38.774,18.688,45.998c0.209,0.296,0.404,0.564,0.578,0.817
				c-1.688,1.834-4.536,5.184-5.471,7.047c-0.522,1.045-0.787,2.04-0.787,2.951c0,2.461,1.885,3.787,3.657,3.787h18.183
				c1.772,0,3.658-1.325,3.658-3.787c0-0.912-0.265-1.906-0.79-2.951c-0.938-1.875-3.818-5.258-5.504-7.084
				c2.931-4.758,14.754-25.281,14.754-46.779C62.102,165.289,48.059,152.356,39.274,152.356z"/>
			<path fill="none" stroke="#000100" stroke-width="2" stroke-linecap="round" stroke-linejoin="round" stroke-miterlimit="10" d="
				M25.74,175.469c0,0,14.245,12.137,27.27,0"/>
			<circle fill="#000100" cx="36.366" cy="166.183" r="3.01"/>
		</g>
		<g clip-path="url(#SVGID_14_)">
			
				<path fill="#56B0E3" stroke="#000100" stroke-width="2" stroke-linecap="round" stroke-linejoin="round" stroke-miterlimit="10" d="
				M66.646,93.384c0,6.741-4.417,10.604-12.121,10.604c-0.837,0-1.516-0.678-1.516-1.515c0-0.836,6.06-21.887,6.06-22.726
				c0-0.835,0.679-1.515,1.516-1.515C66.646,78.234,66.646,85.594,66.646,93.384z"/>
			
				<path fill="#56B0E3" stroke="#000100" stroke-width="2" stroke-linecap="round" stroke-linejoin="round" stroke-miterlimit="10" d="
				M14.855,72.398c-3.622,2.353-3.622,10.484-3.622,19.019c0,8.067,6.372,15.146,13.636,15.146h0c0.835,0,0-3.028,0-3.028h0V71.433
				C24.869,71.433,15.534,71.958,14.855,72.398z"/>
			
				<path fill="#56B0E3" stroke="#000100" stroke-width="2" stroke-linecap="round" stroke-linejoin="round" stroke-miterlimit="10" d="
				M39.274,44.712c-8.784,0-24.14,14.944-24.14,28.976c0,19.574,13.578,38.773,18.688,45.998c0.209,0.296,0.404,0.564,0.578,0.817
				c-1.688,1.834-4.536,5.184-5.471,7.047c-0.522,1.046-0.787,2.04-0.787,2.952c0,2.461,1.885,3.787,3.657,3.787h18.183
				c1.772,0,3.658-1.325,3.658-3.787c0-0.912-0.265-1.905-0.79-2.952c-0.938-1.875-3.818-5.258-5.504-7.084
				c2.931-4.758,14.754-25.28,14.754-46.778C62.102,57.646,48.059,44.712,39.274,44.712z"/>
			<path fill="none" stroke="#000100" stroke-width="2" stroke-linecap="round" stroke-linejoin="round" stroke-miterlimit="10" d="
				M25.74,67.826c0,0,14.245,12.136,27.27,0"/>
			<circle fill="#000100" cx="36.366" cy="58.539" r="3.01"/>
		</g>
		<g clip-path="url(#SVGID_14_)">
			
				<path fill="#56B0E3" stroke="#000100" stroke-width="2" stroke-linecap="round" stroke-linejoin="round" stroke-miterlimit="10" d="
				M39.274-67.644c-8.784,0-24.14,14.944-24.14,28.976c0,19.575,13.578,38.774,18.688,45.998c0.209,0.296,0.404,0.564,0.578,0.817
				c-1.688,1.834-4.536,5.184-5.471,7.047c-0.522,1.045-0.787,2.04-0.787,2.951c0,2.461,1.885,3.787,3.657,3.787h18.183
				c1.772,0,3.658-1.325,3.658-3.787c0-0.912-0.265-1.906-0.79-2.951c-0.938-1.875-3.818-5.258-5.504-7.084
				c2.931-4.758,14.754-25.281,14.754-46.779C62.102-54.711,48.059-67.644,39.274-67.644z"/>
		</g>
		<g clip-path="url(#SVGID_14_)">
			
				<path fill="#56B0E3" stroke="#000100" stroke-width="2" stroke-linecap="round" stroke-linejoin="round" stroke-miterlimit="10" d="
				M176.646,231.028c0,6.742-4.417,10.604-12.121,10.604c-0.837,0-1.516-0.677-1.516-1.515c0-0.836,6.06-21.887,6.06-22.726
				c0-0.835,0.679-1.515,1.516-1.515C176.646,215.877,176.646,223.238,176.646,231.028z"/>
			
				<path fill="#56B0E3" stroke="#000100" stroke-width="2" stroke-linecap="round" stroke-linejoin="round" stroke-miterlimit="10" d="
				M124.855,210.042c-3.622,2.353-3.622,10.484-3.622,19.019c0,8.067,6.372,15.146,13.636,15.146h0c0.835,0,0-3.028,0-3.028h0
				v-32.101C134.869,209.077,125.534,209.601,124.855,210.042z"/>
			
				<path fill="#56B0E3" stroke="#000100" stroke-width="2" stroke-linecap="round" stroke-linejoin="round" stroke-miterlimit="10" d="
				M149.274,182.356c-8.784,0-24.14,14.944-24.14,28.976c0,19.575,13.578,38.774,18.688,45.998c0.209,0.296,0.404,0.564,0.578,0.817
				c-1.688,1.834-4.536,5.184-5.471,7.047c-0.522,1.045-0.787,2.04-0.787,2.951c0,2.461,1.885,3.787,3.657,3.787h18.183
				c1.772,0,3.658-1.325,3.658-3.787c0-0.912-0.265-1.906-0.79-2.951c-0.938-1.875-3.818-5.258-5.504-7.084
				c2.931-4.758,14.754-25.281,14.754-46.779C172.102,195.289,158.059,182.356,149.274,182.356z"/>
			<path fill="none" stroke="#000100" stroke-width="2" stroke-linecap="round" stroke-linejoin="round" stroke-miterlimit="10" d="
				M135.74,205.469c0,0,14.245,12.137,27.27,0"/>
			<circle fill="#000100" cx="146.366" cy="196.183" r="3.01"/>
		</g>
		<g clip-path="url(#SVGID_14_)">
			
				<path fill="#56B0E3" stroke="#000100" stroke-width="2" stroke-linecap="round" stroke-linejoin="round" stroke-miterlimit="10" d="
				M176.646,123.384c0,6.741-4.417,10.604-12.121,10.604c-0.837,0-1.516-0.678-1.516-1.515c0-0.836,6.06-21.887,6.06-22.726
				c0-0.835,0.679-1.515,1.516-1.515C176.646,108.234,176.646,115.594,176.646,123.384z"/>
			
				<path fill="#56B0E3" stroke="#000100" stroke-width="2" stroke-linecap="round" stroke-linejoin="round" stroke-miterlimit="10" d="
				M124.855,102.398c-3.622,2.353-3.622,10.484-3.622,19.019c0,8.067,6.372,15.146,13.636,15.146h0c0.835,0,0-3.028,0-3.028h0
				v-32.102C134.869,101.433,125.534,101.958,124.855,102.398z"/>
			
				<path fill="#56B0E3" stroke="#000100" stroke-width="2" stroke-linecap="round" stroke-linejoin="round" stroke-miterlimit="10" d="
				M149.274,74.712c-8.784,0-24.14,14.944-24.14,28.976c0,19.574,13.578,38.773,18.688,45.998c0.209,0.296,0.404,0.564,0.578,0.817
				c-1.688,1.834-4.536,5.184-5.471,7.047c-0.522,1.046-0.787,2.04-0.787,2.952c0,2.461,1.885,3.787,3.657,3.787h18.183
				c1.772,0,3.658-1.325,3.658-3.787c0-0.912-0.265-1.905-0.79-2.952c-0.938-1.875-3.818-5.258-5.504-7.084
				c2.931-4.758,14.754-25.28,14.754-46.778C172.102,87.646,158.059,74.712,149.274,74.712z"/>
			<path fill="none" stroke="#000100" stroke-width="2" stroke-linecap="round" stroke-linejoin="round" stroke-miterlimit="10" d="
				M135.74,97.826c0,0,14.245,12.136,27.27,0"/>
			<circle fill="#000100" cx="146.366" cy="88.539" r="3.01"/>
		</g>
		<g clip-path="url(#SVGID_14_)">
			
				<path fill="#56B0E3" stroke="#000100" stroke-width="2" stroke-linecap="round" stroke-linejoin="round" stroke-miterlimit="10" d="
				M176.646,11.028c0,6.742-4.417,10.604-12.121,10.604c-0.837,0-1.516-0.677-1.516-1.515c0-0.836,6.06-21.887,6.06-22.726
				c0-0.835,0.679-1.515,1.516-1.515C176.646-4.123,176.646,3.238,176.646,11.028z"/>
			
				<path fill="#56B0E3" stroke="#000100" stroke-width="2" stroke-linecap="round" stroke-linejoin="round" stroke-miterlimit="10" d="
				M124.855-9.958c-3.622,2.353-3.622,10.484-3.622,19.019c0,8.067,6.372,15.146,13.636,15.146h0c0.835,0,0-3.028,0-3.028h0v-32.101
				C134.869-10.923,125.534-10.398,124.855-9.958z"/>
			
				<path fill="#56B0E3" stroke="#000100" stroke-width="2" stroke-linecap="round" stroke-linejoin="round" stroke-miterlimit="10" d="
				M149.274-37.644c-8.784,0-24.14,14.944-24.14,28.976c0,19.575,13.578,38.774,18.688,45.998c0.209,0.296,0.404,0.564,0.578,0.817
				c-1.688,1.834-4.536,5.184-5.471,7.047c-0.522,1.045-0.787,2.04-0.787,2.951c0,2.461,1.885,3.787,3.657,3.787h18.183
				c1.772,0,3.658-1.325,3.658-3.787c0-0.912-0.265-1.906-0.79-2.951c-0.938-1.875-3.818-5.258-5.504-7.084
				c2.931-4.758,14.754-25.281,14.754-46.779C172.102-24.711,158.059-37.644,149.274-37.644z"/>
		</g>
		
			<circle clip-path="url(#SVGID_14_)" fill="#FFFFFF" stroke="#000100" stroke-width="2" stroke-linecap="round" stroke-linejoin="round" stroke-miterlimit="10" cx="95.125" cy="160.646" r="9.276"/>
		
			<circle clip-path="url(#SVGID_14_)" fill="#FFFFFF" stroke="#000100" stroke-width="2" stroke-linecap="round" stroke-linejoin="round" stroke-miterlimit="10" cx="95.125" cy="48.79" r="9.276"/>
		
			<circle clip-path="url(#SVGID_14_)" fill="#FFFFFF" stroke="#000100" stroke-width="2" stroke-linecap="round" stroke-linejoin="round" stroke-miterlimit="10" cx="193.886" cy="186.646" r="9.276"/>
		
			<circle clip-path="url(#SVGID_14_)" fill="#FFFFFF" stroke="#000100" stroke-width="2" stroke-linecap="round" stroke-linejoin="round" stroke-miterlimit="10" cx="193.886" cy="74.79" r="9.276"/>
	</g>
</g>
</svg>
