<?xml version="1.0" encoding="utf-8"?>
<!-- Generator: Adobe Illustrator 16.0.0, SVG Export Plug-In . SVG Version: 6.00 Build 0)  -->
<!DOCTYPE svg PUBLIC "-//W3C//DTD SVG 1.1//EN" "http://www.w3.org/Graphics/SVG/1.1/DTD/svg11.dtd">
<svg version="1.1" xmlns="http://www.w3.org/2000/svg" xmlns:xlink="http://www.w3.org/1999/xlink" x="0px" y="0px" width="220px"
	 height="220px" viewBox="0 0 220 220" enable-background="new 0 0 220 220" xml:space="preserve">
<g id="bg" display="none">
	<rect x="-1645.836" y="-2781.787" display="inline" fill="#FFFFFF" width="3240.076" height="8444.104"/>
</g>
<g id="Layer_3" display="none">
</g>
<g id="Layer_1">
	<g>
		<defs>
			<rect id="SVGID_261_" x="-1200" y="-1800" width="220" height="220"/>
		</defs>
		<clipPath id="SVGID_2_">
			<use xlink:href="#SVGID_261_"  overflow="visible"/>
		</clipPath>
	</g>
	<g>
		<defs>
			<rect id="SVGID_263_" y="-1800" width="220" height="220"/>
		</defs>
		<clipPath id="SVGID_4_">
			<use xlink:href="#SVGID_263_"  overflow="visible"/>
		</clipPath>
	</g>
	<g>
		<defs>
			<rect id="SVGID_269_" x="-900" y="-1800" width="220" height="220"/>
		</defs>
		<clipPath id="SVGID_6_">
			<use xlink:href="#SVGID_269_"  overflow="visible"/>
		</clipPath>
	</g>
	<g>
		<defs>
			<rect id="SVGID_271_" x="-300" y="-1800" width="220" height="220"/>
		</defs>
		<clipPath id="SVGID_8_">
			<use xlink:href="#SVGID_271_"  overflow="visible"/>
		</clipPath>
	</g>
	<g>
		<defs>
			<rect id="SVGID_369_" width="220" height="220"/>
		</defs>
		<clipPath id="SVGID_10_">
			<use xlink:href="#SVGID_369_"  overflow="visible"/>
		</clipPath>
		<rect clip-path="url(#SVGID_10_)" fill="#E84F1D" width="220" height="220"/>
		<g clip-path="url(#SVGID_10_)">
			
				<path fill="#56B0E3" stroke="#000100" stroke-width="2" stroke-linecap="round" stroke-linejoin="round" stroke-miterlimit="10" d="
				M201.028,66.646c6.741,0,10.604-4.417,10.604-12.121c0-0.837-0.678-1.515-1.515-1.515c-0.836,0-21.887,6.059-22.726,6.059
				c-0.835,0-1.515,0.679-1.515,1.516C185.878,66.646,193.238,66.646,201.028,66.646z"/>
			
				<path fill="#56B0E3" stroke="#000100" stroke-width="2" stroke-linecap="round" stroke-linejoin="round" stroke-miterlimit="10" d="
				M180.042,14.855c2.353-3.622,10.484-3.622,19.019-3.622c8.067,0,15.146,6.372,15.146,13.636v0c0,0.835-3.028,0-3.028,0v0h-32.102
				C179.077,24.869,179.602,15.534,180.042,14.855z"/>
			
				<path fill="#56B0E3" stroke="#000100" stroke-width="2" stroke-linecap="round" stroke-linejoin="round" stroke-miterlimit="10" d="
				M152.356,39.274c0-8.784,14.944-24.14,28.976-24.14c19.574,0,38.773,13.578,45.998,18.688c0.296,0.209,0.564,0.404,0.817,0.578
				c1.834-1.688,5.184-4.536,7.047-5.471c1.046-0.521,2.04-0.787,2.951-0.787c2.462,0,3.787,1.884,3.787,3.657v18.183
				c0,1.772-1.325,3.658-3.787,3.658c-0.911,0-1.905-0.265-2.951-0.79c-1.875-0.938-5.258-3.818-7.084-5.504
				c-4.758,2.931-25.28,14.754-46.778,14.754C165.289,62.102,152.356,48.059,152.356,39.274z"/>
			<path fill="none" stroke="#000100" stroke-width="2" stroke-linecap="round" stroke-linejoin="round" stroke-miterlimit="10" d="
				M175.47,25.74c0,0,12.136,14.245,0,27.271"/>
			<circle fill="#000100" cx="166.183" cy="36.366" r="3.01"/>
		</g>
		<g clip-path="url(#SVGID_10_)">
			
				<path fill="#56B0E3" stroke="#000100" stroke-width="2" stroke-linecap="round" stroke-linejoin="round" stroke-miterlimit="10" d="
				M93.384,66.646c6.742,0,10.605-4.417,10.605-12.121c0-0.837-0.678-1.515-1.515-1.515c-0.836,0-21.887,6.059-22.726,6.059
				c-0.835,0-1.515,0.679-1.515,1.516C78.234,66.646,85.594,66.646,93.384,66.646z"/>
			
				<path fill="#56B0E3" stroke="#000100" stroke-width="2" stroke-linecap="round" stroke-linejoin="round" stroke-miterlimit="10" d="
				M72.398,14.855c2.353-3.622,10.484-3.622,19.019-3.622c8.067,0,15.146,6.372,15.146,13.636v0c0,0.835-3.028,0-3.028,0v0H71.434
				C71.434,24.869,71.958,15.534,72.398,14.855z"/>
			
				<path fill="#56B0E3" stroke="#000100" stroke-width="2" stroke-linecap="round" stroke-linejoin="round" stroke-miterlimit="10" d="
				M44.713,39.274c0-8.784,14.944-24.14,28.976-24.14c19.574,0,38.773,13.578,45.998,18.688c0.296,0.209,0.564,0.404,0.817,0.578
				c1.834-1.688,5.184-4.536,7.046-5.471c1.046-0.521,2.041-0.787,2.952-0.787c2.462,0,3.787,1.884,3.787,3.657v18.183
				c0,1.772-1.325,3.658-3.787,3.658c-0.911,0-1.905-0.265-2.952-0.79c-1.875-0.938-5.257-3.818-7.083-5.504
				c-4.758,2.931-25.28,14.754-46.778,14.754C57.646,62.102,44.713,48.059,44.713,39.274z"/>
			<path fill="none" stroke="#000100" stroke-width="2" stroke-linecap="round" stroke-linejoin="round" stroke-miterlimit="10" d="
				M67.826,25.74c0,0,12.136,14.245,0,27.271"/>
			<circle fill="#000100" cx="58.54" cy="36.366" r="3.01"/>
		</g>
		<g clip-path="url(#SVGID_10_)">
			
				<path fill="#56B0E3" stroke="#000100" stroke-width="2" stroke-linecap="round" stroke-linejoin="round" stroke-miterlimit="10" d="
				M-67.644,39.274c0-8.784,14.944-24.14,28.976-24.14c19.574,0,38.773,13.578,45.998,18.688c0.296,0.209,0.564,0.404,0.817,0.578
				c1.834-1.688,5.184-4.536,7.047-5.471c1.046-0.521,2.04-0.787,2.951-0.787c2.462,0,3.787,1.884,3.787,3.657v18.183
				c0,1.772-1.325,3.658-3.787,3.658c-0.911,0-1.905-0.265-2.951-0.79c-1.875-0.938-5.258-3.818-7.084-5.504
				c-4.758,2.931-25.28,14.754-46.778,14.754C-54.711,62.102-67.644,48.059-67.644,39.274z"/>
		</g>
		<g clip-path="url(#SVGID_10_)">
			
				<path fill="#56B0E3" stroke="#000100" stroke-width="2" stroke-linecap="round" stroke-linejoin="round" stroke-miterlimit="10" d="
				M231.028,176.646c6.741,0,10.604-4.417,10.604-12.121c0-0.837-0.678-1.515-1.515-1.515c-0.836,0-21.887,6.059-22.726,6.059
				c-0.835,0-1.515,0.679-1.515,1.516C215.878,176.646,223.238,176.646,231.028,176.646z"/>
			
				<path fill="#56B0E3" stroke="#000100" stroke-width="2" stroke-linecap="round" stroke-linejoin="round" stroke-miterlimit="10" d="
				M210.042,124.855c2.353-3.622,10.484-3.622,19.019-3.622c8.067,0,15.146,6.372,15.146,13.636v0c0,0.835-3.028,0-3.028,0v0
				h-32.102C209.077,134.869,209.602,125.534,210.042,124.855z"/>
			
				<path fill="#56B0E3" stroke="#000100" stroke-width="2" stroke-linecap="round" stroke-linejoin="round" stroke-miterlimit="10" d="
				M182.356,149.274c0-8.784,14.944-24.14,28.976-24.14c19.574,0,38.773,13.578,45.998,18.688c0.296,0.209,0.564,0.404,0.817,0.578
				c1.834-1.688,5.184-4.536,7.047-5.471c1.046-0.521,2.04-0.787,2.951-0.787c2.462,0,3.787,1.884,3.787,3.657v18.183
				c0,1.772-1.325,3.658-3.787,3.658c-0.911,0-1.905-0.265-2.951-0.79c-1.875-0.938-5.258-3.818-7.084-5.504
				c-4.758,2.931-25.28,14.754-46.778,14.754C195.289,172.102,182.356,158.059,182.356,149.274z"/>
			<path fill="none" stroke="#000100" stroke-width="2" stroke-linecap="round" stroke-linejoin="round" stroke-miterlimit="10" d="
				M205.47,135.74c0,0,12.136,14.245,0,27.271"/>
			<circle fill="#000100" cx="196.183" cy="146.366" r="3.01"/>
		</g>
		<g clip-path="url(#SVGID_10_)">
			
				<path fill="#56B0E3" stroke="#000100" stroke-width="2" stroke-linecap="round" stroke-linejoin="round" stroke-miterlimit="10" d="
				M123.384,176.646c6.742,0,10.605-4.417,10.605-12.121c0-0.837-0.678-1.515-1.515-1.515c-0.836,0-21.887,6.059-22.726,6.059
				c-0.835,0-1.515,0.679-1.515,1.516C108.234,176.646,115.594,176.646,123.384,176.646z"/>
			
				<path fill="#56B0E3" stroke="#000100" stroke-width="2" stroke-linecap="round" stroke-linejoin="round" stroke-miterlimit="10" d="
				M102.398,124.855c2.353-3.622,10.484-3.622,19.019-3.622c8.067,0,15.146,6.372,15.146,13.636v0c0,0.835-3.028,0-3.028,0v0
				h-32.102C101.434,134.869,101.958,125.534,102.398,124.855z"/>
			
				<path fill="#56B0E3" stroke="#000100" stroke-width="2" stroke-linecap="round" stroke-linejoin="round" stroke-miterlimit="10" d="
				M74.713,149.274c0-8.784,14.944-24.14,28.976-24.14c19.574,0,38.773,13.578,45.998,18.688c0.296,0.209,0.564,0.404,0.817,0.578
				c1.834-1.688,5.184-4.536,7.046-5.471c1.046-0.521,2.041-0.787,2.952-0.787c2.462,0,3.787,1.884,3.787,3.657v18.183
				c0,1.772-1.325,3.658-3.787,3.658c-0.911,0-1.905-0.265-2.952-0.79c-1.875-0.938-5.257-3.818-7.083-5.504
				c-4.758,2.931-25.28,14.754-46.778,14.754C87.646,172.102,74.713,158.059,74.713,149.274z"/>
			<path fill="none" stroke="#000100" stroke-width="2" stroke-linecap="round" stroke-linejoin="round" stroke-miterlimit="10" d="
				M97.826,135.74c0,0,12.136,14.245,0,27.271"/>
			<circle fill="#000100" cx="88.54" cy="146.366" r="3.01"/>
		</g>
		<g clip-path="url(#SVGID_10_)">
			
				<path fill="#56B0E3" stroke="#000100" stroke-width="2" stroke-linecap="round" stroke-linejoin="round" stroke-miterlimit="10" d="
				M11.028,176.646c6.741,0,10.604-4.417,10.604-12.121c0-0.837-0.678-1.515-1.515-1.515c-0.836,0-21.887,6.059-22.726,6.059
				c-0.835,0-1.515,0.679-1.515,1.516C-4.122,176.646,3.238,176.646,11.028,176.646z"/>
			
				<path fill="#56B0E3" stroke="#000100" stroke-width="2" stroke-linecap="round" stroke-linejoin="round" stroke-miterlimit="10" d="
				M-9.958,124.855c2.353-3.622,10.484-3.622,19.019-3.622c8.067,0,15.146,6.372,15.146,13.636v0c0,0.835-3.028,0-3.028,0v0h-32.102
				C-10.923,134.869-10.398,125.534-9.958,124.855z"/>
			
				<path fill="#56B0E3" stroke="#000100" stroke-width="2" stroke-linecap="round" stroke-linejoin="round" stroke-miterlimit="10" d="
				M-37.644,149.274c0-8.784,14.944-24.14,28.976-24.14c19.574,0,38.773,13.578,45.998,18.688c0.296,0.209,0.564,0.404,0.817,0.578
				c1.834-1.688,5.184-4.536,7.047-5.471c1.046-0.521,2.04-0.787,2.951-0.787c2.462,0,3.787,1.884,3.787,3.657v18.183
				c0,1.772-1.325,3.658-3.787,3.658c-0.911,0-1.905-0.265-2.951-0.79c-1.875-0.938-5.258-3.818-7.084-5.504
				c-4.758,2.931-25.28,14.754-46.778,14.754C-24.711,172.102-37.644,158.059-37.644,149.274z"/>
		</g>
		
			<circle clip-path="url(#SVGID_10_)" fill="#FFFFFF" stroke="#000100" stroke-width="2" stroke-linecap="round" stroke-linejoin="round" stroke-miterlimit="10" cx="160.647" cy="95.125" r="9.276"/>
		
			<circle clip-path="url(#SVGID_10_)" fill="#FFFFFF" stroke="#000100" stroke-width="2" stroke-linecap="round" stroke-linejoin="round" stroke-miterlimit="10" cx="48.79" cy="95.125" r="9.276"/>
		
			<circle clip-path="url(#SVGID_10_)" fill="#FFFFFF" stroke="#000100" stroke-width="2" stroke-linecap="round" stroke-linejoin="round" stroke-miterlimit="10" cx="186.647" cy="193.886" r="9.276"/>
		
			<circle clip-path="url(#SVGID_10_)" fill="#FFFFFF" stroke="#000100" stroke-width="2" stroke-linecap="round" stroke-linejoin="round" stroke-miterlimit="10" cx="74.79" cy="193.886" r="9.276"/>
	</g>
</g>
</svg>
