<?xml version="1.0" encoding="utf-8"?>
<!-- Generator: Adobe Illustrator 16.0.0, SVG Export Plug-In . SVG Version: 6.00 Build 0)  -->
<!DOCTYPE svg PUBLIC "-//W3C//DTD SVG 1.1//EN" "http://www.w3.org/Graphics/SVG/1.1/DTD/svg11.dtd">
<svg version="1.1" xmlns="http://www.w3.org/2000/svg" xmlns:xlink="http://www.w3.org/1999/xlink" x="0px" y="0px"
	 width="453.543px" height="453.543px" viewBox="0 0 453.543 453.543" enable-background="new 0 0 453.543 453.543"
	 xml:space="preserve">
<g id="kvadrat" display="none">
</g>
<g id="color" display="none">
	<g id="rdeča7bela" display="inline">
	</g>
	<g display="inline">
		
			<path fill="#EED2A3" stroke="#000000" stroke-width="8" stroke-linecap="round" stroke-linejoin="round" stroke-miterlimit="10" d="
			M333.978,166.458c4.518-11.741,35.89-98.746-47.37-47.391c-17.887-10.057-38.523-15.799-60.506-15.799
			c-21.81,0-42.296,5.655-60.085,15.565c-81.032-49.782-52.779,32.28-47.314,46.778c-10.335,18.069-16.245,38.995-16.245,61.303
			c0,68.288,55.356,123.648,123.645,123.648c68.293,0,123.648-55.36,123.648-123.648
			C349.75,204.954,344.018,184.333,333.978,166.458z"/>
		<g>
			<path fill="none" stroke="#000000" stroke-width="8" stroke-linecap="round" stroke-linejoin="round" stroke-miterlimit="10" d="
				M191.416,281.574c14.426,19.8,31.959,13.555,34.688,6.742"/>
			<path fill="none" stroke="#000000" stroke-width="8" stroke-linecap="round" stroke-linejoin="round" stroke-miterlimit="10" d="
				M260.792,281.574c-14.427,19.8-31.959,13.555-34.688,6.742v-11.245"/>
		</g>
		<g>
			
				<line fill="none" stroke="#000000" stroke-width="6" stroke-linecap="round" stroke-linejoin="round" stroke-miterlimit="10" x1="245.725" y1="250.417" x2="372.484" y2="212.363"/>
			
				<line fill="none" stroke="#000000" stroke-width="6" stroke-linecap="round" stroke-linejoin="round" stroke-miterlimit="10" x1="372.484" y1="303.025" x2="245.725" y2="264.974"/>
			
				<line fill="none" stroke="#000000" stroke-width="6" stroke-linecap="round" stroke-linejoin="round" stroke-miterlimit="10" x1="245.725" y1="258.087" x2="372.484" y2="258.087"/>
		</g>
		<g>
			
				<line fill="none" stroke="#000000" stroke-width="6" stroke-linecap="round" stroke-linejoin="round" stroke-miterlimit="10" x1="207.818" y1="264.971" x2="81.06" y2="303.025"/>
			
				<line fill="none" stroke="#000000" stroke-width="6" stroke-linecap="round" stroke-linejoin="round" stroke-miterlimit="10" x1="81.06" y1="212.363" x2="207.818" y2="250.414"/>
			
				<line fill="none" stroke="#000000" stroke-width="6" stroke-linecap="round" stroke-linejoin="round" stroke-miterlimit="10" x1="207.818" y1="257.302" x2="81.06" y2="257.302"/>
		</g>
		<g>
			<g>
				
					<circle fill="#FFFFFF" stroke="#000000" stroke-width="7" stroke-linecap="round" stroke-linejoin="round" stroke-miterlimit="10" cx="189.572" cy="183.151" r="17.064"/>
				<circle cx="196.493" cy="190.383" r="9.895"/>
			</g>
			<g>
				
					<circle fill="#FFFFFF" stroke="#000000" stroke-width="7" stroke-linecap="round" stroke-linejoin="round" stroke-miterlimit="10" cx="262.637" cy="183.151" r="17.063"/>
				<path d="M279.453,190.383c0,5.465-4.428,9.897-9.896,9.897c-5.464,0-9.894-4.432-9.894-9.897c0-5.466,4.43-9.896,9.894-9.896
					C275.025,180.487,279.453,184.917,279.453,190.383z"/>
			</g>
		</g>
		
			<path fill="#E73088" stroke="#000000" stroke-width="8" stroke-linecap="round" stroke-linejoin="round" stroke-miterlimit="10" d="
			M247.494,250.149c-2.064-4.402-8.541-5.175-21.389-5.175s-19.325,0.774-21.39,5.177c-1.772,3.776,1.07,7.954,3.744,11.169
			c3.229,3.895,15.273,13.993,15.785,14.419c0.536,0.45,1.197,0.676,1.858,0.676s1.322-0.226,1.861-0.676
			c0.512-0.428,12.552-10.524,15.785-14.417C246.423,258.104,249.264,253.926,247.494,250.149z"/>
	</g>
</g>
<g id="cb">
	<g id="rdeča7bela_copy">
	</g>
	<g>
		<path fill="none" stroke="#000000" stroke-width="8" stroke-linecap="round" stroke-linejoin="round" stroke-miterlimit="10" d="
			M333.978,166.458c4.518-11.741,35.89-98.746-47.37-47.391c-17.887-10.057-38.523-15.799-60.506-15.799
			c-21.81,0-42.296,5.655-60.085,15.565c-81.032-49.782-52.779,32.28-47.314,46.778c-10.335,18.069-16.245,38.995-16.245,61.303
			c0,68.288,55.356,123.648,123.645,123.648c68.293,0,123.648-55.36,123.648-123.648
			C349.75,204.954,344.018,184.333,333.978,166.458z"/>
		<g>
			<path fill="none" stroke="#000000" stroke-width="8" stroke-linecap="round" stroke-linejoin="round" stroke-miterlimit="10" d="
				M191.416,281.574c14.426,19.8,31.959,13.555,34.688,6.742"/>
			<path fill="none" stroke="#000000" stroke-width="8" stroke-linecap="round" stroke-linejoin="round" stroke-miterlimit="10" d="
				M260.792,281.574c-14.427,19.8-31.959,13.555-34.688,6.742v-11.245"/>
		</g>
		<g>
			
				<line fill="none" stroke="#000000" stroke-width="6" stroke-linecap="round" stroke-linejoin="round" stroke-miterlimit="10" x1="246.725" y1="250.417" x2="373.484" y2="212.363"/>
			
				<line fill="none" stroke="#000000" stroke-width="6" stroke-linecap="round" stroke-linejoin="round" stroke-miterlimit="10" x1="373.484" y1="303.025" x2="246.725" y2="264.974"/>
			
				<line fill="none" stroke="#000000" stroke-width="6" stroke-linecap="round" stroke-linejoin="round" stroke-miterlimit="10" x1="246.725" y1="258.087" x2="373.484" y2="258.087"/>
		</g>
		<g>
			
				<line fill="none" stroke="#000000" stroke-width="6" stroke-linecap="round" stroke-linejoin="round" stroke-miterlimit="10" x1="205.818" y1="264.971" x2="79.06" y2="303.025"/>
			
				<line fill="none" stroke="#000000" stroke-width="6" stroke-linecap="round" stroke-linejoin="round" stroke-miterlimit="10" x1="79.06" y1="212.363" x2="205.818" y2="250.414"/>
			
				<line fill="none" stroke="#000000" stroke-width="6" stroke-linecap="round" stroke-linejoin="round" stroke-miterlimit="10" x1="205.818" y1="257.302" x2="79.06" y2="257.302"/>
		</g>
		
			<circle fill="none" stroke="#000000" stroke-width="7" stroke-linecap="round" stroke-linejoin="round" stroke-miterlimit="10" cx="189.572" cy="183.151" r="17.064"/>
		<circle cx="196.493" cy="190.383" r="9.895"/>
		
			<circle fill="none" stroke="#000000" stroke-width="7" stroke-linecap="round" stroke-linejoin="round" stroke-miterlimit="10" cx="262.637" cy="183.151" r="17.063"/>
		<path d="M279.453,190.383c0,5.465-4.428,9.897-9.896,9.897c-5.464,0-9.894-4.432-9.894-9.897c0-5.466,4.43-9.896,9.894-9.896
			C275.025,180.487,279.453,184.917,279.453,190.383z"/>
		<path fill="none" stroke="#000000" stroke-width="8" stroke-linecap="round" stroke-linejoin="round" stroke-miterlimit="10" d="
			M247.494,250.149c-2.064-4.402-8.541-5.175-21.389-5.175s-19.325,0.774-21.39,5.177c-1.772,3.776,1.07,7.954,3.744,11.169
			c3.229,3.895,15.273,13.993,15.785,14.419c0.536,0.45,1.197,0.676,1.858,0.676s1.322-0.226,1.861-0.676
			c0.512-0.428,12.552-10.524,15.785-14.417C246.423,258.104,249.264,253.926,247.494,250.149z"/>
	</g>
</g>
<g id="pivot">
	<circle fill="none" cx="234.737" cy="351.18" r="14.133"/>
</g>
</svg>
