<?xml version="1.0" encoding="utf-8"?>
<!-- Generator: Adobe Illustrator 16.0.0, SVG Export Plug-In . SVG Version: 6.00 Build 0)  -->
<!DOCTYPE svg PUBLIC "-//W3C//DTD SVG 1.1//EN" "http://www.w3.org/Graphics/SVG/1.1/DTD/svg11.dtd">
<svg version="1.1" xmlns="http://www.w3.org/2000/svg" xmlns:xlink="http://www.w3.org/1999/xlink" x="0px" y="0px"
	 width="453.543px" height="453.543px" viewBox="0 0 453.543 453.543" enable-background="new 0 0 453.543 453.543"
	 xml:space="preserve">
<g id="kvadrat" display="none">
</g>
<g id="color" display="none">
	<g display="inline">
		
			<path fill="#B17F49" stroke="#000000" stroke-width="8" stroke-linecap="round" stroke-linejoin="round" stroke-miterlimit="10" d="
			M355.719,158.596c0-28.093-22.775-50.868-50.869-50.868c-20.242,0-37.721,11.825-45.91,28.943
			c-9.949-1.577-20.564-2.385-31.703-2.385c-0.154,0-0.311,0.003-0.467,0.005c-0.154-0.002-0.309-0.005-0.465-0.005
			c-11.139,0-21.752,0.808-31.701,2.385c-8.189-17.119-25.668-28.943-45.912-28.943c-28.094,0-50.867,22.774-50.867,50.868
			c0,14.236,5.852,27.097,15.275,36.329c-3.447,9.83-5.195,20.708-5.195,32.493c0,5.527,1.125,16.306,1.125,16.306l1.412,8.133
			l3.742,13.642l2.996,7.857c17.974,42.539,60.117,72.458,109.117,72.458c0.16,0,0.316-0.005,0.473-0.009
			c0.158,0.004,0.316,0.009,0.475,0.009c49,0,91.145-29.92,109.117-72.458l2.996-7.857l3.742-13.642l1.412-8.133
			c0,0,1.127-10.779,1.127-16.306c0-11.785-1.75-22.664-5.197-32.493C349.865,185.693,355.719,172.833,355.719,158.596z"/>
		<g>
			
				<circle fill="#FFFFFF" stroke="#000000" stroke-width="6" stroke-linecap="round" stroke-linejoin="round" stroke-miterlimit="10" cx="190.838" cy="196.967" r="12.93"/>
			<circle cx="196.082" cy="202.447" r="7.498"/>
		</g>
		<g>
			
				<circle fill="#FFFFFF" stroke="#000000" stroke-width="6" stroke-linecap="round" stroke-linejoin="round" stroke-miterlimit="10" cx="253.123" cy="196.967" r="12.93"/>
			<circle cx="258.369" cy="202.447" r="7.498"/>
		</g>
		<path stroke="#000000" stroke-width="8" stroke-linecap="round" stroke-linejoin="round" stroke-miterlimit="10" d="
			M230.35,267.487c3.639-0.909,7.1-3.041,9.91-6.425c7.678-9.24,1.399-16.805-13.963-16.805c-15.359,0-21.646,7.565-13.965,16.805
			c2.809,3.384,6.273,5.516,9.91,6.425H230.35z"/>
		<path fill="none" stroke="#000000" stroke-width="8" stroke-linecap="round" stroke-linejoin="round" stroke-miterlimit="10" d="
			M174.737,284.113c21.443,29.43,47.5,20.148,51.557,10.02"/>
		<path fill="none" stroke="#000000" stroke-width="8" stroke-linecap="round" stroke-linejoin="round" stroke-miterlimit="10" d="
			M277.852,284.113c-21.441,29.43-47.5,20.148-51.557,10.02V267.97"/>
		<g>
			<path stroke="#000000" stroke-width="2" stroke-linecap="round" stroke-linejoin="round" stroke-miterlimit="10" d="
				M148.692,137.903c-11.428,0-20.693,9.265-20.693,20.693c0,7.52,4.023,14.081,10.021,17.705l30.676-22.926
				C166.377,144.48,158.313,137.903,148.692,137.903z"/>
		</g>
		<g>
			<path stroke="#000000" stroke-width="2" stroke-linecap="round" stroke-linejoin="round" stroke-miterlimit="10" d="
				M307.94,136.903c11.428,0,20.693,9.265,20.693,20.693c0,7.52-4.023,14.081-10.021,17.705l-30.674-22.926
				C290.254,143.48,298.319,136.903,307.94,136.903z"/>
		</g>
	</g>
	<g id="rdeča7bela" display="inline">
	</g>
</g>
<g id="cb">
	<g>
		<path fill="none" stroke="#000000" stroke-width="8" stroke-linecap="round" stroke-linejoin="round" stroke-miterlimit="10" d="
			M355.719,158.596c0-28.093-22.775-50.868-50.869-50.868c-20.242,0-37.721,11.825-45.91,28.943
			c-9.949-1.577-20.564-2.385-31.703-2.385c-0.154,0-0.311,0.003-0.467,0.005c-0.154-0.002-0.309-0.005-0.465-0.005
			c-11.139,0-21.752,0.808-31.701,2.385c-8.189-17.119-25.668-28.943-45.912-28.943c-28.094,0-50.867,22.774-50.867,50.868
			c0,14.236,5.852,27.097,15.275,36.329c-3.447,9.83-5.195,20.708-5.195,32.493c0,5.527,1.125,16.306,1.125,16.306l1.412,8.133
			l3.742,13.642l2.996,7.857c17.974,42.539,60.117,72.458,109.117,72.458c0.16,0,0.316-0.005,0.473-0.009
			c0.158,0.004,0.316,0.009,0.475,0.009c49,0,91.145-29.92,109.117-72.458l2.996-7.857l3.742-13.642l1.412-8.133
			c0,0,1.127-10.779,1.127-16.306c0-11.785-1.75-22.664-5.197-32.493C349.865,185.693,355.719,172.833,355.719,158.596z"/>
		
			<circle fill="none" stroke="#000000" stroke-width="6" stroke-linecap="round" stroke-linejoin="round" stroke-miterlimit="10" cx="190.838" cy="196.967" r="12.93"/>
		<circle cx="196.082" cy="202.447" r="7.498"/>
		
			<circle fill="none" stroke="#000000" stroke-width="6" stroke-linecap="round" stroke-linejoin="round" stroke-miterlimit="10" cx="253.123" cy="196.967" r="12.93"/>
		<circle cx="258.369" cy="202.447" r="7.498"/>
		<path fill="none" stroke="#000000" stroke-width="8" stroke-linecap="round" stroke-linejoin="round" stroke-miterlimit="10" d="
			M230.35,267.487c3.639-0.909,7.1-3.041,9.91-6.425c7.678-9.24,1.399-16.805-13.963-16.805c-15.359,0-21.646,7.565-13.965,16.805
			c2.809,3.384,6.273,5.516,9.91,6.425H230.35z"/>
		<path fill="none" stroke="#000000" stroke-width="8" stroke-linecap="round" stroke-linejoin="round" stroke-miterlimit="10" d="
			M174.737,284.113c21.443,29.43,47.5,20.148,51.557,10.02"/>
		<path fill="none" stroke="#000000" stroke-width="8" stroke-linecap="round" stroke-linejoin="round" stroke-miterlimit="10" d="
			M277.852,284.113c-21.441,29.43-47.5,20.148-51.557,10.02V267.97"/>
		<g>
			<path fill="none" stroke="#000000" stroke-width="8" stroke-linecap="round" stroke-linejoin="round" stroke-miterlimit="10" d="
				M148.692,137.903c-11.428,0-20.693,9.265-20.693,20.693c0,7.52,4.023,14.081,10.021,17.705l30.676-22.926
				C166.377,144.48,158.313,137.903,148.692,137.903z"/>
		</g>
		<g>
			<path fill="none" stroke="#000000" stroke-width="8" stroke-linecap="round" stroke-linejoin="round" stroke-miterlimit="10" d="
				M307.94,136.903c11.428,0,20.693,9.265,20.693,20.693c0,7.52-4.023,14.081-10.021,17.705l-30.674-22.926
				C290.254,143.48,298.319,136.903,307.94,136.903z"/>
		</g>
	</g>
	<g id="rdeča7bela_copy">
	</g>
</g>
<g id="pivot">
	<circle fill="none" cx="225.117" cy="343.946" r="14.133"/>
</g>
</svg>
