<?xml version="1.0" encoding="utf-8"?>
<!-- Generator: Adobe Illustrator 16.0.0, SVG Export Plug-In . SVG Version: 6.00 Build 0)  -->
<!DOCTYPE svg PUBLIC "-//W3C//DTD SVG 1.1//EN" "http://www.w3.org/Graphics/SVG/1.1/DTD/svg11.dtd">
<svg version="1.1" xmlns="http://www.w3.org/2000/svg" xmlns:xlink="http://www.w3.org/1999/xlink" x="0px" y="0px"
	 width="453.544px" height="453.543px" viewBox="0 0 453.544 453.543" enable-background="new 0 0 453.544 453.543"
	 xml:space="preserve">
<g id="kvadrat" display="none">
</g>
<g id="color" display="none">
	<g id="rdeča7bela" display="inline">
	</g>
	<g display="inline">
		<g>
			<path fill="none" stroke="#000000" stroke-width="8" stroke-linecap="round" stroke-linejoin="round" stroke-miterlimit="10" d="
				M270.784,108.339c9.256,16.478,26.338,53.064-5.4,84.803"/>
			<path fill="none" stroke="#000000" stroke-width="8" stroke-linecap="round" stroke-linejoin="round" stroke-miterlimit="10" d="
				M350.188,187.741c-16.525-9.169-53.066-26.338-84.805,5.4"/>
			
				<path fill="#FFCF00" stroke="#000000" stroke-width="8" stroke-linecap="round" stroke-linejoin="round" stroke-miterlimit="10" d="
				M238.728,215.713c25.648-25.649,25.65-67.231,0.002-92.88c-25.65-25.648-67.23-25.648-92.879,0.001
				c-25.648,25.647-25.648,67.229,0,92.879c0.848,0.846,1.713,1.661,2.594,2.452c-14.506-4.62-31.021-1.188-42.527,10.318
				c-16.424,16.424-16.424,43.047,0,59.47c16.422,16.422,43.045,16.424,59.469-0.001
				C181.415,271.923,219.206,235.234,238.728,215.713z"/>
			
				<path fill="#FFCF00" stroke="#000000" stroke-width="8" stroke-linecap="round" stroke-linejoin="round" stroke-miterlimit="10" d="
				M336.899,313.883c25.648-25.648,25.648-67.229,0-92.878s-67.23-25.648-92.879,0c-19.521,19.522-56.209,57.313-72.24,73.344
				c-16.424,16.424-16.422,43.047,0,59.469s43.045,16.424,59.469,0c11.508-11.507,14.939-28.021,10.32-42.528
				c0.789,0.881,1.605,1.747,2.453,2.593C269.671,339.53,311.251,339.53,336.899,313.883z"/>
			
				<path fill="#7E4E24" stroke="#000000" stroke-width="8" stroke-linecap="round" stroke-linejoin="round" stroke-miterlimit="10" d="
				M135.638,325.697c8.332,8.332,39.145-20.184,39.145-20.184s78.316-78.315,85.229-85.229c8.574-8.573,24.762-24.863,14.979-34.646
				c-9.781-9.781-26.072,6.404-34.645,14.979c-6.914,6.913-85.23,85.229-85.23,85.229S127.308,317.366,135.638,325.697z"/>
			<circle fill="#E84E1B" stroke="#000000" stroke-width="8" stroke-miterlimit="10" cx="192.289" cy="169.273" r="21.734"/>
			
				<circle fill="#E73088" stroke="#000000" stroke-width="8" stroke-linecap="round" stroke-linejoin="round" stroke-miterlimit="10" cx="135.649" cy="258.219" r="12.758"/>
			<circle fill="#E84E1B" stroke="#000000" stroke-width="8" stroke-miterlimit="10" cx="290.46" cy="267.444" r="21.735"/>
			
				<circle fill="#E73088" stroke="#000000" stroke-width="8" stroke-linecap="round" stroke-linejoin="round" stroke-miterlimit="10" cx="201.514" cy="324.083" r="12.757"/>
		</g>
	</g>
</g>
<g id="cb">
	<g id="rdeča7bela_copy">
	</g>
	<g>
		<path fill="none" stroke="#000000" stroke-width="8" stroke-linecap="round" stroke-linejoin="round" stroke-miterlimit="10" d="
			M273.077,184.098c20.907-29.385,6.094-60.828-2.293-75.759"/>
		<path fill="none" stroke="#000000" stroke-width="8" stroke-linecap="round" stroke-linejoin="round" stroke-miterlimit="10" d="
			M274.627,185.313c29.32-20.686,60.621-5.861,75.562,2.429"/>
		<path fill="none" stroke="#000000" stroke-width="8" stroke-linecap="round" stroke-linejoin="round" stroke-miterlimit="10" d="
			M255.409,187.416c6.36-22.201,0.809-47.095-16.68-64.583c-25.65-25.648-67.23-25.648-92.879,0.001
			c-25.648,25.647-25.648,67.229,0,92.879c0.848,0.846,1.713,1.661,2.594,2.452c-14.506-4.62-31.021-1.188-42.527,10.318
			c-16.424,16.424-16.424,43.047,0,59.47c10.485,10.486,25.129,14.266,38.622,11.359"/>
		<path fill="none" stroke="#000000" stroke-width="8" stroke-linecap="round" stroke-linejoin="round" stroke-miterlimit="10" d="
			M159.978,317.566c-2,12.815,1.929,26.377,11.803,36.251c16.422,16.422,43.045,16.424,59.469,0
			c11.508-11.507,14.939-28.021,10.32-42.528c0.789,0.881,1.605,1.747,2.453,2.593c25.648,25.648,67.229,25.648,92.877,0.001
			c25.648-25.648,25.648-67.229,0-92.878c-17.018-17.018-41.046-22.73-62.784-17.167"/>
		<path fill="none" stroke="#000000" stroke-width="8" stroke-linecap="round" stroke-linejoin="round" stroke-miterlimit="10" d="
			M274.115,203.838c-3.907,6.219-9.913,12.255-14.104,16.446c-6.912,6.914-85.229,85.229-85.229,85.229s-6.761,6.257-14.805,12.053"
			/>
		<path fill="none" stroke="#000000" stroke-width="8" stroke-linecap="round" stroke-linejoin="round" stroke-miterlimit="10" d="
			M274.115,203.838c4.084-6.5,5.874-13.199,0.874-18.199c-0.118-0.118-0.242-0.215-0.362-0.326"/>
		<path fill="none" stroke="#000000" stroke-width="8" stroke-linecap="round" stroke-linejoin="round" stroke-miterlimit="10" d="
			M274.627,185.313c-0.503-0.463-1.017-0.878-1.55-1.215"/>
		<path fill="none" stroke="#000000" stroke-width="8" stroke-linecap="round" stroke-linejoin="round" stroke-miterlimit="10" d="
			M273.077,184.098c-5.11-3.228-11.539-0.843-17.668,3.318"/>
		<path fill="none" stroke="#000000" stroke-width="8" stroke-linecap="round" stroke-linejoin="round" stroke-miterlimit="10" d="
			M144.539,299.313c5.277-7.46,10.575-13.466,10.575-13.466s78.316-78.316,85.23-85.229c3.88-3.881,9.342-9.314,15.064-13.201"/>
		<path fill="none" stroke="#000000" stroke-width="8" stroke-linecap="round" stroke-linejoin="round" stroke-miterlimit="10" d="
			M144.539,299.313c-6.814,9.633-13.596,21.689-8.901,26.385c4.43,4.43,15.211-1.555,24.34-8.131"/>
		
			<circle fill="none" stroke="#000000" stroke-width="8" stroke-linecap="round" stroke-linejoin="round" stroke-miterlimit="10" cx="192.289" cy="169.273" r="21.734"/>
		
			<circle fill="none" stroke="#000000" stroke-width="8" stroke-linecap="round" stroke-linejoin="round" stroke-miterlimit="10" cx="135.649" cy="258.219" r="12.758"/>
		
			<circle fill="none" stroke="#000000" stroke-width="8" stroke-linecap="round" stroke-linejoin="round" stroke-miterlimit="10" cx="290.46" cy="267.444" r="21.735"/>
		
			<circle fill="none" stroke="#000000" stroke-width="8" stroke-linecap="round" stroke-linejoin="round" stroke-miterlimit="10" cx="201.514" cy="324.084" r="12.757"/>
	</g>
</g>
<g id="pivot">
	<circle fill="none" cx="218.53" cy="349.479" r="14.133"/>
</g>
</svg>
