<?xml version="1.0" encoding="utf-8"?>
<!-- Generator: Adobe Illustrator 16.0.0, SVG Export Plug-In . SVG Version: 6.00 Build 0)  -->
<!DOCTYPE svg PUBLIC "-//W3C//DTD SVG 1.1//EN" "http://www.w3.org/Graphics/SVG/1.1/DTD/svg11.dtd">
<svg version="1.1" xmlns="http://www.w3.org/2000/svg" xmlns:xlink="http://www.w3.org/1999/xlink" x="0px" y="0px"
	 width="453.543px" height="453.543px" viewBox="0 0 453.543 453.543" enable-background="new 0 0 453.543 453.543"
	 xml:space="preserve">
<g id="kvadrat" display="none">
</g>
<g id="color" display="none">
	<g id="rdeča7bela" display="inline">
	</g>
	<g display="inline">
		
			<path fill="#FFFFFF" stroke="#000000" stroke-width="8" stroke-linecap="round" stroke-linejoin="round" stroke-miterlimit="10" d="
			M226.771,366.775c-22.109,0-38.553-5.82-50.266-17.755c-22.939-23.396-22.068-55.85-21.229-96.918
			c0.033-1.522,0.064-3.031,0.094-4.553c-11.723,15.732-29.172,30.77-48.902,32.816c-1.459,0.156-2.957-0.315-4.059-1.313
			c-1.092-1.018-1.729-2.4-1.729-3.911c0-29.963,9.816-56.905,33.854-92.888c2.578-3.713,25.338-35.238,48.295-35.238
			c1.059,0,2.068,0.063,3.084,0.209c9.092-13.75,24.436-22.106,40.857-22.106c16.424,0,31.764,8.378,40.859,22.095
			c1.09-0.124,2.088-0.208,3.072-0.208c22.945,0,45.717,31.524,48.254,35.144c24.1,36.076,33.906,63.018,33.906,93.013
			c0,1.52-0.65,2.895-1.74,3.91c-1.092,1.008-2.561,1.5-4.061,1.313c-19.717-2.025-37.176-17.096-48.893-32.828
			c0.02,1.532,0.063,3.032,0.082,4.574c0.844,41.079,1.701,73.492-21.215,96.908C265.326,360.955,248.869,366.775,226.771,366.775z"
			/>
		<path fill="none" stroke="#000000" stroke-width="9" stroke-linecap="round" stroke-linejoin="round" stroke-miterlimit="10" d="
			M226.771,366.775c-22.109,0-38.553-5.82-50.266-17.755c-22.939-23.396-22.068-55.85-21.229-96.918
			c0.033-1.522,0.064-3.031,0.094-4.553c-11.723,15.732-29.172,30.77-48.902,32.816c-1.459,0.156-2.957-0.315-4.059-1.313
			c-1.092-1.018-1.729-2.4-1.729-3.911c0-29.963,9.816-56.905,33.854-92.888c2.578-3.713,25.338-35.238,48.295-35.238
			c1.059,0,2.068,0.063,3.084,0.209c9.092-13.75,24.436-22.106,40.857-22.106c16.424,0,31.764,8.378,40.859,22.095
			c1.09-0.124,2.088-0.208,3.072-0.208c22.945,0,45.717,31.524,48.254,35.144c24.1,36.076,33.906,63.018,33.906,93.013
			c0,1.52-0.65,2.895-1.74,3.91c-1.092,1.008-2.561,1.5-4.061,1.313c-19.717-2.025-37.176-17.096-48.893-32.828
			c0.02,1.532,0.063,3.032,0.082,4.574c0.844,41.079,1.701,73.492-21.215,96.908C265.326,360.955,248.869,366.775,226.771,366.775z"
			/>
		<g>
			<path d="M199.822,259.489c-2.893,0-5.244-2.338-5.244-5.243v-20.974c0-2.885,2.352-5.243,5.244-5.243
				c2.887,0,5.244,2.358,5.244,5.243v20.974C205.066,257.151,202.708,259.489,199.822,259.489z"/>
			<path d="M252.261,259.489c-2.887,0-5.246-2.338-5.246-5.243v-20.974c0-2.885,2.359-5.243,5.246-5.243
				c2.883,0,5.24,2.358,5.24,5.243v20.974C257.501,257.151,255.144,259.489,252.261,259.489z"/>
		</g>
		<g>
			
				<polyline fill="none" stroke="#000000" stroke-width="8" stroke-linecap="round" stroke-linejoin="round" stroke-miterlimit="10" points="
				204.636,318.333 229.306,343.002 253.447,318.861 			"/>
			
				<line fill="none" stroke="#000000" stroke-width="8" stroke-linecap="round" stroke-linejoin="round" stroke-miterlimit="10" x1="229.041" y1="342.271" x2="229.041" y2="366.695"/>
		</g>
		<path stroke="#000000" stroke-width="8" stroke-linecap="round" stroke-linejoin="round" stroke-miterlimit="10" d="
			M267.63,147.215c1.09-0.124,2.088-0.208,3.072-0.208c22.945,0,45.717,31.524,48.254,35.144
			c24.1,36.076,33.906,63.018,33.906,93.013c0,1.52-0.65,2.895-1.74,3.91c-1.092,1.008-2.561,1.5-4.061,1.313
			c-19.717-2.025-37.176-17.096-48.893-32.828L267.63,147.215z"/>
		<path stroke="#000000" stroke-width="8" stroke-linecap="round" stroke-linejoin="round" stroke-miterlimit="10" d="
			M155.371,247.549c-11.723,15.732-29.172,30.77-48.902,32.816c-1.459,0.156-2.957-0.315-4.059-1.313
			c-1.092-1.018-1.729-2.4-1.729-3.911c0-29.963,9.816-56.905,33.854-92.888c2.578-3.713,25.338-35.238,48.295-35.238
			c1.059,0,2.068,0.063,3.084,0.209L155.371,247.549z"/>
		
			<path fill="#FFFFFF" stroke="#000000" stroke-width="8" stroke-linecap="round" stroke-linejoin="round" stroke-miterlimit="10" d="
			M289.058,123.572c-6.315-0.943-12.416,0.736-17.203,4.214c4.81-6.995,4.467-16.604-1.412-23.248
			c-6.929-7.83-18.892-8.56-26.721-1.633c-0.108,0.096-0.201,0.204-0.308,0.301c-1.159-8.803-8.41-15.841-17.605-16.403
			c-10.436-0.637-19.411,7.306-20.048,17.742c-0.009,0.144,0.001,0.285-0.005,0.429c-7.045-5.405-17.149-5.255-24.048,0.85
			c-7.281,6.443-8.413,17.239-2.966,25.015c-5.604-2.602-12.22-2.997-18.421-0.551c-12.021,4.735-17.925,18.317-13.188,30.337
			c4.737,12.02,18.318,17.923,30.339,13.188c2.786-1.099,5.239-2.677,7.312-4.595c0.828,3.758,2.586,7.365,5.317,10.452
			c8.561,9.675,23.344,10.578,33.019,2.018c2.244-1.987,3.995-4.316,5.286-6.832c2.063,3.254,4.957,6.046,8.585,8.015
			c11.354,6.163,25.554,1.955,31.717-9.4c1.428-2.629,2.292-5.412,2.646-8.213c3.049,2.347,6.719,3.976,10.793,4.584
			c12.777,1.909,24.682-6.903,26.59-19.679C310.645,137.384,301.834,125.48,289.058,123.572z"/>
	</g>
</g>
<g id="cb">
	<g id="rdeča7bela_copy">
	</g>
	<g>
		<g>
			<path d="M199.822,259.489c-2.893,0-5.244-2.338-5.244-5.243v-20.974c0-2.885,2.352-5.243,5.244-5.243
				c2.887,0,5.244,2.358,5.244,5.243v20.974C205.066,257.151,202.708,259.489,199.822,259.489z"/>
			<path d="M252.261,259.489c-2.887,0-5.246-2.338-5.246-5.243v-20.974c0-2.885,2.359-5.243,5.246-5.243
				c2.883,0,5.24,2.358,5.24,5.243v20.974C257.501,257.151,255.144,259.489,252.261,259.489z"/>
		</g>
		<g>
			
				<polyline fill="none" stroke="#000000" stroke-width="8" stroke-linecap="round" stroke-linejoin="round" stroke-miterlimit="10" points="
				204.636,318.333 229.306,343.002 253.447,318.861 			"/>
			
				<line fill="none" stroke="#000000" stroke-width="8" stroke-linecap="round" stroke-linejoin="round" stroke-miterlimit="10" x1="229.041" y1="342.271" x2="229.041" y2="366.695"/>
		</g>
		<g>
			<path fill="none" stroke="#000000" stroke-width="8" stroke-linecap="round" stroke-linejoin="round" stroke-miterlimit="10" d="
				M155.371,247.549c-0.029,1.521-0.061,3.031-0.094,4.553c-0.84,41.069-1.711,73.523,21.229,96.918
				c11.713,11.935,28.156,17.755,50.266,17.755c22.098,0,38.555-5.82,50.266-17.734c22.916-23.416,22.059-55.829,21.215-96.908
				c-0.02-1.542-0.063-3.042-0.082-4.574"/>
			
				<line fill="none" stroke="#000000" stroke-width="8" stroke-linecap="round" stroke-linejoin="round" stroke-miterlimit="10" x1="273.582" y1="166.77" x2="298.169" y2="247.56"/>
			<path fill="none" stroke="#000000" stroke-width="8" stroke-linecap="round" stroke-linejoin="round" stroke-miterlimit="10" d="
				M298.169,247.56c11.717,15.731,29.176,30.803,48.893,32.828c1.5,0.187,2.969-0.305,4.061-1.313c1.09-1.016,1.74-2.391,1.74-3.91
				c0-29.995-9.807-56.938-33.906-93.013c-1.276-1.821-7.677-10.705-16.643-19.084"/>
			
				<line fill="none" stroke="#000000" stroke-width="8" stroke-linecap="round" stroke-linejoin="round" stroke-miterlimit="10" x1="155.371" y1="247.549" x2="177.875" y2="173.631"/>
			<path fill="none" stroke="#000000" stroke-width="8" stroke-linecap="round" stroke-linejoin="round" stroke-miterlimit="10" d="
				M149.335,164.882c-7.981,7.827-13.596,15.638-14.801,17.373c-24.037,35.982-33.854,62.925-33.854,92.888
				c0,1.511,0.637,2.893,1.729,3.911c1.102,0.998,2.6,1.469,4.059,1.313c19.73-2.047,37.18-17.084,48.902-32.816"/>
			<path fill="none" stroke="#000000" stroke-width="8" stroke-linecap="round" stroke-linejoin="round" stroke-miterlimit="10" d="
				M149.335,164.882c-0.861-1.316-1.603-2.737-2.202-4.258c-4.736-12.02,1.168-25.602,13.188-30.337
				c6.201-2.446,12.817-2.05,18.421,0.551c-5.447-7.776-4.315-18.572,2.966-25.015c6.898-6.104,17.003-6.255,24.048-0.85
				c0.006-0.144-0.004-0.286,0.005-0.429c0.637-10.436,9.612-18.378,20.048-17.742c9.195,0.563,16.446,7.6,17.605,16.403
				c0.106-0.098,0.199-0.206,0.308-0.301c7.829-6.927,19.792-6.197,26.721,1.633c5.879,6.644,6.222,16.253,1.412,23.248
				c4.787-3.478,10.888-5.157,17.203-4.214c12.776,1.909,21.587,13.812,19.679,26.59c-0.757,5.067-3.09,9.506-6.423,12.905"/>
			<path fill="none" stroke="#000000" stroke-width="8" stroke-linecap="round" stroke-linejoin="round" stroke-miterlimit="10" d="
				M273.582,166.77c-0.773-0.465-1.519-0.967-2.228-1.513c-0.354,2.801-1.219,5.584-2.646,8.213
				c-6.163,11.355-20.363,15.563-31.717,9.4c-3.628-1.969-6.521-4.761-8.585-8.015c-1.291,2.515-3.042,4.845-5.286,6.832
				c-9.675,8.56-24.458,7.657-33.019-2.018c-2.731-3.086-4.489-6.694-5.317-10.452c-1.969,1.823-4.293,3.325-6.909,4.414"/>
			<path fill="none" stroke="#000000" stroke-width="8" stroke-linecap="round" stroke-linejoin="round" stroke-miterlimit="10" d="
				M273.582,166.77c2.553,1.532,5.438,2.604,8.565,3.071c7.71,1.152,15.098-1.604,20.167-6.774"/>
			<path fill="none" stroke="#000000" stroke-width="8" stroke-linecap="round" stroke-linejoin="round" stroke-miterlimit="10" d="
				M177.875,173.631c-0.137,0.057-0.264,0.126-0.402,0.181c-10.5,4.137-22.19,0.154-28.137-8.93"/>
		</g>
	</g>
</g>
<g id="pivot">
	<circle fill="none" cx="226.526" cy="367.094" r="14.133"/>
</g>
</svg>
