<?xml version="1.0" encoding="utf-8"?>
<!-- Generator: Adobe Illustrator 16.0.0, SVG Export Plug-In . SVG Version: 6.00 Build 0)  -->
<!DOCTYPE svg PUBLIC "-//W3C//DTD SVG 1.1//EN" "http://www.w3.org/Graphics/SVG/1.1/DTD/svg11.dtd">
<svg version="1.1" xmlns="http://www.w3.org/2000/svg" xmlns:xlink="http://www.w3.org/1999/xlink" x="0px" y="0px"
	 width="453.543px" height="453.543px" viewBox="0 0 453.543 453.543" enable-background="new 0 0 453.543 453.543"
	 xml:space="preserve">
<g id="kvadrat" display="none">
</g>
<g id="color" display="none">
	<g display="inline">
		<path fill="none" stroke="#000000" stroke-width="10" stroke-linecap="round" stroke-linejoin="round" stroke-miterlimit="10" d="
			M115.459,327.796c0,0,33.777-113.014,107.759-129.229"/>
		<path fill="none" stroke="#000000" stroke-width="10" stroke-linecap="round" stroke-linejoin="round" stroke-miterlimit="10" d="
			M79.451,231.011c0,0,46.075-40.916,143.767-38.798"/>
		<path fill="none" stroke="#000000" stroke-width="10" stroke-linecap="round" stroke-linejoin="round" stroke-miterlimit="10" d="
			M223.218,187.979c-77.625,7.915-119.408-61.424-119.408-61.424"/>
		<path fill="none" stroke="#000000" stroke-width="10" stroke-linecap="round" stroke-linejoin="round" stroke-miterlimit="10" d="
			M147.229,93.867c0,0,15.007,63.715,66.989,97.02"/>
		<path fill="none" stroke="#000000" stroke-width="10" stroke-linecap="round" stroke-linejoin="round" stroke-miterlimit="10" d="
			M115.459,327.796c0,0,33.777-113.014,107.759-129.229"/>
		<path fill="none" stroke="#000000" stroke-width="10" stroke-linecap="round" stroke-linejoin="round" stroke-miterlimit="10" d="
			M79.451,231.011c0,0,46.075-40.916,143.767-38.798"/>
		<path fill="none" stroke="#000000" stroke-width="10" stroke-linecap="round" stroke-linejoin="round" stroke-miterlimit="10" d="
			M223.218,187.979c-77.625,7.915-119.408-61.424-119.408-61.424"/>
		<path fill="none" stroke="#000000" stroke-width="10" stroke-linecap="round" stroke-linejoin="round" stroke-miterlimit="10" d="
			M147.229,93.867c0,0,15.007,63.715,66.989,97.02"/>
		<path fill="none" stroke="#000000" stroke-width="10" stroke-linecap="round" stroke-linejoin="round" stroke-miterlimit="10" d="
			M338.085,327.796c0,0-33.777-113.014-107.759-129.229"/>
		<path fill="none" stroke="#000000" stroke-width="10" stroke-linecap="round" stroke-linejoin="round" stroke-miterlimit="10" d="
			M374.092,231.011c0,0-46.075-40.916-143.766-38.798"/>
		<path fill="none" stroke="#000000" stroke-width="10" stroke-linecap="round" stroke-linejoin="round" stroke-miterlimit="10" d="
			M230.326,187.979c77.625,7.915,119.408-61.424,119.408-61.424"/>
		<path fill="none" stroke="#000000" stroke-width="10" stroke-linecap="round" stroke-linejoin="round" stroke-miterlimit="10" d="
			M306.314,93.867c0,0-15.007,63.715-66.988,97.02"/>
		
			<ellipse stroke="#000000" stroke-width="10" stroke-linecap="round" stroke-linejoin="round" stroke-miterlimit="10" cx="225.333" cy="284.29" rx="44.609" ry="75.385"/>
		
			<ellipse stroke="#000000" stroke-width="10" stroke-linecap="round" stroke-linejoin="round" stroke-miterlimit="10" cx="225.333" cy="188.606" rx="24.555" ry="30.943"/>
		
			<polyline fill="none" stroke="#000000" stroke-width="5" stroke-linecap="round" stroke-linejoin="round" stroke-miterlimit="10" points="
			208.653,135.72 223.164,164.83 239.326,135.72 		"/>
	</g>
	<g id="rdeča7bela" display="inline">
	</g>
</g>
<g id="cb">
	<g>
		
			<polyline fill="none" stroke="#000000" stroke-width="5" stroke-linecap="round" stroke-linejoin="round" stroke-miterlimit="10" points="
			208.653,129.72 223.164,158.83 239.326,129.72 		"/>
		<path fill="none" stroke="#000000" stroke-width="8" stroke-linecap="round" stroke-linejoin="round" stroke-miterlimit="10" d="
			M204.519,205.016c-60.991,28.901-89.06,122.78-89.06,122.78"/>
		<path fill="none" stroke="#000000" stroke-width="8" stroke-linecap="round" stroke-linejoin="round" stroke-miterlimit="10" d="
			M200.976,192.48c-82.457,3.842-121.525,38.531-121.525,38.531"/>
		<path fill="none" stroke="#000000" stroke-width="8" stroke-linecap="round" stroke-linejoin="round" stroke-miterlimit="10" d="
			M103.81,126.554c0,0,33.769,56.017,96.978,61.596"/>
		<path fill="none" stroke="#000000" stroke-width="8" stroke-linecap="round" stroke-linejoin="round" stroke-miterlimit="10" d="
			M147.229,93.867c0,0,12.506,53.065,54.203,87.654"/>
		<path fill="none" stroke="#000000" stroke-width="8" stroke-linecap="round" stroke-linejoin="round" stroke-miterlimit="10" d="
			M338.085,327.796c0,0-28.79-96.313-91.421-123.869"/>
		<path fill="none" stroke="#000000" stroke-width="8" stroke-linecap="round" stroke-linejoin="round" stroke-miterlimit="10" d="
			M374.092,231.011c0,0-39.978-35.486-124.391-38.646"/>
		<path fill="none" stroke="#000000" stroke-width="8" stroke-linecap="round" stroke-linejoin="round" stroke-miterlimit="10" d="
			M349.734,126.554c0,0-34.792,57.716-99.851,61.813"/>
		<path fill="none" stroke="#000000" stroke-width="8" stroke-linecap="round" stroke-linejoin="round" stroke-miterlimit="10" d="
			M306.314,93.867c0,0-13.013,55.22-56.753,89.717"/>
		<path fill="none" stroke="#000000" stroke-width="8" stroke-linecap="round" stroke-linejoin="round" stroke-miterlimit="10" d="
			M200.976,192.48c0.453,4.562,1.69,8.814,3.542,12.536"/>
		<g>
			<path fill="none" stroke="#000000" stroke-width="8" stroke-linecap="round" stroke-linejoin="round" stroke-miterlimit="10" d="
				M240.203,213.212c-4.127,3.97-9.276,6.337-14.87,6.337c-5.594,0-10.744-2.366-14.872-6.337
				c-17.323,10.352-29.738,38.258-29.738,71.078c0,41.633,19.972,75.385,44.609,75.385s44.609-33.751,44.609-75.385
				C269.942,251.469,257.527,223.563,240.203,213.212z"/>
			<g>
				
					<path fill="none" stroke="#000000" stroke-width="8" stroke-linecap="round" stroke-linejoin="round" stroke-miterlimit="10" d="
					M210.461,213.212c-17.323,10.352-29.738,38.258-29.738,71.078c0,41.633,19.972,75.385,44.609,75.385
					s44.609-33.751,44.609-75.385c0-32.821-12.415-60.728-29.739-71.078"/>
				
					<path fill="none" stroke="#000000" stroke-width="8" stroke-linecap="round" stroke-linejoin="round" stroke-miterlimit="10" d="
					M240.203,213.212c2.614-2.515,4.821-5.667,6.46-9.285"/>
				
					<path fill="none" stroke="#000000" stroke-width="8" stroke-linecap="round" stroke-linejoin="round" stroke-miterlimit="10" d="
					M204.519,205.016c1.575,3.165,3.595,5.938,5.943,8.196"/>
				
					<path fill="none" stroke="#000000" stroke-width="8" stroke-linecap="round" stroke-linejoin="round" stroke-miterlimit="10" d="
					M210.461,213.212c4.127,3.971,9.277,6.337,14.872,6.337c5.594,0,10.743-2.367,14.87-6.337"/>
			</g>
		</g>
		<path fill="none" stroke="#000000" stroke-width="8" stroke-linecap="round" stroke-linejoin="round" stroke-miterlimit="10" d="
			M201.432,181.521c-0.396,2.134-0.619,4.351-0.645,6.629"/>
		<path fill="none" stroke="#000000" stroke-width="8" stroke-linecap="round" stroke-linejoin="round" stroke-miterlimit="10" d="
			M246.664,203.927c1.581-3.486,2.637-7.396,3.038-11.562"/>
		<path fill="none" stroke="#000000" stroke-width="8" stroke-linecap="round" stroke-linejoin="round" stroke-miterlimit="10" d="
			M201.432,181.521c2.543-13.671,12.275-23.854,23.901-23.854c12.204,0,22.323,11.219,24.228,25.917"/>
		<path fill="none" stroke="#000000" stroke-width="8" stroke-linecap="round" stroke-linejoin="round" stroke-miterlimit="10" d="
			M249.883,188.367c-0.01-1.627-0.12-3.225-0.322-4.783"/>
		<path fill="none" stroke="#000000" stroke-width="8" stroke-linecap="round" stroke-linejoin="round" stroke-miterlimit="10" d="
			M249.883,188.367c0,0.081,0.005,0.159,0.005,0.239c0,1.273-0.068,2.525-0.187,3.758"/>
		<path fill="none" stroke="#000000" stroke-width="8" stroke-linecap="round" stroke-linejoin="round" stroke-miterlimit="10" d="
			M200.976,192.48c-0.126-1.27-0.198-2.56-0.198-3.874c0-0.153,0.007-0.303,0.009-0.456"/>
	</g>
	<g id="rdeča7bela_copy">
	</g>
</g>
<g id="pivot">
	<circle fill="none" cx="224.063" cy="358.414" r="14.133"/>
</g>
</svg>
