<?xml version="1.0" encoding="utf-8"?>
<!-- Generator: Adobe Illustrator 16.0.0, SVG Export Plug-In . SVG Version: 6.00 Build 0)  -->
<!DOCTYPE svg PUBLIC "-//W3C//DTD SVG 1.1//EN" "http://www.w3.org/Graphics/SVG/1.1/DTD/svg11.dtd">
<svg version="1.1" xmlns="http://www.w3.org/2000/svg" xmlns:xlink="http://www.w3.org/1999/xlink" x="0px" y="0px"
	 width="453.543px" height="453.543px" viewBox="0 0 453.543 453.543" enable-background="new 0 0 453.543 453.543"
	 xml:space="preserve">
<g id="kvadrat" display="none">
</g>
<g id="color" display="none">
	<g id="rdeča7bela" display="inline">
	</g>
	<g display="inline">
		<g>
			<g>
				
					<path fill="#57B2E5" stroke="#000000" stroke-width="8" stroke-linecap="round" stroke-linejoin="round" stroke-miterlimit="10" d="
					M213.961,318.167c-22.238,0-34.982-14.571-34.982-39.98c0-2.766,2.236-5,4.995-5c2.757,0,72.198,19.988,74.966,19.988
					c2.756,0,4.994,2.238,4.994,5C263.934,318.167,239.659,318.167,213.961,318.167z"/>
				
					<path fill="#57B2E5" stroke="#000000" stroke-width="8" stroke-linecap="round" stroke-linejoin="round" stroke-miterlimit="10" d="
					M283.186,147.325c-7.76-11.948-34.583-11.948-62.732-11.948c-26.616,0-49.967,21.018-49.967,44.979v0.003c0,2.757,9.99,0,9.99,0
					v-0.003h105.892C286.368,180.356,284.639,149.563,283.186,147.325z"/>
				
					<path fill="#57B2E5" stroke="#000000" stroke-width="8" stroke-linecap="round" stroke-linejoin="round" stroke-miterlimit="10" d="
					M374.514,227.876c0-28.977-49.297-79.632-95.584-79.632c-64.568,0-127.898,44.792-151.73,61.649
					c-0.977,0.688-1.863,1.333-2.696,1.905c-6.05-5.566-17.101-14.959-23.25-18.044c-3.447-1.722-6.728-2.598-9.732-2.598
					c-8.119,0-12.494,6.219-12.494,12.063c0,0,15,14.286,15,29.992c0,15.704-15,29.991-15,29.991
					c0,5.844,4.375,12.064,12.494,12.064c3.004,0,6.285-0.877,9.732-2.607c6.188-3.091,17.348-12.596,23.37-18.154
					c15.695,9.669,83.394,48.669,154.307,48.669C331.852,303.176,374.514,256.854,374.514,227.876z"/>
				
					<path fill="none" stroke="#000000" stroke-width="8" stroke-linecap="round" stroke-linejoin="round" stroke-miterlimit="10" d="
					M298.27,183.23c0,0-40.031,46.987,0,89.956"/>
				<path d="M338.836,218.281c0,5.481-4.446,9.931-9.932,9.931c-5.484,0-9.931-4.449-9.931-9.931c0-5.484,4.446-9.931,9.931-9.931
					C334.39,208.351,338.836,212.797,338.836,218.281z"/>
			</g>
		</g>
	</g>
</g>
<g id="cb">
	<g id="rdeča7bela_copy">
	</g>
	<g>
		<path fill="none" stroke="#000000" stroke-width="8" stroke-linecap="round" stroke-linejoin="round" stroke-miterlimit="10" d="
			M179.071,281.669c1.129,23.249,13.691,36.498,34.89,36.498c23.648,0,46.076-0.013,49.505-15.593"/>
		<path fill="none" stroke="#000000" stroke-width="8" stroke-linecap="round" stroke-linejoin="round" stroke-miterlimit="10" d="
			M171.449,181.395c-0.594-0.182-0.963-0.507-0.963-1.035v-0.003c0-23.962,23.351-44.979,49.967-44.979
			c28.149,0,54.973,0,62.732,11.948c0.117,0.181,0.237,0.565,0.356,1.087"/>
		<path fill="none" stroke="#000000" stroke-width="8" stroke-linecap="round" stroke-linejoin="round" stroke-miterlimit="10" d="
			M179.071,281.669c24.073,9.671,53.58,18.563,84.395,20.905"/>
		<path fill="none" stroke="#000000" stroke-width="8" stroke-linecap="round" stroke-linejoin="round" stroke-miterlimit="10" d="
			M171.449,181.395c-19.323,10.87-34.856,21.854-44.25,28.499c-0.977,0.688-1.863,1.333-2.696,1.905
			c-6.05-5.566-17.101-14.959-23.25-18.044c-3.447-1.722-6.728-2.598-9.732-2.598c-8.119,0-12.494,6.219-12.494,12.063
			c0,0,15,14.286,15,29.992c0,15.704-15,29.991-15,29.991c0,5.844,4.375,12.064,12.494,12.064c3.004,0,6.285-0.877,9.732-2.607
			c6.188-3.091,17.348-12.596,23.37-18.154c7.658,4.718,27.698,16.417,54.448,27.162"/>
		<path fill="none" stroke="#000000" stroke-width="8" stroke-linecap="round" stroke-linejoin="round" stroke-miterlimit="10" d="
			M283.542,148.412c44.89,3.172,90.972,51.448,90.972,79.464c0,28.979-42.662,75.3-95.584,75.3c-5.179,0-10.339-0.213-15.464-0.602"
			/>
		<path fill="none" stroke="#000000" stroke-width="8" stroke-linecap="round" stroke-linejoin="round" stroke-miterlimit="10" d="
			M171.449,181.395c29.701-16.709,68.362-33.15,107.48-33.15c1.535,0,3.073,0.06,4.612,0.168"/>
		<path fill="none" stroke="#000000" stroke-width="8" stroke-linecap="round" stroke-linejoin="round" stroke-miterlimit="10" d="
			M298.27,183.23c0,0-40.031,46.987,0,89.956"/>
		<path d="M318.974,218.281c0,5.481,4.446,9.931,9.931,9.931c5.485,0,9.932-4.449,9.932-9.931c0-5.484-4.446-9.931-9.932-9.931
			C323.42,208.351,318.974,212.797,318.974,218.281z"/>
	</g>
</g>
<g id="pivot">
	<circle fill="none" cx="223.748" cy="320.68" r="14.132"/>
</g>
</svg>
