<?xml version="1.0" encoding="utf-8"?>
<!-- Generator: Adobe Illustrator 16.0.0, SVG Export Plug-In . SVG Version: 6.00 Build 0)  -->
<!DOCTYPE svg PUBLIC "-//W3C//DTD SVG 1.1//EN" "http://www.w3.org/Graphics/SVG/1.1/DTD/svg11.dtd">
<svg version="1.1" id="Layer_1" xmlns="http://www.w3.org/2000/svg" xmlns:xlink="http://www.w3.org/1999/xlink" x="0px" y="0px"
	 width="453.543px" height="453.543px" viewBox="0 0 453.543 453.543" enable-background="new 0 0 453.543 453.543"
	 xml:space="preserve">
<g id="kvadrat" display="none">
</g>
<g id="color" display="none">
	<g id="rdeča7bela" display="inline">
	</g>
	<g display="inline">
		<g>
			<g>
				
					<path fill="#57B2E5" stroke="#000000" stroke-width="8" stroke-linecap="round" stroke-linejoin="round" stroke-miterlimit="10" d="
					M239.581,318.166c22.237,0,34.981-14.57,34.981-39.979c0-2.766-2.235-5-4.994-5c-2.758,0-72.198,19.988-74.966,19.988
					c-2.756,0-4.994,2.238-4.994,5C189.608,318.166,213.882,318.166,239.581,318.166z"/>
				
					<path fill="#57B2E5" stroke="#000000" stroke-width="8" stroke-linecap="round" stroke-linejoin="round" stroke-miterlimit="10" d="
					M170.355,147.325c7.761-11.948,34.583-11.948,62.733-11.948c26.615,0,49.967,21.018,49.967,44.979v0.003c0,2.758-9.99,0-9.99,0
					v-0.003H167.173C167.173,180.356,168.903,149.563,170.355,147.325z"/>
				
					<path fill="#57B2E5" stroke="#000000" stroke-width="8" stroke-linecap="round" stroke-linejoin="round" stroke-miterlimit="10" d="
					M79.028,227.876c0-28.978,49.297-79.632,95.584-79.632c64.568,0,127.898,44.792,151.73,61.648
					c0.977,0.688,1.863,1.333,2.695,1.905c6.051-5.566,17.102-14.959,23.25-18.044c3.447-1.723,6.729-2.599,9.732-2.599
					c8.119,0,12.494,6.22,12.494,12.063v59.983c0,5.844-4.375,12.063-12.494,12.063c-3.004,0-6.285-0.877-9.732-2.606
					c-6.188-3.092-17.348-12.597-23.369-18.154c-15.695,9.669-83.395,48.669-154.307,48.669
					C121.69,303.176,79.028,256.854,79.028,227.876z"/>
				
					<path fill="none" stroke="#000000" stroke-width="8" stroke-linecap="round" stroke-linejoin="round" stroke-miterlimit="10" d="
					M155.271,183.23c0,0,40.032,46.987,0,89.956"/>
				<path d="M114.706,218.281c0,5.481,4.446,9.932,9.932,9.932c5.484,0,9.931-4.449,9.931-9.932c0-5.483-4.446-9.931-9.931-9.931
					C119.152,208.351,114.706,212.797,114.706,218.281z"/>
			</g>
		</g>
	</g>
</g>
<g id="cb">
	<g id="rdeča7bela_copy">
	</g>
	<g>
		<path fill="none" stroke="#000000" stroke-width="8" stroke-linecap="round" stroke-linejoin="round" stroke-miterlimit="10" d="
			M190.076,302.573c3.429,15.58,25.856,15.593,49.505,15.593c21.198,0,33.76-13.248,34.89-36.496"/>
		<path fill="none" stroke="#000000" stroke-width="8" stroke-linecap="round" stroke-linejoin="round" stroke-miterlimit="10" d="
			M282.092,181.395c0.594-0.182,0.963-0.507,0.963-1.035v-0.003c0-23.962-23.352-44.979-49.967-44.979
			c-28.15,0-54.973,0-62.733,11.948c-0.117,0.181-0.236,0.564-0.356,1.087"/>
		<path fill="none" stroke="#000000" stroke-width="8" stroke-linecap="round" stroke-linejoin="round" stroke-miterlimit="10" d="
			M190.076,302.573c30.815-2.342,60.32-11.233,84.395-20.903"/>
		<path fill="none" stroke="#000000" stroke-width="8" stroke-linecap="round" stroke-linejoin="round" stroke-miterlimit="10" d="
			M282.092,181.395c19.323,10.87,34.856,21.854,44.25,28.499c0.977,0.688,1.863,1.333,2.695,1.905
			c6.051-5.566,17.102-14.959,23.25-18.044c3.447-1.722,6.729-2.599,9.732-2.599c8.119,0,12.494,6.22,12.494,12.063v59.983
			c0,5.844-4.375,12.063-12.494,12.063c-3.004,0-6.285-0.877-9.732-2.606c-6.188-3.092-17.348-12.597-23.369-18.154
			c-7.658,4.718-27.699,16.417-54.449,27.163"/>
		<path fill="none" stroke="#000000" stroke-width="8" stroke-linecap="round" stroke-linejoin="round" stroke-miterlimit="10" d="
			M282.092,181.395c-29.701-16.709-68.362-33.149-107.48-33.149c-1.535,0-3.073,0.06-4.613,0.168"/>
		<path fill="none" stroke="#000000" stroke-width="8" stroke-linecap="round" stroke-linejoin="round" stroke-miterlimit="10" d="
			M169.999,148.412c-44.89,3.172-90.971,51.447-90.971,79.464c0,28.979,42.662,75.3,95.584,75.3c5.179,0,10.339-0.213,15.464-0.603"
			/>
		<path d="M155.27,277.187c-0.977,0-1.955-0.355-2.726-1.073c-1.616-1.506-1.706-4.037-0.2-5.653
			c15.508-16.646,20.277-35.82,14.172-56.99c-4.66-16.161-14.198-27.536-14.293-27.649c-1.427-1.684-1.223-4.207,0.459-5.636
			c1.682-1.43,4.202-1.229,5.634,0.452c0.431,0.506,10.622,12.602,15.806,30.337c4.857,16.615,6.037,41.368-15.924,64.94
			C157.41,276.759,156.341,277.187,155.27,277.187z"/>
		<path d="M134.568,218.281c0-5.483-4.446-9.931-9.931-9.931c-5.485,0-9.932,4.446-9.932,9.931c0,5.481,4.446,9.932,9.932,9.932
			C130.122,228.212,134.568,223.763,134.568,218.281z"/>
	</g>
</g>
<g id="pivot">
	<circle fill="none" cx="221.252" cy="320.68" r="14.133"/>
</g>
</svg>
