<?xml version="1.0" encoding="utf-8"?>
<!-- Generator: Adobe Illustrator 16.0.0, SVG Export Plug-In . SVG Version: 6.00 Build 0)  -->
<!DOCTYPE svg PUBLIC "-//W3C//DTD SVG 1.1//EN" "http://www.w3.org/Graphics/SVG/1.1/DTD/svg11.dtd">
<svg version="1.1" xmlns="http://www.w3.org/2000/svg" xmlns:xlink="http://www.w3.org/1999/xlink" x="0px" y="0px"
	 width="453.543px" height="453.543px" viewBox="0 0 453.543 453.543" enable-background="new 0 0 453.543 453.543"
	 xml:space="preserve">
<g id="kvadrat" display="none">
</g>
<g id="color" display="none">
	<g id="rdeča7bela" display="inline">
	</g>
	<g display="inline">
		<g>
			<g>
				
					<path fill="#57B2E5" stroke="#000000" stroke-width="8" stroke-linecap="round" stroke-linejoin="round" stroke-miterlimit="10" d="
					M213.961,318.167c-22.238,0-34.983-14.571-34.983-39.98c0-2.766,2.237-5,4.996-5c2.757,0,72.198,19.988,74.966,19.988
					c2.756,0,4.994,2.238,4.994,5C263.934,318.167,239.659,318.167,213.961,318.167z"/>
				
					<path fill="#57B2E5" stroke="#000000" stroke-width="8" stroke-linecap="round" stroke-linejoin="round" stroke-miterlimit="10" d="
					M283.185,147.325c-7.759-11.948-34.582-11.948-62.732-11.948c-26.615,0-49.967,21.018-49.967,44.979v0.003
					c0,2.757,9.99,0,9.99,0v-0.003h105.892C286.368,180.356,284.639,149.563,283.185,147.325z"/>
				
					<path fill="#57B2E5" stroke="#000000" stroke-width="8" stroke-linecap="round" stroke-linejoin="round" stroke-miterlimit="10" d="
					M374.514,227.876c0-28.977-49.297-79.632-95.584-79.632c-64.568,0-127.898,44.792-151.73,61.649
					c-0.977,0.688-1.863,1.333-2.695,1.905c-6.051-5.566-17.102-14.959-23.25-18.044c-3.447-1.722-6.729-2.598-9.732-2.598
					c-8.119,0-12.494,6.219-12.494,12.063v59.983c0,5.844,4.375,12.064,12.494,12.064c3.004,0,6.285-0.877,9.732-2.607
					c6.188-3.091,17.347-12.596,23.369-18.154c15.695,9.669,83.394,48.669,154.307,48.669
					C331.851,303.176,374.514,256.854,374.514,227.876z"/>
				<path d="M338.836,218.281c0,5.481-4.446,9.931-9.932,9.931c-5.484,0-9.931-4.449-9.931-9.931c0-5.484,4.446-9.931,9.931-9.931
					C334.39,208.351,338.836,212.797,338.836,218.281z"/>
			</g>
			<path fill="none" stroke="#000000" stroke-width="8" stroke-linecap="round" stroke-linejoin="round" stroke-miterlimit="10" d="
				M286.368,250.15c0,0,17.615,33.865,63.687,23.036"/>
		</g>
	</g>
</g>
<g id="cb">
	<g id="rdeča7bela_copy">
	</g>
	<g>
		<path fill="none" stroke="#000000" stroke-width="8" stroke-linecap="round" stroke-linejoin="round" stroke-miterlimit="10" d="
			M179.07,281.669c1.129,23.249,13.691,36.498,34.891,36.498c23.649,0,46.076-0.013,49.505-15.593"/>
		<path fill="none" stroke="#000000" stroke-width="8" stroke-linecap="round" stroke-linejoin="round" stroke-miterlimit="10" d="
			M171.449,181.395c-0.594-0.182-0.963-0.507-0.963-1.035v-0.003c0-23.962,23.352-44.979,49.967-44.979
			c28.15,0,54.973,0,62.732,11.948c0.118,0.181,0.237,0.565,0.357,1.087"/>
		<path fill="none" stroke="#000000" stroke-width="8" stroke-linecap="round" stroke-linejoin="round" stroke-miterlimit="10" d="
			M171.449,181.395c29.702-16.709,68.362-33.15,107.48-33.15c1.535,0,3.073,0.06,4.612,0.168"/>
		<path fill="none" stroke="#000000" stroke-width="8" stroke-linecap="round" stroke-linejoin="round" stroke-miterlimit="10" d="
			M171.449,181.395c-19.323,10.87-34.856,21.854-44.25,28.499c-0.977,0.688-1.863,1.333-2.695,1.905
			c-6.051-5.566-17.102-14.959-23.25-18.044c-3.447-1.722-6.729-2.598-9.732-2.598c-8.119,0-12.494,6.219-12.494,12.063v59.983
			c0,5.844,4.375,12.064,12.494,12.064c3.004,0,6.285-0.877,9.732-2.607c6.188-3.091,17.347-12.596,23.369-18.154
			c7.658,4.718,27.698,16.417,54.447,27.162"/>
		<path fill="none" stroke="#000000" stroke-width="8" stroke-linecap="round" stroke-linejoin="round" stroke-miterlimit="10" d="
			M283.542,148.412c44.89,3.171,90.972,51.448,90.972,79.464c0,13.487-9.244,30.729-24.459,45.311"/>
		<path fill="none" stroke="#000000" stroke-width="8" stroke-linecap="round" stroke-linejoin="round" stroke-miterlimit="10" d="
			M350.054,273.187c-17.477,16.749-42.833,29.989-71.125,29.989c-5.179,0-10.339-0.213-15.464-0.602"/>
		<path fill="none" stroke="#000000" stroke-width="8" stroke-linecap="round" stroke-linejoin="round" stroke-miterlimit="10" d="
			M179.07,281.669c24.073,9.671,53.58,18.563,84.396,20.905"/>
		<path d="M318.974,218.281c0,5.481,4.446,9.931,9.931,9.931c5.485,0,9.932-4.449,9.932-9.931c0-5.484-4.446-9.931-9.932-9.931
			C323.42,208.351,318.974,212.797,318.974,218.281z"/>
		<path fill="none" stroke="#000000" stroke-width="8" stroke-linecap="round" stroke-linejoin="round" stroke-miterlimit="10" d="
			M286.368,250.15c0,0,17.615,33.865,63.686,23.036"/>
		
			<line fill="none" stroke="#000000" stroke-width="8" stroke-linecap="round" stroke-linejoin="round" stroke-miterlimit="10" x1="350.054" y1="273.187" x2="350.055" y2="273.187"/>
	</g>
</g>
<g id="pivot">
	<circle fill="none" cx="230.45" cy="320.68" r="14.133"/>
</g>
</svg>
