<?xml version="1.0" encoding="utf-8"?>
<!-- Generator: Adobe Illustrator 16.0.0, SVG Export Plug-In . SVG Version: 6.00 Build 0)  -->
<!DOCTYPE svg PUBLIC "-//W3C//DTD SVG 1.1//EN" "http://www.w3.org/Graphics/SVG/1.1/DTD/svg11.dtd">
<svg version="1.1" xmlns="http://www.w3.org/2000/svg" xmlns:xlink="http://www.w3.org/1999/xlink" x="0px" y="0px"
	 width="453.543px" height="453.543px" viewBox="0 0 453.543 453.543" enable-background="new 0 0 453.543 453.543"
	 xml:space="preserve">
<g id="kvadrat" display="none">
</g>
<g id="color" display="none">
	<g id="rdeča7bela" display="inline">
	</g>
	<g display="inline">
		<g>
			
				<path fill="#57B2E5" stroke="#000000" stroke-width="8" stroke-linecap="round" stroke-linejoin="round" stroke-miterlimit="10" d="
				M374.514,227.876c0-28.977-49.297-79.632-95.584-79.632c-64.568,0-127.899,44.792-151.731,61.649
				c-0.977,0.688-1.863,1.333-2.695,1.905c-6.051-5.566-17.102-14.959-23.249-18.044c-3.449-1.722-6.729-2.598-9.733-2.598
				c-8.119,0-12.493,6.219-12.493,12.063v59.983c0,5.844,4.374,12.064,12.493,12.064c3.004,0,6.285-0.877,9.733-2.607
				c6.187-3.091,17.348-12.596,23.369-18.154c15.694,9.669,83.393,48.669,154.306,48.669
				C331.852,303.176,374.514,256.854,374.514,227.876z"/>
			<path fill="none" stroke="#000000" stroke-width="8" stroke-linecap="round" stroke-linejoin="round" stroke-miterlimit="10" d="
				M298.27,183.23c0,0-40.032,46.987,0,89.956"/>
			<path d="M338.836,218.281c0,5.481-4.446,9.931-9.932,9.931c-5.484,0-9.931-4.449-9.931-9.931c0-5.484,4.446-9.931,9.931-9.931
				C334.39,208.351,338.836,212.797,338.836,218.281z"/>
		</g>
	</g>
</g>
<g id="cb">
	<g id="rdeča7bela_copy">
	</g>
	<g>
		<path fill="none" stroke="#000000" stroke-width="8" stroke-linecap="round" stroke-linejoin="round" stroke-miterlimit="10" d="
			M374.514,227.876c0-28.977-49.297-79.632-95.584-79.632c-64.568,0-127.899,44.792-151.731,61.649
			c-0.977,0.688-1.863,1.333-2.695,1.905c-6.051-5.566-17.102-14.959-23.249-18.044c-3.449-1.722-6.729-2.598-9.733-2.598
			c-8.119,0-12.493,6.219-12.493,12.063v59.983c0,5.844,4.374,12.064,12.493,12.064c3.004,0,6.285-0.877,9.733-2.607
			c6.187-3.091,17.348-12.596,23.369-18.154c15.694,9.669,83.393,48.669,154.306,48.669
			C331.852,303.176,374.514,256.854,374.514,227.876z"/>
		<path fill="none" stroke="#000000" stroke-width="8" stroke-linecap="round" stroke-linejoin="round" stroke-miterlimit="10" d="
			M298.27,183.23c0,0-40.032,46.987,0,89.956"/>
		<path d="M338.836,218.281c0,5.481-4.446,9.931-9.932,9.931c-5.484,0-9.931-4.449-9.931-9.931c0-5.484,4.446-9.931,9.931-9.931
			C334.39,208.351,338.836,212.797,338.836,218.281z"/>
	</g>
</g>
<g id="pivot">
	<circle fill="none" cx="229.593" cy="315.661" r="14.133"/>
</g>
</svg>
