<?xml version="1.0" encoding="utf-8"?>
<!-- Generator: Adobe Illustrator 16.0.0, SVG Export Plug-In . SVG Version: 6.00 Build 0)  -->
<!DOCTYPE svg PUBLIC "-//W3C//DTD SVG 1.1//EN" "http://www.w3.org/Graphics/SVG/1.1/DTD/svg11.dtd">
<svg version="1.1" xmlns="http://www.w3.org/2000/svg" xmlns:xlink="http://www.w3.org/1999/xlink" x="0px" y="0px"
	 width="453.543px" height="453.543px" viewBox="0 0 453.543 453.543" enable-background="new 0 0 453.543 453.543"
	 xml:space="preserve">
<g id="kvadrat" display="none">
</g>
<g id="color" display="none">
	<g id="rdeča7bela" display="inline">
	</g>
	<g display="inline">
		<g>
			<g>
				
					<path fill="#93C01F" stroke="#000000" stroke-width="8" stroke-linecap="round" stroke-linejoin="round" stroke-miterlimit="10" d="
					M348.064,159.386c0-29.649-24.256-53.908-53.908-53.908c-25.336,0-46.629,17.251-52.291,41.239
					c-9.975-1.08-19.945-1.08-29.916,0c-5.932-23.988-27.229-41.239-52.564-41.239c-29.65,0-53.908,24.259-53.908,53.908
					c0,14.286,5.662,27.763,15.637,38.004c-10.246,15.097-15.637,32.077-15.637,49.598c0,55.798,54.449,101.077,121.297,101.077
					c66.844,0,121.291-45.279,121.291-101.077c0-17.521-5.387-34.501-15.627-49.598
					C342.406,187.148,348.064,173.672,348.064,159.386z"/>
				<g>
					
						<circle fill="#FFFFFF" stroke="#000000" stroke-width="8" stroke-linecap="round" stroke-linejoin="round" stroke-miterlimit="10" cx="179.687" cy="199.513" r="22.099"/>
					<circle cx="188.651" cy="208.881" r="12.817"/>
				</g>
				<g>
					
						<circle fill="#FFFFFF" stroke="#000000" stroke-width="8" stroke-linecap="round" stroke-linejoin="round" stroke-miterlimit="10" cx="271.491" cy="199.556" r="22.099"/>
					<circle cx="262.123" cy="208.521" r="12.817"/>
				</g>
				
					<path fill="none" stroke="#000000" stroke-width="8" stroke-linecap="round" stroke-linejoin="round" stroke-miterlimit="10" d="
					M160.584,267.094c48.193,35.066,108.531,19.886,130.865,0"/>
			</g>
		</g>
	</g>
</g>
<g id="cb">
	<g id="rdeča7bela_copy">
	</g>
	<g>
		<g>
			<path fill="none" stroke="#000000" stroke-width="8" stroke-linecap="round" stroke-linejoin="round" stroke-miterlimit="10" d="
				M348.064,159.386c0-29.649-24.256-53.908-53.908-53.908c-25.336,0-46.629,17.251-52.291,41.239c-9.975-1.08-19.945-1.08-29.916,0
				c-5.932-23.988-27.229-41.239-52.564-41.239c-29.65,0-53.908,24.259-53.908,53.908c0,14.286,5.662,27.763,15.637,38.004
				c-10.246,15.097-15.637,32.077-15.637,49.598c0,55.798,54.449,101.077,121.297,101.077c66.844,0,121.291-45.279,121.291-101.077
				c0-17.521-5.387-34.501-15.627-49.598C342.406,187.148,348.064,173.672,348.064,159.386z"/>
			<g>
				
					<circle fill="none" stroke="#000000" stroke-width="8" stroke-linecap="round" stroke-linejoin="round" stroke-miterlimit="10" cx="179.687" cy="199.513" r="22.099"/>
				<circle cx="188.651" cy="208.881" r="12.817"/>
			</g>
			<g>
				
					<circle fill="none" stroke="#000000" stroke-width="8" stroke-linecap="round" stroke-linejoin="round" stroke-miterlimit="10" cx="271.491" cy="199.556" r="22.099"/>
				<circle cx="262.123" cy="208.521" r="12.817"/>
			</g>
			<path fill="none" stroke="#000000" stroke-width="8" stroke-linecap="round" stroke-linejoin="round" stroke-miterlimit="10" d="
				M160.584,267.094c48.193,35.066,108.531,19.886,130.865,0"/>
		</g>
	</g>
</g>
<g id="pivot">
	<circle fill="none" cx="223.748" cy="350.251" r="14.132"/>
</g>
</svg>
