<?xml version="1.0" encoding="utf-8"?>
<!-- Generator: Adobe Illustrator 16.0.0, SVG Export Plug-In . SVG Version: 6.00 Build 0)  -->
<!DOCTYPE svg PUBLIC "-//W3C//DTD SVG 1.1//EN" "http://www.w3.org/Graphics/SVG/1.1/DTD/svg11.dtd">
<svg version="1.1" xmlns="http://www.w3.org/2000/svg" xmlns:xlink="http://www.w3.org/1999/xlink" x="0px" y="0px" width="220px"
	 height="220px" viewBox="0 0 220 220" enable-background="new 0 0 220 220" xml:space="preserve">
<g id="bg" display="none">
	<rect x="-2545.836" y="-1281.787" display="inline" fill="#FFFFFF" width="3240.076" height="8444.104"/>
</g>
<g id="Layer_3" display="none">
</g>
<g id="Layer_1">
	<g>
		<defs>
			<rect id="SVGID_261_" x="-2100" y="-300" width="220" height="220"/>
		</defs>
		<clipPath id="SVGID_2_">
			<use xlink:href="#SVGID_261_"  overflow="visible"/>
		</clipPath>
	</g>
	<g>
		<defs>
			<rect id="SVGID_263_" x="-900" y="-300" width="220" height="220"/>
		</defs>
		<clipPath id="SVGID_4_">
			<use xlink:href="#SVGID_263_"  overflow="visible"/>
		</clipPath>
	</g>
	<g>
		<defs>
			<rect id="SVGID_265_" x="-300" y="-300" width="220" height="220"/>
		</defs>
		<clipPath id="SVGID_6_">
			<use xlink:href="#SVGID_265_"  overflow="visible"/>
		</clipPath>
	</g>
	<g>
		<defs>
			<rect id="SVGID_267_" x="-600" y="-300" width="220" height="220"/>
		</defs>
		<clipPath id="SVGID_8_">
			<use xlink:href="#SVGID_267_"  overflow="visible"/>
		</clipPath>
	</g>
	<g>
		<defs>
			<rect id="SVGID_269_" x="-1800" y="-300" width="220" height="220"/>
		</defs>
		<clipPath id="SVGID_10_">
			<use xlink:href="#SVGID_269_"  overflow="visible"/>
		</clipPath>
	</g>
	<g>
		<defs>
			<rect id="SVGID_271_" x="-1200" y="-300" width="220" height="220"/>
		</defs>
		<clipPath id="SVGID_12_">
			<use xlink:href="#SVGID_271_"  overflow="visible"/>
		</clipPath>
	</g>
	<g>
		<defs>
			<rect id="SVGID_513_" width="220" height="220"/>
		</defs>
		<clipPath id="SVGID_14_">
			<use xlink:href="#SVGID_513_"  overflow="visible"/>
		</clipPath>
		<g clip-path="url(#SVGID_14_)">
			<g>
				<rect x="-0.001" fill="#94D6C4" width="220.001" height="220"/>
			</g>
		</g>
		<g clip-path="url(#SVGID_14_)">
			
				<line fill="#FFCF04" stroke="#000100" stroke-width="2" stroke-linecap="round" stroke-linejoin="round" stroke-miterlimit="10" x1="54.866" y1="139.756" x2="54.866" y2="208.596"/>
			<g>
				
					<path fill="#CA77A5" stroke="#000100" stroke-width="2" stroke-linecap="round" stroke-linejoin="round" stroke-miterlimit="10" d="
					M70.503,128.641c5.221-2.087,8.369-6.926,7.182-11.463c-1.26-4.806-6.934-7.521-12.887-6.294
					c-0.371-5.611-4.002-10.101-8.682-10.371c-4.961-0.289-9.297,4.269-9.969,10.312c-5.451-1.383-10.842,0.683-12.547,5.05
					c-1.807,4.63,1.188,10.161,6.727,12.668c-2.998,4.757-2.701,10.522,0.926,13.493c3.846,3.149,10.031,2.011,14.127-2.482
					c3.598,4.321,9.174,5.82,13.119,3.289C72.683,140.158,73.511,133.923,70.503,128.641z"/>
				
					<path fill="#80358A" stroke="#000100" stroke-width="2" stroke-linecap="round" stroke-linejoin="round" stroke-miterlimit="10" d="
					M64.69,126.615c3.164-1.265,5.074-4.2,4.354-6.949c-0.764-2.916-4.203-4.56-7.813-3.816c-0.227-3.402-2.426-6.123-5.264-6.287
					c-3.007-0.176-5.636,2.588-6.044,6.25c-3.305-0.837-6.572,0.415-7.605,3.063c-1.096,2.807,0.721,6.16,4.078,7.68
					c-1.818,2.884-1.637,6.38,0.561,8.181c2.332,1.908,6.082,1.219,8.564-1.506c2.182,2.621,5.563,3.528,7.955,1.993
					C66.011,133.598,66.513,129.816,64.69,126.615z"/>
				
					<circle fill="#EFE342" stroke="#000100" stroke-width="2" stroke-linecap="round" stroke-linejoin="round" stroke-miterlimit="10" cx="55.65" cy="123.651" r="5.125"/>
			</g>
			
				<path fill="#39A935" stroke="#000100" stroke-width="2" stroke-linecap="round" stroke-linejoin="round" stroke-miterlimit="10" d="
				M54.835,209.474c0,0-6.383-4.452-10.301-11.998c-3.918-7.546-3.885-15.328-3.885-15.328s6.381,4.452,10.299,11.999
				C54.866,201.691,54.835,209.474,54.835,209.474z"/>
			
				<path fill="#39A935" stroke="#000100" stroke-width="2" stroke-linecap="round" stroke-linejoin="round" stroke-miterlimit="10" d="
				M69.085,182.148c0,0-6.383,4.452-10.301,11.999c-3.918,7.544-3.885,15.327-3.885,15.327s6.381-4.452,10.299-11.998
				C69.116,189.93,69.085,182.148,69.085,182.148z"/>
		</g>
		<g clip-path="url(#SVGID_14_)">
			<g>
				
					<path fill="#2B317F" stroke="#000100" stroke-width="2" stroke-linecap="round" stroke-linejoin="round" stroke-miterlimit="10" d="
					M108.965,174.748c0,0-5.932-6.772-5.572-14.784s6.875-14.227,6.875-14.227s5.932,6.773,5.572,14.785
					S108.965,174.748,108.965,174.748z"/>
				
					<line fill="#FFCF04" stroke="#000100" stroke-width="2" stroke-linecap="round" stroke-linejoin="round" stroke-miterlimit="10" x1="110.26" y1="174.096" x2="110.26" y2="207.936"/>
				
					<path fill="#0774B3" stroke="#000100" stroke-width="2" stroke-linecap="round" stroke-linejoin="round" stroke-miterlimit="10" d="
					M109.366,174.939c0,0-8.523-2.899-12.217-10.017c-3.695-7.117-1.161-15.758-1.161-15.758s8.524,2.9,12.217,10.018
					C111.901,166.299,109.366,174.939,109.366,174.939z"/>
				
					<path fill="#0774B3" stroke="#000100" stroke-width="2" stroke-linecap="round" stroke-linejoin="round" stroke-miterlimit="10" d="
					M109.116,174.573c0,0-1.752-8.832,2.564-15.59c4.318-6.758,13.066-8.883,13.066-8.883s1.752,8.832-2.566,15.59
					C117.866,172.449,109.116,174.573,109.116,174.573z"/>
				
					<path fill="#56B0E3" stroke="#000100" stroke-width="2" stroke-linecap="round" stroke-linejoin="round" stroke-miterlimit="10" d="
					M109.333,174.496c0,0,2.898-8.523,10.016-12.219c7.117-3.693,15.758-1.16,15.758-1.16s-2.9,8.526-10.018,12.219
					C117.973,177.031,109.333,174.496,109.333,174.496z"/>
				
					<path fill="#56B0E3" stroke="#000100" stroke-width="2" stroke-linecap="round" stroke-linejoin="round" stroke-miterlimit="10" d="
					M109.366,174.939c0,0-8.83,1.75-15.59-2.565c-6.758-4.317-8.883-13.066-8.883-13.066s8.832-1.75,15.59,2.566
					C107.243,166.189,109.366,174.939,109.366,174.939z"/>
			</g>
			
				<path fill="#39A935" stroke="#000100" stroke-width="2" stroke-linecap="round" stroke-linejoin="round" stroke-miterlimit="10" d="
				M110.276,209.474c0,0-6.383-4.452-10.299-11.998c-3.918-7.546-3.887-15.328-3.887-15.328s6.383,4.452,10.301,11.999
				C110.307,201.691,110.276,209.474,110.276,209.474z"/>
			
				<path fill="#39A935" stroke="#000100" stroke-width="2" stroke-linecap="round" stroke-linejoin="round" stroke-miterlimit="10" d="
				M124.526,182.148c0,0-6.383,4.452-10.299,11.999c-3.918,7.544-3.887,15.327-3.887,15.327s6.383-4.452,10.301-11.998
				C124.557,189.93,124.526,182.148,124.526,182.148z"/>
		</g>
		<g clip-path="url(#SVGID_14_)">
			<g>
				
					<path fill="#2B317F" stroke="#000100" stroke-width="2" stroke-linecap="round" stroke-linejoin="round" stroke-miterlimit="10" d="
					M164.156,174.748c0,0-5.932-6.772-5.572-14.784s6.875-14.227,6.875-14.227s5.932,6.773,5.571,14.785
					C170.672,168.533,164.156,174.748,164.156,174.748z"/>
				
					<line fill="#FFCF04" stroke="#000100" stroke-width="2" stroke-linecap="round" stroke-linejoin="round" stroke-miterlimit="10" x1="165.451" y1="174.096" x2="165.451" y2="207.936"/>
				
					<path fill="#0774B3" stroke="#000100" stroke-width="2" stroke-linecap="round" stroke-linejoin="round" stroke-miterlimit="10" d="
					M164.557,174.939c0,0-8.524-2.899-12.217-10.017c-3.695-7.117-1.16-15.758-1.16-15.758s8.523,2.9,12.217,10.018
					C167.092,166.299,164.557,174.939,164.557,174.939z"/>
				
					<path fill="#0774B3" stroke="#000100" stroke-width="2" stroke-linecap="round" stroke-linejoin="round" stroke-miterlimit="10" d="
					M164.307,174.573c0,0-1.752-8.832,2.564-15.59c4.318-6.758,13.066-8.883,13.066-8.883s1.752,8.832-2.566,15.59
					C173.057,172.449,164.307,174.573,164.307,174.573z"/>
				
					<path fill="#56B0E3" stroke="#000100" stroke-width="2" stroke-linecap="round" stroke-linejoin="round" stroke-miterlimit="10" d="
					M164.523,174.496c0,0,2.898-8.523,10.016-12.219c7.117-3.693,15.757-1.16,15.757-1.16s-2.899,8.526-10.018,12.219
					C173.163,177.031,164.523,174.496,164.523,174.496z"/>
				
					<path fill="#56B0E3" stroke="#000100" stroke-width="2" stroke-linecap="round" stroke-linejoin="round" stroke-miterlimit="10" d="
					M164.557,174.939c0,0-8.83,1.75-15.59-2.565c-6.758-4.317-8.883-13.066-8.883-13.066s8.831-1.75,15.59,2.566
					C162.434,166.189,164.557,174.939,164.557,174.939z"/>
			</g>
			
				<path fill="#39A935" stroke="#000100" stroke-width="2" stroke-linecap="round" stroke-linejoin="round" stroke-miterlimit="10" d="
				M165.467,209.474c0,0-6.383-4.452-10.299-11.998c-3.919-7.546-3.887-15.328-3.887-15.328s6.382,4.452,10.301,11.999
				C165.498,201.691,165.467,209.474,165.467,209.474z"/>
			
				<path fill="#39A935" stroke="#000100" stroke-width="2" stroke-linecap="round" stroke-linejoin="round" stroke-miterlimit="10" d="
				M179.717,182.148c0,0-6.383,4.452-10.299,11.999c-3.919,7.544-3.888,15.327-3.888,15.327s6.384-4.452,10.301-11.998
				C179.747,189.93,179.717,182.148,179.717,182.148z"/>
		</g>
		<g clip-path="url(#SVGID_14_)">
			<g>
				
					<line fill="#FFCF04" stroke="#000100" stroke-width="2" stroke-linecap="round" stroke-linejoin="round" stroke-miterlimit="10" x1="-0.034" y1="170.166" x2="-0.034" y2="209.006"/>
				
					<path fill="#E5352B" stroke="#000100" stroke-width="2" stroke-linecap="round" stroke-linejoin="round" stroke-miterlimit="10" d="
					M5.149,144.947l-4.774-8.392l-4.825,8.346l-8.779-8.405c0,0-0.084,18.24-0.093,19.957c-0.033,7.225,5.465,13.162,12.549,13.713
					l2.37-0.014c6.92-0.65,12.292-6.468,12.325-13.572c0.008-1.715,0.092-19.957,0.092-19.957L5.149,144.947z"/>
			</g>
			
				<path fill="#39A935" stroke="#000100" stroke-width="2" stroke-linecap="round" stroke-linejoin="round" stroke-miterlimit="10" d="
				M-0.394,209.474c0,0-6.383-4.452-10.3-11.998c-3.918-7.546-3.886-15.328-3.886-15.328s6.382,4.452,10.3,11.999
				C-0.362,201.691-0.394,209.474-0.394,209.474z"/>
			
				<path fill="#39A935" stroke="#000100" stroke-width="2" stroke-linecap="round" stroke-linejoin="round" stroke-miterlimit="10" d="
				M13.856,182.148c0,0-6.383,4.452-10.3,11.999c-3.918,7.544-3.886,15.327-3.886,15.327s6.382-4.452,10.3-11.998
				C13.888,189.93,13.856,182.148,13.856,182.148z"/>
		</g>
		<path clip-path="url(#SVGID_14_)" fill="#000100" d="M27.757,248.547c-0.265,0-0.52-0.106-0.707-0.292l-27.501-27.5
			c-0.188-0.188-0.293-0.442-0.293-0.708s0.105-0.52,0.293-0.707l27.501-27.5c0.375-0.375,1.039-0.375,1.414,0l27.499,27.5
			c0.391,0.391,0.391,1.023,0,1.415l-27.499,27.5C28.276,248.441,28.022,248.547,27.757,248.547z M1.67,220.047l26.086,26.086
			l26.084-26.086l-26.084-26.086L1.67,220.047z"/>
		<path clip-path="url(#SVGID_14_)" fill="#000100" d="M82.757,248.547c-0.265,0-0.52-0.106-0.707-0.292l-27.501-27.5
			c-0.188-0.188-0.293-0.442-0.293-0.708s0.105-0.52,0.293-0.707l27.501-27.5c0.375-0.375,1.039-0.375,1.414,0l27.499,27.5
			c0.391,0.391,0.391,1.023,0,1.415l-27.499,27.5C83.276,248.441,83.022,248.547,82.757,248.547z M56.67,220.047l26.086,26.086
			l26.084-26.086l-26.084-26.086L56.67,220.047z"/>
		<path clip-path="url(#SVGID_14_)" fill="#000100" d="M137.757,248.547c-0.265,0-0.52-0.106-0.707-0.292l-27.501-27.5
			c-0.188-0.188-0.293-0.442-0.293-0.708s0.105-0.52,0.293-0.707l27.501-27.5c0.375-0.375,1.039-0.375,1.414,0l27.499,27.5
			c0.391,0.391,0.391,1.023,0,1.415l-27.499,27.5C138.276,248.441,138.022,248.547,137.757,248.547z M111.67,220.047l26.086,26.086
			l26.084-26.086l-26.084-26.086L111.67,220.047z"/>
		<path clip-path="url(#SVGID_14_)" fill="#000100" d="M192.757,248.547c-0.265,0-0.52-0.106-0.707-0.292l-27.501-27.5
			c-0.188-0.188-0.293-0.442-0.293-0.708s0.105-0.52,0.293-0.707l27.501-27.5c0.375-0.375,1.039-0.375,1.414,0l27.499,27.5
			c0.391,0.391,0.391,1.023,0,1.415l-27.499,27.5C193.276,248.441,193.022,248.547,192.757,248.547z M166.67,220.047l26.086,26.086
			l26.084-26.086l-26.084-26.086L166.67,220.047z"/>
		<g clip-path="url(#SVGID_14_)">
			
				<line fill="#FFCF04" stroke="#000100" stroke-width="2" stroke-linecap="round" stroke-linejoin="round" stroke-miterlimit="10" x1="165.449" y1="80.245" x2="165.449" y2="11.405"/>
			<g>
				
					<path fill="#CA77A5" stroke="#000100" stroke-width="2" stroke-linecap="round" stroke-linejoin="round" stroke-miterlimit="10" d="
					M149.813,91.36c-5.221,2.086-8.369,6.926-7.182,11.463c1.26,4.807,6.934,7.521,12.887,6.294
					c0.371,5.61,4.002,10.102,8.682,10.37c4.961,0.289,9.297-4.269,9.969-10.311c5.451,1.381,10.842-0.684,12.547-5.051
					c1.807-4.631-1.188-10.162-6.727-12.668c2.998-4.757,2.701-10.522-0.926-13.494c-3.846-3.149-10.031-2.01-14.127,2.482
					c-3.598-4.321-9.174-5.819-13.119-3.288C147.633,79.843,146.805,86.077,149.813,91.36z"/>
				
					<path fill="#80358A" stroke="#000100" stroke-width="2" stroke-linecap="round" stroke-linejoin="round" stroke-miterlimit="10" d="
					M155.625,93.386c-3.164,1.266-5.075,4.199-4.354,6.949c0.764,2.916,4.203,4.562,7.813,3.816
					c0.227,3.402,2.426,6.123,5.264,6.288c3.008,0.176,5.637-2.587,6.045-6.25c3.305,0.837,6.572-0.417,7.605-3.063
					c1.096-2.807-0.721-6.159-4.078-7.679c1.818-2.884,1.637-6.382-0.561-8.182c-2.332-1.908-6.082-1.218-8.564,1.507
					c-2.182-2.623-5.563-3.531-7.955-1.996C154.305,86.403,153.803,90.185,155.625,93.386z"/>
				
					<circle fill="#EFE342" stroke="#000100" stroke-width="2" stroke-linecap="round" stroke-linejoin="round" stroke-miterlimit="10" cx="164.665" cy="96.35" r="5.125"/>
			</g>
			
				<path fill="#39A935" stroke="#000100" stroke-width="2" stroke-linecap="round" stroke-linejoin="round" stroke-miterlimit="10" d="
				M165.48,10.526c0,0,6.383,4.454,10.301,11.998c3.918,7.547,3.885,15.33,3.885,15.33s-6.381-4.452-10.299-11.998
				C165.449,18.31,165.48,10.526,165.48,10.526z"/>
			
				<path fill="#39A935" stroke="#000100" stroke-width="2" stroke-linecap="round" stroke-linejoin="round" stroke-miterlimit="10" d="
				M151.23,37.854c0,0,6.383-4.452,10.301-11.998c3.918-7.546,3.885-15.33,3.885-15.33s-6.381,4.454-10.299,12
				C151.199,30.071,151.23,37.854,151.23,37.854z"/>
		</g>
		<g clip-path="url(#SVGID_14_)">
			<g>
				
					<path fill="#2B317F" stroke="#000100" stroke-width="2" stroke-linecap="round" stroke-linejoin="round" stroke-miterlimit="10" d="
					M111.034,45.253c0,0,5.933,6.773,5.572,14.783c-0.358,8.012-6.875,14.227-6.875,14.227s-5.932-6.774-5.572-14.783
					C104.518,51.468,111.034,45.253,111.034,45.253z"/>
				
					<line fill="#FFCF04" stroke="#000100" stroke-width="2" stroke-linecap="round" stroke-linejoin="round" stroke-miterlimit="10" x1="109.738" y1="45.905" x2="109.738" y2="12.065"/>
				
					<path fill="#0774B3" stroke="#000100" stroke-width="2" stroke-linecap="round" stroke-linejoin="round" stroke-miterlimit="10" d="
					M110.633,45.063c0,0,8.524,2.899,12.218,10.017c3.695,7.117,1.16,15.757,1.16,15.757s-8.524-2.899-12.218-10.018
					C108.098,53.702,110.633,45.063,110.633,45.063z"/>
				
					<path fill="#0774B3" stroke="#000100" stroke-width="2" stroke-linecap="round" stroke-linejoin="round" stroke-miterlimit="10" d="
					M110.883,45.427c0,0,1.752,8.832-2.564,15.59c-4.318,6.76-13.066,8.885-13.066,8.885s-1.752-8.832,2.566-15.589
					C102.133,47.552,110.883,45.427,110.883,45.427z"/>
				
					<path fill="#56B0E3" stroke="#000100" stroke-width="2" stroke-linecap="round" stroke-linejoin="round" stroke-miterlimit="10" d="
					M110.667,45.505c0,0-2.898,8.523-10.016,12.219c-7.117,3.694-15.758,1.16-15.758,1.16s2.9-8.525,10.018-12.218
					C102.026,42.97,110.667,45.505,110.667,45.505z"/>
				
					<path fill="#56B0E3" stroke="#000100" stroke-width="2" stroke-linecap="round" stroke-linejoin="round" stroke-miterlimit="10" d="
					M110.633,45.063c0,0,8.831-1.75,15.591,2.565c6.758,4.316,8.882,13.066,8.882,13.066s-8.832,1.75-15.589-2.566
					C112.756,53.813,110.633,45.063,110.633,45.063z"/>
			</g>
			
				<path fill="#39A935" stroke="#000100" stroke-width="2" stroke-linecap="round" stroke-linejoin="round" stroke-miterlimit="10" d="
				M109.723,10.526c0,0,6.383,4.454,10.299,11.998c3.919,7.547,3.887,15.33,3.887,15.33s-6.382-4.452-10.3-11.998
				C109.692,18.31,109.723,10.526,109.723,10.526z"/>
			
				<path fill="#39A935" stroke="#000100" stroke-width="2" stroke-linecap="round" stroke-linejoin="round" stroke-miterlimit="10" d="
				M95.473,37.854c0,0,6.383-4.452,10.299-11.998c3.918-7.546,3.887-15.33,3.887-15.33s-6.383,4.454-10.301,12
				C95.442,30.071,95.473,37.854,95.473,37.854z"/>
		</g>
		<g clip-path="url(#SVGID_14_)">
			<g>
				
					<path fill="#2B317F" stroke="#000100" stroke-width="2" stroke-linecap="round" stroke-linejoin="round" stroke-miterlimit="10" d="
					M55.909,45.253c0,0,5.932,6.773,5.572,14.783c-0.359,8.012-6.875,14.227-6.875,14.227s-5.932-6.774-5.572-14.783
					C49.394,51.468,55.909,45.253,55.909,45.253z"/>
				
					<line fill="#FFCF04" stroke="#000100" stroke-width="2" stroke-linecap="round" stroke-linejoin="round" stroke-miterlimit="10" x1="54.614" y1="45.905" x2="54.614" y2="12.065"/>
				
					<path fill="#0774B3" stroke="#000100" stroke-width="2" stroke-linecap="round" stroke-linejoin="round" stroke-miterlimit="10" d="
					M55.508,45.063c0,0,8.524,2.899,12.217,10.017c3.695,7.117,1.16,15.757,1.16,15.757s-8.523-2.899-12.217-10.018
					C52.974,53.702,55.508,45.063,55.508,45.063z"/>
				
					<path fill="#0774B3" stroke="#000100" stroke-width="2" stroke-linecap="round" stroke-linejoin="round" stroke-miterlimit="10" d="
					M55.758,45.427c0,0,1.752,8.832-2.564,15.59c-4.318,6.76-13.066,8.885-13.066,8.885s-1.752-8.832,2.566-15.589
					C47.008,47.552,55.758,45.427,55.758,45.427z"/>
				
					<path fill="#56B0E3" stroke="#000100" stroke-width="2" stroke-linecap="round" stroke-linejoin="round" stroke-miterlimit="10" d="
					M55.542,45.505c0,0-2.898,8.523-10.016,12.219c-7.117,3.694-15.758,1.16-15.758,1.16s2.9-8.525,10.018-12.218
					C46.901,42.97,55.542,45.505,55.542,45.505z"/>
				
					<path fill="#56B0E3" stroke="#000100" stroke-width="2" stroke-linecap="round" stroke-linejoin="round" stroke-miterlimit="10" d="
					M55.508,45.063c0,0,8.831-1.75,15.59,2.565c6.758,4.316,8.883,13.066,8.883,13.066s-8.832,1.75-15.59-2.566
					C57.632,53.813,55.508,45.063,55.508,45.063z"/>
			</g>
			
				<path fill="#39A935" stroke="#000100" stroke-width="2" stroke-linecap="round" stroke-linejoin="round" stroke-miterlimit="10" d="
				M54.599,10.526c0,0,6.383,4.454,10.299,11.998c3.918,7.547,3.887,15.33,3.887,15.33s-6.383-4.452-10.301-11.998
				C54.567,18.31,54.599,10.526,54.599,10.526z"/>
			
				<path fill="#39A935" stroke="#000100" stroke-width="2" stroke-linecap="round" stroke-linejoin="round" stroke-miterlimit="10" d="
				M40.349,37.854c0,0,6.383-4.452,10.299-11.998c3.918-7.546,3.887-15.33,3.887-15.33s-6.383,4.454-10.301,12
				C40.317,30.071,40.349,37.854,40.349,37.854z"/>
		</g>
		<g clip-path="url(#SVGID_14_)">
			<g>
				
					<line fill="#FFCF04" stroke="#000100" stroke-width="2" stroke-linecap="round" stroke-linejoin="round" stroke-miterlimit="10" x1="-0.53" y1="49.835" x2="-0.53" y2="10.995"/>
				
					<path fill="#E5352B" stroke="#000100" stroke-width="2" stroke-linecap="round" stroke-linejoin="round" stroke-miterlimit="10" d="
					M-5.714,75.054l4.773,8.393l4.824-8.348l8.78,8.406c0,0,0.084-18.24,0.094-19.957c0.033-7.225-5.465-13.162-12.549-13.713
					l-2.371,0.014c-6.92,0.65-12.291,6.466-12.324,13.572c-0.008,1.715-0.092,19.957-0.092,19.957L-5.714,75.054z"/>
			</g>
			
				<path fill="#39A935" stroke="#000100" stroke-width="2" stroke-linecap="round" stroke-linejoin="round" stroke-miterlimit="10" d="
				M-0.171,10.526c0,0,6.383,4.454,10.299,11.998c3.918,7.547,3.887,15.33,3.887,15.33S7.632,33.401,3.714,25.856
				C-0.202,18.31-0.171,10.526-0.171,10.526z"/>
			
				<path fill="#39A935" stroke="#000100" stroke-width="2" stroke-linecap="round" stroke-linejoin="round" stroke-miterlimit="10" d="
				M-14.421,37.854c0,0,6.383-4.452,10.299-11.998c3.918-7.546,3.887-15.33,3.887-15.33s-6.383,4.454-10.301,12
				C-14.452,30.071-14.421,37.854-14.421,37.854z"/>
		</g>
		<g clip-path="url(#SVGID_14_)">
			<g>
				
					<line fill="#FFCF04" stroke="#000100" stroke-width="2" stroke-linecap="round" stroke-linejoin="round" stroke-miterlimit="10" x1="219.966" y1="170.166" x2="219.966" y2="209.006"/>
				
					<path fill="#E5352B" stroke="#000100" stroke-width="2" stroke-linecap="round" stroke-linejoin="round" stroke-miterlimit="10" d="
					M225.149,144.947l-4.774-8.392l-4.825,8.346l-8.779-8.405c0,0-0.084,18.24-0.093,19.957
					c-0.033,7.225,5.465,13.162,12.549,13.713l2.37-0.014c6.92-0.65,12.292-6.468,12.325-13.572
					c0.008-1.715,0.092-19.957,0.092-19.957L225.149,144.947z"/>
			</g>
			
				<path fill="#39A935" stroke="#000100" stroke-width="2" stroke-linecap="round" stroke-linejoin="round" stroke-miterlimit="10" d="
				M219.606,209.474c0,0-6.383-4.452-10.3-11.998c-3.918-7.546-3.886-15.328-3.886-15.328s6.382,4.452,10.3,11.999
				C219.638,201.691,219.606,209.474,219.606,209.474z"/>
			
				<path fill="#39A935" stroke="#000100" stroke-width="2" stroke-linecap="round" stroke-linejoin="round" stroke-miterlimit="10" d="
				M233.856,182.148c0,0-6.383,4.452-10.3,11.999c-3.918,7.544-3.886,15.327-3.886,15.327s6.382-4.452,10.3-11.998
				C233.888,189.93,233.856,182.148,233.856,182.148z"/>
		</g>
		<g clip-path="url(#SVGID_14_)">
			<g>
				
					<line fill="#FFCF04" stroke="#000100" stroke-width="2" stroke-linecap="round" stroke-linejoin="round" stroke-miterlimit="10" x1="219.47" y1="49.835" x2="219.47" y2="10.995"/>
				
					<path fill="#E5352B" stroke="#000100" stroke-width="2" stroke-linecap="round" stroke-linejoin="round" stroke-miterlimit="10" d="
					M214.286,75.054l4.773,8.393l4.824-8.348l8.78,8.406c0,0,0.084-18.24,0.094-19.957c0.033-7.225-5.465-13.162-12.549-13.713
					l-2.371,0.014c-6.92,0.65-12.291,6.466-12.324,13.572c-0.008,1.715-0.092,19.957-0.092,19.957L214.286,75.054z"/>
			</g>
			
				<path fill="#39A935" stroke="#000100" stroke-width="2" stroke-linecap="round" stroke-linejoin="round" stroke-miterlimit="10" d="
				M219.829,10.526c0,0,6.383,4.454,10.299,11.998c3.918,7.547,3.887,15.33,3.887,15.33s-6.383-4.452-10.301-11.998
				C219.798,18.31,219.829,10.526,219.829,10.526z"/>
			
				<path fill="#39A935" stroke="#000100" stroke-width="2" stroke-linecap="round" stroke-linejoin="round" stroke-miterlimit="10" d="
				M205.579,37.854c0,0,6.383-4.452,10.299-11.998c3.918-7.546,3.887-15.33,3.887-15.33s-6.383,4.454-10.301,12
				C205.548,30.071,205.579,37.854,205.579,37.854z"/>
		</g>
		<path clip-path="url(#SVGID_14_)" fill="#000100" d="M192.309,28.454c-0.265,0-0.52-0.105-0.707-0.293l-27.499-27.5
			c-0.391-0.391-0.391-1.023,0-1.414l27.499-27.5c0.375-0.375,1.039-0.375,1.414,0l27.501,27.5c0.188,0.188,0.293,0.442,0.293,0.707
			c0,0.265-0.105,0.52-0.293,0.707l-27.501,27.5C192.828,28.349,192.574,28.454,192.309,28.454z M166.224-0.046l26.084,26.086
			l26.086-26.086l-26.086-26.085L166.224-0.046z"/>
		<path clip-path="url(#SVGID_14_)" fill="#000100" d="M137.308,28.454L137.308,28.454c-0.265,0-0.52-0.105-0.707-0.293
			l-27.498-27.5c-0.391-0.391-0.391-1.023,0-1.414l27.498-27.5c0.375-0.375,1.039-0.375,1.414,0l27.502,27.5
			c0.188,0.188,0.293,0.442,0.293,0.707c0,0.265-0.105,0.52-0.293,0.707l-27.502,27.5C137.827,28.349,137.573,28.454,137.308,28.454
			z M111.224-0.046l26.084,26.086l26.087-26.086l-26.087-26.085L111.224-0.046z"/>
		<path clip-path="url(#SVGID_14_)" fill="#000100" d="M82.308,28.454L82.308,28.454c-0.265,0-0.52-0.105-0.707-0.293l-27.498-27.5
			c-0.391-0.391-0.391-1.023,0-1.414l27.498-27.5c0.375-0.375,1.039-0.375,1.414,0l27.502,27.5c0.188,0.188,0.293,0.442,0.293,0.707
			c0,0.265-0.105,0.52-0.293,0.707l-27.502,27.5C82.827,28.349,82.573,28.454,82.308,28.454z M56.224-0.046L82.308,26.04
			l26.087-26.086L82.308-26.131L56.224-0.046z"/>
		<path clip-path="url(#SVGID_14_)" fill="#000100" d="M27.308,28.454L27.308,28.454c-0.265,0-0.52-0.105-0.707-0.293l-27.498-27.5
			c-0.391-0.391-0.391-1.023,0-1.414l27.498-27.5c0.375-0.375,1.039-0.375,1.414,0l27.502,27.5c0.188,0.188,0.293,0.442,0.293,0.707
			c0,0.265-0.105,0.52-0.293,0.707l-27.502,27.5C27.827,28.349,27.573,28.454,27.308,28.454z M1.224-0.046L27.308,26.04
			L53.395-0.046L27.308-26.131L1.224-0.046z"/>
		<g clip-path="url(#SVGID_14_)">
			<g>
				<rect x="-0.001" fill="none" width="220.001" height="220"/>
			</g>
		</g>
	</g>
</g>
</svg>
