<?xml version="1.0" encoding="utf-8"?>
<!-- Generator: Adobe Illustrator 16.0.0, SVG Export Plug-In . SVG Version: 6.00 Build 0)  -->
<!DOCTYPE svg PUBLIC "-//W3C//DTD SVG 1.1//EN" "http://www.w3.org/Graphics/SVG/1.1/DTD/svg11.dtd">
<svg version="1.1" xmlns="http://www.w3.org/2000/svg" xmlns:xlink="http://www.w3.org/1999/xlink" x="0px" y="0px"
	 width="453.543px" height="453.543px" viewBox="0 0 453.543 453.543" enable-background="new 0 0 453.543 453.543"
	 xml:space="preserve">
<g id="kvadrat" display="none">
</g>
<g id="color" display="none">
	
		<path display="inline" fill="#009D73" stroke="#000000" stroke-width="8" stroke-linecap="round" stroke-linejoin="round" stroke-miterlimit="10" d="
		M342.949,165.092c1.923,1.574,4.758,1.289,6.331-0.635c1.574-1.923,1.29-4.758-0.635-6.332l-34.487-28.201
		c-0.886-0.725,5.949-9.175,6.879-8.412l34.488,28.201c1.924,1.574,4.759,1.29,6.333-0.635c1.573-1.924,1.289-4.758-0.635-6.333
		l-45.948-49.068c-8.899-7.279-19.391-8.862-45.753,33.082C243.158,168.703,104.61,307.515,92.659,322.127
		c-11.949,14.614,33.309,54.008,46.428,37.966c13.118-16.041,70.555-109.24,81.315-122.397
		c10.759-13.157,47.086,19.671,47.086,19.671c1.924,1.574,4.759,1.291,6.332-0.634c1.573-1.923,1.29-4.758-0.634-6.332
		L238.698,222.2c-1.152-0.942,6.331-8.86,6.879-8.413l34.487,28.203c1.924,1.574,4.759,1.289,6.332-0.636
		c1.573-1.924,1.289-4.758-0.635-6.331l-34.486-28.202c-0.572-0.469,6.272-8.909,6.879-8.412l34.487,28.201
		c1.924,1.573,4.759,1.29,6.332-0.635c1.573-1.923,1.289-4.759-0.634-6.331l-34.487-28.203c-0.631-0.516,6.212-8.958,6.879-8.413
		l34.487,28.201c1.924,1.575,4.76,1.289,6.333-0.635c1.573-1.923,1.289-4.758-0.635-6.331l-34.487-28.201
		c-0.69-0.563,6.153-9.007,6.879-8.413l34.487,28.201c1.924,1.574,4.76,1.289,6.333-0.635c1.573-1.925,1.289-4.758-0.635-6.332
		l-34.487-28.202c-0.751-0.614,6.085-9.063,6.879-8.413l34.486,28.203c1.923,1.573,4.76,1.289,6.332-0.635
		c1.573-1.924,1.29-4.758-0.635-6.333l-34.485-28.202c0,0,0,0,0,0c-0.819-0.668,6.015-9.117,6.878-8.411L342.949,165.092z"/>
	<g id="rdeča7bela" display="inline">
	</g>
</g>
<g id="cb">
	<path fill="none" stroke="#000000" stroke-width="8" stroke-linecap="round" stroke-linejoin="round" stroke-miterlimit="10" d="
		M361.857,149.078c1.573-1.924,1.289-4.758-0.635-6.333l-45.948-49.068c-8.899-7.279-19.391-8.862-45.753,33.082
		C243.158,168.703,104.61,307.515,92.659,322.127c-11.949,14.614,33.309,54.008,46.428,37.966
		c13.118-16.041,70.555-109.24,81.315-122.397c10.759-13.157,47.086,19.671,47.086,19.671c1.924,1.574,4.759,1.291,6.332-0.634
		C275.393,254.81,360.283,151.002,361.857,149.078z"/>
	<g id="rdeča7bela_copy">
	</g>
	
		<line fill="none" stroke="#000000" stroke-width="8" stroke-linecap="round" stroke-linejoin="round" stroke-miterlimit="10" x1="305.428" y1="123.914" x2="345.88" y2="164.366"/>
	
		<line fill="none" stroke="#000000" stroke-width="8" stroke-linecap="round" stroke-linejoin="round" stroke-miterlimit="10" x1="288.24" y1="141.103" x2="328.692" y2="181.554"/>
	
		<line fill="none" stroke="#000000" stroke-width="8" stroke-linecap="round" stroke-linejoin="round" stroke-miterlimit="10" x1="275.052" y1="160.29" x2="315.503" y2="200.742"/>
	
		<line fill="none" stroke="#000000" stroke-width="8" stroke-linecap="round" stroke-linejoin="round" stroke-miterlimit="10" x1="260.864" y1="179.478" x2="301.315" y2="219.93"/>
	
		<line fill="none" stroke="#000000" stroke-width="8" stroke-linecap="round" stroke-linejoin="round" stroke-miterlimit="10" x1="243.675" y1="198.666" x2="284.127" y2="239.118"/>
</g>
<g id="pivot">
	<circle fill="none" cx="242.484" cy="362.679" r="14.133"/>
</g>
</svg>
