<?xml version="1.0" encoding="utf-8"?>
<!-- Generator: Adobe Illustrator 16.0.0, SVG Export Plug-In . SVG Version: 6.00 Build 0)  -->
<!DOCTYPE svg PUBLIC "-//W3C//DTD SVG 1.1//EN" "http://www.w3.org/Graphics/SVG/1.1/DTD/svg11.dtd">
<svg version="1.1" xmlns="http://www.w3.org/2000/svg" xmlns:xlink="http://www.w3.org/1999/xlink" x="0px" y="0px"
	 width="453.543px" height="453.543px" viewBox="0 0 453.543 453.543" enable-background="new 0 0 453.543 453.543"
	 xml:space="preserve">
<g id="kvadrat" display="none">
</g>
<g id="color" display="none">
	<g display="inline">
		
			<path fill="#E20613" stroke="#000000" stroke-width="8" stroke-linecap="round" stroke-linejoin="round" stroke-miterlimit="10" d="
			M201.459,291.611c-1.219-1.13-2.504-2.139-3.847-3.034c-2.329-1.55-3.828-2.736-4.561-3.896
			c-3.207-5.07,8.207-9.541,28.508-40.739c-6.128-0.022-11.625-0.406-16.318-1.252c-2.263-0.412-4.46-0.883-6.583-1.341
			c-0.797-0.171-1.592-0.343-2.386-0.509c-1.663,5.825-4.056,11.982-8.781,19.082c-8.624,12.957-27.151,28.198-33.731,35.303
			c-11.186,12.074-12.85,29.359-5.001,41.772c1.387,2.192,3.065,4.229,5.042,6.06c13.182,12.213,34.539,10.596,47.699-3.614
			c11.188-12.076,12.851-29.36,5-41.774C205.116,295.481,203.435,293.443,201.459,291.611z M191.386,330.078
			c-7.581,8.186-19.885,9.117-27.478,2.08c-1.14-1.057-2.11-2.229-2.907-3.492c-4.521-7.149-3.563-17.108,2.881-24.069
			c7.579-8.183,19.881-9.119,27.479-2.081c1.136,1.056,2.106,2.228,2.905,3.493C198.788,313.157,197.829,323.119,191.386,330.078z"
			/>
		
			<path fill="#C8C8C8" stroke="#000000" stroke-width="8" stroke-linecap="round" stroke-linejoin="round" stroke-miterlimit="10" d="
			M310.982,102.911l-65.156,105.976l-39.398,4.284c12.956-23.988,34.681-54.532,54.379-84.742
			C276.161,104.88,294.32,98.254,310.982,102.911z"/>
		
			<path fill="#C8C8C8" stroke="#000000" stroke-width="8" stroke-linecap="round" stroke-linejoin="round" stroke-miterlimit="10" d="
			M198.741,240.957c2.101,0.453,4.195,0.903,6.345,1.292c25.345,4.584,76.683-5.256,125.782-11.915
			c27.854-3.779,41.625-17.343,44.561-34.394l-168.685,18.324"/>
		<circle cx="218.891" cy="227.474" r="5.229"/>
		
			<path fill="#E20613" stroke="#000000" stroke-width="8" stroke-linecap="round" stroke-linejoin="round" stroke-miterlimit="10" d="
			M149.869,223.508c-0.733-1.16-1.165-3.019-1.564-5.787c-0.231-1.6-0.59-3.193-1.09-4.778c-0.807-2.567-1.929-4.96-3.315-7.153
			c-7.853-12.417-24.179-18.322-39.886-13.391c-18.472,5.801-29.089,24.402-23.709,41.545c0.805,2.569,1.93,4.964,3.312,7.15
			c7.853,12.417,24.179,18.319,39.889,13.394c9.239-2.9,30.947-13.103,46.352-15.335c11.29-1.643,19.27-0.242,26.901,1.378
			l9.987-26.267C163.238,218.996,153.29,228.919,149.869,223.508z M119.371,241.329c-9.048,2.841-18.457-0.563-22.979-7.714
			c-0.797-1.259-1.442-2.639-1.908-4.124c-3.097-9.877,3.019-20.591,13.662-23.934c9.052-2.837,18.458,0.562,22.98,7.713
			c0.796,1.263,1.443,2.64,1.905,4.122C136.136,227.274,130.018,237.985,119.371,241.329z"/>
	</g>
	<g id="rdeča7bela" display="inline">
	</g>
</g>
<g id="cb">
	<g>
		<path fill="none" stroke="#000000" stroke-width="8" stroke-linecap="round" stroke-linejoin="round" stroke-miterlimit="10" d="
			M201.459,291.611c-1.219-1.13-2.504-2.139-3.847-3.034c-2.329-1.55-3.828-2.736-4.561-3.896
			c-3.207-5.07,8.207-9.541,28.508-40.739c-6.128-0.022-11.625-0.406-16.318-1.252c-2.263-0.412-4.46-0.883-6.583-1.341
			c-0.797-0.171-1.592-0.343-2.386-0.509c-1.663,5.825-4.056,11.982-8.781,19.082c-8.624,12.957-27.151,28.198-33.731,35.303
			c-11.186,12.074-12.85,29.359-5.001,41.772c1.387,2.192,3.065,4.229,5.042,6.06c13.182,12.213,34.539,10.596,47.699-3.614
			c11.188-12.076,12.851-29.36,5-41.774C205.116,295.481,203.435,293.443,201.459,291.611z M191.386,330.078
			c-7.581,8.186-19.885,9.117-27.478,2.08c-1.14-1.057-2.11-2.229-2.907-3.492c-4.521-7.149-3.563-17.108,2.881-24.069
			c7.579-8.183,19.881-9.119,27.479-2.081c1.136,1.056,2.106,2.228,2.905,3.493C198.788,313.157,197.829,323.119,191.386,330.078z"
			/>
		<path fill="none" stroke="#000000" stroke-width="8" stroke-linecap="round" stroke-linejoin="round" stroke-miterlimit="10" d="
			M310.982,102.911l-65.156,105.976l-39.398,4.284c12.956-23.988,34.681-54.532,54.379-84.742
			C276.161,104.88,294.32,98.254,310.982,102.911z"/>
		<path fill="none" stroke="#000000" stroke-width="8" stroke-linecap="round" stroke-linejoin="round" stroke-miterlimit="10" d="
			M198.741,240.957c2.101,0.453,4.195,0.903,6.345,1.292c25.345,4.584,76.683-5.256,125.782-11.915
			c27.854-3.779,41.625-17.343,44.561-34.394l-168.685,18.324"/>
		<circle cx="218.891" cy="227.474" r="5.229"/>
		<path fill="none" stroke="#000000" stroke-width="8" stroke-linecap="round" stroke-linejoin="round" stroke-miterlimit="10" d="
			M149.869,223.508c-0.733-1.16-1.165-3.019-1.564-5.787c-0.231-1.6-0.59-3.193-1.09-4.778c-0.807-2.567-1.929-4.96-3.315-7.153
			c-7.853-12.417-24.179-18.322-39.886-13.391c-18.472,5.801-29.089,24.402-23.709,41.545c0.805,2.569,1.93,4.964,3.312,7.15
			c7.853,12.417,24.179,18.319,39.889,13.394c9.239-2.9,30.947-13.103,46.352-15.335c11.29-1.643,19.27-0.242,26.901,1.378
			l9.987-26.267C163.238,218.996,153.29,228.919,149.869,223.508z M119.371,241.329c-9.048,2.841-18.457-0.563-22.979-7.714
			c-0.797-1.259-1.442-2.639-1.908-4.124c-3.097-9.877,3.019-20.591,13.662-23.934c9.052-2.837,18.458,0.562,22.98,7.713
			c0.796,1.263,1.443,2.64,1.905,4.122C136.136,227.274,130.018,237.985,119.371,241.329z"/>
	</g>
	<g id="rdeča7bela_copy">
	</g>
</g>
<g id="pivot">
	<circle fill="none" cx="231.342" cy="353.999" r="14.133"/>
</g>
</svg>
