<?xml version="1.0" encoding="utf-8"?>
<!-- Generator: Adobe Illustrator 16.0.0, SVG Export Plug-In . SVG Version: 6.00 Build 0)  -->
<!DOCTYPE svg PUBLIC "-//W3C//DTD SVG 1.1//EN" "http://www.w3.org/Graphics/SVG/1.1/DTD/svg11.dtd">
<svg version="1.1" xmlns="http://www.w3.org/2000/svg" xmlns:xlink="http://www.w3.org/1999/xlink" x="0px" y="0px"
	 width="453.543px" height="453.543px" viewBox="0 0 453.543 453.543" enable-background="new 0 0 453.543 453.543"
	 xml:space="preserve">
<g id="kvadrat">
</g>
<g id="bg" display="none">
	<rect x="-2363.667" y="-7888.403" display="inline" width="15266.867" height="13678.951"/>
</g>
<g id="barvno" display="none">
	<g display="inline">
		
			<line fill="none" stroke="#000000" stroke-width="20" stroke-linecap="round" stroke-linejoin="round" stroke-miterlimit="10" x1="306.948" y1="146.596" x2="146.596" y2="306.947"/>
		
			<line fill="none" stroke="#000000" stroke-width="20" stroke-linecap="round" stroke-linejoin="round" stroke-miterlimit="10" x1="306.948" y1="306.947" x2="146.596" y2="146.596"/>
	</g>
	<g id="rde훾a7bela" display="inline">
	</g>
	
		<rect x="-2873.953" y="-8308.412" display="inline" fill="none" stroke="#000000" stroke-miterlimit="10" width="16736" height="13952"/>
</g>
<g id="barvno_copy_2">
	<g>
		
			<line fill="none" stroke="#FFFF00" stroke-width="20" stroke-linecap="round" stroke-linejoin="round" stroke-miterlimit="10" x1="306.948" y1="146.596" x2="146.596" y2="306.947"/>
		
			<line fill="none" stroke="#FFFF00" stroke-width="20" stroke-linecap="round" stroke-linejoin="round" stroke-miterlimit="10" x1="306.948" y1="306.947" x2="146.596" y2="146.596"/>
	</g>
	<g id="rde훾a7bela_copy_4">
	</g>
	<rect x="-2873.953" y="-8308.412" fill="none" stroke="#000000" stroke-miterlimit="10" width="16736" height="13952"/>
</g>
<g id="sivinsko" display="none">
	<g display="inline">
		<path d="M146.596,316.947c-2.56,0-5.118-0.977-7.071-2.929c-3.905-3.905-3.905-10.237,0-14.143l160.352-160.352
			c3.905-3.904,10.237-3.904,14.143,0c3.905,3.905,3.905,10.237,0,14.143L153.667,314.019
			C151.714,315.971,149.156,316.947,146.596,316.947z"/>
		<path d="M306.948,316.947c-2.56,0-5.118-0.977-7.071-2.929L139.525,153.667c-3.905-3.905-3.905-10.237,0-14.143
			c3.905-3.904,10.237-3.904,14.143,0l160.352,160.352c3.905,3.905,3.905,10.237,0,14.143
			C312.066,315.971,309.507,316.947,306.948,316.947z"/>
	</g>
	<g id="rde훾a7bela_copy_3" display="inline">
	</g>
	<path display="inline" d="M13862.547,5644.088h-16737v-13953h16737V5644.088z M-2873.953,5643.088h16736l-0.5-13951h-16735.5
		l0.5,13951H-2873.953z"/>
</g>
<g id="linijsko" display="none">
	<g display="inline">
		
			<line fill="#FFFFFF" stroke="#000000" stroke-width="10" stroke-linecap="round" stroke-linejoin="round" stroke-miterlimit="10" x1="306.948" y1="146.596" x2="146.596" y2="306.947"/>
		
			<line fill="#FFFFFF" stroke="#000000" stroke-width="10" stroke-linecap="round" stroke-linejoin="round" stroke-miterlimit="10" x1="306.948" y1="306.947" x2="146.596" y2="146.596"/>
	</g>
	<g id="rde훾a7bela_copy" display="inline">
	</g>
</g>
<g id="pivot">
	<circle fill="none" cx="228.289" cy="310.405" r="14.133"/>
</g>
</svg>
