<?xml version="1.0" encoding="utf-8"?>
<!-- Generator: Adobe Illustrator 16.0.0, SVG Export Plug-In . SVG Version: 6.00 Build 0)  -->
<!DOCTYPE svg PUBLIC "-//W3C//DTD SVG 1.1//EN" "http://www.w3.org/Graphics/SVG/1.1/DTD/svg11.dtd">
<svg version="1.1" xmlns="http://www.w3.org/2000/svg" xmlns:xlink="http://www.w3.org/1999/xlink" x="0px" y="0px"
	 width="453.543px" height="453.543px" viewBox="0 0 453.543 453.543" enable-background="new 0 0 453.543 453.543"
	 xml:space="preserve">
<g id="kvadrat">
</g>
<g id="bg" display="none">
	<rect x="-1853.431" y="-7888.403" display="inline" width="15266.867" height="13678.951"/>
</g>
<g id="barvno" display="none">
	
		<line display="inline" fill="none" stroke="#000000" stroke-width="20" stroke-linecap="round" stroke-linejoin="round" stroke-miterlimit="10" x1="340.157" y1="226.771" x2="113.386" y2="226.771"/>
	<g id="rde훾a7bela" display="inline">
	</g>
	
		<rect x="-2363.716" y="-8308.412" display="inline" fill="none" stroke="#000000" stroke-miterlimit="10" width="16736" height="13952"/>
</g>
<g id="barvno_copy_2">
	
		<line fill="none" stroke="#FFFF00" stroke-width="20" stroke-linecap="round" stroke-linejoin="round" stroke-miterlimit="10" x1="340.157" y1="226.771" x2="113.386" y2="226.771"/>
	<g id="rde훾a7bela_copy_4">
	</g>
	<rect x="-2363.716" y="-8308.412" fill="none" stroke="#000000" stroke-miterlimit="10" width="16736" height="13952"/>
</g>
<g id="sivinsko" display="none">
	<path display="inline" d="M340.157,236.771H113.386c-5.523,0-10-4.478-10-10s4.477-10,10-10h226.771c5.523,0,10,4.478,10,10
		S345.68,236.771,340.157,236.771z"/>
	<g id="rde훾a7bela_copy_3" display="inline">
	</g>
	<path display="inline" d="M14372.783,5644.088h-16737v-13953h16737V5644.088z M-2363.716,5643.088h16736l-0.5-13951h-16735.5
		l0.5,13951H-2363.716z"/>
</g>
<g id="linijsko" display="none">
	
		<line display="inline" fill="#FFFFFF" stroke="#000000" stroke-width="10" stroke-linecap="round" stroke-linejoin="round" stroke-miterlimit="10" x1="340.157" y1="226.771" x2="113.386" y2="226.771"/>
	<g id="rde훾a7bela_copy" display="inline">
	</g>
</g>
<g id="pivot">
	<circle fill="none" cx="227.529" cy="267.745" r="14.133"/>
</g>
</svg>
