<?xml version="1.0" encoding="utf-8"?>
<!-- Generator: Adobe Illustrator 16.0.0, SVG Export Plug-In . SVG Version: 6.00 Build 0)  -->
<!DOCTYPE svg PUBLIC "-//W3C//DTD SVG 1.1//EN" "http://www.w3.org/Graphics/SVG/1.1/DTD/svg11.dtd">
<svg version="1.1" xmlns="http://www.w3.org/2000/svg" xmlns:xlink="http://www.w3.org/1999/xlink" x="0px" y="0px"
	 width="453.544px" height="453.543px" viewBox="0 0 453.544 453.543" enable-background="new 0 0 453.544 453.543"
	 xml:space="preserve">
<g id="kvadrat">
</g>
<g id="bg" display="none">
	<rect x="-8996.739" y="-7888.403" display="inline" width="15266.867" height="13678.951"/>
</g>
<g id="barvno" display="none">
	<g display="inline">
		
			<circle fill="#84D7CE" stroke="#000000" stroke-width="20" stroke-linecap="round" stroke-linejoin="round" stroke-miterlimit="10" cx="226.771" cy="226.771" r="113.386"/>
		
			<line fill="#84D7CE" stroke="#000000" stroke-width="20" stroke-linecap="round" stroke-linejoin="round" stroke-miterlimit="10" x1="306.948" y1="306.947" x2="146.597" y2="146.596"/>
	</g>
	<g id="rde훾a7bela" display="inline">
	</g>
	
		<rect x="-9507.024" y="-8308.412" display="inline" fill="none" stroke="#000000" stroke-miterlimit="10" width="16736" height="13952"/>
</g>
<g id="barvno_copy_2">
	<g>
		
			<circle fill="#0000FF" stroke="#FFFF00" stroke-width="20" stroke-linecap="round" stroke-linejoin="round" stroke-miterlimit="10" cx="226.771" cy="226.771" r="113.386"/>
		
			<line fill="#0000FF" stroke="#FFFF00" stroke-width="20" stroke-linecap="round" stroke-linejoin="round" stroke-miterlimit="10" x1="306.948" y1="306.947" x2="146.597" y2="146.596"/>
	</g>
	<g id="rde훾a7bela_copy_4">
	</g>
	<rect x="-9507.024" y="-8308.412" fill="none" stroke="#000000" stroke-miterlimit="10" width="16736" height="13952"/>
</g>
<g id="sivinsko" display="none">
	<g display="inline">
		<g>
			<circle fill="#BDBDBD" cx="226.771" cy="226.771" r="113.386"/>
			<path d="M226.772,350.157c-68.036,0-123.387-55.351-123.387-123.386c0.002-68.035,55.354-123.386,123.387-123.386
				c32.958,0,63.942,12.834,87.247,36.139s36.139,54.29,36.138,87.247C350.157,294.807,294.807,350.157,226.772,350.157z
				 M226.772,123.386c-57.006,0-103.385,46.379-103.387,103.386c0,57.007,46.379,103.386,103.387,103.386
				c57.007,0,103.385-46.379,103.385-103.386c0.001-27.615-10.753-53.577-30.28-73.104
				C280.351,134.14,254.388,123.386,226.772,123.386z"/>
		</g>
		<g>
			<line fill="#BDBDBD" x1="306.948" y1="306.947" x2="146.597" y2="146.596"/>
			<path d="M306.948,316.947c-2.56,0-5.118-0.977-7.071-2.929L139.525,153.667c-3.905-3.905-3.905-10.237,0-14.143
				c3.906-3.904,10.236-3.904,14.143,0L314.02,299.876c3.905,3.905,3.905,10.237,0,14.143
				C312.066,315.971,309.508,316.947,306.948,316.947z"/>
		</g>
	</g>
	<g id="rde훾a7bela_copy_3" display="inline">
	</g>
	<path display="inline" d="M7229.476,5644.088h-16737v-13953h16737V5644.088z M-9507.024,5643.088h16736l-0.5-13951h-16735.5
		l0.5,13951H-9507.024z"/>
</g>
<g id="linijsko" display="none">
	<g display="inline">
		
			<circle fill="none" stroke="#000000" stroke-width="10" stroke-linecap="round" stroke-linejoin="round" stroke-miterlimit="10" cx="226.771" cy="226.771" r="113.386"/>
		
			<line fill="none" stroke="#000000" stroke-width="10" stroke-linecap="round" stroke-linejoin="round" stroke-miterlimit="10" x1="306.948" y1="306.947" x2="146.597" y2="146.596"/>
	</g>
	<g id="rde훾a7bela_copy" display="inline">
	</g>
</g>
<g id="pivot">
</g>
</svg>
