<?xml version="1.0" encoding="utf-8"?>
<!-- Generator: Adobe Illustrator 16.0.0, SVG Export Plug-In . SVG Version: 6.00 Build 0)  -->
<!DOCTYPE svg PUBLIC "-//W3C//DTD SVG 1.1//EN" "http://www.w3.org/Graphics/SVG/1.1/DTD/svg11.dtd">
<svg version="1.1" xmlns="http://www.w3.org/2000/svg" xmlns:xlink="http://www.w3.org/1999/xlink" x="0px" y="0px"
	 width="453.544px" height="453.543px" viewBox="0 0 453.544 453.543" enable-background="new 0 0 453.544 453.543"
	 xml:space="preserve">
<g id="kvadrat">
</g>
<g id="bg" display="none">
	<rect x="-11037.685" y="-7888.403" display="inline" width="15266.867" height="13678.951"/>
</g>
<g id="barvno" display="none">
	<g display="inline">
		
			<circle fill="#84D7CE" stroke="#000000" stroke-width="20" stroke-linecap="round" stroke-linejoin="round" stroke-miterlimit="10" cx="226.771" cy="226.771" r="113.386"/>
		<circle cx="226.771" cy="226.771" r="29.901"/>
	</g>
	<g id="rde훾a7bela" display="inline">
	</g>
	
		<rect x="-11547.97" y="-8308.412" display="inline" fill="none" stroke="#000000" stroke-miterlimit="10" width="16736" height="13952"/>
</g>
<g id="barvno_copy_2">
	<g>
		
			<circle fill="#0000FF" stroke="#FFFF00" stroke-width="20" stroke-linecap="round" stroke-linejoin="round" stroke-miterlimit="10" cx="226.771" cy="226.771" r="113.386"/>
		<circle fill="#FFFF00" cx="226.771" cy="226.771" r="29.901"/>
	</g>
	<g id="rde훾a7bela_copy_4">
	</g>
	<rect x="-11547.97" y="-8308.412" fill="none" stroke="#000000" stroke-miterlimit="10" width="16736" height="13952"/>
</g>
<g id="sivinsko" display="none">
	<g display="inline">
		<g>
			<circle fill="#BDBDBD" cx="226.771" cy="226.771" r="113.386"/>
			<path d="M226.771,350.157c-68.034,0-123.385-55.351-123.385-123.386s55.351-123.386,123.385-123.386
				c68.036,0,123.387,55.351,123.387,123.386S294.807,350.157,226.771,350.157z M226.771,123.386
				c-57.007,0-103.385,46.379-103.385,103.386s46.378,103.386,103.385,103.386c57.008,0,103.387-46.379,103.387-103.386
				S283.778,123.386,226.771,123.386z"/>
		</g>
		<circle cx="226.771" cy="226.771" r="29.901"/>
	</g>
	<g id="rde훾a7bela_copy_3" display="inline">
	</g>
	<path display="inline" d="M5188.53,5644.088h-16737v-13953h16737V5644.088z M-11547.97,5643.088h16736l-0.5-13951h-16735.5
		l0.5,13951H-11547.97z"/>
</g>
<g id="linijsko" display="none">
	<g display="inline">
		
			<circle fill="none" stroke="#000000" stroke-width="10" stroke-linecap="round" stroke-linejoin="round" stroke-miterlimit="10" cx="226.771" cy="226.771" r="113.386"/>
		<circle cx="226.771" cy="226.771" r="29.901"/>
	</g>
	<g id="rde훾a7bela_copy" display="inline">
	</g>
</g>
<g id="pivot">
</g>
</svg>
