<?xml version="1.0" encoding="utf-8"?>
<!-- Generator: Adobe Illustrator 16.0.0, SVG Export Plug-In . SVG Version: 6.00 Build 0)  -->
<!DOCTYPE svg PUBLIC "-//W3C//DTD SVG 1.1//EN" "http://www.w3.org/Graphics/SVG/1.1/DTD/svg11.dtd">
<svg version="1.1" xmlns="http://www.w3.org/2000/svg" xmlns:xlink="http://www.w3.org/1999/xlink" x="0px" y="0px"
	 width="453.543px" height="453.543px" viewBox="0 0 453.543 453.543" enable-background="new 0 0 453.543 453.543"
	 xml:space="preserve">
<g id="kvadrat">
</g>
<g id="bg" display="none">
	<rect x="-5935.322" y="-7888.403" display="inline" width="15266.867" height="13678.951"/>
</g>
<g id="barvno" display="none">
	
		<circle display="inline" stroke="#000000" stroke-width="8" stroke-linecap="round" stroke-linejoin="round" stroke-miterlimit="10" cx="226.772" cy="226.771" r="102.208"/>
	<g id="rde훾a7bela" display="inline">
	</g>
	
		<rect x="-6445.607" y="-8308.412" display="inline" fill="none" stroke="#000000" stroke-miterlimit="10" width="16736" height="13952"/>
</g>
<g id="barvno_copy_2">
	
		<circle fill="#0000FF" stroke="#000000" stroke-width="8" stroke-linecap="round" stroke-linejoin="round" stroke-miterlimit="10" cx="226.772" cy="226.771" r="102.208"/>
	<g id="rde훾a7bela_copy_4">
	</g>
	<rect x="-6445.607" y="-8308.412" fill="none" stroke="#000000" stroke-miterlimit="10" width="16736" height="13952"/>
</g>
<g id="sivinsko" display="none">
	<g display="inline">
		<circle cx="226.772" cy="226.771" r="102.208"/>
		<path d="M226.771,332.979c-58.563,0-106.208-47.645-106.208-106.207s47.645-106.207,106.208-106.207
			c58.563,0,106.208,47.645,106.208,106.207S285.335,332.979,226.771,332.979z M226.771,128.564
			c-54.152,0-98.208,44.056-98.208,98.207s44.056,98.207,98.208,98.207s98.208-44.056,98.208-98.207
			S280.923,128.564,226.771,128.564z"/>
	</g>
	<g id="rde훾a7bela_copy_3" display="inline">
	</g>
	<path display="inline" d="M10290.893,5644.088h-16737v-13953h16737V5644.088z M-6445.607,5643.088h16736l-0.5-13951h-16735.5
		l0.5,13951H-6445.607z"/>
</g>
<g id="linijsko" display="none">
	
		<circle display="inline" stroke="#000000" stroke-width="8" stroke-linecap="round" stroke-linejoin="round" stroke-miterlimit="10" cx="226.772" cy="226.771" r="102.208"/>
	<g id="rde훾a7bela_copy" display="inline">
	</g>
</g>
<g id="pivot">
	<circle fill="none" cx="214.978" cy="340.48" r="14.133"/>
</g>
</svg>
