<?xml version="1.0" encoding="utf-8"?>
<!-- Generator: Adobe Illustrator 16.0.0, SVG Export Plug-In . SVG Version: 6.00 Build 0)  -->
<!DOCTYPE svg PUBLIC "-//W3C//DTD SVG 1.1//EN" "http://www.w3.org/Graphics/SVG/1.1/DTD/svg11.dtd">
<svg version="1.1" xmlns="http://www.w3.org/2000/svg" xmlns:xlink="http://www.w3.org/1999/xlink" x="0px" y="0px"
	 width="453.543px" height="453.543px" viewBox="0 0 453.543 453.543" enable-background="new 0 0 453.543 453.543"
	 xml:space="preserve">
<g id="kvadrat">
</g>
<g id="bg" display="none">
	<rect x="-6955.794" y="-7888.403" display="inline" width="15266.867" height="13678.951"/>
</g>
<g id="barvno" display="none">
	
		<rect x="124.565" y="124.564" display="inline" stroke="#000000" stroke-width="8" stroke-linecap="round" stroke-linejoin="round" stroke-miterlimit="10" width="204.414" height="204.414"/>
	<g id="rde훾a7bela" display="inline">
	</g>
	
		<rect x="-7466.08" y="-8308.412" display="inline" fill="none" stroke="#000000" stroke-miterlimit="10" width="16736" height="13952"/>
</g>
<g id="barvno_copy_2">
	
		<rect x="124.565" y="124.564" fill="#0000FF" stroke="#000000" stroke-width="8" stroke-linecap="round" stroke-linejoin="round" stroke-miterlimit="10" width="204.414" height="204.414"/>
	<g id="rde훾a7bela_copy_4">
	</g>
	<rect x="-7466.08" y="-8308.412" fill="none" stroke="#000000" stroke-miterlimit="10" width="16736" height="13952"/>
</g>
<g id="sivinsko" display="none">
	<g display="inline">
		<rect x="124.565" y="124.564" width="204.414" height="204.414"/>
		<path d="M328.979,332.979H124.565c-2.209,0-4-1.791-4-4V124.564c0-2.209,1.791-4,4-4h204.414c2.209,0,4,1.791,4,4v204.414
			C332.979,331.188,331.188,332.979,328.979,332.979z M128.565,324.979h196.414V128.564H128.565V324.979z"/>
	</g>
	<g id="rde훾a7bela_copy_3" display="inline">
	</g>
	<path display="inline" d="M9270.42,5644.088h-16737v-13953h16737V5644.088z M-7466.08,5643.088h16736l-0.5-13951h-16735.5
		l0.5,13951H-7466.08z"/>
</g>
<g id="linijsko" display="none">
	
		<rect x="124.565" y="124.564" display="inline" stroke="#000000" stroke-width="8" stroke-linecap="round" stroke-linejoin="round" stroke-miterlimit="10" width="204.414" height="204.414"/>
	<g id="rde훾a7bela_copy" display="inline">
	</g>
</g>
<g id="pivot">
	<circle fill="none" cx="223.326" cy="337.971" r="14.133"/>
</g>
</svg>
