<?xml version="1.0" encoding="utf-8"?>
<!-- Generator: Adobe Illustrator 16.0.0, SVG Export Plug-In . SVG Version: 6.00 Build 0)  -->
<!DOCTYPE svg PUBLIC "-//W3C//DTD SVG 1.1//EN" "http://www.w3.org/Graphics/SVG/1.1/DTD/svg11.dtd">
<svg version="1.1" xmlns="http://www.w3.org/2000/svg" xmlns:xlink="http://www.w3.org/1999/xlink" x="0px" y="0px"
	 width="453.545px" height="453.543px" viewBox="0 0 453.545 453.543" enable-background="new 0 0 453.545 453.543"
	 xml:space="preserve">
<g id="kvadrat">
</g>
<g id="bg" display="none">
	<rect x="-13588.865" y="-7888.403" display="inline" width="15266.867" height="13678.951"/>
</g>
<g id="barvno" display="none">
	
		<polygon display="inline" fill="#84D7CE" stroke="#000000" stroke-width="20" stroke-linecap="round" stroke-linejoin="round" stroke-miterlimit="10" points="
		160.354,328.979 119.305,202.644 226.773,124.564 334.24,202.644 293.191,328.979 	"/>
	<g id="rde훾a7bela" display="inline">
	</g>
	
		<rect x="-14099.15" y="-8308.412" display="inline" fill="none" stroke="#000000" stroke-miterlimit="10" width="16736" height="13952"/>
</g>
<g id="barvno_copy_2">
	
		<polygon fill="#FFFF00" stroke="#000000" stroke-width="20" stroke-linecap="round" stroke-linejoin="round" stroke-miterlimit="10" points="
		160.354,328.979 119.305,202.644 226.773,124.564 334.24,202.644 293.191,328.979 	"/>
	<g id="rde훾a7bela_copy_4">
	</g>
	<rect x="-14099.15" y="-8308.412" fill="none" stroke="#000000" stroke-miterlimit="10" width="16736" height="13952"/>
</g>
<g id="sivinsko" display="none">
	<g display="inline">
		<polygon fill="#BDBDBD" points="160.354,328.979 119.305,202.644 226.773,124.564 334.24,202.644 293.191,328.979 		"/>
		<path d="M293.191,338.979H160.354c-4.332,0-8.172-2.79-9.511-6.91l-41.049-126.335c-1.339-4.12,0.128-8.634,3.633-11.18
			l107.468-78.079c3.504-2.547,8.251-2.547,11.756,0l107.468,78.079c3.505,2.546,4.972,7.06,3.633,11.18l-41.049,126.335
			C301.363,336.188,297.523,338.979,293.191,338.979z M167.619,318.979h118.307l36.559-112.516l-95.711-69.538l-95.713,69.538
			L167.619,318.979z"/>
	</g>
	<g id="rde훾a7bela_copy_3" display="inline">
	</g>
	<path display="inline" d="M2637.35,5644.088h-16737v-13953h16737V5644.088z M-14099.15,5643.088h16736l-0.5-13951h-16735.5
		l0.5,13951H-14099.15z"/>
</g>
<g id="linijsko" display="none">
	
		<polygon display="inline" fill="none" stroke="#000000" stroke-width="10" stroke-linecap="round" stroke-linejoin="round" stroke-miterlimit="10" points="
		160.354,328.979 119.305,202.644 226.773,124.564 334.24,202.644 293.191,328.979 	"/>
	<g id="rde훾a7bela_copy" display="inline">
	</g>
</g>
<g id="pivot">
</g>
</svg>
