<?xml version="1.0" encoding="utf-8"?>
<!-- Generator: Adobe Illustrator 16.0.0, SVG Export Plug-In . SVG Version: 6.00 Build 0)  -->
<!DOCTYPE svg PUBLIC "-//W3C//DTD SVG 1.1//EN" "http://www.w3.org/Graphics/SVG/1.1/DTD/svg11.dtd">
<svg version="1.1" xmlns="http://www.w3.org/2000/svg" xmlns:xlink="http://www.w3.org/1999/xlink" x="0px" y="0px"
	 width="453.544px" height="453.543px" viewBox="0 0 453.544 453.543" enable-background="new 0 0 453.544 453.543"
	 xml:space="preserve">
<g id="kvadrat">
</g>
<g id="bg" display="none">
	<rect x="-8996.739" y="-8398.64" display="inline" width="15266.867" height="13678.951"/>
</g>
<g id="barvno" display="none">
	
		<polygon display="inline" fill="#84D7CE" stroke="#000000" stroke-width="20" stroke-linecap="round" stroke-linejoin="round" stroke-miterlimit="10" points="
		160.354,328.979 119.305,202.645 226.772,124.564 334.239,202.645 293.19,328.979 	"/>
	<g id="rde훾a7bela" display="inline">
	</g>
	<g display="inline">
		
			<line fill="#84D7CE" stroke="#000000" stroke-width="20" stroke-linecap="round" stroke-linejoin="round" stroke-miterlimit="10" x1="128.927" y1="203.771" x2="324.615" y2="203.771"/>
	</g>
	<g display="inline">
		
			<line fill="#84D7CE" stroke="#000000" stroke-width="20" stroke-linecap="round" stroke-linejoin="round" stroke-miterlimit="10" x1="226.772" y1="133.988" x2="226.772" y2="319.555"/>
	</g>
	
		<rect x="-9507.024" y="-8818.648" display="inline" fill="none" stroke="#000000" stroke-miterlimit="10" width="16736" height="13952"/>
</g>
<g id="barvno_copy_2">
	
		<polygon fill="#0000FF" stroke="#FFFF00" stroke-width="20" stroke-linecap="round" stroke-linejoin="round" stroke-miterlimit="10" points="
		160.354,328.979 119.305,202.645 226.772,124.564 334.239,202.645 293.19,328.979 	"/>
	<g id="rde훾a7bela_copy_4">
	</g>
	<g>
		
			<line fill="#0000FF" stroke="#FFFF00" stroke-width="20" stroke-linecap="round" stroke-linejoin="round" stroke-miterlimit="10" x1="128.927" y1="203.771" x2="324.615" y2="203.771"/>
	</g>
	<g>
		
			<line fill="#0000FF" stroke="#FFFF00" stroke-width="20" stroke-linecap="round" stroke-linejoin="round" stroke-miterlimit="10" x1="226.772" y1="133.988" x2="226.772" y2="319.555"/>
	</g>
	<rect x="-9507.024" y="-8818.648" fill="none" stroke="#000000" stroke-miterlimit="10" width="16736" height="13952"/>
</g>
<g id="sivinsko" display="none">
	<g display="inline">
		<polygon fill="#BDBDBD" points="160.354,328.979 119.305,202.645 226.772,124.564 334.239,202.645 293.19,328.979 		"/>
		<path d="M293.19,338.979H160.354c-4.332,0-8.172-2.79-9.511-6.91l-41.049-126.334c-1.339-4.12,0.128-8.634,3.633-11.18
			l107.468-78.08c3.506-2.547,8.25-2.547,11.756,0l107.467,78.08c3.505,2.546,4.972,7.06,3.633,11.18l-41.049,126.334
			C301.362,336.188,297.522,338.979,293.19,338.979z M167.619,318.979h118.306l36.559-112.515l-95.711-69.539l-95.712,69.539
			L167.619,318.979z"/>
	</g>
	<g id="rde훾a7bela_copy_3" display="inline">
	</g>
	<g display="inline">
		<g>
			<line fill="#BDBDBD" x1="128.927" y1="203.771" x2="324.615" y2="203.771"/>
			<path d="M324.615,213.771H128.927c-5.522,0-10-4.478-10-10s4.478-10,10-10h195.688c5.522,0,10,4.478,10,10
				S330.138,213.771,324.615,213.771z"/>
		</g>
	</g>
	<g display="inline">
		<g>
			<line fill="#BDBDBD" x1="226.772" y1="133.988" x2="226.772" y2="319.555"/>
			<path d="M226.772,329.555c-5.522,0-10-4.478-10-10V133.988c0-5.522,4.478-10,10-10s10,4.478,10,10v185.566
				C236.772,325.077,232.295,329.555,226.772,329.555z"/>
		</g>
	</g>
	<path display="inline" d="M7229.476,5133.852h-16737v-13953h16737V5133.852z M-9507.024,5132.852h16736l-0.5-13951h-16735.5
		l0.5,13951H-9507.024z"/>
</g>
<g id="linijsko" display="none">
	<g id="rde훾a7bela_copy" display="inline">
	</g>
	<g display="inline">
		
			<line fill="none" stroke="#000000" stroke-width="10" stroke-linecap="round" stroke-linejoin="round" stroke-miterlimit="10" x1="128.927" y1="203.771" x2="324.615" y2="203.771"/>
	</g>
	<g display="inline">
		
			<polygon fill="none" stroke="#000000" stroke-width="10" stroke-linecap="round" stroke-linejoin="round" stroke-miterlimit="10" points="
			160.354,328.979 119.305,202.645 226.772,124.564 334.239,202.645 293.19,328.979 		"/>
		
			<line fill="none" stroke="#000000" stroke-width="10" stroke-linecap="round" stroke-linejoin="round" stroke-miterlimit="10" x1="226.772" y1="133.988" x2="226.772" y2="319.555"/>
	</g>
</g>
<g id="pivot">
	<circle fill="none" cx="227.587" cy="326.227" r="14.133"/>
</g>
</svg>
