<?xml version="1.0" encoding="utf-8"?>
<!-- Generator: Adobe Illustrator 16.0.0, SVG Export Plug-In . SVG Version: 6.00 Build 0)  -->
<!DOCTYPE svg PUBLIC "-//W3C//DTD SVG 1.1//EN" "http://www.w3.org/Graphics/SVG/1.1/DTD/svg11.dtd">
<svg version="1.1" xmlns="http://www.w3.org/2000/svg" xmlns:xlink="http://www.w3.org/1999/xlink" x="0px" y="0px"
	 width="453.543px" height="453.543px" viewBox="0 0 453.543 453.543" enable-background="new 0 0 453.543 453.543"
	 xml:space="preserve">
<g id="kvadrat">
</g>
<g id="bg" display="none">
	<rect x="-5425.085" y="-7888.403" display="inline" width="15266.867" height="13678.951"/>
</g>
<g id="barvno" display="none">
	
		<polygon display="inline" stroke="#000000" stroke-width="8" stroke-linecap="round" stroke-linejoin="round" stroke-miterlimit="10" points="
		167.762,328.979 108.752,226.771 167.762,124.564 285.782,124.564 344.792,226.771 285.782,328.979 	"/>
	<g id="rde훾a7bela" display="inline">
	</g>
	
		<rect x="-5935.371" y="-8308.412" display="inline" fill="none" stroke="#000000" stroke-miterlimit="10" width="16736" height="13952"/>
</g>
<g id="barvno_copy_2">
	
		<polygon fill="#0000FF" stroke="#000000" stroke-width="8" stroke-linecap="round" stroke-linejoin="round" stroke-miterlimit="10" points="
		167.762,328.979 108.752,226.771 167.762,124.564 285.782,124.564 344.792,226.771 285.782,328.979 	"/>
	<g id="rde훾a7bela_copy_4">
	</g>
	<rect x="-5935.371" y="-8308.412" fill="none" stroke="#000000" stroke-miterlimit="10" width="16736" height="13952"/>
</g>
<g id="sivinsko" display="none">
	<g display="inline">
		<polygon points="167.762,328.979 108.752,226.771 167.762,124.564 285.782,124.564 344.792,226.771 285.782,328.979 		"/>
		<path d="M285.782,332.979h-118.02c-1.429,0-2.75-0.763-3.464-2l-59.01-102.207c-0.715-1.237-0.715-2.763,0-4l59.01-102.207
			c0.714-1.237,2.035-2,3.464-2h118.02c1.429,0,2.75,0.763,3.464,2l59.01,102.207c0.715,1.237,0.715,2.763,0,4l-59.01,102.207
			C288.531,332.216,287.211,332.979,285.782,332.979z M170.072,324.979h113.4l56.701-98.207l-56.701-98.207h-113.4l-56.701,98.207
			L170.072,324.979z"/>
	</g>
	<g id="rde훾a7bela_copy_3" display="inline">
	</g>
	<path display="inline" d="M10801.129,5644.088h-16737v-13953h16737V5644.088z M-5935.371,5643.088h16736l-0.5-13951h-16735.5
		l0.5,13951H-5935.371z"/>
</g>
<g id="linijsko" display="none">
	
		<polygon display="inline" stroke="#000000" stroke-width="8" stroke-linecap="round" stroke-linejoin="round" stroke-miterlimit="10" points="
		167.762,328.979 108.752,226.771 167.762,124.564 285.782,124.564 344.792,226.771 285.782,328.979 	"/>
	<g id="rde훾a7bela_copy" display="inline">
	</g>
</g>
<g id="pivot">
	<circle fill="none" cx="220.823" cy="335.462" r="14.133"/>
</g>
</svg>
