<?xml version="1.0" encoding="utf-8"?>
<!-- Generator: Adobe Illustrator 16.0.0, SVG Export Plug-In . SVG Version: 6.00 Build 0)  -->
<!DOCTYPE svg PUBLIC "-//W3C//DTD SVG 1.1//EN" "http://www.w3.org/Graphics/SVG/1.1/DTD/svg11.dtd">
<svg version="1.1" xmlns="http://www.w3.org/2000/svg" xmlns:xlink="http://www.w3.org/1999/xlink" x="0px" y="0px"
	 width="453.544px" height="453.543px" viewBox="0 0 453.544 453.543" enable-background="new 0 0 453.544 453.543"
	 xml:space="preserve">
<g id="kvadrat">
</g>
<g id="bg" display="none">
	<rect x="-11037.685" y="-8398.64" display="inline" width="15266.867" height="13678.951"/>
</g>
<g id="barvno" display="none">
	<g id="rde훾a7bela" display="inline">
	</g>
	<g display="inline">
		
			<polygon fill="#84D7CE" stroke="#000000" stroke-width="20" stroke-linecap="round" stroke-linejoin="round" stroke-miterlimit="10" points="
			167.763,328.979 108.753,226.771 167.763,124.564 285.782,124.564 344.792,226.771 285.782,328.979 		"/>
		
			<line fill="#84D7CE" stroke="#000000" stroke-width="20" stroke-linecap="round" stroke-linejoin="round" stroke-miterlimit="10" x1="341.175" y1="226.771" x2="112.37" y2="226.771"/>
	</g>
	
		<rect x="-11547.97" y="-8818.648" display="inline" fill="none" stroke="#000000" stroke-miterlimit="10" width="16736" height="13952"/>
</g>
<g id="barvno_copy_2">
	<g id="rde훾a7bela_copy_4">
	</g>
	<g>
		
			<polygon fill="#0000FF" stroke="#FFFF00" stroke-width="20" stroke-linecap="round" stroke-linejoin="round" stroke-miterlimit="10" points="
			167.763,328.979 108.753,226.771 167.763,124.564 285.782,124.564 344.792,226.771 285.782,328.979 		"/>
		
			<line fill="#0000FF" stroke="#FFFF00" stroke-width="20" stroke-linecap="round" stroke-linejoin="round" stroke-miterlimit="10" x1="341.175" y1="226.771" x2="112.37" y2="226.771"/>
	</g>
	<rect x="-11547.97" y="-8818.648" fill="none" stroke="#000000" stroke-miterlimit="10" width="16736" height="13952"/>
</g>
<g id="sivinsko" display="none">
	<g id="rde훾a7bela_copy_3" display="inline">
	</g>
	<g display="inline">
		<g>
			<polygon fill="#BDBDBD" points="167.763,328.979 108.753,226.771 167.763,124.564 285.782,124.564 344.792,226.771 
				285.782,328.979 			"/>
			<path d="M285.782,338.979h-118.02c-3.572,0-6.874-1.906-8.66-5l-59.01-102.207c-1.786-3.094-1.786-6.906,0-10l59.01-102.207
				c1.786-3.094,5.088-5,8.66-5h118.02c3.572,0,6.874,1.906,8.66,5l59.01,102.207c1.786,3.094,1.786,6.906,0,10l-59.01,102.207
				C292.656,337.072,289.354,338.979,285.782,338.979z M173.536,318.979h106.473l53.236-92.207l-53.236-92.207H173.536
				L120.3,226.771L173.536,318.979z"/>
		</g>
		<g>
			<line fill="#BDBDBD" x1="341.175" y1="226.771" x2="112.37" y2="226.771"/>
			<path d="M341.175,236.771H112.37c-5.522,0-10-4.478-10-10s4.478-10,10-10h228.805c5.522,0,10,4.478,10,10
				S346.697,236.771,341.175,236.771z"/>
		</g>
	</g>
	<path display="inline" d="M5188.53,5133.852h-16737v-13953h16737V5133.852z M-11547.97,5132.852h16736l-0.5-13951h-16735.5
		l0.5,13951H-11547.97z"/>
</g>
<g id="linijsko" display="none">
	<g id="rde훾a7bela_copy" display="inline">
	</g>
	<g display="inline">
		
			<polygon fill="none" stroke="#000000" stroke-width="10" stroke-linecap="round" stroke-linejoin="round" stroke-miterlimit="10" points="
			167.763,328.979 108.753,226.771 167.763,124.564 285.782,124.564 344.792,226.771 285.782,328.979 		"/>
		
			<line fill="none" stroke="#000000" stroke-width="10" stroke-linecap="round" stroke-linejoin="round" stroke-miterlimit="10" x1="341.175" y1="226.771" x2="112.37" y2="226.771"/>
	</g>
</g>
<g id="pivot">
	<circle fill="none" cx="224.282" cy="326.227" r="14.133"/>
</g>
</svg>
