<?xml version="1.0" encoding="utf-8"?>
<!-- Generator: Adobe Illustrator 16.0.0, SVG Export Plug-In . SVG Version: 6.00 Build 0)  -->
<!DOCTYPE svg PUBLIC "-//W3C//DTD SVG 1.1//EN" "http://www.w3.org/Graphics/SVG/1.1/DTD/svg11.dtd">
<svg version="1.1" xmlns="http://www.w3.org/2000/svg" xmlns:xlink="http://www.w3.org/1999/xlink" x="0px" y="0px"
	 width="453.543px" height="453.543px" viewBox="0 0 453.543 453.543" enable-background="new 0 0 453.543 453.543"
	 xml:space="preserve">
<g id="kvadrat">
</g>
<g id="bg" display="none">
	<rect x="-3384.14" y="-8398.64" display="inline" width="15266.867" height="13678.951"/>
</g>
<g id="barvno" display="none">
	<g id="rde훾a7bela" display="inline">
	</g>
	<g display="inline">
		
			<polygon fill="#84D7CE" stroke="#000000" stroke-width="20" stroke-linecap="round" stroke-linejoin="round" stroke-miterlimit="10" points="
			226.771,124.564 285.781,226.771 344.791,328.979 226.771,328.979 108.753,328.979 167.762,226.771 		"/>
		
			<line fill="#84D7CE" stroke="#000000" stroke-width="20" stroke-linecap="round" stroke-linejoin="round" stroke-miterlimit="10" x1="226.772" y1="133.988" x2="226.772" y2="319.555"/>
	</g>
	
		<rect x="-3894.425" y="-8818.648" display="inline" fill="none" stroke="#000000" stroke-miterlimit="10" width="16736" height="13952"/>
</g>
<g id="barvno_copy_2">
	<g id="rde훾a7bela_copy_4">
	</g>
	<g>
		
			<polygon fill="#0000FF" stroke="#FFFF00" stroke-width="20" stroke-linecap="round" stroke-linejoin="round" stroke-miterlimit="10" points="
			226.771,124.564 285.781,226.771 344.791,328.979 226.771,328.979 108.753,328.979 167.762,226.771 		"/>
		
			<line fill="#0000FF" stroke="#FFFF00" stroke-width="20" stroke-linecap="round" stroke-linejoin="round" stroke-miterlimit="10" x1="226.772" y1="133.988" x2="226.772" y2="319.555"/>
	</g>
	<rect x="-3894.425" y="-8818.648" fill="none" stroke="#000000" stroke-miterlimit="10" width="16736" height="13952"/>
</g>
<g id="sivinsko" display="none">
	<g id="rde훾a7bela_copy_3" display="inline">
	</g>
	<g display="inline">
		<g>
			<polygon fill="#BDBDBD" points="226.771,124.564 285.781,226.771 344.791,328.979 226.771,328.979 108.753,328.979 
				167.762,226.771 			"/>
			<path d="M344.811,338.979c-0.008,0-0.014,0-0.02,0H108.753c-3.573,0-6.874-1.906-8.66-5c-1.787-3.094-1.787-6.906,0-10
				l118.019-204.414c1.786-3.094,5.087-5,8.66-5s6.874,1.906,8.66,5l117.721,203.897c1.048,1.581,1.658,3.478,1.658,5.517
				C354.811,334.501,350.333,338.979,344.811,338.979z M126.073,318.979H327.47L226.771,144.564L126.073,318.979z"/>
		</g>
		<g>
			<line fill="#BDBDBD" x1="226.772" y1="133.988" x2="226.772" y2="319.555"/>
			<path d="M226.772,329.555c-5.523,0-10-4.478-10-10V133.988c0-5.522,4.477-10,10-10s10,4.478,10,10v185.566
				C236.772,325.077,232.295,329.555,226.772,329.555z"/>
		</g>
	</g>
	<path display="inline" d="M12842.074,5133.852h-16737v-13953h16737V5133.852z M-3894.425,5132.852h16736l-0.5-13951h-16735.5
		l0.5,13951H-3894.425z"/>
</g>
<g id="linijsko" display="none">
	<g id="rde훾a7bela_copy" display="inline">
	</g>
	<g display="inline">
		
			<polygon fill="none" stroke="#000000" stroke-width="10" stroke-linecap="round" stroke-linejoin="round" stroke-miterlimit="10" points="
			226.771,124.564 285.781,226.771 344.791,328.979 226.771,328.979 108.753,328.979 167.762,226.771 		"/>
		
			<line fill="none" stroke="#000000" stroke-width="10" stroke-linecap="round" stroke-linejoin="round" stroke-miterlimit="10" x1="226.772" y1="133.988" x2="226.772" y2="319.555"/>
	</g>
</g>
<g id="pivot">
	<circle fill="none" cx="224.6" cy="326.227" r="14.133"/>
</g>
</svg>
