<?xml version="1.0" encoding="utf-8"?>
<!-- Generator: Adobe Illustrator 16.0.0, SVG Export Plug-In . SVG Version: 6.00 Build 0)  -->
<!DOCTYPE svg PUBLIC "-//W3C//DTD SVG 1.1//EN" "http://www.w3.org/Graphics/SVG/1.1/DTD/svg11.dtd">
<svg version="1.1" xmlns="http://www.w3.org/2000/svg" xmlns:xlink="http://www.w3.org/1999/xlink" x="0px" y="0px"
	 width="1836.695px" height="6.237px" viewBox="0 0 1836.695 6.237" enable-background="new 0 0 1836.695 6.237"
	 xml:space="preserve">
<g id="Layer_6">
</g>
<g id="gb">
</g>
<g id="mreza">
</g>
<g id="Layer_1">
</g>
<g id="glava">
	<g>
		<rect fill="#35A8DF" width="6.237" height="6.237"/>
		<rect x="15.382" fill="#203341" width="6.237" height="6.237"/>
		<rect x="30.763" fill="#32BCAD" width="6.238" height="6.237"/>
		<rect x="46.146" fill="#FBD639" width="6.238" height="6.237"/>
		<rect x="61.527" fill="#35A8DF" width="6.238" height="6.237"/>
		<rect x="76.909" fill="#203341" width="6.238" height="6.237"/>
		<rect x="92.291" fill="#32BCAD" width="6.238" height="6.237"/>
		<rect x="107.674" fill="#FBD639" width="6.237" height="6.237"/>
		<rect x="123.056" fill="#35A8DF" width="6.237" height="6.237"/>
		<rect x="138.438" fill="#203341" width="6.237" height="6.237"/>
		<rect x="153.819" fill="#32BCAD" width="6.237" height="6.237"/>
		<rect x="169.201" fill="#FBD639" width="6.238" height="6.237"/>
		<rect x="184.584" fill="#35A8DF" width="6.237" height="6.237"/>
		<rect x="199.966" fill="#203341" width="6.237" height="6.237"/>
		<rect x="215.348" fill="#32BCAD" width="6.237" height="6.237"/>
		<rect x="230.729" fill="#FBD639" width="6.238" height="6.237"/>
		<rect x="246.111" fill="#35A8DF" width="6.238" height="6.237"/>
		<rect x="261.494" fill="#203341" width="6.236" height="6.237"/>
		<rect x="276.875" fill="#32BCAD" width="6.238" height="6.237"/>
		<rect x="292.258" fill="#FBD639" width="6.236" height="6.237"/>
		<rect x="307.64" fill="#35A8DF" width="6.238" height="6.237"/>
		<rect x="323.021" fill="#203341" width="6.237" height="6.237"/>
		<rect x="338.403" fill="#32BCAD" width="6.238" height="6.237"/>
		<rect x="353.785" fill="#FBD639" width="6.238" height="6.237"/>
		<rect x="369.168" fill="#35A8DF" width="6.237" height="6.237"/>
		<rect x="384.55" fill="#203341" width="6.237" height="6.237"/>
		<rect x="399.932" fill="#32BCAD" width="6.237" height="6.237"/>
		<rect x="415.314" fill="#FBD639" width="6.236" height="6.237"/>
		<rect x="430.696" fill="#35A8DF" width="6.237" height="6.237"/>
		<rect x="446.077" fill="#203341" width="6.238" height="6.237"/>
		<rect x="461.46" fill="#32BCAD" width="6.237" height="6.237"/>
		<rect x="476.841" fill="#FBD639" width="6.238" height="6.237"/>
		<rect x="492.224" fill="#35A8DF" width="6.237" height="6.237"/>
		<rect x="507.605" fill="#203341" width="6.238" height="6.237"/>
		<rect x="522.988" fill="#32BCAD" width="6.236" height="6.237"/>
		<rect x="538.369" fill="#FBD639" width="6.238" height="6.237"/>
		<rect x="553.751" fill="#35A8DF" width="6.237" height="6.237"/>
		<rect x="569.133" fill="#203341" width="6.238" height="6.237"/>
		<rect x="584.516" fill="#32BCAD" width="6.237" height="6.237"/>
		<rect x="599.897" fill="#FBD639" width="6.238" height="6.237"/>
		<rect x="615.279" fill="#35A8DF" width="6.238" height="6.237"/>
		<rect x="630.662" fill="#203341" width="6.237" height="6.237"/>
		<rect x="646.043" fill="#32BCAD" width="6.238" height="6.237"/>
		<rect x="661.426" fill="#FBD639" width="6.236" height="6.237"/>
		<rect x="676.807" fill="#35A8DF" width="6.238" height="6.237"/>
		<rect x="692.19" fill="#203341" width="6.236" height="6.237"/>
		<rect x="707.571" fill="#32BCAD" width="6.238" height="6.237"/>
		<rect x="722.954" fill="#FBD639" width="6.236" height="6.237"/>
		<rect x="738.336" fill="#35A8DF" width="6.238" height="6.237"/>
		<rect x="753.717" fill="#203341" width="6.238" height="6.237"/>
		<rect x="769.1" fill="#32BCAD" width="6.238" height="6.237"/>
		<rect x="784.48" fill="#FBD639" width="6.238" height="6.237"/>
		<rect x="799.864" fill="#35A8DF" width="6.236" height="6.237"/>
		<rect x="815.245" fill="#203341" width="6.238" height="6.237"/>
		<rect x="830.628" fill="#32BCAD" width="6.236" height="6.237"/>
		<rect x="846.009" fill="#FBD639" width="6.238" height="6.237"/>
		<rect x="861.392" fill="#35A8DF" width="6.237" height="6.237"/>
		<rect x="876.773" fill="#203341" width="6.238" height="6.237"/>
		<rect x="892.155" fill="#32BCAD" width="6.237" height="6.237"/>
		<rect x="907.537" fill="#FBD639" width="6.238" height="6.237"/>
		<rect x="922.92" fill="#35A8DF" width="6.236" height="6.237"/>
		<rect x="938.301" fill="#203341" width="6.238" height="6.237"/>
		<rect x="953.684" fill="#32BCAD" width="6.237" height="6.237"/>
		<rect x="969.065" fill="#FBD639" width="6.238" height="6.237"/>
		<rect x="984.447" fill="#35A8DF" width="6.237" height="6.237"/>
		<rect x="999.829" fill="#203341" width="6.238" height="6.237"/>
		<rect x="1015.211" fill="#32BCAD" width="6.237" height="6.237"/>
		<rect x="1030.594" fill="#FBD639" width="6.237" height="6.237"/>
		<rect x="1045.976" fill="#35A8DF" width="6.237" height="6.237"/>
		<rect x="1061.357" fill="#203341" width="6.237" height="6.237"/>
		<rect x="1076.739" fill="#32BCAD" width="6.237" height="6.237"/>
		<rect x="1092.122" fill="#FBD639" width="6.237" height="6.237"/>
		<rect x="1107.503" fill="#35A8DF" width="6.238" height="6.237"/>
		<rect x="1122.886" fill="#203341" width="6.237" height="6.237"/>
		<rect x="1138.267" fill="#32BCAD" width="6.238" height="6.237"/>
		<rect x="1153.649" fill="#FBD639" width="6.237" height="6.237"/>
		<rect x="1169.031" fill="#35A8DF" width="6.238" height="6.237"/>
		<rect x="1184.414" fill="#203341" width="6.236" height="6.237"/>
		<rect x="1199.795" fill="#32BCAD" width="6.238" height="6.237"/>
		<rect x="1215.178" fill="#FBD639" width="6.236" height="6.237"/>
		<rect x="1230.56" fill="#35A8DF" width="6.237" height="6.237"/>
		<rect x="1245.941" fill="#203341" width="6.237" height="6.237"/>
		<rect x="1261.324" fill="#32BCAD" width="6.236" height="6.237"/>
		<rect x="1276.705" fill="#FBD639" width="6.238" height="6.237"/>
		<rect x="1292.088" fill="#35A8DF" width="6.237" height="6.237"/>
		<rect x="1307.469" fill="#203341" width="6.238" height="6.237"/>
		<rect x="1322.852" fill="#32BCAD" width="6.237" height="6.237"/>
		<rect x="1338.232" fill="#FBD639" width="6.238" height="6.237"/>
		<rect x="1353.616" fill="#35A8DF" width="6.236" height="6.237"/>
		<rect x="1368.997" fill="#203341" width="6.238" height="6.237"/>
		<rect x="1384.38" fill="#32BCAD" width="6.236" height="6.237"/>
		<rect x="1399.762" fill="#FBD639" width="6.238" height="6.237"/>
		<rect x="1415.143" fill="#35A8DF" width="6.238" height="6.237"/>
		<rect x="1430.525" fill="#203341" width="6.238" height="6.237"/>
		<rect x="1445.908" fill="#32BCAD" width="6.236" height="6.237"/>
		<rect x="1461.289" fill="#FBD639" width="6.238" height="6.237"/>
		<rect x="1476.67" fill="#35A8DF" width="6.238" height="6.237"/>
		<rect x="1492.053" fill="#203341" width="6.238" height="6.237"/>
		<rect x="1507.435" fill="#32BCAD" width="6.238" height="6.237"/>
		<rect x="1522.817" fill="#FBD639" width="6.238" height="6.237"/>
		<rect x="1538.199" fill="#35A8DF" width="6.238" height="6.237"/>
		<rect x="1553.581" fill="#203341" width="6.237" height="6.237"/>
		<rect x="1568.963" fill="#32BCAD" width="6.238" height="6.237"/>
		<rect x="1584.346" fill="#FBD639" width="6.236" height="6.237"/>
		<rect x="1599.728" fill="#35A8DF" width="6.237" height="6.237"/>
		<rect x="1615.109" fill="#203341" width="6.237" height="6.237"/>
		<rect x="1630.491" fill="#32BCAD" width="6.237" height="6.237"/>
		<rect x="1645.873" fill="#FBD639" width="6.237" height="6.237"/>
		<rect x="1661.256" fill="#35A8DF" width="6.237" height="6.237"/>
		<rect x="1676.637" fill="#203341" width="6.238" height="6.237"/>
		<rect x="1692.02" fill="#32BCAD" width="6.237" height="6.237"/>
		<rect x="1707.4" fill="#FBD639" width="6.238" height="6.237"/>
		<rect x="1722.783" fill="#35A8DF" width="6.236" height="6.237"/>
		<rect x="1738.165" fill="#203341" width="6.238" height="6.237"/>
		<rect x="1753.548" fill="#32BCAD" width="6.236" height="6.237"/>
		<rect x="1768.929" fill="#FBD639" width="6.238" height="6.237"/>
		<rect x="1784.311" fill="#35A8DF" width="6.238" height="6.237"/>
		<rect x="1799.693" fill="#203341" width="6.238" height="6.237"/>
		<rect x="1815.075" fill="#32BCAD" width="6.237" height="6.237"/>
		<rect x="1830.457" fill="#FBD639" width="6.238" height="6.237"/>
	</g>
</g>
<g id="logo" display="none">
</g>
<g id="UČITELJ" display="none">
</g>
</svg>
