<?xml version="1.0" encoding="utf-8"?>
<!-- Generator: Adobe Illustrator 16.0.0, SVG Export Plug-In . SVG Version: 6.00 Build 0)  -->
<!DOCTYPE svg PUBLIC "-//W3C//DTD SVG 1.1//EN" "http://www.w3.org/Graphics/SVG/1.1/DTD/svg11.dtd">
<svg version="1.1" xmlns="http://www.w3.org/2000/svg" xmlns:xlink="http://www.w3.org/1999/xlink" x="0px" y="0px"
	 width="331.477px" height="377.065px" viewBox="0 0 331.477 377.065" enable-background="new 0 0 331.477 377.065"
	 xml:space="preserve">
<g id="Layer_6">
</g>
<g id="gb">
</g>
<g id="mreza">
</g>
<g id="Layer_1">
</g>
<g id="glava">
	<g>
		<g>
			<path fill="#32BCAD" d="M135.929,112.525l-21.18,31.543h21.057l-0.609,4.291h-26.367V144.3l21.361-31.602h-19.104v-4.232h24.842
				V112.525z"/>
			<path fill="#32BCAD" d="M168.036,145.633l-1.221,3.421c-3.112-0.406-5.127-1.681-5.981-4.697
				c-2.197,3.247-5.615,4.697-9.644,4.697c-6.348,0-10.132-3.769-10.132-9.219c0-6.494,5.127-10.031,13.916-10.031h5.249v-2.377
				c0-4.523-2.258-6.263-6.896-6.263c-2.441,0-5.371,0.58-8.667,1.682l-1.282-3.595c3.846-1.392,7.324-2.088,10.864-2.088
				c7.63,0,11.108,3.711,11.108,10.031v14.148C165.351,144.184,166.327,145.054,168.036,145.633z M160.224,140.416v-7.307h-4.577
				c-5.981,0-9.155,2.146-9.155,6.494c0,3.711,2.014,5.741,5.859,5.741C155.829,145.344,158.332,143.663,160.224,140.416z"/>
			<path fill="#32BCAD" d="M195.628,121.571l-17.029,22.671h17.151l-0.61,4.117h-22.339v-3.653l16.968-22.729h-15.564v-4.116h21.424
				V121.571z"/>
			<path fill="#32BCAD" d="M227.796,126.5v21.859h-5.127v-21.164c0-4.696-2.014-6.204-5.311-6.204c-3.783,0-6.348,2.262-8.545,5.624
				v21.744h-5.127V117.86h4.395l0.428,4.639c2.319-3.189,5.737-5.335,10.07-5.335C224.438,117.164,227.796,120.701,227.796,126.5z"
				/>
			<path fill="#32BCAD" d="M263.321,145.633l-1.221,3.421c-3.112-0.406-5.127-1.681-5.98-4.697
				c-2.197,3.247-5.615,4.697-9.645,4.697c-6.348,0-10.131-3.769-10.131-9.219c0-6.494,5.127-10.031,13.916-10.031h5.248v-2.377
				c0-4.523-2.258-6.263-6.896-6.263c-2.441,0-5.371,0.58-8.667,1.682l-1.282-3.595c3.846-1.392,7.324-2.088,10.865-2.088
				c7.629,0,11.107,3.711,11.107,10.031v14.148C260.636,144.184,261.612,145.054,263.321,145.633z M255.509,140.416v-7.307h-4.577
				c-5.981,0-9.155,2.146-9.155,6.494c0,3.711,2.014,5.741,5.859,5.741C251.114,145.344,253.617,143.663,255.509,140.416z"/>
			<path fill="#32BCAD" d="M277.485,146.677c0,8.523-3.234,11.017-9.826,13.858l-1.465-3.537c4.211-1.914,6.164-3.421,6.164-10.031
				V117.86h5.127V146.677z M278.584,106.843c0,1.914-1.465,3.363-3.662,3.363c-2.136,0-3.601-1.449-3.601-3.363
				s1.465-3.363,3.601-3.363C277.119,103.48,278.584,104.929,278.584,106.843z"/>
			<path fill="#32BCAD" d="M136.111,171.083l-2.868,3.073c-3.174-2.435-6.104-3.479-9.645-3.479c-4.455,0-7.813,2.029-7.813,5.915
				c0,3.537,1.771,5.219,9.339,7.422c6.897,1.972,12.329,4.522,12.329,12.003c0,6.958-5.493,11.771-14.709,11.771
				c-5.982,0-10.621-1.914-14.1-5.103l2.99-3.189c3.113,2.552,6.409,4.117,11.048,4.117c5.127,0,9.277-2.493,9.277-7.422
				c0-4.117-2.075-5.915-9.277-8.002c-8.239-2.377-12.329-5.334-12.329-11.423c0-5.972,5.371-10.263,13-10.263
				C129.093,166.501,132.693,168.125,136.111,171.083z"/>
			<path fill="#32BCAD" d="M172.309,191.782c0,9.336-4.272,16.004-12.513,16.004c-3.601,0-6.53-1.276-8.545-3.653v14.612
				l-5.127,0.579v-42.733h4.395l0.367,4.232c2.38-3.131,5.798-4.928,9.582-4.928C168.891,175.895,172.309,182.1,172.309,191.782z
				 M166.815,191.782c0-8.117-2.563-12.002-7.568-12.002c-3.54,0-6.226,2.377-7.996,4.87v15.191
				c1.709,2.494,4.273,3.943,7.386,3.943C163.946,203.785,166.815,199.958,166.815,191.782z"/>
			<path fill="#32BCAD" d="M208.079,191.782c0,9.567-5.188,16.004-14.16,16.004c-8.973,0-14.1-6.204-14.1-15.888
				c0-9.567,5.188-16.003,14.16-16.003C203.013,175.895,208.079,182.041,208.079,191.782z M185.313,191.898
				c0,8.06,3.052,11.944,8.606,11.944c5.554,0,8.666-3.885,8.666-12.061c0-8.06-3.051-11.944-8.605-11.944
				C188.486,179.838,185.313,183.723,185.313,191.898z"/>
			<path fill="#32BCAD" d="M236.098,180.302l-17.029,22.672h17.151l-0.61,4.116h-22.339v-3.652l16.968-22.729h-15.564v-4.117h21.424
				V180.302z"/>
			<path fill="#32BCAD" d="M268.266,185.23v21.859h-5.127v-21.164c0-4.696-2.015-6.204-5.31-6.204c-3.785,0-6.348,2.262-8.545,5.625
				v21.743h-5.127v-30.499h4.395l0.427,4.639c2.319-3.189,5.737-5.334,10.071-5.334C264.909,175.895,268.266,179.432,268.266,185.23
				z"/>
			<path fill="#32BCAD" d="M303.792,204.365l-1.221,3.421c-3.113-0.406-5.127-1.682-5.981-4.697
				c-2.197,3.247-5.615,4.697-9.644,4.697c-6.348,0-10.132-3.77-10.132-9.22c0-6.494,5.127-10.031,13.916-10.031h5.249v-2.377
				c0-4.522-2.259-6.263-6.897-6.263c-2.441,0-5.371,0.58-8.667,1.682l-1.281-3.595c3.845-1.392,7.324-2.087,10.864-2.087
				c7.629,0,11.108,3.711,11.108,10.031v14.148C301.106,202.915,302.083,203.785,303.792,204.365z M295.979,199.146v-7.306h-4.578
				c-5.981,0-9.155,2.145-9.155,6.494c0,3.711,2.015,5.74,5.859,5.74C291.585,204.075,294.087,202.394,295.979,199.146z"/>
			<path fill="#32BCAD" d="M317.955,205.408c0,8.524-3.235,11.018-9.827,13.858l-1.465-3.537c4.212-1.913,6.165-3.421,6.165-10.031
				v-29.107h5.127V205.408z M319.054,165.574c0,1.914-1.465,3.363-3.662,3.363c-2.137,0-3.602-1.449-3.602-3.363
				c0-1.913,1.465-3.363,3.602-3.363C317.589,162.211,319.054,163.661,319.054,165.574z"/>
		</g>
		<g>
			<path fill="#35A8DF" d="M194.861,357.881c0,0,0.232-0.009,0.64-0.025c0.406-0.017,0.994-0.03,1.669-0.095
				c1.362-0.106,3.181-0.249,4.997-0.392c0.883-0.049,1.895-0.2,2.785-0.297c0.905-0.106,1.749-0.206,2.473-0.292
				c1.447-0.171,2.412-0.285,2.412-0.285l1.735,14.695c0,0-0.964,0.114-2.411,0.285c-1.472,0.159-3.322,0.425-5.361,0.601
				c-2.057,0.163-4.113,0.327-5.655,0.45c-0.776,0.07-1.403,0.087-1.846,0.105c-0.442,0.018-0.694,0.028-0.694,0.028
				L194.861,357.881z"/>
			<path fill="#203341" d="M158.126,355.763c0,0,0.92,0.145,2.299,0.362c0.69,0.108,1.494,0.236,2.357,0.372
				c0.863,0.121,1.791,0.215,2.715,0.327c1.852,0.2,3.695,0.47,5.089,0.563c1.393,0.107,2.321,0.179,2.321,0.179l-1.156,14.752
				c0,0-1.009-0.078-2.521-0.195c-1.515-0.104-3.52-0.391-5.531-0.61c-1.005-0.123-2.012-0.227-2.951-0.357
				c-0.938-0.147-1.812-0.285-2.562-0.403c-1.499-0.236-2.499-0.394-2.499-0.394L158.126,355.763z"/>
			<path fill="#32BCAD" d="M122.698,345.826c0,0,0.215,0.091,0.591,0.249c0.382,0.143,0.927,0.348,1.581,0.592
				c1.309,0.489,3.053,1.141,4.798,1.792c1.769,0.583,3.538,1.166,4.864,1.603c0.664,0.219,1.217,0.399,1.604,0.527
				c0.386,0.132,0.612,0.187,0.612,0.187l-4.296,14.159c0,0-0.246-0.06-0.666-0.203c-0.42-0.137-1.021-0.334-1.742-0.569
				c-1.441-0.476-3.363-1.11-5.285-1.744c-1.896-0.707-3.792-1.414-5.214-1.944c-0.71-0.268-1.302-0.49-1.716-0.646
				c-0.408-0.171-0.642-0.269-0.642-0.269L122.698,345.826z"/>
			<path fill="#FBD639" d="M90.157,328.536c0,0,3.058,1.988,6.114,3.978c3.357,1.948,6.716,3.896,6.716,3.896l-7.417,12.804
				c0,0-3.364-1.952-6.729-3.904c-3.462-2.242-6.925-4.483-6.925-4.483L90.157,328.536z"/>
			<path fill="#35A8DF" d="M62.08,304.792c0,0,0.158,0.172,0.434,0.472c0.273,0.303,0.668,0.73,1.175,1.211
				c0.997,0.979,2.325,2.282,3.654,3.587c0.667,0.648,1.318,1.314,1.958,1.909c0.653,0.579,1.263,1.12,1.784,1.583
				c1.045,0.928,1.74,1.546,1.74,1.546l-9.784,11.102c0,0-0.756-0.673-1.891-1.681c-0.566-0.505-1.229-1.094-1.937-1.724
				c-0.694-0.646-1.405-1.368-2.131-2.072c-1.444-1.419-2.888-2.837-3.97-3.9c-0.551-0.524-0.979-0.988-1.277-1.317
				c-0.3-0.325-0.472-0.511-0.472-0.511L62.08,304.792z"/>
			<path fill="#203341" d="M39.749,275.553c0,0,0.485,0.794,1.216,1.985c0.363,0.597,0.789,1.292,1.244,2.036
				c0.489,0.724,1.012,1.494,1.533,2.266c1.048,1.539,2.096,3.079,2.881,4.233c0.382,0.586,0.75,1.038,0.992,1.365
				c0.246,0.325,0.386,0.511,0.386,0.511l-11.938,8.741c0,0-0.152-0.201-0.419-0.555c-0.263-0.356-0.661-0.85-1.077-1.484
				c-0.854-1.254-1.994-2.927-3.133-4.599c-0.566-0.839-1.133-1.677-1.663-2.463c-0.496-0.809-0.958-1.563-1.354-2.21
				c-0.793-1.295-1.321-2.157-1.321-2.157L39.749,275.553z"/>
			<path fill="#32BCAD" d="M24.113,242.23c0,0,0.063,0.225,0.202,0.607c0.144,0.382,0.347,0.927,0.592,1.581
				c0.489,1.31,1.14,3.055,1.792,4.801c0.309,0.879,0.669,1.738,1.022,2.537c0.345,0.803,0.666,1.552,0.941,2.193
				c0.55,1.284,0.917,2.141,0.917,2.141l-13.528,5.994c0,0-0.399-0.93-0.997-2.324c-0.299-0.697-0.647-1.511-1.021-2.382
				c-0.382-0.868-0.771-1.802-1.11-2.755c-0.707-1.896-1.415-3.79-1.945-5.212c-0.266-0.711-0.486-1.303-0.641-1.718
				c-0.15-0.416-0.221-0.659-0.22-0.659L24.113,242.23z"/>
			<path fill="#FBD639" d="M15.979,206.329c0,0,0.11,0.925,0.274,2.313c0.09,0.692,0.162,1.505,0.297,2.367
				c0.145,0.861,0.3,1.78,0.454,2.698c0.308,1.838,0.616,3.675,0.847,5.053c0.297,1.365,0.494,2.276,0.494,2.276l-14.492,2.988
				c0,0-0.213-0.988-0.533-2.471c-0.252-1.496-0.587-3.491-0.923-5.486c-0.167-0.997-0.334-1.995-0.49-2.93
				c-0.146-0.938-0.228-1.819-0.324-2.571c-0.18-1.507-0.3-2.511-0.3-2.511L15.979,206.329z"/>
			<path fill="#35A8DF" d="M15.584,169.531c0,0-0.279,3.714-0.559,7.427c-0.116,1.858-0.114,3.723-0.166,5.118
				c-0.038,1.396-0.063,2.327-0.063,2.327L0,184.239c0,0,0.027-1.011,0.066-2.528c0.055-1.517,0.059-3.541,0.184-5.561
				c0.305-4.037,0.607-8.072,0.607-8.072L15.584,169.531z"/>
			<path fill="#203341" d="M23.172,133.53c0,0-0.297,0.883-0.74,2.207c-0.43,1.329-0.891,3.135-1.405,4.924
				c-0.478,1.8-1.06,3.572-1.324,4.945c-0.308,1.362-0.514,2.271-0.514,2.271l-14.417-3.335c0,0,0.225-0.986,0.561-2.467
				c0.295-1.49,0.916-3.42,1.438-5.375c0.558-1.945,1.064-3.906,1.53-5.351c0.481-1.439,0.802-2.398,0.802-2.398L23.172,133.53z"/>
			<path fill="#32BCAD" d="M38.262,99.929c0,0-0.487,0.841-1.218,2.102c-0.365,0.631-0.791,1.366-1.247,2.154
				c-0.375,0.727-0.773,1.501-1.172,2.275c-0.852,1.658-1.703,3.316-2.343,4.56c-0.319,0.622-0.594,1.137-0.749,1.514
				c-0.168,0.371-0.264,0.584-0.264,0.584l-13.371-6.337c0,0,0.104-0.23,0.286-0.633c0.171-0.409,0.467-0.968,0.813-1.643
				c0.692-1.349,1.616-3.147,2.539-4.946c0.231-0.45,0.462-0.899,0.69-1.342c0.113-0.222,0.227-0.44,0.338-0.657l0.166-0.323
				l0.176-0.319l0.086-0.148c0.456-0.788,0.883-1.524,1.248-2.154c0.729-1.261,1.217-2.102,1.217-2.102L38.262,99.929z"/>
			<path fill="#FBD639" d="M60.055,70.3c0,0-0.618,0.696-1.546,1.741c-0.919,1.051-2.183,2.42-3.386,3.842
				c-2.331,2.905-4.662,5.81-4.662,5.81l-11.733-9.017c0,0,2.534-3.156,5.067-6.313c1.306-1.545,2.676-3.037,3.676-4.178
				c1.01-1.134,1.682-1.891,1.682-1.891L60.055,70.3z"/>
			<path fill="#35A8DF" d="M87.713,46.042c0,0-0.192,0.131-0.529,0.36c-0.333,0.235-0.83,0.54-1.379,0.973
				c-1.114,0.842-2.601,1.964-4.087,3.086c-0.742,0.562-1.484,1.124-2.181,1.65c-0.67,0.56-1.295,1.083-1.831,1.53
				c-1.071,0.895-1.786,1.492-1.786,1.492l-9.524-11.324c0,0,0.777-0.648,1.942-1.621c0.583-0.486,1.263-1.053,1.991-1.66
				c0.756-0.573,1.563-1.185,2.369-1.796c1.615-1.219,3.23-2.438,4.442-3.352c0.598-0.468,1.136-0.802,1.497-1.058
				c0.365-0.25,0.574-0.392,0.574-0.392L87.713,46.042z"/>
			<path fill="#203341" d="M119.938,28.266c0,0-0.856,0.367-2.141,0.917c-1.282,0.555-3.012,1.252-4.67,2.104
				c-1.675,0.815-3.35,1.63-4.605,2.242c-0.629,0.305-1.155,0.554-1.508,0.76c-0.356,0.196-0.561,0.308-0.561,0.308l-6.883-13.099
				c0,0,0.223-0.121,0.611-0.333c0.383-0.223,0.953-0.495,1.635-0.827c1.365-0.664,3.184-1.55,5.002-2.435
				c1.804-0.92,3.679-1.683,5.07-2.286c1.395-0.598,2.324-0.997,2.324-0.997L119.938,28.266z"/>
			<path fill="#32BCAD" d="M155.202,17.707c0,0-0.229,0.038-0.631,0.105c-0.404,0.056-0.973,0.185-1.654,0.335
				c-1.365,0.297-3.187,0.693-5.007,1.089c-1.83,0.356-3.62,0.88-4.971,1.236c-1.35,0.362-2.249,0.603-2.249,0.603l-3.945-14.261
				c0,0,0.977-0.262,2.441-0.655c1.467-0.387,3.412-0.949,5.397-1.341c1.977-0.43,3.953-0.859,5.436-1.182
				c0.741-0.161,1.358-0.3,1.797-0.362c0.437-0.074,0.686-0.116,0.686-0.116L155.202,17.707z"/>
			<path fill="#FBD639" d="M191.901,14.924c0,0-0.932-0.024-2.328-0.061c-0.697-0.019-1.512-0.041-2.385-0.064
				c-0.873-0.006-1.804,0.034-2.734,0.049c-1.863,0.041-3.725,0.082-5.121,0.112c-0.699,0.002-1.279,0.059-1.686,0.085
				c-0.406,0.029-0.639,0.045-0.639,0.045l-0.826-14.774c0,0,0.252-0.018,0.693-0.048c0.441-0.028,1.072-0.088,1.831-0.092
				c1.517-0.034,3.54-0.08,5.563-0.125c1.011-0.016,2.022-0.057,2.971-0.051c0.948,0.024,1.833,0.047,2.592,0.067
				c1.518,0.04,2.528,0.066,2.528,0.066L191.901,14.924z"/>
			<path fill="#35A8DF" d="M228.343,19.98c0,0-3.631-0.823-7.264-1.646c-1.814-0.415-3.663-0.666-5.034-0.928
				c-1.376-0.241-2.292-0.402-2.292-0.402l2.355-14.608c0,0,0.997,0.175,2.492,0.436c1.491,0.283,3.498,0.564,5.473,1.012
				c3.947,0.896,7.895,1.791,7.895,1.791L228.343,19.98z"/>
			<path fill="#203341" d="M262.836,32.822c0,0-0.829-0.426-2.073-1.064c-1.273-0.574-2.973-1.339-4.671-2.105
				c-1.701-0.76-3.384-1.565-4.7-2.037c-1.301-0.509-2.168-0.848-2.168-0.848l5.434-13.763c0,0,0.941,0.369,2.354,0.923
				c1.43,0.517,3.258,1.385,5.104,2.209c1.843,0.833,3.687,1.665,5.069,2.289c1.35,0.691,2.25,1.152,2.25,1.152L262.836,32.822z"/>
			<path fill="#32BCAD" d="M293.859,52.642c0,0-0.729-0.58-1.82-1.451c-0.547-0.435-1.185-0.942-1.868-1.485
				c-0.709-0.509-1.465-1.053-2.222-1.596c-1.513-1.088-3.024-2.176-4.158-2.992c-0.563-0.424-1.05-0.7-1.382-0.925
				c-0.336-0.216-0.527-0.34-0.527-0.34l8.151-12.35c0,0,0.216,0.14,0.595,0.386c0.371,0.25,0.939,0.583,1.543,1.034
				c1.232,0.886,2.875,2.066,4.518,3.247c0.82,0.591,1.642,1.182,2.411,1.736c0.743,0.59,1.437,1.14,2.031,1.611
				c1.187,0.945,1.979,1.576,1.979,1.576L293.859,52.642z"/>
			<path fill="#FBD639" d="M319.964,78.569c0,0-2.409-2.84-4.818-5.681c-1.215-1.41-2.528-2.733-3.469-3.765
				c-0.953-1.021-1.589-1.701-1.589-1.701l10.658-10.264c0,0,0.69,0.739,1.728,1.848c1.023,1.121,2.446,2.563,3.77,4.094
				c2.617,3.087,5.234,6.175,5.234,6.175L319.964,78.569z"/>
		</g>
		<g>
			<g>
				<path fill="#FFED00" d="M238.429,241.694c10.504,0,21.072,41.223,21.072,41.223c0.432,1.685,2.207,2.991,3.944,2.902
					c0,0,42.649-2.177,45.716,7.262c3.068,9.441-32.716,32.75-32.716,32.75c-1.458,0.949-2.142,3.057-1.521,4.681
					c0,0,15.244,39.896,7.221,45.724c-8.025,5.831-41.256-20.996-41.256-20.996c-1.354-1.093-3.591-1.121-4.972-0.064
					c0,0-34.173,26.169-41.204,21.061c-7.034-5.108,7.295-45.695,7.295-45.695c0.58-1.64-0.128-3.776-1.572-4.745
					c0,0-35.602-23.905-32.74-32.714c2.859-8.804,45.716-7.218,45.716-7.218c1.738,0.064,3.515-1.262,3.946-2.946
					C217.358,282.917,227.923,241.694,238.429,241.694z"/>
				
					<path fill="#FFFFFF" stroke="#000000" stroke-width="1.2" stroke-linecap="round" stroke-linejoin="round" stroke-miterlimit="10" d="
					M231.929,296.737c-3.051-3.053-8.004-3.053-11.057,0s-3.051,9.438,0.002,12.494c3.051,3.051,8.004,3.051,11.055,0
					C234.983,306.175,234.983,299.79,231.929,296.737z"/>
				<path d="M229.985,310.649c-1.771,1.768-5.598,1.77-7.369,0c-1.768-1.773-1.293-4.646,0.479-6.414c1.771-1.77,4.643-1.77,6.416,0
					C231.28,306.004,231.755,308.876,229.985,310.649z"/>
				
					<path fill="#FFFFFF" stroke="#000000" stroke-width="1.2" stroke-linecap="round" stroke-linejoin="round" stroke-miterlimit="10" d="
					M255.96,296.737c-3.053-3.053-8.002-3.053-11.057,0s-3.053,9.438,0,12.494c3.055,3.051,8.004,3.051,11.057,0
					C259.013,306.175,259.013,299.79,255.96,296.737z"/>
				<path d="M254.014,310.649c-1.769,1.768-5.595,1.77-7.37,0c-1.77-1.773-1.291-4.646,0.482-6.414c1.77-1.77,4.638-1.77,6.412,0
					C255.308,306.004,255.786,308.876,254.014,310.649z"/>
				<g>
					
						<line fill="none" stroke="#000000" stroke-width="1.5" stroke-linecap="round" stroke-linejoin="round" stroke-miterlimit="10" x1="220.024" y1="328.176" x2="225.335" y2="325.379"/>
					
						<line fill="none" stroke="#000000" stroke-width="1.5" stroke-linecap="round" stroke-linejoin="round" stroke-miterlimit="10" x1="257.888" y1="328.176" x2="252.577" y2="325.379"/>
					
						<path fill="none" stroke="#000000" stroke-width="1.5" stroke-linecap="round" stroke-linejoin="round" stroke-miterlimit="10" d="
						M222.679,326.778c0,0,1.076,13.637,16.105,13.637s16.1-13.637,16.1-13.637"/>
				</g>
			</g>
		</g>
	</g>
</g>
<g id="logo" display="none">
</g>
<g id="UČITELJ" display="none">
</g>
</svg>
