<?xml version="1.0" encoding="utf-8"?>
<!-- Generator: Adobe Illustrator 16.0.0, SVG Export Plug-In . SVG Version: 6.00 Build 0)  -->
<!DOCTYPE svg PUBLIC "-//W3C//DTD SVG 1.1//EN" "http://www.w3.org/Graphics/SVG/1.1/DTD/svg11.dtd">
<svg version="1.1" id="Layer_1" xmlns="http://www.w3.org/2000/svg" xmlns:xlink="http://www.w3.org/1999/xlink" x="0px" y="0px"
	 width="312.037px" height="159.373px" viewBox="0 0 312.037 159.373" enable-background="new 0 0 312.037 159.373"
	 xml:space="preserve">
<g id="mreza">
</g>
<g id="Layer_1_1_">
</g>
<g id="glava">
</g>
<g>
	<path fill="#231F20" d="M101.139,101.229c0,0.973,0.08,1.282-1.005,1.282c-0.136,0-0.385-0.018-0.385,0.181
		c0,0.168,0.125,0.199,0.265,0.199c0.584,0,1.173-0.053,1.756-0.053c0.589,0,1.146,0.053,1.732,0.053
		c0.138,0,0.263-0.031,0.263-0.199c0-0.198-0.263-0.181-0.403-0.181c-1.071-0.018-1.002-0.296-1.002-1.282v-2.87
		c0-0.526,0.153-0.526,0.772-0.526c0.466,0,1.265,0,1.868,0.138c0.339,0.079,0.464,0.539,0.538,0.985
		c0.019,0.098,0.065,0.266,0.203,0.266c0.075,0,0.168-0.035,0.168-0.279c-0.013-0.495-0.045-0.954-0.075-1.449
		c0.03-0.434,0.062-0.897,0.075-1.327c0-0.123-0.093-0.155-0.168-0.155c-0.138,0-0.185,0.169-0.203,0.262
		c-0.074,0.446-0.149,1.021-0.538,1.065c-0.603,0.075-1.402,0.058-1.868,0.058c-0.636,0-0.772,0-0.772-0.725V94.48
		c0-0.203-0.032-0.632,0.199-0.742c0.25-0.106,1.05-0.106,1.313-0.106c1.374,0,2.297,0.018,2.718,1.481
		c0.03,0.11,0.093,0.322,0.248,0.322c0.231,0,0.156-0.474,0.156-0.602v-1.078c0-0.234,0.061-0.536-0.249-0.536
		c-1.773,0-3.537,0.058-5.298,0.058c-0.491,0-0.959-0.058-1.448-0.058c-0.143,0-0.263,0.04-0.263,0.195
		c0,0.203,0.244,0.217,0.399,0.217c1.066,0,1.005,0.278,1.005,1.234V101.229"/>
	<path fill-rule="evenodd" clip-rule="evenodd" fill="#231F20" d="M111.698,99.234c0.043-0.014,0.122-0.058,0.171-0.058
		c0.155,0,0.112,0.371,0.112,0.429v0.929c0,0.509-0.019,0.765-0.385,1.158c-0.376,0.372-0.904,0.619-1.442,0.619
		c-0.57,0-1.062-0.309-1.062-0.915c0-0.738,0.598-1.142,1.2-1.445L111.698,99.234 M110.214,99.636
		c-0.862,0.403-2.284,1.066-2.284,2.168c0,0.769,0.729,1.215,1.449,1.215c1.344,0,2.347-1.176,2.489-1.176
		c0.218,0,0.298,1.078,1.049,1.078c0.396,0,0.785-0.229,1.096-0.441c0.106-0.093,0.371-0.305,0.371-0.477
		c0-0.067-0.043-0.124-0.107-0.124c-0.14,0-0.307,0.384-0.696,0.384c-0.552,0-0.542-0.896-0.542-1.237v-3.645
		c0-0.415,0.068-0.8-0.303-1.122c-0.36-0.311-0.931-0.402-1.406-0.402c-0.992,0-2.04,0.415-2.765,1.061
		c-0.292,0.248-0.648,0.693-0.648,1.101c0,0.151,0.079,0.182,0.199,0.182c0.186,0,0.511-0.119,0.667-0.198
		c0.242-0.111,0.317-0.323,0.428-0.553c0.354-0.788,0.836-1.297,1.778-1.297c0.955,0,0.991,0.633,0.991,1.389v0.682
		c0,0.578-0.019,0.602-0.57,0.861L110.214,99.636z"/>
	<path fill="#231F20" d="M117.308,100.379c0-0.588,0.013-0.539,0.478-0.896c0.079-0.058,0.235-0.218,0.357-0.218
		c0.153,0,0.367,0.327,0.444,0.438l1.439,1.88c0.107,0.142,0.367,0.465,0.367,0.65c0,0.327-0.367,0.291-0.601,0.291
		c-0.124,0-0.259,0.094-0.259,0.248c0,0.138,0.136,0.119,0.246,0.119c0.473,0,0.969-0.053,1.434-0.053
		c0.495,0,1.016,0.053,1.516,0.053c0.106,0,0.242,0.019,0.242-0.137c0-0.164-0.186-0.23-0.321-0.23c-0.571,0-0.793-0.371-1.13-0.786
		l-2.329-2.959c-0.062-0.066-0.111-0.114-0.111-0.202c0-0.142,0.297-0.341,0.385-0.425l1.177-0.925
		c0.6-0.46,0.989-0.836,1.777-0.862c0.139,0,0.311-0.018,0.311-0.186c0-0.15-0.142-0.119-0.268-0.119h-2.719
		c-0.122,0-0.334-0.031-0.334,0.138c0,0.26,0.415,0.193,0.585,0.211c0.167,0,0.493,0,0.493,0.252c0,0.235-0.46,0.585-0.631,0.721
		l-2.287,1.805c-0.029,0.035-0.122,0.11-0.171,0.11c-0.088,0-0.088-0.243-0.088-0.318v-6.722c0-0.128,0.013-0.242-0.136-0.242
		c-0.111,0-0.249,0.106-0.328,0.172c-0.372,0.239-0.955,0.397-1.389,0.478c-0.093,0.01-0.216,0.058-0.216,0.164
		c0,0.203,0.26,0.154,0.398,0.154c0.748,0,0.6,0.682,0.6,1.252v7.025c0,0.664,0.147,1.189-0.693,1.265
		c-0.167,0.019-0.43-0.013-0.43,0.218c0,0.118,0.106,0.149,0.218,0.149c0.478,0,0.973-0.053,1.465-0.053
		c0.464,0,0.957,0.053,1.454,0.053c0.106,0,0.186-0.039,0.186-0.163c0-0.204-0.279-0.186-0.434-0.204
		c-0.83-0.075-0.694-0.601-0.694-1.265V100.379"/>
	<path fill="#231F20" d="M130.278,96.444c0-0.173,0.07-0.385-0.174-0.385h-1.791c-0.123,0-0.216-0.031-0.216,0.105
		c0,0.199,0.293,0.199,0.434,0.199c0.83,0,0.681,0.588,0.681,1.238v2.945c0,0.438,0.061,0.791-0.266,1.145
		c-0.434,0.482-0.986,0.694-1.655,0.694c-0.57,0-1.233-0.198-1.537-0.712c-0.278-0.446-0.278-1.216-0.278-1.724v-3.335
		c0-0.239,0.074-0.557-0.254-0.557H123.5c-0.125,0-0.203-0.031-0.203,0.092c0,0.213,0.279,0.213,0.418,0.213
		c0.849,0,0.694,0.588,0.694,1.238v2.349c0,0.751-0.036,1.538,0.46,2.175c0.451,0.584,1.071,0.893,1.823,0.893
		c1.405,0,2.13-1.083,2.361-1.083c0.202,0,0.122,0.558,0.122,0.637v0.371c0,0.075,0,0.125,0.08,0.125c0.045,0,0.138-0.08,0.17-0.098
		c0.45-0.341,1.007-0.505,1.545-0.659c0.093-0.031,0.324-0.066,0.324-0.203c0-0.105-0.11-0.124-0.199-0.124l-0.204,0.019
		c-0.738,0.062-0.614-0.421-0.614-1.018V96.444"/>
	<path fill="#231F20" d="M134.305,92.256c0-0.128,0.013-0.242-0.138-0.242c-0.108,0-0.247,0.106-0.326,0.172
		c-0.367,0.239-0.96,0.397-1.388,0.478c-0.097,0.01-0.218,0.058-0.218,0.164c0,0.203,0.261,0.154,0.404,0.154
		c0.743,0,0.595,0.682,0.595,1.252v7.025c0,0.664,0.148,1.189-0.688,1.265c-0.175,0.019-0.435-0.013-0.435,0.218
		c0,0.118,0.106,0.149,0.217,0.149c0.482,0,0.974-0.053,1.467-0.053c0.464,0,0.956,0.053,1.452,0.053
		c0.106,0,0.186-0.039,0.186-0.163c0-0.204-0.278-0.186-0.432-0.204c-0.833-0.075-0.695-0.601-0.695-1.265V92.256"/>
	<path fill="#231F20" d="M137.919,96.718c0-0.429,0.21-0.341,0.57-0.341h0.864c0.356,0,0.473,0.08,0.473-0.242
		c0-0.125,0-0.217-0.136-0.217h-1.526c-0.217,0-0.246-0.11-0.246-0.313v-1.098c0-0.088-0.014-0.182-0.125-0.182
		c-0.08,0-0.125,0.08-0.154,0.138c-0.356,0.747-0.801,1.128-1.469,1.565c-0.076,0.058-0.186,0.123-0.186,0.23
		c0,0.186,0.402,0.118,0.482,0.118c0.292,0,0.384-0.039,0.384,0.283v3.966c0,0.62-0.061,1.407,0.335,1.916
		c0.263,0.317,0.7,0.477,1.121,0.477c0.534,0,1.045-0.229,1.431-0.588c0.107-0.07,0.31-0.278,0.31-0.428
		c0-0.05-0.043-0.107-0.111-0.107c-0.122,0-0.538,0.535-1.113,0.535c-0.92,0-0.906-1.145-0.906-1.805V96.718"/>
	<path fill-rule="evenodd" clip-rule="evenodd" fill="#231F20" d="M142.437,98.261c-0.167,0-0.528,0.05-0.528-0.199
		c0-0.247,0.268-0.725,0.39-0.896c0.478-0.646,1.22-1.03,2.008-1.03c0.497,0,0.998,0.124,1.341,0.481
		c0.215,0.226,0.405,0.583,0.405,0.906c0,0.367-0.233,0.539-0.57,0.615c-0.456,0.11-1.318,0.123-1.795,0.123H142.437
		 M147.101,98.638c0.157,0,0.186-0.138,0.186-0.261c0-0.514-0.229-1.178-0.539-1.562c-0.544-0.664-1.388-0.959-2.223-0.959
		c-1.053,0-2.008,0.353-2.778,1.039c-0.822,0.707-1.114,1.521-1.114,2.568c0,1.933,1.499,3.555,3.521,3.555
		c0.953,0,1.709-0.247,2.441-0.866c0.106-0.088,0.599-0.509,0.599-0.694c0-0.062-0.047-0.119-0.122-0.119
		c-0.204,0-0.775,0.999-2.287,0.999c-1.865,0-2.993-1.494-2.993-3.223c0-0.509,0.149-0.478,0.631-0.478H147.101z"/>
	<path fill="#231F20" d="M149.958,96.718c0-0.429,0.223-0.341,0.579-0.341h0.858c0.358,0,0.483,0.08,0.483-0.242
		c0-0.125,0-0.217-0.143-0.217h-1.526c-0.214,0-0.251-0.11-0.251-0.313v-1.098c0-0.088-0.013-0.182-0.121-0.182
		c-0.078,0-0.122,0.08-0.153,0.138c-0.357,0.747-0.806,1.128-1.469,1.565c-0.08,0.058-0.182,0.123-0.182,0.23
		c0,0.186,0.404,0.118,0.474,0.118c0.296,0,0.389-0.039,0.389,0.283v3.966c0,0.62-0.06,1.407,0.338,1.916
		c0.264,0.317,0.692,0.477,1.113,0.477c0.54,0,1.048-0.229,1.438-0.588c0.106-0.07,0.308-0.278,0.308-0.428
		c0-0.05-0.048-0.107-0.104-0.107c-0.129,0-0.546,0.535-1.121,0.535c-0.923,0-0.91-1.145-0.91-1.805V96.718"/>
	<path fill-rule="evenodd" clip-rule="evenodd" fill="#231F20" d="M156.476,99.234c0.043-0.014,0.121-0.058,0.173-0.058
		c0.151,0,0.105,0.371,0.105,0.429v0.929c0,0.509-0.018,0.765-0.389,1.158c-0.367,0.372-0.892,0.619-1.434,0.619
		c-0.575,0-1.064-0.309-1.064-0.915c0-0.738,0.601-1.142,1.202-1.445L156.476,99.234 M154.996,99.636
		c-0.863,0.403-2.287,1.066-2.287,2.168c0,0.769,0.725,1.215,1.45,1.215c1.344,0,2.35-1.176,2.49-1.176
		c0.212,0,0.287,1.078,1.048,1.078c0.403,0,0.788-0.229,1.091-0.441c0.116-0.093,0.372-0.305,0.372-0.477
		c0-0.067-0.044-0.124-0.1-0.124c-0.143,0-0.315,0.384-0.7,0.384c-0.558,0-0.538-0.896-0.538-1.237v-3.645
		c0-0.415,0.061-0.8-0.311-1.122c-0.358-0.311-0.929-0.402-1.407-0.402c-0.987,0-2.04,0.415-2.759,1.061
		c-0.297,0.248-0.65,0.693-0.65,1.101c0,0.151,0.075,0.182,0.199,0.182c0.186,0,0.51-0.119,0.664-0.198
		c0.247-0.111,0.326-0.323,0.432-0.553c0.356-0.788,0.831-1.297,1.773-1.297c0.96,0,0.991,0.633,0.991,1.389v0.682
		c0,0.578-0.018,0.602-0.57,0.861L154.996,99.636z"/>
	<path fill-rule="evenodd" clip-rule="evenodd" fill="#D13239" d="M165.236,101.755c-0.42,0-1.438,0.31-1.438,0.817
		c0,0.217,0.121,0.305,0.342,0.305c0.478,0,0.983-0.844,1.468-0.844c0.323,0,0.752,0.247,1.278,0.49
		c0.513,0.248,1.109,0.495,1.714,0.495c0.603,0,1.271-0.199,1.687-0.645c0.289-0.31,0.504-0.792,0.504-1.207
		c0-0.142-0.045-0.633-0.261-0.633c-0.062,0-0.126,0.048-0.126,0.105c0,0.098,0.08,0.252,0.08,0.434
		c0,0.584-0.553,0.897-1.096,0.897c-0.247,0-0.497-0.065-0.742-0.128c-0.633-0.133-1.203-0.261-1.866-0.261
		c-0.389,0-0.769,0.048-1.158,0.173l2.332-1.951l2.408-2.161c0.506-0.443,0.599-0.491,1.189-0.845
		c0.204-0.128,0.893-0.46,0.893-0.788c0-0.172-0.186-0.233-0.336-0.233c-0.45,0-0.911,0.668-1.207,0.96l-0.354,0.03
		c-0.664,0.058-1.221-0.248-1.749-0.508c-0.506-0.249-0.984-0.496-1.512-0.496c-1.095,0-1.912,0.787-1.912,1.88
		c0,0.115-0.018,0.469,0.186,0.469c0.121,0,0.093-0.19,0.093-0.262c-0.031-0.685,0.385-1.008,1.048-1.008
		c0.371,0,0.712,0.098,1.083,0.186c0.509,0.124,1.034,0.229,1.557,0.229c0.469,0,0.915-0.092,1.342-0.229
		c-1.525,1.034-2.974,2.158-4.26,3.507l-0.677,0.712L165.236,101.755"/>
	<path fill-rule="evenodd" clip-rule="evenodd" fill="#D13239" d="M179.037,96.859c0,0.713-1.265,2.472-1.698,3.012
		c-0.542,0.677-1.91,2.33-2.856,2.33c-0.494,0-0.712-0.509-0.712-0.942c0-0.973,0.822-2.533,1.411-3.271
		c0.645-0.85,1.742-1.928,2.868-1.928C178.576,96.06,179.037,96.289,179.037,96.859 M179.269,96.303
		c-0.32-0.416-0.668-0.54-1.188-0.54c-1.406,0-2.794,0.88-3.736,1.866c-0.88,0.929-1.779,2.489-1.779,3.799
		c0,0.761,0.36,1.591,1.225,1.591c1.82,0,3.889-2.949,4.756-4.368l-0.941,3.06c-0.076,0.261-0.174,0.57-0.174,0.862
		c0,0.266,0.136,0.446,0.419,0.446c0.617,0,1.452-0.725,1.837-1.14c0.186-0.204,0.818-1.009,0.818-1.283
		c0-0.062-0.045-0.128-0.108-0.128c-0.108,0-0.22,0.204-0.259,0.283c-0.187,0.292-0.911,1.264-1.3,1.264
		c-0.124,0-0.155-0.109-0.155-0.229c0-0.142,0.096-0.389,0.124-0.509l1.59-5.217c0.02-0.066,0.077-0.235,0.077-0.31
		c0-0.222-0.434-0.146-0.522-0.146c-0.513,0-0.481,0.079-0.636,0.561L179.269,96.303z"/>
	<path fill-rule="evenodd" clip-rule="evenodd" fill="#D13239" d="M186.266,102.201c-0.016,0.062-0.107,0.358-0.107,0.429
		c0,0.229,0.298,0.208,0.436,0.208c0.618,0,0.57-0.128,0.738-0.699c0.296-0.985,1.3-2.882,1.87-3.78
		c0.168-0.278,1.107-1.672,1.53-1.672c0.413,0-0.018,0.762,0.756,0.762c0.464,0,0.705-0.496,0.705-0.911
		c0-0.478-0.303-0.774-0.77-0.774c-1.326,0-2.841,3.117-3.407,4.139l0.664-2.18c0.104-0.341,0.21-0.676,0.21-1.052
		c0-0.332-0.106-0.907-0.57-0.907c-0.512,0-1.221,0.628-1.541,1.004c-0.157,0.173-0.787,0.911-0.787,1.154
		c0,0.066,0.044,0.11,0.106,0.11c0.098,0,0.186-0.168,0.231-0.229l0.14-0.199c0.186-0.266,0.786-1.04,1.146-1.04
		c0.168,0,0.193,0.188,0.193,0.333c0,0.27-0.102,0.609-0.181,0.889L186.266,102.201"/>
	<path fill-rule="evenodd" clip-rule="evenodd" fill="#D13239" d="M198.02,96.859c0,0.713-1.27,2.472-1.703,3.012
		c-0.541,0.677-1.91,2.33-2.852,2.33c-0.491,0-0.715-0.509-0.715-0.942c0-0.973,0.82-2.533,1.407-3.271
		c0.647-0.85,1.748-1.928,2.872-1.928C197.553,96.06,198.02,96.289,198.02,96.859 M198.249,96.303
		c-0.323-0.416-0.663-0.54-1.189-0.54c-1.405,0-2.792,0.88-3.738,1.866c-0.878,0.929-1.771,2.489-1.771,3.799
		c0,0.761,0.351,1.591,1.216,1.591c1.825,0,3.896-2.949,4.758-4.368l-0.942,3.06c-0.08,0.261-0.173,0.57-0.173,0.862
		c0,0.266,0.142,0.446,0.421,0.446c0.618,0,1.45-0.725,1.834-1.14c0.186-0.204,0.818-1.009,0.818-1.283
		c0-0.062-0.042-0.128-0.106-0.128c-0.107,0-0.219,0.204-0.261,0.283c-0.186,0.292-0.915,1.264-1.3,1.264
		c-0.119,0-0.152-0.109-0.152-0.229c0-0.142,0.089-0.389,0.121-0.509l1.592-5.217c0.014-0.066,0.074-0.235,0.074-0.31
		c0-0.222-0.428-0.146-0.521-0.146c-0.511,0-0.478,0.079-0.637,0.561L198.249,96.303z"/>
	<path fill-rule="evenodd" clip-rule="evenodd" fill="#D13239" d="M206.946,96.55c0-0.649-1.237-0.787-1.685-0.787
		c-1.141,0-2.44,0.726-3.241,1.513c-0.836,0.818-1.48,1.989-1.48,3.184c0,1.384,0.954,2.56,2.389,2.56
		c1.082,0,2.023-0.681,2.751-1.423c0.139-0.138,0.646-0.694,0.646-0.924c0-0.046-0.042-0.09-0.093-0.09
		c-0.266,0-1.2,1.663-2.935,1.663c-1.078,0-1.568-0.831-1.568-1.835c0-1.096,0.601-2.458,1.325-3.259
		c0.403-0.434,1.142-1.048,1.771-1.048c0.715,0,0.571,0.91,1.55,0.91C206.654,97.014,206.946,96.859,206.946,96.55 M205.231,94.189
		l-0.757-1.561c-0.186-0.403-0.154-0.421-0.632-0.421c-0.088,0-0.262-0.014-0.262,0.128c0,0.106,0.142,0.327,0.182,0.416
		l0.789,1.525c0.232,0.455,0.157,0.407,0.68,0.407c0.31,0,0.326,0,0.557-0.19l2.16-1.791c0.092-0.074,0.294-0.198,0.294-0.35
		c0-0.168-0.219-0.146-0.34-0.146c-0.339,0-0.354,0.035-0.617,0.266L205.231,94.189z"/>
	<path fill-rule="evenodd" clip-rule="evenodd" fill="#D13239" d="M213.618,98.897l-0.683,2.189
		c-0.104,0.371-0.278,0.978-0.278,1.361c0,0.262,0.093,0.57,0.422,0.57c0.719,0,1.667-0.773,2.111-1.281
		c0.122-0.142,0.789-0.97,0.789-1.189c0-0.058-0.048-0.107-0.108-0.107c-0.077,0-0.139,0.107-0.189,0.169
		c-0.241,0.416-1.09,1.529-1.623,1.529c-0.167,0-0.241-0.168-0.241-0.31c0-0.186,0.074-0.463,0.142-0.645l1.495-4.896
		c0.028-0.092,0.092-0.261,0.092-0.371c0-0.234-0.397-0.155-0.522-0.155c-0.589,0-0.483,0.075-0.648,0.646
		c-0.483,1.544-1.24,2.923-2.304,4.14c-0.429,0.508-1.711,1.776-2.438,1.776c-0.278,0-0.413-0.172-0.413-0.429
		c0-0.221,0.105-0.543,0.168-0.742l1.233-3.688c0.11-0.313,0.232-0.698,0.232-1.021c0-0.327-0.109-0.682-0.493-0.682
		c-0.574,0-1.345,0.664-1.698,1.021c-0.157,0.168-0.836,1-0.836,1.265c0,0.063,0.012,0.089,0.08,0.089
		c0.134,0,0.278-0.248,0.336-0.336c0.203-0.297,0.897-1.207,1.298-1.207c0.17,0,0.219,0.123,0.219,0.265
		c0,0.154-0.126,0.464-0.172,0.605l-1.203,3.498c-0.124,0.363-0.296,0.88-0.296,1.252c0,0.464,0.172,0.804,0.667,0.804
		c0.941,0,1.989-0.786,2.653-1.389c0.946-0.849,1.394-1.561,2.098-2.577L213.618,98.897"/>
	<path fill="#D13239" d="M224.72,97.758c0.126-0.333,0.292-0.778,0.292-1.133c0-0.558-0.427-0.862-0.955-0.862
		c-1.988,0-3.797,2.716-4.646,4.259l-0.031-0.03l0.664-2.115c0.124-0.411,0.258-0.91,0.258-1.357c0-0.451-0.147-0.756-0.629-0.756
		c-0.646,0-1.453,0.774-1.838,1.234c-0.121,0.124-0.666,0.835-0.666,1.004c0,0.079,0.067,0.11,0.129,0.11
		c0.093,0,0.137-0.094,0.166-0.168c0.186-0.333,1.034-1.362,1.439-1.362c0.229,0,0.305,0.169,0.305,0.371
		c0,0.261-0.105,0.602-0.182,0.85l-1.377,4.492c-0.029,0.08-0.094,0.278-0.094,0.358c0,0.257,0.325,0.186,0.479,0.186
		c0.497,0,0.497-0.084,0.639-0.526c0.367-1.207,1.557-3.259,2.372-4.231c0.479-0.558,1.452-1.703,2.269-1.703
		c0.36,0,0.547,0.204,0.547,0.54c0,0.282-0.129,0.575-0.218,0.841l-1.096,2.914c-0.188,0.481-0.416,1.132-0.416,1.652
		c0,0.447,0.199,0.694,0.658,0.694c0.638,0,1.559-0.893,1.964-1.344c0.123-0.129,0.694-0.831,0.694-1.035
		c0-0.058-0.06-0.105-0.106-0.105c-0.093,0-0.155,0.092-0.186,0.155c-0.266,0.384-1.127,1.463-1.623,1.463
		c-0.186,0-0.292-0.105-0.292-0.31c0-0.213,0.155-0.584,0.23-0.787L224.72,97.758"/>
	<path fill-rule="evenodd" clip-rule="evenodd" fill="#D13239" d="M232.708,96.859c0,0.713-1.266,2.472-1.698,3.012
		c-0.54,0.677-1.915,2.33-2.853,2.33c-0.501,0-0.716-0.509-0.716-0.942c0-0.973,0.817-2.533,1.406-3.271
		c0.649-0.85,1.74-1.928,2.867-1.928C232.243,96.06,232.708,96.289,232.708,96.859 M232.936,96.303
		c-0.321-0.416-0.659-0.54-1.184-0.54c-1.405,0-2.794,0.88-3.736,1.866c-0.88,0.929-1.778,2.489-1.778,3.799
		c0,0.761,0.355,1.591,1.22,1.591c1.823,0,3.894-2.949,4.756-4.368l-0.942,3.06c-0.08,0.261-0.168,0.57-0.168,0.862
		c0,0.266,0.135,0.446,0.413,0.446c0.621,0,1.457-0.725,1.842-1.14c0.187-0.204,0.815-1.009,0.815-1.283
		c0-0.062-0.046-0.128-0.11-0.128c-0.104,0-0.21,0.204-0.259,0.283c-0.186,0.292-0.91,1.264-1.3,1.264
		c-0.126,0-0.149-0.109-0.149-0.229c0-0.142,0.092-0.389,0.121-0.509l1.587-5.217c0.014-0.066,0.082-0.235,0.082-0.31
		c0-0.222-0.434-0.146-0.526-0.146c-0.508,0-0.478,0.079-0.633,0.561L232.936,96.303z"/>
	<path fill="#D13239" d="M235.506,101.056c-0.126,0.402-0.277,0.929-0.277,1.358c0,0.357,0.077,0.604,0.481,0.604
		c0.646,0,1.525-0.893,1.879-1.344c0.152-0.186,0.65-0.813,0.65-1.093c0-0.065-0.02-0.114-0.079-0.114
		c-0.126,0-0.182,0.128-0.233,0.204c-0.186,0.327-0.97,1.409-1.342,1.409c-0.151,0-0.217-0.146-0.217-0.27
		c0-0.216,0.094-0.433,0.153-0.614l2.645-8.614c0.015-0.062,0.088-0.296,0.088-0.375c0-0.08-0.042-0.133-0.117-0.133
		c-0.049,0-0.11,0.045-0.142,0.053c-0.508,0.394-1.16,0.558-1.777,0.593c-0.151,0-0.46-0.018-0.46,0.199
		c0,0.11,0.071,0.172,0.186,0.172l0.241-0.013c0.268-0.018,0.604,0.031,0.604,0.384c0,0.138-0.106,0.487-0.155,0.633
		L235.506,101.056"/>
	<path fill="#D13239" d="M246.991,97.758c0.122-0.333,0.293-0.778,0.293-1.133c0-0.558-0.432-0.862-0.96-0.862
		c-1.987,0-3.792,2.716-4.646,4.259l-0.03-0.03l0.667-2.115c0.124-0.411,0.262-0.91,0.262-1.357c0-0.451-0.154-0.756-0.633-0.756
		c-0.649,0-1.457,0.774-1.842,1.234c-0.121,0.124-0.663,0.835-0.663,1.004c0,0.079,0.064,0.11,0.126,0.11
		c0.093,0,0.138-0.094,0.171-0.168c0.181-0.333,1.03-1.362,1.439-1.362c0.229,0,0.305,0.169,0.305,0.371
		c0,0.261-0.106,0.602-0.186,0.85l-1.378,4.492c-0.028,0.08-0.088,0.278-0.088,0.358c0,0.257,0.324,0.186,0.479,0.186
		c0.491,0,0.491-0.084,0.633-0.526c0.367-1.207,1.557-3.259,2.377-4.231c0.478-0.558,1.452-1.703,2.269-1.703
		c0.357,0,0.541,0.204,0.541,0.54c0,0.282-0.123,0.575-0.216,0.841l-1.1,2.914c-0.181,0.481-0.413,1.132-0.413,1.652
		c0,0.447,0.199,0.694,0.663,0.694c0.633,0,1.559-0.893,1.964-1.344c0.123-0.129,0.694-0.831,0.694-1.035
		c0-0.058-0.064-0.105-0.111-0.105c-0.088,0-0.156,0.092-0.186,0.155c-0.261,0.384-1.128,1.463-1.623,1.463
		c-0.186,0-0.291-0.105-0.291-0.31c0-0.213,0.151-0.584,0.233-0.787L246.991,97.758"/>
	<path fill-rule="evenodd" clip-rule="evenodd" fill="#D13239" d="M252.861,93.756c0-0.293-0.2-0.536-0.508-0.536
		c-0.453,0-0.788,0.58-0.788,0.982c0,0.292,0.153,0.57,0.479,0.57C252.525,94.772,252.861,94.189,252.861,93.756 M249.62,101.039
		c-0.11,0.375-0.28,0.964-0.28,1.361c0,0.354,0.082,0.618,0.481,0.618c0.645,0,1.513-0.893,1.88-1.361
		c0.157-0.199,0.652-0.832,0.652-1.097c0-0.063-0.018-0.102-0.093-0.102c-0.11,0-0.17,0.102-0.217,0.199
		c-0.186,0.305-0.973,1.406-1.358,1.406c-0.136,0-0.2-0.129-0.2-0.279c0-0.203,0.077-0.419,0.139-0.618l1.142-3.702
		c0.093-0.277,0.265-0.84,0.265-1.127c0-0.345-0.111-0.575-0.482-0.575c-0.585,0-1.435,0.756-1.824,1.128
		c-0.12,0.123-0.755,0.8-0.755,0.999c0,0.08,0.032,0.128,0.097,0.128c0.195,0,1.063-1.357,1.59-1.357
		c0.154,0,0.186,0.155,0.186,0.279c0,0.137-0.098,0.397-0.124,0.525L249.62,101.039z"/>
	<path fill-rule="evenodd" clip-rule="evenodd" fill="#D13239" d="M255.656,100.083c0.416,0.376,0.849,0.809,0.849,1.406
		c0,0.686-0.744,1.189-1.375,1.189c-1.375,0-1.648-1.662-2.069-1.662c-0.218,0-0.273,0.428-0.308,0.548
		c-0.028,0.11-0.14,0.371-0.14,0.5c0,0.181,0.216,0.336,0.355,0.429c0.494,0.326,1.191,0.525,1.776,0.525
		c0.635,0,1.312-0.199,1.84-0.57c0.429-0.322,0.893-0.941,0.893-1.517c0-1.587-2.547-2.555-2.547-3.794
		c0-0.619,0.495-1.034,1.098-1.034c0.65,0,1.058,0.415,1.498,0.849c0.089,0.094,0.336,0.354,0.478,0.354
		c0.199,0,0.229-0.327,0.279-0.447c0.028-0.123,0.105-0.322,0.105-0.451c0-0.539-1.557-0.646-1.868-0.646
		c-1.221,0-2.482,0.756-2.482,2.101c0,0.694,0.627,1.313,1.109,1.761L255.656,100.083 M256.998,94.189l-0.756-1.561
		c-0.186-0.403-0.152-0.421-0.63-0.421c-0.093,0-0.265-0.014-0.265,0.128c0,0.106,0.134,0.327,0.186,0.416l0.784,1.525
		c0.231,0.455,0.156,0.407,0.681,0.407c0.308,0,0.325,0,0.553-0.19l2.167-1.791c0.091-0.074,0.292-0.198,0.292-0.35
		c0-0.168-0.215-0.146-0.339-0.146c-0.34,0-0.354,0.035-0.617,0.266L256.998,94.189z"/>
	<path fill="#D13239" d="M261.683,96.391h1.186c0.093,0,0.31,0.018,0.356-0.088c0.046-0.105,0.063-0.138,0.063-0.217
		c0-0.138-0.31-0.093-0.341-0.093h-1.163l0.4-1.278c0.038-0.093,0.093-0.296,0.093-0.402c0-0.203-0.384-0.142-0.493-0.142
		c-0.184,0-0.449-0.044-0.541,0.168l-0.507,1.654h-0.926c-0.232,0-0.418-0.014-0.418,0.278c0,0.155,0.278,0.119,0.354,0.119h0.885
		l-1.378,4.479c-0.121,0.389-0.291,0.915-0.291,1.331c0,0.358,0.14,0.817,0.57,0.817c0.709,0,1.669-1.083,2.058-1.604
		c0.093-0.128,0.46-0.633,0.46-0.805c0-0.062-0.051-0.119-0.124-0.119c-0.079,0-0.126,0.105-0.172,0.182
		c-0.06,0.109-0.217,0.313-0.273,0.415c-0.218,0.292-0.792,1.039-1.159,1.039c-0.186,0-0.248-0.173-0.248-0.322
		c0-0.208,0.122-0.558,0.186-0.748L261.683,96.391"/>
	<path fill="#D13239" d="M266.078,97.425c0.137-0.349,0.296-0.721,0.296-1.109c0-0.354-0.186-0.553-0.543-0.553
		c-0.398,0-0.894,0.323-1.205,0.553c-0.493,0.371-0.757,0.637-1.107,1.133c-0.049,0.074-0.206,0.273-0.206,0.366
		c0,0.062,0.032,0.129,0.093,0.129c0.081,0,0.157-0.094,0.186-0.142c0.199-0.31,1.035-1.283,1.42-1.283
		c0.144,0,0.219,0.098,0.219,0.231c0,0.167-0.173,0.525-0.232,0.675l-1.114,2.756c-0.152,0.38-0.427,1.105-0.427,1.512
		c0,0.96,0.507,1.326,1.401,1.326c2.534,0,5.13-4.001,5.13-6.301c0-0.371-0.157-1.113-0.64-1.113c-0.319,0-0.523,0.405-0.523,0.685
		c0,0.306,0.139,0.526,0.296,0.757c0.14,0.211,0.186,0.366,0.186,0.632c0,1.653-2.227,4.833-3.997,4.833
		c-0.464,0-0.791-0.358-0.791-0.801c0-0.371,0.172-0.818,0.308-1.176L266.078,97.425"/>
	<path fill-rule="evenodd" clip-rule="evenodd" fill="#D13239" d="M276.178,98.08c0,1.662-1.105,4.599-3.1,4.599
		c-1.252,0-1.593-1.097-1.593-2.162c0-1.729,1.063-4.449,3.134-4.449C275.824,96.067,276.178,97.027,276.178,98.08 M277.243,98.778
		c0-1.533-1.094-3.016-2.717-3.016c-2.149,0-4.152,2.113-4.152,4.25c0,1.494,0.955,3.006,2.598,3.006
		c1.078,0,2.264-0.645,3.021-1.401C276.734,100.87,277.243,99.804,277.243,98.778"/>
	<path fill-rule="evenodd" clip-rule="evenodd" fill="#D13239" d="M103.627,110.487c0-0.292-0.205-0.544-0.512-0.544
		c-0.449,0-0.789,0.584-0.789,0.99c0,0.296,0.154,0.571,0.482,0.571C103.287,111.505,103.627,110.916,103.627,110.487
		 M100.383,117.774c-0.107,0.366-0.277,0.955-0.277,1.353c0,0.358,0.077,0.624,0.478,0.624c0.652,0,1.513-0.902,1.882-1.366
		c0.153-0.194,0.65-0.827,0.65-1.092c0-0.059-0.015-0.106-0.089-0.106c-0.11,0-0.175,0.106-0.218,0.198
		c-0.19,0.311-0.977,1.406-1.363,1.406c-0.135,0-0.199-0.128-0.199-0.278c0-0.198,0.077-0.42,0.138-0.619l1.146-3.705
		c0.088-0.278,0.265-0.836,0.265-1.123c0-0.345-0.115-0.575-0.486-0.575c-0.58,0-1.434,0.757-1.818,1.128
		c-0.122,0.124-0.756,0.8-0.756,1.008c0,0.07,0.032,0.12,0.088,0.12c0.204,0,1.071-1.357,1.595-1.357
		c0.153,0,0.186,0.154,0.186,0.277c0,0.138-0.093,0.403-0.125,0.522L100.383,117.774z"/>
	<path fill="#D13239" d="M111.869,114.484c0.123-0.323,0.293-0.773,0.293-1.132c0-0.553-0.431-0.862-0.956-0.862
		c-1.994,0-3.798,2.715-4.647,4.258l-0.037-0.026l0.667-2.113c0.125-0.42,0.268-0.91,0.268-1.361c0-0.447-0.161-0.757-0.639-0.757
		c-0.648,0-1.448,0.774-1.838,1.238c-0.12,0.123-0.659,0.831-0.659,1.004c0,0.075,0.062,0.105,0.12,0.105
		c0.093,0,0.141-0.092,0.172-0.172c0.186-0.323,1.035-1.354,1.435-1.354c0.231,0,0.305,0.168,0.305,0.372
		c0,0.257-0.106,0.597-0.185,0.844l-1.37,4.493c-0.032,0.079-0.098,0.278-0.098,0.354c0,0.264,0.326,0.189,0.483,0.189
		c0.493,0,0.493-0.08,0.636-0.526c0.371-1.203,1.555-3.259,2.375-4.231c0.478-0.557,1.449-1.702,2.269-1.702
		c0.352,0,0.542,0.207,0.542,0.543c0,0.279-0.125,0.575-0.222,0.836l-1.091,2.914c-0.186,0.482-0.421,1.132-0.421,1.654
		c0,0.446,0.205,0.698,0.668,0.698c0.63,0,1.559-0.902,1.958-1.345c0.125-0.128,0.695-0.835,0.695-1.03
		c0-0.07-0.062-0.109-0.107-0.109c-0.097,0-0.153,0.092-0.185,0.149c-0.261,0.385-1.127,1.469-1.624,1.469
		c-0.181,0-0.29-0.111-0.29-0.311c0-0.216,0.154-0.583,0.229-0.787L111.869,114.484"/>
	<path fill-rule="evenodd" clip-rule="evenodd" fill="#D13239" d="M121.97,110.487c0-0.292-0.2-0.544-0.509-0.544
		c-0.447,0-0.789,0.584-0.789,0.99c0,0.296,0.156,0.571,0.482,0.571C121.631,111.505,121.97,110.916,121.97,110.487
		 M118.728,117.774c-0.106,0.366-0.279,0.955-0.279,1.353c0,0.358,0.08,0.624,0.482,0.624c0.646,0,1.512-0.902,1.884-1.366
		c0.149-0.194,0.646-0.827,0.646-1.092c0-0.059-0.015-0.106-0.089-0.106c-0.112,0-0.172,0.106-0.217,0.198
		c-0.19,0.311-0.975,1.406-1.361,1.406c-0.138,0-0.199-0.128-0.199-0.278c0-0.198,0.075-0.42,0.136-0.619l1.146-3.705
		c0.088-0.278,0.263-0.836,0.263-1.123c0-0.345-0.106-0.575-0.482-0.575c-0.584,0-1.438,0.757-1.818,1.128
		c-0.125,0.124-0.76,0.8-0.76,1.008c0,0.07,0.032,0.12,0.093,0.12c0.204,0,1.071-1.357,1.596-1.357c0.149,0,0.181,0.154,0.181,0.277
		c0,0.138-0.093,0.403-0.121,0.522L118.728,117.774z"/>
	<path fill="#D13239" d="M130.214,114.484c0.13-0.323,0.293-0.773,0.293-1.132c0-0.553-0.434-0.862-0.957-0.862
		c-1.994,0-3.796,2.715-4.645,4.258l-0.033-0.026l0.664-2.113c0.121-0.42,0.265-0.91,0.265-1.361c0-0.447-0.159-0.757-0.637-0.757
		c-0.645,0-1.451,0.774-1.836,1.238c-0.122,0.123-0.668,0.831-0.668,1.004c0,0.075,0.068,0.105,0.125,0.105
		c0.093,0,0.143-0.092,0.171-0.172c0.181-0.323,1.034-1.354,1.434-1.354c0.235,0,0.31,0.168,0.31,0.372
		c0,0.257-0.106,0.597-0.18,0.844l-1.382,4.493c-0.024,0.079-0.088,0.278-0.088,0.354c0,0.264,0.324,0.189,0.473,0.189
		c0.501,0,0.501-0.08,0.637-0.526c0.374-1.203,1.562-3.259,2.379-4.231c0.479-0.557,1.451-1.702,2.27-1.702
		c0.353,0,0.541,0.207,0.541,0.543c0,0.279-0.121,0.575-0.213,0.836l-1.098,2.914c-0.186,0.482-0.419,1.132-0.419,1.654
		c0,0.446,0.205,0.698,0.663,0.698c0.637,0,1.56-0.902,1.963-1.345c0.121-0.128,0.695-0.835,0.695-1.03
		c0-0.07-0.064-0.109-0.107-0.109c-0.091,0-0.156,0.092-0.19,0.149c-0.257,0.385-1.122,1.469-1.619,1.469
		c-0.186,0-0.292-0.111-0.292-0.311c0-0.216,0.154-0.583,0.231-0.787L130.214,114.484"/>
	<path fill="#D13239" d="M135.021,113.127h1.233c0.093,0,0.279,0.026,0.358-0.079c0.041-0.11,0.059-0.154,0.059-0.212
		c0-0.142-0.31-0.115-0.353-0.115h-1.173l0.292-0.942c0.199-0.658,0.46-1.601,0.924-2.109c0.171-0.208,0.482-0.451,0.761-0.451
		c0.677,0,0.088,1.163,1.048,1.163c0.403,0,0.663-0.265,0.663-0.685c0-0.646-0.557-0.894-1.127-0.894
		c-0.738,0-1.792,0.606-2.301,1.128c-0.618,0.649-0.989,1.684-1.233,2.528l-0.079,0.262h-0.896c-0.245,0-0.436-0.014-0.436,0.297
		c0,0.153,0.283,0.109,0.36,0.109h0.849l-1.99,6.513c-0.218,0.713-0.602,2.039-0.987,2.641c-0.19,0.291-0.432,0.557-0.803,0.557
		c-0.311,0-0.311-0.221-0.296-0.464c0.018-0.446-0.153-0.911-0.665-0.911c-0.366,0-0.664,0.274-0.664,0.646
		c0,0.729,0.799,0.99,1.402,0.99c0.946,0,1.685-0.584,2.185-1.327c0.473-0.725,0.664-1.405,0.906-2.224L135.021,113.127"/>
	<path fill-rule="evenodd" clip-rule="evenodd" fill="#D13239" d="M142.415,114.808c0,1.667-1.11,4.599-3.104,4.599
		c-1.251,0-1.592-1.092-1.592-2.158c0-1.733,1.065-4.448,3.132-4.448C142.062,112.8,142.415,113.76,142.415,114.808
		 M143.481,115.502c0-1.521-1.099-3.012-2.717-3.012c-2.149,0-4.154,2.118-4.154,4.245c0,1.499,0.953,3.016,2.594,3.016
		c1.08,0,2.269-0.65,3.024-1.41C142.972,117.602,143.481,116.536,143.481,115.502"/>
	<path fill-rule="evenodd" clip-rule="evenodd" fill="#D13239" d="M144.873,118.929c-0.017,0.066-0.11,0.357-0.11,0.438
		c0,0.229,0.292,0.199,0.435,0.199c0.618,0,0.573-0.124,0.743-0.694c0.292-0.99,1.294-2.892,1.865-3.785
		c0.168-0.278,1.115-1.671,1.531-1.671c0.415,0-0.014,0.756,0.756,0.756c0.46,0,0.707-0.486,0.707-0.906
		c0-0.479-0.306-0.774-0.771-0.774c-1.327,0-2.843,3.117-3.414,4.14l0.664-2.176c0.11-0.341,0.217-0.682,0.217-1.049
		c0-0.34-0.107-0.915-0.57-0.915c-0.507,0-1.221,0.637-1.542,1.004c-0.156,0.172-0.788,0.911-0.788,1.158
		c0,0.067,0.043,0.106,0.107,0.106c0.092,0,0.185-0.168,0.231-0.23l0.139-0.198c0.186-0.261,0.786-1.035,1.146-1.035
		c0.167,0,0.199,0.186,0.199,0.323c0,0.278-0.111,0.619-0.186,0.897L144.873,118.929"/>
	<path fill-rule="evenodd" clip-rule="evenodd" fill="#D13239" d="M153.395,116.522l0.631-2.056
		c0.125-0.397,0.233-0.831,0.233-1.251c0-0.288-0.028-0.726-0.418-0.726c-0.631,0-1.438,0.757-1.852,1.176
		c-0.125,0.12-0.77,0.876-0.77,1.054c0,0.057,0.029,0.118,0.106,0.118c0.123,0,0.247-0.212,0.308-0.31
		c0.186-0.277,0.974-1.189,1.328-1.189c0.143,0,0.186,0.173,0.186,0.279c0,0.292-0.089,0.57-0.168,0.849l-1.374,4.462
		c-0.033,0.124-0.093,0.31-0.093,0.447c0,0.247,0.339,0.189,0.492,0.189c0.542,0,0.465-0.018,0.646-0.602
		c0.385-1.3,1.377-3.091,2.194-4.174c0.31-0.403,1.265-1.587,1.883-1.587c0.329,0,0.449,0.26,0.449,0.557
		c0,0.31-0.12,0.694-0.214,0.986l-1.283,4.195c-0.016,0.067-0.122,0.389-0.122,0.447c0,0.234,0.414,0.177,0.525,0.177
		c0.534,0,0.491-0.098,0.627-0.57c0.36-1.182,1.257-2.874,1.951-3.892c0.386-0.575,1.406-1.919,2.177-1.919
		c0.339,0,0.506,0.142,0.506,0.514c0,0.371-0.272,1.109-0.396,1.467l-0.806,2.22c-0.154,0.451-0.428,1.203-0.428,1.668
		c0,0.415,0.148,0.698,0.595,0.698c0.649,0,1.47-0.774,1.858-1.221c0.167-0.189,0.769-0.91,0.769-1.189
		c0-0.062-0.048-0.106-0.122-0.106c-0.063,0-0.105,0.071-0.138,0.12c-0.247,0.389-1.102,1.587-1.593,1.587
		c-0.168,0-0.246-0.132-0.246-0.292c0-0.216,0.048-0.335,0.121-0.534l1.16-3.188c0.171-0.473,0.341-0.999,0.341-1.512
		c0-0.579-0.373-0.925-0.974-0.925c-0.821,0-1.809,0.822-2.299,1.406c-0.693,0.823-1.221,1.777-1.746,2.715l0.479-1.574
		c0.121-0.411,0.246-0.866,0.246-1.309c0-0.588-0.218-1.238-0.91-1.238c-1.438,0-3.011,2.577-3.659,3.696L153.395,116.522"/>
	<path fill-rule="evenodd" clip-rule="evenodd" fill="#D13239" d="M170.195,113.592c0,0.707-1.267,2.467-1.697,3.006
		c-0.537,0.682-1.918,2.331-2.854,2.331c-0.496,0-0.71-0.509-0.71-0.938c0-0.978,0.815-2.538,1.401-3.271
		c0.652-0.85,1.749-1.934,2.872-1.934C169.731,112.786,170.195,113.018,170.195,113.592 M170.428,113.034
		c-0.325-0.42-0.663-0.544-1.186-0.544c-1.405,0-2.794,0.88-3.742,1.87c-0.874,0.929-1.771,2.485-1.771,3.794
		c0,0.761,0.352,1.597,1.221,1.597c1.822,0,3.892-2.949,4.754-4.368l-0.942,3.051c-0.075,0.265-0.171,0.575-0.171,0.866
		c0,0.266,0.144,0.451,0.419,0.451c0.618,0,1.449-0.729,1.839-1.146c0.186-0.199,0.817-1.004,0.817-1.282
		c0-0.057-0.05-0.124-0.11-0.124c-0.105,0-0.219,0.199-0.261,0.279c-0.182,0.296-0.91,1.265-1.295,1.265
		c-0.124,0-0.155-0.107-0.155-0.23c0-0.137,0.091-0.385,0.123-0.508l1.588-5.219c0.019-0.065,0.078-0.229,0.078-0.31
		c0-0.216-0.432-0.142-0.521-0.142c-0.513,0-0.481,0.08-0.637,0.559L170.428,113.034z"/>
	<path fill="#D13239" d="M175.493,113.127h1.191c0.092,0,0.312,0.014,0.357-0.093c0.042-0.106,0.056-0.141,0.056-0.221
		c0-0.138-0.308-0.093-0.334-0.093h-1.158l0.398-1.278c0.034-0.093,0.096-0.291,0.096-0.398c0-0.203-0.389-0.142-0.494-0.142
		c-0.187,0-0.446-0.048-0.544,0.169l-0.511,1.649h-0.922c-0.235,0-0.415-0.014-0.415,0.283c0,0.149,0.273,0.123,0.354,0.123h0.872
		l-1.367,4.475c-0.122,0.39-0.292,0.911-0.292,1.327c0,0.357,0.137,0.822,0.575,0.822c0.707,0,1.66-1.088,2.048-1.61
		c0.09-0.118,0.461-0.627,0.461-0.8c0-0.062-0.042-0.124-0.122-0.124c-0.077,0-0.124,0.106-0.17,0.182
		c-0.06,0.115-0.215,0.313-0.278,0.415c-0.215,0.302-0.785,1.035-1.156,1.035c-0.186,0-0.25-0.163-0.25-0.318
		c0-0.208,0.126-0.557,0.186-0.743L175.493,113.127"/>
	<path fill-rule="evenodd" clip-rule="evenodd" fill="#D13239" d="M181.194,110.487c0-0.292-0.203-0.544-0.511-0.544
		c-0.449,0-0.784,0.584-0.784,0.99c0,0.296,0.154,0.571,0.477,0.571C180.854,111.505,181.194,110.916,181.194,110.487
		 M177.946,117.774c-0.106,0.366-0.271,0.955-0.271,1.353c0,0.358,0.073,0.624,0.477,0.624c0.648,0,1.513-0.902,1.884-1.366
		c0.155-0.194,0.648-0.827,0.648-1.092c0-0.059-0.018-0.106-0.093-0.106c-0.11,0-0.17,0.106-0.215,0.198
		c-0.186,0.311-0.973,1.406-1.362,1.406c-0.139,0-0.198-0.128-0.198-0.278c0-0.198,0.078-0.42,0.137-0.619l1.146-3.705
		c0.093-0.278,0.266-0.836,0.266-1.123c0-0.345-0.11-0.575-0.481-0.575c-0.589,0-1.434,0.757-1.822,1.128
		c-0.126,0.124-0.757,0.8-0.757,1.008c0,0.07,0.032,0.12,0.094,0.12c0.198,0,1.065-1.357,1.589-1.357
		c0.152,0,0.182,0.154,0.182,0.277c0,0.138-0.094,0.403-0.122,0.522L177.946,117.774z"/>
	<path fill-rule="evenodd" clip-rule="evenodd" fill="#D13239" d="M183.586,116.536c0.553-1.048,2.211-3.409,3.5-3.409
		c0.423,0,0.688,0.306,0.688,0.707c0,0.744-0.578,1.407-1.147,1.84c-0.741,0.558-1.744,0.862-2.67,0.862H183.586 M183.45,116.81
		c0.477-0.088,0.704,0.407,0.861,0.762c0.446,1.017,0.911,2.18,2.204,2.18c0.82,0,1.581-0.544,1.581-1.393
		c0-0.43-0.234-0.845-0.715-0.845c-0.228,0-0.384,0.198-0.384,0.415c0,0.554,0.659,0.323,0.659,0.845
		c0,0.354-0.334,0.593-0.659,0.593c-0.679,0-1.039-0.897-1.28-1.405c-0.236-0.496-0.478-1.04-1.021-1.239
		c0.915-0.142,1.901-0.273,2.701-0.756c0.757-0.451,1.455-1.189,1.455-2.114c0-0.725-0.557-1.361-1.302-1.361
		c-1.51,0-3.318,2.317-3.995,3.56l2.036-6.677c0.033-0.075,0.126-0.371,0.126-0.465c0-0.058-0.047-0.105-0.106-0.105
		c-0.048,0-0.13,0.031-0.177,0.048c-0.604,0.35-1.076,0.381-1.755,0.381c-0.124,0-0.355-0.014-0.355,0.159
		c0,0.168,0.151,0.15,0.273,0.15c0.278,0.018,0.683,0.05,0.683,0.415c0,0.222-0.142,0.65-0.201,0.868l-2.501,8.215
		c-0.03,0.088-0.096,0.278-0.096,0.367c0,0.217,0.406,0.159,0.515,0.159c0.599,0,0.478-0.142,0.692-0.717L183.45,116.81z"/>
	<path fill-rule="evenodd" clip-rule="evenodd" fill="#D13239" d="M195.116,114.808c0,1.667-1.108,4.599-3.098,4.599
		c-1.254,0-1.592-1.092-1.592-2.158c0-1.733,1.066-4.448,3.13-4.448C194.765,112.8,195.116,113.76,195.116,114.808 M196.184,115.502
		c0-1.521-1.092-3.012-2.715-3.012c-2.149,0-4.151,2.118-4.151,4.245c0,1.499,0.954,3.016,2.593,3.016c1.082,0,2.271-0.65,3.02-1.41
		C195.674,117.602,196.184,116.536,196.184,115.502"/>
	<path fill="#231F20" d="M108.225,83.108c0,0.773,0.018,1.468-0.553,2.052c-0.636,0.637-1.623,0.835-2.501,0.835
		c-0.849,0-2.022-0.212-2.499-1.004c-0.357-0.569-0.326-1.697-0.326-2.374v-4.354c0-0.975-0.07-1.262,0.999-1.262
		c0.147,0,0.407,0,0.407-0.208c0-0.166-0.124-0.216-0.26-0.216c-0.589,0-1.177,0.064-1.767,0.064c-0.581,0-1.141-0.064-1.727-0.064
		c-0.152,0-0.263,0.051-0.263,0.216c0,0.208,0.249,0.208,0.389,0.208c1.081,0,1.001,0.287,1.001,1.262v4.845
		c0,1.021-0.014,1.905,0.91,2.569c0.773,0.534,1.962,0.702,2.871,0.702c1.026,0,2.13-0.149,2.904-0.818
		c0.835-0.725,0.849-1.463,0.849-2.453v-4.814c0-0.714-0.078-1.293,0.804-1.293c0.143,0,0.496,0,0.496-0.222
		c0-0.186-0.204-0.203-0.326-0.203c-0.397,0-0.801,0.064-1.205,0.064c-0.463,0-0.923-0.064-1.392-0.064
		c-0.149,0-0.323,0.051-0.323,0.216c0,0.219,0.28,0.208,0.421,0.208c0.353,0,0.738,0.011,0.924,0.349
		c0.185,0.312,0.167,1.158,0.167,1.527V83.108"/>
	<path fill="#231F20" d="M110.975,84.62c0,0.668,0.143,1.193-0.692,1.27c-0.17,0.013-0.43-0.019-0.43,0.212
		c0,0.129,0.106,0.159,0.217,0.159c0.478,0,0.974-0.063,1.462-0.063c0.459,0,0.96,0.063,1.456,0.063
		c0.106,0,0.181-0.049,0.181-0.172c0-0.199-0.279-0.187-0.428-0.199c-0.837-0.076-0.695-0.602-0.695-1.27v-2.591
		c0-0.619,0.047-0.96,0.492-1.425c0.4-0.415,0.946-0.662,1.53-0.662c0.6,0,1.157,0.247,1.454,0.698
		c0.274,0.415,0.274,1.03,0.274,1.526v2.453c0,0.668,0.138,1.193-0.693,1.27c-0.17,0.013-0.435-0.019-0.435,0.212
		c0,0.129,0.111,0.159,0.217,0.159c0.478,0,0.975-0.063,1.467-0.063c0.465,0,0.961,0.063,1.452,0.063
		c0.106,0,0.186-0.049,0.186-0.172c0-0.199-0.278-0.187-0.432-0.199c-0.838-0.076-0.695-0.602-0.695-1.27v-2.432
		c0-0.748,0.032-1.504-0.464-2.14c-0.43-0.553-1.048-0.827-1.822-0.827c-1.406,0-2.268,1.265-2.529,1.265v-1.021
		c0-0.102,0.013-0.243-0.143-0.243c-0.122,0-0.197,0.123-0.274,0.199c-0.247,0.291-0.914,0.694-1.286,0.8
		c-0.138,0.049-0.348,0.08-0.348,0.266c0,0.092,0.088,0.118,0.18,0.118h0.205c0.117,0,0.348,0.019,0.446,0.129
		c0.167,0.164,0.149,0.77,0.149,0.986V84.62"/>
	<path fill-rule="evenodd" clip-rule="evenodd" fill="#231F20" d="M120.426,77.876c0.45,0,0.681-0.356,0.681-0.773
		c0-0.369-0.245-0.738-0.645-0.738c-0.417,0-0.695,0.369-0.695,0.769C119.767,77.538,120.013,77.876,120.426,77.876 M120.968,79.465
		c0-0.102,0.014-0.243-0.136-0.243c-0.128,0-0.203,0.123-0.283,0.199c-0.244,0.291-0.912,0.694-1.279,0.8
		c-0.14,0.049-0.352,0.08-0.352,0.266c0,0.092,0.088,0.118,0.181,0.118h0.204c0.125,0,0.353,0.019,0.446,0.129
		c0.168,0.164,0.157,0.77,0.157,0.986v2.9c0,0.668,0.141,1.193-0.695,1.27c-0.173,0.013-0.428-0.019-0.428,0.212
		c0,0.129,0.104,0.159,0.21,0.159c0.479,0,0.974-0.063,1.47-0.063c0.458,0,0.955,0.063,1.448,0.063c0.107,0,0.186-0.049,0.186-0.172
		c0-0.199-0.279-0.187-0.428-0.199c-0.836-0.076-0.7-0.602-0.7-1.27V79.465z"/>
	<path fill="#231F20" d="M126.232,84.788l-1.577-3.855c-0.079-0.181-0.247-0.575-0.247-0.773c0-0.292,0.292-0.43,0.571-0.43
		c0.112,0,0.432,0.045,0.432-0.141c0-0.187-0.154-0.168-0.296-0.168h-2.789c-0.125,0-0.235-0.019-0.235,0.136
		c0,0.172,0.175,0.172,0.292,0.172c0.65,0.032,0.731,0.319,0.96,0.894l2.241,5.403l0.088,0.204c0.018,0.062,0.063,0.149,0.147,0.149
		c0.12,0,0.227-0.305,0.256-0.354l2.206-4.784c0.261-0.566,0.544-1.419,1.268-1.513c0.125-0.018,0.385-0.018,0.385-0.203
		c0-0.138-0.074-0.105-0.199-0.105h-2.272c-0.123,0-0.229,0-0.229,0.136c0,0.172,0.279,0.172,0.417,0.172
		c0.279,0,0.601,0.106,0.601,0.412c0,0.186-0.125,0.499-0.2,0.667L126.232,84.788"/>
	<path fill-rule="evenodd" clip-rule="evenodd" fill="#231F20" d="M131.143,81.626c-0.168,0-0.525,0.045-0.525-0.198
		c0-0.252,0.26-0.729,0.389-0.897c0.478-0.65,1.221-1.035,2.009-1.035c0.489,0,1.003,0.124,1.342,0.478
		c0.214,0.234,0.404,0.593,0.404,0.911c0,0.376-0.233,0.544-0.57,0.619c-0.451,0.111-1.313,0.123-1.795,0.123H131.143
		 M135.809,82.003c0.153,0,0.181-0.142,0.181-0.266c0-0.513-0.229-1.171-0.535-1.561c-0.543-0.664-1.392-0.955-2.226-0.955
		c-1.05,0-2.005,0.354-2.78,1.035c-0.817,0.707-1.108,1.524-1.108,2.572c0,1.933,1.499,3.551,3.518,3.551
		c0.956,0,1.712-0.243,2.441-0.862c0.105-0.093,0.598-0.504,0.598-0.689c0-0.066-0.043-0.128-0.121-0.128
		c-0.201,0-0.771,1.003-2.284,1.003c-1.873,0-2.996-1.498-2.996-3.228c0-0.508,0.152-0.473,0.635-0.473H135.809z"/>
	<path fill="#231F20" d="M137.543,84.62c0,0.668,0.14,1.193-0.695,1.27c-0.172,0.013-0.437-0.019-0.437,0.212
		c0,0.129,0.108,0.159,0.219,0.159c0.477,0,0.974-0.063,1.464-0.063c0.465,0,0.957,0.063,1.45,0.063c0.11,0,0.19-0.049,0.19-0.172
		c0-0.199-0.278-0.187-0.432-0.199c-0.835-0.076-0.695-0.602-0.695-1.27v-2.432c0-0.624-0.028-1.025,0.356-1.548
		c0.167-0.234,0.445-0.562,0.785-0.562c0.432,0,0.46,0.597,0.987,0.597c0.372,0,0.65-0.239,0.65-0.627
		c0-0.459-0.417-0.738-0.875-0.738c-1.069,0-1.672,1.238-1.825,1.238c-0.106,0-0.078-0.261-0.078-0.327v-0.756
		c0-0.102,0.015-0.243-0.14-0.243c-0.125,0-0.199,0.123-0.274,0.199c-0.249,0.291-0.912,0.694-1.288,0.8
		c-0.136,0.049-0.353,0.08-0.353,0.266c0,0.092,0.093,0.118,0.186,0.118h0.199c0.124,0,0.357,0.019,0.45,0.129
		c0.17,0.164,0.157,0.77,0.157,0.986V84.62"/>
	<path fill="#231F20" d="M147.667,79.973c0.064-0.076,0.25-0.323,0.25-0.447c0-0.138-0.186-0.105-0.274-0.105h-3.772
		c-0.384,0-0.783,0.03-0.783-0.447c0-0.112-0.022-0.248-0.158-0.248c-0.156,0-0.249,0.336-0.276,0.43l-0.406,1.172
		c-0.013,0.048-0.106,0.296-0.106,0.357c0,0.08,0.061,0.124,0.141,0.124c0.125,0,0.199-0.154,0.263-0.242
		c0.167-0.253,0.489-0.518,0.771-0.637c0.369-0.168,0.849-0.128,1.234-0.128h1.544c0.08,0,0.261,0,0.261,0.115
		c0,0.092-0.136,0.273-0.181,0.341l-4.106,5.429c-0.033,0.063-0.218,0.262-0.218,0.358c0,0.234,0.433,0.154,0.557,0.154h5.248
		c0.311,0.032,0.231-0.357,0.231-0.543l0.032-0.756c0-0.111,0.074-0.589-0.143-0.589c-0.151,0-0.182,0.199-0.213,0.31
		c-0.158,0.402-0.308,0.778-0.693,0.991c-0.403,0.212-1.085,0.229-1.548,0.229h-1.341c-0.061,0-0.538,0.03-0.538-0.124
		c0-0.105,0.181-0.318,0.244-0.385L147.667,79.973"/>
	<path fill-rule="evenodd" clip-rule="evenodd" fill="#231F20" d="M152.598,82.6c0.046-0.018,0.125-0.062,0.167-0.062
		c0.152,0,0.111,0.371,0.111,0.429v0.933c0,0.509-0.019,0.77-0.389,1.154c-0.372,0.371-0.897,0.624-1.434,0.624
		c-0.575,0-1.063-0.315-1.063-0.916c0-0.747,0.599-1.142,1.201-1.445L152.598,82.6 M151.118,82.997
		c-0.868,0.407-2.287,1.074-2.287,2.163c0,0.773,0.724,1.22,1.447,1.22c1.347,0,2.353-1.172,2.488-1.172
		c0.218,0,0.297,1.084,1.049,1.084c0.402,0,0.792-0.235,1.098-0.451c0.108-0.093,0.371-0.305,0.371-0.479
		c0-0.062-0.045-0.123-0.106-0.123c-0.143,0-0.31,0.385-0.699,0.385c-0.553,0-0.535-0.889-0.535-1.233v-3.639
		c0-0.425,0.057-0.81-0.31-1.132c-0.358-0.31-0.928-0.398-1.406-0.398c-0.987,0-2.037,0.416-2.759,1.065
		c-0.297,0.243-0.655,0.69-0.655,1.092c0,0.155,0.079,0.186,0.2,0.186c0.19,0,0.514-0.124,0.667-0.203
		c0.247-0.102,0.324-0.322,0.432-0.553c0.356-0.787,0.833-1.296,1.775-1.296c0.953,0,0.989,0.629,0.989,1.385v0.685
		c0,0.585-0.019,0.606-0.57,0.862L151.118,82.997z"/>
	<path fill="#231F20" d="M164.164,80.796c0.139-0.359,0.292-0.73,0.292-1.115c0-0.354-0.186-0.557-0.542-0.557
		c-0.399,0-0.893,0.327-1.198,0.557c-0.5,0.367-0.762,0.632-1.114,1.127c-0.05,0.075-0.199,0.278-0.199,0.367
		c0,0.066,0.024,0.129,0.093,0.129c0.074,0,0.149-0.094,0.186-0.142c0.199-0.306,1.035-1.283,1.42-1.283
		c0.135,0,0.215,0.093,0.215,0.235c0,0.172-0.173,0.526-0.232,0.681l-1.11,2.746c-0.156,0.384-0.43,1.109-0.43,1.512
		c0,0.959,0.504,1.326,1.4,1.326c2.531,0,5.127-3.993,5.127-6.301c0-0.367-0.155-1.105-0.632-1.105
		c-0.323,0-0.529,0.398-0.529,0.677c0,0.31,0.145,0.526,0.295,0.756c0.137,0.217,0.19,0.372,0.19,0.633
		c0,1.648-2.225,4.832-4.002,4.832c-0.463,0-0.787-0.354-0.787-0.804c0-0.367,0.173-0.814,0.31-1.168L164.164,80.796"/>
	<path fill="#231F20" d="M178.82,84.55c0.035-0.115,0.093-0.297,0.093-0.421c0-0.092-0.058-0.142-0.155-0.142
		c-0.168,0-0.263,0.279-0.323,0.403c-0.756,1.543-1.87,1.423-3.364,1.423c-0.266,0-0.637,0.058-0.637-0.313
		c0-0.138,0.079-0.385,0.121-0.521l2.104-6.842c0.233-0.738,0.327-1.191,1.361-1.174c0.15,0,0.459,0.038,0.459-0.201
		c0-0.168-0.156-0.186-0.291-0.186c-0.602,0.018-1.22,0.064-1.822,0.064c-0.477,0-0.954-0.046-1.438-0.064
		c-0.122,0-0.478-0.077-0.478,0.128c0,0.228,0.219,0.276,0.385,0.258c0.329-0.044,0.755-0.06,0.755,0.407
		c0,0.194-0.12,0.57-0.178,0.755l-1.992,6.495c-0.111,0.345-0.232,0.836-0.528,1.058c-0.218,0.163-0.553,0.163-0.818,0.163
		c-0.17,0.018-0.397,0.018-0.397,0.248c0,0.203,0.646,0.109,0.813,0.109h5.265c0.547,0,0.557,0,0.715-0.495L178.82,84.55"/>
	<path fill-rule="evenodd" clip-rule="evenodd" fill="#231F20" d="M182.884,80.809c0.093-0.278,0.261-0.835,0.261-1.114
		c0-0.331-0.108-0.57-0.48-0.57c-0.585,0-1.423,0.755-1.804,1.132c-0.121,0.101-0.771,0.782-0.771,0.985
		c0,0.075,0.028,0.119,0.104,0.119c0.203,0,1.048-1.34,1.594-1.34c0.142,0,0.186,0.155,0.186,0.279c0,0.124-0.111,0.384-0.137,0.508
		l-2.273,7.424c-0.142,0.479-0.312,1.251-0.942,1.251c-0.648,0-0.585-0.954-1.215-0.954c-0.296,0-0.527,0.243-0.527,0.543
		c0,0.585,0.708,0.766,1.19,0.766c0.676,0,1.37-0.341,1.846-0.817c0.622-0.629,0.96-1.588,1.209-2.406L182.884,80.809
		 M183.978,77.12c0-0.296-0.186-0.543-0.493-0.543c-0.448,0-0.787,0.585-0.787,0.973c0,0.31,0.152,0.588,0.478,0.588
		C183.657,78.137,183.978,77.549,183.978,77.12"/>
	<path fill-rule="evenodd" clip-rule="evenodd" fill="#231F20" d="M189.888,82.259l-0.677,2.193
		c-0.106,0.376-0.278,0.973-0.278,1.361c0,0.262,0.098,0.566,0.413,0.566c0.732,0,1.674-0.769,2.12-1.273
		c0.123-0.142,0.783-0.978,0.783-1.193c0-0.062-0.04-0.111-0.102-0.111c-0.08,0-0.149,0.111-0.186,0.173
		c-0.255,0.416-1.1,1.525-1.623,1.525c-0.169,0-0.248-0.168-0.248-0.306c0-0.181,0.079-0.459,0.142-0.645l1.492-4.899
		c0.033-0.093,0.094-0.262,0.094-0.371c0-0.231-0.399-0.155-0.521-0.155c-0.588,0-0.481,0.079-0.649,0.65
		c-0.479,1.543-1.234,2.913-2.299,4.139c-0.435,0.509-1.719,1.772-2.441,1.772c-0.278,0-0.418-0.168-0.418-0.429
		c0-0.222,0.107-0.539,0.17-0.747l1.231-3.684c0.11-0.31,0.236-0.698,0.236-1.025c0-0.319-0.109-0.677-0.497-0.677
		c-0.57,0-1.345,0.663-1.702,1.017c-0.147,0.172-0.824,1.012-0.824,1.269c0,0.063,0.013,0.093,0.072,0.093
		c0.144,0,0.279-0.243,0.343-0.34c0.199-0.293,0.897-1.203,1.296-1.203c0.167,0,0.217,0.119,0.217,0.261
		c0,0.154-0.124,0.464-0.171,0.605l-1.204,3.502c-0.125,0.358-0.295,0.88-0.295,1.252c0,0.464,0.17,0.8,0.664,0.8
		c0.937,0,1.992-0.786,2.659-1.389c0.938-0.845,1.387-1.557,2.096-2.577L189.888,82.259"/>
	<path fill-rule="evenodd" clip-rule="evenodd" fill="#231F20" d="M199.542,81.193c0,1.853-1.912,4.926-3.953,4.926
		c-0.63,0-1.141-0.306-1.141-0.99c0-1.464,2.641-5.293,4.229-5.293C199.39,79.836,199.542,80.641,199.542,81.193 M193.984,82.785
		c-0.166,0.571-0.4,1.189-0.4,1.809c0,1.22,0.885,1.786,2.038,1.786c2.611,0,5.081-2.586,5.081-5.187
		c0-0.973-0.446-2.069-1.574-2.069c-1.499,0-3.367,2.303-4.046,3.524l2.132-7.059c0-0.108-0.044-0.152-0.138-0.152
		c-0.066,0-0.124,0.029-0.159,0.06c-0.535,0.34-0.973,0.387-1.587,0.387c-0.155,0-0.478,0.031-0.478,0.243
		c0,0.188,0.443,0.157,0.537,0.157c0.25,0,0.417,0.066,0.417,0.356c0,0.183-0.125,0.583-0.186,0.772L193.984,82.785z"/>
	<path fill="#231F20" d="M201.649,84.422c-0.126,0.406-0.279,0.924-0.279,1.361c0,0.354,0.076,0.597,0.479,0.597
		c0.646,0,1.529-0.894,1.883-1.345c0.153-0.181,0.65-0.813,0.65-1.092c0-0.062-0.02-0.11-0.08-0.11
		c-0.126,0-0.186,0.128-0.235,0.204c-0.182,0.323-0.967,1.405-1.339,1.405c-0.156,0-0.216-0.142-0.216-0.26
		c0-0.218,0.092-0.435,0.152-0.624l2.64-8.617c0.02-0.057,0.088-0.292,0.088-0.362c0-0.082-0.042-0.142-0.112-0.142
		c-0.048,0-0.11,0.044-0.142,0.06c-0.511,0.387-1.161,0.56-1.777,0.588c-0.15,0-0.46-0.017-0.46,0.199
		c0,0.108,0.076,0.17,0.186,0.17l0.242-0.013c0.265-0.015,0.603,0.031,0.603,0.382c0,0.14-0.105,0.496-0.154,0.637L201.649,84.422"
		/>
	<path fill-rule="evenodd" clip-rule="evenodd" fill="#231F20" d="M208.459,80.809c0.088-0.278,0.266-0.835,0.266-1.114
		c0-0.331-0.111-0.57-0.487-0.57c-0.59,0-1.421,0.755-1.806,1.132c-0.122,0.101-0.771,0.782-0.771,0.985
		c0,0.075,0.034,0.119,0.107,0.119c0.205,0,1.048-1.34,1.591-1.34c0.14,0,0.188,0.155,0.188,0.279c0,0.124-0.11,0.384-0.141,0.508
		l-2.27,7.424c-0.142,0.479-0.315,1.251-0.941,1.251c-0.65,0-0.591-0.954-1.22-0.954c-0.293,0-0.526,0.243-0.526,0.543
		c0,0.585,0.706,0.766,1.189,0.766c0.676,0,1.372-0.341,1.85-0.817c0.621-0.629,0.958-1.588,1.205-2.406L208.459,80.809
		 M209.549,77.12c0-0.296-0.18-0.543-0.493-0.543c-0.442,0-0.787,0.585-0.787,0.973c0,0.31,0.159,0.588,0.481,0.588
		C209.228,78.137,209.549,77.549,209.549,77.12"/>
	<path fill-rule="evenodd" clip-rule="evenodd" fill="#231F20" d="M215.71,80.221c0,0.712-1.266,2.467-1.697,3.012
		c-0.54,0.681-1.917,2.329-2.859,2.329c-0.493,0-0.705-0.508-0.705-0.941c0-0.968,0.814-2.529,1.406-3.271
		c0.646-0.85,1.74-1.928,2.867-1.928C215.251,79.421,215.71,79.65,215.71,80.221 M215.945,79.668
		c-0.327-0.416-0.669-0.543-1.189-0.543c-1.407,0-2.8,0.884-3.736,1.875c-0.885,0.92-1.778,2.476-1.778,3.789
		c0,0.762,0.354,1.592,1.22,1.592c1.824,0,3.89-2.945,4.758-4.368l-0.945,3.056c-0.075,0.265-0.168,0.574-0.168,0.866
		c0,0.265,0.142,0.446,0.42,0.446c0.615,0,1.445-0.725,1.835-1.141c0.186-0.204,0.816-1.004,0.816-1.278
		c0-0.062-0.042-0.128-0.104-0.128c-0.111,0-0.221,0.204-0.268,0.278c-0.186,0.297-0.909,1.27-1.293,1.27
		c-0.126,0-0.155-0.11-0.155-0.234c0-0.133,0.094-0.385,0.122-0.509l1.594-5.217c0.011-0.058,0.075-0.235,0.075-0.315
		c0-0.211-0.432-0.132-0.528-0.132c-0.507,0-0.479,0.075-0.63,0.553L215.945,79.668z"/>
	<path fill="#231F20" d="M225.948,81.113c0.127-0.317,0.297-0.769,0.297-1.123c0-0.557-0.436-0.866-0.962-0.866
		c-1.985,0-3.794,2.719-4.643,4.266l-0.031-0.034l0.668-2.114c0.114-0.416,0.254-0.915,0.254-1.362c0-0.446-0.152-0.755-0.63-0.755
		c-0.646,0-1.452,0.773-1.841,1.233c-0.118,0.129-0.659,0.836-0.659,1.004c0,0.079,0.059,0.111,0.126,0.111
		c0.093,0,0.137-0.094,0.166-0.168c0.186-0.327,1.034-1.362,1.438-1.362c0.23,0,0.31,0.172,0.31,0.371
		c0,0.265-0.11,0.602-0.186,0.85l-1.377,4.492c-0.029,0.08-0.094,0.278-0.094,0.357c0,0.266,0.325,0.186,0.479,0.186
		c0.497,0,0.497-0.079,0.634-0.521c0.372-1.208,1.562-3.264,2.377-4.237c0.482-0.557,1.452-1.698,2.269-1.698
		c0.359,0,0.541,0.2,0.541,0.544c0,0.279-0.118,0.57-0.212,0.826l-1.102,2.924c-0.184,0.473-0.415,1.123-0.415,1.648
		c0,0.451,0.199,0.694,0.668,0.694c0.632,0,1.554-0.894,1.959-1.345c0.123-0.123,0.694-0.83,0.694-1.034
		c0-0.058-0.064-0.102-0.106-0.102c-0.098,0-0.155,0.088-0.186,0.15c-0.266,0.385-1.128,1.468-1.623,1.468
		c-0.186,0-0.292-0.109-0.292-0.31c0-0.217,0.153-0.588,0.23-0.786L225.948,81.113"/>
	<path fill-rule="evenodd" clip-rule="evenodd" fill="#231F20" d="M231.823,77.12c0-0.296-0.205-0.543-0.513-0.543
		c-0.449,0-0.788,0.585-0.788,0.988c0,0.294,0.153,0.572,0.482,0.572C231.482,78.137,231.823,77.549,231.823,77.12 M228.578,84.408
		c-0.107,0.367-0.279,0.954-0.279,1.357c0,0.354,0.08,0.614,0.479,0.614c0.652,0,1.513-0.894,1.884-1.357
		c0.153-0.194,0.648-0.831,0.648-1.097c0-0.063-0.014-0.106-0.088-0.106c-0.111,0-0.176,0.106-0.218,0.195
		c-0.189,0.313-0.978,1.41-1.364,1.41c-0.135,0-0.198-0.124-0.198-0.278c0-0.199,0.082-0.411,0.14-0.619l1.145-3.701
		c0.089-0.278,0.261-0.835,0.261-1.132c0-0.331-0.105-0.57-0.478-0.57c-0.586,0-1.438,0.755-1.824,1.132
		c-0.121,0.118-0.76,0.799-0.76,1.003c0,0.079,0.032,0.119,0.098,0.119c0.198,0,1.067-1.357,1.589-1.357
		c0.155,0,0.186,0.155,0.186,0.279c0,0.136-0.093,0.397-0.124,0.525L228.578,84.408z"/>
	<rect x="46.356" y="76.576" fill="#D13239" width="43.66" height="43.662"/>
	<path fill-rule="evenodd" clip-rule="evenodd" fill="#231F20" d="M60.844,75.163H46.356v-8.405h0.27v8.005h14.218V75.163
		 M61.78,74.763h2.214v0.4H61.78V74.763z M64.932,74.763h3.896v0.4h-3.896V74.763z M69.761,74.763h2.772v0.4h-2.772V74.763z
		 M73.471,74.763h0.6v0.4h-0.6V74.763z M90.029,75.163H75.011v-0.4h14.525v-7.565h0.493V75.163z M89.536,56.716h0.493v9.598h-0.493
		V56.716z M76.426,55.887h12.92v0.382L76.426,55.887z M67.187,57.142c0.143-0.189,0.542-0.464,1.01-0.464
		c0.589,0,1.064,0.429,1.064,0.586v2.73h-0.488l-0.004-2.569c0-0.135-0.348-0.52-0.868-0.52
		C67.617,56.906,67.361,57.021,67.187,57.142 M66.852,51.423l1.322-0.978l0.951,0.64c0.274,0.214,0.469,0.513,0.469,0.889v1.481
		h-0.413v-1.486c0-0.323-0.162-0.575-0.399-0.761l-0.811-0.542L66.852,51.423z M69.045,43.155v-1.639l-2.157-0.393h2.563
		l0.004,2.032H69.045z M68.04,31.525h0.272v7.767H68.04V31.525z M66.703,43.619h2.83l2.147,1.727h-0.57l-1.865-1.525L66.703,43.619z
		 M64.132,45.816h7.637l1.471,5.969l-0.404-0.009l-1.438-5.699L64.132,45.816z M46.336,56.508h0.274v8.644h-0.274V56.508z
		 M74.298,67.198h0.487v7.075h-0.487V67.198z M62.097,66.342H74.08v0.403L62.097,66.342z M87.687,52.288l-1.318-3.723l-12.544-0.305
		h12.864l1.453,4.028H87.687z M65.428,51.065l2.75-1.771l2.834,1.771v2.834h-0.495V51.16l-2.339-1.691L65.428,51.065z
		 M67.971,46.909c0-0.115,0.093-0.199,0.208-0.199c0.111,0,0.199,0.084,0.199,0.199c0,0.108-0.088,0.204-0.199,0.204
		C68.063,47.112,67.971,47.017,67.971,46.909 M67.649,48.768l0.061-0.321H68.4l-0.222-0.958l0.538,1.278H67.649z M65.256,48.467
		c0-0.095,0.075-0.172,0.176-0.172c0.097,0,0.177,0.077,0.177,0.172c0,0.101-0.08,0.179-0.177,0.179
		C65.331,48.646,65.256,48.568,65.256,48.467 M65.07,49.933l0.023-0.265h0.543l-0.147-0.739l0.43,1.004H65.07z M49.714,60.006
		l-0.408,0.004l0.004-2.149l-0.733-0.14h1.137V60.006z M61.059,56.716h0.482v8.437h-0.482V56.716z M47.937,55.887h12.902v0.33
		L47.937,55.887z M61.067,67.198h0.474v7.075h-0.474V67.198z M47.937,66.337h12.902v0.33L47.937,66.337z M48.396,52.518l1.286-4.223
		h13.087v0.3H49.881L48.396,52.518z M88.796,66.815l-13.612-0.478h13.604L88.796,66.815z M53.11,60.006l-0.413,0.004v-2.149
		l-0.729-0.14h1.142V60.006z M56.413,60.006l-0.408,0.004v-2.149l-0.734-0.14h1.142V60.006z M59.729,60.006l-0.412,0.004v-2.149
		l-0.725-0.14h1.137V60.006z M64.491,60.006l-0.413,0.004l0.004-2.149l-0.729-0.14h1.137V60.006z M72.976,60.006l-0.412,0.004
		v-2.149l-0.724-0.14h1.136V60.006z M77.344,60.006l-0.411,0.004v-2.149l-0.729-0.14h1.141V60.006z M80.736,60.006l-0.411,0.004
		v-2.149l-0.725-0.14h1.136V60.006z M84.035,60.006l-0.407,0.004v-2.149l-0.729-0.14h1.136V60.006z M87.352,60.006l-0.403,0.004
		v-2.149l-0.729-0.14h1.132V60.006z M49.714,70.244h-0.408l0.004-2.151l-0.733-0.135h1.137V70.244z M53.11,70.244h-0.413v-2.151
		l-0.729-0.135h1.142V70.244z M56.413,70.244h-0.408v-2.151l-0.734-0.135h1.142V70.244z M59.729,70.244h-0.412v-2.151l-0.725-0.135
		h1.137V70.244z M77.344,70.244h-0.411v-2.151l-0.729-0.135h1.141V70.244z M80.736,70.244h-0.411v-2.151L79.6,67.958h1.136V70.244z
		 M84.035,70.244h-0.407v-2.151l-0.729-0.135h1.136V70.244z M87.352,70.244h-0.403v-2.151l-0.729-0.135h1.132V70.244z
		 M49.714,73.962h-0.408l0.004-1.565l-0.733-0.139h1.137V73.962z M53.11,73.962h-0.413v-1.565l-0.729-0.139h1.142V73.962z
		 M56.413,73.962h-0.408v-1.565l-0.734-0.139h1.142V73.962z M59.729,73.962h-0.412v-1.565l-0.725-0.139h1.137V73.962z
		 M77.344,73.962h-0.411v-1.565l-0.729-0.139h1.141V73.962z M80.736,73.962h-0.411v-1.565L79.6,72.258h1.136V73.962z M84.035,73.962
		h-0.407v-1.565l-0.729-0.139h1.136V73.962z M87.352,73.962h-0.403v-1.565l-0.729-0.139h1.132V73.962z M62.663,54.885l-0.4,0.004
		v-2.217l-0.682-0.197h1.082V54.885z M62.663,51.772h-0.998v-0.391h0.557l-0.274-1.621L62.663,51.772z M74.758,54.885l-0.399,0.004
		v-2.217l-0.678-0.197h1.078V54.885z M74.758,51.772h-0.989v-0.391h0.556l-0.278-1.621L74.758,51.772z M90.029,55.248h-0.396v-2.613
		l-1.024-0.396h1.419V55.248z M90.029,51.75h-1.342v-0.378h0.879l-0.358-2.46L90.029,51.75z M47.604,55.248h-0.399v-2.613
		l-1.025-0.396h1.424V55.248z M47.604,51.75h-1.345v-0.378h0.876l-0.354-2.46L47.604,51.75z M70.646,48.467
		c0-0.095,0.08-0.172,0.177-0.172c0.097,0,0.177,0.077,0.177,0.172c0,0.101-0.08,0.179-0.177,0.179
		C70.725,48.646,70.646,48.568,70.646,48.467 M70.447,49.933l0.023-0.265h0.539l-0.149-0.739l0.432,1.004H70.447z M69.552,74.272
		h-0.529l-0.004-5.123c0.004-0.753-0.517-1.275-1.164-1.275c-0.288,0-0.553,0.106-0.756,0.283c0.249-0.329,0.644-0.539,1.089-0.539
		c0.755,0,1.365,0.613,1.365,1.369V74.272z M73.203,74.272h-0.421l-0.005-4.851c0.005-0.586-0.358-0.986-0.804-0.986
		c-0.231,0-0.436,0.1-0.584,0.27c0.186-0.283,0.477-0.469,0.816-0.469c0.553,0,1.002,0.495,1.002,1.109L73.203,74.272z
		 M64.69,74.272h-0.421l-0.004-4.851c0.004-0.586-0.358-0.986-0.804-0.986c-0.231,0-0.437,0.1-0.583,0.27
		c0.18-0.283,0.477-0.469,0.819-0.469c0.553,0,0.994,0.495,0.994,1.109V74.272z M72.984,65.152h-0.389v-2.483
		c0-0.248-0.172-0.426-0.384-0.426c-0.116,0-0.213,0.049-0.289,0.128c0.098-0.175,0.283-0.29,0.496-0.29
		c0.315,0,0.566,0.254,0.566,0.562V65.152z M68.85,65.152l-0.004-2.456c0.004-0.58-0.394-0.982-0.895-0.982
		c-0.339,0-0.635,0.193-0.789,0.476c0.158-0.425,0.566-0.721,1.039-0.721c0.618,0,1.113,0.496,1.113,1.11l-0.005,2.573H68.85z
		 M64.531,65.152h-0.394v-2.483c0-0.248-0.172-0.426-0.385-0.426c-0.115,0-0.212,0.049-0.283,0.128
		c0.097-0.175,0.283-0.29,0.496-0.29c0.312,0,0.566,0.254,0.566,0.562V65.152z M77.359,65.152h-0.395v-2.483
		c0.005-0.248-0.171-0.426-0.389-0.426c-0.11,0-0.208,0.049-0.278,0.128c0.098-0.175,0.278-0.29,0.492-0.29
		c0.312,0,0.57,0.254,0.57,0.562V65.152z M80.705,65.152h-0.39v-2.483c0-0.248-0.172-0.426-0.385-0.426
		c-0.112,0-0.209,0.049-0.283,0.128c0.093-0.175,0.279-0.29,0.492-0.29c0.314,0,0.566,0.254,0.566,0.562V65.152z M84.026,65.152
		h-0.385v-2.483c0-0.248-0.177-0.426-0.389-0.426c-0.116,0-0.213,0.049-0.283,0.128c0.093-0.175,0.283-0.29,0.491-0.29
		c0.315,0,0.57,0.254,0.57,0.562L84.026,65.152z M87.32,65.152h-0.389l-0.004-2.483c0.004-0.248-0.168-0.426-0.386-0.426
		c-0.111,0-0.21,0.049-0.283,0.128c0.098-0.175,0.283-0.29,0.497-0.29c0.315,0,0.57,0.254,0.57,0.562L87.32,65.152z M59.702,65.152
		h-0.394v-2.483c0-0.248-0.172-0.426-0.389-0.426c-0.111,0-0.213,0.049-0.278,0.128c0.097-0.175,0.278-0.29,0.495-0.29
		c0.311,0,0.566,0.254,0.566,0.562V65.152z M56.409,65.152h-0.39l-0.004-2.483c0.004-0.248-0.167-0.426-0.385-0.426
		c-0.111,0-0.213,0.049-0.279,0.128c0.093-0.175,0.279-0.29,0.492-0.29c0.312,0,0.57,0.254,0.57,0.562L56.409,65.152z
		 M53.087,65.152h-0.389v-2.483c0-0.248-0.172-0.426-0.389-0.426c-0.111,0-0.213,0.049-0.283,0.128
		c0.097-0.175,0.283-0.29,0.491-0.29c0.319,0,0.57,0.254,0.57,0.562V65.152z M49.734,65.152h-0.392v-2.483
		c0-0.248-0.17-0.426-0.385-0.426c-0.111,0-0.213,0.049-0.283,0.128c0.102-0.175,0.283-0.29,0.493-0.29
		c0.315,0,0.566,0.254,0.566,0.562V65.152z M58.896,51.286c0-0.095,0.077-0.179,0.175-0.179c0.097,0,0.177,0.084,0.177,0.179
		c0,0.096-0.08,0.175-0.177,0.175C58.973,51.461,58.896,51.381,58.896,51.286 M59.564,53.939h-0.357v-1.683
		c0-0.263-0.19-0.451-0.412-0.451c-0.07,0-0.141,0.02-0.197,0.051c0.104-0.102,0.242-0.166,0.4-0.166
		c0.31,0,0.566,0.252,0.566,0.568V53.939z M56.046,51.286c0-0.095,0.08-0.179,0.171-0.179c0.103,0,0.172,0.084,0.172,0.179
		c0,0.096-0.069,0.175-0.172,0.175C56.126,51.461,56.046,51.381,56.046,51.286 M56.709,53.939h-0.361v-1.683
		c0-0.263-0.181-0.451-0.404-0.451c-0.078,0-0.138,0.02-0.2,0.051c0.103-0.102,0.243-0.166,0.399-0.166
		c0.313,0,0.566,0.252,0.566,0.568V53.939z M52.944,51.286c0-0.095,0.082-0.179,0.175-0.179c0.097,0,0.177,0.084,0.177,0.179
		c0,0.096-0.08,0.175-0.177,0.175C53.026,51.461,52.944,51.381,52.944,51.286 M53.612,53.939h-0.357v-1.683
		c0-0.263-0.186-0.451-0.408-0.451c-0.075,0-0.141,0.02-0.202,0.051c0.102-0.102,0.242-0.166,0.4-0.166
		c0.315,0,0.566,0.252,0.566,0.568V53.939z M54.91,50.359h-0.315v-0.795c0-0.23-0.158-0.389-0.353-0.389
		c-0.064,0-0.125,0.015-0.177,0.042c0.093-0.089,0.214-0.142,0.353-0.142c0.274,0,0.492,0.223,0.492,0.497V50.359z M58.213,50.359
		h-0.315v-0.795c0-0.23-0.158-0.389-0.353-0.389c-0.064,0-0.121,0.015-0.177,0.042c0.088-0.089,0.215-0.142,0.353-0.142
		c0.27,0,0.492,0.223,0.492,0.497V50.359z M78.64,50.359h-0.319v-0.795c0-0.23-0.158-0.389-0.353-0.389
		c-0.071,0-0.123,0.015-0.177,0.042c0.093-0.089,0.217-0.142,0.353-0.142c0.274,0,0.497,0.223,0.497,0.497V50.359z M76.951,51.286
		c0-0.095,0.075-0.179,0.172-0.179c0.102,0,0.176,0.084,0.176,0.179c0,0.096-0.074,0.175-0.176,0.175
		C77.026,51.461,76.951,51.381,76.951,51.286 M77.619,53.939h-0.357v-1.683c0-0.263-0.186-0.451-0.413-0.451
		c-0.071,0-0.136,0.02-0.199,0.051c0.106-0.102,0.245-0.166,0.402-0.166c0.315,0,0.566,0.252,0.566,0.568V53.939z M81.993,50.359
		h-0.311v-0.795c0-0.23-0.158-0.389-0.356-0.389c-0.065,0-0.125,0.015-0.175,0.042c0.091-0.089,0.213-0.142,0.352-0.142
		c0.278,0,0.491,0.223,0.491,0.497V50.359z M80.087,51.286c0-0.095,0.074-0.179,0.172-0.179c0.097,0,0.172,0.084,0.172,0.179
		c0,0.096-0.075,0.175-0.172,0.175C80.161,51.461,80.087,51.381,80.087,51.286 M80.755,53.939h-0.362v-1.683
		c0-0.263-0.184-0.451-0.408-0.451c-0.07,0-0.143,0.02-0.199,0.051c0.102-0.102,0.242-0.166,0.399-0.166
		c0.316,0,0.571,0.252,0.571,0.568V53.939z M82.939,51.286c0-0.095,0.08-0.179,0.177-0.179c0.098,0,0.172,0.084,0.172,0.179
		c0,0.096-0.074,0.175-0.172,0.175C83.019,51.461,82.939,51.381,82.939,51.286 M83.609,53.939h-0.361v-1.683
		c0-0.263-0.182-0.451-0.406-0.451c-0.077,0-0.143,0.02-0.199,0.051c0.102-0.102,0.237-0.166,0.396-0.166
		c0.314,0,0.57,0.252,0.57,0.568V53.939z M49.099,41.525c0-0.106,0.083-0.19,0.19-0.19c0.106,0,0.19,0.083,0.19,0.19
		c0,0.104-0.084,0.188-0.19,0.188C49.182,41.713,49.099,41.629,49.099,41.525 M50.23,47.693h-0.406v-2.116
		c0-0.555-0.384-0.942-0.862-0.942c-0.157,0-0.297,0.036-0.421,0.106c0.176-0.144,0.402-0.23,0.649-0.23
		c0.577,0,1.041,0.464,1.041,1.035V47.693z M50.035,44.037h-1.254v-0.409l0.791,0.004l-0.252-1.603L50.035,44.037z M86.369,41.525
		c0-0.106,0.088-0.19,0.19-0.19c0.106,0,0.19,0.083,0.19,0.19c0,0.104-0.084,0.188-0.19,0.188
		C86.458,41.713,86.369,41.629,86.369,41.525 M87.501,47.693h-0.404l-0.009-2.116c0.009-0.555-0.378-0.942-0.852-0.942
		c-0.156,0-0.295,0.036-0.421,0.106c0.177-0.144,0.404-0.23,0.654-0.23c0.571,0,1.031,0.464,1.031,1.035V47.693z M87.311,44.037
		h-1.259v-0.409l0.795,0.004l-0.251-1.603L87.311,44.037z M68.178,39.759c0.521,0,0.946,0.413,0.974,0.93h-0.333
		c-0.075-0.384-0.41-0.672-0.808-0.672c-0.391,0-0.719,0.263-0.807,0.624C67.254,40.146,67.668,39.759,68.178,39.759 M71.162,55.595
		h2.918v0.396l-3.089-0.082c-0.326-0.822-1.551-1.43-2.994-1.43c-1.349,0-2.5,0.539-2.908,1.285c0.394-0.82,1.623-1.413,3.081-1.413
		C69.528,54.35,70.684,54.865,71.162,55.595 M74.785,56.347v8.833h-0.469l-0.013-8.833H74.785z"/>
</g>
</svg>
