<?xml version="1.0" encoding="utf-8"?>
<!-- Generator: Adobe Illustrator 16.0.0, SVG Export Plug-In . SVG Version: 6.00 Build 0)  -->
<!DOCTYPE svg PUBLIC "-//W3C//DTD SVG 1.1//EN" "http://www.w3.org/Graphics/SVG/1.1/DTD/svg11.dtd">
<svg version="1.1" xmlns="http://www.w3.org/2000/svg" xmlns:xlink="http://www.w3.org/1999/xlink" x="0px" y="0px" width="600px"
	 height="600px" viewBox="0 0 600 600" enable-background="new 0 0 600 600" xml:space="preserve">
<g id="gb">
</g>
<g id="_x31_-1">
</g>
<g id="_x31_-2">
</g>
<g id="_x31_-3">
</g>
<g id="_x32_-1">
</g>
<g id="_x32_-2">
</g>
<g id="_x32_-3">
</g>
<g id="_x33_-1">
</g>
<g id="_x33_-2">
</g>
<g id="_x33_-3">
</g>
<g id="opis">
</g>
<g id="polje">
	<path stroke="#000000" stroke-width="2" stroke-miterlimit="10" d="M536.247,450c4.553,3.421,7.498,8.866,7.498,15
		c0,10.356-8.393,18.75-18.748,18.75c-10.354,0-18.746-8.395-18.746-18.75c0-6.133,2.945-11.579,7.498-15h-63.75v63.75
		c-3.422-4.553-8.867-7.499-15-7.499c-10.355,0-18.75,8.394-18.75,18.746c0,10.356,8.395,18.749,18.75,18.749
		c6.133,0,11.578-2.945,15-7.499V600h150V450H536.247z"/>
</g>
</svg>
