<?xml version="1.0" encoding="utf-8"?>
<!-- Generator: Adobe Illustrator 16.0.0, SVG Export Plug-In . SVG Version: 6.00 Build 0)  -->
<!DOCTYPE svg PUBLIC "-//W3C//DTD SVG 1.1//EN" "http://www.w3.org/Graphics/SVG/1.1/DTD/svg11.dtd">
<svg version="1.1" xmlns="http://www.w3.org/2000/svg" xmlns:xlink="http://www.w3.org/1999/xlink" x="0px" y="0px" width="600px"
	 height="600px" viewBox="0 0 600 600" enable-background="new 0 0 600 600" xml:space="preserve">
<g id="gb">
</g>
<g id="_x31_-1">
</g>
<g id="_x31_-2">
</g>
<g id="_x31_-3">
</g>
<g id="_x32_-1">
</g>
<g id="_x32_-2">
</g>
<g id="_x32_-3">
</g>
<g id="_x33_-1">
</g>
<g id="_x33_-2">
</g>
<g id="_x33_-3">
</g>
<g id="opis">
</g>
<g id="polje">
	<path stroke="#000000" stroke-width="2" stroke-miterlimit="10" d="M285,243.746c-10.355,0-18.75-8.393-18.75-18.749
		c0-10.352,8.395-18.746,18.75-18.746c6.134,0,11.579,2.946,15,7.499V150h-63.75c4.553-3.421,7.498-8.866,7.498-15
		c0-10.356-8.394-18.75-18.745-18.75c-10.356,0-18.75,8.395-18.75,18.75c0,6.133,2.945,11.579,7.499,15H150v63.752
		c3.421-4.553,8.866-7.499,15-7.499c10.355,0,18.75,8.393,18.75,18.75c0,10.352-8.395,18.746-18.75,18.746
		c-6.133,0-11.579-2.945-15-7.498V300h63.752c-4.554-3.421-7.499-8.866-7.499-15c0-10.356,8.393-18.75,18.75-18.75
		c10.352,0,18.745,8.395,18.745,18.75c0,6.133-2.945,11.579-7.498,15H300v-63.753C296.579,240.801,291.134,243.746,285,243.746z"/>
</g>
</svg>
