<?xml version="1.0" encoding="utf-8"?>
<!-- Generator: Adobe Illustrator 16.0.0, SVG Export Plug-In . SVG Version: 6.00 Build 0)  -->
<!DOCTYPE svg PUBLIC "-//W3C//DTD SVG 1.1//EN" "http://www.w3.org/Graphics/SVG/1.1/DTD/svg11.dtd">
<svg version="1.1" xmlns="http://www.w3.org/2000/svg" xmlns:xlink="http://www.w3.org/1999/xlink" x="0px" y="0px"
	 width="453.543px" height="453.543px" viewBox="0 0 453.543 453.543" enable-background="new 0 0 453.543 453.543"
	 xml:space="preserve">
<g id="kvadrat" display="none">
</g>
<g id="color">
	<g id="rdeča7bela">
	</g>
	<g>
		
			<path fill="#FFFFFF" stroke="#000000" stroke-width="8" stroke-linecap="round" stroke-linejoin="round" stroke-miterlimit="10" d="
			M315.005,125.646l-42.486-37.071l-19.525,22.378l26.35,22.991c0,0,5.021,25.335-35.715,55.064L100.262,352.712l9.438,8.234
			l9.438,8.234l142.765-164.226c23.934-44.39,49.716-42.849,49.716-42.849l26.35,22.991l19.526-22.377L315.005,125.646z"/>
		
			<path fill="#0073B3" stroke="#000000" stroke-width="8" stroke-linecap="round" stroke-linejoin="round" stroke-miterlimit="10" d="
			M311.618,162.103c0,0-25.782-1.541-49.716,42.85L119.137,369.18l-9.438-8.234l-9.438-8.234l143.366-163.703
			c40.737-29.729,35.716-55.064,35.716-55.064L311.618,162.103z"/>
		
			<line fill="none" stroke="#000000" stroke-width="8" stroke-linecap="round" stroke-linejoin="round" stroke-miterlimit="10" x1="263.553" y1="98.853" x2="348.526" y2="172.994"/>
	</g>
</g>
<g id="cb" display="none">
	<g id="rdeča7bela_copy" display="inline">
	</g>
	<g display="inline">
		<path fill="none" stroke="#000000" stroke-width="8" stroke-linecap="round" stroke-linejoin="round" stroke-miterlimit="10" d="
			M315.005,125.646l-42.486-37.071l-19.525,22.378l26.35,22.991c0,0,5.021,25.335-35.715,55.064L100.262,352.712l9.438,8.234
			l9.438,8.234l142.765-164.226c23.934-44.39,49.716-42.849,49.716-42.849l26.35,22.991l19.526-22.377L315.005,125.646z"/>
		<path fill="none" stroke="#000000" stroke-width="8" stroke-linecap="round" stroke-linejoin="round" stroke-miterlimit="10" d="
			M311.618,162.103c0,0-25.782-1.541-49.716,42.85L119.137,369.18l-9.438-8.234l-9.438-8.234l143.366-163.703
			c40.737-29.729,35.716-55.064,35.716-55.064L311.618,162.103z"/>
		
			<line fill="none" stroke="#000000" stroke-width="8" stroke-linecap="round" stroke-linejoin="round" stroke-miterlimit="10" x1="263.553" y1="98.853" x2="348.526" y2="172.994"/>
	</g>
</g>
<g id="pivot">
	<circle fill="none" cx="187.703" cy="365.573" r="14.133"/>
</g>
</svg>
