<?xml version="1.0" encoding="utf-8"?>
<!-- Generator: Adobe Illustrator 16.0.0, SVG Export Plug-In . SVG Version: 6.00 Build 0)  -->
<!DOCTYPE svg PUBLIC "-//W3C//DTD SVG 1.1//EN" "http://www.w3.org/Graphics/SVG/1.1/DTD/svg11.dtd">
<svg version="1.1" xmlns="http://www.w3.org/2000/svg" xmlns:xlink="http://www.w3.org/1999/xlink" x="0px" y="0px"
	 width="453.543px" height="453.543px" viewBox="0 0 453.543 453.543" enable-background="new 0 0 453.543 453.543"
	 xml:space="preserve">
<g id="kvadrat" display="none">
</g>
<g id="color">
	<g id="rdeča7bela">
	</g>
	<g>
		<g>
			<path fill="#57B2E5" d="M264.927,150.15c0,15.59-12.756,28.346-28.347,28.346h-19.615c-15.59,0-28.347-12.756-28.347-28.346
				v-7.607c0-15.59,12.756-28.346,28.347-28.346h19.615c15.59,0,28.347,12.756,28.347,28.346V150.15z"/>
			<path fill="none" stroke="#000000" stroke-width="8" stroke-linecap="round" stroke-linejoin="round" stroke-miterlimit="10" d="
				M264.927,150.15c0,15.59-12.756,28.346-28.347,28.346h-19.615c-15.59,0-28.347-12.756-28.347-28.346v-7.607
				c0-15.59,12.756-28.346,28.347-28.346h19.615c15.59,0,28.347,12.756,28.347,28.346V150.15z"/>
		</g>
		<g>
			<path fill="#0073B3" d="M286.983,152.489c15.59,0,28.347,12.756,28.347,28.346v163.828c0,15.59-12.756,28.346-28.347,28.346
				H166.563c-15.59,0-28.347-12.756-28.347-28.346V180.835c0-15.59,12.756-28.346,28.347-28.346H286.983z"/>
			<path fill="none" stroke="#000000" stroke-width="8" stroke-linecap="round" stroke-linejoin="round" stroke-miterlimit="10" d="
				M286.983,152.489c15.59,0,28.347,12.756,28.347,28.346v163.828c0,15.59-12.756,28.346-28.347,28.346H166.563
				c-15.59,0-28.347-12.756-28.347-28.346V180.835c0-15.59,12.756-28.346,28.347-28.346H286.983z"/>
		</g>
		
			<rect x="211.722" y="86.679" stroke="#000000" stroke-width="8" stroke-linecap="round" stroke-linejoin="round" stroke-miterlimit="10" width="30.103" height="27.303"/>
		
			<path fill="#FFFFFF" stroke="#000000" stroke-width="10" stroke-linecap="round" stroke-linejoin="round" stroke-miterlimit="10" d="
			M264.226,84.579h-64.406c0,0-29.403-9.101-49.705,0"/>
		<g>
			
				<line fill="none" stroke="#000000" stroke-width="8" stroke-linecap="round" stroke-linejoin="round" stroke-miterlimit="10" x1="138.214" y1="218.019" x2="315.158" y2="218.019"/>
		</g>
		<g>
			
				<line fill="none" stroke="#000000" stroke-width="8" stroke-linecap="round" stroke-linejoin="round" stroke-miterlimit="10" x1="138.214" y1="291.159" x2="315.158" y2="291.159"/>
		</g>
	</g>
</g>
<g id="cb" display="none">
	<g id="rdeča7bela_copy" display="inline">
	</g>
	<g display="inline">
		<path fill="none" stroke="#000000" stroke-width="8" stroke-linecap="round" stroke-linejoin="round" stroke-miterlimit="10" d="
			M264.822,152.489c0.064-0.772,0.105-1.55,0.105-2.338v-7.607c0-15.59-12.756-28.346-28.347-28.346h-19.615
			c-15.59,0-28.347,12.756-28.347,28.346v7.607c0,0.788,0.041,1.566,0.105,2.338H264.822z"/>
		
			<rect x="211.722" y="86.679" fill="none" stroke="#000000" stroke-width="8" stroke-linecap="round" stroke-linejoin="round" stroke-miterlimit="10" width="30.103" height="27.303"/>
		<path fill="none" stroke="#000000" stroke-width="10" stroke-linecap="round" stroke-linejoin="round" stroke-miterlimit="10" d="
			M264.226,84.579h-64.406c0,0-29.403-9.101-49.705,0"/>
		<g>
			
				<line fill="none" stroke="#000000" stroke-width="8" stroke-linecap="round" stroke-linejoin="round" stroke-miterlimit="10" x1="138.214" y1="218.019" x2="315.158" y2="218.019"/>
		</g>
		<g>
			
				<line fill="none" stroke="#000000" stroke-width="8" stroke-linecap="round" stroke-linejoin="round" stroke-miterlimit="10" x1="138.214" y1="291.159" x2="315.158" y2="291.159"/>
		</g>
		<path fill="none" stroke="#000000" stroke-width="8" stroke-linecap="round" stroke-linejoin="round" stroke-miterlimit="10" d="
			M286.983,152.489c15.59,0,28.347,12.756,28.347,28.346v163.828c0,15.59-12.756,28.346-28.347,28.346H166.563
			c-15.59,0-28.347-12.756-28.347-28.346V180.835c0-15.59,12.756-28.346,28.347-28.346H286.983z"/>
	</g>
</g>
<g id="pivot">
	<circle fill="none" cx="222.737" cy="365.572" r="14.133"/>
</g>
</svg>
