<?xml version="1.0" encoding="utf-8"?>
<!-- Generator: Adobe Illustrator 16.0.0, SVG Export Plug-In . SVG Version: 6.00 Build 0)  -->
<!DOCTYPE svg PUBLIC "-//W3C//DTD SVG 1.1//EN" "http://www.w3.org/Graphics/SVG/1.1/DTD/svg11.dtd">
<svg version="1.1" xmlns="http://www.w3.org/2000/svg" xmlns:xlink="http://www.w3.org/1999/xlink" x="0px" y="0px"
	 width="453.543px" height="453.543px" viewBox="0 0 453.543 453.543" enable-background="new 0 0 453.543 453.543"
	 xml:space="preserve">
<g id="kvadrat" display="none">
</g>
<g id="color">
	<g id="rdeča7bela">
	</g>
	<g>
		<g>
			<path stroke="#000000" stroke-width="5" stroke-linecap="round" stroke-linejoin="round" stroke-miterlimit="10" d="
				M70.736,211.588l61.844-56.647c0.263-0.24,0.538-0.469,0.823-0.683c11.157-8.369,38.979-17.476,64.414,7.957
				c4.26,4.26,4.26,11.169,0,15.431c-4.262,4.261-11.171,4.261-15.432,0c-7.734-7.734-15.974-11.119-24.484-10.058
				c-5.694,0.71-9.94,3.192-11.149,3.965l-69.124,63.314"/>
			<path stroke="#000000" stroke-width="5" stroke-linecap="round" stroke-linejoin="round" stroke-miterlimit="10" d="
				M382.807,211.588l-61.843-56.647c-0.264-0.24-0.539-0.469-0.824-0.683c-11.158-8.369-38.979-17.476-64.413,7.957
				c-4.261,4.26-4.261,11.169,0,15.431c4.261,4.261,11.171,4.261,15.431,0c7.734-7.734,15.974-11.119,24.484-10.058
				c5.693,0.71,9.94,3.192,11.149,3.965l69.124,63.314"/>
			
				<path fill="#7E4E24" stroke="#000000" stroke-width="8" stroke-linecap="round" stroke-linejoin="round" stroke-miterlimit="10" d="
				M383.293,218.257c-0.093-3.424-2.009-6.538-5.026-8.162c-19.057-10.261-43.309-16.146-66.537-16.146
				c-24.399,0-46.844,6.545-64.904,18.93c-0.907,0.622-11.383-1.816-20.954-1.839c-9.645-0.023-18.386,2.365-19.154,1.839
				c-18.06-12.385-40.505-18.93-64.904-18.93c-23.227,0-47.48,5.885-66.538,16.146c-3.017,1.624-4.933,4.737-5.025,8.162
				c-1.278,47.291,18.518,71.054,35.349,82.661c18.335,12.646,73.102,9.107,92.552-17.024c9.082-12.201,13.797-26.904,14.153-43.858
				c0,0,1.338-10.045,13.756-10.045c12.417,0,15.199,11.037,15.199,11.037c0.517,16.537,5.228,30.903,14.132,42.867
				c19.45,26.131,74.217,29.67,92.551,17.024C364.775,289.311,384.571,265.548,383.293,218.257z M182.913,272.335
				c-12.946,17.522-54.677,20.962-66.455,12.84c-17.651-12.174-26.765-32.588-27.13-60.735
				c15.412-7.168,34.604-11.366,52.487-11.366c18.974,0,36.39,4.603,50.656,13.351C194.817,245.139,191.609,260.568,182.913,272.335
				z M337.086,285.176c-11.778,8.122-53.509,4.682-66.455-12.84c-8.696-11.768-11.904-27.197-9.558-45.91
				c14.267-8.748,31.683-13.351,50.656-13.351c17.884,0,37.075,4.197,52.486,11.366
				C363.851,252.587,354.737,273.001,337.086,285.176z"/>
		</g>
		
			<path opacity="0.3" fill="#FFFFFF" stroke="#000000" stroke-width="8" stroke-linecap="round" stroke-linejoin="round" stroke-miterlimit="10" d="
			M181.546,270.758c-12.946,17.522-54.677,20.962-66.455,12.84c-17.651-12.174-26.765-32.588-27.13-60.735
			c15.411-7.168,34.603-11.366,52.486-11.366c18.974,0,36.39,4.603,50.656,13.351C193.45,243.561,190.242,258.99,181.546,270.758z"
			/>
		
			<path opacity="0.3" fill="#FFFFFF" stroke="#000000" stroke-width="8" stroke-linecap="round" stroke-linejoin="round" stroke-miterlimit="10" d="
			M338.454,284.535c-11.779,8.122-53.509,4.682-66.456-12.84c-8.695-11.767-11.903-27.197-9.556-45.91
			c14.265-8.748,31.682-13.352,50.655-13.352c17.883,0,37.074,4.198,52.486,11.366C365.217,251.947,356.104,272.361,338.454,284.535
			z"/>
	</g>
</g>
<g id="cb" display="none">
	<g id="rdeča7bela_copy" display="inline">
	</g>
	<g display="inline">
		<path fill="none" stroke="#000000" stroke-width="8" stroke-linecap="round" stroke-linejoin="round" stroke-miterlimit="10" d="
			M120.564,195.541l26.188-23.987c1.208-0.773,5.455-3.255,11.149-3.965c8.511-1.061,16.75,2.324,24.484,10.058
			c4.261,4.261,11.17,4.261,15.432,0c4.26-4.262,4.26-11.171,0-15.431c-25.434-25.433-53.256-16.326-64.414-7.957
			c-0.285,0.214-0.561,0.442-0.823,0.683l-61.844,56.647"/>
		<path fill="none" stroke="#000000" stroke-width="8" stroke-linecap="round" stroke-linejoin="round" stroke-miterlimit="10" d="
			M332.98,195.541l-26.188-23.987c-1.208-0.773-5.456-3.255-11.149-3.965c-8.51-1.061-16.75,2.324-24.484,10.058
			c-4.26,4.261-11.17,4.261-15.431,0c-4.261-4.262-4.261-11.171,0-15.431c25.433-25.433,53.255-16.326,64.413-7.957
			c0.286,0.214,0.561,0.442,0.824,0.683l61.843,56.647"/>
		<path fill="none" stroke="#000000" stroke-width="8" stroke-linecap="round" stroke-linejoin="round" stroke-miterlimit="10" d="
			M332.98,195.541c-7.063-1.042-14.203-1.591-21.25-1.591c-24.399,0-46.844,6.545-64.904,18.93
			c-0.907,0.622-11.383-1.816-20.954-1.839c-9.645-0.023-18.386,2.365-19.154,1.839c-18.06-12.385-40.505-18.93-64.904-18.93
			c-7.047,0-14.188,0.55-21.25,1.591"/>
		<path fill="none" stroke="#000000" stroke-width="8" stroke-linecap="round" stroke-linejoin="round" stroke-miterlimit="10" d="
			M270.631,272.335c12.946,17.522,54.677,20.962,66.455,12.84c17.651-12.174,26.764-32.588,27.13-60.735
			c-15.412-7.168-34.603-11.366-52.486-11.366c-18.973,0-36.39,4.603-50.656,13.351
			C258.727,245.139,261.935,260.568,270.631,272.335z"/>
		<path fill="none" stroke="#000000" stroke-width="8" stroke-linecap="round" stroke-linejoin="round" stroke-miterlimit="10" d="
			M120.564,195.541c-16.215,2.391-32.012,7.407-45.287,14.555c-3.017,1.624-4.933,4.737-5.025,8.162
			c-1.278,47.291,18.518,71.054,35.349,82.661c18.335,12.646,73.102,9.107,92.552-17.024c9.082-12.201,13.797-26.904,14.153-43.858
			c0,0,1.338-10.045,13.756-10.045c12.417,0,15.199,11.037,15.199,11.037c0.517,16.537,5.228,30.903,14.132,42.867
			c19.45,26.131,74.217,29.67,92.551,17.024c16.832-11.607,36.627-35.37,35.35-82.661c-0.093-3.424-2.009-6.538-5.026-8.162
			c-13.275-7.147-29.072-12.164-45.287-14.555"/>
		<path fill="none" stroke="#000000" stroke-width="8" stroke-linecap="round" stroke-linejoin="round" stroke-miterlimit="10" d="
			M141.814,213.075c-17.883,0-37.075,4.197-52.487,11.366c0.366,28.147,9.479,48.561,27.13,60.735
			c11.778,8.122,53.508,4.682,66.455-12.84c8.696-11.768,11.904-27.197,9.558-45.91
			C178.205,217.678,160.788,213.075,141.814,213.075z"/>
	</g>
</g>
<g id="pivot">
	<circle fill="none" cx="225.592" cy="291.789" r="14.133"/>
</g>
</svg>
