<?xml version="1.0" encoding="utf-8"?>
<!-- Generator: Adobe Illustrator 16.0.0, SVG Export Plug-In . SVG Version: 6.00 Build 0)  -->
<!DOCTYPE svg PUBLIC "-//W3C//DTD SVG 1.1//EN" "http://www.w3.org/Graphics/SVG/1.1/DTD/svg11.dtd">
<svg version="1.1" xmlns="http://www.w3.org/2000/svg" xmlns:xlink="http://www.w3.org/1999/xlink" x="0px" y="0px"
	 width="453.543px" height="453.543px" viewBox="0 0 453.543 453.543" enable-background="new 0 0 453.543 453.543"
	 xml:space="preserve">
<g id="kvadrat" display="none">
</g>
<g id="color">
	<g id="rdeča7bela">
	</g>
	<g>
		<g>
			
				<path fill="#7E4E24" stroke="#000000" stroke-width="8" stroke-linecap="round" stroke-linejoin="round" stroke-miterlimit="10" d="
				M298.421,172.68c0-57.282-32.079-103.718-71.649-103.718c-39.571,0-71.649,46.436-71.649,103.718
				c0,47.313,21.886,87.223,51.8,99.682c-3.517,47.93-7.346,90.752-7.346,98.744c0,17.12,54.39,18.793,54.39,0
				c0-12.789-6.102-62.439-10.003-97.721C275.23,262.237,298.421,221.382,298.421,172.68z M226.772,251
				c-29.881,0-54.104-35.065-54.104-78.32c0-43.256,24.223-78.321,54.104-78.321c29.881,0,54.105,35.065,54.105,78.321
				C280.877,215.935,256.653,251,226.772,251z"/>
			
				<ellipse opacity="0.3" fill="#FFFFFF" stroke="#000000" stroke-width="8" stroke-linecap="round" stroke-linejoin="round" stroke-miterlimit="10" cx="226.772" cy="172.68" rx="54.105" ry="78.32"/>
		</g>
		<g>
			<path fill="none" stroke="#000000" stroke-width="8" stroke-linecap="round" stroke-linejoin="round" stroke-miterlimit="10" d="
				M200.354,146.771c0,0,11.739-18.683,12.018-18.067"/>
			<path fill="none" stroke="#000000" stroke-width="8" stroke-linecap="round" stroke-linejoin="round" stroke-miterlimit="10" d="
				M214.506,144.935c0,0,5.022-7.77,5.142-7.513"/>
		</g>
	</g>
</g>
<g id="cb" display="none">
	<g id="rdeča7bela_copy" display="inline">
	</g>
	<g display="inline">
		<g>
			<path fill="none" stroke="#000000" stroke-width="8" stroke-linecap="round" stroke-linejoin="round" stroke-miterlimit="10" d="
				M298.421,172.68c0-57.282-32.079-103.718-71.649-103.718c-39.571,0-71.649,46.436-71.649,103.718
				c0,47.313,21.886,87.223,51.8,99.682c-3.517,47.93-7.346,90.752-7.346,98.744c0,17.12,54.39,18.793,54.39,0
				c0-12.789-6.102-62.439-10.003-97.721C275.23,262.237,298.421,221.382,298.421,172.68z M226.772,251
				c-29.881,0-54.104-35.065-54.104-78.32c0-43.256,24.223-78.321,54.104-78.321c29.881,0,54.105,35.065,54.105,78.321
				C280.877,215.935,256.653,251,226.772,251z"/>
		</g>
		<g>
			<path fill="none" stroke="#000000" stroke-width="8" stroke-linecap="round" stroke-linejoin="round" stroke-miterlimit="10" d="
				M200.354,146.771c0,0,11.739-18.683,12.018-18.067"/>
			<path fill="none" stroke="#000000" stroke-width="8" stroke-linecap="round" stroke-linejoin="round" stroke-miterlimit="10" d="
				M214.506,144.935c0,0,5.022-7.77,5.142-7.513"/>
		</g>
	</g>
</g>
<g id="pivot">
	<circle fill="none" cx="226.296" cy="369.914" r="14.133"/>
</g>
</svg>
