<?xml version="1.0" encoding="utf-8"?>
<!-- Generator: Adobe Illustrator 16.0.0, SVG Export Plug-In . SVG Version: 6.00 Build 0)  -->
<!DOCTYPE svg PUBLIC "-//W3C//DTD SVG 1.1//EN" "http://www.w3.org/Graphics/SVG/1.1/DTD/svg11.dtd">
<svg version="1.1" xmlns="http://www.w3.org/2000/svg" xmlns:xlink="http://www.w3.org/1999/xlink" x="0px" y="0px"
	 width="453.543px" height="453.543px" viewBox="0 0 453.543 453.543" enable-background="new 0 0 453.543 453.543"
	 xml:space="preserve">
<g id="kvadrat" display="none">
</g>
<g id="color">
	<g>
		
			<path fill="#FFFFFF" stroke="#000000" stroke-width="8" stroke-linecap="round" stroke-linejoin="round" stroke-miterlimit="10" d="
			M107.75,377.7c0,0,0-184.759,0-245.612c0-56.721,27.356-56.721,27.356-56.721h173.176v135.756l-35.126-25.343v192.396"/>
		<g>
			<line fill="#FFFFFF" x1="124.196" y1="377.7" x2="254.323" y2="377.7"/>
			<g>
				
					<line fill="none" stroke="#000000" stroke-width="8" stroke-linecap="round" stroke-linejoin="round" x1="124.196" y1="377.7" x2="130.196" y2="377.7"/>
				
					<line fill="none" stroke="#000000" stroke-width="8" stroke-linecap="round" stroke-linejoin="round" stroke-dasharray="10.7389,21.4777" x1="151.673" y1="377.7" x2="237.584" y2="377.7"/>
				
					<line fill="none" stroke="#000000" stroke-width="8" stroke-linecap="round" stroke-linejoin="round" x1="248.323" y1="377.7" x2="254.323" y2="377.7"/>
			</g>
		</g>
		<g>
			<line fill="#FFFFFF" x1="124.196" y1="216.822" x2="254.323" y2="216.822"/>
			<g>
				
					<line fill="none" stroke="#000000" stroke-width="8" stroke-linecap="round" stroke-linejoin="round" x1="124.196" y1="216.822" x2="130.196" y2="216.822"/>
				
					<line fill="none" stroke="#000000" stroke-width="8" stroke-linecap="round" stroke-linejoin="round" stroke-dasharray="10.7389,21.4777" x1="151.673" y1="216.822" x2="237.584" y2="216.822"/>
				
					<line fill="none" stroke="#000000" stroke-width="8" stroke-linecap="round" stroke-linejoin="round" x1="248.323" y1="216.822" x2="254.323" y2="216.822"/>
			</g>
		</g>
		
			<ellipse fill="#FFFFFF" stroke="#000000" stroke-width="8" stroke-linecap="round" stroke-linejoin="round" stroke-miterlimit="10" cx="308.282" cy="156.545" rx="37.512" ry="81.178"/>
		<ellipse cx="308.282" cy="158.545" rx="11.302" ry="24.457"/>
	</g>
	<g id="rdeča7bela">
	</g>
</g>
<g id="cb" display="none">
	<g display="inline">
		<g>
			<g>
				
					<line fill="none" stroke="#000000" stroke-width="8" stroke-linecap="round" stroke-linejoin="round" x1="124.196" y1="377.7" x2="130.196" y2="377.7"/>
				
					<line fill="none" stroke="#000000" stroke-width="8" stroke-linecap="round" stroke-linejoin="round" stroke-dasharray="10.7389,21.4777" x1="151.673" y1="377.7" x2="237.584" y2="377.7"/>
				
					<line fill="none" stroke="#000000" stroke-width="8" stroke-linecap="round" stroke-linejoin="round" x1="248.323" y1="377.7" x2="254.323" y2="377.7"/>
			</g>
		</g>
		<g>
			<g>
				
					<line fill="none" stroke="#000000" stroke-width="8" stroke-linecap="round" stroke-linejoin="round" x1="124.196" y1="216.822" x2="130.196" y2="216.822"/>
				
					<line fill="none" stroke="#000000" stroke-width="8" stroke-linecap="round" stroke-linejoin="round" stroke-dasharray="10.7389,21.4777" x1="151.673" y1="216.822" x2="237.584" y2="216.822"/>
				
					<line fill="none" stroke="#000000" stroke-width="8" stroke-linecap="round" stroke-linejoin="round" x1="248.323" y1="216.822" x2="254.323" y2="216.822"/>
			</g>
		</g>
		<g>
			
				<polyline fill="none" stroke="#000000" stroke-width="8" stroke-linecap="round" stroke-linejoin="round" stroke-miterlimit="10" points="
				273.308,185.89 273.156,185.78 273.156,378.177 			"/>
			<path fill="none" stroke="#000000" stroke-width="8" stroke-linecap="round" stroke-linejoin="round" stroke-miterlimit="10" d="
				M308.282,75.367H135.106c0,0-27.356,0-27.356,56.721c0,60.854,0,245.612,0,245.612"/>
			<path fill="none" stroke="#000000" stroke-width="8" stroke-linecap="round" stroke-linejoin="round" stroke-miterlimit="10" d="
				M308.282,75.367c20.717,0,37.512,36.344,37.512,81.178c0,44.833-16.795,81.178-37.512,81.178
				c-15.934,0-29.538-21.509-34.975-51.833"/>
			<path fill="none" stroke="#000000" stroke-width="8" stroke-linecap="round" stroke-linejoin="round" stroke-miterlimit="10" d="
				M308.282,75.367c-20.717,0-37.512,36.344-37.512,81.178c0,10.352,0.905,20.241,2.538,29.345"/>
		</g>
		<ellipse cx="308.282" cy="158.545" rx="11.302" ry="24.457"/>
	</g>
	<g id="rdeča7bela_copy" display="inline">
	</g>
</g>
<g id="pivot">
	<circle fill="none" cx="197.165" cy="374.253" r="14.133"/>
</g>
</svg>
