<?xml version="1.0" encoding="utf-8"?>
<!-- Generator: Adobe Illustrator 16.0.0, SVG Export Plug-In . SVG Version: 6.00 Build 0)  -->
<!DOCTYPE svg PUBLIC "-//W3C//DTD SVG 1.1//EN" "http://www.w3.org/Graphics/SVG/1.1/DTD/svg11.dtd">
<svg version="1.1" xmlns="http://www.w3.org/2000/svg" xmlns:xlink="http://www.w3.org/1999/xlink" x="0px" y="0px"
	 width="453.543px" height="453.543px" viewBox="0 0 453.543 453.543" enable-background="new 0 0 453.543 453.543"
	 xml:space="preserve">
<g id="kvadrat" display="none">
</g>
<g id="color">
	<g>
		
			<rect x="304.657" y="217.979" fill="#FFFFFF" stroke="#000000" stroke-width="8" stroke-linecap="round" stroke-linejoin="round" stroke-miterlimit="10" width="79.345" height="39.551"/>
		
			<line fill="none" stroke="#000000" stroke-width="6" stroke-linecap="round" stroke-linejoin="round" stroke-miterlimit="10" x1="368.134" y1="217.979" x2="368.134" y2="257.529"/>
		
			<line fill="none" stroke="#000000" stroke-width="6" stroke-linecap="round" stroke-linejoin="round" stroke-miterlimit="10" x1="352.265" y1="217.979" x2="352.265" y2="257.529"/>
		
			<line fill="none" stroke="#000000" stroke-width="6" stroke-linecap="round" stroke-linejoin="round" stroke-miterlimit="10" x1="336.396" y1="217.979" x2="336.396" y2="257.529"/>
		
			<line fill="none" stroke="#000000" stroke-width="6" stroke-linecap="round" stroke-linejoin="round" stroke-miterlimit="10" x1="320.526" y1="217.979" x2="320.526" y2="257.529"/>
		
			<rect x="62.67" y="248.496" fill="#57B2E5" stroke="#000000" stroke-width="8" stroke-linecap="round" stroke-linejoin="round" stroke-miterlimit="10" width="326.557" height="15.625"/>
		
			<path fill="#FFFFFF" stroke="#000000" stroke-width="8" stroke-linecap="round" stroke-linejoin="round" stroke-miterlimit="10" d="
			M308.655,216.205h66.314c0,0,13.844-2.857,15.903-26.783c0,0-6.512,5.356-14.011,5.356l-47.137,1.071
			C329.725,195.85,308.655,197.278,308.655,216.205z"/>
	</g>
	<g id="rdeča7bela">
	</g>
</g>
<g id="cb" display="none">
	<g display="inline">
		
			<rect x="304.657" y="217.978" fill="none" stroke="#000000" stroke-width="8" stroke-linecap="round" stroke-linejoin="round" stroke-miterlimit="10" width="79.345" height="30.518"/>
		
			<line fill="none" stroke="#000000" stroke-width="8" stroke-linecap="round" stroke-linejoin="round" stroke-miterlimit="10" x1="368.134" y1="217.978" x2="368.134" y2="248.496"/>
		
			<line fill="none" stroke="#000000" stroke-width="8" stroke-linecap="round" stroke-linejoin="round" stroke-miterlimit="10" x1="352.265" y1="217.978" x2="352.265" y2="248.496"/>
		
			<line fill="none" stroke="#000000" stroke-width="8" stroke-linecap="round" stroke-linejoin="round" stroke-miterlimit="10" x1="336.396" y1="217.978" x2="336.396" y2="248.496"/>
		
			<line fill="none" stroke="#000000" stroke-width="8" stroke-linecap="round" stroke-linejoin="round" stroke-miterlimit="10" x1="320.526" y1="217.978" x2="320.526" y2="248.496"/>
		
			<rect x="62.67" y="248.496" fill="none" stroke="#000000" stroke-width="8" stroke-linecap="round" stroke-linejoin="round" stroke-miterlimit="10" width="326.557" height="15.625"/>
		<path fill="none" stroke="#000000" stroke-width="8" stroke-linecap="round" stroke-linejoin="round" stroke-miterlimit="10" d="
			M308.655,216.205h66.314c0,0,13.844-2.857,15.903-26.783c0,0-6.512,5.356-14.011,5.356l-47.137,1.071
			C329.725,195.85,308.655,197.278,308.655,216.205z"/>
	</g>
	<g id="rdeča7bela_copy" display="inline">
	</g>
</g>
<g id="pivot">
	<circle fill="none" cx="230.478" cy="262.853" r="14.133"/>
</g>
</svg>
