<?xml version="1.0" encoding="utf-8"?>
<!-- Generator: Adobe Illustrator 16.0.0, SVG Export Plug-In . SVG Version: 6.00 Build 0)  -->
<!DOCTYPE svg PUBLIC "-//W3C//DTD SVG 1.1//EN" "http://www.w3.org/Graphics/SVG/1.1/DTD/svg11.dtd">
<svg version="1.1" xmlns="http://www.w3.org/2000/svg" xmlns:xlink="http://www.w3.org/1999/xlink" x="0px" y="0px"
	 width="453.543px" height="453.543px" viewBox="0 0 453.543 453.543" enable-background="new 0 0 453.543 453.543"
	 xml:space="preserve">
<g id="kvadrat" display="none">
</g>
<g id="color">
	<g>
		
			<path fill="#FFFFFF" stroke="#000000" stroke-width="8" stroke-linecap="round" stroke-linejoin="round" stroke-miterlimit="10" d="
			M181.236,351.971c-29.45,0-31.285-55.57-43.848-103.689c-16.27-62.319-28.224-122.513,11.328-140.891
			c35.399-18.407,48.137,12.744,80.004,12.744S328.98,79.183,331.38,153.18c0.81,24.991-9.842,55.776-14.161,85.592
			c-8.468,58.465-13.452,113.198-40.355,113.198c-26.904,0-15.144-104.397-50.094-104.397
			C191.821,247.574,210.686,351.971,181.236,351.971z"/>
		
			<line fill="#FFFFFF" stroke="#000000" stroke-width="8" stroke-linecap="round" stroke-linejoin="round" stroke-miterlimit="10" x1="190.489" y1="162.617" x2="294.568" y2="108.838"/>
	</g>
	<g id="rdeča7bela">
	</g>
</g>
<g id="cb" display="none">
	<g display="inline">
		<path fill="none" stroke="#000000" stroke-width="8" stroke-linecap="round" stroke-linejoin="round" stroke-miterlimit="10" d="
			M181.236,351.971c-29.45,0-31.285-55.57-43.848-103.689c-16.27-62.319-28.224-122.513,11.328-140.891
			c35.399-18.407,48.137,12.744,80.004,12.744S328.98,79.183,331.38,153.18c0.81,24.991-9.842,55.776-14.161,85.592
			c-8.468,58.465-13.452,113.198-40.355,113.198c-26.904,0-15.144-104.397-50.094-104.397
			C191.821,247.574,210.686,351.971,181.236,351.971z"/>
		
			<line fill="none" stroke="#000000" stroke-width="8" stroke-linecap="round" stroke-linejoin="round" stroke-miterlimit="10" x1="190.489" y1="162.617" x2="294.568" y2="108.838"/>
	</g>
	<g id="rdeča7bela_copy" display="inline">
	</g>
</g>
<g id="pivot">
	<circle fill="none" cx="224.221" cy="339.53" r="14.133"/>
</g>
</svg>
