<?xml version="1.0" encoding="utf-8"?>
<!-- Generator: Adobe Illustrator 16.0.0, SVG Export Plug-In . SVG Version: 6.00 Build 0)  -->
<!DOCTYPE svg PUBLIC "-//W3C//DTD SVG 1.1//EN" "http://www.w3.org/Graphics/SVG/1.1/DTD/svg11.dtd">
<svg version="1.1" xmlns="http://www.w3.org/2000/svg" xmlns:xlink="http://www.w3.org/1999/xlink" x="0px" y="0px"
	 width="453.543px" height="453.543px" viewBox="0 0 453.543 453.543" enable-background="new 0 0 453.543 453.543"
	 xml:space="preserve">
<g id="kvadrat" display="none">
</g>
<g id="color" display="none">
	<g id="rdeča7bela" display="inline">
	</g>
	
		<path display="inline" fill="#A6A8AB" stroke="#000000" stroke-width="8" stroke-linecap="round" stroke-linejoin="round" stroke-miterlimit="10" d="
		M204.973,161.791v223.246h43.598V161.791c17.534-8.21,29.683-26.002,29.683-46.643c0-20.64-12.149-38.433-29.683-46.641v37.08
		l-21.799,12.586l-21.799-12.586v-37.08c-17.533,8.208-29.684,26.001-29.684,46.641
		C175.289,135.789,187.439,153.581,204.973,161.791z"/>
</g>
<g id="cb">
	<g id="rdeča7bela_copy">
	</g>
	<path fill="none" stroke="#000000" stroke-width="8" stroke-linecap="round" stroke-linejoin="round" stroke-miterlimit="10" d="
		M204.973,161.791v223.246h43.598V161.791c17.534-8.21,29.683-26.002,29.683-46.643c0-20.64-12.149-38.433-29.683-46.641v37.08
		l-21.799,12.586l-21.799-12.586v-37.08c-17.533,8.208-29.684,26.001-29.684,46.641
		C175.289,135.789,187.439,153.581,204.973,161.791z"/>
</g>
<g id="pivot">
	<circle fill="none" cx="224.685" cy="382.031" r="14.133"/>
</g>
</svg>
