<?xml version="1.0" encoding="utf-8"?>
<!-- Generator: Adobe Illustrator 16.0.0, SVG Export Plug-In . SVG Version: 6.00 Build 0)  -->
<!DOCTYPE svg PUBLIC "-//W3C//DTD SVG 1.1//EN" "http://www.w3.org/Graphics/SVG/1.1/DTD/svg11.dtd">
<svg version="1.1" xmlns="http://www.w3.org/2000/svg" xmlns:xlink="http://www.w3.org/1999/xlink" x="0px" y="0px"
	 width="453.543px" height="453.543px" viewBox="0 0 453.543 453.543" enable-background="new 0 0 453.543 453.543"
	 xml:space="preserve">
<g id="kvadrat" display="none">
</g>
<g id="color" display="none">
	<g id="rdeča7bela" display="inline">
	</g>
	<g display="inline">
		
			<path fill="#0073B3" stroke="#000100" stroke-width="8" stroke-linecap="round" stroke-linejoin="round" stroke-miterlimit="10" d="
			M182.131,320.647v70.268l73.976-24.763v11.313l15.305-6.347V361.03v-35.559v-33.625L182.131,320.647z M252.73,340.643
			l-48.929,15.785v-22.483l48.929-15.784V340.643z"/>
		
			<polyline fill="#A6A8AB" stroke="#000000" stroke-width="8" stroke-linecap="round" stroke-linejoin="round" stroke-miterlimit="10" points="
			182.244,320.077 192.475,312.192 186.651,300.262 197.342,292.393 191.516,280.461 202.209,272.59 196.385,260.661 
			207.074,252.795 201.25,240.868 211.941,233.001 206.117,221.071 216.807,213.203 210.982,201.272 221.676,193.4 215.852,181.47 
			226.541,173.598 220.719,161.667 231.41,153.793 225.586,141.862 236.28,133.99 230.453,122.06 241.145,114.189 235.323,102.256 
			246.016,94.381 240.191,82.448 250.885,74.569 245.063,62.627 245.526,62.643 271.412,62.643 271.412,291.313 182.244,320.077 		
			"/>
	</g>
</g>
<g id="cb">
	<g id="rdeča7bela_copy">
	</g>
	<g>
		<path fill="none" stroke="#000000" stroke-width="8" stroke-linecap="round" stroke-linejoin="round" stroke-miterlimit="10" d="
			M182.131,320.647v70.268l73.976-24.763v11.313l15.305-6.347V361.03v-35.559v-33.625L182.131,320.647z M252.73,340.643
			l-48.929,15.785v-22.483l48.929-15.784V340.643z"/>
		
			<polyline fill="none" stroke="#000000" stroke-width="8" stroke-linecap="round" stroke-linejoin="round" stroke-miterlimit="10" points="
			182.244,320.077 192.475,312.192 186.651,300.262 197.342,292.393 191.516,280.461 202.209,272.59 196.385,260.661 
			207.074,252.795 201.25,240.868 211.941,233.001 206.117,221.071 216.807,213.203 210.982,201.272 221.676,193.4 215.852,181.47 
			226.541,173.598 220.719,161.667 231.41,153.793 225.586,141.862 236.28,133.99 230.453,122.06 241.145,114.189 235.323,102.256 
			246.016,94.381 240.191,82.448 250.885,74.569 245.063,62.627 245.526,62.643 271.412,62.643 271.412,291.313 182.244,320.077 		
			"/>
	</g>
</g>
<g id="pivot">
	<circle fill="none" cx="225.117" cy="373.352" r="14.133"/>
</g>
</svg>
