<?xml version="1.0" encoding="utf-8"?>
<!-- Generator: Adobe Illustrator 16.0.0, SVG Export Plug-In . SVG Version: 6.00 Build 0)  -->
<!DOCTYPE svg PUBLIC "-//W3C//DTD SVG 1.1//EN" "http://www.w3.org/Graphics/SVG/1.1/DTD/svg11.dtd">
<svg version="1.1" xmlns="http://www.w3.org/2000/svg" xmlns:xlink="http://www.w3.org/1999/xlink" x="0px" y="0px"
	 width="453.543px" height="453.543px" viewBox="0 0 453.543 453.543" enable-background="new 0 0 453.543 453.543"
	 xml:space="preserve">
<g id="kvadrat" display="none">
</g>
<g id="color" display="none">
	<g id="rdeča7bela" display="inline">
	</g>
	
		<path display="inline" stroke="#000000" stroke-width="8" stroke-linecap="round" stroke-linejoin="round" stroke-miterlimit="10" d="
		M262.093,103.45h-16.322v9.037h-38v-9.037h-16.32c-6.627,0-12,5.373-12,12v12.657c0,6.627,5.373,12,12,12h16.992v18.662h-6.831
		v5.333h6.831v18.103h-6.831v5.332h6.831v18.104h-6.831v5.332h6.831v18.104h-6.831v5.332h6.831v20.54h-6.831v5.332h6.831v19.538
		h-6.831v5.333h6.831v18.105h-6.831v5.332h6.831v6.924c0,13.211,2.666,34.583,17.994,34.583c15.33,0,18.663-21.371,18.663-34.583
		v-6.924h6.832v-5.332H245.1V285.15h6.832v-5.333H245.1V260.28h6.832v-5.332H245.1v-20.54h6.832v-5.332H245.1v-18.104h6.832v-5.332
		H245.1v-18.104h6.832v-5.332H245.1v-18.103h6.832v-5.333H245.1v-18.662h16.993c6.627,0,12-5.373,12-12V115.45
		C274.093,108.823,268.72,103.45,262.093,103.45z"/>
</g>
<g id="cb">
	<g id="rdeča7bela_copy">
	</g>
	<path fill="none" stroke="#000000" stroke-width="8" stroke-linecap="round" stroke-linejoin="round" stroke-miterlimit="10" d="
		M262.093,103.45h-16.322v9.037h-38v-9.037h-16.32c-6.627,0-12,5.373-12,12v12.657c0,6.627,5.373,12,12,12h16.992v18.662h-6.831
		v5.333h6.831v18.103h-6.831v5.332h6.831v18.104h-6.831v5.332h6.831v18.104h-6.831v5.332h6.831v20.54h-6.831v5.332h6.831v19.538
		h-6.831v5.333h6.831v18.105h-6.831v5.332h6.831v6.924c0,13.211,2.666,34.583,17.994,34.583c15.33,0,18.663-21.371,18.663-34.583
		v-6.924h6.832v-5.332H245.1V285.15h6.832v-5.333H245.1V260.28h6.832v-5.332H245.1v-20.54h6.832v-5.332H245.1v-18.104h6.832v-5.332
		H245.1v-18.104h6.832v-5.332H245.1v-18.103h6.832v-5.333H245.1v-18.662h16.993c6.627,0,12-5.373,12-12V115.45
		C274.093,108.823,268.72,103.45,262.093,103.45z"/>
</g>
<g id="pivot">
	<circle fill="none" cx="225.079" cy="347.31" r="14.133"/>
</g>
</svg>
