<?xml version="1.0" encoding="utf-8"?>
<!-- Generator: Adobe Illustrator 16.0.0, SVG Export Plug-In . SVG Version: 6.00 Build 0)  -->
<!DOCTYPE svg PUBLIC "-//W3C//DTD SVG 1.1//EN" "http://www.w3.org/Graphics/SVG/1.1/DTD/svg11.dtd">
<svg version="1.1" xmlns="http://www.w3.org/2000/svg" xmlns:xlink="http://www.w3.org/1999/xlink" x="0px" y="0px"
	 width="453.543px" height="453.543px" viewBox="0 0 453.543 453.543" enable-background="new 0 0 453.543 453.543"
	 xml:space="preserve">
<g id="kvadrat" display="none">
</g>
<g id="color">
	<g>
		<path d="M156.877,225.779c0-71.163,27.803-108.235,71.494-108.235s71.494,37.402,71.494,108.235
			c0,71.163-27.803,110.221-71.494,110.221S156.877,296.942,156.877,225.779z M263.458,225.779
			c0-59.579-14.564-78.445-35.086-78.445c-20.189,0-35.086,18.866-35.086,78.445s14.896,80.432,35.086,80.432
			C248.893,306.211,263.458,285.358,263.458,225.779z"/>
	</g>
	<g id="rdeča7bela">
	</g>
</g>
<g id="cb" display="none">
	<g display="inline">
		<path d="M156.877,225.779c0-71.163,27.803-108.235,71.494-108.235s71.494,37.402,71.494,108.235
			c0,71.163-27.803,110.221-71.494,110.221S156.877,296.942,156.877,225.779z M263.458,225.779
			c0-59.579-14.564-78.445-35.086-78.445c-20.189,0-35.086,18.866-35.086,78.445s14.896,80.432,35.086,80.432
			C248.893,306.211,263.458,285.358,263.458,225.779z"/>
	</g>
	<g id="rdeča7bela_copy" display="inline">
	</g>
</g>
<g id="pivot">
	<circle fill="none" cx="229.687" cy="327.791" r="14.133"/>
</g>
</svg>
