<?xml version="1.0" encoding="utf-8"?>
<!-- Generator: Adobe Illustrator 16.0.0, SVG Export Plug-In . SVG Version: 6.00 Build 0)  -->
<!DOCTYPE svg PUBLIC "-//W3C//DTD SVG 1.1//EN" "http://www.w3.org/Graphics/SVG/1.1/DTD/svg11.dtd">
<svg version="1.1" xmlns="http://www.w3.org/2000/svg" xmlns:xlink="http://www.w3.org/1999/xlink" x="0px" y="0px"
	 width="453.544px" height="453.543px" viewBox="0 0 453.544 453.543" enable-background="new 0 0 453.544 453.543"
	 xml:space="preserve">
<g id="kvadrat" display="none">
</g>
<g id="color">
	<g>
		<path d="M76.005,300.915h47.002V162.56H84.28v-23.831c20.852-3.973,35.416-9.269,48.656-17.212h28.465v179.398h41.375v31.113
			H76.005V300.915z"/>
		<path d="M234.55,225.779c0-71.164,27.803-108.234,71.494-108.234s71.494,37.402,71.494,108.234
			c0,71.164-27.803,110.221-71.494,110.221S234.55,296.943,234.55,225.779z M341.13,225.779c0-59.578-14.564-78.445-35.086-78.445
			c-20.189,0-35.086,18.867-35.086,78.445c0,59.579,14.896,80.432,35.086,80.432C326.565,306.211,341.13,285.358,341.13,225.779z"/>
	</g>
	<g id="rdeča7bela">
	</g>
</g>
<g id="cb" display="none">
	<g display="inline">
		<path d="M76.005,300.915h47.002V162.56H84.28v-23.831c20.852-3.973,35.416-9.269,48.656-17.212h28.465v179.398h41.375v31.113
			H76.005V300.915z"/>
		<path d="M234.55,225.779c0-71.164,27.803-108.234,71.494-108.234s71.494,37.402,71.494,108.234
			c0,71.164-27.803,110.221-71.494,110.221S234.55,296.943,234.55,225.779z M341.13,225.779c0-59.578-14.564-78.445-35.086-78.445
			c-20.189,0-35.086,18.867-35.086,78.445c0,59.579,14.896,80.432,35.086,80.432C326.565,306.211,341.13,285.358,341.13,225.779z"/>
	</g>
	<g id="rdeča7bela_copy" display="inline">
	</g>
</g>
<g id="pivot">
	<circle fill="none" cx="225.935" cy="327.791" r="14.133"/>
</g>
</svg>
