<?xml version="1.0" encoding="utf-8"?>
<!-- Generator: Adobe Illustrator 16.0.0, SVG Export Plug-In . SVG Version: 6.00 Build 0)  -->
<!DOCTYPE svg PUBLIC "-//W3C//DTD SVG 1.1//EN" "http://www.w3.org/Graphics/SVG/1.1/DTD/svg11.dtd">
<svg version="1.1" xmlns="http://www.w3.org/2000/svg" xmlns:xlink="http://www.w3.org/1999/xlink" x="0px" y="0px"
	 width="453.543px" height="453.543px" viewBox="0 0 453.543 453.543" enable-background="new 0 0 453.543 453.543"
	 xml:space="preserve">
<g id="kvadrat" display="none">
</g>
<g id="color">
	<g>
		<path d="M158.035,309.852c58.586-56.6,95.326-93.671,95.326-125.777c0-22.177-12.248-36.409-34.756-36.409
			c-16.217,0-29.789,10.923-41.043,23.5l-21.184-21.184c19.2-20.521,38.397-32.438,67.194-32.438
			c40.381,0,66.529,25.486,66.529,64.545c0,37.401-34.754,75.797-76.461,119.818c10.924-0.992,24.826-2.316,35.086-2.316h51.635
			v32.438H158.035V309.852z"/>
	</g>
	<g id="rdeča7bela">
	</g>
</g>
<g id="cb" display="none">
	<g display="inline">
		<path d="M158.035,309.852c58.586-56.6,95.326-93.671,95.326-125.777c0-22.177-12.248-36.409-34.756-36.409
			c-16.217,0-29.789,10.923-41.043,23.5l-21.184-21.184c19.2-20.521,38.397-32.438,67.194-32.438
			c40.381,0,66.529,25.486,66.529,64.545c0,37.401-34.754,75.797-76.461,119.818c10.924-0.992,24.826-2.316,35.086-2.316h51.635
			v32.438H158.035V309.852z"/>
	</g>
	<g id="rdeča7bela_copy" display="inline">
	</g>
</g>
<g id="pivot">
	<circle fill="none" cx="218.748" cy="330.301" r="14.132"/>
</g>
</svg>
