<?xml version="1.0" encoding="utf-8"?>
<!-- Generator: Adobe Illustrator 16.0.0, SVG Export Plug-In . SVG Version: 6.00 Build 0)  -->
<!DOCTYPE svg PUBLIC "-//W3C//DTD SVG 1.1//EN" "http://www.w3.org/Graphics/SVG/1.1/DTD/svg11.dtd">
<svg version="1.1" xmlns="http://www.w3.org/2000/svg" xmlns:xlink="http://www.w3.org/1999/xlink" x="0px" y="0px"
	 width="453.544px" height="453.543px" viewBox="0 0 453.544 453.543" enable-background="new 0 0 453.544 453.543"
	 xml:space="preserve">
<g id="kvadrat" display="none">
</g>
<g id="color">
	<g>
		<path d="M70.875,309.852c58.586-56.6,95.326-93.671,95.326-125.777c0-22.177-12.247-36.409-34.755-36.409
			c-16.218,0-29.789,10.923-41.043,23.501L69.22,149.982c19.198-20.522,38.396-32.438,67.192-32.438
			c40.381,0,66.529,25.486,66.529,64.543c0,37.402-34.754,75.798-76.46,119.82c10.923-0.993,24.825-2.317,35.085-2.317h51.635
			v32.438H70.875V309.852z"/>
		<path d="M241.335,225.779c0-71.164,27.804-108.234,71.495-108.234s71.494,37.402,71.494,108.234
			c0,71.164-27.803,110.221-71.494,110.221S241.335,296.943,241.335,225.779z M347.915,225.779
			c0-59.578-14.563-78.445-35.085-78.445c-20.191,0-35.086,18.867-35.086,78.445c0,59.579,14.895,80.432,35.086,80.432
			C333.352,306.211,347.915,285.358,347.915,225.779z"/>
	</g>
	<g id="rdeča7bela">
	</g>
</g>
<g id="cb" display="none">
	<g display="inline">
		<path d="M70.875,309.852c58.586-56.6,95.326-93.671,95.326-125.777c0-22.177-12.247-36.409-34.755-36.409
			c-16.218,0-29.789,10.923-41.043,23.501L69.22,149.982c19.198-20.522,38.396-32.438,67.192-32.438
			c40.381,0,66.529,25.486,66.529,64.543c0,37.402-34.754,75.798-76.46,119.82c10.923-0.993,24.825-2.317,35.085-2.317h51.635
			v32.438H70.875V309.852z"/>
		<path d="M241.335,225.779c0-71.164,27.804-108.234,71.495-108.234s71.494,37.402,71.494,108.234
			c0,71.164-27.803,110.221-71.494,110.221S241.335,296.943,241.335,225.779z M347.915,225.779
			c0-59.578-14.563-78.445-35.085-78.445c-20.191,0-35.086,18.867-35.086,78.445c0,59.579,14.895,80.432,35.086,80.432
			C333.352,306.211,347.915,285.358,347.915,225.779z"/>
	</g>
	<g id="rdeča7bela_copy" display="inline">
	</g>
</g>
<g id="pivot">
	<circle fill="none" cx="226.494" cy="327.791" r="14.133"/>
</g>
</svg>
