<?xml version="1.0" encoding="utf-8"?>
<!-- Generator: Adobe Illustrator 16.0.0, SVG Export Plug-In . SVG Version: 6.00 Build 0)  -->
<!DOCTYPE svg PUBLIC "-//W3C//DTD SVG 1.1//EN" "http://www.w3.org/Graphics/SVG/1.1/DTD/svg11.dtd">
<svg version="1.1" xmlns="http://www.w3.org/2000/svg" xmlns:xlink="http://www.w3.org/1999/xlink" x="0px" y="0px"
	 width="453.544px" height="453.543px" viewBox="0 0 453.544 453.543" enable-background="new 0 0 453.544 453.543"
	 xml:space="preserve">
<g id="kvadrat" display="none">
</g>
<g id="color">
	<g>
		<path d="M85.272,282.379c12.578,11.916,28.135,22.508,49.318,22.508c23.5,0,40.713-14.895,40.713-40.381
			c0-25.156-15.557-39.389-38.727-39.389c-13.57,0-21.184,3.641-33.762,11.916L84.61,225.448l6.289-103.932h112.539v32.106h-79.439
			l-4.303,50.973c8.938-4.303,16.881-6.951,27.803-6.951c36.08,0,66.199,20.521,66.199,65.868c0,46.008-35.416,72.487-74.143,72.487
			c-34.092,0-56.268-13.57-71.824-29.127L85.272,282.379z"/>
		<path d="M242.825,225.779c0-71.164,27.803-108.234,71.494-108.234s71.494,37.402,71.494,108.234
			c0,71.164-27.803,110.221-71.494,110.221S242.825,296.943,242.825,225.779z M349.403,225.779
			c0-59.578-14.563-78.445-35.084-78.445c-20.191,0-35.086,18.867-35.086,78.445c0,59.579,14.895,80.432,35.086,80.432
			C334.841,306.211,349.403,285.358,349.403,225.779z"/>
	</g>
	<g id="rdeča7bela">
	</g>
</g>
<g id="cb" display="none">
	<g display="inline">
		<path d="M85.272,282.379c12.578,11.916,28.135,22.508,49.318,22.508c23.5,0,40.713-14.895,40.713-40.381
			c0-25.156-15.557-39.389-38.727-39.389c-13.57,0-21.184,3.641-33.762,11.916L84.61,225.448l6.289-103.932h112.539v32.106h-79.439
			l-4.303,50.973c8.938-4.303,16.881-6.951,27.803-6.951c36.08,0,66.199,20.521,66.199,65.868c0,46.008-35.416,72.487-74.143,72.487
			c-34.092,0-56.268-13.57-71.824-29.127L85.272,282.379z"/>
		<path d="M242.825,225.779c0-71.164,27.803-108.234,71.494-108.234s71.494,37.402,71.494,108.234
			c0,71.164-27.803,110.221-71.494,110.221S242.825,296.943,242.825,225.779z M349.403,225.779
			c0-59.578-14.563-78.445-35.084-78.445c-20.191,0-35.086,18.867-35.086,78.445c0,59.579,14.895,80.432,35.086,80.432
			C334.841,306.211,349.403,285.358,349.403,225.779z"/>
	</g>
	<g id="rdeča7bela_copy" display="inline">
	</g>
</g>
<g id="pivot">
	<circle fill="none" cx="224.016" cy="327.791" r="14.133"/>
</g>
</svg>
