<?xml version="1.0" encoding="utf-8"?>
<!-- Generator: Adobe Illustrator 16.0.0, SVG Export Plug-In . SVG Version: 6.00 Build 0)  -->
<!DOCTYPE svg PUBLIC "-//W3C//DTD SVG 1.1//EN" "http://www.w3.org/Graphics/SVG/1.1/DTD/svg11.dtd">
<svg version="1.1" xmlns="http://www.w3.org/2000/svg" xmlns:xlink="http://www.w3.org/1999/xlink" x="0px" y="0px"
	 width="453.543px" height="453.543px" viewBox="0 0 453.543 453.543" enable-background="new 0 0 453.543 453.543"
	 xml:space="preserve">
<g id="kvadrat" display="none">
</g>
<g id="color">
	<g>
		<path d="M195.106,224.124V222.8c-16.219-11.584-29.127-27.141-29.127-49.317c0-34.093,27.141-55.938,63.551-55.938
			c37.732,0,61.896,22.839,61.896,56.932c0,20.853-14.564,38.395-28.135,48.324v1.324c19.527,10.924,36.408,26.48,36.408,54.614
			c0,32.438-28.465,57.262-71.162,57.262c-41.045,0-71.496-23.831-71.496-57.924C157.042,251.928,175.247,234.716,195.106,224.124z
			 M229.2,308.858c20.191,0,34.754-11.916,34.754-31.443c0-22.84-22.178-31.114-50.643-42.699
			c-13.24,9.6-22.838,23.17-22.838,39.389C190.473,294.957,207.684,308.858,229.2,308.858z M259.981,176.792
			c0-18.535-11.584-32.105-31.113-32.105c-16.219,0-28.797,10.592-28.797,28.796c0,21.184,18.867,30.451,42.367,39.72
			C253.692,201.948,259.981,190.032,259.981,176.792z"/>
	</g>
	<g id="rdeča7bela">
	</g>
</g>
<g id="cb" display="none">
	<g display="inline">
		<path d="M195.106,224.124V222.8c-16.219-11.584-29.127-27.141-29.127-49.317c0-34.093,27.141-55.938,63.551-55.938
			c37.732,0,61.896,22.839,61.896,56.932c0,20.853-14.564,38.395-28.135,48.324v1.324c19.527,10.924,36.408,26.48,36.408,54.614
			c0,32.438-28.465,57.262-71.162,57.262c-41.045,0-71.496-23.831-71.496-57.924C157.042,251.928,175.247,234.716,195.106,224.124z
			 M229.2,308.858c20.191,0,34.754-11.916,34.754-31.443c0-22.84-22.178-31.114-50.643-42.699
			c-13.24,9.6-22.838,23.17-22.838,39.389C190.473,294.957,207.684,308.858,229.2,308.858z M259.981,176.792
			c0-18.535-11.584-32.105-31.113-32.105c-16.219,0-28.797,10.592-28.797,28.796c0,21.184,18.867,30.451,42.367,39.72
			C253.692,201.948,259.981,190.032,259.981,176.792z"/>
	</g>
	<g id="rdeča7bela_copy" display="inline">
	</g>
</g>
<g id="pivot">
	<circle fill="none" cx="218.792" cy="327.791" r="14.133"/>
</g>
</svg>
