<?xml version="1.0" encoding="utf-8"?>
<!-- Generator: Adobe Illustrator 16.0.0, SVG Export Plug-In . SVG Version: 6.00 Build 0)  -->
<!DOCTYPE svg PUBLIC "-//W3C//DTD SVG 1.1//EN" "http://www.w3.org/Graphics/SVG/1.1/DTD/svg11.dtd">
<svg version="1.1" xmlns="http://www.w3.org/2000/svg" xmlns:xlink="http://www.w3.org/1999/xlink" x="0px" y="0px"
	 width="453.543px" height="453.543px" viewBox="0 0 453.543 453.543" enable-background="new 0 0 453.543 453.543"
	 xml:space="preserve">
<g id="kvadrat" display="none">
</g>
<g id="color">
	<g>
		<path d="M181.04,288.999c7.941,9.268,20.852,15.888,33.762,15.888c26.479,0,47.994-19.528,49.646-77.783
			c-12.244,15.226-30.781,24.493-46.006,24.493c-36.078,0-61.234-21.184-61.234-65.205c0-42.037,30.121-68.848,66.199-68.848
			c41.041,0,76.129,31.775,76.129,102.608c0,81.755-39.389,115.848-82.748,115.848c-25.156,0-43.693-10.592-56.27-23.831
			L181.04,288.999z M263.458,199.631c-3.973-37.071-19.199-52.959-39.721-52.959c-17.211,0-31.443,14.233-31.443,39.72
			c0,24.824,12.246,37.732,33.43,37.732C237.639,224.124,251.872,217.173,263.458,199.631z"/>
	</g>
	<g id="rdeča7bela">
	</g>
</g>
<g id="cb" display="none">
	<g display="inline">
		<path d="M181.04,288.999c7.941,9.268,20.852,15.888,33.762,15.888c26.479,0,47.994-19.528,49.646-77.783
			c-12.244,15.226-30.781,24.493-46.006,24.493c-36.078,0-61.234-21.184-61.234-65.205c0-42.037,30.121-68.848,66.199-68.848
			c41.041,0,76.129,31.775,76.129,102.608c0,81.755-39.389,115.848-82.748,115.848c-25.156,0-43.693-10.592-56.27-23.831
			L181.04,288.999z M263.458,199.631c-3.973-37.071-19.199-52.959-39.721-52.959c-17.211,0-31.443,14.233-31.443,39.72
			c0,24.824,12.246,37.732,33.43,37.732C237.639,224.124,251.872,217.173,263.458,199.631z"/>
	</g>
	<g id="rdeča7bela_copy" display="inline">
	</g>
</g>
<g id="pivot">
	<circle fill="none" cx="230.513" cy="327.791" r="14.133"/>
</g>
</svg>
