<?xml version="1.0" encoding="utf-8"?>
<!-- Generator: Adobe Illustrator 16.0.0, SVG Export Plug-In . SVG Version: 6.00 Build 0)  -->
<!DOCTYPE svg PUBLIC "-//W3C//DTD SVG 1.1//EN" "http://www.w3.org/Graphics/SVG/1.1/DTD/svg11.dtd">
<svg version="1.1" xmlns="http://www.w3.org/2000/svg" xmlns:xlink="http://www.w3.org/1999/xlink" x="0px" y="0px"
	 width="453.544px" height="453.543px" viewBox="0 0 453.544 453.543" enable-background="new 0 0 453.544 453.543"
	 xml:space="preserve">
<g id="kvadrat" display="none">
</g>
<g id="color">
	<g>
		<path d="M93.714,288.999c7.943,9.269,20.852,15.888,33.762,15.888c26.479,0,47.994-19.528,49.648-77.783
			c-12.246,15.226-30.783,24.493-46.008,24.493c-36.078,0-61.234-21.184-61.234-65.206c0-42.035,30.121-68.846,66.199-68.846
			c41.043,0,76.129,31.775,76.129,102.607c0,81.756-39.389,115.848-82.75,115.848c-25.154,0-43.689-10.592-56.268-23.831
			L93.714,288.999z M176.132,199.631c-3.973-37.071-19.199-52.959-39.721-52.959c-17.211,0-31.443,14.232-31.443,39.719
			c0,24.825,12.246,37.734,33.43,37.734C150.313,224.125,164.546,217.174,176.132,199.631z"/>
		<path d="M240.673,225.779c0-71.164,27.803-108.234,71.494-108.234s71.496,37.402,71.496,108.234
			c0,71.164-27.805,110.221-71.496,110.221S240.673,296.943,240.673,225.779z M347.253,225.779
			c0-59.578-14.564-78.445-35.086-78.445c-20.189,0-35.084,18.867-35.084,78.445c0,59.579,14.895,80.432,35.084,80.432
			C332.688,306.211,347.253,285.358,347.253,225.779z"/>
	</g>
	<g id="rdeča7bela">
	</g>
</g>
<g id="cb" display="none">
	<g display="inline">
		<path d="M93.714,288.999c7.943,9.269,20.852,15.888,33.762,15.888c26.479,0,47.994-19.528,49.648-77.783
			c-12.246,15.226-30.783,24.493-46.008,24.493c-36.078,0-61.234-21.184-61.234-65.206c0-42.035,30.121-68.846,66.199-68.846
			c41.043,0,76.129,31.775,76.129,102.607c0,81.756-39.389,115.848-82.75,115.848c-25.154,0-43.689-10.592-56.268-23.831
			L93.714,288.999z M176.132,199.631c-3.973-37.071-19.199-52.959-39.721-52.959c-17.211,0-31.443,14.232-31.443,39.719
			c0,24.825,12.246,37.734,33.43,37.734C150.313,224.125,164.546,217.174,176.132,199.631z"/>
		<path d="M240.673,225.779c0-71.164,27.803-108.234,71.494-108.234s71.496,37.402,71.496,108.234
			c0,71.164-27.805,110.221-71.496,110.221S240.673,296.943,240.673,225.779z M347.253,225.779
			c0-59.578-14.564-78.445-35.086-78.445c-20.189,0-35.084,18.867-35.084,78.445c0,59.579,14.895,80.432,35.084,80.432
			C332.688,306.211,347.253,285.358,347.253,225.779z"/>
	</g>
	<g id="rdeča7bela_copy" display="inline">
	</g>
</g>
<g id="pivot">
	<circle fill="none" cx="220.71" cy="327.791" r="14.133"/>
</g>
</svg>
