<?xml version="1.0" encoding="utf-8"?>
<!-- Generator: Adobe Illustrator 16.0.0, SVG Export Plug-In . SVG Version: 6.00 Build 0)  -->
<!DOCTYPE svg PUBLIC "-//W3C//DTD SVG 1.1//EN" "http://www.w3.org/Graphics/SVG/1.1/DTD/svg11.dtd">
<svg version="1.1" xmlns="http://www.w3.org/2000/svg" xmlns:xlink="http://www.w3.org/1999/xlink" x="0px" y="0px" width="220px"
	 height="220px" viewBox="0 0 220 220" enable-background="new 0 0 220 220" xml:space="preserve">
<g id="bg">
	<g>
		<g>
			<rect fill="#009E73" width="220" height="220"/>
		</g>
	</g>
</g>
<g id="Layer_1">
	<g>
		
			<path fill="none" stroke="#010202" stroke-width="2.4" stroke-linecap="round" stroke-linejoin="round" stroke-miterlimit="10" d="
			M38.629-47.453c0-30.279-30.078-31.962-30.078,2.162c0,34.125,0,83.87,0,83.87"/>
		
			<path fill="#3BAA35" stroke="#010202" stroke-width="2.4" stroke-linecap="round" stroke-linejoin="round" stroke-miterlimit="10" d="
			M8.683,38.199c0,0-10.952-14.191-16.046-33.877c-5.093-19.685-2.397-37.407-2.397-37.407S1.192-18.893,6.285,0.792
			S8.683,38.199,8.683,38.199z"/>
	</g>
	<g>
		
			<path fill="#3BAA35" stroke="#010202" stroke-width="2.4" stroke-linecap="round" stroke-linejoin="round" stroke-miterlimit="10" d="
			M228.634,38.199c0,0-10.952-14.191-16.046-33.877c-5.093-19.685-2.397-37.407-2.397-37.407s10.953,14.192,16.046,33.877
			S228.634,38.199,228.634,38.199z"/>
	</g>
	
		<line fill="none" stroke="#FFFFFF" stroke-width="2.4" stroke-miterlimit="10" stroke-dasharray="20" x1="0" y1="60.277" x2="220" y2="60.277"/>
	<line fill="none" stroke="#FFFFFF" stroke-width="2.4" stroke-miterlimit="10" x1="0" y1="79.276" x2="220" y2="79.276"/>
	<g>
		
			<path fill="none" stroke="#010202" stroke-width="2.4" stroke-linecap="round" stroke-linejoin="round" stroke-miterlimit="10" d="
			M38.629,172.527c0-30.279-30.078-31.962-30.078,2.162c0,34.125,0,83.87,0,83.87"/>
		
			<path fill="#FFFFFF" stroke="#010202" stroke-width="2.4" stroke-linecap="round" stroke-linejoin="round" stroke-miterlimit="10" d="
			M35.136,206.037c0,0-11.717-14.43-11.717-24.01s23.433-7.839,23.433,0S35.136,206.037,35.136,206.037z"/>
		
			<path fill="#FFFFFF" stroke="#010202" stroke-width="2.4" stroke-linecap="round" stroke-linejoin="round" stroke-miterlimit="10" d="
			M35.466,171.191c0,21.81,14.004,34.66,14.004,34.66s0.087-18.776,0.095-20.543c0.035-7.437-5.625-13.55-12.917-14.117
			l-2.439,0.015c-7.123,0.671-12.653,6.658-12.688,13.971c-0.007,1.768-0.094,20.544-0.094,20.544S35.466,192.93,35.466,171.191z"/>
		
			<path fill="#3BAA35" stroke="#010202" stroke-width="2.4" stroke-linecap="round" stroke-linejoin="round" stroke-miterlimit="10" d="
			M41,172.512c0,0,0.034-7.396,0.037-8.092c0.014-2.929-2.215-5.336-5.088-5.56l-0.961,0.006c-2.806,0.264-4.983,2.622-4.997,5.502
			c-0.003,0.696-0.037,8.092-0.037,8.092L41,172.512z"/>
		
			<path fill="#3BAA35" stroke="#010202" stroke-width="2.4" stroke-linecap="round" stroke-linejoin="round" stroke-miterlimit="10" d="
			M8.683,258.18c0,0-10.952-14.191-16.046-33.877c-5.093-19.685-2.397-37.407-2.397-37.407s10.953,14.192,16.046,33.877
			S8.683,258.18,8.683,258.18z"/>
		
			<path fill="#3BAA35" stroke="#010202" stroke-width="2.4" stroke-linecap="round" stroke-linejoin="round" stroke-miterlimit="10" d="
			M13.375,155.827c0,0-2.209-7.242,0.722-13.543c2.933-6.302,9.896-9.276,9.896-9.276s2.209,7.242-0.723,13.543
			C20.337,152.853,13.375,155.827,13.375,155.827z"/>
	</g>
	<g>
		
			<path fill="#3BAA35" stroke="#010202" stroke-width="2.4" stroke-linecap="round" stroke-linejoin="round" stroke-miterlimit="10" d="
			M228.634,258.18c0,0-10.952-14.191-16.046-33.877c-5.093-19.685-2.397-37.407-2.397-37.407s10.953,14.192,16.046,33.877
			S228.634,258.18,228.634,258.18z"/>
	</g>
	<g>
		<g>
			
				<path fill="none" stroke="#010202" stroke-width="2.4" stroke-linecap="round" stroke-linejoin="round" stroke-miterlimit="10" d="
				M161.396-33.04c0-50.151-49.818-52.938-49.818,3.581c0,56.521,0,138.913,0,138.913"/>
			
				<path fill="#FFFFFF" stroke="#010202" stroke-width="2.4" stroke-linecap="round" stroke-linejoin="round" stroke-miterlimit="10" d="
				M155.611,22.462c0,0-19.406-23.899-19.406-39.767c0-15.868,38.813-12.983,38.813,0S155.611,22.462,155.611,22.462z"/>
			
				<path fill="#FFFFFF" stroke="#010202" stroke-width="2.4" stroke-linecap="round" stroke-linejoin="round" stroke-miterlimit="10" d="
				M156.158-35.253c0,36.123,23.194,57.408,23.194,57.408s0.144-31.1,0.157-34.025c0.059-12.317-9.316-22.442-21.395-23.383
				l-4.041,0.024c-11.797,1.111-20.957,11.028-21.014,23.14c-0.013,2.928-0.156,34.027-0.156,34.027S156.158,0.752,156.158-35.253z"
				/>
			
				<path fill="#3BAA35" stroke="#010202" stroke-width="2.4" stroke-linecap="round" stroke-linejoin="round" stroke-miterlimit="10" d="
				M111.797,108.825c0,0-18.141-23.505-26.575-56.11C76.785,20.112,81.25-9.242,81.25-9.242s18.142,23.507,26.576,56.11
				C116.262,79.472,111.797,108.825,111.797,108.825z"/>
		</g>
		<g>
			
				<path fill="none" stroke="#010202" stroke-width="2.4" stroke-linecap="round" stroke-linejoin="round" stroke-miterlimit="10" d="
				M161.396,186.96c0-50.151-49.818-52.938-49.818,3.581c0,56.521,0,138.913,0,138.913"/>
			
				<path fill="#FFFFFF" stroke="#010202" stroke-width="2.4" stroke-linecap="round" stroke-linejoin="round" stroke-miterlimit="10" d="
				M155.611,242.462c0,0-19.406-23.899-19.406-39.767c0-15.868,38.813-12.983,38.813,0S155.611,242.462,155.611,242.462z"/>
			
				<path fill="#FFFFFF" stroke="#010202" stroke-width="2.4" stroke-linecap="round" stroke-linejoin="round" stroke-miterlimit="10" d="
				M156.158,184.747c0,36.123,23.194,57.408,23.194,57.408s0.144-31.1,0.157-34.025c0.059-12.317-9.316-22.442-21.395-23.383
				l-4.041,0.024c-11.797,1.111-20.957,11.028-21.014,23.14c-0.013,2.928-0.156,34.027-0.156,34.027
				S156.158,220.752,156.158,184.747z"/>
			
				<path fill="#3BAA35" stroke="#010202" stroke-width="2.4" stroke-linecap="round" stroke-linejoin="round" stroke-miterlimit="10" d="
				M165.324,186.935c0,0,0.057-12.249,0.062-13.402c0.023-4.851-3.669-8.838-8.427-9.209l-1.591,0.01
				c-4.647,0.438-8.255,4.344-8.277,9.113c-0.005,1.153-0.062,13.402-0.062,13.402L165.324,186.935z"/>
			
				<path fill="#3BAA35" stroke="#010202" stroke-width="2.4" stroke-linecap="round" stroke-linejoin="round" stroke-miterlimit="10" d="
				M111.797,328.825c0,0-18.141-23.505-26.575-56.11c-8.437-32.603-3.972-61.957-3.972-61.957s18.142,23.507,26.576,56.11
				C116.262,299.472,111.797,328.825,111.797,328.825z"/>
			
				<path fill="#3BAA35" stroke="#010202" stroke-width="2.4" stroke-linecap="round" stroke-linejoin="round" stroke-miterlimit="10" d="
				M119.568,159.3c0,0-3.658-11.995,1.196-22.431c4.856-10.438,16.39-15.365,16.39-15.365s3.659,11.996-1.197,22.432
				C131.101,154.373,119.568,159.3,119.568,159.3z"/>
		</g>
	</g>
</g>
</svg>
