<?xml version="1.0" encoding="utf-8"?>
<!-- Generator: Adobe Illustrator 16.0.0, SVG Export Plug-In . SVG Version: 6.00 Build 0)  -->
<!DOCTYPE svg PUBLIC "-//W3C//DTD SVG 1.1//EN" "http://www.w3.org/Graphics/SVG/1.1/DTD/svg11.dtd">
<svg version="1.1" xmlns="http://www.w3.org/2000/svg" xmlns:xlink="http://www.w3.org/1999/xlink" x="0px" y="0px" width="220px"
	 height="220px" viewBox="0 0 220 220" enable-background="new 0 0 220 220" xml:space="preserve">
<g id="bg">
	<g>
		<g>
			<rect fill="#009E73" width="220" height="220"/>
		</g>
	</g>
</g>
<g id="Layer_1">
	<g>
		
			<path fill="none" stroke="#010202" stroke-width="2.4" stroke-linecap="round" stroke-linejoin="round" stroke-miterlimit="10" d="
			M38.629-47.453c0-30.279-30.078-31.962-30.078,2.162c0,34.125,0,83.87,0,83.87"/>
		
			<path fill="#3BAA35" stroke="#010202" stroke-width="2.4" stroke-linecap="round" stroke-linejoin="round" stroke-miterlimit="10" d="
			M8.684,38.199c0,0-10.953-14.191-16.045-33.877C-12.455-15.362-9.76-33.085-9.76-33.085S1.193-18.893,6.286,0.792
			S8.684,38.199,8.684,38.199z"/>
	</g>
	<g>
		
			<path fill="#3BAA35" stroke="#010202" stroke-width="2.4" stroke-linecap="round" stroke-linejoin="round" stroke-miterlimit="10" d="
			M228.635,38.199c0,0-10.953-14.191-16.045-33.877c-5.094-19.685-2.398-37.407-2.398-37.407s10.953,14.192,16.046,33.877
			S228.635,38.199,228.635,38.199z"/>
	</g>
	<g>
		
			<path fill="none" stroke="#010202" stroke-width="2.4" stroke-linecap="round" stroke-linejoin="round" stroke-miterlimit="10" d="
			M161.397-83.04c0-50.151-49.818-52.938-49.818,3.581c0,56.521,0,138.913,0,138.913"/>
		
			<path fill="#3BAA35" stroke="#010202" stroke-width="2.4" stroke-linecap="round" stroke-linejoin="round" stroke-miterlimit="10" d="
			M111.799,58.825c0,0-18.141-23.505-26.576-56.11c-8.436-32.603-3.972-61.957-3.972-61.957s18.142,23.507,26.577,56.11
			C116.263,29.472,111.799,58.825,111.799,58.825z"/>
	</g>
	<line fill="none" stroke="#FFFFFF" stroke-width="2.4" stroke-miterlimit="10" x1="0" y1="60.277" x2="220" y2="60.277"/>
	<line fill="none" stroke="#FFFFFF" stroke-width="2.4" stroke-miterlimit="10" x1="0" y1="101.75" x2="220" y2="101.75"/>
	<g>
		<g>
			<line fill="none" stroke="#FFFFFF" stroke-width="2.4" stroke-miterlimit="10" x1="0" y1="79.276" x2="10" y2="79.276"/>
			
				<line fill="none" stroke="#FFFFFF" stroke-width="2.4" stroke-miterlimit="10" stroke-dasharray="18.1818,18.1818" x1="28.182" y1="79.276" x2="200.91" y2="79.276"/>
			<line fill="none" stroke="#FFFFFF" stroke-width="2.4" stroke-miterlimit="10" x1="210" y1="79.276" x2="220" y2="79.276"/>
		</g>
	</g>
	<g>
		
			<path fill="none" stroke="#010202" stroke-width="2.4" stroke-linecap="round" stroke-linejoin="round" stroke-miterlimit="10" d="
			M38.629,172.527c0-30.279-30.078-31.962-30.078,2.162c0,34.125,0,83.87,0,83.87"/>
		
			<path fill="#FFFFFF" stroke="#010202" stroke-width="2.4" stroke-linecap="round" stroke-linejoin="round" stroke-miterlimit="10" d="
			M35.137,206.037c0,0-11.717-14.43-11.717-24.01s23.434-7.839,23.434,0S35.137,206.037,35.137,206.037z"/>
		
			<path fill="#FFFFFF" stroke="#010202" stroke-width="2.4" stroke-linecap="round" stroke-linejoin="round" stroke-miterlimit="10" d="
			M35.467,171.191c0,21.81,14.004,34.66,14.004,34.66s0.086-18.776,0.096-20.543c0.034-7.437-5.625-13.55-12.918-14.117
			l-2.439,0.015c-7.123,0.671-12.653,6.658-12.688,13.971c-0.008,1.768-0.095,20.544-0.095,20.544S35.467,192.93,35.467,171.191z"/>
		
			<path fill="#3BAA35" stroke="#010202" stroke-width="2.4" stroke-linecap="round" stroke-linejoin="round" stroke-miterlimit="10" d="
			M41.001,172.512c0,0,0.034-7.396,0.037-8.092c0.015-2.929-2.216-5.336-5.088-5.56l-0.96,0.006
			c-2.807,0.264-4.984,2.622-4.998,5.502c-0.003,0.696-0.037,8.092-0.037,8.092L41.001,172.512z"/>
		
			<path fill="#3BAA35" stroke="#010202" stroke-width="2.4" stroke-linecap="round" stroke-linejoin="round" stroke-miterlimit="10" d="
			M8.684,258.18c0,0-10.953-14.191-16.045-33.877c-5.094-19.685-2.398-37.407-2.398-37.407s10.953,14.192,16.046,33.877
			S8.684,258.18,8.684,258.18z"/>
		
			<path fill="#3BAA35" stroke="#010202" stroke-width="2.4" stroke-linecap="round" stroke-linejoin="round" stroke-miterlimit="10" d="
			M13.375,155.827c0,0-2.209-7.242,0.723-13.543c2.932-6.302,9.896-9.276,9.896-9.276s2.209,7.242-0.724,13.543
			C20.338,152.853,13.375,155.827,13.375,155.827z"/>
	</g>
	<g>
		
			<path fill="#3BAA35" stroke="#010202" stroke-width="2.4" stroke-linecap="round" stroke-linejoin="round" stroke-miterlimit="10" d="
			M228.635,258.18c0,0-10.953-14.191-16.045-33.877c-5.094-19.685-2.398-37.407-2.398-37.407s10.953,14.192,16.046,33.877
			S228.635,258.18,228.635,258.18z"/>
	</g>
	<g>
		
			<path fill="none" stroke="#010202" stroke-width="2.4" stroke-linecap="round" stroke-linejoin="round" stroke-miterlimit="10" d="
			M161.397,136.96c0-50.151-49.818-52.938-49.818,3.581c0,56.521,0,138.913,0,138.913"/>
		
			<path fill="#FFFFFF" stroke="#010202" stroke-width="2.4" stroke-linecap="round" stroke-linejoin="round" stroke-miterlimit="10" d="
			M155.612,192.462c0,0-19.406-23.899-19.406-39.767c0-15.868,38.812-12.983,38.812,0S155.612,192.462,155.612,192.462z"/>
		
			<path fill="#FFFFFF" stroke="#010202" stroke-width="2.4" stroke-linecap="round" stroke-linejoin="round" stroke-miterlimit="10" d="
			M156.159,134.747c0,36.123,23.194,57.408,23.194,57.408s0.144-31.1,0.158-34.025c0.057-12.317-9.316-22.442-21.396-23.383
			l-4.04,0.024c-11.799,1.111-20.958,11.028-21.016,23.14c-0.012,2.928-0.156,34.027-0.156,34.027S156.159,170.752,156.159,134.747z
			"/>
		
			<path fill="#3BAA35" stroke="#010202" stroke-width="2.4" stroke-linecap="round" stroke-linejoin="round" stroke-miterlimit="10" d="
			M165.325,136.935c0,0,0.057-12.249,0.062-13.402c0.023-4.851-3.669-8.838-8.427-9.209l-1.591,0.01
			c-4.648,0.438-8.255,4.344-8.277,9.113c-0.005,1.153-0.062,13.402-0.062,13.402L165.325,136.935z"/>
		
			<path fill="#3BAA35" stroke="#010202" stroke-width="2.4" stroke-linecap="round" stroke-linejoin="round" stroke-miterlimit="10" d="
			M111.799,278.825c0,0-18.141-23.505-26.576-56.11c-8.436-32.603-3.972-61.957-3.972-61.957s18.142,23.507,26.577,56.11
			C116.263,249.472,111.799,278.825,111.799,278.825z"/>
		
			<path fill="#3BAA35" stroke="#010202" stroke-width="2.4" stroke-linecap="round" stroke-linejoin="round" stroke-miterlimit="10" d="
			M119.569,109.3c0,0-3.659-11.995,1.196-22.431c4.856-10.438,16.391-15.365,16.391-15.365s3.658,11.996-1.198,22.432
			C131.102,104.373,119.569,109.3,119.569,109.3z"/>
	</g>
</g>
</svg>
