<?xml version="1.0" encoding="utf-8"?>
<!-- Generator: Adobe Illustrator 16.0.0, SVG Export Plug-In . SVG Version: 6.00 Build 0)  -->
<!DOCTYPE svg PUBLIC "-//W3C//DTD SVG 1.1//EN" "http://www.w3.org/Graphics/SVG/1.1/DTD/svg11.dtd">
<svg version="1.1" xmlns="http://www.w3.org/2000/svg" xmlns:xlink="http://www.w3.org/1999/xlink" x="0px" y="0px"
	 width="453.543px" height="453.543px" viewBox="0 0 453.543 453.543" enable-background="new 0 0 453.543 453.543"
	 xml:space="preserve">
<g id="kvadrat">
</g>
<g id="bg" display="none">
	<rect x="-6955.794" y="-10949.821" display="inline" width="15266.867" height="13678.951"/>
</g>
<g id="barvno" display="none">
	<g id="rde훾a7bela" display="inline">
	</g>
	<g display="inline">
		<g>
			
				<circle fill="#FFFFFF" stroke="#000000" stroke-width="8" stroke-linecap="round" stroke-linejoin="round" stroke-miterlimit="10" cx="338.859" cy="342.041" r="23.917"/>
			
				<path fill="#7E4E24" stroke="#000000" stroke-width="8" stroke-linecap="round" stroke-linejoin="round" stroke-miterlimit="10" d="
				M108.268,198.006l165.318,88.62c-14.84,4.482-48.664,5.699-48.664,5.699s-31.177,4.018-38.578,15.254
				c-14.963,27.908-24.637,61.42-31.542,74.303s-24.524,7.227-39.614-0.863c-15.092-8.09-29.551-19.635-22.646-32.516
				c9.053-11.727,31.111-39.98,46.57-66.242c6.904-12.881-8.654-40.572-8.654-40.572S112.75,212.849,108.268,198.006z"/>
			<path stroke="#000000" stroke-width="8" stroke-linecap="round" stroke-linejoin="round" stroke-miterlimit="10" d="
				M278.906,78.196c-66.004-36.521-128.316,3.1-158.189,56.691c-10.451,19.498-15.586,41.85-12.143,63.094l164.858,88.377
				c19.188-10.25,35.372-25.545,45.827-45.039C347.357,186.772,345.854,112.948,278.906,78.196z"/>
			
				<line fill="#FFFFFF" stroke="#000000" stroke-width="8" stroke-linecap="round" stroke-linejoin="round" stroke-miterlimit="10" x1="136.652" y1="286.358" x2="167.586" y2="232.47"/>
			
				<line fill="#FFFFFF" stroke="#000000" stroke-width="8" stroke-linecap="round" stroke-linejoin="round" stroke-miterlimit="10" x1="184.217" y1="311.081" x2="215.15" y2="257.192"/>
		</g>
	</g>
	
		<rect x="-7466.08" y="-11369.83" display="inline" fill="none" stroke="#000000" stroke-miterlimit="10" width="16736" height="13952"/>
</g>
<g id="barvno_copy_2">
	<g id="rde훾a7bela_copy_4">
	</g>
	<g>
		<g>
			<g>
				<circle fill="#FF0000" cx="338.859" cy="342.041" r="23.917"/>
				<path d="M338.859,369.958c-15.392,0-27.914-12.524-27.914-27.918c0-15.393,12.522-27.916,27.914-27.916
					c15.394,0,27.917,12.523,27.917,27.916C366.776,357.434,354.253,369.958,338.859,369.958z M338.859,322.124
					c-10.98,0-19.914,8.935-19.914,19.916c0,10.982,8.934,19.918,19.914,19.918c10.982,0,19.917-8.936,19.917-19.918
					C358.776,331.059,349.842,322.124,338.859,322.124z"/>
			</g>
			<g>
				<path fill="#00FF00" d="M108.268,198.006l165.318,88.62c-14.84,4.482-48.664,5.699-48.664,5.699s-31.177,4.018-38.578,15.254
					c-14.963,27.908-24.637,61.42-31.542,74.303s-24.524,7.227-39.614-0.863c-15.092-8.09-29.551-19.635-22.646-32.516
					c9.053-11.727,31.111-39.98,46.57-66.242c6.904-12.881-8.654-40.572-8.654-40.572S112.75,212.849,108.268,198.006z"/>
				<path d="M141.15,393.498c-7.399,0-16.77-3.013-27.853-8.954c-28.643-15.354-29.014-29.102-24.282-37.931
					c0.104-0.194,0.224-0.38,0.359-0.555l1.269-1.642c9.847-12.741,30.328-39.241,44.977-64.109
					c4.184-7.974-3.039-26.628-8.614-36.595c-1.189-1.942-18.054-29.606-22.567-44.551c-0.468-1.549,0.043-3.227,1.295-4.251
					c1.252-1.026,2.999-1.194,4.423-0.431l165.318,88.62c1.426,0.765,2.251,2.313,2.091,3.922c-0.161,1.61-1.275,2.965-2.824,3.433
					c-14.739,4.452-46.446,5.746-49.488,5.86c-11.309,1.489-30.696,6.382-35.479,13.329c-8.744,16.347-15.719,34.797-21.328,49.633
					c-3.865,10.224-7.204,19.053-10.12,24.494C154.917,390.135,148.977,393.498,141.15,393.498z M95.925,350.666
					c-5.06,10.077,8.672,20.137,21.152,26.827c9.908,5.312,18.007,8.005,24.073,8.005c4.895,0,8.113-1.75,10.126-5.506
					c2.669-4.98,5.922-13.583,9.688-23.544c5.711-15.107,12.819-33.908,21.854-50.759c0.057-0.106,0.119-0.21,0.185-0.311
					c8.175-12.41,38.03-16.586,41.407-17.021c0.122-0.016,0.245-0.026,0.367-0.03c0.267-0.01,21.568-0.806,37.324-3.319
					L115.97,206.674c6.628,14.517,17.756,32.694,17.896,32.922c0.027,0.044,0.053,0.089,0.079,0.134
					c1.703,3.03,16.411,30.021,8.692,44.421c-0.025,0.047-0.051,0.094-0.078,0.14c-14.908,25.325-35.628,52.135-45.586,65.02
					L95.925,350.666z"/>
			</g>
			<g>
				<path fill="#FF00FF" d="M278.906,78.196c-66.004-36.521-128.316,3.1-158.189,56.691c-10.451,19.498-15.586,41.85-12.143,63.094
					l164.858,88.377c19.188-10.25,35.372-25.545,45.827-45.039C347.357,186.772,345.854,112.948,278.906,78.196z"/>
				<path d="M273.433,290.358c-0.65,0-1.3-0.158-1.89-0.475l-164.858-88.377c-1.098-0.589-1.859-1.655-2.059-2.886
					c-3.385-20.885,1.077-44.19,12.565-65.623c25.096-45.022,67.127-72.956,109.724-72.956c18.195,0,36.323,4.922,53.882,14.629
					c31.89,16.569,51.899,43.184,57.867,76.968c5.153,29.169-0.476,61.669-15.848,91.513c-10.516,19.607-26.93,35.748-47.499,46.735
					C274.729,290.201,274.081,290.358,273.433,290.358z M112.235,195.405l161.181,86.405c18.296-10.206,32.902-24.823,42.319-42.382
					c26.92-52.263,26.325-123.943-38.671-157.683c-0.032-0.016-0.063-0.033-0.094-0.05c-16.374-9.06-33.214-13.654-50.055-13.654
					c-47.451,0-84.167,35.537-102.705,68.793C113.936,156.005,109.704,176.739,112.235,195.405z"/>
			</g>
			<g>
				<line fill="#FF0000" x1="136.652" y1="286.358" x2="167.586" y2="232.47"/>
				<path d="M136.648,290.359c-0.675,0-1.359-0.172-1.987-0.532c-1.916-1.1-2.578-3.544-1.478-5.46l30.934-53.889
					c1.1-1.917,3.542-2.577,5.46-1.478c1.916,1.1,2.578,3.544,1.478,5.46l-30.934,53.889
					C139.382,289.638,138.034,290.359,136.648,290.359z"/>
			</g>
			<g>
				<line fill="#FF0000" x1="184.217" y1="311.081" x2="215.15" y2="257.192"/>
				<path d="M184.213,315.082c-0.675,0-1.359-0.172-1.987-0.532c-1.916-1.1-2.578-3.544-1.478-5.46l30.934-53.889
					c1.101-1.916,3.543-2.579,5.46-1.478c1.916,1.1,2.578,3.544,1.478,5.46l-30.934,53.889
					C186.946,314.36,185.599,315.082,184.213,315.082z"/>
			</g>
		</g>
	</g>
	<rect x="-7466.08" y="-11369.83" fill="none" stroke="#000000" stroke-miterlimit="10" width="16736" height="13952"/>
</g>
<g id="sivinsko" display="none">
	<g id="rde훾a7bela_copy_3" display="inline">
	</g>
	<g display="inline">
		<g>
			<g>
				<circle fill="#FFFFFF" cx="338.859" cy="342.041" r="23.917"/>
				<path d="M338.859,369.958c-15.392,0-27.914-12.524-27.914-27.918c0-15.393,12.522-27.916,27.914-27.916
					c15.394,0,27.917,12.523,27.917,27.916C366.776,357.434,354.253,369.958,338.859,369.958z M338.859,322.124
					c-10.98,0-19.914,8.935-19.914,19.916c0,10.982,8.934,19.918,19.914,19.918c10.982,0,19.917-8.936,19.917-19.918
					C358.776,331.059,349.842,322.124,338.859,322.124z"/>
			</g>
			<g>
				<path fill="#585858" d="M108.268,198.006l165.318,88.62c-14.84,4.482-48.664,5.699-48.664,5.699s-31.177,4.018-38.578,15.254
					c-14.963,27.908-24.637,61.42-31.542,74.303s-24.524,7.227-39.614-0.863c-15.092-8.09-29.551-19.635-22.646-32.516
					c9.053-11.727,31.111-39.98,46.57-66.242c6.904-12.881-8.654-40.572-8.654-40.572S112.75,212.849,108.268,198.006z"/>
				<path d="M141.15,393.498c-7.399,0-16.77-3.013-27.853-8.954c-28.643-15.354-29.014-29.102-24.282-37.931
					c0.104-0.194,0.224-0.38,0.359-0.555l1.269-1.642c9.847-12.741,30.328-39.241,44.977-64.109
					c4.184-7.974-3.039-26.628-8.614-36.595c-1.189-1.942-18.054-29.606-22.567-44.551c-0.468-1.549,0.043-3.227,1.295-4.251
					c1.252-1.026,2.999-1.194,4.423-0.431l165.318,88.62c1.426,0.765,2.251,2.313,2.091,3.922c-0.161,1.61-1.275,2.965-2.824,3.433
					c-14.739,4.452-46.446,5.746-49.488,5.86c-11.309,1.489-30.696,6.382-35.479,13.329c-8.744,16.347-15.719,34.797-21.328,49.633
					c-3.865,10.224-7.204,19.053-10.12,24.494C154.917,390.135,148.977,393.498,141.15,393.498z M95.925,350.666
					c-5.06,10.077,8.672,20.137,21.152,26.827c9.908,5.312,18.007,8.005,24.073,8.005c4.895,0,8.113-1.75,10.126-5.506
					c2.669-4.98,5.922-13.583,9.688-23.544c5.711-15.107,12.819-33.908,21.854-50.759c0.057-0.106,0.119-0.21,0.185-0.311
					c8.175-12.41,38.03-16.586,41.407-17.021c0.122-0.016,0.245-0.026,0.367-0.03c0.267-0.01,21.568-0.806,37.324-3.319
					L115.97,206.674c6.628,14.517,17.756,32.694,17.896,32.922c0.027,0.044,0.053,0.089,0.079,0.134
					c1.703,3.03,16.411,30.021,8.692,44.421c-0.025,0.047-0.051,0.094-0.078,0.14c-14.908,25.325-35.628,52.135-45.586,65.02
					L95.925,350.666z"/>
			</g>
			<g>
				<path d="M278.906,78.196c-66.004-36.521-128.316,3.1-158.189,56.691c-10.451,19.498-15.586,41.85-12.143,63.094l164.858,88.377
					c19.188-10.25,35.372-25.545,45.827-45.039C347.357,186.772,345.854,112.948,278.906,78.196z"/>
				<path d="M273.433,290.358c-0.65,0-1.3-0.158-1.89-0.475l-164.858-88.377c-1.098-0.589-1.859-1.655-2.059-2.886
					c-3.385-20.885,1.077-44.19,12.565-65.623c25.096-45.022,67.127-72.956,109.724-72.956c18.195,0,36.323,4.922,53.882,14.629
					c31.89,16.569,51.899,43.184,57.867,76.968c5.153,29.169-0.476,61.669-15.848,91.513c-10.516,19.607-26.93,35.748-47.499,46.735
					C274.729,290.201,274.081,290.358,273.433,290.358z M112.235,195.405l161.181,86.405c18.296-10.206,32.902-24.823,42.319-42.382
					c26.92-52.263,26.325-123.943-38.671-157.683c-0.032-0.016-0.063-0.033-0.094-0.05c-16.374-9.06-33.214-13.654-50.055-13.654
					c-47.451,0-84.167,35.537-102.705,68.793C113.936,156.006,109.704,176.739,112.235,195.405z"/>
			</g>
			<g>
				<line fill="#FFFFFF" x1="136.652" y1="286.358" x2="167.586" y2="232.47"/>
				<path d="M136.648,290.359c-0.675,0-1.359-0.172-1.987-0.532c-1.916-1.1-2.578-3.544-1.478-5.46l30.934-53.889
					c1.1-1.917,3.542-2.577,5.46-1.478c1.916,1.1,2.578,3.544,1.478,5.46l-30.934,53.889
					C139.382,289.638,138.034,290.359,136.648,290.359z"/>
			</g>
			<g>
				<line fill="#FFFFFF" x1="184.217" y1="311.081" x2="215.15" y2="257.192"/>
				<path d="M184.213,315.082c-0.675,0-1.359-0.172-1.987-0.532c-1.916-1.1-2.578-3.544-1.478-5.46l30.934-53.889
					c1.101-1.916,3.543-2.579,5.46-1.478c1.916,1.1,2.578,3.544,1.478,5.46l-30.934,53.889
					C186.946,314.36,185.599,315.082,184.213,315.082z"/>
			</g>
		</g>
	</g>
	<path display="inline" d="M9270.42,2582.67h-16737v-13953h16737V2582.67z M-7466.08,2581.67h16736l-0.5-13951h-16735.5l0.5,13951
		H-7466.08z"/>
</g>
<g id="linijsko" display="none">
	<g id="rde훾a7bela_copy" display="inline">
	</g>
</g>
<g id="pivot">
	<circle fill="none" cx="224.375" cy="374.151" r="14.133"/>
</g>
</svg>
