<?xml version="1.0" encoding="utf-8"?>
<!-- Generator: Adobe Illustrator 16.0.0, SVG Export Plug-In . SVG Version: 6.00 Build 0)  -->
<!DOCTYPE svg PUBLIC "-//W3C//DTD SVG 1.1//EN" "http://www.w3.org/Graphics/SVG/1.1/DTD/svg11.dtd">
<svg version="1.1" xmlns="http://www.w3.org/2000/svg" xmlns:xlink="http://www.w3.org/1999/xlink" x="0px" y="0px"
	 width="453.543px" height="453.543px" viewBox="0 0 453.543 453.543" enable-background="new 0 0 453.543 453.543"
	 xml:space="preserve">
<g id="kvadrat">
</g>
<g id="bg" display="none">
	<rect x="-322.723" y="-6357.694" display="inline" width="15266.867" height="13678.951"/>
</g>
<g id="barvno" display="none">
	<g id="rde훾a7bela" display="inline">
	</g>
	<g display="inline">
		<path fill="none" d="M116.522,299.27c-2.479,5.068-4.726,10.121-6.726,15.135c0.019,0.008,12.308,4.729,26.27,8.185
			C128.693,315.606,122.13,307.781,116.522,299.27z"/>
		<g>
			<path fill="none" stroke="#000000" stroke-width="8" stroke-linecap="round" stroke-linejoin="round" stroke-miterlimit="10" d="
				M247.548,96.464c9.427,3.535,20.564,8.564,27.594,12.88c3.997-0.094,8.032-0.049,12.102,0.132
				C275.005,103.152,261.647,98.695,247.548,96.464z"/>
		</g>
		
			<path fill="#0073B3" stroke="#000000" stroke-width="8" stroke-linecap="round" stroke-linejoin="round" stroke-miterlimit="10" d="
			M243,113.089c-11.415-8.409-24.818-14.271-40.011-16.119c-61.519,11.199-108.162,65.052-108.162,129.803
			c0,5.43,0.335,10.779,0.972,16.037C122.736,179.9,175.875,127.313,243,113.089z"/>
		
			<path fill="#EFE342" stroke="#000000" stroke-width="8" stroke-linecap="round" stroke-linejoin="round" stroke-miterlimit="10" d="
			M274.908,151.22c-7.635-14.624-18.375-28.161-31.908-38.131C175.875,127.313,122.736,179.9,95.799,242.81
			c2.506,20.675,9.793,39.871,20.723,56.46C145.627,239.759,206.654,178.041,274.908,151.22z"/>
		
			<path fill="#FFFFFF" stroke="#000000" stroke-width="8" stroke-linecap="round" stroke-linejoin="round" stroke-miterlimit="10" d="
			M334.013,191.27c-4.063-16.612-11.753-34.396-24.038-50.468c-9.012-11.791-20.492-22.657-34.832-31.458
			c-7.03-4.315-18.167-9.345-27.594-12.88c-6.769-1.071-13.707-1.637-20.777-1.637c-8.121,0-16.069,0.738-23.783,2.143
			c15.193,1.848,28.597,7.71,40.011,16.119c13.533,9.97,24.273,23.507,31.908,38.131c10.669,20.438,15.27,43,12.927,60.918
			c0,0.001,0.001,0.003,0.001,0.004c2.03,5.085,24.042,20.625,45.769,32.488C337.674,232.996,338.951,211.459,334.013,191.27z"/>
		
			<path fill="#FFFFFF" stroke="#000000" stroke-width="8" stroke-linecap="round" stroke-linejoin="round" stroke-miterlimit="10" d="
			M287.836,212.142c-16.87,9.479-33.133,20.681-48.352,33.129c15.74,21.079,62.037,53.684,93.895,59.246
			c10.579-14.482,18.277-31.199,22.256-49.313C329.929,245.056,290.584,219.024,287.836,212.142z"/>
		
			<path fill="#FFFFFF" stroke="#000000" stroke-width="8" stroke-linecap="round" stroke-linejoin="round" stroke-miterlimit="10" d="
			M167.752,325.284c-0.001,0-0.002-0.002-0.003-0.003c-7.866,2.088-20.327,0.117-31.683-2.692
			c6.983,6.612,14.689,12.468,22.987,17.439c12.769,7.651,26.938,13.202,42.032,16.182
			C186.747,347.769,178.875,334.769,167.752,325.284z"/>
		
			<path fill="#0073B3" stroke="#000000" stroke-width="8" stroke-linecap="round" stroke-linejoin="round" stroke-miterlimit="10" d="
			M167.749,325.281c0.001,0.001,0.002,0.003,0.003,0.003c9.216-14.563,32.25-42.351,32.25-42.351l39.482-37.663
			c0,0,31.482-23.649,48.352-33.129c0-0.001-0.001-0.003-0.001-0.004c2.343-17.918-2.258-40.479-12.927-60.918
			c-68.253,26.821-129.281,88.539-158.386,148.05c5.608,8.512,12.171,16.337,19.544,23.319
			C147.422,325.398,159.882,327.369,167.749,325.281z"/>
		
			<path fill="#0073B3" stroke="#000000" stroke-width="8" stroke-linecap="round" stroke-linejoin="round" stroke-miterlimit="10" d="
			M200.002,282.934c-12.163,13.539-23.035,27.788-32.25,42.351c11.123,9.484,18.995,22.484,33.333,30.926
			c8.31,1.639,16.896,2.507,25.687,2.507c22.25,0,43.208-5.516,61.596-15.241C249.998,341.858,209.607,303.666,200.002,282.934z"/>
		
			<path fill="#EFE342" stroke="#000000" stroke-width="8" stroke-linecap="round" stroke-linejoin="round" stroke-miterlimit="10" d="
			M239.484,245.271c-14.186,11.602-27.463,24.284-39.482,37.663c9.605,20.732,49.995,58.925,88.365,60.542
			c17.811-9.42,33.203-22.795,45.011-38.959C301.521,298.954,255.225,266.35,239.484,245.271z"/>
		
			<path fill="#EFE342" stroke="#000000" stroke-width="8" stroke-linecap="round" stroke-linejoin="round" stroke-miterlimit="10" d="
			M352.226,185.815c-5.784-17.728-15.215-33.806-27.416-47.343c-10.622-11.787-23.339-21.647-37.565-28.997
			c-4.07-0.181-8.105-0.226-12.102-0.132c14.34,8.801,25.82,19.667,34.832,31.458c12.285,16.071,19.975,33.855,24.038,50.468
			c4.938,20.189,3.662,41.727-0.408,53.36c7.677,4.191,15.318,7.924,22.03,10.574c2.012-9.159,3.081-18.67,3.081-28.432
			C358.716,212.473,356.433,198.709,352.226,185.815z"/>
	</g>
	
		<rect x="-833.008" y="-6777.703" display="inline" fill="none" stroke="#000000" stroke-miterlimit="10" width="16736" height="13952"/>
</g>
<g id="barvno_copy_2">
	<g id="rde훾a7bela_copy_4">
	</g>
	<g>
		<path fill="none" d="M116.522,299.27c-2.479,5.068-4.726,10.121-6.726,15.135c0.019,0.008,12.308,4.729,26.27,8.185
			C128.693,315.606,122.13,307.781,116.522,299.27z"/>
		<g>
			<path d="M287.246,113.476c-0.06,0-0.119-0.001-0.179-0.004c-3.98-0.176-7.942-0.22-11.831-0.129
				c-0.771,0.006-1.529-0.187-2.187-0.59c-6.241-3.832-16.803-8.755-26.906-12.544c-1.922-0.721-2.987-2.78-2.463-4.765
				s2.465-3.255,4.493-2.931c14.304,2.264,28.067,6.775,40.907,13.409c1.669,0.862,2.513,2.77,2.029,4.584
				C290.641,112.263,289.05,113.476,287.246,113.476z"/>
		</g>
		<g>
			<path fill="#2626FF" d="M243,113.089c-11.415-8.409-24.818-14.271-40.011-16.119c-61.519,11.199-108.162,65.052-108.162,129.803
				c0,5.43,0.335,10.779,0.972,16.037C122.736,179.9,175.875,127.313,243,113.089z"/>
			<path d="M95.801,246.81c-0.188,0-0.378-0.013-0.568-0.04c-1.791-0.256-3.188-1.683-3.405-3.479
				c-0.665-5.482-1.001-11.04-1.001-16.519c0-65.737,46.87-121.982,111.445-133.738c0.396-0.072,0.799-0.083,1.199-0.035
				c15.102,1.836,29.2,7.512,41.901,16.87c1.269,0.934,1.87,2.526,1.537,4.066c-0.333,1.54-1.539,2.741-3.081,3.067
				c-61.847,13.105-115.81,60.725-144.353,127.382C98.839,245.871,97.382,246.81,95.801,246.81z M203.105,101.016
				c-60.46,11.301-104.278,64.091-104.278,125.757c0,0.022,0,0.045,0,0.068c13.492-26.746,31.55-50.76,52.811-70.106
				c24.12-21.949,52.122-37.521,81.477-45.386C223.758,105.852,213.7,102.386,203.105,101.016z"/>
		</g>
		<g>
			<path fill="#FFFF00" d="M274.908,151.22c-7.635-14.624-18.375-28.161-31.908-38.131C175.875,127.313,122.736,179.9,95.799,242.81
				c2.506,20.675,9.793,39.871,20.723,56.46C145.627,239.759,206.654,178.041,274.908,151.22z"/>
			<path d="M116.521,303.27c-1.339,0-2.597-0.672-3.34-1.799c-11.466-17.402-18.85-37.52-21.354-58.179
				c-0.085-0.699,0.017-1.409,0.294-2.056c13.926-32.523,34.506-61.743,59.515-84.501c26.59-24.197,57.896-40.642,90.533-47.558
				c1.117-0.236,2.282,0.016,3.202,0.692c13.245,9.758,24.685,23.417,33.082,39.5c0.525,1.006,0.598,2.188,0.201,3.251
				c-0.397,1.063-1.228,1.908-2.284,2.323c-62.796,24.677-125.59,83.384-156.255,146.084c-0.631,1.29-1.905,2.143-3.338,2.234
				C116.692,303.267,116.606,303.27,116.521,303.27z M99.903,243.392c2.177,16.753,7.762,33.1,16.271,47.726
				c14.821-28.17,36.664-56.71,62.095-81.023c28.034-26.801,59.4-47.787,90.977-60.901c-7.264-12.753-16.582-23.661-27.188-31.807
				C181.257,130.949,128.28,177.885,99.903,243.392z"/>
		</g>
		<g>
			<path fill="#FFFFFF" d="M334.013,191.27c-4.063-16.612-11.753-34.396-24.038-50.468c-9.012-11.791-20.492-22.657-34.832-31.458
				c-7.03-4.315-18.167-9.345-27.594-12.88c-6.769-1.071-13.707-1.637-20.777-1.637c-8.121,0-16.069,0.738-23.783,2.143
				c15.193,1.848,28.597,7.71,40.011,16.119c13.533,9.97,24.273,23.507,31.908,38.131c10.669,20.438,15.27,43,12.927,60.918
				c0,0.001,0.001,0.003,0.001,0.004c2.03,5.085,24.042,20.625,45.769,32.488C337.674,232.996,338.951,211.459,334.013,191.27z"/>
			<path d="M333.605,248.63c-0.662,0-1.322-0.165-1.917-0.489c-17.423-9.514-44.59-27.063-47.566-34.516
				c-0.009-0.024-0.019-0.048-0.028-0.072c-0.232-0.614-0.311-1.278-0.225-1.934c2.265-17.32-2.411-39.208-12.507-58.548
				c-7.836-15.01-18.464-27.722-30.735-36.761c-11.578-8.53-24.404-13.701-38.122-15.369c-1.963-0.239-3.457-1.876-3.515-3.853
				c-0.059-1.977,1.336-3.699,3.282-4.054c15.035-2.736,30.697-2.928,45.902-0.521c0.266,0.042,0.527,0.111,0.779,0.206
				c8.389,3.146,20.224,8.27,28.283,13.216c13.904,8.534,25.989,19.448,35.917,32.438c11.583,15.154,20.14,33.117,24.746,51.947
				c5.355,21.896,3.485,44.187-0.518,55.631c-0.388,1.108-1.243,1.991-2.34,2.413C334.578,248.542,334.091,248.63,333.605,248.63z
				 M291.964,211.305c3.094,4.079,19.299,16.105,39.19,27.384c2.619-11.147,3.283-28.845-1.027-46.469
				c-4.345-17.766-12.412-34.706-23.33-48.989c-9.33-12.207-20.684-22.461-33.747-30.478c-6.164-3.784-16.539-8.632-26.526-12.401
				c-6.831-1.059-13.778-1.574-20.668-1.521c6.808,2.793,13.327,6.478,19.517,11.038c13.245,9.757,24.685,23.417,33.082,39.5
				C289.024,169.618,294.03,192.649,291.964,211.305z"/>
		</g>
		<g>
			<path fill="#FFFFFF" d="M287.836,212.142c-16.87,9.479-33.133,20.681-48.352,33.129c15.74,21.079,62.037,53.684,93.895,59.246
				c10.579-14.482,18.277-31.199,22.256-49.313C329.929,245.056,290.584,219.024,287.836,212.142z"/>
			<path d="M333.379,308.517c-0.229,0-0.458-0.02-0.688-0.06c-31.594-5.517-79.42-38.039-96.412-60.793
				c-1.281-1.715-0.984-4.134,0.673-5.489c15.624-12.78,32.085-24.058,48.925-33.52c1.005-0.565,2.205-0.668,3.292-0.284
				s1.956,1.218,2.383,2.289c2.561,5.329,39.12,30.39,65.553,40.825c1.827,0.721,2.859,2.661,2.438,4.579
				c-4.048,18.427-11.764,35.523-22.933,50.813C335.848,307.917,334.642,308.517,333.379,308.517z M245.078,245.892
				c17.351,20.756,58.066,48.108,86.543,54.208c9.077-12.943,15.573-27.213,19.347-42.494
				c-21.125-9.051-54.279-29.498-64.202-40.252C272.475,225.597,258.481,235.176,245.078,245.892z"/>
		</g>
		<g>
			<path fill="#FFFFFF" d="M167.752,325.284c-0.001,0-0.002-0.002-0.003-0.003c-7.866,2.088-20.327,0.117-31.683-2.692
				c6.983,6.612,14.689,12.468,22.987,17.439c12.769,7.651,26.938,13.202,42.032,16.182
				C186.747,347.769,178.875,334.769,167.752,325.284z"/>
			<path d="M201.087,360.21c-0.257,0-0.517-0.025-0.776-0.076c-15.324-3.025-29.896-8.635-43.314-16.675
				c-8.505-5.097-16.473-11.141-23.681-17.966c-1.318-1.249-1.631-3.23-0.759-4.824s2.707-2.4,4.47-1.964
				c9.244,2.287,16.927,3.446,22.836,3.446c2.709,0,5.018-0.248,6.86-0.737c1.108-0.294,2.29-0.099,3.245,0.538
				c0.119,0.079,0.234,0.165,0.344,0.257c0.012,0.01,0.024,0.021,0.036,0.03c4.395,3.747,8.314,8.031,12.104,12.174
				c6.029,6.59,12.263,13.404,20.663,18.349c1.681,0.989,2.403,3.046,1.709,4.869C204.225,359.207,202.72,360.21,201.087,360.21z
				 M150.463,329.471c3.43,2.552,6.984,4.932,10.646,7.126c7.142,4.279,14.63,7.827,22.398,10.616
				c-2.42-2.44-4.702-4.934-6.958-7.399c-3.325-3.634-6.488-7.092-9.924-10.197C162.316,330.375,156.949,330.324,150.463,329.471z"
				/>
		</g>
		<g>
			<path fill="#2626FF" d="M167.749,325.281c0.001,0.001,0.002,0.003,0.003,0.003c9.216-14.563,32.25-42.351,32.25-42.351
				l39.482-37.663c0,0,31.482-23.649,48.352-33.129c0-0.001-0.001-0.003-0.001-0.004c2.343-17.918-2.258-40.479-12.927-60.918
				c-68.253,26.821-129.281,88.539-158.386,148.05c5.608,8.512,12.171,16.337,19.544,23.319
				C147.422,325.398,159.882,327.369,167.749,325.281z"/>
			<path d="M159.862,330.152L159.862,330.152c-6.557,0-14.886-1.238-24.757-3.681c-0.671-0.166-1.288-0.503-1.79-0.979
				c-7.599-7.196-14.372-15.278-20.134-24.023c-0.778-1.182-0.875-2.687-0.253-3.958c14.778-30.217,37.983-61.262,65.341-87.417
				c29.276-27.989,62.187-49.635,95.175-62.598c1.903-0.749,4.063,0.059,5.009,1.872c10.804,20.696,15.795,44.296,13.364,63.162
				c-0.126,1.292-0.875,2.454-2.021,3.098c-15.779,8.866-45.099,30.737-47.723,32.7l-39.139,37.335
				c-1.984,2.402-23.21,28.181-31.803,41.759c-0.58,0.917-1.501,1.548-2.54,1.771C166.118,329.83,163.182,330.152,159.862,330.152z
				 M138.055,318.957c8.786,2.121,16.118,3.195,21.808,3.195c0,0,0,0,0,0c2.043,0,3.859-0.141,5.419-0.42
				c9.721-14.87,30.724-40.244,31.641-41.351c0.1-0.12,0.206-0.234,0.318-0.342l39.482-37.663c0.113-0.108,0.233-0.209,0.358-0.304
				c1.25-0.938,29.825-22.37,47.01-32.395c1.591-16.019-2.489-35.582-11.104-53.373c-60.969,25.139-121.393,81.862-151.853,142.66
				C126.077,306.182,131.758,312.895,138.055,318.957z"/>
		</g>
		<g>
			<path fill="#2626FF" d="M200.002,282.934c-12.163,13.539-23.035,27.788-32.25,42.351c11.123,9.484,18.995,22.484,33.333,30.926
				c8.31,1.639,16.896,2.507,25.687,2.507c22.25,0,43.208-5.516,61.596-15.241C249.998,341.858,209.607,303.666,200.002,282.934z"/>
			<path d="M226.771,362.717c-8.869,0-17.771-0.869-26.46-2.583c-0.442-0.087-0.867-0.249-1.255-0.478
				c-9.434-5.554-16.08-12.817-22.507-19.842c-3.792-4.146-7.375-8.061-11.392-11.486c-1.515-1.292-1.849-3.501-0.785-5.183
				c9.284-14.671,20.271-29.099,32.655-42.885c0.898-1,2.239-1.483,3.569-1.282c1.33,0.2,2.47,1.054,3.036,2.274
				c9.104,19.65,48.253,56.683,84.904,58.227c1.805,0.076,3.335,1.353,3.733,3.115c0.398,1.762-0.435,3.573-2.032,4.417
				C270.812,357.286,248.865,362.717,226.771,362.717z M202.535,352.417c7.966,1.526,16.116,2.3,24.236,2.3
				c16.338,0,32.586-3.153,47.666-9.193c-33.089-7.833-63.654-36.837-75.214-55.666c-9.773,11.251-18.585,22.899-26.264,34.717
				c3.364,3.14,6.469,6.535,9.493,9.839C188.341,340.852,194.427,347.503,202.535,352.417z"/>
		</g>
		<g>
			<path fill="#FFFF00" d="M239.484,245.271c-14.186,11.602-27.463,24.284-39.482,37.663c9.605,20.732,49.995,58.925,88.365,60.542
				c17.811-9.42,33.203-22.795,45.011-38.959C301.521,298.954,255.225,266.35,239.484,245.271z"/>
			<path d="M288.368,347.476c-0.056,0-0.112-0.001-0.168-0.003c-41.381-1.744-82.366-42.438-91.826-62.857
				c-0.673-1.452-0.416-3.165,0.654-4.355c12.211-13.593,25.644-26.407,39.925-38.086c0.845-0.691,1.936-1.009,3.019-0.874
				c1.083,0.133,2.065,0.703,2.719,1.577c16.135,21.608,61.47,52.477,91.377,57.699c1.362,0.238,2.504,1.162,3.021,2.444
				c0.517,1.282,0.336,2.74-0.479,3.856c-12.158,16.643-28.192,30.521-46.371,40.136
				C289.661,347.316,289.019,347.476,288.368,347.476z M204.809,283.585c10.813,19.899,47.722,53.713,82.654,55.839
				c14.904-8.05,28.241-19.153,38.917-32.363c-29.747-7.861-69.901-35.151-87.489-56.107
				C226.793,261.081,215.351,272.036,204.809,283.585z"/>
		</g>
		<g>
			<path fill="#FFFF00" d="M352.226,185.815c-5.784-17.728-15.215-33.806-27.416-47.343c-10.622-11.787-23.339-21.647-37.565-28.997
				c-4.07-0.181-8.105-0.226-12.102-0.132c14.34,8.801,25.82,19.667,34.832,31.458c12.285,16.071,19.975,33.855,24.038,50.468
				c4.938,20.189,3.662,41.727-0.408,53.36c7.677,4.191,15.318,7.924,22.03,10.574c2.012-9.159,3.081-18.67,3.081-28.432
				C358.716,212.473,356.433,198.709,352.226,185.815z"/>
			<path d="M355.635,259.204c-0.498,0-0.996-0.093-1.469-0.28c-6.536-2.581-14.099-6.209-22.478-10.784
				c-1.719-0.938-2.506-2.983-1.859-4.832c3.626-10.367,5.267-30.776,0.298-51.089c-4.345-17.766-12.412-34.706-23.33-48.989
				c-9.33-12.207-20.684-22.461-33.747-30.478c-1.511-0.927-2.231-2.739-1.77-4.451c0.461-1.712,1.996-2.916,3.768-2.957
				c4.068-0.094,8.212-0.05,12.373,0.135c0.579,0.026,1.145,0.177,1.659,0.442c14.626,7.556,27.647,17.607,38.701,29.873
				c12.826,14.231,22.33,30.643,28.247,48.78c4.438,13.601,6.688,27.798,6.688,42.198c0,9.846-1.068,19.7-3.174,29.29
				c-0.251,1.145-0.992,2.122-2.027,2.673C356.93,259.046,356.283,259.204,355.635,259.204z M338.39,242.664
				c5.092,2.704,9.925,5.062,14.281,6.969c1.358-7.528,2.045-15.197,2.045-22.86c0-13.555-2.118-26.918-6.293-39.716
				c-5.568-17.066-14.512-32.511-26.584-45.906c-8.448-9.374-18.114-17.373-28.818-23.857c7.439,6.235,14.174,13.283,20.133,21.079
				c11.583,15.154,20.14,33.117,24.746,51.947C342.779,210.277,341.659,230.562,338.39,242.664z"/>
		</g>
	</g>
	<rect x="-833.008" y="-6777.703" fill="none" stroke="#000000" stroke-miterlimit="10" width="16736" height="13952"/>
</g>
<g id="sivinsko" display="none">
	<g id="rde훾a7bela_copy_3" display="inline">
	</g>
	<g display="inline">
		<path fill="none" d="M116.522,299.27c-2.479,5.068-4.726,10.121-6.726,15.135c0.019,0.008,12.308,4.729,26.27,8.185
			C128.693,315.606,122.13,307.781,116.522,299.27z"/>
		<g>
			<path d="M287.246,113.476c-0.06,0-0.119-0.001-0.179-0.004c-3.98-0.176-7.942-0.22-11.831-0.129
				c-0.771,0.006-1.529-0.187-2.187-0.59c-6.241-3.832-16.803-8.755-26.906-12.544c-1.922-0.721-2.987-2.78-2.463-4.765
				c0.523-1.985,2.465-3.255,4.493-2.931c14.304,2.264,28.067,6.775,40.907,13.409c1.669,0.862,2.513,2.77,2.029,4.584
				C290.641,112.263,289.05,113.476,287.246,113.476z"/>
		</g>
		<g>
			<path fill="#585858" d="M243,113.089c-11.415-8.409-24.818-14.271-40.011-16.119c-61.519,11.199-108.162,65.052-108.162,129.803
				c0,5.43,0.335,10.779,0.972,16.037C122.736,179.9,175.875,127.313,243,113.089z"/>
			<path d="M95.801,246.81c-0.188,0-0.378-0.013-0.568-0.04c-1.791-0.256-3.188-1.683-3.405-3.479
				c-0.665-5.482-1.001-11.04-1.001-16.519c0-65.737,46.87-121.982,111.445-133.738c0.396-0.072,0.799-0.083,1.199-0.035
				c15.103,1.836,29.2,7.512,41.901,16.87c1.269,0.934,1.87,2.526,1.537,4.066c-0.333,1.54-1.539,2.741-3.08,3.067
				c-61.847,13.105-115.81,60.725-144.353,127.382C98.839,245.871,97.382,246.81,95.801,246.81z M203.105,101.016
				c-60.46,11.301-104.278,64.091-104.278,125.757c0,0.022,0,0.045,0,0.068c13.492-26.746,31.55-50.76,52.81-70.106
				c24.12-21.949,52.123-37.521,81.478-45.386C223.758,105.852,213.7,102.386,203.105,101.016z"/>
		</g>
		<g>
			<path fill="#D5D5D5" d="M274.908,151.22c-7.635-14.624-18.375-28.161-31.908-38.131C175.875,127.313,122.736,179.9,95.799,242.81
				c2.506,20.675,9.793,39.871,20.723,56.46C145.627,239.759,206.654,178.041,274.908,151.22z"/>
			<path d="M116.521,303.27c-1.339,0-2.597-0.672-3.34-1.799c-11.466-17.402-18.85-37.52-21.354-58.179
				c-0.085-0.699,0.017-1.409,0.294-2.056c13.926-32.523,34.506-61.743,59.515-84.501c26.59-24.197,57.896-40.642,90.534-47.558
				c1.117-0.236,2.282,0.016,3.202,0.692c13.245,9.758,24.685,23.417,33.082,39.5c0.525,1.006,0.598,2.188,0.201,3.251
				c-0.397,1.063-1.228,1.908-2.284,2.323c-62.796,24.677-125.59,83.384-156.256,146.084c-0.63,1.29-1.904,2.143-3.337,2.234
				C116.692,303.267,116.606,303.27,116.521,303.27z M99.903,243.392c2.177,16.753,7.762,33.1,16.271,47.726
				c14.821-28.17,36.664-56.71,62.095-81.023c28.034-26.801,59.4-47.787,90.977-60.901c-7.264-12.753-16.582-23.661-27.188-31.807
				C181.257,130.949,128.28,177.885,99.903,243.392z"/>
		</g>
		<g>
			<path fill="#FFFFFF" d="M334.013,191.27c-4.063-16.612-11.753-34.396-24.038-50.468c-9.012-11.791-20.492-22.657-34.832-31.458
				c-7.03-4.315-18.167-9.345-27.594-12.88c-6.769-1.071-13.707-1.637-20.777-1.637c-8.121,0-16.069,0.738-23.783,2.143
				c15.193,1.848,28.597,7.71,40.011,16.119c13.533,9.97,24.273,23.507,31.908,38.131c10.669,20.438,15.27,43,12.927,60.918
				c0,0.001,0.001,0.003,0.001,0.004c2.03,5.085,24.042,20.625,45.769,32.488C337.674,232.996,338.951,211.459,334.013,191.27z"/>
			<path d="M333.605,248.63c-0.662,0-1.322-0.165-1.917-0.489c-17.423-9.514-44.59-27.063-47.566-34.516
				c-0.009-0.024-0.019-0.048-0.028-0.072c-0.232-0.614-0.311-1.278-0.225-1.934c2.265-17.32-2.411-39.208-12.507-58.548
				c-7.836-15.01-18.464-27.722-30.735-36.761c-11.578-8.53-24.404-13.701-38.122-15.369c-1.963-0.239-3.457-1.876-3.516-3.853
				c-0.058-1.977,1.336-3.699,3.282-4.054c15.035-2.736,30.697-2.928,45.902-0.521c0.266,0.042,0.527,0.111,0.779,0.206
				c8.389,3.146,20.224,8.27,28.283,13.216c13.904,8.534,25.989,19.448,35.917,32.438c11.583,15.154,20.14,33.117,24.746,51.947
				c5.355,21.896,3.485,44.187-0.518,55.631c-0.388,1.108-1.243,1.991-2.34,2.413C334.578,248.542,334.091,248.63,333.605,248.63z
				 M291.964,211.305c3.094,4.079,19.299,16.105,39.19,27.384c2.619-11.147,3.283-28.845-1.027-46.469
				c-4.345-17.766-12.412-34.706-23.33-48.989c-9.33-12.207-20.684-22.461-33.747-30.478c-6.164-3.784-16.539-8.632-26.526-12.401
				c-6.831-1.059-13.778-1.574-20.668-1.521c6.808,2.793,13.327,6.478,19.517,11.038c13.245,9.757,24.685,23.417,33.082,39.5
				C289.024,169.618,294.03,192.649,291.964,211.305z"/>
		</g>
		<g>
			<path fill="#FFFFFF" d="M287.836,212.142c-16.87,9.479-33.133,20.681-48.352,33.129c15.74,21.079,62.037,53.684,93.895,59.246
				c10.579-14.482,18.277-31.199,22.256-49.313C329.929,245.056,290.584,219.024,287.836,212.142z"/>
			<path d="M333.379,308.517c-0.229,0-0.458-0.02-0.688-0.06c-31.594-5.517-79.42-38.039-96.412-60.793
				c-1.281-1.715-0.984-4.134,0.673-5.489c15.624-12.78,32.085-24.058,48.925-33.52c1.005-0.565,2.205-0.668,3.292-0.284
				s1.956,1.218,2.383,2.289c2.561,5.329,39.12,30.39,65.553,40.825c1.827,0.721,2.859,2.661,2.438,4.579
				c-4.048,18.427-11.764,35.523-22.933,50.813C335.848,307.917,334.642,308.517,333.379,308.517z M245.078,245.892
				c17.351,20.756,58.066,48.108,86.543,54.208c9.077-12.943,15.573-27.213,19.347-42.494
				c-21.125-9.051-54.279-29.498-64.202-40.252C272.475,225.597,258.481,235.176,245.078,245.892z"/>
		</g>
		<g>
			<path fill="#FFFFFF" d="M167.752,325.284c-0.001,0-0.002-0.002-0.003-0.003c-7.866,2.088-20.327,0.117-31.683-2.692
				c6.983,6.612,14.689,12.468,22.987,17.439c12.769,7.651,26.938,13.202,42.032,16.182
				C186.747,347.769,178.875,334.769,167.752,325.284z"/>
			<path d="M201.087,360.21c-0.257,0-0.517-0.025-0.776-0.076c-15.324-3.025-29.896-8.635-43.314-16.675
				c-8.506-5.097-16.473-11.141-23.681-17.966c-1.318-1.249-1.631-3.23-0.76-4.824c0.872-1.594,2.707-2.4,4.471-1.964
				c9.244,2.287,16.927,3.446,22.836,3.446c2.709,0,5.018-0.248,6.86-0.737c1.108-0.294,2.29-0.099,3.245,0.538
				c0.119,0.079,0.233,0.165,0.344,0.257c0.012,0.01,0.024,0.021,0.035,0.03c4.395,3.747,8.314,8.031,12.105,12.174
				c6.029,6.59,12.263,13.404,20.663,18.349c1.681,0.989,2.403,3.046,1.709,4.869C204.225,359.207,202.72,360.21,201.087,360.21z
				 M150.463,329.471c3.43,2.552,6.984,4.932,10.646,7.126c7.142,4.279,14.63,7.827,22.398,10.616
				c-2.42-2.44-4.703-4.934-6.958-7.399c-3.325-3.634-6.488-7.092-9.924-10.197C162.316,330.375,156.949,330.324,150.463,329.471z"
				/>
		</g>
		<g>
			<path fill="#585858" d="M167.749,325.281c0.001,0.001,0.002,0.003,0.003,0.003c9.216-14.563,32.25-42.351,32.25-42.351
				l39.482-37.663c0,0,31.482-23.649,48.352-33.129c0-0.001-0.001-0.003-0.001-0.004c2.343-17.918-2.258-40.479-12.927-60.918
				c-68.253,26.821-129.281,88.539-158.386,148.05c5.608,8.512,12.171,16.337,19.544,23.319
				C147.422,325.398,159.882,327.369,167.749,325.281z"/>
			<path d="M159.862,330.152L159.862,330.152c-6.558,0-14.886-1.238-24.757-3.681c-0.671-0.166-1.288-0.503-1.79-0.979
				c-7.599-7.196-14.372-15.278-20.134-24.023c-0.778-1.182-0.875-2.687-0.253-3.958c14.778-30.217,37.983-61.262,65.341-87.417
				c29.276-27.989,62.187-49.635,95.175-62.598c1.903-0.749,4.063,0.059,5.009,1.872c10.804,20.696,15.795,44.296,13.364,63.162
				c-0.126,1.292-0.875,2.454-2.021,3.098c-15.779,8.866-45.099,30.737-47.723,32.7l-39.139,37.335
				c-1.984,2.402-23.21,28.181-31.803,41.759c-0.58,0.917-1.501,1.548-2.54,1.771C166.118,329.83,163.182,330.152,159.862,330.152z
				 M138.055,318.957c8.786,2.121,16.118,3.195,21.808,3.195c0,0,0,0,0,0c2.043,0,3.859-0.141,5.419-0.42
				c9.721-14.87,30.724-40.244,31.641-41.351c0.1-0.12,0.206-0.234,0.318-0.342l39.483-37.663c0.113-0.108,0.233-0.209,0.358-0.304
				c1.25-0.938,29.825-22.37,47.01-32.395c1.591-16.019-2.489-35.582-11.104-53.373c-60.969,25.139-121.393,81.862-151.853,142.66
				C126.077,306.182,131.758,312.895,138.055,318.957z"/>
		</g>
		<g>
			<path fill="#585858" d="M200.002,282.934c-12.163,13.539-23.035,27.788-32.25,42.351c11.123,9.484,18.995,22.484,33.333,30.926
				c8.31,1.639,16.896,2.507,25.687,2.507c22.25,0,43.208-5.516,61.596-15.241C249.998,341.858,209.607,303.666,200.002,282.934z"/>
			<path d="M226.771,362.717c-8.869,0-17.771-0.869-26.46-2.583c-0.442-0.087-0.867-0.249-1.255-0.478
				c-9.434-5.554-16.08-12.817-22.507-19.842c-3.792-4.146-7.375-8.061-11.392-11.486c-1.515-1.292-1.849-3.501-0.785-5.183
				c9.284-14.671,20.271-29.099,32.655-42.885c0.898-1,2.239-1.483,3.569-1.282c1.331,0.2,2.471,1.054,3.036,2.274
				c9.104,19.65,48.253,56.683,84.904,58.227c1.805,0.076,3.335,1.353,3.733,3.115c0.398,1.762-0.435,3.573-2.032,4.417
				C270.812,357.286,248.865,362.717,226.771,362.717z M202.535,352.417c7.966,1.526,16.117,2.3,24.237,2.3
				c16.338,0,32.586-3.153,47.666-9.193c-33.089-7.833-63.654-36.837-75.214-55.666c-9.774,11.251-18.586,22.899-26.264,34.717
				c3.364,3.14,6.469,6.535,9.493,9.839C188.341,340.852,194.427,347.503,202.535,352.417z"/>
		</g>
		<g>
			<path fill="#D5D5D5" d="M239.484,245.271c-14.186,11.602-27.463,24.284-39.482,37.663c9.605,20.732,49.995,58.925,88.365,60.542
				c17.811-9.42,33.203-22.795,45.011-38.959C301.521,298.954,255.225,266.35,239.484,245.271z"/>
			<path d="M288.368,347.476c-0.056,0-0.112-0.001-0.169-0.003c-41.38-1.744-82.366-42.438-91.826-62.857
				c-0.673-1.452-0.416-3.165,0.654-4.355c12.211-13.593,25.644-26.407,39.925-38.086c0.845-0.691,1.936-1.009,3.019-0.874
				c1.083,0.133,2.065,0.703,2.719,1.577c16.135,21.608,61.469,52.477,91.377,57.699c1.362,0.238,2.504,1.162,3.021,2.444
				c0.517,1.282,0.336,2.74-0.479,3.856c-12.158,16.643-28.192,30.521-46.371,40.136
				C289.661,347.316,289.019,347.476,288.368,347.476z M204.809,283.585c10.813,19.899,47.722,53.713,82.654,55.839
				c14.904-8.05,28.241-19.153,38.917-32.363c-29.747-7.861-69.901-35.151-87.489-56.107
				C226.793,261.081,215.351,272.036,204.809,283.585z"/>
		</g>
		<g>
			<path fill="#D5D5D5" d="M352.226,185.815c-5.784-17.728-15.215-33.806-27.416-47.343c-10.622-11.787-23.339-21.647-37.565-28.997
				c-4.07-0.181-8.105-0.226-12.102-0.132c14.34,8.801,25.82,19.667,34.832,31.458c12.285,16.071,19.975,33.855,24.038,50.468
				c4.938,20.189,3.662,41.727-0.408,53.36c7.677,4.191,15.318,7.924,22.03,10.574c2.012-9.159,3.081-18.67,3.081-28.432
				C358.716,212.473,356.433,198.709,352.226,185.815z"/>
			<path d="M355.635,259.204c-0.498,0-0.996-0.093-1.469-0.28c-6.536-2.581-14.099-6.209-22.478-10.784
				c-1.719-0.938-2.506-2.983-1.859-4.832c3.626-10.367,5.267-30.776,0.298-51.089c-4.345-17.766-12.412-34.706-23.33-48.989
				c-9.33-12.207-20.684-22.461-33.747-30.478c-1.511-0.927-2.231-2.739-1.77-4.451c0.461-1.712,1.996-2.916,3.768-2.957
				c4.068-0.094,8.212-0.05,12.373,0.135c0.579,0.026,1.145,0.177,1.659,0.442c14.626,7.556,27.647,17.607,38.701,29.873
				c12.826,14.231,22.33,30.643,28.247,48.78c4.438,13.601,6.688,27.798,6.688,42.198c0,9.846-1.068,19.7-3.174,29.29
				c-0.251,1.145-0.992,2.122-2.027,2.673C356.93,259.046,356.283,259.204,355.635,259.204z M338.39,242.664
				c5.092,2.704,9.925,5.062,14.281,6.969c1.358-7.528,2.045-15.197,2.045-22.86c0-13.555-2.118-26.918-6.293-39.716
				c-5.568-17.066-14.512-32.511-26.584-45.906c-8.448-9.374-18.114-17.373-28.818-23.857c7.439,6.235,14.174,13.283,20.133,21.079
				c11.583,15.154,20.14,33.117,24.746,51.947C342.779,210.277,341.659,230.562,338.39,242.664z"/>
		</g>
	</g>
	<path display="inline" d="M15903.492,7174.797h-16737v-13953h16737V7174.797z M-833.008,7173.797h16736l-0.5-13951h-16735.5
		l0.5,13951H-833.008z"/>
</g>
<g id="linijsko" display="none">
	<g id="rde훾a7bela_copy" display="inline">
	</g>
	<g display="inline">
		<g>
			<path fill="none" stroke="#000000" stroke-width="8" stroke-linecap="round" stroke-linejoin="round" stroke-miterlimit="10" d="
				M247.548,96.464c9.427,3.535,20.564,8.564,27.594,12.88c3.997-0.094,8.032-0.049,12.102,0.132
				C275.005,103.152,261.647,98.695,247.548,96.464z"/>
		</g>
		<path fill="none" stroke="#000000" stroke-width="8" stroke-linecap="round" stroke-linejoin="round" stroke-miterlimit="10" d="
			M243,113.089c-11.415-8.409-24.818-14.271-40.011-16.119c-61.519,11.199-108.162,65.052-108.162,129.803
			c0,5.43,0.335,10.779,0.972,16.037C122.736,179.9,175.875,127.313,243,113.089z"/>
		<path fill="none" stroke="#000000" stroke-width="8" stroke-linecap="round" stroke-linejoin="round" stroke-miterlimit="10" d="
			M274.908,151.22c-7.635-14.624-18.375-28.161-31.908-38.131C175.875,127.313,122.736,179.9,95.799,242.81
			c2.506,20.675,9.793,39.871,20.723,56.46C145.627,239.759,206.654,178.041,274.908,151.22z"/>
		<path fill="none" stroke="#000000" stroke-width="8" stroke-linecap="round" stroke-linejoin="round" stroke-miterlimit="10" d="
			M334.013,191.27c-4.063-16.612-11.753-34.396-24.038-50.468c-9.012-11.791-20.492-22.657-34.832-31.458
			c-7.03-4.315-18.167-9.345-27.594-12.88c-6.769-1.071-13.707-1.637-20.777-1.637c-8.121,0-16.069,0.738-23.783,2.143
			c15.193,1.848,28.597,7.71,40.011,16.119c13.533,9.97,24.273,23.507,31.908,38.131c10.669,20.438,15.27,43,12.927,60.918
			c0,0.001,0.001,0.003,0.001,0.004c2.03,5.085,24.042,20.625,45.769,32.488C337.674,232.996,338.951,211.459,334.013,191.27z"/>
		<path fill="none" stroke="#000000" stroke-width="8" stroke-linecap="round" stroke-linejoin="round" stroke-miterlimit="10" d="
			M287.836,212.142c-16.87,9.479-33.133,20.681-48.352,33.129c15.74,21.079,62.037,53.684,93.895,59.246
			c10.579-14.482,18.277-31.199,22.256-49.313C329.929,245.056,290.584,219.024,287.836,212.142z"/>
		<path fill="none" stroke="#000000" stroke-width="8" stroke-linecap="round" stroke-linejoin="round" stroke-miterlimit="10" d="
			M167.752,325.284c-0.001,0-0.002-0.002-0.003-0.003c-7.866,2.088-20.327,0.117-31.683-2.692
			c6.983,6.612,14.689,12.468,22.987,17.439c12.769,7.651,26.938,13.202,42.032,16.182
			C186.747,347.769,178.875,334.769,167.752,325.284z"/>
		<path fill="none" stroke="#000000" stroke-width="8" stroke-linecap="round" stroke-linejoin="round" stroke-miterlimit="10" d="
			M167.749,325.281c0.001,0.001,0.002,0.003,0.003,0.003c9.216-14.563,32.25-42.351,32.25-42.351l39.482-37.663
			c0,0,31.482-23.649,48.352-33.129c0-0.001-0.001-0.003-0.001-0.004c2.343-17.918-2.258-40.479-12.927-60.918
			c-68.253,26.821-129.281,88.539-158.386,148.05c5.608,8.512,12.171,16.337,19.544,23.319
			C147.422,325.398,159.882,327.369,167.749,325.281z"/>
		<path fill="none" stroke="#000000" stroke-width="8" stroke-linecap="round" stroke-linejoin="round" stroke-miterlimit="10" d="
			M200.002,282.934c-12.163,13.539-23.035,27.788-32.25,42.351c11.123,9.484,18.995,22.484,33.333,30.926
			c8.31,1.639,16.896,2.507,25.687,2.507c22.25,0,43.208-5.516,61.596-15.241C249.998,341.858,209.607,303.666,200.002,282.934z"/>
		<path fill="none" stroke="#000000" stroke-width="8" stroke-linecap="round" stroke-linejoin="round" stroke-miterlimit="10" d="
			M239.484,245.271c-14.186,11.602-27.463,24.284-39.482,37.663c9.605,20.732,49.995,58.925,88.365,60.542
			c17.811-9.42,33.203-22.795,45.011-38.959C301.521,298.954,255.225,266.35,239.484,245.271z"/>
		<path fill="none" stroke="#000000" stroke-width="8" stroke-linecap="round" stroke-linejoin="round" stroke-miterlimit="10" d="
			M352.226,185.815c-5.784-17.728-15.215-33.806-27.416-47.343c-10.622-11.787-23.339-21.647-37.565-28.997
			c-4.07-0.181-8.105-0.226-12.102-0.132c14.34,8.801,25.82,19.667,34.832,31.458c12.285,16.071,19.975,33.855,24.038,50.468
			c4.938,20.189,3.662,41.727-0.408,53.36c7.677,4.191,15.318,7.924,22.03,10.574c2.012-9.159,3.081-18.67,3.081-28.432
			C358.716,212.473,356.433,198.709,352.226,185.815z"/>
	</g>
</g>
<g id="pivot">
	<circle fill="none" cx="222.776" cy="355.878" r="14.132"/>
</g>
</svg>
