<?xml version="1.0" encoding="utf-8"?>
<!-- Generator: Adobe Illustrator 16.0.0, SVG Export Plug-In . SVG Version: 6.00 Build 0)  -->
<!DOCTYPE svg PUBLIC "-//W3C//DTD SVG 1.1//EN" "http://www.w3.org/Graphics/SVG/1.1/DTD/svg11.dtd">
<svg version="1.1"
	 id="svg2" xmlns:dc="http://purl.org/dc/elements/1.1/" xmlns:rdf="http://www.w3.org/1999/02/22-rdf-syntax-ns#" xmlns:cc="http://creativecommons.org/ns#" xmlns:sodipodi="http://sodipodi.sourceforge.net/DTD/sodipodi-0.dtd" xmlns:svg="http://www.w3.org/2000/svg" xmlns:inkscape="http://www.inkscape.org/namespaces/inkscape" inkscape:version="0.91 r13725" sodipodi:docname="pivot-02.svg"
	 xmlns="http://www.w3.org/2000/svg" xmlns:xlink="http://www.w3.org/1999/xlink" x="0px" y="0px" width="1920px" height="1080px"
	 viewBox="0 0 1920 1080" enable-background="new 0 0 1920 1080" xml:space="preserve">
<sodipodi:namedview  id="namedview485" objecttolerance="10" gridtolerance="10" inkscape:cx="1108.7018" showgrid="false" guidetolerance="10" inkscape:zoom="0.42426428" inkscape:cy="417.6271" bordercolor="#666666" pagecolor="#ffffff" borderopacity="1" inkscape:window-y="-8" inkscape:pageshadow="2" inkscape:window-x="-8" inkscape:window-width="1600" inkscape:pageopacity="0" inkscape:window-height="837" inkscape:current-layer="svg2" inkscape:window-maximized="1">
	</sodipodi:namedview>
<g id="Background" display="none">
</g>
<g id="oseba" display="none">
</g>
<g id="zid" display="none">
	<rect id="rect7" display="inline" fill="#EDEBDD" width="1920" height="1080"/>
</g>
<g id="zunaj" display="none">
	<g id="zunaj_2_" display="inline">
		<g id="g11">
			<g id="g13">
				<g>
					<defs>
						<rect id="SVGID_1_" width="370.197" height="1080"/>
					</defs>
					<clipPath id="SVGID_2_">
						<use xlink:href="#SVGID_1_"  overflow="visible"/>
					</clipPath>
					<g id="g21" clip-path="url(#SVGID_2_)">
						<g id="g23">
							<rect id="rect25" x="-2.334" y="131.959" fill="none" width="243.568" height="963.198"/>
						</g>
						<g id="g27">
							
								<path id="path29" fill="#57B2E5" stroke="#000000" stroke-width="3" stroke-linecap="round" stroke-linejoin="round" stroke-miterlimit="10" d="
								M408.211,884.429V-17.318H-34.145V897.64C69.58,894.362,355.508,874.438,408.211,884.429z"/>
							
								<path id="path31" fill="#B8B5B5" stroke="#000000" stroke-width="3" stroke-linecap="round" stroke-linejoin="round" stroke-miterlimit="10" d="
								M-2.334,669.634c16.279,2.486,34.182-9.228,47.799-17.979c22.082-14.189,52.781-36.726,67.682-61.172
								c8.33-13.671,11.939-31.067,19.969-45.301c10.758-19.066,27.197-32.627,41.484-48.297
								c8.805-9.657,36.48-55.834,46.898-51.124c13.273,6.002,22.527,46.682,33.746,59.673c6.945,8.044,15.707,14.104,23.291,21.372
								c8.992,8.623,13.758,17.968,20.951,28.857c10.605,16.061,22.354,24.009,38.744,29.726
								c12.699,4.432,44.662,9.409,47.695,23.687c2.781,13.085,9.904,68.227,9.904,81.703c0,40.664-41.461,33.781-45.82,74.202
								c-4.188,38.854,1.791,80.892-4.303,118.916c-41.059,3.098-83.105,0.227-124.313,0.227c-18.148,0-35.275,3.586-53.115,4.524
								c-21.637,1.138-42.422-10.72-63.24-16.633c-18.232-5.179-30.064-17.364-45.811-30.209
								c-8.371-6.826-17.961-12.248-25.35-20.338c-15.924-17.436-10.188-52.72-13.279-75.927
								c-2.492-18.696-0.906-38.337-3.523-56.744c-1.516-10.67-1.506-15.093-12.941-13.165"/>
							
								<path id="path33" fill="#B8B5B5" stroke="#000000" stroke-width="3" stroke-linecap="round" stroke-linejoin="round" stroke-miterlimit="10" d="
								M-91.801,569.302c-11.857,5.538-26.814,9.709-39.762,14.716c-15.354,5.938-23.48,12.37-35.764,19.87
								c-18.109,11.062-38.162,16.532-66.141,20.471c-21.684,3.051-20.973,1.514-26.152,11.344
								c-4.746,9.01-4.436,20.631-4.436,29.91c0,28,3.035,54.574,10.477,82.406c7.15,26.757-3.059,55.7,7.346,81.886
								c70.09,2.133,141.869,0.153,212.213,0.153c30.982,0,60.219,2.471,90.674,3.115c36.938,0.784,72.422-7.38,107.955-11.451
								c31.125-3.564,51.326-11.958,78.205-20.802c14.289-4.701,30.66-8.434,43.273-14.004
								c27.186-12.006,17.389-36.302,22.67-52.282c6.949-21.041,12.752-43.805-13.498-53.505
								c-27.313-10.093-58.016-12.813-85.695-22.226c-36.865-12.54-76.723-26.305-105.969-49.225
								c-23.451-18.376-40.768-36.639-67.793-52.771c-16.42-9.804-52.959-32.479-74.326-28.135
								C-61.223,533.39-72.035,560.069-91.801,569.302z"/>
							
								<path id="path35" fill="#39A935" stroke="#000000" stroke-width="3" stroke-linecap="round" stroke-linejoin="round" stroke-miterlimit="10" d="
								M125.645,667.006c52.199,9.396,98.514-18.8,143.146-30.586s116.313,7.652,116.313,7.652v186.281H-2.646V683.519v-24.253
								C38.979,655.59,83.02,659.337,125.645,667.006z"/>
							
								<path id="path37" fill="#93C01F" stroke="#000000" stroke-width="3" stroke-linecap="round" stroke-linejoin="round" stroke-miterlimit="10" d="
								M101.07,740.315C64.953,743.637-2.646,728.128-2.646,728.128v417.169h393.525l7.428-387.363l-7.428-26.254
								c-21.008-1.854-91.807-8.493-135.797,0.922C203.895,739.491,121.395,733.16,101.07,740.315z"/>
							
								<path id="path39" fill="#0073B3" stroke="#000000" stroke-width="3" stroke-linecap="round" stroke-linejoin="round" stroke-miterlimit="10" d="
								M395.832,932.587c0,0-21.617-18.958-33.77-24.229c-8.789-3.815-21.83-0.449-31.396-1.611
								c-13.605-1.646-28.158,3.203-41.867,3.438c-17.043,0.292-33.363-11.188-50.59-9.039c-9.191,1.147-18.293,5.267-27.271,7.082
								c-29.684,6.011-46.275-8.882-70.98-16.442c-19.545-5.984-43.754,1.168-63.188,4.778c-25.834,4.803-52.539,3.565-79.264,3.506
								c-17.678-0.041-27.332-1.638-37.32,15.001c-18.936,31.546-16.66,69.911-34.688,101.833
								c-14.082,24.931-32.367,115.463,8.48,123.001c12.736,2.349,26.189-0.396,39.189-0.182c8.332,0.142,14.053,2.187,20.693,6.661
								c7.9,5.323,14.246,10.393,23.535,13.417c20.762,6.771,40.971,6.101,62.193,10.771c25.639,5.638,51.201,11.773,77.6,13.818
								c25.771,1.994,30.855,7.328,43.189,32.479c9.209,18.776,219.385-63.935,219.385-63.935L395.832,932.587z"/>
						</g>
						<g id="g41">
							
								<path id="path43" stroke="#282828" stroke-width="3" stroke-linecap="round" stroke-linejoin="round" stroke-miterlimit="10" d="
								M71.023,464.629"/>
						</g>
						<g id="g45">
							
								<path id="path47" stroke="#282828" stroke-width="3" stroke-linecap="round" stroke-linejoin="round" stroke-miterlimit="10" d="
								M48.375,464.629"/>
						</g>
						<g id="g49">
							
								<path id="path51" fill="#785C37" stroke="#000000" stroke-width="3" stroke-linecap="round" stroke-linejoin="round" stroke-miterlimit="10" d="
								M89.668,404.813c-26.689-15.729-65.865-25.524-88.281-30.196c0.025-0.064,0.061-0.125,0.076-0.193
								c0.021-0.092,0.021-0.188,0.039-0.281c22.697,2.737,58.215,4.688,87.455-6.069c3.07-1.131,2.779-3.504-0.652-5.304
								c-3.438-1.801-8.711-2.342-11.783-1.207c-30.244,11.119-67.797,6.483-86.244,3.636c-1.137-0.315-2.33-0.595-3.574-0.813
								c-145.852-25.712-310.635,4.323-317.574,5.613c-7.523,1.399-9.313,5.784-3.994,9.797c3.012,2.272,7.664,3.938,12.498,4.701
								c3.695,0.582,7.496,0.637,10.758,0.032c1.602-0.297,161.459-29.362,294.658-5.907c0.096,0.018,0.195,0.028,0.291,0.045
								c5.475,0.911,61.848,10.616,94.287,29.733c1.498,0.883,3.451,1.508,5.447,1.823c2.266,0.355,4.584,0.316,6.352-0.214
								C92.752,409.02,92.859,406.689,89.668,404.813z"/>
							
								<path id="path53" fill="#39A935" stroke="#000000" stroke-width="3" stroke-linecap="round" stroke-linejoin="round" stroke-miterlimit="10" d="
								M70.707,372.514c-0.988-10.729,2.094-19.141,9.176-25.014c9.783-8.109,24.531-9.566,31.248-9.789
								c-3.43,14.206-8.766,24.389-15.879,30.283C85.324,376.229,74.59,373.803,70.707,372.514z"/>
							
								<path id="path55" fill="#39A935" stroke="#000000" stroke-width="3" stroke-linecap="round" stroke-linejoin="round" stroke-miterlimit="10" d="
								M79.625,405.295c7.068-4.336,13.918-5.066,20.383-2.181c8.926,3.991,14.951,13.675,17.387,18.232
								c-10.969,2.468-19.811,2.25-26.301-0.651C82.035,416.648,80.055,408.412,79.625,405.295z"/>
							
								<path id="path57" fill="#39A935" stroke="#000000" stroke-width="3" stroke-linecap="round" stroke-linejoin="round" stroke-miterlimit="10" d="
								M35.5,383.287c8.258,0.756,14.184,4.268,17.637,10.447c4.764,8.539,3.799,19.9,3.023,25.013
								c-10.264-4.585-17.221-10.048-20.686-16.257C30.639,393.827,33.979,386.043,35.5,383.287z"/>
							
								<path id="path59" fill="#39A935" stroke="#000000" stroke-width="3" stroke-linecap="round" stroke-linejoin="round" stroke-miterlimit="10" d="
								M71.061,362.839c8.014-2.144,14.787-0.896,20.16,3.716c7.42,6.368,10.436,17.367,11.473,22.433
								c-11.217-0.761-19.631-3.488-25.025-8.118C70.137,374.404,70.586,365.945,71.061,362.839z"/>
						</g>
						<g id="g61">
							
								<path id="path63" fill="#785C37" stroke="#000000" stroke-width="3" stroke-linecap="round" stroke-linejoin="round" stroke-miterlimit="10" d="
								M58.449,246.143c-30.447,5.721-66.395,24.121-86.35,35.354c-0.021-0.065-0.037-0.136-0.066-0.197
								c-0.047-0.084-0.107-0.157-0.156-0.239c18.893-12.873,46.918-34.772,61.859-62.113c1.568-2.872-0.213-4.469-3.979-3.563
								c-3.773,0.907-8.104,3.968-9.67,6.841c-15.457,28.276-46.783,49.496-62.549,59.49c-1.064,0.51-2.146,1.085-3.23,1.736
								c-126.748,76.608-231.066,207.653-235.443,213.19c-4.744,6.007-3.205,10.484,3.438,10.004
								c3.762-0.269,8.361-2.075,12.504-4.683c3.168-1.994,6.064-4.453,8.121-7.055c1.01-1.274,102.264-128.352,217.996-198.333
								c0.086-0.049,0.166-0.108,0.248-0.161c4.725-2.914,53.561-32.699,90.568-39.647c1.705-0.318,3.59-1.136,5.303-2.211
								c1.939-1.223,3.658-2.779,4.641-4.34C63.539,247.285,62.09,245.46,58.449,246.143z"/>
							
								<path id="path65" fill="#39A935" stroke="#000000" stroke-width="3" stroke-linecap="round" stroke-linejoin="round" stroke-miterlimit="10" d="
								M22.369,231.939c-6.092-5.633-8.65-12.028-7.619-19.031c1.424-9.674,9.111-18.094,12.846-21.674
								c5.342,9.89,7.527,18.461,6.488,25.49C32.643,226.543,25.25,230.682,22.369,231.939z"/>
							
								<path id="path67" fill="#39A935" stroke="#000000" stroke-width="3" stroke-linecap="round" stroke-linejoin="round" stroke-miterlimit="10" d="
								M51.625,255.52c-3.271-7.619-3.008-14.502,0.783-20.483c5.232-8.257,15.686-12.82,20.553-14.574
								c0.857,11.207-0.633,19.929-4.443,25.931C63.207,254.771,54.77,255.546,51.625,255.52z"/>
							
								<path id="path69" fill="#39A935" stroke="#000000" stroke-width="3" stroke-linecap="round" stroke-linejoin="round" stroke-miterlimit="10" d="
								M-11.918,272.596c6.264-5.441,12.898-7.291,19.75-5.502c9.461,2.471,16.992,11.031,20.145,15.133
								c-10.416,4.23-19.172,5.471-26.051,3.674C-7.674,283.395-10.982,275.596-11.918,272.596z"/>
							
								<path id="path71" fill="#39A935" stroke="#000000" stroke-width="3" stroke-linecap="round" stroke-linejoin="round" stroke-miterlimit="10" d="
								M50.938,254.438c3.41-7.56,8.662-12.013,15.631-13.258c9.631-1.716,20.055,2.907,24.631,5.313
								c-7.686,8.2-15.119,12.989-22.119,14.237C59.313,262.475,53.043,256.775,50.938,254.438z"/>
							
								<path id="path73" fill="#39A935" stroke="#000000" stroke-width="3" stroke-linecap="round" stroke-linejoin="round" stroke-miterlimit="10" d="
								M26.107,231.482c-7.85,2.678-14.693,1.889-20.363-2.351c-7.832-5.853-11.582-16.621-12.957-21.606
								c11.24,0.004,19.82,2.158,25.51,6.416C26.248,219.878,26.371,228.35,26.107,231.482z"/>
						</g>
						<g id="g75">
							
								<path id="path77" fill="#785C37" stroke="#000000" stroke-width="3" stroke-linecap="round" stroke-linejoin="round" stroke-miterlimit="10" d="
								M24.699,495.316C17.271,465.24-3.125,430.39-15.465,411.1c0.063-0.028,0.133-0.045,0.189-0.08
								c0.082-0.049,0.152-0.114,0.232-0.17c13.918,18.139,37.363,44.886,65.502,58.264c2.957,1.401,4.449-0.467,3.334-4.178
								c-1.119-3.715-4.418-7.862-7.375-9.268c-29.104-13.839-52.055-43.92-62.922-59.096c-0.568-1.032-1.205-2.081-1.916-3.127
								c-83.635-122.229-220.352-218.992-226.129-223.051c-6.262-4.396-10.648-2.608-9.793,3.998
								c0.48,3.741,2.545,8.23,5.379,12.221c2.17,3.051,4.789,5.802,7.502,7.712c1.33,0.937,133.91,94.862,210.309,206.465
								c0.053,0.083,0.117,0.161,0.174,0.239c3.18,4.553,35.668,51.632,44.691,88.188c0.416,1.687,1.336,3.521,2.508,5.17
								c1.33,1.866,2.98,3.496,4.594,4.389C23.848,500.463,25.588,498.912,24.699,495.316z"/>
							
								<path id="path79" fill="#39A935" stroke="#000000" stroke-width="3" stroke-linecap="round" stroke-linejoin="round" stroke-miterlimit="10" d="
								M36.846,458.491c5.281-6.396,11.523-9.313,18.572-8.682c9.736,0.88,18.578,8.08,22.365,11.604
								c-9.574,5.89-18.012,8.557-25.088,7.916C42.813,468.444,38.266,461.298,36.846,458.491z"/>
							
								<path id="path81" fill="#39A935" stroke="#000000" stroke-width="3" stroke-linecap="round" stroke-linejoin="round" stroke-miterlimit="10" d="
								M14.852,489.216c10.77-5.357,20.76-5.544,29.732-0.543c12.387,6.907,19.854,21.67,22.789,28.574
								c-16.162,2.163-28.914,0.716-37.92-4.313C16.881,505.928,15.068,493.774,14.852,489.216z"/>
							
								<path id="path83" fill="#39A935" stroke="#000000" stroke-width="3" stroke-linecap="round" stroke-linejoin="round" stroke-miterlimit="10" d="
								M-0.924,430.477c8.002,2.19,13.223,6.688,15.535,13.381c3.193,9.238,0.25,20.256-1.408,25.153
								C3.9,462.694-1.986,456.096-4.313,449.377C-7.555,439.998-2.9,432.92-0.924,430.477z"/>
							
								<path id="path85" fill="#39A935" stroke="#000000" stroke-width="3" stroke-linecap="round" stroke-linejoin="round" stroke-miterlimit="10" d="
								M12.889,486.457c7.738,2.979,12.48,7.972,14.117,14.859c2.256,9.517-1.773,20.184-3.916,24.89
								c-8.621-7.209-13.822-14.363-15.461-21.281C5.336,495.271,10.67,488.689,12.889,486.457z"/>
						</g>
						<g id="g87">
							<g id="g89">
								
									<path id="path91" fill="#785C37" stroke="#000000" stroke-width="3" stroke-linecap="round" stroke-linejoin="round" stroke-miterlimit="10" d="
									M204.818,305.884c-29.934-7.983-72.154-6.771-72.166-6.864c22.602-3.458,36.334-10.121,61.609-28.335
									c2.654-1.914,1.738-4.121-2.053-4.933c-3.793-0.813-9.02,0.083-11.674,2c-26.145,18.836-53.564,24.458-72.098,26.669
									c-1.18,0.001-2.404,0.053-3.66,0.175c-147.4,14.41-298.061,87.604-304.398,90.71c-6.871,3.369-7.416,8.074-1.215,10.511
									c3.512,1.381,8.439,1.733,13.301,1.172c3.717-0.434,7.393-1.4,10.371-2.857c1.463-0.716,147.639-71.649,282.242-84.838
									c0.098-0.01,0.197-0.025,0.295-0.037c5.518-0.592,52.426-6.384,88.807,3.318c1.68,0.446,3.73,0.524,5.738,0.293
									c2.277-0.269,4.5-0.929,6.061-1.912C208.92,309.109,208.396,306.837,204.818,305.884z"/>
								
									<path id="path93" fill="#39A935" stroke="#000000" stroke-width="3" stroke-linecap="round" stroke-linejoin="round" stroke-miterlimit="10" d="
									M184.148,275.188c-1.797-10.812,0.705-19.567,7.451-26.053c9.324-8.955,24.176-11.527,30.971-12.249
									c-2.42,14.665-7.076,25.39-13.854,31.897C199.254,277.874,188.184,276.211,184.148,275.188z"/>
								
									<path id="path95" fill="#39A935" stroke="#000000" stroke-width="3" stroke-linecap="round" stroke-linejoin="round" stroke-miterlimit="10" d="
									M-15.346,379.936c-1.797-10.812,0.705-19.566,7.451-26.053c9.324-8.956,24.178-11.526,30.973-12.249
									C20.656,356.299,16,367.021,9.223,373.531C-0.24,382.621-11.311,380.958-15.346,379.936z"/>
								
									<path id="path97" fill="#39A935" stroke="#000000" stroke-width="3" stroke-linecap="round" stroke-linejoin="round" stroke-miterlimit="10" d="
									M-34.172,369.861c10.311-3.715,19.375-2.832,26.969,2.638c10.488,7.558,15.691,21.704,17.627,28.258
									c-14.861,0.261-26.25-2.389-33.873-7.883C-34.094,385.203-34.451,374.016-34.172,369.861z"/>
								
									<path id="path99" fill="#39A935" stroke="#000000" stroke-width="3" stroke-linecap="round" stroke-linejoin="round" stroke-miterlimit="10" d="
									M87.123,311.257c-8.049,1.99-14.799,0.618-20.084-4.091c-7.305-6.506-10.113-17.559-11.057-22.641
									c11.201,0.968,19.563,3.851,24.869,8.58C88.264,299.707,87.658,308.154,87.123,311.257z"/>
								
									<path id="path101" fill="#39A935" stroke="#000000" stroke-width="3" stroke-linecap="round" stroke-linejoin="round" stroke-miterlimit="10" d="
									M193.371,309.902c1.438-8.166,5.428-13.781,11.875-16.709c8.902-4.041,20.145-2.137,25.176-0.938
									c-5.42,9.852-11.443,16.327-17.916,19.265C203.471,315.62,195.99,311.646,193.371,309.902z"/>
								
									<path id="path103" fill="#39A935" stroke="#000000" stroke-width="3" stroke-linecap="round" stroke-linejoin="round" stroke-miterlimit="10" d="
									M193.316,308.449c7.559-3.413,14.445-3.28,20.494,0.395c8.357,5.078,13.119,15.439,14.965,20.271
									c-11.189,1.071-19.938-0.252-26.01-3.944C194.287,320.016,193.354,311.596,193.316,308.449z"/>
								
									<path id="path105" fill="#39A935" stroke="#000000" stroke-width="3" stroke-linecap="round" stroke-linejoin="round" stroke-miterlimit="10" d="
									M88.438,308.368c5.363-6.325,11.643-9.16,18.684-8.436c9.729,1.005,18.471,8.323,22.211,11.896
									c-9.65,5.768-18.119,8.322-25.189,7.592C94.27,318.4,89.818,311.195,88.438,308.368z"/>
								
									<path id="path107" fill="#39A935" stroke="#000000" stroke-width="3" stroke-linecap="round" stroke-linejoin="round" stroke-miterlimit="10" d="
									M186.563,276.116c-5.906-3.892-8.957-8.917-9.066-14.957c-0.152-8.345,5.146-16.503,7.785-20.039
									c5.883,7.58,8.918,14.489,9.025,20.554C194.461,270.143,188.814,274.654,186.563,276.116z"/>
							</g>
							
								<path id="path109" fill="#39A935" stroke="#000000" stroke-width="3" stroke-linecap="round" stroke-linejoin="round" stroke-miterlimit="10" d="
								M87.727,310.3c-2.822-7.798-2.16-14.653,1.971-20.403c5.709-7.938,16.406-11.89,21.365-13.356
								c0.205,11.241-1.789,19.858-5.939,25.63C99.33,310.229,90.867,310.508,87.727,310.3z"/>
						</g>
						<g id="g111">
							
								<path id="path113" fill="#B17F49" stroke="#1D1D1B" stroke-width="3" stroke-linecap="round" stroke-linejoin="round" stroke-miterlimit="10" d="
								M77.273,883.816c0,10.935-15.818,19.798-35.332,19.798c-19.512,0-35.33-8.863-35.33-19.798s15.818-28.022,35.33-28.022
								C61.455,855.794,77.273,872.884,77.273,883.816z"/>
							
								<path id="path115" fill="#925F36" stroke="#1D1D1B" stroke-width="3" stroke-linecap="round" stroke-linejoin="round" stroke-miterlimit="10" d="
								M88.334,895.579c0,6.757-9.775,12.233-21.834,12.233s-21.834-5.479-21.834-12.233c0-6.758,9.775-17.318,21.834-17.318
								S88.334,888.821,88.334,895.579z"/>
						</g>
					</g>
				</g>
			</g>
			<g id="g117">
				<g>
					<defs>
						<rect id="SVGID_3_" width="370.197" height="1080"/>
					</defs>
					<clipPath id="SVGID_4_">
						<use xlink:href="#SVGID_3_"  overflow="visible"/>
					</clipPath>
					<g id="g125" clip-path="url(#SVGID_4_)">
						
							<rect id="rect127" x="52.765" y="680.317" transform="matrix(-0.1393 0.9903 -0.9903 -0.1393 763.5302 747.6547)" fill="#683B11" stroke="#000000" stroke-width="3" stroke-linecap="round" stroke-linejoin="round" stroke-miterlimit="10" width="8.131" height="50.688"/>
						
							<rect id="rect129" x="350.059" y="667.388" transform="matrix(-0.1391 0.9903 -0.9903 -0.1391 1089.3916 438.4327)" fill="#683B11" stroke="#000000" stroke-width="3" stroke-linecap="round" stroke-linejoin="round" stroke-miterlimit="10" width="8.132" height="50.696"/>
						
							<rect id="rect131" x="100.57" y="679.284" transform="matrix(0.208 0.9781 -0.9781 0.208 771.7585 455.0309)" fill="#683B11" stroke="#000000" stroke-width="3" stroke-linecap="round" stroke-linejoin="round" stroke-miterlimit="10" width="8.648" height="49.595"/>
						
							<rect id="rect133" x="152.17" y="668.423" transform="matrix(0.0699 0.9976 -0.9976 0.0699 840.0659 491.923)" fill="#683B11" stroke="#000000" stroke-width="3" stroke-linecap="round" stroke-linejoin="round" stroke-miterlimit="10" width="8.132" height="56.058"/>
						
							<rect id="rect135" x="199.471" y="676.432" transform="matrix(-0.1391 0.9903 -0.9903 -0.1391 924.8808 595.6185)" fill="#683B11" stroke="#000000" stroke-width="3" stroke-linecap="round" stroke-linejoin="round" stroke-miterlimit="10" width="8.134" height="46.806"/>
						
							<rect id="rect137" x="6.31" y="675.654" transform="matrix(-0.1393 0.9902 -0.9902 -0.1393 704.0608 786.1786)" fill="#683B11" stroke="#000000" stroke-width="3" stroke-linecap="round" stroke-linejoin="round" stroke-miterlimit="10" width="8.134" height="46.805"/>
						
							<rect id="rect139" x="247.955" y="671.513" transform="matrix(0.1739 0.9848 -0.9848 0.1739 895.1541 328.0923)" fill="#683B11" stroke="#000000" stroke-width="3" stroke-linecap="round" stroke-linejoin="round" stroke-miterlimit="10" width="8.131" height="52.164"/>
						
							<rect id="rect141" x="298.655" y="663.472" transform="matrix(0.087 0.9962 -0.9962 0.087 965.2476 329.7443)" fill="#683B11" stroke="#000000" stroke-width="3" stroke-linecap="round" stroke-linejoin="round" stroke-miterlimit="10" width="8.129" height="56.05"/>
						
							<rect id="rect143" x="52.763" y="698.908" transform="matrix(-0.1393 0.9903 -0.9903 -0.1393 781.9449 768.8357)" fill="#683B11" stroke="#000000" stroke-width="3" stroke-linecap="round" stroke-linejoin="round" stroke-miterlimit="10" width="8.135" height="50.698"/>
						
							<rect id="rect145" x="350.073" y="685.948" transform="matrix(-0.1393 0.9902 -0.9902 -0.1393 1107.8408 459.714)" fill="#683B11" stroke="#000000" stroke-width="3" stroke-linecap="round" stroke-linejoin="round" stroke-miterlimit="10" width="8.134" height="50.697"/>
						
							<rect id="rect147" x="100.606" y="697.852" transform="matrix(0.2077 0.9782 -0.9782 0.2077 790.0224 469.8999)" fill="#683B11" stroke="#000000" stroke-width="3" stroke-linecap="round" stroke-linejoin="round" stroke-miterlimit="10" width="8.651" height="49.594"/>
						
							<rect id="rect149" x="152.152" y="686.984" transform="matrix(0.0697 0.9976 -0.9976 0.0697 858.6026 509.3348)" fill="#683B11" stroke="#000000" stroke-width="3" stroke-linecap="round" stroke-linejoin="round" stroke-miterlimit="10" width="8.133" height="56.055"/>
						
							<rect id="rect151" x="199.471" y="695.016" transform="matrix(-0.1391 0.9903 -0.9903 -0.1391 943.2847 616.7869)" fill="#683B11" stroke="#000000" stroke-width="3" stroke-linecap="round" stroke-linejoin="round" stroke-miterlimit="10" width="8.134" height="46.806"/>
						
							<rect id="rect153" x="6.285" y="694.191" transform="matrix(-0.139 0.9903 -0.9903 -0.139 722.4174 807.0991)" fill="#683B11" stroke="#000000" stroke-width="3" stroke-linecap="round" stroke-linejoin="round" stroke-miterlimit="10" width="8.135" height="46.805"/>
						
							<rect id="rect155" x="247.881" y="690.073" transform="matrix(0.1734 0.9849 -0.9849 0.1734 913.5734 343.8617)" fill="#683B11" stroke="#000000" stroke-width="3" stroke-linecap="round" stroke-linejoin="round" stroke-miterlimit="10" width="8.131" height="52.158"/>
						
							<rect id="rect157" x="298.654" y="682.057" transform="matrix(0.087 0.9962 -0.9962 0.087 983.7644 346.7195)" fill="#683B11" stroke="#000000" stroke-width="3" stroke-linecap="round" stroke-linejoin="round" stroke-miterlimit="10" width="8.13" height="56.05"/>
						
							<rect id="rect159" x="52.762" y="717.493" transform="matrix(-0.1393 0.9903 -0.9903 -0.1393 800.3456 790.0212)" fill="#683B11" stroke="#000000" stroke-width="3" stroke-linecap="round" stroke-linejoin="round" stroke-miterlimit="10" width="8.134" height="50.697"/>
						
							<rect id="rect161" x="350.074" y="704.532" transform="matrix(-0.1393 0.9903 -0.9903 -0.1393 1126.2295 480.8416)" fill="#683B11" stroke="#000000" stroke-width="3" stroke-linecap="round" stroke-linejoin="round" stroke-miterlimit="10" width="8.134" height="50.697"/>
						
							<rect id="rect163" x="100.599" y="716.418" transform="matrix(0.2077 0.9782 -0.9782 0.2077 808.178 484.6169)" fill="#683B11" stroke="#000000" stroke-width="3" stroke-linecap="round" stroke-linejoin="round" stroke-miterlimit="10" width="8.651" height="49.594"/>
						
							<rect id="rect165" x="152.152" y="705.566" transform="matrix(0.0697 0.9976 -0.9976 0.0697 877.1382 526.617)" fill="#683B11" stroke="#000000" stroke-width="3" stroke-linecap="round" stroke-linejoin="round" stroke-miterlimit="10" width="8.132" height="56.057"/>
						
							<rect id="rect167" x="199.49" y="713.579" transform="matrix(-0.1393 0.9902 -0.9902 -0.1393 961.7112 638.0925)" fill="#683B11" stroke="#000000" stroke-width="3" stroke-linecap="round" stroke-linejoin="round" stroke-miterlimit="10" width="8.134" height="46.805"/>
						
							<rect id="rect169" x="6.289" y="712.836" transform="matrix(-0.1391 0.9903 -0.9903 -0.1391 740.8761 828.4009)" fill="#683B11" stroke="#000000" stroke-width="3" stroke-linecap="round" stroke-linejoin="round" stroke-miterlimit="10" width="8.133" height="46.804"/>
						
							<rect id="rect171" x="247.918" y="708.671" transform="matrix(0.1736 0.9848 -0.9848 0.1736 931.8398 359.0518)" fill="#683B11" stroke="#000000" stroke-width="3" stroke-linecap="round" stroke-linejoin="round" stroke-miterlimit="10" width="8.132" height="52.158"/>
						
							<rect id="rect173" x="298.679" y="700.706" transform="matrix(0.0869 0.9962 -0.9962 0.0869 1002.418 363.8176)" fill="#683B11" stroke="#000000" stroke-width="3" stroke-linecap="round" stroke-linejoin="round" stroke-miterlimit="10" width="8.132" height="56.05"/>
						<g id="g175">
							<g id="g177">
								<g id="g179">
									<path id="path181" fill="#683B11" d="M38.174,746.222c0,1.562-1.275,2.835-2.836,2.835h-2.459
										c-1.561,0-2.834-1.273-2.834-2.835V695.84c0-1.56,1.273-2.835,2.834-2.835h2.459c1.561,0,2.836,1.275,2.836,2.835V746.222z
										"/>
									
										<path id="path183" fill="none" stroke="#000000" stroke-width="3" stroke-linecap="round" stroke-linejoin="round" stroke-miterlimit="10" d="
										M38.174,746.222c0,1.562-1.275,2.835-2.836,2.835h-2.459c-1.561,0-2.834-1.273-2.834-2.835V695.84
										c0-1.56,1.273-2.835,2.834-2.835h2.459c1.561,0,2.836,1.275,2.836,2.835V746.222z"/>
								</g>
								<g id="g185">
									<path id="path187" fill="#683B11" d="M83.41,752.654c0,1.56-1.275,2.835-2.836,2.835h-2.463
										c-1.561,0-2.836-1.275-2.836-2.835V702.27c0-1.561,1.275-2.836,2.836-2.836h2.463c1.561,0,2.836,1.275,2.836,2.836V752.654
										z"/>
									
										<path id="path189" fill="none" stroke="#000000" stroke-width="3" stroke-linecap="round" stroke-linejoin="round" stroke-miterlimit="10" d="
										M83.41,752.654c0,1.56-1.275,2.835-2.836,2.835h-2.463c-1.561,0-2.836-1.275-2.836-2.835V702.27
										c0-1.561,1.275-2.836,2.836-2.836h2.463c1.561,0,2.836,1.275,2.836,2.836V752.654z"/>
								</g>
								<g id="g191">
									<path id="path193" fill="#683B11" d="M185.658,739.255c0,1.562-1.275,2.835-2.834,2.835h-2.465
										c-1.559,0-2.834-1.273-2.834-2.835V688.87c0-1.562,1.275-2.835,2.834-2.835h2.465c1.559,0,2.834,1.273,2.834,2.835V739.255
										z"/>
									
										<path id="path195" fill="none" stroke="#000000" stroke-width="3" stroke-linecap="round" stroke-linejoin="round" stroke-miterlimit="10" d="
										M185.658,739.255c0,1.562-1.275,2.835-2.834,2.835h-2.465c-1.559,0-2.834-1.273-2.834-2.835V688.87
										c0-1.562,1.275-2.835,2.834-2.835h2.465c1.559,0,2.834,1.273,2.834,2.835V739.255z"/>
								</g>
								<g id="g197">
									<path id="path199" fill="#683B11" d="M132.938,743.005c0,1.562-1.273,2.835-2.834,2.835h-2.461
										c-1.559,0-2.834-1.273-2.834-2.835v-50.381c0-1.56,1.275-2.835,2.834-2.835h2.461c1.561,0,2.834,1.275,2.834,2.835V743.005
										z"/>
									
										<path id="path201" fill="none" stroke="#000000" stroke-width="3" stroke-linecap="round" stroke-linejoin="round" stroke-miterlimit="10" d="
										M132.938,743.005c0,1.562-1.273,2.835-2.834,2.835h-2.461c-1.559,0-2.834-1.273-2.834-2.835v-50.381
										c0-1.56,1.275-2.835,2.834-2.835h2.461c1.561,0,2.834,1.275,2.834,2.835V743.005z"/>
								</g>
								<g id="g203">
									<path id="path205" fill="#683B11" d="M230.916,746.153c0,1.56-1.275,2.835-2.834,2.835h-2.465
										c-1.561,0-2.834-1.275-2.834-2.835V695.77c0-1.561,1.273-2.836,2.834-2.836h2.465c1.559,0,2.834,1.275,2.834,2.836V746.153
										z"/>
									
										<path id="path207" fill="none" stroke="#000000" stroke-width="3" stroke-linecap="round" stroke-linejoin="round" stroke-miterlimit="10" d="
										M230.916,746.153c0,1.56-1.275,2.835-2.834,2.835h-2.465c-1.561,0-2.834-1.275-2.834-2.835V695.77
										c0-1.561,1.273-2.836,2.834-2.836h2.465c1.559,0,2.834,1.275,2.834,2.836V746.153z"/>
								</g>
								<g id="g209">
									<path id="path211" fill="#683B11" d="M333.164,732.754c0,1.562-1.275,2.835-2.834,2.835h-2.463
										c-1.561,0-2.836-1.273-2.836-2.835v-50.385c0-1.562,1.275-2.835,2.836-2.835h2.463c1.559,0,2.834,1.273,2.834,2.835
										V732.754z"/>
									
										<path id="path213" fill="none" stroke="#000000" stroke-width="3" stroke-linecap="round" stroke-linejoin="round" stroke-miterlimit="10" d="
										M333.164,732.754c0,1.562-1.275,2.835-2.834,2.835h-2.463c-1.561,0-2.836-1.273-2.836-2.835v-50.385
										c0-1.562,1.275-2.835,2.836-2.835h2.463c1.559,0,2.834,1.273,2.834,2.835V732.754z"/>
								</g>
								<g id="g215">
									<path id="path217" fill="#683B11" d="M280.443,736.504c0,1.562-1.273,2.835-2.834,2.835h-2.463
										c-1.559,0-2.834-1.273-2.834-2.835v-50.381c0-1.56,1.275-2.835,2.834-2.835h2.463c1.561,0,2.834,1.275,2.834,2.835V736.504
										z"/>
									
										<path id="path219" fill="none" stroke="#000000" stroke-width="3" stroke-linecap="round" stroke-linejoin="round" stroke-miterlimit="10" d="
										M280.443,736.504c0,1.562-1.273,2.835-2.834,2.835h-2.463c-1.559,0-2.834-1.273-2.834-2.835v-50.381
										c0-1.56,1.275-2.835,2.834-2.835h2.463c1.561,0,2.834,1.275,2.834,2.835V736.504z"/>
								</g>
							</g>
						</g>
					</g>
				</g>
			</g>
			<g id="g221">
				<g>
					<defs>
						<rect id="SVGID_5_" width="370.197" height="1080"/>
					</defs>
					<clipPath id="SVGID_6_">
						<use xlink:href="#SVGID_5_"  overflow="visible"/>
					</clipPath>
					
						<path id="path229" clip-path="url(#SVGID_6_)" fill="#785C37" stroke="#000000" stroke-width="3" stroke-linecap="round" stroke-linejoin="round" stroke-miterlimit="10" d="
						M-110.441,965.929c1.119,41.983,3.014,84.927-1.82,125.949c-3.18,26.99-9.416,44.571,18.316,49.701
						c27.631,5.107,58.971,0.01,87.02,0.01c40.697,0,93.014,15.08,131.941,1.193c-10.668-37.829-37.324-68.735-54.213-102.502
						c-18.324-36.626-30.336-72.612-39.443-114.773c-9.568-44.313-14.969-83.598-19.219-129.067
						c-4.09-43.674-14.475-89.484-17.73-134.5c-4.775-65.956-4.031-134.902-9.324-200.575c-2.021-25.146-5.234-50.081-7.807-75.127
						c-1.652-16.107,1.311-55.664-7.029-68.149c-10.777-16.129-62.852-16.2-76.734-5.857c-16.973,12.631-8.934,64.496-8.934,88.341
						c0,29.921,0.076,59.83,0.025,89.745c-0.066,31.881-6.846,61.438-7.32,93.061c-0.986,65.175-0.227,130.639,0.074,195.825
						C-122.348,842.332-112.111,903.315-110.441,965.929z"/>
				</g>
			</g>
		</g>
	</g>
</g>
<g id="zavesa" display="none">
	<g id="g232" display="inline">
		<g>
			<defs>
				<rect id="SVGID_7_" width="420" height="1080"/>
			</defs>
			<clipPath id="SVGID_8_">
				<use xlink:href="#SVGID_7_"  overflow="visible"/>
			</clipPath>
			<g id="g240" clip-path="url(#SVGID_8_)">
				
					<rect id="rect242" x="-11.424" y="7.65" fill="#C10000" stroke="#000000" stroke-width="3.0599" stroke-linecap="round" stroke-linejoin="round" stroke-miterlimit="10" width="265.153" height="195.453"/>
				<g id="g244">
					
						<path id="path246" fill="#C10000" stroke="#000000" stroke-width="3.0599" stroke-linecap="round" stroke-linejoin="round" stroke-miterlimit="10" d="
						M367.848,9.779H219.426c0,205.479,65.022,438.718,71.116,635.096c7.701,248.193,3.293,437.513,3.293,437.513h93.482V9.779
						H367.848z"/>
				</g>
				
					<rect id="rect248" x="282.053" y="592.918" fill="#C10000" stroke="#000000" stroke-width="3" stroke-linecap="round" stroke-linejoin="round" stroke-miterlimit="10" width="109.73" height="51.417"/>
				
					<path id="path250" fill="none" stroke="#000000" stroke-width="3" stroke-linecap="round" stroke-linejoin="round" stroke-miterlimit="10" d="
					M302.57,36.355c0,0-8.064,170.663,25.586,331.094"/>
				
					<rect id="rect252" x="-5.501" y="-7.969" fill="#785C37" stroke="#000000" stroke-width="3" stroke-linecap="round" stroke-linejoin="round" stroke-miterlimit="10" width="414.707" height="43.159"/>
			</g>
		</g>
	</g>
</g>
<g id="pohistvo" display="none">
	<g id="pohistvo_1_" display="inline">
		<g id="g256">
			<g id="g258">
				<g>
					<defs>
						<rect id="SVGID_9_" width="1919.998" height="1080"/>
					</defs>
					<clipPath id="SVGID_10_">
						<use xlink:href="#SVGID_9_"  overflow="visible"/>
					</clipPath>
					<g id="g266" clip-path="url(#SVGID_10_)">
						<g id="g268">
							<g id="g270">
								<g id="g272">
									
										<path id="path274" fill="#E2BB93" stroke="#000000" stroke-width="3" stroke-linecap="round" stroke-linejoin="round" stroke-miterlimit="10" d="
										M1229.001,667.896c-6.129-10.008-30.92-47.004-42.66-55.942c-7.277-5.539-16.229-10.241-27.799-13.895
										c-16.506-5.209-30.873-5.55-46.922-8.784l-0.277-13.545c56.596-4.754,63.156-55.035,63.156-55.035
										s11.479,2.611,14.498-12.406c3.059-15.209-14.865-20.16-14.865-20.16s-6.479-68.339-65.85-67.253
										c-6.166,0.112-11.955,0.499-17.439,1.109c-5.482-0.61-11.273-0.997-17.439-1.109
										c-59.363-1.086-41.072,59.826-64.289,71.398c-0.504,0.243-0.75,0.402-0.75,0.402c-5.129-1.541-18.975,3.648-15.002,17.896
										c4.109,14.762,15.387,12.229,15.387,12.229s4.926,46.313,58.701,52.62l-0.504,13.108c-16.35,3.408-33.9,4.207-50.771,9.527
										c-11.566,3.651-20.52,8.354-27.797,13.895c-11.744,8.938-36.535,45.937-42.662,55.94
										c-5.559,9.084,1.205,32.956,1.205,32.956l3.301,7.772c0,0,25.275,12.514,24.488,2.271
										c-0.33-4.346-2.387-26.018-2.504-31.388c-0.145-6.632,10.498-16.165,14.082-21.29
										c11.492-16.43,14.797-23.438,43.217-27.898c3.338-0.526,8.98,42.063,12.547,74.813h90.613
										c3.568-32.751,9.211-75.342,12.547-74.813c28.42,4.463,31.73,11.471,43.217,27.898c3.584,5.125,14.23,14.658,14.088,21.29
										c-0.119,5.37-7.18,33.042-7.514,37.388c-0.785,10.24,24.492-2.271,24.492-2.271l8.299-13.772
										C1227.794,700.851,1234.558,676.979,1229.001,667.896z"/>
								</g>
								
									<path id="path276" fill="none" stroke="#000000" stroke-width="3" stroke-linecap="round" stroke-linejoin="round" stroke-miterlimit="10" d="
									M1060.687,546.785c16.848,24.563,56.512,15.168,66.512-0.782"/>
								
									<line id="line278" fill="none" stroke="#000000" stroke-width="3" stroke-linecap="round" stroke-linejoin="round" stroke-miterlimit="10" x1="1092.423" y1="532.293" x2="1096.451" y2="532.033"/>
								<g id="g280">
									
										<path id="path282" fill="#FFFFFF" stroke="#000000" stroke-width="3" stroke-linecap="round" stroke-linejoin="round" stroke-miterlimit="10" d="
										M1066.736,501.97c1.061,4.199-2.172,8.638-7.215,9.901c-5.053,1.268-9.992-1.108-11.049-5.311
										c-1.055-4.197,2.178-8.631,7.223-9.895C1060.736,495.399,1065.685,497.77,1066.736,501.97z"/>
									
										<path id="path284" stroke="#000000" stroke-width="3" stroke-linecap="round" stroke-linejoin="round" stroke-miterlimit="10" d="
										M1060.441,507.467c0.424,1.647-0.693,3.342-2.467,3.797c-1.805,0.45-3.586-0.521-3.998-2.174
										c-0.412-1.636,0.699-3.328,2.494-3.783C1058.257,504.861,1060.042,505.825,1060.441,507.467z"/>
								</g>
								<g id="g286">
									
										<path id="path288" fill="#FFFFFF" stroke="#000000" stroke-width="3" stroke-linecap="round" stroke-linejoin="round" stroke-miterlimit="10" d="
										M1135.359,503.679c1.053,4.202-2.18,8.638-7.223,9.904c-5.047,1.271-9.986-1.113-11.049-5.313
										c-1.055-4.198,2.18-8.627,7.229-9.894C1129.357,497.111,1134.302,499.483,1135.359,503.679z"/>
									
										<path id="path290" stroke="#000000" stroke-width="3" stroke-linecap="round" stroke-linejoin="round" stroke-miterlimit="10" d="
										M1129.062,509.18c0.418,1.648-0.695,3.347-2.477,3.796c-1.799,0.452-3.582-0.52-3.996-2.172
										c-0.408-1.636,0.703-3.329,2.496-3.778C1126.875,506.573,1128.658,507.537,1129.062,509.18z"/>
								</g>
								
									<path id="path292" fill="#D45F14" stroke="#000000" stroke-width="3" stroke-linecap="round" stroke-linejoin="round" stroke-miterlimit="10" d="
									M1108.412,481.729"/>
								
									<path id="path294" fill="#D45F14" stroke="#000000" stroke-width="3" stroke-linecap="round" stroke-linejoin="round" stroke-miterlimit="10" d="
									M1171.232,473.759c-6.16-17.538,3.967-58.16-66.779-59.879c-1.668-4.154,1.439-4.813,0.475-8.404
									c-4.43,1.078-13.973,3.269-14.918,8.582c-0.447,0.021-0.895,0.041-1.34,0.065c-0.949-2.406-1.547-5.089-1.205-7.545
									c-1.479,2.105-7.426,7.89-7.344,10.708c-53.693,0-74.893,52.188-71.01,74.986c0.627,3.678,12.848-13.624,14.402-10.544
									c3.523,6.985,16.494-3.527,21.924-1.313c5.428,2.226,9.84,3.553,12.74,3.553c5.805,0,12.031-7.414,23.309-7.405
									c11.459,0.011,13.912,5.691,22.83,5.691c8.92,0,5.305-5.639,11.609-5.482c6.449,0.151,13.951,6.116,17.906,8.521
									c4.887,2.972,15.514,6.94,15.367-0.046c-0.146-6.985,10.291-1.796,14.242-1.548
									C1167.623,483.963,1174.55,478.548,1171.232,473.759z"/>
							</g>
							<g id="g296">
								
									<path id="path298" fill="#E69F00" stroke="#000100" stroke-width="3" stroke-linecap="round" stroke-linejoin="round" stroke-miterlimit="10" d="
									M1160.056,636.036l16.809,15.37l20.559-32.587c0,0-9.211-17.076-45.584-25.767c-5.736-1.369-20.607,0.111-21.332,1.77
									c-6.885,15.722-18.467,25.798-41.664,25.054c-23.025,0.737-34.602-9.178-41.504-24.694
									c-0.785-1.768-15.848-3.521-21.646-2.206c-36.533,8.294-46.584,23.869-46.584,23.869l20.555,32.588l17.961-13.396
									l-7.186,77.104h156.805L1160.056,636.036z"/>
							</g>
							<g id="g300">
								
									<path id="path302" fill="#FFFFFF" stroke="#000000" stroke-width="3" stroke-linecap="round" stroke-linejoin="round" stroke-miterlimit="10" d="
									M1152.746,697.517l15.334,0.109l-1.162-13.556h-13.84c0.512-14.409,1.932-90.524,1.932-90.524l-25.854-3.309
									c0,59.071,8.977,68.839-39.896,68.839c-48.865,0-40.988-9.645-40.988-68.714l-26.836,3.184c0,0,2.855,76.124,2.775,90.524
									h-13.982l-2.166,13.444h15.984c-0.049,2.496-0.113,5.047-0.189,7.617h128.855
									C1152.703,702.566,1152.712,700.017,1152.746,697.517z"/>
							</g>
						</g>
						
							<rect id="rect304" x="505.529" y="723.216" fill="#C9BEAF" stroke="#70674B" stroke-miterlimit="10" width="776.4" height="359.171"/>
						
							<rect id="rect306" x="505.197" y="876.93" fill="#785C37" stroke="#000000" stroke-width="3" stroke-linecap="round" stroke-linejoin="round" stroke-miterlimit="10" width="783.429" height="13.157"/>
						
							<rect id="rect308" x="505.197" y="1031.125" fill="#785C37" stroke="#000000" stroke-width="3" stroke-linecap="round" stroke-linejoin="round" stroke-miterlimit="10" width="789.066" height="13.157"/>
						<g id="g310">
							
								<rect id="rect312" x="462.918" y="696.968" fill="#785C37" stroke="#000000" stroke-width="3" stroke-linecap="round" stroke-linejoin="round" stroke-miterlimit="10" width="856.429" height="26.316"/>
						</g>
						<g id="g314">
							
								<rect id="rect316" x="502.504" y="444.024" stroke="#000000" stroke-width="3" stroke-linecap="round" stroke-linejoin="round" stroke-miterlimit="10" width="252.207" height="8.46"/>
							
								<circle id="circle318" stroke="#000000" stroke-width="3" stroke-linecap="round" stroke-linejoin="round" stroke-miterlimit="10" cx="502.504" cy="448.254" r="11.01"/>
							
								<circle id="circle320" stroke="#000000" stroke-width="3" stroke-linecap="round" stroke-linejoin="round" stroke-miterlimit="10" cx="754.713" cy="448.254" r="11.009"/>
						</g>
						
							<path id="path322" fill="#58595B" stroke="#000000" stroke-width="3" stroke-linecap="round" stroke-linejoin="round" stroke-miterlimit="10" d="
							M596.42,520.993"/>
						
							<rect id="rect324" x="460.918" y="348.265" fill="#785C37" stroke="#000000" stroke-width="3" stroke-linecap="round" stroke-linejoin="round" stroke-miterlimit="10" width="858.429" height="13.156"/>
						
							<path id="path326" stroke="#000000" stroke-width="3" stroke-linecap="round" stroke-linejoin="round" stroke-miterlimit="10" d="
							M503.898,361.978c0,4.86-3.939,8.804-8.804,8.804c-4.86,0-8.803-3.941-8.803-8.804H503.898z"/>
						
							<path id="path328" stroke="#000000" stroke-width="3" stroke-linecap="round" stroke-linejoin="round" stroke-miterlimit="10" d="
							M897.316,361.978c0,4.86-3.941,8.804-8.804,8.804c-4.861,0-8.803-3.941-8.803-8.804H897.316z"/>
						
							<rect id="rect330" x="460.918" y="189.499" fill="#785C37" stroke="#000000" stroke-width="3" stroke-linecap="round" stroke-linejoin="round" stroke-miterlimit="10" width="858.429" height="13.157"/>
						
							<path id="path332" stroke="#000000" stroke-width="3" stroke-linecap="round" stroke-linejoin="round" stroke-miterlimit="10" d="
							M503.898,203.212c0,4.861-3.939,8.803-8.804,8.803c-4.86,0-8.803-3.94-8.803-8.803H503.898z"/>
						
							<path id="path334" stroke="#000000" stroke-width="3" stroke-linecap="round" stroke-linejoin="round" stroke-miterlimit="10" d="
							M1290.732,361.978c0,4.86-3.939,8.804-8.803,8.804c-4.861,0-8.803-3.941-8.803-8.804H1290.732z"/>
						
							<path id="path336" stroke="#000000" stroke-width="3" stroke-linecap="round" stroke-linejoin="round" stroke-miterlimit="10" d="
							M1290.732,203.212c0,4.861-3.939,8.803-8.803,8.803c-4.861,0-8.803-3.94-8.803-8.803H1290.732z"/>
						
							<path id="path338" stroke="#000000" stroke-width="3" stroke-linecap="round" stroke-linejoin="round" stroke-miterlimit="10" d="
							M897.316,203.212c0,4.861-3.941,8.803-8.804,8.803c-4.861,0-8.803-3.94-8.803-8.803H897.316z"/>
						
							<rect id="rect340" x="518.947" y="688.776" stroke="#000000" stroke-width="3" stroke-linecap="round" stroke-linejoin="round" stroke-miterlimit="10" width="295.205" height="16.475"/>
					</g>
				</g>
			</g>
		</g>
	</g>
</g>
<g id="AREA1" transform="translate(-29.502633,5.4808424)" inkscape:label="#AREA1">
	<circle id="circle372" fill="#FFFF00" cx="172.127" cy="169.109" r="7.857"/>
	<circle id="circle374" fill="#FFFF00" cx="1252.375" cy="179.109" r="7.857"/>
	<circle id="circle376" fill="#FFFF00" cx="362.625" cy="159.109" r="7.857"/>
	<circle id="circle378" fill="#FFFF00" cx="659.542" cy="160.775" r="7.857"/>
	<circle id="circle380" fill="#FFFF00" cx="264.791" cy="275.775" r="7.857"/>
	<circle id="circle382" fill="#FFFF00" cx="760.04" cy="279.108" r="7.857"/>
	<circle id="circle384" fill="#FFFF00" cx="526.957" cy="224.108" r="7.857"/>
	<circle id="circle386" fill="#FFFF00" cx="1002.205" cy="239.108" r="7.857"/>
	<circle id="circle388" fill="#FFFF00" cx="884.121" cy="169.109" r="7.857"/>
	<circle id="circle402" fill="#FFFF00" cx="1153.623" cy="273.109" r="7.857"/>
	<circle id="circle406" fill="#FFFF00" cx="1305.787" cy="339.775" r="7.857"/>
</g>
<g id="Objets" display="none">
</g>
<g id="spredaj" display="none">
	<g id="spredaj_1_" display="inline">
		
			<rect id="rect447" x="848.389" y="723.216" fill="#785C37" stroke="#000000" stroke-width="3" stroke-linecap="round" stroke-linejoin="round" stroke-miterlimit="10" width="26.316" height="389.172"/>
		
			<rect id="rect449" x="1072.08" y="723.216" fill="#785C37" stroke="#000000" stroke-width="3" stroke-linecap="round" stroke-linejoin="round" stroke-miterlimit="10" width="26.316" height="389.172"/>
		
			<rect id="rect451" x="479.214" y="723.216" fill="#785C37" stroke="#000000" stroke-width="3" stroke-linecap="round" stroke-linejoin="round" stroke-miterlimit="10" width="26.316" height="389.172"/>
		
			<rect id="rect453" x="1275.771" y="723.216" fill="#785C37" stroke="#000000" stroke-width="3" stroke-linecap="round" stroke-linejoin="round" stroke-miterlimit="10" width="26.316" height="389.172"/>
		<g id="g455">
			
				<line id="line457" fill="none" stroke="#000000" stroke-width="3" stroke-linecap="round" stroke-linejoin="round" stroke-miterlimit="10" x1="875.265" y1="858.244" x2="1071.755" y2="858.244"/>
			
				<line id="line459" fill="none" stroke="#000000" stroke-width="3" stroke-linecap="round" stroke-linejoin="round" stroke-miterlimit="10" x1="875.265" y1="834.436" x2="1071.755" y2="834.436"/>
			
				<line id="line461" fill="none" stroke="#000000" stroke-width="3" stroke-linecap="round" stroke-linejoin="round" stroke-miterlimit="10" x1="875.265" y1="810.627" x2="1071.755" y2="810.627"/>
			
				<line id="line463" fill="none" stroke="#000000" stroke-width="3" stroke-linecap="round" stroke-linejoin="round" stroke-miterlimit="10" x1="887.626" y1="810.626" x2="887.626" y2="876.149"/>
			
				<line id="line465" fill="none" stroke="#000000" stroke-width="3" stroke-linecap="round" stroke-linejoin="round" stroke-miterlimit="10" x1="909.093" y1="810.626" x2="909.093" y2="876.149"/>
			
				<line id="line467" fill="none" stroke="#000000" stroke-width="3" stroke-linecap="round" stroke-linejoin="round" stroke-miterlimit="10" x1="930.56" y1="810.626" x2="930.56" y2="876.149"/>
			
				<line id="line469" fill="none" stroke="#000000" stroke-width="3" stroke-linecap="round" stroke-linejoin="round" stroke-miterlimit="10" x1="952.026" y1="810.626" x2="952.026" y2="876.149"/>
			
				<line id="line471" fill="none" stroke="#000000" stroke-width="3" stroke-linecap="round" stroke-linejoin="round" stroke-miterlimit="10" x1="973.494" y1="810.626" x2="973.494" y2="876.149"/>
			
				<line id="line473" fill="none" stroke="#000000" stroke-width="3" stroke-linecap="round" stroke-linejoin="round" stroke-miterlimit="10" x1="994.96" y1="810.626" x2="994.96" y2="876.149"/>
			
				<line id="line475" fill="none" stroke="#000000" stroke-width="3" stroke-linecap="round" stroke-linejoin="round" stroke-miterlimit="10" x1="1016.427" y1="810.626" x2="1016.427" y2="876.149"/>
			
				<line id="line477" fill="none" stroke="#000000" stroke-width="3" stroke-linecap="round" stroke-linejoin="round" stroke-miterlimit="10" x1="1037.894" y1="810.626" x2="1037.894" y2="876.149"/>
			
				<line id="line479" fill="none" stroke="#000000" stroke-width="3" stroke-linecap="round" stroke-linejoin="round" stroke-miterlimit="10" x1="1059.361" y1="810.626" x2="1059.361" y2="876.149"/>
		</g>
		
			<rect id="rect481" x="874.973" y="983.988" opacity="0.5" fill="#68ABC8" stroke="#000000" stroke-width="3" stroke-linecap="round" stroke-linejoin="round" stroke-miterlimit="10" enable-background="new    " width="197.148" height="47.521"/>
	</g>
	
		<path id="path483" display="inline" fill="#93C01F" stroke="#000000" stroke-width="3.3766" stroke-linecap="round" stroke-linejoin="round" stroke-miterlimit="10" d="
		M294.437,828.748c-6.249-2.532-13.293-3.964-20.752-3.964c-6.45,0-12.581,1.083-18.165,3.009
		c-2.299-8.648-9.877-15.005-18.894-15.005c-7.616,0-14.213,4.531-17.466,11.147c-2.668-1.414-5.684-2.218-8.882-2.218
		c-10.839,0-19.625,9.173-19.625,20.488c0,0.967,0.087,1.911,0.211,2.843c-15.538,6.127-26.249,19.063-26.25,34.032
		c-0.001,28.768,29.117,36.521,52.229,35.739c11.487-0.39,21.368-5.252,32.901-6.884c9.692-1.369,17.903-1.247,27.268,1.534
		c7.795,2.315,13.529,4.265,18.04,4.243C294.979,887.695,294.791,859.233,294.437,828.748z"/>
</g>
<g id="AREA3" transform="translate(0.38884549,0.36212323)" inkscape:label="#AREA3">
	<circle id="circle348-3" fill="#2A39FF" cx="284.405" cy="595.109" r="7.857"/>
	<circle id="circle269" inkscape:label="#circle356" fill="#2A39FF" cx="124.177" cy="517.755" r="7.857">
	</circle>
	<circle id="circle380-6" fill="#2A39FF" cx="255.742" cy="417.65" r="7.857"/>
	<circle id="circle382-0" fill="#2A39FF" cx="730.991" cy="400.983" r="7.857"/>
	<circle id="circle384-7" fill="#2A39FF" cx="497.908" cy="345.983" r="7.857"/>
	<circle id="circle386-3" fill="#2A39FF" cx="893.158" cy="420.983" r="7.857"/>
	<circle id="circle390-6" fill="#2A39FF" cx="543.079" cy="456.65" r="7.857"/>
	<circle id="circle390-6_1_" fill="#2A39FF" cx="608.577" cy="743.89" r="7.857"/>
	<circle id="circle392-4" fill="#2A39FF" cx="434.994" cy="543.316" r="7.857"/>
	<circle id="circle394-2" fill="#2A39FF" cx="618.576" cy="584.983" r="7.857"/>
	<circle id="circle396-5" fill="#2A39FF" cx="775.493" cy="523.316" r="7.857"/>
	<circle id="circle400-4" fill="#2A39FF" cx="932.658" cy="569.983" r="7.857"/>
	<circle id="circle402-1" fill="#2A39FF" cx="1073.966" cy="464.507" r="7.857"/>
	<circle id="circle404-5" fill="#2A39FF" cx="1184.823" cy="524.983" r="7.857"/>
	<circle id="circle406-7" fill="#2A39FF" cx="1256.74" cy="661.65" r="7.857"/>
</g>
<g id="AREA2">
	<path id="path344-3-6" inkscape:connector-curvature="0" fill="#FF2A2A" d="M588.953,1029.411"/>
	<circle id="circle348-3-0" fill="#FF2A2A" cx="188.745" cy="979.569" r="7.857"/>
	<circle id="circle350-6-5" fill="#FF2A2A" cx="459.714" cy="1007.902" r="7.857"/>
	<circle id="circle326" inkscape:label="#circle356" fill="#FF2A2A" cx="108.517" cy="892.214" r="7.857">
	</circle>
	<circle id="circle376-8-9" fill="#FF2A2A" cx="334.583" cy="803.776" r="7.857"/>
	<circle id="circle378-2-9" fill="#FF2A2A" cx="769.833" cy="658.776" r="7.857"/>
	<circle id="circle380-6-1" fill="#FF2A2A" cx="200.083" cy="752.109" r="7.857"/>
	<circle id="circle382-0-5" fill="#FF2A2A" cx="735.331" cy="785.443" r="7.857"/>
	<circle id="circle384-7-1" fill="#FF2A2A" cx="442.248" cy="690.443" r="7.857"/>
	<circle id="circle386-3-2" fill="#FF2A2A" cx="917.497" cy="764.443" r="7.857"/>
	<circle id="circle386-3-2_1_" fill="#FF2A2A" cx="1066.5" cy="643.062" r="7.857"/>
	<circle id="circle390-6-9" fill="#FF2A2A" cx="487.418" cy="851.109" r="7.857"/>
	<circle id="circle392-4-0" fill="#FF2A2A" cx="334.334" cy="931.109" r="7.857"/>
	<circle id="circle394-2-3" fill="#FF2A2A" cx="592.916" cy="929.443" r="7.857"/>
	<circle id="circle396-5-9" fill="#FF2A2A" cx="749.833" cy="927.776" r="7.857"/>
	<circle id="circle398-7-3" fill="#FF2A2A" cx="860.082" cy="1009.443" r="7.857"/>
	<circle id="circle400-4-0" fill="#FF2A2A" cx="956.998" cy="894.443" r="7.857"/>
	<circle id="circle402-1-9" fill="#FF2A2A" cx="1108.914" cy="769.443" r="7.857"/>
	<circle id="circle404-5-0" fill="#FF2A2A" cx="1149.164" cy="929.443" r="7.857"/>
	<circle id="circle406-7-2" fill="#FF2A2A" cx="1261.08" cy="836.109" r="7.857"/>
	<circle id="circle410-9-7" fill="#FF2A2A" cx="1031.136" cy="1003.938" r="7.857"/>
</g>
</svg>
