<?xml version="1.0" encoding="utf-8"?>
<!-- Generator: Adobe Illustrator 16.0.0, SVG Export Plug-In . SVG Version: 6.00 Build 0)  -->
<!DOCTYPE svg PUBLIC "-//W3C//DTD SVG 1.1//EN" "http://www.w3.org/Graphics/SVG/1.1/DTD/svg11.dtd">
<svg version="1.1" xmlns="http://www.w3.org/2000/svg" xmlns:xlink="http://www.w3.org/1999/xlink" x="0px" y="0px"
	 width="220.002px" height="220px" viewBox="0 0 220.002 220" enable-background="new 0 0 220.002 220" xml:space="preserve">
<g id="bg">
	<g>
		<g>
			<rect fill="#A8D1F1" width="220.002" height="220"/>
		</g>
	</g>
	<line fill="none" stroke="#010202" stroke-width="6" stroke-miterlimit="10" x1="219.945" y1="122.74" x2="-0.055" y2="122.74"/>
	<g>
		<g>
			
				<line fill="none" stroke="#010202" stroke-width="6" stroke-miterlimit="10" x1="219.945" y1="102.973" x2="213.945" y2="102.973"/>
			
				<line fill="none" stroke="#010202" stroke-width="6" stroke-miterlimit="10" stroke-dasharray="12.2353,12.2353" x1="201.71" y1="102.973" x2="12.063" y2="102.973"/>
			<line fill="none" stroke="#010202" stroke-width="6" stroke-miterlimit="10" x1="5.945" y1="102.973" x2="-0.055" y2="102.973"/>
		</g>
	</g>
</g>
<g id="Layer_1">
	
		<path fill="#575756" stroke="#010202" stroke-width="2" stroke-linecap="round" stroke-linejoin="round" stroke-miterlimit="10" d="
		M97.438,192.391v53.256c-6.604,3.092-11.184,9.793-11.184,17.566s4.58,14.477,11.184,17.568v-4.486v-3.482v-5.996l8.209-4.74
		l8.211,4.74v5.996l0,0v7.969c6.604-3.092,11.182-9.795,11.182-17.568s-4.578-14.475-11.182-17.566v-53.256
		c6.604-3.092,11.182-9.793,11.182-17.568c0-7.773-4.578-14.477-11.182-17.568v4.064v3.482v5.998l-8.211,4.742l-8.209-4.742v-5.998
		l0,0v-7.547c-6.604,3.092-11.184,9.795-11.184,17.568C86.254,182.598,90.834,189.299,97.438,192.391z"/>
	
		<path fill="#575756" stroke="#010202" stroke-width="2" stroke-linecap="round" stroke-linejoin="round" stroke-miterlimit="10" d="
		M190.088,247.219v-89.965h-17.57v89.965c-7.064,3.311-11.963,10.479-11.963,18.797s4.898,15.488,11.963,18.793v-14.939l8.783-5.074
		l8.783,5.074l0.004,14.939c7.064-3.305,11.959-10.475,11.959-18.793S197.152,250.529,190.088,247.219z"/>
	
		<path fill="#575756" stroke="#010202" stroke-width="2" stroke-linecap="round" stroke-linejoin="round" stroke-miterlimit="10" d="
		M15.158,264.664c0,7.133,4.199,13.281,10.254,16.115v-4.113v-3.199v-5.5l7.533-4.352l7.537,4.352v5.5l0,0v7.313
		c6.059-2.834,10.256-8.982,10.256-16.115c0-7.137-4.197-13.283-10.256-16.119v-69.381c2.871-2.242,4.717-5.732,4.717-9.656
		c0-6.771-5.482-12.254-12.254-12.254c-6.762,0-12.25,5.482-12.25,12.254c0,3.924,1.85,7.414,4.717,9.658v69.379
		C19.357,251.381,15.158,257.527,15.158,264.664z M32.945,165.33c2.311,0,4.18,1.869,4.18,4.178c0,2.305-1.869,4.176-4.18,4.176
		c-2.305,0-4.176-1.871-4.176-4.176C28.77,167.199,30.641,165.33,32.945,165.33z"/>
	
		<path fill="#575756" stroke="#010202" stroke-width="2" stroke-linecap="round" stroke-linejoin="round" stroke-miterlimit="10" d="
		M97.438-27.617v53.256c-6.604,3.094-11.184,9.795-11.184,17.568s4.58,14.477,11.184,17.566v-4.486v-3.482v-5.994l8.209-4.742
		l8.211,4.742v5.994l0,0v7.969c6.604-3.09,11.182-9.793,11.182-17.566s-4.578-14.475-11.182-17.568v-53.256
		c6.604-3.09,11.182-9.791,11.182-17.566c0-7.773-4.578-14.477-11.182-17.57v4.066v3.482v5.998l-8.211,4.74l-8.209-4.74v-5.998l0,0
		v-7.549c-6.604,3.094-11.184,9.797-11.184,17.57C86.254-37.408,90.834-30.707,97.438-27.617z"/>
	
		<path fill="#575756" stroke="#010202" stroke-width="2" stroke-linecap="round" stroke-linejoin="round" stroke-miterlimit="10" d="
		M190.088,27.211v-89.965h-17.57v89.965c-7.064,3.313-11.963,10.479-11.963,18.799c0,8.316,4.898,15.486,11.963,18.793V49.861
		l8.783-5.072l8.783,5.072l0.004,14.941c7.064-3.307,11.959-10.477,11.959-18.793C202.047,37.689,197.152,30.523,190.088,27.211z"/>
	
		<path fill="#575756" stroke="#010202" stroke-width="2" stroke-linecap="round" stroke-linejoin="round" stroke-miterlimit="10" d="
		M15.158,44.656c0,7.133,4.199,13.281,10.254,16.117V56.66v-3.201v-5.5l7.533-4.35l7.537,4.35v5.5l0,0v7.314
		c6.059-2.836,10.256-8.984,10.256-16.117c0-7.137-4.197-13.281-10.256-16.117v-69.381c2.871-2.244,4.717-5.732,4.717-9.658
		c0-6.77-5.482-12.254-12.254-12.254c-6.762,0-12.25,5.484-12.25,12.254c0,3.926,1.85,7.414,4.717,9.66v69.379
		C19.357,31.375,15.158,37.52,15.158,44.656z M32.945-54.678c2.311,0,4.18,1.869,4.18,4.178c0,2.307-1.869,4.176-4.18,4.176
		c-2.305,0-4.176-1.869-4.176-4.176C28.77-52.809,30.641-54.678,32.945-54.678z"/>
</g>
</svg>
