<?xml version="1.0" encoding="utf-8"?>
<!-- Generator: Adobe Illustrator 16.0.0, SVG Export Plug-In . SVG Version: 6.00 Build 0)  -->
<!DOCTYPE svg PUBLIC "-//W3C//DTD SVG 1.1//EN" "http://www.w3.org/Graphics/SVG/1.1/DTD/svg11.dtd">
<svg version="1.1" xmlns="http://www.w3.org/2000/svg" xmlns:xlink="http://www.w3.org/1999/xlink" x="0px" y="0px"
	 width="220.001px" height="220px" viewBox="0 0 220.001 220" enable-background="new 0 0 220.001 220" xml:space="preserve">
<g id="bg">
	<g>
		<g>
			<rect fill="#C3E2D6" width="220.001" height="220"/>
		</g>
	</g>
	<line fill="none" stroke="#010202" stroke-width="6" stroke-miterlimit="10" x1="0.056" y1="97.26" x2="220.056" y2="97.26"/>
	<g>
		<g>
			<line fill="none" stroke="#010202" stroke-width="6" stroke-miterlimit="10" x1="0.056" y1="117.026" x2="6.056" y2="117.026"/>
			
				<line fill="none" stroke="#010202" stroke-width="6" stroke-miterlimit="10" stroke-dasharray="12.2353,12.2353" x1="18.291" y1="117.026" x2="207.938" y2="117.026"/>
			
				<line fill="none" stroke="#010202" stroke-width="6" stroke-miterlimit="10" x1="214.056" y1="117.026" x2="220.056" y2="117.026"/>
		</g>
	</g>
</g>
<g id="Layer_1">
	
		<path fill="#A6A8AB" stroke="#010202" stroke-width="2" stroke-linecap="round" stroke-linejoin="round" stroke-miterlimit="10" d="
		M122.563,27.609v-53.256c6.604-3.093,11.184-9.794,11.184-17.567s-4.58-14.477-11.184-17.567v4.486v3.482v5.995l-8.209,4.741
		l-8.211-4.741v-5.995l0,0v-7.969c-6.604,3.091-11.182,9.794-11.182,17.567s4.578,14.475,11.182,17.567v53.256
		C99.54,30.7,94.962,37.401,94.962,45.177c0,7.773,4.578,14.477,11.182,17.569v-4.065v-3.482V49.2l8.211-4.741l8.209,4.741v5.998
		l0,0v7.548c6.604-3.093,11.184-9.796,11.184-17.569C133.747,37.401,129.167,30.7,122.563,27.609z"/>
	
		<path fill="#A6A8AB" stroke="#010202" stroke-width="2" stroke-linecap="round" stroke-linejoin="round" stroke-miterlimit="10" d="
		M29.913-27.219v89.965h17.571v-89.965c7.063-3.312,11.962-10.479,11.962-18.798c0-8.317-4.898-15.487-11.962-18.793v14.94
		l-8.783,5.073l-8.784-5.073l-0.004-14.94c-7.063,3.306-11.958,10.476-11.958,18.793C17.955-37.697,22.85-30.53,29.913-27.219z"/>
	
		<path fill="#A6A8AB" stroke="#010202" stroke-width="2" stroke-linecap="round" stroke-linejoin="round" stroke-miterlimit="10" d="
		M204.844-44.664c0-7.133-4.199-13.281-10.254-16.116v4.113v3.2v5.5l-7.533,4.351l-7.538-4.351v-5.5l0,0v-7.313
		c-6.059,2.835-10.256,8.983-10.256,16.116c0,7.137,4.197,13.282,10.256,16.118v69.381c-2.87,2.243-4.716,5.732-4.716,9.657
		c0,6.771,5.482,12.254,12.254,12.254c6.762,0,12.25-5.483,12.25-12.254c0-3.925-1.85-7.414-4.717-9.659v-69.379
		C200.645-31.382,204.844-37.527,204.844-44.664z M187.057,54.67c-2.311,0-4.18-1.869-4.18-4.178c0-2.306,1.869-4.176,4.18-4.176
		c2.305,0,4.176,1.87,4.176,4.176C191.232,52.801,189.361,54.67,187.057,54.67z"/>
	
		<path fill="#A6A8AB" stroke="#010202" stroke-width="2" stroke-linecap="round" stroke-linejoin="round" stroke-miterlimit="10" d="
		M122.563,247.616V194.36c6.604-3.093,11.184-9.794,11.184-17.567s-4.58-14.477-11.184-17.567v4.486v3.482v5.995l-8.209,4.741
		l-8.211-4.741v-5.995l0,0v-7.969c-6.604,3.091-11.182,9.794-11.182,17.567s4.578,14.475,11.182,17.567v53.256
		c-6.604,3.091-11.182,9.792-11.182,17.567c0,7.773,4.578,14.477,11.182,17.569v-4.065v-3.482v-5.998l8.211-4.741l8.209,4.741v5.998
		l0,0v7.548c6.604-3.093,11.184-9.796,11.184-17.569C133.747,257.408,129.167,250.707,122.563,247.616z"/>
	
		<path fill="#A6A8AB" stroke="#010202" stroke-width="2" stroke-linecap="round" stroke-linejoin="round" stroke-miterlimit="10" d="
		M29.913,192.788v89.965h17.571v-89.965c7.063-3.312,11.962-10.479,11.962-18.798c0-8.317-4.898-15.487-11.962-18.793v14.94
		l-8.783,5.073l-8.784-5.073l-0.004-14.94c-7.063,3.306-11.958,10.476-11.958,18.793C17.955,182.31,22.85,189.477,29.913,192.788z"
		/>
	
		<path fill="#A6A8AB" stroke="#010202" stroke-width="2" stroke-linecap="round" stroke-linejoin="round" stroke-miterlimit="10" d="
		M204.844,175.343c0-7.133-4.199-13.281-10.254-16.116v4.113v3.2v5.5l-7.533,4.351l-7.538-4.351v-5.5l0,0v-7.313
		c-6.059,2.835-10.256,8.983-10.256,16.116c0,7.137,4.197,13.282,10.256,16.118v69.381c-2.87,2.243-4.716,5.732-4.716,9.657
		c0,6.771,5.482,12.254,12.254,12.254c6.762,0,12.25-5.483,12.25-12.254c0-3.925-1.85-7.414-4.717-9.659v-69.379
		C200.645,188.625,204.844,182.479,204.844,175.343z M187.057,274.677c-2.311,0-4.18-1.869-4.18-4.178
		c0-2.306,1.869-4.176,4.18-4.176c2.305,0,4.176,1.87,4.176,4.176C191.232,272.808,189.361,274.677,187.057,274.677z"/>
</g>
</svg>
