<?xml version="1.0" encoding="utf-8"?>
<!-- Generator: Adobe Illustrator 16.0.0, SVG Export Plug-In . SVG Version: 6.00 Build 0)  -->
<!DOCTYPE svg PUBLIC "-//W3C//DTD SVG 1.1//EN" "http://www.w3.org/Graphics/SVG/1.1/DTD/svg11.dtd">
<svg version="1.1" xmlns="http://www.w3.org/2000/svg" xmlns:xlink="http://www.w3.org/1999/xlink" x="0px" y="0px"
	 width="453.543px" height="453.543px" viewBox="0 0 453.543 453.543" enable-background="new 0 0 453.543 453.543"
	 xml:space="preserve">
<g id="kvadrat">
</g>
<g id="bg" display="none">
	<rect x="-832.959" y="-11970.294" display="inline" width="15266.867" height="13678.951"/>
</g>
<g id="barvno" display="none">
	<g id="rde훾a7bela" display="inline">
	</g>
	<g display="inline">
		<g>
			
				<path fill="#57B2E5" stroke="#000000" stroke-width="8" stroke-linecap="round" stroke-linejoin="round" stroke-miterlimit="10" d="
				M213.961,318.167c-22.238,0-34.982-14.571-34.982-39.98c0-2.766,2.236-5,4.995-5c2.757,0,72.198,19.988,74.966,19.988
				c2.756,0,4.994,2.238,4.994,5C263.934,318.167,239.659,318.167,213.961,318.167z"/>
			
				<path fill="#57B2E5" stroke="#000000" stroke-width="8" stroke-linecap="round" stroke-linejoin="round" stroke-miterlimit="10" d="
				M283.186,147.325c-7.76-11.948-34.583-11.948-62.732-11.948c-26.616,0-49.967,21.018-49.967,44.979v0.003c0,2.757,9.99,0,9.99,0
				v-0.003h105.892C286.368,180.356,284.639,149.563,283.186,147.325z"/>
			
				<path fill="#57B2E5" stroke="#000000" stroke-width="8" stroke-linecap="round" stroke-linejoin="round" stroke-miterlimit="10" d="
				M374.514,227.876c0-28.977-49.297-79.632-95.584-79.632c-64.568,0-127.898,44.792-151.73,61.649
				c-0.977,0.688-1.863,1.333-2.696,1.905c-6.05-5.566-17.101-14.959-23.25-18.044c-3.447-1.722-6.728-2.598-9.732-2.598
				c-8.119,0-12.494,6.219-12.494,12.063c0,0,15,14.286,15,29.992c0,15.704-15,29.991-15,29.991c0,5.844,4.375,12.064,12.494,12.064
				c3.004,0,6.285-0.877,9.732-2.607c6.188-3.091,17.348-12.596,23.37-18.154c15.695,9.669,83.394,48.669,154.307,48.669
				C331.852,303.176,374.514,256.854,374.514,227.876z"/>
			<path fill="none" stroke="#000000" stroke-width="8" stroke-linecap="round" stroke-linejoin="round" stroke-miterlimit="10" d="
				M298.27,183.23c0,0-40.031,46.987,0,89.956"/>
			<path d="M338.836,218.281c0,5.481-4.446,9.931-9.932,9.931c-5.484,0-9.931-4.449-9.931-9.931c0-5.484,4.446-9.931,9.931-9.931
				C334.39,208.351,338.836,212.797,338.836,218.281z"/>
		</g>
	</g>
	
		<rect x="-1343.244" y="-12390.303" display="inline" fill="none" stroke="#000000" stroke-miterlimit="10" width="16736" height="13952"/>
</g>
<g id="barvno_copy_2">
	<g id="rde훾a7bela_copy_4">
	</g>
	<g>
		<g>
			<g>
				<path fill="#00FFFF" d="M213.961,318.167c-22.238,0-34.982-14.571-34.982-39.98c0-2.766,2.236-5,4.995-5
					c2.757,0,72.198,19.988,74.966,19.988c2.756,0,4.994,2.238,4.994,5C263.934,318.167,239.659,318.167,213.961,318.167z"/>
				<path d="M213.961,322.167c-24.41,0-38.982-16.441-38.982-43.98c0-4.963,4.035-9,8.995-9c1.615,0,7.73,1.608,38.491,10.124
					c15.197,4.207,34.06,9.429,36.708,9.867c4.852,0.124,8.761,4.112,8.761,8.997c0,10.899-6.16,18.084-18.31,21.355
					C239.832,322.167,227.266,322.167,213.961,322.167z M183.823,277.198c-0.478,0.073-0.844,0.488-0.844,0.988
					c0,23.202,11.003,35.98,30.982,35.98c28.604,0,45.973-1.076,45.973-15.992c0-0.552-0.446-1-0.994-1
					c-1.623,0-7.757-1.613-38.609-10.154C205.333,282.869,186.755,277.726,183.823,277.198z"/>
			</g>
			<g>
				<path fill="#00FFFF" d="M283.186,147.325c-7.76-11.948-34.583-11.948-62.732-11.948c-26.616,0-49.967,21.018-49.967,44.979
					v0.003c0,2.757,9.99,0,9.99,0v-0.003h105.892C286.368,180.356,284.639,149.563,283.186,147.325z"/>
				<path d="M173.076,185.585c-6.405,0-6.59-4.69-6.59-5.226c0-26.095,25.218-48.982,53.967-48.982c29.387,0,57.145,0,66.087,13.77
					c0.608,0.938,2.033,3.131,3.822,34.985c0.062,1.099-0.332,2.174-1.087,2.973s-1.807,1.252-2.907,1.252h-105.36
					C179.607,184.717,175.936,185.585,173.076,185.585z M220.453,139.377c-23.403,0-44.06,17.491-45.842,38.098
					c1.735-0.214,3.733-0.686,4.657-0.932c0.381-0.121,0.788-0.187,1.209-0.187h101.648c-0.749-12.129-1.795-24.509-2.496-27.151
					C272.723,139.376,246.155,139.377,220.453,139.377z"/>
			</g>
			<g>
				<path fill="#00FFFF" d="M374.514,227.876c0-28.977-49.297-79.632-95.584-79.632c-64.568,0-127.898,44.792-151.73,61.649
					c-0.977,0.688-1.863,1.333-2.696,1.905c-6.05-5.566-17.101-14.959-23.25-18.044c-3.447-1.722-6.728-2.598-9.732-2.598
					c-8.119,0-12.494,6.219-12.494,12.063c0,0,15,14.286,15,29.992c0,15.704-15,29.991-15,29.991
					c0,5.844,4.375,12.064,12.494,12.064c3.004,0,6.285-0.877,9.732-2.607c6.188-3.091,17.348-12.596,23.37-18.154
					c15.695,9.669,83.394,48.669,154.307,48.669C331.852,303.176,374.514,256.854,374.514,227.876z"/>
				<path d="M278.93,307.176c-67.985,0-132.11-34.647-153.83-47.697c-6.231,5.58-16.068,13.769-22.059,16.761
					c-4.001,2.009-7.879,3.029-11.52,3.029c-10.713,0-16.494-8.276-16.494-16.064c0-1.095,0.449-2.142,1.241-2.896
					c0.134-0.128,13.759-13.329,13.759-27.095c0-13.767-13.625-26.968-13.762-27.099c-0.789-0.755-1.238-1.803-1.238-2.894
					c0-7.787,5.781-16.063,16.494-16.063c3.633,0,7.509,1.016,11.52,3.02c6.584,3.304,16.992,12.254,21.768,16.508l0.085-0.061
					c24.116-17.058,88.189-62.38,154.035-62.38c21.92,0,46.641,10.926,67.824,29.976c19.59,17.616,31.76,38.177,31.76,53.656
					C378.514,259.191,333.9,307.176,278.93,307.176z M124.624,250.507c0.723,0,1.449,0.195,2.097,0.595
					c13.031,8.027,81.614,48.074,152.208,48.074c49.671,0,91.584-43.795,91.584-71.3c0-26.449-47.076-75.632-91.584-75.632
					c-63.303,0-125.867,44.255-149.42,60.915l-1.048,0.744c-0.592,0.422-1.153,0.821-1.692,1.191
					c-1.538,1.057-3.602,0.912-4.975-0.353c-7.146-6.574-17.183-14.827-22.335-17.412c-2.885-1.44-5.558-2.173-7.938-2.173
					c-5.331,0-7.757,3.529-8.347,6.578c3.953,4.195,14.853,17.071,14.853,31.478c0,14.404-10.9,27.281-14.853,31.477
					c0.589,3.05,3.016,6.579,8.347,6.579c2.383,0,5.053-0.734,7.938-2.183c5.202-2.599,15.283-10.901,22.451-17.519
					C122.669,250.867,123.643,250.507,124.624,250.507z"/>
			</g>
			<path d="M298.271,277.187c-1.071,0-2.14-0.428-2.928-1.273c-21.961-23.572-20.781-48.325-15.924-64.94
				c5.184-17.734,15.375-29.83,15.806-30.336c1.433-1.682,3.957-1.884,5.639-0.451c1.681,1.432,1.883,3.955,0.453,5.637
				c-0.144,0.17-9.645,11.527-14.292,27.647c-6.104,21.17-1.335,40.344,14.172,56.99c1.506,1.616,1.416,4.147-0.2,5.653
				C300.226,276.831,299.247,277.187,298.271,277.187z"/>
			<path d="M338.836,218.281c0,5.481-4.446,9.931-9.932,9.931c-5.484,0-9.931-4.449-9.931-9.931c0-5.484,4.446-9.931,9.931-9.931
				C334.39,208.351,338.836,212.797,338.836,218.281z"/>
		</g>
	</g>
	<rect x="-1343.244" y="-12390.303" fill="none" stroke="#000000" stroke-miterlimit="10" width="16736" height="13952"/>
</g>
<g id="sivinsko" display="none">
	<g id="rde훾a7bela_copy_3" display="inline">
	</g>
	<g display="inline">
		<g>
			<g>
				<path fill="#9C9C9C" d="M213.961,318.167c-22.238,0-34.982-14.571-34.982-39.98c0-2.766,2.236-5,4.995-5
					c2.757,0,72.198,19.988,74.966,19.988c2.756,0,4.994,2.238,4.994,5C263.934,318.167,239.659,318.167,213.961,318.167z"/>
				<path d="M213.961,322.167c-24.41,0-38.982-16.441-38.982-43.98c0-4.963,4.035-9,8.995-9c1.615,0,7.73,1.608,38.491,10.124
					c15.197,4.207,34.06,9.43,36.708,9.867c4.852,0.124,8.761,4.112,8.761,8.997c0,10.899-6.16,18.084-18.31,21.356
					C239.832,322.167,227.266,322.167,213.961,322.167z M183.823,277.199c-0.478,0.072-0.844,0.487-0.844,0.987
					c0,23.202,11.003,35.98,30.982,35.98c28.604,0,45.973-1.076,45.973-15.992c0-0.552-0.446-1-0.994-1
					c-1.623,0-7.757-1.613-38.609-10.154C205.333,282.869,186.755,277.726,183.823,277.199z"/>
			</g>
			<g>
				<path fill="#9C9C9C" d="M283.186,147.325c-7.76-11.948-34.583-11.948-62.732-11.948c-26.616,0-49.967,21.018-49.967,44.979
					v0.003c0,2.757,9.99,0,9.99,0v-0.003h105.892C286.368,180.356,284.639,149.563,283.186,147.325z"/>
				<path d="M173.076,185.585c-6.405,0-6.59-4.69-6.59-5.226c0-26.095,25.218-48.982,53.967-48.982c29.387,0,57.145,0,66.087,13.77
					c0.608,0.938,2.033,3.131,3.822,34.985c0.062,1.099-0.332,2.174-1.087,2.973c-0.755,0.799-1.807,1.252-2.906,1.252h-105.36
					C179.607,184.717,175.936,185.585,173.076,185.585z M220.453,139.377c-23.403,0-44.06,17.491-45.843,38.098
					c1.736-0.214,3.734-0.686,4.657-0.932c0.381-0.121,0.788-0.187,1.209-0.187h101.648c-0.749-12.129-1.795-24.509-2.497-27.151
					C272.723,139.376,246.155,139.377,220.453,139.377z"/>
			</g>
			<g>
				<path fill="#9C9C9C" d="M374.514,227.876c0-28.977-49.297-79.632-95.584-79.632c-64.568,0-127.898,44.792-151.73,61.649
					c-0.977,0.688-1.863,1.333-2.696,1.905c-6.05-5.566-17.101-14.959-23.25-18.044c-3.447-1.722-6.728-2.598-9.732-2.598
					c-8.119,0-12.494,6.219-12.494,12.063c0,0,15,14.286,15,29.992c0,15.704-15,29.991-15,29.991
					c0,5.844,4.375,12.064,12.494,12.064c3.004,0,6.285-0.877,9.732-2.607c6.188-3.091,17.348-12.596,23.37-18.154
					c15.695,9.669,83.394,48.669,154.307,48.669C331.852,303.176,374.514,256.854,374.514,227.876z"/>
				<path d="M278.93,307.176c-67.985,0-132.11-34.647-153.83-47.697c-6.231,5.58-16.068,13.769-22.059,16.762
					c-4.001,2.008-7.879,3.028-11.52,3.028c-10.713,0-16.494-8.276-16.494-16.064c0-1.095,0.449-2.142,1.241-2.896
					c0.134-0.128,13.759-13.329,13.759-27.095s-13.625-26.968-13.762-27.098c-0.789-0.756-1.238-1.804-1.238-2.895
					c0-7.787,5.781-16.063,16.494-16.063c3.633,0,7.509,1.016,11.52,3.02c6.584,3.304,16.992,12.254,21.768,16.508l0.085-0.061
					c24.116-17.058,88.189-62.38,154.035-62.38c21.92,0,46.641,10.926,67.824,29.976c19.591,17.616,31.76,38.177,31.76,53.656
					C378.514,259.191,333.9,307.176,278.93,307.176z M124.624,250.507c0.723,0,1.449,0.195,2.097,0.595
					c13.031,8.027,81.614,48.074,152.208,48.074c49.671,0,91.584-43.795,91.584-71.3c0-26.449-47.076-75.632-91.584-75.632
					c-63.303,0-125.867,44.255-149.42,60.915l-1.048,0.744c-0.592,0.422-1.153,0.821-1.692,1.191
					c-1.538,1.057-3.602,0.912-4.975-0.353c-7.146-6.574-17.184-14.827-22.335-17.412c-2.885-1.44-5.558-2.173-7.938-2.173
					c-5.331,0-7.757,3.529-8.347,6.578c3.953,4.195,14.853,17.071,14.853,31.478c0,14.404-10.9,27.281-14.853,31.477
					c0.589,3.051,3.016,6.579,8.347,6.579c2.383,0,5.053-0.734,7.938-2.183c5.202-2.599,15.283-10.901,22.451-17.519
					C122.669,250.867,123.643,250.507,124.624,250.507z"/>
			</g>
			<path d="M298.271,277.187c-1.071,0-2.14-0.428-2.928-1.273c-21.961-23.572-20.781-48.325-15.924-64.94
				c5.184-17.734,15.375-29.83,15.806-30.336c1.433-1.682,3.957-1.884,5.639-0.451c1.681,1.432,1.883,3.955,0.453,5.637
				c-0.144,0.17-9.645,11.527-14.292,27.647c-6.104,21.17-1.335,40.344,14.172,56.99c1.506,1.616,1.416,4.147-0.2,5.653
				C300.226,276.831,299.247,277.187,298.271,277.187z"/>
			<path d="M338.836,218.281c0,5.481-4.446,9.931-9.932,9.931c-5.484,0-9.931-4.449-9.931-9.931c0-5.484,4.446-9.931,9.931-9.931
				C334.39,208.351,338.836,212.797,338.836,218.281z"/>
		</g>
	</g>
	<path display="inline" d="M15393.256,1562.197h-16737v-13953h16737V1562.197z M-1343.244,1561.197h16736l-0.5-13951h-16735.5
		l0.5,13951H-1343.244z"/>
</g>
<g id="linijsko" display="none">
	<g id="rde훾a7bela_copy" display="inline">
	</g>
	<g display="inline">
		<path fill="none" stroke="#000000" stroke-width="8" stroke-linecap="round" stroke-linejoin="round" stroke-miterlimit="10" d="
			M179.071,281.669c1.129,23.249,13.691,36.498,34.89,36.498c23.648,0,46.076-0.013,49.505-15.593"/>
		<path fill="none" stroke="#000000" stroke-width="8" stroke-linecap="round" stroke-linejoin="round" stroke-miterlimit="10" d="
			M171.449,181.395c-0.594-0.182-0.963-0.507-0.963-1.035v-0.003c0-23.962,23.351-44.979,49.967-44.979
			c28.149,0,54.973,0,62.732,11.948c0.117,0.181,0.237,0.565,0.356,1.087"/>
		<path fill="none" stroke="#000000" stroke-width="8" stroke-linecap="round" stroke-linejoin="round" stroke-miterlimit="10" d="
			M179.071,281.669c24.073,9.671,53.58,18.563,84.395,20.905"/>
		<path fill="none" stroke="#000000" stroke-width="8" stroke-linecap="round" stroke-linejoin="round" stroke-miterlimit="10" d="
			M171.449,181.395c-19.323,10.87-34.856,21.854-44.25,28.499c-0.977,0.688-1.863,1.333-2.696,1.905
			c-6.05-5.566-17.101-14.959-23.25-18.044c-3.447-1.722-6.728-2.598-9.732-2.598c-8.119,0-12.494,6.219-12.494,12.063
			c0,0,15,14.286,15,29.992c0,15.704-15,29.991-15,29.991c0,5.844,4.375,12.064,12.494,12.064c3.004,0,6.285-0.877,9.732-2.607
			c6.188-3.091,17.348-12.596,23.37-18.154c7.658,4.718,27.698,16.417,54.448,27.162"/>
		<path fill="none" stroke="#000000" stroke-width="8" stroke-linecap="round" stroke-linejoin="round" stroke-miterlimit="10" d="
			M283.542,148.412c44.89,3.172,90.972,51.448,90.972,79.464c0,28.979-42.662,75.3-95.584,75.3c-5.179,0-10.339-0.213-15.464-0.602"
			/>
		<path fill="none" stroke="#000000" stroke-width="8" stroke-linecap="round" stroke-linejoin="round" stroke-miterlimit="10" d="
			M171.449,181.395c29.701-16.709,68.362-33.15,107.48-33.15c1.535,0,3.073,0.06,4.612,0.168"/>
		<path fill="none" stroke="#000000" stroke-width="8" stroke-linecap="round" stroke-linejoin="round" stroke-miterlimit="10" d="
			M298.27,183.23c0,0-40.031,46.987,0,89.956"/>
		<path d="M318.974,218.281c0,5.481,4.446,9.931,9.931,9.931c5.485,0,9.932-4.449,9.932-9.931c0-5.484-4.446-9.931-9.932-9.931
			C323.42,208.351,318.974,212.797,318.974,218.281z"/>
	</g>
</g>
<g id="pivot">
	<circle fill="none" cx="223.748" cy="320.68" r="14.132"/>
</g>
</svg>
