<?xml version="1.0" encoding="utf-8"?>
<!-- Generator: Adobe Illustrator 16.0.0, SVG Export Plug-In . SVG Version: 6.00 Build 0)  -->
<!DOCTYPE svg PUBLIC "-//W3C//DTD SVG 1.1//EN" "http://www.w3.org/Graphics/SVG/1.1/DTD/svg11.dtd">
<svg version="1.1" xmlns="http://www.w3.org/2000/svg" xmlns:xlink="http://www.w3.org/1999/xlink" x="0px" y="0px" width="220px"
	 height="220px" viewBox="0 0 220 220" enable-background="new 0 0 220 220" xml:space="preserve">
<g id="bg" display="none">
</g>
<g id="Layer_3">
</g>
<g id="Layer_1">
	<g>
		<defs>
			<rect id="SVGID_29_" x="-3090.076" y="-2400" width="220" height="220"/>
		</defs>
		<clipPath id="SVGID_2_">
			<use xlink:href="#SVGID_29_"  overflow="visible"/>
		</clipPath>
	</g>
	<g>
		<defs>
			<rect id="SVGID_31_" x="-1890.076" y="-2400" width="220" height="220"/>
		</defs>
		<clipPath id="SVGID_4_">
			<use xlink:href="#SVGID_31_"  overflow="visible"/>
		</clipPath>
	</g>
	<g>
		<defs>
			<rect id="SVGID_33_" x="-1290.076" y="-2400" width="220" height="220"/>
		</defs>
		<clipPath id="SVGID_6_">
			<use xlink:href="#SVGID_33_"  overflow="visible"/>
		</clipPath>
	</g>
	<g>
		<defs>
			<rect id="SVGID_35_" x="-1590.076" y="-2400" width="220" height="220"/>
		</defs>
		<clipPath id="SVGID_8_">
			<use xlink:href="#SVGID_35_"  overflow="visible"/>
		</clipPath>
	</g>
	<g>
		<defs>
			<rect id="SVGID_37_" x="-2790.076" y="-2400" width="220" height="220"/>
		</defs>
		<clipPath id="SVGID_10_">
			<use xlink:href="#SVGID_37_"  overflow="visible"/>
		</clipPath>
	</g>
	<g>
		<defs>
			<rect id="SVGID_39_" x="-2190.076" y="-2400" width="220" height="220"/>
		</defs>
		<clipPath id="SVGID_12_">
			<use xlink:href="#SVGID_39_"  overflow="visible"/>
		</clipPath>
	</g>
	<g>
		<rect fill="#E3E3E3" width="220" height="220"/>
		
			<polygon fill="#6B6B6B" stroke="#000000" stroke-width="2.5206" stroke-linecap="round" stroke-linejoin="round" stroke-miterlimit="10" points="
			104,198.093 60.214,202.156 16.428,206.218 34.805,166.266 53.18,126.316 78.589,162.206 		"/>
		<g>
			
				<path fill="#D6D6D6" stroke="#000000" stroke-width="2.7864" stroke-linecap="round" stroke-linejoin="round" stroke-miterlimit="10" d="
				M126.193,169.031c0,20.538,16.65,37.187,37.19,37.187c20.541,0,37.191-16.649,37.191-37.187c0-20.541-16.65-37.191-37.191-37.191
				C142.843,131.839,126.193,148.49,126.193,169.031z"/>
		</g>
		
			<rect x="52.764" y="13.413" transform="matrix(0.6823 -0.7311 0.7311 0.6823 -32.0356 80.6385)" fill="#9E9E9E" stroke="#000000" stroke-width="2.7864" stroke-miterlimit="10" width="48.005" height="127.534"/>
		
			<rect x="140.06" y="20.314" fill="#969696" stroke="#000000" stroke-width="2.7864" stroke-linecap="round" stroke-linejoin="round" stroke-miterlimit="10" width="60.664" height="60.664"/>
	</g>
</g>
</svg>
