<?xml version="1.0" encoding="utf-8"?>
<!-- Generator: Adobe Illustrator 16.0.0, SVG Export Plug-In . SVG Version: 6.00 Build 0)  -->
<!DOCTYPE svg PUBLIC "-//W3C//DTD SVG 1.1//EN" "http://www.w3.org/Graphics/SVG/1.1/DTD/svg11.dtd">
<svg version="1.1" xmlns="http://www.w3.org/2000/svg" xmlns:xlink="http://www.w3.org/1999/xlink" x="0px" y="0px" width="220px"
	 height="220px" viewBox="0 0 220 220" enable-background="new 0 0 220 220" xml:space="preserve">
<g id="bg" display="none">
</g>
<g id="Layer_3">
</g>
<g id="Layer_1">
	<g>
		<defs>
			<rect id="SVGID_29_" x="-3990.076" y="-2400" width="220" height="220"/>
		</defs>
		<clipPath id="SVGID_2_">
			<use xlink:href="#SVGID_29_"  overflow="visible"/>
		</clipPath>
	</g>
	<g>
		<defs>
			<rect id="SVGID_31_" x="-2790.076" y="-2400" width="220" height="220"/>
		</defs>
		<clipPath id="SVGID_4_">
			<use xlink:href="#SVGID_31_"  overflow="visible"/>
		</clipPath>
	</g>
	<g>
		<defs>
			<rect id="SVGID_33_" x="-2190.076" y="-2400" width="220" height="220"/>
		</defs>
		<clipPath id="SVGID_6_">
			<use xlink:href="#SVGID_33_"  overflow="visible"/>
		</clipPath>
	</g>
	<g>
		<defs>
			<rect id="SVGID_35_" x="-2490.076" y="-2400" width="220" height="220"/>
		</defs>
		<clipPath id="SVGID_8_">
			<use xlink:href="#SVGID_35_"  overflow="visible"/>
		</clipPath>
	</g>
	<g>
		<defs>
			<rect id="SVGID_37_" x="-3690.076" y="-2400" width="220" height="220"/>
		</defs>
		<clipPath id="SVGID_10_">
			<use xlink:href="#SVGID_37_"  overflow="visible"/>
		</clipPath>
	</g>
	<g>
		<defs>
			<rect id="SVGID_39_" x="-3090.076" y="-2400" width="220" height="220"/>
		</defs>
		<clipPath id="SVGID_12_">
			<use xlink:href="#SVGID_39_"  overflow="visible"/>
		</clipPath>
	</g>
	<g>
		<defs>
			<rect id="SVGID_411_" x="-600" y="-2400" width="220" height="220"/>
		</defs>
		<clipPath id="SVGID_14_">
			<use xlink:href="#SVGID_411_"  overflow="visible"/>
		</clipPath>
	</g>
	<g>
		<defs>
			<rect id="SVGID_419_" x="-300" y="-2400" width="220" height="220"/>
		</defs>
		<clipPath id="SVGID_16_">
			<use xlink:href="#SVGID_419_"  overflow="visible"/>
		</clipPath>
	</g>
	<g>
		<rect x="0" fill="#E3E3E3" width="220" height="220"/>
		
			<polygon fill="#6B6B6B" stroke="#000000" stroke-width="2.5206" stroke-linecap="round" stroke-linejoin="round" stroke-miterlimit="10" points="
			198.092,116 202.154,159.786 206.217,203.571 166.265,185.195 126.316,166.821 162.205,141.411 		"/>
		<g>
			
				<path fill="#D6D6D6" stroke="#000000" stroke-width="2.7864" stroke-linecap="round" stroke-linejoin="round" stroke-miterlimit="10" d="
				M169.03,93.807c20.538,0,37.188-16.65,37.188-37.19c0-20.541-16.649-37.191-37.188-37.191c-20.542,0-37.191,16.65-37.191,37.191
				C131.838,77.157,148.488,93.807,169.03,93.807z"/>
		</g>
		
			<rect x="53.177" y="79.468" transform="matrix(-0.731 -0.6823 0.6823 -0.731 35.8692 300.6073)" fill="#9E9E9E" stroke="#000000" stroke-width="2.7864" stroke-miterlimit="10" width="48.005" height="127.533"/>
		
			<rect x="20.313" y="19.276" fill="#969696" stroke="#000000" stroke-width="2.7864" stroke-linecap="round" stroke-linejoin="round" stroke-miterlimit="10" width="60.664" height="60.664"/>
	</g>
</g>
</svg>
