<?xml version="1.0" encoding="utf-8"?>
<!-- Generator: Adobe Illustrator 16.0.0, SVG Export Plug-In . SVG Version: 6.00 Build 0)  -->
<!DOCTYPE svg PUBLIC "-//W3C//DTD SVG 1.1//EN" "http://www.w3.org/Graphics/SVG/1.1/DTD/svg11.dtd">
<svg version="1.1" xmlns="http://www.w3.org/2000/svg" xmlns:xlink="http://www.w3.org/1999/xlink" x="0px" y="0px" width="600px"
	 height="600px" viewBox="0 0 600 600" enable-background="new 0 0 600 600" xml:space="preserve">
<g id="artboard">
</g>
<g id="gb">
</g>
<g id="_x31_-1">
</g>
<g id="_x31_-2">
</g>
<g id="_x31_-3">
</g>
<g id="_x32_-1">
</g>
<g id="_x32_-2">
</g>
<g id="_x32_-3">
</g>
<g id="_x33_-1">
</g>
<g id="_x33_-2">
</g>
<g id="_x33_-3">
</g>
<g id="opis">
</g>
<g id="polje">
	<path stroke="#000000" stroke-width="2" stroke-miterlimit="10" d="M480.01,270v-30h-30.004c-0.002-16.569-13.432-30-29.994-30
		c-16.57,0-30,13.431-30,30h-30.006v30c0.002,0,0.004,0,0.004,0c16.564,0,29.994,13.433,29.994,30.001
		c0,16.567-13.43,29.999-29.994,29.999c0,0-0.002,0-0.004,0v30h30.006V360c0,16.567,13.43,29.999,30,29.999
		c16.564,0,29.994-13.432,29.994-29.999V360h30.004v-30c-16.57-0.002-29.996-13.433-29.996-29.999
		C450.014,283.433,463.439,270.002,480.01,270z"/>
</g>
</svg>
