<?xml version="1.0" encoding="utf-8"?>
<!-- Generator: Adobe Illustrator 16.0.0, SVG Export Plug-In . SVG Version: 6.00 Build 0)  -->
<!DOCTYPE svg PUBLIC "-//W3C//DTD SVG 1.1//EN" "http://www.w3.org/Graphics/SVG/1.1/DTD/svg11.dtd">
<svg version="1.1" xmlns="http://www.w3.org/2000/svg" xmlns:xlink="http://www.w3.org/1999/xlink" x="0px" y="0px" width="600px"
	 height="600px" viewBox="0 0 600 600" enable-background="new 0 0 600 600" xml:space="preserve">
<g id="artboard">
</g>
<g id="gb">
</g>
<g id="_x31_-1">
</g>
<g id="_x31_-2">
</g>
<g id="_x31_-3">
</g>
<g id="_x32_-1">
</g>
<g id="_x32_-2">
</g>
<g id="_x32_-3">
</g>
<g id="_x33_-1">
</g>
<g id="_x33_-2">
</g>
<g id="_x33_-3">
</g>
<g id="opis">
</g>
<g id="polje">
	<path stroke="#000000" stroke-width="2" stroke-miterlimit="10" d="M360.006,390v-30h-30.002V360
		c0-16.568-13.43-30.001-29.994-30.001c-16.57,0-30,13.433-30,30.001V360h-30.004v30c0,0,0.002,0,0.004,0
		c16.563,0,29.992,13.433,29.992,30.001c0,16.567-13.43,29.999-29.992,29.999c-0.002,0-0.004,0-0.004,0v30h30.004V480
		c0,16.567,13.43,29.999,30,29.999c16.564,0,29.994-13.432,29.994-29.999V480h30.002v-30c-16.566-0.002-29.994-13.433-29.994-29.999
		C330.012,403.433,343.439,390.002,360.006,390z"/>
</g>
</svg>
