<?xml version="1.0" encoding="utf-8"?>
<!-- Generator: Adobe Illustrator 16.0.0, SVG Export Plug-In . SVG Version: 6.00 Build 0)  -->
<!DOCTYPE svg PUBLIC "-//W3C//DTD SVG 1.1//EN" "http://www.w3.org/Graphics/SVG/1.1/DTD/svg11.dtd">
<svg version="1.1" xmlns="http://www.w3.org/2000/svg" xmlns:xlink="http://www.w3.org/1999/xlink" x="0px" y="0px" width="600px"
	 height="600px" viewBox="0 0 600 600" enable-background="new 0 0 600 600" xml:space="preserve">
<g id="artboard">
</g>
<g id="gb">
</g>
<g id="_x31_-1">
</g>
<g id="_x31_-2">
</g>
<g id="_x31_-3">
</g>
<g id="_x32_-1">
</g>
<g id="_x32_-2">
</g>
<g id="_x32_-3">
</g>
<g id="_x33_-1">
</g>
<g id="_x33_-2">
</g>
<g id="_x33_-3">
</g>
<g id="opis">
</g>
<g id="polje">
	<path stroke="#000000" stroke-width="2" stroke-miterlimit="10" d="M240.004,30V0H120.002v30c0.001,0,0.002,0,0.003,0
		C136.569,30,150,43.431,150,60c0,16.567-13.431,30-29.994,30c-0.001,0-0.002,0-0.003,0v30h30.005l0,0c0,16.567,13.429,30,30,30
		C196.57,150,210,136.568,210,120l0,0h30.004V90c-16.569-0.003-29.996-13.434-29.996-30C210.008,43.432,223.436,30.001,240.004,30z"
		/>
</g>
</svg>
