<?xml version="1.0" encoding="utf-8"?>
<!-- Generator: Adobe Illustrator 16.0.0, SVG Export Plug-In . SVG Version: 6.00 Build 0)  -->
<!DOCTYPE svg PUBLIC "-//W3C//DTD SVG 1.1//EN" "http://www.w3.org/Graphics/SVG/1.1/DTD/svg11.dtd">
<svg version="1.1" xmlns="http://www.w3.org/2000/svg" xmlns:xlink="http://www.w3.org/1999/xlink" x="0px" y="0px" width="220px"
	 height="220px" viewBox="0 0 220 220" enable-background="new 0 0 220 220" xml:space="preserve">
<g id="bg" display="none">
</g>
<g id="Layer_3">
</g>
<g id="Layer_1">
	<g>
		<defs>
			<rect id="SVGID_29_" x="-5490.076" y="-900" width="220" height="220"/>
		</defs>
		<clipPath id="SVGID_2_">
			<use xlink:href="#SVGID_29_"  overflow="visible"/>
		</clipPath>
	</g>
	<g>
		<defs>
			<rect id="SVGID_31_" x="-4290.076" y="-900" width="220" height="220"/>
		</defs>
		<clipPath id="SVGID_4_">
			<use xlink:href="#SVGID_31_"  overflow="visible"/>
		</clipPath>
	</g>
	<g>
		<defs>
			<rect id="SVGID_33_" x="-3690.076" y="-900" width="220" height="220"/>
		</defs>
		<clipPath id="SVGID_6_">
			<use xlink:href="#SVGID_33_"  overflow="visible"/>
		</clipPath>
	</g>
	<g>
		<defs>
			<rect id="SVGID_35_" x="-3990.076" y="-900" width="220" height="220"/>
		</defs>
		<clipPath id="SVGID_8_">
			<use xlink:href="#SVGID_35_"  overflow="visible"/>
		</clipPath>
	</g>
	<g>
		<defs>
			<rect id="SVGID_37_" x="-5190.076" y="-900" width="220" height="220"/>
		</defs>
		<clipPath id="SVGID_10_">
			<use xlink:href="#SVGID_37_"  overflow="visible"/>
		</clipPath>
	</g>
	<g>
		<defs>
			<rect id="SVGID_39_" x="-4590.076" y="-900" width="220" height="220"/>
		</defs>
		<clipPath id="SVGID_12_">
			<use xlink:href="#SVGID_39_"  overflow="visible"/>
		</clipPath>
	</g>
	<g>
		<defs>
			<rect id="SVGID_411_" x="-2100" y="-900" width="220" height="220"/>
		</defs>
		<clipPath id="SVGID_14_">
			<use xlink:href="#SVGID_411_"  overflow="visible"/>
		</clipPath>
	</g>
	<g>
		<defs>
			<rect id="SVGID_413_" x="-900" y="-900" width="220" height="220"/>
		</defs>
		<clipPath id="SVGID_16_">
			<use xlink:href="#SVGID_413_"  overflow="visible"/>
		</clipPath>
	</g>
	<g>
		<defs>
			<rect id="SVGID_415_" x="-300" y="-900" width="220" height="220"/>
		</defs>
		<clipPath id="SVGID_18_">
			<use xlink:href="#SVGID_415_"  overflow="visible"/>
		</clipPath>
	</g>
	<g>
		<defs>
			<rect id="SVGID_417_" x="-600" y="-900" width="220" height="220"/>
		</defs>
		<clipPath id="SVGID_20_">
			<use xlink:href="#SVGID_417_"  overflow="visible"/>
		</clipPath>
	</g>
	<g>
		<defs>
			<rect id="SVGID_419_" x="-1800" y="-900" width="220" height="220"/>
		</defs>
		<clipPath id="SVGID_22_">
			<use xlink:href="#SVGID_419_"  overflow="visible"/>
		</clipPath>
	</g>
	<g>
		<defs>
			<rect id="SVGID_421_" x="-1200" y="-900" width="220" height="220"/>
		</defs>
		<clipPath id="SVGID_24_">
			<use xlink:href="#SVGID_421_"  overflow="visible"/>
		</clipPath>
	</g>
	<g>
		<defs>
			<rect id="SVGID_453_" x="0" width="220.001" height="220"/>
		</defs>
		<clipPath id="SVGID_26_">
			<use xlink:href="#SVGID_453_"  overflow="visible"/>
		</clipPath>
		<g clip-path="url(#SVGID_26_)">
			<g>
				<rect x="0" fill="#EDEDED" width="220.001" height="220"/>
			</g>
		</g>
		
			<path clip-path="url(#SVGID_26_)" fill="#A6A6A6" stroke="#000000" stroke-width="2" stroke-linecap="round" stroke-linejoin="round" stroke-miterlimit="10" d="
			M118.536,16.637v-53.256c6.604-3.092,11.184-9.794,11.184-17.567c0-7.773-4.58-14.477-11.184-17.566v4.485v3.482v5.995
			l-8.209,4.742l-8.211-4.742v-5.995l0,0v-7.968c-6.604,3.089-11.182,9.793-11.182,17.566c0,7.773,4.578,14.476,11.182,17.567
			v53.256c-6.604,3.091-11.182,9.792-11.182,17.568c0,7.772,4.578,14.476,11.182,17.568v-4.065v-3.482v-5.998l8.211-4.741
			l8.209,4.741v5.998l0,0v7.548c6.604-3.093,11.184-9.796,11.184-17.568C129.719,26.429,125.139,19.728,118.536,16.637z"/>
		
			<path clip-path="url(#SVGID_26_)" fill="#323232" stroke="#000000" stroke-width="2" stroke-linecap="round" stroke-linejoin="round" stroke-miterlimit="10" d="
			M25.885-8.19v89.964h17.571V-8.19c7.063-3.311,11.962-10.479,11.962-18.798c0-8.317-4.898-15.487-11.962-18.792v14.94
			l-8.783,5.073l-8.784-5.073l-0.004-14.94c-7.064,3.305-11.958,10.476-11.958,18.792C13.927-18.669,18.821-11.501,25.885-8.19z"/>
		
			<path clip-path="url(#SVGID_26_)" fill="#323232" stroke="#000000" stroke-width="2" stroke-linecap="round" stroke-linejoin="round" stroke-miterlimit="10" d="
			M200.816-25.636c0-7.133-4.199-13.281-10.254-16.115v4.112v3.201v5.5l-7.533,4.35l-7.538-4.35v-5.5l0,0v-7.313
			c-6.059,2.834-10.256,8.982-10.256,16.115c0,7.137,4.197,13.282,10.256,16.118v69.381c-2.87,2.243-4.717,5.732-4.717,9.657
			c0,6.771,5.483,12.254,12.255,12.254c6.761,0,12.25-5.483,12.25-12.254c0-3.925-1.85-7.414-4.717-9.659V-9.518
			C196.617-12.354,200.816-18.5,200.816-25.636z M183.029,73.698c-2.311,0-4.18-1.869-4.18-4.178c0-2.306,1.869-4.175,4.18-4.175
			c2.305,0,4.176,1.87,4.176,4.175C187.205,71.829,185.333,73.698,183.029,73.698z"/>
		
			<path clip-path="url(#SVGID_26_)" fill="#A6A6A6" stroke="#000000" stroke-width="2" stroke-linecap="round" stroke-linejoin="round" stroke-miterlimit="10" d="
			M118.536,253.609v-53.255c6.604-3.092,11.184-9.794,11.184-17.568c0-7.773-4.58-14.476-11.184-17.567v4.486v3.482v5.995
			l-8.209,4.741l-8.211-4.741v-5.995l0,0v-7.968c-6.604,3.091-11.182,9.794-11.182,17.567c0,7.774,4.578,14.476,11.182,17.568
			v53.255c-6.604,3.091-11.182,9.792-11.182,17.568c0,7.772,4.578,14.476,11.182,17.568v-4.064v-3.483V275.2l8.211-4.741
			l8.209,4.741v5.998l0,0v7.548c6.604-3.093,11.184-9.796,11.184-17.568C129.719,263.401,125.139,256.7,118.536,253.609z"/>
		
			<path clip-path="url(#SVGID_26_)" fill="#575757" stroke="#000000" stroke-width="2" stroke-linecap="round" stroke-linejoin="round" stroke-miterlimit="10" d="
			M105.537,151.681h8.927l6.312-6.313v-8.926l-6.312-6.312h-8.927l-6.312,6.312v8.926L105.537,151.681z M110,135.551
			c2.957,0,5.354,2.397,5.354,5.355c0,2.957-2.397,5.355-5.354,5.355c-2.958,0-5.355-2.398-5.355-5.355
			C104.645,137.948,107.042,135.551,110,135.551z"/>
		
			<path clip-path="url(#SVGID_26_)" fill="#575757" stroke="#000000" stroke-width="2" stroke-linecap="round" stroke-linejoin="round" stroke-miterlimit="10" d="
			M105.537,90.602h8.927l6.312-6.312v-8.926l-6.312-6.312h-8.927l-6.312,6.312v8.926L105.537,90.602z M110,74.471
			c2.957,0,5.354,2.397,5.354,5.356c0,2.958-2.397,5.355-5.354,5.355c-2.958,0-5.355-2.397-5.355-5.355
			C104.645,76.869,107.042,74.471,110,74.471z"/>
		
			<path clip-path="url(#SVGID_26_)" fill="#323232" stroke="#000000" stroke-width="2" stroke-linecap="round" stroke-linejoin="round" stroke-miterlimit="10" d="
			M25.885,172.81v89.964h17.571V172.81c7.063-3.311,11.962-10.479,11.962-18.798c0-8.317-4.898-15.487-11.962-18.792v14.94
			l-8.783,5.073l-8.784-5.073l-0.004-14.94c-7.064,3.305-11.958,10.476-11.958,18.792C13.927,162.331,18.821,169.499,25.885,172.81z
			"/>
		
			<path clip-path="url(#SVGID_26_)" fill="#323232" stroke="#000000" stroke-width="2" stroke-linecap="round" stroke-linejoin="round" stroke-miterlimit="10" d="
			M200.816,151.333c0-7.132-4.199-13.281-10.254-16.115v4.112v3.2v5.5l-7.533,4.351l-7.538-4.351v-5.5l0,0v-7.312
			c-6.059,2.834-10.256,8.982-10.256,16.115c0,7.137,4.197,13.282,10.256,16.118v69.381c-2.87,2.243-4.717,5.732-4.717,9.657
			c0,6.771,5.483,12.254,12.255,12.254c6.761,0,12.25-5.483,12.25-12.254c0-3.925-1.85-7.414-4.717-9.659v-69.379
			C196.617,164.616,200.816,158.47,200.816,151.333z M183.029,250.668c-2.311,0-4.18-1.87-4.18-4.178
			c0-2.306,1.869-4.176,4.18-4.176c2.305,0,4.176,1.87,4.176,4.176C187.205,248.798,185.333,250.668,183.029,250.668z"/>
		<g clip-path="url(#SVGID_26_)">
			<g>
				<line fill="none" stroke="#000000" stroke-width="6" stroke-miterlimit="10" x1="0" y1="108.054" x2="6" y2="108.054"/>
				
					<line fill="none" stroke="#000000" stroke-width="6" stroke-miterlimit="10" stroke-dasharray="12.2353,12.2353" x1="18.235" y1="108.054" x2="207.882" y2="108.054"/>
				<line fill="none" stroke="#000000" stroke-width="6" stroke-miterlimit="10" x1="214" y1="108.054" x2="220" y2="108.054"/>
			</g>
		</g>
	</g>
</g>
</svg>
