<?xml version="1.0" encoding="utf-8"?>
<!-- Generator: Adobe Illustrator 16.0.0, SVG Export Plug-In . SVG Version: 6.00 Build 0)  -->
<!DOCTYPE svg PUBLIC "-//W3C//DTD SVG 1.1//EN" "http://www.w3.org/Graphics/SVG/1.1/DTD/svg11.dtd">
<svg version="1.1" xmlns="http://www.w3.org/2000/svg" xmlns:xlink="http://www.w3.org/1999/xlink" x="0px" y="0px"
	 width="600.001px" height="600px" viewBox="0 0 600.001 600" enable-background="new 0 0 600.001 600" xml:space="preserve">
<g id="artboard">
</g>
<g id="gb">
</g>
<g id="_x31_-1">
</g>
<g id="_x31_-2">
</g>
<g id="_x31_-3">
</g>
<g id="_x32_-1">
</g>
<g id="_x32_-2">
</g>
<g id="_x32_-3">
</g>
<g id="_x33_-1">
</g>
<g id="_x33_-2">
</g>
<g id="_x33_-3">
</g>
<g id="opis">
</g>
<g id="polje">
	<path stroke="#000000" stroke-width="2" stroke-miterlimit="10" d="M228,405.001c4.907,0,9.264,2.356,12,5.999v-51h-51.002
		c3.643,2.736,5.999,7.094,5.999,12c0,8.285-6.714,15-15,15c-8.282,0-14.996-6.715-14.996-15c0-4.906,2.356-9.264,5.998-12H120
		v51.002c2.736-3.643,7.093-5.998,11.999-5.998c8.285,0,15.001,6.713,15.001,14.998c0,8.282-6.716,14.997-15.001,14.997
		c-4.906,0-9.263-2.356-11.999-5.999v51h51.002c-3.643-2.736-5.999-7.093-5.999-12c0-8.284,6.714-15,14.999-15
		c8.283,0,14.998,6.716,14.998,15c0,4.907-2.357,9.264-5.999,12H240v-51.002c-2.736,3.643-7.093,6-12,6
		c-8.284,0-14.999-6.715-14.999-15C213,411.716,219.715,405.001,228,405.001z"/>
</g>
</svg>
