<?xml version="1.0" encoding="utf-8"?>
<!-- Generator: Adobe Illustrator 16.0.0, SVG Export Plug-In . SVG Version: 6.00 Build 0)  -->
<!DOCTYPE svg PUBLIC "-//W3C//DTD SVG 1.1//EN" "http://www.w3.org/Graphics/SVG/1.1/DTD/svg11.dtd">
<svg version="1.1" xmlns="http://www.w3.org/2000/svg" xmlns:xlink="http://www.w3.org/1999/xlink" x="0px" y="0px" width="600px"
	 height="600px" viewBox="0 0 600 600" enable-background="new 0 0 600 600" xml:space="preserve">
<g id="artboard">
</g>
<g id="gb">
</g>
<g id="_x31_-1">
</g>
<g id="_x31_-2">
</g>
<g id="_x31_-3">
</g>
<g id="_x32_-1">
</g>
<g id="_x32_-2">
</g>
<g id="_x32_-3">
</g>
<g id="_x33_-1">
</g>
<g id="_x33_-2">
</g>
<g id="_x33_-3">
</g>
<g id="opis">
</g>
<g id="polje">
	<path stroke="#000000" stroke-width="2" stroke-miterlimit="10" d="M251.999,525.004c-4.906,0-9.263,2.355-11.999,5.998V480H189
		c3.642-2.736,5.999-7.093,5.999-12c0-8.284-6.715-15-14.998-15c-8.285,0-14.999,6.716-14.999,15c0,4.907,2.356,9.264,5.999,12H120
		v51c-2.737-3.643-7.093-5.999-12-5.999c-8.284,0-15,6.715-15,14.997c0,8.285,6.716,15,15,15c4.907,0,9.263-2.357,12-6V600h120
		v-50.999c2.736,3.642,7.093,5.998,11.999,5.998c8.285,0,15.001-6.715,15.001-14.997C267,531.717,260.284,525.004,251.999,525.004z"
		/>
</g>
</svg>
