<?xml version="1.0" encoding="utf-8"?>
<!-- Generator: Adobe Illustrator 16.0.0, SVG Export Plug-In . SVG Version: 6.00 Build 0)  -->
<!DOCTYPE svg PUBLIC "-//W3C//DTD SVG 1.1//EN" "http://www.w3.org/Graphics/SVG/1.1/DTD/svg11.dtd">
<svg version="1.1" xmlns="http://www.w3.org/2000/svg" xmlns:xlink="http://www.w3.org/1999/xlink" x="0px" y="0px" width="600px"
	 height="600px" viewBox="0 0 600 600" enable-background="new 0 0 600 600" xml:space="preserve">
<g id="artboard">
</g>
<g id="gb">
</g>
<g id="_x31_-1">
</g>
<g id="_x31_-2">
</g>
<g id="_x31_-3">
</g>
<g id="_x32_-1">
</g>
<g id="_x32_-2">
</g>
<g id="_x32_-3">
</g>
<g id="_x33_-1">
</g>
<g id="_x33_-2">
</g>
<g id="_x33_-3">
</g>
<g id="opis">
</g>
<g id="polje">
	<path stroke="#000000" stroke-width="2" stroke-miterlimit="10" d="M468,285.001c4.906,0,9.263,2.356,12,5.999v-51h-51
		c3.643-2.736,5.999-7.093,5.999-12c0-8.284-6.715-15-14.997-15c-8.285,0-14.999,6.716-14.999,15c0,4.907,2.356,9.264,5.999,12H360
		v51.002c2.736-3.643,7.093-5.998,11.999-5.998c8.285,0,15.001,6.713,15.001,14.998c0,8.283-6.716,14.997-15.001,14.997
		c-4.906,0-9.263-2.356-11.999-5.998V360h50.999c-3.642,2.736-5.998,7.094-5.998,12c0,8.285,6.715,15,14.996,15
		c8.285,0,14.999-6.715,14.999-15c0-4.906-2.356-9.264-5.999-12H480v-51.002c-2.737,3.643-7.094,6-12,6c-8.284,0-15-6.715-15-15
		C453,291.716,459.715,285.001,468,285.001z"/>
</g>
</svg>
