<?xml version="1.0" encoding="utf-8"?>
<!-- Generator: Adobe Illustrator 16.0.0, SVG Export Plug-In . SVG Version: 6.00 Build 0)  -->
<!DOCTYPE svg PUBLIC "-//W3C//DTD SVG 1.1//EN" "http://www.w3.org/Graphics/SVG/1.1/DTD/svg11.dtd">
<svg version="1.1" xmlns="http://www.w3.org/2000/svg" xmlns:xlink="http://www.w3.org/1999/xlink" x="0px" y="0px"
	 width="600.001px" height="600px" viewBox="0 0 600.001 600" enable-background="new 0 0 600.001 600" xml:space="preserve">
<g id="artboard">
</g>
<g id="gb">
</g>
<g id="_x31_-1">
</g>
<g id="_x31_-2">
</g>
<g id="_x31_-3">
</g>
<g id="_x32_-1">
</g>
<g id="_x32_-2">
</g>
<g id="_x32_-3">
</g>
<g id="_x33_-1">
</g>
<g id="_x33_-2">
</g>
<g id="_x33_-3">
</g>
<g id="opis">
</g>
<g id="polje">
	<path stroke="#000000" stroke-width="2" stroke-miterlimit="10" d="M348,405.001c4.907,0,9.264,2.356,12,5.999v-51h-51
		c3.643-2.736,5.999-7.093,5.999-12c0-8.284-6.715-15-14.997-15c-8.285,0-14.999,6.716-14.999,15c0,4.907,2.356,9.264,5.999,12H240
		v51c-2.736-3.643-7.093-5.999-12-5.999c-8.284,0-14.999,6.715-14.999,14.997c0,8.285,6.715,15,14.999,15c4.907,0,9.264-2.357,12-6
		V480h50.999c-3.642,2.736-5.998,7.094-5.998,12c0,8.284,6.715,15,14.996,15c8.285,0,14.999-6.716,14.999-15
		c0-4.906-2.355-9.264-5.999-12H360v-51.002c-2.736,3.643-7.093,6-12,6c-8.284,0-15-6.715-15-15
		C333,411.716,339.715,405.001,348,405.001z"/>
</g>
</svg>
