<?xml version="1.0" encoding="utf-8"?>
<!-- Generator: Adobe Illustrator 16.0.0, SVG Export Plug-In . SVG Version: 6.00 Build 0)  -->
<!DOCTYPE svg PUBLIC "-//W3C//DTD SVG 1.1//EN" "http://www.w3.org/Graphics/SVG/1.1/DTD/svg11.dtd">
<svg version="1.1" xmlns="http://www.w3.org/2000/svg" xmlns:xlink="http://www.w3.org/1999/xlink" x="0px" y="0px" width="600px"
	 height="600px" viewBox="0 0 600 600" enable-background="new 0 0 600 600" xml:space="preserve">
<g id="artboard">
</g>
<g id="gb">
</g>
<g id="_x31_-1">
</g>
<g id="_x31_-2">
</g>
<g id="_x31_-3">
</g>
<g id="_x32_-1">
</g>
<g id="_x32_-2">
</g>
<g id="_x32_-3">
</g>
<g id="_x33_-1">
</g>
<g id="_x33_-2">
</g>
<g id="_x33_-3">
</g>
<g id="opis">
</g>
<g id="polje">
	<path stroke="#000000" stroke-width="2" stroke-miterlimit="10" d="M371.999,45.004c-4.906,0-9.263,2.355-11.999,5.998V0H240
		v51.002c2.736-3.643,7.093-5.998,11.999-5.998c8.285,0,15,6.714,15,14.998c0,8.283-6.715,14.997-15,14.997
		c-4.906,0-9.263-2.356-11.999-5.998V120h50.999c-3.642,2.736-5.999,7.093-5.999,12c0,8.285,6.716,15,14.997,15
		c8.285,0,14.999-6.715,14.999-15c0-4.907-2.356-9.264-5.999-12H360V69.001c2.736,3.642,7.093,5.998,11.999,5.998
		c8.285,0,15-6.714,15-14.997C386.999,51.718,380.284,45.004,371.999,45.004z"/>
</g>
</svg>
