<?xml version="1.0" encoding="utf-8"?>
<!-- Generator: Adobe Illustrator 16.0.0, SVG Export Plug-In . SVG Version: 6.00 Build 0)  -->
<!DOCTYPE svg PUBLIC "-//W3C//DTD SVG 1.1//EN" "http://www.w3.org/Graphics/SVG/1.1/DTD/svg11.dtd">
<svg version="1.1" xmlns="http://www.w3.org/2000/svg" xmlns:xlink="http://www.w3.org/1999/xlink" x="0px" y="0px" width="600px"
	 height="600px" viewBox="0 0 600 600" enable-background="new 0 0 600 600" xml:space="preserve">
<g id="artboard">
</g>
<g id="gb">
</g>
<g id="_x31_-1">
</g>
<g id="_x31_-2">
</g>
<g id="_x31_-3">
</g>
<g id="_x32_-1">
</g>
<g id="_x32_-2">
</g>
<g id="_x32_-3">
</g>
<g id="_x33_-1">
</g>
<g id="_x33_-2">
</g>
<g id="_x33_-3">
</g>
<g id="opis">
</g>
<g id="polje">
	<path stroke="#000000" stroke-width="2" stroke-miterlimit="10" d="M371.999,285.004c-4.906,0-9.263,2.355-11.999,5.998V240
		h-51.003c3.643,2.736,5.999,7.093,5.999,12c0,8.285-6.714,15-14.999,15c-8.281,0-14.997-6.715-14.997-15
		c0-4.907,2.357-9.264,5.999-12H240v51.002c0.16-0.213,0.326-0.42,0.497-0.624c0.044-0.052,0.09-0.103,0.134-0.154
		c0.13-0.151,0.262-0.3,0.398-0.446c0.057-0.061,0.114-0.12,0.172-0.18c0.13-0.135,0.263-0.268,0.397-0.397
		c0.061-0.059,0.121-0.117,0.184-0.175c0.144-0.134,0.291-0.265,0.44-0.394c0.053-0.046,0.105-0.093,0.16-0.139
		c0.411-0.345,0.842-0.667,1.29-0.967c0.053-0.036,0.108-0.069,0.163-0.104c0.169-0.109,0.34-0.218,0.514-0.32
		c0.076-0.046,0.154-0.09,0.232-0.134c0.156-0.089,0.314-0.176,0.474-0.261c0.085-0.043,0.169-0.087,0.254-0.13
		c0.162-0.079,0.325-0.157,0.49-0.231c0.082-0.038,0.164-0.076,0.246-0.113c0.19-0.081,0.383-0.158,0.576-0.232
		c0.06-0.022,0.117-0.047,0.177-0.069c0.254-0.094,0.512-0.182,0.772-0.263c0.052-0.016,0.105-0.029,0.158-0.045
		c0.208-0.061,0.417-0.119,0.628-0.172c0.092-0.023,0.184-0.043,0.275-0.064c0.177-0.04,0.354-0.078,0.532-0.112
		c0.103-0.02,0.205-0.038,0.309-0.056c0.174-0.029,0.349-0.055,0.525-0.078c0.103-0.014,0.205-0.028,0.309-0.04
		c0.189-0.021,0.381-0.037,0.572-0.052c0.09-0.007,0.179-0.015,0.27-0.02c0.281-0.017,0.564-0.025,0.85-0.025
		c8.285,0,15,6.714,15,14.998c0,8.283-6.715,14.997-15,14.997c-0.285,0-0.568-0.01-0.85-0.025c-0.091-0.005-0.18-0.014-0.27-0.021
		c-0.191-0.014-0.383-0.03-0.572-0.052c-0.103-0.012-0.206-0.024-0.308-0.039c-0.178-0.023-0.354-0.05-0.527-0.079
		c-0.103-0.018-0.205-0.035-0.307-0.055c-0.18-0.033-0.357-0.073-0.534-0.113c-0.092-0.021-0.184-0.041-0.273-0.063
		c-0.212-0.053-0.422-0.111-0.631-0.173c-0.052-0.016-0.104-0.029-0.156-0.045c-0.261-0.08-0.519-0.168-0.772-0.262
		c-0.06-0.022-0.118-0.047-0.178-0.07c-0.193-0.074-0.385-0.15-0.574-0.232c-0.083-0.036-0.165-0.075-0.248-0.112
		c-0.164-0.075-0.327-0.151-0.489-0.232c-0.085-0.042-0.17-0.087-0.254-0.13c-0.159-0.084-0.316-0.17-0.473-0.259
		c-0.078-0.045-0.157-0.089-0.234-0.135c-0.173-0.104-0.343-0.21-0.511-0.319c-0.055-0.036-0.111-0.07-0.166-0.106
		c-0.226-0.151-0.447-0.307-0.664-0.47c-0.001,0-0.001,0-0.001,0c-0.213-0.16-0.42-0.326-0.623-0.496
		c-0.056-0.047-0.109-0.095-0.163-0.142c-0.148-0.128-0.295-0.257-0.438-0.39c-0.062-0.059-0.123-0.118-0.185-0.178
		c-0.134-0.129-0.266-0.26-0.395-0.394c-0.059-0.062-0.118-0.122-0.176-0.185c-0.134-0.144-0.264-0.29-0.393-0.438
		c-0.046-0.054-0.094-0.106-0.139-0.161c-0.168-0.2-0.331-0.404-0.489-0.612c-0.002-0.004-0.005-0.007-0.007-0.01V360H291
		c-3.642-2.736-5.999-7.092-5.999-12c0-8.284,6.715-15,15-15c8.281,0,14.996,6.716,14.996,15c0,4.908-2.355,9.264-5.998,12h51
		v-50.999c2.736,3.642,7.093,5.998,11.999,5.998c8.285,0,15-6.714,15-14.997C386.999,291.718,380.284,285.004,371.999,285.004z"/>
</g>
</svg>
