<?xml version="1.0" encoding="utf-8"?>
<!-- Generator: Adobe Illustrator 16.0.0, SVG Export Plug-In . SVG Version: 6.00 Build 0)  -->
<!DOCTYPE svg PUBLIC "-//W3C//DTD SVG 1.1//EN" "http://www.w3.org/Graphics/SVG/1.1/DTD/svg11.dtd">
<svg version="1.1" xmlns="http://www.w3.org/2000/svg" xmlns:xlink="http://www.w3.org/1999/xlink" x="0px" y="0px" width="600px"
	 height="600px" viewBox="0 0 600 600" enable-background="new 0 0 600 600" xml:space="preserve">
<g id="artboard">
</g>
<g id="gb">
</g>
<g id="_x31_-1">
</g>
<g id="_x31_-2">
</g>
<g id="_x31_-3">
</g>
<g id="_x32_-1">
</g>
<g id="_x32_-2">
</g>
<g id="_x32_-3">
</g>
<g id="_x33_-1">
</g>
<g id="_x33_-2">
</g>
<g id="_x33_-3">
</g>
<g id="opis">
</g>
<g id="polje">
	<path stroke="#000000" stroke-width="2" stroke-miterlimit="10" d="M131.999,165.004c-4.906,0-9.263,2.355-11.999,5.998V120H68.997
		c3.643,2.736,5.999,7.093,5.999,12c0,8.285-6.714,15-14.999,15C51.715,147,45,140.285,45,132c0-4.907,2.357-9.264,5.999-12H0v120
		h50.999C47.357,242.736,45,247.093,45,252c0,8.285,6.715,15,14.997,15c8.285,0,14.999-6.715,14.999-15
		c0-4.907-2.356-9.264-5.999-12H120v-50.999c2.736,3.642,7.093,5.998,11.999,5.998c8.285,0,15-6.714,15-14.997
		C146.999,171.718,140.284,165.004,131.999,165.004z"/>
</g>
</svg>
