<?xml version="1.0" encoding="utf-8"?>
<!-- Generator: Adobe Illustrator 16.0.0, SVG Export Plug-In . SVG Version: 6.00 Build 0)  -->
<!DOCTYPE svg PUBLIC "-//W3C//DTD SVG 1.1//EN" "http://www.w3.org/Graphics/SVG/1.1/DTD/svg11.dtd">
<svg version="1.1" xmlns="http://www.w3.org/2000/svg" xmlns:xlink="http://www.w3.org/1999/xlink" x="0px" y="0px" width="600px"
	 height="600px" viewBox="0 0 600 600" enable-background="new 0 0 600 600" xml:space="preserve">
<g id="artboard">
</g>
<g id="gb">
</g>
<g id="_x31_-1">
</g>
<g id="_x31_-2">
</g>
<g id="_x31_-3">
</g>
<g id="_x32_-1">
</g>
<g id="_x32_-2">
</g>
<g id="_x32_-3">
</g>
<g id="_x33_-1">
</g>
<g id="_x33_-2">
</g>
<g id="_x33_-3">
</g>
<g id="opis">
</g>
<g id="polje">
	<path stroke="#000000" stroke-width="2" stroke-miterlimit="10" d="M108,285.001c4.906,0,9.263,2.356,12,5.999v-51H68.997
		c3.643,2.736,5.999,7.093,5.999,12c0,8.285-6.714,15-14.999,15C51.715,267,45,260.285,45,252c0-4.907,2.357-9.264,5.999-12H0v120
		h51.001c-3.643-2.736-5.999-7.092-5.999-12c0-8.284,6.715-15,15-15c8.281,0,14.996,6.716,14.996,15c0,4.908-2.356,9.264-5.998,12
		h51v-51.002c-2.737,3.643-7.094,6-12,6c-8.284,0-15.001-6.715-15.001-15C92.999,291.716,99.716,285.001,108,285.001z"/>
</g>
</svg>
