<?xml version="1.0" encoding="utf-8"?>
<!-- Generator: Adobe Illustrator 16.0.0, SVG Export Plug-In . SVG Version: 6.00 Build 0)  -->
<!DOCTYPE svg PUBLIC "-//W3C//DTD SVG 1.1//EN" "http://www.w3.org/Graphics/SVG/1.1/DTD/svg11.dtd">
<svg version="1.1" xmlns="http://www.w3.org/2000/svg" xmlns:xlink="http://www.w3.org/1999/xlink" x="0px" y="0px" width="600px"
	 height="600px" viewBox="0 0 600 600" enable-background="new 0 0 600 600" xml:space="preserve">
<g id="artboard">
</g>
<g id="gb">
</g>
<g id="_x31_-1">
</g>
<g id="_x31_-2">
</g>
<g id="_x31_-3">
</g>
<g id="_x32_-1">
</g>
<g id="_x32_-2">
</g>
<g id="_x32_-3">
</g>
<g id="_x33_-1">
</g>
<g id="_x33_-2">
</g>
<g id="_x33_-3">
</g>
<g id="opis">
</g>
<g id="polje">
	<path stroke="#000000" stroke-width="2" stroke-miterlimit="10" d="M491.999,165.004c-4.906,0-9.264,2.355-12,5.998V120h-51
		c3.643-2.736,6-7.093,6-12c0-8.284-6.715-15-14.998-15c-8.285,0-14.998,6.716-14.998,15c0,4.907,2.355,9.264,5.998,12h-51.002v51
		c-2.736-3.643-7.092-5.999-12-5.999c-8.283,0-15,6.715-15,14.997c0,8.285,6.717,15,15,15c4.908,0,9.264-2.357,12-6V240h51.002
		c-3.643-2.736-5.998-7.093-5.998-12c0-8.284,6.713-15,14.998-15c8.283,0,14.998,6.716,14.998,15c0,4.907-2.357,9.264-6,12h51
		v-50.999c2.736,3.642,7.094,5.998,12,5.998c8.285,0,15-6.714,15-14.997C506.999,171.717,500.284,165.004,491.999,165.004z"/>
</g>
</svg>
