<?xml version="1.0" encoding="utf-8"?>
<!-- Generator: Adobe Illustrator 16.0.0, SVG Export Plug-In . SVG Version: 6.00 Build 0)  -->
<!DOCTYPE svg PUBLIC "-//W3C//DTD SVG 1.1//EN" "http://www.w3.org/Graphics/SVG/1.1/DTD/svg11.dtd">
<svg version="1.1" xmlns="http://www.w3.org/2000/svg" xmlns:xlink="http://www.w3.org/1999/xlink" x="0px" y="0px" width="600px"
	 height="600px" viewBox="0 0 600 600" enable-background="new 0 0 600 600" xml:space="preserve">
<g id="artboard">
</g>
<g id="gb">
</g>
<g id="_x31_-1">
</g>
<g id="_x31_-2">
</g>
<g id="_x31_-3">
</g>
<g id="_x32_-1">
</g>
<g id="_x32_-2">
</g>
<g id="_x32_-3">
</g>
<g id="_x33_-1">
</g>
<g id="_x33_-2">
</g>
<g id="_x33_-3">
</g>
<g id="opis">
</g>
<g id="polje">
	<path stroke="#000000" stroke-width="2" stroke-miterlimit="10" d="M468,554.998c-8.284,0-15-6.715-15-15
		c0-8.282,6.716-14.997,15-14.997c4.906,0,9.263,2.356,12,5.999v-51h-51c3.643-2.736,5.999-7.093,5.999-12
		c0-8.284-6.715-15-14.997-15c-8.285,0-14.999,6.716-14.999,15c0,4.907,2.356,9.264,5.999,12H360v51.002
		c2.736-3.643,7.093-5.998,11.999-5.998c8.285,0,15.001,6.713,15.001,14.998c0,8.282-6.716,14.997-15.001,14.997
		c-4.906,0-9.263-2.356-11.999-5.998V600h120v-51.002C477.262,552.641,472.906,554.998,468,554.998z"/>
</g>
</svg>
