<?xml version="1.0" encoding="utf-8"?>
<!-- Generator: Adobe Illustrator 16.0.0, SVG Export Plug-In . SVG Version: 6.00 Build 0)  -->
<!DOCTYPE svg PUBLIC "-//W3C//DTD SVG 1.1//EN" "http://www.w3.org/Graphics/SVG/1.1/DTD/svg11.dtd">
<svg version="1.1" xmlns="http://www.w3.org/2000/svg" xmlns:xlink="http://www.w3.org/1999/xlink" x="0px" y="0px" width="220px"
	 height="220px" viewBox="0 0 220 220" enable-background="new 0 0 220 220" xml:space="preserve">
<g id="bg" display="none">
</g>
<g id="Layer_3">
</g>
<g id="Layer_1">
	<g>
		<defs>
			<rect id="SVGID_29_" x="-3690.076" y="-1200" width="220" height="220"/>
		</defs>
		<clipPath id="SVGID_2_">
			<use xlink:href="#SVGID_29_"  overflow="visible"/>
		</clipPath>
	</g>
	<g>
		<defs>
			<rect id="SVGID_31_" x="-2490.076" y="-1200" width="220" height="220"/>
		</defs>
		<clipPath id="SVGID_4_">
			<use xlink:href="#SVGID_31_"  overflow="visible"/>
		</clipPath>
	</g>
	<g>
		<defs>
			<rect id="SVGID_33_" x="-1890.076" y="-1200" width="220" height="220"/>
		</defs>
		<clipPath id="SVGID_6_">
			<use xlink:href="#SVGID_33_"  overflow="visible"/>
		</clipPath>
	</g>
	<g>
		<defs>
			<rect id="SVGID_35_" x="-2190.076" y="-1200" width="220" height="220"/>
		</defs>
		<clipPath id="SVGID_8_">
			<use xlink:href="#SVGID_35_"  overflow="visible"/>
		</clipPath>
	</g>
	<g>
		<defs>
			<rect id="SVGID_37_" x="-3390.076" y="-1200" width="220" height="220"/>
		</defs>
		<clipPath id="SVGID_10_">
			<use xlink:href="#SVGID_37_"  overflow="visible"/>
		</clipPath>
	</g>
	<g>
		<defs>
			<rect id="SVGID_39_" x="-2790.076" y="-1200" width="220" height="220"/>
		</defs>
		<clipPath id="SVGID_12_">
			<use xlink:href="#SVGID_39_"  overflow="visible"/>
		</clipPath>
	</g>
	<g>
		<defs>
			<rect id="SVGID_411_" x="-300" y="-1200" width="220" height="220"/>
		</defs>
		<clipPath id="SVGID_14_">
			<use xlink:href="#SVGID_411_"  overflow="visible"/>
		</clipPath>
	</g>
	<g>
		<defs>
			<rect id="SVGID_419_" y="-1200" width="220" height="220"/>
		</defs>
		<clipPath id="SVGID_16_">
			<use xlink:href="#SVGID_419_"  overflow="visible"/>
		</clipPath>
	</g>
	<g>
		<defs>
			<rect id="SVGID_467_" x="0" width="220.001" height="220"/>
		</defs>
		<clipPath id="SVGID_18_">
			<use xlink:href="#SVGID_467_"  overflow="visible"/>
		</clipPath>
		<g clip-path="url(#SVGID_18_)">
			<g>
				<rect x="0" fill="#D4D4D4" width="220.001" height="220"/>
			</g>
		</g>
		<g clip-path="url(#SVGID_18_)">
			
				<polygon fill="#595959" stroke="#000000" stroke-width="2" stroke-linecap="round" stroke-linejoin="round" stroke-miterlimit="10" points="
				36.632,48.407 20.714,-5.146 52.55,-5.146 			"/>
		</g>
		<g clip-path="url(#SVGID_18_)">
			
				<polygon fill="#595959" stroke="#000000" stroke-width="2" stroke-linecap="round" stroke-linejoin="round" stroke-miterlimit="10" points="
				184.007,48.407 168.089,-5.146 199.925,-5.146 			"/>
		</g>
		<g clip-path="url(#SVGID_18_)">
			
				<polygon fill="#595959" stroke="#000000" stroke-width="2" stroke-linecap="round" stroke-linejoin="round" stroke-miterlimit="10" points="
				109.681,-40.464 125.599,13.088 93.763,13.088 			"/>
			
				<path fill="#949494" stroke="#000000" stroke-width="2" stroke-linecap="round" stroke-linejoin="round" stroke-miterlimit="10" d="
				M109.688,23.09c0-6.902-1.875-12.5,12.5-12.5c6.904,0,12.502,5.598,12.502,12.5c0,6.905-5.598,12.502-12.502,12.502
				C115.284,35.593,109.688,29.995,109.688,23.09z"/>
			
				<path fill="#A3A3A3" stroke="#000000" stroke-width="2" stroke-linecap="round" stroke-linejoin="round" stroke-miterlimit="10" d="
				M85.31,23.09c0-6.902,5.598-12.5,12.502-12.5c15.002,0,12.502,5.598,12.502,12.5c0,6.905-5.598,12.502-12.502,12.502
				S85.31,29.995,85.31,23.09z"/>
			
				<circle fill="#BABABA" stroke="#000000" stroke-width="2" stroke-linecap="round" stroke-linejoin="round" stroke-miterlimit="10" cx="109.682" cy="35.905" r="12.501"/>
		</g>
		<g clip-path="url(#SVGID_18_)">
			
				<polygon fill="#595959" stroke="#000000" stroke-width="2" stroke-linecap="round" stroke-linejoin="round" stroke-miterlimit="10" points="
				36.632,268.407 20.714,214.854 52.55,214.854 			"/>
			
				<path fill="#949494" stroke="#000000" stroke-width="2" stroke-linecap="round" stroke-linejoin="round" stroke-miterlimit="10" d="
				M36.625,204.852c0,6.903,1.875,12.5-12.501,12.5c-6.904,0-12.502-5.598-12.502-12.5c0-6.905,5.598-12.501,12.502-12.501
				S36.625,197.947,36.625,204.852z"/>
			
				<path fill="#A3A3A3" stroke="#000000" stroke-width="2" stroke-linecap="round" stroke-linejoin="round" stroke-miterlimit="10" d="
				M61.003,204.852c0,6.903-5.598,12.5-12.502,12.5c-15.001,0-12.501-5.598-12.501-12.5c0-6.905,5.597-12.501,12.501-12.501
				S61.003,197.947,61.003,204.852z"/>
			
				<circle fill="#BABABA" stroke="#000000" stroke-width="2" stroke-linecap="round" stroke-linejoin="round" stroke-miterlimit="10" cx="36.631" cy="192.038" r="12.501"/>
		</g>
		<g clip-path="url(#SVGID_18_)">
			
				<polygon fill="#595959" stroke="#000000" stroke-width="2" stroke-linecap="round" stroke-linejoin="round" stroke-miterlimit="10" points="
				184.007,268.407 168.089,214.854 199.925,214.854 			"/>
			
				<path fill="#949494" stroke="#000000" stroke-width="2" stroke-linecap="round" stroke-linejoin="round" stroke-miterlimit="10" d="
				M183.999,204.852c0,6.903,1.876,12.5-12.5,12.5c-6.905,0-12.502-5.598-12.502-12.5c0-6.905,5.597-12.501,12.502-12.501
				C178.403,192.35,183.999,197.947,183.999,204.852z"/>
			
				<path fill="#A3A3A3" stroke="#000000" stroke-width="2" stroke-linecap="round" stroke-linejoin="round" stroke-miterlimit="10" d="
				M208.378,204.852c0,6.903-5.598,12.5-12.502,12.5c-15.001,0-12.501-5.598-12.501-12.5c0-6.905,5.597-12.501,12.501-12.501
				S208.378,197.947,208.378,204.852z"/>
			
				<circle fill="#BABABA" stroke="#000000" stroke-width="2" stroke-linecap="round" stroke-linejoin="round" stroke-miterlimit="10" cx="184.006" cy="192.038" r="12.501"/>
		</g>
		<g clip-path="url(#SVGID_18_)">
			
				<polygon fill="#595959" stroke="#000000" stroke-width="2" stroke-linecap="round" stroke-linejoin="round" stroke-miterlimit="10" points="
				109.681,179.536 125.599,233.088 93.763,233.088 			"/>
		</g>
		<g clip-path="url(#SVGID_18_)">
			
				<path fill="#707070" stroke="#000000" stroke-width="2" stroke-linecap="round" stroke-linejoin="round" stroke-miterlimit="10" d="
				M140.702,70.111c0-3.221,2.61-5.832,5.83-5.832l0,0c3.22,0,5.831,2.611,5.831,5.832v36.329c0,3.22-2.611,5.83-5.831,5.83l0,0
				c-3.219,0-5.83-2.61-5.83-5.83V70.111z"/>
			
				<path fill="#BABABA" stroke="#000000" stroke-width="2" stroke-linecap="round" stroke-linejoin="round" stroke-miterlimit="10" d="
				M129.264,109.339c0-5.316,4.31-9.627,9.627-9.627h15.281c5.316,0,9.627,4.311,9.627,9.627v33.902
				c0,4.371-2.466,20.057-17.268,20.057c-14.8,0-17.267-14.738-17.267-20.057V109.339z"/>
			
				<path fill="#303030" stroke="#000000" stroke-width="2" stroke-linecap="round" stroke-linejoin="round" stroke-miterlimit="10" d="
				M129.264,111.373v31.869c0,5.318,2.467,20.057,17.267,20.057c14.802,0,17.268-15.686,17.268-20.057v-31.869H129.264z"/>
		</g>
		<g clip-path="url(#SVGID_18_)">
			
				<path fill="#707070" stroke="#000000" stroke-width="2" stroke-linecap="round" stroke-linejoin="round" stroke-miterlimit="10" d="
				M66.856,70.111c0-3.221,2.61-5.832,5.83-5.832l0,0c3.22,0,5.831,2.611,5.831,5.832v36.329c0,3.22-2.611,5.83-5.831,5.83l0,0
				c-3.22,0-5.83-2.61-5.83-5.83V70.111z"/>
			
				<path fill="#BABABA" stroke="#000000" stroke-width="2" stroke-linecap="round" stroke-linejoin="round" stroke-miterlimit="10" d="
				M55.418,109.339c0-5.316,4.31-9.627,9.627-9.627h15.281c5.316,0,9.627,4.311,9.627,9.627v33.902
				c0,4.371-2.466,20.057-17.268,20.057c-14.801,0-17.268-14.738-17.268-20.057V109.339z"/>
			
				<path fill="#303030" stroke="#000000" stroke-width="2" stroke-linecap="round" stroke-linejoin="round" stroke-miterlimit="10" d="
				M55.418,111.373v31.869c0,5.318,2.467,20.057,17.268,20.057c14.801,0,17.268-15.686,17.268-20.057v-31.869H55.418z"/>
		</g>
		
			<circle clip-path="url(#SVGID_18_)" fill="#949494" stroke="#000000" stroke-width="2" stroke-linecap="round" stroke-linejoin="round" stroke-miterlimit="10" cx="219.608" cy="113.788" r="16.499"/>
		
			<circle clip-path="url(#SVGID_18_)" fill="none" stroke="#000000" stroke-width="2" stroke-linecap="round" stroke-linejoin="round" stroke-miterlimit="10" cx="219.608" cy="113.788" r="32.998"/>
		
			<circle clip-path="url(#SVGID_18_)" fill="#949494" stroke="#000000" stroke-width="2" stroke-linecap="round" stroke-linejoin="round" stroke-miterlimit="10" cx="-0.392" cy="113.788" r="16.499"/>
		
			<circle clip-path="url(#SVGID_18_)" fill="none" stroke="#000000" stroke-width="2" stroke-linecap="round" stroke-linejoin="round" stroke-miterlimit="10" cx="-0.392" cy="113.788" r="32.998"/>
	</g>
</g>
</svg>
