<?xml version="1.0" encoding="utf-8"?>
<!-- Generator: Adobe Illustrator 16.0.0, SVG Export Plug-In . SVG Version: 6.00 Build 0)  -->
<!DOCTYPE svg PUBLIC "-//W3C//DTD SVG 1.1//EN" "http://www.w3.org/Graphics/SVG/1.1/DTD/svg11.dtd">
<svg version="1.1" xmlns="http://www.w3.org/2000/svg" xmlns:xlink="http://www.w3.org/1999/xlink" x="0px" y="0px" width="220px"
	 height="220px" viewBox="0 0 220 220" enable-background="new 0 0 220 220" xml:space="preserve">
<g id="bg" display="none">
</g>
<g id="Layer_3">
</g>
<g id="Layer_1">
	<g>
		<defs>
			<rect id="SVGID_29_" x="-4890.076" y="-300" width="220" height="220"/>
		</defs>
		<clipPath id="SVGID_2_">
			<use xlink:href="#SVGID_29_"  overflow="visible"/>
		</clipPath>
	</g>
	<g>
		<defs>
			<rect id="SVGID_31_" x="-3690.076" y="-300" width="220" height="220"/>
		</defs>
		<clipPath id="SVGID_4_">
			<use xlink:href="#SVGID_31_"  overflow="visible"/>
		</clipPath>
	</g>
	<g>
		<defs>
			<rect id="SVGID_33_" x="-3090.076" y="-300" width="220" height="220"/>
		</defs>
		<clipPath id="SVGID_6_">
			<use xlink:href="#SVGID_33_"  overflow="visible"/>
		</clipPath>
	</g>
	<g>
		<defs>
			<rect id="SVGID_35_" x="-3390.076" y="-300" width="220" height="220"/>
		</defs>
		<clipPath id="SVGID_8_">
			<use xlink:href="#SVGID_35_"  overflow="visible"/>
		</clipPath>
	</g>
	<g>
		<defs>
			<rect id="SVGID_37_" x="-4590.076" y="-300" width="220" height="220"/>
		</defs>
		<clipPath id="SVGID_10_">
			<use xlink:href="#SVGID_37_"  overflow="visible"/>
		</clipPath>
	</g>
	<g>
		<defs>
			<rect id="SVGID_39_" x="-3990.076" y="-300" width="220" height="220"/>
		</defs>
		<clipPath id="SVGID_12_">
			<use xlink:href="#SVGID_39_"  overflow="visible"/>
		</clipPath>
	</g>
	<g>
		<defs>
			<rect id="SVGID_411_" x="-1500" y="-300" width="220" height="220"/>
		</defs>
		<clipPath id="SVGID_14_">
			<use xlink:href="#SVGID_411_"  overflow="visible"/>
		</clipPath>
	</g>
	<g>
		<defs>
			<rect id="SVGID_413_" x="-300" y="-300" width="220" height="220"/>
		</defs>
		<clipPath id="SVGID_16_">
			<use xlink:href="#SVGID_413_"  overflow="visible"/>
		</clipPath>
	</g>
	<g>
		<defs>
			<rect id="SVGID_417_" x="0" y="-300" width="220" height="220"/>
		</defs>
		<clipPath id="SVGID_18_">
			<use xlink:href="#SVGID_417_"  overflow="visible"/>
		</clipPath>
	</g>
	<g>
		<defs>
			<rect id="SVGID_419_" x="-1200" y="-300" width="220" height="220"/>
		</defs>
		<clipPath id="SVGID_20_">
			<use xlink:href="#SVGID_419_"  overflow="visible"/>
		</clipPath>
	</g>
	<g>
		<defs>
			<rect id="SVGID_421_" x="-600" y="-300" width="220" height="220"/>
		</defs>
		<clipPath id="SVGID_22_">
			<use xlink:href="#SVGID_421_"  overflow="visible"/>
		</clipPath>
	</g>
	<g>
		<defs>
			<rect id="SVGID_617_" width="220" height="220"/>
		</defs>
		<clipPath id="SVGID_24_">
			<use xlink:href="#SVGID_617_"  overflow="visible"/>
		</clipPath>
		<g clip-path="url(#SVGID_24_)">
			<g>
				<rect fill="#FFFFFF" width="220.001" height="220"/>
			</g>
		</g>
		<g clip-path="url(#SVGID_24_)">
			
				<line fill="#C7C7C7" stroke="#000000" stroke-width="2" stroke-linecap="round" stroke-linejoin="round" stroke-miterlimit="10" x1="109.395" y1="169.756" x2="109.395" y2="208.596"/>
			<g>
				
					<path fill="#949494" stroke="#000000" stroke-width="2" stroke-linecap="round" stroke-linejoin="round" stroke-miterlimit="10" d="
					M125.031,158.641c5.221-2.087,8.369-6.926,7.182-11.463c-1.26-4.806-6.934-7.521-12.887-6.294
					c-0.371-5.611-4.002-10.101-8.682-10.371c-4.961-0.289-9.297,4.269-9.969,10.312c-5.451-1.383-10.841,0.683-12.546,5.05
					c-1.807,4.63,1.188,10.161,6.727,12.668c-2.998,4.757-2.701,10.522,0.926,13.493c3.846,3.149,10.031,2.011,14.127-2.482
					c3.598,4.321,9.174,5.82,13.119,3.289C127.211,170.158,128.039,163.923,125.031,158.641z"/>
				
					<path fill="#545454" stroke="#000000" stroke-width="2" stroke-linecap="round" stroke-linejoin="round" stroke-miterlimit="10" d="
					M119.218,156.615c3.165-1.265,5.075-4.2,4.354-6.949c-0.764-2.916-4.203-4.56-7.813-3.816c-0.227-3.402-2.426-6.123-5.264-6.287
					c-3.008-0.176-5.637,2.587-6.045,6.25c-3.305-0.837-6.572,0.415-7.605,3.063c-1.096,2.807,0.721,6.16,4.078,7.68
					c-1.818,2.884-1.637,6.38,0.561,8.181c2.332,1.908,6.082,1.219,8.564-1.506c2.182,2.621,5.563,3.528,7.955,1.993
					C120.539,163.598,121.041,159.816,119.218,156.615z"/>
				
					<circle fill="#D4D4D4" stroke="#000000" stroke-width="2" stroke-linecap="round" stroke-linejoin="round" stroke-miterlimit="10" cx="110.179" cy="153.651" r="5.125"/>
			</g>
			
				<path fill="#7A7A7A" stroke="#000000" stroke-width="2" stroke-linecap="round" stroke-linejoin="round" stroke-miterlimit="10" d="
				M109.363,209.474c0,0-6.383-4.452-10.301-11.998c-3.918-7.546-3.885-15.328-3.885-15.328s6.381,4.452,10.299,11.999
				C109.395,201.691,109.363,209.474,109.363,209.474z"/>
			
				<path fill="#7A7A7A" stroke="#000000" stroke-width="2" stroke-linecap="round" stroke-linejoin="round" stroke-miterlimit="10" d="
				M123.613,182.148c0,0-6.383,4.452-10.301,11.999c-3.918,7.544-3.885,15.327-3.885,15.327s6.381-4.452,10.299-11.998
				C123.645,189.93,123.613,182.148,123.613,182.148z"/>
		</g>
		<g clip-path="url(#SVGID_24_)">
			<g>
				
					<path fill="#383838" stroke="#000000" stroke-width="2" stroke-linecap="round" stroke-linejoin="round" stroke-miterlimit="10" d="
					M53.842,174.748c0,0-5.932-6.772-5.572-14.784s6.875-14.227,6.875-14.227s5.932,6.773,5.572,14.785
					S53.842,174.748,53.842,174.748z"/>
				
					<line fill="#C7C7C7" stroke="#000000" stroke-width="2" stroke-linecap="round" stroke-linejoin="round" stroke-miterlimit="10" x1="55.137" y1="174.096" x2="55.137" y2="207.936"/>
				
					<path fill="#595959" stroke="#000000" stroke-width="2" stroke-linecap="round" stroke-linejoin="round" stroke-miterlimit="10" d="
					M54.242,174.939c0,0-8.524-2.899-12.217-10.017c-3.695-7.117-1.16-15.758-1.16-15.758s8.523,2.9,12.217,10.018
					C56.777,166.299,54.242,174.939,54.242,174.939z"/>
				
					<path fill="#595959" stroke="#000000" stroke-width="2" stroke-linecap="round" stroke-linejoin="round" stroke-miterlimit="10" d="
					M53.992,174.573c0,0-1.752-8.832,2.564-15.59c4.318-6.758,13.066-8.883,13.066-8.883s1.752,8.832-2.566,15.589
					C62.742,172.449,53.992,174.573,53.992,174.573z"/>
				
					<path fill="#9C9C9C" stroke="#000000" stroke-width="2" stroke-linecap="round" stroke-linejoin="round" stroke-miterlimit="10" d="
					M54.209,174.496c0,0,2.898-8.523,10.016-12.219c7.117-3.693,15.758-1.16,15.758-1.16s-2.9,8.526-10.018,12.219
					C62.85,177.031,54.209,174.496,54.209,174.496z"/>
				
					<path fill="#9C9C9C" stroke="#000000" stroke-width="2" stroke-linecap="round" stroke-linejoin="round" stroke-miterlimit="10" d="
					M54.242,174.939c0,0-8.83,1.75-15.59-2.565c-6.758-4.317-8.883-13.066-8.883-13.066s8.832-1.75,15.59,2.566
					C52.119,166.189,54.242,174.939,54.242,174.939z"/>
			</g>
			
				<path fill="#7A7A7A" stroke="#000000" stroke-width="2" stroke-linecap="round" stroke-linejoin="round" stroke-miterlimit="10" d="
				M55.152,209.474c0,0-6.383-4.452-10.299-11.998c-3.918-7.546-3.887-15.328-3.887-15.328s6.383,4.452,10.301,11.999
				C55.184,201.691,55.152,209.474,55.152,209.474z"/>
			
				<path fill="#7A7A7A" stroke="#000000" stroke-width="2" stroke-linecap="round" stroke-linejoin="round" stroke-miterlimit="10" d="
				M69.402,182.148c0,0-6.383,4.452-10.299,11.999c-3.918,7.544-3.887,15.327-3.887,15.327s6.383-4.452,10.301-11.998
				C69.434,189.93,69.402,182.148,69.402,182.148z"/>
		</g>
		<g clip-path="url(#SVGID_24_)">
			<g>
				
					<path fill="#383838" stroke="#000000" stroke-width="2" stroke-linecap="round" stroke-linejoin="round" stroke-miterlimit="10" d="
					M164.157,174.748c0,0-5.932-6.772-5.572-14.784s6.875-14.227,6.875-14.227s5.932,6.773,5.571,14.785
					C170.673,168.533,164.157,174.748,164.157,174.748z"/>
				
					<line fill="#C7C7C7" stroke="#000000" stroke-width="2" stroke-linecap="round" stroke-linejoin="round" stroke-miterlimit="10" x1="165.452" y1="174.096" x2="165.452" y2="207.936"/>
				
					<path fill="#595959" stroke="#000000" stroke-width="2" stroke-linecap="round" stroke-linejoin="round" stroke-miterlimit="10" d="
					M164.558,174.939c0,0-8.524-2.899-12.217-10.017c-3.695-7.117-1.16-15.758-1.16-15.758s8.523,2.9,12.217,10.018
					C167.092,166.299,164.558,174.939,164.558,174.939z"/>
				
					<path fill="#595959" stroke="#000000" stroke-width="2" stroke-linecap="round" stroke-linejoin="round" stroke-miterlimit="10" d="
					M164.308,174.573c0,0-1.752-8.832,2.564-15.59c4.318-6.758,13.066-8.883,13.066-8.883s1.752,8.832-2.566,15.589
					C173.058,172.449,164.308,174.573,164.308,174.573z"/>
				
					<path fill="#9C9C9C" stroke="#000000" stroke-width="2" stroke-linecap="round" stroke-linejoin="round" stroke-miterlimit="10" d="
					M164.524,174.496c0,0,2.898-8.523,10.016-12.219c7.117-3.693,15.757-1.16,15.757-1.16s-2.899,8.526-10.018,12.219
					C173.164,177.031,164.524,174.496,164.524,174.496z"/>
				
					<path fill="#9C9C9C" stroke="#000000" stroke-width="2" stroke-linecap="round" stroke-linejoin="round" stroke-miterlimit="10" d="
					M164.558,174.939c0,0-8.83,1.75-15.59-2.565c-6.757-4.317-8.882-13.066-8.882-13.066s8.831-1.75,15.59,2.566
					C162.435,166.189,164.558,174.939,164.558,174.939z"/>
			</g>
			
				<path fill="#7A7A7A" stroke="#000000" stroke-width="2" stroke-linecap="round" stroke-linejoin="round" stroke-miterlimit="10" d="
				M165.467,209.474c0,0-6.382-4.452-10.298-11.998c-3.919-7.546-3.887-15.328-3.887-15.328s6.382,4.452,10.301,11.999
				C165.499,201.691,165.467,209.474,165.467,209.474z"/>
			
				<path fill="#7A7A7A" stroke="#000000" stroke-width="2" stroke-linecap="round" stroke-linejoin="round" stroke-miterlimit="10" d="
				M179.717,182.148c0,0-6.382,4.452-10.298,11.999c-3.919,7.544-3.888,15.327-3.888,15.327s6.384-4.452,10.301-11.998
				C179.748,189.93,179.717,182.148,179.717,182.148z"/>
		</g>
		<g clip-path="url(#SVGID_24_)">
			<g>
				
					<line fill="#D4D4D4" stroke="#000000" stroke-width="2" stroke-linecap="round" stroke-linejoin="round" stroke-miterlimit="10" x1="-0.033" y1="170.166" x2="-0.033" y2="209.006"/>
				
					<path fill="#D4D4D4" stroke="#000000" stroke-width="2" stroke-linecap="round" stroke-linejoin="round" stroke-miterlimit="10" d="
					M5.15,144.947l-4.774-8.392l-4.825,8.346l-8.779-8.405c0,0-0.084,18.24-0.093,19.957c-0.033,7.225,5.465,13.162,12.549,13.713
					l2.37-0.014c6.92-0.65,12.292-6.468,12.325-13.572c0.008-1.715,0.092-19.957,0.092-19.957L5.15,144.947z"/>
			</g>
			
				<path fill="#7A7A7A" stroke="#000000" stroke-width="2" stroke-linecap="round" stroke-linejoin="round" stroke-miterlimit="10" d="
				M-0.393,209.474c0,0-6.383-4.452-10.3-11.998c-3.918-7.546-3.886-15.328-3.886-15.328s6.382,4.452,10.3,11.999
				C-0.361,201.691-0.393,209.474-0.393,209.474z"/>
			
				<path fill="#7A7A7A" stroke="#000000" stroke-width="2" stroke-linecap="round" stroke-linejoin="round" stroke-miterlimit="10" d="
				M13.857,182.148c0,0-6.383,4.452-10.3,11.999c-3.918,7.544-3.886,15.327-3.886,15.327s6.382-4.452,10.3-11.998
				C13.889,189.93,13.857,182.148,13.857,182.148z"/>
		</g>
		<g clip-path="url(#SVGID_24_)">
			
				<rect x="8.312" y="200.601" transform="matrix(0.7071 0.7071 -0.7071 0.7071 163.7236 44.8201)" fill="#D4D4D4" width="38.892" height="38.892"/>
			<path d="M27.758,248.547c-0.265,0-0.52-0.106-0.708-0.293l-27.5-27.5c-0.188-0.188-0.293-0.442-0.293-0.707
				s0.105-0.52,0.293-0.707l27.5-27.5c0.375-0.375,1.04-0.375,1.415,0l27.499,27.5c0.391,0.391,0.391,1.023,0,1.414l-27.499,27.5
				C28.277,248.441,28.023,248.547,27.758,248.547z M1.671,220.047l26.086,26.086l26.084-26.086l-26.084-26.086L1.671,220.047z"/>
		</g>
		<g clip-path="url(#SVGID_24_)">
			
				<rect x="63.312" y="200.601" transform="matrix(0.7071 0.7071 -0.7071 0.7071 179.832 5.9299)" fill="#D4D4D4" width="38.892" height="38.892"/>
			<path d="M82.758,248.547c-0.265,0-0.52-0.106-0.708-0.293l-27.5-27.5c-0.188-0.188-0.293-0.442-0.293-0.707
				s0.105-0.52,0.293-0.707l27.5-27.5c0.375-0.375,1.04-0.375,1.415,0l27.499,27.5c0.391,0.391,0.391,1.023,0,1.414l-27.499,27.5
				C83.277,248.441,83.023,248.547,82.758,248.547z M56.671,220.047l26.086,26.086l26.084-26.086l-26.084-26.086L56.671,220.047z"/>
		</g>
		<g clip-path="url(#SVGID_24_)">
			
				<rect x="118.312" y="200.601" transform="matrix(0.7071 0.7071 -0.7071 0.7071 195.9405 -32.9603)" fill="#D4D4D4" width="38.892" height="38.892"/>
			<path d="M137.758,248.547c-0.265,0-0.52-0.106-0.708-0.293l-27.5-27.5c-0.188-0.188-0.293-0.442-0.293-0.707
				s0.105-0.52,0.293-0.707l27.5-27.5c0.375-0.375,1.04-0.375,1.415,0l27.499,27.5c0.391,0.391,0.391,1.023,0,1.414l-27.499,27.5
				C138.277,248.441,138.023,248.547,137.758,248.547z M111.671,220.047l26.086,26.086l26.084-26.086l-26.084-26.086
				L111.671,220.047z"/>
		</g>
		<g clip-path="url(#SVGID_24_)">
			
				<rect x="173.312" y="200.601" transform="matrix(0.7071 0.7071 -0.7071 0.7071 212.0489 -71.8505)" fill="#D4D4D4" width="38.892" height="38.892"/>
			<path d="M192.758,248.547c-0.265,0-0.52-0.106-0.708-0.293l-27.5-27.5c-0.188-0.188-0.293-0.442-0.293-0.707
				s0.105-0.52,0.293-0.707l27.5-27.5c0.375-0.375,1.04-0.375,1.415,0l27.499,27.5c0.391,0.391,0.391,1.023,0,1.414l-27.499,27.5
				C193.277,248.441,193.023,248.547,192.758,248.547z M166.671,220.047l26.086,26.086l26.084-26.086l-26.084-26.086
				L166.671,220.047z"/>
		</g>
		<g clip-path="url(#SVGID_24_)">
			
				<line fill="#C7C7C7" stroke="#000000" stroke-width="2" stroke-linecap="round" stroke-linejoin="round" stroke-miterlimit="10" x1="110.672" y1="50.245" x2="110.672" y2="11.405"/>
			<g>
				
					<path fill="#949494" stroke="#000000" stroke-width="2" stroke-linecap="round" stroke-linejoin="round" stroke-miterlimit="10" d="
					M95.035,61.36c-5.221,2.086-8.369,6.926-7.182,11.463c1.26,4.807,6.934,7.521,12.887,6.294c0.371,5.61,4.002,10.102,8.682,10.37
					c4.961,0.289,9.296-4.269,9.969-10.311c5.451,1.381,10.842-0.684,12.547-5.051c1.807-4.631-1.188-10.162-6.727-12.668
					c2.998-4.757,2.701-10.522-0.926-13.494c-3.846-3.149-10.031-2.01-14.127,2.482c-3.598-4.321-9.174-5.819-13.119-3.288
					C92.855,49.843,92.027,56.077,95.035,61.36z"/>
				
					<path fill="#545454" stroke="#000000" stroke-width="2" stroke-linecap="round" stroke-linejoin="round" stroke-miterlimit="10" d="
					M100.848,63.386c-3.164,1.266-5.074,4.2-4.354,6.949c0.764,2.916,4.203,4.562,7.813,3.816c0.227,3.402,2.426,6.123,5.264,6.288
					c3.008,0.176,5.637-2.587,6.045-6.25c3.305,0.837,6.572-0.416,7.605-3.063c1.096-2.807-0.721-6.159-4.078-7.679
					c1.818-2.884,1.637-6.382-0.561-8.182c-2.332-1.908-6.082-1.218-8.564,1.507c-2.182-2.623-5.563-3.531-7.955-1.996
					C99.527,56.403,99.025,60.185,100.848,63.386z"/>
				
					<circle fill="#D4D4D4" stroke="#000000" stroke-width="2" stroke-linecap="round" stroke-linejoin="round" stroke-miterlimit="10" cx="109.888" cy="66.35" r="5.125"/>
			</g>
			
				<path fill="#7A7A7A" stroke="#000000" stroke-width="2" stroke-linecap="round" stroke-linejoin="round" stroke-miterlimit="10" d="
				M110.703,10.526c0,0,6.383,4.454,10.301,11.998c3.918,7.547,3.885,15.33,3.885,15.33s-6.381-4.452-10.299-11.998
				C110.672,18.31,110.703,10.526,110.703,10.526z"/>
			
				<path fill="#7A7A7A" stroke="#000000" stroke-width="2" stroke-linecap="round" stroke-linejoin="round" stroke-miterlimit="10" d="
				M96.453,37.854c0,0,6.383-4.452,10.301-11.998c3.918-7.546,3.885-15.33,3.885-15.33s-6.381,4.454-10.299,12
				C96.422,30.071,96.453,37.854,96.453,37.854z"/>
		</g>
		<g clip-path="url(#SVGID_24_)">
			<g>
				
					<path fill="#383838" stroke="#000000" stroke-width="2" stroke-linecap="round" stroke-linejoin="round" stroke-miterlimit="10" d="
					M166.225,45.253c0,0,5.933,6.773,5.572,14.783c-0.358,8.012-6.875,14.227-6.875,14.227s-5.932-6.774-5.572-14.783
					C159.709,51.468,166.225,45.253,166.225,45.253z"/>
				
					<line fill="#C7C7C7" stroke="#000000" stroke-width="2" stroke-linecap="round" stroke-linejoin="round" stroke-miterlimit="10" x1="164.93" y1="45.905" x2="164.93" y2="12.065"/>
				
					<path fill="#595959" stroke="#000000" stroke-width="2" stroke-linecap="round" stroke-linejoin="round" stroke-miterlimit="10" d="
					M165.824,45.063c0,0,8.524,2.899,12.218,10.017c3.695,7.117,1.16,15.757,1.16,15.757s-8.523-2.899-12.218-10.018
					C163.289,53.702,165.824,45.063,165.824,45.063z"/>
				
					<path fill="#595959" stroke="#000000" stroke-width="2" stroke-linecap="round" stroke-linejoin="round" stroke-miterlimit="10" d="
					M166.074,45.427c0,0,1.752,8.832-2.564,15.59c-4.318,6.76-13.066,8.885-13.066,8.885s-1.752-8.832,2.566-15.589
					C157.324,47.552,166.074,45.427,166.074,45.427z"/>
				
					<path fill="#9C9C9C" stroke="#000000" stroke-width="2" stroke-linecap="round" stroke-linejoin="round" stroke-miterlimit="10" d="
					M165.857,45.505c0,0-2.898,8.523-10.016,12.219c-7.117,3.694-15.758,1.16-15.758,1.16s2.9-8.526,10.018-12.218
					C157.217,42.97,165.857,45.505,165.857,45.505z"/>
				
					<path fill="#9C9C9C" stroke="#000000" stroke-width="2" stroke-linecap="round" stroke-linejoin="round" stroke-miterlimit="10" d="
					M165.824,45.063c0,0,8.831-1.75,15.591,2.565c6.758,4.316,8.882,13.066,8.882,13.066s-8.832,1.75-15.589-2.566
					C167.947,53.813,165.824,45.063,165.824,45.063z"/>
			</g>
			
				<path fill="#7A7A7A" stroke="#000000" stroke-width="2" stroke-linecap="round" stroke-linejoin="round" stroke-miterlimit="10" d="
				M164.914,10.526c0,0,6.383,4.454,10.299,11.998c3.919,7.547,3.887,15.33,3.887,15.33s-6.382-4.452-10.3-11.998
				C164.883,18.31,164.914,10.526,164.914,10.526z"/>
			
				<path fill="#7A7A7A" stroke="#000000" stroke-width="2" stroke-linecap="round" stroke-linejoin="round" stroke-miterlimit="10" d="
				M150.664,37.854c0,0,6.383-4.452,10.299-11.998c3.918-7.546,3.887-15.33,3.887-15.33s-6.383,4.454-10.301,12
				C150.633,30.071,150.664,37.854,150.664,37.854z"/>
		</g>
		<g clip-path="url(#SVGID_24_)">
			<g>
				
					<path fill="#383838" stroke="#000000" stroke-width="2" stroke-linecap="round" stroke-linejoin="round" stroke-miterlimit="10" d="
					M55.91,45.253c0,0,5.932,6.773,5.572,14.783c-0.359,8.012-6.875,14.227-6.875,14.227s-5.932-6.774-5.572-14.783
					C49.395,51.468,55.91,45.253,55.91,45.253z"/>
				
					<line fill="#C7C7C7" stroke="#000000" stroke-width="2" stroke-linecap="round" stroke-linejoin="round" stroke-miterlimit="10" x1="54.615" y1="45.905" x2="54.615" y2="12.065"/>
				
					<path fill="#595959" stroke="#000000" stroke-width="2" stroke-linecap="round" stroke-linejoin="round" stroke-miterlimit="10" d="
					M55.51,45.063c0,0,8.523,2.899,12.217,10.017c3.695,7.117,1.16,15.757,1.16,15.757s-8.523-2.899-12.217-10.018
					C52.975,53.702,55.51,45.063,55.51,45.063z"/>
				
					<path fill="#595959" stroke="#000000" stroke-width="2" stroke-linecap="round" stroke-linejoin="round" stroke-miterlimit="10" d="
					M55.76,45.427c0,0,1.752,8.832-2.564,15.59c-4.318,6.76-13.066,8.885-13.066,8.885s-1.752-8.832,2.566-15.589
					C47.01,47.552,55.76,45.427,55.76,45.427z"/>
				
					<path fill="#9C9C9C" stroke="#000000" stroke-width="2" stroke-linecap="round" stroke-linejoin="round" stroke-miterlimit="10" d="
					M55.543,45.505c0,0-2.898,8.523-10.016,12.219c-7.117,3.694-15.758,1.16-15.758,1.16s2.9-8.526,10.018-12.218
					C46.902,42.97,55.543,45.505,55.543,45.505z"/>
				
					<path fill="#9C9C9C" stroke="#000000" stroke-width="2" stroke-linecap="round" stroke-linejoin="round" stroke-miterlimit="10" d="
					M55.51,45.063c0,0,8.83-1.75,15.59,2.565c6.758,4.316,8.883,13.066,8.883,13.066s-8.832,1.75-15.59-2.566
					C57.633,53.813,55.51,45.063,55.51,45.063z"/>
			</g>
			
				<path fill="#7A7A7A" stroke="#000000" stroke-width="2" stroke-linecap="round" stroke-linejoin="round" stroke-miterlimit="10" d="
				M54.6,10.526c0,0,6.383,4.454,10.299,11.998c3.918,7.547,3.887,15.33,3.887,15.33s-6.383-4.452-10.301-11.998
				C54.568,18.31,54.6,10.526,54.6,10.526z"/>
			
				<path fill="#7A7A7A" stroke="#000000" stroke-width="2" stroke-linecap="round" stroke-linejoin="round" stroke-miterlimit="10" d="
				M40.35,37.854c0,0,6.383-4.452,10.299-11.998c3.918-7.546,3.887-15.33,3.887-15.33s-6.383,4.454-10.301,12
				C40.318,30.071,40.35,37.854,40.35,37.854z"/>
		</g>
		<g clip-path="url(#SVGID_24_)">
			<g>
				
					<line fill="#D4D4D4" stroke="#000000" stroke-width="2" stroke-linecap="round" stroke-linejoin="round" stroke-miterlimit="10" x1="-0.529" y1="49.835" x2="-0.529" y2="10.995"/>
				
					<path fill="#D4D4D4" stroke="#000000" stroke-width="2" stroke-linecap="round" stroke-linejoin="round" stroke-miterlimit="10" d="
					M-5.713,75.054l4.773,8.393l4.824-8.348l8.78,8.406c0,0,0.084-18.24,0.094-19.957c0.033-7.225-5.465-13.162-12.549-13.713
					l-2.371,0.014c-6.92,0.65-12.291,6.466-12.324,13.572c-0.008,1.715-0.092,19.957-0.092,19.957L-5.713,75.054z"/>
			</g>
			
				<path fill="#7A7A7A" stroke="#000000" stroke-width="2" stroke-linecap="round" stroke-linejoin="round" stroke-miterlimit="10" d="
				M-0.17,10.526c0,0,6.383,4.454,10.299,11.998c3.918,7.547,3.887,15.33,3.887,15.33S7.633,33.401,3.715,25.856
				C-0.201,18.31-0.17,10.526-0.17,10.526z"/>
			
				<path fill="#7A7A7A" stroke="#000000" stroke-width="2" stroke-linecap="round" stroke-linejoin="round" stroke-miterlimit="10" d="
				M-14.42,37.854c0,0,6.383-4.452,10.299-11.998c3.918-7.546,3.887-15.33,3.887-15.33s-6.383,4.454-10.301,12
				C-14.451,30.071-14.42,37.854-14.42,37.854z"/>
		</g>
		<g clip-path="url(#SVGID_24_)">
			<g>
				
					<line fill="#D4D4D4" stroke="#000000" stroke-width="2" stroke-linecap="round" stroke-linejoin="round" stroke-miterlimit="10" x1="219.967" y1="170.166" x2="219.967" y2="209.006"/>
				
					<path fill="#D4D4D4" stroke="#000000" stroke-width="2" stroke-linecap="round" stroke-linejoin="round" stroke-miterlimit="10" d="
					M225.15,144.947l-4.774-8.392l-4.825,8.346l-8.779-8.405c0,0-0.084,18.24-0.093,19.957c-0.033,7.225,5.465,13.162,12.549,13.713
					l2.37-0.014c6.92-0.65,12.292-6.468,12.325-13.572c0.008-1.715,0.092-19.957,0.092-19.957L225.15,144.947z"/>
			</g>
			
				<path fill="#7A7A7A" stroke="#000000" stroke-width="2" stroke-linecap="round" stroke-linejoin="round" stroke-miterlimit="10" d="
				M219.607,209.474c0,0-6.383-4.452-10.3-11.998c-3.918-7.546-3.886-15.328-3.886-15.328s6.382,4.452,10.3,11.999
				C219.639,201.691,219.607,209.474,219.607,209.474z"/>
			
				<path fill="#7A7A7A" stroke="#000000" stroke-width="2" stroke-linecap="round" stroke-linejoin="round" stroke-miterlimit="10" d="
				M233.857,182.148c0,0-6.383,4.452-10.3,11.999c-3.918,7.544-3.886,15.327-3.886,15.327s6.382-4.452,10.3-11.998
				C233.889,189.93,233.857,182.148,233.857,182.148z"/>
		</g>
		<g clip-path="url(#SVGID_24_)">
			<g>
				
					<line fill="#D4D4D4" stroke="#000000" stroke-width="2" stroke-linecap="round" stroke-linejoin="round" stroke-miterlimit="10" x1="219.471" y1="49.835" x2="219.471" y2="10.995"/>
				
					<path fill="#D4D4D4" stroke="#000000" stroke-width="2" stroke-linecap="round" stroke-linejoin="round" stroke-miterlimit="10" d="
					M214.287,75.054l4.773,8.393l4.824-8.348l8.78,8.406c0,0,0.084-18.24,0.094-19.957c0.033-7.225-5.465-13.162-12.549-13.713
					l-2.371,0.014c-6.92,0.65-12.291,6.466-12.324,13.572c-0.008,1.715-0.092,19.957-0.092,19.957L214.287,75.054z"/>
			</g>
			
				<path fill="#7A7A7A" stroke="#000000" stroke-width="2" stroke-linecap="round" stroke-linejoin="round" stroke-miterlimit="10" d="
				M219.83,10.526c0,0,6.383,4.454,10.299,11.998c3.918,7.547,3.887,15.33,3.887,15.33s-6.383-4.452-10.301-11.998
				C219.799,18.31,219.83,10.526,219.83,10.526z"/>
			
				<path fill="#7A7A7A" stroke="#000000" stroke-width="2" stroke-linecap="round" stroke-linejoin="round" stroke-miterlimit="10" d="
				M205.58,37.854c0,0,6.383-4.452,10.299-11.998c3.918-7.546,3.887-15.33,3.887-15.33s-6.383,4.454-10.301,12
				C205.549,30.071,205.58,37.854,205.58,37.854z"/>
		</g>
		<g clip-path="url(#SVGID_24_)">
			
				<rect x="172.864" y="-19.492" transform="matrix(-0.7071 -0.7071 0.7071 -0.7071 328.3278 135.9026)" fill="#D4D4D4" width="38.892" height="38.892"/>
			<path d="M192.31,28.454c-0.265,0-0.52-0.105-0.707-0.293l-27.499-27.5c-0.391-0.391-0.391-1.023,0-1.414l27.499-27.5
				c0.375-0.375,1.039-0.375,1.414,0l27.501,27.5c0.188,0.188,0.293,0.441,0.293,0.707s-0.105,0.52-0.293,0.707l-27.501,27.5
				C192.829,28.349,192.575,28.454,192.31,28.454z M166.225-0.046L192.31,26.04l26.086-26.086L192.31-26.131L166.225-0.046z"/>
		</g>
		<g clip-path="url(#SVGID_24_)">
			
				<rect x="117.862" y="-19.492" transform="matrix(-0.7071 -0.7071 0.7071 -0.7071 234.4363 97.01)" fill="#D4D4D4" width="38.892" height="38.892"/>
			<path d="M137.309,28.454L137.309,28.454c-0.265,0-0.52-0.105-0.707-0.293l-27.498-27.5c-0.391-0.391-0.391-1.023,0-1.414
				l27.498-27.5c0.375-0.375,1.039-0.375,1.414,0l27.502,27.5c0.188,0.188,0.293,0.441,0.293,0.707s-0.105,0.52-0.293,0.707
				l-27.502,27.5C137.828,28.349,137.574,28.454,137.309,28.454z M111.225-0.046l26.084,26.086l26.087-26.086l-26.087-26.085
				L111.225-0.046z"/>
		</g>
		<g clip-path="url(#SVGID_24_)">
			
				<rect x="62.862" y="-19.492" transform="matrix(-0.7071 -0.7071 0.7071 -0.7071 140.5441 58.1205)" fill="#D4D4D4" width="38.892" height="38.892"/>
			<path d="M82.309,28.454L82.309,28.454c-0.265,0-0.52-0.105-0.707-0.293l-27.498-27.5c-0.391-0.391-0.391-1.023,0-1.414
				l27.498-27.5c0.375-0.375,1.039-0.375,1.414,0l27.502,27.5c0.188,0.188,0.293,0.441,0.293,0.707s-0.105,0.52-0.293,0.707
				l-27.502,27.5C82.828,28.349,82.574,28.454,82.309,28.454z M56.225-0.046L82.309,26.04l26.087-26.086L82.309-26.131L56.225-0.046
				z"/>
		</g>
		<g clip-path="url(#SVGID_24_)">
			
				<rect x="7.862" y="-19.492" transform="matrix(-0.7071 -0.7071 0.7071 -0.7071 46.6518 19.2311)" fill="#D4D4D4" width="38.892" height="38.892"/>
			<path d="M27.309,28.454L27.309,28.454c-0.265,0-0.52-0.105-0.707-0.293l-27.498-27.5c-0.391-0.391-0.391-1.023,0-1.414
				l27.498-27.5c0.375-0.375,1.039-0.375,1.414,0l27.502,27.5c0.188,0.188,0.293,0.441,0.293,0.707s-0.105,0.52-0.293,0.707
				l-27.502,27.5C27.828,28.349,27.574,28.454,27.309,28.454z M1.225-0.046L27.309,26.04L53.396-0.046L27.309-26.131L1.225-0.046z"
				/>
		</g>
		
			<rect x="153.684" y="98.005" transform="matrix(0.7071 0.7071 -0.7071 0.7071 126.2992 -84.9319)" clip-path="url(#SVGID_24_)" fill="#545454" stroke="#000000" stroke-width="2" stroke-linecap="round" stroke-linejoin="round" stroke-miterlimit="10" width="23.988" height="23.989"/>
		
			<rect x="105.7" y="105.7" transform="matrix(0.7071 0.7071 -0.7071 0.7071 110.0001 -45.5638)" clip-path="url(#SVGID_24_)" fill="#D4D4D4" stroke="#000000" stroke-width="2" stroke-linecap="round" stroke-linejoin="round" stroke-miterlimit="10" width="8.601" height="8.6"/>
		
			<rect x="42.33" y="98.005" transform="matrix(0.7071 0.7071 -0.7071 0.7071 93.6879 -6.1965)" clip-path="url(#SVGID_24_)" fill="#545454" stroke="#000000" stroke-width="2" stroke-linecap="round" stroke-linejoin="round" stroke-miterlimit="10" width="23.988" height="23.989"/>
		<g clip-path="url(#SVGID_24_)">
			<g>
				<rect fill="none" width="220.001" height="220"/>
			</g>
		</g>
	</g>
</g>
</svg>
