<?xml version="1.0" encoding="utf-8"?>
<!-- Generator: Adobe Illustrator 16.0.0, SVG Export Plug-In . SVG Version: 6.00 Build 0)  -->
<!DOCTYPE svg PUBLIC "-//W3C//DTD SVG 1.1//EN" "http://www.w3.org/Graphics/SVG/1.1/DTD/svg11.dtd">
<svg version="1.1"
	 id="svg2" xmlns:dc="http://purl.org/dc/elements/1.1/" xmlns:rdf="http://www.w3.org/1999/02/22-rdf-syntax-ns#" xmlns:cc="http://creativecommons.org/ns#" xmlns:sodipodi="http://sodipodi.sourceforge.net/DTD/sodipodi-0.dtd" xmlns:svg="http://www.w3.org/2000/svg" xmlns:inkscape="http://www.inkscape.org/namespaces/inkscape" inkscape:version="0.91 r13725" sodipodi:docname="pivot-02.svg"
	 xmlns="http://www.w3.org/2000/svg" xmlns:xlink="http://www.w3.org/1999/xlink" x="0px" y="0px" width="1920px" height="1080px"
	 viewBox="0 0 1920 1080" enable-background="new 0 0 1920 1080" xml:space="preserve">
<g id="AREA1" transform="translate(-29.502633,5.4808424)" inkscape:label="#AREA1">
	<circle id="circle372" fill="#FFFF00" cx="172.127" cy="109.109" r="7.857"/>
	<circle id="circle374" fill="#FFFF00" cx="1272.375" cy="119.109" r="7.857"/>
	<circle id="circle376" fill="#FFFF00" cx="352.625" cy="109.109" r="7.857"/>
	<circle id="circle376_1_" fill="#FFFF00" cx="381.943" cy="305.109" r="7.857"/>
	<circle id="circle376_2_" fill="#FFFF00" cx="753.026" cy="167.115" r="7.857"/>
	<circle id="circle378" fill="#FFFF00" cx="619.542" cy="120.775" r="7.857"/>
	<circle id="circle380" fill="#FFFF00" cx="264.791" cy="275.775" r="7.857"/>
	<circle id="circle382" fill="#FFFF00" cx="760.04" cy="279.108" r="7.857"/>
	<circle id="circle384" fill="#FFFF00" cx="526.957" cy="224.108" r="7.857"/>
	<circle id="circle386" fill="#FFFF00" cx="1002.205" cy="239.108" r="7.857"/>
	<circle id="circle386_1_" fill="#FFFF00" cx="878.407" cy="331.917" r="7.857"/>
	<circle id="circle386_2_" fill="#FFFF00" cx="1100.087" cy="128.632" r="7.857"/>
	<circle id="circle388" fill="#FFFF00" cx="894.121" cy="109.109" r="7.857"/>
	<circle id="circle402" fill="#FFFF00" cx="1153.623" cy="273.109" r="7.857"/>
	<circle id="circle406" fill="#FFFF00" cx="1305.787" cy="339.775" r="7.857"/>
	<circle id="circle348-3" fill="#2A39FF" cx="314.296" cy="589.99" r="7.857"/>
	<circle id="circle269" inkscape:label="#circle356" fill="#2A39FF" cx="154.068" cy="512.636" r="7.857">
	</circle>
	<circle id="circle380-6" fill="#2A39FF" cx="265.634" cy="392.531" r="7.857"/>
	<circle id="circle382-0" fill="#2A39FF" cx="760.883" cy="395.864" r="7.857"/>
	<circle id="circle384-7" fill="#2A39FF" cx="527.799" cy="340.864" r="7.857"/>
	<circle id="circle384-7_1_" fill="#2A39FF" cx="638.467" cy="403.721" r="7.857"/>
	<circle id="circle384-7_2_" fill="#2A39FF" cx="387.656" cy="440.817" r="7.857"/>
	<circle id="circle384-7_3_" fill="#2A39FF" cx="114.447" cy="294.822" r="7.857"/>
	<circle id="circle386-3" fill="#2A39FF" cx="1003.049" cy="355.864" r="7.857"/>
	<circle id="circle390-6" fill="#2A39FF" cx="532.97" cy="471.531" r="7.857"/>
	<circle id="circle392-4" fill="#2A39FF" cx="454.885" cy="568.197" r="7.857"/>
	<circle id="circle394-2" fill="#2A39FF" cx="638.467" cy="549.864" r="7.857"/>
	<circle id="circle396-5" fill="#2A39FF" cx="805.384" cy="518.197" r="7.857"/>
	<circle id="circle396-5_1_" fill="#2A39FF" cx="901.978" cy="597.847" r="7.857"/>
	<circle id="circle396-5_2_" fill="#2A39FF" cx="1084.372" cy="645.439" r="7.857"/>
	<circle id="circle400-4" fill="#2A39FF" cx="1002.549" cy="514.864" r="7.857"/>
	<circle id="circle402-1" fill="#2A39FF" cx="1154.465" cy="389.864" r="7.857"/>
	<circle id="circle404-5" fill="#2A39FF" cx="1194.715" cy="549.864" r="7.857"/>
	<circle id="circle406-7" fill="#2A39FF" cx="1306.631" cy="456.531" r="7.857"/>
	<circle id="circle348-3-0" fill="#FF2A2A" cx="298.247" cy="964.088" r="7.857"/>
	<circle id="circle350-6-5" fill="#FF2A2A" cx="172.128" cy="1013.962" r="7.857"/>
	<circle id="circle326" inkscape:label="#circle356" fill="#FF2A2A" cx="138.019" cy="886.734" r="7.857">
	</circle>
	<circle id="circle376-8-9" fill="#FF2A2A" cx="364.086" cy="678.295" r="7.857"/>
	<circle id="circle376-8-9_1_" fill="#FF2A2A" cx="371.943" cy="814.914" r="7.857"/>
	<circle id="circle376-8-9_2_" fill="#FF2A2A" cx="130.161" cy="678.295" r="7.857"/>
	<circle id="circle378-2-9" fill="#FF2A2A" cx="799.336" cy="653.295" r="7.857"/>
	<circle id="circle380-6-1" fill="#FF2A2A" cx="249.585" cy="766.628" r="7.857"/>
	<circle id="circle382-0-5" fill="#FF2A2A" cx="744.834" cy="769.962" r="7.857"/>
	<circle id="circle382-0-5_1_" fill="#FF2A2A" cx="630.276" cy="694.009" r="7.857"/>
	<circle id="circle384-7-1" fill="#FF2A2A" cx="511.751" cy="714.962" r="7.857"/>
	<circle id="circle386-3-2" fill="#FF2A2A" cx="987" cy="729.962" r="7.857"/>
	<circle id="circle390-6-9" fill="#FF2A2A" cx="516.921" cy="845.628" r="7.857"/>
	<circle id="circle392-4-0" fill="#FF2A2A" cx="443.837" cy="915.628" r="7.857"/>
	<circle id="circle394-2-3" fill="#FF2A2A" cx="622.419" cy="923.962" r="7.857"/>
	<circle id="circle396-5-9" fill="#FF2A2A" cx="789.336" cy="892.295" r="7.857"/>
	<circle id="circle398-7-3" fill="#FF2A2A" cx="919.585" cy="1013.962" r="7.857"/>
	<circle id="circle398-7-3_1_" fill="#FF2A2A" cx="722.106" cy="1006.105" r="7.857"/>
	<circle id="circle400-4-0" fill="#FF2A2A" cx="986.501" cy="888.962" r="7.857"/>
	<circle id="circle402-1-9" fill="#FF2A2A" cx="1138.416" cy="763.962" r="7.857"/>
	<circle id="circle402-1-9_1_" fill="#FF2A2A" cx="1256.66" cy="678.295" r="7.857"/>
	<circle id="circle404-5-0" fill="#FF2A2A" cx="1178.666" cy="923.962" r="7.857"/>
	<circle id="circle406-7-2" fill="#FF2A2A" cx="1290.582" cy="830.628" r="7.857"/>
	<circle id="circle410-9-7" fill="#FF2A2A" cx="1100.087" cy="1021.819" r="7.857"/>
</g>
</svg>
