<?xml version="1.0" encoding="utf-8"?>
<!-- Generator: Adobe Illustrator 16.0.0, SVG Export Plug-In . SVG Version: 6.00 Build 0)  -->
<!DOCTYPE svg PUBLIC "-//W3C//DTD SVG 1.1//EN" "http://www.w3.org/Graphics/SVG/1.1/DTD/svg11.dtd">
<svg version="1.1" xmlns="http://www.w3.org/2000/svg" xmlns:xlink="http://www.w3.org/1999/xlink" x="0px" y="0px"
	 width="453.543px" height="453.544px" viewBox="0 0 453.543 453.544" enable-background="new 0 0 453.543 453.544"
	 xml:space="preserve">
<g id="kvadrat">
</g>
<g id="bg" display="none">
	<rect x="-1343.195" y="-2786.04" display="inline" width="15266.867" height="13678.951"/>
</g>
<g id="color" display="none">
	<g id="rdeča7bela" display="inline">
	</g>
	<g display="inline">
		
			<path fill="#009D73" stroke="#000000" stroke-width="8" stroke-linecap="round" stroke-linejoin="round" stroke-miterlimit="10" d="
			M311.646,364.083l-17.649-168.352c-0.543-7.172-6.876-13.039-14.072-13.039c0,0,17.279,0.017,17.279-35.035
			c0-20.07-16.271-36.344-36.342-36.344h-23.258V86.376h-21.666v24.938h-23.255c-20.073,0-36.343,16.273-36.343,36.344
			c0,34.554,17.276,35.035,17.276,35.035c-7.195,0-13.531,5.867-14.072,13.039l-17.648,168.352
			c-0.545,7.178,4.9,13.046,12.095,13.046h145.559C306.747,377.129,312.189,371.261,311.646,364.083z"/>
		
			<path fill="#37B34A" stroke="#000000" stroke-width="8" stroke-linecap="round" stroke-linejoin="round" stroke-miterlimit="10" d="
			M257.974,90.351l-10.465-13.936h-41.474l-10.467,13.936v11.049h62.406V90.351z M262.627,210.68h-73.849l-16.057,134.04h105.959
			L262.627,210.68z"/>
	</g>
	
		<rect x="-1853.48" y="-3206.049" display="inline" fill="none" stroke="#000000" stroke-miterlimit="10" width="16736" height="13952"/>
</g>
<g id="cb_1_">
	<g id="rdeča7bela_copy_3">
	</g>
	<g>
		<g>
			<path fill="#696969" d="M311.646,364.083l-17.649-168.352c-0.543-7.172-6.876-13.039-14.072-13.039
				c0,0,17.279,0.017,17.279-35.035c0-20.07-16.271-36.344-36.342-36.344h-23.258V86.376h-21.666v24.938h-23.255
				c-20.073,0-36.343,16.273-36.343,36.344c0,34.554,17.276,35.035,17.276,35.035c-7.195,0-13.531,5.867-14.072,13.039
				l-17.648,168.352c-0.545,7.178,4.9,13.046,12.095,13.046h145.559C306.747,377.129,312.189,371.261,311.646,364.083z"/>
			<path d="M299.551,381.129H153.992c-4.608,0-8.829-1.816-11.886-5.115c-3.056-3.297-4.546-7.642-4.197-12.234
				c0.003-0.038,0.006-0.076,0.01-0.114l17.643-168.297c0.431-5.438,3.432-10.273,7.721-13.319
				c-5.411-4.798-10.941-14.554-10.941-34.393c0-22.246,18.098-40.344,40.343-40.344h19.255V86.376c0-2.209,1.791-4,4-4h21.666
				c2.209,0,4,1.791,4,4v20.938h19.258c22.245,0,40.342,18.098,40.342,40.344c0,19.943-5.45,29.698-10.838,34.47
				c4.232,3.049,7.188,7.85,7.615,13.242l17.644,168.297c0.004,0.038,0.007,0.077,0.01,0.115c0.348,4.594-1.144,8.939-4.201,12.236
				C308.378,379.313,304.157,381.129,299.551,381.129z M145.881,364.438c-0.164,2.327,0.578,4.506,2.091,6.139
				c1.526,1.646,3.664,2.553,6.019,2.553h145.559c2.354,0,4.492-0.906,6.017-2.551c1.514-1.633,2.256-3.812,2.094-6.141
				l-17.643-168.289c-0.004-0.038-0.007-0.077-0.01-0.115c-0.384-5.063-5.001-9.341-10.084-9.341c-2.209,0-4-1.791-4-4s1.791-4,4-4
				c4.537-0.214,13.279-6.978,13.279-31.035c0-17.834-14.509-32.344-32.342-32.344h-23.258c-2.209,0-4-1.791-4-4V90.376h-13.666
				v20.938c0,2.209-1.791,4-4,4h-23.255c-17.834,0-32.343,14.509-32.343,32.344c0,29.707,12.924,31,13.474,31.041
				c2.187,0.061,3.876,1.865,3.845,4.052c-0.03,2.187-1.855,3.942-4.042,3.942c-5.083,0-9.701,4.277-10.084,9.34
				c-0.003,0.039-0.006,0.077-0.01,0.116L145.881,364.438z"/>
		</g>
		<g>
			<path fill="#828282" d="M257.974,90.351l-10.465-13.936h-41.474l-10.467,13.936v11.049h62.406V90.351z M262.627,210.68h-73.849
				l-16.057,134.04h105.959L262.627,210.68z"/>
			<path d="M278.682,348.72H172.722c-1.144,0-2.233-0.49-2.992-1.345c-0.759-0.855-1.116-1.995-0.98-3.13l16.057-134.04
				c0.241-2.011,1.947-3.524,3.972-3.524h73.849c2.025,0,3.731,1.514,3.972,3.524l16.054,134.04c0.136,1.136-0.221,2.275-0.979,3.13
				C280.914,348.23,279.825,348.72,278.682,348.72z M177.23,340.72h96.944l-15.096-126.04h-66.75L177.23,340.72z M257.974,105.399
				h-62.406c-2.209,0-4-1.791-4-4V90.351c0-0.866,0.281-1.709,0.802-2.402l10.467-13.936c0.755-1.006,1.94-1.598,3.198-1.598h41.474
				c1.258,0,2.443,0.592,3.198,1.598l10.465,13.936c0.521,0.693,0.802,1.535,0.802,2.402v11.049
				C261.974,103.608,260.183,105.399,257.974,105.399z M199.567,97.399h54.406v-5.714l-8.463-11.27h-37.477l-8.466,11.271V97.399z"
				/>
		</g>
	</g>
	<path d="M14883.02,10746.451h-16737v-13953h16737V10746.451z M-1853.48,10745.451h16736l-0.5-13951h-16735.5l0.5,13951H-1853.48z"
		/>
</g>
<g id="cb" display="none">
	<g id="rdeča7bela_copy" display="inline">
	</g>
	<g display="inline">
		<path fill="none" stroke="#000000" stroke-width="8" stroke-linecap="round" stroke-linejoin="round" stroke-miterlimit="10" d="
			M215.938,101.399v9.914h-23.255c-20.073,0-36.343,16.273-36.343,36.344c0,34.554,17.276,35.035,17.276,35.035
			c-7.195,0-13.531,5.867-14.072,13.039l-17.648,168.352c-0.545,7.178,4.9,13.046,12.095,13.046h145.559
			c7.196,0,12.639-5.868,12.096-13.046l-17.649-168.352c-0.543-7.172-6.876-13.039-14.072-13.039c0,0,17.279,0.017,17.279-35.035
			c0-20.07-16.271-36.344-36.342-36.344h-23.258v-9.914"/>
		
			<polygon fill="none" stroke="#000000" stroke-width="8" stroke-linecap="round" stroke-linejoin="round" stroke-miterlimit="10" points="
			188.779,210.68 172.722,344.72 278.682,344.72 262.627,210.68 		"/>
		
			<polyline fill="none" stroke="#000000" stroke-width="8" stroke-linecap="round" stroke-linejoin="round" stroke-miterlimit="10" points="
			237.604,101.399 257.974,101.399 257.974,90.351 247.509,76.415 206.035,76.415 195.567,90.351 195.567,101.399 215.938,101.399 
					"/>
		
			<line fill="none" stroke="#000000" stroke-width="8" stroke-linecap="round" stroke-linejoin="round" stroke-miterlimit="10" x1="237.604" y1="101.399" x2="215.938" y2="101.399"/>
	</g>
</g>
<g id="pivot">
	<circle fill="none" cx="232.388" cy="378.628" r="14.133"/>
</g>
</svg>
