<?xml version="1.0" encoding="utf-8"?>
<!-- Generator: Adobe Illustrator 16.0.0, SVG Export Plug-In . SVG Version: 6.00 Build 0)  -->
<!DOCTYPE svg PUBLIC "-//W3C//DTD SVG 1.1//EN" "http://www.w3.org/Graphics/SVG/1.1/DTD/svg11.dtd">
<svg version="1.1" xmlns="http://www.w3.org/2000/svg" xmlns:xlink="http://www.w3.org/1999/xlink" x="0px" y="0px"
	 width="453.544px" height="453.544px" viewBox="0 0 453.544 453.544" enable-background="new 0 0 453.544 453.544"
	 xml:space="preserve">
<g id="kvadrat">
</g>
<g id="bg" display="none">
	<rect x="-10527.448" y="-3296.277" display="inline" width="15266.867" height="13678.951"/>
</g>
<g id="color" display="none">
	<g id="rdeča7bela" display="inline">
	</g>
	
		<path display="inline" fill-rule="evenodd" clip-rule="evenodd" fill="#FFFFFF" stroke="#000000" stroke-width="8" stroke-linecap="round" stroke-linejoin="round" stroke-miterlimit="10" d="
		M312.815,138.78c-11.438,0-21.792,3.984-29.994,10.56c-12.084-18.099-32.696-30.062-56.003-30.062
		c-23.405,0-44.014,11.963-55.993,30.062c-8.193-6.575-18.659-10.56-30.097-10.56c-26.318,0-47.68,21.327-47.68,47.61
		c0,24.985,19.313,45.559,43.905,47.495l-10,90.38c0,0,38.635,10,101.396,10s98.242-10,98.242-10l-10-90.38
		c24.594-1.937,43.902-22.51,43.902-47.495C360.495,160.107,339.142,138.78,312.815,138.78L312.815,138.78z"/>
	
		<rect x="-11037.733" y="-3716.285" display="inline" fill="none" stroke="#000000" stroke-miterlimit="10" width="16736" height="13952"/>
</g>
<g id="cb_1_">
	<g id="rdeča7bela_copy_3">
	</g>
	<g>
		<path fill-rule="evenodd" clip-rule="evenodd" fill="#FFFFFF" d="M312.815,138.78c-11.438,0-21.792,3.984-29.994,10.56
			c-12.084-18.099-32.696-30.062-56.003-30.062c-23.405,0-44.014,11.963-55.993,30.062c-8.193-6.575-18.659-10.56-30.097-10.56
			c-26.318,0-47.68,21.327-47.68,47.61c0,24.985,19.313,45.559,43.905,47.495l-10,90.38c0,0,38.635,10,101.396,10
			s98.242-10,98.242-10l-10-90.38c24.594-1.937,43.902-22.51,43.902-47.495C360.495,160.107,339.142,138.78,312.815,138.78
			L312.815,138.78z"/>
		<path d="M228.351,338.266c-62.552,0-100.801-9.714-102.398-10.127c-1.926-0.499-3.192-2.336-2.974-4.313l9.564-86.441
			c-24.7-3.965-43.494-25.612-43.494-50.994c0-28.458,23.184-51.61,51.68-51.61c10.405,0,20.616,3.144,29.18,8.92
			c13.396-17.872,34.37-28.422,56.91-28.422c22.444,0,43.418,10.551,56.904,28.425c8.609-5.852,18.584-8.923,29.093-8.923
			c28.496,0,51.68,23.152,51.68,51.61c0,25.38-18.795,47.027-43.491,50.994l9.564,86.441c0.215,1.944-1.008,3.759-2.891,4.29
			C326.207,328.53,290.945,338.266,228.351,338.266z M131.32,321.172c10.65,2.333,45.934,9.093,97.03,9.093
			c50.765,0,83.787-6.673,93.882-9.035l-9.615-86.905c-0.119-1.076,0.203-2.155,0.894-2.989c0.689-0.834,1.688-1.354,2.768-1.438
			c22.552-1.775,40.217-20.886,40.217-43.507c0-24.047-19.595-43.61-43.68-43.61c-10.086,0-19.592,3.348-27.492,9.681
			c-0.876,0.702-2.004,1.003-3.112,0.832c-1.108-0.171-2.094-0.799-2.716-1.732c-11.825-17.71-31.517-28.283-52.677-28.283
			c-21.256,0-40.941,10.568-52.657,28.27c-0.621,0.938-1.607,1.571-2.719,1.744c-1.106,0.175-2.244-0.128-3.121-0.833
			c-7.777-6.242-17.577-9.679-27.593-9.679c-24.085,0-43.68,19.563-43.68,43.61c0,22.621,17.666,41.731,40.22,43.507
			c1.079,0.085,2.078,0.604,2.768,1.438c0.69,0.834,1.013,1.913,0.894,2.989L131.32,321.172z"/>
	</g>
	<path d="M5698.767,10236.215h-16737v-13953h16737V10236.215z M-11037.733,10235.215h16736l-0.5-13951h-16735.5l0.5,13951
		H-11037.733z"/>
</g>
<g id="cb" display="none">
	<g id="rdeča7bela_copy" display="inline">
	</g>
	
		<path display="inline" fill-rule="evenodd" clip-rule="evenodd" fill="none" stroke="#000000" stroke-width="8" stroke-linecap="round" stroke-linejoin="round" stroke-miterlimit="10" d="
		M312.815,138.78c-11.438,0-21.792,3.984-29.994,10.56c-12.084-18.099-32.696-30.062-56.003-30.062
		c-23.405,0-44.014,11.963-55.993,30.062c-8.193-6.575-18.659-10.56-30.097-10.56c-26.318,0-47.68,21.327-47.68,47.61
		c0,24.985,19.313,45.559,43.905,47.495l-10,90.38c0,0,38.635,10,101.396,10s98.242-10,98.242-10l-10-90.38
		c24.594-1.937,43.902-22.51,43.902-47.495C360.495,160.107,339.142,138.78,312.815,138.78L312.815,138.78z"/>
</g>
<g id="pivot">
	<circle fill="none" cx="227.826" cy="332.801" r="14.133"/>
</g>
</svg>
