<?xml version="1.0" encoding="utf-8"?>
<!-- Generator: Adobe Illustrator 16.0.0, SVG Export Plug-In . SVG Version: 6.00 Build 0)  -->
<!DOCTYPE svg PUBLIC "-//W3C//DTD SVG 1.1//EN" "http://www.w3.org/Graphics/SVG/1.1/DTD/svg11.dtd">
<svg version="1.1" xmlns="http://www.w3.org/2000/svg" xmlns:xlink="http://www.w3.org/1999/xlink" x="0px" y="0px"
	 width="453.543px" height="453.543px" viewBox="0 0 453.543 453.543" enable-background="new 0 0 453.543 453.543"
	 xml:space="preserve">
<g id="kvadrat">
</g>
<g id="bg" display="none">
	<rect x="-3894.376" y="-11970.294" display="inline" width="15266.867" height="13678.951"/>
</g>
<g id="barvno" display="none">
	<g id="rdeča7bela" display="inline">
	</g>
	<g display="inline">
		<g>
			<path opacity="0.5" fill="#FFFFFF" d="M323.239,99.913c-3.979-13.132-41.981-27.303-96.45-27.303
				c-54.473,0-92.481,14.171-96.459,27.303c-0.207,0.748-0.324,1.462-0.324,2.184c0.023,0.234,0.025,0.487,0.023,0.737l0.156,1.608
				c0.443,0.579,0.953,1.15,1.494,1.717l-1.392,0.014l23.048,234.563l0.449,4.962c0.932,8.965,6.938,21.293,30.345,28.896
				c17.489,5.688,36.41,6.337,42.376,6.337h0.381c5.961,0,24.877-0.649,42.371-6.337c23.403-7.604,29.426-19.908,30.342-28.848
				l0.493-5.39l23.139-235.512c0.007-0.072,0.005-0.148,0.007-0.223c0.051-0.063,0.111-0.127,0.16-0.19l0.112-1.162
				c-0.014-0.183,0-0.353,0.021-0.542C323.564,101.388,323.461,100.666,323.239,99.913z"/>
			<g>
				<path fill="#E69F00" d="M205.895,325.327c6.826,0.954,13.824,1.526,20.803,1.526c7.467,0,14.958-0.654,22.235-1.733
					c-7.289,0.656-14.918,1.01-22.745,1.01C219.232,326.13,212.438,325.848,205.895,325.327z"/>
				<path fill="#E69F00" d="M297.474,308.036c-10.142,8.298-22.068,14.704-48.541,17.084c-7.277,1.079-14.769,1.733-22.235,1.733
					c-6.979,0-13.977-0.572-20.803-1.526c-28.482-2.271-42.061-9.18-51.986-18.148c-2.052-0.899-3.173-1.425-3.168-1.396
					l2.596,34.952l0.449,4.962c0.932,8.965,6.938,21.293,30.345,28.896c17.489,5.688,36.41,6.337,42.376,6.337h0.381
					c5.961,0,24.877-0.649,42.371-6.337c23.403-7.604,29.426-19.908,30.342-28.848l0.493-5.39l2.528-34.573
					C302.625,305.745,300.777,306.623,297.474,308.036z"/>
				<path fill="#E69F00" d="M226.186,326.569c6.754,0,13.337-0.305,19.627-0.87c22.844-2.055,41.765-7.583,50.516-14.743
					c1.219-0.996,2.246-2.022,3.053-3.076l0.086-0.882c-0.011-0.139,0-0.267,0.015-0.41c0.026-1.014-0.054-1.562-0.22-2.133
					c-3.016-9.95-31.807-20.687-73.076-20.687c-41.271,0-70.069,10.736-73.082,20.687c-0.157,0.567-0.247,1.108-0.247,1.655
					c0.018,0.178,0.019,0.367,0.018,0.559l0.119,1.218c0.606,0.792,1.349,1.568,2.191,2.329c8.564,7.74,28.91,13.701,53.488,15.661
					C214.32,326.326,220.184,326.569,226.186,326.569z"/>
			</g>
			
				<path fill="#E69F00" stroke="#000000" stroke-width="8" stroke-linecap="round" stroke-linejoin="round" stroke-miterlimit="10" d="
				M151.76,307.449c3.068-10.134,32.396-21.067,74.426-21.067c42.027,0,71.35,10.934,74.419,21.067
				c0.17,0.58,0.251,1.138,0.226,2.171c-0.016,0.146-0.027,0.277-0.016,0.418l-0.087,0.897
				c-8.356,10.916-39.209,19.034-74.542,19.034c-35.327,0-66.187-8.118-74.538-19.026l-0.12-1.241c0.001-0.193,0-0.388-0.019-0.569
				C151.509,308.577,151.6,308.026,151.76,307.449z"/>
			<path fill="none" stroke="#000000" stroke-width="8" stroke-linecap="round" stroke-linejoin="round" stroke-miterlimit="10" d="
				M323.239,102.141c-10.766,14.064-50.518,24.523-96.042,24.523c-45.516,0-85.275-10.459-96.036-24.514"/>
			<path fill="none" stroke="#000000" stroke-width="8" stroke-linecap="round" stroke-linejoin="round" stroke-miterlimit="10" d="
				M323.239,99.913c-3.979-13.132-41.981-27.303-96.45-27.303c-54.473,0-92.481,14.171-96.459,27.303
				c-0.207,0.748-0.324,1.462-0.324,2.184c0.023,0.234,0.025,0.487,0.023,0.737l0.259,3.339l23.048,234.563l0.449,4.962
				c0.932,8.965,6.938,21.293,30.345,28.896c17.489,5.688,36.41,6.337,42.376,6.337h0.381c5.961,0,24.877-0.649,42.371-6.337
				c23.403-7.604,29.426-19.908,30.342-28.848l0.493-5.39l23.139-235.512c0.007-0.072,0.005-0.148,0.007-0.223
				c0.051-0.063,0.111-0.127,0.16-0.19l0.112-1.162c-0.014-0.183,0-0.353,0.021-0.542
				C323.564,101.388,323.461,100.666,323.239,99.913z"/>
		</g>
	</g>
	
		<rect x="-4404.662" y="-12390.303" display="inline" fill="none" stroke="#000000" stroke-miterlimit="10" width="16736" height="13952"/>
</g>
<g id="sivinsko">
	<g id="rdeča7bela_copy_3">
	</g>
	<g>
		<g>
			<path opacity="0.5" fill="#FFFFFF" d="M323.239,99.913c-3.979-13.132-41.981-27.303-96.45-27.303
				c-54.473,0-92.481,14.171-96.459,27.303c-0.207,0.748-0.324,1.462-0.324,2.184c0.023,0.234,0.025,0.487,0.023,0.737l0.156,1.608
				c0.443,0.579,0.953,1.15,1.494,1.717l-1.392,0.014l23.048,234.563l0.449,4.962c0.932,8.965,6.938,21.293,30.345,28.896
				c17.489,5.688,36.41,6.337,42.376,6.337h0.381c5.961,0,24.877-0.649,42.371-6.337c23.403-7.604,29.426-19.908,30.342-28.848
				l0.493-5.39l23.139-235.512c0.007-0.072,0.005-0.148,0.007-0.223c0.051-0.063,0.111-0.127,0.16-0.19l0.112-1.162
				c-0.014-0.183,0-0.353,0.021-0.542C323.564,101.388,323.461,100.666,323.239,99.913z"/>
			<g>
				<path fill="#A3A3A3" d="M205.895,325.327c6.826,0.954,13.824,1.526,20.803,1.526c7.467,0,14.958-0.654,22.235-1.733
					c-7.289,0.656-14.918,1.01-22.745,1.01C219.232,326.13,212.438,325.848,205.895,325.327z"/>
				<path fill="#A3A3A3" d="M297.474,308.036c-10.142,8.298-22.068,14.704-48.541,17.084c-7.277,1.079-14.769,1.733-22.235,1.733
					c-6.979,0-13.977-0.572-20.803-1.526c-28.482-2.271-42.061-9.18-51.986-18.148c-2.052-0.899-3.173-1.425-3.168-1.396
					l2.596,34.952l0.449,4.962c0.932,8.965,6.938,21.293,30.345,28.896c17.489,5.688,36.41,6.337,42.376,6.337h0.381
					c5.961,0,24.877-0.649,42.371-6.337c23.403-7.604,29.426-19.908,30.342-28.848l0.493-5.39l2.528-34.573
					C302.625,305.745,300.777,306.623,297.474,308.036z"/>
				<path fill="#A3A3A3" d="M226.186,326.569c6.754,0,13.337-0.305,19.627-0.87c22.844-2.055,41.765-7.583,50.516-14.743
					c1.219-0.996,2.246-2.022,3.053-3.076l0.086-0.882c-0.011-0.139,0-0.267,0.015-0.41c0.026-1.014-0.054-1.562-0.22-2.133
					c-3.016-9.95-31.807-20.687-73.076-20.687c-41.271,0-70.069,10.736-73.082,20.687c-0.157,0.567-0.247,1.108-0.247,1.655
					c0.018,0.178,0.019,0.367,0.018,0.559l0.119,1.218c0.606,0.792,1.349,1.568,2.191,2.329c8.564,7.74,28.91,13.701,53.488,15.661
					C214.32,326.326,220.184,326.569,226.186,326.569z"/>
			</g>
			<g>
				<path fill="#A3A3A3" d="M151.76,307.449c3.068-10.134,32.396-21.067,74.426-21.067c42.027,0,71.35,10.934,74.419,21.067
					c0.17,0.58,0.251,1.138,0.226,2.171c-0.016,0.146-0.027,0.277-0.016,0.418l-0.087,0.897
					c-8.356,10.916-39.209,19.034-74.542,19.034c-35.327,0-66.187-8.118-74.538-19.026l-0.12-1.241c0.001-0.193,0-0.388-0.019-0.569
					C151.509,308.577,151.6,308.026,151.76,307.449z"/>
				<path d="M226.186,333.97c-36.473,0-68.43-8.469-77.714-20.595c-0.454-0.594-0.733-1.303-0.805-2.046l-0.12-1.241
					c-0.013-0.135-0.019-0.271-0.019-0.406c0-0.061,0.002-0.123-0.001-0.183c-0.014-0.135-0.018-0.23-0.018-0.366
					c0-0.891,0.13-1.791,0.396-2.753c4.153-13.72,37.795-23.998,78.28-23.998c40.48,0,74.119,10.278,78.247,23.908
					c0.318,1.08,0.43,2.064,0.396,3.429c-0.002,0.086-0.007,0.173-0.015,0.26c0.002,0.148-0.004,0.297-0.018,0.445l-0.087,0.897
					c-0.072,0.743-0.351,1.452-0.805,2.046C294.618,325.498,262.659,333.97,226.186,333.97z M155.524,309.342
					c7.567,8.211,34.222,16.628,70.661,16.628c36.414,0,63.058-8.408,70.649-16.617c0.005-0.527-0.035-0.664-0.068-0.775
					c-1.972-6.51-27.255-18.195-70.581-18.195c-43.332,0-68.617,11.686-70.598,18.227c-0.036,0.134-0.065,0.291-0.076,0.43
					C155.518,309.139,155.522,309.24,155.524,309.342z"/>
			</g>
			<path d="M227.197,130.664c-46.657,0-87.455-10.726-99.212-26.082c-1.343-1.754-1.01-4.265,0.744-5.607
				c1.754-1.343,4.265-1.01,5.607,0.744c10.016,13.081,49.937,22.945,92.86,22.945c42.925,0,82.849-9.868,92.866-22.955
				c1.343-1.754,3.853-2.086,5.607-0.745c1.754,1.343,2.088,3.854,0.745,5.608C314.656,119.935,273.856,130.664,227.197,130.664z"/>
			<path d="M226.887,384.931h-0.381c-3.928,0-24.492-0.315-43.613-6.533c-25.432-8.261-32.03-22.117-33.086-32.287l-0.455-5.015
				l-23.045-234.531l-0.266-3.421c-0.008-0.113-0.013-0.228-0.012-0.341c0.001-0.105,0.004-0.212-0.004-0.312
				c-0.009-0.11-0.02-0.283-0.02-0.395c0-1.047,0.153-2.109,0.469-3.25c5.232-17.277,48.346-30.236,100.314-30.236
				c51.962,0,95.072,12.959,100.278,30.143c0.376,1.278,0.504,2.412,0.462,4.073c-0.002,0.108-0.009,0.216-0.021,0.323
				c0.005,0.168,0,0.337-0.017,0.505l-0.112,1.162c-0.033,0.338-0.108,0.669-0.223,0.984l-23.083,234.946l-0.491,5.363
				c-1.043,10.188-7.627,24.016-33.089,32.288C251.369,384.615,230.813,384.931,226.887,384.931z M134.03,102.684l0.247,3.18
				l23.041,234.48l0.452,4.993c1.159,11.146,10.703,19.965,27.597,25.452c17.974,5.846,37.424,6.142,41.14,6.142h0.381
				c3.715,0,23.156-0.296,41.134-6.141c16.913-5.495,26.457-14.296,27.6-25.452l0.489-5.346l23.129-235.418l0.001-0.06
				c0.012-0.452,0.101-0.895,0.259-1.312l0.007-0.069c-0.001-0.237,0.013-0.452,0.03-0.646c0.015-0.939-0.063-1.207-0.133-1.444
				c-3.021-9.968-37.747-24.433-92.613-24.433c-54.874,0-89.603,14.464-92.631,24.462c-0.083,0.307-0.138,0.616-0.15,0.903
				C134.023,102.207,134.029,102.445,134.03,102.684z"/>
		</g>
	</g>
	<path d="M12331.838,1562.197h-16737v-13953h16737V1562.197z M-4404.662,1561.197h16736l-0.5-13951h-16735.5l0.5,13951H-4404.662z"
		/>
</g>
<g id="linijsko" display="none">
	<g id="rdeča7bela_copy" display="inline">
	</g>
	<g display="inline">
		<g>
			<path fill="none" stroke="#000000" stroke-width="8" stroke-linecap="round" stroke-linejoin="round" stroke-miterlimit="10" d="
				M323.239,99.913c-3.979-13.132-41.981-27.303-96.45-27.303c-54.473,0-92.481,14.171-96.459,27.303
				c-0.207,0.748-0.324,1.462-0.324,2.184c0.023,0.234,0.025,0.487,0.023,0.737l0.259,3.339l23.048,234.563l0.449,4.962
				c0.932,8.965,6.938,21.293,30.345,28.896c17.489,5.688,36.41,6.337,42.376,6.337h0.381c5.961,0,24.877-0.649,42.371-6.337
				c23.403-7.604,29.426-19.908,30.342-28.848l0.493-5.39l23.139-235.512c0.007-0.072,0.005-0.148,0.007-0.223
				c0.051-0.063,0.111-0.127,0.16-0.19l0.112-1.162c-0.014-0.183,0-0.353,0.021-0.542
				C323.564,101.388,323.461,100.666,323.239,99.913z"/>
			<g>
				<path fill="none" d="M205.895,325.327c6.826,0.954,13.824,1.526,20.803,1.526c7.467,0,14.958-0.654,22.235-1.733
					c-7.289,0.656-14.918,1.01-22.745,1.01C219.232,326.13,212.438,325.848,205.895,325.327z"/>
			</g>
			<path fill="none" stroke="#000000" stroke-width="8" stroke-linecap="round" stroke-linejoin="round" stroke-miterlimit="10" d="
				M151.76,307.449c3.068-10.134,32.396-21.067,74.426-21.067c42.027,0,71.35,10.934,74.419,21.067
				c0.17,0.58,0.251,1.138,0.226,2.171c-0.016,0.146-0.027,0.277-0.016,0.418l-0.087,0.897
				c-8.356,10.916-39.209,19.034-74.542,19.034c-35.327,0-66.187-8.118-74.538-19.026l-0.12-1.241c0.001-0.193,0-0.388-0.019-0.569
				C151.509,308.577,151.6,308.026,151.76,307.449z"/>
			<path fill="none" stroke="#000000" stroke-width="8" stroke-linecap="round" stroke-linejoin="round" stroke-miterlimit="10" d="
				M323.239,102.141c-10.766,14.064-50.518,24.523-96.042,24.523c-45.516,0-85.275-10.459-96.036-24.514"/>
		</g>
	</g>
</g>
<g id="pivot">
	<circle fill="none" cx="232.956" cy="376.697" r="14.133"/>
</g>
</svg>
