<?xml version="1.0" encoding="utf-8"?>
<!-- Generator: Adobe Illustrator 16.0.0, SVG Export Plug-In . SVG Version: 6.00 Build 0)  -->
<!DOCTYPE svg PUBLIC "-//W3C//DTD SVG 1.1//EN" "http://www.w3.org/Graphics/SVG/1.1/DTD/svg11.dtd">
<svg version="1.1" xmlns="http://www.w3.org/2000/svg" xmlns:xlink="http://www.w3.org/1999/xlink" x="0px" y="0px"
	 width="453.543px" height="453.543px" viewBox="0 0 453.543 453.543" enable-background="new 0 0 453.543 453.543"
	 xml:space="preserve">
<g id="kvadrat">
</g>
<g id="bg" display="none">
	<rect x="-4404.613" y="-11970.294" display="inline" width="15266.867" height="13678.951"/>
</g>
<g id="barvno" display="none">
	<g id="rdeča7bela" display="inline">
	</g>
	<g display="inline">
		<g>
			<path opacity="0.5" fill="#FFFFFF" d="M323.239,99.913c-3.979-13.132-41.981-27.303-96.451-27.303
				c-54.472,0-92.481,14.171-96.459,27.303c-0.207,0.748-0.324,1.462-0.324,2.184c0.023,0.234,0.025,0.487,0.023,0.737l0.156,1.608
				c0.443,0.579,0.953,1.15,1.494,1.717l-1.392,0.014l23.048,234.563l0.449,4.962c0.932,8.965,6.938,21.293,30.345,28.896
				c17.489,5.688,36.41,6.337,42.376,6.337h0.381c5.961,0,24.877-0.649,42.371-6.337c23.403-7.604,29.426-19.908,30.342-28.848
				l0.493-5.39l23.139-235.512c0.007-0.072,0.005-0.148,0.007-0.223c0.05-0.063,0.111-0.127,0.16-0.19l0.112-1.162
				c-0.014-0.183,0-0.353,0.021-0.542C323.564,101.388,323.461,100.666,323.239,99.913z"/>
			<g>
				<path fill="#D45F14" d="M205.895,225.327c6.826,0.954,13.824,1.526,20.803,1.526c7.466,0,14.958-0.654,22.235-1.733
					c-7.289,0.656-14.918,1.01-22.745,1.01C219.232,226.13,212.438,225.848,205.895,225.327z"/>
				<path fill="#D45F14" d="M307.474,208.036c-10.142,8.298-32.068,14.704-58.541,17.084c-7.277,1.079-14.769,1.733-22.235,1.733
					c-6.979,0-13.977-0.572-20.803-1.526c-28.482-2.271-52.061-9.18-61.986-18.148c-2.052-0.899-3.173-1.425-3.168-1.396
					l12.596,134.952l0.449,4.962c0.932,8.965,6.938,21.293,30.345,28.896c17.489,5.688,36.41,6.337,42.376,6.337h0.381
					c5.961,0,24.877-0.649,42.371-6.337c23.403-7.604,29.426-19.908,30.342-28.848l0.493-5.39l12.528-134.573
					C312.625,205.745,310.777,206.623,307.474,208.036z"/>
				<path fill="#D45F14" d="M226.188,226.13c7.827,0,15.456-0.354,22.745-1.01c26.473-2.38,48.399-8.786,58.541-17.084
					c1.411-1.154,2.603-2.344,3.538-3.565l0.098-1.021c-0.012-0.16,0-0.309,0.019-0.476c0.029-1.176-0.062-1.81-0.257-2.471
					c-3.492-11.531-36.859-23.972-84.683-23.972c-47.827,0-81.199,12.44-84.692,23.972c-0.181,0.657-0.285,1.283-0.285,1.917
					c0.021,0.206,0.021,0.427,0.021,0.647l0.138,1.412c0.703,0.918,1.563,1.817,2.539,2.699
					c9.926,8.969,33.504,15.878,61.986,18.148C212.438,225.848,219.232,226.13,226.188,226.13z"/>
			</g>
			
				<path fill="#D45F14" stroke="#000000" stroke-width="8" stroke-linecap="round" stroke-linejoin="round" stroke-miterlimit="10" d="
				M141.496,200.503c3.493-11.531,36.865-23.972,84.692-23.972c47.824,0,81.191,12.44,84.683,23.972
				c0.196,0.661,0.287,1.295,0.257,2.471c-0.019,0.167-0.03,0.315-0.019,0.476l-0.098,1.021
				c-9.509,12.422-44.617,21.659-84.824,21.659c-40.199,0-75.315-9.237-84.818-21.65l-0.138-1.412c0.001-0.221,0-0.441-0.021-0.647
				C141.211,201.786,141.314,201.16,141.496,200.503z"/>
			<path fill="none" stroke="#000000" stroke-width="8" stroke-linecap="round" stroke-linejoin="round" stroke-miterlimit="10" d="
				M323.239,102.141c-10.766,14.064-50.518,24.523-96.042,24.523c-45.516,0-85.275-10.459-96.036-24.514"/>
			<path fill="none" stroke="#000000" stroke-width="8" stroke-linecap="round" stroke-linejoin="round" stroke-miterlimit="10" d="
				M323.239,99.913c-3.979-13.132-41.981-27.303-96.451-27.303c-54.472,0-92.481,14.171-96.459,27.303
				c-0.207,0.748-0.324,1.462-0.324,2.184c0.023,0.234,0.025,0.487,0.023,0.737l0.258,3.339l23.048,234.563l0.449,4.962
				c0.932,8.965,6.938,21.293,30.345,28.896c17.489,5.688,36.41,6.337,42.376,6.337h0.381c5.961,0,24.877-0.649,42.371-6.337
				c23.403-7.604,29.426-19.908,30.342-28.848l0.493-5.39l23.139-235.512c0.007-0.072,0.005-0.148,0.007-0.223
				c0.05-0.063,0.111-0.127,0.16-0.19l0.112-1.162c-0.014-0.183,0-0.353,0.021-0.542
				C323.564,101.388,323.461,100.666,323.239,99.913z"/>
		</g>
	</g>
	
		<rect x="-4914.898" y="-12390.303" display="inline" fill="none" stroke="#000000" stroke-miterlimit="10" width="16736" height="13952"/>
</g>
<g id="sivinsko">
	<g id="rdeča7bela_copy_3">
	</g>
	<g>
		<g>
			<path opacity="0.5" fill="#FFFFFF" d="M323.239,99.913c-3.979-13.132-41.981-27.303-96.451-27.303
				c-54.472,0-92.481,14.171-96.459,27.303c-0.207,0.748-0.324,1.462-0.324,2.184c0.023,0.234,0.025,0.487,0.023,0.737l0.156,1.608
				c0.443,0.579,0.953,1.15,1.494,1.717l-1.392,0.014l23.048,234.563l0.449,4.962c0.932,8.965,6.938,21.293,30.345,28.896
				c17.489,5.688,36.41,6.337,42.376,6.337h0.381c5.961,0,24.877-0.649,42.371-6.337c23.403-7.604,29.426-19.908,30.342-28.848
				l0.493-5.39l23.139-235.512c0.007-0.072,0.005-0.148,0.007-0.223c0.05-0.063,0.111-0.127,0.16-0.19l0.112-1.162
				c-0.014-0.183,0-0.353,0.021-0.542C323.564,101.388,323.461,100.666,323.239,99.913z"/>
			<g>
				<path fill="#7A7A7A" d="M205.895,225.327c6.826,0.954,13.824,1.526,20.803,1.526c7.466,0,14.958-0.654,22.235-1.733
					c-7.289,0.656-14.918,1.01-22.745,1.01C219.232,226.13,212.438,225.848,205.895,225.327z"/>
				<path fill="#7A7A7A" d="M307.474,208.036c-10.142,8.298-32.068,14.704-58.541,17.084c-7.277,1.079-14.769,1.733-22.235,1.733
					c-6.979,0-13.977-0.572-20.803-1.526c-28.482-2.271-52.061-9.18-61.986-18.148c-2.052-0.899-3.173-1.425-3.168-1.396
					l12.596,134.952l0.449,4.962c0.932,8.965,6.938,21.293,30.345,28.896c17.489,5.688,36.41,6.337,42.376,6.337h0.381
					c5.961,0,24.877-0.649,42.371-6.337c23.403-7.604,29.426-19.908,30.342-28.848l0.493-5.39l12.528-134.573
					C312.625,205.745,310.777,206.623,307.474,208.036z"/>
				<path fill="#7A7A7A" d="M226.188,226.13c7.827,0,15.456-0.354,22.745-1.01c26.473-2.38,48.399-8.786,58.541-17.084
					c1.411-1.154,2.603-2.344,3.538-3.565l0.098-1.021c-0.012-0.16,0-0.309,0.019-0.476c0.029-1.176-0.062-1.81-0.257-2.471
					c-3.492-11.531-36.859-23.972-84.683-23.972c-47.827,0-81.199,12.44-84.692,23.972c-0.181,0.657-0.285,1.283-0.285,1.917
					c0.021,0.206,0.021,0.427,0.021,0.647l0.138,1.412c0.703,0.918,1.563,1.817,2.539,2.699
					c9.926,8.969,33.504,15.878,61.986,18.148C212.438,225.848,219.232,226.13,226.188,226.13z"/>
			</g>
			<g>
				<path fill="#7A7A7A" d="M141.496,200.503c3.493-11.531,36.865-23.972,84.692-23.972c47.824,0,81.191,12.44,84.683,23.972
					c0.196,0.661,0.287,1.295,0.257,2.471c-0.019,0.167-0.03,0.315-0.019,0.476l-0.098,1.021
					c-9.509,12.422-44.617,21.659-84.824,21.659c-40.199,0-75.315-9.237-84.818-21.65l-0.138-1.412c0.001-0.221,0-0.441-0.021-0.647
					C141.211,201.786,141.314,201.16,141.496,200.503z"/>
				<path d="M226.188,230.13c-41.344,0-77.529-9.548-87.995-23.219c-0.454-0.593-0.732-1.301-0.805-2.044l-0.138-1.411
					c-0.013-0.136-0.02-0.271-0.019-0.406c0-0.085,0.003-0.17-0.002-0.251c-0.013-0.132-0.018-0.246-0.018-0.379
					c0-0.959,0.14-1.934,0.429-2.979c0.009-0.033,0.018-0.065,0.028-0.097c4.629-15.286,42.685-26.813,88.52-26.813
					c45.831,0,83.883,11.527,88.511,26.813c0.343,1.158,0.465,2.232,0.428,3.729c-0.002,0.099-0.008,0.196-0.018,0.294
					c0.003,0.154-0.002,0.309-0.017,0.463l-0.098,1.021c-0.071,0.745-0.351,1.456-0.806,2.051
					C303.719,220.578,267.532,230.13,226.188,230.13z M145.231,202.872c8.532,9.485,39.127,19.258,80.956,19.258
					c41.782,0,72.357-9.753,80.932-19.233c0.004-0.057,0.008-0.11,0.013-0.163c0.011-0.73-0.046-0.923-0.097-1.095
					c-1-3.3-7.645-8.868-23.061-13.623c-15.646-4.826-36.169-7.484-57.787-7.484c-21.62,0-42.144,2.658-57.792,7.484
					c-15.349,4.733-22.004,10.272-23.057,13.602c-0.072,0.271-0.113,0.5-0.124,0.697c0.011,0.182,0.016,0.367,0.017,0.555
					L145.231,202.872z"/>
			</g>
			<path d="M227.197,130.664c-46.657,0-87.455-10.726-99.212-26.082c-1.343-1.754-1.01-4.265,0.744-5.607
				c1.755-1.343,4.265-1.01,5.607,0.744c10.016,13.081,49.937,22.945,92.86,22.945c42.925,0,82.849-9.868,92.866-22.955
				c1.343-1.754,3.853-2.086,5.607-0.745c1.754,1.343,2.088,3.854,0.745,5.608C314.656,119.935,273.856,130.664,227.197,130.664z"/>
			<path d="M226.887,384.931h-0.381c-3.928,0-24.492-0.315-43.613-6.533c-25.432-8.261-32.03-22.117-33.086-32.287l-0.455-5.015
				l-23.045-234.531l-0.266-3.422c-0.009-0.113-0.013-0.227-0.012-0.34c0.001-0.105,0.004-0.212-0.004-0.312
				c-0.009-0.11-0.02-0.283-0.02-0.395c0-1.045,0.153-2.107,0.468-3.248c5.233-17.279,48.347-30.238,100.314-30.238
				c51.962,0,95.073,12.959,100.279,30.143c0.376,1.278,0.504,2.412,0.462,4.073c-0.002,0.108-0.009,0.216-0.021,0.323
				c0.005,0.168,0,0.337-0.017,0.505l-0.112,1.162c-0.033,0.338-0.108,0.669-0.223,0.984l-23.083,234.946l-0.491,5.363
				c-1.043,10.188-7.627,24.016-33.089,32.288C251.369,384.615,230.813,384.931,226.887,384.931z M134.03,102.685l0.246,3.18
				l23.041,234.479l0.452,4.993c1.159,11.146,10.703,19.965,27.597,25.452c17.974,5.846,37.424,6.142,41.14,6.142h0.381
				c3.715,0,23.156-0.296,41.134-6.141c16.913-5.495,26.457-14.296,27.6-25.452l0.489-5.346l23.129-235.418l0.001-0.06
				c0.012-0.452,0.101-0.895,0.259-1.312l0.006-0.067c0-0.237,0.013-0.453,0.031-0.648c0.015-0.939-0.063-1.207-0.133-1.444
				c-3.021-9.968-37.747-24.433-92.614-24.433c-54.873,0-89.602,14.464-92.631,24.463c-0.083,0.305-0.137,0.615-0.149,0.902
				C134.023,102.207,134.029,102.445,134.03,102.685z"/>
		</g>
	</g>
	<path d="M11821.602,1562.197h-16737v-13953h16737V1562.197z M-4914.898,1561.197h16736l-0.5-13951h-16735.5l0.5,13951H-4914.898z"
		/>
</g>
<g id="linijsko" display="none">
	<g id="rdeča7bela_copy" display="inline">
	</g>
</g>
<g id="pivot">
	<circle fill="none" cx="229.602" cy="371.679" r="14.133"/>
</g>
</svg>
