<?xml version="1.0" encoding="utf-8"?>
<!-- Generator: Adobe Illustrator 16.0.0, SVG Export Plug-In . SVG Version: 6.00 Build 0)  -->
<!DOCTYPE svg PUBLIC "-//W3C//DTD SVG 1.1//EN" "http://www.w3.org/Graphics/SVG/1.1/DTD/svg11.dtd">
<svg version="1.1" xmlns="http://www.w3.org/2000/svg" xmlns:xlink="http://www.w3.org/1999/xlink" x="0px" y="0px"
	 width="453.543px" height="453.543px" viewBox="0 0 453.543 453.543" enable-background="new 0 0 453.543 453.543"
	 xml:space="preserve">
<g id="kvadrat">
</g>
<g id="bg" display="none">
	<rect x="-4404.613" y="-12480.53" display="inline" width="15266.867" height="13678.951"/>
</g>
<g id="barvno" display="none">
	<g id="rdeča7bela" display="inline">
	</g>
	<g display="inline">
		<g>
			<path fill="none" stroke="#000000" stroke-width="6" stroke-linecap="round" stroke-linejoin="round" stroke-miterlimit="10" d="
				M265.162,208.195l0.113,0.114c-10.635,23.962-57.436,127.776-80.73,152.301c-8.691,9.155-20.463,14.197-33.137,14.197l0,0
				c-4.277,0-8.525-0.595-12.625-1.763l-0.424-0.122l-0.439,0.064c-2.383,0.361-4.799,0.543-7.184,0.543
				c-12.855,0-25.266-5.329-34.939-15.006c-11.395-11.388-16.582-25.995-14.617-41.131l0.059-0.46l-0.143-0.437
				c-5.459-16.717-0.771-35.32,11.943-47.394c24.545-23.316,128.354-70.102,152.302-80.727l0.11,0.107 M108.934,346.105l1.594,3.226
				c2.373,4.801,5.563,9.123,9.48,12.84c5.104,4.844,11.08,8.354,17.762,10.433l0.463,0.144l0.48-0.079
				c10.969-1.837,21.328-7.371,29.965-16.002c21.785-21.789,73.715-121.244,89.109-151.21l1.57-3.056l0.104,0.104
				c-12.574,24.638-67.629,131.197-90.686,154.257 M251.234,194.276l0.111,0.108l-3.191,1.57
				c-28.051,13.788-121.811,61.006-150.5,89.687c-8.895,8.897-14.482,19.586-16.152,30.905l-0.072,0.501l0.166,0.479
				c2.139,6.04,5.461,11.461,9.877,16.11c3.738,3.917,8.053,7.106,12.828,9.48l3.023,1.502 M257.855,200.896l-2.986,1.909
				c-2.803,1.799-6.405,4.111-10.613,6.836l-0.369,0.238l-0.238,0.368c-21.014,32.558-71.621,109.93-87.646,125.15
				c-8.537,8.103-19.705,12.568-31.451,12.568c-0.4,0-0.805-0.005-1.207-0.015c-3.494-0.091-7.016-0.596-10.471-1.5l-4.242-1.111
				l-0.094-0.24l-0.252-0.1l-1.102-4.227c-0.896-3.439-1.396-6.964-1.488-10.471c-0.311-12.206,4.148-23.801,12.555-32.652
				c15.275-16.087,92.609-66.646,125.152-87.638l0.369-0.238l8.982-13.979l0.104,0.099"/>
			
				<polygon fill="#EED2A3" stroke="#000000" stroke-width="8" stroke-linecap="round" stroke-linejoin="round" stroke-miterlimit="10" points="
				374.693,100.563 267.836,207.427 246.01,185.593 352.867,78.734 			"/>
		</g>
	</g>
	
		<rect x="-4914.898" y="-12900.539" display="inline" fill="none" stroke="#000000" stroke-miterlimit="10" width="16736" height="13952"/>
</g>
<g id="sivinsko">
	<g id="rdeča7bela_copy_3">
	</g>
	<g>
		<g>
			<path d="M151.408,377.808c-4.482,0-8.939-0.613-13.252-1.822c-2.446,0.361-4.946,0.545-7.42,0.545
				c-13.659,0-26.821-5.642-37.061-15.885c-12.01-12.003-17.509-27.417-15.498-43.423c-5.711-17.759-0.702-37.479,12.795-50.295
				c24.46-23.234,123.408-68.097,153.151-81.293c1.12-0.498,2.43-0.263,3.31,0.593l0.11,0.107c1.187,1.155,1.212,3.055,0.057,4.242
				c-0.507,0.521-1.157,0.817-1.827,0.89c-22.732,10.103-126.583,56.932-150.669,79.812c-8.961,8.51-13.655,20.492-13.23,32.571
				c2.969-7.361,7.579-14.248,13.658-20.329c29.013-29.004,123.14-76.417,151.298-90.258l2.313-1.138
				c1.16-1.13,3.016-1.134,4.183,0.002l0.111,0.108c0.257,0.25,0.463,0.54,0.614,0.854c0.28,0.135,0.541,0.313,0.771,0.533
				l0.104,0.099c1.2,1.143,1.246,3.042,0.103,4.241c-0.082,0.086-0.167,0.166-0.257,0.24l-1.203,1.871l2.67-1.706
				c1.396-0.894,3.25-0.486,4.144,0.911c0.08,0.126,0.15,0.255,0.209,0.387c0.326,0.147,0.626,0.354,0.886,0.613l0.104,0.104
				c0.92,0.919,1.142,2.326,0.551,3.484c-15.594,30.556-68.26,132.036-91.236,155.015c-0.226,0.226-0.479,0.408-0.749,0.547
				c-5.49,5.342-11.631,9.513-18.167,12.375c11.628-0.148,22.4-4.844,30.388-13.259c22.849-24.055,69.681-127.87,79.808-150.65
				c0.067-0.669,0.358-1.319,0.873-1.83c1.176-1.165,3.076-1.158,4.243,0.019l0.113,0.114c0.87,0.878,1.113,2.199,0.612,3.329
				c-13.204,29.75-58.087,128.715-81.297,153.15C177.457,372.434,164.917,377.808,151.408,377.808z M84.133,329.249
				c1.284,9.994,5.994,19.368,13.784,27.153c7.771,7.773,17.396,12.566,27.543,13.807c-2.669-1.687-5.18-3.643-7.518-5.862
				c-4.172-3.958-7.572-8.563-10.104-13.687l-1.594-3.226c-0.003-0.007-0.007-0.014-0.01-0.021
				c-0.083-0.032-0.164-0.068-0.245-0.108l-3.023-1.502c-5.086-2.528-9.684-5.925-13.664-10.096
				C87.383,333.688,85.658,331.531,84.133,329.249z M114.188,349.85c2.09,3.752,4.736,7.158,7.885,10.145
				c4.711,4.473,10.218,7.727,16.371,9.677c10.257-1.769,19.977-6.996,28.113-15.127c20.792-20.796,69.845-114.151,86.928-147.285
				c-2.175,1.397-4.67,3.004-7.429,4.79c-21.139,32.747-71.758,110.108-87.988,125.523c-9.409,8.931-21.834,13.708-34.797,13.378
				C120.242,350.871,117.197,350.502,114.188,349.85z M110.815,342.811l2.818,0.738c3.233,0.847,6.526,1.318,9.789,1.403
				c0.373,0.009,0.752,0.014,1.129,0.014c10.97,0,21.406-4.171,29.386-11.744c14.195-13.482,56.405-77.194,80.011-113.515
				c-36.299,23.578-99.982,65.75-113.522,80.009c-7.855,8.271-12.021,19.107-11.731,30.511c0.086,3.28,0.554,6.575,1.392,9.79
				L110.815,342.811z M84.505,316.752c1.994,5.542,5.072,10.532,9.143,14.818c3.003,3.147,6.408,5.794,10.139,7.884
				c-0.645-2.994-1.011-6.037-1.09-9.073c-0.331-13.007,4.42-25.363,13.378-34.796c15.479-16.301,92.791-66.862,125.524-87.979
				l4.772-7.428c-31.184,15.416-119.21,60.208-146.596,87.585C91.399,296.143,86.122,306.162,84.505,316.752z"/>
			<g>
				<polygon fill="#D5D5D5" points="374.693,100.563 267.836,207.427 246.01,185.593 352.867,78.734 				"/>
				<path d="M267.836,211.427C267.836,211.427,267.836,211.427,267.836,211.427c-1.062,0-2.079-0.422-2.829-1.172l-21.826-21.834
					c-1.562-1.563-1.561-4.095,0-5.656L350.039,75.906c0.75-0.75,1.768-1.172,2.829-1.172l0,0c1.061,0,2.079,0.422,2.829,1.172
					l21.826,21.829c1.562,1.562,1.562,4.095,0,5.656L270.665,210.255C269.915,211.005,268.897,211.427,267.836,211.427z
					 M251.666,185.593l16.17,16.177l101.2-101.206l-16.169-16.172L251.666,185.593z"/>
			</g>
		</g>
	</g>
	<path d="M11821.602,1051.961h-16737v-13953h16737V1051.961z M-4914.898,1050.961h16736l-0.5-13951h-16735.5l0.5,13951H-4914.898z"
		/>
</g>
<g id="linijsko" display="none">
	<g id="rdeča7bela_copy" display="inline">
	</g>
</g>
<g id="pivot">
	<circle fill="none" cx="229.602" cy="359.442" r="14.133"/>
</g>
</svg>
