<?xml version="1.0" encoding="utf-8"?>
<!-- Generator: Adobe Illustrator 16.0.0, SVG Export Plug-In . SVG Version: 6.00 Build 0)  -->
<!DOCTYPE svg PUBLIC "-//W3C//DTD SVG 1.1//EN" "http://www.w3.org/Graphics/SVG/1.1/DTD/svg11.dtd">
<svg version="1.1" xmlns="http://www.w3.org/2000/svg" xmlns:xlink="http://www.w3.org/1999/xlink" x="0px" y="0px"
	 width="453.544px" height="453.544px" viewBox="0 0 453.544 453.544" enable-background="new 0 0 453.544 453.544"
	 xml:space="preserve">
<g id="kvadrat">
</g>
<g id="bg" display="none">
	<rect x="-8996.739" y="-3806.513" display="inline" width="15266.867" height="13678.951"/>
</g>
<g id="color" display="none">
	<g id="rdeča7bela" display="inline">
	</g>
	<g display="inline">
		<path fill="none" stroke="#1D1D1B" stroke-width="8" stroke-miterlimit="10" d="M226.772,131.865
			c-10.76,0-19.482,8.726-19.482,19.483c0,10.759,8.723,19.485,19.482,19.485c10.762,0,19.484-8.727,19.484-19.485
			C246.257,140.591,237.534,131.865,226.772,131.865z M226.772,164.152c-7.07,0-12.801-5.734-12.801-12.804
			c0-7.07,5.73-12.806,12.801-12.806s12.805,5.735,12.805,12.806C239.577,158.417,233.843,164.152,226.772,164.152z"/>
		<path fill="#B1B1B1" stroke="#1D1D1B" stroke-width="8" stroke-miterlimit="10" d="M370.116,297.222
			c-2.529-77.013-65.713-138.68-143.342-138.68S85.962,220.209,83.431,297.222H370.116z"/>
		
			<rect x="69.45" y="297.222" fill="#575756" stroke="#1D1D1B" stroke-width="8" stroke-linejoin="round" stroke-miterlimit="10" width="314.643" height="24.456"/>
	</g>
	
		<rect x="-9507.024" y="-4226.521" display="inline" fill="none" stroke="#000000" stroke-miterlimit="10" width="16736" height="13952"/>
</g>
<g id="cb_1_">
	<g id="rdeča7bela_copy_3">
	</g>
	<g>
		<path fill="#1D1D1D" d="M226.772,174.833c-12.948,0-23.482-10.536-23.482-23.485c0-12.949,10.534-23.483,23.482-23.483
			c12.949,0,23.484,10.534,23.484,23.483C250.257,164.298,239.722,174.833,226.772,174.833z M226.772,142.542
			c-4.853,0-8.801,3.95-8.801,8.806c0,4.854,3.948,8.804,8.801,8.804c4.854,0,8.805-3.949,8.805-8.804
			C235.577,146.493,231.627,142.542,226.772,142.542z"/>
		<g>
			<path fill="#B1B1B1" d="M370.116,297.222c-2.529-77.013-65.713-138.68-143.342-138.68S85.962,220.209,83.431,297.222H370.116z"/>
			<path fill="#1D1D1D" d="M374.25,301.222H79.297l0.136-4.131c1.261-38.351,17.144-74.205,44.723-100.959
				c27.646-26.819,64.091-41.589,102.619-41.589s74.973,14.77,102.618,41.589c27.58,26.754,43.462,62.609,44.722,100.959
				L374.25,301.222z M87.623,293.222h278.301c-4.534-73.608-64.881-130.68-139.149-130.68
				C152.507,162.542,92.159,219.614,87.623,293.222z"/>
		</g>
		<g>
			<rect x="69.45" y="297.222" fill="#575757" width="314.643" height="24.456"/>
			<path fill="#1D1D1D" d="M384.093,325.678H69.45c-2.209,0-4-1.791-4-4v-24.456c0-2.209,1.791-4,4-4h314.643c2.209,0,4,1.791,4,4
				v24.456C388.093,323.887,386.302,325.678,384.093,325.678z M73.45,317.678h306.643v-16.456H73.45V317.678z"/>
		</g>
	</g>
	<path d="M7229.476,9725.979h-16737v-13953h16737V9725.979z M-9507.024,9724.979h16736l-0.5-13951h-16735.5l0.5,13951H-9507.024z"/>
</g>
<g id="cb" display="none">
	<g id="rdeča7bela_copy" display="inline">
	</g>
	<g display="inline">
		
			<rect x="69.45" y="297.222" fill="none" stroke="#1C1C1C" stroke-width="8" stroke-linecap="round" stroke-linejoin="round" stroke-miterlimit="10" width="314.643" height="24.456"/>
		<path fill="none" stroke="#1C1C1C" stroke-width="8" stroke-linecap="round" stroke-linejoin="round" stroke-miterlimit="10" d="
			M370.116,297.222c-2.529-77.013-65.713-138.68-143.342-138.68S85.962,220.209,83.431,297.222H370.116z"/>
		<path fill="none" stroke="#1C1C1C" stroke-width="8" stroke-linecap="round" stroke-linejoin="round" stroke-miterlimit="10" d="
			M237.086,158.913c2.454,0.174,4.892,0.408,7.31,0.704c1.182-2.513,1.861-5.309,1.861-8.269c0-10.757-8.723-19.483-19.484-19.483
			c-10.76,0-19.482,8.726-19.482,19.483c0,2.96,0.68,5.756,1.861,8.27c2.419-0.296,4.856-0.53,7.311-0.705"/>
	</g>
</g>
<g id="pivot">
	<circle fill="none" cx="232.205" cy="315.91" r="14.133"/>
</g>
</svg>
