<?xml version="1.0" encoding="utf-8"?>
<!-- Generator: Adobe Illustrator 16.0.0, SVG Export Plug-In . SVG Version: 6.00 Build 0)  -->
<!DOCTYPE svg PUBLIC "-//W3C//DTD SVG 1.1//EN" "http://www.w3.org/Graphics/SVG/1.1/DTD/svg11.dtd">
<svg version="1.1" xmlns="http://www.w3.org/2000/svg" xmlns:xlink="http://www.w3.org/1999/xlink" x="0px" y="0px"
	 width="453.544px" height="453.544px" viewBox="0 0 453.544 453.544" enable-background="new 0 0 453.544 453.544"
	 xml:space="preserve">
<g id="kvadrat">
</g>
<g id="bg" display="none">
	<rect x="-12058.157" y="-3296.277" display="inline" width="15266.867" height="13678.951"/>
</g>
<g id="color" display="none">
	<g id="rdeča7bela" display="inline">
	</g>
	<g display="inline">
		<g>
			<path fill="none" stroke="#000000" stroke-width="8" stroke-linecap="round" stroke-linejoin="round" stroke-miterlimit="10" d="
				M262.843,173.207v-19.592H189.87v19.68c-17.428,2.354-30.979,17.378-30.979,35.424v134.649c0,19.664,16.088,17.534,35.754,17.534
				h64.109c19.666,0,35.754,2.13,35.754-17.534V208.719C294.509,190.437,280.601,175.252,262.843,173.207z"/>
			<g>
				
					<path opacity="0.5" fill="#FFFFFF" stroke="#000000" stroke-width="8" stroke-linecap="round" stroke-linejoin="round" stroke-miterlimit="10" d="
					M262.983,173.207v-19.592h-72.973v19.68c-17.428,2.354-30.979,17.378-30.979,35.424v134.649
					c0,19.664,16.09,17.534,35.754,17.534h64.111c19.664,0,35.754,2.13,35.754-17.534V208.719
					C294.651,190.437,280.741,175.252,262.983,173.207z"/>
				<path d="M271.481,132.731v-27.995h-0.018c0.004-0.057,0.018-0.114,0.018-0.172c0-3.544-5.775-6.73-14.965-8.935
					c-1.016,1.53-3.176,2.59-5.684,2.59c-3.482,0-6.307-2.039-6.307-4.555c0-0.035,0.006-0.069,0.008-0.104
					c-3.818-0.451-7.912-0.768-12.199-0.925c0.617,0.704,0.98,1.536,0.98,2.431c0,2.516-2.824,4.555-6.307,4.555
					c-3.484,0-6.307-2.039-6.307-4.555c0-0.921,0.381-1.776,1.031-2.493c-4.291,0.107-8.404,0.373-12.266,0.775
					c0.01,0.104,0.021,0.21,0.021,0.316c0,2.516-2.822,4.555-6.307,4.555c-2.713,0-5.021-1.24-5.91-2.978
					c-10.172,2.209-16.664,5.564-16.664,9.322c0,0.058,0.014,0.115,0.018,0.172h-0.018v28.126c-1.346,0.507-2.307,1.796-2.307,3.318
					v13.769c0,1.962,1.59,3.554,3.553,3.554h88.807c1.963,0,3.555-1.592,3.555-3.554v-13.769
					C274.216,134.501,273.046,133.103,271.481,132.731z M215.097,112.936c-3.484,0-6.309-2.039-6.309-4.555s2.824-4.555,6.309-4.555
					c3.482,0,6.307,2.039,6.307,4.555S218.579,112.936,215.097,112.936z M236.819,112.936c-3.484,0-6.307-2.039-6.307-4.555
					s2.822-4.555,6.307-4.555c3.482,0,6.307,2.039,6.307,4.555S240.302,112.936,236.819,112.936z"/>
			</g>
		</g>
		<g>
			<path fill="#422918" stroke="#000000" stroke-width="8" stroke-linecap="round" stroke-miterlimit="10" d="M158.962,259.249
				v84.119c0,19.664,16.088,17.534,35.754,17.534h64.111c19.664,0,35.754,2.13,35.754-17.534v-84.119c0,0-17.527-3.555-66.264-3.555
				S158.962,259.249,158.962,259.249z"/>
		</g>
	</g>
	
		<rect x="-12568.442" y="-3716.285" display="inline" fill="none" stroke="#000000" stroke-miterlimit="10" width="16736" height="13952"/>
</g>
<g id="cb_1_">
	<g id="rdeča7bela_copy_3">
	</g>
	<g>
		<g>
			<path d="M268.85,364.97C268.85,364.97,268.85,364.97,268.85,364.97c-1.58,0-3.204-0.016-4.863-0.033
				c-1.708-0.017-3.455-0.035-5.231-0.035h-64.109c-1.776,0-3.523,0.018-5.23,0.035c-1.66,0.017-3.283,0.033-4.863,0.033
				c-11.812,0-29.66,0-29.66-21.602V208.719c0-18.619,13.092-34.702,30.979-38.762v-16.341c0-2.209,1.791-4,4-4h72.973
				c2.209,0,4,1.791,4,4v16.187c18.284,3.782,31.666,19.924,31.666,38.917v134.649c0,9.079-3.086,15.1-9.435,18.409
				C283.975,364.436,277.555,364.97,268.85,364.97z M194.646,356.902h64.109c1.804,0,3.577,0.018,5.312,0.035
				c1.632,0.016,3.229,0.032,4.782,0.032c7.288,0,12.887-0.389,16.528-2.287c2.39-1.246,5.132-3.657,5.132-11.315V208.719
				c0-16.133-12.091-29.692-28.124-31.538c-2.019-0.232-3.542-1.941-3.542-3.974v-15.592H193.87v15.68
				c0,2.002-1.48,3.696-3.465,3.964c-15.686,2.119-27.514,15.644-27.514,31.46v134.649c0,11.547,5.675,13.602,21.66,13.602
				c1.554,0,3.15-0.016,4.783-0.032C191.068,356.92,192.842,356.902,194.646,356.902z"/>
			<g>
				<g opacity="0.5">
					<path fill="#FFFFFF" d="M262.983,173.207v-19.592h-72.973v19.68c-17.428,2.354-30.979,17.378-30.979,35.424v134.649
						c0,19.664,16.09,17.534,35.754,17.534h64.111c19.664,0,35.754,2.13,35.754-17.534V208.719
						C294.651,190.437,280.741,175.252,262.983,173.207z"/>
					<path d="M268.991,364.97L268.991,364.97c-1.58,0-3.203-0.016-4.863-0.033c-1.708-0.017-3.455-0.035-5.23-0.035h-64.111
						c-1.776,0-3.522,0.018-5.23,0.035c-1.659,0.017-3.283,0.033-4.863,0.033c-11.811,0-29.66,0-29.66-21.602V208.719
						c0-18.619,13.092-34.702,30.979-38.762v-16.341c0-2.209,1.791-4,4-4h72.973c2.209,0,4,1.791,4,4v16.187
						c18.285,3.783,31.668,19.925,31.668,38.917v134.649c0,9.078-3.086,15.1-9.435,18.409
						C284.116,364.436,277.696,364.97,268.991,364.97z M194.786,356.902h64.111c1.803,0,3.576,0.018,5.311,0.035
						c1.633,0.016,3.229,0.032,4.783,0.032c7.287,0,12.887-0.389,16.527-2.287c2.39-1.246,5.133-3.657,5.133-11.315V208.719
						c0-16.133-12.092-29.691-28.126-31.538c-2.019-0.232-3.542-1.941-3.542-3.974v-15.592h-64.973v15.68
						c0,2.002-1.48,3.696-3.465,3.964c-15.686,2.119-27.514,15.644-27.514,31.46v134.649c0,11.547,5.676,13.602,21.66,13.602
						c1.555,0,3.151-0.016,4.783-0.032C191.21,356.92,192.982,356.902,194.786,356.902z"/>
				</g>
				<path d="M271.481,132.731v-27.995h-0.018c0.004-0.057,0.018-0.114,0.018-0.172c0-3.544-5.775-6.73-14.965-8.935
					c-1.016,1.53-3.176,2.59-5.684,2.59c-3.482,0-6.307-2.039-6.307-4.555c0-0.035,0.006-0.069,0.008-0.104
					c-3.818-0.451-7.912-0.768-12.199-0.925c0.617,0.704,0.98,1.536,0.98,2.431c0,2.516-2.824,4.555-6.307,4.555
					c-3.484,0-6.307-2.039-6.307-4.555c0-0.921,0.381-1.776,1.031-2.493c-4.291,0.107-8.404,0.373-12.266,0.775
					c0.01,0.104,0.021,0.21,0.021,0.316c0,2.516-2.822,4.555-6.307,4.555c-2.713,0-5.021-1.24-5.91-2.978
					c-10.172,2.209-16.664,5.564-16.664,9.322c0,0.058,0.014,0.115,0.018,0.172h-0.018v28.126c-1.346,0.507-2.307,1.796-2.307,3.318
					v13.769c0,1.962,1.59,3.554,3.553,3.554h88.807c1.963,0,3.555-1.592,3.555-3.554v-13.769
					C274.216,134.501,273.046,133.103,271.481,132.731z M215.097,112.936c-3.484,0-6.309-2.039-6.309-4.555s2.824-4.555,6.309-4.555
					c3.482,0,6.307,2.039,6.307,4.555S218.579,112.936,215.097,112.936z M236.819,112.936c-3.484,0-6.307-2.039-6.307-4.555
					s2.822-4.555,6.307-4.555c3.482,0,6.307,2.039,6.307,4.555S240.302,112.936,236.819,112.936z"/>
			</g>
		</g>
		<g>
			<g>
				<path fill="#2F2F2F" d="M158.962,259.249v84.119c0,19.664,16.088,17.534,35.754,17.534h64.111
					c19.664,0,35.754,2.13,35.754-17.534v-84.119c0,0-17.527-3.555-66.264-3.555S158.962,259.249,158.962,259.249z"/>
				<path d="M268.921,364.97c-1.58,0-3.204-0.016-4.863-0.033c-1.708-0.017-3.455-0.035-5.23-0.035h-64.111
					c-1.776,0-3.522,0.018-5.229,0.035c-1.658,0.017-3.281,0.033-4.86,0.033c-0.002,0-0.003,0-0.004,0
					c-11.812,0-29.66,0-29.66-21.602v-87.489l3.32-0.572c0.855-0.147,21.515-3.613,70.035-3.613c48.579,0,66.327,3.486,67.059,3.634
					l3.205,0.65v87.389C298.581,364.97,280.731,364.97,268.921,364.97z M194.716,356.902h64.111c1.803,0,3.576,0.018,5.311,0.035
					c1.632,0.016,3.229,0.032,4.783,0.032c15.984,0,21.66-2.055,21.66-13.602v-80.7c-6.979-0.962-25.918-2.974-62.264-2.974
					c-37.072,0-57.805,2.079-65.355,3.031v80.643c0,11.546,5.675,13.602,21.66,13.602c0.001,0,0.002,0,0.004,0
					c1.553,0,3.148-0.016,4.78-0.032C191.14,356.92,192.912,356.902,194.716,356.902z"/>
			</g>
		</g>
	</g>
	<path d="M4168.058,10236.215h-16737v-13953h16737V10236.215z M-12568.442,10235.215h16736l-0.5-13951h-16735.5l0.5,13951
		H-12568.442z"/>
</g>
<g id="cb" display="none">
	<g id="rdeča7bela_copy" display="inline">
	</g>
</g>
<g id="pivot">
	<circle fill="none" cx="222.002" cy="360.289" r="14.133"/>
</g>
</svg>
