<?xml version="1.0" encoding="utf-8"?>
<!-- Generator: Adobe Illustrator 16.0.0, SVG Export Plug-In . SVG Version: 6.00 Build 0)  -->
<!DOCTYPE svg PUBLIC "-//W3C//DTD SVG 1.1//EN" "http://www.w3.org/Graphics/SVG/1.1/DTD/svg11.dtd">
<svg version="1.1" xmlns="http://www.w3.org/2000/svg" xmlns:xlink="http://www.w3.org/1999/xlink" x="0px" y="0px"
	 width="453.543px" height="453.544px" viewBox="0 0 453.543 453.544" enable-background="new 0 0 453.543 453.544"
	 xml:space="preserve">
<g id="kvadrat">
</g>
<g id="bg" display="none">
	<rect x="-3384.14" y="-3806.513" display="inline" width="15266.867" height="13678.951"/>
</g>
<g id="color" display="none">
	<g id="rdeča7bela" display="inline">
	</g>
	<g display="inline">
		<g>
			<g>
				
					<path fill="#FFFFFF" stroke="#010101" stroke-width="8" stroke-linecap="round" stroke-linejoin="round" stroke-miterlimit="10" d="
					M327.924,188.781c-7.076-6.419-16.892-9.956-27.642-9.956c-3.297,0-6.43,0.4-9.858,1.257l-6.052,1.513l0.042-6.236
					c0.02-2.85,0.031-5.825,0.031-8.935c0-9.532-9.304-17.647-26.903-23.465c-15.634-5.166-36.336-6.012-58.289-6.012
					c-21.946,0-42.648,0.846-58.293,6.012c-17.6,5.816-26.902,13.931-26.902,23.465c0,34.749,1.189,62.313,6.996,83.893
					c5.532,20.526,15.221,36.249,32.396,52.574c10.264,9.761,26.1,14.921,45.797,14.921c19.698,0,35.536-5.16,45.802-14.923
					c13.104-12.452,21.952-25.15,28.688-41.169l0.072-0.163c1.108-2.399,3.412-3.364,5.05-3.88
					c3.352-1.056,7.688-1.191,11.092-1.191c1.471,0,2.984,0.032,4.473,0.063l0.867,0.017c1.551,0.04,3.342,0.083,4.993,0.083
					c10.562,0,20.521-4.498,28.048-12.667c7.088-7.682,11.153-17.967,11.153-28.217C339.486,205.119,335.38,195.538,327.924,188.781
					z M299.8,233.454c-0.437,0.046-0.932,0.068-1.503,0.068h-0.094c-1.534,0-3.4-0.122-5.377-0.251
					c-2.336-0.152-4.982-0.325-7.573-0.325c-1.75,0-3.353,0.08-4.823,0.246c1.007-7.477,2.305-17.168,2.726-22.198
					c3.509-5.7,9.694-8.947,17.129-8.947c10.006,0,15.98,5.128,15.98,13.717C316.265,224.755,309.033,232.524,299.8,233.454z"/>
			</g>
			
				<polygon fill="#FFCF00" stroke="#000000" stroke-width="8" stroke-linecap="round" stroke-linejoin="round" stroke-miterlimit="10" points="
				146.837,258.686 146.837,226.987 162.665,215.488 178.492,226.987 178.492,258.686 			"/>
			<path fill="none" stroke="#010101" stroke-width="8" stroke-linecap="round" stroke-linejoin="round" stroke-miterlimit="10" d="
				M162.798,215.488v-25.315c0,0-1.224-12.215,10.874-12.215"/>
		</g>
		
			<ellipse fill="#FFFFFF" stroke="#000000" stroke-width="8" stroke-linecap="round" stroke-linejoin="round" stroke-miterlimit="10" cx="199.244" cy="159.378" rx="85.035" ry="23.647"/>
		<g>
			
				<path fill="#F8B133" stroke="#000000" stroke-width="8" stroke-linecap="round" stroke-linejoin="round" stroke-miterlimit="10" d="
				M254.781,174.444c-10.368-5.831-30.359-10.546-55.838-10.546c-25.796,0-45.977,4.832-56.233,10.762
				c11.638,6.153,32.596,8.274,55.83,8.274C222.047,182.935,243.228,180.719,254.781,174.444z"/>
		</g>
	</g>
	
		<rect x="-3894.425" y="-4226.521" display="inline" fill="none" stroke="#000000" stroke-miterlimit="10" width="16736" height="13952"/>
</g>
<g id="cb_1_">
	<g id="rdeča7bela_copy_3">
	</g>
	<g>
		<g>
			<g>
				<g>
					<path fill="#FFFFFF" d="M327.924,188.781c-7.076-6.419-16.892-9.956-27.642-9.956c-3.297,0-6.43,0.4-9.858,1.257l-6.052,1.513
						l0.042-6.236c0.02-2.85,0.031-5.825,0.031-8.935c0-9.532-9.304-17.647-26.903-23.465c-15.634-5.166-36.336-6.012-58.289-6.012
						c-21.946,0-42.648,0.846-58.293,6.012c-17.6,5.816-26.902,13.931-26.902,23.465c0,34.749,1.189,62.313,6.996,83.893
						c5.532,20.526,15.221,36.249,32.396,52.574c10.264,9.761,26.1,14.921,45.797,14.921c19.698,0,35.536-5.16,45.802-14.923
						c13.104-12.452,21.952-25.15,28.688-41.169l0.072-0.163c1.108-2.399,3.412-3.364,5.05-3.88
						c3.352-1.056,7.688-1.191,11.092-1.191c1.471,0,2.984,0.032,4.473,0.063l0.867,0.017c1.551,0.04,3.342,0.083,4.993,0.083
						c10.562,0,20.521-4.498,28.048-12.667c7.088-7.682,11.153-17.967,11.153-28.217
						C339.486,205.119,335.38,195.538,327.924,188.781z M299.8,233.454c-0.437,0.046-0.932,0.068-1.503,0.068h-0.094
						c-1.534,0-3.4-0.122-5.377-0.251c-2.336-0.152-4.982-0.325-7.573-0.325c-1.75,0-3.353,0.08-4.823,0.246
						c1.007-7.477,2.305-17.168,2.726-22.198c3.509-5.7,9.694-8.947,17.129-8.947c10.006,0,15.98,5.128,15.98,13.717
						C316.265,224.755,309.033,232.524,299.8,233.454z"/>
					<path fill="#010101" d="M199.248,321.812c-20.742,0-37.531-5.541-48.553-16.022c-17.746-16.867-27.765-33.146-33.502-54.432
						c-5.921-22.003-7.134-49.867-7.134-84.934c0-7.967,5.144-19.165,29.647-27.263c16.538-5.461,38.394-6.214,59.548-6.214
						c21.159,0,43.018,0.753,59.544,6.214c24.505,8.1,29.648,19.296,29.648,27.263c0,3.119-0.012,6.104-0.031,8.962l-0.007,1.078
						l1.047-0.262c3.759-0.939,7.2-1.376,10.829-1.376c11.743,0,22.514,3.904,30.329,10.993
						c8.301,7.523,12.874,18.158,12.874,29.945c0,11.244-4.452,22.517-12.213,30.929c-8.29,8.998-19.296,13.955-30.988,13.955
						c-1.686,0-3.514-0.043-5.096-0.084l-1.042-0.02c-1.397-0.028-2.815-0.058-4.194-0.058c-2.874,0-7.025,0.104-9.89,1.007
						c-1.469,0.462-2.277,1-2.62,1.742l-0.046,0.106c-6.932,16.485-16.067,29.599-29.59,42.449
						C236.783,316.271,219.991,321.812,199.248,321.812z M199.253,140.947c-20.486,0-41.576,0.704-57.039,5.81
						c-15.578,5.148-24.157,12.132-24.157,19.667c0,34.432,1.167,61.699,6.859,82.853c5.327,19.765,14.685,34.932,31.29,50.714
						c9.507,9.042,24.391,13.82,43.041,13.82c18.653,0,33.538-4.779,43.045-13.821c12.685-12.053,21.245-24.334,27.758-39.821
						l0.102-0.232c2.006-4.343,6.146-5.647,7.506-6.075c3.872-1.22,8.604-1.376,12.293-1.376c1.433,0,2.906,0.03,4.357,0.059
						l1.059,0.021c1.545,0.04,3.299,0.082,4.917,0.082c9.43,0,18.346-4.041,25.106-11.377c6.417-6.954,10.095-16.25,10.095-25.506
						c0-9.5-3.639-18.03-10.248-24.019c-6.342-5.752-15.204-8.92-24.956-8.92c-2.958,0-5.782,0.361-8.889,1.138l-6.051,1.513
						c-1.2,0.299-2.471,0.028-3.442-0.736c-0.972-0.764-1.536-1.935-1.528-3.171l0.042-6.236c0.02-2.841,0.031-5.808,0.031-8.908
						c0-7.533-8.58-14.518-24.159-19.667C240.835,141.651,219.744,140.947,199.253,140.947z M298.297,237.522
						c-1.753,0-3.675-0.125-5.71-0.258c-3.806-0.248-8.422-0.468-11.708-0.097c-1.224,0.141-2.445-0.295-3.307-1.177
						c-0.862-0.881-1.271-2.11-1.106-3.332c0.908-6.74,2.279-16.926,2.704-21.998c0.052-0.625,0.25-1.229,0.58-1.763
						c4.245-6.896,11.729-10.851,20.535-10.851c12.138,0,19.98,6.954,19.98,17.717c0,11.019-8.813,20.538-20.064,21.67
						C299.641,237.493,299.013,237.522,298.297,237.522z M285.253,228.946c2.717,0,5.43,0.177,7.823,0.333
						c1.933,0.126,3.729,0.243,5.127,0.243c0.521,0,0.885-0.016,1.178-0.046c7.232-0.729,12.883-6.75,12.883-13.712
						c0-8.031-6.515-9.717-11.98-9.717c-5.714,0-10.377,2.23-13.234,6.301c-0.4,4.244-1.251,10.857-2.016,16.599
						C285.108,228.946,285.181,228.946,285.253,228.946z"/>
				</g>
			</g>
			<g>
				<polygon fill="#C7C7C7" points="146.837,258.686 146.837,226.987 162.665,215.488 178.492,226.987 178.492,258.686 				"/>
				<path d="M178.492,262.686h-31.654c-2.209,0-4-1.791-4-4v-31.698c0-1.28,0.613-2.483,1.649-3.236l15.827-11.499
					c1.401-1.019,3.301-1.019,4.702,0l15.827,11.499c1.036,0.752,1.649,1.956,1.649,3.236v31.698
					C182.492,260.895,180.701,262.686,178.492,262.686z M150.837,254.686h23.654v-25.66l-11.827-8.593l-11.827,8.593V254.686z"/>
			</g>
			<path fill="#010101" d="M162.798,219.488c-2.209,0-4-1.791-4-4v-25.15c-0.104-1.41-0.284-7.482,3.759-11.95
				c1.829-2.021,5.242-4.43,11.115-4.43c2.209,0,4,1.791,4,4s-1.791,4-4,4c-2.393,0-4.088,0.588-5.183,1.798
				c-1.73,1.912-1.79,5.233-1.711,6.018c0.013,0.133,0.02,0.266,0.02,0.399v25.315C166.798,217.697,165.007,219.488,162.798,219.488
				z"/>
		</g>
		<g>
			<ellipse fill="#FFFFFF" cx="199.244" cy="159.378" rx="85.035" ry="23.647"/>
			<path d="M199.245,187.025c-44.245,0-89.035-9.497-89.035-27.647c0-18.149,44.791-27.646,89.035-27.646
				c44.244,0,89.034,9.496,89.034,27.646C288.279,177.529,243.489,187.025,199.245,187.025z M199.245,139.732
				c-49.467,0-81.035,11.635-81.035,19.646c0,8.011,31.568,19.647,81.035,19.647c49.467,0,81.034-11.637,81.034-19.647
				C280.279,151.368,248.711,139.732,199.245,139.732z"/>
		</g>
		<g>
			<g>
				<path fill="#B8B8B8" d="M254.781,174.444c-10.368-5.831-30.359-10.546-55.838-10.546c-25.796,0-45.977,4.832-56.233,10.762
					c11.638,6.153,32.596,8.274,55.83,8.274C222.047,182.935,243.228,180.719,254.781,174.444z"/>
				<path d="M198.54,186.935c-27.32,0-46.733-2.94-57.7-8.738c-1.287-0.68-2.102-2.005-2.13-3.46
					c-0.027-1.455,0.738-2.81,1.998-3.539c12.238-7.075,34.008-11.299,58.235-11.299c23.878,0,45.485,4.134,57.799,11.06
					c1.269,0.713,2.05,2.06,2.039,3.516c-0.011,1.456-0.812,2.791-2.091,3.485C245.724,183.915,226.16,186.935,198.54,186.935z
					 M153.077,174.414c10.474,3.003,25.703,4.521,45.462,4.521c19.681,0,35.253-1.598,45.829-4.663
					c-10.14-3.483-25.583-6.373-45.425-6.373C178.784,167.898,163.218,170.855,153.077,174.414z"/>
			</g>
		</g>
	</g>
	<path d="M12842.074,9725.979h-16737v-13953h16737V9725.979z M-3894.425,9724.979h16736l-0.5-13951h-16735.5l0.5,13951H-3894.425z"
		/>
</g>
<g id="cb" display="none">
	<g id="rdeča7bela_copy" display="inline">
	</g>
	<g display="inline">
		<g>
			
				<polygon fill="none" stroke="#000000" stroke-width="8" stroke-linecap="round" stroke-linejoin="round" stroke-miterlimit="10" points="
				146.837,258.686 146.837,226.987 162.665,215.488 178.492,226.987 178.492,258.686 			"/>
			<path fill="none" stroke="#000000" stroke-width="8" stroke-linecap="round" stroke-linejoin="round" stroke-miterlimit="10" d="
				M162.798,215.488v-25.315c0,0-1.224-12.215,10.874-12.215"/>
		</g>
		<g>
			<path fill="none" stroke="#000000" stroke-width="8" stroke-linecap="round" stroke-linejoin="round" stroke-miterlimit="10" d="
				M280.43,233.192c1.471-0.166,3.073-0.246,4.823-0.246c2.591,0,5.237,0.173,7.573,0.325c1.977,0.129,3.843,0.251,5.377,0.251
				h0.094c0.571,0,1.066-0.022,1.503-0.068c9.232-0.93,16.465-8.699,16.465-17.69c0-8.589-5.974-13.717-15.98-13.717
				c-7.435,0-13.62,3.247-17.129,8.947C282.735,216.024,281.437,225.716,280.43,233.192z"/>
			<path fill="none" stroke="#000000" stroke-width="8" stroke-linecap="round" stroke-linejoin="round" stroke-miterlimit="10" d="
				M114.766,162.054c-0.453,1.421-0.708,2.876-0.708,4.37c0,34.749,1.19,62.313,6.996,83.893
				c5.532,20.526,15.221,36.249,32.396,52.574c10.264,9.761,26.1,14.921,45.798,14.921c19.697,0,35.535-5.16,45.801-14.923
				c13.104-12.452,21.952-25.15,28.688-41.169l0.072-0.163c1.108-2.399,3.412-3.364,5.05-3.88c3.352-1.056,7.688-1.191,11.092-1.191
				c1.471,0,2.984,0.032,4.473,0.063l0.867,0.017c1.551,0.04,3.342,0.083,4.993,0.083c10.562,0,20.521-4.498,28.048-12.667
				c7.088-7.682,11.153-17.967,11.153-28.217c0-10.645-4.105-20.226-11.562-26.982c-7.076-6.419-16.892-9.956-27.642-9.956
				c-3.297,0-6.43,0.4-9.858,1.257l-6.051,1.513l0.042-6.236c0.019-2.85,0.03-5.825,0.03-8.935c0-1.501-0.257-2.962-0.715-4.39"/>
			<path fill="none" stroke="#000000" stroke-width="8" stroke-linecap="round" stroke-linejoin="round" stroke-miterlimit="10" d="
				M251.328,178.063c-14.39,3.108-32.452,4.962-52.083,4.962c-20.98,0-40.168-2.117-54.993-5.62"/>
			<path fill="none" stroke="#000000" stroke-width="8" stroke-linecap="round" stroke-linejoin="round" stroke-miterlimit="10" d="
				M283.731,162.034c-2.617,6.508-14.74,12.214-32.403,16.029"/>
			<path fill="none" stroke="#000000" stroke-width="8" stroke-linecap="round" stroke-linejoin="round" stroke-miterlimit="10" d="
				M144.251,177.405c-16.061-3.794-26.999-9.216-29.485-15.352"/>
			<path fill="none" stroke="#000000" stroke-width="8" stroke-linecap="round" stroke-linejoin="round" stroke-miterlimit="10" d="
				M283.731,162.034c0.351-0.872,0.548-1.758,0.548-2.656c0-13.06-38.073-23.646-85.034-23.646
				c-46.964,0-85.035,10.586-85.035,23.646c0,0.905,0.201,1.797,0.557,2.676"/>
			<path fill="none" stroke="#000000" stroke-width="8" stroke-linecap="round" stroke-linejoin="round" stroke-miterlimit="10" d="
				M251.328,178.063c1.22-0.509,2.391-1.042,3.453-1.619c-10.368-5.831-30.359-10.546-55.838-10.546
				c-25.796,0-45.977,4.832-56.233,10.762c0.49,0.259,1.02,0.5,1.542,0.745"/>
		</g>
	</g>
</g>
<g id="pivot">
	<circle fill="none" cx="200.998" cy="320.25" r="14.133"/>
</g>
</svg>
