<?xml version="1.0" encoding="utf-8"?>
<!-- Generator: Adobe Illustrator 16.0.0, SVG Export Plug-In . SVG Version: 6.00 Build 0)  -->
<!DOCTYPE svg PUBLIC "-//W3C//DTD SVG 1.1//EN" "http://www.w3.org/Graphics/SVG/1.1/DTD/svg11.dtd">
<svg version="1.1" xmlns="http://www.w3.org/2000/svg" xmlns:xlink="http://www.w3.org/1999/xlink" x="0px" y="0px"
	 width="453.543px" height="453.544px" viewBox="0 0 453.543 453.544" enable-background="new 0 0 453.543 453.544"
	 xml:space="preserve">
<g id="kvadrat">
</g>
<g id="bg" display="none">
	<rect x="-4914.849" y="-3806.513" display="inline" width="15266.867" height="13678.951"/>
</g>
<g id="color" display="none">
	<g id="rdeča7bela" display="inline">
	</g>
	<g display="inline">
		<g>
			
				<path fill="#D45F14" stroke="#000000" stroke-width="8" stroke-linecap="round" stroke-linejoin="round" stroke-miterlimit="10" d="
				M100.781,168.997c0,49.329,28.359,92.022,69.654,112.717v18.132c0,0,23.938,4.148,56.047,4.148
				c32.11,0,56.622-4.148,56.622-4.148v-18.132c41.296-20.695,69.658-63.389,69.658-112.717c0,0-76.19,12.45-125.987,12.45
				C176.975,181.447,100.781,168.997,100.781,168.997z"/>
			
				<path fill="#90278E" stroke="#000000" stroke-width="8" stroke-linecap="round" stroke-linejoin="round" stroke-miterlimit="10" d="
				M325.385,205.792c-5.951,18.06-32.399,45.971-42.112,49.983"/>
		</g>
		<g>
			
				<path fill="#AB5C2E" stroke="#000000" stroke-width="8" stroke-linecap="round" stroke-linejoin="round" stroke-miterlimit="10" d="
				M100.962,168.988c27.469,11.716,74.225,19.459,125.837,19.459c51.584,0,98.306-7.732,125.782-19.439
				c-27.47-11.715-74.226-19.46-125.837-19.46C175.16,149.548,128.438,157.283,100.962,168.988z"/>
		</g>
	</g>
	
		<rect x="-5425.134" y="-4226.521" display="inline" fill="none" stroke="#000000" stroke-miterlimit="10" width="16736" height="13952"/>
</g>
<g id="cb_1_">
	<g id="rdeča7bela_copy_3">
	</g>
	<g>
		<g>
			<g>
				<path fill="#7A7A7A" d="M100.781,168.997c0,49.329,28.359,92.022,69.654,112.717v18.132c0,0,23.938,4.148,56.047,4.148
					c32.11,0,56.622-4.148,56.622-4.148v-18.132c41.296-20.695,69.658-63.389,69.658-112.717c0,0-76.19,12.45-125.987,12.45
					C176.975,181.447,100.781,168.997,100.781,168.997z"/>
				<path d="M226.482,307.995c-32.084,0-55.739-4.035-56.73-4.207c-1.917-0.333-3.317-1.996-3.317-3.941v-15.689
					c-20.292-10.658-37.438-26.495-49.696-45.931c-13.057-20.703-19.958-44.642-19.958-69.23c0-1.174,0.516-2.288,1.41-3.048
					c0.895-0.76,2.075-1.091,3.235-0.9c0.759,0.124,76.451,12.398,125.349,12.398c48.906,0,124.583-12.274,125.342-12.398
					c1.16-0.191,2.341,0.14,3.235,0.9c0.894,0.76,1.41,1.874,1.41,3.048c0,24.587-6.902,48.527-19.96,69.23
					c-12.258,19.436-29.405,35.273-49.698,45.931v15.689c0,1.952-1.408,3.618-3.333,3.944
					C282.757,303.962,258.56,307.995,226.482,307.995z M174.435,296.416c7.597,1.097,27.499,3.579,52.047,3.579
					c24.649,0,44.92-2.495,52.622-3.589v-14.692c0-1.514,0.854-2.898,2.208-3.576c40.201-20.146,65.688-59.868,67.362-104.45
					c-17.474,2.692-79.491,11.759-121.899,11.759c-42.411,0-104.432-9.067-121.906-11.759c1.675,44.582,27.16,84.305,67.358,104.45
					c1.354,0.678,2.208,2.063,2.208,3.576V296.416z"/>
			</g>
			<g>
				<path fill="#525252" d="M325.385,205.792c-5.951,18.06-32.399,45.971-42.112,49.983"/>
				<path d="M283.274,259.777c-1.571,0-3.062-0.932-3.698-2.474c-0.844-2.042,0.128-4.381,2.169-5.224
					c8.341-3.446,34.186-30.378,39.841-47.539c0.691-2.099,2.95-3.24,5.051-2.547c2.098,0.691,3.238,2.953,2.547,5.051
					c-6.32,19.18-33.41,47.896-44.384,52.428C284.301,259.679,283.783,259.777,283.274,259.777z"/>
			</g>
		</g>
		<g>
			<g>
				<path fill="#6F6F6F" d="M100.962,168.988c27.469,11.716,74.225,19.459,125.837,19.459c51.584,0,98.306-7.732,125.782-19.439
					c-27.47-11.715-74.226-19.46-125.837-19.46C175.16,149.548,128.438,157.283,100.962,168.988z"/>
				<path d="M226.799,192.447c-50.739,0-98.368-7.394-127.406-19.78c-1.475-0.629-2.431-2.077-2.431-3.68
					c0-1.603,0.958-3.051,2.432-3.679c29.042-12.373,76.65-19.76,127.35-19.76c50.735,0,98.364,7.395,127.406,19.781
					c1.474,0.628,2.431,2.077,2.431,3.68c0,1.603-0.958,3.051-2.432,3.679C325.11,185.061,277.502,192.447,226.799,192.447z
					 M112.172,168.99c28.444,9.752,70.237,15.457,114.627,15.457c44.359,0,86.13-5.698,114.572-15.441
					c-28.447-9.753-70.24-15.458-114.627-15.458C182.388,153.548,140.616,159.247,112.172,168.99z"/>
			</g>
		</g>
	</g>
	<path d="M11311.365,9725.979h-16737v-13953h16737V9725.979z M-5425.134,9724.979h16736l-0.5-13951h-16735.5l0.5,13951H-5425.134z"
		/>
</g>
<g id="cb" display="none">
	<g id="rdeča7bela_copy" display="inline">
	</g>
</g>
<g id="pivot">
	<circle fill="none" cx="225.554" cy="298.549" r="14.133"/>
</g>
</svg>
