<?xml version="1.0" encoding="utf-8"?>
<!-- Generator: Adobe Illustrator 16.0.0, SVG Export Plug-In . SVG Version: 6.00 Build 0)  -->
<!DOCTYPE svg PUBLIC "-//W3C//DTD SVG 1.1//EN" "http://www.w3.org/Graphics/SVG/1.1/DTD/svg11.dtd">
<svg version="1.1" xmlns="http://www.w3.org/2000/svg" xmlns:xlink="http://www.w3.org/1999/xlink" x="0px" y="0px"
	 width="453.543px" height="453.544px" viewBox="0 0 453.543 453.544" enable-background="new 0 0 453.543 453.544"
	 xml:space="preserve">
<g id="kvadrat">
</g>
<g id="bg" display="none">
	<rect x="-6955.794" y="-3296.277" display="inline" width="15266.867" height="13678.951"/>
</g>
<g id="color" display="none">
	<g display="inline">
		
			<path fill="#EED2A3" stroke="#000000" stroke-width="8" stroke-linecap="round" stroke-linejoin="round" stroke-miterlimit="10" d="
			M378.048,153.595c-9.092,3.31-17.096,7.514-23.299,11.877c-4.498,3.168-10.021,6.05-16.203,8.302
			c-0.984,0.357-9.947-0.131-9.947-0.131l-6.504-17.872c-0.553-1.516-2.225-2.295-3.729-1.749L109.839,229.92
			c-1.514,0.552-2.287,2.229-1.736,3.736l6.504,17.874c0,0-6.549,6.135-7.537,6.493c-6.184,2.25-12.26,3.589-17.756,4.061
			c-7.545,0.639-16.373,2.562-25.475,5.873c-8.84,3.217-13.398,12.987-10.182,21.824c3.213,8.829,12.986,13.386,21.826,10.169
			c9.1-3.312,17.1-7.515,23.303-11.876c4.504-3.17,10.02-6.049,16.207-8.302c0.982-0.357,9.951,0.134,9.951,0.134l6.504,17.866
			c0.551,1.518,2.217,2.297,3.734,1.745l208.521-75.896c1.51-0.549,2.283-2.219,1.732-3.732l-6.502-17.868
			c0,0,6.547-6.138,7.535-6.499c6.176-2.248,12.26-3.587,17.75-4.058c7.555-0.646,16.387-2.57,25.48-5.879
			c8.842-3.22,13.4-12.991,10.188-21.821C396.669,154.928,386.892,150.376,378.048,153.595z"/>
	</g>
	<g id="rdeča7bela" display="inline">
	</g>
	
		<rect x="-7466.08" y="-3716.285" display="inline" fill="none" stroke="#000000" stroke-miterlimit="10" width="16736" height="13952"/>
</g>
<g id="cb_1_">
	<g>
		<g>
			<path fill="#D5D5D5" d="M378.048,153.595c-9.092,3.31-17.096,7.514-23.299,11.877c-4.498,3.168-10.021,6.05-16.203,8.302
				c-0.984,0.357-9.947-0.131-9.947-0.131l-6.504-17.872c-0.553-1.516-2.225-2.295-3.729-1.749L109.839,229.92
				c-1.514,0.552-2.287,2.229-1.736,3.736l6.504,17.874c0,0-6.549,6.135-7.537,6.493c-6.184,2.25-12.26,3.589-17.756,4.061
				c-7.545,0.639-16.373,2.562-25.475,5.873c-8.84,3.217-13.398,12.987-10.182,21.824c3.213,8.829,12.986,13.386,21.826,10.169
				c9.1-3.312,17.1-7.515,23.303-11.876c4.504-3.17,10.02-6.049,16.207-8.302c0.982-0.357,9.951,0.134,9.951,0.134l6.504,17.866
				c0.551,1.518,2.217,2.297,3.734,1.745l208.521-75.896c1.51-0.549,2.283-2.219,1.732-3.732l-6.502-17.868
				c0,0,6.547-6.138,7.535-6.499c6.176-2.248,12.26-3.587,17.75-4.058c7.555-0.646,16.387-2.57,25.48-5.879
				c8.842-3.22,13.4-12.991,10.188-21.821C396.669,154.928,386.892,150.376,378.048,153.595z"/>
			<path d="M69.659,304.982c-8.808,0-16.749-5.559-19.76-13.833c-1.921-5.278-1.671-10.988,0.704-16.079
				c2.375-5.09,6.59-8.951,11.869-10.872c9.036-3.288,18.201-5.397,26.505-6.1c5.187-0.445,10.84-1.725,16.371-3.706
				c0.754-0.557,2.657-2.229,4.591-3.994l-5.594-15.375c-0.631-1.728-0.552-3.603,0.224-5.277c0.778-1.679,2.164-2.952,3.901-3.585
				l208.529-75.899c0.761-0.276,1.552-0.416,2.355-0.416c2.895,0,5.506,1.83,6.5,4.553l5.595,15.373
				c1.547,0.065,3.475,0.131,4.915,0.131c0.618,0,0.982-0.013,1.181-0.023c5.517-2.042,10.664-4.694,14.903-7.68
				c6.832-4.805,15.211-9.081,24.234-12.365c2.324-0.846,4.747-1.274,7.201-1.274c8.809,0,16.751,5.559,19.766,13.833
				c3.963,10.892-1.679,22.98-12.577,26.949c-9.022,3.282-18.188,5.394-26.508,6.105c-5.192,0.445-10.843,1.724-16.365,3.702
				c-0.754,0.559-2.658,2.232-4.593,4l5.593,15.37c0.631,1.733,0.551,3.608-0.224,5.279c-0.778,1.677-2.164,2.949-3.901,3.581
				l-208.52,75.896c-0.764,0.278-1.561,0.418-2.368,0.418c-2.895,0-5.505-1.832-6.494-4.558l-5.593-15.362
				c-1.553-0.065-3.491-0.133-4.933-0.133c-0.609,0-0.97,0.013-1.167,0.023c-5.515,2.041-10.663,4.692-14.908,7.68
				c-6.835,4.806-15.216,9.081-24.237,12.364C74.531,304.554,72.11,304.982,69.659,304.982z M112.232,233.306l6.134,16.857
				c0.548,1.505,0.145,3.192-1.024,4.287c-7.148,6.696-8.208,7.08-8.908,7.334c-6.291,2.289-12.785,3.771-18.778,4.286
				c-7.614,0.645-16.067,2.597-24.449,5.646c-3.271,1.19-5.883,3.583-7.355,6.737c-1.471,3.153-1.626,6.691-0.436,9.96
				c1.865,5.125,6.785,8.569,12.242,8.569c1.516,0,3.016-0.266,4.458-0.791c8.369-3.045,16.104-6.984,22.37-11.389
				c4.906-3.453,10.833-6.492,17.139-8.789c0.774-0.281,1.633-0.372,3.538-0.372c3.034,0,7.799,0.259,8,0.27
				c1.599,0.088,2.992,1.121,3.54,2.626l6.133,16.849l206.47-75.15l-6.131-16.849c-0.547-1.504-0.145-3.191,1.023-4.286
				c7.143-6.696,8.199-7.083,8.897-7.338c6.293-2.291,12.786-3.772,18.782-4.286c7.629-0.653,16.085-2.607,24.455-5.652
				c6.753-2.459,10.251-9.949,7.796-16.695c-1.867-5.125-6.79-8.57-12.249-8.57c-1.518,0-3.021,0.267-4.464,0.792
				c-8.37,3.047-16.104,6.985-22.366,11.39c-4.898,3.45-10.824,6.49-17.135,8.789c-0.777,0.282-1.64,0.373-3.553,0.373
				c-3.034,0-7.781-0.257-7.981-0.268c-1.6-0.087-2.993-1.121-3.541-2.626l-6.134-16.855L112.232,233.306z"/>
		</g>
	</g>
	<g id="rdeča7bela_copy_3">
	</g>
	<path d="M9270.42,10236.215h-16737v-13953h16737V10236.215z M-7466.08,10235.215h16736l-0.5-13951h-16735.5l0.5,13951H-7466.08z"/>
</g>
<g id="cb" display="none">
	<g display="inline">
		<path fill="none" stroke="#000000" stroke-width="8" stroke-linecap="round" stroke-linejoin="round" stroke-miterlimit="10" d="
			M378.048,153.595c-9.092,3.31-17.096,7.514-23.299,11.877c-4.498,3.168-10.021,6.05-16.203,8.302
			c-0.984,0.357-9.947-0.131-9.947-0.131l-6.504-17.872c-0.553-1.516-2.225-2.295-3.729-1.749L109.839,229.92
			c-1.514,0.552-2.287,2.229-1.736,3.736l6.504,17.874c0,0-6.549,6.135-7.537,6.493c-6.184,2.25-12.26,3.589-17.756,4.061
			c-7.545,0.639-16.373,2.562-25.475,5.873c-8.84,3.217-13.398,12.987-10.182,21.824c3.213,8.829,12.986,13.386,21.826,10.169
			c9.1-3.312,17.1-7.515,23.303-11.876c4.504-3.17,10.02-6.049,16.207-8.302c0.982-0.357,9.951,0.134,9.951,0.134l6.504,17.866
			c0.551,1.518,2.217,2.297,3.734,1.745l208.521-75.896c1.51-0.549,2.283-2.219,1.732-3.732l-6.502-17.868
			c0,0,6.547-6.138,7.535-6.499c6.176-2.248,12.26-3.587,17.75-4.058c7.555-0.646,16.387-2.57,25.48-5.879
			c8.842-3.22,13.4-12.991,10.188-21.821C396.669,154.928,386.892,150.376,378.048,153.595z"/>
	</g>
	<g id="rdeča7bela_copy" display="inline">
	</g>
</g>
<g id="pivot">
	<circle fill="none" cx="224.539" cy="300.974" r="14.133"/>
</g>
</svg>
