<?xml version="1.0" encoding="utf-8"?>
<!-- Generator: Adobe Illustrator 16.0.0, SVG Export Plug-In . SVG Version: 6.00 Build 0)  -->
<!DOCTYPE svg PUBLIC "-//W3C//DTD SVG 1.1//EN" "http://www.w3.org/Graphics/SVG/1.1/DTD/svg11.dtd">
<svg version="1.1" xmlns="http://www.w3.org/2000/svg" xmlns:xlink="http://www.w3.org/1999/xlink" x="0px" y="0px"
	 width="453.543px" height="453.544px" viewBox="0 0 453.543 453.544" enable-background="new 0 0 453.543 453.544"
	 xml:space="preserve">
<g id="kvadrat">
</g>
<g id="bg" display="none">
	<rect x="-4404.613" y="-3806.513" display="inline" width="15266.867" height="13678.951"/>
</g>
<g id="color" display="none">
	<g id="rdeča7bela" display="inline">
	</g>
	
		<path display="inline" fill="#39A935" stroke="#000000" stroke-width="8" stroke-linecap="round" stroke-linejoin="round" stroke-miterlimit="10" d="
		M295.187,195.103c-2.859-7.6-6.902-14.418-10.813-20.995c-4.988-8.433-9.699-16.383-11.973-25.661
		c-2.594-10.616-4.055-25.2,1.711-38.566l10.32-9.478h-57.656H169.11l10.334,9.478c5.748,13.372,4.291,27.955,1.691,38.566
		c-2.254,9.278-6.979,17.228-11.967,25.661c-3.912,6.577-7.953,13.395-10.811,20.995c-12.246,32.465-13.299,61.592-3.314,91.659
		c6.973,20.922,21.684,39.451,35.34,53.235h1.627v13.144h69.52v-13.144h1.627c13.672-13.784,28.38-32.313,35.339-53.235
		C308.483,256.695,307.433,227.568,295.187,195.103z"/>
	
		<rect x="-4914.898" y="-4226.521" display="inline" fill="none" stroke="#000000" stroke-miterlimit="10" width="16736" height="13952"/>
</g>
<g id="cb_1_">
	<g id="rdeča7bela_copy_3">
	</g>
	<g>
		<path fill="#7B7B7B" d="M295.187,195.103c-2.859-7.6-6.902-14.418-10.813-20.995c-4.988-8.433-9.699-16.383-11.973-25.661
			c-2.594-10.616-4.055-25.2,1.711-38.566l10.32-9.478h-57.656H169.11l10.334,9.478c5.748,13.372,4.291,27.955,1.691,38.566
			c-2.254,9.278-6.979,17.228-11.967,25.661c-3.912,6.577-7.953,13.395-10.811,20.995c-12.246,32.465-13.299,61.592-3.314,91.659
			c6.973,20.922,21.684,39.451,35.34,53.235h1.627v13.144h69.52v-13.144h1.627c13.672-13.784,28.38-32.313,35.339-53.235
			C308.483,256.695,307.433,227.568,295.187,195.103z"/>
		<path d="M261.53,357.141h-69.52c-2.209,0-4-1.791-4-4v-9.923c-0.166-0.122-0.322-0.257-0.469-0.405
			c-18.033-18.202-30.244-36.635-36.293-54.786c-10.291-30.99-9.221-60.965,3.367-94.335c3.006-7.996,7.314-15.238,11.115-21.628
			l0.097-0.163c4.794-8.105,9.323-15.761,11.421-24.397c2.275-9.284,3.882-22.85-1.156-35.269l-9.686-8.883
			c-1.215-1.115-1.622-2.861-1.024-4.398s2.078-2.549,3.728-2.549h115.322c1.649,0,3.129,1.012,3.727,2.548
			c0.599,1.536,0.193,3.283-1.021,4.398l-9.676,8.885c-5.047,12.396-3.445,25.973-1.175,35.263
			c2.126,8.676,6.674,16.366,11.49,24.507c3.839,6.457,8.15,13.708,11.153,21.689c12.586,33.367,13.655,63.341,3.362,94.328
			c-6.042,18.168-18.254,36.602-36.295,54.792c-0.146,0.147-0.302,0.282-0.467,0.403v9.923
			C265.53,355.35,263.739,357.141,261.53,357.141z M196.011,349.141h61.52v-9.144c0-2.193,1.765-3.974,3.951-4
			c16.526-16.916,27.698-33.898,33.22-50.498c9.682-29.149,8.647-57.425-3.257-88.985c-2.754-7.321-6.696-13.951-10.508-20.362
			c-5.17-8.74-10.011-16.925-12.42-26.753c-2.607-10.674-4.39-26.466,1.923-41.103c0.223-0.517,0.553-0.981,0.967-1.362l2.756-2.531
			H179.39l2.758,2.53c0.417,0.382,0.748,0.849,0.971,1.368c6.302,14.66,4.512,30.441,1.902,41.098
			c-2.377,9.787-7.201,17.941-12.308,26.575l-0.101,0.171c-3.813,6.41-7.751,13.03-10.509,20.366
			c-11.906,31.564-12.942,59.84-3.262,88.99c5.527,16.584,16.7,33.567,33.22,50.497c2.186,0.027,3.95,1.807,3.95,4V349.141z"/>
	</g>
	<path d="M11821.602,9725.979h-16737v-13953h16737V9725.979z M-4914.898,9724.979h16736l-0.5-13951h-16735.5l0.5,13951H-4914.898z"
		/>
</g>
<g id="cb" display="none">
	<g id="rdeča7bela_copy" display="inline">
	</g>
	
		<path display="inline" fill="none" stroke="#1C1C1C" stroke-width="8" stroke-linecap="round" stroke-linejoin="round" stroke-miterlimit="10" d="
		M295.187,195.103c-2.859-7.6-6.902-14.418-10.813-20.995c-4.988-8.433-9.699-16.383-11.973-25.661
		c-2.594-10.616-4.055-25.2,1.711-38.566l10.32-9.478h-57.656H169.11l10.334,9.478c5.748,13.372,4.291,27.955,1.691,38.566
		c-2.254,9.278-6.979,17.228-11.967,25.661c-3.912,6.577-7.953,13.395-10.811,20.995c-12.246,32.465-13.299,61.592-3.314,91.659
		c6.973,20.922,21.684,39.451,35.34,53.235h1.627v13.144h69.52v-13.144h1.627c13.672-13.784,28.38-32.313,35.339-53.235
		C308.483,256.695,307.433,227.568,295.187,195.103z"/>
</g>
<g id="pivot">
	<circle fill="none" cx="222.191" cy="352.079" r="14.133"/>
</g>
</svg>
