<?xml version="1.0" encoding="utf-8"?>
<!-- Generator: Adobe Illustrator 16.0.0, SVG Export Plug-In . SVG Version: 6.00 Build 0)  -->
<!DOCTYPE svg PUBLIC "-//W3C//DTD SVG 1.1//EN" "http://www.w3.org/Graphics/SVG/1.1/DTD/svg11.dtd">
<svg version="1.1" xmlns="http://www.w3.org/2000/svg" xmlns:xlink="http://www.w3.org/1999/xlink" x="0px" y="0px"
	 width="453.544px" height="453.544px" viewBox="0 0 453.544 453.544" enable-background="new 0 0 453.544 453.544"
	 xml:space="preserve">
<g id="kvadrat">
</g>
<g id="bg" display="none">
	<rect x="-10527.448" y="-3806.513" display="inline" width="15266.867" height="13678.951"/>
</g>
<g id="color" display="none">
	<g id="rdeča7bela" display="inline">
	</g>
	<path display="inline" fill="#FFFFFF" stroke="#1D1D1B" stroke-width="8" stroke-miterlimit="10" d="M310.884,244.299
		c-12.887-23.68-36.471-39.121-49.844-62.434c-15.742-27.446-14.525-61.591-1.58-89.816c0.609-1.332-1.002-6.032-1.959-6.487
		c-8.135-3.847-53.324-3.847-61.459,0c-0.957,0.455-2.568,5.155-1.959,6.487c12.945,28.226,14.164,62.37-1.58,89.816
		c-13.371,23.313-36.955,38.754-49.842,62.434c-18.84,34.613-13.357,82.253,17.6,108.182c16.795,14.069,39.025,17.894,60.352,18.362
		c2.041,0.044,4.1,0.022,6.16-0.022c2.061,0.045,4.117,0.066,6.16,0.022c21.324-0.469,43.555-4.293,60.352-18.362
		C324.239,326.552,329.724,278.912,310.884,244.299z"/>
	
		<rect x="-11037.733" y="-4226.521" display="inline" fill="none" stroke="#000000" stroke-miterlimit="10" width="16736" height="13952"/>
</g>
<g id="cb_1_">
	<g id="rdeča7bela_copy_3">
	</g>
	<g>
		<path fill="#FFFFFF" d="M310.884,244.299c-12.887-23.68-36.471-39.121-49.844-62.434c-15.742-27.446-14.525-61.591-1.58-89.816
			c0.609-1.332-1.002-6.032-1.959-6.487c-8.135-3.847-53.324-3.847-61.459,0c-0.957,0.455-2.568,5.155-1.959,6.487
			c12.945,28.226,14.164,62.37-1.58,89.816c-13.371,23.313-36.955,38.754-49.842,62.434c-18.84,34.613-13.357,82.253,17.6,108.182
			c16.795,14.069,39.025,17.894,60.352,18.362c2.041,0.044,4.1,0.022,6.16-0.022c2.061,0.045,4.117,0.066,6.16,0.022
			c21.324-0.469,43.555-4.293,60.352-18.362C324.239,326.552,329.724,278.912,310.884,244.299z"/>
		<path fill="#1D1D1D" d="M230.581,374.867c-1.267,0-2.537-0.018-3.809-0.045c-2.09,0.045-4.179,0.065-6.246,0.021
			c-27.887-0.613-47.852-6.744-62.834-19.295c-15.435-12.927-25.685-31.861-28.862-53.314c-3.07-20.728,0.594-41.981,10.317-59.846
			c6.84-12.567,16.568-22.883,25.977-32.859c9.058-9.604,17.612-18.675,23.909-29.653c14.242-24.828,14.771-57.037,1.414-86.159
			c-1.352-2.953,0.668-10.241,3.877-11.767c6.422-3.037,26.459-3.273,32.447-3.273s26.025,0.236,32.439,3.269
			c3.217,1.53,5.236,8.818,3.887,11.768c-13.357,29.124-12.829,61.333,1.412,86.162c6.297,10.977,14.852,20.048,23.909,29.651
			c9.409,9.976,19.139,20.292,25.979,32.86c9.724,17.864,13.387,39.118,10.316,59.846c-3.178,21.453-13.428,40.387-28.861,53.314
			c-14.984,12.551-34.949,18.682-62.832,19.295C232.208,374.859,231.396,374.867,230.581,374.867z M226.772,366.819l0.087,0.002
			c2.004,0.043,4.002,0.065,5.987,0.022c25.965-0.571,44.354-6.109,57.869-17.43c28.05-23.495,35.365-68.827,16.654-103.203
			c-6.344-11.658-15.295-21.148-24.771-31.196c-8.979-9.519-18.262-19.362-25.029-31.16c-15.433-26.906-16.17-61.594-2.002-92.913
			c-0.082-0.556-0.349-1.45-0.61-2.079c-3.633-1.131-13.907-2.188-28.187-2.188c-14.272,0-24.544,1.056-28.188,2.189
			c-0.262,0.628-0.527,1.522-0.609,2.078c14.167,31.317,13.431,66.009-2.002,92.913c-6.767,11.798-16.051,21.642-25.028,31.162
			c-9.476,10.047-18.426,19.537-24.77,31.194c-18.712,34.377-11.396,79.709,16.654,103.203c13.514,11.32,31.902,16.859,57.871,17.43
			c1.979,0.042,3.982,0.021,5.985-0.022L226.772,366.819z"/>
	</g>
	<path d="M5698.767,9725.979h-16737v-13953h16737V9725.979z M-11037.733,9724.979h16736l-0.5-13951h-16735.5l0.5,13951H-11037.733z"
		/>
</g>
<g id="cb" display="none">
	<g id="rdeča7bela_copy" display="inline">
	</g>
	<path display="inline" fill="none" stroke="#1C1C1C" stroke-width="8" stroke-miterlimit="10" d="M310.884,244.299
		c-12.887-23.68-36.471-39.121-49.844-62.434c-15.742-27.446-14.525-61.591-1.58-89.816c0.609-1.332-1.002-6.032-1.959-6.487
		c-8.135-3.847-53.324-3.847-61.459,0c-0.957,0.455-2.568,5.155-1.959,6.487c12.945,28.226,14.164,62.37-1.58,89.816
		c-13.371,23.313-36.955,38.754-49.842,62.434c-18.84,34.613-13.357,82.253,17.6,108.182c16.795,14.069,39.025,17.894,60.352,18.362
		c2.041,0.044,4.1,0.022,6.16-0.022c2.061,0.045,4.117,0.066,6.16,0.022c21.324-0.469,43.555-4.293,60.352-18.362
		C324.239,326.552,329.724,278.912,310.884,244.299z"/>
</g>
<g id="pivot">
	<circle fill="none" cx="223.486" cy="366.546" r="14.133"/>
</g>
</svg>
