<?xml version="1.0" encoding="utf-8"?>
<!-- Generator: Adobe Illustrator 16.0.0, SVG Export Plug-In . SVG Version: 6.00 Build 0)  -->
<!DOCTYPE svg PUBLIC "-//W3C//DTD SVG 1.1//EN" "http://www.w3.org/Graphics/SVG/1.1/DTD/svg11.dtd">
<svg version="1.1" xmlns="http://www.w3.org/2000/svg" xmlns:xlink="http://www.w3.org/1999/xlink" x="0px" y="0px"
	 width="453.543px" height="453.544px" viewBox="0 0 453.543 453.544" enable-background="new 0 0 453.543 453.544"
	 xml:space="preserve">
<g id="kvadrat">
</g>
<g id="bg" display="none">
	<rect x="-1853.431" y="-2786.04" display="inline" width="15266.867" height="13678.951"/>
</g>
<g id="color" display="none">
	<g id="rdeča7bela" display="inline">
	</g>
	<g display="inline">
		<g>
			
				<path fill="#E95A0C" stroke="#000000" stroke-width="8" stroke-linecap="round" stroke-linejoin="round" stroke-miterlimit="10" d="
				M339.963,107.543H113.582h-8.898v28.291h10.559l11.434,194.875c0.493,8.41,7.792,15.292,16.218,15.292h167.754
				c8.425,0,15.725-6.882,16.218-15.292l11.436-194.875h10.558v-28.291H339.963z"/>
			<path stroke="#000000" stroke-width="8" stroke-linecap="round" stroke-linejoin="round" stroke-miterlimit="10" d="
				M226.769,298.516c-18.096,0-36.191-0.398-38.919-1.195c-28.131-8.232-53.449-25.68-71.292-49.132
				c-18.435-24.235-28.179-53.181-28.179-83.715v-28.64c0-8.989,7.314-16.305,16.304-16.305v4.938
				c-6.268,0-11.368,5.099-11.368,11.366v28.64c0,58.909,39.443,111.588,95.919,128.111c4.911,1.398,70.163,1.398,75.073,0
				c56.474-16.523,95.92-69.202,95.92-128.111v-28.64c0-6.268-5.099-11.366-11.368-11.366v-4.938
				c8.988,0,16.304,7.315,16.304,16.305v28.64c0,30.534-9.746,59.479-28.18,83.715c-17.842,23.452-43.162,40.899-71.292,49.132
				C262.967,298.117,244.866,298.516,226.769,298.516z"/>
			
				<rect x="188.542" y="289.385" stroke="#000000" stroke-width="8" stroke-linecap="round" stroke-linejoin="round" stroke-miterlimit="10" width="76.458" height="14.782"/>
		</g>
		
			<line stroke="#000000" stroke-width="8" stroke-linecap="round" stroke-linejoin="round" stroke-miterlimit="10" x1="99.684" y1="135.834" x2="343.861" y2="135.834"/>
	</g>
	
		<rect x="-2363.716" y="-3206.049" display="inline" fill="none" stroke="#000000" stroke-miterlimit="10" width="16736" height="13952"/>
</g>
<g id="cb_1_">
	<g id="rdeča7bela_copy_3">
	</g>
	<g>
		<g>
			<g>
				<path fill="#7C7C7C" d="M339.963,107.543H113.582h-8.898v28.291h10.559l11.434,194.875c0.493,8.41,7.792,15.292,16.218,15.292
					h167.754c8.425,0,15.725-6.882,16.218-15.292l11.436-194.875h10.558v-28.291H339.963z"/>
				<path d="M310.649,350.001H142.895c-10.529,0-19.596-8.549-20.211-19.058L111.47,139.834h-6.787c-2.209,0-4-1.791-4-4v-28.291
					c0-2.209,1.791-4,4-4h244.177c2.209,0,4,1.791,4,4v28.291c0,2.209-1.791,4-4,4h-6.785L330.86,330.943
					C330.244,341.452,321.177,350.001,310.649,350.001z M108.684,131.834h6.559c2.118,0,3.869,1.651,3.993,3.766l11.434,194.875
					c0.366,6.248,5.964,11.526,12.225,11.526h167.754c6.26,0,11.858-5.278,12.225-11.526L334.31,135.6
					c0.124-2.114,1.875-3.766,3.993-3.766h6.558v-20.291H108.684V131.834z"/>
			</g>
			<g>
				<path d="M226.769,298.516c-18.096,0-36.191-0.398-38.919-1.195c-28.131-8.232-53.449-25.68-71.292-49.132
					c-18.435-24.235-28.179-53.181-28.179-83.715v-28.64c0-8.989,7.314-16.305,16.304-16.305v4.938
					c-6.268,0-11.368,5.099-11.368,11.366v28.64c0,58.909,39.443,111.588,95.919,128.111c4.911,1.398,70.163,1.398,75.073,0
					c56.474-16.523,95.92-69.202,95.92-128.111v-28.64c0-6.268-5.099-11.366-11.368-11.366v-4.938
					c8.988,0,16.304,7.315,16.304,16.305v28.64c0,30.534-9.746,59.479-28.18,83.715c-17.842,23.452-43.162,40.899-71.292,49.132
					C262.967,298.117,244.866,298.516,226.769,298.516z"/>
				<path d="M226.769,302.516c-8.304,0-35.734-0.098-40.041-1.356c-28.948-8.471-54.999-26.423-73.354-50.549
					c-18.969-24.938-28.995-54.723-28.995-86.137v-28.64c0-11.196,9.108-20.305,20.304-20.305c2.209,0,4,1.791,4,4v4.938
					c0,2.209-1.791,4-4,4c-4.063,0-7.368,3.305-7.368,7.366v28.64c0,57.142,38.26,108.244,93.042,124.272
					c1.865,0.419,15.318,0.888,36.414,0.888c21.096,0,34.548-0.469,36.495-0.91c54.7-16.006,92.961-67.109,92.961-124.25v-28.64
					c0-4.062-3.305-7.366-7.368-7.366c-2.209,0-4-1.791-4-4v-4.938c0-2.209,1.791-4,4-4c11.195,0,20.304,9.109,20.304,20.305v28.64
					c0,31.411-10.026,61.197-28.996,86.136c-18.354,24.126-44.405,42.078-73.352,50.549
					C262.51,302.418,235.075,302.516,226.769,302.516z"/>
			</g>
			<g>
				<rect x="188.542" y="289.385" width="76.458" height="14.782"/>
				<path d="M265,308.167h-76.458c-2.209,0-4-1.791-4-4v-14.782c0-2.209,1.791-4,4-4H265c2.209,0,4,1.791,4,4v14.782
					C269,306.376,267.209,308.167,265,308.167z M192.542,300.167H261v-6.782h-68.458V300.167z"/>
			</g>
		</g>
		<g>
			<line x1="99.684" y1="135.834" x2="343.861" y2="135.834"/>
			<path d="M343.861,139.834H99.684c-2.209,0-4-1.791-4-4s1.791-4,4-4h244.177c2.209,0,4,1.791,4,4S346.07,139.834,343.861,139.834z
				"/>
		</g>
	</g>
	<path d="M14372.783,10746.451h-16737v-13953h16737V10746.451z M-2363.716,10745.451h16736l-0.5-13951h-16735.5l0.5,13951H-2363.716
		z"/>
</g>
<g id="cb" display="none">
	<g id="rdeča7bela_copy" display="inline">
	</g>
	<g display="inline">
		<g>
			<path fill="none" stroke="#000000" stroke-width="8" stroke-linecap="round" stroke-linejoin="round" stroke-miterlimit="10" d="
				M339.963,107.543H113.582h-8.898v28.291h10.559l11.434,194.875c0.493,8.41,7.792,15.292,16.218,15.292h167.754
				c8.425,0,15.725-6.882,16.218-15.292l11.436-194.875h10.558v-28.291H339.963z"/>
			<path fill="none" stroke="#000000" stroke-width="8" stroke-linecap="round" stroke-linejoin="round" stroke-miterlimit="10" d="
				M104.684,124.468c-6.268,0-11.368,5.099-11.368,11.366v28.64c0,58.909,39.443,111.588,95.919,128.111
				c4.911,1.398,70.163,1.398,75.073,0c56.474-16.523,95.92-69.202,95.92-128.111v-28.64c0-6.268-5.099-11.366-11.368-11.366"/>
			
				<rect x="188.542" y="286.385" stroke="#000000" stroke-width="8" stroke-linecap="round" stroke-linejoin="round" stroke-miterlimit="10" width="76.458" height="14.782"/>
		</g>
		
			<line fill="none" stroke="#000000" stroke-width="8" stroke-linecap="round" stroke-linejoin="round" stroke-miterlimit="10" x1="106.684" y1="135.834" x2="343.861" y2="135.834"/>
	</g>
</g>
<g id="pivot">
	<circle fill="none" cx="225.624" cy="345.354" r="14.133"/>
</g>
</svg>
