<?xml version="1.0" encoding="utf-8"?>
<!-- Generator: Adobe Illustrator 16.0.0, SVG Export Plug-In . SVG Version: 6.00 Build 0)  -->
<!DOCTYPE svg PUBLIC "-//W3C//DTD SVG 1.1//EN" "http://www.w3.org/Graphics/SVG/1.1/DTD/svg11.dtd">
<svg version="1.1" xmlns="http://www.w3.org/2000/svg" xmlns:xlink="http://www.w3.org/1999/xlink" x="0px" y="0px"
	 width="453.543px" height="453.544px" viewBox="0 0 453.543 453.544" enable-background="new 0 0 453.543 453.544"
	 xml:space="preserve">
<g id="kvadrat">
</g>
<g id="bg" display="none">
	<rect x="-5935.322" y="-3296.277" display="inline" width="15266.867" height="13678.951"/>
</g>
<g id="color" display="none">
	<g id="rdeča7bela" display="inline">
	</g>
	
		<path display="inline" fill="#C8C8C8" stroke="#000000" stroke-width="8" stroke-linecap="round" stroke-linejoin="round" stroke-miterlimit="10" d="
		M261.214,162.657l-5.557-97.838c0,0,0.363-5.477-4.555-5.477c-4.917,0-4.82,5.477-4.82,5.477s-0.113-0.086-0.133,0
		c-0.273,0.646,0.734,91.612,0.734,91.612c0,2.303-1.872,4.17-4.175,4.17c-0.821,0-4.818,0-9.721,0V64.819c0,0-2.246-6-6-6s-6,6-6,6
		v95.783c-5.094,0-9.298,0-10.142,0c-2.303,0-4.175-1.867-4.175-4.17l0.121-91.612c0,0-1.518-5.477-4.642-5.477
		s-5.379,5.477-5.379,5.477l-4.436,97.838c-0.191,1.479-0.293,3-0.293,4.544c0,6.771,1.951,13.09,5.304,18.434l0.005,0.013
		l13.472,21.537c2.895,5.038,4.544,10.876,4.544,17.109l-9.083,149.945c0,11.311,9.168,20.484,20.488,20.484
		c11.311,0,20.488-9.173,20.488-20.484l-9.11-149.945c0-6.233,1.676-12.071,4.565-17.109l13.478-21.537v-0.013
		c3.353-5.344,5.304-11.664,5.304-18.434C261.503,165.652,261.392,164.137,261.214,162.657z"/>
	
		<rect x="-6445.607" y="-3716.285" display="inline" fill="none" stroke="#000000" stroke-miterlimit="10" width="16736" height="13952"/>
</g>
<g id="cb_1_">
	<g id="rdeča7bela_copy_3">
	</g>
	<g>
		<path fill="#C8C8C8" d="M261.214,162.657l-5.557-97.838c0,0,0.363-5.477-4.555-5.477c-4.917,0-4.82,5.477-4.82,5.477
			s-0.113-0.086-0.133,0c-0.273,0.646,0.734,91.612,0.734,91.612c0,2.303-1.872,4.17-4.175,4.17c-0.821,0-4.818,0-9.721,0V64.819
			c0,0-2.246-6-6-6s-6,6-6,6v95.783c-5.094,0-9.298,0-10.142,0c-2.303,0-4.175-1.867-4.175-4.17l0.121-91.612
			c0,0-1.518-5.477-4.642-5.477s-5.379,5.477-5.379,5.477l-4.436,97.838c-0.191,1.479-0.293,3-0.293,4.544
			c0,6.771,1.951,13.09,5.304,18.434l0.005,0.013l13.472,21.537c2.895,5.038,4.544,10.876,4.544,17.109l-9.083,149.945
			c0,11.311,9.168,20.484,20.488,20.484c11.311,0,20.488-9.173,20.488-20.484l-9.11-149.945c0-6.233,1.676-12.071,4.565-17.109
			l13.478-21.537v-0.013c3.353-5.344,5.304-11.664,5.304-18.434C261.503,165.652,261.392,164.137,261.214,162.657z"/>
		<path d="M226.774,398.724c-13.503,0-24.488-10.983-24.488-24.484c0-0.081,0.002-0.161,0.007-0.242l9.076-149.82
			c-0.021-5.256-1.394-10.416-3.976-14.936l-13.431-21.472c-0.027-0.043-0.053-0.086-0.079-0.131
			c-3.82-6.14-5.839-13.204-5.839-20.438c0-1.627,0.103-3.27,0.304-4.887l4.428-97.676c0.021-0.461,0.122-0.915,0.297-1.342
			c0.547-1.328,3.555-7.954,9.078-7.954c5.869,0,8.107,7.004,8.496,8.408c0.097,0.35,0.146,0.711,0.146,1.074l-0.121,91.612
			c0,0.087,0.08,0.165,0.175,0.165h6.142V64.819c0-0.479,0.086-0.954,0.254-1.402c0.33-0.88,3.402-8.598,9.746-8.598
			s9.417,7.718,9.746,8.598c0.168,0.448,0.254,0.923,0.254,1.402v91.783h5.721c0.095,0,0.175-0.078,0.175-0.17
			c-0.87-78.485-0.876-90.12-0.587-92.488l-0.048-0.011c0.031-0.137,0.069-0.27,0.113-0.401c0.185-1.505,0.773-3.874,2.609-5.742
			c1.573-1.602,3.693-2.448,6.131-2.448c3.126,0,5.062,1.368,6.136,2.515c2.316,2.475,2.454,5.772,2.423,6.928l5.539,97.522
			c0.205,1.744,0.302,3.35,0.297,4.906c0,7.191-2.002,14.226-5.792,20.349c-0.038,0.07-0.079,0.14-0.121,0.208l-13.435,21.47
			c-2.597,4.553-3.978,9.713-3.998,14.937l9.103,149.82c0.005,0.081,0.007,0.162,0.007,0.243
			C251.262,387.741,240.277,398.724,226.774,398.724z M210.286,374.354c0.062,9.037,7.435,16.37,16.488,16.37
			s16.426-7.333,16.488-16.37l-9.103-149.817c-0.005-0.081-0.007-0.162-0.007-0.243c0-6.683,1.762-13.287,5.096-19.1
			c0.025-0.044,0.052-0.088,0.079-0.132l13.359-21.349c0.038-0.07,0.078-0.138,0.12-0.205c3.07-4.894,4.692-10.533,4.692-16.309
			c0.004-1.276-0.08-2.602-0.255-4.067c-0.01-0.083-0.018-0.167-0.022-0.25l-5.557-97.838c-0.009-0.164-0.008-0.328,0.002-0.491
			c0.011-0.361-0.106-0.955-0.239-1.185c-0.056-0.012-0.16-0.027-0.325-0.027c-0.315,0-0.428,0.056-0.429,0.056
			c-0.16,0.139-0.384,0.85-0.392,1.408c0.007,0.425-0.053,0.839-0.173,1.229c-0.082,7.534,0.406,57.082,0.774,90.351
			c0,4.55-3.667,8.215-8.174,8.215h-9.721c-2.209,0-4-1.791-4-4V65.631c-0.573-1.214-1.454-2.449-2-2.771
			c-0.544,0.321-1.423,1.551-2,2.772v94.969c0,2.209-1.791,4-4,4h-10.142c-4.508,0-8.175-3.665-8.175-8.17l0.12-90.993
			c-0.21-0.585-0.504-1.2-0.781-1.649c-0.417,0.496-0.904,1.248-1.278,1.99l-4.4,97.06c-0.005,0.111-0.015,0.222-0.029,0.332
			c-0.172,1.333-0.26,2.689-0.26,4.031c0,5.776,1.623,11.415,4.692,16.309c0.027,0.044,0.054,0.088,0.08,0.133l13.399,21.421
			c0.027,0.042,0.052,0.085,0.077,0.128c3.321,5.78,5.076,12.385,5.076,19.102c0,0.081-0.002,0.161-0.007,0.242L210.286,374.354z"/>
	</g>
	<path d="M10290.893,10236.215h-16737v-13953h16737V10236.215z M-6445.607,10235.215h16736l-0.5-13951h-16735.5l0.5,13951H-6445.607
		z"/>
</g>
<g id="cb" display="none">
	<g id="rdeča7bela_copy" display="inline">
	</g>
	
		<path display="inline" fill="none" stroke="#000000" stroke-width="8" stroke-linecap="round" stroke-linejoin="round" stroke-miterlimit="10" d="
		M196.773,64.819l-4.436,97.838c-0.191,1.479-0.293,3-0.293,4.544c0,6.771,1.951,13.09,5.304,18.434l0.005,0.013l13.472,21.537
		c2.895,5.038,4.544,10.876,4.544,17.109l-9.083,149.945c0,11.311,9.168,20.484,20.488,20.484c11.311,0,20.488-9.173,20.488-20.484
		l-9.11-149.945c0-6.233,1.676-12.071,4.565-17.109l13.478-21.537v-0.013c3.353-5.344,5.304-11.664,5.304-18.434
		c0.005-1.549-0.106-3.064-0.284-4.544l-5.557-97.838"/>
	
		<line display="inline" fill="none" stroke="#000000" stroke-width="8" stroke-linecap="round" stroke-linejoin="round" stroke-miterlimit="10" x1="216.925" y1="64.819" x2="216.925" y2="167.932"/>
	
		<line display="inline" fill="none" stroke="#000000" stroke-width="8" stroke-linecap="round" stroke-linejoin="round" stroke-miterlimit="10" x1="235.806" y1="64.819" x2="235.806" y2="167.932"/>
</g>
<g id="pivot">
	<circle fill="none" cx="226.493" cy="387.779" r="14.133"/>
</g>
</svg>
