<?xml version="1.0" encoding="utf-8"?>
<!-- Generator: Adobe Illustrator 16.0.0, SVG Export Plug-In . SVG Version: 6.00 Build 0)  -->
<!DOCTYPE svg PUBLIC "-//W3C//DTD SVG 1.1//EN" "http://www.w3.org/Graphics/SVG/1.1/DTD/svg11.dtd">
<svg version="1.1" xmlns="http://www.w3.org/2000/svg" xmlns:xlink="http://www.w3.org/1999/xlink" x="0px" y="0px"
	 width="453.543px" height="453.544px" viewBox="0 0 453.543 453.544" enable-background="new 0 0 453.543 453.544"
	 xml:space="preserve">
<g id="kvadrat">
</g>
<g id="bg" display="none">
	<rect x="-6445.558" y="-3806.513" display="inline" width="15266.867" height="13678.951"/>
</g>
<g id="color" display="none">
	<g id="rdeča7bela" display="inline">
	</g>
	<g display="inline">
		<g>
			<path fill="#C8C8C8" d="M240.062,267.415V158.094c6.485-5.359,10.747-21.104,10.747-66.947c0-13.564-10.993-24.563-24.558-24.563
				c-13.568,0-24.563,10.999-24.563,24.563c0,47.193,4.52,62.476,11.332,67.379v109.005c-18.61,5.184-32.113,21.153-32.113,45.277
				c0,29.751,20.533,74.15,45.864,74.15c25.33,0,45.863-44.399,45.863-74.15C272.635,288.483,258.907,272.457,240.062,267.415z"/>
		</g>
		<g>
			<path fill="none" stroke="#000000" stroke-width="8" stroke-linecap="round" stroke-linejoin="round" stroke-miterlimit="10" d="
				M240.062,267.415V158.094c6.485-5.359,10.747-21.104,10.747-66.947c0-13.564-10.993-24.563-24.558-24.563
				c-13.568,0-24.563,10.999-24.563,24.563c0,47.193,4.52,62.476,11.332,67.379v109.005c-18.61,5.184-32.113,21.153-32.113,45.277
				c0,29.751,20.533,74.15,45.864,74.15c25.33,0,45.863-44.399,45.863-74.15C272.635,288.483,258.907,272.457,240.062,267.415z"/>
		</g>
	</g>
	
		<rect x="-6955.843" y="-4226.521" display="inline" fill="none" stroke="#000000" stroke-miterlimit="10" width="16736" height="13952"/>
</g>
<g id="cb_1_">
	<g id="rdeča7bela_copy_3">
	</g>
	<g>
		<g>
			<path fill="#C8C8C8" d="M240.062,267.415V158.094c6.485-5.359,10.747-21.104,10.747-66.947c0-13.564-10.993-24.563-24.558-24.563
				c-13.568,0-24.563,10.999-24.563,24.563c0,47.193,4.52,62.476,11.332,67.379v109.005c-18.61,5.184-32.113,21.153-32.113,45.277
				c0,29.751,20.533,74.15,45.864,74.15c25.33,0,45.863-44.399,45.863-74.15C272.635,288.483,258.907,272.457,240.062,267.415z"/>
		</g>
		<g>
			<path fill="none" stroke="#000000" stroke-width="8" stroke-linecap="round" stroke-linejoin="round" stroke-miterlimit="10" d="
				M240.062,267.415V158.094c6.485-5.359,10.747-21.104,10.747-66.947c0-13.564-10.993-24.563-24.558-24.563
				c-13.568,0-24.563,10.999-24.563,24.563c0,47.193,4.52,62.476,11.332,67.379v109.005c-18.61,5.184-32.113,21.153-32.113,45.277
				c0,29.751,20.533,74.15,45.864,74.15c25.33,0,45.863-44.399,45.863-74.15C272.635,288.483,258.907,272.457,240.062,267.415z"/>
		</g>
	</g>
	<path d="M9780.656,9725.979h-16737v-13953h16737V9725.979z M-6955.843,9724.979h16736l-0.5-13951h-16735.5l0.5,13951H-6955.843z"/>
</g>
<g id="cb" display="none">
	<g id="rdeča7bela_copy" display="inline">
	</g>
	<g display="inline">
		<g>
			<path fill="none" stroke="#000000" stroke-width="8" stroke-linecap="round" stroke-linejoin="round" stroke-miterlimit="10" d="
				M240.062,267.415V158.094c6.485-5.359,10.747-21.104,10.747-66.947c0-13.564-10.993-24.563-24.558-24.563
				c-13.568,0-24.563,10.999-24.563,24.563c0,47.193,4.52,62.476,11.332,67.379v109.005c-18.61,5.184-32.113,21.153-32.113,45.277
				c0,29.751,20.533,74.15,45.864,74.15c25.33,0,45.863-44.399,45.863-74.15C272.635,288.483,258.907,272.457,240.062,267.415z"/>
		</g>
	</g>
</g>
<g id="pivot">
	<circle fill="none" cx="225.516" cy="58.388" r="14.133"/>
</g>
</svg>
