<?xml version="1.0" encoding="utf-8"?>
<!-- Generator: Adobe Illustrator 16.0.0, SVG Export Plug-In . SVG Version: 6.00 Build 0)  -->
<!DOCTYPE svg PUBLIC "-//W3C//DTD SVG 1.1//EN" "http://www.w3.org/Graphics/SVG/1.1/DTD/svg11.dtd">
<svg version="1.1" xmlns="http://www.w3.org/2000/svg" xmlns:xlink="http://www.w3.org/1999/xlink" x="0px" y="0px" width="600px"
	 height="600px" viewBox="0 0 600 600" enable-background="new 0 0 600 600" xml:space="preserve">
<g id="gb">
</g>
<g id="_x31_-1">
</g>
<g id="_x31_-2">
</g>
<g id="_x31_-3">
</g>
<g id="_x32_-1">
</g>
<g id="_x32_-2">
</g>
<g id="_x32_-3">
</g>
<g id="_x33_-1">
</g>
<g id="_x33_-2">
</g>
<g id="_x33_-3">
</g>
<g id="opis">
</g>
<g id="polje">
	<path stroke="#000000" stroke-width="2" stroke-miterlimit="10" d="M472.5,300c9.105-6.842,14.997-17.732,14.997-29.999
		c0-20.711-16.787-37.501-37.491-37.501c-20.713,0-37.499,16.79-37.499,37.501c0,12.267,5.891,23.157,14.998,29.999H300v127.505
		c6.841-9.107,17.732-14.997,29.999-14.997c20.711,0,37.501,16.786,37.501,37.499c0,20.704-16.79,37.491-37.501,37.491
		c-12.267,0-23.157-5.891-29.999-14.996V600h300V300H472.5z"/>
</g>
</svg>
