<?xml version="1.0" encoding="utf-8"?>
<!-- Generator: Adobe Illustrator 16.0.0, SVG Export Plug-In . SVG Version: 6.00 Build 0)  -->
<!DOCTYPE svg PUBLIC "-//W3C//DTD SVG 1.1//EN" "http://www.w3.org/Graphics/SVG/1.1/DTD/svg11.dtd">
<svg version="1.1" xmlns="http://www.w3.org/2000/svg" xmlns:xlink="http://www.w3.org/1999/xlink" x="0px" y="0px" width="600px"
	 height="600px" viewBox="0 0 600 600" enable-background="new 0 0 600 600" xml:space="preserve">
<g id="gb">
</g>
<g id="_x31_-1">
</g>
<g id="_x31_-2">
</g>
<g id="_x31_-3">
</g>
<g id="_x32_-1">
</g>
<g id="_x32_-2">
</g>
<g id="_x32_-3">
</g>
<g id="_x33_-1">
</g>
<g id="_x33_-2">
</g>
<g id="_x33_-3">
</g>
<g id="opis">
</g>
<g id="polje">
	<path stroke="#000000" stroke-width="2" stroke-miterlimit="10" d="M300,0v127.5c-6.841-9.106-17.733-14.998-30-14.998
		c-20.711,0-37.5,16.787-37.5,37.491c0,20.713,16.789,37.499,37.5,37.499c12.267,0,23.159-5.892,30-14.999V300h127.504
		c-9.107-6.842-14.998-17.732-14.998-29.999c0-20.711,16.786-37.501,37.499-37.501c20.704,0,37.491,16.79,37.491,37.501
		c0,12.267-5.892,23.157-14.997,29.999H600V0H300z"/>
</g>
</svg>
