<?xml version="1.0" encoding="utf-8"?>
<!-- Generator: Adobe Illustrator 16.0.0, SVG Export Plug-In . SVG Version: 6.00 Build 0)  -->
<!DOCTYPE svg PUBLIC "-//W3C//DTD SVG 1.1//EN" "http://www.w3.org/Graphics/SVG/1.1/DTD/svg11.dtd">
<svg version="1.1" xmlns="http://www.w3.org/2000/svg" xmlns:xlink="http://www.w3.org/1999/xlink" x="0px" y="0px" width="220px"
	 height="220px" viewBox="0 0 220 220" enable-background="new 0 0 220 220" xml:space="preserve">
<g id="bg">
</g>
<g id="Layer_1">
	<g>
		
			<line fill="none" stroke="#010202" stroke-width="2.1534" stroke-linecap="round" stroke-linejoin="round" stroke-miterlimit="10" x1="-59.368" y1="110" x2="31.018" y2="110"/>
		
			<line fill="none" stroke="#010202" stroke-width="2.1534" stroke-linecap="round" stroke-linejoin="round" stroke-miterlimit="10" x1="-59.368" y1="110" x2="31.018" y2="110"/>
		
			<line fill="none" stroke="#010202" stroke-width="2.1534" stroke-linecap="round" stroke-linejoin="round" stroke-miterlimit="10" x1="17.781" y1="141.957" x2="-46.132" y2="78.044"/>
		
			<line fill="none" stroke="#010202" stroke-width="2.1534" stroke-linecap="round" stroke-linejoin="round" stroke-miterlimit="10" x1="-46.131" y1="141.957" x2="17.781" y2="78.044"/>
		
			<polygon fill="none" stroke="#010202" stroke-width="2.1534" stroke-linecap="round" stroke-linejoin="round" stroke-miterlimit="10" points="
			22.311,110 11.625,135.801 -14.176,146.487 -39.976,135.801 -50.662,110 -39.976,84.201 -14.176,73.513 11.624,84.201 		"/>
		
			<polygon fill="none" stroke="#010202" stroke-width="2.1534" stroke-linecap="round" stroke-linejoin="round" stroke-miterlimit="10" points="
			12.389,110 4.609,128.785 -14.176,136.564 -32.959,128.785 -40.741,110 -32.959,91.216 -14.176,83.437 4.609,91.216 		"/>
		
			<polygon fill="none" stroke="#010202" stroke-width="2.1534" stroke-linecap="round" stroke-linejoin="round" stroke-miterlimit="10" points="
			2.897,110 -2.104,122.072 -14.176,127.074 -26.249,122.072 -31.249,110 -26.249,97.928 -14.176,92.927 -2.104,97.928 		"/>
	</g>
	<g>
		
			<line fill="none" stroke="#010202" stroke-width="2.1534" stroke-linecap="round" stroke-linejoin="round" stroke-miterlimit="10" x1="160.622" y1="110" x2="251.008" y2="110"/>
		
			<line fill="none" stroke="#010202" stroke-width="2.1534" stroke-linecap="round" stroke-linejoin="round" stroke-miterlimit="10" x1="160.622" y1="110" x2="251.008" y2="110"/>
		
			<line fill="none" stroke="#010202" stroke-width="2.1534" stroke-linecap="round" stroke-linejoin="round" stroke-miterlimit="10" x1="205.815" y1="155.193" x2="205.814" y2="64.807"/>
		
			<line fill="none" stroke="#010202" stroke-width="2.1534" stroke-linecap="round" stroke-linejoin="round" stroke-miterlimit="10" x1="237.771" y1="141.957" x2="173.858" y2="78.044"/>
		
			<line fill="none" stroke="#010202" stroke-width="2.1534" stroke-linecap="round" stroke-linejoin="round" stroke-miterlimit="10" x1="173.859" y1="141.957" x2="237.771" y2="78.044"/>
		
			<polygon fill="none" stroke="#010202" stroke-width="2.1534" stroke-linecap="round" stroke-linejoin="round" stroke-miterlimit="10" points="
			242.301,110 231.615,135.801 205.814,146.487 180.014,135.801 169.328,110 180.014,84.201 205.814,73.513 231.614,84.201 		"/>
		
			<polygon fill="none" stroke="#010202" stroke-width="2.1534" stroke-linecap="round" stroke-linejoin="round" stroke-miterlimit="10" points="
			232.379,110 224.599,128.785 205.814,136.564 187.031,128.785 179.25,110 187.031,91.216 205.814,83.437 224.599,91.216 		"/>
		
			<polygon fill="none" stroke="#010202" stroke-width="2.1534" stroke-linecap="round" stroke-linejoin="round" stroke-miterlimit="10" points="
			222.887,110 217.887,122.072 205.814,127.074 193.742,122.072 188.742,110 193.742,97.928 205.814,92.927 217.887,97.928 		"/>
		
			<polygon fill="none" stroke="#010202" stroke-width="2.1534" stroke-linecap="round" stroke-linejoin="round" stroke-miterlimit="10" points="
			214.486,110 211.946,116.132 205.814,118.672 199.683,116.132 197.143,110 199.683,103.87 205.814,101.33 211.946,103.87 		"/>
	</g>
	<g>
		<g>
			<path fill="#010202" d="M173.588,200.518l8.856-22.894c0.535-1.383,0.017-2.965-1.239-3.764c-1.22-0.766-2.935-0.554-3.931,0.49
				l-22.485,23.674c-0.313,0.334-0.554,0.734-0.694,1.156l-11.521,34.579h42.358L173.588,200.518z"/>
		</g>
	</g>
	<g>
		<g>
			<path fill="#010202" d="M65.043,200.518l8.855-22.894c0.536-1.383,0.017-2.965-1.238-3.764c-1.22-0.766-2.935-0.554-3.932,0.49
				l-22.485,23.674c-0.313,0.334-0.554,0.734-0.694,1.156L34.028,233.76h42.357L65.043,200.518z"/>
		</g>
	</g>
	<g>
		
			<path fill="#010202" stroke="#010202" stroke-width="2.2585" stroke-linecap="round" stroke-linejoin="round" stroke-miterlimit="10" d="
			M205.731,24.525h-18.795l-1.324-3.979H141.63l-1.325,3.979h-18.792c0,0-3.679,10.084,42.109,10.084
			C209.409,34.609,205.731,24.525,205.731,24.525z"/>
		<g>
			<polygon fill="#010202" points="140.14,21.076 187.425,21.076 185.702,16.028 141.821,16.028 			"/>
			<path fill="#010202" d="M173.588-19.472l8.856-22.894c0.535-1.383,0.017-2.965-1.239-3.764c-1.22-0.766-2.935-0.554-3.931,0.49
				l-22.485,23.674c-0.313,0.334-0.554,0.734-0.694,1.156l-11.521,34.579h42.358L173.588-19.472z"/>
			<path fill="#010202" d="M139.233,23.795c-0.114,0.344-0.057,0.722,0.153,1.016c0.211,0.295,0.55,0.469,0.912,0.471l47.064,0.26
				c0.002,0,0.004,0,0.006,0c0.363,0,0.705-0.174,0.917-0.47c0.213-0.296,0.27-0.678,0.152-1.023l-0.243-0.713h-48.809
				L139.233,23.795z"/>
		</g>
		<path fill="#9D9D9C" d="M187.425,21.076h-19.153v-5.048h17.431l-0.771-2.258h-42.358l-0.752,2.258h17.797v5.048H140.14
			l-0.753,2.259h48.809L187.425,21.076z M161.877,20.481v-3.88h4.136v3.88H161.877z"/>
	</g>
	<g>
		
			<path fill="#010202" stroke="#010202" stroke-width="2.2585" stroke-linecap="round" stroke-linejoin="round" stroke-miterlimit="10" d="
			M97.186,24.525H78.392l-1.324-3.979H33.084l-1.325,3.979H12.967c0,0-3.679,10.084,42.109,10.084
			C100.864,34.609,97.186,24.525,97.186,24.525z"/>
		<g>
			<polygon fill="#010202" points="31.594,21.076 78.879,21.076 77.156,16.028 33.276,16.028 			"/>
			<path fill="#010202" d="M65.043-19.472l8.855-22.894c0.536-1.383,0.017-2.965-1.238-3.764c-1.22-0.766-2.935-0.554-3.932,0.49
				L46.244-21.965c-0.313,0.334-0.554,0.734-0.694,1.156L34.028,13.771h42.357L65.043-19.472z"/>
			<path fill="#010202" d="M30.688,23.795c-0.114,0.344-0.058,0.722,0.153,1.016c0.211,0.295,0.55,0.469,0.911,0.471l47.065,0.26
				c0.002,0,0.004,0,0.006,0c0.363,0,0.704-0.174,0.917-0.47c0.213-0.296,0.27-0.678,0.152-1.023l-0.243-0.713H30.841L30.688,23.795
				z"/>
		</g>
		<path fill="#9D9D9C" d="M78.879,21.076H59.727v-5.048h17.43l-0.771-2.258H34.028l-0.752,2.258h17.796v5.048H31.594l-0.752,2.259
			h48.808L78.879,21.076z M53.331,20.481v-3.88h4.137v3.88H53.331z"/>
	</g>
	<g>
		
			<path fill="#010202" stroke="#010202" stroke-width="2.2585" stroke-linecap="round" stroke-linejoin="round" stroke-miterlimit="10" d="
			M53.71,137.515h18.794l1.324-3.979h43.983l1.325,3.979h18.793c0,0,3.679,10.084-42.109,10.084
			C50.032,147.599,53.71,137.515,53.71,137.515z"/>
		<g>
			<polygon fill="#010202" points="119.302,134.065 72.017,134.065 73.74,129.018 117.62,129.018 			"/>
			<path fill="#010202" d="M85.853,93.518l-8.855-22.894c-0.536-1.383-0.017-2.965,1.238-3.764c1.22-0.766,2.935-0.554,3.932,0.49
				l22.485,23.674c0.313,0.334,0.554,0.734,0.694,1.156l11.521,34.579H74.51L85.853,93.518z"/>
			<path fill="#010202" d="M120.208,136.784c0.114,0.344,0.058,0.722-0.153,1.016c-0.211,0.295-0.55,0.469-0.911,0.471l-47.065,0.26
				c-0.002,0-0.004,0-0.006,0c-0.363,0-0.704-0.174-0.917-0.47c-0.213-0.296-0.27-0.678-0.152-1.023l0.243-0.713h48.808
				L120.208,136.784z"/>
		</g>
		<path fill="#9D9D9C" d="M71.247,136.324h48.808l-0.752-2.259H99.823v-5.048h17.796l-0.752-2.258H74.51l-0.771,2.258h17.43v5.048
			H72.017L71.247,136.324z M93.428,133.471v-3.88h4.137v3.88H93.428z"/>
	</g>
</g>
</svg>
