<?xml version="1.0" encoding="utf-8"?>
<!-- Generator: Adobe Illustrator 16.0.0, SVG Export Plug-In . SVG Version: 6.00 Build 0)  -->
<!DOCTYPE svg PUBLIC "-//W3C//DTD SVG 1.1//EN" "http://www.w3.org/Graphics/SVG/1.1/DTD/svg11.dtd">
<svg version="1.1" xmlns="http://www.w3.org/2000/svg" xmlns:xlink="http://www.w3.org/1999/xlink" x="0px" y="0px" width="220px"
	 height="220px" viewBox="0 0 220 220" enable-background="new 0 0 220 220" xml:space="preserve">
<g id="bg">
</g>
<g id="Layer_1">
	<g>
		
			<line fill="none" stroke="#010202" stroke-width="2.1534" stroke-linecap="round" stroke-linejoin="round" stroke-miterlimit="10" x1="-59.368" y1="110" x2="31.018" y2="110"/>
		
			<line fill="none" stroke="#010202" stroke-width="2.1534" stroke-linecap="round" stroke-linejoin="round" stroke-miterlimit="10" x1="-59.368" y1="110" x2="31.018" y2="110"/>
		
			<line fill="none" stroke="#010202" stroke-width="2.1534" stroke-linecap="round" stroke-linejoin="round" stroke-miterlimit="10" x1="17.781" y1="141.957" x2="-46.132" y2="78.044"/>
		
			<line fill="none" stroke="#010202" stroke-width="2.1534" stroke-linecap="round" stroke-linejoin="round" stroke-miterlimit="10" x1="-46.131" y1="141.957" x2="17.781" y2="78.044"/>
		
			<polygon fill="none" stroke="#010202" stroke-width="2.1534" stroke-linecap="round" stroke-linejoin="round" stroke-miterlimit="10" points="
			22.311,110 11.625,135.801 -14.176,146.487 -39.976,135.801 -50.662,110 -39.976,84.201 -14.176,73.513 11.624,84.201 		"/>
		
			<polygon fill="none" stroke="#010202" stroke-width="2.1534" stroke-linecap="round" stroke-linejoin="round" stroke-miterlimit="10" points="
			12.389,110 4.609,128.785 -14.176,136.564 -32.959,128.785 -40.741,110 -32.959,91.216 -14.176,83.437 4.609,91.216 		"/>
		
			<polygon fill="none" stroke="#010202" stroke-width="2.1534" stroke-linecap="round" stroke-linejoin="round" stroke-miterlimit="10" points="
			2.897,110 -2.104,122.072 -14.176,127.074 -26.249,122.072 -31.249,110 -26.249,97.928 -14.176,92.927 -2.104,97.928 		"/>
	</g>
	<g>
		
			<line fill="none" stroke="#010202" stroke-width="2.1534" stroke-linecap="round" stroke-linejoin="round" stroke-miterlimit="10" x1="160.622" y1="110" x2="251.008" y2="110"/>
		
			<line fill="none" stroke="#010202" stroke-width="2.1534" stroke-linecap="round" stroke-linejoin="round" stroke-miterlimit="10" x1="160.622" y1="110" x2="251.008" y2="110"/>
		
			<line fill="none" stroke="#010202" stroke-width="2.1534" stroke-linecap="round" stroke-linejoin="round" stroke-miterlimit="10" x1="205.815" y1="155.193" x2="205.814" y2="64.807"/>
		
			<line fill="none" stroke="#010202" stroke-width="2.1534" stroke-linecap="round" stroke-linejoin="round" stroke-miterlimit="10" x1="237.771" y1="141.957" x2="173.858" y2="78.044"/>
		
			<line fill="none" stroke="#010202" stroke-width="2.1534" stroke-linecap="round" stroke-linejoin="round" stroke-miterlimit="10" x1="173.859" y1="141.957" x2="237.771" y2="78.044"/>
		
			<polygon fill="none" stroke="#010202" stroke-width="2.1534" stroke-linecap="round" stroke-linejoin="round" stroke-miterlimit="10" points="
			242.301,110 231.615,135.801 205.814,146.487 180.014,135.801 169.328,110 180.014,84.201 205.814,73.513 231.614,84.201 		"/>
		
			<polygon fill="none" stroke="#010202" stroke-width="2.1534" stroke-linecap="round" stroke-linejoin="round" stroke-miterlimit="10" points="
			232.379,110 224.599,128.785 205.814,136.564 187.031,128.785 179.25,110 187.031,91.216 205.814,83.437 224.599,91.216 		"/>
		
			<polygon fill="none" stroke="#010202" stroke-width="2.1534" stroke-linecap="round" stroke-linejoin="round" stroke-miterlimit="10" points="
			222.887,110 217.887,122.072 205.814,127.074 193.742,122.072 188.742,110 193.742,97.928 205.814,92.927 217.887,97.928 		"/>
		
			<polygon fill="none" stroke="#010202" stroke-width="2.1534" stroke-linecap="round" stroke-linejoin="round" stroke-miterlimit="10" points="
			214.486,110 211.946,116.132 205.814,118.672 199.683,116.132 197.143,110 199.683,103.87 205.814,101.33 211.946,103.87 		"/>
	</g>
	<g>
		
			<line fill="none" stroke="#010202" stroke-width="2.1534" stroke-linecap="round" stroke-linejoin="round" stroke-miterlimit="10" x1="50.627" y1="110" x2="141.013" y2="110"/>
		
			<line fill="none" stroke="#010202" stroke-width="2.1534" stroke-linecap="round" stroke-linejoin="round" stroke-miterlimit="10" x1="50.627" y1="110" x2="141.013" y2="110"/>
		
			<line fill="none" stroke="#010202" stroke-width="2.1534" stroke-linecap="round" stroke-linejoin="round" stroke-miterlimit="10" x1="95.82" y1="155.193" x2="95.819" y2="64.807"/>
		
			<line fill="none" stroke="#010202" stroke-width="2.1534" stroke-linecap="round" stroke-linejoin="round" stroke-miterlimit="10" x1="127.776" y1="141.957" x2="63.863" y2="78.044"/>
		
			<line fill="none" stroke="#010202" stroke-width="2.1534" stroke-linecap="round" stroke-linejoin="round" stroke-miterlimit="10" x1="63.864" y1="141.957" x2="127.776" y2="78.044"/>
		
			<polygon fill="none" stroke="#010202" stroke-width="2.1534" stroke-linecap="round" stroke-linejoin="round" stroke-miterlimit="10" points="
			132.306,110 121.62,135.801 95.819,146.487 70.019,135.801 59.333,110 70.019,84.201 95.819,73.513 121.619,84.201 		"/>
		
			<polygon fill="none" stroke="#010202" stroke-width="2.1534" stroke-linecap="round" stroke-linejoin="round" stroke-miterlimit="10" points="
			122.384,110 114.604,128.785 95.819,136.564 77.036,128.785 69.254,110 77.036,91.216 95.819,83.437 114.604,91.216 		"/>
		
			<polygon fill="none" stroke="#010202" stroke-width="2.1534" stroke-linecap="round" stroke-linejoin="round" stroke-miterlimit="10" points="
			112.892,110 107.892,122.072 95.819,127.074 83.747,122.072 78.747,110 83.747,97.928 95.819,92.927 107.892,97.928 		"/>
		
			<polygon fill="none" stroke="#010202" stroke-width="2.1534" stroke-linecap="round" stroke-linejoin="round" stroke-miterlimit="10" points="
			104.491,110 101.951,116.132 95.819,118.672 89.688,116.132 87.148,110 89.688,103.87 95.819,101.33 101.951,103.87 		"/>
	</g>
	<g>
		<g>
			<path fill="#010202" d="M45.11,200.518l-8.855-22.894c-0.536-1.383-0.017-2.965,1.238-3.764c1.22-0.766,2.935-0.554,3.932,0.49
				l22.485,23.674c0.313,0.334,0.554,0.734,0.694,1.156l11.521,34.579H33.767L45.11,200.518z"/>
		</g>
	</g>
	<g>
		<g>
			<path fill="#010202" d="M153.656,200.518l-8.856-22.894c-0.535-1.383-0.017-2.965,1.239-3.764c1.22-0.766,2.935-0.554,3.931,0.49
				l22.485,23.674c0.313,0.334,0.554,0.734,0.694,1.156l11.521,34.579h-42.358L153.656,200.518z"/>
		</g>
	</g>
	<g>
		
			<path fill="#010202" stroke="#010202" stroke-width="2.2585" stroke-linecap="round" stroke-linejoin="round" stroke-miterlimit="10" d="
			M12.967,24.525h18.794l1.324-3.979h43.983l1.325,3.979h18.793c0,0,3.679,10.084-42.109,10.084
			C9.289,34.609,12.967,24.525,12.967,24.525z"/>
		<g>
			<polygon fill="#010202" points="78.559,21.076 31.274,21.076 32.997,16.028 76.877,16.028 			"/>
			<path fill="#010202" d="M45.11-19.472l-8.855-22.894c-0.536-1.383-0.017-2.965,1.238-3.764c1.22-0.766,2.935-0.554,3.932,0.49
				l22.485,23.674c0.313,0.334,0.554,0.734,0.694,1.156l11.521,34.579H33.767L45.11-19.472z"/>
			<path fill="#010202" d="M79.465,23.795c0.114,0.344,0.057,0.722-0.153,1.016c-0.211,0.295-0.55,0.469-0.912,0.471l-47.065,0.26
				c-0.002,0-0.004,0-0.006,0c-0.363,0-0.704-0.174-0.917-0.47c-0.213-0.296-0.27-0.678-0.152-1.023l0.243-0.713h48.808
				L79.465,23.795z"/>
		</g>
		<path fill="#9D9D9C" d="M30.503,23.335h48.808l-0.753-2.259H59.08v-5.048h17.797l-0.752-2.258H33.767l-0.771,2.258h17.43v5.048
			H31.274L30.503,23.335z M52.685,20.481v-3.88h4.137v3.88H52.685z"/>
	</g>
	<g>
		
			<path fill="#010202" stroke="#010202" stroke-width="2.2585" stroke-linecap="round" stroke-linejoin="round" stroke-miterlimit="10" d="
			M121.512,24.525h18.795l1.324-3.979h43.983l1.325,3.979h18.793c0,0,3.679,10.084-42.109,10.084S121.512,24.525,121.512,24.525z"/>
		<g>
			<polygon fill="#010202" points="187.104,21.076 139.819,21.076 141.542,16.028 185.422,16.028 			"/>
			<path fill="#010202" d="M153.656-19.472L144.8-42.365c-0.535-1.383-0.017-2.965,1.239-3.764c1.22-0.766,2.935-0.554,3.931,0.49
				l22.485,23.674c0.313,0.334,0.554,0.734,0.694,1.156l11.521,34.579h-42.358L153.656-19.472z"/>
			<path fill="#010202" d="M188.01,23.795c0.114,0.344,0.057,0.722-0.153,1.016c-0.211,0.295-0.55,0.469-0.912,0.471l-47.065,0.26
				c-0.002,0-0.004,0-0.006,0c-0.363,0-0.704-0.174-0.917-0.47c-0.213-0.296-0.27-0.678-0.152-1.023l0.243-0.713h48.808
				L188.01,23.795z"/>
		</g>
		<path fill="#9D9D9C" d="M139.049,23.335h48.808l-0.753-2.259h-19.479v-5.048h17.797l-0.752-2.258h-42.358l-0.771,2.258h17.43
			v5.048h-19.153L139.049,23.335z M161.23,20.481v-3.88h4.136v3.88H161.23z"/>
	</g>
</g>
</svg>
