<?xml version="1.0" encoding="utf-8"?>
<!-- Generator: Adobe Illustrator 16.0.0, SVG Export Plug-In . SVG Version: 6.00 Build 0)  -->
<!DOCTYPE svg PUBLIC "-//W3C//DTD SVG 1.1//EN" "http://www.w3.org/Graphics/SVG/1.1/DTD/svg11.dtd">
<svg version="1.1" xmlns="http://www.w3.org/2000/svg" xmlns:xlink="http://www.w3.org/1999/xlink" x="0px" y="0px" width="220px"
	 height="220px" viewBox="0 0 220 220" enable-background="new 0 0 220 220" xml:space="preserve">
<g id="bg" display="none">
</g>
<g id="Layer_3">
</g>
<g id="Layer_1">
	<g>
		<defs>
			<rect id="SVGID_29_" x="-3690.076" y="-2700" width="220" height="220"/>
		</defs>
		<clipPath id="SVGID_2_">
			<use xlink:href="#SVGID_29_"  overflow="visible"/>
		</clipPath>
	</g>
	<g>
		<defs>
			<rect id="SVGID_31_" x="-2490.076" y="-2700" width="220" height="220"/>
		</defs>
		<clipPath id="SVGID_4_">
			<use xlink:href="#SVGID_31_"  overflow="visible"/>
		</clipPath>
	</g>
	<g>
		<defs>
			<rect id="SVGID_33_" x="-1890.076" y="-2700" width="220" height="220"/>
		</defs>
		<clipPath id="SVGID_6_">
			<use xlink:href="#SVGID_33_"  overflow="visible"/>
		</clipPath>
	</g>
	<g>
		<defs>
			<rect id="SVGID_35_" x="-2190.076" y="-2700" width="220" height="220"/>
		</defs>
		<clipPath id="SVGID_8_">
			<use xlink:href="#SVGID_35_"  overflow="visible"/>
		</clipPath>
	</g>
	<g>
		<defs>
			<rect id="SVGID_37_" x="-3390.076" y="-2700" width="220" height="220"/>
		</defs>
		<clipPath id="SVGID_10_">
			<use xlink:href="#SVGID_37_"  overflow="visible"/>
		</clipPath>
	</g>
	<g>
		<defs>
			<rect id="SVGID_39_" x="-2790.076" y="-2700" width="220" height="220"/>
		</defs>
		<clipPath id="SVGID_12_">
			<use xlink:href="#SVGID_39_"  overflow="visible"/>
		</clipPath>
	</g>
	<g>
		<defs>
			<rect id="SVGID_411_" x="-300" y="-2700" width="220" height="220"/>
		</defs>
		<clipPath id="SVGID_14_">
			<use xlink:href="#SVGID_411_"  overflow="visible"/>
		</clipPath>
	</g>
	<g>
		<defs>
			<rect id="SVGID_419_" y="-2700" width="220" height="220"/>
		</defs>
		<clipPath id="SVGID_16_">
			<use xlink:href="#SVGID_419_"  overflow="visible"/>
		</clipPath>
	</g>
	<g>
		<rect x="0" fill="#EDEDED" width="220" height="220"/>
		<g>
			
				<circle fill="#919191" stroke="#000000" stroke-width="2.9042" stroke-linecap="round" stroke-linejoin="round" stroke-miterlimit="10" cx="62.711" cy="157.471" r="47.006"/>
			
				<path fill="none" stroke="#000000" stroke-width="2.9042" stroke-linecap="round" stroke-linejoin="round" stroke-miterlimit="10" d="
				M37.86,196.508c0,0,59.544-13.547,60.028-69.48"/>
			
				<line fill="none" stroke="#000000" stroke-width="2.9042" stroke-linecap="round" stroke-linejoin="round" stroke-miterlimit="10" x1="97.745" y1="188.922" x2="28.525" y2="125.613"/>
			
				<path fill="none" stroke="#000000" stroke-width="2.9042" stroke-linecap="round" stroke-linejoin="round" stroke-miterlimit="10" d="
				M108.836,161.77c0,0-36.237-6.133-45.529-50.289"/>
			
				<path fill="none" stroke="#000000" stroke-width="2.9042" stroke-linecap="round" stroke-linejoin="round" stroke-miterlimit="10" d="
				M72.84,203.379c0,0-11.609-35.545-55.694-37.586"/>
		</g>
		<g>
			
				<circle fill="#C7C7C7" stroke="#000000" stroke-width="2.4" stroke-linecap="round" stroke-linejoin="round" stroke-miterlimit="10" cx="167.719" cy="167.953" r="26.522"/>
			
				<path fill="#C7C7C7" stroke="#000000" stroke-width="2.4" stroke-linecap="round" stroke-linejoin="round" stroke-miterlimit="10" d="
				M166.424,193.918c-1.338-0.445-16.059-19.807,7.941-25.965c8.103-1.906,16.328-6.779,16.863-11.775"/>
			
				<path fill="#C7C7C7" stroke="#000000" stroke-width="2.4" stroke-linecap="round" stroke-linejoin="round" stroke-miterlimit="10" d="
				M144.654,178.84c1.889,0.467,11.064-2.945,12.582-8.832c1.517-5.891-1.376-13.311-1.376-13.311s-1.837-6.32,1.466-11.672"/>
		</g>
		
			<path fill="#FFFFFF" stroke="#000000" stroke-width="2.4" stroke-linecap="round" stroke-linejoin="round" stroke-miterlimit="10" d="
			M49.75,25.912c13.284,0,24.054,10.777,24.054,24.067c0,13.283-10.77,24.04-24.054,24.04c-13.274,0-24.046-10.757-24.046-24.04
			C25.704,36.689,36.475,25.912,49.75,25.912z"/>
		<g>
			<g id="Layer_2_5_">
				<g>
					<g id="soccer_6_">
						<path stroke="#000000" stroke-width="1.6032" stroke-linecap="round" stroke-linejoin="round" stroke-miterlimit="10" d="
							M120.198,91.328c7.547,9.758,17.536,15.618,29.744,17.618c1.144,0.189,2.296,0.321,3.443,0.481h7.921
							c2.958-0.345,5.902-0.754,8.765-1.62c15.431-4.676,26-14.56,31.659-29.653c1.415-3.772,2.224-7.7,2.564-11.716v-7.921
							c-0.341-2.897-0.729-5.784-1.579-8.586c-5.054-16.676-15.932-27.581-32.561-32.748c-2.881-0.894-5.871-1.283-8.853-1.659
							h-7.916c-2.89,0.381-5.768,0.817-8.593,1.583c-17.29,4.709-30.67,19.298-33.724,36.954
							C108.701,67.789,111.674,80.305,120.198,91.328z M124.765,72.27c1.214-4.349,2.821-8.521,5.291-12.32
							c0.513-0.79,1.149-1.494,1.679-2.272c0.869-1.271,2.092-1.823,3.587-1.898c0.909-0.049,1.816-0.186,2.721-0.193
							c2.821-0.025,5.646-0.009,8.47-0.009v-0.209c0.784,0,1.578,0.076,2.354-0.02c1.231-0.144,2.073,0.37,2.826,1.287
							c2.333,2.841,4.434,5.854,6.534,8.869c1.491,2.141,2.94,4.306,4.42,6.449c0.285,0.409,0.445,0.77,0.204,1.289
							c-2.112,4.594-4.208,9.195-6.725,13.585c-0.469,0.812-1.014,1.583-1.502,2.385c-0.301,0.496-0.831,0.453-1.26,0.492
							c-2.717,0.245-5.443,0.535-8.171,0.397c-3.127-0.157-6.269-0.222-9.355-0.882c-0.473-0.104-0.918-0.221-1.258-0.581
							c-3.695-3.921-7.106-8.044-9.479-12.938C124.552,74.574,124.423,73.496,124.765,72.27z M189.084,51.745
							c0.589,1.33,0.669,2.605,0.24,4.007c-1.268,4.153-2.697,8.24-4.837,12.037c-0.869,1.536-1.815,3.014-3.479,3.863
							c-0.501,0.253-0.981,0.381-1.522,0.381c-2.455-0.004-4.901-0.004-7.355-0.004v-0.004c-2.356,0-4.713-0.036-7.069,0.02
							c-0.854,0.016-1.375-0.271-1.848-0.979c-3.002-4.456-5.991-8.921-9.268-13.186c-0.629-0.817-1.294-1.615-1.979-2.393
							c-0.317-0.357-0.368-0.677-0.177-1.106c2.209-4.829,4.445-9.639,7.043-14.276c0.91-1.619,2.128-2.404,3.907-2.634
							c4.646-0.597,9.294-0.989,13.983-0.576c1.396,0.124,2.558,0.532,3.52,1.676C183.678,42.638,186.913,46.827,189.084,51.745z
							 M160.143,107.837c-8.205,1.306-15.832-0.698-23.129-4.244c-2.202-1.07-3.621-3.164-5.188-5.003
							c-0.24-0.28-0.121-0.584,0.027-0.878c1.183-2.288,2.361-4.577,3.532-6.869c0.231-0.454,0.548-0.608,1.069-0.517
							c3.255,0.558,6.542,0.745,10.076,0.685c2.499,0.09,5.219-0.08,7.925-0.477c0.344-0.053,0.608-0.008,0.86,0.232
							c3.448,3.363,7.704,5.488,11.9,7.691c0.686,0.357,0.75,0.71,0.553,1.318c-0.709,2.2-1.768,4.208-3.121,6.093
							C163.505,107.455,161.794,107.572,160.143,107.837z M194.805,88.134c-0.045,0.806-0.35,1.402-0.787,1.963
							c-7.054,9.146-16.196,14.975-27.505,17.363c-0.555,0.115-1.327,0.558-1.656,0c-0.28-0.48,0.517-0.89,0.829-1.336
							c1.371-1.938,2.449-4.02,3.074-6.319c0.156-0.577,0.396-0.954,1.07-0.942c0.269,0.005,0.558-0.117,0.806-0.236
							c4.172-2.015,8.294-4.184,11.599-7.454c1.467-1.455,3.015-2,4.903-2.273c2.264-0.324,4.508-0.802,6.724-1.392
							C194.528,87.328,194.932,87.396,194.805,88.134z M195.454,53.841c1.294,0,2.24,0.048,3.178-0.016
							c0.918-0.061,1.459,0.376,1.912,1.094c1.463,2.304,2.408,4.854,2.505,7.523c0.301,8.425-1.486,16.264-7.126,22.878
							c-0.473,0.553-0.994,0.896-1.699,1.086c-2.854,0.753-5.751,1.271-8.654,1.787c-0.376,0.069-0.732,0.102-0.558-0.493
							c0.638-2.16,0.342-4.368,0.237-6.549c-0.104-2.088-0.417-4.177-1.042-6.196c-0.281-0.907-0.598-1.787-1.187-2.544
							c-0.232-0.305-0.353-0.573-0.035-0.906c2.616-2.763,3.947-6.233,5.325-9.673c0.911-2.271,1.669-4.601,2.232-6.984
							c0.129-0.565,0.397-0.739,0.942-0.826C192.924,53.789,194.366,53.909,195.454,53.841z M152.05,18.246
							c2.897-0.893,5.855-1.383,8.93-1.443c6.757,0.799,13.268,2.285,18.601,6.938c1.071,0.934,1.981,2.011,2.73,3.23
							c0.289,0.464,0.34,0.905,0.161,1.427c-0.843,2.4-1.772,4.765-2.749,7.113c-0.281,0.674-0.669,0.767-1.312,0.682
							c-5.937-0.757-11.832-0.51-17.685,0.749c-0.356,0.073-0.701,0.241-1.03-0.15c-2.266-2.738-5.309-4.485-8.249-6.354
							c-1.297-0.826-2.645-1.576-3.995-2.309c-0.465-0.257-0.625-0.51-0.509-1.042c0.653-2.931,1.972-5.552,3.67-7.996
							C150.964,18.586,151.51,18.413,152.05,18.246z M119.185,37.345c0.101-0.435,0.301-0.818,0.562-1.184
							c6.637-9.282,15.476-15.37,26.524-18.232c0.356-0.091,0.743-0.088,1.114-0.133c0.613,0,1.19,0.149,1.776,0.277
							c0.584,0.129,0.692,0.369,0.332,0.902c-1.366,2.012-2.474,4.163-3.134,6.513c-0.338,1.182-0.381,2.533-2.141,2.412
							c-4.529,2.213-8.942,4.605-12.565,8.2c-0.4,0.397-0.81,0.806-1.103,1.283c-0.392,0.641-0.909,0.81-1.591,0.683
							c-2.897-0.543-5.748-0.116-8.585,0.46C119.116,38.782,118.892,38.587,119.185,37.345z M115.682,43.613
							c1.246-2.569,3.035-4.138,6.008-4.382c2.282-0.188,4.533-0.653,6.838-0.268c0.613,0.1,0.97,0.229,0.882,0.986
							c-0.093,0.806-0.02,1.634-0.02,2.447c-0.016,3.5,0.368,6.954,1.306,10.334c0.208,0.754,0.41,1.547,0.898,2.163
							c0.569,0.709,0.337,1.118-0.212,1.724c-2.869,3.175-4.67,6.975-6.152,10.938c-0.578,1.531-1.076,3.085-1.443,4.679
							c-0.16,0.685-0.533,0.92-1.193,0.929c-2.262,0.02-4.51-0.222-6.763-0.394c-0.517-0.039-0.749-0.413-0.966-0.801
							c-1.627-2.882-2.724-5.969-3.053-9.243C111.128,55.977,112.745,49.66,115.682,43.613z"/>
						
							<path fill="#FFFFFF" stroke="#000000" stroke-width="1.6032" stroke-linecap="round" stroke-linejoin="round" stroke-miterlimit="10" d="
							M115.682,43.613c1.246-2.569,3.035-4.138,6.008-4.382c2.282-0.188,4.533-0.653,6.838-0.268c0.613,0.1,0.97,0.229,0.882,0.986
							c-0.093,0.806-0.02,1.634-0.02,2.447c-0.016,3.5,0.368,6.954,1.306,10.334c0.208,0.754,0.41,1.547,0.898,2.163
							c0.569,0.709,0.337,1.118-0.212,1.724c-2.869,3.175-4.67,6.975-6.152,10.938c-0.578,1.531-1.076,3.085-1.443,4.679
							c-0.16,0.685-0.533,0.92-1.193,0.929c-2.262,0.02-4.51-0.222-6.763-0.394c-0.517-0.039-0.749-0.413-0.966-0.801
							c-1.627-2.882-2.724-5.969-3.053-9.243C111.128,55.977,112.745,49.66,115.682,43.613z"/>
						
							<path fill="#FFFFFF" stroke="#000000" stroke-width="1.6032" stroke-linecap="round" stroke-linejoin="round" stroke-miterlimit="10" d="
							M119.185,37.345c0.101-0.435,0.301-0.818,0.562-1.184c6.637-9.282,15.476-15.37,26.524-18.232
							c0.356-0.091,0.743-0.088,1.114-0.133c0.613,0,1.19,0.149,1.776,0.277c0.584,0.129,0.692,0.369,0.332,0.902
							c-1.366,2.012-2.474,4.163-3.134,6.513c-0.338,1.182-0.381,2.533-2.141,2.412c-4.529,2.213-8.942,4.605-12.565,8.2
							c-0.4,0.397-0.81,0.806-1.103,1.283c-0.392,0.641-0.909,0.81-1.591,0.683c-2.897-0.543-5.748-0.116-8.585,0.46
							C119.116,38.782,118.892,38.587,119.185,37.345z"/>
						
							<path fill="#FFFFFF" stroke="#000000" stroke-width="1.6032" stroke-linecap="round" stroke-linejoin="round" stroke-miterlimit="10" d="
							M146.945,27.088c0.653-2.931,1.972-5.552,3.67-7.996c0.349-0.506,0.895-0.678,1.436-0.846c2.898-0.893,5.855-1.383,8.93-1.443
							c6.756,0.799,13.267,2.285,18.601,6.938c1.07,0.934,1.98,2.011,2.73,3.23c0.288,0.464,0.341,0.905,0.161,1.427
							c-0.843,2.4-1.772,4.765-2.75,7.113c-0.281,0.674-0.669,0.767-1.312,0.682c-5.936-0.757-11.831-0.51-17.683,0.749
							c-0.357,0.073-0.702,0.241-1.031-0.15c-2.267-2.738-5.31-4.485-8.249-6.354c-1.299-0.826-2.645-1.576-3.996-2.309
							C146.988,27.873,146.829,27.62,146.945,27.088z"/>
						
							<path fill="#FFFFFF" stroke="#000000" stroke-width="1.6032" stroke-linecap="round" stroke-linejoin="round" stroke-miterlimit="10" d="
							M124.765,72.27c1.214-4.349,2.821-8.521,5.291-12.32c0.513-0.79,1.149-1.494,1.679-2.272c0.869-1.271,2.092-1.823,3.587-1.898
							c0.909-0.049,1.816-0.186,2.721-0.193c2.821-0.025,5.646-0.009,8.47-0.009v-0.209c0.784,0,1.578,0.076,2.354-0.02
							c1.231-0.144,2.073,0.37,2.826,1.287c2.333,2.841,4.434,5.854,6.534,8.869c1.491,2.141,2.94,4.306,4.42,6.449
							c0.285,0.409,0.445,0.77,0.204,1.289c-2.112,4.594-4.208,9.195-6.725,13.585c-0.469,0.812-1.014,1.583-1.502,2.385
							c-0.301,0.496-0.831,0.453-1.26,0.492c-2.717,0.245-5.443,0.535-8.171,0.397c-3.127-0.157-6.269-0.222-9.355-0.882
							c-0.473-0.104-0.918-0.221-1.258-0.581c-3.695-3.921-7.106-8.044-9.479-12.938C124.552,74.574,124.423,73.496,124.765,72.27z"
							/>
						
							<path fill="#FFFFFF" stroke="#000000" stroke-width="1.6032" stroke-linecap="round" stroke-linejoin="round" stroke-miterlimit="10" d="
							M131.854,97.712c1.183-2.288,2.361-4.577,3.532-6.869c0.231-0.454,0.548-0.608,1.069-0.517
							c3.255,0.558,6.542,0.745,10.076,0.685c2.499,0.09,5.219-0.08,7.925-0.477c0.344-0.053,0.608-0.008,0.86,0.232
							c3.448,3.363,7.704,5.488,11.9,7.691c0.686,0.357,0.75,0.71,0.553,1.318c-0.709,2.2-1.768,4.208-3.121,6.093
							c-1.143,1.586-2.854,1.703-4.506,1.968c-8.205,1.306-15.832-0.698-23.129-4.244c-2.201-1.07-3.621-3.164-5.188-5.003
							C131.586,98.31,131.706,98.006,131.854,97.712z"/>
						
							<path fill="#FFFFFF" stroke="#000000" stroke-width="1.6032" stroke-linecap="round" stroke-linejoin="round" stroke-miterlimit="10" d="
							M165.686,106.124c1.371-1.938,2.449-4.02,3.074-6.319c0.156-0.577,0.396-0.954,1.069-0.942
							c0.269,0.005,0.559-0.117,0.807-0.236c4.172-2.015,8.292-4.184,11.599-7.454c1.467-1.455,3.014-2,4.903-2.273
							c2.264-0.324,4.508-0.802,6.724-1.392c0.666-0.179,1.07-0.11,0.943,0.627c-0.045,0.806-0.35,1.402-0.787,1.963
							c-7.054,9.146-16.196,14.975-27.505,17.363c-0.555,0.115-1.327,0.558-1.656,0C164.576,106.979,165.374,106.57,165.686,106.124
							z"/>
						
							<path fill="#FFFFFF" stroke="#000000" stroke-width="1.6032" stroke-linecap="round" stroke-linejoin="round" stroke-miterlimit="10" d="
							M182.985,71.505c2.617-2.763,3.947-6.233,5.326-9.673c0.911-2.271,1.668-4.601,2.232-6.985
							c0.129-0.565,0.396-0.738,0.942-0.825c1.438-0.233,2.882-0.112,3.968-0.182c1.295,0,2.24,0.049,3.178-0.015
							c0.918-0.061,1.46,0.376,1.913,1.094c1.462,2.304,2.408,4.853,2.505,7.523c0.3,8.424-1.487,16.264-7.127,22.877
							c-0.473,0.554-0.994,0.897-1.699,1.087c-2.854,0.753-5.751,1.271-8.653,1.787c-0.377,0.067-0.733,0.1-0.557-0.494
							c0.636-2.159,0.341-4.367,0.235-6.548c-0.104-2.089-0.416-4.177-1.042-6.196c-0.28-0.907-0.597-1.788-1.187-2.546
							C182.788,72.104,182.668,71.838,182.985,71.505z"/>
						
							<path fill="#FFFFFF" stroke="#000000" stroke-width="1.6032" stroke-linecap="round" stroke-linejoin="round" stroke-miterlimit="10" d="
							M151.79,54.382c2.209-4.829,4.445-9.639,7.043-14.276c0.91-1.619,2.128-2.404,3.907-2.634
							c4.646-0.597,9.294-0.989,13.983-0.576c1.396,0.124,2.558,0.532,3.52,1.676c3.436,4.067,6.67,8.256,8.842,13.174
							c0.589,1.33,0.669,2.605,0.24,4.007c-1.268,4.153-2.697,8.24-4.837,12.037c-0.869,1.536-1.815,3.014-3.479,3.863
							c-0.501,0.253-0.981,0.381-1.522,0.381c-2.455-0.004-4.901-0.004-7.355-0.004v-0.004c-2.356,0-4.713-0.036-7.069,0.02
							c-0.854,0.016-1.375-0.271-1.848-0.979c-3.002-4.456-5.991-8.921-9.268-13.186c-0.629-0.817-1.294-1.615-1.979-2.393
							C151.649,55.131,151.598,54.812,151.79,54.382z"/>
					</g>
					<path fill="#FFFFFF" d="M111.83,67.683c0.706,1.805,1.417,3.58,2.423,5.222c0.127,0.205,0.209,0.467,0.216,0.704
						c0.05,1.785-0.078,3.574,0.142,5.366C113.102,75.346,112.184,71.578,111.83,67.683z"/>
					<path fill="#FFFFFF" d="M125.436,95.363c1.506,0.98,3.033,1.905,4.586,2.797c0.968,0.557,1.434,1.683,2.137,2.557
						C129.666,99.238,127.46,97.415,125.436,95.363z"/>
					<path fill="#FFFFFF" d="M202.853,57.111c-0.7-1.368-1.319-2.772-2.413-3.885c-0.215-0.218-0.23-0.51-0.222-0.795
						c0.087-2.819-0.245-5.597-0.874-8.346C201.219,48.239,202.431,52.566,202.853,57.111z"/>
					<path fill="#FFFFFF" d="M191.222,31.616c-1.749-1.043-3.387-2.272-5.229-3.129c-1.482-0.687-2.738-1.483-3.526-3.009
						c-0.552-1.066-1.542-1.855-2.358-2.757C184.335,25.04,188.024,28.019,191.222,31.616z"/>
				</g>
			</g>
		</g>
	</g>
</g>
</svg>
