<?xml version="1.0" encoding="utf-8"?>
<!-- Generator: Adobe Illustrator 16.0.0, SVG Export Plug-In . SVG Version: 6.00 Build 0)  -->
<!DOCTYPE svg PUBLIC "-//W3C//DTD SVG 1.1//EN" "http://www.w3.org/Graphics/SVG/1.1/DTD/svg11.dtd">
<svg version="1.1" xmlns="http://www.w3.org/2000/svg" xmlns:xlink="http://www.w3.org/1999/xlink" x="0px" y="0px" width="220px"
	 height="220px" viewBox="0 0 220 220" enable-background="new 0 0 220 220" xml:space="preserve">
<g id="bg" display="none">
</g>
<g id="Layer_3">
</g>
<g id="Layer_1">
	<g>
		<defs>
			<rect id="SVGID_29_" x="-4890.076" y="-2700" width="220" height="220"/>
		</defs>
		<clipPath id="SVGID_2_">
			<use xlink:href="#SVGID_29_"  overflow="visible"/>
		</clipPath>
	</g>
	<g>
		<defs>
			<rect id="SVGID_31_" x="-3690.076" y="-2700" width="220" height="220"/>
		</defs>
		<clipPath id="SVGID_4_">
			<use xlink:href="#SVGID_31_"  overflow="visible"/>
		</clipPath>
	</g>
	<g>
		<defs>
			<rect id="SVGID_33_" x="-3090.076" y="-2700" width="220" height="220"/>
		</defs>
		<clipPath id="SVGID_6_">
			<use xlink:href="#SVGID_33_"  overflow="visible"/>
		</clipPath>
	</g>
	<g>
		<defs>
			<rect id="SVGID_35_" x="-3390.076" y="-2700" width="220" height="220"/>
		</defs>
		<clipPath id="SVGID_8_">
			<use xlink:href="#SVGID_35_"  overflow="visible"/>
		</clipPath>
	</g>
	<g>
		<defs>
			<rect id="SVGID_37_" x="-4590.076" y="-2700" width="220" height="220"/>
		</defs>
		<clipPath id="SVGID_10_">
			<use xlink:href="#SVGID_37_"  overflow="visible"/>
		</clipPath>
	</g>
	<g>
		<defs>
			<rect id="SVGID_39_" x="-3990.076" y="-2700" width="220" height="220"/>
		</defs>
		<clipPath id="SVGID_12_">
			<use xlink:href="#SVGID_39_"  overflow="visible"/>
		</clipPath>
	</g>
	<g>
		<defs>
			<rect id="SVGID_411_" x="-1500" y="-2700" width="220" height="220"/>
		</defs>
		<clipPath id="SVGID_14_">
			<use xlink:href="#SVGID_411_"  overflow="visible"/>
		</clipPath>
	</g>
	<g>
		<defs>
			<rect id="SVGID_413_" x="-300" y="-2700" width="220" height="220"/>
		</defs>
		<clipPath id="SVGID_16_">
			<use xlink:href="#SVGID_413_"  overflow="visible"/>
		</clipPath>
	</g>
	<g>
		<defs>
			<rect id="SVGID_417_" x="0" y="-2700" width="220" height="220"/>
		</defs>
		<clipPath id="SVGID_18_">
			<use xlink:href="#SVGID_417_"  overflow="visible"/>
		</clipPath>
	</g>
	<g>
		<defs>
			<rect id="SVGID_419_" x="-1200" y="-2700" width="220" height="220"/>
		</defs>
		<clipPath id="SVGID_20_">
			<use xlink:href="#SVGID_419_"  overflow="visible"/>
		</clipPath>
	</g>
	<g>
		<defs>
			<rect id="SVGID_421_" x="-600" y="-2700" width="220" height="220"/>
		</defs>
		<clipPath id="SVGID_22_">
			<use xlink:href="#SVGID_421_"  overflow="visible"/>
		</clipPath>
	</g>
	<g>
		<rect x="0" fill="#EDEDED" width="220" height="220"/>
		<g>
			
				<circle fill="#919191" stroke="#000000" stroke-width="2.9042" stroke-linecap="round" stroke-linejoin="round" stroke-miterlimit="10" cx="157.288" cy="157.471" r="47.006"/>
			
				<path fill="none" stroke="#000000" stroke-width="2.9042" stroke-linecap="round" stroke-linejoin="round" stroke-miterlimit="10" d="
				M182.139,196.508c0,0-59.545-13.547-60.028-69.48"/>
			
				<line fill="none" stroke="#000000" stroke-width="2.9042" stroke-linecap="round" stroke-linejoin="round" stroke-miterlimit="10" x1="122.254" y1="188.922" x2="191.474" y2="125.613"/>
			
				<path fill="none" stroke="#000000" stroke-width="2.9042" stroke-linecap="round" stroke-linejoin="round" stroke-miterlimit="10" d="
				M111.163,161.77c0,0,36.237-6.133,45.529-50.289"/>
			
				<path fill="none" stroke="#000000" stroke-width="2.9042" stroke-linecap="round" stroke-linejoin="round" stroke-miterlimit="10" d="
				M147.159,203.379c0,0,11.609-35.545,55.694-37.586"/>
		</g>
		<g>
			
				<circle fill="#C7C7C7" stroke="#000000" stroke-width="2.4" stroke-linecap="round" stroke-linejoin="round" stroke-miterlimit="10" cx="52.28" cy="167.953" r="26.522"/>
			
				<path fill="#C7C7C7" stroke="#000000" stroke-width="2.4" stroke-linecap="round" stroke-linejoin="round" stroke-miterlimit="10" d="
				M53.575,193.918c1.338-0.445,16.059-19.807-7.941-25.965c-8.103-1.906-16.327-6.779-16.862-11.775"/>
			
				<path fill="#C7C7C7" stroke="#000000" stroke-width="2.4" stroke-linecap="round" stroke-linejoin="round" stroke-miterlimit="10" d="
				M75.344,178.84c-1.889,0.467-11.064-2.945-12.581-8.832c-1.517-5.891,1.376-13.311,1.376-13.311s1.837-6.32-1.466-11.672"/>
		</g>
		
			<path fill="#FFFFFF" stroke="#000000" stroke-width="2.4" stroke-linecap="round" stroke-linejoin="round" stroke-miterlimit="10" d="
			M170.25,25.912c-13.284,0-24.054,10.777-24.054,24.067c0,13.283,10.77,24.04,24.054,24.04c13.274,0,24.046-10.757,24.046-24.04
			C194.295,36.689,183.524,25.912,170.25,25.912z"/>
		<g>
			<g id="Layer_2_3_">
				<g>
					<g id="soccer_4_">
						<path stroke="#000000" stroke-width="1.6032" stroke-linecap="round" stroke-linejoin="round" stroke-miterlimit="10" d="
							M108.93,54.062c-3.054-17.656-16.434-32.245-33.724-36.954c-2.825-0.766-5.703-1.202-8.593-1.583h-7.916
							c-2.982,0.376-5.971,0.766-8.853,1.659c-16.629,5.167-27.507,16.072-32.561,32.748c-0.85,2.802-1.238,5.688-1.579,8.586v7.921
							c0.341,4.016,1.149,7.943,2.564,11.716c5.659,15.094,16.229,24.978,31.659,29.653c2.862,0.866,5.807,1.275,8.765,1.62h7.92
							c1.147-0.16,2.3-0.292,3.444-0.481c12.208-2,22.196-7.86,29.743-17.618C108.325,80.305,111.298,67.789,108.93,54.062z
							 M94.898,75.7c-2.373,4.895-5.785,9.018-9.479,12.938c-0.34,0.36-0.785,0.477-1.258,0.581
							c-3.087,0.66-6.229,0.725-9.355,0.882c-2.729,0.138-5.454-0.152-8.172-0.397c-0.429-0.039-0.959,0.004-1.26-0.492
							c-0.488-0.802-1.033-1.573-1.502-2.385c-2.517-4.39-4.613-8.991-6.725-13.585c-0.242-0.52-0.081-0.88,0.204-1.289
							c1.479-2.144,2.929-4.309,4.42-6.449c2.101-3.015,4.201-6.028,6.534-8.869c0.753-0.917,1.595-1.431,2.826-1.287
							c0.776,0.096,1.57,0.02,2.354,0.02v0.209c2.823,0,5.648-0.017,8.47,0.009c0.905,0.008,1.813,0.145,2.721,0.193
							c1.496,0.075,2.719,0.628,3.588,1.898c0.529,0.778,1.166,1.482,1.679,2.272c2.47,3.8,4.077,7.972,5.291,12.32
							C95.576,73.496,95.446,74.574,94.898,75.7z M39.756,38.571c0.961-1.144,2.123-1.552,3.52-1.676
							c4.689-0.413,9.337-0.021,13.983,0.576c1.779,0.229,2.997,1.015,3.907,2.634c2.598,4.638,4.834,9.447,7.043,14.276
							c0.191,0.43,0.141,0.749-0.177,1.106c-0.686,0.777-1.351,1.575-1.979,2.393c-3.276,4.265-6.266,8.729-9.268,13.186
							c-0.473,0.707-0.994,0.994-1.848,0.979c-2.356-0.056-4.713-0.02-7.069-0.02v0.004c-2.454,0-4.901,0-7.355,0.004
							c-0.541,0-1.021-0.128-1.522-0.381c-1.663-0.85-2.609-2.327-3.479-3.863c-2.141-3.797-3.569-7.884-4.838-12.037
							c-0.429-1.401-0.349-2.677,0.24-4.007C33.086,46.827,36.321,42.638,39.756,38.571z M55.35,105.869
							c-1.354-1.885-2.412-3.893-3.121-6.093c-0.198-0.608-0.133-0.961,0.552-1.318c4.197-2.203,8.453-4.328,11.901-7.691
							c0.252-0.24,0.517-0.285,0.86-0.232c2.706,0.396,5.427,0.566,7.925,0.477c3.534,0.061,6.821-0.127,10.076-0.685
							c0.521-0.092,0.838,0.063,1.069,0.517c1.171,2.292,2.35,4.581,3.533,6.869c0.148,0.294,0.268,0.598,0.027,0.878
							c-1.566,1.839-2.985,3.933-5.188,5.003c-7.297,3.546-14.924,5.55-23.129,4.244C58.205,107.572,56.494,107.455,55.35,105.869z
							 M26.137,87.507c2.216,0.59,4.46,1.067,6.724,1.392c1.889,0.273,3.437,0.818,4.903,2.273
							c3.305,3.271,7.427,5.439,11.598,7.454c0.249,0.119,0.538,0.241,0.806,0.236c0.674-0.012,0.914,0.365,1.07,0.942
							c0.625,2.3,1.704,4.381,3.075,6.319c0.313,0.446,1.109,0.855,0.829,1.336c-0.329,0.558-1.102,0.115-1.656,0
							c-11.31-2.389-20.451-8.217-27.505-17.363c-0.438-0.561-0.743-1.157-0.787-1.963C25.067,87.396,25.471,87.328,26.137,87.507z
							 M28.514,54.021c0.545,0.087,0.813,0.261,0.942,0.826c0.563,2.384,1.321,4.714,2.232,6.984
							c1.378,3.439,2.709,6.91,5.325,9.673c0.317,0.333,0.197,0.602-0.035,0.906c-0.589,0.757-0.905,1.637-1.187,2.544
							c-0.625,2.02-0.938,4.108-1.042,6.196c-0.104,2.181-0.4,4.389,0.237,6.549c0.175,0.595-0.181,0.563-0.557,0.493
							c-2.903-0.517-5.8-1.034-8.654-1.787c-0.705-0.189-1.227-0.533-1.699-1.086c-5.64-6.614-7.427-14.453-7.126-22.878
							c0.097-2.67,1.042-5.22,2.505-7.523c0.453-0.718,0.994-1.154,1.912-1.094c0.938,0.063,1.884,0.016,3.178,0.016
							C25.632,53.909,27.075,53.789,28.514,54.021z M69.383,19.092c1.699,2.444,3.018,5.065,3.671,7.996
							c0.116,0.532-0.044,0.785-0.509,1.042c-1.35,0.732-2.697,1.482-3.995,2.309c-2.939,1.868-5.982,3.615-8.249,6.354
							c-0.328,0.392-0.673,0.224-1.029,0.15c-5.853-1.259-11.748-1.506-17.685-0.749c-0.643,0.085-1.03-0.008-1.312-0.682
							c-0.977-2.349-1.906-4.713-2.749-7.113c-0.179-0.521-0.128-0.963,0.161-1.427c0.749-1.22,1.659-2.297,2.73-3.23
							c5.333-4.653,11.843-6.14,18.601-6.938c3.074,0.061,6.032,0.551,8.93,1.443C68.488,18.413,69.035,18.586,69.383,19.092z
							 M99.624,38.526c-2.837-0.576-5.688-1.003-8.585-0.46c-0.682,0.127-1.199-0.042-1.591-0.683
							c-0.293-0.478-0.702-0.886-1.102-1.283c-3.623-3.595-8.036-5.987-12.565-8.2c-1.76,0.121-1.803-1.23-2.141-2.412
							c-0.66-2.35-1.768-4.501-3.134-6.513c-0.36-0.533-0.252-0.773,0.332-0.902c0.586-0.128,1.163-0.277,1.776-0.277
							c0.372,0.045,0.758,0.042,1.115,0.133c11.049,2.862,19.888,8.95,26.524,18.232c0.261,0.365,0.461,0.749,0.562,1.184
							C101.107,38.587,100.882,38.782,99.624,38.526z M108.188,62.727c-0.329,3.274-1.427,6.361-3.054,9.243
							c-0.217,0.388-0.449,0.762-0.966,0.801c-2.253,0.172-4.501,0.413-6.763,0.394c-0.66-0.009-1.033-0.244-1.193-0.929
							c-0.368-1.594-0.865-3.147-1.443-4.679c-1.482-3.964-3.283-7.764-6.152-10.938c-0.549-0.605-0.781-1.015-0.212-1.724
							c0.489-0.616,0.69-1.409,0.898-2.163c0.938-3.38,1.322-6.834,1.307-10.334c0-0.813,0.073-1.642-0.02-2.447
							c-0.088-0.758,0.269-0.887,0.882-0.986c2.305-0.386,4.556,0.08,6.838,0.268c2.972,0.244,4.762,1.813,6.008,4.382
							C107.254,49.66,108.871,55.977,108.188,62.727z"/>
						
							<path fill="#FFFFFF" stroke="#000000" stroke-width="1.6032" stroke-linecap="round" stroke-linejoin="round" stroke-miterlimit="10" d="
							M104.317,43.613c-1.246-2.569-3.036-4.138-6.008-4.382c-2.282-0.188-4.533-0.653-6.838-0.268
							c-0.613,0.1-0.97,0.229-0.882,0.986c0.093,0.806,0.02,1.634,0.02,2.447c0.016,3.5-0.368,6.954-1.307,10.334
							c-0.208,0.754-0.409,1.547-0.898,2.163c-0.569,0.709-0.336,1.118,0.212,1.724c2.869,3.175,4.67,6.975,6.152,10.938
							c0.578,1.531,1.075,3.085,1.443,4.679c0.16,0.685,0.533,0.92,1.193,0.929c2.262,0.02,4.51-0.222,6.763-0.394
							c0.517-0.039,0.749-0.413,0.966-0.801c1.627-2.882,2.725-5.969,3.054-9.243C108.871,55.977,107.254,49.66,104.317,43.613z"/>
						
							<path fill="#FFFFFF" stroke="#000000" stroke-width="1.6032" stroke-linecap="round" stroke-linejoin="round" stroke-miterlimit="10" d="
							M100.814,37.345c-0.101-0.435-0.301-0.818-0.562-1.184c-6.637-9.282-15.476-15.37-26.524-18.232
							c-0.356-0.091-0.743-0.088-1.115-0.133c-0.613,0-1.19,0.149-1.776,0.277c-0.584,0.129-0.692,0.369-0.332,0.902
							c1.366,2.012,2.474,4.163,3.134,6.513c0.338,1.182,0.381,2.533,2.141,2.412c4.529,2.213,8.942,4.605,12.565,8.2
							c0.4,0.397,0.809,0.806,1.102,1.283c0.392,0.641,0.91,0.81,1.591,0.683c2.897-0.543,5.748-0.116,8.585,0.46
							C100.882,38.782,101.107,38.587,100.814,37.345z"/>
						
							<path fill="#FFFFFF" stroke="#000000" stroke-width="1.6032" stroke-linecap="round" stroke-linejoin="round" stroke-miterlimit="10" d="
							M73.054,27.088c-0.653-2.931-1.972-5.552-3.671-7.996c-0.349-0.506-0.895-0.678-1.436-0.846
							c-2.898-0.893-5.855-1.383-8.929-1.443c-6.757,0.799-13.267,2.285-18.601,6.938c-1.07,0.934-1.98,2.011-2.73,3.23
							c-0.288,0.464-0.341,0.905-0.161,1.427c0.843,2.4,1.772,4.765,2.75,7.113c0.281,0.674,0.669,0.767,1.312,0.682
							c5.936-0.757,11.831-0.51,17.683,0.749c0.357,0.073,0.702,0.241,1.03-0.15c2.268-2.738,5.311-4.485,8.249-6.354
							c1.299-0.826,2.645-1.576,3.996-2.309C73.01,27.873,73.17,27.62,73.054,27.088z"/>
						
							<path fill="#FFFFFF" stroke="#000000" stroke-width="1.6032" stroke-linecap="round" stroke-linejoin="round" stroke-miterlimit="10" d="
							M95.234,72.27c-1.214-4.349-2.821-8.521-5.291-12.32c-0.513-0.79-1.149-1.494-1.679-2.272
							c-0.869-1.271-2.092-1.823-3.588-1.898c-0.908-0.049-1.815-0.186-2.721-0.193c-2.821-0.025-5.646-0.009-8.47-0.009v-0.209
							c-0.784,0-1.578,0.076-2.354-0.02c-1.231-0.144-2.073,0.37-2.826,1.287c-2.333,2.841-4.434,5.854-6.534,8.869
							c-1.491,2.141-2.94,4.306-4.42,6.449c-0.285,0.409-0.446,0.77-0.204,1.289c2.111,4.594,4.208,9.195,6.725,13.585
							c0.469,0.812,1.014,1.583,1.502,2.385c0.301,0.496,0.831,0.453,1.26,0.492c2.718,0.245,5.443,0.535,8.172,0.397
							c3.127-0.157,6.269-0.222,9.355-0.882c0.473-0.104,0.918-0.221,1.258-0.581c3.695-3.921,7.106-8.044,9.479-12.938
							C95.446,74.574,95.576,73.496,95.234,72.27z"/>
						
							<path fill="#FFFFFF" stroke="#000000" stroke-width="1.6032" stroke-linecap="round" stroke-linejoin="round" stroke-miterlimit="10" d="
							M88.145,97.712c-1.183-2.288-2.361-4.577-3.533-6.869c-0.231-0.454-0.547-0.608-1.069-0.517
							c-3.255,0.558-6.542,0.745-10.076,0.685c-2.498,0.09-5.219-0.08-7.925-0.477c-0.344-0.053-0.608-0.008-0.86,0.232
							c-3.448,3.363-7.704,5.488-11.901,7.691c-0.685,0.357-0.75,0.71-0.552,1.318c0.709,2.2,1.768,4.208,3.121,6.093
							c1.143,1.586,2.854,1.703,4.506,1.968c8.205,1.306,15.832-0.698,23.129-4.244c2.201-1.07,3.621-3.164,5.188-5.003
							C88.413,98.31,88.293,98.006,88.145,97.712z"/>
						
							<path fill="#FFFFFF" stroke="#000000" stroke-width="1.6032" stroke-linecap="round" stroke-linejoin="round" stroke-miterlimit="10" d="
							M54.313,106.124c-1.371-1.938-2.45-4.02-3.075-6.319c-0.156-0.577-0.396-0.954-1.069-0.942
							c-0.269,0.005-0.559-0.117-0.807-0.236c-4.171-2.015-8.292-4.184-11.598-7.454c-1.467-1.455-3.014-2-4.903-2.273
							c-2.264-0.324-4.508-0.802-6.724-1.392c-0.666-0.179-1.07-0.11-0.943,0.627c0.044,0.806,0.35,1.402,0.787,1.963
							c7.054,9.146,16.195,14.975,27.505,17.363c0.555,0.115,1.327,0.558,1.656,0C55.423,106.979,54.625,106.57,54.313,106.124z"/>
						
							<path fill="#FFFFFF" stroke="#000000" stroke-width="1.6032" stroke-linecap="round" stroke-linejoin="round" stroke-miterlimit="10" d="
							M37.014,71.505c-2.617-2.763-3.947-6.233-5.326-9.673c-0.911-2.271-1.668-4.601-2.232-6.985
							c-0.129-0.565-0.396-0.738-0.942-0.825c-1.438-0.233-2.882-0.112-3.968-0.182c-1.295,0-2.24,0.049-3.178-0.015
							c-0.918-0.061-1.46,0.376-1.913,1.094c-1.462,2.304-2.408,4.853-2.505,7.523c-0.3,8.424,1.487,16.264,7.127,22.877
							c0.473,0.554,0.994,0.897,1.699,1.087c2.854,0.753,5.751,1.271,8.653,1.787c0.377,0.067,0.733,0.1,0.557-0.494
							c-0.636-2.159-0.341-4.367-0.235-6.548c0.104-2.089,0.416-4.177,1.042-6.196c0.28-0.907,0.597-1.788,1.187-2.546
							C37.211,72.104,37.331,71.838,37.014,71.505z"/>
						
							<path fill="#FFFFFF" stroke="#000000" stroke-width="1.6032" stroke-linecap="round" stroke-linejoin="round" stroke-miterlimit="10" d="
							M68.209,54.382c-2.209-4.829-4.445-9.639-7.043-14.276c-0.91-1.619-2.128-2.404-3.907-2.634
							c-4.646-0.597-9.294-0.989-13.983-0.576c-1.396,0.124-2.559,0.532-3.52,1.676c-3.436,4.067-6.67,8.256-8.842,13.174
							c-0.589,1.33-0.669,2.605-0.24,4.007c1.269,4.153,2.697,8.24,4.838,12.037c0.869,1.536,1.815,3.014,3.479,3.863
							c0.501,0.253,0.981,0.381,1.522,0.381c2.454-0.004,4.901-0.004,7.355-0.004v-0.004c2.356,0,4.713-0.036,7.069,0.02
							c0.854,0.016,1.375-0.271,1.848-0.979c3.002-4.456,5.991-8.921,9.268-13.186c0.629-0.817,1.294-1.615,1.979-2.393
							C68.35,55.131,68.401,54.812,68.209,54.382z"/>
					</g>
					<path fill="#FFFFFF" d="M108.169,67.683c-0.706,1.805-1.417,3.58-2.423,5.222c-0.127,0.205-0.209,0.467-0.216,0.704
						c-0.049,1.785,0.079,3.574-0.141,5.366C106.897,75.346,107.815,71.578,108.169,67.683z"/>
					<path fill="#FFFFFF" d="M94.563,95.363c-1.506,0.98-3.033,1.905-4.586,2.797c-0.969,0.557-1.434,1.683-2.137,2.557
						C90.333,99.238,92.539,97.415,94.563,95.363z"/>
					<path fill="#FFFFFF" d="M17.146,57.111c0.7-1.368,1.319-2.772,2.413-3.885c0.215-0.218,0.23-0.51,0.221-0.795
						c-0.086-2.819,0.246-5.597,0.874-8.346C18.78,48.239,17.568,52.566,17.146,57.111z"/>
					<path fill="#FFFFFF" d="M28.777,31.616c1.749-1.043,3.387-2.272,5.229-3.129c1.482-0.687,2.738-1.483,3.526-3.009
						c0.552-1.066,1.542-1.855,2.358-2.757C35.664,25.04,31.975,28.019,28.777,31.616z"/>
				</g>
			</g>
		</g>
	</g>
</g>
</svg>
