<?xml version="1.0" encoding="utf-8"?>
<!-- Generator: Adobe Illustrator 16.0.0, SVG Export Plug-In . SVG Version: 6.00 Build 0)  -->
<!DOCTYPE svg PUBLIC "-//W3C//DTD SVG 1.1//EN" "http://www.w3.org/Graphics/SVG/1.1/DTD/svg11.dtd">
<svg version="1.1" xmlns="http://www.w3.org/2000/svg" xmlns:xlink="http://www.w3.org/1999/xlink" x="0px" y="0px"
	 width="453.543px" height="453.543px" viewBox="0 0 453.543 453.543" enable-background="new 0 0 453.543 453.543"
	 xml:space="preserve">
<g id="kvadrat">
	<rect x="-453.543" fill="none" width="453.543" height="453.543"/>
</g>
<g id="Layer_1">
</g>
<g id="Layer_2">
	
		<path fill="#7E4E24" stroke="#000000" stroke-width="8" stroke-linecap="round" stroke-linejoin="round" stroke-miterlimit="10" d="
		M322.794,206.75c0,0-36,116.364-36,134.33c0,17.966-127.394,17.966-127.394,0c0-17.965-36-134.33-36-134.33"/>
	
		<path fill="#35A8E0" stroke="#000000" stroke-width="8" stroke-linecap="round" stroke-linejoin="round" stroke-miterlimit="10" d="
		M322.794,206.75c0,0-36,116.364-36,134.33c0,17.966-127.394,17.966-127.394,0c0-17.965-36-134.33-36-134.33"/>
	
		<ellipse fill="#7E4E24" stroke="#000000" stroke-width="8" stroke-linecap="round" stroke-linejoin="round" stroke-miterlimit="10" cx="223.097" cy="206.75" rx="99.697" ry="32.53"/>
	
		<path fill="#FFFFFF" stroke="#000000" stroke-width="8" stroke-linecap="round" stroke-linejoin="round" stroke-miterlimit="10" d="
		M277.399,160.447c-1.438,0-3.307-0.429-5.481-1.181c0.99-2.537,1.538-5.295,1.538-8.182c0-12.455-10.097-22.551-22.55-22.551
		c-1.817,0-3.582,0.221-5.273,0.626c0.006-0.208,0.016-0.417,0.016-0.626c0-12.455-10.096-22.551-22.551-22.551
		s-22.551,10.096-22.551,22.551c0,0.21,0.01,0.418,0.016,0.626c-1.693-0.406-3.456-0.626-5.273-0.626
		c-12.455,0-22.551,10.097-22.551,22.551c0,2.887,0.549,5.645,1.537,8.182c-2.174,0.752-4.043,1.181-5.479,1.181
		c-12.454,0-22.551,10.096-22.551,22.551c0,12.305,3.44,34.921,76.853,35.461c73.412-0.541,76.852-23.156,76.852-35.461
		C299.949,170.543,289.854,160.447,277.399,160.447z"/>
	
		<circle fill="#E20613" stroke="#000000" stroke-width="8" stroke-linecap="round" stroke-linejoin="round" stroke-miterlimit="10" cx="190.418" cy="124.807" r="18.335"/>
	<path fill="none" stroke="#000000" stroke-width="8" stroke-linecap="round" stroke-linejoin="round" stroke-miterlimit="10" d="
		M187.589,118.913c0,0-14.181-26.297,3.29-47.805"/>
	
		<path fill="#7E4E24" stroke="#000000" stroke-width="8" stroke-linecap="round" stroke-linejoin="round" stroke-miterlimit="10" d="
		M123.4,206.75"/>
	
		<path fill="#FFFFFF" stroke="#000000" stroke-width="8" stroke-linecap="round" stroke-linejoin="round" stroke-miterlimit="10" d="
		M171.484,160.274c0,0,32.336,0.831,34.606,33.735"/>
	
		<path fill="#FFFFFF" stroke="#000000" stroke-width="8" stroke-linecap="round" stroke-linejoin="round" stroke-miterlimit="10" d="
		M224.298,153.319c0,0,4.564-26.298,28.362-24.611"/>
	
		<line fill="none" stroke="#000000" stroke-width="8" stroke-linecap="round" stroke-linejoin="round" stroke-miterlimit="10" x1="165.402" y1="235.402" x2="186.52" y2="352.344"/>
	
		<line fill="none" stroke="#000000" stroke-width="8" stroke-linecap="round" stroke-linejoin="round" stroke-miterlimit="10" x1="200.056" y1="242.757" x2="208.758" y2="349.563"/>
	
		<line fill="none" stroke="#000000" stroke-width="8" stroke-linecap="round" stroke-linejoin="round" stroke-miterlimit="10" x1="234.701" y1="242.757" x2="234.076" y2="354.372"/>
	
		<line fill="none" stroke="#000000" stroke-width="8" stroke-linecap="round" stroke-linejoin="round" stroke-miterlimit="10" x1="274.732" y1="239.281" x2="259.697" y2="349.563"/>
	<g id="rdeÄa7bela">
	</g>
</g>
</svg>
