<?xml version="1.0" encoding="utf-8"?>
<!-- Generator: Adobe Illustrator 16.0.0, SVG Export Plug-In . SVG Version: 6.00 Build 0)  -->
<!DOCTYPE svg PUBLIC "-//W3C//DTD SVG 1.1//EN" "http://www.w3.org/Graphics/SVG/1.1/DTD/svg11.dtd">
<svg version="1.1" xmlns="http://www.w3.org/2000/svg" xmlns:xlink="http://www.w3.org/1999/xlink" x="0px" y="0px"
	 width="453.543px" height="453.543px" viewBox="0 0 453.543 453.543" enable-background="new 0 0 453.543 453.543"
	 xml:space="preserve">
<g id="kvadrat">
</g>
<g id="Layer_1">
</g>
<g id="Layer_2">
	<path fill="none" stroke="#000000" stroke-width="6" stroke-linecap="round" stroke-linejoin="round" stroke-miterlimit="10" d="
		M218.534,180.533l0.109-0.108c23.949,10.626,127.758,57.41,152.303,80.728c12.715,12.073,17.402,30.677,11.944,47.394l-0.144,0.437
		l0.06,0.46c1.964,15.135-3.224,29.742-14.619,41.13c-9.672,9.677-22.084,15.006-34.938,15.006c-2.385,0-4.801-0.182-7.184-0.542
		l-0.44-0.064l-0.423,0.12c-4.1,1.169-8.348,1.763-12.625,1.763l0,0c-12.674,0-24.445-5.042-33.138-14.197
		c-23.294-24.524-70.095-128.338-80.729-152.3l0.113-0.115 M295.21,348.809c-23.058-23.06-78.111-129.618-90.687-154.257
		l0.104-0.103l1.57,3.056c15.395,29.965,67.324,129.419,89.108,151.21c8.638,8.631,18.997,14.165,29.965,16.002l0.481,0.079
		l0.463-0.144c6.682-2.08,12.657-5.59,17.762-10.433c3.918-3.717,7.107-8.039,9.479-12.84l1.595-3.226 M356.661,336.668l3.023-1.503
		c4.775-2.373,9.089-5.563,12.829-9.48c4.415-4.649,7.737-10.07,9.877-16.11l0.166-0.478l-0.073-0.501
		c-1.67-11.32-7.259-22.008-16.152-30.905c-28.69-28.682-122.449-75.899-150.5-89.687l-3.19-1.57l0.11-0.108 M211.128,187.942
		l0.104-0.1l8.982,13.98l0.369,0.238c32.542,20.991,109.877,71.552,125.152,87.638c8.405,8.851,12.865,20.446,12.554,32.652
		c-0.091,3.507-0.591,7.031-1.487,10.471l-1.102,4.227l-0.252,0.1l-0.094,0.24l-4.242,1.111c-3.456,0.905-6.977,1.409-10.472,1.5
		c-0.401,0.009-0.806,0.014-1.206,0.014c-11.747,0-22.915-4.465-31.451-12.568c-16.026-15.22-66.633-92.593-87.646-125.15
		l-0.238-0.369l-0.369-0.237c-4.21-2.725-7.811-5.036-10.613-6.835l-2.986-1.91"/>
	<polygon stroke="#000000" stroke-width="8" stroke-linecap="round" stroke-linejoin="round" stroke-miterlimit="10" points="
		89.291,92.611 196.149,199.475 217.975,177.642 111.118,70.782 	"/>
	<g id="rdeÄa7bela">
	</g>
</g>
</svg>
