<?xml version="1.0" encoding="utf-8"?>
<!-- Generator: Adobe Illustrator 16.0.0, SVG Export Plug-In . SVG Version: 6.00 Build 0)  -->
<!DOCTYPE svg PUBLIC "-//W3C//DTD SVG 1.1//EN" "http://www.w3.org/Graphics/SVG/1.1/DTD/svg11.dtd">
<svg version="1.1" xmlns="http://www.w3.org/2000/svg" xmlns:xlink="http://www.w3.org/1999/xlink" x="0px" y="0px"
	 width="453.543px" height="453.543px" viewBox="0 0 453.543 453.543" enable-background="new 0 0 453.543 453.543"
	 xml:space="preserve">
<g id="kvadrat">
	<rect x="-453.543" y="-453.543" fill="none" width="453.543" height="453.543"/>
	<rect y="-453.543" fill="none" width="453.543" height="453.543"/>
	<rect x="453.543" y="-453.543" fill="none" width="453.541" height="453.543"/>
</g>
<g id="Layer_1">
</g>
<g id="Layer_2">
	<g>
		
			<path fill="#422918" stroke="#000000" stroke-width="8" stroke-linecap="round" stroke-linejoin="round" stroke-miterlimit="10" d="
			M164.358,262.225l-78.486,78.488c-4.248,4.247-6.125,8.777-5.576,13.466c0.441,3.719,2.434,7.376,5.932,10.877
			c3.838,3.845,7.676,5.709,11.727,5.709c4.09,0,8.15-1.988,12.068-5.901l82.066-82.068l0.85,0.502
			C183.452,277.31,172.333,269.662,164.358,262.225z"/>
		<path d="M120.015,328.997c2.672,0,4.836,2.167,4.836,4.842c0,2.673-2.164,4.838-4.836,4.838c-2.674,0-4.842-2.165-4.842-4.838
			C115.173,331.164,117.341,328.997,120.015,328.997z"/>
		<path d="M102.206,345.565c2.672,0,4.838,2.163,4.838,4.838c0,2.662-2.166,4.834-4.838,4.834c-2.666,0-4.83-2.172-4.83-4.834
			C97.376,347.728,99.54,345.565,102.206,345.565z"/>
		<path fill="none" stroke="#000000" stroke-width="6" stroke-linecap="round" stroke-linejoin="round" stroke-miterlimit="10" d="
			M206.672,290.455C349.895,177.721,362.17,91.664,362.934,84.778"/>
		<g>
			<path fill="none" stroke="#000000" stroke-width="8" stroke-linecap="round" stroke-linejoin="round" stroke-miterlimit="10" d="
				M374.364,85.705c-0.15-1.012-0.74-1.903-1.609-2.434c-0.871-0.524-1.934-0.637-2.902-0.304
				c-59.6,20.939-194.008,167.212-200.107,173.873l-5.387,5.386l47.59,32.296l5.195,3.068c0.539,0.315,1.137,0.476,1.74,0.476
				c0.752,0,1.504-0.252,2.119-0.74C384.079,167.98,374.838,89.002,374.364,85.705z"/>
		</g>
	</g>
	<g id="rdeÄa7bela">
	</g>
</g>
</svg>
