<?xml version="1.0" encoding="utf-8"?>
<!-- Generator: Adobe Illustrator 16.0.0, SVG Export Plug-In . SVG Version: 6.00 Build 0)  -->
<!DOCTYPE svg PUBLIC "-//W3C//DTD SVG 1.1//EN" "http://www.w3.org/Graphics/SVG/1.1/DTD/svg11.dtd">
<svg version="1.1" xmlns="http://www.w3.org/2000/svg" xmlns:xlink="http://www.w3.org/1999/xlink" x="0px" y="0px"
	 width="453.543px" height="453.543px" viewBox="0 0 453.543 453.543" enable-background="new 0 0 453.543 453.543"
	 xml:space="preserve">
<g id="kvadrat">
</g>
<g id="Layer_1">
</g>
<g id="Layer_2">
	<g>
		
			<path fill="#CABA9F" stroke="#000000" stroke-width="8" stroke-linecap="round" stroke-linejoin="round" stroke-miterlimit="10" d="
			M40.366,206.751l8.771,31.775c0,0,10.873,32.934,106.914,32.934s106.917-32.934,106.917-32.934l14.176-31.775
			c0,13.625-53.005,24.669-118.389,24.669C93.372,231.42,40.366,220.377,40.366,206.751z"/>
		
			<ellipse fill="none" stroke="#000000" stroke-width="8" stroke-linecap="round" stroke-linejoin="round" stroke-miterlimit="10" cx="158.755" cy="206.751" rx="118.389" ry="24.669"/>
		<path fill="#683B11" stroke="#000000" stroke-width="8" stroke-miterlimit="10" d="M408.252,200.376H279.606
			c-1.65,0-3.13,1.013-3.728,2.551l-9.2,23.669c-0.597,1.534-0.192,3.276,1.018,4.391c0.755,0.695,1.728,1.058,2.711,1.058
			c0.594,0,1.191-0.132,1.749-0.403l27.549-13.397h108.547c2.209,0,4-1.791,4-4v-9.869
			C412.252,202.167,410.461,200.376,408.252,200.376z"/>
	</g>
	<g id="rdeÄa7bela">
	</g>
</g>
</svg>
