<?xml version="1.0" encoding="utf-8"?>
<!-- Generator: Adobe Illustrator 16.0.0, SVG Export Plug-In . SVG Version: 6.00 Build 0)  -->
<!DOCTYPE svg PUBLIC "-//W3C//DTD SVG 1.1//EN" "http://www.w3.org/Graphics/SVG/1.1/DTD/svg11.dtd">
<svg version="1.1" xmlns="http://www.w3.org/2000/svg" xmlns:xlink="http://www.w3.org/1999/xlink" x="0px" y="0px"
	 width="453.543px" height="453.543px" viewBox="0 0 453.543 453.543" enable-background="new 0 0 453.543 453.543"
	 xml:space="preserve">
<g id="kvadrat">
</g>
<g id="Layer_1">
</g>
<g id="Layer_2">
	<g id="rdeÄa7bela">
	</g>
	<g>
		
			<path fill="#FFFFFF" stroke="#010101" stroke-width="8" stroke-linecap="round" stroke-linejoin="round" stroke-miterlimit="10" d="
			M192.935,340.203c-24.437,0-44.084-6.401-56.817-18.512c-21.309-20.253-33.328-39.759-40.191-65.224
			c-7.203-26.771-8.679-60.968-8.679-104.078c0-11.829,11.541-21.895,33.375-29.11c19.408-6.41,45.092-9.94,72.318-9.94
			c27.237,0,52.919,3.53,72.314,9.94c21.835,7.217,33.377,17.283,33.377,29.11c0,3.858-0.015,7.549-0.038,11.085l-0.051,7.737
			l7.506-1.876c4.254-1.064,8.14-1.559,12.23-1.559c13.336,0,25.515,4.387,34.293,12.352c9.25,8.381,14.343,20.269,14.343,33.474
			c0,12.715-5.043,25.475-13.837,35.007c-9.337,10.134-21.694,15.714-34.796,15.714c-2.05,0-4.272-0.053-6.194-0.102l-1.077-0.022
			c-1.846-0.038-3.723-0.076-5.548-0.076c-4.222,0-9.603,0.167-13.76,1.477c-2.033,0.641-4.89,1.836-6.266,4.813l-0.09,0.203
			c-8.356,19.873-19.333,35.626-35.59,51.074C237.021,333.802,217.372,340.203,192.935,340.203z"/>
		<path fill="none" stroke="#010101" stroke-width="8" stroke-linecap="round" stroke-linejoin="round" stroke-miterlimit="10" d="
			M315.701,235.633c-1.904,0-4.219-0.151-6.671-0.311c-2.898-0.189-6.182-0.404-9.396-0.404c-2.171,0-4.158,0.101-5.984,0.306
			c1.249-9.276,2.859-21.299,3.381-27.54c4.353-7.072,12.027-11.1,21.251-11.1c12.414,0,19.825,6.361,19.825,17.018
			c0,11.154-8.972,20.794-20.425,21.946c-0.543,0.058-1.157,0.086-1.866,0.086L315.701,235.633z"/>
		
			<path fill="#FFFFFF" stroke="#000000" stroke-width="8" stroke-linecap="round" stroke-linejoin="round" stroke-miterlimit="10" d="
			M252.769,139.618c10.293,3.906,16.678,8.608,18.056,13.159c0.181,0.615,0.266,1.204,0.238,2.296
			c-0.017,0.155-0.028,0.293-0.017,0.443l-0.091,0.948c-8.837,11.545-41.466,20.131-78.833,20.131
			c-37.36,0-69.997-8.586-78.829-20.122l-0.127-1.313c0.002-0.204,0-0.41-0.019-0.602c0-0.589,0.096-1.171,0.266-1.782
			c1.375-4.543,7.742-9.238,18.009-13.14"/>
		<g>
			
				<path fill="#F8B133" stroke="#000000" stroke-width="8" stroke-linecap="round" stroke-linejoin="round" stroke-miterlimit="10" d="
				M261.896,163.58c-12.864-7.233-37.665-13.083-69.274-13.083c-32.002,0-57.039,5.994-69.763,13.351
				c14.438,7.634,40.438,12.747,69.263,12.747C221.286,176.595,247.563,171.365,261.896,163.58z"/>
		</g>
		
			<polygon fill="#FCEA0D" stroke="#010101" stroke-width="8" stroke-linecap="round" stroke-linejoin="round" stroke-miterlimit="10" points="
			127.913,274.293 127.913,234.969 147.548,220.703 167.184,234.969 167.184,274.293 		"/>
		<path fill="none" stroke="#010101" stroke-width="8" stroke-linecap="round" stroke-linejoin="round" stroke-miterlimit="10" d="
			M147.714,220.703v-31.407c0,0-1.517-15.153,13.492-15.153"/>
	</g>
</g>
</svg>
