<?xml version="1.0" encoding="utf-8"?>
<!-- Generator: Adobe Illustrator 16.0.0, SVG Export Plug-In . SVG Version: 6.00 Build 0)  -->
<!DOCTYPE svg PUBLIC "-//W3C//DTD SVG 1.1//EN" "http://www.w3.org/Graphics/SVG/1.1/DTD/svg11.dtd">
<svg version="1.1" xmlns="http://www.w3.org/2000/svg" xmlns:xlink="http://www.w3.org/1999/xlink" x="0px" y="0px"
	 width="453.543px" height="453.543px" viewBox="0 0 453.543 453.543" enable-background="new 0 0 453.543 453.543"
	 xml:space="preserve">
<g id="kvadrat">
	<rect y="-453.543" fill="none" width="453.543" height="453.543"/>
	<rect x="453.543" y="-453.543" fill="none" width="453.543" height="453.543"/>
</g>
<g id="Layer_1">
</g>
<g id="Layer_2">
	<g id="rdeÄa7bela">
	</g>
	<g>
		
			<path fill="#008D36" stroke="#000000" stroke-width="8" stroke-linecap="round" stroke-linejoin="round" stroke-miterlimit="10" d="
			M244.766,153.315c0,0,0.324,13.555,8.715,22.591c8.393,9.033,17.102,21.785,17.268,45.664
			c0.162,23.881,0.324,173.316,0.324,173.316v1.293c-0.006,8.789-20.061,15.914-44.799,15.914s-44.791-7.125-44.791-15.905v-1.291
			c0,0,0.162-149.434,0.318-173.318c0.164-23.883,8.877-36.631,17.268-45.666c8.389-9.033,8.717-22.588,8.717-22.588l-0.01-80.828
			c-0.006-3.623,8.275-6.564,18.494-6.564c10.213,0,18.492,2.941,18.492,6.564L244.766,153.315z"/>
		<g>
			<path d="M212.688,69.675c-2.635,0.895-4.504,2.146-4.708,3.828h-0.019c0.001,0.039,0.004,0.079,0.008,0.117
				c-0.004,0.04-0.007,0.08-0.008,0.121h0.019c0.254,2.05,2.985,3.459,6.559,4.363L212.688,69.675z"/>
			<path d="M245.023,73.497h-0.02c-0.207-1.676-2.069-2.924-4.693-3.817l-1.336,8.435l0.024-0.156
				c3.303-0.908,5.77-2.278,6.005-4.225h0.02c-0.002-0.039-0.006-0.078-0.009-0.117C245.018,73.578,245.021,73.538,245.023,73.497z"
				/>
		</g>
		
			<path fill="#925F36" stroke="#000000" stroke-width="8" stroke-linecap="round" stroke-linejoin="round" stroke-miterlimit="10" d="
			M210.494,41.45l4.045,36.654l0.002,0.012h0.042c3.676,0.923,8.233,1.313,11.909,1.313s8.233-0.39,11.91-1.313h0.572l1.336-8.435
			l2.472-28.231H210.494z"/>
	</g>
</g>
</svg>
