<?xml version="1.0" encoding="utf-8"?>
<!-- Generator: Adobe Illustrator 16.0.0, SVG Export Plug-In . SVG Version: 6.00 Build 0)  -->
<!DOCTYPE svg PUBLIC "-//W3C//DTD SVG 1.1//EN" "http://www.w3.org/Graphics/SVG/1.1/DTD/svg11.dtd">
<svg version="1.1" xmlns="http://www.w3.org/2000/svg" xmlns:xlink="http://www.w3.org/1999/xlink" x="0px" y="0px"
	 width="453.543px" height="453.543px" viewBox="0 0 453.543 453.543" enable-background="new 0 0 453.543 453.543"
	 xml:space="preserve">
<g id="kvadrat" display="none">
</g>
<g id="color">
	<g>
		<path fill="none" stroke="#000000" stroke-width="8" stroke-linecap="round" stroke-linejoin="round" stroke-miterlimit="10" d="
			M239.219,174.264c0,0-31.446,38.159,1.553,106.217s16.583,111.056,9.042,120.056"/>
		
			<path fill="#CB78A6" stroke="#000000" stroke-width="8" stroke-linecap="round" stroke-linejoin="round" stroke-miterlimit="10" d="
			M226.772,209.764c99.227-46.906,75.773-147.036,8.119-156.057c0,0-10.804-0.699-8.255-0.699c2.55,0-7.982,0.699-7.982,0.699
			C150.999,62.728,127.545,162.857,226.772,209.764"/>
		
			<polygon fill="#CB78A6" stroke="#000000" stroke-width="8" stroke-linecap="round" stroke-linejoin="round" stroke-miterlimit="10" points="
			222.542,207.52 217.73,217.67 235.813,217.67 231.002,207.52 		"/>
		<path fill="none" stroke="#000000" stroke-width="8" stroke-linecap="round" stroke-linejoin="round" stroke-miterlimit="10" d="
			M238.869,69.913c15.05,1.399,39.354,18.2,38.85,46.899"/>
	</g>
	<g id="rdeča7bela">
	</g>
</g>
<g id="cb" display="none">
	<g display="inline">
		<g>
			<path fill="none" stroke="#000000" stroke-width="8" stroke-linecap="round" stroke-linejoin="round" stroke-miterlimit="10" d="
				M225.757,217.67c-0.573,16.572,2.813,37.645,15.015,62.811c32.999,68.058,16.583,111.056,9.042,120.056"/>
			<path fill="none" stroke="#000000" stroke-width="8" stroke-linecap="round" stroke-linejoin="round" stroke-miterlimit="10" d="
				M231.067,207.657c94.227-47.729,70.482-145.063,3.823-153.95c0,0-6.53-0.423-8.237-0.611"/>
			<path fill="none" stroke="#000000" stroke-width="8" stroke-linecap="round" stroke-linejoin="round" stroke-miterlimit="10" d="
				M226.653,53.096c-1.634,0.188-8,0.611-8,0.611c-66.659,8.888-90.403,106.222,3.823,153.95"/>
			<path fill="none" stroke="#000000" stroke-width="8" stroke-linecap="round" stroke-linejoin="round" stroke-miterlimit="10" d="
				M226.653,53.096c0.467-0.054,0.55-0.088-0.018-0.088C226.069,53.008,226.165,53.042,226.653,53.096"/>
			
				<polyline fill="none" stroke="#000000" stroke-width="8" stroke-linecap="round" stroke-linejoin="round" stroke-miterlimit="10" points="
				231.067,207.657 235.813,217.67 225.757,217.67 			"/>
			
				<polyline fill="none" stroke="#000000" stroke-width="8" stroke-linecap="round" stroke-linejoin="round" stroke-miterlimit="10" points="
				231.067,207.657 231.002,207.52 226.639,207.52 			"/>
			
				<polyline fill="none" stroke="#000000" stroke-width="8" stroke-linecap="round" stroke-linejoin="round" stroke-miterlimit="10" points="
				222.477,207.657 217.73,217.67 225.757,217.67 			"/>
			
				<polyline fill="none" stroke="#000000" stroke-width="8" stroke-linecap="round" stroke-linejoin="round" stroke-miterlimit="10" points="
				222.477,207.657 222.542,207.52 226.639,207.52 			"/>
		</g>
		<path fill="none" stroke="#000000" stroke-width="8" stroke-linecap="round" stroke-linejoin="round" stroke-miterlimit="10" d="
			M238.869,69.913c15.05,1.399,39.354,18.2,38.85,46.899"/>
	</g>
	<g id="rdeča7bela_copy" display="inline">
	</g>
</g>
<g id="pivot">
	<circle fill="none" cx="257.461" cy="382.427" r="14.133"/>
</g>
</svg>
