<?xml version="1.0" encoding="utf-8"?>
<!-- Generator: Adobe Illustrator 16.0.0, SVG Export Plug-In . SVG Version: 6.00 Build 0)  -->
<!DOCTYPE svg PUBLIC "-//W3C//DTD SVG 1.1//EN" "http://www.w3.org/Graphics/SVG/1.1/DTD/svg11.dtd">
<svg version="1.1" xmlns="http://www.w3.org/2000/svg" xmlns:xlink="http://www.w3.org/1999/xlink" x="0px" y="0px"
	 width="453.543px" height="453.543px" viewBox="0 0 453.543 453.543" enable-background="new 0 0 453.543 453.543"
	 xml:space="preserve">
<g id="kvadrat" display="none">
</g>
<g id="color">
	<g id="rdeča7bela">
	</g>
	<g>
		
			<rect x="128.977" y="168.784" fill="#57B2E5" stroke="#000000" stroke-width="8" stroke-linecap="round" stroke-linejoin="round" stroke-miterlimit="10" width="195.591" height="195.591"/>
		
			<path fill="#00497E" stroke="#000000" stroke-width="8" stroke-linecap="round" stroke-linejoin="round" stroke-miterlimit="10" d="
			M337.635,206.308c0,4.683-3.796,8.477-8.476,8.477H124.384c-4.68,0-8.476-3.794-8.476-8.477V163.46
			c0-4.682,3.795-8.477,8.476-8.477h204.774c4.68,0,8.476,3.795,8.476,8.477V206.308z"/>
		
			<path fill="#E20613" stroke="#000000" stroke-width="8" stroke-linecap="round" stroke-linejoin="round" stroke-miterlimit="10" d="
			M298.353,102.097c-7.473-8.578-15.928-12.928-25.13-12.928c-19.54,0-36.26,20.55-46.452,36.855
			c-10.191-16.306-26.912-36.855-46.451-36.855c-9.202,0-17.658,4.35-25.13,12.928c-10.312,11.836-9.422,21.399-6.859,27.336
			c4.885,11.317,19.974,19.149,46.128,23.943c7.735,1.419,15.2,2.339,21.199,2.929v58.479h22.227v-58.479
			c5.999-0.591,13.463-1.511,21.198-2.929c26.155-4.794,41.243-12.626,46.128-23.943
			C307.775,123.496,308.665,113.933,298.353,102.097z M168.197,113.428c15.033-15.032,37.229,10.461,46.155,25.48
			C190.422,136.307,153.164,128.461,168.197,113.428z M239.337,138.908c8.926-15.02,31.122-40.513,46.155-25.48
			C300.525,128.461,263.267,136.307,239.337,138.908z"/>
	</g>
</g>
<g id="cb" display="none">
	<g id="rdeča7bela_copy" display="inline">
	</g>
	<g display="inline">
		
			<polyline fill="none" stroke="#000000" stroke-width="8" stroke-linecap="round" stroke-linejoin="round" stroke-miterlimit="10" points="
			128.977,214.784 128.977,364.375 324.567,364.375 324.567,214.784 		"/>
		
			<line fill="none" stroke="#000000" stroke-width="8" stroke-linecap="round" stroke-linejoin="round" stroke-miterlimit="10" x1="237.886" y1="214.784" x2="324.567" y2="214.784"/>
		
			<line fill="none" stroke="#000000" stroke-width="8" stroke-linecap="round" stroke-linejoin="round" stroke-miterlimit="10" x1="128.977" y1="214.784" x2="215.659" y2="214.784"/>
		<path fill="none" stroke="#000000" stroke-width="8" stroke-linecap="round" stroke-linejoin="round" stroke-miterlimit="10" d="
			M204.508,154.983h-80.124c-4.68,0-8.476,3.795-8.476,8.477v42.848c0,4.683,3.795,8.477,8.476,8.477h4.592"/>
		<path fill="none" stroke="#000000" stroke-width="8" stroke-linecap="round" stroke-linejoin="round" stroke-miterlimit="10" d="
			M324.567,214.784h4.591c4.68,0,8.476-3.794,8.476-8.477V163.46c0-4.682-3.796-8.477-8.476-8.477h-80.128"/>
		<path fill="none" stroke="#000000" stroke-width="8" stroke-linecap="round" stroke-linejoin="round" stroke-miterlimit="10" d="
			M214.352,138.908c-8.927-15.02-31.122-40.513-46.155-25.48C153.164,128.461,190.422,136.307,214.352,138.908z"/>
		<path fill="none" stroke="#000000" stroke-width="8" stroke-linecap="round" stroke-linejoin="round" stroke-miterlimit="10" d="
			M204.508,154.983c4.029,0.56,7.821,0.994,11.151,1.321v58.479"/>
		<path fill="none" stroke="#000000" stroke-width="8" stroke-linecap="round" stroke-linejoin="round" stroke-miterlimit="10" d="
			M237.886,214.784v-58.479c3.329-0.328,7.118-0.762,11.145-1.321"/>
		<path fill="none" stroke="#000000" stroke-width="8" stroke-linecap="round" stroke-linejoin="round" stroke-miterlimit="10" d="
			M204.508,154.983c-3.229-0.449-6.607-0.976-10.048-1.607c-26.154-4.794-41.243-12.626-46.128-23.943
			c-2.563-5.937-3.453-15.5,6.859-27.336c7.473-8.578,15.928-12.928,25.13-12.928c19.539,0,36.26,20.55,46.451,36.855
			c10.192-16.306,26.912-36.855,46.452-36.855c9.201,0,17.657,4.35,25.13,12.928c10.312,11.836,9.422,21.399,6.859,27.336
			c-4.885,11.317-19.974,19.149-46.128,23.943c-3.443,0.631-6.822,1.159-10.053,1.607"/>
		<path fill="none" stroke="#000000" stroke-width="8" stroke-linecap="round" stroke-linejoin="round" stroke-miterlimit="10" d="
			M239.337,138.908c23.93-2.602,61.188-10.447,46.155-25.48C270.459,98.396,248.263,123.889,239.337,138.908z"/>
		
			<line fill="none" stroke="#000000" stroke-width="8" stroke-linecap="round" stroke-linejoin="round" stroke-miterlimit="10" x1="237.886" y1="214.784" x2="215.659" y2="214.784"/>
	</g>
</g>
<g id="pivot">
	<circle fill="none" cx="223.679" cy="362.172" r="14.133"/>
</g>
</svg>
