<?xml version="1.0" encoding="utf-8"?>
<!-- Generator: Adobe Illustrator 16.0.0, SVG Export Plug-In . SVG Version: 6.00 Build 0)  -->
<!DOCTYPE svg PUBLIC "-//W3C//DTD SVG 1.1//EN" "http://www.w3.org/Graphics/SVG/1.1/DTD/svg11.dtd">
<svg version="1.1" xmlns="http://www.w3.org/2000/svg" xmlns:xlink="http://www.w3.org/1999/xlink" x="0px" y="0px"
	 width="453.543px" height="453.543px" viewBox="0 0 453.543 453.543" enable-background="new 0 0 453.543 453.543"
	 xml:space="preserve">
<g id="kvadrat" display="none">
</g>
<g id="color">
	<g id="rdeča7bela">
	</g>
	<g>
		
			<path fill="#7E4E24" stroke="#000000" stroke-width="8" stroke-linecap="round" stroke-linejoin="round" stroke-miterlimit="10" d="
			M324.072,342.141L227.197,94.487l-0.425-1.087l-0.425,1.087l-96.875,247.653c0,0,31.369,16.645,75.332,18.237l-0.08,38.128h21.623
			h0.85h21.623l-0.08-38.128C292.703,358.785,324.072,342.141,324.072,342.141z"/>
		
			<path fill="#39A935" stroke="#000000" stroke-width="8" stroke-linecap="round" stroke-linejoin="round" stroke-miterlimit="10" d="
			M324.072,341.564L227.197,93.911l-0.425-1.087l-0.425,1.087l-96.875,247.653c0,0,31.369,16.645,75.332,18.237h43.936
			C292.703,358.209,324.072,341.564,324.072,341.564z"/>
		
			<path fill="#39A935" stroke="#000000" stroke-width="8" stroke-linecap="round" stroke-linejoin="round" stroke-miterlimit="10" d="
			M304.609,282.033L227.112,83.917l-0.34-0.87l-0.34,0.87l-77.497,198.116c0,0,25.094,13.314,60.264,14.589h35.146
			C279.515,295.348,304.609,282.033,304.609,282.033z"/>
		
			<path fill="#39A935" stroke="#000000" stroke-width="8" stroke-linecap="round" stroke-linejoin="round" stroke-miterlimit="10" d="
			M279.93,200.447L227.003,82.781l-0.231-0.517l-0.231,0.517l-52.927,117.666c0,0,17.138,7.908,41.156,8.665h24.003
			C262.792,208.355,279.93,200.447,279.93,200.447z"/>
		
			<polygon fill="#FFCF00" stroke="#000000" stroke-width="8" stroke-linecap="round" stroke-linejoin="round" stroke-miterlimit="10" points="
			226.772,55.037 234.822,71.349 252.824,73.965 239.797,86.662 242.873,104.59 226.772,96.125 210.671,104.59 213.747,86.662 
			200.72,73.965 218.722,71.349 		"/>
	</g>
</g>
<g id="cb" display="none">
	<g id="rdeča7bela_copy" display="inline">
	</g>
	<g display="inline">
		<path fill="none" stroke="#000000" stroke-width="8" stroke-linecap="round" stroke-linejoin="round" stroke-miterlimit="10" d="
			M323.884,341.662l0.188,0.479c0,0-31.369,16.645-75.332,18.237l0.08,38.128h-21.623h-0.85h-21.623l0.08-38.128
			c-43.963-1.593-75.332-18.237-75.332-18.237l0.188-0.479"/>
		
			<line fill="none" stroke="#000000" stroke-width="8" stroke-linecap="round" stroke-linejoin="round" stroke-miterlimit="10" x1="323.884" y1="341.662" x2="301.197" y2="283.664"/>
		
			<line fill="none" stroke="#000000" stroke-width="8" stroke-linecap="round" stroke-linejoin="round" stroke-miterlimit="10" x1="152.347" y1="283.664" x2="129.66" y2="341.662"/>
		<path fill="none" stroke="#000000" stroke-width="8" stroke-linecap="round" stroke-linejoin="round" stroke-miterlimit="10" d="
			M152.155,283.577l-22.683,57.988c0,0,0.077,0.04,0.188,0.097"/>
		<path fill="none" stroke="#000000" stroke-width="8" stroke-linecap="round" stroke-linejoin="round" stroke-miterlimit="10" d="
			M323.884,341.662c-2.509,1.294-33.041,16.615-75.145,18.14h-43.936c-42.104-1.525-72.635-16.846-75.145-18.14"/>
		<path fill="none" stroke="#000000" stroke-width="8" stroke-linecap="round" stroke-linejoin="round" stroke-miterlimit="10" d="
			M323.884,341.662c0.111-0.057,0.188-0.097,0.188-0.097l-22.683-57.988"/>
		<path fill="none" stroke="#000000" stroke-width="8" stroke-linecap="round" stroke-linejoin="round" stroke-miterlimit="10" d="
			M301.389,283.577c2.092-0.947,3.22-1.543,3.22-1.543l-30.972-79.178"/>
		<path fill="none" stroke="#000000" stroke-width="8" stroke-linecap="round" stroke-linejoin="round" stroke-miterlimit="10" d="
			M301.197,283.664c0.068-0.031,0.125-0.058,0.191-0.087"/>
		<path fill="none" stroke="#000000" stroke-width="8" stroke-linecap="round" stroke-linejoin="round" stroke-miterlimit="10" d="
			M301.197,283.664c-7.988,3.594-29.334,11.961-56.852,12.958h-35.146c-27.518-0.997-48.864-9.364-56.852-12.958"/>
		<path fill="none" stroke="#000000" stroke-width="8" stroke-linecap="round" stroke-linejoin="round" stroke-miterlimit="10" d="
			M152.155,283.577c0.066,0.03,0.124,0.057,0.191,0.087"/>
		<path fill="none" stroke="#000000" stroke-width="8" stroke-linecap="round" stroke-linejoin="round" stroke-miterlimit="10" d="
			M152.155,283.577c-2.092-0.947-3.22-1.543-3.22-1.543l30.972-79.178"/>
		<path fill="none" stroke="#000000" stroke-width="8" stroke-linecap="round" stroke-linejoin="round" stroke-miterlimit="10" d="
			M270.037,204.004c-7.342,2.208-18.296,4.7-31.264,5.108H214.77c-12.967-0.409-23.921-2.901-31.263-5.108"/>
		<path fill="none" stroke="#000000" stroke-width="8" stroke-linecap="round" stroke-linejoin="round" stroke-miterlimit="10" d="
			M270.037,204.004c0.068-0.021,0.134-0.041,0.201-0.061"/>
		<path fill="none" stroke="#000000" stroke-width="8" stroke-linecap="round" stroke-linejoin="round" stroke-miterlimit="10" d="
			M273.637,202.855c-1.022,0.346-2.157,0.712-3.399,1.088"/>
		<path fill="none" stroke="#000000" stroke-width="8" stroke-linecap="round" stroke-linejoin="round" stroke-miterlimit="10" d="
			M218.608,100.417l-44.994,100.03c0,0,2.268,1.044,6.293,2.408"/>
		<path fill="none" stroke="#000000" stroke-width="8" stroke-linecap="round" stroke-linejoin="round" stroke-miterlimit="10" d="
			M273.637,202.855c4.026-1.364,6.293-2.408,6.293-2.408l-44.994-100.03"/>
		<path fill="none" stroke="#000000" stroke-width="8" stroke-linecap="round" stroke-linejoin="round" stroke-miterlimit="10" d="
			M183.507,204.004c-0.068-0.021-0.134-0.041-0.201-0.061"/>
		<path fill="none" stroke="#000000" stroke-width="8" stroke-linecap="round" stroke-linejoin="round" stroke-miterlimit="10" d="
			M179.907,202.855c1.022,0.346,2.157,0.712,3.399,1.088"/>
		
			<polyline fill="none" stroke="#000000" stroke-width="8" stroke-linecap="round" stroke-linejoin="round" stroke-miterlimit="10" points="
			234.936,100.417 242.873,104.59 239.797,86.662 252.824,73.965 234.822,71.349 226.772,55.037 218.722,71.349 200.72,73.965 
			213.747,86.662 210.671,104.59 218.608,100.417 		"/>
		
			<polyline fill="none" stroke="#000000" stroke-width="8" stroke-linecap="round" stroke-linejoin="round" stroke-miterlimit="10" points="
			234.936,100.417 226.772,96.125 218.608,100.417 		"/>
	</g>
</g>
<g id="pivot">
	<circle fill="none" cx="229.263" cy="398.341" r="14.133"/>
</g>
</svg>
