<?xml version="1.0" encoding="utf-8"?>
<!-- Generator: Adobe Illustrator 16.0.0, SVG Export Plug-In . SVG Version: 6.00 Build 0)  -->
<!DOCTYPE svg PUBLIC "-//W3C//DTD SVG 1.1//EN" "http://www.w3.org/Graphics/SVG/1.1/DTD/svg11.dtd">
<svg version="1.1" xmlns="http://www.w3.org/2000/svg" xmlns:xlink="http://www.w3.org/1999/xlink" x="0px" y="0px"
	 width="453.543px" height="453.543px" viewBox="0 0 453.543 453.543" enable-background="new 0 0 453.543 453.543"
	 xml:space="preserve">
<g id="kvadrat" display="none">
</g>
<g id="color">
	<g>
		
			<path fill="#7E4E24" stroke="#000000" stroke-width="8" stroke-linecap="round" stroke-linejoin="round" stroke-miterlimit="10" d="
			M324.225,207.045c0,0-35.19,113.746-35.19,131.307s-124.525,17.562-124.525,0s-35.19-131.307-35.19-131.307"/>
		
			<path fill="#57B2E5" stroke="#000000" stroke-width="8" stroke-linecap="round" stroke-linejoin="round" stroke-miterlimit="10" d="
			M324.225,207.045c0,0-35.19,113.746-35.19,131.307s-124.525,17.562-124.525,0s-35.19-131.307-35.19-131.307"/>
		
			<ellipse fill="#7E4E24" stroke="#000000" stroke-width="8" stroke-linecap="round" stroke-linejoin="round" stroke-miterlimit="10" cx="226.771" cy="207.045" rx="97.453" ry="31.798"/>
		
			<path fill="#FFFFFF" stroke="#000000" stroke-width="8" stroke-linecap="round" stroke-linejoin="round" stroke-miterlimit="10" d="
			M279.851,161.783c-1.405,0-3.232-0.419-5.357-1.154c0.967-2.48,1.503-5.176,1.503-7.998c0-12.174-9.869-22.044-22.043-22.044
			c-1.775,0-3.5,0.216-5.154,0.613c0.005-0.204,0.015-0.407,0.015-0.613c0-12.174-9.869-22.043-22.043-22.043
			c-12.175,0-22.044,9.869-22.044,22.043c0,0.206,0.01,0.409,0.016,0.613c-1.654-0.397-3.378-0.613-5.155-0.613
			c-12.174,0-22.043,9.87-22.043,22.044c0,2.822,0.536,5.518,1.503,7.998c-2.125,0.735-3.952,1.154-5.357,1.154
			c-12.174,0-22.043,9.869-22.043,22.044c0,12.028,3.362,34.135,75.123,34.664c71.76-0.528,75.122-22.635,75.122-34.664
			C301.894,171.652,292.025,161.783,279.851,161.783z"/>
		
			<circle fill="#E20613" stroke="#000000" stroke-width="8" stroke-linecap="round" stroke-linejoin="round" stroke-miterlimit="10" cx="194.827" cy="126.946" r="17.922"/>
		<path fill="none" stroke="#000000" stroke-width="8" stroke-linecap="round" stroke-linejoin="round" stroke-miterlimit="10" d="
			M192.062,121.184c0,0-7.563-18.139,9.515-39.163"/>
		
			<path fill="#7E4E24" stroke="#000000" stroke-width="8" stroke-linecap="round" stroke-linejoin="round" stroke-miterlimit="10" d="
			M129.318,207.045"/>
		
			<path fill="#FFFFFF" stroke="#000000" stroke-width="8" stroke-linecap="round" stroke-linejoin="round" stroke-miterlimit="10" d="
			M176.318,161.614c0,0,31.61,0.812,33.829,32.977"/>
		
			<path fill="#FFFFFF" stroke="#000000" stroke-width="8" stroke-linecap="round" stroke-linejoin="round" stroke-miterlimit="10" d="
			M227.944,154.815c0,0,4.462-25.707,27.725-24.058"/>
		
			<line fill="none" stroke="#000000" stroke-width="8" stroke-linecap="round" stroke-linejoin="round" stroke-miterlimit="10" x1="170.374" y1="235.052" x2="191.016" y2="349.362"/>
		
			<line fill="none" stroke="#000000" stroke-width="8" stroke-linecap="round" stroke-linejoin="round" stroke-miterlimit="10" x1="204.248" y1="242.241" x2="212.753" y2="346.644"/>
		
			<line fill="none" stroke="#000000" stroke-width="8" stroke-linecap="round" stroke-linejoin="round" stroke-miterlimit="10" x1="238.113" y1="242.241" x2="237.503" y2="351.345"/>
		
			<line fill="none" stroke="#000000" stroke-width="8" stroke-linecap="round" stroke-linejoin="round" stroke-miterlimit="10" x1="277.244" y1="238.843" x2="262.547" y2="346.644"/>
	</g>
	<g id="rdeča7bela">
	</g>
</g>
<g id="cb" display="none">
	<g display="inline">
		<path fill="none" stroke="#000000" stroke-width="8" stroke-linecap="round" stroke-linejoin="round" stroke-miterlimit="10" d="
			M192.062,121.184c0,0-7.563-18.139,9.515-39.163"/>
		<path fill="none" stroke="#000000" stroke-width="8" stroke-linecap="round" stroke-linejoin="round" stroke-miterlimit="10" d="
			M129.318,207.045"/>
		<g>
			<path fill="none" stroke="#000000" stroke-width="8" stroke-linecap="round" stroke-linejoin="round" stroke-miterlimit="10" d="
				M181.955,139.402c-1.305-1.349-2.428-2.917-3.285-4.702c-4.283-8.923-0.521-19.628,8.402-23.912
				c8.074-3.875,17.59-1.149,22.504,6.012"/>
			<path fill="none" stroke="#000000" stroke-width="8" stroke-linecap="round" stroke-linejoin="round" stroke-miterlimit="10" d="
				M181.955,139.402c5.219,5.394,13.489,7.126,20.627,3.7c8.923-4.283,12.685-14.989,8.401-23.912
				c-0.408-0.85-0.89-1.636-1.408-2.39"/>
			<path fill="none" stroke="#000000" stroke-width="8" stroke-linecap="round" stroke-linejoin="round" stroke-miterlimit="10" d="
				M151.737,186.755c-14,5.506-22.418,12.577-22.418,20.29c0,17.562,43.631,31.798,97.453,31.798s97.453-14.236,97.453-31.798
				c0-7.713-8.419-14.785-22.42-20.291"/>
			<path fill="none" stroke="#000000" stroke-width="8" stroke-linecap="round" stroke-linejoin="round" stroke-miterlimit="10" d="
				M181.955,139.402c-2.769,3.685-4.41,8.265-4.41,13.228c0,2.822,0.536,5.518,1.503,7.998c-2.125,0.735-3.952,1.154-5.357,1.154
				c-12.174,0-22.043,9.869-22.043,22.044c0,0.921,0.02,1.902,0.088,2.928"/>
			<path fill="none" stroke="#000000" stroke-width="8" stroke-linecap="round" stroke-linejoin="round" stroke-miterlimit="10" d="
				M301.805,186.754c0.068-1.026,0.089-2.006,0.089-2.928c0-12.175-9.869-22.044-22.042-22.044c-1.405,0-3.232-0.419-5.357-1.154
				c0.967-2.48,1.503-5.176,1.503-7.998c0-12.174-9.869-22.044-22.043-22.044c-1.775,0-3.5,0.216-5.154,0.613
				c0.005-0.204,0.015-0.407,0.015-0.613c0-12.174-9.869-22.043-22.043-22.043c-6.957,0-13.155,3.225-17.195,8.257"/>
			<path fill="none" stroke="#000000" stroke-width="8" stroke-linecap="round" stroke-linejoin="round" stroke-miterlimit="10" d="
				M301.805,186.754c-0.828,12.361-8.77,31.248-75.033,31.736c-66.264-0.488-74.206-19.375-75.035-31.735"/>
			<path fill="none" stroke="#000000" stroke-width="8" stroke-linecap="round" stroke-linejoin="round" stroke-miterlimit="10" d="
				M176.318,161.614c0,0,17.979,0.471,27.77,14.501"/>
			<path fill="none" stroke="#000000" stroke-width="8" stroke-linecap="round" stroke-linejoin="round" stroke-miterlimit="10" d="
				M204.088,176.115c3.189,4.57,5.514,10.572,6.059,18.475"/>
		</g>
		<path fill="none" stroke="#000000" stroke-width="8" stroke-linecap="round" stroke-linejoin="round" stroke-miterlimit="10" d="
			M227.944,154.815c0,0,4.462-25.707,27.725-24.058"/>
		
			<line fill="none" stroke="#000000" stroke-width="8" stroke-linecap="round" stroke-linejoin="round" stroke-miterlimit="10" x1="170.374" y1="235.052" x2="191.016" y2="349.362"/>
		
			<line fill="none" stroke="#000000" stroke-width="8" stroke-linecap="round" stroke-linejoin="round" stroke-miterlimit="10" x1="204.248" y1="242.241" x2="212.753" y2="346.644"/>
		
			<line fill="none" stroke="#000000" stroke-width="8" stroke-linecap="round" stroke-linejoin="round" stroke-miterlimit="10" x1="238.113" y1="242.241" x2="237.503" y2="351.345"/>
		
			<line fill="none" stroke="#000000" stroke-width="8" stroke-linecap="round" stroke-linejoin="round" stroke-miterlimit="10" x1="277.244" y1="238.843" x2="262.547" y2="346.644"/>
		<path fill="none" stroke="#000000" stroke-width="8" stroke-linecap="round" stroke-linejoin="round" stroke-miterlimit="10" d="
			M324.225,207.045c0,0-35.19,113.746-35.19,131.307s-124.525,17.562-124.525,0s-35.19-131.307-35.19-131.307"/>
	</g>
	<g id="rdeča7bela_copy" display="inline">
	</g>
</g>
<g id="pivot">
	<circle fill="none" cx="237.714" cy="378.087" r="14.133"/>
</g>
</svg>
