<?xml version="1.0" encoding="utf-8"?>
<!-- Generator: Adobe Illustrator 16.0.0, SVG Export Plug-In . SVG Version: 6.00 Build 0)  -->
<!DOCTYPE svg PUBLIC "-//W3C//DTD SVG 1.1//EN" "http://www.w3.org/Graphics/SVG/1.1/DTD/svg11.dtd">
<svg version="1.1" xmlns="http://www.w3.org/2000/svg" xmlns:xlink="http://www.w3.org/1999/xlink" x="0px" y="0px"
	 width="453.543px" height="453.543px" viewBox="0 0 453.543 453.543" enable-background="new 0 0 453.543 453.543"
	 xml:space="preserve">
<g id="kvadrat">
</g>
<g id="bg" display="none">
	<rect x="-2873.904" y="-5847.458" display="inline" width="15266.867" height="13678.951"/>
</g>
<g id="barvno" display="none">
	<g id="rdeča7bela" display="inline">
	</g>
	<g display="inline">
		
			<path fill="#57B2E5" stroke="#000000" stroke-width="8" stroke-linecap="round" stroke-linejoin="round" stroke-miterlimit="10" d="
			M128.877,264.402c-8.376-8.539-12.635-26.188-12.388-23.937c-7.002-5.403-17.052-5.022-23.544,1.345
			c-7.098,6.963-7.206,18.359-0.245,25.456c1.263,1.286,2.7,2.263,4.202,3.091c-3.071,6.6-1.977,14.672,3.422,20.174
			c5.472,5.58,13.658,6.773,20.367,3.681c0.84,1.827,1.944,3.571,3.436,5.092c6.962,7.097,18.357,7.206,25.454,0.244
			c6.223-6.104,7.067-15.615,2.491-22.651C152.479,276.951,135.724,271.382,128.877,264.402z"/>
		
			<path fill="#57B2E5" stroke="#000000" stroke-width="8" stroke-linecap="round" stroke-linejoin="round" stroke-miterlimit="10" d="
			M203.168,189.142c8.377,8.539,12.636,26.188,12.39,23.937c7.002,5.403,17.051,5.022,23.543-1.345
			c7.098-6.963,7.206-18.359,0.245-25.456c-1.263-1.286-2.701-2.263-4.202-3.091c3.072-6.6,1.977-14.672-3.422-20.175
			c-5.473-5.579-13.657-6.772-20.367-3.68c-0.84-1.827-1.944-3.571-3.435-5.092c-6.962-7.097-18.358-7.206-25.454-0.243
			c-6.222,6.104-7.067,15.614-2.491,22.651C179.569,176.593,196.322,182.162,203.168,189.142z"/>
		
			<ellipse transform="matrix(0.7139 -0.7003 0.7003 0.7139 -111.7991 180.6391)" fill="#0073B3" stroke="#000000" stroke-width="8" stroke-linecap="round" stroke-linejoin="round" stroke-miterlimit="10" cx="165.149" cy="227.128" rx="57.636" ry="43.93"/>
		
			<path fill="#00973A" stroke="#000000" stroke-width="8" stroke-linecap="round" stroke-linejoin="round" stroke-miterlimit="10" d="
			M221.589,262.333c-0.151-11.961,8.971-27.658,7.594-25.86c-1.324-8.744-8.851-15.416-17.943-15.302
			c-9.941,0.125-17.897,8.285-17.772,18.226c0.022,1.802,0.387,3.502,0.9,5.139c-6.782,2.646-11.569,9.236-11.473,16.942
			c0.097,7.815,5.188,14.336,12.174,16.738c-0.655,1.901-1.063,3.925-1.036,6.055c0.125,9.94,8.284,17.896,18.225,17.771
			c8.717-0.11,15.9-6.399,17.458-14.647C229.971,287.715,221.712,272.111,221.589,262.333z"/>
		
			<path fill="#00973A" stroke="#000000" stroke-width="8" stroke-linecap="round" stroke-linejoin="round" stroke-miterlimit="10" d="
			M327.296,259.3c0.151,11.961-8.971,27.658-7.592,25.861c1.324,8.744,8.85,15.415,17.942,15.302
			c9.942-0.126,17.898-8.286,17.773-18.226c-0.024-1.803-0.388-3.503-0.9-5.139c6.781-2.646,11.57-9.236,11.472-16.944
			c-0.098-7.815-5.188-14.335-12.174-16.737c0.656-1.901,1.063-3.925,1.037-6.055c-0.126-9.94-8.285-17.896-18.226-17.77
			c-8.715,0.109-15.901,6.397-17.457,14.646C318.917,233.919,327.174,249.523,327.296,259.3z"/>
		
			<ellipse transform="matrix(0.9999 -0.0126 0.0126 0.9999 -3.2617 3.4692)" fill="#009D73" stroke="#000000" stroke-width="8" stroke-linecap="round" stroke-linejoin="round" stroke-miterlimit="10" cx="273.565" cy="260.47" rx="57.636" ry="43.929"/>
	</g>
	
		<rect x="-3384.189" y="-6267.467" display="inline" fill="none" stroke="#000000" stroke-miterlimit="10" width="16736" height="13952"/>
</g>
<g id="sivinsko">
	<g id="rdeča7bela_copy_3">
	</g>
	<g>
		<g>
			<path fill="#9C9C9C" d="M128.877,264.402c-8.376-8.539-12.635-26.188-12.388-23.937c-7.002-5.403-17.052-5.022-23.544,1.345
				c-7.098,6.963-7.206,18.359-0.245,25.456c1.263,1.286,2.7,2.263,4.202,3.091c-3.071,6.6-1.977,14.672,3.422,20.174
				c5.472,5.58,13.658,6.773,20.367,3.681c0.84,1.827,1.944,3.571,3.436,5.092c6.962,7.097,18.357,7.206,25.454,0.244
				c6.223-6.104,7.067-15.615,2.491-22.651C152.479,276.951,135.724,271.382,128.877,264.402z"/>
			<path d="M136.978,308.698c-5.957,0-11.534-2.342-15.706-6.594c-0.882-0.9-1.69-1.899-2.418-2.991
				c-1.881,0.506-3.831,0.767-5.771,0.767c-5.928,0-11.473-2.326-15.614-6.549c-5.525-5.631-7.521-13.857-5.42-21.344
				c-0.807-0.604-1.537-1.242-2.202-1.919c-8.496-8.662-8.361-22.619,0.298-31.114c4.113-4.033,9.548-6.254,15.307-6.254
				c4.363,0,8.676,1.321,12.295,3.745c1.929,0.592,2.589,2.555,3.093,4.053c1.265,3.763,5.116,15.213,10.893,21.104
				c1.996,2.034,7.39,6.207,21.099,11.297c1.522,0.565,2.365,1.351,2.81,2.155c5.434,8.698,4.093,20.138-3.259,27.35
				C148.245,306.462,142.774,308.698,136.978,308.698z M120.692,290.211c0.469,0,0.938,0.083,1.387,0.248
				c0.996,0.368,1.804,1.117,2.248,2.082c0.729,1.586,1.598,2.882,2.657,3.961c2.654,2.706,6.204,4.196,9.995,4.196
				c3.688,0,7.169-1.423,9.802-4.006c4.444-4.359,5.437-11.146,2.563-16.557c-11.042-4.16-19.097-8.625-23.322-12.933
				c-7.052-7.189-11.191-19.476-12.757-24.131c-2.303-1.535-5.042-2.371-7.813-2.371c-3.651,0-7.098,1.408-9.705,3.966
				c-5.511,5.406-5.596,14.288-0.19,19.799c0.849,0.865,1.891,1.624,3.278,2.389c1.842,1.016,2.582,3.284,1.695,5.19
				c-2.451,5.268-1.386,11.571,2.651,15.685c2.625,2.677,6.142,4.151,9.903,4.151c2.035,0,4.087-0.45,5.934-1.302
				C119.547,290.334,120.119,290.211,120.692,290.211z"/>
		</g>
		<g>
			<path fill="#9C9C9C" d="M203.168,189.142c8.377,8.539,12.636,26.188,12.39,23.937c7.002,5.403,17.051,5.022,23.543-1.345
				c7.098-6.963,7.206-18.359,0.245-25.456c-1.263-1.286-2.701-2.263-4.202-3.091c3.072-6.6,1.977-14.672-3.422-20.175
				c-5.473-5.579-13.657-6.772-20.367-3.68c-0.84-1.827-1.944-3.571-3.435-5.092c-6.962-7.097-18.358-7.206-25.454-0.243
				c-6.222,6.104-7.067,15.614-2.491,22.651C179.569,176.593,196.322,182.162,203.168,189.142z"/>
			<path d="M226.596,220.844c-4.363,0-8.676-1.321-12.295-3.745c-1.929-0.592-2.59-2.557-3.094-4.056
				c-1.266-3.763-5.117-15.212-10.894-21.1c-1.997-2.037-7.395-6.212-21.104-11.3c-1.526-0.566-2.368-1.356-2.81-2.163
				c-5.426-8.698-4.082-20.131,3.265-27.339c4.138-4.06,9.609-6.296,15.406-6.296c5.957,0,11.534,2.341,15.705,6.593
				c0.882,0.9,1.69,1.899,2.418,2.991c1.882-0.506,3.832-0.767,5.772-0.767c5.927,0,11.471,2.325,15.613,6.547
				c5.526,5.633,7.521,13.858,5.421,21.346c0.807,0.605,1.537,1.242,2.202,1.919c8.496,8.662,8.362,22.619-0.298,31.114
				C237.79,218.623,232.354,220.844,226.596,220.844z M218.782,210.472c2.303,1.535,5.042,2.372,7.814,2.372
				c3.65,0,7.097-1.408,9.704-3.966c5.51-5.406,5.596-14.288,0.19-19.799c-0.848-0.863-1.89-1.623-3.279-2.389
				c-1.841-1.016-2.581-3.284-1.694-5.19c2.451-5.267,1.386-11.571-2.651-15.686c-2.625-2.676-6.142-4.15-9.902-4.15
				c-2.035,0-4.087,0.45-5.935,1.302c-0.964,0.444-2.066,0.487-3.061,0.119c-0.996-0.368-1.804-1.117-2.248-2.082
				c-0.729-1.586-1.598-2.882-2.656-3.961c-2.654-2.706-6.204-4.195-9.994-4.195c-3.688,0-7.169,1.423-9.803,4.006
				c-4.444,4.359-5.438,11.145-2.563,16.557c11.039,4.157,19.094,8.623,23.321,12.932
				C213.076,193.53,217.217,205.82,218.782,210.472z"/>
		</g>
		<g>
			
				<ellipse transform="matrix(0.7139 -0.7003 0.7003 0.7139 -111.7991 180.6391)" fill="#585858" cx="165.149" cy="227.128" rx="57.636" ry="43.93"/>
			<path d="M151.498,282.243c-12.184,0-22.678-4.133-30.349-11.952c-9.112-9.289-12.949-22.561-10.805-37.372
				c2.086-14.409,9.63-28.617,21.242-40.007c13.54-13.281,30.749-20.899,47.214-20.899c12.184,0,22.678,4.133,30.348,11.952
				c9.112,9.289,12.949,22.561,10.806,37.371c-2.085,14.408-9.629,28.616-21.241,40.006
				C185.174,274.625,167.964,282.243,151.498,282.243z M178.801,180.014c-14.388,0-29.555,6.783-41.612,18.61
				c-10.369,10.171-17.091,22.757-18.927,35.442c-1.778,12.283,1.276,23.158,8.598,30.623c6.132,6.25,14.651,9.554,24.638,9.554
				c14.389,0,29.556-6.783,41.614-18.61c10.368-10.17,17.09-22.757,18.925-35.441c1.778-12.282-1.276-23.158-8.599-30.623
				C197.307,183.318,188.787,180.014,178.801,180.014z"/>
		</g>
		<g>
			<path fill="#5F5F5F" d="M221.589,262.333c-0.151-11.961,8.971-27.658,7.594-25.86c-1.324-8.744-8.851-15.416-17.943-15.302
				c-9.941,0.125-17.897,8.285-17.772,18.226c0.022,1.802,0.387,3.502,0.9,5.139c-6.782,2.646-11.569,9.236-11.473,16.942
				c0.097,7.815,5.188,14.336,12.174,16.738c-0.655,1.901-1.063,3.925-1.036,6.055c0.125,9.94,8.284,17.896,18.225,17.771
				c8.717-0.11,15.9-6.399,17.458-14.647C229.971,287.715,221.712,272.111,221.589,262.333z"/>
			<path d="M212.026,306.044c-11.977,0-21.843-9.745-21.993-21.723c-0.016-1.258,0.091-2.538,0.32-3.831
				c-6.882-3.765-11.359-10.991-11.458-18.963c-0.099-7.89,4.144-15.212,10.837-19.17c-0.165-0.996-0.252-1.962-0.264-2.911
				c-0.074-5.875,2.145-11.429,6.247-15.636c4.103-4.208,9.598-6.565,15.475-6.639l0.28-0.002c10.455,0,19.256,7.217,21.421,17.35
				c0.928,1.756,0.223,3.258-0.586,4.981c-1.687,3.594-6.82,14.53-6.716,22.782c0.036,2.849,1.05,9.593,7.437,22.747
				c0.364,0.75,0.984,2.026,0.542,3.5c-2.087,10.042-10.964,17.382-21.26,17.512L212.026,306.044z M211.47,225.17l-0.18,0.001
				c-3.74,0.047-7.237,1.547-9.848,4.225c-2.611,2.677-4.022,6.211-3.975,9.951c0.015,1.21,0.243,2.479,0.718,3.993
				c0.629,2.007-0.404,4.159-2.363,4.923c-5.412,2.111-8.999,7.402-8.927,13.166c0.073,5.855,3.88,11.082,9.475,13.005
				c1.004,0.345,1.829,1.075,2.294,2.029c0.465,0.954,0.532,2.054,0.187,3.057c-0.57,1.654-0.838,3.191-0.818,4.7
				c0.096,7.623,6.374,13.824,13.994,13.824l0.181-0.001c6.224-0.079,11.633-4.296,13.297-10.194
				c-5.104-10.639-7.838-19.432-7.914-25.465c-0.127-10.072,5.376-21.813,7.463-26.259
				C223.645,229.722,218.076,225.17,211.47,225.17z"/>
		</g>
		<g>
			<path fill="#5F5F5F" d="M327.296,259.3c0.151,11.961-8.971,27.658-7.592,25.861c1.324,8.744,8.85,15.415,17.942,15.302
				c9.942-0.126,17.898-8.286,17.773-18.226c-0.024-1.803-0.388-3.503-0.9-5.139c6.781-2.646,11.57-9.236,11.472-16.944
				c-0.098-7.815-5.188-14.335-12.174-16.737c0.656-1.901,1.063-3.925,1.037-6.055c-0.126-9.94-8.285-17.896-18.226-17.77
				c-8.715,0.109-15.901,6.397-17.457,14.646C318.917,233.919,327.174,249.523,327.296,259.3z"/>
			<path d="M337.419,304.465c-10.454,0-19.256-7.217-21.422-17.35c-0.928-1.756-0.222-3.26,0.587-4.985
				c1.686-3.594,6.817-14.53,6.713-22.779c-0.035-2.85-1.049-9.594-7.436-22.746c-0.362-0.746-0.979-2.016-0.545-3.486
				c2.08-10.049,10.961-17.396,21.262-17.525l0.285-0.002c11.974,0,21.84,9.744,21.991,21.72c0.016,1.26-0.092,2.54-0.32,3.831
				c6.88,3.765,11.357,10.991,11.457,18.961c0.1,7.89-4.143,15.213-10.837,19.172c0.165,0.994,0.252,1.959,0.265,2.908
				c0.153,12.131-9.592,22.125-21.722,22.278L337.419,304.465z M323.835,285.509c1.408,6.403,6.977,10.956,13.584,10.956
				l0.178-0.001c7.719-0.098,13.92-6.457,13.823-14.176c-0.016-1.211-0.244-2.481-0.717-3.994c-0.628-2.006,0.405-4.157,2.363-4.921
				c5.412-2.113,9-7.404,8.927-13.167c-0.073-5.856-3.881-11.082-9.475-13.005c-1.004-0.345-1.829-1.076-2.295-2.03
				s-0.532-2.054-0.186-3.058c0.569-1.65,0.837-3.187,0.818-4.7c-0.096-7.621-6.373-13.821-13.992-13.821l-0.184,0.001
				c-6.225,0.078-11.634,4.295-13.297,10.193c5.104,10.638,7.838,19.432,7.913,25.465
				C331.424,269.321,325.92,281.066,323.835,285.509z"/>
		</g>
		<g>
			
				<ellipse transform="matrix(0.9999 -0.0126 0.0126 0.9999 -3.2617 3.4692)" fill="#696969" cx="273.565" cy="260.47" rx="57.636" ry="43.929"/>
			<path d="M273.147,308.402c-16.055,0-31.21-4.761-42.671-13.405c-11.794-8.895-18.379-20.881-18.542-33.75
				c-0.332-26.428,27.046-48.275,61.03-48.703c16.448-0.222,31.99,4.572,43.693,13.397c11.794,8.895,18.379,20.881,18.541,33.751
				c0.332,26.427-27.045,48.275-61.027,48.702C273.829,308.4,273.487,308.402,273.147,308.402z M273.983,220.539
				c-0.305,0-0.614,0.001-0.92,0.005c-29.573,0.372-53.407,18.586-53.131,40.603c0.276,21.874,24.653,39.65,54.136,39.25
				c29.572-0.372,53.405-18.586,53.128-40.603C326.924,238.148,303.053,220.539,273.983,220.539z"/>
		</g>
	</g>
	<path d="M13352.311,7685.033h-16737v-13953h16737V7685.033z M-3384.189,7684.033h16736l-0.5-13951h-16735.5l0.5,13951H-3384.189z"
		/>
</g>
<g id="linijsko" display="none">
	<g id="rdeča7bela_copy" display="inline">
	</g>
	<g display="inline">
		<path fill="none" stroke="#1C1C1C" stroke-width="8" stroke-linecap="round" stroke-linejoin="round" stroke-miterlimit="10" d="
			M113.821,238.761c-6.717-3.515-15.169-2.546-20.875,3.049c-7.098,6.963-7.206,18.359-0.245,25.456
			c1.263,1.286,2.7,2.263,4.202,3.091c-3.071,6.6-1.977,14.672,3.422,20.174c5.472,5.58,13.658,6.773,20.367,3.681
			c0.84,1.827,1.944,3.571,3.436,5.092c6.962,7.097,18.357,7.206,25.454,0.244c5.84-5.729,6.942-14.458,3.273-21.326"/>
		<path fill="none" stroke="#1C1C1C" stroke-width="8" stroke-linecap="round" stroke-linejoin="round" stroke-miterlimit="10" d="
			M216.521,213.754c6.937,4.668,16.378,4.062,22.58-2.021c7.098-6.963,7.206-18.359,0.245-25.456
			c-1.263-1.286-2.701-2.263-4.202-3.091c3.072-6.6,1.977-14.672-3.422-20.175c-5.473-5.579-13.657-6.772-20.367-3.68
			c-0.84-1.827-1.944-3.571-3.435-5.092c-6.962-7.097-18.358-7.206-25.454-0.243c-6.041,5.926-6.998,15.058-2.86,22.025"/>
		<path fill="none" stroke="#1C1C1C" stroke-width="8" stroke-linecap="round" stroke-linejoin="round" stroke-miterlimit="10" d="
			M152.854,278.221c10.258-0.285,21.23-3.799,31.326-10.331"/>
		<path fill="none" stroke="#1C1C1C" stroke-width="8" stroke-linecap="round" stroke-linejoin="round" stroke-miterlimit="10" d="
			M216.521,213.754c-0.011,2.613-0.248,5.278-0.686,7.965"/>
		<path fill="none" stroke="#1C1C1C" stroke-width="8" stroke-linecap="round" stroke-linejoin="round" stroke-miterlimit="10" d="
			M113.821,238.761c0.586-14.492,7.654-30.327,20.566-42.993c13.459-13.203,30.241-19.997,45.218-19.745"/>
		<path fill="none" stroke="#1C1C1C" stroke-width="8" stroke-linecap="round" stroke-linejoin="round" stroke-miterlimit="10" d="
			M113.821,238.761c-0.445,11.012,2.848,21.25,10.184,28.729c7.408,7.551,17.707,11.042,28.85,10.731"/>
		<path fill="none" stroke="#1C1C1C" stroke-width="8" stroke-linecap="round" stroke-linejoin="round" stroke-miterlimit="10" d="
			M216.521,213.754c0.046-10.347-3.279-19.904-10.227-26.987c-6.926-7.061-16.38-10.571-26.688-10.744"/>
		<path fill="none" stroke="#1C1C1C" stroke-width="8" stroke-linecap="round" stroke-linejoin="round" stroke-miterlimit="10" d="
			M215.835,221.72c5.917,1.488,10.656,5.923,12.598,11.677"/>
		<path fill="none" stroke="#1C1C1C" stroke-width="8" stroke-linecap="round" stroke-linejoin="round" stroke-miterlimit="10" d="
			M215.835,221.72c-1.469-0.37-3.006-0.568-4.595-0.548c-9.941,0.125-17.897,8.285-17.772,18.226c0.022,1.802,0.387,3.502,0.9,5.139
			c-6.782,2.646-11.569,9.236-11.473,16.942c0.028,2.272,0.489,4.429,1.285,6.413"/>
		<path fill="none" stroke="#1C1C1C" stroke-width="8" stroke-linecap="round" stroke-linejoin="round" stroke-miterlimit="10" d="
			M229.364,288.894c-2.097,7.499-8.926,13.045-17.106,13.148c-9.94,0.125-18.1-7.831-18.225-17.771
			c-0.027-2.13,0.381-4.153,1.036-6.055c-4.955-1.704-8.946-5.485-10.889-10.326"/>
		<path fill="none" stroke="#1C1C1C" stroke-width="8" stroke-linecap="round" stroke-linejoin="round" stroke-miterlimit="10" d="
			M319.337,233.532c1.825-7.896,8.83-13.833,17.291-13.939c9.941-0.127,18.1,7.829,18.226,17.77c0.027,2.13-0.381,4.153-1.037,6.055
			c6.986,2.402,12.076,8.922,12.174,16.737c0.098,7.708-4.691,14.298-11.472,16.944c0.512,1.636,0.876,3.336,0.9,5.139
			c0.125,9.939-7.831,18.1-17.773,18.226c-8.687,0.108-15.928-5.981-17.714-14.149"/>
		<path fill="none" stroke="#1C1C1C" stroke-width="8" stroke-linecap="round" stroke-linejoin="round" stroke-miterlimit="10" d="
			M228.433,233.397c-7.935,7.65-12.632,17.325-12.5,27.8c0.134,10.578,5.164,20.218,13.431,27.697"/>
		<path fill="none" stroke="#1C1C1C" stroke-width="8" stroke-linecap="round" stroke-linejoin="round" stroke-miterlimit="10" d="
			M228.433,233.397c10.441-10.067,26.494-16.625,44.58-16.853c18.853-0.237,35.675,6.453,46.324,16.988"/>
		<path fill="none" stroke="#1C1C1C" stroke-width="8" stroke-linecap="round" stroke-linejoin="round" stroke-miterlimit="10" d="
			M319.933,286.314c-10.385,10.762-27.001,17.845-45.813,18.082c-17.951,0.227-34.062-5.829-44.756-15.502"/>
		<path fill="none" stroke="#1C1C1C" stroke-width="8" stroke-linecap="round" stroke-linejoin="round" stroke-miterlimit="10" d="
			M319.337,233.532c7.329,7.25,11.735,16.322,11.86,26.211c0.125,9.921-4.079,19.125-11.264,26.571"/>
	</g>
</g>
<g id="pivot">
	<circle fill="none" cx="222.232" cy="306.219" r="14.133"/>
</g>
</svg>
