<?xml version="1.0" encoding="utf-8"?>
<!-- Generator: Adobe Illustrator 16.0.0, SVG Export Plug-In . SVG Version: 6.00 Build 0)  -->
<!DOCTYPE svg PUBLIC "-//W3C//DTD SVG 1.1//EN" "http://www.w3.org/Graphics/SVG/1.1/DTD/svg11.dtd">
<svg version="1.1" xmlns="http://www.w3.org/2000/svg" xmlns:xlink="http://www.w3.org/1999/xlink" x="0px" y="0px"
	 width="453.543px" height="453.543px" viewBox="0 0 453.543 453.543" enable-background="new 0 0 453.543 453.543"
	 xml:space="preserve">
<g id="kvadrat">
</g>
<g id="bg" display="none">
	<rect x="-1343.195" y="-10439.585" display="inline" width="15266.867" height="13678.951"/>
</g>
<g id="barvno" display="none">
	<g id="rdeča7bela" display="inline">
	</g>
	
		<path display="inline" fill="#7E4E24" stroke="#000000" stroke-width="8" stroke-linecap="round" stroke-linejoin="round" stroke-miterlimit="10" d="
		M222.142,138.142c7.244,24.828,20.612,81.329,14.822,144.502c-0.421,4.686-0.957,9.404-1.604,14.146
		c-0.445,3.232-0.946,6.479-1.494,9.743c-0.431,2.521-1.988,4.314-3.97,4.912c-1.015,0.307-2.155,0.301-3.289-0.1
		c-3.367-1.15-5.561-5.193-4.908-9.018c0.488-2.902,0.939-5.811,1.335-8.713c0.661-4.755,1.193-9.498,1.601-14.192
		c2.128-23.796,1.375-46.745-0.722-67.234c-1.649-16.134-4.141-30.739-6.713-43.042c-5.073-24.188-10.492-39.457-10.619-39.808
		c-0.393-1.091-0.555-2.212-0.519-3.269c0.1-2.637,1.456-4.959,3.69-5.836c3.062-1.24,6.792,0.867,8.168,4.668
		C218.209,125.683,219.872,130.355,222.142,138.142z"/>
	<g display="inline">
		<g>
			
				<circle fill="#BD1622" stroke="#000000" stroke-width="8" stroke-linecap="round" stroke-linejoin="round" stroke-miterlimit="10" cx="156.969" cy="309.979" r="51.853"/>
			
				<circle fill="#BD1622" stroke="#000000" stroke-width="8" stroke-linecap="round" stroke-linejoin="round" stroke-miterlimit="10" cx="296.574" cy="309.979" r="51.853"/>
			
				<path fill="#7E4E24" stroke="#000000" stroke-width="8" stroke-linecap="round" stroke-linejoin="round" stroke-miterlimit="10" d="
				M286.528,284.761c-0.129,0.009-0.27,0.009-0.389,0.009c-3.182,0-5.861-2.46-6.07-5.689c-0.291-4.54-0.77-9.03-1.42-13.47
				c-0.59-4.1-1.34-8.15-2.211-12.16c-9.889-45.5-36.539-85.1-59.459-112.309c-4.131-4.9-8.131-9.393-11.9-13.452
				c-14.641-15.79-25.641-24.929-25.961-25.19c-2.59-2.128-2.969-5.959-0.85-8.56c2.141-2.601,5.971-2.979,8.571-0.85
				c2.33,1.909,35.02,29.08,63.439,71.631c6.48,9.688,12.73,20.179,18.352,31.35c8.43,16.761,15.449,35.04,19.658,54.47
				c0.861,3.939,1.602,7.939,2.201,11.971c0.799,5.189,1.379,10.46,1.719,15.789C292.419,281.649,289.88,284.54,286.528,284.761z"/>
			
				<path fill="#7E4E24" stroke="#000000" stroke-width="8" stroke-linecap="round" stroke-linejoin="round" stroke-miterlimit="10" d="
				M216.979,141.142c-0.25,21.459-3.802,69.548-27.621,118.338c-1.76,3.621-3.64,7.241-5.629,10.852
				c-1.361,2.459-2.781,4.918-4.25,7.379c-1.141,1.9-3.15,2.951-5.221,2.951c-1.061,0-2.15-0.281-3.119-0.871
				c-2.891-1.72-3.82-5.459-2.09-8.34c1.309-2.189,2.58-4.391,3.799-6.6c2.01-3.621,3.891-7.261,5.641-10.891
				c8.92-18.39,14.84-36.799,18.76-53.58c3.09-13.21,4.929-25.409,6.029-35.8c2.141-20.431,1.371-33.859,1.352-34.171
				c-0.061-0.959,0.109-1.89,0.449-2.72c0.859-2.068,2.83-3.589,5.221-3.75c3.289-0.25,6.25,2.321,6.468,5.671
				C216.819,130.3,217.06,134.409,216.979,141.142z"/>
			
				<path fill="#39A935" stroke="#000000" stroke-width="8" stroke-linecap="round" stroke-linejoin="round" stroke-miterlimit="10" d="
				M215.323,121.634c4.078,26.384-2.271,47.643-18.889,63.237c-22.958,21.546-59.203,27.388-75.779,28.946
				c6.324-35.639,17.971-61.625,34.66-77.285C178.612,114.67,205.526,119.034,215.323,121.634z"/>
			<path fill="none" stroke="#000000" stroke-width="6" stroke-linecap="round" stroke-linejoin="round" stroke-miterlimit="10" d="
				M312.136,340.894c0,0,25.004-10.021,14.07-37.671"/>
		</g>
	</g>
	
		<circle display="inline" fill="#BD1622" stroke="#000000" stroke-width="8" stroke-linecap="round" stroke-linejoin="round" stroke-miterlimit="10" cx="221.828" cy="344.514" r="51.853"/>
	
		<rect x="-1853.48" y="-10859.594" display="inline" fill="none" stroke="#000000" stroke-miterlimit="10" width="16736" height="13952"/>
</g>
<g id="sivinsko">
	<g id="rdeča7bela_copy_3">
	</g>
	<g>
		<path fill="#585858" d="M222.142,138.142c7.244,24.828,20.612,81.329,14.822,144.502c-0.421,4.686-0.957,9.404-1.604,14.146
			c-0.445,3.232-0.946,6.479-1.494,9.743c-0.431,2.521-1.988,4.314-3.97,4.912c-1.015,0.307-2.155,0.301-3.289-0.1
			c-3.367-1.15-5.561-5.193-4.908-9.018c0.488-2.902,0.939-5.811,1.335-8.713c0.661-4.755,1.193-9.498,1.601-14.192
			c2.128-23.796,1.375-46.745-0.722-67.234c-1.649-16.134-4.141-30.739-6.713-43.042c-5.073-24.188-10.492-39.457-10.619-39.808
			c-0.393-1.091-0.555-2.212-0.519-3.269c0.1-2.637,1.456-4.959,3.69-5.836c3.062-1.24,6.792,0.867,8.168,4.668
			C218.209,125.683,219.872,130.355,222.142,138.142z"/>
		<path d="M228.42,315.661c-1.063,0-2.122-0.184-3.146-0.545c-5.184-1.771-8.504-7.689-7.52-13.462
			c0.517-3.072,0.947-5.882,1.315-8.58c0.643-4.621,1.173-9.327,1.579-13.998c1.884-21.068,1.643-43.432-0.716-66.481
			c-1.438-14.062-3.674-28.404-6.648-42.631c-5.07-24.171-10.412-39.118-10.466-39.266c-0.548-1.524-0.809-3.17-0.755-4.764
			c0.166-4.377,2.552-7.982,6.226-9.425c1.022-0.414,2.147-0.632,3.303-0.632c4.375,0,8.429,3.079,10.088,7.662
			c0.006,0.016,1.759,4.759,4.302,13.482c8.055,27.609,20.711,83.291,14.965,145.986c-0.422,4.7-0.969,9.521-1.625,14.321
			c-0.435,3.161-0.944,6.478-1.512,9.864c-0.672,3.934-3.262,7.024-6.759,8.079C230.201,315.53,229.315,315.661,228.42,315.661z
			 M211.592,123.878c-0.123,0-0.234,0.021-0.339,0.063c-0.689,0.271-1.153,1.181-1.195,2.28c-0.019,0.574,0.08,1.189,0.286,1.763
			c0.052,0.145,5.632,15.842,10.771,40.341c3.031,14.5,5.312,29.12,6.777,43.456c2.41,23.556,2.654,46.434,0.727,67.998
			c-0.417,4.797-0.963,9.641-1.623,14.387c-0.377,2.771-0.82,5.66-1.353,8.825c-0.351,2.059,0.903,4.106,2.257,4.569
			c0.352,0.124,0.599,0.128,0.839,0.056c0.575-0.174,1.028-0.847,1.184-1.757c0.553-3.298,1.05-6.537,1.474-9.615
			c0.639-4.675,1.172-9.372,1.583-13.957c5.626-61.387-6.781-115.958-14.678-143.024c-2.044-7.013-3.677-11.739-4.133-12.968
			C213.617,124.77,212.429,123.878,211.592,123.878z"/>
	</g>
	<g>
		<g>
			<g>
				<circle fill="#494949" cx="156.969" cy="309.979" r="51.853"/>
				<path d="M156.968,365.831c-30.797,0-55.852-25.055-55.852-55.852s25.055-55.852,55.852-55.852
					c30.798,0,55.854,25.055,55.854,55.852S187.766,365.831,156.968,365.831z M156.968,262.128
					c-26.386,0-47.852,21.466-47.852,47.852s21.466,47.852,47.852,47.852c26.387,0,47.854-21.466,47.854-47.852
					S183.354,262.128,156.968,262.128z"/>
			</g>
			<g>
				<circle fill="#494949" cx="296.574" cy="309.979" r="51.853"/>
				<path d="M296.573,365.831c-30.797,0-55.852-25.055-55.852-55.852s25.055-55.852,55.852-55.852
					c30.798,0,55.854,25.055,55.854,55.852S327.371,365.831,296.573,365.831z M296.573,262.128
					c-26.386,0-47.852,21.466-47.852,47.852s21.466,47.852,47.852,47.852c26.387,0,47.854-21.466,47.854-47.852
					S322.96,262.128,296.573,262.128z"/>
			</g>
			<g>
				<path fill="#585858" d="M286.528,284.761c-0.129,0.009-0.27,0.009-0.389,0.009c-3.182,0-5.861-2.46-6.07-5.689
					c-0.291-4.54-0.77-9.03-1.42-13.47c-0.59-4.1-1.34-8.15-2.211-12.16c-9.889-45.5-36.539-85.1-59.459-112.309
					c-4.131-4.9-8.131-9.393-11.9-13.452c-14.641-15.79-25.641-24.929-25.961-25.19c-2.59-2.128-2.969-5.959-0.85-8.56
					c2.141-2.601,5.971-2.979,8.571-0.85c2.33,1.909,35.02,29.08,63.439,71.631c6.48,9.688,12.73,20.179,18.352,31.35
					c8.43,16.761,15.449,35.04,19.658,54.47c0.861,3.939,1.602,7.939,2.201,11.971c0.799,5.189,1.379,10.46,1.719,15.789
					C292.419,281.649,289.88,284.54,286.528,284.761z"/>
				<path d="M286.14,288.77c-5.3,0-9.72-4.143-10.062-9.432c-0.279-4.351-0.745-8.773-1.386-13.147
					c-0.556-3.867-1.263-7.753-2.162-11.891c-9.926-45.674-37.351-85.345-58.609-110.581c-3.817-4.529-7.779-9.007-11.772-13.308
					c-14.502-15.641-25.456-24.729-25.562-24.815c-4.288-3.523-4.922-9.884-1.419-14.183c1.941-2.358,4.787-3.702,7.818-3.702
					c2.321,0,4.59,0.812,6.389,2.285c1.426,1.168,35.244,29.104,64.23,72.503c6.992,10.453,13.25,21.144,18.599,31.773
					c9.312,18.515,16.039,37.16,19.994,55.421c0.891,4.073,1.647,8.19,2.249,12.229c0.821,5.336,1.413,10.768,1.754,16.123
					c0.349,5.541-3.872,10.343-9.409,10.707C286.582,288.767,286.342,288.77,286.14,288.77z M182.985,95.711
					c-0.632,0-1.226,0.281-1.629,0.771c-0.715,0.878-0.586,2.198,0.301,2.927c0.102,0.083,11.367,9.397,26.355,25.562
					c4.078,4.392,8.125,8.966,12.026,13.594c21.842,25.93,50.034,66.761,60.309,114.037c0.94,4.325,1.679,8.395,2.261,12.44
					c0.671,4.578,1.16,9.219,1.453,13.783c0.071,1.09,0.984,1.945,2.079,1.945l0.141-0.001c1.132-0.075,2.007-1.069,1.935-2.218
					c-0.326-5.116-0.892-10.31-1.68-15.432c-0.578-3.881-1.302-7.819-2.156-11.725c-3.814-17.608-10.315-35.615-19.324-53.527
					c-5.201-10.336-11.292-20.74-18.103-30.923c-28.334-42.423-61.262-69.623-62.65-70.761
					C183.827,95.793,183.323,95.711,182.985,95.711z"/>
			</g>
			<g>
				<path fill="#585858" d="M216.979,141.142c-0.25,21.459-3.802,69.548-27.621,118.338c-1.76,3.621-3.64,7.241-5.629,10.852
					c-1.361,2.459-2.781,4.918-4.25,7.379c-1.141,1.9-3.15,2.951-5.221,2.951c-1.061,0-2.15-0.281-3.119-0.871
					c-2.891-1.72-3.82-5.459-2.09-8.34c1.309-2.189,2.58-4.391,3.799-6.6c2.01-3.621,3.891-7.261,5.641-10.891
					c8.92-18.39,14.84-36.799,18.76-53.58c3.09-13.21,4.929-25.409,6.029-35.8c2.141-20.431,1.371-33.859,1.352-34.171
					c-0.061-0.959,0.109-1.89,0.449-2.72c0.859-2.068,2.83-3.589,5.221-3.75c3.289-0.25,6.25,2.321,6.468,5.671
					C216.819,130.3,217.06,134.409,216.979,141.142z"/>
				<path d="M174.259,284.661c-1.839,0-3.637-0.503-5.199-1.454c-2.28-1.356-3.917-3.554-4.574-6.165
					c-0.659-2.618-0.256-5.335,1.136-7.651c1.333-2.229,2.587-4.41,3.725-6.473c1.939-3.493,3.801-7.088,5.54-10.695
					c7.867-16.219,14.079-33.964,18.467-52.753c2.676-11.44,4.677-23.32,5.947-35.311c2.113-20.173,1.345-33.37,1.337-33.501
					c-0.096-1.517,0.16-3.068,0.74-4.484c1.491-3.588,4.803-5.966,8.653-6.226c0.215-0.017,0.464-0.025,0.711-0.025
					c5.272,0,9.673,4.141,10.018,9.428c0,0.005,0.31,4.265,0.22,11.839c-0.279,23.964-4.292,71.428-28.026,120.045
					c-1.764,3.629-3.689,7.341-5.72,11.027c-1.333,2.408-2.785,4.929-4.319,7.498C181.07,282.832,177.836,284.661,174.259,284.661z
					 M210.742,127.923c-0.046,0-0.093,0.002-0.139,0.005c-0.989,0.067-1.587,0.713-1.83,1.297c-0.116,0.283-0.171,0.613-0.151,0.933
					c0.009,0.138,0.83,13.887-1.365,34.84c-1.306,12.323-3.362,24.533-6.113,36.294c-4.522,19.363-10.934,37.672-19.056,54.415
					c-1.801,3.735-3.734,7.468-5.742,11.086c-1.177,2.134-2.479,4.395-3.863,6.71c-0.292,0.486-0.376,1.048-0.24,1.587
					c0.078,0.309,0.304,0.884,0.941,1.264c0.426,0.259,0.815,0.309,1.074,0.309c0.742,0,1.412-0.377,1.791-1.01
					c1.484-2.487,2.893-4.932,4.18-7.258c1.961-3.56,3.824-7.149,5.531-10.662c23.051-47.217,26.948-93.343,27.219-116.637
					c0.085-7.119-0.197-11.149-0.2-11.188C212.708,128.814,211.776,127.923,210.742,127.923z"/>
			</g>
			<g>
				<path fill="#7B7B7B" d="M215.323,121.634c4.078,26.384-2.271,47.643-18.889,63.237c-22.958,21.546-59.203,27.388-75.779,28.946
					c6.324-35.639,17.971-61.625,34.66-77.285C178.612,114.67,205.526,119.034,215.323,121.634z"/>
				<path d="M120.655,217.817c-1.112,0-2.181-0.464-2.942-1.29c-0.846-0.918-1.215-2.179-0.997-3.409
					c6.478-36.504,18.543-63.253,35.861-79.503c16.007-15.021,33.655-18.175,45.641-18.175c7.737,0,14.13,1.266,18.13,2.327
					c1.536,0.407,2.685,1.686,2.927,3.255c4.29,27.758-2.474,50.221-20.105,66.766c-23.353,21.916-58.981,28.21-78.141,30.012
					C120.904,217.812,120.779,217.817,120.655,217.817z M198.219,123.44c-15.333,0-28.847,5.387-40.166,16.009
					c-15.211,14.272-26.124,37.74-32.472,69.802c16.818-2.114,48.057-8.472,68.116-27.297c15.038-14.11,21.103-33.3,18.047-57.068
					C208.28,124.133,203.624,123.44,198.219,123.44z"/>
			</g>
			<path d="M312.137,343.895c-1.19,0-2.316-0.713-2.786-1.885c-0.616-1.536,0.128-3.279,1.663-3.898
				c0.93-0.38,22.069-9.34,12.402-33.785c-0.609-1.541,0.146-3.284,1.687-3.894c1.541-0.606,3.284,0.146,3.894,1.687
				c11.894,30.08-15.467,41.448-15.744,41.56C312.886,343.825,312.508,343.895,312.137,343.895z"/>
		</g>
	</g>
	<g>
		<circle fill="#494949" cx="221.828" cy="344.514" r="51.853"/>
		<path d="M221.809,400.379c-24.402,0-46.379-16.327-53.444-39.705c-8.91-29.48,7.824-60.713,37.304-69.623
			c5.274-1.595,10.719-2.403,16.181-2.403c24.4,0,46.377,16.328,53.443,39.706c4.316,14.28,2.813,29.388-4.232,42.537
			c-7.046,13.15-18.791,22.77-33.072,27.086C232.713,399.57,227.27,400.379,221.809,400.379z M221.849,296.647
			c-4.677,0-9.342,0.693-13.866,2.062c-25.257,7.634-39.594,34.393-31.96,59.65c6.054,20.03,24.881,34.02,45.786,34.02
			c4.677,0,9.341-0.693,13.864-2.061c12.236-3.698,22.299-11.939,28.335-23.206s7.324-24.209,3.625-36.444
			C261.58,310.638,242.752,296.647,221.849,296.647z"/>
	</g>
	<path d="M14883.02,3092.906h-16737v-13953h16737V3092.906z M-1853.48,3091.906h16736l-0.5-13951h-16735.5l0.5,13951H-1853.48z"/>
</g>
<g id="linijsko" display="none">
	<g id="rdeča7bela_copy" display="inline">
	</g>
	
		<path display="inline" fill="none" stroke="#000000" stroke-width="6" stroke-linecap="round" stroke-linejoin="round" stroke-miterlimit="10" d="
		M312.136,340.894c0,0,25.004-10.021,14.07-37.671"/>
	<g display="inline">
		<path fill="none" stroke="#000000" stroke-width="8" stroke-linecap="round" stroke-linejoin="round" stroke-miterlimit="10" d="
			M215.815,162.797c-0.57-2.524-1.138-4.925-1.696-7.203"/>
		<path fill="none" stroke="#000000" stroke-width="8" stroke-linecap="round" stroke-linejoin="round" stroke-miterlimit="10" d="
			M209.46,120.377c0.099-0.045,0.189-0.104,0.291-0.144c3.062-1.24,6.792,0.867,8.168,4.668c0.29,0.781,1.953,5.454,4.223,13.24
			c1.146,3.929,2.446,8.656,3.799,14.072"/>
		<path fill="none" stroke="#000000" stroke-width="8" stroke-linecap="round" stroke-linejoin="round" stroke-miterlimit="10" d="
			M223.151,292.679c0.602-4.44,1.102-8.871,1.483-13.257c2.128-23.796,1.375-46.745-0.722-67.234
			c-1.649-16.134-4.141-30.739-6.713-43.042c-0.46-2.192-0.922-4.308-1.384-6.349"/>
		<path fill="none" stroke="#000000" stroke-width="8" stroke-linecap="round" stroke-linejoin="round" stroke-miterlimit="10" d="
			M225.941,152.214c7.196,28.81,15.896,77.254,11.022,130.43c-0.354,3.943-0.808,7.915-1.323,11.899"/>
		<path fill="none" stroke="#000000" stroke-width="8" stroke-linecap="round" stroke-linejoin="round" stroke-miterlimit="10" d="
			M223.151,292.679c-0.042,0.313-0.074,0.623-0.118,0.936c-0.396,2.902-0.847,5.811-1.335,8.713
			c-0.652,3.824,1.541,7.867,4.908,9.018c1.134,0.4,2.274,0.406,3.289,0.1c1.981-0.598,3.539-2.391,3.97-4.912
			c0.548-3.264,1.049-6.511,1.494-9.743c0.103-0.751,0.184-1.497,0.281-2.246"/>
		<path fill="none" stroke="#000000" stroke-width="8" stroke-linecap="round" stroke-linejoin="round" stroke-miterlimit="10" d="
			M174.771,261.266c-5.552-2.029-11.548-3.138-17.803-3.138c-28.637,0-51.852,23.215-51.852,51.852s23.215,51.852,51.852,51.852
			c5.303,0,10.419-0.8,15.237-2.279"/>
		<path fill="none" stroke="#000000" stroke-width="8" stroke-linecap="round" stroke-linejoin="round" stroke-miterlimit="10" d="
			M206.601,294.953c-3.525-11.66-11.043-21.582-20.968-28.18"/>
		<path fill="none" stroke="#000000" stroke-width="8" stroke-linecap="round" stroke-linejoin="round" stroke-miterlimit="10" d="
			M245.981,298.639c3.806-17.048,15.997-30.923,32.027-37.074"/>
		<path fill="none" stroke="#000000" stroke-width="8" stroke-linecap="round" stroke-linejoin="round" stroke-miterlimit="10" d="
			M272.419,355.86c7.215,3.806,15.43,5.971,24.154,5.971c28.639,0,51.854-23.215,51.854-51.852s-23.215-51.852-51.854-51.852
			c-2.286,0-4.531,0.163-6.739,0.45"/>
		<path fill="none" stroke="#000000" stroke-width="8" stroke-linecap="round" stroke-linejoin="round" stroke-miterlimit="10" d="
			M216.979,141.142c2.94,3.49,5.942,7.188,8.962,11.072"/>
		<path fill="none" stroke="#000000" stroke-width="8" stroke-linecap="round" stroke-linejoin="round" stroke-miterlimit="10" d="
			M197.206,119.455c-10.548-10.695-17.828-16.744-18.088-16.956c-2.59-2.128-2.969-5.959-0.85-8.56
			c2.141-2.601,5.971-2.979,8.571-0.85c2.33,1.909,35.02,29.08,63.439,71.631c6.48,9.688,12.73,20.179,18.352,31.35
			c8.43,16.761,15.449,35.04,19.658,54.47c0.58,2.653,1.082,5.34,1.546,8.038"/>
		<path fill="none" stroke="#000000" stroke-width="8" stroke-linecap="round" stroke-linejoin="round" stroke-miterlimit="10" d="
			M225.941,152.214c20.52,26.396,41.877,61.573,50.497,101.236c0.583,2.685,1.106,5.391,1.569,8.114"/>
		<path fill="none" stroke="#000000" stroke-width="8" stroke-linecap="round" stroke-linejoin="round" stroke-miterlimit="10" d="
			M278.008,261.564c0.229,1.344,0.447,2.691,0.642,4.046c0.65,4.439,1.129,8.93,1.42,13.47c0.209,3.229,2.889,5.689,6.07,5.689
			c0.119,0,0.26,0,0.389-0.009c3.352-0.221,5.891-3.111,5.68-6.461c-0.34-5.329-0.92-10.6-1.719-15.789
			c-0.196-1.317-0.43-2.624-0.655-3.933"/>
		<path fill="none" stroke="#000000" stroke-width="8" stroke-linecap="round" stroke-linejoin="round" stroke-miterlimit="10" d="
			M216.979,141.142c-0.186-0.221-0.368-0.429-0.553-0.647"/>
		<path fill="none" stroke="#000000" stroke-width="8" stroke-linecap="round" stroke-linejoin="round" stroke-miterlimit="10" d="
			M185.633,266.773c-0.629,1.187-1.25,2.373-1.903,3.558c-1.361,2.459-2.781,4.918-4.25,7.379c-1.141,1.9-3.15,2.951-5.221,2.951
			c-1.061,0-2.15-0.281-3.119-0.871c-2.891-1.72-3.82-5.459-2.09-8.34c1.309-2.189,2.58-4.391,3.799-6.6
			c0.662-1.192,1.288-2.39,1.922-3.585"/>
		<path fill="none" stroke="#000000" stroke-width="8" stroke-linecap="round" stroke-linejoin="round" stroke-miterlimit="10" d="
			M185.633,266.773c1.288-2.43,2.543-4.861,3.726-7.294c17.636-36.124,24.156-71.852,26.457-96.683"/>
		<path fill="none" stroke="#000000" stroke-width="8" stroke-linecap="round" stroke-linejoin="round" stroke-miterlimit="10" d="
			M216.979,141.142c-0.065,5.571-0.357,12.948-1.164,21.655"/>
		<path fill="none" stroke="#000000" stroke-width="8" stroke-linecap="round" stroke-linejoin="round" stroke-miterlimit="10" d="
			M174.771,261.266c1.29-2.435,2.544-4.871,3.718-7.306c8.92-18.39,14.84-36.799,18.76-53.58c1.682-7.192,2.983-14.069,4.007-20.534
			"/>
		<path fill="none" stroke="#000000" stroke-width="8" stroke-linecap="round" stroke-linejoin="round" stroke-miterlimit="10" d="
			M216.979,141.142c0.08-6.732-0.16-10.842-0.211-11.531c-0.06-0.914-0.329-1.767-0.748-2.523"/>
		<path fill="none" stroke="#000000" stroke-width="8" stroke-linecap="round" stroke-linejoin="round" stroke-miterlimit="10" d="
			M197.206,119.455c-12.187,0.184-27.706,3.766-41.891,17.077c-16.689,15.66-28.336,41.646-34.66,77.285
			c16.576-1.559,52.82-7.4,75.779-28.946c1.719-1.613,3.322-3.291,4.822-5.025"/>
		<path fill="none" stroke="#000000" stroke-width="8" stroke-linecap="round" stroke-linejoin="round" stroke-miterlimit="10" d="
			M216.02,127.087c0.474,4.638,0.612,9.109,0.407,13.407"/>
		<path fill="none" stroke="#000000" stroke-width="8" stroke-linecap="round" stroke-linejoin="round" stroke-miterlimit="10" d="
			M214.119,155.594c1.282-4.769,2.054-9.803,2.308-15.1"/>
		<path fill="none" stroke="#000000" stroke-width="8" stroke-linecap="round" stroke-linejoin="round" stroke-miterlimit="10" d="
			M214.119,155.594c-2.437,9.063-6.73,17.158-12.863,24.252"/>
		<path fill="none" stroke="#000000" stroke-width="8" stroke-linecap="round" stroke-linejoin="round" stroke-miterlimit="10" d="
			M209.46,120.377c-3.421-0.571-7.595-0.992-12.254-0.922"/>
		<path fill="none" stroke="#000000" stroke-width="8" stroke-linecap="round" stroke-linejoin="round" stroke-miterlimit="10" d="
			M209.46,120.377c2.328,0.39,4.312,0.846,5.863,1.257c0.285,1.844,0.514,3.659,0.697,5.453"/>
		<path fill="none" stroke="#000000" stroke-width="8" stroke-linecap="round" stroke-linejoin="round" stroke-miterlimit="10" d="
			M206.601,294.953c-27.271,8.376-42.67,37.227-34.408,64.563c0.003,0.012,0.008,0.023,0.012,0.035"/>
		<path fill="none" stroke="#000000" stroke-width="8" stroke-linecap="round" stroke-linejoin="round" stroke-miterlimit="10" d="
			M245.981,298.639c-3.282-1.729-6.75-3.1-10.34-4.096"/>
		<path fill="none" stroke="#000000" stroke-width="8" stroke-linecap="round" stroke-linejoin="round" stroke-miterlimit="10" d="
			M272.419,355.86c-3.972,17.634-17.051,32.685-35.589,38.287c-27.399,8.282-56.326-7.206-64.625-34.596"/>
		<path fill="none" stroke="#000000" stroke-width="8" stroke-linecap="round" stroke-linejoin="round" stroke-miterlimit="10" d="
			M223.151,292.679c-5.387-0.137-10.885,0.557-16.326,2.201c-0.076,0.022-0.148,0.051-0.224,0.073"/>
		<path fill="none" stroke="#000000" stroke-width="8" stroke-linecap="round" stroke-linejoin="round" stroke-miterlimit="10" d="
			M245.981,298.639c11.853,6.24,21.3,17.036,25.482,30.872c2.683,8.876,2.858,17.907,0.956,26.35"/>
	</g>
</g>
<g id="pivot">
	<circle fill="none" cx="225.45" cy="362.022" r="14.133"/>
</g>
</svg>
