<?xml version="1.0" encoding="utf-8"?>
<!-- Generator: Adobe Illustrator 16.0.0, SVG Export Plug-In . SVG Version: 6.00 Build 0)  -->
<!DOCTYPE svg PUBLIC "-//W3C//DTD SVG 1.1//EN" "http://www.w3.org/Graphics/SVG/1.1/DTD/svg11.dtd">
<svg version="1.1" xmlns="http://www.w3.org/2000/svg" xmlns:xlink="http://www.w3.org/1999/xlink" x="0px" y="0px"
	 width="453.543px" height="453.543px" viewBox="0 0 453.543 453.543" enable-background="new 0 0 453.543 453.543"
	 xml:space="preserve">
<g id="kvadrat">
</g>
<g id="bg" display="none">
	<rect x="-2873.904" y="-745.095" display="inline" width="15266.867" height="13678.951"/>
</g>
<g id="color" display="none">
	<g id="rdeča7bela" display="inline">
	</g>
	<g display="inline">
		
			<path fill="#E20613" stroke="#000000" stroke-width="8" stroke-linecap="round" stroke-linejoin="round" stroke-miterlimit="10" d="
			M344.426,195.093c-3.295,29.748-32.404,65.905-56.332,87.823c-19.971,18.3-52.352,43.232-102.678,48.458
			c-37.703,3.933-74.166-6.954-81.234-24.24c-2.035-4.976-2.416-8.566-1.129-10.686c3.123-5.142,17.522-7.108,31.192-8.347
			c39.785-3.603,74.205-26.978,91.592-45.895c9.795-10.654,19.018-27.981,27.939-44.745c7.91-14.855,28.81-36.244,44.476-44.577
			c15.667-8.333,33.393,8.708,33.393,8.708l12.029,17.478C344.975,183.073,345.375,189.513,344.426,195.093z"/>
		<path fill="none" stroke="#000000" stroke-width="6" stroke-linecap="round" stroke-linejoin="round" stroke-miterlimit="10" d="
			M196.203,288.002c0,0,43.178-5.763,66.111-58.696"/>
		
			<path fill="#39A935" stroke="#000000" stroke-width="8" stroke-linecap="round" stroke-linejoin="round" stroke-miterlimit="10" d="
			M351.237,176.969c-2.098-3.9-7.289-12.326-15.015-16.894c-2.915-1.724-7.41-3.685-7.41-3.685l9.489-26.696l-12.283-8.33
			l-8.955,29.384c0,0-3.375-0.627-7.301-1.637c-8.693-2.234-18.323,0.05-22.566,1.324c4.696,4.717,9.336,8.206,13.862,10.434
			c-3.495,3.164-6.929,7.438-10.273,12.808c4.542,1.369,14.758,3.672,23.311,0.106c0.891-0.372,1.735-0.805,2.541-1.289
			c0.104,0.374,0.215,0.753,0.345,1.136c2.172,6.408,7.648,12.521,16.284,18.188c1.094-3.474,2.789-10.038,2.556-16.725
			C340.23,176.353,345.382,176.982,351.237,176.969z"/>
	</g>
	
		<rect x="-3384.189" y="-1165.104" display="inline" fill="none" stroke="#000000" stroke-miterlimit="10" width="16736" height="13952"/>
</g>
<g id="cb_1_">
	<g id="rdeča7bela_copy_3">
	</g>
	<g>
		<g>
			<path fill="#494949" d="M344.426,195.093c-3.295,29.748-32.404,65.905-56.332,87.823c-19.971,18.3-52.352,43.232-102.678,48.458
				c-37.703,3.933-74.166-6.954-81.234-24.24c-2.035-4.976-2.416-8.566-1.129-10.686c3.123-5.142,17.522-7.108,31.192-8.347
				c39.785-3.603,74.205-26.978,91.592-45.895c9.795-10.654,19.018-27.981,27.939-44.745c7.91-14.855,28.81-36.244,44.476-44.577
				c15.667-8.333,33.393,8.708,33.393,8.708l12.029,17.478C344.975,183.073,345.375,189.513,344.426,195.093z"/>
			<path d="M169.939,336.178c-34.269,0-62.832-11.32-69.46-27.529c-2.577-6.301-2.854-10.97-0.846-14.276
				c3.827-6.301,15.942-8.595,34.25-10.254c38.645-3.5,72.101-26.223,89.008-44.618c9.451-10.28,18.552-27.38,27.354-43.917
				c8.585-16.123,30.141-37.726,46.129-46.229c3.448-1.833,7.216-2.763,11.2-2.763c14.075,0,26.329,11.624,26.843,12.119
				c0.195,0.187,0.37,0.393,0.523,0.615l12.029,17.478c0.219,0.317,0.39,0.665,0.509,1.032c1.537,4.73,1.901,11.873,0.911,17.814
				c-3.478,30.834-33.185,67.859-57.593,90.217c-20.388,18.683-53.452,44.139-104.967,49.487
				C180.581,335.9,175.234,336.178,169.939,336.178z M307.573,154.591c-2.661,0-5.165,0.614-7.444,1.826
				c-14.579,7.754-34.99,28.214-42.823,42.926c-9.038,16.98-18.383,34.539-28.525,45.571c-17.872,19.444-53.26,43.466-94.176,47.172
				c-21.187,1.92-26.993,4.562-28.134,6.439c-0.009,0.015-0.864,1.529,1.412,7.095c5.259,12.86,31.937,22.558,62.056,22.558
				c5.019,0,10.086-0.263,15.062-0.782c49.161-5.104,80.839-29.513,100.391-47.429c23.416-21.449,51.885-56.662,55.059-85.314
				c0.008-0.077,0.019-0.154,0.032-0.23c0.766-4.504,0.573-9.985-0.454-13.593l-11.425-16.6
				C326.905,162.702,317.423,154.591,307.573,154.591z"/>
		</g>
		<path d="M196.199,291.003c-1.48,0-2.769-1.096-2.97-2.604c-0.219-1.641,0.932-3.148,2.571-3.37l0,0
			c0.416-0.057,41.829-6.294,63.761-56.916c0.658-1.521,2.426-2.219,3.945-1.56c1.52,0.658,2.219,2.425,1.56,3.945
			c-23.34,53.87-66.635,60.232-68.467,60.477C196.465,290.994,196.332,291.003,196.199,291.003z"/>
		<g>
			<path fill="#7B7B7B" d="M351.237,176.969c-2.098-3.9-7.289-12.326-15.015-16.894c-2.915-1.724-7.41-3.685-7.41-3.685
				l9.489-26.696l-12.283-8.33l-8.955,29.384c0,0-3.375-0.627-7.301-1.637c-8.693-2.234-18.323,0.05-22.566,1.324
				c4.696,4.717,9.336,8.206,13.862,10.434c-3.495,3.164-6.929,7.438-10.273,12.808c4.542,1.369,14.758,3.672,23.311,0.106
				c0.891-0.372,1.735-0.805,2.541-1.289c0.104,0.374,0.215,0.753,0.345,1.136c2.172,6.408,7.648,12.521,16.284,18.188
				c1.094-3.474,2.789-10.038,2.556-16.725C340.23,176.353,345.382,176.982,351.237,176.969z"/>
			<path d="M333.266,195.819c-0.77,0-1.534-0.222-2.195-0.656c-8.084-5.304-13.665-11.086-16.635-17.224
				c-3.22,1.157-6.833,1.742-10.765,1.742c-5.644,0-10.751-1.183-14.041-2.175c-1.192-0.359-2.149-1.253-2.588-2.418
				c-0.439-1.166-0.311-2.468,0.347-3.526c2.333-3.745,4.743-7.027,7.2-9.808c-3.396-2.23-6.82-5.073-10.228-8.497
				c-0.992-0.996-1.388-2.44-1.043-3.804c0.345-1.363,1.38-2.444,2.727-2.849c3.026-0.909,9.092-2.433,15.715-2.433
				c3.217,0,6.244,0.358,8.997,1.066c1.275,0.328,2.492,0.615,3.544,0.85l7.89-25.889c0.37-1.215,1.296-2.183,2.494-2.605
				c1.198-0.423,2.526-0.252,3.577,0.461l12.283,8.33c1.507,1.022,2.134,2.934,1.524,4.65l-8.266,23.256
				c1.437,0.694,3.089,1.534,4.455,2.342c8.396,4.964,13.943,13.685,16.502,18.442c0.666,1.238,0.633,2.735-0.087,3.943
				c-0.72,1.207-2.021,1.948-3.427,1.952l-0.189,0c-4.086,0-7.891-0.304-11.372-0.906c-0.446,5.394-1.738,10.207-2.603,12.957
				c-0.376,1.196-1.291,2.146-2.472,2.566C334.173,195.742,333.719,195.819,333.266,195.819z M316.637,168.495
				c0.501,0,1.004,0.094,1.482,0.285c1.16,0.463,2.037,1.44,2.371,2.644c0.084,0.304,0.174,0.612,0.279,0.923
				c1.481,4.369,4.869,8.667,10.098,12.824c0.608-2.937,1.078-6.434,0.956-9.937c-0.044-1.279,0.525-2.502,1.533-3.29
				c1.008-0.788,2.332-1.047,3.563-0.695c2.067,0.59,4.336,1.03,6.789,1.317c-2.389-3.218-5.615-6.736-9.523-9.047
				c-2.673-1.581-6.931-3.443-6.973-3.461c-1.926-0.84-2.874-3.027-2.17-5.006l8.453-23.781l-5.233-3.549l-7.374,24.194
				c-0.594,1.947-2.556,3.14-4.557,2.767c-0.143-0.026-3.556-0.664-7.568-1.696c-2.101-0.54-4.458-0.813-7.004-0.813
				c-2.142,0-4.226,0.191-6.13,0.473c2.442,1.93,4.847,3.481,7.194,4.636c1.189,0.585,2.011,1.722,2.195,3.034
				c0.184,1.313-0.295,2.631-1.277,3.52c-2.146,1.943-4.293,4.38-6.412,7.277c1.914,0.328,4.089,0.569,6.341,0.569
				c3.365,0,6.355-0.535,8.885-1.59c0.678-0.283,1.36-0.629,2.023-1.027C315.209,168.687,315.921,168.495,316.637,168.495z"/>
		</g>
	</g>
	<path d="M13352.311,12787.396h-16737v-13953h16737V12787.396z M-3384.189,12786.396h16736l-0.5-13951h-16735.5l0.5,13951H-3384.189
		z"/>
</g>
<g id="cb" display="none">
	<g id="rdeča7bela_copy" display="inline">
	</g>
	<g display="inline">
		<path fill="none" stroke="#000000" stroke-width="6" stroke-linecap="round" stroke-linejoin="round" stroke-miterlimit="10" d="
			M196.203,288.002c0,0,43.178-5.763,66.111-58.696"/>
		<path fill="none" stroke="#000000" stroke-width="8" stroke-linecap="round" stroke-linejoin="round" stroke-miterlimit="10" d="
			M341.796,176.342c-2.119-0.306-4.116-0.717-5.974-1.248c0.233,6.687-1.462,13.251-2.556,16.725
			c-8.636-5.667-14.113-11.78-16.284-18.188c-0.13-0.383-0.241-0.762-0.345-1.136c-0.806,0.483-1.65,0.917-2.541,1.289
			c-8.553,3.566-18.769,1.263-23.311-0.106c3.344-5.37,6.778-9.644,10.273-12.808c-2.565-1.262-5.167-2.944-7.794-5.01
			c-14.847,9.701-32.393,28.277-39.489,41.603c-8.922,16.763-18.145,34.09-27.939,44.745
			c-17.387,18.917-51.807,42.292-91.592,45.895c-13.67,1.239-28.069,3.205-31.192,8.347c-1.287,2.119-0.906,5.709,1.129,10.686
			c7.068,17.286,43.532,28.173,81.234,24.24c50.327-5.226,82.707-30.158,102.678-48.458c23.928-21.918,53.037-58.075,56.332-87.823
			c0.949-5.58,0.549-12.02-0.752-16.022L341.796,176.342z"/>
	</g>
	
		<path display="inline" fill="none" stroke="#000000" stroke-width="8" stroke-linecap="round" stroke-linejoin="round" stroke-miterlimit="10" d="
		M351.237,176.969c-2.098-3.9-7.289-12.326-15.015-16.894c-2.915-1.724-7.41-3.685-7.41-3.685l9.489-26.696l-12.283-8.33
		l-8.955,29.384c0,0-3.375-0.627-7.301-1.637c-8.693-2.234-18.323,0.05-22.566,1.324c4.696,4.717,9.336,8.206,13.862,10.434
		c-3.495,3.164-6.929,7.438-10.273,12.808c4.542,1.369,14.758,3.672,23.311,0.106c0.891-0.372,1.735-0.805,2.541-1.289
		c0.104,0.374,0.215,0.753,0.345,1.136c2.172,6.408,7.648,12.521,16.284,18.188c1.094-3.474,2.789-10.038,2.556-16.725
		C340.23,176.353,345.382,176.982,351.237,176.969z"/>
</g>
<g id="pivot">
	<circle fill="none" cx="200.519" cy="327.563" r="14.132"/>
</g>
</svg>
