<?xml version="1.0" encoding="utf-8"?>
<!-- Generator: Adobe Illustrator 16.0.0, SVG Export Plug-In . SVG Version: 6.00 Build 0)  -->
<!DOCTYPE svg PUBLIC "-//W3C//DTD SVG 1.1//EN" "http://www.w3.org/Graphics/SVG/1.1/DTD/svg11.dtd">
<svg version="1.1" xmlns="http://www.w3.org/2000/svg" xmlns:xlink="http://www.w3.org/1999/xlink" x="0px" y="0px"
	 width="453.543px" height="453.543px" viewBox="0 0 453.543 453.543" enable-background="new 0 0 453.543 453.543"
	 xml:space="preserve">
<g id="kvadrat">
</g>
<g id="bg" display="none">
	<rect x="-4914.849" y="-234.859" display="inline" width="15266.867" height="13678.951"/>
</g>
<g id="color" display="none">
	<g display="inline">
		
			<path fill="#7E4E24" stroke="#000000" stroke-width="8" stroke-linecap="round" stroke-linejoin="round" stroke-miterlimit="10" d="
			M234.379,90.531l-23.594,0.015l2.496,59.923l0.191-0.001c-0.007,0.504,0.067,1.01,0.233,1.507c0.892,2.656,4.06,3.99,7.076,2.978
			c2.215-0.744,3.728-2.544,4.024-4.502h0.141L234.379,90.531z"/>
		
			<path fill="#E20613" stroke="#000000" stroke-width="8" stroke-linecap="round" stroke-linejoin="round" stroke-miterlimit="10" d="
			M226.597,351.667c-14.987,0-25.67,8.83-45.611,8.83s-66.078-80.252-66.078-127.178c0-63.209,53.032-79.864,101.711-81.835
			l15.104-0.165c50.021,0.998,106.914,16.528,106.914,81.995c-0.006,46.932-48.726,127.093-65.924,127.093
			S241.583,351.667,226.597,351.667z"/>
		<path fill="none" stroke="#000000" stroke-width="6" stroke-linecap="round" stroke-linejoin="round" stroke-miterlimit="10" d="
			M281.424,285.515c0,0,20.508-34.4,12.67-66.781"/>
		<g>
			<path stroke="#282828" stroke-width="4" stroke-linecap="round" stroke-miterlimit="10" d="M269.396,363.013"/>
		</g>
		<g>
			<path stroke="#282828" stroke-width="4" stroke-linecap="round" stroke-miterlimit="10" d="M180.917,363.013"/>
		</g>
		
			<path fill="#39A935" stroke="#000000" stroke-width="8" stroke-linecap="round" stroke-linejoin="round" stroke-miterlimit="10" d="
			M217.382,190.57c-4.385-26.335,1.713-47.664,18.148-63.454c22.705-21.812,58.879-28.078,75.436-29.832
			c-5.906,35.712-17.248,61.832-33.754,77.686C254.173,197.105,227.208,193.057,217.382,190.57z"/>
	</g>
	<g id="rdeča7bela" display="inline">
	</g>
	
		<rect x="-5425.134" y="-654.868" display="inline" fill="none" stroke="#000000" stroke-miterlimit="10" width="16736" height="13952"/>
</g>
<g id="cb_1_">
	<g>
		<g>
			<path fill="#585858" d="M234.379,90.531l-23.594,0.015l2.496,59.923l0.191-0.001c-0.007,0.504,0.067,1.01,0.233,1.507
				c0.892,2.656,4.06,3.99,7.076,2.978c2.215-0.744,3.728-2.544,4.024-4.502h0.141L234.379,90.531z"/>
			<path d="M218.734,159.292c-4.062,0-7.606-2.429-8.82-6.043c-0.131-0.392-0.232-0.789-0.306-1.192
				c-0.189-0.438-0.303-0.917-0.324-1.42l-2.496-59.923c-0.045-1.088,0.355-2.148,1.109-2.935s1.796-1.231,2.885-1.232l23.594-0.015
				c0,0,0.001,0,0.002,0c1.169,0,2.279,0.511,3.04,1.4c0.761,0.889,1.094,2.066,0.912,3.222l-9.432,59.92
				c-0.074,0.469-0.228,0.909-0.446,1.306c-0.917,2.908-3.312,5.331-6.397,6.367C220.975,159.108,219.857,159.292,218.734,159.292z
				 M217.228,149.088c0.167,0.455,0.252,0.94,0.245,1.434c-0.001,0.068,0.008,0.125,0.028,0.186c0.161,0.479,1.145,0.743,2.01,0.453
				c0.827-0.277,1.275-0.874,1.342-1.31c0.055-0.365,0.159-0.712,0.303-1.035l8.544-54.282l-14.745,0.01L217.228,149.088z"/>
		</g>
		<g>
			<path fill="#494949" d="M226.597,351.667c-14.987,0-25.67,8.83-45.611,8.83s-66.078-80.252-66.078-127.178
				c0-63.209,53.032-79.864,101.711-81.835l15.104-0.165c50.021,0.998,106.914,16.528,106.914,81.995
				c-0.006,46.932-48.726,127.093-65.924,127.093S241.583,351.667,226.597,351.667z"/>
			<path d="M180.986,364.497c-16.721,0-37.933-36.808-44.035-48.088c-16.307-30.144-26.043-61.206-26.043-83.09
				c0-53.355,36.499-83.036,105.549-85.832c0.039-0.001,0.079-0.003,0.118-0.003l15.104-0.165c0.04,0,0.082,0,0.123,0.001
				c30.883,0.616,55.842,6.464,74.182,17.383c24.321,14.48,36.653,37.564,36.653,68.61c-0.002,21.448-10.102,52.506-27.015,83.082
				c-4.435,8.017-27.346,48.011-42.909,48.011c-9.466,0-17.759-2.417-25.78-4.754c-7.031-2.049-13.671-3.984-20.335-3.984
				c-6.343,0-11.86,1.742-18.248,3.758C200.819,361.803,192.284,364.497,180.986,364.497z M216.722,155.483
				c-28.244,1.15-50.807,6.98-67.065,17.329c-20.403,12.986-30.749,33.344-30.749,60.507c0,20.308,9.61,50.688,25.079,79.283
				c15.424,28.511,30.574,43.895,36.999,43.895c10.065,0,17.635-2.39,24.955-4.701c6.727-2.123,13.081-4.129,20.656-4.129
				c7.806,0,15.313,2.188,22.574,4.304c7.481,2.181,15.218,4.435,23.542,4.435c4.692,0,19.35-13.947,35.909-43.883
				c16.288-29.444,26.013-59.056,26.015-79.21c0-28.028-11.017-48.8-32.745-61.736c-17.123-10.194-40.734-15.664-70.187-16.258
				L216.722,155.483z"/>
		</g>
		<path d="M281.422,288.515c-0.522,0-1.051-0.136-1.532-0.423c-1.423-0.848-1.89-2.688-1.043-4.112
			c0.199-0.334,19.781-33.764,12.332-64.54c-0.39-1.61,0.6-3.232,2.21-3.622c1.611-0.39,3.232,0.6,3.622,2.21
			c8.033,33.189-12.146,67.575-13.009,69.023C283.44,287.992,282.444,288.515,281.422,288.515z"/>
		<g>
			<path stroke="#282828" stroke-width="4" stroke-linecap="round" stroke-miterlimit="10" d="M269.396,363.013"/>
		</g>
		<g>
			<path stroke="#282828" stroke-width="4" stroke-linecap="round" stroke-miterlimit="10" d="M180.917,363.013"/>
		</g>
		<g>
			<path fill="#7B7B7B" d="M217.382,190.57c-4.385-26.335,1.713-47.664,18.148-63.454c22.705-21.812,58.879-28.078,75.436-29.832
				c-5.906,35.712-17.248,61.832-33.754,77.686C254.173,197.105,227.208,193.057,217.382,190.57z"/>
			<path d="M233.729,196.569c-7.395,0-13.504-1.153-17.327-2.121c-1.541-0.39-2.704-1.654-2.965-3.221
				c-4.613-27.705,1.889-50.246,19.323-66.995c23.092-22.184,58.646-28.897,77.785-30.925c1.24-0.131,2.474,0.325,3.331,1.233
				c0.857,0.908,1.241,2.165,1.037,3.397c-6.049,36.578-17.801,63.466-34.929,79.917
				C263.885,193.322,245.944,196.569,233.729,196.569z M220.923,187.277c3.297,0.676,7.701,1.292,12.805,1.292
				c15.631,0,29.329-5.546,40.712-16.482c15.044-14.45,25.682-38.044,31.653-70.177c-16.793,2.312-47.957,9.037-67.792,28.092
				C223.433,144.287,217.592,163.545,220.923,187.277z"/>
		</g>
	</g>
	<g id="rdeča7bela_copy_3">
	</g>
	<path d="M11311.365,13297.633h-16737v-13953h16737V13297.633z M-5425.134,13296.633h16736l-0.5-13951h-16735.5l0.5,13951H-5425.134
		z"/>
</g>
<g id="cb" display="none">
	<g display="inline">
		<path fill="none" stroke="#000000" stroke-width="6" stroke-linecap="round" stroke-linejoin="round" stroke-miterlimit="10" d="
			M281.424,285.515c0,0,20.508-34.4,12.67-66.781"/>
		<g>
			<path fill="none" stroke="#292929" stroke-width="4" stroke-linecap="round" stroke-miterlimit="10" d="M269.396,363.013"/>
		</g>
		<g>
			<path fill="none" stroke="#292929" stroke-width="4" stroke-linecap="round" stroke-miterlimit="10" d="M180.917,363.013"/>
		</g>
		<path fill="none" stroke="#000000" stroke-width="8" stroke-linecap="round" stroke-linejoin="round" stroke-miterlimit="10" d="
			M288.784,160.911c-3.522,5.341-7.379,10.033-11.572,14.06c-23.039,22.135-50.004,18.086-59.83,15.6
			c-2.433-14.613-1.633-27.682,2.364-39.12l-3.128,0.033c-48.679,1.971-101.711,18.626-101.711,81.835
			c0,46.926,46.137,127.178,66.078,127.178s30.624-8.83,45.611-8.83c14.986,0,28.917,8.739,46.115,8.739
			s65.918-80.161,65.924-127.093C338.636,192.991,317.05,171.618,288.784,160.911z"/>
		<path fill="none" stroke="#000000" stroke-width="8" stroke-linecap="round" stroke-linejoin="round" stroke-miterlimit="10" d="
			M218.542,155.288c1.839-6.591,4.679-12.675,8.515-18.238l7.322-46.519l-23.594,0.015l2.496,59.923l0.191-0.001
			c-0.007,0.504,0.067,1.01,0.233,1.507C214.376,153.971,216.332,155.219,218.542,155.288z"/>
		<path fill="none" stroke="#000000" stroke-width="8" stroke-linecap="round" stroke-linejoin="round" stroke-miterlimit="10" d="
			M217.382,190.57c-4.385-26.335,1.713-47.664,18.148-63.454c22.705-21.812,58.879-28.078,75.436-29.832
			c-5.906,35.712-17.248,61.832-33.754,77.686C254.173,197.105,227.208,193.057,217.382,190.57z"/>
	</g>
	<g id="rdeča7bela_copy" display="inline">
	</g>
</g>
<g id="pivot">
	<circle fill="none" cx="221.206" cy="356.028" r="14.132"/>
</g>
</svg>
