<?xml version="1.0" encoding="utf-8"?>
<!-- Generator: Adobe Illustrator 16.0.0, SVG Export Plug-In . SVG Version: 6.00 Build 0)  -->
<!DOCTYPE svg PUBLIC "-//W3C//DTD SVG 1.1//EN" "http://www.w3.org/Graphics/SVG/1.1/DTD/svg11.dtd">
<svg version="1.1" xmlns="http://www.w3.org/2000/svg" xmlns:xlink="http://www.w3.org/1999/xlink" x="0px" y="0px"
	 width="453.543px" height="453.543px" viewBox="0 0 453.543 453.543" enable-background="new 0 0 453.543 453.543"
	 xml:space="preserve">
<g id="kvadrat">
</g>
<g id="bg" display="none">
	<rect x="-3894.376" y="-745.095" display="inline" width="15266.867" height="13678.951"/>
</g>
<g id="color" display="none">
	<g id="rdeča7bela" display="inline">
	</g>
	<g display="inline">
		<g>
			<path fill="#662482" d="M171.602,340.008c-10.473,0-30.762-1.413-48.975-10.878c-23.014-11.96-35.179-33.301-35.179-61.715
				c0-23.402,12.793-40.563,38.025-51.008c21.044-8.71,47.954-11.735,69.576-14.166c9.136-1.026,17.755-1.994,24.644-3.261
				c29.002-5.343,47.91-22.496,56.599-32.245c0.121-0.136,0.251-0.263,0.39-0.381l17.244-14.718c0.745-0.636,1.67-0.958,2.597-0.958
				c0.83,0,1.662,0.257,2.369,0.777l48.688,35.799c1.678,1.234,2.128,3.549,1.035,5.323l-19.877,32.229
				c-0.057,0.092-0.118,0.182-0.182,0.269C244.099,340.008,196.938,340.008,171.602,340.008z"/>
			<path d="M296.522,154.679l48.688,35.799l-19.877,32.229c-83.211,113.237-128.5,113.301-153.73,113.301
				c-18.809,0-80.154-4.942-80.154-68.593c0-49.506,60.141-56.263,104.059-61.2c9.211-1.034,17.904-2.012,24.91-3.301
				c30.449-5.609,50.193-23.792,58.861-33.517L296.522,154.679 M296.523,146.679c-1.854,0-3.704,0.643-5.194,1.915l-17.244,14.718
				c-0.276,0.236-0.537,0.491-0.779,0.762c-8.348,9.367-26.509,25.846-54.338,30.972c-6.749,1.242-15.3,2.202-24.354,3.218
				c-21.884,2.46-49.104,5.52-70.67,14.447c-26.871,11.123-40.496,29.528-40.496,54.704c0,30.003,12.91,52.571,37.335,65.264
				c18.967,9.857,39.981,11.329,50.819,11.329c12.876,0,32.336,0,59.082-15.235c30.825-17.559,63.894-50.703,101.095-101.328
				c0.128-0.174,0.249-0.354,0.363-0.538l19.877-32.229c2.187-3.546,1.287-8.177-2.07-10.645l-48.688-35.799
				C299.847,147.194,298.183,146.679,296.523,146.679L296.523,146.679z"/>
		</g>
		
			<path fill="#93C01F" stroke="#000000" stroke-width="8" stroke-linecap="round" stroke-linejoin="round" stroke-miterlimit="10" d="
			M362.096,135.553l-8.966-18.017c0,0-7.55,17.921-14.47,31.563c-6.629-4.874-14.207-7.25-23.109-7.25
			c-15.615,0-31.736,7.678-42.51,14.117c-1.813,1.082-2.627,3.278-1.963,5.28c0.664,2.003,2.645,3.272,4.73,3.059l40.262-4.127
			c0.336-0.038,0.639,0.113,0.826,0.409s0.193,0.667,0.018,0.96l-16.361,27.276c-1.025,1.711-0.803,3.894,0.547,5.361
			c1.35,1.469,3.506,1.874,5.297,0.994l28.121-13.815c0.271-0.135,0.633-0.111,0.906,0.084c0.275,0.195,0.414,0.518,0.373,0.855
			l-4.578,37.158c-0.256,2.08,0.957,4.06,2.924,4.778c0.506,0.186,1.027,0.273,1.541,0.273c1.49,0,2.924-0.741,3.773-2.046
			c11.275-17.333,21.966-42.103,9.472-62.232L362.096,135.553z"/>
		<path fill="none" stroke="#000000" stroke-width="6" stroke-linecap="round" stroke-linejoin="round" stroke-miterlimit="10" d="
			M156.91,310.527c0,0,51.918,10.017,85.026-37.225"/>
	</g>
	
		<rect x="-4404.662" y="-1165.104" display="inline" fill="none" stroke="#000000" stroke-miterlimit="10" width="16736" height="13952"/>
</g>
<g id="cb_1_">
	<g id="rdeča7bela_copy_3">
	</g>
	<g>
		<g>
			<path fill="#424242" d="M171.602,336.008c-18.809,0-80.154-4.942-80.154-68.593c0-49.506,60.141-56.263,104.059-61.2
				c9.211-1.034,17.904-2.012,24.91-3.301c30.449-5.609,50.193-23.792,58.861-33.517l17.244-14.718l48.688,35.799l-19.877,32.229
				C242.122,335.944,196.833,336.008,171.602,336.008z"/>
			<path d="M296.522,154.679l48.688,35.799l-19.877,32.229c-83.211,113.237-128.5,113.301-153.73,113.301
				c-18.809,0-80.154-4.942-80.154-68.593c0-49.506,60.141-56.263,104.059-61.2c9.211-1.034,17.904-2.012,24.91-3.301
				c30.449-5.609,50.193-23.792,58.861-33.517L296.522,154.679 M296.523,146.679c-1.854,0-3.704,0.643-5.194,1.915l-17.244,14.718
				c-0.276,0.236-0.537,0.491-0.779,0.762c-8.348,9.367-26.509,25.846-54.338,30.972c-6.749,1.242-15.3,2.202-24.354,3.218
				c-21.884,2.46-49.104,5.52-70.67,14.447c-26.871,11.123-40.496,29.528-40.496,54.704c0,30.003,12.91,52.571,37.335,65.264
				c18.967,9.857,39.981,11.329,50.819,11.329c12.876,0,32.336,0,59.082-15.235c30.825-17.559,63.894-50.703,101.095-101.328
				c0.128-0.174,0.249-0.354,0.363-0.538l19.877-32.229c2.187-3.546,1.287-8.177-2.07-10.645l-48.688-35.799
				C299.847,147.194,298.183,146.679,296.523,146.679L296.523,146.679z"/>
		</g>
		<g>
			<path fill="#A1A1A1" d="M362.096,135.553l-8.966-18.017c0,0-7.55,17.921-14.47,31.563c-6.629-4.874-14.207-7.25-23.109-7.25
				c-15.615,0-31.736,7.678-42.51,14.117c-1.813,1.082-2.627,3.278-1.963,5.28c0.664,2.003,2.645,3.272,4.73,3.059l40.262-4.127
				c0.336-0.038,0.639,0.113,0.826,0.409s0.193,0.667,0.018,0.96l-16.361,27.276c-1.025,1.711-0.803,3.894,0.547,5.361
				c1.35,1.469,3.506,1.874,5.297,0.994l28.121-13.815c0.271-0.135,0.633-0.111,0.906,0.084c0.275,0.195,0.414,0.518,0.373,0.855
				l-4.578,37.158c-0.256,2.08,0.957,4.06,2.924,4.778c0.506,0.186,1.027,0.273,1.541,0.273c1.49,0,2.924-0.741,3.773-2.046
				c11.275-17.333,21.966-42.103,9.472-62.232L362.096,135.553z"/>
			<path d="M335.684,228.51c-1.002,0-1.985-0.175-2.922-0.519c-3.728-1.361-5.999-5.071-5.513-9.021l3.879-31.487l-22.968,11.284
				c-1.16,0.569-2.456,0.871-3.746,0.871c-2.374,0-4.655-1.002-6.26-2.749c-2.531-2.751-2.956-6.915-1.033-10.124l13.183-21.977
				l-34.088,3.495c-4.009,0.413-7.69-2.025-8.935-5.78c-1.265-3.813,0.261-7.914,3.709-9.973
				c11.206-6.697,28.035-14.683,44.56-14.683c8.083,0,15.17,1.787,21.528,5.445c6.177-12.649,12.297-27.15,12.365-27.312
				c0.607-1.44,1.998-2.396,3.56-2.445c1.561-0.046,3.01,0.816,3.707,2.216l8.966,18.017c0.576,1.158,0.557,2.523-0.052,3.665
				l-12.118,22.712c11.752,21.525,0.801,46.822-10.697,64.498C341.235,227.065,338.571,228.51,335.684,228.51z M334.892,177.277
				c1.032,0,2.02,0.316,2.857,0.915c1.459,1.035,2.237,2.798,2.019,4.592l-4.579,37.165c-0.029,0.232,0.105,0.451,0.325,0.531
				c0.06,0.021,0.112,0.031,0.17,0.031c0.064,0,0.283-0.017,0.421-0.229c10.596-16.288,20.833-39.563,9.426-57.94
				c-0.752-1.212-0.802-2.733-0.131-3.992l12.197-22.86l-4.213-8.466c-2.872,6.525-7.133,15.955-11.156,23.885
				c-0.532,1.048-1.498,1.81-2.641,2.082c-1.142,0.271-2.349,0.027-3.296-0.669c-5.923-4.355-12.708-6.473-20.74-6.473
				c-14.7,0-30.115,7.369-40.458,13.551c-0.204,0.122-0.293,0.362-0.219,0.587c0.075,0.225,0.296,0.342,0.478,0.342l40.311-4.13
				c0.146-0.017,0.329-0.026,0.508-0.026c1.669,0,3.204,0.851,4.106,2.276c1,1.582,1.026,3.558,0.067,5.156l-16.361,27.275
				c-0.113,0.188-0.088,0.434,0.061,0.595c0.251,0.272,0.445,0.183,0.59,0.112l28.121-13.815
				C333.401,177.45,334.146,177.277,334.892,177.277z"/>
		</g>
		<path d="M168.833,314.422c-7.428,0-12.165-0.886-12.492-0.949c-1.627-0.314-2.691-1.887-2.377-3.514
			c0.313-1.626,1.883-2.69,3.511-2.378l0,0c0.125,0.023,12.795,2.363,29.185-0.94c21.827-4.398,39.599-16.194,52.82-35.06
			c0.951-1.357,2.821-1.686,4.178-0.735c1.357,0.951,1.686,2.821,0.735,4.178c-17.674,25.218-40.644,34.338-56.801,37.548
			C180.429,313.996,173.983,314.422,168.833,314.422z"/>
	</g>
	<path d="M12331.838,12787.396h-16737v-13953h16737V12787.396z M-4404.662,12786.396h16736l-0.5-13951h-16735.5l0.5,13951H-4404.662
		z"/>
</g>
<g id="cb" display="none">
	<g id="rdeča7bela_copy" display="inline">
	</g>
	<g display="inline">
		<path fill="none" stroke="#000000" stroke-width="6" stroke-linecap="round" stroke-linejoin="round" stroke-miterlimit="10" d="
			M156.91,310.527c0,0,51.918,10.017,85.026-37.225"/>
		<path fill="none" stroke="#000000" stroke-width="8" stroke-linecap="round" stroke-linejoin="round" stroke-miterlimit="10" d="
			M362.096,135.553l-8.966-18.017c0,0-7.55,17.921-14.47,31.563c-6.629-4.874-14.207-7.25-23.109-7.25
			c-15.615,0-31.736,7.678-42.51,14.117c-1.813,1.082-2.627,3.278-1.963,5.28c0.664,2.003,2.645,3.272,4.73,3.059l10.723-1.099
			l-7.254,6.191c-8.668,9.725-28.412,27.908-58.861,33.517c-7.006,1.289-15.699,2.267-24.91,3.301
			c-43.918,4.937-104.059,11.694-104.059,61.2c0,63.65,61.346,68.593,80.154,68.593c25.23,0,70.52-0.064,153.73-113.301
			l6.856-11.116l-0.97,7.868c-0.256,2.08,0.957,4.06,2.924,4.778c0.506,0.186,1.027,0.273,1.541,0.273
			c1.49,0,2.924-0.741,3.773-2.046c11.275-17.333,21.966-42.103,9.472-62.232L362.096,135.553z"/>
		<path fill="none" stroke="#000000" stroke-width="8" stroke-linecap="round" stroke-linejoin="round" stroke-miterlimit="10" d="
			M362.096,135.553l-8.966-18.017c0,0-7.55,17.921-14.47,31.563c-6.629-4.874-14.207-7.25-23.109-7.25
			c-15.615,0-31.736,7.678-42.51,14.117c-1.813,1.082-2.627,3.278-1.963,5.28c0.664,2.003,2.645,3.272,4.73,3.059l40.262-4.127
			c0.336-0.038,0.639,0.113,0.826,0.409s0.193,0.667,0.018,0.96l-16.361,27.276c-1.025,1.711-0.803,3.894,0.547,5.361
			c1.35,1.469,3.506,1.874,5.297,0.994l28.121-13.815c0.271-0.135,0.633-0.111,0.906,0.084c0.275,0.195,0.414,0.518,0.373,0.855
			l-4.578,37.158c-0.256,2.08,0.957,4.06,2.924,4.778c0.506,0.186,1.027,0.273,1.541,0.273c1.49,0,2.924-0.741,3.773-2.046
			c11.275-17.333,21.966-42.103,9.472-62.232L362.096,135.553z"/>
	</g>
</g>
<g id="pivot">
	<circle fill="none" cx="192.778" cy="339.137" r="14.132"/>
</g>
</svg>
