<?xml version="1.0" encoding="utf-8"?>
<!-- Generator: Adobe Illustrator 16.0.0, SVG Export Plug-In . SVG Version: 6.00 Build 0)  -->
<!DOCTYPE svg PUBLIC "-//W3C//DTD SVG 1.1//EN" "http://www.w3.org/Graphics/SVG/1.1/DTD/svg11.dtd">
<svg version="1.1" xmlns="http://www.w3.org/2000/svg" xmlns:xlink="http://www.w3.org/1999/xlink" x="0px" y="0px"
	 width="453.543px" height="453.543px" viewBox="0 0 453.543 453.543" enable-background="new 0 0 453.543 453.543"
	 xml:space="preserve">
<g id="kvadrat">
</g>
<g id="bg" display="none">
	<rect x="-322.723" y="-5847.458" display="inline" width="15266.867" height="13678.951"/>
</g>
<g id="barvno" display="none">
	<g id="rdeča7bela" display="inline">
	</g>
	<g display="inline">
		
			<path fill="#C99D66" stroke="#000000" stroke-width="8" stroke-linecap="round" stroke-linejoin="round" stroke-miterlimit="10" d="
			M387.359,232.537c0,30.146-71.897,43.054-160.588,43.054c-88.689,0-160.588-12.908-160.588-43.054
			c0-11.918,11.236-22.942,30.304-31.919c29.165-13.729,76.655-22.666,130.284-22.666
			C315.462,177.952,387.359,202.391,387.359,232.537z"/>
		<path fill="none" stroke="#000000" stroke-width="8" stroke-linecap="round" stroke-linejoin="round" stroke-miterlimit="10" d="
			M164.685,230.707c0,0-10.71-26.214-51.679-36.396"/>
		<path fill="none" stroke="#000000" stroke-width="8" stroke-linecap="round" stroke-linejoin="round" stroke-miterlimit="10" d="
			M238.178,219.312c0,0-6.936-40.613-68.281-37.191"/>
		<path fill="none" stroke="#000000" stroke-width="8" stroke-linecap="round" stroke-linejoin="round" stroke-miterlimit="10" d="
			M320.362,226.534c0,0-11.623-41.902-72.762-47.969"/>
	</g>
	
		<rect x="-833.008" y="-6267.467" display="inline" fill="none" stroke="#000000" stroke-miterlimit="10" width="16736" height="13952"/>
</g>
<g id="sivinsko">
	<g id="rdeča7bela_copy_3">
	</g>
	<g>
		<g>
			<path fill="#A4A4A4" d="M387.359,232.537c0,30.146-71.897,43.054-160.588,43.054c-88.689,0-160.588-12.908-160.588-43.054
				c0-11.918,11.236-22.942,30.304-31.919c29.165-13.729,76.655-22.666,130.284-22.666
				C315.462,177.952,387.359,202.391,387.359,232.537z"/>
			<path d="M226.771,279.591c-46.815,0-86.404-3.573-114.489-10.333c-33.243-8.002-50.099-20.356-50.099-36.72
				c0-13.209,11.273-25.498,32.6-35.538c30.658-14.431,79.999-23.047,131.988-23.047c43.321,0,84.105,5.753,114.84,16.2
				c32.08,10.904,49.748,25.957,49.748,42.385c0,16.364-16.855,28.718-50.099,36.72
				C313.176,276.018,273.587,279.591,226.771,279.591z M226.771,181.952c-50.869,0-98.936,8.331-128.581,22.285
				c-18.061,8.502-28.007,18.553-28.007,28.3c0,24.089,60.001,39.054,156.588,39.054s156.588-14.964,156.588-39.054
				C383.359,208.108,320.438,181.952,226.771,181.952z"/>
		</g>
		<path d="M164.686,234.708c-1.572,0-3.063-0.933-3.699-2.475c-0.434-1.035-10.701-24.535-48.946-34.04
			c-2.144-0.533-3.45-2.703-2.917-4.847c0.533-2.144,2.703-3.448,4.847-2.917c42.451,10.55,53.948,37.617,54.417,38.765
			c0.835,2.045-0.146,4.38-2.19,5.215C165.702,234.612,165.19,234.708,164.686,234.708z"/>
		<path d="M238.173,223.312c-1.909,0-3.597-1.371-3.936-3.313c-0.285-1.571-7.392-37.04-64.118-33.885
			c-2.208,0.12-4.094-1.565-4.216-3.771c-0.123-2.206,1.565-4.093,3.771-4.216c33.199-1.855,51.085,9.052,60.244,18.526
			c10.145,10.494,12.124,21.521,12.203,21.986c0.372,2.178-1.092,4.244-3.27,4.616C238.623,223.293,238.396,223.312,238.173,223.312
			z"/>
		<path d="M320.36,230.535c-1.749,0-3.354-1.155-3.849-2.92c-0.046-0.161-2.952-10.003-12.83-20.381
			c-13.31-13.984-32.312-22.291-56.476-24.688c-2.198-0.218-3.804-2.177-3.585-4.375s2.174-3.807,4.375-3.585
			c32.817,3.256,51.736,16.753,61.829,27.502c11.095,11.816,14.263,22.912,14.392,23.378c0.59,2.129-0.657,4.333-2.785,4.924
			C321.074,230.488,320.714,230.535,320.36,230.535z"/>
	</g>
	<path d="M15903.492,7685.033h-16737v-13953h16737V7685.033z M-833.008,7684.033h16736l-0.5-13951h-16735.5l0.5,13951H-833.008z"/>
</g>
<g id="linijsko" display="none">
	<g id="rdeča7bela_copy" display="inline">
	</g>
	<g display="inline">
		<path fill="none" stroke="#000000" stroke-width="8" stroke-linecap="round" stroke-linejoin="round" stroke-miterlimit="10" d="
			M387.359,232.537c0,30.146-71.897,43.054-160.588,43.054c-88.689,0-160.588-12.908-160.588-43.054
			c0-11.918,11.236-22.942,30.304-31.919c29.165-13.729,76.655-22.666,130.284-22.666
			C315.462,177.952,387.359,202.391,387.359,232.537z"/>
		<path fill="none" stroke="#000000" stroke-width="8" stroke-linecap="round" stroke-linejoin="round" stroke-miterlimit="10" d="
			M164.685,230.707c0,0-10.71-26.214-51.679-36.396"/>
		<path fill="none" stroke="#000000" stroke-width="8" stroke-linecap="round" stroke-linejoin="round" stroke-miterlimit="10" d="
			M238.178,219.312c0,0-6.936-40.613-68.281-37.191"/>
		<path fill="none" stroke="#000000" stroke-width="8" stroke-linecap="round" stroke-linejoin="round" stroke-miterlimit="10" d="
			M320.362,226.534c0,0-11.623-41.902-72.762-47.969"/>
	</g>
</g>
<g id="pivot">
	<circle fill="none" cx="218.436" cy="274.39" r="14.133"/>
</g>
</svg>
