<?xml version="1.0" encoding="utf-8"?>
<!-- Generator: Adobe Illustrator 16.0.0, SVG Export Plug-In . SVG Version: 6.00 Build 0)  -->
<!DOCTYPE svg PUBLIC "-//W3C//DTD SVG 1.1//EN" "http://www.w3.org/Graphics/SVG/1.1/DTD/svg11.dtd">
<svg version="1.1" xmlns="http://www.w3.org/2000/svg" xmlns:xlink="http://www.w3.org/1999/xlink" x="0px" y="0px"
	 width="453.543px" height="453.543px" viewBox="0 0 453.543 453.543" enable-background="new 0 0 453.543 453.543"
	 xml:space="preserve">
<g id="kvadrat">
</g>
<g id="bg" display="none">
	<rect x="-4404.613" y="-234.859" display="inline" width="15266.867" height="13678.951"/>
</g>
<g id="color" display="none">
	<g display="inline">
		
			<path fill="#FFCF00" stroke="#000000" stroke-width="8" stroke-linecap="round" stroke-linejoin="round" stroke-miterlimit="10" d="
			M354.125,154.563l-0.159,0.041c-4.408-13.671-18.432-6.081-37.252-18.43C161.327,34.21,82.844,179.809,78.111,198.644
			c-1.888,7.508-7.504,13.161-12.936,18.335c-4.829,4.595-10.789,9.506-12.498,16.26c-0.617,2.434-0.771,4.382-0.093,6.858
			c0.966,3.512,4.241,6.532,7.34,8.236c3.21,1.77,6.817,2.712,10.359,3.542c7.657,1.794,15.96,3.011,22.329,8.004
			c0.796,0.625,1.551,1.302,2.254,2.029c13.307,13.765,152.249,98.206,236.331-71.115
			C341.58,169.89,357.824,169.475,354.125,154.563z"/>
		<g>
			<path fill="#FFFFFF" d="M392.4,241.907h-3.002H186.593h-3h-9.004c0.354,19.88,5.936,39.357,16.144,56.331
				c9.919,16.493,23.966,30.296,40.626,39.914l0.005,0.003c17.145,9.899,36.728,15.13,56.632,15.13
				c29.943,0,58.19-11.561,79.534-32.559c21.313-20.964,33.342-48.955,33.873-78.82H392.4z"/>
			<path fill="none" stroke="#FFFFFF" stroke-miterlimit="10" d="M392.4,241.907h-3.002H186.593h-3h-9.004
				c0.354,19.88,5.936,39.357,16.144,56.331c9.919,16.493,23.966,30.296,40.626,39.914l0.005,0.003
				c17.145,9.899,36.728,15.13,56.632,15.13c29.943,0,58.19-11.561,79.534-32.559c21.313-20.964,33.342-48.955,33.873-78.82H392.4z"
				/>
			<g>
				<path fill="#FFCF00" d="M292.497,252.772V353.19c26.599-1.035,51.632-11.217,71.384-29.035L292.497,252.772z"/>
				<path fill="#FFCF00" d="M370.323,317.872c19.564-20.618,30.572-47.433,31.08-75.964H392.4h-3.002H294.36L370.323,317.872z"/>
				<path fill="#FFCF00" d="M190.733,298.238c4.257,7.08,9.28,13.659,14.939,19.629l75.96-75.96h-95.039h-3h-9.004
					C174.944,261.787,180.525,281.265,190.733,298.238z"/>
				<path fill="#FFCF00" d="M283.497,252.771l-71.375,71.375c5.896,5.313,12.338,10.022,19.237,14.005l0.005,0.003
					c15.852,9.154,33.786,14.305,52.133,15.032V252.771z"/>
			</g>
			<path fill="none" stroke="#FFFFFF" stroke-width="8" stroke-miterlimit="10" d="M287.995,348.037
				c-18.983,0-37.657-4.99-54.006-14.427l-0.079-0.046c-15.858-9.174-29.231-22.321-38.678-38.029
				c-8.816-14.662-14.015-31.285-15.165-48.376h215.862c-1.758,26.463-13.032,51.089-32.081,69.826
				C343.492,337.007,316.553,348.037,287.995,348.037L287.995,348.037z"/>
			<path fill="none" stroke="#000000" stroke-width="8" stroke-linecap="round" stroke-linejoin="round" stroke-miterlimit="10" d="
				M392.4,241.907h-3.002H186.593h-3h-9.004c0.354,19.88,5.936,39.357,16.144,56.331c9.919,16.493,23.966,30.296,40.626,39.914
				l0.005,0.003c17.145,9.899,36.728,15.13,56.632,15.13c29.943,0,58.19-11.561,79.534-32.559
				c21.313-20.964,33.342-48.955,33.873-78.82H392.4z"/>
			<path fill="#FCE800" d="M209.292,320.564"/>
		</g>
	</g>
	<g id="rdeča7bela" display="inline">
	</g>
	
		<rect x="-4914.898" y="-654.868" display="inline" fill="none" stroke="#000000" stroke-miterlimit="10" width="16736" height="13952"/>
</g>
<g id="cb_1_">
	<g>
		<g>
			<path fill="#C7C7C7" d="M354.125,154.563l-0.159,0.041c-4.408-13.671-18.432-6.081-37.252-18.43
				C161.327,34.21,82.844,179.809,78.111,198.644c-1.888,7.508-7.504,13.161-12.936,18.335c-4.829,4.595-10.789,9.506-12.498,16.26
				c-0.617,2.434-0.771,4.382-0.093,6.858c0.966,3.512,4.241,6.532,7.34,8.236c3.21,1.77,6.817,2.712,10.359,3.542
				c7.657,1.794,15.96,3.011,22.329,8.004c0.796,0.625,1.551,1.302,2.254,2.029c13.307,13.765,152.249,98.206,236.331-71.115
				C341.58,169.89,357.824,169.475,354.125,154.563z"/>
			<path d="M191.491,299.098c-0.001,0,0,0-0.001,0c-50.374,0-92.164-26.821-99.499-34.409c-0.565-0.585-1.187-1.145-1.847-1.663
				c-4.719-3.699-10.844-5.05-17.328-6.481c-1.157-0.255-2.308-0.509-3.444-0.775c-3.734-0.875-7.688-1.9-11.378-3.934
				c-4.667-2.566-8.132-6.559-9.265-10.678c-0.998-3.64-0.555-6.429,0.072-8.902c1.804-7.127,7.206-12.174,11.972-16.627
				c0.558-0.521,1.109-1.036,1.646-1.547c5.529-5.268,10.236-10.14,11.813-16.413c2.164-8.608,15.284-33.955,37.158-56.278
				c20.174-20.589,54.134-45.132,101.349-45.132c33.467,0,69.188,12.305,106.17,36.572c7.818,5.13,14.631,6.513,20.641,7.733
				c7.437,1.51,14.478,2.94,17.816,11.655c0.298,0.411,0.518,0.88,0.642,1.382c2.64,10.642-3.092,15.885-9.16,21.437
				c-4.602,4.21-9.818,8.982-14.066,17.537c-18.982,38.226-42.286,66.603-69.262,84.343
				C243.136,291.634,218.228,299.098,191.491,299.098z M212.738,104.258c-44.437,0-76.533,23.237-95.634,42.731
				c-22.19,22.646-33.658,46.84-35.113,52.629c-2.097,8.339-7.845,14.34-14.056,20.257c-0.556,0.529-1.125,1.061-1.701,1.599
				c-4.155,3.882-8.451,7.896-9.678,12.747c-0.516,2.032-0.544,3.248-0.113,4.819c0.545,1.982,2.719,4.309,5.409,5.789
				c2.803,1.545,6.153,2.405,9.345,3.153c1.103,0.258,2.22,0.505,3.342,0.752c7.074,1.561,14.388,3.174,20.542,7.998
				c0.949,0.744,1.844,1.551,2.663,2.397c6.543,6.769,46.618,31.968,93.747,31.969c56.689,0,102.488-34.345,136.125-102.083
				c4.913-9.892,10.967-15.431,15.832-19.881c5.784-5.292,7.951-7.59,7.017-12.596c-0.122-0.222-0.225-0.458-0.305-0.707
				c-1.625-5.041-4.404-5.845-12.202-7.428c-6.385-1.297-14.332-2.91-23.438-8.885C278.863,116.122,244.619,104.258,212.738,104.258
				z"/>
		</g>
		<g>
			<path fill="#FFFFFF" d="M392.4,241.907h-3.002H186.593h-3h-9.004c0.354,19.88,5.936,39.357,16.144,56.331
				c9.919,16.493,23.966,30.296,40.626,39.914l0.005,0.003c17.145,9.899,36.728,15.13,56.632,15.13
				c29.943,0,58.19-11.561,79.534-32.559c21.313-20.964,33.342-48.955,33.873-78.82H392.4z"/>
			<path fill="#FFFFFF" d="M287.996,353.786c-19.994,0-39.663-5.255-56.882-15.197c-16.734-9.661-30.845-23.523-40.809-40.092
				c-10.252-17.046-15.859-36.612-16.215-56.58l-0.009-0.509h227.831l-0.009,0.509c-0.534,29.996-12.616,58.112-34.022,79.167
				C346.445,342.172,318.075,353.786,287.996,353.786z M175.1,242.407c0.438,19.617,5.987,38.821,16.062,55.573
				c9.877,16.424,23.864,30.166,40.447,39.739c17.072,9.857,36.568,15.066,56.387,15.066c29.815,0,57.936-11.512,79.184-32.415
				c21.096-20.751,33.057-48.423,33.713-77.963H175.1z"/>
			<g>
				<path fill="#C7C7C7" d="M292.497,252.772V353.19c26.599-1.035,51.632-11.217,71.384-29.035L292.497,252.772z"/>
				<path fill="#C7C7C7" d="M370.323,317.872c19.564-20.618,30.572-47.433,31.08-75.964H392.4h-3.002H294.36L370.323,317.872z"/>
				<path fill="#C7C7C7" d="M190.733,298.238c4.257,7.08,9.28,13.659,14.939,19.629l75.96-75.96h-95.039h-3h-9.004
					C174.944,261.787,180.525,281.265,190.733,298.238z"/>
				<path fill="#C7C7C7" d="M283.497,252.771l-71.375,71.375c5.896,5.313,12.338,10.022,19.237,14.005l0.005,0.003
					c15.852,9.154,33.786,14.305,52.133,15.032V252.771z"/>
			</g>
			<path fill="#FFFFFF" d="M287.995,352.037c-19.681,0-39.047-5.174-56.005-14.963l-0.103-0.06
				c-16.423-9.5-30.29-23.135-40.082-39.418c-9.099-15.132-14.538-32.48-15.728-50.169l-0.288-4.269h224.415l-0.283,4.265
				c-1.819,27.383-13.633,53.1-33.267,72.412C345.542,340.601,317.607,352.037,287.995,352.037z M184.435,251.159
				c1.631,14.939,6.511,29.486,14.226,42.314c9.096,15.126,21.978,27.792,37.252,36.628l0.1,0.059
				c15.72,9.074,33.704,13.877,51.982,13.877c27.5,0,53.443-10.62,73.049-29.904c17.211-16.929,27.952-39.152,30.523-62.974H184.435
				z"/>
			<path d="M287.996,357.286c-20.607,0-40.882-5.417-58.632-15.667c-17.247-9.957-31.789-24.244-42.059-41.319
				c-10.568-17.572-16.348-37.74-16.715-58.321c-0.019-1.073,0.394-2.109,1.146-2.875s1.78-1.197,2.854-1.197h226.813
				c1.073,0,2.102,0.431,2.854,1.197s1.165,1.801,1.146,2.875c-0.55,30.918-13.004,59.897-35.067,81.6
				C348.241,345.315,318.999,357.286,287.996,357.286z M178.737,245.907c0.979,17.76,6.276,35.059,15.423,50.27
				c9.573,15.917,23.127,29.234,39.198,38.511c16.541,9.551,35.432,14.598,54.637,14.598c28.891,0,56.141-11.155,76.729-31.41
				c19.589-19.269,31.05-44.692,32.532-71.968H178.737z"/>
			<path fill="#D4D4D4" d="M209.292,320.564"/>
		</g>
	</g>
	<g id="rdeča7bela_copy_3">
	</g>
	<path d="M11821.602,13297.633h-16737v-13953h16737V13297.633z M-4914.898,13296.633h16736l-0.5-13951h-16735.5l0.5,13951H-4914.898
		z"/>
</g>
<g id="cb" display="none">
	<g id="rdeča7bela_copy" display="inline">
	</g>
	
		<line display="inline" fill="none" stroke="#000000" stroke-width="8" stroke-linecap="round" stroke-linejoin="round" stroke-miterlimit="10" x1="287.069" y1="242.666" x2="287.069" y2="353.188"/>
	
		<line display="inline" fill="none" stroke="#000000" stroke-width="8" stroke-linecap="round" stroke-linejoin="round" stroke-miterlimit="10" x1="287.069" y1="242.666" x2="287.069" y2="353.188"/>
	
		<line display="inline" fill="none" stroke="#000000" stroke-width="8" stroke-linecap="round" stroke-linejoin="round" stroke-miterlimit="10" x1="287.069" y1="242.666" x2="208.918" y2="320.816"/>
	
		<line display="inline" fill="none" stroke="#000000" stroke-width="8" stroke-linecap="round" stroke-linejoin="round" stroke-miterlimit="10" x1="288.341" y1="242.666" x2="366.492" y2="320.816"/>
	
		<path display="inline" fill="none" stroke="#000000" stroke-width="8" stroke-linecap="round" stroke-linejoin="round" stroke-miterlimit="10" d="
		M174.589,241.907h9.004h3h111.798c11.53-13.673,22.575-30.509,32.807-51.113c10.382-20.905,26.626-21.319,22.927-36.231
		l-0.159,0.041c-4.408-13.671-18.432-6.081-37.252-18.43C161.327,34.21,82.844,179.809,78.111,198.644
		c-1.888,7.508-7.504,13.161-12.936,18.335c-4.829,4.595-10.789,9.506-12.498,16.26c-0.617,2.434-0.771,4.382-0.093,6.858
		c0.966,3.512,4.241,6.532,7.34,8.236c3.21,1.77,6.817,2.712,10.359,3.542c7.657,1.794,15.96,3.011,22.329,8.004
		c0.796,0.625,1.551,1.302,2.254,2.029c6.767,7,46.023,32.275,94.033,33.163C179.858,278.863,174.922,260.562,174.589,241.907z"/>
	<g display="inline">
		<g>
			<path fill="none" d="M209.292,320.564"/>
		</g>
	</g>
	
		<path display="inline" fill="none" stroke="#000000" stroke-width="8" stroke-linecap="round" stroke-linejoin="round" stroke-miterlimit="10" d="
		M392.4,241.907h-3.002H186.593h-3h-9.004c0.354,19.88,5.936,39.357,16.144,56.331c9.919,16.493,23.966,30.296,40.626,39.914
		l0.005,0.003c17.145,9.899,36.728,15.13,56.632,15.13c29.943,0,58.19-11.561,79.534-32.559
		c21.313-20.964,33.342-48.955,33.873-78.82H392.4z"/>
</g>
<g id="pivot">
	<circle fill="none" cx="252.565" cy="338.667" r="14.132"/>
</g>
</svg>
