<?xml version="1.0" encoding="utf-8"?>
<!-- Generator: Adobe Illustrator 16.0.0, SVG Export Plug-In . SVG Version: 6.00 Build 0)  -->
<!DOCTYPE svg PUBLIC "-//W3C//DTD SVG 1.1//EN" "http://www.w3.org/Graphics/SVG/1.1/DTD/svg11.dtd">
<svg version="1.1" xmlns="http://www.w3.org/2000/svg" xmlns:xlink="http://www.w3.org/1999/xlink" x="0px" y="0px"
	 width="453.543px" height="453.543px" viewBox="0 0 453.543 453.543" enable-background="new 0 0 453.543 453.543"
	 xml:space="preserve">
<g id="kvadrat">
</g>
<g id="bg" display="none">
	<rect x="-1853.431" y="-745.095" display="inline" width="15266.867" height="13678.951"/>
</g>
<g id="color" display="none">
	<g id="rdeča7bela" display="inline">
	</g>
	<g display="inline">
		
			<path fill="#BD1622" stroke="#000000" stroke-width="8" stroke-linecap="round" stroke-linejoin="round" stroke-miterlimit="10" d="
			M353.488,240.887c0,60.442-56.733,109.44-126.716,109.44c-69.983,0-126.716-48.998-126.716-109.44
			c0-44.513,30.772-82.821,74.946-99.92c14.351-5.553,72.669-8.396,82.512-6.276C312.642,146.557,353.488,189.602,353.488,240.887z"
			/>
		<path fill="none" stroke="#000000" stroke-width="6" stroke-linecap="round" stroke-linejoin="round" stroke-miterlimit="10" d="
			M250.087,315.936c0,0,43.178-5.763,66.111-58.697"/>
		
			<path fill="#39A935" stroke="#000000" stroke-width="8" stroke-linecap="round" stroke-linejoin="round" stroke-miterlimit="10" d="
			M315.663,154.409c-8.719-6.646-29.098-20.4-51.678-23.396c-8.519-1.131-16.537-0.542-24.02,1.706
			c-0.154-0.115-0.316-0.238-0.462-0.349l-1.191-0.887L242,103.216h-22.417l3.689,28.271l-1.225,0.916
			c-0.736,0.553-1.556,1.168-2.445,1.822c-8.701-3.481-18.193-4.565-28.392-3.212c-22.58,2.996-42.959,16.75-51.678,23.396
			c15.61,6.075,29.891,9.507,42.685,10.281c-5.128,10.109-9.031,22.598-11.659,37.404c11.992-1.129,38.213-5.355,54.822-20.941
			c1.73-1.624,3.288-3.341,4.709-5.133c0.609,0.729,1.239,1.457,1.917,2.178c11.33,12.074,30.129,20.5,55.912,25.075
			c-0.81-8.602-3.215-24.529-10.264-38.977C289.226,163.051,301.93,159.754,315.663,154.409z"/>
	</g>
	
		<rect x="-2363.716" y="-1165.104" display="inline" fill="none" stroke="#000000" stroke-miterlimit="10" width="16736" height="13952"/>
</g>
<g id="cb_1_">
	<g id="rdeča7bela_copy_3">
	</g>
	<g>
		<g>
			<path fill="#494949" d="M353.488,240.887c0,60.442-56.733,109.44-126.716,109.44c-69.983,0-126.716-48.998-126.716-109.44
				c0-44.513,30.772-82.821,74.946-99.92c14.351-5.553,72.669-8.396,82.512-6.276C312.642,146.557,353.488,189.602,353.488,240.887z
				"/>
			<path d="M226.772,354.328c-72.077,0-130.716-50.889-130.716-113.44c0-44.741,30.421-85.426,77.502-103.651
				c12.474-4.826,52.241-7.249,70.999-7.249c6.715,0,11.357,0.267,13.799,0.792c58.367,12.563,99.132,57.841,99.132,110.107
				C357.488,303.438,298.849,354.328,226.772,354.328z M244.557,137.988c-20.213,0-57.688,2.676-68.112,6.709
				c-43.975,17.022-72.39,54.779-72.39,96.19c0,58.14,55.05,105.44,122.716,105.44s122.716-47.3,122.716-105.44
				c0-48.461-38.167-90.523-92.816-102.287C255.816,138.417,252.922,137.988,244.557,137.988z"/>
		</g>
		<path d="M250.083,318.937c-1.48,0-2.769-1.096-2.97-2.604c-0.219-1.641,0.933-3.149,2.572-3.37
			c0.5-0.07,41.851-6.346,63.76-56.916c0.658-1.521,2.426-2.219,3.945-1.561c1.52,0.659,2.219,2.425,1.56,3.945
			c-23.339,53.871-66.635,60.233-68.466,60.478C250.35,318.928,250.216,318.937,250.083,318.937z"/>
		<g>
			<path fill="#7B7B7B" d="M315.663,154.409c-8.719-6.646-29.098-20.4-51.678-23.396c-8.519-1.131-16.537-0.542-24.02,1.706
				c-0.154-0.115-0.316-0.238-0.462-0.349l-1.191-0.887L242,103.216h-22.417l3.689,28.271l-1.225,0.916
				c-0.736,0.553-1.556,1.168-2.445,1.822c-8.701-3.481-18.193-4.565-28.392-3.212c-22.58,2.996-42.959,16.75-51.678,23.396
				c15.61,6.075,29.891,9.507,42.685,10.281c-5.128,10.109-9.031,22.598-11.659,37.404c11.992-1.129,38.213-5.355,54.822-20.941
				c1.73-1.624,3.288-3.341,4.709-5.133c0.609,0.729,1.239,1.457,1.917,2.178c11.33,12.074,30.129,20.5,55.912,25.075
				c-0.81-8.602-3.215-24.529-10.264-38.977C289.226,163.051,301.93,159.754,315.663,154.409z"/>
			<path d="M287.92,207.272c-0.232,0-0.466-0.021-0.699-0.062c-25.867-4.59-45.055-13.056-57.063-25.171
				c-0.665,0.701-1.346,1.378-2.038,2.028c-17.131,16.075-43.181,20.688-57.185,22.007c-1.242,0.116-2.47-0.353-3.316-1.272
				c-0.847-0.918-1.215-2.18-0.997-3.409c2.245-12.652,5.45-23.799,9.548-33.229c-11.673-1.36-24.455-4.724-38.086-10.029
				c-1.348-0.525-2.308-1.737-2.51-3.169s0.386-2.862,1.536-3.739c10.128-7.72,30.557-21.125,53.577-24.18
				c10.004-1.327,19.534-0.428,28.283,2.665c0.012-0.008,0.023-0.017,0.035-0.026l-3.387-25.953
				c-0.149-1.142,0.201-2.292,0.96-3.157s1.854-1.361,3.006-1.361H242c1.151,0,2.247,0.496,3.006,1.361s1.109,2.015,0.96,3.157
				l-3.146,24.11c6.891-1.528,14.175-1.794,21.691-0.796c23.021,3.055,43.448,16.46,53.576,24.18
				c1.151,0.877,1.738,2.307,1.536,3.739s-1.162,2.645-2.51,3.169c-11.897,4.631-23.175,7.791-33.609,9.42
				c5.653,13.674,7.68,27.708,8.398,35.341c0.117,1.244-0.354,2.471-1.272,3.316C289.886,206.9,288.917,207.272,287.92,207.272z
				 M230.092,172.019c1.184,0,2.308,0.525,3.069,1.435c0.66,0.789,1.22,1.426,1.765,2.006c9.942,10.595,26.207,18.273,48.396,22.858
				c-1.172-8.558-3.725-20.925-9.26-32.269c-0.571-1.171-0.536-2.548,0.094-3.688s1.777-1.903,3.073-2.042
				c9.221-0.992,19.277-3.362,29.975-7.06c-9.781-6.626-26.18-15.95-43.744-18.281c-7.869-1.045-15.393-0.517-22.343,1.571
				c-1.215,0.365-2.533,0.131-3.549-0.63l-1.644-1.229c-1.161-0.865-1.765-2.29-1.577-3.726l3.098-23.749h-13.305l3.1,23.753
				c0.187,1.433-0.414,2.855-1.57,3.721l-1.225,0.916c-0.737,0.555-1.569,1.178-2.47,1.84c-1.114,0.819-2.572,1.006-3.856,0.492
				c-8.042-3.218-16.93-4.214-26.38-2.96c-17.563,2.331-33.962,11.655-43.744,18.281c12.465,4.309,24.031,6.807,34.466,7.438
				c1.345,0.082,2.559,0.834,3.229,2.003s0.707,2.597,0.097,3.799c-4.325,8.527-7.772,18.933-10.27,30.991
				c12.325-1.699,33.432-6.402,47.128-19.255c1.514-1.422,2.965-3.004,4.313-4.703c0.748-0.942,1.88-1.498,3.082-1.513
				C230.058,172.019,230.075,172.019,230.092,172.019z"/>
		</g>
	</g>
	<path d="M14372.783,12787.396h-16737v-13953h16737V12787.396z M-2363.716,12786.396h16736l-0.5-13951h-16735.5l0.5,13951H-2363.716
		z"/>
</g>
<g id="cb" display="none">
	<g id="rdeča7bela_copy" display="inline">
	</g>
	<g display="inline">
		<path fill="none" stroke="#000000" stroke-width="6" stroke-linecap="round" stroke-linejoin="round" stroke-miterlimit="10" d="
			M250.087,315.936c0,0,43.178-5.763,66.111-58.697"/>
		<path fill="none" stroke="#000000" stroke-width="8" stroke-linecap="round" stroke-linejoin="round" stroke-miterlimit="10" d="
			M308.289,157.098c-10.928,3.764-21.166,6.18-30.632,7.198c7.049,14.448,9.455,30.375,10.264,38.977
			c-25.783-4.575-44.583-13.001-55.912-25.075c-0.677-0.722-1.307-1.449-1.917-2.178c-1.422,1.792-2.979,3.509-4.709,5.133
			c-16.609,15.586-42.831,19.812-54.822,20.941c2.627-14.806,6.531-27.294,11.659-37.404c-11.063-0.669-23.24-3.33-36.424-7.964
			c-27.94,20.076-45.739,50.319-45.739,84.162c0,60.442,56.733,109.44,126.716,109.44c69.983,0,126.716-48.998,126.716-109.44
			C353.488,207.258,335.924,177.173,308.289,157.098z"/>
		<path fill="none" stroke="#000000" stroke-width="8" stroke-linecap="round" stroke-linejoin="round" stroke-miterlimit="10" d="
			M315.663,154.409c-8.719-6.646-29.098-20.4-51.678-23.396c-8.519-1.131-16.537-0.542-24.02,1.706
			c-0.154-0.115-0.316-0.238-0.462-0.349l-1.191-0.887L242,103.216h-22.417l3.689,28.271l-1.225,0.916
			c-0.736,0.553-1.556,1.168-2.445,1.822c-8.701-3.481-18.193-4.565-28.392-3.212c-22.58,2.996-42.959,16.75-51.678,23.396
			c15.61,6.075,29.891,9.507,42.685,10.281c-5.128,10.109-9.031,22.598-11.659,37.404c11.992-1.129,38.213-5.355,54.822-20.941
			c1.73-1.624,3.288-3.341,4.709-5.133c0.609,0.729,1.239,1.457,1.917,2.178c11.33,12.074,30.129,20.5,55.912,25.075
			c-0.81-8.602-3.215-24.529-10.264-38.977C289.226,163.051,301.93,159.754,315.663,154.409z"/>
	</g>
</g>
<g id="pivot">
	<circle fill="none" cx="232.855" cy="350.711" r="14.132"/>
</g>
</svg>
