<?xml version="1.0" encoding="utf-8"?>
<!-- Generator: Adobe Illustrator 16.0.0, SVG Export Plug-In . SVG Version: 6.00 Build 0)  -->
<!DOCTYPE svg PUBLIC "-//W3C//DTD SVG 1.1//EN" "http://www.w3.org/Graphics/SVG/1.1/DTD/svg11.dtd">
<svg version="1.1" xmlns="http://www.w3.org/2000/svg" xmlns:xlink="http://www.w3.org/1999/xlink" x="0px" y="0px"
	 width="453.543px" height="453.543px" viewBox="0 0 453.543 453.543" enable-background="new 0 0 453.543 453.543"
	 xml:space="preserve">
<g id="kvadrat">
</g>
<g id="bg" display="none">
	<rect x="-5425.085" y="-234.859" display="inline" width="15266.867" height="13678.951"/>
</g>
<g id="color" display="none">
	<g id="rdeča7bela" display="inline">
	</g>
	<g display="inline">
		
			<path fill="#EE7D00" stroke="#000000" stroke-width="8" stroke-linecap="round" stroke-linejoin="round" stroke-miterlimit="10" d="
			M300.988,135.484c33.457,34.198,23.891,98.624-21.54,144.036c-26.425,26.435-59.683,41.592-91.235,41.592
			c-21.371,0-39.76-7.07-53.194-20.46c25.497,25.464,58.011,40.892,91.571,43.448c3.289,0.246,6.543,0.373,9.772,0.373
			c30.02,0,57.152-10.768,77.208-30.823C359.069,268.144,353.382,188.358,300.988,135.484z"/>
		<g>
			<g>
				<g>
					<path fill="#EE7D00" d="M188.659,316.657c-9.931,0-19.311-1.678-27.878-4.987c-18.018-6.96-30.911-20.396-37.285-38.856
						c-8.767-25.39-3.894-56.575,13.37-85.56c24.29-40.782,67.917-68.183,108.562-68.183c9.931,0,19.311,1.678,27.878,4.987
						c18.017,6.959,30.909,20.396,37.284,38.856c8.768,25.391,3.895,56.576-13.369,85.561
						C272.93,289.256,229.303,316.657,188.659,316.657z"/>
					<path fill="#FFFFFF" d="M245.427,121.071L245.427,121.071c9.684,0,18.82,1.633,27.157,4.853
						c17.45,6.74,29.938,19.757,36.114,37.643c8.575,24.833,3.765,55.407-13.196,83.884c-11.896,19.974-28.569,36.953-48.214,49.102
						c-19.153,11.844-39.426,18.104-58.628,18.104c-9.684,0-18.821-1.633-27.158-4.853c-17.451-6.741-29.939-19.758-36.115-37.644
						c-8.575-24.832-3.765-55.406,13.197-83.883c11.896-19.974,28.568-36.953,48.214-49.101
						C205.952,127.332,226.226,121.071,245.427,121.071 M245.427,117.071c-40.131,0-85.064,26.821-110.28,69.159
						c-31.472,52.838-20.318,109.833,24.913,127.305c8.988,3.472,18.646,5.122,28.599,5.122c40.13,0,85.062-26.819,110.279-69.159
						c31.471-52.836,20.317-109.834-24.913-127.306C265.037,118.72,255.38,117.071,245.427,117.071L245.427,117.071z"/>
				</g>
				<path d="M245.426,117.07c9.953,0,19.61,1.651,28.599,5.122c45.23,17.471,56.383,74.469,24.913,127.306
					c-25.215,42.336-70.151,69.159-110.278,69.159c-9.957,0-19.608-1.65-28.6-5.122c-45.231-17.472-56.385-74.467-24.913-127.305
					C160.363,143.893,205.295,117.071,245.426,117.07 M245.427,109.07L245.427,109.07c-44.043,0-91.124,29.363-117.153,73.065
					c-18.774,31.521-23.961,65.761-14.23,93.942c7.261,21.027,22.58,36.98,43.134,44.92c9.722,3.755,20.313,5.66,31.482,5.66
					c44.042,0,91.122-29.363,117.151-73.066c18.774-31.52,23.961-65.76,14.229-93.94c-7.261-21.028-22.579-36.98-43.133-44.92
					C267.187,110.976,256.595,109.07,245.427,109.07L245.427,109.07z"/>
			</g>
			<g>
				<polygon fill="#FFFFFF" points="121.987,268.85 118.847,255.795 220.224,209.239 225.667,221.046 				"/>
				<polygon fill="#FFFFFF" points="167.999,313.189 154.821,309.628 214.784,208.954 225.953,215.606 				"/>
				<polygon fill="#FFFFFF" points="228.393,309.71 209.415,212.734 222.173,210.236 240.657,304.336 				"/>
				<polygon fill="#FFFFFF" points="294.693,254.88 208.637,221.585 213.321,209.459 302.066,243.738 				"/>
				<polygon fill="#FFFFFF" points="213.861,226.489 208.418,214.684 312.099,166.876 314.537,180.39 				"/>
				<polygon fill="#FFFFFF" points="219.301,226.774 208.132,220.122 266.301,122.69 279.265,126.1 				"/>
				<polygon fill="#FFFFFF" points="211.912,225.491 193.643,132.153 205.693,126.018 224.67,222.996 				"/>
				<polygon fill="#FFFFFF" points="220.764,226.27 132.019,191.989 140.828,181 225.448,214.144 				"/>
			</g>
		</g>
	</g>
	
		<rect x="-5935.371" y="-654.868" display="inline" fill="none" stroke="#000000" stroke-miterlimit="10" width="16736" height="13952"/>
</g>
<g id="cb_1_">
	<g id="rdeča7bela_copy_3">
	</g>
	<g>
		<g>
			<path fill="#919191" d="M300.988,135.484c33.457,34.198,23.891,98.624-21.54,144.036c-26.425,26.435-59.683,41.592-91.235,41.592
				c-21.371,0-39.76-7.07-53.194-20.46c25.497,25.464,58.011,40.892,91.571,43.448c3.289,0.246,6.543,0.373,9.772,0.373
				c30.02,0,57.152-10.768,77.208-30.823C359.069,268.144,353.382,188.358,300.988,135.484z"/>
			<path d="M236.361,348.474c-3.28,0-6.668-0.129-10.07-0.384c-34.511-2.629-67.925-18.468-94.094-44.602
				c-0.001-0.001-0.001-0.001-0.002-0.002c-0.001-0.001-0.001-0.001-0.003-0.003c-1.563-1.561-1.565-4.092-0.005-5.655
				c1.559-1.563,4.09-1.567,5.655-0.008c12.664,12.622,30.082,19.293,50.371,19.293c30.506,0,62.729-14.732,88.406-40.42
				c43.747-43.729,53.396-105.819,21.51-138.411c-1.542-1.576-1.518-4.101,0.053-5.647s4.095-1.532,5.648,0.035
				c53.892,54.385,59.53,136.841,12.568,183.81C295.765,337.111,267.341,348.474,236.361,348.474z M172.545,323.821
				c17.043,9.251,35.532,14.858,54.347,16.292c3.199,0.239,6.387,0.361,9.468,0.361c28.843,0,55.258-10.531,74.379-29.652
				c34.847-34.852,38.438-90.875,12.96-138.139c1.648,9.754,1.692,20.245,0.057,31.204c-4.185,28.041-18.916,55.906-41.481,78.462
				c-27.166,27.176-61.451,42.763-94.063,42.763C182.801,325.113,177.57,324.679,172.545,323.821z"/>
		</g>
		<g>
			<g>
				<g>
					<path fill="#919191" d="M274.025,122.192c45.23,17.471,56.383,74.469,24.913,127.306
						c-31.472,52.84-93.649,81.507-138.878,64.037c-45.231-17.472-56.385-74.467-24.913-127.305
						C166.617,133.392,228.796,104.721,274.025,122.192z"/>
					<path fill="#FFFFFF" d="M245.427,121.071L245.427,121.071c9.684,0,18.82,1.633,27.157,4.853
						c17.45,6.74,29.938,19.757,36.114,37.643c8.575,24.833,3.765,55.407-13.196,83.884c-11.896,19.974-28.569,36.953-48.214,49.102
						c-19.153,11.844-39.426,18.104-58.628,18.104c-9.684,0-18.821-1.633-27.158-4.853c-17.451-6.741-29.939-19.758-36.115-37.644
						c-8.575-24.832-3.765-55.406,13.197-83.883c11.896-19.974,28.568-36.953,48.214-49.101
						C205.952,127.332,226.226,121.071,245.427,121.071 M245.427,117.071c-40.131,0-85.064,26.821-110.28,69.159
						c-31.472,52.838-20.318,109.833,24.913,127.305c8.988,3.472,18.646,5.122,28.599,5.122c40.13,0,85.062-26.819,110.279-69.159
						c31.471-52.836,20.317-109.834-24.913-127.306C265.037,118.72,255.38,117.071,245.427,117.071L245.427,117.071z"/>
				</g>
				<path d="M245.426,117.07c9.953,0,19.61,1.651,28.599,5.122c45.23,17.471,56.383,74.469,24.913,127.306
					c-25.215,42.336-70.151,69.159-110.278,69.159c-9.957,0-19.608-1.65-28.6-5.122c-45.231-17.472-56.385-74.467-24.913-127.305
					C160.363,143.893,205.295,117.071,245.426,117.07 M245.427,109.07L245.427,109.07c-44.043,0-91.124,29.363-117.153,73.065
					c-18.774,31.521-23.961,65.761-14.23,93.942c7.261,21.027,22.58,36.98,43.134,44.92c9.722,3.755,20.313,5.66,31.482,5.66
					c44.042,0,91.122-29.363,117.151-73.066c18.774-31.52,23.961-65.76,14.229-93.94c-7.261-21.028-22.579-36.98-43.133-44.92
					C267.187,110.976,256.595,109.07,245.427,109.07L245.427,109.07z"/>
			</g>
			<g>
				<polygon fill="#FFFFFF" points="121.987,268.85 118.847,255.795 220.224,209.239 225.667,221.046 				"/>
				<polygon fill="#FFFFFF" points="167.999,313.189 154.821,309.628 214.784,208.954 225.953,215.606 				"/>
				<polygon fill="#FFFFFF" points="228.393,309.71 209.415,212.734 222.173,210.236 240.657,304.336 				"/>
				<polygon fill="#FFFFFF" points="294.693,254.88 208.637,221.585 213.321,209.459 302.066,243.738 				"/>
				<polygon fill="#FFFFFF" points="213.861,226.489 208.418,214.684 312.099,166.876 314.537,180.39 				"/>
				<polygon fill="#FFFFFF" points="219.301,226.774 208.132,220.122 266.301,122.69 279.265,126.1 				"/>
				<polygon fill="#FFFFFF" points="211.912,225.491 193.643,132.153 205.693,126.018 224.67,222.996 				"/>
				<polygon fill="#FFFFFF" points="220.764,226.27 132.019,191.989 140.828,181 225.448,214.144 				"/>
			</g>
		</g>
	</g>
	<path d="M10801.129,13297.633h-16737v-13953h16737V13297.633z M-5935.371,13296.633h16736l-0.5-13951h-16735.5l0.5,13951H-5935.371
		z"/>
</g>
<g id="cb" display="none">
	<g id="rdeča7bela_copy" display="inline">
	</g>
	<g display="inline">
		<path fill="none" stroke="#000000" stroke-width="8" stroke-linecap="round" stroke-linejoin="round" stroke-miterlimit="10" d="
			M300.988,135.484c33.457,34.198,23.891,98.624-21.54,144.036c-26.425,26.435-59.683,41.592-91.235,41.592
			c-21.371,0-39.76-7.07-53.194-20.46c25.497,25.464,58.011,40.892,91.571,43.448c3.289,0.246,6.543,0.373,9.772,0.373
			c30.02,0,57.152-10.768,77.208-30.823C359.069,268.144,353.382,188.358,300.988,135.484z"/>
	</g>
	<g display="inline">
		
			<line fill="none" stroke="#000000" stroke-width="8" stroke-linecap="round" stroke-linejoin="round" stroke-miterlimit="10" x1="115.633" y1="263.535" x2="319.982" y2="172.823"/>
	</g>
	
		<line display="inline" fill="none" stroke="#000000" stroke-width="8" stroke-linecap="round" stroke-linejoin="round" stroke-miterlimit="10" x1="275.303" y1="118.737" x2="158.313" y2="317.443"/>
	
		<line display="inline" fill="none" stroke="#000000" stroke-width="8" stroke-linecap="round" stroke-linejoin="round" stroke-miterlimit="10" x1="130.682" y1="185.168" x2="301.17" y2="252.188"/>
	
		<line display="inline" fill="none" stroke="#000000" stroke-width="8" stroke-linecap="round" stroke-linejoin="round" stroke-miterlimit="10" x1="235.502" y1="311.329" x2="198.289" y2="125.204"/>
	<g display="inline">
		<path d="M245.426,117.07c9.953,0,19.61,1.651,28.599,5.122c45.23,17.471,56.383,74.469,24.913,127.306
			c-25.215,42.336-70.151,69.159-110.278,69.159c-9.957,0-19.608-1.65-28.6-5.122c-45.231-17.472-56.385-74.467-24.913-127.305
			C160.363,143.893,205.295,117.071,245.426,117.07 M245.427,109.07L245.427,109.07c-44.043,0-91.124,29.363-117.153,73.065
			c-18.774,31.521-23.961,65.761-14.23,93.942c7.261,21.027,22.58,36.98,43.134,44.92c9.722,3.755,20.313,5.66,31.482,5.66
			c44.042,0,91.122-29.363,117.151-73.066c18.774-31.52,23.961-65.76,14.229-93.94c-7.261-21.028-22.579-36.98-43.133-44.92
			C267.187,110.976,256.595,109.07,245.427,109.07L245.427,109.07z"/>
	</g>
</g>
<g id="pivot">
	<circle fill="none" cx="231.803" cy="347.347" r="14.132"/>
</g>
</svg>
