<?xml version="1.0" encoding="utf-8"?>
<!-- Generator: Adobe Illustrator 16.0.0, SVG Export Plug-In . SVG Version: 6.00 Build 0)  -->
<!DOCTYPE svg PUBLIC "-//W3C//DTD SVG 1.1//EN" "http://www.w3.org/Graphics/SVG/1.1/DTD/svg11.dtd">
<svg version="1.1" xmlns="http://www.w3.org/2000/svg" xmlns:xlink="http://www.w3.org/1999/xlink" x="0px" y="0px"
	 width="453.543px" height="453.543px" viewBox="0 0 453.543 453.543" enable-background="new 0 0 453.543 453.543"
	 xml:space="preserve">
<g id="kvadrat">
</g>
<g id="bg" display="none">
	<rect x="-1853.431" y="-5847.458" display="inline" width="15266.867" height="13678.951"/>
</g>
<g id="barvno" display="none">
	<g id="rdeča7bela" display="inline">
	</g>
	<g display="inline">
		
			<polygon fill="#7E4E24" stroke="#000000" stroke-width="8" stroke-linecap="round" stroke-linejoin="round" stroke-miterlimit="10" points="
			230.981,374.89 177.921,196.384 284.043,196.384 		"/>
		
			<path fill="#CB78A6" stroke="#000000" stroke-width="8" stroke-linecap="round" stroke-linejoin="round" stroke-miterlimit="10" d="
			M227.813,163.038c0,23.014,6.251,41.671-41.671,41.671c-23.014,0-41.671-18.657-41.671-41.671s18.657-41.671,41.671-41.671
			C209.157,121.367,227.813,140.024,227.813,163.038z"/>
		
			<path fill="#E69F00" stroke="#000000" stroke-width="8" stroke-linecap="round" stroke-linejoin="round" stroke-miterlimit="10" d="
			M309.072,163.038c0,23.014-18.657,41.671-41.671,41.671c-50.005,0-41.671-18.657-41.671-41.671s18.656-41.671,41.671-41.671
			C290.415,121.367,309.072,140.024,309.072,163.038z"/>
		
			<circle fill="#CABA9F" stroke="#000000" stroke-width="8" stroke-linecap="round" stroke-linejoin="round" stroke-miterlimit="10" cx="224.688" cy="120.325" r="41.671"/>
	</g>
	
		<rect x="-2363.716" y="-6267.467" display="inline" fill="none" stroke="#000000" stroke-miterlimit="10" width="16736" height="13952"/>
</g>
<g id="sivinsko">
	<g id="rdeča7bela_copy_3">
	</g>
	<g>
		<g>
			<polygon fill="#585858" points="230.981,374.89 177.921,196.384 284.043,196.384 			"/>
			<path d="M230.981,378.89c-1.77,0-3.33-1.164-3.834-2.86l-53.061-178.506c-0.359-1.21-0.127-2.52,0.628-3.531
				c0.755-1.012,1.943-1.608,3.206-1.608h106.122c1.263,0,2.451,0.596,3.206,1.608c0.755,1.012,0.988,2.321,0.628,3.531
				l-53.062,178.506C234.311,377.726,232.751,378.89,230.981,378.89z M183.283,200.384l47.699,160.467l47.7-160.467H183.283z"/>
		</g>
		<g>
			<path fill="#969696" d="M227.813,163.038c0,23.014,6.251,41.671-41.671,41.671c-23.014,0-41.671-18.657-41.671-41.671
				s18.657-41.671,41.671-41.671C209.157,121.367,227.813,140.024,227.813,163.038z"/>
			<path d="M186.143,208.709c-25.183,0-45.671-20.488-45.671-45.671s20.488-45.671,45.671-45.671s45.671,20.488,45.671,45.671
				c0,2.388,0.07,4.762,0.138,7.058c0.318,10.799,0.619,21-6.603,28.437C218.607,205.476,206.149,208.709,186.143,208.709z
				 M186.143,125.367c-20.772,0-37.671,16.899-37.671,37.671s16.899,37.671,37.671,37.671c17.457,0,28.404-2.535,33.466-7.749
				c4.865-5.01,4.636-12.785,4.346-22.628c-0.069-2.354-0.141-4.788-0.141-7.293C223.813,142.266,206.915,125.367,186.143,125.367z"
				/>
		</g>
		<g>
			<path fill="#A3A3A3" d="M309.072,163.038c0,23.014-18.657,41.671-41.671,41.671c-50.005,0-41.671-18.657-41.671-41.671
				s18.656-41.671,41.671-41.671C290.415,121.367,309.072,140.024,309.072,163.038z"/>
			<path d="M267.401,208.709c-21.015,0-33.374-3.134-40.071-10.161c-6.824-7.16-6.36-16.803-5.87-27.013
				c0.133-2.759,0.27-5.613,0.27-8.497c0-25.183,20.488-45.671,45.671-45.671s45.671,20.488,45.671,45.671
				S292.584,208.709,267.401,208.709z M267.401,125.367c-20.772,0-37.671,16.899-37.671,37.671c0,3.076-0.142,6.027-0.279,8.881
				c-0.441,9.18-0.79,16.431,3.669,21.109c4.926,5.168,16.139,7.681,34.28,7.681c20.772,0,37.671-16.899,37.671-37.671
				S288.173,125.367,267.401,125.367z"/>
		</g>
		<g>
			<circle fill="#BCBCBC" cx="224.688" cy="120.325" r="41.671"/>
			<path d="M224.688,165.996c-25.183,0-45.671-20.488-45.671-45.671s20.488-45.671,45.671-45.671s45.671,20.488,45.671,45.671
				S249.872,165.996,224.688,165.996z M224.688,82.654c-20.772,0-37.671,16.899-37.671,37.671s16.899,37.671,37.671,37.671
				s37.671-16.899,37.671-37.671S245.46,82.654,224.688,82.654z"/>
		</g>
	</g>
	<path d="M14372.783,7685.033h-16737v-13953h16737V7685.033z M-2363.716,7684.033h16736l-0.5-13951h-16735.5l0.5,13951H-2363.716z"
		/>
</g>
<g id="linijsko" display="none">
	<g id="rdeča7bela_copy" display="inline">
	</g>
	<g display="inline">
		
			<polyline fill="none" stroke="#000000" stroke-width="8" stroke-linecap="round" stroke-linejoin="round" stroke-miterlimit="10" points="
			282.398,201.917 230.981,374.89 180.271,204.289 		"/>
		
			<line fill="none" stroke="#000000" stroke-width="8" stroke-linecap="round" stroke-linejoin="round" stroke-miterlimit="10" x1="221.824" y1="196.384" x2="230.825" y2="196.384"/>
		<path fill="none" stroke="#000000" stroke-width="8" stroke-linecap="round" stroke-linejoin="round" stroke-miterlimit="10" d="
			M183.047,121.494c-21.567,1.585-38.576,19.573-38.576,41.544c0,21.02,15.567,38.396,35.799,41.251"/>
		<path fill="none" stroke="#000000" stroke-width="8" stroke-linecap="round" stroke-linejoin="round" stroke-miterlimit="10" d="
			M227.784,161.87c-0.076-2.768-0.421-5.467-1.012-8.074"/>
		<path fill="none" stroke="#000000" stroke-width="8" stroke-linecap="round" stroke-linejoin="round" stroke-miterlimit="10" d="
			M226.441,189.263c-0.943,2.665-2.397,5.06-4.617,7.121"/>
		<path fill="none" stroke="#000000" stroke-width="8" stroke-linecap="round" stroke-linejoin="round" stroke-miterlimit="10" d="
			M183.047,121.494c1.023-0.075,2.053-0.126,3.095-0.126c19.836,0,36.423,13.865,40.629,32.428"/>
		<path fill="none" stroke="#000000" stroke-width="8" stroke-linecap="round" stroke-linejoin="round" stroke-miterlimit="10" d="
			M221.824,196.384c-5.626,5.227-16.156,8.325-35.682,8.325c-1.994,0-3.953-0.149-5.872-0.42"/>
		<path fill="none" stroke="#000000" stroke-width="8" stroke-linecap="round" stroke-linejoin="round" stroke-miterlimit="10" d="
			M226.441,189.263c2.535-7.162,1.373-16.286,1.373-26.225c0-0.392-0.019-0.779-0.03-1.168"/>
		<path fill="none" stroke="#000000" stroke-width="8" stroke-linecap="round" stroke-linejoin="round" stroke-miterlimit="10" d="
			M266.333,121.394c0.356-0.009,0.71-0.027,1.069-0.027c23.014,0,41.671,18.657,41.671,41.671c0,17.725-11.073,32.855-26.674,38.878
			"/>
		<path fill="none" stroke="#000000" stroke-width="8" stroke-linecap="round" stroke-linejoin="round" stroke-miterlimit="10" d="
			M266.333,121.394c-19.361,0.489-35.431,14.173-39.561,32.401"/>
		<path fill="none" stroke="#000000" stroke-width="8" stroke-linecap="round" stroke-linejoin="round" stroke-miterlimit="10" d="
			M230.825,196.384c5.514,5.227,16.202,8.325,36.576,8.325c5.289,0,10.342-0.996,14.997-2.792"/>
		<path fill="none" stroke="#000000" stroke-width="8" stroke-linecap="round" stroke-linejoin="round" stroke-miterlimit="10" d="
			M226.441,189.263c0.841,2.665,2.209,5.06,4.384,7.121"/>
		<path fill="none" stroke="#000000" stroke-width="8" stroke-linecap="round" stroke-linejoin="round" stroke-miterlimit="10" d="
			M266.333,121.394c0.009-0.356,0.027-0.71,0.027-1.069c0-23.014-18.656-41.671-41.671-41.671
			c-23.014,0-41.671,18.657-41.671,41.671c0,0.392,0.019,0.779,0.03,1.168"/>
	</g>
</g>
<g id="pivot">
	<circle fill="none" cx="235.76" cy="377.11" r="14.133"/>
</g>
</svg>
