<?xml version="1.0" encoding="utf-8"?>
<!-- Generator: Adobe Illustrator 16.0.0, SVG Export Plug-In . SVG Version: 6.00 Build 0)  -->
<!DOCTYPE svg PUBLIC "-//W3C//DTD SVG 1.1//EN" "http://www.w3.org/Graphics/SVG/1.1/DTD/svg11.dtd">
<svg version="1.1" xmlns="http://www.w3.org/2000/svg" xmlns:xlink="http://www.w3.org/1999/xlink" x="0px" y="0px"
	 width="453.543px" height="453.543px" viewBox="0 0 453.543 453.543" enable-background="new 0 0 453.543 453.543"
	 xml:space="preserve">
<g id="kvadrat">
</g>
<g id="bg" display="none">
	<rect x="-832.959" y="-5847.458" display="inline" width="15266.867" height="13678.951"/>
</g>
<g id="barvno" display="none">
	<g id="rdeča7bela" display="inline">
	</g>
	
		<path display="inline" fill="#E5A157" stroke="#000000" stroke-width="8" stroke-linecap="round" stroke-linejoin="round" stroke-miterlimit="10" d="
		M299.196,110.283c0,0-54.856,6.453-76.368,6.453c-21.513,0-68.48-6.453-68.48-6.453c-14.256,0-25.815,11.559-25.815,25.814v30.723
		c0,14.256,11.559,25.814,25.815,25.814h6.731c-0.164,1.174-0.277,2.365-0.277,3.586l-21.513,121.225
		c0,14.257,11.559,25.815,25.814,25.815H288.44c14.258,0,25.814-11.559,25.814-25.815l-21.512-121.225
		c0-1.221-0.113-2.412-0.277-3.586h6.73c14.259,0,25.815-11.559,25.815-25.814v-30.723
		C325.011,121.842,313.455,110.283,299.196,110.283z"/>
	
		<rect x="-1343.244" y="-6267.467" display="inline" fill="none" stroke="#000000" stroke-miterlimit="10" width="16736" height="13952"/>
</g>
<g id="sivinsko">
	<g id="rdeča7bela_copy_3">
	</g>
	<g>
		<path fill="#ADADAD" d="M299.196,110.283c0,0-54.856,6.453-76.368,6.453c-21.513,0-68.48-6.453-68.48-6.453
			c-14.256,0-25.815,11.559-25.815,25.814v30.723c0,14.256,11.559,25.814,25.815,25.814h6.731c-0.164,1.174-0.277,2.365-0.277,3.586
			l-21.513,121.225c0,14.257,11.559,25.815,25.814,25.815H288.44c14.258,0,25.814-11.559,25.814-25.815l-21.512-121.225
			c0-1.221-0.113-2.412-0.277-3.586h6.73c14.259,0,25.815-11.559,25.815-25.814v-30.723
			C325.011,121.842,313.455,110.283,299.196,110.283z"/>
		<path d="M288.44,347.261H165.103c-16.44,0-29.814-13.375-29.814-29.815c0-0.234,0.021-0.468,0.062-0.699l21.315-120.112h-2.318
			c-16.44,0-29.815-13.375-29.815-29.814v-30.723c0-16.44,13.375-29.814,29.815-29.814c0.182,0,0.364,0.012,0.544,0.037
			c0.467,0.064,46.944,6.416,67.936,6.416c21.031,0,75.354-6.361,75.901-6.426c0.155-0.018,0.311-0.027,0.467-0.027
			c16.44,0,29.815,13.375,29.815,29.814v30.723c0,16.44-13.375,29.814-29.815,29.814h-2.317l21.314,120.112
			c0.041,0.23,0.062,0.464,0.062,0.699C318.254,333.886,304.88,347.261,288.44,347.261z M143.291,317.783
			c0.182,11.874,9.896,21.478,21.812,21.478H288.44c11.916,0,21.63-9.604,21.812-21.478l-21.448-120.863
			c-0.041-0.23-0.062-0.464-0.062-0.699c0-0.903-0.076-1.866-0.239-3.032c-0.16-1.146,0.184-2.306,0.943-3.179
			c0.76-0.873,1.86-1.375,3.018-1.375h6.73c12.029,0,21.815-9.786,21.815-21.814v-30.723c0-11.954-9.665-21.692-21.591-21.813
			c-4.496,0.526-55.601,6.452-76.592,6.452c-20.902,0-64.425-5.863-68.742-6.452c-11.909,0.141-21.554,9.872-21.554,21.813v30.723
			c0,12.028,9.786,21.814,21.815,21.814h6.731c1.158,0,2.258,0.501,3.018,1.375c0.76,0.874,1.104,2.033,0.943,3.179
			c-0.163,1.166-0.239,2.129-0.239,3.032c0,0.234-0.021,0.468-0.062,0.699L143.291,317.783z"/>
	</g>
	<path d="M15393.256,7685.033h-16737v-13953h16737V7685.033z M-1343.244,7684.033h16736l-0.5-13951h-16735.5l0.5,13951H-1343.244z"
		/>
</g>
<g id="linijsko" display="none">
	<g id="rdeča7bela_copy" display="inline">
	</g>
	
		<path display="inline" fill="none" stroke="#000000" stroke-width="8" stroke-linecap="round" stroke-linejoin="round" stroke-miterlimit="10" d="
		M299.196,110.283c0,0-54.856,6.453-76.368,6.453c-21.513,0-68.48-6.453-68.48-6.453c-14.256,0-25.815,11.559-25.815,25.814v30.723
		c0,14.256,11.559,25.814,25.815,25.814h6.731c-0.164,1.174-0.277,2.365-0.277,3.586l-21.513,121.225
		c0,14.257,11.559,25.815,25.814,25.815H288.44c14.258,0,25.814-11.559,25.814-25.815l-21.512-121.225
		c0-1.221-0.113-2.412-0.277-3.586h6.73c14.259,0,25.815-11.559,25.815-25.814v-30.723
		C325.011,121.842,313.455,110.283,299.196,110.283z"/>
</g>
<g id="pivot">
	<circle fill="none" cx="221.799" cy="340.941" r="14.133"/>
</g>
</svg>
