<?xml version="1.0" encoding="utf-8"?>
<!-- Generator: Adobe Illustrator 16.0.0, SVG Export Plug-In . SVG Version: 6.00 Build 0)  -->
<!DOCTYPE svg PUBLIC "-//W3C//DTD SVG 1.1//EN" "http://www.w3.org/Graphics/SVG/1.1/DTD/svg11.dtd">
<svg version="1.1" xmlns="http://www.w3.org/2000/svg" xmlns:xlink="http://www.w3.org/1999/xlink" x="0px" y="0px" width="220px"
	 height="220px" viewBox="0 0 220 220" enable-background="new 0 0 220 220" xml:space="preserve">
<g id="bg" display="none">
</g>
<g id="Layer_3">
</g>
<g id="Layer_1">
	<g>
		<defs>
			<rect id="SVGID_651_" width="220" height="220"/>
		</defs>
		<clipPath id="SVGID_2_">
			<use xlink:href="#SVGID_651_"  overflow="visible"/>
		</clipPath>
		<rect clip-path="url(#SVGID_2_)" fill="#9E9E9E" width="220" height="220"/>
		<path clip-path="url(#SVGID_2_)" fill="#171717" d="M39.186,176.061c2.105-3.649,2.418-7.621-2.16-10.381
			c-3.399-2.049-7.509-2.445-11.58-2.439l0.307-7.098c5.167-0.101,11.208,0.702,16.619,3.963c8.532,5.143,9.558,12.854,3.831,22.357
			L34.036,202.65l-6.521-3.931l1.634-4.122l-0.208-0.126c-4.6,0.728-9.28,0.649-13.304-1.776
			c-5.965-3.596-7.703-10.127-4.107-16.093C15.919,169.319,24.322,169.183,39.186,176.061z M21.896,187.957
			c2.775,1.673,5.762,1.582,9.681,0.729l4.598-7.631c-9.937-4.381-14.452-3.793-16.5-0.394
			C17.835,183.713,19.052,186.244,21.896,187.957z"/>
		<path clip-path="url(#SVGID_2_)" fill="#171717" d="M120.021,113.172l6.856,6.304l-9.977,10.853l-4.674,4.725
			c4.418,0.1,8.83,1.406,11.811,4.146c7.334,6.742,6.195,16.478-2.083,25.481c-9.264,10.076-20.603,10.323-27.102,4.348
			c-2.684-2.468-4.34-6.41-4.591-11.042l-0.179-0.164l-3.337,2.432l-5.425-4.988L120.021,113.172z M98.627,162.048
			c3.876,3.564,10.036,2.847,16.121-3.771c5.372-5.843,6.643-11.056,2.231-15.112c-2.146-1.973-5.16-2.764-9.454-2.641
			l-12.554,13.654C95.414,157.884,96.899,160.459,98.627,162.048z"/>
		<path clip-path="url(#SVGID_2_)" fill="#171717" d="M34.9,90.695c4.784-1.773,9.134-1.227,12.541,0.273l-2.12,7.093
			c-2.622-1.014-4.962-1.269-7.317-0.396c-5.999,2.225-8.345,8.71-5.557,16.227c2.76,7.442,8.691,10.857,14.539,8.689
			c3.037-1.127,5.056-3.604,6.487-6.033l5.701,4.19c-2.339,4.41-6.199,7.741-10.452,9.319c-10.176,3.773-20.645-0.464-25.236-12.842
			C18.866,104.764,24.952,94.386,34.9,90.695z"/>
		<path clip-path="url(#SVGID_2_)" fill="#171717" d="M151.138,163.665l11.613-8.126c13.271-9.288,26.118-7.602,36.148,6.732
			c10.077,14.4,7.493,27.379-5.381,36.388l-12.011,8.405L151.138,163.665z M188.225,193.071c8.76-6.13,10.253-14.589,2.777-25.272
			c-7.431-10.618-15.658-11.781-24.417-5.65l-3.384,2.367l21.64,30.924L188.225,193.071z"/>
		<path clip-path="url(#SVGID_2_)" fill="#171717" d="M146.102,95.015l11.15,2.819l8.299-32.822l-9.187-2.323l1.43-5.654
			c5.185,0.309,8.958-0.074,12.575-1.164l6.753,1.708l-10.761,42.559l9.814,2.482L174.31,110l-30.074-7.604L146.102,95.015z"/>
		<path clip-path="url(#SVGID_2_)" fill="#171717" d="M100.24,53.94c-2.475-1.576-6.058-2.109-8.983-1.154
			c-6.159,2.015-9.679,8.191-5.635,21.866c1.666-4.548,5.195-8.089,8.737-9.245c8.468-2.768,15.93,0.246,19.276,10.484
			c3.195,9.777-1.747,18.381-10.138,21.123c-9.623,3.146-20.225-1.654-25.609-18.129c-6.215-19.016,0.457-29.889,10.465-33.16
			c5.927-1.938,10.967-0.857,14.898,1.266L100.24,53.94z M105.398,78.585c-1.888-5.773-5.692-7.77-10.542-6.184
			c-2.771,0.906-5.501,3.502-6.938,8.488c3.768,8.398,8.438,10.961,13.211,9.4C105.209,88.958,107.36,84.589,105.398,78.585z"/>
		<path clip-path="url(#SVGID_2_)" fill="#171717" d="M101.781,232.149H83.963l-4.13,14.336h-9.558l17.252-52.97h11.015
			l17.252,52.97h-9.881L101.781,232.149z M99.675,224.779l-1.862-6.479c-1.701-5.589-3.24-11.663-4.779-17.495H92.71
			c-1.458,5.913-2.997,11.906-4.698,17.495l-1.863,6.479H99.675z"/>
		<path clip-path="url(#SVGID_2_)" fill="#171717" d="M101.781,12.149H83.963l-4.13,14.336h-9.558l17.252-52.97h11.015l17.252,52.97
			h-9.881L101.781,12.149z M99.675,4.779L97.813-1.7c-1.701-5.589-3.24-11.663-4.779-17.495H92.71
			C91.252-13.282,89.713-7.289,88.013-1.7L86.15,4.779H99.675z"/>
		<path clip-path="url(#SVGID_2_)" fill="#171717" d="M200.683,21.229h16.928c10.934,0,18.952,3.32,18.952,13.04
			c0,5.021-2.916,9.881-9.072,11.501v0.324c7.614,1.296,11.826,5.427,11.826,12.554c0,10.61-8.667,15.551-20.33,15.551h-18.304
			V21.229z M216.8,43.179c7.371,0,10.529-2.835,10.529-7.775c0-4.859-3.482-6.885-10.367-6.885h-6.884v14.66H216.8z M218.015,66.91
			c7.775,0,12.149-2.916,12.149-8.91c0-5.507-4.212-8.099-12.149-8.099h-7.937V66.91H218.015z"/>
		<path clip-path="url(#SVGID_2_)" fill="#171717" d="M-19.317,21.229h16.928c10.934,0,18.952,3.32,18.952,13.04
			c0,5.021-2.916,9.881-9.072,11.501v0.324c7.614,1.296,11.826,5.427,11.826,12.554c0,10.61-8.667,15.551-20.33,15.551h-18.304
			V21.229z M-3.2,43.179c7.371,0,10.529-2.835,10.529-7.775c0-4.859-3.482-6.885-10.367-6.885h-6.884v14.66H-3.2z M-1.985,66.91
			c7.775,0,12.149-2.916,12.149-8.91c0-5.507-4.212-8.099-12.149-8.099h-7.937V66.91H-1.985z"/>
	</g>
</g>
</svg>
