<?xml version="1.0" encoding="utf-8"?>
<!-- Generator: Adobe Illustrator 16.0.0, SVG Export Plug-In . SVG Version: 6.00 Build 0)  -->
<!DOCTYPE svg PUBLIC "-//W3C//DTD SVG 1.1//EN" "http://www.w3.org/Graphics/SVG/1.1/DTD/svg11.dtd">
<svg version="1.1" xmlns="http://www.w3.org/2000/svg" xmlns:xlink="http://www.w3.org/1999/xlink" x="0px" y="0px" width="220px"
	 height="220px" viewBox="0 0 220 220" enable-background="new 0 0 220 220" xml:space="preserve">
<g id="bg" display="none">
</g>
<g id="Layer_3">
</g>
<g id="Layer_1">
	<g>
		<defs>
			<rect id="SVGID_29_" x="-4590.076" y="-3900" width="220" height="220"/>
		</defs>
		<clipPath id="SVGID_2_">
			<use xlink:href="#SVGID_29_"  overflow="visible"/>
		</clipPath>
	</g>
	<g>
		<defs>
			<rect id="SVGID_31_" x="-3390.076" y="-3900" width="220" height="220"/>
		</defs>
		<clipPath id="SVGID_4_">
			<use xlink:href="#SVGID_31_"  overflow="visible"/>
		</clipPath>
	</g>
	<g>
		<defs>
			<rect id="SVGID_33_" x="-2790.076" y="-3900" width="220" height="220"/>
		</defs>
		<clipPath id="SVGID_6_">
			<use xlink:href="#SVGID_33_"  overflow="visible"/>
		</clipPath>
	</g>
	<g>
		<defs>
			<rect id="SVGID_35_" x="-3090.076" y="-3900" width="220" height="220"/>
		</defs>
		<clipPath id="SVGID_8_">
			<use xlink:href="#SVGID_35_"  overflow="visible"/>
		</clipPath>
	</g>
	<g>
		<defs>
			<rect id="SVGID_37_" x="-4290.076" y="-3900" width="220" height="220"/>
		</defs>
		<clipPath id="SVGID_10_">
			<use xlink:href="#SVGID_37_"  overflow="visible"/>
		</clipPath>
	</g>
	<g>
		<defs>
			<rect id="SVGID_39_" x="-3690.076" y="-3900" width="220" height="220"/>
		</defs>
		<clipPath id="SVGID_12_">
			<use xlink:href="#SVGID_39_"  overflow="visible"/>
		</clipPath>
	</g>
	<g>
		<defs>
			<rect id="SVGID_411_" x="-1200" y="-3900" width="220" height="220"/>
		</defs>
		<clipPath id="SVGID_14_">
			<use xlink:href="#SVGID_411_"  overflow="visible"/>
		</clipPath>
	</g>
	<g>
		<defs>
			<rect id="SVGID_413_" y="-3900" width="220" height="220"/>
		</defs>
		<clipPath id="SVGID_16_">
			<use xlink:href="#SVGID_413_"  overflow="visible"/>
		</clipPath>
	</g>
	<g>
		<defs>
			<rect id="SVGID_419_" x="-900" y="-3900" width="220" height="220"/>
		</defs>
		<clipPath id="SVGID_18_">
			<use xlink:href="#SVGID_419_"  overflow="visible"/>
		</clipPath>
	</g>
	<g>
		<defs>
			<rect id="SVGID_421_" x="-300" y="-3900" width="220" height="220"/>
		</defs>
		<clipPath id="SVGID_20_">
			<use xlink:href="#SVGID_421_"  overflow="visible"/>
		</clipPath>
	</g>
	<g>
		<defs>
			<rect id="SVGID_553_" x="0.001" width="220" height="220"/>
		</defs>
		<clipPath id="SVGID_22_">
			<use xlink:href="#SVGID_553_"  overflow="visible"/>
		</clipPath>
		<rect x="0.001" clip-path="url(#SVGID_22_)" fill="#646464" width="220" height="220"/>
		<g clip-path="url(#SVGID_22_)">
			
				<circle fill="#C7C7C7" stroke="#000000" stroke-width="2" stroke-linecap="round" stroke-linejoin="round" stroke-miterlimit="10" cx="183.714" cy="0" r="7.654"/>
			
				<circle fill="#C7C7C7" stroke="#000000" stroke-width="2" stroke-linecap="round" stroke-linejoin="round" stroke-miterlimit="10" cx="220.381" cy="0" r="7.654"/>
			
				<circle fill="#C7C7C7" stroke="#000000" stroke-width="2" stroke-linecap="round" stroke-linejoin="round" stroke-miterlimit="10" cx="147.047" cy="0" r="7.654"/>
			
				<circle fill="#C7C7C7" stroke="#000000" stroke-width="2" stroke-linecap="round" stroke-linejoin="round" stroke-miterlimit="10" cx="110.381" cy="0" r="7.654"/>
			
				<circle fill="#C7C7C7" stroke="#000000" stroke-width="2" stroke-linecap="round" stroke-linejoin="round" stroke-miterlimit="10" cx="73.714" cy="0" r="7.654"/>
			
				<circle fill="#C7C7C7" stroke="#000000" stroke-width="2" stroke-linecap="round" stroke-linejoin="round" stroke-miterlimit="10" cx="37.047" cy="0" r="7.654"/>
			
				<circle fill="#C7C7C7" stroke="#000000" stroke-width="2" stroke-linecap="round" stroke-linejoin="round" stroke-miterlimit="10" cx="0.381" cy="0" r="7.654"/>
		</g>
		<g clip-path="url(#SVGID_22_)">
			
				<circle fill="#C7C7C7" stroke="#000000" stroke-width="2" stroke-linecap="round" stroke-linejoin="round" stroke-miterlimit="10" cx="183.714" cy="220" r="7.654"/>
			
				<circle fill="#C7C7C7" stroke="#000000" stroke-width="2" stroke-linecap="round" stroke-linejoin="round" stroke-miterlimit="10" cx="220.381" cy="220" r="7.654"/>
			
				<circle fill="#C7C7C7" stroke="#000000" stroke-width="2" stroke-linecap="round" stroke-linejoin="round" stroke-miterlimit="10" cx="147.047" cy="220" r="7.654"/>
			
				<circle fill="#C7C7C7" stroke="#000000" stroke-width="2" stroke-linecap="round" stroke-linejoin="round" stroke-miterlimit="10" cx="110.381" cy="220" r="7.654"/>
			
				<circle fill="#C7C7C7" stroke="#000000" stroke-width="2" stroke-linecap="round" stroke-linejoin="round" stroke-miterlimit="10" cx="73.714" cy="220" r="7.654"/>
			
				<circle fill="#C7C7C7" stroke="#000000" stroke-width="2" stroke-linecap="round" stroke-linejoin="round" stroke-miterlimit="10" cx="37.047" cy="220" r="7.654"/>
			
				<circle fill="#C7C7C7" stroke="#000000" stroke-width="2" stroke-linecap="round" stroke-linejoin="round" stroke-miterlimit="10" cx="0.381" cy="220" r="7.654"/>
		</g>
		<g clip-path="url(#SVGID_22_)">
			<path fill="none" stroke="#000000" stroke-width="2" stroke-linecap="round" stroke-linejoin="round" stroke-miterlimit="10" d="
				M87.801,41.721c10.917,3.064,21.688,11.339,21.688,38.27"/>
			<path fill="none" stroke="#000000" stroke-width="2" stroke-linecap="round" stroke-linejoin="round" stroke-miterlimit="10" d="
				M131.177,41.721c-10.901,3.121-21.688,11.339-21.688,38.27"/>
			<path fill="#787878" stroke="#000000" stroke-width="2" stroke-miterlimit="10" d="M107.755,94.876
				c0-21.764-17.642-39.405-39.405-39.405c-21.764,0-39.405,17.642-39.405,39.405c0,21.762,17.641,39.404,39.405,39.404
				c0.719,0,1.432-0.021,2.142-0.06c-8.115,4.194-13.666,12.657-13.666,22.421c0,13.937,11.296,25.23,25.23,25.23
				c13.935,0,25.23-11.294,25.23-25.23C107.288,143.04,107.755,111.441,107.755,94.876z"/>
			<path fill="#787878" stroke="#000000" stroke-width="2" stroke-miterlimit="10" d="M191.056,94.876
				c0-21.764-17.641-39.405-39.405-39.405c-21.763,0-39.405,17.642-39.405,39.405c0,16.565,0.468,48.164,0.468,61.766
				c0,13.937,11.295,25.23,25.23,25.23c13.935,0,25.23-11.294,25.23-25.23c0-9.764-5.55-18.227-13.665-22.421
				c0.709,0.038,1.423,0.06,2.141,0.06C173.415,134.28,191.056,116.638,191.056,94.876z"/>
			
				<path fill="#575757" stroke="#000000" stroke-width="2" stroke-linecap="round" stroke-linejoin="round" stroke-miterlimit="10" d="
				M110.681,185.276c6.094,0,8.044-12.571,8.044-12.571s0-79.053,0-84.919c0-7.275-0.044-21.054-8.344-21.054
				c-8.3,0-8.344,13.778-8.344,21.054c0,5.866,0,84.919,0,84.919S104.587,185.276,110.681,185.276z"/>
			
				<circle fill="#C7C7C7" stroke="#000000" stroke-width="2" stroke-linecap="round" stroke-linejoin="round" stroke-miterlimit="10" cx="68.351" cy="94.876" r="13.041"/>
			
				<circle fill="#9C9C9C" stroke="#000000" stroke-width="2" stroke-linecap="round" stroke-linejoin="round" stroke-miterlimit="10" cx="82.057" cy="156.643" r="7.654"/>
			
				<circle fill="#C7C7C7" stroke="#000000" stroke-width="2" stroke-linecap="round" stroke-linejoin="round" stroke-miterlimit="10" cx="151.651" cy="94.876" r="13.041"/>
			
				<circle fill="#9C9C9C" stroke="#000000" stroke-width="2" stroke-linecap="round" stroke-linejoin="round" stroke-miterlimit="10" cx="137.945" cy="156.643" r="7.654"/>
			<circle cx="87.801" cy="41.721" r="6.997"/>
			<circle cx="132.611" cy="41.721" r="6.997"/>
		</g>
	</g>
</g>
</svg>
