<?xml version="1.0" encoding="utf-8"?>
<!-- Generator: Adobe Illustrator 16.0.0, SVG Export Plug-In . SVG Version: 6.00 Build 0)  -->
<!DOCTYPE svg PUBLIC "-//W3C//DTD SVG 1.1//EN" "http://www.w3.org/Graphics/SVG/1.1/DTD/svg11.dtd">
<svg version="1.1" xmlns="http://www.w3.org/2000/svg" xmlns:xlink="http://www.w3.org/1999/xlink" x="0px" y="0px"
	 width="1919.999px" height="1080px" viewBox="0 0 1919.999 1080" enable-background="new 0 0 1919.999 1080" xml:space="preserve">
<g id="zid">
</g>
<g id="ozadje_1_">
	<g id="zunaj_4_">
		<g>
			<g>
				<defs>
					<rect id="SVGID_3_" y="-1208.273" width="370.197" height="1080.001"/>
				</defs>
				<clipPath id="SVGID_2_">
					<use xlink:href="#SVGID_3_"  overflow="visible"/>
				</clipPath>
				<g clip-path="url(#SVGID_2_)">
					<g>
						
							<path fill="#0073B3" stroke="#000000" stroke-width="3" stroke-linecap="round" stroke-linejoin="round" stroke-miterlimit="10" d="
							M395.832-275.686c0,0-21.617-18.958-33.77-24.229c-8.789-3.815-21.83-0.449-31.396-1.611
							c-13.605-1.645-28.158,3.203-41.867,3.439c-17.043,0.292-33.363-11.188-50.59-9.039c-9.191,1.147-18.293,5.266-27.271,7.082
							c-29.684,6.01-46.275-8.882-70.98-16.443c-19.545-5.984-43.754,1.168-63.188,4.779c-25.834,4.802-52.539,3.565-79.264,3.505
							c-17.678-0.041-27.332-1.637-37.32,15.001c-18.936,31.546-16.66,69.912-34.688,101.833
							c-14.082,24.931-32.367,115.463,8.48,123c12.736,2.35,26.189-0.396,39.189-0.18c8.332,0.141,14.053,2.186,20.693,6.66
							c7.9,5.324,14.246,10.393,23.535,13.418c20.762,6.77,40.971,6.1,62.193,10.77c25.639,5.639,51.201,11.775,77.6,13.82
							c25.771,1.994,30.855,7.328,43.189,32.478c9.209,18.777,219.385-63.933,219.385-63.933L395.832-275.686z"/>
					</g>
				</g>
			</g>
		</g>
	</g>
</g>
<g id="pivot">
	<g id="pivot_2_">
		<path fill="#EFE342" d="M633.662,533.077"/>
		<circle fill="#EFE342" cx="540.816" cy="549.901" r="7.857"/>
		<circle fill="#EFE342" cx="598.453" cy="549.901" r="7.857"/>
		<circle fill="#EFE342" cx="656.089" cy="549.901" r="7.857"/>
		<circle fill="#EFE342" cx="713.725" cy="549.901" r="7.857"/>
		<circle fill="#EFE342" cx="194.648" cy="568.563" r="7.857"/>
		<circle fill="#EFE342" cx="153.225" cy="395.88" r="7.857"/>
		<circle fill="#EFE342" cx="216.305" cy="860.51" r="7.857"/>
		<circle fill="#EFE342" cx="170.27" cy="1029.254" r="7.857"/>
		<circle fill="#EFE342" cx="96.451" cy="835.214" r="7.857"/>
		<circle fill="#EFE342" cx="590.151" cy="693.019" r="7.857"/>
		<circle fill="#EFE342" cx="743.709" cy="693.019" r="7.857"/>
		<circle fill="#EFE342" cx="1233.867" cy="709.019" r="7.857"/>
		<circle fill="#EFE342" cx="970.92" cy="709.019" r="7.857"/>
		<circle fill="#EFE342" cx="532.127" cy="195.775" r="7.857"/>
		<circle fill="#EFE342" cx="622.376" cy="195.775" r="7.857"/>
		<circle fill="#EFE342" cx="712.625" cy="195.775" r="7.857"/>
		<circle fill="#EFE342" cx="802.875" cy="195.775" r="7.857"/>
		<circle fill="#EFE342" cx="893.124" cy="195.775" r="7.857"/>
		<circle fill="#EFE342" cx="983.373" cy="195.775" r="7.857"/>
		<circle fill="#EFE342" cx="1073.623" cy="195.775" r="7.857"/>
		<circle fill="#EFE342" cx="1163.872" cy="195.775" r="7.857"/>
		<circle fill="#EFE342" cx="1254.121" cy="195.775" r="7.857"/>
		<circle fill="#EFE342" cx="532.127" cy="354.775" r="7.857"/>
		<circle fill="#EFE342" cx="622.376" cy="354.775" r="7.857"/>
		<circle fill="#EFE342" cx="712.625" cy="354.775" r="7.857"/>
		<circle fill="#EFE342" cx="802.875" cy="354.775" r="7.857"/>
		<circle fill="#EFE342" cx="893.124" cy="354.775" r="7.857"/>
		<circle fill="#EFE342" cx="983.373" cy="354.775" r="7.857"/>
		<circle fill="#EFE342" cx="1073.623" cy="354.775" r="7.857"/>
		<circle fill="#EFE342" cx="1163.872" cy="354.775" r="7.857"/>
		<circle fill="#EFE342" cx="1254.121" cy="354.775" r="7.857"/>
		<circle fill="#EFE342" cx="1140.596" cy="877.604" r="7.857"/>
		<circle fill="#EFE342" cx="1230.845" cy="877.604" r="7.857"/>
		<circle fill="#EFE342" cx="904.576" cy="877.604" r="7.857"/>
		<circle fill="#EFE342" cx="1041.752" cy="877.604" r="7.857"/>
		<circle fill="#EFE342" cx="973.164" cy="877.604" r="7.857"/>
		<circle fill="#EFE342" cx="904.576" cy="1031.285" r="7.857"/>
		<circle fill="#EFE342" cx="1041.752" cy="1031.285" r="7.857"/>
		<circle fill="#EFE342" cx="1140.596" cy="1031.285" r="7.857"/>
		<circle fill="#EFE342" cx="1230.844" cy="1031.285" r="7.857"/>
		<circle fill="#EFE342" cx="973.164" cy="1031.285" r="7.857"/>
		<circle fill="#EFE342" cx="634.184" cy="877.604" r="7.857"/>
		<circle fill="#EFE342" cx="802.527" cy="877.604" r="7.857"/>
		<circle fill="#EFE342" cx="718.355" cy="877.604" r="7.857"/>
		<circle fill="#EFE342" cx="550.012" cy="877.604" r="7.857"/>
		<circle fill="#EFE342" cx="676.27" cy="1031.285" r="7.857"/>
		<circle fill="#EFE342" cx="739.398" cy="1031.285" r="7.857"/>
		<circle fill="#EFE342" cx="802.527" cy="1031.285" r="7.857"/>
		<circle fill="#EFE342" cx="550.012" cy="1031.285" r="7.857"/>
		<circle fill="#EFE342" cx="613.141" cy="1031.285" r="7.857"/>
	</g>
</g>
<g id="elements">
</g>
<g id="ospredje">
</g>
</svg>
