<?xml version="1.0" encoding="utf-8"?>
<!-- Generator: Adobe Illustrator 16.0.0, SVG Export Plug-In . SVG Version: 6.00 Build 0)  -->
<!DOCTYPE svg PUBLIC "-//W3C//DTD SVG 1.1//EN" "http://www.w3.org/Graphics/SVG/1.1/DTD/svg11.dtd">
<svg version="1.1" xmlns="http://www.w3.org/2000/svg" xmlns:xlink="http://www.w3.org/1999/xlink" x="0px" y="0px" width="220px"
	 height="220px" viewBox="0 0 220 220" enable-background="new 0 0 220 220" xml:space="preserve">
<g id="bg" display="none">
	<rect x="-145.836" y="-3681.787" display="inline" fill="#FFFFFF" width="3240.076" height="8444.104"/>
</g>
<g id="Layer_3" display="none">
</g>
<g id="Layer_1">
	<g>
		<rect fill="#ECECEC" width="220" height="220"/>
		<g>
			
				<circle fill="#ED7E06" stroke="#000100" stroke-width="2.9042" stroke-linecap="round" stroke-linejoin="round" stroke-miterlimit="10" cx="157.288" cy="62.53" r="47.006"/>
			
				<path fill="none" stroke="#000100" stroke-width="2.9042" stroke-linecap="round" stroke-linejoin="round" stroke-miterlimit="10" d="
				M182.14,23.493c0,0-59.545,13.547-60.028,69.48"/>
			
				<line fill="none" stroke="#000100" stroke-width="2.9042" stroke-linecap="round" stroke-linejoin="round" stroke-miterlimit="10" x1="122.255" y1="31.079" x2="191.475" y2="94.387"/>
			
				<path fill="none" stroke="#000100" stroke-width="2.9042" stroke-linecap="round" stroke-linejoin="round" stroke-miterlimit="10" d="
				M111.163,58.231c0,0,36.237,6.133,45.529,50.289"/>
			
				<path fill="none" stroke="#000100" stroke-width="2.9042" stroke-linecap="round" stroke-linejoin="round" stroke-miterlimit="10" d="
				M147.159,16.622c0,0,11.609,35.545,55.694,37.586"/>
		</g>
		<g>
			
				<circle fill="#FFCF04" stroke="#000100" stroke-width="2.4" stroke-linecap="round" stroke-linejoin="round" stroke-miterlimit="10" cx="52.28" cy="52.047" r="26.522"/>
			
				<path fill="#FFCF04" stroke="#000100" stroke-width="2.4" stroke-linecap="round" stroke-linejoin="round" stroke-miterlimit="10" d="
				M53.575,26.083c1.338,0.445,16.058,19.807-7.942,25.964c-8.102,1.907-16.327,6.78-16.862,11.776"/>
			
				<path fill="#FFCF04" stroke="#000100" stroke-width="2.4" stroke-linecap="round" stroke-linejoin="round" stroke-miterlimit="10" d="
				M75.344,41.16c-1.888-0.466-11.063,2.946-12.581,8.833c-1.517,5.89,1.376,13.31,1.376,13.31s1.837,6.321-1.466,11.672"/>
		</g>
		
			<path fill="#FFFFFF" stroke="#000100" stroke-width="2.4" stroke-linecap="round" stroke-linejoin="round" stroke-miterlimit="10" d="
			M170.25,194.088c-13.285,0-24.054-10.777-24.054-24.066c0-13.283,10.77-24.04,24.054-24.04c13.274,0,24.046,10.757,24.046,24.04
			C194.296,183.311,183.525,194.088,170.25,194.088z"/>
		<g>
			<g id="Layer_2_6_">
				<g>
					<g id="soccer_2_">
						
							<path fill="#000100" stroke="#000100" stroke-width="1.6032" stroke-linecap="round" stroke-linejoin="round" stroke-miterlimit="10" d="
							M99.8,128.672c-7.546-9.758-17.535-15.618-29.743-17.618c-1.144-0.189-2.297-0.321-3.443-0.481h-7.92
							c-2.958,0.345-5.903,0.754-8.766,1.62c-15.43,4.675-26,14.559-31.659,29.653c-1.415,3.773-2.224,7.7-2.564,11.716v7.921
							c0.341,2.897,0.729,5.785,1.579,8.586c5.054,16.675,15.932,27.582,32.56,32.748c2.882,0.893,5.872,1.283,8.854,1.659h7.916
							c2.89-0.381,5.768-0.817,8.593-1.583c17.29-4.709,30.67-19.298,33.724-36.955C111.299,152.211,108.325,139.696,99.8,128.672z
							 M95.234,147.731c-1.214,4.349-2.821,8.521-5.291,12.32c-0.513,0.79-1.15,1.494-1.679,2.272
							c-0.869,1.27-2.092,1.823-3.588,1.898c-0.908,0.049-1.814,0.186-2.72,0.194c-2.822,0.025-5.646,0.009-8.469,0.009v0.208
							c-0.785,0-1.579-0.076-2.355,0.02c-1.231,0.144-2.073-0.37-2.826-1.287c-2.333-2.841-4.434-5.854-6.534-8.869
							c-1.491-2.14-2.94-4.306-4.42-6.449c-0.285-0.409-0.445-0.769-0.204-1.289c2.111-4.594,4.208-9.196,6.725-13.585
							c0.469-0.811,1.013-1.583,1.502-2.385c0.301-0.496,0.831-0.454,1.259-0.492c2.718-0.245,5.444-0.535,8.172-0.397
							c3.127,0.157,6.269,0.222,9.355,0.882c0.472,0.104,0.918,0.221,1.258,0.581c3.695,3.921,7.106,8.044,9.479,12.938
							C95.447,145.427,95.576,146.504,95.234,147.731z M30.915,168.255c-0.589-1.33-0.669-2.604-0.24-4.006
							c1.269-4.153,2.697-8.24,4.838-12.038c0.869-1.536,1.815-3.013,3.479-3.863c0.501-0.253,0.981-0.381,1.522-0.381
							c2.454,0.004,4.901,0.004,7.355,0.004v0.004c2.356,0,4.713,0.036,7.069-0.02c0.854-0.016,1.375,0.271,1.848,0.978
							c3.002,4.456,5.992,8.921,9.267,13.186c0.629,0.818,1.294,1.615,1.98,2.393c0.317,0.357,0.368,0.677,0.177,1.106
							c-2.209,4.829-4.445,9.638-7.043,14.275c-0.91,1.62-2.128,2.405-3.907,2.634c-4.646,0.597-9.294,0.989-13.983,0.577
							c-1.396-0.124-2.559-0.532-3.52-1.676C36.321,177.363,33.087,173.173,30.915,168.255z M59.856,112.164
							c8.205-1.305,15.832,0.699,23.129,4.244c2.202,1.07,3.621,3.164,5.187,5.003c0.24,0.28,0.121,0.584-0.027,0.877
							c-1.183,2.289-2.361,4.577-3.532,6.869c-0.231,0.454-0.548,0.608-1.069,0.517c-3.255-0.558-6.542-0.746-10.077-0.685
							c-2.498-0.089-5.218,0.081-7.924,0.477c-0.344,0.052-0.608,0.007-0.86-0.232c-3.448-3.363-7.704-5.489-11.9-7.692
							c-0.686-0.357-0.75-0.71-0.553-1.318c0.709-2.2,1.768-4.208,3.121-6.093C56.494,112.545,58.205,112.429,59.856,112.164z
							 M25.195,131.867c0.044-0.806,0.349-1.402,0.787-1.963c7.054-9.146,16.195-14.975,27.505-17.363
							c0.554-0.115,1.327-0.558,1.656,0c0.28,0.481-0.517,0.89-0.829,1.336c-1.371,1.938-2.449,4.02-3.074,6.319
							c-0.156,0.577-0.397,0.955-1.07,0.942c-0.269-0.005-0.558,0.117-0.806,0.236c-4.172,2.015-8.293,4.184-11.599,7.454
							c-1.467,1.455-3.015,2-4.903,2.273c-2.264,0.325-4.508,0.802-6.724,1.392C25.472,132.672,25.067,132.604,25.195,131.867z
							 M24.546,166.16c-1.294,0-2.24-0.048-3.178,0.016c-0.918,0.06-1.459-0.376-1.912-1.093c-1.463-2.304-2.408-4.854-2.505-7.524
							c-0.301-8.425,1.486-16.264,7.126-22.877c0.473-0.554,0.994-0.897,1.699-1.087c2.854-0.752,5.751-1.27,8.654-1.786
							c0.376-0.069,0.732-0.102,0.558,0.493c-0.638,2.159-0.342,4.368-0.237,6.549c0.104,2.088,0.417,4.177,1.042,6.195
							c0.281,0.907,0.598,1.788,1.187,2.544c0.232,0.305,0.353,0.574,0.035,0.906c-2.616,2.763-3.947,6.234-5.325,9.673
							c-0.911,2.271-1.669,4.601-2.232,6.984c-0.129,0.566-0.397,0.739-0.942,0.826C27.075,166.211,25.633,166.091,24.546,166.16z
							 M67.949,201.754c-2.898,0.893-5.856,1.383-8.93,1.444c-6.758-0.799-13.268-2.285-18.601-6.938
							c-1.071-0.934-1.981-2.011-2.73-3.23c-0.289-0.464-0.34-0.905-0.161-1.427c0.842-2.4,1.772-4.765,2.749-7.113
							c0.281-0.674,0.669-0.767,1.311-0.682c5.937,0.757,11.832,0.509,17.685-0.75c0.356-0.073,0.701-0.241,1.029,0.15
							c2.268,2.738,5.311,4.486,8.249,6.354c1.298,0.827,2.646,1.576,3.996,2.309c0.464,0.256,0.625,0.509,0.509,1.042
							c-0.653,2.931-1.972,5.552-3.671,7.997C69.035,201.415,68.489,201.587,67.949,201.754z M100.814,182.656
							c-0.101,0.435-0.301,0.818-0.562,1.184c-6.637,9.282-15.475,15.371-26.524,18.232c-0.356,0.091-0.743,0.088-1.114,0.133
							c-0.613,0-1.19-0.149-1.776-0.277c-0.584-0.128-0.692-0.369-0.332-0.902c1.366-2.012,2.474-4.163,3.134-6.512
							c0.338-1.182,0.381-2.534,2.141-2.413c4.529-2.213,8.942-4.605,12.565-8.2c0.401-0.398,0.81-0.807,1.103-1.283
							c0.392-0.641,0.909-0.81,1.591-0.683c2.897,0.543,5.748,0.117,8.585-0.46C100.883,181.219,101.107,181.414,100.814,182.656z
							 M104.317,176.387c-1.246,2.569-3.035,4.138-6.008,4.382c-2.282,0.187-4.533,0.653-6.838,0.267
							c-0.613-0.099-0.97-0.228-0.882-0.985c0.093-0.807,0.02-1.634,0.02-2.448c0.016-3.5-0.368-6.954-1.307-10.333
							c-0.208-0.754-0.409-1.547-0.897-2.163c-0.569-0.709-0.337-1.119,0.212-1.724c2.87-3.175,4.67-6.975,6.152-10.939
							c0.578-1.531,1.075-3.084,1.443-4.678c0.16-0.685,0.533-0.92,1.193-0.929c2.262-0.02,4.51,0.222,6.763,0.394
							c0.517,0.04,0.749,0.414,0.965,0.801c1.627,2.881,2.726,5.969,3.054,9.243C108.871,164.024,107.255,170.341,104.317,176.387z"
							/>
						
							<path fill="#FFFFFF" stroke="#000100" stroke-width="1.6032" stroke-linecap="round" stroke-linejoin="round" stroke-miterlimit="10" d="
							M104.317,176.387c-1.246,2.569-3.035,4.138-6.008,4.382c-2.282,0.187-4.533,0.653-6.838,0.267
							c-0.613-0.099-0.97-0.228-0.882-0.985c0.093-0.807,0.02-1.634,0.02-2.448c0.016-3.5-0.368-6.954-1.307-10.333
							c-0.208-0.754-0.409-1.547-0.897-2.163c-0.569-0.709-0.337-1.119,0.212-1.724c2.87-3.175,4.67-6.975,6.152-10.939
							c0.578-1.531,1.075-3.084,1.443-4.678c0.16-0.685,0.533-0.92,1.193-0.929c2.262-0.02,4.51,0.222,6.763,0.394
							c0.517,0.04,0.749,0.414,0.965,0.801c1.627,2.881,2.726,5.969,3.054,9.243C108.871,164.024,107.255,170.341,104.317,176.387z"
							/>
						
							<path fill="#FFFFFF" stroke="#000100" stroke-width="1.6032" stroke-linecap="round" stroke-linejoin="round" stroke-miterlimit="10" d="
							M100.814,182.656c-0.101,0.435-0.301,0.818-0.562,1.184c-6.637,9.282-15.475,15.371-26.524,18.232
							c-0.356,0.091-0.743,0.088-1.114,0.133c-0.613,0-1.19-0.149-1.776-0.277c-0.584-0.128-0.692-0.369-0.332-0.902
							c1.366-2.012,2.474-4.163,3.134-6.512c0.338-1.182,0.381-2.534,2.141-2.413c4.529-2.213,8.942-4.605,12.565-8.2
							c0.401-0.398,0.81-0.807,1.103-1.283c0.392-0.641,0.909-0.81,1.591-0.683c2.897,0.543,5.748,0.117,8.585-0.46
							C100.883,181.219,101.107,181.414,100.814,182.656z"/>
						
							<path fill="#FFFFFF" stroke="#000100" stroke-width="1.6032" stroke-linecap="round" stroke-linejoin="round" stroke-miterlimit="10" d="
							M73.055,192.913c-0.653,2.931-1.972,5.552-3.671,7.997c-0.348,0.505-0.894,0.677-1.435,0.845
							c-2.898,0.893-5.856,1.383-8.93,1.444c-6.757-0.799-13.267-2.285-18.601-6.938c-1.07-0.934-1.98-2.011-2.73-3.23
							c-0.288-0.464-0.341-0.905-0.161-1.427c0.842-2.4,1.772-4.765,2.75-7.113c0.281-0.674,0.669-0.767,1.311-0.682
							c5.936,0.757,11.831,0.509,17.683-0.75c0.357-0.073,0.702-0.241,1.03,0.15c2.269,2.738,5.312,4.486,8.25,6.354
							c1.299,0.827,2.645,1.576,3.996,2.309C73.01,192.127,73.171,192.38,73.055,192.913z"/>
						
							<path fill="#FFFFFF" stroke="#000100" stroke-width="1.6032" stroke-linecap="round" stroke-linejoin="round" stroke-miterlimit="10" d="
							M95.234,147.731c-1.214,4.349-2.821,8.521-5.291,12.32c-0.513,0.79-1.15,1.494-1.679,2.272
							c-0.869,1.27-2.092,1.823-3.588,1.898c-0.908,0.049-1.814,0.186-2.72,0.194c-2.822,0.025-5.646,0.009-8.469,0.009v0.208
							c-0.785,0-1.579-0.076-2.355,0.02c-1.231,0.144-2.073-0.37-2.826-1.287c-2.333-2.841-4.434-5.854-6.534-8.869
							c-1.491-2.14-2.94-4.306-4.42-6.449c-0.285-0.409-0.445-0.769-0.204-1.289c2.111-4.594,4.208-9.196,6.725-13.585
							c0.469-0.811,1.013-1.583,1.502-2.385c0.301-0.496,0.831-0.454,1.259-0.492c2.718-0.245,5.444-0.535,8.172-0.397
							c3.127,0.157,6.269,0.222,9.355,0.882c0.472,0.104,0.918,0.221,1.258,0.581c3.695,3.921,7.106,8.044,9.479,12.938
							C95.447,145.427,95.576,146.504,95.234,147.731z"/>
						
							<path fill="#FFFFFF" stroke="#000100" stroke-width="1.6032" stroke-linecap="round" stroke-linejoin="round" stroke-miterlimit="10" d="
							M88.146,122.289c-1.183,2.289-2.361,4.577-3.532,6.869c-0.231,0.454-0.548,0.608-1.069,0.517
							c-3.255-0.558-6.542-0.746-10.077-0.685c-2.498-0.089-5.218,0.081-7.924,0.477c-0.344,0.052-0.608,0.007-0.86-0.232
							c-3.448-3.363-7.704-5.489-11.9-7.692c-0.686-0.357-0.75-0.71-0.553-1.318c0.709-2.2,1.768-4.208,3.121-6.093
							c1.143-1.586,2.854-1.703,4.506-1.968c8.205-1.305,15.832,0.699,23.129,4.244c2.201,1.07,3.621,3.164,5.187,5.003
							C88.413,121.691,88.294,121.995,88.146,122.289z"/>
						
							<path fill="#FFFFFF" stroke="#000100" stroke-width="1.6032" stroke-linecap="round" stroke-linejoin="round" stroke-miterlimit="10" d="
							M54.313,113.876c-1.371,1.938-2.449,4.02-3.074,6.319c-0.156,0.577-0.397,0.955-1.069,0.942
							c-0.269-0.005-0.558,0.117-0.807,0.236c-4.172,2.015-8.292,4.184-11.599,7.454c-1.467,1.455-3.014,2-4.903,2.273
							c-2.264,0.325-4.508,0.802-6.724,1.392c-0.666,0.179-1.07,0.11-0.943-0.626c0.044-0.806,0.349-1.402,0.787-1.963
							c7.054-9.146,16.195-14.975,27.505-17.363c0.554-0.115,1.327-0.558,1.656,0C55.424,113.021,54.626,113.43,54.313,113.876z"/>
						
							<path fill="#FFFFFF" stroke="#000100" stroke-width="1.6032" stroke-linecap="round" stroke-linejoin="round" stroke-miterlimit="10" d="
							M37.015,148.496c-2.617,2.763-3.947,6.234-5.326,9.673c-0.911,2.272-1.668,4.601-2.232,6.986
							c-0.129,0.565-0.396,0.738-0.942,0.825c-1.438,0.233-2.882,0.112-3.968,0.181c-1.295,0-2.24-0.049-3.178,0.015
							c-0.918,0.06-1.46-0.376-1.913-1.093c-1.462-2.304-2.408-4.853-2.505-7.524c-0.3-8.423,1.487-16.264,7.127-22.876
							c0.473-0.555,0.994-0.898,1.699-1.088c2.854-0.752,5.751-1.27,8.653-1.786c0.377-0.068,0.733-0.1,0.557,0.494
							c-0.636,2.159-0.341,4.367-0.236,6.548c0.104,2.088,0.416,4.177,1.042,6.195c0.28,0.907,0.597,1.789,1.187,2.546
							C37.212,147.897,37.331,148.163,37.015,148.496z"/>
						
							<path fill="#FFFFFF" stroke="#000100" stroke-width="1.6032" stroke-linecap="round" stroke-linejoin="round" stroke-miterlimit="10" d="
							M68.21,165.619c-2.209,4.829-4.445,9.638-7.043,14.275c-0.91,1.62-2.128,2.405-3.907,2.634
							c-4.646,0.597-9.294,0.989-13.983,0.577c-1.396-0.124-2.559-0.532-3.52-1.676c-3.436-4.067-6.67-8.256-8.842-13.174
							c-0.589-1.33-0.669-2.604-0.24-4.006c1.269-4.153,2.697-8.24,4.838-12.038c0.869-1.536,1.815-3.013,3.479-3.863
							c0.501-0.253,0.981-0.381,1.522-0.381c2.454,0.004,4.901,0.004,7.355,0.004v0.004c2.356,0,4.713,0.036,7.069-0.02
							c0.854-0.016,1.375,0.271,1.848,0.978c3.002,4.456,5.992,8.921,9.267,13.186c0.629,0.818,1.294,1.615,1.98,2.393
							C68.351,164.87,68.401,165.189,68.21,165.619z"/>
					</g>
					<path fill="#FFFFFF" d="M108.17,152.318c-0.706-1.805-1.417-3.58-2.423-5.222c-0.127-0.205-0.209-0.468-0.216-0.705
						c-0.05-1.785,0.079-3.574-0.142-5.366C106.897,144.655,107.815,148.422,108.17,152.318z"/>
					<path fill="#FFFFFF" d="M94.563,124.637c-1.506-0.98-3.033-1.905-4.586-2.796c-0.969-0.557-1.434-1.683-2.137-2.557
						C90.334,120.762,92.539,122.585,94.563,124.637z"/>
					<path fill="#FFFFFF" d="M17.146,162.89c0.7,1.368,1.319,2.772,2.413,3.885c0.215,0.217,0.23,0.509,0.222,0.794
						c-0.086,2.82,0.246,5.597,0.874,8.346C18.78,171.761,17.569,167.434,17.146,162.89z"/>
					<path fill="#FFFFFF" d="M28.778,188.385c1.749,1.042,3.386,2.272,5.229,3.128c1.482,0.687,2.738,1.483,3.526,3.009
						c0.552,1.066,1.542,1.855,2.358,2.757C35.664,194.96,31.976,191.982,28.778,188.385z"/>
				</g>
			</g>
		</g>
	</g>
</g>
</svg>
