<?xml version="1.0" encoding="utf-8"?>
<!-- Generator: Adobe Illustrator 16.0.0, SVG Export Plug-In . SVG Version: 6.00 Build 0)  -->
<!DOCTYPE svg PUBLIC "-//W3C//DTD SVG 1.1//EN" "http://www.w3.org/Graphics/SVG/1.1/DTD/svg11.dtd">
<svg version="1.1" xmlns="http://www.w3.org/2000/svg" xmlns:xlink="http://www.w3.org/1999/xlink" x="0px" y="0px" width="220px"
	 height="220px" viewBox="0 0 220 220" enable-background="new 0 0 220 220" xml:space="preserve">
<g id="bg" display="none">
	<rect x="-2545.836" y="-3681.787" display="inline" fill="#FFFFFF" width="3240.076" height="8444.104"/>
</g>
<g id="Layer_3" display="none">
</g>
<g id="Layer_1">
	<g>
		<defs>
			<rect id="SVGID_261_" x="-2100" y="-2700" width="220" height="220"/>
		</defs>
		<clipPath id="SVGID_2_">
			<use xlink:href="#SVGID_261_"  overflow="visible"/>
		</clipPath>
	</g>
	<g>
		<defs>
			<rect id="SVGID_263_" x="-900" y="-2700" width="220" height="220"/>
		</defs>
		<clipPath id="SVGID_4_">
			<use xlink:href="#SVGID_263_"  overflow="visible"/>
		</clipPath>
	</g>
	<g>
		<defs>
			<rect id="SVGID_265_" x="-300" y="-2700" width="220" height="220"/>
		</defs>
		<clipPath id="SVGID_6_">
			<use xlink:href="#SVGID_265_"  overflow="visible"/>
		</clipPath>
	</g>
	<g>
		<defs>
			<rect id="SVGID_267_" x="-600" y="-2700" width="220" height="220"/>
		</defs>
		<clipPath id="SVGID_8_">
			<use xlink:href="#SVGID_267_"  overflow="visible"/>
		</clipPath>
	</g>
	<g>
		<defs>
			<rect id="SVGID_269_" x="-1800" y="-2700" width="220" height="220"/>
		</defs>
		<clipPath id="SVGID_10_">
			<use xlink:href="#SVGID_269_"  overflow="visible"/>
		</clipPath>
	</g>
	<g>
		<defs>
			<rect id="SVGID_271_" x="-1200" y="-2700" width="220" height="220"/>
		</defs>
		<clipPath id="SVGID_12_">
			<use xlink:href="#SVGID_271_"  overflow="visible"/>
		</clipPath>
	</g>
	<g>
		<rect x="-0.002" fill="#ECECEC" width="220" height="220"/>
		<g>
			
				<circle fill="#ED7E06" stroke="#000100" stroke-width="2.9042" stroke-linecap="round" stroke-linejoin="round" stroke-miterlimit="10" cx="62.71" cy="62.53" r="47.006"/>
			
				<path fill="none" stroke="#000100" stroke-width="2.9042" stroke-linecap="round" stroke-linejoin="round" stroke-miterlimit="10" d="
				M37.858,23.493c0,0,59.545,13.547,60.028,69.48"/>
			
				<line fill="none" stroke="#000100" stroke-width="2.9042" stroke-linecap="round" stroke-linejoin="round" stroke-miterlimit="10" x1="97.743" y1="31.079" x2="28.523" y2="94.387"/>
			
				<path fill="none" stroke="#000100" stroke-width="2.9042" stroke-linecap="round" stroke-linejoin="round" stroke-miterlimit="10" d="
				M108.835,58.231c0,0-36.237,6.133-45.529,50.289"/>
			
				<path fill="none" stroke="#000100" stroke-width="2.9042" stroke-linecap="round" stroke-linejoin="round" stroke-miterlimit="10" d="
				M72.839,16.622c0,0-11.609,35.545-55.694,37.586"/>
		</g>
		<g>
			
				<circle fill="#FFCF04" stroke="#000100" stroke-width="2.4" stroke-linecap="round" stroke-linejoin="round" stroke-miterlimit="10" cx="167.718" cy="52.047" r="26.522"/>
			
				<path fill="#FFCF04" stroke="#000100" stroke-width="2.4" stroke-linecap="round" stroke-linejoin="round" stroke-miterlimit="10" d="
				M166.423,26.083c-1.338,0.445-16.059,19.807,7.941,25.964c8.103,1.907,16.327,6.78,16.862,11.776"/>
			
				<path fill="#FFCF04" stroke="#000100" stroke-width="2.4" stroke-linecap="round" stroke-linejoin="round" stroke-miterlimit="10" d="
				M144.653,41.16c1.889-0.466,11.063,2.946,12.581,8.833c1.517,5.89-1.376,13.31-1.376,13.31s-1.837,6.321,1.466,11.672"/>
		</g>
		<path stroke="#000100" stroke-width="2.4" stroke-linecap="round" stroke-linejoin="round" stroke-miterlimit="10" d="
			M49.748,194.088c13.285,0,24.054-10.777,24.054-24.066c0-13.283-10.769-24.04-24.054-24.04c-13.274,0-24.046,10.757-24.046,24.04
			C25.702,183.311,36.473,194.088,49.748,194.088z"/>
		<g>
			<g id="Layer_2_14_">
				<g>
					<g id="soccer_14_">
						
							<path fill="#000100" stroke="#000100" stroke-width="1.6032" stroke-linecap="round" stroke-linejoin="round" stroke-miterlimit="10" d="
							M111.067,165.939c3.054,17.656,16.434,32.245,33.724,36.955c2.825,0.766,5.703,1.202,8.592,1.583h7.917
							c2.982-0.376,5.972-0.766,8.854-1.659c16.629-5.167,27.507-16.073,32.561-32.748c0.85-2.801,1.238-5.689,1.579-8.586v-7.921
							c-0.341-4.016-1.149-7.943-2.564-11.716c-5.659-15.094-16.229-24.978-31.659-29.653c-2.862-0.866-5.807-1.275-8.765-1.62
							h-7.921c-1.146,0.16-2.299,0.292-3.443,0.481c-12.208,2-22.196,7.86-29.743,17.618
							C111.673,139.696,108.699,152.211,111.067,165.939z M125.1,144.301c2.373-4.895,5.784-9.018,9.479-12.938
							c0.34-0.36,0.785-0.477,1.258-0.581c3.087-0.661,6.229-0.725,9.355-0.882c2.729-0.138,5.454,0.152,8.172,0.397
							c0.429,0.039,0.959-0.004,1.26,0.492c0.488,0.802,1.033,1.574,1.502,2.385c2.517,4.39,4.613,8.991,6.725,13.585
							c0.241,0.52,0.081,0.879-0.204,1.289c-1.479,2.144-2.929,4.309-4.42,6.449c-2.101,3.015-4.201,6.028-6.534,8.869
							c-0.753,0.917-1.595,1.431-2.826,1.287c-0.776-0.095-1.57-0.02-2.355-0.02v-0.208c-2.823,0-5.648,0.016-8.469-0.009
							c-0.906-0.008-1.813-0.145-2.721-0.194c-1.496-0.075-2.719-0.628-3.588-1.898c-0.529-0.779-1.166-1.482-1.679-2.272
							c-2.469-3.799-4.077-7.972-5.291-12.32C124.422,146.504,124.55,145.427,125.1,144.301z M180.241,181.429
							c-0.961,1.144-2.123,1.552-3.52,1.676c-4.689,0.413-9.338,0.021-13.983-0.577c-1.779-0.229-2.997-1.015-3.907-2.634
							c-2.598-4.637-4.834-9.447-7.043-14.275c-0.191-0.43-0.141-0.75,0.177-1.106c0.686-0.778,1.351-1.575,1.979-2.393
							c3.276-4.265,6.266-8.729,9.268-13.186c0.473-0.708,0.994-0.994,1.848-0.978c2.356,0.055,4.713,0.02,7.069,0.02v-0.004
							c2.454,0,4.901,0,7.355-0.004c0.541,0,1.021,0.128,1.522,0.381c1.663,0.85,2.609,2.327,3.479,3.863
							c2.141,3.798,3.569,7.884,4.838,12.038c0.429,1.402,0.349,2.677-0.24,4.006C186.911,173.173,183.677,177.363,180.241,181.429z
							 M164.647,114.131c1.354,1.885,2.412,3.893,3.121,6.093c0.197,0.608,0.133,0.961-0.553,1.318
							c-4.196,2.203-8.453,4.329-11.9,7.692c-0.252,0.24-0.517,0.284-0.86,0.232c-2.706-0.396-5.427-0.566-7.925-0.477
							c-3.534-0.061-6.821,0.127-10.076,0.685c-0.521,0.091-0.838-0.063-1.07-0.517c-1.17-2.292-2.349-4.581-3.532-6.869
							c-0.148-0.293-0.268-0.598-0.027-0.877c1.566-1.839,2.985-3.933,5.187-5.003c7.297-3.545,14.924-5.549,23.129-4.244
							C161.793,112.429,163.504,112.545,164.647,114.131z M193.86,132.494c-2.216-0.59-4.46-1.067-6.724-1.392
							c-1.888-0.273-3.436-0.818-4.903-2.273c-3.305-3.271-7.427-5.439-11.599-7.454c-0.248-0.12-0.537-0.241-0.806-0.236
							c-0.674,0.012-0.914-0.365-1.071-0.942c-0.625-2.3-1.703-4.381-3.074-6.319c-0.313-0.446-1.109-0.855-0.829-1.336
							c0.329-0.558,1.102-0.115,1.656,0c11.31,2.389,20.452,8.217,27.505,17.363c0.438,0.561,0.742,1.158,0.787,1.963
							C194.931,132.604,194.526,132.672,193.86,132.494z M191.483,165.979c-0.545-0.087-0.813-0.26-0.942-0.826
							c-0.563-2.383-1.322-4.714-2.232-6.984c-1.378-3.439-2.709-6.91-5.325-9.673c-0.317-0.333-0.197-0.602,0.035-0.906
							c0.589-0.757,0.905-1.637,1.187-2.544c0.625-2.019,0.938-4.107,1.042-6.195c0.104-2.181,0.4-4.39-0.237-6.549
							c-0.175-0.595,0.182-0.563,0.558-0.493c2.903,0.516,5.8,1.034,8.654,1.786c0.705,0.19,1.227,0.533,1.699,1.087
							c5.64,6.613,7.427,14.453,7.126,22.877c-0.097,2.67-1.042,5.22-2.505,7.524c-0.453,0.717-0.994,1.153-1.912,1.093
							c-0.938-0.064-1.884-0.016-3.178-0.016C194.365,166.091,192.923,166.211,191.483,165.979z M150.614,200.909
							c-1.699-2.444-3.018-5.066-3.671-7.997c-0.116-0.533,0.044-0.786,0.509-1.042c1.35-0.733,2.697-1.482,3.995-2.309
							c2.939-1.868,5.982-3.615,8.249-6.354c0.328-0.392,0.673-0.224,1.029-0.15c5.853,1.259,11.748,1.506,17.685,0.75
							c0.642-0.085,1.03,0.007,1.311,0.682c0.977,2.348,1.907,4.712,2.749,7.113c0.179,0.522,0.128,0.963-0.161,1.427
							c-0.749,1.22-1.659,2.297-2.73,3.23c-5.333,4.653-11.843,6.14-18.601,6.938c-3.074-0.061-6.032-0.551-8.93-1.444
							C151.508,201.587,150.963,201.415,150.614,200.909z M120.374,181.474c2.837,0.577,5.688,1.003,8.585,0.46
							c0.682-0.126,1.199,0.042,1.591,0.683c0.292,0.477,0.702,0.885,1.103,1.283c3.623,3.595,8.036,5.987,12.565,8.2
							c1.76-0.121,1.803,1.231,2.141,2.413c0.66,2.35,1.768,4.5,3.134,6.512c0.36,0.533,0.252,0.774-0.332,0.902
							c-0.586,0.128-1.163,0.277-1.777,0.277c-0.371-0.045-0.757-0.042-1.114-0.133c-11.049-2.862-19.888-8.95-26.524-18.232
							c-0.261-0.365-0.461-0.749-0.562-1.184C118.891,181.414,119.115,181.219,120.374,181.474z M111.81,157.274
							c0.329-3.274,1.427-6.362,3.054-9.243c0.217-0.388,0.449-0.762,0.966-0.801c2.253-0.172,4.501-0.413,6.763-0.394
							c0.66,0.009,1.033,0.244,1.193,0.929c0.368,1.593,0.865,3.147,1.443,4.678c1.482,3.964,3.283,7.765,6.152,10.939
							c0.549,0.605,0.781,1.015,0.211,1.724c-0.488,0.616-0.689,1.409-0.897,2.163c-0.938,3.379-1.322,6.833-1.307,10.333
							c0,0.814-0.073,1.642,0.02,2.448c0.088,0.757-0.269,0.887-0.882,0.985c-2.305,0.386-4.556-0.08-6.838-0.267
							c-2.973-0.245-4.762-1.813-6.008-4.382C112.743,170.341,111.127,164.024,111.81,157.274z"/>
						
							<path fill="#FFFFFF" stroke="#000100" stroke-width="1.6032" stroke-linecap="round" stroke-linejoin="round" stroke-miterlimit="10" d="
							M115.681,176.387c1.246,2.569,3.035,4.138,6.008,4.382c2.282,0.187,4.533,0.653,6.838,0.267
							c0.613-0.099,0.97-0.228,0.882-0.985c-0.093-0.807-0.02-1.634-0.02-2.448c-0.016-3.5,0.368-6.954,1.307-10.333
							c0.208-0.754,0.409-1.547,0.897-2.163c0.57-0.709,0.337-1.119-0.211-1.724c-2.87-3.175-4.67-6.975-6.152-10.939
							c-0.578-1.531-1.075-3.084-1.443-4.678c-0.16-0.685-0.533-0.92-1.193-0.929c-2.262-0.02-4.51,0.222-6.763,0.394
							c-0.517,0.04-0.749,0.414-0.966,0.801c-1.627,2.881-2.725,5.969-3.054,9.243C111.127,164.024,112.743,170.341,115.681,176.387
							z"/>
						
							<path fill="#FFFFFF" stroke="#000100" stroke-width="1.6032" stroke-linecap="round" stroke-linejoin="round" stroke-miterlimit="10" d="
							M119.184,182.656c0.101,0.435,0.301,0.818,0.562,1.184c6.637,9.282,15.475,15.371,26.524,18.232
							c0.356,0.091,0.743,0.088,1.114,0.133c0.614,0,1.191-0.149,1.777-0.277c0.584-0.128,0.692-0.369,0.332-0.902
							c-1.366-2.012-2.474-4.163-3.134-6.512c-0.338-1.182-0.381-2.534-2.141-2.413c-4.529-2.213-8.942-4.605-12.565-8.2
							c-0.4-0.398-0.81-0.807-1.103-1.283c-0.392-0.641-0.909-0.81-1.591-0.683c-2.897,0.543-5.748,0.117-8.585-0.46
							C119.115,181.219,118.891,181.414,119.184,182.656z"/>
						
							<path fill="#FFFFFF" stroke="#000100" stroke-width="1.6032" stroke-linecap="round" stroke-linejoin="round" stroke-miterlimit="10" d="
							M146.943,192.913c0.653,2.931,1.972,5.552,3.671,7.997c0.349,0.505,0.894,0.677,1.436,0.845
							c2.898,0.893,5.855,1.383,8.93,1.444c6.757-0.799,13.267-2.285,18.601-6.938c1.07-0.934,1.98-2.011,2.73-3.23
							c0.288-0.464,0.341-0.905,0.161-1.427c-0.842-2.4-1.772-4.765-2.75-7.113c-0.281-0.674-0.669-0.767-1.311-0.682
							c-5.936,0.757-11.831,0.509-17.683-0.75c-0.357-0.073-0.702-0.241-1.03,0.15c-2.268,2.738-5.311,4.486-8.249,6.354
							c-1.299,0.827-2.645,1.576-3.996,2.309C146.987,192.127,146.827,192.38,146.943,192.913z"/>
						
							<path fill="#FFFFFF" stroke="#000100" stroke-width="1.6032" stroke-linecap="round" stroke-linejoin="round" stroke-miterlimit="10" d="
							M124.764,147.731c1.214,4.349,2.821,8.521,5.291,12.32c0.513,0.79,1.15,1.494,1.679,2.272c0.869,1.27,2.092,1.823,3.588,1.898
							c0.908,0.049,1.815,0.186,2.721,0.194c2.821,0.025,5.646,0.009,8.469,0.009v0.208c0.785,0,1.579-0.076,2.355,0.02
							c1.231,0.144,2.073-0.37,2.826-1.287c2.333-2.841,4.434-5.854,6.534-8.869c1.491-2.14,2.94-4.306,4.42-6.449
							c0.285-0.409,0.445-0.769,0.204-1.289c-2.111-4.594-4.208-9.196-6.725-13.585c-0.469-0.811-1.014-1.583-1.502-2.385
							c-0.301-0.496-0.831-0.454-1.26-0.492c-2.718-0.245-5.443-0.535-8.172-0.397c-3.127,0.157-6.269,0.222-9.355,0.882
							c-0.473,0.104-0.918,0.221-1.258,0.581c-3.696,3.921-7.106,8.044-9.479,12.938
							C124.55,145.427,124.422,146.504,124.764,147.731z"/>
						
							<path fill="#FFFFFF" stroke="#000100" stroke-width="1.6032" stroke-linecap="round" stroke-linejoin="round" stroke-miterlimit="10" d="
							M131.853,122.289c1.183,2.289,2.361,4.577,3.532,6.869c0.232,0.454,0.548,0.608,1.07,0.517
							c3.255-0.558,6.542-0.746,10.076-0.685c2.498-0.089,5.219,0.081,7.925,0.477c0.344,0.052,0.608,0.007,0.86-0.232
							c3.448-3.363,7.704-5.489,11.9-7.692c0.686-0.357,0.75-0.71,0.553-1.318c-0.709-2.2-1.768-4.208-3.121-6.093
							c-1.143-1.586-2.854-1.703-4.506-1.968c-8.205-1.305-15.832,0.699-23.129,4.244c-2.201,1.07-3.621,3.164-5.187,5.003
							C131.585,121.691,131.704,121.995,131.853,122.289z"/>
						
							<path fill="#FFFFFF" stroke="#000100" stroke-width="1.6032" stroke-linecap="round" stroke-linejoin="round" stroke-miterlimit="10" d="
							M165.685,113.876c1.371,1.938,2.449,4.02,3.074,6.319c0.157,0.577,0.397,0.955,1.07,0.942
							c0.269-0.005,0.558,0.117,0.807,0.236c4.172,2.015,8.292,4.184,11.599,7.454c1.467,1.455,3.014,2,4.903,2.273
							c2.264,0.325,4.508,0.802,6.724,1.392c0.666,0.179,1.07,0.11,0.943-0.626c-0.045-0.806-0.349-1.402-0.787-1.963
							c-7.054-9.146-16.195-14.975-27.505-17.363c-0.554-0.115-1.327-0.558-1.656,0C164.574,113.021,165.372,113.43,165.685,113.876
							z"/>
						
							<path fill="#FFFFFF" stroke="#000100" stroke-width="1.6032" stroke-linecap="round" stroke-linejoin="round" stroke-miterlimit="10" d="
							M182.983,148.496c2.617,2.763,3.947,6.234,5.326,9.673c0.911,2.272,1.668,4.601,2.232,6.986
							c0.129,0.565,0.396,0.738,0.942,0.825c1.438,0.233,2.882,0.112,3.968,0.181c1.295,0,2.24-0.049,3.178,0.015
							c0.918,0.06,1.46-0.376,1.913-1.093c1.462-2.304,2.408-4.853,2.505-7.524c0.3-8.423-1.487-16.264-7.127-22.876
							c-0.473-0.555-0.994-0.898-1.699-1.088c-2.854-0.752-5.751-1.27-8.653-1.786c-0.377-0.068-0.733-0.1-0.557,0.494
							c0.636,2.159,0.341,4.367,0.236,6.548c-0.104,2.088-0.416,4.177-1.042,6.195c-0.28,0.907-0.597,1.789-1.187,2.546
							C182.786,147.897,182.667,148.163,182.983,148.496z"/>
						
							<path fill="#FFFFFF" stroke="#000100" stroke-width="1.6032" stroke-linecap="round" stroke-linejoin="round" stroke-miterlimit="10" d="
							M151.788,165.619c2.209,4.829,4.445,9.638,7.043,14.275c0.91,1.62,2.128,2.405,3.907,2.634
							c4.645,0.597,9.294,0.989,13.983,0.577c1.396-0.124,2.559-0.532,3.52-1.676c3.436-4.067,6.67-8.256,8.842-13.174
							c0.589-1.33,0.669-2.604,0.24-4.006c-1.269-4.153-2.697-8.24-4.838-12.038c-0.869-1.536-1.815-3.013-3.479-3.863
							c-0.501-0.253-0.981-0.381-1.522-0.381c-2.454,0.004-4.901,0.004-7.355,0.004v0.004c-2.356,0-4.713,0.036-7.069-0.02
							c-0.854-0.016-1.375,0.271-1.848,0.978c-3.002,4.456-5.992,8.921-9.268,13.186c-0.629,0.818-1.294,1.615-1.979,2.393
							C151.647,164.87,151.597,165.189,151.788,165.619z"/>
					</g>
					<path fill="#FFFFFF" d="M111.828,152.318c0.706-1.805,1.417-3.58,2.423-5.222c0.127-0.205,0.209-0.468,0.216-0.705
						c0.05-1.785-0.079-3.574,0.142-5.366C113.101,144.655,112.183,148.422,111.828,152.318z"/>
					<path fill="#FFFFFF" d="M125.435,124.637c1.506-0.98,3.033-1.905,4.586-2.796c0.969-0.557,1.434-1.683,2.137-2.557
						C129.664,120.762,127.459,122.585,125.435,124.637z"/>
					<path fill="#FFFFFF" d="M202.852,162.89c-0.7,1.368-1.319,2.772-2.413,3.885c-0.215,0.217-0.23,0.509-0.222,0.794
						c0.086,2.82-0.246,5.597-0.875,8.346C201.217,171.761,202.429,167.434,202.852,162.89z"/>
					<path fill="#FFFFFF" d="M191.22,188.385c-1.749,1.042-3.386,2.272-5.229,3.128c-1.483,0.687-2.738,1.483-3.526,3.009
						c-0.552,1.066-1.542,1.855-2.358,2.757C184.334,194.96,188.022,191.982,191.22,188.385z"/>
				</g>
			</g>
		</g>
	</g>
</g>
</svg>
