<?xml version="1.0" encoding="utf-8"?>
<!-- Generator: Adobe Illustrator 16.0.0, SVG Export Plug-In . SVG Version: 6.00 Build 0)  -->
<!DOCTYPE svg PUBLIC "-//W3C//DTD SVG 1.1//EN" "http://www.w3.org/Graphics/SVG/1.1/DTD/svg11.dtd">
<svg version="1.1" xmlns="http://www.w3.org/2000/svg" xmlns:xlink="http://www.w3.org/1999/xlink" x="0px" y="0px" width="220px"
	 height="220px" viewBox="0 0 220 220" enable-background="new 0 0 220 220" xml:space="preserve">
<g id="bg" display="none">
	<rect x="-445.836" y="-3681.787" display="inline" fill="#FFFFFF" width="3240.076" height="8444.104"/>
</g>
<g id="Layer_3" display="none">
</g>
<g id="Layer_1">
	<g>
		<defs>
			<rect id="SVGID_261_" y="-2700" width="220" height="220"/>
		</defs>
		<clipPath id="SVGID_2_">
			<use xlink:href="#SVGID_261_"  overflow="visible"/>
		</clipPath>
	</g>
	<g>
		<rect x="0" fill="#ECECEC" width="220" height="220"/>
		<g>
			
				<circle fill="#ED7E06" stroke="#000100" stroke-width="2.9042" stroke-linecap="round" stroke-linejoin="round" stroke-miterlimit="10" cx="157.47" cy="157.288" r="47.006"/>
			
				<path fill="none" stroke="#000100" stroke-width="2.9042" stroke-linecap="round" stroke-linejoin="round" stroke-miterlimit="10" d="
				M196.507,182.14c0,0-13.547-59.545-69.48-60.028"/>
			
				<line fill="none" stroke="#000100" stroke-width="2.9042" stroke-linecap="round" stroke-linejoin="round" stroke-miterlimit="10" x1="188.921" y1="122.255" x2="125.612" y2="191.475"/>
			
				<path fill="none" stroke="#000100" stroke-width="2.9042" stroke-linecap="round" stroke-linejoin="round" stroke-miterlimit="10" d="
				M161.769,111.163c0,0-6.133,36.237-50.289,45.529"/>
			
				<path fill="none" stroke="#000100" stroke-width="2.9042" stroke-linecap="round" stroke-linejoin="round" stroke-miterlimit="10" d="
				M203.378,147.159c0,0-35.545,11.609-37.586,55.694"/>
		</g>
		<g>
			
				<circle fill="#FFCF04" stroke="#000100" stroke-width="2.4" stroke-linecap="round" stroke-linejoin="round" stroke-miterlimit="10" cx="167.953" cy="52.28" r="26.522"/>
			
				<path fill="#FFCF04" stroke="#000100" stroke-width="2.4" stroke-linecap="round" stroke-linejoin="round" stroke-miterlimit="10" d="
				M193.917,53.575c-0.445,1.338-19.807,16.059-25.965-7.941c-1.906-8.103-6.779-16.327-11.775-16.862"/>
			
				<path fill="#FFCF04" stroke="#000100" stroke-width="2.4" stroke-linecap="round" stroke-linejoin="round" stroke-miterlimit="10" d="
				M178.839,75.345c0.467-1.889-2.945-11.063-8.832-12.581c-5.891-1.517-13.311,1.376-13.311,1.376s-6.32,1.837-11.671-1.466"/>
		</g>
		
			<path fill="#FFFFFF" stroke="#000100" stroke-width="2.4" stroke-linecap="round" stroke-linejoin="round" stroke-miterlimit="10" d="
			M25.912,170.25c0-13.285,10.777-24.054,24.067-24.054c13.283,0,24.04,10.769,24.04,24.054c0,13.274-10.757,24.046-24.04,24.046
			C36.689,194.296,25.912,183.525,25.912,170.25z"/>
		<g>
			<g id="Layer_2_7_">
				<g>
					<g id="soccer_7_">
						
							<path fill="#000100" stroke="#000100" stroke-width="1.6032" stroke-linecap="round" stroke-linejoin="round" stroke-miterlimit="10" d="
							M91.328,99.801c9.758-7.547,15.618-17.535,17.618-29.743c0.189-1.144,0.321-2.297,0.481-3.443v-7.92
							c-0.345-2.959-0.754-5.903-1.62-8.766c-4.676-15.431-14.56-26-29.653-31.659c-3.772-1.415-7.7-2.224-11.716-2.564h-7.921
							c-2.897,0.341-5.784,0.729-8.586,1.579C33.255,22.338,22.35,33.216,17.183,49.845c-0.894,2.882-1.283,5.871-1.659,8.854v7.916
							c0.38,2.89,0.817,5.768,1.583,8.593c4.709,17.29,19.297,30.67,36.954,33.724C67.789,111.299,80.304,108.325,91.328,99.801z
							 M72.269,95.234c-4.349-1.214-8.521-2.821-12.321-5.291c-0.79-0.513-1.494-1.149-2.272-1.679
							c-1.271-0.869-1.823-2.092-1.898-3.588c-0.049-0.908-0.186-1.814-0.193-2.721c-0.025-2.821-0.009-5.646-0.009-8.469h-0.209
							c0-0.785,0.077-1.579-0.019-2.355c-0.144-1.231,0.37-2.073,1.287-2.826c2.841-2.333,5.854-4.434,8.869-6.534
							c2.141-1.491,4.306-2.94,6.449-4.42c0.409-0.285,0.77-0.445,1.289-0.204c4.594,2.111,9.196,4.208,13.585,6.725
							c0.812,0.469,1.583,1.014,2.385,1.502c0.496,0.301,0.453,0.831,0.492,1.26c0.245,2.718,0.535,5.443,0.397,8.172
							c-0.157,3.127-0.222,6.269-0.882,9.355c-0.105,0.473-0.221,0.918-0.581,1.258c-3.921,3.695-8.044,7.106-12.938,9.479
							C74.573,95.447,73.496,95.576,72.269,95.234z M51.745,30.915c1.33-0.589,2.605-0.669,4.007-0.24
							c4.153,1.269,8.24,2.697,12.037,4.838c1.536,0.869,3.014,1.815,3.863,3.479c0.252,0.501,0.38,0.981,0.38,1.522
							c-0.003,2.454-0.003,4.901-0.003,7.355h-0.004c0,2.356-0.037,4.713,0.02,7.069c0.016,0.854-0.271,1.375-0.979,1.848
							c-4.456,3.002-8.921,5.992-13.186,9.268c-0.817,0.629-1.615,1.294-2.393,1.979c-0.357,0.317-0.676,0.368-1.106,0.177
							c-4.829-2.209-9.639-4.445-14.276-7.043c-1.619-0.91-2.404-2.128-2.634-3.907c-0.597-4.646-0.989-9.294-0.576-13.983
							c0.124-1.396,0.532-2.559,1.676-3.52C42.637,36.321,46.827,33.087,51.745,30.915z M107.836,59.856
							c1.306,8.205-0.698,15.832-4.244,23.13c-1.07,2.201-3.164,3.62-5.003,5.187c-0.28,0.24-0.584,0.121-0.878-0.027
							c-2.288-1.183-4.577-2.361-6.869-3.532c-0.454-0.231-0.608-0.548-0.517-1.069c0.558-3.255,0.745-6.542,0.685-10.076
							c0.09-2.498-0.08-5.219-0.477-7.925c-0.053-0.344-0.008-0.608,0.232-0.86c3.363-3.448,5.488-7.704,7.691-11.9
							c0.357-0.686,0.71-0.75,1.318-0.553c2.2,0.709,4.208,1.768,6.093,3.121C107.455,56.494,107.571,58.205,107.836,59.856z
							 M88.133,25.195c0.806,0.044,1.402,0.349,1.963,0.787c9.146,7.054,14.975,16.195,17.363,27.505
							c0.115,0.554,0.558,1.327,0,1.656c-0.48,0.28-0.89-0.517-1.336-0.829c-1.938-1.371-4.02-2.449-6.319-3.074
							c-0.577-0.156-0.954-0.396-0.942-1.07c0.004-0.269-0.117-0.558-0.236-0.806c-2.015-4.172-4.184-8.293-7.454-11.599
							c-1.455-1.467-2-3.015-2.273-4.902c-0.325-2.265-0.802-4.509-1.392-6.725C87.328,25.472,87.396,25.067,88.133,25.195z
							 M53.84,24.546c0-1.294,0.048-2.24-0.016-3.178c-0.06-0.918,0.376-1.459,1.094-1.912c2.304-1.463,4.854-2.408,7.523-2.505
							c8.424-0.301,16.264,1.486,22.878,7.126c0.553,0.473,0.896,0.994,1.085,1.699c0.753,2.854,1.271,5.751,1.788,8.654
							c0.069,0.376,0.102,0.732-0.493,0.558c-2.16-0.638-4.368-0.342-6.549-0.237c-2.088,0.104-4.177,0.417-6.196,1.042
							c-0.907,0.281-1.787,0.598-2.544,1.187c-0.305,0.232-0.573,0.353-0.906,0.035c-2.763-2.616-6.233-3.947-9.673-5.325
							c-2.271-0.911-4.601-1.669-6.984-2.232c-0.566-0.129-0.739-0.397-0.826-0.942C53.789,27.075,53.909,25.633,53.84,24.546z
							 M18.246,67.949c-0.893-2.897-1.383-5.855-1.443-8.93c0.799-6.758,2.285-13.268,6.938-18.601
							c0.934-1.071,2.011-1.981,3.231-2.73c0.464-0.289,0.905-0.34,1.427-0.161c2.4,0.843,4.765,1.772,7.113,2.75
							c0.674,0.281,0.767,0.669,0.682,1.311c-0.757,5.937-0.51,11.832,0.749,17.685c0.073,0.356,0.241,0.701-0.15,1.029
							c-2.738,2.267-4.485,5.31-6.354,8.249c-0.826,1.298-1.576,2.646-2.309,3.995c-0.257,0.465-0.51,0.625-1.042,0.509
							c-2.931-0.652-5.552-1.972-7.996-3.671C18.585,69.035,18.413,68.489,18.246,67.949z M37.344,100.814
							c-0.435-0.101-0.818-0.301-1.184-0.562c-9.282-6.637-15.37-15.475-18.232-26.524c-0.091-0.356-0.088-0.742-0.133-1.114
							c0-0.613,0.149-1.19,0.277-1.776c0.129-0.584,0.37-0.692,0.903-0.332c2.012,1.366,4.163,2.474,6.512,3.134
							c1.182,0.338,2.534,0.381,2.413,2.141c2.212,4.529,4.605,8.942,8.2,12.565c0.397,0.4,0.805,0.81,1.283,1.103
							c0.641,0.392,0.81,0.909,0.683,1.591c-0.543,2.897-0.116,5.748,0.46,8.585C38.781,100.883,38.586,101.107,37.344,100.814z
							 M43.612,104.317c-2.569-1.246-4.137-3.035-4.381-6.008c-0.188-2.282-0.653-4.533-0.268-6.838
							c0.1-0.613,0.229-0.97,0.986-0.882c0.806,0.093,1.634,0.02,2.447,0.02c3.5,0.016,6.954-0.368,10.334-1.307
							c0.754-0.208,1.547-0.409,2.163-0.897c0.709-0.569,1.118-0.337,1.724,0.212c3.175,2.87,6.975,4.67,10.938,6.152
							c1.531,0.578,3.085,1.075,4.679,1.443c0.685,0.16,0.919,0.533,0.929,1.193c0.02,2.262-0.222,4.51-0.394,6.763
							c-0.039,0.517-0.413,0.749-0.801,0.966c-2.882,1.627-5.969,2.726-9.243,3.054C55.976,108.871,49.66,107.255,43.612,104.317z"
							/>
						
							<path fill="#FFFFFF" stroke="#000100" stroke-width="1.6032" stroke-linecap="round" stroke-linejoin="round" stroke-miterlimit="10" d="
							M43.612,104.317c-2.569-1.246-4.137-3.035-4.381-6.008c-0.188-2.282-0.653-4.533-0.268-6.838
							c0.1-0.613,0.229-0.97,0.986-0.882c0.806,0.093,1.634,0.02,2.447,0.02c3.5,0.016,6.954-0.368,10.334-1.307
							c0.754-0.208,1.547-0.409,2.163-0.897c0.709-0.569,1.118-0.337,1.724,0.212c3.175,2.87,6.975,4.67,10.938,6.152
							c1.531,0.578,3.085,1.075,4.679,1.443c0.685,0.16,0.919,0.533,0.929,1.193c0.02,2.262-0.222,4.51-0.394,6.763
							c-0.039,0.517-0.413,0.749-0.801,0.966c-2.882,1.627-5.969,2.726-9.243,3.054C55.976,108.871,49.66,107.255,43.612,104.317z"
							/>
						
							<path fill="#FFFFFF" stroke="#000100" stroke-width="1.6032" stroke-linecap="round" stroke-linejoin="round" stroke-miterlimit="10" d="
							M37.344,100.814c-0.435-0.101-0.818-0.301-1.184-0.562c-9.282-6.637-15.37-15.475-18.232-26.524
							c-0.091-0.356-0.088-0.742-0.133-1.114c0-0.613,0.149-1.19,0.277-1.776c0.129-0.584,0.37-0.692,0.903-0.332
							c2.012,1.366,4.163,2.474,6.512,3.134c1.182,0.338,2.534,0.381,2.413,2.141c2.212,4.529,4.605,8.942,8.2,12.565
							c0.397,0.4,0.805,0.81,1.283,1.103c0.641,0.392,0.81,0.909,0.683,1.591c-0.543,2.897-0.116,5.748,0.46,8.585
							C38.781,100.883,38.586,101.107,37.344,100.814z"/>
						
							<path fill="#FFFFFF" stroke="#000100" stroke-width="1.6032" stroke-linecap="round" stroke-linejoin="round" stroke-miterlimit="10" d="
							M27.087,73.055c-2.931-0.653-5.552-1.972-7.996-3.671c-0.506-0.349-0.678-0.895-0.846-1.436
							c-0.893-2.898-1.383-5.855-1.443-8.93c0.799-6.757,2.285-13.267,6.938-18.601c0.934-1.07,2.011-1.98,3.231-2.73
							c0.464-0.288,0.905-0.341,1.427-0.161c2.4,0.842,4.765,1.772,7.113,2.75c0.674,0.281,0.767,0.669,0.682,1.311
							c-0.757,5.936-0.51,11.831,0.749,17.683c0.073,0.357,0.241,0.702-0.15,1.03c-2.738,2.268-4.485,5.311-6.354,8.249
							c-0.826,1.299-1.576,2.645-2.309,3.996C27.873,73.011,27.62,73.171,27.087,73.055z"/>
						
							<path fill="#FFFFFF" stroke="#000100" stroke-width="1.6032" stroke-linecap="round" stroke-linejoin="round" stroke-miterlimit="10" d="
							M72.269,95.234c-4.349-1.214-8.521-2.821-12.321-5.291c-0.79-0.513-1.494-1.149-2.272-1.679
							c-1.271-0.869-1.823-2.092-1.898-3.588c-0.049-0.908-0.186-1.814-0.193-2.721c-0.025-2.821-0.009-5.646-0.009-8.469h-0.209
							c0-0.785,0.077-1.579-0.019-2.355c-0.144-1.231,0.37-2.073,1.287-2.826c2.841-2.333,5.854-4.434,8.869-6.534
							c2.141-1.491,4.306-2.94,6.449-4.42c0.409-0.285,0.77-0.445,1.289-0.204c4.594,2.111,9.196,4.208,13.585,6.725
							c0.812,0.469,1.583,1.014,2.385,1.502c0.496,0.301,0.453,0.831,0.492,1.26c0.245,2.718,0.535,5.443,0.397,8.172
							c-0.157,3.127-0.222,6.269-0.882,9.355c-0.105,0.473-0.221,0.918-0.581,1.258c-3.921,3.695-8.044,7.106-12.938,9.479
							C74.573,95.447,73.496,95.576,72.269,95.234z"/>
						
							<path fill="#FFFFFF" stroke="#000100" stroke-width="1.6032" stroke-linecap="round" stroke-linejoin="round" stroke-miterlimit="10" d="
							M97.711,88.146c-2.288-1.183-4.577-2.361-6.869-3.532c-0.454-0.231-0.608-0.548-0.517-1.069
							c0.558-3.255,0.745-6.542,0.685-10.076c0.09-2.498-0.08-5.219-0.477-7.925c-0.053-0.344-0.008-0.608,0.232-0.86
							c3.363-3.448,5.488-7.704,7.691-11.9c0.357-0.686,0.71-0.75,1.318-0.553c2.2,0.709,4.208,1.768,6.093,3.121
							c1.586,1.143,1.703,2.854,1.968,4.506c1.306,8.205-0.698,15.832-4.244,23.13c-1.07,2.2-3.164,3.62-5.003,5.187
							C98.309,88.413,98.005,88.294,97.711,88.146z"/>
						
							<path fill="#FFFFFF" stroke="#000100" stroke-width="1.6032" stroke-linecap="round" stroke-linejoin="round" stroke-miterlimit="10" d="
							M106.124,54.313c-1.938-1.371-4.02-2.449-6.319-3.074c-0.577-0.156-0.954-0.396-0.942-1.069
							c0.004-0.269-0.117-0.558-0.236-0.807c-2.015-4.172-4.184-8.292-7.454-11.599c-1.455-1.467-2-3.014-2.273-4.902
							c-0.325-2.265-0.802-4.509-1.392-6.725c-0.179-0.666-0.11-1.07,0.627-0.943c0.806,0.044,1.402,0.349,1.963,0.787
							c9.146,7.054,14.975,16.195,17.363,27.505c0.115,0.554,0.558,1.327,0,1.656C106.979,55.424,106.57,54.626,106.124,54.313z"/>
						
							<path fill="#FFFFFF" stroke="#000100" stroke-width="1.6032" stroke-linecap="round" stroke-linejoin="round" stroke-miterlimit="10" d="
							M71.504,37.015c-2.763-2.617-6.233-3.947-9.673-5.326c-2.271-0.91-4.601-1.668-6.985-2.232
							c-0.566-0.129-0.738-0.396-0.825-0.942c-0.233-1.438-0.112-2.882-0.182-3.968c0-1.295,0.049-2.24-0.015-3.178
							c-0.06-0.918,0.376-1.46,1.094-1.913c2.304-1.462,4.853-2.408,7.523-2.505c8.423-0.3,16.264,1.487,22.877,7.127
							c0.554,0.473,0.897,0.994,1.086,1.699c0.753,2.854,1.271,5.751,1.788,8.653c0.067,0.377,0.1,0.733-0.495,0.557
							c-2.159-0.636-4.367-0.341-6.547-0.236c-2.089,0.104-4.177,0.416-6.196,1.042c-0.907,0.28-1.788,0.597-2.546,1.187
							C72.103,37.212,71.837,37.331,71.504,37.015z"/>
						
							<path fill="#FFFFFF" stroke="#000100" stroke-width="1.6032" stroke-linecap="round" stroke-linejoin="round" stroke-miterlimit="10" d="
							M54.381,68.21c-4.829-2.209-9.639-4.445-14.276-7.043c-1.619-0.91-2.404-2.128-2.634-3.907
							c-0.597-4.646-0.989-9.294-0.576-13.983c0.124-1.396,0.532-2.559,1.676-3.52c4.067-3.436,8.256-6.67,13.174-8.842
							c1.33-0.589,2.605-0.669,4.007-0.24c4.153,1.269,8.24,2.697,12.037,4.838c1.536,0.869,3.014,1.815,3.863,3.479
							c0.252,0.501,0.38,0.981,0.38,1.522c-0.003,2.454-0.003,4.901-0.003,7.355h-0.004c0,2.356-0.037,4.713,0.02,7.069
							c0.016,0.854-0.271,1.375-0.979,1.848c-4.456,3.002-8.921,5.992-13.186,9.268c-0.817,0.629-1.615,1.294-2.393,1.979
							C55.13,68.351,54.811,68.401,54.381,68.21z"/>
					</g>
					<path fill="#FFFFFF" d="M67.682,108.17c1.805-0.706,3.58-1.417,5.222-2.423c0.205-0.127,0.467-0.209,0.704-0.216
						c1.785-0.05,3.574,0.079,5.366-0.142C75.345,106.897,71.578,107.815,67.682,108.17z"/>
					<path fill="#FFFFFF" d="M95.362,94.563c0.981-1.506,1.906-3.033,2.797-4.586c0.557-0.969,1.683-1.434,2.557-2.137
						C99.237,90.334,97.415,92.539,95.362,94.563z"/>
					<path fill="#FFFFFF" d="M57.111,17.146c-1.368,0.7-2.772,1.319-3.885,2.413c-0.218,0.215-0.51,0.23-0.795,0.222
						c-2.819-0.086-5.597,0.246-8.346,0.874C48.238,18.78,52.566,17.569,57.111,17.146z"/>
					<path fill="#FFFFFF" d="M31.615,28.778c-1.043,1.749-2.272,3.386-3.128,5.229c-0.687,1.482-1.483,2.738-3.009,3.526
						c-1.066,0.552-1.855,1.542-2.757,2.358C25.04,35.664,28.018,31.976,31.615,28.778z"/>
				</g>
			</g>
		</g>
	</g>
</g>
</svg>
