<?xml version="1.0" encoding="utf-8"?>
<!-- Generator: Adobe Illustrator 16.0.0, SVG Export Plug-In . SVG Version: 6.00 Build 0)  -->
<!DOCTYPE svg PUBLIC "-//W3C//DTD SVG 1.1//EN" "http://www.w3.org/Graphics/SVG/1.1/DTD/svg11.dtd">
<svg version="1.1" xmlns="http://www.w3.org/2000/svg" xmlns:xlink="http://www.w3.org/1999/xlink" x="0px" y="0px" width="220px"
	 height="220px" viewBox="0 0 220 220" enable-background="new 0 0 220 220" xml:space="preserve">
<g id="bg" display="none">
	<rect x="-2245.836" y="-3681.787" display="inline" fill="#FFFFFF" width="3240.076" height="8444.104"/>
</g>
<g id="Layer_3" display="none">
</g>
<g id="Layer_1">
	<g>
		<defs>
			<rect id="SVGID_261_" x="-1800" y="-2700" width="220" height="220"/>
		</defs>
		<clipPath id="SVGID_2_">
			<use xlink:href="#SVGID_261_"  overflow="visible"/>
		</clipPath>
	</g>
	<g>
		<defs>
			<rect id="SVGID_263_" x="-600" y="-2700" width="220" height="220"/>
		</defs>
		<clipPath id="SVGID_4_">
			<use xlink:href="#SVGID_263_"  overflow="visible"/>
		</clipPath>
	</g>
	<g>
		<defs>
			<rect id="SVGID_265_" x="0" y="-2700" width="220" height="220"/>
		</defs>
		<clipPath id="SVGID_6_">
			<use xlink:href="#SVGID_265_"  overflow="visible"/>
		</clipPath>
	</g>
	<g>
		<defs>
			<rect id="SVGID_267_" x="-300" y="-2700" width="220" height="220"/>
		</defs>
		<clipPath id="SVGID_8_">
			<use xlink:href="#SVGID_267_"  overflow="visible"/>
		</clipPath>
	</g>
	<g>
		<defs>
			<rect id="SVGID_269_" x="-1500" y="-2700" width="220" height="220"/>
		</defs>
		<clipPath id="SVGID_10_">
			<use xlink:href="#SVGID_269_"  overflow="visible"/>
		</clipPath>
	</g>
	<g>
		<defs>
			<rect id="SVGID_271_" x="-900" y="-2700" width="220" height="220"/>
		</defs>
		<clipPath id="SVGID_12_">
			<use xlink:href="#SVGID_271_"  overflow="visible"/>
		</clipPath>
	</g>
	<g>
		<rect x="0" fill="#ECECEC" width="220" height="220"/>
		<g>
			
				<circle fill="#ED7E06" stroke="#000100" stroke-width="2.9042" stroke-linecap="round" stroke-linejoin="round" stroke-miterlimit="10" cx="157.471" cy="62.712" r="47.006"/>
			
				<path fill="none" stroke="#000100" stroke-width="2.9042" stroke-linecap="round" stroke-linejoin="round" stroke-miterlimit="10" d="
				M196.508,37.86c0,0-13.547,59.545-69.48,60.028"/>
			
				<line fill="none" stroke="#000100" stroke-width="2.9042" stroke-linecap="round" stroke-linejoin="round" stroke-miterlimit="10" x1="188.922" y1="97.745" x2="125.613" y2="28.525"/>
			
				<path fill="none" stroke="#000100" stroke-width="2.9042" stroke-linecap="round" stroke-linejoin="round" stroke-miterlimit="10" d="
				M161.77,108.837c0,0-6.133-36.237-50.289-45.529"/>
			
				<path fill="none" stroke="#000100" stroke-width="2.9042" stroke-linecap="round" stroke-linejoin="round" stroke-miterlimit="10" d="
				M203.379,72.841c0,0-35.545-11.609-37.586-55.694"/>
		</g>
		<g>
			
				<circle fill="#FFCF04" stroke="#000100" stroke-width="2.4" stroke-linecap="round" stroke-linejoin="round" stroke-miterlimit="10" cx="167.954" cy="167.72" r="26.522"/>
			
				<path fill="#FFCF04" stroke="#000100" stroke-width="2.4" stroke-linecap="round" stroke-linejoin="round" stroke-miterlimit="10" d="
				M193.918,166.425c-0.445-1.338-19.807-16.059-25.965,7.941c-1.906,8.103-6.779,16.327-11.775,16.862"/>
			
				<path fill="#FFCF04" stroke="#000100" stroke-width="2.4" stroke-linecap="round" stroke-linejoin="round" stroke-miterlimit="10" d="
				M178.84,144.655c0.467,1.889-2.945,11.063-8.832,12.581c-5.891,1.517-13.311-1.376-13.311-1.376s-6.32-1.837-11.671,1.466"/>
		</g>
		
			<path fill="#FFFFFF" stroke="#000100" stroke-width="2.4" stroke-linecap="round" stroke-linejoin="round" stroke-miterlimit="10" d="
			M25.913,49.75c0,13.284,10.777,24.054,24.067,24.054c13.283,0,24.04-10.77,24.04-24.054c0-13.274-10.757-24.046-24.04-24.046
			C36.69,25.704,25.913,36.476,25.913,49.75z"/>
		<g>
			<g id="Layer_2_13_">
				<g>
					<g id="soccer_13_">
						
							<path fill="#000100" stroke="#000100" stroke-width="1.6032" stroke-linecap="round" stroke-linejoin="round" stroke-miterlimit="10" d="
							M54.062,111.069c-17.657,3.054-32.245,16.434-36.954,33.724c-0.766,2.825-1.203,5.703-1.583,8.593v7.916
							c0.376,2.982,0.766,5.972,1.659,8.854c5.167,16.629,16.072,27.507,32.748,32.561c2.802,0.85,5.688,1.238,8.586,1.579h7.921
							c4.016-0.341,7.943-1.149,11.715-2.564c15.094-5.659,24.978-16.229,29.654-31.659c0.866-2.862,1.275-5.807,1.62-8.765v-7.921
							c-0.16-1.146-0.292-2.3-0.482-3.443c-2-12.208-7.86-22.196-17.618-29.743C80.305,111.675,67.79,108.701,54.062,111.069z
							 M75.701,125.102c4.895,2.373,9.018,5.784,12.938,9.479c0.36,0.34,0.477,0.785,0.581,1.258
							c0.66,3.087,0.725,6.229,0.882,9.355c0.138,2.729-0.152,5.454-0.397,8.172c-0.039,0.429,0.004,0.959-0.492,1.26
							c-0.802,0.488-1.573,1.033-2.385,1.502c-4.39,2.517-8.991,4.613-13.585,6.725c-0.52,0.241-0.88,0.081-1.289-0.204
							c-2.144-1.479-4.309-2.929-6.449-4.42c-3.015-2.101-6.028-4.201-8.869-6.534c-0.917-0.753-1.431-1.595-1.287-2.826
							c0.096-0.776,0.02-1.57,0.02-2.354h0.209c0-2.823-0.017-5.648,0.009-8.47c0.008-0.905,0.145-1.813,0.193-2.721
							c0.075-1.496,0.628-2.719,1.898-3.588c0.778-0.529,1.482-1.166,2.272-1.679c3.8-2.47,7.972-4.077,12.32-5.291
							C73.497,124.424,74.575,124.553,75.701,125.102z M38.571,180.243c-1.143-0.961-1.551-2.123-1.675-3.52
							c-0.413-4.689-0.021-9.338,0.576-13.983c0.229-1.779,1.015-2.997,2.634-3.907c4.638-2.598,9.447-4.834,14.276-7.043
							c0.43-0.191,0.749-0.141,1.106,0.177c0.778,0.686,1.576,1.351,2.393,1.979c4.265,3.276,8.729,6.266,13.186,9.268
							c0.707,0.473,0.994,0.994,0.979,1.848c-0.056,2.356-0.02,4.713-0.02,7.069h0.004c0,2.454,0,4.901,0.004,7.355
							c0,0.541-0.128,1.021-0.381,1.522c-0.85,1.663-2.327,2.609-3.863,3.479c-3.797,2.141-7.884,3.569-12.037,4.838
							c-1.401,0.429-2.677,0.349-4.007-0.24C46.828,186.913,42.638,183.679,38.571,180.243z M105.87,164.649
							c-1.885,1.354-3.893,2.412-6.093,3.121c-0.608,0.197-0.961,0.133-1.318-0.553c-2.203-4.196-4.328-8.452-7.691-11.9
							c-0.24-0.252-0.285-0.517-0.232-0.86c0.396-2.706,0.566-5.427,0.477-7.925c0.06-3.534-0.127-6.821-0.685-10.076
							c-0.092-0.521,0.063-0.838,0.517-1.069c2.292-1.171,4.581-2.35,6.869-3.532c0.294-0.148,0.598-0.268,0.878-0.027
							c1.839,1.566,3.933,2.985,5.003,5.188c3.546,7.297,5.55,14.924,4.244,23.129C107.572,161.795,107.456,163.506,105.87,164.649z
							 M87.507,193.862c0.59-2.216,1.067-4.46,1.392-6.724c0.273-1.889,0.818-3.437,2.273-4.903
							c3.271-3.305,5.439-7.427,7.454-11.599c0.119-0.248,0.241-0.537,0.236-0.806c-0.011-0.674,0.366-0.914,0.943-1.07
							c2.3-0.625,4.381-1.703,6.319-3.074c0.446-0.313,0.855-1.109,1.336-0.829c0.558,0.329,0.115,1.102,0,1.656
							c-2.389,11.31-8.217,20.451-17.363,27.505c-0.561,0.438-1.157,0.742-1.963,0.787
							C87.397,194.933,87.329,194.528,87.507,193.862z M54.022,191.485c0.087-0.545,0.261-0.813,0.826-0.942
							c2.384-0.563,4.714-1.321,6.984-2.232c3.439-1.378,6.91-2.709,9.673-5.325c0.333-0.317,0.602-0.197,0.906,0.035
							c0.757,0.589,1.637,0.905,2.544,1.187c2.02,0.625,4.108,0.938,6.196,1.042c2.181,0.104,4.389,0.4,6.549-0.237
							c0.595-0.175,0.563,0.182,0.493,0.558c-0.517,2.903-1.034,5.8-1.787,8.654c-0.189,0.705-0.533,1.227-1.086,1.699
							c-6.614,5.64-14.453,7.427-22.878,7.126c-2.67-0.097-5.22-1.042-7.523-2.505c-0.718-0.453-1.154-0.994-1.094-1.912
							c0.063-0.938,0.016-1.884,0.016-3.178C53.91,194.367,53.79,192.925,54.022,191.485z M19.092,150.616
							c2.444-1.699,5.065-3.018,7.996-3.671c0.532-0.116,0.785,0.044,1.042,0.509c0.732,1.35,1.482,2.697,2.309,3.995
							c1.868,2.939,3.615,5.982,6.354,8.249c0.392,0.328,0.224,0.673,0.15,1.029c-1.259,5.853-1.506,11.748-0.749,17.685
							c0.085,0.643-0.008,1.03-0.682,1.312c-2.349,0.977-4.713,1.906-7.113,2.749c-0.521,0.179-0.963,0.128-1.427-0.161
							c-1.22-0.749-2.297-1.659-3.23-2.73c-4.653-5.333-6.14-11.843-6.938-18.601c0.06-3.074,0.551-6.032,1.443-8.93
							C18.414,151.511,18.586,150.965,19.092,150.616z M38.527,120.376c-0.576,2.837-1.003,5.688-0.46,8.585
							c0.127,0.682-0.042,1.199-0.683,1.591c-0.478,0.293-0.886,0.702-1.283,1.103c-3.595,3.623-5.988,8.036-8.2,12.565
							c0.121,1.76-1.23,1.803-2.413,2.141c-2.349,0.66-4.501,1.768-6.512,3.134c-0.533,0.36-0.773,0.252-0.902-0.332
							c-0.128-0.586-0.277-1.163-0.277-1.776c0.045-0.371,0.042-0.758,0.133-1.114c2.862-11.049,8.95-19.888,18.232-26.524
							c0.365-0.261,0.749-0.461,1.184-0.562C38.587,118.893,38.783,119.117,38.527,120.376z M62.727,111.812
							c3.274,0.329,6.361,1.427,9.243,3.054c0.388,0.217,0.762,0.449,0.801,0.966c0.172,2.253,0.413,4.501,0.394,6.763
							c-0.009,0.66-0.244,1.033-0.929,1.193c-1.594,0.368-3.147,0.865-4.679,1.443c-3.964,1.482-7.764,3.283-10.938,6.152
							c-0.605,0.549-1.015,0.781-1.724,0.212c-0.616-0.488-1.409-0.689-2.163-0.897c-3.38-0.938-6.834-1.322-10.334-1.307
							c-0.813,0-1.642-0.073-2.447,0.02c-0.758,0.088-0.887-0.269-0.986-0.882c-0.386-2.305,0.08-4.556,0.268-6.838
							c0.244-2.973,1.813-4.762,4.381-6.008C49.661,112.745,55.977,111.129,62.727,111.812z"/>
						
							<path fill="#FFFFFF" stroke="#000100" stroke-width="1.6032" stroke-linecap="round" stroke-linejoin="round" stroke-miterlimit="10" d="
							M43.613,115.683c-2.569,1.246-4.137,3.035-4.381,6.008c-0.188,2.282-0.653,4.533-0.268,6.838
							c0.1,0.613,0.229,0.97,0.986,0.882c0.806-0.093,1.634-0.02,2.447-0.02c3.5-0.016,6.954,0.368,10.334,1.307
							c0.754,0.208,1.547,0.409,2.163,0.897c0.709,0.569,1.118,0.337,1.724-0.212c3.175-2.869,6.975-4.67,10.938-6.152
							c1.531-0.578,3.085-1.075,4.679-1.443c0.685-0.16,0.919-0.533,0.929-1.193c0.02-2.262-0.222-4.51-0.394-6.763
							c-0.039-0.517-0.413-0.749-0.801-0.966c-2.882-1.627-5.969-2.725-9.243-3.054C55.977,111.129,49.661,112.745,43.613,115.683z"
							/>
						
							<path fill="#FFFFFF" stroke="#000100" stroke-width="1.6032" stroke-linecap="round" stroke-linejoin="round" stroke-miterlimit="10" d="
							M37.345,119.186c-0.435,0.101-0.818,0.301-1.184,0.562c-9.282,6.637-15.37,15.476-18.232,26.524
							c-0.091,0.356-0.088,0.743-0.133,1.114c0,0.613,0.149,1.19,0.277,1.776c0.129,0.584,0.369,0.692,0.902,0.332
							c2.011-1.366,4.163-2.474,6.512-3.134c1.182-0.338,2.534-0.381,2.413-2.141c2.212-4.529,4.605-8.942,8.2-12.565
							c0.397-0.4,0.806-0.81,1.283-1.103c0.641-0.392,0.81-0.909,0.683-1.591c-0.543-2.897-0.116-5.748,0.46-8.585
							C38.783,119.117,38.587,118.893,37.345,119.186z"/>
						
							<path fill="#FFFFFF" stroke="#000100" stroke-width="1.6032" stroke-linecap="round" stroke-linejoin="round" stroke-miterlimit="10" d="
							M27.088,146.945c-2.931,0.653-5.552,1.972-7.996,3.671c-0.506,0.349-0.678,0.895-0.846,1.436
							c-0.893,2.898-1.383,5.855-1.443,8.93c0.799,6.757,2.285,13.267,6.938,18.601c0.934,1.07,2.011,1.98,3.23,2.73
							c0.464,0.288,0.905,0.341,1.427,0.161c2.4-0.843,4.765-1.772,7.113-2.75c0.674-0.281,0.767-0.669,0.682-1.312
							c-0.757-5.936-0.51-11.831,0.749-17.683c0.073-0.357,0.241-0.702-0.15-1.03c-2.738-2.268-4.485-5.311-6.354-8.249
							c-0.827-1.299-1.577-2.645-2.309-3.996C27.874,146.989,27.621,146.829,27.088,146.945z"/>
						
							<path fill="#FFFFFF" stroke="#000100" stroke-width="1.6032" stroke-linecap="round" stroke-linejoin="round" stroke-miterlimit="10" d="
							M72.27,124.766c-4.349,1.214-8.521,2.821-12.32,5.291c-0.79,0.513-1.494,1.149-2.272,1.679
							c-1.271,0.869-1.823,2.092-1.898,3.588c-0.049,0.908-0.186,1.815-0.193,2.721c-0.025,2.821-0.009,5.646-0.009,8.47h-0.209
							c0,0.784,0.076,1.578-0.02,2.354c-0.144,1.231,0.37,2.073,1.287,2.826c2.841,2.333,5.854,4.434,8.869,6.534
							c2.141,1.491,4.306,2.94,6.449,4.42c0.409,0.285,0.77,0.445,1.289,0.204c4.594-2.111,9.195-4.208,13.585-6.725
							c0.812-0.469,1.583-1.014,2.385-1.502c0.496-0.301,0.453-0.831,0.492-1.26c0.245-2.718,0.535-5.443,0.397-8.172
							c-0.157-3.127-0.222-6.269-0.882-9.355c-0.104-0.473-0.221-0.918-0.581-1.258c-3.921-3.695-8.044-7.106-12.938-9.479
							C74.575,124.553,73.497,124.424,72.27,124.766z"/>
						
							<path fill="#FFFFFF" stroke="#000100" stroke-width="1.6032" stroke-linecap="round" stroke-linejoin="round" stroke-miterlimit="10" d="
							M97.712,131.854c-2.288,1.183-4.577,2.361-6.869,3.532c-0.454,0.231-0.608,0.548-0.517,1.069
							c0.558,3.255,0.745,6.542,0.685,10.076c0.09,2.498-0.08,5.219-0.477,7.925c-0.053,0.344-0.008,0.608,0.232,0.86
							c3.363,3.448,5.488,7.704,7.691,11.9c0.357,0.686,0.71,0.75,1.318,0.553c2.2-0.709,4.208-1.768,6.093-3.121
							c1.586-1.143,1.703-2.854,1.968-4.506c1.306-8.205-0.698-15.832-4.244-23.129c-1.07-2.201-3.164-3.621-5.003-5.188
							C98.31,131.587,98.006,131.706,97.712,131.854z"/>
						
							<path fill="#FFFFFF" stroke="#000100" stroke-width="1.6032" stroke-linecap="round" stroke-linejoin="round" stroke-miterlimit="10" d="
							M106.125,165.687c-1.938,1.371-4.02,2.449-6.319,3.074c-0.577,0.156-0.954,0.396-0.943,1.069
							c0.005,0.269-0.117,0.559-0.236,0.807c-2.015,4.172-4.184,8.292-7.454,11.599c-1.455,1.467-2,3.014-2.273,4.903
							c-0.324,2.264-0.802,4.508-1.392,6.724c-0.179,0.666-0.11,1.07,0.627,0.943c0.806-0.045,1.402-0.35,1.963-0.787
							c9.146-7.054,14.974-16.195,17.363-27.505c0.115-0.555,0.558-1.327,0-1.656C106.98,164.576,106.571,165.374,106.125,165.687z"
							/>
						
							<path fill="#FFFFFF" stroke="#000100" stroke-width="1.6032" stroke-linecap="round" stroke-linejoin="round" stroke-miterlimit="10" d="
							M71.505,182.985c-2.763,2.617-6.233,3.947-9.673,5.326c-2.271,0.911-4.601,1.668-6.985,2.232
							c-0.565,0.129-0.738,0.396-0.825,0.942c-0.233,1.438-0.112,2.882-0.182,3.968c0,1.295,0.049,2.24-0.015,3.178
							c-0.061,0.918,0.376,1.46,1.094,1.913c2.304,1.462,4.853,2.408,7.523,2.505c8.424,0.3,16.264-1.487,22.877-7.127
							c0.554-0.473,0.897-0.994,1.087-1.699c0.753-2.854,1.271-5.751,1.787-8.653c0.067-0.377,0.1-0.733-0.494-0.557
							c-2.159,0.636-4.367,0.341-6.548,0.235c-2.089-0.104-4.177-0.416-6.196-1.042c-0.907-0.28-1.788-0.597-2.546-1.187
							C72.104,182.788,71.838,182.669,71.505,182.985z"/>
						
							<path fill="#FFFFFF" stroke="#000100" stroke-width="1.6032" stroke-linecap="round" stroke-linejoin="round" stroke-miterlimit="10" d="
							M54.382,151.79c-4.829,2.209-9.639,4.445-14.276,7.043c-1.619,0.91-2.404,2.128-2.634,3.907
							c-0.597,4.646-0.989,9.294-0.576,13.983c0.124,1.396,0.532,2.559,1.675,3.52c4.068,3.436,8.256,6.67,13.174,8.842
							c1.33,0.589,2.605,0.669,4.007,0.24c4.153-1.269,8.24-2.697,12.037-4.838c1.536-0.869,3.014-1.815,3.863-3.479
							c0.252-0.501,0.381-0.981,0.381-1.522c-0.004-2.454-0.004-4.901-0.004-7.355h-0.004c0-2.356-0.036-4.713,0.02-7.069
							c0.016-0.854-0.271-1.375-0.979-1.848c-4.456-3.002-8.921-5.991-13.186-9.268c-0.817-0.629-1.615-1.294-2.393-1.979
							C55.131,151.649,54.812,151.599,54.382,151.79z"/>
					</g>
					<path fill="#FFFFFF" d="M67.683,111.83c1.804,0.706,3.58,1.417,5.221,2.423c0.206,0.127,0.467,0.209,0.705,0.216
						c1.785,0.05,3.574-0.078,5.366,0.142C75.346,113.103,71.579,112.185,67.683,111.83z"/>
					<path fill="#FFFFFF" d="M95.363,125.437c0.981,1.506,1.906,3.033,2.797,4.586c0.557,0.969,1.683,1.434,2.557,2.137
						C99.238,129.666,97.416,127.461,95.363,125.437z"/>
					<path fill="#FFFFFF" d="M57.112,202.854c-1.368-0.7-2.772-1.319-3.885-2.413c-0.218-0.215-0.51-0.23-0.795-0.222
						c-2.82,0.087-5.597-0.245-8.346-0.874C48.24,201.22,52.567,202.432,57.112,202.854z"/>
					<path fill="#FFFFFF" d="M31.617,191.223c-1.043-1.749-2.272-3.387-3.129-5.229c-0.686-1.482-1.483-2.738-3.008-3.526
						c-1.066-0.552-1.855-1.542-2.757-2.358C25.041,184.336,28.019,188.024,31.617,191.223z"/>
				</g>
			</g>
		</g>
	</g>
</g>
</svg>
