<?xml version="1.0" encoding="utf-8"?>
<!-- Generator: Adobe Illustrator 16.0.0, SVG Export Plug-In . SVG Version: 6.00 Build 0)  -->
<!DOCTYPE svg PUBLIC "-//W3C//DTD SVG 1.1//EN" "http://www.w3.org/Graphics/SVG/1.1/DTD/svg11.dtd">
<svg version="1.1" id="Layer_1" xmlns="http://www.w3.org/2000/svg" xmlns:xlink="http://www.w3.org/1999/xlink" x="0px" y="0px"
	 width="453.543px" height="453.545px" viewBox="0 0 453.543 453.545" enable-background="new 0 0 453.543 453.545"
	 xml:space="preserve">
<g id="kvadrat">
</g>
<g id="Layer_1_1_" display="none">
</g>
<g id="Layer_2">
	<g id="rdeÄa7bela">
	</g>
	<g>
		
			<circle fill="#BD1622" stroke="#000000" stroke-width="8" stroke-linecap="round" stroke-linejoin="round" stroke-miterlimit="10" cx="156.969" cy="309.981" r="51.854"/>
		
			<circle fill="#BD1622" stroke="#000000" stroke-width="8" stroke-linecap="round" stroke-linejoin="round" stroke-miterlimit="10" cx="296.574" cy="309.981" r="51.852"/>
		
			<path fill="#7E4E24" stroke="#000000" stroke-width="8" stroke-linecap="round" stroke-linejoin="round" stroke-miterlimit="10" d="
			M286.527,284.761c-0.129,0.009-0.27,0.009-0.389,0.009c-3.182,0-5.861-2.46-6.07-5.69c-0.291-4.54-0.77-9.03-1.42-13.47
			c-0.59-4.099-1.34-8.15-2.211-12.159c-9.889-45.5-36.539-85.1-59.458-112.31c-4.131-4.9-8.131-9.392-11.9-13.451
			c-14.641-15.79-25.641-24.929-25.961-25.19c-2.59-2.129-2.969-5.96-0.85-8.56c2.141-2.601,5.971-2.98,8.57-0.851
			c2.33,1.91,35.02,29.08,63.439,71.632c6.479,9.689,12.729,20.179,18.352,31.349c8.43,16.761,15.449,35.04,19.658,54.47
			c0.861,3.94,1.602,7.94,2.201,11.972c0.799,5.189,1.379,10.46,1.719,15.789C292.419,281.65,289.88,284.541,286.527,284.761z"/>
		
			<path fill="#7E4E24" stroke="#000000" stroke-width="8" stroke-linecap="round" stroke-linejoin="round" stroke-miterlimit="10" d="
			M216.979,141.142c-0.25,21.459-3.801,69.549-27.621,118.339c-1.76,3.62-3.639,7.241-5.629,10.851
			c-1.361,2.459-2.781,4.919-4.25,7.379c-1.141,1.9-3.15,2.951-5.221,2.951c-1.061,0-2.15-0.281-3.119-0.871
			c-2.891-1.72-3.82-5.459-2.09-8.339c1.309-2.189,2.58-4.391,3.799-6.6c2.01-3.621,3.891-7.262,5.641-10.892
			c8.92-18.39,14.84-36.799,18.76-53.58c3.09-13.21,4.93-25.408,6.029-35.8c2.141-20.43,1.371-33.858,1.352-34.169
			c-0.061-0.96,0.109-1.891,0.449-2.721c0.859-2.069,2.83-3.59,5.221-3.75c3.289-0.25,6.25,2.321,6.469,5.67
			C216.819,130.301,217.06,134.411,216.979,141.142z"/>
		
			<path fill="#39A935" stroke="#000000" stroke-width="8" stroke-linecap="round" stroke-linejoin="round" stroke-miterlimit="10" d="
			M215.323,121.634c4.078,26.385-2.271,47.643-18.889,63.237c-22.959,21.546-59.203,27.387-75.779,28.947
			c6.324-35.639,17.971-61.625,34.66-77.285C178.612,114.671,205.526,119.034,215.323,121.634z"/>
		<path fill="none" stroke="#000000" stroke-width="6" stroke-linecap="round" stroke-linejoin="round" stroke-miterlimit="10" d="
			M312.136,340.895c0,0,25.005-10.021,14.07-37.67"/>
	</g>
</g>
<g id="pivot">
	<circle fill="none" cx="226.771" cy="353.976" r="7.856"/>
</g>
</svg>
