<?xml version="1.0" encoding="utf-8"?>
<!-- Generator: Adobe Illustrator 16.0.0, SVG Export Plug-In . SVG Version: 6.00 Build 0)  -->
<!DOCTYPE svg PUBLIC "-//W3C//DTD SVG 1.1//EN" "http://www.w3.org/Graphics/SVG/1.1/DTD/svg11.dtd">
<svg version="1.1" xmlns="http://www.w3.org/2000/svg" xmlns:xlink="http://www.w3.org/1999/xlink" x="0px" y="0px"
	 width="453.543px" height="453.543px" viewBox="0 0 453.543 453.543" enable-background="new 0 0 453.543 453.543"
	 xml:space="preserve">
<g id="kvadrat" display="none">
</g>
<g id="color">
	<g id="rdeča7bela">
	</g>
	<g>
		<g>
			
				<line fill="#EED2A3" stroke="#000000" stroke-width="8" stroke-linecap="round" stroke-linejoin="round" stroke-miterlimit="10" x1="194.771" y1="359.374" x2="228.363" y2="348.16"/>
			
				<line fill="#EED2A3" stroke="#000000" stroke-width="8" stroke-linecap="round" stroke-linejoin="round" stroke-miterlimit="10" x1="194.771" y1="359.374" x2="228.363" y2="348.16"/>
			
				<line fill="#EED2A3" stroke="#000000" stroke-width="8" stroke-linecap="round" stroke-linejoin="round" stroke-miterlimit="10" x1="207.28" y1="376.615" x2="228.363" y2="348.16"/>
			
				<line fill="#EED2A3" stroke="#000000" stroke-width="8" stroke-linecap="round" stroke-linejoin="round" stroke-miterlimit="10" x1="227.413" y1="383.561" x2="228.363" y2="348.16"/>
			
				<line fill="#EED2A3" stroke="#000000" stroke-width="8" stroke-linecap="round" stroke-linejoin="round" stroke-miterlimit="10" x1="247.89" y1="377.704" x2="228.363" y2="348.16"/>
			
				<line fill="#EED2A3" stroke="#000000" stroke-width="8" stroke-linecap="round" stroke-linejoin="round" stroke-miterlimit="10" x1="261.304" y1="361.162" x2="228.363" y2="348.16"/>
		</g>
		
			<path fill="#EED2A3" stroke="#000000" stroke-width="8" stroke-linecap="round" stroke-linejoin="round" stroke-miterlimit="10" d="
			M328.917,244.362c3.126,56.415-40.07,104.679-96.484,107.807c-56.413,3.126-104.68-40.071-107.806-96.483
			c-2-36.088,14.956-68.841,42.201-88.579c15.346-11.116,46.588-45.342,35.568-97.125l12.767,22.704l7.515-14.478l6.252,21.283
			l11.877-12.228c2.95,53.231,29.26,69.44,38.382,74.894C307.376,179.007,326.962,209.104,328.917,244.362z"/>
		<g>
			<path fill="none" stroke="#000000" stroke-width="6" stroke-linecap="round" stroke-linejoin="round" stroke-miterlimit="10" d="
				M200.896,185.345c-67.353,61.89-26.639,149.158,36.829,167.671"/>
			<path fill="none" stroke="#000000" stroke-width="6" stroke-linecap="round" stroke-linejoin="round" stroke-miterlimit="10" d="
				M208.177,219.019c-21.844,25.485-9.84,118.776,25.985,134.193"/>
		</g>
		<g>
			<path fill="none" stroke="#000000" stroke-width="6" stroke-linecap="round" stroke-linejoin="round" stroke-miterlimit="10" d="
				M256.017,185.345c67.353,61.89,26.639,149.158-36.829,167.671"/>
			<path fill="none" stroke="#000000" stroke-width="6" stroke-linecap="round" stroke-linejoin="round" stroke-miterlimit="10" d="
				M248.736,219.019c21.845,25.485,9.841,118.776-25.984,134.193"/>
		</g>
		<path fill="none" stroke="#000000" stroke-width="6" stroke-linecap="round" stroke-linejoin="round" stroke-miterlimit="10" d="
			M225.929,251.786"/>
		<path fill="none" stroke="#000000" stroke-width="6" stroke-linecap="round" stroke-linejoin="round" stroke-miterlimit="10" d="
			M232.929,348.179"/>
	</g>
</g>
<g id="cb" display="none">
	<g id="rdeča7bela_copy" display="inline">
	</g>
	<g display="inline">
		<g>
			
				<line fill="none" stroke="#000000" stroke-width="8" stroke-linecap="round" stroke-linejoin="round" stroke-miterlimit="10" x1="194.771" y1="359.374" x2="228.363" y2="348.16"/>
			
				<line fill="none" stroke="#000000" stroke-width="8" stroke-linecap="round" stroke-linejoin="round" stroke-miterlimit="10" x1="194.771" y1="359.374" x2="228.363" y2="348.16"/>
			
				<line fill="none" stroke="#000000" stroke-width="8" stroke-linecap="round" stroke-linejoin="round" stroke-miterlimit="10" x1="207.28" y1="376.615" x2="228.363" y2="348.16"/>
			
				<line fill="none" stroke="#000000" stroke-width="8" stroke-linecap="round" stroke-linejoin="round" stroke-miterlimit="10" x1="227.413" y1="383.561" x2="228.363" y2="348.16"/>
			
				<line fill="none" stroke="#000000" stroke-width="8" stroke-linecap="round" stroke-linejoin="round" stroke-miterlimit="10" x1="247.89" y1="377.704" x2="228.363" y2="348.16"/>
			
				<line fill="none" stroke="#000000" stroke-width="8" stroke-linecap="round" stroke-linejoin="round" stroke-miterlimit="10" x1="261.304" y1="361.162" x2="228.363" y2="348.16"/>
		</g>
		<path fill="none" stroke="#000000" stroke-width="8" stroke-linecap="round" stroke-linejoin="round" stroke-miterlimit="10" d="
			M328.917,244.362c3.126,56.415-40.07,104.679-96.484,107.807c-56.413,3.126-104.68-40.071-107.806-96.483
			c-2-36.088,14.956-68.841,42.201-88.579c15.346-11.116,46.588-45.342,35.568-97.125l12.767,22.704l7.515-14.478l6.252,21.283
			l11.877-12.228c2.95,53.231,29.26,69.44,38.382,74.894C307.376,179.007,326.962,209.104,328.917,244.362z"/>
		<g>
			<path fill="none" stroke="#000000" stroke-width="6" stroke-linecap="round" stroke-linejoin="round" stroke-miterlimit="10" d="
				M200.896,185.345c-67.353,61.89-26.639,149.158,36.829,167.671"/>
			<path fill="none" stroke="#000000" stroke-width="6" stroke-linecap="round" stroke-linejoin="round" stroke-miterlimit="10" d="
				M208.177,219.019c-21.844,25.485-9.84,118.776,25.985,134.193"/>
		</g>
		<g>
			<path fill="none" stroke="#000000" stroke-width="6" stroke-linecap="round" stroke-linejoin="round" stroke-miterlimit="10" d="
				M256.017,185.345c67.353,61.89,26.639,149.158-36.829,167.671"/>
			<path fill="none" stroke="#000000" stroke-width="6" stroke-linecap="round" stroke-linejoin="round" stroke-miterlimit="10" d="
				M248.736,219.019c21.845,25.485,9.841,118.776-25.984,134.193"/>
		</g>
		<path fill="none" stroke="#000000" stroke-width="6" stroke-linecap="round" stroke-linejoin="round" stroke-miterlimit="10" d="
			M225.929,251.786"/>
		<path fill="none" stroke="#000000" stroke-width="6" stroke-linecap="round" stroke-linejoin="round" stroke-miterlimit="10" d="
			M232.929,348.179"/>
	</g>
</g>
<g id="pivot">
	<circle fill="none" cx="227.463" cy="362.286" r="14.132"/>
</g>
</svg>
