<?xml version="1.0" encoding="utf-8"?>
<!-- Generator: Adobe Illustrator 16.0.0, SVG Export Plug-In . SVG Version: 6.00 Build 0)  -->
<!DOCTYPE svg PUBLIC "-//W3C//DTD SVG 1.1//EN" "http://www.w3.org/Graphics/SVG/1.1/DTD/svg11.dtd">
<svg version="1.1" xmlns="http://www.w3.org/2000/svg" xmlns:xlink="http://www.w3.org/1999/xlink" x="0px" y="0px"
	 width="453.543px" height="453.543px" viewBox="0 0 453.543 453.543" enable-background="new 0 0 453.543 453.543"
	 xml:space="preserve">
<g id="kvadrat" display="none">
</g>
<g id="color">
	<g id="rdeča7bela">
	</g>
	<g>
		<g>
			
				<circle fill="#BD1622" stroke="#000000" stroke-width="8" stroke-linecap="round" stroke-linejoin="round" stroke-miterlimit="10" cx="156.969" cy="309.98" r="51.853"/>
			
				<circle fill="#BD1622" stroke="#000000" stroke-width="8" stroke-linecap="round" stroke-linejoin="round" stroke-miterlimit="10" cx="296.574" cy="309.98" r="51.853"/>
			
				<path fill="#7E4E24" stroke="#000000" stroke-width="8" stroke-linecap="round" stroke-linejoin="round" stroke-miterlimit="10" d="
				M286.528,284.762c-0.129,0.009-0.27,0.009-0.389,0.009c-3.182,0-5.861-2.46-6.07-5.69c-0.291-4.538-0.77-9.029-1.42-13.47
				c-0.59-4.098-1.34-8.149-2.211-12.159c-9.889-45.5-36.539-85.1-59.459-112.31c-4.131-4.9-8.131-9.392-11.9-13.451
				c-14.641-15.79-25.641-24.929-25.961-25.19c-2.59-2.129-2.969-5.958-0.85-8.56c2.141-2.6,5.971-2.979,8.57-0.85
				c2.331,1.909,35.02,29.079,63.44,71.63c6.48,9.69,12.73,20.18,18.351,31.35c8.43,16.761,15.45,35.04,19.659,54.472
				c0.861,3.938,1.602,7.938,2.201,11.971c0.799,5.188,1.379,10.458,1.719,15.788C292.419,281.65,289.879,284.542,286.528,284.762z"
				/>
			
				<path fill="#7E4E24" stroke="#000000" stroke-width="8" stroke-linecap="round" stroke-linejoin="round" stroke-miterlimit="10" d="
				M216.979,141.142c-0.25,21.459-3.801,69.549-27.621,118.339c-1.76,3.62-3.639,7.24-5.629,10.851
				c-1.361,2.461-2.781,4.919-4.25,7.381c-1.141,1.898-3.15,2.949-5.221,2.949c-1.061,0-2.15-0.28-3.119-0.869
				c-2.892-1.722-3.82-5.461-2.09-8.341c1.309-2.189,2.58-4.39,3.799-6.6c2.01-3.621,3.891-7.262,5.641-10.891
				c8.92-18.391,14.84-36.8,18.759-53.58c3.09-13.211,4.931-25.41,6.03-35.801c2.141-20.43,1.371-33.859,1.351-34.169
				c-0.06-0.96,0.11-1.891,0.45-2.721c0.859-2.069,2.83-3.59,5.221-3.75c3.289-0.25,6.25,2.321,6.469,5.67
				C216.819,130.301,217.06,134.411,216.979,141.142z"/>
			
				<path fill="#39A935" stroke="#000000" stroke-width="8" stroke-linecap="round" stroke-linejoin="round" stroke-miterlimit="10" d="
				M215.323,121.635c4.078,26.384-2.27,47.642-18.889,63.236c-22.959,21.547-59.203,27.388-75.779,28.947
				c6.324-35.638,17.971-61.624,34.66-77.285C178.612,114.671,205.526,119.034,215.323,121.635z"/>
			<path fill="none" stroke="#000000" stroke-width="6" stroke-linecap="round" stroke-linejoin="round" stroke-miterlimit="10" d="
				M312.137,340.895c0,0,25.004-10.021,14.068-37.669"/>
		</g>
		
			<path fill="#39A935" stroke="#000000" stroke-width="8" stroke-linecap="round" stroke-linejoin="round" stroke-miterlimit="10" d="
			M216.853,119.635c-4.078,26.384,2.27,47.642,18.889,63.236c22.959,21.547,59.203,27.388,75.779,28.947
			c-6.324-35.638-17.971-61.624-34.66-77.285C253.563,112.671,226.649,117.034,216.853,119.635z"/>
	</g>
</g>
<g id="cb" display="none">
	<g id="rdeča7bela_copy" display="inline">
	</g>
	
		<path display="inline" fill="none" stroke="#000000" stroke-width="6" stroke-linecap="round" stroke-linejoin="round" stroke-miterlimit="10" d="
		M312.137,340.895c0,0,25.004-10.021,14.068-37.669"/>
	<g display="inline">
		<path fill="none" stroke="#000000" stroke-width="8" stroke-linecap="round" stroke-linejoin="round" stroke-miterlimit="10" d="
			M174.771,261.267c-5.552-2.03-11.548-3.138-17.803-3.138c-28.638,0-51.852,23.216-51.852,51.852
			c0,28.637,23.214,51.852,51.852,51.852c28.639,0,51.854-23.215,51.854-51.852c0-18.037-9.215-33.916-23.189-43.206"/>
		<path fill="none" stroke="#000000" stroke-width="8" stroke-linecap="round" stroke-linejoin="round" stroke-miterlimit="10" d="
			M278.008,261.566c-19.463,7.469-33.286,26.322-33.286,48.414c0,28.637,23.215,51.852,51.852,51.852
			c28.639,0,51.854-23.215,51.854-51.852c0-28.636-23.215-51.852-51.854-51.852c-2.286,0-4.531,0.164-6.739,0.45"/>
		<path fill="none" stroke="#000000" stroke-width="8" stroke-linecap="round" stroke-linejoin="round" stroke-miterlimit="10" d="
			M197.206,119.455c-10.548-10.695-17.828-16.743-18.087-16.955c-2.59-2.129-2.969-5.958-0.85-8.56c2.141-2.6,5.971-2.979,8.57-0.85
			c1.404,1.149,13.827,11.476,29.692,28.796"/>
		<path fill="none" stroke="#000000" stroke-width="8" stroke-linecap="round" stroke-linejoin="round" stroke-miterlimit="10" d="
			M289.834,258.579c0.225,1.31,0.459,2.616,0.655,3.934c0.799,5.188,1.379,10.458,1.719,15.788c0.211,3.35-2.329,6.241-5.68,6.461
			c-0.129,0.009-0.27,0.009-0.389,0.009c-3.182,0-5.861-2.46-6.07-5.69c-0.291-4.538-0.77-9.029-1.42-13.47
			c-0.195-1.354-0.413-2.7-0.642-4.044"/>
		<path fill="none" stroke="#000000" stroke-width="8" stroke-linecap="round" stroke-linejoin="round" stroke-miterlimit="10" d="
			M216.427,140.494c0.186,0.219,0.367,0.428,0.553,0.647"/>
		<path fill="none" stroke="#000000" stroke-width="8" stroke-linecap="round" stroke-linejoin="round" stroke-miterlimit="10" d="
			M289.834,258.579c-0.464-2.698-0.966-5.386-1.546-8.037c-3.586-16.558-9.218-32.273-16.019-46.931"/>
		<path fill="none" stroke="#000000" stroke-width="8" stroke-linecap="round" stroke-linejoin="round" stroke-miterlimit="10" d="
			M278.008,261.566c-0.463-2.725-0.986-5.43-1.569-8.115c-4.454-20.494-12.314-39.785-21.696-57.291"/>
		<path fill="none" stroke="#000000" stroke-width="8" stroke-linecap="round" stroke-linejoin="round" stroke-miterlimit="10" d="
			M216.427,140.494c-0.2-0.236-0.398-0.466-0.598-0.7"/>
		<path fill="none" stroke="#000000" stroke-width="8" stroke-linecap="round" stroke-linejoin="round" stroke-miterlimit="10" d="
			M185.632,266.774c-0.629,1.187-1.25,2.372-1.903,3.557c-1.361,2.461-2.781,4.919-4.25,7.381c-1.141,1.898-3.15,2.949-5.221,2.949
			c-1.061,0-2.15-0.28-3.119-0.869c-2.892-1.722-3.82-5.461-2.09-8.341c1.309-2.189,2.58-4.39,3.799-6.6
			c0.662-1.193,1.288-2.389,1.922-3.585"/>
		<path fill="none" stroke="#000000" stroke-width="8" stroke-linecap="round" stroke-linejoin="round" stroke-miterlimit="10" d="
			M201.256,179.847c-1.023,6.464-2.325,13.341-4.008,20.534c-3.919,16.78-9.839,35.189-18.759,53.58
			c-1.174,2.434-2.428,4.871-3.719,7.306"/>
		<path fill="none" stroke="#000000" stroke-width="8" stroke-linecap="round" stroke-linejoin="round" stroke-miterlimit="10" d="
			M216.804,147.949c0.097-2.494,0.151-4.771,0.175-6.808"/>
		<path fill="none" stroke="#000000" stroke-width="8" stroke-linecap="round" stroke-linejoin="round" stroke-miterlimit="10" d="
			M216.979,141.142c0.08-6.73-0.16-10.841-0.211-11.531c-0.06-0.914-0.329-1.767-0.749-2.522"/>
		<path fill="none" stroke="#000000" stroke-width="8" stroke-linecap="round" stroke-linejoin="round" stroke-miterlimit="10" d="
			M185.632,266.774c1.288-2.43,2.543-4.861,3.726-7.294c21.561-44.161,26.514-87.746,27.446-111.531"/>
		<path fill="none" stroke="#000000" stroke-width="8" stroke-linecap="round" stroke-linejoin="round" stroke-miterlimit="10" d="
			M215.974,127.007c0.015,0.026,0.03,0.054,0.046,0.081"/>
		<path fill="none" stroke="#000000" stroke-width="8" stroke-linecap="round" stroke-linejoin="round" stroke-miterlimit="10" d="
			M197.206,119.455c7.829-0.117,14.286,1.162,18.118,2.18c0.27,1.744,0.49,3.463,0.669,5.162"/>
		<path fill="none" stroke="#000000" stroke-width="8" stroke-linecap="round" stroke-linejoin="round" stroke-miterlimit="10" d="
			M201.256,179.847c8.684-10.042,13.672-22.099,14.936-36.052"/>
		<path fill="none" stroke="#000000" stroke-width="8" stroke-linecap="round" stroke-linejoin="round" stroke-miterlimit="10" d="
			M216.02,127.088c0.474,4.637,0.612,9.109,0.407,13.406"/>
		<path fill="none" stroke="#000000" stroke-width="8" stroke-linecap="round" stroke-linejoin="round" stroke-miterlimit="10" d="
			M216.191,143.795c0.099-1.09,0.182-2.188,0.235-3.301"/>
		<path fill="none" stroke="#000000" stroke-width="8" stroke-linecap="round" stroke-linejoin="round" stroke-miterlimit="10" d="
			M215.992,126.797c0.01,0.098,0.018,0.193,0.028,0.291"/>
		<path fill="none" stroke="#000000" stroke-width="8" stroke-linecap="round" stroke-linejoin="round" stroke-miterlimit="10" d="
			M197.206,119.455c-12.187,0.185-27.706,3.767-41.89,17.078c-16.689,15.661-28.336,41.647-34.66,77.285
			c16.576-1.56,52.82-7.4,75.779-28.947c1.719-1.613,3.322-3.291,4.821-5.024"/>
		<path fill="none" stroke="#000000" stroke-width="8" stroke-linecap="round" stroke-linejoin="round" stroke-miterlimit="10" d="
			M216.191,143.795c0.166,1.404,0.37,2.789,0.613,4.154"/>
		<path fill="none" stroke="#000000" stroke-width="8" stroke-linecap="round" stroke-linejoin="round" stroke-miterlimit="10" d="
			M215.992,126.797c-0.006,0.07-0.012,0.141-0.018,0.21"/>
		<path fill="none" stroke="#000000" stroke-width="8" stroke-linecap="round" stroke-linejoin="round" stroke-miterlimit="10" d="
			M216.191,143.795c-0.154-1.316-0.276-2.65-0.363-4.001"/>
		<path fill="none" stroke="#000000" stroke-width="8" stroke-linecap="round" stroke-linejoin="round" stroke-miterlimit="10" d="
			M215.992,126.797c0.137-1.616,0.317-3.253,0.538-4.91"/>
		<path fill="none" stroke="#000000" stroke-width="8" stroke-linecap="round" stroke-linejoin="round" stroke-miterlimit="10" d="
			M254.742,196.16c-6.814-3.584-13.315-7.953-19.001-13.289c-10.183-9.555-16.502-21.239-18.937-34.922"/>
		<path fill="none" stroke="#000000" stroke-width="8" stroke-linecap="round" stroke-linejoin="round" stroke-miterlimit="10" d="
			M215.974,127.007c-0.366,4.421-0.41,8.683-0.146,12.787"/>
		<path fill="none" stroke="#000000" stroke-width="8" stroke-linecap="round" stroke-linejoin="round" stroke-miterlimit="10" d="
			M272.269,203.611c15.368,5.232,30.226,7.357,39.251,8.207c-6.324-35.638-17.971-61.624-34.66-77.285
			c-23.297-21.862-50.211-17.499-60.008-14.898c-0.117,0.755-0.223,1.505-0.322,2.252"/>
		<path fill="none" stroke="#000000" stroke-width="8" stroke-linecap="round" stroke-linejoin="round" stroke-miterlimit="10" d="
			M272.269,203.611c-5.868-1.998-11.807-4.443-17.527-7.451"/>
	</g>
</g>
<g id="pivot">
	<circle fill="none" cx="218.748" cy="362.022" r="14.132"/>
</g>
</svg>
