<?xml version="1.0" encoding="utf-8"?>
<!-- Generator: Adobe Illustrator 16.0.0, SVG Export Plug-In . SVG Version: 6.00 Build 0)  -->
<!DOCTYPE svg PUBLIC "-//W3C//DTD SVG 1.1//EN" "http://www.w3.org/Graphics/SVG/1.1/DTD/svg11.dtd">
<svg version="1.1" xmlns="http://www.w3.org/2000/svg" xmlns:xlink="http://www.w3.org/1999/xlink" x="0px" y="0px"
	 width="453.543px" height="453.543px" viewBox="0 0 453.543 453.543" enable-background="new 0 0 453.543 453.543"
	 xml:space="preserve">
<g id="kvadrat" display="none">
</g>
<g id="color">
	<g id="rdeča7bela">
	</g>
	<g>
		
			<path fill="#7E4E24" stroke="#000000" stroke-width="8" stroke-linecap="round" stroke-linejoin="round" stroke-miterlimit="10" d="
			M222.142,138.142c7.244,24.828,20.612,81.329,14.822,144.502c-0.421,4.686-0.957,9.404-1.604,14.146
			c-0.445,3.232-0.946,6.479-1.494,9.743c-0.431,2.521-1.988,4.314-3.97,4.912c-1.015,0.307-2.155,0.301-3.289-0.1
			c-3.367-1.15-5.561-5.193-4.908-9.018c0.488-2.902,0.939-5.811,1.335-8.713c0.661-4.755,1.193-9.498,1.601-14.192
			c2.128-23.796,1.375-46.745-0.722-67.234c-1.649-16.134-4.141-30.739-6.713-43.042c-5.073-24.188-10.492-39.457-10.619-39.808
			c-0.393-1.091-0.555-2.212-0.519-3.269c0.1-2.637,1.456-4.959,3.69-5.836c3.062-1.24,6.792,0.867,8.168,4.668
			C218.209,125.683,219.872,130.355,222.142,138.142z"/>
		<g>
			<g>
				
					<circle fill="#BD1622" stroke="#000000" stroke-width="8" stroke-linecap="round" stroke-linejoin="round" stroke-miterlimit="10" cx="156.969" cy="309.979" r="51.853"/>
				
					<circle fill="#BD1622" stroke="#000000" stroke-width="8" stroke-linecap="round" stroke-linejoin="round" stroke-miterlimit="10" cx="296.574" cy="309.979" r="51.853"/>
				
					<path fill="#7E4E24" stroke="#000000" stroke-width="8" stroke-linecap="round" stroke-linejoin="round" stroke-miterlimit="10" d="
					M286.528,284.761c-0.129,0.009-0.27,0.009-0.389,0.009c-3.182,0-5.861-2.46-6.07-5.689c-0.291-4.54-0.77-9.03-1.42-13.47
					c-0.59-4.1-1.34-8.15-2.211-12.16c-9.889-45.5-36.539-85.1-59.459-112.309c-4.131-4.9-8.131-9.393-11.9-13.452
					c-14.641-15.79-25.641-24.929-25.961-25.19c-2.59-2.128-2.969-5.959-0.85-8.56c2.141-2.601,5.971-2.979,8.571-0.85
					c2.33,1.909,35.02,29.08,63.439,71.631c6.48,9.688,12.73,20.179,18.352,31.35c8.43,16.761,15.449,35.04,19.658,54.47
					c0.861,3.939,1.602,7.939,2.201,11.971c0.799,5.189,1.379,10.46,1.719,15.789C292.419,281.649,289.88,284.54,286.528,284.761z"
					/>
				
					<path fill="#7E4E24" stroke="#000000" stroke-width="8" stroke-linecap="round" stroke-linejoin="round" stroke-miterlimit="10" d="
					M216.979,141.142c-0.25,21.459-3.802,69.548-27.621,118.338c-1.76,3.621-3.64,7.241-5.629,10.852
					c-1.361,2.459-2.781,4.918-4.25,7.379c-1.141,1.9-3.15,2.951-5.221,2.951c-1.061,0-2.15-0.281-3.119-0.871
					c-2.891-1.72-3.82-5.459-2.09-8.34c1.309-2.189,2.58-4.391,3.799-6.6c2.01-3.621,3.891-7.261,5.641-10.891
					c8.92-18.39,14.84-36.799,18.76-53.58c3.09-13.21,4.929-25.409,6.029-35.8c2.141-20.431,1.371-33.859,1.352-34.171
					c-0.061-0.959,0.109-1.89,0.449-2.72c0.859-2.068,2.83-3.589,5.221-3.75c3.289-0.25,6.25,2.321,6.468,5.671
					C216.819,130.3,217.06,134.409,216.979,141.142z"/>
				
					<path fill="#39A935" stroke="#000000" stroke-width="8" stroke-linecap="round" stroke-linejoin="round" stroke-miterlimit="10" d="
					M215.323,121.634c4.078,26.384-2.271,47.643-18.889,63.237c-22.958,21.546-59.203,27.388-75.779,28.946
					c6.324-35.639,17.971-61.625,34.66-77.285C178.612,114.67,205.526,119.034,215.323,121.634z"/>
				
					<path fill="none" stroke="#000000" stroke-width="6" stroke-linecap="round" stroke-linejoin="round" stroke-miterlimit="10" d="
					M312.136,340.894c0,0,25.004-10.021,14.07-37.671"/>
			</g>
		</g>
		
			<circle fill="#BD1622" stroke="#000000" stroke-width="8" stroke-linecap="round" stroke-linejoin="round" stroke-miterlimit="10" cx="221.828" cy="344.514" r="51.853"/>
	</g>
</g>
<g id="cb" display="none">
	<g id="rdeča7bela_copy" display="inline">
	</g>
	
		<path display="inline" fill="none" stroke="#000000" stroke-width="6" stroke-linecap="round" stroke-linejoin="round" stroke-miterlimit="10" d="
		M312.136,340.894c0,0,25.004-10.021,14.07-37.671"/>
	<g display="inline">
		<path fill="none" stroke="#000000" stroke-width="8" stroke-linecap="round" stroke-linejoin="round" stroke-miterlimit="10" d="
			M215.815,162.797c-0.57-2.524-1.138-4.925-1.696-7.203"/>
		<path fill="none" stroke="#000000" stroke-width="8" stroke-linecap="round" stroke-linejoin="round" stroke-miterlimit="10" d="
			M209.46,120.377c0.099-0.045,0.189-0.104,0.291-0.144c3.062-1.24,6.792,0.867,8.168,4.668c0.29,0.781,1.953,5.454,4.223,13.24
			c1.146,3.929,2.446,8.656,3.799,14.072"/>
		<path fill="none" stroke="#000000" stroke-width="8" stroke-linecap="round" stroke-linejoin="round" stroke-miterlimit="10" d="
			M223.151,292.679c0.602-4.44,1.102-8.871,1.483-13.257c2.128-23.796,1.375-46.745-0.722-67.234
			c-1.649-16.134-4.141-30.739-6.713-43.042c-0.46-2.192-0.922-4.308-1.384-6.349"/>
		<path fill="none" stroke="#000000" stroke-width="8" stroke-linecap="round" stroke-linejoin="round" stroke-miterlimit="10" d="
			M225.941,152.214c7.196,28.81,15.896,77.254,11.022,130.43c-0.354,3.943-0.808,7.915-1.323,11.899"/>
		<path fill="none" stroke="#000000" stroke-width="8" stroke-linecap="round" stroke-linejoin="round" stroke-miterlimit="10" d="
			M223.151,292.679c-0.042,0.313-0.074,0.623-0.118,0.936c-0.396,2.902-0.847,5.811-1.335,8.713
			c-0.652,3.824,1.541,7.867,4.908,9.018c1.134,0.4,2.274,0.406,3.289,0.1c1.981-0.598,3.539-2.391,3.97-4.912
			c0.548-3.264,1.049-6.511,1.494-9.743c0.103-0.751,0.184-1.497,0.281-2.246"/>
		<path fill="none" stroke="#000000" stroke-width="8" stroke-linecap="round" stroke-linejoin="round" stroke-miterlimit="10" d="
			M174.771,261.266c-5.552-2.029-11.548-3.138-17.803-3.138c-28.637,0-51.852,23.215-51.852,51.852s23.215,51.852,51.852,51.852
			c5.303,0,10.419-0.8,15.237-2.279"/>
		<path fill="none" stroke="#000000" stroke-width="8" stroke-linecap="round" stroke-linejoin="round" stroke-miterlimit="10" d="
			M206.601,294.953c-3.525-11.66-11.043-21.582-20.968-28.18"/>
		<path fill="none" stroke="#000000" stroke-width="8" stroke-linecap="round" stroke-linejoin="round" stroke-miterlimit="10" d="
			M245.981,298.639c3.806-17.048,15.997-30.923,32.027-37.074"/>
		<path fill="none" stroke="#000000" stroke-width="8" stroke-linecap="round" stroke-linejoin="round" stroke-miterlimit="10" d="
			M272.419,355.86c7.215,3.806,15.43,5.971,24.154,5.971c28.639,0,51.854-23.215,51.854-51.852s-23.215-51.852-51.854-51.852
			c-2.286,0-4.531,0.163-6.739,0.45"/>
		<path fill="none" stroke="#000000" stroke-width="8" stroke-linecap="round" stroke-linejoin="round" stroke-miterlimit="10" d="
			M216.979,141.142c2.94,3.49,5.942,7.188,8.962,11.072"/>
		<path fill="none" stroke="#000000" stroke-width="8" stroke-linecap="round" stroke-linejoin="round" stroke-miterlimit="10" d="
			M197.206,119.455c-10.548-10.695-17.828-16.744-18.088-16.956c-2.59-2.128-2.969-5.959-0.85-8.56
			c2.141-2.601,5.971-2.979,8.571-0.85c2.33,1.909,35.02,29.08,63.439,71.631c6.48,9.688,12.73,20.179,18.352,31.35
			c8.43,16.761,15.449,35.04,19.658,54.47c0.58,2.653,1.082,5.34,1.546,8.038"/>
		<path fill="none" stroke="#000000" stroke-width="8" stroke-linecap="round" stroke-linejoin="round" stroke-miterlimit="10" d="
			M225.941,152.214c20.52,26.396,41.877,61.573,50.497,101.236c0.583,2.685,1.106,5.391,1.569,8.114"/>
		<path fill="none" stroke="#000000" stroke-width="8" stroke-linecap="round" stroke-linejoin="round" stroke-miterlimit="10" d="
			M278.008,261.564c0.229,1.344,0.447,2.691,0.642,4.046c0.65,4.439,1.129,8.93,1.42,13.47c0.209,3.229,2.889,5.689,6.07,5.689
			c0.119,0,0.26,0,0.389-0.009c3.352-0.221,5.891-3.111,5.68-6.461c-0.34-5.329-0.92-10.6-1.719-15.789
			c-0.196-1.317-0.43-2.624-0.655-3.933"/>
		<path fill="none" stroke="#000000" stroke-width="8" stroke-linecap="round" stroke-linejoin="round" stroke-miterlimit="10" d="
			M216.979,141.142c-0.186-0.221-0.368-0.429-0.553-0.647"/>
		<path fill="none" stroke="#000000" stroke-width="8" stroke-linecap="round" stroke-linejoin="round" stroke-miterlimit="10" d="
			M185.633,266.773c-0.629,1.187-1.25,2.373-1.903,3.558c-1.361,2.459-2.781,4.918-4.25,7.379c-1.141,1.9-3.15,2.951-5.221,2.951
			c-1.061,0-2.15-0.281-3.119-0.871c-2.891-1.72-3.82-5.459-2.09-8.34c1.309-2.189,2.58-4.391,3.799-6.6
			c0.662-1.192,1.288-2.39,1.922-3.585"/>
		<path fill="none" stroke="#000000" stroke-width="8" stroke-linecap="round" stroke-linejoin="round" stroke-miterlimit="10" d="
			M185.633,266.773c1.288-2.43,2.543-4.861,3.726-7.294c17.636-36.124,24.156-71.852,26.457-96.683"/>
		<path fill="none" stroke="#000000" stroke-width="8" stroke-linecap="round" stroke-linejoin="round" stroke-miterlimit="10" d="
			M216.979,141.142c-0.065,5.571-0.357,12.948-1.164,21.655"/>
		<path fill="none" stroke="#000000" stroke-width="8" stroke-linecap="round" stroke-linejoin="round" stroke-miterlimit="10" d="
			M174.771,261.266c1.29-2.435,2.544-4.871,3.718-7.306c8.92-18.39,14.84-36.799,18.76-53.58c1.682-7.192,2.983-14.069,4.007-20.534
			"/>
		<path fill="none" stroke="#000000" stroke-width="8" stroke-linecap="round" stroke-linejoin="round" stroke-miterlimit="10" d="
			M216.979,141.142c0.08-6.732-0.16-10.842-0.211-11.531c-0.06-0.914-0.329-1.767-0.748-2.523"/>
		<path fill="none" stroke="#000000" stroke-width="8" stroke-linecap="round" stroke-linejoin="round" stroke-miterlimit="10" d="
			M197.206,119.455c-12.187,0.184-27.706,3.766-41.891,17.077c-16.689,15.66-28.336,41.646-34.66,77.285
			c16.576-1.559,52.82-7.4,75.779-28.946c1.719-1.613,3.322-3.291,4.822-5.025"/>
		<path fill="none" stroke="#000000" stroke-width="8" stroke-linecap="round" stroke-linejoin="round" stroke-miterlimit="10" d="
			M216.02,127.087c0.474,4.638,0.612,9.109,0.407,13.407"/>
		<path fill="none" stroke="#000000" stroke-width="8" stroke-linecap="round" stroke-linejoin="round" stroke-miterlimit="10" d="
			M214.119,155.594c1.282-4.769,2.054-9.803,2.308-15.1"/>
		<path fill="none" stroke="#000000" stroke-width="8" stroke-linecap="round" stroke-linejoin="round" stroke-miterlimit="10" d="
			M214.119,155.594c-2.437,9.063-6.73,17.158-12.863,24.252"/>
		<path fill="none" stroke="#000000" stroke-width="8" stroke-linecap="round" stroke-linejoin="round" stroke-miterlimit="10" d="
			M209.46,120.377c-3.421-0.571-7.595-0.992-12.254-0.922"/>
		<path fill="none" stroke="#000000" stroke-width="8" stroke-linecap="round" stroke-linejoin="round" stroke-miterlimit="10" d="
			M209.46,120.377c2.328,0.39,4.312,0.846,5.863,1.257c0.285,1.844,0.514,3.659,0.697,5.453"/>
		<path fill="none" stroke="#000000" stroke-width="8" stroke-linecap="round" stroke-linejoin="round" stroke-miterlimit="10" d="
			M206.601,294.953c-27.271,8.376-42.67,37.227-34.408,64.563c0.003,0.012,0.008,0.023,0.012,0.035"/>
		<path fill="none" stroke="#000000" stroke-width="8" stroke-linecap="round" stroke-linejoin="round" stroke-miterlimit="10" d="
			M245.981,298.639c-3.282-1.729-6.75-3.1-10.34-4.096"/>
		<path fill="none" stroke="#000000" stroke-width="8" stroke-linecap="round" stroke-linejoin="round" stroke-miterlimit="10" d="
			M272.419,355.86c-3.972,17.634-17.051,32.685-35.589,38.287c-27.399,8.282-56.326-7.206-64.625-34.596"/>
		<path fill="none" stroke="#000000" stroke-width="8" stroke-linecap="round" stroke-linejoin="round" stroke-miterlimit="10" d="
			M223.151,292.679c-5.387-0.137-10.885,0.557-16.326,2.201c-0.076,0.022-0.148,0.051-0.224,0.073"/>
		<path fill="none" stroke="#000000" stroke-width="8" stroke-linecap="round" stroke-linejoin="round" stroke-miterlimit="10" d="
			M245.981,298.639c11.853,6.24,21.3,17.036,25.482,30.872c2.683,8.876,2.858,17.907,0.956,26.35"/>
	</g>
</g>
<g id="pivot">
	<circle fill="none" cx="225.45" cy="362.022" r="14.133"/>
</g>
</svg>
