<?xml version="1.0" encoding="utf-8"?>
<!-- Generator: Adobe Illustrator 16.0.0, SVG Export Plug-In . SVG Version: 6.00 Build 0)  -->
<!DOCTYPE svg PUBLIC "-//W3C//DTD SVG 1.1//EN" "http://www.w3.org/Graphics/SVG/1.1/DTD/svg11.dtd">
<svg version="1.1" xmlns="http://www.w3.org/2000/svg" xmlns:xlink="http://www.w3.org/1999/xlink" x="0px" y="0px"
	 width="453.543px" height="453.543px" viewBox="0 0 453.543 453.543" enable-background="new 0 0 453.543 453.543"
	 xml:space="preserve">
<g id="kvadrat" display="none">
</g>
<g id="color">
	<g id="rdeča7bela">
	</g>
	<g>
		
			<path fill="#B17F49" stroke="#000000" stroke-width="8" stroke-linecap="round" stroke-linejoin="round" stroke-miterlimit="10" d="
			M169.82,299.799c-7.383,0-18.941-2.5-32.081-14.421c-24.171-21.934-22.542-40.966-13.801-50.594
			c4.646-5.122,11.024-8.06,17.503-8.06c4.841,0,9.432,1.695,12.917,4.776c5.178,4.568,6.451,8.377,7.566,11.738
			c0.935,2.802,1.74,5.223,5.079,8.254c2.831,2.568,5.095,3.102,7.961,3.782c3.657,0.865,7.801,1.85,13.167,6.865
			c8.324,7.783,8.183,21.22-0.323,30.596C183.732,297.225,177.179,299.799,169.82,299.799z"/>
		
			<path fill="#B17F49" stroke="#000000" stroke-width="8" stroke-linecap="round" stroke-linejoin="round" stroke-miterlimit="10" d="
			M312.949,342.169c-2.914,0-5.697-0.641-8.287-1.895c-6.214-3.017-8.457-6.346-10.436-9.291c-1.648-2.446-3.074-4.565-7.103-6.59
			c-3.413-1.722-5.879-1.617-8.675-1.517c-0.776,0.026-1.552,0.059-2.361,0.059c-3.033,0-6.848-0.379-12.167-3.15
			c-10.103-5.265-13.563-18.259-7.873-29.571c3.998-7.95,13.652-12.887,25.203-12.887c7.898,0,16.312,2.216,25.005,6.583
			c13.337,6.708,22.262,14.625,26.52,23.532c4.729,9.876,2.224,17.72,0.313,21.519C329.06,336.983,321.153,342.169,312.949,342.169z
			"/>
		
			<path fill="#B17F49" stroke="#000000" stroke-width="8" stroke-linecap="round" stroke-linejoin="round" stroke-miterlimit="10" d="
			M180.605,191.232c-5.98,0-21.354-2.296-34.802-23.525c-7.988-12.618-11.567-23.999-10.637-33.827
			c1.032-10.901,7.212-16.342,10.809-18.616c4.021-2.549,8.56-3.89,13.13-3.89c7.078,0,13.454,3.294,17.066,8.821
			c3.773,5.783,3.984,9.791,4.168,13.333c0.152,2.954,0.285,5.5,2.699,9.313c2.044,3.229,4.082,4.345,6.662,5.763
			c3.291,1.81,7.025,3.857,10.862,10.121c5.954,9.716,2.24,22.636-8.459,29.411C188.901,190.16,184.925,191.232,180.605,191.232z"/>
		
			<path fill="#B17F49" stroke="#000000" stroke-width="8" stroke-linecap="round" stroke-linejoin="round" stroke-miterlimit="10" d="
			M238.351,247.668L238.351,247.668c-10.253-0.004-19.171-4.294-23.272-11.215c-6.458-10.896-3.903-24.093,5.813-30.045
			c6.265-3.843,10.521-3.972,14.278-4.089c2.938-0.085,5.262-0.158,8.548-2.109c3.883-2.304,5.157-4.514,6.635-7.071
			c1.771-3.071,3.779-6.552,9.768-9.989c2.859-1.641,6.143-2.509,9.501-2.509c7.793,0,15.323,4.531,19.645,11.825
			c2.167,3.656,5.203,11.311,1.172,21.494c-3.633,9.176-11.985,17.693-24.832,25.312
			C256.344,244.769,246.916,247.668,238.351,247.668z"/>
		<g>
			<path d="M165.902,252.328c-4.142-3.761-7.189-6.092-9.582-6.092c-0.963,0-1.801,0.366-2.426,1.054
				c-2.528,2.788-0.509,9.61,4.077,13.772c3.397,3.082,7.383,4.182,9.98,4.182c1.837,0,3.265-0.507,4.128-1.459
				c1.32-1.454,1.083-3.411-0.707-5.822C170.023,256.145,167.849,254.094,165.902,252.328z"/>
			<path d="M299.723,318.539c-1.508-2.393-3.802-4.445-6.459-5.778c-2.929-1.474-5.642-1.783-7.401-1.783
				c-3.36,0-6.013,1.124-6.921,2.93c-1.944,3.865,4.392,7.056,9.02,9.387c4.128,2.079,7.347,3.46,9.635,3.46
				c2.063,0,2.945-1.135,3.287-1.815C301.694,323.328,301.271,320.994,299.723,318.539z"/>
			<path d="M173.213,134.799c-0.605,0-1.177,0.165-1.694,0.493c-0.986,0.623-1.695,1.784-2.05,3.357
				c-0.741,3.294,0.167,7.613,2.313,11.002c2.905,4.592,7.508,6.99,10.554,6.99c0.904,0,1.685-0.203,2.316-0.604
				c0.732-0.462,1.223-1.164,1.417-2.029c0.534-2.369-1.179-5.706-4.319-10.664C178.241,137.801,175.841,134.799,173.213,134.799z"
				/>
			<path d="M254.375,197.12c-2.307,0-5.561,1.65-9.735,4.128c-5.051,2.988-8.093,5.18-8.694,7.542
				c-0.219,0.859-0.101,1.708,0.341,2.447c0.933,1.576,3.161,2.479,6.115,2.479l0,0c2.794,0,5.726-0.822,8.254-2.319
				c3.455-2.049,6.226-5.489,7.059-8.762c0.397-1.56,0.293-2.915-0.302-3.915C257.057,198.122,256.191,197.12,254.375,197.12z"/>
		</g>
	</g>
</g>
<g id="cb" display="none">
	<g id="rdeča7bela_copy" display="inline">
	</g>
	<g display="inline">
		<path fill="none" stroke="#000000" stroke-width="8" stroke-linecap="round" stroke-linejoin="round" stroke-miterlimit="10" d="
			M169.82,299.799c-7.383,0-18.941-2.5-32.081-14.421c-24.171-21.934-22.542-40.966-13.801-50.594
			c4.646-5.122,11.024-8.06,17.503-8.06c4.841,0,9.432,1.695,12.917,4.776c5.178,4.568,6.451,8.377,7.566,11.738
			c0.935,2.802,1.74,5.223,5.079,8.254c2.831,2.568,5.095,3.102,7.961,3.782c3.657,0.865,7.801,1.85,13.167,6.865
			c8.324,7.783,8.183,21.22-0.323,30.596C183.732,297.225,177.179,299.799,169.82,299.799z"/>
		<path fill="none" stroke="#000000" stroke-width="8" stroke-linecap="round" stroke-linejoin="round" stroke-miterlimit="10" d="
			M312.949,342.169c-2.914,0-5.697-0.641-8.287-1.895c-6.214-3.017-8.457-6.346-10.436-9.291c-1.648-2.446-3.074-4.565-7.103-6.59
			c-3.413-1.722-5.879-1.617-8.675-1.517c-0.776,0.026-1.552,0.059-2.361,0.059c-3.033,0-6.848-0.379-12.167-3.15
			c-10.103-5.265-13.563-18.259-7.873-29.571c3.998-7.95,13.652-12.887,25.203-12.887c7.898,0,16.312,2.216,25.005,6.583
			c13.337,6.708,22.262,14.625,26.52,23.532c4.729,9.876,2.224,17.72,0.313,21.519C329.06,336.983,321.153,342.169,312.949,342.169z
			"/>
		<path fill="none" stroke="#000000" stroke-width="8" stroke-linecap="round" stroke-linejoin="round" stroke-miterlimit="10" d="
			M180.605,191.232c-5.98,0-21.354-2.296-34.802-23.525c-7.988-12.618-11.567-23.999-10.637-33.827
			c1.032-10.901,7.212-16.342,10.809-18.616c4.021-2.549,8.56-3.89,13.13-3.89c7.078,0,13.454,3.294,17.066,8.821
			c3.773,5.783,3.984,9.791,4.168,13.333c0.152,2.954,0.285,5.5,2.699,9.313c2.044,3.229,4.082,4.345,6.662,5.763
			c3.291,1.81,7.025,3.857,10.862,10.121c5.954,9.716,2.24,22.636-8.459,29.411C188.901,190.16,184.925,191.232,180.605,191.232z"/>
		<path fill="none" stroke="#000000" stroke-width="8" stroke-linecap="round" stroke-linejoin="round" stroke-miterlimit="10" d="
			M238.351,247.668L238.351,247.668c-10.253-0.004-19.171-4.294-23.272-11.215c-6.458-10.896-3.903-24.093,5.813-30.045
			c6.265-3.843,10.521-3.972,14.278-4.089c2.938-0.085,5.262-0.158,8.548-2.109c3.883-2.304,5.157-4.514,6.635-7.071
			c1.771-3.071,3.779-6.552,9.768-9.989c2.859-1.641,6.143-2.509,9.501-2.509c7.793,0,15.323,4.531,19.645,11.825
			c2.167,3.656,5.203,11.311,1.172,21.494c-3.633,9.176-11.985,17.693-24.832,25.312
			C256.344,244.769,246.916,247.668,238.351,247.668z"/>
		<g>
			<path d="M165.902,252.328c-4.142-3.761-7.189-6.092-9.582-6.092c-0.963,0-1.801,0.366-2.426,1.054
				c-2.528,2.788-0.509,9.61,4.077,13.772c3.397,3.082,7.383,4.182,9.98,4.182c1.837,0,3.265-0.507,4.128-1.459
				c1.32-1.454,1.083-3.411-0.707-5.822C170.023,256.145,167.849,254.094,165.902,252.328z"/>
			<path d="M299.723,318.539c-1.508-2.393-3.802-4.445-6.459-5.778c-2.929-1.474-5.642-1.783-7.401-1.783
				c-3.36,0-6.013,1.124-6.921,2.93c-1.944,3.865,4.392,7.056,9.02,9.387c4.128,2.079,7.347,3.46,9.635,3.46
				c2.063,0,2.945-1.135,3.287-1.815C301.694,323.328,301.271,320.994,299.723,318.539z"/>
			<path d="M173.213,134.799c-0.605,0-1.177,0.165-1.694,0.493c-0.986,0.623-1.695,1.784-2.05,3.357
				c-0.741,3.294,0.167,7.613,2.313,11.002c2.905,4.592,7.508,6.99,10.554,6.99c0.904,0,1.685-0.203,2.316-0.604
				c0.732-0.462,1.223-1.164,1.417-2.029c0.534-2.369-1.179-5.706-4.319-10.664C178.241,137.801,175.841,134.799,173.213,134.799z"
				/>
			<path d="M254.375,197.12c-2.307,0-5.561,1.65-9.735,4.128c-5.051,2.988-8.093,5.18-8.694,7.542
				c-0.219,0.859-0.101,1.708,0.341,2.447c0.933,1.576,3.161,2.479,6.115,2.479l0,0c2.794,0,5.726-0.822,8.254-2.319
				c3.455-2.049,6.226-5.489,7.059-8.762c0.397-1.56,0.293-2.915-0.302-3.915C257.057,198.122,256.191,197.12,254.375,197.12z"/>
		</g>
	</g>
</g>
<g id="pivot">
	<circle fill="none" cx="266.056" cy="318.883" r="14.132"/>
</g>
</svg>
