<?xml version="1.0" encoding="utf-8"?>
<!-- Generator: Adobe Illustrator 16.0.0, SVG Export Plug-In . SVG Version: 6.00 Build 0)  -->
<!DOCTYPE svg PUBLIC "-//W3C//DTD SVG 1.1//EN" "http://www.w3.org/Graphics/SVG/1.1/DTD/svg11.dtd">
<svg version="1.1" xmlns="http://www.w3.org/2000/svg" xmlns:xlink="http://www.w3.org/1999/xlink" x="0px" y="0px"
	 width="453.543px" height="453.543px" viewBox="0 0 453.543 453.543" enable-background="new 0 0 453.543 453.543"
	 xml:space="preserve">
<g id="kvadrat" display="none">
</g>
<g id="color">
	<g id="rdeča7bela">
	</g>
	<g>
		
			<path fill="#B17F49" stroke="#000000" stroke-width="8" stroke-linecap="round" stroke-linejoin="round" stroke-miterlimit="10" d="
			M261.634,320.089c-18.857,0-48.378-6.386-81.937-36.832c-61.734-56.018-57.572-104.629-35.248-129.217
			c11.864-13.08,28.156-20.586,44.703-20.586c12.363,0,24.088,4.332,32.99,12.2c13.226,11.665,16.477,21.395,19.326,29.979
			c2.385,7.157,4.443,13.341,12.971,21.082c7.231,6.56,13.012,7.921,20.332,9.659c9.342,2.208,19.923,4.725,33.631,17.533
			c21.259,19.876,20.897,54.197-0.826,78.146C297.166,313.518,280.43,320.089,261.634,320.089z"/>
		<g>
			<path d="M255.123,195.348c-10.578-9.602-18.362-15.555-24.473-15.555c-2.458,0-4.599,0.931-6.195,2.686
				c-6.458,7.127-1.298,24.55,10.413,35.181c8.678,7.872,18.857,10.675,25.491,10.675c4.691,0,8.338-1.289,10.542-3.724
				c3.373-3.712,2.766-8.712-1.804-14.867C265.649,205.102,260.098,199.861,255.123,195.348z"/>
		</g>
	</g>
</g>
<g id="cb" display="none">
	<g id="rdeča7bela_copy" display="inline">
	</g>
	<g display="inline">
		<path fill="none" stroke="#000000" stroke-width="8" stroke-linecap="round" stroke-linejoin="round" stroke-miterlimit="10" d="
			M261.634,320.089c-18.857,0-48.378-6.386-81.937-36.832c-61.734-56.018-57.572-104.629-35.248-129.217
			c11.864-13.08,28.156-20.586,44.703-20.586c12.363,0,24.088,4.332,32.99,12.2c13.226,11.665,16.477,21.395,19.326,29.979
			c2.385,7.157,4.443,13.341,12.971,21.082c7.231,6.56,13.012,7.921,20.332,9.659c9.342,2.208,19.923,4.725,33.631,17.533
			c21.259,19.876,20.897,54.197-0.826,78.146C297.166,313.518,280.43,320.089,261.634,320.089z"/>
		<g>
			<path d="M255.123,195.348c-10.578-9.602-18.362-15.555-24.473-15.555c-2.458,0-4.599,0.931-6.195,2.686
				c-6.458,7.127-1.298,24.55,10.413,35.181c8.678,7.872,18.857,10.675,25.491,10.675c4.691,0,8.338-1.289,10.542-3.724
				c3.373-3.712,2.766-8.712-1.804-14.867C265.649,205.102,260.098,199.861,255.123,195.348z"/>
		</g>
	</g>
</g>
<g id="pivot">
	<circle fill="none" cx="227.933" cy="310.202" r="14.132"/>
</g>
</svg>
