<?xml version="1.0" encoding="utf-8"?>
<!-- Generator: Adobe Illustrator 16.0.0, SVG Export Plug-In . SVG Version: 6.00 Build 0)  -->
<!DOCTYPE svg PUBLIC "-//W3C//DTD SVG 1.1//EN" "http://www.w3.org/Graphics/SVG/1.1/DTD/svg11.dtd">
<svg version="1.1" xmlns="http://www.w3.org/2000/svg" xmlns:xlink="http://www.w3.org/1999/xlink" x="0px" y="0px"
	 width="453.543px" height="453.543px" viewBox="0 0 453.543 453.543" enable-background="new 0 0 453.543 453.543"
	 xml:space="preserve">
<g id="kvadrat" display="none">
</g>
<g id="color">
	<g id="rdeča7bela">
	</g>
	<g>
		<g>
			<g>
				
					<circle fill="#662482" stroke="#000000" stroke-width="8" stroke-linecap="round" stroke-linejoin="round" stroke-miterlimit="10" cx="172.873" cy="238.991" r="26.95"/>
				
					<path fill="#662482" stroke="#000000" stroke-width="8" stroke-linecap="round" stroke-linejoin="round" stroke-miterlimit="10" d="
					M172.872,189.089c0,14.887-12.066,26.953-26.949,26.953c-14.884,0-26.95-12.066-26.95-26.953
					c0-14.881,12.066-26.947,26.95-26.947C160.806,162.142,172.872,174.208,172.872,189.089z"/>
				
					<circle fill="#662482" stroke="#000000" stroke-width="8" stroke-linecap="round" stroke-linejoin="round" stroke-miterlimit="10" cx="226.772" cy="338.79" r="26.95"/>
				
					<circle fill="#662482" stroke="#000000" stroke-width="8" stroke-linecap="round" stroke-linejoin="round" stroke-miterlimit="10" cx="199.822" cy="288.89" r="26.95"/>
				
					<circle fill="#662482" stroke="#000000" stroke-width="8" stroke-linecap="round" stroke-linejoin="round" stroke-miterlimit="10" cx="226.772" cy="238.991" r="26.95"/>
				
					<path fill="#662482" stroke="#000000" stroke-width="8" stroke-linecap="round" stroke-linejoin="round" stroke-miterlimit="10" d="
					M226.772,189.089c0,14.887-12.066,26.953-26.95,26.953s-26.95-12.066-26.95-26.953c0-14.881,12.066-26.947,26.95-26.947
					S226.772,174.208,226.772,189.089z"/>
				
					<circle fill="#662482" stroke="#000000" stroke-width="8" stroke-linecap="round" stroke-linejoin="round" stroke-miterlimit="10" cx="253.722" cy="288.89" r="26.949"/>
				
					<circle fill="#662482" stroke="#000000" stroke-width="8" stroke-linecap="round" stroke-linejoin="round" stroke-miterlimit="10" cx="280.671" cy="238.991" r="26.95"/>
				
					<path fill="#662482" stroke="#000000" stroke-width="8" stroke-linecap="round" stroke-linejoin="round" stroke-miterlimit="10" d="
					M280.671,189.089c0,14.887-12.065,26.953-26.949,26.953s-26.949-12.066-26.949-26.953c0-14.881,12.065-26.947,26.949-26.947
					S280.671,174.208,280.671,189.089z"/>
				
					<path fill="#662482" stroke="#000000" stroke-width="8" stroke-linecap="round" stroke-linejoin="round" stroke-miterlimit="10" d="
					M334.571,189.089c0,14.887-12.066,26.953-26.95,26.953s-26.95-12.066-26.95-26.953c0-14.881,12.066-26.947,26.95-26.947
					S334.571,174.208,334.571,189.089z"/>
			</g>
			
				<path fill="#7E4E24" stroke="#000000" stroke-width="8" stroke-linecap="round" stroke-linejoin="round" stroke-miterlimit="10" d="
				M241.544,102.448l-23.594,0.016l2.496,69.924l0.191-0.002c-0.007,0.504,0.067,1.01,0.233,1.508
				c0.892,2.656,4.06,3.991,7.076,2.979c2.215-0.744,3.728-2.547,4.024-4.504h0.141L241.544,102.448z"/>
		</g>
	</g>
</g>
<g id="cb" display="none">
	<g id="rdeča7bela_copy" display="inline">
	</g>
	<g display="inline">
		<path fill="none" stroke="#000000" stroke-width="8" stroke-linecap="round" stroke-linejoin="round" stroke-miterlimit="10" d="
			M199.822,238.991c0-14.885-12.065-26.949-26.95-26.949c-14.883,0-26.949,12.064-26.949,26.949
			c0,14.884,12.066,26.949,26.949,26.949C187.757,265.94,199.822,253.875,199.822,238.991"/>
		<path fill="none" stroke="#000000" stroke-width="8" stroke-linecap="round" stroke-linejoin="round" stroke-miterlimit="10" d="
			M172.872,189.089c0-14.881-12.066-26.947-26.949-26.947c-14.884,0-26.95,12.066-26.95,26.947c0,14.887,12.066,26.953,26.95,26.953
			C160.806,216.042,172.872,203.976,172.872,189.089"/>
		
			<circle fill="none" stroke="#000000" stroke-width="8" stroke-linecap="round" stroke-linejoin="round" stroke-miterlimit="10" cx="226.772" cy="338.79" r="26.95"/>
		<path fill="none" stroke="#000000" stroke-width="8" stroke-linecap="round" stroke-linejoin="round" stroke-miterlimit="10" d="
			M226.772,288.89c0-14.884-12.066-26.949-26.95-26.949s-26.95,12.065-26.95,26.949c0,14.885,12.066,26.949,26.95,26.949
			S226.772,303.774,226.772,288.89"/>
		<path fill="none" stroke="#000000" stroke-width="8" stroke-linecap="round" stroke-linejoin="round" stroke-miterlimit="10" d="
			M253.722,238.991c0,14.884-12.066,26.949-26.949,26.949c-14.885,0-26.95-12.065-26.95-26.949"/>
		<path fill="none" stroke="#000000" stroke-width="8" stroke-linecap="round" stroke-linejoin="round" stroke-miterlimit="10" d="
			M253.722,238.991c0-14.885-12.066-26.949-26.949-26.949c-14.885,0-26.95,12.064-26.95,26.949"/>
		<path fill="none" stroke="#000000" stroke-width="8" stroke-linecap="round" stroke-linejoin="round" stroke-miterlimit="10" d="
			M226.772,189.089c0,14.887-12.066,26.953-26.95,26.953s-26.95-12.066-26.95-26.953"/>
		<path fill="none" stroke="#000000" stroke-width="8" stroke-linecap="round" stroke-linejoin="round" stroke-miterlimit="10" d="
			M220.422,171.723c-4.943-5.857-12.335-9.581-20.6-9.581c-14.884,0-26.95,12.066-26.95,26.947"/>
		<path fill="none" stroke="#000000" stroke-width="8" stroke-linecap="round" stroke-linejoin="round" stroke-miterlimit="10" d="
			M220.422,171.723c1.316,1.559,2.455,3.269,3.393,5.1"/>
		<path fill="none" stroke="#000000" stroke-width="8" stroke-linecap="round" stroke-linejoin="round" stroke-miterlimit="10" d="
			M226.772,189.089c0-4.419-1.071-8.586-2.957-12.267"/>
		<path fill="none" stroke="#000000" stroke-width="8" stroke-linecap="round" stroke-linejoin="round" stroke-miterlimit="10" d="
			M226.772,288.89c0,14.885,12.065,26.949,26.949,26.949s26.949-12.064,26.949-26.949c0-14.884-12.065-26.949-26.949-26.949
			S226.772,274.006,226.772,288.89"/>
		<path fill="none" stroke="#000000" stroke-width="8" stroke-linecap="round" stroke-linejoin="round" stroke-miterlimit="10" d="
			M253.722,238.991c0,14.884,12.066,26.949,26.949,26.949c14.884,0,26.95-12.065,26.95-26.949c0-14.885-12.066-26.949-26.95-26.949
			C265.788,212.042,253.722,224.106,253.722,238.991"/>
		<path fill="none" stroke="#000000" stroke-width="8" stroke-linecap="round" stroke-linejoin="round" stroke-miterlimit="10" d="
			M231.491,173.859c-0.234,0.342-0.459,0.688-0.678,1.04"/>
		<path fill="none" stroke="#000000" stroke-width="8" stroke-linecap="round" stroke-linejoin="round" stroke-miterlimit="10" d="
			M226.772,189.089c0-5.208,1.482-10.067,4.041-14.189"/>
		<path fill="none" stroke="#000000" stroke-width="8" stroke-linecap="round" stroke-linejoin="round" stroke-miterlimit="10" d="
			M231.491,173.859c4.856-7.074,13-11.718,22.23-11.718c14.884,0,26.949,12.066,26.949,26.947"/>
		<path fill="none" stroke="#000000" stroke-width="8" stroke-linecap="round" stroke-linejoin="round" stroke-miterlimit="10" d="
			M226.772,189.089c0,14.887,12.065,26.953,26.949,26.953s26.949-12.066,26.949-26.953"/>
		<path fill="none" stroke="#000000" stroke-width="8" stroke-linecap="round" stroke-linejoin="round" stroke-miterlimit="10" d="
			M280.671,189.089c0,14.887,12.066,26.953,26.95,26.953s26.95-12.066,26.95-26.953c0-14.881-12.066-26.947-26.95-26.947
			S280.671,174.208,280.671,189.089"/>
		<path fill="none" stroke="#000000" stroke-width="8" stroke-linecap="round" stroke-linejoin="round" stroke-miterlimit="10" d="
			M231.491,173.859c0.236-0.476,0.402-0.978,0.48-1.491h0.141l9.432-69.92l-23.594,0.016l2.472,69.259"/>
		<path fill="none" stroke="#000000" stroke-width="8" stroke-linecap="round" stroke-linejoin="round" stroke-miterlimit="10" d="
			M230.813,174.899c-0.705,0.866-1.68,1.574-2.866,1.973c-1.432,0.481-2.891,0.418-4.132-0.05"/>
		<path fill="none" stroke="#000000" stroke-width="8" stroke-linecap="round" stroke-linejoin="round" stroke-miterlimit="10" d="
			M231.491,173.859c-0.182,0.367-0.413,0.713-0.678,1.04"/>
	</g>
</g>
<g id="pivot">
	<circle fill="none" cx="231.45" cy="371.686" r="14.133"/>
</g>
</svg>
