<?xml version="1.0" encoding="utf-8"?>
<!-- Generator: Adobe Illustrator 16.0.0, SVG Export Plug-In . SVG Version: 6.00 Build 0)  -->
<!DOCTYPE svg PUBLIC "-//W3C//DTD SVG 1.1//EN" "http://www.w3.org/Graphics/SVG/1.1/DTD/svg11.dtd">
<svg version="1.1" xmlns="http://www.w3.org/2000/svg" xmlns:xlink="http://www.w3.org/1999/xlink" x="0px" y="0px"
	 width="453.543px" height="453.543px" viewBox="0 0 453.543 453.543" enable-background="new 0 0 453.543 453.543"
	 xml:space="preserve">
<g id="kvadrat" display="none">
</g>
<g id="color">
	<g>
		
			<path fill="#7E4E24" stroke="#000000" stroke-width="8" stroke-linecap="round" stroke-linejoin="round" stroke-miterlimit="10" d="
			M233.348,197.018l-11.953-1.065c0.03-0.342,2.312-27.855-5.582-48.93c-9.711,6.931-23.079,10.26-38.049,6.5
			c-14.116-3.546-23.011-12.257-23.797-23.306c-0.714-10.029,5.521-19.515,15.516-23.602c14.705-6.011,32.546,1.046,47.725,18.88
			c0.262,0.308,0.521,0.622,0.775,0.936c0.576-1.252,1.034-2.54,1.363-3.852c3.306-13.161-4.61-28.005-24.526-33.006
			c0,0-7.132-2.62-5.557-7.744c1.575-5.125,8.48-3.895,8.48-3.895c32.066,8.052,37.026,32.504,33.242,47.568
			c-1.104,4.398-3.146,8.649-5.973,12.491C236.244,162.464,233.493,195.38,233.348,197.018z M180.366,116.506
			c-2.221,0-4.347,0.401-6.343,1.217c-5.101,2.086-8.427,6.874-8.087,11.645c0.405,5.7,5.782,10.262,14.75,12.515
			c11.653,2.927,22.292-0.027,29.549-5.787c-0.683-0.985-1.403-1.926-2.167-2.823C198.823,122.41,188.9,116.506,180.366,116.506z"/>
		
			<circle fill="#662482" stroke="#000000" stroke-width="8" stroke-linecap="round" stroke-linejoin="round" stroke-miterlimit="10" cx="172.873" cy="248.991" r="26.95"/>
		
			<path fill="#662482" stroke="#000000" stroke-width="8" stroke-linecap="round" stroke-linejoin="round" stroke-miterlimit="10" d="
			M172.873,199.09c0,14.886-12.067,26.952-26.95,26.952c-14.884,0-26.95-12.066-26.95-26.952c0-14.881,12.066-26.948,26.95-26.948
			C160.806,172.142,172.873,184.208,172.873,199.09z"/>
		
			<circle fill="#662482" stroke="#000000" stroke-width="8" stroke-linecap="round" stroke-linejoin="round" stroke-miterlimit="10" cx="226.772" cy="348.79" r="26.95"/>
		
			<circle fill="#662482" stroke="#000000" stroke-width="8" stroke-linecap="round" stroke-linejoin="round" stroke-miterlimit="10" cx="199.822" cy="298.89" r="26.95"/>
		
			<circle fill="#662482" stroke="#000000" stroke-width="8" stroke-linecap="round" stroke-linejoin="round" stroke-miterlimit="10" cx="226.772" cy="248.991" r="26.95"/>
		
			<path fill="#662482" stroke="#000000" stroke-width="8" stroke-linecap="round" stroke-linejoin="round" stroke-miterlimit="10" d="
			M226.772,199.09c0,14.886-12.066,26.952-26.95,26.952s-26.95-12.066-26.95-26.952c0-14.881,12.066-26.948,26.95-26.948
			S226.772,184.208,226.772,199.09z"/>
		
			<circle fill="#662482" stroke="#000000" stroke-width="8" stroke-linecap="round" stroke-linejoin="round" stroke-miterlimit="10" cx="253.722" cy="298.89" r="26.95"/>
		
			<circle fill="#662482" stroke="#000000" stroke-width="8" stroke-linecap="round" stroke-linejoin="round" stroke-miterlimit="10" cx="280.671" cy="248.991" r="26.95"/>
		
			<path fill="#662482" stroke="#000000" stroke-width="8" stroke-linecap="round" stroke-linejoin="round" stroke-miterlimit="10" d="
			M280.671,199.09c0,14.886-12.066,26.952-26.95,26.952s-26.95-12.066-26.95-26.952c0-14.881,12.066-26.948,26.95-26.948
			S280.671,184.208,280.671,199.09z"/>
		
			<path fill="#662482" stroke="#000000" stroke-width="8" stroke-linecap="round" stroke-linejoin="round" stroke-miterlimit="10" d="
			M334.571,199.09c0,14.886-12.066,26.952-26.95,26.952s-26.95-12.066-26.95-26.952c0-14.881,12.066-26.948,26.95-26.948
			S334.571,184.208,334.571,199.09z"/>
	</g>
	<g id="rdeča7bela">
	</g>
</g>
<g id="cb" display="none">
	<g display="inline">
		
			<circle fill="none" stroke="#000000" stroke-width="8" stroke-linecap="round" stroke-linejoin="round" stroke-miterlimit="10" cx="172.873" cy="248.991" r="26.95"/>
		<path fill="none" stroke="#000000" stroke-width="8" stroke-linecap="round" stroke-linejoin="round" stroke-miterlimit="10" d="
			M172.873,199.09c0,14.886-12.067,26.952-26.95,26.952c-14.884,0-26.95-12.066-26.95-26.952c0-14.881,12.066-26.948,26.95-26.948
			C160.806,172.142,172.873,184.208,172.873,199.09z"/>
		
			<circle fill="none" stroke="#000000" stroke-width="8" stroke-linecap="round" stroke-linejoin="round" stroke-miterlimit="10" cx="226.772" cy="348.79" r="26.95"/>
		
			<circle fill="none" stroke="#000000" stroke-width="8" stroke-linecap="round" stroke-linejoin="round" stroke-miterlimit="10" cx="199.822" cy="298.89" r="26.95"/>
		
			<circle fill="none" stroke="#000000" stroke-width="8" stroke-linecap="round" stroke-linejoin="round" stroke-miterlimit="10" cx="226.772" cy="248.991" r="26.95"/>
		
			<circle fill="none" stroke="#000000" stroke-width="8" stroke-linecap="round" stroke-linejoin="round" stroke-miterlimit="10" cx="253.722" cy="298.89" r="26.95"/>
		
			<circle fill="none" stroke="#000000" stroke-width="8" stroke-linecap="round" stroke-linejoin="round" stroke-miterlimit="10" cx="280.671" cy="248.991" r="26.95"/>
		<path fill="none" stroke="#000000" stroke-width="8" stroke-linecap="round" stroke-linejoin="round" stroke-miterlimit="10" d="
			M215.813,147.023c4.539,12.116,5.711,26.351,5.884,36.337c2.701,3.748,4.466,8.214,4.942,13.06l0.264,0.024
			c0.573-5.876,3.033-11.197,6.767-15.354c-0.361-12.108-2.188-28.999-8.659-43.097c2.827-3.841,4.869-8.092,5.973-12.491
			c3.784-15.064-1.176-39.517-33.242-47.568c0,0-6.905-1.23-8.48,3.895c-1.575,5.124,5.557,7.744,5.557,7.744
			c19.916,5.001,27.832,19.845,24.526,33.006c-0.329,1.312-0.787,2.6-1.363,3.852c-0.254-0.314-0.514-0.628-0.775-0.936
			c-15.179-17.834-33.021-24.891-47.725-18.88c-9.995,4.086-16.23,13.572-15.516,23.602c0.786,11.049,9.682,19.76,23.797,23.306
			C192.734,157.283,206.102,153.954,215.813,147.023z M165.936,129.368c-0.339-4.771,2.986-9.559,8.087-11.645
			c1.996-0.816,4.123-1.217,6.343-1.217c8.534,0,18.457,5.904,27.702,16.767c0.764,0.897,1.484,1.838,2.167,2.823
			c-7.257,5.76-17.896,8.714-29.549,5.787C171.718,139.63,166.341,135.068,165.936,129.368z"/>
		<path fill="none" stroke="#000000" stroke-width="8" stroke-linecap="round" stroke-linejoin="round" stroke-miterlimit="10" d="
			M334.571,199.09c0,14.886-12.066,26.952-26.95,26.952s-26.95-12.066-26.95-26.952c0-14.881,12.066-26.948,26.95-26.948
			S334.571,184.208,334.571,199.09z"/>
		<path fill="none" stroke="#000000" stroke-width="8" stroke-linecap="round" stroke-linejoin="round" stroke-miterlimit="10" d="
			M226.772,199.09c0,14.886-12.066,26.952-26.95,26.952s-26.95-12.066-26.95-26.952c0-14.881,12.066-26.948,26.95-26.948
			S226.772,184.208,226.772,199.09z"/>
		<path fill="none" stroke="#000000" stroke-width="8" stroke-linecap="round" stroke-linejoin="round" stroke-miterlimit="10" d="
			M280.671,199.09c0,14.886-12.066,26.952-26.95,26.952s-26.95-12.066-26.95-26.952c0-14.881,12.066-26.948,26.95-26.948
			S280.671,184.208,280.671,199.09z"/>
	</g>
	<g id="rdeča7bela_copy" display="inline">
	</g>
</g>
<g id="pivot">
	<circle fill="none" cx="225.622" cy="376.283" r="14.132"/>
</g>
</svg>
