<?xml version="1.0" encoding="utf-8"?>
<!-- Generator: Adobe Illustrator 16.0.0, SVG Export Plug-In . SVG Version: 6.00 Build 0)  -->
<!DOCTYPE svg PUBLIC "-//W3C//DTD SVG 1.1//EN" "http://www.w3.org/Graphics/SVG/1.1/DTD/svg11.dtd">
<svg version="1.1" xmlns="http://www.w3.org/2000/svg" xmlns:xlink="http://www.w3.org/1999/xlink" x="0px" y="0px"
	 width="453.543px" height="453.543px" viewBox="0 0 453.543 453.543" enable-background="new 0 0 453.543 453.543"
	 xml:space="preserve">
<g id="kvadrat" display="none">
</g>
<g id="color">
	<g id="rdeča7bela">
	</g>
	<g>
		<g>
			<g>
				
					<path fill="#7E4E24" stroke="#000000" stroke-width="8" stroke-linecap="round" stroke-linejoin="round" stroke-miterlimit="10" d="
					M233.348,197.018l-11.953-1.065c0.03-0.342,2.312-27.855-5.582-48.93c-9.711,6.931-23.079,10.26-38.05,6.5
					c-14.115-3.547-23.011-12.258-23.797-23.307c-0.714-10.029,5.521-19.515,15.516-23.602c14.705-6.01,32.547,1.047,47.726,18.881
					c0.262,0.308,0.521,0.622,0.775,0.936c0.576-1.252,1.034-2.539,1.362-3.852c3.307-13.161-4.609-28.005-24.525-33.006
					c0,0-7.133-2.621-5.557-7.744c1.574-5.126,8.479-3.896,8.479-3.896c32.066,8.052,37.026,32.505,33.242,47.568
					c-1.104,4.399-3.146,8.649-5.974,12.491C236.244,162.464,233.494,195.38,233.348,197.018z M180.366,116.506
					c-2.22,0-4.347,0.401-6.343,1.218c-5.101,2.085-8.426,6.873-8.087,11.644c0.405,5.7,5.782,10.263,14.751,12.515
					c11.652,2.928,22.292-0.027,29.549-5.787c-0.684-0.984-1.403-1.926-2.167-2.822C198.824,122.409,188.9,116.506,180.366,116.506z
					"/>
				
					<circle fill="#BD1622" stroke="#000000" stroke-width="8" stroke-linecap="round" stroke-linejoin="round" stroke-miterlimit="10" cx="172.873" cy="248.991" r="26.95"/>
				
					<path fill="#BD1622" stroke="#000000" stroke-width="8" stroke-linecap="round" stroke-linejoin="round" stroke-miterlimit="10" d="
					M172.873,199.089c0,14.887-12.066,26.953-26.949,26.953c-14.884,0-26.95-12.066-26.95-26.953
					c0-14.881,12.066-26.947,26.95-26.947C160.806,172.142,172.873,184.208,172.873,199.089z"/>
				
					<circle fill="#BD1622" stroke="#000000" stroke-width="8" stroke-linecap="round" stroke-linejoin="round" stroke-miterlimit="10" cx="226.772" cy="348.79" r="26.95"/>
				
					<circle fill="#BD1622" stroke="#000000" stroke-width="8" stroke-linecap="round" stroke-linejoin="round" stroke-miterlimit="10" cx="199.823" cy="298.89" r="26.95"/>
				
					<circle fill="#BD1622" stroke="#000000" stroke-width="8" stroke-linecap="round" stroke-linejoin="round" stroke-miterlimit="10" cx="226.772" cy="248.991" r="26.95"/>
				
					<path fill="#BD1622" stroke="#000000" stroke-width="8" stroke-linecap="round" stroke-linejoin="round" stroke-miterlimit="10" d="
					M226.773,199.089c0,14.887-12.066,26.953-26.95,26.953s-26.95-12.066-26.95-26.953c0-14.881,12.066-26.947,26.95-26.947
					S226.773,184.208,226.773,199.089z"/>
				
					<circle fill="#BD1622" stroke="#000000" stroke-width="8" stroke-linecap="round" stroke-linejoin="round" stroke-miterlimit="10" cx="253.722" cy="298.89" r="26.949"/>
				
					<circle fill="#BD1622" stroke="#000000" stroke-width="8" stroke-linecap="round" stroke-linejoin="round" stroke-miterlimit="10" cx="280.672" cy="248.991" r="26.95"/>
				
					<path fill="#BD1622" stroke="#000000" stroke-width="8" stroke-linecap="round" stroke-linejoin="round" stroke-miterlimit="10" d="
					M280.671,199.089c0,14.887-12.065,26.953-26.949,26.953s-26.949-12.066-26.949-26.953c0-14.881,12.065-26.947,26.949-26.947
					S280.671,184.208,280.671,199.089z"/>
				
					<path fill="#BD1622" stroke="#000000" stroke-width="8" stroke-linecap="round" stroke-linejoin="round" stroke-miterlimit="10" d="
					M334.572,199.089c0,14.887-12.066,26.953-26.95,26.953s-26.95-12.066-26.95-26.953c0-14.881,12.066-26.947,26.95-26.947
					S334.572,184.208,334.572,199.089z"/>
			</g>
		</g>
	</g>
</g>
<g id="cb" display="none">
	<g id="rdeča7bela_copy" display="inline">
	</g>
</g>
<g id="pivot">
	<circle fill="none" cx="228.097" cy="366.667" r="14.133"/>
</g>
</svg>
