<?xml version="1.0" encoding="utf-8"?>
<!-- Generator: Adobe Illustrator 16.0.0, SVG Export Plug-In . SVG Version: 6.00 Build 0)  -->
<!DOCTYPE svg PUBLIC "-//W3C//DTD SVG 1.1//EN" "http://www.w3.org/Graphics/SVG/1.1/DTD/svg11.dtd">
<svg version="1.1" xmlns="http://www.w3.org/2000/svg" xmlns:xlink="http://www.w3.org/1999/xlink" x="0px" y="0px"
	 width="453.543px" height="453.543px" viewBox="0 0 453.543 453.543" enable-background="new 0 0 453.543 453.543"
	 xml:space="preserve">
<g id="kvadrat" display="none">
</g>
<g id="color">
	<g id="rdeča7bela">
	</g>
	<g>
		<g>
			<g>
				
					<path fill="#39A935" stroke="#000000" stroke-width="8" stroke-linecap="round" stroke-linejoin="round" stroke-miterlimit="10" d="
					M231.667,177.317l5.083-121.073l-20.667-0.21c0,0,5.687,119.527,5.364,121.199C221.125,178.903,231.667,177.317,231.667,177.317
					z"/>
				
					<path fill="#FFCF00" stroke="#000000" stroke-width="8" stroke-linecap="round" stroke-linejoin="round" stroke-miterlimit="10" d="
					M229.559,397.507c-14.477,0-41.819-97.922-41.819-179.074c0-81.154,83.645-81.734,83.645,0
					C271.384,300.166,244.035,397.507,229.559,397.507z"/>
				<g>
					
						<line fill="none" stroke="#000000" stroke-width="8" stroke-linecap="round" stroke-linejoin="round" stroke-miterlimit="10" x1="188.996" y1="222.223" x2="251.276" y2="222.223"/>
					
						<line fill="none" stroke="#000000" stroke-width="8" stroke-linecap="round" stroke-linejoin="round" stroke-miterlimit="10" x1="191.697" y1="257.298" x2="229.022" y2="257.298"/>
					
						<line fill="none" stroke="#000000" stroke-width="8" stroke-linecap="round" stroke-linejoin="round" stroke-miterlimit="10" x1="196.197" y1="291.53" x2="209.082" y2="291.53"/>
				</g>
				
					<path fill="#39A935" stroke="#000000" stroke-width="8" stroke-linecap="round" stroke-linejoin="round" stroke-miterlimit="10" d="
					M234.04,180.45l-31.736-87.451l-20.144,8.324c0,0,41.732,81.947,41.926,83.258C224.28,185.89,234.04,180.45,234.04,180.45z"/>
				
					<path fill="#39A935" stroke="#000000" stroke-width="8" stroke-linecap="round" stroke-linejoin="round" stroke-miterlimit="10" d="
					M267.641,122.253l-19.62-12.117c0,0-24.289,64.803-25.619,68.069c-1.561,3.833,1.188,8.431,4.163,8.855
					c3.649,0.456,5.544-2.875,5.544-2.875L267.641,122.253z"/>
			</g>
		</g>
	</g>
</g>
<g id="cb" display="none">
	<g id="rdeča7bela_copy" display="inline">
	</g>
</g>
<g id="pivot">
	<circle fill="none" cx="227.097" cy="391.33" r="14.133"/>
</g>
</svg>
