<?xml version="1.0" encoding="utf-8"?>
<!-- Generator: Adobe Illustrator 16.0.0, SVG Export Plug-In . SVG Version: 6.00 Build 0)  -->
<!DOCTYPE svg PUBLIC "-//W3C//DTD SVG 1.1//EN" "http://www.w3.org/Graphics/SVG/1.1/DTD/svg11.dtd">
<svg version="1.1" xmlns="http://www.w3.org/2000/svg" xmlns:xlink="http://www.w3.org/1999/xlink" x="0px" y="0px"
	 width="453.543px" height="453.543px" viewBox="0 0 453.543 453.543" enable-background="new 0 0 453.543 453.543"
	 xml:space="preserve">
<g id="kvadrat" display="none">
</g>
<g id="color">
	<g>
		
			<path fill="#FFCF00" stroke="#000000" stroke-width="8" stroke-linecap="round" stroke-linejoin="round" stroke-miterlimit="10" d="
			M354.125,154.563l-0.159,0.041c-4.408-13.671-18.432-6.081-37.252-18.43C161.327,34.21,82.844,179.809,78.111,198.644
			c-1.888,7.508-7.504,13.161-12.936,18.335c-4.829,4.595-10.789,9.506-12.498,16.26c-0.617,2.434-0.771,4.382-0.093,6.858
			c0.966,3.512,4.241,6.532,7.34,8.236c3.21,1.77,6.817,2.712,10.359,3.542c7.657,1.794,15.96,3.011,22.329,8.004
			c0.796,0.625,1.551,1.302,2.254,2.029c13.307,13.765,152.249,98.206,236.331-71.115
			C341.58,169.89,357.824,169.475,354.125,154.563z"/>
		<g>
			<path fill="#FFFFFF" d="M392.4,241.907h-3.002H186.593h-3h-9.004c0.354,19.88,5.936,39.357,16.144,56.331
				c9.919,16.493,23.966,30.296,40.626,39.914l0.005,0.003c17.145,9.899,36.728,15.13,56.632,15.13
				c29.943,0,58.19-11.561,79.534-32.559c21.313-20.964,33.342-48.955,33.873-78.82H392.4z"/>
			<path fill="none" stroke="#FFFFFF" stroke-miterlimit="10" d="M392.4,241.907h-3.002H186.593h-3h-9.004
				c0.354,19.88,5.936,39.357,16.144,56.331c9.919,16.493,23.966,30.296,40.626,39.914l0.005,0.003
				c17.145,9.899,36.728,15.13,56.632,15.13c29.943,0,58.19-11.561,79.534-32.559c21.313-20.964,33.342-48.955,33.873-78.82H392.4z"
				/>
			<g>
				<path fill="#FFCF00" d="M292.497,252.772V353.19c26.599-1.035,51.632-11.217,71.384-29.035L292.497,252.772z"/>
				<path fill="#FFCF00" d="M370.323,317.872c19.564-20.618,30.572-47.433,31.08-75.964H392.4h-3.002H294.36L370.323,317.872z"/>
				<path fill="#FFCF00" d="M190.733,298.238c4.257,7.08,9.28,13.659,14.939,19.629l75.96-75.96h-95.039h-3h-9.004
					C174.944,261.787,180.525,281.265,190.733,298.238z"/>
				<path fill="#FFCF00" d="M283.497,252.771l-71.375,71.375c5.896,5.313,12.338,10.022,19.237,14.005l0.005,0.003
					c15.852,9.154,33.786,14.305,52.133,15.032V252.771z"/>
			</g>
			<path fill="none" stroke="#FFFFFF" stroke-width="8" stroke-miterlimit="10" d="M287.995,348.037
				c-18.983,0-37.657-4.99-54.006-14.427l-0.079-0.046c-15.858-9.174-29.231-22.321-38.678-38.029
				c-8.816-14.662-14.015-31.285-15.165-48.376h215.862c-1.758,26.463-13.032,51.089-32.081,69.826
				C343.492,337.007,316.553,348.037,287.995,348.037L287.995,348.037z"/>
			<path fill="none" stroke="#000000" stroke-width="8" stroke-linecap="round" stroke-linejoin="round" stroke-miterlimit="10" d="
				M392.4,241.907h-3.002H186.593h-3h-9.004c0.354,19.88,5.936,39.357,16.144,56.331c9.919,16.493,23.966,30.296,40.626,39.914
				l0.005,0.003c17.145,9.899,36.728,15.13,56.632,15.13c29.943,0,58.19-11.561,79.534-32.559
				c21.313-20.964,33.342-48.955,33.873-78.82H392.4z"/>
			<path fill="#FCE800" d="M209.292,320.564"/>
		</g>
	</g>
	<g id="rdeča7bela">
	</g>
</g>
<g id="cb" display="none">
	<g id="rdeča7bela_copy" display="inline">
	</g>
	
		<line display="inline" fill="none" stroke="#000000" stroke-width="8" stroke-linecap="round" stroke-linejoin="round" stroke-miterlimit="10" x1="287.069" y1="242.666" x2="287.069" y2="353.188"/>
	
		<line display="inline" fill="none" stroke="#000000" stroke-width="8" stroke-linecap="round" stroke-linejoin="round" stroke-miterlimit="10" x1="287.069" y1="242.666" x2="287.069" y2="353.188"/>
	
		<line display="inline" fill="none" stroke="#000000" stroke-width="8" stroke-linecap="round" stroke-linejoin="round" stroke-miterlimit="10" x1="287.069" y1="242.666" x2="208.918" y2="320.816"/>
	
		<line display="inline" fill="none" stroke="#000000" stroke-width="8" stroke-linecap="round" stroke-linejoin="round" stroke-miterlimit="10" x1="288.341" y1="242.666" x2="366.492" y2="320.816"/>
	
		<path display="inline" fill="none" stroke="#000000" stroke-width="8" stroke-linecap="round" stroke-linejoin="round" stroke-miterlimit="10" d="
		M174.589,241.907h9.004h3h111.798c11.53-13.673,22.575-30.509,32.807-51.113c10.382-20.905,26.626-21.319,22.927-36.231
		l-0.159,0.041c-4.408-13.671-18.432-6.081-37.252-18.43C161.327,34.21,82.844,179.809,78.111,198.644
		c-1.888,7.508-7.504,13.161-12.936,18.335c-4.829,4.595-10.789,9.506-12.498,16.26c-0.617,2.434-0.771,4.382-0.093,6.858
		c0.966,3.512,4.241,6.532,7.34,8.236c3.21,1.77,6.817,2.712,10.359,3.542c7.657,1.794,15.96,3.011,22.329,8.004
		c0.796,0.625,1.551,1.302,2.254,2.029c6.767,7,46.023,32.275,94.033,33.163C179.858,278.863,174.922,260.562,174.589,241.907z"/>
	<g display="inline">
		<g>
			<path fill="none" d="M209.292,320.564"/>
		</g>
	</g>
	
		<path display="inline" fill="none" stroke="#000000" stroke-width="8" stroke-linecap="round" stroke-linejoin="round" stroke-miterlimit="10" d="
		M392.4,241.907h-3.002H186.593h-3h-9.004c0.354,19.88,5.936,39.357,16.144,56.331c9.919,16.493,23.966,30.296,40.626,39.914
		l0.005,0.003c17.145,9.899,36.728,15.13,56.632,15.13c29.943,0,58.19-11.561,79.534-32.559
		c21.313-20.964,33.342-48.955,33.873-78.82H392.4z"/>
</g>
<g id="pivot">
	<circle fill="none" cx="252.565" cy="338.667" r="14.132"/>
</g>
</svg>
