<?xml version="1.0" encoding="utf-8"?>
<!-- Generator: Adobe Illustrator 16.0.0, SVG Export Plug-In . SVG Version: 6.00 Build 0)  -->
<!DOCTYPE svg PUBLIC "-//W3C//DTD SVG 1.1//EN" "http://www.w3.org/Graphics/SVG/1.1/DTD/svg11.dtd">
<svg version="1.1" xmlns="http://www.w3.org/2000/svg" xmlns:xlink="http://www.w3.org/1999/xlink" x="0px" y="0px"
	 width="453.543px" height="453.543px" viewBox="0 0 453.543 453.543" enable-background="new 0 0 453.543 453.543"
	 xml:space="preserve">
<g id="kvadrat" display="none">
</g>
<g id="color">
	<g id="rdeča7bela">
	</g>
	<g>
		
			<path fill="#CABA9F" stroke="#000000" stroke-width="8" stroke-linecap="round" stroke-linejoin="round" stroke-miterlimit="10" d="
			M368.967,221.907c7.205-2.173,12.455-8.853,12.455-16.77c0-9.677-7.843-17.518-17.519-17.518c-9.676,0-17.52,7.841-17.52,17.518
			c0,4.657,1.828,8.875,4.79,12.013H196.002l-1.001,19.522h151.505c-0.075,0.659-0.123,1.322-0.123,2.002
			c0,9.678,7.844,17.518,17.52,17.518c9.675,0,17.519-7.84,17.519-17.518C381.421,230.759,376.172,224.079,368.967,221.907z"/>
		
			<path fill="#925F36" stroke="#000000" stroke-width="8" stroke-linecap="round" stroke-linejoin="round" stroke-miterlimit="10" d="
			M271.39,227.781c0-5.159-2.703-9.658-6.752-12.241c4.049-2.582,6.752-7.082,6.752-12.24c0-8.033-6.511-14.542-14.542-14.542
			c-5.844,0-10.851,3.468-13.161,8.44c-14.746-26.429-48.636-44.925-88.105-44.925c-53.009,0-83.462,33.353-83.462,74.5
			c0,41.14,30.453,74.497,83.462,74.497c39.059,0,72.643-18.119,87.631-44.109c2.014,5.611,7.33,9.644,13.635,9.644
			c8.03,0,14.542-6.509,14.542-14.542c0-5.158-2.703-9.658-6.752-12.24C268.687,237.439,271.39,232.94,271.39,227.781z"/>
	</g>
</g>
<g id="cb" display="none">
	<g id="rdeča7bela_copy" display="inline">
	</g>
	<g display="inline">
		<path fill="none" stroke="#000000" stroke-width="8" stroke-linecap="round" stroke-linejoin="round" stroke-miterlimit="10" d="
			M266.723,217.15h84.45c-2.962-3.138-4.79-7.355-4.79-12.013c0-9.677,7.844-17.518,17.52-17.518
			c9.675,0,17.519,7.841,17.519,17.518c0,7.917-5.25,14.597-12.455,16.77c7.205,2.172,12.455,8.852,12.455,16.768
			c0,9.678-7.843,17.518-17.519,17.518c-9.676,0-17.52-7.84-17.52-17.518c0-0.68,0.048-1.343,0.123-2.002h-78.188"/>
		<path fill="none" stroke="#000000" stroke-width="8" stroke-linecap="round" stroke-linejoin="round" stroke-miterlimit="10" d="
			M266.723,217.15c2.865,2.648,4.667,6.419,4.667,10.631c0,3.361-1.153,6.438-3.072,8.892"/>
		<path fill="none" stroke="#000000" stroke-width="8" stroke-linecap="round" stroke-linejoin="round" stroke-miterlimit="10" d="
			M266.723,217.15c-0.644-0.596-1.341-1.136-2.085-1.61c4.049-2.582,6.752-7.082,6.752-12.24c0-8.033-6.511-14.542-14.542-14.542
			c-5.844,0-10.851,3.468-13.161,8.44c-14.746-26.429-48.636-44.925-88.105-44.925c-53.009,0-83.462,33.353-83.462,74.5
			c0,41.14,30.453,74.497,83.462,74.497c39.059,0,72.643-18.119,87.631-44.109c2.014,5.611,7.33,9.644,13.635,9.644
			c8.03,0,14.542-6.509,14.542-14.542c0-5.158-2.703-9.658-6.752-12.24c1.411-0.9,2.653-2.037,3.68-3.35"/>
	</g>
</g>
<g id="pivot">
	<circle fill="none" cx="215.035" cy="300.433" r="14.133"/>
</g>
</svg>
