<?xml version="1.0" encoding="utf-8"?>
<!-- Generator: Adobe Illustrator 16.0.0, SVG Export Plug-In . SVG Version: 6.00 Build 0)  -->
<!DOCTYPE svg PUBLIC "-//W3C//DTD SVG 1.1//EN" "http://www.w3.org/Graphics/SVG/1.1/DTD/svg11.dtd">
<svg version="1.1" xmlns="http://www.w3.org/2000/svg" xmlns:xlink="http://www.w3.org/1999/xlink" x="0px" y="0px"
	 width="453.543px" height="453.543px" viewBox="0 0 453.543 453.543" enable-background="new 0 0 453.543 453.543"
	 xml:space="preserve">
<g id="kvadrat" display="none">
</g>
<g id="color">
	<g id="rdeča7bela">
	</g>
	<g>
		<g>
			<path fill="#7E4E24" d="M254.15,176.291c-1.013,0-2.027-0.383-2.805-1.148l-3.982-3.918
				c-6.808-6.698-13.967-10.094-21.278-10.094c-7.211,0-14.569,3.489-21.279,10.089l-3.982,3.918
				c-0.778,0.766-1.792,1.149-2.805,1.149c-1.016,0-2.031-0.384-2.811-1.154l-3.976-3.925c-1.5-1.48-3.041-2.817-4.579-3.971
				l-8.483-6.371c-1.18-0.887-1.777-2.351-1.551-3.81c0.226-1.458,1.236-2.674,2.628-3.163l10.009-3.513
				c11.735-4.12,19.481-9.751,24.268-13.349l-3.387-25.952c-0.149-1.142,0.201-2.292,0.96-3.157s1.854-1.361,3.006-1.361h22.417
				c1.15,0,2.247,0.497,3.006,1.361s1.109,2.015,0.96,3.157l-3.385,25.947c4.726,3.56,13.01,9.575,25.214,13.696l10.053,3.396
				c1.398,0.471,2.423,1.676,2.666,3.131c0.242,1.456-0.337,2.928-1.507,3.828l-8.411,6.469c-1.404,1.081-2.811,2.314-4.178,3.665
				l-3.977,3.925C256.181,175.906,255.166,176.291,254.15,176.291z"/>
			<path d="M236.52,110.562h0.005 M236.52,110.562l-3.688,28.266l1.191,0.888c4.766,3.601,13.574,10.259,27.012,14.796l10.053,3.396
				l-8.411,6.469c-1.533,1.179-3.064,2.521-4.55,3.989l-3.977,3.925l-3.982-3.917c-7.582-7.461-15.686-11.243-24.083-11.243
				c-8.282,0-16.61,3.885-24.084,11.238l-3.982,3.918l-3.976-3.925c-1.627-1.606-3.306-3.062-4.988-4.324l-8.482-6.371l10.009-3.512
				c12.857-4.514,21.077-10.708,25.987-14.408l1.225-0.914l-3.689-28.271H236.52 M236.524,102.562h-0.005h-22.417
				c-2.302,0-4.493,0.992-6.012,2.722s-2.219,4.031-1.921,6.313l3.083,23.625c-4.785,3.504-11.509,7.938-21.323,11.384
				l-10.008,3.513c-2.785,0.977-4.806,3.409-5.257,6.326c-0.451,2.917,0.742,5.846,3.103,7.619l8.482,6.37
				c1.396,1.048,2.799,2.266,4.172,3.622l3.975,3.923c1.558,1.539,3.589,2.308,5.621,2.308c2.027,0,4.054-0.766,5.61-2.297
				l3.982-3.918c5.946-5.85,12.334-8.94,18.474-8.94c6.225,0,12.44,3.009,18.473,8.945l3.983,3.918
				c1.557,1.532,3.583,2.297,5.61,2.297c2.031,0,4.062-0.769,5.62-2.306l3.977-3.925c1.252-1.237,2.534-2.361,3.809-3.342
				l8.41-6.469c2.34-1.8,3.499-4.742,3.014-7.654c-0.485-2.913-2.534-5.321-5.331-6.266l-10.053-3.396
				c-10.238-3.458-17.411-8.188-22.225-11.714l3.051-23.384c0.066-0.415,0.101-0.839,0.101-1.273
				C244.522,106.144,240.943,102.562,236.524,102.562L236.524,102.562z"/>
		</g>
		
			<path fill="#39A935" stroke="#000000" stroke-width="8" stroke-linecap="round" stroke-linejoin="round" stroke-miterlimit="10" d="
			M270.844,153.403c-8.45,0-15.563,4.903-20.713,10.059c-7.125-6.572-15.219-10.059-23.724-10.059
			c-7.285,0-14.272,3.575-20.607,9.892l0.092,0.105c0,0-14.773-10.001-23.189-10.001c-27.46,0-53.658,36.277-53.658,95.793
			c0,59.51,26.198,93.79,53.658,93.785c8.412,0,23.189-9.991,23.189-9.991l-0.092,0.105c6.335,6.314,13.322,9.891,20.607,9.891
			c8.602,0,16.785-3.365,23.969-9.812c5.13,5.058,12.15,9.812,20.468,9.812c27.458,0,53.656-34.28,53.656-93.787
			C324.5,189.679,298.302,153.403,270.844,153.403z"/>
		<path fill="none" stroke="#000000" stroke-width="6" stroke-linecap="round" stroke-linejoin="round" stroke-miterlimit="10" d="
			M206.575,332.57c0,0-23.467-17.377-21.102-68.207"/>
		<path fill="none" stroke="#000000" stroke-width="6" stroke-linecap="round" stroke-linejoin="round" stroke-miterlimit="10" d="
			M249.407,332.57c0,0,11.693-8.658,17.739-31.629"/>
		<path fill="none" stroke="#000000" stroke-width="6" stroke-linecap="round" stroke-linejoin="round" stroke-miterlimit="10" d="
			M246.876,162.365c0,0,23.467,17.376,21.102,68.205"/>
	</g>
</g>
<g id="cb" display="none">
	<g id="rdeča7bela_copy" display="inline">
	</g>
	<g display="inline">
		<path fill="none" stroke="#000000" stroke-width="6" stroke-linecap="round" stroke-linejoin="round" stroke-miterlimit="10" d="
			M206.575,332.57c0,0-23.467-17.377-21.102-68.207"/>
		<path fill="none" stroke="#000000" stroke-width="6" stroke-linecap="round" stroke-linejoin="round" stroke-miterlimit="10" d="
			M249.407,332.57c0,0,11.693-8.658,17.739-31.629"/>
		<path fill="none" stroke="#000000" stroke-width="6" stroke-linecap="round" stroke-linejoin="round" stroke-miterlimit="10" d="
			M246.876,162.365c0,0,23.467,17.376,21.102,68.205"/>
		<path fill="none" stroke="#000000" stroke-width="8" stroke-linecap="round" stroke-linejoin="round" stroke-miterlimit="10" d="
			M270.844,153.403c-8.45,0-15.563,4.903-20.713,10.059c-7.125-6.572-15.219-10.059-23.724-10.059
			c-7.285,0-14.272,3.575-20.607,9.892l0.092,0.105c0,0-14.773-10.001-23.189-10.001c-27.46,0-53.658,36.277-53.658,95.793
			c0,59.51,26.198,93.79,53.658,93.785c8.412,0,23.189-9.991,23.189-9.991l-0.092,0.105c6.335,6.314,13.322,9.891,20.607,9.891
			c8.602,0,16.785-3.365,23.969-9.812c5.13,5.058,12.15,9.812,20.468,9.812c27.458,0,53.656-34.28,53.656-93.787
			C324.5,189.679,298.302,153.403,270.844,153.403z"/>
		<g>
			<g>
				<path d="M238.149,99.543l-4.248,32.561l1.372,1.022c5.23,3.953,14.702,11.098,28.975,16.285
					c-5.174,1.569-9.665,4.782-13.276,8.231c-0.949-0.45-2.026-0.852-3.201-1.208c-6.532-5.255-13.784-8.032-21.364-8.032
					c-7.27,0-14.243,3.562-20.567,9.854c-0.031,0.014-0.065,0.029-0.096,0.044c-1.278-0.851-10.884-7.136-18.646-9.228
					c13.737-5.127,22.654-11.832,28.067-15.911l1.411-1.053l-4.25-32.566H238.149 M238.149,91.543h-25.822
					c-2.302,0-4.493,0.992-6.012,2.722c-1.519,1.729-2.219,4.03-1.921,6.313l3.644,27.924c-5.145,3.792-12.852,9.013-23.737,13.075
					c-3.258,1.216-5.357,4.397-5.194,7.871s2.552,6.444,5.91,7.349c5.342,1.439,12.756,5.808,16.295,8.162
					c1.335,0.889,2.881,1.34,4.432,1.34c1.162,0,2.327-0.253,3.41-0.764l0.082-0.038c0.833-0.39,1.593-0.921,2.246-1.571
					c5.019-4.993,10.041-7.525,14.925-7.525c5.681,0,11.182,2.108,16.349,6.266c0.797,0.641,1.71,1.123,2.689,1.421
					c0.832,0.252,1.537,0.515,2.097,0.781c1.095,0.52,2.266,0.772,3.428,0.772c2.017,0,4.006-0.762,5.527-2.214
					c3.366-3.214,6.755-5.354,10.073-6.361c3.296-1,5.582-3.997,5.675-7.439c0.093-3.442-2.027-6.559-5.264-7.734
					c-11.343-4.124-19.281-9.504-24.542-13.394l3.642-27.922c0.298-2.283-0.402-4.583-1.921-6.313
					C242.642,92.536,240.451,91.543,238.149,91.543L238.149,91.543z"/>
			</g>
		</g>
	</g>
</g>
<g id="pivot">
	<circle fill="none" cx="227.538" cy="339.137" r="14.132"/>
</g>
</svg>
