<?xml version="1.0" encoding="utf-8"?>
<!-- Generator: Adobe Illustrator 16.0.0, SVG Export Plug-In . SVG Version: 6.00 Build 0)  -->
<!DOCTYPE svg PUBLIC "-//W3C//DTD SVG 1.1//EN" "http://www.w3.org/Graphics/SVG/1.1/DTD/svg11.dtd">
<svg version="1.1" xmlns="http://www.w3.org/2000/svg" xmlns:xlink="http://www.w3.org/1999/xlink" x="0px" y="0px"
	 width="453.543px" height="453.543px" viewBox="0 0 453.543 453.543" enable-background="new 0 0 453.543 453.543"
	 xml:space="preserve">
<g id="kvadrat" display="none">
</g>
<g id="color">
	<g id="rdeča7bela">
	</g>
	<g>
		<g>
			<path fill="#941B80" d="M226.423,375.053c-1.382,0-2.667-0.714-3.397-1.889c-2.277-3.663-4.524-10.161-7.125-17.685
				c-3.619-10.467-8.122-23.494-12.886-28.269c-1.61-1.615-7.984-4.092-14.149-6.488c-23.544-9.149-62.95-24.465-62.95-64.204
				c0-66.729,35.341-102,102.204-102c66.027,0,99.506,34.318,99.506,102c0,39.017-39.075,54.407-62.421,63.603
				c-5.869,2.312-13.174,5.189-14.338,6.703c-3.482,4.524-7.158,15.787-10.4,25.724c-2.887,8.843-5.379,16.48-7.95,20.615
				c-0.729,1.174-2.012,1.887-3.394,1.888L226.423,375.053z"/>
			<path d="M228.121,158.519c72.345,0,95.506,41.557,95.506,98c0,49.289-68.954,58.8-75.93,67.867
				c-6.976,9.063-13.324,38.217-18.576,46.666l-2.697,0.002c-5.254-8.451-11.727-37.796-20.576-46.667
				c-8.85-8.874-75.931-18.578-75.931-67.867C129.917,200.075,155.775,158.519,228.121,158.519 M228.121,150.519
				c-36.548,0-64.208,10.268-82.21,30.519c-15.921,17.909-23.994,43.304-23.994,75.481c0,18.673,8.366,34.544,24.865,47.173
				c13.179,10.088,29.049,16.255,40.636,20.76c5.048,1.961,11.324,4.4,12.811,5.628c4.104,4.177,8.604,17.192,11.893,26.706
				c2.68,7.751,4.994,14.446,7.509,18.491c1.46,2.347,4.029,3.776,6.794,3.776c0.001,0,0.003,0,0.004,0l2.697-0.002
				c2.764-0.001,5.33-1.429,6.79-3.776c2.826-4.545,5.388-12.396,8.354-21.486c2.927-8.969,6.556-20.087,9.582-24.275
				c1.672-1.278,7.838-3.708,12.82-5.67c11.507-4.532,27.267-10.74,40.317-20.75c16.349-12.538,24.638-28.208,24.638-46.575
				c0-32.417-7.58-57.768-22.529-75.348C291.803,160.831,264.559,150.519,228.121,150.519L228.121,150.519z"/>
		</g>
		<path fill="none" stroke="#000000" stroke-width="6" stroke-linecap="round" stroke-linejoin="round" stroke-miterlimit="10" d="
			M295.234,259.934c0,0,7.632-36.401-18.436-67.188"/>
		
			<path fill="#39A935" stroke="#000000" stroke-width="8" stroke-linecap="round" stroke-linejoin="round" stroke-miterlimit="10" d="
			M228.959,174.456l-14.587-91.965l-29.693,6.591c0,0,29.761,87.299,29.602,88.648C214.122,179.082,228.959,174.456,228.959,174.456
			z"/>
		
			<path fill="#39A935" stroke="#000000" stroke-width="8" stroke-linecap="round" stroke-linejoin="round" stroke-miterlimit="10" d="
			M262.554,115.642l-27.575-9.23c0,0-19.455,67.578-20.572,71c-1.311,4.014,3.087,8.179,7.007,8.179
			c4.798-0.062,6.633-3.628,6.633-3.628L262.554,115.642z"/>
	</g>
</g>
<g id="cb" display="none">
	<g id="rdeča7bela_copy" display="inline">
	</g>
	<g display="inline">
		<path fill="none" stroke="#000000" stroke-width="6" stroke-linecap="round" stroke-linejoin="round" stroke-miterlimit="10" d="
			M295.234,259.934c0,0,7.632-36.401-18.436-67.188"/>
		<g>
			<path d="M240.032,158.927c62.996,4.394,83.594,44.372,83.594,97.591c0,49.289-68.954,58.8-75.93,67.867
				c-6.976,9.063-13.324,38.217-18.576,46.666l-2.697,0.002c-5.254-8.451-11.727-37.796-20.576-46.667
				c-8.85-8.874-75.931-18.578-75.931-67.867c0-51.011,21.125-89.859,78.594-96.865c3.431,10.329,5.815,17.693,5.77,18.077
				c-0.004,0.04,0.006,0.071,0.026,0.1c-0.889,3.879,3.323,7.76,7.107,7.76c4.798-0.062,6.633-3.628,6.633-3.628L240.032,158.927
				 M240.03,150.927c-2.967,0-5.711,1.648-7.095,4.308l-10.827,20.808c-0.476-2.215-1.957-6.72-6.005-18.911
				c-1.097-3.301-4.18-5.479-7.587-5.479c-0.322,0-0.646,0.02-0.973,0.059c-29.525,3.599-51.841,15.421-66.327,35.136
				c-12.806,17.428-19.299,40.869-19.299,69.671c0,18.673,8.366,34.544,24.864,47.173c13.179,10.088,29.048,16.255,40.636,20.759
				c5.048,1.961,11.324,4.401,12.812,5.629c4.103,4.177,8.604,17.193,11.893,26.707c2.68,7.751,4.994,14.446,7.509,18.49
				c1.46,2.348,4.029,3.776,6.794,3.776c0.002,0,0.004,0,0.006,0l2.697-0.002c2.763-0.002,5.33-1.429,6.788-3.776
				c2.827-4.545,5.389-12.396,8.355-21.485c2.927-8.97,6.556-20.088,9.582-24.276c1.672-1.279,7.838-3.708,12.82-5.67
				c11.507-4.533,27.267-10.74,40.318-20.75c16.349-12.539,24.638-28.209,24.638-46.576c0-30.389-6.66-54.591-19.796-71.936
				c-15.21-20.084-39.18-31.4-71.241-33.637C240.402,150.934,240.215,150.927,240.03,150.927L240.03,150.927z"/>
		</g>
		
			<path fill="none" stroke="#000000" stroke-width="6.9277" stroke-linecap="round" stroke-linejoin="round" stroke-miterlimit="10" d="
			M233.065,101.411c0,0-4.138,19.172-8.135,37.609l-7.318-61.529l-22.266,6.591c0,0,22.317,87.299,22.198,88.648
			c-0.003,0.04,0.005,0.071,0.02,0.1c-0.667,3.879,2.491,7.76,5.329,7.76c3.598-0.062,4.975-3.628,4.975-3.628l25.876-66.321
			L233.065,101.411z"/>
	</g>
</g>
<g id="pivot">
	<circle fill="none" cx="228.045" cy="369.519" r="14.132"/>
</g>
</svg>
