<?xml version="1.0" encoding="utf-8"?>
<!-- Generator: Adobe Illustrator 16.0.0, SVG Export Plug-In . SVG Version: 6.00 Build 0)  -->
<!DOCTYPE svg PUBLIC "-//W3C//DTD SVG 1.1//EN" "http://www.w3.org/Graphics/SVG/1.1/DTD/svg11.dtd">
<svg version="1.1" xmlns="http://www.w3.org/2000/svg" xmlns:xlink="http://www.w3.org/1999/xlink" x="0px" y="0px" width="220px"
	 height="220px" viewBox="0 0 220 220" enable-background="new 0 0 220 220" xml:space="preserve">
<g id="bg" display="none">
	<rect x="-1045.836" y="-7881.787" display="inline" fill="#FFFFFF" width="3240.076" height="8444.104"/>
</g>
<g id="Layer_3" display="none">
</g>
<g id="Layer_1">
	<g>
		<defs>
			<rect id="SVGID_553_" x="0" width="220" height="220"/>
		</defs>
		<clipPath id="SVGID_2_">
			<use xlink:href="#SVGID_553_"  overflow="visible"/>
		</clipPath>
		<rect x="0" clip-path="url(#SVGID_2_)" fill="#57B3E6" width="220" height="220"/>
		<path clip-path="url(#SVGID_2_)" fill="#001376" d="M176.061,180.814c-3.649-2.105-7.621-2.418-10.381,2.16
			c-2.049,3.399-2.445,7.51-2.439,11.58l-7.098-0.307c-0.101-5.167,0.702-11.208,3.963-16.619
			c5.143-8.532,12.854-9.559,22.357-3.831l20.188,12.167l-3.931,6.521l-4.122-1.634l-0.126,0.208c0.728,4.6,0.649,9.28-1.776,13.304
			c-3.596,5.965-10.127,7.703-16.093,4.107C169.319,204.081,169.183,195.678,176.061,180.814z M187.957,198.104
			c1.673-2.775,1.582-5.762,0.729-9.681l-7.631-4.599c-4.381,9.938-3.793,14.453-0.394,16.501
			C183.713,202.164,186.244,200.947,187.957,198.104z"/>
		<path clip-path="url(#SVGID_2_)" fill="#001376" d="M113.171,99.979l6.304-6.856l10.853,9.977l4.725,4.675
			c0.1-4.418,1.406-8.83,4.146-11.811c6.743-7.334,16.478-6.194,25.482,2.083c10.076,9.264,10.323,20.604,4.348,27.102
			c-2.468,2.685-6.41,4.34-11.042,4.592l-0.164,0.179l2.432,3.337l-4.988,5.426L113.171,99.979z M162.047,121.373
			c3.564-3.877,2.847-10.036-3.771-16.121c-5.843-5.373-11.056-6.644-15.112-2.231c-1.973,2.146-2.764,5.159-2.641,9.454
			l13.654,12.553C157.883,124.586,160.458,123.102,162.047,121.373z"/>
		<path clip-path="url(#SVGID_2_)" fill="#001376" d="M90.695,185.1c-1.773-4.783-1.227-9.133,0.273-12.54l7.093,2.12
			c-1.014,2.622-1.269,4.963-0.396,7.316c2.225,6,8.71,8.346,16.227,5.558c7.442-2.761,10.857-8.691,8.689-14.539
			c-1.127-3.037-3.604-5.056-6.033-6.487l4.19-5.701c4.41,2.34,7.741,6.199,9.319,10.453c3.773,10.176-0.464,20.645-12.842,25.235
			C104.764,201.133,94.385,195.049,90.695,185.1z"/>
		<path clip-path="url(#SVGID_2_)" fill="#001376" d="M163.665,68.861l-8.126-11.612c-9.288-13.271-7.602-26.118,6.732-36.148
			c14.4-10.077,27.379-7.493,36.388,5.381l8.405,12.011L163.665,68.861z M193.071,31.775c-6.13-8.76-14.589-10.254-25.272-2.777
			c-10.618,7.43-11.781,15.657-5.65,24.417l2.367,3.384l30.924-21.639L193.071,31.775z"/>
		<path clip-path="url(#SVGID_2_)" fill="#001376" d="M95.014,73.898l2.819-11.15l-32.822-8.299l-2.323,9.187l-5.654-1.43
			c0.309-5.185-0.074-8.958-1.164-12.575l1.708-6.753l42.559,10.761l2.482-9.814L110,45.69l-7.604,30.073L95.014,73.898z"/>
		<path clip-path="url(#SVGID_2_)" fill="#001376" d="M53.94,119.76c-1.577,2.475-2.109,6.059-1.154,8.983
			c2.014,6.159,8.191,9.679,21.866,5.635c-4.548-1.666-8.089-5.195-9.246-8.737c-2.767-8.468,0.247-15.93,10.485-19.275
			c9.777-3.195,18.381,1.746,21.123,10.138c3.146,9.623-1.654,20.225-18.129,25.609c-19.015,6.215-29.888-0.456-33.16-10.466
			c-1.938-5.927-0.858-10.967,1.265-14.898L53.94,119.76z M78.584,114.602c-5.773,1.889-7.77,5.693-6.184,10.543
			c0.906,2.771,3.502,5.502,8.489,6.938c8.398-3.768,10.96-8.438,9.4-13.212C88.958,114.791,84.588,112.641,78.584,114.602z"/>
		<path clip-path="url(#SVGID_2_)" fill="#001376" d="M232.149,118.219l0,17.818l14.336,4.131v9.557l-52.97-17.252l0-11.014
			l52.97-17.252v9.881L232.149,118.219z M224.779,120.324l-6.479,1.863c-5.589,1.701-11.663,3.239-17.495,4.778v0.323
			c5.913,1.459,11.907,2.998,17.496,4.698l6.479,1.862L224.779,120.324z"/>
		<path clip-path="url(#SVGID_2_)" fill="#001376" d="M12.149,118.219l0,17.818l14.336,4.131v9.557l-52.97-17.252l0-11.014
			l52.97-17.252v9.881L12.149,118.219z M4.779,120.324l-6.479,1.863c-5.589,1.701-11.663,3.239-17.495,4.778v0.323
			c5.913,1.459,11.907,2.998,17.496,4.698l6.479,1.862L4.779,120.324z"/>
		<path clip-path="url(#SVGID_2_)" fill="#001376" d="M21.229,19.316V2.389c0-10.934,3.32-18.951,13.04-18.951
			c5.021,0,9.881,2.916,11.501,9.07h0.324c1.296-7.613,5.427-11.824,12.554-11.824c10.61,0,15.55,8.666,15.55,20.329v18.304H21.229z
			 M43.178,3.199c0-7.37-2.835-10.529-7.775-10.529c-4.859,0-6.885,3.482-6.885,10.367v6.885h14.66V3.199z M66.91,1.984
			c0-7.775-2.916-12.148-8.91-12.148c-5.507,0-8.099,4.211-8.099,12.148v7.938H66.91V1.984z"/>
		<path clip-path="url(#SVGID_2_)" fill="#001376" d="M21.229,239.316v-16.928c0-10.934,3.32-18.951,13.04-18.951
			c5.021,0,9.881,2.916,11.501,9.07h0.324c1.296-7.613,5.427-11.824,12.554-11.824c10.61,0,15.551,8.666,15.551,20.329v18.304
			H21.229z M43.178,223.199c0-7.37-2.835-10.529-7.775-10.529c-4.859,0-6.885,3.482-6.885,10.367v6.885h14.66V223.199z
			 M66.91,221.984c0-7.775-2.916-12.148-8.91-12.148c-5.507,0-8.099,4.211-8.099,12.148v7.938H66.91V221.984z"/>
	</g>
</g>
</svg>
