<?xml version="1.0" encoding="utf-8"?>
<!-- Generator: Adobe Illustrator 16.0.0, SVG Export Plug-In . SVG Version: 6.00 Build 0)  -->
<!DOCTYPE svg PUBLIC "-//W3C//DTD SVG 1.1//EN" "http://www.w3.org/Graphics/SVG/1.1/DTD/svg11.dtd">
<svg version="1.1" xmlns="http://www.w3.org/2000/svg" xmlns:xlink="http://www.w3.org/1999/xlink" x="0px" y="0px" width="220px"
	 height="220px" viewBox="0 0 220 220" enable-background="new 0 0 220 220" xml:space="preserve">
<g id="bg" display="none">
	<rect x="-445.836" y="-7881.787" display="inline" fill="#FFFFFF" width="3240.076" height="8444.104"/>
</g>
<g id="Layer_3" display="none">
</g>
<g id="Layer_1">
	<g>
		<defs>
			<rect id="SVGID_555_" width="220" height="220"/>
		</defs>
		<clipPath id="SVGID_2_">
			<use xlink:href="#SVGID_555_"  overflow="visible"/>
		</clipPath>
		<rect clip-path="url(#SVGID_2_)" fill="#001376" width="220" height="220"/>
		<path clip-path="url(#SVGID_2_)" fill="#57B3E6" d="M43.939,39.186c3.649,2.105,7.621,2.418,10.381-2.16
			c2.049-3.399,2.445-7.51,2.439-11.58l7.098,0.307c0.101,5.167-0.702,11.208-3.963,16.619c-5.143,8.532-12.854,9.559-22.357,3.831
			L17.35,34.035l3.931-6.521l4.122,1.634l0.126-0.208c-0.728-4.6-0.649-9.28,1.776-13.304c3.596-5.965,10.127-7.703,16.093-4.107
			C50.681,15.919,50.817,24.322,43.939,39.186z M32.043,21.896c-1.673,2.775-1.582,5.762-0.729,9.681l7.631,4.599
			c4.381-9.938,3.793-14.453,0.394-16.501C36.287,17.836,33.756,19.053,32.043,21.896z"/>
		<path clip-path="url(#SVGID_2_)" fill="#57B3E6" d="M106.828,120.021l-6.304,6.856L89.672,116.9l-4.725-4.675
			c-0.1,4.418-1.406,8.83-4.147,11.811c-6.742,7.334-16.477,6.194-25.481-2.083c-10.076-9.264-10.323-20.604-4.348-27.102
			c2.468-2.685,6.41-4.34,11.042-4.592l0.164-0.179l-2.431-3.337l4.988-5.426L106.828,120.021z M57.952,98.627
			c-3.564,3.877-2.847,10.036,3.771,16.121c5.843,5.373,11.056,6.644,15.112,2.231c1.973-2.146,2.764-5.159,2.641-9.454
			L65.822,94.973C62.116,95.414,59.541,96.898,57.952,98.627z"/>
		<path clip-path="url(#SVGID_2_)" fill="#57B3E6" d="M129.305,34.9c1.773,4.783,1.227,9.133-0.273,12.54l-7.093-2.12
			c1.014-2.622,1.269-4.963,0.396-7.316c-2.225-6-8.71-8.346-16.227-5.558c-7.442,2.761-10.857,8.691-8.689,14.539
			c1.127,3.037,3.604,5.056,6.033,6.487l-4.191,5.701c-4.41-2.34-7.741-6.199-9.319-10.453
			c-3.773-10.176,0.464-20.645,12.842-25.235C115.236,18.867,125.614,24.951,129.305,34.9z"/>
		<path clip-path="url(#SVGID_2_)" fill="#57B3E6" d="M56.335,151.139l8.126,11.612c9.288,13.271,7.602,26.118-6.732,36.148
			c-14.4,10.077-27.379,7.493-36.388-5.381l-8.405-12.011L56.335,151.139z M26.928,188.225c6.13,8.76,14.589,10.254,25.273,2.777
			c10.618-7.43,11.781-15.657,5.65-24.417l-2.367-3.384L24.561,184.84L26.928,188.225z"/>
		<path clip-path="url(#SVGID_2_)" fill="#57B3E6" d="M124.985,146.102l-2.819,11.15l32.822,8.299l2.323-9.187l5.654,1.43
			c-0.309,5.185,0.074,8.958,1.164,12.575l-1.708,6.753l-42.559-10.761l-2.482,9.814L110,174.31l7.604-30.073L124.985,146.102z"/>
		<path clip-path="url(#SVGID_2_)" fill="#57B3E6" d="M166.06,100.24c1.576-2.475,2.109-6.059,1.154-8.983
			c-2.015-6.159-8.191-9.679-21.866-5.635c4.548,1.666,8.089,5.195,9.245,8.737c2.768,8.468-0.246,15.93-10.484,19.275
			c-9.777,3.195-18.381-1.746-21.123-10.138c-3.146-9.623,1.654-20.225,18.129-25.609c19.016-6.215,29.889,0.456,33.16,10.466
			c1.938,5.927,0.857,10.967-1.266,14.898L166.06,100.24z M141.415,105.398c5.773-1.889,7.77-5.693,6.184-10.543
			c-0.906-2.771-3.502-5.502-8.488-6.938c-8.398,3.768-10.961,8.438-9.4,13.212C131.042,105.209,135.411,107.359,141.415,105.398z"
			/>
		<path clip-path="url(#SVGID_2_)" fill="#57B3E6" d="M-12.149,101.781V83.963l-14.336-4.131v-9.557l52.97,17.252v11.014
			l-52.97,17.252v-9.881L-12.149,101.781z M-4.78,99.676l6.48-1.863c5.589-1.701,11.663-3.239,17.495-4.778v-0.323
			C13.282,91.252,7.289,89.713,1.7,88.013l-6.48-1.862V99.676z"/>
		<path clip-path="url(#SVGID_2_)" fill="#57B3E6" d="M207.851,101.781V83.963l-14.336-4.131v-9.557l52.97,17.252v11.014
			l-52.97,17.252v-9.881L207.851,101.781z M215.22,99.676l6.48-1.863c5.589-1.701,11.663-3.239,17.495-4.778v-0.323
			c-5.913-1.459-11.906-2.998-17.495-4.698l-6.48-1.862V99.676z"/>
		<path clip-path="url(#SVGID_2_)" fill="#57B3E6" d="M198.771,200.684v16.928c0,10.934-3.32,18.951-13.04,18.951
			c-5.021,0-9.881-2.916-11.501-9.07h-0.324c-1.296,7.613-5.427,11.824-12.554,11.824c-10.61,0-15.551-8.666-15.551-20.329v-18.304
			H198.771z M176.821,216.801c0,7.37,2.835,10.529,7.775,10.529c4.859,0,6.885-3.482,6.885-10.367v-6.885h-14.66V216.801z
			 M153.09,218.016c0,7.775,2.916,12.148,8.91,12.148c5.507,0,8.099-4.211,8.099-12.148v-7.938H153.09V218.016z"/>
		<path clip-path="url(#SVGID_2_)" fill="#57B3E6" d="M198.771-19.316v16.928c0,10.934-3.32,18.951-13.04,18.951
			c-5.021,0-9.881-2.916-11.501-9.07h-0.324c-1.296,7.613-5.427,11.824-12.554,11.824c-10.61,0-15.551-8.666-15.551-20.329v-18.304
			H198.771z M176.821-3.199c0,7.37,2.835,10.529,7.775,10.529c4.859,0,6.885-3.482,6.885-10.367v-6.885h-14.66V-3.199z
			 M153.09-1.984c0,7.775,2.916,12.148,8.91,12.148c5.507,0,8.099-4.211,8.099-12.148v-7.938H153.09V-1.984z"/>
	</g>
</g>
</svg>
