<?xml version="1.0" encoding="utf-8"?>
<!-- Generator: Adobe Illustrator 16.0.0, SVG Export Plug-In . SVG Version: 6.00 Build 0)  -->
<!DOCTYPE svg PUBLIC "-//W3C//DTD SVG 1.1//EN" "http://www.w3.org/Graphics/SVG/1.1/DTD/svg11.dtd">
<svg version="1.1" xmlns="http://www.w3.org/2000/svg" xmlns:xlink="http://www.w3.org/1999/xlink" x="0px" y="0px" width="220px"
	 height="220px" viewBox="0 0 220 220" enable-background="new 0 0 220 220" xml:space="preserve">
<g id="bg" display="none">
	<rect x="-1945.836" y="-7881.787" display="inline" fill="#FFFFFF" width="3240.076" height="8444.104"/>
</g>
<g id="Layer_3" display="none">
</g>
<g id="Layer_1">
	<g>
		<defs>
			<rect id="SVGID_545_" x="0" width="220" height="220"/>
		</defs>
		<clipPath id="SVGID_2_">
			<use xlink:href="#SVGID_545_"  overflow="visible"/>
		</clipPath>
		<rect x="0" clip-path="url(#SVGID_2_)" fill="#57B3E6" width="220" height="220"/>
		<g clip-path="url(#SVGID_2_)">
			<path fill="#001376" d="M27.833,36.364c-0.075-3.849-1.702-7.104-6.586-7.104c-3.626,0-7.03,1.628-10.213,3.552l-3.108-5.698
				c3.997-2.517,9.103-4.736,14.875-4.736c9.103,0,13.543,5.551,13.543,15.689v21.535h-6.956l-0.666-3.996h-0.222
				c-3.256,2.738-6.957,4.884-11.249,4.884c-6.365,0-10.805-4.292-10.805-10.656C6.445,42.063,12.958,37.992,27.833,36.364z
				 M19.915,53.829c2.96,0,5.254-1.48,7.918-3.996v-8.141c-9.843,1.258-13.099,3.849-13.099,7.475
				C14.734,52.423,16.88,53.829,19.915,53.829z"/>
			<path fill="#001376" d="M63.721,7.354h8.511v13.47l-0.222,6.068c3.034-2.664,6.809-4.515,10.509-4.515
				c9.103,0,14.357,7.253,14.357,18.428c0,12.507-7.475,19.685-15.541,19.685c-3.33,0-6.883-1.628-9.917-4.588h-0.222l-0.74,3.7
				h-6.734V7.354z M79.558,53.459c4.811,0,8.511-4.292,8.511-12.507c0-7.252-2.368-11.545-7.845-11.545
				c-2.664,0-5.18,1.332-7.992,4.07v16.947C74.821,52.646,77.412,53.459,79.558,53.459z"/>
			<path fill="#001376" d="M138.314,22.377c4.662,0,8.215,1.851,10.657,4.219l-4.07,5.402c-1.924-1.702-3.848-2.665-6.142-2.665
				c-5.847,0-9.917,4.811-9.917,12.138c0,7.252,3.996,12.063,9.694,12.063c2.96,0,5.477-1.48,7.475-3.108l3.553,5.402
				c-3.404,3.034-7.771,4.662-11.915,4.662c-9.917,0-17.539-6.956-17.539-19.019C120.109,29.333,128.619,22.377,138.314,22.377z"/>
			<path fill="#001376" d="M187.747,22.377c4.662,0,8.214,1.851,10.656,4.219l-4.07,5.402c-1.924-1.702-3.848-2.665-6.142-2.665
				c-5.846,0-9.917,4.811-9.917,12.138c0,7.252,3.996,12.063,9.694,12.063c2.96,0,5.477-1.48,7.475-3.108l3.552,5.402
				c-3.404,3.034-7.771,4.662-11.915,4.662c-9.917,0-17.54-6.956-17.54-19.019C169.541,29.333,178.051,22.377,187.747,22.377z
				 M177.089,6.392h5.921l4.44,6.291h0.296l4.44-6.291h5.846l-7.03,10.805h-6.882L177.089,6.392z"/>
			<path fill="#001376" d="M8.074,126.646h10.509V95.711H9.923v-5.328c4.663-0.889,7.919-2.072,10.879-3.849h6.365v40.111h9.25
				v6.956H8.074V126.646z"/>
			<path fill="#001376" d="M60.39,128.644c13.099-12.655,21.313-20.943,21.313-28.122c0-4.959-2.738-8.141-7.771-8.141
				c-3.626,0-6.66,2.442-9.177,5.254l-4.736-4.736c4.292-4.588,8.585-7.252,15.023-7.252c9.028,0,14.875,5.698,14.875,14.431
				c0,8.362-7.771,16.947-17.095,26.79c2.442-0.222,5.55-0.519,7.844-0.519h11.545v7.253H60.39V128.644z"/>
			<path fill="#001376" d="M118.405,122.353c2.812,2.887,6.439,5.181,11.175,5.181c5.106,0,8.658-2.664,8.658-7.104
				c0-4.885-3.108-7.992-13.838-7.992v-6.217c9.251,0,12.285-3.183,12.285-7.549c0-3.922-2.665-6.29-6.957-6.29
				c-3.7,0-6.586,1.776-9.473,4.44l-4.366-5.255c3.996-3.552,8.511-5.92,14.135-5.92c9.029,0,15.245,4.44,15.245,12.433
				c0,5.254-3.108,8.807-8.214,10.805v0.296c5.55,1.48,9.769,5.477,9.769,11.693c0,8.584-7.475,13.616-16.503,13.616
				c-7.623,0-12.655-2.96-15.985-6.66L118.405,122.353z"/>
			<path fill="#001376" d="M203.581,121.465h-5.921v12.137h-7.992v-12.137h-20.796v-5.772l18.649-29.158h10.139v28.344h5.921
				V121.465z M189.667,114.878v-10.656c0-2.738,0.222-7.03,0.37-9.769h-0.296c-1.184,2.441-2.516,4.811-3.848,7.326l-8.584,13.099
				H189.667z"/>
			<path fill="#001376" d="M31.237,194.503H14.956l-3.774,13.099H2.449l15.763-48.399h10.064l15.763,48.399h-9.029L31.237,194.503z
				 M29.313,187.769l-1.702-5.921c-1.554-5.106-2.96-10.656-4.366-15.985h-0.296c-1.332,5.402-2.738,10.879-4.292,15.985
				l-1.702,5.921H29.313z"/>
			<path fill="#001376" d="M61.131,159.202h15.467c9.991,0,17.317,3.034,17.317,11.915c0,4.588-2.664,9.028-8.288,10.509v0.296
				c6.956,1.184,10.805,4.958,10.805,11.471c0,9.694-7.919,14.209-18.575,14.209H61.131V159.202z M75.858,179.258
				c6.735,0,9.621-2.591,9.621-7.104c0-4.44-3.182-6.291-9.473-6.291h-6.29v13.396H75.858z M76.968,200.941
				c7.104,0,11.101-2.664,11.101-8.141c0-5.032-3.848-7.4-11.101-7.4h-7.252v15.541H76.968z"/>
			<path fill="#001376" d="M136.242,158.314c5.847,0,10.73,2.886,13.765,6.143l-4.81,5.328c-2.442-2.442-5.18-3.996-8.88-3.996
				c-7.993,0-13.617,6.66-13.617,17.539c0,11.026,5.181,17.687,13.321,17.687c4.292,0,7.401-1.775,10.139-4.81l4.81,5.254
				c-3.922,4.515-9.028,7.03-15.097,7.03c-12.359,0-21.979-8.88-21.979-24.939C113.892,167.713,123.809,158.314,136.242,158.314z"/>
			<path fill="#001376" d="M187.524,158.314c5.846,0,10.73,2.886,13.765,6.143l-4.811,5.328c-2.442-2.442-5.18-3.996-8.88-3.996
				c-7.993,0-13.617,6.66-13.617,17.539c0,11.026,5.18,17.687,13.32,17.687c4.293,0,7.401-1.775,10.139-4.81l4.81,5.254
				c-3.922,4.515-9.028,7.03-15.097,7.03c-12.359,0-21.979-8.88-21.979-24.939C165.174,167.713,175.091,158.314,187.524,158.314z
				 M197.736,146.917l-7.104,8.585h-8.289l-7.105-8.585h6.661l4.44,4.736h0.296l4.44-4.736H197.736z"/>
		</g>
	</g>
</g>
</svg>
