<?xml version="1.0" encoding="utf-8"?>
<!-- Generator: Adobe Illustrator 16.0.0, SVG Export Plug-In . SVG Version: 6.00 Build 0)  -->
<!DOCTYPE svg PUBLIC "-//W3C//DTD SVG 1.1//EN" "http://www.w3.org/Graphics/SVG/1.1/DTD/svg11.dtd">
<svg version="1.1" xmlns="http://www.w3.org/2000/svg" xmlns:xlink="http://www.w3.org/1999/xlink" x="0px" y="0px" width="250px"
	 height="250px" viewBox="0 0 250 250" enable-background="new 0 0 250 250" xml:space="preserve">
<g id="BG">
</g>
<g id="Layer_1">
	<g>
		<defs>
			<rect id="SVGID_1_" x="-300" width="250" height="250"/>
		</defs>
		<clipPath id="SVGID_2_">
			<use xlink:href="#SVGID_1_"  overflow="visible"/>
		</clipPath>
	</g>
	<g>
		<defs>
			<rect id="SVGID_19_" width="250" height="250"/>
		</defs>
		<clipPath id="SVGID_4_">
			<use xlink:href="#SVGID_19_"  overflow="visible"/>
		</clipPath>
		
			<rect x="-14.568" y="-6" clip-path="url(#SVGID_4_)" fill="#CECECE" stroke="#000000" stroke-linecap="round" stroke-linejoin="round" stroke-miterlimit="10" width="267.62" height="262.06"/>
		
			<path clip-path="url(#SVGID_4_)" fill="#4A4A49" stroke="#000000" stroke-linecap="round" stroke-linejoin="round" stroke-miterlimit="10" d="
			M149.213,67.15c9.332-2.464,18.244-8.751,27.555-12.032c7.002-2.468,13.662-4.756,20.037-8.646
			c8.104-4.947,13.488-10.628,22.828-13.987c14.533-5.229,30.002-7.333,45.144-9.813c9.01-1.476,21.902-1.283,29.926-5.064
			c2.936,5.985,1.176,15.677,1.178,22.277c0.002,9.841,0.207,19.656-0.504,29.475c-0.488,6.755-1.545,13.408-2.162,20.054
			c-0.42,4.495,0.209,10.478-3.773,13.153c-5.508,3.7-24.273-1.204-30.004-2.366c-11.202-2.27-24.13-2.875-34.948-6.453
			c-13.479-4.457-14.291-13.577-23.943-21.311c-3.98-3.188-14.271-8.111-18.621-8.647c-3.207-0.396-30.393,7.701-27.377-1.305"/>
		
			<path clip-path="url(#SVGID_4_)" fill="#999998" stroke="#000000" stroke-linecap="round" stroke-linejoin="round" stroke-miterlimit="10" d="
			M128.219,27.923c62.295,0,137.642,21.299,152.86,29.96l-30.792,198.803H-8.367V62.41V41.214
			C21.074,38.153,65.926,27.923,128.219,27.923z"/>
		
			<path clip-path="url(#SVGID_4_)" fill="#C4C4C4" stroke="#000000" stroke-linecap="round" stroke-linejoin="round" stroke-miterlimit="10" d="
			M151.793,90.082c34.195-1.759,106.515-16.828,121.751-8.167l-23.085,228.343H-8.488V115.982V88.777
			C36.063,103.351,91.359,74.547,151.793,90.082z"/>
		<g clip-path="url(#SVGID_4_)">
			<g>
				<path stroke="#000000" stroke-linecap="round" stroke-linejoin="round" stroke-miterlimit="10" d="M46.494,183.267
					c0.057-0.005,0.111-0.016,0.166-0.034c0.357-0.122,0.549-0.51,0.43-0.868c-4.289-12.687-2.396-25.992-0.566-38.86l0.26-1.829
					c0.053-0.373-0.207-0.718-0.58-0.772c-0.379-0.055-0.723,0.208-0.773,0.581l-0.26,1.827
					c-1.855,13.027-3.771,26.496,0.621,39.492C45.895,183.107,46.189,183.292,46.494,183.267z"/>
				<path stroke="#000000" stroke-linecap="round" stroke-linejoin="round" stroke-miterlimit="10" d="M41.793,141.956l1.996-27.484
					c0.135-1.883,1.582-3.357,3.381-3.598l0.223-3.051c0.057-0.775,0.416-1.38,0.801-1.353c0.391,0.028,0.658,0.681,0.602,1.455
					l-0.221,3.019c1.852,0.427,3.164,2.143,3.023,4.095l-1.994,27.482c-0.154,2.157-2.031,3.778-4.186,3.623
					C43.26,145.988,41.637,144.112,41.793,141.956z"/>
			</g>
			<g>
				<path stroke="#000000" stroke-linecap="round" stroke-linejoin="round" stroke-miterlimit="10" d="M36.795,196.622
					c0.055-0.017,0.104-0.039,0.154-0.069c0.322-0.196,0.426-0.616,0.232-0.939c-6.922-11.465-7.941-24.866-8.928-37.826
					l-0.141-1.842c-0.029-0.376-0.357-0.656-0.732-0.629c-0.383,0.028-0.66,0.358-0.631,0.733l0.141,1.841
					c0.996,13.121,2.027,26.686,9.117,38.43C36.176,196.596,36.502,196.713,36.795,196.622z"/>
				<path stroke="#000000" stroke-linecap="round" stroke-linejoin="round" stroke-miterlimit="10" d="M23.303,157.295
					l-3.975-27.269c-0.273-1.867,0.82-3.619,2.525-4.241l-0.439-3.027c-0.113-0.77,0.107-1.438,0.49-1.493
					c0.387-0.057,0.789,0.522,0.9,1.291l0.436,2.995c1.9,0.018,3.553,1.41,3.834,3.348l3.977,27.266
					c0.313,2.141-1.17,4.128-3.307,4.44C25.604,160.917,23.613,159.435,23.303,157.295z"/>
			</g>
			<path fill="#B9B8B8" stroke="#000000" stroke-linecap="round" stroke-linejoin="round" stroke-miterlimit="10" d="
				M42.369,223.762c0,0-4.008-106.542-7.717-106.391c-3.707,0.156,0.311,106.695,0.311,106.695L42.369,223.762z"/>
			<path fill="#B9B8B8" stroke="#000000" stroke-linecap="round" stroke-linejoin="round" stroke-miterlimit="10" d="M43.539,203.28
				c0,0,10.357-53.637,8.49-53.991c-1.869-0.353-12.221,53.283-12.221,53.283L43.539,203.28z"/>
			<path fill="#B9B8B8" stroke="#000000" stroke-linecap="round" stroke-linejoin="round" stroke-miterlimit="10" d="
				M44.723,216.124c0,0,1.525-54.607-0.375-54.653s-3.422,54.56-3.422,54.56L44.723,216.124z"/>
			<path fill="#B9B8B8" stroke="#000000" stroke-linecap="round" stroke-linejoin="round" stroke-miterlimit="10" d="
				M48.184,229.647c0,0,2.248-54.582,0.348-54.653c-1.898-0.07-4.145,54.509-4.145,54.509L48.184,229.647z"/>
			<path fill="#B9B8B8" stroke="#000000" stroke-linecap="round" stroke-linejoin="round" stroke-miterlimit="10" d="M9.199,203.476
				c0,0-13.24-105.791-16.92-105.318c-3.68,0.478,9.568,106.266,9.568,106.266L9.199,203.476z"/>
			<path fill="#B9B8B8" stroke="#000000" stroke-linecap="round" stroke-linejoin="round" stroke-miterlimit="10" d="
				M11.824,196.991c0,0-3.221-54.533-5.117-54.414s1.326,54.65,1.326,54.65L11.824,196.991z"/>
			<g>
				<path stroke="#000000" stroke-linecap="round" stroke-linejoin="round" stroke-miterlimit="10" d="M7.473,182.655
					c0.057-0.005,0.111-0.015,0.166-0.033c0.357-0.122,0.551-0.509,0.43-0.867c-4.271-12.693-2.359-25.996-0.512-38.862l0.262-1.828
					c0.055-0.373-0.205-0.719-0.578-0.773c-0.379-0.056-0.723,0.207-0.775,0.58l-0.262,1.827
					c-1.873,13.024-3.807,26.491,0.568,39.492C6.873,182.496,7.168,182.681,7.473,182.655z"/>
				<path stroke="#000000" stroke-linecap="round" stroke-linejoin="round" stroke-miterlimit="10" d="M2.83,141.339l2.031-27.481
					c0.139-1.883,1.588-3.355,3.389-3.593l0.225-3.051c0.059-0.775,0.418-1.38,0.805-1.351c0.389,0.028,0.656,0.681,0.598,1.455
					l-0.225,3.019c1.852,0.429,3.162,2.146,3.018,4.099l-2.031,27.479c-0.158,2.157-2.037,3.776-4.191,3.617
					C4.291,145.373,2.67,143.495,2.83,141.339z"/>
			</g>
		</g>
		
			<path clip-path="url(#SVGID_4_)" fill="#929292" stroke="#000000" stroke-linecap="round" stroke-linejoin="round" stroke-miterlimit="10" d="
			M273.36,153.917c-0.662-11.068-1.932-22.244-3.367-32.998c-1.301-9.736,0.875-8.499-8.283-9.505
			c-6.621-0.729-14.796,2.796-21.456,3.53c-9.473,1.044-18.395,5.536-27.592,7.557c-11.436,2.511-24.539-1.086-35.756,2.396
			c-5.986,1.86-11.367,5.223-17.086,7.393c-15.184,5.756-31.572,4.52-48.205,4.52c-9.506,0-21.67-2.021-30.459,1.342
			c-5.289,2.023-13.639,4.555-17.131,9.569c-3.189,4.575-2.145,11.06-4.014,16.277c-3.9,10.896-12.799,11.679-22.732,13.033
			c-10.367,1.416-24.309-0.45-31.119,9.819c-3.5,5.279-3.555,12.325-6.271,17.944c-2.807,5.804-7.82,10.03-10.541,15.962
			c-6.145,13.394-9.164,28.269-0.65,40.339c5.867,8.315,8.693,8.065,19.52,7.385c9.016-0.565,17.582-3.83,26.383-5.521
			c5.641-1.083,9.873-0.833,15.168,0.53c6.301,1.622,11.506,3.329,18.322,3.587c15.232,0.577,28.732-2.565,43.893-3.124
			c18.314-0.676,36.67-1.086,54.838-3.701c17.736-2.553,22.141-0.535,35.059,10.589c9.645,8.307,23.871,11.803,34.918,18.849
			c41.04,26.177,36.046-58.4,36.048-76.08c0.004-14.858,1-29.47,1-44.334C273.845,164.214,273.669,159.077,273.36,153.917z"/>
		<g clip-path="url(#SVGID_4_)">
			
				<rect x="20.983" y="41.653" transform="matrix(-0.1392 0.9903 -0.9903 -0.1392 89.157 46.7365)" stroke="#000000" stroke-linecap="round" stroke-linejoin="round" stroke-miterlimit="10" width="6.566" height="40.929"/>
			
				<rect x="261.028" y="31.203" transform="matrix(-0.1392 0.9903 -0.9903 -0.1392 352.2716 -202.8764)" stroke="#000000" stroke-linecap="round" stroke-linejoin="round" stroke-miterlimit="10" width="6.566" height="40.93"/>
			
				<rect x="59.625" y="40.81" transform="matrix(0.2078 0.9782 -0.9782 0.2078 109.5022 -13.5491)" stroke="#000000" stroke-linecap="round" stroke-linejoin="round" stroke-miterlimit="10" width="6.983" height="40.043"/>
			
				<rect x="101.238" y="32.045" transform="matrix(0.0696 0.9976 -0.9976 0.0696 151.7857 -53.3994)" stroke="#000000" stroke-linecap="round" stroke-linejoin="round" stroke-miterlimit="10" width="6.566" height="45.257"/>
			
				<rect x="139.444" y="38.507" transform="matrix(-0.1392 0.9903 -0.9903 -0.1392 219.4385 -75.9443)" stroke="#000000" stroke-linecap="round" stroke-linejoin="round" stroke-miterlimit="10" width="6.566" height="37.79"/>
			
				<rect x="-16.533" y="37.891" transform="matrix(-0.1392 0.9903 -0.9903 -0.1392 41.1386 77.8125)" stroke="#000000" stroke-linecap="round" stroke-linejoin="round" stroke-miterlimit="10" width="6.566" height="37.79"/>
			
				<rect x="178.553" y="34.537" transform="matrix(0.1737 0.9848 -0.9848 0.1737 204.9966 -133.1337)" stroke="#000000" stroke-linecap="round" stroke-linejoin="round" stroke-miterlimit="10" width="6.566" height="42.116"/>
			
				<rect x="219.525" y="28.056" transform="matrix(0.0872 0.9962 -0.9962 0.0872 253.8808 -175.6922)" stroke="#000000" stroke-linecap="round" stroke-linejoin="round" stroke-miterlimit="10" width="6.566" height="45.258"/>
			
				<rect x="20.982" y="56.658" transform="matrix(-0.1392 0.9903 -0.9903 -0.1392 104.0155 63.8286)" stroke="#000000" stroke-linecap="round" stroke-linejoin="round" stroke-miterlimit="10" width="6.567" height="40.93"/>
			
				<rect x="261.028" y="46.208" transform="matrix(-0.1392 0.9903 -0.9903 -0.1392 367.1256 -185.7842)" stroke="#000000" stroke-linecap="round" stroke-linejoin="round" stroke-miterlimit="10" width="6.567" height="40.931"/>
			
				<rect x="59.624" y="55.816" transform="matrix(0.2078 0.9782 -0.9782 0.2078 124.1844 -1.6587)" stroke="#000000" stroke-linecap="round" stroke-linejoin="round" stroke-miterlimit="10" width="6.984" height="40.043"/>
			
				<rect x="101.238" y="47.05" transform="matrix(0.0696 0.9976 -0.9976 0.0696 166.7542 -39.439)" stroke="#000000" stroke-linecap="round" stroke-linejoin="round" stroke-miterlimit="10" width="6.566" height="45.257"/>
			
				<rect x="139.444" y="53.511" transform="matrix(-0.1392 0.9903 -0.9903 -0.1392 234.2972 -58.8505)" stroke="#000000" stroke-linecap="round" stroke-linejoin="round" stroke-miterlimit="10" width="6.566" height="37.79"/>
			
				<rect x="-16.533" y="52.896" transform="matrix(-0.1392 0.9903 -0.9903 -0.1392 55.9974 94.9043)" stroke="#000000" stroke-linecap="round" stroke-linejoin="round" stroke-miterlimit="10" width="6.567" height="37.79"/>
			
				<rect x="178.553" y="49.542" transform="matrix(0.1737 0.9848 -0.9848 0.1737 219.7778 -120.7349)" stroke="#000000" stroke-linecap="round" stroke-linejoin="round" stroke-miterlimit="10" width="6.567" height="42.116"/>
			
				<rect x="219.525" y="43.061" transform="matrix(0.0872 0.9962 -0.9962 0.0872 268.8291 -161.9946)" stroke="#000000" stroke-linecap="round" stroke-linejoin="round" stroke-miterlimit="10" width="6.566" height="45.258"/>
			
				<rect x="20.982" y="71.664" transform="matrix(-0.1392 0.9903 -0.9903 -0.1392 118.8748 80.9227)" stroke="#000000" stroke-linecap="round" stroke-linejoin="round" stroke-miterlimit="10" width="6.567" height="40.93"/>
			
				<rect x="261.028" y="61.213" transform="matrix(-0.1392 0.9903 -0.9903 -0.1392 381.9896 -168.6883)" stroke="#000000" stroke-linecap="round" stroke-linejoin="round" stroke-miterlimit="10" width="6.566" height="40.931"/>
			
				<rect x="59.624" y="70.82" transform="matrix(0.2078 0.9782 -0.9782 0.2078 138.8618 10.2286)" stroke="#000000" stroke-linecap="round" stroke-linejoin="round" stroke-miterlimit="10" width="6.984" height="40.043"/>
			
				<rect x="101.238" y="62.055" transform="matrix(0.0696 0.9976 -0.9976 0.0696 181.7227 -25.4785)" stroke="#000000" stroke-linecap="round" stroke-linejoin="round" stroke-miterlimit="10" width="6.566" height="45.257"/>
			
				<rect x="139.444" y="68.516" transform="matrix(-0.1392 0.9903 -0.9903 -0.1392 249.1555 -41.7573)" stroke="#000000" stroke-linecap="round" stroke-linejoin="round" stroke-miterlimit="10" width="6.566" height="37.79"/>
			
				<rect x="-16.533" y="67.901" transform="matrix(-0.1392 0.9903 -0.9903 -0.1392 70.8561 112.0001)" stroke="#000000" stroke-linecap="round" stroke-linejoin="round" stroke-miterlimit="10" width="6.566" height="37.79"/>
			
				<rect x="178.553" y="64.547" transform="matrix(0.1737 0.9848 -0.9848 0.1737 234.5551 -108.336)" stroke="#000000" stroke-linecap="round" stroke-linejoin="round" stroke-miterlimit="10" width="6.567" height="42.116"/>
			
				<rect x="219.525" y="58.066" transform="matrix(0.0872 0.9962 -0.9962 0.0872 283.7769 -148.2975)" stroke="#000000" stroke-linecap="round" stroke-linejoin="round" stroke-miterlimit="10" width="6.566" height="45.258"/>
			<g>
				<g>
					<g>
						<path d="M9.201,94.322c0,1.559-1.275,2.834-2.834,2.834H5.471c-1.559,0-2.834-1.275-2.834-2.834V54.734
							c0-1.559,1.275-2.834,2.834-2.834h0.896c1.559,0,2.834,1.275,2.834,2.834V94.322z"/>
						<path fill="none" stroke="#000000" stroke-linecap="round" stroke-linejoin="round" stroke-miterlimit="10" d="M9.201,94.322
							c0,1.559-1.275,2.834-2.834,2.834H5.471c-1.559,0-2.834-1.275-2.834-2.834V54.734c0-1.559,1.275-2.834,2.834-2.834h0.896
							c1.559,0,2.834,1.275,2.834,2.834V94.322z"/>
					</g>
					<g>
						<path d="M45.725,99.516c0,1.559-1.275,2.834-2.834,2.834h-0.897c-1.559,0-2.834-1.275-2.834-2.834v-39.59
							c0-1.559,1.275-2.834,2.834-2.834h0.897c1.559,0,2.834,1.275,2.834,2.834V99.516z"/>
						<path fill="none" stroke="#000000" stroke-linecap="round" stroke-linejoin="round" stroke-miterlimit="10" d="M45.725,99.516
							c0,1.559-1.275,2.834-2.834,2.834h-0.897c-1.559,0-2.834-1.275-2.834-2.834v-39.59c0-1.559,1.275-2.834,2.834-2.834h0.897
							c1.559,0,2.834,1.275,2.834,2.834V99.516z"/>
					</g>
					<g>
						<path d="M128.283,88.697c0,1.559-1.275,2.834-2.834,2.834h-0.897c-1.559,0-2.834-1.275-2.834-2.834v-39.59
							c0-1.559,1.275-2.834,2.834-2.834h0.897c1.559,0,2.834,1.275,2.834,2.834V88.697z"/>
						<path fill="none" stroke="#000000" stroke-linecap="round" stroke-linejoin="round" stroke-miterlimit="10" d="
							M128.283,88.697c0,1.559-1.275,2.834-2.834,2.834h-0.897c-1.559,0-2.834-1.275-2.834-2.834v-39.59
							c0-1.559,1.275-2.834,2.834-2.834h0.897c1.559,0,2.834,1.275,2.834,2.834V88.697z"/>
					</g>
					<g>
						<path d="M85.717,91.725c0,1.559-1.275,2.834-2.834,2.834h-0.896c-1.559,0-2.834-1.275-2.834-2.834V52.137
							c0-1.559,1.275-2.834,2.834-2.834h0.896c1.559,0,2.834,1.275,2.834,2.834V91.725z"/>
						<path fill="none" stroke="#000000" stroke-linecap="round" stroke-linejoin="round" stroke-miterlimit="10" d="M85.717,91.725
							c0,1.559-1.275,2.834-2.834,2.834h-0.896c-1.559,0-2.834-1.275-2.834-2.834V52.137c0-1.559,1.275-2.834,2.834-2.834h0.896
							c1.559,0,2.834,1.275,2.834,2.834V91.725z"/>
					</g>
					<g>
						<path d="M164.824,94.267c0,1.559-1.275,2.834-2.834,2.834h-0.897c-1.559,0-2.834-1.275-2.834-2.834v-39.59
							c0-1.559,1.275-2.834,2.834-2.834h0.897c1.559,0,2.834,1.275,2.834,2.834V94.267z"/>
						<path fill="none" stroke="#000000" stroke-linecap="round" stroke-linejoin="round" stroke-miterlimit="10" d="
							M164.824,94.267c0,1.559-1.275,2.834-2.834,2.834h-0.897c-1.559,0-2.834-1.275-2.834-2.834v-39.59
							c0-1.559,1.275-2.834,2.834-2.834h0.897c1.559,0,2.834,1.275,2.834,2.834V94.267z"/>
					</g>
					<g>
						<path d="M247.383,83.448c0,1.559-1.275,2.834-2.834,2.834h-0.897c-1.559,0-2.834-1.275-2.834-2.834v-39.59
							c0-1.559,1.275-2.834,2.834-2.834h0.897c1.559,0,2.834,1.275,2.834,2.834V83.448z"/>
						<path fill="none" stroke="#000000" stroke-linecap="round" stroke-linejoin="round" stroke-miterlimit="10" d="
							M247.383,83.448c0,1.559-1.275,2.834-2.834,2.834h-0.897c-1.559,0-2.834-1.275-2.834-2.834v-39.59
							c0-1.559,1.275-2.834,2.834-2.834h0.897c1.559,0,2.834,1.275,2.834,2.834V83.448z"/>
					</g>
					<g>
						<path d="M204.816,86.476c0,1.559-1.275,2.834-2.834,2.834h-0.897c-1.559,0-2.834-1.275-2.834-2.834V46.888
							c0-1.559,1.275-2.834,2.834-2.834h0.897c1.559,0,2.834,1.275,2.834,2.834V86.476z"/>
						<path fill="none" stroke="#000000" stroke-linecap="round" stroke-linejoin="round" stroke-miterlimit="10" d="
							M204.816,86.476c0,1.559-1.275,2.834-2.834,2.834h-0.897c-1.559,0-2.834-1.275-2.834-2.834V46.888
							c0-1.559,1.275-2.834,2.834-2.834h0.897c1.559,0,2.834,1.275,2.834,2.834V86.476z"/>
					</g>
				</g>
			</g>
		</g>
		<g clip-path="url(#SVGID_4_)">
			<g>
				<path fill="#FFFFFF" stroke="#000000" stroke-linecap="round" stroke-linejoin="round" stroke-miterlimit="10" d="
					M300.966,180.429c-0.008,0.001-21.072,4.687-21.072,4.687l19.352-26.688l-9.941,1.77l8.486-20.377
					c-0.244,0.47-0.652,0.998-1.209,1.579c-8.436,8.781-51.077,29.153-73.565,25.27c-31.941-5.506-69.615-17.63-55.564-49.432
					c9.654-21.857-1.752-42.19-21.213-44.104c-19.477-1.902-15.984,12.691-22.129,21.181c-6.158,8.482,1.551,19.83,1.551,19.83
					s21.443,1.51,12.203,11.445c-8.881,9.537-27.936,27.274-23.182,64.162c1.799,13.95,7.361,23.435,17.824,29.74
					c1.244,0.752,4.893,0.215,6.266,0.215c2.68-0.001,5.359,0,8.043,0c2.057,0,4.266-0.256,6.303-0.017
					c2.451,0.285,4.691,1.18,7.225,0.96c2.342-0.197,4.383-0.912,6.82-0.943c6.281-0.078,12.088-1.786,18.52-1.307
					c6.695,0.495,13.311,1.934,20.037,2.016c8.246,0.1,16.643,0.171,24.82-0.235c3.85-0.19,7.697-0.44,11.549-0.414
					c1.953,0.015,3.891,0.083,5.816,0.395c2.925,0.467,4.224-0.22,6.999-1.611c12.639-6.347,24.189-14.845,34.262-24.757
					c3.105-3.056,6.082-6.251,8.861-9.607C298.515,183.598,300.206,180.599,300.966,180.429z"/>
			</g>
			<path fill="#8A8989" stroke="#000000" stroke-linecap="round" stroke-linejoin="round" stroke-miterlimit="10" d="
				M122.951,95.543c0,0-11.588,7.694-25.449,8.295c-4.225,0.687-5.201,2.085-5.201,3.799c-0.002,2.168,7.738,3.759,12.75,3.848
				c5.008,0.101,22.926,2.894,23.736,3.088c0.428,0.094-1.426-4.639-1.457-9.541C127.289,100.135,122.951,95.543,122.951,95.543z"/>
			<path fill="none" stroke="#000000" stroke-linecap="round" stroke-linejoin="round" stroke-miterlimit="10" d="M150.934,177.87
				c7.068,30.669,64.375,37.596,80.029,11.072l-9.5,0.712l4.143-5.78l-18.326,3.591l3.707-4.468c0,0-12.844,1.4-21.523-4.482"/>
			<g>
				<path fill="#FFFFFF" stroke="#000000" stroke-linecap="round" stroke-linejoin="round" stroke-miterlimit="10" d="
					M144.789,94.225c0.203,3.933-1.482,7.214-3.762,7.328c-2.275,0.118-4.287-2.976-4.484-6.908c-0.201-3.931,1.48-7.212,3.76-7.327
					S144.59,90.293,144.789,94.225z"/>
				<path stroke="#000000" stroke-linecap="round" stroke-linejoin="round" stroke-miterlimit="10" d="M142.672,99.149
					c0.064,1.249-0.672,2.302-1.648,2.352c-0.971,0.05-1.809-0.925-1.875-2.173c-0.064-1.251,0.672-2.305,1.645-2.354
					S142.611,97.9,142.672,99.149z"/>
			</g>
		</g>
		<g clip-path="url(#SVGID_4_)">
			<path fill="#FFFFFF" stroke="#000000" stroke-linecap="round" stroke-linejoin="round" stroke-miterlimit="10" d="M3.184,213.355
				c0.145,0.289,0.396,0.609,0.736,0.966c5.152,5.365,31.207,17.814,44.949,15.443c19.518-3.365,42.537-10.774,33.953-30.208
				c-5.9-13.357,1.07-25.778,12.965-26.95c11.896-1.162,9.764,7.757,13.52,12.943c3.76,5.184-0.947,12.12-0.947,12.12
				s-13.104,0.923-7.457,6.993c5.426,5.825,17.068,16.666,14.164,39.205c-0.898,6.979-3.781,13.364-9.709,17.431
				c-3.275,2.249-6.188,3.412-10.064,3.556c-4.402,0.164-8.785,1.974-13.195,0.894c-2.342-0.577-3.832-1.453-6.375-0.795
				c-2.748,0.718-4.682,1.602-7.602,1.88c-2.639,0.251-5.332,0.288-8.041,0.264c-2.811-0.026-4.865-1.463-7.514-1.404
				c-2.479,0.058-4.715,1.04-7.258,0.867c-11.488-0.781-23.164-8.331-31.861-15.663c-3.27-2.759-6.354-5.746-9.17-8.969
				c-0.52-0.597-2.264-3.587-3.039-3.758c0.008,0.002,12.879,2.863,12.879,2.863L2.291,224.725l6.07,1.085L3.184,213.355z"/>
			<path fill="#8A8989" stroke="#000000" stroke-linecap="round" stroke-linejoin="round" stroke-miterlimit="10" d="M110.018,186.3
				c0,0,7.07,5.069,15.549,5.069c1.803,0,2.611,1.138,2.689,2.323c0.08,1.19-4.24,2.296-7.305,2.349
				c-3.061,0.063-14.502,1.889-14.502,1.889C111.744,192.841,110.018,186.3,110.018,186.3z"/>
			<path fill="none" stroke="#000000" stroke-linecap="round" stroke-linejoin="round" stroke-miterlimit="10" d="M49.158,251.155
				c19.318,9.082,38.9,2.399,44.248-12.906"/>
			<g>
				<path stroke="#000000" stroke-linecap="round" stroke-linejoin="round" stroke-miterlimit="10" d="M102.404,184.96
					c-0.045,0.611-0.574,1.058-1.174,1.011c-0.604-0.048-1.059-0.577-1.014-1.181c0.049-0.6,0.582-1.049,1.184-1.001
					C102,183.836,102.453,184.36,102.404,184.96z"/>
			</g>
		</g>
		<g clip-path="url(#SVGID_4_)">
			<path stroke="#000000" stroke-linecap="round" stroke-linejoin="round" stroke-miterlimit="10" d="M232.453,268.631
				c-0.16-0.007-0.322-0.031-0.482-0.077c-1.063-0.306-1.674-1.415-1.367-2.477c10.842-37.607,3.553-76.201-3.498-113.525
				l-0.998-5.301c-0.205-1.086,0.51-2.131,1.596-2.335c1.094-0.207,2.131,0.512,2.334,1.596l1,5.298
				c7.137,37.783,14.516,76.854,3.41,115.376C234.188,268.087,233.348,268.664,232.453,268.631z"/>
			<path stroke="#000000" stroke-linecap="round" stroke-linejoin="round" stroke-miterlimit="10" d="M239.008,145.308
				l-12.424-79.564c-0.854-5.452-5.42-9.397-10.719-9.664l-1.381-8.833c-0.35-2.243-1.543-3.919-2.664-3.743
				c-1.121,0.174-1.746,2.135-1.395,4.377l1.365,8.742c-5.283,1.687-8.699,7.003-7.816,12.65l12.424,79.564
				c0.975,6.244,6.824,10.516,13.066,9.542C235.711,157.404,239.982,151.551,239.008,145.308z"/>
			<path fill="#B9B8B8" stroke="#000000" stroke-linecap="round" stroke-linejoin="round" stroke-miterlimit="10" d="
				M235.455,271.688c0,0-0.629-197.307,6.24-197.307c6.867,0.008,7.479,197.313,7.479,197.313L235.455,271.688z"/>
			<path fill="#B9B8B8" stroke="#000000" stroke-linecap="round" stroke-linejoin="round" stroke-miterlimit="10" d="
				M238.221,299.544c0,0-21.945-128.967-18.828-128.967c3.119,0,33.659,126.038,33.659,126.038L238.221,299.544z"/>
			<path fill="#B9B8B8" stroke="#000000" stroke-linecap="round" stroke-linejoin="round" stroke-miterlimit="10" d="
				M234.152,269.126c0,0,33.638-240.186,41.995-238.985c8.355,1.202-25.301,241.385-25.301,241.385L234.152,269.126z"/>
		</g>
		<g clip-path="url(#SVGID_4_)">
			<path stroke="#000000" stroke-linecap="round" stroke-linejoin="round" stroke-miterlimit="10" d="M9.664,255.129
				c0.072,0,0.145-0.009,0.219-0.026c0.48-0.12,0.773-0.606,0.654-1.088c-4.234-17.044-0.322-34.229,3.461-50.848l0.535-2.359
				c0.109-0.484-0.193-0.964-0.676-1.074c-0.486-0.111-0.965,0.194-1.074,0.677l-0.535,2.359c-3.83,16.823-7.791,34.22-3.453,51.678
				C8.896,254.856,9.262,255.129,9.664,255.129z"/>
			<path stroke="#000000" stroke-linecap="round" stroke-linejoin="round" stroke-miterlimit="10" d="M7.855,199.848l5.574-35.702
				c0.383-2.446,2.432-4.217,4.809-4.337l0.619-3.963c0.158-1.007,0.693-1.759,1.197-1.68c0.502,0.078,0.783,0.958,0.625,1.964
				l-0.613,3.923c2.371,0.757,3.904,3.143,3.508,5.676L18,201.431c-0.438,2.802-3.063,4.719-5.863,4.282
				C9.334,205.275,7.418,202.648,7.855,199.848z"/>
			<path fill="#B9B8B8" stroke="#000000" stroke-linecap="round" stroke-linejoin="round" stroke-miterlimit="10" d="M9.449,256.557
				c0,0,0.281-88.535-2.801-88.535c-3.082,0.004-3.355,88.538-3.355,88.538L9.449,256.557z"/>
			<path fill="#B9B8B8" stroke="#000000" stroke-linecap="round" stroke-linejoin="round" stroke-miterlimit="10" d="M6.57,278.884
				c0,0-15.094-107.775-18.844-107.236S-0.922,279.961-0.922,279.961L6.57,278.884z"/>
			<path fill="#B9B8B8" stroke="#000000" stroke-linecap="round" stroke-linejoin="round" stroke-miterlimit="10" d="
				M10.074,254.222c0,0,12.535-53.17,10.684-53.601c-1.854-0.429-14.383,52.741-14.383,52.741L10.074,254.222z"/>
		</g>
		<g clip-path="url(#SVGID_4_)">
			<g>
				<path stroke="#000000" stroke-linecap="round" stroke-linejoin="round" stroke-miterlimit="10" d="M27.342,276.568
					c0.057-0.003,0.111-0.011,0.166-0.027c0.363-0.107,0.57-0.486,0.465-0.85c-3.768-12.852-1.334-26.068,1.02-38.852l0.334-1.816
					c0.068-0.371-0.178-0.727-0.549-0.796c-0.375-0.07-0.729,0.179-0.797,0.549l-0.334,1.815c-2.383,12.94-4.848,26.32-0.988,39.484
					C26.75,276.385,27.037,276.581,27.342,276.568z"/>
				<path stroke="#000000" stroke-linecap="round" stroke-linejoin="round" stroke-miterlimit="10" d="M24.33,235.101l3.113-27.38
					c0.213-1.876,1.719-3.29,3.525-3.457l0.346-3.039c0.088-0.772,0.473-1.362,0.857-1.318c0.387,0.044,0.629,0.706,0.541,1.478
					l-0.344,3.008c1.832,0.501,3.074,2.27,2.854,4.214l-3.113,27.379c-0.242,2.148-2.184,3.692-4.33,3.449
					C25.631,239.189,24.086,237.249,24.33,235.101z"/>
			</g>
			<path fill="#B9B8B8" stroke="#000000" stroke-linecap="round" stroke-linejoin="round" stroke-miterlimit="10" d="
				M21.568,316.861c0,0,0.34-106.616-3.371-106.616c-3.711,0.005-4.041,106.619-4.041,106.619L21.568,316.861z"/>
			<path fill="#B9B8B8" stroke="#000000" stroke-linecap="round" stroke-linejoin="round" stroke-miterlimit="10" d="
				M15.717,296.349c0,0-24.258-173.212-30.285-172.346S3.676,298.08,3.676,298.08L15.717,296.349z"/>
			<path fill="#B9B8B8" stroke="#000000" stroke-linecap="round" stroke-linejoin="round" stroke-miterlimit="10" d="
				M26.707,311.049c0,0-14.961-81.995-16.145-81.995c-1.182,0,1.734,82.245,1.734,82.245L26.707,311.049z"/>
			<path fill="#B9B8B8" stroke="#000000" stroke-linecap="round" stroke-linejoin="round" stroke-miterlimit="10" d="
				M23.572,296.445c0,0,12.537-53.17,10.686-53.601c-1.854-0.429-14.385,52.741-14.385,52.741L23.572,296.445z"/>
		</g>
		
			<path clip-path="url(#SVGID_4_)" fill="#B9B8B8" stroke="#000000" stroke-linecap="round" stroke-linejoin="round" stroke-miterlimit="10" d="
			M210.725,328.615c0,0-16.764-120.582-12.564-121.151c4.197-0.567,20.953,120.015,20.953,120.015L210.725,328.615z"/>
		
			<path clip-path="url(#SVGID_4_)" fill="#B9B8B8" stroke="#000000" stroke-linecap="round" stroke-linejoin="round" stroke-miterlimit="10" d="
			M209.045,351.3c0,0,3.002-121.706,7.24-121.587c4.234,0.121,1.221,121.824,1.221,121.824L209.045,351.3z"/>
		
			<path clip-path="url(#SVGID_4_)" fill="#B9B8B8" stroke="#000000" stroke-linecap="round" stroke-linejoin="round" stroke-miterlimit="10" d="
			M200.732,366.531c0,0-16.031-120.683-11.826-121.227c4.201-0.541,20.219,120.14,20.219,120.14L200.732,366.531z"/>
		<g clip-path="url(#SVGID_4_)">
			<g>
				<polyline fill="none" stroke="#000000" stroke-linecap="round" stroke-linejoin="round" stroke-miterlimit="10" points="
					145.262,37.418 145.322,41.033 143.682,41.125 				"/>
				<polyline fill="none" stroke="#000000" stroke-linecap="round" stroke-linejoin="round" stroke-miterlimit="10" points="
					141.641,36.63 141.703,40.244 140.061,40.337 				"/>
				<path fill="#706F6F" stroke="#000000" stroke-linecap="round" stroke-linejoin="round" stroke-miterlimit="10" d="
					M153.375,30.645c-0.818,0.752-4.818,2.373-6.848,1.895c-2.883-0.682-6.25-1.996-4.791-4.816c1.002-1.94,0.516-3.865-1.246-4.148
					c-1.766-0.282-1.973,1.076-2.58,1.815c-0.607,0.741,0.031,1.817,0.031,1.817s1.947,0.258,1.051,1.11
					c-0.863,0.821-2.699,2.331-2.471,5.724c0.201,3.01,4.947,5.04,7.104,5.004c5.787-0.1,9.932-4.819,9.932-4.819l-1.945-0.54
					C151.611,33.686,153.43,30.594,153.375,30.645z"/>
				<path fill="#8A8989" stroke="#000000" stroke-linecap="round" stroke-linejoin="round" stroke-miterlimit="10" d="
					M137.879,25.495c0,0-1.73,0.867-1.721,1.354c0.008,0.486,2.074,0.391,2.148,0.412c0.037,0.012-0.002-0.453-0.082-0.877
					C138.145,25.96,137.879,25.495,137.879,25.495z"/>
				<path fill="none" stroke="#000000" stroke-linecap="round" stroke-linejoin="round" stroke-miterlimit="10" d="M146.289,35.728
					c-2.965,1.181-5.146-0.386-5.631-2.276"/>
				<g>
					
						<rect x="139.801" y="25.462" stroke="#000000" stroke-linecap="round" stroke-linejoin="round" stroke-miterlimit="10" width="0" height="0"/>
				</g>
			</g>
			<g>
				<polyline fill="none" stroke="#000000" stroke-linecap="round" stroke-linejoin="round" stroke-miterlimit="10" points="
					75.961,36.191 76.311,39.789 74.684,40.012 				"/>
				<polyline fill="none" stroke="#000000" stroke-linecap="round" stroke-linejoin="round" stroke-miterlimit="10" points="
					72.291,35.693 72.639,39.291 71.012,39.515 				"/>
				<path fill="#E7E7E7" stroke="#000000" stroke-linecap="round" stroke-linejoin="round" stroke-miterlimit="10" d="
					M83.617,28.645c-0.021,0.043-0.057,0.092-0.107,0.147c-0.756,0.815-4.615,2.749-6.674,2.435c-2.93-0.449-6.391-1.49-5.162-4.42
					c0.846-2.014,0.207-3.895-1.572-4.035c-1.783-0.141-1.879,1.23-2.426,2.016c-0.547,0.787,0.176,1.809,0.176,1.809
					s1.961,0.103,1.135,1.023c-0.795,0.887-2.504,2.539-2.006,5.902c0.441,2.986,5.334,4.629,7.479,4.421
					c5.76-0.56,9.518-5.595,9.518-5.595l-2.414-0.008L83.617,28.645z"/>
				<path fill="#8A8989" stroke="#000000" stroke-linecap="round" stroke-linejoin="round" stroke-miterlimit="10" d="M67.65,24.895
					c0,0-1.654,1.003-1.605,1.487c0.045,0.484,2.098,0.224,2.174,0.241c0.039,0.008-0.037-0.453-0.15-0.869
					C67.953,25.337,67.65,24.895,67.65,24.895z"/>
				<path fill="none" stroke="#000000" stroke-linecap="round" stroke-linejoin="round" stroke-miterlimit="10" d="M76.852,34.423
					c-2.861,1.413-5.16,0.027-5.795-1.82"/>
				<g>
					
						<rect x="69.564" y="24.709" stroke="#000000" stroke-linecap="round" stroke-linejoin="round" stroke-miterlimit="10" width="0" height="0"/>
				</g>
			</g>
			<g>
				<polyline fill="none" stroke="#000000" stroke-linecap="round" stroke-linejoin="round" stroke-miterlimit="10" points="
					100.574,34.003 101.057,37.585 99.436,37.867 				"/>
				<polyline fill="none" stroke="#000000" stroke-linecap="round" stroke-linejoin="round" stroke-miterlimit="10" points="
					96.889,33.641 97.367,37.223 95.75,37.506 				"/>
				<path fill="#E7E7E7" stroke="#000000" stroke-linecap="round" stroke-linejoin="round" stroke-miterlimit="10" d="
					M107.947,26.18c-0.02,0.044-0.055,0.094-0.102,0.152c-0.727,0.842-4.51,2.916-6.58,2.676c-2.943-0.34-6.441-1.254-5.322-4.227
					c0.773-2.043,0.066-3.899-1.717-3.975c-1.787-0.076-1.834,1.299-2.352,2.105c-0.52,0.805,0.242,1.799,0.242,1.799
					s1.965,0.03,1.172,0.981c-0.76,0.915-2.408,2.629-1.789,5.972c0.553,2.967,5.5,4.432,7.639,4.143
					c5.734-0.77,9.305-5.939,9.305-5.939l-1.977-0.227L107.947,26.18z"/>
				<path fill="#8A8989" stroke="#000000" stroke-linecap="round" stroke-linejoin="round" stroke-miterlimit="10" d="
					M91.854,23.018c0,0-1.615,1.063-1.551,1.546c0.066,0.482,2.105,0.147,2.182,0.161c0.039,0.006-0.053-0.451-0.182-0.863
					S91.854,23.018,91.854,23.018z"/>
				<path fill="none" stroke="#000000" stroke-linecap="round" stroke-linejoin="round" stroke-miterlimit="10" d="M101.398,32.201
					c-2.807,1.52-5.156,0.219-5.857-1.604"/>
				<g>
					
						<rect x="93.762" y="22.762" stroke="#000000" stroke-linecap="round" stroke-linejoin="round" stroke-miterlimit="10" width="0" height="0"/>
				</g>
			</g>
			<g>
				<polyline fill="none" stroke="#000000" stroke-linecap="round" stroke-linejoin="round" stroke-miterlimit="10" points="
					43.203,43.697 43.512,50.806 40.289,51.072 				"/>
				<polyline fill="none" stroke="#000000" stroke-linecap="round" stroke-linejoin="round" stroke-miterlimit="10" points="
					36.037,42.333 36.348,49.442 33.123,49.709 				"/>
				<path fill="#E7E7E7" stroke="#000000" stroke-linecap="round" stroke-linejoin="round" stroke-miterlimit="10" d="
					M59.041,29.665c-0.045,0.084-0.119,0.176-0.225,0.28c-1.572,1.522-9.359,4.918-13.375,4.084
					C39.73,32.84,33.035,30.428,35.76,24.8c1.873-3.87,0.816-7.634-2.668-8.099c-3.486-0.462-3.82,2.222-4.979,3.707
					c-1.16,1.49,0.156,3.574,0.156,3.574s3.842,0.407,2.123,2.131c-1.656,1.66-5.188,4.729-4.564,11.391
					c0.555,5.914,9.998,9.66,14.238,9.476c11.381-0.495,19.295-9.998,19.295-9.998l-3.813,0.713l3.639-4.676l-1.797,0.257
					L59.041,29.665z"/>
				<path fill="#8A8989" stroke="#000000" stroke-linecap="round" stroke-linejoin="round" stroke-miterlimit="10" d="
					M28.053,20.616c0,0-3.355,1.801-3.314,2.755c0.041,0.958,4.102,0.664,4.248,0.703c0.074,0.02-0.023-0.893-0.205-1.723
					C28.602,21.519,28.053,20.616,28.053,20.616z"/>
				<path fill="none" stroke="#000000" stroke-linecap="round" stroke-linejoin="round" stroke-miterlimit="10" d="M45.139,40.314
					c-5.775,2.478-10.15-0.488-11.201-4.188"/>
				<g>
					
						<rect x="31.834" y="20.452" stroke="#000000" stroke-linecap="round" stroke-linejoin="round" stroke-miterlimit="10" width="0" height="0"/>
				</g>
			</g>
		</g>
	</g>
</g>
<g id="Layer_2">
</g>
</svg>
