<?xml version="1.0" encoding="utf-8"?>
<!-- Generator: Adobe Illustrator 16.0.0, SVG Export Plug-In . SVG Version: 6.00 Build 0)  -->
<!DOCTYPE svg PUBLIC "-//W3C//DTD SVG 1.1//EN" "http://www.w3.org/Graphics/SVG/1.1/DTD/svg11.dtd">
<svg version="1.1" xmlns="http://www.w3.org/2000/svg" xmlns:xlink="http://www.w3.org/1999/xlink" x="0px" y="0px" width="250px"
	 height="250px" viewBox="0 0 250 250" enable-background="new 0 0 250 250" xml:space="preserve">
<g id="BG">
</g>
<g id="Layer_1">
	<g>
		<defs>
			<rect id="SVGID_1_" x="-300" y="-300" width="250" height="250"/>
		</defs>
		<clipPath id="SVGID_2_">
			<use xlink:href="#SVGID_1_"  overflow="visible"/>
		</clipPath>
	</g>
	<g>
		<defs>
			<rect id="SVGID_7_" width="250" height="250"/>
		</defs>
		<clipPath id="SVGID_4_">
			<use xlink:href="#SVGID_7_"  overflow="visible"/>
		</clipPath>
		
			<rect x="-7.219" y="-9.515" clip-path="url(#SVGID_4_)" fill="#EDEDED" stroke="#000000" stroke-linecap="round" stroke-linejoin="round" stroke-miterlimit="10" width="270.707" height="261.267"/>
		
			<rect x="-8.293" y="180.198" clip-path="url(#SVGID_4_)" fill="#CCCCCC" stroke="#000000" stroke-linecap="round" stroke-linejoin="round" stroke-miterlimit="10" width="270.707" height="76.737"/>
		<g clip-path="url(#SVGID_4_)">
			<g>
				
					<rect x="40.541" y="31.682" transform="matrix(-0.9936 0.1127 -0.1127 -0.9936 99.938 111.868)" fill-rule="evenodd" clip-rule="evenodd" fill="#8A8989" stroke="#000000" stroke-linecap="round" stroke-linejoin="round" stroke-miterlimit="10" width="12.534" height="54.152"/>
				
					<rect x="41.013" y="36.315" transform="matrix(-0.9936 0.1126 -0.1126 -0.9936 94.0765 77.6137)" fill-rule="evenodd" clip-rule="evenodd" fill="#D8D8D8" stroke="#000000" stroke-linecap="round" stroke-linejoin="round" stroke-miterlimit="10" width="7.666" height="10.298"/>
				<g>
					<path d="M49.969,71.641l0.317,2.576l1.771,0.305l0.116,0.947l-7.07-1.346l-0.146-1.186l6.535-3.008l0.121,0.986L49.969,71.641z
						 M49.237,71.961l-3.425,1.494l3.686,0.629L49.237,71.961z"/>
					<path d="M47.985,70.08l-0.554-4.5l0.771-0.096l0.553,4.502L47.985,70.08z"/>
					<path d="M44.271,61.064l5.656,2.721l-0.414-3.367l0.813,0.012l0.529,4.305l-0.751,0.092l-5.68-2.748l0.374,3.039l-0.789,0.098
						l-0.499-4.059L44.271,61.064z"/>
				</g>
			</g>
			<g>
				
					<rect x="53.636" y="40.181" transform="matrix(-0.9936 0.1129 -0.1129 -0.9936 123.589 119.1623)" fill-rule="evenodd" clip-rule="evenodd" fill="#C8C8C8" stroke="#000000" stroke-linecap="round" stroke-linejoin="round" stroke-miterlimit="10" width="9.571" height="45.796"/>
				
					<rect x="55.312" y="45.243" transform="matrix(-0.9936 0.1126 -0.1126 -0.9936 120.1162 98.9522)" fill-rule="evenodd" clip-rule="evenodd" fill="#9B9B9A" stroke="#000000" stroke-linecap="round" stroke-linejoin="round" stroke-miterlimit="10" width="3.903" height="15.25"/>
			</g>
			<g>
				
					<rect x="6.333" y="28.193" fill-rule="evenodd" clip-rule="evenodd" fill="#7C7C7B" stroke="#000000" stroke-linecap="round" stroke-linejoin="round" stroke-miterlimit="10" width="15.017" height="58.174"/>
				<g>
					
						<polygon fill-rule="evenodd" clip-rule="evenodd" fill="#FDFDFD" stroke="#000000" stroke-linecap="round" stroke-linejoin="round" stroke-miterlimit="10" points="
						9.13,77.342 18.552,81.387 18.552,79.369 9.13,75.324 					"/>
					
						<polygon fill-rule="evenodd" clip-rule="evenodd" fill="#FDFDFD" stroke="#000000" stroke-linecap="round" stroke-linejoin="round" stroke-miterlimit="10" points="
						9.13,73.51 18.552,77.555 18.552,75.537 9.13,71.492 					"/>
					
						<polygon fill-rule="evenodd" clip-rule="evenodd" fill="#FDFDFD" stroke="#000000" stroke-linecap="round" stroke-linejoin="round" stroke-miterlimit="10" points="
						9.13,69.678 18.552,73.723 18.552,71.705 9.13,67.658 					"/>
					
						<polygon fill-rule="evenodd" clip-rule="evenodd" fill="#FDFDFD" stroke="#000000" stroke-linecap="round" stroke-linejoin="round" stroke-miterlimit="10" points="
						9.13,65.846 18.552,69.891 18.552,67.873 9.13,63.828 					"/>
					
						<polygon fill-rule="evenodd" clip-rule="evenodd" fill="#FDFDFD" stroke="#000000" stroke-linecap="round" stroke-linejoin="round" stroke-miterlimit="10" points="
						9.13,62.014 18.552,66.059 18.552,64.041 9.13,59.996 					"/>
					
						<polygon fill-rule="evenodd" clip-rule="evenodd" fill="#FDFDFD" stroke="#000000" stroke-linecap="round" stroke-linejoin="round" stroke-miterlimit="10" points="
						9.13,58.182 18.552,62.229 18.552,60.209 9.13,56.164 					"/>
					
						<polygon fill-rule="evenodd" clip-rule="evenodd" fill="#FDFDFD" stroke="#000000" stroke-linecap="round" stroke-linejoin="round" stroke-miterlimit="10" points="
						9.13,54.352 18.552,58.396 18.552,56.379 9.13,52.334 					"/>
					
						<polygon fill-rule="evenodd" clip-rule="evenodd" fill="#FDFDFD" stroke="#000000" stroke-linecap="round" stroke-linejoin="round" stroke-miterlimit="10" points="
						9.13,50.52 18.552,54.564 18.552,52.547 9.13,48.501 					"/>
					
						<polygon fill-rule="evenodd" clip-rule="evenodd" fill="#FDFDFD" stroke="#000000" stroke-linecap="round" stroke-linejoin="round" stroke-miterlimit="10" points="
						9.13,46.688 18.552,50.732 18.552,48.715 9.13,44.67 					"/>
					
						<polygon fill-rule="evenodd" clip-rule="evenodd" fill="#FDFDFD" stroke="#000000" stroke-linecap="round" stroke-linejoin="round" stroke-miterlimit="10" points="
						9.13,42.855 18.552,46.9 18.552,44.883 9.13,40.838 					"/>
					
						<polygon fill-rule="evenodd" clip-rule="evenodd" fill="#FDFDFD" stroke="#000000" stroke-linecap="round" stroke-linejoin="round" stroke-miterlimit="10" points="
						9.13,39.023 18.552,43.07 18.552,41.052 9.13,37.006 					"/>
					
						<polygon fill-rule="evenodd" clip-rule="evenodd" fill="#FDFDFD" stroke="#000000" stroke-linecap="round" stroke-linejoin="round" stroke-miterlimit="10" points="
						9.13,35.191 18.552,39.237 18.552,37.219 9.13,33.174 					"/>
				</g>
			</g>
			<g>
				
					<rect x="21.35" y="40.572" fill-rule="evenodd" clip-rule="evenodd" fill="#BEBEBE" stroke="#000000" stroke-linecap="round" stroke-linejoin="round" stroke-miterlimit="10" width="9.572" height="45.795"/>
				
					<rect x="21.35" y="40.572" fill-rule="evenodd" clip-rule="evenodd" fill="#8A8989" stroke="#000000" stroke-linecap="round" stroke-linejoin="round" stroke-miterlimit="10" width="9.572" height="4.244"/>
			</g>
			<g>
				
					<rect x="30.922" y="15.502" fill-rule="evenodd" clip-rule="evenodd" fill="#FFFFFF" stroke="#000000" stroke-linecap="round" stroke-linejoin="round" stroke-miterlimit="10" width="6.267" height="70.865"/>
			</g>
		</g>
		<g clip-path="url(#SVGID_4_)">
			
				<rect x="-4.736" y="86.051" fill="#3C3C3B" stroke="#000000" stroke-linecap="round" stroke-linejoin="round" stroke-miterlimit="10" width="76.967" height="6.145"/>
		</g>
		<g clip-path="url(#SVGID_4_)">
			<g>
				
					<rect x="221.038" y="-12.47" fill-rule="evenodd" clip-rule="evenodd" fill="#7C7C7B" stroke="#000000" stroke-linecap="round" stroke-linejoin="round" stroke-miterlimit="10" width="15.017" height="58.175"/>
				<g>
					
						<polygon fill-rule="evenodd" clip-rule="evenodd" fill="#FDFDFD" stroke="#000000" stroke-linecap="round" stroke-linejoin="round" stroke-miterlimit="10" points="
						233.258,36.678 223.836,40.723 223.836,38.705 233.258,34.66 					"/>
					
						<polygon fill-rule="evenodd" clip-rule="evenodd" fill="#FDFDFD" stroke="#000000" stroke-linecap="round" stroke-linejoin="round" stroke-miterlimit="10" points="
						233.258,32.846 223.836,36.891 223.836,34.873 233.258,30.83 					"/>
					
						<polygon fill-rule="evenodd" clip-rule="evenodd" fill="#FDFDFD" stroke="#000000" stroke-linecap="round" stroke-linejoin="round" stroke-miterlimit="10" points="
						233.258,29.016 223.836,33.061 223.836,31.043 233.258,26.996 					"/>
					
						<polygon fill-rule="evenodd" clip-rule="evenodd" fill="#FDFDFD" stroke="#000000" stroke-linecap="round" stroke-linejoin="round" stroke-miterlimit="10" points="
						233.258,25.184 223.836,29.229 223.836,27.211 233.258,23.164 					"/>
					
						<polygon fill-rule="evenodd" clip-rule="evenodd" fill="#FDFDFD" stroke="#000000" stroke-linecap="round" stroke-linejoin="round" stroke-miterlimit="10" points="
						233.258,21.352 223.836,25.396 223.836,23.379 233.258,19.334 					"/>
					
						<polygon fill-rule="evenodd" clip-rule="evenodd" fill="#FDFDFD" stroke="#000000" stroke-linecap="round" stroke-linejoin="round" stroke-miterlimit="10" points="
						233.258,17.52 223.836,21.564 223.836,19.547 233.258,15.502 					"/>
					
						<polygon fill-rule="evenodd" clip-rule="evenodd" fill="#FDFDFD" stroke="#000000" stroke-linecap="round" stroke-linejoin="round" stroke-miterlimit="10" points="
						233.258,13.688 223.836,17.734 223.836,15.715 233.258,11.67 					"/>
					
						<polygon fill-rule="evenodd" clip-rule="evenodd" fill="#FDFDFD" stroke="#000000" stroke-linecap="round" stroke-linejoin="round" stroke-miterlimit="10" points="
						233.258,9.855 223.836,13.902 223.836,11.883 233.258,7.838 					"/>
					
						<polygon fill-rule="evenodd" clip-rule="evenodd" fill="#FDFDFD" stroke="#000000" stroke-linecap="round" stroke-linejoin="round" stroke-miterlimit="10" points="
						233.258,6.024 223.836,10.069 223.836,8.052 233.258,4.006 					"/>
					
						<polygon fill-rule="evenodd" clip-rule="evenodd" fill="#FDFDFD" stroke="#000000" stroke-linecap="round" stroke-linejoin="round" stroke-miterlimit="10" points="
						233.258,2.193 223.836,6.238 223.836,4.221 233.258,0.174 					"/>
					
						<polygon fill-rule="evenodd" clip-rule="evenodd" fill="#FDFDFD" stroke="#000000" stroke-linecap="round" stroke-linejoin="round" stroke-miterlimit="10" points="
						233.258,-1.64 223.836,2.406 223.836,0.389 233.258,-3.657 					"/>
				</g>
			</g>
			<g>
				
					<rect x="236.056" y="-1.76" fill-rule="evenodd" clip-rule="evenodd" fill="#D8D8D8" stroke="#000000" stroke-linecap="round" stroke-linejoin="round" stroke-miterlimit="10" width="9.572" height="47.465"/>
				
					<rect x="236.056" y="41.305" fill-rule="evenodd" clip-rule="evenodd" fill="#BEBEBE" stroke="#000000" stroke-linecap="round" stroke-linejoin="round" stroke-miterlimit="10" width="9.572" height="4.4"/>
			</g>
			<g>
				
					<rect x="245.628" y="-25.161" fill-rule="evenodd" clip-rule="evenodd" fill="#FFFFFF" stroke="#000000" stroke-linecap="round" stroke-linejoin="round" stroke-miterlimit="10" width="6.267" height="70.866"/>
			</g>
		</g>
		<g clip-path="url(#SVGID_4_)">
			
				<rect x="211.26" y="45.388" fill="#3C3C3B" stroke="#000000" stroke-linecap="round" stroke-linejoin="round" stroke-miterlimit="10" width="82.779" height="6.145"/>
		</g>
		<g clip-path="url(#SVGID_4_)">
			
				<rect x="51.495" y="155.524" transform="matrix(0.9771 0.213 -0.213 0.9771 42.1005 -7.5258)" fill="#525251" stroke="#000000" stroke-linecap="round" stroke-linejoin="round" stroke-miterlimit="10" width="8.968" height="72.227"/>
			<polygon fill="#F0F0F0" stroke="#000000" stroke-linecap="round" stroke-linejoin="round" stroke-miterlimit="10" points="
				66.03,145.561 67.037,151.461 68.047,157.359 63.665,156.402 59.283,155.447 62.656,150.504 			"/>
			<polygon stroke="#000000" stroke-linecap="round" stroke-linejoin="round" stroke-miterlimit="10" points="66.03,145.561 
				66.434,147.92 66.838,150.279 65.084,149.896 63.331,149.516 64.681,147.537 			"/>
		</g>
		
			<path clip-path="url(#SVGID_4_)" fill="none" stroke="#000000" stroke-linecap="round" stroke-linejoin="round" stroke-miterlimit="10" d="
			M138.002,177.611"/>
		
			<path clip-path="url(#SVGID_4_)" fill="#C2C2C2" stroke="#000000" stroke-linecap="round" stroke-linejoin="round" stroke-miterlimit="10" d="
			M264.085,242.338c-27.817-29.564-53.912-58.369-63.924-62.855c-13.978-6.268-26.266-9.52-38.262-13.053
			c0,0,0.491-10.58,1.847-10.693c39.148-3.287,43.686-34.461,43.686-34.461s8.1,2.104,12.054-7.732
			c3.96-9.838-5.421-14.172-8.969-13.107c0,0-0.171-0.109-0.518-0.281c-16.063-8.004-7.304-52.289-48.368-51.539
			c-4.268,0.078-8.273,0.346-12.066,0.769c-3.794-0.423-7.8-0.69-12.066-0.769C96.433,47.865,106.267,90,90.205,98.004
			c-0.348,0.172-0.52,0.281-0.52,0.281c-3.546-1.064-12.928,4.346-8.967,14.184c3.953,9.836,12.054,6.656,12.054,6.656
			s3.409,32.035,40.604,36.398c1.97,0.23,5.982,7.498,5.982,7.498c-13.011,3.83-27.112,10.508-40.394,16.461
			c-10.011,4.486-36.104,33.291-63.923,62.855c-32.7,0.676,23.292,28.436,30.495,19.08c7.196-9.355,39.117-41.867,38.924-35.49
			c-0.091,2.99,11.202,15.563,13.022,35.988c2.074,23.205-4.688,37.121-3.775,44.504c0.637,5.176,16.371,4.969,35.855,2.678
			c19.484,2.291,35.219,2.498,35.855-2.678c0.911-7.383-5.85-21.299-3.775-44.504c1.82-20.426,13.113-32.998,13.021-35.988
			c-0.193-6.377,31.729,26.135,38.923,35.49C240.793,270.773,296.785,243.014,264.085,242.338z"/>
		
			<path clip-path="url(#SVGID_4_)" fill="#B9B8B8" stroke="#000000" stroke-linecap="round" stroke-linejoin="round" stroke-miterlimit="10" d="
			M227.488,225.32l-1.791-40.996c-7.885-14.471-60.572-19.578-60.572-19.578v-6.828h-0.357c0,0-4.752,1.074-15.699,1.074
			c-10.949,0-15.7-1.074-15.7-1.074h-0.357v6.828c0,0-52.688,5.107-60.573,19.578l-1.791,40.996H227.488z"/>
		
			<path clip-path="url(#SVGID_4_)" fill="none" stroke="#000000" stroke-linecap="round" stroke-linejoin="round" stroke-miterlimit="10" d="
			M128.702,135.715c11.654,16.992,39.089,10.492,46.01-0.541"/>
		
			<line clip-path="url(#SVGID_4_)" fill="none" stroke="#000000" stroke-linecap="round" stroke-linejoin="round" stroke-miterlimit="10" x1="150.656" y1="125.689" x2="153.445" y2="125.512"/>
		<g clip-path="url(#SVGID_4_)">
			<path fill="#FFFFFF" stroke="#000000" stroke-linecap="round" stroke-linejoin="round" stroke-miterlimit="10" d="
				M141.003,294.846c0,0-8.599-0.453-13.343-5.305c-1.564-1.6-10.735-8.096-10.735-8.096c-30.911-15.279-82.508-9.213-82.508-9.213
				l-8.448-103.865c24.44-5.025,95.734,23.834,115.186,41.594"/>
			<path fill="#FFFFFF" stroke="#000000" stroke-linecap="round" stroke-linejoin="round" stroke-miterlimit="10" d="
				M141.001,294.846c0,0,8.599-0.453,13.343-5.305c1.564-1.6,10.735-8.096,10.735-8.096c30.911-15.279,82.507-9.213,82.507-9.213
				l8.45-103.865c-24.44-5.025-96.76,24.279-114.882,41.594"/>
		</g>
		<g clip-path="url(#SVGID_4_)">
			<path fill="#FFFFFF" stroke="#000000" stroke-linecap="round" stroke-linejoin="round" stroke-miterlimit="10" d="
				M141.003,307.877c0,0-9.008-0.475-13.979-5.559c-1.64-1.674-11.247-8.48-11.247-8.48c-32.385-16.008-86.44-9.652-86.44-9.652
				l-8.851-108.814c25.605-5.266,97.66,17.498,120.675,37.195"/>
			<path fill="#FFFFFF" stroke="#000000" stroke-linecap="round" stroke-linejoin="round" stroke-miterlimit="10" d="
				M141.001,307.877c0,0,9.009-0.475,13.979-5.559c1.64-1.674,11.247-8.48,11.247-8.48c32.385-16.008,86.439-9.652,86.439-9.652
				l8.853-108.814c-25.605-5.266-96.017,16.83-120.357,37.195"/>
		</g>
		
			<polygon clip-path="url(#SVGID_4_)" stroke="#000000" stroke-width="0.839" stroke-linecap="round" stroke-linejoin="round" stroke-miterlimit="10" points="
			196.363,103.223 205.918,97.477 205.448,104.707 195.703,111.09 		"/>
		<g clip-path="url(#SVGID_4_)">
			<g>
				<path fill="#CECECE" stroke="#000000" stroke-linecap="round" stroke-linejoin="round" stroke-miterlimit="10" d="
					M16.151,181.395l9.171,119.004c0,0,55.999-6.949,89.549,10.557c0,0,9.952,7.445,11.651,9.277c1.603,1.73,3.61,2.971,5.616,3.861
					V210.422C106.869,191.547,42.679,175.637,16.151,181.395z"/>
			</g>
			<path fill="#CECECE" stroke="#000000" stroke-linecap="round" stroke-linejoin="round" stroke-miterlimit="10" d="
				M150.092,210.256v113.73c1.93-0.883,3.848-2.09,5.391-3.754c1.698-1.832,11.651-9.277,11.651-9.277
				c33.548-17.506,89.55-10.557,89.55-10.557l9.17-119.004C239.402,175.654,175.514,191.455,150.092,210.256z"/>
			<path fill="#929292" stroke="#000000" stroke-linecap="round" stroke-linejoin="round" stroke-miterlimit="10" d="
				M149.864,210.422c0,0-6.87,4.771-8.863,4.771s-8.862-4.771-8.862-4.771v113.672c4.43,1.967,8.847,2.217,8.861,2.217h0.001h0.001
				c0.016,0,4.585-0.266,9.09-2.324v-113.73C150.018,210.311,149.938,210.365,149.864,210.422z"/>
		</g>
		<path clip-path="url(#SVGID_4_)" stroke="#000000" stroke-linecap="round" stroke-linejoin="round" stroke-miterlimit="10" d="
			M179.882,126.168c-7.069,0.141-15.972-2.17-19.92-7.645c-2.653-3.682-4.05-8.111-4.152-13.17l-0.009-0.467l-0.419-0.205
			c-0.483-0.23-0.778-0.707-0.771-1.236c0.021-1.162-0.418-2.266-1.233-3.107c-0.813-0.842-1.907-1.316-3.072-1.334l-0.19-0.002
			c-1.068,0.021-2.135,0.473-2.926,1.236c-0.84,0.814-1.31,1.906-1.329,3.076c-0.008,0.385-0.19,0.754-0.512,1.016l-0.266,0.215
			l-0.014,0.342c-0.21,5.189-1.741,9.676-4.554,13.34c-3.864,5.029-11.807,6.953-17.948,7.074c-4.503,0.09-8.449-0.754-10.559-2.254
			c-5.149-3.668-11.158-11.127-10.539-25.838c0.036-0.813,0.508-1.555,1.232-1.932c5.529-2.871,12.589-4.596,19.365-4.729
			c0.512-0.012,1.024-0.012,1.535-0.004c7.611,0.113,14.576,2.256,20.146,6.197c0.318,0.227,0.578,0.549,0.751,0.941l0.41,0.924
			l0.777-0.648c1.239-1.039,2.813-1.627,4.43-1.66l0.229-0.002c1.841,0.027,3.581,0.768,4.895,2.08l0.854,0.854l0.402-1.139
			c0.172-0.479,0.476-0.873,0.881-1.145c5.292-3.512,11.808-5.443,18.853-5.584c0.486-0.006,0.979-0.008,1.472-0.002
			c7.276,0.111,14.835,2.064,20.747,5.363c0.712,0.398,1.161,1.154,1.169,1.965c0.178,14.723-6.055,21.998-11.313,25.512
			c-1.768,1.178-4.838,1.895-8.421,1.967C179.884,126.168,179.884,126.168,179.882,126.168z M176.313,95.93
			c-5.645,0.111-10.927,1.533-15.272,4.111l-0.316,0.186l-0.05,0.363c-0.867,6.146,0.127,11.262,2.954,15.215
			c2.909,4.061,10.337,6.07,16.174,5.955c2.61-0.051,4.729-0.535,5.966-1.361c5.889-3.93,9.01-10.596,9.269-19.816l0.013-0.492
			l-0.444-0.215c-5.003-2.424-11.192-3.861-16.976-3.949C177.189,95.92,176.749,95.92,176.313,95.93z M122.207,95.111
			c-5.381,0.105-11.125,1.359-15.764,3.432l-0.45,0.199v0.494c-0.021,9.227,2.896,15.982,8.667,20.088
			c1.49,1.061,4.297,1.633,7.7,1.566c4.861-0.1,11.593-1.592,14.565-5.492c2.947-3.863,4.096-8.949,3.414-15.115l-0.039-0.363
			l-0.309-0.197c-4.609-2.924-10.299-4.52-16.459-4.615C123.094,95.104,122.65,95.104,122.207,95.111z"/>
		<g clip-path="url(#SVGID_4_)">
			
				<ellipse transform="matrix(0.9698 -0.2437 0.2437 0.9698 -22.0907 34.053)" fill="#FFFFFF" stroke="#000000" stroke-linecap="round" stroke-linejoin="round" stroke-miterlimit="10" cx="126.572" cy="106.301" rx="6.515" ry="5.426"/>
			<path stroke="#000000" stroke-linecap="round" stroke-linejoin="round" stroke-miterlimit="10" d="M128.534,108.516
				c0.29,1.143-0.48,2.313-1.71,2.627c-1.246,0.313-2.479-0.361-2.766-1.504c-0.283-1.131,0.486-2.303,1.727-2.615
				C127.021,106.713,128.256,107.381,128.534,108.516z"/>
		</g>
		<g clip-path="url(#SVGID_4_)">
			
				<ellipse transform="matrix(0.9698 -0.2437 0.2437 0.9698 -20.9484 45.657)" fill="#FFFFFF" stroke="#000000" stroke-linecap="round" stroke-linejoin="round" stroke-miterlimit="10" cx="174.038" cy="107.486" rx="6.515" ry="5.424"/>
			<path stroke="#000000" stroke-linecap="round" stroke-linejoin="round" stroke-miterlimit="10" d="M176.002,109.701
				c0.288,1.141-0.482,2.313-1.712,2.625c-1.245,0.314-2.479-0.361-2.766-1.502c-0.282-1.131,0.486-2.303,1.728-2.615
				C174.488,107.896,175.724,108.564,176.002,109.701z"/>
		</g>
		<path clip-path="url(#SVGID_4_)" stroke="#000000" stroke-linecap="round" stroke-linejoin="round" stroke-miterlimit="10" d="
			M189.281,42.775c-8.384-6.853-20.623-3.403-23.903-15.895c-1.426,2.213-5.146,8.047-8.34,7.297
			c-2.715-0.635-2.816-6.346-4.89-8.337c-2.131,8.78-4.913,7.755-12.481,7.352c-4.956-0.265-10.688,1.524-15.493,2.739
			c-12.218,3.092-25.626,21.076-32.165,31.404c-5.534,8.734-10.753,29.734-8.861,33.291c2.851-0.262,5.925,0.891,8.569,1.734
			c-2.258,2.9-2.034,3.301-2.841,6.922c3.056-3.09,6.698-6.027,10.644-8.445c0.49,0.129,0.8,0.211,0.8,0.211
			c8.143-1.404,12.7-16.836,17.833-22.99c5.024-6.029,10.221-12.453,19.021-10.494c5.311,1.182,10.231,3.344,15.757,3.527
			c6.896,0.232,13.945-0.918,21.463-0.629c6.104,0.236,16.731,6.369,22.221,15.855c2.941,5.086,5.495,8.559,7.818,12.061
			c0.111,3.428,0.434,6.629,0.634,10.086c1.345-1.115,1.983-3.063,2.377-5.174c1.386,2.502,2.698,5.322,3.983,8.914
			C215.748,86.77,211.901,61.268,189.281,42.775z"/>
		<g clip-path="url(#SVGID_4_)">
			<defs>
				<path id="SVGID_9_" d="M150.092,210.256v113.73c1.93-0.883,3.848-2.09,5.391-3.754c1.698-1.832,11.651-9.277,11.651-9.277
					c33.548-17.506,89.55-10.557,89.55-10.557l9.17-119.004C239.402,175.654,175.514,191.455,150.092,210.256z"/>
			</defs>
			<clipPath id="SVGID_6_">
				<use xlink:href="#SVGID_9_"  overflow="visible"/>
			</clipPath>
			<g clip-path="url(#SVGID_6_)">
				<g>
					<path fill="#929292" d="M218.729,216.885l4.505-18.654l2.538-0.33l9.572,16.82l-2.674,0.348l-2.764-5.111l-7.429,0.967
						l-1.263,5.637L218.729,216.885z M222.906,208.924l6.023-0.783l-2.502-4.682c-0.757-1.416-1.335-2.586-1.729-3.508
						c-0.078,1.168-0.252,2.338-0.524,3.508L222.906,208.924z"/>
				</g>
				<g>
					<path fill="#929292" d="M184.17,260.75l-2.313-17.766l6.666-0.867c1.354-0.176,2.465-0.137,3.336,0.115
						c0.87,0.256,1.586,0.727,2.146,1.416c0.56,0.691,0.893,1.441,0.998,2.254c0.099,0.756-0.016,1.496-0.339,2.221
						c-0.324,0.725-0.877,1.35-1.657,1.875c1.123,0.164,2.021,0.59,2.696,1.277c0.674,0.686,1.078,1.549,1.213,2.586
						c0.107,0.824,0.033,1.615-0.224,2.377c-0.256,0.762-0.619,1.371-1.087,1.828c-0.469,0.457-1.079,0.834-1.831,1.133
						c-0.753,0.299-1.692,0.521-2.821,0.668L184.17,260.75z M185.18,250.141l3.841-0.5c1.05-0.137,1.79-0.301,2.224-0.496
						c0.574-0.258,0.984-0.611,1.23-1.063c0.245-0.451,0.327-0.986,0.247-1.607c-0.077-0.586-0.286-1.084-0.626-1.494
						c-0.339-0.408-0.782-0.662-1.329-0.764c-0.546-0.102-1.456-0.068-2.731,0.098l-3.553,0.463L185.18,250.141z M186.248,258.346
						l4.433-0.576c0.756-0.1,1.283-0.193,1.58-0.291c0.529-0.16,0.963-0.381,1.3-0.66c0.336-0.277,0.592-0.646,0.768-1.105
						c0.175-0.461,0.227-0.971,0.152-1.535c-0.086-0.666-0.33-1.223-0.732-1.668c-0.402-0.447-0.918-0.729-1.547-0.848
						c-0.63-0.119-1.509-0.105-2.637,0.041l-4.111,0.535L186.248,258.346z"/>
				</g>
				<g>
					<path fill="#929292" d="M159.278,237.391c-0.385-2.957,0.106-5.369,1.475-7.238c1.368-1.871,3.304-2.969,5.809-3.295
						c1.636-0.213,3.161-0.014,4.577,0.6c1.417,0.613,2.563,1.574,3.438,2.883c0.877,1.309,1.431,2.854,1.662,4.637
						c0.233,1.793,0.08,3.447-0.463,4.963s-1.433,2.729-2.667,3.635c-1.236,0.906-2.626,1.461-4.171,1.662
						c-1.67,0.217-3.218,0.008-4.643-0.627c-1.424-0.635-2.565-1.607-3.426-2.918C160.011,240.381,159.48,238.945,159.278,237.391z
						 M161.701,237.109c0.279,2.143,1.073,3.754,2.384,4.834c1.312,1.08,2.835,1.506,4.572,1.279c1.771-0.23,3.148-1.039,4.132-2.43
						c0.983-1.389,1.325-3.23,1.027-5.52c-0.188-1.443-0.596-2.672-1.228-3.686s-1.456-1.758-2.477-2.232
						c-1.02-0.475-2.115-0.637-3.288-0.484c-1.658,0.217-3.015,0.975-4.065,2.275C161.705,232.449,161.354,234.436,161.701,237.109z
						"/>
				</g>
				<g>
					<path fill="#929292" d="M196.36,198.221l2.19-0.492c0.218,0.879,0.555,1.578,1.013,2.098c0.457,0.52,1.112,0.902,1.965,1.146
						c0.851,0.244,1.785,0.301,2.801,0.168c0.891-0.115,1.663-0.35,2.317-0.705c0.652-0.354,1.119-0.785,1.397-1.291
						c0.278-0.508,0.381-1.037,0.309-1.59c-0.071-0.551-0.298-1.016-0.68-1.391c-0.381-0.375-0.963-0.654-1.743-0.84
						c-0.499-0.131-1.589-0.283-3.27-0.461c-1.682-0.178-2.871-0.398-3.572-0.662c-0.901-0.33-1.605-0.797-2.107-1.402
						c-0.505-0.605-0.809-1.314-0.915-2.127c-0.117-0.902,0.027-1.775,0.434-2.621c0.405-0.844,1.071-1.531,1.993-2.064
						c0.923-0.533,1.983-0.879,3.178-1.035c1.32-0.17,2.511-0.107,3.57,0.191c1.059,0.297,1.914,0.822,2.562,1.576
						c0.648,0.752,1.063,1.645,1.244,2.676l-2.229,0.463c-0.27-1.102-0.791-1.893-1.564-2.377c-0.775-0.484-1.845-0.639-3.21-0.461
						c-1.421,0.186-2.422,0.58-3.004,1.184c-0.58,0.602-0.823,1.271-0.728,2.004c0.083,0.643,0.383,1.137,0.899,1.484
						c0.504,0.357,1.739,0.631,3.701,0.816c1.964,0.186,3.32,0.391,4.072,0.613c1.1,0.34,1.942,0.844,2.527,1.512
						c0.587,0.67,0.943,1.484,1.067,2.443c0.122,0.936-0.03,1.859-0.456,2.77c-0.427,0.91-1.119,1.664-2.073,2.258
						s-2.069,0.975-3.344,1.141c-1.602,0.209-2.979,0.15-4.127-0.178c-1.149-0.326-2.093-0.92-2.83-1.783
						C197.012,200.422,196.549,199.4,196.36,198.221z"/>
				</g>
				<g>
					<path fill="#929292" d="M181.326,224.289l2.094-0.566c0.232,1.348,0.608,2.242,1.125,2.684c0.516,0.445,1.174,0.613,1.975,0.51
						c0.587-0.076,1.077-0.277,1.471-0.604s0.639-0.73,0.736-1.215s0.081-1.232-0.051-2.248l-1.595-12.25l2.351-0.307l1.577,12.115
						c0.192,1.477,0.165,2.648-0.084,3.512c-0.249,0.865-0.737,1.563-1.466,2.094c-0.729,0.529-1.617,0.865-2.666,1.002
						c-1.556,0.201-2.799-0.094-3.729-0.885C182.136,227.34,181.557,226.059,181.326,224.289z"/>
				</g>
				<g>
					<path fill="#929292" d="M165.708,214.631l-2.313-17.766l6.7-0.871c1.185-0.154,2.094-0.215,2.729-0.184
						c0.888,0.033,1.654,0.219,2.301,0.553c0.646,0.334,1.193,0.844,1.645,1.531s0.733,1.471,0.849,2.35
						c0.196,1.512-0.118,2.852-0.939,4.02c-0.824,1.17-2.493,1.916-5.008,2.244l-4.552,0.592l0.94,7.225L165.708,214.631z
						 M166.847,205.002l4.585-0.596c1.522-0.199,2.567-0.621,3.13-1.27c0.564-0.646,0.779-1.482,0.646-2.508
						c-0.097-0.746-0.364-1.355-0.805-1.832c-0.441-0.477-0.984-0.758-1.625-0.848c-0.41-0.061-1.145-0.021-2.205,0.117
						l-4.551,0.592L166.847,205.002z"/>
				</g>
				<g>
					<path fill="#929292" d="M227.405,247.6l-2.313-17.766l2.352-0.307l2.039,15.666l8.747-1.139l0.273,2.1L227.405,247.6z"/>
				</g>
				<g>
					<path fill="#929292" d="M255.007,185.625l2.352-0.305l1.337,10.27c0.231,1.783,0.214,3.225-0.057,4.326
						c-0.269,1.102-0.888,2.051-1.856,2.848c-0.97,0.799-2.306,1.309-4.008,1.529c-1.67,0.219-3.073,0.107-4.208-0.33
						s-1.999-1.168-2.591-2.191s-1.011-2.479-1.256-4.361l-1.337-10.271l2.353-0.307l1.335,10.254
						c0.201,1.545,0.491,2.664,0.874,3.354s0.949,1.189,1.701,1.498c0.751,0.311,1.63,0.4,2.634,0.27
						c1.736-0.227,2.92-0.779,3.552-1.658s0.801-2.436,0.511-4.67L255.007,185.625z"/>
				</g>
				<g>
					<path fill="#929292" d="M254.694,230.568l2.428,0.287c-0.244,1.992-0.941,3.58-2.09,4.762
						c-1.146,1.182-2.646,1.895-4.497,2.135c-1.906,0.248-3.511,0.061-4.813-0.561c-1.302-0.621-2.361-1.631-3.182-3.027
						c-0.818-1.396-1.339-2.945-1.561-4.65c-0.24-1.85-0.098-3.508,0.428-4.977c0.526-1.467,1.396-2.645,2.612-3.531
						s2.607-1.432,4.176-1.635c1.77-0.23,3.32,0.029,4.651,0.779c1.33,0.75,2.34,1.912,3.026,3.484l-2.247,0.844
						c-0.573-1.232-1.291-2.094-2.152-2.586c-0.861-0.488-1.884-0.656-3.068-0.502c-1.364,0.178-2.464,0.652-3.298,1.428
						c-0.834,0.773-1.366,1.736-1.594,2.891c-0.229,1.154-0.267,2.316-0.114,3.49c0.195,1.5,0.587,2.787,1.173,3.857
						c0.588,1.07,1.383,1.824,2.386,2.26c1.004,0.439,2.047,0.586,3.13,0.445c1.319-0.172,2.384-0.697,3.192-1.576
						S254.561,232.1,254.694,230.568z"/>
				</g>
				<g>
					<path fill="#929292" d="M202.563,241.211l-2.313-17.766l2.352-0.307l1.147,8.816l7.686-9.965l3.18-0.414l-6.506,8.176
						l9.141,9.547l-3.096,0.404l-7.498-8.162l-2.542,3.205l0.802,6.158L202.563,241.211z"/>
				</g>
			</g>
		</g>
		<g clip-path="url(#SVGID_4_)">
			<defs>
				<path id="SVGID_11_" d="M131.854,210.256v113.73c-1.93-0.883-3.848-2.09-5.391-3.754c-1.698-1.832-11.651-9.277-11.651-9.277
					c-33.548-17.506-89.55-10.557-89.55-10.557l-9.17-119.004C42.543,175.654,106.432,191.455,131.854,210.256z"/>
			</defs>
			<clipPath id="SVGID_8_">
				<use xlink:href="#SVGID_11_"  overflow="visible"/>
			</clipPath>
			<g clip-path="url(#SVGID_8_)">
				
					<text transform="matrix(0.9921 0.1257 -0.1257 0.9921 77.7344 219.0234)" fill="#929292" font-family="'Utsaah'" font-size="34.9445">E</text>
				
					<text transform="matrix(0.9921 0.1257 -0.1257 0.9921 35.9072 258.8545)" fill="#929292" font-family="'Utsaah'" font-size="34.9445">Š</text>
				
					<text transform="matrix(0.9921 0.1257 -0.1257 0.9921 12.7246 235.6211)" fill="#929292" font-family="'Utsaah'" font-size="34.9445">N</text>
				
					<text transform="matrix(0.9921 0.1257 -0.1257 0.9921 57.4258 204.1953)" fill="#929292" font-family="'Utsaah'" font-size="34.9445">H</text>
				
					<text transform="matrix(0.9921 0.1257 -0.1257 0.9921 42.6221 224.8848)" fill="#929292" font-family="'Utsaah'" font-size="34.9445">J</text>
				
					<text transform="matrix(0.9921 0.1257 -0.1257 0.9921 25.7031 206.3125)" fill="#929292" font-family="'Utsaah'" font-size="34.9445">R</text>
				
					<text transform="matrix(0.9921 0.1257 -0.1257 0.9921 80.5576 258.9902)" fill="#929292" font-family="'Utsaah'" font-size="34.9445">L</text>
				
					<text transform="matrix(0.9921 0.1257 -0.1257 0.9921 109.2051 217.1973)" fill="#929292" font-family="'Utsaah'" font-size="34.9445">U</text>
				
					<text transform="matrix(0.9921 0.1257 -0.1257 0.9921 93.5322 243.8398)" fill="#929292" font-family="'Utsaah'" font-size="34.9445">T</text>
				
					<text transform="matrix(-0.9921 -0.1257 0.1257 -0.9921 127.0703 241.4277)" fill="#929292" font-family="'Utsaah'" font-size="34.9445">V</text>
				
					<text transform="matrix(0.9921 0.1257 -0.1257 0.9921 61.5225 244.2227)" fill="#929292" font-family="'Utsaah'" font-size="34.9445">F</text>
			</g>
		</g>
	</g>
	<g>
		<defs>
			<rect id="SVGID_19_" y="-300" width="250" height="250"/>
		</defs>
		<clipPath id="SVGID_10_">
			<use xlink:href="#SVGID_19_"  overflow="visible"/>
		</clipPath>
		
			<path clip-path="url(#SVGID_10_)" fill="#C4C4C4" stroke="#000000" stroke-linecap="round" stroke-linejoin="round" stroke-miterlimit="10" d="
			M151.793-209.918c34.195-1.759,106.515-16.828,121.751-8.167L250.459,10.258H-8.488v-194.275v-27.205
			C36.063-196.649,91.359-225.453,151.793-209.918z"/>
		<g clip-path="url(#SVGID_10_)">
			<path fill="#B9B8B8" stroke="#000000" stroke-linecap="round" stroke-linejoin="round" stroke-miterlimit="10" d="M238.221-0.456
				c0,0-21.945-128.967-18.828-128.967c3.119,0,33.659,126.038,33.659,126.038L238.221-0.456z"/>
		</g>
		<g clip-path="url(#SVGID_10_)">
			<path fill="#B9B8B8" stroke="#000000" stroke-linecap="round" stroke-linejoin="round" stroke-miterlimit="10" d="M21.568,16.861
				c0,0,0.34-106.616-3.371-106.616c-3.711,0.005-4.041,106.619-4.041,106.619L21.568,16.861z"/>
			<path fill="#B9B8B8" stroke="#000000" stroke-linecap="round" stroke-linejoin="round" stroke-miterlimit="10" d="M26.707,11.049
				c0,0-14.961-81.995-16.145-81.995c-1.182,0,1.734,82.245,1.734,82.245L26.707,11.049z"/>
			<path fill="#B9B8B8" stroke="#000000" stroke-linecap="round" stroke-linejoin="round" stroke-miterlimit="10" d="M23.014,10.509
				c0,0,3.75-54.499,1.854-54.623c-1.896-0.123-5.645,54.375-5.645,54.375L23.014,10.509z"/>
			<path fill="#B9B8B8" stroke="#000000" stroke-linecap="round" stroke-linejoin="round" stroke-miterlimit="10" d="M27.137,22.979
				c0,0,4.475-54.444,2.578-54.594c-1.895-0.147-6.363,54.295-6.363,54.295L27.137,22.979z"/>
		</g>
		
			<path clip-path="url(#SVGID_10_)" fill="#B9B8B8" stroke="#000000" stroke-linecap="round" stroke-linejoin="round" stroke-miterlimit="10" d="
			M210.725,28.615c0,0-16.764-120.582-12.564-121.151c4.197-0.567,20.953,120.015,20.953,120.015L210.725,28.615z"/>
		
			<path clip-path="url(#SVGID_10_)" fill="#B9B8B8" stroke="#000000" stroke-linecap="round" stroke-linejoin="round" stroke-miterlimit="10" d="
			M209.045,51.3c0,0,3.002-121.706,7.24-121.587c4.234,0.121,1.221,121.824,1.221,121.824L209.045,51.3z"/>
		
			<path clip-path="url(#SVGID_10_)" fill="#B9B8B8" stroke="#000000" stroke-linecap="round" stroke-linejoin="round" stroke-miterlimit="10" d="
			M200.732,66.531c0,0-16.031-120.683-11.826-121.227c4.201-0.541,20.219,120.14,20.219,120.14L200.732,66.531z"/>
	</g>
</g>
<g id="Layer_2">
</g>
</svg>
