<?xml version="1.0" encoding="utf-8"?>
<!-- Generator: Adobe Illustrator 16.0.0, SVG Export Plug-In . SVG Version: 6.00 Build 0)  -->
<!DOCTYPE svg PUBLIC "-//W3C//DTD SVG 1.1//EN" "http://www.w3.org/Graphics/SVG/1.1/DTD/svg11.dtd">
<svg version="1.1" xmlns="http://www.w3.org/2000/svg" xmlns:xlink="http://www.w3.org/1999/xlink" x="0px" y="0px" width="220px"
	 height="220px" viewBox="0 0 220 220" enable-background="new 0 0 220 220" xml:space="preserve">
<g id="bg">
</g>
<g id="Layer_1">
	<g>
		
			<rect x="149.76" y="33.175" fill="#010202" stroke="#010202" stroke-width="2.4" stroke-linecap="round" stroke-linejoin="round" stroke-miterlimit="10" width="11.694" height="13.68"/>
		
			<rect x="120.981" y="46.446" fill="#C9C9C9" stroke="#010202" stroke-width="2.4" stroke-linecap="round" stroke-linejoin="round" stroke-miterlimit="10" width="48.13" height="32.637"/>
		<g>
			
				<polyline fill="#29265B" stroke="#010202" stroke-width="2.4" stroke-linecap="round" stroke-linejoin="round" stroke-miterlimit="10" points="
				89.288,73.521 80.434,68.474 184.678,74.138 173.266,89.103 			"/>
		</g>
		
			<circle fill="#FFFFFF" stroke="#010202" stroke-width="2.4" stroke-linecap="round" stroke-linejoin="round" stroke-miterlimit="10" cx="158.431" cy="58.331" r="4.798"/>
		
			<circle fill="#FFFFFF" stroke="#010202" stroke-width="2.4" stroke-linecap="round" stroke-linejoin="round" stroke-miterlimit="10" cx="144.661" cy="58.331" r="4.798"/>
		
			<circle fill="#FFFFFF" stroke="#010202" stroke-width="2.4" stroke-linecap="round" stroke-linejoin="round" stroke-miterlimit="10" cx="130.891" cy="58.331" r="4.798"/>
		
			<path fill="#BE1823" stroke="#010202" stroke-width="2.4" stroke-linecap="round" stroke-linejoin="round" stroke-miterlimit="10" d="
			M177.824,82.851l-10.699,14.09H101.32c0,0-14.917-24.977-20.886-28.467L177.824,82.851z"/>
	</g>
	<g>
		
			<path fill="#0B76A6" stroke="#010202" stroke-width="2.4" stroke-linecap="round" stroke-linejoin="round" stroke-miterlimit="10" d="
			M205.591,65.058c0,0,38.234-37.768,43.292-54.92v54.92H205.591z"/>
		
			<path fill="#EFD2A3" stroke="#010202" stroke-width="2.4" stroke-linecap="round" stroke-linejoin="round" stroke-miterlimit="10" d="
			M222.25,97.573c15.475,0,37.778,0,48.395,0c10.617,0,16.659-21.28,16.659-21.28h-81.713
			C205.591,76.293,206.774,97.573,222.25,97.573z"/>
	</g>
	<g>
		
			<rect x="27.495" y="10.138" fill="#010202" stroke="#010202" stroke-width="2.4" stroke-linecap="round" stroke-linejoin="round" stroke-miterlimit="10" width="1.606" height="70.637"/>
		
			<path fill="#39A8E0" stroke="#010202" stroke-width="2.4" stroke-linecap="round" stroke-linejoin="round" stroke-miterlimit="10" d="
			M29.355,26.913v38.145h29.781C59.136,65.058,32.349,43.849,29.355,26.913z"/>
		
			<path fill="#0B76A6" stroke="#010202" stroke-width="2.4" stroke-linecap="round" stroke-linejoin="round" stroke-miterlimit="10" d="
			M-14.191,65.058c0,0,38.236-37.768,43.292-54.92v54.92H-14.191z"/>
		
			<path fill="#EFD2A3" stroke="#010202" stroke-width="2.4" stroke-linecap="round" stroke-linejoin="round" stroke-miterlimit="10" d="
			M2.469,97.573c15.476,0,37.779,0,48.396,0s16.659-21.28,16.659-21.28h-81.714C-14.191,76.293-13.007,97.573,2.469,97.573z"/>
	</g>
	<g>
		
			<rect x="107.492" y="133.037" fill="#010202" stroke="#010202" stroke-width="2.4" stroke-linecap="round" stroke-linejoin="round" stroke-miterlimit="10" width="11.694" height="13.68"/>
		
			<rect x="78.714" y="146.309" fill="#C9C9C9" stroke="#010202" stroke-width="2.4" stroke-linecap="round" stroke-linejoin="round" stroke-miterlimit="10" width="48.13" height="32.637"/>
		<g>
			
				<polyline fill="#29265B" stroke="#010202" stroke-width="2.4" stroke-linecap="round" stroke-linejoin="round" stroke-miterlimit="10" points="
				47.02,173.383 38.167,168.336 142.411,174 130.999,188.965 			"/>
		</g>
		
			<circle fill="#FFFFFF" stroke="#010202" stroke-width="2.4" stroke-linecap="round" stroke-linejoin="round" stroke-miterlimit="10" cx="116.164" cy="158.193" r="4.798"/>
		
			<circle fill="#FFFFFF" stroke="#010202" stroke-width="2.4" stroke-linecap="round" stroke-linejoin="round" stroke-miterlimit="10" cx="102.393" cy="158.193" r="4.798"/>
		
			<circle fill="#FFFFFF" stroke="#010202" stroke-width="2.4" stroke-linecap="round" stroke-linejoin="round" stroke-miterlimit="10" cx="88.623" cy="158.193" r="4.798"/>
		
			<path fill="#BE1823" stroke="#010202" stroke-width="2.4" stroke-linecap="round" stroke-linejoin="round" stroke-miterlimit="10" d="
			M135.556,182.713l-10.699,14.09H59.052c0,0-14.917-24.977-20.886-28.467L135.556,182.713z"/>
	</g>
	<g>
		
			<rect x="205.009" y="110" fill="#010202" stroke="#010202" stroke-width="2.4" stroke-linecap="round" stroke-linejoin="round" stroke-miterlimit="10" width="1.606" height="70.637"/>
		
			<path fill="#39A8E0" stroke="#010202" stroke-width="2.4" stroke-linecap="round" stroke-linejoin="round" stroke-miterlimit="10" d="
			M206.869,126.775v38.145h29.78C236.649,164.92,209.863,143.711,206.869,126.775z"/>
		
			<path fill="#0B76A6" stroke="#010202" stroke-width="2.4" stroke-linecap="round" stroke-linejoin="round" stroke-miterlimit="10" d="
			M163.323,164.92c0,0,38.234-37.768,43.292-54.92v54.92H163.323z"/>
		
			<path fill="#EFD2A3" stroke="#010202" stroke-width="2.4" stroke-linecap="round" stroke-linejoin="round" stroke-miterlimit="10" d="
			M179.982,197.436c15.475,0,37.778,0,48.395,0c10.617,0,16.659-21.28,16.659-21.28h-81.713
			C163.323,176.155,164.507,197.436,179.982,197.436z"/>
	</g>
	<g>
		
			<path fill="#39A8E0" stroke="#010202" stroke-width="2.4" stroke-linecap="round" stroke-linejoin="round" stroke-miterlimit="10" d="
			M-12.912,126.775v38.145h29.781C16.869,164.92-9.918,143.711-12.912,126.775z"/>
		
			<path fill="#EFD2A3" stroke="#010202" stroke-width="2.4" stroke-linecap="round" stroke-linejoin="round" stroke-miterlimit="10" d="
			M-39.799,197.436c15.476,0,37.779,0,48.396,0s16.659-21.28,16.659-21.28h-81.714C-56.458,176.155-55.275,197.436-39.799,197.436z"
			/>
	</g>
</g>
</svg>
