<?xml version="1.0" encoding="utf-8"?>
<!-- Generator: Adobe Illustrator 16.0.0, SVG Export Plug-In . SVG Version: 6.00 Build 0)  -->
<!DOCTYPE svg PUBLIC "-//W3C//DTD SVG 1.1//EN" "http://www.w3.org/Graphics/SVG/1.1/DTD/svg11.dtd">
<svg version="1.1" xmlns="http://www.w3.org/2000/svg" xmlns:xlink="http://www.w3.org/1999/xlink" x="0px" y="0px" width="220px"
	 height="220px" viewBox="0 0 220 220" enable-background="new 0 0 220 220" xml:space="preserve">
<g id="bg">
</g>
<g id="Layer_1">
	<g>
		
			<rect x="110.659" y="33.175" fill="#010202" stroke="#010202" stroke-width="2.4" stroke-linecap="round" stroke-linejoin="round" stroke-miterlimit="10" width="11.694" height="13.68"/>
		
			<rect x="103.002" y="46.446" fill="#C9C9C9" stroke="#010202" stroke-width="2.4" stroke-linecap="round" stroke-linejoin="round" stroke-miterlimit="10" width="48.13" height="32.637"/>
		<g>
			
				<polyline fill="#29265B" stroke="#010202" stroke-width="2.4" stroke-linecap="round" stroke-linejoin="round" stroke-miterlimit="10" points="
				182.825,73.521 191.679,68.474 87.435,74.138 98.847,89.103 			"/>
		</g>
		
			<circle fill="#FFFFFF" stroke="#010202" stroke-width="2.4" stroke-linecap="round" stroke-linejoin="round" stroke-miterlimit="10" cx="113.682" cy="58.331" r="4.797"/>
		
			<circle fill="#FFFFFF" stroke="#010202" stroke-width="2.4" stroke-linecap="round" stroke-linejoin="round" stroke-miterlimit="10" cx="127.452" cy="58.331" r="4.798"/>
		
			<circle fill="#FFFFFF" stroke="#010202" stroke-width="2.4" stroke-linecap="round" stroke-linejoin="round" stroke-miterlimit="10" cx="141.222" cy="58.331" r="4.798"/>
		
			<path fill="#BE1823" stroke="#010202" stroke-width="2.4" stroke-linecap="round" stroke-linejoin="round" stroke-miterlimit="10" d="
			M94.289,82.851l10.699,14.09h65.805c0,0,14.917-24.977,20.886-28.467L94.289,82.851z"/>
	</g>
	<g>
		
			<rect x="24.231" y="10.138" fill="#010202" stroke="#010202" stroke-width="2.4" stroke-linecap="round" stroke-linejoin="round" stroke-miterlimit="10" width="1.606" height="70.637"/>
		
			<path fill="#39A8E0" stroke="#010202" stroke-width="2.4" stroke-linecap="round" stroke-linejoin="round" stroke-miterlimit="10" d="
			M23.977,26.913v38.145H-5.804C-5.804,65.058,20.983,43.849,23.977,26.913z"/>
		
			<path fill="#0B76A6" stroke="#010202" stroke-width="2.4" stroke-linecap="round" stroke-linejoin="round" stroke-miterlimit="10" d="
			M67.523,65.058c0,0-38.235-37.768-43.292-54.92v54.92H67.523z"/>
		
			<path fill="#EFD2A3" stroke="#010202" stroke-width="2.4" stroke-linecap="round" stroke-linejoin="round" stroke-miterlimit="10" d="
			M50.864,97.573c-15.475,0-37.779,0-48.395,0c-10.617,0-16.659-21.28-16.659-21.28h81.713
			C67.523,76.293,66.339,97.573,50.864,97.573z"/>
	</g>
	<g>
		
			<path fill="#39A8E0" stroke="#010202" stroke-width="2.4" stroke-linecap="round" stroke-linejoin="round" stroke-miterlimit="10" d="
			M243.758,26.913v38.145h-29.781C213.977,65.058,240.764,43.849,243.758,26.913z"/>
		
			<path fill="#EFD2A3" stroke="#010202" stroke-width="2.4" stroke-linecap="round" stroke-linejoin="round" stroke-miterlimit="10" d="
			M270.645,97.573c-15.476,0-37.779,0-48.396,0s-16.659-21.28-16.659-21.28h81.714C287.304,76.293,286.12,97.573,270.645,97.573z"/>
	</g>
	<g>
		
			<rect x="68.392" y="133.037" fill="#010202" stroke="#010202" stroke-width="2.4" stroke-linecap="round" stroke-linejoin="round" stroke-miterlimit="10" width="11.694" height="13.68"/>
		
			<rect x="60.734" y="146.309" fill="#C9C9C9" stroke="#010202" stroke-width="2.4" stroke-linecap="round" stroke-linejoin="round" stroke-miterlimit="10" width="48.13" height="32.637"/>
		<g>
			
				<polyline fill="#29265B" stroke="#010202" stroke-width="2.4" stroke-linecap="round" stroke-linejoin="round" stroke-miterlimit="10" points="
				140.558,173.383 149.411,168.336 45.167,174 56.579,188.965 			"/>
		</g>
		
			<circle fill="#FFFFFF" stroke="#010202" stroke-width="2.4" stroke-linecap="round" stroke-linejoin="round" stroke-miterlimit="10" cx="71.414" cy="158.193" r="4.798"/>
		
			<circle fill="#FFFFFF" stroke="#010202" stroke-width="2.4" stroke-linecap="round" stroke-linejoin="round" stroke-miterlimit="10" cx="85.185" cy="158.193" r="4.798"/>
		
			<circle fill="#FFFFFF" stroke="#010202" stroke-width="2.4" stroke-linecap="round" stroke-linejoin="round" stroke-miterlimit="10" cx="98.955" cy="158.193" r="4.798"/>
		
			<path fill="#BE1823" stroke="#010202" stroke-width="2.4" stroke-linecap="round" stroke-linejoin="round" stroke-miterlimit="10" d="
			M52.021,182.713l10.7,14.09h65.805c0,0,14.917-24.977,20.886-28.467L52.021,182.713z"/>
	</g>
	<g>
		
			<path fill="#0B76A6" stroke="#010202" stroke-width="2.4" stroke-linecap="round" stroke-linejoin="round" stroke-miterlimit="10" d="
			M25.255,164.92c0,0-38.235-37.768-43.292-54.92v54.92H25.255z"/>
		
			<path fill="#EFD2A3" stroke="#010202" stroke-width="2.4" stroke-linecap="round" stroke-linejoin="round" stroke-miterlimit="10" d="
			M8.596,197.436c-15.475,0-37.779,0-48.395,0c-10.617,0-16.659-21.28-16.659-21.28h81.713
			C25.255,176.155,24.072,197.436,8.596,197.436z"/>
	</g>
	<g>
		
			<rect x="201.744" y="110" fill="#010202" stroke="#010202" stroke-width="2.4" stroke-linecap="round" stroke-linejoin="round" stroke-miterlimit="10" width="1.606" height="70.637"/>
		
			<path fill="#39A8E0" stroke="#010202" stroke-width="2.4" stroke-linecap="round" stroke-linejoin="round" stroke-miterlimit="10" d="
			M201.49,126.775v38.145h-29.781C171.709,164.92,198.496,143.711,201.49,126.775z"/>
		
			<path fill="#0B76A6" stroke="#010202" stroke-width="2.4" stroke-linecap="round" stroke-linejoin="round" stroke-miterlimit="10" d="
			M245.036,164.92c0,0-38.235-37.768-43.292-54.92v54.92H245.036z"/>
		
			<path fill="#EFD2A3" stroke="#010202" stroke-width="2.4" stroke-linecap="round" stroke-linejoin="round" stroke-miterlimit="10" d="
			M228.377,197.436c-15.476,0-37.779,0-48.396,0s-16.659-21.28-16.659-21.28h81.714
			C245.036,176.155,243.853,197.436,228.377,197.436z"/>
	</g>
</g>
</svg>
