<?xml version="1.0" encoding="utf-8"?>
<!-- Generator: Adobe Illustrator 16.0.0, SVG Export Plug-In . SVG Version: 6.00 Build 0)  -->
<!DOCTYPE svg PUBLIC "-//W3C//DTD SVG 1.1//EN" "http://www.w3.org/Graphics/SVG/1.1/DTD/svg11.dtd">
<svg version="1.1" xmlns="http://www.w3.org/2000/svg" xmlns:xlink="http://www.w3.org/1999/xlink" x="0px" y="0px" width="220px"
	 height="220px" viewBox="0 0 220 220" enable-background="new 0 0 220 220" xml:space="preserve">
<g id="bg" display="none">
</g>
<g id="Layer_3">
</g>
<g id="Layer_1">
	<g>
		<defs>
			<rect id="SVGID_707_" x="0" y="0" width="220" height="220"/>
		</defs>
		<clipPath id="SVGID_2_">
			<use xlink:href="#SVGID_707_"  overflow="visible"/>
		</clipPath>
		<rect x="0" y="0" clip-path="url(#SVGID_2_)" fill="#9E9E9E" width="220" height="220"/>
		<g clip-path="url(#SVGID_2_)">
			
				<ellipse fill="#383838" stroke="#000000" stroke-width="2.4296" stroke-linecap="round" stroke-linejoin="round" stroke-miterlimit="10" cx="7.123" cy="1.918" rx="19.771" ry="29.844"/>
			
				<path fill="#383838" stroke="#000000" stroke-width="2.4296" stroke-linecap="round" stroke-linejoin="round" stroke-miterlimit="10" d="
				M-12.546,1.918c0-13.295,5.761-24.56,13.72-28.418c-1.908-0.923-3.941-1.425-6.052-1.425c-10.92,0-19.771,13.361-19.771,29.843
				s8.852,29.844,19.771,29.844c2.111,0,4.144-0.501,6.052-1.426C-6.785,26.478-12.546,15.215-12.546,1.918z"/>
		</g>
		<g clip-path="url(#SVGID_2_)">
			<g>
				
					<polygon fill="#454545" stroke="#000000" stroke-width="3.9482" stroke-linecap="round" stroke-linejoin="round" stroke-miterlimit="10" points="
					80.124,41.762 76.159,38.742 74.415,35.717 77.904,35.717 81.394,35.717 79.648,38.742 				"/>
				
					<polygon fill="#454545" stroke="#000000" stroke-width="3.9482" stroke-linecap="round" stroke-linejoin="round" stroke-miterlimit="10" points="
					74.415,41.762 72.669,38.742 70.924,35.717 74.415,35.717 77.904,35.717 76.159,38.742 				"/>
				
					<polygon fill="#454545" stroke="#000000" stroke-width="3.9482" stroke-linecap="round" stroke-linejoin="round" stroke-miterlimit="10" points="
					68.705,41.762 69.179,38.742 67.435,35.717 70.924,35.717 74.415,35.717 72.669,38.742 				"/>
			</g>
			
				<path fill="#C7C7C7" stroke="#000000" stroke-width="2.4296" stroke-linecap="round" stroke-linejoin="round" stroke-miterlimit="10" d="
				M87.965-6.243c-4.861-12.368-3.461-20.763-13.596-20.763c-10.136,0-8.735,8.395-13.596,20.763
				c-3.331,8.473-25.213,31.146,0,43.505c8.899,3.708,13.596,2.72,13.596,2.72s4.696,0.988,13.596-2.72
				C113.179,24.903,91.295,2.229,87.965-6.243z"/>
			
				<path fill="none" stroke="#000000" stroke-width="1.8222" stroke-linecap="round" stroke-linejoin="round" stroke-miterlimit="10" d="
				M87.346,28.563c0,0,6.36-8.269-2.349-20.398"/>
		</g>
		<g clip-path="url(#SVGID_2_)">
			
				<path fill="#595959" stroke="#000000" stroke-width="2.4296" stroke-linecap="round" stroke-linejoin="round" stroke-miterlimit="10" d="
				M79.099,68.239l-7.165,0.004l0.758,18.198h0.059c-0.003,0.154,0.02,0.308,0.07,0.457c0.271,0.809,1.233,1.214,2.149,0.907
				c0.673-0.226,1.132-0.773,1.222-1.367l0.043-0.001L79.099,68.239z"/>
			
				<ellipse fill="#383838" stroke="#000000" stroke-width="2.4296" stroke-linecap="round" stroke-linejoin="round" stroke-miterlimit="10" cx="80.37" cy="111.918" rx="19.771" ry="29.844"/>
			
				<path fill="#383838" stroke="#000000" stroke-width="2.4296" stroke-linecap="round" stroke-linejoin="round" stroke-miterlimit="10" d="
				M60.702,111.918c0-13.295,5.761-24.56,13.72-28.418c-1.908-0.923-3.942-1.425-6.052-1.425c-10.92,0-19.771,13.361-19.771,29.843
				s8.852,29.844,19.771,29.844c2.11,0,4.144-0.501,6.052-1.426C66.462,136.478,60.702,125.215,60.702,111.918z"/>
		</g>
		<g clip-path="url(#SVGID_2_)">
			
				<path fill="#595959" stroke="#000000" stroke-width="2.4296" stroke-linecap="round" stroke-linejoin="round" stroke-miterlimit="10" d="
				M2.331,63.675l-7.166,0.006l0.758,18.196h0.059c-0.002,0.156,0.021,0.308,0.071,0.457c0.271,0.809,1.233,1.213,2.149,0.907
				c0.673-0.226,1.132-0.773,1.222-1.367l0.043-0.002L2.331,63.675z"/>
			<g>
				
					<polygon fill="#454545" stroke="#000000" stroke-width="3.9482" stroke-linecap="round" stroke-linejoin="round" stroke-miterlimit="10" points="
					4.441,144.542 0.477,141.521 -1.268,138.498 2.223,138.498 5.712,138.498 3.967,141.521 				"/>
				
					<polygon fill="#454545" stroke="#000000" stroke-width="3.9482" stroke-linecap="round" stroke-linejoin="round" stroke-miterlimit="10" points="
					-1.268,144.542 -3.013,141.521 -4.758,138.498 -1.268,138.498 2.223,138.498 0.477,141.521 				"/>
				
					<polygon fill="#454545" stroke="#000000" stroke-width="3.9482" stroke-linecap="round" stroke-linejoin="round" stroke-miterlimit="10" points="
					-6.978,144.542 -6.503,141.521 -8.248,138.498 -4.758,138.498 -1.268,138.498 -3.013,141.521 				"/>
			</g>
			
				<path fill="#C7C7C7" stroke="#000000" stroke-width="2.4296" stroke-linecap="round" stroke-linejoin="round" stroke-miterlimit="10" d="
				M12.282,96.537C7.421,84.169,8.821,75.773-1.313,75.773c-10.136,0-8.735,8.396-13.596,20.764
				c-3.331,8.473-25.213,31.147,0,43.506c8.899,3.709,13.596,2.721,13.596,2.721s4.696,0.988,13.595-2.721
				C37.497,127.684,15.612,105.009,12.282,96.537z"/>
			
				<path fill="none" stroke="#000000" stroke-width="1.8222" stroke-linecap="round" stroke-linejoin="round" stroke-miterlimit="10" d="
				M11.664,131.343c0,0,6.36-8.27-2.349-20.398"/>
		</g>
		<g clip-path="url(#SVGID_2_)">
			
				<ellipse fill="#383838" stroke="#000000" stroke-width="2.4296" stroke-linecap="round" stroke-linejoin="round" stroke-miterlimit="10" cx="227.123" cy="1.918" rx="19.771" ry="29.844"/>
			
				<path fill="#383838" stroke="#000000" stroke-width="2.4296" stroke-linecap="round" stroke-linejoin="round" stroke-miterlimit="10" d="
				M207.454,1.918c0-13.295,5.761-24.56,13.72-28.418c-1.908-0.923-3.941-1.425-6.052-1.425c-10.92,0-19.771,13.361-19.771,29.843
				s8.852,29.844,19.771,29.844c2.111,0,4.144-0.501,6.052-1.426C213.215,26.478,207.454,15.215,207.454,1.918z"/>
		</g>
		<g clip-path="url(#SVGID_2_)">
			
				<path fill="#595959" stroke="#000000" stroke-width="2.4296" stroke-linecap="round" stroke-linejoin="round" stroke-miterlimit="10" d="
				M5.852,178.239l-7.165,0.004l0.758,18.198h0.058c-0.002,0.154,0.021,0.308,0.07,0.457c0.271,0.809,1.233,1.214,2.149,0.907
				c0.673-0.226,1.132-0.773,1.222-1.367l0.042-0.001L5.852,178.239z"/>
			
				<ellipse fill="#383838" stroke="#000000" stroke-width="2.4296" stroke-linecap="round" stroke-linejoin="round" stroke-miterlimit="10" cx="7.123" cy="221.918" rx="19.771" ry="29.844"/>
			
				<path fill="#383838" stroke="#000000" stroke-width="2.4296" stroke-linecap="round" stroke-linejoin="round" stroke-miterlimit="10" d="
				M-12.546,221.918c0-13.295,5.761-24.56,13.72-28.418c-1.908-0.923-3.941-1.425-6.052-1.425c-10.92,0-19.771,13.361-19.771,29.843
				s8.852,29.844,19.771,29.844c2.111,0,4.144-0.501,6.052-1.426C-6.785,246.478-12.546,235.215-12.546,221.918z"/>
		</g>
		<g clip-path="url(#SVGID_2_)">
			
				<path fill="#595959" stroke="#000000" stroke-width="2.4296" stroke-linecap="round" stroke-linejoin="round" stroke-miterlimit="10" d="
				M78.013,180.895l-7.166,0.004l0.757,18.199h0.059c-0.002,0.154,0.021,0.307,0.071,0.458c0.271,0.808,1.232,1.212,2.148,0.904
				c0.673-0.225,1.132-0.771,1.222-1.367l0.043,0L78.013,180.895z"/>
			
				<path fill="#C7C7C7" stroke="#000000" stroke-width="2.4296" stroke-linecap="round" stroke-linejoin="round" stroke-miterlimit="10" d="
				M87.965,213.757c-4.861-12.368-3.461-20.763-13.596-20.763c-10.136,0-8.735,8.395-13.596,20.763
				c-3.331,8.473-25.213,31.146,0,43.505c8.899,3.708,13.596,2.72,13.596,2.72s4.696,0.988,13.596-2.72
				C113.179,244.903,91.295,222.229,87.965,213.757z"/>
		</g>
		<g clip-path="url(#SVGID_2_)">
			<g>
				
					<polygon fill="#454545" stroke="#000000" stroke-width="3.9482" stroke-linecap="round" stroke-linejoin="round" stroke-miterlimit="10" points="
					152.983,41.762 149.019,38.742 147.274,35.717 150.765,35.717 154.254,35.717 152.508,38.742 				"/>
				
					<polygon fill="#454545" stroke="#000000" stroke-width="3.9482" stroke-linecap="round" stroke-linejoin="round" stroke-miterlimit="10" points="
					147.274,41.762 145.529,38.742 143.784,35.717 147.274,35.717 150.765,35.717 149.019,38.742 				"/>
				
					<polygon fill="#454545" stroke="#000000" stroke-width="3.9482" stroke-linecap="round" stroke-linejoin="round" stroke-miterlimit="10" points="
					141.564,41.762 142.039,38.742 140.295,35.717 143.784,35.717 147.274,35.717 145.529,38.742 				"/>
			</g>
			
				<path fill="#C7C7C7" stroke="#000000" stroke-width="2.4296" stroke-linecap="round" stroke-linejoin="round" stroke-miterlimit="10" d="
				M160.825-6.243c-4.861-12.368-3.461-20.763-13.596-20.763c-10.136,0-8.735,8.395-13.596,20.763
				c-3.331,8.473-25.213,31.146,0,43.505c8.899,3.708,13.596,2.72,13.596,2.72s4.696,0.988,13.596-2.72
				C186.039,24.903,164.155,2.229,160.825-6.243z"/>
			
				<path fill="none" stroke="#000000" stroke-width="1.8222" stroke-linecap="round" stroke-linejoin="round" stroke-miterlimit="10" d="
				M160.206,28.563c0,0,6.36-8.269-2.349-20.398"/>
		</g>
		<g clip-path="url(#SVGID_2_)">
			
				<path fill="#595959" stroke="#000000" stroke-width="2.4296" stroke-linecap="round" stroke-linejoin="round" stroke-miterlimit="10" d="
				M151.959,68.239l-7.165,0.004l0.757,18.198h0.059c-0.003,0.154,0.02,0.308,0.07,0.457c0.271,0.809,1.233,1.214,2.149,0.907
				c0.673-0.226,1.132-0.773,1.221-1.367l0.043-0.001L151.959,68.239z"/>
			
				<ellipse fill="#383838" stroke="#000000" stroke-width="2.4296" stroke-linecap="round" stroke-linejoin="round" stroke-miterlimit="10" cx="153.229" cy="111.918" rx="19.771" ry="29.844"/>
			
				<path fill="#383838" stroke="#000000" stroke-width="2.4296" stroke-linecap="round" stroke-linejoin="round" stroke-miterlimit="10" d="
				M133.562,111.918c0-13.295,5.761-24.56,13.72-28.418c-1.908-0.923-3.942-1.425-6.052-1.425c-10.92,0-19.771,13.361-19.771,29.843
				s8.852,29.844,19.771,29.844c2.11,0,4.144-0.501,6.052-1.426C139.322,136.478,133.562,125.215,133.562,111.918z"/>
		</g>
		<g clip-path="url(#SVGID_2_)">
			
				<path fill="#595959" stroke="#000000" stroke-width="2.4296" stroke-linecap="round" stroke-linejoin="round" stroke-miterlimit="10" d="
				M150.873,180.895l-7.166,0.004l0.757,18.199h0.059c-0.002,0.154,0.021,0.307,0.071,0.458c0.271,0.808,1.233,1.212,2.149,0.904
				c0.673-0.225,1.132-0.771,1.222-1.367l0.043,0L150.873,180.895z"/>
			
				<path fill="#C7C7C7" stroke="#000000" stroke-width="2.4296" stroke-linecap="round" stroke-linejoin="round" stroke-miterlimit="10" d="
				M160.825,213.757c-4.861-12.368-3.461-20.763-13.596-20.763c-10.136,0-8.735,8.395-13.596,20.763
				c-3.331,8.473-25.213,31.146,0,43.505c8.899,3.708,13.596,2.72,13.596,2.72s4.696,0.988,13.596-2.72
				C186.039,244.903,164.155,222.229,160.825,213.757z"/>
		</g>
		<g clip-path="url(#SVGID_2_)">
			
				<path fill="#595959" stroke="#000000" stroke-width="2.4296" stroke-linecap="round" stroke-linejoin="round" stroke-miterlimit="10" d="
				M225.852,178.239l-7.165,0.004l0.758,18.198h0.058c-0.002,0.154,0.021,0.308,0.07,0.457c0.271,0.809,1.233,1.214,2.149,0.907
				c0.673-0.226,1.132-0.773,1.222-1.367l0.042-0.001L225.852,178.239z"/>
			
				<ellipse fill="#383838" stroke="#000000" stroke-width="2.4296" stroke-linecap="round" stroke-linejoin="round" stroke-miterlimit="10" cx="227.123" cy="221.918" rx="19.771" ry="29.844"/>
			
				<path fill="#383838" stroke="#000000" stroke-width="2.4296" stroke-linecap="round" stroke-linejoin="round" stroke-miterlimit="10" d="
				M207.454,221.918c0-13.295,5.761-24.56,13.72-28.418c-1.908-0.923-3.941-1.425-6.052-1.425c-10.92,0-19.771,13.361-19.771,29.843
				s8.852,29.844,19.771,29.844c2.111,0,4.144-0.501,6.052-1.426C213.215,246.478,207.454,235.215,207.454,221.918z"/>
		</g>
		<g clip-path="url(#SVGID_2_)">
			
				<path fill="#595959" stroke="#000000" stroke-width="2.4296" stroke-linecap="round" stroke-linejoin="round" stroke-miterlimit="10" d="
				M222.331,63.675l-7.166,0.006l0.758,18.196h0.059c-0.002,0.156,0.021,0.308,0.071,0.457c0.271,0.809,1.233,1.213,2.149,0.907
				c0.673-0.226,1.132-0.773,1.222-1.367l0.043-0.002L222.331,63.675z"/>
			<g>
				
					<polygon fill="#454545" stroke="#000000" stroke-width="3.9482" stroke-linecap="round" stroke-linejoin="round" stroke-miterlimit="10" points="
					224.441,144.542 220.477,141.521 218.732,138.498 222.223,138.498 225.712,138.498 223.967,141.521 				"/>
				
					<polygon fill="#454545" stroke="#000000" stroke-width="3.9482" stroke-linecap="round" stroke-linejoin="round" stroke-miterlimit="10" points="
					218.732,144.542 216.987,141.521 215.242,138.498 218.732,138.498 222.223,138.498 220.477,141.521 				"/>
				
					<polygon fill="#454545" stroke="#000000" stroke-width="3.9482" stroke-linecap="round" stroke-linejoin="round" stroke-miterlimit="10" points="
					213.022,144.542 213.497,141.521 211.752,138.498 215.242,138.498 218.732,138.498 216.987,141.521 				"/>
			</g>
			
				<path fill="#C7C7C7" stroke="#000000" stroke-width="2.4296" stroke-linecap="round" stroke-linejoin="round" stroke-miterlimit="10" d="
				M232.282,96.537c-4.861-12.368-3.461-20.764-13.595-20.764c-10.136,0-8.735,8.396-13.596,20.764
				c-3.331,8.473-25.213,31.147,0,43.506c8.899,3.709,13.596,2.721,13.596,2.721s4.696,0.988,13.595-2.721
				C257.497,127.684,235.612,105.009,232.282,96.537z"/>
		</g>
		
			<circle clip-path="url(#SVGID_2_)" fill="none" stroke="#000000" stroke-width="1.2" stroke-miterlimit="10" cx="30.001" cy="55" r="7.5"/>
		
			<circle clip-path="url(#SVGID_2_)" fill="none" stroke="#000000" stroke-width="1.2" stroke-miterlimit="10" cx="30.001" cy="161" r="7.5"/>
		
			<circle clip-path="url(#SVGID_2_)" fill="none" stroke="#000000" stroke-width="1.2" stroke-miterlimit="10" cx="110" cy="161" r="7.5"/>
		
			<circle clip-path="url(#SVGID_2_)" fill="none" stroke="#000000" stroke-width="1.2" stroke-miterlimit="10" cx="110" cy="55" r="7.5"/>
		
			<circle clip-path="url(#SVGID_2_)" fill="none" stroke="#000000" stroke-width="1.2" stroke-miterlimit="10" cx="190.001" cy="55" r="7.5"/>
		
			<circle clip-path="url(#SVGID_2_)" fill="none" stroke="#000000" stroke-width="1.2" stroke-miterlimit="10" cx="190.001" cy="161" r="7.5"/>
	</g>
</g>
</svg>
