<?xml version="1.0" encoding="utf-8"?>
<!-- Generator: Adobe Illustrator 16.0.0, SVG Export Plug-In . SVG Version: 6.00 Build 0)  -->
<!DOCTYPE svg PUBLIC "-//W3C//DTD SVG 1.1//EN" "http://www.w3.org/Graphics/SVG/1.1/DTD/svg11.dtd">
<svg version="1.1" xmlns="http://www.w3.org/2000/svg" xmlns:xlink="http://www.w3.org/1999/xlink" x="0px" y="0px" width="220px"
	 height="220px" viewBox="0 0 220 220" enable-background="new 0 0 220 220" xml:space="preserve">
<g id="bg" display="none">
</g>
<g id="Layer_3">
</g>
<g id="Layer_1">
	<g>
		<defs>
			<rect id="SVGID_719_" x="0" y="0" width="220" height="220"/>
		</defs>
		<clipPath id="SVGID_2_">
			<use xlink:href="#SVGID_719_"  overflow="visible"/>
		</clipPath>
		<rect x="0" y="0" clip-path="url(#SVGID_2_)" fill="#9E9E9E" width="220" height="220"/>
		<g clip-path="url(#SVGID_2_)">
			
				<ellipse fill="#383838" stroke="#000000" stroke-width="2.4296" stroke-linecap="round" stroke-linejoin="round" stroke-miterlimit="10" cx="7.122" cy="1.918" rx="19.771" ry="29.844"/>
			
				<path fill="#383838" stroke="#000000" stroke-width="2.4296" stroke-linecap="round" stroke-linejoin="round" stroke-miterlimit="10" d="
				M-12.547,1.918c0-13.295,5.761-24.56,13.72-28.418c-1.908-0.923-3.941-1.425-6.052-1.425c-10.92,0-19.771,13.361-19.771,29.843
				s8.852,29.844,19.771,29.844c2.111,0,4.144-0.501,6.052-1.426C-6.786,26.478-12.547,15.215-12.547,1.918z"/>
		</g>
		<g clip-path="url(#SVGID_2_)">
			<g>
				
					<polygon fill="#454545" stroke="#000000" stroke-width="3.9482" stroke-linecap="round" stroke-linejoin="round" stroke-miterlimit="10" points="
					80.123,41.762 76.158,38.742 74.414,35.717 77.904,35.717 81.393,35.717 79.647,38.742 				"/>
				
					<polygon fill="#454545" stroke="#000000" stroke-width="3.9482" stroke-linecap="round" stroke-linejoin="round" stroke-miterlimit="10" points="
					74.414,41.762 72.668,38.742 70.923,35.717 74.414,35.717 77.904,35.717 76.158,38.742 				"/>
				
					<polygon fill="#454545" stroke="#000000" stroke-width="3.9482" stroke-linecap="round" stroke-linejoin="round" stroke-miterlimit="10" points="
					68.704,41.762 69.178,38.742 67.434,35.717 70.923,35.717 74.414,35.717 72.668,38.742 				"/>
			</g>
			
				<path fill="#C7C7C7" stroke="#000000" stroke-width="2.4296" stroke-linecap="round" stroke-linejoin="round" stroke-miterlimit="10" d="
				M87.964-6.243c-4.861-12.368-3.461-20.763-13.596-20.763c-10.136,0-8.735,8.395-13.596,20.763
				c-3.331,8.473-25.213,31.146,0,43.505c8.899,3.708,13.596,2.72,13.596,2.72s4.696,0.988,13.596-2.72
				C113.178,24.903,91.294,2.229,87.964-6.243z"/>
			
				<path fill="none" stroke="#000000" stroke-width="1.8222" stroke-linecap="round" stroke-linejoin="round" stroke-miterlimit="10" d="
				M87.345,28.563c0,0,6.36-8.269-2.349-20.398"/>
		</g>
		<g clip-path="url(#SVGID_2_)">
			
				<path fill="#595959" stroke="#000000" stroke-width="2.4296" stroke-linecap="round" stroke-linejoin="round" stroke-miterlimit="10" d="
				M79.098,68.239l-7.165,0.004l0.758,18.198h0.059c-0.003,0.154,0.02,0.308,0.07,0.457c0.271,0.809,1.233,1.214,2.149,0.907
				c0.673-0.226,1.132-0.773,1.222-1.367l0.043-0.001L79.098,68.239z"/>
			
				<ellipse fill="#383838" stroke="#000000" stroke-width="2.4296" stroke-linecap="round" stroke-linejoin="round" stroke-miterlimit="10" cx="80.369" cy="111.918" rx="19.771" ry="29.844"/>
			
				<path fill="#383838" stroke="#000000" stroke-width="2.4296" stroke-linecap="round" stroke-linejoin="round" stroke-miterlimit="10" d="
				M60.701,111.918c0-13.295,5.761-24.56,13.72-28.418c-1.908-0.923-3.942-1.425-6.052-1.425c-10.92,0-19.771,13.361-19.771,29.843
				s8.852,29.844,19.771,29.844c2.11,0,4.144-0.501,6.052-1.426C66.461,136.478,60.701,125.215,60.701,111.918z"/>
		</g>
		<g clip-path="url(#SVGID_2_)">
			
				<path fill="#595959" stroke="#000000" stroke-width="2.4296" stroke-linecap="round" stroke-linejoin="round" stroke-miterlimit="10" d="
				M7.261,68.239l-7.165,0.004l0.758,18.198h0.059c-0.003,0.154,0.02,0.308,0.07,0.457c0.271,0.809,1.233,1.214,2.149,0.907
				c0.673-0.226,1.132-0.773,1.222-1.367l0.043-0.001L7.261,68.239z"/>
			
				<ellipse fill="#383838" stroke="#000000" stroke-width="2.4296" stroke-linecap="round" stroke-linejoin="round" stroke-miterlimit="10" cx="8.532" cy="111.918" rx="19.771" ry="29.844"/>
			
				<path fill="#383838" stroke="#000000" stroke-width="2.4296" stroke-linecap="round" stroke-linejoin="round" stroke-miterlimit="10" d="
				M-11.137,111.918c0-13.295,5.761-24.56,13.72-28.418c-1.908-0.923-3.942-1.425-6.052-1.425c-10.92,0-19.771,13.361-19.771,29.843
				s8.852,29.844,19.771,29.844c2.11,0,4.144-0.501,6.052-1.426C-5.375,136.478-11.137,125.215-11.137,111.918z"/>
		</g>
		<g clip-path="url(#SVGID_2_)">
			
				<path fill="#595959" stroke="#000000" stroke-width="2.4296" stroke-linecap="round" stroke-linejoin="round" stroke-miterlimit="10" d="
				M227.261,68.239l-7.165,0.004l0.758,18.198h0.059c-0.003,0.154,0.02,0.308,0.07,0.457c0.271,0.809,1.233,1.214,2.149,0.907
				c0.673-0.226,1.132-0.773,1.222-1.367l0.043-0.001L227.261,68.239z"/>
			
				<ellipse fill="#383838" stroke="#000000" stroke-width="2.4296" stroke-linecap="round" stroke-linejoin="round" stroke-miterlimit="10" cx="228.532" cy="111.918" rx="19.771" ry="29.844"/>
			
				<path fill="#383838" stroke="#000000" stroke-width="2.4296" stroke-linecap="round" stroke-linejoin="round" stroke-miterlimit="10" d="
				M208.863,111.918c0-13.295,5.761-24.56,13.72-28.418c-1.908-0.923-3.942-1.425-6.052-1.425c-10.92,0-19.771,13.361-19.771,29.843
				s8.852,29.844,19.771,29.844c2.11,0,4.144-0.501,6.052-1.426C214.625,136.478,208.863,125.215,208.863,111.918z"/>
		</g>
		<g clip-path="url(#SVGID_2_)">
			
				<ellipse fill="#383838" stroke="#000000" stroke-width="2.4296" stroke-linecap="round" stroke-linejoin="round" stroke-miterlimit="10" cx="227.122" cy="1.918" rx="19.771" ry="29.844"/>
			
				<path fill="#383838" stroke="#000000" stroke-width="2.4296" stroke-linecap="round" stroke-linejoin="round" stroke-miterlimit="10" d="
				M207.453,1.918c0-13.295,5.761-24.56,13.72-28.418c-1.908-0.923-3.941-1.425-6.052-1.425c-10.92,0-19.771,13.361-19.771,29.843
				s8.852,29.844,19.771,29.844c2.111,0,4.144-0.501,6.052-1.426C213.214,26.478,207.453,15.215,207.453,1.918z"/>
		</g>
		<g clip-path="url(#SVGID_2_)">
			
				<path fill="#595959" stroke="#000000" stroke-width="2.4296" stroke-linecap="round" stroke-linejoin="round" stroke-miterlimit="10" d="
				M5.851,178.239l-7.165,0.004l0.758,18.198h0.058c-0.002,0.154,0.021,0.308,0.07,0.457c0.271,0.809,1.233,1.214,2.149,0.907
				c0.673-0.226,1.132-0.773,1.222-1.367l0.043-0.001L5.851,178.239z"/>
			
				<ellipse fill="#383838" stroke="#000000" stroke-width="2.4296" stroke-linecap="round" stroke-linejoin="round" stroke-miterlimit="10" cx="7.122" cy="221.918" rx="19.771" ry="29.844"/>
			
				<path fill="#383838" stroke="#000000" stroke-width="2.4296" stroke-linecap="round" stroke-linejoin="round" stroke-miterlimit="10" d="
				M-12.547,221.918c0-13.295,5.761-24.56,13.72-28.418c-1.908-0.923-3.941-1.425-6.052-1.425c-10.92,0-19.771,13.361-19.771,29.843
				s8.852,29.844,19.771,29.844c2.111,0,4.144-0.501,6.052-1.426C-6.786,246.478-12.547,235.215-12.547,221.918z"/>
		</g>
		<g clip-path="url(#SVGID_2_)">
			
				<path fill="#595959" stroke="#000000" stroke-width="2.4296" stroke-linecap="round" stroke-linejoin="round" stroke-miterlimit="10" d="
				M78.012,180.895l-7.166,0.004l0.757,18.199h0.059c-0.002,0.154,0.021,0.307,0.071,0.458c0.271,0.808,1.232,1.212,2.148,0.904
				c0.673-0.225,1.132-0.771,1.222-1.367l0.043,0L78.012,180.895z"/>
			
				<path fill="#C7C7C7" stroke="#000000" stroke-width="2.4296" stroke-linecap="round" stroke-linejoin="round" stroke-miterlimit="10" d="
				M87.964,213.757c-4.861-12.368-3.461-20.763-13.596-20.763c-10.136,0-8.735,8.395-13.596,20.763
				c-3.331,8.473-25.213,31.146,0,43.505c8.899,3.708,13.596,2.72,13.596,2.72s4.696,0.988,13.596-2.72
				C113.178,244.903,91.294,222.229,87.964,213.757z"/>
		</g>
		<g clip-path="url(#SVGID_2_)">
			<g>
				
					<polygon fill="#454545" stroke="#000000" stroke-width="3.9482" stroke-linecap="round" stroke-linejoin="round" stroke-miterlimit="10" points="
					152.982,41.762 149.018,38.742 147.273,35.717 150.764,35.717 154.253,35.717 152.507,38.742 				"/>
				
					<polygon fill="#454545" stroke="#000000" stroke-width="3.9482" stroke-linecap="round" stroke-linejoin="round" stroke-miterlimit="10" points="
					147.273,41.762 145.528,38.742 143.783,35.717 147.273,35.717 150.764,35.717 149.018,38.742 				"/>
				
					<polygon fill="#454545" stroke="#000000" stroke-width="3.9482" stroke-linecap="round" stroke-linejoin="round" stroke-miterlimit="10" points="
					141.563,41.762 142.038,38.742 140.294,35.717 143.783,35.717 147.273,35.717 145.528,38.742 				"/>
			</g>
			
				<path fill="#C7C7C7" stroke="#000000" stroke-width="2.4296" stroke-linecap="round" stroke-linejoin="round" stroke-miterlimit="10" d="
				M160.824-6.243c-4.861-12.368-3.461-20.763-13.596-20.763c-10.136,0-8.735,8.395-13.596,20.763
				c-3.331,8.473-25.213,31.146,0,43.505c8.899,3.708,13.596,2.72,13.596,2.72s4.696,0.988,13.596-2.72
				C186.038,24.903,164.154,2.229,160.824-6.243z"/>
			
				<path fill="none" stroke="#000000" stroke-width="1.8222" stroke-linecap="round" stroke-linejoin="round" stroke-miterlimit="10" d="
				M160.205,28.563c0,0,6.36-8.269-2.349-20.398"/>
		</g>
		<g clip-path="url(#SVGID_2_)">
			
				<path fill="#595959" stroke="#000000" stroke-width="2.4296" stroke-linecap="round" stroke-linejoin="round" stroke-miterlimit="10" d="
				M151.958,68.239l-7.165,0.004l0.757,18.198h0.059c-0.003,0.154,0.02,0.308,0.07,0.457c0.271,0.809,1.233,1.214,2.149,0.907
				c0.673-0.226,1.132-0.773,1.221-1.367l0.043-0.001L151.958,68.239z"/>
			
				<ellipse fill="#383838" stroke="#000000" stroke-width="2.4296" stroke-linecap="round" stroke-linejoin="round" stroke-miterlimit="10" cx="153.229" cy="111.918" rx="19.771" ry="29.844"/>
			
				<path fill="#383838" stroke="#000000" stroke-width="2.4296" stroke-linecap="round" stroke-linejoin="round" stroke-miterlimit="10" d="
				M133.561,111.918c0-13.295,5.761-24.56,13.72-28.418c-1.908-0.923-3.942-1.425-6.052-1.425c-10.92,0-19.771,13.361-19.771,29.843
				s8.852,29.844,19.771,29.844c2.11,0,4.144-0.501,6.052-1.426C139.321,136.478,133.561,125.215,133.561,111.918z"/>
		</g>
		<g clip-path="url(#SVGID_2_)">
			
				<path fill="#595959" stroke="#000000" stroke-width="2.4296" stroke-linecap="round" stroke-linejoin="round" stroke-miterlimit="10" d="
				M150.872,180.895l-7.166,0.004l0.757,18.199h0.059c-0.002,0.154,0.021,0.307,0.071,0.458c0.271,0.808,1.232,1.212,2.148,0.904
				c0.673-0.225,1.132-0.771,1.222-1.367l0.043,0L150.872,180.895z"/>
			
				<path fill="#C7C7C7" stroke="#000000" stroke-width="2.4296" stroke-linecap="round" stroke-linejoin="round" stroke-miterlimit="10" d="
				M160.824,213.757c-4.861-12.368-3.461-20.763-13.596-20.763c-10.136,0-8.735,8.395-13.596,20.763
				c-3.331,8.473-25.213,31.146,0,43.505c8.899,3.708,13.596,2.72,13.596,2.72s4.696,0.988,13.596-2.72
				C186.038,244.903,164.154,222.229,160.824,213.757z"/>
		</g>
		<g clip-path="url(#SVGID_2_)">
			
				<path fill="#595959" stroke="#000000" stroke-width="2.4296" stroke-linecap="round" stroke-linejoin="round" stroke-miterlimit="10" d="
				M225.851,178.239l-7.165,0.004l0.758,18.198h0.058c-0.002,0.154,0.021,0.308,0.071,0.457c0.271,0.809,1.233,1.214,2.149,0.907
				c0.673-0.226,1.132-0.773,1.222-1.367l0.043-0.001L225.851,178.239z"/>
			
				<ellipse fill="#383838" stroke="#000000" stroke-width="2.4296" stroke-linecap="round" stroke-linejoin="round" stroke-miterlimit="10" cx="227.122" cy="221.918" rx="19.771" ry="29.844"/>
			
				<path fill="#383838" stroke="#000000" stroke-width="2.4296" stroke-linecap="round" stroke-linejoin="round" stroke-miterlimit="10" d="
				M207.453,221.918c0-13.295,5.761-24.56,13.72-28.418c-1.908-0.923-3.941-1.425-6.052-1.425c-10.92,0-19.771,13.361-19.771,29.843
				s8.852,29.844,19.771,29.844c2.111,0,4.144-0.501,6.052-1.426C213.214,246.478,207.453,235.215,207.453,221.918z"/>
		</g>
		
			<circle clip-path="url(#SVGID_2_)" fill="#575757" stroke="#000000" stroke-width="1.2" stroke-miterlimit="10" cx="30" cy="55" r="7.5"/>
		
			<circle clip-path="url(#SVGID_2_)" fill="#575757" stroke="#000000" stroke-width="1.2" stroke-miterlimit="10" cx="30" cy="161" r="7.5"/>
		
			<circle clip-path="url(#SVGID_2_)" fill="#575757" stroke="#000000" stroke-width="1.2" stroke-miterlimit="10" cx="110" cy="161" r="7.5"/>
		
			<circle clip-path="url(#SVGID_2_)" fill="#575757" stroke="#000000" stroke-width="1.2" stroke-miterlimit="10" cx="110" cy="55" r="7.5"/>
		
			<circle clip-path="url(#SVGID_2_)" fill="#575757" stroke="#000000" stroke-width="1.2" stroke-miterlimit="10" cx="190" cy="55" r="7.5"/>
		
			<circle clip-path="url(#SVGID_2_)" fill="#575757" stroke="#000000" stroke-width="1.2" stroke-miterlimit="10" cx="190" cy="161" r="7.5"/>
	</g>
</g>
</svg>
