<?xml version="1.0" encoding="utf-8"?>
<!-- Generator: Adobe Illustrator 16.0.0, SVG Export Plug-In . SVG Version: 6.00 Build 0)  -->
<!DOCTYPE svg PUBLIC "-//W3C//DTD SVG 1.1//EN" "http://www.w3.org/Graphics/SVG/1.1/DTD/svg11.dtd">
<svg version="1.1" xmlns="http://www.w3.org/2000/svg" xmlns:xlink="http://www.w3.org/1999/xlink" x="0px" y="0px"
	 width="453.543px" height="453.543px" viewBox="0 0 453.543 453.543" enable-background="new 0 0 453.543 453.543"
	 xml:space="preserve">
<g id="kvadrat" display="none">
</g>
<g id="color">
	<path d="M262.519,279.352H189.7l-16.881,58.586h-39.057l70.501-216.47h45.016l70.501,216.47h-40.381L262.519,279.352z
		 M253.913,249.231l-7.613-26.479c-6.951-22.839-13.24-47.663-19.529-71.495h-1.324c-5.958,24.163-12.247,48.656-19.197,71.495
		l-7.613,26.479H253.913z"/>
	<g id="rdeča7bela">
	</g>
</g>
<g id="cb" display="none">
	<path display="inline" d="M262.519,279.352H189.7l-16.881,58.586h-39.057l70.501-216.47h45.016l70.501,216.47h-40.381
		L262.519,279.352z M253.913,249.231l-7.613-26.479c-6.951-22.839-13.24-47.663-19.529-71.495h-1.324
		c-5.958,24.163-12.247,48.656-19.197,71.495l-7.613,26.479H253.913z"/>
	<g id="rdeča7bela_copy" display="inline">
	</g>
</g>
<g id="pivot">
	<circle fill="none" cx="224.593" cy="335.376" r="14.133"/>
</g>
</svg>
