<?xml version="1.0" encoding="utf-8"?>
<!-- Generator: Adobe Illustrator 16.0.0, SVG Export Plug-In . SVG Version: 6.00 Build 0)  -->
<!DOCTYPE svg PUBLIC "-//W3C//DTD SVG 1.1//EN" "http://www.w3.org/Graphics/SVG/1.1/DTD/svg11.dtd">
<svg version="1.1" xmlns="http://www.w3.org/2000/svg" xmlns:xlink="http://www.w3.org/1999/xlink" x="0px" y="0px"
	 width="453.543px" height="453.543px" viewBox="0 0 453.543 453.543" enable-background="new 0 0 453.543 453.543"
	 xml:space="preserve">
<g id="kvadrat" display="none">
</g>
<g id="color">
	<path d="M242.328,163.362c20.853,0,36.74,8.274,47.663,18.866l-18.204,24.163c-8.606-7.613-17.212-11.916-27.473-11.916
		c-26.149,0-44.354,21.514-44.354,54.283c0,32.437,17.874,53.951,43.36,53.951c13.24,0,24.494-6.619,33.431-13.901l15.888,24.162
		c-15.226,13.571-34.755,20.853-53.29,20.853c-44.354,0-78.445-31.113-78.445-85.064
		C160.904,194.476,198.969,163.362,242.328,163.362z M194.665,91.867h26.479l19.86,28.134h1.323l19.86-28.134h26.148l-31.444,48.325
		h-30.783L194.665,91.867z"/>
	<g id="rdeča7bela">
	</g>
</g>
<g id="cb" display="none">
	<path display="inline" d="M242.328,163.362c20.853,0,36.74,8.274,47.663,18.866l-18.204,24.163
		c-8.606-7.613-17.212-11.916-27.473-11.916c-26.149,0-44.354,21.514-44.354,54.283c0,32.437,17.874,53.951,43.36,53.951
		c13.24,0,24.494-6.619,33.431-13.901l15.888,24.162c-15.226,13.571-34.755,20.853-53.29,20.853
		c-44.354,0-78.445-31.113-78.445-85.064C160.904,194.476,198.969,163.362,242.328,163.362z M194.665,91.867h26.479l19.86,28.134
		h1.323l19.86-28.134h26.148l-31.444,48.325h-30.783L194.665,91.867z"/>
	<g id="rdeča7bela_copy" display="inline">
	</g>
</g>
<g id="pivot">
	<circle fill="none" cx="222.097" cy="327.034" r="14.133"/>
</g>
</svg>
