<?xml version="1.0" encoding="utf-8"?>
<!-- Generator: Adobe Illustrator 16.0.0, SVG Export Plug-In . SVG Version: 6.00 Build 0)  -->
<!DOCTYPE svg PUBLIC "-//W3C//DTD SVG 1.1//EN" "http://www.w3.org/Graphics/SVG/1.1/DTD/svg11.dtd">
<svg version="1.1" xmlns="http://www.w3.org/2000/svg" xmlns:xlink="http://www.w3.org/1999/xlink" x="0px" y="0px"
	 width="453.543px" height="453.543px" viewBox="0 0 453.543 453.543" enable-background="new 0 0 453.543 453.543"
	 xml:space="preserve">
<g id="kvadrat" display="none">
</g>
<g id="color">
	<path d="M145.182,121.468h57.924c66.198,0,105.256,35.747,105.256,107.241c0,71.826-39.058,109.229-103.27,109.229h-59.91V121.468z
		 M200.458,306.824c43.691,0,68.516-24.824,68.516-78.115c0-52.959-24.825-76.128-68.516-76.128h-16.881v154.243H200.458z"/>
	<g id="rdeča7bela">
	</g>
</g>
<g id="cb" display="none">
	<path display="inline" d="M145.182,121.468h57.924c66.198,0,105.256,35.747,105.256,107.241
		c0,71.826-39.058,109.229-103.27,109.229h-59.91V121.468z M200.458,306.824c43.691,0,68.516-24.824,68.516-78.115
		c0-52.959-24.825-76.128-68.516-76.128h-16.881v154.243H200.458z"/>
	<g id="rdeča7bela_copy" display="inline">
	</g>
</g>
<g id="pivot">
	<circle fill="none" cx="216.252" cy="340.395" r="14.133"/>
</g>
</svg>
