<?xml version="1.0" encoding="utf-8"?>
<!-- Generator: Adobe Illustrator 16.0.0, SVG Export Plug-In . SVG Version: 6.00 Build 0)  -->
<!DOCTYPE svg PUBLIC "-//W3C//DTD SVG 1.1//EN" "http://www.w3.org/Graphics/SVG/1.1/DTD/svg11.dtd">
<svg version="1.1" xmlns="http://www.w3.org/2000/svg" xmlns:xlink="http://www.w3.org/1999/xlink" x="0px" y="0px"
	 width="453.543px" height="453.543px" viewBox="0 0 453.543 453.543" enable-background="new 0 0 453.543 453.543"
	 xml:space="preserve">
<g id="kvadrat" display="none">
</g>
<g id="color">
	<path d="M230.578,163.362c44.021,0,67.191,31.775,67.191,77.121c0,7.281-0.662,13.901-1.656,17.873H192.845
		c3.31,29.459,21.846,46.009,47.994,46.009c13.901,0,25.817-4.304,37.733-11.916l12.908,23.831
		c-15.557,10.262-35.085,17.543-55.606,17.543c-45.016,0-80.101-31.444-80.101-85.064
		C155.774,195.8,192.514,163.362,230.578,163.362z M264.67,234.194c0-25.817-10.923-41.374-33.1-41.374
		c-19.197,0-35.747,14.232-39.057,41.374H264.67z"/>
	<g id="rdeča7bela">
	</g>
</g>
<g id="cb" display="none">
	<path display="inline" d="M230.578,163.362c44.021,0,67.191,31.775,67.191,77.121c0,7.281-0.662,13.901-1.656,17.873H192.845
		c3.31,29.459,21.846,46.009,47.994,46.009c13.901,0,25.817-4.304,37.733-11.916l12.908,23.831
		c-15.557,10.262-35.085,17.543-55.606,17.543c-45.016,0-80.101-31.444-80.101-85.064
		C155.774,195.8,192.514,163.362,230.578,163.362z M264.67,234.194c0-25.817-10.923-41.374-33.1-41.374
		c-19.197,0-35.747,14.232-39.057,41.374H264.67z"/>
	<g id="rdeča7bela_copy" display="inline">
	</g>
</g>
<g id="pivot">
	<circle fill="none" cx="222.955" cy="332.053" r="14.133"/>
</g>
</svg>
