<?xml version="1.0" encoding="utf-8"?>
<!-- Generator: Adobe Illustrator 16.0.0, SVG Export Plug-In . SVG Version: 6.00 Build 0)  -->
<!DOCTYPE svg PUBLIC "-//W3C//DTD SVG 1.1//EN" "http://www.w3.org/Graphics/SVG/1.1/DTD/svg11.dtd">
<svg version="1.1" xmlns="http://www.w3.org/2000/svg" xmlns:xlink="http://www.w3.org/1999/xlink" x="0px" y="0px"
	 width="453.543px" height="453.543px" viewBox="0 0 453.543 453.543" enable-background="new 0 0 453.543 453.543"
	 xml:space="preserve">
<g id="kvadrat" display="none">
</g>
<g id="color">
	<path d="M272.284,126.29c-5.958-2.647-12.247-3.972-17.874-3.972c-13.24,0-20.521,8.606-20.521,27.473v17.542h31.775v30.121
		h-31.775v132.397h-38.064V197.454h-21.846v-28.465l21.846-1.656v-16.88c0-33.762,15.557-58.255,53.952-58.255
		c11.585,0,22.508,2.648,29.789,5.627L272.284,126.29z"/>
	<g id="rdeča7bela">
	</g>
</g>
<g id="cb" display="none">
	<path display="inline" d="M272.284,126.29c-5.958-2.647-12.247-3.972-17.874-3.972c-13.24,0-20.521,8.606-20.521,27.473v17.542
		h31.775v30.121h-31.775v132.397h-38.064V197.454h-21.846v-28.465l21.846-1.656v-16.88c0-33.762,15.557-58.255,53.952-58.255
		c11.585,0,22.508,2.648,29.789,5.627L272.284,126.29z"/>
	<g id="rdeča7bela_copy" display="inline">
	</g>
</g>
<g id="pivot">
	<circle fill="none" cx="224.6" cy="329.543" r="14.133"/>
</g>
</svg>
