<?xml version="1.0" encoding="utf-8"?>
<!-- Generator: Adobe Illustrator 16.0.0, SVG Export Plug-In . SVG Version: 6.00 Build 0)  -->
<!DOCTYPE svg PUBLIC "-//W3C//DTD SVG 1.1//EN" "http://www.w3.org/Graphics/SVG/1.1/DTD/svg11.dtd">
<svg version="1.1" xmlns="http://www.w3.org/2000/svg" xmlns:xlink="http://www.w3.org/1999/xlink" x="0px" y="0px"
	 width="453.543px" height="453.543px" viewBox="0 0 453.543 453.543" enable-background="new 0 0 453.543 453.543"
	 xml:space="preserve">
<g id="kvadrat" display="none">
</g>
<g id="color">
	<path d="M244.48,117.496c29.79,0,50.973,13.57,64.543,27.473L287.84,168.8c-10.922-10.592-22.838-17.874-43.029-17.874
		c-38.396,0-64.213,29.789-64.213,78.445c0,49.318,22.838,79.107,66.199,79.107c12.247,0,24.163-3.31,31.113-9.598V252.21h-41.043
		v-31.444h75.466v95.326c-14.895,14.564-40.381,25.817-70.17,25.817c-57.593,0-100.953-39.719-100.953-111.544
		C141.21,159.531,185.894,117.496,244.48,117.496z"/>
	<g id="rdeča7bela">
	</g>
</g>
<g id="cb" display="none">
	<path display="inline" d="M244.48,117.496c29.79,0,50.973,13.57,64.543,27.473L287.84,168.8
		c-10.922-10.592-22.838-17.874-43.029-17.874c-38.396,0-64.213,29.789-64.213,78.445c0,49.318,22.838,79.107,66.199,79.107
		c12.247,0,24.163-3.31,31.113-9.598V252.21h-41.043v-31.444h75.466v95.326c-14.895,14.564-40.381,25.817-70.17,25.817
		c-57.593,0-100.953-39.719-100.953-111.544C141.21,159.531,185.894,117.496,244.48,117.496z"/>
	<g id="rdeča7bela_copy" display="inline">
	</g>
</g>
<g id="pivot">
	<circle fill="none" cx="218.792" cy="337.885" r="14.133"/>
</g>
</svg>
