<?xml version="1.0" encoding="utf-8"?>
<!-- Generator: Adobe Illustrator 16.0.0, SVG Export Plug-In . SVG Version: 6.00 Build 0)  -->
<!DOCTYPE svg PUBLIC "-//W3C//DTD SVG 1.1//EN" "http://www.w3.org/Graphics/SVG/1.1/DTD/svg11.dtd">
<svg version="1.1" xmlns="http://www.w3.org/2000/svg" xmlns:xlink="http://www.w3.org/1999/xlink" x="0px" y="0px"
	 width="453.543px" height="453.543px" viewBox="0 0 453.543 453.543" enable-background="new 0 0 453.543 453.543"
	 xml:space="preserve">
<g id="kvadrat" display="none">
</g>
<g id="color">
	<path d="M188.708,285.641c8.606,15.888,20.521,22.838,33.761,22.838c20.191,0,30.452-10.922,30.452-41.705V121.468h38.395v148.616
		c0,39.389-19.198,71.825-64.543,71.825c-30.121,0-50.973-12.577-64.544-36.74L188.708,285.641z"/>
	<g id="rdeča7bela">
	</g>
</g>
<g id="cb" display="none">
	<path display="inline" d="M188.708,285.641c8.606,15.888,20.521,22.838,33.761,22.838c20.191,0,30.452-10.922,30.452-41.705
		V121.468h38.395v148.616c0,39.389-19.198,71.825-64.543,71.825c-30.121,0-50.973-12.577-64.544-36.74L188.708,285.641z"/>
	<g id="rdeča7bela_copy" display="inline">
	</g>
</g>
<g id="pivot">
	<circle fill="none" cx="220.823" cy="335.376" r="14.133"/>
</g>
</svg>
