<?xml version="1.0" encoding="utf-8"?>
<!-- Generator: Adobe Illustrator 16.0.0, SVG Export Plug-In . SVG Version: 6.00 Build 0)  -->
<!DOCTYPE svg PUBLIC "-//W3C//DTD SVG 1.1//EN" "http://www.w3.org/Graphics/SVG/1.1/DTD/svg11.dtd">
<svg version="1.1" xmlns="http://www.w3.org/2000/svg" xmlns:xlink="http://www.w3.org/1999/xlink" x="0px" y="0px"
	 width="453.543px" height="453.543px" viewBox="0 0 453.543 453.543" enable-background="new 0 0 453.543 453.543"
	 xml:space="preserve">
<g id="kvadrat" display="none">
</g>
<g id="color">
	<path d="M225.117,167.333h38.396v170.793c0,34.424-13.24,59.91-51.635,59.91c-11.916,0-20.191-1.986-26.479-4.303l7.281-28.465
		c4.303,1.323,8.938,2.647,13.902,2.647c14.563,0,18.535-10.261,18.535-29.128V167.333z M220.814,117.354
		c0-12.909,10.261-21.846,23.501-21.846c13.57,0,23.831,8.937,23.831,21.846c0,12.578-10.261,21.515-23.831,21.515
		C231.075,138.868,220.814,129.932,220.814,117.354z"/>
	<g id="rdeča7bela">
	</g>
</g>
<g id="cb" display="none">
	<path display="inline" d="M225.117,167.333h38.396v170.793c0,34.424-13.24,59.91-51.635,59.91c-11.916,0-20.191-1.986-26.479-4.303
		l7.281-28.465c4.303,1.323,8.938,2.647,13.902,2.647c14.563,0,18.535-10.261,18.535-29.128V167.333z M220.814,117.354
		c0-12.909,10.261-21.846,23.501-21.846c13.57,0,23.831,8.937,23.831,21.846c0,12.578-10.261,21.515-23.831,21.515
		C231.075,138.868,220.814,129.932,220.814,117.354z"/>
	<g id="rdeča7bela_copy" display="inline">
	</g>
</g>
<g id="pivot">
	<circle fill="none" cx="220.823" cy="327.034" r="14.133"/>
</g>
</svg>
