<?xml version="1.0" encoding="utf-8"?>
<!-- Generator: Adobe Illustrator 16.0.0, SVG Export Plug-In . SVG Version: 6.00 Build 0)  -->
<!DOCTYPE svg PUBLIC "-//W3C//DTD SVG 1.1//EN" "http://www.w3.org/Graphics/SVG/1.1/DTD/svg11.dtd">
<svg version="1.1" xmlns="http://www.w3.org/2000/svg" xmlns:xlink="http://www.w3.org/1999/xlink" x="0px" y="0px"
	 width="453.543px" height="453.543px" viewBox="0 0 453.543 453.543" enable-background="new 0 0 453.543 453.543"
	 xml:space="preserve">
<g id="kvadrat" display="none">
</g>
<g id="color">
	<path d="M198.14,96.17h38.064v193.962c0,9.269,4.303,12.578,8.275,12.578c1.654,0,2.979,0,5.958-0.662l4.965,28.466
		c-4.634,1.985-11.254,3.31-20.191,3.31c-27.141,0-37.071-17.543-37.071-45.677V96.17z"/>
	<g id="rdeča7bela">
	</g>
</g>
<g id="cb" display="none">
	<path display="inline" d="M198.14,96.17h38.064v193.962c0,9.269,4.303,12.578,8.275,12.578c1.654,0,2.979,0,5.958-0.662
		l4.965,28.466c-4.634,1.985-11.254,3.31-20.191,3.31c-27.141,0-37.071-17.543-37.071-45.677V96.17z"/>
	<g id="rdeča7bela_copy" display="inline">
	</g>
</g>
<g id="pivot">
	<circle fill="none" cx="221.68" cy="332.053" r="14.133"/>
</g>
</svg>
