<?xml version="1.0" encoding="utf-8"?>
<!-- Generator: Adobe Illustrator 16.0.0, SVG Export Plug-In . SVG Version: 6.00 Build 0)  -->
<!DOCTYPE svg PUBLIC "-//W3C//DTD SVG 1.1//EN" "http://www.w3.org/Graphics/SVG/1.1/DTD/svg11.dtd">
<svg version="1.1" xmlns="http://www.w3.org/2000/svg" xmlns:xlink="http://www.w3.org/1999/xlink" x="0px" y="0px"
	 width="453.544px" height="453.543px" viewBox="0 0 453.544 453.543" enable-background="new 0 0 453.544 453.543"
	 xml:space="preserve">
<g id="kvadrat" display="none">
</g>
<g id="color">
	<path d="M145.679,121.468h39.388l67.523,121.806l22.176,46.008h1.324c-1.654-22.176-4.965-49.648-4.965-73.812v-94.002h36.74
		v216.47h-39.388l-67.523-121.806l-22.176-46.009h-1.324c1.655,22.84,4.965,48.988,4.965,73.15v94.664h-36.74V121.468z"/>
	<g id="rdeča7bela">
	</g>
</g>
<g id="cb" display="none">
	<path display="inline" d="M145.679,121.468h39.388l67.523,121.806l22.176,46.008h1.324c-1.654-22.176-4.965-49.648-4.965-73.812
		v-94.002h36.74v216.47h-39.388l-67.523-121.806l-22.176-46.009h-1.324c1.655,22.84,4.965,48.988,4.965,73.15v94.664h-36.74V121.468
		z"/>
	<g id="rdeča7bela_copy" display="inline">
	</g>
</g>
<g id="pivot">
	<circle fill="none" cx="217.519" cy="337.885" r="14.133"/>
</g>
</svg>
