<?xml version="1.0" encoding="utf-8"?>
<!-- Generator: Adobe Illustrator 16.0.0, SVG Export Plug-In . SVG Version: 6.00 Build 0)  -->
<!DOCTYPE svg PUBLIC "-//W3C//DTD SVG 1.1//EN" "http://www.w3.org/Graphics/SVG/1.1/DTD/svg11.dtd">
<svg version="1.1" xmlns="http://www.w3.org/2000/svg" xmlns:xlink="http://www.w3.org/1999/xlink" x="0px" y="0px"
	 width="453.544px" height="453.543px" viewBox="0 0 453.544 453.543" enable-background="new 0 0 453.544 453.543"
	 xml:space="preserve">
<g id="kvadrat" display="none">
</g>
<g id="color">
	<path d="M149.153,121.468h72.82c47.332,0,82.416,16.55,82.416,66.86c0,47.994-35.746,70.171-82.416,70.171H187.55v79.438h-38.396
		V121.468z M218.993,227.717c32.107,0,47.664-12.909,47.664-39.389c0-27.141-16.219-36.078-47.664-36.078H187.55v75.467H218.993z"/>
	<g id="rdeča7bela">
	</g>
</g>
<g id="cb" display="none">
	<path display="inline" d="M149.153,121.468h72.82c47.332,0,82.416,16.55,82.416,66.86c0,47.994-35.746,70.171-82.416,70.171H187.55
		v79.438h-38.396V121.468z M218.993,227.717c32.107,0,47.664-12.909,47.664-39.389c0-27.141-16.219-36.078-47.664-36.078H187.55
		v75.467H218.993z"/>
	<g id="rdeča7bela_copy" display="inline">
	</g>
</g>
<g id="pivot">
	<circle fill="none" cx="228.413" cy="337.885" r="14.133"/>
</g>
</svg>
