<?xml version="1.0" encoding="utf-8"?>
<!-- Generator: Adobe Illustrator 16.0.0, SVG Export Plug-In . SVG Version: 6.00 Build 0)  -->
<!DOCTYPE svg PUBLIC "-//W3C//DTD SVG 1.1//EN" "http://www.w3.org/Graphics/SVG/1.1/DTD/svg11.dtd">
<svg version="1.1" xmlns="http://www.w3.org/2000/svg" xmlns:xlink="http://www.w3.org/1999/xlink" x="0px" y="0px"
	 width="453.543px" height="453.543px" viewBox="0 0 453.543 453.543" enable-background="new 0 0 453.543 453.543"
	 xml:space="preserve">
<g id="kvadrat" display="none">
</g>
<g id="color">
	<path d="M221.477,163.361c18.205,0,31.443,6.289,45.016,19.529h0.992l3.311-15.557h30.119v226.73H262.85v-53.29l1.324-26.811
		c-11.916,11.254-28.133,19.859-44.684,19.859c-40.713,0-66.861-31.444-66.861-85.065
		C152.629,195.799,186.061,163.361,221.477,163.361z M228.758,302.379c12.578,0,23.17-5.627,34.092-18.205v-75.797
		c-11.252-9.93-22.176-13.57-33.098-13.57c-20.854,0-37.734,19.528-37.734,53.621C192.018,283.513,205.258,302.379,228.758,302.379z
		"/>
	<g id="rdeča7bela">
	</g>
</g>
<g id="cb" display="none">
	<path display="inline" d="M221.477,163.361c18.205,0,31.443,6.289,45.016,19.529h0.992l3.311-15.557h30.119v226.73H262.85v-53.29
		l1.324-26.811c-11.916,11.254-28.133,19.859-44.684,19.859c-40.713,0-66.861-31.444-66.861-85.065
		C152.629,195.799,186.061,163.361,221.477,163.361z M228.758,302.379c12.578,0,23.17-5.627,34.092-18.205v-75.797
		c-11.252-9.93-22.176-13.57-33.098-13.57c-20.854,0-37.734,19.528-37.734,53.621C192.018,283.513,205.258,302.379,228.758,302.379z
		"/>
	<g id="rdeča7bela_copy" display="inline">
	</g>
</g>
<g id="pivot">
	<circle fill="none" cx="219.884" cy="329.543" r="14.132"/>
</g>
</svg>
