<?xml version="1.0" encoding="utf-8"?>
<!-- Generator: Adobe Illustrator 16.0.0, SVG Export Plug-In . SVG Version: 6.00 Build 0)  -->
<!DOCTYPE svg PUBLIC "-//W3C//DTD SVG 1.1//EN" "http://www.w3.org/Graphics/SVG/1.1/DTD/svg11.dtd">
<svg version="1.1" xmlns="http://www.w3.org/2000/svg" xmlns:xlink="http://www.w3.org/1999/xlink" x="0px" y="0px"
	 width="453.544px" height="453.543px" viewBox="0 0 453.544 453.543" enable-background="new 0 0 453.544 453.543"
	 xml:space="preserve">
<g id="kvadrat" display="none">
</g>
<g id="color">
	<path d="M264.339,337.938l-46.67-84.734h-33.1v84.734h-38.395v-216.47h73.148c45.016,0,79.439,15.888,79.439,64.213
		c0,33.099-17.211,52.959-43.029,61.896l51.635,90.361H264.339z M184.569,222.752h30.783c29.457,0,45.676-12.578,45.676-37.071
		c0-24.825-16.219-33.431-45.676-33.431h-30.783V222.752z"/>
	<g id="rdeča7bela">
	</g>
</g>
<g id="cb" display="none">
	<path display="inline" d="M264.339,337.938l-46.67-84.734h-33.1v84.734h-38.395v-216.47h73.148
		c45.016,0,79.439,15.888,79.439,64.213c0,33.099-17.211,52.959-43.029,61.896l51.635,90.361H264.339z M184.569,222.752h30.783
		c29.457,0,45.676-12.578,45.676-37.071c0-24.825-16.219-33.431-45.676-33.431h-30.783V222.752z"/>
	<g id="rdeča7bela_copy" display="inline">
	</g>
</g>
<g id="pivot">
	<circle fill="none" cx="227.587" cy="337.885" r="14.133"/>
</g>
</svg>
