<?xml version="1.0" encoding="utf-8"?>
<!-- Generator: Adobe Illustrator 16.0.0, SVG Export Plug-In . SVG Version: 6.00 Build 0)  -->
<!DOCTYPE svg PUBLIC "-//W3C//DTD SVG 1.1//EN" "http://www.w3.org/Graphics/SVG/1.1/DTD/svg11.dtd">
<svg version="1.1" xmlns="http://www.w3.org/2000/svg" xmlns:xlink="http://www.w3.org/1999/xlink" x="0px" y="0px"
	 width="453.544px" height="453.543px" viewBox="0 0 453.544 453.543" enable-background="new 0 0 453.544 453.543"
	 xml:space="preserve">
<g id="kvadrat" display="none">
</g>
<g id="color">
	<path d="M171.331,283.985c15.557,14.563,36.41,24.493,56.27,24.493c24.492,0,37.732-10.922,37.732-27.803
		c0-17.874-13.902-23.501-33.43-31.775l-29.789-12.909c-21.184-8.937-43.691-25.817-43.691-57.593
		c0-34.424,30.451-60.902,72.818-60.902c25.156,0,49.648,10.592,66.529,27.473l-19.529,24.493c-13.9-11.585-28.465-18.536-47-18.536
		c-20.521,0-34.092,9.6-34.092,25.486c0,16.881,16.549,23.17,34.422,30.452l29.459,12.247
		c25.486,10.922,43.691,27.141,43.691,58.586c0,35.085-29.127,64.212-77.783,64.212c-29.127,0-57.594-11.585-78.115-31.775
		L171.331,283.985z"/>
	<g id="rdeča7bela">
	</g>
</g>
<g id="cb" display="none">
	<path display="inline" d="M171.331,283.985c15.557,14.563,36.41,24.493,56.27,24.493c24.492,0,37.732-10.922,37.732-27.803
		c0-17.874-13.902-23.501-33.43-31.775l-29.789-12.909c-21.184-8.937-43.691-25.817-43.691-57.593
		c0-34.424,30.451-60.902,72.818-60.902c25.156,0,49.648,10.592,66.529,27.473l-19.529,24.493c-13.9-11.585-28.465-18.536-47-18.536
		c-20.521,0-34.092,9.6-34.092,25.486c0,16.881,16.549,23.17,34.422,30.452l29.459,12.247
		c25.486,10.922,43.691,27.141,43.691,58.586c0,35.085-29.127,64.212-77.783,64.212c-29.127,0-57.594-11.585-78.115-31.775
		L171.331,283.985z"/>
	<g id="rdeča7bela_copy" display="inline">
	</g>
</g>
<g id="pivot">
	<circle fill="none" cx="226.761" cy="337.885" r="14.133"/>
</g>
</svg>
