<?xml version="1.0" encoding="utf-8"?>
<!-- Generator: Adobe Illustrator 16.0.0, SVG Export Plug-In . SVG Version: 6.00 Build 0)  -->
<!DOCTYPE svg PUBLIC "-//W3C//DTD SVG 1.1//EN" "http://www.w3.org/Graphics/SVG/1.1/DTD/svg11.dtd">
<svg version="1.1" xmlns="http://www.w3.org/2000/svg" xmlns:xlink="http://www.w3.org/1999/xlink" x="0px" y="0px"
	 width="453.544px" height="453.543px" viewBox="0 0 453.544 453.543" enable-background="new 0 0 453.544 453.543"
	 xml:space="preserve">
<g id="kvadrat" display="none">
</g>
<g id="color">
	<path d="M171.331,283.985c15.557,14.563,36.409,24.493,56.269,24.493c24.494,0,37.733-10.922,37.733-27.803
		c0-17.874-13.901-23.501-33.431-31.775l-29.789-12.909c-21.184-8.937-43.691-25.817-43.691-57.593
		c0-34.424,30.451-60.902,72.818-60.902c25.156,0,49.649,10.592,66.53,27.473l-19.528,24.493
		c-13.902-11.585-28.466-18.536-47.002-18.536c-20.521,0-34.092,9.6-34.092,25.486c0,16.881,16.55,23.17,34.424,30.452
		l29.458,12.247c25.486,10.922,43.69,27.141,43.69,58.586c0,35.085-29.127,64.212-77.783,64.212
		c-29.127,0-57.593-11.585-78.114-31.775L171.331,283.985z M280.89,66.522l-31.775,38.396h-37.071l-31.775-38.396h29.789
		l19.86,21.184h1.323l19.86-21.184H280.89z"/>
	<g id="rdeča7bela">
	</g>
</g>
<g id="cb" display="none">
	<path display="inline" d="M171.331,283.985c15.557,14.563,36.409,24.493,56.269,24.493c24.494,0,37.733-10.922,37.733-27.803
		c0-17.874-13.901-23.501-33.431-31.775l-29.789-12.909c-21.184-8.937-43.691-25.817-43.691-57.593
		c0-34.424,30.451-60.902,72.818-60.902c25.156,0,49.649,10.592,66.53,27.473l-19.528,24.493
		c-13.902-11.585-28.466-18.536-47.002-18.536c-20.521,0-34.092,9.6-34.092,25.486c0,16.881,16.55,23.17,34.424,30.452
		l29.458,12.247c25.486,10.922,43.69,27.141,43.69,58.586c0,35.085-29.127,64.212-77.783,64.212
		c-29.127,0-57.593-11.585-78.114-31.775L171.331,283.985z M280.89,66.522l-31.775,38.396h-37.071l-31.775-38.396h29.789
		l19.86,21.184h1.323l19.86-21.184H280.89z"/>
	<g id="rdeča7bela_copy" display="inline">
	</g>
</g>
<g id="pivot">
	<circle fill="none" cx="227.32" cy="340.021" r="14.133"/>
</g>
</svg>
