<?xml version="1.0" encoding="utf-8"?>
<!-- Generator: Adobe Illustrator 16.0.0, SVG Export Plug-In . SVG Version: 6.00 Build 0)  -->
<!DOCTYPE svg PUBLIC "-//W3C//DTD SVG 1.1//EN" "http://www.w3.org/Graphics/SVG/1.1/DTD/svg11.dtd">
<svg version="1.1" xmlns="http://www.w3.org/2000/svg" xmlns:xlink="http://www.w3.org/1999/xlink" x="0px" y="0px"
	 width="453.544px" height="453.543px" viewBox="0 0 453.544 453.543" enable-background="new 0 0 453.544 453.543"
	 xml:space="preserve">
<g id="kvadrat" display="none">
</g>
<g id="color">
	<path d="M182.253,286.822c14.564,11.254,28.465,18.205,45.016,18.205c17.543,0,25.816-8.275,25.816-19.529
		c0-13.57-17.542-19.528-34.754-26.148c-21.514-7.943-45.677-20.19-45.677-47.332c0-28.465,22.839-48.656,59.247-48.656
		c22.508,0,40.713,9.268,53.953,19.529l-17.543,23.17c-11.254-8.275-22.839-13.902-35.748-13.902
		c-16.219,0-23.831,7.613-23.831,17.873c0,12.909,16.219,17.874,33.761,24.163c22.178,8.274,46.671,18.866,46.671,49.318
		c0,27.804-22.177,50.311-63.22,50.311c-22.177,0-45.678-9.599-61.564-22.507L182.253,286.822z"/>
	<g id="rdeča7bela">
	</g>
</g>
<g id="cb" display="none">
	<path display="inline" d="M182.253,286.822c14.564,11.254,28.465,18.205,45.016,18.205c17.543,0,25.816-8.275,25.816-19.529
		c0-13.57-17.542-19.528-34.754-26.148c-21.514-7.943-45.677-20.19-45.677-47.332c0-28.465,22.839-48.656,59.247-48.656
		c22.508,0,40.713,9.268,53.953,19.529l-17.543,23.17c-11.254-8.275-22.839-13.902-35.748-13.902
		c-16.219,0-23.831,7.613-23.831,17.873c0,12.909,16.219,17.874,33.761,24.163c22.178,8.274,46.671,18.866,46.671,49.318
		c0,27.804-22.177,50.311-63.22,50.311c-22.177,0-45.678-9.599-61.564-22.507L182.253,286.822z"/>
	<g id="rdeča7bela_copy" display="inline">
	</g>
</g>
<g id="pivot">
	<circle fill="none" cx="226.761" cy="329.543" r="14.133"/>
</g>
</svg>
