<?xml version="1.0" encoding="utf-8"?>
<!-- Generator: Adobe Illustrator 16.0.0, SVG Export Plug-In . SVG Version: 6.00 Build 0)  -->
<!DOCTYPE svg PUBLIC "-//W3C//DTD SVG 1.1//EN" "http://www.w3.org/Graphics/SVG/1.1/DTD/svg11.dtd">
<svg version="1.1" xmlns="http://www.w3.org/2000/svg" xmlns:xlink="http://www.w3.org/1999/xlink" x="0px" y="0px"
	 width="453.544px" height="453.543px" viewBox="0 0 453.544 453.543" enable-background="new 0 0 453.544 453.543"
	 xml:space="preserve">
<g id="kvadrat" display="none">
</g>
<g id="color">
	<path d="M100.497,121.468h39.389l18.867,109.228c3.641,23.17,7.281,46.34,10.592,69.178h1.324
		c4.634-22.838,9.268-46.339,14.232-69.178l26.479-109.228h33.431l26.479,109.228c4.967,22.508,9.6,46.008,14.564,69.178h1.324
		c3.311-23.17,6.95-46.339,10.261-69.178l18.866-109.228h36.74l-41.373,216.47h-47.664l-26.811-113.861
		c-3.641-16.881-6.951-33.431-9.6-49.98h-1.323c-2.979,16.55-6.288,33.1-9.93,49.98l-26.147,113.861h-46.67L100.497,121.468z"/>
	<g id="rdeča7bela">
	</g>
</g>
<g id="cb" display="none">
	<path display="inline" d="M100.497,121.468h39.389l18.867,109.228c3.641,23.17,7.281,46.34,10.592,69.178h1.324
		c4.634-22.838,9.268-46.339,14.232-69.178l26.479-109.228h33.431l26.479,109.228c4.967,22.508,9.6,46.008,14.564,69.178h1.324
		c3.311-23.17,6.95-46.339,10.261-69.178l18.866-109.228h36.74l-41.373,216.47h-47.664l-26.811-113.861
		c-3.641-16.881-6.951-33.431-9.6-49.98h-1.323c-2.979,16.55-6.288,33.1-9.93,49.98l-26.147,113.861h-46.67L100.497,121.468z"/>
	<g id="rdeča7bela_copy" display="inline">
	</g>
</g>
<g id="pivot">
	<circle fill="none" cx="220.71" cy="340.021" r="14.133"/>
</g>
</svg>
