<?xml version="1.0" encoding="utf-8"?>
<!-- Generator: Adobe Illustrator 16.0.0, SVG Export Plug-In . SVG Version: 6.00 Build 0)  -->
<!DOCTYPE svg PUBLIC "-//W3C//DTD SVG 1.1//EN" "http://www.w3.org/Graphics/SVG/1.1/DTD/svg11.dtd">
<svg version="1.1" xmlns="http://www.w3.org/2000/svg" xmlns:xlink="http://www.w3.org/1999/xlink" x="0px" y="0px"
	 width="453.544px" height="453.543px" viewBox="0 0 453.544 453.543" enable-background="new 0 0 453.544 453.543"
	 xml:space="preserve">
<g id="kvadrat" display="none">
</g>
<g id="color">
	<path d="M110.925,167.334h38.395l19.529,84.403c3.309,15.557,5.627,30.782,8.605,46.67h1.324
		c2.979-15.888,6.289-31.444,10.26-46.67l21.184-84.403h34.754l21.516,84.403c3.973,15.557,7.281,30.782,10.922,46.67h1.324
		c2.98-15.888,5.627-31.113,8.605-46.67l19.529-84.403h35.748l-41.375,162.518h-45.346l-18.867-75.797
		c-3.641-15.227-6.289-30.121-9.93-47.333h-1.324c-2.979,17.212-5.957,32.438-9.598,47.663l-18.537,75.467h-43.689L110.925,167.334z
		"/>
	<g id="rdeča7bela">
	</g>
</g>
<g id="cb" display="none">
	<path display="inline" d="M110.925,167.334h38.395l19.529,84.403c3.309,15.557,5.627,30.782,8.605,46.67h1.324
		c2.979-15.888,6.289-31.444,10.26-46.67l21.184-84.403h34.754l21.516,84.403c3.973,15.557,7.281,30.782,10.922,46.67h1.324
		c2.98-15.888,5.627-31.113,8.605-46.67l19.529-84.403h35.748l-41.375,162.518h-45.346l-18.867-75.797
		c-3.641-15.227-6.289-30.121-9.93-47.333h-1.324c-2.979,17.212-5.957,32.438-9.598,47.663l-18.537,75.467h-43.689L110.925,167.334z
		"/>
	<g id="rdeča7bela_copy" display="inline">
	</g>
</g>
<g id="pivot">
	<circle fill="none" cx="220.71" cy="329.543" r="14.133"/>
</g>
</svg>
