<?xml version="1.0" encoding="utf-8"?>
<!-- Generator: Adobe Illustrator 16.0.0, SVG Export Plug-In . SVG Version: 6.00 Build 0)  -->
<!DOCTYPE svg PUBLIC "-//W3C//DTD SVG 1.1//EN" "http://www.w3.org/Graphics/SVG/1.1/DTD/svg11.dtd">
<svg version="1.1" xmlns="http://www.w3.org/2000/svg" xmlns:xlink="http://www.w3.org/1999/xlink" x="0px" y="0px"
	 width="453.543px" height="453.543px" viewBox="0 0 453.543 453.543" enable-background="new 0 0 453.543 453.543"
	 xml:space="preserve">
<g id="kvadrat" display="none">
</g>
<g id="color">
	<path d="M203.105,226.393l-57.592-104.925h42.697l23.832,47.994c5.295,9.93,9.93,20.19,16.549,33.099h1.324
		c5.297-12.908,9.6-23.169,14.564-33.099l22.838-47.994h40.713l-57.594,106.58l61.564,109.89h-42.697l-26.48-50.973
		c-5.627-11.254-10.922-22.177-17.541-35.416h-1.324c-5.627,13.239-10.592,24.162-15.889,35.416l-25.816,50.973h-40.713
		L203.105,226.393z"/>
	<g id="rdeča7bela">
	</g>
</g>
<g id="cb" display="none">
	<path display="inline" d="M203.105,226.393l-57.592-104.925h42.697l23.832,47.994c5.295,9.93,9.93,20.19,16.549,33.099h1.324
		c5.297-12.908,9.6-23.169,14.564-33.099l22.838-47.994h40.713l-57.594,106.58l61.564,109.89h-42.697l-26.48-50.973
		c-5.627-11.254-10.922-22.177-17.541-35.416h-1.324c-5.627,13.239-10.592,24.162-15.889,35.416l-25.816,50.973h-40.713
		L203.105,226.393z"/>
	<g id="rdeča7bela_copy" display="inline">
	</g>
</g>
<g id="pivot">
	<circle fill="none" cx="222.362" cy="340.021" r="14.133"/>
</g>
</svg>
