<?xml version="1.0" encoding="utf-8"?>
<!-- Generator: Adobe Illustrator 16.0.0, SVG Export Plug-In . SVG Version: 6.00 Build 0)  -->
<!DOCTYPE svg PUBLIC "-//W3C//DTD SVG 1.1//EN" "http://www.w3.org/Graphics/SVG/1.1/DTD/svg11.dtd">
<svg version="1.1" xmlns="http://www.w3.org/2000/svg" xmlns:xlink="http://www.w3.org/1999/xlink" x="0px" y="0px"
	 width="453.545px" height="453.543px" viewBox="0 0 453.545 453.543" enable-background="new 0 0 453.545 453.543"
	 xml:space="preserve">
<g id="kvadrat" display="none">
</g>
<g id="color">
	<path d="M177.287,365.93c17.213,0,27.144-11.584,32.439-27.803l2.977-10.262l-63.88-160.531h38.726l28.135,79.77
		c4.634,14.232,9.268,30.451,14.232,45.677h1.324c3.972-14.895,8.275-31.113,12.246-45.677l24.495-79.77h36.74l-58.918,169.799
		c-13.57,36.74-30.451,59.58-65.868,59.58c-8.937,0-15.226-1.324-21.184-3.311l6.951-29.789
		C168.684,364.605,173.316,365.93,177.287,365.93z"/>
	<g id="rdeča7bela">
	</g>
</g>
<g id="cb" display="none">
	<path display="inline" d="M177.287,365.93c17.213,0,27.144-11.584,32.439-27.803l2.977-10.262l-63.88-160.531h38.726l28.135,79.77
		c4.634,14.232,9.268,30.451,14.232,45.677h1.324c3.972-14.895,8.275-31.113,12.246-45.677l24.495-79.77h36.74l-58.918,169.799
		c-13.57,36.74-30.451,59.58-65.868,59.58c-8.937,0-15.226-1.324-21.184-3.311l6.951-29.789
		C168.684,364.605,173.316,365.93,177.287,365.93z"/>
	<g id="rdeča7bela_copy" display="inline">
	</g>
</g>
<g id="pivot">
	<circle fill="none" cx="221.538" cy="329.543" r="14.133"/>
</g>
</svg>
