<?xml version="1.0" encoding="utf-8"?>
<!-- Generator: Adobe Illustrator 16.0.0, SVG Export Plug-In . SVG Version: 6.00 Build 0)  -->
<!DOCTYPE svg PUBLIC "-//W3C//DTD SVG 1.1//EN" "http://www.w3.org/Graphics/SVG/1.1/DTD/svg11.dtd">
<svg version="1.1" xmlns="http://www.w3.org/2000/svg" xmlns:xlink="http://www.w3.org/1999/xlink" x="0px" y="0px" width="220px"
	 height="220px" viewBox="0 0 220 220" enable-background="new 0 0 220 220" xml:space="preserve">
<g id="bg">
	<g>
		<g>
			<g>
				<rect fill="none" width="220" height="220"/>
			</g>
		</g>
	</g>
</g>
<g id="Layer_1">
	<g>
		
			<path fill="none" stroke="#010202" stroke-width="2.4" stroke-linecap="round" stroke-linejoin="round" stroke-miterlimit="10" d="
			M65.57,0.66c0,0-19.768-16.289-55.021,0.805s-57.527,8.59-62.189,4.684"/>
		
			<path fill="#1F71B8" stroke="#010202" stroke-width="2.4" stroke-linecap="round" stroke-linejoin="round" stroke-miterlimit="10" d="
			M47.18-5.787c24.299,51.398,76.166,39.25,80.838,4.205c0,0,0.363-5.598,0.363-4.275c0,1.32-0.363-4.137-0.363-4.137
			C123.346-45.039,71.479-57.188,47.18-5.787"/>
		
			<polygon fill="#1F71B8" stroke="#010202" stroke-width="2.4" stroke-linecap="round" stroke-linejoin="round" stroke-miterlimit="10" points="
			48.861,-7.979 43.604,-10.471 43.604,-1.104 48.861,-3.596 		"/>
		
			<path fill="none" stroke="#010202" stroke-width="2.4" stroke-linecap="round" stroke-linejoin="round" stroke-miterlimit="10" d="
			M119.623,0.479c-0.725,7.795-9.428,20.385-24.293,20.125"/>
		<g>
			
				<path fill="none" stroke="#010202" stroke-width="2.4" stroke-linecap="round" stroke-linejoin="round" stroke-miterlimit="10" d="
				M41.348,36.451c0,0-11.084-17.766-42.852-13.684c-31.77,4.08-46.82-8.303-49.418-12.541"/>
			
				<path fill="#E20717" stroke="#010202" stroke-width="2.4" stroke-linecap="round" stroke-linejoin="round" stroke-miterlimit="10" d="
				M28.771,26.672c5.467,46.154,48.826,50.227,61.561,24.279c0,0,1.736-4.242,1.393-3.219s0.793-3.301,0.793-3.301
				C98.01,16.057,60.971-6.848,28.771,26.672"/>
			
				<polygon fill="#E20717" stroke="#010202" stroke-width="2.4" stroke-linecap="round" stroke-linejoin="round" stroke-miterlimit="10" points="
				30.645,25.41 27.217,22.111 24.781,29.371 29.504,28.807 			"/>
			
				<path fill="none" stroke="#010202" stroke-width="2.4" stroke-linecap="round" stroke-linejoin="round" stroke-miterlimit="10" d="
				M83.289,50.365c-2.59,5.854-12.607,13.348-24.063,9.281"/>
		</g>
		<g>
			
				<path fill="none" stroke="#010202" stroke-width="2.4" stroke-linecap="round" stroke-linejoin="round" stroke-miterlimit="10" d="
				M27.957-29.992c0,0-17.729-5.773-37.063,15.193C-28.439,6.17-45.795,6.338-49.992,4.932"/>
		</g>
	</g>
	<g>
		
			<path fill="none" stroke="#010202" stroke-width="2.4" stroke-linecap="round" stroke-linejoin="round" stroke-miterlimit="10" d="
			M156.662,99.344c0,0,19.766,16.289,55.021-0.803c35.254-17.094,57.525-8.592,62.188-4.684"/>
		
			<path fill="#1F71B8" stroke="#010202" stroke-width="2.4" stroke-linecap="round" stroke-linejoin="round" stroke-miterlimit="10" d="
			M175.051,105.791c-24.297-51.4-76.164-39.25-80.838-4.205c0,0-0.361,5.596-0.361,4.275s0.361,4.135,0.361,4.135
			C98.887,145.041,150.754,157.191,175.051,105.791"/>
		
			<polygon fill="#1F71B8" stroke="#010202" stroke-width="2.4" stroke-linecap="round" stroke-linejoin="round" stroke-miterlimit="10" points="
			173.371,107.982 178.629,110.475 178.629,101.107 173.371,103.6 		"/>
		
			<path fill="none" stroke="#010202" stroke-width="2.4" stroke-linecap="round" stroke-linejoin="round" stroke-miterlimit="10" d="
			M102.607,99.525c0.727-7.797,9.428-20.385,24.295-20.125"/>
		<g>
			
				<path fill="none" stroke="#010202" stroke-width="2.4" stroke-linecap="round" stroke-linejoin="round" stroke-miterlimit="10" d="
				M194.273,129.996c0,0,17.729,5.773,37.064-15.193c19.334-20.969,36.688-21.137,40.887-19.73"/>
			
				<path fill="#FFD009" stroke="#010202" stroke-width="2.4" stroke-linecap="round" stroke-linejoin="round" stroke-miterlimit="10" d="
				M208.449,129.469c-30.146-28.357-62.053-6.316-55.889,18.672c0,0,1.244,3.889,0.893,2.992c-0.352-0.895,1.348,2.705,1.348,2.705
				C167.297,176.338,205.672,170.762,208.449,129.469"/>
			
				<polygon fill="#FFD009" stroke="#010202" stroke-width="2.4" stroke-linecap="round" stroke-linejoin="round" stroke-miterlimit="10" points="
				207.895,131.4 212.121,131.689 209.627,125.342 206.729,128.432 			"/>
			
				<path fill="none" stroke="#010202" stroke-width="2.4" stroke-linecap="round" stroke-linejoin="round" stroke-miterlimit="10" d="
				M157.699,144.51c-1.584-5.475,0.961-16.322,11.104-20.104"/>
		</g>
	</g>
	<g>
		
			<path fill="none" stroke="#010202" stroke-width="2.4" stroke-linecap="round" stroke-linejoin="round" stroke-miterlimit="10" d="
			M-63.781,99.344c0,0,19.768,16.289,55.021-0.803c35.254-17.094,57.527-8.592,62.189-4.684"/>
		<g>
			
				<path fill="none" stroke="#010202" stroke-width="2.4" stroke-linecap="round" stroke-linejoin="round" stroke-miterlimit="10" d="
				M-26.168,129.996c0,0,17.729,5.773,37.063-15.193c19.334-20.969,36.689-21.137,40.887-19.73"/>
		</g>
	</g>
	<g>
		
			<path fill="none" stroke="#010202" stroke-width="2.4" stroke-linecap="round" stroke-linejoin="round" stroke-miterlimit="10" d="
			M65.57,220.66c0,0-19.768-16.289-55.021,0.805s-57.527,8.59-62.189,4.684"/>
		
			<path fill="#1F71B8" stroke="#010202" stroke-width="2.4" stroke-linecap="round" stroke-linejoin="round" stroke-miterlimit="10" d="
			M47.18,214.213c24.299,51.398,76.166,39.25,80.838,4.205c0,0,0.363-5.598,0.363-4.275c0,1.32-0.363-4.137-0.363-4.137
			C123.346,174.961,71.479,162.813,47.18,214.213"/>
		
			<polygon fill="#1F71B8" stroke="#010202" stroke-width="2.4" stroke-linecap="round" stroke-linejoin="round" stroke-miterlimit="10" points="
			48.861,212.021 43.604,209.529 43.604,218.896 48.861,216.404 		"/>
		
			<path fill="none" stroke="#010202" stroke-width="2.4" stroke-linecap="round" stroke-linejoin="round" stroke-miterlimit="10" d="
			M119.623,220.479c-0.725,7.795-9.428,20.385-24.293,20.125"/>
		<g>
			
				<path fill="none" stroke="#010202" stroke-width="2.4" stroke-linecap="round" stroke-linejoin="round" stroke-miterlimit="10" d="
				M27.957,190.008c0,0-17.729-5.773-37.063,15.193c-19.334,20.969-36.689,21.137-40.887,19.73"/>
			
				<path fill="#FFD009" stroke="#010202" stroke-width="2.4" stroke-linecap="round" stroke-linejoin="round" stroke-miterlimit="10" d="
				M13.781,190.535c30.148,28.355,62.055,6.314,55.889-18.672c0,0-1.244-3.889-0.893-2.994s-1.346-2.705-1.346-2.705
				C54.936,143.664,16.561,149.242,13.781,190.535"/>
			
				<polygon fill="#FFD009" stroke="#010202" stroke-width="2.4" stroke-linecap="round" stroke-linejoin="round" stroke-miterlimit="10" points="
				14.338,188.604 10.111,188.314 12.605,194.662 15.504,191.572 			"/>
			
				<path fill="none" stroke="#010202" stroke-width="2.4" stroke-linecap="round" stroke-linejoin="round" stroke-miterlimit="10" d="
				M64.531,175.494c1.584,5.475-0.959,16.32-11.102,20.102"/>
		</g>
	</g>
	<g>
		
			<path fill="none" stroke="#010202" stroke-width="2.4" stroke-linecap="round" stroke-linejoin="round" stroke-miterlimit="10" d="
			M284.664,0.66c0,0-19.766-16.289-55.021,0.805c-35.254,17.094-57.525,8.59-62.188,4.684"/>
		<g>
			
				<path fill="none" stroke="#010202" stroke-width="2.4" stroke-linecap="round" stroke-linejoin="round" stroke-miterlimit="10" d="
				M260.441,36.451c0,0-11.084-17.766-42.852-13.684c-31.77,4.08-46.82-8.303-49.418-12.541"/>
		</g>
		<g>
			
				<path fill="none" stroke="#010202" stroke-width="2.4" stroke-linecap="round" stroke-linejoin="round" stroke-miterlimit="10" d="
				M247.053-29.992c0,0-17.729-5.773-37.064,15.193C190.654,6.17,173.301,6.338,169.102,4.932"/>
		</g>
	</g>
	<g>
		
			<path fill="none" stroke="#010202" stroke-width="2.4" stroke-linecap="round" stroke-linejoin="round" stroke-miterlimit="10" d="
			M284.664,220.66c0,0-19.766-16.289-55.021,0.805c-35.254,17.094-57.525,8.59-62.188,4.684"/>
		<g>
			
				<path fill="none" stroke="#010202" stroke-width="2.4" stroke-linecap="round" stroke-linejoin="round" stroke-miterlimit="10" d="
				M247.053,190.008c0,0-17.729-5.773-37.064,15.193c-19.334,20.969-36.688,21.137-40.887,19.73"/>
		</g>
	</g>
</g>
</svg>
