<?xml version="1.0" encoding="utf-8"?>
<!-- Generator: Adobe Illustrator 16.0.0, SVG Export Plug-In . SVG Version: 6.00 Build 0)  -->
<!DOCTYPE svg PUBLIC "-//W3C//DTD SVG 1.1//EN" "http://www.w3.org/Graphics/SVG/1.1/DTD/svg11.dtd">
<svg version="1.1" xmlns="http://www.w3.org/2000/svg" xmlns:xlink="http://www.w3.org/1999/xlink" x="0px" y="0px" width="220px"
	 height="220px" viewBox="0 0 220 220" enable-background="new 0 0 220 220" xml:space="preserve">
<g id="bg">
	<g>
		<g>
			<g>
				<rect fill="none" width="220" height="220"/>
			</g>
		</g>
	</g>
</g>
<g id="Layer_1">
	<g>
		
			<path fill="none" stroke="#010202" stroke-width="2.4" stroke-linecap="round" stroke-linejoin="round" stroke-miterlimit="10" d="
			M219.345,154.43c0,0,16.289,19.767-0.804,55.021c-17.094,35.254-8.59,57.526-4.684,62.188"/>
		
			<path fill="#1F71B8" stroke="#010202" stroke-width="2.4" stroke-linecap="round" stroke-linejoin="round" stroke-miterlimit="10" d="
			M225.792,172.819c-51.4-24.298-39.25-76.165-4.206-80.838c0,0,5.597-0.362,4.276-0.362s4.135,0.362,4.135,0.362
			C265.043,96.654,277.192,148.521,225.792,172.819"/>
		
			<polygon fill="#1F71B8" stroke="#010202" stroke-width="2.4" stroke-linecap="round" stroke-linejoin="round" stroke-miterlimit="10" points="
			227.983,171.139 230.476,176.396 221.108,176.396 223.601,171.139 		"/>
		
			<path fill="none" stroke="#010202" stroke-width="2.4" stroke-linecap="round" stroke-linejoin="round" stroke-miterlimit="10" d="
			M219.526,100.376c-7.796,0.726-20.385,9.428-20.125,24.294"/>
		<g>
			
				<path fill="none" stroke="#010202" stroke-width="2.4" stroke-linecap="round" stroke-linejoin="round" stroke-miterlimit="10" d="
				M183.554,178.652c0,0,17.765,11.084,13.684,42.852c-4.082,31.77,8.301,46.82,12.541,49.418"/>
			
				<path fill="#E20717" stroke="#010202" stroke-width="2.4" stroke-linecap="round" stroke-linejoin="round" stroke-miterlimit="10" d="
				M193.333,191.229c-46.155-5.467-50.227-48.826-24.28-61.561c0,0,4.243-1.736,3.22-1.393s3.3-0.794,3.3-0.794
				C203.949,121.99,226.853,159.029,193.333,191.229"/>
			
				<polygon fill="#E20717" stroke="#010202" stroke-width="2.4" stroke-linecap="round" stroke-linejoin="round" stroke-miterlimit="10" points="
				194.595,189.355 197.893,192.782 190.634,195.219 191.198,190.495 			"/>
			
				<path fill="none" stroke="#010202" stroke-width="2.4" stroke-linecap="round" stroke-linejoin="round" stroke-miterlimit="10" d="
				M169.639,136.71c-5.854,2.59-13.348,12.608-9.28,24.063"/>
		</g>
		<g>
			
				<path fill="none" stroke="#010202" stroke-width="2.4" stroke-linecap="round" stroke-linejoin="round" stroke-miterlimit="10" d="
				M249.996,192.042c0,0,5.774,17.729-15.193,37.063c-20.968,19.334-21.136,36.688-19.73,40.887"/>
		</g>
	</g>
	<g>
		
			<path fill="none" stroke="#010202" stroke-width="2.4" stroke-linecap="round" stroke-linejoin="round" stroke-miterlimit="10" d="
			M110.661,63.338c0,0-16.289-19.767,0.803-55.021c17.094-35.254,8.59-57.526,4.684-62.188"/>
		
			<path fill="#1F71B8" stroke="#010202" stroke-width="2.4" stroke-linecap="round" stroke-linejoin="round" stroke-miterlimit="10" d="
			M104.213,44.948c51.4,24.298,39.251,76.165,4.206,80.838c0,0-5.597,0.362-4.276,0.362c1.321,0-4.135-0.362-4.135-0.362
			C64.963,121.113,52.813,69.246,104.213,44.948"/>
		
			<polygon fill="#1F71B8" stroke="#010202" stroke-width="2.4" stroke-linecap="round" stroke-linejoin="round" stroke-miterlimit="10" points="
			102.021,46.629 99.529,41.371 108.896,41.371 106.404,46.629 		"/>
		
			<path fill="none" stroke="#010202" stroke-width="2.4" stroke-linecap="round" stroke-linejoin="round" stroke-miterlimit="10" d="
			M110.479,117.392c7.796-0.726,20.385-9.428,20.124-24.294"/>
		<g>
			
				<path fill="none" stroke="#010202" stroke-width="2.4" stroke-linecap="round" stroke-linejoin="round" stroke-miterlimit="10" d="
				M146.45,39.115c0,0-17.765-11.084-13.684-42.852c4.082-31.77-8.301-46.82-12.541-49.418"/>
			
				<path fill="#E20717" stroke="#010202" stroke-width="2.4" stroke-linecap="round" stroke-linejoin="round" stroke-miterlimit="10" d="
				M136.672,26.539c46.156,5.467,50.227,48.826,24.28,61.561c0,0-4.243,1.736-3.22,1.393s-3.299,0.794-3.299,0.794
				C126.057,95.777,103.153,58.738,136.672,26.539"/>
			
				<polygon fill="#E20717" stroke="#010202" stroke-width="2.4" stroke-linecap="round" stroke-linejoin="round" stroke-miterlimit="10" points="
				135.41,28.412 132.111,24.985 139.371,22.549 138.807,27.272 			"/>
			
				<path fill="none" stroke="#010202" stroke-width="2.4" stroke-linecap="round" stroke-linejoin="round" stroke-miterlimit="10" d="
				M160.367,81.058c5.854-2.59,13.348-12.608,9.279-24.063"/>
		</g>
		<g>
			
				<path fill="none" stroke="#010202" stroke-width="2.4" stroke-linecap="round" stroke-linejoin="round" stroke-miterlimit="10" d="
				M80.009,25.726c0,0-5.774-17.729,15.193-37.063c20.968-19.334,21.136-36.688,19.73-40.887"/>
			
				<path fill="#FFD009" stroke="#010202" stroke-width="2.4" stroke-linecap="round" stroke-linejoin="round" stroke-miterlimit="10" d="
				M80.536,11.55c28.356,30.147,6.315,62.054-18.672,55.889c0,0-3.889-1.244-2.993-0.893c0.895,0.352-2.705-1.347-2.705-1.347
				C33.666,52.703,39.243,14.328,80.536,11.55"/>
			
				<polygon fill="#FFD009" stroke="#010202" stroke-width="2.4" stroke-linecap="round" stroke-linejoin="round" stroke-miterlimit="10" points="
				78.604,12.105 78.315,7.879 84.662,10.373 81.573,13.271 			"/>
			
				<path fill="none" stroke="#010202" stroke-width="2.4" stroke-linecap="round" stroke-linejoin="round" stroke-miterlimit="10" d="
				M65.495,62.3c5.475,1.584,16.321-0.96,20.103-11.103"/>
		</g>
	</g>
	<g>
		
			<path fill="none" stroke="#010202" stroke-width="2.4" stroke-linecap="round" stroke-linejoin="round" stroke-miterlimit="10" d="
			M110.661,283.78c0,0-16.289-19.767,0.803-55.021c17.094-35.254,8.59-57.526,4.684-62.188"/>
		<g>
			
				<path fill="none" stroke="#010202" stroke-width="2.4" stroke-linecap="round" stroke-linejoin="round" stroke-miterlimit="10" d="
				M146.45,259.558c0,0-17.765-11.084-13.684-42.852c4.082-31.77-8.301-46.82-12.541-49.418"/>
		</g>
		<g>
			
				<path fill="none" stroke="#010202" stroke-width="2.4" stroke-linecap="round" stroke-linejoin="round" stroke-miterlimit="10" d="
				M80.009,246.168c0,0-5.774-17.729,15.193-37.063c20.968-19.334,21.136-36.688,19.73-40.887"/>
		</g>
	</g>
	<g>
		
			<path fill="none" stroke="#010202" stroke-width="2.4" stroke-linecap="round" stroke-linejoin="round" stroke-miterlimit="10" d="
			M-0.655,154.43c0,0,16.289,19.767-0.805,55.021c-17.094,35.254-8.59,57.526-4.684,62.188"/>
		
			<path fill="#1F71B8" stroke="#010202" stroke-width="2.4" stroke-linecap="round" stroke-linejoin="round" stroke-miterlimit="10" d="
			M5.792,172.819c-51.399-24.298-39.25-76.165-4.205-80.838c0,0,5.597-0.362,4.275-0.362c-1.32,0,4.136,0.362,4.136,0.362
			C45.043,96.654,57.192,148.521,5.792,172.819"/>
		
			<polygon fill="#1F71B8" stroke="#010202" stroke-width="2.4" stroke-linecap="round" stroke-linejoin="round" stroke-miterlimit="10" points="
			7.983,171.139 10.476,176.396 1.108,176.396 3.601,171.139 		"/>
		
			<path fill="none" stroke="#010202" stroke-width="2.4" stroke-linecap="round" stroke-linejoin="round" stroke-miterlimit="10" d="
			M-0.474,100.376c-7.796,0.726-20.385,9.428-20.125,24.294"/>
		<g>
			
				<path fill="none" stroke="#010202" stroke-width="2.4" stroke-linecap="round" stroke-linejoin="round" stroke-miterlimit="10" d="
				M29.996,192.042c0,0,5.773,17.729-15.193,37.063c-20.968,19.334-21.137,36.688-19.73,40.887"/>
			
				<path fill="#FFD009" stroke="#010202" stroke-width="2.4" stroke-linecap="round" stroke-linejoin="round" stroke-miterlimit="10" d="
				M29.469,206.218c-28.355-30.147-6.314-62.054,18.673-55.889c0,0,3.888,1.244,2.993,0.893s2.705,1.347,2.705,1.347
				C76.34,165.064,70.762,203.439,29.469,206.218"/>
			
				<polygon fill="#FFD009" stroke="#010202" stroke-width="2.4" stroke-linecap="round" stroke-linejoin="round" stroke-miterlimit="10" points="
				31.4,205.662 31.689,209.889 25.343,207.395 28.432,204.496 			"/>
			
				<path fill="none" stroke="#010202" stroke-width="2.4" stroke-linecap="round" stroke-linejoin="round" stroke-miterlimit="10" d="
				M44.511,155.468c-5.476-1.584-16.321,0.96-20.103,11.103"/>
		</g>
	</g>
	<g>
		
			<path fill="none" stroke="#010202" stroke-width="2.4" stroke-linecap="round" stroke-linejoin="round" stroke-miterlimit="10" d="
			M219.345-64.665c0,0,16.289,19.767-0.804,55.021c-17.094,35.254-8.59,57.526-4.684,62.188"/>
		<g>
			
				<path fill="none" stroke="#010202" stroke-width="2.4" stroke-linecap="round" stroke-linejoin="round" stroke-miterlimit="10" d="
				M183.554-40.442c0,0,17.765,11.084,13.684,42.852c-4.082,31.77,8.301,46.82,12.541,49.418"/>
		</g>
		<g>
			
				<path fill="none" stroke="#010202" stroke-width="2.4" stroke-linecap="round" stroke-linejoin="round" stroke-miterlimit="10" d="
				M249.996-27.053c0,0,5.774,17.729-15.193,37.063c-20.968,19.334-21.136,36.688-19.73,40.887"/>
		</g>
	</g>
	<g>
		
			<path fill="none" stroke="#010202" stroke-width="2.4" stroke-linecap="round" stroke-linejoin="round" stroke-miterlimit="10" d="
			M-0.655-64.665c0,0,16.289,19.767-0.805,55.021c-17.094,35.254-8.59,57.526-4.684,62.188"/>
		<g>
			
				<path fill="none" stroke="#010202" stroke-width="2.4" stroke-linecap="round" stroke-linejoin="round" stroke-miterlimit="10" d="
				M29.996-27.053c0,0,5.773,17.729-15.193,37.063C-6.165,29.345-6.334,46.699-4.928,50.897"/>
		</g>
	</g>
</g>
</svg>
