<?xml version="1.0" encoding="utf-8"?>
<!-- Generator: Adobe Illustrator 16.0.0, SVG Export Plug-In . SVG Version: 6.00 Build 0)  -->
<!DOCTYPE svg PUBLIC "-//W3C//DTD SVG 1.1//EN" "http://www.w3.org/Graphics/SVG/1.1/DTD/svg11.dtd">
<svg version="1.1" xmlns="http://www.w3.org/2000/svg" xmlns:xlink="http://www.w3.org/1999/xlink" x="0px" y="0px" width="220px"
	 height="220px" viewBox="0 0 220 220" enable-background="new 0 0 220 220" xml:space="preserve">
<g id="bg">
	<g>
		<g>
			<g>
				<rect x="0" fill="none" width="220" height="220"/>
			</g>
		</g>
	</g>
</g>
<g id="Layer_1">
	<g>
		
			<path fill="none" stroke="#010202" stroke-width="2.4" stroke-linecap="round" stroke-linejoin="round" stroke-miterlimit="10" d="
			M0.66,154.43c0,0-16.289,19.767,0.805,55.021c17.094,35.254,8.59,57.526,4.684,62.188"/>
		
			<path fill="#1F71B8" stroke="#010202" stroke-width="2.4" stroke-linecap="round" stroke-linejoin="round" stroke-miterlimit="10" d="
			M-5.788,172.819c51.4-24.298,39.25-76.165,4.205-80.838c0,0-5.596-0.362-4.275-0.362s-4.135,0.362-4.135,0.362
			C-45.038,96.654-57.188,148.521-5.788,172.819"/>
		
			<polygon fill="#1F71B8" stroke="#010202" stroke-width="2.4" stroke-linecap="round" stroke-linejoin="round" stroke-miterlimit="10" points="
			-7.979,171.139 -10.471,176.396 -1.104,176.396 -3.596,171.139 		"/>
		
			<path fill="none" stroke="#010202" stroke-width="2.4" stroke-linecap="round" stroke-linejoin="round" stroke-miterlimit="10" d="
			M0.478,100.376c7.797,0.726,20.385,9.428,20.125,24.294"/>
		<g>
			
				<path fill="none" stroke="#010202" stroke-width="2.4" stroke-linecap="round" stroke-linejoin="round" stroke-miterlimit="10" d="
				M36.451,178.652c0,0-17.766,11.084-13.683,42.852c4.082,31.77-8.301,46.82-12.541,49.418"/>
			
				<path fill="#E20717" stroke="#010202" stroke-width="2.4" stroke-linecap="round" stroke-linejoin="round" stroke-miterlimit="10" d="
				M26.671,191.229c46.156-5.467,50.227-48.826,24.281-61.561c0,0-4.244-1.736-3.221-1.393s-3.299-0.794-3.299-0.794
				C16.056,121.99-6.848,159.029,26.671,191.229"/>
			
				<polygon fill="#E20717" stroke="#010202" stroke-width="2.4" stroke-linecap="round" stroke-linejoin="round" stroke-miterlimit="10" points="
				25.41,189.355 22.113,192.782 29.371,195.219 28.808,190.495 			"/>
			
				<path fill="none" stroke="#010202" stroke-width="2.4" stroke-linecap="round" stroke-linejoin="round" stroke-miterlimit="10" d="
				M50.367,136.71c5.854,2.59,13.348,12.608,9.279,24.063"/>
		</g>
		<g>
			
				<path fill="none" stroke="#010202" stroke-width="2.4" stroke-linecap="round" stroke-linejoin="round" stroke-miterlimit="10" d="
				M-29.991,192.042c0,0-5.773,17.729,15.194,37.063C6.17,248.439,6.34,265.794,4.934,269.992"/>
		</g>
	</g>
	<g>
		
			<path fill="none" stroke="#010202" stroke-width="2.4" stroke-linecap="round" stroke-linejoin="round" stroke-miterlimit="10" d="
			M119.24,139.379c0,0-16.289,19.768,0.803,55.021c17.094,35.254,8.59,57.527,4.684,62.189"/>
		
			<path fill="#1F71B8" stroke="#010202" stroke-width="2.4" stroke-linecap="round" stroke-linejoin="round" stroke-miterlimit="10" d="
			M112.791,157.77c51.4-24.299,39.252-76.166,4.207-80.838c0,0-5.598-0.363-4.277-0.363c1.322,0-4.135,0.363-4.135,0.363
			C73.541,81.604,61.393,133.471,112.791,157.77"/>
		
			<polygon fill="#1F71B8" stroke="#010202" stroke-width="2.4" stroke-linecap="round" stroke-linejoin="round" stroke-miterlimit="10" points="
			110.6,156.088 108.107,161.346 117.475,161.346 114.982,156.088 		"/>
		
			<path fill="none" stroke="#010202" stroke-width="2.4" stroke-linecap="round" stroke-linejoin="round" stroke-miterlimit="10" d="
			M119.059,85.326c7.795,0.725,20.385,9.428,20.123,24.293"/>
	</g>
	<g>
		
			<path fill="none" stroke="#010202" stroke-width="2.4" stroke-linecap="round" stroke-linejoin="round" stroke-miterlimit="10" d="
			M119.24-81.063c0,0-16.289,19.766,0.803,55.021c17.094,35.254,8.59,57.525,4.684,62.188"/>
	</g>
	<g>
		
			<path fill="none" stroke="#010202" stroke-width="2.4" stroke-linecap="round" stroke-linejoin="round" stroke-miterlimit="10" d="
			M220.66,154.43c0,0-16.289,19.767,0.805,55.021c17.094,35.254,8.59,57.526,4.684,62.188"/>
		
			<path fill="#1F71B8" stroke="#010202" stroke-width="2.4" stroke-linecap="round" stroke-linejoin="round" stroke-miterlimit="10" d="
			M214.212,172.819c51.4-24.298,39.25-76.165,4.205-80.838c0,0-5.596-0.362-4.275-0.362s-4.135,0.362-4.135,0.362
			C174.962,96.654,162.812,148.521,214.212,172.819"/>
		
			<polygon fill="#1F71B8" stroke="#010202" stroke-width="2.4" stroke-linecap="round" stroke-linejoin="round" stroke-miterlimit="10" points="
			212.021,171.139 209.529,176.396 218.896,176.396 216.404,171.139 		"/>
		
			<path fill="none" stroke="#010202" stroke-width="2.4" stroke-linecap="round" stroke-linejoin="round" stroke-miterlimit="10" d="
			M220.478,100.376c7.797,0.726,20.385,9.428,20.125,24.294"/>
		<g>
			
				<path fill="none" stroke="#010202" stroke-width="2.4" stroke-linecap="round" stroke-linejoin="round" stroke-miterlimit="10" d="
				M190.009,192.042c0,0-5.773,17.729,15.194,37.063c20.967,19.334,21.137,36.688,19.73,40.887"/>
			
				<path fill="#FFD009" stroke="#010202" stroke-width="2.4" stroke-linecap="round" stroke-linejoin="round" stroke-miterlimit="10" d="
				M190.537,206.218c28.355-30.147,6.314-62.054-18.674-55.889c0,0-3.887,1.244-2.992,0.893s-2.705,1.347-2.705,1.347
				C143.666,165.064,149.244,203.439,190.537,206.218"/>
			
				<polygon fill="#FFD009" stroke="#010202" stroke-width="2.4" stroke-linecap="round" stroke-linejoin="round" stroke-miterlimit="10" points="
				188.605,205.662 188.316,209.889 194.662,207.395 191.574,204.496 			"/>
			
				<path fill="none" stroke="#010202" stroke-width="2.4" stroke-linecap="round" stroke-linejoin="round" stroke-miterlimit="10" d="
				M175.494,155.468c5.477-1.584,16.322,0.96,20.104,11.103"/>
		</g>
	</g>
	<g>
		
			<path fill="none" stroke="#010202" stroke-width="2.4" stroke-linecap="round" stroke-linejoin="round" stroke-miterlimit="10" d="
			M0.66-64.665c0,0-16.289,19.767,0.805,55.021c17.094,35.254,8.59,57.526,4.684,62.188"/>
		<g>
			
				<path fill="none" stroke="#010202" stroke-width="2.4" stroke-linecap="round" stroke-linejoin="round" stroke-miterlimit="10" d="
				M36.451-40.442c0,0-17.766,11.084-13.684,42.852c4.082,31.77-8.301,46.82-12.541,49.418"/>
		</g>
		<g>
			
				<path fill="none" stroke="#010202" stroke-width="2.4" stroke-linecap="round" stroke-linejoin="round" stroke-miterlimit="10" d="
				M-29.991-27.053c0,0-5.773,17.729,15.193,37.063C6.169,29.345,6.339,46.699,4.933,50.897"/>
		</g>
	</g>
	<g>
		
			<path fill="none" stroke="#010202" stroke-width="2.4" stroke-linecap="round" stroke-linejoin="round" stroke-miterlimit="10" d="
			M220.66-64.665c0,0-16.289,19.767,0.805,55.021c17.094,35.254,8.59,57.526,4.684,62.188"/>
		<g>
			
				<path fill="none" stroke="#010202" stroke-width="2.4" stroke-linecap="round" stroke-linejoin="round" stroke-miterlimit="10" d="
				M190.009-27.053c0,0-5.773,17.729,15.193,37.063c20.967,19.334,21.137,36.688,19.73,40.887"/>
		</g>
	</g>
</g>
</svg>
