<?xml version="1.0" encoding="utf-8"?>
<!-- Generator: Adobe Illustrator 16.0.0, SVG Export Plug-In . SVG Version: 6.00 Build 0)  -->
<!DOCTYPE svg PUBLIC "-//W3C//DTD SVG 1.1//EN" "http://www.w3.org/Graphics/SVG/1.1/DTD/svg11.dtd">
<svg version="1.1" xmlns="http://www.w3.org/2000/svg" xmlns:xlink="http://www.w3.org/1999/xlink" x="0px" y="0px" width="220px"
	 height="220px" viewBox="0 0 220 220" enable-background="new 0 0 220 220" xml:space="preserve">
<g id="bg">
	<g>
		<g>
			<g>
				<rect fill="none" width="220" height="220"/>
			</g>
		</g>
	</g>
</g>
<g id="Layer_1">
	<g>
		
			<path fill="none" stroke="#010202" stroke-width="2.4" stroke-linecap="round" stroke-linejoin="round" stroke-miterlimit="10" d="
			M0.66,154.43c0,0-16.289,19.767,0.805,55.021c17.094,35.254,8.59,57.526,4.683,62.188"/>
		
			<path fill="#1F71B8" stroke="#010202" stroke-width="2.4" stroke-linecap="round" stroke-linejoin="round" stroke-miterlimit="10" d="
			M-5.787,172.819c51.399-24.298,39.25-76.165,4.205-80.838c0,0-5.597-0.362-4.275-0.362c1.32,0-4.136,0.362-4.136,0.362
			C-45.038,96.654-57.188,148.521-5.787,172.819"/>
		
			<polygon fill="#1F71B8" stroke="#010202" stroke-width="2.4" stroke-linecap="round" stroke-linejoin="round" stroke-miterlimit="10" points="
			-7.979,171.139 -10.471,176.396 -1.104,176.396 -3.596,171.139 		"/>
		
			<path fill="none" stroke="#010202" stroke-width="2.4" stroke-linecap="round" stroke-linejoin="round" stroke-miterlimit="10" d="
			M0.479,100.376c7.796,0.726,20.385,9.428,20.125,24.294"/>
		<g>
			
				<path fill="none" stroke="#010202" stroke-width="2.4" stroke-linecap="round" stroke-linejoin="round" stroke-miterlimit="10" d="
				M36.451,178.652c0,0-17.766,11.084-13.684,42.852c4.081,31.77-8.302,46.82-12.541,49.418"/>
			
				<path fill="#E20717" stroke="#010202" stroke-width="2.4" stroke-linecap="round" stroke-linejoin="round" stroke-miterlimit="10" d="
				M26.672,191.229c46.155-5.467,50.226-48.826,24.28-61.561c0,0-4.243-1.736-3.22-1.393s-3.3-0.794-3.3-0.794
				C16.057,121.99-6.848,159.029,26.672,191.229"/>
			
				<polygon fill="#E20717" stroke="#010202" stroke-width="2.4" stroke-linecap="round" stroke-linejoin="round" stroke-miterlimit="10" points="
				25.41,189.355 22.112,192.782 29.371,195.219 28.808,190.495 			"/>
			
				<path fill="none" stroke="#010202" stroke-width="2.4" stroke-linecap="round" stroke-linejoin="round" stroke-miterlimit="10" d="
				M50.366,136.71c5.854,2.59,13.348,12.608,9.28,24.063"/>
		</g>
		<g>
			
				<path fill="none" stroke="#010202" stroke-width="2.4" stroke-linecap="round" stroke-linejoin="round" stroke-miterlimit="10" d="
				M-29.991,192.042c0,0-5.773,17.729,15.193,37.063c20.968,19.334,21.137,36.688,19.73,40.887"/>
		</g>
	</g>
	<g>
		
			<path fill="none" stroke="#010202" stroke-width="2.4" stroke-linecap="round" stroke-linejoin="round" stroke-miterlimit="10" d="
			M109.344,63.338c0,0,16.289-19.767-0.803-55.021c-17.094-35.254-8.591-57.526-4.684-62.188"/>
		
			<path fill="#1F71B8" stroke="#010202" stroke-width="2.4" stroke-linecap="round" stroke-linejoin="round" stroke-miterlimit="10" d="
			M115.792,44.948c-51.4,24.298-39.251,76.165-4.206,80.838c0,0,5.597,0.362,4.276,0.362c-1.321,0,4.135-0.362,4.135-0.362
			C155.042,121.113,167.191,69.246,115.792,44.948"/>
		
			<polygon fill="#1F71B8" stroke="#010202" stroke-width="2.4" stroke-linecap="round" stroke-linejoin="round" stroke-miterlimit="10" points="
			117.983,46.629 120.476,41.371 111.108,41.371 113.601,46.629 		"/>
		
			<path fill="none" stroke="#010202" stroke-width="2.4" stroke-linecap="round" stroke-linejoin="round" stroke-miterlimit="10" d="
			M109.525,117.392c-7.796-0.726-20.385-9.428-20.124-24.294"/>
		<g>
			
				<path fill="none" stroke="#010202" stroke-width="2.4" stroke-linecap="round" stroke-linejoin="round" stroke-miterlimit="10" d="
				M73.555,39.115c0,0,17.765-11.084,13.684-42.852c-4.082-31.77,8.301-46.82,12.541-49.418"/>
			
				<path fill="#E20717" stroke="#010202" stroke-width="2.4" stroke-linecap="round" stroke-linejoin="round" stroke-miterlimit="10" d="
				M83.333,26.539C37.178,32.006,33.106,75.365,59.053,88.1c0,0,4.243,1.736,3.219,1.393c-1.023-0.344,3.299,0.794,3.299,0.794
				C93.948,95.777,116.852,58.738,83.333,26.539"/>
			
				<polygon fill="#E20717" stroke="#010202" stroke-width="2.4" stroke-linecap="round" stroke-linejoin="round" stroke-miterlimit="10" points="
				84.595,28.412 87.894,24.985 80.634,22.549 81.198,27.272 			"/>
			
				<path fill="none" stroke="#010202" stroke-width="2.4" stroke-linecap="round" stroke-linejoin="round" stroke-miterlimit="10" d="
				M59.638,81.058c-5.854-2.59-13.348-12.608-9.279-24.063"/>
		</g>
		<g>
			
				<path fill="none" stroke="#010202" stroke-width="2.4" stroke-linecap="round" stroke-linejoin="round" stroke-miterlimit="10" d="
				M139.996,25.726c0,0,5.774-17.729-15.193-37.063c-20.968-19.334-21.136-36.688-19.73-40.887"/>
			
				<path fill="#FFD009" stroke="#010202" stroke-width="2.4" stroke-linecap="round" stroke-linejoin="round" stroke-miterlimit="10" d="
				M139.469,11.55c-28.356,30.147-6.315,62.054,18.672,55.889c0,0,3.889-1.244,2.993-0.893c-0.895,0.352,2.705-1.347,2.705-1.347
				C186.339,52.703,180.762,14.328,139.469,11.55"/>
			
				<polygon fill="#FFD009" stroke="#010202" stroke-width="2.4" stroke-linecap="round" stroke-linejoin="round" stroke-miterlimit="10" points="
				141.4,12.105 141.689,7.879 135.343,10.373 138.432,13.271 			"/>
			
				<path fill="none" stroke="#010202" stroke-width="2.4" stroke-linecap="round" stroke-linejoin="round" stroke-miterlimit="10" d="
				M154.51,62.3c-5.475,1.584-16.321-0.96-20.103-11.103"/>
		</g>
	</g>
	<g>
		
			<path fill="none" stroke="#010202" stroke-width="2.4" stroke-linecap="round" stroke-linejoin="round" stroke-miterlimit="10" d="
			M109.344,283.78c0,0,16.289-19.767-0.803-55.021c-17.094-35.254-8.591-57.526-4.684-62.188"/>
		<g>
			
				<path fill="none" stroke="#010202" stroke-width="2.4" stroke-linecap="round" stroke-linejoin="round" stroke-miterlimit="10" d="
				M73.555,259.558c0,0,17.765-11.084,13.684-42.852c-4.082-31.77,8.301-46.82,12.541-49.418"/>
		</g>
		<g>
			
				<path fill="none" stroke="#010202" stroke-width="2.4" stroke-linecap="round" stroke-linejoin="round" stroke-miterlimit="10" d="
				M139.996,246.168c0,0,5.774-17.729-15.193-37.063c-20.968-19.334-21.136-36.688-19.73-40.887"/>
		</g>
	</g>
	<g>
		
			<path fill="none" stroke="#010202" stroke-width="2.4" stroke-linecap="round" stroke-linejoin="round" stroke-miterlimit="10" d="
			M220.66,154.43c0,0-16.289,19.767,0.805,55.021c17.094,35.254,8.59,57.526,4.684,62.188"/>
		
			<path fill="#1F71B8" stroke="#010202" stroke-width="2.4" stroke-linecap="round" stroke-linejoin="round" stroke-miterlimit="10" d="
			M214.213,172.819c51.399-24.298,39.25-76.165,4.205-80.838c0,0-5.597-0.362-4.275-0.362c1.32,0-4.136,0.362-4.136,0.362
			C174.962,96.654,162.813,148.521,214.213,172.819"/>
		
			<polygon fill="#1F71B8" stroke="#010202" stroke-width="2.4" stroke-linecap="round" stroke-linejoin="round" stroke-miterlimit="10" points="
			212.021,171.139 209.529,176.396 218.896,176.396 216.404,171.139 		"/>
		
			<path fill="none" stroke="#010202" stroke-width="2.4" stroke-linecap="round" stroke-linejoin="round" stroke-miterlimit="10" d="
			M220.479,100.376c7.796,0.726,20.385,9.428,20.125,24.294"/>
		<g>
			
				<path fill="none" stroke="#010202" stroke-width="2.4" stroke-linecap="round" stroke-linejoin="round" stroke-miterlimit="10" d="
				M190.009,192.042c0,0-5.773,17.729,15.193,37.063c20.968,19.334,21.137,36.688,19.73,40.887"/>
			
				<path fill="#FFD009" stroke="#010202" stroke-width="2.4" stroke-linecap="round" stroke-linejoin="round" stroke-miterlimit="10" d="
				M190.536,206.218c28.355-30.147,6.314-62.054-18.673-55.889c0,0-3.888,1.244-2.993,0.893s-2.705,1.347-2.705,1.347
				C143.665,165.064,149.243,203.439,190.536,206.218"/>
			
				<polygon fill="#FFD009" stroke="#010202" stroke-width="2.4" stroke-linecap="round" stroke-linejoin="round" stroke-miterlimit="10" points="
				188.604,205.662 188.315,209.889 194.662,207.395 191.573,204.496 			"/>
			
				<path fill="none" stroke="#010202" stroke-width="2.4" stroke-linecap="round" stroke-linejoin="round" stroke-miterlimit="10" d="
				M175.494,155.468c5.476-1.584,16.321,0.96,20.103,11.103"/>
		</g>
	</g>
	<g>
		
			<path fill="none" stroke="#010202" stroke-width="2.4" stroke-linecap="round" stroke-linejoin="round" stroke-miterlimit="10" d="
			M0.66-64.665c0,0-16.289,19.767,0.805,55.021c17.094,35.254,8.59,57.526,4.683,62.188"/>
		<g>
			
				<path fill="none" stroke="#010202" stroke-width="2.4" stroke-linecap="round" stroke-linejoin="round" stroke-miterlimit="10" d="
				M36.451-40.442c0,0-17.766,11.084-13.684,42.852c4.081,31.77-8.302,46.82-12.541,49.418"/>
		</g>
		<g>
			
				<path fill="none" stroke="#010202" stroke-width="2.4" stroke-linecap="round" stroke-linejoin="round" stroke-miterlimit="10" d="
				M-29.991-27.053c0,0-5.773,17.729,15.193,37.063C6.17,29.345,6.339,46.699,4.933,50.897"/>
		</g>
	</g>
	<g>
		
			<path fill="none" stroke="#010202" stroke-width="2.4" stroke-linecap="round" stroke-linejoin="round" stroke-miterlimit="10" d="
			M220.66-64.665c0,0-16.289,19.767,0.805,55.021c17.094,35.254,8.59,57.526,4.684,62.188"/>
		<g>
			
				<path fill="none" stroke="#010202" stroke-width="2.4" stroke-linecap="round" stroke-linejoin="round" stroke-miterlimit="10" d="
				M190.009-27.053c0,0-5.773,17.729,15.193,37.063c20.968,19.334,21.137,36.688,19.73,40.887"/>
		</g>
	</g>
</g>
</svg>
