<?xml version="1.0" encoding="utf-8"?>
<!-- Generator: Adobe Illustrator 16.0.0, SVG Export Plug-In . SVG Version: 6.00 Build 0)  -->
<!DOCTYPE svg PUBLIC "-//W3C//DTD SVG 1.1//EN" "http://www.w3.org/Graphics/SVG/1.1/DTD/svg11.dtd">
<svg version="1.1" xmlns="http://www.w3.org/2000/svg" xmlns:xlink="http://www.w3.org/1999/xlink" x="0px" y="0px" width="220px"
	 height="220px" viewBox="0 0 220 220" enable-background="new 0 0 220 220" xml:space="preserve">
<g id="bg">
	<g>
		<g>
			<g>
				<rect fill="none" width="220" height="220"/>
			</g>
		</g>
	</g>
</g>
<g id="Layer_1">
	<g>
		
			<path fill="none" stroke="#010202" stroke-width="2.4" stroke-linecap="round" stroke-linejoin="round" stroke-miterlimit="10" d="
			M219.344,154.43c0,0,16.289,19.767-0.804,55.021c-17.094,35.254-8.591,57.526-4.684,62.188"/>
		
			<path fill="#1F71B8" stroke="#010202" stroke-width="2.4" stroke-linecap="round" stroke-linejoin="round" stroke-miterlimit="10" d="
			M225.792,172.819c-51.4-24.298-39.251-76.165-4.206-80.838c0,0,5.597-0.362,4.276-0.362c-1.321,0,4.135,0.362,4.135,0.362
			C265.042,96.654,277.191,148.521,225.792,172.819"/>
		
			<polygon fill="#1F71B8" stroke="#010202" stroke-width="2.4" stroke-linecap="round" stroke-linejoin="round" stroke-miterlimit="10" points="
			227.983,171.139 230.476,176.396 221.108,176.396 223.601,171.139 		"/>
		
			<path fill="none" stroke="#010202" stroke-width="2.4" stroke-linecap="round" stroke-linejoin="round" stroke-miterlimit="10" d="
			M219.525,100.376c-7.796,0.726-20.385,9.428-20.124,24.294"/>
		<g>
			
				<path fill="none" stroke="#010202" stroke-width="2.4" stroke-linecap="round" stroke-linejoin="round" stroke-miterlimit="10" d="
				M183.554,178.652c0,0,17.765,11.084,13.684,42.852c-4.082,31.77,8.301,46.82,12.541,49.418"/>
			
				<path fill="#E20717" stroke="#010202" stroke-width="2.4" stroke-linecap="round" stroke-linejoin="round" stroke-miterlimit="10" d="
				M193.332,191.229c-46.155-5.467-50.226-48.826-24.279-61.561c0,0,4.243-1.736,3.22-1.393s3.299-0.794,3.299-0.794
				C203.948,121.99,226.852,159.029,193.332,191.229"/>
			
				<polygon fill="#E20717" stroke="#010202" stroke-width="2.4" stroke-linecap="round" stroke-linejoin="round" stroke-miterlimit="10" points="
				194.594,189.355 197.893,192.782 190.633,195.219 191.197,190.495 			"/>
			
				<path fill="none" stroke="#010202" stroke-width="2.4" stroke-linecap="round" stroke-linejoin="round" stroke-miterlimit="10" d="
				M169.638,136.71c-5.854,2.59-13.348,12.608-9.279,24.063"/>
		</g>
		<g>
			
				<path fill="none" stroke="#010202" stroke-width="2.4" stroke-linecap="round" stroke-linejoin="round" stroke-miterlimit="10" d="
				M249.995,192.042c0,0,5.774,17.729-15.193,37.063c-20.968,19.334-21.136,36.688-19.73,40.887"/>
		</g>
	</g>
	<g>
		
			<path fill="#1F71B8" stroke="#010202" stroke-width="2.4" stroke-linecap="round" stroke-linejoin="round" stroke-miterlimit="10" d="
			M99.212,277.771c51.4-24.298,39.251-76.165,4.206-80.838c0,0-5.597-0.362-4.276-0.362c1.321,0-4.135,0.362-4.135,0.362
			C59.962,201.605,47.813,253.473,99.212,277.771"/>
		
			<path fill="none" stroke="#010202" stroke-width="2.4" stroke-linecap="round" stroke-linejoin="round" stroke-miterlimit="10" d="
			M105.479,205.327c7.796,0.726,20.385,9.428,20.124,24.294"/>
	</g>
	<g>
		
			<path fill="none" stroke="#010202" stroke-width="2.4" stroke-linecap="round" stroke-linejoin="round" stroke-miterlimit="10" d="
			M105.66,38.938c0,0-16.289,19.767,0.804,55.021c17.094,35.254,8.591,57.526,4.684,62.188"/>
		
			<path fill="#1F71B8" stroke="#010202" stroke-width="2.4" stroke-linecap="round" stroke-linejoin="round" stroke-miterlimit="10" d="
			M99.212,57.328c51.4-24.298,39.251-76.165,4.206-80.838c0,0-5.597-0.362-4.276-0.362c1.321,0-4.135,0.362-4.135,0.362
			C59.962-18.837,47.813,33.03,99.212,57.328"/>
		
			<polygon fill="#1F71B8" stroke="#010202" stroke-width="2.4" stroke-linecap="round" stroke-linejoin="round" stroke-miterlimit="10" points="
			97.021,55.647 94.528,60.905 103.896,60.905 101.403,55.647 		"/>
		
			<path fill="none" stroke="#010202" stroke-width="2.4" stroke-linecap="round" stroke-linejoin="round" stroke-miterlimit="10" d="
			M105.479-15.115c7.796,0.726,20.385,9.428,20.124,24.294"/>
		<g>
			
				<path fill="none" stroke="#010202" stroke-width="2.4" stroke-linecap="round" stroke-linejoin="round" stroke-miterlimit="10" d="
				M141.45,63.161c0,0-17.765,11.084-13.684,42.852c4.082,31.77-8.301,46.82-12.541,49.418"/>
			
				<path fill="#E20717" stroke="#010202" stroke-width="2.4" stroke-linecap="round" stroke-linejoin="round" stroke-miterlimit="10" d="
				M131.672,75.737c46.155-5.467,50.226-48.826,24.279-61.561c0,0-4.243-1.736-3.22-1.393s-3.299-0.794-3.299-0.794
				C121.056,6.499,98.152,43.538,131.672,75.737"/>
			
				<polygon fill="#E20717" stroke="#010202" stroke-width="2.4" stroke-linecap="round" stroke-linejoin="round" stroke-miterlimit="10" points="
				130.41,73.864 127.111,77.291 134.371,79.728 133.807,75.004 			"/>
			
				<path fill="none" stroke="#010202" stroke-width="2.4" stroke-linecap="round" stroke-linejoin="round" stroke-miterlimit="10" d="
				M155.366,21.219c5.854,2.59,13.348,12.608,9.279,24.063"/>
		</g>
	</g>
	<g>
		
			<path fill="none" stroke="#010202" stroke-width="2.4" stroke-linecap="round" stroke-linejoin="round" stroke-miterlimit="10" d="
			M-0.656,154.43c0,0,16.289,19.767-0.804,55.021c-17.094,35.254-8.59,57.526-4.684,62.188"/>
		
			<path fill="#1F71B8" stroke="#010202" stroke-width="2.4" stroke-linecap="round" stroke-linejoin="round" stroke-miterlimit="10" d="
			M5.792,172.819c-51.4-24.298-39.25-76.165-4.206-80.838c0,0,5.597-0.362,4.276-0.362s4.135,0.362,4.135,0.362
			C45.042,96.654,57.191,148.521,5.792,172.819"/>
		
			<polygon fill="#1F71B8" stroke="#010202" stroke-width="2.4" stroke-linecap="round" stroke-linejoin="round" stroke-miterlimit="10" points="
			7.983,171.139 10.475,176.396 1.108,176.396 3.6,171.139 		"/>
		
			<path fill="none" stroke="#010202" stroke-width="2.4" stroke-linecap="round" stroke-linejoin="round" stroke-miterlimit="10" d="
			M-0.475,100.376c-7.796,0.726-20.385,9.428-20.125,24.294"/>
		<g>
			
				<path fill="none" stroke="#010202" stroke-width="2.4" stroke-linecap="round" stroke-linejoin="round" stroke-miterlimit="10" d="
				M29.995,192.042c0,0,5.774,17.729-15.193,37.063c-20.968,19.334-21.136,36.688-19.73,40.887"/>
			
				<path fill="#FFD009" stroke="#010202" stroke-width="2.4" stroke-linecap="round" stroke-linejoin="round" stroke-miterlimit="10" d="
				M29.468,206.218c-28.355-30.147-6.314-62.054,18.673-55.889c0,0,3.889,1.244,2.993,0.893c-0.895-0.352,2.705,1.347,2.705,1.347
				C76.339,165.064,70.761,203.439,29.468,206.218"/>
			
				<polygon fill="#FFD009" stroke="#010202" stroke-width="2.4" stroke-linecap="round" stroke-linejoin="round" stroke-miterlimit="10" points="
				31.399,205.662 31.688,209.889 25.342,207.395 28.431,204.496 			"/>
			
				<path fill="none" stroke="#010202" stroke-width="2.4" stroke-linecap="round" stroke-linejoin="round" stroke-miterlimit="10" d="
				M44.51,155.468c-5.475-1.584-16.321,0.96-20.103,11.103"/>
		</g>
	</g>
	<g>
		
			<path fill="none" stroke="#010202" stroke-width="2.4" stroke-linecap="round" stroke-linejoin="round" stroke-miterlimit="10" d="
			M219.344-64.665c0,0,16.289,19.767-0.804,55.021c-17.094,35.254-8.591,57.526-4.684,62.188"/>
		<g>
			
				<path fill="none" stroke="#010202" stroke-width="2.4" stroke-linecap="round" stroke-linejoin="round" stroke-miterlimit="10" d="
				M183.554-40.442c0,0,17.765,11.084,13.684,42.852c-4.082,31.77,8.301,46.82,12.541,49.418"/>
		</g>
		<g>
			
				<path fill="none" stroke="#010202" stroke-width="2.4" stroke-linecap="round" stroke-linejoin="round" stroke-miterlimit="10" d="
				M249.995-27.053c0,0,5.774,17.729-15.193,37.063c-20.968,19.334-21.136,36.688-19.73,40.887"/>
		</g>
	</g>
	<g>
		
			<path fill="none" stroke="#010202" stroke-width="2.4" stroke-linecap="round" stroke-linejoin="round" stroke-miterlimit="10" d="
			M-0.656-64.665c0,0,16.289,19.767-0.804,55.021c-17.094,35.254-8.59,57.526-4.684,62.188"/>
		<g>
			
				<path fill="none" stroke="#010202" stroke-width="2.4" stroke-linecap="round" stroke-linejoin="round" stroke-miterlimit="10" d="
				M29.995-27.053c0,0,5.774,17.729-15.193,37.063C-6.166,29.345-6.334,46.699-4.929,50.897"/>
		</g>
	</g>
</g>
</svg>
