<?xml version="1.0" encoding="utf-8"?>
<!-- Generator: Adobe Illustrator 16.0.0, SVG Export Plug-In . SVG Version: 6.00 Build 0)  -->
<!DOCTYPE svg PUBLIC "-//W3C//DTD SVG 1.1//EN" "http://www.w3.org/Graphics/SVG/1.1/DTD/svg11.dtd">
<svg version="1.1" xmlns="http://www.w3.org/2000/svg" xmlns:xlink="http://www.w3.org/1999/xlink" x="0px" y="0px" width="220px"
	 height="220px" viewBox="0 0 220 220" enable-background="new 0 0 220 220" xml:space="preserve">
<g id="bg">
	<g>
		<g>
			<g>
				<rect fill="none" width="220" height="220"/>
			</g>
		</g>
	</g>
</g>
<g id="Layer_1">
	<g>
		
			<path fill="none" stroke="#010202" stroke-width="2.4" stroke-linecap="round" stroke-linejoin="round" stroke-miterlimit="10" d="
			M154.43,219.34c0,0,19.767,16.289,55.021-0.805c35.254-17.094,57.526-8.59,62.188-4.684"/>
		
			<path fill="#1F71B8" stroke="#010202" stroke-width="2.4" stroke-linecap="round" stroke-linejoin="round" stroke-miterlimit="10" d="
			M172.819,225.787c-24.298-51.4-76.165-39.25-80.838-4.205c0,0-0.362,5.596-0.362,4.275s0.362,4.135,0.362,4.135
			C96.654,265.037,148.521,277.188,172.819,225.787"/>
		
			<polygon fill="#1F71B8" stroke="#010202" stroke-width="2.4" stroke-linecap="round" stroke-linejoin="round" stroke-miterlimit="10" points="
			171.139,227.979 176.396,230.471 176.396,221.104 171.139,223.596 		"/>
		
			<path fill="none" stroke="#010202" stroke-width="2.4" stroke-linecap="round" stroke-linejoin="round" stroke-miterlimit="10" d="
			M100.376,219.521c0.726-7.797,9.428-20.385,24.294-20.125"/>
		<g>
			
				<path fill="none" stroke="#010202" stroke-width="2.4" stroke-linecap="round" stroke-linejoin="round" stroke-miterlimit="10" d="
				M178.652,183.549c0,0,11.084,17.766,42.852,13.684c31.77-4.082,46.82,8.301,49.418,12.541"/>
			
				<path fill="#E20717" stroke="#010202" stroke-width="2.4" stroke-linecap="round" stroke-linejoin="round" stroke-miterlimit="10" d="
				M191.229,193.328c-5.467-46.156-48.826-50.227-61.561-24.281c0,0-1.736,4.244-1.393,3.221s-0.794,3.299-0.794,3.299
				C121.99,203.943,159.029,226.848,191.229,193.328"/>
			
				<polygon fill="#E20717" stroke="#010202" stroke-width="2.4" stroke-linecap="round" stroke-linejoin="round" stroke-miterlimit="10" points="
				189.355,194.59 192.782,197.887 195.219,190.629 190.495,191.191 			"/>
			
				<path fill="none" stroke="#010202" stroke-width="2.4" stroke-linecap="round" stroke-linejoin="round" stroke-miterlimit="10" d="
				M136.71,169.633c2.59-5.854,12.608-13.348,24.063-9.279"/>
		</g>
		<g>
			
				<path fill="none" stroke="#010202" stroke-width="2.4" stroke-linecap="round" stroke-linejoin="round" stroke-miterlimit="10" d="
				M192.042,249.99c0,0,17.729,5.773,37.063-15.193c19.334-20.967,36.688-21.137,40.887-19.73"/>
		</g>
	</g>
	<g>
		
			<path fill="none" stroke="#010202" stroke-width="2.4" stroke-linecap="round" stroke-linejoin="round" stroke-miterlimit="10" d="
			M63.338,110.656c0,0-19.767-16.289-55.021,0.803c-35.254,17.094-57.526,8.59-62.188,4.684"/>
		
			<path fill="#1F71B8" stroke="#010202" stroke-width="2.4" stroke-linecap="round" stroke-linejoin="round" stroke-miterlimit="10" d="
			M44.948,104.207c24.298,51.4,76.165,39.252,80.838,4.207c0,0,0.362-5.598,0.362-4.277c0,1.322-0.362-4.135-0.362-4.135
			C121.113,64.957,69.246,52.809,44.948,104.207"/>
		
			<polygon fill="#1F71B8" stroke="#010202" stroke-width="2.4" stroke-linecap="round" stroke-linejoin="round" stroke-miterlimit="10" points="
			46.629,102.016 41.371,99.523 41.371,108.891 46.629,106.398 		"/>
		
			<path fill="none" stroke="#010202" stroke-width="2.4" stroke-linecap="round" stroke-linejoin="round" stroke-miterlimit="10" d="
			M117.392,110.475c-0.726,7.795-9.428,20.385-24.294,20.123"/>
		<g>
			
				<path fill="none" stroke="#010202" stroke-width="2.4" stroke-linecap="round" stroke-linejoin="round" stroke-miterlimit="10" d="
				M39.115,146.445c0,0-11.084-17.766-42.852-13.684c-31.77,4.082-46.82-8.301-49.418-12.541"/>
			
				<path fill="#E20717" stroke="#010202" stroke-width="2.4" stroke-linecap="round" stroke-linejoin="round" stroke-miterlimit="10" d="
				M26.539,136.666c5.467,46.156,48.826,50.228,61.561,24.281c0,0,1.736-4.244,1.393-3.22c-0.344,1.022,0.794-3.3,0.794-3.3
				C95.777,126.051,58.738,103.148,26.539,136.666"/>
			
				<polygon fill="#E20717" stroke="#010202" stroke-width="2.4" stroke-linecap="round" stroke-linejoin="round" stroke-miterlimit="10" points="
				28.412,135.404 24.985,132.105 22.549,139.365 27.272,138.801 			"/>
			
				<path fill="none" stroke="#010202" stroke-width="2.4" stroke-linecap="round" stroke-linejoin="round" stroke-miterlimit="10" d="
				M81.058,160.361c-2.59,5.854-12.608,13.348-24.063,9.279"/>
		</g>
		<g>
			
				<path fill="none" stroke="#010202" stroke-width="2.4" stroke-linecap="round" stroke-linejoin="round" stroke-miterlimit="10" d="
				M25.726,80.004c0,0-17.729-5.775-37.063,15.193c-19.334,20.967-36.688,21.135-40.887,19.73"/>
			
				<path fill="#FFD009" stroke="#010202" stroke-width="2.4" stroke-linecap="round" stroke-linejoin="round" stroke-miterlimit="10" d="
				M11.55,80.531c30.147,28.355,62.054,6.314,55.889-18.672c0,0-1.244-3.889-0.893-2.994s-1.347-2.705-1.347-2.705
				C52.703,33.66,14.328,39.238,11.55,80.531"/>
			
				<polygon fill="#FFD009" stroke="#010202" stroke-width="2.4" stroke-linecap="round" stroke-linejoin="round" stroke-miterlimit="10" points="
				12.105,78.6 7.879,78.311 10.373,84.656 13.271,81.568 			"/>
			
				<path fill="none" stroke="#010202" stroke-width="2.4" stroke-linecap="round" stroke-linejoin="round" stroke-miterlimit="10" d="
				M62.3,65.49c1.584,5.475-0.96,16.32-11.103,20.102"/>
		</g>
	</g>
	<g>
		
			<path fill="none" stroke="#010202" stroke-width="2.4" stroke-linecap="round" stroke-linejoin="round" stroke-miterlimit="10" d="
			M283.78,110.656c0,0-19.767-16.289-55.021,0.803c-35.254,17.094-57.526,8.59-62.188,4.684"/>
		<g>
			
				<path fill="none" stroke="#010202" stroke-width="2.4" stroke-linecap="round" stroke-linejoin="round" stroke-miterlimit="10" d="
				M259.558,146.445c0,0-11.084-17.766-42.852-13.684c-31.77,4.082-46.82-8.301-49.418-12.541"/>
		</g>
		<g>
			
				<path fill="none" stroke="#010202" stroke-width="2.4" stroke-linecap="round" stroke-linejoin="round" stroke-miterlimit="10" d="
				M246.168,80.004c0,0-17.729-5.775-37.063,15.193c-19.334,20.967-36.688,21.135-40.887,19.73"/>
		</g>
	</g>
	<g>
		
			<path fill="none" stroke="#010202" stroke-width="2.4" stroke-linecap="round" stroke-linejoin="round" stroke-miterlimit="10" d="
			M154.43-0.66c0,0,19.767,16.289,55.021-0.805c35.254-17.094,57.526-8.59,62.188-4.684"/>
		
			<path fill="#1F71B8" stroke="#010202" stroke-width="2.4" stroke-linecap="round" stroke-linejoin="round" stroke-miterlimit="10" d="
			M172.819,5.787c-24.298-51.4-76.165-39.25-80.838-4.205c0,0-0.362,5.596-0.362,4.275s0.362,4.135,0.362,4.135
			C96.654,45.037,148.521,57.188,172.819,5.787"/>
		
			<polygon fill="#1F71B8" stroke="#010202" stroke-width="2.4" stroke-linecap="round" stroke-linejoin="round" stroke-miterlimit="10" points="
			171.139,7.979 176.396,10.471 176.396,1.104 171.139,3.596 		"/>
		
			<path fill="none" stroke="#010202" stroke-width="2.4" stroke-linecap="round" stroke-linejoin="round" stroke-miterlimit="10" d="
			M100.376-0.479c0.726-7.797,9.428-20.385,24.294-20.125"/>
		<g>
			
				<path fill="none" stroke="#010202" stroke-width="2.4" stroke-linecap="round" stroke-linejoin="round" stroke-miterlimit="10" d="
				M192.042,29.99c0,0,17.729,5.773,37.063-15.193C248.439-6.17,265.794-6.34,269.992-4.934"/>
			
				<path fill="#FFD009" stroke="#010202" stroke-width="2.4" stroke-linecap="round" stroke-linejoin="round" stroke-miterlimit="10" d="
				M206.218,29.463c-30.147-28.355-62.054-6.314-55.889,18.674c0,0,1.244,3.887,0.893,2.992s1.347,2.705,1.347,2.705
				C165.064,76.334,203.439,70.756,206.218,29.463"/>
			
				<polygon fill="#FFD009" stroke="#010202" stroke-width="2.4" stroke-linecap="round" stroke-linejoin="round" stroke-miterlimit="10" points="
				205.662,31.395 209.889,31.684 207.395,25.338 204.496,28.426 			"/>
			
				<path fill="none" stroke="#010202" stroke-width="2.4" stroke-linecap="round" stroke-linejoin="round" stroke-miterlimit="10" d="
				M155.468,44.506c-1.584-5.477,0.96-16.322,11.103-20.104"/>
		</g>
	</g>
	<g>
		
			<path fill="none" stroke="#010202" stroke-width="2.4" stroke-linecap="round" stroke-linejoin="round" stroke-miterlimit="10" d="
			M-64.665,219.34c0,0,19.767,16.289,55.021-0.805c35.254-17.094,57.526-8.59,62.188-4.684"/>
		<g>
			
				<path fill="none" stroke="#010202" stroke-width="2.4" stroke-linecap="round" stroke-linejoin="round" stroke-miterlimit="10" d="
				M-40.442,183.549c0,0,11.084,17.766,42.852,13.684c31.77-4.082,46.82,8.301,49.418,12.541"/>
		</g>
		<g>
			
				<path fill="none" stroke="#010202" stroke-width="2.4" stroke-linecap="round" stroke-linejoin="round" stroke-miterlimit="10" d="
				M-27.053,249.99c0,0,17.729,5.773,37.063-15.193c19.334-20.967,36.688-21.137,40.887-19.73"/>
		</g>
	</g>
	<g>
		
			<path fill="none" stroke="#010202" stroke-width="2.4" stroke-linecap="round" stroke-linejoin="round" stroke-miterlimit="10" d="
			M-64.665-0.66c0,0,19.767,16.289,55.021-0.805c35.254-17.094,57.526-8.59,62.188-4.684"/>
		<g>
			
				<path fill="none" stroke="#010202" stroke-width="2.4" stroke-linecap="round" stroke-linejoin="round" stroke-miterlimit="10" d="
				M-27.053,29.99c0,0,17.729,5.773,37.063-15.193C29.345-6.17,46.699-6.34,50.897-4.934"/>
		</g>
	</g>
</g>
</svg>
