<?xml version="1.0" encoding="utf-8"?>
<!-- Generator: Adobe Illustrator 16.0.0, SVG Export Plug-In . SVG Version: 6.00 Build 0)  -->
<!DOCTYPE svg PUBLIC "-//W3C//DTD SVG 1.1//EN" "http://www.w3.org/Graphics/SVG/1.1/DTD/svg11.dtd">
<svg version="1.1" xmlns="http://www.w3.org/2000/svg" xmlns:xlink="http://www.w3.org/1999/xlink" x="0px" y="0px" width="220px"
	 height="220px" viewBox="0 0 220 220" enable-background="new 0 0 220 220" xml:space="preserve">
<g id="bg">
	<g>
		<g>
			<g>
				<rect fill="none" width="220" height="220"/>
			</g>
		</g>
	</g>
</g>
<g id="Layer_1">
	<g>
		
			<path fill="none" stroke="#010202" stroke-width="2.4" stroke-linecap="round" stroke-linejoin="round" stroke-miterlimit="10" d="
			M0.656,65.57c0,0-16.289-19.768,0.804-55.021c17.094-35.254,8.591-57.527,4.684-62.189"/>
		
			<path fill="#1F71B8" stroke="#010202" stroke-width="2.4" stroke-linecap="round" stroke-linejoin="round" stroke-miterlimit="10" d="
			M-5.792,47.18c51.4,24.299,39.251,76.166,4.206,80.838c0,0-5.597,0.363-4.276,0.363c1.321,0-4.135-0.363-4.135-0.363
			C-45.042,123.346-57.192,71.479-5.792,47.18"/>
		
			<polygon fill="#1F71B8" stroke="#010202" stroke-width="2.4" stroke-linecap="round" stroke-linejoin="round" stroke-miterlimit="10" points="
			-7.984,48.861 -10.476,43.604 -1.109,43.604 -3.601,48.861 		"/>
		
			<path fill="none" stroke="#010202" stroke-width="2.4" stroke-linecap="round" stroke-linejoin="round" stroke-miterlimit="10" d="
			M0.474,119.623c7.796-0.725,20.385-9.428,20.124-24.293"/>
		<g>
			
				<path fill="none" stroke="#010202" stroke-width="2.4" stroke-linecap="round" stroke-linejoin="round" stroke-miterlimit="10" d="
				M36.446,41.348c0,0-17.765-11.084-13.684-42.852c4.082-31.77-8.301-46.82-12.541-49.418"/>
			
				<path fill="#E20717" stroke="#010202" stroke-width="2.4" stroke-linecap="round" stroke-linejoin="round" stroke-miterlimit="10" d="
				M26.667,28.771c46.155,5.467,50.226,48.826,24.279,61.561c0,0-4.243,1.736-3.22,1.393s-3.299,0.793-3.299,0.793
				C16.051,98.01-6.852,60.971,26.667,28.771"/>
			
				<polygon fill="#E20717" stroke="#010202" stroke-width="2.4" stroke-linecap="round" stroke-linejoin="round" stroke-miterlimit="10" points="
				25.406,30.645 22.107,27.217 29.367,24.781 28.802,29.504 			"/>
			
				<path fill="none" stroke="#010202" stroke-width="2.4" stroke-linecap="round" stroke-linejoin="round" stroke-miterlimit="10" d="
				M50.362,83.289c5.854-2.59,13.348-12.607,9.279-24.063"/>
		</g>
		<g>
			
				<path fill="none" stroke="#010202" stroke-width="2.4" stroke-linecap="round" stroke-linejoin="round" stroke-miterlimit="10" d="
				M-29.996,27.957c0,0-5.774-17.729,15.193-37.063S6.333-45.795,4.928-49.992"/>
		</g>
	</g>
	<g>
		
			<path fill="none" stroke="#010202" stroke-width="2.4" stroke-linecap="round" stroke-linejoin="round" stroke-miterlimit="10" d="
			M220.656,65.57c0,0-16.289-19.768,0.804-55.021c17.094-35.254,8.59-57.527,4.684-62.189"/>
		
			<path fill="#1F71B8" stroke="#010202" stroke-width="2.4" stroke-linecap="round" stroke-linejoin="round" stroke-miterlimit="10" d="
			M214.208,47.18c51.4,24.299,39.25,76.166,4.206,80.838c0,0-5.597,0.363-4.276,0.363s-4.135-0.363-4.135-0.363
			C174.958,123.346,162.808,71.479,214.208,47.18"/>
		
			<polygon fill="#1F71B8" stroke="#010202" stroke-width="2.4" stroke-linecap="round" stroke-linejoin="round" stroke-miterlimit="10" points="
			212.017,48.861 209.524,43.604 218.892,43.604 216.399,48.861 		"/>
		
			<path fill="none" stroke="#010202" stroke-width="2.4" stroke-linecap="round" stroke-linejoin="round" stroke-miterlimit="10" d="
			M220.474,119.623c7.796-0.725,20.385-9.428,20.125-24.293"/>
		<g>
			
				<path fill="none" stroke="#010202" stroke-width="2.4" stroke-linecap="round" stroke-linejoin="round" stroke-miterlimit="10" d="
				M190.004,27.957c0,0-5.774-17.729,15.193-37.063s21.136-36.689,19.73-40.887"/>
			
				<path fill="#FFD009" stroke="#010202" stroke-width="2.4" stroke-linecap="round" stroke-linejoin="round" stroke-miterlimit="10" d="
				M190.532,13.781c28.355,30.148,6.314,62.055-18.673,55.889c0,0-3.889-1.244-2.993-0.893c0.895,0.352-2.705-1.346-2.705-1.346
				C143.661,54.936,149.239,16.561,190.532,13.781"/>
			
				<polygon fill="#FFD009" stroke="#010202" stroke-width="2.4" stroke-linecap="round" stroke-linejoin="round" stroke-miterlimit="10" points="
				188.6,14.338 188.311,10.111 194.658,12.605 191.569,15.504 			"/>
			
				<path fill="none" stroke="#010202" stroke-width="2.4" stroke-linecap="round" stroke-linejoin="round" stroke-miterlimit="10" d="
				M175.49,64.531c5.475,1.584,16.321-0.959,20.103-11.102"/>
		</g>
	</g>
	<g>
		
			<path fill="none" stroke="#010202" stroke-width="2.4" stroke-linecap="round" stroke-linejoin="round" stroke-miterlimit="10" d="
			M0.656,284.664c0,0-16.289-19.766,0.804-55.021c17.094-35.254,8.591-57.525,4.684-62.188"/>
		<g>
			
				<path fill="none" stroke="#010202" stroke-width="2.4" stroke-linecap="round" stroke-linejoin="round" stroke-miterlimit="10" d="
				M36.446,260.441c0,0-17.765-11.084-13.684-42.852c4.082-31.77-8.301-46.82-12.541-49.418"/>
		</g>
		<g>
			
				<path fill="none" stroke="#010202" stroke-width="2.4" stroke-linecap="round" stroke-linejoin="round" stroke-miterlimit="10" d="
				M-29.996,247.053c0,0-5.774-17.729,15.193-37.064c20.968-19.334,21.136-36.688,19.73-40.887"/>
		</g>
	</g>
	<g>
		
			<path fill="none" stroke="#010202" stroke-width="2.4" stroke-linecap="round" stroke-linejoin="round" stroke-miterlimit="10" d="
			M220.656,284.664c0,0-16.289-19.766,0.804-55.021c17.094-35.254,8.59-57.525,4.684-62.188"/>
		<g>
			
				<path fill="none" stroke="#010202" stroke-width="2.4" stroke-linecap="round" stroke-linejoin="round" stroke-miterlimit="10" d="
				M190.004,247.053c0,0-5.774-17.729,15.193-37.064c20.968-19.334,21.136-36.688,19.73-40.887"/>
		</g>
	</g>
</g>
</svg>
