<?xml version="1.0" encoding="utf-8"?>
<!-- Generator: Adobe Illustrator 16.0.0, SVG Export Plug-In . SVG Version: 6.00 Build 0)  -->
<!DOCTYPE svg PUBLIC "-//W3C//DTD SVG 1.1//EN" "http://www.w3.org/Graphics/SVG/1.1/DTD/svg11.dtd">
<svg version="1.1" xmlns="http://www.w3.org/2000/svg" xmlns:xlink="http://www.w3.org/1999/xlink" x="0px" y="0px"
	 width="453.544px" height="453.543px" viewBox="0 0 453.544 453.543" enable-background="new 0 0 453.544 453.543"
	 xml:space="preserve">
<g id="kvadrat" display="none">
</g>
<g id="color">
	<g id="rdeča7bela">
	</g>
	<g>
		<g>
			
				<circle fill="#FFFFFF" stroke="#000000" stroke-width="8" stroke-linecap="round" stroke-linejoin="round" stroke-miterlimit="10" cx="114.685" cy="342.041" r="23.917"/>
			
				<path fill="#7E4E24" stroke="#000000" stroke-width="8" stroke-linecap="round" stroke-linejoin="round" stroke-miterlimit="10" d="
				M345.276,198.006l-165.318,88.62c14.84,4.482,48.664,5.699,48.664,5.699s31.178,4.018,38.578,15.254
				c14.963,27.908,24.637,61.42,31.543,74.303c6.904,12.883,24.523,7.227,39.613-0.863c15.092-8.09,29.551-19.635,22.646-32.516
				c-9.053-11.727-31.111-39.98-46.57-66.242c-6.904-12.881,8.654-40.572,8.654-40.572S340.794,212.849,345.276,198.006z"/>
			
				<path fill="#BD1622" stroke="#000000" stroke-width="8" stroke-linecap="round" stroke-linejoin="round" stroke-miterlimit="10" d="
				M174.638,78.196c66.004-36.521,128.316,3.1,158.189,56.691c10.451,19.498,15.586,41.85,12.143,63.094l-164.857,88.377
				c-19.189-10.25-35.373-25.545-45.828-45.039C106.187,186.772,107.69,112.948,174.638,78.196z"/>
			
				<line fill="#FFFFFF" stroke="#000000" stroke-width="8" stroke-linecap="round" stroke-linejoin="round" stroke-miterlimit="10" x1="316.892" y1="286.358" x2="285.958" y2="232.47"/>
			
				<line fill="#FFFFFF" stroke="#000000" stroke-width="8" stroke-linecap="round" stroke-linejoin="round" stroke-miterlimit="10" x1="269.327" y1="311.081" x2="238.394" y2="257.192"/>
		</g>
	</g>
</g>
<g id="cb" display="none">
	<g id="rdeča7bela_copy" display="inline">
	</g>
	<g display="inline">
		<g>
			
				<circle fill="none" stroke="#000000" stroke-width="8" stroke-linecap="round" stroke-linejoin="round" stroke-miterlimit="10" cx="114.685" cy="342.041" r="23.917"/>
			<path fill="none" stroke="#000000" stroke-width="8" stroke-linecap="round" stroke-linejoin="round" stroke-miterlimit="10" d="
				M345.276,198.006l-165.318,88.62c14.84,4.482,48.664,5.699,48.664,5.699s31.178,4.018,38.578,15.254
				c14.963,27.908,24.637,61.42,31.543,74.303c6.904,12.883,24.523,7.227,39.613-0.863c15.092-8.09,29.551-19.635,22.646-32.516
				c-9.053-11.727-31.111-39.98-46.57-66.242c-6.904-12.881,8.654-40.572,8.654-40.572S340.794,212.849,345.276,198.006z"/>
			<path fill="none" stroke="#000000" stroke-width="8" stroke-linecap="round" stroke-linejoin="round" stroke-miterlimit="10" d="
				M174.638,78.196c66.004-36.521,128.316,3.1,158.189,56.691c10.451,19.498,15.586,41.85,12.143,63.094l-164.857,88.377
				c-19.189-10.25-35.373-25.545-45.828-45.039C106.187,186.772,107.69,112.948,174.638,78.196z"/>
			
				<line fill="none" stroke="#000000" stroke-width="8" stroke-linecap="round" stroke-linejoin="round" stroke-miterlimit="10" x1="316.892" y1="286.358" x2="285.958" y2="232.47"/>
			
				<line fill="none" stroke="#000000" stroke-width="8" stroke-linecap="round" stroke-linejoin="round" stroke-miterlimit="10" x1="269.327" y1="311.081" x2="238.394" y2="257.192"/>
		</g>
	</g>
</g>
<g id="pivot">
	<circle fill="none" cx="218.53" cy="379.17" r="14.133"/>
</g>
</svg>
