<?xml version="1.0" encoding="utf-8"?>
<!-- Generator: Adobe Illustrator 16.0.0, SVG Export Plug-In . SVG Version: 6.00 Build 0)  -->
<!DOCTYPE svg PUBLIC "-//W3C//DTD SVG 1.1//EN" "http://www.w3.org/Graphics/SVG/1.1/DTD/svg11.dtd">
<svg version="1.1" xmlns="http://www.w3.org/2000/svg" xmlns:xlink="http://www.w3.org/1999/xlink" x="0px" y="0px" width="220px"
	 height="220px" viewBox="0 0 220 220" enable-background="new 0 0 220 220" xml:space="preserve">
<g id="bg" display="none">
</g>
<g id="Layer_3">
</g>
<g id="Layer_1">
	<g>
		<defs>
			<rect id="SVGID_29_" x="-5490.076" width="220" height="220"/>
		</defs>
		<clipPath id="SVGID_2_">
			<use xlink:href="#SVGID_29_"  overflow="visible"/>
		</clipPath>
	</g>
	<g>
		<defs>
			<rect id="SVGID_31_" x="-4290.076" width="220" height="220"/>
		</defs>
		<clipPath id="SVGID_4_">
			<use xlink:href="#SVGID_31_"  overflow="visible"/>
		</clipPath>
	</g>
	<g>
		<defs>
			<rect id="SVGID_33_" x="-3690.076" width="220" height="220"/>
		</defs>
		<clipPath id="SVGID_6_">
			<use xlink:href="#SVGID_33_"  overflow="visible"/>
		</clipPath>
	</g>
	<g>
		<defs>
			<rect id="SVGID_35_" x="-3990.076" width="220" height="220"/>
		</defs>
		<clipPath id="SVGID_8_">
			<use xlink:href="#SVGID_35_"  overflow="visible"/>
		</clipPath>
	</g>
	<g>
		<defs>
			<rect id="SVGID_37_" x="-5190.076" width="220" height="220"/>
		</defs>
		<clipPath id="SVGID_10_">
			<use xlink:href="#SVGID_37_"  overflow="visible"/>
		</clipPath>
	</g>
	<g>
		<defs>
			<rect id="SVGID_39_" x="-4590.076" width="220" height="220"/>
		</defs>
		<clipPath id="SVGID_12_">
			<use xlink:href="#SVGID_39_"  overflow="visible"/>
		</clipPath>
	</g>
	<g>
		<defs>
			<rect id="SVGID_405_" x="0" width="220" height="220"/>
		</defs>
		<clipPath id="SVGID_14_">
			<use xlink:href="#SVGID_405_"  overflow="visible"/>
		</clipPath>
		<g clip-path="url(#SVGID_14_)">
			<g>
				<rect x="0" fill="#C8C8C8" width="220" height="220"/>
			</g>
		</g>
		<g clip-path="url(#SVGID_14_)">
			
				<rect x="101.661" y="31.175" stroke="#000000" stroke-width="2.4" stroke-linecap="round" stroke-linejoin="round" stroke-miterlimit="10" width="11.694" height="13.68"/>
			
				<rect x="94.003" y="44.447" fill="#C7C7C7" stroke="#000000" stroke-width="2.4" stroke-linecap="round" stroke-linejoin="round" stroke-miterlimit="10" width="48.13" height="32.636"/>
			<g>
				
					<polyline fill="#2E2E2E" stroke="#000000" stroke-width="2.4" stroke-linecap="round" stroke-linejoin="round" stroke-miterlimit="10" points="
					173.827,71.521 182.68,66.474 78.436,72.138 89.848,87.103 				"/>
			</g>
			
				<circle fill="#FFFFFF" stroke="#000000" stroke-width="2.4" stroke-linecap="round" stroke-linejoin="round" stroke-miterlimit="10" cx="104.683" cy="56.331" r="4.798"/>
			
				<circle fill="#FFFFFF" stroke="#000000" stroke-width="2.4" stroke-linecap="round" stroke-linejoin="round" stroke-miterlimit="10" cx="118.454" cy="56.331" r="4.798"/>
			
				<circle fill="#FFFFFF" stroke="#000000" stroke-width="2.4" stroke-linecap="round" stroke-linejoin="round" stroke-miterlimit="10" cx="132.223" cy="56.331" r="4.798"/>
			
				<path fill="#4A4A4A" stroke="#000000" stroke-width="2.4" stroke-linecap="round" stroke-linejoin="round" stroke-miterlimit="10" d="
				M85.291,80.852L95.99,94.94h65.805c0,0,14.917-24.976,20.886-28.466L85.291,80.852z"/>
		</g>
		<g clip-path="url(#SVGID_14_)">
			
				<rect x="15.232" y="8.138" stroke="#000000" stroke-width="2.4" stroke-linecap="round" stroke-linejoin="round" stroke-miterlimit="10" width="1.606" height="70.636"/>
			
				<path fill="#8A8A8A" stroke="#000000" stroke-width="2.4" stroke-linecap="round" stroke-linejoin="round" stroke-miterlimit="10" d="
				M14.979,24.914v38.144h-29.781C-14.802,63.058,11.984,41.849,14.979,24.914z"/>
			
				<path fill="#D6D6D6" stroke="#000000" stroke-width="2.4" stroke-linecap="round" stroke-linejoin="round" stroke-miterlimit="10" d="
				M58.524,63.058c0,0-38.235-37.768-43.292-54.92v54.92H58.524z"/>
			
				<path fill="#D6D6D6" stroke="#000000" stroke-width="2.4" stroke-linecap="round" stroke-linejoin="round" stroke-miterlimit="10" d="
				M41.865,95.573c-15.475,0-37.779,0-48.395,0c-10.617,0-16.659-21.279-16.659-21.279h81.713
				C58.524,74.294,57.341,95.573,41.865,95.573z"/>
		</g>
		<g clip-path="url(#SVGID_14_)">
			
				<rect x="105.494" y="139.037" stroke="#000000" stroke-width="2.4" stroke-linecap="round" stroke-linejoin="round" stroke-miterlimit="10" width="11.694" height="13.679"/>
			
				<rect x="76.715" y="152.309" fill="#C7C7C7" stroke="#000000" stroke-width="2.4" stroke-linecap="round" stroke-linejoin="round" stroke-miterlimit="10" width="48.13" height="32.637"/>
			<g>
				
					<polyline fill="#2E2E2E" stroke="#000000" stroke-width="2.4" stroke-linecap="round" stroke-linejoin="round" stroke-miterlimit="10" points="
					45.022,179.383 36.168,174.336 140.413,180 129,194.965 				"/>
			</g>
			
				<circle fill="#FFFFFF" stroke="#000000" stroke-width="2.4" stroke-linecap="round" stroke-linejoin="round" stroke-miterlimit="10" cx="114.166" cy="164.193" r="4.798"/>
			
				<circle fill="#FFFFFF" stroke="#000000" stroke-width="2.4" stroke-linecap="round" stroke-linejoin="round" stroke-miterlimit="10" cx="100.395" cy="164.193" r="4.798"/>
			
				<circle fill="#FFFFFF" stroke="#000000" stroke-width="2.4" stroke-linecap="round" stroke-linejoin="round" stroke-miterlimit="10" cx="86.625" cy="164.193" r="4.798"/>
			
				<path fill="#4A4A4A" stroke="#000000" stroke-width="2.4" stroke-linecap="round" stroke-linejoin="round" stroke-miterlimit="10" d="
				M133.559,188.713l-10.7,14.09H57.054c0,0-14.917-24.977-20.886-28.467L133.559,188.713z"/>
		</g>
		<g clip-path="url(#SVGID_14_)">
			
				<path fill="#D6D6D6" stroke="#000000" stroke-width="2.4" stroke-linecap="round" stroke-linejoin="round" stroke-miterlimit="10" d="
				M16.257,170.92c0,0-38.235-37.768-43.292-54.92v54.92H16.257z"/>
			
				<path fill="#D6D6D6" stroke="#000000" stroke-width="2.4" stroke-linecap="round" stroke-linejoin="round" stroke-miterlimit="10" d="
				M-0.402,203.436c-15.475,0-37.779,0-48.395,0c-10.617,0-16.659-21.28-16.659-21.28h81.713
				C16.257,182.155,15.073,203.436-0.402,203.436z"/>
		</g>
		<g clip-path="url(#SVGID_14_)">
			
				<path fill="#8A8A8A" stroke="#000000" stroke-width="2.4" stroke-linecap="round" stroke-linejoin="round" stroke-miterlimit="10" d="
				M234.979,24.914v38.144h-29.781C205.198,63.058,231.984,41.849,234.979,24.914z"/>
			
				<path fill="#D6D6D6" stroke="#000000" stroke-width="2.4" stroke-linecap="round" stroke-linejoin="round" stroke-miterlimit="10" d="
				M261.865,95.573c-15.475,0-37.779,0-48.395,0c-10.617,0-16.659-21.279-16.659-21.279h81.713
				C278.524,74.294,277.341,95.573,261.865,95.573z"/>
		</g>
		<g clip-path="url(#SVGID_14_)">
			
				<rect x="192.965" y="116" stroke="#000000" stroke-width="2.4" stroke-linecap="round" stroke-linejoin="round" stroke-miterlimit="10" width="1.606" height="70.637"/>
			
				<path fill="#8A8A8A" stroke="#000000" stroke-width="2.4" stroke-linecap="round" stroke-linejoin="round" stroke-miterlimit="10" d="
				M192.711,132.775v38.145H162.93C162.93,170.92,189.717,149.711,192.711,132.775z"/>
			
				<path fill="#D6D6D6" stroke="#000000" stroke-width="2.4" stroke-linecap="round" stroke-linejoin="round" stroke-miterlimit="10" d="
				M236.257,170.92c0,0-38.235-37.768-43.292-54.92v54.92H236.257z"/>
			
				<path fill="#D6D6D6" stroke="#000000" stroke-width="2.4" stroke-linecap="round" stroke-linejoin="round" stroke-miterlimit="10" d="
				M219.598,203.436c-15.475,0-37.779,0-48.395,0c-10.617,0-16.659-21.28-16.659-21.28h81.713
				C236.257,182.155,235.073,203.436,219.598,203.436z"/>
		</g>
		
			<line clip-path="url(#SVGID_14_)" fill="none" stroke="#000000" stroke-width="2.4" stroke-linecap="round" stroke-linejoin="round" stroke-miterlimit="10" x1="7.816" y1="118" x2="166.183" y2="118"/>
		
			<line clip-path="url(#SVGID_14_)" fill="none" stroke="#000000" stroke-width="2.4" stroke-linecap="round" stroke-linejoin="round" stroke-miterlimit="10" x1="157.086" y1="17.316" x2="210.247" y2="17.316"/>
	</g>
	<g>
		<defs>
			<rect id="SVGID_411_" x="-2100" width="220" height="220"/>
		</defs>
		<clipPath id="SVGID_16_">
			<use xlink:href="#SVGID_411_"  overflow="visible"/>
		</clipPath>
	</g>
	<g>
		<defs>
			<rect id="SVGID_413_" x="-900" width="220" height="220"/>
		</defs>
		<clipPath id="SVGID_18_">
			<use xlink:href="#SVGID_413_"  overflow="visible"/>
		</clipPath>
	</g>
	<g>
		<defs>
			<rect id="SVGID_415_" x="-300" width="220" height="220"/>
		</defs>
		<clipPath id="SVGID_20_">
			<use xlink:href="#SVGID_415_"  overflow="visible"/>
		</clipPath>
	</g>
	<g>
		<defs>
			<rect id="SVGID_417_" x="-600" width="220" height="220"/>
		</defs>
		<clipPath id="SVGID_22_">
			<use xlink:href="#SVGID_417_"  overflow="visible"/>
		</clipPath>
	</g>
	<g>
		<defs>
			<rect id="SVGID_419_" x="-1800" width="220" height="220"/>
		</defs>
		<clipPath id="SVGID_24_">
			<use xlink:href="#SVGID_419_"  overflow="visible"/>
		</clipPath>
	</g>
	<g>
		<defs>
			<rect id="SVGID_421_" x="-1200" width="220" height="220"/>
		</defs>
		<clipPath id="SVGID_26_">
			<use xlink:href="#SVGID_421_"  overflow="visible"/>
		</clipPath>
	</g>
</g>
</svg>
