<?xml version="1.0" encoding="utf-8"?>
<!-- Generator: Adobe Illustrator 16.0.0, SVG Export Plug-In . SVG Version: 6.00 Build 0)  -->
<!DOCTYPE svg PUBLIC "-//W3C//DTD SVG 1.1//EN" "http://www.w3.org/Graphics/SVG/1.1/DTD/svg11.dtd">
<svg version="1.1" xmlns="http://www.w3.org/2000/svg" xmlns:xlink="http://www.w3.org/1999/xlink" x="0px" y="0px" width="220px"
	 height="220px" viewBox="0 0 220 220" enable-background="new 0 0 220 220" xml:space="preserve">
<g id="bg" display="none">
</g>
<g id="Layer_3">
</g>
<g id="Layer_1">
	<g>
		<defs>
			<rect id="SVGID_29_" x="-4890.076" width="220" height="220"/>
		</defs>
		<clipPath id="SVGID_2_">
			<use xlink:href="#SVGID_29_"  overflow="visible"/>
		</clipPath>
	</g>
	<g>
		<defs>
			<rect id="SVGID_31_" x="-3690.076" width="220" height="220"/>
		</defs>
		<clipPath id="SVGID_4_">
			<use xlink:href="#SVGID_31_"  overflow="visible"/>
		</clipPath>
	</g>
	<g>
		<defs>
			<rect id="SVGID_33_" x="-3090.076" width="220" height="220"/>
		</defs>
		<clipPath id="SVGID_6_">
			<use xlink:href="#SVGID_33_"  overflow="visible"/>
		</clipPath>
	</g>
	<g>
		<defs>
			<rect id="SVGID_35_" x="-3390.076" width="220" height="220"/>
		</defs>
		<clipPath id="SVGID_8_">
			<use xlink:href="#SVGID_35_"  overflow="visible"/>
		</clipPath>
	</g>
	<g>
		<defs>
			<rect id="SVGID_37_" x="-4590.076" width="220" height="220"/>
		</defs>
		<clipPath id="SVGID_10_">
			<use xlink:href="#SVGID_37_"  overflow="visible"/>
		</clipPath>
	</g>
	<g>
		<defs>
			<rect id="SVGID_39_" x="-3990.076" width="220" height="220"/>
		</defs>
		<clipPath id="SVGID_12_">
			<use xlink:href="#SVGID_39_"  overflow="visible"/>
		</clipPath>
	</g>
	<g>
		<defs>
			<rect id="SVGID_411_" x="-1500" width="220" height="220"/>
		</defs>
		<clipPath id="SVGID_14_">
			<use xlink:href="#SVGID_411_"  overflow="visible"/>
		</clipPath>
	</g>
	<g>
		<defs>
			<rect id="SVGID_413_" x="-300" width="220" height="220"/>
		</defs>
		<clipPath id="SVGID_16_">
			<use xlink:href="#SVGID_413_"  overflow="visible"/>
		</clipPath>
	</g>
	<g>
		<defs>
			<rect id="SVGID_417_" x="0" width="220" height="220"/>
		</defs>
		<clipPath id="SVGID_18_">
			<use xlink:href="#SVGID_417_"  overflow="visible"/>
		</clipPath>
		<g clip-path="url(#SVGID_18_)">
			<g>
				<rect x="0" fill="#C8C8C8" width="220" height="220"/>
			</g>
		</g>
		<g clip-path="url(#SVGID_18_)">
			
				<rect x="211.058" y="31.175" stroke="#000000" stroke-width="2.4" stroke-linecap="round" stroke-linejoin="round" stroke-miterlimit="10" width="11.694" height="13.68"/>
			
				<rect x="203.4" y="44.447" fill="#C7C7C7" stroke="#000000" stroke-width="2.4" stroke-linecap="round" stroke-linejoin="round" stroke-miterlimit="10" width="48.13" height="32.636"/>
			<g>
				
					<polyline fill="#2E2E2E" stroke="#000000" stroke-width="2.4" stroke-linecap="round" stroke-linejoin="round" stroke-miterlimit="10" points="
					283.224,71.521 292.077,66.474 187.833,72.138 199.245,87.103 				"/>
			</g>
			
				<circle fill="#FFFFFF" stroke="#000000" stroke-width="2.4" stroke-linecap="round" stroke-linejoin="round" stroke-miterlimit="10" cx="214.08" cy="56.331" r="4.798"/>
			
				<path fill="#4A4A4A" stroke="#000000" stroke-width="2.4" stroke-linecap="round" stroke-linejoin="round" stroke-miterlimit="10" d="
				M194.688,80.852l10.699,14.088h65.805c0,0,14.917-24.976,20.886-28.466L194.688,80.852z"/>
		</g>
		<g clip-path="url(#SVGID_18_)">
			
				<rect x="124.629" y="8.138" stroke="#000000" stroke-width="2.4" stroke-linecap="round" stroke-linejoin="round" stroke-miterlimit="10" width="1.606" height="70.636"/>
			
				<path fill="#8A8A8A" stroke="#000000" stroke-width="2.4" stroke-linecap="round" stroke-linejoin="round" stroke-miterlimit="10" d="
				M124.375,24.914v38.144H94.595C94.595,63.058,121.381,41.849,124.375,24.914z"/>
			
				<path fill="#4A4A4A" stroke="#000000" stroke-width="2.4" stroke-linecap="round" stroke-linejoin="round" stroke-miterlimit="10" d="
				M167.921,63.058c0,0-38.235-37.768-43.292-54.92v54.92H167.921z"/>
			
				<path fill="#D6D6D6" stroke="#000000" stroke-width="2.4" stroke-linecap="round" stroke-linejoin="round" stroke-miterlimit="10" d="
				M151.262,95.573c-15.475,0-37.779,0-48.395,0c-10.617,0-16.659-21.279-16.659-21.279h81.713
				C167.921,74.294,166.737,95.573,151.262,95.573z"/>
		</g>
		<g clip-path="url(#SVGID_18_)">
			
				<rect x="168.79" y="139.037" stroke="#000000" stroke-width="2.4" stroke-linecap="round" stroke-linejoin="round" stroke-miterlimit="10" width="11.694" height="13.679"/>
			
				<rect x="161.133" y="152.309" fill="#C7C7C7" stroke="#000000" stroke-width="2.4" stroke-linecap="round" stroke-linejoin="round" stroke-miterlimit="10" width="48.13" height="32.637"/>
			<g>
				
					<polyline fill="#2E2E2E" stroke="#000000" stroke-width="2.4" stroke-linecap="round" stroke-linejoin="round" stroke-miterlimit="10" points="
					240.956,179.383 249.81,174.336 145.565,180 156.978,194.965 				"/>
			</g>
			
				<circle fill="#FFFFFF" stroke="#000000" stroke-width="2.4" stroke-linecap="round" stroke-linejoin="round" stroke-miterlimit="10" cx="171.813" cy="164.193" r="4.798"/>
			
				<circle fill="#FFFFFF" stroke="#000000" stroke-width="2.4" stroke-linecap="round" stroke-linejoin="round" stroke-miterlimit="10" cx="185.583" cy="164.193" r="4.798"/>
			
				<circle fill="#FFFFFF" stroke="#000000" stroke-width="2.4" stroke-linecap="round" stroke-linejoin="round" stroke-miterlimit="10" cx="199.353" cy="164.193" r="4.798"/>
			
				<path fill="#4A4A4A" stroke="#000000" stroke-width="2.4" stroke-linecap="round" stroke-linejoin="round" stroke-miterlimit="10" d="
				M152.419,188.713l10.7,14.09h65.805c0,0,14.917-24.977,20.886-28.467L152.419,188.713z"/>
		</g>
		<g clip-path="url(#SVGID_18_)">
			
				<rect x="-8.942" y="31.175" stroke="#000000" stroke-width="2.4" stroke-linecap="round" stroke-linejoin="round" stroke-miterlimit="10" width="11.694" height="13.68"/>
			
				<rect x="-16.6" y="44.447" fill="#C7C7C7" stroke="#000000" stroke-width="2.4" stroke-linecap="round" stroke-linejoin="round" stroke-miterlimit="10" width="48.13" height="32.636"/>
			<g>
				
					<polyline fill="#2E2E2E" stroke="#000000" stroke-width="2.4" stroke-linecap="round" stroke-linejoin="round" stroke-miterlimit="10" points="
					63.224,71.521 72.077,66.474 -32.167,72.138 -20.755,87.103 				"/>
			</g>
			
				<circle fill="#FFFFFF" stroke="#000000" stroke-width="2.4" stroke-linecap="round" stroke-linejoin="round" stroke-miterlimit="10" cx="-5.92" cy="56.331" r="4.798"/>
			
				<circle fill="#FFFFFF" stroke="#000000" stroke-width="2.4" stroke-linecap="round" stroke-linejoin="round" stroke-miterlimit="10" cx="7.85" cy="56.331" r="4.798"/>
			
				<circle fill="#FFFFFF" stroke="#000000" stroke-width="2.4" stroke-linecap="round" stroke-linejoin="round" stroke-miterlimit="10" cx="21.62" cy="56.331" r="4.798"/>
			
				<path fill="#4A4A4A" stroke="#000000" stroke-width="2.4" stroke-linecap="round" stroke-linejoin="round" stroke-miterlimit="10" d="
				M-25.313,80.852l10.699,14.088h65.805c0,0,14.917-24.976,20.886-28.466L-25.313,80.852z"/>
		</g>
		<g clip-path="url(#SVGID_18_)">
			<g>
				
					<polyline fill="#2E2E2E" stroke="#000000" stroke-width="2.4" stroke-linecap="round" stroke-linejoin="round" stroke-miterlimit="10" points="
					20.956,179.383 29.81,174.336 -74.435,180 -63.022,194.965 				"/>
			</g>
			
				<path fill="#4A4A4A" stroke="#000000" stroke-width="2.4" stroke-linecap="round" stroke-linejoin="round" stroke-miterlimit="10" d="
				M-67.581,188.713l10.7,14.09H8.924c0,0,14.917-24.977,20.886-28.467L-67.581,188.713z"/>
		</g>
		<g clip-path="url(#SVGID_18_)">
			
				<rect x="82.362" y="116" stroke="#000000" stroke-width="2.4" stroke-linecap="round" stroke-linejoin="round" stroke-miterlimit="10" width="1.606" height="70.637"/>
			
				<path fill="#8A8A8A" stroke="#000000" stroke-width="2.4" stroke-linecap="round" stroke-linejoin="round" stroke-miterlimit="10" d="
				M82.108,132.775v38.145H52.327C52.327,170.92,79.113,149.711,82.108,132.775z"/>
			
				<path fill="#4A4A4A" stroke="#000000" stroke-width="2.4" stroke-linecap="round" stroke-linejoin="round" stroke-miterlimit="10" d="
				M125.654,170.92c0,0-38.235-37.768-43.292-54.92v54.92H125.654z"/>
			
				<path fill="#D6D6D6" stroke="#000000" stroke-width="2.4" stroke-linecap="round" stroke-linejoin="round" stroke-miterlimit="10" d="
				M108.995,203.436c-15.475,0-37.779,0-48.395,0c-10.617,0-16.659-21.28-16.659-21.28h81.713
				C125.654,182.155,124.47,203.436,108.995,203.436z"/>
		</g>
	</g>
	<g>
		<defs>
			<rect id="SVGID_419_" x="-1200" width="220" height="220"/>
		</defs>
		<clipPath id="SVGID_20_">
			<use xlink:href="#SVGID_419_"  overflow="visible"/>
		</clipPath>
	</g>
	<g>
		<defs>
			<rect id="SVGID_421_" x="-600" width="220" height="220"/>
		</defs>
		<clipPath id="SVGID_22_">
			<use xlink:href="#SVGID_421_"  overflow="visible"/>
		</clipPath>
	</g>
</g>
</svg>
