<?xml version="1.0" encoding="utf-8"?>
<!-- Generator: Adobe Illustrator 16.0.0, SVG Export Plug-In . SVG Version: 6.00 Build 0)  -->
<!DOCTYPE svg PUBLIC "-//W3C//DTD SVG 1.1//EN" "http://www.w3.org/Graphics/SVG/1.1/DTD/svg11.dtd">
<svg version="1.1" xmlns="http://www.w3.org/2000/svg" xmlns:xlink="http://www.w3.org/1999/xlink" x="0px" y="0px" width="220px"
	 height="220px" viewBox="0 0 220 220" enable-background="new 0 0 220 220" xml:space="preserve">
<g id="bg" display="none">
</g>
<g id="Layer_3">
</g>
<g id="Layer_1">
	<g>
		<defs>
			<rect id="SVGID_29_" x="-3990.076" width="220" height="220"/>
		</defs>
		<clipPath id="SVGID_2_">
			<use xlink:href="#SVGID_29_"  overflow="visible"/>
		</clipPath>
	</g>
	<g>
		<defs>
			<rect id="SVGID_31_" x="-2790.076" width="220" height="220"/>
		</defs>
		<clipPath id="SVGID_4_">
			<use xlink:href="#SVGID_31_"  overflow="visible"/>
		</clipPath>
	</g>
	<g>
		<defs>
			<rect id="SVGID_33_" x="-2190.076" width="220" height="220"/>
		</defs>
		<clipPath id="SVGID_6_">
			<use xlink:href="#SVGID_33_"  overflow="visible"/>
		</clipPath>
	</g>
	<g>
		<defs>
			<rect id="SVGID_35_" x="-2490.076" width="220" height="220"/>
		</defs>
		<clipPath id="SVGID_8_">
			<use xlink:href="#SVGID_35_"  overflow="visible"/>
		</clipPath>
	</g>
	<g>
		<defs>
			<rect id="SVGID_37_" x="-3690.076" width="220" height="220"/>
		</defs>
		<clipPath id="SVGID_10_">
			<use xlink:href="#SVGID_37_"  overflow="visible"/>
		</clipPath>
	</g>
	<g>
		<defs>
			<rect id="SVGID_39_" x="-3090.076" width="220" height="220"/>
		</defs>
		<clipPath id="SVGID_12_">
			<use xlink:href="#SVGID_39_"  overflow="visible"/>
		</clipPath>
	</g>
	<g>
		<defs>
			<rect id="SVGID_409_" x="0" width="220" height="220"/>
		</defs>
		<clipPath id="SVGID_14_">
			<use xlink:href="#SVGID_409_"  overflow="visible"/>
		</clipPath>
		<g clip-path="url(#SVGID_14_)">
			<g>
				<rect x="0" fill="#C8C8C8" width="220" height="220"/>
			</g>
		</g>
		<g clip-path="url(#SVGID_14_)">
			
				<rect x="106.645" y="31.175" stroke="#000000" stroke-width="2.4" stroke-linecap="round" stroke-linejoin="round" stroke-miterlimit="10" width="11.694" height="13.68"/>
			
				<rect x="77.866" y="44.447" fill="#C7C7C7" stroke="#000000" stroke-width="2.4" stroke-linecap="round" stroke-linejoin="round" stroke-miterlimit="10" width="48.13" height="32.636"/>
			<g>
				
					<polyline fill="#2E2E2E" stroke="#000000" stroke-width="2.4" stroke-linecap="round" stroke-linejoin="round" stroke-miterlimit="10" points="
					46.173,71.521 37.32,66.474 141.564,72.138 130.152,87.103 				"/>
			</g>
			
				<circle fill="#FFFFFF" stroke="#000000" stroke-width="2.4" stroke-linecap="round" stroke-linejoin="round" stroke-miterlimit="10" cx="115.317" cy="56.331" r="4.797"/>
			
				<circle fill="#FFFFFF" stroke="#000000" stroke-width="2.4" stroke-linecap="round" stroke-linejoin="round" stroke-miterlimit="10" cx="101.546" cy="56.331" r="4.798"/>
			
				<circle fill="#FFFFFF" stroke="#000000" stroke-width="2.4" stroke-linecap="round" stroke-linejoin="round" stroke-miterlimit="10" cx="87.776" cy="56.331" r="4.798"/>
			
				<path fill="#4A4A4A" stroke="#000000" stroke-width="2.4" stroke-linecap="round" stroke-linejoin="round" stroke-miterlimit="10" d="
				M134.709,80.852L124.01,94.94H58.206c0,0-14.917-24.976-20.886-28.466L134.709,80.852z"/>
		</g>
		<g clip-path="url(#SVGID_14_)">
			
				<rect x="203.161" y="8.138" stroke="#000000" stroke-width="2.4" stroke-linecap="round" stroke-linejoin="round" stroke-miterlimit="10" width="1.606" height="70.636"/>
			
				<path fill="#8A8A8A" stroke="#000000" stroke-width="2.4" stroke-linecap="round" stroke-linejoin="round" stroke-miterlimit="10" d="
				M205.021,24.914v38.144h29.781C234.802,63.058,208.016,41.849,205.021,24.914z"/>
			
				<path fill="#D6D6D6" stroke="#000000" stroke-width="2.4" stroke-linecap="round" stroke-linejoin="round" stroke-miterlimit="10" d="
				M161.476,63.058c0,0,38.235-37.768,43.292-54.92v54.92H161.476z"/>
			
				<path fill="#D6D6D6" stroke="#000000" stroke-width="2.4" stroke-linecap="round" stroke-linejoin="round" stroke-miterlimit="10" d="
				M178.134,95.573c15.476,0,37.779,0,48.396,0c10.617,0,16.659-21.279,16.659-21.279h-81.713
				C161.476,74.294,162.659,95.573,178.134,95.573z"/>
		</g>
		<g clip-path="url(#SVGID_14_)">
			
				<rect x="148.913" y="139.037" stroke="#000000" stroke-width="2.4" stroke-linecap="round" stroke-linejoin="round" stroke-miterlimit="10" width="11.694" height="13.679"/>
			
				<rect x="120.134" y="152.309" fill="#C7C7C7" stroke="#000000" stroke-width="2.4" stroke-linecap="round" stroke-linejoin="round" stroke-miterlimit="10" width="48.13" height="32.637"/>
			<g>
				
					<polyline fill="#2E2E2E" stroke="#000000" stroke-width="2.4" stroke-linecap="round" stroke-linejoin="round" stroke-miterlimit="10" points="
					88.441,179.383 79.587,174.336 183.832,180 172.419,194.965 				"/>
			</g>
			
				<circle fill="#FFFFFF" stroke="#000000" stroke-width="2.4" stroke-linecap="round" stroke-linejoin="round" stroke-miterlimit="10" cx="157.584" cy="164.193" r="4.798"/>
			
				<circle fill="#FFFFFF" stroke="#000000" stroke-width="2.4" stroke-linecap="round" stroke-linejoin="round" stroke-miterlimit="10" cx="143.814" cy="164.193" r="4.798"/>
			
				<circle fill="#FFFFFF" stroke="#000000" stroke-width="2.4" stroke-linecap="round" stroke-linejoin="round" stroke-miterlimit="10" cx="130.044" cy="164.193" r="4.798"/>
			
				<path fill="#4A4A4A" stroke="#000000" stroke-width="2.4" stroke-linecap="round" stroke-linejoin="round" stroke-miterlimit="10" d="
				M176.978,188.713l-10.7,14.09h-65.805c0,0-14.917-24.977-20.886-28.467L176.978,188.713z"/>
		</g>
		<g clip-path="url(#SVGID_14_)">
			
				<path fill="#D6D6D6" stroke="#000000" stroke-width="2.4" stroke-linecap="round" stroke-linejoin="round" stroke-miterlimit="10" d="
				M203.743,170.92c0,0,38.235-37.768,43.292-54.92v54.92H203.743z"/>
			
				<path fill="#D6D6D6" stroke="#000000" stroke-width="2.4" stroke-linecap="round" stroke-linejoin="round" stroke-miterlimit="10" d="
				M220.402,203.436c15.475,0,37.779,0,48.395,0c10.617,0,16.659-21.28,16.659-21.28h-81.713
				C203.743,182.155,204.926,203.436,220.402,203.436z"/>
		</g>
		<g clip-path="url(#SVGID_14_)">
			
				<path fill="#8A8A8A" stroke="#000000" stroke-width="2.4" stroke-linecap="round" stroke-linejoin="round" stroke-miterlimit="10" d="
				M-14.979,24.914v38.144h29.781C14.802,63.058-11.984,41.849-14.979,24.914z"/>
			
				<path fill="#D6D6D6" stroke="#000000" stroke-width="2.4" stroke-linecap="round" stroke-linejoin="round" stroke-miterlimit="10" d="
				M-41.866,95.573c15.476,0,37.779,0,48.396,0c10.617,0,16.659-21.279,16.659-21.279h-81.713
				C-58.524,74.294-57.341,95.573-41.866,95.573z"/>
		</g>
		<g clip-path="url(#SVGID_14_)">
			
				<rect x="25.428" y="116" stroke="#000000" stroke-width="2.4" stroke-linecap="round" stroke-linejoin="round" stroke-miterlimit="10" width="1.607" height="70.637"/>
			
				<path fill="#8A8A8A" stroke="#000000" stroke-width="2.4" stroke-linecap="round" stroke-linejoin="round" stroke-miterlimit="10" d="
				M27.289,132.775v38.145H57.07C57.07,170.92,30.283,149.711,27.289,132.775z"/>
			
				<path fill="#D6D6D6" stroke="#000000" stroke-width="2.4" stroke-linecap="round" stroke-linejoin="round" stroke-miterlimit="10" d="
				M-16.257,170.92c0,0,38.235-37.768,43.292-54.92v54.92H-16.257z"/>
			
				<path fill="#D6D6D6" stroke="#000000" stroke-width="2.4" stroke-linecap="round" stroke-linejoin="round" stroke-miterlimit="10" d="
				M0.402,203.436c15.475,0,37.779,0,48.395,0c10.617,0,16.659-21.28,16.659-21.28h-81.713
				C-16.257,182.155-15.074,203.436,0.402,203.436z"/>
		</g>
		
			<line clip-path="url(#SVGID_14_)" fill="none" stroke="#000000" stroke-width="2.4" stroke-linecap="round" stroke-linejoin="round" stroke-miterlimit="10" x1="212.184" y1="118" x2="53.817" y2="118"/>
		
			<line clip-path="url(#SVGID_14_)" fill="none" stroke="#000000" stroke-width="2.4" stroke-linecap="round" stroke-linejoin="round" stroke-miterlimit="10" x1="62.914" y1="17.316" x2="9.753" y2="17.316"/>
	</g>
	<g>
		<defs>
			<rect id="SVGID_411_" x="-600" width="220" height="220"/>
		</defs>
		<clipPath id="SVGID_16_">
			<use xlink:href="#SVGID_411_"  overflow="visible"/>
		</clipPath>
	</g>
	<g>
		<defs>
			<rect id="SVGID_419_" x="-300" width="220" height="220"/>
		</defs>
		<clipPath id="SVGID_18_">
			<use xlink:href="#SVGID_419_"  overflow="visible"/>
		</clipPath>
	</g>
</g>
</svg>
