<?xml version="1.0" encoding="utf-8"?>
<!-- Generator: Adobe Illustrator 16.0.0, SVG Export Plug-In . SVG Version: 6.00 Build 0)  -->
<!DOCTYPE svg PUBLIC "-//W3C//DTD SVG 1.1//EN" "http://www.w3.org/Graphics/SVG/1.1/DTD/svg11.dtd">
<svg version="1.1" xmlns="http://www.w3.org/2000/svg" xmlns:xlink="http://www.w3.org/1999/xlink" x="0px" y="0px" width="220px"
	 height="220px" viewBox="0 0 220 220" enable-background="new 0 0 220 220" xml:space="preserve">
<g id="bg">
</g>
<g id="Layer_1">
	<rect x="-2527.196" y="-105.918" fill="#57B3E6" width="3865.441" height="710.867"/>
	<g>
		<defs>
			<rect id="SVGID_449_" width="220" height="220"/>
		</defs>
		<clipPath id="SVGID_2_">
			<use xlink:href="#SVGID_449_"  overflow="visible"/>
		</clipPath>
		
			<circle clip-path="url(#SVGID_2_)" fill="none" stroke="#FFFFFF" stroke-width="10" stroke-linejoin="round" stroke-miterlimit="10" cx="220" cy="0" r="40"/>
		
			<circle clip-path="url(#SVGID_2_)" fill="none" stroke="#FFFFFF" stroke-width="10" stroke-linejoin="round" stroke-miterlimit="10" cx="0" cy="0" r="40"/>
		
			<circle clip-path="url(#SVGID_2_)" fill="none" stroke="#FFFFFF" stroke-width="10" stroke-linejoin="round" stroke-miterlimit="10" cx="220" cy="220" r="40"/>
		
			<circle clip-path="url(#SVGID_2_)" fill="none" stroke="#FFFFFF" stroke-width="10" stroke-linejoin="round" stroke-miterlimit="10" cx="0" cy="220" r="40"/>
		<g clip-path="url(#SVGID_2_)">
			<path fill="#FFFFFF" d="M110-30c16.542,0,30,13.458,30,30s-13.458,30-30,30S80,16.542,80,0S93.458-30,110-30 M110-40
				C87.908-40,70-22.092,70,0c0,22.09,17.908,40,40,40c22.091,0,40-17.91,40-40C150-22.092,132.091-40,110-40L110-40z"/>
		</g>
		<g clip-path="url(#SVGID_2_)">
			<path fill="#FFFFFF" d="M110,190c16.542,0,30,13.458,30,30s-13.458,30-30,30s-30-13.458-30-30S93.458,190,110,190 M110,180
				c-22.092,0-40,17.908-40,40c0,22.09,17.908,40,40,40c22.091,0,40-17.91,40-40C150,197.908,132.091,180,110,180L110,180z"/>
		</g>
		<g clip-path="url(#SVGID_2_)">
			<path fill="#FFFFFF" d="M110,80c16.542,0,30,13.458,30,30s-13.458,30-30,30s-30-13.458-30-30S93.458,80,110,80 M110,70
				c-22.092,0-40,17.908-40,40c0,22.09,17.908,40,40,40c22.091,0,40-17.91,40-40C150,87.908,132.091,70,110,70L110,70z"/>
		</g>
		
			<circle clip-path="url(#SVGID_2_)" fill="none" stroke="#FFFFFF" stroke-width="10" stroke-linejoin="round" stroke-miterlimit="10" cx="219.999" cy="110" r="40"/>
		
			<circle clip-path="url(#SVGID_2_)" fill="none" stroke="#FFFFFF" stroke-width="10" stroke-linejoin="round" stroke-miterlimit="10" cx="0" cy="110" r="40"/>
	</g>
</g>
</svg>
