<?xml version="1.0" encoding="utf-8"?>
<!-- Generator: Adobe Illustrator 16.0.0, SVG Export Plug-In . SVG Version: 6.00 Build 0)  -->
<!DOCTYPE svg PUBLIC "-//W3C//DTD SVG 1.1//EN" "http://www.w3.org/Graphics/SVG/1.1/DTD/svg11.dtd">
<svg version="1.1" xmlns="http://www.w3.org/2000/svg" xmlns:xlink="http://www.w3.org/1999/xlink" x="0px" y="0px" width="220px"
	 height="220px" viewBox="0 0 220 220" enable-background="new 0 0 220 220" xml:space="preserve">
<g id="bg">
</g>
<g id="Layer_1">
	<rect x="-1454.261" y="-105.918" fill="#57B3E6" width="3865.441" height="710.867"/>
	<g>
		<defs>
			<rect id="SVGID_441_" width="220" height="220"/>
		</defs>
		<clipPath id="SVGID_2_">
			<use xlink:href="#SVGID_441_"  overflow="visible"/>
		</clipPath>
		<g clip-path="url(#SVGID_2_)">
			<circle fill="#FFFFFF" cx="220" cy="0" r="55"/>
		</g>
		<g clip-path="url(#SVGID_2_)">
			<circle fill="#FFFFFF" cx="0" cy="0" r="55"/>
		</g>
		<g clip-path="url(#SVGID_2_)">
			<circle fill="#FFFFFF" cx="220" cy="220" r="55"/>
		</g>
		<g clip-path="url(#SVGID_2_)">
			<circle fill="#FFFFFF" cx="0" cy="220" r="55"/>
		</g>
		<g clip-path="url(#SVGID_2_)">
			<path fill="#FFFFFF" d="M110,65c24.813,0,45,20.187,45,45s-20.187,45-45,45c-24.813,0-45-20.187-45-45S85.187,65,110,65 M110,55
				c-30.376,0-55,24.623-55,55c0,30.375,24.625,55,55,55c30.375,0,55-24.625,55-55C165,79.623,140.375,55,110,55L110,55z"/>
		</g>
	</g>
</g>
</svg>
