<?xml version="1.0" encoding="utf-8"?>
<!-- Generator: Adobe Illustrator 16.0.0, SVG Export Plug-In . SVG Version: 6.00 Build 0)  -->
<!DOCTYPE svg PUBLIC "-//W3C//DTD SVG 1.1//EN" "http://www.w3.org/Graphics/SVG/1.1/DTD/svg11.dtd">
<svg version="1.1" xmlns="http://www.w3.org/2000/svg" xmlns:xlink="http://www.w3.org/1999/xlink" x="0px" y="0px" width="122px"
	 height="122px" viewBox="0 0 122 122" enable-background="new 0 0 122 122" xml:space="preserve">
<g id="gb">
</g>
<g id="mreza">
	<rect fill="none" width="122" height="122"/>
</g>
<g id="Layer_1">
</g>
<g id="CRKA">
</g>
<g id="txt">
</g>
<g id="glava">
	<g>
		<polygon fill="#FFFFFF" points="59.114,46.575 55.909,46.575 55.909,46.681 47.044,54.953 37.321,54.953 37.321,68.288 
			47.044,68.288 55.909,76.562 55.909,76.665 56.019,76.665 56.019,76.665 56.019,76.665 59.114,76.665 		"/>
		<g>
			<path fill="#FFFFFF" d="M76.84,79.678l-1.541-1.536c4.385-4.397,6.8-10.241,6.8-16.454c0-6.269-2.455-12.152-6.912-16.566
				l1.531-1.546c4.873,4.825,7.557,11.257,7.557,18.112C84.274,68.481,81.634,74.87,76.84,79.678z"/>
			<path fill="#FFFFFF" d="M71.624,74.463l-1.542-1.536c2.992-3.005,4.64-6.997,4.64-11.239c0-4.295-1.687-8.324-4.75-11.344
				l1.528-1.55c3.481,3.433,5.398,8.012,5.398,12.894C76.897,66.51,75.025,71.047,71.624,74.463z"/>
			<path fill="#FFFFFF" d="M65.605,68.444l-1.545-1.533c1.387-1.398,2.151-3.253,2.151-5.222c0-2.019-0.8-3.908-2.253-5.321
				l1.518-1.56c1.877,1.825,2.911,4.269,2.911,6.88C68.388,64.236,67.4,66.635,65.605,68.444z"/>
		</g>
	</g>
</g>
</svg>
