<?xml version="1.0" encoding="utf-8"?>
<!-- Generator: Adobe Illustrator 16.0.0, SVG Export Plug-In . SVG Version: 6.00 Build 0)  -->
<!DOCTYPE svg PUBLIC "-//W3C//DTD SVG 1.1//EN" "http://www.w3.org/Graphics/SVG/1.1/DTD/svg11.dtd">
<svg version="1.1" xmlns="http://www.w3.org/2000/svg" xmlns:xlink="http://www.w3.org/1999/xlink" x="0px" y="0px" width="220px"
	 height="220px" viewBox="0 0 220 220" enable-background="new 0 0 220 220" xml:space="preserve">
<g id="bg" display="none">
	<rect x="-1945.836" y="-4281.787" display="inline" fill="#FFFFFF" width="3240.076" height="8444.104"/>
</g>
<g id="Layer_3" display="none">
</g>
<g id="Layer_1">
	<g>
		<defs>
			<rect id="SVGID_261_" x="-1500" y="-3300" width="220" height="220"/>
		</defs>
		<clipPath id="SVGID_2_">
			<use xlink:href="#SVGID_261_"  overflow="visible"/>
		</clipPath>
	</g>
	<g>
		<defs>
			<rect id="SVGID_263_" x="-300" y="-3300" width="220" height="220"/>
		</defs>
		<clipPath id="SVGID_4_">
			<use xlink:href="#SVGID_263_"  overflow="visible"/>
		</clipPath>
	</g>
	<g>
		<defs>
			<rect id="SVGID_267_" x="0" y="-3300" width="220" height="220"/>
		</defs>
		<clipPath id="SVGID_6_">
			<use xlink:href="#SVGID_267_"  overflow="visible"/>
		</clipPath>
	</g>
	<g>
		<defs>
			<rect id="SVGID_269_" x="-1200" y="-3300" width="220" height="220"/>
		</defs>
		<clipPath id="SVGID_8_">
			<use xlink:href="#SVGID_269_"  overflow="visible"/>
		</clipPath>
	</g>
	<g>
		<defs>
			<rect id="SVGID_271_" x="-600" y="-3300" width="220" height="220"/>
		</defs>
		<clipPath id="SVGID_10_">
			<use xlink:href="#SVGID_271_"  overflow="visible"/>
		</clipPath>
	</g>
	<g>
		<defs>
			<rect id="SVGID_425_" x="0" width="220" height="220"/>
		</defs>
		<clipPath id="SVGID_12_">
			<use xlink:href="#SVGID_425_"  overflow="visible"/>
		</clipPath>
		<rect x="0" clip-path="url(#SVGID_12_)" fill="#29235C" width="220" height="220"/>
		<rect x="0.001" y="151.579" clip-path="url(#SVGID_12_)" fill="#0073B3" width="220.001" height="27.78"/>
		<rect x="0.001" y="41.256" clip-path="url(#SVGID_12_)" fill="#0073B3" width="220.001" height="27.78"/>
		<rect x="86.852" y="196.851" clip-path="url(#SVGID_12_)" fill="#0073B3" width="46.299" height="46.299"/>
		<rect x="196.851" y="196.851" clip-path="url(#SVGID_12_)" fill="#0073B3" width="46.299" height="46.299"/>
		<rect x="-23.149" y="196.851" clip-path="url(#SVGID_12_)" fill="#0073B3" width="46.299" height="46.299"/>
		<rect x="86.852" y="-23.149" clip-path="url(#SVGID_12_)" fill="#0073B3" width="46.299" height="46.299"/>
		<rect x="196.851" y="-23.149" clip-path="url(#SVGID_12_)" fill="#0073B3" width="46.299" height="46.299"/>
		<rect x="-23.149" y="-23.149" clip-path="url(#SVGID_12_)" fill="#0073B3" width="46.299" height="46.299"/>
		<rect x="86.852" y="86.851" clip-path="url(#SVGID_12_)" fill="#0073B3" width="46.299" height="46.299"/>
		<rect x="196.851" y="86.851" clip-path="url(#SVGID_12_)" fill="#0073B3" width="46.299" height="46.299"/>
		<rect x="-23.149" y="86.851" clip-path="url(#SVGID_12_)" fill="#0073B3" width="46.299" height="46.299"/>
	</g>
</g>
</svg>
