<?xml version="1.0" encoding="utf-8"?>
<!-- Generator: Adobe Illustrator 16.0.0, SVG Export Plug-In . SVG Version: 6.00 Build 0)  -->
<!DOCTYPE svg PUBLIC "-//W3C//DTD SVG 1.1//EN" "http://www.w3.org/Graphics/SVG/1.1/DTD/svg11.dtd">
<svg version="1.1" xmlns="http://www.w3.org/2000/svg" xmlns:xlink="http://www.w3.org/1999/xlink" x="0px" y="0px" width="220px"
	 height="220px" viewBox="0 0 220 220" enable-background="new 0 0 220 220" xml:space="preserve">
<g id="bg">
</g>
<g id="Layer_1">
	<g>
		
			<path fill="#F0E443" stroke="#010202" stroke-width="2.4283" stroke-linecap="round" stroke-linejoin="round" stroke-miterlimit="10" d="
			M157.239-2.625c0-6.359,4.165-10.002,11.433-10.002c0.791,0,1.429,0.639,1.429,1.428c0,0.787-5.714,20.645-5.714,21.436
			c0,0.787-0.642,1.428-1.432,1.428C157.239,11.664,157.239,4.723,157.239-2.625z"/>
		
			<path fill="#F0E443" stroke="#010202" stroke-width="2.4283" stroke-linecap="round" stroke-linejoin="round" stroke-miterlimit="10" d="
			M206.089,17.17c3.415-2.221,3.416-9.889,3.416-17.938c0-7.611-6.01-14.287-12.86-14.289c0,0,0,0-0.002,0c-0.789,0,0,2.857,0,2.857
			h0.002V18.08C196.645,18.08,205.449,17.584,206.089,17.17z"/>
		
			<path fill="#39A8E0" stroke="#010202" stroke-width="2.4283" stroke-linecap="round" stroke-linejoin="round" stroke-miterlimit="10" d="
			M181.842,44.498c13.673-3.039,23.983-15.311,23.983-28.547c0-18.461-12.807-36.57-17.626-43.385
			c-0.197-0.279-0.383-0.533-0.545-0.77c1.592-1.73,4.275-4.891,5.158-6.648c0.493-0.986,0.742-1.924,0.742-2.783
			c0-2.32-1.777-3.572-3.449-3.572h-17.15c-1.673,0-3.449,1.252-3.449,3.572c0,0.859,0.249,1.797,0.744,2.783
			c0.885,1.768,3.603,4.959,5.191,6.682c-2.765,4.488-13.916,23.846-13.916,44.121c0,15.133,7.363,25.805,19.696,28.547
			C181.426,44.543,181.637,44.543,181.842,44.498z"/>
		
			<path fill="none" stroke="#010202" stroke-width="2.4283" stroke-linecap="round" stroke-linejoin="round" stroke-miterlimit="10" d="
			M195.822,21.482c0,0-13.437-11.447-25.722,0"/>
		<circle fill="#010202" cx="185.801" cy="30.241" r="2.839"/>
	</g>
	<g>
		
			<path fill="#F0E443" stroke="#010202" stroke-width="2.4283" stroke-linecap="round" stroke-linejoin="round" stroke-miterlimit="10" d="
			M12.98-2.625c0-6.359,4.165-10.002,11.433-10.002c0.791,0,1.429,0.639,1.429,1.428c0,0.787-5.714,20.645-5.714,21.436
			c0,0.787-0.642,1.428-1.432,1.428C12.98,11.664,12.98,4.723,12.98-2.625z"/>
		
			<path fill="#F0E443" stroke="#010202" stroke-width="2.4283" stroke-linecap="round" stroke-linejoin="round" stroke-miterlimit="10" d="
			M61.83,17.17c3.415-2.221,3.416-9.889,3.416-17.938c0-7.611-6.01-14.287-12.86-14.289c0,0,0,0-0.002,0c-0.789,0,0,2.857,0,2.857
			h0.002V18.08C52.386,18.08,61.19,17.584,61.83,17.17z"/>
		
			<path fill="#39A8E0" stroke="#010202" stroke-width="2.4283" stroke-linecap="round" stroke-linejoin="round" stroke-miterlimit="10" d="
			M37.583,44.498c13.673-3.039,23.983-15.311,23.983-28.547c0-18.461-12.806-36.57-17.625-43.385
			c-0.197-0.279-0.383-0.533-0.545-0.77c1.592-1.73,4.275-4.891,5.158-6.648c0.493-0.986,0.742-1.924,0.742-2.783
			c0-2.32-1.777-3.572-3.449-3.572h-17.15c-1.673,0-3.449,1.252-3.449,3.572c0,0.859,0.249,1.797,0.744,2.783
			c0.885,1.768,3.603,4.959,5.191,6.682c-2.765,4.488-13.916,23.846-13.916,44.121c0,15.133,7.363,25.805,19.696,28.547
			C37.167,44.543,37.378,44.543,37.583,44.498z"/>
		
			<path fill="none" stroke="#010202" stroke-width="2.4283" stroke-linecap="round" stroke-linejoin="round" stroke-miterlimit="10" d="
			M51.563,21.482c0,0-13.437-11.447-25.722,0"/>
		<circle fill="#010202" cx="41.542" cy="30.241" r="2.839"/>
	</g>
	<g>
		
			<path fill="#F0E443" stroke="#010202" stroke-width="2.4283" stroke-linecap="round" stroke-linejoin="round" stroke-miterlimit="10" d="
			M157.239,217.432c0-6.357,4.165-10,11.433-10c0.791,0,1.429,0.639,1.429,1.428c0,0.787-5.714,20.645-5.714,21.436
			c0,0.787-0.642,1.428-1.432,1.428C157.239,231.723,157.239,224.781,157.239,217.432z"/>
		
			<path fill="#F0E443" stroke="#010202" stroke-width="2.4283" stroke-linecap="round" stroke-linejoin="round" stroke-miterlimit="10" d="
			M206.089,237.227c3.415-2.219,3.416-9.887,3.416-17.936c0-7.611-6.01-14.287-12.86-14.289c0,0,0,0-0.002,0
			c-0.789,0,0,2.857,0,2.857h0.002v30.279C196.645,238.139,205.449,237.643,206.089,237.227z"/>
		
			<path fill="#39A8E0" stroke="#010202" stroke-width="2.4283" stroke-linecap="round" stroke-linejoin="round" stroke-miterlimit="10" d="
			M181.842,264.557c13.673-3.041,23.983-15.311,23.983-28.547c0-18.461-12.807-36.57-17.626-43.385
			c-0.197-0.279-0.383-0.533-0.545-0.77c1.592-1.73,4.275-4.893,5.158-6.648c0.493-0.986,0.742-1.924,0.742-2.783
			c0-2.322-1.777-3.572-3.449-3.572h-17.15c-1.673,0-3.449,1.25-3.449,3.572c0,0.859,0.249,1.797,0.744,2.783
			c0.885,1.768,3.603,4.959,5.191,6.682c-2.765,4.488-13.916,23.844-13.916,44.121c0,15.133,7.363,25.805,19.696,28.547
			C181.426,264.602,181.637,264.602,181.842,264.557z"/>
	</g>
	<g>
		
			<path fill="#F0E443" stroke="#010202" stroke-width="2.4283" stroke-linecap="round" stroke-linejoin="round" stroke-miterlimit="10" d="
			M12.98,217.432c0-6.357,4.165-10,11.433-10c0.791,0,1.429,0.639,1.429,1.428c0,0.787-5.714,20.645-5.714,21.436
			c0,0.787-0.642,1.428-1.432,1.428C12.98,231.723,12.98,224.781,12.98,217.432z"/>
		
			<path fill="#F0E443" stroke="#010202" stroke-width="2.4283" stroke-linecap="round" stroke-linejoin="round" stroke-miterlimit="10" d="
			M61.83,237.227c3.415-2.219,3.416-9.887,3.416-17.936c0-7.611-6.01-14.287-12.86-14.289c0,0,0,0-0.002,0c-0.789,0,0,2.857,0,2.857
			h0.002v30.279C52.386,238.139,61.19,237.643,61.83,237.227z"/>
		
			<path fill="#39A8E0" stroke="#010202" stroke-width="2.4283" stroke-linecap="round" stroke-linejoin="round" stroke-miterlimit="10" d="
			M37.583,264.557c13.673-3.041,23.983-15.311,23.983-28.547c0-18.461-12.806-36.57-17.625-43.385
			c-0.197-0.279-0.383-0.533-0.545-0.77c1.592-1.73,4.275-4.893,5.158-6.648c0.493-0.986,0.742-1.924,0.742-2.783
			c0-2.322-1.777-3.572-3.449-3.572h-17.15c-1.673,0-3.449,1.25-3.449,3.572c0,0.859,0.249,1.797,0.744,2.783
			c0.885,1.768,3.603,4.959,5.191,6.682c-2.765,4.488-13.916,23.844-13.916,44.121c0,15.133,7.363,25.805,19.696,28.547
			C37.167,264.602,37.378,264.602,37.583,264.557z"/>
	</g>
	<g>
		
			<path fill="#F0E443" stroke="#010202" stroke-width="2.4283" stroke-linecap="round" stroke-linejoin="round" stroke-miterlimit="10" d="
			M85.109,50.244c0-6.357,4.166-10.002,11.434-10.002c0.791,0,1.428,0.639,1.428,1.428s-5.713,20.645-5.713,21.436
			c0,0.789-0.643,1.428-1.432,1.428C85.109,64.533,85.109,57.594,85.109,50.244z"/>
		
			<path fill="#F0E443" stroke="#010202" stroke-width="2.4283" stroke-linecap="round" stroke-linejoin="round" stroke-miterlimit="10" d="
			M133.959,70.039c3.416-2.219,3.416-9.889,3.416-17.938c0-7.609-6.01-14.287-12.859-14.287c0,0,0,0-0.002,0
			c-0.789,0,0,2.855,0,2.855h0.002v30.279C124.516,70.949,133.32,70.455,133.959,70.039z"/>
		
			<path fill="#39A8E0" stroke="#010202" stroke-width="2.4283" stroke-linecap="round" stroke-linejoin="round" stroke-miterlimit="10" d="
			M109.713,97.367c13.672-3.039,23.982-15.311,23.982-28.545c0-18.463-12.807-36.57-17.625-43.385
			c-0.197-0.279-0.383-0.533-0.545-0.771c1.592-1.729,4.275-4.891,5.158-6.648c0.492-0.984,0.742-1.924,0.742-2.781
			c0-2.322-1.777-3.572-3.449-3.572h-17.15c-1.674,0-3.449,1.25-3.449,3.572c0,0.857,0.248,1.797,0.744,2.781
			c0.885,1.77,3.602,4.961,5.191,6.684c-2.766,4.486-13.916,23.844-13.916,44.121c0,15.131,7.363,25.805,19.695,28.545
			C109.297,97.412,109.508,97.412,109.713,97.367z"/>
		
			<path fill="none" stroke="#010202" stroke-width="2.4283" stroke-linecap="round" stroke-linejoin="round" stroke-miterlimit="10" d="
			M123.693,74.354c0,0-13.438-11.447-25.723,0"/>
		<path fill="#010202" d="M113.672,85.951c-1.568,0-2.842-1.271-2.842-2.84s1.273-2.838,2.842-2.838c1.566,0,2.838,1.27,2.838,2.838
			S115.238,85.951,113.672,85.951z"/>
	</g>
	<g>
		
			<path fill="#F0E443" stroke="#010202" stroke-width="2.4283" stroke-linecap="round" stroke-linejoin="round" stroke-miterlimit="10" d="
			M157.239,105.762c0-6.357,4.165-10.002,11.433-10.002c0.791,0,1.429,0.639,1.429,1.428s-5.714,20.645-5.714,21.436
			c0,0.787-0.642,1.428-1.432,1.428C157.239,120.051,157.239,113.111,157.239,105.762z"/>
		
			<path fill="#F0E443" stroke="#010202" stroke-width="2.4283" stroke-linecap="round" stroke-linejoin="round" stroke-miterlimit="10" d="
			M206.089,125.557c3.415-2.219,3.416-9.889,3.416-17.938c0-7.611-6.01-14.287-12.86-14.287c0,0,0,0-0.002,0
			c-0.789,0,0,2.855,0,2.855h0.002v30.279C196.645,126.467,205.449,125.971,206.089,125.557z"/>
		
			<path fill="#39A8E0" stroke="#010202" stroke-width="2.4283" stroke-linecap="round" stroke-linejoin="round" stroke-miterlimit="10" d="
			M181.842,152.885c13.673-3.039,23.983-15.311,23.983-28.545c0-18.463-12.807-36.572-17.626-43.385
			c-0.197-0.279-0.383-0.535-0.545-0.771c1.592-1.729,4.275-4.891,5.158-6.648c0.493-0.986,0.742-1.924,0.742-2.783
			c0-2.32-1.777-3.57-3.449-3.57h-17.15c-1.673,0-3.449,1.25-3.449,3.57c0,0.859,0.249,1.797,0.744,2.783
			c0.885,1.77,3.603,4.961,5.191,6.682c-2.765,4.488-13.916,23.846-13.916,44.123c0,15.131,7.363,25.805,19.696,28.545
			C181.426,152.93,181.637,152.93,181.842,152.885z"/>
		
			<path fill="none" stroke="#010202" stroke-width="2.4283" stroke-linecap="round" stroke-linejoin="round" stroke-miterlimit="10" d="
			M195.822,129.869c0,0-13.437-11.445-25.722,0"/>
		<circle fill="#010202" cx="185.801" cy="138.629" r="2.84"/>
	</g>
	<g>
		
			<path fill="#F0E443" stroke="#010202" stroke-width="2.4283" stroke-linecap="round" stroke-linejoin="round" stroke-miterlimit="10" d="
			M12.98,105.762c0-6.357,4.165-10.002,11.433-10.002c0.791,0,1.429,0.639,1.429,1.428s-5.714,20.645-5.714,21.436
			c0,0.787-0.642,1.428-1.432,1.428C12.98,120.051,12.98,113.111,12.98,105.762z"/>
		
			<path fill="#F0E443" stroke="#010202" stroke-width="2.4283" stroke-linecap="round" stroke-linejoin="round" stroke-miterlimit="10" d="
			M61.83,125.557c3.415-2.219,3.416-9.889,3.416-17.938c0-7.611-6.01-14.287-12.86-14.287c0,0,0,0-0.002,0c-0.789,0,0,2.855,0,2.855
			h0.002v30.279C52.386,126.467,61.19,125.971,61.83,125.557z"/>
		
			<path fill="#39A8E0" stroke="#010202" stroke-width="2.4283" stroke-linecap="round" stroke-linejoin="round" stroke-miterlimit="10" d="
			M37.583,152.885c13.673-3.039,23.983-15.311,23.983-28.545c0-18.463-12.806-36.572-17.625-43.385
			c-0.197-0.279-0.383-0.535-0.545-0.771c1.592-1.729,4.275-4.891,5.158-6.648c0.493-0.986,0.742-1.924,0.742-2.783
			c0-2.32-1.777-3.57-3.449-3.57h-17.15c-1.673,0-3.449,1.25-3.449,3.57c0,0.859,0.249,1.797,0.744,2.783
			c0.885,1.77,3.603,4.961,5.191,6.682c-2.765,4.488-13.916,23.846-13.916,44.123c0,15.131,7.363,25.805,19.696,28.545
			C37.167,152.93,37.378,152.93,37.583,152.885z"/>
		
			<path fill="none" stroke="#010202" stroke-width="2.4283" stroke-linecap="round" stroke-linejoin="round" stroke-miterlimit="10" d="
			M51.563,129.869c0,0-13.437-11.445-25.722,0"/>
		<circle fill="#010202" cx="41.542" cy="138.629" r="2.84"/>
	</g>
	<g>
		
			<path fill="#F0E443" stroke="#010202" stroke-width="2.4283" stroke-linecap="round" stroke-linejoin="round" stroke-miterlimit="10" d="
			M85.109,158.631c0-6.357,4.166-10,11.434-10c0.791,0,1.428,0.639,1.428,1.428c0,0.787-5.713,20.645-5.713,21.436
			c0,0.787-0.643,1.428-1.432,1.428C85.109,172.922,85.109,165.98,85.109,158.631z"/>
		
			<path fill="#F0E443" stroke="#010202" stroke-width="2.4283" stroke-linecap="round" stroke-linejoin="round" stroke-miterlimit="10" d="
			M133.959,178.426c3.416-2.219,3.416-9.887,3.416-17.936c0-7.611-6.01-14.287-12.859-14.289c0,0,0,0-0.002,0
			c-0.789,0,0,2.857,0,2.857h0.002v30.279C124.516,179.338,133.32,178.842,133.959,178.426z"/>
		
			<path fill="#39A8E0" stroke="#010202" stroke-width="2.4283" stroke-linecap="round" stroke-linejoin="round" stroke-miterlimit="10" d="
			M109.713,205.756c13.672-3.041,23.982-15.311,23.982-28.547c0-18.461-12.807-36.57-17.625-43.385
			c-0.197-0.279-0.383-0.533-0.545-0.77c1.592-1.73,4.275-4.893,5.158-6.648c0.492-0.986,0.742-1.924,0.742-2.783
			c0-2.322-1.777-3.572-3.449-3.572h-17.15c-1.674,0-3.449,1.25-3.449,3.572c0,0.859,0.248,1.797,0.744,2.783
			c0.885,1.768,3.602,4.959,5.191,6.682c-2.766,4.488-13.916,23.844-13.916,44.121c0,15.133,7.363,25.805,19.695,28.547
			C109.297,205.801,109.508,205.801,109.713,205.756z"/>
		
			<path fill="none" stroke="#010202" stroke-width="2.4283" stroke-linecap="round" stroke-linejoin="round" stroke-miterlimit="10" d="
			M123.693,182.74c0,0-13.438-11.447-25.723,0"/>
		<path fill="#010202" d="M113.672,194.338c-1.568,0-2.842-1.271-2.842-2.84s1.273-2.838,2.842-2.838
			c1.566,0,2.838,1.27,2.838,2.838S115.238,194.338,113.672,194.338z"/>
	</g>
</g>
</svg>
