<?xml version="1.0" encoding="utf-8"?>
<!-- Generator: Adobe Illustrator 16.0.0, SVG Export Plug-In . SVG Version: 6.00 Build 0)  -->
<!DOCTYPE svg PUBLIC "-//W3C//DTD SVG 1.1//EN" "http://www.w3.org/Graphics/SVG/1.1/DTD/svg11.dtd">
<svg version="1.1" xmlns="http://www.w3.org/2000/svg" xmlns:xlink="http://www.w3.org/1999/xlink" x="0px" y="0px" width="220px"
	 height="220px" viewBox="0 0 220 220" enable-background="new 0 0 220 220" xml:space="preserve">
<g id="bg">
</g>
<g id="Layer_1">
	<g>
		
			<path fill="#39A8E0" stroke="#010202" stroke-width="2.4283" stroke-linecap="round" stroke-linejoin="round" stroke-miterlimit="10" d="
			M-2.625,62.761c-6.358,0-10.001-4.165-10.001-11.433c0-0.791,0.639-1.429,1.428-1.429c0.788,0,20.645,5.714,21.436,5.714
			c0.788,0,1.428,0.642,1.428,1.432C11.664,62.761,4.724,62.761-2.625,62.761z"/>
		
			<path fill="#39A8E0" stroke="#010202" stroke-width="2.4283" stroke-linecap="round" stroke-linejoin="round" stroke-miterlimit="10" d="
			M17.169,13.911c-2.22-3.415-9.888-3.416-17.937-3.416c-7.611,0-14.287,6.01-14.288,12.86v0.002c0,0.789,2.856,0,2.856,0v-0.002
			H18.08C18.08,23.355,17.584,14.551,17.169,13.911z"/>
		
			<path fill="#39A8E0" stroke="#010202" stroke-width="2.4283" stroke-linecap="round" stroke-linejoin="round" stroke-miterlimit="10" d="
			M44.498,38.158c-3.04-13.673-15.311-23.983-28.546-23.983c-18.462,0-36.57,12.807-43.384,17.626
			c-0.279,0.197-0.534,0.383-0.771,0.545c-1.729-1.592-4.891-4.275-6.648-5.158c-0.986-0.493-1.924-0.742-2.783-0.742
			c-2.321,0-3.572,1.777-3.572,3.449v17.15c0,1.673,1.25,3.449,3.572,3.449c0.859,0,1.797-0.249,2.783-0.744
			c1.769-0.885,4.96-3.603,6.682-5.191c4.488,2.765,23.845,13.916,44.121,13.916c15.132,0,25.805-7.363,28.546-19.696
			C44.543,38.574,44.543,38.363,44.498,38.158z"/>
		
			<path fill="none" stroke="#010202" stroke-width="2.4283" stroke-linecap="round" stroke-linejoin="round" stroke-miterlimit="10" d="
			M21.483,24.178c0,0-11.447,13.437,0,25.722"/>
		<circle fill="#010202" cx="30.242" cy="34.199" r="2.839"/>
	</g>
	<g>
		
			<path fill="#39A8E0" stroke="#010202" stroke-width="2.4283" stroke-linecap="round" stroke-linejoin="round" stroke-miterlimit="10" d="
			M-2.625,207.02c-6.358,0-10.001-4.165-10.001-11.433c0-0.791,0.639-1.429,1.428-1.429c0.788,0,20.645,5.714,21.436,5.714
			c0.788,0,1.428,0.642,1.428,1.432C11.664,207.02,4.724,207.02-2.625,207.02z"/>
		
			<path fill="#39A8E0" stroke="#010202" stroke-width="2.4283" stroke-linecap="round" stroke-linejoin="round" stroke-miterlimit="10" d="
			M17.169,158.17c-2.22-3.415-9.888-3.416-17.937-3.416c-7.611,0-14.287,6.01-14.288,12.86v0.002c0,0.789,2.856,0,2.856,0v-0.002
			H18.08C18.08,167.614,17.584,158.81,17.169,158.17z"/>
		
			<path fill="#39A8E0" stroke="#010202" stroke-width="2.4283" stroke-linecap="round" stroke-linejoin="round" stroke-miterlimit="10" d="
			M44.498,182.417c-3.04-13.673-15.311-23.983-28.546-23.983c-18.462,0-36.57,12.807-43.384,17.626
			c-0.279,0.197-0.534,0.383-0.771,0.545c-1.729-1.592-4.891-4.275-6.648-5.158c-0.986-0.493-1.924-0.742-2.783-0.742
			c-2.321,0-3.572,1.777-3.572,3.449v17.15c0,1.673,1.25,3.449,3.572,3.449c0.859,0,1.797-0.249,2.783-0.744
			c1.769-0.885,4.96-3.603,6.682-5.191c4.488,2.765,23.845,13.916,44.121,13.916c15.132,0,25.805-7.363,28.546-19.696
			C44.543,182.833,44.543,182.622,44.498,182.417z"/>
		
			<path fill="none" stroke="#010202" stroke-width="2.4283" stroke-linecap="round" stroke-linejoin="round" stroke-miterlimit="10" d="
			M21.483,168.437c0,0-11.447,13.437,0,25.722"/>
		<circle fill="#010202" cx="30.242" cy="178.458" r="2.839"/>
	</g>
	<g>
		
			<path fill="#39A8E0" stroke="#010202" stroke-width="2.4283" stroke-linecap="round" stroke-linejoin="round" stroke-miterlimit="10" d="
			M217.433,62.761c-6.358,0-10.002-4.165-10.002-11.433c0-0.791,0.639-1.429,1.428-1.429c0.788,0,20.645,5.714,21.436,5.714
			c0.788,0,1.427,0.642,1.427,1.432C231.722,62.761,224.782,62.761,217.433,62.761z"/>
		
			<path fill="#39A8E0" stroke="#010202" stroke-width="2.4283" stroke-linecap="round" stroke-linejoin="round" stroke-miterlimit="10" d="
			M237.228,13.911c-2.219-3.415-9.888-3.416-17.937-3.416c-7.611,0-14.287,6.01-14.288,12.86v0.002c0,0.789,2.856,0,2.856,0v-0.002
			h30.279C238.138,23.355,237.643,14.551,237.228,13.911z"/>
		
			<path fill="#39A8E0" stroke="#010202" stroke-width="2.4283" stroke-linecap="round" stroke-linejoin="round" stroke-miterlimit="10" d="
			M264.556,38.158c-3.039-13.673-15.31-23.983-28.545-23.983c-18.462,0-36.571,12.807-43.385,17.626
			c-0.28,0.197-0.534,0.383-0.771,0.545c-1.729-1.592-4.891-4.275-6.648-5.158c-0.986-0.493-1.924-0.742-2.783-0.742
			c-2.321,0-3.572,1.777-3.572,3.449v17.15c0,1.673,1.25,3.449,3.572,3.449c0.859,0,1.797-0.249,2.783-0.744
			c1.769-0.885,4.96-3.603,6.682-5.191c4.488,2.765,23.845,13.916,44.122,13.916c15.132,0,25.805-7.363,28.545-19.696
			C264.601,38.574,264.601,38.363,264.556,38.158z"/>
	</g>
	<g>
		
			<path fill="#39A8E0" stroke="#010202" stroke-width="2.4283" stroke-linecap="round" stroke-linejoin="round" stroke-miterlimit="10" d="
			M217.433,207.02c-6.358,0-10.002-4.165-10.002-11.433c0-0.791,0.639-1.429,1.428-1.429c0.788,0,20.645,5.714,21.436,5.714
			c0.788,0,1.427,0.642,1.427,1.432C231.722,207.02,224.782,207.02,217.433,207.02z"/>
		
			<path fill="#39A8E0" stroke="#010202" stroke-width="2.4283" stroke-linecap="round" stroke-linejoin="round" stroke-miterlimit="10" d="
			M237.228,158.17c-2.219-3.415-9.888-3.416-17.937-3.416c-7.611,0-14.287,6.01-14.288,12.86v0.002c0,0.789,2.856,0,2.856,0v-0.002
			h30.279C238.138,167.614,237.643,158.81,237.228,158.17z"/>
		
			<path fill="#39A8E0" stroke="#010202" stroke-width="2.4283" stroke-linecap="round" stroke-linejoin="round" stroke-miterlimit="10" d="
			M264.556,182.417c-3.039-13.673-15.31-23.983-28.545-23.983c-18.462,0-36.571,12.807-43.385,17.626
			c-0.28,0.197-0.534,0.383-0.771,0.545c-1.729-1.592-4.891-4.275-6.648-5.158c-0.986-0.493-1.924-0.742-2.783-0.742
			c-2.321,0-3.572,1.777-3.572,3.449v17.15c0,1.673,1.25,3.449,3.572,3.449c0.859,0,1.797-0.249,2.783-0.744
			c1.769-0.885,4.96-3.603,6.682-5.191c4.488,2.765,23.845,13.916,44.122,13.916c15.132,0,25.805-7.363,28.545-19.696
			C264.601,182.833,264.601,182.622,264.556,182.417z"/>
	</g>
	<g>
		
			<path fill="#39A8E0" stroke="#010202" stroke-width="2.4283" stroke-linecap="round" stroke-linejoin="round" stroke-miterlimit="10" d="
			M59.821,134.891c6.357,0,10.001-4.166,10.001-11.434c0-0.791-0.639-1.428-1.428-1.428c-0.788,0-20.645,5.713-21.436,5.713
			c-0.788,0-1.428,0.643-1.428,1.432C45.532,134.891,52.472,134.891,59.821,134.891z"/>
		
			<path fill="#39A8E0" stroke="#010202" stroke-width="2.4283" stroke-linecap="round" stroke-linejoin="round" stroke-miterlimit="10" d="
			M40.026,86.041c2.219-3.416,9.888-3.416,17.937-3.416c7.61,0,14.287,6.01,14.288,12.859v0.002c0,0.789-2.856,0-2.856,0v-0.002
			H39.116C39.116,95.484,39.611,86.68,40.026,86.041z"/>
		
			<path fill="#39A8E0" stroke="#010202" stroke-width="2.4283" stroke-linecap="round" stroke-linejoin="round" stroke-miterlimit="10" d="
			M12.698,110.287c3.04-13.672,15.311-23.982,28.546-23.982c18.462,0,36.571,12.807,43.385,17.625
			c0.279,0.197,0.534,0.383,0.771,0.545c1.729-1.592,4.891-4.275,6.648-5.158c0.985-0.492,1.923-0.742,2.783-0.742
			c2.321,0,3.572,1.777,3.572,3.449v17.15c0,1.674-1.25,3.449-3.572,3.449c-0.859,0-1.797-0.248-2.783-0.744
			c-1.769-0.885-4.96-3.602-6.683-5.191c-4.487,2.766-23.844,13.916-44.121,13.916c-15.132,0-25.805-7.363-28.546-19.695
			C12.653,110.703,12.653,110.492,12.698,110.287z"/>
		
			<path fill="none" stroke="#010202" stroke-width="2.4283" stroke-linecap="round" stroke-linejoin="round" stroke-miterlimit="10" d="
			M35.713,96.307c0,0,11.447,13.438,0,25.723"/>
		<path fill="#010202" d="M24.115,106.328c0,1.568,1.271,2.842,2.839,2.842s2.839-1.273,2.839-2.842
			c0-1.566-1.271-2.838-2.839-2.838S24.115,104.762,24.115,106.328z"/>
	</g>
	<g>
		
			<path fill="#39A8E0" stroke="#010202" stroke-width="2.4283" stroke-linecap="round" stroke-linejoin="round" stroke-miterlimit="10" d="
			M105.762,62.761c-6.358,0-10.001-4.165-10.001-11.433c0-0.791,0.639-1.429,1.428-1.429c0.788,0,20.645,5.714,21.436,5.714
			c0.788,0,1.428,0.642,1.428,1.432C120.051,62.761,113.111,62.761,105.762,62.761z"/>
		
			<path fill="#39A8E0" stroke="#010202" stroke-width="2.4283" stroke-linecap="round" stroke-linejoin="round" stroke-miterlimit="10" d="
			M125.557,13.911c-2.219-3.415-9.888-3.416-17.937-3.416c-7.611,0-14.287,6.01-14.288,12.86v0.002c0,0.789,2.856,0,2.856,0v-0.002
			h30.279C126.467,23.355,125.972,14.551,125.557,13.911z"/>
		
			<path fill="#39A8E0" stroke="#010202" stroke-width="2.4283" stroke-linecap="round" stroke-linejoin="round" stroke-miterlimit="10" d="
			M152.885,38.158c-3.04-13.673-15.311-23.983-28.546-23.983c-18.462,0-36.571,12.807-43.385,17.626
			c-0.279,0.197-0.534,0.383-0.771,0.545c-1.729-1.592-4.891-4.275-6.648-5.158c-0.986-0.493-1.924-0.742-2.783-0.742
			c-2.321,0-3.572,1.777-3.572,3.449v17.15c0,1.673,1.251,3.449,3.572,3.449c0.859,0,1.797-0.249,2.783-0.744
			c1.768-0.885,4.96-3.603,6.682-5.191c4.488,2.765,23.845,13.916,44.122,13.916c15.131,0,25.805-7.363,28.546-19.696
			C152.93,38.574,152.93,38.363,152.885,38.158z"/>
		
			<path fill="none" stroke="#010202" stroke-width="2.4283" stroke-linecap="round" stroke-linejoin="round" stroke-miterlimit="10" d="
			M129.87,24.178c0,0-11.447,13.437,0,25.722"/>
		<circle fill="#010202" cx="138.629" cy="34.199" r="2.839"/>
	</g>
	<g>
		
			<path fill="#39A8E0" stroke="#010202" stroke-width="2.4283" stroke-linecap="round" stroke-linejoin="round" stroke-miterlimit="10" d="
			M105.762,207.02c-6.358,0-10.001-4.165-10.001-11.433c0-0.791,0.639-1.429,1.428-1.429c0.788,0,20.645,5.714,21.436,5.714
			c0.788,0,1.428,0.642,1.428,1.432C120.051,207.02,113.111,207.02,105.762,207.02z"/>
		
			<path fill="#39A8E0" stroke="#010202" stroke-width="2.4283" stroke-linecap="round" stroke-linejoin="round" stroke-miterlimit="10" d="
			M125.557,158.17c-2.219-3.415-9.888-3.416-17.937-3.416c-7.611,0-14.287,6.01-14.288,12.86v0.002c0,0.789,2.856,0,2.856,0v-0.002
			h30.279C126.467,167.614,125.972,158.81,125.557,158.17z"/>
		
			<path fill="#39A8E0" stroke="#010202" stroke-width="2.4283" stroke-linecap="round" stroke-linejoin="round" stroke-miterlimit="10" d="
			M152.885,182.417c-3.04-13.673-15.311-23.983-28.546-23.983c-18.462,0-36.571,12.807-43.385,17.626
			c-0.279,0.197-0.534,0.383-0.771,0.545c-1.729-1.592-4.891-4.275-6.648-5.158c-0.986-0.493-1.924-0.742-2.783-0.742
			c-2.321,0-3.572,1.777-3.572,3.449v17.15c0,1.673,1.251,3.449,3.572,3.449c0.859,0,1.797-0.249,2.783-0.744
			c1.768-0.885,4.96-3.603,6.682-5.191c4.488,2.765,23.845,13.916,44.122,13.916c15.131,0,25.805-7.363,28.546-19.696
			C152.93,182.833,152.93,182.622,152.885,182.417z"/>
		
			<path fill="none" stroke="#010202" stroke-width="2.4283" stroke-linecap="round" stroke-linejoin="round" stroke-miterlimit="10" d="
			M129.87,168.437c0,0-11.447,13.437,0,25.722"/>
		<circle fill="#010202" cx="138.629" cy="178.458" r="2.839"/>
	</g>
	<g>
		
			<path fill="#39A8E0" stroke="#010202" stroke-width="2.4283" stroke-linecap="round" stroke-linejoin="round" stroke-miterlimit="10" d="
			M168.208,134.891c6.358,0,10.001-4.166,10.001-11.434c0-0.791-0.639-1.428-1.428-1.428c-0.788,0-20.645,5.713-21.436,5.713
			c-0.788,0-1.428,0.643-1.428,1.432C153.919,134.891,160.859,134.891,168.208,134.891z"/>
		
			<path fill="#39A8E0" stroke="#010202" stroke-width="2.4283" stroke-linecap="round" stroke-linejoin="round" stroke-miterlimit="10" d="
			M148.414,86.041c2.219-3.416,9.888-3.416,17.937-3.416c7.611,0,14.287,6.01,14.288,12.859v0.002c0,0.789-2.856,0-2.856,0v-0.002
			h-30.279C147.503,95.484,147.999,86.68,148.414,86.041z"/>
		
			<path fill="#39A8E0" stroke="#010202" stroke-width="2.4283" stroke-linecap="round" stroke-linejoin="round" stroke-miterlimit="10" d="
			M121.085,110.287c3.04-13.672,15.311-23.982,28.546-23.982c18.462,0,36.571,12.807,43.385,17.625
			c0.279,0.197,0.534,0.383,0.771,0.545c1.729-1.592,4.891-4.275,6.648-5.158c0.986-0.492,1.924-0.742,2.783-0.742
			c2.321,0,3.572,1.777,3.572,3.449v17.15c0,1.674-1.25,3.449-3.572,3.449c-0.859,0-1.797-0.248-2.783-0.744
			c-1.769-0.885-4.96-3.602-6.682-5.191c-4.488,2.766-23.845,13.916-44.122,13.916c-15.132,0-25.804-7.363-28.546-19.695
			C121.04,110.703,121.04,110.492,121.085,110.287z"/>
		
			<path fill="none" stroke="#010202" stroke-width="2.4283" stroke-linecap="round" stroke-linejoin="round" stroke-miterlimit="10" d="
			M144.101,96.307c0,0,11.446,13.438,0,25.723"/>
		<path fill="#010202" d="M132.502,106.328c0,1.568,1.271,2.842,2.839,2.842s2.839-1.273,2.839-2.842
			c0-1.566-1.271-2.838-2.839-2.838S132.502,104.762,132.502,106.328z"/>
	</g>
</g>
</svg>
