<?xml version="1.0" encoding="utf-8"?>
<!-- Generator: Adobe Illustrator 16.0.0, SVG Export Plug-In . SVG Version: 6.00 Build 0)  -->
<!DOCTYPE svg PUBLIC "-//W3C//DTD SVG 1.1//EN" "http://www.w3.org/Graphics/SVG/1.1/DTD/svg11.dtd">
<svg version="1.1" xmlns="http://www.w3.org/2000/svg" xmlns:xlink="http://www.w3.org/1999/xlink" x="0px" y="0px" width="220px"
	 height="220px" viewBox="0 0 220 220" enable-background="new 0 0 220 220" xml:space="preserve">
<g id="bg">
</g>
<g id="Layer_1">
	<g>
		
			<path fill="#39A8E0" stroke="#010202" stroke-width="2.4283" stroke-linecap="round" stroke-linejoin="round" stroke-miterlimit="10" d="
			M5.951,62.761c6.358,0,10.001-4.165,10.001-11.433c0-0.791-0.639-1.429-1.428-1.429c-0.788,0-20.645,5.714-21.436,5.714
			c-0.788,0-1.428,0.642-1.428,1.432C-8.338,62.761-1.398,62.761,5.951,62.761z"/>
		
			<path fill="#39A8E0" stroke="#010202" stroke-width="2.4283" stroke-linecap="round" stroke-linejoin="round" stroke-miterlimit="10" d="
			M-13.844,13.911c2.22-3.415,9.889-3.416,17.937-3.416c7.611,0,14.287,6.01,14.288,12.86v0.002c0,0.789-2.856,0-2.856,0v-0.002
			h-30.279C-14.754,23.355-14.259,14.551-13.844,13.911z"/>
		
			<path fill="#39A8E0" stroke="#010202" stroke-width="2.4283" stroke-linecap="round" stroke-linejoin="round" stroke-miterlimit="10" d="
			M-41.172,38.158c3.04-13.673,15.311-23.983,28.546-23.983c18.462,0,36.571,12.807,43.385,17.626
			c0.279,0.197,0.534,0.383,0.771,0.545c1.729-1.592,4.891-4.275,6.648-5.158c0.986-0.493,1.924-0.742,2.783-0.742
			c2.321,0,3.572,1.777,3.572,3.449v17.15c0,1.673-1.25,3.449-3.572,3.449c-0.859,0-1.797-0.249-2.783-0.744
			c-1.769-0.885-4.96-3.603-6.682-5.191C27.007,47.323,7.65,58.475-12.626,58.475c-15.132,0-25.805-7.363-28.546-19.696
			C-41.217,38.574-41.217,38.363-41.172,38.158z"/>
	</g>
	<g>
		
			<path fill="#39A8E0" stroke="#010202" stroke-width="2.4283" stroke-linecap="round" stroke-linejoin="round" stroke-miterlimit="10" d="
			M5.951,207.02c6.358,0,10.001-4.165,10.001-11.433c0-0.791-0.639-1.429-1.428-1.429c-0.788,0-20.645,5.714-21.436,5.714
			c-0.788,0-1.428,0.642-1.428,1.432C-8.338,207.02-1.398,207.02,5.951,207.02z"/>
		
			<path fill="#39A8E0" stroke="#010202" stroke-width="2.4283" stroke-linecap="round" stroke-linejoin="round" stroke-miterlimit="10" d="
			M-13.844,158.17c2.22-3.415,9.889-3.416,17.937-3.416c7.611,0,14.287,6.01,14.288,12.86v0.002c0,0.789-2.856,0-2.856,0v-0.002
			h-30.279C-14.754,167.614-14.259,158.81-13.844,158.17z"/>
		
			<path fill="#39A8E0" stroke="#010202" stroke-width="2.4283" stroke-linecap="round" stroke-linejoin="round" stroke-miterlimit="10" d="
			M-41.172,182.417c3.04-13.673,15.311-23.983,28.546-23.983c18.462,0,36.571,12.807,43.385,17.626
			c0.279,0.197,0.534,0.383,0.771,0.545c1.729-1.592,4.891-4.275,6.648-5.158c0.986-0.493,1.924-0.742,2.783-0.742
			c2.321,0,3.572,1.777,3.572,3.449v17.15c0,1.673-1.25,3.449-3.572,3.449c-0.859,0-1.797-0.249-2.783-0.744
			c-1.769-0.885-4.96-3.603-6.682-5.191c-4.488,2.765-23.845,13.916-44.122,13.916c-15.132,0-25.805-7.363-28.546-19.696
			C-41.217,182.833-41.217,182.622-41.172,182.417z"/>
	</g>
	<g>
		
			<path fill="#39A8E0" stroke="#010202" stroke-width="2.4283" stroke-linecap="round" stroke-linejoin="round" stroke-miterlimit="10" d="
			M226.009,62.761c6.358,0,10.001-4.165,10.001-11.433c0-0.791-0.639-1.429-1.428-1.429c-0.788,0-20.645,5.714-21.436,5.714
			c-0.788,0-1.428,0.642-1.428,1.432C211.72,62.761,218.66,62.761,226.009,62.761z"/>
		
			<path fill="#39A8E0" stroke="#010202" stroke-width="2.4283" stroke-linecap="round" stroke-linejoin="round" stroke-miterlimit="10" d="
			M206.214,13.911c2.219-3.415,9.888-3.416,17.937-3.416c7.611,0,14.287,6.01,14.288,12.86v0.002c0,0.789-2.856,0-2.856,0v-0.002
			h-30.279C205.304,23.355,205.799,14.551,206.214,13.911z"/>
		
			<path fill="#39A8E0" stroke="#010202" stroke-width="2.4283" stroke-linecap="round" stroke-linejoin="round" stroke-miterlimit="10" d="
			M178.886,38.158c3.04-13.673,15.311-23.983,28.546-23.983c18.461,0,36.57,12.807,43.384,17.626
			c0.28,0.197,0.534,0.383,0.771,0.545c1.729-1.592,4.891-4.275,6.648-5.158c0.986-0.493,1.924-0.742,2.783-0.742
			c2.321,0,3.572,1.777,3.572,3.449v17.15c0,1.673-1.25,3.449-3.572,3.449c-0.859,0-1.797-0.249-2.783-0.744
			c-1.769-0.885-4.96-3.603-6.682-5.191c-4.488,2.765-23.845,13.916-44.121,13.916c-15.132,0-25.805-7.363-28.546-19.696
			C178.841,38.574,178.841,38.363,178.886,38.158z"/>
		
			<path fill="none" stroke="#010202" stroke-width="2.4283" stroke-linecap="round" stroke-linejoin="round" stroke-miterlimit="10" d="
			M201.901,24.178c0,0,11.447,13.437,0,25.722"/>
		<circle fill="#010202" cx="193.142" cy="34.199" r="2.839"/>
	</g>
	<g>
		
			<path fill="#39A8E0" stroke="#010202" stroke-width="2.4283" stroke-linecap="round" stroke-linejoin="round" stroke-miterlimit="10" d="
			M226.009,207.02c6.358,0,10.001-4.165,10.001-11.433c0-0.791-0.639-1.429-1.428-1.429c-0.788,0-20.645,5.714-21.436,5.714
			c-0.788,0-1.428,0.642-1.428,1.432C211.72,207.02,218.66,207.02,226.009,207.02z"/>
		
			<path fill="#39A8E0" stroke="#010202" stroke-width="2.4283" stroke-linecap="round" stroke-linejoin="round" stroke-miterlimit="10" d="
			M206.214,158.17c2.219-3.415,9.888-3.416,17.937-3.416c7.611,0,14.287,6.01,14.288,12.86v0.002c0,0.789-2.856,0-2.856,0v-0.002
			h-30.279C205.304,167.614,205.799,158.81,206.214,158.17z"/>
		
			<path fill="#39A8E0" stroke="#010202" stroke-width="2.4283" stroke-linecap="round" stroke-linejoin="round" stroke-miterlimit="10" d="
			M178.886,182.417c3.04-13.673,15.311-23.983,28.546-23.983c18.461,0,36.57,12.807,43.384,17.626
			c0.28,0.197,0.534,0.383,0.771,0.545c1.729-1.592,4.891-4.275,6.648-5.158c0.986-0.493,1.924-0.742,2.783-0.742
			c2.321,0,3.572,1.777,3.572,3.449v17.15c0,1.673-1.25,3.449-3.572,3.449c-0.859,0-1.797-0.249-2.783-0.744
			c-1.769-0.885-4.96-3.603-6.682-5.191c-4.488,2.765-23.845,13.916-44.121,13.916c-15.132,0-25.805-7.363-28.546-19.696
			C178.841,182.833,178.841,182.622,178.886,182.417z"/>
		
			<path fill="none" stroke="#010202" stroke-width="2.4283" stroke-linecap="round" stroke-linejoin="round" stroke-miterlimit="10" d="
			M201.901,168.437c0,0,11.447,13.437,0,25.722"/>
		<circle fill="#010202" cx="193.142" cy="178.458" r="2.839"/>
	</g>
	<g>
		
			<path fill="#39A8E0" stroke="#010202" stroke-width="2.4283" stroke-linecap="round" stroke-linejoin="round" stroke-miterlimit="10" d="
			M51.245,134.891c-6.358,0-10.001-4.166-10.001-11.434c0-0.791,0.639-1.428,1.428-1.428c0.788,0,20.645,5.713,21.436,5.713
			c0.788,0,1.427,0.643,1.427,1.432C65.534,134.891,58.594,134.891,51.245,134.891z"/>
		
			<path fill="#39A8E0" stroke="#010202" stroke-width="2.4283" stroke-linecap="round" stroke-linejoin="round" stroke-miterlimit="10" d="
			M71.04,86.041c-2.219-3.416-9.888-3.416-17.937-3.416c-7.611,0-14.287,6.01-14.288,12.859v0.002c0,0.789,2.856,0,2.856,0v-0.002
			H71.95C71.95,95.484,71.455,86.68,71.04,86.041z"/>
		
			<path fill="#39A8E0" stroke="#010202" stroke-width="2.4283" stroke-linecap="round" stroke-linejoin="round" stroke-miterlimit="10" d="
			M98.368,110.287c-3.04-13.672-15.311-23.982-28.546-23.982c-18.462,0-36.571,12.807-43.385,17.625
			c-0.28,0.197-0.534,0.383-0.771,0.545c-1.729-1.592-4.891-4.275-6.648-5.158c-0.986-0.492-1.924-0.742-2.783-0.742
			c-2.321,0-3.572,1.777-3.572,3.449v17.15c0,1.674,1.25,3.449,3.572,3.449c0.859,0,1.797-0.248,2.783-0.744
			c1.769-0.885,4.96-3.602,6.682-5.191c4.488,2.766,23.845,13.916,44.122,13.916c15.132,0,25.805-7.363,28.546-19.695
			C98.413,110.703,98.413,110.492,98.368,110.287z"/>
		
			<path fill="none" stroke="#010202" stroke-width="2.4283" stroke-linecap="round" stroke-linejoin="round" stroke-miterlimit="10" d="
			M75.353,96.307c0,0-11.447,13.438,0,25.723"/>
		<path fill="#010202" d="M86.951,106.328c0,1.568-1.271,2.842-2.839,2.842c-1.568,0-2.839-1.273-2.839-2.842
			c0-1.566,1.271-2.838,2.839-2.838C85.68,103.49,86.951,104.762,86.951,106.328z"/>
	</g>
	<g>
		
			<path fill="#39A8E0" stroke="#010202" stroke-width="2.4283" stroke-linecap="round" stroke-linejoin="round" stroke-miterlimit="10" d="
			M168.851,134.891c6.358,0,10.001-4.166,10.001-11.434c0-0.791-0.639-1.428-1.428-1.428c-0.789,0-20.645,5.713-21.436,5.713
			c-0.788,0-1.428,0.643-1.428,1.432C154.561,134.891,161.501,134.891,168.851,134.891z"/>
		
			<path fill="#39A8E0" stroke="#010202" stroke-width="2.4283" stroke-linecap="round" stroke-linejoin="round" stroke-miterlimit="10" d="
			M149.056,86.041c2.219-3.416,9.888-3.416,17.937-3.416c7.611,0,14.287,6.01,14.288,12.859v0.002c0,0.789-2.856,0-2.856,0v-0.002
			h-30.279C148.145,95.484,148.641,86.68,149.056,86.041z"/>
		
			<path fill="#39A8E0" stroke="#010202" stroke-width="2.4283" stroke-linecap="round" stroke-linejoin="round" stroke-miterlimit="10" d="
			M121.727,110.287c3.04-13.672,15.311-23.982,28.546-23.982c18.462,0,36.571,12.807,43.385,17.625
			c0.279,0.197,0.534,0.383,0.77,0.545c1.73-1.592,4.892-4.275,6.649-5.158c0.986-0.492,1.924-0.742,2.783-0.742
			c2.321,0,3.572,1.777,3.572,3.449v17.15c0,1.674-1.25,3.449-3.572,3.449c-0.859,0-1.797-0.248-2.783-0.744
			c-1.769-0.885-4.96-3.602-6.682-5.191c-4.488,2.766-23.845,13.916-44.122,13.916c-15.132,0-25.805-7.363-28.546-19.695
			C121.682,110.703,121.682,110.492,121.727,110.287z"/>
		
			<path fill="none" stroke="#010202" stroke-width="2.4283" stroke-linecap="round" stroke-linejoin="round" stroke-miterlimit="10" d="
			M144.742,96.307c0,0,11.447,13.438,0,25.723"/>
		<path fill="#010202" d="M133.144,106.328c0,1.568,1.271,2.842,2.839,2.842s2.839-1.273,2.839-2.842
			c0-1.566-1.271-2.838-2.839-2.838S133.144,104.762,133.144,106.328z"/>
	</g>
	<g>
		
			<path fill="#39A8E0" stroke="#010202" stroke-width="2.4283" stroke-linecap="round" stroke-linejoin="round" stroke-miterlimit="10" d="
			M105.762,62.761c-6.358,0-10.002-4.165-10.002-11.433c0-0.791,0.639-1.429,1.428-1.429c0.788,0,20.645,5.714,21.436,5.714
			c0.788,0,1.428,0.642,1.428,1.432C120.051,62.761,113.111,62.761,105.762,62.761z"/>
		
			<path fill="#39A8E0" stroke="#010202" stroke-width="2.4283" stroke-linecap="round" stroke-linejoin="round" stroke-miterlimit="10" d="
			M125.557,13.911c-2.219-3.415-9.888-3.416-17.937-3.416c-7.611,0-14.287,6.01-14.288,12.86v0.002c0,0.789,2.856,0,2.856,0v-0.002
			h30.279C126.467,23.355,125.972,14.551,125.557,13.911z"/>
		
			<path fill="#39A8E0" stroke="#010202" stroke-width="2.4283" stroke-linecap="round" stroke-linejoin="round" stroke-miterlimit="10" d="
			M152.885,38.158c-3.039-13.673-15.31-23.983-28.545-23.983c-18.462,0-36.571,12.807-43.385,17.626
			c-0.279,0.197-0.534,0.383-0.771,0.545c-1.729-1.592-4.891-4.275-6.648-5.158c-0.986-0.493-1.924-0.742-2.783-0.742
			c-2.321,0-3.572,1.777-3.572,3.449v17.15c0,1.673,1.25,3.449,3.572,3.449c0.859,0,1.797-0.249,2.783-0.744
			c1.768-0.885,4.96-3.603,6.682-5.191c4.488,2.765,23.845,13.916,44.122,13.916c15.131,0,25.805-7.363,28.545-19.696
			C152.93,38.574,152.93,38.363,152.885,38.158z"/>
		
			<path fill="none" stroke="#010202" stroke-width="2.4283" stroke-linecap="round" stroke-linejoin="round" stroke-miterlimit="10" d="
			M129.87,24.178c0,0-11.447,13.437,0,25.722"/>
		<circle fill="#010202" cx="138.629" cy="34.199" r="2.839"/>
	</g>
	<g>
		
			<path fill="#39A8E0" stroke="#010202" stroke-width="2.4283" stroke-linecap="round" stroke-linejoin="round" stroke-miterlimit="10" d="
			M105.762,207.02c-6.358,0-10.002-4.165-10.002-11.433c0-0.791,0.639-1.429,1.428-1.429c0.788,0,20.645,5.714,21.436,5.714
			c0.788,0,1.428,0.642,1.428,1.432C120.051,207.02,113.111,207.02,105.762,207.02z"/>
		
			<path fill="#39A8E0" stroke="#010202" stroke-width="2.4283" stroke-linecap="round" stroke-linejoin="round" stroke-miterlimit="10" d="
			M125.557,158.17c-2.219-3.415-9.888-3.416-17.937-3.416c-7.611,0-14.287,6.01-14.288,12.86v0.002c0,0.789,2.856,0,2.856,0v-0.002
			h30.279C126.467,167.614,125.972,158.81,125.557,158.17z"/>
		
			<path fill="#39A8E0" stroke="#010202" stroke-width="2.4283" stroke-linecap="round" stroke-linejoin="round" stroke-miterlimit="10" d="
			M152.885,182.417c-3.039-13.673-15.31-23.983-28.545-23.983c-18.462,0-36.571,12.807-43.385,17.626
			c-0.279,0.197-0.534,0.383-0.771,0.545c-1.729-1.592-4.891-4.275-6.648-5.158c-0.986-0.493-1.924-0.742-2.783-0.742
			c-2.321,0-3.572,1.777-3.572,3.449v17.15c0,1.673,1.25,3.449,3.572,3.449c0.859,0,1.797-0.249,2.783-0.744
			c1.768-0.885,4.96-3.603,6.682-5.191c4.488,2.765,23.845,13.916,44.122,13.916c15.131,0,25.805-7.363,28.545-19.696
			C152.93,182.833,152.93,182.622,152.885,182.417z"/>
		
			<path fill="none" stroke="#010202" stroke-width="2.4283" stroke-linecap="round" stroke-linejoin="round" stroke-miterlimit="10" d="
			M129.87,168.437c0,0-11.447,13.437,0,25.722"/>
		<circle fill="#010202" cx="138.629" cy="178.458" r="2.839"/>
	</g>
</g>
</svg>
