<?xml version="1.0" encoding="utf-8"?>
<!-- Generator: Adobe Illustrator 16.0.0, SVG Export Plug-In . SVG Version: 6.00 Build 0)  -->
<!DOCTYPE svg PUBLIC "-//W3C//DTD SVG 1.1//EN" "http://www.w3.org/Graphics/SVG/1.1/DTD/svg11.dtd">
<svg version="1.1" xmlns="http://www.w3.org/2000/svg" xmlns:xlink="http://www.w3.org/1999/xlink" x="0px" y="0px"
	 width="453.543px" height="453.543px" viewBox="0 0 453.543 453.543" enable-background="new 0 0 453.543 453.543"
	 xml:space="preserve">
<g id="kvadrat">
</g>
<g id="bg" display="none">
	<rect x="-1853.431" y="-5337.222" display="inline" width="15266.867" height="13678.951"/>
</g>
<g id="barvno" display="none">
	<g display="inline">
		<path fill="none" stroke="#000000" stroke-width="8" stroke-linecap="round" stroke-linejoin="round" stroke-miterlimit="10" d="
			M239.219,174.264c0,0-31.446,38.159,1.553,106.217s16.583,111.056,9.042,120.056"/>
		
			<path fill="#CB78A6" stroke="#000000" stroke-width="8" stroke-linecap="round" stroke-linejoin="round" stroke-miterlimit="10" d="
			M226.772,209.764c99.227-46.906,75.773-147.036,8.119-156.057c0,0-10.804-0.699-8.255-0.699c2.55,0-7.982,0.699-7.982,0.699
			C150.999,62.728,127.545,162.857,226.772,209.764"/>
		
			<polygon fill="#CB78A6" stroke="#000000" stroke-width="8" stroke-linecap="round" stroke-linejoin="round" stroke-miterlimit="10" points="
			222.542,207.52 217.73,217.67 235.813,217.67 231.002,207.52 		"/>
		<path fill="none" stroke="#000000" stroke-width="8" stroke-linecap="round" stroke-linejoin="round" stroke-miterlimit="10" d="
			M238.869,69.913c15.05,1.399,39.354,18.2,38.85,46.899"/>
	</g>
	<g id="rdeča7bela" display="inline">
	</g>
	
		<rect x="-2363.716" y="-5757.23" display="inline" fill="none" stroke="#000000" stroke-miterlimit="10" width="16736" height="13952"/>
</g>
<g id="sivinsko">
	<g>
		<path d="M249.811,404.536c-0.906,0-1.817-0.306-2.566-0.934c-1.693-1.419-1.916-3.942-0.497-5.635
			c6.228-7.433,22.855-48.858-9.575-115.742c-17.537-36.168-17.004-64.112-13.469-81.186c3.893-18.8,12.082-28.899,12.428-29.32
			c1.405-1.705,3.925-1.949,5.631-0.543c1.702,1.402,1.947,3.917,0.55,5.622c-0.131,0.162-7.468,9.385-10.876,26.359
			c-3.168,15.775-3.495,41.692,12.935,75.578c33.727,69.56,17.02,114.212,8.508,124.37
			C252.088,404.049,250.954,404.536,249.811,404.536z"/>
		<g>
			<path fill="#969696" d="M226.772,209.764c99.227-46.906,75.773-147.036,8.119-156.057c0,0-10.804-0.699-8.255-0.699
				c2.55,0-7.982,0.699-7.982,0.699C150.999,62.728,127.545,162.857,226.772,209.764"/>
			<path d="M226.772,213.764c-0.584,0-1.168-0.128-1.709-0.384c-57.85-27.347-73.134-71.291-68.149-103.298
				c4.964-31.872,29.563-56.12,61.211-60.34c0.088-0.012,0.176-0.021,0.264-0.026c1.383-0.092,4.69-0.32,6.63-0.483
				c0.908-0.28,2.292-0.285,3.208-0.009c1.996,0.164,5.48,0.398,6.923,0.491c0.09,0.006,0.181,0.015,0.271,0.027
				c31.647,4.22,56.247,28.468,61.211,60.34c4.985,32.007-10.299,75.951-68.149,103.298
				C227.94,213.636,227.356,213.764,226.772,213.764z M219.053,57.689c-28.477,3.852-49.759,24.887-54.235,53.624
				c-4.492,28.839,9.499,68.516,61.954,94.015c52.455-25.5,66.445-65.176,61.954-94.015c-4.476-28.736-25.755-49.771-54.231-53.623
				c-1.035-0.067-5.8-0.381-7.833-0.573C224.683,57.31,220.06,57.622,219.053,57.689z"/>
		</g>
		<g>
			<polygon fill="#969696" points="222.542,207.52 217.73,217.67 235.813,217.67 231.002,207.52 			"/>
			<path d="M235.813,221.67H217.73c-1.372,0-2.647-0.703-3.38-1.861c-0.733-1.159-0.821-2.613-0.234-3.852l4.812-10.15
				c0.662-1.396,2.069-2.287,3.614-2.287h8.461c1.545,0,2.953,0.89,3.614,2.287l4.812,10.15c0.587,1.239,0.499,2.693-0.234,3.852
				C238.46,220.967,237.185,221.67,235.813,221.67z M224.053,213.67h5.438l-1.019-2.15h-3.399L224.053,213.67z"/>
		</g>
		<path d="M277.72,120.813c-0.024,0-0.047,0-0.072,0c-2.209-0.039-3.968-1.861-3.929-4.07c0.484-27.577-23.088-41.718-35.22-42.846
			c-2.2-0.205-3.817-2.154-3.613-4.353c0.205-2.2,2.151-3.82,4.353-3.613c17.698,1.646,43.009,20.737,42.479,50.953
			C281.679,119.067,279.896,120.813,277.72,120.813z"/>
	</g>
	<g id="rdeča7bela_copy_3">
	</g>
	<path d="M14372.783,8195.27h-16737v-13953h16737V8195.27z M-2363.716,8194.27h16736l-0.5-13951h-16735.5l0.5,13951H-2363.716z"/>
</g>
<g id="linijsko" display="none">
	<g display="inline">
		<g>
			<path fill="none" stroke="#000000" stroke-width="8" stroke-linecap="round" stroke-linejoin="round" stroke-miterlimit="10" d="
				M225.757,217.67c-0.573,16.572,2.813,37.645,15.015,62.811c32.999,68.058,16.583,111.056,9.042,120.056"/>
			<path fill="none" stroke="#000000" stroke-width="8" stroke-linecap="round" stroke-linejoin="round" stroke-miterlimit="10" d="
				M231.067,207.657c94.227-47.729,70.482-145.063,3.823-153.95c0,0-6.53-0.423-8.237-0.611"/>
			<path fill="none" stroke="#000000" stroke-width="8" stroke-linecap="round" stroke-linejoin="round" stroke-miterlimit="10" d="
				M226.653,53.096c-1.634,0.188-8,0.611-8,0.611c-66.659,8.888-90.403,106.222,3.823,153.95"/>
			<path fill="none" stroke="#000000" stroke-width="8" stroke-linecap="round" stroke-linejoin="round" stroke-miterlimit="10" d="
				M226.653,53.096c0.467-0.054,0.55-0.088-0.018-0.088C226.069,53.008,226.165,53.042,226.653,53.096"/>
			
				<polyline fill="none" stroke="#000000" stroke-width="8" stroke-linecap="round" stroke-linejoin="round" stroke-miterlimit="10" points="
				231.067,207.657 235.813,217.67 225.757,217.67 			"/>
			
				<polyline fill="none" stroke="#000000" stroke-width="8" stroke-linecap="round" stroke-linejoin="round" stroke-miterlimit="10" points="
				231.067,207.657 231.002,207.52 226.639,207.52 			"/>
			
				<polyline fill="none" stroke="#000000" stroke-width="8" stroke-linecap="round" stroke-linejoin="round" stroke-miterlimit="10" points="
				222.477,207.657 217.73,217.67 225.757,217.67 			"/>
			
				<polyline fill="none" stroke="#000000" stroke-width="8" stroke-linecap="round" stroke-linejoin="round" stroke-miterlimit="10" points="
				222.477,207.657 222.542,207.52 226.639,207.52 			"/>
		</g>
		<path fill="none" stroke="#000000" stroke-width="8" stroke-linecap="round" stroke-linejoin="round" stroke-miterlimit="10" d="
			M238.869,69.913c15.05,1.399,39.354,18.2,38.85,46.899"/>
	</g>
	<g id="rdeča7bela_copy" display="inline">
	</g>
</g>
<g id="pivot">
	<circle fill="none" cx="257.461" cy="382.427" r="14.133"/>
</g>
</svg>
