<?xml version="1.0" encoding="utf-8"?>
<!-- Generator: Adobe Illustrator 16.0.0, SVG Export Plug-In . SVG Version: 6.00 Build 0)  -->
<!DOCTYPE svg PUBLIC "-//W3C//DTD SVG 1.1//EN" "http://www.w3.org/Graphics/SVG/1.1/DTD/svg11.dtd">
<svg version="1.1" xmlns="http://www.w3.org/2000/svg" xmlns:xlink="http://www.w3.org/1999/xlink" x="0px" y="0px"
	 width="453.543px" height="453.543px" viewBox="0 0 453.543 453.543" enable-background="new 0 0 453.543 453.543"
	 xml:space="preserve">
<g id="kvadrat">
</g>
<g id="bg" display="none">
	<rect x="-4914.849" y="-5337.222" display="inline" width="15266.867" height="13678.951"/>
</g>
<g id="barvno" display="none">
	<g id="rdeča7bela" display="inline">
	</g>
	<g display="inline">
		<g>
			
				<path fill="#39A935" stroke="#000000" stroke-width="8" stroke-linecap="round" stroke-linejoin="round" stroke-miterlimit="10" d="
				M283.435,339.993c17.923-2.528,35.073,14.691,41.79,22.43c13.245-9.24,25.354-9.301,34.29-6.941
				c-3.189-8.67-4.263-20.738,3.7-34.792c-8.266-5.912-26.772-21.19-26.263-39.058c-13.774,1.839-33.924-1.751-43.898-24.458
				l-12.992,2.099c1.01,6.79-1.058,13.958-6.234,19.24c-5.138,5.242-12.193,7.459-18.956,6.638l-0.958,13.265
				C279.592,306.872,283.316,328.697,283.435,339.993z"/>
			
				<circle fill="#E20613" stroke="#000000" stroke-width="8" stroke-linecap="round" stroke-linejoin="round" stroke-miterlimit="10" cx="255.753" cy="260.574" r="13.54"/>
			
				<line fill="none" stroke="#000000" stroke-width="8" stroke-linecap="round" stroke-linejoin="round" stroke-miterlimit="10" x1="314.671" y1="319.492" x2="276.4" y2="281.22"/>
		</g>
		<g>
			
				<path fill="#39A935" stroke="#000000" stroke-width="8" stroke-linecap="round" stroke-linejoin="round" stroke-miterlimit="10" d="
				M300.034,164.75c-11.15-14.257-4.813-37.719-1.47-47.406c-14.625-6.85-20.732-17.307-23.156-26.226
				c-5.916,7.096-15.827,14.062-31.981,14.193c-0.987,10.113-4.966,33.781-20.694,42.273c8.482,11.01,15.445,30.254,0.77,50.246
				l8.313,10.202c5.375-4.271,12.617-6.063,19.78-4.221c7.108,1.827,12.556,6.829,15.227,13.096l11.966-5.802
				C273.271,184.639,290.312,170.501,300.034,164.75z"/>
			
				<circle fill="#E20613" stroke="#000000" stroke-width="8" stroke-linecap="round" stroke-linejoin="round" stroke-miterlimit="10" cx="244.998" cy="228.531" r="13.54"/>
			
				<line fill="none" stroke="#000000" stroke-width="8" stroke-linecap="round" stroke-linejoin="round" stroke-miterlimit="10" x1="266.66" y1="147.949" x2="252.653" y2="200.229"/>
		</g>
		<g>
			
				<path fill="#39A935" stroke="#000000" stroke-width="8" stroke-linecap="round" stroke-linejoin="round" stroke-miterlimit="10" d="
				M141.784,231.225c-6.772,16.785-30.26,23.028-40.321,24.975c1.38,16.091-4.622,26.608-11.134,33.167
				c9.104,1.574,20.091,6.676,28.283,20.601c9.251-4.201,31.739-12.59,46.955-3.215c5.295-12.85,18.479-28.505,43.131-25.79
				l4.677-12.301c-6.385-2.519-11.56-7.893-13.545-15.018c-1.972-7.07-0.363-14.29,3.729-19.735l-11.009-7.462
				C172.39,244.458,151.625,236.771,141.784,231.225z"/>
			
				<circle fill="#E20613" stroke="#000000" stroke-width="8" stroke-linecap="round" stroke-linejoin="round" stroke-miterlimit="10" cx="224.501" cy="246.865" r="13.54"/>
			
				<line fill="none" stroke="#000000" stroke-width="8" stroke-linecap="round" stroke-linejoin="round" stroke-miterlimit="10" x1="143.919" y1="268.528" x2="196.201" y2="254.519"/>
		</g>
	</g>
	
		<rect x="-5425.134" y="-5757.23" display="inline" fill="none" stroke="#000000" stroke-miterlimit="10" width="16736" height="13952"/>
</g>
<g id="sivinsko">
	<g id="rdeča7bela_copy_3">
	</g>
	<g>
		<g>
			<g>
				<path fill="#7B7B7B" d="M283.435,339.993c17.923-2.528,35.073,14.691,41.79,22.43c13.245-9.24,25.354-9.301,34.29-6.941
					c-3.189-8.67-4.263-20.738,3.7-34.792c-8.266-5.912-26.772-21.19-26.263-39.058c-13.774,1.839-33.924-1.751-43.898-24.458
					l-12.992,2.099c1.01,6.79-1.058,13.958-6.234,19.24c-5.138,5.242-12.193,7.459-18.956,6.638l-0.958,13.265
					C279.592,306.872,283.316,328.697,283.435,339.993z"/>
				<path d="M325.227,366.423c-1.124,0-2.237-0.472-3.023-1.378c-5.559-6.405-20.114-21.303-35.16-21.303
					c-1.027,0-2.054,0.071-3.05,0.212c-1.139,0.161-2.293-0.177-3.166-0.928c-0.873-0.75-1.38-1.84-1.393-2.991
					c-0.114-10.87-3.744-30.237-26.773-37.819c-1.742-0.574-2.871-2.258-2.739-4.087l0.958-13.265
					c0.079-1.092,0.602-2.104,1.447-2.799c0.845-0.696,1.938-1.016,3.025-0.883c0.75,0.091,1.514,0.137,2.27,0.137
					c5.065,0,9.805-1.991,13.348-5.604c4.134-4.218,6.005-9.996,5.134-15.852c-0.322-2.166,1.157-4.188,3.318-4.538l12.992-2.099
					c1.799-0.29,3.567,0.671,4.3,2.34c8.594,19.563,24.968,22.483,33.964,22.482c1.919,0,3.852-0.128,5.743-0.381
					c1.165-0.154,2.335,0.208,3.207,0.993s1.354,1.913,1.321,3.085c-0.457,16.012,17.045,30.293,24.592,35.69
					c1.664,1.19,2.162,3.445,1.153,5.225c-5.962,10.524-7.157,20.982-3.552,31.091c0.251,0.523,0.392,1.11,0.392,1.729
					c0,2.205-1.784,3.993-3.987,4c-0.337-0.004-0.705-0.041-1.055-0.133c-10.414-2.748-21.008-0.601-30.98,6.355
					C326.819,366.188,326.02,366.423,325.227,366.423z M287.229,335.743c15.989,0.095,30.355,12.476,38.681,21.456
					c8.983-5.487,18.45-7.792,28.034-6.793c-1.507-7.611-1.283-17.448,4.135-28.548c-8.672-6.68-22.958-19.928-24.914-35.87
					c-0.829,0.04-1.658,0.06-2.486,0.061c-10.498,0-29.248-3.255-39.959-24.445l-6.404,1.035c0.017,6.96-2.663,13.605-7.632,18.676
					c-4.835,4.933-11.232,7.748-18.102,7.988l-0.461,6.379C281.05,304.645,286.24,324.271,287.229,335.743z"/>
			</g>
			<g>
				<circle fill="#494949" cx="255.753" cy="260.574" r="13.54"/>
				<path d="M255.753,278.114c-9.671,0-17.54-7.868-17.54-17.54c0-9.672,7.869-17.541,17.54-17.541
					c9.672,0,17.541,7.869,17.541,17.541C273.294,270.246,265.425,278.114,255.753,278.114z M255.753,251.034
					c-5.26,0-9.54,4.28-9.54,9.541c0,5.26,4.28,9.54,9.54,9.54c5.261,0,9.541-4.279,9.541-9.54
					C265.294,255.313,261.014,251.034,255.753,251.034z"/>
			</g>
			<path d="M314.671,323.492c-1.024,0-2.047-0.391-2.829-1.171l-38.271-38.272c-1.562-1.563-1.562-4.095,0-5.657
				c1.563-1.562,4.095-1.561,5.657,0l38.271,38.272c1.562,1.563,1.562,4.095,0,5.657
				C316.719,323.101,315.695,323.492,314.671,323.492z"/>
		</g>
		<g>
			<g>
				<path fill="#7B7B7B" d="M300.034,164.75c-11.15-14.257-4.813-37.719-1.47-47.406c-14.625-6.85-20.732-17.307-23.156-26.226
					c-5.916,7.096-15.827,14.062-31.981,14.193c-0.987,10.113-4.966,33.781-20.694,42.273c8.482,11.01,15.445,30.254,0.77,50.246
					l8.313,10.202c5.375-4.271,12.617-6.063,19.78-4.221c7.108,1.827,12.556,6.829,15.227,13.096l11.966-5.802
					C273.271,184.639,290.312,170.501,300.034,164.75z"/>
				<path d="M266.822,220.908c-0.474,0-0.949-0.084-1.402-0.254c-1.025-0.384-1.848-1.17-2.277-2.178
					c-2.302-5.4-6.874-9.333-12.543-10.79c-5.641-1.451-11.755-0.129-16.295,3.479c-1.715,1.363-4.206,1.092-5.589-0.605
					l-8.313-10.202c-1.151-1.413-1.202-3.425-0.124-4.894c15.101-20.571,4.532-38.629-0.714-45.438
					c-0.716-0.929-0.988-2.126-0.744-3.273s0.98-2.13,2.012-2.687c14.095-7.611,17.713-29.909,18.614-39.143
					c0.199-2.036,1.902-3.595,3.948-3.611c12.232-0.099,21.97-4.391,28.942-12.754c0.955-1.146,2.467-1.664,3.925-1.347
					c1.457,0.318,2.616,1.42,3.007,2.859c2.856,10.507,9.919,18.465,20.993,23.652c1.853,0.868,2.752,2.994,2.084,4.927
					c-3.064,8.879-9.117,30.907,0.839,43.637c0.709,0.907,0.993,2.075,0.78,3.206c-0.213,1.131-0.904,2.115-1.895,2.701
					c-9.356,5.534-24.313,18.362-19.367,42.097c0.374,1.795-0.521,3.615-2.171,4.415l-11.966,5.802
					C268.018,220.774,267.42,220.908,266.822,220.908z M245.929,199.092c2.237,0,4.479,0.285,6.663,0.847
					c6.728,1.729,12.373,5.898,15.974,11.679l5.749-2.787c-3.7-24.342,10.705-38.65,20.145-45.243
					c-8.038-14.173-4.009-33.593-0.757-44.222c-10.84-5.915-16.72-13.81-19.898-20.89c-5.838,5.114-14.473,9.841-26.797,10.7
					c-1.45,10.854-5.783,29.859-18.623,39.521c5.651,8.886,13.916,27.833,0.12,48.94l4.104,5.036
					C236.647,200.346,241.259,199.092,245.929,199.092z"/>
			</g>
			<g>
				<circle fill="#494949" cx="244.998" cy="228.531" r="13.54"/>
				<path d="M244.998,246.07c-9.672,0-17.541-7.869-17.541-17.54s7.869-17.54,17.541-17.54c9.671,0,17.54,7.868,17.54,17.54
					S254.669,246.07,244.998,246.07z M244.998,218.991c-5.261,0-9.541,4.279-9.541,9.54s4.28,9.54,9.541,9.54
					c5.26,0,9.54-4.28,9.54-9.54S250.258,218.991,244.998,218.991z"/>
			</g>
			<path d="M252.656,204.23c-0.343,0-0.691-0.044-1.038-0.137c-2.134-0.572-3.4-2.765-2.829-4.899l14.007-52.28
				c0.572-2.134,2.768-3.397,4.899-2.829c2.134,0.572,3.4,2.765,2.829,4.899l-14.007,52.28
				C256.038,203.052,254.422,204.23,252.656,204.23z"/>
		</g>
		<g>
			<g>
				<path fill="#7B7B7B" d="M141.784,231.225c-6.772,16.785-30.26,23.028-40.321,24.975c1.38,16.091-4.622,26.608-11.134,33.167
					c9.104,1.574,20.091,6.676,28.283,20.601c9.251-4.201,31.739-12.59,46.955-3.215c5.295-12.85,18.479-28.505,43.131-25.79
					l4.677-12.301c-6.385-2.519-11.56-7.893-13.545-15.018c-1.972-7.07-0.363-14.29,3.729-19.735l-11.009-7.462
					C172.39,244.458,151.625,236.771,141.784,231.225z"/>
				<path d="M118.614,313.968c-1.378,0-2.71-0.715-3.45-1.972c-6.204-10.545-14.789-16.833-25.517-18.688
					c-1.469-0.254-2.676-1.305-3.129-2.725c-0.454-1.421-0.079-2.976,0.972-4.034c7.672-7.729,11.032-17.825,9.987-30.008
					c-0.175-2.039,1.217-3.88,3.226-4.269c9.221-1.784,31.323-7.553,37.371-22.544c0.431-1.067,1.3-1.897,2.387-2.278
					c1.085-0.38,2.283-0.275,3.287,0.29c4.827,2.72,12.417,5.963,21.164,5.963c8.967,0,17.369-3.445,24.973-10.238
					c1.368-1.222,3.392-1.357,4.909-0.328l11.009,7.462c0.906,0.614,1.521,1.573,1.701,2.652c0.18,1.08-0.09,2.187-0.748,3.062
					c-3.526,4.693-4.646,10.618-3.073,16.257c1.586,5.69,5.654,10.199,11.16,12.371c2.037,0.804,3.049,3.096,2.271,5.143
					l-4.677,12.301c-0.647,1.703-2.363,2.753-4.177,2.555c-1.723-0.19-3.432-0.286-5.078-0.286
					c-21.826,0-30.99,16.521-33.917,23.624c-0.447,1.085-1.348,1.918-2.463,2.281c-1.115,0.363-2.334,0.217-3.333-0.399
					c-3.955-2.437-8.904-3.672-14.71-3.672c-11.143,0-22.634,4.463-28.493,7.124C119.731,313.853,119.168,313.968,118.614,313.968z
					 M97.502,287.078c7.347,2.5,15.759,7.613,22.665,17.857c6.952-2.869,17.792-6.45,28.591-6.45c5.558,0,10.567,0.946,14.951,2.817
					c4.64-8.859,16.186-24.65,39.473-24.65c0.935,0,1.886,0.026,2.845,0.078l2.306-6.065c-6.036-3.464-10.451-9.108-12.357-15.947
					c-1.866-6.692-1.079-13.665,2.127-19.674l-5.288-3.584c-8.493,6.799-17.866,10.242-27.905,10.242
					c-8.405,0-15.823-2.445-21.352-5.059c-8.259,14.046-27.085,20.261-37.915,22.757
					C105.943,271.747,102.045,280.786,97.502,287.078z"/>
			</g>
			<g>
				<circle fill="#494949" cx="224.501" cy="246.865" r="13.54"/>
				<path d="M224.501,264.405c-9.671,0-17.54-7.868-17.54-17.54c0-9.672,7.869-17.541,17.54-17.541s17.54,7.869,17.54,17.541
					C242.042,256.537,234.173,264.405,224.501,264.405z M224.501,237.325c-5.26,0-9.54,4.28-9.54,9.541c0,5.26,4.28,9.54,9.54,9.54
					s9.54-4.279,9.54-9.54C234.042,241.605,229.762,237.325,224.501,237.325z"/>
			</g>
			<path d="M143.917,272.529c-1.766,0-3.382-1.179-3.861-2.966c-0.572-2.134,0.694-4.327,2.829-4.899l52.282-14.01
				c2.132-0.571,4.327,0.694,4.899,2.829c0.572,2.134-0.695,4.327-2.829,4.899l-52.282,14.01
				C144.608,272.485,144.26,272.529,143.917,272.529z"/>
		</g>
	</g>
	<path d="M11311.365,8195.27h-16737v-13953h16737V8195.27z M-5425.134,8194.27h16736l-0.5-13951h-16735.5l0.5,13951H-5425.134z"/>
</g>
<g id="linijsko" display="none">
	<g id="rdeča7bela_copy" display="inline">
	</g>
	<g display="inline">
		<g>
			<path fill="none" stroke="#000000" stroke-width="8" stroke-linecap="round" stroke-linejoin="round" stroke-miterlimit="10" d="
				M283.435,339.993c17.923-2.528,35.073,14.691,41.79,22.43c13.245-9.24,25.354-9.301,34.29-6.941
				c-3.189-8.67-4.263-20.738,3.7-34.792c-8.266-5.912-26.772-21.19-26.263-39.058c-13.774,1.839-33.924-1.751-43.898-24.458
				l-12.992,2.099c1.01,6.79-1.058,13.958-6.234,19.24c-5.138,5.242-12.193,7.459-18.956,6.638l-0.958,13.265
				C279.592,306.872,283.316,328.697,283.435,339.993z"/>
			
				<circle fill="none" stroke="#000000" stroke-width="8" stroke-linecap="round" stroke-linejoin="round" stroke-miterlimit="10" cx="255.753" cy="260.574" r="13.54"/>
			
				<line fill="none" stroke="#000000" stroke-width="8" stroke-linecap="round" stroke-linejoin="round" stroke-miterlimit="10" x1="314.671" y1="319.492" x2="276.4" y2="281.22"/>
		</g>
		<g>
			<path fill="none" stroke="#000000" stroke-width="8" stroke-linecap="round" stroke-linejoin="round" stroke-miterlimit="10" d="
				M300.034,164.75c-11.15-14.257-4.813-37.719-1.47-47.406c-14.625-6.85-20.732-17.307-23.156-26.226
				c-5.916,7.096-15.827,14.062-31.981,14.193c-0.987,10.113-4.966,33.781-20.694,42.273c8.482,11.01,15.445,30.254,0.77,50.246
				l8.313,10.202c5.375-4.271,12.617-6.063,19.78-4.221c7.108,1.827,12.556,6.829,15.227,13.096l11.966-5.802
				C273.271,184.639,290.312,170.501,300.034,164.75z"/>
			
				<circle fill="none" stroke="#000000" stroke-width="8" stroke-linecap="round" stroke-linejoin="round" stroke-miterlimit="10" cx="244.998" cy="228.531" r="13.54"/>
			
				<line fill="none" stroke="#000000" stroke-width="8" stroke-linecap="round" stroke-linejoin="round" stroke-miterlimit="10" x1="266.66" y1="147.949" x2="252.653" y2="200.229"/>
		</g>
		<g>
			<path fill="none" stroke="#000000" stroke-width="8" stroke-linecap="round" stroke-linejoin="round" stroke-miterlimit="10" d="
				M141.784,231.225c-6.772,16.785-30.26,23.028-40.321,24.975c1.38,16.091-4.622,26.608-11.134,33.167
				c9.104,1.574,20.091,6.676,28.283,20.601c9.251-4.201,31.739-12.59,46.955-3.215c5.295-12.85,18.479-28.505,43.131-25.79
				l4.677-12.301c-6.385-2.519-11.56-7.893-13.545-15.018c-1.972-7.07-0.363-14.29,3.729-19.735l-11.009-7.462
				C172.39,244.458,151.625,236.771,141.784,231.225z"/>
			
				<circle fill="none" stroke="#000000" stroke-width="8" stroke-linecap="round" stroke-linejoin="round" stroke-miterlimit="10" cx="224.501" cy="246.865" r="13.54"/>
			
				<line fill="none" stroke="#000000" stroke-width="8" stroke-linecap="round" stroke-linejoin="round" stroke-miterlimit="10" x1="143.919" y1="268.528" x2="196.201" y2="254.519"/>
		</g>
	</g>
</g>
<g id="pivot">
	<circle fill="none" cx="227.004" cy="336.131" r="14.133"/>
</g>
</svg>
