<?xml version="1.0" encoding="utf-8"?>
<!-- Generator: Adobe Illustrator 16.0.0, SVG Export Plug-In . SVG Version: 6.00 Build 0)  -->
<!DOCTYPE svg PUBLIC "-//W3C//DTD SVG 1.1//EN" "http://www.w3.org/Graphics/SVG/1.1/DTD/svg11.dtd">
<svg version="1.1" xmlns="http://www.w3.org/2000/svg" xmlns:xlink="http://www.w3.org/1999/xlink" x="0px" y="0px"
	 width="453.544px" height="453.543px" viewBox="0 0 453.544 453.543" enable-background="new 0 0 453.544 453.543"
	 xml:space="preserve">
<g id="kvadrat">
</g>
<g id="bg" display="none">
	<rect x="-10527.448" y="-5337.222" display="inline" width="15266.867" height="13678.951"/>
</g>
<g id="barvno" display="none">
	
		<path display="inline" fill="#E84E1B" stroke="#000000" stroke-width="8" stroke-linecap="round" stroke-linejoin="round" stroke-miterlimit="10" d="
		M343.111,167.14c-16.575-16.278-36.586-24.408-60.005-24.408c-11.874,0-22.825,2.047-32.856,6.145
		c-2.148-3.887-5.27-9.765-9.354-17.65c-5.837-11.461-10.233-18.572-13.195-21.331l-25.798,6.133
		c1.134,2.047,2.82,6.496,5.07,13.347c1.327,3.999,2.254,7.831,2.765,11.514c0.101,0.919,0.251,1.836,0.457,2.762
		c0.1,0.407,0.055,3.176-0.147,8.286c-11.87-6.145-25.022-9.212-39.45-9.212c-23.432,0-43.44,8.133-60.014,24.412
		c-1.121,1.133-2.146,2.207-3.07,3.219c-14.732,19.546-22.1,42.672-22.1,69.377c0,28.653,8.387,53.155,25.166,73.521
		c16.577,20.264,36.586,30.396,60.011,30.396c21.695,0,40.058-1.591,55.108-4.769c16.576,3.178,35.707,4.769,57.408,4.769
		c23.426,0,43.43-10.133,60.005-30.396c16.68-20.365,25.02-44.871,25.02-73.521c0-26.705-7.266-49.831-21.796-69.377
		C345.312,169.35,344.237,168.275,343.111,167.14z M269.752,181.031l20.249,33.306h-40.672L269.752,181.031z M228.76,228
		l15.351,25.014h-30.696L228.76,228z M185.78,181.031l20.268,33.306h-40.677L185.78,181.031z M235.814,317.099v-12.504h-17.491
		v12.047c-58.085,0-82.663-41.238-84.607-51.568c10.538,5.111,59.045,11.669,59.045,11.669v14.341h20.5v-11.281
		c10.02,1.135,20.05,1.187,30.073,0.156v11.125h20.655v-14.344c10.538-2.657,49.484-6.555,60.124-11.675
		C322.168,275.398,294.376,317.099,235.814,317.099z"/>
	<g id="rdeča7bela" display="inline">
	</g>
	
		<rect x="-11037.733" y="-5757.23" display="inline" fill="none" stroke="#000000" stroke-miterlimit="10" width="16736" height="13952"/>
</g>
<g id="sivinsko">
	<g>
		<path fill="#777777" d="M343.111,167.14c-16.575-16.278-36.586-24.408-60.005-24.408c-11.874,0-22.825,2.047-32.856,6.145
			c-2.148-3.887-5.27-9.765-9.354-17.65c-5.837-11.461-10.233-18.572-13.195-21.331l-25.798,6.133
			c1.134,2.047,2.82,6.496,5.07,13.347c1.327,3.999,2.254,7.831,2.765,11.514c0.101,0.919,0.251,1.836,0.457,2.762
			c0.1,0.407,0.055,3.176-0.147,8.286c-11.87-6.145-25.022-9.212-39.45-9.212c-23.432,0-43.44,8.133-60.014,24.412
			c-1.121,1.133-2.146,2.207-3.07,3.219c-14.732,19.546-22.1,42.672-22.1,69.377c0,28.653,8.387,53.155,25.166,73.521
			c16.577,20.264,36.586,30.396,60.011,30.396c21.695,0,40.058-1.591,55.108-4.769c16.576,3.178,35.707,4.769,57.408,4.769
			c23.426,0,43.43-10.133,60.005-30.396c16.68-20.365,25.02-44.871,25.02-73.521c0-26.705-7.266-49.831-21.796-69.377
			C345.312,169.35,344.237,168.275,343.111,167.14z M269.752,181.031l20.249,33.306h-40.672L269.752,181.031z M228.76,228
			l15.351,25.014h-30.696L228.76,228z M185.78,181.031l20.268,33.306h-40.677L185.78,181.031z M235.814,317.099v-12.504h-17.491
			v12.047c-58.085,0-82.663-41.238-84.607-51.568c10.538,5.111,59.045,11.669,59.045,11.669v14.341h20.5v-11.281
			c10.02,1.135,20.05,1.187,30.073,0.156v11.125h20.655v-14.344c10.538-2.657,49.484-6.555,60.124-11.675
			C322.168,275.398,294.376,317.099,235.814,317.099z"/>
		<path d="M283.106,347.648c-21.497,0-40.794-1.578-57.371-4.69c-15.116,3.113-33.662,4.69-55.146,4.69
			c-24.578,0-45.811-10.721-63.106-31.864c-17.296-20.992-26.07-46.583-26.07-76.053c0-27.468,7.706-51.62,22.905-71.785
			c0.076-0.101,0.157-0.198,0.242-0.291c0.959-1.05,2.029-2.171,3.18-3.333c17.306-17,38.439-25.599,62.856-25.599
			c12.772,0,24.732,2.352,35.642,7c0.013-0.856,0.007-1.262,0-1.447c-0.211-0.993-0.365-1.945-0.471-2.892
			c-0.472-3.373-1.343-6.99-2.592-10.75c-2.702-8.229-4.087-11.43-4.772-12.668c-0.606-1.094-0.665-2.409-0.16-3.554
			s1.517-1.986,2.734-2.276l25.798-6.133c1.297-0.309,2.672,0.052,3.651,0.965c3.379,3.147,7.838,10.279,14.033,22.442
			c3.043,5.875,5.6,10.729,7.626,14.48c9.563-3.425,19.981-5.159,31.021-5.159c24.41,0,45.542,8.598,62.808,25.554
			c1.15,1.16,2.212,2.222,3.224,3.215c0.147,0.145,0.284,0.301,0.407,0.468c14.987,20.16,22.586,44.305,22.586,71.763
			c0,29.463-8.723,55.051-25.925,76.055C328.913,336.928,307.683,347.648,283.106,347.648z M225.698,334.88
			c0.252,0,0.504,0.024,0.753,0.072c16.258,3.117,35.319,4.697,56.655,4.697c22.371,0,40.985-9.463,56.909-28.929
			c16.002-19.539,24.115-43.421,24.115-70.988c0-25.589-7.006-48.043-20.823-66.744c-0.968-0.953-1.979-1.965-3.037-3.031
			c-15.679-15.398-34.925-23.225-57.164-23.225c-11.3,0-21.845,1.967-31.344,5.848c-1.875,0.768-4.031,0.008-5.014-1.768
			c-2.247-4.066-5.412-10.037-9.405-17.746c-5.531-10.861-8.938-16.17-11.003-18.736l-18.839,4.479c0.922,2.376,2,5.449,3.271,9.318
			c1.404,4.23,2.391,8.343,2.927,12.212c0.006,0.038,0.01,0.076,0.015,0.114c0.086,0.79,0.212,1.552,0.385,2.328
			c0.143,0.578,0.27,1.099-0.055,9.313c-0.055,1.367-0.804,2.612-1.986,3.299c-1.182,0.688-2.636,0.724-3.85,0.095
			c-11.234-5.815-23.889-8.764-37.611-8.764c-22.245,0-41.494,7.828-57.211,23.266c-0.986,0.998-1.938,1.993-2.793,2.925
			c-14.055,18.716-21.18,41.195-21.18,66.817c0,27.564,8.16,51.444,24.253,70.977c15.934,19.477,34.551,28.94,56.924,28.94
			c21.304,0,39.566-1.575,54.282-4.682C225.145,334.909,225.421,334.88,225.698,334.88z M235.814,321.099c-2.209,0-4-1.791-4-4
			v-8.504h-9.491v8.047c0,2.209-1.791,4-4,4c-32.274,0-53.677-12.433-65.947-22.863c-14.477-12.305-21.441-25.858-22.591-31.966
			c-0.28-1.485,0.301-3,1.502-3.918c1.199-0.917,2.813-1.08,4.175-0.421c8.17,3.963,44.519,9.503,57.835,11.304
			c1.983,0.268,3.464,1.962,3.464,3.964v10.341h12.5v-7.281c0-1.139,0.485-2.225,1.335-2.983s1.983-1.119,3.115-0.991
			c9.687,1.098,19.521,1.148,29.214,0.152c1.135-0.115,2.249,0.251,3.089,1.01c0.841,0.758,1.32,1.837,1.32,2.969v7.125h12.655
			v-10.344c0-1.833,1.245-3.431,3.022-3.878c3.94-0.994,11.324-2.102,19.874-3.385c14.005-2.102,33.184-4.98,39.493-8.016
			c1.359-0.654,2.973-0.488,4.168,0.43c1.197,0.918,1.776,2.432,1.497,3.914C325.84,277.513,297.175,321.099,235.814,321.099z
			 M218.323,300.595h17.491c2.209,0,4,1.791,4,4v8.436c28.035-0.963,47.397-11.924,58.867-21.186
			c9.01-7.274,14.885-14.749,18.194-20.246c-8.942,2.208-21.41,4.079-32.803,5.788c-6.169,0.926-12.073,1.812-16.084,2.581v11.115
			c0,2.209-1.791,4-4,4h-20.655c-2.209,0-4-1.791-4-4v-6.761c-7.363,0.529-14.718,0.491-22.073-0.111v6.873c0,2.209-1.791,4-4,4
			h-20.5c-2.209,0-4-1.791-4-4v-10.856c-9.429-1.33-33.615-4.918-47.971-8.639c7.579,13.526,29.404,39.496,73.533,40.987v-7.98
			C214.323,302.386,216.114,300.595,218.323,300.595z M244.11,257.014h-30.696c-1.448,0-2.783-0.783-3.49-2.046
			c-0.708-1.264-0.677-2.811,0.081-4.045l15.346-25.014c0.727-1.186,2.018-1.908,3.409-1.908c1.391,0,2.682,0.722,3.409,1.908
			l15.351,25.014c0.758,1.234,0.789,2.782,0.081,4.045C246.894,256.231,245.559,257.014,244.11,257.014z M220.561,249.014h16.402
			l-8.202-13.365L220.561,249.014z M290.001,218.337h-40.672c-1.448,0-2.783-0.783-3.49-2.046c-0.707-1.264-0.677-2.811,0.08-4.045
			l20.423-33.306c0.728-1.187,2.02-1.909,3.41-1.909c0.003,0,0.005,0,0.008,0c1.394,0.002,2.686,0.731,3.41,1.922l20.249,33.306
			c0.751,1.235,0.777,2.779,0.068,4.039C292.779,217.557,291.446,218.337,290.001,218.337z M256.474,210.337h26.414l-13.15-21.63
			L256.474,210.337z M206.048,218.337h-40.677c-1.448,0-2.782-0.782-3.49-2.045c-0.707-1.263-0.677-2.81,0.08-4.044l20.409-33.306
			c0.727-1.187,2.019-1.91,3.41-1.91c0.002,0,0.004,0,0.006,0c1.395,0.002,2.687,0.73,3.411,1.92l20.268,33.306
			c0.752,1.235,0.778,2.779,0.07,4.04C208.826,217.557,207.493,218.337,206.048,218.337z M172.514,210.337h26.418l-13.163-21.63
			L172.514,210.337z"/>
	</g>
	<g id="rdeča7bela_copy_3">
	</g>
	<path d="M5698.767,8195.27h-16737v-13953h16737V8195.27z M-11037.733,8194.27h16736l-0.5-13951h-16735.5l0.5,13951H-11037.733z"/>
</g>
<g id="linijsko" display="none">
	
		<path display="inline" fill="none" stroke="#000000" stroke-width="8" stroke-linecap="round" stroke-linejoin="round" stroke-miterlimit="10" d="
		M343.111,167.14c-16.575-16.278-36.586-24.408-60.005-24.408c-11.874,0-22.825,2.047-32.856,6.145
		c-2.148-3.887-5.27-9.765-9.354-17.65c-5.837-11.461-10.233-18.572-13.195-21.331l-25.798,6.133
		c1.134,2.047,2.82,6.496,5.07,13.347c1.327,3.999,2.254,7.831,2.765,11.514c0.101,0.919,0.251,1.836,0.457,2.762
		c0.1,0.407,0.055,3.176-0.147,8.286c-11.87-6.145-25.022-9.212-39.45-9.212c-23.432,0-43.44,8.133-60.014,24.412
		c-1.121,1.133-2.146,2.207-3.07,3.219c-14.732,19.546-22.1,42.672-22.1,69.377c0,28.653,8.387,53.155,25.166,73.521
		c16.577,20.264,36.586,30.396,60.011,30.396c21.695,0,40.058-1.591,55.108-4.769c16.576,3.178,35.707,4.769,57.408,4.769
		c23.426,0,43.43-10.133,60.005-30.396c16.68-20.365,25.02-44.871,25.02-73.521c0-26.705-7.266-49.831-21.796-69.377
		C345.312,169.35,344.237,168.275,343.111,167.14z M269.752,181.031l20.249,33.306h-40.672L269.752,181.031z M228.76,228
		l15.351,25.014h-30.696L228.76,228z M185.78,181.031l20.268,33.306h-40.677L185.78,181.031z M235.814,317.099v-12.504h-17.491
		v12.047c-58.085,0-82.663-41.238-84.607-51.568c10.538,5.111,59.045,11.669,59.045,11.669v14.341h20.5v-11.281
		c10.02,1.135,20.05,1.187,30.073,0.156v11.125h20.655v-14.344c10.538-2.657,49.484-6.555,60.124-11.675
		C322.168,275.398,294.376,317.099,235.814,317.099z"/>
	<g id="rdeča7bela_copy" display="inline">
	</g>
</g>
<g id="pivot">
	<circle fill="none" cx="227.83" cy="331.791" r="14.133"/>
</g>
</svg>
