<?xml version="1.0" encoding="utf-8"?>
<!-- Generator: Adobe Illustrator 16.0.0, SVG Export Plug-In . SVG Version: 6.00 Build 0)  -->
<!DOCTYPE svg PUBLIC "-//W3C//DTD SVG 1.1//EN" "http://www.w3.org/Graphics/SVG/1.1/DTD/svg11.dtd">
<svg version="1.1" xmlns="http://www.w3.org/2000/svg" xmlns:xlink="http://www.w3.org/1999/xlink" x="0px" y="0px"
	 width="453.544px" height="453.543px" viewBox="0 0 453.544 453.543" enable-background="new 0 0 453.544 453.543"
	 xml:space="preserve">
<g id="kvadrat">
</g>
<g id="bg" display="none">
	<rect x="-8996.739" y="-5337.222" display="inline" width="15266.867" height="13678.951"/>
</g>
<g id="barvno" display="none">
	<g display="inline">
		<path stroke="#000000" stroke-width="8" stroke-linecap="round" stroke-linejoin="round" stroke-miterlimit="10" d="
			M375.931,333.33h-66.572l-4.691-14.093H148.874l-4.693,14.093H77.614c0,0-13.029,35.718,149.156,35.718
			C388.958,369.048,375.931,333.33,375.931,333.33z"/>
		<g>
			<polygon stroke="#000000" stroke-width="8" stroke-linecap="round" stroke-linejoin="round" stroke-miterlimit="10" points="
				211.614,320.177 211.614,302.298 153.196,302.298 147.239,320.177 			"/>
			<polygon stroke="#000000" stroke-width="8" stroke-linecap="round" stroke-linejoin="round" stroke-miterlimit="10" points="
				242.267,320.177 306.241,320.177 300.14,302.298 242.267,302.298 			"/>
			<polygon stroke="#000000" stroke-width="8" stroke-linecap="round" stroke-linejoin="round" stroke-miterlimit="10" points="
				143.587,331.14 310.296,332.059 308.97,328.177 144.573,328.177 			"/>
			
				<rect x="219.614" y="304.369" stroke="#000000" stroke-width="8" stroke-linecap="round" stroke-linejoin="round" stroke-miterlimit="10" width="14.652" height="13.736"/>
			<path stroke="#000000" stroke-width="8" stroke-linecap="round" stroke-linejoin="round" stroke-miterlimit="10" d="
				M257.226,176.532l31.893-82.451c1.219-3.143,0.047-6.693-2.785-8.498c-2.84-1.788-6.568-1.337-8.896,1.102l-79.631,83.844
				c-0.703,0.746-1.254,1.649-1.578,2.623l-40.365,121.146h141.547L257.226,176.532z"/>
			<path fill="#9C9B9B" d="M243.081,320.646v-18.818h60.91l-2.873-8.42H152.14l-2.807,8.42h61.486v18.818h-67.756l-2.807,8.42
				h173.029l-2.873-8.42H243.081z M234.661,318.466h-15.422v-14.458h15.422V318.466z"/>
		</g>
	</g>
	<g id="rdeča7bela" display="inline">
	</g>
	
		<rect x="-9507.024" y="-5757.23" display="inline" fill="none" stroke="#000000" stroke-miterlimit="10" width="16736" height="13952"/>
</g>
<g id="sivinsko">
	<g>
		<g>
			<path d="M375.931,333.33h-66.572l-4.691-14.093H148.874l-4.693,14.093H77.614c0,0-13.029,35.718,149.156,35.718
				C388.958,369.048,375.931,333.33,375.931,333.33z"/>
			<path d="M226.771,373.048c-107.548,0-141.092-15.678-150.294-28.831c-4.53-6.475-2.829-11.685-2.62-12.258
				c0.576-1.579,2.077-2.629,3.758-2.629h63.683l3.782-11.356c0.544-1.634,2.073-2.736,3.795-2.736h155.793
				c1.723,0,3.251,1.103,3.795,2.737l3.78,11.356h63.688c1.681,0,3.182,1.051,3.758,2.629c0.209,0.573,1.91,5.783-2.62,12.258
				C367.865,357.37,334.319,373.048,226.771,373.048z M81.791,337.33c0.302,0.808,0.807,1.766,1.635,2.837
				c5.782,7.481,31.325,24.88,143.345,24.88c112.021,0,137.565-17.4,143.348-24.88c0.829-1.072,1.333-2.029,1.636-2.837h-62.396
				c-1.723,0-3.251-1.103-3.795-2.737l-3.78-11.356H151.758l-3.782,11.356c-0.544,1.634-2.073,2.736-3.795,2.736H81.791z"/>
		</g>
		<g>
			<g>
				<polygon points="211.614,320.177 211.614,302.298 153.196,302.298 147.239,320.177 				"/>
				<path d="M211.614,324.177h-64.375c-1.286,0-2.493-0.618-3.245-1.661s-0.956-2.383-0.55-3.604l5.957-17.879
					c0.544-1.633,2.073-2.735,3.795-2.735h58.418c2.209,0,4,1.791,4,4v17.879C215.614,322.386,213.823,324.177,211.614,324.177z
					 M152.788,316.177h54.826v-9.879H156.08L152.788,316.177z"/>
			</g>
			<g>
				<polygon points="242.267,320.177 306.241,320.177 300.14,302.298 242.267,302.298 				"/>
				<path d="M306.241,324.177h-63.975c-2.209,0-4-1.791-4-4v-17.879c0-2.209,1.791-4,4-4h57.873c1.711,0,3.233,1.088,3.785,2.708
					l6.102,17.879c0.417,1.222,0.219,2.569-0.532,3.619S307.532,324.177,306.241,324.177z M246.267,316.177h54.383l-3.371-9.879
					h-51.012V316.177z"/>
			</g>
			<g>
				<polygon points="143.587,331.14 310.296,332.059 308.97,328.177 144.573,328.177 				"/>
				<path d="M310.296,336.059c-0.008,0-0.015,0-0.022,0l-166.709-0.919c-1.281-0.007-2.481-0.628-3.229-1.669
					s-0.949-2.378-0.544-3.594l0.986-2.962c0.544-1.634,2.072-2.737,3.795-2.737H308.97c1.711,0,3.232,1.088,3.785,2.707
					l1.326,3.882c0.419,1.225,0.218,2.578-0.538,3.628C312.791,335.439,311.582,336.059,310.296,336.059z"/>
			</g>
			<g>
				<rect x="219.614" y="304.369" width="14.652" height="13.736"/>
				<path d="M234.267,322.105h-14.652c-2.209,0-4-1.791-4-4v-13.736c0-2.209,1.791-4,4-4h14.652c2.209,0,4,1.791,4,4v13.736
					C238.267,320.314,236.476,322.105,234.267,322.105z M223.614,314.105h6.652v-5.736h-6.652V314.105z"/>
			</g>
			<g>
				<path d="M257.226,176.532l31.893-82.451c1.219-3.143,0.047-6.693-2.785-8.498c-2.84-1.788-6.568-1.337-8.896,1.102
					l-79.631,83.844c-0.703,0.746-1.254,1.649-1.578,2.623l-40.365,121.146h141.547L257.226,176.532z"/>
				<path d="M297.409,298.298H155.862c-1.286,0-2.493-0.618-3.245-1.661s-0.956-2.384-0.55-3.604l40.365-121.146
					c0.502-1.506,1.354-2.925,2.462-4.102l79.642-83.855c2.087-2.186,5.01-3.435,8.026-3.435c2.092,0,4.133,0.589,5.901,1.703
					c4.446,2.833,6.282,8.434,4.384,13.329l-31.366,81.09l39.714,116.388c0.416,1.222,0.218,2.569-0.533,3.619
					S298.7,298.298,297.409,298.298z M161.411,290.298h130.406l-38.378-112.474c-0.303-0.89-0.283-1.858,0.056-2.735l31.893-82.451
					c0.525-1.355,0.019-2.903-1.204-3.682c-0.473-0.297-1.039-0.46-1.621-0.46c-0.854,0-1.647,0.338-2.232,0.951l-79.624,83.836
					c-0.302,0.32-0.548,0.727-0.684,1.132L161.411,290.298z"/>
			</g>
			<path fill="#9B9B9B" d="M243.081,320.646v-18.818h60.91l-2.873-8.42H152.14l-2.807,8.42h61.486v18.818h-67.756l-2.807,8.42
				h173.029l-2.873-8.42H243.081z M234.661,318.466h-15.422v-14.458h15.422V318.466z"/>
		</g>
	</g>
	<g id="rdeča7bela_copy_3">
	</g>
	<path d="M7229.476,8195.27h-16737v-13953h16737V8195.27z M-9507.024,8194.27h16736l-0.5-13951h-16735.5l0.5,13951H-9507.024z"/>
</g>
<g id="linijsko" display="none">
	<g display="inline">
		<path fill="none" stroke="#000000" stroke-width="8" stroke-linecap="round" stroke-linejoin="round" stroke-miterlimit="10" d="
			M375.931,333.33h-66.572l-4.691-14.093H148.874l-4.693,14.093H77.614c0,0-13.029,35.718,149.156,35.718
			C388.958,369.048,375.931,333.33,375.931,333.33z"/>
		<g>
			<path fill="none" stroke="#000000" stroke-width="8" stroke-linecap="round" stroke-linejoin="round" stroke-miterlimit="10" d="
				M257.226,176.532l31.893-82.451c1.219-3.143,0.047-6.693-2.785-8.498c-2.84-1.788-6.568-1.337-8.896,1.102l-79.631,83.844
				c-0.703,0.746-1.254,1.649-1.578,2.623l-47.672,146.952h156.841L257.226,176.532z"/>
		</g>
	</g>
	<g id="rdeča7bela_copy" display="inline">
	</g>
	<path display="inline" d="M242.626,315.646v-18.818h57.209l-2.793-8.42H156.224l-2.729,8.42h57.77v18.818h-63.863l-2.729,8.42
		H308.87l-2.793-8.42H242.626z M234.44,313.466h-14.991v-14.458h14.991V313.466z"/>
</g>
<g id="pivot">
	<circle fill="none" cx="229.315" cy="372.3" r="14.133"/>
</g>
</svg>
