<?xml version="1.0" encoding="utf-8"?>
<!-- Generator: Adobe Illustrator 16.0.0, SVG Export Plug-In . SVG Version: 6.00 Build 0)  -->
<!DOCTYPE svg PUBLIC "-//W3C//DTD SVG 1.1//EN" "http://www.w3.org/Graphics/SVG/1.1/DTD/svg11.dtd">
<svg version="1.1" xmlns="http://www.w3.org/2000/svg" xmlns:xlink="http://www.w3.org/1999/xlink" x="0px" y="0px"
	 width="453.544px" height="453.543px" viewBox="0 0 453.544 453.543" enable-background="new 0 0 453.544 453.543"
	 xml:space="preserve">
<g id="kvadrat">
</g>
<g id="bg" display="none">
	<rect x="-9506.976" y="-5337.222" display="inline" width="15266.867" height="13678.951"/>
</g>
<g id="barvno" display="none">
	<g display="inline">
		
			<ellipse fill="#E69F00" stroke="#000000" stroke-width="8" stroke-linecap="round" stroke-linejoin="round" stroke-miterlimit="10" cx="226.771" cy="226.771" rx="107.843" ry="145.248"/>
		<g>
			<path fill="none" stroke="#000000" stroke-width="8" stroke-linecap="round" stroke-linejoin="round" stroke-miterlimit="10" d="
				M122.79,190.907c5.194,2.39,6.684,15.133,12.73,17.147c5.502,1.833,14.462-7.389,20.58-5.904c5.69,1.38,9.34,13.7,15.49,14.749
				c5.813,0.991,13.381-9.397,19.545-8.728c5.894,0.641,11.024,12.426,17.187,12.751c5.945,0.313,12.302-10.856,18.45-10.856
				s12.504,11.17,18.449,10.856c6.162-0.325,11.292-12.11,17.186-12.75c6.164-0.669,13.732,9.719,19.545,8.728
				c6.152-1.049,9.801-13.369,15.492-14.75c6.117-1.483,15.078,7.737,20.581,5.904c6.047-2.014,7.535-14.757,12.729-17.146"/>
		</g>
		<g>
			<path fill="none" stroke="#000000" stroke-width="8" stroke-linecap="round" stroke-linejoin="round" stroke-miterlimit="10" d="
				M121.599,235.07c5.254,2.417,6.807,15.185,12.924,17.222c5.563,1.853,14.588-7.35,20.773-5.849
				c5.754,1.396,9.47,13.729,15.689,14.79c5.878,1.002,13.513-9.377,19.745-8.701c5.96,0.647,11.157,12.439,17.39,12.767
				c6.012,0.317,12.436-10.851,18.652-10.851s12.641,11.168,18.652,10.851c6.23-0.328,11.429-12.12,17.388-12.767
				c6.233-0.677,13.868,9.703,19.747,8.7c6.221-1.06,9.936-13.395,15.69-14.79c6.188-1.5,15.212,7.702,20.776,5.849
				c6.115-2.037,7.667-14.804,12.92-17.22"/>
		</g>
		<g>
			<path fill="none" stroke="#000000" stroke-width="8" stroke-linecap="round" stroke-linejoin="round" stroke-miterlimit="10" d="
				M122.79,212.96c5.194,2.39,6.684,15.133,12.73,17.147c5.502,1.833,14.461-7.389,20.58-5.905c5.689,1.38,9.34,13.7,15.49,14.749
				c5.813,0.991,13.381-9.397,19.545-8.728c5.894,0.641,11.024,12.426,17.187,12.751c5.945,0.313,12.302-10.856,18.45-10.856
				s12.504,11.17,18.449,10.856c6.162-0.325,11.292-12.11,17.187-12.751c6.164-0.669,13.731,9.719,19.544,8.728
				c6.152-1.048,9.802-13.369,15.492-14.749c6.119-1.484,15.078,7.737,20.58,5.904c6.047-2.014,7.536-14.757,12.73-17.146"/>
		</g>
		<g>
			
				<path fill="#D45F14" stroke="#000000" stroke-width="8" stroke-linecap="round" stroke-linejoin="round" stroke-miterlimit="10" d="
				M127.737,284.333c16.549,51.583,54.658,87.687,99.035,87.687c44.375,0,82.484-36.103,99.035-87.687
				c-23.309,12.079-59.008,19.809-99.035,19.809S151.044,296.412,127.737,284.333z"/>
			
				<path fill="#D45F14" stroke="#000000" stroke-width="8" stroke-linecap="round" stroke-linejoin="round" stroke-miterlimit="10" d="
				M320.923,155.908c-18.455-44.381-53.697-74.385-94.15-74.385s-75.697,30.004-94.15,74.385c23.26,10.701,56.826,17.42,94.15,17.42
				C264.095,173.328,297.661,166.609,320.923,155.908z"/>
		</g>
	</g>
	<g id="rdeča7bela" display="inline">
	</g>
	
		<rect x="-10017.261" y="-5757.23" display="inline" fill="none" stroke="#000000" stroke-miterlimit="10" width="16736" height="13952"/>
</g>
<g id="sivinsko">
	<g>
		<g>
			<ellipse fill="#A3A3A3" cx="226.771" cy="226.771" rx="107.843" ry="145.248"/>
			<path d="M226.772,376.02c-30.104,0-58.326-15.682-79.469-44.157c-20.877-28.119-32.375-65.44-32.375-105.091
				c0-39.65,11.498-76.972,32.375-105.09c21.143-28.476,49.365-44.158,79.469-44.158c30.103,0,58.324,15.682,79.467,44.158
				c20.877,28.119,32.375,65.44,32.375,105.09s-11.498,76.972-32.375,105.09C285.098,360.337,256.875,376.02,226.772,376.02z
				 M226.772,85.523c-57.26,0-103.844,63.364-103.844,141.248S169.513,368.02,226.772,368.02
				c57.259,0,103.842-63.364,103.842-141.248S284.031,85.523,226.772,85.523z"/>
		</g>
		<path d="M244.956,224.928c-4.415,0-8.063-3.239-11.595-6.376c-2.133-1.894-5.053-4.487-6.589-4.487s-4.457,2.593-6.59,4.487
			c-3.658,3.248-7.449,6.598-12.07,6.364c-4.801-0.253-8.44-4.257-11.652-7.79c-1.853-2.039-4.391-4.831-5.757-4.979
			c-1.561-0.16-4.783,2.097-7.13,3.751c-3.986,2.812-8.103,5.721-12.655,4.943c-4.817-0.821-7.974-5.291-10.759-9.234
			c-1.479-2.094-3.713-5.258-5.002-5.57c-1.602-0.393-5.006,1.348-7.735,2.746c-4.334,2.219-8.816,4.515-13.165,3.066
			c-4.814-1.604-7.217-6.674-9.336-11.148c-1.064-2.246-2.673-5.64-3.803-6.16c-2.007-0.923-2.886-3.299-1.962-5.306
			c0.922-2.006,3.295-2.887,5.306-1.962c3.771,1.735,5.763,5.938,7.688,10.002c1.291,2.726,3.06,6.459,4.634,6.983
			c1.167,0.384,4.812-1.481,6.992-2.597c4.11-2.105,8.769-4.491,13.268-3.399c4.206,1.021,6.974,4.939,9.65,8.73
			c1.698,2.405,4.025,5.7,5.568,5.963c1.297,0.213,4.544-2.076,6.701-3.596c3.947-2.784,8.033-5.662,12.604-5.166
			c4.382,0.476,7.651,4.073,10.813,7.551c1.957,2.153,4.638,5.102,6.153,5.182c1.325,0.081,4.352-2.593,6.338-4.357
			c3.602-3.198,7.326-6.505,11.901-6.505s8.3,3.307,11.9,6.505c1.986,1.763,5.031,4.444,6.338,4.356
			c1.516-0.08,4.195-3.028,6.152-5.182c3.161-3.478,6.431-7.075,10.813-7.551c4.56-0.494,8.655,2.382,12.604,5.166
			c2.155,1.519,5.393,3.821,6.701,3.595c1.545-0.263,3.871-3.558,5.57-5.963c2.677-3.79,5.444-7.709,9.65-8.73
			c4.5-1.088,9.156,1.295,13.267,3.399c2.179,1.116,5.813,2.986,6.994,2.597c1.574-0.524,3.342-4.257,4.634-6.983
			c1.925-4.064,3.916-8.268,7.688-10.002c2.011-0.926,4.383-0.044,5.306,1.962c0.924,2.007,0.045,4.382-1.962,5.306
			c-1.13,0.52-2.738,3.914-3.802,6.16c-2.119,4.474-4.521,9.544-9.336,11.147c-4.35,1.452-8.831-0.847-13.168-3.066
			c-2.729-1.397-6.128-3.133-7.734-2.746c-1.289,0.313-3.523,3.477-5.002,5.571c-2.785,3.943-5.941,8.413-10.761,9.234
			c-4.547,0.775-8.667-2.132-12.654-4.943c-2.348-1.655-5.548-3.916-7.131-3.751c-1.365,0.148-3.903,2.94-5.756,4.979
			c-3.211,3.533-6.851,7.537-11.65,7.79C245.272,224.924,245.113,224.928,244.956,224.928z"/>
		<path d="M245.154,269.307c-4.435,0-8.113-3.231-11.676-6.359c-2.163-1.899-5.124-4.499-6.706-4.499s-4.543,2.6-6.706,4.499
			c-3.689,3.24-7.484,6.593-12.157,6.347c-4.824-0.254-8.5-4.254-11.743-7.782c-1.881-2.047-4.457-4.85-5.867-5.003
			c-1.616-0.188-4.737,2.001-7.247,3.75c-4.018,2.8-8.174,5.696-12.738,4.917c-4.842-0.826-8.035-5.295-10.854-9.239
			c-1.594-2.23-3.775-5.285-5.106-5.607c-1.651-0.399-5.092,1.334-7.852,2.729c-4.364,2.205-8.878,4.484-13.244,3.028
			c-4.839-1.611-7.28-6.689-9.434-11.17c-1.087-2.26-2.729-5.676-3.897-6.213c-2.007-0.923-2.886-3.298-1.962-5.306
			c0.923-2.006,3.294-2.887,5.306-1.962c3.786,1.742,5.809,5.948,7.764,10.015c1.319,2.745,3.127,6.504,4.752,7.046
			c1.21,0.403,4.758-1.393,7.108-2.579c4.137-2.09,8.823-4.46,13.345-3.362c4.224,1.024,7.022,4.942,9.73,8.731
			c1.728,2.419,4.095,5.731,5.688,6.003c1.35,0.22,4.636-2.073,6.82-3.595c3.978-2.772,8.09-5.644,12.685-5.14
			c4.4,0.478,7.701,4.069,10.894,7.542c1.988,2.163,4.711,5.125,6.274,5.207c0.02,0.001,0.039,0.001,0.058,0.001
			c1.424,0,4.413-2.625,6.4-4.37c3.633-3.19,7.389-6.488,11.984-6.488s8.352,3.298,11.984,6.488c1.987,1.745,4.977,4.37,6.399,4.37
			c0.02,0,0.039,0,0.058-0.001c1.563-0.082,4.286-3.044,6.273-5.207c3.192-3.473,6.493-7.064,10.894-7.542
			c4.604-0.497,8.707,2.367,12.685,5.139c2.185,1.522,5.477,3.819,6.822,3.595c1.593-0.272,3.96-3.584,5.688-6.003
			c2.707-3.789,5.507-7.707,9.731-8.731c4.518-1.094,9.207,1.272,13.345,3.362c2.353,1.188,5.908,2.976,7.11,2.579
			c1.624-0.541,3.43-4.3,4.749-7.044c1.955-4.068,3.977-8.274,7.763-10.016c2.01-0.922,4.383-0.044,5.306,1.963
			c0.924,2.007,0.045,4.382-1.962,5.305c-1.168,0.538-2.81,3.953-3.896,6.213c-2.153,4.479-4.594,9.557-9.433,11.168
			c-4.367,1.458-8.882-0.825-13.244-3.028c-2.762-1.395-6.191-3.132-7.854-2.729c-1.331,0.323-3.514,3.377-5.107,5.607
			c-2.817,3.944-6.011,8.414-10.854,9.239c-4.567,0.779-8.722-2.117-12.739-4.917c-2.51-1.748-5.639-3.94-7.248-3.75
			c-1.409,0.153-3.985,2.956-5.866,5.003c-3.243,3.529-6.92,7.528-11.743,7.782C245.474,269.303,245.313,269.307,245.154,269.307z"
			/>
		<path d="M244.956,246.981c-4.415,0-8.063-3.239-11.595-6.376c-2.133-1.894-5.053-4.487-6.589-4.487s-4.457,2.593-6.59,4.487
			c-3.658,3.248-7.449,6.593-12.07,6.364c-4.801-0.253-8.44-4.257-11.652-7.79c-1.853-2.039-4.391-4.831-5.757-4.979
			c-1.561-0.16-4.783,2.097-7.13,3.751c-3.986,2.811-8.103,5.725-12.655,4.943c-4.817-0.821-7.974-5.291-10.759-9.234
			c-1.479-2.094-3.713-5.258-5.001-5.57c-1.613-0.393-5.007,1.348-7.736,2.746c-4.335,2.22-8.816,4.516-13.165,3.066
			c-4.814-1.604-7.217-6.674-9.336-11.148c-1.064-2.246-2.673-5.64-3.803-6.16c-2.007-0.923-2.886-3.299-1.962-5.306
			c0.922-2.005,3.295-2.886,5.306-1.962c3.771,1.735,5.763,5.938,7.688,10.002c1.291,2.726,3.06,6.459,4.634,6.983
			c1.155,0.383,4.81-1.481,6.991-2.597c4.11-2.105,8.765-4.492,13.269-3.4c4.205,1.02,6.973,4.939,9.65,8.729
			c1.698,2.406,4.025,5.7,5.569,5.964c1.284,0.214,4.545-2.077,6.7-3.596c3.947-2.784,8.033-5.667,12.604-5.166
			c4.382,0.476,7.651,4.073,10.813,7.551c1.957,2.153,4.638,5.102,6.153,5.182c1.325,0.047,4.352-2.593,6.338-4.357
			c3.602-3.198,7.326-6.505,11.901-6.505s8.3,3.307,11.9,6.505c1.986,1.763,5.031,4.41,6.338,4.356
			c1.515-0.08,4.195-3.028,6.152-5.181c3.162-3.479,6.431-7.076,10.813-7.552c4.572-0.499,8.655,2.382,12.604,5.166
			c2.156,1.52,5.424,3.814,6.699,3.596c1.546-0.264,3.872-3.558,5.571-5.964c2.677-3.791,5.445-7.709,9.651-8.729
			c4.495-1.093,9.157,1.294,13.268,3.4c2.18,1.116,5.823,2.979,6.991,2.597c1.574-0.524,3.343-4.257,4.634-6.983
			c1.926-4.064,3.917-8.268,7.688-10.002c2.011-0.925,4.383-0.044,5.306,1.962c0.924,2.007,0.045,4.382-1.962,5.306
			c-1.13,0.52-2.738,3.914-3.803,6.16c-2.119,4.474-4.521,9.544-9.336,11.147c-4.351,1.448-8.83-0.847-13.165-3.066
			c-2.729-1.398-6.133-3.14-7.735-2.746c-1.289,0.313-3.523,3.477-5.002,5.57c-2.785,3.944-5.942,8.414-10.762,9.235
			c-4.548,0.775-8.668-2.133-12.654-4.944c-2.347-1.655-5.548-3.905-7.13-3.751c-1.366,0.148-3.903,2.94-5.757,4.979
			c-3.211,3.533-6.851,7.537-11.65,7.79C245.272,246.977,245.113,246.981,244.956,246.981z"/>
		<g>
			<g>
				<path fill="#7A7A7A" d="M127.737,284.333c16.549,51.583,54.658,87.687,99.035,87.687c44.375,0,82.484-36.103,99.035-87.687
					c-23.309,12.079-59.008,19.809-99.035,19.809S151.044,296.412,127.737,284.333z"/>
				<path d="M226.772,376.02c-44.845,0-85.213-35.509-102.844-90.464c-0.495-1.543-0.011-3.232,1.227-4.277
					c1.238-1.046,2.984-1.242,4.423-0.496c23.739,12.303,59.165,19.36,97.194,19.36c38.027,0,73.453-7.057,97.194-19.36
					c1.441-0.746,3.186-0.549,4.423,0.496c1.237,1.045,1.722,2.734,1.227,4.277C311.984,340.51,271.615,376.02,226.772,376.02z
					 M134.67,291.997c17.823,46.49,53.225,76.022,92.103,76.022c38.876,0,74.278-29.532,92.103-76.022
					c-24.328,10.321-57.229,16.145-92.103,16.145C191.897,308.142,158.996,302.318,134.67,291.997z"/>
			</g>
			<g>
				<path fill="#7A7A7A" d="M320.923,155.908c-18.455-44.381-53.697-74.385-94.15-74.385s-75.697,30.004-94.15,74.385
					c23.26,10.701,56.826,17.42,94.15,17.42C264.095,173.328,297.661,166.609,320.923,155.908z"/>
				<path d="M226.772,177.328c-36.328,0-71.254-6.483-95.822-17.786c-1.954-0.899-2.848-3.183-2.021-5.169
					c19.709-47.402,57.201-76.849,97.844-76.849c40.641,0,78.133,29.447,97.844,76.849c0.826,1.986-0.067,4.271-2.021,5.169
					C298.024,170.845,263.099,177.328,226.772,177.328z M137.862,153.848c23.326,9.864,55.437,15.48,88.91,15.48
					c33.472,0,65.582-5.616,88.91-15.48c-18.795-42.252-52.58-68.325-88.91-68.325C190.441,85.523,156.655,111.596,137.862,153.848z
					"/>
			</g>
		</g>
	</g>
	<g id="rdeča7bela_copy_3">
	</g>
	<path d="M6719.239,8195.27h-16737v-13953h16737V8195.27z M-10017.261,8194.27h16736l-0.5-13951h-16735.5l0.5,13951H-10017.261z"/>
</g>
<g id="linijsko" display="none">
	<g display="inline">
		
			<ellipse fill="none" stroke="#000000" stroke-width="8" stroke-linecap="round" stroke-linejoin="round" stroke-miterlimit="10" cx="226.771" cy="226.771" rx="107.843" ry="145.248"/>
		<g>
			<path fill="none" stroke="#000000" stroke-width="8" stroke-linecap="round" stroke-linejoin="round" stroke-miterlimit="10" d="
				M122.79,190.907c5.194,2.39,6.684,15.133,12.73,17.147c5.502,1.833,14.462-7.389,20.58-5.904c5.69,1.38,9.34,13.7,15.49,14.749
				c5.813,0.991,13.381-9.397,19.545-8.728c5.894,0.641,11.024,12.426,17.187,12.751c5.945,0.313,12.302-10.856,18.45-10.856
				s12.504,11.17,18.449,10.856c6.162-0.325,11.292-12.11,17.186-12.75c6.164-0.669,13.732,9.719,19.545,8.728
				c6.152-1.049,9.801-13.369,15.492-14.75c6.117-1.483,15.078,7.737,20.581,5.904c6.047-2.014,7.535-14.757,12.729-17.146"/>
		</g>
		<g>
			<path fill="none" stroke="#000000" stroke-width="8" stroke-linecap="round" stroke-linejoin="round" stroke-miterlimit="10" d="
				M121.599,235.07c5.254,2.417,6.807,15.185,12.924,17.222c5.563,1.853,14.588-7.35,20.773-5.849
				c5.754,1.396,9.47,13.729,15.689,14.79c5.878,1.002,13.513-9.377,19.745-8.701c5.96,0.647,11.157,12.439,17.39,12.767
				c6.012,0.317,12.436-10.851,18.652-10.851s12.641,11.168,18.652,10.851c6.23-0.328,11.429-12.12,17.388-12.767
				c6.233-0.677,13.868,9.703,19.747,8.7c6.221-1.06,9.936-13.395,15.69-14.79c6.188-1.5,15.212,7.702,20.776,5.849
				c6.115-2.037,7.667-14.804,12.92-17.22"/>
		</g>
		<g>
			<path fill="none" stroke="#000000" stroke-width="8" stroke-linecap="round" stroke-linejoin="round" stroke-miterlimit="10" d="
				M122.79,212.96c5.194,2.39,6.684,15.133,12.73,17.147c5.502,1.833,14.461-7.389,20.58-5.905c5.689,1.38,9.34,13.7,15.49,14.749
				c5.813,0.991,13.381-9.397,19.545-8.728c5.894,0.641,11.024,12.426,17.187,12.751c5.945,0.313,12.302-10.856,18.45-10.856
				s12.504,11.17,18.449,10.856c6.162-0.325,11.292-12.11,17.187-12.751c6.164-0.669,13.731,9.719,19.544,8.728
				c6.152-1.048,9.802-13.369,15.492-14.749c6.119-1.484,15.078,7.737,20.58,5.904c6.047-2.014,7.536-14.757,12.73-17.146"/>
		</g>
		<g>
			<path fill="none" stroke="#000000" stroke-width="8" stroke-linecap="round" stroke-linejoin="round" stroke-miterlimit="10" d="
				M127.737,284.333c16.549,51.583,54.658,87.687,99.035,87.687c44.375,0,82.484-36.103,99.035-87.687
				c-23.309,12.079-59.008,19.809-99.035,19.809S151.044,296.412,127.737,284.333z"/>
			<path fill="none" stroke="#000000" stroke-width="8" stroke-linecap="round" stroke-linejoin="round" stroke-miterlimit="10" d="
				M320.923,155.908c-18.455-44.381-53.697-74.385-94.15-74.385s-75.697,30.004-94.15,74.385c23.26,10.701,56.826,17.42,94.15,17.42
				C264.095,173.328,297.661,166.609,320.923,155.908z"/>
		</g>
	</g>
	<g id="rdeča7bela_copy" display="inline">
	</g>
</g>
<g id="pivot">
	<circle fill="none" cx="231.23" cy="365.066" r="14.133"/>
</g>
</svg>
