<?xml version="1.0" encoding="utf-8"?>
<!-- Generator: Adobe Illustrator 16.0.0, SVG Export Plug-In . SVG Version: 6.00 Build 0)  -->
<!DOCTYPE svg PUBLIC "-//W3C//DTD SVG 1.1//EN" "http://www.w3.org/Graphics/SVG/1.1/DTD/svg11.dtd">
<svg version="1.1" xmlns="http://www.w3.org/2000/svg" xmlns:xlink="http://www.w3.org/1999/xlink" x="0px" y="0px"
	 width="453.544px" height="453.543px" viewBox="0 0 453.544 453.543" enable-background="new 0 0 453.544 453.543"
	 xml:space="preserve">
<g id="kvadrat">
</g>
<g id="bg" display="none">
	<rect x="-7466.03" y="-5337.222" display="inline" width="15266.867" height="13678.951"/>
</g>
<g id="barvno" display="none">
	<g display="inline">
		
			<ellipse fill="#FFFFFF" stroke="#000000" stroke-width="8" stroke-linecap="round" stroke-linejoin="round" stroke-miterlimit="10" cx="124.146" cy="260.21" rx="24.789" ry="19.348"/>
		
			<ellipse fill="#FFFFFF" stroke="#000000" stroke-width="8" stroke-linecap="round" stroke-linejoin="round" stroke-miterlimit="10" cx="329.398" cy="260.21" rx="24.789" ry="19.348"/>
		<g>
			<g>
				<path d="M236.571,284.477c0,3.914-3.402,7.086-7.613,7.086c-4.203,0-7.613-3.172-7.613-7.086c0-3.903,3.41-7.073,7.613-7.073
					C233.169,277.403,236.571,280.574,236.571,284.477z"/>
			</g>
		</g>
		<g>
			<g>
				<path d="M236.571,318.184c0,3.915-3.402,7.086-7.613,7.086c-4.203,0-7.613-3.171-7.613-7.086c0-3.902,3.41-7.071,7.613-7.071
					C233.169,311.112,236.571,314.281,236.571,318.184z"/>
			</g>
		</g>
		
			<path fill="#FFFFFF" stroke="#000000" stroke-width="8" stroke-linecap="round" stroke-linejoin="round" stroke-miterlimit="10" d="
			M176.472,208.288c-32.117,13.953-52.299,40.708-52.299,71.376c0,45.024,5.117,109.624,104.608,109.624
			s104.616-64.6,104.616-109.624c0-30.729-19.471-57.535-51.697-71.463c-14.356,7.604-34.23,12.077-53.09,12.077
			C209.81,220.278,190.8,215.836,176.472,208.288z"/>
		
			<circle stroke="#000000" stroke-width="8" stroke-linecap="round" stroke-linejoin="round" stroke-miterlimit="10" cx="229.087" cy="266.064" r="7.484"/>
		
			<circle stroke="#000000" stroke-width="8" stroke-linecap="round" stroke-linejoin="round" stroke-miterlimit="10" cx="229.087" cy="299.477" r="7.484"/>
		
			<circle stroke="#000000" stroke-width="8" stroke-linecap="round" stroke-linejoin="round" stroke-miterlimit="10" cx="229.087" cy="332.89" r="7.484"/>
		
			<path fill="#FFFFFF" stroke="#000000" stroke-width="8" stroke-linecap="round" stroke-linejoin="round" stroke-miterlimit="10" d="
			M229.081,117.837c-36.864,0-66.861,25.073-66.861,55.895c0,14.137,6.357,27.027,16.738,36.88c0,0,10.832,14.692,46.592,14.692
			s55.505-16.461,55.505-16.461c9.3-9.609,14.901-21.818,14.901-35.111C295.96,142.908,265.958,117.837,229.081,117.837z"/>
		
			<path fill="#EE7D00" stroke="#000000" stroke-width="8" stroke-linecap="round" stroke-linejoin="round" stroke-miterlimit="10" d="
			M194.771,208.377c-2.135-2.937,21.072-32.87,27.381-32.865c6.309,0.004,13.797,12.451,12.332,16.97
			C233.021,197.001,196.904,211.313,194.771,208.377z"/>
		<g>
			<g>
				<path d="M242.063,148.549c4.313,0,7.776,4.278,7.776,9.559c0,5.287-3.477,9.573-7.776,9.573c-4.278,0-7.769-4.287-7.769-9.573
					C234.286,152.827,237.784,148.549,242.063,148.549z"/>
			</g>
		</g>
		<g>
			<g>
				<ellipse cx="209.647" cy="157.517" rx="7.777" ry="9.567"/>
			</g>
		</g>
		<g>
			
				<path fill="#E20613" stroke="#000000" stroke-width="8" stroke-linecap="round" stroke-linejoin="round" stroke-miterlimit="10" d="
				M179.405,121.362c0.977,0,1.773-0.797,1.773-1.767C181.179,120.565,180.382,121.358,179.405,121.362z"/>
			
				<path fill="#E20613" stroke="#000000" stroke-width="8" stroke-linecap="round" stroke-linejoin="round" stroke-miterlimit="10" d="
				M293.026,122.659h-8.155V90.963c0-14.749-11.94-26.708-26.698-26.708h-56.589c-14.753,0-26.707,11.958-26.707,26.708v26.857
				v4.839h-12.231c-3.733,0-6.789,3.034-6.789,6.787c0,3.749,3.056,6.789,6.789,6.789h12.231h109.994h8.155
				c3.77,0,6.789-3.04,6.789-6.789C299.815,125.692,296.786,122.659,293.026,122.659z"/>
		</g>
	</g>
	<g id="rdeča7bela" display="inline">
	</g>
	
		<rect x="-7976.315" y="-5757.23" display="inline" fill="none" stroke="#000000" stroke-miterlimit="10" width="16736" height="13952"/>
</g>
<g id="sivinsko">
	<g>
		<g>
			<ellipse fill="#FFFFFF" cx="124.146" cy="260.21" rx="24.789" ry="19.348"/>
			<path d="M124.146,283.558c-15.874,0-28.788-10.474-28.788-23.348c0-12.874,12.914-23.347,28.788-23.347
				s28.789,10.473,28.789,23.347C152.935,273.084,140.02,283.558,124.146,283.558z M124.146,244.863
				c-11.463,0-20.788,6.884-20.788,15.347c0,8.463,9.325,15.348,20.788,15.348s20.789-6.885,20.789-15.348
				C144.935,251.748,135.608,244.863,124.146,244.863z"/>
		</g>
		<g>
			<ellipse fill="#FFFFFF" cx="329.398" cy="260.21" rx="24.789" ry="19.348"/>
			<path d="M329.397,283.558c-15.874,0-28.788-10.474-28.788-23.348c0-12.874,12.914-23.347,28.788-23.347
				s28.789,10.473,28.789,23.347C358.187,273.084,345.271,283.558,329.397,283.558z M329.397,244.863
				c-11.463,0-20.788,6.884-20.788,15.347c0,8.463,9.325,15.348,20.788,15.348s20.789-6.885,20.789-15.348
				C350.187,251.748,340.86,244.863,329.397,244.863z"/>
		</g>
		<g>
			<g>
				<path d="M236.571,284.477c0,3.914-3.402,7.086-7.613,7.086c-4.203,0-7.613-3.172-7.613-7.086c0-3.903,3.41-7.073,7.613-7.073
					C233.169,277.403,236.571,280.574,236.571,284.477z"/>
			</g>
		</g>
		<g>
			<g>
				<path d="M236.571,318.184c0,3.915-3.402,7.086-7.613,7.086c-4.203,0-7.613-3.171-7.613-7.086c0-3.902,3.41-7.071,7.613-7.071
					C233.169,311.112,236.571,314.281,236.571,318.184z"/>
			</g>
		</g>
		<g>
			<path fill="#FFFFFF" d="M176.472,208.288c-32.117,13.953-52.299,40.708-52.299,71.376c0,45.024,5.117,109.624,104.608,109.624
				s104.616-64.6,104.616-109.624c0-30.729-19.471-57.535-51.697-71.463c-14.356,7.604-34.23,12.077-53.09,12.077
				C209.81,220.278,190.8,215.836,176.472,208.288z"/>
			<path d="M228.781,393.288c-45.078,0-76.367-13.389-92.998-39.796c-13.719-21.783-15.61-48.356-15.61-73.828
				c0-15.816,5.148-31.146,14.888-44.333c9.545-12.922,23.313-23.542,39.817-30.712c1.111-0.483,2.385-0.436,3.458,0.13
				c13.908,7.327,32.232,11.529,50.274,11.529c18.345,0,37.491-4.341,51.218-11.611c1.072-0.569,2.344-0.619,3.459-0.137
				c33.882,14.644,54.11,42.731,54.11,75.135c0,25.47-1.892,52.042-15.614,73.828C305.15,379.899,273.859,393.288,228.781,393.288z
				 M176.35,212.72c-30.207,13.744-48.177,38.652-48.177,66.944c0,24.272,1.742,49.499,14.38,69.564
				c15.281,24.264,43.487,36.06,86.229,36.06c42.742,0,70.949-11.795,86.232-36.06c12.642-20.069,14.384-45.294,14.384-69.564
				c0-28.567-17.743-53.506-47.569-67.032c-14.669,7.313-34.386,11.646-53.218,11.646C210.049,224.278,191.133,220.08,176.35,212.72
				z"/>
		</g>
		<g>
			<circle cx="229.087" cy="266.064" r="7.484"/>
			<path d="M229.087,277.549c-6.332,0-11.484-5.152-11.484-11.484s5.152-11.484,11.484-11.484s11.484,5.152,11.484,11.484
				S235.419,277.549,229.087,277.549z M229.087,262.58c-1.921,0-3.484,1.563-3.484,3.484s1.563,3.484,3.484,3.484
				s3.484-1.563,3.484-3.484S231.008,262.58,229.087,262.58z"/>
		</g>
		<g>
			<circle cx="229.087" cy="299.477" r="7.484"/>
			<path d="M229.087,310.961c-6.332,0-11.484-5.152-11.484-11.484s5.152-11.484,11.484-11.484s11.484,5.152,11.484,11.484
				S235.419,310.961,229.087,310.961z M229.087,295.992c-1.921,0-3.484,1.563-3.484,3.484s1.563,3.484,3.484,3.484
				s3.484-1.563,3.484-3.484S231.008,295.992,229.087,295.992z"/>
		</g>
		<g>
			<circle cx="229.087" cy="332.89" r="7.484"/>
			<path d="M229.087,344.374c-6.332,0-11.484-5.152-11.484-11.484s5.152-11.484,11.484-11.484s11.484,5.152,11.484,11.484
				S235.419,344.374,229.087,344.374z M229.087,329.405c-1.921,0-3.484,1.563-3.484,3.484s1.563,3.484,3.484,3.484
				s3.484-1.563,3.484-3.484S231.008,329.405,229.087,329.405z"/>
		</g>
		<g>
			<path fill="#FFFFFF" d="M229.081,117.837c-36.864,0-66.861,25.073-66.861,55.895c0,14.137,6.357,27.027,16.738,36.88
				c0,0,10.832,14.692,46.592,14.692s55.505-16.461,55.505-16.461c9.3-9.609,14.901-21.818,14.901-35.111
				C295.96,142.908,265.958,117.837,229.081,117.837z"/>
			<path d="M225.55,229.304c-34.793,0-47.562-13.582-49.545-15.981c-11.471-10.979-17.785-25.029-17.785-39.591
				c0-33.026,31.788-59.895,70.861-59.895c18.772,0,36.47,6.151,49.833,17.319c13.571,11.342,21.044,26.462,21.042,42.576
				c0,13.756-5.691,27.213-16.027,37.892c-0.099,0.103-0.203,0.199-0.313,0.291C282.765,212.625,262.335,229.304,225.55,229.304z
				 M229.081,121.837c-34.662,0-62.861,23.28-62.861,51.895c0,12.43,5.502,24.497,15.492,33.979c0.17,0.162,0.326,0.338,0.466,0.528
				c0.073,0.093,10.504,13.066,43.372,13.066c32.357,0,50.991-13.996,52.8-15.418c8.902-9.276,13.606-20.39,13.606-32.154
				c0.002-13.702-6.452-26.642-18.172-36.437C261.856,127.327,245.981,121.837,229.081,121.837z"/>
		</g>
		<g>
			<path fill="#919191" d="M194.771,208.377c-2.135-2.937,21.072-32.87,27.381-32.865c6.309,0.004,13.797,12.451,12.332,16.97
				C233.021,197.001,196.904,211.313,194.771,208.377z"/>
			<path d="M196.162,212.771c-2.086,0-3.643-0.687-4.628-2.042c-1.977-2.72-0.213-6.184,0.635-7.849
				c3.308-6.493,21.237-31.368,29.98-31.368c5.403,0.004,9.707,4.818,11.791,7.687c3.026,4.165,5.758,10.166,4.348,14.517
				c-0.459,1.418-1.534,4.741-19.27,12.141C216.252,207.012,202.146,212.771,196.162,212.771z M222.329,179.526
				c-4.153,1.442-16.633,16.337-21.645,24.403c9.153-2.488,26.55-9.834,30.003-13.01c-0.087-1.345-1.384-4.909-4.096-8.143
				C224.839,180.687,223.208,179.657,222.329,179.526z"/>
		</g>
		<g>
			<g>
				<path d="M242.063,148.549c4.313,0,7.776,4.278,7.776,9.559c0,5.287-3.477,9.573-7.776,9.573c-4.278,0-7.769-4.287-7.769-9.573
					C234.286,152.827,237.784,148.549,242.063,148.549z"/>
			</g>
		</g>
		<g>
			<g>
				<ellipse cx="209.647" cy="157.517" rx="7.777" ry="9.567"/>
			</g>
		</g>
		<g>
			<g>
				<path fill="#494949" d="M179.405,121.362c0.977,0,1.773-0.797,1.773-1.767C181.179,120.565,180.382,121.358,179.405,121.362z"/>
				<path d="M179.405,125.362c-2.206,0-3.995-1.786-4-3.992c-0.003-1.566,0.895-2.924,2.205-3.583c0.66-1.3,2.01-2.191,3.568-2.191
					c2.209,0,4,1.791,4,4c0,0.003,0,0.006,0,0.009s0,0.006,0,0.009C185.169,122.785,182.58,125.362,179.405,125.362z"/>
			</g>
			<g>
				<path fill="#494949" d="M293.026,122.659h-8.155V90.963c0-14.749-11.94-26.708-26.698-26.708h-56.589
					c-14.753,0-26.707,11.958-26.707,26.708v26.857v4.839h-12.231c-3.733,0-6.789,3.034-6.789,6.787
					c0,3.749,3.056,6.789,6.789,6.789h12.231h109.994h8.155c3.77,0,6.789-3.04,6.789-6.789
					C299.815,125.692,296.786,122.659,293.026,122.659z"/>
				<path d="M293.026,140.234H162.646c-5.949,0-10.789-4.84-10.789-10.789c0-5.948,4.84-10.787,10.789-10.787h8.231V90.963
					c0-16.932,13.775-30.708,30.707-30.708h56.589c16.927,0,30.698,13.775,30.698,30.708v27.696h4.155
					c5.949,0,10.789,4.839,10.789,10.787C303.815,135.395,298.976,140.234,293.026,140.234z M162.646,126.659
					c-1.538,0-2.789,1.25-2.789,2.787c0,1.538,1.251,2.789,2.789,2.789h130.381c1.538,0,2.789-1.251,2.789-2.789
					c0-1.537-1.251-2.787-2.789-2.787h-8.155c-2.209,0-4-1.791-4-4V90.963c0-12.521-10.183-22.708-22.698-22.708h-56.589
					c-12.521,0-22.707,10.187-22.707,22.708v31.696c0,2.209-1.791,4-4,4H162.646z"/>
			</g>
		</g>
	</g>
	<g id="rdeča7bela_copy_3">
	</g>
	<path d="M8760.185,8195.27h-16737v-13953h16737V8195.27z M-7976.315,8194.27h16736l-0.5-13951h-16735.5l0.5,13951H-7976.315z"/>
</g>
<g id="linijsko" display="none">
	<g display="inline">
		<g>
			<path fill="none" d="M236.571,284.477c0,3.914-3.402,7.086-7.613,7.086c-4.203,0-7.613-3.172-7.613-7.086
				c0-3.903,3.41-7.073,7.613-7.073C233.169,277.403,236.571,280.574,236.571,284.477z"/>
		</g>
	</g>
	<g display="inline">
		<g>
			<path fill="none" d="M236.571,318.184c0,3.915-3.402,7.086-7.613,7.086c-4.203,0-7.613-3.171-7.613-7.086
				c0-3.902,3.41-7.071,7.613-7.071C233.169,311.112,236.571,314.281,236.571,318.184z"/>
		</g>
	</g>
	
		<circle display="inline" fill="none" stroke="#000000" stroke-width="8" stroke-linecap="round" stroke-linejoin="round" stroke-miterlimit="10" cx="229.087" cy="266.064" r="7.484"/>
	
		<circle display="inline" fill="none" stroke="#000000" stroke-width="8" stroke-linecap="round" stroke-linejoin="round" stroke-miterlimit="10" cx="229.087" cy="299.477" r="7.484"/>
	
		<circle display="inline" fill="none" stroke="#000000" stroke-width="8" stroke-linecap="round" stroke-linejoin="round" stroke-miterlimit="10" cx="229.087" cy="332.89" r="7.484"/>
	
		<path display="inline" fill="none" stroke="#000000" stroke-width="8" stroke-linecap="round" stroke-linejoin="round" stroke-miterlimit="10" d="
		M194.771,208.377c-2.135-2.937,21.072-32.87,27.381-32.865c6.309,0.004,13.797,12.451,12.332,16.97
		C233.021,197.001,196.904,211.313,194.771,208.377z"/>
	<g display="inline">
		<g>
			<path d="M242.063,148.549c4.313,0,7.776,4.278,7.776,9.559c0,5.287-3.477,9.573-7.776,9.573c-4.278,0-7.769-4.287-7.769-9.573
				C234.286,152.827,237.784,148.549,242.063,148.549z"/>
		</g>
	</g>
	<g display="inline">
		<g>
			<ellipse cx="209.647" cy="157.517" rx="7.777" ry="9.567"/>
		</g>
	</g>
	
		<path display="inline" fill="none" stroke="#000000" stroke-width="8" stroke-linecap="round" stroke-linejoin="round" stroke-miterlimit="10" d="
		M354.187,260.21c0-10.685-11.099-19.347-24.789-19.347c-2.45,0-4.814,0.282-7.051,0.799c-8.882-14.086-22.805-25.75-40.646-33.461
		c-0.031,0.017-0.064,0.032-0.095,0.048c8.964-9.517,14.351-21.494,14.351-34.518c0.002-14.417-6.563-27.574-17.322-37.497h6.237
		h8.155c3.77,0,6.789-3.04,6.789-6.789c0-3.753-3.029-6.787-6.789-6.787h-8.155V90.963c0-14.749-11.94-26.708-26.698-26.708h-56.589
		c-14.753,0-26.707,11.958-26.707,26.708v26.857v4.839h-12.231c-3.733,0-6.789,3.034-6.789,6.787c0,3.749,3.056,6.789,6.789,6.789
		h12.231h4.665c-10.758,9.924-17.322,23.081-17.322,37.497c0,13.13,5.49,25.182,14.59,34.727c-0.111-0.058-0.228-0.112-0.338-0.17
		c-18.213,7.913-32.582,19.945-41.615,34.47c-3.242-1.214-6.874-1.895-10.711-1.895c-13.689,0-24.788,8.662-24.788,19.347
		c0,10.686,11.099,19.348,24.788,19.348c0.01,0,0.02,0,0.029,0c0,0.036-0.002,0.071-0.002,0.107
		c0,45.024,5.117,109.624,104.608,109.624s104.616-64.6,104.616-109.624c0-0.121-0.007-0.239-0.007-0.36
		C345.182,277.813,354.187,269.834,354.187,260.21z"/>
	<g display="inline">
		<path fill="none" d="M181.179,119.596c0,0.97-0.797,1.763-1.773,1.767C180.382,121.362,181.179,120.565,181.179,119.596z"/>
		<line fill="none" x1="179.542" y1="136.234" x2="278.634" y2="136.234"/>
		<path fill="none" d="M278.634,136.234h6.237h8.155c3.77,0,6.789-3.04,6.789-6.789c0-3.753-3.029-6.787-6.789-6.787h-8.155V90.963
			c0-14.749-11.94-26.708-26.698-26.708h-56.589c-14.753,0-26.707,11.958-26.707,26.708v26.857v4.839h-12.231
			c-3.733,0-6.789,3.034-6.789,6.787c0,3.749,3.056,6.789,6.789,6.789h12.231h4.665"/>
		<path fill="none" stroke="#000000" stroke-width="8" stroke-linecap="round" stroke-linejoin="round" stroke-miterlimit="10" d="
			M179.542,136.234c-10.758,9.924-17.322,23.081-17.322,37.497c0,14.137,6.357,27.027,16.738,36.88c0,0,10.832,14.692,46.592,14.692
			s55.505-16.461,55.505-16.461c9.3-9.609,14.901-21.818,14.901-35.111c0.002-14.417-6.563-27.574-17.322-37.497"/>
		<path fill="none" stroke="#000000" stroke-width="8" stroke-linecap="round" stroke-linejoin="round" stroke-miterlimit="10" d="
			M293.026,122.659h-8.155V90.963c0-14.749-11.94-26.708-26.698-26.708h-56.589c-14.753,0-26.707,11.958-26.707,26.708v26.857v4.839
			h-12.231c-3.733,0-6.789,3.034-6.789,6.787c0,3.749,3.056,6.789,6.789,6.789h12.231h109.994h8.155c3.77,0,6.789-3.04,6.789-6.789
			C299.815,125.692,296.786,122.659,293.026,122.659z"/>
	</g>
	<g id="rdeča7bela_copy" display="inline">
	</g>
	<path display="inline" fill="none" stroke="#000000" stroke-width="8" stroke-miterlimit="10" d="M134.856,242.758
		c-6.877,11.059-10.661,23.562-10.682,36.799"/>
	<path display="inline" fill="none" stroke="#000000" stroke-width="8" stroke-miterlimit="10" d="M333.391,279.304
		c-0.067-13.582-3.945-26.385-11.044-37.642"/>
</g>
<g id="pivot">
	<circle fill="none" cx="236.587" cy="388.214" r="14.133"/>
</g>
</svg>
