<?xml version="1.0" encoding="utf-8"?>
<!-- Generator: Adobe Illustrator 16.0.0, SVG Export Plug-In . SVG Version: 6.00 Build 0)  -->
<!DOCTYPE svg PUBLIC "-//W3C//DTD SVG 1.1//EN" "http://www.w3.org/Graphics/SVG/1.1/DTD/svg11.dtd">
<svg version="1.1" xmlns="http://www.w3.org/2000/svg" xmlns:xlink="http://www.w3.org/1999/xlink" x="0px" y="0px"
	 width="453.543px" height="453.543px" viewBox="0 0 453.543 453.543" enable-background="new 0 0 453.543 453.543"
	 xml:space="preserve">
<g id="kvadrat">
</g>
<g id="bg" display="none">
	<rect x="-1343.195" y="-5337.222" display="inline" width="15266.867" height="13678.951"/>
</g>
<g id="barvno" display="none">
	<g display="inline">
		
			<path fill="#E73088" stroke="#000000" stroke-width="8" stroke-linecap="round" stroke-linejoin="round" stroke-miterlimit="10" d="
			M268.222,204.865c0,0,0,146.864,0,157.226s-18.558,18.762-41.45,18.762c-22.893,0-41.451-8.4-41.451-18.762s0-157.226,0-157.226"
			/>
		
			<path fill="#FFCF00" stroke="#000000" stroke-width="8" stroke-linecap="round" stroke-linejoin="round" stroke-miterlimit="10" d="
			M226.517,161.866c17.14,0,70.826-22.312,0-89.175c-9.703,19.593-24.002,29.991-30.468,41.54
			C180.009,142.877,201.62,161.866,226.517,161.866z"/>
		<path fill="none" stroke="#000000" stroke-width="8" stroke-linecap="round" stroke-linejoin="round" stroke-miterlimit="10" d="
			M226.347,114.641c0,0-27.165,19.471-4.395,32.011"/>
		<path fill="none" stroke="#000000" stroke-width="8" stroke-linecap="round" stroke-linejoin="round" stroke-miterlimit="10" d="
			M268.222,204.865c0,0,0,146.864,0,157.226s-18.558,18.762-41.45,18.762c-22.893,0-41.451-8.4-41.451-18.762s0-157.226,0-157.226"
			/>
		
			<ellipse fill="#F19DC3" stroke="#000000" stroke-width="8" stroke-linecap="round" stroke-linejoin="round" stroke-miterlimit="10" cx="226.771" cy="204.865" rx="41.451" ry="18.763"/>
		
			<line fill="#FFFFFF" stroke="#000000" stroke-width="8" stroke-linecap="round" stroke-linejoin="round" stroke-miterlimit="10" x1="226.517" y1="161.866" x2="226.517" y2="203.741"/>
	</g>
	<g id="rdeča7bela" display="inline">
	</g>
	
		<rect x="-1853.48" y="-5757.23" display="inline" fill="none" stroke="#000000" stroke-miterlimit="10" width="16736" height="13952"/>
</g>
<g id="sivinsko">
	<g>
		<g>
			<path fill="#717171" d="M268.222,204.865c0,0,0,146.864,0,157.226s-18.558,18.762-41.45,18.762
				c-22.893,0-41.451-8.4-41.451-18.762s0-157.226,0-157.226"/>
			<path d="M226.772,384.853c-25.911,0-45.451-9.786-45.451-22.762V204.865c0-2.209,1.791-4,4-4s4,1.791,4,4v157.226
				c0,6.968,16.016,14.762,37.451,14.762c21.434,0,37.45-7.793,37.45-14.762V204.865c0-2.209,1.791-4,4-4s4,1.791,4,4v157.226
				C272.222,375.067,252.683,384.853,226.772,384.853z"/>
		</g>
		<g>
			<path fill="#C7C7C7" d="M226.517,161.866c17.14,0,70.826-22.312,0-89.175c-9.703,19.593-24.002,29.991-30.468,41.54
				C180.009,142.877,201.62,161.866,226.517,161.866z"/>
			<path d="M226.517,165.866c-15.719,0-29.509-6.868-35.99-17.924c-5.916-10.093-5.194-22.759,2.032-35.665
				c2.865-5.118,7.096-9.955,11.576-15.075c6.243-7.135,13.318-15.223,18.797-26.286c0.563-1.137,1.631-1.939,2.879-2.163
				c1.25-0.224,2.529,0.158,3.451,1.029c30.62,28.907,42.297,53.247,34.706,72.346C257.532,158.322,237.815,165.866,226.517,165.866
				z M227.558,79.249c-5.438,9.546-11.745,16.755-17.401,23.221c-4.378,5.005-8.16,9.328-10.617,13.716
				c-5.866,10.477-6.596,20.059-2.111,27.711c5.051,8.617,16.197,13.97,29.088,13.97c7.876,0,24.767-5.483,30.017-18.693
				C262.416,124.375,252.405,103.715,227.558,79.249z"/>
		</g>
		<path d="M221.948,150.652c-0.652,0-1.313-0.16-1.926-0.497c-7.036-3.875-10.783-8.872-11.138-14.851
			c-0.723-12.184,13.507-22.75,15.132-23.915c1.796-1.287,4.294-0.875,5.581,0.921c1.286,1.794,0.875,4.291-0.917,5.578h0
			c-3.421,2.465-12.212,10.316-11.81,16.951c0.185,3.053,2.543,5.848,7.011,8.308c1.935,1.066,2.64,3.499,1.574,5.434
			C224.728,149.904,223.359,150.652,221.948,150.652z"/>
		<path d="M226.772,384.853c-25.911,0-45.451-9.786-45.451-22.762V204.865c0-2.209,1.791-4,4-4s4,1.791,4,4v157.226
			c0,6.968,16.016,14.762,37.451,14.762c21.434,0,37.45-7.793,37.45-14.762V204.865c0-2.209,1.791-4,4-4s4,1.791,4,4v157.226
			C272.222,375.067,252.683,384.853,226.772,384.853z"/>
		<g>
			<ellipse fill="#BABABA" cx="226.771" cy="204.865" rx="41.451" ry="18.763"/>
			<path d="M226.772,227.628c-25.911,0-45.451-9.786-45.451-22.763c0-12.976,19.54-22.762,45.451-22.762
				c25.911,0,45.45,9.786,45.45,22.762C272.222,217.842,252.683,227.628,226.772,227.628z M226.772,190.104
				c-21.435,0-37.451,7.793-37.451,14.762c0,6.969,16.016,14.763,37.451,14.763c21.434,0,37.45-7.794,37.45-14.763
				C264.222,197.897,248.206,190.104,226.772,190.104z"/>
		</g>
		<g>
			<line fill="#FFFFFF" x1="226.517" y1="161.866" x2="226.517" y2="203.741"/>
			<path d="M226.517,207.741c-2.209,0-4-1.791-4-4v-41.875c0-2.209,1.791-4,4-4s4,1.791,4,4v41.875
				C230.517,205.95,228.727,207.741,226.517,207.741z"/>
		</g>
	</g>
	<g id="rdeča7bela_copy_3">
	</g>
	<path d="M14883.02,8195.27h-16737v-13953h16737V8195.27z M-1853.48,8194.27h16736l-0.5-13951h-16735.5l0.5,13951H-1853.48z"/>
</g>
<g id="linijsko" display="none">
	<g display="inline">
		<path fill="none" stroke="#000000" stroke-width="8" stroke-linecap="round" stroke-linejoin="round" stroke-miterlimit="10" d="
			M226.517,161.866c17.14,0,70.826-22.312,0-89.175c-9.703,19.593-24.002,29.991-30.468,41.54
			C180.009,142.877,201.62,161.866,226.517,161.866z"/>
		<path fill="none" stroke="#000000" stroke-width="8" stroke-linecap="round" stroke-linejoin="round" stroke-miterlimit="10" d="
			M226.347,114.641c0,0-27.165,19.471-4.395,32.011"/>
		
			<ellipse fill="none" stroke="#000000" stroke-width="8" stroke-linecap="round" stroke-linejoin="round" stroke-miterlimit="10" cx="226.771" cy="204.865" rx="41.451" ry="18.763"/>
		
			<line fill="none" stroke="#000000" stroke-width="8" stroke-linecap="round" stroke-linejoin="round" stroke-miterlimit="10" x1="226.517" y1="161.866" x2="226.517" y2="203.741"/>
		<path fill="none" stroke="#000000" stroke-width="8" stroke-linecap="round" stroke-linejoin="round" stroke-miterlimit="10" d="
			M268.222,204.865c0,0,0,146.864,0,157.226s-18.558,18.762-41.45,18.762c-22.893,0-41.451-8.4-41.451-18.762s0-157.226,0-157.226"
			/>
	</g>
	<g id="rdeča7bela_copy" display="inline">
	</g>
</g>
<g id="pivot">
	<circle fill="none" cx="228.375" cy="378.086" r="14.133"/>
</g>
</svg>
