<?xml version="1.0" encoding="utf-8"?>
<!-- Generator: Adobe Illustrator 16.0.0, SVG Export Plug-In . SVG Version: 6.00 Build 0)  -->
<!DOCTYPE svg PUBLIC "-//W3C//DTD SVG 1.1//EN" "http://www.w3.org/Graphics/SVG/1.1/DTD/svg11.dtd">
<svg version="1.1" xmlns="http://www.w3.org/2000/svg" xmlns:xlink="http://www.w3.org/1999/xlink" x="0px" y="0px" width="220px"
	 height="220px" viewBox="0 0 220 220" enable-background="new 0 0 220 220" xml:space="preserve">
<g id="bg">
</g>
<g id="Layer_1">
	
		<polygon fill="#009E73" stroke="#010202" stroke-width="2.4" stroke-linecap="round" stroke-linejoin="round" stroke-miterlimit="10" points="
		29.751,253.165 38.833,215.998 47.914,178.831 75.56,205.28 103.208,231.728 66.479,242.446 	"/>
	<g>
		
			<circle fill="#F0E443" stroke="#010202" stroke-width="2.4" stroke-linecap="round" stroke-linejoin="round" stroke-miterlimit="10" cx="162.619" cy="15.967" r="29.079"/>
	</g>
	
		<rect x="192.459" y="62.994" transform="matrix(0.974 0.2264 -0.2264 0.974 31.6971 -46.0204)" fill="#57B3E6" stroke="#010202" stroke-width="2.4" stroke-miterlimit="10" width="48.009" height="104.344"/>
	
		<rect x="79.668" y="79.669" transform="matrix(-0.7071 0.7071 -0.7071 -0.7071 265.5635 110.0035)" fill="#CC78A7" stroke="#010202" stroke-width="2.4" stroke-linecap="round" stroke-linejoin="round" stroke-miterlimit="10" width="60.663" height="60.663"/>
	<g>
		
			<circle fill="#F0E443" stroke="#010202" stroke-width="2.4" stroke-linecap="round" stroke-linejoin="round" stroke-miterlimit="10" cx="162.619" cy="235.98" r="29.079"/>
	</g>
	
		<polygon fill="#009E73" stroke="#010202" stroke-width="2.4" stroke-linecap="round" stroke-linejoin="round" stroke-miterlimit="10" points="
		29.751,33.195 38.833,-3.972 47.914,-41.139 75.56,-14.689 103.208,11.758 66.479,22.477 	"/>
	
		<rect x="-27.482" y="62.994" transform="matrix(0.974 0.2264 -0.2264 0.974 25.9853 3.7781)" fill="#57B3E6" stroke="#010202" stroke-width="2.4" stroke-miterlimit="10" width="48.009" height="104.344"/>
</g>
</svg>
