<?xml version="1.0" encoding="utf-8"?>
<!-- Generator: Adobe Illustrator 16.0.0, SVG Export Plug-In . SVG Version: 6.00 Build 0)  -->
<!DOCTYPE svg PUBLIC "-//W3C//DTD SVG 1.1//EN" "http://www.w3.org/Graphics/SVG/1.1/DTD/svg11.dtd">
<svg version="1.1" xmlns="http://www.w3.org/2000/svg" xmlns:xlink="http://www.w3.org/1999/xlink" x="0px" y="0px" width="220px"
	 height="220px" viewBox="0 0 220 220" enable-background="new 0 0 220 220" xml:space="preserve">
<g id="bg" display="none">
	<rect x="-1345.836" y="-1881.787" display="inline" fill="#FFFFFF" width="3240.076" height="8444.104"/>
</g>
<g id="Layer_3" display="none">
</g>
<g id="Layer_1">
	<g>
		<defs>
			<rect id="SVGID_261_" x="-900" y="-900" width="220" height="220"/>
		</defs>
		<clipPath id="SVGID_2_">
			<use xlink:href="#SVGID_261_"  overflow="visible"/>
		</clipPath>
	</g>
	<g>
		<defs>
			<rect id="SVGID_269_" x="-600" y="-900" width="220" height="220"/>
		</defs>
		<clipPath id="SVGID_4_">
			<use xlink:href="#SVGID_269_"  overflow="visible"/>
		</clipPath>
	</g>
	<g>
		<defs>
			<rect id="SVGID_271_" x="0" y="-900" width="220" height="220"/>
		</defs>
		<clipPath id="SVGID_6_">
			<use xlink:href="#SVGID_271_"  overflow="visible"/>
		</clipPath>
	</g>
	<g>
		<defs>
			<rect id="SVGID_307_" y="0" width="220.001" height="220"/>
		</defs>
		<clipPath id="SVGID_8_">
			<use xlink:href="#SVGID_307_"  overflow="visible"/>
		</clipPath>
		<g clip-path="url(#SVGID_8_)">
			<g>
				<rect y="0" fill="#ECECEC" width="220.001" height="220"/>
			</g>
		</g>
		
			<path clip-path="url(#SVGID_8_)" fill="#A5A7AA" stroke="#000100" stroke-width="2" stroke-linecap="round" stroke-linejoin="round" stroke-miterlimit="10" d="
			M101.465,173.363v53.256c-6.604,3.092-11.184,9.794-11.184,17.567c0,7.773,4.58,14.477,11.184,17.567v-4.486v-3.482v-5.995
			l8.209-4.741l8.21,4.741v5.995l0,0v7.969c6.604-3.09,11.182-9.794,11.182-17.567c0-7.773-4.578-14.476-11.182-17.567v-53.256
			c6.604-3.091,11.182-9.792,11.182-17.568c0-7.772-4.578-14.476-11.182-17.568v4.065v3.482v5.999l-8.21,4.741l-8.209-4.741v-5.999
			l0,0v-7.547c-6.604,3.092-11.184,9.795-11.184,17.568C90.281,163.571,94.861,170.272,101.465,173.363z"/>
		
			<path clip-path="url(#SVGID_8_)" fill="#A5A7AA" stroke="#000100" stroke-width="2" stroke-linecap="round" stroke-linejoin="round" stroke-miterlimit="10" d="
			M194.115,228.191v-89.964h-17.571v89.964c-7.063,3.311-11.962,10.479-11.962,18.798c0,8.318,4.898,15.487,11.962,18.793v-14.939
			l8.783-5.074l8.784,5.074l0.004,14.939c7.063-3.306,11.958-10.475,11.958-18.793C206.073,238.67,201.179,231.502,194.115,228.191z
			"/>
		
			<path clip-path="url(#SVGID_8_)" fill="#A5A7AA" stroke="#000100" stroke-width="2" stroke-linecap="round" stroke-linejoin="round" stroke-miterlimit="10" d="
			M19.185,245.637c0,7.133,4.199,13.281,10.254,16.115v-4.112v-3.201v-5.5l7.533-4.35l7.538,4.35v5.5l0,0v7.313
			c6.059-2.834,10.256-8.982,10.256-16.115c0-7.137-4.197-13.282-10.256-16.118v-69.381c2.87-2.243,4.717-5.732,4.717-9.657
			c0-6.771-5.483-12.253-12.255-12.253c-6.761,0-12.25,5.483-12.25,12.253c0,3.925,1.85,7.414,4.717,9.659v69.379
			C23.383,232.354,19.185,238.5,19.185,245.637z M36.972,146.303c2.311,0,4.18,1.87,4.18,4.178c0,2.306-1.869,4.176-4.18,4.176
			c-2.305,0-4.176-1.871-4.176-4.176C32.796,148.172,34.667,146.303,36.972,146.303z"/>
		
			<path clip-path="url(#SVGID_8_)" fill="#A5A7AA" stroke="#000100" stroke-width="2" stroke-linecap="round" stroke-linejoin="round" stroke-miterlimit="10" d="
			M101.465-3.608v53.256c-6.604,3.091-11.184,9.793-11.184,17.567s4.58,14.476,11.184,17.567v-4.486v-3.482v-5.996l8.209-4.741
			l8.21,4.741v5.996l0,0v7.968c6.604-3.091,11.182-9.793,11.182-17.567s-4.578-14.476-11.182-17.567V-3.608
			c6.604-3.091,11.182-9.792,11.182-17.568c0-7.772-4.578-14.476-11.182-17.568v4.065v3.482v5.998l-8.21,4.741l-8.209-4.741v-5.998
			l0,0v-7.548c-6.604,3.093-11.184,9.796-11.184,17.568C90.281-13.4,94.861-6.699,101.465-3.608z"/>
		
			<path clip-path="url(#SVGID_8_)" fill="#A5A7AA" stroke="#000100" stroke-width="2" stroke-linecap="round" stroke-linejoin="round" stroke-miterlimit="10" d="
			M194.115,47.191v-89.964h-17.571v89.964c-7.063,3.311-11.962,10.479-11.962,18.798c0,8.318,4.898,15.487,11.962,18.793V69.843
			l8.783-5.074l8.784,5.074l0.004,14.939c7.063-3.306,11.958-10.475,11.958-18.793C206.073,57.67,201.179,50.502,194.115,47.191z"/>
		
			<path clip-path="url(#SVGID_8_)" fill="#A5A7AA" stroke="#000100" stroke-width="2" stroke-linecap="round" stroke-linejoin="round" stroke-miterlimit="10" d="
			M19.185,68.667c0,7.133,4.199,13.282,10.254,16.115V80.67v-3.2v-5.5l7.533-4.351l7.538,4.351v5.5l0,0v7.313
			c6.059-2.833,10.256-8.982,10.256-16.115c0-7.136-4.197-13.282-10.256-16.118v-69.381c2.87-2.243,4.717-5.732,4.717-9.657
			c0-6.77-5.483-12.254-12.255-12.254c-6.761,0-12.25,5.484-12.25,12.254c0,3.925,1.85,7.414,4.717,9.659v69.379
			C23.383,55.385,19.185,61.531,19.185,68.667z M36.972-30.666c2.311,0,4.18,1.868,4.18,4.177c0,2.306-1.869,4.176-4.18,4.176
			c-2.305,0-4.176-1.87-4.176-4.176C32.796-28.798,34.667-30.666,36.972-30.666z"/>
		
			<path clip-path="url(#SVGID_8_)" fill="#575756" stroke="#000100" stroke-width="2" stroke-linecap="round" stroke-linejoin="round" stroke-miterlimit="10" d="
			M68.767,211.681h8.927l6.312-6.313v-8.926l-6.312-6.312h-8.927l-6.312,6.312v8.926L68.767,211.681z M73.23,195.551
			c2.957,0,5.354,2.398,5.354,5.355c0,2.957-2.397,5.354-5.354,5.354c-2.958,0-5.355-2.397-5.355-5.354
			C67.875,197.949,70.272,195.551,73.23,195.551z"/>
		
			<path clip-path="url(#SVGID_8_)" fill="#575756" stroke="#000100" stroke-width="2" stroke-linecap="round" stroke-linejoin="round" stroke-miterlimit="10" d="
			M142.1,211.681h8.927l6.312-6.313v-8.926l-6.312-6.312H142.1l-6.312,6.312v8.926L142.1,211.681z M146.563,195.55
			c2.957,0,5.354,2.397,5.354,5.356c0,2.957-2.397,5.355-5.354,5.355c-2.958,0-5.355-2.398-5.355-5.355
			C141.208,197.948,143.606,195.55,146.563,195.55z"/>
		<g clip-path="url(#SVGID_8_)">
			<g>
				<line fill="none" stroke="#000100" stroke-width="6" stroke-miterlimit="10" x1="220" y1="121.947" x2="214" y2="121.947"/>
				
					<line fill="none" stroke="#000100" stroke-width="6" stroke-miterlimit="10" stroke-dasharray="12.2353,12.2353" x1="201.765" y1="121.947" x2="12.118" y2="121.947"/>
				<line fill="none" stroke="#000100" stroke-width="6" stroke-miterlimit="10" x1="6" y1="121.947" x2="0" y2="121.947"/>
			</g>
		</g>
		
			<line clip-path="url(#SVGID_8_)" fill="none" stroke="#000100" stroke-width="6" stroke-miterlimit="10" x1="220" y1="102.352" x2="0" y2="102.352"/>
	</g>
</g>
</svg>
