<?xml version="1.0" encoding="utf-8"?>
<!-- Generator: Adobe Illustrator 16.0.0, SVG Export Plug-In . SVG Version: 6.00 Build 0)  -->
<!DOCTYPE svg PUBLIC "-//W3C//DTD SVG 1.1//EN" "http://www.w3.org/Graphics/SVG/1.1/DTD/svg11.dtd">
<svg version="1.1" xmlns="http://www.w3.org/2000/svg" xmlns:xlink="http://www.w3.org/1999/xlink" x="0px" y="0px" width="220px"
	 height="220px" viewBox="0 0 220 220" enable-background="new 0 0 220 220" xml:space="preserve">
<g id="bg" display="none">
	<rect x="-2845.836" y="-981.787" display="inline" fill="#FFFFFF" width="3240.076" height="8444.104"/>
</g>
<g id="Layer_3" display="none">
</g>
<g id="Layer_1">
	<g>
		<defs>
			<rect id="SVGID_257_" x="0" width="220" height="220"/>
		</defs>
		<clipPath id="SVGID_2_">
			<use xlink:href="#SVGID_257_"  overflow="visible"/>
		</clipPath>
		<g clip-path="url(#SVGID_2_)">
			<g>
				<rect x="0" fill="#0073B3" width="220" height="220"/>
			</g>
		</g>
		<g clip-path="url(#SVGID_2_)">
			
				<rect x="101.662" y="31.175" fill="#000100" stroke="#000100" stroke-width="2.4" stroke-linecap="round" stroke-linejoin="round" stroke-miterlimit="10" width="11.694" height="13.68"/>
			
				<rect x="94.004" y="44.447" fill="#C8C8C8" stroke="#000100" stroke-width="2.4" stroke-linecap="round" stroke-linejoin="round" stroke-miterlimit="10" width="48.13" height="32.636"/>
			<g>
				
					<polyline fill="#29265B" stroke="#000100" stroke-width="2.4" stroke-linecap="round" stroke-linejoin="round" stroke-miterlimit="10" points="
					173.828,71.521 182.681,66.474 78.437,72.138 89.849,87.103 				"/>
			</g>
			
				<circle fill="#FFFFFF" stroke="#000100" stroke-width="2.4" stroke-linecap="round" stroke-linejoin="round" stroke-miterlimit="10" cx="104.684" cy="56.331" r="4.797"/>
			
				<circle fill="#FFFFFF" stroke="#000100" stroke-width="2.4" stroke-linecap="round" stroke-linejoin="round" stroke-miterlimit="10" cx="118.455" cy="56.331" r="4.798"/>
			
				<circle fill="#FFFFFF" stroke="#000100" stroke-width="2.4" stroke-linecap="round" stroke-linejoin="round" stroke-miterlimit="10" cx="132.224" cy="56.331" r="4.798"/>
			
				<path fill="#BD1823" stroke="#000100" stroke-width="2.4" stroke-linecap="round" stroke-linejoin="round" stroke-miterlimit="10" d="
				M85.292,80.852L95.991,94.94h65.805c0,0,14.917-24.976,20.886-28.466L85.292,80.852z"/>
		</g>
		<g clip-path="url(#SVGID_2_)">
			
				<rect x="15.233" y="8.138" fill="#000100" stroke="#000100" stroke-width="2.4" stroke-linecap="round" stroke-linejoin="round" stroke-miterlimit="10" width="1.606" height="70.636"/>
			
				<path fill="#37A6DE" stroke="#000100" stroke-width="2.4" stroke-linecap="round" stroke-linejoin="round" stroke-miterlimit="10" d="
				M14.979,24.914v38.144h-29.78C-14.801,63.058,11.985,41.849,14.979,24.914z"/>
			
				<path fill="#F0E443" stroke="#000100" stroke-width="2.4" stroke-linecap="round" stroke-linejoin="round" stroke-miterlimit="10" d="
				M58.525,63.058c0,0-38.234-37.768-43.292-54.92v54.92H58.525z"/>
			
				<path fill="#EED2A3" stroke="#000100" stroke-width="2.4" stroke-linecap="round" stroke-linejoin="round" stroke-miterlimit="10" d="
				M41.866,95.573c-15.475,0-37.778,0-48.395,0c-10.617,0-16.659-21.279-16.659-21.279h81.713
				C58.525,74.294,57.341,95.573,41.866,95.573z"/>
		</g>
		<g clip-path="url(#SVGID_2_)">
			
				<path fill="#F0E443" stroke="#000100" stroke-width="2.4" stroke-linecap="round" stroke-linejoin="round" stroke-miterlimit="10" d="
				M16.257,170.92c0,0-38.235-37.768-43.292-54.92v54.92H16.257z"/>
			
				<path fill="#EED2A3" stroke="#000100" stroke-width="2.4" stroke-linecap="round" stroke-linejoin="round" stroke-miterlimit="10" d="
				M-0.402,203.436c-15.475,0-37.778,0-48.395,0c-10.617,0-16.659-21.28-16.659-21.28h81.713
				C16.257,182.155,15.074,203.436-0.402,203.436z"/>
		</g>
		<g clip-path="url(#SVGID_2_)">
			
				<path fill="#37A6DE" stroke="#000100" stroke-width="2.4" stroke-linecap="round" stroke-linejoin="round" stroke-miterlimit="10" d="
				M234.979,24.914v38.144h-29.78C205.199,63.058,231.985,41.849,234.979,24.914z"/>
			
				<path fill="#EED2A3" stroke="#000100" stroke-width="2.4" stroke-linecap="round" stroke-linejoin="round" stroke-miterlimit="10" d="
				M261.866,95.573c-15.475,0-37.778,0-48.395,0c-10.617,0-16.659-21.279-16.659-21.279h81.713
				C278.525,74.294,277.341,95.573,261.866,95.573z"/>
		</g>
		<g clip-path="url(#SVGID_2_)">
			
				<rect x="192.965" y="116" fill="#000100" stroke="#000100" stroke-width="2.4" stroke-linecap="round" stroke-linejoin="round" stroke-miterlimit="10" width="1.606" height="70.637"/>
			
				<path fill="#37A6DE" stroke="#000100" stroke-width="2.4" stroke-linecap="round" stroke-linejoin="round" stroke-miterlimit="10" d="
				M192.711,132.775v38.145h-29.78C162.931,170.92,189.717,149.711,192.711,132.775z"/>
			
				<path fill="#F0E443" stroke="#000100" stroke-width="2.4" stroke-linecap="round" stroke-linejoin="round" stroke-miterlimit="10" d="
				M236.257,170.92c0,0-38.235-37.768-43.292-54.92v54.92H236.257z"/>
			
				<path fill="#EED2A3" stroke="#000100" stroke-width="2.4" stroke-linecap="round" stroke-linejoin="round" stroke-miterlimit="10" d="
				M219.598,203.436c-15.475,0-37.778,0-48.395,0c-10.617,0-16.659-21.28-16.659-21.28h81.713
				C236.257,182.155,235.074,203.436,219.598,203.436z"/>
		</g>
		<g clip-path="url(#SVGID_2_)">
			
				<rect x="81.209" y="116" fill="#000100" stroke="#000100" stroke-width="2.4" stroke-linecap="round" stroke-linejoin="round" stroke-miterlimit="10" width="1.606" height="70.637"/>
			
				<path fill="#37A6DE" stroke="#000100" stroke-width="2.4" stroke-linecap="round" stroke-linejoin="round" stroke-miterlimit="10" d="
				M80.956,132.775v38.145h-29.78C51.175,170.92,77.961,149.711,80.956,132.775z"/>
			
				<path fill="#BD1823" stroke="#000100" stroke-width="2.4" stroke-linecap="round" stroke-linejoin="round" stroke-miterlimit="10" d="
				M124.501,170.92c0,0-38.235-37.768-43.292-54.92v54.92H124.501z"/>
			
				<path fill="#EED2A3" stroke="#000100" stroke-width="2.4" stroke-linecap="round" stroke-linejoin="round" stroke-miterlimit="10" d="
				M107.842,203.436c-15.475,0-37.778,0-48.395,0c-10.617,0-16.659-21.28-16.659-21.28h81.713
				C124.501,182.155,123.318,203.436,107.842,203.436z"/>
		</g>
		
			<line clip-path="url(#SVGID_2_)" fill="none" stroke="#000100" stroke-width="2.4" stroke-linecap="round" stroke-linejoin="round" stroke-miterlimit="10" stroke-dasharray="18,18" x1="17.817" y1="118" x2="176.183" y2="118"/>
		
			<line clip-path="url(#SVGID_2_)" fill="none" stroke="#000100" stroke-width="2.4" stroke-linecap="round" stroke-linejoin="round" stroke-miterlimit="10" x1="157.086" y1="17.316" x2="210.248" y2="17.316"/>
	</g>
	<g>
		<defs>
			<rect id="SVGID_261_" x="-2400" width="220" height="220"/>
		</defs>
		<clipPath id="SVGID_4_">
			<use xlink:href="#SVGID_261_"  overflow="visible"/>
		</clipPath>
	</g>
	<g>
		<defs>
			<rect id="SVGID_263_" x="-1200" width="220" height="220"/>
		</defs>
		<clipPath id="SVGID_6_">
			<use xlink:href="#SVGID_263_"  overflow="visible"/>
		</clipPath>
	</g>
	<g>
		<defs>
			<rect id="SVGID_265_" x="-600" width="220" height="220"/>
		</defs>
		<clipPath id="SVGID_8_">
			<use xlink:href="#SVGID_265_"  overflow="visible"/>
		</clipPath>
	</g>
	<g>
		<defs>
			<rect id="SVGID_267_" x="-900" width="220" height="220"/>
		</defs>
		<clipPath id="SVGID_10_">
			<use xlink:href="#SVGID_267_"  overflow="visible"/>
		</clipPath>
	</g>
	<g>
		<defs>
			<rect id="SVGID_269_" x="-2100" width="220" height="220"/>
		</defs>
		<clipPath id="SVGID_12_">
			<use xlink:href="#SVGID_269_"  overflow="visible"/>
		</clipPath>
	</g>
	<g>
		<defs>
			<rect id="SVGID_271_" x="-1500" width="220" height="220"/>
		</defs>
		<clipPath id="SVGID_14_">
			<use xlink:href="#SVGID_271_"  overflow="visible"/>
		</clipPath>
	</g>
</g>
</svg>
