<?xml version="1.0" encoding="utf-8"?>
<!-- Generator: Adobe Illustrator 16.0.0, SVG Export Plug-In . SVG Version: 6.00 Build 0)  -->
<!DOCTYPE svg PUBLIC "-//W3C//DTD SVG 1.1//EN" "http://www.w3.org/Graphics/SVG/1.1/DTD/svg11.dtd">
<svg version="1.1" xmlns="http://www.w3.org/2000/svg" xmlns:xlink="http://www.w3.org/1999/xlink" x="0px" y="0px" width="220px"
	 height="220px" viewBox="0 0 220 220" enable-background="new 0 0 220 220" xml:space="preserve">
<g id="bg" display="none">
	<rect x="-145.836" y="-981.787" display="inline" fill="#FFFFFF" width="3240.076" height="8444.104"/>
</g>
<g id="Layer_3" display="none">
</g>
<g id="Layer_1">
	<g>
		<defs>
			<rect id="SVGID_253_" x="0.034" width="220" height="220"/>
		</defs>
		<clipPath id="SVGID_2_">
			<use xlink:href="#SVGID_253_"  overflow="visible"/>
		</clipPath>
		<g clip-path="url(#SVGID_2_)">
			<g>
				<rect x="0.034" fill="#0073B3" width="220" height="220"/>
			</g>
		</g>
		<g clip-path="url(#SVGID_2_)">
			
				<rect x="101.695" y="31.175" fill="#000100" stroke="#000100" stroke-width="2.4" stroke-linecap="round" stroke-linejoin="round" stroke-miterlimit="10" width="11.694" height="13.68"/>
			
				<rect x="94.038" y="44.447" fill="#C8C8C8" stroke="#000100" stroke-width="2.4" stroke-linecap="round" stroke-linejoin="round" stroke-miterlimit="10" width="48.13" height="32.636"/>
			<g>
				
					<polyline fill="#29265B" stroke="#000100" stroke-width="2.4" stroke-linecap="round" stroke-linejoin="round" stroke-miterlimit="10" points="
					173.861,71.521 182.715,66.474 78.47,72.138 89.883,87.103 				"/>
			</g>
			
				<circle fill="#FFFFFF" stroke="#000100" stroke-width="2.4" stroke-linecap="round" stroke-linejoin="round" stroke-miterlimit="10" cx="104.717" cy="56.331" r="4.798"/>
			
				<circle fill="#FFFFFF" stroke="#000100" stroke-width="2.4" stroke-linecap="round" stroke-linejoin="round" stroke-miterlimit="10" cx="118.488" cy="56.331" r="4.798"/>
			
				<circle fill="#FFFFFF" stroke="#000100" stroke-width="2.4" stroke-linecap="round" stroke-linejoin="round" stroke-miterlimit="10" cx="132.258" cy="56.331" r="4.798"/>
			
				<path fill="#BD1823" stroke="#000100" stroke-width="2.4" stroke-linecap="round" stroke-linejoin="round" stroke-miterlimit="10" d="
				M85.325,80.852L96.024,94.94h65.805c0,0,14.917-24.976,20.886-28.466L85.325,80.852z"/>
		</g>
		<g clip-path="url(#SVGID_2_)">
			
				<rect x="15.267" y="8.138" fill="#000100" stroke="#000100" stroke-width="2.4" stroke-linecap="round" stroke-linejoin="round" stroke-miterlimit="10" width="1.606" height="70.636"/>
			
				<path fill="#37A6DE" stroke="#000100" stroke-width="2.4" stroke-linecap="round" stroke-linejoin="round" stroke-miterlimit="10" d="
				M15.013,24.914v38.144h-29.781C-14.768,63.058,12.019,41.849,15.013,24.914z"/>
			
				<path fill="#F0E443" stroke="#000100" stroke-width="2.4" stroke-linecap="round" stroke-linejoin="round" stroke-miterlimit="10" d="
				M58.559,63.058c0,0-38.235-37.768-43.292-54.92v54.92H58.559z"/>
			
				<path fill="#EED2A3" stroke="#000100" stroke-width="2.4" stroke-linecap="round" stroke-linejoin="round" stroke-miterlimit="10" d="
				M41.9,95.573c-15.475,0-37.779,0-48.395,0c-10.617,0-16.66-21.279-16.66-21.279h81.714C58.559,74.294,57.375,95.573,41.9,95.573z
				"/>
		</g>
		<g clip-path="url(#SVGID_2_)">
			
				<rect x="59.427" y="139.037" fill="#000100" stroke="#000100" stroke-width="2.4" stroke-linecap="round" stroke-linejoin="round" stroke-miterlimit="10" width="11.695" height="13.679"/>
			
				<rect x="51.771" y="152.309" fill="#C8C8C8" stroke="#000100" stroke-width="2.4" stroke-linecap="round" stroke-linejoin="round" stroke-miterlimit="10" width="48.13" height="32.637"/>
			<g>
				
					<polyline fill="#29265B" stroke="#000100" stroke-width="2.4" stroke-linecap="round" stroke-linejoin="round" stroke-miterlimit="10" points="
					131.593,179.383 140.447,174.336 36.203,180 47.615,194.965 				"/>
			</g>
			
				<circle fill="#FFFFFF" stroke="#000100" stroke-width="2.4" stroke-linecap="round" stroke-linejoin="round" stroke-miterlimit="10" cx="62.45" cy="164.193" r="4.798"/>
			
				<circle fill="#FFFFFF" stroke="#000100" stroke-width="2.4" stroke-linecap="round" stroke-linejoin="round" stroke-miterlimit="10" cx="76.221" cy="164.193" r="4.798"/>
			
				<circle fill="#FFFFFF" stroke="#000100" stroke-width="2.4" stroke-linecap="round" stroke-linejoin="round" stroke-miterlimit="10" cx="89.991" cy="164.193" r="4.798"/>
			
				<path fill="#BD1823" stroke="#000100" stroke-width="2.4" stroke-linecap="round" stroke-linejoin="round" stroke-miterlimit="10" d="
				M43.057,188.713l10.7,14.09h65.805c0,0,14.917-24.977,20.886-28.467L43.057,188.713z"/>
		</g>
		<g clip-path="url(#SVGID_2_)">
			
				<path fill="#F0E443" stroke="#000100" stroke-width="2.4" stroke-linecap="round" stroke-linejoin="round" stroke-miterlimit="10" d="
				M16.292,170.92c0,0-38.235-37.768-43.292-54.92v54.92H16.292z"/>
			
				<path fill="#EED2A3" stroke="#000100" stroke-width="2.4" stroke-linecap="round" stroke-linejoin="round" stroke-miterlimit="10" d="
				M-0.368,203.436c-15.475,0-37.779,0-48.395,0c-10.617,0-16.659-21.28-16.659-21.28h81.713
				C16.292,182.155,15.108,203.436-0.368,203.436z"/>
		</g>
		<g clip-path="url(#SVGID_2_)">
			
				<path fill="#37A6DE" stroke="#000100" stroke-width="2.4" stroke-linecap="round" stroke-linejoin="round" stroke-miterlimit="10" d="
				M235.013,24.914v38.144h-29.781C205.232,63.058,232.019,41.849,235.013,24.914z"/>
			
				<path fill="#EED2A3" stroke="#000100" stroke-width="2.4" stroke-linecap="round" stroke-linejoin="round" stroke-miterlimit="10" d="
				M261.9,95.573c-15.475,0-37.779,0-48.395,0c-10.617,0-16.66-21.279-16.66-21.279h81.714
				C278.559,74.294,277.375,95.573,261.9,95.573z"/>
		</g>
		<g clip-path="url(#SVGID_2_)">
			
				<rect x="193" y="116" fill="#000100" stroke="#000100" stroke-width="2.4" stroke-linecap="round" stroke-linejoin="round" stroke-miterlimit="10" width="1.606" height="70.637"/>
			
				<path fill="#37A6DE" stroke="#000100" stroke-width="2.4" stroke-linecap="round" stroke-linejoin="round" stroke-miterlimit="10" d="
				M192.746,132.775v38.145h-29.781C162.965,170.92,189.751,149.711,192.746,132.775z"/>
			
				<path fill="#F0E443" stroke="#000100" stroke-width="2.4" stroke-linecap="round" stroke-linejoin="round" stroke-miterlimit="10" d="
				M236.292,170.92c0,0-38.235-37.768-43.292-54.92v54.92H236.292z"/>
			
				<path fill="#EED2A3" stroke="#000100" stroke-width="2.4" stroke-linecap="round" stroke-linejoin="round" stroke-miterlimit="10" d="
				M219.632,203.436c-15.475,0-37.779,0-48.395,0c-10.617,0-16.659-21.28-16.659-21.28h81.713
				C236.292,182.155,235.108,203.436,219.632,203.436z"/>
		</g>
		
			<line clip-path="url(#SVGID_2_)" fill="none" stroke="#000100" stroke-width="2.4" stroke-linecap="round" stroke-linejoin="round" stroke-miterlimit="10" x1="7.851" y1="118" x2="166.217" y2="118"/>
		
			<line clip-path="url(#SVGID_2_)" fill="none" stroke="#000100" stroke-width="2.4" stroke-linecap="round" stroke-linejoin="round" stroke-miterlimit="10" x1="157.121" y1="17.316" x2="210.281" y2="17.316"/>
	</g>
</g>
</svg>
