<?xml version="1.0" encoding="utf-8"?>
<!-- Generator: Adobe Illustrator 16.0.0, SVG Export Plug-In . SVG Version: 6.00 Build 0)  -->
<!DOCTYPE svg PUBLIC "-//W3C//DTD SVG 1.1//EN" "http://www.w3.org/Graphics/SVG/1.1/DTD/svg11.dtd">
<svg version="1.1" xmlns="http://www.w3.org/2000/svg" xmlns:xlink="http://www.w3.org/1999/xlink" x="0px" y="0px" width="220px"
	 height="220px" viewBox="0 0 220 220" enable-background="new 0 0 220 220" xml:space="preserve">
<g id="bg" display="none">
	<rect x="-2245.836" y="-981.787" display="inline" fill="#FFFFFF" width="3240.076" height="8444.104"/>
</g>
<g id="Layer_3" display="none">
</g>
<g id="Layer_1">
	<g>
		<defs>
			<rect id="SVGID_261_" x="-1800" width="220" height="220"/>
		</defs>
		<clipPath id="SVGID_2_">
			<use xlink:href="#SVGID_261_"  overflow="visible"/>
		</clipPath>
	</g>
	<g>
		<defs>
			<rect id="SVGID_263_" x="-600" width="220" height="220"/>
		</defs>
		<clipPath id="SVGID_4_">
			<use xlink:href="#SVGID_263_"  overflow="visible"/>
		</clipPath>
	</g>
	<g>
		<defs>
			<rect id="SVGID_265_" x="0" width="220" height="220"/>
		</defs>
		<clipPath id="SVGID_6_">
			<use xlink:href="#SVGID_265_"  overflow="visible"/>
		</clipPath>
		<g clip-path="url(#SVGID_6_)">
			<g>
				<rect x="0" fill="#0073B3" width="220" height="220"/>
			</g>
		</g>
		<g clip-path="url(#SVGID_6_)">
			
				<rect x="211.057" y="31.175" fill="#000100" stroke="#000100" stroke-width="2.4" stroke-linecap="round" stroke-linejoin="round" stroke-miterlimit="10" width="11.694" height="13.68"/>
			
				<rect x="203.4" y="44.447" fill="#C8C8C8" stroke="#000100" stroke-width="2.4" stroke-linecap="round" stroke-linejoin="round" stroke-miterlimit="10" width="48.13" height="32.636"/>
			<g>
				
					<polyline fill="#29265B" stroke="#000100" stroke-width="2.4" stroke-linecap="round" stroke-linejoin="round" stroke-miterlimit="10" points="
					283.223,71.521 292.077,66.474 187.833,72.138 199.245,87.103 				"/>
			</g>
			
				<circle fill="#FFFFFF" stroke="#000100" stroke-width="2.4" stroke-linecap="round" stroke-linejoin="round" stroke-miterlimit="10" cx="214.08" cy="56.331" r="4.798"/>
			
				<path fill="#BD1823" stroke="#000100" stroke-width="2.4" stroke-linecap="round" stroke-linejoin="round" stroke-miterlimit="10" d="
				M194.687,80.852l10.699,14.088h65.805c0,0,14.917-24.976,20.886-28.466L194.687,80.852z"/>
		</g>
		<g clip-path="url(#SVGID_6_)">
			
				<rect x="127.893" y="8.138" fill="#000100" stroke="#000100" stroke-width="2.4" stroke-linecap="round" stroke-linejoin="round" stroke-miterlimit="10" width="1.606" height="70.636"/>
			
				<path fill="#37A6DE" stroke="#000100" stroke-width="2.4" stroke-linecap="round" stroke-linejoin="round" stroke-miterlimit="10" d="
				M129.753,24.914v38.144h29.781C159.535,63.058,132.748,41.849,129.753,24.914z"/>
			
				<path fill="#F0E443" stroke="#000100" stroke-width="2.4" stroke-linecap="round" stroke-linejoin="round" stroke-miterlimit="10" d="
				M86.208,63.058c0,0,38.235-37.768,43.292-54.92v54.92H86.208z"/>
			
				<path fill="#EED2A3" stroke="#000100" stroke-width="2.4" stroke-linecap="round" stroke-linejoin="round" stroke-miterlimit="10" d="
				M102.867,95.573c15.476,0,37.779,0,48.396,0s16.659-21.279,16.659-21.279H86.208C86.208,74.294,87.391,95.573,102.867,95.573z"/>
		</g>
		<g clip-path="url(#SVGID_6_)">
			
				<rect x="168.79" y="139.037" fill="#000100" stroke="#000100" stroke-width="2.4" stroke-linecap="round" stroke-linejoin="round" stroke-miterlimit="10" width="11.694" height="13.679"/>
			
				<rect x="161.132" y="152.309" fill="#C8C8C8" stroke="#000100" stroke-width="2.4" stroke-linecap="round" stroke-linejoin="round" stroke-miterlimit="10" width="48.13" height="32.637"/>
			<g>
				
					<polyline fill="#29265B" stroke="#000100" stroke-width="2.4" stroke-linecap="round" stroke-linejoin="round" stroke-miterlimit="10" points="
					240.956,179.383 249.809,174.336 145.565,180 156.977,194.965 				"/>
			</g>
			
				<circle fill="#FFFFFF" stroke="#000100" stroke-width="2.4" stroke-linecap="round" stroke-linejoin="round" stroke-miterlimit="10" cx="171.812" cy="164.193" r="4.798"/>
			
				<circle fill="#FFFFFF" stroke="#000100" stroke-width="2.4" stroke-linecap="round" stroke-linejoin="round" stroke-miterlimit="10" cx="185.583" cy="164.193" r="4.798"/>
			
				<circle fill="#FFFFFF" stroke="#000100" stroke-width="2.4" stroke-linecap="round" stroke-linejoin="round" stroke-miterlimit="10" cx="199.353" cy="164.193" r="4.798"/>
			
				<path fill="#BD1823" stroke="#000100" stroke-width="2.4" stroke-linecap="round" stroke-linejoin="round" stroke-miterlimit="10" d="
				M152.419,188.713l10.699,14.09h65.805c0,0,14.917-24.977,20.886-28.467L152.419,188.713z"/>
		</g>
		<g clip-path="url(#SVGID_6_)">
			
				<rect x="-8.943" y="31.175" fill="#000100" stroke="#000100" stroke-width="2.4" stroke-linecap="round" stroke-linejoin="round" stroke-miterlimit="10" width="11.694" height="13.68"/>
			
				<rect x="-16.6" y="44.447" fill="#C8C8C8" stroke="#000100" stroke-width="2.4" stroke-linecap="round" stroke-linejoin="round" stroke-miterlimit="10" width="48.13" height="32.636"/>
			<g>
				
					<polyline fill="#29265B" stroke="#000100" stroke-width="2.4" stroke-linecap="round" stroke-linejoin="round" stroke-miterlimit="10" points="
					63.223,71.521 72.077,66.474 -32.167,72.138 -20.755,87.103 				"/>
			</g>
			
				<circle fill="#FFFFFF" stroke="#000100" stroke-width="2.4" stroke-linecap="round" stroke-linejoin="round" stroke-miterlimit="10" cx="-5.92" cy="56.331" r="4.798"/>
			
				<circle fill="#FFFFFF" stroke="#000100" stroke-width="2.4" stroke-linecap="round" stroke-linejoin="round" stroke-miterlimit="10" cx="7.85" cy="56.331" r="4.798"/>
			
				<circle fill="#FFFFFF" stroke="#000100" stroke-width="2.4" stroke-linecap="round" stroke-linejoin="round" stroke-miterlimit="10" cx="21.62" cy="56.331" r="4.799"/>
			
				<path fill="#BD1823" stroke="#000100" stroke-width="2.4" stroke-linecap="round" stroke-linejoin="round" stroke-miterlimit="10" d="
				M-25.313,80.852l10.699,14.088h65.805c0,0,14.917-24.976,20.886-28.466L-25.313,80.852z"/>
		</g>
		<g clip-path="url(#SVGID_6_)">
			<g>
				
					<polyline fill="#29265B" stroke="#000100" stroke-width="2.4" stroke-linecap="round" stroke-linejoin="round" stroke-miterlimit="10" points="
					20.956,179.383 29.809,174.336 -74.435,180 -63.023,194.965 				"/>
			</g>
			
				<path fill="#BD1823" stroke="#000100" stroke-width="2.4" stroke-linecap="round" stroke-linejoin="round" stroke-miterlimit="10" d="
				M-67.581,188.713l10.699,14.09H8.923c0,0,14.917-24.977,20.886-28.467L-67.581,188.713z"/>
		</g>
		<g clip-path="url(#SVGID_6_)">
			
				<rect x="85.625" y="116" fill="#000100" stroke="#000100" stroke-width="2.4" stroke-linecap="round" stroke-linejoin="round" stroke-miterlimit="10" width="1.606" height="70.637"/>
			
				<path fill="#37A6DE" stroke="#000100" stroke-width="2.4" stroke-linecap="round" stroke-linejoin="round" stroke-miterlimit="10" d="
				M87.486,132.775v38.145h29.781C117.267,170.92,90.48,149.711,87.486,132.775z"/>
			
				<path fill="#F0E443" stroke="#000100" stroke-width="2.4" stroke-linecap="round" stroke-linejoin="round" stroke-miterlimit="10" d="
				M43.94,170.92c0,0,38.235-37.768,43.292-54.92v54.92H43.94z"/>
			
				<path fill="#EED2A3" stroke="#000100" stroke-width="2.4" stroke-linecap="round" stroke-linejoin="round" stroke-miterlimit="10" d="
				M60.599,203.436c15.476,0,37.779,0,48.396,0s16.659-21.28,16.659-21.28H43.94C43.94,182.155,45.124,203.436,60.599,203.436z"/>
		</g>
	</g>
	<g>
		<defs>
			<rect id="SVGID_267_" x="-300" width="220" height="220"/>
		</defs>
		<clipPath id="SVGID_8_">
			<use xlink:href="#SVGID_267_"  overflow="visible"/>
		</clipPath>
	</g>
	<g>
		<defs>
			<rect id="SVGID_269_" x="-1500" width="220" height="220"/>
		</defs>
		<clipPath id="SVGID_10_">
			<use xlink:href="#SVGID_269_"  overflow="visible"/>
		</clipPath>
	</g>
	<g>
		<defs>
			<rect id="SVGID_271_" x="-900" width="220" height="220"/>
		</defs>
		<clipPath id="SVGID_12_">
			<use xlink:href="#SVGID_271_"  overflow="visible"/>
		</clipPath>
	</g>
</g>
</svg>
