<?xml version="1.0" encoding="utf-8"?>
<!-- Generator: Adobe Illustrator 16.0.0, SVG Export Plug-In . SVG Version: 6.00 Build 0)  -->
<!DOCTYPE svg PUBLIC "-//W3C//DTD SVG 1.1//EN" "http://www.w3.org/Graphics/SVG/1.1/DTD/svg11.dtd">
<svg version="1.1" xmlns="http://www.w3.org/2000/svg" xmlns:xlink="http://www.w3.org/1999/xlink" x="0px" y="0px" width="1920px"
	 height="1080px" viewBox="0 0 1920 1080" enable-background="new 0 0 1920 1080" xml:space="preserve">
<symbol  id="naprej_2_" viewBox="-4.422 -10.786 21.572 21.572">
	<polygon fill="#32BCAD" points="17.15,-10.786 -4.422,-10.786 -4.422,10.786 17.15,10.786 	"/>
	<polyline fill="none" stroke="#FFFFFF" stroke-width="1.1354" stroke-miterlimit="10" points="4.773,3.182 7.955,0 4.773,-3.182 	
		"/>
</symbol>
<g id="Layer_6">
</g>
<g id="gb">
	<g id="naprej">
	</g>
	<g id="nazaj">
	</g>
	<g id="naprej_1_">
	</g>
	<g>
		<g>
			<path fill="#32BCAD" d="M182.78,154.964h16.62l-0.9,6.479H174.86v-41.458h7.919V154.964z"/>
			<path fill="#32BCAD" d="M232.819,145.544c0,10.02-5.58,16.799-14.939,16.799c-9.359,0-14.939-6.359-14.939-16.799
				c0-9.96,5.58-16.739,14.999-16.739C227.299,128.805,232.819,135.164,232.819,145.544z M211.04,145.544
				c0,7.619,2.34,10.979,6.839,10.979c4.5,0,6.84-3.42,6.84-10.979s-2.34-10.92-6.78-10.92
				C213.44,134.624,211.04,138.044,211.04,145.544z"/>
			<path fill="#32BCAD" d="M263.119,132.524l-3.42,4.62c-2.1-1.561-4.02-2.28-6.419-2.28c-4.44,0-7.14,3.24-7.14,10.859
				c0,7.68,2.82,10.38,7.14,10.38c2.4,0,4.08-0.78,6.419-2.28l3.42,4.86c-2.88,2.34-6.18,3.659-10.259,3.659
				c-9.18,0-14.879-6.359-14.879-16.499s5.7-17.039,14.819-17.039C256.939,128.805,260.12,129.944,263.119,132.524z
				 M263.539,116.805l-8.279,7.5h-4.86l-8.34-7.5l2.94-3.359l7.8,5.279l7.799-5.279L263.539,116.805z"/>
			<path fill="#32BCAD" d="M277.339,118.305c0,2.58-1.979,4.62-4.859,4.62c-2.82,0-4.8-2.04-4.8-4.62c0-2.64,1.979-4.68,4.8-4.68
				C275.36,113.625,277.339,115.665,277.339,118.305z M276.379,161.443h-7.68v-31.739h7.68V161.443z"/>
			<path fill="#32BCAD" d="M285.32,154.184v-37.198l7.68-0.84v37.798c0,1.5,0.54,2.22,1.8,2.22c0.72,0,1.26-0.119,1.8-0.3
				l1.62,5.399c-1.32,0.601-3.12,1.08-5.1,1.08C288.26,162.343,285.32,159.403,285.32,154.184z"/>
			<path fill="#32BCAD" d="M329.178,157.123l-1.62,5.101c-3.48-0.301-5.76-1.5-7.02-4.62c-2.22,3.359-5.7,4.739-9.479,4.739
				c-6.359,0-10.259-4.02-10.259-9.779c0-6.899,5.22-10.619,14.459-10.619h3.959v-1.801c0-4.14-1.86-5.52-5.939-5.52
				c-2.16,0-5.22,0.601-8.4,1.68l-1.8-5.219c3.9-1.5,7.919-2.28,11.52-2.28c8.459,0,12.18,3.899,12.18,10.919v13.32
				C326.779,155.624,327.619,156.523,329.178,157.123z M319.219,152.863v-6.419h-3.18c-4.98,0-7.44,1.8-7.44,5.52
				c0,3.06,1.56,4.8,4.5,4.8C315.799,156.764,317.779,155.384,319.219,152.863z"/>
		</g>
	</g>
	<g>
		<path d="M234.438,325.688h-3.848v-3.984h3.848V325.688z"/>
	</g>
	<g>
		<path d="M360.227,324.751l-2.93,5.977h-2.285l1.367-6.172v-3.184h3.848V324.751z"/>
	</g>
	<g>
		<path d="M485.166,316.353h-3.848v-19.102h3.848V316.353z M485.186,325.688h-3.867v-3.984h3.867V325.688z"/>
	</g>
	<g>
		<path d="M600.886,317.681c0.013-1.888,0.176-3.196,0.488-3.926c0.313-0.729,1.133-1.692,2.461-2.891
			c1.289-1.523,2.207-2.695,2.754-3.516s0.82-1.81,0.82-2.969c0-1.38-0.368-2.441-1.104-3.184s-1.787-1.113-3.154-1.113
			c-1.185,0-2.194,0.322-3.027,0.967s-1.25,1.592-1.25,2.842h-3.672l-0.059-0.117c-0.039-2.096,0.7-3.775,2.217-5.039
			c1.517-1.263,3.447-1.895,5.791-1.895c2.565,0,4.558,0.654,5.977,1.963s2.129,3.135,2.129,5.479c0,1.68-0.459,3.217-1.377,4.609
			c-0.918,1.394-2.132,2.819-3.643,4.277c-0.703,0.703-1.13,1.335-1.279,1.895c-0.149,0.561-0.225,1.433-0.225,2.617H600.886z
			 M604.87,325.688h-4.023v-4.063h4.023V325.688z"/>
	</g>
	<g>
		<path d="M730.63,308.579h-3.848v-3.984h3.848V308.579z M730.63,325.688h-3.848v-3.984h3.848V325.688z"/>
	</g>
	<g>
		<path d="M855.932,324.751l-2.93,5.977h-2.285l1.367-6.172v-3.184h3.848V324.751z M855.795,308.579h-3.848v-3.984h3.848V308.579z"
			/>
	</g>
	<g>
		<path d="M965.079,314.146c0-5.13,1.035-9.512,3.105-13.145s4.245-6.055,6.523-7.266l0.117,0.02l0.742,2.266
			c-1.784,1.394-3.337,3.627-4.658,6.699c-1.321,3.073-1.982,6.869-1.982,11.387v0.254c0,4.519,0.657,8.314,1.973,11.387
			s2.871,5.364,4.668,6.875l-0.742,2.109h-0.117c-2.278-1.211-4.453-3.63-6.523-7.256s-3.105-8.011-3.105-13.154V314.146z"/>
	</g>
	<g>
		<path d="M1108.252,314.321c0,5.144-1.038,9.528-3.115,13.154s-4.248,6.045-6.514,7.256h-0.117l-0.742-2.109
			c1.758-1.367,3.304-3.617,4.639-6.748s2.002-6.969,2.002-11.514v-0.254c0-4.453-0.687-8.252-2.061-11.396s-2.9-5.433-4.58-6.865
			l0.742-2.109h0.117c2.266,1.211,4.437,3.633,6.514,7.266s3.115,8.015,3.115,13.145V314.321z"/>
	</g>
	<g>
		<path d="M1225.184,307.153l5.762,7.598v0.371l-5.762,7.598h-2.891l4.98-7.773l-4.98-7.793H1225.184z M1231.941,307.153
			l5.762,7.598v0.371l-5.762,7.598h-2.891l4.98-7.773l-4.98-7.793H1231.941z"/>
	</g>
	<g>
		<path d="M1350.952,315.61l4.98,7.773h-2.891l-5.762-7.598v-0.371l5.762-7.598h2.891L1350.952,315.61z M1357.476,315.61l4.98,7.773
			h-2.891l-5.762-7.598v-0.371l5.762-7.598h2.891L1357.476,315.61z"/>
	</g>
	<g>
		<path d="M209.444,391.86c0-2.271,0.778-4.188,2.337-5.746s3.44-2.337,5.648-2.337c2.271,0,4.188,0.778,5.746,2.337
			c1.558,1.559,2.337,3.475,2.337,5.746c0,2.208-0.779,4.09-2.337,5.648c-1.559,1.559-3.475,2.338-5.746,2.338
			c-2.208,0-4.09-0.779-5.648-2.338S209.444,394.068,209.444,391.86z M215.287,365.03c0-0.635,0.205-1.158,0.619-1.572
			c0.413-0.412,0.904-0.619,1.477-0.619c0.633,0,1.156,0.207,1.57,0.619c0.412,0.414,0.619,0.938,0.619,1.572
			c0,0.636-0.207,1.159-0.619,1.572c-0.414,0.414-0.938,0.619-1.57,0.619c-0.572,0-1.063-0.205-1.477-0.619
			C215.492,366.189,215.287,365.666,215.287,365.03z M215.287,418.739c0-0.648,0.205-1.184,0.619-1.607
			c0.413-0.421,0.904-0.633,1.477-0.633c0.633,0,1.156,0.212,1.57,0.633c0.412,0.424,0.619,0.959,0.619,1.607
			c0,0.584-0.207,1.088-0.619,1.51c-0.414,0.423-0.938,0.633-1.57,0.633c-0.572,0-1.063-0.21-1.477-0.633
			C215.492,419.827,215.287,419.323,215.287,418.739z M236.42,391.86c0-2.271,0.779-4.188,2.338-5.746
			c1.558-1.559,3.473-2.337,5.746-2.337c2.206,0,4.09,0.778,5.648,2.337c1.558,1.559,2.337,3.475,2.337,5.746
			c0,2.208-0.779,4.09-2.337,5.648c-1.559,1.559-3.442,2.338-5.648,2.338c-2.273,0-4.188-0.779-5.746-2.338
			C237.199,395.95,236.42,394.068,236.42,391.86z M236.42,418.739c0-2.271,0.779-4.188,2.338-5.746
			c1.558-1.559,3.473-2.337,5.746-2.337c2.206,0,4.09,0.778,5.648,2.337c1.558,1.559,2.337,3.475,2.337,5.746
			c0,2.208-0.779,4.09-2.337,5.648c-1.559,1.559-3.442,2.338-5.648,2.338c-2.273,0-4.188-0.779-5.746-2.338
			C237.199,422.829,236.42,420.947,236.42,418.739z M242.264,365.03c0-0.635,0.21-1.158,0.633-1.572
			c0.422-0.412,0.957-0.619,1.607-0.619c0.647,0,1.184,0.207,1.606,0.619c0.422,0.414,0.633,0.938,0.633,1.572
			c0,0.636-0.211,1.159-0.633,1.572c-0.423,0.414-0.959,0.619-1.606,0.619c-0.65,0-1.186-0.205-1.607-0.619
			C242.474,366.189,242.264,365.666,242.264,365.03z"/>
		<path d="M335.463,394.782c0-2.467,0.859-4.561,2.58-6.281c1.72-1.721,3.813-2.581,6.282-2.581c2.466,0,4.56,0.86,6.281,2.581
			c1.72,1.721,2.58,3.814,2.58,6.281c0,2.468-0.86,4.545-2.58,6.232c-1.722,1.689-3.815,2.532-6.281,2.532
			c-2.469,0-4.563-0.843-6.282-2.532C336.322,399.327,335.463,397.25,335.463,394.782z M341.89,365.177
			c0-0.715,0.228-1.299,0.682-1.754c0.454-0.453,1.038-0.682,1.754-0.682c0.713,0,1.298,0.229,1.753,0.682
			c0.453,0.455,0.682,1.039,0.682,1.754s-0.229,1.299-0.682,1.752c-0.455,0.455-1.04,0.682-1.753,0.682
			c-0.716,0-1.3-0.227-1.754-0.682C342.117,366.476,341.89,365.892,341.89,365.177z M341.89,424.29c0-0.713,0.228-1.298,0.682-1.752
			s1.038-0.682,1.754-0.682c0.713,0,1.298,0.228,1.753,0.682c0.453,0.454,0.682,1.039,0.682,1.752c0,0.715-0.229,1.3-0.682,1.754
			c-0.455,0.455-1.04,0.682-1.753,0.682c-0.716,0-1.3-0.227-1.754-0.682C342.117,425.59,341.89,425.005,341.89,424.29z
			 M371.593,365.177c0-0.715,0.228-1.299,0.683-1.754c0.453-0.453,1.037-0.682,1.753-0.682c0.713,0,1.298,0.229,1.753,0.682
			c0.453,0.455,0.682,1.039,0.682,1.754s-0.229,1.299-0.682,1.752c-0.455,0.455-1.04,0.682-1.753,0.682
			c-0.716,0-1.3-0.227-1.753-0.682C371.82,366.476,371.593,365.892,371.593,365.177z M371.593,394.782
			c0-0.714,0.228-1.299,0.683-1.754c0.453-0.453,1.037-0.682,1.753-0.682c0.713,0,1.298,0.229,1.753,0.682
			c0.453,0.455,0.682,1.04,0.682,1.754c0,0.715-0.229,1.299-0.682,1.753c-0.455,0.454-1.04,0.682-1.753,0.682
			c-0.716,0-1.3-0.228-1.753-0.682C371.82,396.081,371.593,395.497,371.593,394.782z M371.593,424.29
			c0-0.713,0.228-1.298,0.683-1.752c0.453-0.454,1.037-0.682,1.753-0.682c0.713,0,1.298,0.228,1.753,0.682
			c0.453,0.454,0.682,1.039,0.682,1.752c0,0.715-0.229,1.3-0.682,1.754c-0.455,0.455-1.04,0.682-1.753,0.682
			c-0.716,0-1.3-0.227-1.753-0.682C371.82,425.59,371.593,425.005,371.593,424.29z"/>
		<path d="M459.438,391.86c0-2.271,0.778-4.188,2.337-5.746s3.473-2.337,5.746-2.337c2.206,0,4.09,0.778,5.648,2.337
			c1.558,1.559,2.337,3.475,2.337,5.746c0,2.208-0.779,4.09-2.337,5.648c-1.559,1.559-3.442,2.338-5.648,2.338
			c-2.273,0-4.188-0.779-5.746-2.338S459.438,394.068,459.438,391.86z M459.438,418.739c0-2.271,0.778-4.188,2.337-5.746
			s3.473-2.337,5.746-2.337c2.206,0,4.09,0.778,5.648,2.337c1.558,1.559,2.337,3.475,2.337,5.746c0,2.208-0.779,4.09-2.337,5.648
			c-1.559,1.559-3.442,2.338-5.648,2.338c-2.273,0-4.188-0.779-5.746-2.338S459.438,420.947,459.438,418.739z M465.28,365.03
			c0-0.635,0.21-1.158,0.633-1.572c0.422-0.412,0.957-0.619,1.607-0.619c0.584,0,1.086,0.207,1.509,0.619
			c0.422,0.414,0.634,0.938,0.634,1.572c0,0.636-0.212,1.159-0.634,1.572c-0.423,0.414-0.925,0.619-1.509,0.619
			c-0.65,0-1.186-0.205-1.607-0.619C465.49,366.189,465.28,365.666,465.28,365.03z M486.413,391.86c0-2.271,0.779-4.188,2.338-5.746
			c1.558-1.559,3.473-2.337,5.746-2.337c2.206,0,4.09,0.778,5.648,2.337c1.558,1.559,2.337,3.475,2.337,5.746
			c0,2.208-0.779,4.09-2.337,5.648c-1.559,1.559-3.442,2.338-5.648,2.338c-2.273,0-4.188-0.779-5.746-2.338
			C487.192,395.95,486.413,394.068,486.413,391.86z M492.257,365.03c0-0.635,0.21-1.158,0.633-1.572
			c0.422-0.412,0.957-0.619,1.607-0.619c0.647,0,1.184,0.207,1.606,0.619c0.422,0.414,0.633,0.938,0.633,1.572
			c0,0.636-0.211,1.159-0.633,1.572c-0.423,0.414-0.959,0.619-1.606,0.619c-0.65,0-1.186-0.205-1.607-0.619
			C492.467,366.189,492.257,365.666,492.257,365.03z M492.257,418.739c0-0.648,0.21-1.184,0.633-1.607
			c0.422-0.421,0.957-0.633,1.607-0.633c0.647,0,1.184,0.212,1.606,0.633c0.422,0.424,0.633,0.959,0.633,1.607
			c0,0.65-0.211,1.169-0.633,1.559c-0.423,0.389-0.959,0.584-1.606,0.584c-0.65,0-1.186-0.195-1.607-0.584
			C492.467,419.908,492.257,419.39,492.257,418.739z"/>
		<path d="M585.456,391.86c0-2.271,0.778-4.188,2.337-5.746s3.44-2.337,5.648-2.337c2.271,0,4.188,0.778,5.746,2.337
			c1.558,1.559,2.337,3.475,2.337,5.746c0,2.208-0.779,4.09-2.337,5.648c-1.559,1.559-3.475,2.338-5.746,2.338
			c-2.208,0-4.09-0.779-5.648-2.338S585.456,394.068,585.456,391.86z M591.299,365.03c0-0.635,0.205-1.158,0.619-1.572
			c0.413-0.412,0.904-0.619,1.477-0.619c0.633,0,1.156,0.207,1.57,0.619c0.412,0.414,0.619,0.938,0.619,1.572
			c0,0.636-0.207,1.159-0.619,1.572c-0.414,0.414-0.938,0.619-1.57,0.619c-0.572,0-1.063-0.205-1.477-0.619
			C591.504,366.189,591.299,365.666,591.299,365.03z M591.299,418.739c0-0.648,0.205-1.184,0.619-1.607
			c0.413-0.421,0.904-0.633,1.477-0.633c0.633,0,1.156,0.212,1.57,0.633c0.412,0.424,0.619,0.959,0.619,1.607
			c0,0.584-0.207,1.088-0.619,1.51c-0.414,0.423-0.938,0.633-1.57,0.633c-0.572,0-1.063-0.21-1.477-0.633
			C591.504,419.827,591.299,419.323,591.299,418.739z M612.432,418.739c0-2.271,0.779-4.188,2.338-5.746
			c1.558-1.559,3.473-2.337,5.746-2.337c2.206,0,4.09,0.778,5.648,2.337c1.558,1.559,2.337,3.475,2.337,5.746
			c0,2.208-0.779,4.09-2.337,5.648c-1.559,1.559-3.442,2.338-5.648,2.338c-2.273,0-4.188-0.779-5.746-2.338
			C613.211,422.829,612.432,420.947,612.432,418.739z M618.275,365.03c0-0.635,0.21-1.158,0.633-1.572
			c0.422-0.412,0.957-0.619,1.607-0.619c0.647,0,1.184,0.207,1.606,0.619c0.422,0.414,0.633,0.938,0.633,1.572
			c0,0.636-0.211,1.159-0.633,1.572c-0.423,0.414-0.959,0.619-1.606,0.619c-0.65,0-1.186-0.205-1.607-0.619
			C618.485,366.189,618.275,365.666,618.275,365.03z M618.275,391.86c0-0.648,0.21-1.184,0.633-1.607
			c0.422-0.421,0.957-0.633,1.607-0.633c0.647,0,1.184,0.212,1.606,0.633c0.422,0.424,0.633,0.959,0.633,1.607
			c0,0.584-0.211,1.088-0.633,1.51c-0.423,0.423-0.959,0.633-1.606,0.633c-0.65,0-1.186-0.21-1.607-0.633
			C618.485,392.948,618.275,392.444,618.275,391.86z"/>
		<path d="M705.827,394.685c0-2.467,0.859-4.544,2.58-6.232c1.72-1.688,3.813-2.532,6.281-2.532c2.467,0,4.561,0.845,6.282,2.532
			c1.72,1.688,2.58,3.766,2.58,6.232c0,2.469-0.86,4.563-2.58,6.281c-1.722,1.721-3.815,2.581-6.282,2.581
			c-2.468,0-4.562-0.86-6.281-2.581C706.687,399.247,705.827,397.153,705.827,394.685z M712.254,365.177
			c0-0.715,0.228-1.299,0.682-1.754c0.454-0.453,1.038-0.682,1.753-0.682c0.714,0,1.299,0.229,1.754,0.682
			c0.453,0.455,0.682,1.039,0.682,1.754s-0.229,1.299-0.682,1.752c-0.455,0.455-1.04,0.682-1.754,0.682
			c-0.715,0-1.299-0.227-1.753-0.682C712.481,366.476,712.254,365.892,712.254,365.177z M712.254,424.29
			c0-0.713,0.228-1.298,0.682-1.752s1.038-0.682,1.753-0.682c0.714,0,1.299,0.228,1.754,0.682c0.453,0.454,0.682,1.039,0.682,1.752
			c0,0.715-0.229,1.3-0.682,1.754c-0.455,0.455-1.04,0.682-1.754,0.682c-0.715,0-1.299-0.227-1.753-0.682
			C712.481,425.59,712.254,425.005,712.254,424.29z M735.433,394.685c0-2.467,0.859-4.544,2.581-6.232
			c1.719-1.688,3.813-2.532,6.281-2.532c2.467,0,4.561,0.845,6.281,2.532c1.72,1.688,2.581,3.766,2.581,6.232
			c0,2.469-0.861,4.563-2.581,6.281c-1.721,1.721-3.814,2.581-6.281,2.581c-2.469,0-4.563-0.86-6.281-2.581
			C736.292,399.247,735.433,397.153,735.433,394.685z M741.86,365.177c0-0.715,0.227-1.299,0.682-1.754
			c0.453-0.453,1.037-0.682,1.753-0.682c0.714,0,1.298,0.229,1.753,0.682c0.453,0.455,0.682,1.039,0.682,1.754
			s-0.229,1.299-0.682,1.752c-0.455,0.455-1.039,0.682-1.753,0.682c-0.716,0-1.3-0.227-1.753-0.682
			C742.087,366.476,741.86,365.892,741.86,365.177z M741.86,424.29c0-0.713,0.227-1.298,0.682-1.752
			c0.453-0.454,1.037-0.682,1.753-0.682c0.714,0,1.298,0.228,1.753,0.682c0.453,0.454,0.682,1.039,0.682,1.752
			c0,0.715-0.229,1.3-0.682,1.754c-0.455,0.455-1.039,0.682-1.753,0.682c-0.716,0-1.3-0.227-1.753-0.682
			C742.087,425.59,741.86,425.005,741.86,424.29z"/>
		<path d="M830.482,391.86c0-2.271,0.778-4.188,2.337-5.746s3.473-2.337,5.746-2.337c2.206,0,4.09,0.778,5.648,2.337
			c1.558,1.559,2.337,3.475,2.337,5.746c0,2.208-0.779,4.09-2.337,5.648c-1.559,1.559-3.442,2.338-5.648,2.338
			c-2.273,0-4.188-0.779-5.746-2.338S830.482,394.068,830.482,391.86z M830.482,418.642c0-2.206,0.778-4.09,2.337-5.648
			s3.473-2.337,5.746-2.337c2.206,0,4.09,0.778,5.648,2.337c1.558,1.559,2.337,3.442,2.337,5.648c0,2.273-0.779,4.188-2.337,5.746
			c-1.559,1.559-3.442,2.338-5.648,2.338c-2.273,0-4.188-0.779-5.746-2.338S830.482,420.915,830.482,418.642z M836.325,365.03
			c0-0.635,0.21-1.158,0.633-1.572c0.422-0.412,0.957-0.619,1.607-0.619c0.584,0,1.086,0.207,1.509,0.619
			c0.422,0.414,0.634,0.938,0.634,1.572c0,0.636-0.212,1.159-0.634,1.572c-0.423,0.414-0.925,0.619-1.509,0.619
			c-0.65,0-1.186-0.205-1.607-0.619C836.535,366.189,836.325,365.666,836.325,365.03z M863.204,365.03
			c0-0.635,0.21-1.158,0.633-1.572c0.422-0.412,0.957-0.619,1.607-0.619c0.648,0,1.184,0.207,1.606,0.619
			c0.422,0.414,0.633,0.938,0.633,1.572c0,0.636-0.211,1.159-0.633,1.572c-0.423,0.414-0.958,0.619-1.606,0.619
			c-0.65,0-1.186-0.205-1.607-0.619C863.414,366.189,863.204,365.666,863.204,365.03z M863.204,391.909
			c0-0.635,0.21-1.158,0.633-1.572c0.422-0.412,0.957-0.619,1.607-0.619c0.648,0,1.184,0.207,1.606,0.619
			c0.422,0.414,0.633,0.938,0.633,1.572c0,0.636-0.211,1.159-0.633,1.572c-0.423,0.414-0.958,0.619-1.606,0.619
			c-0.65,0-1.186-0.205-1.607-0.619C863.414,393.068,863.204,392.545,863.204,391.909z M863.204,418.69
			c0-0.635,0.21-1.158,0.633-1.572c0.422-0.412,0.957-0.619,1.607-0.619c0.648,0,1.184,0.207,1.606,0.619
			c0.422,0.414,0.633,0.938,0.633,1.572c0,0.637-0.211,1.16-0.633,1.572c-0.423,0.414-0.958,0.619-1.606,0.619
			c-0.65,0-1.186-0.205-1.607-0.619C863.414,419.851,863.204,419.327,863.204,418.69z"/>
		<path d="M950.658,391.86c0-2.207,0.778-4.105,2.337-5.697c1.559-1.59,3.44-2.386,5.648-2.386c2.271,0,4.188,0.796,5.746,2.386
			c1.558,1.592,2.337,3.49,2.337,5.697c0,2.273-0.779,4.188-2.337,5.746c-1.559,1.559-3.475,2.337-5.746,2.337
			c-2.208,0-4.09-0.778-5.648-2.337S950.658,394.134,950.658,391.86z M950.658,418.739c0-2.271,0.778-4.188,2.337-5.746
			s3.44-2.337,5.648-2.337c2.271,0,4.188,0.778,5.746,2.337c1.558,1.559,2.337,3.475,2.337,5.746c0,2.208-0.779,4.09-2.337,5.648
			c-1.559,1.559-3.475,2.338-5.746,2.338c-2.208,0-4.09-0.779-5.648-2.338S950.658,420.947,950.658,418.739z M956.501,364.981
			c0-0.648,0.21-1.184,0.633-1.607c0.422-0.421,0.926-0.633,1.51-0.633c0.648,0,1.184,0.212,1.606,0.633
			c0.422,0.424,0.634,0.959,0.634,1.607c0,0.584-0.212,1.088-0.634,1.51c-0.423,0.423-0.958,0.633-1.606,0.633
			c-0.584,0-1.088-0.21-1.51-0.633C956.711,366.069,956.501,365.565,956.501,364.981z M977.731,418.739
			c0-2.271,0.779-4.188,2.337-5.746c1.559-1.559,3.441-2.337,5.649-2.337c2.271,0,4.188,0.778,5.745,2.337
			c1.559,1.559,2.338,3.475,2.338,5.746c0,2.208-0.779,4.09-2.338,5.648c-1.558,1.559-3.474,2.338-5.745,2.338
			c-2.208,0-4.091-0.779-5.649-2.338C978.511,422.829,977.731,420.947,977.731,418.739z M983.575,364.981
			c0-0.648,0.189-1.184,0.57-1.607c0.38-0.421,0.889-0.633,1.524-0.633c0.633,0,1.156,0.212,1.57,0.633
			c0.413,0.424,0.619,0.959,0.619,1.607c0,0.584-0.206,1.088-0.619,1.51c-0.414,0.423-0.938,0.633-1.57,0.633
			c-0.636,0-1.145-0.21-1.524-0.633C983.765,366.069,983.575,365.565,983.575,364.981z M983.575,391.909
			c0-0.635,0.189-1.158,0.57-1.572c0.38-0.412,0.889-0.619,1.524-0.619c0.633,0,1.156,0.207,1.57,0.619
			c0.413,0.414,0.619,0.938,0.619,1.572c0,0.636-0.206,1.159-0.619,1.572c-0.414,0.414-0.938,0.619-1.57,0.619
			c-0.636,0-1.145-0.205-1.524-0.619C983.765,393.068,983.575,392.545,983.575,391.909z"/>
		<path d="M1076.774,418.739c0-2.271,0.778-4.188,2.337-5.746s3.44-2.337,5.648-2.337c2.271,0,4.188,0.778,5.746,2.337
			c1.558,1.559,2.337,3.475,2.337,5.746c0,2.208-0.779,4.09-2.337,5.648c-1.559,1.559-3.475,2.338-5.746,2.338
			c-2.208,0-4.09-0.779-5.648-2.338S1076.774,420.947,1076.774,418.739z M1082.617,365.03c0-0.635,0.205-1.158,0.619-1.572
			c0.413-0.412,0.904-0.619,1.477-0.619c0.633,0,1.156,0.207,1.57,0.619c0.412,0.414,0.619,0.938,0.619,1.572
			c0,0.636-0.207,1.159-0.619,1.572c-0.414,0.414-0.938,0.619-1.57,0.619c-0.572,0-1.063-0.205-1.477-0.619
			C1082.822,366.189,1082.617,365.666,1082.617,365.03z M1082.617,391.86c0-0.648,0.205-1.184,0.619-1.607
			c0.413-0.421,0.904-0.633,1.477-0.633c0.633,0,1.156,0.212,1.57,0.633c0.412,0.424,0.619,0.959,0.619,1.607
			c0,0.584-0.207,1.088-0.619,1.51c-0.414,0.423-0.938,0.633-1.57,0.633c-0.572,0-1.063-0.21-1.477-0.633
			C1082.822,392.948,1082.617,392.444,1082.617,391.86z M1103.75,391.86c0-2.271,0.779-4.188,2.338-5.746
			c1.558-1.559,3.473-2.337,5.746-2.337c2.206,0,4.09,0.778,5.648,2.337c1.558,1.559,2.337,3.475,2.337,5.746
			c0,2.208-0.779,4.09-2.337,5.648c-1.559,1.559-3.442,2.338-5.648,2.338c-2.273,0-4.188-0.779-5.746-2.338
			C1104.529,395.95,1103.75,394.068,1103.75,391.86z M1103.75,418.739c0-2.271,0.779-4.188,2.338-5.746
			c1.558-1.559,3.473-2.337,5.746-2.337c2.206,0,4.09,0.778,5.648,2.337c1.558,1.559,2.337,3.475,2.337,5.746
			c0,2.208-0.779,4.09-2.337,5.648c-1.559,1.559-3.442,2.338-5.648,2.338c-2.273,0-4.188-0.779-5.746-2.338
			C1104.529,422.829,1103.75,420.947,1103.75,418.739z M1109.594,365.03c0-0.635,0.21-1.158,0.633-1.572
			c0.422-0.412,0.957-0.619,1.607-0.619c0.647,0,1.184,0.207,1.606,0.619c0.422,0.414,0.633,0.938,0.633,1.572
			c0,0.636-0.211,1.159-0.633,1.572c-0.423,0.414-0.959,0.619-1.606,0.619c-0.65,0-1.186-0.205-1.607-0.619
			C1109.804,366.189,1109.594,365.666,1109.594,365.03z"/>
		<path d="M1202.793,391.86c0-2.207,0.778-4.105,2.337-5.697c1.559-1.59,3.44-2.386,5.648-2.386c2.271,0,4.188,0.796,5.746,2.386
			c1.558,1.592,2.337,3.49,2.337,5.697c0,2.273-0.779,4.188-2.337,5.746c-1.559,1.559-3.475,2.337-5.746,2.337
			c-2.208,0-4.09-0.778-5.648-2.337S1202.793,394.134,1202.793,391.86z M1202.793,418.739c0-2.271,0.778-4.188,2.337-5.746
			s3.44-2.337,5.648-2.337c2.271,0,4.188,0.778,5.746,2.337c1.558,1.559,2.337,3.475,2.337,5.746c0,2.208-0.779,4.09-2.337,5.648
			c-1.559,1.559-3.475,2.338-5.746,2.338c-2.208,0-4.09-0.779-5.648-2.338S1202.793,420.947,1202.793,418.739z M1208.636,364.981
			c0-0.648,0.21-1.184,0.633-1.607c0.422-0.421,0.926-0.633,1.51-0.633c0.648,0,1.184,0.212,1.606,0.633
			c0.422,0.424,0.634,0.959,0.634,1.607c0,0.584-0.212,1.088-0.634,1.51c-0.423,0.423-0.958,0.633-1.606,0.633
			c-0.584,0-1.088-0.21-1.51-0.633C1208.846,366.069,1208.636,365.565,1208.636,364.981z M1229.866,418.739
			c0-2.271,0.779-4.188,2.337-5.746c1.559-1.559,3.441-2.337,5.649-2.337c2.271,0,4.188,0.778,5.745,2.337
			c1.559,1.559,2.338,3.475,2.338,5.746c0,2.208-0.779,4.09-2.338,5.648c-1.558,1.559-3.474,2.338-5.745,2.338
			c-2.208,0-4.091-0.779-5.649-2.338C1230.646,422.829,1229.866,420.947,1229.866,418.739z M1235.71,364.981
			c0-0.648,0.189-1.184,0.57-1.607c0.38-0.421,0.889-0.633,1.524-0.633c0.633,0,1.156,0.212,1.57,0.633
			c0.413,0.424,0.619,0.959,0.619,1.607c0,0.584-0.206,1.088-0.619,1.51c-0.414,0.423-0.938,0.633-1.57,0.633
			c-0.636,0-1.145-0.21-1.524-0.633C1235.899,366.069,1235.71,365.565,1235.71,364.981z M1235.71,391.909
			c0-0.635,0.189-1.158,0.57-1.572c0.38-0.412,0.889-0.619,1.524-0.619c0.633,0,1.156,0.207,1.57,0.619
			c0.413,0.414,0.619,0.938,0.619,1.572c0,0.636-0.206,1.159-0.619,1.572c-0.414,0.414-0.938,0.619-1.57,0.619
			c-0.636,0-1.145-0.205-1.524-0.619C1235.899,393.068,1235.71,392.545,1235.71,391.909z"/>
		<path d="M1328.91,418.739c0-2.271,0.778-4.188,2.337-5.746s3.44-2.337,5.648-2.337c2.271,0,4.188,0.778,5.746,2.337
			c1.558,1.559,2.337,3.475,2.337,5.746c0,2.208-0.779,4.09-2.337,5.648c-1.559,1.559-3.475,2.338-5.746,2.338
			c-2.208,0-4.09-0.779-5.648-2.338S1328.91,420.947,1328.91,418.739z M1334.753,365.03c0-0.635,0.205-1.158,0.619-1.572
			c0.413-0.412,0.904-0.619,1.477-0.619c0.633,0,1.156,0.207,1.57,0.619c0.412,0.414,0.619,0.938,0.619,1.572
			c0,0.636-0.207,1.159-0.619,1.572c-0.414,0.414-0.938,0.619-1.57,0.619c-0.572,0-1.063-0.205-1.477-0.619
			C1334.958,366.189,1334.753,365.666,1334.753,365.03z M1334.753,391.86c0-0.648,0.205-1.184,0.619-1.607
			c0.413-0.421,0.904-0.633,1.477-0.633c0.633,0,1.156,0.212,1.57,0.633c0.412,0.424,0.619,0.959,0.619,1.607
			c0,0.584-0.207,1.088-0.619,1.51c-0.414,0.423-0.938,0.633-1.57,0.633c-0.572,0-1.063-0.21-1.477-0.633
			C1334.958,392.948,1334.753,392.444,1334.753,391.86z M1355.886,391.86c0-2.271,0.779-4.188,2.338-5.746
			c1.558-1.559,3.473-2.337,5.746-2.337c2.206,0,4.09,0.778,5.648,2.337c1.558,1.559,2.337,3.475,2.337,5.746
			c0,2.208-0.779,4.09-2.337,5.648c-1.559,1.559-3.442,2.338-5.648,2.338c-2.273,0-4.188-0.779-5.746-2.338
			C1356.665,395.95,1355.886,394.068,1355.886,391.86z M1355.886,418.739c0-2.271,0.779-4.188,2.338-5.746
			c1.558-1.559,3.473-2.337,5.746-2.337c2.206,0,4.09,0.778,5.648,2.337c1.558,1.559,2.337,3.475,2.337,5.746
			c0,2.208-0.779,4.09-2.337,5.648c-1.559,1.559-3.442,2.338-5.648,2.338c-2.273,0-4.188-0.779-5.746-2.338
			C1356.665,422.829,1355.886,420.947,1355.886,418.739z M1361.729,365.03c0-0.635,0.21-1.158,0.633-1.572
			c0.422-0.412,0.957-0.619,1.607-0.619c0.647,0,1.184,0.207,1.606,0.619c0.422,0.414,0.633,0.938,0.633,1.572
			c0,0.636-0.211,1.159-0.633,1.572c-0.423,0.414-0.959,0.619-1.606,0.619c-0.65,0-1.186-0.205-1.607-0.619
			C1361.939,366.189,1361.729,365.666,1361.729,365.03z"/>
	</g>
	
		<use xlink:href="#naprej_2_"  width="21.572" height="21.572" id="XMLID_8_" x="-4.422" y="-10.786" transform="matrix(2.8293 0 0 -2.8293 1841.9043 1015.6924)" overflow="visible"/>
	
		<use xlink:href="#naprej_2_"  width="21.572" height="21.572" id="XMLID_7_" x="-4.422" y="-10.786" transform="matrix(-2.8293 0 0 2.8293 85.2363 1015.6924)" overflow="visible"/>
	<g>
		<g>
			<rect x="162.532" y="197.853" fill="#35A8DF" width="7.486" height="7.482"/>
			<rect x="181.057" y="197.853" fill="#203341" width="7.483" height="7.482"/>
			<rect x="199.58" y="197.853" fill="#32BCAD" width="7.486" height="7.482"/>
			<rect x="218.105" y="197.853" fill="#FBD639" width="7.483" height="7.482"/>
			<rect x="236.627" y="197.853" fill="#35A8DF" width="7.486" height="7.482"/>
			<rect x="255.151" y="197.853" fill="#203341" width="7.486" height="7.482"/>
			<rect x="273.675" y="197.853" fill="#32BCAD" width="7.485" height="7.482"/>
			<rect x="292.199" y="197.853" fill="#FBD639" width="7.485" height="7.482"/>
			<rect x="310.723" y="197.853" fill="#35A8DF" width="7.484" height="7.482"/>
			<rect x="329.247" y="197.853" fill="#203341" width="7.484" height="7.482"/>
			<rect x="347.77" y="197.853" fill="#32BCAD" width="7.485" height="7.482"/>
			<rect x="366.294" y="197.853" fill="#FBD639" width="7.484" height="7.482"/>
			<rect x="384.818" y="197.853" fill="#35A8DF" width="7.485" height="7.482"/>
			<rect x="403.342" y="197.853" fill="#203341" width="7.484" height="7.482"/>
			<rect x="421.866" y="197.853" fill="#32BCAD" width="7.486" height="7.482"/>
			<rect x="440.388" y="197.853" fill="#FBD639" width="7.486" height="7.482"/>
			<rect x="458.913" y="197.853" fill="#35A8DF" width="7.484" height="7.482"/>
			<rect x="477.436" y="197.853" fill="#203341" width="7.486" height="7.482"/>
			<rect x="495.961" y="197.853" fill="#32BCAD" width="7.483" height="7.482"/>
			<rect x="514.484" y="197.853" fill="#FBD639" width="7.485" height="7.482"/>
			<rect x="530.821" y="197.853" fill="#35A8DF" width="7.484" height="7.482"/>
			<rect x="549.344" y="197.853" fill="#203341" width="7.486" height="7.482"/>
			<rect x="567.869" y="197.853" fill="#32BCAD" width="7.484" height="7.482"/>
			<rect x="586.392" y="197.853" fill="#FBD639" width="7.485" height="7.482"/>
			<rect x="604.917" y="197.853" fill="#35A8DF" width="7.484" height="7.482"/>
			<rect x="623.44" y="197.853" fill="#203341" width="7.484" height="7.482"/>
			<rect x="641.962" y="197.853" fill="#32BCAD" width="7.486" height="7.482"/>
			<rect x="660.488" y="197.853" fill="#FBD639" width="7.483" height="7.482"/>
			<rect x="679.01" y="197.853" fill="#35A8DF" width="7.486" height="7.482"/>
			<rect x="697.536" y="197.853" fill="#203341" width="7.484" height="7.482"/>
			<rect x="716.058" y="197.853" fill="#32BCAD" width="7.485" height="7.482"/>
			<rect x="734.582" y="197.853" fill="#FBD639" width="7.486" height="7.482"/>
			<rect x="753.106" y="197.853" fill="#35A8DF" width="7.485" height="7.482"/>
			<rect x="771.629" y="197.853" fill="#203341" width="7.484" height="7.482"/>
			<rect x="790.153" y="197.853" fill="#32BCAD" width="7.486" height="7.482"/>
			<rect x="808.678" y="197.853" fill="#FBD639" width="7.483" height="7.482"/>
			<rect x="827.201" y="197.853" fill="#35A8DF" width="7.486" height="7.482"/>
			<rect x="845.725" y="197.853" fill="#203341" width="7.484" height="7.482"/>
			<rect x="864.249" y="197.853" fill="#32BCAD" width="7.486" height="7.482"/>
			<rect x="882.772" y="197.853" fill="#FBD639" width="7.485" height="7.482"/>
			<rect x="899.11" y="197.853" fill="#35A8DF" width="7.484" height="7.482"/>
			<rect x="917.632" y="197.853" fill="#203341" width="7.485" height="7.482"/>
			<rect x="936.157" y="197.853" fill="#32BCAD" width="7.485" height="7.482"/>
			<rect x="954.68" y="197.853" fill="#FBD639" width="7.485" height="7.482"/>
			<rect x="973.204" y="197.853" fill="#35A8DF" width="7.484" height="7.482"/>
			<rect x="991.728" y="197.853" fill="#203341" width="7.484" height="7.482"/>
			<rect x="1010.253" y="197.853" fill="#32BCAD" width="7.482" height="7.482"/>
			<rect x="1028.774" y="197.853" fill="#FBD639" width="7.486" height="7.482"/>
			<rect x="1047.298" y="197.853" fill="#35A8DF" width="7.486" height="7.482"/>
			<rect x="1065.823" y="197.853" fill="#203341" width="7.486" height="7.482"/>
			<rect x="1084.345" y="197.853" fill="#32BCAD" width="7.486" height="7.482"/>
			<rect x="1102.87" y="197.853" fill="#FBD639" width="7.486" height="7.482"/>
			<rect x="1121.394" y="197.853" fill="#35A8DF" width="7.486" height="7.482"/>
			<rect x="1139.919" y="197.853" fill="#203341" width="7.482" height="7.482"/>
			<rect x="1158.44" y="197.853" fill="#32BCAD" width="7.486" height="7.482"/>
			<rect x="1176.964" y="197.853" fill="#FBD639" width="7.486" height="7.482"/>
			<rect x="1195.489" y="197.853" fill="#35A8DF" width="7.484" height="7.482"/>
			<rect x="1214.013" y="197.853" fill="#203341" width="7.484" height="7.482"/>
			<rect x="1232.536" y="197.853" fill="#32BCAD" width="7.486" height="7.482"/>
			<rect x="1251.06" y="197.853" fill="#FBD639" width="7.484" height="7.482"/>
		</g>
		<g>
			<rect x="1270.554" y="197.853" fill="#35A8DF" width="7.486" height="7.482"/>
			<rect x="1289.079" y="197.853" fill="#203341" width="7.484" height="7.482"/>
			<rect x="1307.603" y="197.853" fill="#32BCAD" width="7.484" height="7.482"/>
			<rect x="1326.126" y="197.853" fill="#FBD639" width="7.484" height="7.482"/>
			<rect x="1344.649" y="197.853" fill="#35A8DF" width="7.486" height="7.482"/>
			<rect x="1363.173" y="197.853" fill="#203341" width="7.484" height="7.482"/>
			<rect x="1381.696" y="197.853" fill="#32BCAD" width="7.486" height="7.482"/>
			<rect x="1400.222" y="197.853" fill="#FBD639" width="7.484" height="7.482"/>
			<rect x="1418.745" y="197.853" fill="#35A8DF" width="7.484" height="7.482"/>
			<rect x="1437.269" y="197.853" fill="#203341" width="7.484" height="7.482"/>
			<rect x="1455.792" y="197.853" fill="#32BCAD" width="7.484" height="7.482"/>
			<rect x="1474.315" y="197.853" fill="#FBD639" width="7.486" height="7.482"/>
			<rect x="1492.841" y="197.853" fill="#35A8DF" width="7.484" height="7.482"/>
			<rect x="1511.362" y="197.853" fill="#203341" width="7.486" height="7.482"/>
			<rect x="1529.888" y="197.853" fill="#32BCAD" width="7.484" height="7.482"/>
			<rect x="1548.411" y="197.853" fill="#FBD639" width="7.484" height="7.482"/>
			<rect x="1566.935" y="197.853" fill="#35A8DF" width="7.484" height="7.482"/>
			<rect x="1585.458" y="197.853" fill="#203341" width="7.486" height="7.482"/>
			<rect x="1603.981" y="197.853" fill="#32BCAD" width="7.484" height="7.482"/>
			<rect x="1622.505" y="197.853" fill="#FBD639" width="7.486" height="7.482"/>
			<rect x="1638.843" y="197.853" fill="#35A8DF" width="7.484" height="7.482"/>
			<rect x="1657.366" y="197.853" fill="#203341" width="7.484" height="7.482"/>
			<rect x="1675.89" y="197.853" fill="#32BCAD" width="7.486" height="7.482"/>
			<rect x="1694.415" y="197.853" fill="#FBD639" width="7.484" height="7.482"/>
			<rect x="1712.937" y="197.853" fill="#35A8DF" width="7.486" height="7.482"/>
			<rect x="1731.462" y="197.853" fill="#203341" width="7.484" height="7.482"/>
			<rect x="1749.985" y="197.853" fill="#32BCAD" width="7.484" height="7.482"/>
		</g>
	</g>
</g>
<g id="mreza">
</g>
<g id="Layer_1">
</g>
<g id="glava">
</g>
<g id="UČITELJ">
	<g>
		
			<line fill="none" stroke="#000000" stroke-width="2" stroke-miterlimit="10" x1="1843.869" y1="68.169" x2="1875.755" y2="36.284"/>
		
			<line fill="none" stroke="#000000" stroke-width="2" stroke-miterlimit="10" x1="1843.869" y1="36.284" x2="1875.755" y2="68.169"/>
	</g>
</g>
</svg>
