<?xml version="1.0" encoding="utf-8"?>
<!-- Generator: Adobe Illustrator 16.0.0, SVG Export Plug-In . SVG Version: 6.00 Build 0)  -->
<!DOCTYPE svg PUBLIC "-//W3C//DTD SVG 1.1//EN" "http://www.w3.org/Graphics/SVG/1.1/DTD/svg11.dtd">
<svg version="1.1" xmlns="http://www.w3.org/2000/svg" xmlns:xlink="http://www.w3.org/1999/xlink" x="0px" y="0px" width="1920px"
	 height="1080.001px" viewBox="0 0 1920 1080.001" enable-background="new 0 0 1920 1080.001" xml:space="preserve">
<symbol  id="naprej_2_" viewBox="-4.422 -10.786 21.572 21.572">
	<polygon fill="#32BCAD" points="17.15,-10.786 -4.422,-10.786 -4.422,10.786 17.15,10.786 	"/>
	<polyline fill="none" stroke="#FFFFFF" stroke-width="1.1354" stroke-miterlimit="10" points="4.773,3.182 7.955,0 4.773,-3.182 	
		"/>
</symbol>
<g id="Layer_6">
</g>
<g id="gb">
	<g id="naprej">
	</g>
	<g id="nazaj">
	</g>
	<g id="naprej_1_">
		<g>
			<g>
				<path fill="#35A8DF" d="M186.956,310.325c-0.664,1.133-1.517,2.006-2.559,2.617s-2.246,0.918-3.613,0.918
					c-2.305,0-4.102-0.735-5.391-2.207c-1.289-1.471-1.934-3.763-1.934-6.875v-12.461h3.848v12.5c0,2.253,0.332,3.803,0.996,4.648
					c0.664,0.847,1.699,1.27,3.105,1.27c1.367,0,2.497-0.276,3.389-0.83c0.892-0.553,1.565-1.338,2.021-2.354v-15.234h3.848v21.133
					h-3.457L186.956,310.325z"/>
				<path fill="#35A8DF" d="M218.204,300.794h-21.201v-3.027h21.201V300.794z"/>
				<path fill="#35A8DF" d="M227.562,310.423h12.207v3.027h-16.797v-2.715l11.426-15.391h-11.289v-3.027h15.996v2.598
					L227.562,310.423z M231.351,286.614l2.871-2.891h3.32v0.352l-5.02,4.785h-2.324l-4.961-4.746v-0.391h3.242L231.351,286.614z"/>
			</g>
		</g>
		<g>
			<g>
				<path fill="#35A8DF" d="M178.948,676.085l0.449,2.559h0.117l0.547-2.559l4.219-13.438h3.086l4.238,13.438l0.605,2.852h0.117
					l0.566-2.852l3.32-13.438h3.828l-6.133,21.133h-3.105l-4.082-12.871l-0.879-3.594l-0.117,0.02l-0.84,3.574l-4.023,12.871h-3.105
					l-6.133-21.133h3.828L178.948,676.085z"/>
			</g>
		</g>
		<g>
			<path fill="#666666" d="M169.602,366.44v-21.328h6.548c2.793,0,5.034,0.857,6.724,2.57c1.689,1.715,2.534,3.929,2.534,6.644
				v2.915c0,2.725-0.845,4.939-2.534,6.643c-1.689,1.705-3.931,2.557-6.724,2.557H169.602z M172.488,347.383v16.787h3.662
				c1.973,0,3.528-0.648,4.666-1.946s1.707-2.961,1.707-4.991v-2.941c0-2.011-0.569-3.663-1.707-4.962
				c-1.138-1.297-2.693-1.946-4.666-1.946H172.488z"/>
			<path fill="#666666" d="M188.147,358.369c0-2.344,0.635-4.274,1.904-5.794c1.27-1.518,2.993-2.277,5.171-2.277
				c2.197,0,3.933,0.757,5.208,2.271s1.912,3.447,1.912,5.801v0.322c0,2.363-0.635,4.297-1.904,5.801s-2.998,2.256-5.186,2.256
				s-3.918-0.755-5.193-2.263c-1.274-1.51-1.912-3.44-1.912-5.794V358.369z M191.033,358.685c0,1.677,0.354,3.063,1.062,4.154
				c0.708,1.093,1.76,1.639,3.157,1.639c1.377,0,2.422-0.546,3.135-1.639c0.713-1.092,1.069-2.478,1.069-4.154v-0.322
				c0-1.658-0.359-3.039-1.077-4.141s-1.77-1.653-3.157-1.653c-1.377,0-2.419,0.552-3.127,1.653s-1.062,2.482-1.062,4.141V358.685z"
				/>
			<path fill="#666666" d="M205.212,358.809c0-2.549,0.544-4.604,1.633-6.167s2.615-2.344,4.578-2.344
				c0.928,0,1.75,0.171,2.468,0.513s1.331,0.84,1.838,1.494v-8.716h2.886v22.852h-2.358l-0.337-1.948
				c-0.518,0.742-1.152,1.304-1.904,1.685s-1.626,0.571-2.622,0.571c-1.934,0-3.447-0.7-4.541-2.103
				c-1.094-1.4-1.641-3.244-1.641-5.529V358.809z M208.098,359.116c0,1.602,0.327,2.883,0.981,3.846
				c0.654,0.961,1.67,1.442,3.047,1.442c0.859,0,1.582-0.195,2.168-0.586s1.064-0.938,1.436-1.641v-7.397
				c-0.371-0.654-0.852-1.174-1.443-1.561c-0.591-0.385-1.301-0.578-2.131-0.578c-1.387,0-2.41,0.571-3.069,1.714
				s-0.989,2.627-0.989,4.453V359.116z"/>
			<path fill="#666666" d="M232.664,366.44c-0.098-0.479-0.173-0.9-0.227-1.268c-0.054-0.365-0.085-0.734-0.095-1.105
				c-0.537,0.762-1.238,1.398-2.102,1.912c-0.864,0.512-1.794,0.769-2.791,0.769c-1.65,0-2.908-0.423-3.772-1.267
				c-0.864-0.846-1.296-2.01-1.296-3.494c0-1.514,0.613-2.697,1.838-3.553c1.226-0.854,2.888-1.281,4.988-1.281h3.135v-1.567
				c0-0.928-0.283-1.663-0.85-2.204c-0.566-0.543-1.367-0.813-2.402-0.813c-0.928,0-1.682,0.237-2.263,0.71
				c-0.581,0.475-0.872,1.043-0.872,1.707h-2.754l-0.029-0.088c-0.059-1.152,0.486-2.207,1.633-3.164s2.629-1.436,4.446-1.436
				c1.797,0,3.242,0.457,4.336,1.369c1.094,0.914,1.641,2.229,1.641,3.948v7.632c0,0.566,0.029,1.113,0.088,1.641
				s0.166,1.045,0.322,1.553H232.664z M227.874,364.316c1.045,0,1.987-0.268,2.827-0.804c0.84-0.535,1.387-1.148,1.641-1.84v-2.571
				h-3.237c-1.162,0-2.092,0.292-2.791,0.876c-0.698,0.585-1.047,1.271-1.047,2.061c0,0.701,0.22,1.256,0.659,1.665
				S227.014,364.316,227.874,364.316z"/>
			<path fill="#666666" d="M241.995,350.591l0.205,2.358c0.527-0.84,1.189-1.491,1.985-1.956c0.796-0.463,1.702-0.695,2.717-0.695
				c1.709,0,3.032,0.5,3.97,1.502c0.938,1,1.406,2.546,1.406,4.636v10.005h-2.886v-9.946c0-1.396-0.276-2.388-0.828-2.974
				s-1.394-0.879-2.527-0.879c-0.83,0-1.565,0.2-2.205,0.601s-1.15,0.947-1.531,1.641v11.558h-2.886v-15.85H241.995z"/>
			<path fill="#666666" d="M266.208,366.44c-0.098-0.479-0.173-0.9-0.227-1.268c-0.054-0.365-0.085-0.734-0.095-1.105
				c-0.537,0.762-1.238,1.398-2.102,1.912c-0.864,0.512-1.794,0.769-2.791,0.769c-1.65,0-2.908-0.423-3.772-1.267
				c-0.864-0.846-1.296-2.01-1.296-3.494c0-1.514,0.613-2.697,1.838-3.553c1.226-0.854,2.888-1.281,4.988-1.281h3.135v-1.567
				c0-0.928-0.283-1.663-0.85-2.204c-0.566-0.543-1.367-0.813-2.402-0.813c-0.928,0-1.682,0.237-2.263,0.71
				c-0.581,0.475-0.872,1.043-0.872,1.707h-2.754l-0.029-0.088c-0.059-1.152,0.486-2.207,1.633-3.164s2.629-1.436,4.446-1.436
				c1.797,0,3.242,0.457,4.336,1.369c1.094,0.914,1.641,2.229,1.641,3.948v7.632c0,0.566,0.029,1.113,0.088,1.641
				s0.166,1.045,0.322,1.553H266.208z M261.418,364.316c1.045,0,1.987-0.268,2.827-0.804c0.84-0.535,1.387-1.148,1.641-1.84v-2.571
				h-3.237c-1.162,0-2.092,0.292-2.791,0.876c-0.698,0.585-1.047,1.271-1.047,2.061c0,0.701,0.22,1.256,0.659,1.665
				S260.559,364.316,261.418,364.316z"/>
			<path fill="#666666" d="M283.743,350.591v17.153c0,1.631-0.42,2.888-1.26,3.772c-0.84,0.883-2.007,1.325-3.501,1.325
				c-0.303,0-0.579-0.022-0.828-0.065c-0.249-0.045-0.515-0.11-0.798-0.198l0.205-2.271c0.137,0.049,0.332,0.09,0.586,0.125
				c0.254,0.033,0.464,0.051,0.63,0.051c0.635,0,1.14-0.215,1.516-0.645s0.564-1.128,0.564-2.095v-17.153H283.743z M283.655,346.475
				h-2.886v-2.886h2.886V346.475z"/>
			<path fill="#666666" d="M294.758,366.748c-2.207,0-3.962-0.735-5.266-2.204c-1.304-1.471-1.956-3.377-1.956-5.721v-0.645
				c0-2.256,0.671-4.133,2.014-5.633c1.343-1.498,2.932-2.248,4.768-2.248c2.139,0,3.755,0.645,4.849,1.934s1.641,3.008,1.641,5.156
				v1.802h-10.283l-0.044,0.073c0.029,1.52,0.415,2.768,1.157,3.746c0.742,0.979,1.782,1.469,3.12,1.469
				c0.977,0,1.833-0.139,2.571-0.418c0.737-0.277,1.375-0.661,1.912-1.149l1.128,1.877c-0.566,0.561-1.313,1.027-2.241,1.4
				C297.2,366.562,296.077,366.748,294.758,366.748z M294.319,352.568c-0.967,0-1.792,0.406-2.476,1.22
				c-0.684,0.813-1.104,1.832-1.26,3.058l0.029,0.073h7.31v-0.379c0-1.13-0.303-2.074-0.908-2.833S295.51,352.568,294.319,352.568z"
				/>
			<path fill="#666666" d="M320.715,362.222c0-0.635-0.242-1.157-0.725-1.567s-1.399-0.767-2.747-1.069
				c-1.924-0.42-3.372-0.987-4.343-1.703c-0.972-0.717-1.458-1.695-1.458-2.934c0-1.287,0.547-2.383,1.641-3.29
				s2.52-1.36,4.277-1.36c1.846,0,3.313,0.474,4.402,1.421s1.609,2.1,1.56,3.457l-0.029,0.088h-2.754
				c0-0.693-0.291-1.315-0.872-1.868c-0.581-0.551-1.35-0.827-2.307-0.827c-1.025,0-1.787,0.225-2.285,0.674
				s-0.747,0.991-0.747,1.626c0,0.625,0.22,1.118,0.659,1.479s1.333,0.684,2.681,0.967c2.002,0.43,3.491,1.013,4.468,1.751
				c0.977,0.736,1.465,1.726,1.465,2.966c0,1.406-0.569,2.544-1.707,3.413s-2.625,1.304-4.46,1.304
				c-2.021,0-3.613-0.513-4.775-1.538s-1.714-2.222-1.655-3.589l0.029-0.088h2.754c0.049,1.021,0.43,1.767,1.143,2.237
				c0.713,0.472,1.548,0.707,2.505,0.707c1.025,0,1.829-0.207,2.41-0.623C320.425,363.44,320.715,362.896,320.715,362.222z
				 M317.229,346.006l2.153-2.168h2.49v0.264l-3.765,3.589h-1.743l-3.721-3.56v-0.293h2.432L317.229,346.006z"/>
			<path fill="#666666" d="M333.767,366.748c-2.207,0-3.962-0.735-5.266-2.204c-1.304-1.471-1.956-3.377-1.956-5.721v-0.645
				c0-2.256,0.671-4.133,2.014-5.633c1.343-1.498,2.932-2.248,4.768-2.248c2.139,0,3.755,0.645,4.849,1.934s1.641,3.008,1.641,5.156
				v1.802h-10.283l-0.044,0.073c0.029,1.52,0.415,2.768,1.157,3.746c0.742,0.979,1.782,1.469,3.12,1.469
				c0.977,0,1.833-0.139,2.571-0.418c0.737-0.277,1.375-0.661,1.912-1.149l1.128,1.877c-0.566,0.561-1.313,1.027-2.241,1.4
				C336.208,366.562,335.085,366.748,333.767,366.748z M333.328,352.568c-0.967,0-1.792,0.406-2.476,1.22
				c-0.684,0.813-1.104,1.832-1.26,3.058l0.029,0.073h7.31v-0.379c0-1.13-0.303-2.074-0.908-2.833S334.519,352.568,333.328,352.568z
				"/>
			<path fill="#666666" d="M352.268,362.222c0-0.635-0.242-1.157-0.725-1.567s-1.399-0.767-2.747-1.069
				c-1.924-0.42-3.372-0.987-4.343-1.703c-0.972-0.717-1.458-1.695-1.458-2.934c0-1.287,0.547-2.383,1.641-3.29
				s2.52-1.36,4.277-1.36c1.846,0,3.313,0.474,4.402,1.421s1.609,2.1,1.56,3.457l-0.029,0.088h-2.754
				c0-0.693-0.291-1.315-0.872-1.868c-0.581-0.551-1.35-0.827-2.307-0.827c-1.025,0-1.787,0.225-2.285,0.674
				s-0.747,0.991-0.747,1.626c0,0.625,0.22,1.118,0.659,1.479s1.333,0.684,2.681,0.967c2.002,0.43,3.491,1.013,4.468,1.751
				c0.977,0.736,1.465,1.726,1.465,2.966c0,1.406-0.569,2.544-1.707,3.413s-2.625,1.304-4.46,1.304
				c-2.021,0-3.613-0.513-4.775-1.538s-1.714-2.222-1.655-3.589l0.029-0.088h2.754c0.049,1.021,0.43,1.767,1.143,2.237
				c0.713,0.472,1.548,0.707,2.505,0.707c1.025,0,1.829-0.207,2.41-0.623C351.978,363.44,352.268,362.896,352.268,362.222z"/>
			<path fill="#666666" d="M362.551,346.768v3.823h3.003v2.139h-3.003v9.624c0,0.742,0.154,1.265,0.461,1.567
				s0.715,0.454,1.223,0.454c0.166,0,0.349-0.02,0.549-0.059s0.378-0.088,0.535-0.146l0.381,1.978
				c-0.215,0.176-0.53,0.32-0.945,0.432c-0.415,0.113-0.833,0.169-1.252,0.169c-1.172,0-2.104-0.354-2.798-1.062
				c-0.693-0.709-1.04-1.819-1.04-3.333v-9.624h-2.52v-2.139h2.52v-3.823H362.551z"/>
			<path fill="#666666" d="M378.855,366.44c-0.098-0.479-0.173-0.9-0.227-1.268c-0.054-0.365-0.085-0.734-0.095-1.105
				c-0.537,0.762-1.238,1.398-2.102,1.912c-0.864,0.512-1.794,0.769-2.791,0.769c-1.65,0-2.908-0.423-3.772-1.267
				c-0.864-0.846-1.296-2.01-1.296-3.494c0-1.514,0.613-2.697,1.838-3.553c1.226-0.854,2.888-1.281,4.988-1.281h3.135v-1.567
				c0-0.928-0.283-1.663-0.85-2.204c-0.566-0.543-1.367-0.813-2.402-0.813c-0.928,0-1.682,0.237-2.263,0.71
				c-0.581,0.475-0.872,1.043-0.872,1.707h-2.754l-0.029-0.088c-0.059-1.152,0.486-2.207,1.633-3.164s2.629-1.436,4.446-1.436
				c1.797,0,3.242,0.457,4.336,1.369c1.094,0.914,1.641,2.229,1.641,3.948v7.632c0,0.566,0.029,1.113,0.088,1.641
				s0.166,1.045,0.322,1.553H378.855z M374.065,364.316c1.045,0,1.987-0.268,2.827-0.804c0.84-0.535,1.387-1.148,1.641-1.84v-2.571
				h-3.237c-1.162,0-2.092,0.292-2.791,0.876c-0.698,0.585-1.047,1.271-1.047,2.061c0,0.701,0.22,1.256,0.659,1.665
				S373.206,364.316,374.065,364.316z"/>
			<path fill="#666666" d="M406.57,359.116c0,2.285-0.547,4.129-1.641,5.529c-1.094,1.402-2.603,2.103-4.526,2.103
				c-0.977,0-1.833-0.163-2.571-0.491c-0.737-0.326-1.365-0.817-1.882-1.472v7.749h-2.886v-21.943h2.212l0.454,2.051
				c0.518-0.762,1.162-1.343,1.934-1.743s1.67-0.601,2.695-0.601c1.963,0,3.489,0.779,4.578,2.336
				c1.089,1.559,1.633,3.616,1.633,6.175V359.116z M403.684,358.802c0-1.795-0.354-3.271-1.062-4.426
				c-0.708-1.156-1.75-1.734-3.127-1.734c-0.83,0-1.538,0.188-2.124,0.563s-1.06,0.89-1.421,1.544v7.65
				c0.361,0.654,0.835,1.164,1.421,1.529s1.304,0.549,2.153,0.549c1.367,0,2.402-0.5,3.105-1.5s1.055-2.289,1.055-3.869V358.802z"/>
			<path fill="#666666" d="M413.235,346.533h-2.886v-2.944h2.886V346.533z M413.235,366.44h-2.886v-15.85h2.886V366.44z"/>
			<path fill="#666666" d="M422.449,359.102h-1.875v7.339h-2.886v-22.852h2.886v13.242h1.846l4.336-6.24h3.457l-5.42,7.195
				l6.196,8.654h-3.398L422.449,359.102z"/>
			<path fill="#666666" d="M442.795,366.44c-0.098-0.479-0.173-0.9-0.227-1.268c-0.054-0.365-0.085-0.734-0.095-1.105
				c-0.537,0.762-1.238,1.398-2.102,1.912c-0.864,0.512-1.794,0.769-2.791,0.769c-1.65,0-2.908-0.423-3.772-1.267
				c-0.864-0.846-1.296-2.01-1.296-3.494c0-1.514,0.613-2.697,1.838-3.553c1.226-0.854,2.888-1.281,4.988-1.281h3.135v-1.567
				c0-0.928-0.283-1.663-0.85-2.204c-0.566-0.543-1.367-0.813-2.402-0.813c-0.928,0-1.682,0.237-2.263,0.71
				c-0.581,0.475-0.872,1.043-0.872,1.707h-2.754l-0.029-0.088c-0.059-1.152,0.486-2.207,1.633-3.164s2.629-1.436,4.446-1.436
				c1.797,0,3.242,0.457,4.336,1.369c1.094,0.914,1.641,2.229,1.641,3.948v7.632c0,0.566,0.029,1.113,0.088,1.641
				s0.166,1.045,0.322,1.553H442.795z M438.005,364.316c1.045,0,1.987-0.268,2.827-0.804c0.84-0.535,1.387-1.148,1.641-1.84v-2.571
				h-3.237c-1.162,0-2.092,0.292-2.791,0.876c-0.698,0.585-1.047,1.271-1.047,2.061c0,0.701,0.22,1.256,0.659,1.665
				S437.146,364.316,438.005,364.316z"/>
			<path fill="#666666" d="M456.843,357.783c0-3.848,0.776-7.134,2.329-9.858s3.184-4.541,4.893-5.449l0.088,0.015l0.557,1.699
				c-1.338,1.045-2.502,2.72-3.494,5.024s-1.487,5.151-1.487,8.54v0.19c0,3.389,0.493,6.235,1.479,8.54s2.153,4.023,3.501,5.156
				l-0.557,1.582h-0.088c-1.709-0.908-3.34-2.722-4.893-5.442c-1.553-2.719-2.329-6.008-2.329-9.865V357.783z"/>
			<path fill="#666666" d="M470.071,346.533h-2.886v-2.944h2.886V346.533z M470.071,366.44h-2.886v-15.85h2.886V366.44z"/>
			<path fill="#666666" d="M477.234,364.17h9.155v2.271h-12.598v-2.036l8.569-11.543h-8.467v-2.271h11.997v1.948L477.234,364.17z"/>
			<path fill="#666666" d="M492.922,350.591v17.153c0,1.631-0.42,2.888-1.26,3.772c-0.84,0.883-2.007,1.325-3.501,1.325
				c-0.303,0-0.579-0.022-0.828-0.065c-0.249-0.045-0.515-0.11-0.798-0.198l0.205-2.271c0.137,0.049,0.332,0.09,0.586,0.125
				c0.254,0.033,0.464,0.051,0.63,0.051c0.635,0,1.14-0.215,1.516-0.645s0.564-1.128,0.564-2.095v-17.153H492.922z M492.834,346.475
				h-2.886v-2.886h2.886V346.475z"/>
			<path fill="#666666" d="M503.938,366.748c-2.207,0-3.962-0.735-5.266-2.204c-1.304-1.471-1.956-3.377-1.956-5.721v-0.645
				c0-2.256,0.671-4.133,2.014-5.633c1.343-1.498,2.932-2.248,4.768-2.248c2.139,0,3.755,0.645,4.849,1.934s1.641,3.008,1.641,5.156
				v1.802h-10.283l-0.044,0.073c0.029,1.52,0.415,2.768,1.157,3.746c0.742,0.979,1.782,1.469,3.12,1.469
				c0.977,0,1.833-0.139,2.571-0.418c0.737-0.277,1.375-0.661,1.912-1.149l1.128,1.877c-0.566,0.561-1.313,1.027-2.241,1.4
				C506.379,366.562,505.256,366.748,503.938,366.748z M503.499,352.568c-0.967,0-1.792,0.406-2.476,1.22
				c-0.684,0.813-1.104,1.832-1.26,3.058l0.029,0.073h7.31v-0.379c0-1.13-0.303-2.074-0.908-2.833S504.69,352.568,503.499,352.568z"
				/>
			<path fill="#666666" d="M515.803,350.591l0.205,2.08c0.518-0.752,1.174-1.336,1.97-1.75c0.796-0.416,1.721-0.623,2.776-0.623
				s1.96,0.244,2.717,0.732s1.326,1.221,1.707,2.197c0.498-0.898,1.157-1.611,1.978-2.139s1.777-0.791,2.871-0.791
				c1.611,0,2.886,0.555,3.823,1.662c0.938,1.109,1.406,2.776,1.406,5.003v9.478h-2.886v-9.507c0-1.563-0.269-2.669-0.806-3.317
				c-0.537-0.65-1.338-0.975-2.402-0.975c-0.986,0-1.785,0.342-2.395,1.025s-0.969,1.548-1.077,2.593v0.117v10.063h-2.9v-9.507
				c0-1.484-0.276-2.571-0.828-3.259c-0.552-0.689-1.345-1.033-2.38-1.033c-0.879,0-1.602,0.181-2.168,0.542
				s-1.001,0.869-1.304,1.523v11.733h-2.886v-15.85H515.803z"/>
			<path fill="#666666" d="M549.187,366.44c-0.098-0.479-0.173-0.9-0.227-1.268c-0.054-0.365-0.085-0.734-0.095-1.105
				c-0.537,0.762-1.238,1.398-2.102,1.912c-0.864,0.512-1.794,0.769-2.791,0.769c-1.65,0-2.908-0.423-3.772-1.267
				c-0.864-0.846-1.296-2.01-1.296-3.494c0-1.514,0.613-2.697,1.838-3.553c1.226-0.854,2.888-1.281,4.988-1.281h3.135v-1.567
				c0-0.928-0.283-1.663-0.85-2.204c-0.566-0.543-1.367-0.813-2.402-0.813c-0.928,0-1.682,0.237-2.263,0.71
				c-0.581,0.475-0.872,1.043-0.872,1.707h-2.754l-0.029-0.088c-0.059-1.152,0.486-2.207,1.633-3.164s2.629-1.436,4.446-1.436
				c1.797,0,3.242,0.457,4.336,1.369c1.094,0.914,1.641,2.229,1.641,3.948v7.632c0,0.566,0.029,1.113,0.088,1.641
				s0.166,1.045,0.322,1.553H549.187z M544.397,364.316c1.045,0,1.987-0.268,2.827-0.804c0.84-0.535,1.387-1.148,1.641-1.84v-2.571
				h-3.237c-1.162,0-2.092,0.292-2.791,0.876c-0.698,0.585-1.047,1.271-1.047,2.061c0,0.701,0.22,1.256,0.659,1.665
				S543.538,364.316,544.397,364.316z"/>
			<path fill="#666666" d="M566.721,350.591v17.153c0,1.631-0.42,2.888-1.26,3.772c-0.84,0.883-2.007,1.325-3.501,1.325
				c-0.303,0-0.579-0.022-0.828-0.065c-0.249-0.045-0.515-0.11-0.798-0.198l0.205-2.271c0.137,0.049,0.332,0.09,0.586,0.125
				c0.254,0.033,0.464,0.051,0.63,0.051c0.635,0,1.14-0.215,1.516-0.645s0.564-1.128,0.564-2.095v-17.153H566.721z M566.633,346.475
				h-2.886v-2.886h2.886V346.475z"/>
			<path fill="#666666" d="M577.737,366.748c-2.207,0-3.962-0.735-5.266-2.204c-1.304-1.471-1.956-3.377-1.956-5.721v-0.645
				c0-2.256,0.671-4.133,2.014-5.633c1.343-1.498,2.932-2.248,4.768-2.248c2.139,0,3.755,0.645,4.849,1.934s1.641,3.008,1.641,5.156
				v1.802h-10.283l-0.044,0.073c0.029,1.52,0.415,2.768,1.157,3.746c0.742,0.979,1.782,1.469,3.12,1.469
				c0.977,0,1.833-0.139,2.571-0.418c0.737-0.277,1.375-0.661,1.912-1.149l1.128,1.877c-0.566,0.561-1.313,1.027-2.241,1.4
				C580.178,366.562,579.055,366.748,577.737,366.748z M577.297,352.568c-0.967,0-1.792,0.406-2.476,1.22
				c-0.684,0.813-1.104,1.832-1.26,3.058l0.029,0.073h7.31v-0.379c0-1.13-0.303-2.074-0.908-2.833S578.489,352.568,577.297,352.568z
				"/>
			<path fill="#666666" d="M600.925,364.478c0.957,0,1.799-0.295,2.527-0.887c0.728-0.59,1.091-1.315,1.091-2.175h2.593l0.029,0.088
				c0.049,1.367-0.559,2.583-1.824,3.647s-2.737,1.597-4.417,1.597c-2.305,0-4.067-0.752-5.288-2.256s-1.831-3.394-1.831-5.669
				v-0.615c0-2.256,0.613-4.139,1.838-5.646c1.226-1.51,2.986-2.264,5.281-2.264c1.855,0,3.372,0.547,4.548,1.641
				s1.746,2.437,1.707,4.028l-0.029,0.088h-2.607c0-0.967-0.342-1.79-1.025-2.468c-0.684-0.68-1.548-1.019-2.593-1.019
				c-1.514,0-2.595,0.544-3.245,1.632c-0.649,1.087-0.974,2.421-0.974,4.001v0.614c0,1.619,0.322,2.968,0.967,4.045
				C598.318,363.938,599.402,364.478,600.925,364.478z M600.237,346.006l2.153-2.168h2.49v0.264l-3.765,3.589h-1.743l-3.721-3.56
				v-0.293h2.432L600.237,346.006z"/>
			<path fill="#666666" d="M617.903,353.14l-1.479-0.088c-0.762,0-1.404,0.181-1.926,0.542s-0.925,0.869-1.208,1.523v11.323h-2.886
				v-15.85h2.578l0.278,2.314c0.449-0.82,1.003-1.46,1.663-1.919s1.418-0.688,2.278-0.688c0.215,0,0.42,0.018,0.615,0.051
				c0.195,0.035,0.356,0.071,0.483,0.11L617.903,353.14z"/>
			<path fill="#666666" d="M625.461,359.102h-1.875v7.339h-2.886v-22.852h2.886v13.242h1.846l4.336-6.24h3.457l-5.42,7.195
				l6.196,8.654h-3.398L625.461,359.102z"/>
			<path fill="#666666" d="M645.808,366.44c-0.098-0.479-0.173-0.9-0.227-1.268c-0.054-0.365-0.085-0.734-0.095-1.105
				c-0.537,0.762-1.238,1.398-2.102,1.912c-0.864,0.512-1.794,0.769-2.791,0.769c-1.65,0-2.908-0.423-3.772-1.267
				c-0.864-0.846-1.296-2.01-1.296-3.494c0-1.514,0.613-2.697,1.838-3.553c1.226-0.854,2.888-1.281,4.988-1.281h3.135v-1.567
				c0-0.928-0.283-1.663-0.85-2.204c-0.566-0.543-1.367-0.813-2.402-0.813c-0.928,0-1.682,0.237-2.263,0.71
				c-0.581,0.475-0.872,1.043-0.872,1.707h-2.754l-0.029-0.088c-0.059-1.152,0.486-2.207,1.633-3.164s2.629-1.436,4.446-1.436
				c1.797,0,3.242,0.457,4.336,1.369c1.094,0.914,1.641,2.229,1.641,3.948v7.632c0,0.566,0.029,1.113,0.088,1.641
				s0.166,1.045,0.322,1.553H645.808z M641.018,364.316c1.045,0,1.987-0.268,2.827-0.804c0.84-0.535,1.387-1.148,1.641-1.84v-2.571
				h-3.237c-1.162,0-2.092,0.292-2.791,0.876c-0.698,0.585-1.047,1.271-1.047,2.061c0,0.701,0.22,1.256,0.659,1.665
				S640.159,364.316,641.018,364.316z"/>
			<path fill="#666666" d="M662.742,364.17h9.155v2.271h-12.598v-2.036l8.569-11.543h-8.467v-2.271h11.997v1.948L662.742,364.17z
				 M665.583,346.313l2.153-2.168h2.49v0.264l-3.765,3.589h-1.743l-3.721-3.56v-0.293h2.432L665.583,346.313z"/>
			<path fill="#666666" d="M680.964,357.915c0,3.857-0.779,7.146-2.336,9.865c-1.558,2.721-3.186,4.534-4.885,5.442h-0.088
				l-0.557-1.582c1.318-1.025,2.478-2.712,3.479-5.062c1.001-2.348,1.501-5.227,1.501-8.635v-0.19c0-3.34-0.515-6.188-1.545-8.548
				c-1.03-2.357-2.175-4.074-3.435-5.148l0.557-1.582h0.088c1.699,0.908,3.328,2.725,4.885,5.449s2.336,6.011,2.336,9.858V357.915z"
				/>
		</g>
		<g>
			<path fill="#666666" d="M186.129,727.302l0.029,0.088c0.039,2.002-0.664,3.68-2.109,5.031c-1.445,1.354-3.354,2.029-5.728,2.029
				c-2.412,0-4.377-0.854-5.896-2.563s-2.278-3.877-2.278-6.504v-3.794c0-2.627,0.759-4.797,2.278-6.512
				c1.519-1.713,3.484-2.57,5.896-2.57s4.331,0.643,5.757,1.926c1.426,1.285,2.119,2.986,2.08,5.105l-0.029,0.088h-2.769
				c0-1.494-0.439-2.676-1.318-3.545s-2.119-1.304-3.721-1.304c-1.611,0-2.896,0.649-3.853,1.946
				c-0.957,1.299-1.436,2.908-1.436,4.83v3.82c0,1.941,0.479,3.561,1.436,4.859c0.957,1.297,2.241,1.946,3.853,1.946
				c1.602,0,2.842-0.433,3.721-1.296c0.879-0.865,1.318-2.059,1.318-3.582H186.129z M178.336,708.684l2.153-2.168h2.49v0.264
				l-3.765,3.589h-1.743l-3.721-3.56v-0.293h2.432L178.336,708.684z"/>
			<path fill="#666666" d="M197.013,720.842l-1.479-0.088c-0.762,0-1.404,0.181-1.926,0.542s-0.925,0.869-1.208,1.523v11.323h-2.886
				v-15.85h2.578l0.278,2.314c0.449-0.82,1.003-1.46,1.663-1.919S195.451,718,196.31,718c0.215,0,0.42,0.017,0.615,0.052
				c0.195,0.033,0.356,0.07,0.483,0.109L197.013,720.842z"/>
			<path fill="#666666" d="M204.572,726.804h-1.875v7.339h-2.886v-22.852h2.886v13.242h1.846l4.336-6.24h3.457l-5.42,7.194
				l6.196,8.655h-3.398L204.572,726.804z"/>
			<path fill="#666666" d="M224.918,734.143c-0.098-0.479-0.173-0.901-0.227-1.267c-0.054-0.367-0.085-0.735-0.095-1.106
				c-0.537,0.762-1.238,1.399-2.102,1.911c-0.864,0.514-1.794,0.77-2.791,0.77c-1.65,0-2.908-0.422-3.772-1.268
				c-0.864-0.844-1.296-2.009-1.296-3.493c0-1.514,0.613-2.698,1.838-3.552c1.226-0.855,2.888-1.282,4.988-1.282h3.135v-1.567
				c0-0.928-0.283-1.662-0.85-2.205c-0.566-0.541-1.367-0.813-2.402-0.813c-0.928,0-1.682,0.236-2.263,0.711
				c-0.581,0.473-0.872,1.042-0.872,1.706h-2.754l-0.029-0.088c-0.059-1.152,0.486-2.207,1.633-3.164s2.629-1.436,4.446-1.436
				c1.797,0,3.242,0.456,4.336,1.37c1.094,0.912,1.641,2.229,1.641,3.947v7.632c0,0.566,0.029,1.113,0.088,1.641
				s0.166,1.045,0.322,1.553H224.918z M220.128,732.019c1.045,0,1.987-0.268,2.827-0.803c0.84-0.536,1.387-1.149,1.641-1.842v-2.57
				h-3.237c-1.162,0-2.092,0.293-2.791,0.877s-1.047,1.271-1.047,2.059c0,0.701,0.22,1.257,0.659,1.666
				C218.62,731.813,219.269,732.019,220.128,732.019z"/>
			<path fill="#666666" d="M243.185,728.371l0.337,1.919h0.088l0.41-1.919l3.164-10.078h2.314l3.179,10.078l0.454,2.139h0.088
				l0.425-2.139l2.49-10.078h2.871l-4.6,15.85h-2.329l-3.062-9.653l-0.659-2.695l-0.088,0.015l-0.63,2.681l-3.018,9.653h-2.329
				l-4.6-15.85h2.871L243.185,728.371z"/>
			<path fill="#666666" d="M272.614,718.293v17.153c0,1.631-0.42,2.889-1.26,3.771c-0.84,0.885-2.007,1.326-3.501,1.326
				c-0.303,0-0.579-0.021-0.828-0.066c-0.249-0.043-0.515-0.109-0.798-0.197l0.205-2.271c0.137,0.049,0.332,0.091,0.586,0.124
				c0.254,0.035,0.464,0.052,0.63,0.052c0.635,0,1.14-0.215,1.516-0.645s0.564-1.128,0.564-2.095v-17.153H272.614z M272.526,714.177
				h-2.886v-2.886h2.886V714.177z"/>
			<path fill="#666666" d="M283.629,734.45c-2.207,0-3.962-0.734-5.266-2.205c-1.304-1.469-1.956-3.376-1.956-5.72v-0.645
				c0-2.256,0.671-4.134,2.014-5.632c1.343-1.5,2.932-2.249,4.768-2.249c2.139,0,3.755,0.645,4.849,1.934s1.641,3.008,1.641,5.156
				v1.802h-10.283l-0.044,0.073c0.029,1.519,0.415,2.769,1.157,3.747s1.782,1.468,3.12,1.468c0.977,0,1.833-0.14,2.571-0.417
				c0.737-0.279,1.375-0.662,1.912-1.15l1.128,1.877c-0.566,0.561-1.313,1.027-2.241,1.4
				C286.071,734.264,284.948,734.45,283.629,734.45z M283.19,720.271c-0.967,0-1.792,0.406-2.476,1.219s-1.104,1.832-1.26,3.059
				l0.029,0.073h7.31v-0.38c0-1.129-0.303-2.072-0.908-2.832C285.28,720.65,284.381,720.271,283.19,720.271z"/>
			<path fill="#666666" d="M313.908,726.818c0,2.285-0.549,4.128-1.648,5.53c-1.099,1.4-2.61,2.102-4.534,2.102
				c-1.045,0-1.953-0.203-2.725-0.607c-0.771-0.406-1.411-1.004-1.919-1.795l-0.352,2.095h-2.358v-22.852h2.886v8.877
				c0.498-0.703,1.116-1.24,1.853-1.611S306.71,718,307.697,718c1.953,0,3.477,0.781,4.57,2.344s1.641,3.618,1.641,6.167V726.818z
				 M311.022,726.511c0-1.816-0.334-3.299-1.003-4.445c-0.669-1.148-1.687-1.722-3.054-1.722c-0.889,0-1.638,0.218-2.249,0.651
				c-0.61,0.436-1.096,1.019-1.458,1.751v6.87c0.371,0.781,0.857,1.392,1.458,1.831s1.36,0.659,2.278,0.659
				c1.357,0,2.368-0.483,3.032-1.45s0.996-2.246,0.996-3.838V726.511z"/>
			<path fill="#666666" d="M320.543,714.235h-2.886v-2.944h2.886V714.235z M320.543,734.143h-2.886v-15.85h2.886V734.143z"/>
			<path fill="#666666" d="M328.102,734.143h-2.886v-22.852h2.886V734.143z"/>
			<path fill="#666666" d="M342.282,734.143c-0.098-0.479-0.173-0.901-0.227-1.267c-0.054-0.367-0.085-0.735-0.095-1.106
				c-0.537,0.762-1.238,1.399-2.102,1.911c-0.864,0.514-1.794,0.77-2.791,0.77c-1.65,0-2.908-0.422-3.772-1.268
				c-0.864-0.844-1.296-2.009-1.296-3.493c0-1.514,0.613-2.698,1.838-3.552c1.226-0.855,2.888-1.282,4.988-1.282h3.135v-1.567
				c0-0.928-0.283-1.662-0.85-2.205c-0.566-0.541-1.367-0.813-2.402-0.813c-0.928,0-1.682,0.236-2.263,0.711
				c-0.581,0.473-0.872,1.042-0.872,1.706h-2.754l-0.029-0.088c-0.059-1.152,0.486-2.207,1.633-3.164s2.629-1.436,4.446-1.436
				c1.797,0,3.242,0.456,4.336,1.37c1.094,0.912,1.641,2.229,1.641,3.947v7.632c0,0.566,0.029,1.113,0.088,1.641
				s0.166,1.045,0.322,1.553H342.282z M337.492,732.019c1.045,0,1.987-0.268,2.827-0.803c0.84-0.536,1.387-1.149,1.641-1.842v-2.57
				h-3.237c-1.162,0-2.092,0.293-2.791,0.877s-1.047,1.271-1.047,2.059c0,0.701,0.22,1.257,0.659,1.666
				C335.983,731.813,336.632,732.019,337.492,732.019z"/>
			<path fill="#666666" d="M361.779,729.47l0.249,1.113h0.088l0.278-1.113l3.647-11.177h2.944l-5.83,15.85h-2.183l-5.903-15.85
				h2.959L361.779,729.47z"/>
			<path fill="#666666" d="M388.249,729.924c0-0.635-0.242-1.157-0.725-1.567s-1.399-0.767-2.747-1.069
				c-1.924-0.419-3.372-0.987-4.343-1.704s-1.458-1.693-1.458-2.932c0-1.287,0.547-2.385,1.641-3.291s2.52-1.36,4.277-1.36
				c1.846,0,3.313,0.474,4.402,1.421s1.609,2.1,1.56,3.457l-0.029,0.088h-2.754c0-0.693-0.291-1.316-0.872-1.867
				c-0.581-0.553-1.35-0.828-2.307-0.828c-1.025,0-1.787,0.225-2.285,0.674s-0.747,0.991-0.747,1.626
				c0,0.625,0.22,1.118,0.659,1.479s1.333,0.684,2.681,0.967c2.002,0.43,3.491,1.014,4.468,1.75
				c0.977,0.738,1.465,1.727,1.465,2.967c0,1.406-0.569,2.544-1.707,3.413s-2.625,1.304-4.46,1.304
				c-2.021,0-3.613-0.513-4.775-1.538s-1.714-2.222-1.655-3.589l0.029-0.088h2.754c0.049,1.021,0.43,1.766,1.143,2.237
				s1.548,0.707,2.505,0.707c1.025,0,1.829-0.208,2.41-0.622C387.958,731.142,388.249,730.598,388.249,729.924z"/>
			<path fill="#666666" d="M397.843,714.235h-2.886v-2.944h2.886V714.235z M397.843,734.143h-2.886v-15.85h2.886V734.143z"/>
			<path fill="#666666" d="M411.496,729.924c0-0.635-0.242-1.157-0.725-1.567s-1.399-0.767-2.747-1.069
				c-1.924-0.419-3.372-0.987-4.343-1.704s-1.458-1.693-1.458-2.932c0-1.287,0.547-2.385,1.641-3.291s2.52-1.36,4.277-1.36
				c1.846,0,3.313,0.474,4.402,1.421s1.609,2.1,1.56,3.457l-0.029,0.088h-2.754c0-0.693-0.291-1.316-0.872-1.867
				c-0.581-0.553-1.35-0.828-2.307-0.828c-1.025,0-1.787,0.225-2.285,0.674s-0.747,0.991-0.747,1.626
				c0,0.625,0.22,1.118,0.659,1.479s1.333,0.684,2.681,0.967c2.002,0.43,3.491,1.014,4.468,1.75
				c0.977,0.738,1.465,1.727,1.465,2.967c0,1.406-0.569,2.544-1.707,3.413s-2.625,1.304-4.46,1.304
				c-2.021,0-3.613-0.513-4.775-1.538s-1.714-2.222-1.655-3.589l0.029-0.088h2.754c0.049,1.021,0.43,1.766,1.143,2.237
				s1.548,0.707,2.505,0.707c1.025,0,1.829-0.208,2.41-0.622C411.205,731.142,411.496,730.598,411.496,729.924z"/>
			<path fill="#666666" d="M421.779,714.47v3.823h3.003v2.139h-3.003v9.624c0,0.742,0.154,1.265,0.461,1.567
				s0.715,0.454,1.223,0.454c0.166,0,0.349-0.02,0.549-0.059s0.378-0.088,0.535-0.146l0.381,1.978
				c-0.215,0.176-0.53,0.319-0.945,0.433c-0.415,0.111-0.833,0.168-1.252,0.168c-1.172,0-2.104-0.354-2.798-1.063
				c-0.693-0.707-1.04-1.818-1.04-3.332v-9.624h-2.52v-2.139h2.52v-3.823H421.779z"/>
			<path fill="#666666" d="M434.918,734.45c-2.207,0-3.962-0.734-5.266-2.205c-1.304-1.469-1.956-3.376-1.956-5.72v-0.645
				c0-2.256,0.671-4.134,2.014-5.632c1.343-1.5,2.932-2.249,4.768-2.249c2.139,0,3.755,0.645,4.849,1.934s1.641,3.008,1.641,5.156
				v1.802h-10.283l-0.044,0.073c0.029,1.519,0.415,2.769,1.157,3.747s1.782,1.468,3.12,1.468c0.977,0,1.833-0.14,2.571-0.417
				c0.737-0.279,1.375-0.662,1.912-1.15l1.128,1.877c-0.566,0.561-1.313,1.027-2.241,1.4
				C437.36,734.264,436.237,734.45,434.918,734.45z M434.479,720.271c-0.967,0-1.792,0.406-2.476,1.219s-1.104,1.832-1.26,3.059
				l0.029,0.073h7.31v-0.38c0-1.129-0.303-2.072-0.908-2.832C436.569,720.65,435.67,720.271,434.479,720.271z"/>
			<path fill="#666666" d="M446.784,718.293l0.205,2.08c0.518-0.752,1.174-1.335,1.97-1.751c0.796-0.414,1.721-0.622,2.776-0.622
				s1.96,0.244,2.717,0.732s1.326,1.221,1.707,2.197c0.498-0.898,1.157-1.611,1.978-2.139s1.777-0.791,2.871-0.791
				c1.611,0,2.886,0.554,3.823,1.663c0.938,1.107,1.406,2.775,1.406,5.002v9.478h-2.886v-9.507c0-1.563-0.269-2.668-0.806-3.318
				c-0.537-0.648-1.338-0.974-2.402-0.974c-0.986,0-1.785,0.342-2.395,1.025s-0.969,1.548-1.077,2.593v0.117v10.063h-2.9v-9.507
				c0-1.484-0.276-2.57-0.828-3.26c-0.552-0.688-1.345-1.032-2.38-1.032c-0.879,0-1.602,0.181-2.168,0.542s-1.001,0.869-1.304,1.523
				v11.733h-2.886v-15.85H446.784z"/>
			<path fill="#666666" d="M477.223,726.511c0-2.549,0.544-4.604,1.633-6.167s2.615-2.344,4.578-2.344
				c0.928,0,1.75,0.171,2.468,0.513s1.331,0.84,1.838,1.494v-8.716h2.886v22.852h-2.358l-0.337-1.948
				c-0.518,0.742-1.152,1.304-1.904,1.685s-1.626,0.571-2.622,0.571c-1.934,0-3.447-0.701-4.541-2.102
				c-1.094-1.402-1.641-3.245-1.641-5.53V726.511z M480.109,726.818c0,1.602,0.327,2.884,0.981,3.845
				c0.654,0.963,1.67,1.443,3.047,1.443c0.859,0,1.582-0.195,2.168-0.586s1.064-0.938,1.436-1.641v-7.397
				c-0.371-0.654-0.852-1.175-1.443-1.56c-0.591-0.387-1.301-0.579-2.131-0.579c-1.387,0-2.41,0.571-3.069,1.714
				s-0.989,2.627-0.989,4.453V726.818z"/>
			<path fill="#666666" d="M494.259,726.071c0-2.344,0.635-4.275,1.904-5.793c1.27-1.52,2.993-2.278,5.171-2.278
				c2.197,0,3.933,0.757,5.208,2.271s1.912,3.447,1.912,5.801v0.322c0,2.363-0.635,4.297-1.904,5.801s-2.998,2.256-5.186,2.256
				s-3.918-0.754-5.193-2.264c-1.274-1.508-1.912-3.439-1.912-5.793V726.071z M497.145,726.386c0,1.678,0.354,3.063,1.062,4.155
				s1.76,1.639,3.157,1.639c1.377,0,2.422-0.546,3.135-1.639s1.069-2.478,1.069-4.155v-0.322c0-1.657-0.359-3.037-1.077-4.14
				s-1.77-1.653-3.157-1.653c-1.377,0-2.419,0.551-3.127,1.653s-1.062,2.482-1.062,4.14V726.386z"/>
			<path fill="#666666" d="M511.325,726.511c0-2.549,0.544-4.604,1.633-6.167s2.615-2.344,4.578-2.344
				c0.928,0,1.75,0.171,2.468,0.513s1.331,0.84,1.838,1.494v-8.716h2.886v22.852h-2.358l-0.337-1.948
				c-0.518,0.742-1.152,1.304-1.904,1.685s-1.626,0.571-2.622,0.571c-1.934,0-3.447-0.701-4.541-2.102
				c-1.094-1.402-1.641-3.245-1.641-5.53V726.511z M514.21,726.818c0,1.602,0.327,2.884,0.981,3.845
				c0.654,0.963,1.67,1.443,3.047,1.443c0.859,0,1.582-0.195,2.168-0.586s1.064-0.938,1.436-1.641v-7.397
				c-0.371-0.654-0.852-1.175-1.443-1.56c-0.591-0.387-1.301-0.579-2.131-0.579c-1.387,0-2.41,0.571-3.069,1.714
				s-0.989,2.627-0.989,4.453V726.818z"/>
			<path fill="#666666" d="M538.776,734.143c-0.098-0.479-0.173-0.901-0.227-1.267c-0.054-0.367-0.085-0.735-0.095-1.106
				c-0.537,0.762-1.238,1.399-2.102,1.911c-0.864,0.514-1.794,0.77-2.791,0.77c-1.65,0-2.908-0.422-3.772-1.268
				c-0.864-0.844-1.296-2.009-1.296-3.493c0-1.514,0.613-2.698,1.838-3.552c1.226-0.855,2.888-1.282,4.988-1.282h3.135v-1.567
				c0-0.928-0.283-1.662-0.85-2.205c-0.566-0.541-1.367-0.813-2.402-0.813c-0.928,0-1.682,0.236-2.263,0.711
				c-0.581,0.473-0.872,1.042-0.872,1.706h-2.754l-0.029-0.088c-0.059-1.152,0.486-2.207,1.633-3.164s2.629-1.436,4.446-1.436
				c1.797,0,3.242,0.456,4.336,1.37c1.094,0.912,1.641,2.229,1.641,3.947v7.632c0,0.566,0.029,1.113,0.088,1.641
				s0.166,1.045,0.322,1.553H538.776z M533.986,732.019c1.045,0,1.987-0.268,2.827-0.803c0.84-0.536,1.387-1.149,1.641-1.842v-2.57
				h-3.237c-1.162,0-2.092,0.293-2.791,0.877s-1.047,1.271-1.047,2.059c0,0.701,0.22,1.257,0.659,1.666
				C532.477,731.813,533.126,732.019,533.986,732.019z"/>
			<path fill="#666666" d="M548.107,718.293l0.205,2.358c0.527-0.84,1.189-1.492,1.985-1.955c0.796-0.465,1.702-0.696,2.717-0.696
				c1.709,0,3.032,0.501,3.97,1.501c0.938,1.002,1.406,2.547,1.406,4.637v10.005h-2.886v-9.946c0-1.396-0.276-2.388-0.828-2.974
				s-1.394-0.879-2.527-0.879c-0.83,0-1.565,0.2-2.205,0.601s-1.15,0.947-1.531,1.641v11.558h-2.886v-15.85H548.107z"/>
			<path fill="#666666" d="M572.321,734.143c-0.098-0.479-0.173-0.901-0.227-1.267c-0.054-0.367-0.085-0.735-0.095-1.106
				c-0.537,0.762-1.238,1.399-2.102,1.911c-0.864,0.514-1.794,0.77-2.791,0.77c-1.65,0-2.908-0.422-3.772-1.268
				c-0.864-0.844-1.296-2.009-1.296-3.493c0-1.514,0.613-2.698,1.838-3.552c1.226-0.855,2.888-1.282,4.988-1.282h3.135v-1.567
				c0-0.928-0.283-1.662-0.85-2.205c-0.566-0.541-1.367-0.813-2.402-0.813c-0.928,0-1.682,0.236-2.263,0.711
				c-0.581,0.473-0.872,1.042-0.872,1.706h-2.754l-0.029-0.088c-0.059-1.152,0.486-2.207,1.633-3.164s2.629-1.436,4.446-1.436
				c1.797,0,3.242,0.456,4.336,1.37c1.094,0.912,1.641,2.229,1.641,3.947v7.632c0,0.566,0.029,1.113,0.088,1.641
				s0.166,1.045,0.322,1.553H572.321z M567.531,732.019c1.045,0,1.987-0.268,2.827-0.803c0.84-0.536,1.387-1.149,1.641-1.842v-2.57
				h-3.237c-1.162,0-2.092,0.293-2.791,0.877s-1.047,1.271-1.047,2.059c0,0.701,0.22,1.257,0.659,1.666
				C566.022,731.813,566.671,732.019,567.531,732.019z"/>
			<path fill="#666666" d="M591.305,726.804h-1.875v7.339h-2.886v-22.852h2.886v13.242h1.846l4.336-6.24h3.457l-5.42,7.194
				l6.196,8.655h-3.398L591.305,726.804z"/>
			<path fill="#666666" d="M611.652,734.143c-0.098-0.479-0.173-0.901-0.227-1.267c-0.054-0.367-0.085-0.735-0.095-1.106
				c-0.537,0.762-1.238,1.399-2.102,1.911c-0.864,0.514-1.794,0.77-2.791,0.77c-1.65,0-2.908-0.422-3.772-1.268
				c-0.864-0.844-1.296-2.009-1.296-3.493c0-1.514,0.613-2.698,1.838-3.552c1.226-0.855,2.888-1.282,4.988-1.282h3.135v-1.567
				c0-0.928-0.283-1.662-0.85-2.205c-0.566-0.541-1.367-0.813-2.402-0.813c-0.928,0-1.682,0.236-2.263,0.711
				c-0.581,0.473-0.872,1.042-0.872,1.706h-2.754l-0.029-0.088c-0.059-1.152,0.486-2.207,1.633-3.164s2.629-1.436,4.446-1.436
				c1.797,0,3.242,0.456,4.336,1.37c1.094,0.912,1.641,2.229,1.641,3.947v7.632c0,0.566,0.029,1.113,0.088,1.641
				s0.166,1.045,0.322,1.553H611.652z M606.862,732.019c1.045,0,1.987-0.268,2.827-0.803c0.84-0.536,1.387-1.149,1.641-1.842v-2.57
				h-3.237c-1.162,0-2.092,0.293-2.791,0.877s-1.047,1.271-1.047,2.059c0,0.701,0.22,1.257,0.659,1.666
				C605.353,731.813,606.002,732.019,606.862,732.019z"/>
			<path fill="#666666" d="M627.619,729.924c0-0.635-0.242-1.157-0.725-1.567s-1.399-0.767-2.747-1.069
				c-1.924-0.419-3.372-0.987-4.343-1.704s-1.458-1.693-1.458-2.932c0-1.287,0.547-2.385,1.641-3.291s2.52-1.36,4.277-1.36
				c1.846,0,3.313,0.474,4.402,1.421s1.609,2.1,1.56,3.457l-0.029,0.088h-2.754c0-0.693-0.291-1.316-0.872-1.867
				c-0.581-0.553-1.35-0.828-2.307-0.828c-1.025,0-1.787,0.225-2.285,0.674s-0.747,0.991-0.747,1.626
				c0,0.625,0.22,1.118,0.659,1.479s1.333,0.684,2.681,0.967c2.002,0.43,3.491,1.014,4.468,1.75
				c0.977,0.738,1.465,1.727,1.465,2.967c0,1.406-0.569,2.544-1.707,3.413s-2.625,1.304-4.46,1.304
				c-2.021,0-3.613-0.513-4.775-1.538s-1.714-2.222-1.655-3.589l0.029-0.088h2.754c0.049,1.021,0.43,1.766,1.143,2.237
				s1.548,0.707,2.505,0.707c1.025,0,1.829-0.208,2.41-0.622C627.328,731.142,627.619,730.598,627.619,729.924z"/>
			<path fill="#666666" d="M636.671,718.293l0.205,2.358c0.527-0.84,1.189-1.492,1.985-1.955c0.796-0.465,1.702-0.696,2.717-0.696
				c1.709,0,3.032,0.501,3.97,1.501c0.938,1.002,1.406,2.547,1.406,4.637v10.005h-2.886v-9.946c0-1.396-0.276-2.388-0.828-2.974
				s-1.394-0.879-2.527-0.879c-0.83,0-1.565,0.2-2.205,0.601s-1.15,0.947-1.531,1.641v11.558h-2.886v-15.85H636.671z"/>
			<path fill="#666666" d="M657.721,734.45c-2.207,0-3.962-0.734-5.266-2.205c-1.304-1.469-1.956-3.376-1.956-5.72v-0.645
				c0-2.256,0.671-4.134,2.014-5.632c1.343-1.5,2.932-2.249,4.768-2.249c2.139,0,3.755,0.645,4.849,1.934s1.641,3.008,1.641,5.156
				v1.802h-10.283l-0.044,0.073c0.029,1.519,0.415,2.769,1.157,3.747s1.782,1.468,3.12,1.468c0.977,0,1.833-0.14,2.571-0.417
				c0.737-0.279,1.375-0.662,1.912-1.15l1.128,1.877c-0.566,0.561-1.313,1.027-2.241,1.4
				C660.163,734.264,659.04,734.45,657.721,734.45z M657.282,720.271c-0.967,0-1.792,0.406-2.476,1.219s-1.104,1.832-1.26,3.059
				l0.029,0.073h7.31v-0.38c0-1.129-0.303-2.072-0.908-2.832C659.372,720.65,658.473,720.271,657.282,720.271z"/>
			<path fill="#666666" d="M670.333,718.293v17.153c0,1.631-0.42,2.889-1.26,3.771c-0.84,0.885-2.007,1.326-3.501,1.326
				c-0.303,0-0.579-0.021-0.828-0.066c-0.249-0.043-0.515-0.109-0.798-0.197l0.205-2.271c0.137,0.049,0.332,0.091,0.586,0.124
				c0.254,0.035,0.464,0.052,0.63,0.052c0.635,0,1.14-0.215,1.516-0.645s0.564-1.128,0.564-2.095v-17.153H670.333z M670.246,714.177
				h-2.886v-2.886h2.886V714.177z"/>
			<path fill="#666666" d="M681.349,734.45c-2.207,0-3.962-0.734-5.266-2.205c-1.304-1.469-1.956-3.376-1.956-5.72v-0.645
				c0-2.256,0.671-4.134,2.014-5.632c1.343-1.5,2.932-2.249,4.768-2.249c2.139,0,3.755,0.645,4.849,1.934s1.641,3.008,1.641,5.156
				v1.802h-10.283l-0.044,0.073c0.029,1.519,0.415,2.769,1.157,3.747s1.782,1.468,3.12,1.468c0.977,0,1.833-0.14,2.571-0.417
				c0.737-0.279,1.375-0.662,1.912-1.15l1.128,1.877c-0.566,0.561-1.313,1.027-2.241,1.4
				C683.791,734.264,682.667,734.45,681.349,734.45z M680.91,720.271c-0.967,0-1.792,0.406-2.476,1.219s-1.104,1.832-1.26,3.059
				l0.029,0.073h7.31v-0.38c0-1.129-0.303-2.072-0.908-2.832C683,720.65,682.101,720.271,680.91,720.271z"/>
		</g>
	</g>
	<g>
		<g>
			<path fill="#32BCAD" d="M202.819,123.465l-4.08,4.739c-2.34-1.979-4.8-2.999-7.68-2.999c-5.7,0-10.14,4.199-10.14,15.419
				c0,10.92,4.32,15.359,10.26,15.359c3.54,0,6-1.68,8.399-3.479l3.72,4.8c-2.52,2.58-6.84,5.039-12.479,5.039
				c-10.74,0-18.239-7.619-18.239-21.719c0-13.92,7.919-21.539,17.999-21.539C196.04,119.085,199.459,120.645,202.819,123.465z
				 M201.799,109.125l-8.34,7.2h-4.8l-8.34-7.2l2.94-3.359l7.8,4.979l7.8-4.979L201.799,109.125z"/>
			<path fill="#32BCAD" d="M227.539,129.284l-1.32,7.44c-0.96-0.24-1.74-0.36-2.82-0.36c-3.9,0-5.82,2.82-7.02,8.22v16.859h-7.68
				v-31.739h6.66l0.72,6.24c1.5-4.56,4.56-7.08,8.28-7.08C225.499,128.864,226.519,128.984,227.539,129.284z"/>
			<path fill="#32BCAD" d="M240.019,161.443h-7.68v-44.458l7.68-0.84V161.443z M248.479,143.684l11.58,17.76h-8.82l-10.919-17.339
				l10.62-14.4h8.1L248.479,143.684z"/>
			<path fill="#32BCAD" d="M289.399,147.944h-19.919c0.6,6.479,3.6,8.579,7.8,8.579c2.82,0,5.16-0.899,7.919-2.819l3.18,4.379
				c-3.12,2.521-6.96,4.26-11.76,4.26c-9.839,0-15.119-6.539-15.119-16.559c0-9.66,5.1-16.979,14.099-16.979
				c8.88,0,13.979,6,13.979,16.02C289.579,145.844,289.458,147.104,289.399,147.944z M281.959,142.604c0-5.221-1.86-8.34-6.18-8.34
				c-3.6,0-5.88,2.399-6.3,8.699h12.479V142.604z"/>
		</g>
	</g>
	<g>
		<path d="M209.444,476.442c0-2.143,0.762-3.977,2.288-5.502c1.524-1.525,3.36-2.289,5.503-2.289c2.206,0,4.073,0.764,5.6,2.289
			c1.524,1.525,2.288,3.359,2.288,5.502c0,2.208-0.764,4.074-2.288,5.6c-1.526,1.526-3.394,2.289-5.6,2.289
			c-2.143,0-3.979-0.763-5.503-2.289C210.206,480.517,209.444,478.65,209.444,476.442z M209.444,528.935
			c0-2.207,0.762-4.074,2.288-5.6c1.524-1.525,3.36-2.289,5.503-2.289c2.206,0,4.073,0.764,5.6,2.289
			c1.524,1.525,2.288,3.393,2.288,5.6c0,2.143-0.764,3.977-2.288,5.502c-1.526,1.526-3.394,2.289-5.6,2.289
			c-2.143,0-3.979-0.763-5.503-2.289C210.206,532.911,209.444,531.077,209.444,528.935z M215.093,502.737
			c0-0.648,0.21-1.185,0.633-1.607c0.421-0.422,0.925-0.633,1.51-0.633c0.647,0,1.184,0.211,1.606,0.633
			c0.422,0.423,0.633,0.959,0.633,1.607c0,0.584-0.211,1.088-0.633,1.51c-0.423,0.422-0.959,0.633-1.606,0.633
			c-0.585,0-1.089-0.211-1.51-0.633C215.303,503.825,215.093,503.321,215.093,502.737z M235.738,528.935
			c0-2.207,0.779-4.074,2.338-5.6c1.558-1.525,3.408-2.289,5.551-2.289s3.977,0.764,5.502,2.289s2.289,3.393,2.289,5.6
			c0,2.143-0.764,3.977-2.289,5.502c-1.525,1.526-3.359,2.289-5.502,2.289s-3.993-0.763-5.551-2.289
			C236.518,532.911,235.738,531.077,235.738,528.935z M241.484,476.442c0-0.584,0.194-1.086,0.584-1.51
			c0.39-0.422,0.909-0.633,1.559-0.633c0.584,0,1.087,0.211,1.51,0.633c0.421,0.424,0.633,0.926,0.633,1.51
			c0,0.649-0.212,1.186-0.633,1.607c-0.423,0.422-0.926,0.633-1.51,0.633c-0.649,0-1.169-0.211-1.559-0.633
			S241.484,477.092,241.484,476.442z M241.484,502.737c0-0.648,0.194-1.185,0.584-1.607c0.39-0.422,0.909-0.633,1.559-0.633
			c0.584,0,1.087,0.211,1.51,0.633c0.421,0.423,0.633,0.959,0.633,1.607c0,0.584-0.212,1.088-0.633,1.51
			c-0.423,0.422-0.926,0.633-1.51,0.633c-0.649,0-1.169-0.211-1.559-0.633S241.484,503.321,241.484,502.737z"/>
		<path d="M334.392,476.442c0-2.143,0.762-3.977,2.288-5.502c1.524-1.525,3.36-2.289,5.503-2.289c2.206,0,4.073,0.764,5.6,2.289
			c1.524,1.525,2.288,3.359,2.288,5.502c0,2.208-0.764,4.074-2.288,5.6c-1.526,1.526-3.394,2.289-5.6,2.289
			c-2.143,0-3.979-0.763-5.503-2.289C335.153,480.517,334.392,478.65,334.392,476.442z M334.392,502.737
			c0-2.207,0.762-4.074,2.288-5.6c1.524-1.525,3.36-2.289,5.503-2.289c2.206,0,4.073,0.764,5.6,2.289
			c1.524,1.525,2.288,3.393,2.288,5.6c0,2.143-0.764,3.977-2.288,5.502c-1.526,1.526-3.394,2.289-5.6,2.289
			c-2.143,0-3.979-0.763-5.503-2.289C335.153,506.714,334.392,504.88,334.392,502.737z M334.392,528.935
			c0-2.207,0.762-4.074,2.288-5.6c1.524-1.525,3.36-2.289,5.503-2.289c2.206,0,4.073,0.764,5.6,2.289
			c1.524,1.525,2.288,3.393,2.288,5.6c0,2.143-0.764,3.977-2.288,5.502c-1.526,1.526-3.394,2.289-5.6,2.289
			c-2.143,0-3.979-0.763-5.503-2.289C335.153,532.911,334.392,531.077,334.392,528.935z M360.686,528.935
			c0-2.207,0.779-4.074,2.338-5.6c1.558-1.525,3.408-2.289,5.551-2.289s3.977,0.764,5.502,2.289s2.289,3.393,2.289,5.6
			c0,2.143-0.764,3.977-2.289,5.502c-1.525,1.526-3.359,2.289-5.502,2.289s-3.993-0.763-5.551-2.289
			C361.465,532.911,360.686,531.077,360.686,528.935z M366.432,476.442c0-0.584,0.194-1.086,0.584-1.51
			c0.39-0.422,0.909-0.633,1.559-0.633c0.584,0,1.087,0.211,1.51,0.633c0.421,0.424,0.633,0.926,0.633,1.51
			c0,0.649-0.212,1.186-0.633,1.607c-0.423,0.422-0.926,0.633-1.51,0.633c-0.649,0-1.169-0.211-1.559-0.633
			S366.432,477.092,366.432,476.442z M366.432,502.737c0-0.648,0.194-1.185,0.584-1.607c0.39-0.422,0.909-0.633,1.559-0.633
			c0.584,0,1.087,0.211,1.51,0.633c0.421,0.423,0.633,0.959,0.633,1.607c0,0.584-0.212,1.088-0.633,1.51
			c-0.423,0.422-0.926,0.633-1.51,0.633c-0.649,0-1.169-0.211-1.559-0.633S366.432,503.321,366.432,502.737z"/>
		<path d="M459.34,476.54c0-2.207,0.762-4.074,2.288-5.6c1.524-1.525,3.392-2.289,5.6-2.289c2.143,0,3.977,0.764,5.503,2.289
			c1.524,1.525,2.288,3.393,2.288,5.6c0,2.143-0.764,3.977-2.288,5.502c-1.526,1.526-3.36,2.289-5.503,2.289
			c-2.208,0-4.075-0.763-5.6-2.289C460.102,480.517,459.34,478.683,459.34,476.54z M459.34,528.935c0-2.207,0.762-4.074,2.288-5.6
			c1.524-1.525,3.392-2.289,5.6-2.289c2.143,0,3.977,0.764,5.503,2.289c1.524,1.525,2.288,3.393,2.288,5.6
			c0,2.143-0.764,3.977-2.288,5.502c-1.526,1.526-3.36,2.289-5.503,2.289c-2.208,0-4.075-0.763-5.6-2.289
			C460.102,532.911,459.34,531.077,459.34,528.935z M464.988,502.737c0-0.585,0.21-1.087,0.633-1.51
			c0.421-0.422,0.957-0.633,1.606-0.633c0.585,0,1.087,0.211,1.51,0.633c0.422,0.423,0.633,0.925,0.633,1.51
			c0,0.584-0.211,1.07-0.633,1.461c-0.423,0.389-0.925,0.584-1.51,0.584c-0.649,0-1.186-0.195-1.606-0.584
			C465.198,503.808,464.988,503.321,464.988,502.737z M485.634,476.54c0-2.207,0.763-4.074,2.289-5.6
			c1.524-1.525,3.359-2.289,5.502-2.289c2.207,0,4.074,0.764,5.6,2.289s2.289,3.393,2.289,5.6c0,2.143-0.764,3.977-2.289,5.502
			c-1.525,1.526-3.393,2.289-5.6,2.289c-2.143,0-3.978-0.763-5.502-2.289C486.396,480.517,485.634,478.683,485.634,476.54z
			 M485.634,528.935c0-2.207,0.763-4.074,2.289-5.6c1.524-1.525,3.359-2.289,5.502-2.289c2.207,0,4.074,0.764,5.6,2.289
			s2.289,3.393,2.289,5.6c0,2.143-0.764,3.977-2.289,5.502c-1.525,1.526-3.393,2.289-5.6,2.289c-2.143,0-3.978-0.763-5.502-2.289
			C486.396,532.911,485.634,531.077,485.634,528.935z M491.282,502.737c0-0.585,0.21-1.087,0.634-1.51
			c0.421-0.422,0.925-0.633,1.509-0.633c0.648,0,1.185,0.211,1.607,0.633c0.421,0.423,0.633,0.925,0.633,1.51
			c0,0.584-0.212,1.07-0.633,1.461c-0.423,0.389-0.959,0.584-1.607,0.584c-0.584,0-1.088-0.195-1.509-0.584
			C491.492,503.808,491.282,503.321,491.282,502.737z"/>
		<path d="M681.675,476.442c0-2.143,0.762-3.977,2.288-5.502c1.524-1.525,3.36-2.289,5.503-2.289c2.206,0,4.073,0.764,5.6,2.289
			c1.524,1.525,2.288,3.359,2.288,5.502c0,2.208-0.764,4.074-2.288,5.6c-1.526,1.526-3.394,2.289-5.6,2.289
			c-2.143,0-3.979-0.763-5.503-2.289C682.437,480.517,681.675,478.65,681.675,476.442z M681.675,528.935
			c0-2.207,0.762-4.074,2.288-5.6c1.524-1.525,3.36-2.289,5.503-2.289c2.206,0,4.073,0.764,5.6,2.289
			c1.524,1.525,2.288,3.393,2.288,5.6c0,2.143-0.764,3.977-2.288,5.502c-1.526,1.526-3.394,2.289-5.6,2.289
			c-2.143,0-3.979-0.763-5.503-2.289C682.437,532.911,681.675,531.077,681.675,528.935z M687.323,502.737
			c0-0.648,0.21-1.185,0.633-1.607c0.421-0.422,0.925-0.633,1.51-0.633c0.647,0,1.184,0.211,1.606,0.633
			c0.422,0.423,0.633,0.959,0.633,1.607c0,0.584-0.211,1.088-0.633,1.51c-0.423,0.422-0.959,0.633-1.606,0.633
			c-0.585,0-1.089-0.211-1.51-0.633C687.533,503.825,687.323,503.321,687.323,502.737z M707.969,476.442
			c0-2.143,0.779-3.977,2.338-5.502c1.558-1.525,3.408-2.289,5.551-2.289s3.977,0.764,5.502,2.289s2.289,3.359,2.289,5.502
			c0,2.208-0.764,4.074-2.289,5.6c-1.525,1.526-3.359,2.289-5.502,2.289s-3.993-0.763-5.551-2.289
			C708.748,480.517,707.969,478.65,707.969,476.442z M707.969,502.737c0-2.207,0.779-4.074,2.338-5.6
			c1.558-1.525,3.408-2.289,5.551-2.289s3.977,0.764,5.502,2.289s2.289,3.393,2.289,5.6c0,2.143-0.764,3.977-2.289,5.502
			c-1.525,1.526-3.359,2.289-5.502,2.289s-3.993-0.763-5.551-2.289C708.748,506.714,707.969,504.88,707.969,502.737z
			 M707.969,528.935c0-2.207,0.779-4.074,2.338-5.6c1.558-1.525,3.408-2.289,5.551-2.289s3.977,0.764,5.502,2.289
			s2.289,3.393,2.289,5.6c0,2.143-0.764,3.977-2.289,5.502c-1.525,1.526-3.359,2.289-5.502,2.289s-3.993-0.763-5.551-2.289
			C708.748,532.911,707.969,531.077,707.969,528.935z"/>
		<path d="M800.974,476.442c0-2.143,0.762-3.977,2.288-5.502c1.524-1.525,3.36-2.289,5.503-2.289c2.206,0,4.073,0.764,5.6,2.289
			c1.524,1.525,2.288,3.359,2.288,5.502c0,2.208-0.764,4.074-2.288,5.6c-1.526,1.526-3.394,2.289-5.6,2.289
			c-2.143,0-3.979-0.763-5.503-2.289C801.735,480.517,800.974,478.65,800.974,476.442z M800.974,528.935
			c0-2.207,0.762-4.074,2.288-5.6c1.524-1.525,3.36-2.289,5.503-2.289c2.206,0,4.073,0.764,5.6,2.289
			c1.524,1.525,2.288,3.393,2.288,5.6c0,2.143-0.764,3.977-2.288,5.502c-1.526,1.526-3.394,2.289-5.6,2.289
			c-2.143,0-3.979-0.763-5.503-2.289C801.735,532.911,800.974,531.077,800.974,528.935z M806.622,502.737
			c0-0.648,0.21-1.185,0.633-1.607c0.421-0.422,0.925-0.633,1.51-0.633c0.647,0,1.184,0.211,1.606,0.633
			c0.422,0.423,0.633,0.959,0.633,1.607c0,0.584-0.211,1.088-0.633,1.51c-0.423,0.422-0.959,0.633-1.606,0.633
			c-0.585,0-1.089-0.211-1.51-0.633C806.832,503.825,806.622,503.321,806.622,502.737z M827.268,502.737
			c0-2.207,0.779-4.074,2.338-5.6c1.558-1.525,3.408-2.289,5.551-2.289s3.977,0.764,5.502,2.289s2.289,3.393,2.289,5.6
			c0,2.143-0.764,3.977-2.289,5.502c-1.525,1.526-3.359,2.289-5.502,2.289s-3.993-0.763-5.551-2.289
			C828.047,506.714,827.268,504.88,827.268,502.737z M827.268,528.935c0-2.207,0.779-4.074,2.338-5.6
			c1.558-1.525,3.408-2.289,5.551-2.289s3.977,0.764,5.502,2.289s2.289,3.393,2.289,5.6c0,2.143-0.764,3.977-2.289,5.502
			c-1.525,1.526-3.359,2.289-5.502,2.289s-3.993-0.763-5.551-2.289C828.047,532.911,827.268,531.077,827.268,528.935z
			 M833.014,476.442c0-0.584,0.194-1.086,0.584-1.51c0.39-0.422,0.909-0.633,1.559-0.633c0.584,0,1.087,0.211,1.51,0.633
			c0.421,0.424,0.633,0.926,0.633,1.51c0,0.649-0.212,1.186-0.633,1.607c-0.423,0.422-0.926,0.633-1.51,0.633
			c-0.649,0-1.169-0.211-1.559-0.633S833.014,477.092,833.014,476.442z"/>
		<path d="M925.922,502.786c0-2.195,0.762-4.05,2.288-5.565c1.524-1.516,3.36-2.274,5.503-2.274c2.206,0,4.073,0.759,5.6,2.274
			c1.524,1.516,2.288,3.37,2.288,5.565c0,2.193-0.764,4.051-2.288,5.566c-1.526,1.516-3.394,2.272-5.6,2.272
			c-2.143,0-3.979-0.757-5.503-2.272C926.684,506.837,925.922,504.979,925.922,502.786z M925.922,528.886
			c0-2.155,0.762-4.001,2.288-5.536c1.524-1.536,3.36-2.304,5.503-2.304c2.206,0,4.073,0.768,5.6,2.304
			c1.524,1.535,2.288,3.381,2.288,5.536c0,2.156-0.764,4.002-2.288,5.537c-1.526,1.535-3.394,2.303-5.6,2.303
			c-2.143,0-3.979-0.768-5.503-2.303C926.684,532.888,925.922,531.042,925.922,528.886z M931.57,476.442
			c0-0.584,0.21-1.086,0.633-1.51c0.421-0.422,0.925-0.633,1.51-0.633c0.647,0,1.184,0.211,1.606,0.633
			c0.422,0.424,0.633,0.926,0.633,1.51c0,0.649-0.211,1.186-0.633,1.607c-0.423,0.422-0.959,0.633-1.606,0.633
			c-0.585,0-1.089-0.211-1.51-0.633C931.78,477.628,931.57,477.092,931.57,476.442z M952.216,476.442
			c0-2.143,0.758-3.977,2.273-5.502s3.404-2.289,5.664-2.289c2.129,0,3.952,0.764,5.467,2.289c1.516,1.525,2.275,3.359,2.275,5.502
			c0,2.208-0.76,4.074-2.275,5.6c-1.515,1.526-3.338,2.289-5.467,2.289c-2.26,0-4.148-0.763-5.664-2.289
			C952.974,480.517,952.216,478.65,952.216,476.442z M952.216,528.886c0-2.155,0.758-4.001,2.273-5.536
			c1.516-1.536,3.404-2.304,5.664-2.304c2.129,0,3.952,0.768,5.467,2.304c1.516,1.535,2.275,3.381,2.275,5.536
			c0,2.156-0.76,4.002-2.275,5.537c-1.515,1.535-3.338,2.303-5.467,2.303c-2.26,0-4.148-0.768-5.664-2.303
			S952.216,531.042,952.216,528.886z M957.864,502.737c0-0.648,0.21-1.185,0.634-1.607c0.421-0.422,0.988-0.633,1.704-0.633
			c0.584,0,1.086,0.211,1.509,0.633c0.422,0.423,0.634,0.959,0.634,1.607c0,0.649-0.212,1.168-0.634,1.558
			c-0.423,0.39-0.925,0.585-1.509,0.585c-0.716,0-1.283-0.195-1.704-0.585C958.074,503.905,957.864,503.387,957.864,502.737z"/>
	</g>
	<g>
		<path d="M237.641,432.563c-0.664,1.133-1.517,2.006-2.559,2.617s-2.246,0.918-3.613,0.918c-2.305,0-4.102-0.735-5.391-2.207
			c-1.289-1.471-1.934-3.763-1.934-6.875v-12.461h3.848v12.5c0,2.253,0.332,3.803,0.996,4.648c0.664,0.847,1.699,1.27,3.105,1.27
			c1.367,0,2.497-0.276,3.389-0.83c0.892-0.553,1.565-1.338,2.021-2.354v-15.234h3.848v21.133h-3.457L237.641,432.563z"/>
	</g>
	<g>
		<path d="M357.805,429.458l0.332,1.484h0.117l0.371-1.484l4.863-14.902h3.926l-7.773,21.133h-2.91l-7.871-21.133h3.945
			L357.805,429.458z"/>
	</g>
	<g>
		<path d="M484.455,422.349l4.492-7.793h4.492l-6.855,10.449l7.051,10.684h-4.414l-4.688-7.988l-4.688,7.988h-4.453l7.051-10.684
			l-6.855-10.449h4.434L484.455,422.349z"/>
	</g>
	<g>
		<path d="M704.197,427.856l0.684,2.656h0.117l5.195-15.957h4.277l-8.887,24.375c-0.534,1.419-1.299,2.656-2.295,3.711
			s-2.341,1.582-4.033,1.582c-0.313,0-0.71-0.036-1.191-0.107c-0.481-0.072-0.853-0.141-1.113-0.205l0.391-3.027
			c-0.078-0.014,0.153,0,0.693,0.039s0.882,0.059,1.025,0.059c0.82,0,1.491-0.365,2.012-1.094c0.521-0.729,0.957-1.537,1.309-2.422
			l0.918-2.207l-7.852-20.703h4.297L704.197,427.856z"/>
	</g>
	<g>
		<path d="M826.588,432.661h12.207v3.027h-16.797v-2.715l11.426-15.391h-11.289v-3.027h15.996v2.598L826.588,432.661z"/>
	</g>
	<g>
		<path d="M951.811,432.661h12.207v3.027h-16.797v-2.715l11.426-15.391h-11.289v-3.027h15.996v2.598L951.811,432.661z
			 M955.6,408.853l2.871-2.891h3.32v0.352l-5.02,4.785h-2.324l-4.961-4.746v-0.391h3.242L955.6,408.853z"/>
	</g>
	<g>
		<path d="M221.862,793.998l0.449,2.559h0.117l0.547-2.559l4.219-13.438h3.086l4.238,13.438l0.605,2.852h0.117l0.566-2.852
			l3.32-13.438h3.828l-6.133,21.133h-3.105l-4.082-12.871l-0.879-3.594l-0.117,0.02l-0.84,3.574l-4.023,12.871h-3.105l-6.133-21.133
			h3.828L221.862,793.998z"/>
	</g>
	<g>
		<path d="M205.242,869.597c0-2.143,0.762-3.992,2.288-5.551c1.524-1.559,3.392-2.338,5.6-2.338c2.143,0,3.977,0.779,5.503,2.338
			c1.524,1.559,2.288,3.408,2.288,5.551c0,1.039-0.211,2.029-0.633,2.971c-0.423,0.941-0.974,1.77-1.655,2.482
			c-0.682,0.716-1.51,1.283-2.483,1.705c-0.974,0.423-1.981,0.633-3.02,0.633c-1.104,0-2.127-0.21-3.067-0.633
			c-0.942-0.422-1.77-0.989-2.483-1.705c-0.715-0.713-1.283-1.541-1.704-2.482C205.452,871.626,205.242,870.636,205.242,869.597z
			 M210.891,843.399c0-0.648,0.205-1.184,0.619-1.607c0.412-0.421,0.936-0.633,1.57-0.633c0.57,0,1.062,0.212,1.476,0.633
			c0.413,0.424,0.62,0.959,0.62,1.607c0,0.584-0.207,1.088-0.62,1.51c-0.414,0.423-0.905,0.633-1.476,0.633
			c-0.635,0-1.158-0.21-1.57-0.633C211.096,844.487,210.891,843.983,210.891,843.399z M210.891,895.794
			c0-0.648,0.205-1.184,0.619-1.607c0.412-0.421,0.936-0.633,1.57-0.633c0.57,0,1.062,0.212,1.476,0.633
			c0.413,0.424,0.62,0.959,0.62,1.607c0,0.584-0.207,1.088-0.62,1.51c-0.414,0.423-0.905,0.633-1.476,0.633
			c-0.635,0-1.158-0.21-1.57-0.633C211.096,896.882,210.891,896.378,210.891,895.794z M231.634,843.399
			c0-1.104,0.212-2.126,0.636-3.068c0.425-0.939,0.98-1.768,1.667-2.482c0.686-0.714,1.503-1.281,2.449-1.705
			c0.946-0.421,1.943-0.633,2.99-0.633c2.221,0,4.098,0.764,5.634,2.289c1.535,1.525,2.304,3.393,2.304,5.6
			c0,2.143-0.769,3.978-2.304,5.502c-1.536,1.527-3.413,2.289-5.634,2.289c-2.091,0-3.904-0.762-5.439-2.289
			C232.4,847.377,231.634,845.542,231.634,843.399z M231.634,869.597c0-1.037,0.212-2.045,0.636-3.02
			c0.425-0.973,0.98-1.816,1.667-2.531c0.686-0.714,1.503-1.281,2.449-1.705c0.946-0.421,1.943-0.633,2.99-0.633
			c2.221,0,4.098,0.779,5.634,2.338c1.535,1.559,2.304,3.408,2.304,5.551c0,1.039-0.213,2.029-0.638,2.971s-0.997,1.77-1.715,2.482
			c-0.719,0.716-1.553,1.283-2.499,1.705c-0.948,0.423-1.977,0.633-3.086,0.633c-1.047,0-2.044-0.21-2.99-0.633
			c-0.946-0.422-1.764-0.989-2.449-1.705c-0.687-0.713-1.242-1.541-1.667-2.482C231.846,871.626,231.634,870.636,231.634,869.597z
			 M231.634,895.794c0-1.104,0.212-2.126,0.636-3.068c0.425-0.939,0.98-1.768,1.667-2.482c0.686-0.714,1.503-1.281,2.449-1.705
			c0.946-0.421,1.943-0.633,2.99-0.633c2.221,0,4.098,0.764,5.634,2.289c1.535,1.525,2.304,3.393,2.304,5.6
			c0,2.143-0.769,3.978-2.304,5.502c-1.536,1.527-3.413,2.289-5.634,2.289c-2.091,0-3.904-0.762-5.439-2.289
			C232.4,899.771,231.634,897.937,231.634,895.794z"/>
	</g>
	
		<use xlink:href="#naprej_2_"  width="21.572" height="21.572" id="XMLID_6_" x="-4.422" y="-10.786" transform="matrix(2.8293 0 0 -2.8293 1841.9043 1015.6924)" overflow="visible"/>
	
		<use xlink:href="#naprej_2_"  width="21.572" height="21.572" id="XMLID_5_" x="-4.422" y="-10.786" transform="matrix(-2.8293 0 0 2.8293 85.2363 1015.6924)" overflow="visible"/>
	<g>
		<g>
			<rect x="162.532" y="197.853" fill="#35A8DF" width="7.486" height="7.482"/>
			<rect x="181.057" y="197.853" fill="#203341" width="7.483" height="7.482"/>
			<rect x="199.58" y="197.853" fill="#32BCAD" width="7.486" height="7.482"/>
			<rect x="218.105" y="197.853" fill="#FBD639" width="7.483" height="7.482"/>
			<rect x="236.627" y="197.853" fill="#35A8DF" width="7.486" height="7.482"/>
			<rect x="255.151" y="197.853" fill="#203341" width="7.486" height="7.482"/>
			<rect x="273.675" y="197.853" fill="#32BCAD" width="7.485" height="7.482"/>
			<rect x="292.199" y="197.853" fill="#FBD639" width="7.485" height="7.482"/>
			<rect x="310.723" y="197.853" fill="#35A8DF" width="7.484" height="7.482"/>
			<rect x="329.247" y="197.853" fill="#203341" width="7.484" height="7.482"/>
			<rect x="347.77" y="197.853" fill="#32BCAD" width="7.485" height="7.482"/>
			<rect x="366.294" y="197.853" fill="#FBD639" width="7.484" height="7.482"/>
			<rect x="384.818" y="197.853" fill="#35A8DF" width="7.485" height="7.482"/>
			<rect x="403.342" y="197.853" fill="#203341" width="7.484" height="7.482"/>
			<rect x="421.866" y="197.853" fill="#32BCAD" width="7.486" height="7.482"/>
			<rect x="440.388" y="197.853" fill="#FBD639" width="7.486" height="7.482"/>
			<rect x="458.913" y="197.853" fill="#35A8DF" width="7.484" height="7.482"/>
			<rect x="477.436" y="197.853" fill="#203341" width="7.486" height="7.482"/>
			<rect x="495.961" y="197.853" fill="#32BCAD" width="7.483" height="7.482"/>
			<rect x="514.484" y="197.853" fill="#FBD639" width="7.485" height="7.482"/>
			<rect x="530.821" y="197.853" fill="#35A8DF" width="7.484" height="7.482"/>
			<rect x="549.344" y="197.853" fill="#203341" width="7.486" height="7.482"/>
			<rect x="567.869" y="197.853" fill="#32BCAD" width="7.484" height="7.482"/>
			<rect x="586.392" y="197.853" fill="#FBD639" width="7.485" height="7.482"/>
			<rect x="604.917" y="197.853" fill="#35A8DF" width="7.484" height="7.482"/>
			<rect x="623.44" y="197.853" fill="#203341" width="7.484" height="7.482"/>
			<rect x="641.962" y="197.853" fill="#32BCAD" width="7.486" height="7.482"/>
			<rect x="660.488" y="197.853" fill="#FBD639" width="7.483" height="7.482"/>
			<rect x="679.01" y="197.853" fill="#35A8DF" width="7.486" height="7.482"/>
			<rect x="697.536" y="197.853" fill="#203341" width="7.484" height="7.482"/>
			<rect x="716.058" y="197.853" fill="#32BCAD" width="7.485" height="7.482"/>
			<rect x="734.582" y="197.853" fill="#FBD639" width="7.486" height="7.482"/>
			<rect x="753.106" y="197.853" fill="#35A8DF" width="7.485" height="7.482"/>
			<rect x="771.629" y="197.853" fill="#203341" width="7.484" height="7.482"/>
			<rect x="790.153" y="197.853" fill="#32BCAD" width="7.486" height="7.482"/>
			<rect x="808.678" y="197.853" fill="#FBD639" width="7.483" height="7.482"/>
			<rect x="827.201" y="197.853" fill="#35A8DF" width="7.486" height="7.482"/>
			<rect x="845.725" y="197.853" fill="#203341" width="7.484" height="7.482"/>
			<rect x="864.249" y="197.853" fill="#32BCAD" width="7.486" height="7.482"/>
			<rect x="882.772" y="197.853" fill="#FBD639" width="7.485" height="7.482"/>
			<rect x="899.11" y="197.853" fill="#35A8DF" width="7.484" height="7.482"/>
			<rect x="917.632" y="197.853" fill="#203341" width="7.485" height="7.482"/>
			<rect x="936.157" y="197.853" fill="#32BCAD" width="7.485" height="7.482"/>
			<rect x="954.68" y="197.853" fill="#FBD639" width="7.485" height="7.482"/>
			<rect x="973.204" y="197.853" fill="#35A8DF" width="7.484" height="7.482"/>
			<rect x="991.728" y="197.853" fill="#203341" width="7.484" height="7.482"/>
			<rect x="1010.253" y="197.853" fill="#32BCAD" width="7.482" height="7.482"/>
			<rect x="1028.774" y="197.853" fill="#FBD639" width="7.486" height="7.482"/>
			<rect x="1047.298" y="197.853" fill="#35A8DF" width="7.486" height="7.482"/>
			<rect x="1065.823" y="197.853" fill="#203341" width="7.486" height="7.482"/>
			<rect x="1084.345" y="197.853" fill="#32BCAD" width="7.486" height="7.482"/>
			<rect x="1102.87" y="197.853" fill="#FBD639" width="7.486" height="7.482"/>
			<rect x="1121.394" y="197.853" fill="#35A8DF" width="7.486" height="7.482"/>
			<rect x="1139.919" y="197.853" fill="#203341" width="7.482" height="7.482"/>
			<rect x="1158.44" y="197.853" fill="#32BCAD" width="7.486" height="7.482"/>
			<rect x="1176.964" y="197.853" fill="#FBD639" width="7.486" height="7.482"/>
			<rect x="1195.489" y="197.853" fill="#35A8DF" width="7.484" height="7.482"/>
			<rect x="1214.013" y="197.853" fill="#203341" width="7.484" height="7.482"/>
			<rect x="1232.536" y="197.853" fill="#32BCAD" width="7.486" height="7.482"/>
			<rect x="1251.06" y="197.853" fill="#FBD639" width="7.484" height="7.482"/>
		</g>
		<g>
			<rect x="1270.554" y="197.853" fill="#35A8DF" width="7.486" height="7.482"/>
			<rect x="1289.079" y="197.853" fill="#203341" width="7.484" height="7.482"/>
			<rect x="1307.603" y="197.853" fill="#32BCAD" width="7.484" height="7.482"/>
			<rect x="1326.126" y="197.853" fill="#FBD639" width="7.484" height="7.482"/>
			<rect x="1344.649" y="197.853" fill="#35A8DF" width="7.486" height="7.482"/>
			<rect x="1363.173" y="197.853" fill="#203341" width="7.484" height="7.482"/>
			<rect x="1381.696" y="197.853" fill="#32BCAD" width="7.486" height="7.482"/>
			<rect x="1400.222" y="197.853" fill="#FBD639" width="7.484" height="7.482"/>
			<rect x="1418.745" y="197.853" fill="#35A8DF" width="7.484" height="7.482"/>
			<rect x="1437.269" y="197.853" fill="#203341" width="7.484" height="7.482"/>
			<rect x="1455.792" y="197.853" fill="#32BCAD" width="7.484" height="7.482"/>
			<rect x="1474.315" y="197.853" fill="#FBD639" width="7.486" height="7.482"/>
			<rect x="1492.841" y="197.853" fill="#35A8DF" width="7.484" height="7.482"/>
			<rect x="1511.362" y="197.853" fill="#203341" width="7.486" height="7.482"/>
			<rect x="1529.888" y="197.853" fill="#32BCAD" width="7.484" height="7.482"/>
			<rect x="1548.411" y="197.853" fill="#FBD639" width="7.484" height="7.482"/>
			<rect x="1566.935" y="197.853" fill="#35A8DF" width="7.484" height="7.482"/>
			<rect x="1585.458" y="197.853" fill="#203341" width="7.486" height="7.482"/>
			<rect x="1603.981" y="197.853" fill="#32BCAD" width="7.484" height="7.482"/>
			<rect x="1622.505" y="197.853" fill="#FBD639" width="7.486" height="7.482"/>
			<rect x="1638.843" y="197.853" fill="#35A8DF" width="7.484" height="7.482"/>
			<rect x="1657.366" y="197.853" fill="#203341" width="7.484" height="7.482"/>
			<rect x="1675.89" y="197.853" fill="#32BCAD" width="7.486" height="7.482"/>
			<rect x="1694.415" y="197.853" fill="#FBD639" width="7.484" height="7.482"/>
			<rect x="1712.937" y="197.853" fill="#35A8DF" width="7.486" height="7.482"/>
			<rect x="1731.462" y="197.853" fill="#203341" width="7.484" height="7.482"/>
			<rect x="1749.985" y="197.853" fill="#32BCAD" width="7.484" height="7.482"/>
		</g>
	</g>
</g>
<g id="mreza">
</g>
<g id="Layer_1">
</g>
<g id="glava">
</g>
<g id="UITELJ">
	<g>
		
			<line fill="none" stroke="#000000" stroke-width="2" stroke-miterlimit="10" x1="1843.869" y1="68.169" x2="1875.755" y2="36.284"/>
		
			<line fill="none" stroke="#000000" stroke-width="2" stroke-miterlimit="10" x1="1843.869" y1="36.284" x2="1875.755" y2="68.169"/>
	</g>
</g>
</svg>
