<?xml version="1.0" encoding="utf-8"?>
<!-- Generator: Adobe Illustrator 16.0.0, SVG Export Plug-In . SVG Version: 6.00 Build 0)  -->
<!DOCTYPE svg PUBLIC "-//W3C//DTD SVG 1.1//EN" "http://www.w3.org/Graphics/SVG/1.1/DTD/svg11.dtd">
<svg version="1.1" xmlns="http://www.w3.org/2000/svg" xmlns:xlink="http://www.w3.org/1999/xlink" x="0px" y="0px"
	 width="306.204px" height="321.292px" viewBox="0 0 306.204 321.292" enable-background="new 0 0 306.204 321.292"
	 xml:space="preserve">
<g id="gb">
</g>
<g id="mreza">
</g>
<g id="tipke">
	<g>
		<path d="M121.109,49.359c-7.786,0-14.121,6.335-14.121,14.121c0,7.786,6.334,14.121,14.121,14.121
			c7.787,0,14.121-6.335,14.121-14.121C135.23,55.694,128.896,49.359,121.109,49.359z M121.109,71.602
			c-4.478,0-8.121-3.643-8.121-8.121s3.643-8.121,8.121-8.121s8.121,3.643,8.121,8.121S125.587,71.602,121.109,71.602z"/>
		<path d="M121.109,57.428c-3.337,0-6.053,2.715-6.053,6.052c0,3.337,2.715,6.052,6.053,6.052s6.053-2.715,6.053-6.052
			C127.162,60.143,124.447,57.428,121.109,57.428z"/>
		<path d="M121.109,41.785c-11.962,0-21.695,9.733-21.695,21.696c0,11.963,9.732,21.696,21.695,21.696
			c11.963,0,21.695-9.733,21.695-21.696C142.805,51.518,133.072,41.785,121.109,41.785z M121.109,81.177
			c-9.757,0-17.695-7.938-17.695-17.696c0-9.757,7.938-17.696,17.695-17.696c9.757,0,17.695,7.938,17.695,17.696
			C138.805,73.238,130.867,81.177,121.109,81.177z"/>
		<path d="M121.109,32.824c-16.904,0-30.656,13.752-30.656,30.656c0,16.904,13.752,30.656,30.656,30.656
			s30.656-13.752,30.656-30.656C151.766,46.576,138.013,32.824,121.109,32.824z M121.109,92.136
			c-15.801,0-28.656-12.855-28.656-28.656c0-15.801,12.855-28.656,28.656-28.656s28.656,12.855,28.656,28.656
			C149.766,79.281,136.911,92.136,121.109,92.136z"/>
		<path d="M121.109,23.422c-22.087,0-40.059,17.97-40.059,40.057c0,22.089,17.971,40.059,40.059,40.059
			c22.09,0,40.059-17.97,40.059-40.059C161.168,41.392,143.199,23.422,121.109,23.422z M121.109,103.288
			c-21.949,0-39.809-17.858-39.809-39.809c0-21.95,17.86-39.807,39.809-39.807c21.951,0,39.809,17.857,39.809,39.807
			C160.918,85.43,143.061,103.288,121.109,103.288z"/>
	</g>
</g>
<g id="CRKA">
</g>
<g id="txt">
</g>
<g id="glava">
</g>
</svg>
