<?xml version="1.0" encoding="utf-8"?>
<!-- Generator: Adobe Illustrator 16.0.0, SVG Export Plug-In . SVG Version: 6.00 Build 0)  -->
<!DOCTYPE svg PUBLIC "-//W3C//DTD SVG 1.1//EN" "http://www.w3.org/Graphics/SVG/1.1/DTD/svg11.dtd">
<svg version="1.1" xmlns="http://www.w3.org/2000/svg" xmlns:xlink="http://www.w3.org/1999/xlink" x="0px" y="0px"
	 width="306.204px" height="321.292px" viewBox="0 0 306.204 321.292" enable-background="new 0 0 306.204 321.292"
	 xml:space="preserve">
<g id="gb">
</g>
<g id="mreza">
</g>
<g id="tipke">
	<g>
		<path d="M249.38,95.917c-7.786,0-14.121,6.335-14.121,14.121c0,7.786,6.335,14.121,14.121,14.121s14.121-6.335,14.121-14.121
			C263.501,102.251,257.166,95.917,249.38,95.917z M249.38,118.159c-4.478,0-8.121-3.643-8.121-8.121s3.644-8.121,8.121-8.121
			s8.121,3.643,8.121,8.121S253.857,118.159,249.38,118.159z"/>
		<path d="M249.38,103.986c-3.338,0-6.053,2.715-6.053,6.052c0,3.337,2.715,6.053,6.053,6.053s6.053-2.715,6.053-6.053
			C255.433,106.701,252.718,103.986,249.38,103.986z"/>
		<path d="M249.38,88.343c-11.963,0-21.695,9.732-21.695,21.695c0,11.963,9.732,21.696,21.695,21.696s21.695-9.733,21.695-21.696
			C271.075,98.075,261.343,88.343,249.38,88.343z M249.38,127.734c-9.757,0-17.695-7.938-17.695-17.696
			c0-9.757,7.938-17.695,17.695-17.695s17.695,7.938,17.695,17.695C267.075,119.796,259.137,127.734,249.38,127.734z"/>
		<path d="M249.38,79.382c-16.904,0-30.656,13.752-30.656,30.656c0,16.904,13.752,30.656,30.656,30.656s30.656-13.752,30.656-30.656
			C280.036,93.134,266.284,79.382,249.38,79.382z M249.38,138.694c-15.801,0-28.656-12.855-28.656-28.656
			c0-15.801,12.855-28.656,28.656-28.656s28.656,12.855,28.656,28.656C278.036,125.839,265.181,138.694,249.38,138.694z"/>
		<path d="M249.38,69.98c-22.088,0-40.059,17.97-40.059,40.057c0,22.089,17.971,40.059,40.059,40.059
			c22.09,0,40.059-17.97,40.059-40.059C289.438,87.95,271.47,69.98,249.38,69.98z M249.38,149.846
			c-21.949,0-39.809-17.857-39.809-39.809c0-21.95,17.859-39.807,39.809-39.807c21.951,0,39.809,17.857,39.809,39.807
			C289.188,131.989,271.331,149.846,249.38,149.846z"/>
	</g>
</g>
<g id="CRKA">
</g>
<g id="txt">
</g>
<g id="glava">
</g>
</svg>
