<?xml version="1.0" encoding="utf-8"?>
<!-- Generator: Adobe Illustrator 16.0.0, SVG Export Plug-In . SVG Version: 6.00 Build 0)  -->
<!DOCTYPE svg PUBLIC "-//W3C//DTD SVG 1.1//EN" "http://www.w3.org/Graphics/SVG/1.1/DTD/svg11.dtd">
<svg version="1.1" xmlns="http://www.w3.org/2000/svg" xmlns:xlink="http://www.w3.org/1999/xlink" x="0px" y="0px"
	 width="306.204px" height="321.292px" viewBox="0 0 306.204 321.292" enable-background="new 0 0 306.204 321.292"
	 xml:space="preserve">
<g id="gb">
</g>
<g id="mreza">
</g>
<g id="tipke">
	<g>
		<path d="M50.438,168.675c-7.786,0-14.121,6.335-14.121,14.122c0,7.786,6.334,14.121,14.121,14.121
			c7.787,0,14.121-6.334,14.121-14.121C64.56,175.01,58.225,168.675,50.438,168.675z M50.438,190.918
			c-4.478,0-8.121-3.643-8.121-8.121c0-4.479,3.643-8.122,8.121-8.122s8.121,3.644,8.121,8.122
			C58.56,187.275,54.917,190.918,50.438,190.918z"/>
		<path d="M50.438,176.744c-3.337,0-6.053,2.715-6.053,6.053s2.715,6.053,6.053,6.053s6.053-2.715,6.053-6.053
			S53.776,176.744,50.438,176.744z"/>
		<path d="M50.438,161.101c-11.962,0-21.695,9.733-21.695,21.696c0,11.963,9.732,21.696,21.695,21.696
			c11.963,0,21.695-9.733,21.695-21.696C72.134,170.834,62.401,161.101,50.438,161.101z M50.438,200.493
			c-9.757,0-17.695-7.938-17.695-17.696s7.938-17.695,17.695-17.695c9.757,0,17.695,7.938,17.695,17.695
			S60.196,200.493,50.438,200.493z"/>
		<path d="M50.438,152.141c-16.904,0-30.656,13.751-30.656,30.655c0,16.904,13.752,30.656,30.656,30.656
			s30.656-13.752,30.656-30.656C81.095,165.892,67.342,152.141,50.438,152.141z M50.438,211.452
			c-15.801,0-28.656-12.855-28.656-28.656c0-15.8,12.855-28.655,28.656-28.655s28.656,12.854,28.656,28.655
			C79.095,198.597,66.24,211.452,50.438,211.452z"/>
		<path d="M50.438,142.738c-22.087,0-40.059,17.97-40.059,40.057c0,22.088,17.971,40.06,40.059,40.06
			c22.09,0,40.059-17.971,40.059-40.06C90.497,160.708,72.528,142.738,50.438,142.738z M50.438,222.605
			c-21.949,0-39.809-17.858-39.809-39.81c0-21.95,17.86-39.807,39.809-39.807c21.951,0,39.809,17.858,39.809,39.807
			C90.247,204.747,72.39,222.605,50.438,222.605z"/>
	</g>
</g>
<g id="CRKA">
</g>
<g id="txt">
</g>
<g id="glava">
</g>
</svg>
