<?xml version="1.0" encoding="utf-8"?>
<!-- Generator: Adobe Illustrator 16.0.0, SVG Export Plug-In . SVG Version: 6.00 Build 0)  -->
<!DOCTYPE svg PUBLIC "-//W3C//DTD SVG 1.1//EN" "http://www.w3.org/Graphics/SVG/1.1/DTD/svg11.dtd">
<svg version="1.1" xmlns="http://www.w3.org/2000/svg" xmlns:xlink="http://www.w3.org/1999/xlink" x="0px" y="0px"
	 width="306.204px" height="321.292px" viewBox="0 0 306.204 321.292" enable-background="new 0 0 306.204 321.292"
	 xml:space="preserve">
<g id="gb">
</g>
<g id="mreza">
</g>
<g id="tipke">
	<g>
		<path d="M214.631,54.796c-7.786,0-14.121,6.334-14.121,14.121s6.335,14.121,14.121,14.121s14.121-6.335,14.121-14.121
			S222.417,54.796,214.631,54.796z M214.631,77.038c-4.478,0-8.121-3.643-8.121-8.121c0-4.478,3.644-8.121,8.121-8.121
			s8.121,3.643,8.121,8.121C222.752,73.395,219.108,77.038,214.631,77.038z"/>
		<path d="M214.631,62.865c-3.338,0-6.053,2.715-6.053,6.052c0,3.337,2.715,6.053,6.053,6.053s6.053-2.715,6.053-6.053
			C220.684,65.58,217.969,62.865,214.631,62.865z"/>
		<path d="M214.631,47.222c-11.963,0-21.695,9.732-21.695,21.695c0,11.963,9.732,21.696,21.695,21.696s21.695-9.733,21.695-21.696
			C236.326,56.954,226.594,47.222,214.631,47.222z M214.631,86.613c-9.757,0-17.695-7.938-17.695-17.696
			c0-9.757,7.938-17.695,17.695-17.695s17.695,7.938,17.695,17.695C232.326,78.675,224.388,86.613,214.631,86.613z"/>
		<path d="M214.631,38.261c-16.904,0-30.656,13.752-30.656,30.655c0,16.904,13.752,30.656,30.656,30.656
			s30.656-13.752,30.656-30.656C245.287,52.013,231.535,38.261,214.631,38.261z M214.631,97.573
			c-15.801,0-28.656-12.855-28.656-28.656c0-15.801,12.855-28.655,28.656-28.655s28.656,12.855,28.656,28.655
			C243.287,84.718,230.432,97.573,214.631,97.573z"/>
		<path d="M214.631,28.859c-22.088,0-40.059,17.97-40.059,40.057c0,22.089,17.971,40.059,40.059,40.059
			c22.09,0,40.059-17.97,40.059-40.059C254.689,46.829,236.721,28.859,214.631,28.859z M214.631,108.725
			c-21.949,0-39.809-17.858-39.809-39.809c0-21.949,17.859-39.807,39.809-39.807c21.951,0,39.809,17.858,39.809,39.807
			C254.439,90.867,236.582,108.725,214.631,108.725z"/>
	</g>
</g>
<g id="CRKA">
</g>
<g id="txt">
</g>
<g id="glava">
</g>
</svg>
