<?xml version="1.0" encoding="utf-8"?>
<!-- Generator: Adobe Illustrator 16.0.0, SVG Export Plug-In . SVG Version: 6.00 Build 0)  -->
<!DOCTYPE svg PUBLIC "-//W3C//DTD SVG 1.1//EN" "http://www.w3.org/Graphics/SVG/1.1/DTD/svg11.dtd">
<svg version="1.1" xmlns="http://www.w3.org/2000/svg" xmlns:xlink="http://www.w3.org/1999/xlink" x="0px" y="0px"
	 width="306.204px" height="321.292px" viewBox="0 0 306.204 321.292" enable-background="new 0 0 306.204 321.292"
	 xml:space="preserve">
<g id="gb">
</g>
<g id="mreza">
</g>
<g id="tipke">
	<g>
		<path d="M168.309,37.09c-7.787,0-14.121,6.334-14.121,14.121s6.334,14.121,14.121,14.121s14.121-6.335,14.121-14.121
			S176.096,37.09,168.309,37.09z M168.309,59.332c-4.478,0-8.121-3.643-8.121-8.121c0-4.478,3.643-8.121,8.121-8.121
			s8.121,3.643,8.121,8.121C176.43,55.689,172.787,59.332,168.309,59.332z"/>
		<path d="M168.309,45.159c-3.337,0-6.053,2.715-6.053,6.052c0,3.337,2.715,6.053,6.053,6.053s6.053-2.715,6.053-6.053
			C174.362,47.874,171.646,45.159,168.309,45.159z"/>
		<path d="M168.309,29.516c-11.963,0-21.695,9.732-21.695,21.695c0,11.964,9.732,21.697,21.695,21.697s21.695-9.733,21.695-21.697
			C190.004,39.248,180.272,29.516,168.309,29.516z M168.309,68.908c-9.757,0-17.695-7.939-17.695-17.697
			c0-9.757,7.938-17.695,17.695-17.695s17.695,7.938,17.695,17.695C186.004,60.969,178.066,68.908,168.309,68.908z"/>
		<path d="M168.309,20.555c-16.904,0-30.656,13.752-30.656,30.656c0,16.904,13.752,30.656,30.656,30.656
			s30.656-13.752,30.656-30.656C198.965,34.307,185.213,20.555,168.309,20.555z M168.309,79.867
			c-15.801,0-28.656-12.855-28.656-28.656c0-15.801,12.855-28.656,28.656-28.656s28.656,12.855,28.656,28.656
			C196.965,67.012,184.11,79.867,168.309,79.867z"/>
		<path d="M168.309,11.153c-22.088,0-40.059,17.969-40.059,40.057c0,22.089,17.971,40.059,40.059,40.059
			c22.09,0,40.059-17.97,40.059-40.059C208.368,29.123,190.399,11.153,168.309,11.153z M168.309,91.019
			c-21.949,0-39.809-17.858-39.809-39.809c0-21.95,17.859-39.807,39.809-39.807c21.951,0,39.809,17.857,39.809,39.807
			C208.118,73.161,190.26,91.019,168.309,91.019z"/>
	</g>
</g>
<g id="CRKA">
</g>
<g id="txt">
</g>
<g id="glava">
</g>
</svg>
