<?xml version="1.0" encoding="utf-8"?>
<!-- Generator: Adobe Illustrator 16.0.0, SVG Export Plug-In . SVG Version: 6.00 Build 0)  -->
<!DOCTYPE svg PUBLIC "-//W3C//DTD SVG 1.1//EN" "http://www.w3.org/Graphics/SVG/1.1/DTD/svg11.dtd">
<svg version="1.1" xmlns="http://www.w3.org/2000/svg" xmlns:xlink="http://www.w3.org/1999/xlink" x="0px" y="0px"
	 width="80.034px" height="52.25px" viewBox="0 0 80.034 52.25" enable-background="new 0 0 80.034 52.25" xml:space="preserve">
<g id="gb">
</g>
<g id="mreza">
</g>
<g id="Layer_1">
</g>
<g id="CRKA">
</g>
<g id="txt">
</g>
<g id="glava">
	<g>
		<path fill="#6D6E70" d="M26.536,22.381H8.516c-0.828,0-1.5-0.672-1.5-1.5s0.672-1.5,1.5-1.5h18.021c0.828,0,1.5,0.672,1.5,1.5
			S27.364,22.381,26.536,22.381z"/>
		<path fill="#6D6E70" d="M31.401,28.128H15.181c-0.828,0-1.5-0.672-1.5-1.5s0.672-1.5,1.5-1.5h16.221c0.828,0,1.5,0.672,1.5,1.5
			S32.229,28.128,31.401,28.128z"/>
		<path fill="#6D6E70" d="M25.431,33.876H15.387c-0.828,0-1.5-0.672-1.5-1.5s0.672-1.5,1.5-1.5h10.044c0.828,0,1.5,0.672,1.5,1.5
			S26.259,33.876,25.431,33.876z"/>
		<g>
			<circle fill="#6D6E70" cx="49.229" cy="21.44" r="3.777"/>
			<path fill="#6D6E70" d="M53.104,31.388h-4.742l-0.85-3.206c-0.057-0.221-0.152-0.43-0.281-0.619l-1.984-2.907
				c-0.02-0.029-0.04-0.06-0.063-0.087l-4.068-5.332c-0.379-0.5-0.971-0.792-1.598-0.792h-7.268c-1.109,0-2.009,0.899-2.009,2.01
				s0.899,2.01,2.009,2.01h6.273l1.383,1.814l-6.912,6.045c-0.359,0.314-0.596,0.747-0.666,1.22l-0.334,2.26l-10.137,7.321
				c-0.9,0.65-1.104,1.907-0.453,2.808c0.394,0.544,1.008,0.832,1.632,0.832c0.407,0,0.819-0.123,1.175-0.381l10.799-7.801
				l3.285,3.896l-7.081,1.877c-1.073,0.285-1.712,1.385-1.429,2.458c0.24,0.9,1.053,1.495,1.941,1.495
				c0.172,0,0.345-0.021,0.518-0.067l10.148-2.689c0.666-0.177,1.196-0.682,1.404-1.339c0.205-0.656,0.063-1.373-0.383-1.9
				l-5.012-5.944l5.963-2.368l0.506,1.913c0.232,0.882,1.031,1.495,1.943,1.495h6.289c1.111,0,2.012-0.899,2.012-2.009
				C55.116,32.288,54.216,31.388,53.104,31.388z"/>
		</g>
	</g>
	<rect fill="none" width="80.034" height="52.25"/>
</g>
</svg>
