<?xml version="1.0" encoding="utf-8"?>
<!-- Generator: Adobe Illustrator 16.0.0, SVG Export Plug-In . SVG Version: 6.00 Build 0)  -->
<!DOCTYPE svg PUBLIC "-//W3C//DTD SVG 1.1//EN" "http://www.w3.org/Graphics/SVG/1.1/DTD/svg11.dtd">
<svg version="1.1" xmlns="http://www.w3.org/2000/svg" xmlns:xlink="http://www.w3.org/1999/xlink" x="0px" y="0px"
	 width="306.204px" height="321.292px" viewBox="0 0 306.204 321.292" enable-background="new 0 0 306.204 321.292"
	 xml:space="preserve">
<g id="gb">
</g>
<g id="mreza">
</g>
<g id="tipke">
	
		<path opacity="0.95" fill-rule="evenodd" clip-rule="evenodd" fill="none" stroke="#FFFFFF" stroke-width="2" stroke-linecap="round" stroke-miterlimit="10" d="
		M184.827,322.292c2.85-5.201,6.48-9.901,11.205-13.873c3.561-2.994,11.281-13.934,11.281-13.934s14.516-23.426,21.256-35.328
		c10.148-17.921,28.643-54.948,28.643-54.948s10.264-19.503-1.197-26.194c-1.822-1.064-12.65-4.67-21.879,4.419
		c-3.625,3.57-18.629,25.789-22.717,33.176c0,0.001-6.318,11.659-7.406,14.21c-9.896,14.512-22.24,0.389-22.016-14.823
		c0.146-9.864,0.248-19.81,1.836-29.522c1.545-9.459,10.877-72.254,11.219-94.591c0.225-14.915,1.262-37.336-15.922-30.827
		c-6.77,2.563-6.826,13.345-8.906,21.269c-1.09,4.142-12.168,70.767-13.857,75.514c-1.902,5.346-5.768,1.025-5.762-1.558
		c0.078-24.627,0.049-49.261-0.664-73.877c-0.412-14.216-1.328-39.846-16.209-34.08c-8.71,3.375-9.237,15.544-10.46,25.508
		c-1.334,10.861-0.586,84.825-4.016,93.781c-0.299,1.184-1.923,2.06-3.308,1.838c-5.033,0.928-9.211-44.976-10.545-59.855
		c-1.334-14.878-1.512-47.931-16.019-43.556c-7.271,2.192-6.985,10.814-7.599,17.922c-0.445,0.749,4.102,90.064,4.775,97.049
		c0.439,4.576-3.396,7.504-5.422,1.484c-2.506-7.442-9.309-40.722-10.588-49.605c-1.352-9.397-1.816-31.494-13.516-29.954
		c-6.154,0.81-8.693,6.43-9.865,8.801c-4.76,11.132-0.871,29.157,0.355,40.985c1.518,14.635,6.291,45.234,6.26,46.066
		c2.4,15.811-1.002,56.856,6.422,72.797c2.531,8.172,16.197,39.446,19.92,47.52c0.646,1.398,1.094,2.792,1.412,4.186"/>
</g>
<g id="CRKA">
</g>
<g id="txt">
</g>
<g id="glava">
</g>
</svg>
