<?xml version="1.0" encoding="utf-8"?>
<!-- Generator: Adobe Illustrator 16.0.0, SVG Export Plug-In . SVG Version: 6.00 Build 0)  -->
<!DOCTYPE svg PUBLIC "-//W3C//DTD SVG 1.1//EN" "http://www.w3.org/Graphics/SVG/1.1/DTD/svg11.dtd">
<svg version="1.1" xmlns="http://www.w3.org/2000/svg" xmlns:xlink="http://www.w3.org/1999/xlink" x="0px" y="0px"
	 width="306.204px" height="321.292px" viewBox="0 0 306.204 321.292" enable-background="new 0 0 306.204 321.292"
	 xml:space="preserve">
<g id="gb">
</g>
<g id="mreza">
</g>
<g id="tipke">
	<g>
		<path d="M186.223,49.359c-7.787,0-14.121,6.335-14.121,14.121c0,7.786,6.334,14.121,14.121,14.121
			c7.786,0,14.121-6.335,14.121-14.121C200.343,55.694,194.009,49.359,186.223,49.359z M186.223,71.602
			c-4.478,0-8.121-3.643-8.121-8.121s3.643-8.121,8.121-8.121s8.121,3.643,8.121,8.121S190.701,71.602,186.223,71.602z"/>
		<path d="M186.223,57.428c-3.337,0-6.053,2.715-6.053,6.052c0,3.337,2.715,6.053,6.053,6.053s6.053-2.715,6.053-6.053
			C192.275,60.143,189.56,57.428,186.223,57.428z"/>
		<path d="M186.223,41.785c-11.963,0-21.695,9.732-21.695,21.695c0,11.963,9.732,21.696,21.695,21.696
			c11.962,0,21.695-9.733,21.695-21.696C207.917,51.518,198.185,41.785,186.223,41.785z M186.223,81.177
			c-9.757,0-17.695-7.938-17.695-17.696c0-9.757,7.938-17.695,17.695-17.695c9.757,0,17.695,7.938,17.695,17.695
			C203.917,73.238,195.979,81.177,186.223,81.177z"/>
		<path d="M186.223,32.825c-16.904,0-30.656,13.752-30.656,30.655c0,16.904,13.752,30.656,30.656,30.656
			s30.656-13.752,30.656-30.656C216.879,46.577,203.126,32.825,186.223,32.825z M186.223,92.136
			c-15.801,0-28.656-12.855-28.656-28.656c0-15.801,12.855-28.655,28.656-28.655s28.656,12.854,28.656,28.655
			C214.879,79.281,202.024,92.136,186.223,92.136z"/>
		<path d="M186.223,23.422c-22.09,0-40.059,17.97-40.059,40.057c0,22.089,17.969,40.059,40.059,40.059
			c22.087,0,40.059-17.97,40.059-40.059C226.281,41.392,208.31,23.422,186.223,23.422z M186.223,103.289
			c-21.951,0-39.809-17.858-39.809-39.809c0-21.95,17.857-39.807,39.809-39.807c21.949,0,39.809,17.857,39.809,39.807
			C226.031,85.431,208.171,103.289,186.223,103.289z"/>
	</g>
</g>
<g id="CRKA">
</g>
<g id="txt">
</g>
<g id="glava">
</g>
</svg>
