<?xml version="1.0" encoding="utf-8"?>
<!-- Generator: Adobe Illustrator 16.0.0, SVG Export Plug-In . SVG Version: 6.00 Build 0)  -->
<!DOCTYPE svg PUBLIC "-//W3C//DTD SVG 1.1//EN" "http://www.w3.org/Graphics/SVG/1.1/DTD/svg11.dtd">
<svg version="1.1" xmlns="http://www.w3.org/2000/svg" xmlns:xlink="http://www.w3.org/1999/xlink" x="0px" y="0px"
	 width="306.204px" height="321.292px" viewBox="0 0 306.204 321.292" enable-background="new 0 0 306.204 321.292"
	 xml:space="preserve">
<g id="gb">
</g>
<g id="mreza">
</g>
<g id="tipke">
	<g>
		<path d="M56.519,92.655c-7.786,0-14.121,6.334-14.121,14.121s6.335,14.121,14.121,14.121s14.121-6.335,14.121-14.121
			S64.305,92.655,56.519,92.655z M56.519,114.897c-4.478,0-8.121-3.643-8.121-8.121c0-4.478,3.644-8.121,8.121-8.121
			s8.121,3.643,8.121,8.121C64.64,111.254,60.996,114.897,56.519,114.897z"/>
		<path d="M56.519,100.724c-3.338,0-6.053,2.715-6.053,6.052c0,3.337,2.715,6.053,6.053,6.053s6.053-2.715,6.053-6.053
			C62.571,103.439,59.856,100.724,56.519,100.724z"/>
		<path d="M56.519,85.081c-11.963,0-21.695,9.732-21.695,21.695c0,11.963,9.732,21.696,21.695,21.696s21.695-9.733,21.695-21.696
			C78.214,94.813,68.481,85.081,56.519,85.081z M56.519,124.472c-9.757,0-17.695-7.938-17.695-17.696
			c0-9.757,7.938-17.695,17.695-17.695s17.695,7.938,17.695,17.695C74.214,116.534,66.275,124.472,56.519,124.472z"/>
		<path d="M56.519,76.12c-16.904,0-30.656,13.752-30.656,30.655c0,16.904,13.752,30.656,30.656,30.656s30.656-13.752,30.656-30.656
			C87.175,89.872,73.423,76.12,56.519,76.12z M56.519,135.432c-15.801,0-28.656-12.855-28.656-28.656
			c0-15.801,12.855-28.655,28.656-28.655s28.656,12.855,28.656,28.655C85.175,122.577,72.319,135.432,56.519,135.432z"/>
		<path d="M56.519,66.718c-22.09,0-40.059,17.97-40.059,40.057c0,22.089,17.969,40.059,40.059,40.059
			c22.088,0,40.059-17.97,40.059-40.059C96.577,84.688,78.606,66.718,56.519,66.718z M56.519,146.584
			c-21.951,0-39.809-17.858-39.809-39.809c0-21.949,17.857-39.807,39.809-39.807c21.949,0,39.809,17.858,39.809,39.807
			C96.327,128.727,78.468,146.584,56.519,146.584z"/>
	</g>
</g>
<g id="CRKA">
</g>
<g id="txt">
</g>
<g id="glava">
</g>
</svg>
