<?xml version="1.0" encoding="utf-8"?>
<!-- Generator: Adobe Illustrator 16.0.0, SVG Export Plug-In . SVG Version: 6.00 Build 0)  -->
<!DOCTYPE svg PUBLIC "-//W3C//DTD SVG 1.1//EN" "http://www.w3.org/Graphics/SVG/1.1/DTD/svg11.dtd">
<svg version="1.1" xmlns="http://www.w3.org/2000/svg" xmlns:xlink="http://www.w3.org/1999/xlink" x="0px" y="0px"
	 width="306.204px" height="321.292px" viewBox="0 0 306.204 321.292" enable-background="new 0 0 306.204 321.292"
	 xml:space="preserve">
<g id="gb">
</g>
<g id="mreza">
</g>
<g id="tipke">
	<g>
		<path d="M256.974,168.676c-7.787,0-14.121,6.335-14.121,14.121c0,7.786,6.334,14.121,14.121,14.121
			c7.786,0,14.121-6.335,14.121-14.121C271.094,175.01,264.76,168.676,256.974,168.676z M256.974,190.918
			c-4.478,0-8.121-3.643-8.121-8.121s3.643-8.121,8.121-8.121s8.121,3.643,8.121,8.121S261.452,190.918,256.974,190.918z"/>
		<path d="M256.974,176.744c-3.337,0-6.053,2.715-6.053,6.053s2.715,6.053,6.053,6.053s6.053-2.715,6.053-6.053
			S260.311,176.744,256.974,176.744z"/>
		<path d="M256.974,161.102c-11.963,0-21.695,9.732-21.695,21.695c0,11.963,9.732,21.696,21.695,21.696
			c11.962,0,21.695-9.733,21.695-21.696C278.668,170.834,268.936,161.102,256.974,161.102z M256.974,200.493
			c-9.757,0-17.695-7.938-17.695-17.696c0-9.757,7.938-17.695,17.695-17.695c9.757,0,17.695,7.938,17.695,17.695
			C274.668,192.555,266.73,200.493,256.974,200.493z"/>
		<path d="M256.974,152.141c-16.904,0-30.656,13.752-30.656,30.655c0,16.904,13.752,30.656,30.656,30.656
			s30.656-13.752,30.656-30.656C287.63,165.893,273.877,152.141,256.974,152.141z M256.974,211.452
			c-15.801,0-28.656-12.855-28.656-28.656c0-15.801,12.855-28.655,28.656-28.655s28.656,12.855,28.656,28.655
			C285.63,198.597,272.775,211.452,256.974,211.452z"/>
		<path d="M256.974,142.739c-22.09,0-40.059,17.97-40.059,40.058c0,22.089,17.969,40.059,40.059,40.059
			c22.087,0,40.059-17.971,40.059-40.059C297.032,160.708,279.061,142.739,256.974,142.739z M256.974,222.605
			c-21.951,0-39.809-17.858-39.809-39.809c0-21.95,17.857-39.808,39.809-39.808c21.949,0,39.809,17.858,39.809,39.808
			C296.782,204.747,278.922,222.605,256.974,222.605z"/>
	</g>
</g>
<g id="CRKA">
</g>
<g id="txt">
</g>
<g id="glava">
</g>
</svg>
