<?xml version="1.0" encoding="utf-8"?>
<!-- Generator: Adobe Illustrator 16.0.0, SVG Export Plug-In . SVG Version: 6.00 Build 0)  -->
<!DOCTYPE svg PUBLIC "-//W3C//DTD SVG 1.1//EN" "http://www.w3.org/Graphics/SVG/1.1/DTD/svg11.dtd">
<svg version="1.1" xmlns="http://www.w3.org/2000/svg" xmlns:xlink="http://www.w3.org/1999/xlink" x="0px" y="0px"
	 width="306.204px" height="321.292px" viewBox="0 0 306.204 321.292" enable-background="new 0 0 306.204 321.292"
	 xml:space="preserve">
<g id="gb">
</g>
<g id="mreza">
</g>
<g id="tipke">
	<g>
		<path d="M92.703,54.796c-7.786,0-14.121,6.334-14.121,14.12c0,7.787,6.335,14.122,14.121,14.122s14.121-6.335,14.121-14.122
			C106.824,61.131,100.489,54.796,92.703,54.796z M92.703,77.038c-4.478,0-8.121-3.643-8.121-8.122c0-4.478,3.644-8.12,8.121-8.12
			s8.121,3.643,8.121,8.12C100.824,73.395,97.181,77.038,92.703,77.038z"/>
		<path d="M92.703,62.865c-3.338,0-6.053,2.715-6.053,6.052c0,3.338,2.715,6.053,6.053,6.053s6.053-2.716,6.053-6.053
			C98.756,65.58,96.041,62.865,92.703,62.865z"/>
		<path d="M92.703,47.222c-11.963,0-21.695,9.732-21.695,21.695c0,11.964,9.732,21.697,21.695,21.697s21.695-9.733,21.695-21.697
			C114.398,56.954,104.666,47.222,92.703,47.222z M92.703,86.613c-9.757,0-17.695-7.939-17.695-17.697
			c0-9.757,7.938-17.695,17.695-17.695s17.695,7.938,17.695,17.695C110.398,78.675,102.46,86.613,92.703,86.613z"/>
		<path d="M92.703,38.261c-16.904,0-30.656,13.752-30.656,30.655c0,16.904,13.752,30.656,30.656,30.656s30.656-13.752,30.656-30.656
			C123.359,52.013,109.607,38.261,92.703,38.261z M92.703,97.573c-15.801,0-28.656-12.855-28.656-28.656
			c0-15.801,12.855-28.655,28.656-28.655s28.656,12.855,28.656,28.655C121.359,84.718,108.504,97.573,92.703,97.573z"/>
		<path d="M92.703,28.859c-22.09,0-40.059,17.97-40.059,40.057c0,22.089,17.969,40.059,40.059,40.059
			c22.088,0,40.059-17.97,40.059-40.059C132.762,46.829,114.791,28.859,92.703,28.859z M92.703,108.726
			c-21.951,0-39.809-17.858-39.809-39.81c0-21.95,17.857-39.807,39.809-39.807c21.949,0,39.809,17.857,39.809,39.807
			C132.512,90.867,114.652,108.726,92.703,108.726z"/>
	</g>
</g>
<g id="CRKA">
</g>
<g id="txt">
</g>
<g id="glava">
</g>
</svg>
