<?xml version="1.0" encoding="utf-8"?>
<!-- Generator: Adobe Illustrator 16.0.0, SVG Export Plug-In . SVG Version: 6.00 Build 0)  -->
<!DOCTYPE svg PUBLIC "-//W3C//DTD SVG 1.1//EN" "http://www.w3.org/Graphics/SVG/1.1/DTD/svg11.dtd">
<svg version="1.1" xmlns="http://www.w3.org/2000/svg" xmlns:xlink="http://www.w3.org/1999/xlink" x="0px" y="0px"
	 width="306.204px" height="321.292px" viewBox="0 0 306.204 321.292" enable-background="new 0 0 306.204 321.292"
	 xml:space="preserve">
<g id="gb">
</g>
<g id="mreza">
</g>
<g id="tipke">
	<g>
		<path d="M133.024,37.09c-7.787,0-14.121,6.334-14.121,14.121c0,7.786,6.334,14.121,14.121,14.121s14.121-6.334,14.121-14.121
			C147.145,43.424,140.811,37.09,133.024,37.09z M133.024,59.332c-4.478,0-8.121-3.643-8.121-8.121c0-4.478,3.643-8.121,8.121-8.121
			s8.121,3.643,8.121,8.121C141.145,55.689,137.502,59.332,133.024,59.332z"/>
		<path d="M133.024,45.159c-3.337,0-6.053,2.715-6.053,6.052s2.715,6.052,6.053,6.052s6.053-2.715,6.053-6.052
			S136.361,45.159,133.024,45.159z"/>
		<path d="M133.024,72.907c11.963,0,21.695-9.733,21.695-21.696c0-11.963-9.732-21.696-21.695-21.696s-21.695,9.733-21.695,21.696
			C111.329,63.174,121.061,72.907,133.024,72.907z M133.024,68.907c-9.757,0-17.695-7.938-17.695-17.696s7.938-17.696,17.695-17.696
			s17.695,7.938,17.695,17.696S142.781,68.907,133.024,68.907z"/>
		<path d="M163.68,51.21c0-16.903-13.752-30.655-30.656-30.655s-30.656,13.752-30.656,30.655c0,16.904,13.752,30.656,30.656,30.656
			S163.68,68.114,163.68,51.21z M133.024,22.555c15.801,0,28.656,12.854,28.656,28.655c0,15.801-12.855,28.656-28.656,28.656
			s-28.656-12.855-28.656-28.656C104.368,35.41,117.223,22.555,133.024,22.555z"/>
		<path d="M173.083,51.21c0-22.087-17.971-40.057-40.059-40.057c-22.09,0-40.059,17.97-40.059,40.057
			c0,22.089,17.969,40.059,40.059,40.059C155.112,91.269,173.083,73.299,173.083,51.21z M93.215,51.21
			c0-21.95,17.857-39.807,39.809-39.807c21.949,0,39.809,17.857,39.809,39.807c0,21.951-17.859,39.809-39.809,39.809
			C111.073,91.019,93.215,73.161,93.215,51.21z"/>
	</g>
</g>
<g id="CRKA">
</g>
<g id="txt">
</g>
<g id="glava">
</g>
</svg>
