<?xml version="1.0" encoding="utf-8"?>
<!-- Generator: Adobe Illustrator 16.0.0, SVG Export Plug-In . SVG Version: 6.00 Build 0)  -->
<!DOCTYPE svg PUBLIC "-//W3C//DTD SVG 1.1//EN" "http://www.w3.org/Graphics/SVG/1.1/DTD/svg11.dtd">
<svg version="1.1" xmlns="http://www.w3.org/2000/svg" xmlns:xlink="http://www.w3.org/1999/xlink" x="0px" y="0px" width="1920px"
	 height="1080px" viewBox="0 0 1920 1080" enable-background="new 0 0 1920 1080" xml:space="preserve">
<symbol  id="naprej" viewBox="-4.422 -10.786 21.572 21.572">
	<polygon fill="#32BCAD" points="17.15,-10.786 -4.422,-10.786 -4.422,10.786 17.15,10.786 	"/>
	<polyline fill="none" stroke="#FFFFFF" stroke-width="1.1354" stroke-miterlimit="10" points="4.773,3.182 7.955,0 4.773,-3.182 	
		"/>
</symbol>
<g id="Layer_8">
	<rect fill="#FFFFFF" width="1920" height="1080"/>
</g>
<g id="Layer_6">
</g>
<g id="gb">
	<g>
		<g>
			<path d="M175.021,368.686l0.725,2.526h0.132l0.725-2.526l8.262-24.038h4.68l-11.887,31.992h-3.713l-11.887-31.992h4.702
				L175.021,368.686z"/>
			<path d="M202.07,377.101c-3.311,0-5.943-1.102-7.899-3.307c-1.955-2.204-2.933-5.064-2.933-8.58v-0.967
				c0-3.384,1.007-6.2,3.021-8.448c2.014-2.249,4.398-3.373,7.152-3.373c3.208,0,5.632,0.967,7.273,2.9s2.461,4.512,2.461,7.734
				v2.702H195.72l-0.066,0.11c0.044,2.278,0.623,4.152,1.736,5.62s2.673,2.202,4.68,2.202c1.465,0,2.75-0.209,3.856-0.627
				c1.105-0.417,2.062-0.992,2.867-1.725l1.692,2.816c-0.85,0.84-1.97,1.54-3.362,2.101
				C205.732,376.82,204.047,377.101,202.07,377.101z M201.411,355.831c-1.45,0-2.688,0.61-3.713,1.829s-1.655,2.748-1.89,4.588
				l0.044,0.109h10.964v-0.569c0-1.694-0.454-3.11-1.362-4.249S203.198,355.831,201.411,355.831z"/>
			<path d="M220.681,376.64h-4.329v-34.277h4.329V376.64z"/>
			<path d="M232.019,346.778h-4.329v-4.416h4.329V346.778z M232.019,376.64h-4.329v-23.774h4.329V376.64z"/>
			<path d="M245.839,365.631h-2.813v11.009h-4.329v-34.277h4.329v19.863h2.769l6.504-9.36h5.186l-8.13,10.792l9.294,12.982h-5.098
				L245.839,365.631z"/>
			<path d="M260.737,364.532c0-3.516,0.952-6.412,2.856-8.69c1.904-2.277,4.49-3.416,7.756-3.416c3.296,0,5.899,1.135,7.812,3.405
				c1.911,2.271,2.867,5.171,2.867,8.701v0.483c0,3.545-0.952,6.445-2.856,8.701s-4.497,3.384-7.778,3.384s-5.878-1.132-7.789-3.395
				c-1.912-2.263-2.868-5.16-2.868-8.69V364.532z M265.065,365.005c0,2.517,0.531,4.594,1.593,6.232s2.641,2.458,4.735,2.458
				c2.065,0,3.633-0.819,4.702-2.458s1.604-3.716,1.604-6.232v-0.483c0-2.486-0.539-4.557-1.615-6.211
				c-1.077-1.652-2.655-2.479-4.735-2.479c-2.065,0-3.629,0.827-4.691,2.479c-1.062,1.654-1.593,3.725-1.593,6.211V365.005z"/>
			<path d="M302.595,373.233h13.733v3.406h-18.896v-3.055l12.854-17.314h-12.7v-3.405h17.996v2.922L302.595,373.233z"/>
			<path d="M335.751,376.64c-0.146-0.718-0.26-1.352-0.341-1.901c-0.081-0.549-0.128-1.102-0.143-1.658
				c-0.806,1.143-1.856,2.098-3.153,2.867c-1.296,0.77-2.691,1.153-4.186,1.153c-2.476,0-4.361-0.634-5.658-1.9
				c-1.296-1.267-1.944-3.014-1.944-5.24c0-2.271,0.919-4.047,2.758-5.329c1.838-1.281,4.332-1.922,7.481-1.922h4.702v-2.352
				c0-1.392-0.425-2.494-1.274-3.307s-2.051-1.22-3.604-1.22c-1.392,0-2.523,0.355-3.395,1.065
				c-0.872,0.711-1.308,1.564-1.308,2.561h-4.131l-0.044-0.132c-0.088-1.729,0.729-3.311,2.45-4.746
				c1.721-1.436,3.944-2.153,6.668-2.153c2.695,0,4.863,0.685,6.504,2.055c1.641,1.369,2.461,3.343,2.461,5.921v11.448
				c0,0.85,0.044,1.67,0.132,2.461s0.249,1.567,0.483,2.329H335.751z M328.566,373.453c1.567,0,2.981-0.401,4.241-1.205
				c1.26-0.803,2.08-1.723,2.461-2.761v-3.856h-4.856c-1.743,0-3.139,0.438-4.186,1.314c-1.047,0.877-1.571,1.906-1.571,3.09
				c0,1.052,0.33,1.885,0.989,2.498S327.277,373.453,328.566,373.453z"/>
			<path d="M355.549,373.695c1.436,0,2.699-0.443,3.791-1.33c1.091-0.886,1.637-1.974,1.637-3.263h3.889l0.044,0.132
				c0.073,2.051-0.839,3.875-2.736,5.472s-4.105,2.395-6.625,2.395c-3.457,0-6.101-1.128-7.932-3.384s-2.747-5.09-2.747-8.503
				v-0.923c0-3.384,0.919-6.207,2.757-8.471s4.479-3.395,7.921-3.395c2.783,0,5.057,0.82,6.823,2.461
				c1.765,1.641,2.618,3.654,2.56,6.042l-0.044,0.132h-3.911c0-1.45-0.513-2.684-1.538-3.702s-2.322-1.527-3.889-1.527
				c-2.271,0-3.893,0.815-4.867,2.447c-0.975,1.632-1.461,3.632-1.461,6.002v0.922c0,2.429,0.483,4.451,1.45,6.068
				C351.638,372.887,353.264,373.695,355.549,373.695z M354.516,345.987l3.23-3.252h3.735v0.396l-5.647,5.384h-2.615l-5.581-5.34
				v-0.439h3.647L354.516,345.987z"/>
			<path d="M379.631,377.101c-3.311,0-5.943-1.102-7.899-3.307c-1.955-2.204-2.933-5.064-2.933-8.58v-0.967
				c0-3.384,1.007-6.2,3.021-8.448c2.014-2.249,4.398-3.373,7.152-3.373c3.208,0,5.632,0.967,7.272,2.9s2.461,4.512,2.461,7.734
				v2.702h-15.424l-0.066,0.11c0.044,2.278,0.623,4.152,1.736,5.62s2.673,2.202,4.68,2.202c1.465,0,2.75-0.209,3.856-0.627
				c1.105-0.417,2.062-0.992,2.867-1.725l1.692,2.816c-0.851,0.84-1.971,1.54-3.362,2.101
				C383.293,376.82,381.608,377.101,379.631,377.101z M378.972,355.831c-1.45,0-2.688,0.61-3.713,1.829s-1.655,2.748-1.89,4.588
				l0.044,0.109h10.964v-0.569c0-1.694-0.454-3.11-1.362-4.249S380.759,355.831,378.972,355.831z"/>
			<path d="M399.274,347.13v5.735h4.504v3.208h-4.504v14.436c0,1.113,0.23,1.897,0.691,2.352c0.462,0.454,1.073,0.681,1.835,0.681
				c0.249,0,0.523-0.029,0.824-0.088c0.3-0.059,0.567-0.132,0.802-0.22l0.571,2.967c-0.322,0.264-0.795,0.479-1.417,0.647
				c-0.623,0.169-1.249,0.253-1.879,0.253c-1.758,0-3.157-0.53-4.197-1.593s-1.56-2.729-1.56-4.999v-14.436h-3.779v-3.208h3.779
				v-5.735H399.274z"/>
			<path d="M412.985,352.865l0.307,3.537c0.791-1.26,1.784-2.237,2.978-2.934c1.194-0.695,2.553-1.043,4.076-1.043
				c2.563,0,4.548,0.75,5.954,2.252s2.109,3.82,2.109,6.954v15.008h-4.328v-14.92c0-2.095-0.414-3.581-1.241-4.46
				c-0.828-0.879-2.092-1.318-3.79-1.318c-1.246,0-2.348,0.3-3.308,0.9c-0.959,0.602-1.725,1.421-2.296,2.461v17.337h-4.328v-23.774
				H412.985z"/>
			<path d="M439.374,346.778h-4.328v-4.416h4.328V346.778z M439.374,376.64h-4.328v-23.774h4.328V376.64z"/>
			<path d="M455.7,373.695c1.435,0,2.698-0.443,3.79-1.33c1.091-0.886,1.637-1.974,1.637-3.263h3.89l0.043,0.132
				c0.073,2.051-0.838,3.875-2.735,5.472c-1.896,1.597-4.105,2.395-6.624,2.395c-3.458,0-6.102-1.128-7.933-3.384
				s-2.747-5.09-2.747-8.503v-0.923c0-3.384,0.92-6.207,2.758-8.471c1.839-2.264,4.479-3.395,7.922-3.395
				c2.782,0,5.057,0.82,6.822,2.461c1.765,1.641,2.618,3.654,2.56,6.042l-0.044,0.132h-3.911c0-1.45-0.513-2.684-1.538-3.702
				s-2.322-1.527-3.889-1.527c-2.271,0-3.894,0.815-4.867,2.447c-0.975,1.632-1.461,3.632-1.461,6.002v0.922
				c0,2.429,0.482,4.451,1.449,6.068C451.788,372.887,453.415,373.695,455.7,373.695z"/>
			<path d="M468.905,364.532c0-3.516,0.952-6.412,2.857-8.69c1.903-2.277,4.489-3.416,7.756-3.416c3.296,0,5.899,1.135,7.812,3.405
				c1.911,2.271,2.867,5.171,2.867,8.701v0.483c0,3.545-0.952,6.445-2.856,8.701s-4.497,3.384-7.778,3.384s-5.878-1.132-7.789-3.395
				c-1.912-2.263-2.868-5.16-2.868-8.69V364.532z M473.234,365.005c0,2.517,0.531,4.594,1.593,6.232
				c1.063,1.639,2.641,2.458,4.735,2.458c2.065,0,3.633-0.819,4.702-2.458s1.604-3.716,1.604-6.232v-0.483
				c0-2.486-0.538-4.557-1.614-6.211c-1.077-1.652-2.655-2.479-4.735-2.479c-2.065,0-3.629,0.827-4.691,2.479
				c-1.062,1.654-1.593,3.725-1.593,6.211V365.005z"/>
			<path d="M526.935,365.653c0,3.428-0.82,6.192-2.461,8.294c-1.641,2.103-3.903,3.153-6.789,3.153c-1.465,0-2.75-0.245-3.856-0.735
				c-1.105-0.491-2.047-1.228-2.823-2.209v11.624h-4.328v-32.915h3.317l0.681,3.076c0.776-1.143,1.743-2.014,2.9-2.615
				c1.157-0.601,2.506-0.9,4.043-0.9c2.945,0,5.233,1.168,6.867,3.504c1.633,2.337,2.449,5.424,2.449,9.262V365.653z
				 M522.606,365.181c0-2.692-0.531-4.905-1.593-6.639c-1.063-1.733-2.626-2.601-4.691-2.601c-1.245,0-2.308,0.281-3.187,0.845
				s-1.589,1.335-2.131,2.315v11.477c0.542,0.981,1.252,1.745,2.131,2.294s1.956,0.823,3.23,0.823c2.051,0,3.604-0.75,4.658-2.25
				c1.055-1.499,1.582-3.434,1.582-5.805V365.181z"/>
			<path d="M536.933,346.778h-4.328v-4.416h4.328V346.778z M536.933,376.64h-4.328v-23.774h4.328V376.64z"/>
			<path d="M557.411,370.312c0-0.952-0.362-1.736-1.088-2.352c-0.725-0.615-2.098-1.149-4.119-1.604
				c-2.887-0.629-5.058-1.481-6.516-2.556c-1.457-1.075-2.186-2.541-2.186-4.398c0-1.931,0.819-3.576,2.461-4.937
				c1.64-1.36,3.779-2.04,6.416-2.04c2.768,0,4.969,0.711,6.603,2.131c1.633,1.421,2.413,3.15,2.34,5.186l-0.044,0.132h-4.131
				c0-1.04-0.436-1.974-1.308-2.802c-0.871-0.827-2.025-1.241-3.46-1.241c-1.539,0-2.682,0.337-3.428,1.011
				c-0.748,0.674-1.121,1.487-1.121,2.439c0,0.938,0.33,1.678,0.988,2.219c0.66,0.542,2,1.025,4.021,1.45
				c3.003,0.646,5.236,1.521,6.701,2.626c1.465,1.106,2.197,2.59,2.197,4.449c0,2.109-0.853,3.816-2.56,5.12
				c-1.706,1.304-3.937,1.955-6.69,1.955c-3.032,0-5.42-0.769-7.163-2.307s-2.571-3.333-2.483-5.384l0.045-0.132h4.131
				c0.072,1.53,0.644,2.649,1.713,3.356s2.322,1.061,3.758,1.061c1.538,0,2.743-0.312,3.614-0.934
				C556.976,372.139,557.411,371.322,557.411,370.312z M552.182,345.987l3.229-3.252h3.736v0.396l-5.647,5.384h-2.614l-5.582-5.34
				v-0.439h3.648L552.182,345.987z"/>
			<path d="M576.989,377.101c-3.311,0-5.943-1.102-7.899-3.307c-1.955-2.204-2.933-5.064-2.933-8.58v-0.967
				c0-3.384,1.007-6.2,3.021-8.448c2.015-2.249,4.398-3.373,7.152-3.373c3.208,0,5.632,0.967,7.272,2.9s2.461,4.512,2.461,7.734
				v2.702H570.64l-0.066,0.11c0.044,2.278,0.622,4.152,1.736,5.62c1.112,1.468,2.673,2.202,4.68,2.202
				c1.465,0,2.75-0.209,3.856-0.627c1.105-0.417,2.062-0.992,2.867-1.725l1.692,2.816c-0.851,0.84-1.971,1.54-3.362,2.101
				C580.651,376.82,578.967,377.101,576.989,377.101z M576.33,355.831c-1.45,0-2.688,0.61-3.714,1.829s-1.655,2.748-1.889,4.588
				l0.043,0.109h10.965v-0.569c0-1.694-0.454-3.11-1.362-4.249S578.117,355.831,576.33,355.831z"/>
			<path d="M594.788,352.865l0.307,3.12c0.776-1.128,1.762-2.003,2.956-2.626c1.193-0.623,2.581-0.934,4.163-0.934
				s2.941,0.366,4.076,1.099c1.136,0.732,1.988,1.831,2.561,3.296c0.746-1.348,1.735-2.417,2.966-3.208s2.666-1.187,4.307-1.187
				c2.417,0,4.329,0.831,5.735,2.494c1.406,1.662,2.109,4.163,2.109,7.503v14.217h-4.329v-14.261c0-2.344-0.403-4.002-1.208-4.977
				c-0.807-0.975-2.008-1.461-3.604-1.461c-1.48,0-2.678,0.513-3.593,1.538c-0.916,1.025-1.454,2.321-1.615,3.889v0.176v15.096
				h-4.351v-14.261c0-2.227-0.414-3.855-1.241-4.889c-0.828-1.033-2.019-1.549-3.571-1.549c-1.318,0-2.402,0.271-3.252,0.813
				c-0.85,0.542-1.501,1.305-1.955,2.285v17.601h-4.328v-23.774H594.788z"/>
			<path d="M629.24,364.532c0-3.516,0.952-6.412,2.857-8.69c1.903-2.277,4.489-3.416,7.756-3.416c3.296,0,5.899,1.135,7.812,3.405
				c1.911,2.271,2.867,5.171,2.867,8.701v0.483c0,3.545-0.952,6.445-2.856,8.701s-4.497,3.384-7.778,3.384s-5.878-1.132-7.789-3.395
				c-1.912-2.263-2.868-5.16-2.868-8.69V364.532z M633.569,365.005c0,2.517,0.531,4.594,1.593,6.232
				c1.063,1.639,2.641,2.458,4.735,2.458c2.065,0,3.633-0.819,4.702-2.458s1.604-3.716,1.604-6.232v-0.483
				c0-2.486-0.538-4.557-1.614-6.211c-1.077-1.652-2.655-2.479-4.735-2.479c-2.065,0-3.629,0.827-4.691,2.479
				c-1.062,1.654-1.593,3.725-1.593,6.211V365.005z"/>
			<path d="M672.726,347.13v5.735h4.504v3.208h-4.504v14.436c0,1.113,0.23,1.897,0.691,2.352c0.462,0.454,1.073,0.681,1.835,0.681
				c0.249,0,0.523-0.029,0.824-0.088c0.3-0.059,0.567-0.132,0.802-0.22l0.571,2.967c-0.322,0.264-0.795,0.479-1.417,0.647
				c-0.623,0.169-1.249,0.253-1.879,0.253c-1.758,0-3.157-0.53-4.197-1.593s-1.56-2.729-1.56-4.999v-14.436h-3.779v-3.208h3.779
				v-5.735H672.726z"/>
			<path d="M697.181,376.64c-0.146-0.718-0.26-1.352-0.341-1.901c-0.08-0.549-0.128-1.102-0.143-1.658
				c-0.806,1.143-1.856,2.098-3.153,2.867c-1.296,0.77-2.691,1.153-4.186,1.153c-2.476,0-4.361-0.634-5.658-1.9
				c-1.296-1.267-1.944-3.014-1.944-5.24c0-2.271,0.919-4.047,2.758-5.329c1.838-1.281,4.332-1.922,7.481-1.922h4.702v-2.352
				c0-1.392-0.425-2.494-1.274-3.307s-2.051-1.22-3.604-1.22c-1.392,0-2.523,0.355-3.395,1.065
				c-0.872,0.711-1.308,1.564-1.308,2.561h-4.131l-0.044-0.132c-0.088-1.729,0.729-3.311,2.45-4.746
				c1.721-1.436,3.944-2.153,6.669-2.153c2.694,0,4.862,0.685,6.504,2.055c1.64,1.369,2.461,3.343,2.461,5.921v11.448
				c0,0.85,0.043,1.67,0.131,2.461s0.249,1.567,0.484,2.329H697.181z M689.995,373.453c1.567,0,2.981-0.401,4.241-1.205
				c1.26-0.803,2.08-1.723,2.461-2.761v-3.856h-4.856c-1.743,0-3.138,0.438-4.186,1.314c-1.047,0.877-1.57,1.906-1.57,3.09
				c0,1.052,0.329,1.885,0.988,2.498S688.706,373.453,689.995,373.453z"/>
			<path d="M714.473,365.631h-2.813v11.009h-4.328v-34.277h4.328v19.863h2.77l6.504-9.36h5.186l-8.131,10.792l9.295,12.982h-5.098
				L714.473,365.631z"/>
			<path d="M729.37,364.532c0-3.516,0.952-6.412,2.857-8.69c1.903-2.277,4.489-3.416,7.756-3.416c3.296,0,5.899,1.135,7.812,3.405
				c1.911,2.271,2.867,5.171,2.867,8.701v0.483c0,3.545-0.952,6.445-2.856,8.701s-4.497,3.384-7.778,3.384s-5.878-1.132-7.789-3.395
				c-1.912-2.263-2.868-5.16-2.868-8.69V364.532z M733.699,365.005c0,2.517,0.531,4.594,1.593,6.232
				c1.063,1.639,2.641,2.458,4.735,2.458c2.065,0,3.633-0.819,4.702-2.458s1.604-3.716,1.604-6.232v-0.483
				c0-2.486-0.538-4.557-1.614-6.211c-1.077-1.652-2.655-2.479-4.735-2.479c-2.065,0-3.629,0.827-4.691,2.479
				c-1.062,1.654-1.593,3.725-1.593,6.211V365.005z"/>
			<path d="M759.737,375.585l-3.297,6.724h-2.57l1.538-6.943v-3.582h4.329V375.585z"/>
			<path d="M775.029,365.191c0-3.823,0.816-6.906,2.45-9.25c1.633-2.344,3.922-3.516,6.866-3.516c1.392,0,2.626,0.256,3.702,0.769
				c1.077,0.513,1.996,1.261,2.758,2.241v-13.073h4.328v34.277h-3.537l-0.506-2.923c-0.776,1.113-1.729,1.956-2.855,2.527
				c-1.129,0.571-2.439,0.856-3.934,0.856c-2.9,0-5.171-1.051-6.812-3.153c-1.641-2.102-2.461-4.866-2.461-8.294V365.191z
				 M779.358,365.653c0,2.402,0.49,4.325,1.472,5.768s2.505,2.164,4.57,2.164c1.289,0,2.373-0.293,3.252-0.879
				c0.879-0.585,1.597-1.406,2.153-2.461v-11.096c-0.557-0.981-1.278-1.762-2.164-2.341c-0.887-0.578-1.952-0.867-3.197-0.867
				c-2.08,0-3.614,0.856-4.604,2.57c-0.988,1.714-1.482,3.941-1.482,6.68V365.653z"/>
			<path d="M816.206,376.64c-0.146-0.718-0.26-1.352-0.341-1.901c-0.08-0.549-0.128-1.102-0.143-1.658
				c-0.806,1.143-1.856,2.098-3.153,2.867c-1.296,0.77-2.691,1.153-4.186,1.153c-2.476,0-4.361-0.634-5.658-1.9
				c-1.296-1.267-1.944-3.014-1.944-5.24c0-2.271,0.919-4.047,2.758-5.329c1.838-1.281,4.332-1.922,7.481-1.922h4.702v-2.352
				c0-1.392-0.425-2.494-1.274-3.307s-2.051-1.22-3.604-1.22c-1.392,0-2.523,0.355-3.395,1.065
				c-0.872,0.711-1.308,1.564-1.308,2.561h-4.131l-0.044-0.132c-0.088-1.729,0.729-3.311,2.45-4.746
				c1.721-1.436,3.944-2.153,6.669-2.153c2.694,0,4.862,0.685,6.504,2.055c1.64,1.369,2.461,3.343,2.461,5.921v11.448
				c0,0.85,0.043,1.67,0.131,2.461s0.249,1.567,0.484,2.329H816.206z M809.021,373.453c1.567,0,2.981-0.401,4.241-1.205
				c1.26-0.803,2.08-1.723,2.461-2.761v-3.856h-4.856c-1.743,0-3.138,0.438-4.186,1.314c-1.047,0.877-1.57,1.906-1.57,3.09
				c0,1.052,0.329,1.885,0.988,2.498S807.731,373.453,809.021,373.453z"/>
			<path d="M841.388,352.865l0.307,3.12c0.776-1.128,1.762-2.003,2.956-2.626c1.193-0.623,2.581-0.934,4.163-0.934
				s2.941,0.366,4.076,1.099c1.136,0.732,1.988,1.831,2.561,3.296c0.746-1.348,1.735-2.417,2.966-3.208s2.666-1.187,4.307-1.187
				c2.417,0,4.329,0.831,5.735,2.494c1.406,1.662,2.109,4.163,2.109,7.503v14.217h-4.329v-14.261c0-2.344-0.403-4.002-1.208-4.977
				c-0.807-0.975-2.008-1.461-3.604-1.461c-1.48,0-2.678,0.513-3.593,1.538c-0.916,1.025-1.454,2.321-1.615,3.889v0.176v15.096
				h-4.351v-14.261c0-2.227-0.414-3.855-1.241-4.889c-0.828-1.033-2.019-1.549-3.571-1.549c-1.318,0-2.402,0.271-3.252,0.813
				c-0.85,0.542-1.501,1.305-1.955,2.285v17.601h-4.328v-23.774H841.388z"/>
			<path d="M886.717,377.101c-3.311,0-5.943-1.102-7.899-3.307c-1.955-2.204-2.933-5.064-2.933-8.58v-0.967
				c0-3.384,1.007-6.2,3.021-8.448c2.015-2.249,4.398-3.373,7.152-3.373c3.208,0,5.632,0.967,7.272,2.9s2.461,4.512,2.461,7.734
				v2.702h-15.424l-0.066,0.11c0.044,2.278,0.622,4.152,1.736,5.62c1.112,1.468,2.673,2.202,4.68,2.202
				c1.465,0,2.75-0.209,3.856-0.627c1.105-0.417,2.062-0.992,2.867-1.725l1.692,2.816c-0.851,0.84-1.971,1.54-3.362,2.101
				C890.379,376.82,888.694,377.101,886.717,377.101z M886.058,355.831c-1.45,0-2.688,0.61-3.714,1.829s-1.655,2.748-1.889,4.588
				l0.043,0.109h10.965v-0.569c0-1.694-0.454-3.11-1.362-4.249S887.845,355.831,886.058,355.831z"/>
			<path d="M904.733,373.233h13.733v3.406H899.57v-3.055l12.854-17.314h-12.701v-3.405h17.996v2.922L904.733,373.233z"/>
			<path d="M927.959,346.778h-4.328v-4.416h4.328V346.778z M927.959,376.64h-4.328v-23.774h4.328V376.64z"/>
			<path d="M938.484,352.865l0.307,3.537c0.791-1.26,1.784-2.237,2.978-2.934c1.194-0.695,2.553-1.043,4.076-1.043
				c2.563,0,4.548,0.75,5.954,2.252s2.109,3.82,2.109,6.954v15.008h-4.328v-14.92c0-2.095-0.414-3.581-1.241-4.46
				c-0.828-0.879-2.092-1.318-3.79-1.318c-1.246,0-2.348,0.3-3.308,0.9c-0.959,0.602-1.725,1.421-2.296,2.461v17.337h-4.328v-23.774
				H938.484z"/>
			<path d="M970.059,377.101c-3.311,0-5.943-1.102-7.899-3.307c-1.955-2.204-2.933-5.064-2.933-8.58v-0.967
				c0-3.384,1.007-6.2,3.021-8.448c2.015-2.249,4.398-3.373,7.152-3.373c3.208,0,5.632,0.967,7.272,2.9s2.461,4.512,2.461,7.734
				v2.702h-15.424l-0.066,0.11c0.044,2.278,0.622,4.152,1.736,5.62c1.112,1.468,2.673,2.202,4.68,2.202
				c1.465,0,2.75-0.209,3.856-0.627c1.105-0.417,2.062-0.992,2.867-1.725l1.692,2.816c-0.851,0.84-1.971,1.54-3.362,2.101
				C973.721,376.82,972.036,377.101,970.059,377.101z M969.399,355.831c-1.45,0-2.688,0.61-3.714,1.829s-1.655,2.748-1.889,4.588
				l0.043,0.109h10.965v-0.569c0-1.694-0.454-3.11-1.362-4.249S971.187,355.831,969.399,355.831z"/>
			<path d="M993.657,373.695c1.435,0,2.698-0.443,3.79-1.33c1.091-0.886,1.637-1.974,1.637-3.263h3.89l0.043,0.132
				c0.073,2.051-0.838,3.875-2.735,5.472c-1.896,1.597-4.105,2.395-6.624,2.395c-3.458,0-6.102-1.128-7.933-3.384
				s-2.747-5.09-2.747-8.503v-0.923c0-3.384,0.92-6.207,2.758-8.471c1.839-2.264,4.479-3.395,7.922-3.395
				c2.782,0,5.057,0.82,6.822,2.461c1.765,1.641,2.618,3.654,2.56,6.042l-0.044,0.132h-3.911c0-1.45-0.513-2.684-1.538-3.702
				s-2.322-1.527-3.889-1.527c-2.271,0-3.894,0.815-4.867,2.447c-0.975,1.632-1.461,3.632-1.461,6.002v0.922
				c0,2.429,0.482,4.451,1.449,6.068C989.745,372.887,991.372,373.695,993.657,373.695z"/>
			<path d="M1039.315,365.653c0,3.428-0.82,6.192-2.461,8.294c-1.641,2.103-3.903,3.153-6.789,3.153
				c-1.465,0-2.75-0.245-3.856-0.735c-1.105-0.491-2.047-1.228-2.823-2.209v11.624h-4.328v-32.915h3.317l0.681,3.076
				c0.776-1.143,1.743-2.014,2.9-2.615c1.157-0.601,2.506-0.9,4.043-0.9c2.945,0,5.233,1.168,6.867,3.504
				c1.633,2.337,2.449,5.424,2.449,9.262V365.653z M1034.987,365.181c0-2.692-0.531-4.905-1.593-6.639
				c-1.063-1.733-2.626-2.601-4.691-2.601c-1.245,0-2.308,0.281-3.187,0.845s-1.589,1.335-2.131,2.315v11.477
				c0.542,0.981,1.252,1.745,2.131,2.294s1.956,0.823,3.23,0.823c2.051,0,3.604-0.75,4.658-2.25
				c1.055-1.499,1.582-3.434,1.582-5.805V365.181z"/>
			<path d="M1055.884,356.688l-2.22-0.132c-1.143,0-2.105,0.271-2.89,0.813c-0.783,0.542-1.388,1.305-1.813,2.285v16.985h-4.328
				v-23.774h3.867l0.417,3.472c0.674-1.23,1.505-2.19,2.494-2.879c0.988-0.688,2.127-1.032,3.417-1.032
				c0.321,0,0.629,0.025,0.922,0.076c0.293,0.052,0.535,0.107,0.726,0.165L1055.884,356.688z"/>
			<path d="M1064.738,346.778h-4.328v-4.416h4.328V346.778z M1064.738,376.64h-4.328v-23.774h4.328V376.64z"/>
			<path d="M1077.109,347.13v5.735h4.504v3.208h-4.504v14.436c0,1.113,0.23,1.897,0.691,2.352c0.462,0.454,1.073,0.681,1.835,0.681
				c0.249,0,0.523-0.029,0.824-0.088c0.3-0.059,0.567-0.132,0.802-0.22l0.571,2.967c-0.322,0.264-0.795,0.479-1.417,0.647
				c-0.623,0.169-1.249,0.253-1.879,0.253c-1.758,0-3.157-0.53-4.197-1.593s-1.56-2.729-1.56-4.999v-14.436h-3.779v-3.208h3.779
				v-5.735H1077.109z"/>
			<path d="M1091.633,346.778h-4.328v-4.416h4.328V346.778z M1091.633,376.64h-4.328v-23.774h4.328V376.64z"/>
			<path d="M1112.111,370.312c0-0.952-0.362-1.736-1.088-2.352c-0.725-0.615-2.098-1.149-4.119-1.604
				c-2.887-0.629-5.058-1.481-6.516-2.556c-1.457-1.075-2.186-2.541-2.186-4.398c0-1.931,0.819-3.576,2.461-4.937
				c1.64-1.36,3.779-2.04,6.416-2.04c2.768,0,4.969,0.711,6.603,2.131c1.633,1.421,2.413,3.15,2.34,5.186l-0.044,0.132h-4.131
				c0-1.04-0.436-1.974-1.308-2.802c-0.871-0.827-2.025-1.241-3.46-1.241c-1.539,0-2.682,0.337-3.428,1.011
				c-0.748,0.674-1.121,1.487-1.121,2.439c0,0.938,0.33,1.678,0.988,2.219c0.66,0.542,2,1.025,4.021,1.45
				c3.003,0.646,5.236,1.521,6.701,2.626c1.465,1.106,2.197,2.59,2.197,4.449c0,2.109-0.853,3.816-2.56,5.12
				c-1.706,1.304-3.937,1.955-6.69,1.955c-3.032,0-5.42-0.769-7.163-2.307s-2.571-3.333-2.483-5.384l0.045-0.132h4.131
				c0.072,1.53,0.644,2.649,1.713,3.356s2.322,1.061,3.758,1.061c1.538,0,2.743-0.312,3.614-0.934
				C1111.676,372.139,1112.111,371.322,1112.111,370.312z"/>
			<path d="M1125.69,352.865l0.307,3.537c0.791-1.26,1.784-2.237,2.978-2.934c1.194-0.695,2.553-1.043,4.076-1.043
				c2.563,0,4.548,0.75,5.954,2.252s2.109,3.82,2.109,6.954v15.008h-4.328v-14.92c0-2.095-0.414-3.581-1.241-4.46
				c-0.828-0.879-2.092-1.318-3.79-1.318c-1.246,0-2.348,0.3-3.308,0.9c-0.959,0.602-1.725,1.421-2.296,2.461v17.337h-4.328v-23.774
				H1125.69z"/>
			<path d="M1157.265,377.101c-3.311,0-5.943-1.102-7.899-3.307c-1.955-2.204-2.933-5.064-2.933-8.58v-0.967
				c0-3.384,1.007-6.2,3.021-8.448c2.015-2.249,4.398-3.373,7.152-3.373c3.208,0,5.632,0.967,7.272,2.9s2.461,4.512,2.461,7.734
				v2.702h-15.424l-0.066,0.11c0.044,2.278,0.622,4.152,1.736,5.62c1.112,1.468,2.673,2.202,4.68,2.202
				c1.465,0,2.75-0.209,3.856-0.627c1.105-0.417,2.062-0.992,2.867-1.725l1.692,2.816c-0.851,0.84-1.971,1.54-3.362,2.101
				C1160.927,376.82,1159.242,377.101,1157.265,377.101z M1156.605,355.831c-1.45,0-2.688,0.61-3.714,1.829
				s-1.655,2.748-1.889,4.588l0.043,0.109h10.965v-0.569c0-1.694-0.454-3.11-1.362-4.249S1158.393,355.831,1156.605,355.831z"/>
			<path d="M1189.323,347.042v5.823h3.998v4.504h-3.998v12.107c0,0.923,0.189,1.582,0.57,1.978s0.894,0.593,1.539,0.593
				c0.336,0,0.626-0.018,0.867-0.055c0.242-0.036,0.523-0.099,0.846-0.187l0.55,4.636c-0.645,0.22-1.274,0.385-1.89,0.494
				c-0.615,0.11-1.282,0.165-2,0.165c-2.212,0-3.914-0.607-5.108-1.823c-1.193-1.216-1.79-3.143-1.79-5.779v-12.129h-3.473v-4.504
				h3.473v-5.823H1189.323z"/>
			<path d="M1204.155,347.174h-6.416v-4.812h6.416V347.174z M1204.155,376.64h-6.416v-23.774h6.416V376.64z"/>
			<path d="M1230.874,365.411c0,3.516-0.813,6.343-2.439,8.481c-1.625,2.139-3.896,3.208-6.811,3.208
				c-1.246,0-2.352-0.23-3.318-0.692c-0.967-0.461-1.795-1.139-2.482-2.032v11.404h-6.395v-32.915h5.779l0.373,2.813
				c0.703-1.04,1.549-1.842,2.538-2.406c0.988-0.563,2.142-0.846,3.46-0.846c2.945,0,5.23,1.15,6.855,3.449
				c1.627,2.3,2.439,5.325,2.439,9.075V365.411z M1224.458,364.917c0-2.244-0.373-4.063-1.121-5.457
				c-0.746-1.394-1.889-2.091-3.428-2.091c-0.967,0-1.79,0.198-2.472,0.595c-0.681,0.396-1.22,0.961-1.614,1.694v10.43
				c0.395,0.676,0.934,1.188,1.614,1.541c0.682,0.353,1.52,0.528,2.517,0.528c1.552,0,2.691-0.608,3.416-1.827
				c0.726-1.217,1.088-2.867,1.088-4.951V364.917z"/>
			<path d="M1243.003,366.686h-1.758v9.954h-6.416v-34.277h6.416v19.445h1.582l5.516-8.942h7.426l-7.602,10.767l8.767,13.008h-7.36
				L1243.003,366.686z"/>
			<path d="M1257.944,364.532c0-3.545,0.988-6.448,2.966-8.712s4.717-3.395,8.218-3.395c3.516,0,6.27,1.128,8.262,3.384
				s2.988,5.163,2.988,8.723v0.462c0,3.574-0.992,6.485-2.978,8.734c-1.984,2.248-4.728,3.372-8.229,3.372
				c-3.516,0-6.266-1.124-8.251-3.372c-1.984-2.249-2.977-5.16-2.977-8.734V364.532z M1264.338,364.982
				c0,2.165,0.381,3.902,1.143,5.211c0.762,1.31,1.992,1.964,3.691,1.964c1.655,0,2.867-0.658,3.637-1.975
				c0.769-1.316,1.153-3.05,1.153-5.2v-0.461c0-2.105-0.389-3.824-1.164-5.155c-0.777-1.331-2-1.997-3.67-1.997
				c-1.655,0-2.867,0.67-3.637,2.008c-0.769,1.338-1.153,3.054-1.153,5.145V364.982z"/>
			<path d="M1299.45,355.766l6.152,8.569v0.417l-6.152,8.569h-4.131l5.251-8.767l-5.251-8.789H1299.45z M1307.053,355.766
				l6.152,8.569v0.417l-6.152,8.569h-4.131l5.252-8.767l-5.252-8.789H1307.053z"/>
			<path d="M1330.915,370.092c0-0.703-0.34-1.311-1.021-1.824c-0.681-0.513-1.944-0.967-3.79-1.362
				c-2.813-0.571-4.933-1.417-6.361-2.538c-1.428-1.12-2.142-2.647-2.142-4.581c0-2.051,0.86-3.79,2.581-5.218
				c1.722-1.429,4.024-2.143,6.911-2.143c3.031,0,5.445,0.711,7.239,2.131c1.795,1.421,2.655,3.216,2.582,5.384l-0.044,0.132h-6.196
				c0-0.952-0.304-1.729-0.912-2.329c-0.607-0.601-1.498-0.901-2.669-0.901c-1.041,0-1.857,0.253-2.45,0.758
				c-0.594,0.506-0.89,1.14-0.89,1.901c0,0.732,0.311,1.333,0.934,1.802c0.622,0.469,1.886,0.887,3.79,1.252
				c2.93,0.586,5.104,1.447,6.526,2.582c1.42,1.135,2.131,2.699,2.131,4.691c0,2.139-0.916,3.886-2.746,5.24
				c-1.832,1.355-4.249,2.032-7.252,2.032c-3.164,0-5.665-0.802-7.503-2.405c-1.839-1.604-2.714-3.432-2.626-5.482l0.044-0.132
				h5.866c0.045,1.274,0.462,2.197,1.253,2.769s1.823,0.856,3.099,0.856c1.186,0,2.091-0.233,2.713-0.703
				C1330.604,371.534,1330.915,370.897,1330.915,370.092z"/>
			<path d="M1347.526,355.875c0.748-1.084,1.663-1.93,2.747-2.537c1.084-0.608,2.285-0.912,3.604-0.912
				c2.476,0,4.42,0.824,5.834,2.472c1.413,1.647,2.12,4.193,2.12,7.636v14.106h-6.416v-14.183c0-1.85-0.326-3.16-0.978-3.932
				c-0.652-0.771-1.623-1.156-2.911-1.156c-0.879,0-1.656,0.158-2.33,0.474s-1.23,0.76-1.67,1.333v17.464h-6.416v-34.277h6.416
				V355.875z"/>
			<path d="M1373.411,347.174h-6.416v-4.812h6.416V347.174z M1373.411,376.64h-6.416v-23.774h6.416V376.64z"/>
			<path d="M1380.354,376.64v-19.271h-3.537v-4.504h3.537v-2.637c0-2.666,0.77-4.721,2.307-6.164
				c1.539-1.442,3.699-2.164,6.482-2.164c0.542,0,1.095,0.041,1.659,0.121c0.563,0.08,1.183,0.194,1.856,0.341l-0.549,4.768
				c-0.352-0.058-0.692-0.109-1.022-0.153c-0.329-0.044-0.714-0.066-1.153-0.066c-1.04,0-1.827,0.286-2.362,0.857
				c-0.534,0.571-0.802,1.392-0.802,2.461v2.637h4.725v4.504h-4.725v19.271H1380.354z"/>
			<path d="M1402.394,347.042v5.823h3.998v4.504h-3.998v12.107c0,0.923,0.189,1.582,0.57,1.978s0.894,0.593,1.539,0.593
				c0.336,0,0.626-0.018,0.867-0.055c0.242-0.036,0.523-0.099,0.846-0.187l0.55,4.636c-0.645,0.22-1.274,0.385-1.89,0.494
				c-0.615,0.11-1.282,0.165-2,0.165c-2.212,0-3.914-0.607-5.108-1.823c-1.193-1.216-1.79-3.143-1.79-5.779v-12.129h-3.473v-4.504
				h3.473v-5.823H1402.394z"/>
			<path d="M1415.159,365.302l5.273,8.767h-4.108l-6.152-8.569v-0.417l6.152-8.569h4.108L1415.159,365.302z M1422.499,365.302
				l5.273,8.767h-4.109l-6.152-8.569v-0.417l6.152-8.569h4.109L1422.499,365.302z"/>
			<path d="M1438.406,376.64h-4.329v-4.482h4.329V376.64z"/>
			<path d="M188.139,496.378l0.044,0.132c0.059,3.003-0.996,5.52-3.164,7.548c-2.168,2.029-5.032,3.043-8.591,3.043
				c-3.618,0-6.566-1.281-8.844-3.845c-2.278-2.563-3.417-5.815-3.417-9.756v-5.691c0-3.94,1.139-7.195,3.417-9.767
				c2.277-2.571,5.226-3.856,8.844-3.856s6.497,0.964,8.635,2.89c2.139,1.927,3.179,4.479,3.12,7.657l-0.044,0.132h-4.153
				c0-2.241-0.659-4.013-1.978-5.317c-1.318-1.304-3.179-1.955-5.581-1.955c-2.417,0-4.343,0.973-5.779,2.92
				c-1.436,1.946-2.153,4.361-2.153,7.244v5.73c0,2.913,0.718,5.342,2.153,7.289c1.436,1.946,3.362,2.92,5.779,2.92
				c2.402,0,4.263-0.648,5.581-1.945c1.318-1.296,1.978-3.087,1.978-5.372H188.139z M176.45,468.451l3.23-3.252h3.735v0.396
				l-5.647,5.383h-2.615l-5.581-5.339v-0.439h3.647L176.45,468.451z"/>
			<path d="M203.081,507.101c-3.311,0-5.943-1.102-7.899-3.307c-1.955-2.204-2.933-5.064-2.933-8.58v-0.967
				c0-3.384,1.007-6.2,3.021-8.448c2.014-2.249,4.398-3.373,7.152-3.373c3.208,0,5.632,0.967,7.273,2.9s2.461,4.512,2.461,7.734
				v2.702H196.73l-0.066,0.11c0.044,2.278,0.623,4.152,1.736,5.62s2.673,2.202,4.68,2.202c1.465,0,2.75-0.209,3.856-0.627
				c1.105-0.417,2.062-0.992,2.867-1.725l1.692,2.816c-0.85,0.84-1.97,1.54-3.362,2.101
				C206.743,506.82,205.058,507.101,203.081,507.101z M202.421,485.831c-1.45,0-2.688,0.61-3.713,1.829s-1.655,2.748-1.89,4.588
				l0.044,0.109h10.964v-0.569c0-1.694-0.454-3.11-1.362-4.249S204.208,485.831,202.421,485.831z"/>
			<path d="M233.183,482.865v25.729c0,2.446-0.63,4.332-1.89,5.658c-1.26,1.325-3.01,1.988-5.251,1.988
				c-0.454,0-0.868-0.032-1.242-0.099c-0.373-0.066-0.772-0.165-1.197-0.297l0.308-3.405c0.205,0.073,0.498,0.135,0.879,0.187
				c0.381,0.051,0.696,0.077,0.945,0.077c0.952,0,1.71-0.322,2.274-0.967c0.564-0.646,0.846-1.692,0.846-3.143v-25.729H233.183z
				 M233.051,476.69h-4.329v-4.328h4.329V476.69z"/>
			<path d="M249.707,507.101c-3.311,0-5.943-1.102-7.899-3.307c-1.955-2.204-2.933-5.064-2.933-8.58v-0.967
				c0-3.384,1.007-6.2,3.021-8.448c2.014-2.249,4.398-3.373,7.152-3.373c3.208,0,5.632,0.967,7.273,2.9s2.461,4.512,2.461,7.734
				v2.702h-15.425l-0.066,0.11c0.044,2.278,0.623,4.152,1.736,5.62s2.673,2.202,4.68,2.202c1.465,0,2.75-0.209,3.856-0.627
				c1.105-0.417,2.062-0.992,2.867-1.725l1.692,2.816c-0.85,0.84-1.97,1.54-3.362,2.101
				C253.369,506.82,251.684,507.101,249.707,507.101z M249.047,485.831c-1.45,0-2.688,0.61-3.713,1.829s-1.655,2.748-1.89,4.588
				l0.044,0.109h10.964v-0.569c0-1.694-0.454-3.11-1.362-4.249S250.834,485.831,249.047,485.831z"/>
			<path d="M284.489,503.695c1.436,0,2.699-0.443,3.791-1.33c1.091-0.886,1.637-1.974,1.637-3.263h3.889l0.044,0.132
				c0.073,2.051-0.839,3.875-2.736,5.472s-4.105,2.395-6.625,2.395c-3.457,0-6.101-1.128-7.932-3.384s-2.747-5.09-2.747-8.503
				v-0.923c0-3.384,0.919-6.207,2.757-8.471s4.479-3.395,7.921-3.395c2.783,0,5.057,0.82,6.823,2.461
				c1.765,1.641,2.618,3.654,2.56,6.042l-0.044,0.132h-3.911c0-1.45-0.513-2.684-1.538-3.702s-2.322-1.527-3.889-1.527
				c-2.271,0-3.893,0.815-4.867,2.447c-0.975,1.632-1.461,3.632-1.461,6.002v0.922c0,2.429,0.483,4.451,1.45,6.068
				C280.578,502.887,282.204,503.695,284.489,503.695z M283.457,475.987l3.23-3.252h3.735v0.396l-5.647,5.384h-2.615l-5.581-5.34
				v-0.439h3.647L283.457,475.987z"/>
			<path d="M309.956,486.688l-2.219-0.132c-1.143,0-2.106,0.271-2.89,0.813c-0.784,0.542-1.388,1.305-1.813,2.285v16.985h-4.329
				v-23.774h3.867l0.417,3.472c0.674-1.23,1.505-2.19,2.494-2.879c0.988-0.688,2.127-1.032,3.417-1.032
				c0.322,0,0.63,0.025,0.923,0.076c0.293,0.052,0.535,0.107,0.725,0.165L309.956,486.688z"/>
			<path d="M321.293,495.631h-2.813v11.009h-4.329v-34.277h4.329v19.863h2.769l6.504-9.36h5.186l-8.13,10.792l9.294,12.982h-5.098
				L321.293,495.631z"/>
			<path d="M351.813,506.64c-0.146-0.718-0.26-1.352-0.341-1.901c-0.081-0.549-0.128-1.102-0.143-1.658
				c-0.806,1.143-1.856,2.098-3.153,2.867c-1.296,0.77-2.691,1.153-4.186,1.153c-2.476,0-4.361-0.634-5.658-1.9
				c-1.296-1.267-1.944-3.014-1.944-5.24c0-2.271,0.919-4.047,2.758-5.329c1.838-1.281,4.332-1.922,7.481-1.922h4.702v-2.352
				c0-1.392-0.425-2.494-1.274-3.307s-2.051-1.22-3.604-1.22c-1.392,0-2.523,0.355-3.395,1.065
				c-0.872,0.711-1.308,1.564-1.308,2.561h-4.131l-0.044-0.132c-0.088-1.729,0.729-3.311,2.45-4.746
				c1.721-1.436,3.944-2.153,6.668-2.153c2.695,0,4.863,0.685,6.504,2.055c1.641,1.369,2.461,3.343,2.461,5.921v11.448
				c0,0.85,0.044,1.67,0.132,2.461s0.249,1.567,0.483,2.329H351.813z M344.628,503.453c1.567,0,2.981-0.401,4.241-1.205
				c1.26-0.803,2.08-1.723,2.461-2.761v-3.856h-4.856c-1.743,0-3.139,0.438-4.186,1.314c-1.047,0.877-1.571,1.906-1.571,3.09
				c0,1.052,0.33,1.885,0.989,2.498S343.339,503.453,344.628,503.453z"/>
			<path d="M376.994,482.865l0.308,3.537c0.791-1.26,1.783-2.237,2.977-2.934c1.194-0.695,2.552-1.043,4.076-1.043
				c2.564,0,4.549,0.75,5.955,2.252s2.109,3.82,2.109,6.954v15.008h-4.328v-14.92c0-2.095-0.414-3.581-1.242-4.46
				s-2.092-1.318-3.789-1.318c-1.246,0-2.349,0.3-3.308,0.9c-0.959,0.602-1.725,1.421-2.296,2.461v17.337h-4.329v-23.774H376.994z"
				/>
			<path d="M413.315,506.64c-0.146-0.718-0.26-1.352-0.341-1.901c-0.08-0.549-0.128-1.102-0.143-1.658
				c-0.806,1.143-1.856,2.098-3.153,2.867c-1.296,0.77-2.691,1.153-4.186,1.153c-2.476,0-4.361-0.634-5.658-1.9
				c-1.296-1.267-1.944-3.014-1.944-5.24c0-2.271,0.919-4.047,2.758-5.329c1.838-1.281,4.332-1.922,7.481-1.922h4.702v-2.352
				c0-1.392-0.425-2.494-1.274-3.307s-2.051-1.22-3.604-1.22c-1.392,0-2.523,0.355-3.395,1.065
				c-0.872,0.711-1.308,1.564-1.308,2.561h-4.131l-0.044-0.132c-0.088-1.729,0.729-3.311,2.45-4.746
				c1.721-1.436,3.944-2.153,6.669-2.153c2.694,0,4.862,0.685,6.504,2.055c1.64,1.369,2.461,3.343,2.461,5.921v11.448
				c0,0.85,0.043,1.67,0.131,2.461s0.249,1.567,0.484,2.329H413.315z M406.13,503.453c1.567,0,2.981-0.401,4.241-1.205
				c1.26-0.803,2.08-1.723,2.461-2.761v-3.856h-4.856c-1.743,0-3.138,0.438-4.186,1.314c-1.047,0.877-1.57,1.906-1.57,3.09
				c0,1.052,0.329,1.885,0.988,2.498S404.841,503.453,406.13,503.453z"/>
			<path d="M440.343,477.13v5.735h4.504v3.208h-4.504v14.436c0,1.113,0.23,1.897,0.691,2.352c0.462,0.454,1.073,0.681,1.835,0.681
				c0.249,0,0.523-0.029,0.824-0.088c0.3-0.059,0.567-0.132,0.802-0.22l0.571,2.967c-0.322,0.264-0.795,0.479-1.417,0.647
				c-0.623,0.169-1.249,0.253-1.879,0.253c-1.758,0-3.157-0.53-4.197-1.593s-1.56-2.729-1.56-4.999v-14.436h-3.779v-3.208h3.779
				v-5.735H440.343z"/>
			<path d="M454.866,476.778h-4.328v-4.416h4.328V476.778z M454.866,506.64h-4.328v-23.774h4.328V506.64z"/>
			<path d="M481.782,495.653c0,3.428-0.82,6.192-2.461,8.294c-1.641,2.103-3.903,3.153-6.789,3.153c-1.465,0-2.75-0.245-3.856-0.735
				c-1.105-0.491-2.047-1.228-2.823-2.209v11.624h-4.328v-32.915h3.317l0.681,3.076c0.776-1.143,1.743-2.014,2.9-2.615
				c1.157-0.601,2.506-0.9,4.043-0.9c2.945,0,5.233,1.168,6.867,3.504c1.633,2.337,2.449,5.424,2.449,9.262V495.653z
				 M477.454,495.181c0-2.692-0.531-4.905-1.593-6.639c-1.063-1.733-2.626-2.601-4.691-2.601c-1.245,0-2.308,0.281-3.187,0.845
				s-1.589,1.335-2.131,2.315v11.477c0.542,0.981,1.252,1.745,2.131,2.294s1.956,0.823,3.23,0.823c2.051,0,3.604-0.75,4.658-2.25
				c1.055-1.499,1.582-3.434,1.582-5.805V495.181z"/>
			<path d="M494.263,495.631h-2.813v11.009h-4.328v-34.277h4.328v19.863h2.77l6.504-9.36h5.186l-8.131,10.792l9.295,12.982h-5.098
				L494.263,495.631z"/>
			<path d="M514.852,476.778h-4.328v-4.416h4.328V476.778z M514.852,506.64h-4.328v-23.774h4.328V506.64z"/>
			<path d="M525.289,505.585l-3.297,6.724h-2.57l1.538-6.943v-3.582h4.329V505.585z"/>
			<path d="M548.733,495.631h-2.813v11.009h-4.328v-34.277h4.328v19.863h2.77l6.504-9.36h5.186l-8.131,10.792l9.295,12.982h-5.098
				L548.733,495.631z"/>
			<path d="M569.322,476.778h-4.328v-4.416h4.328V476.778z M569.322,506.64h-4.328v-23.774h4.328V506.64z"/>
			<path d="M592.152,482.865v25.729c0,2.446-0.63,4.332-1.89,5.658c-1.26,1.325-3.01,1.988-5.252,1.988
				c-0.454,0-0.867-0.032-1.241-0.099c-0.373-0.066-0.772-0.165-1.197-0.297l0.308-3.405c0.205,0.073,0.498,0.135,0.879,0.187
				c0.381,0.051,0.695,0.077,0.945,0.077c0.951,0,1.71-0.322,2.273-0.967c0.564-0.646,0.846-1.692,0.846-3.143v-25.729H592.152z
				 M592.021,476.69h-4.328v-4.328h4.328V476.69z"/>
			<path d="M597.799,494.532c0-3.516,0.952-6.412,2.857-8.69c1.903-2.277,4.489-3.416,7.756-3.416c3.296,0,5.899,1.135,7.812,3.405
				c1.911,2.271,2.867,5.171,2.867,8.701v0.483c0,3.545-0.952,6.445-2.856,8.701s-4.497,3.384-7.778,3.384s-5.878-1.132-7.789-3.395
				c-1.912-2.263-2.868-5.16-2.868-8.69V494.532z M602.128,495.005c0,2.517,0.531,4.594,1.593,6.232
				c1.063,1.639,2.641,2.458,4.735,2.458c2.065,0,3.633-0.819,4.702-2.458s1.604-3.716,1.604-6.232v-0.483
				c0-2.486-0.538-4.557-1.614-6.211c-1.077-1.652-2.655-2.479-4.735-2.479c-2.065,0-3.629,0.827-4.691,2.479
				c-1.062,1.654-1.593,3.725-1.593,6.211V495.005z"/>
			<path d="M655.829,495.653c0,3.428-0.82,6.192-2.461,8.294c-1.641,2.103-3.903,3.153-6.789,3.153c-1.465,0-2.75-0.245-3.856-0.735
				c-1.105-0.491-2.047-1.228-2.823-2.209v11.624h-4.328v-32.915h3.317l0.681,3.076c0.776-1.143,1.743-2.014,2.9-2.615
				c1.157-0.601,2.506-0.9,4.043-0.9c2.945,0,5.233,1.168,6.867,3.504c1.633,2.337,2.449,5.424,2.449,9.262V495.653z
				 M651.501,495.181c0-2.692-0.531-4.905-1.593-6.639c-1.063-1.733-2.626-2.601-4.691-2.601c-1.245,0-2.308,0.281-3.187,0.845
				s-1.589,1.335-2.131,2.315v11.477c0.542,0.981,1.252,1.745,2.131,2.294s1.956,0.823,3.23,0.823c2.051,0,3.604-0.75,4.658-2.25
				c1.055-1.499,1.582-3.434,1.582-5.805V495.181z"/>
			<path d="M672.397,486.688l-2.22-0.132c-1.143,0-2.105,0.271-2.89,0.813c-0.783,0.542-1.388,1.305-1.813,2.285v16.985h-4.328
				v-23.774h3.867l0.417,3.472c0.674-1.23,1.505-2.19,2.494-2.879c0.988-0.688,2.127-1.032,3.417-1.032
				c0.321,0,0.629,0.025,0.922,0.076c0.293,0.052,0.535,0.107,0.726,0.165L672.397,486.688z"/>
			<path d="M681.252,476.778h-4.328v-4.416h4.328V476.778z M681.252,506.64h-4.328v-23.774h4.328V506.64z"/>
			<path d="M693.623,477.13v5.735h4.504v3.208h-4.504v14.436c0,1.113,0.23,1.897,0.691,2.352c0.462,0.454,1.073,0.681,1.835,0.681
				c0.249,0,0.523-0.029,0.824-0.088c0.3-0.059,0.567-0.132,0.802-0.22l0.571,2.967c-0.322,0.264-0.795,0.479-1.417,0.647
				c-0.623,0.169-1.249,0.253-1.879,0.253c-1.758,0-3.157-0.53-4.197-1.593s-1.56-2.729-1.56-4.999v-14.436h-3.779v-3.208h3.779
				v-5.735H693.623z"/>
			<path d="M708.146,476.778h-4.328v-4.416h4.328V476.778z M708.146,506.64h-4.328v-23.774h4.328V506.64z"/>
			<path d="M728.625,500.312c0-0.952-0.362-1.736-1.088-2.352c-0.725-0.615-2.098-1.149-4.119-1.604
				c-2.887-0.629-5.058-1.481-6.516-2.556c-1.457-1.075-2.186-2.541-2.186-4.398c0-1.931,0.819-3.576,2.461-4.937
				c1.64-1.36,3.779-2.04,6.416-2.04c2.768,0,4.969,0.711,6.603,2.131c1.633,1.421,2.413,3.15,2.34,5.186l-0.044,0.132h-4.131
				c0-1.04-0.436-1.974-1.308-2.802c-0.871-0.827-2.025-1.241-3.46-1.241c-1.539,0-2.682,0.337-3.428,1.011
				c-0.748,0.674-1.121,1.487-1.121,2.439c0,0.938,0.33,1.678,0.988,2.219c0.66,0.542,2,1.025,4.021,1.45
				c3.003,0.646,5.236,1.521,6.701,2.626c1.465,1.106,2.197,2.59,2.197,4.449c0,2.109-0.853,3.816-2.56,5.12
				c-1.706,1.304-3.937,1.955-6.69,1.955c-3.032,0-5.42-0.769-7.163-2.307s-2.571-3.333-2.483-5.384l0.045-0.132h4.131
				c0.072,1.53,0.644,2.649,1.713,3.356s2.322,1.061,3.758,1.061c1.538,0,2.743-0.312,3.614-0.934
				C728.189,502.139,728.625,501.322,728.625,500.312z"/>
			<path d="M742.204,482.865l0.307,3.537c0.791-1.26,1.784-2.237,2.978-2.934c1.194-0.695,2.553-1.043,4.076-1.043
				c2.563,0,4.548,0.75,5.954,2.252s2.109,3.82,2.109,6.954v15.008H753.3v-14.92c0-2.095-0.414-3.581-1.241-4.46
				c-0.828-0.879-2.092-1.318-3.79-1.318c-1.246,0-2.348,0.3-3.308,0.9c-0.959,0.602-1.725,1.421-2.296,2.461v17.337h-4.328v-23.774
				H742.204z"/>
			<path d="M773.778,507.101c-3.311,0-5.943-1.102-7.899-3.307c-1.955-2.204-2.933-5.064-2.933-8.58v-0.967
				c0-3.384,1.007-6.2,3.021-8.448c2.015-2.249,4.398-3.373,7.152-3.373c3.208,0,5.632,0.967,7.272,2.9s2.461,4.512,2.461,7.734
				v2.702h-15.424l-0.066,0.11c0.044,2.278,0.622,4.152,1.736,5.62c1.112,1.468,2.673,2.202,4.68,2.202
				c1.465,0,2.75-0.209,3.856-0.627c1.105-0.417,2.062-0.992,2.867-1.725l1.692,2.816c-0.851,0.84-1.971,1.54-3.362,2.101
				C777.44,506.82,775.756,507.101,773.778,507.101z M773.119,485.831c-1.45,0-2.688,0.61-3.714,1.829s-1.655,2.748-1.889,4.588
				l0.043,0.109h10.965v-0.569c0-1.694-0.454-3.11-1.362-4.249S774.906,485.831,773.119,485.831z"/>
			<path d="M791.577,482.865l0.307,3.12c0.776-1.128,1.762-2.003,2.956-2.626c1.193-0.623,2.581-0.934,4.163-0.934
				s2.941,0.366,4.076,1.099c1.136,0.732,1.988,1.831,2.561,3.296c0.746-1.348,1.735-2.417,2.966-3.208s2.666-1.187,4.307-1.187
				c2.417,0,4.329,0.831,5.735,2.494c1.406,1.662,2.109,4.163,2.109,7.503v14.217h-4.329v-14.261c0-2.344-0.403-4.002-1.208-4.977
				c-0.807-0.975-2.008-1.461-3.604-1.461c-1.48,0-2.678,0.513-3.593,1.538c-0.916,1.025-1.454,2.321-1.615,3.889v0.176v15.096
				h-4.351v-14.261c0-2.227-0.414-3.855-1.241-4.889c-0.828-1.033-2.019-1.549-3.571-1.549c-1.318,0-2.402,0.271-3.252,0.813
				c-0.85,0.542-1.501,1.305-1.955,2.285v17.601h-4.328v-23.774H791.577z"/>
			<path d="M826.029,494.532c0-3.516,0.952-6.412,2.857-8.69c1.903-2.277,4.489-3.416,7.756-3.416c3.296,0,5.899,1.135,7.812,3.405
				c1.911,2.271,2.867,5.171,2.867,8.701v0.483c0,3.545-0.952,6.445-2.856,8.701s-4.497,3.384-7.778,3.384s-5.878-1.132-7.789-3.395
				c-1.912-2.263-2.868-5.16-2.868-8.69V494.532z M830.358,495.005c0,2.517,0.531,4.594,1.593,6.232
				c1.063,1.639,2.641,2.458,4.735,2.458c2.065,0,3.633-0.819,4.702-2.458s1.604-3.716,1.604-6.232v-0.483
				c0-2.486-0.538-4.557-1.614-6.211c-1.077-1.652-2.655-2.479-4.735-2.479c-2.065,0-3.629,0.827-4.691,2.479
				c-1.062,1.654-1.593,3.725-1.593,6.211V495.005z"/>
			<path d="M877.622,500.312c0-0.952-0.362-1.736-1.088-2.352c-0.725-0.615-2.098-1.149-4.119-1.604
				c-2.887-0.629-5.058-1.481-6.516-2.556c-1.457-1.075-2.186-2.541-2.186-4.398c0-1.931,0.819-3.576,2.461-4.937
				c1.64-1.36,3.779-2.04,6.416-2.04c2.768,0,4.969,0.711,6.603,2.131c1.633,1.421,2.413,3.15,2.34,5.186l-0.044,0.132h-4.131
				c0-1.04-0.436-1.974-1.308-2.802c-0.871-0.827-2.025-1.241-3.46-1.241c-1.539,0-2.682,0.337-3.428,1.011
				c-0.748,0.674-1.121,1.487-1.121,2.439c0,0.938,0.33,1.678,0.988,2.219c0.66,0.542,2,1.025,4.021,1.45
				c3.003,0.646,5.236,1.521,6.701,2.626c1.465,1.106,2.197,2.59,2.197,4.449c0,2.109-0.853,3.816-2.56,5.12
				c-1.706,1.304-3.937,1.955-6.69,1.955c-3.032,0-5.42-0.769-7.163-2.307s-2.571-3.333-2.483-5.384l0.045-0.132h4.131
				c0.072,1.53,0.644,2.649,1.713,3.356s2.322,1.061,3.758,1.061c1.538,0,2.743-0.312,3.614-0.934
				C877.187,502.139,877.622,501.322,877.622,500.312z"/>
			<path d="M918.776,495.653c0,3.428-0.82,6.192-2.461,8.294c-1.641,2.103-3.903,3.153-6.789,3.153c-1.465,0-2.75-0.245-3.856-0.735
				c-1.105-0.491-2.047-1.228-2.823-2.209v11.624h-4.328v-32.915h3.317l0.681,3.076c0.776-1.143,1.743-2.014,2.9-2.615
				c1.157-0.601,2.506-0.9,4.043-0.9c2.945,0,5.233,1.168,6.867,3.504c1.633,2.337,2.449,5.424,2.449,9.262V495.653z
				 M914.448,495.181c0-2.692-0.531-4.905-1.593-6.639c-1.063-1.733-2.626-2.601-4.691-2.601c-1.245,0-2.308,0.281-3.187,0.845
				s-1.589,1.335-2.131,2.315v11.477c0.542,0.981,1.252,1.745,2.131,2.294s1.956,0.823,3.23,0.823c2.051,0,3.604-0.75,4.658-2.25
				c1.055-1.499,1.582-3.434,1.582-5.805V495.181z"/>
			<path d="M935.345,486.688l-2.22-0.132c-1.143,0-2.105,0.271-2.89,0.813c-0.783,0.542-1.388,1.305-1.813,2.285v16.985h-4.328
				v-23.774h3.867l0.417,3.472c0.674-1.23,1.505-2.19,2.494-2.879c0.988-0.688,2.127-1.032,3.417-1.032
				c0.321,0,0.629,0.025,0.922,0.076c0.293,0.052,0.535,0.107,0.726,0.165L935.345,486.688z"/>
			<path d="M953.34,500.312c0-0.952-0.362-1.736-1.088-2.352c-0.725-0.615-2.098-1.149-4.119-1.604
				c-2.887-0.629-5.058-1.481-6.516-2.556c-1.457-1.075-2.186-2.541-2.186-4.398c0-1.931,0.819-3.576,2.461-4.937
				c1.64-1.36,3.779-2.04,6.416-2.04c2.768,0,4.969,0.711,6.603,2.131c1.633,1.421,2.413,3.15,2.34,5.186l-0.044,0.132h-4.131
				c0-1.04-0.436-1.974-1.308-2.802c-0.871-0.827-2.025-1.241-3.46-1.241c-1.539,0-2.682,0.337-3.428,1.011
				c-0.748,0.674-1.121,1.487-1.121,2.439c0,0.938,0.33,1.678,0.988,2.219c0.66,0.542,2,1.025,4.021,1.45
				c3.003,0.646,5.236,1.521,6.701,2.626c1.465,1.106,2.197,2.59,2.197,4.449c0,2.109-0.853,3.816-2.56,5.12
				c-1.706,1.304-3.937,1.955-6.69,1.955c-3.032,0-5.42-0.769-7.163-2.307s-2.571-3.333-2.483-5.384l0.045-0.132h4.131
				c0.072,1.53,0.644,2.649,1.713,3.356s2.322,1.061,3.758,1.061c1.538,0,2.743-0.312,3.614-0.934
				C952.904,502.139,953.34,501.322,953.34,500.312z"/>
			<path d="M968.765,477.13v5.735h4.504v3.208h-4.504v14.436c0,1.113,0.23,1.897,0.691,2.352c0.462,0.454,1.073,0.681,1.835,0.681
				c0.249,0,0.523-0.029,0.824-0.088c0.3-0.059,0.567-0.132,0.802-0.22l0.571,2.967c-0.322,0.264-0.795,0.479-1.417,0.647
				c-0.623,0.169-1.249,0.253-1.879,0.253c-1.758,0-3.157-0.53-4.197-1.593s-1.56-2.729-1.56-4.999v-14.436h-3.779v-3.208h3.779
				v-5.735H968.765z"/>
			<path d="M977.597,494.532c0-3.516,0.952-6.412,2.857-8.69c1.903-2.277,4.489-3.416,7.756-3.416c3.296,0,5.899,1.135,7.812,3.405
				c1.911,2.271,2.867,5.171,2.867,8.701v0.483c0,3.545-0.952,6.445-2.856,8.701s-4.497,3.384-7.778,3.384s-5.878-1.132-7.789-3.395
				c-1.912-2.263-2.868-5.16-2.868-8.69V494.532z M981.926,495.005c0,2.517,0.531,4.594,1.593,6.232
				c1.063,1.639,2.641,2.458,4.735,2.458c2.065,0,3.633-0.819,4.702-2.458s1.604-3.716,1.604-6.232v-0.483
				c0-2.486-0.538-4.557-1.614-6.211c-1.077-1.652-2.655-2.479-4.735-2.479c-2.065,0-3.629,0.827-4.691,2.479
				c-1.062,1.654-1.593,3.725-1.593,6.211V495.005z"/>
			<path d="M1008.052,482.865l0.307,3.12c0.776-1.128,1.762-2.003,2.956-2.626c1.193-0.623,2.581-0.934,4.163-0.934
				s2.941,0.366,4.076,1.099c1.136,0.732,1.988,1.831,2.561,3.296c0.746-1.348,1.735-2.417,2.966-3.208s2.666-1.187,4.307-1.187
				c2.417,0,4.329,0.831,5.735,2.494c1.406,1.662,2.109,4.163,2.109,7.503v14.217h-4.329v-14.261c0-2.344-0.403-4.002-1.208-4.977
				c-0.807-0.975-2.008-1.461-3.604-1.461c-1.48,0-2.678,0.513-3.593,1.538c-0.916,1.025-1.454,2.321-1.615,3.889v0.176v15.096
				h-4.351v-14.261c0-2.227-0.414-3.855-1.241-4.889c-0.828-1.033-2.019-1.549-3.571-1.549c-1.318,0-2.402,0.271-3.252,0.813
				c-0.85,0.542-1.501,1.305-1.955,2.285v17.601h-4.328v-23.774H1008.052z"/>
			<path d="M1059.38,506.64h-4.328v-34.277h4.328V506.64z"/>
			<path d="M1075.903,507.101c-3.311,0-5.943-1.102-7.899-3.307c-1.955-2.204-2.933-5.064-2.933-8.58v-0.967
				c0-3.384,1.007-6.2,3.021-8.448c2.015-2.249,4.398-3.373,7.152-3.373c3.208,0,5.632,0.967,7.272,2.9s2.461,4.512,2.461,7.734
				v2.702h-15.424l-0.066,0.11c0.044,2.278,0.622,4.152,1.736,5.62c1.112,1.468,2.673,2.202,4.68,2.202
				c1.465,0,2.75-0.209,3.856-0.627c1.105-0.417,2.062-0.992,2.867-1.725l1.692,2.816c-0.851,0.84-1.971,1.54-3.362,2.101
				C1079.565,506.82,1077.881,507.101,1075.903,507.101z M1075.244,485.831c-1.45,0-2.688,0.61-3.714,1.829
				s-1.655,2.748-1.889,4.588l0.043,0.109h10.965v-0.569c0-1.694-0.454-3.11-1.362-4.249S1077.031,485.831,1075.244,485.831z"/>
			<path d="M1097.481,499.63l0.373,1.67h0.133l0.417-1.67l5.472-16.765h4.416l-8.745,23.774h-3.274l-8.854-23.774h4.438
				L1097.481,499.63z"/>
			<path d="M1121.761,507.101c-3.311,0-5.943-1.102-7.899-3.307c-1.955-2.204-2.933-5.064-2.933-8.58v-0.967
				c0-3.384,1.007-6.2,3.021-8.448c2.015-2.249,4.398-3.373,7.152-3.373c3.208,0,5.632,0.967,7.272,2.9s2.461,4.512,2.461,7.734
				v2.702h-15.424l-0.066,0.11c0.044,2.278,0.622,4.152,1.736,5.62c1.112,1.468,2.673,2.202,4.68,2.202
				c1.465,0,2.75-0.209,3.856-0.627c1.105-0.417,2.062-0.992,2.867-1.725l1.692,2.816c-0.851,0.84-1.971,1.54-3.362,2.101
				C1125.423,506.82,1123.738,507.101,1121.761,507.101z M1121.102,485.831c-1.45,0-2.688,0.61-3.714,1.829
				s-1.655,2.748-1.889,4.588l0.043,0.109h10.965v-0.569c0-1.694-0.454-3.11-1.362-4.249S1122.889,485.831,1121.102,485.831z"/>
			<path d="M1158.125,486.688l-2.22-0.132c-1.143,0-2.105,0.271-2.89,0.813c-0.783,0.542-1.388,1.305-1.813,2.285v16.985h-4.328
				v-23.774h3.867l0.417,3.472c0.674-1.23,1.505-2.19,2.494-2.879c0.988-0.688,2.127-1.032,3.417-1.032
				c0.321,0,0.629,0.025,0.922,0.076c0.293,0.052,0.535,0.107,0.726,0.165L1158.125,486.688z"/>
			<path d="M1160.849,494.532c0-3.516,0.952-6.412,2.857-8.69c1.903-2.277,4.489-3.416,7.756-3.416c3.296,0,5.899,1.135,7.812,3.405
				c1.911,2.271,2.867,5.171,2.867,8.701v0.483c0,3.545-0.952,6.445-2.856,8.701s-4.497,3.384-7.778,3.384s-5.878-1.132-7.789-3.395
				c-1.912-2.263-2.868-5.16-2.868-8.69V494.532z M1165.178,495.005c0,2.517,0.531,4.594,1.593,6.232
				c1.063,1.639,2.641,2.458,4.735,2.458c2.065,0,3.633-0.819,4.702-2.458s1.604-3.716,1.604-6.232v-0.483
				c0-2.486-0.538-4.557-1.614-6.211c-1.077-1.652-2.655-2.479-4.735-2.479c-2.065,0-3.629,0.827-4.691,2.479
				c-1.062,1.654-1.593,3.725-1.593,6.211V495.005z"/>
			<path d="M1194.599,495.631h-2.813v11.009h-4.328v-34.277h4.328v19.863h2.77l6.504-9.36h5.186l-8.131,10.792l9.295,12.982h-5.098
				L1194.599,495.631z"/>
			<path d="M1219.934,507.101c-3.311,0-5.943-1.102-7.899-3.307c-1.955-2.204-2.933-5.064-2.933-8.58v-0.967
				c0-3.384,1.007-6.2,3.021-8.448c2.015-2.249,4.398-3.373,7.152-3.373c3.208,0,5.632,0.967,7.272,2.9s2.461,4.512,2.461,7.734
				v2.702h-15.424l-0.066,0.11c0.044,2.278,0.622,4.152,1.736,5.62c1.112,1.468,2.673,2.202,4.68,2.202
				c1.465,0,2.75-0.209,3.856-0.627c1.105-0.417,2.062-0.992,2.867-1.725l1.692,2.816c-0.851,0.84-1.971,1.54-3.362,2.101
				C1223.596,506.82,1221.911,507.101,1219.934,507.101z M1219.274,485.831c-1.45,0-2.688,0.61-3.714,1.829
				s-1.655,2.748-1.889,4.588l0.043,0.109h10.965v-0.569c0-1.694-0.454-3.11-1.362-4.249S1221.062,485.831,1219.274,485.831z"/>
			<path d="M1237.645,505.585l-3.297,6.724h-2.57l1.538-6.943v-3.582h4.329V505.585z"/>
			<path d="M1269.021,503.124c-0.747,1.274-1.707,2.256-2.878,2.944c-1.173,0.688-2.527,1.032-4.065,1.032
				c-2.593,0-4.614-0.827-6.064-2.482s-2.175-4.233-2.175-7.734v-14.019h4.328v14.063c0,2.534,0.373,4.277,1.121,5.229
				c0.746,0.952,1.911,1.428,3.493,1.428c1.538,0,2.809-0.311,3.813-0.934c1.003-0.622,1.761-1.505,2.274-2.647v-17.139h4.328
				v23.774h-3.889L1269.021,503.124z"/>
			<path d="M1299.76,495.653c0,3.428-0.82,6.192-2.461,8.294c-1.641,2.103-3.903,3.153-6.789,3.153c-1.465,0-2.75-0.245-3.856-0.735
				c-1.105-0.491-2.047-1.228-2.823-2.209v11.624h-4.328v-32.915h3.317l0.681,3.076c0.776-1.143,1.743-2.014,2.9-2.615
				c1.157-0.601,2.506-0.9,4.043-0.9c2.945,0,5.233,1.168,6.867,3.504c1.633,2.337,2.449,5.424,2.449,9.262V495.653z
				 M1295.432,495.181c0-2.692-0.531-4.905-1.593-6.639c-1.063-1.733-2.626-2.601-4.691-2.601c-1.245,0-2.308,0.281-3.187,0.845
				s-1.589,1.335-2.131,2.315v11.477c0.542,0.981,1.252,1.745,2.131,2.294s1.956,0.823,3.23,0.823c2.051,0,3.604-0.75,4.658-2.25
				c1.055-1.499,1.582-3.434,1.582-5.805V495.181z"/>
			<path d="M1304.066,494.532c0-3.516,0.952-6.412,2.857-8.69c1.903-2.277,4.489-3.416,7.756-3.416c3.296,0,5.899,1.135,7.812,3.405
				c1.911,2.271,2.867,5.171,2.867,8.701v0.483c0,3.545-0.952,6.445-2.856,8.701s-4.497,3.384-7.778,3.384s-5.878-1.132-7.789-3.395
				c-1.912-2.263-2.868-5.16-2.868-8.69V494.532z M1308.396,495.005c0,2.517,0.531,4.594,1.593,6.232
				c1.063,1.639,2.641,2.458,4.735,2.458c2.065,0,3.633-0.819,4.702-2.458s1.604-3.716,1.604-6.232v-0.483
				c0-2.486-0.538-4.557-1.614-6.211c-1.077-1.652-2.655-2.479-4.735-2.479c-2.065,0-3.629,0.827-4.691,2.479
				c-1.062,1.654-1.593,3.725-1.593,6.211V495.005z"/>
			<path d="M1341.904,486.688l-2.22-0.132c-1.143,0-2.105,0.271-2.89,0.813c-0.783,0.542-1.388,1.305-1.813,2.285v16.985h-4.328
				v-23.774h3.867l0.417,3.472c0.674-1.23,1.505-2.19,2.494-2.879c0.988-0.688,2.127-1.032,3.417-1.032
				c0.321,0,0.629,0.025,0.922,0.076c0.293,0.052,0.535,0.107,0.726,0.165L1341.904,486.688z"/>
			<path d="M1360.69,506.64c-0.146-0.718-0.26-1.352-0.341-1.901c-0.08-0.549-0.128-1.102-0.143-1.658
				c-0.806,1.143-1.856,2.098-3.153,2.867c-1.296,0.77-2.691,1.153-4.186,1.153c-2.476,0-4.361-0.634-5.658-1.9
				c-1.296-1.267-1.944-3.014-1.944-5.24c0-2.271,0.919-4.047,2.758-5.329c1.838-1.281,4.332-1.922,7.481-1.922h4.702v-2.352
				c0-1.392-0.425-2.494-1.274-3.307s-2.051-1.22-3.604-1.22c-1.392,0-2.523,0.355-3.395,1.065
				c-0.872,0.711-1.308,1.564-1.308,2.561h-4.131l-0.044-0.132c-0.088-1.729,0.729-3.311,2.45-4.746
				c1.721-1.436,3.944-2.153,6.669-2.153c2.694,0,4.862,0.685,6.504,2.055c1.64,1.369,2.461,3.343,2.461,5.921v11.448
				c0,0.85,0.043,1.67,0.131,2.461s0.249,1.567,0.484,2.329H1360.69z M1353.505,503.453c1.567,0,2.981-0.401,4.241-1.205
				c1.26-0.803,2.08-1.723,2.461-2.761v-3.856h-4.856c-1.743,0-3.138,0.438-4.186,1.314c-1.047,0.877-1.57,1.906-1.57,3.09
				c0,1.052,0.329,1.885,0.988,2.498S1352.216,503.453,1353.505,503.453z"/>
			<path d="M1391.123,495.653c0,3.428-0.824,6.192-2.473,8.294c-1.647,2.103-3.915,3.153-6.801,3.153
				c-1.567,0-2.93-0.304-4.086-0.911c-1.158-0.608-2.117-1.506-2.879-2.692l-0.527,3.143h-3.537v-34.277h4.328v13.315
				c0.747-1.055,1.674-1.86,2.779-2.417c1.106-0.557,2.398-0.835,3.879-0.835c2.929,0,5.214,1.172,6.855,3.516
				c1.64,2.344,2.461,5.427,2.461,9.25V495.653z M1386.794,495.191c0-2.725-0.502-4.947-1.505-6.668
				c-1.004-1.722-2.531-2.582-4.582-2.582c-1.333,0-2.457,0.326-3.372,0.978c-0.916,0.651-1.645,1.527-2.187,2.626v10.305
				c0.557,1.172,1.285,2.088,2.187,2.747c0.9,0.659,2.039,0.988,3.417,0.988c2.035,0,3.552-0.725,4.548-2.175
				s1.494-3.369,1.494-5.757V495.191z"/>
			<path d="M1401.076,476.778h-4.328v-4.416h4.328V476.778z M1401.076,506.64h-4.328v-23.774h4.328V506.64z"/>
			<path d="M1411.602,482.865l0.307,3.12c0.776-1.128,1.762-2.003,2.956-2.626c1.193-0.623,2.581-0.934,4.163-0.934
				s2.941,0.366,4.076,1.099c1.136,0.732,1.988,1.831,2.561,3.296c0.746-1.348,1.735-2.417,2.966-3.208s2.666-1.187,4.307-1.187
				c2.417,0,4.329,0.831,5.735,2.494c1.406,1.662,2.109,4.163,2.109,7.503v14.217h-4.329v-14.261c0-2.344-0.403-4.002-1.208-4.977
				c-0.807-0.975-2.008-1.461-3.604-1.461c-1.48,0-2.678,0.513-3.593,1.538c-0.916,1.025-1.454,2.321-1.615,3.889v0.176v15.096
				h-4.351v-14.261c0-2.227-0.414-3.855-1.241-4.889c-0.828-1.033-2.019-1.549-3.571-1.549c-1.318,0-2.402,0.271-3.252,0.813
				c-0.85,0.542-1.501,1.305-1.955,2.285v17.601h-4.328v-23.774H1411.602z"/>
			<path d="M1446.054,494.532c0-3.516,0.952-6.412,2.857-8.69c1.903-2.277,4.489-3.416,7.756-3.416c3.296,0,5.899,1.135,7.812,3.405
				c1.911,2.271,2.867,5.171,2.867,8.701v0.483c0,3.545-0.952,6.445-2.856,8.701s-4.497,3.384-7.778,3.384s-5.878-1.132-7.789-3.395
				c-1.912-2.263-2.868-5.16-2.868-8.69V494.532z M1450.383,495.005c0,2.517,0.531,4.594,1.593,6.232
				c1.063,1.639,2.641,2.458,4.735,2.458c2.065,0,3.633-0.819,4.702-2.458s1.604-3.716,1.604-6.232v-0.483
				c0-2.486-0.538-4.557-1.614-6.211c-1.077-1.652-2.655-2.479-4.735-2.479c-2.065,0-3.629,0.827-4.691,2.479
				c-1.062,1.654-1.593,3.725-1.593,6.211V495.005z"/>
			<path d="M1482.837,495.191c0-3.823,0.816-6.906,2.45-9.25c1.633-2.344,3.922-3.516,6.866-3.516c1.392,0,2.626,0.256,3.702,0.769
				c1.077,0.513,1.996,1.261,2.758,2.241v-13.073h4.328v34.277h-3.537l-0.506-2.923c-0.776,1.113-1.729,1.956-2.855,2.527
				c-1.129,0.571-2.439,0.856-3.934,0.856c-2.9,0-5.171-1.051-6.812-3.153c-1.641-2.102-2.461-4.866-2.461-8.294V495.191z
				 M1487.166,495.653c0,2.402,0.49,4.325,1.472,5.768s2.505,2.164,4.57,2.164c1.289,0,2.373-0.293,3.252-0.879
				c0.879-0.585,1.597-1.406,2.153-2.461v-11.096c-0.557-0.981-1.278-1.762-2.164-2.341c-0.887-0.578-1.952-0.867-3.197-0.867
				c-2.08,0-3.614,0.856-4.604,2.57c-0.988,1.714-1.482,3.941-1.482,6.68V495.653z"/>
			<path d="M1519.268,507.101c-3.311,0-5.943-1.102-7.899-3.307c-1.955-2.204-2.933-5.064-2.933-8.58v-0.967
				c0-3.384,1.007-6.2,3.021-8.448c2.015-2.249,4.398-3.373,7.152-3.373c3.208,0,5.632,0.967,7.272,2.9s2.461,4.512,2.461,7.734
				v2.702h-15.424l-0.066,0.11c0.044,2.278,0.622,4.152,1.736,5.62c1.112,1.468,2.673,2.202,4.68,2.202
				c1.465,0,2.75-0.209,3.856-0.627c1.105-0.417,2.062-0.992,2.867-1.725l1.692,2.816c-0.851,0.84-1.971,1.54-3.362,2.101
				C1522.93,506.82,1521.245,507.101,1519.268,507.101z M1518.608,485.831c-1.45,0-2.688,0.61-3.714,1.829s-1.655,2.748-1.889,4.588
				l0.043,0.109h10.965v-0.569c0-1.694-0.454-3.11-1.362-4.249S1520.396,485.831,1518.608,485.831z"/>
			<path d="M1547.02,500.312c0-0.952-0.362-1.736-1.088-2.352c-0.725-0.615-2.098-1.149-4.119-1.604
				c-2.887-0.629-5.058-1.481-6.516-2.556c-1.457-1.075-2.186-2.541-2.186-4.398c0-1.931,0.819-3.576,2.461-4.937
				c1.64-1.36,3.779-2.04,6.416-2.04c2.768,0,4.969,0.711,6.603,2.131c1.633,1.421,2.413,3.15,2.34,5.186l-0.044,0.132h-4.131
				c0-1.04-0.436-1.974-1.308-2.802c-0.871-0.827-2.025-1.241-3.46-1.241c-1.539,0-2.682,0.337-3.428,1.011
				c-0.748,0.674-1.121,1.487-1.121,2.439c0,0.938,0.33,1.678,0.988,2.219c0.66,0.542,2,1.025,4.021,1.45
				c3.003,0.646,5.236,1.521,6.701,2.626c1.465,1.106,2.197,2.59,2.197,4.449c0,2.109-0.853,3.816-2.56,5.12
				c-1.706,1.304-3.937,1.955-6.69,1.955c-3.032,0-5.42-0.769-7.163-2.307s-2.571-3.333-2.483-5.384l0.045-0.132h4.131
				c0.072,1.53,0.644,2.649,1.713,3.356s2.322,1.061,3.758,1.061c1.538,0,2.743-0.312,3.614-0.934
				C1546.584,502.139,1547.02,501.322,1547.02,500.312z"/>
			<path d="M1560.6,482.865l0.307,3.537c0.791-1.26,1.784-2.237,2.978-2.934c1.194-0.695,2.553-1.043,4.076-1.043
				c2.563,0,4.548,0.75,5.954,2.252s2.109,3.82,2.109,6.954v15.008h-4.328v-14.92c0-2.095-0.414-3.581-1.241-4.46
				c-0.828-0.879-2.092-1.318-3.79-1.318c-1.246,0-2.348,0.3-3.308,0.9c-0.959,0.602-1.725,1.421-2.296,2.461v17.337h-4.328v-23.774
				H1560.6z"/>
			<path d="M1586.988,476.778h-4.328v-4.416h4.328V476.778z M1586.988,506.64h-4.328v-23.774h4.328V506.64z"/>
			<path d="M167.243,550.787l6.482,8.548v0.417l-6.482,8.548h-3.252l5.603-8.745l-5.603-8.768H167.243z M174.846,550.787
				l6.482,8.548v0.417l-6.482,8.548h-3.252l5.603-8.745l-5.603-8.768H174.846z"/>
			<path d="M199.763,565.312c0-0.952-0.362-1.736-1.088-2.352c-0.725-0.615-2.098-1.149-4.12-1.604
				c-2.886-0.629-5.058-1.481-6.515-2.556c-1.458-1.075-2.186-2.541-2.186-4.398c0-1.931,0.82-3.576,2.461-4.937
				s3.779-2.04,6.416-2.04c2.769,0,4.969,0.711,6.603,2.131c1.633,1.421,2.413,3.15,2.34,5.186l-0.044,0.132h-4.131
				c0-1.04-0.436-1.974-1.308-2.802c-0.872-0.827-2.025-1.241-3.46-1.241c-1.538,0-2.681,0.337-3.428,1.011
				s-1.121,1.487-1.121,2.439c0,0.938,0.33,1.678,0.989,2.219c0.659,0.542,2,1.025,4.021,1.45c3.003,0.646,5.237,1.521,6.702,2.626
				c1.465,1.106,2.197,2.59,2.197,4.449c0,2.109-0.854,3.816-2.56,5.12s-3.937,1.955-6.69,1.955c-3.032,0-5.42-0.769-7.163-2.307
				s-2.571-3.333-2.483-5.384l0.044-0.132h4.131c0.073,1.53,0.645,2.649,1.714,3.356s2.322,1.061,3.757,1.061
				c1.538,0,2.743-0.312,3.614-0.934C199.327,567.139,199.763,566.322,199.763,565.312z"/>
			<path d="M213.803,551.051c0.82-1.143,1.827-2.032,3.021-2.67c1.193-0.637,2.516-0.955,3.966-0.955
				c2.534,0,4.508,0.762,5.922,2.285c1.413,1.523,2.12,3.867,2.12,7.031v14.897h-4.329v-14.941c0-1.963-0.421-3.413-1.263-4.351
				c-0.843-0.938-2.099-1.406-3.769-1.406c-1.201,0-2.289,0.282-3.263,0.846c-0.975,0.564-1.776,1.329-2.406,2.296v17.557h-4.329
				v-34.277h4.329V551.051z"/>
			<path d="M239.731,541.778h-4.329v-4.416h4.329V541.778z M239.731,571.64h-4.329v-23.774h4.329V571.64z"/>
			<path d="M248.19,571.64v-20.566h-3.713v-3.208h3.713v-3.011c0-2.534,0.663-4.493,1.989-5.878
				c1.325-1.384,3.175-2.076,5.548-2.076c0.498,0,1,0.041,1.505,0.121c0.506,0.08,1.066,0.194,1.681,0.341l-0.527,3.296
				c-0.264-0.059-0.583-0.11-0.956-0.154c-0.374-0.044-0.766-0.065-1.176-0.065c-1.26,0-2.197,0.377-2.813,1.132
				c-0.615,0.754-0.923,1.849-0.923,3.284v3.011h4.944v3.208h-4.944v20.566H248.19z"/>
			<path d="M267.636,542.13v5.735h4.504v3.208h-4.504v14.436c0,1.113,0.231,1.897,0.692,2.352c0.462,0.454,1.073,0.681,1.835,0.681
				c0.249,0,0.523-0.029,0.824-0.088c0.3-0.059,0.567-0.132,0.802-0.22l0.571,2.967c-0.322,0.264-0.795,0.479-1.417,0.647
				c-0.623,0.169-1.249,0.253-1.879,0.253c-1.758,0-3.157-0.53-4.197-1.593s-1.56-2.729-1.56-4.999v-14.436h-3.779v-3.208h3.779
				v-5.735H267.636z"/>
			<path d="M280.622,560.302l5.603,8.745h-3.252l-6.482-8.548v-0.417l6.482-8.548h3.252L280.622,560.302z M287.961,560.302
				l5.603,8.745h-3.252l-6.482-8.548v-0.417l6.482-8.548h3.252L287.961,560.302z"/>
			<path d="M302.485,570.585l-3.296,6.724h-2.571l1.538-6.943v-3.582h4.329V570.585z"/>
			<path d="M332.587,565.312c0-0.952-0.362-1.736-1.088-2.352c-0.725-0.615-2.098-1.149-4.12-1.604
				c-2.886-0.629-5.058-1.481-6.515-2.556c-1.458-1.075-2.186-2.541-2.186-4.398c0-1.931,0.82-3.576,2.461-4.937
				s3.779-2.04,6.416-2.04c2.769,0,4.969,0.711,6.603,2.131c1.633,1.421,2.413,3.15,2.34,5.186l-0.044,0.132h-4.131
				c0-1.04-0.436-1.974-1.308-2.802c-0.872-0.827-2.025-1.241-3.46-1.241c-1.538,0-2.681,0.337-3.428,1.011
				s-1.121,1.487-1.121,2.439c0,0.938,0.33,1.678,0.989,2.219c0.659,0.542,2,1.025,4.021,1.45c3.003,0.646,5.237,1.521,6.702,2.626
				c1.465,1.106,2.197,2.59,2.197,4.449c0,2.109-0.854,3.816-2.56,5.12s-3.937,1.955-6.69,1.955c-3.032,0-5.42-0.769-7.163-2.307
				s-2.571-3.333-2.483-5.384l0.044-0.132h4.131c0.073,1.53,0.645,2.649,1.714,3.356s2.322,1.061,3.757,1.061
				c1.538,0,2.743-0.312,3.614-0.934C332.151,567.139,332.587,566.322,332.587,565.312z"/>
			<path d="M346.979,541.778h-4.329v-4.416h4.329V541.778z M346.979,571.64h-4.329v-23.774h4.329V571.64z"/>
			<path d="M363.305,568.695c1.436,0,2.699-0.443,3.791-1.33c1.091-0.886,1.637-1.974,1.637-3.263h3.889l0.044,0.132
				c0.073,2.051-0.839,3.875-2.736,5.472s-4.105,2.395-6.625,2.395c-3.457,0-6.101-1.128-7.932-3.384s-2.747-5.09-2.747-8.503
				v-0.923c0-3.384,0.919-6.207,2.757-8.471s4.479-3.395,7.921-3.395c2.783,0,5.057,0.82,6.823,2.461
				c1.765,1.641,2.618,3.654,2.56,6.042l-0.044,0.132h-3.911c0-1.45-0.513-2.684-1.538-3.702s-2.322-1.527-3.889-1.527
				c-2.271,0-3.893,0.815-4.867,2.447c-0.975,1.632-1.461,3.632-1.461,6.002v0.922c0,2.429,0.483,4.451,1.45,6.068
				C359.394,567.887,361.02,568.695,363.305,568.695z"/>
			<path d="M387.388,572.101c-3.311,0-5.944-1.102-7.9-3.307c-1.955-2.204-2.933-5.064-2.933-8.58v-0.967
				c0-3.384,1.007-6.2,3.021-8.448c2.014-2.249,4.398-3.373,7.152-3.373c3.209,0,5.633,0.967,7.273,2.9s2.461,4.512,2.461,7.734
				v2.702h-15.425l-0.066,0.11c0.044,2.278,0.623,4.152,1.736,5.62c1.112,1.468,2.673,2.202,4.681,2.202
				c1.465,0,2.75-0.209,3.855-0.627c1.105-0.417,2.063-0.992,2.867-1.725l1.693,2.816c-0.852,0.84-1.971,1.54-3.363,2.101
				C391.05,571.82,389.364,572.101,387.388,572.101z M386.728,550.831c-1.449,0-2.688,0.61-3.713,1.829s-1.655,2.748-1.89,4.588
				l0.044,0.109h10.965v-0.569c0-1.694-0.455-3.11-1.363-4.249S388.515,550.831,386.728,550.831z"/>
			<path d="M412.568,551.688l-2.22-0.132c-1.143,0-2.105,0.271-2.89,0.813c-0.783,0.542-1.388,1.305-1.813,2.285v16.985h-4.328
				v-23.774h3.867l0.417,3.472c0.674-1.23,1.505-2.19,2.494-2.879c0.988-0.688,2.127-1.032,3.417-1.032
				c0.321,0,0.629,0.025,0.922,0.076c0.293,0.052,0.535,0.107,0.726,0.165L412.568,551.688z"/>
			<path d="M448.185,560.653c0,3.428-0.82,6.192-2.461,8.294c-1.641,2.103-3.903,3.153-6.789,3.153c-1.465,0-2.75-0.245-3.856-0.735
				c-1.105-0.491-2.047-1.228-2.823-2.209v11.624h-4.328v-32.915h3.317l0.681,3.076c0.776-1.143,1.743-2.014,2.9-2.615
				c1.157-0.601,2.506-0.9,4.043-0.9c2.945,0,5.233,1.168,6.867,3.504c1.633,2.337,2.449,5.424,2.449,9.262V560.653z
				 M443.856,560.181c0-2.692-0.531-4.905-1.593-6.639c-1.063-1.733-2.626-2.601-4.691-2.601c-1.245,0-2.308,0.281-3.187,0.845
				s-1.589,1.335-2.131,2.315v11.477c0.542,0.981,1.252,1.745,2.131,2.294s1.956,0.823,3.23,0.823c2.051,0,3.604-0.75,4.658-2.25
				c1.055-1.499,1.582-3.434,1.582-5.805V560.181z"/>
			<path d="M468.114,571.64c-0.146-0.718-0.26-1.352-0.341-1.901c-0.08-0.549-0.128-1.102-0.143-1.658
				c-0.806,1.143-1.856,2.098-3.153,2.867c-1.296,0.77-2.691,1.153-4.186,1.153c-2.476,0-4.361-0.634-5.658-1.9
				c-1.296-1.267-1.944-3.014-1.944-5.24c0-2.271,0.919-4.047,2.758-5.329c1.838-1.281,4.332-1.922,7.481-1.922h4.702v-2.352
				c0-1.392-0.425-2.494-1.274-3.307s-2.051-1.22-3.604-1.22c-1.392,0-2.523,0.355-3.395,1.065
				c-0.872,0.711-1.308,1.564-1.308,2.561h-4.131l-0.044-0.132c-0.088-1.729,0.729-3.311,2.45-4.746
				c1.721-1.436,3.944-2.153,6.669-2.153c2.694,0,4.862,0.685,6.504,2.055c1.64,1.369,2.461,3.343,2.461,5.921v11.448
				c0,0.85,0.043,1.67,0.131,2.461s0.249,1.567,0.484,2.329H468.114z M460.929,568.453c1.567,0,2.981-0.401,4.241-1.205
				c1.26-0.803,2.08-1.723,2.461-2.761v-3.856h-4.856c-1.743,0-3.138,0.438-4.186,1.314c-1.047,0.877-1.57,1.906-1.57,3.09
				c0,1.052,0.329,1.885,0.988,2.498S459.64,568.453,460.929,568.453z"/>
			<path d="M500.679,551.688l-2.22-0.132c-1.143,0-2.105,0.271-2.89,0.813c-0.783,0.542-1.388,1.305-1.813,2.285v16.985h-4.328
				v-23.774h3.867l0.417,3.472c0.674-1.23,1.505-2.19,2.494-2.879c0.988-0.688,2.127-1.032,3.417-1.032
				c0.321,0,0.629,0.025,0.922,0.076c0.293,0.052,0.535,0.107,0.726,0.165L500.679,551.688z"/>
			<path d="M519.465,571.64c-0.146-0.718-0.26-1.352-0.341-1.901c-0.08-0.549-0.128-1.102-0.143-1.658
				c-0.806,1.143-1.856,2.098-3.153,2.867c-1.296,0.77-2.691,1.153-4.186,1.153c-2.476,0-4.361-0.634-5.658-1.9
				c-1.296-1.267-1.944-3.014-1.944-5.24c0-2.271,0.919-4.047,2.758-5.329c1.838-1.281,4.332-1.922,7.481-1.922h4.702v-2.352
				c0-1.392-0.425-2.494-1.274-3.307s-2.051-1.22-3.604-1.22c-1.392,0-2.523,0.355-3.395,1.065
				c-0.872,0.711-1.308,1.564-1.308,2.561h-4.131l-0.044-0.132c-0.088-1.729,0.729-3.311,2.45-4.746
				c1.721-1.436,3.944-2.153,6.669-2.153c2.694,0,4.862,0.685,6.504,2.055c1.64,1.369,2.461,3.343,2.461,5.921v11.448
				c0,0.85,0.043,1.67,0.131,2.461s0.249,1.567,0.484,2.329H519.465z M512.279,568.453c1.567,0,2.981-0.401,4.241-1.205
				c1.26-0.803,2.08-1.723,2.461-2.761v-3.856h-4.856c-1.743,0-3.138,0.438-4.186,1.314c-1.047,0.877-1.57,1.906-1.57,3.09
				c0,1.052,0.329,1.885,0.988,2.498S510.99,568.453,512.279,568.453z"/>
			<path d="M537.196,564.63l0.373,1.67h0.133l0.417-1.67l5.472-16.765h4.416l-8.745,23.774h-3.274l-8.854-23.774h4.438
				L537.196,564.63z"/>
			<path d="M555.765,547.865l0.307,3.537c0.791-1.26,1.784-2.237,2.978-2.934c1.194-0.695,2.553-1.043,4.076-1.043
				c2.563,0,4.548,0.75,5.954,2.252s2.109,3.82,2.109,6.954v15.008h-4.328v-14.92c0-2.095-0.414-3.581-1.241-4.46
				c-0.828-0.879-2.092-1.318-3.79-1.318c-1.246,0-2.348,0.3-3.308,0.9c-0.959,0.602-1.725,1.421-2.296,2.461v17.337h-4.328v-23.774
				H555.765z"/>
			<path d="M576.462,559.532c0-3.516,0.952-6.412,2.857-8.69c1.903-2.277,4.489-3.416,7.756-3.416c3.296,0,5.899,1.135,7.812,3.405
				c1.911,2.271,2.867,5.171,2.867,8.701v0.483c0,3.545-0.952,6.445-2.856,8.701s-4.497,3.384-7.778,3.384s-5.878-1.132-7.789-3.395
				c-1.912-2.263-2.868-5.16-2.868-8.69V559.532z M580.791,560.005c0,2.517,0.531,4.594,1.593,6.232
				c1.063,1.639,2.641,2.458,4.735,2.458c2.065,0,3.633-0.819,4.702-2.458s1.604-3.716,1.604-6.232v-0.483
				c0-2.486-0.538-4.557-1.614-6.211c-1.077-1.652-2.655-2.479-4.735-2.479c-2.065,0-3.629,0.827-4.691,2.479
				c-1.062,1.654-1.593,3.725-1.593,6.211V560.005z"/>
			<path d="M613.222,559.532c0-3.516,0.952-6.412,2.857-8.69c1.903-2.277,4.489-3.416,7.756-3.416c3.296,0,5.899,1.135,7.812,3.405
				c1.911,2.271,2.867,5.171,2.867,8.701v0.483c0,3.545-0.952,6.445-2.856,8.701s-4.497,3.384-7.778,3.384s-5.878-1.132-7.789-3.395
				c-1.912-2.263-2.868-5.16-2.868-8.69V559.532z M617.551,560.005c0,2.517,0.531,4.594,1.593,6.232
				c1.063,1.639,2.641,2.458,4.735,2.458c2.065,0,3.633-0.819,4.702-2.458s1.604-3.716,1.604-6.232v-0.483
				c0-2.486-0.538-4.557-1.614-6.211c-1.077-1.652-2.655-2.479-4.735-2.479c-2.065,0-3.629,0.827-4.691,2.479
				c-1.062,1.654-1.593,3.725-1.593,6.211V560.005z"/>
			<path d="M660.112,560.653c0,3.428-0.824,6.192-2.473,8.294c-1.647,2.103-3.915,3.153-6.801,3.153
				c-1.567,0-2.93-0.304-4.086-0.911c-1.158-0.608-2.117-1.506-2.879-2.692l-0.527,3.143h-3.537v-34.277h4.328v13.315
				c0.747-1.055,1.674-1.86,2.779-2.417c1.106-0.557,2.398-0.835,3.879-0.835c2.929,0,5.214,1.172,6.855,3.516
				c1.64,2.344,2.461,5.427,2.461,9.25V560.653z M655.783,560.191c0-2.725-0.502-4.947-1.505-6.668
				c-1.004-1.722-2.531-2.582-4.582-2.582c-1.333,0-2.457,0.326-3.372,0.978c-0.916,0.651-1.645,1.527-2.187,2.626v10.305
				c0.557,1.172,1.285,2.088,2.187,2.747c0.9,0.659,2.039,0.988,3.417,0.988c2.035,0,3.552-0.725,4.548-2.175
				s1.494-3.369,1.494-5.757V560.191z"/>
			<path d="M676.636,551.688l-2.22-0.132c-1.143,0-2.105,0.271-2.89,0.813c-0.783,0.542-1.388,1.305-1.813,2.285v16.985h-4.328
				v-23.774h3.867l0.417,3.472c0.674-1.23,1.505-2.19,2.494-2.879c0.988-0.688,2.127-1.032,3.417-1.032
				c0.321,0,0.629,0.025,0.922,0.076c0.293,0.052,0.535,0.107,0.726,0.165L676.636,551.688z"/>
			<path d="M695.423,571.64c-0.146-0.718-0.26-1.352-0.341-1.901c-0.08-0.549-0.128-1.102-0.143-1.658
				c-0.806,1.143-1.856,2.098-3.153,2.867c-1.296,0.77-2.691,1.153-4.186,1.153c-2.476,0-4.361-0.634-5.658-1.9
				c-1.296-1.267-1.944-3.014-1.944-5.24c0-2.271,0.919-4.047,2.758-5.329c1.838-1.281,4.332-1.922,7.481-1.922h4.702v-2.352
				c0-1.392-0.425-2.494-1.274-3.307s-2.051-1.22-3.604-1.22c-1.392,0-2.523,0.355-3.395,1.065
				c-0.872,0.711-1.308,1.564-1.308,2.561h-4.131l-0.044-0.132c-0.088-1.729,0.729-3.311,2.45-4.746
				c1.721-1.436,3.944-2.153,6.669-2.153c2.694,0,4.862,0.685,6.504,2.055c1.64,1.369,2.461,3.343,2.461,5.921v11.448
				c0,0.85,0.043,1.67,0.131,2.461s0.249,1.567,0.484,2.329H695.423z M688.237,568.453c1.567,0,2.981-0.401,4.241-1.205
				c1.26-0.803,2.08-1.723,2.461-2.761v-3.856h-4.856c-1.743,0-3.138,0.438-4.186,1.314c-1.047,0.877-1.57,1.906-1.57,3.09
				c0,1.052,0.329,1.885,0.988,2.498S686.948,568.453,688.237,568.453z"/>
			<path d="M711.265,542.13v5.735h4.504v3.208h-4.504v14.436c0,1.113,0.23,1.897,0.691,2.352c0.462,0.454,1.073,0.681,1.835,0.681
				c0.249,0,0.523-0.029,0.824-0.088c0.3-0.059,0.567-0.132,0.802-0.22l0.571,2.967c-0.322,0.264-0.795,0.479-1.417,0.647
				c-0.623,0.169-1.249,0.253-1.879,0.253c-1.758,0-3.157-0.53-4.197-1.593s-1.56-2.729-1.56-4.999v-14.436h-3.779v-3.208h3.779
				v-5.735H711.265z"/>
			<path d="M724.976,547.865l0.307,3.537c0.791-1.26,1.784-2.237,2.978-2.934c1.194-0.695,2.553-1.043,4.076-1.043
				c2.563,0,4.548,0.75,5.954,2.252s2.109,3.82,2.109,6.954v15.008h-4.328v-14.92c0-2.095-0.414-3.581-1.241-4.46
				c-0.828-0.879-2.092-1.318-3.79-1.318c-1.246,0-2.348,0.3-3.308,0.9c-0.959,0.602-1.725,1.421-2.296,2.461v17.337h-4.328v-23.774
				H724.976z"/>
			<path d="M745.673,559.532c0-3.516,0.952-6.412,2.857-8.69c1.903-2.277,4.489-3.416,7.756-3.416c3.296,0,5.899,1.135,7.812,3.405
				c1.911,2.271,2.867,5.171,2.867,8.701v0.483c0,3.545-0.952,6.445-2.856,8.701s-4.497,3.384-7.778,3.384s-5.878-1.132-7.789-3.395
				c-1.912-2.263-2.868-5.16-2.868-8.69V559.532z M750.002,560.005c0,2.517,0.531,4.594,1.593,6.232
				c1.063,1.639,2.641,2.458,4.735,2.458c2.065,0,3.633-0.819,4.702-2.458s1.604-3.716,1.604-6.232v-0.483
				c0-2.486-0.538-4.557-1.614-6.211c-1.077-1.652-2.655-2.479-4.735-2.479c-2.065,0-3.629,0.827-4.691,2.479
				c-1.062,1.654-1.593,3.725-1.593,6.211V560.005z"/>
			<path d="M776.984,571.64h-4.329v-4.482h4.329V571.64z"/>
		</g>
	</g>
	<g>
		<g>
			<path fill="#32BCAD" d="M183.653,130.197h-9.42l-12.659-41.459h8.52l9,34.439l8.76-34.439h8.1L183.653,130.197z"/>
			<path fill="#32BCAD" d="M224.152,116.697h-19.919c0.6,6.48,3.6,8.58,7.8,8.58c2.82,0,5.16-0.9,7.919-2.82l3.18,4.38
				c-3.12,2.521-6.96,4.261-11.76,4.261c-9.839,0-15.119-6.54-15.119-16.56c0-9.66,5.1-16.979,14.099-16.979
				c8.88,0,13.979,6,13.979,16.02C224.332,114.598,224.212,115.857,224.152,116.697z M216.712,111.357
				c0-5.219-1.86-8.339-6.18-8.339c-3.6,0-5.88,2.399-6.3,8.699h12.479V111.357z"/>
			<path fill="#32BCAD" d="M231.112,122.938V85.739l7.68-0.841v37.799c0,1.5,0.54,2.22,1.8,2.22c0.72,0,1.26-0.12,1.8-0.3l1.62,5.4
				c-1.32,0.6-3.12,1.08-5.1,1.08C234.052,131.098,231.112,128.157,231.112,122.938z"/>
			<path fill="#32BCAD" d="M257.752,87.059c0,2.58-1.98,4.62-4.86,4.62c-2.82,0-4.8-2.04-4.8-4.62c0-2.64,1.98-4.68,4.8-4.68
				C255.772,82.379,257.752,84.419,257.752,87.059z M256.792,130.197h-7.68V98.459h7.68V130.197z"/>
			<path fill="#32BCAD" d="M273.712,130.197h-7.68V85.739l7.68-0.841V130.197z M282.172,112.438l11.58,17.76h-8.82l-10.919-17.34
				l10.62-14.398h8.1L282.172,112.438z"/>
			<path fill="#32BCAD" d="M323.631,125.877l-1.62,5.1c-3.48-0.3-5.76-1.499-7.02-4.619c-2.22,3.359-5.7,4.74-9.48,4.74
				c-6.36,0-10.259-4.021-10.259-9.78c0-6.899,5.22-10.619,14.459-10.619h3.96v-1.8c0-4.141-1.86-5.521-5.939-5.521
				c-2.16,0-5.22,0.601-8.4,1.681l-1.8-5.221c3.9-1.5,7.919-2.279,11.52-2.279c8.459,0,12.179,3.899,12.179,10.92v13.319
				C321.231,124.377,322.071,125.277,323.631,125.877z M313.671,121.617v-6.42h-3.18c-4.98,0-7.44,1.801-7.44,5.521
				c0,3.06,1.56,4.8,4.5,4.8C310.251,125.518,312.231,124.138,313.671,121.617z"/>
			<path fill="#32BCAD" d="M366.17,103.979l-15.359,20.219h15.66l-0.78,6h-23.699v-5.52l15.419-20.22h-14.1v-5.999h22.859V103.979z"
				/>
			<path fill="#32BCAD" d="M398.33,125.877l-1.62,5.1c-3.48-0.3-5.76-1.499-7.02-4.619c-2.22,3.359-5.7,4.74-9.479,4.74
				c-6.359,0-10.259-4.021-10.259-9.78c0-6.899,5.22-10.619,14.459-10.619h3.959v-1.8c0-4.141-1.86-5.521-5.939-5.521
				c-2.16,0-5.22,0.601-8.4,1.681l-1.8-5.221c3.9-1.5,7.919-2.279,11.52-2.279c8.459,0,12.18,3.899,12.18,10.92v13.319
				C395.93,124.377,396.77,125.277,398.33,125.877z M388.37,121.617v-6.42h-3.18c-4.98,0-7.44,1.801-7.44,5.521
				c0,3.06,1.56,4.8,4.5,4.8C384.95,125.518,386.93,124.138,388.37,121.617z"/>
			<path fill="#32BCAD" d="M428.329,101.278l-3.42,4.62c-2.1-1.561-4.02-2.28-6.419-2.28c-4.44,0-7.14,3.24-7.14,10.859
				c0,7.68,2.82,10.38,7.14,10.38c2.4,0,4.08-0.78,6.419-2.28l3.42,4.86c-2.88,2.34-6.18,3.66-10.259,3.66
				c-9.18,0-14.879-6.36-14.879-16.5s5.7-17.039,14.819-17.039C422.149,97.559,425.33,98.698,428.329,101.278z M428.749,85.559
				l-8.279,7.5h-4.86l-8.34-7.5l2.94-3.359l7.8,5.279l7.799-5.279L428.749,85.559z"/>
			<path fill="#32BCAD" d="M459.169,116.697H439.25c0.6,6.48,3.6,8.58,7.8,8.58c2.82,0,5.16-0.9,7.919-2.82l3.18,4.38
				c-3.12,2.521-6.96,4.261-11.76,4.261c-9.839,0-15.119-6.54-15.119-16.56c0-9.66,5.1-16.979,14.099-16.979
				c8.88,0,13.979,6,13.979,16.02C459.349,114.598,459.229,115.857,459.169,116.697z M451.729,111.357
				c0-5.219-1.86-8.339-6.18-8.339c-3.6,0-5.88,2.399-6.3,8.699h12.479V111.357z"/>
			<path fill="#32BCAD" d="M484.609,128.697c-2.28,1.62-5.16,2.4-7.98,2.4c-6.24-0.061-9.54-3.601-9.54-10.38v-16.739h-4.98v-5.52
				h4.98v-7.021l7.68-0.899v7.92h7.38l-0.78,5.52h-6.6v16.559c0,3.12,1.02,4.38,3.36,4.38c1.2,0,2.4-0.359,3.78-1.199
				L484.609,128.697z"/>
			<path fill="#32BCAD" d="M514.848,107.218v22.979h-7.68v-21.779c0-3.96-1.5-5.1-3.899-5.1c-2.76,0-4.8,1.859-6.66,4.8v22.079
				h-7.68V98.459h6.66l0.6,4.199c2.46-3.18,5.64-5.1,9.66-5.1C511.548,97.559,514.848,101.158,514.848,107.218z"/>
			<path fill="#32BCAD" d="M532.428,87.059c0,2.58-1.979,4.62-4.859,4.62c-2.82,0-4.8-2.04-4.8-4.62c0-2.64,1.979-4.68,4.8-4.68
				C530.449,82.379,532.428,84.419,532.428,87.059z M531.468,130.197h-7.68V98.459h7.68V130.197z"/>
			<path fill="#32BCAD" d="M563.808,101.278l-3.42,4.62c-2.1-1.561-4.02-2.28-6.419-2.28c-4.44,0-7.14,3.24-7.14,10.859
				c0,7.68,2.82,10.38,7.14,10.38c2.4,0,4.08-0.78,6.419-2.28l3.42,4.86c-2.88,2.34-6.18,3.66-10.259,3.66
				c-9.18,0-14.879-6.36-14.879-16.5s5.7-17.039,14.819-17.039C557.628,97.559,560.808,98.698,563.808,101.278z"/>
			<path fill="#32BCAD" d="M595.248,125.877l-1.62,5.1c-3.48-0.3-5.76-1.499-7.02-4.619c-2.22,3.359-5.7,4.74-9.48,4.74
				c-6.36,0-10.259-4.021-10.259-9.78c0-6.899,5.22-10.619,14.459-10.619h3.96v-1.8c0-4.141-1.86-5.521-5.939-5.521
				c-2.16,0-5.22,0.601-8.4,1.681l-1.8-5.221c3.9-1.5,7.919-2.279,11.52-2.279c8.459,0,12.179,3.899,12.179,10.92v13.319
				C592.847,124.377,593.688,125.277,595.248,125.877z M585.288,121.617v-6.42h-3.18c-4.98,0-7.44,1.801-7.44,5.521
				c0,3.06,1.56,4.8,4.5,4.8C581.868,125.518,583.848,124.138,585.288,121.617z"/>
		</g>
	</g>
	
		<use xlink:href="#naprej"  width="21.572" height="21.572" id="XMLID_6_" x="-4.422" y="-10.786" transform="matrix(2.8293 0 0 -2.8293 1838.334 1014.4453)" overflow="visible"/>
	
		<use xlink:href="#naprej"  width="21.572" height="21.572" id="XMLID_5_" x="-4.422" y="-10.786" transform="matrix(-2.8293 0 0 2.8293 81.666 1014.4453)" overflow="visible"/>
	<g>
		
			<line fill="none" stroke="#000000" stroke-width="2" stroke-miterlimit="10" x1="1840.299" y1="66.922" x2="1872.185" y2="35.037"/>
		
			<line fill="none" stroke="#000000" stroke-width="2" stroke-miterlimit="10" x1="1840.299" y1="35.037" x2="1872.185" y2="66.922"/>
	</g>
</g>
<g id="mreza">
</g>
<g id="Layer_1">
</g>
<g id="glava">
</g>
<g id="UITELJ">
</g>
<g id="crta_x5F_maska">
	<g>
		<g>
			<rect x="161.574" y="197.229" fill="#35A8DF" width="6.237" height="6.236"/>
			<rect x="177.011" y="197.229" fill="#203341" width="6.237" height="6.236"/>
			<rect x="192.447" y="197.229" fill="#32BCAD" width="6.237" height="6.236"/>
			<rect x="207.884" y="197.229" fill="#FBD639" width="6.237" height="6.236"/>
			<rect x="223.32" y="197.229" fill="#35A8DF" width="6.237" height="6.236"/>
			<rect x="238.757" y="197.229" fill="#203341" width="6.237" height="6.236"/>
			<rect x="254.193" y="197.229" fill="#32BCAD" width="6.238" height="6.236"/>
			<rect x="269.629" y="197.229" fill="#FBD639" width="6.238" height="6.236"/>
			<rect x="285.065" y="197.229" fill="#35A8DF" width="6.237" height="6.236"/>
			<rect x="300.502" y="197.229" fill="#203341" width="6.238" height="6.236"/>
			<rect x="315.939" y="197.229" fill="#32BCAD" width="6.236" height="6.236"/>
			<rect x="331.375" y="197.229" fill="#FBD639" width="6.238" height="6.236"/>
			<rect x="344.988" y="197.229" fill="#35A8DF" width="6.238" height="6.236"/>
			<rect x="360.426" y="197.229" fill="#203341" width="6.238" height="6.236"/>
			<rect x="375.862" y="197.229" fill="#32BCAD" width="6.237" height="6.236"/>
			<rect x="391.299" y="197.229" fill="#FBD639" width="6.236" height="6.236"/>
			<rect x="406.734" y="197.229" fill="#35A8DF" width="6.238" height="6.236"/>
			<rect x="422.172" y="197.229" fill="#203341" width="6.237" height="6.236"/>
			<rect x="437.607" y="197.229" fill="#32BCAD" width="6.238" height="6.236"/>
			<rect x="453.045" y="197.229" fill="#FBD639" width="6.236" height="6.236"/>
			<rect x="468.48" y="197.229" fill="#35A8DF" width="6.238" height="6.236"/>
			<rect x="483.918" y="197.229" fill="#203341" width="6.236" height="6.236"/>
			<rect x="499.354" y="197.229" fill="#32BCAD" width="6.238" height="6.236"/>
			<rect x="514.79" y="197.229" fill="#FBD639" width="6.238" height="6.236"/>
			<rect x="530.227" y="197.229" fill="#35A8DF" width="6.238" height="6.236"/>
			<rect x="545.663" y="197.229" fill="#203341" width="6.237" height="6.236"/>
			<rect x="561.1" y="197.229" fill="#32BCAD" width="6.238" height="6.236"/>
			<rect x="576.537" y="197.229" fill="#FBD639" width="6.236" height="6.236"/>
			<rect x="591.973" y="197.229" fill="#35A8DF" width="6.238" height="6.236"/>
			<rect x="607.409" y="197.229" fill="#203341" width="6.237" height="6.236"/>
			<rect x="622.846" y="197.229" fill="#32BCAD" width="6.238" height="6.236"/>
			<rect x="638.282" y="197.229" fill="#FBD639" width="6.237" height="6.236"/>
			<rect x="651.896" y="197.229" fill="#35A8DF" width="6.237" height="6.236"/>
			<rect x="667.332" y="197.229" fill="#203341" width="6.238" height="6.236"/>
			<rect x="682.77" y="197.229" fill="#32BCAD" width="6.237" height="6.236"/>
			<rect x="698.205" y="197.229" fill="#FBD639" width="6.237" height="6.236"/>
			<rect x="713.643" y="197.229" fill="#35A8DF" width="6.236" height="6.236"/>
			<rect x="729.078" y="197.229" fill="#203341" width="6.237" height="6.236"/>
			<rect x="744.516" y="197.229" fill="#32BCAD" width="6.236" height="6.236"/>
			<rect x="759.951" y="197.229" fill="#FBD639" width="6.238" height="6.236"/>
			<rect x="775.387" y="197.229" fill="#35A8DF" width="6.238" height="6.236"/>
			<rect x="790.824" y="197.229" fill="#203341" width="6.238" height="6.236"/>
			<rect x="806.26" y="197.229" fill="#32BCAD" width="6.238" height="6.236"/>
			<rect x="821.697" y="197.229" fill="#FBD639" width="6.238" height="6.236"/>
			<rect x="837.133" y="197.229" fill="#35A8DF" width="6.238" height="6.236"/>
			<rect x="852.57" y="197.229" fill="#203341" width="6.236" height="6.236"/>
			<rect x="868.006" y="197.229" fill="#32BCAD" width="6.238" height="6.236"/>
			<rect x="883.442" y="197.229" fill="#FBD639" width="6.237" height="6.236"/>
			<rect x="898.879" y="197.229" fill="#35A8DF" width="6.238" height="6.236"/>
			<rect x="914.315" y="197.229" fill="#203341" width="6.237" height="6.236"/>
			<rect x="929.752" y="197.229" fill="#32BCAD" width="6.238" height="6.236"/>
			<rect x="945.189" y="197.229" fill="#FBD639" width="6.236" height="6.236"/>
		</g>
		<g>
			<rect x="961.434" y="197.229" fill="#35A8DF" width="6.238" height="6.236"/>
			<rect x="976.871" y="197.229" fill="#203341" width="6.236" height="6.236"/>
			<rect x="992.307" y="197.229" fill="#32BCAD" width="6.238" height="6.236"/>
			<rect x="1007.743" y="197.229" fill="#FBD639" width="6.237" height="6.236"/>
			<rect x="1023.18" y="197.229" fill="#35A8DF" width="6.238" height="6.236"/>
			<rect x="1038.616" y="197.229" fill="#203341" width="6.237" height="6.236"/>
			<rect x="1054.053" y="197.229" fill="#32BCAD" width="6.238" height="6.236"/>
			<rect x="1069.488" y="197.229" fill="#FBD639" width="6.238" height="6.236"/>
			<rect x="1084.926" y="197.229" fill="#35A8DF" width="6.237" height="6.236"/>
			<rect x="1100.362" y="197.229" fill="#203341" width="6.237" height="6.236"/>
			<rect x="1115.799" y="197.229" fill="#32BCAD" width="6.236" height="6.236"/>
			<rect x="1131.234" y="197.229" fill="#FBD639" width="6.238" height="6.236"/>
			<rect x="1146.672" y="197.229" fill="#35A8DF" width="6.237" height="6.236"/>
			<rect x="1162.107" y="197.229" fill="#203341" width="6.238" height="6.236"/>
			<rect x="1177.545" y="197.229" fill="#32BCAD" width="6.237" height="6.236"/>
			<rect x="1192.98" y="197.229" fill="#FBD639" width="6.238" height="6.236"/>
			<rect x="1208.418" y="197.229" fill="#35A8DF" width="6.236" height="6.236"/>
			<rect x="1223.854" y="197.229" fill="#203341" width="6.238" height="6.236"/>
			<rect x="1239.289" y="197.229" fill="#32BCAD" width="6.238" height="6.236"/>
			<rect x="1254.727" y="197.229" fill="#FBD639" width="6.238" height="6.236"/>
			<rect x="1268.341" y="197.229" fill="#35A8DF" width="6.237" height="6.236"/>
			<rect x="1283.777" y="197.229" fill="#203341" width="6.237" height="6.236"/>
			<rect x="1299.213" y="197.229" fill="#32BCAD" width="6.238" height="6.236"/>
			<rect x="1314.65" y="197.229" fill="#FBD639" width="6.237" height="6.236"/>
			<rect x="1330.086" y="197.229" fill="#35A8DF" width="6.238" height="6.236"/>
			<rect x="1345.523" y="197.229" fill="#203341" width="6.237" height="6.236"/>
			<rect x="1360.959" y="197.229" fill="#32BCAD" width="6.238" height="6.236"/>
			<rect x="1376.396" y="197.229" fill="#FBD639" width="6.236" height="6.236"/>
			<rect x="1391.832" y="197.229" fill="#35A8DF" width="6.238" height="6.236"/>
			<rect x="1407.27" y="197.229" fill="#203341" width="6.236" height="6.236"/>
			<rect x="1422.705" y="197.229" fill="#32BCAD" width="6.238" height="6.236"/>
			<rect x="1438.141" y="197.229" fill="#FBD639" width="6.238" height="6.236"/>
			<rect x="1453.578" y="197.229" fill="#35A8DF" width="6.238" height="6.236"/>
			<rect x="1469.014" y="197.229" fill="#203341" width="6.238" height="6.236"/>
			<rect x="1484.451" y="197.229" fill="#32BCAD" width="6.238" height="6.236"/>
			<rect x="1499.889" y="197.229" fill="#FBD639" width="6.236" height="6.236"/>
			<rect x="1515.324" y="197.229" fill="#35A8DF" width="6.238" height="6.236"/>
			<rect x="1530.76" y="197.229" fill="#203341" width="6.238" height="6.236"/>
			<rect x="1546.197" y="197.229" fill="#32BCAD" width="6.238" height="6.236"/>
			<rect x="1561.633" y="197.229" fill="#FBD639" width="6.238" height="6.236"/>
			<rect x="1575.247" y="197.229" fill="#35A8DF" width="6.237" height="6.236"/>
			<rect x="1590.684" y="197.229" fill="#203341" width="6.238" height="6.236"/>
			<rect x="1606.119" y="197.229" fill="#32BCAD" width="6.238" height="6.236"/>
			<rect x="1621.557" y="197.229" fill="#FBD639" width="6.237" height="6.236"/>
			<rect x="1636.993" y="197.229" fill="#35A8DF" width="6.237" height="6.236"/>
			<rect x="1652.43" y="197.229" fill="#203341" width="6.237" height="6.236"/>
			<rect x="1667.866" y="197.229" fill="#32BCAD" width="6.237" height="6.236"/>
			<rect x="1683.303" y="197.229" fill="#FBD639" width="6.236" height="6.236"/>
			<rect x="1698.738" y="197.229" fill="#35A8DF" width="6.238" height="6.236"/>
			<rect x="1714.176" y="197.229" fill="#203341" width="6.237" height="6.236"/>
			<rect x="1729.611" y="197.229" fill="#32BCAD" width="6.238" height="6.236"/>
			<rect x="1745.049" y="197.229" fill="#FBD639" width="6.237" height="6.236"/>
		</g>
	</g>
</g>
</svg>
