<?xml version="1.0" encoding="utf-8"?>
<!-- Generator: Adobe Illustrator 16.0.0, SVG Export Plug-In . SVG Version: 6.00 Build 0)  -->
<!DOCTYPE svg PUBLIC "-//W3C//DTD SVG 1.1//EN" "http://www.w3.org/Graphics/SVG/1.1/DTD/svg11.dtd">
<svg version="1.1" xmlns="http://www.w3.org/2000/svg" xmlns:xlink="http://www.w3.org/1999/xlink" x="0px" y="0px" width="1920px"
	 height="1080px" viewBox="0 0 1920 1080" enable-background="new 0 0 1920 1080" xml:space="preserve">
<symbol  id="naprej" viewBox="-4.422 -10.786 21.572 21.572">
	<polygon fill="#32BCAD" points="17.15,-10.786 -4.422,-10.786 -4.422,10.786 17.15,10.786 	"/>
	<polyline fill="none" stroke="#FFFFFF" stroke-width="1.1354" stroke-miterlimit="10" points="4.773,3.182 7.955,0 4.773,-3.182 	
		"/>
</symbol>
<g id="Layer_8">
</g>
<g id="Layer_6">
</g>
<g id="gb">
	<rect y="-1.293" fill="#32BCAD" width="1920" height="751.26"/>
	<g>
		
			<line fill="none" stroke="#000000" stroke-width="2" stroke-miterlimit="10" x1="1840.299" y1="66.922" x2="1872.185" y2="35.037"/>
		
			<line fill="none" stroke="#000000" stroke-width="2" stroke-miterlimit="10" x1="1840.299" y1="35.037" x2="1872.185" y2="66.922"/>
	</g>
	<g>
		<rect x="377.35" y="257.198" opacity="0.3" fill="#FFFFFF" width="1163.301" height="405.802"/>
		<g>
			<g>
				<g>
					<path fill-rule="evenodd" clip-rule="evenodd" fill="#010000" d="M1523.108,645.621c0,0.742-0.606,1.349-1.348,1.349h-114.635
						c-0.742,0-1.348-0.606-1.348-1.349v-63.248c0-0.741,0.606-1.348,1.348-1.348h114.635c0.742,0,1.348,0.606,1.348,1.348V645.621z
						"/>
				</g>
				<g>
					<path fill-rule="evenodd" clip-rule="evenodd" fill="#010000" d="M512.223,645.621c0,0.742-0.606,1.349-1.348,1.349H396.241
						c-0.742,0-1.348-0.606-1.348-1.349v-63.248c0-0.741,0.606-1.348,1.348-1.348h114.634c0.742,0,1.348,0.606,1.348,1.348V645.621z
						"/>
				</g>
				<g>
					<path fill-rule="evenodd" clip-rule="evenodd" fill="#010000" d="M1523.108,568.895c0,0.741-0.606,1.348-1.348,1.348h-177.24
						c-0.742,0-1.348-0.606-1.348-1.348v-63.248c0-0.741,0.606-1.348,1.348-1.348h177.24c0.742,0,1.348,0.606,1.348,1.348V568.895z"
						/>
				</g>
				<g>
					<path fill-rule="evenodd" clip-rule="evenodd" fill="#010000" d="M1332.229,568.895c0,0.741-0.606,1.348-1.348,1.348h-63.244
						c-0.742,0-1.348-0.606-1.348-1.348v-63.248c0-0.741,0.606-1.348,1.348-1.348h63.244c0.742,0,1.348,0.606,1.348,1.348V568.895z"
						/>
				</g>
				<g>
					<path fill-rule="evenodd" clip-rule="evenodd" fill="#010000" d="M631.021,568.895c0,0.741-0.606,1.348-1.348,1.348H566.42
						c-0.742,0-1.348-0.606-1.348-1.348v-63.248c0-0.741,0.606-1.348,1.348-1.348h63.252c0.742,0,1.348,0.606,1.348,1.348V568.895z"
						/>
				</g>
				<g>
					<path fill-rule="evenodd" clip-rule="evenodd" fill="#010000" d="M553.37,568.895c0,0.741-0.606,1.348-1.348,1.348h-63.25
						c-0.742,0-1.348-0.606-1.348-1.348v-63.248c0-0.741,0.606-1.348,1.348-1.348h63.25c0.742,0,1.348,0.606,1.348,1.348V568.895z"
						/>
				</g>
				<g>
					<path fill-rule="evenodd" clip-rule="evenodd" fill="#010000" d="M455.244,504.299c-0.742,0-1.955,0-2.696,0h-42.026
						c-0.742,0-1.955,0-2.696,0h-11.584c-0.742,0-1.348,0.606-1.348,1.348v63.248c0,0.741,0.606,1.348,1.348,1.348h11.584
						c0.742,0,1.955,0,2.696,0h42.026c0.742,0,1.955,0,2.696,0h18.529c0.742,0,1.348-0.606,1.348-1.348v-63.248
						c0-0.741-0.606-1.348-1.348-1.348H455.244z"/>
				</g>
				<g>
					<path fill-rule="evenodd" clip-rule="evenodd" fill="#010000" d="M1462.143,490.463c0,0.741-0.606,1.348-1.348,1.348h-63.251
						c-0.742,0-1.348-0.606-1.348-1.348v-63.248c0-0.741,0.606-1.348,1.348-1.348h63.251c0.742,0,1.348,0.606,1.348,1.348V490.463z"
						/>
				</g>
				<g>
					<path fill-rule="evenodd" clip-rule="evenodd" fill="#010000" d="M1384.324,490.463c0,0.741-0.606,1.348-1.348,1.348h-63.249
						c-0.742,0-1.348-0.606-1.348-1.348v-63.248c0-0.741,0.606-1.348,1.348-1.348h63.249c0.742,0,1.348,0.606,1.348,1.348V490.463z"
						/>
				</g>
				<g>
					<path fill-rule="evenodd" clip-rule="evenodd" fill="#010000" d="M1306.404,490.463c0,0.741-0.606,1.348-1.348,1.348h-63.249
						c-0.742,0-1.348-0.606-1.348-1.348v-63.248c0-0.741,0.606-1.348,1.348-1.348h63.249c0.742,0,1.348,0.606,1.348,1.348V490.463z"
						/>
				</g>
				<g>
					<path fill-rule="evenodd" clip-rule="evenodd" fill="#010000" d="M605.19,490.463c0,0.741-0.606,1.348-1.348,1.348H540.6
						c-0.742,0-1.348-0.606-1.348-1.348v-63.248c0-0.741,0.606-1.348,1.348-1.348h63.242c0.742,0,1.348,0.606,1.348,1.348V490.463z"
						/>
				</g>
				<g>
					<path fill-rule="evenodd" clip-rule="evenodd" fill="#010000" d="M527.278,490.463c0,0.741-0.606,1.348-1.348,1.348H396.241
						c-0.742,0-1.348-0.606-1.348-1.348v-63.248c0-0.741,0.606-1.348,1.348-1.348H525.93c0.742,0,1.348,0.606,1.348,1.348V490.463z"
						/>
				</g>
				<g>
					<path fill-rule="evenodd" clip-rule="evenodd" fill="#010000" d="M1458.512,348.525c-0.742,0-1.348,0.606-1.348,1.348v63.247
						c0,0.741,0.606,1.348,1.348,1.348h14.237c0.742,0,1.348,0.606,1.348,1.348v74.647c0,0.741,0.606,1.348,1.348,1.348h46.314
						c0.742,0,1.348-0.606,1.348-1.348v-74.647c0-0.741,0-1.954,0-2.695v-13.483c0-0.741,0-1.954,0-2.695v-47.068
						c0-0.741-0.606-1.348-1.348-1.348H1458.512z"/>
				</g>
				<g>
					<path fill-rule="evenodd" clip-rule="evenodd" fill="#010000" d="M1446.229,413.12c0,0.741-0.606,1.348-1.348,1.348h-63.247
						c-0.742,0-1.348-0.606-1.348-1.348v-63.247c0-0.741,0.606-1.348,1.348-1.348h63.247c0.742,0,1.348,0.606,1.348,1.348V413.12z"
						/>
				</g>
				<g>
					<path fill-rule="evenodd" clip-rule="evenodd" fill="#010000" d="M1368.311,413.12c0,0.741-0.606,1.348-1.348,1.348h-63.245
						c-0.742,0-1.348-0.606-1.348-1.348v-63.247c0-0.741,0.606-1.348,1.348-1.348h63.245c0.742,0,1.348,0.606,1.348,1.348V413.12z"
						/>
				</g>
				<g>
					<path fill-rule="evenodd" clip-rule="evenodd" fill="#010000" d="M1290.391,413.12c0,0.741-0.606,1.348-1.348,1.348h-63.247
						c-0.742,0-1.348-0.606-1.348-1.348v-63.247c0-0.741,0.606-1.348,1.348-1.348h63.247c0.742,0,1.348,0.606,1.348,1.348V413.12z"
						/>
				</g>
				<g>
					<path fill-rule="evenodd" clip-rule="evenodd" fill="#010000" d="M589.181,413.12c0,0.741-0.606,1.348-1.348,1.348h-63.247
						c-0.742,0-1.348-0.606-1.348-1.348v-63.247c0-0.741,0.606-1.348,1.348-1.348h63.247c0.742,0,1.348,0.606,1.348,1.348V413.12z"
						/>
				</g>
				<g>
					<path fill-rule="evenodd" clip-rule="evenodd" fill="#010000" d="M512.223,413.12c0,0.741-0.606,1.348-1.348,1.348H396.241
						c-0.742,0-1.348-0.606-1.348-1.348v-63.247c0-0.741,0.606-1.348,1.348-1.348h114.634c0.742,0,1.348,0.606,1.348,1.348V413.12z"
						/>
				</g>
				<g>
					<path fill-rule="evenodd" clip-rule="evenodd" fill="#010000" d="M1523.108,335.828c0,0.741-0.606,1.348-1.348,1.348h-113.84
						c-0.742,0-1.348-0.606-1.348-1.348v-63.252c0-0.741,0.606-1.348,1.348-1.348h113.84c0.742,0,1.348,0.606,1.348,1.348V335.828z"
						/>
				</g>
				<g>
					<path fill-rule="evenodd" clip-rule="evenodd" fill="#010000" d="M1396.08,335.828c0,0.741-0.606,1.348-1.348,1.348h-63.245
						c-0.742,0-1.348-0.606-1.348-1.348v-63.252c0-0.741,0.606-1.348,1.348-1.348h63.245c0.742,0,1.348,0.606,1.348,1.348V335.828z"
						/>
				</g>
				<g>
					<path fill-rule="evenodd" clip-rule="evenodd" fill="#010000" d="M1318.164,335.828c0,0.741-0.606,1.348-1.348,1.348h-63.247
						c-0.742,0-1.348-0.606-1.348-1.348v-63.252c0-0.741,0.606-1.348,1.348-1.348h63.247c0.742,0,1.348,0.606,1.348,1.348V335.828z"
						/>
				</g>
				<g>
					<path fill-rule="evenodd" clip-rule="evenodd" fill="#010000" d="M538.97,335.828c0,0.741-0.606,1.348-1.348,1.348h-63.247
						c-0.742,0-1.348-0.606-1.348-1.348v-63.252c0-0.741,0.606-1.348,1.348-1.348h63.247c0.742,0,1.348,0.606,1.348,1.348V335.828z"
						/>
				</g>
				<g>
					<path fill-rule="evenodd" clip-rule="evenodd" fill="#010000" d="M460.835,335.828c0,0.741-0.606,1.348-1.348,1.348h-63.246
						c-0.742,0-1.348-0.606-1.348-1.348v-63.252c0-0.741,0.606-1.348,1.348-1.348h63.246c0.742,0,1.348,0.606,1.348,1.348V335.828z"
						/>
				</g>
				<g>
					<path fill-rule="evenodd" clip-rule="evenodd" fill="#010000" d="M616.89,335.828c0,0.741-0.606,1.348-1.348,1.348h-63.25
						c-0.742,0-1.348-0.606-1.348-1.348v-63.252c0-0.741,0.606-1.348,1.348-1.348h63.25c0.742,0,1.348,0.606,1.348,1.348V335.828z"
						/>
				</g>
			</g>
			<g>
				<path fill="#FFFFFF" d="M1477.473,618.49c0.816,0,1.537-0.252,2.158-0.756c0.621-0.505,0.932-1.124,0.932-1.857h2.213
					l0.025,0.074c0.041,1.168-0.478,2.206-1.557,3.115c-1.08,0.908-2.338,1.363-3.771,1.363c-1.969,0-3.473-0.643-4.516-1.926
					c-1.041-1.285-1.563-2.898-1.563-4.841v-0.525c0-1.927,0.523-3.533,1.569-4.821c1.046-1.289,2.55-1.933,4.509-1.933
					c1.584,0,2.879,0.467,3.883,1.4c1.006,0.935,1.491,2.081,1.457,3.44l-0.024,0.074h-2.226c0-0.825-0.293-1.527-0.876-2.107
					c-0.583-0.579-1.321-0.869-2.214-0.869c-1.293,0-2.216,0.465-2.771,1.393c-0.555,0.93-0.831,2.068-0.831,3.417v0.524
					c0,1.383,0.275,2.533,0.824,3.454C1475.246,618.031,1476.172,618.49,1477.473,618.49z"/>
				<path fill="#FFFFFF" d="M1488.816,603.369v3.265h2.564v1.826h-2.564v8.218c0,0.633,0.132,1.08,0.395,1.338
					c0.262,0.258,0.611,0.387,1.045,0.387c0.141,0,0.297-0.016,0.469-0.049c0.17-0.033,0.322-0.076,0.455-0.125l0.326,1.688
					c-0.184,0.15-0.452,0.273-0.807,0.369c-0.355,0.096-0.711,0.145-1.07,0.145c-1,0-1.797-0.303-2.388-0.907
					c-0.593-0.604-0.888-1.553-0.888-2.845v-8.218h-2.152v-1.826h2.152v-3.265H1488.816z"/>
				<path fill="#FFFFFF" d="M1500.823,608.811l-1.263-0.076c-0.65,0-1.199,0.155-1.645,0.463c-0.447,0.309-0.791,0.742-1.033,1.301
					v9.668h-2.463v-13.532h2.201l0.237,1.976c0.384-0.7,0.856-1.246,1.419-1.638s1.211-0.588,1.945-0.588
					c0.184,0,0.358,0.015,0.525,0.044c0.166,0.029,0.305,0.061,0.412,0.094L1500.823,608.811z"/>
				<path fill="#FFFFFF" d="M1505.863,620.166h-2.465v-19.511h2.465V620.166z"/>
			</g>
			<g>
				<path fill="#FFFFFF" d="M413.374,619.84c0.816,0,1.536-0.252,2.157-0.757s0.933-1.124,0.933-1.856h2.213l0.025,0.074
					c0.041,1.168-0.478,2.205-1.558,3.114c-1.079,0.909-2.337,1.363-3.771,1.363c-1.969,0-3.473-0.642-4.516-1.926
					c-1.042-1.284-1.563-2.897-1.563-4.841v-0.525c0-1.926,0.523-3.533,1.569-4.82c1.046-1.289,2.549-1.934,4.509-1.934
					c1.584,0,2.879,0.468,3.883,1.401c1.005,0.935,1.491,2.081,1.457,3.439l-0.024,0.075h-2.226c0-0.826-0.293-1.527-0.876-2.107
					c-0.584-0.58-1.322-0.869-2.214-0.869c-1.293,0-2.216,0.465-2.771,1.393c-0.555,0.929-0.831,2.067-0.831,3.416v0.525
					c0,1.383,0.274,2.533,0.824,3.453C411.147,619.38,412.073,619.84,413.374,619.84z"/>
				<path fill="#FFFFFF" d="M424.718,604.719v3.264h2.564v1.826h-2.564v8.218c0,0.634,0.132,1.08,0.395,1.339
					c0.262,0.258,0.61,0.387,1.044,0.387c0.142,0,0.298-0.016,0.469-0.05c0.171-0.033,0.323-0.075,0.456-0.125l0.326,1.688
					c-0.184,0.15-0.452,0.273-0.807,0.369c-0.355,0.096-0.711,0.144-1.07,0.144c-1,0-1.797-0.302-2.388-0.907
					c-0.593-0.604-0.889-1.553-0.889-2.845v-8.218h-2.151v-1.826h2.151v-3.264H424.718z"/>
				<path fill="#FFFFFF" d="M436.725,610.16l-1.264-0.076c-0.649,0-1.198,0.154-1.645,0.463s-0.79,0.742-1.032,1.301v9.668h-2.464
					v-13.533h2.202l0.237,1.977c0.384-0.7,0.856-1.246,1.419-1.639c0.563-0.392,1.211-0.588,1.945-0.588
					c0.184,0,0.358,0.016,0.525,0.044c0.166,0.029,0.304,0.061,0.412,0.094L436.725,610.16z"/>
				<path fill="#FFFFFF" d="M441.765,621.516H439.3v-19.511h2.465V621.516z"/>
			</g>
			<g>
				<g>
					
						<line fill="none" stroke="#FFFFFF" stroke-width="2.6963" stroke-miterlimit="10" x1="1497.502" y1="550.462" x2="1497.502" y2="525.413"/>
					<g>
						<polygon fill="#FFFFFF" points="1508.529,534.348 1506.555,536.187 1497.505,526.448 1488.452,536.187 1486.478,534.348 
							1497.505,522.489 						"/>
					</g>
				</g>
			</g>
			<g>
				<path fill="#FFFFFF" d="M1303.187,556.23h-8.386v-2.635h8.386V556.23z"/>
			</g>
			<g>
				<path fill="#FFFFFF" d="M1308.551,528.285h-18.578v-2.652h18.578V528.285z"/>
			</g>
			<g>
				<path fill="#FFFFFF" d="M1222.827,558.623h-3.372v-3.491h3.372V558.623z"/>
			</g>
			<g>
				<path fill="#FFFFFF" d="M1221.745,515.321h-3.372v-3.491h3.372V515.321z M1221.745,530.313h-3.372v-3.491h3.372V530.313z"/>
			</g>
			<g>
				<path fill="#FFFFFF" d="M1145.412,557.802l-2.568,5.237h-2.002l1.197-5.408v-2.79h3.373V557.802z"/>
			</g>
			<g>
				<path fill="#FFFFFF" d="M1145.248,530.364l-2.566,5.237h-2.003l1.198-5.408v-2.79h3.371V530.364z M1145.129,516.193h-3.372
					v-3.492h3.372V516.193z"/>
			</g>
			<g>
				<path fill="#FFFFFF" d="M1057.565,525.614l7.941,20.247h0.103l7.941-20.247h4.313v24.92h-3.371v-9.858l0.342-10.132
					l-0.085-0.018l-8.079,20.008h-2.241l-8.044-19.956l-0.086,0.017l0.325,10.081v9.858h-3.371v-24.92H1057.565z"/>
			</g>
			<g>
				<path fill="#FFFFFF" d="M997.074,550.534h-3.372l-11.997-19.271l-0.103,0.034v19.237h-3.372v-24.92h3.372l11.998,19.237
					l0.102-0.034v-19.203h3.372V550.534z"/>
			</g>
			<g>
				<path fill="#FFFFFF" d="M901.619,550.534v-24.92h8.13c2.602,0,4.638,0.563,6.109,1.687c1.473,1.123,2.208,2.81,2.208,5.057
					c0,1.107-0.354,2.097-1.061,2.97c-0.708,0.873-1.638,1.521-2.79,1.942c1.506,0.32,2.689,1.056,3.552,2.208
					c0.86,1.153,1.292,2.493,1.292,4.022c0,2.282-0.739,4.024-2.217,5.229s-3.482,1.806-6.016,1.806H901.619z M904.991,536.209
					h5.459c1.256,0,2.276-0.346,3.064-1.035c0.786-0.69,1.18-1.652,1.18-2.885c0-1.346-0.425-2.353-1.274-3.021
					c-0.851-0.667-2.073-1.001-3.671-1.001h-4.758V536.209z M904.991,538.861v9.02h5.836c1.528,0,2.722-0.378,3.577-1.134
					s1.283-1.827,1.283-3.214c0-1.455-0.356-2.597-1.069-3.427s-1.812-1.245-3.295-1.245H904.991z"/>
			</g>
			<g>
				<path fill="#FFFFFF" d="M831.222,544.338l0.564,1.969h0.104l0.563-1.969l6.437-18.724h3.645l-9.259,24.92h-2.893l-9.259-24.92
					h3.662L831.222,544.338z"/>
			</g>
			<g>
				<path fill="#FFFFFF" d="M763.509,542.541l0.034,0.104c0.046,2.339-0.776,4.299-2.465,5.879s-3.919,2.37-6.692,2.37
					c-2.817,0-5.114-0.999-6.888-2.995c-1.775-1.997-2.662-4.529-2.662-7.6v-4.433c0-3.069,0.887-5.604,2.662-7.607
					c1.773-2.003,4.07-3.004,6.888-3.004c2.818,0,5.061,0.751,6.727,2.251s2.477,3.488,2.431,5.965l-0.034,0.103h-3.235
					c0-1.746-0.513-3.126-1.54-4.142s-2.477-1.523-4.348-1.523c-1.883,0-3.383,0.758-4.5,2.274
					c-1.119,1.517-1.678,3.397-1.678,5.643v4.464c0,2.269,0.559,4.161,1.678,5.677c1.117,1.517,2.617,2.274,4.5,2.274
					c1.871,0,3.32-0.505,4.348-1.515s1.54-2.404,1.54-4.185H763.509z"/>
			</g>
			<g>
				<path fill="#FFFFFF" d="M676.047,535.336l5.819-9.722h4.073l-7.907,12.357l8.078,12.563h-4.021l-5.974-9.893l-5.99,9.893h-4.073
					l8.078-12.563l-7.907-12.357h4.039L676.047,535.336z"/>
			</g>
			<g>
				<path fill="#FFFFFF" d="M598.092,538.279l6.504-12.665h3.851l-8.746,16.157v8.763h-3.354v-8.985l-8.608-15.935h3.851
					L598.092,538.279z"/>
			</g>
			<g>
				<path fill="#FFFFFF" d="M513.815,523.396v-3.337l14.65,6.469v2.551l-14.65,6.486v-3.354l10.234-4.073l1.455-0.291v-0.103
					l-1.455-0.343L513.815,523.396z"/>
			</g>
			<g>
				<path fill="#FFFFFF" d="M518.107,547.979l-1.456,0.284v0.096l1.456,0.3l9.567,3.606v3.179l-13.967-5.994v-2.356l13.967-5.979
					v3.179L518.107,547.979z"/>
			</g>
			<g>
				<g>
					
						<line fill="none" stroke="#FFFFFF" stroke-width="2.6963" stroke-miterlimit="10" x1="420.345" y1="550.462" x2="420.345" y2="525.413"/>
					<g>
						<polygon fill="#FFFFFF" points="431.372,534.348 429.397,536.187 420.348,526.448 411.295,536.187 409.32,534.348 
							420.348,522.489 						"/>
					</g>
				</g>
			</g>
			<g>
				<path fill="#FFFFFF" d="M1424.158,469.115h13.932v2.653h-17.73v-2.517l13.315-19.75h-13.128v-2.653h16.979v2.413
					L1424.158,469.115z M1429.105,442.382l2.516-2.533h2.909v0.309l-4.398,4.193h-2.036l-4.348-4.159v-0.343h2.841L1429.105,442.382
					z"/>
			</g>
			<g>
				<path fill="#FFFFFF" d="M1360.865,463.775l0.033,0.104c0.046,2.339-0.775,4.299-2.465,5.879c-1.688,1.58-3.919,2.37-6.691,2.37
					c-2.818,0-5.115-0.999-6.889-2.995c-1.775-1.997-2.662-4.529-2.662-7.6v-4.433c0-3.069,0.887-5.604,2.662-7.607
					c1.773-2.003,4.07-3.004,6.889-3.004s5.061,0.751,6.727,2.251s2.476,3.488,2.43,5.965l-0.033,0.103h-3.236
					c0-1.746-0.513-3.126-1.539-4.142c-1.027-1.016-2.477-1.523-4.348-1.523c-1.883,0-3.383,0.758-4.501,2.274
					s-1.677,3.397-1.677,5.643v4.464c0,2.269,0.559,4.161,1.677,5.677c1.118,1.517,2.618,2.274,4.501,2.274
					c1.871,0,3.32-0.505,4.348-1.515c1.026-1.01,1.539-2.404,1.539-4.185H1360.865z M1353.402,440.226h3.937l0.034,0.103
					l-4.621,4.45h-2.516L1353.402,440.226z"/>
			</g>
			<g>
				<path fill="#FFFFFF" d="M1282.953,463.775l0.034,0.104c0.046,2.339-0.776,4.299-2.465,5.879s-3.919,2.37-6.692,2.37
					c-2.818,0-5.115-0.999-6.889-2.995c-1.774-1.997-2.661-4.529-2.661-7.6v-4.433c0-3.069,0.887-5.604,2.661-7.607
					c1.773-2.003,4.07-3.004,6.889-3.004s5.061,0.751,6.727,2.251s2.477,3.488,2.431,5.965l-0.034,0.103h-3.235
					c0-1.746-0.513-3.126-1.54-4.142s-2.477-1.523-4.348-1.523c-1.883,0-3.383,0.758-4.5,2.274
					c-1.119,1.517-1.678,3.397-1.678,5.643v4.464c0,2.269,0.559,4.161,1.678,5.677c1.117,1.517,2.617,2.274,4.5,2.274
					c1.871,0,3.32-0.505,4.348-1.515s1.54-2.404,1.54-4.185H1282.953z M1273.848,442.022l2.516-2.533h2.91v0.309l-4.398,4.192
					h-2.037l-4.348-4.158v-0.343h2.842L1273.848,442.022z"/>
			</g>
			<g>
				<path fill="#FFFFFF" d="M1192.436,469.115h11.791v2.653h-15.164v-24.92h3.373V469.115z"/>
			</g>
			<g>
				<path fill="#FFFFFF" d="M1115.627,460.523h-2.91v11.245h-3.371v-24.92h3.371v11.022h2.602l8.916-11.022h3.732l0.051,0.086
					l-9.67,11.964l10.371,12.784l-0.051,0.086h-4.021L1115.627,460.523z"/>
			</g>
			<g>
				<path fill="#FFFFFF" d="M1043.063,446.849h3.372v18.022c0,2.225-0.705,3.99-2.114,5.297s-3.237,1.96-5.485,1.96
					c-2.396,0-4.301-0.61-5.716-1.831s-2.094-2.989-2.037-5.306l0.034-0.103h3.234c0,1.54,0.391,2.689,1.173,3.448
					c0.781,0.759,1.886,1.138,3.312,1.138c1.243,0,2.26-0.418,3.047-1.257c0.787-0.838,1.181-1.958,1.181-3.36V446.849z"/>
			</g>
			<g>
				<path fill="#FFFFFF" d="M971.13,471.769h-3.372v-11.005h-12.1v11.005h-3.372v-24.92h3.372v11.262h12.1v-11.262h3.372V471.769z"
					/>
			</g>
			<g>
				<path fill="#FFFFFF" d="M892.988,468.465c-0.593,0.913-1.622,1.752-3.089,2.517s-3.363,1.146-5.69,1.146
					c-2.979,0-5.44-0.952-7.386-2.858c-1.945-1.905-2.918-4.37-2.918-7.394v-5.135c0-3.023,0.907-5.487,2.722-7.394
					c1.813-1.905,4.153-2.858,7.017-2.858c2.853,0,5.095,0.702,6.727,2.105s2.465,3.212,2.499,5.426l-0.034,0.103h-3.218
					c-0.103-1.449-0.653-2.642-1.651-3.577c-0.999-0.936-2.439-1.403-4.322-1.403c-1.905,0-3.439,0.713-4.604,2.138
					s-1.746,3.231-1.746,5.421v5.164c0,2.212,0.65,4.033,1.951,5.464s2.955,2.146,4.964,2.146c1.415,0,2.572-0.188,3.474-0.563
					c0.902-0.375,1.547-0.802,1.935-1.28v-5.652h-5.46v-2.652h8.831V468.465z"/>
			</g>
			<g>
				<g>
					<path fill="#FFFFFF" d="M813.487,460.746h-11.364v11.022h-3.372v-24.92h16.482v2.653h-13.11v8.592h11.364V460.746z"/>
				</g>
			</g>
			<g>
				<path fill="#FFFFFF" d="M719.504,471.769v-24.92h7.651c3.263,0,5.881,1.002,7.855,3.004c1.974,2.003,2.961,4.59,2.961,7.762
					v3.406c0,3.183-0.987,5.771-2.961,7.761c-1.975,1.992-4.593,2.987-7.855,2.987H719.504z M722.876,449.502v19.613h4.279
					c2.305,0,4.121-0.758,5.45-2.273c1.329-1.517,1.994-3.46,1.994-5.832v-3.437c0-2.349-0.665-4.28-1.994-5.797
					s-3.146-2.274-5.45-2.274H722.876z"/>
			</g>
			<g>
				<path fill="#FFFFFF" d="M655.784,465.493c0-1.134-0.429-2.084-1.284-2.85c-0.856-0.766-2.373-1.409-4.553-1.932
					c-2.636-0.629-4.692-1.556-6.17-2.779s-2.216-2.762-2.216-4.615c0-1.944,0.795-3.567,2.387-4.872
					c1.592-1.304,3.654-1.956,6.188-1.956c2.727,0,4.897,0.748,6.512,2.242c1.614,1.495,2.394,3.229,2.336,5.203l-0.034,0.103
					h-3.217c0-1.46-0.482-2.641-1.446-3.543c-0.965-0.9-2.348-1.352-4.15-1.352c-1.678,0-2.964,0.379-3.859,1.138
					s-1.344,1.749-1.344,2.97c0,1.084,0.484,1.988,1.455,2.713c0.97,0.725,2.544,1.36,4.724,1.908
					c2.624,0.65,4.621,1.608,5.989,2.875c1.37,1.267,2.055,2.836,2.055,4.707c0,2.008-0.821,3.623-2.465,4.844
					c-1.643,1.221-3.788,1.831-6.435,1.831c-2.487,0-4.687-0.677-6.599-2.028c-1.911-1.352-2.838-3.158-2.78-5.417l0.033-0.103
					h3.218c0,1.598,0.588,2.813,1.763,3.646s2.63,1.249,4.365,1.249c1.7,0,3.046-0.357,4.039-1.071
					C655.287,467.688,655.784,466.719,655.784,465.493z"/>
			</g>
			<g>
				<path fill="#FFFFFF" d="M577.386,465.351h-10.44l-2.362,6.418h-3.439l9.636-24.92h2.892l9.482,24.92h-3.44L577.386,465.351z
					 M567.989,462.526h8.386l-4.106-11.348h-0.104L567.989,462.526z"/>
			</g>
			<g>
				<g>
					<path fill="#FFFFFF" d="M412.026,465.008c0.817,0,1.537-0.252,2.158-0.757s0.932-1.124,0.932-1.857h2.214l0.024,0.075
						c0.042,1.168-0.477,2.205-1.557,3.114s-2.337,1.363-3.771,1.363c-1.968,0-3.473-0.642-4.515-1.926s-1.563-2.897-1.563-4.841
						v-0.525c0-1.926,0.523-3.533,1.57-4.821c1.046-1.288,2.549-1.933,4.508-1.933c1.585,0,2.879,0.468,3.884,1.401
						s1.491,2.08,1.457,3.439l-0.024,0.075h-2.227c0-0.826-0.292-1.528-0.875-2.107c-0.584-0.58-1.322-0.869-2.215-0.869
						c-1.292,0-2.215,0.464-2.77,1.393s-0.832,2.067-0.832,3.416v0.525c0,1.382,0.275,2.533,0.825,3.453
						C409.801,464.548,410.726,465.008,412.026,465.008z"/>
					<path fill="#FFFFFF" d="M428.437,466.684c-0.083-0.408-0.148-0.77-0.194-1.082s-0.072-0.627-0.081-0.944
						c-0.459,0.65-1.057,1.194-1.795,1.632c-0.738,0.438-1.531,0.657-2.383,0.657c-1.409,0-2.482-0.36-3.22-1.082
						c-0.738-0.721-1.107-1.716-1.107-2.983c0-1.292,0.523-2.303,1.569-3.032c1.047-0.729,2.466-1.095,4.259-1.095h2.677v-1.338
						c0-0.792-0.242-1.42-0.725-1.883c-0.484-0.463-1.168-0.693-2.052-0.693c-0.792,0-1.437,0.202-1.933,0.606
						s-0.744,0.89-0.744,1.457h-2.352l-0.025-0.075c-0.05-0.984,0.415-1.885,1.395-2.701c0.98-0.817,2.246-1.227,3.797-1.227
						c1.534,0,2.768,0.391,3.702,1.17c0.934,0.779,1.4,1.903,1.4,3.371v6.516c0,0.483,0.025,0.95,0.075,1.4
						c0.05,0.451,0.142,0.893,0.275,1.326H428.437z M424.347,464.87c0.892,0,1.696-0.229,2.414-0.687
						c0.717-0.457,1.184-0.98,1.4-1.571v-2.194h-2.764c-0.992,0-1.787,0.249-2.383,0.748c-0.597,0.499-0.895,1.085-0.895,1.759
						c0,0.599,0.188,1.072,0.563,1.422C423.058,464.695,423.612,464.87,424.347,464.87z"/>
					<path fill="#FFFFFF" d="M445.733,460.43c0,1.951-0.467,3.525-1.4,4.722c-0.935,1.196-2.223,1.795-3.865,1.795
						c-0.834,0-1.565-0.14-2.195-0.419c-0.629-0.279-1.164-0.698-1.606-1.257v6.616h-2.464V453.15h1.889l0.388,1.752
						c0.442-0.65,0.992-1.146,1.65-1.488c0.659-0.342,1.426-0.514,2.302-0.514c1.676,0,2.979,0.665,3.908,1.995
						s1.395,3.087,1.395,5.272V460.43z M443.27,460.161c0-1.532-0.302-2.792-0.907-3.778c-0.604-0.987-1.494-1.48-2.67-1.48
						c-0.709,0-1.313,0.16-1.813,0.48s-0.904,0.76-1.213,1.318v6.533c0.309,0.558,0.713,0.992,1.213,1.305s1.113,0.469,1.839,0.469
						c1.167,0,2.051-0.427,2.651-1.28c0.601-0.854,0.9-1.955,0.9-3.305V460.161z"/>
					<path fill="#FFFFFF" d="M456.628,463.082c0-0.543-0.207-0.988-0.619-1.339c-0.413-0.351-1.194-0.654-2.346-0.913
						c-1.643-0.357-2.879-0.843-3.708-1.455c-0.83-0.611-1.245-1.446-1.245-2.503c0-1.099,0.468-2.036,1.401-2.81
						c0.934-0.774,2.151-1.162,3.652-1.162c1.575,0,2.828,0.405,3.759,1.214c0.93,0.809,1.373,1.792,1.332,2.951l-0.025,0.075
						h-2.352c0-0.592-0.248-1.123-0.744-1.595c-0.496-0.471-1.152-0.706-1.97-0.706c-0.876,0-1.526,0.191-1.951,0.575
						c-0.426,0.384-0.638,0.846-0.638,1.388c0,0.534,0.188,0.955,0.563,1.264s1.138,0.584,2.289,0.825
						c1.709,0.367,2.98,0.865,3.814,1.495c0.834,0.629,1.251,1.474,1.251,2.532c0,1.2-0.486,2.172-1.457,2.914
						c-0.972,0.742-2.241,1.113-3.809,1.113c-1.726,0-3.085-0.438-4.077-1.313c-0.992-0.875-1.464-1.896-1.414-3.064l0.025-0.074
						h2.352c0.041,0.871,0.366,1.508,0.975,1.91c0.609,0.402,1.322,0.604,2.14,0.604c0.876,0,1.561-0.178,2.057-0.531
						C456.379,464.122,456.628,463.657,456.628,463.082z"/>
					<path fill="#FFFFFF" d="M471.187,466.684h-2.465v-19.511h2.465V466.684z"/>
					<path fill="#FFFFFF" d="M474.401,459.792c0-2.001,0.542-3.649,1.625-4.946c1.084-1.297,2.556-1.945,4.415-1.945
						c1.877,0,3.358,0.646,4.446,1.939c1.088,1.292,1.633,2.943,1.633,4.952v0.275c0,2.018-0.542,3.669-1.627,4.953
						c-1.083,1.284-2.559,1.926-4.427,1.926s-3.346-0.645-4.434-1.933c-1.089-1.288-1.632-2.937-1.632-4.946V459.792z
						 M476.865,460.061c0,1.433,0.302,2.615,0.906,3.548s1.503,1.399,2.695,1.399c1.176,0,2.067-0.467,2.677-1.399
						c0.608-0.933,0.913-2.115,0.913-3.548v-0.274c0-1.416-0.307-2.594-0.92-3.535c-0.612-0.94-1.511-1.411-2.695-1.411
						c-1.176,0-2.065,0.471-2.67,1.411c-0.604,0.941-0.906,2.119-0.906,3.535V460.061z"/>
					<path fill="#FFFFFF" d="M495.038,465.008c0.816,0,1.536-0.252,2.157-0.757s0.933-1.124,0.933-1.857h2.213l0.025,0.075
						c0.041,1.168-0.478,2.205-1.558,3.114c-1.079,0.909-2.337,1.363-3.771,1.363c-1.969,0-3.473-0.642-4.516-1.926
						c-1.042-1.284-1.563-2.897-1.563-4.841v-0.525c0-1.926,0.523-3.533,1.569-4.821s2.549-1.933,4.509-1.933
						c1.584,0,2.879,0.468,3.883,1.401c1.005,0.934,1.491,2.08,1.457,3.439l-0.024,0.075h-2.226c0-0.826-0.293-1.528-0.876-2.107
						c-0.584-0.58-1.322-0.869-2.214-0.869c-1.293,0-2.216,0.464-2.771,1.393s-0.831,2.067-0.831,3.416v0.525
						c0,1.382,0.274,2.533,0.824,3.453C492.812,464.548,493.737,465.008,495.038,465.008z"/>
					<path fill="#FFFFFF" d="M507.207,460.418h-1.601v6.266h-2.464v-19.511h2.464v11.306h1.576l3.702-5.328h2.951l-4.627,6.144
						l5.29,7.39h-2.902L507.207,460.418z"/>
				</g>
			</g>
			<g>
				<path fill="#FFFFFF" d="M1405.152,394.188v-11.347h-2.875v-2.653h2.875v-10.919h7.651c3.263,0,5.882,1.001,7.855,3.004
					c1.974,2.002,2.961,4.59,2.961,7.762v3.405c0,3.184-0.987,5.771-2.961,7.762c-1.974,1.991-4.593,2.986-7.855,2.986H1405.152z
					 M1413.249,382.841h-4.724v8.694h4.278c2.305,0,4.122-0.758,5.45-2.274c1.33-1.517,1.995-3.46,1.995-5.831v-3.438
					c0-2.348-0.665-4.28-1.995-5.797c-1.328-1.516-3.146-2.273-5.45-2.273h-4.278v8.266h4.724V382.841z"/>
			</g>
			<g>
				<path fill="#FFFFFF" d="M1341.17,387.913c0-1.134-0.428-2.084-1.283-2.851c-0.856-0.766-2.373-1.409-4.553-1.931
					c-2.636-0.629-4.693-1.556-6.17-2.779c-1.479-1.224-2.217-2.763-2.217-4.615c0-1.944,0.795-3.568,2.388-4.872
					c1.591-1.305,3.653-1.956,6.187-1.956c2.728,0,4.898,0.747,6.513,2.242s2.394,3.229,2.336,5.203l-0.034,0.103h-3.217
					c0-1.461-0.482-2.642-1.447-3.543s-2.348-1.352-4.15-1.352c-1.678,0-2.963,0.379-3.859,1.138
					c-0.895,0.759-1.343,1.749-1.343,2.97c0,1.084,0.484,1.988,1.454,2.713c0.971,0.725,2.545,1.36,4.725,1.908
					c2.623,0.65,4.621,1.608,5.989,2.875c1.37,1.267,2.054,2.835,2.054,4.707c0,2.008-0.82,3.622-2.464,4.843
					c-1.644,1.222-3.788,1.831-6.435,1.831c-2.488,0-4.688-0.676-6.6-2.027c-1.91-1.353-2.838-3.158-2.779-5.417l0.033-0.103h3.218
					c0,1.598,0.587,2.813,1.763,3.645c1.175,0.834,2.629,1.25,4.365,1.25c1.699,0,3.045-0.357,4.039-1.072
					C1340.674,390.108,1341.17,389.139,1341.17,387.913z M1334.991,364.442l2.517-2.533h2.909v0.308l-4.398,4.193h-2.036
					l-4.348-4.158v-0.343h2.841L1334.991,364.442z"/>
			</g>
			<g>
				<path fill="#FFFFFF" d="M1252.758,384.192v9.995h-3.372v-24.919h9.534c2.657,0,4.723,0.685,6.195,2.054
					c1.471,1.369,2.207,3.172,2.207,5.408c0,2.271-0.736,4.082-2.207,5.434c-1.473,1.353-3.538,2.028-6.195,2.028H1252.758z
					 M1252.758,381.54h6.162c1.688,0,2.949-0.453,3.781-1.358c0.833-0.905,1.25-2.047,1.25-3.426c0-1.378-0.42-2.528-1.258-3.451
					c-0.839-0.922-2.098-1.383-3.773-1.383h-6.162V381.54z"/>
			</g>
			<g>
				<path fill="#FFFFFF" d="M1189.615,383.953c0,3.047-0.944,5.574-2.832,7.582c-1.889,2.008-4.339,3.012-7.352,3.012
					c-2.909,0-5.273-1.004-7.094-3.012s-2.729-4.535-2.729-7.582v-4.433c0-3.035,0.909-5.563,2.729-7.582s4.185-3.029,7.094-3.029
					c3.013,0,5.463,1.007,7.352,3.021c1.888,2.014,2.832,4.544,2.832,7.591V383.953z M1186.244,379.486
					c0-2.282-0.616-4.153-1.85-5.614c-1.231-1.46-2.887-2.19-4.963-2.19c-1.963,0-3.527,0.73-4.697,2.19
					c-1.17,1.461-1.755,3.332-1.755,5.614v4.467c0,2.305,0.585,4.188,1.755,5.648c1.17,1.46,2.734,2.19,4.697,2.19
					c2.088,0,3.746-0.728,4.973-2.183s1.84-3.34,1.84-5.656V379.486z"/>
			</g>
			<g>
				<path fill="#FFFFFF" d="M1103.396,394.188h-3.389v-24.919h3.389V394.188z"/>
			</g>
			<g>
				<path fill="#FFFFFF" d="M1033.229,369.269v16.893c0,2.716-0.882,4.792-2.645,6.229s-4.064,2.156-6.906,2.156
					c-2.738,0-4.96-0.721-6.666-2.164c-1.705-1.443-2.559-3.518-2.559-6.222v-16.893h3.372v16.88c0,1.881,0.536,3.309,1.608,4.284
					c1.072,0.975,2.487,1.462,4.244,1.462c1.849,0,3.341-0.487,4.477-1.462c1.135-0.976,1.703-2.403,1.703-4.284v-16.88H1033.229z"
					/>
			</g>
			<g>
				<path fill="#FFFFFF" d="M940.857,391.535h13.932v2.652h-17.731v-2.516l13.316-19.75h-13.128v-2.653h16.979v2.413
					L940.857,391.535z"/>
			</g>
			<g>
				<path fill="#FFFFFF" d="M877.657,371.922h-8.01v22.266h-3.372v-22.266h-7.992v-2.653h19.374V371.922z"/>
			</g>
			<g>
				<path fill="#FFFFFF" d="M784.897,383.389v10.799h-3.371v-24.902h9.02c2.727,0,4.809,0.605,6.246,1.814
					c1.438,1.21,2.157,2.967,2.157,5.271c0,1.278-0.333,2.391-1.001,3.338s-1.641,1.7-2.918,2.259
					c1.369,0.445,2.353,1.167,2.952,2.165c0.599,0.998,0.898,2.233,0.898,3.705v2.345c0,0.776,0.086,1.472,0.257,2.089
					c0.171,0.615,0.467,1.118,0.89,1.506v0.41h-3.474c-0.445-0.388-0.73-0.958-0.856-1.711c-0.125-0.753-0.188-1.529-0.188-2.328
					v-2.275c0-1.347-0.393-2.431-1.181-3.252c-0.787-0.822-1.843-1.232-3.166-1.232H784.897z M784.897,380.735h5.306
					c1.905,0,3.277-0.361,4.116-1.085c0.839-0.723,1.258-1.824,1.258-3.305c0-1.4-0.407-2.485-1.223-3.254
					c-0.816-0.769-2.086-1.153-3.809-1.153h-5.648V380.735z"/>
			</g>
			<g>
				<path fill="#FFFFFF" d="M719.769,382.635h-11.416v8.9h13.162v2.652H704.98v-24.919h16.346v2.653h-12.974v8.061h11.416V382.635z"
					/>
			</g>
			<g>
				<path fill="#FFFFFF" d="M626.833,385.563l0.463,3.114l0.102,0.018l0.668-3.132l4.57-16.294h2.978l4.604,16.294l0.684,3.2h0.103
					l0.497-3.2l3.713-16.294h3.372l-6.007,24.919h-3.013l-4.911-17.285l-0.445-2.242h-0.103l-0.429,2.242l-4.997,17.285h-3.013
					l-5.99-24.919h3.355L626.833,385.563z"/>
			</g>
			<g>
				<path fill="#FFFFFF" d="M566.317,383.953c0,1.62-0.285,3.121-0.855,4.501c-0.571,1.381-1.369,2.551-2.396,3.509l4.228,3.988
					l-2.311,2.207l-4.724-4.398c-0.639,0.263-1.304,0.459-1.994,0.591c-0.69,0.131-1.4,0.196-2.131,0.196
					c-2.909,0-5.274-1.004-7.094-3.012c-1.82-2.008-2.729-4.535-2.729-7.582v-4.433c0-3.035,0.909-5.563,2.729-7.582
					c1.819-2.02,4.185-3.029,7.094-3.029c3.013,0,5.463,1.007,7.351,3.021c1.889,2.014,2.833,4.544,2.833,7.591V383.953z
					 M562.945,379.486c0-2.282-0.615-4.153-1.849-5.614c-1.231-1.46-2.887-2.19-4.963-2.19c-1.963,0-3.528,0.73-4.697,2.19
					c-1.171,1.461-1.755,3.332-1.755,5.614v4.467c0,2.305,0.584,4.188,1.755,5.648c1.169,1.46,2.734,2.19,4.697,2.19
					c2.088,0,3.745-0.728,4.972-2.183s1.84-3.34,1.84-5.656V379.486z"/>
			</g>
			<g>
				<path fill="#FFFFFF" d="M411.123,374.244v3.264h2.563v1.826h-2.563v8.217c0,0.634,0.131,1.08,0.394,1.339
					s0.611,0.388,1.045,0.388c0.141,0,0.297-0.017,0.469-0.051c0.171-0.033,0.323-0.074,0.456-0.125l0.325,1.689
					c-0.184,0.149-0.452,0.272-0.807,0.368s-0.711,0.144-1.069,0.144c-1,0-1.797-0.302-2.389-0.906s-0.888-1.553-0.888-2.846v-8.217
					h-2.152v-1.826h2.152v-3.264H411.123z"/>
				<path fill="#FFFFFF" d="M425.042,391.041c-0.082-0.409-0.147-0.77-0.193-1.082s-0.072-0.627-0.081-0.944
					c-0.459,0.65-1.058,1.194-1.795,1.632c-0.738,0.438-1.532,0.656-2.383,0.656c-1.409,0-2.482-0.36-3.22-1.081
					c-0.738-0.722-1.107-1.716-1.107-2.983c0-1.292,0.523-2.303,1.569-3.033c1.046-0.729,2.466-1.094,4.259-1.094h2.677v-1.338
					c0-0.793-0.242-1.42-0.726-1.883c-0.484-0.463-1.168-0.694-2.051-0.694c-0.793,0-1.437,0.202-1.933,0.606
					s-0.744,0.891-0.744,1.457h-2.352l-0.025-0.074c-0.05-0.984,0.415-1.885,1.395-2.702s2.245-1.226,3.796-1.226
					c1.535,0,2.769,0.39,3.703,1.17c0.934,0.779,1.4,1.902,1.4,3.37v6.517c0,0.483,0.025,0.95,0.075,1.4s0.142,0.893,0.274,1.326
					H425.042z M420.952,389.227c0.893,0,1.697-0.229,2.414-0.686c0.718-0.457,1.184-0.98,1.401-1.571v-2.195h-2.765
					c-0.992,0-1.786,0.25-2.383,0.749c-0.596,0.498-0.894,1.085-0.894,1.758c0,0.599,0.188,1.073,0.563,1.422
					C419.664,389.053,420.219,389.227,420.952,389.227z"/>
				<path fill="#FFFFFF" d="M442.365,384.787c0,1.951-0.47,3.525-1.407,4.722c-0.938,1.196-2.229,1.794-3.871,1.794
					c-0.893,0-1.668-0.173-2.326-0.519c-0.659-0.346-1.205-0.856-1.639-1.532l-0.3,1.789h-2.015v-19.512h2.465v7.58
					c0.425-0.601,0.952-1.06,1.582-1.376c0.629-0.317,1.365-0.476,2.207-0.476c1.668,0,2.969,0.667,3.902,2.001
					s1.401,3.089,1.401,5.266V384.787z M439.901,384.524c0-1.551-0.286-2.816-0.857-3.796s-1.44-1.47-2.607-1.47
					c-0.759,0-1.398,0.186-1.92,0.557s-0.936,0.869-1.244,1.495v5.865c0.316,0.667,0.731,1.188,1.244,1.563s1.161,0.563,1.944,0.563
					c1.159,0,2.022-0.412,2.589-1.237c0.567-0.826,0.852-1.918,0.852-3.277V384.524z"/>
			</g>
			<g>
				<g>
					
						<line fill="none" stroke="#FFFFFF" stroke-width="2.6963" stroke-miterlimit="10" x1="1507.811" y1="304.296" x2="1482.758" y2="304.296"/>
					<g>
						<polygon fill="#FFFFFF" points="1491.692,293.269 1493.531,295.243 1483.793,304.293 1493.531,313.346 1491.692,315.32 
							1479.834,304.293 						"/>
					</g>
				</g>
			</g>
			<g>
				<path fill="#FFFFFF" d="M1375.227,315.988h5.779v2.577h-5.779v6.647h-2.853v-6.647h-5.821v-2.577h5.821v-6.126h2.853V315.988z"
					/>
			</g>
			<g>
				<path fill="#FFFFFF" d="M1350.047,287.503l-4.286-1.289l0.71-2.229l4.286,1.607l-0.145-4.953h2.331l-0.145,5.039l4.243-1.593
					l0.695,2.26l-4.374,1.288l2.795,3.91l-1.896,1.391l-2.621-4.156l-2.549,4.041l-1.912-1.348L1350.047,287.503z"/>
			</g>
			<g>
				<path fill="#FFFFFF" d="M1294.054,311.24l2.317-5.155h1.404l-0.869,5.242v2.578h-2.853V311.24z"/>
			</g>
			<g>
				<path fill="#FFFFFF" d="M1273.277,295.787c0.01-1.4,0.131-2.371,0.362-2.911c0.231-0.541,0.84-1.255,1.825-2.144
					c0.955-1.13,1.636-1.998,2.041-2.606c0.406-0.608,0.609-1.342,0.609-2.201c0-1.023-0.273-1.811-0.818-2.36
					c-0.547-0.551-1.326-0.826-2.34-0.826c-0.879,0-1.627,0.239-2.244,0.717c-0.617,0.479-0.928,1.181-0.928,2.107h-2.723
					l-0.043-0.087c-0.028-1.555,0.52-2.8,1.645-3.736c1.124-0.937,2.555-1.405,4.293-1.405c1.902,0,3.379,0.485,4.432,1.456
					c1.053,0.97,1.579,2.324,1.579,4.062c0,1.246-0.341,2.385-1.021,3.418c-0.682,1.033-1.582,2.091-2.701,3.172
					c-0.521,0.521-0.838,0.99-0.949,1.404c-0.111,0.416-0.166,1.063-0.166,1.941H1273.277z M1276.232,301.725h-2.984v-3.013h2.984
					V301.725z"/>
			</g>
			<g>
				<path fill="#FFFFFF" d="M1224.715,319.29c0,2.693-0.596,4.757-1.787,6.19c-1.193,1.434-2.827,2.151-4.902,2.151
					c-2.076,0-3.718-0.72-4.924-2.158c-1.207-1.438-1.811-3.499-1.811-6.184v-4.996c0-2.685,0.602-4.748,1.803-6.191
					c1.202-1.443,2.836-2.165,4.902-2.165c2.076,0,3.715,0.722,4.916,2.165c1.203,1.443,1.803,3.507,1.803,6.191V319.29z
					 M1221.863,313.681c0-1.823-0.332-3.195-0.992-4.116c-0.662-0.922-1.619-1.382-2.875-1.382c-1.255,0-2.211,0.46-2.867,1.382
					c-0.657,0.921-0.985,2.293-0.985,4.116v6.179c0,1.823,0.333,3.2,0.999,4.131c0.666,0.932,1.627,1.396,2.883,1.396
					c1.255,0,2.208-0.463,2.859-1.389c0.652-0.926,0.979-2.306,0.979-4.139V313.681z"/>
			</g>
			<g>
				<path fill="#FFFFFF" d="M1204.558,287.108h-12.077v-2.403h12.077V287.108z M1204.558,293.162h-12.077v-2.404h12.077V293.162z"/>
			</g>
			<g>
				<path fill="#FFFFFF" d="M1139.147,325.387c1.391,0,2.503-0.524,3.339-1.574c0.834-1.049,1.252-2.609,1.252-4.682v-0.956
					c-0.473,0.686-1.064,1.204-1.773,1.557c-0.711,0.353-1.5,0.528-2.368,0.528c-2.038,0-3.655-0.63-4.852-1.89
					s-1.796-2.995-1.796-5.206c0-2.114,0.635-3.848,1.904-5.199s2.813-2.027,4.627-2.027c2.201,0,3.937,0.688,5.207,2.063
					c1.27,1.376,1.904,3.401,1.904,6.075v5.025c0,2.752-0.688,4.861-2.064,6.328c-1.375,1.469-3.169,2.202-5.38,2.202
					c-0.743,0-1.499-0.071-2.267-0.212s-1.455-0.357-2.063-0.648l0.434-2.195c0.57,0.299,1.161,0.509,1.774,0.63
					C1137.639,325.326,1138.346,325.387,1139.147,325.387z M1139.597,318.016c1.052,0,1.929-0.227,2.628-0.68
					c0.7-0.453,1.205-1.031,1.514-1.735v-1.822c0-1.841-0.355-3.233-1.064-4.179s-1.745-1.417-3.105-1.417
					c-1.043,0-1.932,0.465-2.666,1.396c-0.732,0.93-1.1,2.123-1.1,3.578c0,1.447,0.34,2.618,1.021,3.515
					S1138.429,318.016,1139.597,318.016z"/>
			</g>
			<g>
				<path fill="#FFFFFF" d="M1122.256,293.296c0,3.813-0.77,7.064-2.311,9.753c-1.539,2.689-3.149,4.482-4.829,5.381h-0.087
					l-0.551-1.564c1.305-1.014,2.45-2.682,3.439-5.004c0.99-2.321,1.484-5.167,1.484-8.537v-0.188c0-3.302-0.509-6.119-1.527-8.45
					c-1.02-2.332-2.15-4.028-3.396-5.091l0.551-1.563h0.087c1.68,0.897,3.29,2.693,4.829,5.387c1.541,2.694,2.311,5.942,2.311,9.746
					V293.296z"/>
			</g>
			<g>
				<path fill="#FFFFFF" d="M1068.461,311.745c0,1.101-0.309,2.063-0.927,2.889s-1.453,1.441-2.505,1.847
					c1.216,0.425,2.188,1.091,2.918,1.998c0.729,0.908,1.094,1.955,1.094,3.143c0,1.951-0.636,3.439-1.905,4.468
					s-2.918,1.543-4.945,1.543c-2.066,0-3.729-0.515-4.989-1.543s-1.89-2.517-1.89-4.468c0-1.188,0.356-2.234,1.071-3.143
					c0.715-0.907,1.68-1.573,2.896-1.998c-1.053-0.405-1.878-1.021-2.477-1.847c-0.598-0.825-0.897-1.788-0.897-2.889
					c0-1.854,0.571-3.285,1.716-4.294s2.658-1.514,4.541-1.514c1.853,0,3.365,0.505,4.539,1.514
					C1067.874,308.46,1068.461,309.891,1068.461,311.745z M1066.201,321.557c0-1.157-0.381-2.105-1.144-2.848
					s-1.728-1.113-2.896-1.113c-1.188,0-2.151,0.371-2.89,1.113c-0.739,0.742-1.108,1.69-1.108,2.848
					c0,1.194,0.367,2.132,1.101,2.812c0.733,0.679,1.71,1.019,2.926,1.019c1.188,0,2.152-0.342,2.896-1.026
					C1065.83,323.676,1066.201,322.741,1066.201,321.557z M1065.607,311.803c0-1.043-0.326-1.906-0.977-2.592
					c-0.652-0.686-1.476-1.028-2.469-1.028c-1.015,0-1.835,0.331-2.463,0.991c-0.627,0.662-0.941,1.538-0.941,2.629
					c0,1.072,0.316,1.932,0.949,2.578c0.632,0.646,1.46,0.97,2.483,0.97c1.004,0,1.824-0.323,2.462-0.97
					C1065.289,313.734,1065.607,312.875,1065.607,311.803z"/>
			</g>
			<g>
				<path fill="#FFFFFF" d="M1033.056,293.165c0-3.804,0.768-7.052,2.303-9.746c1.535-2.693,3.147-4.489,4.837-5.387l0.087,0.015
					l0.55,1.68c-1.322,1.033-2.474,2.688-3.454,4.967c-0.979,2.279-1.469,5.093-1.469,8.443v0.188c0,3.351,0.486,6.165,1.462,8.443
					s2.129,3.978,3.461,5.098l-0.55,1.564h-0.087c-1.689-0.898-3.302-2.691-4.837-5.381c-1.535-2.688-2.303-5.939-2.303-9.753
					V293.165z"/>
			</g>
			<g>
				<path fill="#FFFFFF" d="M991.305,308.486c-2.548,3.031-4.27,5.719-5.162,8.06c-0.894,2.341-1.538,5.177-1.934,8.508
					l-0.232,2.273h-2.853l0.231-2.273c0.405-3.321,1.192-6.29,2.361-8.906c1.168-2.616,2.766-5.17,4.793-7.661h-11.47v-2.244h14.265
					V308.486z"/>
			</g>
			<g>
				<path fill="#FFFFFF" d="M957.354,303.534h-2.433l8.805-22.896h2.419L957.354,303.534z"/>
			</g>
			<g>
				<path fill="#FFFFFF" d="M907.785,305.938c0.725,0,1.441,0.082,2.151,0.246c0.709,0.164,1.296,0.372,1.759,0.623l-0.607,2.187
					c-0.474-0.241-0.968-0.437-1.484-0.587c-0.518-0.149-1.123-0.224-1.818-0.224c-1.505,0-2.72,0.604-3.642,1.81
					c-0.922,1.207-1.383,2.781-1.383,4.722v0.333c0.617-0.541,1.324-0.963,2.121-1.268c0.797-0.304,1.653-0.456,2.57-0.456
					c1.883,0,3.384,0.651,4.504,1.955s1.68,2.954,1.68,4.953c0,2.182-0.596,3.961-1.788,5.337c-1.192,1.375-2.782,2.063-4.771,2.063
					c-2.066,0-3.775-0.749-5.127-2.245s-2.027-3.605-2.027-6.328v-4.026c0-2.703,0.753-4.895,2.26-6.575
					C903.687,306.777,905.556,305.938,907.785,305.938z M906.815,315.452c-0.976,0-1.806,0.198-2.491,0.593
					c-0.686,0.396-1.207,0.921-1.563,1.576v1.707c0,1.938,0.41,3.432,1.23,4.482s1.849,1.576,3.085,1.576
					c1.168,0,2.078-0.494,2.729-1.482s0.978-2.215,0.978-3.68c0-1.389-0.351-2.531-1.05-3.428
					C909.033,315.9,908.062,315.452,906.815,315.452z"/>
			</g>
			<g>
				<path fill="#FFFFFF" d="M874.617,296.047c0-1.178,0.341-2.208,1.021-3.092c0.681-0.883,1.696-1.769,3.048-2.657
					c-0.753-0.956-1.313-1.808-1.68-2.556s-0.55-1.519-0.55-2.311c0-1.631,0.471-2.889,1.412-3.772
					c0.941-0.883,2.237-1.325,3.888-1.325c1.525,0,2.767,0.439,3.723,1.318c0.955,0.879,1.434,1.936,1.434,3.172
					c0,0.946-0.254,1.764-0.761,2.454s-1.258,1.397-2.252,2.122l-1.578,1.158l4.923,5.923c0.396-0.627,0.705-1.322,0.928-2.085
					c0.222-0.763,0.333-1.568,0.333-2.419h2.549c0,1.274-0.188,2.453-0.564,3.534c-0.377,1.081-0.923,2.052-1.637,2.91l2.679,3.23
					l-0.029,0.072h-3.316l-1.23-1.478c-0.772,0.579-1.627,1.021-2.563,1.325c-0.938,0.304-1.907,0.456-2.911,0.456
					c-2.096,0-3.764-0.555-5.004-1.665C875.237,299.253,874.617,297.814,874.617,296.047z M881.482,299.783
					c0.695,0,1.38-0.117,2.056-0.354s1.313-0.576,1.912-1.02l-5.229-6.287l-0.578,0.419c-0.879,0.655-1.461,1.282-1.746,1.879
					c-0.285,0.598-0.427,1.138-0.427,1.619c0,1.089,0.343,1.985,1.028,2.688S880.179,299.783,881.482,299.783z M879.31,285.403
					c0,0.512,0.131,1.045,0.392,1.601c0.26,0.555,0.651,1.16,1.173,1.816l1.998-1.375c0.551-0.367,0.925-0.766,1.123-1.195
					c0.197-0.43,0.297-0.904,0.297-1.426c0-0.589-0.234-1.11-0.703-1.564c-0.469-0.453-1.078-0.681-1.832-0.681
					c-0.781,0-1.385,0.272-1.81,0.818S879.31,284.611,879.31,285.403z"/>
			</g>
			<g>
				<path fill="#FFFFFF" d="M822.636,317.813l1.216-11.57h10.558v2.534h-8.139l-0.695,5.923c0.443-0.328,0.939-0.602,1.484-0.818
					s1.175-0.335,1.89-0.354c1.94-0.02,3.469,0.613,4.584,1.896c1.114,1.284,1.673,3.013,1.673,5.185
					c0,2.115-0.567,3.814-1.702,5.098c-1.134,1.284-2.788,1.927-4.96,1.927c-1.786,0-3.272-0.487-4.46-1.463
					s-1.758-2.409-1.71-4.302l0.029-0.086h2.578c0,1.145,0.33,2.031,0.992,2.661c0.661,0.63,1.518,0.944,2.57,0.944
					c1.207,0,2.143-0.424,2.81-1.272c0.666-0.849,0.999-2.01,0.999-3.485c0-1.349-0.338-2.457-1.014-3.325
					c-0.676-0.867-1.607-1.302-2.795-1.302c-1.12,0-1.932,0.17-2.433,0.508c-0.503,0.338-0.869,0.854-1.101,1.549L822.636,317.813z"
					/>
			</g>
			<g>
				<path fill="#FFFFFF" d="M795.679,284.693c0-1.226,0.396-2.259,1.188-3.099c0.792-0.841,1.849-1.261,3.172-1.261
					c1.322,0,2.38,0.418,3.172,1.253c0.791,0.835,1.188,1.871,1.188,3.106v1.115c0,1.227-0.395,2.254-1.181,3.085
					c-0.787,0.83-1.837,1.245-3.15,1.245c-1.332,0-2.396-0.415-3.192-1.245c-0.797-0.831-1.195-1.858-1.195-3.085V284.693z
					 M797.793,285.809c0,0.715,0.195,1.32,0.587,1.817c0.391,0.497,0.953,0.746,1.687,0.746c0.705,0,1.251-0.246,1.637-0.739
					c0.386-0.492,0.58-1.1,0.58-1.824v-1.115c0-0.714-0.196-1.325-0.587-1.832c-0.392-0.507-0.943-0.76-1.658-0.76
					c-0.724,0-1.279,0.253-1.665,0.76c-0.387,0.507-0.58,1.118-0.58,1.832V285.809z M800.806,300.131l-1.579-0.97l10.297-16.48
					l1.579,0.97L800.806,300.131z M805.889,296.555c0-1.227,0.396-2.257,1.188-3.092c0.791-0.836,1.849-1.253,3.172-1.253
					c1.313,0,2.368,0.417,3.164,1.253c0.797,0.835,1.194,1.865,1.194,3.092v1.129c0,1.236-0.396,2.27-1.188,3.1
					c-0.791,0.83-1.839,1.245-3.143,1.245c-1.332,0-2.396-0.415-3.192-1.245c-0.797-0.83-1.195-1.863-1.195-3.1V296.555z
					 M808.003,297.684c0,0.725,0.195,1.335,0.586,1.832c0.392,0.498,0.954,0.746,1.688,0.746c0.705,0,1.25-0.248,1.637-0.746
					c0.387-0.497,0.579-1.107,0.579-1.832v-1.129c0-0.715-0.197-1.323-0.594-1.825c-0.396-0.502-0.946-0.753-1.65-0.753
					c-0.715,0-1.268,0.251-1.659,0.753c-0.391,0.502-0.586,1.11-0.586,1.825V297.684z"/>
			</g>
			<g>
				<path fill="#FFFFFF" d="M755.294,320.231h2.911v2.244h-2.911v4.852h-2.838v-4.852h-9.472v-1.608l9.297-14.625h3.013V320.231z
					 M746.025,320.231h6.431v-9.892l-0.088-0.014l-0.275,0.724L746.025,320.231z"/>
			</g>
			<g>
				<path fill="#FFFFFF" d="M731.041,296.279c0-0.859-0.309-1.598-0.927-2.216s-1.632-1.168-3.041-1.651
					c-1.95-0.589-3.423-1.375-4.418-2.36c-0.994-0.984-1.491-2.298-1.491-3.938c0-1.594,0.456-2.892,1.369-3.896
					c0.912-1.004,2.169-1.607,3.772-1.81v-3.201h2.287v3.216c1.623,0.231,2.88,0.924,3.773,2.078c0.893,1.153,1.34,2.7,1.34,4.641
					h-2.839c0-1.313-0.304-2.375-0.912-3.186s-1.453-1.217-2.534-1.217c-1.14,0-1.992,0.297-2.557,0.891s-0.847,1.407-0.847,2.44
					c0,0.937,0.291,1.694,0.876,2.273c0.584,0.579,1.639,1.13,3.164,1.651c1.979,0.637,3.446,1.432,4.402,2.382
					c0.956,0.951,1.434,2.243,1.434,3.874c0,1.66-0.497,2.981-1.491,3.961c-0.994,0.98-2.36,1.562-4.099,1.745v2.78h-2.273v-2.766
					c-1.66-0.174-3.022-0.779-4.084-1.817s-1.573-2.562-1.535-4.569l0.029-0.072h2.751c0,1.486,0.374,2.547,1.123,3.179
					c0.747,0.632,1.667,0.948,2.759,0.948c1.245,0,2.218-0.297,2.918-0.891C730.69,298.154,731.041,297.332,731.041,296.279z"/>
			</g>
			<g>
				<path fill="#FFFFFF" d="M669.894,315.467h2.491c1.264,0,2.159-0.316,2.686-0.949c0.526-0.632,0.789-1.513,0.789-2.643
					c0-1.207-0.299-2.124-0.897-2.752c-0.599-0.627-1.482-0.94-2.65-0.94c-1.109,0-2,0.325-2.672,0.978
					c-0.671,0.651-1.006,1.518-1.006,2.6h-2.737l-0.029-0.088c-0.048-1.593,0.529-2.946,1.73-4.062
					c1.202-1.115,2.773-1.673,4.714-1.673c1.95,0,3.505,0.52,4.664,1.557c1.158,1.038,1.737,2.518,1.737,4.439
					c0,0.868-0.264,1.735-0.789,2.599c-0.526,0.864-1.315,1.523-2.368,1.978c1.265,0.415,2.16,1.066,2.687,1.955
					c0.526,0.888,0.789,1.883,0.789,2.982c0,1.922-0.63,3.433-1.89,4.533s-2.87,1.651-4.83,1.651c-1.921,0-3.512-0.52-4.771-1.558
					c-1.26-1.037-1.865-2.444-1.817-4.221l0.043-0.087h2.723c0,1.105,0.341,1.985,1.021,2.64s1.614,0.98,2.802,0.98
					c1.207,0,2.153-0.327,2.839-0.98c0.685-0.654,1.028-1.621,1.028-2.9c0-1.299-0.305-2.256-0.913-2.871
					c-0.607-0.615-1.568-0.924-2.881-0.924h-2.491V315.467z"/>
			</g>
			<g>
				<path fill="#FFFFFF" d="M651.612,295.787h-3.692l-1.159,5.938h-2.187l1.159-5.938h-3.418v-2.027h3.823l0.985-5.069h-3.708
					v-2.027h4.113l1.188-6.024h2.187l-1.188,6.024h3.693l1.188-6.024h2.187l-1.188,6.024h2.882v2.027h-3.273l-0.984,5.069h3.171
					v2.027h-3.576l-1.159,5.938h-2.201L651.612,295.787z M648.325,293.76h3.693l0.984-5.069h-3.692L648.325,293.76z"/>
			</g>
			<g>
				<path fill="#FFFFFF" d="M601.745,327.327h-13.672v-1.968l6.908-7.662c1.236-1.381,2.073-2.477,2.514-3.288
					c0.438-0.811,0.658-1.641,0.658-2.49c0-1.053-0.307-1.938-0.92-2.657c-0.613-0.72-1.426-1.079-2.44-1.079
					c-1.458,0-2.532,0.374-3.222,1.122c-0.69,0.748-1.035,1.798-1.035,3.149h-2.737l-0.029-0.087
					c-0.048-1.814,0.556-3.34,1.811-4.576c1.255-1.235,2.993-1.854,5.213-1.854c1.893,0,3.401,0.553,4.526,1.658
					s1.688,2.513,1.688,4.222c0,1.149-0.341,2.3-1.021,3.454c-0.681,1.153-1.635,2.392-2.86,3.715l-5.547,6.024l0.029,0.072h10.138
					V327.327z"/>
			</g>
			<g>
				<path fill="#FFFFFF" d="M568.401,286.984l2.316-5.156h1.405l-0.869,5.243v2.577h-2.853V286.984z M573.166,286.984l2.316-5.156
					h1.405l-0.869,5.243v2.577h-2.853V286.984z"/>
			</g>
			<g>
				<g>
					<path fill="#FFFFFF" d="M495.109,295.363h-2.853v-14.164h2.853V295.363z M495.124,302.285h-2.867v-2.954h2.867V302.285z"/>
				</g>
			</g>
			<g>
				<path fill="#FFFFFF" d="M428.522,316.609l-0.205,0.89c0.741,0.125,1.357,0.422,1.849,0.89c0.49,0.468,0.735,1.158,0.735,2.071
					c0,1.095-0.45,1.968-1.352,2.618c-0.902,0.65-2.191,0.976-3.868,0.976l-0.12-1.865c0.821,0,1.483-0.14,1.985-0.419
					c0.503-0.28,0.753-0.699,0.753-1.258c0-0.548-0.205-0.931-0.616-1.147c-0.41-0.217-1.112-0.365-2.104-0.444l0.548-2.311H428.522
					z"/>
			</g>
			<g>
				<path fill-rule="evenodd" clip-rule="evenodd" fill="#FFFFFF" d="M1097.217,644.678c0,0.741-0.606,1.348-1.348,1.348H721.661
					c-0.742,0-1.348-0.606-1.348-1.348v-63.252c0-0.741,0.606-1.348,1.348-1.348h374.208c0.742,0,1.348,0.606,1.348,1.348V644.678z"
					/>
			</g>
			<g>
				<path fill-rule="evenodd" clip-rule="evenodd" fill="#FFFFFF" d="M1254.312,568.895c0,0.741-0.606,1.348-1.348,1.348h-63.248
					c-0.742,0-1.348-0.606-1.348-1.348v-63.248c0-0.741,0.606-1.348,1.348-1.348h63.248c0.742,0,1.348,0.606,1.348,1.348V568.895z"
					/>
			</g>
			<g>
				<path fill-rule="evenodd" clip-rule="evenodd" fill="#FFFFFF" d="M1254.312,568.895c0,0.741-0.606,1.348-1.348,1.348h-63.248
					c-0.742,0-1.348-0.606-1.348-1.348v-63.248c0-0.741,0.606-1.348,1.348-1.348h63.248c0.742,0,1.348,0.606,1.348,1.348V568.895z"
					/>
			</g>
			<g>
				<path d="M1222.827,558.623h-3.372v-3.491h3.372V558.623z"/>
			</g>
			<g>
				<path d="M1221.745,515.321h-3.372v-3.491h3.372V515.321z M1221.745,530.313h-3.372v-3.491h3.372V530.313z"/>
			</g>
			<g>
				<path fill-rule="evenodd" clip-rule="evenodd" fill="#FFFFFF" d="M1176.394,568.895c0,0.741-0.606,1.348-1.348,1.348h-63.248
					c-0.742,0-1.348-0.606-1.348-1.348v-63.248c0-0.741,0.606-1.348,1.348-1.348h63.248c0.742,0,1.348,0.606,1.348,1.348V568.895z"
					/>
			</g>
			<g>
				<path fill-rule="evenodd" clip-rule="evenodd" fill="#FFFFFF" d="M1176.394,568.895c0,0.741-0.606,1.348-1.348,1.348h-63.248
					c-0.742,0-1.348-0.606-1.348-1.348v-63.248c0-0.741,0.606-1.348,1.348-1.348h63.248c0.742,0,1.348,0.606,1.348,1.348V568.895z"
					/>
			</g>
			<g>
				<path d="M1145.412,557.802l-2.568,5.237h-2.002l1.197-5.408v-2.79h3.373V557.802z"/>
			</g>
			<g>
				<path d="M1145.248,530.364l-2.566,5.237h-2.003l1.198-5.408v-2.79h3.371V530.364z M1145.129,516.193h-3.372v-3.492h3.372
					V516.193z"/>
			</g>
			<g>
				<path fill-rule="evenodd" clip-rule="evenodd" fill="#FFFFFF" d="M1098.471,568.895c0,0.741-0.606,1.348-1.348,1.348h-63.241
					c-0.742,0-1.348-0.606-1.348-1.348v-63.248c0-0.741,0.606-1.348,1.348-1.348h63.241c0.742,0,1.348,0.606,1.348,1.348V568.895z"
					/>
			</g>
			<g>
				<path d="M1057.565,525.614l7.941,20.247h0.103l7.941-20.247h4.313v24.92h-3.371v-9.858l0.342-10.132l-0.085-0.018l-8.079,20.008
					h-2.241l-8.044-19.956l-0.086,0.017l0.325,10.081v9.858h-3.371v-24.92H1057.565z"/>
			</g>
			<g>
				<path fill-rule="evenodd" clip-rule="evenodd" fill="#FFFFFF" d="M1020.554,568.895c0,0.741-0.606,1.348-1.348,1.348h-63.248
					c-0.742,0-1.348-0.606-1.348-1.348v-63.248c0-0.741,0.606-1.348,1.348-1.348h63.248c0.742,0,1.348,0.606,1.348,1.348V568.895z"
					/>
			</g>
			<g>
				<path d="M997.074,550.534h-3.372l-11.997-19.271l-0.103,0.034v19.237h-3.372v-24.92h3.372l11.998,19.237l0.102-0.034v-19.203
					h3.372V550.534z"/>
			</g>
			<g>
				<path fill-rule="evenodd" clip-rule="evenodd" fill="#FFFFFF" d="M942.635,568.895c0,0.741-0.606,1.348-1.348,1.348H878.04
					c-0.742,0-1.348-0.606-1.348-1.348v-63.248c0-0.741,0.606-1.348,1.348-1.348h63.247c0.742,0,1.348,0.606,1.348,1.348V568.895z"
					/>
			</g>
			<g>
				<path d="M901.619,550.534v-24.92h8.13c2.602,0,4.638,0.563,6.109,1.687c1.473,1.123,2.208,2.81,2.208,5.057
					c0,1.107-0.354,2.097-1.061,2.97c-0.708,0.873-1.638,1.521-2.79,1.942c1.506,0.32,2.689,1.056,3.552,2.208
					c0.86,1.153,1.292,2.493,1.292,4.022c0,2.282-0.739,4.024-2.217,5.229s-3.482,1.806-6.016,1.806H901.619z M904.991,536.209
					h5.459c1.256,0,2.276-0.346,3.064-1.035c0.786-0.69,1.18-1.652,1.18-2.885c0-1.346-0.425-2.353-1.274-3.021
					c-0.851-0.667-2.073-1.001-3.671-1.001h-4.758V536.209z M904.991,538.861v9.02h5.836c1.528,0,2.722-0.378,3.577-1.134
					s1.283-1.827,1.283-3.214c0-1.455-0.356-2.597-1.069-3.427s-1.812-1.245-3.295-1.245H904.991z"/>
			</g>
			<g>
				<path fill-rule="evenodd" clip-rule="evenodd" fill="#FFFFFF" d="M864.717,568.895c0,0.741-0.606,1.348-1.348,1.348H800.12
					c-0.742,0-1.348-0.606-1.348-1.348v-63.248c0-0.741,0.606-1.348,1.348-1.348h63.249c0.742,0,1.348,0.606,1.348,1.348V568.895z"
					/>
			</g>
			<g>
				<path d="M831.222,544.338l0.564,1.969h0.104l0.563-1.969l6.437-18.724h3.645l-9.259,24.92h-2.893l-9.259-24.92h3.662
					L831.222,544.338z"/>
			</g>
			<g>
				<path fill-rule="evenodd" clip-rule="evenodd" fill="#FFFFFF" d="M786.795,568.895c0,0.741-0.606,1.348-1.348,1.348h-63.245
					c-0.742,0-1.348-0.606-1.348-1.348v-63.248c0-0.741,0.606-1.348,1.348-1.348h63.245c0.742,0,1.348,0.606,1.348,1.348V568.895z"
					/>
			</g>
			<g>
				<path d="M763.509,542.541l0.034,0.104c0.046,2.339-0.776,4.299-2.465,5.879s-3.919,2.37-6.692,2.37
					c-2.817,0-5.114-0.999-6.888-2.995c-1.775-1.997-2.662-4.529-2.662-7.6v-4.433c0-3.069,0.887-5.604,2.662-7.607
					c1.773-2.003,4.07-3.004,6.888-3.004c2.818,0,5.061,0.751,6.727,2.251s2.477,3.488,2.431,5.965l-0.034,0.103h-3.235
					c0-1.746-0.513-3.126-1.54-4.142s-2.477-1.523-4.348-1.523c-1.883,0-3.383,0.758-4.5,2.274
					c-1.119,1.517-1.678,3.397-1.678,5.643v4.464c0,2.269,0.559,4.161,1.678,5.677c1.117,1.517,2.617,2.274,4.5,2.274
					c1.871,0,3.32-0.505,4.348-1.515s1.54-2.404,1.54-4.185H763.509z"/>
			</g>
			<g>
				<path fill-rule="evenodd" clip-rule="evenodd" fill="#FFFFFF" d="M708.875,568.895c0,0.741-0.606,1.348-1.348,1.348h-63.243
					c-0.742,0-1.348-0.606-1.348-1.348v-63.248c0-0.741,0.606-1.348,1.348-1.348h63.243c0.742,0,1.348,0.606,1.348,1.348V568.895z"
					/>
			</g>
			<g>
				<path d="M676.047,535.336l5.819-9.722h4.073l-7.907,12.357l8.078,12.563h-4.021l-5.974-9.893l-5.99,9.893h-4.073l8.078-12.563
					l-7.907-12.357h4.039L676.047,535.336z"/>
			</g>
			<g>
				<path fill-rule="evenodd" clip-rule="evenodd" fill="#FFFFFF" d="M1228.486,490.463c0,0.741-0.606,1.348-1.348,1.348h-63.247
					c-0.742,0-1.348-0.606-1.348-1.348v-63.248c0-0.741,0.606-1.348,1.348-1.348h63.247c0.742,0,1.348,0.606,1.348,1.348V490.463z"
					/>
			</g>
			<g>
				<path d="M1192.436,469.115h11.791v2.653h-15.164v-24.92h3.373V469.115z"/>
			</g>
			<g>
				<path fill-rule="evenodd" clip-rule="evenodd" fill="#FFFFFF" d="M1150.565,490.463c0,0.741-0.606,1.348-1.348,1.348h-63.248
					c-0.742,0-1.348-0.606-1.348-1.348v-63.248c0-0.741,0.606-1.348,1.348-1.348h63.248c0.742,0,1.348,0.606,1.348,1.348V490.463z"
					/>
			</g>
			<g>
				<path d="M1115.627,460.523h-2.91v11.245h-3.371v-24.92h3.371v11.022h2.602l8.916-11.022h3.732l0.051,0.086l-9.67,11.964
					l10.371,12.784l-0.051,0.086h-4.021L1115.627,460.523z"/>
			</g>
			<g>
				<path fill-rule="evenodd" clip-rule="evenodd" fill="#FFFFFF" d="M1072.643,490.463c0,0.741-0.606,1.348-1.348,1.348h-63.243
					c-0.742,0-1.348-0.606-1.348-1.348v-63.248c0-0.741,0.606-1.348,1.348-1.348h63.243c0.742,0,1.348,0.606,1.348,1.348V490.463z"
					/>
			</g>
			<g>
				<path d="M1043.063,446.849h3.372v18.022c0,2.225-0.705,3.99-2.114,5.297s-3.237,1.96-5.485,1.96
					c-2.396,0-4.301-0.61-5.716-1.831s-2.094-2.989-2.037-5.306l0.034-0.103h3.234c0,1.54,0.391,2.689,1.173,3.448
					c0.781,0.759,1.886,1.138,3.312,1.138c1.243,0,2.26-0.418,3.047-1.257c0.787-0.838,1.181-1.958,1.181-3.36V446.849z"/>
			</g>
			<g>
				<path fill-rule="evenodd" clip-rule="evenodd" fill="#FFFFFF" d="M994.727,490.463c0,0.741-0.606,1.348-1.348,1.348h-63.246
					c-0.742,0-1.348-0.606-1.348-1.348v-63.248c0-0.741,0.606-1.348,1.348-1.348h63.246c0.742,0,1.348,0.606,1.348,1.348V490.463z"
					/>
			</g>
			<g>
				<path d="M971.13,471.769h-3.372v-11.005h-12.1v11.005h-3.372v-24.92h3.372v11.262h12.1v-11.262h3.372V471.769z"/>
			</g>
			<g>
				<path fill-rule="evenodd" clip-rule="evenodd" fill="#FFFFFF" d="M916.807,490.463c0,0.741-0.606,1.348-1.348,1.348h-63.247
					c-0.742,0-1.348-0.606-1.348-1.348v-63.248c0-0.741,0.606-1.348,1.348-1.348h63.247c0.742,0,1.348,0.606,1.348,1.348V490.463z"
					/>
			</g>
			<g>
				<path d="M892.988,468.465c-0.593,0.913-1.622,1.752-3.089,2.517s-3.363,1.146-5.69,1.146c-2.979,0-5.44-0.952-7.386-2.858
					c-1.945-1.905-2.918-4.37-2.918-7.394v-5.135c0-3.023,0.907-5.487,2.722-7.394c1.813-1.905,4.153-2.858,7.017-2.858
					c2.853,0,5.095,0.702,6.727,2.105s2.465,3.212,2.499,5.426l-0.034,0.103h-3.218c-0.103-1.449-0.653-2.642-1.651-3.577
					c-0.999-0.936-2.439-1.403-4.322-1.403c-1.905,0-3.439,0.713-4.604,2.138s-1.746,3.231-1.746,5.421v5.164
					c0,2.212,0.65,4.033,1.951,5.464s2.955,2.146,4.964,2.146c1.415,0,2.572-0.188,3.474-0.563c0.902-0.375,1.547-0.802,1.935-1.28
					v-5.652h-5.46v-2.652h8.831V468.465z"/>
			</g>
			<g>
				<path fill-rule="evenodd" clip-rule="evenodd" fill="#FFFFFF" d="M838.887,490.463c0,0.741-0.606,1.348-1.348,1.348h-63.242
					c-0.742,0-1.348-0.606-1.348-1.348v-63.248c0-0.741,0.606-1.348,1.348-1.348h63.242c0.742,0,1.348,0.606,1.348,1.348V490.463z"
					/>
			</g>
			<g>
				<g>
					<path d="M813.487,460.746h-11.364v11.022h-3.372v-24.92h16.482v2.653h-13.11v8.592h11.364V460.746z"/>
				</g>
			</g>
			<g>
				<path fill-rule="evenodd" clip-rule="evenodd" fill="#FFFFFF" d="M760.968,490.463c0,0.741-0.606,1.348-1.348,1.348h-63.247
					c-0.742,0-1.348-0.606-1.348-1.348v-63.248c0-0.741,0.606-1.348,1.348-1.348h63.247c0.742,0,1.348,0.606,1.348,1.348V490.463z"
					/>
			</g>
			<g>
				<path d="M719.504,471.769v-24.92h7.651c3.263,0,5.881,1.002,7.855,3.004c1.974,2.003,2.961,4.59,2.961,7.762v3.406
					c0,3.183-0.987,5.771-2.961,7.761c-1.975,1.992-4.593,2.987-7.855,2.987H719.504z M722.876,449.502v19.613h4.279
					c2.305,0,4.121-0.758,5.45-2.273c1.329-1.517,1.994-3.46,1.994-5.832v-3.437c0-2.349-0.665-4.28-1.994-5.797
					s-3.146-2.274-5.45-2.274H722.876z"/>
			</g>
			<g>
				<path fill-rule="evenodd" clip-rule="evenodd" fill="#FFFFFF" d="M683.051,490.463c0,0.741-0.606,1.348-1.348,1.348h-63.246
					c-0.742,0-1.348-0.606-1.348-1.348v-63.248c0-0.741,0.606-1.348,1.348-1.348h63.246c0.742,0,1.348,0.606,1.348,1.348V490.463z"
					/>
			</g>
			<g>
				<path d="M655.784,465.493c0-1.134-0.429-2.084-1.284-2.85c-0.856-0.766-2.373-1.409-4.553-1.932
					c-2.636-0.629-4.692-1.556-6.17-2.779s-2.216-2.762-2.216-4.615c0-1.944,0.795-3.567,2.387-4.872
					c1.592-1.304,3.654-1.956,6.188-1.956c2.727,0,4.897,0.748,6.512,2.242c1.614,1.495,2.394,3.229,2.336,5.203l-0.034,0.103
					h-3.217c0-1.46-0.482-2.641-1.446-3.543c-0.965-0.9-2.348-1.352-4.15-1.352c-1.678,0-2.964,0.379-3.859,1.138
					s-1.344,1.749-1.344,2.97c0,1.084,0.484,1.988,1.455,2.713c0.97,0.725,2.544,1.36,4.724,1.908
					c2.624,0.65,4.621,1.608,5.989,2.875c1.37,1.267,2.055,2.836,2.055,4.707c0,2.008-0.821,3.623-2.465,4.844
					c-1.643,1.221-3.788,1.831-6.435,1.831c-2.487,0-4.687-0.677-6.599-2.028c-1.911-1.352-2.838-3.158-2.78-5.417l0.033-0.103
					h3.218c0,1.598,0.588,2.813,1.763,3.646s2.63,1.249,4.365,1.249c1.7,0,3.046-0.357,4.039-1.071
					C655.287,467.688,655.784,466.719,655.784,465.493z"/>
			</g>
			<g>
				<path fill-rule="evenodd" clip-rule="evenodd" fill="#FFFFFF" d="M1212.472,413.12c0,0.741-0.606,1.348-1.348,1.348h-63.246
					c-0.742,0-1.348-0.606-1.348-1.348v-63.247c0-0.741,0.606-1.348,1.348-1.348h63.246c0.742,0,1.348,0.606,1.348,1.348V413.12z"/>
			</g>
			<g>
				<path d="M1189.615,383.953c0,3.047-0.944,5.574-2.832,7.582c-1.889,2.008-4.339,3.012-7.352,3.012
					c-2.909,0-5.273-1.004-7.094-3.012s-2.729-4.535-2.729-7.582v-4.433c0-3.035,0.909-5.563,2.729-7.582s4.185-3.029,7.094-3.029
					c3.013,0,5.463,1.007,7.352,3.021c1.888,2.014,2.832,4.544,2.832,7.591V383.953z M1186.244,379.486
					c0-2.282-0.616-4.153-1.85-5.614c-1.231-1.46-2.887-2.19-4.963-2.19c-1.963,0-3.527,0.73-4.697,2.19
					c-1.17,1.461-1.755,3.332-1.755,5.614v4.467c0,2.305,0.585,4.188,1.755,5.648c1.17,1.46,2.734,2.19,4.697,2.19
					c2.088,0,3.746-0.728,4.973-2.183s1.84-3.34,1.84-5.656V379.486z"/>
			</g>
			<g>
				<path fill-rule="evenodd" clip-rule="evenodd" fill="#FFFFFF" d="M1134.551,413.12c0,0.741-0.606,1.348-1.348,1.348h-63.249
					c-0.742,0-1.348-0.606-1.348-1.348v-63.247c0-0.741,0.606-1.348,1.348-1.348h63.249c0.742,0,1.348,0.606,1.348,1.348V413.12z"/>
			</g>
			<g>
				<path d="M1103.396,394.188h-3.389v-24.919h3.389V394.188z"/>
			</g>
			<g>
				<path fill-rule="evenodd" clip-rule="evenodd" fill="#FFFFFF" d="M1056.629,413.12c0,0.741-0.606,1.348-1.348,1.348h-63.239
					c-0.742,0-1.348-0.606-1.348-1.348v-63.247c0-0.741,0.606-1.348,1.348-1.348h63.239c0.742,0,1.348,0.606,1.348,1.348V413.12z"/>
			</g>
			<g>
				<path d="M1033.229,369.269v16.893c0,2.716-0.882,4.792-2.645,6.229s-4.064,2.156-6.906,2.156c-2.738,0-4.96-0.721-6.666-2.164
					c-1.705-1.443-2.559-3.518-2.559-6.222v-16.893h3.372v16.88c0,1.881,0.536,3.309,1.608,4.284
					c1.072,0.975,2.487,1.462,4.244,1.462c1.849,0,3.341-0.487,4.477-1.462c1.135-0.976,1.703-2.403,1.703-4.284v-16.88H1033.229z"
					/>
			</g>
			<g>
				<path fill-rule="evenodd" clip-rule="evenodd" fill="#FFFFFF" d="M978.711,413.12c0,0.741-0.606,1.348-1.348,1.348h-63.245
					c-0.742,0-1.348-0.606-1.348-1.348v-63.247c0-0.741,0.606-1.348,1.348-1.348h63.245c0.742,0,1.348,0.606,1.348,1.348V413.12z"/>
			</g>
			<g>
				<path d="M940.857,391.535h13.932v2.652h-17.731v-2.516l13.316-19.75h-13.128v-2.653h16.979v2.413L940.857,391.535z"/>
			</g>
			<g>
				<path fill-rule="evenodd" clip-rule="evenodd" fill="#FFFFFF" d="M900.793,413.12c0,0.741-0.606,1.348-1.348,1.348h-63.248
					c-0.742,0-1.348-0.606-1.348-1.348v-63.247c0-0.741,0.606-1.348,1.348-1.348h63.248c0.742,0,1.348,0.606,1.348,1.348V413.12z"/>
			</g>
			<g>
				<path d="M877.657,371.922h-8.01v22.266h-3.372v-22.266h-7.992v-2.653h19.374V371.922z"/>
			</g>
			<g>
				<path fill-rule="evenodd" clip-rule="evenodd" fill="#FFFFFF" d="M822.877,413.12c0,0.741-0.606,1.348-1.348,1.348h-63.247
					c-0.742,0-1.348-0.606-1.348-1.348v-63.247c0-0.741,0.606-1.348,1.348-1.348h63.247c0.742,0,1.348,0.606,1.348,1.348V413.12z"/>
			</g>
			<g>
				<path d="M784.897,383.389v10.799h-3.371v-24.902h9.02c2.727,0,4.809,0.605,6.246,1.814c1.438,1.21,2.157,2.967,2.157,5.271
					c0,1.278-0.333,2.391-1.001,3.338s-1.641,1.7-2.918,2.259c1.369,0.445,2.353,1.167,2.952,2.165
					c0.599,0.998,0.898,2.233,0.898,3.705v2.345c0,0.776,0.086,1.472,0.257,2.089c0.171,0.615,0.467,1.118,0.89,1.506v0.41h-3.474
					c-0.445-0.388-0.73-0.958-0.856-1.711c-0.125-0.753-0.188-1.529-0.188-2.328v-2.275c0-1.347-0.393-2.431-1.181-3.252
					c-0.787-0.822-1.843-1.232-3.166-1.232H784.897z M784.897,380.735h5.306c1.905,0,3.277-0.361,4.116-1.085
					c0.839-0.723,1.258-1.824,1.258-3.305c0-1.4-0.407-2.485-1.223-3.254c-0.816-0.769-2.086-1.153-3.809-1.153h-5.648V380.735z"/>
			</g>
			<g>
				<path fill-rule="evenodd" clip-rule="evenodd" fill="#FFFFFF" d="M744.953,413.12c0,0.741-0.606,1.348-1.348,1.348h-63.246
					c-0.742,0-1.348-0.606-1.348-1.348v-63.247c0-0.741,0.606-1.348,1.348-1.348h63.246c0.742,0,1.348,0.606,1.348,1.348V413.12z"/>
			</g>
			<g>
				<path d="M719.769,382.635h-11.416v8.9h13.162v2.652H704.98v-24.919h16.346v2.653h-12.974v8.061h11.416V382.635z"/>
			</g>
			<g>
				<path fill-rule="evenodd" clip-rule="evenodd" fill="#FFFFFF" d="M667.035,413.12c0,0.741-0.606,1.348-1.349,1.348h-63.245
					c-0.742,0-1.348-0.606-1.348-1.348v-63.247c0-0.741,0.606-1.348,1.348-1.348h63.245c0.742,0,1.349,0.606,1.349,1.348V413.12z"/>
			</g>
			<g>
				<path d="M626.833,385.563l0.463,3.114l0.102,0.018l0.668-3.132l4.57-16.294h2.978l4.604,16.294l0.684,3.2h0.103l0.497-3.2
					l3.713-16.294h3.372l-6.007,24.919h-3.013l-4.911-17.285l-0.445-2.242h-0.103l-0.429,2.242l-4.997,17.285h-3.013l-5.99-24.919
					h3.355L626.833,385.563z"/>
			</g>
			<g>
				<path fill-rule="evenodd" clip-rule="evenodd" fill="#FFFFFF" d="M1240.242,335.828c0,0.741-0.606,1.348-1.348,1.348h-63.249
					c-0.742,0-1.348-0.606-1.348-1.348v-63.252c0-0.741,0.606-1.348,1.348-1.348h63.249c0.742,0,1.348,0.606,1.348,1.348V335.828z"
					/>
			</g>
			<g>
				<path d="M1224.715,319.29c0,2.693-0.596,4.757-1.787,6.19c-1.193,1.434-2.827,2.151-4.902,2.151
					c-2.076,0-3.718-0.72-4.924-2.158c-1.207-1.438-1.811-3.499-1.811-6.184v-4.996c0-2.685,0.602-4.748,1.803-6.191
					c1.202-1.443,2.836-2.165,4.902-2.165c2.076,0,3.715,0.722,4.916,2.165c1.203,1.443,1.803,3.507,1.803,6.191V319.29z
					 M1221.863,313.681c0-1.823-0.332-3.195-0.992-4.116c-0.662-0.922-1.619-1.382-2.875-1.382c-1.255,0-2.211,0.46-2.867,1.382
					c-0.657,0.921-0.985,2.293-0.985,4.116v6.179c0,1.823,0.333,3.2,0.999,4.131c0.666,0.932,1.627,1.396,2.883,1.396
					c1.255,0,2.208-0.463,2.859-1.389c0.652-0.926,0.979-2.306,0.979-4.139V313.681z"/>
			</g>
			<g>
				<path d="M1204.558,287.108h-12.077v-2.403h12.077V287.108z M1204.558,293.162h-12.077v-2.404h12.077V293.162z"/>
			</g>
			<g>
				<path fill-rule="evenodd" clip-rule="evenodd" fill="#FFFFFF" d="M1162.322,335.828c0,0.741-0.606,1.348-1.348,1.348h-63.248
					c-0.742,0-1.348-0.606-1.348-1.348v-63.252c0-0.741,0.606-1.348,1.348-1.348h63.248c0.742,0,1.348,0.606,1.348,1.348V335.828z"
					/>
			</g>
			<g>
				<path d="M1139.147,325.387c1.391,0,2.503-0.524,3.339-1.574c0.834-1.049,1.252-2.609,1.252-4.682v-0.956
					c-0.473,0.686-1.064,1.204-1.773,1.557c-0.711,0.353-1.5,0.528-2.368,0.528c-2.038,0-3.655-0.63-4.852-1.89
					s-1.796-2.995-1.796-5.206c0-2.114,0.635-3.848,1.904-5.199s2.813-2.027,4.627-2.027c2.201,0,3.937,0.688,5.207,2.063
					c1.27,1.376,1.904,3.401,1.904,6.075v5.025c0,2.752-0.688,4.861-2.064,6.328c-1.375,1.469-3.169,2.202-5.38,2.202
					c-0.743,0-1.499-0.071-2.267-0.212s-1.455-0.357-2.063-0.648l0.434-2.195c0.57,0.299,1.161,0.509,1.774,0.63
					C1137.639,325.326,1138.346,325.387,1139.147,325.387z M1139.597,318.016c1.052,0,1.929-0.227,2.628-0.68
					c0.7-0.453,1.205-1.031,1.514-1.735v-1.822c0-1.841-0.355-3.233-1.064-4.179s-1.745-1.417-3.105-1.417
					c-1.043,0-1.932,0.465-2.666,1.396c-0.732,0.93-1.1,2.123-1.1,3.578c0,1.447,0.34,2.618,1.021,3.515
					S1138.429,318.016,1139.597,318.016z"/>
			</g>
			<g>
				<path d="M1122.256,293.296c0,3.813-0.77,7.064-2.311,9.753c-1.539,2.689-3.149,4.482-4.829,5.381h-0.087l-0.551-1.564
					c1.305-1.014,2.45-2.682,3.439-5.004c0.99-2.321,1.484-5.167,1.484-8.537v-0.188c0-3.302-0.509-6.119-1.527-8.45
					c-1.02-2.332-2.15-4.028-3.396-5.091l0.551-1.563h0.087c1.68,0.897,3.29,2.693,4.829,5.387c1.541,2.694,2.311,5.942,2.311,9.746
					V293.296z"/>
			</g>
			<g>
				<path fill-rule="evenodd" clip-rule="evenodd" fill="#FFFFFF" d="M1084.4,335.828c0,0.741-0.606,1.348-1.348,1.348h-63.242
					c-0.742,0-1.348-0.606-1.348-1.348v-63.252c0-0.741,0.606-1.348,1.348-1.348h63.242c0.742,0,1.348,0.606,1.348,1.348V335.828z"
					/>
			</g>
			<g>
				<path d="M1068.461,311.745c0,1.101-0.309,2.063-0.927,2.889s-1.453,1.441-2.505,1.847c1.216,0.425,2.188,1.091,2.918,1.998
					c0.729,0.908,1.094,1.955,1.094,3.143c0,1.951-0.636,3.439-1.905,4.468s-2.918,1.543-4.945,1.543
					c-2.066,0-3.729-0.515-4.989-1.543s-1.89-2.517-1.89-4.468c0-1.188,0.356-2.234,1.071-3.143c0.715-0.907,1.68-1.573,2.896-1.998
					c-1.053-0.405-1.878-1.021-2.477-1.847c-0.598-0.825-0.897-1.788-0.897-2.889c0-1.854,0.571-3.285,1.716-4.294
					s2.658-1.514,4.541-1.514c1.853,0,3.365,0.505,4.539,1.514C1067.874,308.46,1068.461,309.891,1068.461,311.745z
					 M1066.201,321.557c0-1.157-0.381-2.105-1.144-2.848s-1.728-1.113-2.896-1.113c-1.188,0-2.151,0.371-2.89,1.113
					c-0.739,0.742-1.108,1.69-1.108,2.848c0,1.194,0.367,2.132,1.101,2.812c0.733,0.679,1.71,1.019,2.926,1.019
					c1.188,0,2.152-0.342,2.896-1.026C1065.83,323.676,1066.201,322.741,1066.201,321.557z M1065.607,311.803
					c0-1.043-0.326-1.906-0.977-2.592c-0.652-0.686-1.476-1.028-2.469-1.028c-1.015,0-1.835,0.331-2.463,0.991
					c-0.627,0.662-0.941,1.538-0.941,2.629c0,1.072,0.316,1.932,0.949,2.578c0.632,0.646,1.46,0.97,2.483,0.97
					c1.004,0,1.824-0.323,2.462-0.97C1065.289,313.734,1065.607,312.875,1065.607,311.803z"/>
			</g>
			<g>
				<path d="M1033.056,293.165c0-3.804,0.768-7.052,2.303-9.746c1.535-2.693,3.147-4.489,4.837-5.387l0.087,0.015l0.55,1.68
					c-1.322,1.033-2.474,2.688-3.454,4.967c-0.979,2.279-1.469,5.093-1.469,8.443v0.188c0,3.351,0.486,6.165,1.462,8.443
					s2.129,3.978,3.461,5.098l-0.55,1.564h-0.087c-1.689-0.898-3.302-2.691-4.837-5.381c-1.535-2.688-2.303-5.939-2.303-9.753
					V293.165z"/>
			</g>
			<g>
				<path fill-rule="evenodd" clip-rule="evenodd" fill="#FFFFFF" d="M1006.485,335.828c0,0.741-0.606,1.348-1.348,1.348h-63.249
					c-0.742,0-1.348-0.606-1.348-1.348v-63.252c0-0.741,0.606-1.348,1.348-1.348h63.249c0.742,0,1.348,0.606,1.348,1.348V335.828z"
					/>
			</g>
			<g>
				<path d="M991.305,308.486c-2.548,3.031-4.27,5.719-5.162,8.06c-0.894,2.341-1.538,5.177-1.934,8.508l-0.232,2.273h-2.853
					l0.231-2.273c0.405-3.321,1.192-6.29,2.361-8.906c1.168-2.616,2.766-5.17,4.793-7.661h-11.47v-2.244h14.265V308.486z"/>
			</g>
			<g>
				<path d="M957.354,303.534h-2.433l8.805-22.896h2.419L957.354,303.534z"/>
			</g>
			<g>
				<path fill-rule="evenodd" clip-rule="evenodd" fill="#FFFFFF" d="M928.565,335.828c0,0.741-0.606,1.348-1.348,1.348H863.97
					c-0.742,0-1.348-0.606-1.348-1.348v-63.252c0-0.741,0.606-1.348,1.348-1.348h63.247c0.742,0,1.348,0.606,1.348,1.348V335.828z"
					/>
			</g>
			<g>
				<path d="M907.785,305.938c0.725,0,1.441,0.082,2.151,0.246c0.709,0.164,1.296,0.372,1.759,0.623l-0.607,2.187
					c-0.474-0.241-0.968-0.437-1.484-0.587c-0.518-0.149-1.123-0.224-1.818-0.224c-1.505,0-2.72,0.604-3.642,1.81
					c-0.922,1.207-1.383,2.781-1.383,4.722v0.333c0.617-0.541,1.324-0.963,2.121-1.268c0.797-0.304,1.653-0.456,2.57-0.456
					c1.883,0,3.384,0.651,4.504,1.955s1.68,2.954,1.68,4.953c0,2.182-0.596,3.961-1.788,5.337c-1.192,1.375-2.782,2.063-4.771,2.063
					c-2.066,0-3.775-0.749-5.127-2.245s-2.027-3.605-2.027-6.328v-4.026c0-2.703,0.753-4.895,2.26-6.575
					C903.687,306.777,905.556,305.938,907.785,305.938z M906.815,315.452c-0.976,0-1.806,0.198-2.491,0.593
					c-0.686,0.396-1.207,0.921-1.563,1.576v1.707c0,1.938,0.41,3.432,1.23,4.482s1.849,1.576,3.085,1.576
					c1.168,0,2.078-0.494,2.729-1.482s0.978-2.215,0.978-3.68c0-1.389-0.351-2.531-1.05-3.428
					C909.033,315.9,908.062,315.452,906.815,315.452z"/>
			</g>
			<g>
				<path d="M874.617,296.047c0-1.178,0.341-2.208,1.021-3.092c0.681-0.883,1.696-1.769,3.048-2.657
					c-0.753-0.956-1.313-1.808-1.68-2.556s-0.55-1.519-0.55-2.311c0-1.631,0.471-2.889,1.412-3.772
					c0.941-0.883,2.237-1.325,3.888-1.325c1.525,0,2.767,0.439,3.723,1.318c0.955,0.879,1.434,1.936,1.434,3.172
					c0,0.946-0.254,1.764-0.761,2.454s-1.258,1.397-2.252,2.122l-1.578,1.158l4.923,5.923c0.396-0.627,0.705-1.322,0.928-2.085
					c0.222-0.763,0.333-1.568,0.333-2.419h2.549c0,1.274-0.188,2.453-0.564,3.534c-0.377,1.081-0.923,2.052-1.637,2.91l2.679,3.23
					l-0.029,0.072h-3.316l-1.23-1.478c-0.772,0.579-1.627,1.021-2.563,1.325c-0.938,0.304-1.907,0.456-2.911,0.456
					c-2.096,0-3.764-0.555-5.004-1.665C875.237,299.253,874.617,297.814,874.617,296.047z M881.482,299.783
					c0.695,0,1.38-0.117,2.056-0.354s1.313-0.576,1.912-1.02l-5.229-6.287l-0.578,0.419c-0.879,0.655-1.461,1.282-1.746,1.879
					c-0.285,0.598-0.427,1.138-0.427,1.619c0,1.089,0.343,1.985,1.028,2.688S880.179,299.783,881.482,299.783z M879.31,285.403
					c0,0.512,0.131,1.045,0.392,1.601c0.26,0.555,0.651,1.16,1.173,1.816l1.998-1.375c0.551-0.367,0.925-0.766,1.123-1.195
					c0.197-0.43,0.297-0.904,0.297-1.426c0-0.589-0.234-1.11-0.703-1.564c-0.469-0.453-1.078-0.681-1.832-0.681
					c-0.781,0-1.385,0.272-1.81,0.818S879.31,284.611,879.31,285.403z"/>
			</g>
			<g>
				<path fill-rule="evenodd" clip-rule="evenodd" fill="#FFFFFF" d="M850.644,335.828c0,0.741-0.606,1.348-1.348,1.348H786.05
					c-0.742,0-1.348-0.606-1.348-1.348v-63.252c0-0.741,0.606-1.348,1.348-1.348h63.245c0.742,0,1.348,0.606,1.348,1.348V335.828z"
					/>
			</g>
			<g>
				<path d="M822.636,317.813l1.216-11.57h10.558v2.534h-8.139l-0.695,5.923c0.443-0.328,0.939-0.602,1.484-0.818
					s1.175-0.335,1.89-0.354c1.94-0.02,3.469,0.613,4.584,1.896c1.114,1.284,1.673,3.013,1.673,5.185
					c0,2.115-0.567,3.814-1.702,5.098c-1.134,1.284-2.788,1.927-4.96,1.927c-1.786,0-3.272-0.487-4.46-1.463
					s-1.758-2.409-1.71-4.302l0.029-0.086h2.578c0,1.145,0.33,2.031,0.992,2.661c0.661,0.63,1.518,0.944,2.57,0.944
					c1.207,0,2.143-0.424,2.81-1.272c0.666-0.849,0.999-2.01,0.999-3.485c0-1.349-0.338-2.457-1.014-3.325
					c-0.676-0.867-1.607-1.302-2.795-1.302c-1.12,0-1.932,0.17-2.433,0.508c-0.503,0.338-0.869,0.854-1.101,1.549L822.636,317.813z"
					/>
			</g>
			<g>
				<path d="M795.679,284.693c0-1.226,0.396-2.259,1.188-3.099c0.792-0.841,1.849-1.261,3.172-1.261c1.322,0,2.38,0.418,3.172,1.253
					c0.791,0.835,1.188,1.871,1.188,3.106v1.115c0,1.227-0.395,2.254-1.181,3.085c-0.787,0.83-1.837,1.245-3.15,1.245
					c-1.332,0-2.396-0.415-3.192-1.245c-0.797-0.831-1.195-1.858-1.195-3.085V284.693z M797.793,285.809
					c0,0.715,0.195,1.32,0.587,1.817c0.391,0.497,0.953,0.746,1.687,0.746c0.705,0,1.251-0.246,1.637-0.739
					c0.386-0.492,0.58-1.1,0.58-1.824v-1.115c0-0.714-0.196-1.325-0.587-1.832c-0.392-0.507-0.943-0.76-1.658-0.76
					c-0.724,0-1.279,0.253-1.665,0.76c-0.387,0.507-0.58,1.118-0.58,1.832V285.809z M800.806,300.131l-1.579-0.97l10.297-16.48
					l1.579,0.97L800.806,300.131z M805.889,296.555c0-1.227,0.396-2.257,1.188-3.092c0.791-0.836,1.849-1.253,3.172-1.253
					c1.313,0,2.368,0.417,3.164,1.253c0.797,0.835,1.194,1.865,1.194,3.092v1.129c0,1.236-0.396,2.27-1.188,3.1
					c-0.791,0.83-1.839,1.245-3.143,1.245c-1.332,0-2.396-0.415-3.192-1.245c-0.797-0.83-1.195-1.863-1.195-3.1V296.555z
					 M808.003,297.684c0,0.725,0.195,1.335,0.586,1.832c0.392,0.498,0.954,0.746,1.688,0.746c0.705,0,1.25-0.248,1.637-0.746
					c0.387-0.497,0.579-1.107,0.579-1.832v-1.129c0-0.715-0.197-1.323-0.594-1.825c-0.396-0.502-0.946-0.753-1.65-0.753
					c-0.715,0-1.268,0.251-1.659,0.753c-0.391,0.502-0.586,1.11-0.586,1.825V297.684z"/>
			</g>
			<g>
				<path fill-rule="evenodd" clip-rule="evenodd" fill="#FFFFFF" d="M772.729,335.828c0,0.741-0.606,1.348-1.348,1.348h-63.253
					c-0.742,0-1.348-0.606-1.348-1.348v-63.252c0-0.741,0.606-1.348,1.348-1.348h63.253c0.742,0,1.348,0.606,1.348,1.348V335.828z"
					/>
			</g>
			<g>
				<path d="M755.294,320.231h2.911v2.244h-2.911v4.852h-2.838v-4.852h-9.472v-1.608l9.297-14.625h3.013V320.231z M746.025,320.231
					h6.431v-9.892l-0.088-0.014l-0.275,0.724L746.025,320.231z"/>
			</g>
			<g>
				<path d="M731.041,296.279c0-0.859-0.309-1.598-0.927-2.216s-1.632-1.168-3.041-1.651c-1.95-0.589-3.423-1.375-4.418-2.36
					c-0.994-0.984-1.491-2.298-1.491-3.938c0-1.594,0.456-2.892,1.369-3.896c0.912-1.004,2.169-1.607,3.772-1.81v-3.201h2.287v3.216
					c1.623,0.231,2.88,0.924,3.773,2.078c0.893,1.153,1.34,2.7,1.34,4.641h-2.839c0-1.313-0.304-2.375-0.912-3.186
					s-1.453-1.217-2.534-1.217c-1.14,0-1.992,0.297-2.557,0.891s-0.847,1.407-0.847,2.44c0,0.937,0.291,1.694,0.876,2.273
					c0.584,0.579,1.639,1.13,3.164,1.651c1.979,0.637,3.446,1.432,4.402,2.382c0.956,0.951,1.434,2.243,1.434,3.874
					c0,1.66-0.497,2.981-1.491,3.961c-0.994,0.98-2.36,1.562-4.099,1.745v2.78h-2.273v-2.766c-1.66-0.174-3.022-0.779-4.084-1.817
					s-1.573-2.562-1.535-4.569l0.029-0.072h2.751c0,1.486,0.374,2.547,1.123,3.179c0.747,0.632,1.667,0.948,2.759,0.948
					c1.245,0,2.218-0.297,2.918-0.891C730.69,298.154,731.041,297.332,731.041,296.279z"/>
			</g>
			<g>
				<path fill-rule="evenodd" clip-rule="evenodd" fill="#FFFFFF" d="M694.806,335.828c0,0.741-0.606,1.348-1.348,1.348h-63.245
					c-0.742,0-1.348-0.606-1.348-1.348v-63.252c0-0.741,0.606-1.348,1.348-1.348h63.245c0.742,0,1.348,0.606,1.348,1.348V335.828z"
					/>
			</g>
			<g>
				<path d="M669.894,315.467h2.491c1.264,0,2.159-0.316,2.686-0.949c0.526-0.632,0.789-1.513,0.789-2.643
					c0-1.207-0.299-2.124-0.897-2.752c-0.599-0.627-1.482-0.94-2.65-0.94c-1.109,0-2,0.325-2.672,0.978
					c-0.671,0.651-1.006,1.518-1.006,2.6h-2.737l-0.029-0.088c-0.048-1.593,0.529-2.946,1.73-4.062
					c1.202-1.115,2.773-1.673,4.714-1.673c1.95,0,3.505,0.52,4.664,1.557c1.158,1.038,1.737,2.518,1.737,4.439
					c0,0.868-0.264,1.735-0.789,2.599c-0.526,0.864-1.315,1.523-2.368,1.978c1.265,0.415,2.16,1.066,2.687,1.955
					c0.526,0.888,0.789,1.883,0.789,2.982c0,1.922-0.63,3.433-1.89,4.533s-2.87,1.651-4.83,1.651c-1.921,0-3.512-0.52-4.771-1.558
					c-1.26-1.037-1.865-2.444-1.817-4.221l0.043-0.087h2.723c0,1.105,0.341,1.985,1.021,2.64s1.614,0.98,2.802,0.98
					c1.207,0,2.153-0.327,2.839-0.98c0.685-0.654,1.028-1.621,1.028-2.9c0-1.299-0.305-2.256-0.913-2.871
					c-0.607-0.615-1.568-0.924-2.881-0.924h-2.491V315.467z"/>
			</g>
			<g>
				<path d="M651.612,295.787h-3.692l-1.159,5.938h-2.187l1.159-5.938h-3.418v-2.027h3.823l0.985-5.069h-3.708v-2.027h4.113
					l1.188-6.024h2.187l-1.188,6.024h3.693l1.188-6.024h2.187l-1.188,6.024h2.882v2.027h-3.273l-0.984,5.069h3.171v2.027h-3.576
					l-1.159,5.938h-2.201L651.612,295.787z M648.325,293.76h3.693l0.984-5.069h-3.692L648.325,293.76z"/>
			</g>
			<g>
				<path fill="#FFFFFF" d="M601.745,327.327h-13.672v-1.968l6.908-7.662c1.236-1.381,2.073-2.477,2.514-3.288
					c0.438-0.811,0.658-1.641,0.658-2.49c0-1.053-0.307-1.938-0.92-2.657c-0.613-0.72-1.426-1.079-2.44-1.079
					c-1.458,0-2.532,0.374-3.222,1.122c-0.69,0.748-1.035,1.798-1.035,3.149h-2.737l-0.029-0.087
					c-0.048-1.814,0.556-3.34,1.811-4.576c1.255-1.235,2.993-1.854,5.213-1.854c1.893,0,3.401,0.553,4.526,1.658
					s1.688,2.513,1.688,4.222c0,1.149-0.341,2.3-1.021,3.454c-0.681,1.153-1.635,2.392-2.86,3.715l-5.547,6.024l0.029,0.072h10.138
					V327.327z"/>
			</g>
			<g>
				<path fill="#FFFFFF" d="M568.401,286.984l2.316-5.156h1.405l-0.869,5.243v2.577h-2.853V286.984z M573.166,286.984l2.316-5.156
					h1.405l-0.869,5.243v2.577h-2.853V286.984z"/>
			</g>
			<g>
				<path fill="#FFFFFF" d="M518.038,327.327h-2.854v-18.305l-4.315,0.058v-2.057l7.169-0.781V327.327z"/>
			</g>
		</g>
	</g>
	
		<path opacity="0.95" fill-rule="evenodd" clip-rule="evenodd" fill="none" stroke="#203341" stroke-width="2" stroke-miterlimit="10" d="
		M802.931,1080c2.85-5.202,6.48-9.902,11.204-13.874c3.562-2.994,11.282-13.935,11.282-13.935s14.516-23.426,21.256-35.328
		c10.147-17.92,28.645-54.948,28.645-54.948s10.262-19.503-1.2-26.194c-1.819-1.064-12.649-4.67-21.876,4.419
		c-3.625,3.57-18.631,25.789-22.717,33.177c-0.003,0-6.319,11.658-7.408,14.21c-9.897,14.512-22.24,0.389-22.016-14.823
		c0.146-9.863,0.248-19.81,1.835-29.521c1.546-9.46,10.88-72.255,11.22-94.592c0.227-14.914,1.262-37.336-15.922-30.826
		c-6.768,2.563-6.826,13.345-8.906,21.268c-1.091,4.143-12.168,70.768-13.856,75.516c-1.902,5.346-5.77,1.024-5.761-1.559
		c0.075-24.627,0.047-49.262-0.666-73.877c-0.412-14.216-1.326-39.847-16.209-34.08c-8.709,3.375-9.234,15.543-10.459,25.508
		c-1.334,10.861-0.584,84.825-4.016,93.781c-0.299,1.184-1.925,2.06-3.31,1.838c-5.031,0.928-9.21-44.977-10.544-59.854
		s-1.512-47.931-16.019-43.556c-7.271,2.191-6.982,10.813-7.597,17.922c-0.447,0.748,4.1,90.064,4.773,97.049
		c0.438,4.576-3.395,7.504-5.422,1.484c-2.507-7.441-9.308-40.722-10.586-49.605c-1.354-9.396-1.819-31.494-13.518-29.953
		c-6.155,0.811-8.693,6.431-9.865,8.802c-4.76,11.132-0.87,29.157,0.355,40.983c1.518,14.637,6.291,45.235,6.26,46.067
		c2.402,15.812-1,56.856,6.424,72.797c2.529,8.173,16.195,39.446,19.92,47.52c0.645,1.398,1.092,2.792,1.41,4.187"/>
	<g>
		<path fill="#010000" stroke="#010000" stroke-width="2" stroke-miterlimit="10" d="M670.151,878.039
			c-7.235,0-13.121-5.887-13.121-13.121c0-7.236,5.886-13.12,13.121-13.12s13.12,5.884,13.12,13.12
			C683.271,872.152,677.387,878.039,670.151,878.039z M670.151,855.798c-5.03,0-9.121,4.091-9.121,9.12s4.091,9.121,9.121,9.121
			c5.029,0,9.12-4.092,9.12-9.121S675.181,855.798,670.151,855.798z"/>
		
			<circle fill-rule="evenodd" clip-rule="evenodd" fill="#010000" stroke="#010000" stroke-width="2" stroke-miterlimit="10" cx="670.151" cy="864.918" r="5.053"/>
		<path fill="#010000" stroke="#010000" stroke-width="2" stroke-miterlimit="10" d="M670.151,885.614
			c-11.411,0-20.695-9.284-20.695-20.696c0-11.41,9.284-20.695,20.695-20.695s20.695,9.285,20.695,20.695
			C690.847,876.33,681.563,885.614,670.151,885.614z M670.151,846.223c-10.309,0-18.695,8.387-18.695,18.695
			c0,10.31,8.387,18.696,18.695,18.696s18.695-8.387,18.695-18.696C688.847,854.609,680.46,846.223,670.151,846.223z"/>
		<path fill="#010000" stroke="#010000" stroke-miterlimit="10" d="M670.151,895.073c-16.628,0-30.156-13.527-30.156-30.157
			c0-16.625,13.528-30.153,30.156-30.153s30.156,13.528,30.156,30.153C700.308,881.546,686.779,895.073,670.151,895.073z
			 M670.151,835.763c-16.077,0-29.156,13.077-29.156,29.153c0,16.078,13.079,29.157,29.156,29.157s29.156-13.079,29.156-29.157
			C699.308,848.84,686.229,835.763,670.151,835.763z"/>
		<path fill="#010000" stroke="#010000" stroke-miterlimit="10" d="M670.151,904.975c-22.089,0-40.059-17.969-40.059-40.059
			c0-22.087,17.97-40.057,40.059-40.057s40.059,17.97,40.059,40.057C710.21,887.006,692.24,904.975,670.151,904.975z
			 M670.151,825.109c-21.95,0-39.809,17.857-39.809,39.807c0,21.951,17.858,39.809,39.809,39.809s39.809-17.857,39.809-39.809
			C709.96,842.967,692.102,825.109,670.151,825.109z"/>
	</g>
	
		<path opacity="0.95" fill-rule="evenodd" clip-rule="evenodd" fill="none" stroke="#203341" stroke-width="2" stroke-miterlimit="10" d="
		M1116.704,1080c-2.85-5.202-6.48-9.902-11.204-13.874c-3.562-2.994-11.282-13.935-11.282-13.935s-14.516-23.426-21.256-35.328
		c-10.147-17.92-28.645-54.948-28.645-54.948s-10.262-19.503,1.2-26.194c1.819-1.064,12.649-4.67,21.876,4.419
		c3.625,3.57,18.631,25.789,22.717,33.177c0.003,0,6.319,11.658,7.408,14.21c9.897,14.512,22.24,0.389,22.016-14.823
		c-0.146-9.863-0.248-19.81-1.835-29.521c-1.546-9.46-10.88-72.255-11.22-94.592c-0.227-14.914-1.262-37.336,15.922-30.826
		c6.768,2.563,6.826,13.345,8.906,21.268c1.091,4.143,12.168,70.768,13.856,75.516c1.902,5.346,5.77,1.024,5.761-1.559
		c-0.075-24.627-0.047-49.262,0.666-73.877c0.412-14.216,1.326-39.847,16.209-34.08c8.709,3.375,9.234,15.543,10.459,25.508
		c1.334,10.861,0.584,84.825,4.016,93.781c0.299,1.184,1.925,2.06,3.31,1.838c5.031,0.928,9.21-44.977,10.544-59.854
		s1.512-47.931,16.019-43.556c7.271,2.191,6.982,10.813,7.597,17.922c0.447,0.748-4.1,90.064-4.773,97.049
		c-0.438,4.576,3.395,7.504,5.422,1.484c2.507-7.441,9.308-40.722,10.586-49.605c1.354-9.396,1.819-31.494,13.518-29.953
		c6.155,0.811,8.693,6.431,9.865,8.802c4.76,11.132,0.87,29.157-0.355,40.983c-1.518,14.637-6.291,45.235-6.26,46.067
		c-2.402,15.812,1,56.856-6.424,72.797c-2.529,8.173-16.195,39.446-19.92,47.52c-0.645,1.398-1.092,2.792-1.41,4.187"/>
	<g>
		<path fill="#010000" stroke="#010000" stroke-width="2" stroke-miterlimit="10" d="M1236.363,864.918
			c0-7.236,5.885-13.12,13.12-13.12s13.121,5.884,13.121,13.12c0,7.234-5.886,13.121-13.121,13.121
			S1236.363,872.152,1236.363,864.918z M1240.363,864.918c0,5.029,4.091,9.121,9.12,9.121c5.03,0,9.121-4.092,9.121-9.121
			s-4.091-9.12-9.121-9.12C1244.454,855.798,1240.363,859.889,1240.363,864.918z"/>
		
			<circle fill-rule="evenodd" clip-rule="evenodd" fill="#010000" stroke="#010000" stroke-width="2" stroke-miterlimit="10" cx="1249.483" cy="864.918" r="5.053"/>
		<path fill="#010000" stroke="#010000" stroke-width="2" stroke-miterlimit="10" d="M1228.788,864.918
			c0-11.41,9.284-20.695,20.695-20.695s20.695,9.285,20.695,20.695c0,11.412-9.284,20.696-20.695,20.696
			S1228.788,876.33,1228.788,864.918z M1230.788,864.918c0,10.31,8.387,18.696,18.695,18.696s18.695-8.387,18.695-18.696
			c0-10.309-8.387-18.695-18.695-18.695S1230.788,854.609,1230.788,864.918z"/>
		<path fill="#010000" stroke="#010000" stroke-miterlimit="10" d="M1219.327,864.916c0-16.625,13.528-30.153,30.156-30.153
			s30.156,13.528,30.156,30.153c0,16.63-13.528,30.157-30.156,30.157S1219.327,881.546,1219.327,864.916z M1220.327,864.916
			c0,16.078,13.079,29.157,29.156,29.157s29.156-13.079,29.156-29.157c0-16.076-13.079-29.153-29.156-29.153
			S1220.327,848.84,1220.327,864.916z"/>
		<path fill="#010000" stroke="#010000" stroke-miterlimit="10" d="M1209.425,864.916c0-22.087,17.97-40.057,40.059-40.057
			s40.059,17.97,40.059,40.057c0,22.09-17.97,40.059-40.059,40.059S1209.425,887.006,1209.425,864.916z M1209.675,864.916
			c0,21.951,17.858,39.809,39.809,39.809s39.809-17.857,39.809-39.809c0-21.949-17.858-39.807-39.809-39.807
			S1209.675,842.967,1209.675,864.916z"/>
	</g>
	<g>
		<g>
			<path fill="#FFFFFF" d="M195.473,101.938c0,9.54-6.899,13.8-16.259,13.8h-4.86v14.459h-7.919V88.739h12.239
				C189.114,88.739,195.473,92.999,195.473,101.938z M187.194,101.938c0-5.22-3.18-7.38-8.58-7.38h-4.26v15.24h4.26
				C183.894,109.799,187.194,107.998,187.194,101.938z"/>
			<path fill="#FFFFFF" d="M228.293,114.299c0,10.02-5.58,16.799-14.939,16.799c-9.36,0-14.939-6.359-14.939-16.799
				c0-9.96,5.58-16.74,14.999-16.74C222.773,97.559,228.293,103.919,228.293,114.299z M206.514,114.299
				c0,7.619,2.34,10.979,6.84,10.979c4.5,0,6.839-3.42,6.839-10.979c0-7.561-2.34-10.92-6.78-10.92
				C208.914,103.379,206.514,106.799,206.514,114.299z"/>
			<path fill="#FFFFFF" d="M235.194,122.938V85.739l7.68-0.84v37.799c0,1.5,0.54,2.22,1.8,2.22c0.72,0,1.26-0.12,1.8-0.3l1.62,5.399
				c-1.32,0.6-3.12,1.08-5.1,1.08C238.134,131.098,235.194,128.158,235.194,122.938z"/>
			<path fill="#FFFFFF" d="M280.434,114.299c0,10.02-5.58,16.799-14.939,16.799c-9.36,0-14.939-6.359-14.939-16.799
				c0-9.96,5.58-16.74,14.999-16.74C274.914,97.559,280.434,103.919,280.434,114.299z M258.655,114.299
				c0,7.619,2.34,10.979,6.84,10.979c4.5,0,6.839-3.42,6.839-10.979c0-7.561-2.34-10.92-6.78-10.92
				C261.055,103.379,258.655,106.799,258.655,114.299z"/>
			<path fill="#FFFFFF" d="M308.273,103.979l-15.359,20.22h15.66l-0.78,5.999h-23.699v-5.52l15.419-20.219h-14.1v-6h22.859V103.979z
				 M307.313,85.56l-8.279,7.499h-4.8l-8.34-7.499l2.94-3.36l7.74,5.28l7.859-5.28L307.313,85.56z"/>
			<path fill="#FFFFFF" d="M340.433,125.878l-1.62,5.1c-3.48-0.3-5.76-1.5-7.02-4.62c-2.22,3.36-5.7,4.74-9.48,4.74
				c-6.36,0-10.259-4.02-10.259-9.779c0-6.9,5.22-10.62,14.459-10.62h3.96v-1.8c0-4.14-1.86-5.52-5.939-5.52
				c-2.16,0-5.22,0.6-8.4,1.68l-1.8-5.22c3.9-1.5,7.919-2.28,11.52-2.28c8.459,0,12.179,3.9,12.179,10.92v13.319
				C338.033,124.378,338.873,125.277,340.433,125.878z M330.473,121.618v-6.42h-3.18c-4.98,0-7.44,1.8-7.44,5.52
				c0,3.06,1.56,4.8,4.5,4.8C327.053,125.518,329.033,124.138,330.473,121.618z"/>
			<path fill="#FFFFFF" d="M354.953,127.378c0,9.72-4.439,12.959-11.579,15.839l-2.46-5.579c4.14-1.92,6.359-3.54,6.359-9.78V98.459
				h7.68V127.378z M355.913,87.06c0,2.58-1.92,4.62-4.8,4.62c-2.82,0-4.8-2.04-4.8-4.62c0-2.64,1.98-4.68,4.8-4.68
				C353.993,82.38,355.913,84.42,355.913,87.06z"/>
			<path fill="#FFFFFF" d="M421.251,107.219v22.979h-7.68v-21.779c0-3.959-1.56-5.1-3.48-5.1c-2.64,0-4.26,1.86-6,4.8v22.079h-7.68
				v-21.779c0-3.959-1.62-5.1-3.48-5.1c-2.7,0-4.32,1.86-6.06,4.8v22.079h-7.68V98.459h6.66l0.6,4.14c2.28-3.18,5.16-5.04,9.18-5.04
				c3.66,0,6.48,1.92,7.74,5.34c2.4-3.359,5.28-5.34,9.479-5.34C417.892,97.559,421.251,101.219,421.251,107.219z"/>
			<path fill="#FFFFFF" d="M456.051,116.698h-19.919c0.6,6.479,3.6,8.579,7.8,8.579c2.82,0,5.16-0.899,7.919-2.819l3.18,4.38
				c-3.12,2.52-6.96,4.26-11.76,4.26c-9.839,0-15.119-6.54-15.119-16.56c0-9.659,5.1-16.979,14.099-16.979
				c8.88,0,13.979,6,13.979,16.02C456.231,114.599,456.111,115.858,456.051,116.698z M448.612,111.358c0-5.22-1.86-8.34-6.18-8.34
				c-3.6,0-5.88,2.4-6.3,8.7h12.479V111.358z"/>
			<path fill="#FFFFFF" d="M483.951,103.979l-15.359,20.22h15.66l-0.78,5.999h-23.699v-5.52l15.419-20.219h-14.1v-6h22.859V103.979z
				"/>
			<path fill="#FFFFFF" d="M498.891,87.06c0,2.58-1.98,4.62-4.86,4.62c-2.82,0-4.8-2.04-4.8-4.62c0-2.64,1.98-4.68,4.8-4.68
				C496.911,82.38,498.891,84.42,498.891,87.06z M497.931,130.197h-7.68V98.459h7.68V130.197z"/>
			<path fill="#FFFFFF" d="M533.089,107.219v22.979h-7.68v-21.779c0-3.959-1.5-5.1-3.899-5.1c-2.76,0-4.8,1.86-6.66,4.8v22.079
				h-7.68V98.459h6.66l0.6,4.199c2.46-3.18,5.64-5.1,9.66-5.1C529.79,97.559,533.089,101.159,533.089,107.219z"/>
			<path fill="#FFFFFF" d="M565.129,101.279l-3.42,4.619c-2.1-1.56-4.02-2.279-6.419-2.279c-4.44,0-7.14,3.239-7.14,10.859
				c0,7.68,2.82,10.379,7.14,10.379c2.4,0,4.08-0.779,6.419-2.279l3.42,4.859c-2.88,2.34-6.18,3.66-10.259,3.66
				c-9.18,0-14.879-6.359-14.879-16.499s5.7-17.04,14.819-17.04C558.95,97.559,562.129,98.699,565.129,101.279z"/>
			<path fill="#FFFFFF" d="M595.969,116.698H576.05c0.6,6.479,3.6,8.579,7.8,8.579c2.82,0,5.16-0.899,7.919-2.819l3.18,4.38
				c-3.12,2.52-6.96,4.26-11.76,4.26c-9.839,0-15.119-6.54-15.119-16.56c0-9.659,5.1-16.979,14.099-16.979
				c8.88,0,13.979,6,13.979,16.02C596.149,114.599,596.029,115.858,595.969,116.698z M588.53,111.358c0-5.22-1.86-8.34-6.18-8.34
				c-3.6,0-5.88,2.4-6.3,8.7h12.479V111.358z"/>
			<path fill="#FFFFFF" d="M617.81,130.197h-9.18l-10.5-31.738h8.339l6.78,25.559l6.96-25.559h7.919L617.81,130.197z"/>
		</g>
	</g>
</g>
<g id="mreza">
</g>
<g id="Layer_1">
</g>
<g id="glava">
	
		<use xlink:href="#naprej"  width="21.572" height="21.572" id="XMLID_24_" x="-4.422" y="-10.786" transform="matrix(2.8293 0 0 -2.8293 1838.334 1014.4453)" overflow="visible"/>
	
		<use xlink:href="#naprej"  width="21.572" height="21.572" id="XMLID_23_" x="-4.422" y="-10.786" transform="matrix(-2.8293 0 0 2.8293 81.666 1014.4453)" overflow="visible"/>
</g>
<g id="UITELJ">
</g>
<g id="crta_x5F_maska">
</g>
</svg>
