<?xml version="1.0" encoding="utf-8"?>
<!-- Generator: Adobe Illustrator 16.0.0, SVG Export Plug-In . SVG Version: 6.00 Build 0)  -->
<!DOCTYPE svg PUBLIC "-//W3C//DTD SVG 1.1//EN" "http://www.w3.org/Graphics/SVG/1.1/DTD/svg11.dtd">
<svg version="1.1" xmlns="http://www.w3.org/2000/svg" xmlns:xlink="http://www.w3.org/1999/xlink" x="0px" y="0px" width="860px"
	 height="300px" viewBox="0 0 860 300" enable-background="new 0 0 860 300" xml:space="preserve">
<g id="BG">
	<rect x="-530.001" y="-53.573" fill="#32BCAD" width="1920.001" height="396.978"/>
</g>
<g id="bg">
	<rect opacity="0.3" fill="#FFFFFF" width="860" height="300"/>
</g>
<g id="CTRL_x5F_D_PB">
	<g>
		<path fill-rule="evenodd" clip-rule="evenodd" d="M849.248,288.142c0,0.55-0.45,1-1,1h-85.031c-0.55,0-1-0.45-1-1v-46.916
			c0-0.55,0.45-1,1-1h85.031c0.55,0,1,0.45,1,1V288.142z"/>
	</g>
	<rect x="764.447" y="254.783" fill-rule="evenodd" clip-rule="evenodd" fill="none" width="73.492" height="30.521"/>
	<text transform="matrix(1 0 0 1 809.9863 269.2612)" fill="#FFFFFF" font-family="'Roboto-Regular'" font-size="19">ctrl</text>
</g>
<g id="PRESLEDNICA_PB">
	<g>
		<path fill-rule="evenodd" clip-rule="evenodd" d="M533.336,287.44c0,0.55-0.45,1-1,1H254.76c-0.55,0-1-0.45-1-1v-46.916
			c0-0.55,0.45-1,1-1h277.576c0.55,0,1,0.45,1,1V287.44z"/>
	</g>
</g>
<g id="CTRL_x5F_L_PB">
	<g>
		<path fill-rule="evenodd" clip-rule="evenodd" d="M99.405,288.142c0,0.55-0.45,1-1,1H13.374c-0.55,0-1-0.45-1-1v-46.916
			c0-0.55,0.45-1,1-1h85.032c0.55,0,1,0.45,1,1V288.142z"/>
	</g>
	<rect x="20.675" y="255.783" fill-rule="evenodd" clip-rule="evenodd" fill="none" width="64.286" height="27.706"/>
	<text transform="matrix(1 0 0 1 20.6753 270.2612)" fill="#FFFFFF" font-family="'Roboto-Regular'" font-size="19">ctrl</text>
</g>
<g id="SHIFT_x5F_D_PB">
	<g>
		<path fill-rule="evenodd" clip-rule="evenodd" d="M849.248,231.228c0,0.55-0.45,1-1,1H716.777c-0.55,0-1-0.45-1-1v-46.915
			c0-0.55,0.45-1,1-1h131.471c0.55,0,1,0.45,1,1V231.228z"/>
	</g>
	<g>
		<g>
			
				<line fill="none" stroke="#FFFFFF" stroke-width="2" stroke-miterlimit="10" x1="830.256" y1="217.556" x2="830.256" y2="198.975"/>
			<g>
				<polygon fill="#FFFFFF" points="838.436,205.602 836.971,206.966 830.258,199.742 823.543,206.966 822.078,205.602 
					830.258,196.806 				"/>
			</g>
		</g>
	</g>
</g>
<g id="_x2D__PB">
	<g>
		<path fill-rule="evenodd" clip-rule="evenodd" d="M707.662,231.228c0,0.55-0.45,1-1,1h-46.914c-0.55,0-1-0.45-1-1v-46.915
			c0-0.55,0.45-1,1-1h46.914c0.55,0,1,0.45,1,1V231.228z"/>
	</g>
	<rect x="658.542" y="208.854" fill-rule="evenodd" clip-rule="evenodd" fill="none" width="48.941" height="26.373"/>
	<text transform="matrix(1 0 0 1 679.4512 228.666)" fill="#FFFFFF" font-family="'Roboto-Regular'" font-size="26">-</text>
	<rect x="658.542" y="189.521" fill-rule="evenodd" clip-rule="evenodd" fill="none" width="48.941" height="29.039"/>
	<text transform="matrix(1 0 0 1 674.0234 209.333)" fill="#FFFFFF" font-family="'Roboto-Regular'" font-size="26">–</text>
</g>
<g id="_x2E__PB">
	<g>
		<path fill-rule="evenodd" clip-rule="evenodd" d="M649.863,231.228c0,0.55-0.45,1-1,1h-46.914c-0.55,0-1-0.45-1-1v-46.915
			c0-0.55,0.45-1,1-1h46.914c0.55,0,1,0.45,1,1V231.228z"/>
	</g>
	<g>
		<path fill-rule="evenodd" clip-rule="evenodd" d="M649.863,231.228c0,0.55-0.45,1-1,1h-46.914c-0.55,0-1-0.45-1-1v-46.915
			c0-0.55,0.45-1,1-1h46.914c0.55,0,1,0.45,1,1V231.228z"/>
	</g>
	<rect x="600.973" y="203.799" fill-rule="evenodd" clip-rule="evenodd" fill="none" width="48.943" height="24.595"/>
	<text transform="matrix(1 0 0 1 621.9648 223.6104)" fill="#FFFFFF" font-family="'Roboto-Regular'" font-size="26">.</text>
	<rect x="599.973" y="182.799" fill-rule="evenodd" clip-rule="evenodd" fill="none" width="48.943" height="31.262"/>
	<text transform="matrix(1 0 0 1 621.1621 202.6104)" fill="#FFFFFF" font-family="'Roboto-Regular'" font-size="26">:</text>
</g>
<g id="_x2C__PB">
	<g>
		<path fill-rule="evenodd" clip-rule="evenodd" d="M592.066,231.228c0,0.55-0.45,1-1,1h-46.914c-0.55,0-1-0.45-1-1v-46.915
			c0-0.55,0.45-1,1-1h46.914c0.55,0,1,0.45,1,1V231.228z"/>
	</g>
	<g>
		<path fill-rule="evenodd" clip-rule="evenodd" d="M592.066,231.228c0,0.55-0.45,1-1,1h-46.914c-0.55,0-1-0.45-1-1v-46.915
			c0-0.55,0.45-1,1-1h46.914c0.55,0,1,0.45,1,1V231.228z"/>
	</g>
	<rect x="543.18" y="203.799" fill-rule="evenodd" clip-rule="evenodd" fill="none" width="48.941" height="26.595"/>
	<text transform="matrix(1 0 0 1 565.0859 223.6104)" fill="#FFFFFF" font-family="'Roboto-Regular'" font-size="26">,</text>
	<rect x="543.18" y="183.445" fill-rule="evenodd" clip-rule="evenodd" fill="none" width="48.941" height="31.262"/>
	<text transform="matrix(1 0 0 1 564.3184 203.2568)" fill="#FFFFFF" font-family="'Roboto-Regular'" font-size="26">;</text>
</g>
<g id="M_PB">
	<g>
		<path fill-rule="evenodd" clip-rule="evenodd" d="M534.268,231.228c0,0.55-0.45,1-1,1h-46.912c-0.55,0-1-0.45-1-1v-46.915
			c0-0.55,0.45-1,1-1h46.912c0.55,0,1,0.45,1,1V231.228z"/>
	</g>
	<rect x="485.387" y="197.799" fill-rule="evenodd" clip-rule="evenodd" fill="none" width="48.943" height="28.297"/>
	<text transform="matrix(1 0 0 1 498.4395 217.6104)" fill="#FFFFFF" font-family="'Roboto-Regular'" font-size="26">M</text>
</g>
<g id="N_PB">
	<g>
		<path fill-rule="evenodd" clip-rule="evenodd" d="M476.471,231.228c0,0.55-0.45,1-1,1h-46.916c-0.55,0-1-0.45-1-1v-46.915
			c0-0.55,0.45-1,1-1h46.916c0.55,0,1,0.45,1,1V231.228z"/>
	</g>
	<rect x="427.594" y="197.799" fill-rule="evenodd" clip-rule="evenodd" fill="none" width="48.941" height="30.25"/>
	<text transform="matrix(1 0 0 1 442.791 217.6104)" fill="#FFFFFF" font-family="'Roboto-Regular'" font-size="26">N</text>
</g>
<g id="B_PB">
	<g>
		<path fill-rule="evenodd" clip-rule="evenodd" d="M418.672,231.228c0,0.55-0.45,1-1,1h-46.914c-0.55,0-1-0.45-1-1v-46.915
			c0-0.55,0.45-1,1-1h46.914c0.55,0,1,0.45,1,1V231.228z"/>
	</g>
	<rect x="369.801" y="197.799" fill-rule="evenodd" clip-rule="evenodd" fill="none" width="48.943" height="30.521"/>
	<text transform="matrix(1 0 0 1 385.9629 217.6104)" fill="#FFFFFF" font-family="'Roboto-Regular'" font-size="26">B</text>
</g>
<g id="V_PB">
	<g>
		<path fill-rule="evenodd" clip-rule="evenodd" d="M360.875,231.228c0,0.55-0.45,1-1,1h-46.916c-0.55,0-1-0.45-1-1v-46.915
			c0-0.55,0.45-1,1-1h46.916c0.55,0,1,0.45,1,1V231.228z"/>
	</g>
	<rect x="312.008" y="197.799" fill-rule="evenodd" clip-rule="evenodd" fill="none" width="48.943" height="28.297"/>
	<text transform="matrix(1 0 0 1 328.2598 217.6104)" fill="#FFFFFF" font-family="'Roboto-Regular'" font-size="26">V</text>
</g>
<g id="C_PB">
	<g>
		<path fill-rule="evenodd" clip-rule="evenodd" d="M303.076,231.228c0,0.55-0.45,1-1,1h-46.914c-0.55,0-1-0.45-1-1v-46.915
			c0-0.55,0.45-1,1-1h46.914c0.55,0,1,0.45,1,1V231.228z"/>
	</g>
	<rect x="254.215" y="197.799" fill-rule="evenodd" clip-rule="evenodd" fill="none" width="48.941" height="32.743"/>
	<text transform="matrix(1 0 0 1 270.4531 217.6104)" fill="#FFFFFF" font-family="'Roboto-Regular'" font-size="26">C</text>
</g>
<g id="X_PB">
	<g>
		<path fill-rule="evenodd" clip-rule="evenodd" d="M245.277,231.228c0,0.55-0.45,1-1,1h-46.914c-0.55,0-1-0.45-1-1v-46.915
			c0-0.55,0.45-1,1-1h46.914c0.55,0,1,0.45,1,1V231.228z"/>
	</g>
	<rect x="196.424" y="197.799" fill-rule="evenodd" clip-rule="evenodd" fill="none" width="48.941" height="29.78"/>
	<text transform="matrix(1 0 0 1 212.6738 217.6104)" fill="#FFFFFF" font-family="'Roboto-Regular'" font-size="26">X</text>
</g>
<g id="Y_PB">
	<g>
		<path fill-rule="evenodd" clip-rule="evenodd" d="M187.527,231.228c0,0.55-0.45,1-1,1h-46.918c-0.55,0-1-0.45-1-1v-46.915
			c0-0.55,0.45-1,1-1h46.918c0.55,0,1,0.45,1,1V231.228z"/>
	</g>
	<rect x="138.629" y="197.799" fill-rule="evenodd" clip-rule="evenodd" fill="none" width="48.943" height="31.262"/>
	<text transform="matrix(1 0 0 1 155.166 217.6104)" fill="#FFFFFF" font-family="'Roboto-Regular'" font-size="26">Y</text>
</g>
<g id="_x3E__x3C__PB">
	<g>
		<path fill-rule="evenodd" clip-rule="evenodd" d="M129.928,231.228c0,0.55-0.45,1-1,1H82.012c-0.55,0-1-0.45-1-1v-46.915
			c0-0.55,0.45-1,1-1h46.916c0.55,0,1,0.45,1,1V231.228z"/>
	</g>
	<rect x="81.192" y="187.799" fill-rule="evenodd" clip-rule="evenodd" fill="none" width="48.944" height="36.449"/>
	<text transform="matrix(1 0 0 1 98.8604 207.6113)" fill="#FFFFFF" font-family="'Roboto-Regular'" font-size="26">&gt;</text>
	<text transform="matrix(1.0821 0 0 1 99.6104 222.2744)" fill="#FFFFFF" font-family="'Roboto-Regular'" font-size="24.0264">&lt;</text>
</g>
<g id="SHIFT_x5F_L_PB">
	<g>
		<path fill-rule="evenodd" clip-rule="evenodd" d="M57.141,183.313c-0.55,0-1.45,0-2,0H23.968c-0.55,0-1.45,0-2,0h-8.594
			c-0.55,0-1,0.45-1,1v46.915c0,0.55,0.45,1,1,1h8.594c0.55,0,1.45,0,2,0h31.173c0.55,0,1.45,0,2,0h13.743c0.55,0,1-0.45,1-1
			v-46.915c0-0.55-0.45-1-1-1H57.141z"/>
	</g>
	<g>
		<g>
			
				<line fill="none" stroke="#FFFFFF" stroke-width="2" stroke-miterlimit="10" x1="31.256" y1="217.556" x2="31.256" y2="198.975"/>
			<g>
				<polygon fill="#FFFFFF" points="39.436,205.602 37.971,206.966 31.258,199.742 24.543,206.966 23.078,205.602 31.258,196.806 
									"/>
			</g>
		</g>
	</g>
</g>
<g id="Ž_PB">
	<g>
		<path fill-rule="evenodd" clip-rule="evenodd" d="M804.025,173.05c0,0.55-0.45,1-1,1h-46.914c-0.55,0-1-0.45-1-1v-46.915
			c0-0.55,0.45-1,1-1h46.914c0.55,0,1,0.45,1,1V173.05z"/>
	</g>
	<rect x="755.105" y="139.373" fill-rule="evenodd" clip-rule="evenodd" fill="none" width="48.943" height="31.262"/>
	<text transform="matrix(1 0 0 1 771.8008 159.1846)" fill="#FFFFFF" font-family="'Roboto-Regular'" font-size="26">Ž</text>
</g>
<g id="Ć_PB">
	<g>
		<path fill-rule="evenodd" clip-rule="evenodd" d="M746.303,173.05c0,0.55-0.45,1-1,1h-46.914c-0.55,0-1-0.45-1-1v-46.915
			c0-0.55,0.45-1,1-1h46.914c0.55,0,1,0.45,1,1V173.05z"/>
	</g>
	<rect x="697.314" y="139.373" fill-rule="evenodd" clip-rule="evenodd" fill="none" width="48.941" height="31.261"/>
	<text transform="matrix(1 0 0 1 713.5527 159.1846)" fill="#FFFFFF" font-family="'Roboto-Regular'" font-size="26">Ć</text>
</g>
<g id="Č_PB">
	<g>
		<path fill-rule="evenodd" clip-rule="evenodd" d="M688.504,173.05c0,0.55-0.45,1-1,1H640.59c-0.55,0-1-0.45-1-1v-46.915
			c0-0.55,0.45-1,1-1h46.914c0.55,0,1,0.45,1,1V173.05z"/>
	</g>
	<rect x="639.523" y="139.373" fill-rule="evenodd" clip-rule="evenodd" fill="none" width="48.941" height="28.297"/>
	<text transform="matrix(1 0 0 1 655.7617 159.1846)" fill="#FFFFFF" font-family="'Roboto-Regular'" font-size="26">Č</text>
</g>
<g id="L_PB">
	<g>
		<path fill-rule="evenodd" clip-rule="evenodd" d="M630.707,173.05c0,0.55-0.45,1-1,1h-46.914c-0.55,0-1-0.45-1-1v-46.915
			c0-0.55,0.45-1,1-1h46.914c0.55,0,1,0.45,1,1V173.05z"/>
	</g>
	<rect x="581.729" y="139.373" fill-rule="evenodd" clip-rule="evenodd" fill="none" width="48.943" height="32.002"/>
	<text transform="matrix(1 0 0 1 599.1797 159.1846)" fill="#FFFFFF" font-family="'Roboto-Regular'" font-size="26">L</text>
</g>
<g id="K_PB">
	<g>
		<path fill-rule="evenodd" clip-rule="evenodd" d="M572.908,173.05c0,0.55-0.45,1-1,1h-46.914c-0.55,0-1-0.45-1-1v-46.915
			c0-0.55,0.45-1,1-1h46.914c0.55,0,1,0.45,1,1V173.05z"/>
	</g>
	<rect x="523.934" y="139.373" fill-rule="evenodd" clip-rule="evenodd" fill="none" width="48.943" height="31.261"/>
	<text transform="matrix(1 0 0 1 540.0449 159.1846)" fill="#FFFFFF" font-family="'Roboto-Regular'" font-size="26">K</text>
</g>
<g id="J_PB">
	<g>
		<path fill-rule="evenodd" clip-rule="evenodd" d="M515.109,173.05c0,0.55-0.45,1-1,1h-46.914c-0.55,0-1-0.45-1-1v-46.915
			c0-0.55,0.45-1,1-1h46.914c0.55,0,1,0.45,1,1V173.05z"/>
	</g>
	<rect x="466.143" y="139.373" fill-rule="evenodd" clip-rule="evenodd" fill="none" width="48.943" height="30.521"/>
	<text transform="matrix(1 0 0 1 483.4414 159.1846)" fill="#FFFFFF" font-family="'Roboto-Regular'" font-size="26">J</text>
</g>
<g id="H_PB">
	<g>
		<path fill-rule="evenodd" clip-rule="evenodd" d="M457.313,173.05c0,0.55-0.45,1-1,1h-46.914c-0.55,0-1-0.45-1-1v-46.915
			c0-0.55,0.45-1,1-1h46.914c0.55,0,1,0.45,1,1V173.05z"/>
	</g>
	<rect x="408.348" y="139.373" fill-rule="evenodd" clip-rule="evenodd" fill="none" width="48.943" height="32.002"/>
	<text transform="matrix(1 0 0 1 423.5449 159.1846)" fill="#FFFFFF" font-family="'Roboto-Regular'" font-size="26">H</text>
</g>
<g id="G_PB">
	<g>
		<path fill-rule="evenodd" clip-rule="evenodd" d="M399.514,173.05c0,0.55-0.45,1-1,1h-46.916c-0.55,0-1-0.45-1-1v-46.915
			c0-0.55,0.45-1,1-1h46.916c0.55,0,1,0.45,1,1V173.05z"/>
	</g>
	<rect x="350.557" y="139.373" fill-rule="evenodd" clip-rule="evenodd" fill="none" width="48.943" height="32.002"/>
	<text transform="matrix(1 0 0 1 366.166 159.1846)" fill="#FFFFFF" font-family="'Roboto-Regular'" font-size="26">G</text>
</g>
<g id="F_PB">
	<g>
		<path fill-rule="evenodd" clip-rule="evenodd" d="M341.717,173.05c0,0.55-0.45,1-1,1h-46.914c-0.55,0-1-0.45-1-1v-46.915
			c0-0.55,0.45-1,1-1h46.914c0.55,0,1,0.45,1,1V173.05z"/>
	</g>
	<g>
		<rect x="292.762" y="139.373" fill="none" width="48.943" height="29.978"/>
		<text transform="matrix(1 0 0 1 309.6602 159.1846)" fill="#FFFFFF" font-family="'Roboto-Regular'" font-size="26">F</text>
	</g>
</g>
<g id="D_PB">
	<g>
		<path fill-rule="evenodd" clip-rule="evenodd" d="M283.918,173.05c0,0.55-0.45,1-1,1h-46.916c-0.55,0-1-0.45-1-1v-46.915
			c0-0.55,0.45-1,1-1h46.916c0.55,0,1,0.45,1,1V173.05z"/>
	</g>
	<rect x="234.969" y="139.373" fill-rule="evenodd" clip-rule="evenodd" fill="none" width="48.943" height="29.039"/>
	<text transform="matrix(1 0 0 1 250.877 159.1846)" fill="#FFFFFF" font-family="'Roboto-Regular'" font-size="26">D</text>
</g>
<g id="S_PB">
	<g>
		<path fill-rule="evenodd" clip-rule="evenodd" d="M226.121,173.05c0,0.55-0.45,1-1,1h-46.914c-0.55,0-1-0.45-1-1v-46.915
			c0-0.55,0.45-1,1-1h46.914c0.55,0,1,0.45,1,1V173.05z"/>
	</g>
	<rect x="177.178" y="139.373" fill-rule="evenodd" clip-rule="evenodd" fill="none" width="48.941" height="28.297"/>
	<text transform="matrix(1 0 0 1 193.543 159.1846)" fill="#FFFFFF" font-family="'Roboto-Regular'" font-size="26">S</text>
</g>
<g id="A_PB">
	<g>
		<path fill-rule="evenodd" clip-rule="evenodd" d="M168.367,173.05c0,0.55-0.45,1-1,1h-46.913c-0.55,0-1-0.45-1-1v-46.915
			c0-0.55,0.45-1,1-1h46.913c0.55,0,1,0.45,1,1V173.05z"/>
	</g>
	<rect x="119.384" y="139.373" fill-rule="evenodd" clip-rule="evenodd" fill="none" width="48.942" height="29.039"/>
	<text transform="matrix(1 0 0 1 135.438 159.1846)" fill="#FFFFFF" font-family="'Roboto-Regular'" font-size="26">A</text>
</g>
<g id="CAPS_LOCK_PB">
	<g>
		<path fill-rule="evenodd" clip-rule="evenodd" d="M110.571,173.05c0,0.55-0.45,1-1,1H13.374c-0.55,0-1-0.45-1-1v-46.915
			c0-0.55,0.45-1,1-1h96.198c0.55,0,1,0.45,1,1V173.05z"/>
	</g>
	<g>
		<rect x="19.675" y="140.934" fill="none" width="97.966" height="26.584"/>
		<text transform="matrix(1 0 0 1 19.6753 155.4121)" fill="#FFFFFF" font-family="'Roboto-Regular'" font-size="19">caps lock</text>
	</g>
</g>
<g id="ENTER_PB">
	<g>
		<path fill-rule="evenodd" clip-rule="evenodd" d="M801.334,67.766c-0.55,0-1,0.45-1,1v46.914c0,0.55,0.45,1,1,1h10.561
			c0.55,0,1,0.45,1,1v55.371c0,0.55,0.45,1,1,1h34.354c0.55,0,1-0.45,1-1V117.68c0-0.55,0-1.45,0-2v-10c0-0.55,0-1.45,0-2V68.766
			c0-0.55-0.45-1-1-1H801.334z"/>
	</g>
</g>
<g id="Đ_PB">
	<g>
		<path fill-rule="evenodd" clip-rule="evenodd" d="M792.221,115.68c0,0.55-0.45,1-1,1h-46.914c-0.55,0-1-0.45-1-1V68.766
			c0-0.55,0.45-1,1-1h46.914c0.55,0,1,0.45,1,1V115.68z"/>
	</g>
	<rect x="743.369" y="81.826" fill-rule="evenodd" clip-rule="evenodd" fill="none" width="48.941" height="32.002"/>
	<text transform="matrix(1 0 0 1 759.0859 101.6377)" fill="#FFFFFF" font-family="'Roboto-Regular'" font-size="26">Đ</text>
</g>
<g id="Š_PB">
	<g>
		<path fill-rule="evenodd" clip-rule="evenodd" d="M734.424,115.68c0,0.55-0.45,1-1,1H686.51c-0.55,0-1-0.45-1-1V68.766
			c0-0.55,0.45-1,1-1h46.914c0.55,0,1,0.45,1,1V115.68z"/>
	</g>
	<g>
		<path fill-rule="evenodd" clip-rule="evenodd" d="M734.424,115.68c0,0.55-0.45,1-1,1H686.51c-0.55,0-1-0.45-1-1V68.766
			c0-0.55,0.45-1,1-1h46.914c0.55,0,1,0.45,1,1V115.68z"/>
	</g>
	<rect x="685.574" y="81.826" fill-rule="evenodd" clip-rule="evenodd" fill="none" width="48.943" height="31.262"/>
	<text transform="matrix(1 0 0 1 701.9395 101.6377)" fill="#FFFFFF" font-family="'Roboto-Regular'" font-size="26">Š</text>
</g>
<g id="P_PB">
	<g>
		<path fill-rule="evenodd" clip-rule="evenodd" d="M676.625,115.68c0,0.55-0.45,1-1,1h-46.914c-0.55,0-1-0.45-1-1V68.766
			c0-0.55,0.45-1,1-1h46.914c0.55,0,1,0.45,1,1V115.68z"/>
	</g>
	<rect x="627.783" y="81.826" fill-rule="evenodd" clip-rule="evenodd" fill="none" width="48.943" height="28.297"/>
	<text transform="matrix(1 0 0 1 643.9258 101.6377)" fill="#FFFFFF" font-family="'Roboto-Regular'" font-size="26">P</text>
</g>
<g id="O_PB">
	<g>
		<path fill-rule="evenodd" clip-rule="evenodd" d="M618.828,115.68c0,0.55-0.45,1-1,1h-46.914c-0.55,0-1-0.45-1-1V68.766
			c0-0.55,0.45-1,1-1h46.914c0.55,0,1,0.45,1,1V115.68z"/>
	</g>
	<rect x="569.99" y="81.826" fill-rule="evenodd" clip-rule="evenodd" fill="none" width="48.941" height="29.78"/>
	<text transform="matrix(1 0 0 1 585.5996 101.6377)" fill="#FFFFFF" font-family="'Roboto-Regular'" font-size="26">O</text>
</g>
<g id="I_PB">
	<g>
		<path fill-rule="evenodd" clip-rule="evenodd" d="M561.029,115.68c0,0.55-0.45,1-1,1h-46.914c-0.55,0-1-0.45-1-1V68.766
			c0-0.55,0.45-1,1-1h46.914c0.55,0,1,0.45,1,1V115.68z"/>
	</g>
	<rect x="512.197" y="81.826" fill-rule="evenodd" clip-rule="evenodd" fill="none" width="48.943" height="29.039"/>
	<text transform="matrix(1 0 0 1 532.9941 101.6377)" fill="#FFFFFF" font-family="'Roboto-Regular'" font-size="26">I</text>
</g>
<g id="U_PB">
	<g>
		<path fill-rule="evenodd" clip-rule="evenodd" d="M503.23,115.68c0,0.55-0.45,1-1,1h-46.912c-0.55,0-1-0.45-1-1V68.766
			c0-0.55,0.45-1,1-1h46.912c0.55,0,1,0.45,1,1V115.68z"/>
	</g>
	<rect x="454.406" y="81.825" fill-rule="evenodd" clip-rule="evenodd" fill="none" width="48.941" height="30.521"/>
	<text transform="matrix(1 0 0 1 470.0781 101.6377)" fill="#FFFFFF" font-family="'Roboto-Regular'" font-size="26">U</text>
</g>
<g id="Z_PB">
	<g>
		<path fill-rule="evenodd" clip-rule="evenodd" d="M445.434,115.68c0,0.55-0.45,1-1,1H397.52c-0.55,0-1-0.45-1-1V68.766
			c0-0.55,0.45-1,1-1h46.914c0.55,0,1,0.45,1,1V115.68z"/>
	</g>
	<rect x="396.609" y="81.826" fill-rule="evenodd" clip-rule="evenodd" fill="none" width="48.941" height="32.744"/>
	<text transform="matrix(1 0 0 1 413.3047 101.6377)" fill="#FFFFFF" font-family="'Roboto-Regular'" font-size="26">Z</text>
</g>
<g id="T_PB">
	<g>
		<path fill-rule="evenodd" clip-rule="evenodd" d="M387.635,115.68c0,0.55-0.45,1-1,1h-46.916c-0.55,0-1-0.45-1-1V68.766
			c0-0.55,0.45-1,1-1h46.916c0.55,0,1,0.45,1,1V115.68z"/>
	</g>
	<rect x="338.818" y="81.825" fill-rule="evenodd" clip-rule="evenodd" fill="none" width="48.941" height="32.003"/>
	<text transform="matrix(1 0 0 1 355.6719 101.6377)" fill="#FFFFFF" font-family="'Roboto-Regular'" font-size="26">T</text>
</g>
<g id="R_PB">
	<g>
		<path fill-rule="evenodd" clip-rule="evenodd" d="M329.838,115.68c0,0.55-0.45,1-1,1h-46.914c-0.55,0-1-0.45-1-1V68.766
			c0-0.55,0.45-1,1-1h46.914c0.55,0,1,0.45,1,1V115.68z"/>
	</g>
	<rect x="281.023" y="81.825" fill-rule="evenodd" clip-rule="evenodd" fill="none" width="48.943" height="30.521"/>
	<text transform="matrix(1 0 0 1 296.8809 101.6377)" fill="#FFFFFF" font-family="'Roboto-Regular'" font-size="26">R</text>
</g>
<g id="E_PB">
	<g>
		<path fill-rule="evenodd" clip-rule="evenodd" d="M272.039,115.68c0,0.55-0.45,1-1,1h-46.916c-0.55,0-1-0.45-1-1V68.766
			c0-0.55,0.45-1,1-1h46.916c0.55,0,1,0.45,1,1V115.68z"/>
	</g>
	<rect x="223.23" y="81.825" fill-rule="evenodd" clip-rule="evenodd" fill="none" width="48.941" height="30.521"/>
	<text transform="matrix(1 0 0 1 240.1035 101.6377)" fill="#FFFFFF" font-family="'Roboto-Regular'" font-size="26">E</text>
</g>
<g id="W_PB">
	<g>
		<path fill-rule="evenodd" clip-rule="evenodd" d="M214.242,115.68c0,0.55-0.45,1-1,1h-46.914c-0.55,0-1-0.45-1-1V68.766
			c0-0.55,0.45-1,1-1h46.914c0.55,0,1,0.45,1,1V115.68z"/>
	</g>
	<rect x="165.439" y="81.825" fill-rule="evenodd" clip-rule="evenodd" fill="none" width="48.941" height="32.003"/>
	<text transform="matrix(1 0 0 1 178.4277 101.6377)" fill="#FFFFFF" font-family="'Roboto-Regular'" font-size="26">W</text>
</g>
<g id="Q_PB">
	<g>
		<path fill-rule="evenodd" clip-rule="evenodd" d="M156.49,115.68c0,0.55-0.45,1-1,1h-46.915c-0.55,0-1-0.45-1-1V68.766
			c0-0.55,0.45-1,1-1h46.915c0.55,0,1,0.45,1,1V115.68z"/>
	</g>
	<rect x="107.646" y="81.826" fill-rule="evenodd" clip-rule="evenodd" fill="none" width="48.942" height="29.78"/>
	<text transform="matrix(1 0 0 1 123.2554 101.6377)" fill="#FFFFFF" font-family="'Roboto-Regular'" font-size="26">Q</text>
</g>
<g id="TAB_PB">
	<g>
		<path fill-rule="evenodd" clip-rule="evenodd" d="M99.405,115.68c0,0.55-0.45,1-1,1H13.374c-0.55,0-1-0.45-1-1V68.766
			c0-0.55,0.45-1,1-1h85.032c0.55,0,1,0.45,1,1V115.68z"/>
	</g>
	<g>
		<path fill-rule="evenodd" clip-rule="evenodd" d="M99.405,115.68c0,0.55-0.45,1-1,1H13.374c-0.55,0-1-0.45-1-1V68.766
			c0-0.55,0.45-1,1-1h85.032c0.55,0,1,0.45,1,1V115.68z"/>
	</g>
	<rect x="20.675" y="84.826" fill-rule="evenodd" clip-rule="evenodd" fill="none" width="67.909" height="22.046"/>
	<text transform="matrix(1 0 0 1 20.6753 99.3037)" fill="#FFFFFF" font-family="'Roboto-Regular'" font-size="19">tab</text>
</g>
<g id="BACK_PB">
	<g>
		<path fill-rule="evenodd" clip-rule="evenodd" d="M849.248,58.348c0,0.55-0.45,1-1,1h-84.441c-0.55,0-1-0.45-1-1V11.43
			c0-0.55,0.45-1,1-1h84.441c0.55,0,1,0.45,1,1V58.348z"/>
	</g>
</g>
<g id="_x2B__PB">
	<g>
		<path fill-rule="evenodd" clip-rule="evenodd" d="M755.023,58.348c0,0.55-0.45,1-1,1h-46.914c-0.55,0-1-0.45-1-1V11.43
			c0-0.55,0.45-1,1-1h46.914c0.55,0,1,0.45,1,1V58.348z"/>
	</g>
	<rect x="706.053" y="24.279" fill-rule="evenodd" clip-rule="evenodd" fill="none" width="48.943" height="28.298"/>
	<text transform="matrix(1 0 0 1 723.1484 44.0908)" fill="#FFFFFF" font-family="'Roboto-Regular'" font-size="26">+</text>
</g>
<g id="_x27__PB">
	<g>
		<path fill-rule="evenodd" clip-rule="evenodd" d="M697.227,58.348c0,0.55-0.45,1-1,1h-46.914c-0.55,0-1-0.45-1-1V11.43
			c0-0.55,0.45-1,1-1h46.914c0.55,0,1,0.45,1,1V58.348z"/>
	</g>
	<rect x="648.258" y="24.28" fill-rule="evenodd" clip-rule="evenodd" fill="none" width="48.943" height="32.003"/>
	<text transform="matrix(1 0 0 1 670.0762 44.0908)" fill="#FFFFFF" font-family="'Roboto-Regular'" font-size="26">‘</text>
</g>
<g id="_x30__PB">
	<g>
		<path fill-rule="evenodd" clip-rule="evenodd" d="M639.428,58.348c0,0.55-0.45,1-1,1h-46.914c-0.55,0-1-0.45-1-1V11.43
			c0-0.55,0.45-1,1-1h46.914c0.55,0,1,0.45,1,1V58.348z"/>
	</g>
	<rect x="590.467" y="24.279" fill-rule="evenodd" clip-rule="evenodd" fill="none" width="48.943" height="27.557"/>
	<text transform="matrix(1 0 0 1 607.6133 44.0908)" fill="#FFFFFF" font-family="'Roboto-Regular'" font-size="26">0</text>
</g>
<g id="_x39__PB">
	<g>
		<path fill-rule="evenodd" clip-rule="evenodd" d="M581.629,58.348c0,0.55-0.45,1-1,1h-46.914c-0.55,0-1-0.45-1-1V11.43
			c0-0.55,0.45-1,1-1h46.914c0.55,0,1,0.45,1,1V58.348z"/>
	</g>
	<rect x="532.672" y="24.279" fill-rule="evenodd" clip-rule="evenodd" fill="none" width="48.943" height="33.485"/>
	<text transform="matrix(1 0 0 1 549.8242 44.0908)" fill="#FFFFFF" font-family="'Roboto-Regular'" font-size="26">9</text>
</g>
<g id="_x38__PB">
	<g>
		<path fill-rule="evenodd" clip-rule="evenodd" d="M523.832,58.348c0,0.55-0.45,1-1,1h-46.914c-0.55,0-1-0.45-1-1V11.43
			c0-0.55,0.45-1,1-1h46.914c0.55,0,1,0.45,1,1V58.348z"/>
	</g>
	<rect x="474.881" y="24.279" fill-rule="evenodd" clip-rule="evenodd" fill="none" width="48.939" height="31.262"/>
	<text transform="matrix(1 0 0 1 492.0313 44.0908)" fill="#FFFFFF" font-family="'Roboto-Regular'" font-size="26">8</text>
</g>
<g id="_x37__PB">
	<g>
		<path fill-rule="evenodd" clip-rule="evenodd" d="M466.033,58.348c0,0.55-0.45,1-1,1h-46.914c-0.55,0-1-0.45-1-1V11.43
			c0-0.55,0.45-1,1-1h46.914c0.55,0,1,0.45,1,1V58.348z"/>
	</g>
	<rect x="417.088" y="24.28" fill-rule="evenodd" clip-rule="evenodd" fill="none" width="48.941" height="30.521"/>
	<text transform="matrix(1 0 0 1 434.2402 44.0908)" fill="#FFFFFF" font-family="'Roboto-Regular'" font-size="26">7</text>
</g>
<g id="_x36__PB">
	<g>
		<path fill-rule="evenodd" clip-rule="evenodd" d="M408.236,58.348c0,0.55-0.45,1-1,1h-46.914c-0.55,0-1-0.45-1-1V11.43
			c0-0.55,0.45-1,1-1h46.914c0.55,0,1,0.45,1,1V58.348z"/>
	</g>
	<rect x="359.293" y="24.28" fill-rule="evenodd" clip-rule="evenodd" fill="none" width="48.941" height="26.816"/>
	<text transform="matrix(1 0 0 1 376.4453 44.0908)" fill="#FFFFFF" font-family="'Roboto-Regular'" font-size="26">6</text>
</g>
<g id="_x35__PB">
	<g>
		<path fill-rule="evenodd" clip-rule="evenodd" d="M350.438,58.348c0,0.55-0.45,1-1,1h-46.914c-0.55,0-1-0.45-1-1V11.43
			c0-0.55,0.45-1,1-1h46.914c0.55,0,1,0.45,1,1V58.348z"/>
	</g>
	<rect x="301.5" y="24.28" fill-rule="evenodd" clip-rule="evenodd" fill="none" width="48.943" height="30.521"/>
	<text transform="matrix(1 0 0 1 318.6523 44.0908)" fill="#FFFFFF" font-family="'Roboto-Regular'" font-size="26">5</text>
</g>
<g id="_x34__PB">
	<g>
		<path fill-rule="evenodd" clip-rule="evenodd" d="M292.641,58.348c0,0.55-0.45,1-1,1h-46.916c-0.55,0-1-0.45-1-1V11.43
			c0-0.55,0.45-1,1-1h46.916c0.55,0,1,0.45,1,1V58.348z"/>
	</g>
	<rect x="243.709" y="24.28" fill-rule="evenodd" clip-rule="evenodd" fill="none" width="48.941" height="30.521"/>
	<text transform="matrix(1 0 0 1 260.8613 44.0908)" fill="#FFFFFF" font-family="'Roboto-Regular'" font-size="26">4</text>
</g>
<g id="_x33__PB">
	<g>
		<path fill-rule="evenodd" clip-rule="evenodd" d="M234.842,58.348c0,0.55-0.45,1-1,1h-46.914c-0.55,0-1-0.45-1-1V11.43
			c0-0.55,0.45-1,1-1h46.914c0.55,0,1,0.45,1,1V58.348z"/>
	</g>
	<rect x="185.914" y="24.279" fill-rule="evenodd" clip-rule="evenodd" fill="none" width="48.943" height="29.78"/>
	<text transform="matrix(1 0 0 1 203.0664 44.0908)" fill="#FFFFFF" font-family="'Roboto-Regular'" font-size="26">3</text>
</g>
<g id="_x32__PB">
	<g>
		<path fill-rule="evenodd" clip-rule="evenodd" d="M177.045,58.348c0,0.55-0.45,1-1,1h-46.917c-0.55,0-1-0.45-1-1V11.43
			c0-0.55,0.45-1,1-1h46.917c0.55,0,1,0.45,1,1V58.348z"/>
	</g>
	<rect x="128.123" y="24.279" fill-rule="evenodd" clip-rule="evenodd" fill="none" width="48.944" height="26.075"/>
	<text transform="matrix(1 0 0 1 145.2754 44.0908)" fill="#FFFFFF" font-family="'Roboto-Regular'" font-size="26">2</text>
</g>
<g id="_x31__PB">
	<g>
		<path fill-rule="evenodd" clip-rule="evenodd" d="M119.246,58.348c0,0.55-0.45,1-1,1H71.332c-0.55,0-1-0.45-1-1V11.43
			c0-0.55,0.45-1,1-1h46.915c0.55,0,1,0.45,1,1V58.348z"/>
	</g>
	<rect x="75.329" y="24.279" fill-rule="evenodd" clip-rule="evenodd" fill="none" width="40.53" height="24.593"/>
	<text transform="matrix(1 0 0 1 88.2754 44.0908)" fill="#FFFFFF" font-family="'Roboto-Regular'" font-size="26">1</text>
</g>
<g id="_xB8_PB">
	<g>
		<path fill-rule="evenodd" clip-rule="evenodd" d="M61.289,58.348c0,0.55-0.45,1-1,1H13.374c-0.55,0-1-0.45-1-1V11.43
			c0-0.55,0.45-1,1-1h46.916c0.55,0,1,0.45,1,1V58.348z"/>
	</g>
	<rect x="12.374" y="24.279" fill-rule="evenodd" clip-rule="evenodd" fill="none" width="48.942" height="30.626"/>
	<text transform="matrix(1 0 0 1 33.6138 44.0908)" fill="#FFFFFF" font-family="'Roboto-Regular'" font-size="26">¸</text>
</g>
<g id="CTRL_x5F_D">
	<g>
		<path fill-rule="evenodd" clip-rule="evenodd" fill="#FFFFFF" d="M849.248,288.142c0,0.55-0.45,1-1,1h-85.031c-0.55,0-1-0.45-1-1
			v-46.916c0-0.55,0.45-1,1-1h85.031c0.55,0,1,0.45,1,1V288.142z"/>
	</g>
	<rect x="764.447" y="254.783" fill-rule="evenodd" clip-rule="evenodd" fill="none" width="73.492" height="30.521"/>
	<text transform="matrix(1 0 0 1 809.9863 269.2612)" font-family="'Roboto-Regular'" font-size="19">ctrl</text>
</g>
<g id="PRESLEDNICA">
	<g>
		<path fill-rule="evenodd" clip-rule="evenodd" fill="#FFFFFF" d="M533.336,287.44c0,0.55-0.45,1-1,1H254.76c-0.55,0-1-0.45-1-1
			v-46.916c0-0.55,0.45-1,1-1h277.576c0.55,0,1,0.45,1,1V287.44z"/>
	</g>
</g>
<g id="CTRL_x5F_L">
	<g>
		<path fill-rule="evenodd" clip-rule="evenodd" fill="#FFFFFF" d="M99.405,288.142c0,0.55-0.45,1-1,1H13.374c-0.55,0-1-0.45-1-1
			v-46.916c0-0.55,0.45-1,1-1h85.032c0.55,0,1,0.45,1,1V288.142z"/>
	</g>
	<rect x="20.675" y="255.783" fill-rule="evenodd" clip-rule="evenodd" fill="none" width="64.286" height="27.706"/>
	<text transform="matrix(1 0 0 1 20.6753 270.2612)" font-family="'Roboto-Regular'" font-size="19">ctrl</text>
</g>
<g id="SHIFT_x5F_D">
	<g>
		<path fill-rule="evenodd" clip-rule="evenodd" fill="#FFFFFF" d="M849.248,231.228c0,0.55-0.45,1-1,1H716.777c-0.55,0-1-0.45-1-1
			v-46.915c0-0.55,0.45-1,1-1h131.471c0.55,0,1,0.45,1,1V231.228z"/>
	</g>
	<g>
		<g>
			
				<line fill="none" stroke="#000000" stroke-width="2" stroke-miterlimit="10" x1="830.256" y1="217.556" x2="830.256" y2="198.975"/>
			<g>
				<polygon points="838.436,205.602 836.971,206.966 830.258,199.742 823.543,206.966 822.078,205.602 830.258,196.806 				"/>
			</g>
		</g>
	</g>
</g>
<g id="_x2D_">
	<g>
		<path fill-rule="evenodd" clip-rule="evenodd" fill="#FFFFFF" d="M707.662,231.228c0,0.55-0.45,1-1,1h-46.914c-0.55,0-1-0.45-1-1
			v-46.915c0-0.55,0.45-1,1-1h46.914c0.55,0,1,0.45,1,1V231.228z"/>
	</g>
	<rect x="658.542" y="208.854" fill-rule="evenodd" clip-rule="evenodd" fill="none" width="48.941" height="26.373"/>
	<text transform="matrix(1 0 0 1 679.4512 228.666)" font-family="'Roboto-Regular'" font-size="26">-</text>
	<rect x="658.542" y="189.521" fill-rule="evenodd" clip-rule="evenodd" fill="none" width="48.941" height="29.039"/>
	<text transform="matrix(1 0 0 1 674.0234 209.333)" font-family="'Roboto-Regular'" font-size="26">–</text>
</g>
<g id="_x2E_">
	<g>
		<path fill-rule="evenodd" clip-rule="evenodd" fill="#FFFFFF" d="M649.863,231.228c0,0.55-0.45,1-1,1h-46.914c-0.55,0-1-0.45-1-1
			v-46.915c0-0.55,0.45-1,1-1h46.914c0.55,0,1,0.45,1,1V231.228z"/>
	</g>
	<g>
		<path fill-rule="evenodd" clip-rule="evenodd" fill="#FFFFFF" d="M649.863,231.228c0,0.55-0.45,1-1,1h-46.914c-0.55,0-1-0.45-1-1
			v-46.915c0-0.55,0.45-1,1-1h46.914c0.55,0,1,0.45,1,1V231.228z"/>
	</g>
	<rect x="600.973" y="203.799" fill-rule="evenodd" clip-rule="evenodd" fill="none" width="48.943" height="24.595"/>
	<text transform="matrix(1 0 0 1 621.9648 223.6104)" font-family="'Roboto-Regular'" font-size="26">.</text>
	<rect x="599.973" y="182.799" fill-rule="evenodd" clip-rule="evenodd" fill="none" width="48.943" height="31.262"/>
	<text transform="matrix(1 0 0 1 621.1621 202.6104)" font-family="'Roboto-Regular'" font-size="26">:</text>
</g>
<g id="_x2C_">
	<g>
		<path fill-rule="evenodd" clip-rule="evenodd" fill="#FFFFFF" d="M592.066,231.228c0,0.55-0.45,1-1,1h-46.914c-0.55,0-1-0.45-1-1
			v-46.915c0-0.55,0.45-1,1-1h46.914c0.55,0,1,0.45,1,1V231.228z"/>
	</g>
	<g>
		<path fill-rule="evenodd" clip-rule="evenodd" fill="#FFFFFF" d="M592.066,231.228c0,0.55-0.45,1-1,1h-46.914c-0.55,0-1-0.45-1-1
			v-46.915c0-0.55,0.45-1,1-1h46.914c0.55,0,1,0.45,1,1V231.228z"/>
	</g>
	<rect x="543.18" y="203.799" fill-rule="evenodd" clip-rule="evenodd" fill="none" width="48.941" height="26.595"/>
	<text transform="matrix(1 0 0 1 565.0859 223.6104)" font-family="'Roboto-Regular'" font-size="26">,</text>
	<rect x="543.18" y="183.445" fill-rule="evenodd" clip-rule="evenodd" fill="none" width="48.941" height="31.262"/>
	<text transform="matrix(1 0 0 1 564.3184 203.2568)" font-family="'Roboto-Regular'" font-size="26">;</text>
</g>
<g id="M">
	<g>
		<path fill-rule="evenodd" clip-rule="evenodd" fill="#FFFFFF" d="M534.268,231.228c0,0.55-0.45,1-1,1h-46.912c-0.55,0-1-0.45-1-1
			v-46.915c0-0.55,0.45-1,1-1h46.912c0.55,0,1,0.45,1,1V231.228z"/>
	</g>
	<rect x="485.387" y="197.799" fill-rule="evenodd" clip-rule="evenodd" fill="none" width="48.943" height="28.297"/>
	<text transform="matrix(1 0 0 1 498.4395 217.6104)" font-family="'Roboto-Regular'" font-size="26">M</text>
</g>
<g id="N">
	<g>
		<path fill-rule="evenodd" clip-rule="evenodd" fill="#FFFFFF" d="M476.471,231.228c0,0.55-0.45,1-1,1h-46.916c-0.55,0-1-0.45-1-1
			v-46.915c0-0.55,0.45-1,1-1h46.916c0.55,0,1,0.45,1,1V231.228z"/>
	</g>
	<rect x="427.594" y="197.799" fill-rule="evenodd" clip-rule="evenodd" fill="none" width="48.941" height="30.25"/>
	<text transform="matrix(1 0 0 1 442.791 217.6104)" font-family="'Roboto-Regular'" font-size="26">N</text>
</g>
<g id="B">
	<g>
		<path fill-rule="evenodd" clip-rule="evenodd" fill="#FFFFFF" d="M418.672,231.228c0,0.55-0.45,1-1,1h-46.914c-0.55,0-1-0.45-1-1
			v-46.915c0-0.55,0.45-1,1-1h46.914c0.55,0,1,0.45,1,1V231.228z"/>
	</g>
	<rect x="369.801" y="197.799" fill-rule="evenodd" clip-rule="evenodd" fill="none" width="48.943" height="30.521"/>
	<text transform="matrix(1 0 0 1 385.9629 217.6104)" font-family="'Roboto-Regular'" font-size="26">B</text>
</g>
<g id="V">
	<g>
		<path fill-rule="evenodd" clip-rule="evenodd" fill="#FFFFFF" d="M360.875,231.228c0,0.55-0.45,1-1,1h-46.916c-0.55,0-1-0.45-1-1
			v-46.915c0-0.55,0.45-1,1-1h46.916c0.55,0,1,0.45,1,1V231.228z"/>
	</g>
	<rect x="312.008" y="197.799" fill-rule="evenodd" clip-rule="evenodd" fill="none" width="48.943" height="28.297"/>
	<text transform="matrix(1 0 0 1 328.2598 217.6104)" font-family="'Roboto-Regular'" font-size="26">V</text>
</g>
<g id="C">
	<g>
		<path fill-rule="evenodd" clip-rule="evenodd" fill="#FFFFFF" d="M303.076,231.228c0,0.55-0.45,1-1,1h-46.914c-0.55,0-1-0.45-1-1
			v-46.915c0-0.55,0.45-1,1-1h46.914c0.55,0,1,0.45,1,1V231.228z"/>
	</g>
	<rect x="254.215" y="197.799" fill-rule="evenodd" clip-rule="evenodd" fill="none" width="48.941" height="32.743"/>
	<text transform="matrix(1 0 0 1 270.4531 217.6104)" font-family="'Roboto-Regular'" font-size="26">C</text>
</g>
<g id="X">
	<g>
		<path fill-rule="evenodd" clip-rule="evenodd" fill="#FFFFFF" d="M245.277,231.228c0,0.55-0.45,1-1,1h-46.914c-0.55,0-1-0.45-1-1
			v-46.915c0-0.55,0.45-1,1-1h46.914c0.55,0,1,0.45,1,1V231.228z"/>
	</g>
	<rect x="196.424" y="197.799" fill-rule="evenodd" clip-rule="evenodd" fill="none" width="48.941" height="29.78"/>
	<text transform="matrix(1 0 0 1 212.6738 217.6104)" font-family="'Roboto-Regular'" font-size="26">X</text>
</g>
<g id="Y">
	<g>
		<path fill-rule="evenodd" clip-rule="evenodd" fill="#FFFFFF" d="M187.527,231.228c0,0.55-0.45,1-1,1h-46.918c-0.55,0-1-0.45-1-1
			v-46.915c0-0.55,0.45-1,1-1h46.918c0.55,0,1,0.45,1,1V231.228z"/>
	</g>
	<rect x="138.629" y="197.799" fill-rule="evenodd" clip-rule="evenodd" fill="none" width="48.943" height="31.262"/>
	<text transform="matrix(1 0 0 1 155.166 217.6104)" font-family="'Roboto-Regular'" font-size="26">Y</text>
</g>
<g id="_x3E__x3C_">
	<g>
		<path fill-rule="evenodd" clip-rule="evenodd" fill="#FFFFFF" d="M129.928,231.228c0,0.55-0.45,1-1,1H82.012c-0.55,0-1-0.45-1-1
			v-46.915c0-0.55,0.45-1,1-1h46.916c0.55,0,1,0.45,1,1V231.228z"/>
	</g>
	<rect x="81.192" y="187.799" fill-rule="evenodd" clip-rule="evenodd" fill="none" width="48.944" height="36.449"/>
	<text transform="matrix(1 0 0 1 98.8604 207.6113)" font-family="'Roboto-Regular'" font-size="26">&gt;</text>
	<text transform="matrix(1.0821 0 0 1 99.6104 222.2744)" font-family="'Roboto-Regular'" font-size="24.0264">&lt;</text>
</g>
<g id="SHIFT_x5F_L">
	<g>
		<path fill-rule="evenodd" clip-rule="evenodd" fill="#FFFFFF" d="M57.141,183.313c-0.55,0-1.45,0-2,0H23.968c-0.55,0-1.45,0-2,0
			h-8.594c-0.55,0-1,0.45-1,1v46.915c0,0.55,0.45,1,1,1h8.594c0.55,0,1.45,0,2,0h31.173c0.55,0,1.45,0,2,0h13.743c0.55,0,1-0.45,1-1
			v-46.915c0-0.55-0.45-1-1-1H57.141z"/>
	</g>
	<g>
		<g>
			
				<line fill="none" stroke="#000000" stroke-width="2" stroke-miterlimit="10" x1="31.256" y1="217.556" x2="31.256" y2="198.975"/>
			<g>
				<polygon points="39.436,205.602 37.971,206.966 31.258,199.742 24.543,206.966 23.078,205.602 31.258,196.806 				"/>
			</g>
		</g>
	</g>
</g>
<g id="Ž">
	<g>
		<path fill-rule="evenodd" clip-rule="evenodd" fill="#FFFFFF" d="M804.025,173.05c0,0.55-0.45,1-1,1h-46.914c-0.55,0-1-0.45-1-1
			v-46.915c0-0.55,0.45-1,1-1h46.914c0.55,0,1,0.45,1,1V173.05z"/>
	</g>
	<rect x="755.105" y="139.373" fill-rule="evenodd" clip-rule="evenodd" fill="none" width="48.943" height="31.262"/>
	<text transform="matrix(1 0 0 1 771.8008 159.1846)" font-family="'Roboto-Regular'" font-size="26">Ž</text>
</g>
<g id="Ć">
	<g>
		<path fill-rule="evenodd" clip-rule="evenodd" fill="#FFFFFF" d="M746.303,173.05c0,0.55-0.45,1-1,1h-46.914c-0.55,0-1-0.45-1-1
			v-46.915c0-0.55,0.45-1,1-1h46.914c0.55,0,1,0.45,1,1V173.05z"/>
	</g>
	<rect x="697.314" y="139.373" fill-rule="evenodd" clip-rule="evenodd" fill="none" width="48.941" height="31.261"/>
	<text transform="matrix(1 0 0 1 713.5527 159.1846)" font-family="'Roboto-Regular'" font-size="26">Ć</text>
</g>
<g id="Č">
	<g>
		<path fill-rule="evenodd" clip-rule="evenodd" fill="#FFFFFF" d="M688.504,173.05c0,0.55-0.45,1-1,1H640.59c-0.55,0-1-0.45-1-1
			v-46.915c0-0.55,0.45-1,1-1h46.914c0.55,0,1,0.45,1,1V173.05z"/>
	</g>
	<rect x="639.523" y="139.373" fill-rule="evenodd" clip-rule="evenodd" fill="none" width="48.941" height="28.297"/>
	<text transform="matrix(1 0 0 1 655.7617 159.1846)" font-family="'Roboto-Regular'" font-size="26">Č</text>
</g>
<g id="L">
	<g>
		<path fill-rule="evenodd" clip-rule="evenodd" fill="#FFFFFF" d="M630.707,173.05c0,0.55-0.45,1-1,1h-46.914c-0.55,0-1-0.45-1-1
			v-46.915c0-0.55,0.45-1,1-1h46.914c0.55,0,1,0.45,1,1V173.05z"/>
	</g>
	<rect x="581.729" y="139.373" fill-rule="evenodd" clip-rule="evenodd" fill="none" width="48.943" height="32.002"/>
	<text transform="matrix(1 0 0 1 599.1797 159.1846)" font-family="'Roboto-Regular'" font-size="26">L</text>
</g>
<g id="K">
	<g>
		<path fill-rule="evenodd" clip-rule="evenodd" fill="#FFFFFF" d="M572.908,173.05c0,0.55-0.45,1-1,1h-46.914c-0.55,0-1-0.45-1-1
			v-46.915c0-0.55,0.45-1,1-1h46.914c0.55,0,1,0.45,1,1V173.05z"/>
	</g>
	<rect x="523.934" y="139.373" fill-rule="evenodd" clip-rule="evenodd" fill="none" width="48.943" height="31.261"/>
	<text transform="matrix(1 0 0 1 540.0449 159.1846)" font-family="'Roboto-Regular'" font-size="26">K</text>
</g>
<g id="J">
	<g>
		<path fill-rule="evenodd" clip-rule="evenodd" fill="#FFFFFF" d="M515.109,173.05c0,0.55-0.45,1-1,1h-46.914c-0.55,0-1-0.45-1-1
			v-46.915c0-0.55,0.45-1,1-1h46.914c0.55,0,1,0.45,1,1V173.05z"/>
	</g>
	<rect x="466.143" y="139.373" fill-rule="evenodd" clip-rule="evenodd" fill="none" width="48.943" height="30.521"/>
	<text transform="matrix(1 0 0 1 483.4414 159.1846)" font-family="'Roboto-Regular'" font-size="26">J</text>
</g>
<g id="H">
	<g>
		<path fill-rule="evenodd" clip-rule="evenodd" fill="#FFFFFF" d="M457.313,173.05c0,0.55-0.45,1-1,1h-46.914c-0.55,0-1-0.45-1-1
			v-46.915c0-0.55,0.45-1,1-1h46.914c0.55,0,1,0.45,1,1V173.05z"/>
	</g>
	<rect x="408.348" y="139.373" fill-rule="evenodd" clip-rule="evenodd" fill="none" width="48.943" height="32.002"/>
	<text transform="matrix(1 0 0 1 423.5449 159.1846)" font-family="'Roboto-Regular'" font-size="26">H</text>
</g>
<g id="G">
	<g>
		<path fill-rule="evenodd" clip-rule="evenodd" fill="#FFFFFF" d="M399.514,173.05c0,0.55-0.45,1-1,1h-46.916c-0.55,0-1-0.45-1-1
			v-46.915c0-0.55,0.45-1,1-1h46.916c0.55,0,1,0.45,1,1V173.05z"/>
	</g>
	<rect x="350.557" y="139.373" fill-rule="evenodd" clip-rule="evenodd" fill="none" width="48.943" height="32.002"/>
	<text transform="matrix(1 0 0 1 366.166 159.1846)" font-family="'Roboto-Regular'" font-size="26">G</text>
</g>
<g id="F">
	<g>
		<path fill-rule="evenodd" clip-rule="evenodd" fill="#FFFFFF" d="M341.717,173.05c0,0.55-0.45,1-1,1h-46.914c-0.55,0-1-0.45-1-1
			v-46.915c0-0.55,0.45-1,1-1h46.914c0.55,0,1,0.45,1,1V173.05z"/>
	</g>
	<g>
		<rect x="292.762" y="139.373" fill="none" width="48.943" height="29.978"/>
		<text transform="matrix(1 0 0 1 309.6602 159.1846)" font-family="'Roboto-Regular'" font-size="26">F</text>
	</g>
</g>
<g id="D">
	<g>
		<path fill-rule="evenodd" clip-rule="evenodd" fill="#FFFFFF" d="M283.918,173.05c0,0.55-0.45,1-1,1h-46.916c-0.55,0-1-0.45-1-1
			v-46.915c0-0.55,0.45-1,1-1h46.916c0.55,0,1,0.45,1,1V173.05z"/>
	</g>
	<rect x="234.969" y="139.373" fill-rule="evenodd" clip-rule="evenodd" fill="none" width="48.943" height="29.039"/>
	<text transform="matrix(1 0 0 1 250.877 159.1846)" font-family="'Roboto-Regular'" font-size="26">D</text>
</g>
<g id="S">
	<g>
		<path fill-rule="evenodd" clip-rule="evenodd" fill="#FFFFFF" d="M226.121,173.05c0,0.55-0.45,1-1,1h-46.914c-0.55,0-1-0.45-1-1
			v-46.915c0-0.55,0.45-1,1-1h46.914c0.55,0,1,0.45,1,1V173.05z"/>
	</g>
	<rect x="177.178" y="139.373" fill-rule="evenodd" clip-rule="evenodd" fill="none" width="48.941" height="28.297"/>
	<text transform="matrix(1 0 0 1 193.543 159.1846)" font-family="'Roboto-Regular'" font-size="26">S</text>
</g>
<g id="A">
	<g>
		<path fill-rule="evenodd" clip-rule="evenodd" fill="#FFFFFF" d="M168.367,173.05c0,0.55-0.45,1-1,1h-46.913c-0.55,0-1-0.45-1-1
			v-46.915c0-0.55,0.45-1,1-1h46.913c0.55,0,1,0.45,1,1V173.05z"/>
	</g>
	<rect x="119.384" y="139.373" fill-rule="evenodd" clip-rule="evenodd" fill="none" width="48.942" height="29.039"/>
	<text transform="matrix(1 0 0 1 135.438 159.1846)" font-family="'Roboto-Regular'" font-size="26">A</text>
</g>
<g id="CAPS_LOCK">
	<g>
		<path fill-rule="evenodd" clip-rule="evenodd" fill="#FFFFFF" d="M110.571,173.05c0,0.55-0.45,1-1,1H13.374c-0.55,0-1-0.45-1-1
			v-46.915c0-0.55,0.45-1,1-1h96.198c0.55,0,1,0.45,1,1V173.05z"/>
	</g>
	<g>
		<rect x="19.675" y="140.934" fill="none" width="97.966" height="26.584"/>
		<text transform="matrix(1 0 0 1 19.6753 155.4121)" font-family="'Roboto-Regular'" font-size="19">caps lock</text>
	</g>
</g>
<g id="ENTER">
	<g>
		<path fill-rule="evenodd" clip-rule="evenodd" fill="#FFFFFF" d="M801.334,67.766c-0.55,0-1,0.45-1,1v46.914c0,0.55,0.45,1,1,1
			h10.561c0.55,0,1,0.45,1,1v55.371c0,0.55,0.45,1,1,1h34.354c0.55,0,1-0.45,1-1V117.68c0-0.55,0-1.45,0-2v-10c0-0.55,0-1.45,0-2
			V68.766c0-0.55-0.45-1-1-1H801.334z"/>
	</g>
</g>
<g id="Đ">
	<g>
		<path fill-rule="evenodd" clip-rule="evenodd" fill="#FFFFFF" d="M792.221,115.68c0,0.55-0.45,1-1,1h-46.914c-0.55,0-1-0.45-1-1
			V68.766c0-0.55,0.45-1,1-1h46.914c0.55,0,1,0.45,1,1V115.68z"/>
	</g>
	<rect x="743.369" y="81.826" fill-rule="evenodd" clip-rule="evenodd" fill="none" width="48.941" height="32.002"/>
	<text transform="matrix(1 0 0 1 759.0859 101.6377)" font-family="'Roboto-Regular'" font-size="26">Đ</text>
</g>
<g id="Š">
	<g>
		<path fill-rule="evenodd" clip-rule="evenodd" fill="#FFFFFF" d="M734.424,115.68c0,0.55-0.45,1-1,1H686.51c-0.55,0-1-0.45-1-1
			V68.766c0-0.55,0.45-1,1-1h46.914c0.55,0,1,0.45,1,1V115.68z"/>
	</g>
	<g>
		<path fill-rule="evenodd" clip-rule="evenodd" fill="#FFFFFF" d="M734.424,115.68c0,0.55-0.45,1-1,1H686.51c-0.55,0-1-0.45-1-1
			V68.766c0-0.55,0.45-1,1-1h46.914c0.55,0,1,0.45,1,1V115.68z"/>
	</g>
	<rect x="685.574" y="81.826" fill-rule="evenodd" clip-rule="evenodd" fill="none" width="48.943" height="31.262"/>
	<text transform="matrix(1 0 0 1 701.9395 101.6377)" font-family="'Roboto-Regular'" font-size="26">Š</text>
</g>
<g id="P">
	<g>
		<path fill-rule="evenodd" clip-rule="evenodd" fill="#FFFFFF" d="M676.625,115.68c0,0.55-0.45,1-1,1h-46.914c-0.55,0-1-0.45-1-1
			V68.766c0-0.55,0.45-1,1-1h46.914c0.55,0,1,0.45,1,1V115.68z"/>
	</g>
	<rect x="627.783" y="81.826" fill-rule="evenodd" clip-rule="evenodd" fill="none" width="48.943" height="28.297"/>
	<text transform="matrix(1 0 0 1 643.9258 101.6377)" font-family="'Roboto-Regular'" font-size="26">P</text>
</g>
<g id="O">
	<g>
		<path fill-rule="evenodd" clip-rule="evenodd" fill="#FFFFFF" d="M618.828,115.68c0,0.55-0.45,1-1,1h-46.914c-0.55,0-1-0.45-1-1
			V68.766c0-0.55,0.45-1,1-1h46.914c0.55,0,1,0.45,1,1V115.68z"/>
	</g>
	<rect x="569.99" y="81.826" fill-rule="evenodd" clip-rule="evenodd" fill="none" width="48.941" height="29.78"/>
	<text transform="matrix(1 0 0 1 585.5996 101.6377)" font-family="'Roboto-Regular'" font-size="26">O</text>
</g>
<g id="I">
	<g>
		<path fill-rule="evenodd" clip-rule="evenodd" fill="#FFFFFF" d="M561.029,115.68c0,0.55-0.45,1-1,1h-46.914c-0.55,0-1-0.45-1-1
			V68.766c0-0.55,0.45-1,1-1h46.914c0.55,0,1,0.45,1,1V115.68z"/>
	</g>
	<rect x="512.197" y="81.826" fill-rule="evenodd" clip-rule="evenodd" fill="none" width="48.943" height="29.039"/>
	<text transform="matrix(1 0 0 1 532.9941 101.6377)" font-family="'Roboto-Regular'" font-size="26">I</text>
</g>
<g id="U">
	<g>
		<path fill-rule="evenodd" clip-rule="evenodd" fill="#FFFFFF" d="M503.23,115.68c0,0.55-0.45,1-1,1h-46.912c-0.55,0-1-0.45-1-1
			V68.766c0-0.55,0.45-1,1-1h46.912c0.55,0,1,0.45,1,1V115.68z"/>
	</g>
	<rect x="454.406" y="81.825" fill-rule="evenodd" clip-rule="evenodd" fill="none" width="48.941" height="30.521"/>
	<text transform="matrix(1 0 0 1 470.0781 101.6377)" font-family="'Roboto-Regular'" font-size="26">U</text>
</g>
<g id="Z">
	<g>
		<path fill-rule="evenodd" clip-rule="evenodd" fill="#FFFFFF" d="M445.434,115.68c0,0.55-0.45,1-1,1H397.52c-0.55,0-1-0.45-1-1
			V68.766c0-0.55,0.45-1,1-1h46.914c0.55,0,1,0.45,1,1V115.68z"/>
	</g>
	<rect x="396.609" y="81.826" fill-rule="evenodd" clip-rule="evenodd" fill="none" width="48.941" height="32.744"/>
	<text transform="matrix(1 0 0 1 413.3047 101.6377)" font-family="'Roboto-Regular'" font-size="26">Z</text>
</g>
<g id="T">
	<g>
		<path fill-rule="evenodd" clip-rule="evenodd" fill="#FFFFFF" d="M387.635,115.68c0,0.55-0.45,1-1,1h-46.916c-0.55,0-1-0.45-1-1
			V68.766c0-0.55,0.45-1,1-1h46.916c0.55,0,1,0.45,1,1V115.68z"/>
	</g>
	<rect x="338.818" y="81.825" fill-rule="evenodd" clip-rule="evenodd" fill="none" width="48.941" height="32.003"/>
	<text transform="matrix(1 0 0 1 355.6719 101.6377)" font-family="'Roboto-Regular'" font-size="26">T</text>
</g>
<g id="R">
	<g>
		<path fill-rule="evenodd" clip-rule="evenodd" fill="#FFFFFF" d="M329.838,115.68c0,0.55-0.45,1-1,1h-46.914c-0.55,0-1-0.45-1-1
			V68.766c0-0.55,0.45-1,1-1h46.914c0.55,0,1,0.45,1,1V115.68z"/>
	</g>
	<rect x="281.023" y="81.825" fill-rule="evenodd" clip-rule="evenodd" fill="none" width="48.943" height="30.521"/>
	<text transform="matrix(1 0 0 1 296.8809 101.6377)" font-family="'Roboto-Regular'" font-size="26">R</text>
</g>
<g id="E">
	<g>
		<path fill-rule="evenodd" clip-rule="evenodd" fill="#FFFFFF" d="M272.039,115.68c0,0.55-0.45,1-1,1h-46.916c-0.55,0-1-0.45-1-1
			V68.766c0-0.55,0.45-1,1-1h46.916c0.55,0,1,0.45,1,1V115.68z"/>
	</g>
	<rect x="223.23" y="81.825" fill-rule="evenodd" clip-rule="evenodd" fill="none" width="48.941" height="30.521"/>
	<text transform="matrix(1 0 0 1 240.1035 101.6377)" font-family="'Roboto-Regular'" font-size="26">E</text>
</g>
<g id="W">
	<g>
		<path fill-rule="evenodd" clip-rule="evenodd" fill="#FFFFFF" d="M214.242,115.68c0,0.55-0.45,1-1,1h-46.914c-0.55,0-1-0.45-1-1
			V68.766c0-0.55,0.45-1,1-1h46.914c0.55,0,1,0.45,1,1V115.68z"/>
	</g>
	<rect x="165.439" y="81.825" fill-rule="evenodd" clip-rule="evenodd" fill="none" width="48.941" height="32.003"/>
	<text transform="matrix(1 0 0 1 178.4277 101.6377)" font-family="'Roboto-Regular'" font-size="26">W</text>
</g>
<g id="Q">
	<g>
		<path fill-rule="evenodd" clip-rule="evenodd" fill="#FFFFFF" d="M156.49,115.68c0,0.55-0.45,1-1,1h-46.915c-0.55,0-1-0.45-1-1
			V68.766c0-0.55,0.45-1,1-1h46.915c0.55,0,1,0.45,1,1V115.68z"/>
	</g>
	<rect x="107.646" y="81.826" fill-rule="evenodd" clip-rule="evenodd" fill="none" width="48.942" height="29.78"/>
	<text transform="matrix(1 0 0 1 123.2554 101.6377)" font-family="'Roboto-Regular'" font-size="26">Q</text>
</g>
<g id="TAB">
	<g>
		<path fill-rule="evenodd" clip-rule="evenodd" fill="#FFFFFF" d="M99.405,115.68c0,0.55-0.45,1-1,1H13.374c-0.55,0-1-0.45-1-1
			V68.766c0-0.55,0.45-1,1-1h85.032c0.55,0,1,0.45,1,1V115.68z"/>
	</g>
	<rect x="20.675" y="84.826" fill-rule="evenodd" clip-rule="evenodd" fill="none" width="67.909" height="22.046"/>
	<text transform="matrix(1 0 0 1 20.6753 99.3037)" font-family="'Roboto-Regular'" font-size="19">tab</text>
</g>
<g id="BACK">
	<g>
		<path fill-rule="evenodd" clip-rule="evenodd" fill="#FFFFFF" d="M849.248,58.348c0,0.55-0.45,1-1,1h-84.441c-0.55,0-1-0.45-1-1
			V11.43c0-0.55,0.45-1,1-1h84.441c0.55,0,1,0.45,1,1V58.348z"/>
	</g>
	<g>
		<g>
			
				<line fill="none" stroke="#000000" stroke-width="2" stroke-miterlimit="10" x1="837.898" y1="34.958" x2="819.317" y2="34.958"/>
			<g>
				<polygon points="825.944,26.778 827.309,28.243 820.085,34.956 827.309,41.671 825.944,43.136 817.148,34.956 				"/>
			</g>
		</g>
	</g>
</g>
<g id="_x2B_">
	<g>
		<path fill-rule="evenodd" clip-rule="evenodd" fill="#FFFFFF" d="M755.023,58.348c0,0.55-0.45,1-1,1h-46.914c-0.55,0-1-0.45-1-1
			V11.43c0-0.55,0.45-1,1-1h46.914c0.55,0,1,0.45,1,1V58.348z"/>
	</g>
	<rect x="706.053" y="24.279" fill-rule="evenodd" clip-rule="evenodd" fill="none" width="48.943" height="28.298"/>
	<text transform="matrix(1 0 0 1 723.1484 44.0908)" font-family="'Roboto-Regular'" font-size="26">+</text>
</g>
<g id="_x27_">
	<g>
		<path fill-rule="evenodd" clip-rule="evenodd" fill="#FFFFFF" d="M697.227,58.348c0,0.55-0.45,1-1,1h-46.914c-0.55,0-1-0.45-1-1
			V11.43c0-0.55,0.45-1,1-1h46.914c0.55,0,1,0.45,1,1V58.348z"/>
	</g>
	<rect x="648.258" y="24.28" fill-rule="evenodd" clip-rule="evenodd" fill="none" width="48.943" height="32.003"/>
	<text transform="matrix(1 0 0 1 670.0762 44.0908)" font-family="'Roboto-Regular'" font-size="26">‘</text>
</g>
<g id="_x30_">
	<g>
		<path fill-rule="evenodd" clip-rule="evenodd" fill="#FFFFFF" d="M639.428,58.348c0,0.55-0.45,1-1,1h-46.914c-0.55,0-1-0.45-1-1
			V11.43c0-0.55,0.45-1,1-1h46.914c0.55,0,1,0.45,1,1V58.348z"/>
	</g>
	<rect x="590.467" y="24.279" fill-rule="evenodd" clip-rule="evenodd" fill="none" width="48.943" height="27.557"/>
	<text transform="matrix(1 0 0 1 607.6133 44.0908)" font-family="'Roboto-Regular'" font-size="26">0</text>
</g>
<g id="_x39_">
	<g>
		<path fill-rule="evenodd" clip-rule="evenodd" fill="#FFFFFF" d="M581.629,58.348c0,0.55-0.45,1-1,1h-46.914c-0.55,0-1-0.45-1-1
			V11.43c0-0.55,0.45-1,1-1h46.914c0.55,0,1,0.45,1,1V58.348z"/>
	</g>
	<rect x="532.672" y="24.279" fill-rule="evenodd" clip-rule="evenodd" fill="none" width="48.943" height="33.485"/>
	<text transform="matrix(1 0 0 1 549.8242 44.0908)" font-family="'Roboto-Regular'" font-size="26">9</text>
</g>
<g id="_x38_">
	<g>
		<path fill-rule="evenodd" clip-rule="evenodd" fill="#FFFFFF" d="M523.832,58.348c0,0.55-0.45,1-1,1h-46.914c-0.55,0-1-0.45-1-1
			V11.43c0-0.55,0.45-1,1-1h46.914c0.55,0,1,0.45,1,1V58.348z"/>
	</g>
	<rect x="474.881" y="24.279" fill-rule="evenodd" clip-rule="evenodd" fill="none" width="48.939" height="31.262"/>
	<text transform="matrix(1 0 0 1 492.0313 44.0908)" font-family="'Roboto-Regular'" font-size="26">8</text>
</g>
<g id="_x37_">
	<g>
		<path fill-rule="evenodd" clip-rule="evenodd" fill="#FFFFFF" d="M466.033,58.348c0,0.55-0.45,1-1,1h-46.914c-0.55,0-1-0.45-1-1
			V11.43c0-0.55,0.45-1,1-1h46.914c0.55,0,1,0.45,1,1V58.348z"/>
	</g>
	<rect x="417.088" y="24.28" fill-rule="evenodd" clip-rule="evenodd" fill="none" width="48.941" height="30.521"/>
	<text transform="matrix(1 0 0 1 434.2402 44.0908)" font-family="'Roboto-Regular'" font-size="26">7</text>
</g>
<g id="_x36_">
	<g>
		<path fill-rule="evenodd" clip-rule="evenodd" fill="#FFFFFF" d="M408.236,58.348c0,0.55-0.45,1-1,1h-46.914c-0.55,0-1-0.45-1-1
			V11.43c0-0.55,0.45-1,1-1h46.914c0.55,0,1,0.45,1,1V58.348z"/>
	</g>
	<rect x="359.293" y="24.28" fill-rule="evenodd" clip-rule="evenodd" fill="none" width="48.941" height="26.816"/>
	<text transform="matrix(1 0 0 1 376.4453 44.0908)" font-family="'Roboto-Regular'" font-size="26">6</text>
</g>
<g id="_x35_">
	<g>
		<path fill-rule="evenodd" clip-rule="evenodd" fill="#FFFFFF" d="M350.438,58.348c0,0.55-0.45,1-1,1h-46.914c-0.55,0-1-0.45-1-1
			V11.43c0-0.55,0.45-1,1-1h46.914c0.55,0,1,0.45,1,1V58.348z"/>
	</g>
	<rect x="301.5" y="24.28" fill-rule="evenodd" clip-rule="evenodd" fill="none" width="48.943" height="30.521"/>
	<text transform="matrix(1 0 0 1 318.6523 44.0908)" font-family="'Roboto-Regular'" font-size="26">5</text>
</g>
<g id="_x34_">
	<g>
		<path fill-rule="evenodd" clip-rule="evenodd" fill="#FFFFFF" d="M292.641,58.348c0,0.55-0.45,1-1,1h-46.916c-0.55,0-1-0.45-1-1
			V11.43c0-0.55,0.45-1,1-1h46.916c0.55,0,1,0.45,1,1V58.348z"/>
	</g>
	<rect x="243.709" y="24.28" fill-rule="evenodd" clip-rule="evenodd" fill="none" width="48.941" height="30.521"/>
	<text transform="matrix(1 0 0 1 260.8613 44.0908)" font-family="'Roboto-Regular'" font-size="26">4</text>
</g>
<g id="_x33_">
	<g>
		<path fill-rule="evenodd" clip-rule="evenodd" fill="#FFFFFF" d="M234.842,58.348c0,0.55-0.45,1-1,1h-46.914c-0.55,0-1-0.45-1-1
			V11.43c0-0.55,0.45-1,1-1h46.914c0.55,0,1,0.45,1,1V58.348z"/>
	</g>
	<rect x="185.914" y="24.279" fill-rule="evenodd" clip-rule="evenodd" fill="none" width="48.943" height="29.78"/>
	<text transform="matrix(1 0 0 1 203.0664 44.0908)" font-family="'Roboto-Regular'" font-size="26">3</text>
</g>
<g id="_x32_">
	<g>
		<path fill-rule="evenodd" clip-rule="evenodd" fill="#FFFFFF" d="M177.045,58.348c0,0.55-0.45,1-1,1h-46.917c-0.55,0-1-0.45-1-1
			V11.43c0-0.55,0.45-1,1-1h46.917c0.55,0,1,0.45,1,1V58.348z"/>
	</g>
	<rect x="128.123" y="24.279" fill-rule="evenodd" clip-rule="evenodd" fill="none" width="48.944" height="26.075"/>
	<text transform="matrix(1 0 0 1 145.2754 44.0908)" font-family="'Roboto-Regular'" font-size="26">2</text>
</g>
<g id="_x31_">
	<g>
		<path fill-rule="evenodd" clip-rule="evenodd" fill="#FFFFFF" d="M119.246,58.348c0,0.55-0.45,1-1,1H71.332c-0.55,0-1-0.45-1-1
			V11.43c0-0.55,0.45-1,1-1h46.915c0.55,0,1,0.45,1,1V58.348z"/>
	</g>
	<rect x="75.329" y="24.279" fill-rule="evenodd" clip-rule="evenodd" fill="none" width="40.53" height="24.593"/>
	<text transform="matrix(1 0 0 1 88.2754 44.0908)" font-family="'Roboto-Regular'" font-size="26">1</text>
</g>
<g id="_xB8_">
	<g>
		<path fill-rule="evenodd" clip-rule="evenodd" fill="#FFFFFF" d="M61.289,58.348c0,0.55-0.45,1-1,1H13.374c-0.55,0-1-0.45-1-1
			V11.43c0-0.55,0.45-1,1-1h46.916c0.55,0,1,0.45,1,1V58.348z"/>
	</g>
	<g>
		<path fill-rule="evenodd" clip-rule="evenodd" fill="#FFFFFF" d="M61.289,58.348c0,0.55-0.45,1-1,1H13.374c-0.55,0-1-0.45-1-1
			V11.43c0-0.55,0.45-1,1-1h46.916c0.55,0,1,0.45,1,1V58.348z"/>
	</g>
	<rect x="12.374" y="24.279" fill-rule="evenodd" clip-rule="evenodd" fill="none" width="48.942" height="30.626"/>
	<text transform="matrix(1 0 0 1 33.6138 44.0908)" font-family="'Roboto-Regular'" font-size="26">¸</text>
</g>
</svg>
