<?xml version="1.0" encoding="utf-8"?>
<!-- Generator: Adobe Illustrator 16.0.0, SVG Export Plug-In . SVG Version: 6.00 Build 0)  -->
<!DOCTYPE svg PUBLIC "-//W3C//DTD SVG 1.1//EN" "http://www.w3.org/Graphics/SVG/1.1/DTD/svg11.dtd">
<svg version="1.1" xmlns="http://www.w3.org/2000/svg" xmlns:xlink="http://www.w3.org/1999/xlink" x="0px" y="0px"
	 width="61.668px" height="58.82px" viewBox="0 0 61.668 58.82" enable-background="new 0 0 61.668 58.82" xml:space="preserve">
<g id="gb">
</g>
<g id="mreza">
</g>
<g id="Layer_1">
	<g opacity="0.4">
		<path fill="#FFFFFF" d="M41.824,19.162c-0.82,0.042-1.668-0.572-1.883-1.366c0,0-4.813-17.803-9.127-17.796
			c-4.311,0.002-9.09,17.814-9.09,17.814c-0.213,0.794-1.058,1.402-1.879,1.351c0,0-18.348-1.144-19.756,3.201
			c-1.404,4.343,14.128,14.172,14.128,14.172c0.694,0.439,1.032,1.431,0.75,2.204c0,0-6.351,17.397-3.093,19.758
			c3.258,2.358,17.82-9.087,17.82-9.087c0.646-0.508,1.71-0.516,2.363-0.016c0,0,14.764,11.289,17.824,9.065
			c3.049-2.225-3.155-19.746-3.155-19.746c-0.274-0.775,0.064-1.777,0.753-2.227c0,0,15.445-10.085,14.105-14.187
			C60.246,18.208,41.824,19.162,41.824,19.162z"/>
	</g>
</g>
<g id="CRKA">
</g>
<g id="txt">
</g>
<g id="glava">
</g>
</svg>
