<?xml version="1.0" encoding="utf-8"?>
<!-- Generator: Adobe Illustrator 16.0.0, SVG Export Plug-In . SVG Version: 6.00 Build 0)  -->
<!DOCTYPE svg PUBLIC "-//W3C//DTD SVG 1.1//EN" "http://www.w3.org/Graphics/SVG/1.1/DTD/svg11.dtd">
<svg version="1.1" id="Layer_1" xmlns="http://www.w3.org/2000/svg" xmlns:xlink="http://www.w3.org/1999/xlink" x="0px" y="0px"
	 width="122px" height="122px" viewBox="0 0 122 122" enable-background="new 0 0 122 122" xml:space="preserve">
<g id="mreza">
	<rect x="0" fill="none" width="122" height="122"/>
</g>
<g id="glava">
	<g>
		<g>
			<polygon points="59.114,46.575 55.91,46.575 55.91,46.681 47.044,54.953 37.321,54.953 37.321,68.288 47.044,68.288 
				55.91,76.563 55.91,76.665 56.019,76.665 56.019,76.665 56.019,76.665 59.114,76.665 			"/>
			<g>
				<path d="M76.84,79.678l-1.541-1.535C79.684,73.745,82.1,67.9,82.1,61.688c0-6.269-2.455-12.151-6.912-16.565l1.531-1.546
					c4.873,4.825,7.557,11.257,7.557,18.111C84.273,68.48,81.635,74.87,76.84,79.678z"/>
				<path d="M71.625,74.463l-1.543-1.535c2.992-3.006,4.641-6.998,4.641-11.24c0-4.294-1.688-8.324-4.75-11.343l1.527-1.55
					c3.48,3.433,5.398,8.012,5.398,12.894C76.896,66.51,75.025,71.047,71.625,74.463z"/>
				<path d="M65.605,68.443l-1.545-1.532c1.387-1.397,2.15-3.253,2.15-5.222c0-2.02-0.799-3.909-2.252-5.321l1.518-1.56
					c1.877,1.825,2.91,4.269,2.91,6.879C68.389,64.236,67.4,66.635,65.605,68.443z"/>
			</g>
		</g>
	</g>
</g>
</svg>
