<?xml version="1.0" encoding="utf-8"?>
<!-- Generator: Adobe Illustrator 16.0.0, SVG Export Plug-In . SVG Version: 6.00 Build 0)  -->
<!DOCTYPE svg PUBLIC "-//W3C//DTD SVG 1.1//EN" "http://www.w3.org/Graphics/SVG/1.1/DTD/svg11.dtd">
<svg version="1.1" xmlns="http://www.w3.org/2000/svg" xmlns:xlink="http://www.w3.org/1999/xlink" x="0px" y="0px" width="600px"
	 height="600px" viewBox="0 0 600 600" enable-background="new 0 0 600 600" xml:space="preserve">
<g id="gb">
</g>
<g id="_x31_-1">
</g>
<g id="_x31_-2">
</g>
<g id="_x31_-3">
</g>
<g id="_x32_-1">
</g>
<g id="_x32_-2">
</g>
<g id="_x32_-3">
</g>
<g id="_x33_-1">
</g>
<g id="_x33_-2">
</g>
<g id="_x33_-3">
</g>
<g id="opis">
</g>
<g id="polje">
	<path stroke="#000000" stroke-width="2" stroke-miterlimit="10" d="M300,337.5V300h-37.504c0-20.711-16.788-37.5-37.491-37.5
		c-20.712,0-37.498,16.789-37.499,37.5H150v37.5c0.001,0,0.003,0,0.004,0c20.704,0,37.491,16.79,37.491,37.501
		c0,20.709-16.787,37.499-37.491,37.499c-0.001,0-0.003,0-0.004,0V450h37.506v0.001c0,20.709,16.786,37.499,37.499,37.499
		c20.704,0,37.491-16.79,37.491-37.499V450H300v-37.5c-20.71-0.002-37.494-16.791-37.494-37.499
		C262.506,354.291,279.29,337.502,300,337.5z"/>
</g>
</svg>
