<?xml version="1.0" encoding="utf-8"?>
<!-- Generator: Adobe Illustrator 16.0.0, SVG Export Plug-In . SVG Version: 6.00 Build 0)  -->
<!DOCTYPE svg PUBLIC "-//W3C//DTD SVG 1.1//EN" "http://www.w3.org/Graphics/SVG/1.1/DTD/svg11.dtd">
<svg version="1.1" xmlns="http://www.w3.org/2000/svg" xmlns:xlink="http://www.w3.org/1999/xlink" x="0px" y="0px"
	 width="453.543px" height="453.543px" viewBox="0 0 453.543 453.543" enable-background="new 0 0 453.543 453.543"
	 xml:space="preserve">
<g id="kvadrat">
</g>
<g id="bg" display="none">
	<rect x="-5935.322" y="-11460.058" display="inline" width="15266.867" height="13678.951"/>
</g>
<g id="barvno" display="none">
	<g id="rdeča7bela" display="inline">
	</g>
	<g display="inline">
		<g>
			
				<line fill="none" stroke="#000000" stroke-width="8" stroke-linecap="round" stroke-linejoin="round" stroke-miterlimit="10" x1="204.421" y1="307.034" x2="210.271" y2="344.384"/>
			
				<line fill="none" stroke="#000000" stroke-width="8" stroke-linecap="round" stroke-linejoin="round" stroke-miterlimit="10" x1="247.419" y1="307.034" x2="241.569" y2="344.384"/>
			
				<rect x="207.346" y="344.384" fill="#7E4E24" stroke="#000000" stroke-width="8" stroke-linecap="round" stroke-linejoin="round" stroke-miterlimit="10" width="38.25" height="38.25"/>
			<g>
				
					<path fill="#DDDB00" stroke="#000000" stroke-width="8" stroke-linecap="round" stroke-linejoin="round" stroke-miterlimit="10" d="
					M172.253,110.354c0,14.701,11.918,26.619,26.619,26.619c14.702,0,26.62-11.918,26.62-26.619
					c0,14.701,11.918,26.619,26.619,26.619c14.702,0,26.62-11.918,26.62-26.619c0,14.701,11.918,26.619,26.619,26.619
					c6.822,0,13.042-2.568,17.754-6.789c-14.376-33.037-46.811-59.277-96.331-59.277c-50.295,0-82.974,27.064-96.999,60.826
					c4.43,3.291,9.916,5.24,15.858,5.24C160.335,136.973,172.253,125.055,172.253,110.354z"/>
				
					<path fill="#006633" stroke="#000000" stroke-width="8" stroke-linecap="round" stroke-linejoin="round" stroke-miterlimit="10" d="
					M298.298,192.094c0,20.105-16.298,36.402-36.402,36.402c-20.105,0-36.403-16.297-36.403-36.402
					c0,20.105-16.299,36.402-36.403,36.402c-20.105,0-36.404-16.297-36.404-36.402c0,12.715-6.524,23.902-16.402,30.412
					c27.972,51.124,67.474,81.394,67.474,81.394h29.778h13.186h3.069c0,0,38.9-29.803,66.83-80.216
					C305.677,217.406,298.298,205.615,298.298,192.094z"/>
				
					<path fill="#39A935" stroke="#000000" stroke-width="8" stroke-linecap="round" stroke-linejoin="round" stroke-miterlimit="10" d="
					M323.105,130.184c-4.711,4.221-10.932,6.789-17.754,6.789c-14.701,0-26.619-11.918-26.619-26.619
					c0,14.701-11.918,26.619-26.62,26.619c-14.701,0-26.619-11.918-26.619-26.619c0,14.701-11.918,26.619-26.62,26.619
					c-14.701,0-26.619-11.918-26.619-26.619c0,14.701-11.918,26.619-26.62,26.619c-5.942,0-11.429-1.949-15.858-5.24
					c-10.948,26.352-10.535,56.783,1.737,81.615c1.543,3.125,3.139,6.174,4.771,9.158c9.878-6.51,16.402-17.697,16.402-30.412
					c0,20.105,16.298,36.402,36.404,36.402c20.104,0,36.403-16.297,36.403-36.402c0,20.105,16.298,36.402,36.403,36.402
					c20.104,0,36.402-16.297,36.402-36.402c0,13.521,7.379,25.313,18.322,31.59c1.858-3.355,3.669-6.801,5.415-10.336
					C334.549,188.027,334.724,156.887,323.105,130.184z"/>
			</g>
		</g>
		
			<line fill="#39A935" stroke="#000000" stroke-width="8" stroke-linecap="round" stroke-linejoin="round" stroke-miterlimit="10" x1="227.539" y1="344.384" x2="227.539" y2="303.899"/>
	</g>
	
		<rect x="-6445.607" y="-11880.066" display="inline" fill="none" stroke="#000000" stroke-miterlimit="10" width="16736" height="13952"/>
</g>
<g id="sivinsko">
	<g id="rdeča7bela_copy_3">
	</g>
	<g>
		<g>
			<path d="M210.266,348.385c-1.937,0-3.638-1.409-3.947-3.382l-5.85-37.35c-0.342-2.183,1.15-4.229,3.333-4.571
				c2.188-0.331,4.23,1.151,4.571,3.333l5.85,37.35c0.342,2.183-1.15,4.229-3.333,4.571
				C210.68,348.368,210.472,348.385,210.266,348.385z"/>
			<path d="M241.574,348.385c-0.206,0-0.414-0.017-0.624-0.049c-2.183-0.342-3.674-2.389-3.333-4.571l5.851-37.35
				c0.342-2.183,2.391-3.664,4.571-3.333c2.183,0.342,3.674,2.389,3.333,4.571l-5.851,37.35
				C245.211,346.976,243.51,348.385,241.574,348.385z"/>
			<g>
				<rect x="207.346" y="344.384" fill="#585858" width="38.25" height="38.25"/>
				<path d="M245.596,386.634h-38.25c-2.209,0-4-1.791-4-4v-38.25c0-2.209,1.791-4,4-4h38.25c2.209,0,4,1.791,4,4v38.25
					C249.596,384.843,247.805,386.634,245.596,386.634z M211.346,378.634h30.25v-30.25h-30.25V378.634z"/>
			</g>
			<g>
				<g>
					<path fill="#C4C4C4" d="M172.253,110.354c0,14.701,11.918,26.619,26.619,26.619c14.702,0,26.62-11.918,26.62-26.619
						c0,14.701,11.918,26.619,26.619,26.619c14.702,0,26.62-11.918,26.62-26.619c0,14.701,11.918,26.619,26.619,26.619
						c6.822,0,13.042-2.568,17.754-6.789c-14.376-33.037-46.811-59.277-96.331-59.277c-50.295,0-82.974,27.064-96.999,60.826
						c4.43,3.291,9.916,5.24,15.858,5.24C160.335,136.973,172.253,125.055,172.253,110.354z"/>
					<path d="M305.351,140.973c-11.389,0-21.345-6.249-26.619-15.5c-5.274,9.251-15.231,15.5-26.62,15.5
						c-11.389,0-21.345-6.249-26.619-15.5c-5.274,9.251-15.231,15.5-26.62,15.5c-11.389,0-21.345-6.249-26.619-15.5
						c-5.274,9.251-15.231,15.5-26.62,15.5c-6.626,0-12.935-2.085-18.244-6.029c-1.473-1.095-2.013-3.051-1.309-4.745
						c7.647-18.408,20.216-33.917,36.348-44.851c18.055-12.237,39.703-18.441,64.345-18.441c24.272,0,45.656,6.028,63.558,17.918
						c16.008,10.631,28.609,25.765,36.441,43.764c0.688,1.581,0.285,3.425-0.999,4.575
						C320.152,138.199,312.899,140.973,305.351,140.973z M282.732,110.354c0,12.473,10.147,22.619,22.619,22.619
						c4.608,0,9.068-1.399,12.821-3.985c-16.229-34.416-49.362-54.081-91.398-54.081c-42.67,0-76,20.106-91.979,55.307
						c3.306,1.813,7,2.76,10.838,2.76c12.473,0,22.62-10.146,22.62-22.619c0-2.209,1.791-4,4-4s4,1.791,4,4
						c0,12.473,10.147,22.619,22.619,22.619c12.473,0,22.62-10.146,22.62-22.619c0-2.209,1.791-4,4-4s4,1.791,4,4
						c0,12.473,10.147,22.619,22.619,22.619c12.473,0,22.62-10.146,22.62-22.619c0-2.209,1.791-4,4-4
						S282.732,108.145,282.732,110.354z"/>
				</g>
				<g>
					<path fill="#424242" d="M298.298,192.094c0,20.105-16.298,36.402-36.402,36.402c-20.105,0-36.403-16.297-36.403-36.402
						c0,20.105-16.299,36.402-36.403,36.402c-20.105,0-36.404-16.297-36.404-36.402c0,12.715-6.524,23.902-16.402,30.412
						c27.972,51.124,67.474,81.394,67.474,81.394h29.778h13.186h3.069c0,0,38.9-29.803,66.83-80.216
						C305.677,217.406,298.298,205.615,298.298,192.094z"/>
					<path d="M249.791,307.899h-46.033c-0.88,0-1.735-0.29-2.433-0.825c-1.64-1.257-40.495-31.373-68.55-82.648
						c-0.999-1.826-0.43-4.114,1.308-5.26c9.144-6.026,14.603-16.146,14.603-27.072c0-2.209,1.791-4,4-4s4,1.791,4,4
						c0,17.867,14.536,32.402,32.404,32.402c17.867,0,32.403-14.535,32.403-32.402c0-2.209,1.791-4,4-4s4,1.791,4,4
						c0,17.867,14.536,32.402,32.403,32.402c17.867,0,32.402-14.535,32.402-32.402c0-2.209,1.791-4,4-4s4,1.791,4,4
						c0,11.573,6.25,22.349,16.313,28.12c1.896,1.088,2.568,3.496,1.509,5.408c-28.012,50.562-66.281,80.215-67.896,81.452
						C251.525,307.609,250.67,307.899,249.791,307.899z M205.155,299.899h43.239c6.159-4.987,38.424-32.259,62.889-74.893
						c-5.605-3.998-10.043-9.33-12.975-15.412c-6.533,13.539-20.399,22.901-36.412,22.901c-16.004,0-29.866-9.354-36.403-22.882
						c-6.538,13.527-20.399,22.882-36.403,22.882c-15.999,0-29.856-9.348-36.397-22.867c-2.6,5.397-6.399,10.2-11.192,14.026
						C166.057,267.065,198.931,294.858,205.155,299.899z"/>
				</g>
				<g>
					<path fill="#7B7B7B" d="M323.105,130.184c-4.711,4.221-10.932,6.789-17.754,6.789c-14.701,0-26.619-11.918-26.619-26.619
						c0,14.701-11.918,26.619-26.62,26.619c-14.701,0-26.619-11.918-26.619-26.619c0,14.701-11.918,26.619-26.62,26.619
						c-14.701,0-26.619-11.918-26.619-26.619c0,14.701-11.918,26.619-26.62,26.619c-5.942,0-11.429-1.949-15.858-5.24
						c-10.948,26.352-10.535,56.783,1.737,81.615c1.543,3.125,3.139,6.174,4.771,9.158c9.878-6.51,16.402-17.697,16.402-30.412
						c0,20.105,16.298,36.402,36.404,36.402c20.104,0,36.403-16.297,36.403-36.402c0,20.105,16.298,36.402,36.403,36.402
						c20.104,0,36.402-16.297,36.402-36.402c0,13.521,7.379,25.313,18.322,31.59c1.858-3.355,3.669-6.801,5.415-10.336
						C334.549,188.027,334.724,156.887,323.105,130.184z"/>
					<path d="M261.896,232.496c-16.004,0-29.866-9.354-36.403-22.882c-6.538,13.527-20.399,22.882-36.403,22.882
						c-15.999,0-29.856-9.348-36.397-22.867c-3.124,6.484-7.98,12.112-14.208,16.217c-0.933,0.615-2.082,0.813-3.167,0.542
						c-1.085-0.27-2.007-0.981-2.544-1.962c-1.725-3.153-3.356-6.284-4.849-9.308c-12.63-25.555-13.32-57.301-1.845-84.921
						c0.473-1.137,1.443-1.993,2.631-2.321c1.188-0.326,2.46-0.087,3.448,0.646c3.919,2.912,8.579,4.451,13.473,4.451
						c12.473,0,22.62-10.146,22.62-22.619c0-2.209,1.791-4,4-4s4,1.791,4,4c0,12.473,10.147,22.619,22.619,22.619
						c12.473,0,22.62-10.146,22.62-22.619c0-2.209,1.791-4,4-4s4,1.791,4,4c0,12.473,10.147,22.619,22.619,22.619
						c12.473,0,22.62-10.146,22.62-22.619c0-2.209,1.791-4,4-4s4,1.791,4,4c0,12.473,10.147,22.619,22.619,22.619
						c5.575,0,10.933-2.049,15.085-5.769c0.957-0.858,2.267-1.203,3.522-0.929c1.255,0.274,2.302,1.135,2.815,2.313
						c12.2,28.039,11.77,60.387-1.151,86.532c-1.72,3.481-3.571,7.016-5.502,10.502c-0.519,0.937-1.392,1.626-2.424,1.914
						c-1.033,0.287-2.136,0.149-3.065-0.383c-7.197-4.128-12.829-10.311-16.323-17.559
						C291.774,223.134,277.908,232.496,261.896,232.496z M229.493,192.094c0,17.866,14.536,32.402,32.403,32.402
						c17.867,0,32.402-14.536,32.402-32.402c0-2.209,1.791-4,4-4s4,1.791,4,4c0,10.195,4.851,19.771,12.884,25.853
						c1.131-2.128,2.224-4.259,3.267-6.37c11.18-22.621,12.175-50.342,2.886-75.106c-4.78,2.929-10.298,4.503-15.984,4.503
						c-11.389,0-21.345-6.249-26.619-15.5c-5.274,9.251-15.231,15.5-26.62,15.5s-21.345-6.249-26.619-15.5
						c-5.274,9.251-15.231,15.5-26.62,15.5c-11.389,0-21.345-6.249-26.619-15.5c-5.274,9.251-15.231,15.5-26.62,15.5
						c-4.886,0-9.6-1.134-13.867-3.311c-8.795,24.439-7.629,51.736,3.332,73.913c0.795,1.611,1.632,3.255,2.502,4.917
						c7.008-6.117,11.085-14.957,11.085-24.398c0-2.209,1.791-4,4-4s4,1.791,4,4c0,17.866,14.536,32.402,32.404,32.402
						c17.867,0,32.403-14.536,32.403-32.402c0-2.209,1.791-4,4-4S229.493,189.885,229.493,192.094z"/>
				</g>
			</g>
		</g>
		<g>
			<line fill="#7B7B7B" x1="227.539" y1="344.384" x2="227.539" y2="303.899"/>
			<path d="M227.539,348.384c-2.209,0-4-1.791-4-4v-40.484c0-2.209,1.791-4,4-4s4,1.791,4,4v40.484
				C231.539,346.593,229.748,348.384,227.539,348.384z"/>
		</g>
	</g>
	<path d="M10290.893,2072.434h-16737v-13953h16737V2072.434z M-6445.607,2071.434h16736l-0.5-13951h-16735.5l0.5,13951H-6445.607z"
		/>
</g>
<g id="linijsko" display="none">
	<g id="rdeča7bela_copy" display="inline">
	</g>
	<g display="inline">
		<g>
			
				<line fill="none" stroke="#000000" stroke-width="8" stroke-linecap="round" stroke-linejoin="round" stroke-miterlimit="10" x1="204.421" y1="307.034" x2="210.271" y2="344.384"/>
			
				<line fill="none" stroke="#000000" stroke-width="8" stroke-linecap="round" stroke-linejoin="round" stroke-miterlimit="10" x1="247.419" y1="307.034" x2="241.569" y2="344.384"/>
			
				<rect x="207.346" y="344.384" fill="none" stroke="#000000" stroke-width="8" stroke-linecap="round" stroke-linejoin="round" stroke-miterlimit="10" width="38.25" height="38.25"/>
			<g>
				
					<path fill="none" stroke="#000000" stroke-width="8" stroke-linecap="round" stroke-linejoin="round" stroke-miterlimit="10" d="
					M172.253,110.354c0,14.701,11.918,26.619,26.619,26.619c14.702,0,26.62-11.918,26.62-26.619
					c0,14.701,11.918,26.619,26.619,26.619c14.702,0,26.62-11.918,26.62-26.619c0,14.701,11.918,26.619,26.619,26.619
					c6.822,0,13.042-2.568,17.754-6.789c-14.376-33.037-46.811-59.277-96.331-59.277c-50.295,0-82.974,27.064-96.999,60.826
					c4.43,3.291,9.916,5.24,15.858,5.24C160.335,136.973,172.253,125.055,172.253,110.354z"/>
				
					<path fill="none" stroke="#000000" stroke-width="8" stroke-linecap="round" stroke-linejoin="round" stroke-miterlimit="10" d="
					M298.298,192.094c0,20.105-16.298,36.402-36.402,36.402c-20.105,0-36.403-16.297-36.403-36.402
					c0,20.105-16.299,36.402-36.403,36.402c-20.105,0-36.404-16.297-36.404-36.402c0,12.715-6.524,23.902-16.402,30.412
					c27.972,51.124,67.474,81.394,67.474,81.394h29.778h13.186h3.069c0,0,38.9-29.803,66.83-80.216
					C305.677,217.406,298.298,205.615,298.298,192.094z"/>
				
					<path fill="none" stroke="#000000" stroke-width="8" stroke-linecap="round" stroke-linejoin="round" stroke-miterlimit="10" d="
					M323.105,130.184c-4.711,4.221-10.932,6.789-17.754,6.789c-14.701,0-26.619-11.918-26.619-26.619
					c0,14.701-11.918,26.619-26.62,26.619c-14.701,0-26.619-11.918-26.619-26.619c0,14.701-11.918,26.619-26.62,26.619
					c-14.701,0-26.619-11.918-26.619-26.619c0,14.701-11.918,26.619-26.62,26.619c-5.942,0-11.429-1.949-15.858-5.24
					c-10.948,26.352-10.535,56.783,1.737,81.615c1.543,3.125,3.139,6.174,4.771,9.158c9.878-6.51,16.402-17.697,16.402-30.412
					c0,20.105,16.298,36.402,36.404,36.402c20.104,0,36.403-16.297,36.403-36.402c0,20.105,16.298,36.402,36.403,36.402
					c20.104,0,36.402-16.297,36.402-36.402c0,13.521,7.379,25.313,18.322,31.59c1.858-3.355,3.669-6.801,5.415-10.336
					C334.549,188.027,334.724,156.887,323.105,130.184z"/>
			</g>
		</g>
		
			<line fill="none" stroke="#000000" stroke-width="8" stroke-linecap="round" stroke-linejoin="round" stroke-miterlimit="10" x1="227.539" y1="344.384" x2="227.539" y2="303.899"/>
	</g>
</g>
<g id="pivot">
	<circle fill="none" cx="221.026" cy="376.934" r="14.133"/>
</g>
</svg>
