<?xml version="1.0" encoding="utf-8"?>
<!-- Generator: Adobe Illustrator 16.0.0, SVG Export Plug-In . SVG Version: 6.00 Build 0)  -->
<!DOCTYPE svg PUBLIC "-//W3C//DTD SVG 1.1//EN" "http://www.w3.org/Graphics/SVG/1.1/DTD/svg11.dtd">
<svg version="1.1" xmlns="http://www.w3.org/2000/svg" xmlns:xlink="http://www.w3.org/1999/xlink" x="0px" y="0px"
	 width="453.543px" height="453.543px" viewBox="0 0 453.543 453.543" enable-background="new 0 0 453.543 453.543"
	 xml:space="preserve">
<g id="kvadrat">
</g>
<g id="bg" display="none">
	<rect x="-2363.667" y="-7378.167" display="inline" width="15266.867" height="13678.951"/>
</g>
<g id="barvno" display="none">
	<g display="inline">
		<path stroke="#000000" stroke-width="8" stroke-linecap="round" stroke-linejoin="round" stroke-miterlimit="10" d="
			M245.079,322.449c-5.66,14.314-9.971,34.229,6.409,38.592c25.165,6.688,28.738-31.125,28.738-31.125L245.079,322.449z"/>
		<path stroke="#000000" stroke-width="8" stroke-linecap="round" stroke-linejoin="round" stroke-miterlimit="10" d="
			M301.517,273.467c3.758-19.583,3.538-52.992-19.962-61.287c-5.791-2.047-27.676-7.256-36.505,31.268
			c-6.399,28.025,3.589,61.639,3.589,61.639l35.538,7.559C284.183,312.643,298.997,286.567,301.517,273.467z"/>
		<path stroke="#000000" stroke-width="8" stroke-linecap="round" stroke-linejoin="round" stroke-miterlimit="10" d="
			M201.717,205.911c4.143,14.823,6.354,35.077-10.405,37.706c-25.715,4.027-25.317-33.95-25.317-33.95L201.717,205.911z"/>
		<path stroke="#000000" stroke-width="8" stroke-linecap="round" stroke-linejoin="round" stroke-miterlimit="10" d="
			M150.583,151.27c-1.692-19.867,2.011-53.069,26.263-58.868c5.966-1.432,28.267-4.316,33.024,34.917
			c3.452,28.545-10.02,60.924-10.02,60.924l-36.129,3.801C163.718,192.043,151.707,164.57,150.583,151.27z"/>
	</g>
	<g id="rdeča7bela" display="inline">
	</g>
	
		<rect x="-2873.953" y="-7798.176" display="inline" fill="none" stroke="#000000" stroke-miterlimit="10" width="16736" height="13952"/>
</g>
<g id="sivinsko">
	<g>
		<g>
			<path d="M245.079,322.449c-5.66,14.314-9.971,34.229,6.409,38.592c25.165,6.688,28.738-31.125,28.738-31.125L245.079,322.449z"/>
			<path d="M257.204,365.834C257.202,365.834,257.205,365.834,257.204,365.834c-2.16,0-4.429-0.313-6.744-0.927
				c-5.653-1.506-9.729-4.67-12.116-9.405c-3.956-7.845-2.941-19.46,3.015-34.523c0.718-1.816,2.64-2.845,4.551-2.442l35.146,7.467
				c1.987,0.423,3.342,2.267,3.151,4.289C284.07,331.743,280.577,365.834,257.204,365.834z M247.611,327.076
				c-3.922,11.003-4.685,19.744-2.124,24.824c1.333,2.646,3.633,4.371,7.029,5.275c1.643,0.437,3.22,0.658,4.687,0.658
				c12.68,0,17.164-17.207,18.522-24.785L247.611,327.076z"/>
		</g>
		<g>
			<path d="M301.517,273.467c3.758-19.583,3.538-52.992-19.962-61.287c-5.791-2.047-27.676-7.256-36.505,31.268
				c-6.399,28.025,3.589,61.639,3.589,61.639l35.538,7.559C284.183,312.643,298.997,286.567,301.517,273.467z"/>
			<path d="M284.176,316.645c-0.278,0-0.558-0.029-0.832-0.088l-35.538-7.559c-1.433-0.305-2.584-1.368-3.002-2.772
				c-0.42-1.414-10.211-34.95-3.654-63.669c6.784-29.6,21.218-35.813,32.132-35.813c4.048,0,7.458,0.905,9.605,1.664
				c24.324,8.586,27.354,40.818,22.558,65.813c-1.113,5.787-4.462,14.371-9.953,25.515c-7.911,16.054-8.613,16.267-10.15,16.735
				C284.962,316.587,284.57,316.645,284.176,316.645z M251.86,301.682l30.255,6.435c3.693-6.748,13.544-25.375,15.474-35.405
				c3.379-17.61,3.525-49.386-17.366-56.76c-1.559-0.551-4.026-1.207-6.941-1.207c-11.482,0-19.896,10.234-24.333,29.597
				C243.784,266.96,249.835,293.816,251.86,301.682z"/>
		</g>
		<g>
			<path d="M201.717,205.911c4.143,14.823,6.354,35.077-10.405,37.706c-25.715,4.027-25.317-33.95-25.317-33.95L201.717,205.911z"/>
			<path d="M187.623,247.916c-5.996,0-11.124-2.109-15.241-6.271c-10.492-10.604-10.396-31.15-10.387-32.02
				c0.021-2.031,1.562-3.724,3.582-3.937l35.722-3.756c1.94-0.2,3.746,1.022,4.271,2.902c4.358,15.592,4.158,27.245-0.594,34.638
				c-2.871,4.465-7.258,7.188-13.042,8.097C190.459,247.8,189.01,247.916,187.623,247.916z M170.148,213.252
				c0.422,5.684,2.006,16.802,7.931,22.777c3.252,3.28,7.374,4.457,12.614,3.636c3.478-0.545,5.948-2.023,7.552-4.519
				c3.077-4.786,3.228-13.555,0.472-24.897L170.148,213.252z"/>
		</g>
		<g>
			<path d="M150.583,151.27c-1.692-19.867,2.011-53.069,26.263-58.868c5.966-1.432,28.267-4.316,33.024,34.917
				c3.452,28.545-10.02,60.924-10.02,60.924l-36.129,3.801C163.718,192.043,151.707,164.57,150.583,151.27z"/>
			<path d="M163.721,196.043c-2.65,0-3.509-2.018-4.199-3.64c-0.336-0.788-0.816-1.929-1.396-3.34
				c-1.056-2.569-2.66-6.568-4.307-11.036c-4.296-11.657-6.726-20.547-7.222-26.421c-2.16-25.354,4.223-57.095,29.319-63.096
				c1.522-0.365,3.941-0.802,6.798-0.802c9.853,0,26.999,5.084,31.127,39.128c3.538,29.255-9.731,61.58-10.298,62.941
				c-0.563,1.353-1.818,2.289-3.274,2.442l-36.129,3.801C164,196.036,163.861,196.043,163.721,196.043z M182.714,95.709
				c-2.075,0-3.829,0.316-4.935,0.582c-21.559,5.154-24.733,36.771-23.211,54.639c0.798,9.448,7.98,28.069,11.664,36.827
				l30.77-3.237c2.837-7.613,11.677-33.722,8.896-56.721C203.354,106.806,195.336,95.709,182.714,95.709z"/>
		</g>
	</g>
	<g id="rdeča7bela_copy_3">
	</g>
	<path d="M13862.547,6154.324h-16737v-13953h16737V6154.324z M-2873.953,6153.324h16736l-0.5-13951h-16735.5l0.5,13951H-2873.953z"
		/>
</g>
<g id="linijsko" display="none">
	<g display="inline">
		<path fill="none" stroke="#000000" stroke-width="8" stroke-linecap="round" stroke-linejoin="round" stroke-miterlimit="10" d="
			M245.079,322.449c-5.66,14.314-9.971,34.229,6.409,38.592c25.165,6.688,28.738-31.125,28.738-31.125L245.079,322.449z"/>
		<path fill="none" stroke="#000000" stroke-width="8" stroke-linecap="round" stroke-linejoin="round" stroke-miterlimit="10" d="
			M301.517,273.467c3.758-19.583,3.538-52.992-19.962-61.287c-5.791-2.047-27.676-7.256-36.505,31.268
			c-6.399,28.025,3.589,61.639,3.589,61.639l35.538,7.559C284.183,312.643,298.997,286.567,301.517,273.467z"/>
		<path fill="none" stroke="#000000" stroke-width="8" stroke-linecap="round" stroke-linejoin="round" stroke-miterlimit="10" d="
			M201.717,205.911c4.143,14.823,6.354,35.077-10.405,37.706c-25.715,4.027-25.317-33.95-25.317-33.95L201.717,205.911z"/>
		<path fill="none" stroke="#000000" stroke-width="8" stroke-linecap="round" stroke-linejoin="round" stroke-miterlimit="10" d="
			M150.583,151.27c-1.692-19.867,2.011-53.069,26.263-58.868c5.966-1.432,28.267-4.316,33.024,34.917
			c3.452,28.545-10.02,60.924-10.02,60.924l-36.129,3.801C163.718,192.043,151.707,164.57,150.583,151.27z"/>
	</g>
	<g id="rdeča7bela_copy" display="inline">
	</g>
</g>
<g id="pivot">
	<circle fill="none" cx="221.762" cy="349.584" r="14.133"/>
</g>
</svg>
