<?xml version="1.0" encoding="utf-8"?>
<!-- Generator: Adobe Illustrator 16.0.0, SVG Export Plug-In . SVG Version: 6.00 Build 0)  -->
<!DOCTYPE svg PUBLIC "-//W3C//DTD SVG 1.1//EN" "http://www.w3.org/Graphics/SVG/1.1/DTD/svg11.dtd">
<svg version="1.1" xmlns="http://www.w3.org/2000/svg" xmlns:xlink="http://www.w3.org/1999/xlink" x="0px" y="0px" width="220px"
	 height="220px" viewBox="0 0 220 220" enable-background="new 0 0 220 220" xml:space="preserve">
<g id="bg" display="none">
	<rect x="-445.836" y="-1581.787" display="inline" fill="#FFFFFF" width="3240.076" height="8444.104"/>
</g>
<g id="Layer_3" display="none">
</g>
<g id="Layer_1">
	<g>
		<defs>
			<rect id="SVGID_261_" y="-600" width="220" height="220"/>
		</defs>
		<clipPath id="SVGID_2_">
			<use xlink:href="#SVGID_261_"  overflow="visible"/>
		</clipPath>
	</g>
	<g>
		<defs>
			<rect id="SVGID_275_" width="220" height="220"/>
		</defs>
		<clipPath id="SVGID_4_">
			<use xlink:href="#SVGID_275_"  overflow="visible"/>
		</clipPath>
		<rect clip-path="url(#SVGID_4_)" fill="#FBF5C0" width="220" height="220"/>
		<g clip-path="url(#SVGID_4_)">
			
				<rect x="182.841" y="-32.927" fill="#AB5D2D" stroke="#000100" stroke-width="2.219" stroke-linecap="round" stroke-linejoin="round" stroke-miterlimit="10" width="11.786" height="75.438"/>
		</g>
		<g clip-path="url(#SVGID_4_)">
			
				<rect x="182.841" y="76.828" fill="#AB5D2D" stroke="#000100" stroke-width="2.219" stroke-linecap="round" stroke-linejoin="round" stroke-miterlimit="10" width="11.786" height="75.438"/>
			
				<polygon fill="#A5A7AA" stroke="#000100" stroke-width="2.219" stroke-linecap="round" stroke-linejoin="round" stroke-miterlimit="10" points="
				177.316,84.684 209.898,84.684 209.898,68.064 177.316,68.064 163.462,74.852 163.447,79.902 			"/>
		</g>
		<g clip-path="url(#SVGID_4_)">
			
				<rect x="53.04" y="93.119" fill="#F8B032" stroke="#000100" stroke-width="2.159" stroke-linecap="round" stroke-linejoin="round" stroke-miterlimit="10" width="17.272" height="84.201"/>
			<g>
				
					<line fill="none" stroke="#000100" stroke-width="2.159" stroke-linecap="round" stroke-linejoin="round" stroke-miterlimit="10" x1="69.123" y1="171.828" x2="65.015" y2="171.828"/>
				
					<line fill="none" stroke="#000100" stroke-width="2.159" stroke-linecap="round" stroke-linejoin="round" stroke-miterlimit="10" x1="69.123" y1="166.602" x2="65.015" y2="166.602"/>
				
					<line fill="none" stroke="#000100" stroke-width="2.159" stroke-linecap="round" stroke-linejoin="round" stroke-miterlimit="10" x1="69.123" y1="161.377" x2="65.015" y2="161.377"/>
				
					<line fill="none" stroke="#000100" stroke-width="2.159" stroke-linecap="round" stroke-linejoin="round" stroke-miterlimit="10" x1="69.123" y1="156.152" x2="65.015" y2="156.152"/>
				
					<line fill="none" stroke="#000100" stroke-width="2.159" stroke-linecap="round" stroke-linejoin="round" stroke-miterlimit="10" x1="69.123" y1="150.928" x2="65.015" y2="150.928"/>
				
					<line fill="none" stroke="#000100" stroke-width="2.159" stroke-linecap="round" stroke-linejoin="round" stroke-miterlimit="10" x1="69.123" y1="145.703" x2="65.015" y2="145.703"/>
				
					<line fill="none" stroke="#000100" stroke-width="2.159" stroke-linecap="round" stroke-linejoin="round" stroke-miterlimit="10" x1="69.123" y1="140.477" x2="65.015" y2="140.477"/>
				
					<line fill="none" stroke="#000100" stroke-width="2.159" stroke-linecap="round" stroke-linejoin="round" stroke-miterlimit="10" x1="69.123" y1="135.252" x2="65.015" y2="135.252"/>
				
					<line fill="none" stroke="#000100" stroke-width="2.159" stroke-linecap="round" stroke-linejoin="round" stroke-miterlimit="10" x1="69.123" y1="130.027" x2="65.015" y2="130.027"/>
				
					<line fill="none" stroke="#000100" stroke-width="2.159" stroke-linecap="round" stroke-linejoin="round" stroke-miterlimit="10" x1="69.123" y1="124.803" x2="65.015" y2="124.803"/>
				
					<line fill="none" stroke="#000100" stroke-width="2.159" stroke-linecap="round" stroke-linejoin="round" stroke-miterlimit="10" x1="69.123" y1="119.578" x2="65.015" y2="119.578"/>
				
					<line fill="none" stroke="#000100" stroke-width="2.159" stroke-linecap="round" stroke-linejoin="round" stroke-miterlimit="10" x1="69.123" y1="114.354" x2="65.015" y2="114.354"/>
				
					<line fill="none" stroke="#000100" stroke-width="2.159" stroke-linecap="round" stroke-linejoin="round" stroke-miterlimit="10" x1="69.123" y1="109.127" x2="65.015" y2="109.127"/>
				
					<line fill="none" stroke="#000100" stroke-width="2.159" stroke-linecap="round" stroke-linejoin="round" stroke-miterlimit="10" x1="69.123" y1="103.902" x2="65.015" y2="103.902"/>
				
					<line fill="none" stroke="#000100" stroke-width="2.159" stroke-linecap="round" stroke-linejoin="round" stroke-miterlimit="10" x1="69.123" y1="98.678" x2="65.015" y2="98.678"/>
			</g>
		</g>
		<g clip-path="url(#SVGID_4_)">
			
				<path fill="#C9B99F" stroke="#000100" stroke-width="2" stroke-linecap="round" stroke-linejoin="round" stroke-miterlimit="10" d="
				M108.927,118.602c0,4.666,1.344,8.445,3,8.445h17.66c1.658,0,3-3.779,3-8.445V97.443h-23.66V118.602z"/>
			
				<path fill="#0774B3" stroke="#010101" stroke-width="2" stroke-linecap="round" stroke-linejoin="round" stroke-miterlimit="10" d="
				M113.654,84.254c1.516-0.709,3.166-2.566,3.166-6.44c0-3.958-1.196-7.241-2.762-7.849l0.031-18.009c0,0-0.746-9.108,4.721-9.11
				h1.316h1.264h1.316c5.465,0.002,4.72,9.11,4.72,9.11l0.032,18.009c-1.566,0.608-2.763,3.891-2.763,7.849
				c0,3.874,1.65,5.731,3.166,6.44l5.407,2.873v11.614h-25.022V87.127L113.654,84.254z"/>
			
				<line fill="#0774B3" stroke="#010101" stroke-width="2" stroke-linecap="round" stroke-linejoin="round" stroke-miterlimit="10" x1="124.91" y1="108.598" x2="124.91" y2="126.346"/>
			
				<line fill="#0774B3" stroke="#010101" stroke-width="2" stroke-linecap="round" stroke-linejoin="round" stroke-miterlimit="10" x1="116.605" y1="108.598" x2="116.605" y2="126.346"/>
			
				<rect x="108.366" y="89.729" fill="#A5A7AA" stroke="#000100" stroke-width="2" stroke-linecap="round" stroke-linejoin="round" stroke-miterlimit="10" width="24.834" height="9.182"/>
		</g>
		<g clip-path="url(#SVGID_4_)">
			
				<rect x="53.04" y="-16.714" fill="#F8B032" stroke="#000100" stroke-width="2.159" stroke-linecap="round" stroke-linejoin="round" stroke-miterlimit="10" width="17.272" height="84.201"/>
			<g>
				
					<line fill="none" stroke="#000100" stroke-width="2.159" stroke-linecap="round" stroke-linejoin="round" stroke-miterlimit="10" x1="69.123" y1="61.995" x2="65.015" y2="61.995"/>
				
					<line fill="none" stroke="#000100" stroke-width="2.159" stroke-linecap="round" stroke-linejoin="round" stroke-miterlimit="10" x1="69.123" y1="56.769" x2="65.015" y2="56.769"/>
				
					<line fill="none" stroke="#000100" stroke-width="2.159" stroke-linecap="round" stroke-linejoin="round" stroke-miterlimit="10" x1="69.123" y1="51.544" x2="65.015" y2="51.544"/>
				
					<line fill="none" stroke="#000100" stroke-width="2.159" stroke-linecap="round" stroke-linejoin="round" stroke-miterlimit="10" x1="69.123" y1="46.319" x2="65.015" y2="46.319"/>
				
					<line fill="none" stroke="#000100" stroke-width="2.159" stroke-linecap="round" stroke-linejoin="round" stroke-miterlimit="10" x1="69.123" y1="41.095" x2="65.015" y2="41.095"/>
				
					<line fill="none" stroke="#000100" stroke-width="2.159" stroke-linecap="round" stroke-linejoin="round" stroke-miterlimit="10" x1="69.123" y1="35.87" x2="65.015" y2="35.87"/>
				
					<line fill="none" stroke="#000100" stroke-width="2.159" stroke-linecap="round" stroke-linejoin="round" stroke-miterlimit="10" x1="69.123" y1="30.644" x2="65.015" y2="30.644"/>
				
					<line fill="none" stroke="#000100" stroke-width="2.159" stroke-linecap="round" stroke-linejoin="round" stroke-miterlimit="10" x1="69.123" y1="25.418" x2="65.015" y2="25.418"/>
				
					<line fill="none" stroke="#000100" stroke-width="2.159" stroke-linecap="round" stroke-linejoin="round" stroke-miterlimit="10" x1="69.123" y1="20.193" x2="65.015" y2="20.193"/>
				
					<line fill="none" stroke="#000100" stroke-width="2.159" stroke-linecap="round" stroke-linejoin="round" stroke-miterlimit="10" x1="69.123" y1="14.969" x2="65.015" y2="14.969"/>
				
					<line fill="none" stroke="#000100" stroke-width="2.159" stroke-linecap="round" stroke-linejoin="round" stroke-miterlimit="10" x1="69.123" y1="9.744" x2="65.015" y2="9.744"/>
				
					<line fill="none" stroke="#000100" stroke-width="2.159" stroke-linecap="round" stroke-linejoin="round" stroke-miterlimit="10" x1="69.123" y1="4.52" x2="65.015" y2="4.52"/>
				
					<line fill="none" stroke="#000100" stroke-width="2.159" stroke-linecap="round" stroke-linejoin="round" stroke-miterlimit="10" x1="69.123" y1="-0.706" x2="65.015" y2="-0.706"/>
			</g>
		</g>
		<g clip-path="url(#SVGID_4_)">
			
				<path fill="#C9B99F" stroke="#000100" stroke-width="2" stroke-linecap="round" stroke-linejoin="round" stroke-miterlimit="10" d="
				M108.927,8.602c0,4.666,1.344,8.445,3,8.445h17.66c1.658,0,3-3.779,3-8.445v-21.158h-23.66V8.602z"/>
			
				<line fill="#0774B3" stroke="#010101" stroke-width="2" stroke-linecap="round" stroke-linejoin="round" stroke-miterlimit="10" x1="124.91" y1="-1.402" x2="124.91" y2="16.346"/>
			
				<line fill="#0774B3" stroke="#010101" stroke-width="2" stroke-linecap="round" stroke-linejoin="round" stroke-miterlimit="10" x1="116.605" y1="-1.402" x2="116.605" y2="16.346"/>
		</g>
		<g clip-path="url(#SVGID_4_)">
			
				<rect x="182.841" y="187.073" fill="#AB5D2D" stroke="#000100" stroke-width="2.219" stroke-linecap="round" stroke-linejoin="round" stroke-miterlimit="10" width="11.786" height="75.438"/>
			
				<polygon fill="#A5A7AA" stroke="#000100" stroke-width="2.219" stroke-linecap="round" stroke-linejoin="round" stroke-miterlimit="10" points="
				177.316,194.929 209.898,194.929 209.898,178.31 177.316,178.31 163.462,185.097 163.447,190.148 			"/>
		</g>
		<g clip-path="url(#SVGID_4_)">
			
				<rect x="53.04" y="203.286" fill="#F8B032" stroke="#000100" stroke-width="2.159" stroke-linecap="round" stroke-linejoin="round" stroke-miterlimit="10" width="17.272" height="84.201"/>
			<g>
				
					<line fill="none" stroke="#000100" stroke-width="2.159" stroke-linecap="round" stroke-linejoin="round" stroke-miterlimit="10" x1="69.123" y1="219.294" x2="65.015" y2="219.294"/>
				
					<line fill="none" stroke="#000100" stroke-width="2.159" stroke-linecap="round" stroke-linejoin="round" stroke-miterlimit="10" x1="69.123" y1="214.068" x2="65.015" y2="214.068"/>
				
					<line fill="none" stroke="#000100" stroke-width="2.159" stroke-linecap="round" stroke-linejoin="round" stroke-miterlimit="10" x1="69.123" y1="208.844" x2="65.015" y2="208.844"/>
			</g>
		</g>
		<g clip-path="url(#SVGID_4_)">
			
				<path fill="#C9B99F" stroke="#000100" stroke-width="2" stroke-linecap="round" stroke-linejoin="round" stroke-miterlimit="10" d="
				M108.927,228.602c0,4.666,1.344,8.445,3,8.445h17.66c1.658,0,3-3.779,3-8.445v-21.158h-23.66V228.602z"/>
			
				<path fill="#0774B3" stroke="#010101" stroke-width="2" stroke-linecap="round" stroke-linejoin="round" stroke-miterlimit="10" d="
				M113.654,194.254c1.516-0.709,3.166-2.566,3.166-6.44c0-3.958-1.196-7.241-2.762-7.849l0.031-18.009c0,0-0.746-9.108,4.721-9.11
				h1.316h1.264h1.316c5.465,0.002,4.72,9.11,4.72,9.11l0.032,18.009c-1.566,0.608-2.763,3.891-2.763,7.849
				c0,3.874,1.65,5.731,3.166,6.44l5.407,2.873v11.614h-25.022v-11.614L113.654,194.254z"/>
			
				<line fill="#0774B3" stroke="#010101" stroke-width="2" stroke-linecap="round" stroke-linejoin="round" stroke-miterlimit="10" x1="124.91" y1="218.598" x2="124.91" y2="236.346"/>
			
				<line fill="#0774B3" stroke="#010101" stroke-width="2" stroke-linecap="round" stroke-linejoin="round" stroke-miterlimit="10" x1="116.605" y1="218.598" x2="116.605" y2="236.346"/>
			
				<rect x="108.366" y="199.729" fill="#A5A7AA" stroke="#000100" stroke-width="2" stroke-linecap="round" stroke-linejoin="round" stroke-miterlimit="10" width="24.834" height="9.182"/>
		</g>
		<rect x="17.222" clip-path="url(#SVGID_4_)" fill="#000100" width="6.584" height="220"/>
	</g>
</g>
</svg>
