<?xml version="1.0" encoding="utf-8"?>
<!-- Generator: Adobe Illustrator 16.0.0, SVG Export Plug-In . SVG Version: 6.00 Build 0)  -->
<!DOCTYPE svg PUBLIC "-//W3C//DTD SVG 1.1//EN" "http://www.w3.org/Graphics/SVG/1.1/DTD/svg11.dtd">
<svg version="1.1"
	 id="svg2" xmlns:sodipodi="http://sodipodi.sourceforge.net/DTD/sodipodi-0.dtd" xmlns:dc="http://purl.org/dc/elements/1.1/" xmlns:rdf="http://www.w3.org/1999/02/22-rdf-syntax-ns#" xmlns:cc="http://creativecommons.org/ns#" xmlns:svg="http://www.w3.org/2000/svg" xmlns:inkscape="http://www.inkscape.org/namespaces/inkscape" inkscape:version="0.91 r13725" sodipodi:docname="pivot-01.svg"
	 xmlns="http://www.w3.org/2000/svg" xmlns:xlink="http://www.w3.org/1999/xlink" x="0px" y="0px" width="1920px" height="1080px"
	 viewBox="0 0 1920 1080" enable-background="new 0 0 1920 1080" xml:space="preserve">
<g id="AREA7">
	<circle id="circle346" fill="#FFFF00" cx="560.816" cy="549.901" r="7.857"/>
	<circle id="circle348" fill="#FFFF00" cx="598.453" cy="549.901" r="7.857"/>
	<circle id="circle350" fill="#FFFF00" cx="656.089" cy="549.901" r="7.857"/>
	<circle id="circle352" fill="#FFFF00" cx="713.725" cy="549.901" r="7.857"/>
</g>
<g id="AREA6">
	<circle id="circle368" fill="#FFFF00" cx="1233.867" cy="709.019" r="7.857"/>
	<circle id="circle364" fill="#FFFF00" cx="590.151" cy="693.019" r="7.857"/>
	<circle id="circle364_1_" fill="#FFFF00" cx="668.414" cy="693.019" r="7.857"/>
	<circle id="circle366" fill="#FFFF00" cx="743.709" cy="693.019" r="7.857"/>
	<circle id="circle370" fill="#FFFF00" cx="970.919" cy="709.019" r="7.857"/>
	<circle id="circle370_1_" fill="#FFFF00" cx="1107.413" cy="709.019" r="7.857"/>
	<circle id="circle372" fill="#FFFF00" cx="532.127" cy="195.775" r="7.857"/>
	<circle id="circle374" fill="#FFFF00" cx="622.376" cy="195.775" r="7.857"/>
	<circle id="circle376" fill="#FFFF00" cx="712.625" cy="195.775" r="7.857"/>
	<circle id="circle378" fill="#FFFF00" cx="802.875" cy="195.775" r="7.857"/>
	<circle id="circle380" fill="#FFFF00" cx="893.124" cy="195.775" r="7.857"/>
	<circle id="circle390" fill="#FFFF00" cx="532.127" cy="354.775" r="7.857"/>
	<circle id="circle392" fill="#FFFF00" cx="622.376" cy="354.775" r="7.857"/>
	<circle id="circle394" fill="#FFFF00" cx="712.625" cy="354.775" r="7.857"/>
	<circle id="circle396" fill="#FFFF00" cx="802.875" cy="354.775" r="7.857"/>
	<circle id="circle398" fill="#FFFF00" cx="893.124" cy="354.775" r="7.857"/>
	<circle id="circle400" fill="#FFFF00" cx="983.373" cy="354.775" r="7.857"/>
	<circle id="circle402" fill="#FFFF00" cx="1073.623" cy="354.775" r="7.857"/>
	<circle id="circle404" fill="#FFFF00" cx="1163.873" cy="354.775" r="7.857"/>
	<circle id="circle406" fill="#FFFF00" cx="1254.121" cy="354.775" r="7.857"/>
	<circle id="circle408" fill="#FFFF00" cx="1140.595" cy="877.604" r="7.857"/>
	<circle id="circle410" fill="#FFFF00" cx="1230.845" cy="877.604" r="7.857"/>
	<circle id="circle412" fill="#FFFF00" cx="904.576" cy="877.604" r="7.857"/>
	<circle id="circle414" fill="#FFFF00" cx="1041.751" cy="877.604" r="7.857"/>
	<circle id="circle416" fill="#FFFF00" cx="973.164" cy="877.604" r="7.857"/>
	<circle id="circle001" fill="#FFFF00" cx="1140.595" cy="1031.285" r="7.857"/>
	<circle id="circle000" fill="#FFFF00" cx="1230.844" cy="1031.285" r="7.857"/>
	<circle id="circle426" fill="#FFFF00" cx="634.184" cy="877.604" r="7.857"/>
	<circle id="circle428" fill="#FFFF00" cx="802.527" cy="877.604" r="7.857"/>
	<circle id="circle430" fill="#FFFF00" cx="718.355" cy="877.604" r="7.857"/>
	<circle id="circle432" fill="#FFFF00" cx="550.012" cy="877.604" r="7.857"/>
	<circle id="circle434" fill="#FFFF00" cx="676.27" cy="1031.285" r="7.857"/>
	<circle id="circle436" fill="#FFFF00" cx="739.398" cy="1031.285" r="7.857"/>
	<circle id="circle438" fill="#FFFF00" cx="802.527" cy="1031.285" r="7.857"/>
	<circle id="circle440" fill="#FFFF00" cx="550.012" cy="1031.285" r="7.857"/>
	<circle id="circle442" fill="#FFFF00" cx="613.141" cy="1031.285" r="7.857"/>
	<circle id="circle418" fill="#FFFF00" cx="904.576" cy="1031.285" r="7.857"/>
	<circle id="circle420" fill="#FFFF00" cx="1041.751" cy="1031.285" r="7.857"/>
	<circle id="circle424" fill="#FFFF00" cx="973.164" cy="1031.285" r="7.857"/>
</g>
<circle id="AREA2" fill="#FFFF00" cx="194.648" cy="568.563" r="7.857"/>
<circle id="AREA1" inkscape:label="#circle356" fill="#FFFF00" cx="153.225" cy="395.88" r="7.857">
</circle>
<circle id="AREA4" fill="#FFFF00" cx="216.305" cy="860.51" r="7.857"/>
<circle id="AREA3" fill="#FFFF00" cx="96.451" cy="835.214" r="7.857"/>
<g id="AREA5_3_">
	<circle id="circle002" fill="#FFFF00" cx="153.225" cy="938.213" r="7.857"/>
	<circle id="circle001_1_" fill="#FFFF00" cx="254.98" cy="1031.286" r="7.857"/>
	<circle id="circle000_1_" fill="#FFFF00" cx="83.493" cy="1009.069" r="7.857"/>
</g>
</svg>
