<?xml version="1.0" encoding="utf-8"?>
<!-- Generator: Adobe Illustrator 16.0.0, SVG Export Plug-In . SVG Version: 6.00 Build 0)  -->
<!DOCTYPE svg PUBLIC "-//W3C//DTD SVG 1.1//EN" "http://www.w3.org/Graphics/SVG/1.1/DTD/svg11.dtd">
<svg version="1.1" xmlns="http://www.w3.org/2000/svg" xmlns:xlink="http://www.w3.org/1999/xlink" x="0px" y="0px"
	 width="306.204px" height="321.292px" viewBox="0 0 306.204 321.292" enable-background="new 0 0 306.204 321.292"
	 xml:space="preserve">
<g id="bg" display="none">
	<rect x="-230.586" y="-37.08" display="inline" fill="#32BCAD" width="2265.249" height="832.376"/>
</g>
<g id="L_prazna_roka">
	<path opacity="0.95" fill-rule="evenodd" clip-rule="evenodd" fill="none" stroke="#FFFFFF" stroke-width="2" stroke-linecap="round" stroke-miterlimit="10" d="
			M186.342,322.292c2.85-5.201,6.48-9.901,11.205-13.873c3.561-2.994,11.281-13.935,11.281-13.935s14.516-23.426,21.256-35.329
			c10.148-17.92,28.643-54.948,28.643-54.948s10.264-19.504-1.197-26.194c-1.822-1.064-12.65-4.67-21.879,4.419
			c-3.625,3.57-18.629,25.789-22.717,33.176c0,0.001-6.318,11.659-7.406,14.211c-9.896,14.512-22.24,0.389-22.016-14.823
			c0.146-9.863,0.248-19.81,1.836-29.522c1.545-9.459,10.877-72.254,11.219-94.591c0.225-14.915,1.262-37.336-15.922-30.827
			c-6.77,2.563-6.826,13.346-8.906,21.269c-1.09,4.142-12.168,70.767-13.857,75.514c-1.902,5.346-5.768,1.025-5.762-1.558
			c0.078-24.627,0.049-49.261-0.664-73.877c-0.412-14.215-1.328-39.846-16.209-34.08c-8.71,3.375-9.237,15.544-10.46,25.509
			c-1.334,10.861-0.586,84.825-4.016,93.781c-0.299,1.184-1.923,2.06-3.308,1.838c-5.033,0.928-9.211-44.976-10.545-59.855
			c-1.334-14.878-1.512-47.931-16.019-43.556c-7.271,2.192-6.985,10.814-7.599,17.923c-0.445,0.749,4.102,90.064,4.775,97.049
			c0.439,4.576-3.396,7.504-5.422,1.484c-2.506-7.442-9.309-40.722-10.588-49.605c-1.352-9.397-1.816-31.495-13.516-29.954
			c-6.154,0.811-8.693,6.431-9.865,8.801c-4.76,11.132-0.871,29.158,0.355,40.985c1.518,14.635,6.291,45.234,6.26,46.066
			c2.4,15.811-1.002,56.856,6.422,72.797c2.531,8.172,16.197,39.446,19.92,47.52c0.646,1.397,1.094,2.792,1.412,4.186"/>
</g>
<g id="L_x5F_mezinec">
	<g>
		
			<path opacity="0.95" fill-rule="evenodd" clip-rule="evenodd" fill="none" stroke="#FFFFFF" stroke-width="2" stroke-linecap="round" stroke-miterlimit="10" d="
			M186.342,322.292c2.85-5.201,6.48-9.901,11.205-13.873c3.561-2.994,11.281-13.935,11.281-13.935s14.516-23.426,21.256-35.329
			c10.148-17.92,28.643-54.948,28.643-54.948s10.264-19.504-1.197-26.194c-1.822-1.064-12.65-4.67-21.879,4.419
			c-3.625,3.57-18.629,25.789-22.717,33.176c0,0.001-6.318,11.659-7.406,14.211c-9.896,14.512-22.24,0.389-22.016-14.823
			c0.146-9.863,0.248-19.81,1.836-29.522c1.545-9.459,10.877-72.254,11.219-94.591c0.225-14.915,1.262-37.336-15.922-30.827
			c-6.77,2.563-6.826,13.346-8.906,21.269c-1.09,4.142-12.168,70.767-13.857,75.514c-1.902,5.346-5.768,1.025-5.762-1.558
			c0.078-24.627,0.049-49.261-0.664-73.877c-0.412-14.215-1.328-39.846-16.209-34.08c-8.71,3.375-9.237,15.544-10.46,25.509
			c-1.334,10.861-0.586,84.825-4.016,93.781c-0.299,1.184-1.923,2.06-3.308,1.838c-5.033,0.928-9.211-44.976-10.545-59.855
			c-1.334-14.878-1.512-47.931-16.019-43.556c-7.271,2.192-6.985,10.814-7.599,17.923c-0.445,0.749,4.102,90.064,4.775,97.049
			c0.439,4.576-3.396,7.504-5.422,1.484c-2.506-7.442-9.309-40.722-10.588-49.605c-1.352-9.397-1.816-31.495-13.516-29.954
			c-6.154,0.811-8.693,6.431-9.865,8.801c-4.76,11.132-0.871,29.158,0.355,40.985c1.518,14.635,6.291,45.234,6.26,46.066
			c2.4,15.811-1.002,56.856,6.422,72.797c2.531,8.172,16.197,39.446,19.92,47.52c0.646,1.397,1.094,2.792,1.412,4.186"/>
		<g>
			<path stroke="#000000" stroke-width="2" stroke-miterlimit="10" d="M58.033,119.897c-7.236,0-13.121-5.886-13.121-13.121
				c0-7.235,5.885-13.121,13.121-13.121c7.234,0,13.121,5.886,13.121,13.121C71.154,114.012,65.268,119.897,58.033,119.897z
				 M58.033,97.655c-5.029,0-9.121,4.092-9.121,9.121s4.092,9.121,9.121,9.121s9.121-4.092,9.121-9.121S63.063,97.655,58.033,97.655
				z"/>
			
				<circle fill-rule="evenodd" clip-rule="evenodd" stroke="#000000" stroke-width="2" stroke-miterlimit="10" cx="58.033" cy="106.776" r="5.053"/>
			<path stroke="#000000" stroke-width="2" stroke-miterlimit="10" d="M58.033,127.473c-11.412,0-20.695-9.284-20.695-20.696
				c0-11.41,9.283-20.695,20.695-20.695c11.41,0,20.695,9.285,20.695,20.695C78.729,118.188,69.443,127.473,58.033,127.473z
				 M58.033,88.081c-10.309,0-18.695,8.387-18.695,18.695c0,10.309,8.387,18.696,18.695,18.696s18.695-8.387,18.695-18.696
				C76.729,96.468,68.342,88.081,58.033,88.081z"/>
			<path stroke="#000000" stroke-miterlimit="10" d="M58.033,136.933c-16.629,0-30.156-13.528-30.156-30.157
				c0-16.626,13.527-30.155,30.156-30.155c16.627,0,30.156,13.529,30.156,30.155C88.189,123.404,74.66,136.933,58.033,136.933z
				 M58.033,77.621c-16.078,0-29.156,13.08-29.156,29.155c0,16.077,13.078,29.157,29.156,29.157
				c16.076,0,29.156-13.08,29.156-29.157C87.189,90.7,74.109,77.621,58.033,77.621z"/>
			<path d="M58.033,146.835c-22.09,0-40.059-17.971-40.059-40.06c0-22.088,17.969-40.057,40.059-40.057
				c22.088,0,40.059,17.969,40.059,40.057C98.092,128.864,80.121,146.835,58.033,146.835z M58.033,66.968
				c-21.951,0-39.809,17.858-39.809,39.807c0,21.951,17.857,39.81,39.809,39.81c21.949,0,39.809-17.858,39.809-39.81
				C97.842,84.826,79.982,66.968,58.033,66.968z"/>
		</g>
	</g>
	<g id="Layer_7">
	</g>
</g>
<g id="L_x5F_prstanec">
	<g>
		
			<path opacity="0.95" fill-rule="evenodd" clip-rule="evenodd" fill="none" stroke="#FFFFFF" stroke-width="2" stroke-linecap="round" stroke-miterlimit="10" d="
			M186.341,322.292c2.85-5.201,6.48-9.902,11.205-13.874c3.561-2.994,11.281-13.934,11.281-13.934s14.516-23.425,21.256-35.329
			c10.148-17.92,28.643-54.947,28.643-54.947s10.264-19.504-1.197-26.194c-1.822-1.064-12.65-4.67-21.879,4.419
			c-3.625,3.57-18.629,25.789-22.717,33.176c0,0.001-6.318,11.659-7.406,14.21c-9.896,14.512-22.24,0.389-22.016-14.822
			c0.146-9.863,0.248-19.81,1.836-29.522c1.545-9.459,10.877-72.254,11.219-94.591c0.225-14.915,1.262-37.336-15.922-30.827
			c-6.77,2.563-6.826,13.346-8.906,21.269c-1.09,4.142-12.168,70.767-13.857,75.514c-1.902,5.346-5.768,1.025-5.762-1.558
			c0.078-24.627,0.049-49.261-0.664-73.877c-0.412-14.215-1.328-39.846-16.209-34.08c-8.71,3.375-9.237,15.544-10.46,25.509
			c-1.334,10.861-0.586,84.825-4.016,93.781c-0.299,1.184-1.923,2.06-3.308,1.838c-5.033,0.928-9.211-44.976-10.545-59.855
			c-1.334-14.878-1.512-47.931-16.019-43.556c-7.271,2.192-6.985,10.814-7.599,17.923c-0.445,0.749,4.102,90.064,4.775,97.049
			c0.439,4.576-3.396,7.504-5.422,1.484c-2.506-7.442-9.309-40.722-10.588-49.605c-1.352-9.397-1.816-31.495-13.516-29.954
			c-6.154,0.811-8.693,6.431-9.865,8.801c-4.76,11.132-0.871,29.158,0.355,40.985c1.518,14.635,6.291,45.234,6.26,46.066
			c2.4,15.811-1.002,56.856,6.422,72.796c2.531,8.173,16.197,39.447,19.92,47.52c0.646,1.397,1.094,2.792,1.412,4.186"/>
		<g>
			<path stroke="#000000" stroke-width="2" stroke-miterlimit="10" d="M92.703,82.038c-7.236,0-13.121-5.886-13.121-13.121
				c0-7.234,5.885-13.121,13.121-13.121c7.234,0,13.121,5.886,13.121,13.121C105.824,76.152,99.937,82.038,92.703,82.038z
				 M92.703,59.796c-5.029,0-9.121,4.091-9.121,9.121c0,5.03,4.092,9.121,9.121,9.121s9.121-4.091,9.121-9.121
				C101.824,63.888,97.732,59.796,92.703,59.796z"/>
			
				<circle fill-rule="evenodd" clip-rule="evenodd" stroke="#000000" stroke-width="2" stroke-miterlimit="10" cx="92.703" cy="68.917" r="5.053"/>
			<path stroke="#000000" stroke-width="2" stroke-miterlimit="10" d="M92.703,89.613c-11.412,0-20.695-9.283-20.695-20.696
				c0-11.41,9.283-20.695,20.695-20.695c11.41,0,20.695,9.285,20.695,20.695C113.398,80.33,104.113,89.613,92.703,89.613z
				 M92.703,50.222c-10.309,0-18.695,8.387-18.695,18.695c0,10.31,8.387,18.696,18.695,18.696s18.695-8.387,18.695-18.696
				C111.398,58.608,103.011,50.222,92.703,50.222z"/>
			<path stroke="#000000" stroke-miterlimit="10" d="M92.703,99.073c-16.629,0-30.156-13.528-30.156-30.156
				c0-16.627,13.527-30.155,30.156-30.155c16.627,0,30.156,13.528,30.156,30.155C122.859,85.545,109.33,99.073,92.703,99.073z
				 M92.703,39.762c-16.078,0-29.156,13.079-29.156,29.155s13.078,29.156,29.156,29.156c16.076,0,29.156-13.08,29.156-29.156
				S108.779,39.762,92.703,39.762z"/>
			<path d="M92.703,108.976c-22.09,0-40.059-17.971-40.059-40.06c0-22.087,17.969-40.057,40.059-40.057
				c22.088,0,40.059,17.97,40.059,40.057C132.761,91.005,114.791,108.976,92.703,108.976z M92.703,29.109
				c-21.951,0-39.809,17.857-39.809,39.807c0,21.951,17.857,39.81,39.809,39.81c21.949,0,39.809-17.858,39.809-39.81
				C132.511,46.967,114.652,29.109,92.703,29.109z"/>
		</g>
	</g>
</g>
<g id="L_x5F_sredinec">
	<g>
		
			<path opacity="0.95" fill-rule="evenodd" clip-rule="evenodd" fill="none" stroke="#FFFFFF" stroke-width="2" stroke-linecap="round" stroke-miterlimit="10" d="
			M186.342,322.292c2.85-5.201,6.48-9.901,11.205-13.873c3.561-2.994,11.281-13.935,11.281-13.935s14.516-23.426,21.256-35.329
			c10.148-17.92,28.643-54.948,28.643-54.948s10.264-19.504-1.197-26.194c-1.822-1.064-12.65-4.67-21.879,4.419
			c-3.625,3.57-18.629,25.789-22.717,33.176c0,0-6.318,11.658-7.406,14.211c-9.896,14.512-22.24,0.389-22.016-14.823
			c0.146-9.863,0.248-19.81,1.836-29.522c1.545-9.459,10.877-72.254,11.219-94.591c0.225-14.915,1.262-37.336-15.922-30.827
			c-6.77,2.563-6.826,13.346-8.906,21.269c-1.09,4.142-12.168,70.767-13.857,75.514c-1.902,5.346-5.768,1.025-5.762-1.558
			c0.078-24.627,0.049-49.261-0.664-73.877c-0.412-14.215-1.328-39.846-16.209-34.08c-8.71,3.375-9.237,15.544-10.46,25.509
			c-1.334,10.861-0.586,84.825-4.016,93.781c-0.299,1.184-1.923,2.06-3.308,1.838c-5.033,0.928-9.211-44.976-10.545-59.855
			c-1.334-14.878-1.512-47.931-16.019-43.556c-7.271,2.192-6.985,10.814-7.599,17.923c-0.445,0.749,4.102,90.064,4.775,97.049
			c0.439,4.576-3.396,7.504-5.422,1.484c-2.506-7.442-9.309-40.722-10.588-49.605c-1.352-9.397-1.816-31.495-13.516-29.954
			c-6.154,0.811-8.693,6.431-9.865,8.801c-4.76,11.132-0.871,29.158,0.355,40.985c1.518,14.635,6.291,45.234,6.26,46.066
			c2.4,15.811-1.002,56.856,6.422,72.797c2.531,8.172,16.197,39.446,19.92,47.52c0.646,1.397,1.094,2.792,1.412,4.186"/>
		<g>
			<path stroke="#000000" stroke-width="2" stroke-miterlimit="10" d="M139.024,64.332c-7.236,0-13.121-5.885-13.121-13.121
				c0-7.235,5.885-13.122,13.121-13.122c7.234,0,13.121,5.887,13.121,13.122C152.145,58.447,146.258,64.332,139.024,64.332z
				 M139.024,42.09c-5.029,0-9.121,4.092-9.121,9.122c0,5.029,4.092,9.121,9.121,9.121s9.121-4.091,9.121-9.121
				C148.145,46.182,144.053,42.09,139.024,42.09z"/>
			
				<circle fill-rule="evenodd" clip-rule="evenodd" stroke="#000000" stroke-width="2" stroke-miterlimit="10" cx="139.024" cy="51.211" r="5.053"/>
			<path stroke="#000000" stroke-width="2" stroke-miterlimit="10" d="M139.024,71.907c-11.412,0-20.695-9.284-20.695-20.696
				c0-11.411,9.283-20.696,20.695-20.696c11.41,0,20.695,9.285,20.695,20.696C159.719,62.624,150.434,71.907,139.024,71.907z
				 M139.024,32.516c-10.309,0-18.695,8.387-18.695,18.696s8.387,18.696,18.695,18.696s18.695-8.387,18.695-18.696
				S149.333,32.516,139.024,32.516z"/>
			<path stroke="#000000" stroke-miterlimit="10" d="M139.024,81.367c-16.629,0-30.156-13.528-30.156-30.156
				c0-16.627,13.527-30.155,30.156-30.155c16.627,0,30.156,13.528,30.156,30.155C169.18,67.839,155.651,81.367,139.024,81.367z
				 M139.024,22.056c-16.078,0-29.156,13.079-29.156,29.155c0,16.077,13.078,29.156,29.156,29.156
				c16.076,0,29.156-13.079,29.156-29.156C168.18,35.135,155.1,22.056,139.024,22.056z"/>
			<path d="M139.024,91.27c-22.09,0-40.059-17.971-40.059-40.06c0-22.087,17.969-40.057,40.059-40.057
				c22.088,0,40.059,17.97,40.059,40.057C179.083,73.299,161.112,91.27,139.024,91.27z M139.024,11.403
				c-21.951,0-39.809,17.857-39.809,39.807c0,21.951,17.857,39.81,39.809,39.81c21.949,0,39.809-17.858,39.809-39.81
				C178.833,29.261,160.973,11.403,139.024,11.403z"/>
		</g>
	</g>
</g>
<g id="L_x5F_kazalec">
	<g>
		
			<path opacity="0.95" fill-rule="evenodd" clip-rule="evenodd" fill="none" stroke="#FFFFFF" stroke-width="2" stroke-linecap="round" stroke-miterlimit="10" d="
			M186.342,322.292c2.85-5.201,6.48-9.901,11.205-13.873c3.561-2.994,11.281-13.935,11.281-13.935s14.516-23.426,21.256-35.329
			c10.148-17.92,28.643-54.948,28.643-54.948s10.264-19.504-1.197-26.194c-1.822-1.064-12.65-4.67-21.879,4.419
			c-3.625,3.57-18.629,25.789-22.717,33.176c0,0.001-6.319,11.659-7.407,14.211c-9.896,14.512-22.24,0.389-22.015-14.823
			c0.146-9.863,0.248-19.81,1.836-29.522c1.545-9.459,10.877-72.254,11.219-94.591c0.225-14.915,1.261-37.336-15.922-30.827
			c-6.77,2.563-6.826,13.346-8.906,21.269c-1.09,4.142-12.168,70.767-13.857,75.514c-1.902,5.346-5.768,1.025-5.762-1.558
			c0.078-24.627,0.049-49.261-0.664-73.877c-0.412-14.215-1.328-39.846-16.209-34.08c-8.709,3.375-9.237,15.544-10.459,25.509
			c-1.334,10.861-0.586,84.825-4.016,93.781c-0.299,1.184-1.923,2.06-3.308,1.838c-5.033,0.928-9.211-44.976-10.545-59.855
			c-1.334-14.878-1.512-47.931-16.019-43.556c-7.271,2.192-6.984,10.814-7.598,17.923c-0.446,0.749,4.101,90.064,4.774,97.049
			c0.439,4.576-3.396,7.504-5.422,1.484c-2.506-7.442-9.308-40.722-10.587-49.605c-1.353-9.397-1.817-31.495-13.517-29.954
			c-6.154,0.811-8.693,6.431-9.865,8.801c-4.76,11.132-0.87,29.158,0.355,40.985c1.518,14.635,6.291,45.234,6.26,46.066
			c2.401,15.811-1.001,56.856,6.423,72.797c2.53,8.172,16.196,39.446,19.92,47.52c0.645,1.398,1.093,2.792,1.412,4.186"/>
		<g>
			<path stroke="#000000" stroke-width="2" stroke-miterlimit="10" d="M186.223,76.602c-7.236,0-13.121-5.885-13.121-13.121
				c0-7.234,5.885-13.121,13.121-13.121c7.234,0,13.121,5.887,13.121,13.121C199.343,70.716,193.457,76.602,186.223,76.602z
				 M186.223,54.359c-5.029,0-9.121,4.092-9.121,9.121s4.092,9.121,9.121,9.121s9.121-4.092,9.121-9.121
				S191.252,54.359,186.223,54.359z"/>
			
				<circle fill-rule="evenodd" clip-rule="evenodd" stroke="#000000" stroke-width="2" stroke-miterlimit="10" cx="186.223" cy="63.48" r="5.053"/>
			<path stroke="#000000" stroke-width="2" stroke-miterlimit="10" d="M186.223,84.177c-11.412,0-20.695-9.284-20.695-20.696
				c0-11.41,9.283-20.695,20.695-20.695c11.41,0,20.695,9.285,20.695,20.695C206.917,74.893,197.632,84.177,186.223,84.177z
				 M186.223,44.785c-10.309,0-18.695,8.387-18.695,18.695c0,10.31,8.387,18.696,18.695,18.696s18.695-8.387,18.695-18.696
				C204.917,53.172,196.531,44.785,186.223,44.785z"/>
			<path stroke="#000000" stroke-miterlimit="10" d="M186.223,93.637c-16.629,0-30.156-13.528-30.156-30.156
				c0-16.627,13.527-30.155,30.156-30.155c16.626,0,30.156,13.528,30.156,30.155C216.379,80.108,202.849,93.637,186.223,93.637z
				 M186.223,34.325c-16.078,0-29.156,13.079-29.156,29.155c0,16.077,13.078,29.156,29.156,29.156
				c16.076,0,29.156-13.08,29.156-29.156C215.379,47.404,202.298,34.325,186.223,34.325z"/>
			<path d="M186.223,103.539c-22.09,0-40.059-17.97-40.059-40.059c0-22.087,17.969-40.057,40.059-40.057
				c22.087,0,40.059,17.97,40.059,40.057C226.281,85.568,208.31,103.539,186.223,103.539z M186.223,23.673
				c-21.951,0-39.809,17.857-39.809,39.807c0,21.952,17.857,39.809,39.809,39.809c21.949,0,39.809-17.857,39.809-39.809
				C226.031,41.53,208.171,23.673,186.223,23.673z"/>
		</g>
	</g>
</g>
<g id="L_x5F_palec">
	<g>
		
			<path opacity="0.95" fill-rule="evenodd" clip-rule="evenodd" fill="none" stroke="#FFFFFF" stroke-width="2" stroke-linecap="round" stroke-miterlimit="10" d="
			M186.342,322.292c2.85-5.201,6.48-9.9,11.205-13.872c3.561-2.995,11.281-13.936,11.281-13.936s14.516-23.426,21.256-35.327
			c10.148-17.922,28.643-54.949,28.643-54.949s10.264-19.504-1.197-26.194c-1.822-1.064-12.65-4.67-21.879,4.419
			c-3.625,3.57-18.629,25.789-22.717,33.176c0,0.002-6.319,11.659-7.407,14.211c-9.896,14.513-22.24,0.389-22.015-14.823
			c0.146-9.863,0.248-19.81,1.836-29.522c1.545-9.459,10.877-72.254,11.219-94.591c0.225-14.915,1.261-37.336-15.922-30.827
			c-6.77,2.563-6.826,13.346-8.906,21.269c-1.09,4.143-12.168,70.768-13.857,75.515c-1.902,5.347-5.768,1.025-5.762-1.558
			c0.078-24.628,0.049-49.262-0.664-73.878c-0.412-14.216-1.328-39.846-16.209-34.08c-8.709,3.375-9.237,15.544-10.459,25.509
			c-1.334,10.861-0.586,84.825-4.016,93.781c-0.299,1.184-1.923,2.06-3.308,1.838c-5.033,0.929-9.211-44.977-10.545-59.855
			c-1.334-14.878-1.512-47.931-16.019-43.556c-7.271,2.192-6.984,10.814-7.598,17.923c-0.446,0.748,4.101,90.064,4.774,97.049
			c0.439,4.576-3.396,7.504-5.422,1.484c-2.506-7.442-9.308-40.722-10.587-49.605c-1.353-9.396-1.817-31.494-13.517-29.953
			c-6.154,0.811-8.693,6.431-9.865,8.801c-4.76,11.132-0.87,29.158,0.355,40.985c1.518,14.635,6.291,45.234,6.26,46.066
			c2.401,15.812-1.001,56.856,6.423,72.798c2.53,8.171,16.196,39.445,19.92,47.519c0.645,1.398,1.093,2.792,1.412,4.186"/>
		<g>
			<path stroke="#000000" stroke-width="2" stroke-miterlimit="10" d="M256.974,195.918c-7.236,0-13.121-5.885-13.121-13.121
				c0-7.234,5.885-13.121,13.121-13.121c7.234,0,13.121,5.887,13.121,13.121C270.094,190.034,264.208,195.918,256.974,195.918z
				 M256.974,173.676c-5.029,0-9.121,4.092-9.121,9.121c0,5.03,4.092,9.121,9.121,9.121s9.121-4.091,9.121-9.121
				C266.095,177.768,262.003,173.676,256.974,173.676z"/>
			
				<circle fill-rule="evenodd" clip-rule="evenodd" stroke="#000000" stroke-width="2" stroke-miterlimit="10" cx="256.974" cy="182.797" r="5.053"/>
			<path stroke="#000000" stroke-width="2" stroke-miterlimit="10" d="M256.974,203.494c-11.412,0-20.695-9.284-20.695-20.696
				c0-11.411,9.283-20.695,20.695-20.695c11.41,0,20.695,9.284,20.695,20.695C277.668,194.209,268.383,203.494,256.974,203.494z
				 M256.974,164.102c-10.309,0-18.695,8.388-18.695,18.695c0,10.31,8.387,18.696,18.695,18.696s18.695-8.387,18.695-18.696
				C275.668,172.49,267.282,164.102,256.974,164.102z"/>
			<path stroke="#000000" stroke-miterlimit="10" d="M256.974,212.953c-16.629,0-30.156-13.527-30.156-30.155
				s13.527-30.155,30.156-30.155c16.626,0,30.156,13.527,30.156,30.155S273.6,212.953,256.974,212.953z M256.974,153.642
				c-16.078,0-29.156,13.078-29.156,29.155s13.078,29.155,29.156,29.155c16.076,0,29.156-13.078,29.156-29.155
				S273.049,153.642,256.974,153.642z"/>
			<path d="M256.974,222.857c-22.09,0-40.059-17.972-40.059-40.06s17.969-40.059,40.059-40.059
				c22.087,0,40.059,17.971,40.059,40.059S279.061,222.857,256.974,222.857z M256.974,142.99c-21.951,0-39.809,17.857-39.809,39.808
				c0,21.951,17.857,39.81,39.809,39.81c21.949,0,39.809-17.858,39.809-39.81C296.782,160.847,278.922,142.99,256.974,142.99z"/>
		</g>
	</g>
</g>
<g id="D_x5F_mezinec">
</g>
<g id="D_x5F_prstanec">
</g>
<g id="D_x5F_sredinec">
</g>
<g id="D_x5F_kazalec">
</g>
<g id="D_x5F_palec">
</g>
</svg>
