<?xml version="1.0" encoding="utf-8"?>
<!-- Generator: Adobe Illustrator 16.0.0, SVG Export Plug-In . SVG Version: 6.00 Build 0)  -->
<!DOCTYPE svg PUBLIC "-//W3C//DTD SVG 1.1//EN" "http://www.w3.org/Graphics/SVG/1.1/DTD/svg11.dtd">
<svg version="1.1" xmlns="http://www.w3.org/2000/svg" xmlns:xlink="http://www.w3.org/1999/xlink" x="0px" y="0px" width="860px"
	 height="300px" viewBox="0 0 860 300" enable-background="new 0 0 860 300" xml:space="preserve">
<g id="BG" display="none">
	<rect x="-530.001" y="-53.573" display="inline" fill="#32BCAD" width="1920.001" height="396.978"/>
</g>
<g id="bg">
	<rect opacity="0.3" fill="#FFFFFF" width="860" height="300"/>
</g>
<g id="CTRL_x5F_D_PB">
	<g>
		<path fill-rule="evenodd" clip-rule="evenodd" d="M849.248,288.142c0,0.55-0.45,1-1,1h-85.031c-0.55,0-1-0.45-1-1v-46.916
			c0-0.55,0.45-1,1-1h85.031c0.55,0,1,0.45,1,1V288.142z"/>
	</g>
	<g>
		<path fill="#FFFFFF" d="M815.395,268.018c0.605,0,1.139-0.187,1.6-0.562c0.461-0.374,0.691-0.833,0.691-1.377h1.643l0.02,0.056
			c0.029,0.866-0.355,1.636-1.156,2.31s-1.732,1.011-2.797,1.011c-1.459,0-2.576-0.477-3.35-1.429
			c-0.773-0.953-1.158-2.149-1.158-3.59v-0.39c0-1.429,0.387-2.621,1.164-3.577c0.775-0.956,1.891-1.433,3.344-1.433
			c1.176,0,2.135,0.346,2.881,1.039c0.744,0.693,1.105,1.543,1.08,2.551l-0.018,0.056h-1.652c0-0.612-0.217-1.133-0.648-1.563
			c-0.434-0.43-0.98-0.645-1.643-0.645c-0.959,0-1.645,0.344-2.055,1.033c-0.412,0.688-0.617,1.533-0.617,2.534v0.389
			c0,1.025,0.205,1.879,0.613,2.562S814.43,268.018,815.395,268.018z"/>
		<path fill="#FFFFFF" d="M823.809,256.802v2.421h1.902v1.354h-1.902v6.095c0,0.47,0.098,0.801,0.293,0.993
			c0.193,0.192,0.453,0.288,0.773,0.288c0.105,0,0.221-0.013,0.348-0.037c0.127-0.025,0.24-0.056,0.34-0.093l0.24,1.252
			c-0.135,0.111-0.336,0.203-0.598,0.273c-0.264,0.071-0.527,0.107-0.793,0.107c-0.742,0-1.334-0.224-1.771-0.673
			c-0.439-0.448-0.66-1.152-0.66-2.11v-6.095h-1.596v-1.354h1.596v-2.421H823.809z"/>
		<path fill="#FFFFFF" d="M832.715,260.837l-0.938-0.056c-0.482,0-0.889,0.114-1.219,0.343c-0.332,0.229-0.586,0.55-0.766,0.965
			v7.171h-1.828v-10.038h1.633l0.176,1.466c0.285-0.52,0.637-0.925,1.053-1.215c0.418-0.291,0.898-0.436,1.443-0.436
			c0.137,0,0.266,0.011,0.391,0.032c0.123,0.022,0.225,0.045,0.305,0.07L832.715,260.837z"/>
		<path fill="#FFFFFF" d="M836.453,269.261h-1.828v-14.473h1.828V269.261z"/>
	</g>
</g>
<g id="PRESLEDNICA_PB">
	<g>
		<path fill-rule="evenodd" clip-rule="evenodd" d="M533.336,287.44c0,0.55-0.45,1-1,1H254.76c-0.55,0-1-0.45-1-1v-46.916
			c0-0.55,0.45-1,1-1h277.576c0.55,0,1,0.45,1,1V287.44z"/>
	</g>
</g>
<g id="CTRL_x5F_L_PB">
	<g>
		<path fill-rule="evenodd" clip-rule="evenodd" d="M99.405,288.142c0,0.55-0.45,1-1,1H13.374c-0.55,0-1-0.45-1-1v-46.916
			c0-0.55,0.45-1,1-1h85.032c0.55,0,1,0.45,1,1V288.142z"/>
	</g>
	<g>
		<path fill="#FFFFFF" d="M26.084,269.018c0.606,0,1.14-0.187,1.6-0.562c0.461-0.374,0.691-0.833,0.691-1.377h1.642l0.019,0.056
			c0.031,0.866-0.354,1.636-1.155,2.31c-0.801,0.674-1.734,1.011-2.797,1.011c-1.46,0-2.576-0.477-3.349-1.429
			c-0.773-0.953-1.16-2.149-1.16-3.59v-0.39c0-1.429,0.388-2.621,1.165-3.577c0.776-0.956,1.891-1.433,3.344-1.433
			c1.175,0,2.135,0.346,2.88,1.039c0.746,0.693,1.105,1.543,1.081,2.551l-0.019,0.056h-1.651c0-0.612-0.217-1.133-0.649-1.563
			c-0.433-0.43-0.98-0.645-1.642-0.645c-0.959,0-1.644,0.344-2.055,1.033c-0.411,0.688-0.617,1.533-0.617,2.534v0.389
			c0,1.025,0.204,1.879,0.612,2.562S25.119,269.018,26.084,269.018z"/>
		<path fill="#FFFFFF" d="M34.499,257.802v2.421H36.4v1.354h-1.902v6.095c0,0.47,0.097,0.801,0.292,0.993
			c0.194,0.192,0.453,0.288,0.774,0.288c0.105,0,0.221-0.013,0.348-0.037c0.127-0.025,0.24-0.056,0.339-0.093l0.241,1.252
			c-0.136,0.111-0.335,0.203-0.599,0.273c-0.263,0.071-0.527,0.107-0.793,0.107c-0.742,0-1.333-0.224-1.772-0.673
			c-0.439-0.448-0.659-1.152-0.659-2.11v-6.095h-1.596v-1.354h1.596v-2.421H34.499z"/>
		<path fill="#FFFFFF" d="M43.405,261.837l-0.937-0.056c-0.482,0-0.889,0.114-1.22,0.343c-0.331,0.229-0.586,0.55-0.766,0.965v7.171
			h-1.828v-10.038h1.633l0.176,1.466c0.284-0.52,0.636-0.925,1.053-1.215c0.418-0.291,0.898-0.436,1.443-0.436
			c0.136,0,0.266,0.011,0.39,0.032c0.124,0.022,0.226,0.045,0.306,0.07L43.405,261.837z"/>
		<path fill="#FFFFFF" d="M47.144,270.261h-1.828v-14.473h1.828V270.261z"/>
	</g>
</g>
<g id="SHIFT_x5F_D_PB">
	<g>
		<path fill-rule="evenodd" clip-rule="evenodd" d="M849.248,231.228c0,0.55-0.45,1-1,1H716.777c-0.55,0-1-0.45-1-1v-46.915
			c0-0.55,0.45-1,1-1h131.471c0.55,0,1,0.45,1,1V231.228z"/>
	</g>
	<g>
		<rect x="829.256" y="198.975" fill="#FFFFFF" width="2" height="18.581"/>
		<g>
			<polygon fill="#FFFFFF" points="838.436,205.602 836.971,206.966 830.258,199.742 823.543,206.966 822.078,205.602 
				830.258,196.806 			"/>
		</g>
	</g>
</g>
<g id="_x2D__PB">
	<g>
		<path fill-rule="evenodd" clip-rule="evenodd" d="M707.662,231.228c0,0.55-0.45,1-1,1h-46.914c-0.55,0-1-0.45-1-1v-46.915
			c0-0.55,0.45-1,1-1h46.914c0.55,0,1,0.45,1,1V231.228z"/>
	</g>
	<g>
		<path fill="#FFFFFF" d="M686.117,221.836h-6.221v-1.955h6.221V221.836z"/>
	</g>
	<g>
		<path fill="#FFFFFF" d="M690.096,201.106h-13.781v-1.968h13.781V201.106z"/>
	</g>
</g>
<g id="_x2E__PB">
	<g>
		<path fill-rule="evenodd" clip-rule="evenodd" d="M649.863,231.228c0,0.55-0.45,1-1,1h-46.914c-0.55,0-1-0.45-1-1v-46.915
			c0-0.55,0.45-1,1-1h46.914c0.55,0,1,0.45,1,1V231.228z"/>
	</g>
	<g>
		<path fill-rule="evenodd" clip-rule="evenodd" d="M649.863,231.228c0,0.55-0.45,1-1,1h-46.914c-0.55,0-1-0.45-1-1v-46.915
			c0-0.55,0.45-1,1-1h46.914c0.55,0,1,0.45,1,1V231.228z"/>
	</g>
	<g>
		<path fill="#FFFFFF" d="M626.51,223.611h-2.5v-2.59h2.5V223.611z"/>
	</g>
	<g>
		<path fill="#FFFFFF" d="M625.707,191.49h-2.502v-2.59h2.502V191.49z M625.707,202.611h-2.502v-2.59h2.502V202.611z"/>
	</g>
</g>
<g id="_x2C__PB">
	<g>
		<path fill-rule="evenodd" clip-rule="evenodd" d="M592.066,231.228c0,0.55-0.45,1-1,1h-46.914c-0.55,0-1-0.45-1-1v-46.915
			c0-0.55,0.45-1,1-1h46.914c0.55,0,1,0.45,1,1V231.228z"/>
	</g>
	<g>
		<path fill-rule="evenodd" clip-rule="evenodd" d="M592.066,231.228c0,0.55-0.45,1-1,1h-46.914c-0.55,0-1-0.45-1-1v-46.915
			c0-0.55,0.45-1,1-1h46.914c0.55,0,1,0.45,1,1V231.228z"/>
	</g>
	<g>
		<path fill="#FFFFFF" d="M569.084,223.001l-1.904,3.885h-1.484l0.889-4.012v-2.069h2.5V223.001z"/>
	</g>
	<g>
		<path fill="#FFFFFF" d="M568.963,202.648l-1.904,3.885h-1.484l0.889-4.012v-2.069h2.5V202.648z M568.875,192.136h-2.502v-2.59
			h2.502V192.136z"/>
	</g>
</g>
<g id="M_PB">
	<g>
		<path fill-rule="evenodd" clip-rule="evenodd" d="M534.268,231.228c0,0.55-0.45,1-1,1h-46.912c-0.55,0-1-0.45-1-1v-46.915
			c0-0.55,0.45-1,1-1h46.912c0.55,0,1,0.45,1,1V231.228z"/>
	</g>
	<g>
		<path fill="#FFFFFF" d="M503.924,199.126l5.891,15.019h0.076l5.891-15.019h3.199v18.484h-2.502v-7.313l0.254-7.516l-0.063-0.013
			l-5.992,14.841h-1.664l-5.967-14.803l-0.063,0.013l0.24,7.478v7.313h-2.5v-18.484H503.924z"/>
	</g>
</g>
<g id="N_PB">
	<g>
		<path fill-rule="evenodd" clip-rule="evenodd" d="M476.471,231.228c0,0.55-0.45,1-1,1h-46.916c-0.55,0-1-0.45-1-1v-46.915
			c0-0.55,0.45-1,1-1h46.916c0.55,0,1,0.45,1,1V231.228z"/>
	</g>
	<g>
		<path fill="#FFFFFF" d="M459.053,217.611h-2.5l-8.9-14.295l-0.076,0.025v14.27h-2.5v-18.484h2.5l8.9,14.27l0.076-0.025v-14.244
			h2.5V217.611z"/>
	</g>
</g>
<g id="B_PB">
	<g>
		<path fill-rule="evenodd" clip-rule="evenodd" d="M418.672,231.228c0,0.55-0.45,1-1,1h-46.914c-0.55,0-1-0.45-1-1v-46.915
			c0-0.55,0.45-1,1-1h46.914c0.55,0,1,0.45,1,1V231.228z"/>
	</g>
	<g>
		<path fill="#FFFFFF" d="M388.248,217.611v-18.484h6.031c1.93,0,3.439,0.417,4.531,1.25s1.639,2.084,1.639,3.751
			c0,0.821-0.264,1.555-0.787,2.203c-0.525,0.647-1.215,1.128-2.07,1.441c1.117,0.237,1.996,0.783,2.635,1.638
			s0.959,1.849,0.959,2.983c0,1.693-0.549,2.985-1.645,3.878s-2.584,1.339-4.463,1.339H388.248z M390.75,206.985h4.049
			c0.932,0,1.689-0.256,2.273-0.768s0.875-1.225,0.875-2.139c0-0.999-0.314-1.746-0.945-2.241s-1.539-0.743-2.723-0.743h-3.529
			V206.985z M390.75,208.953v6.69h4.328c1.135,0,2.02-0.28,2.654-0.841c0.635-0.561,0.951-1.355,0.951-2.384
			c0-1.079-0.264-1.927-0.793-2.542c-0.529-0.616-1.344-0.923-2.443-0.923H390.75z"/>
	</g>
</g>
<g id="V_PB">
	<g>
		<path fill-rule="evenodd" clip-rule="evenodd" d="M360.875,231.228c0,0.55-0.45,1-1,1h-46.916c-0.55,0-1-0.45-1-1v-46.915
			c0-0.55,0.45-1,1-1h46.916c0.55,0,1,0.45,1,1V231.228z"/>
	</g>
	<g>
		<path fill="#FFFFFF" d="M336.027,213.015l0.42,1.46h0.076l0.418-1.46l4.773-13.889h2.705l-6.869,18.484h-2.145l-6.869-18.484
			h2.717L336.027,213.015z"/>
	</g>
</g>
<g id="C_PB">
	<g>
		<path fill-rule="evenodd" clip-rule="evenodd" d="M303.076,231.228c0,0.55-0.45,1-1,1h-46.914c-0.55,0-1-0.45-1-1v-46.915
			c0-0.55,0.45-1,1-1h46.914c0.55,0,1,0.45,1,1V231.228z"/>
	</g>
	<g>
		<path fill="#FFFFFF" d="M285.801,211.682l0.025,0.076c0.033,1.735-0.576,3.188-1.828,4.361c-1.254,1.172-2.908,1.758-4.965,1.758
			c-2.09,0-3.793-0.741-5.109-2.222s-1.975-3.36-1.975-5.637v-3.288c0-2.277,0.658-4.158,1.975-5.643s3.02-2.228,5.109-2.228
			c2.092,0,3.754,0.557,4.99,1.669c1.234,1.113,1.836,2.588,1.803,4.424l-0.025,0.076h-2.4c0-1.295-0.381-2.319-1.143-3.072
			s-1.836-1.13-3.225-1.13c-1.396,0-2.51,0.562-3.338,1.687c-0.83,1.125-1.244,2.52-1.244,4.186v3.311
			c0,1.683,0.414,3.086,1.244,4.211c0.828,1.125,1.941,1.687,3.338,1.687c1.389,0,2.463-0.375,3.225-1.124s1.143-1.784,1.143-3.104
			H285.801z"/>
	</g>
</g>
<g id="X_PB">
	<g>
		<path fill-rule="evenodd" clip-rule="evenodd" d="M245.277,231.228c0,0.55-0.45,1-1,1h-46.914c-0.55,0-1-0.45-1-1v-46.915
			c0-0.55,0.45-1,1-1h46.914c0.55,0,1,0.45,1,1V231.228z"/>
	</g>
	<g>
		<path fill="#FFFFFF" d="M220.926,206.337l4.316-7.211h3.021l-5.865,9.166l5.992,9.318h-2.982l-4.432-7.338l-4.443,7.338h-3.021
			l5.992-9.318l-5.865-9.166h2.996L220.926,206.337z"/>
	</g>
</g>
<g id="Y_PB">
	<g>
		<path fill-rule="evenodd" clip-rule="evenodd" d="M187.527,231.228c0,0.55-0.45,1-1,1h-46.918c-0.55,0-1-0.45-1-1v-46.915
			c0-0.55,0.45-1,1-1h46.918c0.55,0,1,0.45,1,1V231.228z"/>
	</g>
	<g>
		<path fill="#FFFFFF" d="M163.1,208.521l4.824-9.395h2.857l-6.488,11.984v6.5h-2.488v-6.665l-6.385-11.819h2.855L163.1,208.521z"/>
	</g>
</g>
<g id="_x3E__x3C__PB">
	<g>
		<path fill-rule="evenodd" clip-rule="evenodd" d="M129.928,231.228c0,0.55-0.45,1-1,1H82.012c-0.55,0-1-0.45-1-1v-46.915
			c0-0.55,0.45-1,1-1h46.916c0.55,0,1,0.45,1,1V231.228z"/>
	</g>
	<g>
		<path fill="#FFFFFF" d="M100.587,197.48v-2.476l10.867,4.799v1.892l-10.867,4.812v-2.488l7.592-3.021l1.079-0.216v-0.076
			l-1.079-0.254L100.587,197.48z"/>
	</g>
	<g>
		<path fill="#FFFFFF" d="M103.774,215.716l-1.079,0.211v0.071l1.079,0.223l7.097,2.675v2.358l-10.359-4.446v-1.748l10.359-4.435
			v2.358L103.774,215.716z"/>
	</g>
</g>
<g id="SHIFT_x5F_L_PB">
	<g>
		<path fill-rule="evenodd" clip-rule="evenodd" d="M57.141,183.313c-0.55,0-1.45,0-2,0H23.968c-0.55,0-1.45,0-2,0h-8.594
			c-0.55,0-1,0.45-1,1v46.915c0,0.55,0.45,1,1,1h8.594c0.55,0,1.45,0,2,0h31.173c0.55,0,1.45,0,2,0h13.743c0.55,0,1-0.45,1-1
			v-46.915c0-0.55-0.45-1-1-1H57.141z"/>
	</g>
	<g>
		<rect x="30.256" y="198.975" fill="#FFFFFF" width="2" height="18.581"/>
		<g>
			<polygon fill="#FFFFFF" points="39.436,205.602 37.971,206.966 31.258,199.742 24.543,206.966 23.078,205.602 31.258,196.806 			
				"/>
		</g>
	</g>
</g>
<g id="Ž_PB">
	<g>
		<path fill-rule="evenodd" clip-rule="evenodd" d="M804.025,173.05c0,0.55-0.45,1-1,1h-46.914c-0.55,0-1-0.45-1-1v-46.915
			c0-0.55,0.45-1,1-1h46.914c0.55,0,1,0.45,1,1V173.05z"/>
	</g>
	<g>
		<path fill="#FFFFFF" d="M775.85,157.217h10.334v1.968h-13.152v-1.866l9.877-14.65h-9.736v-1.968h12.594v1.79L775.85,157.217z
			 M779.52,137.387l1.865-1.879h2.158v0.229l-3.262,3.11h-1.512l-3.225-3.085v-0.254h2.107L779.52,137.387z"/>
	</g>
</g>
<g id="Ć_PB">
	<g>
		<path fill-rule="evenodd" clip-rule="evenodd" d="M746.303,173.05c0,0.55-0.45,1-1,1h-46.914c-0.55,0-1-0.45-1-1v-46.915
			c0-0.55,0.45-1,1-1h46.914c0.55,0,1,0.45,1,1V173.05z"/>
	</g>
	<g>
		<path fill="#FFFFFF" d="M728.9,153.256l0.025,0.076c0.033,1.735-0.576,3.188-1.828,4.361c-1.254,1.172-2.908,1.758-4.965,1.758
			c-2.09,0-3.793-0.741-5.109-2.222s-1.975-3.36-1.975-5.637v-3.288c0-2.277,0.658-4.158,1.975-5.643s3.02-2.228,5.109-2.228
			c2.092,0,3.754,0.557,4.99,1.669c1.234,1.113,1.836,2.588,1.803,4.424l-0.025,0.076h-2.4c0-1.295-0.381-2.319-1.143-3.072
			s-1.836-1.13-3.225-1.13c-1.396,0-2.51,0.562-3.338,1.687c-0.83,1.125-1.244,2.52-1.244,4.186v3.311
			c0,1.683,0.414,3.086,1.244,4.211c0.828,1.125,1.941,1.687,3.338,1.687c1.389,0,2.463-0.375,3.225-1.124s1.143-1.784,1.143-3.104
			H728.9z M723.365,135.788h2.92l0.025,0.076l-3.428,3.301h-1.867L723.365,135.788z"/>
	</g>
</g>
<g id="Č_PB">
	<g>
		<path fill-rule="evenodd" clip-rule="evenodd" d="M688.504,173.05c0,0.55-0.45,1-1,1H640.59c-0.55,0-1-0.45-1-1v-46.915
			c0-0.55,0.45-1,1-1h46.914c0.55,0,1,0.45,1,1V173.05z"/>
	</g>
	<g>
		<path fill="#FFFFFF" d="M671.109,153.256l0.025,0.076c0.033,1.735-0.576,3.188-1.828,4.361c-1.254,1.172-2.908,1.758-4.965,1.758
			c-2.09,0-3.793-0.741-5.109-2.222s-1.975-3.36-1.975-5.637v-3.288c0-2.277,0.658-4.158,1.975-5.643s3.02-2.228,5.109-2.228
			c2.092,0,3.754,0.557,4.99,1.669c1.234,1.113,1.836,2.588,1.803,4.424l-0.025,0.076h-2.4c0-1.295-0.381-2.319-1.143-3.072
			s-1.836-1.13-3.225-1.13c-1.396,0-2.51,0.562-3.338,1.687c-0.83,1.125-1.244,2.52-1.244,4.186v3.311
			c0,1.683,0.414,3.086,1.244,4.211c0.828,1.125,1.941,1.687,3.338,1.687c1.389,0,2.463-0.375,3.225-1.124s1.143-1.784,1.143-3.104
			H671.109z M664.355,137.121l1.865-1.879h2.158v0.229l-3.262,3.11h-1.512l-3.225-3.085v-0.254h2.107L664.355,137.121z"/>
	</g>
</g>
<g id="L_PB">
	<g>
		<path fill-rule="evenodd" clip-rule="evenodd" d="M630.707,173.05c0,0.55-0.45,1-1,1h-46.914c-0.55,0-1-0.45-1-1v-46.915
			c0-0.55,0.45-1,1-1h46.914c0.55,0,1,0.45,1,1V173.05z"/>
	</g>
	<g>
		<path fill="#FFFFFF" d="M603.965,157.217h8.748v1.968h-11.248v-18.484h2.5V157.217z"/>
	</g>
</g>
<g id="K_PB">
	<g>
		<path fill-rule="evenodd" clip-rule="evenodd" d="M572.908,173.05c0,0.55-0.45,1-1,1h-46.914c-0.55,0-1-0.45-1-1v-46.915
			c0-0.55,0.45-1,1-1h46.914c0.55,0,1,0.45,1,1V173.05z"/>
	</g>
	<g>
		<path fill="#FFFFFF" d="M546.99,150.844h-2.158v8.341h-2.502v-18.484h2.502v8.176h1.93l6.613-8.176h2.768l0.039,0.063
			l-7.174,8.874l7.693,9.483l-0.037,0.063h-2.984L546.99,150.844z"/>
	</g>
</g>
<g id="J_PB">
	<g>
		<path fill-rule="evenodd" clip-rule="evenodd" d="M515.109,173.05c0,0.55-0.45,1-1,1h-46.914c-0.55,0-1-0.45-1-1v-46.915
			c0-0.55,0.45-1,1-1h46.914c0.55,0,1,0.45,1,1V173.05z"/>
	</g>
	<g>
		<path fill="#FFFFFF" d="M493.166,140.701h2.5v13.368c0,1.65-0.521,2.96-1.566,3.929c-1.047,0.969-2.402,1.454-4.07,1.454
			c-1.777,0-3.189-0.453-4.24-1.358c-1.049-0.906-1.553-2.217-1.51-3.936l0.025-0.076h2.398c0,1.143,0.291,1.995,0.871,2.558
			c0.578,0.563,1.398,0.844,2.455,0.844c0.924,0,1.676-0.311,2.26-0.933s0.877-1.453,0.877-2.493V140.701z"/>
	</g>
</g>
<g id="H_PB">
	<g>
		<path fill-rule="evenodd" clip-rule="evenodd" d="M457.313,173.05c0,0.55-0.45,1-1,1h-46.914c-0.55,0-1-0.45-1-1v-46.915
			c0-0.55,0.45-1,1-1h46.914c0.55,0,1,0.45,1,1V173.05z"/>
	</g>
	<g>
		<path fill="#FFFFFF" d="M439.807,159.185h-2.5v-8.163h-8.977v8.163h-2.5v-18.484h2.5v8.354h8.977v-8.354h2.5V159.185z"/>
	</g>
</g>
<g id="G_PB">
	<g>
		<path fill-rule="evenodd" clip-rule="evenodd" d="M399.514,173.05c0,0.55-0.45,1-1,1h-46.916c-0.55,0-1-0.45-1-1v-46.915
			c0-0.55,0.45-1,1-1h46.916c0.55,0,1,0.45,1,1V173.05z"/>
	</g>
	<g>
		<path fill="#FFFFFF" d="M381.846,156.735c-0.441,0.677-1.205,1.299-2.293,1.866c-1.086,0.567-2.494,0.851-4.221,0.851
			c-2.209,0-4.035-0.707-5.479-2.12c-1.441-1.414-2.164-3.242-2.164-5.484v-3.809c0-2.243,0.674-4.071,2.02-5.484
			s3.08-2.12,5.205-2.12c2.115,0,3.779,0.521,4.988,1.562c1.211,1.041,1.828,2.382,1.854,4.024l-0.025,0.076h-2.387
			c-0.076-1.075-0.484-1.959-1.225-2.653s-1.809-1.041-3.205-1.041c-1.414,0-2.553,0.529-3.416,1.585
			c-0.863,1.057-1.295,2.397-1.295,4.021v3.831c0,1.641,0.482,2.992,1.447,4.053c0.965,1.062,2.193,1.592,3.682,1.592
			c1.051,0,1.908-0.139,2.578-0.418c0.668-0.279,1.146-0.595,1.434-0.95v-4.192h-4.049v-1.968h6.551V156.735z"/>
	</g>
</g>
<g id="F_PB">
	<g>
		<path fill-rule="evenodd" clip-rule="evenodd" d="M341.717,173.05c0,0.55-0.45,1-1,1h-46.914c-0.55,0-1-0.45-1-1v-46.915
			c0-0.55,0.45-1,1-1h46.914c0.55,0,1,0.45,1,1V173.05z"/>
	</g>
	<g>
		<g>
			<path fill="#FFFFFF" d="M322.877,151.009h-8.43v8.176h-2.502v-18.484h12.227v1.968h-9.725v6.373h8.43V151.009z"/>
		</g>
	</g>
</g>
<g id="D_PB">
	<g>
		<path fill-rule="evenodd" clip-rule="evenodd" d="M283.918,173.05c0,0.55-0.45,1-1,1h-46.916c-0.55,0-1-0.45-1-1v-46.915
			c0-0.55,0.45-1,1-1h46.916c0.55,0,1,0.45,1,1V173.05z"/>
	</g>
	<g>
		<path fill="#FFFFFF" d="M253.162,159.185v-18.484h5.674c2.422,0,4.363,0.743,5.828,2.228c1.463,1.485,2.195,3.404,2.195,5.757
			v2.526c0,2.361-0.732,4.28-2.195,5.757c-1.465,1.477-3.406,2.215-5.828,2.215H253.162z M255.662,142.668v14.549h3.174
			c1.711,0,3.059-0.562,4.045-1.687c0.984-1.125,1.479-2.566,1.479-4.326v-2.549c0-1.742-0.494-3.175-1.479-4.3
			c-0.986-1.125-2.334-1.687-4.045-1.687H255.662z"/>
	</g>
</g>
<g id="S_PB">
	<g>
		<path fill-rule="evenodd" clip-rule="evenodd" d="M226.121,173.05c0,0.55-0.45,1-1,1h-46.914c-0.55,0-1-0.45-1-1v-46.915
			c0-0.55,0.45-1,1-1h46.914c0.55,0,1,0.45,1,1V173.05z"/>
	</g>
	<g>
		<path fill="#FFFFFF" d="M205.895,154.53c0-0.841-0.316-1.546-0.951-2.114s-1.762-1.045-3.377-1.433
			c-1.955-0.467-3.48-1.154-4.576-2.062c-1.098-0.907-1.645-2.049-1.645-3.423c0-1.442,0.59-2.647,1.771-3.614
			c1.18-0.967,2.709-1.451,4.588-1.451c2.023,0,3.633,0.554,4.832,1.663c1.197,1.109,1.773,2.395,1.732,3.859l-0.025,0.076h-2.387
			c0-1.083-0.357-1.959-1.072-2.628c-0.717-0.668-1.742-1.003-3.08-1.003c-1.244,0-2.197,0.281-2.861,0.844
			c-0.666,0.563-0.998,1.297-0.998,2.203c0,0.804,0.359,1.475,1.08,2.012c0.719,0.538,1.887,1.009,3.504,1.416
			c1.945,0.482,3.428,1.193,4.443,2.133s1.523,2.103,1.523,3.491c0,1.49-0.609,2.687-1.828,3.593s-2.811,1.358-4.773,1.358
			c-1.846,0-3.477-0.501-4.895-1.504s-2.105-2.342-2.063-4.018l0.025-0.076h2.387c0,1.185,0.436,2.086,1.307,2.704
			c0.873,0.618,1.951,0.927,3.238,0.927c1.26,0,2.26-0.265,2.996-0.795C205.527,156.159,205.895,155.439,205.895,154.53z"/>
	</g>
</g>
<g id="A_PB">
	<g>
		<path fill-rule="evenodd" clip-rule="evenodd" d="M168.367,173.05c0,0.55-0.45,1-1,1h-46.913c-0.55,0-1-0.45-1-1v-46.915
			c0-0.55,0.45-1,1-1h46.913c0.55,0,1,0.45,1,1V173.05z"/>
	</g>
	<g>
		<path fill="#FFFFFF" d="M147.74,154.424h-7.744l-1.752,4.761h-2.552l7.147-18.484h2.146l7.033,18.484h-2.552L147.74,154.424z
			 M140.77,152.33h6.221l-3.047-8.417h-0.076L140.77,152.33z"/>
	</g>
</g>
<g id="CAPS_LOCK_PB">
	<g>
		<path fill-rule="evenodd" clip-rule="evenodd" d="M110.571,173.05c0,0.55-0.45,1-1,1H13.374c-0.55,0-1-0.45-1-1v-46.915
			c0-0.55,0.45-1,1-1h96.198c0.55,0,1,0.45,1,1V173.05z"/>
	</g>
	<g>
		<g>
			<path fill="#FFFFFF" d="M25.084,154.169c0.606,0,1.14-0.187,1.6-0.562c0.461-0.374,0.691-0.833,0.691-1.377h1.642l0.019,0.056
				c0.031,0.866-0.354,1.636-1.155,2.31c-0.801,0.674-1.734,1.011-2.797,1.011c-1.46,0-2.576-0.476-3.349-1.429
				c-0.773-0.953-1.16-2.149-1.16-3.59v-0.39c0-1.429,0.388-2.621,1.165-3.577c0.776-0.956,1.891-1.433,3.344-1.433
				c1.175,0,2.135,0.346,2.88,1.039c0.746,0.692,1.105,1.543,1.081,2.551l-0.019,0.056h-1.651c0-0.612-0.217-1.133-0.649-1.563
				c-0.433-0.43-0.98-0.645-1.642-0.645c-0.959,0-1.644,0.344-2.055,1.033c-0.411,0.689-0.617,1.534-0.617,2.535v0.389
				c0,1.025,0.204,1.879,0.612,2.562S24.119,154.169,25.084,154.169z"/>
			<path fill="#FFFFFF" d="M37.256,155.412c-0.062-0.303-0.11-0.571-0.144-0.803c-0.034-0.232-0.055-0.465-0.061-0.7
				c-0.34,0.482-0.784,0.886-1.331,1.21c-0.548,0.325-1.137,0.487-1.768,0.487c-1.045,0-1.842-0.268-2.389-0.803
				c-0.548-0.535-0.821-1.272-0.821-2.212c0-0.959,0.388-1.708,1.164-2.25c0.776-0.541,1.829-0.812,3.159-0.812h1.985v-0.993
				c0-0.587-0.18-1.053-0.538-1.396c-0.359-0.343-0.866-0.515-1.521-0.515c-0.588,0-1.065,0.15-1.434,0.45
				c-0.368,0.3-0.552,0.66-0.552,1.081h-1.744l-0.019-0.056c-0.037-0.73,0.308-1.398,1.034-2.004
				c0.727-0.606,1.666-0.909,2.816-0.909c1.138,0,2.053,0.289,2.746,0.867c0.692,0.579,1.039,1.412,1.039,2.5v4.833
				c0,0.358,0.019,0.705,0.056,1.039s0.105,0.662,0.204,0.983H37.256z M34.222,154.067c0.662,0,1.258-0.169,1.791-0.509
				c0.532-0.339,0.878-0.728,1.039-1.166v-1.628h-2.05c-0.736,0-1.325,0.185-1.767,0.555c-0.442,0.37-0.664,0.805-0.664,1.304
				c0,0.444,0.139,0.795,0.417,1.055S33.678,154.067,34.222,154.067z"/>
			<path fill="#FFFFFF" d="M50.086,150.773c0,1.447-0.347,2.615-1.039,3.502c-0.693,0.888-1.648,1.332-2.867,1.332
				c-0.619,0-1.161-0.104-1.628-0.311c-0.467-0.207-0.865-0.518-1.192-0.932v4.908h-1.828v-13.897h1.401l0.288,1.299
				c0.328-0.482,0.736-0.851,1.225-1.104c0.488-0.253,1.058-0.38,1.707-0.38c1.243,0,2.209,0.493,2.899,1.479
				c0.69,0.987,1.035,2.29,1.035,3.911V150.773z M48.259,150.574c0-1.137-0.224-2.071-0.673-2.803
				c-0.448-0.732-1.108-1.098-1.98-1.098c-0.526,0-0.974,0.119-1.345,0.356c-0.371,0.238-0.671,0.564-0.9,0.978v4.846
				c0.229,0.414,0.529,0.737,0.9,0.968s0.826,0.348,1.364,0.348c0.866,0,1.521-0.317,1.967-0.95c0.445-0.633,0.668-1.45,0.668-2.451
				V150.574z"/>
			<path fill="#FFFFFF" d="M58.167,152.74c0-0.402-0.153-0.733-0.459-0.993c-0.307-0.26-0.886-0.486-1.74-0.677
				c-1.219-0.266-2.135-0.625-2.75-1.079c-0.616-0.454-0.923-1.073-0.923-1.857c0-0.815,0.346-1.51,1.039-2.084
				c0.692-0.574,1.596-0.861,2.709-0.861c1.169,0,2.098,0.3,2.788,0.9c0.69,0.6,1.019,1.33,0.988,2.189l-0.019,0.056h-1.744
				c0-0.439-0.184-0.833-0.552-1.183c-0.368-0.349-0.855-0.524-1.461-0.524c-0.649,0-1.132,0.142-1.447,0.427
				s-0.473,0.627-0.473,1.03c0,0.396,0.139,0.708,0.417,0.937s0.844,0.433,1.698,0.612c1.268,0.272,2.211,0.642,2.83,1.108
				c0.618,0.467,0.928,1.093,0.928,1.879c0,0.891-0.36,1.611-1.081,2.162c-0.721,0.55-1.663,0.826-2.825,0.826
				c-1.28,0-2.289-0.325-3.024-0.974c-0.736-0.649-1.085-1.407-1.048-2.273l0.019-0.056h1.744c0.031,0.646,0.272,1.119,0.724,1.417
				c0.451,0.298,0.98,0.448,1.586,0.448c0.649,0,1.158-0.131,1.526-0.395C57.983,153.512,58.167,153.167,58.167,152.74z"/>
			<path fill="#FFFFFF" d="M68.966,155.412h-1.828v-14.473h1.828V155.412z"/>
			<path fill="#FFFFFF" d="M71.35,150.3c0-1.484,0.402-2.708,1.206-3.669c0.804-0.961,1.896-1.442,3.275-1.442
				c1.392,0,2.491,0.479,3.298,1.438c0.808,0.958,1.211,2.183,1.211,3.674v0.204c0,1.497-0.402,2.721-1.206,3.674
				c-0.804,0.953-1.899,1.429-3.284,1.429c-1.386,0-2.481-0.478-3.289-1.434c-0.807-0.956-1.21-2.178-1.21-3.669V150.3z
				 M73.178,150.5c0,1.063,0.224,1.94,0.673,2.631c0.448,0.692,1.114,1.038,1.999,1.038c0.872,0,1.534-0.346,1.985-1.038
				c0.451-0.691,0.677-1.569,0.677-2.631v-0.204c0-1.05-0.227-1.924-0.682-2.623c-0.454-0.698-1.121-1.047-1.999-1.047
				c-0.872,0-1.532,0.349-1.98,1.047c-0.449,0.698-0.673,1.572-0.673,2.623V150.5z"/>
			<path fill="#FFFFFF" d="M86.658,154.169c0.606,0,1.14-0.187,1.6-0.562c0.461-0.374,0.691-0.833,0.691-1.377h1.642l0.019,0.056
				c0.031,0.866-0.354,1.636-1.155,2.31c-0.801,0.674-1.734,1.011-2.797,1.011c-1.46,0-2.576-0.476-3.349-1.429
				c-0.773-0.953-1.16-2.149-1.16-3.59v-0.39c0-1.429,0.388-2.621,1.165-3.577c0.776-0.956,1.891-1.433,3.344-1.433
				c1.175,0,2.135,0.346,2.88,1.039c0.746,0.692,1.105,1.543,1.081,2.551l-0.019,0.056h-1.651c0-0.612-0.217-1.133-0.649-1.563
				c-0.433-0.43-0.98-0.645-1.642-0.645c-0.959,0-1.644,0.344-2.055,1.033c-0.411,0.689-0.617,1.534-0.617,2.535v0.389
				c0,1.025,0.204,1.879,0.612,2.562S85.693,154.169,86.658,154.169z"/>
			<path fill="#FFFFFF" d="M95.685,150.764h-1.188v4.648h-1.828v-14.473h1.828v8.387h1.169l2.746-3.952h2.189l-3.433,4.557
				l3.924,5.481h-2.152L95.685,150.764z"/>
		</g>
	</g>
</g>
<g id="ENTER_PB">
	<g>
		<path fill-rule="evenodd" clip-rule="evenodd" d="M801.334,67.766c-0.55,0-1,0.45-1,1v46.914c0,0.55,0.45,1,1,1h10.561
			c0.55,0,1,0.451,1,1v55.371c0,0.55,0.45,1,1,1h34.354c0.55,0,1-0.45,1-1V117.68c0-0.549,0-1.45,0-2v-10c0-0.55,0-1.45,0-2V68.766
			c0-0.55-0.45-1-1-1H801.334z"/>
	</g>
</g>
<g id="Đ_PB">
	<g>
		<path fill-rule="evenodd" clip-rule="evenodd" d="M792.221,115.68c0,0.55-0.45,1-1,1h-46.914c-0.55,0-1-0.45-1-1V68.766
			c0-0.55,0.45-1,1-1h46.914c0.55,0,1,0.45,1,1V115.68z"/>
	</g>
	<g>
		<path fill="#FFFFFF" d="M761.752,101.638v-8.417h-2.133v-1.968h2.133v-8.1h5.676c2.42,0,4.363,0.743,5.826,2.228
			c1.465,1.485,2.197,3.404,2.197,5.757v2.526c0,2.361-0.732,4.28-2.197,5.757c-1.463,1.477-3.406,2.215-5.826,2.215H761.752z
			 M767.758,93.221h-3.504v6.449h3.174c1.709,0,3.057-0.563,4.043-1.687s1.479-2.566,1.479-4.326v-2.549
			c0-1.742-0.492-3.175-1.479-4.3s-2.334-1.687-4.043-1.687h-3.174v6.132h3.504V93.221z"/>
	</g>
</g>
<g id="Š_PB">
	<g>
		<path fill-rule="evenodd" clip-rule="evenodd" d="M734.424,115.68c0,0.55-0.45,1-1,1H686.51c-0.55,0-1-0.45-1-1V68.766
			c0-0.55,0.45-1,1-1h46.914c0.55,0,1,0.45,1,1V115.68z"/>
	</g>
	<g>
		<path fill-rule="evenodd" clip-rule="evenodd" d="M734.424,115.68c0,0.55-0.45,1-1,1H686.51c-0.55,0-1-0.45-1-1V68.766
			c0-0.55,0.45-1,1-1h46.914c0.55,0,1,0.45,1,1V115.68z"/>
	</g>
	<g>
		<path fill="#FFFFFF" d="M714.291,96.983c0-0.841-0.316-1.546-0.951-2.114c-0.635-0.568-1.762-1.045-3.377-1.433
			c-1.955-0.467-3.48-1.154-4.576-2.062c-1.098-0.908-1.645-2.049-1.645-3.424c0-1.442,0.59-2.646,1.771-3.614
			c1.18-0.967,2.709-1.451,4.588-1.451c2.023,0,3.633,0.554,4.832,1.663c1.197,1.109,1.773,2.395,1.732,3.859l-0.025,0.076h-2.387
			c0-1.083-0.357-1.959-1.072-2.628c-0.717-0.668-1.742-1.003-3.08-1.003c-1.244,0-2.197,0.281-2.861,0.844
			c-0.666,0.563-0.998,1.297-0.998,2.203c0,0.804,0.359,1.475,1.08,2.012c0.719,0.538,1.887,1.009,3.504,1.416
			c1.945,0.482,3.428,1.193,4.443,2.133s1.523,2.103,1.523,3.491c0,1.49-0.609,2.687-1.828,3.593s-2.811,1.358-4.773,1.358
			c-1.846,0-3.477-0.501-4.895-1.504s-2.105-2.342-2.063-4.018l0.025-0.076h2.387c0,1.185,0.436,2.086,1.307,2.704
			c0.873,0.618,1.951,0.927,3.238,0.927c1.26,0,2.26-0.265,2.996-0.795C713.924,98.611,714.291,97.892,714.291,96.983z
			 M709.709,79.573l1.865-1.879h2.158v0.229l-3.262,3.11h-1.512l-3.225-3.085v-0.254h2.107L709.709,79.573z"/>
	</g>
</g>
<g id="P_PB">
	<g>
		<path fill-rule="evenodd" clip-rule="evenodd" d="M676.625,115.68c0,0.55-0.45,1-1,1h-46.914c-0.55,0-1-0.45-1-1V68.766
			c0-0.55,0.45-1,1-1h46.914c0.55,0,1,0.45,1,1V115.68z"/>
	</g>
	<g>
		<path fill="#FFFFFF" d="M648.713,94.224v7.414h-2.502V83.153h7.072c1.971,0,3.504,0.508,4.596,1.523s1.637,2.353,1.637,4.012
			c0,1.684-0.545,3.028-1.637,4.031s-2.625,1.504-4.596,1.504H648.713z M648.713,92.256h4.57c1.252,0,2.188-0.336,2.805-1.008
			c0.619-0.671,0.928-1.519,0.928-2.541c0-1.022-0.313-1.875-0.934-2.56c-0.623-0.685-1.555-1.026-2.799-1.026h-4.57V92.256z"/>
	</g>
</g>
<g id="O_PB">
	<g>
		<path fill-rule="evenodd" clip-rule="evenodd" d="M618.828,115.68c0,0.55-0.45,1-1,1h-46.914c-0.55,0-1-0.45-1-1V68.766
			c0-0.55,0.45-1,1-1h46.914c0.55,0,1,0.45,1,1V115.68z"/>
	</g>
	<g>
		<path fill="#FFFFFF" d="M601.875,94.046c0,2.26-0.701,4.134-2.102,5.624s-3.219,2.234-5.453,2.234
			c-2.158,0-3.912-0.745-5.262-2.234s-2.025-3.364-2.025-5.624v-3.288c0-2.251,0.676-4.126,2.025-5.624s3.104-2.247,5.262-2.247
			c2.234,0,4.053,0.747,5.453,2.241s2.102,3.371,2.102,5.63V94.046z M599.373,90.732c0-1.693-0.457-3.081-1.371-4.164
			s-2.141-1.625-3.682-1.625c-1.455,0-2.617,0.542-3.484,1.625s-1.301,2.471-1.301,4.164v3.313c0,1.709,0.434,3.106,1.301,4.189
			s2.029,1.625,3.484,1.625c1.549,0,2.779-0.54,3.689-1.619c0.908-1.079,1.363-2.478,1.363-4.196V90.732z"/>
	</g>
</g>
<g id="I_PB">
	<g>
		<path fill-rule="evenodd" clip-rule="evenodd" d="M561.029,115.68c0,0.55-0.45,1-1,1h-46.914c-0.55,0-1-0.45-1-1V68.766
			c0-0.55,0.45-1,1-1h46.914c0.55,0,1,0.45,1,1V115.68z"/>
	</g>
	<g>
		<path fill="#FFFFFF" d="M537.92,101.638h-2.514V83.153h2.514V101.638z"/>
	</g>
</g>
<g id="U_PB">
	<g>
		<path fill-rule="evenodd" clip-rule="evenodd" d="M503.23,115.68c0,0.55-0.45,1-1,1h-46.912c-0.55,0-1-0.45-1-1V68.766
			c0-0.55,0.45-1,1-1h46.912c0.55,0,1,0.45,1,1V115.68z"/>
	</g>
	<g>
		<path fill="#FFFFFF" d="M485.871,83.153v12.53c0,2.014-0.654,3.555-1.961,4.621c-1.309,1.066-3.016,1.6-5.123,1.6
			c-2.031,0-3.68-0.535-4.945-1.606c-1.264-1.071-1.896-2.609-1.896-4.615v-12.53h2.5v12.521c0,1.396,0.398,2.455,1.193,3.178
			c0.797,0.724,1.846,1.085,3.148,1.085c1.371,0,2.479-0.361,3.32-1.085c0.842-0.723,1.264-1.782,1.264-3.178V83.153H485.871z"/>
	</g>
</g>
<g id="Z_PB">
	<g>
		<path fill-rule="evenodd" clip-rule="evenodd" d="M445.434,115.68c0,0.55-0.45,1-1,1H397.52c-0.55,0-1-0.45-1-1V68.766
			c0-0.55,0.45-1,1-1h46.914c0.55,0,1,0.45,1,1V115.68z"/>
	</g>
	<g>
		<path fill="#FFFFFF" d="M417.354,99.67h10.334v1.968h-13.152v-1.866l9.877-14.65h-9.738v-1.968h12.594v1.79L417.354,99.67z"/>
	</g>
</g>
<g id="T_PB">
	<g>
		<path fill-rule="evenodd" clip-rule="evenodd" d="M387.635,115.68c0,0.55-0.45,1-1,1h-46.916c-0.55,0-1-0.45-1-1V68.766
			c0-0.55,0.45-1,1-1h46.916c0.55,0,1,0.45,1,1V115.68z"/>
	</g>
	<g>
		<path fill="#FFFFFF" d="M370.475,85.121h-5.941v16.517h-2.502V85.121h-5.928v-1.968h14.371V85.121z"/>
	</g>
</g>
<g id="R_PB">
	<g>
		<path fill-rule="evenodd" clip-rule="evenodd" d="M329.838,115.68c0,0.55-0.45,1-1,1h-46.914c-0.55,0-1-0.45-1-1V68.766
			c0-0.55,0.45-1,1-1h46.914c0.55,0,1,0.45,1,1V115.68z"/>
	</g>
	<g>
		<path fill="#FFFFFF" d="M301.666,93.627v8.011h-2.5V83.166h6.689c2.023,0,3.568,0.449,4.635,1.346s1.6,2.201,1.6,3.91
			c0,0.948-0.248,1.773-0.742,2.476c-0.496,0.703-1.217,1.261-2.166,1.676c1.016,0.33,1.746,0.865,2.191,1.606
			c0.443,0.741,0.666,1.657,0.666,2.749v1.739c0,0.576,0.063,1.092,0.189,1.549s0.348,0.83,0.66,1.117v0.305h-2.576
			c-0.33-0.288-0.543-0.711-0.635-1.27c-0.094-0.559-0.141-1.134-0.141-1.727v-1.688c0-0.999-0.291-1.803-0.875-2.412
			s-1.367-0.914-2.35-0.914H301.666z M301.666,91.659h3.936c1.414,0,2.432-0.269,3.055-0.805c0.621-0.536,0.932-1.354,0.932-2.452
			c0-1.039-0.303-1.844-0.906-2.414c-0.605-0.57-1.547-0.855-2.826-0.855h-4.189V91.659z"/>
	</g>
</g>
<g id="E_PB">
	<g>
		<path fill-rule="evenodd" clip-rule="evenodd" d="M272.039,115.68c0,0.55-0.45,1-1,1h-46.916c-0.55,0-1-0.45-1-1V68.766
			c0-0.55,0.45-1,1-1h46.916c0.55,0,1,0.45,1,1V115.68z"/>
	</g>
	<g>
		<path fill="#FFFFFF" d="M253.357,93.068h-8.469v6.602h9.764v1.968h-12.264V83.153h12.123v1.968h-9.623v5.979h8.469V93.068z"/>
	</g>
</g>
<g id="W_PB">
	<g>
		<path fill-rule="evenodd" clip-rule="evenodd" d="M214.242,115.68c0,0.55-0.45,1-1,1h-46.914c-0.55,0-1-0.45-1-1V68.766
			c0-0.55,0.45-1,1-1h46.914c0.55,0,1,0.45,1,1V115.68z"/>
	</g>
	<g>
		<path fill="#FFFFFF" d="M184.418,95.239l0.344,2.311l0.076,0.013l0.494-2.323l3.391-12.086h2.209l3.414,12.086l0.508,2.374h0.076
			l0.369-2.374l2.754-12.086h2.502l-4.457,18.484h-2.234l-3.643-12.822l-0.33-1.663h-0.076l-0.318,1.663l-3.707,12.822h-2.234
			l-4.443-18.484h2.488L184.418,95.239z"/>
	</g>
</g>
<g id="Q_PB">
	<g>
		<path fill-rule="evenodd" clip-rule="evenodd" d="M156.49,115.68c0,0.55-0.45,1-1,1h-46.915c-0.55,0-1-0.45-1-1V68.766
			c0-0.55,0.45-1,1-1h46.915c0.55,0,1,0.45,1,1V115.68z"/>
	</g>
	<g>
		<path fill="#FFFFFF" d="M139.531,94.046c0,1.202-0.211,2.315-0.635,3.339s-1.016,1.892-1.777,2.603l3.136,2.958l-1.714,1.638
			l-3.504-3.263c-0.474,0.195-0.967,0.34-1.479,0.438c-0.512,0.097-1.039,0.146-1.581,0.146c-2.158,0-3.912-0.745-5.262-2.234
			s-2.025-3.364-2.025-5.624v-3.288c0-2.251,0.675-4.126,2.025-5.624s3.104-2.247,5.262-2.247c2.234,0,4.052,0.747,5.453,2.241
			s2.101,3.371,2.101,5.63V94.046z M137.03,90.732c0-1.693-0.457-3.081-1.371-4.164s-2.141-1.625-3.682-1.625
			c-1.456,0-2.617,0.542-3.485,1.625s-1.301,2.471-1.301,4.164v3.313c0,1.709,0.434,3.106,1.301,4.189s2.029,1.625,3.485,1.625
			c1.549,0,2.778-0.54,3.688-1.619s1.365-2.478,1.365-4.196V90.732z"/>
	</g>
</g>
<g id="TAB_PB">
	<g>
		<path fill-rule="evenodd" clip-rule="evenodd" d="M99.405,115.68c0,0.55-0.45,1-1,1H13.374c-0.55,0-1-0.45-1-1V68.766
			c0-0.55,0.45-1,1-1h85.032c0.55,0,1,0.45,1,1V115.68z"/>
	</g>
	<g>
		<path fill-rule="evenodd" clip-rule="evenodd" d="M99.405,115.68c0,0.55-0.45,1-1,1H13.374c-0.55,0-1-0.45-1-1V68.766
			c0-0.55,0.45-1,1-1h85.032c0.55,0,1,0.45,1,1V115.68z"/>
	</g>
	<g>
		<path fill="#FFFFFF" d="M24.414,86.844v2.421h1.902v1.354h-1.902v6.095c0,0.47,0.097,0.801,0.292,0.993
			c0.194,0.191,0.453,0.288,0.774,0.288c0.105,0,0.221-0.012,0.348-0.037c0.127-0.025,0.24-0.056,0.339-0.093l0.241,1.252
			c-0.136,0.111-0.335,0.202-0.599,0.273c-0.263,0.071-0.527,0.107-0.793,0.107c-0.742,0-1.333-0.224-1.772-0.673
			c-0.439-0.448-0.659-1.152-0.659-2.11V90.62h-1.596v-1.354h1.596v-2.421H24.414z"/>
		<path fill="#FFFFFF" d="M34.74,99.304c-0.062-0.303-0.11-0.571-0.144-0.803c-0.034-0.232-0.055-0.465-0.061-0.7
			c-0.34,0.482-0.784,0.886-1.331,1.21c-0.548,0.325-1.137,0.487-1.768,0.487c-1.045,0-1.842-0.268-2.389-0.803
			c-0.548-0.535-0.821-1.272-0.821-2.212c0-0.959,0.388-1.708,1.164-2.25c0.776-0.541,1.829-0.812,3.159-0.812h1.985v-0.993
			c0-0.587-0.18-1.053-0.538-1.396c-0.359-0.343-0.866-0.515-1.521-0.515c-0.588,0-1.065,0.15-1.434,0.45
			c-0.368,0.3-0.552,0.66-0.552,1.081h-1.744l-0.019-0.056c-0.037-0.73,0.308-1.398,1.034-2.004
			c0.727-0.606,1.666-0.909,2.816-0.909c1.138,0,2.053,0.289,2.746,0.867c0.692,0.579,1.039,1.412,1.039,2.5v4.833
			c0,0.358,0.019,0.705,0.056,1.039s0.105,0.662,0.204,0.983H34.74z M31.706,97.958c0.662,0,1.258-0.169,1.791-0.509
			c0.532-0.339,0.878-0.728,1.039-1.166v-1.628h-2.05c-0.736,0-1.325,0.185-1.767,0.555c-0.442,0.37-0.664,0.805-0.664,1.304
			c0,0.444,0.139,0.795,0.417,1.055S31.162,97.958,31.706,97.958z"/>
		<path fill="#FFFFFF" d="M47.589,94.665c0,1.447-0.348,2.615-1.043,3.502c-0.696,0.888-1.653,1.332-2.872,1.332
			c-0.662,0-1.237-0.128-1.726-0.385c-0.489-0.256-0.894-0.635-1.215-1.136l-0.223,1.327h-1.494V84.831h1.828v5.622
			c0.315-0.445,0.707-0.786,1.174-1.021c0.467-0.235,1.012-0.353,1.637-0.353c1.237,0,2.202,0.495,2.895,1.484
			c0.692,0.989,1.039,2.292,1.039,3.906V94.665z M45.761,94.47c0-1.15-0.212-2.089-0.636-2.816c-0.423-0.727-1.068-1.09-1.934-1.09
			c-0.563,0-1.038,0.138-1.424,0.413c-0.386,0.275-0.694,0.645-0.923,1.109v4.351c0.235,0.495,0.543,0.881,0.923,1.16
			c0.381,0.278,0.861,0.417,1.443,0.417c0.859,0,1.5-0.306,1.92-0.918c0.42-0.612,0.631-1.423,0.631-2.431V94.47z"/>
	</g>
</g>
<g id="BACK_PB">
	<g>
		<path fill-rule="evenodd" clip-rule="evenodd" d="M849.248,58.348c0,0.55-0.45,1-1,1h-84.441c-0.55,0-1-0.45-1-1V11.43
			c0-0.55,0.45-1,1-1h84.441c0.55,0,1,0.45,1,1V58.348z"/>
	</g>
	<g>
		<rect x="819.317" y="33.958" fill="#FFFFFF" width="18.581" height="2"/>
		<g>
			<polygon fill="#FFFFFF" points="825.944,26.778 827.309,28.243 820.085,34.956 827.309,41.671 825.944,43.136 817.148,34.956 			
				"/>
		</g>
	</g>
</g>
<g id="_x2B__x2A__PB">
	<g>
		<path fill-rule="evenodd" clip-rule="evenodd" d="M755.023,58.348c0,0.55-0.45,1-1,1h-46.914c-0.55,0-1-0.45-1-1V11.43
			c0-0.55,0.45-1,1-1h46.914c0.55,0,1,0.45,1,1V58.348z"/>
	</g>
	<g>
		<path fill="#FFFFFF" d="M739.555,43.632h4.287v1.912h-4.287v4.931h-2.115v-4.931h-4.318v-1.912h4.318v-4.544h2.115V43.632z"/>
	</g>
	<g>
		<path fill="#FFFFFF" d="M720.877,22.502l-3.18-0.956l0.525-1.654l3.18,1.192l-0.107-3.674h1.73l-0.107,3.738l3.146-1.182
			l0.516,1.676l-3.244,0.956l2.074,2.9l-1.408,1.031l-1.943-3.083l-1.891,2.997l-1.418-0.999L720.877,22.502z"/>
	</g>
</g>
<g id="_x27__x3F__PB">
	<g>
		<path fill-rule="evenodd" clip-rule="evenodd" d="M697.227,58.348c0,0.55-0.45,1-1,1h-46.914c-0.55,0-1-0.45-1-1V11.43
			c0-0.55,0.45-1,1-1h46.914c0.55,0,1,0.45,1,1V58.348z"/>
	</g>
	<g>
		<path fill="#FFFFFF" d="M679.344,40.109l1.719-3.824h1.041l-0.645,3.889v1.912h-2.115V40.109z"/>
	</g>
	<g>
		<path fill="#FFFFFF" d="M663.932,28.646c0.006-1.038,0.096-1.758,0.268-2.159c0.172-0.401,0.623-0.931,1.354-1.59
			c0.709-0.838,1.215-1.482,1.516-1.934s0.451-0.995,0.451-1.633c0-0.759-0.203-1.343-0.607-1.751s-0.982-0.612-1.734-0.612
			c-0.652,0-1.207,0.178-1.666,0.532c-0.457,0.354-0.688,0.875-0.688,1.563h-2.02l-0.031-0.064
			c-0.021-1.153,0.385-2.077,1.219-2.771c0.834-0.694,1.896-1.042,3.186-1.042c1.41,0,2.506,0.36,3.287,1.08
			c0.779,0.72,1.17,1.724,1.17,3.013c0,0.924-0.252,1.769-0.758,2.535c-0.504,0.767-1.172,1.551-2.002,2.353
			c-0.387,0.387-0.621,0.734-0.705,1.042c-0.082,0.308-0.123,0.788-0.123,1.439H663.932z M666.123,33.051h-2.213v-2.234h2.213
			V33.051z"/>
	</g>
</g>
<g id="_x30__x3D__PB">
	<g>
		<path fill-rule="evenodd" clip-rule="evenodd" d="M639.428,58.348c0,0.55-0.45,1-1,1h-46.914c-0.55,0-1-0.45-1-1V11.43
			c0-0.55,0.45-1,1-1h46.914c0.55,0,1,0.45,1,1V58.348z"/>
	</g>
	<g>
		<path fill="#FFFFFF" d="M627.912,46.081c0,1.998-0.443,3.529-1.326,4.593c-0.885,1.063-2.098,1.595-3.637,1.595
			c-1.541,0-2.758-0.533-3.652-1.601c-0.896-1.067-1.344-2.596-1.344-4.587v-3.706c0-1.991,0.447-3.521,1.338-4.592
			c0.893-1.071,2.104-1.606,3.637-1.606c1.539,0,2.756,0.536,3.646,1.606c0.893,1.07,1.338,2.601,1.338,4.592V46.081z
			 M625.795,41.921c0-1.353-0.244-2.37-0.734-3.054c-0.492-0.684-1.203-1.025-2.133-1.025c-0.932,0-1.641,0.342-2.127,1.025
			c-0.488,0.684-0.73,1.701-0.73,3.054v4.583c0,1.352,0.246,2.374,0.74,3.064c0.494,0.691,1.207,1.036,2.139,1.036
			c0.93,0,1.639-0.343,2.121-1.03c0.484-0.687,0.725-1.71,0.725-3.069V41.921z"/>
	</g>
	<g>
		<path fill="#FFFFFF" d="M612.957,22.21h-8.959v-1.783h8.959V22.21z M612.957,26.7h-8.959v-1.783h8.959V26.7z"/>
	</g>
</g>
<g id="_x39__x29__PB">
	<g>
		<path fill-rule="evenodd" clip-rule="evenodd" d="M581.629,58.348c0,0.55-0.45,1-1,1h-46.914c-0.55,0-1-0.45-1-1V11.43
			c0-0.55,0.45-1,1-1h46.914c0.55,0,1,0.45,1,1V58.348z"/>
	</g>
	<g>
		<path fill="#FFFFFF" d="M564.439,50.604c1.031,0,1.857-0.389,2.477-1.167c0.619-0.779,0.93-1.937,0.93-3.474v-0.709
			c-0.352,0.509-0.789,0.894-1.316,1.155c-0.525,0.261-1.111,0.392-1.756,0.392c-1.512,0-2.711-0.467-3.6-1.401
			c-0.887-0.935-1.332-2.222-1.332-3.862c0-1.568,0.471-2.854,1.414-3.856c0.941-1.002,2.084-1.504,3.432-1.504
			c1.633,0,2.92,0.511,3.861,1.531s1.412,2.522,1.412,4.506v3.728c0,2.041-0.51,3.606-1.529,4.694
			c-1.021,1.089-2.352,1.633-3.992,1.633c-0.551,0-1.111-0.052-1.68-0.156c-0.57-0.104-1.08-0.265-1.531-0.481l0.322-1.629
			c0.422,0.222,0.861,0.378,1.316,0.468C563.32,50.559,563.846,50.604,564.439,50.604z M564.773,45.136
			c0.779,0,1.43-0.168,1.949-0.504s0.893-0.765,1.123-1.287v-1.352c0-1.366-0.264-2.399-0.789-3.1
			c-0.527-0.701-1.295-1.052-2.305-1.052c-0.773,0-1.434,0.345-1.977,1.035c-0.545,0.69-0.816,1.575-0.816,2.655
			c0,1.072,0.252,1.941,0.758,2.606C563.221,44.804,563.906,45.136,564.773,45.136z"/>
	</g>
	<g>
		<path fill="#FFFFFF" d="M551.906,26.799c0,2.829-0.57,5.241-1.713,7.235c-1.143,1.994-2.336,3.324-3.582,3.99h-0.064l-0.408-1.16
			c0.967-0.752,1.816-1.989,2.551-3.711c0.734-1.723,1.102-3.833,1.102-6.333v-0.14c0-2.449-0.379-4.538-1.133-6.268
			c-0.756-1.729-1.596-2.988-2.52-3.776l0.408-1.16h0.064c1.246,0.666,2.439,1.998,3.582,3.996s1.713,4.408,1.713,7.229V26.799z"/>
	</g>
</g>
<g id="_x38__x28__PB">
	<g>
		<path fill-rule="evenodd" clip-rule="evenodd" d="M523.832,58.348c0,0.55-0.45,1-1,1h-46.914c-0.55,0-1-0.45-1-1V11.43
			c0-0.55,0.45-1,1-1h46.914c0.55,0,1,0.45,1,1V58.348z"/>
	</g>
	<g>
		<path fill="#FFFFFF" d="M512.008,40.484c0,0.816-0.23,1.531-0.688,2.144c-0.459,0.612-1.078,1.068-1.859,1.369
			c0.902,0.315,1.625,0.81,2.166,1.482c0.539,0.673,0.811,1.45,0.811,2.331c0,1.447-0.471,2.552-1.412,3.314
			c-0.943,0.763-2.166,1.144-3.67,1.144c-1.531,0-2.766-0.381-3.699-1.144c-0.936-0.763-1.402-1.868-1.402-3.314
			c0-0.881,0.264-1.658,0.795-2.331c0.529-0.673,1.246-1.167,2.148-1.482c-0.781-0.301-1.393-0.757-1.838-1.369
			c-0.443-0.612-0.666-1.327-0.666-2.144c0-1.375,0.426-2.437,1.273-3.185c0.85-0.749,1.971-1.123,3.367-1.123
			c1.375,0,2.498,0.375,3.369,1.123C511.572,38.048,512.008,39.109,512.008,40.484z M510.332,47.762c0-0.858-0.283-1.562-0.85-2.112
			c-0.564-0.551-1.281-0.826-2.148-0.826c-0.881,0-1.594,0.275-2.143,0.826c-0.547,0.55-0.822,1.254-0.822,2.112
			c0,0.887,0.273,1.582,0.816,2.085c0.545,0.504,1.268,0.756,2.17,0.756c0.881,0,1.598-0.253,2.148-0.761
			C510.057,49.335,510.332,48.642,510.332,47.762z M509.891,40.527c0-0.773-0.24-1.414-0.725-1.923
			c-0.482-0.508-1.094-0.763-1.832-0.763c-0.752,0-1.359,0.246-1.826,0.736c-0.465,0.49-0.697,1.14-0.697,1.949
			c0,0.795,0.234,1.433,0.703,1.912c0.469,0.48,1.084,0.72,1.842,0.72c0.746,0,1.354-0.24,1.826-0.72
			C509.654,41.96,509.891,41.322,509.891,40.527z"/>
	</g>
	<g>
		<path fill="#FFFFFF" d="M485.74,26.702c0-2.821,0.57-5.231,1.709-7.229s2.334-3.33,3.588-3.996l0.064,0.011l0.408,1.246
			c-0.982,0.767-1.836,1.995-2.563,3.685c-0.727,1.69-1.09,3.778-1.09,6.263v0.14c0,2.485,0.361,4.573,1.084,6.263
			c0.725,1.69,1.58,2.951,2.568,3.781l-0.408,1.16h-0.064c-1.254-0.666-2.449-1.996-3.588-3.99
			c-1.139-1.995-1.709-4.406-1.709-7.235V26.702z"/>
	</g>
</g>
<g id="_x37__x2F__PB">
	<g>
		<path fill-rule="evenodd" clip-rule="evenodd" d="M466.033,58.348c0,0.55-0.45,1-1,1h-46.914c-0.55,0-1-0.45-1-1V11.43
			c0-0.55,0.45-1,1-1h46.914c0.55,0,1,0.45,1,1V58.348z"/>
	</g>
	<g>
		<path fill="#FFFFFF" d="M454.773,38.067c-1.891,2.249-3.168,4.242-3.83,5.979c-0.662,1.736-1.141,3.84-1.434,6.311l-0.172,1.687
			h-2.117l0.172-1.687c0.301-2.463,0.885-4.666,1.752-6.606c0.865-1.94,2.051-3.835,3.555-5.683h-8.508v-1.665h10.582V38.067z"/>
	</g>
	<g>
		<path fill="#FFFFFF" d="M429.59,34.394h-1.805l6.531-16.983h1.793L429.59,34.394z"/>
	</g>
</g>
<g id="_x36__x26__PB">
	<g>
		<path fill-rule="evenodd" clip-rule="evenodd" d="M408.236,58.348c0,0.55-0.45,1-1,1h-46.914c-0.55,0-1-0.45-1-1V11.43
			c0-0.55,0.45-1,1-1h46.914c0.55,0,1,0.45,1,1V58.348z"/>
	</g>
	<g>
		<path fill="#FFFFFF" d="M392.82,36.177c0.537,0,1.07,0.061,1.596,0.183c0.527,0.122,0.961,0.276,1.305,0.462l-0.451,1.622
			c-0.35-0.179-0.717-0.324-1.1-0.435c-0.385-0.111-0.834-0.167-1.35-0.167c-1.117,0-2.018,0.448-2.701,1.343
			c-0.684,0.896-1.025,2.063-1.025,3.502v0.247c0.457-0.401,0.982-0.714,1.574-0.939c0.59-0.226,1.225-0.339,1.906-0.339
			c1.396,0,2.51,0.483,3.34,1.45c0.832,0.967,1.246,2.191,1.246,3.674c0,1.619-0.441,2.938-1.326,3.959s-2.064,1.53-3.539,1.53
			c-1.533,0-2.801-0.555-3.803-1.665c-1.004-1.11-1.504-2.675-1.504-4.694v-2.986c0-2.005,0.559-3.631,1.676-4.877
			S391.166,36.177,392.82,36.177z M392.102,43.234c-0.725,0-1.34,0.147-1.848,0.44c-0.51,0.293-0.896,0.683-1.16,1.169v1.266
			c0,1.438,0.305,2.546,0.912,3.325c0.609,0.779,1.371,1.169,2.289,1.169c0.865,0,1.541-0.366,2.025-1.099
			c0.482-0.733,0.725-1.643,0.725-2.73c0-1.03-0.26-1.877-0.779-2.542S393.025,43.234,392.102,43.234z"/>
	</g>
	<g>
		<path fill="#FFFFFF" d="M368.217,28.84c0-0.874,0.252-1.638,0.758-2.293c0.504-0.655,1.258-1.313,2.262-1.972
			c-0.559-0.709-0.975-1.341-1.246-1.896c-0.273-0.555-0.408-1.126-0.408-1.714c0-1.21,0.348-2.143,1.047-2.798
			c0.697-0.655,1.66-0.983,2.885-0.983c1.131,0,2.051,0.326,2.76,0.978c0.709,0.652,1.064,1.436,1.064,2.353
			c0,0.702-0.189,1.309-0.564,1.821c-0.377,0.512-0.934,1.036-1.67,1.573l-1.172,0.859l3.652,4.394
			c0.295-0.465,0.523-0.981,0.688-1.547c0.166-0.565,0.248-1.164,0.248-1.794h1.891c0,0.945-0.141,1.819-0.42,2.621
			c-0.279,0.802-0.684,1.522-1.213,2.159l1.986,2.396l-0.021,0.054h-2.459l-0.914-1.096c-0.572,0.43-1.207,0.758-1.9,0.983
			c-0.695,0.226-1.414,0.338-2.16,0.338c-1.553,0-2.791-0.412-3.711-1.235C368.678,31.218,368.217,30.15,368.217,28.84z
			 M373.309,31.611c0.516,0,1.025-0.087,1.525-0.263c0.502-0.175,0.975-0.427,1.418-0.756l-3.877-4.664l-0.43,0.311
			c-0.652,0.486-1.084,0.951-1.295,1.394s-0.316,0.843-0.316,1.201c0,0.808,0.254,1.473,0.762,1.995
			C371.605,31.351,372.342,31.611,373.309,31.611z M371.697,20.944c0,0.38,0.098,0.775,0.291,1.188
			c0.193,0.412,0.482,0.861,0.869,1.348l1.482-1.021c0.408-0.272,0.686-0.567,0.832-0.886c0.148-0.319,0.221-0.672,0.221-1.059
			c0-0.437-0.174-0.823-0.521-1.16c-0.346-0.336-0.799-0.505-1.357-0.505c-0.58,0-1.027,0.203-1.344,0.607
			C371.855,19.861,371.697,20.357,371.697,20.944z"/>
	</g>
</g>
<g id="_x35__x25__PB">
	<g>
		<path fill-rule="evenodd" clip-rule="evenodd" d="M350.438,58.348c0,0.55-0.45,1-1,1h-46.914c-0.55,0-1-0.45-1-1V11.43
			c0-0.55,0.45-1,1-1h46.914c0.55,0,1,0.45,1,1V58.348z"/>
	</g>
	<g>
		<path fill="#FFFFFF" d="M329.658,44.985l0.902-8.583h7.832v1.88h-6.037l-0.516,4.394c0.328-0.243,0.695-0.445,1.102-0.606
			c0.404-0.161,0.871-0.249,1.4-0.264c1.439-0.014,2.574,0.455,3.4,1.407c0.828,0.953,1.24,2.234,1.24,3.846
			c0,1.568-0.42,2.829-1.262,3.781c-0.842,0.953-2.068,1.429-3.68,1.429c-1.324,0-2.428-0.361-3.309-1.085
			c-0.881-0.723-1.303-1.787-1.268-3.19l0.021-0.064h1.912c0,0.849,0.246,1.507,0.736,1.974c0.49,0.467,1.127,0.701,1.906,0.701
			c0.896,0,1.59-0.314,2.084-0.943c0.494-0.629,0.742-1.491,0.742-2.585c0-1.001-0.252-1.824-0.752-2.467
			c-0.502-0.644-1.193-0.966-2.074-0.966c-0.83,0-1.432,0.125-1.805,0.376c-0.371,0.251-0.645,0.634-0.816,1.149L329.658,44.985z"/>
	</g>
	<g>
		<path fill="#FFFFFF" d="M309.662,20.418c0-0.909,0.295-1.676,0.881-2.299c0.588-0.623,1.371-0.935,2.354-0.935
			c0.98,0,1.766,0.31,2.352,0.93c0.588,0.619,0.881,1.387,0.881,2.304v0.827c0,0.91-0.291,1.672-0.875,2.288
			c-0.584,0.616-1.363,0.924-2.336,0.924c-0.988,0-1.779-0.308-2.369-0.924c-0.592-0.616-0.887-1.378-0.887-2.288V20.418z
			 M311.23,21.245c0,0.53,0.145,0.979,0.436,1.349c0.289,0.369,0.707,0.553,1.252,0.553c0.521,0,0.928-0.183,1.213-0.548
			c0.287-0.365,0.43-0.816,0.43-1.354v-0.827c0-0.53-0.145-0.982-0.436-1.358c-0.289-0.376-0.699-0.564-1.229-0.564
			c-0.537,0-0.949,0.188-1.236,0.564c-0.285,0.376-0.43,0.829-0.43,1.358V21.245z M313.465,31.869l-1.17-0.72l7.637-12.225
			l1.172,0.72L313.465,31.869z M317.236,29.216c0-0.909,0.293-1.674,0.881-2.293c0.586-0.62,1.371-0.93,2.352-0.93
			c0.975,0,1.756,0.31,2.348,0.93c0.59,0.619,0.887,1.384,0.887,2.293v0.838c0,0.917-0.295,1.683-0.881,2.299
			c-0.588,0.616-1.365,0.924-2.332,0.924c-0.988,0-1.777-0.308-2.369-0.924c-0.59-0.616-0.885-1.382-0.885-2.299V29.216z
			 M318.805,30.054c0,0.537,0.145,0.99,0.434,1.359c0.291,0.369,0.709,0.553,1.252,0.553c0.523,0,0.928-0.184,1.215-0.553
			c0.285-0.369,0.43-0.822,0.43-1.359v-0.838c0-0.53-0.146-0.981-0.441-1.354c-0.293-0.372-0.701-0.559-1.225-0.559
			c-0.529,0-0.939,0.187-1.23,0.559c-0.289,0.373-0.434,0.824-0.434,1.354V30.054z"/>
	</g>
</g>
<g id="_x34__x24__PB">
	<g>
		<path fill-rule="evenodd" clip-rule="evenodd" d="M292.641,58.348c0,0.55-0.45,1-1,1h-46.916c-0.55,0-1-0.45-1-1V11.43
			c0-0.55,0.45-1,1-1h46.916c0.55,0,1,0.45,1,1V58.348z"/>
	</g>
	<g>
		<path fill="#FFFFFF" d="M279.707,46.779h2.16v1.665h-2.16v3.599h-2.105v-3.599h-7.025v-1.193l6.896-10.849h2.234V46.779z
			 M272.832,46.779h4.77v-7.337l-0.064-0.011l-0.203,0.537L272.832,46.779z"/>
	</g>
	<g>
		<path fill="#FFFFFF" d="M261.715,29.012c0-0.637-0.229-1.185-0.688-1.644c-0.457-0.458-1.209-0.866-2.256-1.225
			c-1.445-0.437-2.539-1.021-3.275-1.751c-0.738-0.73-1.107-1.704-1.107-2.922c0-1.182,0.338-2.145,1.016-2.89
			c0.676-0.745,1.609-1.192,2.799-1.343v-2.374h1.697v2.385c1.203,0.172,2.135,0.686,2.797,1.542
			c0.664,0.855,0.994,2.003,0.994,3.442h-2.105c0-0.974-0.225-1.762-0.676-2.363s-1.078-0.902-1.881-0.902
			c-0.844,0-1.477,0.221-1.896,0.661c-0.418,0.44-0.627,1.043-0.627,1.81c0,0.695,0.217,1.257,0.648,1.687
			c0.434,0.43,1.217,0.838,2.348,1.225c1.469,0.473,2.557,1.062,3.266,1.768c0.709,0.705,1.064,1.663,1.064,2.873
			c0,1.232-0.369,2.211-1.107,2.938c-0.736,0.727-1.75,1.158-3.039,1.294v2.063h-1.688v-2.052c-1.23-0.129-2.24-0.578-3.029-1.348
			c-0.787-0.77-1.166-1.9-1.139-3.39l0.021-0.054h2.041c0,1.103,0.277,1.889,0.832,2.358c0.557,0.469,1.238,0.703,2.047,0.703
			c0.924,0,1.646-0.22,2.164-0.66C261.455,30.403,261.715,29.792,261.715,29.012z"/>
	</g>
</g>
<g id="_x33__x23__PB">
	<g>
		<path fill-rule="evenodd" clip-rule="evenodd" d="M234.842,58.348c0,0.55-0.45,1-1,1h-46.914c-0.55,0-1-0.45-1-1V11.43
			c0-0.55,0.45-1,1-1h46.914c0.55,0,1,0.45,1,1V58.348z"/>
	</g>
	<g>
		<path fill="#FFFFFF" d="M216.361,43.245h1.848c0.938,0,1.602-0.234,1.992-0.703c0.391-0.469,0.586-1.123,0.586-1.961
			c0-0.895-0.223-1.575-0.666-2.041c-0.445-0.465-1.1-0.698-1.967-0.698c-0.822,0-1.484,0.242-1.98,0.726
			c-0.498,0.483-0.748,1.126-0.748,1.928h-2.029l-0.021-0.064c-0.037-1.182,0.393-2.186,1.283-3.013
			c0.893-0.827,2.057-1.241,3.496-1.241c1.447,0,2.6,0.385,3.459,1.155c0.859,0.77,1.289,1.867,1.289,3.292
			c0,0.645-0.195,1.288-0.584,1.929c-0.391,0.641-0.977,1.129-1.758,1.466c0.939,0.308,1.604,0.792,1.994,1.45
			c0.389,0.659,0.584,1.396,0.584,2.213c0,1.425-0.467,2.546-1.4,3.362c-0.936,0.816-2.129,1.225-3.584,1.225
			c-1.424,0-2.604-0.385-3.539-1.154c-0.934-0.77-1.385-1.814-1.348-3.132l0.031-0.064h2.02c0,0.821,0.254,1.473,0.758,1.958
			c0.506,0.485,1.197,0.727,2.078,0.727c0.896,0,1.598-0.242,2.105-0.728c0.51-0.485,0.764-1.202,0.764-2.151
			c0-0.963-0.227-1.673-0.678-2.13s-1.164-0.685-2.137-0.685h-1.848V43.245z"/>
	</g>
	<g>
		<path fill="#FFFFFF" d="M202.801,28.646h-2.74l-0.859,4.404h-1.621l0.859-4.404h-2.535v-1.504h2.836l0.73-3.76h-2.75v-1.504h3.051
			l0.881-4.469h1.621l-0.881,4.469h2.74l0.881-4.469h1.621l-0.881,4.469h2.139v1.504h-2.428l-0.73,3.76h2.352v1.504h-2.652
			l-0.859,4.404h-1.633L202.801,28.646z M200.361,27.143h2.74l0.73-3.76h-2.74L200.361,27.143z"/>
	</g>
</g>
<g id="_x32__x22__PB">
	<g>
		<path fill-rule="evenodd" clip-rule="evenodd" d="M177.045,58.348c0,0.55-0.45,1-1,1h-46.917c-0.55,0-1-0.45-1-1V11.43
			c0-0.55,0.45-1,1-1h46.917c0.55,0,1,0.45,1,1V58.348z"/>
	</g>
	<g>
		<path fill="#FFFFFF" d="M165.811,52.043h-10.142v-1.459l5.124-5.684c0.918-1.024,1.539-1.837,1.865-2.438
			c0.324-0.602,0.488-1.217,0.488-1.848c0-0.78-0.229-1.438-0.682-1.971c-0.455-0.534-1.059-0.801-1.811-0.801
			c-1.082,0-1.879,0.278-2.391,0.833c-0.513,0.555-0.769,1.333-0.769,2.336h-2.03l-0.021-0.064
			c-0.036-1.346,0.412-2.478,1.343-3.395c0.931-0.917,2.22-1.375,3.868-1.375c1.402,0,2.521,0.41,3.357,1.23
			c0.834,0.82,1.25,1.863,1.25,3.131c0,0.853-0.252,1.707-0.756,2.563c-0.506,0.855-1.213,1.774-2.123,2.755l-4.114,4.469
			l0.021,0.053h7.521V52.043z"/>
	</g>
	<g>
		<path fill="#FFFFFF" d="M141.078,22.117l1.719-3.824h1.042l-0.645,3.889v1.912h-2.116V22.117z M144.612,22.117l1.719-3.824h1.042
			l-0.645,3.889v1.912h-2.116V22.117z"/>
	</g>
</g>
<g id="_x31__x21__PB">
	<g>
		<path fill-rule="evenodd" clip-rule="evenodd" d="M119.246,58.348c0,0.55-0.45,1-1,1H71.332c-0.55,0-1-0.45-1-1V11.43
			c0-0.55,0.45-1,1-1h46.915c0.55,0,1,0.45,1,1V58.348z"/>
	</g>
	<g>
		<path fill="#FFFFFF" d="M105.921,51.091h-2.501V35.044l-3.783,0.051v-1.803l6.284-0.686V51.091z"/>
	</g>
	<g>
		<g>
			<path fill="#FFFFFF" d="M86.713,28.332h-2.116V17.826h2.116V28.332z M86.724,33.467h-2.127v-2.191h2.127V33.467z"/>
		</g>
	</g>
</g>
<g id="_xB8_PB">
	<g>
		<path fill-rule="evenodd" clip-rule="evenodd" d="M61.289,58.348c0,0.55-0.45,1-1,1H13.374c-0.55,0-1-0.45-1-1V11.43
			c0-0.55,0.45-1,1-1h46.916c0.55,0,1,0.45,1,1V58.348z"/>
	</g>
	<g>
		<path fill="#FFFFFF" d="M37.321,44.091l-0.152,0.66c0.55,0.093,1.007,0.313,1.371,0.66c0.364,0.347,0.546,0.859,0.546,1.536
			c0,0.813-0.334,1.46-1.003,1.942s-1.625,0.724-2.869,0.724l-0.089-1.384c0.609,0,1.1-0.104,1.473-0.311
			c0.373-0.208,0.559-0.519,0.559-0.933c0-0.406-0.152-0.69-0.457-0.851c-0.305-0.161-0.825-0.271-1.562-0.33l0.406-1.714H37.321z"
			/>
	</g>
</g>
<g id="CTRL_x5F_D">
	<g>
		<path fill-rule="evenodd" clip-rule="evenodd" fill="#FFFFFF" d="M849.248,288.142c0,0.55-0.45,1-1,1h-85.031c-0.55,0-1-0.45-1-1
			v-46.916c0-0.55,0.45-1,1-1h85.031c0.55,0,1,0.45,1,1V288.142z"/>
	</g>
	<g>
		<path d="M815.395,268.018c0.605,0,1.139-0.187,1.6-0.562c0.461-0.374,0.691-0.833,0.691-1.377h1.643l0.02,0.056
			c0.029,0.866-0.355,1.636-1.156,2.31s-1.732,1.011-2.797,1.011c-1.459,0-2.576-0.477-3.35-1.429
			c-0.773-0.953-1.158-2.149-1.158-3.59v-0.39c0-1.429,0.387-2.621,1.164-3.577c0.775-0.956,1.891-1.433,3.344-1.433
			c1.176,0,2.135,0.346,2.881,1.039c0.744,0.693,1.105,1.543,1.08,2.551l-0.018,0.056h-1.652c0-0.612-0.217-1.133-0.648-1.563
			c-0.434-0.43-0.98-0.645-1.643-0.645c-0.959,0-1.645,0.344-2.055,1.033c-0.412,0.688-0.617,1.533-0.617,2.534v0.389
			c0,1.025,0.205,1.879,0.613,2.562S814.43,268.018,815.395,268.018z"/>
		<path d="M823.809,256.802v2.421h1.902v1.354h-1.902v6.095c0,0.47,0.098,0.801,0.293,0.993c0.193,0.192,0.453,0.288,0.773,0.288
			c0.105,0,0.221-0.013,0.348-0.037c0.127-0.025,0.24-0.056,0.34-0.093l0.24,1.252c-0.135,0.111-0.336,0.203-0.598,0.273
			c-0.264,0.071-0.527,0.107-0.793,0.107c-0.742,0-1.334-0.224-1.771-0.673c-0.439-0.448-0.66-1.152-0.66-2.11v-6.095h-1.596v-1.354
			h1.596v-2.421H823.809z"/>
		<path d="M832.715,260.837l-0.938-0.056c-0.482,0-0.889,0.114-1.219,0.343c-0.332,0.229-0.586,0.55-0.766,0.965v7.171h-1.828
			v-10.038h1.633l0.176,1.466c0.285-0.52,0.637-0.925,1.053-1.215c0.418-0.291,0.898-0.436,1.443-0.436
			c0.137,0,0.266,0.011,0.391,0.032c0.123,0.022,0.225,0.045,0.305,0.07L832.715,260.837z"/>
		<path d="M836.453,269.261h-1.828v-14.473h1.828V269.261z"/>
	</g>
</g>
<g id="PRESLEDNICA">
	<g>
		<path fill-rule="evenodd" clip-rule="evenodd" fill="#FFFFFF" d="M533.336,287.44c0,0.55-0.45,1-1,1H254.76c-0.55,0-1-0.45-1-1
			v-46.916c0-0.55,0.45-1,1-1h277.576c0.55,0,1,0.45,1,1V287.44z"/>
	</g>
</g>
<g id="CTRL_x5F_L">
	<g>
		<path fill-rule="evenodd" clip-rule="evenodd" fill="#FFFFFF" d="M99.405,288.142c0,0.55-0.45,1-1,1H13.374c-0.55,0-1-0.45-1-1
			v-46.916c0-0.55,0.45-1,1-1h85.032c0.55,0,1,0.45,1,1V288.142z"/>
	</g>
	<g>
		<path d="M26.084,269.018c0.606,0,1.14-0.187,1.6-0.562c0.461-0.374,0.691-0.833,0.691-1.377h1.642l0.019,0.056
			c0.031,0.866-0.354,1.636-1.155,2.31c-0.801,0.674-1.734,1.011-2.797,1.011c-1.46,0-2.576-0.477-3.349-1.429
			c-0.773-0.953-1.16-2.149-1.16-3.59v-0.39c0-1.429,0.388-2.621,1.165-3.577c0.776-0.956,1.891-1.433,3.344-1.433
			c1.175,0,2.135,0.346,2.88,1.039c0.746,0.693,1.105,1.543,1.081,2.551l-0.019,0.056h-1.651c0-0.612-0.217-1.133-0.649-1.563
			c-0.433-0.43-0.98-0.645-1.642-0.645c-0.959,0-1.644,0.344-2.055,1.033c-0.411,0.688-0.617,1.533-0.617,2.534v0.389
			c0,1.025,0.204,1.879,0.612,2.562S25.119,269.018,26.084,269.018z"/>
		<path d="M34.499,257.802v2.421H36.4v1.354h-1.902v6.095c0,0.47,0.097,0.801,0.292,0.993c0.194,0.192,0.453,0.288,0.774,0.288
			c0.105,0,0.221-0.013,0.348-0.037c0.127-0.025,0.24-0.056,0.339-0.093l0.241,1.252c-0.136,0.111-0.335,0.203-0.599,0.273
			c-0.263,0.071-0.527,0.107-0.793,0.107c-0.742,0-1.333-0.224-1.772-0.673c-0.439-0.448-0.659-1.152-0.659-2.11v-6.095h-1.596
			v-1.354h1.596v-2.421H34.499z"/>
		<path d="M43.405,261.837l-0.937-0.056c-0.482,0-0.889,0.114-1.22,0.343c-0.331,0.229-0.586,0.55-0.766,0.965v7.171h-1.828v-10.038
			h1.633l0.176,1.466c0.284-0.52,0.636-0.925,1.053-1.215c0.418-0.291,0.898-0.436,1.443-0.436c0.136,0,0.266,0.011,0.39,0.032
			c0.124,0.022,0.226,0.045,0.306,0.07L43.405,261.837z"/>
		<path d="M47.144,270.261h-1.828v-14.473h1.828V270.261z"/>
	</g>
</g>
<g id="SHIFT_x5F_D">
	<g>
		<path fill-rule="evenodd" clip-rule="evenodd" fill="#FFFFFF" d="M849.248,231.228c0,0.55-0.45,1-1,1H716.777c-0.55,0-1-0.45-1-1
			v-46.915c0-0.55,0.45-1,1-1h131.471c0.55,0,1,0.45,1,1V231.228z"/>
	</g>
	<g>
		<rect x="829.256" y="198.975" width="2" height="18.581"/>
		<g>
			<polygon points="838.436,205.602 836.971,206.966 830.258,199.742 823.543,206.966 822.078,205.602 830.258,196.806 			"/>
		</g>
	</g>
</g>
<g id="_x2D_">
	<g>
		<path fill-rule="evenodd" clip-rule="evenodd" fill="#FFFFFF" d="M707.662,231.228c0,0.55-0.45,1-1,1h-46.914c-0.55,0-1-0.45-1-1
			v-46.915c0-0.55,0.45-1,1-1h46.914c0.55,0,1,0.45,1,1V231.228z"/>
	</g>
	<g>
		<path d="M686.117,221.836h-6.221v-1.955h6.221V221.836z"/>
	</g>
	<g>
		<path d="M690.096,201.106h-13.781v-1.968h13.781V201.106z"/>
	</g>
</g>
<g id="_x2E_">
	<g>
		<path fill-rule="evenodd" clip-rule="evenodd" fill="#FFFFFF" d="M649.863,231.228c0,0.55-0.45,1-1,1h-46.914c-0.55,0-1-0.45-1-1
			v-46.915c0-0.55,0.45-1,1-1h46.914c0.55,0,1,0.45,1,1V231.228z"/>
	</g>
	<g>
		<path fill-rule="evenodd" clip-rule="evenodd" fill="#FFFFFF" d="M649.863,231.228c0,0.55-0.45,1-1,1h-46.914c-0.55,0-1-0.45-1-1
			v-46.915c0-0.55,0.45-1,1-1h46.914c0.55,0,1,0.45,1,1V231.228z"/>
	</g>
	<g>
		<path d="M626.51,223.611h-2.5v-2.59h2.5V223.611z"/>
	</g>
	<g>
		<path d="M625.707,191.49h-2.502v-2.59h2.502V191.49z M625.707,202.611h-2.502v-2.59h2.502V202.611z"/>
	</g>
</g>
<g id="_x2C_">
	<g>
		<path fill-rule="evenodd" clip-rule="evenodd" fill="#FFFFFF" d="M592.066,231.228c0,0.55-0.45,1-1,1h-46.914c-0.55,0-1-0.45-1-1
			v-46.915c0-0.55,0.45-1,1-1h46.914c0.55,0,1,0.45,1,1V231.228z"/>
	</g>
	<g>
		<path fill-rule="evenodd" clip-rule="evenodd" fill="#FFFFFF" d="M592.066,231.228c0,0.55-0.45,1-1,1h-46.914c-0.55,0-1-0.45-1-1
			v-46.915c0-0.55,0.45-1,1-1h46.914c0.55,0,1,0.45,1,1V231.228z"/>
	</g>
	<g>
		<path d="M569.084,223.001l-1.904,3.885h-1.484l0.889-4.012v-2.069h2.5V223.001z"/>
	</g>
	<g>
		<path d="M568.963,202.648l-1.904,3.885h-1.484l0.889-4.012v-2.069h2.5V202.648z M568.875,192.136h-2.502v-2.59h2.502V192.136z"/>
	</g>
</g>
<g id="M">
	<g>
		<path fill-rule="evenodd" clip-rule="evenodd" fill="#FFFFFF" d="M534.268,231.228c0,0.55-0.45,1-1,1h-46.912c-0.55,0-1-0.45-1-1
			v-46.915c0-0.55,0.45-1,1-1h46.912c0.55,0,1,0.45,1,1V231.228z"/>
	</g>
	<g>
		<path d="M503.924,199.126l5.891,15.019h0.076l5.891-15.019h3.199v18.484h-2.502v-7.313l0.254-7.516l-0.063-0.013l-5.992,14.841
			h-1.664l-5.967-14.803l-0.063,0.013l0.24,7.478v7.313h-2.5v-18.484H503.924z"/>
	</g>
</g>
<g id="N">
	<g>
		<path fill-rule="evenodd" clip-rule="evenodd" fill="#FFFFFF" d="M476.471,231.228c0,0.55-0.45,1-1,1h-46.916c-0.55,0-1-0.45-1-1
			v-46.915c0-0.55,0.45-1,1-1h46.916c0.55,0,1,0.45,1,1V231.228z"/>
	</g>
	<g>
		<path d="M459.053,217.611h-2.5l-8.9-14.295l-0.076,0.025v14.27h-2.5v-18.484h2.5l8.9,14.27l0.076-0.025v-14.244h2.5V217.611z"/>
	</g>
</g>
<g id="B">
	<g>
		<path fill-rule="evenodd" clip-rule="evenodd" fill="#FFFFFF" d="M418.672,231.228c0,0.55-0.45,1-1,1h-46.914c-0.55,0-1-0.45-1-1
			v-46.915c0-0.55,0.45-1,1-1h46.914c0.55,0,1,0.45,1,1V231.228z"/>
	</g>
	<g>
		<path d="M388.248,217.611v-18.484h6.031c1.93,0,3.439,0.417,4.531,1.25s1.639,2.084,1.639,3.751c0,0.821-0.264,1.555-0.787,2.203
			c-0.525,0.647-1.215,1.128-2.07,1.441c1.117,0.237,1.996,0.783,2.635,1.638s0.959,1.849,0.959,2.983
			c0,1.693-0.549,2.985-1.645,3.878s-2.584,1.339-4.463,1.339H388.248z M390.75,206.985h4.049c0.932,0,1.689-0.256,2.273-0.768
			s0.875-1.225,0.875-2.139c0-0.999-0.314-1.746-0.945-2.241s-1.539-0.743-2.723-0.743h-3.529V206.985z M390.75,208.953v6.69h4.328
			c1.135,0,2.02-0.28,2.654-0.841c0.635-0.561,0.951-1.355,0.951-2.384c0-1.079-0.264-1.927-0.793-2.542
			c-0.529-0.616-1.344-0.923-2.443-0.923H390.75z"/>
	</g>
</g>
<g id="V">
	<g>
		<path fill-rule="evenodd" clip-rule="evenodd" fill="#FFFFFF" d="M360.875,231.228c0,0.55-0.45,1-1,1h-46.916c-0.55,0-1-0.45-1-1
			v-46.915c0-0.55,0.45-1,1-1h46.916c0.55,0,1,0.45,1,1V231.228z"/>
	</g>
	<g>
		<path d="M336.027,213.015l0.42,1.46h0.076l0.418-1.46l4.773-13.889h2.705l-6.869,18.484h-2.145l-6.869-18.484h2.717
			L336.027,213.015z"/>
	</g>
</g>
<g id="C">
	<g>
		<path fill-rule="evenodd" clip-rule="evenodd" fill="#FFFFFF" d="M303.076,231.228c0,0.55-0.45,1-1,1h-46.914c-0.55,0-1-0.45-1-1
			v-46.915c0-0.55,0.45-1,1-1h46.914c0.55,0,1,0.45,1,1V231.228z"/>
	</g>
	<g>
		<path d="M285.801,211.682l0.025,0.076c0.033,1.735-0.576,3.188-1.828,4.361c-1.254,1.172-2.908,1.758-4.965,1.758
			c-2.09,0-3.793-0.741-5.109-2.222s-1.975-3.36-1.975-5.637v-3.288c0-2.277,0.658-4.158,1.975-5.643s3.02-2.228,5.109-2.228
			c2.092,0,3.754,0.557,4.99,1.669c1.234,1.113,1.836,2.588,1.803,4.424l-0.025,0.076h-2.4c0-1.295-0.381-2.319-1.143-3.072
			s-1.836-1.13-3.225-1.13c-1.396,0-2.51,0.562-3.338,1.687c-0.83,1.125-1.244,2.52-1.244,4.186v3.311
			c0,1.683,0.414,3.086,1.244,4.211c0.828,1.125,1.941,1.687,3.338,1.687c1.389,0,2.463-0.375,3.225-1.124s1.143-1.784,1.143-3.104
			H285.801z"/>
	</g>
</g>
<g id="X">
	<g>
		<path fill-rule="evenodd" clip-rule="evenodd" fill="#FFFFFF" d="M245.277,231.228c0,0.55-0.45,1-1,1h-46.914c-0.55,0-1-0.45-1-1
			v-46.915c0-0.55,0.45-1,1-1h46.914c0.55,0,1,0.45,1,1V231.228z"/>
	</g>
	<g>
		<path d="M220.926,206.337l4.316-7.211h3.021l-5.865,9.166l5.992,9.318h-2.982l-4.432-7.338l-4.443,7.338h-3.021l5.992-9.318
			l-5.865-9.166h2.996L220.926,206.337z"/>
	</g>
</g>
<g id="Y">
	<g>
		<path fill-rule="evenodd" clip-rule="evenodd" fill="#FFFFFF" d="M187.527,231.228c0,0.55-0.45,1-1,1h-46.918c-0.55,0-1-0.45-1-1
			v-46.915c0-0.55,0.45-1,1-1h46.918c0.55,0,1,0.45,1,1V231.228z"/>
	</g>
	<g>
		<path d="M163.1,208.521l4.824-9.395h2.857l-6.488,11.984v6.5h-2.488v-6.665l-6.385-11.819h2.855L163.1,208.521z"/>
	</g>
</g>
<g id="_x3E__x3C_">
	<g>
		<path fill-rule="evenodd" clip-rule="evenodd" fill="#FFFFFF" d="M129.928,231.228c0,0.55-0.45,1-1,1H82.012c-0.55,0-1-0.45-1-1
			v-46.915c0-0.55,0.45-1,1-1h46.916c0.55,0,1,0.45,1,1V231.228z"/>
	</g>
	<g>
		<path d="M100.587,197.48v-2.476l10.867,4.799v1.892l-10.867,4.812v-2.488l7.592-3.021l1.079-0.216v-0.076l-1.079-0.254
			L100.587,197.48z"/>
	</g>
	<g>
		<path d="M103.774,215.716l-1.079,0.211v0.071l1.079,0.223l7.097,2.675v2.358l-10.359-4.446v-1.748l10.359-4.435v2.358
			L103.774,215.716z"/>
	</g>
</g>
<g id="SHIFT_x5F_L">
	<g>
		<path fill-rule="evenodd" clip-rule="evenodd" fill="#FFFFFF" d="M57.141,183.313c-0.55,0-1.45,0-2,0H23.968c-0.55,0-1.45,0-2,0
			h-8.594c-0.55,0-1,0.45-1,1v46.915c0,0.55,0.45,1,1,1h8.594c0.55,0,1.45,0,2,0h31.173c0.55,0,1.45,0,2,0h13.743c0.55,0,1-0.45,1-1
			v-46.915c0-0.55-0.45-1-1-1H57.141z"/>
	</g>
	<g>
		<rect x="30.256" y="198.975" width="2" height="18.581"/>
		<g>
			<polygon points="39.436,205.602 37.971,206.966 31.258,199.742 24.543,206.966 23.078,205.602 31.258,196.806 			"/>
		</g>
	</g>
</g>
<g id="Ž">
	<g>
		<path fill-rule="evenodd" clip-rule="evenodd" fill="#FFFFFF" d="M804.025,173.05c0,0.55-0.45,1-1,1h-46.914c-0.55,0-1-0.45-1-1
			v-46.915c0-0.55,0.45-1,1-1h46.914c0.55,0,1,0.45,1,1V173.05z"/>
	</g>
	<g>
		<path d="M775.85,157.217h10.334v1.968h-13.152v-1.866l9.877-14.65h-9.736v-1.968h12.594v1.79L775.85,157.217z M779.52,137.387
			l1.865-1.879h2.158v0.229l-3.262,3.11h-1.512l-3.225-3.085v-0.254h2.107L779.52,137.387z"/>
	</g>
</g>
<g id="Ć">
	<g>
		<path fill-rule="evenodd" clip-rule="evenodd" fill="#FFFFFF" d="M746.303,173.05c0,0.55-0.45,1-1,1h-46.914c-0.55,0-1-0.45-1-1
			v-46.915c0-0.55,0.45-1,1-1h46.914c0.55,0,1,0.45,1,1V173.05z"/>
	</g>
	<g>
		<path d="M728.9,153.256l0.025,0.076c0.033,1.735-0.576,3.188-1.828,4.361c-1.254,1.172-2.908,1.758-4.965,1.758
			c-2.09,0-3.793-0.741-5.109-2.222s-1.975-3.36-1.975-5.637v-3.288c0-2.277,0.658-4.158,1.975-5.643s3.02-2.228,5.109-2.228
			c2.092,0,3.754,0.557,4.99,1.669c1.234,1.113,1.836,2.588,1.803,4.424l-0.025,0.076h-2.4c0-1.295-0.381-2.319-1.143-3.072
			s-1.836-1.13-3.225-1.13c-1.396,0-2.51,0.562-3.338,1.687c-0.83,1.125-1.244,2.52-1.244,4.186v3.311
			c0,1.683,0.414,3.086,1.244,4.211c0.828,1.125,1.941,1.687,3.338,1.687c1.389,0,2.463-0.375,3.225-1.124s1.143-1.784,1.143-3.104
			H728.9z M723.365,135.788h2.92l0.025,0.076l-3.428,3.301h-1.867L723.365,135.788z"/>
	</g>
</g>
<g id="Č">
	<g>
		<path fill-rule="evenodd" clip-rule="evenodd" fill="#FFFFFF" d="M688.504,173.05c0,0.55-0.45,1-1,1H640.59c-0.55,0-1-0.45-1-1
			v-46.915c0-0.55,0.45-1,1-1h46.914c0.55,0,1,0.45,1,1V173.05z"/>
	</g>
	<g>
		<path d="M671.109,153.256l0.025,0.076c0.033,1.735-0.576,3.188-1.828,4.361c-1.254,1.172-2.908,1.758-4.965,1.758
			c-2.09,0-3.793-0.741-5.109-2.222s-1.975-3.36-1.975-5.637v-3.288c0-2.277,0.658-4.158,1.975-5.643s3.02-2.228,5.109-2.228
			c2.092,0,3.754,0.557,4.99,1.669c1.234,1.113,1.836,2.588,1.803,4.424l-0.025,0.076h-2.4c0-1.295-0.381-2.319-1.143-3.072
			s-1.836-1.13-3.225-1.13c-1.396,0-2.51,0.562-3.338,1.687c-0.83,1.125-1.244,2.52-1.244,4.186v3.311
			c0,1.683,0.414,3.086,1.244,4.211c0.828,1.125,1.941,1.687,3.338,1.687c1.389,0,2.463-0.375,3.225-1.124s1.143-1.784,1.143-3.104
			H671.109z M664.355,137.121l1.865-1.879h2.158v0.229l-3.262,3.11h-1.512l-3.225-3.085v-0.254h2.107L664.355,137.121z"/>
	</g>
</g>
<g id="L">
	<g>
		<path fill-rule="evenodd" clip-rule="evenodd" fill="#FFFFFF" d="M630.707,173.05c0,0.55-0.45,1-1,1h-46.914c-0.55,0-1-0.45-1-1
			v-46.915c0-0.55,0.45-1,1-1h46.914c0.55,0,1,0.45,1,1V173.05z"/>
	</g>
	<g>
		<path d="M603.965,157.217h8.748v1.968h-11.248v-18.484h2.5V157.217z"/>
	</g>
</g>
<g id="K">
	<g>
		<path fill-rule="evenodd" clip-rule="evenodd" fill="#FFFFFF" d="M572.908,173.05c0,0.55-0.45,1-1,1h-46.914c-0.55,0-1-0.45-1-1
			v-46.915c0-0.55,0.45-1,1-1h46.914c0.55,0,1,0.45,1,1V173.05z"/>
	</g>
	<g>
		<path d="M546.99,150.844h-2.158v8.341h-2.502v-18.484h2.502v8.176h1.93l6.613-8.176h2.768l0.039,0.063l-7.174,8.874l7.693,9.483
			l-0.037,0.063h-2.984L546.99,150.844z"/>
	</g>
</g>
<g id="J">
	<g>
		<path fill-rule="evenodd" clip-rule="evenodd" fill="#FFFFFF" d="M515.109,173.05c0,0.55-0.45,1-1,1h-46.914c-0.55,0-1-0.45-1-1
			v-46.915c0-0.55,0.45-1,1-1h46.914c0.55,0,1,0.45,1,1V173.05z"/>
	</g>
	<g>
		<path d="M493.166,140.701h2.5v13.368c0,1.65-0.521,2.96-1.566,3.929c-1.047,0.969-2.402,1.454-4.07,1.454
			c-1.777,0-3.189-0.453-4.24-1.358c-1.049-0.906-1.553-2.217-1.51-3.936l0.025-0.076h2.398c0,1.143,0.291,1.995,0.871,2.558
			c0.578,0.563,1.398,0.844,2.455,0.844c0.924,0,1.676-0.311,2.26-0.933s0.877-1.453,0.877-2.493V140.701z"/>
	</g>
</g>
<g id="H">
	<g>
		<path fill-rule="evenodd" clip-rule="evenodd" fill="#FFFFFF" d="M457.313,173.05c0,0.55-0.45,1-1,1h-46.914c-0.55,0-1-0.45-1-1
			v-46.915c0-0.55,0.45-1,1-1h46.914c0.55,0,1,0.45,1,1V173.05z"/>
	</g>
	<g>
		<path d="M439.807,159.185h-2.5v-8.163h-8.977v8.163h-2.5v-18.484h2.5v8.354h8.977v-8.354h2.5V159.185z"/>
	</g>
</g>
<g id="G">
	<g>
		<path fill-rule="evenodd" clip-rule="evenodd" fill="#FFFFFF" d="M399.514,173.05c0,0.55-0.45,1-1,1h-46.916c-0.55,0-1-0.45-1-1
			v-46.915c0-0.55,0.45-1,1-1h46.916c0.55,0,1,0.45,1,1V173.05z"/>
	</g>
	<g>
		<path d="M381.846,156.735c-0.441,0.677-1.205,1.299-2.293,1.866c-1.086,0.567-2.494,0.851-4.221,0.851
			c-2.209,0-4.035-0.707-5.479-2.12c-1.441-1.414-2.164-3.242-2.164-5.484v-3.809c0-2.243,0.674-4.071,2.02-5.484
			s3.08-2.12,5.205-2.12c2.115,0,3.779,0.521,4.988,1.562c1.211,1.041,1.828,2.382,1.854,4.024l-0.025,0.076h-2.387
			c-0.076-1.075-0.484-1.959-1.225-2.653s-1.809-1.041-3.205-1.041c-1.414,0-2.553,0.529-3.416,1.585
			c-0.863,1.057-1.295,2.397-1.295,4.021v3.831c0,1.641,0.482,2.992,1.447,4.053c0.965,1.062,2.193,1.592,3.682,1.592
			c1.051,0,1.908-0.139,2.578-0.418c0.668-0.279,1.146-0.595,1.434-0.95v-4.192h-4.049v-1.968h6.551V156.735z"/>
	</g>
</g>
<g id="F">
	<g>
		<path fill-rule="evenodd" clip-rule="evenodd" fill="#FFFFFF" d="M341.717,173.05c0,0.55-0.45,1-1,1h-46.914c-0.55,0-1-0.45-1-1
			v-46.915c0-0.55,0.45-1,1-1h46.914c0.55,0,1,0.45,1,1V173.05z"/>
	</g>
	<g>
		<g>
			<path d="M322.877,151.009h-8.43v8.176h-2.502v-18.484h12.227v1.968h-9.725v6.373h8.43V151.009z"/>
		</g>
	</g>
</g>
<g id="D">
	<g>
		<path fill-rule="evenodd" clip-rule="evenodd" fill="#FFFFFF" d="M283.918,173.05c0,0.55-0.45,1-1,1h-46.916c-0.55,0-1-0.45-1-1
			v-46.915c0-0.55,0.45-1,1-1h46.916c0.55,0,1,0.45,1,1V173.05z"/>
	</g>
	<g>
		<path d="M253.162,159.185v-18.484h5.674c2.422,0,4.363,0.743,5.828,2.228c1.463,1.485,2.195,3.404,2.195,5.757v2.526
			c0,2.361-0.732,4.28-2.195,5.757c-1.465,1.477-3.406,2.215-5.828,2.215H253.162z M255.662,142.668v14.549h3.174
			c1.711,0,3.059-0.562,4.045-1.687c0.984-1.125,1.479-2.566,1.479-4.326v-2.549c0-1.742-0.494-3.175-1.479-4.3
			c-0.986-1.125-2.334-1.687-4.045-1.687H255.662z"/>
	</g>
</g>
<g id="S">
	<g>
		<path fill-rule="evenodd" clip-rule="evenodd" fill="#FFFFFF" d="M226.121,173.05c0,0.55-0.45,1-1,1h-46.914c-0.55,0-1-0.45-1-1
			v-46.915c0-0.55,0.45-1,1-1h46.914c0.55,0,1,0.45,1,1V173.05z"/>
	</g>
	<g>
		<path d="M205.895,154.53c0-0.841-0.316-1.546-0.951-2.114s-1.762-1.045-3.377-1.433c-1.955-0.467-3.48-1.154-4.576-2.062
			c-1.098-0.907-1.645-2.049-1.645-3.423c0-1.442,0.59-2.647,1.771-3.614c1.18-0.967,2.709-1.451,4.588-1.451
			c2.023,0,3.633,0.554,4.832,1.663c1.197,1.109,1.773,2.395,1.732,3.859l-0.025,0.076h-2.387c0-1.083-0.357-1.959-1.072-2.628
			c-0.717-0.668-1.742-1.003-3.08-1.003c-1.244,0-2.197,0.281-2.861,0.844c-0.666,0.563-0.998,1.297-0.998,2.203
			c0,0.804,0.359,1.475,1.08,2.012c0.719,0.538,1.887,1.009,3.504,1.416c1.945,0.482,3.428,1.193,4.443,2.133
			s1.523,2.103,1.523,3.491c0,1.49-0.609,2.687-1.828,3.593s-2.811,1.358-4.773,1.358c-1.846,0-3.477-0.501-4.895-1.504
			s-2.105-2.342-2.063-4.018l0.025-0.076h2.387c0,1.185,0.436,2.086,1.307,2.704c0.873,0.618,1.951,0.927,3.238,0.927
			c1.26,0,2.26-0.265,2.996-0.795C205.527,156.159,205.895,155.439,205.895,154.53z"/>
	</g>
</g>
<g id="A">
	<g>
		<path fill-rule="evenodd" clip-rule="evenodd" fill="#FFFFFF" d="M168.367,173.05c0,0.55-0.45,1-1,1h-46.913c-0.55,0-1-0.45-1-1
			v-46.915c0-0.55,0.45-1,1-1h46.913c0.55,0,1,0.45,1,1V173.05z"/>
	</g>
	<g>
		<path d="M147.74,154.424h-7.744l-1.752,4.761h-2.552l7.147-18.484h2.146l7.033,18.484h-2.552L147.74,154.424z M140.77,152.33
			h6.221l-3.047-8.417h-0.076L140.77,152.33z"/>
	</g>
</g>
<g id="CAPS_LOCK">
	<g>
		<path fill-rule="evenodd" clip-rule="evenodd" fill="#FFFFFF" d="M110.571,173.05c0,0.55-0.45,1-1,1H13.374c-0.55,0-1-0.45-1-1
			v-46.915c0-0.55,0.45-1,1-1h96.198c0.55,0,1,0.45,1,1V173.05z"/>
	</g>
	<g>
		<g>
			<path d="M25.084,154.169c0.606,0,1.14-0.187,1.6-0.562c0.461-0.374,0.691-0.833,0.691-1.377h1.642l0.019,0.056
				c0.031,0.866-0.354,1.636-1.155,2.31c-0.801,0.674-1.734,1.011-2.797,1.011c-1.46,0-2.576-0.476-3.349-1.429
				c-0.773-0.953-1.16-2.149-1.16-3.59v-0.39c0-1.429,0.388-2.621,1.165-3.577c0.776-0.956,1.891-1.433,3.344-1.433
				c1.175,0,2.135,0.346,2.88,1.039c0.746,0.692,1.105,1.543,1.081,2.551l-0.019,0.056h-1.651c0-0.612-0.217-1.133-0.649-1.563
				c-0.433-0.43-0.98-0.645-1.642-0.645c-0.959,0-1.644,0.344-2.055,1.033c-0.411,0.689-0.617,1.534-0.617,2.535v0.389
				c0,1.025,0.204,1.879,0.612,2.562S24.119,154.169,25.084,154.169z"/>
			<path d="M37.256,155.412c-0.062-0.303-0.11-0.571-0.144-0.803c-0.034-0.232-0.055-0.465-0.061-0.7
				c-0.34,0.482-0.784,0.886-1.331,1.21c-0.548,0.325-1.137,0.487-1.768,0.487c-1.045,0-1.842-0.268-2.389-0.803
				c-0.548-0.535-0.821-1.272-0.821-2.212c0-0.959,0.388-1.708,1.164-2.25c0.776-0.541,1.829-0.812,3.159-0.812h1.985v-0.993
				c0-0.587-0.18-1.053-0.538-1.396c-0.359-0.343-0.866-0.515-1.521-0.515c-0.588,0-1.065,0.15-1.434,0.45
				c-0.368,0.3-0.552,0.66-0.552,1.081h-1.744l-0.019-0.056c-0.037-0.73,0.308-1.398,1.034-2.004
				c0.727-0.606,1.666-0.909,2.816-0.909c1.138,0,2.053,0.289,2.746,0.867c0.692,0.579,1.039,1.412,1.039,2.5v4.833
				c0,0.358,0.019,0.705,0.056,1.039s0.105,0.662,0.204,0.983H37.256z M34.222,154.067c0.662,0,1.258-0.169,1.791-0.509
				c0.532-0.339,0.878-0.728,1.039-1.166v-1.628h-2.05c-0.736,0-1.325,0.185-1.767,0.555c-0.442,0.37-0.664,0.805-0.664,1.304
				c0,0.444,0.139,0.795,0.417,1.055S33.678,154.067,34.222,154.067z"/>
			<path d="M50.086,150.773c0,1.447-0.347,2.615-1.039,3.502c-0.693,0.888-1.648,1.332-2.867,1.332
				c-0.619,0-1.161-0.104-1.628-0.311c-0.467-0.207-0.865-0.518-1.192-0.932v4.908h-1.828v-13.897h1.401l0.288,1.299
				c0.328-0.482,0.736-0.851,1.225-1.104c0.488-0.253,1.058-0.38,1.707-0.38c1.243,0,2.209,0.493,2.899,1.479
				c0.69,0.987,1.035,2.29,1.035,3.911V150.773z M48.259,150.574c0-1.137-0.224-2.071-0.673-2.803
				c-0.448-0.732-1.108-1.098-1.98-1.098c-0.526,0-0.974,0.119-1.345,0.356c-0.371,0.238-0.671,0.564-0.9,0.978v4.846
				c0.229,0.414,0.529,0.737,0.9,0.968s0.826,0.348,1.364,0.348c0.866,0,1.521-0.317,1.967-0.95c0.445-0.633,0.668-1.45,0.668-2.451
				V150.574z"/>
			<path d="M58.167,152.74c0-0.402-0.153-0.733-0.459-0.993c-0.307-0.26-0.886-0.486-1.74-0.677
				c-1.219-0.266-2.135-0.625-2.75-1.079c-0.616-0.454-0.923-1.073-0.923-1.857c0-0.815,0.346-1.51,1.039-2.084
				c0.692-0.574,1.596-0.861,2.709-0.861c1.169,0,2.098,0.3,2.788,0.9c0.69,0.6,1.019,1.33,0.988,2.189l-0.019,0.056h-1.744
				c0-0.439-0.184-0.833-0.552-1.183c-0.368-0.349-0.855-0.524-1.461-0.524c-0.649,0-1.132,0.142-1.447,0.427
				s-0.473,0.627-0.473,1.03c0,0.396,0.139,0.708,0.417,0.937s0.844,0.433,1.698,0.612c1.268,0.272,2.211,0.642,2.83,1.108
				c0.618,0.467,0.928,1.093,0.928,1.879c0,0.891-0.36,1.611-1.081,2.162c-0.721,0.55-1.663,0.826-2.825,0.826
				c-1.28,0-2.289-0.325-3.024-0.974c-0.736-0.649-1.085-1.407-1.048-2.273l0.019-0.056h1.744c0.031,0.646,0.272,1.119,0.724,1.417
				c0.451,0.298,0.98,0.448,1.586,0.448c0.649,0,1.158-0.131,1.526-0.395C57.983,153.512,58.167,153.167,58.167,152.74z"/>
			<path d="M68.966,155.412h-1.828v-14.473h1.828V155.412z"/>
			<path d="M71.35,150.3c0-1.484,0.402-2.708,1.206-3.669c0.804-0.961,1.896-1.442,3.275-1.442c1.392,0,2.491,0.479,3.298,1.438
				c0.808,0.958,1.211,2.183,1.211,3.674v0.204c0,1.497-0.402,2.721-1.206,3.674c-0.804,0.953-1.899,1.429-3.284,1.429
				c-1.386,0-2.481-0.478-3.289-1.434c-0.807-0.956-1.21-2.178-1.21-3.669V150.3z M73.178,150.5c0,1.063,0.224,1.94,0.673,2.631
				c0.448,0.692,1.114,1.038,1.999,1.038c0.872,0,1.534-0.346,1.985-1.038c0.451-0.691,0.677-1.569,0.677-2.631v-0.204
				c0-1.05-0.227-1.924-0.682-2.623c-0.454-0.698-1.121-1.047-1.999-1.047c-0.872,0-1.532,0.349-1.98,1.047
				c-0.449,0.698-0.673,1.572-0.673,2.623V150.5z"/>
			<path d="M86.658,154.169c0.606,0,1.14-0.187,1.6-0.562c0.461-0.374,0.691-0.833,0.691-1.377h1.642l0.019,0.056
				c0.031,0.866-0.354,1.636-1.155,2.31c-0.801,0.674-1.734,1.011-2.797,1.011c-1.46,0-2.576-0.476-3.349-1.429
				c-0.773-0.953-1.16-2.149-1.16-3.59v-0.39c0-1.429,0.388-2.621,1.165-3.577c0.776-0.956,1.891-1.433,3.344-1.433
				c1.175,0,2.135,0.346,2.88,1.039c0.746,0.692,1.105,1.543,1.081,2.551l-0.019,0.056h-1.651c0-0.612-0.217-1.133-0.649-1.563
				c-0.433-0.43-0.98-0.645-1.642-0.645c-0.959,0-1.644,0.344-2.055,1.033c-0.411,0.689-0.617,1.534-0.617,2.535v0.389
				c0,1.025,0.204,1.879,0.612,2.562S85.693,154.169,86.658,154.169z"/>
			<path d="M95.685,150.764h-1.188v4.648h-1.828v-14.473h1.828v8.387h1.169l2.746-3.952h2.189l-3.433,4.557l3.924,5.481h-2.152
				L95.685,150.764z"/>
		</g>
	</g>
</g>
<g id="ENTER">
	<g>
		<path fill-rule="evenodd" clip-rule="evenodd" fill="#FFFFFF" d="M801.334,67.766c-0.55,0-1,0.45-1,1v46.914c0,0.55,0.45,1,1,1
			h10.561c0.55,0,1,0.451,1,1v55.371c0,0.55,0.45,1,1,1h34.354c0.55,0,1-0.45,1-1V117.68c0-0.549,0-1.45,0-2v-10c0-0.55,0-1.45,0-2
			V68.766c0-0.55-0.45-1-1-1H801.334z"/>
	</g>
</g>
<g id="Đ">
	<g>
		<path fill-rule="evenodd" clip-rule="evenodd" fill="#FFFFFF" d="M792.221,115.68c0,0.55-0.45,1-1,1h-46.914c-0.55,0-1-0.45-1-1
			V68.766c0-0.55,0.45-1,1-1h46.914c0.55,0,1,0.45,1,1V115.68z"/>
	</g>
	<g>
		<path d="M761.752,101.638v-8.417h-2.133v-1.968h2.133v-8.1h5.676c2.42,0,4.363,0.743,5.826,2.228
			c1.465,1.485,2.197,3.404,2.197,5.757v2.526c0,2.361-0.732,4.28-2.197,5.757c-1.463,1.477-3.406,2.215-5.826,2.215H761.752z
			 M767.758,93.221h-3.504v6.449h3.174c1.709,0,3.057-0.563,4.043-1.687s1.479-2.566,1.479-4.326v-2.549
			c0-1.742-0.492-3.175-1.479-4.3s-2.334-1.687-4.043-1.687h-3.174v6.132h3.504V93.221z"/>
	</g>
</g>
<g id="Š">
	<g>
		<path fill-rule="evenodd" clip-rule="evenodd" fill="#FFFFFF" d="M734.424,115.68c0,0.55-0.45,1-1,1H686.51c-0.55,0-1-0.45-1-1
			V68.766c0-0.55,0.45-1,1-1h46.914c0.55,0,1,0.45,1,1V115.68z"/>
	</g>
	<g>
		<path fill-rule="evenodd" clip-rule="evenodd" fill="#FFFFFF" d="M734.424,115.68c0,0.55-0.45,1-1,1H686.51c-0.55,0-1-0.45-1-1
			V68.766c0-0.55,0.45-1,1-1h46.914c0.55,0,1,0.45,1,1V115.68z"/>
	</g>
	<g>
		<path d="M714.291,96.983c0-0.841-0.316-1.546-0.951-2.114c-0.635-0.568-1.762-1.045-3.377-1.433
			c-1.955-0.467-3.48-1.154-4.576-2.062c-1.098-0.908-1.645-2.049-1.645-3.424c0-1.442,0.59-2.646,1.771-3.614
			c1.18-0.967,2.709-1.451,4.588-1.451c2.023,0,3.633,0.554,4.832,1.663c1.197,1.109,1.773,2.395,1.732,3.859l-0.025,0.076h-2.387
			c0-1.083-0.357-1.959-1.072-2.628c-0.717-0.668-1.742-1.003-3.08-1.003c-1.244,0-2.197,0.281-2.861,0.844
			c-0.666,0.563-0.998,1.297-0.998,2.203c0,0.804,0.359,1.475,1.08,2.012c0.719,0.538,1.887,1.009,3.504,1.416
			c1.945,0.482,3.428,1.193,4.443,2.133s1.523,2.103,1.523,3.491c0,1.49-0.609,2.687-1.828,3.593s-2.811,1.358-4.773,1.358
			c-1.846,0-3.477-0.501-4.895-1.504s-2.105-2.342-2.063-4.018l0.025-0.076h2.387c0,1.185,0.436,2.086,1.307,2.704
			c0.873,0.618,1.951,0.927,3.238,0.927c1.26,0,2.26-0.265,2.996-0.795C713.924,98.611,714.291,97.892,714.291,96.983z
			 M709.709,79.573l1.865-1.879h2.158v0.229l-3.262,3.11h-1.512l-3.225-3.085v-0.254h2.107L709.709,79.573z"/>
	</g>
</g>
<g id="P">
	<g>
		<path fill-rule="evenodd" clip-rule="evenodd" fill="#FFFFFF" d="M676.625,115.68c0,0.55-0.45,1-1,1h-46.914c-0.55,0-1-0.45-1-1
			V68.766c0-0.55,0.45-1,1-1h46.914c0.55,0,1,0.45,1,1V115.68z"/>
	</g>
	<g>
		<path d="M648.713,94.224v7.414h-2.502V83.153h7.072c1.971,0,3.504,0.508,4.596,1.523s1.637,2.353,1.637,4.012
			c0,1.684-0.545,3.028-1.637,4.031s-2.625,1.504-4.596,1.504H648.713z M648.713,92.256h4.57c1.252,0,2.188-0.336,2.805-1.008
			c0.619-0.671,0.928-1.519,0.928-2.541c0-1.022-0.313-1.875-0.934-2.56c-0.623-0.685-1.555-1.026-2.799-1.026h-4.57V92.256z"/>
	</g>
</g>
<g id="O">
	<g>
		<path fill-rule="evenodd" clip-rule="evenodd" fill="#FFFFFF" d="M618.828,115.68c0,0.55-0.45,1-1,1h-46.914c-0.55,0-1-0.45-1-1
			V68.766c0-0.55,0.45-1,1-1h46.914c0.55,0,1,0.45,1,1V115.68z"/>
	</g>
	<g>
		<path d="M601.875,94.046c0,2.26-0.701,4.134-2.102,5.624s-3.219,2.234-5.453,2.234c-2.158,0-3.912-0.745-5.262-2.234
			s-2.025-3.364-2.025-5.624v-3.288c0-2.251,0.676-4.126,2.025-5.624s3.104-2.247,5.262-2.247c2.234,0,4.053,0.747,5.453,2.241
			s2.102,3.371,2.102,5.63V94.046z M599.373,90.732c0-1.693-0.457-3.081-1.371-4.164s-2.141-1.625-3.682-1.625
			c-1.455,0-2.617,0.542-3.484,1.625s-1.301,2.471-1.301,4.164v3.313c0,1.709,0.434,3.106,1.301,4.189s2.029,1.625,3.484,1.625
			c1.549,0,2.779-0.54,3.689-1.619c0.908-1.079,1.363-2.478,1.363-4.196V90.732z"/>
	</g>
</g>
<g id="I">
	<g>
		<path fill-rule="evenodd" clip-rule="evenodd" fill="#FFFFFF" d="M561.029,115.68c0,0.55-0.45,1-1,1h-46.914c-0.55,0-1-0.45-1-1
			V68.766c0-0.55,0.45-1,1-1h46.914c0.55,0,1,0.45,1,1V115.68z"/>
	</g>
	<g>
		<path d="M537.92,101.638h-2.514V83.153h2.514V101.638z"/>
	</g>
</g>
<g id="U">
	<g>
		<path fill-rule="evenodd" clip-rule="evenodd" fill="#FFFFFF" d="M503.23,115.68c0,0.55-0.45,1-1,1h-46.912c-0.55,0-1-0.45-1-1
			V68.766c0-0.55,0.45-1,1-1h46.912c0.55,0,1,0.45,1,1V115.68z"/>
	</g>
	<g>
		<path d="M485.871,83.153v12.53c0,2.014-0.654,3.555-1.961,4.621c-1.309,1.066-3.016,1.6-5.123,1.6
			c-2.031,0-3.68-0.535-4.945-1.606c-1.264-1.071-1.896-2.609-1.896-4.615v-12.53h2.5v12.521c0,1.396,0.398,2.455,1.193,3.178
			c0.797,0.724,1.846,1.085,3.148,1.085c1.371,0,2.479-0.361,3.32-1.085c0.842-0.723,1.264-1.782,1.264-3.178V83.153H485.871z"/>
	</g>
</g>
<g id="Z">
	<g>
		<path fill-rule="evenodd" clip-rule="evenodd" fill="#FFFFFF" d="M445.434,115.68c0,0.55-0.45,1-1,1H397.52c-0.55,0-1-0.45-1-1
			V68.766c0-0.55,0.45-1,1-1h46.914c0.55,0,1,0.45,1,1V115.68z"/>
	</g>
	<g>
		<path d="M417.354,99.67h10.334v1.968h-13.152v-1.866l9.877-14.65h-9.738v-1.968h12.594v1.79L417.354,99.67z"/>
	</g>
</g>
<g id="T">
	<g>
		<path fill-rule="evenodd" clip-rule="evenodd" fill="#FFFFFF" d="M387.635,115.68c0,0.55-0.45,1-1,1h-46.916c-0.55,0-1-0.45-1-1
			V68.766c0-0.55,0.45-1,1-1h46.916c0.55,0,1,0.45,1,1V115.68z"/>
	</g>
	<g>
		<path d="M370.475,85.121h-5.941v16.517h-2.502V85.121h-5.928v-1.968h14.371V85.121z"/>
	</g>
</g>
<g id="R">
	<g>
		<path fill-rule="evenodd" clip-rule="evenodd" fill="#FFFFFF" d="M329.838,115.68c0,0.55-0.45,1-1,1h-46.914c-0.55,0-1-0.45-1-1
			V68.766c0-0.55,0.45-1,1-1h46.914c0.55,0,1,0.45,1,1V115.68z"/>
	</g>
	<g>
		<path d="M301.666,93.627v8.011h-2.5V83.166h6.689c2.023,0,3.568,0.449,4.635,1.346s1.6,2.201,1.6,3.91
			c0,0.948-0.248,1.773-0.742,2.476c-0.496,0.703-1.217,1.261-2.166,1.676c1.016,0.33,1.746,0.865,2.191,1.606
			c0.443,0.741,0.666,1.657,0.666,2.749v1.739c0,0.576,0.063,1.092,0.189,1.549s0.348,0.83,0.66,1.117v0.305h-2.576
			c-0.33-0.288-0.543-0.711-0.635-1.27c-0.094-0.559-0.141-1.134-0.141-1.727v-1.688c0-0.999-0.291-1.803-0.875-2.412
			s-1.367-0.914-2.35-0.914H301.666z M301.666,91.659h3.936c1.414,0,2.432-0.269,3.055-0.805c0.621-0.536,0.932-1.354,0.932-2.452
			c0-1.039-0.303-1.844-0.906-2.414c-0.605-0.57-1.547-0.855-2.826-0.855h-4.189V91.659z"/>
	</g>
</g>
<g id="E">
	<g>
		<path fill-rule="evenodd" clip-rule="evenodd" fill="#FFFFFF" d="M272.039,115.68c0,0.55-0.45,1-1,1h-46.916c-0.55,0-1-0.45-1-1
			V68.766c0-0.55,0.45-1,1-1h46.916c0.55,0,1,0.45,1,1V115.68z"/>
	</g>
	<g>
		<path d="M253.357,93.068h-8.469v6.602h9.764v1.968h-12.264V83.153h12.123v1.968h-9.623v5.979h8.469V93.068z"/>
	</g>
</g>
<g id="W">
	<g>
		<path fill-rule="evenodd" clip-rule="evenodd" fill="#FFFFFF" d="M214.242,115.68c0,0.55-0.45,1-1,1h-46.914c-0.55,0-1-0.45-1-1
			V68.766c0-0.55,0.45-1,1-1h46.914c0.55,0,1,0.45,1,1V115.68z"/>
	</g>
	<g>
		<path d="M184.418,95.239l0.344,2.311l0.076,0.013l0.494-2.323l3.391-12.086h2.209l3.414,12.086l0.508,2.374h0.076l0.369-2.374
			l2.754-12.086h2.502l-4.457,18.484h-2.234l-3.643-12.822l-0.33-1.663h-0.076l-0.318,1.663l-3.707,12.822h-2.234l-4.443-18.484
			h2.488L184.418,95.239z"/>
	</g>
</g>
<g id="Q">
	<g>
		<path fill-rule="evenodd" clip-rule="evenodd" fill="#FFFFFF" d="M156.49,115.68c0,0.55-0.45,1-1,1h-46.915c-0.55,0-1-0.45-1-1
			V68.766c0-0.55,0.45-1,1-1h46.915c0.55,0,1,0.45,1,1V115.68z"/>
	</g>
	<g>
		<path d="M139.531,94.046c0,1.202-0.211,2.315-0.635,3.339s-1.016,1.892-1.777,2.603l3.136,2.958l-1.714,1.638l-3.504-3.263
			c-0.474,0.195-0.967,0.34-1.479,0.438c-0.512,0.097-1.039,0.146-1.581,0.146c-2.158,0-3.912-0.745-5.262-2.234
			s-2.025-3.364-2.025-5.624v-3.288c0-2.251,0.675-4.126,2.025-5.624s3.104-2.247,5.262-2.247c2.234,0,4.052,0.747,5.453,2.241
			s2.101,3.371,2.101,5.63V94.046z M137.03,90.732c0-1.693-0.457-3.081-1.371-4.164s-2.141-1.625-3.682-1.625
			c-1.456,0-2.617,0.542-3.485,1.625s-1.301,2.471-1.301,4.164v3.313c0,1.709,0.434,3.106,1.301,4.189s2.029,1.625,3.485,1.625
			c1.549,0,2.778-0.54,3.688-1.619s1.365-2.478,1.365-4.196V90.732z"/>
	</g>
</g>
<g id="TAB">
	<g>
		<path fill-rule="evenodd" clip-rule="evenodd" fill="#FFFFFF" d="M99.405,115.68c0,0.55-0.45,1-1,1H13.374c-0.55,0-1-0.45-1-1
			V68.766c0-0.55,0.45-1,1-1h85.032c0.55,0,1,0.45,1,1V115.68z"/>
	</g>
	<g>
		<path d="M24.414,86.844v2.421h1.902v1.354h-1.902v6.095c0,0.47,0.097,0.801,0.292,0.993c0.194,0.191,0.453,0.288,0.774,0.288
			c0.105,0,0.221-0.012,0.348-0.037c0.127-0.025,0.24-0.056,0.339-0.093l0.241,1.252c-0.136,0.111-0.335,0.202-0.599,0.273
			c-0.263,0.071-0.527,0.107-0.793,0.107c-0.742,0-1.333-0.224-1.772-0.673c-0.439-0.448-0.659-1.152-0.659-2.11V90.62h-1.596
			v-1.354h1.596v-2.421H24.414z"/>
		<path d="M34.74,99.304c-0.062-0.303-0.11-0.571-0.144-0.803c-0.034-0.232-0.055-0.465-0.061-0.7
			c-0.34,0.482-0.784,0.886-1.331,1.21c-0.548,0.325-1.137,0.487-1.768,0.487c-1.045,0-1.842-0.268-2.389-0.803
			c-0.548-0.535-0.821-1.272-0.821-2.212c0-0.959,0.388-1.708,1.164-2.25c0.776-0.541,1.829-0.812,3.159-0.812h1.985v-0.993
			c0-0.587-0.18-1.053-0.538-1.396c-0.359-0.343-0.866-0.515-1.521-0.515c-0.588,0-1.065,0.15-1.434,0.45
			c-0.368,0.3-0.552,0.66-0.552,1.081h-1.744l-0.019-0.056c-0.037-0.73,0.308-1.398,1.034-2.004
			c0.727-0.606,1.666-0.909,2.816-0.909c1.138,0,2.053,0.289,2.746,0.867c0.692,0.579,1.039,1.412,1.039,2.5v4.833
			c0,0.358,0.019,0.705,0.056,1.039s0.105,0.662,0.204,0.983H34.74z M31.706,97.958c0.662,0,1.258-0.169,1.791-0.509
			c0.532-0.339,0.878-0.728,1.039-1.166v-1.628h-2.05c-0.736,0-1.325,0.185-1.767,0.555c-0.442,0.37-0.664,0.805-0.664,1.304
			c0,0.444,0.139,0.795,0.417,1.055S31.162,97.958,31.706,97.958z"/>
		<path d="M47.589,94.665c0,1.447-0.348,2.615-1.043,3.502c-0.696,0.888-1.653,1.332-2.872,1.332c-0.662,0-1.237-0.128-1.726-0.385
			c-0.489-0.256-0.894-0.635-1.215-1.136l-0.223,1.327h-1.494V84.831h1.828v5.622c0.315-0.445,0.707-0.786,1.174-1.021
			c0.467-0.235,1.012-0.353,1.637-0.353c1.237,0,2.202,0.495,2.895,1.484c0.692,0.989,1.039,2.292,1.039,3.906V94.665z
			 M45.761,94.47c0-1.15-0.212-2.089-0.636-2.816c-0.423-0.727-1.068-1.09-1.934-1.09c-0.563,0-1.038,0.138-1.424,0.413
			c-0.386,0.275-0.694,0.645-0.923,1.109v4.351c0.235,0.495,0.543,0.881,0.923,1.16c0.381,0.278,0.861,0.417,1.443,0.417
			c0.859,0,1.5-0.306,1.92-0.918c0.42-0.612,0.631-1.423,0.631-2.431V94.47z"/>
	</g>
</g>
<g id="BACK">
	<g>
		<path fill-rule="evenodd" clip-rule="evenodd" fill="#FFFFFF" d="M849.248,58.348c0,0.55-0.45,1-1,1h-84.441c-0.55,0-1-0.45-1-1
			V11.43c0-0.55,0.45-1,1-1h84.441c0.55,0,1,0.45,1,1V58.348z"/>
	</g>
	<g>
		<rect x="819.317" y="33.958" width="18.581" height="2"/>
		<g>
			<polygon points="825.944,26.778 827.309,28.243 820.085,34.956 827.309,41.671 825.944,43.136 817.148,34.956 			"/>
		</g>
	</g>
</g>
<g id="_x2B__x2A_">
	<g>
		<path fill-rule="evenodd" clip-rule="evenodd" fill="#FFFFFF" d="M755.023,58.348c0,0.55-0.45,1-1,1h-46.914c-0.55,0-1-0.45-1-1
			V11.43c0-0.55,0.45-1,1-1h46.914c0.55,0,1,0.45,1,1V58.348z"/>
	</g>
	<g>
		<path d="M739.555,43.632h4.287v1.912h-4.287v4.931h-2.115v-4.931h-4.318v-1.912h4.318v-4.544h2.115V43.632z"/>
	</g>
	<g>
		<path d="M720.877,22.502l-3.18-0.956l0.525-1.654l3.18,1.192l-0.107-3.674h1.73l-0.107,3.738l3.146-1.182l0.516,1.676
			l-3.244,0.956l2.074,2.9l-1.408,1.031l-1.943-3.083l-1.891,2.997l-1.418-0.999L720.877,22.502z"/>
	</g>
</g>
<g id="_x27__x3F_">
	<g>
		<path fill-rule="evenodd" clip-rule="evenodd" fill="#FFFFFF" d="M697.227,58.348c0,0.55-0.45,1-1,1h-46.914c-0.55,0-1-0.45-1-1
			V11.43c0-0.55,0.45-1,1-1h46.914c0.55,0,1,0.45,1,1V58.348z"/>
	</g>
	<g>
		<path d="M679.344,40.109l1.719-3.824h1.041l-0.645,3.889v1.912h-2.115V40.109z"/>
	</g>
	<g>
		<path d="M663.932,28.646c0.006-1.038,0.096-1.758,0.268-2.159c0.172-0.401,0.623-0.931,1.354-1.59
			c0.709-0.838,1.215-1.482,1.516-1.934s0.451-0.995,0.451-1.633c0-0.759-0.203-1.343-0.607-1.751s-0.982-0.612-1.734-0.612
			c-0.652,0-1.207,0.178-1.666,0.532c-0.457,0.354-0.688,0.875-0.688,1.563h-2.02l-0.031-0.064
			c-0.021-1.153,0.385-2.077,1.219-2.771c0.834-0.694,1.896-1.042,3.186-1.042c1.41,0,2.506,0.36,3.287,1.08
			c0.779,0.72,1.17,1.724,1.17,3.013c0,0.924-0.252,1.769-0.758,2.535c-0.504,0.767-1.172,1.551-2.002,2.353
			c-0.387,0.387-0.621,0.734-0.705,1.042c-0.082,0.308-0.123,0.788-0.123,1.439H663.932z M666.123,33.051h-2.213v-2.234h2.213
			V33.051z"/>
	</g>
</g>
<g id="_x30__x3D_">
	<g>
		<path fill-rule="evenodd" clip-rule="evenodd" fill="#FFFFFF" d="M639.428,58.348c0,0.55-0.45,1-1,1h-46.914c-0.55,0-1-0.45-1-1
			V11.43c0-0.55,0.45-1,1-1h46.914c0.55,0,1,0.45,1,1V58.348z"/>
	</g>
	<g>
		<path d="M627.912,46.081c0,1.998-0.443,3.529-1.326,4.593c-0.885,1.063-2.098,1.595-3.637,1.595c-1.541,0-2.758-0.533-3.652-1.601
			c-0.896-1.067-1.344-2.596-1.344-4.587v-3.706c0-1.991,0.447-3.521,1.338-4.592c0.893-1.071,2.104-1.606,3.637-1.606
			c1.539,0,2.756,0.536,3.646,1.606c0.893,1.07,1.338,2.601,1.338,4.592V46.081z M625.795,41.921c0-1.353-0.244-2.37-0.734-3.054
			c-0.492-0.684-1.203-1.025-2.133-1.025c-0.932,0-1.641,0.342-2.127,1.025c-0.488,0.684-0.73,1.701-0.73,3.054v4.583
			c0,1.352,0.246,2.374,0.74,3.064c0.494,0.691,1.207,1.036,2.139,1.036c0.93,0,1.639-0.343,2.121-1.03
			c0.484-0.687,0.725-1.71,0.725-3.069V41.921z"/>
	</g>
	<g>
		<path d="M612.957,22.21h-8.959v-1.783h8.959V22.21z M612.957,26.7h-8.959v-1.783h8.959V26.7z"/>
	</g>
</g>
<g id="_x39__x29_">
	<g>
		<path fill-rule="evenodd" clip-rule="evenodd" fill="#FFFFFF" d="M581.629,58.348c0,0.55-0.45,1-1,1h-46.914c-0.55,0-1-0.45-1-1
			V11.43c0-0.55,0.45-1,1-1h46.914c0.55,0,1,0.45,1,1V58.348z"/>
	</g>
	<g>
		<path d="M564.439,50.604c1.031,0,1.857-0.389,2.477-1.167c0.619-0.779,0.93-1.937,0.93-3.474v-0.709
			c-0.352,0.509-0.789,0.894-1.316,1.155c-0.525,0.261-1.111,0.392-1.756,0.392c-1.512,0-2.711-0.467-3.6-1.401
			c-0.887-0.935-1.332-2.222-1.332-3.862c0-1.568,0.471-2.854,1.414-3.856c0.941-1.002,2.084-1.504,3.432-1.504
			c1.633,0,2.92,0.511,3.861,1.531s1.412,2.522,1.412,4.506v3.728c0,2.041-0.51,3.606-1.529,4.694
			c-1.021,1.089-2.352,1.633-3.992,1.633c-0.551,0-1.111-0.052-1.68-0.156c-0.57-0.104-1.08-0.265-1.531-0.481l0.322-1.629
			c0.422,0.222,0.861,0.378,1.316,0.468C563.32,50.559,563.846,50.604,564.439,50.604z M564.773,45.136
			c0.779,0,1.43-0.168,1.949-0.504s0.893-0.765,1.123-1.287v-1.352c0-1.366-0.264-2.399-0.789-3.1
			c-0.527-0.701-1.295-1.052-2.305-1.052c-0.773,0-1.434,0.345-1.977,1.035c-0.545,0.69-0.816,1.575-0.816,2.655
			c0,1.072,0.252,1.941,0.758,2.606C563.221,44.804,563.906,45.136,564.773,45.136z"/>
	</g>
	<g>
		<path d="M551.906,26.799c0,2.829-0.57,5.241-1.713,7.235c-1.143,1.994-2.336,3.324-3.582,3.99h-0.064l-0.408-1.16
			c0.967-0.752,1.816-1.989,2.551-3.711c0.734-1.723,1.102-3.833,1.102-6.333v-0.14c0-2.449-0.379-4.538-1.133-6.268
			c-0.756-1.729-1.596-2.988-2.52-3.776l0.408-1.16h0.064c1.246,0.666,2.439,1.998,3.582,3.996s1.713,4.408,1.713,7.229V26.799z"/>
	</g>
</g>
<g id="_x38__x28_">
	<g>
		<path fill-rule="evenodd" clip-rule="evenodd" fill="#FFFFFF" d="M523.832,58.348c0,0.55-0.45,1-1,1h-46.914c-0.55,0-1-0.45-1-1
			V11.43c0-0.55,0.45-1,1-1h46.914c0.55,0,1,0.45,1,1V58.348z"/>
	</g>
	<g>
		<path d="M512.008,40.484c0,0.816-0.23,1.531-0.688,2.144c-0.459,0.612-1.078,1.068-1.859,1.369
			c0.902,0.315,1.625,0.81,2.166,1.482c0.539,0.673,0.811,1.45,0.811,2.331c0,1.447-0.471,2.552-1.412,3.314
			c-0.943,0.763-2.166,1.144-3.67,1.144c-1.531,0-2.766-0.381-3.699-1.144c-0.936-0.763-1.402-1.868-1.402-3.314
			c0-0.881,0.264-1.658,0.795-2.331c0.529-0.673,1.246-1.167,2.148-1.482c-0.781-0.301-1.393-0.757-1.838-1.369
			c-0.443-0.612-0.666-1.327-0.666-2.144c0-1.375,0.426-2.437,1.273-3.185c0.85-0.749,1.971-1.123,3.367-1.123
			c1.375,0,2.498,0.375,3.369,1.123C511.572,38.048,512.008,39.109,512.008,40.484z M510.332,47.762c0-0.858-0.283-1.562-0.85-2.112
			c-0.564-0.551-1.281-0.826-2.148-0.826c-0.881,0-1.594,0.275-2.143,0.826c-0.547,0.55-0.822,1.254-0.822,2.112
			c0,0.887,0.273,1.582,0.816,2.085c0.545,0.504,1.268,0.756,2.17,0.756c0.881,0,1.598-0.253,2.148-0.761
			C510.057,49.335,510.332,48.642,510.332,47.762z M509.891,40.527c0-0.773-0.24-1.414-0.725-1.923
			c-0.482-0.508-1.094-0.763-1.832-0.763c-0.752,0-1.359,0.246-1.826,0.736c-0.465,0.49-0.697,1.14-0.697,1.949
			c0,0.795,0.234,1.433,0.703,1.912c0.469,0.48,1.084,0.72,1.842,0.72c0.746,0,1.354-0.24,1.826-0.72
			C509.654,41.96,509.891,41.322,509.891,40.527z"/>
	</g>
	<g>
		<path d="M485.74,26.702c0-2.821,0.57-5.231,1.709-7.229s2.334-3.33,3.588-3.996l0.064,0.011l0.408,1.246
			c-0.982,0.767-1.836,1.995-2.563,3.685c-0.727,1.69-1.09,3.778-1.09,6.263v0.14c0,2.485,0.361,4.573,1.084,6.263
			c0.725,1.69,1.58,2.951,2.568,3.781l-0.408,1.16h-0.064c-1.254-0.666-2.449-1.996-3.588-3.99
			c-1.139-1.995-1.709-4.406-1.709-7.235V26.702z"/>
	</g>
</g>
<g id="_x37__x2F_">
	<g>
		<path fill-rule="evenodd" clip-rule="evenodd" fill="#FFFFFF" d="M466.033,58.348c0,0.55-0.45,1-1,1h-46.914c-0.55,0-1-0.45-1-1
			V11.43c0-0.55,0.45-1,1-1h46.914c0.55,0,1,0.45,1,1V58.348z"/>
	</g>
	<g>
		<path d="M454.773,38.067c-1.891,2.249-3.168,4.242-3.83,5.979c-0.662,1.736-1.141,3.84-1.434,6.311l-0.172,1.687h-2.117
			l0.172-1.687c0.301-2.463,0.885-4.666,1.752-6.606c0.865-1.94,2.051-3.835,3.555-5.683h-8.508v-1.665h10.582V38.067z"/>
	</g>
	<g>
		<path d="M429.59,34.394h-1.805l6.531-16.983h1.793L429.59,34.394z"/>
	</g>
</g>
<g id="_x36__x26_">
	<g>
		<path fill-rule="evenodd" clip-rule="evenodd" fill="#FFFFFF" d="M408.236,58.348c0,0.55-0.45,1-1,1h-46.914c-0.55,0-1-0.45-1-1
			V11.43c0-0.55,0.45-1,1-1h46.914c0.55,0,1,0.45,1,1V58.348z"/>
	</g>
	<g>
		<path d="M392.82,36.177c0.537,0,1.07,0.061,1.596,0.183c0.527,0.122,0.961,0.276,1.305,0.462l-0.451,1.622
			c-0.35-0.179-0.717-0.324-1.1-0.435c-0.385-0.111-0.834-0.167-1.35-0.167c-1.117,0-2.018,0.448-2.701,1.343
			c-0.684,0.896-1.025,2.063-1.025,3.502v0.247c0.457-0.401,0.982-0.714,1.574-0.939c0.59-0.226,1.225-0.339,1.906-0.339
			c1.396,0,2.51,0.483,3.34,1.45c0.832,0.967,1.246,2.191,1.246,3.674c0,1.619-0.441,2.938-1.326,3.959s-2.064,1.53-3.539,1.53
			c-1.533,0-2.801-0.555-3.803-1.665c-1.004-1.11-1.504-2.675-1.504-4.694v-2.986c0-2.005,0.559-3.631,1.676-4.877
			S391.166,36.177,392.82,36.177z M392.102,43.234c-0.725,0-1.34,0.147-1.848,0.44c-0.51,0.293-0.896,0.683-1.16,1.169v1.266
			c0,1.438,0.305,2.546,0.912,3.325c0.609,0.779,1.371,1.169,2.289,1.169c0.865,0,1.541-0.366,2.025-1.099
			c0.482-0.733,0.725-1.643,0.725-2.73c0-1.03-0.26-1.877-0.779-2.542S393.025,43.234,392.102,43.234z"/>
	</g>
	<g>
		<path d="M368.217,28.84c0-0.874,0.252-1.638,0.758-2.293c0.504-0.655,1.258-1.313,2.262-1.972
			c-0.559-0.709-0.975-1.341-1.246-1.896c-0.273-0.555-0.408-1.126-0.408-1.714c0-1.21,0.348-2.143,1.047-2.798
			c0.697-0.655,1.66-0.983,2.885-0.983c1.131,0,2.051,0.326,2.76,0.978c0.709,0.652,1.064,1.436,1.064,2.353
			c0,0.702-0.189,1.309-0.564,1.821c-0.377,0.512-0.934,1.036-1.67,1.573l-1.172,0.859l3.652,4.394
			c0.295-0.465,0.523-0.981,0.688-1.547c0.166-0.565,0.248-1.164,0.248-1.794h1.891c0,0.945-0.141,1.819-0.42,2.621
			c-0.279,0.802-0.684,1.522-1.213,2.159l1.986,2.396l-0.021,0.054h-2.459l-0.914-1.096c-0.572,0.43-1.207,0.758-1.9,0.983
			c-0.695,0.226-1.414,0.338-2.16,0.338c-1.553,0-2.791-0.412-3.711-1.235C368.678,31.218,368.217,30.15,368.217,28.84z
			 M373.309,31.611c0.516,0,1.025-0.087,1.525-0.263c0.502-0.175,0.975-0.427,1.418-0.756l-3.877-4.664l-0.43,0.311
			c-0.652,0.486-1.084,0.951-1.295,1.394s-0.316,0.843-0.316,1.201c0,0.808,0.254,1.473,0.762,1.995
			C371.605,31.351,372.342,31.611,373.309,31.611z M371.697,20.944c0,0.38,0.098,0.775,0.291,1.188
			c0.193,0.412,0.482,0.861,0.869,1.348l1.482-1.021c0.408-0.272,0.686-0.567,0.832-0.886c0.148-0.319,0.221-0.672,0.221-1.059
			c0-0.437-0.174-0.823-0.521-1.16c-0.346-0.336-0.799-0.505-1.357-0.505c-0.58,0-1.027,0.203-1.344,0.607
			C371.855,19.861,371.697,20.357,371.697,20.944z"/>
	</g>
</g>
<g id="_x35__x25_">
	<g>
		<path fill-rule="evenodd" clip-rule="evenodd" fill="#FFFFFF" d="M350.438,58.348c0,0.55-0.45,1-1,1h-46.914c-0.55,0-1-0.45-1-1
			V11.43c0-0.55,0.45-1,1-1h46.914c0.55,0,1,0.45,1,1V58.348z"/>
	</g>
	<g>
		<path d="M329.658,44.985l0.902-8.583h7.832v1.88h-6.037l-0.516,4.394c0.328-0.243,0.695-0.445,1.102-0.606
			c0.404-0.161,0.871-0.249,1.4-0.264c1.439-0.014,2.574,0.455,3.4,1.407c0.828,0.953,1.24,2.234,1.24,3.846
			c0,1.568-0.42,2.829-1.262,3.781c-0.842,0.953-2.068,1.429-3.68,1.429c-1.324,0-2.428-0.361-3.309-1.085
			c-0.881-0.723-1.303-1.787-1.268-3.19l0.021-0.064h1.912c0,0.849,0.246,1.507,0.736,1.974c0.49,0.467,1.127,0.701,1.906,0.701
			c0.896,0,1.59-0.314,2.084-0.943c0.494-0.629,0.742-1.491,0.742-2.585c0-1.001-0.252-1.824-0.752-2.467
			c-0.502-0.644-1.193-0.966-2.074-0.966c-0.83,0-1.432,0.125-1.805,0.376c-0.371,0.251-0.645,0.634-0.816,1.149L329.658,44.985z"/>
	</g>
	<g>
		<path d="M309.662,20.418c0-0.909,0.295-1.676,0.881-2.299c0.588-0.623,1.371-0.935,2.354-0.935c0.98,0,1.766,0.31,2.352,0.93
			c0.588,0.619,0.881,1.387,0.881,2.304v0.827c0,0.91-0.291,1.672-0.875,2.288c-0.584,0.616-1.363,0.924-2.336,0.924
			c-0.988,0-1.779-0.308-2.369-0.924c-0.592-0.616-0.887-1.378-0.887-2.288V20.418z M311.23,21.245c0,0.53,0.145,0.979,0.436,1.349
			c0.289,0.369,0.707,0.553,1.252,0.553c0.521,0,0.928-0.183,1.213-0.548c0.287-0.365,0.43-0.816,0.43-1.354v-0.827
			c0-0.53-0.145-0.982-0.436-1.358c-0.289-0.376-0.699-0.564-1.229-0.564c-0.537,0-0.949,0.188-1.236,0.564
			c-0.285,0.376-0.43,0.829-0.43,1.358V21.245z M313.465,31.869l-1.17-0.72l7.637-12.225l1.172,0.72L313.465,31.869z
			 M317.236,29.216c0-0.909,0.293-1.674,0.881-2.293c0.586-0.62,1.371-0.93,2.352-0.93c0.975,0,1.756,0.31,2.348,0.93
			c0.59,0.619,0.887,1.384,0.887,2.293v0.838c0,0.917-0.295,1.683-0.881,2.299c-0.588,0.616-1.365,0.924-2.332,0.924
			c-0.988,0-1.777-0.308-2.369-0.924c-0.59-0.616-0.885-1.382-0.885-2.299V29.216z M318.805,30.054c0,0.537,0.145,0.99,0.434,1.359
			c0.291,0.369,0.709,0.553,1.252,0.553c0.523,0,0.928-0.184,1.215-0.553c0.285-0.369,0.43-0.822,0.43-1.359v-0.838
			c0-0.53-0.146-0.981-0.441-1.354c-0.293-0.372-0.701-0.559-1.225-0.559c-0.529,0-0.939,0.187-1.23,0.559
			c-0.289,0.373-0.434,0.824-0.434,1.354V30.054z"/>
	</g>
</g>
<g id="_x34__x24_">
	<g>
		<path fill-rule="evenodd" clip-rule="evenodd" fill="#FFFFFF" d="M292.641,58.348c0,0.55-0.45,1-1,1h-46.916c-0.55,0-1-0.45-1-1
			V11.43c0-0.55,0.45-1,1-1h46.916c0.55,0,1,0.45,1,1V58.348z"/>
	</g>
	<g>
		<path d="M279.707,46.779h2.16v1.665h-2.16v3.599h-2.105v-3.599h-7.025v-1.193l6.896-10.849h2.234V46.779z M272.832,46.779h4.77
			v-7.337l-0.064-0.011l-0.203,0.537L272.832,46.779z"/>
	</g>
	<g>
		<path d="M261.715,29.012c0-0.637-0.229-1.185-0.688-1.644c-0.457-0.458-1.209-0.866-2.256-1.225
			c-1.445-0.437-2.539-1.021-3.275-1.751c-0.738-0.73-1.107-1.704-1.107-2.922c0-1.182,0.338-2.145,1.016-2.89
			c0.676-0.745,1.609-1.192,2.799-1.343v-2.374h1.697v2.385c1.203,0.172,2.135,0.686,2.797,1.542
			c0.664,0.855,0.994,2.003,0.994,3.442h-2.105c0-0.974-0.225-1.762-0.676-2.363s-1.078-0.902-1.881-0.902
			c-0.844,0-1.477,0.221-1.896,0.661c-0.418,0.44-0.627,1.043-0.627,1.81c0,0.695,0.217,1.257,0.648,1.687
			c0.434,0.43,1.217,0.838,2.348,1.225c1.469,0.473,2.557,1.062,3.266,1.768c0.709,0.705,1.064,1.663,1.064,2.873
			c0,1.232-0.369,2.211-1.107,2.938c-0.736,0.727-1.75,1.158-3.039,1.294v2.063h-1.688v-2.052c-1.23-0.129-2.24-0.578-3.029-1.348
			c-0.787-0.77-1.166-1.9-1.139-3.39l0.021-0.054h2.041c0,1.103,0.277,1.889,0.832,2.358c0.557,0.469,1.238,0.703,2.047,0.703
			c0.924,0,1.646-0.22,2.164-0.66C261.455,30.403,261.715,29.792,261.715,29.012z"/>
	</g>
</g>
<g id="_x33__x23_">
	<g>
		<path fill-rule="evenodd" clip-rule="evenodd" fill="#FFFFFF" d="M234.842,58.348c0,0.55-0.45,1-1,1h-46.914c-0.55,0-1-0.45-1-1
			V11.43c0-0.55,0.45-1,1-1h46.914c0.55,0,1,0.45,1,1V58.348z"/>
	</g>
	<g>
		<path d="M216.361,43.245h1.848c0.938,0,1.602-0.234,1.992-0.703c0.391-0.469,0.586-1.123,0.586-1.961
			c0-0.895-0.223-1.575-0.666-2.041c-0.445-0.465-1.1-0.698-1.967-0.698c-0.822,0-1.484,0.242-1.98,0.726
			c-0.498,0.483-0.748,1.126-0.748,1.928h-2.029l-0.021-0.064c-0.037-1.182,0.393-2.186,1.283-3.013
			c0.893-0.827,2.057-1.241,3.496-1.241c1.447,0,2.6,0.385,3.459,1.155c0.859,0.77,1.289,1.867,1.289,3.292
			c0,0.645-0.195,1.288-0.584,1.929c-0.391,0.641-0.977,1.129-1.758,1.466c0.939,0.308,1.604,0.792,1.994,1.45
			c0.389,0.659,0.584,1.396,0.584,2.213c0,1.425-0.467,2.546-1.4,3.362c-0.936,0.816-2.129,1.225-3.584,1.225
			c-1.424,0-2.604-0.385-3.539-1.154c-0.934-0.77-1.385-1.814-1.348-3.132l0.031-0.064h2.02c0,0.821,0.254,1.473,0.758,1.958
			c0.506,0.485,1.197,0.727,2.078,0.727c0.896,0,1.598-0.242,2.105-0.728c0.51-0.485,0.764-1.202,0.764-2.151
			c0-0.963-0.227-1.673-0.678-2.13s-1.164-0.685-2.137-0.685h-1.848V43.245z"/>
	</g>
	<g>
		<path d="M202.801,28.646h-2.74l-0.859,4.404h-1.621l0.859-4.404h-2.535v-1.504h2.836l0.73-3.76h-2.75v-1.504h3.051l0.881-4.469
			h1.621l-0.881,4.469h2.74l0.881-4.469h1.621l-0.881,4.469h2.139v1.504h-2.428l-0.73,3.76h2.352v1.504h-2.652l-0.859,4.404h-1.633
			L202.801,28.646z M200.361,27.143h2.74l0.73-3.76h-2.74L200.361,27.143z"/>
	</g>
</g>
<g id="_x32__x22_">
	<g>
		<path fill-rule="evenodd" clip-rule="evenodd" fill="#FFFFFF" d="M177.045,58.348c0,0.55-0.45,1-1,1h-46.917c-0.55,0-1-0.45-1-1
			V11.43c0-0.55,0.45-1,1-1h46.917c0.55,0,1,0.45,1,1V58.348z"/>
	</g>
	<g>
		<path d="M165.811,52.043h-10.142v-1.459l5.124-5.684c0.918-1.024,1.539-1.837,1.865-2.438c0.324-0.602,0.488-1.217,0.488-1.848
			c0-0.78-0.229-1.438-0.682-1.971c-0.455-0.534-1.059-0.801-1.811-0.801c-1.082,0-1.879,0.278-2.391,0.833
			c-0.513,0.555-0.769,1.333-0.769,2.336h-2.03l-0.021-0.064c-0.036-1.346,0.412-2.478,1.343-3.395
			c0.931-0.917,2.22-1.375,3.868-1.375c1.402,0,2.521,0.41,3.357,1.23c0.834,0.82,1.25,1.863,1.25,3.131
			c0,0.853-0.252,1.707-0.756,2.563c-0.506,0.855-1.213,1.774-2.123,2.755l-4.114,4.469l0.021,0.053h7.521V52.043z"/>
	</g>
	<g>
		<path d="M141.078,22.117l1.719-3.824h1.042l-0.645,3.889v1.912h-2.116V22.117z M144.612,22.117l1.719-3.824h1.042l-0.645,3.889
			v1.912h-2.116V22.117z"/>
	</g>
</g>
<g id="_x31__x21_">
	<g>
		<path fill-rule="evenodd" clip-rule="evenodd" fill="#FFFFFF" d="M119.246,58.348c0,0.55-0.45,1-1,1H71.332c-0.55,0-1-0.45-1-1
			V11.43c0-0.55,0.45-1,1-1h46.915c0.55,0,1,0.45,1,1V58.348z"/>
	</g>
	<g>
		<path d="M103.717,52.043h-2.116V38.465l-3.201,0.043v-1.525l5.317-0.58V52.043z"/>
	</g>
	<g>
		<g>
			<path d="M86.713,28.332h-2.116V17.826h2.116V28.332z M86.724,33.467h-2.127v-2.191h2.127V33.467z"/>
		</g>
	</g>
</g>
<g id="_xB8_">
	<g>
		<path fill-rule="evenodd" clip-rule="evenodd" fill="#FFFFFF" d="M61.289,58.348c0,0.55-0.45,1-1,1H13.374c-0.55,0-1-0.45-1-1
			V11.43c0-0.55,0.45-1,1-1h46.916c0.55,0,1,0.45,1,1V58.348z"/>
	</g>
	<g>
		<path fill-rule="evenodd" clip-rule="evenodd" fill="#FFFFFF" d="M61.289,58.348c0,0.55-0.45,1-1,1H13.374c-0.55,0-1-0.45-1-1
			V11.43c0-0.55,0.45-1,1-1h46.916c0.55,0,1,0.45,1,1V58.348z"/>
	</g>
	<g>
		<path d="M37.321,44.091l-0.152,0.66c0.55,0.093,1.007,0.313,1.371,0.66c0.364,0.347,0.546,0.859,0.546,1.536
			c0,0.813-0.334,1.46-1.003,1.942s-1.625,0.724-2.869,0.724l-0.089-1.384c0.609,0,1.1-0.104,1.473-0.311
			c0.373-0.208,0.559-0.519,0.559-0.933c0-0.406-0.152-0.69-0.457-0.851c-0.305-0.161-0.825-0.271-1.562-0.33l0.406-1.714H37.321z"
			/>
	</g>
</g>
</svg>
