<?xml version="1.0" encoding="utf-8"?>
<!-- Generator: Adobe Illustrator 16.0.0, SVG Export Plug-In . SVG Version: 6.00 Build 0)  -->
<!DOCTYPE svg PUBLIC "-//W3C//DTD SVG 1.1//EN" "http://www.w3.org/Graphics/SVG/1.1/DTD/svg11.dtd">
<svg version="1.1" xmlns="http://www.w3.org/2000/svg" xmlns:xlink="http://www.w3.org/1999/xlink" x="0px" y="0px" width="1920px"
	 height="1080px" viewBox="0 0 1920 1080" enable-background="new 0 0 1920 1080" xml:space="preserve">
<symbol  id="naprej_x5F_bel" viewBox="-30.517 -30.518 61.034 61.035">
	<g id="naprej_3_">
		<g>
			<polygon fill="#FFFFFF" points="-30.517,30.518 30.517,30.518 30.517,-30.518 -30.517,-30.518 			"/>
			<polyline fill="none" stroke="#32BCAD" stroke-width="3.2123" stroke-miterlimit="10" points="4.501,-9.002 -4.501,0 
				4.501,9.002 			"/>
		</g>
	</g>
</symbol>
<g id="Layer_8">
</g>
<g id="Layer_6">
</g>
<g id="gb">
	<rect fill="#32BCAD" width="1920" height="1080"/>
	
		<use xlink:href="#naprej_x5F_bel"  width="61.034" height="61.035" x="-30.517" y="-30.518" transform="matrix(1 0 0 -1 63.6602 1014.4453)" overflow="visible"/>
	
		<use xlink:href="#naprej_x5F_bel"  width="61.034" height="61.035" x="-30.517" y="-30.518" transform="matrix(-1 0 0 1 1856.3398 1014.4453)" overflow="visible"/>
	<rect x="378.35" y="299.167" opacity="0.3" fill="#FFFFFF" width="1163.301" height="405.801"/>
	<g>
		
			<line fill="none" stroke="#000000" stroke-width="2" stroke-miterlimit="10" x1="1840.299" y1="66.922" x2="1872.185" y2="35.038"/>
		
			<line fill="none" stroke="#000000" stroke-width="2" stroke-miterlimit="10" x1="1840.299" y1="35.037" x2="1872.185" y2="66.922"/>
	</g>
	<g>
		<g>
			<path fill="#FFFFFF" d="M1478.473,660.459c0.816,0,1.537-0.252,2.158-0.757s0.932-1.124,0.932-1.857h2.213l0.025,0.075
				c0.041,1.167-0.478,2.206-1.557,3.114c-1.08,0.909-2.338,1.363-3.771,1.363c-1.969,0-3.473-0.642-4.516-1.926
				c-1.041-1.284-1.563-2.898-1.563-4.84v-0.525c0-1.926,0.523-3.533,1.569-4.822c1.046-1.288,2.55-1.932,4.509-1.932
				c1.584,0,2.879,0.467,3.883,1.401c1.006,0.934,1.491,2.081,1.457,3.439l-0.024,0.075h-2.226c0-0.825-0.293-1.527-0.876-2.107
				s-1.321-0.869-2.214-0.869c-1.293,0-2.216,0.464-2.771,1.392c-0.554,0.929-0.83,2.068-0.83,3.417v0.524
				c0,1.383,0.275,2.534,0.824,3.454C1476.246,659.999,1477.172,660.459,1478.473,660.459z"/>
			<path fill="#FFFFFF" d="M1489.816,645.338v3.264h2.564v1.826h-2.564v8.217c0,0.633,0.131,1.08,0.395,1.338
				c0.262,0.258,0.611,0.387,1.045,0.387c0.141,0,0.297-0.016,0.469-0.05c0.17-0.033,0.322-0.075,0.455-0.125l0.326,1.688
				c-0.184,0.15-0.452,0.273-0.807,0.369c-0.355,0.096-0.711,0.144-1.07,0.144c-1,0-1.797-0.302-2.388-0.907
				c-0.593-0.604-0.888-1.553-0.888-2.845v-8.217h-2.152v-1.826h2.152v-3.264H1489.816z"/>
			<path fill="#FFFFFF" d="M1501.823,650.778l-1.263-0.075c-0.65,0-1.199,0.155-1.645,0.463c-0.447,0.309-0.791,0.742-1.033,1.301
				v9.668h-2.463v-13.533h2.201l0.237,1.976c0.384-0.7,0.856-1.246,1.419-1.638s1.211-0.588,1.945-0.588
				c0.184,0,0.358,0.015,0.525,0.043c0.166,0.029,0.305,0.061,0.412,0.094L1501.823,650.778z"/>
			<path fill="#FFFFFF" d="M1506.863,662.135h-2.465v-19.511h2.465V662.135z"/>
		</g>
		<g>
			<path fill="#FFFFFF" d="M414.373,661.808c0.817,0,1.537-0.252,2.158-0.757c0.621-0.504,0.932-1.124,0.932-1.857h2.213
				l0.025,0.075c0.041,1.168-0.477,2.206-1.557,3.114c-1.08,0.909-2.337,1.363-3.771,1.363c-1.968,0-3.473-0.642-4.515-1.926
				s-1.563-2.897-1.563-4.84v-0.525c0-1.926,0.523-3.533,1.57-4.821c1.045-1.288,2.549-1.933,4.508-1.933
				c1.584,0,2.879,0.467,3.884,1.401c1.005,0.934,1.491,2.081,1.457,3.439l-0.024,0.075h-2.227c0-0.826-0.292-1.528-0.875-2.107
				c-0.584-0.58-1.322-0.869-2.215-0.869c-1.292,0-2.215,0.464-2.77,1.393c-0.555,0.929-0.832,2.067-0.832,3.417v0.525
				c0,1.382,0.275,2.533,0.825,3.454C412.147,661.348,413.072,661.808,414.373,661.808z"/>
			<path fill="#FFFFFF" d="M425.718,646.688v3.264h2.563v1.826h-2.563v8.217c0,0.634,0.132,1.08,0.394,1.338
				c0.263,0.258,0.611,0.387,1.045,0.387c0.141,0,0.297-0.016,0.469-0.05c0.171-0.033,0.323-0.075,0.456-0.125l0.325,1.688
				c-0.184,0.15-0.451,0.273-0.807,0.369c-0.354,0.096-0.711,0.144-1.069,0.144c-1,0-1.797-0.302-2.388-0.907
				c-0.593-0.604-0.889-1.553-0.889-2.845v-8.217h-2.152v-1.826h2.152v-3.264H425.718z"/>
			<path fill="#FFFFFF" d="M437.725,652.128l-1.264-0.076c-0.65,0-1.199,0.155-1.645,0.463c-0.446,0.309-0.79,0.742-1.032,1.301
				v9.668h-2.464v-13.533h2.201l0.238,1.976c0.383-0.7,0.856-1.247,1.419-1.638s1.211-0.588,1.945-0.588
				c0.183,0,0.358,0.015,0.524,0.044c0.167,0.029,0.305,0.061,0.413,0.094L437.725,652.128z"/>
			<path fill="#FFFFFF" d="M442.764,663.484H440.3v-19.511h2.464V663.484z"/>
		</g>
		<g>
			<rect x="1497.154" y="567.382" fill="#FFFFFF" width="2.695" height="25.048"/>
			<g>
				<polygon fill="#FFFFFF" points="1509.529,576.315 1507.555,578.155 1498.504,568.416 1489.451,578.155 1487.479,576.315 
					1498.504,564.458 				"/>
			</g>
		</g>
		<g>
			<path fill="#FFFFFF" d="M1304.187,598.199h-8.386v-2.636h8.386V598.199z"/>
		</g>
		<g>
			<path fill="#FFFFFF" d="M1309.551,570.254h-18.578v-2.652h18.578V570.254z"/>
		</g>
		<g>
			<path fill-rule="evenodd" clip-rule="evenodd" d="M1255.312,610.863c0,0.742-0.606,1.348-1.349,1.348h-63.248
				c-0.74,0-1.348-0.606-1.348-1.348v-63.248c0-0.742,0.607-1.348,1.348-1.348h63.248c0.742,0,1.349,0.606,1.349,1.348V610.863z"/>
		</g>
		<g>
			<path fill-rule="evenodd" clip-rule="evenodd" d="M1255.312,610.863c0,0.742-0.606,1.348-1.349,1.348h-63.248
				c-0.74,0-1.348-0.606-1.348-1.348v-63.248c0-0.742,0.607-1.348,1.348-1.348h63.248c0.742,0,1.349,0.606,1.349,1.348V610.863z"/>
		</g>
		<g>
			<path fill="#FFFFFF" d="M1223.827,600.592h-3.372V597.1h3.372V600.592z"/>
		</g>
		<g>
			<path fill="#FFFFFF" d="M1222.745,557.29h-3.372v-3.492h3.372V557.29z M1222.745,572.282h-3.372v-3.491h3.372V572.282z"/>
		</g>
		<g>
			<path fill="#FFFFFF" d="M1146.412,599.77l-2.568,5.237h-2.002l1.197-5.408v-2.79h3.373V599.77z"/>
		</g>
		<g>
			<path fill="#FFFFFF" d="M1146.248,572.333l-2.566,5.237h-2.003l1.198-5.408v-2.79h3.371V572.333z M1146.129,558.161h-3.372
				v-3.491h3.372V558.161z"/>
		</g>
		<g>
			<path fill="#FFFFFF" d="M1058.565,567.583l7.941,20.247h0.103l7.941-20.247h4.313v24.919h-3.371v-9.858l0.342-10.132
				l-0.085-0.017l-8.079,20.007h-2.241l-8.044-19.956l-0.086,0.017l0.325,10.081v9.858h-3.372v-24.919H1058.565z"/>
		</g>
		<g>
			<path fill="#FFFFFF" d="M998.074,592.502h-3.372l-11.997-19.271l-0.104,0.035v19.237h-3.371v-24.919h3.371L994.6,586.82
				l0.103-0.034v-19.203h3.372V592.502z"/>
		</g>
		<g>
			<path fill="#FFFFFF" d="M902.619,592.502v-24.919h8.129c2.602,0,4.639,0.562,6.11,1.686c1.472,1.124,2.208,2.81,2.208,5.058
				c0,1.107-0.354,2.097-1.061,2.97c-0.709,0.873-1.639,1.521-2.791,1.942c1.507,0.319,2.69,1.056,3.553,2.208
				c0.86,1.152,1.291,2.493,1.291,4.021c0,2.283-0.738,4.025-2.216,5.229c-1.478,1.204-3.483,1.805-6.017,1.805H902.619z
				 M905.99,578.177h5.459c1.256,0,2.277-0.345,3.064-1.035c0.787-0.69,1.181-1.651,1.181-2.884c0-1.346-0.425-2.353-1.274-3.021
				c-0.851-0.668-2.074-1.001-3.672-1.001h-4.758V578.177z M905.99,580.83v9.02h5.836c1.529,0,2.723-0.378,3.578-1.134
				s1.283-1.827,1.283-3.214c0-1.455-0.357-2.597-1.07-3.427c-0.713-0.83-1.811-1.245-3.294-1.245H905.99z"/>
		</g>
		<g>
			<path fill="#FFFFFF" d="M832.221,586.307l0.564,1.969h0.104l0.564-1.969l6.436-18.724h3.646l-9.259,24.919h-2.893l-9.26-24.919
				h3.662L832.221,586.307z"/>
		</g>
		<g>
			<path fill="#FFFFFF" d="M764.508,584.51l0.035,0.103c0.045,2.339-0.777,4.299-2.465,5.879c-1.689,1.581-3.92,2.371-6.692,2.371
				c-2.817,0-5.114-0.999-6.888-2.995c-1.775-1.997-2.662-4.53-2.662-7.6v-4.433c0-3.069,0.887-5.605,2.662-7.607
				c1.773-2.003,4.07-3.004,6.888-3.004s5.06,0.75,6.727,2.251c1.665,1.5,2.476,3.488,2.431,5.964l-0.035,0.103h-3.234
				c0-1.746-0.514-3.126-1.54-4.142c-1.027-1.015-2.477-1.522-4.348-1.522c-1.883,0-3.383,0.758-4.501,2.274
				c-1.119,1.516-1.678,3.397-1.678,5.643v4.463c0,2.269,0.559,4.162,1.678,5.678c1.118,1.517,2.618,2.274,4.501,2.274
				c1.871,0,3.32-0.505,4.348-1.515c1.026-1.01,1.54-2.405,1.54-4.185H764.508z"/>
		</g>
		<g>
			<path fill-rule="evenodd" clip-rule="evenodd" d="M709.875,610.863c0,0.742-0.607,1.348-1.348,1.348h-63.244
				c-0.742,0-1.348-0.606-1.348-1.348v-63.248c0-0.742,0.605-1.348,1.348-1.348h63.244c0.74,0,1.348,0.606,1.348,1.348V610.863z"/>
		</g>
		<g>
			<path fill="#FFFFFF" d="M677.047,577.305l5.818-9.722h4.074l-7.908,12.357l8.078,12.563h-4.021l-5.973-9.893l-5.99,9.893h-4.074
				l8.078-12.563l-7.906-12.357h4.039L677.047,577.305z"/>
		</g>
		<g>
			<path fill="#FFFFFF" d="M599.092,580.248l6.504-12.665h3.85l-8.746,16.156v8.763h-3.354v-8.985l-8.609-15.935h3.852
				L599.092,580.248z"/>
		</g>
		<g>
			<path fill="#FFFFFF" d="M514.814,565.364v-3.338l14.65,6.47v2.551l-14.65,6.486v-3.354l10.235-4.073l1.454-0.291v-0.103
				l-1.454-0.342L514.814,565.364z"/>
		</g>
		<g>
			<path fill="#FFFFFF" d="M519.107,589.948l-1.456,0.285v0.095l1.456,0.301l9.566,3.605v3.18l-13.967-5.995v-2.356l13.967-5.979
				v3.179L519.107,589.948z"/>
		</g>
		<g>
			<rect x="419.996" y="567.382" fill="#FFFFFF" width="2.697" height="25.048"/>
			<g>
				<polygon fill="#FFFFFF" points="432.371,576.315 430.396,578.155 421.347,568.416 412.295,578.155 410.32,576.315 
					421.347,564.458 				"/>
			</g>
		</g>
		<g>
			<path fill="#FFFFFF" d="M1425.158,511.084h13.932v2.653h-17.73v-2.516l13.315-19.75h-13.128v-2.653h16.979v2.413
				L1425.158,511.084z M1430.105,484.351l2.516-2.533h2.909v0.308l-4.398,4.193h-2.036l-4.348-4.159v-0.343h2.841L1430.105,484.351z
				"/>
		</g>
		<g>
			<path fill="#FFFFFF" d="M1361.865,505.744l0.033,0.103c0.046,2.339-0.775,4.299-2.465,5.879c-1.688,1.581-3.92,2.371-6.691,2.371
				c-2.818,0-5.115-0.999-6.889-2.995c-1.775-1.997-2.662-4.53-2.662-7.6v-4.433c0-3.069,0.887-5.605,2.662-7.607
				c1.773-2.003,4.07-3.004,6.889-3.004s5.061,0.75,6.727,2.251c1.666,1.5,2.476,3.488,2.43,5.964l-0.033,0.103h-3.236
				c0-1.746-0.514-3.126-1.539-4.142c-1.027-1.015-2.477-1.522-4.348-1.522c-1.883,0-3.383,0.758-4.501,2.274
				s-1.677,3.397-1.677,5.643v4.463c0,2.269,0.559,4.162,1.677,5.678c1.118,1.517,2.618,2.274,4.501,2.274
				c1.871,0,3.32-0.505,4.348-1.515c1.025-1.01,1.539-2.405,1.539-4.185H1361.865z M1354.402,482.194h3.937l0.034,0.103l-4.621,4.45
				h-2.516L1354.402,482.194z"/>
		</g>
		<g>
			<path fill="#FFFFFF" d="M1283.953,505.744l0.034,0.103c0.046,2.339-0.776,4.299-2.465,5.879
				c-1.688,1.581-3.919,2.371-6.692,2.371c-2.818,0-5.115-0.999-6.889-2.995c-1.774-1.997-2.661-4.53-2.661-7.6v-4.433
				c0-3.069,0.887-5.605,2.661-7.607c1.773-2.003,4.07-3.004,6.889-3.004s5.061,0.75,6.727,2.251c1.666,1.5,2.477,3.488,2.431,5.964
				l-0.034,0.103h-3.236c0-1.746-0.512-3.126-1.539-4.142c-1.027-1.015-2.477-1.522-4.348-1.522c-1.883,0-3.383,0.758-4.5,2.274
				c-1.119,1.516-1.678,3.397-1.678,5.643v4.463c0,2.269,0.559,4.162,1.678,5.678c1.117,1.517,2.617,2.274,4.5,2.274
				c1.871,0,3.32-0.505,4.348-1.515s1.539-2.405,1.539-4.185H1283.953z M1274.848,483.991l2.516-2.533h2.91v0.308l-4.398,4.193
				h-2.037l-4.348-4.158v-0.343h2.842L1274.848,483.991z"/>
		</g>
		<g>
			<path fill-rule="evenodd" clip-rule="evenodd" d="M1229.486,532.431c0,0.742-0.607,1.348-1.349,1.348h-63.247
				c-0.74,0-1.348-0.606-1.348-1.348v-63.247c0-0.742,0.607-1.348,1.348-1.348h63.247c0.741,0,1.349,0.606,1.349,1.348V532.431z"/>
		</g>
		<g>
			<path fill="#FFFFFF" d="M1193.436,511.084h11.791v2.653h-15.164v-24.919h3.373V511.084z"/>
		</g>
		<g>
			<path fill="#FFFFFF" d="M1116.627,502.492h-2.91v11.245h-3.371v-24.919h3.371v11.022h2.602l8.916-11.022h3.732l0.051,0.085
				l-9.67,11.963l10.371,12.785l-0.051,0.085h-4.021L1116.627,502.492z"/>
		</g>
		<g>
			<path fill="#FFFFFF" d="M1044.063,488.817h3.371v18.022c0,2.225-0.704,3.99-2.113,5.297c-1.41,1.307-3.238,1.959-5.485,1.959
				c-2.396,0-4.302-0.61-5.716-1.832c-1.416-1.221-2.094-2.989-2.037-5.305l0.034-0.103h3.234c0,1.541,0.391,2.69,1.173,3.449
				c0.781,0.759,1.885,1.138,3.312,1.138c1.243,0,2.259-0.419,3.046-1.257s1.182-1.958,1.182-3.36V488.817z"/>
		</g>
		<g>
			<path fill="#FFFFFF" d="M972.129,513.737h-3.371v-11.005h-12.1v11.005h-3.373v-24.919h3.373v11.262h12.1v-11.262h3.371V513.737z"
				/>
		</g>
		<g>
			<path fill="#FFFFFF" d="M893.988,510.434c-0.594,0.913-1.623,1.752-3.09,2.516c-1.466,0.764-3.363,1.146-5.689,1.146
				c-2.979,0-5.44-0.953-7.386-2.858c-1.945-1.906-2.918-4.37-2.918-7.394v-5.134c0-3.023,0.907-5.488,2.722-7.394
				c1.813-1.905,4.152-2.858,7.017-2.858c2.853,0,5.095,0.702,6.727,2.105c1.632,1.404,2.464,3.212,2.499,5.426l-0.035,0.102h-3.217
				c-0.104-1.448-0.654-2.641-1.652-3.577c-0.998-0.935-2.438-1.403-4.321-1.403c-1.905,0-3.44,0.712-4.604,2.137
				s-1.746,3.232-1.746,5.42v5.165c0,2.211,0.651,4.032,1.952,5.463s2.954,2.146,4.964,2.146c1.414,0,2.572-0.188,3.474-0.563
				c0.901-0.375,1.546-0.803,1.935-1.28v-5.652h-5.461v-2.653h8.832V510.434z"/>
		</g>
		<g>
			<g>
				<path fill="#FFFFFF" d="M814.486,502.715h-11.363v11.022h-3.373v-24.919h16.482v2.653h-13.109v8.591h11.363V502.715z"/>
			</g>
		</g>
		<g>
			<path fill="#FFFFFF" d="M720.504,513.737v-24.919h7.65c3.264,0,5.881,1.001,7.855,3.004c1.975,2.002,2.961,4.59,2.961,7.762
				v3.406c0,3.183-0.986,5.771-2.961,7.761c-1.975,1.991-4.592,2.987-7.855,2.987H720.504z M723.875,491.471v19.613h4.279
				c2.305,0,4.122-0.758,5.451-2.274c1.328-1.516,1.994-3.459,1.994-5.831v-3.437c0-2.348-0.666-4.281-1.994-5.797
				c-1.329-1.516-3.146-2.274-5.451-2.274H723.875z"/>
		</g>
		<g>
			<path fill-rule="evenodd" clip-rule="evenodd" d="M684.051,532.431c0,0.742-0.607,1.348-1.348,1.348h-63.247
				c-0.741,0-1.349-0.606-1.349-1.348v-63.247c0-0.742,0.607-1.348,1.349-1.348h63.247c0.74,0,1.348,0.606,1.348,1.348V532.431z"/>
		</g>
		<g>
			<path fill="#FFFFFF" d="M656.783,507.462c0-1.134-0.428-2.084-1.283-2.85c-0.856-0.766-2.373-1.41-4.553-1.931
				c-2.636-0.629-4.693-1.556-6.17-2.779c-1.479-1.224-2.217-2.762-2.217-4.615c0-1.944,0.795-3.568,2.388-4.872
				c1.591-1.304,3.653-1.956,6.187-1.956c2.728,0,4.898,0.748,6.513,2.242c1.614,1.495,2.394,3.229,2.336,5.203l-0.034,0.103h-3.217
				c0-1.46-0.482-2.642-1.447-3.543s-2.348-1.352-4.15-1.352c-1.678,0-2.963,0.379-3.859,1.138c-0.895,0.759-1.343,1.749-1.343,2.97
				c0,1.084,0.484,1.988,1.454,2.713c0.971,0.725,2.545,1.36,4.725,1.908c2.623,0.65,4.621,1.608,5.989,2.875
				c1.37,1.267,2.054,2.835,2.054,4.707c0,2.008-0.82,3.622-2.464,4.843c-1.644,1.222-3.788,1.832-6.435,1.832
				c-2.488,0-4.688-0.676-6.6-2.028c-1.91-1.353-2.838-3.158-2.779-5.417l0.033-0.103h3.218c0,1.598,0.587,2.813,1.763,3.645
				c1.175,0.833,2.629,1.25,4.365,1.25c1.699,0,3.045-0.357,4.039-1.072C656.287,509.657,656.783,508.688,656.783,507.462z"/>
		</g>
		<g>
			<path fill="#FFFFFF" d="M578.385,507.319h-10.439l-2.363,6.418h-3.439l9.637-24.919h2.892l9.481,24.919h-3.439L578.385,507.319z
				 M568.988,504.495h8.387l-4.107-11.347h-0.104L568.988,504.495z"/>
		</g>
		<g>
			<g>
				<path fill="#FFFFFF" d="M413.026,506.977c0.817,0,1.536-0.253,2.157-0.757s0.933-1.124,0.933-1.857h2.214l0.024,0.075
					c0.042,1.167-0.478,2.205-1.558,3.114c-1.079,0.909-2.336,1.363-3.771,1.363c-1.968,0-3.473-0.642-4.515-1.926
					c-1.043-1.284-1.563-2.898-1.563-4.84v-0.525c0-1.926,0.523-3.533,1.569-4.821c1.047-1.288,2.549-1.933,4.509-1.933
					c1.585,0,2.879,0.467,3.884,1.401c1.004,0.934,1.49,2.081,1.457,3.439l-0.025,0.075h-2.226c0-0.825-0.292-1.527-0.876-2.107
					c-0.584-0.579-1.322-0.869-2.214-0.869c-1.292,0-2.216,0.465-2.771,1.393c-0.555,0.929-0.831,2.068-0.831,3.417v0.524
					c0,1.383,0.274,2.534,0.825,3.454C410.801,506.516,411.726,506.977,413.026,506.977z"/>
				<path fill="#FFFFFF" d="M429.436,508.652c-0.082-0.409-0.147-0.77-0.193-1.082c-0.047-0.313-0.072-0.627-0.082-0.944
					c-0.458,0.65-1.057,1.194-1.794,1.632c-0.738,0.438-1.532,0.657-2.383,0.657c-1.409,0-2.483-0.361-3.22-1.082
					c-0.738-0.721-1.107-1.716-1.107-2.983c0-1.292,0.523-2.303,1.569-3.033c1.046-0.729,2.466-1.094,4.259-1.094h2.676v-1.338
					c0-0.792-0.242-1.42-0.725-1.883c-0.484-0.463-1.168-0.694-2.051-0.694c-0.793,0-1.437,0.203-1.933,0.607
					s-0.745,0.89-0.745,1.457h-2.352l-0.024-0.075c-0.05-0.984,0.415-1.885,1.395-2.702c0.979-0.817,2.245-1.226,3.796-1.226
					c1.535,0,2.768,0.39,3.703,1.17c0.934,0.779,1.4,1.903,1.4,3.37v6.517c0,0.483,0.025,0.95,0.074,1.4
					c0.051,0.45,0.143,0.893,0.275,1.326H429.436z M425.346,506.838c0.893,0,1.697-0.229,2.414-0.686
					c0.717-0.457,1.184-0.98,1.4-1.571v-2.195h-2.764c-0.992,0-1.787,0.25-2.383,0.749c-0.596,0.499-0.894,1.085-0.894,1.758
					c0,0.598,0.188,1.073,0.563,1.422S424.612,506.838,425.346,506.838z"/>
				<path fill="#FFFFFF" d="M446.733,502.398c0,1.951-0.468,3.525-1.401,4.722s-2.223,1.794-3.864,1.794
					c-0.835,0-1.565-0.139-2.195-0.418s-1.165-0.699-1.606-1.257v6.617h-2.465v-18.736h1.889l0.389,1.751
					c0.441-0.65,0.992-1.146,1.65-1.488s1.426-0.513,2.301-0.513c1.676,0,2.979,0.665,3.909,1.995
					c0.93,1.33,1.395,3.087,1.395,5.271V502.398z M444.27,502.129c0-1.533-0.303-2.792-0.907-3.779
					c-0.604-0.987-1.495-1.48-2.671-1.48c-0.708,0-1.313,0.161-1.813,0.481s-0.904,0.76-1.213,1.317v6.533
					c0.309,0.558,0.713,0.993,1.213,1.306s1.113,0.469,1.838,0.469c1.168,0,2.052-0.427,2.652-1.281c0.6-0.854,0.9-1.955,0.9-3.304
					V502.129z"/>
				<path fill="#FFFFFF" d="M457.627,505.05c0-0.542-0.206-0.988-0.619-1.338c-0.412-0.351-1.193-0.655-2.345-0.913
					c-1.644-0.358-2.879-0.843-3.708-1.455c-0.83-0.611-1.245-1.446-1.245-2.503c0-1.099,0.468-2.036,1.401-2.81
					c0.934-0.774,2.15-1.161,3.652-1.161c1.575,0,2.828,0.405,3.758,1.213s1.373,1.792,1.332,2.952l-0.025,0.075h-2.352
					c0-0.592-0.248-1.124-0.744-1.595c-0.496-0.471-1.152-0.707-1.969-0.707c-0.877,0-1.526,0.192-1.951,0.576
					c-0.426,0.383-0.639,0.846-0.639,1.388c0,0.534,0.188,0.955,0.563,1.264c0.376,0.308,1.139,0.583,2.289,0.825
					c1.709,0.367,2.981,0.865,3.814,1.494c0.834,0.63,1.252,1.474,1.252,2.533c0,1.2-0.486,2.172-1.457,2.914
					c-0.973,0.742-2.242,1.113-3.809,1.113c-1.727,0-3.086-0.438-4.078-1.313c-0.992-0.876-1.463-1.896-1.413-3.064l0.024-0.075
					h2.352c0.042,0.871,0.367,1.509,0.976,1.911s1.321,0.604,2.14,0.604c0.875,0,1.561-0.178,2.057-0.532
					C457.379,506.09,457.627,505.625,457.627,505.05z"/>
				<path fill="#FFFFFF" d="M472.186,508.652h-2.464v-19.511h2.464V508.652z"/>
				<path fill="#FFFFFF" d="M475.4,501.761c0-2.001,0.543-3.65,1.626-4.946c1.083-1.297,2.556-1.945,4.415-1.945
					c1.877,0,3.358,0.646,4.445,1.938c1.089,1.293,1.633,2.943,1.633,4.953v0.275c0,2.018-0.541,3.669-1.626,4.953
					c-1.083,1.284-2.56,1.926-4.427,1.926c-1.869,0-3.346-0.644-4.434-1.932c-1.089-1.288-1.633-2.937-1.633-4.947V501.761z
					 M477.865,502.029c0,1.433,0.301,2.615,0.906,3.548c0.604,0.933,1.502,1.399,2.695,1.399c1.176,0,2.067-0.467,2.676-1.399
					c0.609-0.933,0.914-2.115,0.914-3.548v-0.274c0-1.416-0.307-2.594-0.92-3.536c-0.613-0.941-1.512-1.412-2.695-1.412
					c-1.176,0-2.066,0.471-2.67,1.412c-0.605,0.941-0.906,2.12-0.906,3.536V502.029z"/>
				<path fill="#FFFFFF" d="M496.037,506.977c0.817,0,1.537-0.253,2.158-0.757s0.932-1.124,0.932-1.857h2.213l0.025,0.075
					c0.041,1.167-0.477,2.205-1.557,3.114s-2.337,1.363-3.771,1.363c-1.968,0-3.473-0.642-4.515-1.926s-1.563-2.898-1.563-4.84
					v-0.525c0-1.926,0.523-3.533,1.57-4.821c1.045-1.288,2.549-1.933,4.508-1.933c1.584,0,2.879,0.467,3.884,1.401
					c1.005,0.934,1.491,2.081,1.457,3.439l-0.024,0.075h-2.227c0-0.825-0.292-1.527-0.875-2.107
					c-0.584-0.579-1.322-0.869-2.215-0.869c-1.292,0-2.215,0.465-2.77,1.393c-0.555,0.929-0.832,2.068-0.832,3.417v0.524
					c0,1.383,0.275,2.534,0.825,3.454C493.812,506.516,494.736,506.977,496.037,506.977z"/>
				<path fill="#FFFFFF" d="M508.207,502.386h-1.602v6.267h-2.463v-19.511h2.463v11.306h1.576l3.703-5.328h2.951l-4.627,6.143
					l5.29,7.39h-2.902L508.207,502.386z"/>
			</g>
		</g>
		<g>
			<path fill="#FFFFFF" d="M1406.152,436.156v-11.347h-2.875v-2.653h2.875v-10.919h7.651c3.263,0,5.882,1.001,7.855,3.004
				s2.961,4.59,2.961,7.762v3.406c0,3.184-0.987,5.771-2.961,7.762s-4.593,2.986-7.855,2.986H1406.152z M1414.249,424.809h-4.724
				v8.695h4.278c2.305,0,4.122-0.758,5.45-2.274c1.33-1.517,1.995-3.46,1.995-5.831v-3.438c0-2.349-0.665-4.28-1.995-5.797
				c-1.328-1.517-3.146-2.274-5.45-2.274h-4.278v8.267h4.724V424.809z"/>
		</g>
		<g>
			<path fill="#FFFFFF" d="M1342.17,429.881c0-1.134-0.428-2.084-1.283-2.85c-0.856-0.766-2.373-1.409-4.553-1.931
				c-2.636-0.629-4.693-1.555-6.17-2.779c-1.479-1.224-2.217-2.762-2.217-4.615c0-1.944,0.795-3.568,2.389-4.873
				c1.59-1.304,3.652-1.956,6.186-1.956c2.728,0,4.898,0.748,6.513,2.242s2.394,3.229,2.336,5.203l-0.034,0.102h-3.217
				c0-1.46-0.482-2.641-1.447-3.542s-2.348-1.353-4.15-1.353c-1.678,0-2.963,0.38-3.859,1.138c-0.895,0.759-1.344,1.749-1.344,2.969
				c0,1.084,0.485,1.988,1.455,2.713c0.971,0.725,2.545,1.361,4.725,1.908c2.623,0.65,4.621,1.609,5.989,2.876
				c1.37,1.266,2.054,2.835,2.054,4.706c0,2.009-0.82,3.623-2.464,4.844s-3.788,1.831-6.435,1.831c-2.488,0-4.688-0.676-6.6-2.028
				c-1.91-1.352-2.838-3.157-2.779-5.417l0.033-0.103h3.217c0,1.598,0.588,2.813,1.764,3.646c1.174,0.833,2.629,1.25,4.365,1.25
				c1.699,0,3.045-0.357,4.039-1.072C1341.674,432.077,1342.17,431.106,1342.17,429.881z M1335.991,406.411l2.517-2.533h2.909v0.308
				l-4.399,4.193h-2.035l-4.348-4.159v-0.342h2.841L1335.991,406.411z"/>
		</g>
		<g>
			<path fill="#FFFFFF" d="M1253.758,426.161v9.995h-3.373v-24.919h9.535c2.657,0,4.723,0.685,6.195,2.054
				c1.471,1.369,2.207,3.172,2.207,5.408c0,2.271-0.736,4.082-2.207,5.434c-1.473,1.353-3.538,2.028-6.195,2.028H1253.758z
				 M1253.758,423.508h6.162c1.688,0,2.949-0.453,3.781-1.358c0.833-0.906,1.25-2.047,1.25-3.426c0-1.378-0.42-2.528-1.258-3.451
				c-0.839-0.922-2.098-1.384-3.773-1.384h-6.162V423.508z"/>
		</g>
		<g>
			<path fill-rule="evenodd" clip-rule="evenodd" d="M1213.472,455.088c0,0.742-0.606,1.348-1.349,1.348h-63.246
				c-0.742,0-1.348-0.606-1.348-1.348v-63.246c0-0.742,0.605-1.348,1.348-1.348h63.246c0.742,0,1.349,0.606,1.349,1.348V455.088z"/>
		</g>
		<g>
			<path fill="#FFFFFF" d="M1190.615,425.922c0,3.046-0.944,5.573-2.832,7.582c-1.889,2.008-4.339,3.012-7.352,3.012
				c-2.909,0-5.273-1.004-7.094-3.012c-1.82-2.009-2.729-4.536-2.729-7.582v-4.433c0-3.035,0.909-5.562,2.729-7.582
				c1.82-2.02,4.185-3.029,7.094-3.029c3.013,0,5.463,1.007,7.352,3.021c1.888,2.014,2.832,4.544,2.832,7.59V425.922z
				 M1187.244,421.455c0-2.282-0.616-4.153-1.85-5.614c-1.231-1.46-2.887-2.19-4.963-2.19c-1.963,0-3.527,0.73-4.697,2.19
				c-1.17,1.461-1.755,3.332-1.755,5.614v4.467c0,2.305,0.585,4.188,1.755,5.647c1.17,1.461,2.734,2.191,4.697,2.191
				c2.088,0,3.746-0.727,4.973-2.182s1.84-3.34,1.84-5.656V421.455z"/>
		</g>
		<g>
			<path fill="#FFFFFF" d="M1104.396,436.156h-3.389v-24.919h3.389V436.156z"/>
		</g>
		<g>
			<path fill="#FFFFFF" d="M1034.229,411.237v16.893c0,2.715-0.881,4.792-2.644,6.23s-4.065,2.156-6.906,2.156
				c-2.738,0-4.96-0.722-6.667-2.165c-1.705-1.443-2.559-3.517-2.559-6.221v-16.893h3.373v16.879c0,1.882,0.535,3.31,1.607,4.285
				c1.073,0.975,2.488,1.462,4.245,1.462c1.849,0,3.341-0.487,4.476-1.462s1.703-2.403,1.703-4.285v-16.879H1034.229z"/>
		</g>
		<g>
			<path fill="#FFFFFF" d="M941.857,433.504h13.932v2.652h-17.731v-2.516l13.315-19.751h-13.127v-2.653h16.979v2.414
				L941.857,433.504z"/>
		</g>
		<g>
			<path fill="#FFFFFF" d="M878.656,413.89h-8.01v22.267h-3.371V413.89h-7.992v-2.653h19.373V413.89z"/>
		</g>
		<g>
			<path fill="#FFFFFF" d="M785.897,425.356v10.8h-3.372v-24.902h9.02c2.728,0,4.81,0.605,6.247,1.814
				c1.438,1.209,2.157,2.967,2.157,5.271c0,1.278-0.334,2.391-1.002,3.337c-0.667,0.947-1.64,1.701-2.918,2.26
				c1.369,0.445,2.354,1.167,2.953,2.165c0.599,0.998,0.898,2.233,0.898,3.705v2.345c0,0.776,0.086,1.472,0.256,2.088
				c0.172,0.616,0.468,1.119,0.891,1.506v0.411h-3.475c-0.445-0.388-0.73-0.958-0.855-1.711c-0.125-0.753-0.189-1.529-0.189-2.328
				v-2.276c0-1.346-0.393-2.43-1.18-3.252c-0.787-0.821-1.844-1.232-3.166-1.232H785.897z M785.897,422.704h5.306
				c1.905,0,3.277-0.362,4.116-1.085c0.839-0.723,1.258-1.824,1.258-3.305c0-1.401-0.407-2.486-1.224-3.255
				c-0.816-0.768-2.086-1.153-3.809-1.153h-5.647V422.704z"/>
		</g>
		<g>
			<path fill="#FFFFFF" d="M720.768,424.604h-11.416v8.9h13.162v2.652H705.98v-24.919h16.346v2.653h-12.975v8.062h11.416V424.604z"
				/>
		</g>
		<g>
			<path fill-rule="evenodd" clip-rule="evenodd" d="M668.035,455.088c0,0.742-0.607,1.348-1.348,1.348h-63.246
				c-0.74,0-1.348-0.606-1.348-1.348v-63.246c0-0.742,0.607-1.348,1.348-1.348h63.246c0.74,0,1.348,0.606,1.348,1.348V455.088z"/>
		</g>
		<g>
			<path fill="#FFFFFF" d="M627.832,427.53l0.463,3.115l0.103,0.017l0.667-3.132l4.57-16.293h2.979l4.604,16.293l0.685,3.201h0.103
				l0.496-3.201l3.714-16.293h3.372l-6.008,24.919h-3.012l-4.912-17.286l-0.445-2.242h-0.102l-0.429,2.242l-4.997,17.286h-3.014
				l-5.989-24.919h3.354L627.832,427.53z"/>
		</g>
		<g>
			<path fill="#FFFFFF" d="M567.316,425.922c0,1.62-0.285,3.12-0.855,4.501s-1.369,2.55-2.396,3.509l4.228,3.987l-2.311,2.208
				l-4.725-4.398c-0.639,0.263-1.303,0.459-1.993,0.59s-1.401,0.197-2.132,0.197c-2.908,0-5.273-1.004-7.094-3.012
				c-1.82-2.009-2.729-4.536-2.729-7.582v-4.433c0-3.035,0.908-5.562,2.729-7.582c1.82-2.02,4.186-3.029,7.094-3.029
				c3.014,0,5.463,1.007,7.352,3.021s2.832,4.544,2.832,7.59V425.922z M563.945,421.455c0-2.282-0.615-4.153-1.849-5.614
				c-1.231-1.46-2.887-2.19-4.964-2.19c-1.962,0-3.527,0.73-4.697,2.19c-1.17,1.461-1.754,3.332-1.754,5.614v4.467
				c0,2.305,0.584,4.188,1.754,5.647c1.17,1.461,2.735,2.191,4.697,2.191c2.089,0,3.746-0.727,4.973-2.182s1.84-3.34,1.84-5.656
				V421.455z"/>
		</g>
		<g>
			<path fill="#FFFFFF" d="M412.123,416.212v3.265h2.563v1.826h-2.563v8.217c0,0.634,0.131,1.08,0.393,1.338
				c0.264,0.258,0.611,0.387,1.045,0.387c0.142,0,0.298-0.016,0.469-0.05c0.172-0.033,0.324-0.075,0.457-0.125l0.325,1.688
				c-0.184,0.15-0.452,0.273-0.808,0.369c-0.354,0.096-0.711,0.144-1.068,0.144c-1,0-1.797-0.302-2.389-0.906
				s-0.889-1.553-0.889-2.846v-8.217h-2.151v-1.826h2.151v-3.265H412.123z"/>
			<path fill="#FFFFFF" d="M426.042,433.009c-0.083-0.408-0.147-0.769-0.194-1.082c-0.045-0.313-0.072-0.627-0.08-0.944
				c-0.459,0.65-1.058,1.195-1.795,1.632c-0.738,0.438-1.532,0.656-2.383,0.656c-1.41,0-2.482-0.36-3.221-1.082
				s-1.107-1.715-1.107-2.983c0-1.292,0.523-2.304,1.57-3.033c1.046-0.729,2.465-1.094,4.258-1.094h2.678v-1.339
				c0-0.792-0.242-1.419-0.726-1.882c-0.484-0.463-1.168-0.694-2.052-0.694c-0.792,0-1.436,0.202-1.932,0.606
				s-0.744,0.891-0.744,1.457h-2.352l-0.025-0.075c-0.051-0.983,0.414-1.884,1.395-2.701c0.979-0.817,2.245-1.226,3.796-1.226
				c1.534,0,2.769,0.39,3.702,1.169c0.934,0.78,1.4,1.903,1.4,3.371v6.516c0,0.484,0.025,0.951,0.076,1.401
				c0.049,0.45,0.141,0.892,0.274,1.325H426.042z M421.952,431.195c0.892,0,1.696-0.229,2.414-0.686s1.184-0.981,1.401-1.572v-2.195
				h-2.765c-0.992,0-1.786,0.25-2.383,0.748c-0.597,0.499-0.894,1.085-0.894,1.759c0,0.599,0.188,1.073,0.563,1.422
				C420.664,431.021,421.219,431.195,421.952,431.195z"/>
			<path fill="#FFFFFF" d="M443.365,426.756c0,1.951-0.471,3.524-1.408,4.721s-2.229,1.794-3.871,1.794
				c-0.892,0-1.668-0.173-2.326-0.519c-0.658-0.346-1.205-0.857-1.639-1.532l-0.299,1.788h-2.015v-19.511h2.464v7.579
				c0.426-0.6,0.953-1.059,1.582-1.375c0.63-0.317,1.365-0.475,2.208-0.475c1.667,0,2.968,0.667,3.902,2.001
				c0.934,1.334,1.401,3.089,1.401,5.266V426.756z M440.9,426.493c0-1.551-0.285-2.816-0.857-3.796
				c-0.57-0.98-1.439-1.47-2.607-1.47c-0.758,0-1.398,0.186-1.92,0.557c-0.521,0.371-0.936,0.869-1.244,1.494v5.866
				c0.317,0.667,0.732,1.188,1.244,1.563c0.514,0.375,1.162,0.563,1.945,0.563c1.159,0,2.021-0.413,2.589-1.238
				c0.567-0.825,0.851-1.918,0.851-3.276V426.493z"/>
		</g>
		<g>
			<rect x="1483.758" y="344.917" fill="#FFFFFF" width="25.053" height="2.696"/>
			<g>
				<polygon fill="#FFFFFF" points="1492.691,335.237 1494.531,337.212 1484.792,346.262 1494.531,355.314 1492.691,357.289 
					1480.834,346.262 				"/>
			</g>
		</g>
		<g>
			<path fill="#FFFFFF" d="M1376.227,357.956h5.779v2.578h-5.779v6.647h-2.853v-6.647h-5.821v-2.578h5.821v-6.125h2.853V357.956z"/>
		</g>
		<g>
			<path fill="#FFFFFF" d="M1351.047,329.472l-4.286-1.289l0.71-2.23l4.286,1.607l-0.145-4.952h2.331l-0.145,5.039l4.243-1.593
				l0.695,2.259l-4.374,1.289l2.795,3.91l-1.896,1.391l-2.621-4.156l-2.549,4.04l-1.912-1.347L1351.047,329.472z"/>
		</g>
		<g>
			<path fill="#FFFFFF" d="M1295.054,353.209l2.317-5.156h1.404l-0.869,5.243v2.578h-2.853V353.209z"/>
		</g>
		<g>
			<path fill="#FFFFFF" d="M1274.277,337.755c0.01-1.399,0.131-2.37,0.362-2.911s0.84-1.255,1.825-2.143
				c0.955-1.13,1.636-1.999,2.041-2.607c0.406-0.608,0.609-1.342,0.609-2.201c0-1.023-0.273-1.811-0.818-2.361
				c-0.547-0.55-1.326-0.825-2.34-0.825c-0.879,0-1.627,0.239-2.244,0.717c-0.617,0.478-0.928,1.18-0.928,2.107h-2.723l-0.043-0.087
				c-0.028-1.554,0.52-2.799,1.645-3.736c1.124-0.936,2.555-1.405,4.293-1.405c1.902,0,3.379,0.485,4.432,1.456
				s1.579,2.324,1.579,4.062c0,1.246-0.341,2.385-1.021,3.418c-0.682,1.033-1.582,2.09-2.701,3.172
				c-0.521,0.521-0.838,0.989-0.949,1.404s-0.166,1.063-0.166,1.94H1274.277z M1277.232,343.692h-2.984v-3.012h2.984V343.692z"/>
		</g>
		<g>
			<path fill-rule="evenodd" clip-rule="evenodd" d="M1241.242,377.796c0,0.742-0.607,1.348-1.348,1.348h-63.249
				c-0.741,0-1.349-0.606-1.349-1.348v-63.251c0-0.742,0.607-1.348,1.349-1.348h63.249c0.74,0,1.348,0.606,1.348,1.348V377.796z"/>
		</g>
		<g>
			<path fill="#FFFFFF" d="M1225.715,361.258c0,2.694-0.596,4.757-1.787,6.191c-1.193,1.434-2.827,2.151-4.902,2.151
				c-2.076,0-3.718-0.719-4.924-2.158c-1.207-1.438-1.811-3.5-1.811-6.184v-4.996c0-2.684,0.602-4.748,1.803-6.191
				c1.202-1.443,2.836-2.165,4.902-2.165c2.076,0,3.715,0.722,4.916,2.165c1.203,1.443,1.803,3.507,1.803,6.191V361.258z
				 M1222.863,355.649c0-1.823-0.332-3.195-0.992-4.117c-0.662-0.921-1.619-1.381-2.875-1.381c-1.255,0-2.211,0.46-2.867,1.381
				c-0.657,0.922-0.985,2.294-0.985,4.117v6.179c0,1.823,0.333,3.2,0.999,4.131c0.666,0.931,1.627,1.396,2.883,1.396
				c1.255,0,2.208-0.463,2.859-1.39c0.652-0.926,0.979-2.305,0.979-4.138V355.649z"/>
		</g>
		<g>
			<path fill="#FFFFFF" d="M1205.558,329.077h-12.077v-2.404h12.077V329.077z M1205.558,335.131h-12.077v-2.404h12.077V335.131z"/>
		</g>
		<g>
			<path fill="#FFFFFF" d="M1140.147,367.355c1.391,0,2.503-0.525,3.339-1.574c0.834-1.05,1.252-2.61,1.252-4.683v-0.956
				c-0.473,0.686-1.064,1.205-1.773,1.557c-0.711,0.353-1.5,0.528-2.368,0.528c-2.038,0-3.655-0.63-4.852-1.89
				s-1.796-2.995-1.796-5.206c0-2.115,0.635-3.848,1.904-5.199s2.813-2.027,4.627-2.027c2.201,0,3.937,0.688,5.207,2.063
				c1.27,1.376,1.904,3.401,1.904,6.075v5.025c0,2.751-0.688,4.861-2.064,6.328c-1.375,1.468-3.169,2.202-5.38,2.202
				c-0.743,0-1.499-0.071-2.267-0.211s-1.455-0.357-2.063-0.648l0.434-2.196c0.57,0.3,1.161,0.51,1.774,0.63
				C1138.639,367.295,1139.346,367.355,1140.147,367.355z M1140.597,359.984c1.052,0,1.929-0.227,2.628-0.68
				c0.7-0.453,1.205-1.032,1.514-1.735v-1.822c0-1.841-0.355-3.234-1.064-4.179c-0.709-0.945-1.745-1.417-3.105-1.417
				c-1.043,0-1.932,0.465-2.666,1.395c-0.732,0.931-1.1,2.124-1.1,3.579c0,1.446,0.34,2.618,1.021,3.514
				S1139.429,359.984,1140.597,359.984z"/>
		</g>
		<g>
			<path fill="#FFFFFF" d="M1123.256,335.264c0,3.814-0.77,7.065-2.311,9.753c-1.539,2.688-3.149,4.482-4.83,5.38h-0.086
				l-0.551-1.563c1.305-1.014,2.45-2.682,3.439-5.004c0.99-2.322,1.484-5.167,1.484-8.537v-0.188c0-3.301-0.509-6.118-1.527-8.45
				c-1.02-2.332-2.15-4.028-3.396-5.09l0.551-1.564h0.086c1.681,0.898,3.291,2.693,4.83,5.387c1.541,2.693,2.311,5.942,2.311,9.746
				V335.264z"/>
		</g>
		<g>
			<path fill="#FFFFFF" d="M1069.461,353.713c0,1.1-0.309,2.064-0.927,2.889s-1.453,1.441-2.505,1.847
				c1.216,0.425,2.188,1.091,2.918,1.998c0.729,0.907,1.094,1.955,1.094,3.143c0,1.95-0.636,3.439-1.906,4.468
				c-1.269,1.028-2.917,1.542-4.944,1.542c-2.066,0-3.729-0.514-4.989-1.542s-1.89-2.518-1.89-4.468
				c0-1.188,0.356-2.235,1.071-3.143s1.68-1.573,2.896-1.998c-1.053-0.406-1.878-1.021-2.477-1.847
				c-0.598-0.825-0.897-1.789-0.897-2.889c0-1.854,0.571-3.285,1.716-4.294c1.145-1.008,2.658-1.513,4.541-1.513
				c1.853,0,3.365,0.504,4.539,1.513C1068.874,350.428,1069.461,351.859,1069.461,353.713z M1067.201,363.524
				c0-1.156-0.381-2.105-1.144-2.848c-0.763-0.741-1.728-1.112-2.896-1.112c-1.188,0-2.151,0.371-2.89,1.112
				c-0.739,0.742-1.108,1.691-1.108,2.848c0,1.195,0.367,2.133,1.101,2.812s1.71,1.019,2.926,1.019c1.188,0,2.152-0.342,2.896-1.026
				C1066.83,365.645,1067.201,364.71,1067.201,363.524z M1066.607,353.771c0-1.043-0.326-1.907-0.977-2.593
				c-0.652-0.686-1.476-1.028-2.469-1.028c-1.015,0-1.835,0.331-2.463,0.992c-0.627,0.661-0.941,1.538-0.941,2.629
				c0,1.071,0.316,1.931,0.949,2.577c0.632,0.647,1.46,0.971,2.483,0.971c1.004,0,1.824-0.323,2.462-0.971
				C1066.289,355.702,1066.607,354.843,1066.607,353.771z"/>
		</g>
		<g>
			<path fill="#FFFFFF" d="M1034.055,335.134c0-3.804,0.768-7.053,2.303-9.746c1.535-2.694,3.148-4.489,4.838-5.387l0.086,0.014
				l0.551,1.68c-1.322,1.033-2.475,2.689-3.454,4.968s-1.47,5.093-1.47,8.442v0.188c0,3.351,0.486,6.165,1.463,8.443
				c0.975,2.278,2.129,3.978,3.461,5.098l-0.551,1.563h-0.086c-1.689-0.897-3.303-2.691-4.838-5.38s-2.303-5.939-2.303-9.753
				V335.134z"/>
		</g>
		<g>
			<path fill="#FFFFFF" d="M992.305,350.455c-2.549,3.031-4.27,5.718-5.162,8.059c-0.894,2.341-1.538,5.177-1.934,8.508
				l-0.232,2.274h-2.853l0.231-2.274c0.405-3.321,1.191-6.29,2.361-8.906c1.168-2.616,2.766-5.17,4.793-7.661h-11.471v-2.245h14.266
				V350.455z"/>
		</g>
		<g>
			<path fill="#FFFFFF" d="M958.354,345.503h-2.433l8.805-22.896h2.418L958.354,345.503z"/>
		</g>
		<g>
			<path fill="#FFFFFF" d="M908.785,347.906c0.725,0,1.441,0.082,2.15,0.246s1.297,0.372,1.76,0.623l-0.607,2.187
				c-0.475-0.241-0.969-0.437-1.484-0.587c-0.518-0.149-1.123-0.224-1.818-0.224c-1.506,0-2.721,0.604-3.643,1.81
				c-0.922,1.207-1.383,2.78-1.383,4.721v0.333c0.618-0.541,1.325-0.964,2.122-1.268c0.796-0.304,1.653-0.456,2.57-0.456
				c1.883,0,3.384,0.651,4.504,1.955c1.12,1.303,1.68,2.954,1.68,4.953c0,2.182-0.597,3.961-1.788,5.336
				c-1.192,1.376-2.783,2.064-4.771,2.064c-2.066,0-3.775-0.749-5.127-2.245c-1.352-1.497-2.027-3.606-2.027-6.329V357
				c0-2.703,0.753-4.895,2.26-6.575C904.687,348.746,906.555,347.906,908.785,347.906z M907.814,357.421
				c-0.975,0-1.805,0.197-2.49,0.593c-0.686,0.395-1.207,0.92-1.564,1.576v1.706c0,1.938,0.41,3.433,1.231,4.483
				c0.82,1.051,1.849,1.576,3.085,1.576c1.168,0,2.078-0.494,2.729-1.482c0.652-0.988,0.979-2.215,0.979-3.681
				c0-1.388-0.351-2.53-1.05-3.427C910.033,357.869,909.061,357.421,907.814,357.421z"/>
		</g>
		<g>
			<path fill="#FFFFFF" d="M875.617,338.016c0-1.178,0.34-2.208,1.021-3.092c0.68-0.884,1.696-1.769,3.048-2.657
				c-0.753-0.956-1.313-1.808-1.68-2.557c-0.367-0.748-0.55-1.518-0.55-2.31c0-1.631,0.471-2.889,1.412-3.772
				c0.941-0.883,2.236-1.325,3.888-1.325c1.524,0,2.767,0.439,3.722,1.318c0.955,0.878,1.434,1.936,1.434,3.171
				c0,0.947-0.253,1.765-0.76,2.455c-0.508,0.69-1.258,1.397-2.252,2.121l-1.578,1.159l4.923,5.923
				c0.396-0.627,0.704-1.323,0.927-2.085c0.223-0.763,0.334-1.569,0.334-2.419h2.549c0,1.274-0.188,2.453-0.564,3.533
				c-0.377,1.082-0.924,2.052-1.637,2.911l2.678,3.229l-0.028,0.072h-3.316l-1.23-1.477c-0.772,0.58-1.628,1.021-2.563,1.326
				c-0.937,0.304-1.906,0.456-2.91,0.456c-2.096,0-3.764-0.555-5.004-1.666C876.237,341.221,875.617,339.782,875.617,338.016z
				 M882.482,341.752c0.695,0,1.38-0.118,2.056-0.354c0.676-0.236,1.313-0.576,1.911-1.02l-5.228-6.288l-0.579,0.419
				c-0.879,0.656-1.461,1.282-1.745,1.879c-0.285,0.597-0.427,1.137-0.427,1.619c0,1.089,0.342,1.986,1.027,2.689
				S881.178,341.752,882.482,341.752z M880.309,327.372c0,0.512,0.131,1.045,0.393,1.6c0.26,0.556,0.65,1.161,1.172,1.817
				l1.998-1.376c0.551-0.366,0.926-0.765,1.123-1.194s0.297-0.905,0.297-1.427c0-0.588-0.234-1.11-0.702-1.563
				c-0.469-0.454-1.079-0.681-1.832-0.681c-0.782,0-1.386,0.272-1.81,0.818C880.521,325.911,880.309,326.58,880.309,327.372z"/>
		</g>
		<g>
			<path fill="#FFFFFF" d="M823.635,359.781l1.217-11.571h10.557v2.535h-8.139l-0.695,5.923c0.444-0.328,0.939-0.602,1.484-0.818
				c0.546-0.218,1.176-0.335,1.891-0.355c1.94-0.019,3.469,0.613,4.584,1.897c1.114,1.284,1.672,3.013,1.672,5.185
				c0,2.114-0.566,3.813-1.701,5.098s-2.789,1.926-4.961,1.926c-1.785,0-3.271-0.488-4.459-1.463s-1.758-2.409-1.71-4.301
				l0.028-0.087h2.578c0,1.145,0.331,2.032,0.992,2.662c0.662,0.629,1.519,0.945,2.57,0.945c1.207,0,2.144-0.424,2.811-1.272
				c0.666-0.849,0.998-2.01,0.998-3.485c0-1.349-0.338-2.458-1.013-3.325c-0.677-0.868-1.608-1.302-2.796-1.302
				c-1.119,0-1.931,0.169-2.432,0.507c-0.503,0.338-0.869,0.854-1.102,1.55L823.635,359.781z"/>
		</g>
		<g>
			<path fill="#FFFFFF" d="M796.679,326.662c0-1.226,0.396-2.259,1.188-3.099c0.792-0.84,1.849-1.26,3.171-1.26
				s2.381,0.418,3.172,1.253s1.188,1.871,1.188,3.106v1.115c0,1.226-0.394,2.254-1.18,3.084c-0.787,0.831-1.838,1.246-3.15,1.246
				c-1.332,0-2.396-0.415-3.193-1.246c-0.796-0.831-1.194-1.859-1.194-3.084V326.662z M798.793,327.777
				c0,0.714,0.195,1.32,0.586,1.817s0.953,0.746,1.688,0.746c0.705,0,1.25-0.246,1.637-0.739c0.386-0.492,0.58-1.101,0.58-1.824
				v-1.115c0-0.714-0.197-1.325-0.588-1.832s-0.943-0.761-1.658-0.761c-0.723,0-1.279,0.254-1.664,0.761
				c-0.387,0.507-0.58,1.118-0.58,1.832V327.777z M801.805,342.1l-1.578-0.97l10.297-16.48l1.578,0.97L801.805,342.1z
				 M806.889,338.522c0-1.226,0.396-2.256,1.188-3.092c0.791-0.835,1.849-1.252,3.172-1.252c1.313,0,2.367,0.417,3.164,1.252
				c0.797,0.835,1.193,1.866,1.193,3.092v1.13c0,1.235-0.395,2.269-1.188,3.099c-0.791,0.831-1.838,1.246-3.142,1.246
				c-1.332,0-2.397-0.415-3.192-1.246c-0.797-0.83-1.195-1.863-1.195-3.099V338.522z M809.003,339.652
				c0,0.724,0.195,1.335,0.586,1.832c0.392,0.497,0.954,0.746,1.688,0.746c0.704,0,1.25-0.249,1.637-0.746
				c0.386-0.497,0.579-1.108,0.579-1.832v-1.13c0-0.714-0.197-1.322-0.594-1.825c-0.396-0.501-0.946-0.752-1.65-0.752
				c-0.715,0-1.268,0.251-1.659,0.752c-0.391,0.502-0.586,1.111-0.586,1.825V339.652z"/>
		</g>
		<g>
			<path fill="#FFFFFF" d="M756.293,362.2h2.912v2.245h-2.912v4.852h-2.838v-4.852h-9.471v-1.608l9.297-14.626h3.012V362.2z
				 M747.025,362.2h6.43v-9.891l-0.088-0.015l-0.274,0.724L747.025,362.2z"/>
		</g>
		<g>
			<path fill="#FFFFFF" d="M732.041,338.247c0-0.858-0.309-1.598-0.928-2.215c-0.617-0.618-1.631-1.168-3.041-1.651
				c-1.949-0.589-3.422-1.376-4.417-2.36c-0.995-0.985-1.491-2.298-1.491-3.939c0-1.593,0.456-2.891,1.369-3.896
				c0.912-1.004,2.169-1.607,3.771-1.81v-3.201h2.288v3.215c1.622,0.232,2.88,0.925,3.772,2.078c0.893,1.154,1.34,2.701,1.34,4.642
				h-2.838c0-1.313-0.305-2.375-0.912-3.186c-0.609-0.812-1.453-1.217-2.535-1.217c-1.139,0-1.991,0.297-2.557,0.891
				c-0.564,0.594-0.846,1.407-0.846,2.44c0,0.937,0.291,1.695,0.875,2.274s1.639,1.13,3.165,1.65
				c1.979,0.638,3.446,1.432,4.402,2.383s1.434,2.242,1.434,3.874c0,1.66-0.497,2.981-1.491,3.961
				c-0.994,0.979-2.361,1.561-4.099,1.745v2.781h-2.274v-2.767c-1.66-0.174-3.021-0.779-4.084-1.817
				c-1.061-1.038-1.572-2.561-1.535-4.569l0.029-0.073h2.752c0,1.487,0.374,2.547,1.123,3.179c0.747,0.632,1.666,0.949,2.758,0.949
				c1.246,0,2.219-0.297,2.918-0.891C731.69,340.123,732.041,339.3,732.041,338.247z"/>
		</g>
		<g>
			<path fill-rule="evenodd" clip-rule="evenodd" d="M695.805,377.796c0,0.742-0.605,1.348-1.348,1.348h-63.245
				c-0.741,0-1.349-0.606-1.349-1.348v-63.251c0-0.742,0.607-1.348,1.349-1.348h63.245c0.742,0,1.348,0.606,1.348,1.348V377.796z"/>
		</g>
		<g>
			<path fill="#FFFFFF" d="M670.893,357.436h2.492c1.264,0,2.158-0.316,2.686-0.949c0.526-0.632,0.789-1.513,0.789-2.643
				c0-1.207-0.299-2.124-0.898-2.752c-0.598-0.627-1.481-0.941-2.649-0.941c-1.11,0-2.001,0.326-2.672,0.977
				c-0.671,0.652-1.007,1.519-1.007,2.6h-2.736l-0.029-0.087c-0.049-1.593,0.529-2.947,1.73-4.062
				c1.202-1.115,2.773-1.672,4.714-1.672c1.95,0,3.505,0.519,4.663,1.557s1.738,2.518,1.738,4.438c0,0.869-0.264,1.736-0.789,2.6
				c-0.527,0.864-1.316,1.523-2.369,1.977c1.266,0.416,2.16,1.067,2.688,1.955c0.525,0.889,0.789,1.883,0.789,2.983
				c0,1.922-0.63,3.433-1.891,4.533c-1.26,1.101-2.869,1.651-4.829,1.651c-1.921,0-3.512-0.519-4.772-1.557
				c-1.26-1.037-1.865-2.445-1.816-4.222l0.043-0.086h2.723c0,1.106,0.34,1.986,1.021,2.64c0.68,0.653,1.614,0.98,2.802,0.98
				c1.207,0,2.153-0.327,2.839-0.981c0.685-0.653,1.027-1.62,1.027-2.899c0-1.299-0.304-2.256-0.912-2.871
				c-0.607-0.615-1.568-0.924-2.881-0.924h-2.492V357.436z"/>
		</g>
		<g>
			<path fill="#FFFFFF" d="M652.612,337.755h-3.692l-1.159,5.938h-2.187l1.158-5.938h-3.417v-2.027h3.823l0.984-5.068h-3.707v-2.028
				h4.113l1.188-6.024h2.186l-1.188,6.024h3.693l1.188-6.024h2.188l-1.188,6.024h2.881v2.028h-3.273l-0.984,5.068h3.172v2.027
				h-3.576l-1.159,5.938h-2.202L652.612,337.755z M649.324,335.728h3.693l0.985-5.068h-3.692L649.324,335.728z"/>
		</g>
		<g>
			<path fill-rule="evenodd" clip-rule="evenodd" d="M617.889,377.796c0,0.742-0.605,1.348-1.348,1.348h-63.25
				c-0.742,0-1.348-0.606-1.348-1.348v-63.251c0-0.742,0.605-1.348,1.348-1.348h63.25c0.742,0,1.348,0.606,1.348,1.348V377.796z"/>
		</g>
		<g>
			<path fill="#FFFFFF" d="M602.744,369.296h-13.671v-1.968l6.907-7.663c1.236-1.38,2.074-2.477,2.514-3.287
				c0.439-0.811,0.658-1.641,0.658-2.491c0-1.052-0.306-1.938-0.919-2.658c-0.613-0.719-1.427-1.079-2.44-1.079
				c-1.458,0-2.532,0.375-3.223,1.123c-0.689,0.748-1.035,1.798-1.035,3.149h-2.736l-0.029-0.087
				c-0.049-1.814,0.555-3.34,1.811-4.576c1.255-1.236,2.992-1.854,5.213-1.854c1.893,0,3.4,0.553,4.525,1.658
				s1.688,2.512,1.688,4.221c0,1.149-0.34,2.3-1.021,3.454c-0.68,1.154-1.634,2.393-2.859,3.715l-5.547,6.025l0.029,0.072h10.137
				V369.296z"/>
		</g>
		<g>
			<path fill="#FFFFFF" d="M569.4,328.952l2.317-5.155h1.405l-0.869,5.243v2.578H569.4V328.952z M574.166,328.952l2.316-5.155h1.404
				l-0.869,5.243v2.578h-2.852V328.952z"/>
		</g>
		<g>
			<path fill="#FFFFFF" d="M522.006,368.014h-3.373V346.38l-5.1,0.068v-2.43l8.473-0.924V368.014z"/>
		</g>
		<g>
			<g>
				<path fill="#FFFFFF" d="M496.109,337.331h-2.854v-14.163h2.854V337.331z M496.123,344.254h-2.867v-2.955h2.867V344.254z"/>
			</g>
		</g>
		<g>
			<path fill="#FFFFFF" d="M429.522,358.577l-0.206,0.89c0.742,0.125,1.358,0.422,1.85,0.89c0.49,0.468,0.735,1.158,0.735,2.071
				c0,1.095-0.45,1.968-1.353,2.619c-0.901,0.65-2.19,0.976-3.867,0.976l-0.12-1.866c0.821,0,1.483-0.14,1.985-0.419
				s0.753-0.699,0.753-1.258c0-0.547-0.206-0.93-0.616-1.146s-1.113-0.365-2.105-0.445l0.549-2.311H429.522z"/>
		</g>
		<g>
			<path fill-rule="evenodd" clip-rule="evenodd" fill="#FFFFFF" d="M1524.108,687.59c0,0.741-0.606,1.348-1.349,1.348h-114.634
				c-0.741,0-1.349-0.607-1.349-1.348v-63.249c0-0.742,0.607-1.348,1.349-1.348h114.634c0.742,0,1.349,0.606,1.349,1.348V687.59z"/>
		</g>
		<g>
			<path d="M1478.473,660.459c0.816,0,1.537-0.252,2.158-0.757s0.932-1.124,0.932-1.857h2.213l0.025,0.075
				c0.041,1.167-0.478,2.206-1.557,3.114c-1.08,0.909-2.338,1.363-3.771,1.363c-1.969,0-3.473-0.642-4.516-1.926
				c-1.041-1.284-1.563-2.898-1.563-4.84v-0.525c0-1.926,0.523-3.533,1.569-4.822c1.046-1.288,2.55-1.932,4.509-1.932
				c1.584,0,2.879,0.467,3.883,1.401c1.006,0.934,1.491,2.081,1.457,3.439l-0.024,0.075h-2.226c0-0.825-0.293-1.527-0.876-2.107
				s-1.321-0.869-2.214-0.869c-1.293,0-2.216,0.464-2.771,1.392c-0.554,0.929-0.83,2.068-0.83,3.417v0.524
				c0,1.383,0.275,2.534,0.824,3.454C1476.246,659.999,1477.172,660.459,1478.473,660.459z"/>
			<path d="M1489.816,645.338v3.264h2.564v1.826h-2.564v8.217c0,0.633,0.131,1.08,0.395,1.338c0.262,0.258,0.611,0.387,1.045,0.387
				c0.141,0,0.297-0.016,0.469-0.05c0.17-0.033,0.322-0.075,0.455-0.125l0.326,1.688c-0.184,0.15-0.452,0.273-0.807,0.369
				c-0.355,0.096-0.711,0.144-1.07,0.144c-1,0-1.797-0.302-2.388-0.907c-0.593-0.604-0.888-1.553-0.888-2.845v-8.217h-2.152v-1.826
				h2.152v-3.264H1489.816z"/>
			<path d="M1501.823,650.778l-1.263-0.075c-0.65,0-1.199,0.155-1.645,0.463c-0.447,0.309-0.791,0.742-1.033,1.301v9.668h-2.463
				v-13.533h2.201l0.237,1.976c0.384-0.7,0.856-1.246,1.419-1.638s1.211-0.588,1.945-0.588c0.184,0,0.358,0.015,0.525,0.043
				c0.166,0.029,0.305,0.061,0.412,0.094L1501.823,650.778z"/>
			<path d="M1506.863,662.135h-2.465v-19.511h2.465V662.135z"/>
		</g>
		<g>
			<path fill-rule="evenodd" clip-rule="evenodd" fill="#FFFFFF" d="M1098.217,686.646c0,0.741-0.607,1.348-1.35,1.348H722.66
				c-0.74,0-1.348-0.607-1.348-1.348v-63.25c0-0.742,0.607-1.348,1.348-1.348h374.207c0.742,0,1.35,0.606,1.35,1.348V686.646z"/>
		</g>
		<g>
			<path fill-rule="evenodd" clip-rule="evenodd" fill="#FFFFFF" d="M513.223,687.59c0,0.741-0.607,1.348-1.348,1.348H397.24
				c-0.742,0-1.348-0.607-1.348-1.348v-63.249c0-0.742,0.605-1.348,1.348-1.348h114.635c0.74,0,1.348,0.606,1.348,1.348V687.59z"/>
		</g>
		<g>
			<path d="M414.373,661.808c0.817,0,1.537-0.252,2.158-0.757c0.621-0.504,0.932-1.124,0.932-1.857h2.213l0.025,0.075
				c0.041,1.168-0.477,2.206-1.557,3.114c-1.08,0.909-2.337,1.363-3.771,1.363c-1.968,0-3.473-0.642-4.515-1.926
				s-1.563-2.897-1.563-4.84v-0.525c0-1.926,0.523-3.533,1.57-4.821c1.045-1.288,2.549-1.933,4.508-1.933
				c1.584,0,2.879,0.467,3.884,1.401c1.005,0.934,1.491,2.081,1.457,3.439l-0.024,0.075h-2.227c0-0.826-0.292-1.528-0.875-2.107
				c-0.584-0.58-1.322-0.869-2.215-0.869c-1.292,0-2.215,0.464-2.77,1.393c-0.555,0.929-0.832,2.067-0.832,3.417v0.525
				c0,1.382,0.275,2.533,0.825,3.454C412.147,661.348,413.072,661.808,414.373,661.808z"/>
			<path d="M425.718,646.688v3.264h2.563v1.826h-2.563v8.217c0,0.634,0.132,1.08,0.394,1.338c0.263,0.258,0.611,0.387,1.045,0.387
				c0.141,0,0.297-0.016,0.469-0.05c0.171-0.033,0.323-0.075,0.456-0.125l0.325,1.688c-0.184,0.15-0.451,0.273-0.807,0.369
				c-0.354,0.096-0.711,0.144-1.069,0.144c-1,0-1.797-0.302-2.388-0.907c-0.593-0.604-0.889-1.553-0.889-2.845v-8.217h-2.152v-1.826
				h2.152v-3.264H425.718z"/>
			<path d="M437.725,652.128l-1.264-0.076c-0.65,0-1.199,0.155-1.645,0.463c-0.446,0.309-0.79,0.742-1.032,1.301v9.668h-2.464
				v-13.533h2.201l0.238,1.976c0.383-0.7,0.856-1.247,1.419-1.638s1.211-0.588,1.945-0.588c0.183,0,0.358,0.015,0.524,0.044
				c0.167,0.029,0.305,0.061,0.413,0.094L437.725,652.128z"/>
			<path d="M442.764,663.484H440.3v-19.511h2.464V663.484z"/>
		</g>
		<g>
			<path fill-rule="evenodd" clip-rule="evenodd" fill="#FFFFFF" d="M1524.108,610.863c0,0.742-0.606,1.348-1.349,1.348h-177.239
				c-0.741,0-1.349-0.606-1.349-1.348v-63.248c0-0.742,0.607-1.348,1.349-1.348h177.239c0.742,0,1.349,0.606,1.349,1.348V610.863z"
				/>
		</g>
		<g>
			<rect x="1497.154" y="567.382" width="2.695" height="25.048"/>
			<g>
				<polygon points="1509.529,576.315 1507.555,578.155 1498.504,568.416 1489.451,578.155 1487.479,576.315 1498.504,564.458 				
					"/>
			</g>
		</g>
		<g>
			<path fill-rule="evenodd" clip-rule="evenodd" fill="#FFFFFF" d="M1333.229,610.863c0,0.742-0.606,1.348-1.349,1.348h-63.243
				c-0.741,0-1.349-0.606-1.349-1.348v-63.248c0-0.742,0.607-1.348,1.349-1.348h63.243c0.742,0,1.349,0.606,1.349,1.348V610.863z"/>
		</g>
		<g>
			<path d="M1304.187,598.199h-8.386v-2.636h8.386V598.199z"/>
		</g>
		<g>
			<path d="M1309.551,570.254h-18.578v-2.652h18.578V570.254z"/>
		</g>
		<g>
			<path fill-rule="evenodd" clip-rule="evenodd" fill="#FFFFFF" d="M1177.394,610.863c0,0.742-0.606,1.348-1.349,1.348h-63.248
				c-0.74,0-1.348-0.606-1.348-1.348v-63.248c0-0.742,0.607-1.348,1.348-1.348h63.248c0.742,0,1.349,0.606,1.349,1.348V610.863z"/>
		</g>
		<g>
			<path fill-rule="evenodd" clip-rule="evenodd" fill="#FFFFFF" d="M1177.394,610.863c0,0.742-0.606,1.348-1.349,1.348h-63.248
				c-0.74,0-1.348-0.606-1.348-1.348v-63.248c0-0.742,0.607-1.348,1.348-1.348h63.248c0.742,0,1.349,0.606,1.349,1.348V610.863z"/>
		</g>
		<g>
			<path d="M1146.412,599.77l-2.568,5.237h-2.002l1.197-5.408v-2.79h3.373V599.77z"/>
		</g>
		<g>
			<path d="M1146.248,572.333l-2.566,5.237h-2.003l1.198-5.408v-2.79h3.371V572.333z M1146.129,558.161h-3.372v-3.491h3.372V558.161
				z"/>
		</g>
		<g>
			<path fill-rule="evenodd" clip-rule="evenodd" fill="#FFFFFF" d="M1099.471,610.863c0,0.742-0.607,1.348-1.349,1.348h-63.241
				c-0.742,0-1.348-0.606-1.348-1.348v-63.248c0-0.742,0.605-1.348,1.348-1.348h63.241c0.741,0,1.349,0.606,1.349,1.348V610.863z"/>
		</g>
		<g>
			<path d="M1058.565,567.583l7.941,20.247h0.103l7.941-20.247h4.313v24.919h-3.371v-9.858l0.342-10.132l-0.085-0.017l-8.079,20.007
				h-2.241l-8.044-19.956l-0.086,0.017l0.325,10.081v9.858h-3.372v-24.919H1058.565z"/>
		</g>
		<g>
			<path fill-rule="evenodd" clip-rule="evenodd" fill="#FFFFFF" d="M1021.554,610.863c0,0.742-0.606,1.348-1.349,1.348h-63.248
				c-0.74,0-1.348-0.606-1.348-1.348v-63.248c0-0.742,0.607-1.348,1.348-1.348h63.248c0.742,0,1.349,0.606,1.349,1.348V610.863z"/>
		</g>
		<g>
			<path d="M998.074,592.502h-3.372l-11.997-19.271l-0.104,0.035v19.237h-3.371v-24.919h3.371L994.6,586.82l0.103-0.034v-19.203
				h3.372V592.502z"/>
		</g>
		<g>
			<path fill-rule="evenodd" clip-rule="evenodd" fill="#FFFFFF" d="M943.635,610.863c0,0.742-0.607,1.348-1.349,1.348h-63.247
				c-0.74,0-1.348-0.606-1.348-1.348v-63.248c0-0.742,0.607-1.348,1.348-1.348h63.247c0.741,0,1.349,0.606,1.349,1.348V610.863z"/>
		</g>
		<g>
			<path d="M902.619,592.502v-24.919h8.129c2.602,0,4.639,0.562,6.11,1.686c1.472,1.124,2.208,2.81,2.208,5.058
				c0,1.107-0.354,2.097-1.061,2.97c-0.709,0.873-1.639,1.521-2.791,1.942c1.507,0.319,2.69,1.056,3.553,2.208
				c0.86,1.152,1.291,2.493,1.291,4.021c0,2.283-0.738,4.025-2.216,5.229c-1.478,1.204-3.483,1.805-6.017,1.805H902.619z
				 M905.99,578.177h5.459c1.256,0,2.277-0.345,3.064-1.035c0.787-0.69,1.181-1.651,1.181-2.884c0-1.346-0.425-2.353-1.274-3.021
				c-0.851-0.668-2.074-1.001-3.672-1.001h-4.758V578.177z M905.99,580.83v9.02h5.836c1.529,0,2.723-0.378,3.578-1.134
				s1.283-1.827,1.283-3.214c0-1.455-0.357-2.597-1.07-3.427c-0.713-0.83-1.811-1.245-3.294-1.245H905.99z"/>
		</g>
		<g>
			<path fill-rule="evenodd" clip-rule="evenodd" fill="#FFFFFF" d="M865.717,610.863c0,0.742-0.607,1.348-1.349,1.348h-63.249
				c-0.742,0-1.348-0.606-1.348-1.348v-63.248c0-0.742,0.605-1.348,1.348-1.348h63.249c0.741,0,1.349,0.606,1.349,1.348V610.863z"/>
		</g>
		<g>
			<path d="M832.221,586.307l0.564,1.969h0.104l0.564-1.969l6.436-18.724h3.646l-9.259,24.919h-2.893l-9.26-24.919h3.662
				L832.221,586.307z"/>
		</g>
		<g>
			<path fill-rule="evenodd" clip-rule="evenodd" fill="#FFFFFF" d="M787.795,610.863c0,0.742-0.607,1.348-1.349,1.348h-63.245
				c-0.742,0-1.348-0.606-1.348-1.348v-63.248c0-0.742,0.605-1.348,1.348-1.348h63.245c0.741,0,1.349,0.606,1.349,1.348V610.863z"/>
		</g>
		<g>
			<path d="M764.508,584.51l0.035,0.103c0.045,2.339-0.777,4.299-2.465,5.879c-1.689,1.581-3.92,2.371-6.692,2.371
				c-2.817,0-5.114-0.999-6.888-2.995c-1.775-1.997-2.662-4.53-2.662-7.6v-4.433c0-3.069,0.887-5.605,2.662-7.607
				c1.773-2.003,4.07-3.004,6.888-3.004s5.06,0.75,6.727,2.251c1.665,1.5,2.476,3.488,2.431,5.964l-0.035,0.103h-3.234
				c0-1.746-0.514-3.126-1.54-4.142c-1.027-1.015-2.477-1.522-4.348-1.522c-1.883,0-3.383,0.758-4.501,2.274
				c-1.119,1.516-1.678,3.397-1.678,5.643v4.463c0,2.269,0.559,4.162,1.678,5.678c1.118,1.517,2.618,2.274,4.501,2.274
				c1.871,0,3.32-0.505,4.348-1.515c1.026-1.01,1.54-2.405,1.54-4.185H764.508z"/>
		</g>
		<g>
			<path fill-rule="evenodd" clip-rule="evenodd" fill="#FFFFFF" d="M632.02,610.863c0,0.742-0.605,1.348-1.348,1.348H567.42
				c-0.742,0-1.348-0.606-1.348-1.348v-63.248c0-0.742,0.605-1.348,1.348-1.348h63.252c0.742,0,1.348,0.606,1.348,1.348V610.863z"/>
		</g>
		<g>
			<path d="M599.092,580.248l6.504-12.665h3.85l-8.746,16.156v8.763h-3.354v-8.985l-8.609-15.935h3.852L599.092,580.248z"/>
		</g>
		<g>
			<path fill-rule="evenodd" clip-rule="evenodd" fill="#FFFFFF" d="M554.37,610.863c0,0.742-0.606,1.348-1.349,1.348h-63.25
				c-0.742,0-1.348-0.606-1.348-1.348v-63.248c0-0.742,0.605-1.348,1.348-1.348h63.25c0.742,0,1.349,0.606,1.349,1.348V610.863z"/>
		</g>
		<g>
			<path d="M514.814,565.364v-3.338l14.65,6.47v2.551l-14.65,6.486v-3.354l10.235-4.073l1.454-0.291v-0.103l-1.454-0.342
				L514.814,565.364z"/>
		</g>
		<g>
			<path d="M519.107,589.948l-1.456,0.285v0.095l1.456,0.301l9.566,3.605v3.18l-13.967-5.995v-2.356l13.967-5.979v3.179
				L519.107,589.948z"/>
		</g>
		<g>
			<path fill-rule="evenodd" clip-rule="evenodd" fill="#FFFFFF" d="M456.243,546.267c-0.741,0-1.954,0-2.696,0h-42.026
				c-0.741,0-1.954,0-2.696,0H397.24c-0.742,0-1.348,0.606-1.348,1.348v63.248c0,0.742,0.605,1.348,1.348,1.348h11.584
				c0.742,0,1.955,0,2.696,0h42.026c0.742,0,1.955,0,2.696,0h18.53c0.74,0,1.348-0.606,1.348-1.348v-63.248
				c0-0.742-0.607-1.348-1.348-1.348H456.243z"/>
		</g>
		<g>
			<rect x="419.996" y="567.382" width="2.697" height="25.048"/>
			<g>
				<polygon points="432.371,576.315 430.396,578.155 421.347,568.416 412.295,578.155 410.32,576.315 421.347,564.458 				"/>
			</g>
		</g>
		<g>
			<path fill-rule="evenodd" clip-rule="evenodd" fill="#FFFFFF" d="M1463.143,532.431c0,0.742-0.605,1.348-1.348,1.348h-63.251
				c-0.741,0-1.349-0.606-1.349-1.348v-63.247c0-0.742,0.607-1.348,1.349-1.348h63.251c0.742,0,1.348,0.606,1.348,1.348V532.431z"/>
		</g>
		<g>
			<path d="M1425.158,511.084h13.932v2.653h-17.73v-2.516l13.315-19.75h-13.128v-2.653h16.979v2.413L1425.158,511.084z
				 M1430.105,484.351l2.516-2.533h2.909v0.308l-4.398,4.193h-2.036l-4.348-4.159v-0.343h2.841L1430.105,484.351z"/>
		</g>
		<g>
			<path fill-rule="evenodd" clip-rule="evenodd" fill="#FFFFFF" d="M1385.324,532.431c0,0.742-0.605,1.348-1.348,1.348h-63.25
				c-0.74,0-1.348-0.606-1.348-1.348v-63.247c0-0.742,0.607-1.348,1.348-1.348h63.25c0.742,0,1.348,0.606,1.348,1.348V532.431z"/>
		</g>
		<g>
			<path d="M1361.865,505.744l0.033,0.103c0.046,2.339-0.775,4.299-2.465,5.879c-1.688,1.581-3.92,2.371-6.691,2.371
				c-2.818,0-5.115-0.999-6.889-2.995c-1.775-1.997-2.662-4.53-2.662-7.6v-4.433c0-3.069,0.887-5.605,2.662-7.607
				c1.773-2.003,4.07-3.004,6.889-3.004s5.061,0.75,6.727,2.251c1.666,1.5,2.476,3.488,2.43,5.964l-0.033,0.103h-3.236
				c0-1.746-0.514-3.126-1.539-4.142c-1.027-1.015-2.477-1.522-4.348-1.522c-1.883,0-3.383,0.758-4.501,2.274
				s-1.677,3.397-1.677,5.643v4.463c0,2.269,0.559,4.162,1.677,5.678c1.118,1.517,2.618,2.274,4.501,2.274
				c1.871,0,3.32-0.505,4.348-1.515c1.025-1.01,1.539-2.405,1.539-4.185H1361.865z M1354.402,482.194h3.937l0.034,0.103l-4.621,4.45
				h-2.516L1354.402,482.194z"/>
		</g>
		<g>
			<path fill-rule="evenodd" clip-rule="evenodd" fill="#FFFFFF" d="M1307.404,532.431c0,0.742-0.607,1.348-1.349,1.348h-63.248
				c-0.741,0-1.349-0.606-1.349-1.348v-63.247c0-0.742,0.607-1.348,1.349-1.348h63.248c0.741,0,1.349,0.606,1.349,1.348V532.431z"/>
		</g>
		<g>
			<path d="M1283.953,505.744l0.034,0.103c0.046,2.339-0.776,4.299-2.465,5.879c-1.688,1.581-3.919,2.371-6.692,2.371
				c-2.818,0-5.115-0.999-6.889-2.995c-1.774-1.997-2.661-4.53-2.661-7.6v-4.433c0-3.069,0.887-5.605,2.661-7.607
				c1.773-2.003,4.07-3.004,6.889-3.004s5.061,0.75,6.727,2.251c1.666,1.5,2.477,3.488,2.431,5.964l-0.034,0.103h-3.236
				c0-1.746-0.512-3.126-1.539-4.142c-1.027-1.015-2.477-1.522-4.348-1.522c-1.883,0-3.383,0.758-4.5,2.274
				c-1.119,1.516-1.678,3.397-1.678,5.643v4.463c0,2.269,0.559,4.162,1.678,5.678c1.117,1.517,2.617,2.274,4.5,2.274
				c1.871,0,3.32-0.505,4.348-1.515s1.539-2.405,1.539-4.185H1283.953z M1274.848,483.991l2.516-2.533h2.91v0.308l-4.398,4.193
				h-2.037l-4.348-4.158v-0.343h2.842L1274.848,483.991z"/>
		</g>
		<g>
			<path fill-rule="evenodd" clip-rule="evenodd" fill="#FFFFFF" d="M1151.565,532.431c0,0.742-0.606,1.348-1.349,1.348h-63.248
				c-0.74,0-1.348-0.606-1.348-1.348v-63.247c0-0.742,0.607-1.348,1.348-1.348h63.248c0.742,0,1.349,0.606,1.349,1.348V532.431z"/>
		</g>
		<g>
			<path d="M1116.627,502.492h-2.91v11.245h-3.371v-24.919h3.371v11.022h2.602l8.916-11.022h3.732l0.051,0.085l-9.67,11.963
				l10.371,12.785l-0.051,0.085h-4.021L1116.627,502.492z"/>
		</g>
		<g>
			<path fill-rule="evenodd" clip-rule="evenodd" fill="#FFFFFF" d="M1073.643,532.431c0,0.742-0.605,1.348-1.348,1.348h-63.244
				c-0.74,0-1.348-0.606-1.348-1.348v-63.247c0-0.742,0.607-1.348,1.348-1.348h63.244c0.742,0,1.348,0.606,1.348,1.348V532.431z"/>
		</g>
		<g>
			<path d="M1044.063,488.817h3.371v18.022c0,2.225-0.704,3.99-2.113,5.297c-1.41,1.307-3.238,1.959-5.485,1.959
				c-2.396,0-4.302-0.61-5.716-1.832c-1.416-1.221-2.094-2.989-2.037-5.305l0.034-0.103h3.234c0,1.541,0.391,2.69,1.173,3.449
				c0.781,0.759,1.885,1.138,3.312,1.138c1.243,0,2.259-0.419,3.046-1.257s1.182-1.958,1.182-3.36V488.817z"/>
		</g>
		<g>
			<path fill-rule="evenodd" clip-rule="evenodd" fill="#FFFFFF" d="M995.727,532.431c0,0.742-0.607,1.348-1.348,1.348h-63.247
				c-0.741,0-1.349-0.606-1.349-1.348v-63.247c0-0.742,0.607-1.348,1.349-1.348h63.247c0.74,0,1.348,0.606,1.348,1.348V532.431z"/>
		</g>
		<g>
			<path d="M972.129,513.737h-3.371v-11.005h-12.1v11.005h-3.373v-24.919h3.373v11.262h12.1v-11.262h3.371V513.737z"/>
		</g>
		<g>
			<path fill-rule="evenodd" clip-rule="evenodd" fill="#FFFFFF" d="M917.807,532.431c0,0.742-0.607,1.348-1.349,1.348h-63.247
				c-0.74,0-1.348-0.606-1.348-1.348v-63.247c0-0.742,0.607-1.348,1.348-1.348h63.247c0.741,0,1.349,0.606,1.349,1.348V532.431z"/>
		</g>
		<g>
			<path d="M893.988,510.434c-0.594,0.913-1.623,1.752-3.09,2.516c-1.466,0.764-3.363,1.146-5.689,1.146
				c-2.979,0-5.44-0.953-7.386-2.858c-1.945-1.906-2.918-4.37-2.918-7.394v-5.134c0-3.023,0.907-5.488,2.722-7.394
				c1.813-1.905,4.152-2.858,7.017-2.858c2.853,0,5.095,0.702,6.727,2.105c1.632,1.404,2.464,3.212,2.499,5.426l-0.035,0.102h-3.217
				c-0.104-1.448-0.654-2.641-1.652-3.577c-0.998-0.935-2.438-1.403-4.321-1.403c-1.905,0-3.44,0.712-4.604,2.137
				s-1.746,3.232-1.746,5.42v5.165c0,2.211,0.651,4.032,1.952,5.463s2.954,2.146,4.964,2.146c1.414,0,2.572-0.188,3.474-0.563
				c0.901-0.375,1.546-0.803,1.935-1.28v-5.652h-5.461v-2.653h8.832V510.434z"/>
		</g>
		<g>
			<path fill-rule="evenodd" clip-rule="evenodd" fill="#FFFFFF" d="M839.887,532.431c0,0.742-0.607,1.348-1.348,1.348h-63.243
				c-0.741,0-1.349-0.606-1.349-1.348v-63.247c0-0.742,0.607-1.348,1.349-1.348h63.243c0.74,0,1.348,0.606,1.348,1.348V532.431z"/>
		</g>
		<g>
			<g>
				<path d="M814.486,502.715h-11.363v11.022h-3.373v-24.919h16.482v2.653h-13.109v8.591h11.363V502.715z"/>
			</g>
		</g>
		<g>
			<path fill-rule="evenodd" clip-rule="evenodd" fill="#FFFFFF" d="M761.967,532.431c0,0.742-0.605,1.348-1.348,1.348h-63.247
				c-0.741,0-1.349-0.606-1.349-1.348v-63.247c0-0.742,0.607-1.348,1.349-1.348h63.247c0.742,0,1.348,0.606,1.348,1.348V532.431z"/>
		</g>
		<g>
			<path d="M720.504,513.737v-24.919h7.65c3.264,0,5.881,1.001,7.855,3.004c1.975,2.002,2.961,4.59,2.961,7.762v3.406
				c0,3.183-0.986,5.771-2.961,7.761c-1.975,1.991-4.592,2.987-7.855,2.987H720.504z M723.875,491.471v19.613h4.279
				c2.305,0,4.122-0.758,5.451-2.274c1.328-1.516,1.994-3.459,1.994-5.831v-3.437c0-2.348-0.666-4.281-1.994-5.797
				c-1.329-1.516-3.146-2.274-5.451-2.274H723.875z"/>
		</g>
		<g>
			<path fill-rule="evenodd" clip-rule="evenodd" fill="#FFFFFF" d="M606.19,532.431c0,0.742-0.606,1.348-1.349,1.348H541.6
				c-0.742,0-1.348-0.606-1.348-1.348v-63.247c0-0.742,0.605-1.348,1.348-1.348h63.242c0.742,0,1.349,0.606,1.349,1.348V532.431z"/>
		</g>
		<g>
			<path d="M578.385,507.319h-10.439l-2.363,6.418h-3.439l9.637-24.919h2.892l9.481,24.919h-3.439L578.385,507.319z
				 M568.988,504.495h8.387l-4.107-11.347h-0.104L568.988,504.495z"/>
		</g>
		<g>
			<path fill-rule="evenodd" clip-rule="evenodd" fill="#FFFFFF" d="M528.277,532.431c0,0.742-0.605,1.348-1.348,1.348H397.24
				c-0.742,0-1.348-0.606-1.348-1.348v-63.247c0-0.742,0.605-1.348,1.348-1.348H526.93c0.742,0,1.348,0.606,1.348,1.348V532.431z"/>
		</g>
		<g>
			<g>
				<path d="M413.026,506.977c0.817,0,1.536-0.253,2.157-0.757s0.933-1.124,0.933-1.857h2.214l0.024,0.075
					c0.042,1.167-0.478,2.205-1.558,3.114c-1.079,0.909-2.336,1.363-3.771,1.363c-1.968,0-3.473-0.642-4.515-1.926
					c-1.043-1.284-1.563-2.898-1.563-4.84v-0.525c0-1.926,0.523-3.533,1.569-4.821c1.047-1.288,2.549-1.933,4.509-1.933
					c1.585,0,2.879,0.467,3.884,1.401c1.004,0.934,1.49,2.081,1.457,3.439l-0.025,0.075h-2.226c0-0.825-0.292-1.527-0.876-2.107
					c-0.584-0.579-1.322-0.869-2.214-0.869c-1.292,0-2.216,0.465-2.771,1.393c-0.555,0.929-0.831,2.068-0.831,3.417v0.524
					c0,1.383,0.274,2.534,0.825,3.454C410.801,506.516,411.726,506.977,413.026,506.977z"/>
				<path d="M429.436,508.652c-0.082-0.409-0.147-0.77-0.193-1.082c-0.047-0.313-0.072-0.627-0.082-0.944
					c-0.458,0.65-1.057,1.194-1.794,1.632c-0.738,0.438-1.532,0.657-2.383,0.657c-1.409,0-2.483-0.361-3.22-1.082
					c-0.738-0.721-1.107-1.716-1.107-2.983c0-1.292,0.523-2.303,1.569-3.033c1.046-0.729,2.466-1.094,4.259-1.094h2.676v-1.338
					c0-0.792-0.242-1.42-0.725-1.883c-0.484-0.463-1.168-0.694-2.051-0.694c-0.793,0-1.437,0.203-1.933,0.607
					s-0.745,0.89-0.745,1.457h-2.352l-0.024-0.075c-0.05-0.984,0.415-1.885,1.395-2.702c0.979-0.817,2.245-1.226,3.796-1.226
					c1.535,0,2.768,0.39,3.703,1.17c0.934,0.779,1.4,1.903,1.4,3.37v6.517c0,0.483,0.025,0.95,0.074,1.4
					c0.051,0.45,0.143,0.893,0.275,1.326H429.436z M425.346,506.838c0.893,0,1.697-0.229,2.414-0.686
					c0.717-0.457,1.184-0.98,1.4-1.571v-2.195h-2.764c-0.992,0-1.787,0.25-2.383,0.749c-0.596,0.499-0.894,1.085-0.894,1.758
					c0,0.598,0.188,1.073,0.563,1.422S424.612,506.838,425.346,506.838z"/>
				<path d="M446.733,502.398c0,1.951-0.468,3.525-1.401,4.722s-2.223,1.794-3.864,1.794c-0.835,0-1.565-0.139-2.195-0.418
					s-1.165-0.699-1.606-1.257v6.617h-2.465v-18.736h1.889l0.389,1.751c0.441-0.65,0.992-1.146,1.65-1.488s1.426-0.513,2.301-0.513
					c1.676,0,2.979,0.665,3.909,1.995c0.93,1.33,1.395,3.087,1.395,5.271V502.398z M444.27,502.129c0-1.533-0.303-2.792-0.907-3.779
					c-0.604-0.987-1.495-1.48-2.671-1.48c-0.708,0-1.313,0.161-1.813,0.481s-0.904,0.76-1.213,1.317v6.533
					c0.309,0.558,0.713,0.993,1.213,1.306s1.113,0.469,1.838,0.469c1.168,0,2.052-0.427,2.652-1.281c0.6-0.854,0.9-1.955,0.9-3.304
					V502.129z"/>
				<path d="M457.627,505.05c0-0.542-0.206-0.988-0.619-1.338c-0.412-0.351-1.193-0.655-2.345-0.913
					c-1.644-0.358-2.879-0.843-3.708-1.455c-0.83-0.611-1.245-1.446-1.245-2.503c0-1.099,0.468-2.036,1.401-2.81
					c0.934-0.774,2.15-1.161,3.652-1.161c1.575,0,2.828,0.405,3.758,1.213s1.373,1.792,1.332,2.952l-0.025,0.075h-2.352
					c0-0.592-0.248-1.124-0.744-1.595c-0.496-0.471-1.152-0.707-1.969-0.707c-0.877,0-1.526,0.192-1.951,0.576
					c-0.426,0.383-0.639,0.846-0.639,1.388c0,0.534,0.188,0.955,0.563,1.264c0.376,0.308,1.139,0.583,2.289,0.825
					c1.709,0.367,2.981,0.865,3.814,1.494c0.834,0.63,1.252,1.474,1.252,2.533c0,1.2-0.486,2.172-1.457,2.914
					c-0.973,0.742-2.242,1.113-3.809,1.113c-1.727,0-3.086-0.438-4.078-1.313c-0.992-0.876-1.463-1.896-1.413-3.064l0.024-0.075
					h2.352c0.042,0.871,0.367,1.509,0.976,1.911s1.321,0.604,2.14,0.604c0.875,0,1.561-0.178,2.057-0.532
					C457.379,506.09,457.627,505.625,457.627,505.05z"/>
				<path d="M472.186,508.652h-2.464v-19.511h2.464V508.652z"/>
				<path d="M475.4,501.761c0-2.001,0.543-3.65,1.626-4.946c1.083-1.297,2.556-1.945,4.415-1.945c1.877,0,3.358,0.646,4.445,1.938
					c1.089,1.293,1.633,2.943,1.633,4.953v0.275c0,2.018-0.541,3.669-1.626,4.953c-1.083,1.284-2.56,1.926-4.427,1.926
					c-1.869,0-3.346-0.644-4.434-1.932c-1.089-1.288-1.633-2.937-1.633-4.947V501.761z M477.865,502.029
					c0,1.433,0.301,2.615,0.906,3.548c0.604,0.933,1.502,1.399,2.695,1.399c1.176,0,2.067-0.467,2.676-1.399
					c0.609-0.933,0.914-2.115,0.914-3.548v-0.274c0-1.416-0.307-2.594-0.92-3.536c-0.613-0.941-1.512-1.412-2.695-1.412
					c-1.176,0-2.066,0.471-2.67,1.412c-0.605,0.941-0.906,2.12-0.906,3.536V502.029z"/>
				<path d="M496.037,506.977c0.817,0,1.537-0.253,2.158-0.757s0.932-1.124,0.932-1.857h2.213l0.025,0.075
					c0.041,1.167-0.477,2.205-1.557,3.114s-2.337,1.363-3.771,1.363c-1.968,0-3.473-0.642-4.515-1.926s-1.563-2.898-1.563-4.84
					v-0.525c0-1.926,0.523-3.533,1.57-4.821c1.045-1.288,2.549-1.933,4.508-1.933c1.584,0,2.879,0.467,3.884,1.401
					c1.005,0.934,1.491,2.081,1.457,3.439l-0.024,0.075h-2.227c0-0.825-0.292-1.527-0.875-2.107
					c-0.584-0.579-1.322-0.869-2.215-0.869c-1.292,0-2.215,0.465-2.77,1.393c-0.555,0.929-0.832,2.068-0.832,3.417v0.524
					c0,1.383,0.275,2.534,0.825,3.454C493.812,506.516,494.736,506.977,496.037,506.977z"/>
				<path d="M508.207,502.386h-1.602v6.267h-2.463v-19.511h2.463v11.306h1.576l3.703-5.328h2.951l-4.627,6.143l5.29,7.39h-2.902
					L508.207,502.386z"/>
			</g>
		</g>
		<g>
			<path fill-rule="evenodd" clip-rule="evenodd" fill="#FFFFFF" d="M1459.512,390.494c-0.74,0-1.348,0.606-1.348,1.348v63.246
				c0,0.742,0.607,1.348,1.348,1.348h14.238c0.742,0,1.348,0.606,1.348,1.348v74.646c0,0.742,0.607,1.348,1.349,1.348h46.313
				c0.742,0,1.349-0.606,1.349-1.348v-74.646c0-0.742,0-1.955,0-2.696v-13.482c0-0.742,0-1.955,0-2.696v-47.067
				c0-0.742-0.606-1.348-1.349-1.348H1459.512z"/>
		</g>
		<g>
			<path fill-rule="evenodd" clip-rule="evenodd" fill="#FFFFFF" d="M1447.229,455.088c0,0.742-0.607,1.348-1.349,1.348h-63.247
				c-0.74,0-1.348-0.606-1.348-1.348v-63.246c0-0.742,0.607-1.348,1.348-1.348h63.247c0.741,0,1.349,0.606,1.349,1.348V455.088z"/>
		</g>
		<g>
			<path d="M1406.152,436.156v-11.347h-2.875v-2.653h2.875v-10.919h7.651c3.263,0,5.882,1.001,7.855,3.004s2.961,4.59,2.961,7.762
				v3.406c0,3.184-0.987,5.771-2.961,7.762s-4.593,2.986-7.855,2.986H1406.152z M1414.249,424.809h-4.724v8.695h4.278
				c2.305,0,4.122-0.758,5.45-2.274c1.33-1.517,1.995-3.46,1.995-5.831v-3.438c0-2.349-0.665-4.28-1.995-5.797
				c-1.328-1.517-3.146-2.274-5.45-2.274h-4.278v8.267h4.724V424.809z"/>
		</g>
		<g>
			<path fill-rule="evenodd" clip-rule="evenodd" fill="#FFFFFF" d="M1369.311,455.088c0,0.742-0.607,1.348-1.349,1.348h-63.245
				c-0.742,0-1.348-0.606-1.348-1.348v-63.246c0-0.742,0.605-1.348,1.348-1.348h63.245c0.741,0,1.349,0.606,1.349,1.348V455.088z"/>
		</g>
		<g>
			<path fill-rule="evenodd" clip-rule="evenodd" fill="#FFFFFF" d="M1369.311,455.088c0,0.742-0.607,1.348-1.349,1.348h-63.245
				c-0.742,0-1.348-0.606-1.348-1.348v-63.246c0-0.742,0.605-1.348,1.348-1.348h63.245c0.741,0,1.349,0.606,1.349,1.348V455.088z"/>
		</g>
		<g>
			<path d="M1342.17,429.881c0-1.134-0.428-2.084-1.283-2.85c-0.856-0.766-2.373-1.409-4.553-1.931
				c-2.636-0.629-4.693-1.555-6.17-2.779c-1.479-1.224-2.217-2.762-2.217-4.615c0-1.944,0.795-3.568,2.389-4.873
				c1.59-1.304,3.652-1.956,6.186-1.956c2.728,0,4.898,0.748,6.513,2.242s2.394,3.229,2.336,5.203l-0.034,0.102h-3.217
				c0-1.46-0.482-2.641-1.447-3.542s-2.348-1.353-4.15-1.353c-1.678,0-2.963,0.38-3.859,1.138c-0.895,0.759-1.344,1.749-1.344,2.969
				c0,1.084,0.485,1.988,1.455,2.713c0.971,0.725,2.545,1.361,4.725,1.908c2.623,0.65,4.621,1.609,5.989,2.876
				c1.37,1.266,2.054,2.835,2.054,4.706c0,2.009-0.82,3.623-2.464,4.844s-3.788,1.831-6.435,1.831c-2.488,0-4.688-0.676-6.6-2.028
				c-1.91-1.352-2.838-3.157-2.779-5.417l0.033-0.103h3.217c0,1.598,0.588,2.813,1.764,3.646c1.174,0.833,2.629,1.25,4.365,1.25
				c1.699,0,3.045-0.357,4.039-1.072C1341.674,432.077,1342.17,431.106,1342.17,429.881z M1335.991,406.411l2.517-2.533h2.909v0.308
				l-4.399,4.193h-2.035l-4.348-4.159v-0.342h2.841L1335.991,406.411z"/>
		</g>
		<g>
			<path fill-rule="evenodd" clip-rule="evenodd" fill="#FFFFFF" d="M1291.391,455.088c0,0.742-0.605,1.348-1.348,1.348h-63.248
				c-0.742,0-1.348-0.606-1.348-1.348v-63.246c0-0.742,0.605-1.348,1.348-1.348h63.248c0.742,0,1.348,0.606,1.348,1.348V455.088z"/>
		</g>
		<g>
			<path d="M1253.758,426.161v9.995h-3.373v-24.919h9.535c2.657,0,4.723,0.685,6.195,2.054c1.471,1.369,2.207,3.172,2.207,5.408
				c0,2.271-0.736,4.082-2.207,5.434c-1.473,1.353-3.538,2.028-6.195,2.028H1253.758z M1253.758,423.508h6.162
				c1.688,0,2.949-0.453,3.781-1.358c0.833-0.906,1.25-2.047,1.25-3.426c0-1.378-0.42-2.528-1.258-3.451
				c-0.839-0.922-2.098-1.384-3.773-1.384h-6.162V423.508z"/>
		</g>
		<g>
			<path fill-rule="evenodd" clip-rule="evenodd" fill="#FFFFFF" d="M1135.551,455.088c0,0.742-0.607,1.348-1.348,1.348h-63.25
				c-0.74,0-1.348-0.606-1.348-1.348v-63.246c0-0.742,0.607-1.348,1.348-1.348h63.25c0.74,0,1.348,0.606,1.348,1.348V455.088z"/>
		</g>
		<g>
			<path d="M1104.396,436.156h-3.389v-24.919h3.389V436.156z"/>
		</g>
		<g>
			<path fill-rule="evenodd" clip-rule="evenodd" fill="#FFFFFF" d="M1057.629,455.088c0,0.742-0.607,1.348-1.348,1.348h-63.24
				c-0.742,0-1.348-0.606-1.348-1.348v-63.246c0-0.742,0.605-1.348,1.348-1.348h63.24c0.74,0,1.348,0.606,1.348,1.348V455.088z"/>
		</g>
		<g>
			<path d="M1034.229,411.237v16.893c0,2.715-0.881,4.792-2.644,6.23s-4.065,2.156-6.906,2.156c-2.738,0-4.96-0.722-6.667-2.165
				c-1.705-1.443-2.559-3.517-2.559-6.221v-16.893h3.373v16.879c0,1.882,0.535,3.31,1.607,4.285
				c1.073,0.975,2.488,1.462,4.245,1.462c1.849,0,3.341-0.487,4.476-1.462s1.703-2.403,1.703-4.285v-16.879H1034.229z"/>
		</g>
		<g>
			<path fill-rule="evenodd" clip-rule="evenodd" fill="#FFFFFF" d="M979.711,455.088c0,0.742-0.607,1.348-1.348,1.348h-63.246
				c-0.74,0-1.348-0.606-1.348-1.348v-63.246c0-0.742,0.607-1.348,1.348-1.348h63.246c0.74,0,1.348,0.606,1.348,1.348V455.088z"/>
		</g>
		<g>
			<path d="M941.857,433.504h13.932v2.652h-17.731v-2.516l13.315-19.751h-13.127v-2.653h16.979v2.414L941.857,433.504z"/>
		</g>
		<g>
			<path fill-rule="evenodd" clip-rule="evenodd" fill="#FFFFFF" d="M901.793,455.088c0,0.742-0.607,1.348-1.348,1.348h-63.249
				c-0.741,0-1.349-0.606-1.349-1.348v-63.246c0-0.742,0.607-1.348,1.349-1.348h63.249c0.74,0,1.348,0.606,1.348,1.348V455.088z"/>
		</g>
		<g>
			<path d="M878.656,413.89h-8.01v22.267h-3.371V413.89h-7.992v-2.653h19.373V413.89z"/>
		</g>
		<g>
			<path fill-rule="evenodd" clip-rule="evenodd" fill="#FFFFFF" d="M823.877,455.088c0,0.742-0.607,1.348-1.349,1.348h-63.247
				c-0.74,0-1.348-0.606-1.348-1.348v-63.246c0-0.742,0.607-1.348,1.348-1.348h63.247c0.741,0,1.349,0.606,1.349,1.348V455.088z"/>
		</g>
		<g>
			<path d="M785.897,425.356v10.8h-3.372v-24.902h9.02c2.728,0,4.81,0.605,6.247,1.814c1.438,1.209,2.157,2.967,2.157,5.271
				c0,1.278-0.334,2.391-1.002,3.337c-0.667,0.947-1.64,1.701-2.918,2.26c1.369,0.445,2.354,1.167,2.953,2.165
				c0.599,0.998,0.898,2.233,0.898,3.705v2.345c0,0.776,0.086,1.472,0.256,2.088c0.172,0.616,0.468,1.119,0.891,1.506v0.411h-3.475
				c-0.445-0.388-0.73-0.958-0.855-1.711c-0.125-0.753-0.189-1.529-0.189-2.328v-2.276c0-1.346-0.393-2.43-1.18-3.252
				c-0.787-0.821-1.844-1.232-3.166-1.232H785.897z M785.897,422.704h5.306c1.905,0,3.277-0.362,4.116-1.085
				c0.839-0.723,1.258-1.824,1.258-3.305c0-1.401-0.407-2.486-1.224-3.255c-0.816-0.768-2.086-1.153-3.809-1.153h-5.647V422.704z"/>
		</g>
		<g>
			<path fill-rule="evenodd" clip-rule="evenodd" fill="#FFFFFF" d="M745.953,455.088c0,0.742-0.607,1.348-1.348,1.348h-63.247
				c-0.741,0-1.349-0.606-1.349-1.348v-63.246c0-0.742,0.607-1.348,1.349-1.348h63.247c0.74,0,1.348,0.606,1.348,1.348V455.088z"/>
		</g>
		<g>
			<path d="M720.768,424.604h-11.416v8.9h13.162v2.652H705.98v-24.919h16.346v2.653h-12.975v8.062h11.416V424.604z"/>
		</g>
		<g>
			<path fill-rule="evenodd" clip-rule="evenodd" fill="#FFFFFF" d="M590.18,455.088c0,0.742-0.605,1.348-1.348,1.348h-63.246
				c-0.742,0-1.349-0.606-1.349-1.348v-63.246c0-0.742,0.606-1.348,1.349-1.348h63.246c0.742,0,1.348,0.606,1.348,1.348V455.088z"/>
		</g>
		<g>
			<path d="M567.316,425.922c0,1.62-0.285,3.12-0.855,4.501s-1.369,2.55-2.396,3.509l4.228,3.987l-2.311,2.208l-4.725-4.398
				c-0.639,0.263-1.303,0.459-1.993,0.59s-1.401,0.197-2.132,0.197c-2.908,0-5.273-1.004-7.094-3.012
				c-1.82-2.009-2.729-4.536-2.729-7.582v-4.433c0-3.035,0.908-5.562,2.729-7.582c1.82-2.02,4.186-3.029,7.094-3.029
				c3.014,0,5.463,1.007,7.352,3.021s2.832,4.544,2.832,7.59V425.922z M563.945,421.455c0-2.282-0.615-4.153-1.849-5.614
				c-1.231-1.46-2.887-2.19-4.964-2.19c-1.962,0-3.527,0.73-4.697,2.19c-1.17,1.461-1.754,3.332-1.754,5.614v4.467
				c0,2.305,0.584,4.188,1.754,5.647c1.17,1.461,2.735,2.191,4.697,2.191c2.089,0,3.746-0.727,4.973-2.182s1.84-3.34,1.84-5.656
				V421.455z"/>
		</g>
		<g>
			<path fill-rule="evenodd" clip-rule="evenodd" fill="#FFFFFF" d="M513.223,455.088c0,0.742-0.607,1.348-1.348,1.348H397.24
				c-0.742,0-1.348-0.606-1.348-1.348v-63.246c0-0.742,0.605-1.348,1.348-1.348h114.635c0.74,0,1.348,0.606,1.348,1.348V455.088z"/>
		</g>
		<g>
			<path d="M412.123,416.212v3.265h2.563v1.826h-2.563v8.217c0,0.634,0.131,1.08,0.393,1.338c0.264,0.258,0.611,0.387,1.045,0.387
				c0.142,0,0.298-0.016,0.469-0.05c0.172-0.033,0.324-0.075,0.457-0.125l0.325,1.688c-0.184,0.15-0.452,0.273-0.808,0.369
				c-0.354,0.096-0.711,0.144-1.068,0.144c-1,0-1.797-0.302-2.389-0.906s-0.889-1.553-0.889-2.846v-8.217h-2.151v-1.826h2.151
				v-3.265H412.123z"/>
			<path d="M426.042,433.009c-0.083-0.408-0.147-0.769-0.194-1.082c-0.045-0.313-0.072-0.627-0.08-0.944
				c-0.459,0.65-1.058,1.195-1.795,1.632c-0.738,0.438-1.532,0.656-2.383,0.656c-1.41,0-2.482-0.36-3.221-1.082
				s-1.107-1.715-1.107-2.983c0-1.292,0.523-2.304,1.57-3.033c1.046-0.729,2.465-1.094,4.258-1.094h2.678v-1.339
				c0-0.792-0.242-1.419-0.726-1.882c-0.484-0.463-1.168-0.694-2.052-0.694c-0.792,0-1.436,0.202-1.932,0.606
				s-0.744,0.891-0.744,1.457h-2.352l-0.025-0.075c-0.051-0.983,0.414-1.884,1.395-2.701c0.979-0.817,2.245-1.226,3.796-1.226
				c1.534,0,2.769,0.39,3.702,1.169c0.934,0.78,1.4,1.903,1.4,3.371v6.516c0,0.484,0.025,0.951,0.076,1.401
				c0.049,0.45,0.141,0.892,0.274,1.325H426.042z M421.952,431.195c0.892,0,1.696-0.229,2.414-0.686s1.184-0.981,1.401-1.572v-2.195
				h-2.765c-0.992,0-1.786,0.25-2.383,0.748c-0.597,0.499-0.894,1.085-0.894,1.759c0,0.599,0.188,1.073,0.563,1.422
				C420.664,431.021,421.219,431.195,421.952,431.195z"/>
			<path d="M443.365,426.756c0,1.951-0.471,3.524-1.408,4.721s-2.229,1.794-3.871,1.794c-0.892,0-1.668-0.173-2.326-0.519
				c-0.658-0.346-1.205-0.857-1.639-1.532l-0.299,1.788h-2.015v-19.511h2.464v7.579c0.426-0.6,0.953-1.059,1.582-1.375
				c0.63-0.317,1.365-0.475,2.208-0.475c1.667,0,2.968,0.667,3.902,2.001c0.934,1.334,1.401,3.089,1.401,5.266V426.756z
				 M440.9,426.493c0-1.551-0.285-2.816-0.857-3.796c-0.57-0.98-1.439-1.47-2.607-1.47c-0.758,0-1.398,0.186-1.92,0.557
				c-0.521,0.371-0.936,0.869-1.244,1.494v5.866c0.317,0.667,0.732,1.188,1.244,1.563c0.514,0.375,1.162,0.563,1.945,0.563
				c1.159,0,2.021-0.413,2.589-1.238c0.567-0.825,0.851-1.918,0.851-3.276V426.493z"/>
		</g>
		<g>
			<path fill-rule="evenodd" clip-rule="evenodd" fill="#FFFFFF" d="M1524.108,377.796c0,0.742-0.606,1.348-1.349,1.348h-113.84
				c-0.742,0-1.348-0.606-1.348-1.348v-63.251c0-0.742,0.605-1.348,1.348-1.348h113.84c0.742,0,1.349,0.606,1.349,1.348V377.796z"/>
		</g>
		<g>
			<rect x="1483.758" y="344.917" width="25.053" height="2.696"/>
			<g>
				<polygon points="1492.691,335.237 1494.531,337.212 1484.792,346.262 1494.531,355.314 1492.691,357.289 1480.834,346.262 				
					"/>
			</g>
		</g>
		<g>
			<path fill-rule="evenodd" clip-rule="evenodd" fill="#FFFFFF" d="M1397.08,377.796c0,0.742-0.605,1.348-1.348,1.348h-63.245
				c-0.741,0-1.349-0.606-1.349-1.348v-63.251c0-0.742,0.607-1.348,1.349-1.348h63.245c0.742,0,1.348,0.606,1.348,1.348V377.796z"/>
		</g>
		<g>
			<path d="M1376.227,357.956h5.779v2.578h-5.779v6.647h-2.853v-6.647h-5.821v-2.578h5.821v-6.125h2.853V357.956z"/>
		</g>
		<g>
			<path d="M1351.047,329.472l-4.286-1.289l0.71-2.23l4.286,1.607l-0.145-4.952h2.331l-0.145,5.039l4.243-1.593l0.695,2.259
				l-4.374,1.289l2.795,3.91l-1.896,1.391l-2.621-4.156l-2.549,4.04l-1.912-1.347L1351.047,329.472z"/>
		</g>
		<g>
			<path fill-rule="evenodd" clip-rule="evenodd" fill="#FFFFFF" d="M1319.164,377.796c0,0.742-0.607,1.348-1.348,1.348h-63.248
				c-0.74,0-1.348-0.606-1.348-1.348v-63.251c0-0.742,0.607-1.348,1.348-1.348h63.248c0.74,0,1.348,0.606,1.348,1.348V377.796z"/>
		</g>
		<g>
			<path d="M1295.054,353.209l2.317-5.156h1.404l-0.869,5.243v2.578h-2.853V353.209z"/>
		</g>
		<g>
			<path d="M1274.277,337.755c0.01-1.399,0.131-2.37,0.362-2.911s0.84-1.255,1.825-2.143c0.955-1.13,1.636-1.999,2.041-2.607
				c0.406-0.608,0.609-1.342,0.609-2.201c0-1.023-0.273-1.811-0.818-2.361c-0.547-0.55-1.326-0.825-2.34-0.825
				c-0.879,0-1.627,0.239-2.244,0.717c-0.617,0.478-0.928,1.18-0.928,2.107h-2.723l-0.043-0.087
				c-0.028-1.554,0.52-2.799,1.645-3.736c1.124-0.936,2.555-1.405,4.293-1.405c1.902,0,3.379,0.485,4.432,1.456
				s1.579,2.324,1.579,4.062c0,1.246-0.341,2.385-1.021,3.418c-0.682,1.033-1.582,2.09-2.701,3.172
				c-0.521,0.521-0.838,0.989-0.949,1.404s-0.166,1.063-0.166,1.94H1274.277z M1277.232,343.692h-2.984v-3.012h2.984V343.692z"/>
		</g>
		<g>
			<path fill-rule="evenodd" clip-rule="evenodd" fill="#FFFFFF" d="M1163.322,377.796c0,0.742-0.605,1.348-1.348,1.348h-63.248
				c-0.742,0-1.349-0.606-1.349-1.348v-63.251c0-0.742,0.606-1.348,1.349-1.348h63.248c0.742,0,1.348,0.606,1.348,1.348V377.796z"/>
		</g>
		<g>
			<path d="M1140.147,367.355c1.391,0,2.503-0.525,3.339-1.574c0.834-1.05,1.252-2.61,1.252-4.683v-0.956
				c-0.473,0.686-1.064,1.205-1.773,1.557c-0.711,0.353-1.5,0.528-2.368,0.528c-2.038,0-3.655-0.63-4.852-1.89
				s-1.796-2.995-1.796-5.206c0-2.115,0.635-3.848,1.904-5.199s2.813-2.027,4.627-2.027c2.201,0,3.937,0.688,5.207,2.063
				c1.27,1.376,1.904,3.401,1.904,6.075v5.025c0,2.751-0.688,4.861-2.064,6.328c-1.375,1.468-3.169,2.202-5.38,2.202
				c-0.743,0-1.499-0.071-2.267-0.211s-1.455-0.357-2.063-0.648l0.434-2.196c0.57,0.3,1.161,0.51,1.774,0.63
				C1138.639,367.295,1139.346,367.355,1140.147,367.355z M1140.597,359.984c1.052,0,1.929-0.227,2.628-0.68
				c0.7-0.453,1.205-1.032,1.514-1.735v-1.822c0-1.841-0.355-3.234-1.064-4.179c-0.709-0.945-1.745-1.417-3.105-1.417
				c-1.043,0-1.932,0.465-2.666,1.395c-0.732,0.931-1.1,2.124-1.1,3.579c0,1.446,0.34,2.618,1.021,3.514
				S1139.429,359.984,1140.597,359.984z"/>
		</g>
		<g>
			<path d="M1123.256,335.264c0,3.814-0.77,7.065-2.311,9.753c-1.539,2.688-3.149,4.482-4.83,5.38h-0.086l-0.551-1.563
				c1.305-1.014,2.45-2.682,3.439-5.004c0.99-2.322,1.484-5.167,1.484-8.537v-0.188c0-3.301-0.509-6.118-1.527-8.45
				c-1.02-2.332-2.15-4.028-3.396-5.09l0.551-1.564h0.086c1.681,0.898,3.291,2.693,4.83,5.387c1.541,2.693,2.311,5.942,2.311,9.746
				V335.264z"/>
		</g>
		<g>
			<path fill-rule="evenodd" clip-rule="evenodd" fill="#FFFFFF" d="M1085.4,377.796c0,0.742-0.605,1.348-1.348,1.348h-63.243
				c-0.741,0-1.349-0.606-1.349-1.348v-63.251c0-0.742,0.607-1.348,1.349-1.348h63.243c0.742,0,1.348,0.606,1.348,1.348V377.796z"/>
		</g>
		<g>
			<path d="M1069.461,353.713c0,1.1-0.309,2.064-0.927,2.889s-1.453,1.441-2.505,1.847c1.216,0.425,2.188,1.091,2.918,1.998
				c0.729,0.907,1.094,1.955,1.094,3.143c0,1.95-0.636,3.439-1.906,4.468c-1.269,1.028-2.917,1.542-4.944,1.542
				c-2.066,0-3.729-0.514-4.989-1.542s-1.89-2.518-1.89-4.468c0-1.188,0.356-2.235,1.071-3.143s1.68-1.573,2.896-1.998
				c-1.053-0.406-1.878-1.021-2.477-1.847c-0.598-0.825-0.897-1.789-0.897-2.889c0-1.854,0.571-3.285,1.716-4.294
				c1.145-1.008,2.658-1.513,4.541-1.513c1.853,0,3.365,0.504,4.539,1.513C1068.874,350.428,1069.461,351.859,1069.461,353.713z
				 M1067.201,363.524c0-1.156-0.381-2.105-1.144-2.848c-0.763-0.741-1.728-1.112-2.896-1.112c-1.188,0-2.151,0.371-2.89,1.112
				c-0.739,0.742-1.108,1.691-1.108,2.848c0,1.195,0.367,2.133,1.101,2.812s1.71,1.019,2.926,1.019c1.188,0,2.152-0.342,2.896-1.026
				C1066.83,365.645,1067.201,364.71,1067.201,363.524z M1066.607,353.771c0-1.043-0.326-1.907-0.977-2.593
				c-0.652-0.686-1.476-1.028-2.469-1.028c-1.015,0-1.835,0.331-2.463,0.992c-0.627,0.661-0.941,1.538-0.941,2.629
				c0,1.071,0.316,1.931,0.949,2.577c0.632,0.647,1.46,0.971,2.483,0.971c1.004,0,1.824-0.323,2.462-0.971
				C1066.289,355.702,1066.607,354.843,1066.607,353.771z"/>
		</g>
		<g>
			<path d="M1034.055,335.134c0-3.804,0.768-7.053,2.303-9.746c1.535-2.694,3.148-4.489,4.838-5.387l0.086,0.014l0.551,1.68
				c-1.322,1.033-2.475,2.689-3.454,4.968s-1.47,5.093-1.47,8.442v0.188c0,3.351,0.486,6.165,1.463,8.443
				c0.975,2.278,2.129,3.978,3.461,5.098l-0.551,1.563h-0.086c-1.689-0.897-3.303-2.691-4.838-5.38s-2.303-5.939-2.303-9.753
				V335.134z"/>
		</g>
		<g>
			<path fill-rule="evenodd" clip-rule="evenodd" fill="#FFFFFF" d="M1007.484,377.796c0,0.742-0.605,1.348-1.348,1.348h-63.249
				c-0.741,0-1.349-0.606-1.349-1.348v-63.251c0-0.742,0.607-1.348,1.349-1.348h63.249c0.742,0,1.348,0.606,1.348,1.348V377.796z"/>
		</g>
		<g>
			<path d="M992.305,350.455c-2.549,3.031-4.27,5.718-5.162,8.059c-0.894,2.341-1.538,5.177-1.934,8.508l-0.232,2.274h-2.853
				l0.231-2.274c0.405-3.321,1.191-6.29,2.361-8.906c1.168-2.616,2.766-5.17,4.793-7.661h-11.471v-2.245h14.266V350.455z"/>
		</g>
		<g>
			<path d="M958.354,345.503h-2.433l8.805-22.896h2.418L958.354,345.503z"/>
		</g>
		<g>
			<path fill-rule="evenodd" clip-rule="evenodd" fill="#FFFFFF" d="M929.564,377.796c0,0.742-0.605,1.348-1.348,1.348H864.97
				c-0.741,0-1.349-0.606-1.349-1.348v-63.251c0-0.742,0.607-1.348,1.349-1.348h63.247c0.742,0,1.348,0.606,1.348,1.348V377.796z"/>
		</g>
		<g>
			<path d="M908.785,347.906c0.725,0,1.441,0.082,2.15,0.246s1.297,0.372,1.76,0.623l-0.607,2.187
				c-0.475-0.241-0.969-0.437-1.484-0.587c-0.518-0.149-1.123-0.224-1.818-0.224c-1.506,0-2.721,0.604-3.643,1.81
				c-0.922,1.207-1.383,2.78-1.383,4.721v0.333c0.618-0.541,1.325-0.964,2.122-1.268c0.796-0.304,1.653-0.456,2.57-0.456
				c1.883,0,3.384,0.651,4.504,1.955c1.12,1.303,1.68,2.954,1.68,4.953c0,2.182-0.597,3.961-1.788,5.336
				c-1.192,1.376-2.783,2.064-4.771,2.064c-2.066,0-3.775-0.749-5.127-2.245c-1.352-1.497-2.027-3.606-2.027-6.329V357
				c0-2.703,0.753-4.895,2.26-6.575C904.687,348.746,906.555,347.906,908.785,347.906z M907.814,357.421
				c-0.975,0-1.805,0.197-2.49,0.593c-0.686,0.395-1.207,0.92-1.564,1.576v1.706c0,1.938,0.41,3.433,1.231,4.483
				c0.82,1.051,1.849,1.576,3.085,1.576c1.168,0,2.078-0.494,2.729-1.482c0.652-0.988,0.979-2.215,0.979-3.681
				c0-1.388-0.351-2.53-1.05-3.427C910.033,357.869,909.061,357.421,907.814,357.421z"/>
		</g>
		<g>
			<path d="M875.617,338.016c0-1.178,0.34-2.208,1.021-3.092c0.68-0.884,1.696-1.769,3.048-2.657
				c-0.753-0.956-1.313-1.808-1.68-2.557c-0.367-0.748-0.55-1.518-0.55-2.31c0-1.631,0.471-2.889,1.412-3.772
				c0.941-0.883,2.236-1.325,3.888-1.325c1.524,0,2.767,0.439,3.722,1.318c0.955,0.878,1.434,1.936,1.434,3.171
				c0,0.947-0.253,1.765-0.76,2.455c-0.508,0.69-1.258,1.397-2.252,2.121l-1.578,1.159l4.923,5.923
				c0.396-0.627,0.704-1.323,0.927-2.085c0.223-0.763,0.334-1.569,0.334-2.419h2.549c0,1.274-0.188,2.453-0.564,3.533
				c-0.377,1.082-0.924,2.052-1.637,2.911l2.678,3.229l-0.028,0.072h-3.316l-1.23-1.477c-0.772,0.58-1.628,1.021-2.563,1.326
				c-0.937,0.304-1.906,0.456-2.91,0.456c-2.096,0-3.764-0.555-5.004-1.666C876.237,341.221,875.617,339.782,875.617,338.016z
				 M882.482,341.752c0.695,0,1.38-0.118,2.056-0.354c0.676-0.236,1.313-0.576,1.911-1.02l-5.228-6.288l-0.579,0.419
				c-0.879,0.656-1.461,1.282-1.745,1.879c-0.285,0.597-0.427,1.137-0.427,1.619c0,1.089,0.342,1.986,1.027,2.689
				S881.178,341.752,882.482,341.752z M880.309,327.372c0,0.512,0.131,1.045,0.393,1.6c0.26,0.556,0.65,1.161,1.172,1.817
				l1.998-1.376c0.551-0.366,0.926-0.765,1.123-1.194s0.297-0.905,0.297-1.427c0-0.588-0.234-1.11-0.702-1.563
				c-0.469-0.454-1.079-0.681-1.832-0.681c-0.782,0-1.386,0.272-1.81,0.818C880.521,325.911,880.309,326.58,880.309,327.372z"/>
		</g>
		<g>
			<path fill-rule="evenodd" clip-rule="evenodd" fill="#FFFFFF" d="M851.644,377.796c0,0.742-0.606,1.348-1.349,1.348h-63.244
				c-0.742,0-1.349-0.606-1.349-1.348v-63.251c0-0.742,0.606-1.348,1.349-1.348h63.244c0.742,0,1.349,0.606,1.349,1.348V377.796z"/>
		</g>
		<g>
			<path d="M823.635,359.781l1.217-11.571h10.557v2.535h-8.139l-0.695,5.923c0.444-0.328,0.939-0.602,1.484-0.818
				c0.546-0.218,1.176-0.335,1.891-0.355c1.94-0.019,3.469,0.613,4.584,1.897c1.114,1.284,1.672,3.013,1.672,5.185
				c0,2.114-0.566,3.813-1.701,5.098s-2.789,1.926-4.961,1.926c-1.785,0-3.271-0.488-4.459-1.463s-1.758-2.409-1.71-4.301
				l0.028-0.087h2.578c0,1.145,0.331,2.032,0.992,2.662c0.662,0.629,1.519,0.945,2.57,0.945c1.207,0,2.144-0.424,2.811-1.272
				c0.666-0.849,0.998-2.01,0.998-3.485c0-1.349-0.338-2.458-1.013-3.325c-0.677-0.868-1.608-1.302-2.796-1.302
				c-1.119,0-1.931,0.169-2.432,0.507c-0.503,0.338-0.869,0.854-1.102,1.55L823.635,359.781z"/>
		</g>
		<g>
			<path d="M796.679,326.662c0-1.226,0.396-2.259,1.188-3.099c0.792-0.84,1.849-1.26,3.171-1.26s2.381,0.418,3.172,1.253
				s1.188,1.871,1.188,3.106v1.115c0,1.226-0.394,2.254-1.18,3.084c-0.787,0.831-1.838,1.246-3.15,1.246
				c-1.332,0-2.396-0.415-3.193-1.246c-0.796-0.831-1.194-1.859-1.194-3.084V326.662z M798.793,327.777
				c0,0.714,0.195,1.32,0.586,1.817s0.953,0.746,1.688,0.746c0.705,0,1.25-0.246,1.637-0.739c0.386-0.492,0.58-1.101,0.58-1.824
				v-1.115c0-0.714-0.197-1.325-0.588-1.832s-0.943-0.761-1.658-0.761c-0.723,0-1.279,0.254-1.664,0.761
				c-0.387,0.507-0.58,1.118-0.58,1.832V327.777z M801.805,342.1l-1.578-0.97l10.297-16.48l1.578,0.97L801.805,342.1z
				 M806.889,338.522c0-1.226,0.396-2.256,1.188-3.092c0.791-0.835,1.849-1.252,3.172-1.252c1.313,0,2.367,0.417,3.164,1.252
				c0.797,0.835,1.193,1.866,1.193,3.092v1.13c0,1.235-0.395,2.269-1.188,3.099c-0.791,0.831-1.838,1.246-3.142,1.246
				c-1.332,0-2.397-0.415-3.192-1.246c-0.797-0.83-1.195-1.863-1.195-3.099V338.522z M809.003,339.652
				c0,0.724,0.195,1.335,0.586,1.832c0.392,0.497,0.954,0.746,1.688,0.746c0.704,0,1.25-0.249,1.637-0.746
				c0.386-0.497,0.579-1.108,0.579-1.832v-1.13c0-0.714-0.197-1.322-0.594-1.825c-0.396-0.501-0.946-0.752-1.65-0.752
				c-0.715,0-1.268,0.251-1.659,0.752c-0.391,0.502-0.586,1.111-0.586,1.825V339.652z"/>
		</g>
		<g>
			<path fill-rule="evenodd" clip-rule="evenodd" fill="#FFFFFF" d="M773.729,377.796c0,0.742-0.605,1.348-1.348,1.348h-63.252
				c-0.742,0-1.349-0.606-1.349-1.348v-63.251c0-0.742,0.606-1.348,1.349-1.348h63.252c0.742,0,1.348,0.606,1.348,1.348V377.796z"/>
		</g>
		<g>
			<path d="M756.293,362.2h2.912v2.245h-2.912v4.852h-2.838v-4.852h-9.471v-1.608l9.297-14.626h3.012V362.2z M747.025,362.2h6.43
				v-9.891l-0.088-0.015l-0.274,0.724L747.025,362.2z"/>
		</g>
		<g>
			<path d="M732.041,338.247c0-0.858-0.309-1.598-0.928-2.215c-0.617-0.618-1.631-1.168-3.041-1.651
				c-1.949-0.589-3.422-1.376-4.417-2.36c-0.995-0.985-1.491-2.298-1.491-3.939c0-1.593,0.456-2.891,1.369-3.896
				c0.912-1.004,2.169-1.607,3.771-1.81v-3.201h2.288v3.215c1.622,0.232,2.88,0.925,3.772,2.078c0.893,1.154,1.34,2.701,1.34,4.642
				h-2.838c0-1.313-0.305-2.375-0.912-3.186c-0.609-0.812-1.453-1.217-2.535-1.217c-1.139,0-1.991,0.297-2.557,0.891
				c-0.564,0.594-0.846,1.407-0.846,2.44c0,0.937,0.291,1.695,0.875,2.274s1.639,1.13,3.165,1.65
				c1.979,0.638,3.446,1.432,4.402,2.383s1.434,2.242,1.434,3.874c0,1.66-0.497,2.981-1.491,3.961
				c-0.994,0.979-2.361,1.561-4.099,1.745v2.781h-2.274v-2.767c-1.66-0.174-3.021-0.779-4.084-1.817
				c-1.061-1.038-1.572-2.561-1.535-4.569l0.029-0.073h2.752c0,1.487,0.374,2.547,1.123,3.179c0.747,0.632,1.666,0.949,2.758,0.949
				c1.246,0,2.219-0.297,2.918-0.891C731.69,340.123,732.041,339.3,732.041,338.247z"/>
		</g>
		<g>
			<path fill-rule="evenodd" clip-rule="evenodd" fill="#FFFFFF" d="M539.969,377.796c0,0.742-0.605,1.348-1.348,1.348h-63.246
				c-0.742,0-1.349-0.606-1.349-1.348v-63.251c0-0.742,0.606-1.348,1.349-1.348h63.246c0.742,0,1.348,0.606,1.348,1.348V377.796z"/>
		</g>
		<g>
			<path d="M519.037,369.296h-2.854v-18.305l-4.314,0.058v-2.057l7.168-0.782V369.296z"/>
		</g>
		<g>
			<g>
				<path d="M496.109,337.331h-2.854v-14.163h2.854V337.331z M496.123,344.254h-2.867v-2.955h2.867V344.254z"/>
			</g>
		</g>
		<g>
			<path fill-rule="evenodd" clip-rule="evenodd" fill="#FFFFFF" d="M461.835,377.796c0,0.742-0.606,1.348-1.349,1.348H397.24
				c-0.742,0-1.348-0.606-1.348-1.348v-63.251c0-0.742,0.605-1.348,1.348-1.348h63.246c0.742,0,1.349,0.606,1.349,1.348V377.796z"/>
		</g>
		<g>
			<path fill-rule="evenodd" clip-rule="evenodd" fill="#FFFFFF" d="M461.835,377.796c0,0.742-0.606,1.348-1.349,1.348H397.24
				c-0.742,0-1.348-0.606-1.348-1.348v-63.251c0-0.742,0.605-1.348,1.348-1.348h63.246c0.742,0,1.349,0.606,1.349,1.348V377.796z"/>
		</g>
		<g>
			<path d="M429.522,358.577l-0.206,0.89c0.742,0.125,1.358,0.422,1.85,0.89c0.49,0.468,0.735,1.158,0.735,2.071
				c0,1.095-0.45,1.968-1.353,2.619c-0.901,0.65-2.19,0.976-3.867,0.976l-0.12-1.866c0.821,0,1.483-0.14,1.985-0.419
				s0.753-0.699,0.753-1.258c0-0.547-0.206-0.93-0.616-1.146s-1.113-0.365-2.105-0.445l0.549-2.311H429.522z"/>
		</g>
	</g>
	<g>
		<g>
			<path fill="#FFFFFF" d="M200.328,101.938c0,9.54-6.898,13.8-16.259,13.8h-4.86v14.459h-7.919V88.739h12.239
				C193.969,88.739,200.328,92.999,200.328,101.938z M192.049,101.938c0-5.22-3.18-7.379-8.58-7.379h-4.26v15.239h4.26
				C188.75,109.798,192.049,107.999,192.049,101.938z"/>
			<path fill="#FFFFFF" d="M233.148,114.298c0,10.02-5.58,16.799-14.939,16.799s-14.939-6.36-14.939-16.799
				c0-9.959,5.58-16.739,15-16.739C227.629,97.559,233.148,103.919,233.148,114.298z M211.369,114.298
				c0,7.62,2.34,10.979,6.84,10.979s6.84-3.42,6.84-10.979c0-7.56-2.34-10.919-6.779-10.919
				C213.77,103.379,211.369,106.799,211.369,114.298z"/>
			<path fill="#FFFFFF" d="M240.05,122.938V85.739l7.68-0.84v37.799c0,1.5,0.54,2.22,1.8,2.22c0.721,0,1.26-0.12,1.801-0.3
				l1.619,5.399c-1.32,0.6-3.119,1.08-5.1,1.08C242.99,131.098,240.05,128.158,240.05,122.938z"/>
			<path fill="#FFFFFF" d="M285.289,114.298c0,10.02-5.58,16.799-14.939,16.799s-14.939-6.36-14.939-16.799
				c0-9.959,5.58-16.739,15-16.739C279.77,97.559,285.289,103.919,285.289,114.298z M263.51,114.298c0,7.62,2.34,10.979,6.84,10.979
				s6.84-3.42,6.84-10.979c0-7.56-2.34-10.919-6.779-10.919C265.91,103.379,263.51,106.799,263.51,114.298z"/>
			<path fill="#FFFFFF" d="M313.129,103.979l-15.359,20.219h15.66l-0.781,6H288.95v-5.52l15.419-20.219h-14.1v-6h22.859V103.979z
				 M312.169,85.56l-8.279,7.5h-4.8l-8.34-7.5l2.939-3.36l7.74,5.28l7.859-5.28L312.169,85.56z"/>
			<path fill="#FFFFFF" d="M345.289,125.878l-1.621,5.1c-3.479-0.3-5.76-1.5-7.02-4.62c-2.22,3.36-5.699,4.74-9.479,4.74
				c-6.36,0-10.259-4.02-10.259-9.78c0-6.9,5.219-10.62,14.459-10.62h3.959v-1.8c0-4.14-1.859-5.52-5.939-5.52
				c-2.16,0-5.219,0.6-8.399,1.68l-1.8-5.22c3.9-1.5,7.92-2.28,11.52-2.28c8.459,0,12.18,3.9,12.18,10.919v13.319
				C342.889,124.378,343.729,125.278,345.289,125.878z M335.328,121.618v-6.42h-3.18c-4.979,0-7.439,1.8-7.439,5.52
				c0,3.06,1.561,4.8,4.5,4.8C331.908,125.518,333.889,124.138,335.328,121.618z"/>
			<path fill="#FFFFFF" d="M359.809,127.378c0,9.72-4.439,12.959-11.58,15.839l-2.459-5.58c4.139-1.92,6.359-3.54,6.359-9.78V98.459
				h7.68V127.378z M360.768,87.06c0,2.58-1.92,4.62-4.799,4.62c-2.82,0-4.801-2.04-4.801-4.62c0-2.64,1.98-4.68,4.801-4.68
				C358.848,82.38,360.768,84.419,360.768,87.06z"/>
			<path fill="#FFFFFF" d="M412.248,114.238c0,9.72-4.5,16.859-12.54,16.859c-3.239,0-6-1.14-7.979-3.48v14.819l-7.68,0.84V98.459
				h6.719l0.42,3.9c2.521-3.3,5.94-4.8,9.18-4.8C408.768,97.559,412.248,104.099,412.248,114.238z M404.207,114.298
				c0-8.04-2.159-10.979-6.119-10.979c-2.64,0-4.859,1.86-6.359,4.32v14.279c1.5,2.22,3.42,3.3,5.819,3.3
				C401.748,125.218,404.207,121.978,404.207,114.298z"/>
			<path fill="#FFFFFF" d="M438.646,98.039l-1.319,7.439c-0.96-0.24-1.739-0.36-2.819-0.36c-3.9,0-5.82,2.82-7.021,8.22v16.859
				h-7.68V98.459h6.659l0.721,6.24c1.5-4.56,4.561-7.08,8.279-7.08C436.607,97.619,437.627,97.739,438.646,98.039z"/>
			<path fill="#FFFFFF" d="M464.146,101.339l-3,4.5c-2.639-1.68-5.159-2.58-7.979-2.58c-3.061,0-4.801,1.26-4.801,3.18
				c0,2.1,1.26,3.06,6.66,4.56c6.48,1.74,10.14,4.379,10.14,10.02c0,6.6-6.12,10.08-13.38,10.08c-5.459,0-9.719-1.86-12.659-4.5
				l3.84-4.32c2.46,1.86,5.399,3.12,8.64,3.12c3.42,0,5.64-1.44,5.64-3.84c0-2.64-1.26-3.48-7.2-5.16
				c-6.539-1.8-9.419-4.92-9.419-9.6c0-5.28,4.86-9.24,12.239-9.24C457.428,97.559,461.146,98.999,464.146,101.339z"/>
			<path fill="#FFFFFF" d="M489.588,128.698c-2.281,1.62-5.16,2.4-7.98,2.4c-6.24-0.06-9.539-3.6-9.539-10.38v-16.739h-4.98v-5.52
				h4.98v-7.02l7.68-0.9v7.92h7.379l-0.779,5.52h-6.6v16.56c0,3.12,1.02,4.38,3.359,4.38c1.199,0,2.4-0.36,3.779-1.2
				L489.588,128.698z"/>
			<path fill="#FFFFFF" d="M519.768,125.878l-1.621,5.1c-3.479-0.3-5.76-1.5-7.02-4.62c-2.22,3.36-5.699,4.74-9.479,4.74
				c-6.36,0-10.259-4.02-10.259-9.78c0-6.9,5.219-10.62,14.459-10.62h3.959v-1.8c0-4.14-1.859-5.52-5.939-5.52
				c-2.16,0-5.219,0.6-8.399,1.68l-1.8-5.22c3.9-1.5,7.92-2.28,11.52-2.28c8.459,0,12.18,3.9,12.18,10.919v13.319
				C517.367,124.378,518.207,125.278,519.768,125.878z M509.807,121.618v-6.42h-3.18c-4.979,0-7.439,1.8-7.439,5.52
				c0,3.06,1.561,4.8,4.5,4.8C506.387,125.518,508.367,124.138,509.807,121.618z"/>
			<path fill="#FFFFFF" d="M552.586,107.219v22.979h-7.68v-21.779c0-3.959-1.5-5.1-3.9-5.1c-2.76,0-4.799,1.86-6.659,4.8v22.079
				h-7.68V98.459h6.659l0.601,4.2c2.46-3.18,5.64-5.1,9.659-5.1C549.286,97.559,552.586,101.159,552.586,107.219z"/>
			<path fill="#FFFFFF" d="M584.626,101.279l-3.42,4.62c-2.1-1.56-4.02-2.28-6.419-2.28c-4.44,0-7.141,3.24-7.141,10.86
				c0,7.68,2.82,10.379,7.141,10.379c2.399,0,4.079-0.78,6.419-2.28l3.42,4.859c-2.88,2.34-6.18,3.66-10.259,3.66
				c-9.18,0-14.88-6.36-14.88-16.5c0-10.139,5.7-17.039,14.819-17.039C578.446,97.559,581.627,98.699,584.626,101.279z"/>
			<path fill="#FFFFFF" d="M615.467,116.698h-19.92c0.6,6.479,3.6,8.58,7.8,8.58c2.819,0,5.159-0.9,7.919-2.82l3.181,4.38
				c-3.12,2.52-6.96,4.26-11.76,4.26c-9.839,0-15.119-6.54-15.119-16.56c0-9.659,5.1-16.979,14.099-16.979
				c8.881,0,13.98,6,13.98,16.019C615.646,114.598,615.525,115.858,615.467,116.698z M608.026,111.358c0-5.22-1.86-8.34-6.18-8.34
				c-3.601,0-5.88,2.4-6.3,8.7h12.479V111.358z"/>
			<path fill="#FFFFFF" d="M637.307,130.198h-9.18l-10.5-31.739h8.34l6.779,25.559l6.96-25.559h7.919L637.307,130.198z"/>
		</g>
	</g>
</g>
<g id="mreza">
</g>
<g id="Layer_1">
</g>
<g id="glava">
	<g>
		<g>
			
				<path opacity="0.95" fill-rule="evenodd" clip-rule="evenodd" fill="none" stroke="#FFFFFF" stroke-width="2" stroke-miterlimit="10" d="
				M803.113,1080c2.85-5.202,6.48-9.902,11.204-13.874c3.562-2.994,11.282-13.935,11.282-13.935s14.516-23.426,21.256-35.328
				c10.147-17.92,28.645-54.948,28.645-54.948s10.262-19.503-1.2-26.194c-1.819-1.064-12.649-4.67-21.876,4.419
				c-3.625,3.57-18.631,25.789-22.717,33.177c-0.003,0-6.319,11.658-7.408,14.21c-9.897,14.512-22.24,0.389-22.016-14.823
				c0.146-9.863,0.248-19.81,1.835-29.521c1.546-9.46,10.88-72.255,11.22-94.592c0.227-14.914,1.262-37.336-15.922-30.826
				c-6.768,2.563-6.826,13.345-8.906,21.268c-1.091,4.143-12.168,70.768-13.856,75.516c-1.902,5.346-5.77,1.024-5.761-1.559
				c0.075-24.627,0.047-49.262-0.666-73.877c-0.412-14.216-1.326-39.847-16.209-34.08c-8.709,3.375-9.234,15.543-10.459,25.508
				c-1.334,10.861-0.584,84.825-4.016,93.781c-0.299,1.184-1.925,2.06-3.31,1.838c-5.031,0.928-9.21-44.977-10.544-59.854
				s-1.512-47.931-16.019-43.556c-7.271,2.191-6.982,10.813-7.597,17.922c-0.447,0.748,4.1,90.064,4.773,97.049
				c0.438,4.576-3.395,7.504-5.422,1.484c-2.507-7.441-9.308-40.722-10.586-49.605c-1.354-9.396-1.819-31.494-13.518-29.953
				c-6.155,0.811-8.693,6.431-9.865,8.802c-4.76,11.132-0.87,29.157,0.355,40.983c1.518,14.637,6.291,45.235,6.26,46.067
				c2.402,15.812-1,56.856,6.424,72.797c2.529,8.173,16.195,39.446,19.92,47.52c0.645,1.398,1.092,2.792,1.41,4.187"/>
			<g>
				<path stroke="#000000" stroke-width="2" stroke-miterlimit="10" d="M710.334,848.039c-7.235,0-13.121-5.886-13.121-13.122
					s5.886-13.12,13.121-13.12s13.12,5.884,13.12,13.12S717.569,848.039,710.334,848.039z M710.334,825.798
					c-5.03,0-9.121,4.091-9.121,9.12c0,5.03,4.091,9.122,9.121,9.122c5.029,0,9.12-4.092,9.12-9.122
					C719.454,829.889,715.363,825.798,710.334,825.798z"/>
				
					<circle fill-rule="evenodd" clip-rule="evenodd" stroke="#000000" stroke-width="2" stroke-miterlimit="10" cx="710.334" cy="834.917" r="5.053"/>
				<path stroke="#000000" stroke-width="2" stroke-miterlimit="10" d="M710.334,855.614c-11.411,0-20.695-9.285-20.695-20.697
					c0-11.41,9.284-20.695,20.695-20.695s20.695,9.285,20.695,20.695C731.029,846.33,721.745,855.614,710.334,855.614z
					 M710.334,816.223c-10.309,0-18.695,8.386-18.695,18.695c0,10.31,8.387,18.697,18.695,18.697s18.695-8.387,18.695-18.697
					C729.029,824.609,720.643,816.223,710.334,816.223z"/>
				<path stroke="#000000" stroke-miterlimit="10" d="M710.334,865.073c-16.628,0-30.156-13.527-30.156-30.157
					c0-16.626,13.528-30.154,30.156-30.154s30.156,13.528,30.156,30.154C740.49,851.546,726.962,865.073,710.334,865.073z
					 M710.334,805.763c-16.077,0-29.156,13.078-29.156,29.154c0,16.077,13.079,29.157,29.156,29.157s29.156-13.08,29.156-29.157
					C739.49,818.84,726.411,805.763,710.334,805.763z"/>
				<path d="M710.334,874.975c-22.089,0-40.059-17.969-40.059-40.059c0-22.087,17.97-40.057,40.059-40.057
					s40.059,17.969,40.059,40.057C750.393,857.006,732.423,874.975,710.334,874.975z M710.334,795.11
					c-21.95,0-39.809,17.857-39.809,39.807c0,21.951,17.858,39.809,39.809,39.809s39.809-17.857,39.809-39.809
					C750.143,812.967,732.284,795.11,710.334,795.11z"/>
			</g>
		</g>
		<g>
			
				<path opacity="0.95" fill-rule="evenodd" clip-rule="evenodd" fill="none" stroke="#FFFFFF" stroke-width="2" stroke-miterlimit="10" d="
				M1116.887,1080c-2.85-5.202-6.48-9.902-11.205-13.874c-3.561-2.994-11.281-13.935-11.281-13.935s-14.516-23.426-21.256-35.328
				c-10.147-17.92-28.645-54.948-28.645-54.948s-10.262-19.503,1.2-26.194c1.819-1.064,12.649-4.67,21.876,4.419
				c3.625,3.57,18.631,25.789,22.717,33.177c0.003,0,6.319,11.658,7.408,14.21c9.896,14.512,22.24,0.389,22.016-14.823
				c-0.146-9.863-0.248-19.81-1.836-29.521c-1.545-9.46-10.879-72.255-11.219-94.592c-0.227-14.914-1.262-37.336,15.922-30.826
				c6.768,2.563,6.826,13.345,8.906,21.268c1.091,4.143,12.168,70.768,13.856,75.516c1.902,5.346,5.769,1.024,5.761-1.559
				c-0.076-24.627-0.047-49.262,0.666-73.877c0.412-14.216,1.326-39.847,16.209-34.08c8.709,3.375,9.234,15.543,10.459,25.508
				c1.334,10.861,0.584,84.825,4.016,93.781c0.299,1.184,1.924,2.06,3.309,1.838c5.032,0.928,9.211-44.977,10.545-59.854
				s1.512-47.931,16.019-43.556c7.271,2.191,6.982,10.813,7.597,17.922c0.447,0.748-4.1,90.064-4.773,97.049
				c-0.438,4.576,3.395,7.504,5.422,1.484c2.507-7.441,9.307-40.722,10.586-49.605c1.354-9.396,1.819-31.494,13.518-29.953
				c6.155,0.811,8.693,6.431,9.865,8.802c4.76,11.132,0.87,29.157-0.355,40.983c-1.518,14.637-6.291,45.235-6.26,46.067
				c-2.402,15.812,1,56.856-6.424,72.797c-2.529,8.173-16.195,39.446-19.92,47.52c-0.645,1.398-1.092,2.792-1.41,4.187"/>
			<g>
				<path stroke="#000000" stroke-width="2" stroke-miterlimit="10" d="M1196.546,834.917c0-7.235,5.885-13.12,13.12-13.12
					s13.121,5.884,13.121,13.12s-5.886,13.122-13.121,13.122S1196.546,842.153,1196.546,834.917z M1200.546,834.917
					c0,5.03,4.091,9.122,9.12,9.122c5.03,0,9.121-4.092,9.121-9.122c0-5.029-4.091-9.12-9.121-9.12
					C1204.637,825.798,1200.546,829.889,1200.546,834.917z"/>
				
					<circle fill-rule="evenodd" clip-rule="evenodd" stroke="#000000" stroke-width="2" stroke-miterlimit="10" cx="1209.666" cy="834.917" r="5.053"/>
				<path stroke="#000000" stroke-width="2" stroke-miterlimit="10" d="M1188.971,834.917c0-11.41,9.284-20.695,20.695-20.695
					s20.695,9.285,20.695,20.695c0,11.412-9.284,20.697-20.695,20.697S1188.971,846.33,1188.971,834.917z M1190.971,834.917
					c0,10.31,8.387,18.697,18.695,18.697s18.695-8.387,18.695-18.697c0-10.309-8.387-18.695-18.695-18.695
					S1190.971,824.609,1190.971,834.917z"/>
				<path stroke="#000000" stroke-miterlimit="10" d="M1179.51,834.917c0-16.626,13.528-30.154,30.156-30.154
					s30.156,13.528,30.156,30.154c0,16.629-13.528,30.157-30.156,30.157S1179.51,851.546,1179.51,834.917z M1180.51,834.917
					c0,16.077,13.079,29.157,29.156,29.157s29.156-13.08,29.156-29.157c0-16.076-13.079-29.154-29.156-29.154
					S1180.51,818.84,1180.51,834.917z"/>
				<path d="M1169.607,834.917c0-22.087,17.97-40.057,40.059-40.057s40.059,17.969,40.059,40.057
					c0,22.089-17.97,40.059-40.059,40.059S1169.607,857.006,1169.607,834.917z M1169.857,834.917
					c0,21.951,17.858,39.809,39.809,39.809c21.949,0,39.809-17.857,39.809-39.809c0-21.949-17.859-39.807-39.809-39.807
					C1187.716,795.11,1169.857,812.967,1169.857,834.917z"/>
			</g>
		</g>
	</g>
</g>
<g id="UITELJ">
</g>
<g id="crta_x5F_maska">
</g>
</svg>
