<?xml version="1.0" encoding="utf-8"?>
<!-- Generator: Adobe Illustrator 16.0.0, SVG Export Plug-In . SVG Version: 6.00 Build 0)  -->
<!DOCTYPE svg PUBLIC "-//W3C//DTD SVG 1.1//EN" "http://www.w3.org/Graphics/SVG/1.1/DTD/svg11.dtd">
<svg version="1.1" xmlns="http://www.w3.org/2000/svg" xmlns:xlink="http://www.w3.org/1999/xlink" x="0px" y="0px" width="1920px"
	 height="1080px" viewBox="0 0 1920 1080" enable-background="new 0 0 1920 1080" xml:space="preserve">
<symbol  id="naprej" viewBox="-4.422 -10.786 21.572 21.572">
	<polygon fill="#32BCAD" points="17.15,-10.786 -4.422,-10.786 -4.422,10.786 17.15,10.786 	"/>
	<polyline fill="none" stroke="#FFFFFF" stroke-width="1.1354" stroke-miterlimit="10" points="4.773,3.182 7.955,0 4.773,-3.182 	
		"/>
</symbol>
<g id="Layer_8">
	<rect fill="#FFFFFF" width="1920" height="1080"/>
</g>
<g id="Layer_6">
</g>
<g id="gb">
	<path fill="#203341" d="M1196.347,480.402c72.894-126.254,234.334-169.51,360.59-96.617
		c126.255,72.893,169.511,234.331,96.618,360.586c-72.894,126.254-234.33,169.51-360.584,96.617
		C1166.713,768.096,1123.456,606.654,1196.347,480.402z"/>
	<circle fill="#32BCAD" cx="1424.95" cy="612.387" r="227.512"/>
	
		<line fill="none" stroke="#000000" stroke-width="2" stroke-miterlimit="10" x1="1424.951" y1="384.877" x2="1424.951" y2="459.236"/>
	
		<line fill="none" stroke="#000000" stroke-width="2" stroke-miterlimit="10" x1="1424.951" y1="384.877" x2="1424.951" y2="459.236"/>
	
		<line fill="none" stroke="#000000" stroke-width="2" stroke-miterlimit="10" x1="1424.951" y1="384.877" x2="1424.951" y2="459.236"/>
	
		<line fill="none" stroke="#000000" stroke-width="2" stroke-miterlimit="10" x1="1652.461" y1="612.387" x2="1578.102" y2="612.387"/>
	
		<line fill="none" stroke="#000000" stroke-width="2" stroke-miterlimit="10" x1="1652.461" y1="612.387" x2="1578.102" y2="612.387"/>
	
		<line fill="none" stroke="#000000" stroke-width="2" stroke-miterlimit="10" x1="1652.461" y1="612.387" x2="1578.102" y2="612.387"/>
	
		<line fill="none" stroke="#000000" stroke-width="2" stroke-miterlimit="10" x1="1424.951" y1="839.896" x2="1424.951" y2="765.539"/>
	
		<line fill="none" stroke="#000000" stroke-width="2" stroke-miterlimit="10" x1="1424.951" y1="839.896" x2="1424.951" y2="765.539"/>
	
		<line fill="none" stroke="#000000" stroke-width="2" stroke-miterlimit="10" x1="1424.951" y1="839.896" x2="1424.951" y2="765.539"/>
	
		<line fill="none" stroke="#000000" stroke-width="2" stroke-miterlimit="10" x1="1197.442" y1="612.387" x2="1271.801" y2="612.387"/>
	
		<line fill="none" stroke="#000000" stroke-width="2" stroke-miterlimit="10" x1="1197.442" y1="612.387" x2="1271.801" y2="612.387"/>
	
		<line fill="none" stroke="#000000" stroke-width="2" stroke-miterlimit="10" x1="1197.442" y1="612.387" x2="1271.801" y2="612.387"/>
	
		<line fill="none" stroke="#000000" stroke-width="2" stroke-miterlimit="10" x1="1424.951" y1="384.877" x2="1424.951" y2="459.236"/>
	
		<line fill="none" stroke="#000000" stroke-width="2" stroke-miterlimit="10" x1="1424.951" y1="384.877" x2="1424.951" y2="459.236"/>
	
		<line fill="none" stroke="#000000" stroke-width="2" stroke-miterlimit="10" x1="1424.951" y1="384.877" x2="1424.951" y2="459.236"/>
	
		<line fill="none" stroke="#000000" stroke-width="2" stroke-miterlimit="10" x1="1652.461" y1="612.387" x2="1578.102" y2="612.387"/>
	
		<line fill="none" stroke="#000000" stroke-width="2" stroke-miterlimit="10" x1="1652.461" y1="612.387" x2="1578.102" y2="612.387"/>
	
		<line fill="none" stroke="#000000" stroke-width="2" stroke-miterlimit="10" x1="1652.461" y1="612.387" x2="1578.102" y2="612.387"/>
	
		<line fill="none" stroke="#000000" stroke-width="2" stroke-miterlimit="10" x1="1424.951" y1="839.896" x2="1424.951" y2="765.539"/>
	
		<line fill="none" stroke="#000000" stroke-width="2" stroke-miterlimit="10" x1="1424.951" y1="839.896" x2="1424.951" y2="765.539"/>
	
		<line fill="none" stroke="#000000" stroke-width="2" stroke-miterlimit="10" x1="1424.951" y1="839.896" x2="1424.951" y2="765.539"/>
	
		<line fill="none" stroke="#000000" stroke-width="2" stroke-miterlimit="10" x1="1197.442" y1="612.387" x2="1271.801" y2="612.387"/>
	
		<line fill="none" stroke="#000000" stroke-width="2" stroke-miterlimit="10" x1="1197.442" y1="612.387" x2="1271.801" y2="612.387"/>
	
		<line fill="none" stroke="#000000" stroke-width="2" stroke-miterlimit="10" x1="1197.442" y1="612.387" x2="1271.801" y2="612.387"/>
	
		<line fill="none" stroke="#000000" stroke-width="2" stroke-miterlimit="10" x1="1311.196" y1="415.357" x2="1348.376" y2="479.754"/>
	
		<line fill="none" stroke="#000000" stroke-width="2" stroke-miterlimit="10" x1="1311.196" y1="415.357" x2="1348.376" y2="479.754"/>
	
		<line fill="none" stroke="#000000" stroke-width="2" stroke-miterlimit="10" x1="1311.196" y1="415.357" x2="1348.376" y2="479.754"/>
	
		<line fill="none" stroke="#000000" stroke-width="2" stroke-miterlimit="10" x1="1621.98" y1="498.633" x2="1557.584" y2="535.812"/>
	
		<line fill="none" stroke="#000000" stroke-width="2" stroke-miterlimit="10" x1="1621.98" y1="498.633" x2="1557.584" y2="535.812"/>
	
		<line fill="none" stroke="#000000" stroke-width="2" stroke-miterlimit="10" x1="1621.98" y1="498.633" x2="1557.584" y2="535.812"/>
	
		<line fill="none" stroke="#000000" stroke-width="2" stroke-miterlimit="10" x1="1538.706" y1="809.416" x2="1501.526" y2="745.021"/>
	
		<line fill="none" stroke="#000000" stroke-width="2" stroke-miterlimit="10" x1="1538.706" y1="809.416" x2="1501.526" y2="745.021"/>
	
		<line fill="none" stroke="#000000" stroke-width="2" stroke-miterlimit="10" x1="1538.706" y1="809.416" x2="1501.526" y2="745.021"/>
	
		<line fill="none" stroke="#000000" stroke-width="2" stroke-miterlimit="10" x1="1227.923" y1="726.141" x2="1292.318" y2="688.962"/>
	
		<line fill="none" stroke="#000000" stroke-width="2" stroke-miterlimit="10" x1="1227.923" y1="726.141" x2="1292.318" y2="688.962"/>
	
		<line fill="none" stroke="#000000" stroke-width="2" stroke-miterlimit="10" x1="1227.923" y1="726.141" x2="1292.318" y2="688.962"/>
	
		<line fill="none" stroke="#000000" stroke-width="2" stroke-miterlimit="10" x1="1227.922" y1="498.633" x2="1292.318" y2="535.812"/>
	
		<line fill="none" stroke="#000000" stroke-width="2" stroke-miterlimit="10" x1="1227.922" y1="498.633" x2="1292.318" y2="535.812"/>
	
		<line fill="none" stroke="#000000" stroke-width="2" stroke-miterlimit="10" x1="1227.922" y1="498.633" x2="1292.318" y2="535.812"/>
	
		<line fill="none" stroke="#000000" stroke-width="2" stroke-miterlimit="10" x1="1538.706" y1="415.357" x2="1501.526" y2="479.754"/>
	
		<line fill="none" stroke="#000000" stroke-width="2" stroke-miterlimit="10" x1="1538.706" y1="415.357" x2="1501.526" y2="479.754"/>
	
		<line fill="none" stroke="#000000" stroke-width="2" stroke-miterlimit="10" x1="1538.706" y1="415.357" x2="1501.526" y2="479.754"/>
	
		<line fill="none" stroke="#000000" stroke-width="2" stroke-miterlimit="10" x1="1621.98" y1="726.143" x2="1557.584" y2="688.963"/>
	
		<line fill="none" stroke="#000000" stroke-width="2" stroke-miterlimit="10" x1="1621.98" y1="726.143" x2="1557.584" y2="688.963"/>
	
		<line fill="none" stroke="#000000" stroke-width="2" stroke-miterlimit="10" x1="1621.98" y1="726.143" x2="1557.584" y2="688.963"/>
	
		<line fill="none" stroke="#000000" stroke-width="2" stroke-miterlimit="10" x1="1311.196" y1="809.416" x2="1348.376" y2="745.02"/>
	
		<line fill="none" stroke="#000000" stroke-width="2" stroke-miterlimit="10" x1="1311.196" y1="809.416" x2="1348.376" y2="745.02"/>
	
		<line fill="none" stroke="#000000" stroke-width="2" stroke-miterlimit="10" x1="1311.196" y1="809.416" x2="1348.376" y2="745.02"/>
	<circle fill="#32BCAD" cx="1424.951" cy="612.387" r="200.909"/>
	<path opacity="0.3" fill="#35A8DF" d="M1706.836,449.709c-27.605-47.908-67.795-89.422-119.123-119.057
		c-51.329-29.635-107.377-43.684-162.672-43.634v325.384L1706.836,449.709z"/>
	<g>
		<g>
			<path fill="none" stroke="#000000" stroke-width="5.2" stroke-miterlimit="10" d="M1514.764,525.107
				c-6.416-9.479-15.021-17.688-25.6-23.795c-12.319-7.111-25.771-10.484-39.041-10.472"/>
			<g>
				<polygon points="1520.951,498.821 1515.774,498.284 1513.158,523.789 1487.908,519.316 1487.005,524.441 1517.757,529.884 				
					"/>
			</g>
		</g>
	</g>
	<g>
		<g>
			<path d="M198.855,435.76v13.865h-4.329v-31.971h11.579c3.502,0,6.175,0.777,8.021,2.329c1.846,1.553,2.769,3.81,2.769,6.768
				c0,1.641-0.429,3.069-1.285,4.285c-0.857,1.216-2.105,2.183-3.746,2.9c1.758,0.571,3.021,1.497,3.79,2.779
				c0.769,1.282,1.153,2.867,1.153,4.757v3.011c0,0.996,0.109,1.89,0.33,2.681c0.219,0.791,0.6,1.436,1.143,1.934v0.527h-4.461
				c-0.571-0.498-0.938-1.23-1.099-2.197s-0.241-1.963-0.241-2.988v-2.923c0-1.728-0.506-3.12-1.517-4.175s-2.366-1.582-4.065-1.582
				H198.855z M198.855,432.354h6.811c2.447,0,4.208-0.464,5.285-1.393c1.076-0.929,1.615-2.343,1.615-4.243
				c0-1.799-0.524-3.191-1.571-4.178c-1.048-0.987-2.677-1.48-4.89-1.48h-7.25V432.354z"/>
			<path d="M238.143,449.625c-0.146-0.718-0.261-1.352-0.342-1.9c-0.08-0.55-0.127-1.103-0.143-1.659
				c-0.805,1.143-1.855,2.099-3.152,2.867s-2.691,1.153-4.186,1.153c-2.477,0-4.361-0.633-5.658-1.9
				c-1.297-1.267-1.945-3.014-1.945-5.24c0-2.271,0.92-4.047,2.758-5.328c1.838-1.282,4.332-1.923,7.482-1.923h4.701v-2.352
				c0-1.392-0.424-2.493-1.273-3.307s-2.051-1.22-3.604-1.22c-1.393,0-2.523,0.355-3.395,1.066c-0.873,0.71-1.309,1.563-1.309,2.56
				h-4.131l-0.043-0.132c-0.088-1.729,0.729-3.311,2.449-4.746s3.944-2.153,6.669-2.153c2.695,0,4.863,0.685,6.504,2.054
				c1.641,1.37,2.461,3.344,2.461,5.922v11.448c0,0.85,0.044,1.67,0.132,2.461s0.249,1.567,0.483,2.329H238.143z M230.957,446.438
				c1.567,0,2.98-0.401,4.24-1.205s2.08-1.724,2.461-2.761v-3.856h-4.855c-1.743,0-3.139,0.438-4.186,1.315
				c-1.048,0.876-1.571,1.906-1.571,3.089c0,1.052,0.329,1.885,0.989,2.498C228.693,446.132,229.668,446.438,230.957,446.438z"/>
			<path d="M252.358,446.219h13.733v3.406h-18.896v-3.055l12.854-17.314h-12.7v-3.405h17.995v2.922L252.358,446.219z"/>
			<path d="M269.563,438.177c0-3.823,0.816-6.906,2.451-9.25c1.633-2.344,3.922-3.516,6.865-3.516c1.393,0,2.627,0.256,3.703,0.769
				c1.076,0.514,1.996,1.26,2.758,2.241v-13.073h4.328v34.277h-3.537l-0.506-2.923c-0.776,1.113-1.729,1.956-2.856,2.527
				s-2.438,0.856-3.933,0.856c-2.9,0-5.172-1.051-6.813-3.152c-1.641-2.103-2.461-4.867-2.461-8.295V438.177z M273.892,438.639
				c0,2.402,0.491,4.325,1.472,5.768c0.982,1.443,2.506,2.164,4.57,2.164c1.289,0,2.373-0.293,3.252-0.879s1.598-1.406,2.154-2.461
				v-11.096c-0.557-0.981-1.279-1.762-2.164-2.34c-0.887-0.579-1.953-0.868-3.197-0.868c-2.08,0-3.615,0.856-4.604,2.57
				s-1.483,3.94-1.483,6.68V438.639z"/>
			<path d="M305.994,450.086c-3.311,0-5.943-1.102-7.9-3.307c-1.955-2.205-2.933-5.064-2.933-8.58v-0.967
				c0-3.384,1.007-6.2,3.021-8.449c2.015-2.248,4.398-3.372,7.152-3.372c3.209,0,5.633,0.967,7.273,2.9s2.461,4.512,2.461,7.734
				v2.702h-15.425l-0.065,0.109c0.043,2.279,0.622,4.152,1.735,5.621c1.113,1.468,2.673,2.202,4.681,2.202
				c1.465,0,2.75-0.209,3.855-0.626c1.105-0.418,2.063-0.992,2.867-1.726l1.692,2.815c-0.85,0.841-1.97,1.541-3.362,2.102
				C309.656,449.806,307.971,450.086,305.994,450.086z M305.334,428.816c-1.449,0-2.688,0.61-3.713,1.829s-1.655,2.748-1.89,4.587
				l0.044,0.11h10.965v-0.569c0-1.693-0.455-3.109-1.363-4.249C308.469,429.387,307.121,428.816,305.334,428.816z"/>
			<path d="M324.604,449.625h-4.329v-34.277h4.329V449.625z"/>
			<path d="M335.942,419.764h-4.329v-4.416h4.329V419.764z M335.942,449.625h-4.329v-23.774h4.329V449.625z"/>
			<path d="M348.313,420.115v5.735h4.505v3.208h-4.505v14.436c0,1.113,0.231,1.897,0.692,2.352c0.462,0.454,1.073,0.681,1.835,0.681
				c0.249,0,0.523-0.029,0.824-0.088c0.3-0.058,0.567-0.132,0.802-0.22l0.571,2.967c-0.322,0.264-0.795,0.479-1.417,0.648
				c-0.623,0.168-1.249,0.252-1.879,0.252c-1.758,0-3.157-0.53-4.196-1.593c-1.041-1.062-1.561-2.728-1.561-4.999v-14.436h-3.779
				v-3.208h3.779v-5.735H348.313z"/>
			<path d="M368.022,450.086c-3.311,0-5.943-1.102-7.899-3.307c-1.955-2.205-2.934-5.064-2.934-8.58v-0.967
				c0-3.384,1.008-6.2,3.021-8.449c2.014-2.248,4.398-3.372,7.152-3.372c3.208,0,5.633,0.967,7.273,2.9s2.461,4.512,2.461,7.734
				v2.702h-15.426l-0.065,0.109c0.044,2.279,0.622,4.152,1.735,5.621c1.113,1.468,2.674,2.202,4.681,2.202
				c1.465,0,2.75-0.209,3.856-0.626c1.105-0.418,2.062-0.992,2.867-1.726l1.691,2.815c-0.85,0.841-1.97,1.541-3.361,2.102
				C371.685,449.806,370,450.086,368.022,450.086z M367.363,428.816c-1.45,0-2.688,0.61-3.713,1.829s-1.656,2.748-1.891,4.587
				l0.045,0.11h10.964v-0.569c0-1.693-0.454-3.109-1.362-4.249C370.498,429.387,369.15,428.816,367.363,428.816z"/>
			<path d="M406.958,443.297c0-0.952-0.362-1.736-1.088-2.352c-0.725-0.615-2.099-1.149-4.12-1.604
				c-2.885-0.629-5.057-1.48-6.515-2.556s-2.187-2.542-2.187-4.399c0-1.93,0.82-3.575,2.461-4.936s3.779-2.04,6.416-2.04
				c2.77,0,4.97,0.71,6.604,2.131c1.633,1.421,2.413,3.149,2.34,5.186l-0.044,0.132h-4.131c0-1.04-0.437-1.974-1.308-2.801
				c-0.871-0.828-2.025-1.242-3.461-1.242c-1.537,0-2.68,0.338-3.428,1.011c-0.746,0.674-1.12,1.487-1.12,2.439
				c0,0.938,0.329,1.677,0.989,2.219c0.658,0.542,1.999,1.025,4.021,1.45c3.003,0.645,5.237,1.52,6.702,2.626
				s2.197,2.589,2.197,4.449c0,2.109-0.854,3.816-2.561,5.12s-3.937,1.955-6.69,1.955c-3.032,0-5.42-0.769-7.163-2.307
				s-2.57-3.332-2.482-5.384l0.043-0.132h4.131c0.074,1.531,0.645,2.649,1.715,3.356c1.068,0.707,2.321,1.061,3.757,1.061
				c1.538,0,2.743-0.312,3.614-0.935C406.521,445.124,406.958,444.308,406.958,443.297z"/>
			<path d="M421.35,419.764h-4.328v-4.416h4.328V419.764z M421.35,449.625h-4.328v-23.774h4.328V449.625z"/>
			<path d="M444.904,420.115v5.735h4.504v3.208h-4.504v14.436c0,1.113,0.23,1.897,0.691,2.352c0.462,0.454,1.073,0.681,1.835,0.681
				c0.249,0,0.523-0.029,0.824-0.088c0.3-0.058,0.567-0.132,0.802-0.22l0.571,2.967c-0.322,0.264-0.795,0.479-1.417,0.648
				c-0.623,0.168-1.249,0.252-1.879,0.252c-1.758,0-3.157-0.53-4.197-1.593c-1.04-1.062-1.56-2.728-1.56-4.999v-14.436h-3.779
				v-3.208h3.779v-5.735H444.904z"/>
			<path d="M459.428,419.764H455.1v-4.416h4.328V419.764z M459.428,449.625H455.1v-23.774h4.328V449.625z"/>
			<path d="M486.344,438.639c0,3.428-0.82,6.192-2.461,8.295c-1.641,2.102-3.903,3.152-6.789,3.152c-1.465,0-2.75-0.245-3.856-0.736
				c-1.105-0.49-2.047-1.227-2.823-2.208v11.624h-4.328v-32.915h3.317l0.681,3.076c0.776-1.143,1.743-2.015,2.9-2.615
				s2.506-0.9,4.043-0.9c2.945,0,5.233,1.168,6.867,3.505c1.633,2.336,2.449,5.424,2.449,9.261V438.639z M482.016,438.166
				c0-2.692-0.531-4.905-1.593-6.639c-1.063-1.734-2.626-2.601-4.691-2.601c-1.245,0-2.308,0.282-3.187,0.845
				c-0.879,0.563-1.589,1.335-2.131,2.315v11.478c0.542,0.98,1.252,1.744,2.131,2.293s1.956,0.823,3.23,0.823
				c2.051,0,3.604-0.75,4.658-2.25c1.055-1.499,1.582-3.434,1.582-5.804V438.166z"/>
			<path d="M498.824,438.616h-2.813v11.009h-4.328v-34.277h4.328v19.863h2.77l6.504-9.36h5.186l-8.131,10.792l9.295,12.982h-5.098
				L498.824,438.616z"/>
			<path d="M529.345,449.625c-0.146-0.718-0.26-1.352-0.341-1.9c-0.08-0.55-0.128-1.103-0.143-1.659
				c-0.806,1.143-1.856,2.099-3.153,2.867c-1.296,0.769-2.691,1.153-4.186,1.153c-2.476,0-4.361-0.633-5.658-1.9
				c-1.296-1.267-1.944-3.014-1.944-5.24c0-2.271,0.919-4.047,2.758-5.328c1.838-1.282,4.332-1.923,7.481-1.923h4.702v-2.352
				c0-1.392-0.425-2.493-1.274-3.307s-2.051-1.22-3.604-1.22c-1.392,0-2.523,0.355-3.395,1.066c-0.872,0.71-1.308,1.563-1.308,2.56
				h-4.131l-0.044-0.132c-0.088-1.729,0.729-3.311,2.45-4.746c1.721-1.436,3.944-2.153,6.669-2.153c2.694,0,4.862,0.685,6.504,2.054
				c1.64,1.37,2.461,3.344,2.461,5.922v11.448c0,0.85,0.043,1.67,0.131,2.461s0.249,1.567,0.484,2.329H529.345z M522.159,446.438
				c1.567,0,2.981-0.401,4.241-1.205s2.08-1.724,2.461-2.761v-3.856h-4.856c-1.743,0-3.138,0.438-4.186,1.315
				c-1.047,0.876-1.57,1.906-1.57,3.089c0,1.052,0.329,1.885,0.988,2.498S520.87,446.438,522.159,446.438z"/>
			<path d="M543.342,425.851l0.307,3.537c0.791-1.26,1.784-2.237,2.978-2.933c1.194-0.696,2.553-1.044,4.076-1.044
				c2.563,0,4.548,0.751,5.954,2.252c1.406,1.502,2.109,3.819,2.109,6.954v15.008h-4.328v-14.92c0-2.095-0.414-3.581-1.241-4.46
				c-0.828-0.879-2.092-1.318-3.79-1.318c-1.246,0-2.348,0.3-3.308,0.9c-0.959,0.601-1.725,1.421-2.296,2.461v17.337h-4.328v-23.774
				H543.342z"/>
			<path d="M570.038,425.851v25.729c0,2.446-0.63,4.332-1.89,5.658s-3.01,1.988-5.252,1.988c-0.454,0-0.867-0.033-1.241-0.099
				c-0.373-0.065-0.772-0.165-1.197-0.297l0.308-3.405c0.205,0.073,0.498,0.135,0.879,0.187s0.695,0.077,0.945,0.077
				c0.951,0,1.71-0.322,2.273-0.967c0.564-0.645,0.846-1.692,0.846-3.143v-25.729H570.038z M569.906,419.676h-4.328v-4.328h4.328
				V419.676z"/>
			<path d="M586.562,450.086c-3.311,0-5.943-1.102-7.899-3.307c-1.955-2.205-2.933-5.064-2.933-8.58v-0.967
				c0-3.384,1.007-6.2,3.021-8.449c2.015-2.248,4.398-3.372,7.152-3.372c3.208,0,5.632,0.967,7.272,2.9s2.461,4.512,2.461,7.734
				v2.702h-15.424l-0.066,0.109c0.044,2.279,0.622,4.152,1.736,5.621c1.112,1.468,2.673,2.202,4.68,2.202
				c1.465,0,2.75-0.209,3.856-0.626c1.105-0.418,2.062-0.992,2.867-1.726l1.692,2.815c-0.851,0.841-1.971,1.541-3.362,2.102
				C590.224,449.806,588.539,450.086,586.562,450.086z M585.902,428.816c-1.45,0-2.688,0.61-3.714,1.829s-1.655,2.748-1.889,4.587
				l0.043,0.11h10.965v-0.569c0-1.693-0.454-3.109-1.362-4.249C589.037,429.387,587.689,428.816,585.902,428.816z"/>
			<path d="M621.344,446.681c1.435,0,2.698-0.443,3.79-1.329c1.091-0.887,1.637-1.975,1.637-3.264h3.89l0.043,0.132
				c0.073,2.052-0.838,3.875-2.735,5.472c-1.896,1.597-4.105,2.395-6.624,2.395c-3.458,0-6.102-1.128-7.933-3.384
				c-1.831-2.255-2.747-5.09-2.747-8.503v-0.923c0-3.384,0.92-6.208,2.758-8.471c1.839-2.263,4.479-3.395,7.922-3.395
				c2.782,0,5.057,0.82,6.822,2.461c1.765,1.641,2.618,3.655,2.56,6.042l-0.044,0.132h-3.911c0-1.45-0.513-2.684-1.538-3.702
				c-1.025-1.018-2.322-1.527-3.889-1.527c-2.271,0-3.894,0.816-4.867,2.447c-0.975,1.631-1.461,3.632-1.461,6.002v0.922
				c0,2.429,0.482,4.451,1.449,6.068C617.432,445.872,619.059,446.681,621.344,446.681z M620.311,418.973l3.23-3.252h3.734v0.396
				l-5.646,5.384h-2.615l-5.58-5.34v-0.439h3.646L620.311,418.973z"/>
			<path d="M645.426,450.086c-3.311,0-5.943-1.102-7.899-3.307c-1.955-2.205-2.933-5.064-2.933-8.58v-0.967
				c0-3.384,1.007-6.2,3.021-8.449c2.015-2.248,4.398-3.372,7.152-3.372c3.208,0,5.632,0.967,7.272,2.9s2.461,4.512,2.461,7.734
				v2.702h-15.424l-0.066,0.109c0.044,2.279,0.622,4.152,1.736,5.621c1.112,1.468,2.673,2.202,4.68,2.202
				c1.465,0,2.75-0.209,3.856-0.626c1.105-0.418,2.062-0.992,2.867-1.726l1.692,2.815c-0.851,0.841-1.971,1.541-3.362,2.102
				C649.088,449.806,647.403,450.086,645.426,450.086z M644.767,428.816c-1.45,0-2.688,0.61-3.714,1.829s-1.655,2.748-1.889,4.587
				l0.043,0.11h10.965v-0.569c0-1.693-0.454-3.109-1.362-4.249C647.901,429.387,646.554,428.816,644.767,428.816z"/>
			<path d="M663.443,446.219h13.733v3.406H658.28v-3.055l12.854-17.314h-12.701v-3.405h17.996v2.922L663.443,446.219z"/>
			<path d="M701.105,442.615l0.373,1.67h0.133l0.417-1.67l5.472-16.765h4.416l-8.745,23.774h-3.274l-8.854-23.774h4.438
				L701.105,442.615z"/>
			<path d="M729.626,443.297c0-0.952-0.362-1.736-1.088-2.352c-0.725-0.615-2.098-1.149-4.119-1.604
				c-2.887-0.629-5.058-1.48-6.516-2.556c-1.457-1.075-2.186-2.542-2.186-4.399c0-1.93,0.819-3.575,2.461-4.936
				c1.64-1.36,3.779-2.04,6.416-2.04c2.768,0,4.969,0.71,6.603,2.131c1.633,1.421,2.413,3.149,2.34,5.186l-0.044,0.132h-4.131
				c0-1.04-0.436-1.974-1.308-2.801c-0.871-0.828-2.025-1.242-3.46-1.242c-1.539,0-2.682,0.338-3.428,1.011
				c-0.748,0.674-1.121,1.487-1.121,2.439c0,0.938,0.33,1.677,0.988,2.219c0.66,0.542,2,1.025,4.021,1.45
				c3.003,0.645,5.236,1.52,6.701,2.626s2.197,2.589,2.197,4.449c0,2.109-0.853,3.816-2.56,5.12
				c-1.706,1.304-3.937,1.955-6.69,1.955c-3.032,0-5.42-0.769-7.163-2.307s-2.571-3.332-2.483-5.384l0.045-0.132h4.131
				c0.072,1.531,0.644,2.649,1.713,3.356s2.322,1.061,3.758,1.061c1.538,0,2.743-0.312,3.614-0.935
				C729.19,445.124,729.626,444.308,729.626,443.297z"/>
			<path d="M749.203,450.086c-3.311,0-5.943-1.102-7.899-3.307c-1.955-2.205-2.933-5.064-2.933-8.58v-0.967
				c0-3.384,1.007-6.2,3.021-8.449c2.015-2.248,4.398-3.372,7.152-3.372c3.208,0,5.632,0.967,7.272,2.9s2.461,4.512,2.461,7.734
				v2.702h-15.424l-0.066,0.109c0.044,2.279,0.622,4.152,1.736,5.621c1.112,1.468,2.673,2.202,4.68,2.202
				c1.465,0,2.75-0.209,3.856-0.626c1.105-0.418,2.062-0.992,2.867-1.726l1.692,2.815c-0.851,0.841-1.971,1.541-3.362,2.102
				C752.865,449.806,751.181,450.086,749.203,450.086z M748.544,428.816c-1.45,0-2.688,0.61-3.714,1.829s-1.655,2.748-1.889,4.587
				l0.043,0.11h10.965v-0.569c0-1.693-0.454-3.109-1.362-4.249C751.679,429.387,750.331,428.816,748.544,428.816z"/>
			<path d="M773.329,438.177c0-3.823,0.816-6.906,2.45-9.25c1.633-2.344,3.922-3.516,6.866-3.516c1.392,0,2.626,0.256,3.702,0.769
				c1.077,0.514,1.996,1.26,2.758,2.241v-13.073h4.328v34.277h-3.537l-0.506-2.923c-0.776,1.113-1.729,1.956-2.855,2.527
				c-1.129,0.571-2.439,0.856-3.934,0.856c-2.9,0-5.171-1.051-6.812-3.152c-1.641-2.103-2.461-4.867-2.461-8.295V438.177z
				 M777.658,438.639c0,2.402,0.49,4.325,1.472,5.768c0.981,1.443,2.505,2.164,4.57,2.164c1.289,0,2.373-0.293,3.252-0.879
				s1.597-1.406,2.153-2.461v-11.096c-0.557-0.981-1.278-1.762-2.164-2.34c-0.887-0.579-1.952-0.868-3.197-0.868
				c-2.08,0-3.614,0.856-4.604,2.57c-0.988,1.714-1.482,3.94-1.482,6.68V438.639z"/>
			<path d="M803.762,425.851l0.307,3.537c0.791-1.26,1.784-2.237,2.978-2.933c1.194-0.696,2.553-1.044,4.076-1.044
				c2.563,0,4.548,0.751,5.954,2.252c1.406,1.502,2.109,3.819,2.109,6.954v15.008h-4.328v-14.92c0-2.095-0.414-3.581-1.241-4.46
				c-0.828-0.879-2.092-1.318-3.79-1.318c-1.246,0-2.348,0.3-3.308,0.9c-0.959,0.601-1.725,1.421-2.296,2.461v17.337h-4.328v-23.774
				H803.762z"/>
			<path d="M830.15,419.764h-4.328v-4.416h4.328V419.764z M830.15,449.625h-4.328v-23.774h4.328V449.625z"/>
			<path d="M855.924,442.615l0.373,1.67h0.133l0.417-1.67l5.472-16.765h4.416l-8.745,23.774h-3.274l-8.854-23.774h4.438
				L855.924,442.615z"/>
			<path d="M887.521,420.115v5.735h4.504v3.208h-4.504v14.436c0,1.113,0.23,1.897,0.691,2.352c0.462,0.454,1.073,0.681,1.835,0.681
				c0.249,0,0.523-0.029,0.824-0.088c0.3-0.058,0.567-0.132,0.802-0.22l0.571,2.967c-0.322,0.264-0.795,0.479-1.417,0.648
				c-0.623,0.168-1.249,0.252-1.879,0.252c-1.758,0-3.157-0.53-4.197-1.593c-1.04-1.062-1.56-2.728-1.56-4.999v-14.436h-3.779
				v-3.208h3.779v-5.735H887.521z"/>
			<path d="M907.23,450.086c-3.311,0-5.943-1.102-7.899-3.307c-1.955-2.205-2.933-5.064-2.933-8.58v-0.967
				c0-3.384,1.007-6.2,3.021-8.449c2.015-2.248,4.398-3.372,7.152-3.372c3.208,0,5.632,0.967,7.272,2.9s2.461,4.512,2.461,7.734
				v2.702h-15.424l-0.066,0.109c0.044,2.279,0.622,4.152,1.736,5.621c1.112,1.468,2.673,2.202,4.68,2.202
				c1.465,0,2.75-0.209,3.856-0.626c1.105-0.418,2.062-0.992,2.867-1.726l1.692,2.815c-0.851,0.841-1.971,1.541-3.362,2.102
				C910.893,449.806,909.208,450.086,907.23,450.086z M906.571,428.816c-1.45,0-2.688,0.61-3.714,1.829s-1.655,2.748-1.889,4.587
				l0.043,0.11h10.965v-0.569c0-1.693-0.454-3.109-1.362-4.249C909.706,429.387,908.358,428.816,906.571,428.816z"/>
			<path d="M920.173,438.177c0-3.823,0.816-6.906,2.45-9.25c1.633-2.344,3.922-3.516,6.866-3.516c1.392,0,2.626,0.256,3.702,0.769
				c1.077,0.514,1.996,1.26,2.758,2.241v-13.073h4.328v34.277h-3.537l-0.506-2.923c-0.776,1.113-1.729,1.956-2.855,2.527
				c-1.129,0.571-2.439,0.856-3.934,0.856c-2.9,0-5.171-1.051-6.812-3.152c-1.641-2.103-2.461-4.867-2.461-8.295V438.177z
				 M924.502,438.639c0,2.402,0.49,4.325,1.472,5.768c0.981,1.443,2.505,2.164,4.57,2.164c1.289,0,2.373-0.293,3.252-0.879
				s1.597-1.406,2.153-2.461v-11.096c-0.557-0.981-1.278-1.762-2.164-2.34c-0.887-0.579-1.952-0.868-3.197-0.868
				c-2.08,0-3.614,0.856-4.604,2.57c-0.988,1.714-1.482,3.94-1.482,6.68V438.639z"/>
			<path d="M950.605,425.851l0.307,3.537c0.791-1.26,1.784-2.237,2.978-2.933c1.194-0.696,2.553-1.044,4.076-1.044
				c2.563,0,4.548,0.751,5.954,2.252c1.406,1.502,2.109,3.819,2.109,6.954v15.008h-4.328v-14.92c0-2.095-0.414-3.581-1.241-4.46
				c-0.828-0.879-2.092-1.318-3.79-1.318c-1.246,0-2.348,0.3-3.308,0.9c-0.959,0.601-1.725,1.421-2.296,2.461v17.337h-4.328v-23.774
				H950.605z"/>
			<path d="M987.409,446.109c-0.747,1.274-1.707,2.256-2.878,2.944c-1.173,0.688-2.527,1.032-4.065,1.032
				c-2.593,0-4.614-0.827-6.064-2.482s-2.175-4.233-2.175-7.734v-14.019h4.328v14.063c0,2.534,0.373,4.277,1.121,5.229
				c0.746,0.952,1.911,1.428,3.493,1.428c1.538,0,2.809-0.311,3.813-0.934c1.003-0.623,1.761-1.505,2.274-2.647v-17.139h4.328
				v23.774h-3.889L987.409,446.109z"/>
			<path d="M1002.614,449.625h-4.329v-4.482h4.329V449.625z"/>
			<path d="M194.526,579.625v-31.992h10.437c3.34,0,5.955,0.722,7.845,2.164c1.89,1.443,2.835,3.607,2.835,6.493
				c0,1.421-0.455,2.691-1.363,3.812c-0.908,1.121-2.102,1.953-3.581,2.494c1.934,0.41,3.453,1.355,4.56,2.835
				c1.105,1.479,1.658,3.2,1.658,5.163c0,2.93-0.948,5.168-2.845,6.713c-1.897,1.546-4.472,2.318-7.724,2.318H194.526z
				 M198.855,561.233h7.009c1.611,0,2.923-0.442,3.933-1.329c1.012-0.887,1.517-2.12,1.517-3.702c0-1.729-0.546-3.021-1.637-3.878
				c-1.092-0.857-2.663-1.286-4.714-1.286h-6.107V561.233z M198.855,564.64v11.579h7.492c1.963,0,3.494-0.484,4.592-1.455
				c1.1-0.971,1.648-2.346,1.648-4.127c0-1.867-0.458-3.334-1.373-4.399c-0.916-1.065-2.326-1.598-4.23-1.598H198.855z"/>
			<path d="M221.465,567.518c0-3.516,0.952-6.412,2.856-8.689c1.904-2.278,4.489-3.417,7.757-3.417c3.295,0,5.898,1.135,7.811,3.405
				c1.912,2.271,2.867,5.172,2.867,8.701v0.483c0,3.546-0.951,6.446-2.855,8.701c-1.904,2.256-4.498,3.384-7.779,3.384
				s-5.877-1.131-7.789-3.395s-2.867-5.16-2.867-8.69V567.518z M225.793,567.99c0,2.516,0.531,4.594,1.594,6.232
				c1.062,1.639,2.641,2.458,4.734,2.458c2.066,0,3.633-0.819,4.703-2.458c1.068-1.639,1.604-3.717,1.604-6.232v-0.483
				c0-2.486-0.539-4.557-1.615-6.21s-2.654-2.48-4.734-2.48c-2.066,0-3.63,0.827-4.691,2.48c-1.063,1.653-1.594,3.724-1.594,6.21
				V567.99z"/>
			<path d="M252.732,579.625h-4.329v-34.277h4.329V579.625z"/>
			<path d="M264.377,555.851v25.729c0,2.446-0.629,4.332-1.889,5.658s-3.011,1.988-5.252,1.988c-0.454,0-0.867-0.033-1.242-0.099
				c-0.373-0.065-0.771-0.165-1.197-0.297l0.309-3.405c0.205,0.073,0.498,0.135,0.879,0.187s0.695,0.077,0.944,0.077
				c0.952,0,1.71-0.322,2.274-0.967c0.563-0.645,0.846-1.692,0.846-3.143v-25.729H264.377z M264.246,549.676h-4.329v-4.328h4.329
				V549.676z"/>
			<path d="M280.9,580.086c-3.311,0-5.943-1.102-7.898-3.307s-2.934-5.064-2.934-8.58v-0.967c0-3.384,1.007-6.2,3.021-8.449
				c2.014-2.248,4.398-3.372,7.152-3.372c3.207,0,5.632,0.967,7.272,2.9s2.461,4.512,2.461,7.734v2.702h-15.425l-0.066,0.109
				c0.045,2.279,0.623,4.152,1.736,5.621c1.113,1.468,2.674,2.202,4.68,2.202c1.465,0,2.75-0.209,3.857-0.626
				c1.105-0.418,2.061-0.992,2.867-1.726l1.691,2.815c-0.85,0.841-1.971,1.541-3.361,2.102
				C284.563,579.806,282.879,580.086,280.9,580.086z M280.242,558.816c-1.451,0-2.688,0.61-3.714,1.829s-1.655,2.748-1.89,4.587
				l0.044,0.11h10.964v-0.569c0-1.693-0.453-3.109-1.361-4.249C283.377,559.387,282.029,558.816,280.242,558.816z"/>
			<path d="M311.004,555.851v25.729c0,2.446-0.631,4.332-1.891,5.658s-3.01,1.988-5.251,1.988c-0.454,0-0.868-0.033-1.241-0.099
				s-0.773-0.165-1.197-0.297l0.307-3.405c0.205,0.073,0.498,0.135,0.879,0.187s0.696,0.077,0.945,0.077
				c0.952,0,1.71-0.322,2.273-0.967c0.564-0.645,0.847-1.692,0.847-3.143v-25.729H311.004z M310.871,549.676h-4.328v-4.328h4.328
				V549.676z"/>
			<path d="M327.527,580.086c-3.311,0-5.943-1.102-7.9-3.307c-1.955-2.205-2.933-5.064-2.933-8.58v-0.967
				c0-3.384,1.007-6.2,3.021-8.449c2.015-2.248,4.398-3.372,7.152-3.372c3.209,0,5.633,0.967,7.273,2.9s2.461,4.512,2.461,7.734
				v2.702h-15.425l-0.065,0.109c0.043,2.279,0.622,4.152,1.735,5.621c1.113,1.468,2.673,2.202,4.681,2.202
				c1.465,0,2.75-0.209,3.855-0.626c1.105-0.418,2.063-0.992,2.867-1.726l1.692,2.815c-0.85,0.841-1.97,1.541-3.362,2.102
				C331.189,579.806,329.504,580.086,327.527,580.086z M326.867,558.816c-1.449,0-2.688,0.61-3.713,1.829s-1.655,2.748-1.89,4.587
				l0.044,0.11h10.965v-0.569c0-1.693-0.455-3.109-1.363-4.249C330.002,559.387,328.654,558.816,326.867,558.816z"/>
			<path d="M360.574,572.615l0.373,1.67h0.132l0.417-1.67l5.472-16.765h4.417l-8.746,23.774h-3.273l-8.855-23.774h4.439
				L360.574,572.615z"/>
			<path d="M389.556,579.625c-0.146-0.718-0.261-1.352-0.341-1.9c-0.08-0.55-0.128-1.103-0.143-1.659
				c-0.806,1.143-1.856,2.099-3.153,2.867c-1.296,0.769-2.691,1.153-4.186,1.153c-2.476,0-4.361-0.633-5.658-1.9
				c-1.296-1.267-1.944-3.014-1.944-5.24c0-2.271,0.919-4.047,2.758-5.328c1.838-1.282,4.332-1.923,7.481-1.923h4.702v-2.352
				c0-1.392-0.425-2.493-1.274-3.307s-2.051-1.22-3.604-1.22c-1.392,0-2.523,0.355-3.395,1.066c-0.872,0.71-1.308,1.563-1.308,2.56
				h-4.131l-0.044-0.132c-0.088-1.729,0.729-3.311,2.45-4.746c1.721-1.436,3.943-2.153,6.668-2.153c2.695,0,4.863,0.685,6.504,2.054
				c1.641,1.37,2.461,3.344,2.461,5.922v11.448c0,0.85,0.045,1.67,0.133,2.461s0.248,1.567,0.482,2.329H389.556z M382.371,576.438
				c1.566,0,2.98-0.401,4.24-1.205s2.08-1.724,2.461-2.761v-3.856h-4.855c-1.744,0-3.139,0.438-4.187,1.315
				c-1.048,0.876-1.571,1.906-1.571,3.089c0,1.052,0.33,1.885,0.989,2.498S381.082,576.438,382.371,576.438z"/>
			<path d="M398.696,568.177c0-3.823,0.816-6.906,2.45-9.25c1.633-2.344,3.922-3.516,6.866-3.516c1.392,0,2.626,0.256,3.702,0.769
				c1.077,0.514,1.996,1.26,2.758,2.241v-13.073h4.328v34.277h-3.537l-0.506-2.923c-0.776,1.113-1.729,1.956-2.855,2.527
				c-1.129,0.571-2.439,0.856-3.934,0.856c-2.9,0-5.171-1.051-6.812-3.152c-1.641-2.103-2.461-4.867-2.461-8.295V568.177z
				 M403.025,568.639c0,2.402,0.49,4.325,1.472,5.768c0.981,1.443,2.505,2.164,4.57,2.164c1.289,0,2.373-0.293,3.252-0.879
				s1.597-1.406,2.153-2.461v-11.096c-0.557-0.981-1.278-1.762-2.164-2.34c-0.887-0.579-1.952-0.868-3.197-0.868
				c-2.08,0-3.614,0.856-4.604,2.57c-0.988,1.714-1.482,3.94-1.482,6.68V568.639z"/>
			<path d="M429.941,549.764h-4.328v-4.416h4.328V549.764z M429.941,579.625h-4.328v-23.774h4.328V579.625z"/>
			<path d="M442.313,550.115v5.735h4.504v3.208h-4.504v14.436c0,1.113,0.23,1.897,0.691,2.352c0.462,0.454,1.073,0.681,1.835,0.681
				c0.249,0,0.523-0.029,0.824-0.088c0.3-0.058,0.567-0.132,0.802-0.22l0.571,2.967c-0.322,0.264-0.795,0.479-1.417,0.648
				c-0.623,0.168-1.249,0.252-1.879,0.252c-1.758,0-3.157-0.53-4.197-1.593c-1.04-1.062-1.56-2.728-1.56-4.999v-14.436h-3.779
				v-3.208h3.779v-5.735H442.313z"/>
			<path d="M456.836,549.764h-4.328v-4.416h4.328V549.764z M456.836,579.625h-4.328v-23.774h4.328V579.625z"/>
			<path d="M482.588,570.77l0.417,2.197h0.132l0.439-2.197l3.911-14.919h6.702l-8.086,23.774h-6.131l-8.086-23.774h6.701
				L482.588,570.77z"/>
			<path d="M509.833,573.077c0-0.703-0.34-1.312-1.021-1.824c-0.681-0.513-1.944-0.967-3.79-1.362
				c-2.813-0.571-4.933-1.417-6.361-2.537c-1.428-1.121-2.142-2.648-2.142-4.582c0-2.051,0.86-3.79,2.581-5.219
				c1.722-1.428,4.024-2.142,6.911-2.142c3.031,0,5.445,0.71,7.239,2.131c1.795,1.421,2.655,3.216,2.582,5.384l-0.044,0.132h-6.196
				c0-0.952-0.304-1.729-0.912-2.329c-0.607-0.601-1.498-0.901-2.669-0.901c-1.041,0-1.857,0.253-2.45,0.759
				c-0.594,0.505-0.89,1.139-0.89,1.9c0,0.732,0.311,1.333,0.934,1.802c0.622,0.469,1.886,0.886,3.79,1.252
				c2.93,0.586,5.104,1.447,6.526,2.582c1.42,1.136,2.131,2.699,2.131,4.691c0,2.139-0.916,3.886-2.746,5.24
				c-1.832,1.354-4.249,2.032-7.252,2.032c-3.164,0-5.665-0.802-7.503-2.406c-1.839-1.604-2.714-3.431-2.626-5.481l0.044-0.132
				h5.866c0.045,1.274,0.462,2.197,1.253,2.769s1.823,0.856,3.099,0.856c1.186,0,2.091-0.234,2.713-0.703
				C509.522,574.52,509.833,573.883,509.833,573.077z"/>
			<path d="M534.136,579.625c-0.235-0.542-0.437-1.113-0.604-1.714c-0.169-0.601-0.29-1.216-0.362-1.846
				c-0.66,1.157-1.527,2.116-2.604,2.878c-1.076,0.762-2.362,1.143-3.856,1.143c-2.49,0-4.409-0.641-5.756-1.922
				c-1.349-1.282-2.021-3.029-2.021-5.241c0-2.329,0.896-4.134,2.691-5.416c1.794-1.282,4.412-1.923,7.855-1.923h3.581v-1.89
				c0-1.143-0.301-2.028-0.901-2.658s-1.486-0.945-2.658-0.945c-1.04,0-1.842,0.253-2.406,0.759
				c-0.563,0.505-0.846,1.205-0.846,2.098l-6.196-0.021l-0.022-0.132c-0.103-2.007,0.77-3.739,2.615-5.196
				c1.846-1.458,4.27-2.187,7.273-2.187c2.841,0,5.148,0.722,6.921,2.164s2.659,3.497,2.659,6.163v9.822
				c0,1.113,0.084,2.16,0.252,3.142c0.169,0.981,0.436,1.956,0.803,2.923H534.136z M528.269,575.34c1.128,0,2.131-0.277,3.01-0.835
				c0.879-0.557,1.473-1.2,1.78-1.934v-3.361h-3.581c-1.363,0-2.396,0.341-3.099,1.021s-1.055,1.505-1.055,2.472
				c0,0.791,0.264,1.429,0.791,1.912S527.36,575.34,528.269,575.34z"/>
			<path d="M552.526,569.671h-1.758v9.954h-6.416v-34.277h6.416v19.445h1.582l5.516-8.942h7.426l-7.602,10.767l8.767,13.008h-7.36
				L552.526,569.671z"/>
			<path d="M578.675,567.936c0-3.75,0.809-6.775,2.428-9.075c1.618-2.3,3.9-3.449,6.844-3.449c1.188,0,2.256,0.256,3.209,0.769
				c0.951,0.514,1.786,1.245,2.504,2.197v-13.029h6.438v34.277h-5.515l-0.527-2.9c-0.748,1.099-1.63,1.934-2.648,2.505
				c-1.018,0.571-2.186,0.856-3.504,0.856c-2.916,0-5.183-1.068-6.801-3.208c-1.619-2.139-2.428-4.966-2.428-8.481V567.936z
				 M585.068,568.4c0,2.093,0.352,3.739,1.055,4.94s1.846,1.802,3.428,1.802c0.923,0,1.729-0.188,2.417-0.564
				c0.688-0.375,1.252-0.924,1.691-1.646v-10.189c-0.439-0.752-0.999-1.337-1.681-1.758c-0.681-0.42-1.476-0.63-2.384-0.63
				c-1.567,0-2.714,0.7-3.438,2.101c-0.726,1.4-1.088,3.227-1.088,5.481V568.4z"/>
			<path d="M619.017,579.625c-0.235-0.542-0.437-1.113-0.604-1.714c-0.169-0.601-0.29-1.216-0.362-1.846
				c-0.66,1.157-1.527,2.116-2.604,2.878c-1.076,0.762-2.362,1.143-3.856,1.143c-2.49,0-4.409-0.641-5.756-1.922
				c-1.349-1.282-2.021-3.029-2.021-5.241c0-2.329,0.896-4.134,2.691-5.416c1.794-1.282,4.412-1.923,7.855-1.923h3.581v-1.89
				c0-1.143-0.301-2.028-0.901-2.658s-1.486-0.945-2.658-0.945c-1.04,0-1.842,0.253-2.406,0.759
				c-0.563,0.505-0.846,1.205-0.846,2.098l-6.196-0.021l-0.022-0.132c-0.103-2.007,0.77-3.739,2.615-5.196
				c1.846-1.458,4.27-2.187,7.273-2.187c2.841,0,5.148,0.722,6.921,2.164s2.659,3.497,2.659,6.163v9.822
				c0,1.113,0.084,2.16,0.252,3.142c0.169,0.981,0.436,1.956,0.803,2.923H619.017z M613.149,575.34c1.128,0,2.131-0.277,3.01-0.835
				c0.879-0.557,1.473-1.2,1.78-1.934v-3.361h-3.581c-1.363,0-2.396,0.341-3.099,1.021s-1.055,1.505-1.055,2.472
				c0,0.791,0.264,1.429,0.791,1.912S612.241,575.34,613.149,575.34z"/>
			<path d="M635.101,555.851l0.285,3.405c0.791-1.216,1.765-2.16,2.922-2.834s2.454-1.011,3.89-1.011
				c2.402,0,4.277,0.755,5.625,2.263c1.348,1.509,2.021,3.875,2.021,7.098v14.854h-6.438V564.76c0-1.601-0.322-2.734-0.967-3.402
				c-0.645-0.669-1.618-1.003-2.922-1.003c-0.85,0-1.611,0.173-2.285,0.519c-0.674,0.345-1.238,0.833-1.691,1.464v17.288h-6.416
				v-23.774H635.101z"/>
			<path d="M680.057,579.625h-6.416v-26.323h-6.504v-4.526l12.92-1.143V579.625z"/>
			<path d="M712.928,567.166c0,4.233-0.971,7.445-2.911,9.635c-1.941,2.19-4.567,3.285-7.878,3.285c-3.34,0-5.983-1.095-7.932-3.285
				c-1.948-2.189-2.922-5.401-2.922-9.635v-7.053c0-4.219,0.97-7.431,2.911-9.635c1.94-2.205,4.573-3.308,7.899-3.308
				c3.31,0,5.943,1.103,7.898,3.308c1.956,2.204,2.934,5.416,2.934,9.635V567.166z M706.533,559.447
				c0-2.532-0.381-4.387-1.143-5.565c-0.762-1.178-1.86-1.767-3.295-1.767c-1.451,0-2.549,0.585-3.297,1.756
				c-0.746,1.171-1.12,3.029-1.12,5.576v8.319c0,2.575,0.377,4.449,1.132,5.62c0.754,1.17,1.863,1.756,3.328,1.756
				c1.436,0,2.527-0.586,3.274-1.756c0.747-1.171,1.12-3.045,1.12-5.62V559.447z"/>
			<path d="M734.638,555.851l0.264,3.142c0.761-1.143,1.717-2.024,2.867-2.647c1.149-0.622,2.479-0.934,3.988-0.934
				c1.522,0,2.826,0.337,3.91,1.011s1.904,1.691,2.461,3.054c0.732-1.274,1.685-2.271,2.857-2.988
				c1.171-0.718,2.549-1.076,4.131-1.076c2.343,0,4.192,0.81,5.548,2.428c1.354,1.618,2.032,4.083,2.032,7.394v14.393h-6.416
				v-14.447c0-1.806-0.293-3.061-0.879-3.766s-1.458-1.058-2.615-1.058c-0.908,0-1.695,0.202-2.361,0.606
				c-0.667,0.403-1.197,0.965-1.594,1.684c0,0.279,0.008,0.519,0.022,0.717s0.022,0.4,0.022,0.605v15.658h-6.395v-14.447
				c0-1.762-0.293-3.006-0.879-3.732s-1.465-1.091-2.637-1.091c-0.864,0-1.622,0.166-2.274,0.496
				c-0.651,0.33-1.19,0.796-1.614,1.398v17.376h-6.395v-23.774H734.638z"/>
			<path d="M774.364,550.159h-6.416v-4.812h6.416V550.159z M774.364,579.625h-6.416v-23.774h6.416V579.625z"/>
			<path d="M785.504,555.851l0.285,3.405c0.791-1.216,1.765-2.16,2.922-2.834s2.454-1.011,3.89-1.011
				c2.402,0,4.277,0.755,5.625,2.263c1.348,1.509,2.021,3.875,2.021,7.098v14.854h-6.438V564.76c0-1.601-0.322-2.734-0.967-3.402
				c-0.645-0.669-1.618-1.003-2.922-1.003c-0.85,0-1.611,0.173-2.285,0.519c-0.674,0.345-1.238,0.833-1.691,1.464v17.288h-6.416
				v-23.774H785.504z"/>
			<path d="M819.561,576.197c-0.732,1.245-1.662,2.205-2.79,2.878c-1.128,0.674-2.425,1.011-3.89,1.011
				c-2.504,0-4.464-0.802-5.877-2.406c-1.414-1.604-2.121-4.098-2.121-7.481v-14.348h6.395v14.425c0,1.732,0.293,2.977,0.879,3.732
				c0.586,0.757,1.45,1.135,2.593,1.135c1.025,0,1.904-0.165,2.637-0.496c0.732-0.33,1.333-0.818,1.802-1.464v-17.332h6.416v23.774
				h-5.471L819.561,576.197z"/>
			<path d="M838.063,550.027v5.823h3.998v4.504h-3.998v12.107c0,0.923,0.189,1.582,0.57,1.978s0.894,0.593,1.539,0.593
				c0.336,0,0.626-0.019,0.867-0.055c0.242-0.036,0.523-0.099,0.846-0.187l0.55,4.636c-0.645,0.22-1.274,0.385-1.89,0.495
				c-0.615,0.109-1.282,0.164-2,0.164c-2.212,0-3.914-0.607-5.108-1.823c-1.193-1.216-1.79-3.143-1.79-5.779v-12.129h-3.473v-4.504
				h3.473v-5.823H838.063z"/>
			<path d="M865.176,568.616h-2.813v11.009h-4.328v-34.277h4.328v19.863h2.77l6.504-9.36h5.186l-8.131,10.792l9.295,12.982h-5.098
				L865.176,568.616z"/>
			<path d="M880.073,567.518c0-3.516,0.952-6.412,2.857-8.689c1.903-2.278,4.489-3.417,7.756-3.417c3.296,0,5.899,1.135,7.812,3.405
				c1.911,2.271,2.867,5.172,2.867,8.701v0.483c0,3.546-0.952,6.446-2.856,8.701c-1.904,2.256-4.497,3.384-7.778,3.384
				s-5.878-1.131-7.789-3.395c-1.912-2.264-2.868-5.16-2.868-8.69V567.518z M884.402,567.99c0,2.516,0.531,4.594,1.593,6.232
				c1.063,1.639,2.641,2.458,4.735,2.458c2.065,0,3.633-0.819,4.702-2.458s1.604-3.717,1.604-6.232v-0.483
				c0-2.486-0.538-4.557-1.614-6.21c-1.077-1.653-2.655-2.48-4.735-2.48c-2.065,0-3.629,0.827-4.691,2.48
				c-1.062,1.653-1.593,3.724-1.593,6.21V567.99z"/>
			<path d="M912.374,550.115v5.735h4.504v3.208h-4.504v14.436c0,1.113,0.23,1.897,0.691,2.352c0.462,0.454,1.073,0.681,1.835,0.681
				c0.249,0,0.523-0.029,0.824-0.088c0.3-0.058,0.567-0.132,0.802-0.22l0.571,2.967c-0.322,0.264-0.795,0.479-1.417,0.648
				c-0.623,0.168-1.249,0.252-1.879,0.252c-1.758,0-3.157-0.53-4.197-1.593c-1.04-1.062-1.56-2.728-1.56-4.999v-14.436h-3.779
				v-3.208h3.779v-5.735H912.374z"/>
			<path d="M953.66,568.639c0,3.428-0.82,6.192-2.461,8.295c-1.641,2.102-3.903,3.152-6.789,3.152c-1.465,0-2.75-0.245-3.856-0.736
				c-1.105-0.49-2.047-1.227-2.823-2.208v11.624h-4.328v-32.915h3.317l0.681,3.076c0.776-1.143,1.743-2.015,2.9-2.615
				s2.506-0.9,4.043-0.9c2.945,0,5.233,1.168,6.867,3.505c1.633,2.336,2.449,5.424,2.449,9.261V568.639z M949.332,568.166
				c0-2.692-0.531-4.905-1.593-6.639c-1.063-1.734-2.626-2.601-4.691-2.601c-1.245,0-2.308,0.282-3.187,0.845
				c-0.879,0.563-1.589,1.335-2.131,2.315v11.478c0.542,0.98,1.252,1.744,2.131,2.293s1.956,0.823,3.23,0.823
				c2.051,0,3.604-0.75,4.658-2.25c1.055-1.499,1.582-3.434,1.582-5.804V568.166z"/>
			<path d="M973.59,579.625c-0.146-0.718-0.26-1.352-0.341-1.9c-0.08-0.55-0.128-1.103-0.143-1.659
				c-0.806,1.143-1.856,2.099-3.153,2.867c-1.296,0.769-2.691,1.153-4.186,1.153c-2.476,0-4.361-0.633-5.658-1.9
				c-1.296-1.267-1.944-3.014-1.944-5.24c0-2.271,0.919-4.047,2.758-5.328c1.838-1.282,4.332-1.923,7.481-1.923h4.702v-2.352
				c0-1.392-0.425-2.493-1.274-3.307s-2.051-1.22-3.604-1.22c-1.392,0-2.523,0.355-3.395,1.066c-0.872,0.71-1.308,1.563-1.308,2.56
				h-4.131l-0.044-0.132c-0.088-1.729,0.729-3.311,2.45-4.746c1.721-1.436,3.944-2.153,6.669-2.153c2.694,0,4.862,0.685,6.504,2.054
				c1.64,1.37,2.461,3.344,2.461,5.922v11.448c0,0.85,0.043,1.67,0.131,2.461s0.249,1.567,0.484,2.329H973.59z M966.404,576.438
				c1.567,0,2.981-0.401,4.241-1.205s2.08-1.724,2.461-2.761v-3.856h-4.856c-1.743,0-3.138,0.438-4.186,1.315
				c-1.047,0.876-1.57,1.906-1.57,3.089c0,1.052,0.329,1.885,0.988,2.498S965.115,576.438,966.404,576.438z"/>
			<path d="M999.584,579.625h-4.328v-34.277h4.328V579.625z"/>
			<path d="M1016.107,580.086c-3.311,0-5.943-1.102-7.899-3.307c-1.955-2.205-2.933-5.064-2.933-8.58v-0.967
				c0-3.384,1.007-6.2,3.021-8.449c2.015-2.248,4.398-3.372,7.152-3.372c3.208,0,5.632,0.967,7.272,2.9s2.461,4.512,2.461,7.734
				v2.702h-15.424l-0.066,0.109c0.044,2.279,0.622,4.152,1.736,5.621c1.112,1.468,2.673,2.202,4.68,2.202
				c1.465,0,2.75-0.209,3.856-0.626c1.105-0.418,2.062-0.992,2.867-1.726l1.692,2.815c-0.851,0.841-1.971,1.541-3.362,2.102
				C1019.77,579.806,1018.085,580.086,1016.107,580.086z M1015.448,558.816c-1.45,0-2.688,0.61-3.714,1.829
				s-1.655,2.748-1.889,4.587l0.043,0.11h10.965v-0.569c0-1.693-0.454-3.109-1.362-4.249
				C1018.583,559.387,1017.235,558.816,1015.448,558.816z"/>
			<path d="M203.579,645.086c-3.311,0-5.943-1.102-7.899-3.307c-1.955-2.205-2.934-5.064-2.934-8.58v-0.967
				c0-3.384,1.008-6.2,3.021-8.449c2.014-2.248,4.398-3.372,7.152-3.372c3.208,0,5.633,0.967,7.273,2.9s2.461,4.512,2.461,7.734
				v2.702h-15.426l-0.065,0.109c0.044,2.279,0.622,4.152,1.735,5.621c1.113,1.468,2.674,2.202,4.681,2.202
				c1.465,0,2.75-0.209,3.856-0.626c1.105-0.418,2.062-0.992,2.867-1.726l1.691,2.815c-0.85,0.841-1.97,1.541-3.361,2.102
				C207.241,644.806,205.557,645.086,203.579,645.086z M202.92,623.816c-1.45,0-2.688,0.61-3.713,1.829s-1.656,2.748-1.891,4.587
				l0.045,0.11h10.964v-0.569c0-1.693-0.454-3.109-1.362-4.249C206.055,624.387,204.707,623.816,202.92,623.816z"/>
			<path d="M221.377,620.851l0.308,3.537c0.791-1.26,1.783-2.237,2.978-2.933c1.193-0.696,2.553-1.044,4.076-1.044
				c2.563,0,4.548,0.751,5.954,2.252c1.406,1.502,2.109,3.819,2.109,6.954v15.008h-4.329v-14.92c0-2.095-0.414-3.581-1.24-4.46
				c-0.828-0.879-2.092-1.318-3.791-1.318c-1.245,0-2.348,0.3-3.307,0.9c-0.96,0.601-1.725,1.421-2.297,2.461v17.337h-4.328v-23.774
				H221.377z"/>
			<path d="M253.281,633.177c0-3.823,0.816-6.906,2.45-9.25c1.633-2.344,3.922-3.516,6.866-3.516c1.392,0,2.626,0.256,3.702,0.769
				c1.077,0.514,1.996,1.26,2.758,2.241v-13.073h4.329v34.277h-3.538l-0.505-2.923c-0.777,1.113-1.729,1.956-2.857,2.527
				c-1.127,0.571-2.438,0.856-3.933,0.856c-2.9,0-5.171-1.051-6.812-3.152c-1.641-2.103-2.461-4.867-2.461-8.295V633.177z
				 M257.609,633.639c0,2.402,0.491,4.325,1.473,5.768c0.981,1.443,2.505,2.164,4.57,2.164c1.289,0,2.373-0.293,3.252-0.879
				s1.597-1.406,2.153-2.461v-11.096c-0.557-0.981-1.278-1.762-2.164-2.34c-0.887-0.579-1.952-0.868-3.197-0.868
				c-2.08,0-3.614,0.856-4.604,2.57c-0.988,1.714-1.483,3.94-1.483,6.68V633.639z"/>
			<path d="M294.458,644.625c-0.146-0.718-0.261-1.352-0.341-1.9c-0.08-0.55-0.128-1.103-0.143-1.659
				c-0.806,1.143-1.856,2.099-3.153,2.867c-1.296,0.769-2.691,1.153-4.186,1.153c-2.476,0-4.361-0.633-5.658-1.9
				c-1.296-1.267-1.944-3.014-1.944-5.24c0-2.271,0.919-4.047,2.758-5.328c1.838-1.282,4.332-1.923,7.481-1.923h4.702v-2.352
				c0-1.392-0.425-2.493-1.274-3.307s-2.051-1.22-3.604-1.22c-1.392,0-2.523,0.355-3.395,1.066c-0.872,0.71-1.308,1.563-1.308,2.56
				h-4.131l-0.044-0.132c-0.088-1.729,0.729-3.311,2.45-4.746c1.721-1.436,3.943-2.153,6.668-2.153c2.695,0,4.863,0.685,6.504,2.054
				c1.641,1.37,2.461,3.344,2.461,5.922v11.448c0,0.85,0.045,1.67,0.133,2.461s0.248,1.567,0.482,2.329H294.458z M287.273,641.438
				c1.566,0,2.98-0.401,4.24-1.205s2.08-1.724,2.461-2.761v-3.856h-4.855c-1.744,0-3.139,0.438-4.187,1.315
				c-1.048,0.876-1.571,1.906-1.571,3.089c0,1.052,0.33,1.885,0.989,2.498S285.984,641.438,287.273,641.438z"/>
			<path d="M308.455,620.851l0.307,3.537c0.791-1.26,1.783-2.237,2.978-2.933c1.194-0.696,2.553-1.044,4.076-1.044
				c2.563,0,4.548,0.751,5.954,2.252c1.406,1.502,2.109,3.819,2.109,6.954v15.008h-4.328v-14.92c0-2.095-0.414-3.581-1.241-4.46
				c-0.828-0.879-2.091-1.318-3.79-1.318c-1.246,0-2.348,0.3-3.308,0.9s-1.725,1.421-2.296,2.461v17.337h-4.328v-23.774H308.455z"/>
			<path d="M349.279,637.615l0.374,1.67h0.132l0.418-1.67l5.471-16.765h4.416l-8.744,23.774h-3.274l-8.854-23.774h4.438
				L349.279,637.615z"/>
			<path d="M380.877,615.115v5.735h4.504v3.208h-4.504v14.436c0,1.113,0.23,1.897,0.691,2.352c0.462,0.454,1.073,0.681,1.835,0.681
				c0.249,0,0.523-0.029,0.824-0.088c0.3-0.058,0.567-0.132,0.802-0.22l0.571,2.967c-0.322,0.264-0.795,0.479-1.417,0.648
				c-0.623,0.168-1.249,0.252-1.879,0.252c-1.758,0-3.156-0.53-4.197-1.593c-1.039-1.062-1.56-2.728-1.56-4.999v-14.436h-3.779
				v-3.208h3.779v-5.735H380.877z"/>
			<path d="M400.586,645.086c-3.311,0-5.943-1.102-7.899-3.307c-1.955-2.205-2.933-5.064-2.933-8.58v-0.967
				c0-3.384,1.006-6.2,3.021-8.449c2.015-2.248,4.398-3.372,7.152-3.372c3.208,0,5.632,0.967,7.272,2.9s2.461,4.512,2.461,7.734
				v2.702h-15.424l-0.066,0.109c0.044,2.279,0.623,4.152,1.736,5.621c1.113,1.468,2.673,2.202,4.68,2.202
				c1.465,0,2.75-0.209,3.856-0.626c1.105-0.418,2.062-0.992,2.867-1.726l1.692,2.815c-0.85,0.841-1.971,1.541-3.362,2.102
				C404.248,644.806,402.563,645.086,400.586,645.086z M399.927,623.816c-1.45,0-2.688,0.61-3.714,1.829s-1.654,2.748-1.889,4.587
				l0.043,0.11h10.965v-0.569c0-1.693-0.454-3.109-1.362-4.249C403.062,624.387,401.714,623.816,399.927,623.816z"/>
			<path d="M413.527,633.177c0-3.823,0.816-6.906,2.451-9.25c1.633-2.344,3.922-3.516,6.865-3.516c1.393,0,2.627,0.256,3.703,0.769
				c1.076,0.514,1.996,1.26,2.758,2.241v-13.073h4.328v34.277h-3.537l-0.506-2.923c-0.777,1.113-1.729,1.956-2.855,2.527
				c-1.129,0.571-2.439,0.856-3.934,0.856c-2.9,0-5.172-1.051-6.813-3.152c-1.641-2.103-2.461-4.867-2.461-8.295V633.177z
				 M417.857,633.639c0,2.402,0.49,4.325,1.471,5.768c0.982,1.443,2.506,2.164,4.57,2.164c1.289,0,2.373-0.293,3.252-0.879
				s1.598-1.406,2.154-2.461v-11.096c-0.557-0.981-1.279-1.762-2.164-2.34c-0.887-0.579-1.953-0.868-3.197-0.868
				c-2.08,0-3.615,0.856-4.604,2.57s-1.482,3.94-1.482,6.68V633.639z"/>
			<path d="M443.961,620.851l0.307,3.537c0.791-1.26,1.784-2.237,2.978-2.933c1.194-0.696,2.553-1.044,4.076-1.044
				c2.563,0,4.548,0.751,5.954,2.252c1.406,1.502,2.109,3.819,2.109,6.954v15.008h-4.328v-14.92c0-2.095-0.414-3.581-1.241-4.46
				c-0.828-0.879-2.092-1.318-3.79-1.318c-1.246,0-2.348,0.3-3.308,0.9c-0.959,0.601-1.725,1.421-2.296,2.461v17.337h-4.328v-23.774
				H443.961z"/>
			<path d="M480.765,641.109c-0.747,1.274-1.707,2.256-2.878,2.944c-1.173,0.688-2.527,1.032-4.065,1.032
				c-2.593,0-4.614-0.827-6.064-2.482s-2.175-4.233-2.175-7.734v-14.019h4.328v14.063c0,2.534,0.373,4.277,1.121,5.229
				c0.746,0.952,1.911,1.428,3.493,1.428c1.538,0,2.809-0.311,3.813-0.934c1.003-0.623,1.761-1.505,2.274-2.647v-17.139h4.328
				v23.774h-3.889L480.765,641.109z"/>
			<path d="M517.524,641.109c-0.747,1.274-1.707,2.256-2.878,2.944c-1.173,0.688-2.527,1.032-4.065,1.032
				c-2.593,0-4.614-0.827-6.064-2.482s-2.175-4.233-2.175-7.734v-14.019h4.328v14.063c0,2.534,0.373,4.277,1.121,5.229
				c0.746,0.952,1.911,1.428,3.493,1.428c1.538,0,2.809-0.311,3.813-0.934c1.003-0.623,1.761-1.505,2.274-2.647v-17.139h4.328
				v23.774h-3.889L517.524,641.109z"/>
			<path d="M539.256,624.674l-2.22-0.132c-1.143,0-2.105,0.271-2.89,0.813c-0.783,0.542-1.388,1.304-1.813,2.285v16.985h-4.328
				v-23.774h3.867l0.417,3.472c0.674-1.23,1.505-2.189,2.494-2.879c0.988-0.688,2.127-1.032,3.417-1.032
				c0.321,0,0.629,0.025,0.922,0.077c0.293,0.051,0.535,0.105,0.726,0.164L539.256,624.674z"/>
			<path d="M541.979,632.518c0-3.516,0.952-6.412,2.857-8.689c1.903-2.278,4.489-3.417,7.756-3.417c3.296,0,5.899,1.135,7.812,3.405
				c1.911,2.271,2.867,5.172,2.867,8.701v0.483c0,3.546-0.952,6.446-2.856,8.701c-1.904,2.256-4.497,3.384-7.778,3.384
				s-5.878-1.131-7.789-3.395c-1.912-2.264-2.868-5.16-2.868-8.69V632.518z M546.309,632.99c0,2.516,0.531,4.594,1.593,6.232
				c1.063,1.639,2.641,2.458,4.735,2.458c2.065,0,3.633-0.819,4.702-2.458s1.604-3.717,1.604-6.232v-0.483
				c0-2.486-0.538-4.557-1.614-6.21c-1.077-1.653-2.655-2.48-4.735-2.48c-2.065,0-3.629,0.827-4.691,2.48
				c-1.062,1.653-1.593,3.724-1.593,6.21V632.99z"/>
			<path d="M584.432,614.764h-4.328v-4.416h4.328V614.764z M584.432,644.625h-4.328v-23.774h4.328V644.625z"/>
			<path d="M594.957,620.851l0.307,3.537c0.791-1.26,1.784-2.237,2.978-2.933c1.194-0.696,2.553-1.044,4.076-1.044
				c2.563,0,4.548,0.751,5.954,2.252c1.406,1.502,2.109,3.819,2.109,6.954v15.008h-4.328v-14.92c0-2.095-0.414-3.581-1.241-4.46
				c-0.828-0.879-2.092-1.318-3.79-1.318c-1.246,0-2.348,0.3-3.308,0.9c-0.959,0.601-1.725,1.421-2.296,2.461v17.337h-4.328v-23.774
				H594.957z"/>
			<path d="M648.107,633.639c0,3.428-0.82,6.192-2.461,8.295c-1.641,2.102-3.903,3.152-6.789,3.152c-1.465,0-2.75-0.245-3.856-0.736
				c-1.105-0.49-2.047-1.227-2.823-2.208v11.624h-4.328v-32.915h3.317l0.681,3.076c0.776-1.143,1.743-2.015,2.9-2.615
				s2.506-0.9,4.043-0.9c2.945,0,5.233,1.168,6.867,3.505c1.633,2.336,2.449,5.424,2.449,9.261V633.639z M643.779,633.166
				c0-2.692-0.531-4.905-1.593-6.639c-1.063-1.734-2.626-2.601-4.691-2.601c-1.245,0-2.308,0.282-3.187,0.845
				c-0.879,0.563-1.589,1.335-2.131,2.315v11.478c0.542,0.98,1.252,1.744,2.131,2.293s1.956,0.823,3.23,0.823
				c2.051,0,3.604-0.75,4.658-2.25c1.055-1.499,1.582-3.434,1.582-5.804V633.166z"/>
			<path d="M652.414,632.518c0-3.516,0.952-6.412,2.857-8.689c1.903-2.278,4.489-3.417,7.756-3.417c3.296,0,5.899,1.135,7.812,3.405
				c1.911,2.271,2.867,5.172,2.867,8.701v0.483c0,3.546-0.952,6.446-2.856,8.701c-1.904,2.256-4.497,3.384-7.778,3.384
				s-5.878-1.131-7.789-3.395c-1.912-2.264-2.868-5.16-2.868-8.69V632.518z M656.743,632.99c0,2.516,0.531,4.594,1.593,6.232
				c1.063,1.639,2.641,2.458,4.735,2.458c2.065,0,3.633-0.819,4.702-2.458s1.604-3.717,1.604-6.232v-0.483
				c0-2.486-0.538-4.557-1.614-6.21c-1.077-1.653-2.655-2.48-4.735-2.48c-2.065,0-3.629,0.827-4.691,2.48
				c-1.062,1.653-1.593,3.724-1.593,6.21V632.99z"/>
			<path d="M683.682,644.625h-4.328v-34.277h4.328V644.625z"/>
			<path d="M695.063,644.625h-4.329v-4.482h4.329V644.625z"/>
		</g>
	</g>
	<g>
		<g>
			<path fill="#32BCAD" d="M184.25,113.578h-5.041v16.619h-7.919V88.738h12.359c10.86,0,16.439,3.961,16.439,12.18
				c0,5.7-2.76,9-8.399,11.22l10.859,18.06h-9.119L184.25,113.578z M179.209,107.878h4.92c4.92,0,7.68-1.979,7.68-6.96
				c0-4.5-2.58-6.42-8.34-6.42h-4.26V107.878z"/>
			<path fill="#32BCAD" d="M232.969,116.697H213.05c0.601,6.48,3.601,8.58,7.8,8.58c2.82,0,5.16-0.9,7.92-2.82l3.18,4.38
				c-3.12,2.521-6.96,4.261-11.76,4.261c-9.84,0-15.119-6.54-15.119-16.56c0-9.66,5.1-16.979,14.1-16.979
				c8.879,0,13.979,6,13.979,16.02C233.148,114.598,233.029,115.857,232.969,116.697z M225.529,111.357
				c0-5.219-1.859-8.339-6.18-8.339c-3.6,0-5.88,2.399-6.3,8.699h12.479V111.357z"/>
			<path fill="#32BCAD" d="M266.928,85.739v44.458h-6.779l-0.54-4.02c-1.92,2.879-4.92,4.92-9.06,4.92
				c-7.92,0-12.06-6.66-12.06-16.74c0-9.779,4.86-16.799,12.899-16.799c3.24,0,5.88,1.38,7.859,3.42v-16.08L266.928,85.739z
				 M259.248,121.197v-14.52c-1.68-2.1-3.479-3.359-6-3.359c-4.02,0-6.659,3.359-6.659,10.979c0,8.159,2.34,10.979,6.12,10.979
				C255.529,125.277,257.449,123.897,259.248,121.197z"/>
			<path fill="#32BCAD" d="M302.088,107.218v22.979h-7.68v-21.779c0-3.96-1.5-5.1-3.9-5.1c-2.76,0-4.799,1.859-6.659,4.8v22.079
				h-7.68V98.459h6.659l0.601,4.199c2.46-3.18,5.64-5.1,9.659-5.1C298.788,97.559,302.088,101.158,302.088,107.218z"/>
			<path fill="#32BCAD" d="M336.887,125.877l-1.619,5.1c-3.48-0.3-5.76-1.499-7.02-4.619c-2.221,3.359-5.7,4.74-9.48,4.74
				c-6.359,0-10.259-4.021-10.259-9.78c0-6.899,5.22-10.619,14.46-10.619h3.959v-1.8c0-4.141-1.859-5.521-5.939-5.521
				c-2.16,0-5.221,0.601-8.4,1.681l-1.799-5.221c3.899-1.5,7.919-2.279,11.52-2.279c8.459,0,12.18,3.899,12.18,10.92v13.319
				C334.488,124.377,335.328,125.277,336.887,125.877z M326.928,121.617v-6.42h-3.18c-4.98,0-7.439,1.801-7.439,5.521
				c0,3.06,1.56,4.8,4.5,4.8C323.508,125.518,325.488,124.138,326.928,121.617z"/>
			<path fill="#32BCAD" d="M373.968,130.197h-9.18l-10.499-31.738h8.339l6.78,25.559l6.959-25.559h7.92L373.968,130.197z"/>
			<path fill="#32BCAD" d="M414.887,125.877l-1.619,5.1c-3.48-0.3-5.76-1.499-7.02-4.619c-2.221,3.359-5.701,4.74-9.48,4.74
				c-6.359,0-10.26-4.021-10.26-9.78c0-6.899,5.221-10.619,14.459-10.619h3.961v-1.8c0-4.141-1.86-5.521-5.939-5.521
				c-2.16,0-5.221,0.601-8.4,1.681l-1.8-5.221c3.899-1.5,7.919-2.279,11.52-2.279c8.46,0,12.179,3.899,12.179,10.92v13.319
				C412.486,124.377,413.327,125.277,414.887,125.877z M404.928,121.617v-6.42h-3.18c-4.98,0-7.44,1.801-7.44,5.521
				c0,3.06,1.56,4.8,4.5,4.8C401.508,125.518,403.487,124.138,404.928,121.617z"/>
			<path fill="#32BCAD" d="M429.406,127.377c0,9.72-4.439,12.96-11.578,15.84l-2.461-5.58c4.141-1.92,6.359-3.54,6.359-9.779V98.459
				h7.68V127.377z M430.367,87.059c0,2.58-1.92,4.62-4.801,4.62c-2.819,0-4.799-2.04-4.799-4.62c0-2.64,1.979-4.68,4.799-4.68
				C428.447,82.379,430.367,84.419,430.367,87.059z"/>
			<path fill="#32BCAD" d="M464.506,125.877l-1.62,5.1c-3.479-0.3-5.76-1.499-7.021-4.619c-2.219,3.359-5.699,4.74-9.479,4.74
				c-6.359,0-10.26-4.021-10.26-9.78c0-6.899,5.22-10.619,14.459-10.619h3.96v-1.8c0-4.141-1.86-5.521-5.939-5.521
				c-2.16,0-5.22,0.601-8.399,1.681l-1.801-5.221c3.9-1.5,7.92-2.279,11.52-2.279c8.46,0,12.18,3.899,12.18,10.92v13.319
				C462.105,124.377,462.945,125.277,464.506,125.877z M454.546,121.617v-6.42h-3.18c-4.979,0-7.44,1.801-7.44,5.521
				c0,3.06,1.561,4.8,4.5,4.8C451.126,125.518,453.105,124.138,454.546,121.617z"/>
		</g>
	</g>
	
		<use xlink:href="#naprej"  width="21.572" height="21.572" id="XMLID_8_" x="-4.422" y="-10.786" transform="matrix(2.8293 0 0 -2.8293 1838.334 1014.4463)" overflow="visible"/>
	
		<use xlink:href="#naprej"  width="21.572" height="21.572" id="XMLID_7_" x="-4.422" y="-10.786" transform="matrix(-2.8293 0 0 2.8293 81.666 1014.4463)" overflow="visible"/>
	<g>
		
			<line fill="none" stroke="#000000" stroke-width="2" stroke-miterlimit="10" x1="1840.299" y1="66.923" x2="1872.184" y2="35.038"/>
		
			<line fill="none" stroke="#000000" stroke-width="2" stroke-miterlimit="10" x1="1840.299" y1="35.037" x2="1872.184" y2="66.923"/>
	</g>
	<g>
		<g>
			<path fill="#FFFFFF" d="M1417.679,455.617h-4.848v-19.889h-4.914v-3.42l9.762-0.863V455.617z"/>
			<path fill="#FFFFFF" d="M1442.73,455.617h-16.502v-3.171l7.819-8.384c1.129-1.295,1.932-2.388,2.407-3.279
				c0.476-0.891,0.714-1.718,0.714-2.481c0-1.019-0.273-1.851-0.822-2.499c-0.547-0.646-1.325-0.971-2.332-0.971
				c-1.118,0-1.967,0.379-2.549,1.137c-0.58,0.759-0.871,1.769-0.871,3.03h-4.715l-0.033-0.1c-0.056-2.181,0.661-4.026,2.15-5.536
				c1.488-1.512,3.494-2.267,6.018-2.267c2.49,0,4.446,0.647,5.869,1.942c1.422,1.295,2.133,3.021,2.133,5.18
				c0,1.461-0.401,2.809-1.203,4.043c-0.803,1.233-2.128,2.853-3.977,4.855l-4.3,4.682l0.033,0.083h10.16V455.617z"/>
		</g>
		<g>
			<path fill="#FFFFFF" d="M1425.434,772.887c0.907,0,1.746,0.086,2.516,0.257c0.769,0.172,1.541,0.424,2.315,0.756l-0.863,3.553
				c-0.73-0.255-1.381-0.445-1.95-0.572c-0.57-0.128-1.231-0.191-1.984-0.191c-1.472,0-2.653,0.551-3.545,1.652
				c-0.891,1.101-1.303,2.625-1.236,4.573l0.05,0.083c0.542-0.564,1.229-1.007,2.059-1.328s1.766-0.481,2.806-0.481
				c2.158,0,3.849,0.767,5.072,2.3c1.223,1.532,1.834,3.488,1.834,5.868c0,2.435-0.756,4.443-2.266,6.026
				c-1.512,1.583-3.468,2.374-5.869,2.374c-2.557,0-4.638-0.866-6.242-2.599c-1.604-1.731-2.407-4.131-2.407-7.196v-4.715
				c0-3.165,0.913-5.684,2.739-7.554S1422.611,772.887,1425.434,772.887z M1424.321,784.856c-0.896,0-1.66,0.144-2.291,0.431
				c-0.631,0.288-1.118,0.68-1.461,1.177v1.607c0,1.911,0.346,3.381,1.038,4.408c0.691,1.027,1.612,1.541,2.764,1.541
				c0.996,0,1.796-0.455,2.398-1.367c0.604-0.911,0.905-2.014,0.905-3.306c0-1.337-0.305-2.42-0.913-3.248
				C1426.153,785.271,1425.34,784.856,1424.321,784.856z"/>
		</g>
		<g>
			<path fill="#FFFFFF" d="M1247.255,625.754c1.272,0,2.311-0.472,3.113-1.414c0.802-0.942,1.203-2.292,1.203-4.048v-1.195
				c-0.542,0.687-1.188,1.206-1.934,1.561c-0.748,0.354-1.553,0.531-2.416,0.531c-2.247,0-4.015-0.733-5.305-2.2
				c-1.289-1.466-1.934-3.45-1.934-5.951c0-2.413,0.764-4.419,2.291-6.018c1.527-1.6,3.47-2.399,5.827-2.399
				c2.468,0,4.472,0.85,6.01,2.548c1.538,1.699,2.308,4.087,2.308,7.164v5.711c0,2.933-0.86,5.24-2.582,6.923
				c-1.721,1.683-3.915,2.523-6.582,2.523c-0.841,0-1.707-0.086-2.598-0.259c-0.892-0.172-1.719-0.425-2.482-0.759l0.564-3.515
				c0.72,0.276,1.431,0.479,2.133,0.605C1245.575,625.69,1246.369,625.754,1247.255,625.754z M1248.035,617.636
				c0.797,0,1.494-0.149,2.092-0.448s1.079-0.697,1.444-1.195v-2.225c0-1.771-0.31-3.115-0.93-4.034s-1.461-1.378-2.523-1.378
				c-0.974,0-1.768,0.454-2.383,1.361c-0.613,0.907-0.921,2.015-0.921,3.32c0,1.372,0.279,2.482,0.839,3.328
				C1246.212,617.213,1247.006,617.636,1248.035,617.636z"/>
		</g>
		<g>
			<path fill="#FFFFFF" d="M1600.323,614.996h2.723c1.151,0,2.003-0.302,2.557-0.904c0.554-0.604,0.83-1.442,0.83-2.516
				c0-0.974-0.276-1.754-0.83-2.341s-1.355-0.88-2.407-0.88c-0.907,0-1.671,0.266-2.291,0.797s-0.93,1.229-0.93,2.092h-4.698
				l-0.033-0.1c-0.066-1.893,0.658-3.453,2.175-4.682s3.397-1.843,5.645-1.843c2.501,0,4.496,0.598,5.985,1.793
				c1.488,1.195,2.232,2.899,2.232,5.113c0,1.052-0.332,2.05-0.996,2.997c-0.664,0.945-1.577,1.685-2.739,2.216
				c1.339,0.476,2.36,1.206,3.063,2.191c0.702,0.985,1.054,2.131,1.054,3.437c0,2.214-0.806,3.954-2.415,5.221
				c-1.611,1.268-3.672,1.901-6.185,1.901c-2.247,0-4.175-0.595-5.786-1.784c-1.609-1.19-2.388-2.87-2.332-5.039l0.033-0.1h4.698
				c0,0.925,0.332,1.688,0.996,2.287c0.664,0.601,1.505,0.9,2.523,0.9c1.118,0,2.001-0.309,2.647-0.928
				c0.648-0.618,0.972-1.457,0.972-2.518c0-1.27-0.318-2.2-0.954-2.791c-0.637-0.59-1.575-0.886-2.814-0.886h-2.723V614.996z"/>
		</g>
		<g>
			<path fill="#FFFFFF" d="M1582.729,542.136h-16.502v-3.171l7.819-8.384c1.129-1.295,1.932-2.388,2.407-3.279
				c0.476-0.891,0.714-1.718,0.714-2.481c0-1.019-0.273-1.851-0.822-2.499c-0.547-0.646-1.325-0.971-2.332-0.971
				c-1.118,0-1.967,0.379-2.549,1.137c-0.58,0.759-0.871,1.769-0.871,3.03h-4.715l-0.033-0.1c-0.056-2.181,0.661-4.026,2.15-5.536
				c1.488-1.512,3.494-2.267,6.018-2.267c2.49,0,4.446,0.647,5.869,1.942c1.422,1.295,2.133,3.021,2.133,5.18
				c0,1.461-0.401,2.809-1.203,4.043c-0.803,1.233-2.128,2.853-3.977,4.855l-4.3,4.682l0.033,0.083h10.16V542.136z"/>
		</g>
		<g>
			<path fill="#FFFFFF" d="M1579.438,711.16h2.739v3.735h-2.739v5.246h-4.831v-5.246h-9.861l-0.216-2.905l10.027-16.021h4.881
				V711.16z M1569.046,711.16h5.562v-8.716l-0.1-0.033l-0.382,0.682L1569.046,711.16z"/>
		</g>
		<g>
			<path fill="#FFFFFF" d="M1519.908,475.913h-4.848v-19.889h-4.914v-3.42l9.762-0.863V475.913z"/>
		</g>
		<g>
			<path fill="#FFFFFF" d="M1274.401,542.136h-4.848v-19.889h-4.914v-3.42l9.762-0.863V542.136z"/>
			<path fill="#FFFFFF" d="M1299.237,532.723c0,3.198-0.733,5.625-2.199,7.28c-1.467,1.654-3.451,2.481-5.952,2.481
				c-2.523,0-4.521-0.827-5.993-2.481c-1.472-1.655-2.208-4.082-2.208-7.28v-5.329c0-3.188,0.733-5.614,2.2-7.279
				c1.466-1.666,3.455-2.499,5.968-2.499c2.501,0,4.491,0.833,5.968,2.499c1.479,1.665,2.217,4.092,2.217,7.279V532.723z
				 M1294.406,526.891c0-1.913-0.288-3.314-0.863-4.205c-0.575-0.89-1.405-1.335-2.49-1.335c-1.096,0-1.926,0.442-2.49,1.327
				c-0.564,0.884-0.847,2.289-0.847,4.213v6.285c0,1.946,0.285,3.362,0.855,4.246c0.569,0.885,1.408,1.327,2.515,1.327
				c1.085,0,1.909-0.442,2.474-1.327c0.564-0.884,0.847-2.3,0.847-4.246V526.891z"/>
		</g>
		<g>
			<path fill="#FFFFFF" d="M1285.232,702.378c0,1.206-0.318,2.274-0.955,3.204c-0.636,0.93-1.513,1.654-2.631,2.175
				c1.284,0.542,2.297,1.317,3.038,2.324s1.112,2.158,1.112,3.453c0,2.235-0.758,3.954-2.274,5.154
				c-1.517,1.201-3.497,1.802-5.943,1.802c-2.468,0-4.463-0.601-5.985-1.802c-1.521-1.2-2.282-2.919-2.282-5.154
				c0-1.306,0.368-2.46,1.104-3.461c0.735-1.002,1.751-1.779,3.046-2.333c-1.129-0.521-2.009-1.242-2.64-2.167
				c-0.631-0.924-0.946-1.989-0.946-3.195c0-2.147,0.703-3.811,2.108-4.988c1.405-1.18,3.26-1.769,5.562-1.769
				c2.291,0,4.145,0.589,5.562,1.769C1284.524,698.567,1285.232,700.23,1285.232,702.378z M1280.949,713.194
				c0-1.083-0.315-1.949-0.946-2.601s-1.45-0.978-2.457-0.978c-1.019,0-1.835,0.326-2.448,0.978
				c-0.615,0.651-0.922,1.518-0.922,2.601c0,1.104,0.31,1.974,0.93,2.608s1.444,0.952,2.474,0.952c1.007,0,1.82-0.32,2.44-0.961
				C1280.64,715.154,1280.949,714.287,1280.949,713.194z M1280.401,702.594c0-0.974-0.257-1.757-0.772-2.349
				c-0.514-0.593-1.209-0.889-2.083-0.889c-0.886,0-1.577,0.291-2.075,0.871c-0.498,0.582-0.747,1.37-0.747,2.366
				c0,1.007,0.252,1.807,0.755,2.399c0.504,0.592,1.204,0.888,2.101,0.888c0.874,0,1.563-0.296,2.067-0.888
				C1280.149,704.4,1280.401,703.601,1280.401,702.594z"/>
		</g>
		<g>
			<path fill="#FFFFFF" d="M1333.993,475.913h-4.848v-19.889h-4.914v-3.42l9.762-0.863V475.913z"/>
			<path fill="#FFFFFF" d="M1353.5,475.913h-4.848v-19.889h-4.914v-3.42l9.762-0.863V475.913z"/>
		</g>
		<g>
			<path fill="#FFFFFF" d="M1343.472,751.365c-2.59,3.032-4.358,5.86-5.304,8.483c-0.947,2.623-1.625,5.788-2.034,9.496
				l-0.232,2.457h-4.848l0.232-2.457c0.376-3.553,1.185-6.814,2.424-9.787c1.239-2.971,2.938-5.702,5.097-8.192h-12.418v-3.735
				h17.083V751.365z"/>
		</g>
		<g>
			<g>
				<path fill="#FFFFFF" d="M1505.565,760.094l1.395-13.464h13.48v3.885h-9.513l-0.664,5.578c0.442-0.332,0.979-0.605,1.61-0.822
					c0.631-0.215,1.328-0.329,2.092-0.34c2.324-0.033,4.125,0.67,5.404,2.108c1.277,1.438,1.917,3.442,1.917,6.01
					c0,2.324-0.7,4.256-2.101,5.794c-1.399,1.538-3.417,2.308-6.051,2.308c-2.225,0-4.128-0.608-5.711-1.826
					c-1.583-1.217-2.347-2.889-2.291-5.014l0.033-0.083l4.665-0.232c0,1.073,0.305,1.912,0.913,2.516
					c0.608,0.603,1.405,0.904,2.391,0.904c1.129,0,1.962-0.4,2.498-1.201c0.537-0.801,0.806-1.848,0.806-3.141
					c0-1.392-0.288-2.508-0.863-3.347c-0.575-0.84-1.428-1.26-2.557-1.26c-0.93,0-1.641,0.172-2.134,0.515
					c-0.492,0.343-0.844,0.808-1.054,1.395L1505.565,760.094z"/>
			</g>
		</g>
	</g>
	
		<line fill="none" stroke="#000000" stroke-width="9" stroke-miterlimit="10" stroke-dasharray="8,4" x1="1533.713" y1="549.594" x2="1424.951" y2="612.387"/>
	
		<line fill="none" stroke="#000000" stroke-width="2.5208" stroke-miterlimit="10" x1="1424.95" y1="618.901" x2="1424.95" y2="737.029"/>
	
		<line fill="none" stroke="#000000" stroke-width="9" stroke-miterlimit="10" x1="1424.95" y1="483.912" x2="1424.95" y2="612.387"/>
	<circle cx="1424.95" cy="612.387" r="12.098"/>
	<g>
		<g>
			<rect x="161.574" y="197.229" fill="#35A8DF" width="6.237" height="6.236"/>
			<rect x="177.011" y="197.229" fill="#203341" width="6.237" height="6.236"/>
			<rect x="192.447" y="197.229" fill="#32BCAD" width="6.237" height="6.236"/>
			<rect x="207.884" y="197.229" fill="#FBD639" width="6.237" height="6.236"/>
			<rect x="223.32" y="197.229" fill="#35A8DF" width="6.237" height="6.236"/>
			<rect x="238.757" y="197.229" fill="#203341" width="6.237" height="6.236"/>
			<rect x="254.193" y="197.229" fill="#32BCAD" width="6.238" height="6.236"/>
			<rect x="269.629" y="197.229" fill="#FBD639" width="6.238" height="6.236"/>
			<rect x="285.065" y="197.229" fill="#35A8DF" width="6.237" height="6.236"/>
			<rect x="300.502" y="197.229" fill="#203341" width="6.238" height="6.236"/>
			<rect x="315.939" y="197.229" fill="#32BCAD" width="6.236" height="6.236"/>
			<rect x="331.375" y="197.229" fill="#FBD639" width="6.238" height="6.236"/>
			<rect x="344.988" y="197.229" fill="#35A8DF" width="6.238" height="6.236"/>
			<rect x="360.426" y="197.229" fill="#203341" width="6.238" height="6.236"/>
			<rect x="375.862" y="197.229" fill="#32BCAD" width="6.237" height="6.236"/>
			<rect x="391.299" y="197.229" fill="#FBD639" width="6.236" height="6.236"/>
			<rect x="406.734" y="197.229" fill="#35A8DF" width="6.238" height="6.236"/>
			<rect x="422.172" y="197.229" fill="#203341" width="6.237" height="6.236"/>
			<rect x="437.607" y="197.229" fill="#32BCAD" width="6.238" height="6.236"/>
			<rect x="453.045" y="197.229" fill="#FBD639" width="6.236" height="6.236"/>
			<rect x="468.48" y="197.229" fill="#35A8DF" width="6.238" height="6.236"/>
			<rect x="483.918" y="197.229" fill="#203341" width="6.236" height="6.236"/>
			<rect x="499.354" y="197.229" fill="#32BCAD" width="6.238" height="6.236"/>
			<rect x="514.79" y="197.229" fill="#FBD639" width="6.238" height="6.236"/>
			<rect x="530.227" y="197.229" fill="#35A8DF" width="6.238" height="6.236"/>
			<rect x="545.663" y="197.229" fill="#203341" width="6.237" height="6.236"/>
			<rect x="561.1" y="197.229" fill="#32BCAD" width="6.238" height="6.236"/>
			<rect x="576.537" y="197.229" fill="#FBD639" width="6.236" height="6.236"/>
			<rect x="591.973" y="197.229" fill="#35A8DF" width="6.238" height="6.236"/>
			<rect x="607.409" y="197.229" fill="#203341" width="6.237" height="6.236"/>
			<rect x="622.846" y="197.229" fill="#32BCAD" width="6.238" height="6.236"/>
			<rect x="638.282" y="197.229" fill="#FBD639" width="6.237" height="6.236"/>
			<rect x="651.896" y="197.229" fill="#35A8DF" width="6.237" height="6.236"/>
			<rect x="667.332" y="197.229" fill="#203341" width="6.238" height="6.236"/>
			<rect x="682.77" y="197.229" fill="#32BCAD" width="6.237" height="6.236"/>
			<rect x="698.205" y="197.229" fill="#FBD639" width="6.237" height="6.236"/>
			<rect x="713.643" y="197.229" fill="#35A8DF" width="6.236" height="6.236"/>
			<rect x="729.078" y="197.229" fill="#203341" width="6.237" height="6.236"/>
			<rect x="744.516" y="197.229" fill="#32BCAD" width="6.236" height="6.236"/>
			<rect x="759.951" y="197.229" fill="#FBD639" width="6.238" height="6.236"/>
			<rect x="775.387" y="197.229" fill="#35A8DF" width="6.238" height="6.236"/>
			<rect x="790.824" y="197.229" fill="#203341" width="6.238" height="6.236"/>
			<rect x="806.26" y="197.229" fill="#32BCAD" width="6.238" height="6.236"/>
			<rect x="821.697" y="197.229" fill="#FBD639" width="6.238" height="6.236"/>
			<rect x="837.133" y="197.229" fill="#35A8DF" width="6.238" height="6.236"/>
			<rect x="852.57" y="197.229" fill="#203341" width="6.236" height="6.236"/>
			<rect x="868.006" y="197.229" fill="#32BCAD" width="6.238" height="6.236"/>
			<rect x="883.442" y="197.229" fill="#FBD639" width="6.237" height="6.236"/>
			<rect x="898.879" y="197.229" fill="#35A8DF" width="6.238" height="6.236"/>
			<rect x="914.315" y="197.229" fill="#203341" width="6.237" height="6.236"/>
			<rect x="929.752" y="197.229" fill="#32BCAD" width="6.238" height="6.236"/>
			<rect x="945.189" y="197.229" fill="#FBD639" width="6.236" height="6.236"/>
		</g>
		<g>
			<rect x="961.434" y="197.229" fill="#35A8DF" width="6.238" height="6.236"/>
			<rect x="976.871" y="197.229" fill="#203341" width="6.236" height="6.236"/>
			<rect x="992.307" y="197.229" fill="#32BCAD" width="6.238" height="6.236"/>
			<rect x="1007.743" y="197.229" fill="#FBD639" width="6.237" height="6.236"/>
			<rect x="1023.18" y="197.229" fill="#35A8DF" width="6.238" height="6.236"/>
			<rect x="1038.616" y="197.229" fill="#203341" width="6.237" height="6.236"/>
			<rect x="1054.053" y="197.229" fill="#32BCAD" width="6.238" height="6.236"/>
			<rect x="1069.488" y="197.229" fill="#FBD639" width="6.238" height="6.236"/>
			<rect x="1084.926" y="197.229" fill="#35A8DF" width="6.237" height="6.236"/>
			<rect x="1100.362" y="197.229" fill="#203341" width="6.237" height="6.236"/>
			<rect x="1115.799" y="197.229" fill="#32BCAD" width="6.236" height="6.236"/>
			<rect x="1131.234" y="197.229" fill="#FBD639" width="6.238" height="6.236"/>
			<rect x="1146.672" y="197.229" fill="#35A8DF" width="6.237" height="6.236"/>
			<rect x="1162.107" y="197.229" fill="#203341" width="6.238" height="6.236"/>
			<rect x="1177.545" y="197.229" fill="#32BCAD" width="6.237" height="6.236"/>
			<rect x="1192.98" y="197.229" fill="#FBD639" width="6.238" height="6.236"/>
			<rect x="1208.418" y="197.229" fill="#35A8DF" width="6.236" height="6.236"/>
			<rect x="1223.854" y="197.229" fill="#203341" width="6.238" height="6.236"/>
			<rect x="1239.289" y="197.229" fill="#32BCAD" width="6.238" height="6.236"/>
			<rect x="1254.727" y="197.229" fill="#FBD639" width="6.238" height="6.236"/>
			<rect x="1268.341" y="197.229" fill="#35A8DF" width="6.237" height="6.236"/>
			<rect x="1283.777" y="197.229" fill="#203341" width="6.237" height="6.236"/>
			<rect x="1299.213" y="197.229" fill="#32BCAD" width="6.238" height="6.236"/>
			<rect x="1314.65" y="197.229" fill="#FBD639" width="6.237" height="6.236"/>
			<rect x="1330.086" y="197.229" fill="#35A8DF" width="6.238" height="6.236"/>
			<rect x="1345.523" y="197.229" fill="#203341" width="6.237" height="6.236"/>
			<rect x="1360.959" y="197.229" fill="#32BCAD" width="6.238" height="6.236"/>
			<rect x="1376.396" y="197.229" fill="#FBD639" width="6.236" height="6.236"/>
			<rect x="1391.832" y="197.229" fill="#35A8DF" width="6.238" height="6.236"/>
			<rect x="1407.27" y="197.229" fill="#203341" width="6.236" height="6.236"/>
			<rect x="1422.705" y="197.229" fill="#32BCAD" width="6.238" height="6.236"/>
			<rect x="1438.141" y="197.229" fill="#FBD639" width="6.238" height="6.236"/>
			<rect x="1453.578" y="197.229" fill="#35A8DF" width="6.238" height="6.236"/>
			<rect x="1469.014" y="197.229" fill="#203341" width="6.238" height="6.236"/>
			<rect x="1484.451" y="197.229" fill="#32BCAD" width="6.238" height="6.236"/>
			<rect x="1499.889" y="197.229" fill="#FBD639" width="6.236" height="6.236"/>
			<rect x="1515.324" y="197.229" fill="#35A8DF" width="6.238" height="6.236"/>
			<rect x="1530.76" y="197.229" fill="#203341" width="6.238" height="6.236"/>
			<rect x="1546.197" y="197.229" fill="#32BCAD" width="6.238" height="6.236"/>
			<rect x="1561.633" y="197.229" fill="#FBD639" width="6.238" height="6.236"/>
			<rect x="1575.247" y="197.229" fill="#35A8DF" width="6.237" height="6.236"/>
			<rect x="1590.684" y="197.229" fill="#203341" width="6.238" height="6.236"/>
			<rect x="1606.119" y="197.229" fill="#32BCAD" width="6.238" height="6.236"/>
			<rect x="1621.557" y="197.229" fill="#FBD639" width="6.237" height="6.236"/>
			<rect x="1636.993" y="197.229" fill="#35A8DF" width="6.237" height="6.236"/>
			<rect x="1652.43" y="197.229" fill="#203341" width="6.237" height="6.236"/>
			<rect x="1667.866" y="197.229" fill="#32BCAD" width="6.237" height="6.236"/>
			<rect x="1683.303" y="197.229" fill="#FBD639" width="6.236" height="6.236"/>
			<rect x="1698.738" y="197.229" fill="#35A8DF" width="6.238" height="6.236"/>
			<rect x="1714.176" y="197.229" fill="#203341" width="6.237" height="6.236"/>
			<rect x="1729.611" y="197.229" fill="#32BCAD" width="6.238" height="6.236"/>
			<rect x="1745.049" y="197.229" fill="#FBD639" width="6.237" height="6.236"/>
		</g>
	</g>
</g>
<g id="mreza">
</g>
<g id="Layer_1">
</g>
<g id="glava">
</g>
<g id="UITELJ">
</g>
<g id="crta_x5F_maska">
</g>
</svg>
