<?xml version="1.0" encoding="utf-8"?>
<!-- Generator: Adobe Illustrator 16.0.0, SVG Export Plug-In . SVG Version: 6.00 Build 0)  -->
<!DOCTYPE svg PUBLIC "-//W3C//DTD SVG 1.1//EN" "http://www.w3.org/Graphics/SVG/1.1/DTD/svg11.dtd">
<svg version="1.1" xmlns="http://www.w3.org/2000/svg" xmlns:xlink="http://www.w3.org/1999/xlink" x="0px" y="0px"
	 width="405.688px" height="228.211px" viewBox="624 603 405.688 228.211" enable-background="new 624 603 405.688 228.211"
	 xml:space="preserve">
<g id="Layer_2">
	<rect x="624" y="603" fill="#34BCAD" width="405.688" height="228.211"/>
</g>
<g id="Layer_1">
	<g>
		<defs>
			<rect id="SVGID_1_" x="624" y="603" width="405.688" height="228.211"/>
		</defs>
		<clipPath id="SVGID_2_">
			<use xlink:href="#SVGID_1_"  overflow="visible"/>
		</clipPath>
		<g clip-path="url(#SVGID_2_)">
			
				<circle fill="#BC2026" stroke="#010101" stroke-width="4.5" stroke-linecap="round" stroke-linejoin="round" stroke-miterlimit="10" cx="962.929" cy="808.492" r="34.43"/>
			
				<circle fill="#BC2026" stroke="#010101" stroke-width="4.5" stroke-linecap="round" stroke-linejoin="round" stroke-miterlimit="10" cx="1051.429" cy="836.066" r="34.43"/>
			
				<path fill="#7E4F23" stroke="#010101" stroke-width="4.5" stroke-linecap="round" stroke-linejoin="round" stroke-miterlimit="10" d="
				M1050.041,818.095c-0.083-0.02-0.173-0.048-0.248-0.071c-2.017-0.629-3.229-2.718-2.725-4.806
				c0.713-2.937,1.297-5.877,1.761-8.819c0.437-2.717,0.76-5.431,1.001-8.146c2.718-30.797-6.354-61.164-15.511-82.94
				c-1.65-3.922-3.301-7.56-4.887-10.878c-6.163-12.901-11.332-20.868-11.482-21.096c-1.223-1.861-0.705-4.365,1.151-5.595
				c1.871-1.225,4.374-0.709,5.601,1.153c1.1,1.672,16.457,25.352,26.068,57.94c2.194,7.422,4.085,15.306,5.443,23.498
				c2.032,12.29,2.871,25.264,1.702,38.413c-0.231,2.667-0.553,5.349-0.97,8.023c-0.518,3.447-1.19,6.902-2.028,10.347
				C1054.392,817.286,1052.21,818.616,1050.041,818.095z"/>
			
				<path fill="#7E4F23" stroke="#010101" stroke-width="4.5" stroke-linecap="round" stroke-linejoin="round" stroke-miterlimit="10" d="
				M1034.32,713.313c-4.398,13.554-16.146,43.34-40.885,69.563c-1.829,1.947-3.734,3.872-5.711,5.768
				c-1.348,1.29-2.734,2.569-4.151,3.839c-1.099,0.979-2.579,1.248-3.893,0.839c-0.673-0.209-1.308-0.604-1.806-1.168
				c-1.492-1.662-1.342-4.215,0.322-5.699c1.262-1.13,2.504-2.273,3.712-3.434c1.99-1.899,3.899-3.835,5.728-5.79
				c9.287-9.897,16.676-20.396,22.476-30.261c4.566-7.764,8.144-15.135,10.893-21.504c5.392-12.53,7.557-21.193,7.605-21.394
				c0.151-0.621,0.442-1.178,0.823-1.637c0.952-1.143,2.502-1.717,4.05-1.346c2.134,0.49,3.503,2.705,2.98,4.873
				C1036.359,706.407,1035.699,709.061,1034.32,713.313z"/>
			
				<path fill="#3BA949" stroke="#010101" stroke-width="4.5" stroke-linecap="round" stroke-linejoin="round" stroke-miterlimit="10" d="
				M1037.122,700.619c-2.626,17.531-10.85,29.754-24.465,36.357c-18.809,9.124-42.939,5.667-53.756,3.382
				c11.049-21.343,23.564-35.516,37.238-42.147C1015.226,688.954,1031.424,697.036,1037.122,700.619z"/>
			
				<path fill="none" stroke="#010101" stroke-width="4.5" stroke-linecap="round" stroke-linejoin="round" stroke-miterlimit="10" d="
				M1055.188,858.736c0,0,17.83-1.413,16.359-21.101"/>
		</g>
		<g clip-path="url(#SVGID_2_)">
			
				<line fill="#E01E26" stroke="#010101" stroke-width="4.5" stroke-linecap="round" stroke-linejoin="round" stroke-miterlimit="10" x1="753.613" y1="709.394" x2="728.998" y2="768.006"/>
			
				<line fill="#E01E26" stroke="#010101" stroke-width="4.5" stroke-linecap="round" stroke-linejoin="round" stroke-miterlimit="10" x1="770.611" y1="751.008" x2="711.999" y2="726.394"/>
		</g>
		<g clip-path="url(#SVGID_2_)">
			
				<path fill="#5AB2E4" stroke="#010101" stroke-width="4.5" stroke-linecap="round" stroke-linejoin="round" stroke-miterlimit="10" d="
				M808.933,854.301c-9.768,2.55-17.035-2.387-19.95-13.55c-0.317-1.214,0.408-2.452,1.62-2.769
				c1.211-0.316,34.007,0.498,35.222,0.181c1.211-0.315,2.451,0.412,2.768,1.624C830.885,848.568,820.222,851.353,808.933,854.301z"
				/>
			
				<path fill="#5AB2E4" stroke="#010101" stroke-width="4.5" stroke-linecap="round" stroke-linejoin="round" stroke-miterlimit="10" d="
				M819.746,771.318c-4.779-4.357-16.562-1.282-28.926,1.947c-11.691,3.053-19.537,14.964-16.79,25.488c0,0,0,0,0.001,0.001
				c0.316,1.212,4.388-1.146,4.388-1.146v-0.001l46.514-12.146C824.933,785.462,820.641,772.135,819.746,771.318z"/>
			
				<path fill="#5AB2E4" stroke="#010101" stroke-width="4.5" stroke-linecap="round" stroke-linejoin="round" stroke-miterlimit="10" d="
				M869.101,796.225c-3.323-12.729-30.788-29.322-51.12-24.014c-28.361,7.406-51.042,34.345-59.576,44.482
				c-0.349,0.414-0.666,0.8-0.965,1.146c-3.295-1.752-9.229-4.607-12.283-5.258c-1.711-0.361-3.252-0.37-4.572-0.025
				c-3.565,0.931-4.773,4.164-4.103,6.732l6.879,26.347c0.671,2.568,3.306,4.797,6.871,3.866c1.32-0.345,2.661-1.105,3.976-2.26
				c2.363-2.067,6.176-7.523,8.183-10.656c8.004,2.447,42.214,11.813,73.362,3.68C858.997,834.194,872.425,808.953,869.101,796.225z
				"/>
			
				<path fill="none" stroke="#010101" stroke-width="4.5" stroke-linecap="round" stroke-linejoin="round" stroke-miterlimit="10" d="
				M830.49,785.358c0,0-12.195,25.232,10.318,39.514"/>
			<circle fill="#010101" cx="847.967" cy="797.241" r="4.508"/>
		</g>
		<g clip-path="url(#SVGID_2_)">
			
				<circle fill="#ED7E23" stroke="#010101" stroke-width="4.5" stroke-linecap="round" stroke-linejoin="round" stroke-miterlimit="10" cx="640.562" cy="792.732" r="49.891"/>
			
				<path fill="none" stroke="#010101" stroke-width="4.5" stroke-linecap="round" stroke-linejoin="round" stroke-miterlimit="10" d="
				M666.939,751.297c0,0-63.201,14.38-63.715,73.746"/>
			
				<line fill="none" stroke="#010101" stroke-width="4.5" stroke-linecap="round" stroke-linejoin="round" stroke-miterlimit="10" x1="603.377" y1="759.35" x2="676.846" y2="826.546"/>
			
				<path fill="none" stroke="#010101" stroke-width="4.5" stroke-linecap="round" stroke-linejoin="round" stroke-miterlimit="10" d="
				M591.605,788.17c0,0,38.461,6.51,48.323,53.377"/>
			
				<path fill="none" stroke="#010101" stroke-width="4.5" stroke-linecap="round" stroke-linejoin="round" stroke-miterlimit="10" d="
				M629.81,744.006c0,0,12.322,37.727,59.114,39.895"/>
		</g>
		<g clip-path="url(#SVGID_2_)">
			
				<polygon fill="none" stroke="#010101" stroke-width="4.5" stroke-linecap="round" stroke-linejoin="round" stroke-miterlimit="10" points="
				926.1,625.73 937.857,582.942 980.791,571.731 1011.968,603.308 1000.21,646.097 957.276,657.308 			"/>
			
				<line fill="none" stroke="#010101" stroke-width="4.5" stroke-linecap="round" stroke-linejoin="round" stroke-miterlimit="10" x1="994.546" y1="589.33" x2="942.757" y2="640.464"/>
			
				<line fill="none" stroke="#010101" stroke-width="4.5" stroke-linecap="round" stroke-linejoin="round" stroke-miterlimit="10" x1="997.918" y1="644.537" x2="937.475" y2="583.319"/>
		</g>
		<g clip-path="url(#SVGID_2_)">
			
				<polygon fill="#A6A8AC" stroke="#010101" stroke-width="4.5" stroke-linecap="round" stroke-linejoin="round" stroke-miterlimit="10" points="
				670.031,699.534 670.031,632.155 664.436,632.155 664.436,699.534 661.806,699.534 663.512,722.018 671.485,722.018 
				673.191,699.534 			"/>
			
				<path fill="#E01E26" stroke="#010101" stroke-width="4.5" stroke-linecap="round" stroke-linejoin="round" stroke-miterlimit="10" d="
				M667.288,569.055c-15.139,0-13.073,18.675-13.073,18.675l4.655,56.219l-4.655,6.549h26.613l-4.656-6.549l4.656-56.219
				C680.828,587.729,682.427,569.055,667.288,569.055z"/>
		</g>
		<g clip-path="url(#SVGID_2_)">
			
				<path fill="#AC5D2E" stroke="#010101" stroke-width="4.5" stroke-linecap="round" stroke-linejoin="round" stroke-miterlimit="10" d="
				M904.092,760.435c1.88,4.573-0.305,9.805-4.878,11.684l0,0c-4.574,1.88-9.805-0.304-11.685-4.877l-21.205-51.597
				c-1.88-4.573,0.305-9.803,4.879-11.683l0,0c4.572-1.88,9.804,0.303,11.684,4.876L904.092,760.435z"/>
			
				<path fill="#CABAA0" stroke="#010101" stroke-width="4.5" stroke-linecap="round" stroke-linejoin="round" stroke-miterlimit="10" d="
				M897.438,698.044c3.103,7.551-0.503,16.188-8.055,19.292l-21.702,8.919c-7.551,3.104-16.188-0.502-19.292-8.053L828.6,670.051
				c-2.551-6.206-8.204-29.925,12.817-38.563c21.021-8.64,33.128,10.854,36.231,18.406L897.438,698.044z"/>
			
				<path fill="#422A19" stroke="#010101" stroke-width="4.5" stroke-linecap="round" stroke-linejoin="round" stroke-miterlimit="10" d="
				M896.25,695.155l-18.602-45.262c-3.104-7.552-15.21-27.046-36.231-18.406c-21.021,8.639-15.368,32.357-12.817,38.563
				l18.602,45.263L896.25,695.155z"/>
		</g>
		<g clip-path="url(#SVGID_2_)">
			
				<rect x="765.042" y="540.229" transform="matrix(0.7071 0.7071 -0.7071 0.7071 667.5213 -370.8953)" fill="#F7B132" stroke="#010101" stroke-width="4.5" stroke-linecap="round" stroke-linejoin="round" stroke-miterlimit="10" width="32.858" height="160.185"/>
			<g>
				
					<line fill="none" stroke="#010101" stroke-width="4.5" stroke-linecap="round" stroke-linejoin="round" stroke-miterlimit="10" x1="722.209" y1="659.551" x2="727.732" y2="665.073"/>
				
					<line fill="none" stroke="#010101" stroke-width="4.5" stroke-linecap="round" stroke-linejoin="round" stroke-miterlimit="10" x1="729.238" y1="652.521" x2="734.761" y2="658.045"/>
				
					<line fill="none" stroke="#010101" stroke-width="4.5" stroke-linecap="round" stroke-linejoin="round" stroke-miterlimit="10" x1="736.266" y1="645.493" x2="741.789" y2="651.017"/>
				
					<line fill="none" stroke="#010101" stroke-width="4.5" stroke-linecap="round" stroke-linejoin="round" stroke-miterlimit="10" x1="743.295" y1="638.465" x2="748.818" y2="643.987"/>
				
					<line fill="none" stroke="#010101" stroke-width="4.5" stroke-linecap="round" stroke-linejoin="round" stroke-miterlimit="10" x1="750.324" y1="631.436" x2="755.847" y2="636.958"/>
				
					<line fill="none" stroke="#010101" stroke-width="4.5" stroke-linecap="round" stroke-linejoin="round" stroke-miterlimit="10" x1="757.352" y1="624.407" x2="762.875" y2="629.931"/>
				
					<line fill="none" stroke="#010101" stroke-width="4.5" stroke-linecap="round" stroke-linejoin="round" stroke-miterlimit="10" x1="764.381" y1="617.378" x2="769.905" y2="622.901"/>
				
					<line fill="none" stroke="#010101" stroke-width="4.5" stroke-linecap="round" stroke-linejoin="round" stroke-miterlimit="10" x1="771.41" y1="610.35" x2="776.933" y2="615.872"/>
				
					<line fill="none" stroke="#010101" stroke-width="4.5" stroke-linecap="round" stroke-linejoin="round" stroke-miterlimit="10" x1="778.439" y1="603.32" x2="783.962" y2="608.844"/>
				
					<line fill="none" stroke="#010101" stroke-width="4.5" stroke-linecap="round" stroke-linejoin="round" stroke-miterlimit="10" x1="785.467" y1="596.292" x2="790.99" y2="601.815"/>
				
					<line fill="none" stroke="#010101" stroke-width="4.5" stroke-linecap="round" stroke-linejoin="round" stroke-miterlimit="10" x1="792.496" y1="589.264" x2="798.019" y2="594.786"/>
				
					<line fill="none" stroke="#010101" stroke-width="4.5" stroke-linecap="round" stroke-linejoin="round" stroke-miterlimit="10" x1="799.526" y1="582.234" x2="805.048" y2="587.757"/>
				
					<line fill="none" stroke="#010101" stroke-width="4.5" stroke-linecap="round" stroke-linejoin="round" stroke-miterlimit="10" x1="806.554" y1="575.205" x2="812.077" y2="580.729"/>
				
					<line fill="none" stroke="#010101" stroke-width="4.5" stroke-linecap="round" stroke-linejoin="round" stroke-miterlimit="10" x1="813.582" y1="568.177" x2="819.106" y2="573.7"/>
				
					<line fill="none" stroke="#010101" stroke-width="4.5" stroke-linecap="round" stroke-linejoin="round" stroke-miterlimit="10" x1="820.612" y1="561.148" x2="826.134" y2="566.671"/>
			</g>
		</g>
	</g>
</g>
</svg>
