<?xml version="1.0" encoding="utf-8"?>
<!-- Generator: Adobe Illustrator 16.0.0, SVG Export Plug-In . SVG Version: 6.00 Build 0)  -->
<!DOCTYPE svg PUBLIC "-//W3C//DTD SVG 1.1//EN" "http://www.w3.org/Graphics/SVG/1.1/DTD/svg11.dtd">
<svg version="1.1" xmlns="http://www.w3.org/2000/svg" xmlns:xlink="http://www.w3.org/1999/xlink" x="0px" y="0px"
	 width="453.543px" height="453.543px" viewBox="0 0 453.543 453.543" enable-background="new 0 0 453.543 453.543"
	 xml:space="preserve">
<g id="kvadrat" display="none">
</g>
<g id="color" display="none">
	<g id="rdeča7bela" display="inline">
	</g>
	<g display="inline">
		<g>
			<g>
				<path fill="#7E4E24" d="M207.438,383.784c-15.87,0-28.781-12.91-28.781-28.778c0-5.216,4.242-9.459,9.455-9.459
					c5.215,0,9.457,4.243,9.457,9.459c0,5.441,4.427,9.868,9.869,9.868c5.443,0,9.871-4.427,9.871-9.868V195.142
					c0-1.062,0.422-2.08,1.173-2.83c0.75-0.749,1.767-1.17,2.827-1.17c0.001,0,10.917,0.014,10.917,0.014
					c2.208,0.003,3.995,1.793,3.995,4v159.851C236.221,370.874,223.309,383.784,207.438,383.784z"/>
				<path d="M221.309,195.142l10.912,0.014v159.851c0,13.663-11.115,24.778-24.783,24.778c-13.664,0-24.781-11.115-24.781-24.778
					c0-3.017,2.439-5.459,5.455-5.459s5.457,2.442,5.457,5.459c0,7.646,6.223,13.868,13.869,13.868s13.871-6.223,13.871-13.868
					V195.142 M221.309,187.142c-2.12,0-4.153,0.841-5.653,2.34c-1.502,1.501-2.347,3.536-2.347,5.66v159.864
					c0,3.236-2.634,5.868-5.871,5.868c-3.236,0-5.869-2.632-5.869-5.868c0-7.422-6.037-13.459-13.457-13.459
					c-7.419,0-13.455,6.037-13.455,13.459c0,18.074,14.706,32.778,32.781,32.778c18.077,0,32.783-14.704,32.783-32.778V195.155
					c0-4.415-3.576-7.995-7.99-8l-10.912-0.014C221.316,187.142,221.312,187.142,221.309,187.142L221.309,187.142z"/>
			</g>
			
				<path fill="#FFCF00" stroke="#000000" stroke-width="8" stroke-linecap="round" stroke-linejoin="round" stroke-miterlimit="10" d="
				M57.69,204.026c10.953-8.508,24.334-13.137,38.268-13.137c16.096,0,31.58,6.366,43.207,17.498
				c1.744-57.192,38.187-112.79,88.311-134.51h-1.643C147.252,76.009,79.305,128.614,57.69,204.026z"/>
			
				<path fill="#FFCF00" stroke="#000000" stroke-width="8" stroke-linecap="round" stroke-linejoin="round" stroke-miterlimit="10" d="
				M221.315,73.878h0.518c0.557-0.016,1.109-0.036,1.666-0.047C222.768,73.851,222.038,73.858,221.315,73.878z"/>
			
				<path fill="#39A935" stroke="#000000" stroke-width="8" stroke-linecap="round" stroke-linejoin="round" stroke-miterlimit="10" d="
				M227.721,73.878h-1.467c49.279,20.035,86.383,76.729,88.139,134.506c11.621-11.128,27.104-17.5,43.199-17.5
				c13.926,0,27.307,4.627,38.259,13.137C374.237,128.62,306.299,76.011,227.721,73.878z"/>
			
				<path fill="#FFCF00" stroke="#000000" stroke-width="8" stroke-linecap="round" stroke-linejoin="round" stroke-miterlimit="10" d="
				M226.772,73.757c-1.068,0-2.123,0.044-3.186,0.069c-0.037,0.017-0.074,0.035-0.111,0.052h6.779
				c-0.037-0.015-0.072-0.032-0.11-0.047C229.016,73.801,227.901,73.757,226.772,73.757z"/>
			
				<path fill="#FFCF00" stroke="#000000" stroke-width="8" stroke-linecap="round" stroke-linejoin="round" stroke-miterlimit="10" d="
				M230.252,73.837c0.49,0.008,0.98,0.027,1.469,0.041h0.505C231.573,73.854,230.909,73.851,230.252,73.837z"/>
			<g>
				
					<path fill="#E20613" stroke="#000000" stroke-width="8" stroke-linecap="round" stroke-linejoin="round" stroke-miterlimit="10" d="
					M228.596,77.13l-1.822,0.034h-0.002v133.222c0.346,0.284,0.537,0.447,0.537,0.447s26.184-19.943,44.402-19.943
					c18.221,0,31.432,6.309,43.041,17.332C312.926,151.792,276.674,96.507,228.596,77.13z"/>
			</g>
			
				<path fill="#0073B3" stroke="#000000" stroke-width="8" stroke-linecap="round" stroke-linejoin="round" stroke-miterlimit="10" d="
				M224.952,77.199c-48.82,21.13-84.348,75.269-86.154,131.026c11.609-11.035,20.885-17.336,43.033-17.336
				c20.193,0,41.357,16.568,44.941,19.496V77.164L224.952,77.199z"/>
		</g>
	</g>
</g>
<g id="cb">
	<g id="rdeča7bela_copy">
	</g>
	<g>
		<path fill="none" stroke="#000000" stroke-width="8" stroke-linecap="round" stroke-linejoin="round" stroke-miterlimit="10" d="
			M226.283,74.149c0.199-0.087,0.394-0.185,0.593-0.271"/>
		<path fill="none" stroke="#000000" stroke-width="8" stroke-linecap="round" stroke-linejoin="round" stroke-miterlimit="10" d="
			M138.207,208.06c0.028,0.026,0.057,0.052,0.085,0.077"/>
		<path fill="none" stroke="#000000" stroke-width="8" stroke-linecap="round" stroke-linejoin="round" stroke-miterlimit="10" d="
			M225.234,73.878c-78.58,2.131-146.527,54.736-168.143,130.148c10.953-8.508,24.334-13.137,38.268-13.137
			c15.933,0,31.261,6.246,42.848,17.17"/>
		<path fill="none" stroke="#000000" stroke-width="8" stroke-linecap="round" stroke-linejoin="round" stroke-miterlimit="10" d="
			M138.592,207.854c-0.006,0.179-0.021,0.355-0.026,0.534c-0.09-0.086-0.185-0.165-0.274-0.251"/>
		<path fill="none" stroke="#000000" stroke-width="8" stroke-linecap="round" stroke-linejoin="round" stroke-miterlimit="10" d="
			M220.716,73.878h0.518c0.557-0.016,1.109-0.036,1.666-0.047C222.169,73.851,221.439,73.858,220.716,73.878z"/>
		<path fill="none" stroke="#000000" stroke-width="8" stroke-linecap="round" stroke-linejoin="round" stroke-miterlimit="10" d="
			M227.123,73.878c78.578,2.133,146.516,54.742,168.13,130.143c-10.953-8.51-24.334-13.137-38.259-13.137
			c-15.937,0-31.267,6.255-42.849,17.179"/>
		<path fill="none" stroke="#000000" stroke-width="8" stroke-linecap="round" stroke-linejoin="round" stroke-miterlimit="10" d="
			M314.063,208.139c-0.089,0.083-0.182,0.161-0.269,0.245c-0.005-0.172-0.02-0.343-0.025-0.515"/>
		<path fill="none" stroke="#000000" stroke-width="8" stroke-linecap="round" stroke-linejoin="round" stroke-miterlimit="10" d="
			M314.145,208.063c-0.027,0.025-0.055,0.051-0.082,0.076"/>
		<path fill="none" stroke="#000000" stroke-width="8" stroke-linecap="round" stroke-linejoin="round" stroke-miterlimit="10" d="
			M226.283,74.149c-0.21-0.087-0.417-0.186-0.627-0.271"/>
		<path fill="none" stroke="#000000" stroke-width="8" stroke-linecap="round" stroke-linejoin="round" stroke-miterlimit="10" d="
			M226.173,73.757c1.129,0,2.244,0.044,3.373,0.074c0.038,0.015,0.073,0.032,0.11,0.047h-2.533"/>
		<path fill="none" stroke="#000000" stroke-width="8" stroke-linecap="round" stroke-linejoin="round" stroke-miterlimit="10" d="
			M226.173,73.757c-1.068,0-2.123,0.044-3.186,0.069c-0.038,0.017-0.074,0.035-0.111,0.052h2.357"/>
		
			<line fill="none" stroke="#000000" stroke-width="8" stroke-linecap="round" stroke-linejoin="round" stroke-miterlimit="10" x1="225.234" y1="73.878" x2="225.656" y2="73.878"/>
		
			<line fill="none" stroke="#000000" stroke-width="8" stroke-linecap="round" stroke-linejoin="round" stroke-miterlimit="10" x1="227.123" y1="73.878" x2="226.876" y2="73.878"/>
		
			<line fill="none" stroke="#000000" stroke-width="8" stroke-linecap="round" stroke-linejoin="round" stroke-miterlimit="10" x1="226.876" y1="73.878" x2="225.656" y2="73.878"/>
		<path fill="none" stroke="#000000" stroke-width="8" stroke-linecap="round" stroke-linejoin="round" stroke-miterlimit="10" d="
			M231.123,73.878h0.505c-0.654-0.023-1.318-0.027-1.974-0.041C230.144,73.845,230.634,73.864,231.123,73.878z"/>
		<path fill="none" stroke="#000000" stroke-width="8" stroke-linecap="round" stroke-linejoin="round" stroke-miterlimit="10" d="
			M314.063,208.139c-0.098-0.092-0.197-0.178-0.294-0.27"/>
		<path fill="none" stroke="#000000" stroke-width="8" stroke-linecap="round" stroke-linejoin="round" stroke-miterlimit="10" d="
			M226.173,210.386c0.346,0.284,0.537,0.447,0.537,0.447s1.859-1.413,4.913-3.479"/>
		<path fill="none" stroke="#000000" stroke-width="8" stroke-linecap="round" stroke-linejoin="round" stroke-miterlimit="10" d="
			M314.063,208.139c0.029,0.028,0.061,0.055,0.091,0.083c-0.002-0.053-0.007-0.106-0.009-0.159"/>
		<path fill="none" stroke="#000000" stroke-width="8" stroke-linecap="round" stroke-linejoin="round" stroke-miterlimit="10" d="
			M313.769,207.869c-11.518-10.801-24.635-16.979-42.656-16.979c-13.381,0-31.046,10.751-39.49,16.464"/>
		<path fill="none" stroke="#000000" stroke-width="8" stroke-linecap="round" stroke-linejoin="round" stroke-miterlimit="10" d="
			M220.71,206.269c-8.35-5.884-24.189-15.379-39.478-15.379c-21.896,0-31.213,6.161-42.64,16.964"/>
		<path fill="none" stroke="#000000" stroke-width="8" stroke-linecap="round" stroke-linejoin="round" stroke-miterlimit="10" d="
			M138.207,208.06c-0.002,0.056-0.007,0.11-0.009,0.166c0.031-0.03,0.063-0.059,0.094-0.089"/>
		<path fill="none" stroke="#000000" stroke-width="8" stroke-linecap="round" stroke-linejoin="round" stroke-miterlimit="10" d="
			M138.592,207.854c-0.101,0.096-0.2,0.188-0.301,0.283"/>
		<path fill="none" stroke="#000000" stroke-width="8" stroke-linecap="round" stroke-linejoin="round" stroke-miterlimit="10" d="
			M220.71,206.269c2.678,1.888,4.592,3.406,5.463,4.117"/>
		
			<polyline fill="none" stroke="#000000" stroke-width="8" stroke-linecap="round" stroke-linejoin="round" stroke-miterlimit="10" points="
			226.173,73.757 235.05,73.757 235.05,44.464 216.095,44.464 216.095,73.757 226.173,73.757 		"/>
	</g>
	<path fill="none" stroke="#000000" stroke-width="8" stroke-linecap="round" stroke-linejoin="round" stroke-miterlimit="10" d="
		M218.303,206.269v148.737c0,6.084-4.951,11.033-11.036,11.033c-6.084,0-11.034-4.949-11.034-11.033c0-4.573-3.72-8.294-8.292-8.294
		c-4.571,0-8.29,3.721-8.29,8.294c0,15.226,12.389,27.613,27.616,27.613c15.229,0,27.618-12.388,27.618-27.613V207.354
		L218.303,206.269z"/>
</g>
<g id="pivot">
	<circle fill="none" cx="226.253" cy="377.17" r="14.133"/>
</g>
</svg>
