<?xml version="1.0" encoding="utf-8"?>
<!-- Generator: Adobe Illustrator 16.0.0, SVG Export Plug-In . SVG Version: 6.00 Build 0)  -->
<!DOCTYPE svg PUBLIC "-//W3C//DTD SVG 1.1//EN" "http://www.w3.org/Graphics/SVG/1.1/DTD/svg11.dtd">
<svg version="1.1" id="Layer_1" xmlns="http://www.w3.org/2000/svg" xmlns:xlink="http://www.w3.org/1999/xlink" x="0px" y="0px"
	 width="453.543px" height="453.543px" viewBox="0 0 453.543 453.543" enable-background="new 0 0 453.543 453.543"
	 xml:space="preserve">
<g id="kvadrat" display="none">
</g>
<g id="color" display="none">
	<g display="inline">
		
			<path fill="#662482" stroke="#000000" stroke-width="8" stroke-linecap="round" stroke-linejoin="round" stroke-miterlimit="10" d="
			M224.605,111.248c-0.32-0.006-0.645-0.006-0.962-0.016v-0.006c-0.075,0.002-0.157,0.001-0.232,0.003
			c-0.077-0.002-0.156-0.001-0.233-0.003v0.006c-0.675,0.019-1.352,0.031-2.046,0.031c-29.31,0-41.838-13.566-48.62-33.556
			c-5.923,1.83-55.859,16.202-55.859,16.202L59.789,307.24l49.605,12.273l36.661-140.831l6.955-3.136
			c0,0-16.67,193.107-11.913,197.864c4.757,4.758,61.853,1.045,61.853,1.045l21.655-71.2V111.248z"/>
		
			<path fill="#662482" stroke="#000000" stroke-width="8" stroke-linecap="round" stroke-linejoin="round" stroke-miterlimit="10" d="
			M224.605,111.248c0.321-0.006,0.646-0.006,0.964-0.016v-0.006c0.075,0.002,0.156,0.001,0.232,0.003
			c0.076-0.002,0.156-0.001,0.232-0.003v0.006c0.675,0.019,1.352,0.031,2.045,0.031c29.311,0,41.838-13.566,48.619-33.556
			c5.926,1.83,55.86,16.202,55.86,16.202l61.196,212.318L343.067,321.9l-39.91-143.218l-6.955-3.136
			c0,0,17.201,192.575,11.914,197.864c-5.289,5.288-80.035,0-80.035,0h-2.046h-0.465h-0.964V111.248z"/>
		
			<line fill="none" stroke="#000000" stroke-width="8" stroke-linecap="round" stroke-linejoin="round" stroke-miterlimit="10" x1="247.008" y1="182.644" x2="270.722" y2="182.644"/>
		<circle cx="200.533" cy="205.742" r="7.833"/>
		<circle cx="200.533" cy="243.667" r="7.833"/>
		<circle cx="200.533" cy="281.592" r="7.833"/>
	</g>
	<g id="rdeča7bela" display="inline">
	</g>
</g>
<g id="cb">
	<g>
		<path fill="none" stroke="#000000" stroke-width="8" stroke-linecap="round" stroke-linejoin="round" stroke-miterlimit="10" d="
			M224.605,111.248c-0.32-0.006-0.645-0.006-0.962-0.016v-0.006c-0.075,0.002-0.157,0.001-0.232,0.003
			c-0.077-0.002-0.156-0.001-0.233-0.003v0.006c-0.675,0.019-1.352,0.031-2.046,0.031c-29.31,0-41.838-13.566-48.62-33.556
			c-5.923,1.83-55.859,16.202-55.859,16.202L59.789,307.24l49.605,12.273l36.661-140.831l6.955-3.136
			c0,0-16.67,193.107-11.913,197.864c4.757,4.758,61.853,1.045,61.853,1.045l21.655-71.2V111.248z"/>
		<path fill="none" stroke="#000000" stroke-width="8" stroke-linecap="round" stroke-linejoin="round" stroke-miterlimit="10" d="
			M224.605,111.248c0.321-0.006,0.646-0.006,0.964-0.016v-0.006c0.075,0.002,0.156,0.001,0.232,0.003
			c0.076-0.002,0.156-0.001,0.232-0.003v0.006c0.675,0.019,1.352,0.031,2.045,0.031c29.311,0,41.838-13.566,48.619-33.556
			c5.926,1.83,55.86,16.202,55.86,16.202l61.196,212.318L343.067,321.9l-39.91-143.218l-6.955-3.136
			c0,0,17.201,192.575,11.914,197.864c-5.289,5.288-80.035,0-80.035,0h-2.046h-0.465h-0.964V111.248z"/>
		
			<line fill="none" stroke="#000000" stroke-width="8" stroke-linecap="round" stroke-linejoin="round" stroke-miterlimit="10" x1="247.008" y1="182.644" x2="270.722" y2="182.644"/>
	</g>
	<g id="rdeča7bela_copy">
	</g>
	<circle cx="200.533" cy="205.742" r="7.833"/>
	<circle cx="200.533" cy="243.667" r="7.833"/>
	<circle cx="200.533" cy="281.592" r="7.833"/>
</g>
<g id="pivot">
	<circle fill="none" cx="221.284" cy="370.925" r="14.133"/>
</g>
</svg>
