<?xml version="1.0" encoding="utf-8"?>
<!-- Generator: Adobe Illustrator 16.0.0, SVG Export Plug-In . SVG Version: 6.00 Build 0)  -->
<!DOCTYPE svg PUBLIC "-//W3C//DTD SVG 1.1//EN" "http://www.w3.org/Graphics/SVG/1.1/DTD/svg11.dtd">
<svg version="1.1" id="Layer_1" xmlns="http://www.w3.org/2000/svg" xmlns:xlink="http://www.w3.org/1999/xlink" x="0px" y="0px"
	 width="453.543px" height="453.543px" viewBox="0 0 453.543 453.543" enable-background="new 0 0 453.543 453.543"
	 xml:space="preserve">
<g id="kvadrat" display="none">
</g>
<g id="color" display="none">
	<g id="rdeča7bela" display="inline">
	</g>
	<g display="inline">
		
			<path fill="#57B2E5" stroke="#000000" stroke-width="8" stroke-linecap="round" stroke-linejoin="round" stroke-miterlimit="10" d="
			M359.264,321.94v-51.57c0-73.176-59.318-132.491-132.492-132.491c-73.172,0-132.492,59.315-132.492,132.491v51.57H359.264z"/>
		<g>
			<path fill="#00497E" d="M373.256,361.872c0,5.501-4.5,10.001-10,10.001H90.288c-5.5,0-10-4.5-10-10.001v-45.524
				c0-5.5,4.5-10,10-10h272.968c5.5,0,10,4.5,10,10V361.872L373.256,361.872z"/>
			<path fill="none" stroke="#000000" stroke-width="8" stroke-linecap="round" stroke-linejoin="round" stroke-miterlimit="10" d="
				M373.256,361.872c0,5.501-4.5,10.001-10,10.001H90.288c-5.5,0-10-4.5-10-10.001v-45.524c0-5.5,4.5-10,10-10h272.968
				c5.5,0,10,4.5,10,10V361.872L373.256,361.872z"/>
		</g>
		
			<circle fill="#FFFFFF" stroke="#000000" stroke-width="8" stroke-linecap="round" stroke-linejoin="round" stroke-miterlimit="10" cx="226.772" cy="117.496" r="35.827"/>
		
			<line fill="none" stroke="#000000" stroke-width="8" stroke-linecap="round" stroke-linejoin="round" stroke-miterlimit="10" x1="95.724" y1="250.785" x2="357.82" y2="250.785"/>
		
			<line fill="none" stroke="#000000" stroke-width="8" stroke-linecap="round" stroke-linejoin="round" stroke-miterlimit="10" x1="121.724" y1="190.785" x2="331.82" y2="190.785"/>
	</g>
</g>
<g id="cb">
	<g id="rdeča7bela_copy">
	</g>
	<g>
		<path fill="none" stroke="#000000" stroke-width="8" stroke-linecap="round" stroke-linejoin="round" stroke-miterlimit="10" d="
			M254.063,140.697c53.814,11.271,95.623,55.188,103.758,110.089"/>
		<path fill="none" stroke="#000000" stroke-width="8" stroke-linecap="round" stroke-linejoin="round" stroke-miterlimit="10" d="
			M94.279,306.348v-35.979c0-63.819,45.124-117.093,105.204-129.673"/>
		<path fill="none" stroke="#000000" stroke-width="8" stroke-linecap="round" stroke-linejoin="round" stroke-miterlimit="10" d="
			M359.264,306.348v-35.979c0-6.654-0.496-13.193-1.443-19.584"/>
		<path fill="none" stroke="#000000" stroke-width="8" stroke-linecap="round" stroke-linejoin="round" stroke-miterlimit="10" d="
			M254.063,140.697c-6.572,7.724-16.355,12.626-27.292,12.626c-10.935,0-20.718-4.902-27.289-12.626"/>
		<path fill="none" stroke="#000000" stroke-width="8" stroke-linecap="round" stroke-linejoin="round" stroke-miterlimit="10" d="
			M254.063,140.697c5.319-6.252,8.537-14.349,8.537-23.2c0-19.788-16.039-35.827-35.828-35.827
			c-19.788,0-35.826,16.039-35.826,35.827c0,8.853,3.217,16.948,8.538,23.2"/>
		
			<line fill="none" stroke="#000000" stroke-width="8" stroke-linecap="round" stroke-linejoin="round" stroke-miterlimit="10" x1="357.82" y1="250.785" x2="357.82" y2="250.785"/>
		
			<line fill="none" stroke="#000000" stroke-width="8" stroke-linecap="round" stroke-linejoin="round" stroke-miterlimit="10" x1="95.724" y1="250.785" x2="357.82" y2="250.785"/>
		
			<line fill="none" stroke="#000000" stroke-width="8" stroke-linecap="round" stroke-linejoin="round" stroke-miterlimit="10" x1="121.724" y1="190.785" x2="331.82" y2="190.785"/>
		<g>
			<path fill="none" stroke="#000000" stroke-width="8" stroke-linecap="round" stroke-linejoin="round" stroke-miterlimit="10" d="
				M373.256,361.873c0,5.5-4.5,10-10,10H90.288c-5.5,0-10-4.5-10-10V316.35c0-5.5,4.5-10,10-10h272.968c5.5,0,10,4.5,10,10V361.873
				L373.256,361.873z"/>
		</g>
	</g>
</g>
<g id="pivot">
	<circle fill="none" cx="232.956" cy="370.406" r="14.133"/>
</g>
</svg>
