<?xml version="1.0" encoding="utf-8"?>
<!-- Generator: Adobe Illustrator 16.0.0, SVG Export Plug-In . SVG Version: 6.00 Build 0)  -->
<!DOCTYPE svg PUBLIC "-//W3C//DTD SVG 1.1//EN" "http://www.w3.org/Graphics/SVG/1.1/DTD/svg11.dtd">
<svg version="1.1" id="Layer_1" xmlns="http://www.w3.org/2000/svg" xmlns:xlink="http://www.w3.org/1999/xlink" x="0px" y="0px"
	 width="453.543px" height="453.543px" viewBox="0 0 453.543 453.543" enable-background="new 0 0 453.543 453.543"
	 xml:space="preserve">
<g id="kvadrat" display="none">
</g>
<g id="color" display="none">
	<g id="rdeča7bela" display="inline">
	</g>
	<g display="inline">
		<g>
			<g>
				
					<path fill="#57B2E5" stroke="#000000" stroke-width="8" stroke-linecap="round" stroke-linejoin="round" stroke-miterlimit="10" d="
					M359.967,321.94v-51.57c0-73.176-59.318-132.491-132.492-132.491c-73.171,0-132.492,59.315-132.492,132.491v51.57H359.967z"/>
			</g>
			
				<path fill="#57B2E5" stroke="#000000" stroke-width="8" stroke-linecap="round" stroke-linejoin="round" stroke-miterlimit="10" d="
				M353.264,230.834l-23.797,21.608l-25.764-23.396l-25.762,23.396l-25.76-23.396l-25.761,23.396l-25.76-23.396l-25.756,23.396
				l-25.756-23.396l-25.753,23.396l-23.263-21.131c-3.803,12.348-5.855,25.462-5.855,39.058v51.57h264.984v-51.57
				C359.264,256.599,357.162,243.319,353.264,230.834z"/>
		</g>
		<g>
			
				<circle fill="#FFFFFF" stroke="#000000" stroke-width="8" stroke-linecap="round" stroke-linejoin="round" stroke-miterlimit="10" cx="227.477" cy="117.496" r="35.827"/>
		</g>
		<g>
			<g>
				<path fill="#00497E" d="M373.256,361.872c0,5.501-4.5,10.001-10,10.001H90.288c-5.5,0-10-4.5-10-10.001v-45.524
					c0-5.5,4.5-10,10-10h272.968c5.5,0,10,4.5,10,10V361.872L373.256,361.872z"/>
				
					<path fill="none" stroke="#000000" stroke-width="8" stroke-linecap="round" stroke-linejoin="round" stroke-miterlimit="10" d="
					M373.256,361.872c0,5.501-4.5,10.001-10,10.001H90.288c-5.5,0-10-4.5-10-10.001v-45.524c0-5.5,4.5-10,10-10h272.968
					c5.5,0,10,4.5,10,10V361.872L373.256,361.872z"/>
			</g>
		</g>
	</g>
</g>
<g id="cb">
	<g id="rdeča7bela_copy">
	</g>
	<g>
		<path fill="none" stroke="#000000" stroke-width="8" stroke-linecap="round" stroke-linejoin="round" stroke-miterlimit="10" d="
			M94.982,306.348v-35.979c0-13.411,2-26.354,5.705-38.556"/>
		<path fill="none" stroke="#000000" stroke-width="8" stroke-linecap="round" stroke-linejoin="round" stroke-miterlimit="10" d="
			M100.688,231.814c13.927-45.855,52.044-81.181,99.499-91.117"/>
		<path fill="none" stroke="#000000" stroke-width="8" stroke-linecap="round" stroke-linejoin="round" stroke-miterlimit="10" d="
			M359.967,306.348v-35.979c0-63.818-45.121-117.092-105.201-129.673"/>
		<path fill="none" stroke="#000000" stroke-width="8" stroke-linecap="round" stroke-linejoin="round" stroke-miterlimit="10" d="
			M94.279,306.348v-35.979c0-13.596,2.052-26.71,5.855-39.058l0.553,0.502"/>
		<path fill="none" stroke="#000000" stroke-width="8" stroke-linecap="round" stroke-linejoin="round" stroke-miterlimit="10" d="
			M359.264,306.348v-35.979c0-13.771-2.102-27.051-6-39.535l-23.797,21.608l-25.764-23.396l-25.762,23.396l-25.76-23.396
			l-25.761,23.396l-25.76-23.396l-25.756,23.396l-25.756-23.396l-25.753,23.396l-22.71-20.629"/>
		<path fill="none" stroke="#000000" stroke-width="8" stroke-linecap="round" stroke-linejoin="round" stroke-miterlimit="10" d="
			M254.766,140.697c-6.572,7.724-16.355,12.626-27.291,12.626c-10.935,0-20.718-4.903-27.29-12.626"/>
		<path fill="none" stroke="#000000" stroke-width="8" stroke-linecap="round" stroke-linejoin="round" stroke-miterlimit="10" d="
			M254.766,140.697c5.319-6.252,8.537-14.349,8.537-23.2c0-19.788-16.039-35.827-35.828-35.827
			c-19.787,0-35.826,16.039-35.826,35.827c0,8.853,3.217,16.948,8.538,23.2"/>
		
			<line fill="none" stroke="#000000" stroke-width="8" stroke-linecap="round" stroke-linejoin="round" stroke-miterlimit="10" x1="359.264" y1="306.348" x2="359.967" y2="306.348"/>
		
			<line fill="none" stroke="#000000" stroke-width="8" stroke-linecap="round" stroke-linejoin="round" stroke-miterlimit="10" x1="94.982" y1="306.348" x2="94.279" y2="306.348"/>
		<g>
			<path fill="none" stroke="#000000" stroke-width="8" stroke-linecap="round" stroke-linejoin="round" stroke-miterlimit="10" d="
				M373.256,361.873c0,5.5-4.5,10-10,10H90.288c-5.5,0-10-4.5-10-10V316.35c0-5.5,4.5-10,10-10h272.968c5.5,0,10,4.5,10,10V361.873
				L373.256,361.873z"/>
		</g>
	</g>
</g>
<g id="pivot">
	<circle fill="none" cx="223.757" cy="370.406" r="14.133"/>
</g>
</svg>
