<?xml version="1.0" encoding="utf-8"?>
<!-- Generator: Adobe Illustrator 16.0.0, SVG Export Plug-In . SVG Version: 6.00 Build 0)  -->
<!DOCTYPE svg PUBLIC "-//W3C//DTD SVG 1.1//EN" "http://www.w3.org/Graphics/SVG/1.1/DTD/svg11.dtd">
<svg version="1.1" xmlns="http://www.w3.org/2000/svg" xmlns:xlink="http://www.w3.org/1999/xlink" x="0px" y="0px"
	 width="453.544px" height="453.543px" viewBox="0 0 453.544 453.543" enable-background="new 0 0 453.544 453.543"
	 xml:space="preserve">
<g id="kvadrat" display="none">
</g>
<g id="color" display="none">
	
		<path display="inline" fill="#941B80" stroke="#000000" stroke-width="8" stroke-linecap="round" stroke-linejoin="round" stroke-miterlimit="10" d="
		M291.687,222.888c0-32.616,9.715-45.424,9.986-69.335c0.529-46.655,2.932-86,2.932-86l-33.773-6.997
		c0,67.826-24.627,82.265-42.877,82.265c-0.391,0-0.785-0.008-1.182-0.022c-0.396,0.015-0.793,0.022-1.184,0.022
		c-18.25,0-42.875-14.438-42.875-82.265l-33.775,6.997c0,0,2.404,39.345,2.932,86c0.271,23.912,9.988,36.719,9.988,69.335
		c0,32.618-15.225,57.344-15.225,57.344l0.008,30.88v7.098c0.025,0.128-0.025,0.258,0,0.387
		c42.262,3.511,59.811,39.25,66.787,74.227c1.563,0.131,5.455,0.174,12.16,0.162c0.395,0,0.789,0,1.184,0c0.393,0,0.787,0,1.182,0
		c6.707,0.011,10.598-0.031,12.16-0.162c6.977-34.977,24.525-70.716,66.789-74.227c0.025-0.13-0.025-0.259,0-0.387v-7.098
		l0.006-30.88C306.909,280.231,291.687,255.506,291.687,222.888z"/>
	<g id="rdeča7bela" display="inline">
	</g>
</g>
<g id="cb">
	<path fill="none" stroke="#000000" stroke-width="8" stroke-linecap="round" stroke-linejoin="round" stroke-miterlimit="10" d="
		M291.687,222.888c0-32.616,9.715-45.424,9.986-69.335c0.529-46.655,2.932-86,2.932-86l-33.773-6.997
		c0,67.826-24.627,82.265-42.877,82.265c-0.391,0-0.785-0.008-1.182-0.022c-0.396,0.015-0.793,0.022-1.184,0.022
		c-18.25,0-42.875-14.438-42.875-82.265l-33.775,6.997c0,0,2.404,39.345,2.932,86c0.271,23.912,9.988,36.719,9.988,69.335
		c0,32.618-15.225,57.344-15.225,57.344l0.008,30.88v7.098c0.025,0.128-0.025,0.258,0,0.387
		c42.262,3.511,59.811,39.25,66.787,74.227c1.563,0.131,5.455,0.174,12.16,0.162c0.395,0,0.789,0,1.184,0c0.393,0,0.787,0,1.182,0
		c6.707,0.011,10.598-0.031,12.16-0.162c6.977-34.977,24.525-70.716,66.789-74.227c0.025-0.13-0.025-0.259,0-0.387v-7.098
		l0.006-30.88C306.909,280.231,291.687,255.506,291.687,222.888z"/>
	<g id="rdeča7bela_copy">
	</g>
</g>
<g id="pivot">
	<circle fill="none" cx="224.866" cy="389.733" r="14.133"/>
</g>
</svg>
