<?xml version="1.0" encoding="utf-8"?>
<!-- Generator: Adobe Illustrator 16.0.0, SVG Export Plug-In . SVG Version: 6.00 Build 0)  -->
<!DOCTYPE svg PUBLIC "-//W3C//DTD SVG 1.1//EN" "http://www.w3.org/Graphics/SVG/1.1/DTD/svg11.dtd">
<svg version="1.1" xmlns="http://www.w3.org/2000/svg" xmlns:xlink="http://www.w3.org/1999/xlink" x="0px" y="0px"
	 width="453.544px" height="453.543px" viewBox="0 0 453.544 453.543" enable-background="new 0 0 453.544 453.543"
	 xml:space="preserve">
<g id="kvadrat" display="none">
</g>
<g id="color" display="none">
	<g id="rdeča7bela" display="inline">
	</g>
	<g display="inline">
		<g id="XMLID_2_">
			<g>
				<path fill="#FFFFFF" d="M335.68,342.113c20.696-52.155-30.576-85.439-30.576-85.439l-74.645-49.748l0.893-131.765l-117.81-0.452
					v170.889c-5.88,47.868,33.159,65.288,44.279,72.575c11.109,7.297,103.215,57.235,103.215,57.235S314.996,394.288,335.68,342.113
					z"/>
			</g>
			<g>
				
					<path fill="none" stroke="#000000" stroke-width="8" stroke-linecap="round" stroke-linejoin="round" stroke-miterlimit="10" d="
					M230.459,206.926l74.645,49.748c0,0,51.272,33.284,30.576,85.439c-20.685,52.175-74.645,33.295-74.645,33.295
					s-92.105-49.938-103.215-57.235c-11.12-7.287-50.159-24.707-44.279-72.575V74.709l117.81,0.452L230.459,206.926z"/>
			</g>
		</g>
		<g>
			<path stroke="#000000" stroke-width="8" stroke-linecap="round" stroke-linejoin="round" d="M159.338,315.913l13.252-69.541
				l-57.531-16.014C108.812,308.786,159.338,315.913,159.338,315.913z"/>
			<path stroke="#000000" stroke-width="8" stroke-linecap="round" stroke-linejoin="round" d="M261.504,375.248
				c20.118-72.04,72.157-85.165,72.157-85.165s15.855,36.485-6.979,68.393C303.851,390.381,261.504,375.248,261.504,375.248z"/>
			
				<line fill="none" stroke="#000000" stroke-width="8" stroke-linecap="round" stroke-linejoin="round" stroke-miterlimit="10" x1="115.512" y1="110.612" x2="229.786" y2="110.612"/>
		</g>
	</g>
</g>
<g id="cb">
	<g id="rdeča7bela_copy">
	</g>
	<g>
		<g id="XMLID_15_">
			<g>
				<path fill="none" d="M335.68,342.113c20.696-52.155-30.576-85.439-30.576-85.439l-74.645-49.748l0.893-131.765l-117.81-0.452
					v170.889c-5.88,47.868,33.159,65.288,44.279,72.575c11.109,7.297,103.215,57.235,103.215,57.235S314.996,394.288,335.68,342.113
					z"/>
			</g>
			<g>
				
					<path fill="none" stroke="#000000" stroke-width="8" stroke-linecap="round" stroke-linejoin="round" stroke-miterlimit="10" d="
					M230.459,206.926l74.645,49.748c0,0,51.272,33.284,30.576,85.439c-20.685,52.175-74.645,33.295-74.645,33.295
					s-92.105-49.938-103.215-57.235c-11.12-7.287-50.159-24.707-44.279-72.575V74.709l117.81,0.452L230.459,206.926z"/>
			</g>
		</g>
		<g>
			<path fill="none" stroke="#000000" stroke-width="8" stroke-linecap="round" stroke-linejoin="round" d="M261.504,375.248
				c20.118-72.04,72.157-85.165,72.157-85.165s15.855,36.485-6.979,68.393C303.851,390.381,261.504,375.248,261.504,375.248z"/>
			
				<line fill="none" stroke="#000000" stroke-width="8" stroke-linecap="round" stroke-linejoin="round" stroke-miterlimit="10" x1="115.512" y1="110.612" x2="229.786" y2="110.612"/>
			<polyline fill="none" stroke="#000000" stroke-width="8" stroke-linecap="round" stroke-linejoin="round" points="
				115.06,230.358 172.591,246.372 157.821,318.173 			"/>
		</g>
	</g>
</g>
<g id="pivot">
	<circle fill="none" cx="220.702" cy="378.158" r="14.133"/>
</g>
</svg>
