<?xml version="1.0" encoding="utf-8"?>
<!-- Generator: Adobe Illustrator 16.0.0, SVG Export Plug-In . SVG Version: 6.00 Build 0)  -->
<!DOCTYPE svg PUBLIC "-//W3C//DTD SVG 1.1//EN" "http://www.w3.org/Graphics/SVG/1.1/DTD/svg11.dtd">
<svg version="1.1" xmlns="http://www.w3.org/2000/svg" xmlns:xlink="http://www.w3.org/1999/xlink" x="0px" y="0px"
	 width="453.544px" height="453.543px" viewBox="0 0 453.544 453.543" enable-background="new 0 0 453.544 453.543"
	 xml:space="preserve">
<g id="kvadrat" display="none">
</g>
<g id="color" display="none">
	
		<path display="inline" fill="#7E4E24" stroke="#000000" stroke-width="8" stroke-linecap="round" stroke-linejoin="round" stroke-miterlimit="10" d="
		M394.925,291.254c-1.549-2.578-3.889-4.973-6.289-6.438c-2.531-1.581-6.994-4.229-10.285-6.171
		c-4.467-2.646-129.396-74.885-143.785-83.14c-1.199-0.68-2.229-1.276-3.16-1.817c-0.664-0.385-1.373-0.676-2.102-0.899v-10.83
		c0.16-0.146,0.322-0.292,0.484-0.44c8.096-7.342,24.941-22.62,13.395-44.417c-5.287-9.979-14.871-16.478-26.982-18.297
		c-12.045-1.809-24.613,1.45-31.271,8.109c-3.906,3.905-3.906,10.237,0,14.142c3.904,3.905,10.236,3.904,14.143,0
		c1.434-1.435,7.393-3.489,14.158-2.471c4.018,0.603,9.408,2.46,12.281,7.882c3.652,6.896,0.918,11.102-9.158,20.238
		c-1.459,1.325-2.838,2.574-4.119,3.857c-1.877,1.874-2.93,4.418-2.93,7.07v15.526c-0.412,0.18-0.813,0.385-1.199,0.621
		c-0.383,0.234-0.793,0.49-1.25,0.777c-1.158,0.727-2.547,1.593-4.139,2.585c-2.039,1.272-4.408,2.75-7.039,4.398
		c-10.166,6.352-98.057,61.609-116.719,73.744c-5.297,3.439-9.643,6.322-12.246,8.127c-3.686,2.561-6.557,5.369-8.305,8.118
		c-0.021,0.033-0.041,0.066-0.063,0.099c-1.279,2.065-1.965,3.956-2.145,5.929c-0.047,0.474-0.061,0.952-0.039,1.43
		c0.074,1.797,0.582,3.118,0.959,3.962c0.057,0.123,0.115,0.245,0.176,0.367c0.73,1.468,1.826,2.854,3.172,4.022
		c2.564,2.278,6.289,3.761,9.566,3.795c0.006,0,0.014,0,0.014,0c0.141,0.005,0.271,0.006,0.404,0.006
		c2.508-0.01,6.297-0.01,11.17-0.01c16.568,0.011,45.492,0.019,79.092,0.042c46.158,0.03,101.055,0.067,144.422,0.067
		c43.492,0,65.982-0.031,72.898-0.098c6.318-0.048,11.533-1.271,14.764-3.45c2.82-1.812,4.594-4.96,4.594-8.414
		C397.392,296.781,396.47,293.79,394.925,291.254z M305.136,291.234c-43.363,0-98.254-0.037-144.408-0.067
		c-27.787-0.019-52.41-0.036-69.443-0.04c21.248-13.732,105.082-66.438,115.002-72.635c2.629-1.647,4.984-3.117,7.012-4.382
		c1.039-0.648,1.992-1.242,2.861-1.784l7.543,0.009c0.309,0.177,0.629,0.359,0.959,0.545c12.361,7.092,106.924,61.764,135.49,78.323
		C345.165,291.229,324.015,291.234,305.136,291.234z"/>
	<g id="rdeča7bela" display="inline">
	</g>
</g>
<g id="cb">
	<path fill="none" stroke="#000000" stroke-width="8" stroke-linecap="round" stroke-linejoin="round" stroke-miterlimit="10" d="
		M394.925,291.254c-1.549-2.578-3.889-4.973-6.289-6.438c-2.531-1.581-6.994-4.229-10.285-6.171
		c-4.467-2.646-129.396-74.885-143.785-83.14c-1.199-0.68-2.229-1.276-3.16-1.817c-0.664-0.385-1.373-0.676-2.102-0.899v-10.83
		c0.16-0.146,0.322-0.292,0.484-0.44c8.096-7.342,24.941-22.62,13.395-44.417c-5.287-9.979-14.871-16.478-26.982-18.297
		c-12.045-1.809-24.613,1.45-31.271,8.109c-3.906,3.905-3.906,10.237,0,14.142c3.904,3.905,10.236,3.904,14.143,0
		c1.434-1.435,7.393-3.489,14.158-2.471c4.018,0.603,9.408,2.46,12.281,7.882c3.652,6.896,0.918,11.102-9.158,20.238
		c-1.459,1.325-2.838,2.574-4.119,3.857c-1.877,1.874-2.93,4.418-2.93,7.07v15.526c-0.412,0.18-0.813,0.385-1.199,0.621
		c-0.383,0.234-0.793,0.49-1.25,0.777c-1.158,0.727-2.547,1.593-4.139,2.585c-2.039,1.272-4.408,2.75-7.039,4.398
		c-10.166,6.352-98.057,61.609-116.719,73.744c-5.297,3.439-9.643,6.322-12.246,8.127c-3.686,2.561-6.557,5.369-8.305,8.118
		c-0.021,0.033-0.041,0.066-0.063,0.099c-1.279,2.065-1.965,3.956-2.145,5.929c-0.047,0.474-0.061,0.952-0.039,1.43
		c0.074,1.797,0.582,3.118,0.959,3.962c0.057,0.123,0.115,0.245,0.176,0.367c0.73,1.468,1.826,2.854,3.172,4.022
		c2.564,2.278,6.289,3.761,9.566,3.795c0.006,0,0.014,0,0.014,0c0.141,0.005,0.271,0.006,0.404,0.006
		c2.508-0.01,6.297-0.01,11.17-0.01c16.568,0.011,45.492,0.019,79.092,0.042c46.158,0.03,101.055,0.067,144.422,0.067
		c43.492,0,65.982-0.031,72.898-0.098c6.318-0.048,11.533-1.271,14.764-3.45c2.82-1.812,4.594-4.96,4.594-8.414
		C397.392,296.781,396.47,293.79,394.925,291.254z M305.136,291.234c-43.363,0-98.254-0.037-144.408-0.067
		c-27.787-0.019-52.41-0.036-69.443-0.04c21.248-13.732,105.082-66.438,115.002-72.635c2.629-1.647,4.984-3.117,7.012-4.382
		c1.039-0.648,1.992-1.242,2.861-1.784l7.543,0.009c0.309,0.177,0.629,0.359,0.959,0.545c12.361,7.092,106.924,61.764,135.49,78.323
		C345.165,291.229,324.015,291.234,305.136,291.234z"/>
	<g id="rdeča7bela_copy">
	</g>
</g>
<g id="pivot">
	<circle fill="none" cx="227.356" cy="311.607" r="14.133"/>
</g>
</svg>
