<?xml version="1.0" encoding="utf-8"?>
<!-- Generator: Adobe Illustrator 16.0.0, SVG Export Plug-In . SVG Version: 6.00 Build 0)  -->
<!DOCTYPE svg PUBLIC "-//W3C//DTD SVG 1.1//EN" "http://www.w3.org/Graphics/SVG/1.1/DTD/svg11.dtd">
<svg version="1.1" xmlns="http://www.w3.org/2000/svg" xmlns:xlink="http://www.w3.org/1999/xlink" x="0px" y="0px"
	 width="453.543px" height="453.543px" viewBox="0 0 453.543 453.543" enable-background="new 0 0 453.543 453.543"
	 xml:space="preserve">
<g id="kvadrat">
</g>
<g id="color" display="none">
	<g id="rdeča7bela" display="inline">
	</g>
	<g display="inline">
		<g id="XMLID_6_">
			<g>
				<path fill="#FFDD00" d="M363.043,381.626c0,0-47.18,17.09-134.17,17.83v0.029c-0.71,0-1.4-0.02-2.11-0.029
					c-0.69,0.01-1.39,0.029-2.1,0.029v-0.029c-87-0.74-134.16-16.83-134.16-16.83c10.49-65.83,60.12-136.74,60.12-136.74h152.29
					C302.914,245.886,352.543,315.785,363.043,381.626z"/>
				<path fill="#E20613" d="M302.914,154.246v91.64h-152.29v-91.64c39.12-22.9,13.35-94.461,13.35-94.461l27.67-5.729
					c0,0,24.74,54.4,35.13,54.4c10.4,0,35.12-54.4,35.12-54.4l27.66,5.729C289.554,59.785,263.793,131.346,302.914,154.246z"/>
			</g>
			<g>
				
					<path fill="none" stroke="#000000" stroke-width="8" stroke-linecap="round" stroke-linejoin="round" stroke-miterlimit="10" d="
					M302.914,245.886v-91.64c-39.12-22.9-13.36-94.461-13.36-94.461l-27.66-5.729c0,0-24.72,54.4-35.12,54.4
					c-10.39,0-35.13-54.4-35.13-54.4l-27.67,5.729c0,0,25.77,71.561-13.35,94.461v91.64"/>
				
					<path fill="none" stroke="#000000" stroke-width="8" stroke-linecap="round" stroke-linejoin="round" stroke-miterlimit="10" d="
					M302.914,245.886h-152.29c0,0-49.63,70.91-60.12,136.74c0,0,47.16,16.09,134.16,16.83v0.029c0.71,0,1.41-0.02,2.1-0.029
					c0.71,0.01,1.4,0.029,2.11,0.029v-0.029c86.99-0.74,134.17-17.83,134.17-17.83C352.543,315.785,302.914,245.886,302.914,245.886
					z"/>
			</g>
		</g>
		<path fill="none" stroke="#000000" stroke-width="8" stroke-linecap="round" stroke-linejoin="round" stroke-miterlimit="10" d="
			M158.121,393.716c0,0,9.26-120.912,26.631-147.83"/>
		<path fill="none" stroke="#000000" stroke-width="8" stroke-linecap="round" stroke-linejoin="round" stroke-miterlimit="10" d="
			M192.952,393.716c0,0-0.339-89.012,13.632-147.83"/>
		<path fill="none" stroke="#000000" stroke-width="8" stroke-linecap="round" stroke-linejoin="round" stroke-miterlimit="10" d="
			M291.633,393.716c0,0-3.882-97.517-20.631-147.83"/>
		
			<line fill="none" stroke="#000000" stroke-width="8" stroke-linecap="round" stroke-linejoin="round" stroke-miterlimit="10" x1="226.766" y1="245.886" x2="226.766" y2="399.46"/>
		<path fill="none" stroke="#000000" stroke-width="8" stroke-linecap="round" stroke-linejoin="round" stroke-miterlimit="10" d="
			M248.834,245.886c0,0,9.166,55.955,9,151.574"/>
	</g>
</g>
<g id="cb">
	<g id="rdeča7bela_copy">
	</g>
	<g>
		<g id="XMLID_11_">
			<g>
				
					<path fill="none" stroke="#000000" stroke-width="8" stroke-linecap="round" stroke-linejoin="round" stroke-miterlimit="10" d="
					M302.914,245.886v-91.64c-39.12-22.9-13.36-94.461-13.36-94.461l-27.66-5.729c0,0-24.72,54.4-35.12,54.4
					c-10.39,0-35.13-54.4-35.13-54.4l-27.67,5.729c0,0,25.77,71.561-13.35,94.461v91.64"/>
				
					<path fill="none" stroke="#000000" stroke-width="8" stroke-linecap="round" stroke-linejoin="round" stroke-miterlimit="10" d="
					M302.914,245.886h-152.29c0,0-49.63,70.91-60.12,136.74c0,0,47.16,16.09,134.16,16.83v0.029c0.71,0,1.41-0.02,2.1-0.029
					c0.71,0.01,1.4,0.029,2.11,0.029v-0.029c86.99-0.74,134.17-17.83,134.17-17.83C352.543,315.785,302.914,245.886,302.914,245.886
					z"/>
			</g>
		</g>
		<path fill="none" stroke="#000000" stroke-width="8" stroke-linecap="round" stroke-linejoin="round" stroke-miterlimit="10" d="
			M158.121,393.716c0,0,9.26-120.912,26.631-147.83"/>
		<path fill="none" stroke="#000000" stroke-width="8" stroke-linecap="round" stroke-linejoin="round" stroke-miterlimit="10" d="
			M192.952,393.716c0,0-0.339-89.012,13.632-147.83"/>
		<path fill="none" stroke="#000000" stroke-width="8" stroke-linecap="round" stroke-linejoin="round" stroke-miterlimit="10" d="
			M291.633,393.716c0,0-3.882-97.517-20.631-147.83"/>
		
			<line fill="none" stroke="#000000" stroke-width="8" stroke-linecap="round" stroke-linejoin="round" stroke-miterlimit="10" x1="226.766" y1="245.886" x2="226.766" y2="399.46"/>
		<path fill="none" stroke="#000000" stroke-width="8" stroke-linecap="round" stroke-linejoin="round" stroke-miterlimit="10" d="
			M248.834,245.886c0,0,9.166,55.955,9,151.574"/>
	</g>
</g>
<g id="pivot">
	<circle fill="none" cx="232.956" cy="391.772" r="14.133"/>
</g>
</svg>
