<?xml version="1.0" encoding="utf-8"?>
<!-- Generator: Adobe Illustrator 16.0.0, SVG Export Plug-In . SVG Version: 6.00 Build 0)  -->
<!DOCTYPE svg PUBLIC "-//W3C//DTD SVG 1.1//EN" "http://www.w3.org/Graphics/SVG/1.1/DTD/svg11.dtd">
<svg version="1.1" xmlns="http://www.w3.org/2000/svg" xmlns:xlink="http://www.w3.org/1999/xlink" x="0px" y="0px"
	 width="453.543px" height="453.543px" viewBox="0 0 453.543 453.543" enable-background="new 0 0 453.543 453.543"
	 xml:space="preserve">
<g id="kvadrat">
</g>
<g id="color" display="none">
	<g display="inline">
		<g id="XMLID_3_">
			<g>
				<path fill="#FFDD00" d="M363.042,381.626c0,0-47.18,17.091-134.17,17.83v0.031c-0.71,0-1.4-0.02-2.11-0.031
					c-0.69,0.01-1.39,0.031-2.1,0.031v-0.031c-87-0.74-134.16-16.83-134.16-16.83c10.49-65.829,60.12-136.74,60.12-136.74h152.29
					C302.912,245.886,352.542,315.787,363.042,381.626z"/>
				<path fill="#E20613" d="M302.912,154.247v91.64h-152.29v-91.64c39.12-22.9,13.35-94.46,13.35-94.46l27.67-5.73
					c0,0,24.74,54.4,35.13,54.4c10.4,0,35.12-54.4,35.12-54.4l27.66,5.73C289.552,59.787,263.792,131.347,302.912,154.247z"/>
			</g>
			<g>
				
					<path fill="none" stroke="#000000" stroke-width="8" stroke-linecap="round" stroke-linejoin="round" stroke-miterlimit="10" d="
					M302.912,245.886v-91.64c-39.12-22.9-13.36-94.46-13.36-94.46l-27.66-5.73c0,0-24.72,54.4-35.12,54.4
					c-10.39,0-35.13-54.4-35.13-54.4l-27.67,5.73c0,0,25.77,71.56-13.35,94.46v91.64"/>
				
					<path fill="none" stroke="#000000" stroke-width="8" stroke-linecap="round" stroke-linejoin="round" stroke-miterlimit="10" d="
					M302.912,245.886h-152.29c0,0-49.63,70.911-60.12,136.74c0,0,47.16,16.091,134.16,16.83v0.031c0.71,0,1.41-0.02,2.1-0.031
					c0.71,0.01,1.4,0.031,2.11,0.031v-0.031c86.99-0.74,134.17-17.83,134.17-17.83C352.542,315.787,302.912,245.886,302.912,245.886
					z"/>
			</g>
		</g>
		<path fill="none" stroke="#000000" stroke-width="8" stroke-linecap="round" stroke-linejoin="round" stroke-miterlimit="10" d="
			M158.121,393.717c0,0,9.26-120.912,26.631-147.83"/>
		<path fill="none" stroke="#000000" stroke-width="8" stroke-linecap="round" stroke-linejoin="round" stroke-miterlimit="10" d="
			M297.632,393.717c0,0-9.26-120.912-26.631-147.83"/>
		
			<line fill="none" stroke="#000000" stroke-width="8" stroke-linecap="round" stroke-linejoin="round" stroke-miterlimit="10" x1="226.765" y1="245.886" x2="226.765" y2="399.461"/>
	</g>
	<g id="rdeča7bela" display="inline">
	</g>
</g>
<g id="cb">
	<g id="XMLID_16_">
		<g>
			<path d="M306.912,249.886h-8v-93.415c-33.643-22.072-19.542-77.548-14.56-93.677l-20.168-4.178
				c-2.243,4.77-7.029,14.717-12.447,24.568c-14.187,25.794-20.581,29.272-24.965,29.272c-4.38,0-10.772-3.478-24.966-29.271
				c-5.421-9.852-10.211-19.8-12.455-24.569l-20.178,4.178c4.983,16.129,19.092,71.605-14.551,93.677v93.415h-8v-95.64
				c0-1.42,0.753-2.734,1.979-3.452c35.788-20.95,11.853-88.969,11.607-89.654c-0.392-1.091-0.292-2.298,0.274-3.309
				c0.567-1.011,1.543-1.728,2.678-1.962l27.67-5.73c1.827-0.379,3.678,0.56,4.452,2.261c0.059,0.129,5.944,13.039,13.047,26.043
				c12.456,22.806,17.585,25.649,18.442,25.982c0.858-0.333,5.993-3.175,18.458-26.015c7.097-13.004,12.962-25.881,13.021-26.009
				c0.773-1.702,2.623-2.642,4.453-2.262l27.66,5.73c1.134,0.234,2.111,0.951,2.677,1.961c0.567,1.011,0.667,2.218,0.275,3.308
				c-0.246,0.685-24.172,68.705,11.616,89.655c1.226,0.718,1.979,2.032,1.979,3.452V249.886z"/>
			<path d="M228.872,403.487c-0.497,0-0.984-0.009-1.475-0.018l-0.634-0.011l-0.602,0.011c-0.671,0.013-1.368,0.072-2.027-0.016
				c-86.335-0.792-132.977-16.375-134.924-17.04c-1.843-0.629-2.965-2.492-2.659-4.415c10.514-65.981,58.745-135.478,60.793-138.404
				c0.748-1.069,1.972-1.706,3.277-1.706h152.29c1.296,0,2.511,0.628,3.262,1.684c2.048,2.885,50.292,71.421,60.818,137.426
				c0.302,1.895-0.784,3.737-2.588,4.391c-1.949,0.706-48.645,17.269-135.009,18.065
				C229.225,403.475,229.049,403.487,228.872,403.487z M95.033,379.832c12.007,3.487,57.04,15.007,129.664,15.625
				c0.147,0.001,0.292,0.01,0.435,0.027c0.294-0.003,0.586-0.009,0.877-0.015l0.696-0.012c0.039-0.001,0.077-0.001,0.115,0
				l0.731,0.013c0.285,0.005,0.568,0.011,0.854,0.014c0.143-0.017,0.288-0.026,0.435-0.027
				c72.863-0.62,117.82-12.887,129.684-16.561c-10.346-57.613-50.347-118.223-57.708-129.009H152.737
				C145.379,260.819,105.385,322.233,95.033,379.832z"/>
		</g>
	</g>
	<path d="M158.125,397.717c-0.103,0-0.206-0.004-0.31-0.012c-2.203-0.169-3.852-2.091-3.683-4.294
		c0.381-4.978,9.541-122.239,27.258-149.694c1.198-1.856,3.673-2.39,5.53-1.192c1.856,1.198,2.39,3.674,1.192,5.53
		c-16.626,25.763-25.912,144.768-26.003,145.967C161.948,396.121,160.195,397.717,158.125,397.717z"/>
	<path d="M297.628,397.717c-2.07,0-3.823-1.596-3.984-3.695c-0.092-1.199-9.377-120.203-26.003-145.967
		c-1.198-1.856-0.664-4.332,1.192-5.53c1.856-1.198,4.332-0.664,5.53,1.192c17.717,27.455,26.877,144.716,27.258,149.694
		c0.169,2.203-1.48,4.125-3.683,4.294C297.834,397.713,297.73,397.717,297.628,397.717z"/>
	<path d="M226.765,403.461c-2.209,0-4-1.791-4-4V245.886c0-2.209,1.791-4,4-4s4,1.791,4,4v153.574
		C230.765,401.67,228.974,403.461,226.765,403.461z"/>
	<g id="rdeča7bela_copy">
	</g>
</g>
<g id="pivot">
	<circle fill="none" cx="221.715" cy="398.414" r="14.133"/>
</g>
</svg>
