<?xml version="1.0" encoding="utf-8"?>
<!-- Generator: Adobe Illustrator 16.0.0, SVG Export Plug-In . SVG Version: 6.00 Build 0)  -->
<!DOCTYPE svg PUBLIC "-//W3C//DTD SVG 1.1//EN" "http://www.w3.org/Graphics/SVG/1.1/DTD/svg11.dtd">
<svg version="1.1" xmlns="http://www.w3.org/2000/svg" xmlns:xlink="http://www.w3.org/1999/xlink" x="0px" y="0px"
	 width="453.544px" height="453.543px" viewBox="0 0 453.544 453.543" enable-background="new 0 0 453.544 453.543"
	 xml:space="preserve">
<g id="kvadrat" display="none">
</g>
<g id="color" display="none">
	<g id="rdeča7bela" display="inline">
	</g>
	<g display="inline">
		
			<path fill="#422918" stroke="#000000" stroke-width="8" stroke-linecap="round" stroke-linejoin="round" stroke-miterlimit="10" d="
			M394.904,201.901v50.994c-24.42-25.636-92.957-42.241-168.054-42.241c-75.11,0-143.645,16.596-168.057,42.241v-50.994
			c0-28.181,71.105-55.177,168.057-55.177C323.811,146.724,394.904,173.715,394.904,201.901z"/>
		
			<path fill="#B17F49" stroke="#000000" stroke-width="8" stroke-linecap="round" stroke-linejoin="round" stroke-miterlimit="10" d="
			M283.032,270.451l15.887,30.324c57.845-9.308,95.485-29.182,95.485-49.684v-50.994c-16.155,16.971-51.634,29.977-95.553,36.834
			L283.032,270.451z"/>
		
			<path fill="#B17F49" stroke="#000000" stroke-width="8" stroke-linecap="round" stroke-linejoin="round" stroke-miterlimit="10" d="
			M200.207,241.819c-63.736-1.479-120.642-17.348-141.567-41.222v49.901c0,26.544,59.29,52,141.567,53.881V241.819z"/>
		
			<rect x="176.419" y="237.291" fill="none" stroke="#000000" stroke-width="8" stroke-linecap="round" stroke-linejoin="round" stroke-miterlimit="10" width="62.981" height="69.528"/>
		
			<rect x="176.419" y="237.291" fill="none" stroke="#000000" stroke-width="12" stroke-linecap="round" stroke-linejoin="round" stroke-miterlimit="10" width="62.981" height="69.528"/>
		<g>
			<g>
				<g>
					<path d="M318.504,266.568c0.7,2.822-1.059,5.706-3.954,6.365c-2.892,0.666-5.761-1.149-6.335-4.01
						c-0.573-2.855,1.185-5.636,3.975-6.279C314.978,262.01,317.8,263.732,318.504,266.568z"/>
					<path d="M344.745,258.902c0.98,2.755-0.528,5.798-3.377,6.705c-2.841,0.948-5.836-0.674-6.663-3.449
						c-0.839-2.811,0.725-5.693,3.414-6.593C340.825,254.703,343.771,256.165,344.745,258.902z"/>
					<path d="M369.208,246.938c0.926,1.125,1.268,2.506,0.982,3.893c-0.278,1.349-1.182,2.849-2.563,3.594
						c-1.379,0.795-2.913,1.067-4.25,0.659c-1.342-0.396-2.475-1.305-3.133-2.606c-0.656-1.301-0.732-2.738-0.365-3.987
						c0.379-1.248,1.07-2.405,2.22-3.058c1.195-0.634,2.318-0.855,3.618-0.577C366.981,245.124,368.282,245.813,369.208,246.938z"/>
				</g>
			</g>
		</g>
		
			<line fill="none" stroke="#000000" stroke-width="10" stroke-linecap="round" stroke-linejoin="round" stroke-miterlimit="10" x1="214.904" y1="271.072" x2="177.244" y2="271.072"/>
	</g>
</g>
<g id="cb">
	<g id="rdeča7bela_copy">
	</g>
	<g>
		<g>
			<path fill="none" stroke="#000000" stroke-width="8" stroke-linecap="round" stroke-linejoin="round" stroke-miterlimit="10" d="
				M345.132,226.418c22.052-6.932,39.327-15.874,49.272-26.321v50.994c0,0.409-0.04,0.817-0.07,1.226"/>
			<path fill="none" stroke="#000000" stroke-width="8" stroke-linecap="round" stroke-linejoin="round" stroke-miterlimit="10" d="
				M345.132,226.418c-13.77,4.329-29.397,7.877-46.28,10.513l-15.819,33.519l15.887,30.324c56.691-9.123,93.95-28.394,95.415-48.459
				"/>
			<path fill="none" stroke="#000000" stroke-width="8" stroke-linecap="round" stroke-linejoin="round" stroke-miterlimit="10" d="
				M58.837,200.809c1.808-27.782,72.316-54.085,168.014-54.085c96.96,0,168.054,26.991,168.054,55.177v50.994
				c-0.185-0.194-0.38-0.386-0.57-0.579"/>
			<path fill="none" stroke="#000000" stroke-width="8" stroke-linecap="round" stroke-linejoin="round" stroke-miterlimit="10" d="
				M345.132,226.418c-32.018-9.991-74.008-15.764-118.281-15.764c-45.553,0-88.683,6.106-121.022,16.63"/>
			<path fill="none" stroke="#000000" stroke-width="8" stroke-linecap="round" stroke-linejoin="round" stroke-miterlimit="10" d="
				M58.794,252.807v-50.906c0-0.364,0.02-0.728,0.043-1.092"/>
			
				<polyline fill="none" stroke="#000000" stroke-width="8" stroke-linecap="round" stroke-linejoin="round" stroke-miterlimit="10" points="
				58.794,252.807 58.794,252.896 58.802,252.887 			"/>
			<path fill="none" stroke="#000000" stroke-width="8" stroke-linecap="round" stroke-linejoin="round" stroke-miterlimit="10" d="
				M105.828,227.284c26.116,8.51,59.199,13.718,94.379,14.535v62.56c-79.806-1.824-137.981-25.829-141.405-51.492"/>
			<path fill="none" stroke="#000000" stroke-width="8" stroke-linecap="round" stroke-linejoin="round" stroke-miterlimit="10" d="
				M58.837,200.809c9.408,10.604,25.934,19.613,46.991,26.476"/>
			<path fill="none" stroke="#000000" stroke-width="8" stroke-linecap="round" stroke-linejoin="round" stroke-miterlimit="10" d="
				M58.837,200.809c-0.063-0.071-0.135-0.141-0.197-0.212v49.901c0,0.771,0.055,1.541,0.154,2.309"/>
			<path fill="none" stroke="#000000" stroke-width="8" stroke-linecap="round" stroke-linejoin="round" stroke-miterlimit="10" d="
				M58.794,252.807c0.004,0.026,0.005,0.053,0.008,0.08"/>
		</g>
		
			<rect x="176.419" y="237.291" fill="none" stroke="#000000" stroke-width="8" stroke-linecap="round" stroke-linejoin="round" stroke-miterlimit="10" width="62.981" height="69.528"/>
		
			<rect x="176.419" y="237.291" fill="none" stroke="#000000" stroke-width="12" stroke-linecap="round" stroke-linejoin="round" stroke-miterlimit="10" width="62.981" height="69.528"/>
		<g>
			<g>
				<g>
					<path d="M318.504,266.568c0.7,2.822-1.059,5.706-3.954,6.365c-2.892,0.666-5.761-1.149-6.335-4.01
						c-0.573-2.855,1.185-5.636,3.975-6.279C314.978,262.01,317.8,263.732,318.504,266.568z"/>
					<path d="M344.745,258.902c0.98,2.755-0.528,5.797-3.377,6.705c-2.841,0.948-5.836-0.674-6.663-3.45
						c-0.839-2.81,0.725-5.693,3.414-6.593C340.825,254.703,343.771,256.165,344.745,258.902z"/>
					<path d="M369.208,246.938c0.926,1.125,1.268,2.506,0.982,3.892c-0.278,1.35-1.182,2.85-2.563,3.594
						c-1.379,0.795-2.913,1.067-4.25,0.659c-1.342-0.396-2.475-1.305-3.133-2.606c-0.656-1.3-0.732-2.738-0.365-3.987
						c0.379-1.248,1.07-2.405,2.22-3.058c1.196-0.634,2.318-0.855,3.618-0.577C366.981,245.124,368.282,245.813,369.208,246.938z"/>
				</g>
			</g>
		</g>
		
			<line fill="none" stroke="#000000" stroke-width="10" stroke-linecap="round" stroke-linejoin="round" stroke-miterlimit="10" x1="214.904" y1="271.072" x2="177.244" y2="271.072"/>
	</g>
</g>
<g id="pivot">
	<circle fill="none" cx="232.167" cy="310.16" r="14.133"/>
</g>
</svg>
