<?xml version="1.0" encoding="utf-8"?>
<!-- Generator: Adobe Illustrator 16.0.0, SVG Export Plug-In . SVG Version: 6.00 Build 0)  -->
<!DOCTYPE svg PUBLIC "-//W3C//DTD SVG 1.1//EN" "http://www.w3.org/Graphics/SVG/1.1/DTD/svg11.dtd">
<svg version="1.1" xmlns="http://www.w3.org/2000/svg" xmlns:xlink="http://www.w3.org/1999/xlink" x="0px" y="0px"
	 width="453.544px" height="453.543px" viewBox="0 0 453.544 453.543" enable-background="new 0 0 453.544 453.543"
	 xml:space="preserve">
<g id="kvadrat" display="none">
</g>
<g id="color" display="none">
	<g display="inline">
		
			<path fill="#FFFFFF" stroke="#000000" stroke-width="8" stroke-linecap="round" stroke-linejoin="round" stroke-miterlimit="10" d="
			M72.502,184.858c70.438,5.853,117.154,68.75,128.781,127.046c5.098,0.424,44.178,0.296,48.451,0
			c11.682-59.083,59.668-122.265,131.346-127.236c0.029-0.151,0.055-0.303,0.084-0.454v-42.846H72.381v42.846
			C72.424,184.427,72.459,184.644,72.502,184.858z"/>
	</g>
	<g id="rdeča7bela" display="inline">
	</g>
</g>
<g id="cb">
	<g>
		<path fill="none" stroke="#000000" stroke-width="8" stroke-linecap="round" stroke-linejoin="round" stroke-miterlimit="10" d="
			M72.502,184.858c70.438,5.853,117.154,68.75,128.781,127.046c5.098,0.424,44.178,0.296,48.451,0
			c11.682-59.083,59.668-122.265,131.346-127.236c0.029-0.151,0.055-0.303,0.084-0.454v-42.846H72.381v42.846
			C72.424,184.427,72.459,184.644,72.502,184.858z"/>
	</g>
	<g id="rdeča7bela_copy">
	</g>
</g>
<g id="pivot">
	<circle fill="none" cx="224.103" cy="313.054" r="14.133"/>
</g>
</svg>
