<?xml version="1.0" encoding="utf-8"?>
<!-- Generator: Adobe Illustrator 16.0.0, SVG Export Plug-In . SVG Version: 6.00 Build 0)  -->
<!DOCTYPE svg PUBLIC "-//W3C//DTD SVG 1.1//EN" "http://www.w3.org/Graphics/SVG/1.1/DTD/svg11.dtd">
<svg version="1.1" xmlns="http://www.w3.org/2000/svg" xmlns:xlink="http://www.w3.org/1999/xlink" x="0px" y="0px" width="600px"
	 height="600px" viewBox="0 0 600 600" enable-background="new 0 0 600 600" xml:space="preserve">
<g id="gb">
</g>
<g id="_x31_-1">
</g>
<g id="_x31_-2">
</g>
<g id="_x31_-3">
</g>
<g id="_x32_-1">
</g>
<g id="_x32_-2">
</g>
<g id="_x32_-3">
</g>
<g id="_x33_-1">
</g>
<g id="_x33_-2">
</g>
<g id="_x33_-3">
</g>
<g id="opis">
</g>
<g id="polje">
	<path stroke="#000000" stroke-width="2" stroke-miterlimit="10" d="M600,400h-85c6.07-4.561,9.998-11.821,9.998-20
		c0-13.808-11.191-25-24.994-25c-13.809,0-24.998,11.193-24.998,25c0,8.178,3.926,15.438,9.998,20h-85.005v85.003
		c4.563-6.071,11.822-9.998,20-9.998c13.807,0,25.001,11.19,25.001,24.999c0,13.803-11.194,24.994-25.001,24.994
		c-8.178,0-15.438-3.927-20-9.997V600H600V400z"/>
</g>
</svg>
