<?xml version="1.0" encoding="utf-8"?>
<!-- Generator: Adobe Illustrator 16.0.0, SVG Export Plug-In . SVG Version: 6.00 Build 0)  -->
<!DOCTYPE svg PUBLIC "-//W3C//DTD SVG 1.1//EN" "http://www.w3.org/Graphics/SVG/1.1/DTD/svg11.dtd">
<svg version="1.1" xmlns="http://www.w3.org/2000/svg" xmlns:xlink="http://www.w3.org/1999/xlink" x="0px" y="0px" width="220px"
	 height="220px" viewBox="0 0 220 220" enable-background="new 0 0 220 220" xml:space="preserve">
<g id="bg" display="none">
</g>
<g id="Layer_3">
</g>
<g id="Layer_1">
	<g>
		<defs>
			<rect id="SVGID_29_" x="-3390.076" y="-3000" width="220" height="220"/>
		</defs>
		<clipPath id="SVGID_2_">
			<use xlink:href="#SVGID_29_"  overflow="visible"/>
		</clipPath>
	</g>
	<g>
		<defs>
			<rect id="SVGID_31_" x="-2190.076" y="-3000" width="220" height="220"/>
		</defs>
		<clipPath id="SVGID_4_">
			<use xlink:href="#SVGID_31_"  overflow="visible"/>
		</clipPath>
	</g>
	<g>
		<defs>
			<rect id="SVGID_33_" x="-1590.076" y="-3000" width="220" height="220"/>
		</defs>
		<clipPath id="SVGID_6_">
			<use xlink:href="#SVGID_33_"  overflow="visible"/>
		</clipPath>
	</g>
	<g>
		<defs>
			<rect id="SVGID_35_" x="-1890.076" y="-3000" width="220" height="220"/>
		</defs>
		<clipPath id="SVGID_8_">
			<use xlink:href="#SVGID_35_"  overflow="visible"/>
		</clipPath>
	</g>
	<g>
		<defs>
			<rect id="SVGID_37_" x="-3090.076" y="-3000" width="220" height="220"/>
		</defs>
		<clipPath id="SVGID_10_">
			<use xlink:href="#SVGID_37_"  overflow="visible"/>
		</clipPath>
	</g>
	<g>
		<defs>
			<rect id="SVGID_39_" x="-2490.076" y="-3000" width="220" height="220"/>
		</defs>
		<clipPath id="SVGID_12_">
			<use xlink:href="#SVGID_39_"  overflow="visible"/>
		</clipPath>
	</g>
	<g>
		<defs>
			<rect id="SVGID_411_" y="-3000" width="220" height="220"/>
		</defs>
		<clipPath id="SVGID_14_">
			<use xlink:href="#SVGID_411_"  overflow="visible"/>
		</clipPath>
	</g>
	<g>
		<defs>
			<rect id="SVGID_747_" width="220" height="220"/>
		</defs>
		<clipPath id="SVGID_16_">
			<use xlink:href="#SVGID_747_"  overflow="visible"/>
		</clipPath>
		<rect clip-path="url(#SVGID_16_)" width="220" height="220"/>
		<circle clip-path="url(#SVGID_16_)" fill="#969696" cx="220" cy="33.329" r="21.688"/>
		<circle clip-path="url(#SVGID_16_)" fill="#969696" cx="0" cy="33.329" r="21.688"/>
		<polygon clip-path="url(#SVGID_16_)" fill="#D6D6D6" points="146.667,13.422 135.173,33.33 123.679,53.237 146.667,53.237 
			169.654,53.237 158.16,33.33 		"/>
		<rect x="52.536" y="12.531" clip-path="url(#SVGID_16_)" fill="#464646" width="41.596" height="41.596"/>
		<polygon clip-path="url(#SVGID_16_)" fill="#D6D6D6" points="220,90.093 208.506,110 197.013,129.907 220,129.907 
			242.987,129.907 231.494,110 		"/>
		<polygon clip-path="url(#SVGID_16_)" fill="#D6D6D6" points="0,90.093 -11.494,110 -22.987,129.907 0,129.907 22.987,129.907 
			11.494,110 		"/>
		<polygon clip-path="url(#SVGID_16_)" fill="#D6D6D6" points="73.333,166.837 61.84,186.745 50.346,206.652 73.333,206.652 
			96.321,206.652 84.827,186.745 		"/>
		<rect x="125.869" y="89.202" clip-path="url(#SVGID_16_)" fill="#464646" width="41.596" height="41.596"/>
		<rect x="199.202" y="166.837" clip-path="url(#SVGID_16_)" fill="#464646" width="41.596" height="41.597"/>
		<rect x="-20.798" y="166.837" clip-path="url(#SVGID_16_)" fill="#464646" width="41.596" height="41.597"/>
		<circle clip-path="url(#SVGID_16_)" fill="#969696" cx="73.333" cy="110" r="21.688"/>
		<circle clip-path="url(#SVGID_16_)" fill="#969696" cx="146.667" cy="184.964" r="21.688"/>
		<rect clip-path="url(#SVGID_16_)" fill="none" width="220" height="220"/>
	</g>
</g>
</svg>
