<?xml version="1.0" encoding="utf-8"?>
<!-- Generator: Adobe Illustrator 16.0.0, SVG Export Plug-In . SVG Version: 6.00 Build 0)  -->
<!DOCTYPE svg PUBLIC "-//W3C//DTD SVG 1.1//EN" "http://www.w3.org/Graphics/SVG/1.1/DTD/svg11.dtd">
<svg version="1.1" xmlns="http://www.w3.org/2000/svg" xmlns:xlink="http://www.w3.org/1999/xlink" x="0px" y="0px" width="220px"
	 height="220px" viewBox="0 0 220 220" enable-background="new 0 0 220 220" xml:space="preserve">
<g id="bg" display="none">
</g>
<g id="Layer_3">
</g>
<g id="Layer_1">
	<g>
		<defs>
			<rect id="SVGID_29_" x="-3990.076" y="-3000" width="220" height="220"/>
		</defs>
		<clipPath id="SVGID_2_">
			<use xlink:href="#SVGID_29_"  overflow="visible"/>
		</clipPath>
	</g>
	<g>
		<defs>
			<rect id="SVGID_31_" x="-2790.076" y="-3000" width="220" height="220"/>
		</defs>
		<clipPath id="SVGID_4_">
			<use xlink:href="#SVGID_31_"  overflow="visible"/>
		</clipPath>
	</g>
	<g>
		<defs>
			<rect id="SVGID_33_" x="-2190.076" y="-3000" width="220" height="220"/>
		</defs>
		<clipPath id="SVGID_6_">
			<use xlink:href="#SVGID_33_"  overflow="visible"/>
		</clipPath>
	</g>
	<g>
		<defs>
			<rect id="SVGID_35_" x="-2490.076" y="-3000" width="220" height="220"/>
		</defs>
		<clipPath id="SVGID_8_">
			<use xlink:href="#SVGID_35_"  overflow="visible"/>
		</clipPath>
	</g>
	<g>
		<defs>
			<rect id="SVGID_37_" x="-3690.076" y="-3000" width="220" height="220"/>
		</defs>
		<clipPath id="SVGID_10_">
			<use xlink:href="#SVGID_37_"  overflow="visible"/>
		</clipPath>
	</g>
	<g>
		<defs>
			<rect id="SVGID_39_" x="-3090.076" y="-3000" width="220" height="220"/>
		</defs>
		<clipPath id="SVGID_12_">
			<use xlink:href="#SVGID_39_"  overflow="visible"/>
		</clipPath>
	</g>
	<g>
		<defs>
			<rect id="SVGID_411_" x="-600" y="-3000" width="220" height="220"/>
		</defs>
		<clipPath id="SVGID_14_">
			<use xlink:href="#SVGID_411_"  overflow="visible"/>
		</clipPath>
	</g>
	<g>
		<defs>
			<rect id="SVGID_419_" x="-300" y="-3000" width="220" height="220"/>
		</defs>
		<clipPath id="SVGID_16_">
			<use xlink:href="#SVGID_419_"  overflow="visible"/>
		</clipPath>
	</g>
	<g>
		<defs>
			<rect id="SVGID_751_" width="220" height="220"/>
		</defs>
		<clipPath id="SVGID_18_">
			<use xlink:href="#SVGID_751_"  overflow="visible"/>
		</clipPath>
		<rect x="0" clip-path="url(#SVGID_18_)" width="220" height="220"/>
		<circle clip-path="url(#SVGID_18_)" fill="#969696" cx="0" cy="33.329" r="21.688"/>
		<circle clip-path="url(#SVGID_18_)" fill="#969696" cx="220" cy="33.329" r="21.688"/>
		<polygon clip-path="url(#SVGID_18_)" fill="#D6D6D6" points="73.334,13.422 84.828,33.33 96.321,53.237 73.334,53.237 
			50.347,53.237 61.84,33.33 		"/>
		<polygon clip-path="url(#SVGID_18_)" fill="#D6D6D6" points="73.334,13.422 84.828,33.33 96.321,53.237 73.334,53.237 
			50.347,53.237 61.84,33.33 		"/>
		<polygon clip-path="url(#SVGID_18_)" fill="#4F4F4F" points="73.334,32.357 76.781,38.33 80.23,44.302 73.334,44.302 
			66.438,44.302 69.885,38.33 		"/>
		<rect x="125.869" y="12.531" clip-path="url(#SVGID_18_)" fill="#464646" width="41.596" height="41.596"/>
		<rect x="-20.797" y="166.837" clip-path="url(#SVGID_18_)" fill="#464646" width="41.596" height="41.597"/>
		<rect x="199.203" y="166.837" clip-path="url(#SVGID_18_)" fill="#464646" width="41.596" height="41.597"/>
		<circle clip-path="url(#SVGID_18_)" fill="#969696" cx="146.667" cy="110" r="21.688"/>
		<circle clip-path="url(#SVGID_18_)" fill="#969696" cx="146.667" cy="110" r="21.688"/>
		<circle clip-path="url(#SVGID_18_)" fill="#4F4F4F" cx="146.667" cy="110" r="6.506"/>
		<circle clip-path="url(#SVGID_18_)" fill="#4F4F4F" cx="220" cy="33.33" r="6.506"/>
		<circle clip-path="url(#SVGID_18_)" fill="#4F4F4F" cx="0" cy="33.33" r="6.506"/>
		<circle clip-path="url(#SVGID_18_)" fill="#969696" cx="73.334" cy="184.964" r="21.688"/>
		<rect x="52.536" y="89.202" clip-path="url(#SVGID_18_)" fill="#464646" width="41.596" height="41.596"/>
		<rect x="52.536" y="89.202" clip-path="url(#SVGID_18_)" fill="#464646" width="41.596" height="41.596"/>
		<rect x="67.094" y="103.761" clip-path="url(#SVGID_18_)" fill="#4F4F4F" width="12.479" height="12.479"/>
		<rect x="140.427" y="27.09" clip-path="url(#SVGID_18_)" fill="#4F4F4F" width="12.479" height="12.479"/>
		<rect x="-6.239" y="181.396" clip-path="url(#SVGID_18_)" fill="#4F4F4F" width="12.479" height="12.479"/>
		<rect x="213.761" y="181.396" clip-path="url(#SVGID_18_)" fill="#4F4F4F" width="12.479" height="12.479"/>
		<circle clip-path="url(#SVGID_18_)" fill="#4F4F4F" cx="73.334" cy="184.964" r="6.506"/>
		<polygon clip-path="url(#SVGID_18_)" fill="#D6D6D6" points="0,90.093 11.494,110 22.987,129.907 0,129.907 -22.987,129.907 
			-11.493,110 		"/>
		<polygon clip-path="url(#SVGID_18_)" fill="#4F4F4F" points="0,109.027 3.448,115 6.896,120.972 0,120.972 -6.896,120.972 
			-3.448,115 		"/>
		<polygon clip-path="url(#SVGID_18_)" fill="#D6D6D6" points="220,90.093 231.494,110 242.987,129.907 220,129.907 
			197.013,129.907 208.507,110 		"/>
		<polygon clip-path="url(#SVGID_18_)" fill="#4F4F4F" points="220,109.027 223.448,115 226.896,120.972 220,120.972 
			213.104,120.972 216.552,115 		"/>
		<g clip-path="url(#SVGID_18_)">
			<polygon fill="#D6D6D6" points="146.667,166.837 158.161,186.745 169.654,206.652 146.667,206.652 123.68,206.652 
				135.173,186.745 			"/>
			<polygon fill="#4F4F4F" points="146.667,185.772 150.115,191.745 153.563,197.717 146.667,197.717 139.771,197.717 
				143.218,191.745 			"/>
		</g>
		<rect x="0" clip-path="url(#SVGID_18_)" fill="none" width="220" height="220"/>
	</g>
</g>
</svg>
