<?xml version="1.0" encoding="utf-8"?>
<!-- Generator: Adobe Illustrator 16.0.0, SVG Export Plug-In . SVG Version: 6.00 Build 0)  -->
<!DOCTYPE svg PUBLIC "-//W3C//DTD SVG 1.1//EN" "http://www.w3.org/Graphics/SVG/1.1/DTD/svg11.dtd">
<svg version="1.1" id="Layer_1" xmlns="http://www.w3.org/2000/svg" xmlns:xlink="http://www.w3.org/1999/xlink" x="0px" y="0px"
	 width="405.688px" height="228.211px" viewBox="0 0 405.688 228.211" enable-background="new 0 0 405.688 228.211"
	 xml:space="preserve">
<g id="Layer_2">
	<rect x="-0.22" fill="#35BCAD" width="406.13" height="228.211"/>
</g>
<path fill="#FFFFFF" d="M10.385,10.466c0-1.122,0.403-2.082,1.212-2.893c0.808-0.808,1.772-1.212,2.893-1.212
	c1.242,0,2.237,0.404,2.983,1.212c0.747,0.81,1.12,1.771,1.12,2.893c0,1.244-0.372,2.269-1.12,3.077
	c-0.746,0.811-1.743,1.213-2.983,1.213c-1.121,0-2.084-0.402-2.893-1.213C10.787,12.734,10.385,11.708,10.385,10.466z"/>
<path fill="#FFFFFF" d="M10.385,61.951c0-1.243,0.403-2.269,1.212-3.078c0.808-0.808,1.772-1.212,2.893-1.212
	c1.242,0,2.237,0.404,2.983,1.212c0.747,0.81,1.12,1.836,1.12,3.078c0,1.119-0.372,2.083-1.12,2.89
	c-0.746,0.811-1.743,1.214-2.983,1.214c-1.121,0-2.084-0.403-2.893-1.214C10.787,64.035,10.385,63.07,10.385,61.951z"/>
<path fill="#FFFFFF" d="M10.385,113.299c0-1.242,0.403-2.269,1.212-3.078c0.808-0.809,1.772-1.212,2.893-1.212
	c1.242,0,2.237,0.406,2.983,1.212c0.747,0.809,1.12,1.838,1.12,3.078c0,1.119-0.372,2.084-1.12,2.891
	c-0.746,0.812-1.743,1.214-2.983,1.214c-1.121,0-2.084-0.402-2.893-1.214C10.787,115.382,10.385,114.418,10.385,113.299z"/>
<path fill="#FFFFFF" d="M52.31,10.466c0-4.105,1.462-7.618,4.384-10.541c2.922-2.92,6.497-4.383,10.728-4.383
	c4.105,0,7.616,1.464,10.54,4.383c2.922,2.924,4.383,6.436,4.383,10.541c0,4.229-1.462,7.807-4.383,10.725
	c-2.924,2.923-6.435,4.383-10.54,4.383c-4.229,0-7.806-1.46-10.728-4.383C53.772,18.27,52.31,14.693,52.31,10.466z"/>
<path fill="#FFFFFF" d="M52.31,113.3c0-4.227,1.462-7.804,4.384-10.727c2.922-2.922,6.497-4.383,10.728-4.383
	c4.105,0,7.616,1.463,10.54,4.383c2.922,2.924,4.383,6.5,4.383,10.727c0,4.104-1.462,7.619-4.383,10.538
	c-2.924,2.925-6.435,4.384-10.54,4.384c-4.229,0-7.806-1.462-10.728-4.384C53.772,120.917,52.31,117.403,52.31,113.3z"/>
<path fill="#FFFFFF" d="M63.13,61.951c0-1.243,0.402-2.269,1.212-3.078c0.807-0.808,1.833-1.212,3.078-1.212
	c1.119,0,2.081,0.404,2.892,1.212c0.809,0.81,1.212,1.836,1.212,3.078c0,1.119-0.403,2.083-1.212,2.89
	c-0.81,0.811-1.771,1.214-2.89,1.214c-1.245,0-2.271-0.403-3.079-1.214C63.533,64.035,63.13,63.07,63.13,61.951z"/>
<path fill="#FFFFFF" d="M113.816,10.466c0-4.105,1.459-7.618,4.383-10.541c2.921-2.92,6.435-4.383,10.54-4.383
	c4.227,0,7.801,1.464,10.727,4.383c2.92,2.924,4.384,6.436,4.384,10.541c0,4.229-1.465,7.807-4.384,10.725
	c-2.926,2.923-6.5,4.383-10.727,4.383c-4.105,0-7.619-1.46-10.54-4.383C115.275,18.27,113.816,14.693,113.816,10.466z"/>
<path fill="#FFFFFF" d="M113.816,61.953c0-4.227,1.459-7.804,4.383-10.727c2.921-2.921,6.435-4.383,10.54-4.383
	c4.227,0,7.801,1.464,10.727,4.383c2.92,2.924,4.384,6.5,4.384,10.727c0,4.104-1.465,7.619-4.384,10.539
	c-2.926,2.922-6.5,4.382-10.727,4.382c-4.105,0-7.619-1.46-10.54-4.382C115.275,69.572,113.816,66.057,113.816,61.953z"/>
<path fill="#FFFFFF" d="M124.635,113.299c0-1.242,0.403-2.269,1.212-3.078c0.807-0.809,1.773-1.212,2.892-1.212
	c1.243,0,2.268,0.406,3.076,1.212c0.809,0.809,1.214,1.838,1.214,3.078c0,1.119-0.405,2.084-1.214,2.891
	c-0.808,0.812-1.834,1.214-3.076,1.214c-1.119,0-2.086-0.402-2.892-1.214C125.038,115.382,124.635,114.418,124.635,113.299z"/>
<path fill="#FFFFFF" d="M177.475,10.466c0-1.122,0.374-2.082,1.12-2.893c0.746-0.808,1.74-1.212,2.983-1.212
	c1.121,0,2.081,0.404,2.892,1.212c0.809,0.81,1.212,1.771,1.212,2.893c0,1.244-0.403,2.269-1.212,3.077
	c-0.81,0.811-1.771,1.213-2.892,1.213c-1.244,0-2.238-0.402-2.983-1.213C177.848,12.734,177.475,11.708,177.475,10.466z"/>
<path fill="#FFFFFF" d="M177.475,61.951c0-1.243,0.374-2.269,1.12-3.078c0.746-0.808,1.74-1.212,2.983-1.212
	c1.121,0,2.081,0.404,2.892,1.212c0.809,0.81,1.212,1.836,1.212,3.078c0,1.119-0.403,2.083-1.212,2.89
	c-0.81,0.811-1.771,1.214-2.892,1.214c-1.244,0-2.238-0.403-2.983-1.214C177.848,64.035,177.475,63.07,177.475,61.951z"/>
<path fill="#FFFFFF" d="M177.475,113.299c0-1.242,0.374-2.269,1.12-3.078c0.746-0.809,1.74-1.212,2.983-1.212
	c1.121,0,2.081,0.406,2.892,1.212c0.809,0.809,1.212,1.838,1.212,3.078c0,1.119-0.403,2.084-1.212,2.891
	c-0.81,0.812-1.771,1.214-2.892,1.214c-1.244,0-2.238-0.402-2.983-1.214C177.848,115.382,177.475,114.418,177.475,113.299z"/>
<path fill="#FFFFFF" d="M224.772,10.652c0-4.226,1.459-7.804,4.385-10.726c2.919-2.922,6.494-4.384,10.727-4.384
	c4.103,0,7.617,1.464,10.54,4.384c2.92,2.923,4.383,6.5,4.383,10.726c0,4.104-1.463,7.62-4.383,10.539
	c-2.924,2.923-6.438,4.383-10.54,4.383c-4.23,0-7.808-1.46-10.727-4.383C226.235,18.271,224.772,14.757,224.772,10.652z"/>
<path fill="#FFFFFF" d="M224.772,61.953c0-4.104,1.459-7.649,4.385-10.633c2.919-2.987,6.494-4.478,10.727-4.478
	c4.103,0,7.617,1.493,10.54,4.478c2.92,2.983,4.383,6.528,4.383,10.633c0,1.99-0.405,3.887-1.212,5.689
	c-0.811,1.804-1.866,3.39-3.171,4.755c-1.308,1.37-2.892,2.458-4.758,3.264c-1.866,0.811-3.795,1.213-5.782,1.213
	c-2.117,0-4.074-0.402-5.875-1.213c-1.806-0.808-3.394-1.894-4.759-3.264c-1.37-1.366-2.457-2.953-3.265-4.755
	C225.174,65.839,224.772,63.943,224.772,61.953z"/>
<path fill="#FFFFFF" d="M224.772,113.3c0-4.227,1.459-7.804,4.385-10.727c2.919-2.922,6.494-4.383,10.727-4.383
	c4.103,0,7.617,1.463,10.54,4.383c2.92,2.924,4.383,6.5,4.383,10.727c0,4.104-1.463,7.619-4.383,10.538
	c-2.924,2.925-6.438,4.384-10.54,4.384c-4.23,0-7.808-1.462-10.727-4.384C226.235,120.917,224.772,117.403,224.772,113.3z"/>
<path fill="#FFFFFF" d="M278.796,61.953c0-4.104,1.458-7.649,4.382-10.633c2.922-2.987,6.438-4.478,10.541-4.478
	c4.225,0,7.801,1.493,10.725,4.478c2.922,2.983,4.386,6.528,4.386,10.633c0,1.99-0.404,3.887-1.211,5.689
	c-0.813,1.804-1.899,3.39-3.266,4.755c-1.372,1.37-2.955,2.458-4.757,3.264c-1.806,0.811-3.766,1.213-5.877,1.213
	c-2.118,0-4.078-0.402-5.877-1.213c-1.805-0.808-3.359-1.894-4.665-3.264c-1.307-1.366-2.362-2.953-3.17-4.755
	C279.197,65.839,278.796,63.943,278.796,61.953z"/>
<path fill="#FFFFFF" d="M289.711,10.651c0-1.243,0.392-2.268,1.184-3.078c0.791-0.808,1.733-1.212,2.826-1.212
	c1.215,0,2.219,0.404,3.009,1.212c0.793,0.81,1.184,1.836,1.184,3.078c0,1.119-0.391,2.084-1.184,2.89
	c-0.79,0.812-1.794,1.214-3.009,1.214c-1.093,0-2.035-0.403-2.826-1.214C290.105,12.735,289.711,11.77,289.711,10.651z"/>
<path fill="#FFFFFF" d="M289.711,113.299c0-1.242,0.392-2.269,1.184-3.078c0.791-0.809,1.733-1.212,2.826-1.212
	c1.215,0,2.219,0.406,3.009,1.212c0.793,0.809,1.184,1.838,1.184,3.078c0,1.119-0.391,2.084-1.184,2.891
	c-0.79,0.812-1.794,1.214-3.009,1.214c-1.093,0-2.035-0.402-2.826-1.214C290.105,115.382,289.711,114.418,289.711,113.299z"/>
<path fill="#FFFFFF" d="M333.617,10.558c0-4.6,1.584-8.487,4.756-11.659c3.17-3.172,7.059-4.757,11.659-4.757
	c4.478,0,8.331,1.585,11.565,4.757c3.232,3.172,4.85,7.061,4.85,11.659c0,2.239-0.436,4.354-1.304,6.342
	c-0.872,1.989-2.055,3.732-3.546,5.224c-1.491,1.493-3.234,2.675-5.222,3.544c-1.99,0.873-4.104,1.306-6.344,1.306
	c-4.601,0-8.489-1.614-11.659-4.851C335.201,18.889,333.617,15.035,333.617,10.558z"/>
<path fill="#FFFFFF" d="M345.555,61.858c0-1.242,0.403-2.299,1.212-3.171c0.809-0.869,1.896-1.305,3.266-1.305
	c1.243,0,2.3,0.438,3.172,1.305c0.868,0.872,1.306,1.93,1.306,3.171c0,1.37-0.438,2.458-1.306,3.266
	c-0.872,0.809-1.929,1.211-3.172,1.211c-1.369,0-2.457-0.403-3.266-1.211C345.958,64.316,345.555,63.228,345.555,61.858z"/>
<path fill="#FFFFFF" d="M345.555,113.207c0-1.368,0.403-2.454,1.212-3.266c0.809-0.807,1.896-1.212,3.266-1.212
	c1.243,0,2.3,0.405,3.172,1.212c0.868,0.812,1.306,1.897,1.306,3.266c0,1.244-0.438,2.301-1.306,3.171
	c-0.872,0.871-1.929,1.305-3.172,1.305c-1.369,0-2.457-0.434-3.266-1.305C345.958,115.51,345.555,114.451,345.555,113.207z"/>
<path fill="#FFFFFF" d="M388.586,10.559c0-1.367,0.402-2.454,1.215-3.265c0.805-0.808,1.893-1.213,3.264-1.213
	c1.242,0,2.301,0.405,3.172,1.213c0.869,0.81,1.307,1.896,1.307,3.265c0,1.244-0.438,2.302-1.307,3.172
	c-0.871,0.873-1.93,1.305-3.172,1.305c-1.371,0-2.459-0.435-3.264-1.305C388.989,12.861,388.586,11.803,388.586,10.559z"/>
<path fill="#FFFFFF" d="M388.586,61.858c0-1.242,0.402-2.299,1.215-3.171c0.805-0.869,1.893-1.305,3.264-1.305
	c1.242,0,2.301,0.438,3.172,1.305c0.869,0.872,1.307,1.93,1.307,3.171c0,1.37-0.438,2.458-1.307,3.266
	c-0.871,0.809-1.93,1.211-3.172,1.211c-1.371,0-2.459-0.403-3.264-1.211C388.989,64.316,388.586,63.228,388.586,61.858z"/>
<path fill="#FFFFFF" d="M388.586,113.207c0-1.368,0.402-2.454,1.215-3.266c0.805-0.807,1.893-1.212,3.264-1.212
	c1.242,0,2.301,0.405,3.172,1.212c0.869,0.812,1.307,1.897,1.307,3.266c0,1.244-0.438,2.301-1.307,3.171
	c-0.871,0.871-1.93,1.305-3.172,1.305c-1.371,0-2.459-0.434-3.264-1.305C388.989,115.51,388.586,114.451,388.586,113.207z"/>
<path fill="#FFFFFF" d="M-1.834,219.41c0-4.479,1.586-8.303,4.757-11.475c3.172-3.171,6.997-4.756,11.472-4.756
	c4.602,0,8.488,1.585,11.661,4.756c3.171,3.172,4.755,6.996,4.755,11.475c0,4.478-1.584,8.3-4.755,11.474
	c-3.173,3.171-7.059,4.754-11.661,4.754c-4.476,0-8.3-1.583-11.472-4.754C-0.247,227.71-1.834,223.885-1.834,219.41z"/>
<path fill="#FFFFFF" d="M9.918,164.575c0-1.242,0.434-2.298,1.307-3.172c0.868-0.868,1.926-1.305,3.171-1.305
	c1.368,0,2.486,0.437,3.357,1.305c0.869,0.874,1.306,1.93,1.306,3.172c0,1.371-0.438,2.489-1.306,3.36
	c-0.873,0.871-1.99,1.306-3.357,1.306c-1.245,0-2.303-0.435-3.171-1.306C10.352,167.064,9.918,165.946,9.918,164.575z"/>
<path fill="#FFFFFF" d="M9.918,274.196c0-1.369,0.434-2.486,1.307-3.358c0.868-0.867,1.926-1.308,3.171-1.308
	c1.368,0,2.486,0.439,3.357,1.308c0.869,0.872,1.306,1.989,1.306,3.358c0,1.244-0.438,2.302-1.306,3.171
	c-0.873,0.87-1.99,1.305-3.357,1.305c-1.245,0-2.303-0.435-3.171-1.305C10.352,276.498,9.918,275.44,9.918,274.196z"/>
<path fill="#FFFFFF" d="M51.005,164.576c0-4.477,1.586-8.301,4.756-11.471c3.171-3.173,7.057-4.759,11.658-4.759
	c4.478,0,8.302,1.586,11.474,4.759c3.171,3.17,4.756,6.994,4.756,11.471c0,4.604-1.585,8.489-4.756,11.661
	c-3.172,3.171-6.996,4.755-11.474,4.755c-4.603,0-8.487-1.584-11.658-4.755C52.591,173.065,51.005,169.18,51.005,164.576z"/>
<path fill="#FFFFFF" d="M51.005,219.41c0-4.479,1.586-8.303,4.756-11.475c3.171-3.171,7.057-4.756,11.658-4.756
	c4.478,0,8.302,1.585,11.474,4.756c3.171,3.172,4.756,6.996,4.756,11.475c0,4.478-1.585,8.3-4.756,11.474
	c-3.172,3.171-6.996,4.754-11.474,4.754c-4.603,0-8.487-1.583-11.658-4.754C52.591,227.71,51.005,223.885,51.005,219.41z"/>
<path fill="#FFFFFF" d="M62.756,274.196c0-1.369,0.436-2.486,1.308-3.358c0.868-0.867,1.987-1.308,3.356-1.308
	c1.243,0,2.301,0.439,3.172,1.308c0.869,0.872,1.306,1.989,1.306,3.358c0,1.244-0.438,2.302-1.306,3.171
	c-0.871,0.87-1.929,1.305-3.172,1.305c-1.369,0-2.49-0.435-3.356-1.305C63.192,276.498,62.756,275.44,62.756,274.196z"/>
<path fill="#FFFFFF" d="M112.417,219.317c0-4.479,1.586-8.304,4.757-11.475c3.172-3.171,7.057-4.757,11.659-4.757
	c4.476,0,8.33,1.586,11.567,4.757c3.231,3.171,4.849,6.993,4.849,11.475c0,4.602-1.618,8.486-4.849,11.66
	c-3.237,3.171-7.091,4.754-11.567,4.754c-4.604,0-8.487-1.583-11.659-4.754C114.003,227.804,112.417,223.919,112.417,219.317z"/>
<path fill="#FFFFFF" d="M124.355,164.669c0-1.366,0.402-2.454,1.212-3.265c0.808-0.807,1.894-1.212,3.266-1.212
	c1.242,0,2.299,0.405,3.171,1.212c0.869,0.811,1.305,1.898,1.305,3.265c0,1.245-0.437,2.305-1.305,3.172
	c-0.872,0.871-1.93,1.307-3.171,1.307c-1.371,0-2.458-0.436-3.266-1.307C124.758,166.97,124.355,165.914,124.355,164.669z"/>
<path fill="#FFFFFF" d="M124.355,274.196c0-1.369,0.402-2.456,1.212-3.265c0.808-0.809,1.894-1.214,3.266-1.214
	c1.242,0,2.299,0.405,3.171,1.214c0.869,0.809,1.305,1.896,1.305,3.265c0,1.244-0.437,2.302-1.305,3.171
	c-0.872,0.87-1.93,1.305-3.171,1.305c-1.371,0-2.458-0.435-3.266-1.305C124.758,276.498,124.355,275.44,124.355,274.196z"/>
<path fill="#FFFFFF" d="M165.163,164.669c0-4.598,1.586-8.488,4.758-11.658c3.171-3.173,7.058-4.756,11.658-4.756
	c4.478,0,8.332,1.583,11.565,4.756c3.234,3.17,4.851,7.061,4.851,11.658c0,2.241-0.438,4.354-1.305,6.344
	c-0.873,1.991-2.053,3.731-3.546,5.223c-1.49,1.492-3.233,2.676-5.224,3.545c-1.989,0.869-4.103,1.305-6.341,1.305
	c-4.602,0-8.487-1.615-11.658-4.85C166.749,173.004,165.163,169.146,165.163,164.669z"/>
<path fill="#FFFFFF" d="M177.101,219.411c0-1.242,0.402-2.302,1.213-3.172c0.809-0.869,1.894-1.31,3.265-1.31
	c1.243,0,2.299,0.438,3.171,1.31c0.87,0.87,1.308,1.93,1.308,3.172c0,1.369-0.439,2.454-1.308,3.262
	c-0.872,0.812-1.928,1.215-3.171,1.215c-1.369,0-2.456-0.403-3.265-1.215C177.503,221.865,177.101,220.78,177.101,219.411z"/>
<path fill="#FFFFFF" d="M177.101,274.196c0-1.369,0.402-2.456,1.213-3.265c0.809-0.809,1.894-1.214,3.265-1.214
	c1.243,0,2.299,0.405,3.171,1.214c0.87,0.809,1.308,1.896,1.308,3.265c0,1.244-0.439,2.302-1.308,3.171
	c-0.872,0.87-1.928,1.305-3.171,1.305c-1.369,0-2.456-0.435-3.265-1.305C177.503,276.498,177.101,275.44,177.101,274.196z"/>
<path fill="#FFFFFF" d="M223.373,164.669c0-4.598,1.585-8.488,4.758-11.658c3.171-3.173,7.057-4.756,11.659-4.756
	c4.478,0,8.328,1.583,11.565,4.756c3.232,3.17,4.85,7.061,4.85,11.658c0,2.241-0.435,4.354-1.304,6.344
	c-0.872,1.991-2.056,3.731-3.546,5.223c-1.491,1.492-3.237,2.676-5.223,3.545c-1.99,0.869-4.102,1.305-6.343,1.305
	c-4.603,0-8.488-1.615-11.659-4.85C224.958,173.004,223.373,169.146,223.373,164.669z"/>
<path fill="#FFFFFF" d="M235.311,219.411c0-1.242,0.404-2.302,1.214-3.172c0.809-0.869,1.896-1.31,3.265-1.31
	c1.243,0,2.3,0.438,3.171,1.31c0.868,0.87,1.307,1.93,1.307,3.172c0,1.369-0.438,2.454-1.307,3.262
	c-0.871,0.812-1.928,1.215-3.171,1.215c-1.369,0-2.456-0.403-3.265-1.215C235.715,221.865,235.311,220.78,235.311,219.411z"/>
<path fill="#FFFFFF" d="M235.311,274.196c0-1.369,0.404-2.456,1.214-3.265c0.809-0.809,1.896-1.214,3.265-1.214
	c1.243,0,2.3,0.405,3.171,1.214c0.868,0.809,1.307,1.896,1.307,3.265c0,1.244-0.438,2.302-1.307,3.171
	c-0.871,0.87-1.928,1.305-3.171,1.305c-1.369,0-2.456-0.435-3.265-1.305C235.715,276.498,235.311,275.44,235.311,274.196z"/>
<path fill="#FFFFFF" d="M277.396,164.669c0-4.598,1.585-8.488,4.758-11.658c3.169-3.173,7.054-4.756,11.657-4.756
	c4.477,0,8.329,1.583,11.564,4.756c3.234,3.17,4.854,7.061,4.854,11.658c0,2.241-0.438,4.354-1.308,6.344
	c-0.873,1.991-2.052,3.731-3.546,5.223c-1.493,1.492-3.235,2.676-5.222,3.545c-1.99,0.869-4.103,1.305-6.343,1.305
	c-4.604,0-8.488-1.615-11.657-4.85C278.982,173.004,277.396,169.146,277.396,164.669z"/>
<path fill="#FFFFFF" d="M289.336,219.411c0-1.242,0.401-2.302,1.213-3.172c0.807-0.869,1.895-1.31,3.266-1.31
	c1.242,0,2.3,0.438,3.172,1.31c0.869,0.87,1.303,1.93,1.303,3.172c0,1.369-0.434,2.454-1.303,3.262
	c-0.872,0.812-1.93,1.215-3.172,1.215c-1.371,0-2.458-0.403-3.266-1.215C289.738,221.865,289.336,220.78,289.336,219.411z"/>
<path fill="#FFFFFF" d="M289.336,274.196c0-1.369,0.401-2.456,1.213-3.265c0.807-0.809,1.895-1.214,3.266-1.214
	c1.242,0,2.3,0.405,3.172,1.214c0.869,0.809,1.303,1.896,1.303,3.265c0,1.244-0.434,2.302-1.303,3.171
	c-0.872,0.87-1.93,1.305-3.172,1.305c-1.371,0-2.458-0.435-3.266-1.305C289.738,276.498,289.336,275.44,289.336,274.196z"/>
<path fill="#FFFFFF" d="M333.616,164.669c0-4.598,1.586-8.488,4.756-11.658c3.171-3.173,7.057-4.756,11.661-4.756
	c4.476,0,8.329,1.583,11.563,4.756c3.234,3.17,4.852,7.061,4.852,11.658c0,2.241-0.438,4.354-1.309,6.344
	c-0.87,1.991-2.051,3.731-3.543,5.223c-1.492,1.492-3.234,2.676-5.222,3.545s-4.104,1.305-6.342,1.305
	c-4.604,0-8.49-1.615-11.661-4.85C335.203,173.004,333.616,169.146,333.616,164.669z"/>
<path fill="#FFFFFF" d="M345.555,219.411c0-1.242,0.402-2.302,1.214-3.172c0.808-0.869,1.894-1.31,3.266-1.31
	c1.24,0,2.299,0.438,3.17,1.31c0.869,0.87,1.307,1.93,1.307,3.172c0,1.369-0.438,2.454-1.307,3.262
	c-0.871,0.812-1.93,1.215-3.17,1.215c-1.372,0-2.458-0.403-3.266-1.215C345.957,221.865,345.555,220.78,345.555,219.411z"/>
<path fill="#FFFFFF" d="M345.555,274.196c0-1.369,0.402-2.456,1.214-3.265c0.808-0.809,1.894-1.214,3.266-1.214
	c1.24,0,2.299,0.405,3.17,1.214c0.869,0.809,1.307,1.896,1.307,3.265c0,1.244-0.438,2.302-1.307,3.171
	c-0.871,0.87-1.93,1.305-3.17,1.305c-1.372,0-2.458-0.435-3.266-1.305C345.957,276.498,345.555,275.44,345.555,274.196z"/>
<path fill="#FFFFFF" d="M388.586,164.669c0-1.366,0.402-2.454,1.213-3.265c0.807-0.807,1.896-1.212,3.264-1.212
	c1.246,0,2.301,0.405,3.174,1.212c0.867,0.811,1.307,1.898,1.307,3.265c0,1.245-0.439,2.305-1.307,3.172
	c-0.873,0.871-1.928,1.307-3.174,1.307c-1.367,0-2.457-0.436-3.264-1.307C388.989,166.97,388.586,165.914,388.586,164.669z"/>
<path fill="#FFFFFF" d="M388.586,219.411c0-1.242,0.402-2.302,1.213-3.172c0.807-0.869,1.896-1.31,3.264-1.31
	c1.246,0,2.301,0.438,3.174,1.31c0.867,0.87,1.307,1.93,1.307,3.172c0,1.369-0.439,2.454-1.307,3.262
	c-0.873,0.812-1.928,1.215-3.174,1.215c-1.367,0-2.457-0.403-3.264-1.215C388.989,221.865,388.586,220.78,388.586,219.411z"/>
<path fill="#FFFFFF" d="M388.586,274.196c0-1.369,0.402-2.456,1.213-3.265c0.807-0.809,1.896-1.214,3.264-1.214
	c1.246,0,2.301,0.405,3.174,1.214c0.867,0.809,1.307,1.896,1.307,3.265c0,1.244-0.439,2.302-1.307,3.171
	c-0.873,0.87-1.928,1.305-3.174,1.305c-1.367,0-2.457-0.435-3.264-1.305C388.989,276.498,388.586,275.44,388.586,274.196z"/>
</svg>
