<?xml version="1.0" encoding="utf-8"?>
<!-- Generator: Adobe Illustrator 16.0.0, SVG Export Plug-In . SVG Version: 6.00 Build 0)  -->
<!DOCTYPE svg PUBLIC "-//W3C//DTD SVG 1.1//EN" "http://www.w3.org/Graphics/SVG/1.1/DTD/svg11.dtd">
<svg version="1.1" xmlns="http://www.w3.org/2000/svg" xmlns:xlink="http://www.w3.org/1999/xlink" x="0px" y="0px"
	 width="453.543px" height="453.543px" viewBox="0 0 453.543 453.543" enable-background="new 0 0 453.543 453.543"
	 xml:space="preserve">
<g id="kvadrat">
</g>
<g id="bg" display="none">
	<rect x="-1853.431" y="-6867.931" display="inline" width="15266.867" height="13678.951"/>
</g>
<g id="barvno" display="none">
	<g display="inline">
		<g>
			<g>
				<g>
					<path fill="#C8C8C8" d="M374.411,243.209c0,5.5-4.5,10-10,10H166.718c-5.5,0-10-4.5-10-10v-120.86c0-5.5,4.5-10,10-10h197.692
						c5.5,0,10,4.5,10,10V243.209z"/>
					
						<path fill="none" stroke="#000000" stroke-width="8" stroke-linecap="round" stroke-linejoin="round" stroke-miterlimit="10" d="
						M374.411,243.209c0,5.5-4.5,10-10,10H166.718c-5.5,0-10-4.5-10-10v-120.86c0-5.5,4.5-10,10-10h197.692c5.5,0,10,4.5,10,10
						V243.209z"/>
				</g>
				<rect x="156.718" y="134.764" width="217.692" height="40.819"/>
			</g>
			<g>
				<path stroke="#000000" stroke-linecap="round" stroke-linejoin="round" stroke-miterlimit="10" d="M335.727,216.382
					c1.322-0.766,2.848-1.207,4.485-1.207c4.955,0,8.966,4.012,8.966,8.965c0,4.955-4.011,8.971-8.966,8.971
					c-1.637,0-3.163-0.447-4.485-1.211c2.68-1.553,4.485-4.441,4.485-7.76C340.211,220.823,338.406,217.935,335.727,216.382z"/>
				<path stroke="#000000" stroke-linecap="round" stroke-linejoin="round" stroke-miterlimit="10" d="M322.275,224.14
					c0-4.953,4.017-8.965,8.966-8.965c1.636,0,3.167,0.441,4.485,1.207c-2.676,1.553-4.485,4.441-4.485,7.758
					c0,3.318,1.809,6.207,4.485,7.76c-1.318,0.764-2.849,1.211-4.485,1.211C326.292,233.11,322.275,229.095,322.275,224.14z"/>
			</g>
		</g>
		<g>
			<path fill="#C8C8C8" d="M296.824,331.194c0,5.5-4.5,10-10,10H89.133c-5.5,0-10-4.5-10-10V210.335c0-5.5,4.5-10,10-10h197.691
				c5.5,0,10,4.5,10,10V331.194z"/>
			<path fill="none" stroke="#000000" stroke-width="8" stroke-linecap="round" stroke-linejoin="round" stroke-miterlimit="10" d="
				M296.824,331.194c0,5.5-4.5,10-10,10H89.133c-5.5,0-10-4.5-10-10V210.335c0-5.5,4.5-10,10-10h197.691c5.5,0,10,4.5,10,10V331.194
				z"/>
		</g>
		
			<line fill="none" stroke="#000000" stroke-width="8" stroke-linecap="round" stroke-linejoin="round" stroke-miterlimit="10" x1="102.375" y1="289.124" x2="273.583" y2="289.124"/>
		
			<line fill="none" stroke="#000000" stroke-width="8" stroke-linecap="round" stroke-linejoin="round" stroke-miterlimit="10" x1="102.375" y1="309.768" x2="130.242" y2="309.768"/>
		
			<line fill="none" stroke="#000000" stroke-width="8" stroke-linecap="round" stroke-linejoin="round" stroke-miterlimit="10" x1="146.723" y1="309.768" x2="206.714" y2="309.768"/>
		
			<polygon fill="#F8B133" stroke="#000000" stroke-width="4" stroke-linecap="round" stroke-linejoin="round" stroke-miterlimit="10" points="
			136.567,265.692 99.118,265.692 99.118,238.098 112.955,238.098 136.567,238.098 		"/>
		
			<line fill="none" stroke="#000000" stroke-width="4" stroke-linecap="round" stroke-linejoin="round" stroke-miterlimit="10" x1="113.109" y1="265.692" x2="113.109" y2="238.894"/>
		
			<line fill="none" stroke="#000000" stroke-width="4" stroke-linecap="round" stroke-linejoin="round" stroke-miterlimit="10" x1="123.719" y1="265.692" x2="123.719" y2="238.894"/>
		
			<line fill="none" stroke="#000000" stroke-width="4" stroke-linecap="round" stroke-linejoin="round" stroke-miterlimit="10" x1="124.883" y1="256.478" x2="134.254" y2="256.478"/>
		
			<line fill="none" stroke="#000000" stroke-width="4" stroke-linecap="round" stroke-linejoin="round" stroke-miterlimit="10" x1="101.644" y1="248.345" x2="111.015" y2="248.345"/>
	</g>
	<g id="rde훾a7bela" display="inline">
	</g>
	
		<rect x="-2363.716" y="-7287.939" display="inline" fill="none" stroke="#000000" stroke-miterlimit="10" width="16736" height="13952"/>
</g>
<g id="barvno_copy_2">
	<g>
		<g>
			<g>
				<g>
					<path fill="#FFFF00" d="M374.411,243.209c0,5.5-4.5,10-10,10H166.718c-5.5,0-10-4.5-10-10v-120.86c0-5.5,4.5-10,10-10h197.692
						c5.5,0,10,4.5,10,10V243.209z"/>
					<path d="M364.411,257.209H166.718c-7.72,0-14-6.28-14-14v-120.86c0-7.72,6.28-14,14-14h197.692c7.72,0,14,6.28,14,14v120.86
						C378.411,250.929,372.13,257.209,364.411,257.209z M166.718,116.349c-3.309,0-6,2.691-6,6v120.86c0,3.309,2.691,6,6,6h197.692
						c3.309,0,6-2.691,6-6v-120.86c0-3.309-2.691-6-6-6H166.718z"/>
				</g>
				<rect x="156.718" y="134.764" width="217.692" height="40.819"/>
			</g>
			<g>
				<g>
					<path d="M335.727,216.382c1.322-0.766,2.848-1.207,4.485-1.207c4.955,0,8.966,4.012,8.966,8.965
						c0,4.955-4.011,8.971-8.966,8.971c-1.637,0-3.163-0.447-4.485-1.211c2.68-1.553,4.485-4.441,4.485-7.76
						C340.211,220.823,338.406,217.935,335.727,216.382z"/>
					<path d="M340.211,233.61c-1.65,0-3.287-0.442-4.735-1.278c-0.155-0.089-0.25-0.254-0.25-0.433c0-0.178,0.095-0.343,0.25-0.433
						c2.612-1.514,4.235-4.321,4.235-7.327c0-3.005-1.623-5.812-4.235-7.325c-0.154-0.09-0.25-0.254-0.25-0.433
						s0.095-0.344,0.25-0.433c1.439-0.834,3.077-1.274,4.735-1.274c5.22,0,9.466,4.246,9.466,9.465
						C349.677,229.361,345.431,233.61,340.211,233.61z M336.724,231.851c1.1,0.499,2.29,0.76,3.487,0.76
						c4.668,0,8.466-3.8,8.466-8.471c0-4.668-3.798-8.465-8.466-8.465c-1.203,0-2.394,0.26-3.487,0.756
						c2.479,1.767,3.987,4.646,3.987,7.709C340.711,227.204,339.204,230.084,336.724,231.851z"/>
				</g>
				<g>
					<path d="M322.275,224.14c0-4.953,4.017-8.965,8.966-8.965c1.636,0,3.167,0.441,4.485,1.207
						c-2.676,1.553-4.485,4.441-4.485,7.758c0,3.318,1.809,6.207,4.485,7.76c-1.318,0.764-2.849,1.211-4.485,1.211
						C326.292,233.11,322.275,229.095,322.275,224.14z"/>
					<path d="M331.241,233.61c-5.22,0-9.466-4.249-9.466-9.471c0-5.219,4.247-9.465,9.466-9.465c1.664,0,3.301,0.44,4.737,1.274
						c0.154,0.09,0.249,0.255,0.249,0.433c0,0.179-0.095,0.343-0.249,0.433c-2.613,1.516-4.236,4.323-4.236,7.325
						c0,3.004,1.624,5.812,4.236,7.327c0.154,0.09,0.249,0.255,0.249,0.433c0,0.179-0.095,0.343-0.25,0.433
						C334.534,233.168,332.896,233.61,331.241,233.61z M331.241,215.675c-4.668,0-8.466,3.797-8.466,8.465
						c0,4.671,3.798,8.471,8.466,8.471c1.201,0,2.392-0.261,3.489-0.759c-2.48-1.769-3.989-4.649-3.989-7.712
						c0-3.062,1.508-5.941,3.989-7.71C333.639,215.934,332.448,215.675,331.241,215.675z"/>
				</g>
			</g>
		</g>
		<g>
			<path fill="#FF0000" d="M296.824,331.194c0,5.5-4.5,10-10,10H89.133c-5.5,0-10-4.5-10-10V210.335c0-5.5,4.5-10,10-10h197.691
				c5.5,0,10,4.5,10,10V331.194z"/>
			<path d="M286.824,345.194H89.133c-7.72,0-14-6.28-14-14V210.335c0-7.72,6.28-14,14-14h197.691c7.72,0,14,6.28,14,14v120.859
				C300.824,338.914,294.544,345.194,286.824,345.194z M89.133,204.335c-3.309,0-6,2.691-6,6v120.859c0,3.309,2.691,6,6,6h197.691
				c3.308,0,6-2.691,6-6V210.335c0-3.309-2.692-6-6-6H89.133z"/>
		</g>
		<path d="M273.583,293.124H102.375c-2.209,0-4-1.791-4-4s1.791-4,4-4h171.209c2.209,0,4,1.791,4,4S275.792,293.124,273.583,293.124
			z"/>
		<path d="M130.242,313.768h-27.868c-2.209,0-4-1.791-4-4s1.791-4,4-4h27.868c2.209,0,4,1.791,4,4S132.452,313.768,130.242,313.768z
			"/>
		<path d="M206.714,313.768h-59.991c-2.209,0-4-1.791-4-4s1.791-4,4-4h59.991c2.209,0,4,1.791,4,4S208.923,313.768,206.714,313.768z
			"/>
		<g>
			<polygon fill="#FFFFFF" points="136.567,265.692 99.118,265.692 99.118,238.098 112.955,238.098 136.567,238.098 			"/>
			<path d="M136.567,267.692H99.118c-1.104,0-2-0.896-2-2v-27.595c0-1.104,0.896-2,2-2h37.449c1.104,0,2,0.896,2,2v27.595
				C138.567,266.797,137.671,267.692,136.567,267.692z M101.118,263.692h33.449v-23.595h-33.449V263.692z"/>
		</g>
		<path d="M113.109,267.692c-1.104,0-2-0.896-2-2v-26.799c0-1.104,0.896-2,2-2s2,0.896,2,2v26.799
			C115.109,266.797,114.213,267.692,113.109,267.692z"/>
		<path d="M123.719,267.692c-1.104,0-2-0.896-2-2v-26.799c0-1.104,0.896-2,2-2s2,0.896,2,2v26.799
			C125.719,266.797,124.824,267.692,123.719,267.692z"/>
		<path d="M134.254,258.478h-9.371c-1.104,0-2-0.896-2-2s0.896-2,2-2h9.371c1.104,0,2,0.896,2,2S135.358,258.478,134.254,258.478z"
			/>
		<path d="M111.015,250.345h-9.371c-1.104,0-2-0.896-2-2s0.896-2,2-2h9.371c1.104,0,2,0.896,2,2S112.12,250.345,111.015,250.345z"/>
	</g>
	<g id="rde훾a7bela_copy_4">
	</g>
	<rect x="-2363.716" y="-7287.939" fill="none" stroke="#000000" stroke-miterlimit="10" width="16736" height="13952"/>
</g>
<g id="sivinsko" display="none">
	<g display="inline">
		<g>
			<g>
				<g>
					<g>
						<path fill="#C8C8C8" d="M374.411,243.209c0,5.5-4.5,10-10,10H166.718c-5.5,0-10-4.5-10-10v-120.86c0-5.5,4.5-10,10-10h197.692
							c5.5,0,10,4.5,10,10V243.209z"/>
					</g>
					<path d="M364.411,257.209H166.718c-7.72,0-14-6.28-14-14v-120.86c0-7.72,6.28-14,14-14h197.692c7.72,0,14,6.28,14,14v120.86
						C378.411,250.929,372.13,257.209,364.411,257.209z M166.718,116.349c-3.309,0-6,2.691-6,6v120.86c0,3.309,2.691,6,6,6h197.692
						c3.309,0,6-2.691,6-6v-120.86c0-3.309-2.691-6-6-6H166.718z"/>
				</g>
				<rect x="156.718" y="134.764" width="217.692" height="40.819"/>
			</g>
			<g>
				<g>
					<path d="M335.727,216.382c1.322-0.766,2.848-1.207,4.485-1.207c4.955,0,8.966,4.012,8.966,8.965
						c0,4.955-4.011,8.971-8.966,8.971c-1.637,0-3.163-0.447-4.485-1.211c2.68-1.553,4.485-4.441,4.485-7.76
						C340.211,220.823,338.406,217.935,335.727,216.382z"/>
					<path d="M340.211,233.61c-1.65,0-3.287-0.442-4.735-1.278c-0.155-0.089-0.25-0.254-0.25-0.433c0-0.178,0.095-0.343,0.25-0.433
						c2.612-1.514,4.235-4.321,4.235-7.327c0-3.005-1.623-5.812-4.235-7.325c-0.154-0.09-0.25-0.254-0.25-0.433
						s0.095-0.344,0.25-0.433c1.439-0.834,3.077-1.274,4.735-1.274c5.22,0,9.466,4.246,9.466,9.465
						C349.677,229.361,345.431,233.61,340.211,233.61z M336.724,231.851c1.1,0.499,2.29,0.76,3.487,0.76
						c4.668,0,8.466-3.8,8.466-8.471c0-4.668-3.798-8.465-8.466-8.465c-1.203,0-2.394,0.26-3.487,0.756
						c2.479,1.767,3.987,4.646,3.987,7.709C340.711,227.204,339.204,230.084,336.724,231.851z"/>
				</g>
				<g>
					<path d="M322.275,224.14c0-4.953,4.017-8.965,8.966-8.965c1.636,0,3.167,0.441,4.485,1.207
						c-2.676,1.553-4.485,4.441-4.485,7.758c0,3.318,1.809,6.207,4.485,7.76c-1.318,0.764-2.849,1.211-4.485,1.211
						C326.292,233.11,322.275,229.095,322.275,224.14z"/>
					<path d="M331.241,233.61c-5.22,0-9.466-4.249-9.466-9.471c0-5.219,4.247-9.465,9.466-9.465c1.664,0,3.301,0.44,4.737,1.274
						c0.154,0.09,0.249,0.255,0.249,0.433c0,0.179-0.095,0.343-0.249,0.433c-2.613,1.516-4.236,4.323-4.236,7.325
						c0,3.004,1.624,5.812,4.236,7.327c0.154,0.09,0.249,0.255,0.249,0.433c0,0.179-0.095,0.343-0.25,0.433
						C334.534,233.168,332.896,233.61,331.241,233.61z M331.241,215.675c-4.668,0-8.466,3.797-8.466,8.465
						c0,4.671,3.798,8.471,8.466,8.471c1.201,0,2.392-0.261,3.489-0.759c-2.48-1.769-3.989-4.649-3.989-7.712
						c0-3.062,1.508-5.941,3.989-7.71C333.639,215.934,332.448,215.675,331.241,215.675z"/>
				</g>
			</g>
		</g>
		<g>
			<g>
				<path fill="#C8C8C8" d="M296.824,331.194c0,5.5-4.5,10-10,10H89.133c-5.5,0-10-4.5-10-10V210.335c0-5.5,4.5-10,10-10h197.691
					c5.5,0,10,4.5,10,10V331.194z"/>
			</g>
			<path d="M286.824,345.194H89.133c-7.72,0-14-6.28-14-14V210.335c0-7.72,6.28-14,14-14h197.691c7.72,0,14,6.28,14,14v120.859
				C300.824,338.914,294.544,345.194,286.824,345.194z M89.133,204.335c-3.309,0-6,2.691-6,6v120.859c0,3.309,2.691,6,6,6h197.691
				c3.308,0,6-2.691,6-6V210.335c0-3.309-2.692-6-6-6H89.133z"/>
		</g>
		<path d="M273.583,293.124H102.375c-2.209,0-4-1.791-4-4s1.791-4,4-4h171.209c2.209,0,4,1.791,4,4S275.792,293.124,273.583,293.124
			z"/>
		<path d="M130.242,313.768h-27.868c-2.209,0-4-1.791-4-4s1.791-4,4-4h27.868c2.209,0,4,1.791,4,4S132.452,313.768,130.242,313.768z
			"/>
		<path d="M206.714,313.768h-59.991c-2.209,0-4-1.791-4-4s1.791-4,4-4h59.991c2.209,0,4,1.791,4,4S208.923,313.768,206.714,313.768z
			"/>
		<g>
			<polygon fill="#B8B8B8" points="136.567,265.692 99.118,265.692 99.118,238.098 112.955,238.098 136.567,238.098 			"/>
			<path d="M136.567,267.692H99.118c-1.104,0-2-0.896-2-2v-27.595c0-1.104,0.896-2,2-2h37.449c1.104,0,2,0.896,2,2v27.595
				C138.567,266.797,137.671,267.692,136.567,267.692z M101.118,263.692h33.449v-23.595h-33.449V263.692z"/>
		</g>
		<path d="M113.109,267.692c-1.104,0-2-0.896-2-2v-26.799c0-1.104,0.896-2,2-2s2,0.896,2,2v26.799
			C115.109,266.797,114.213,267.692,113.109,267.692z"/>
		<path d="M123.719,267.692c-1.104,0-2-0.896-2-2v-26.799c0-1.104,0.896-2,2-2s2,0.896,2,2v26.799
			C125.719,266.797,124.824,267.692,123.719,267.692z"/>
		<path d="M134.254,258.478h-9.371c-1.104,0-2-0.896-2-2s0.896-2,2-2h9.371c1.104,0,2,0.896,2,2S135.358,258.478,134.254,258.478z"
			/>
		<path d="M111.015,250.345h-9.371c-1.104,0-2-0.896-2-2s0.896-2,2-2h9.371c1.104,0,2,0.896,2,2S112.12,250.345,111.015,250.345z"/>
	</g>
	<g id="rde훾a7bela_copy_3" display="inline">
	</g>
	<path display="inline" d="M14372.783,6664.561h-16737v-13953h16737V6664.561z M-2363.716,6663.561h16736l-0.5-13951h-16735.5
		l0.5,13951H-2363.716z"/>
</g>
<g id="linijsko" display="none">
	<g display="inline">
		<g>
			
				<polyline fill="none" stroke="#000000" stroke-width="8" stroke-linecap="round" stroke-linejoin="round" stroke-miterlimit="10" points="
				374.411,134.764 374.411,112.349 156.718,112.349 156.718,134.764 			"/>
			
				<polyline fill="none" stroke="#000000" stroke-width="8" stroke-linecap="round" stroke-linejoin="round" stroke-miterlimit="10" points="
				296.824,253.209 374.411,253.209 374.411,175.583 			"/>
			
				<line fill="none" stroke="#000000" stroke-width="8" stroke-linecap="round" stroke-linejoin="round" stroke-miterlimit="10" x1="156.718" y1="200.335" x2="156.718" y2="175.583"/>
			
				<line fill="none" stroke="#000000" stroke-width="8" stroke-linecap="round" stroke-linejoin="round" stroke-miterlimit="10" x1="156.718" y1="134.764" x2="374.411" y2="134.764"/>
			
				<line fill="none" stroke="#000000" stroke-width="8" stroke-linecap="round" stroke-linejoin="round" stroke-miterlimit="10" x1="156.718" y1="175.583" x2="374.411" y2="175.583"/>
			
				<line fill="none" stroke="#000000" stroke-width="8" stroke-linecap="round" stroke-linejoin="round" stroke-miterlimit="10" x1="374.411" y1="175.583" x2="374.411" y2="134.764"/>
			
				<line fill="none" stroke="#000000" stroke-width="8" stroke-linecap="round" stroke-linejoin="round" stroke-miterlimit="10" x1="156.718" y1="134.764" x2="156.718" y2="175.583"/>
			<path fill="none" stroke="#000000" stroke-width="4" stroke-linecap="round" stroke-linejoin="round" stroke-miterlimit="10" d="
				M335.727,231.899c1.322,0.764,2.848,1.211,4.485,1.211c4.955,0,8.966-4.016,8.966-8.971c0-4.953-4.011-8.965-8.966-8.965
				c-1.637,0-3.163,0.441-4.485,1.207"/>
			<path fill="none" stroke="#000000" stroke-width="4" stroke-linecap="round" stroke-linejoin="round" stroke-miterlimit="10" d="
				M335.727,231.899c2.68-1.553,4.485-4.441,4.485-7.76c0-3.316-1.805-6.205-4.485-7.758"/>
			<path fill="none" stroke="#000000" stroke-width="4" stroke-linecap="round" stroke-linejoin="round" stroke-miterlimit="10" d="
				M335.727,231.899c-1.318,0.764-2.849,1.211-4.485,1.211c-4.95,0-8.966-4.016-8.966-8.971c0-4.953,4.017-8.965,8.966-8.965
				c1.636,0,3.167,0.441,4.485,1.207"/>
			<path fill="none" stroke="#000000" stroke-width="4" stroke-linecap="round" stroke-linejoin="round" stroke-miterlimit="10" d="
				M335.727,231.899c-2.676-1.553-4.485-4.441-4.485-7.76c0-3.316,1.809-6.205,4.485-7.758"/>
			
				<polyline fill="none" stroke="#000000" stroke-width="8" stroke-linecap="round" stroke-linejoin="round" stroke-miterlimit="10" points="
				156.718,200.335 79.133,200.335 79.133,341.194 296.824,341.194 296.824,253.209 			"/>
			
				<polyline fill="none" stroke="#000000" stroke-width="8" stroke-linecap="round" stroke-linejoin="round" stroke-miterlimit="10" points="
				156.718,200.335 296.824,200.335 296.824,253.209 			"/>
		</g>
		
			<line fill="#FFFFFF" stroke="#000000" stroke-width="8" stroke-linecap="round" stroke-linejoin="round" stroke-miterlimit="10" x1="102.375" y1="289.124" x2="273.583" y2="289.124"/>
		
			<line fill="#FFFFFF" stroke="#000000" stroke-width="8" stroke-linecap="round" stroke-linejoin="round" stroke-miterlimit="10" x1="102.375" y1="309.768" x2="130.242" y2="309.768"/>
		
			<line fill="#FFFFFF" stroke="#000000" stroke-width="8" stroke-linecap="round" stroke-linejoin="round" stroke-miterlimit="10" x1="146.723" y1="309.768" x2="206.714" y2="309.768"/>
		
			<polygon fill="none" stroke="#000000" stroke-width="4" stroke-linecap="round" stroke-linejoin="round" stroke-miterlimit="10" points="
			136.567,265.692 99.118,265.692 99.118,238.098 112.955,238.098 136.567,238.098 		"/>
		
			<line fill="#FFFFFF" stroke="#000000" stroke-width="4" stroke-linecap="round" stroke-linejoin="round" stroke-miterlimit="10" x1="113.109" y1="265.692" x2="113.109" y2="238.894"/>
		
			<line fill="#FFFFFF" stroke="#000000" stroke-width="4" stroke-linecap="round" stroke-linejoin="round" stroke-miterlimit="10" x1="123.719" y1="265.692" x2="123.719" y2="238.894"/>
		
			<line fill="#FFFFFF" stroke="#000000" stroke-width="4" stroke-linecap="round" stroke-linejoin="round" stroke-miterlimit="10" x1="124.883" y1="256.478" x2="134.254" y2="256.478"/>
		
			<line fill="#FFFFFF" stroke="#000000" stroke-width="4" stroke-linecap="round" stroke-linejoin="round" stroke-miterlimit="10" x1="101.644" y1="248.345" x2="111.015" y2="248.345"/>
	</g>
	<g id="rde훾a7bela_copy" display="inline">
	</g>
</g>
<g id="pivot">
	<circle fill="none" cx="192.358" cy="336.094" r="14.132"/>
</g>
</svg>
