<?xml version="1.0" encoding="utf-8"?>
<!-- Generator: Adobe Illustrator 16.0.0, SVG Export Plug-In . SVG Version: 6.00 Build 0)  -->
<!DOCTYPE svg PUBLIC "-//W3C//DTD SVG 1.1//EN" "http://www.w3.org/Graphics/SVG/1.1/DTD/svg11.dtd">
<svg version="1.1" xmlns="http://www.w3.org/2000/svg" xmlns:xlink="http://www.w3.org/1999/xlink" x="0px" y="0px"
	 width="453.543px" height="453.543px" viewBox="0 0 453.543 453.543" enable-background="new 0 0 453.543 453.543"
	 xml:space="preserve">
<g id="kvadrat">
</g>
<g id="bg" display="none">
	<rect x="-4404.613" y="-6867.931" display="inline" width="15266.867" height="13678.951"/>
</g>
<g id="barvno" display="none">
	<g display="inline">
		
			<path fill="#F4AFB4" stroke="#000000" stroke-width="8" stroke-linecap="round" stroke-linejoin="round" stroke-miterlimit="10" d="
			M354.595,235.936l-17.832-4.251c-4.075-9.425-14.186-25.608-21.491-33.389c5.619-9.056,13.404-23.52,15.891-29.519
			c2.659-6.42-24.788-3.846-42.473,7.877c-19.397-12.188-38.362-15.183-64.707-15.183c-58.867,0-107.404,36.161-114.251,82.812
			c-15.57-2.137-14.083-28.275-15.799-29.705c-2.096-1.748-16.896,37.479,14.726,60.191c1.089,0.781,2.138,1.441,3.155,2.013
			c4.653,16.593,14.668,31.51,28.466,43.473v26.243c0,11.5,11.781,20.922,26.157,20.922c14.377,0,20.841-9.422,20.841-20.922v-0.244
			c18.178,4.201,52.771,3.932,74.471,0v0.221c0,11.498,5.404,20.92,19.77,20.92c14.38,0,26.161-9.422,26.123-26.054v-21.054
			c10.916-9.448,22.157-32.454,27.57-44.967l6.747,1.174c5.749,0,12.378-1.654,15.642-8.299l6.411-19.889
			C367.138,242.662,361.463,237.404,354.595,235.936z"/>
		
			<path fill="#6F6F6E" stroke="#000000" stroke-width="8" stroke-linecap="round" stroke-linejoin="round" stroke-miterlimit="10" d="
			M244.148,188.793c0.336,4.003-3.773,6.643-9.108,5.861c0,0-8.158-1.197-22.103,0.04c-13.935,1.237-23.754,5.957-23.754,5.957
			c-4.894,2.345-9.162,0.995-9.487-3.005c-0.326-4.006,3.413-9.205,8.309-11.555c0,0,9.812-4.719,23.75-5.954
			c13.94-1.235,22.1-0.042,22.1-0.042C239.19,180.871,243.827,184.79,244.148,188.793z"/>
		<g>
			
				<ellipse fill="#FFFFFF" stroke="#000000" stroke-width="6" stroke-linecap="round" stroke-linejoin="round" stroke-miterlimit="10" cx="297.737" cy="224.703" rx="9.889" ry="11.687"/>
			<ellipse cx="301.748" cy="229.657" rx="5.734" ry="6.778"/>
		</g>
		
			<circle fill="#FFCF00" stroke="#000000" stroke-width="8" stroke-linecap="round" stroke-linejoin="round" stroke-miterlimit="10" cx="212.821" cy="113.454" r="31.331"/>
	</g>
	<g id="rde훾a7bela" display="inline">
	</g>
	
		<rect x="-4914.898" y="-7287.939" display="inline" fill="none" stroke="#000000" stroke-miterlimit="10" width="16736" height="13952"/>
</g>
<g id="barvno_copy_2">
	<g>
		<g>
			<path fill="#FF0000" d="M354.595,235.936l-17.832-4.251c-4.075-9.425-14.186-25.608-21.491-33.389
				c5.619-9.056,13.404-23.52,15.891-29.519c2.659-6.42-24.788-3.846-42.473,7.877c-19.397-12.188-38.362-15.183-64.707-15.183
				c-58.867,0-107.404,36.161-114.251,82.812c-15.57-2.137-14.083-28.275-15.799-29.705c-2.096-1.748-16.896,37.479,14.726,60.191
				c1.089,0.781,2.138,1.441,3.155,2.013c4.653,16.593,14.668,31.51,28.466,43.473v26.243c0,11.5,11.781,20.922,26.157,20.922
				c14.377,0,20.841-9.422,20.841-20.922v-0.244c18.178,4.201,52.771,3.932,74.471,0v0.221c0,11.498,5.404,20.92,19.77,20.92
				c14.38,0,26.161-9.422,26.123-26.054v-21.054c10.916-9.448,22.157-32.454,27.57-44.967l6.747,1.174
				c5.749,0,12.378-1.654,15.642-8.299l6.411-19.889C367.138,242.662,361.463,237.404,354.595,235.936z"/>
			<path d="M166.437,371.42c-16.629,0-30.157-11.18-30.157-24.922v-24.438c-13.486-12.097-23.08-26.777-27.865-42.643
				c-0.703-0.438-1.395-0.901-2.088-1.398c-30.225-21.71-20.371-55.657-19.148-59.457c1.838-5.711,3.751-8.041,6.601-8.041
				c0.99,0,1.954,0.35,2.715,0.984c1.618,1.349,1.854,3.183,2.37,7.203c0.771,6.007,2.101,16.372,7.756,20.212
				c9.704-46.761,59.157-81.449,117.363-81.449c24.855,0,44.506,2.464,64.676,14.475c11.598-6.965,26.445-10.599,35.704-10.599
				c5.245,0,8.436,1.12,10.043,3.525c1.061,1.587,1.226,3.568,0.453,5.435c-2.348,5.663-9.1,18.332-14.63,27.544
				c6.94,8.187,15.237,21.586,19.371,30.397l15.923,3.796c5.722,1.223,10.52,4.602,12.43,8.799c1.328,2.918,1.239,6.106-0.242,9.022
				l-6.303,19.557c-0.059,0.184-0.132,0.362-0.217,0.536c-3.385,6.893-10.036,10.535-19.232,10.535c-0.23,0-0.459-0.02-0.686-0.06
				l-3.661-0.637c-4.98,11.147-15.167,31.938-25.97,42.255v19.288c0.02,8.655-2.836,16.107-8.259,21.543
				c-5.476,5.488-13.24,8.511-21.863,8.511c-13.41,0-21.951-7.563-23.511-20.474c-10.269,1.525-22.917,2.384-35.491,2.384
				c-12.155,0-23.136-0.786-31.553-2.237C189.181,363.577,179.95,371.42,166.437,371.42z M92.898,230.666
				c-0.351,3.68-0.361,7.856,0.294,12.187c1.79,11.825,7.778,21.471,17.799,28.668c0.916,0.657,1.826,1.238,2.781,1.774
				c0.925,0.52,1.606,1.386,1.893,2.407c4.343,15.487,13.76,29.848,27.234,41.53c0.876,0.76,1.38,1.862,1.38,3.022v26.243
				c0,9.173,10.147,16.922,22.157,16.922c15.2,0,16.841-11.834,16.841-16.922v-0.244c0-1.219,0.556-2.372,1.51-3.131
				c0.955-0.76,2.202-1.04,3.391-0.767c8.225,1.901,20.419,2.948,34.337,2.948c14.004,0,28.044-1.089,38.52-2.986
				c1.164-0.213,2.367,0.104,3.277,0.865c0.91,0.76,1.436,1.885,1.436,3.07v0.221c0,11.228,5.306,16.92,15.77,16.92
				c6.483,0,12.236-2.188,16.2-6.161c3.89-3.898,5.938-9.391,5.923-15.884v-21.063c0-1.161,0.504-2.265,1.382-3.024
				c11.4-9.868,23.178-35.813,26.516-43.53c0.734-1.697,2.537-2.669,4.357-2.353l6.395,1.112c5.719-0.073,9.618-2.03,11.597-5.821
				l6.315-19.592c0.08-0.246,0.183-0.484,0.308-0.711c0.449-0.81,0.497-1.471,0.16-2.21c-0.841-1.848-3.683-3.62-6.913-4.312
				l-17.923-4.271c-1.227-0.292-2.243-1.146-2.744-2.303c-3.764-8.704-13.641-24.683-20.735-32.238
				c-1.24-1.32-1.438-3.309-0.483-4.847c4.868-7.847,11.521-20.063,14.619-26.739c-0.549-0.059-1.249-0.101-2.129-0.101
				c-8.44,0-23.036,3.729-33.463,10.641c-1.31,0.868-3.008,0.889-4.338,0.053c-19.31-12.132-38.261-14.569-62.579-14.569
				c-56.234,0-103.65,34.131-110.294,79.393c-0.318,2.172-2.325,3.679-4.501,3.382C99.354,246.896,95.023,238.609,92.898,230.666z"
				/>
		</g>
		<g>
			<path fill="#54FFFF" d="M244.148,188.793c0.336,4.003-3.773,6.643-9.108,5.861c0,0-8.158-1.197-22.103,0.04
				c-13.935,1.237-23.754,5.957-23.754,5.957c-4.894,2.345-9.162,0.995-9.487-3.005c-0.326-4.006,3.413-9.205,8.309-11.555
				c0,0,9.812-4.719,23.75-5.954c13.94-1.235,22.1-0.042,22.1-0.042C239.19,180.871,243.827,184.79,244.148,188.793z"/>
			<path d="M184.625,205.804c-4.952,0-8.535-3.148-8.916-7.833c-0.465-5.714,4.077-12.372,10.565-15.485
				c0.424-0.204,10.631-5.047,25.128-6.332c4.311-0.382,8.519-0.576,12.505-0.576c6.621,0,10.371,0.538,10.527,0.561
				c7.209,1.048,13.229,6.467,13.7,12.335c0.211,2.519-0.612,4.937-2.319,6.793c-2.091,2.273-5.265,3.525-8.938,3.525
				c-0.792,0-1.605-0.06-2.417-0.179c-0.028-0.004-3.402-0.479-9.38-0.479c-3.749,0-7.715,0.184-11.79,0.545
				c-12.968,1.151-22.288,5.536-22.381,5.58C188.803,205.27,186.629,205.804,184.625,205.804z M223.908,183.577
				c-3.751,0-7.721,0.184-11.799,0.545c-13.063,1.158-22.278,5.53-22.37,5.574c-3.923,1.883-6.207,5.773-6.056,7.626
				c0.019,0.231,0.068,0.313,0.069,0.313c0.034,0.029,0.301,0.168,0.873,0.168c0.803,0,1.808-0.271,2.83-0.76
				c0.423-0.203,10.637-5.047,25.129-6.334c4.309-0.382,8.514-0.576,12.497-0.576c6.628,0,10.384,0.54,10.54,0.563
				c0.429,0.063,0.852,0.095,1.257,0.095c1.61,0,2.631-0.485,3.049-0.94c0.197-0.215,0.261-0.411,0.235-0.723
				c-0.136-1.689-2.883-4.492-6.881-5.074C233.25,184.05,229.88,183.577,223.908,183.577z"/>
		</g>
		<g>
			<g>
				<ellipse fill="#FF0000" cx="297.737" cy="224.703" rx="9.889" ry="11.687"/>
				<path d="M297.739,239.39c-7.108,0-12.891-6.588-12.891-14.687s5.783-14.687,12.891-14.687c7.106,0,12.887,6.588,12.887,14.687
					S304.845,239.39,297.739,239.39z M297.739,216.017c-3.799,0-6.891,3.896-6.891,8.687s3.091,8.687,6.891,8.687
					c3.797,0,6.887-3.896,6.887-8.687S301.536,216.017,297.739,216.017z"/>
			</g>
			<ellipse cx="301.748" cy="229.657" rx="5.734" ry="6.778"/>
		</g>
		<g>
			<circle fill="#FFFF00" cx="212.821" cy="113.454" r="31.331"/>
			<path d="M212.821,148.785c-19.481,0-35.33-15.85-35.33-35.332c0-19.481,15.849-35.33,35.33-35.33
				c19.481,0,35.331,15.849,35.331,35.33C248.152,132.936,232.303,148.785,212.821,148.785z M212.821,86.123
				c-15.07,0-27.33,12.26-27.33,27.33c0,15.071,12.26,27.332,27.33,27.332c15.07,0,27.331-12.261,27.331-27.332
				C240.152,98.383,227.892,86.123,212.821,86.123z"/>
		</g>
	</g>
	<g id="rde훾a7bela_copy_4">
	</g>
	<rect x="-4914.898" y="-7287.939" fill="none" stroke="#000000" stroke-miterlimit="10" width="16736" height="13952"/>
</g>
<g id="sivinsko" display="none">
	<g display="inline">
		<g>
			<path fill="#C4C4C4" d="M354.595,235.936l-17.832-4.251c-4.075-9.425-14.186-25.608-21.491-33.389
				c5.619-9.056,13.404-23.52,15.891-29.519c2.659-6.42-24.788-3.846-42.473,7.877c-19.397-12.188-38.362-15.183-64.707-15.183
				c-58.867,0-107.404,36.161-114.251,82.812c-15.57-2.137-14.083-28.275-15.799-29.705c-2.096-1.748-16.896,37.479,14.726,60.191
				c1.089,0.781,2.138,1.441,3.155,2.013c4.653,16.593,14.668,31.51,28.466,43.473v26.243c0,11.5,11.781,20.922,26.157,20.922
				c14.377,0,20.841-9.422,20.841-20.922v-0.244c18.178,4.201,52.771,3.932,74.471,0v0.221c0,11.498,5.404,20.92,19.77,20.92
				c14.38,0,26.161-9.422,26.123-26.054v-21.054c10.916-9.448,22.157-32.454,27.57-44.967l6.747,1.174
				c5.749,0,12.378-1.654,15.642-8.299l6.411-19.889C367.138,242.662,361.463,237.404,354.595,235.936z"/>
			<path d="M166.437,371.42c-16.629,0-30.157-11.18-30.157-24.922v-24.438c-13.486-12.097-23.08-26.777-27.865-42.643
				c-0.703-0.438-1.395-0.901-2.088-1.398c-30.225-21.71-20.371-55.657-19.148-59.457c1.838-5.711,3.751-8.041,6.601-8.041
				c0.99,0,1.954,0.35,2.715,0.984c1.618,1.349,1.854,3.183,2.37,7.203c0.771,6.007,2.101,16.372,7.756,20.212
				c9.704-46.761,59.157-81.449,117.363-81.449c24.855,0,44.506,2.464,64.676,14.475c11.598-6.965,26.445-10.599,35.704-10.599
				c5.245,0,8.436,1.12,10.043,3.525c1.061,1.587,1.226,3.568,0.453,5.435c-2.348,5.663-9.1,18.332-14.63,27.544
				c6.94,8.187,15.237,21.586,19.371,30.397l15.923,3.796c5.722,1.223,10.52,4.602,12.43,8.799c1.328,2.918,1.239,6.106-0.242,9.022
				l-6.303,19.557c-0.059,0.184-0.132,0.362-0.217,0.536c-3.385,6.893-10.036,10.535-19.232,10.535c-0.23,0-0.459-0.02-0.686-0.06
				l-3.661-0.637c-4.98,11.147-15.167,31.938-25.97,42.255v19.288c0.02,8.655-2.836,16.107-8.259,21.543
				c-5.476,5.488-13.24,8.511-21.863,8.511c-13.41,0-21.951-7.563-23.511-20.474c-10.269,1.525-22.917,2.384-35.491,2.384
				c-12.155,0-23.136-0.786-31.553-2.237C189.181,363.577,179.95,371.42,166.437,371.42z M92.898,230.666
				c-0.351,3.68-0.361,7.856,0.294,12.187c1.79,11.825,7.778,21.471,17.799,28.668c0.916,0.657,1.826,1.238,2.781,1.774
				c0.925,0.52,1.606,1.386,1.893,2.407c4.343,15.487,13.76,29.848,27.234,41.53c0.876,0.76,1.38,1.862,1.38,3.022v26.243
				c0,9.173,10.147,16.922,22.157,16.922c15.2,0,16.841-11.834,16.841-16.922v-0.244c0-1.219,0.556-2.372,1.51-3.131
				c0.955-0.76,2.202-1.04,3.391-0.767c8.225,1.901,20.419,2.948,34.337,2.948c14.004,0,28.044-1.089,38.52-2.986
				c1.164-0.213,2.367,0.104,3.277,0.865c0.91,0.76,1.436,1.885,1.436,3.07v0.221c0,11.228,5.306,16.92,15.77,16.92
				c6.483,0,12.236-2.188,16.2-6.161c3.89-3.898,5.938-9.391,5.923-15.884v-21.063c0-1.161,0.504-2.265,1.382-3.024
				c11.4-9.868,23.178-35.813,26.516-43.53c0.734-1.697,2.537-2.669,4.357-2.353l6.395,1.112c5.719-0.073,9.618-2.03,11.597-5.821
				l6.315-19.592c0.08-0.246,0.183-0.484,0.308-0.711c0.449-0.81,0.497-1.471,0.16-2.21c-0.841-1.848-3.683-3.62-6.913-4.312
				l-17.923-4.271c-1.227-0.292-2.243-1.146-2.744-2.303c-3.764-8.704-13.641-24.683-20.735-32.238
				c-1.24-1.32-1.438-3.309-0.483-4.847c4.868-7.847,11.521-20.063,14.619-26.739c-0.549-0.059-1.249-0.101-2.129-0.101
				c-8.44,0-23.036,3.729-33.463,10.641c-1.31,0.868-3.008,0.889-4.338,0.053c-19.31-12.132-38.261-14.569-62.579-14.569
				c-56.234,0-103.65,34.131-110.294,79.393c-0.319,2.172-2.325,3.679-4.501,3.382C99.354,246.896,95.023,238.609,92.898,230.666z"
				/>
		</g>
		<g>
			<path fill="#6F6F6F" d="M244.148,188.793c0.336,4.003-3.773,6.643-9.108,5.861c0,0-8.158-1.197-22.103,0.04
				c-13.935,1.237-23.754,5.957-23.754,5.957c-4.894,2.345-9.162,0.995-9.487-3.005c-0.326-4.006,3.413-9.205,8.309-11.555
				c0,0,9.812-4.719,23.75-5.954c13.94-1.235,22.1-0.042,22.1-0.042C239.19,180.871,243.827,184.79,244.148,188.793z"/>
			<path d="M184.625,205.804c-4.952,0-8.535-3.148-8.916-7.833c-0.465-5.714,4.077-12.372,10.565-15.485
				c0.424-0.204,10.631-5.047,25.128-6.332c4.311-0.382,8.519-0.576,12.505-0.576c6.621,0,10.371,0.538,10.527,0.561
				c7.209,1.048,13.229,6.467,13.7,12.335c0.211,2.519-0.612,4.937-2.319,6.793c-2.091,2.273-5.265,3.525-8.938,3.525
				c-0.792,0-1.605-0.06-2.417-0.179c-0.028-0.004-3.402-0.479-9.38-0.479c-3.749,0-7.715,0.184-11.79,0.545
				c-12.968,1.151-22.288,5.536-22.381,5.58C188.803,205.27,186.629,205.804,184.625,205.804z M223.908,183.577
				c-3.751,0-7.721,0.184-11.799,0.545c-13.063,1.158-22.278,5.53-22.37,5.574c-3.923,1.883-6.207,5.773-6.056,7.626
				c0.019,0.231,0.068,0.313,0.069,0.313c0.034,0.029,0.301,0.168,0.873,0.168c0.803,0,1.808-0.271,2.83-0.76
				c0.423-0.203,10.637-5.047,25.129-6.334c4.309-0.382,8.514-0.576,12.497-0.576c6.628,0,10.384,0.54,10.54,0.563
				c0.429,0.063,0.852,0.095,1.257,0.095c1.61,0,2.631-0.485,3.049-0.94c0.197-0.215,0.261-0.411,0.235-0.723
				c-0.136-1.689-2.883-4.492-6.881-5.074C233.25,184.05,229.88,183.577,223.908,183.577z"/>
		</g>
		<g>
			<g>
				<ellipse fill="#FFFFFF" cx="297.737" cy="224.703" rx="9.889" ry="11.687"/>
				<path d="M297.739,239.39c-7.108,0-12.891-6.588-12.891-14.687s5.783-14.687,12.891-14.687c7.106,0,12.887,6.588,12.887,14.687
					S304.845,239.39,297.739,239.39z M297.739,216.017c-3.799,0-6.891,3.896-6.891,8.687s3.091,8.687,6.891,8.687
					c3.797,0,6.887-3.896,6.887-8.687S301.536,216.017,297.739,216.017z"/>
			</g>
			<ellipse cx="301.748" cy="229.657" rx="5.734" ry="6.778"/>
		</g>
		<g>
			<circle fill="#C7C7C7" cx="212.821" cy="113.454" r="31.331"/>
			<path d="M212.821,148.785c-19.481,0-35.33-15.85-35.33-35.332c0-19.481,15.849-35.33,35.33-35.33
				c19.481,0,35.331,15.849,35.331,35.33C248.152,132.936,232.303,148.785,212.821,148.785z M212.821,86.123
				c-15.07,0-27.33,12.26-27.33,27.33c0,15.071,12.26,27.332,27.33,27.332c15.07,0,27.331-12.261,27.331-27.332
				C240.152,98.383,227.892,86.123,212.821,86.123z"/>
		</g>
	</g>
	<g id="rde훾a7bela_copy_3" display="inline">
	</g>
	<path display="inline" d="M11821.602,6664.561h-16737v-13953h16737V6664.561z M-4914.898,6663.561h16736l-0.5-13951h-16735.5
		l0.5,13951H-4914.898z"/>
</g>
<g id="linijsko" display="none">
	<g display="inline">
		<path fill="none" stroke="#000000" stroke-width="8" stroke-linecap="round" stroke-linejoin="round" stroke-miterlimit="10" d="
			M354.595,235.936l-17.832-4.251c-4.075-9.425-14.186-25.608-21.491-33.389c5.619-9.056,13.404-23.52,15.891-29.519
			c2.659-6.42-24.788-3.846-42.473,7.877c-19.397-12.188-38.362-15.183-64.707-15.183c-58.867,0-107.404,36.161-114.251,82.812
			c-15.57-2.137-14.083-28.275-15.799-29.705c-2.096-1.748-16.896,37.479,14.726,60.191c1.089,0.781,2.138,1.441,3.155,2.013
			c4.653,16.593,14.668,31.51,28.466,43.473v26.243c0,11.5,11.781,20.922,26.157,20.922c14.377,0,20.841-9.422,20.841-20.922v-0.244
			c18.178,4.201,52.771,3.932,74.471,0v0.221c0,11.498,5.404,20.92,19.77,20.92c14.38,0,26.161-9.422,26.123-26.054v-21.054
			c10.916-9.448,22.157-32.454,27.57-44.967l6.747,1.174c5.749,0,12.378-1.654,15.642-8.299l6.411-19.889
			C367.138,242.662,361.463,237.404,354.595,235.936z"/>
		<path fill="none" stroke="#000000" stroke-width="8" stroke-linecap="round" stroke-linejoin="round" stroke-miterlimit="10" d="
			M244.148,188.793c0.336,4.003-3.773,6.643-9.108,5.861c0,0-8.158-1.197-22.103,0.04c-13.935,1.237-23.754,5.957-23.754,5.957
			c-4.894,2.345-9.162,0.995-9.487-3.005c-0.326-4.006,3.413-9.205,8.309-11.555c0,0,9.812-4.719,23.75-5.954
			c13.94-1.235,22.1-0.042,22.1-0.042C239.19,180.871,243.827,184.79,244.148,188.793z"/>
		<g>
			
				<ellipse fill="none" stroke="#000000" stroke-width="6" stroke-linecap="round" stroke-linejoin="round" stroke-miterlimit="10" cx="297.737" cy="224.703" rx="9.889" ry="11.687"/>
			<ellipse fill="none" cx="301.748" cy="229.657" rx="5.734" ry="6.778"/>
		</g>
		
			<circle fill="none" stroke="#000000" stroke-width="8" stroke-linecap="round" stroke-linejoin="round" stroke-miterlimit="10" cx="212.821" cy="113.454" r="31.331"/>
	</g>
	<g id="rde훾a7bela_copy" display="inline">
	</g>
</g>
<g id="pivot">
	<circle fill="none" cx="226.535" cy="353.455" r="14.133"/>
</g>
</svg>
