<?xml version="1.0" encoding="utf-8"?>
<!-- Generator: Adobe Illustrator 16.0.0, SVG Export Plug-In . SVG Version: 6.00 Build 0)  -->
<!DOCTYPE svg PUBLIC "-//W3C//DTD SVG 1.1//EN" "http://www.w3.org/Graphics/SVG/1.1/DTD/svg11.dtd">
<svg version="1.1" xmlns="http://www.w3.org/2000/svg" xmlns:xlink="http://www.w3.org/1999/xlink" x="0px" y="0px"
	 width="453.543px" height="453.543px" viewBox="0 0 453.543 453.543" enable-background="new 0 0 453.543 453.543"
	 xml:space="preserve">
<g id="kvadrat">
</g>
<g id="bg" display="none">
	<rect x="-1343.195" y="-12990.767" display="inline" width="15266.867" height="13678.951"/>
</g>
<g id="barvno" display="none">
	<g id="rdeča7bela" display="inline">
	</g>
	<g display="inline">
		
			<path fill="#E73088" stroke="#000000" stroke-width="8" stroke-linecap="round" stroke-linejoin="round" stroke-miterlimit="10" d="
			M272.92,83.268c8.729,2.694,36.314,11.325,60.871,18.922c27.56,8.524,35.053,58.755,35.053,58.755l-23.053,43.476l-39.812-27.523
			c0,0,30.323,178.218,19.2,189.341c-5.385,5.386-191.432,5.386-196.816,0c-11.122-11.123,19.2-189.341,19.2-189.341l-39.811,27.523
			l-23.054-43.476c0,0,7.492-50.23,35.054-58.755c24.555-7.597,52.14-16.228,60.87-18.922c0,0,5.865,30,46.148,30
			S272.92,83.268,272.92,83.268z"/>
		<circle cx="227.148" cy="173.692" r="9.994"/>
		<circle cx="227.148" cy="222.081" r="9.994"/>
		<circle cx="227.148" cy="270.47" r="9.994"/>
		<circle cx="227.148" cy="318.859" r="9.994"/>
	</g>
	
		<rect x="-1853.48" y="-13410.775" display="inline" fill="none" stroke="#000000" stroke-miterlimit="10" width="16736" height="13952"/>
</g>
<g id="sivinsko">
	<g id="rdeča7bela_copy_3">
	</g>
	<g>
		<g>
			<path fill="#717171" d="M272.92,83.268c8.729,2.694,36.314,11.325,60.871,18.922c27.56,8.524,35.053,58.755,35.053,58.755
				l-23.053,43.476l-39.812-27.523c0,0,30.323,178.218,19.2,189.341c-5.385,5.386-191.432,5.386-196.816,0
				c-11.122-11.123,19.2-189.341,19.2-189.341l-39.811,27.523l-23.054-43.476c0,0,7.492-50.23,35.054-58.755
				c24.555-7.597,52.14-16.228,60.87-18.922c0,0,5.865,30,46.148,30S272.92,83.268,272.92,83.268z"/>
			<path d="M226.771,374.276c-25.014,0-48.556-0.359-66.288-1.013c-31.926-1.175-33.532-2.781-34.949-4.198
				c-2.71-2.711-8.351-8.352,4.293-102.204c4.46-33.099,9.692-65.783,12.24-81.303l-32.041,22.151
				c-0.939,0.65-2.112,0.867-3.222,0.596c-1.11-0.271-2.052-1.003-2.587-2.012l-23.054-43.476c-0.4-0.755-0.548-1.619-0.422-2.464
				c0.321-2.152,8.204-52.824,37.828-61.986c14.511-4.489,30.082-9.341,42.192-13.113c8.383-2.611,15.109-4.707,18.68-5.81
				c1.085-0.333,2.26-0.192,3.233,0.39c0.974,0.583,1.654,1.552,1.872,2.665c0.221,1.075,5.918,26.768,42.223,26.768
				s42.002-25.692,42.227-26.786c0.227-1.104,0.912-2.072,1.883-2.646s2.141-0.72,3.219-0.39c3.553,1.097,10.227,3.176,18.549,5.769
				c12.128,3.778,27.759,8.648,42.325,13.154c29.623,9.162,37.506,59.833,37.827,61.986c0.126,0.845-0.021,1.709-0.422,2.464
				l-23.053,43.476c-0.535,1.009-1.477,1.741-2.587,2.012c-1.11,0.273-2.282,0.054-3.222-0.596l-32.042-22.151
				c2.549,15.52,7.78,48.204,12.24,81.303c12.646,93.853,7.004,99.493,4.293,102.204c-1.416,1.417-3.022,3.023-34.948,4.198
				C275.327,373.917,251.786,374.276,226.771,374.276z M131.05,363.053c6.227,1.598,40.827,3.224,95.722,3.224
				s89.495-1.626,95.722-3.224c1.363-3.217,3.601-19.085-6.933-96.793c-6.068-44.763-13.45-88.258-13.524-88.692
				c-0.27-1.586,0.437-3.18,1.794-4.045c1.358-0.865,3.101-0.832,4.424,0.084l36.111,24.965l20.308-38.3
				c-1.369-7.624-9.531-47.291-32.063-54.261c-14.571-4.508-30.208-9.379-42.341-13.159c-5.916-1.843-10.999-3.427-14.718-4.581
				c-1.235,3.246-3.526,7.944-7.576,12.617c-6.478,7.473-18.885,16.38-41.203,16.38s-34.725-8.907-41.203-16.38
				c-4.05-4.673-6.341-9.371-7.576-12.617c-3.746,1.163-8.877,2.762-14.85,4.622c-12.114,3.774-27.69,8.627-42.208,13.118
				c-22.534,6.97-30.696,46.637-32.065,54.261l20.309,38.3l36.11-24.965c1.323-0.915,3.066-0.948,4.424-0.084
				c1.357,0.865,2.063,2.459,1.794,4.045c-0.074,0.435-7.459,43.947-13.526,88.71C127.449,343.966,129.687,359.835,131.05,363.053z"
				/>
		</g>
		<circle cx="227.148" cy="173.692" r="9.994"/>
		<circle cx="227.148" cy="222.081" r="9.994"/>
		<circle cx="227.148" cy="270.47" r="9.994"/>
		<circle cx="227.148" cy="318.859" r="9.994"/>
	</g>
	<path d="M14883.02,541.725h-16737v-13953h16737V541.725z M-1853.48,540.725h16736l-0.5-13951h-16735.5l0.5,13951H-1853.48z"/>
</g>
<g id="linijsko" display="none">
	<g id="rdeča7bela_copy" display="inline">
	</g>
	<g display="inline">
		<path fill="none" stroke="#000000" stroke-width="8" stroke-linecap="round" stroke-linejoin="round" stroke-miterlimit="10" d="
			M272.92,83.268c8.729,2.694,36.314,11.325,60.871,18.922c27.56,8.524,35.053,58.755,35.053,58.755l-23.053,43.476l-39.812-27.523
			c0,0,30.323,178.218,19.2,189.341c-5.385,5.386-191.432,5.386-196.816,0c-11.122-11.123,19.2-189.341,19.2-189.341l-39.811,27.523
			l-23.054-43.476c0,0,7.492-50.23,35.054-58.755c24.555-7.597,52.14-16.228,60.87-18.922c0,0,5.865,30,46.148,30
			S272.92,83.268,272.92,83.268z"/>
		<circle cx="227.148" cy="173.692" r="9.994"/>
		<circle cx="227.148" cy="222.081" r="9.994"/>
		<circle cx="227.148" cy="270.47" r="9.994"/>
		<circle cx="227.148" cy="318.859" r="9.994"/>
	</g>
</g>
<g id="pivot">
	<circle fill="none" cx="230.45" cy="371.772" r="14.133"/>
</g>
</svg>
