<?xml version="1.0" encoding="utf-8"?>
<!-- Generator: Adobe Illustrator 16.0.0, SVG Export Plug-In . SVG Version: 6.00 Build 0)  -->
<!DOCTYPE svg PUBLIC "-//W3C//DTD SVG 1.1//EN" "http://www.w3.org/Graphics/SVG/1.1/DTD/svg11.dtd">
<svg version="1.1" xmlns="http://www.w3.org/2000/svg" xmlns:xlink="http://www.w3.org/1999/xlink" x="0px" y="0px"
	 width="453.544px" height="453.543px" viewBox="0 0 453.544 453.543" enable-background="new 0 0 453.544 453.543"
	 xml:space="preserve">
<g id="kvadrat">
</g>
<g id="bg" display="none">
	<rect x="-9506.976" y="-2275.804" display="inline" width="15266.867" height="13678.951"/>
</g>
<g id="color" display="none">
	
		<path display="inline" fill="#57B2E5" stroke="#000000" stroke-width="8" stroke-linecap="round" stroke-linejoin="round" stroke-miterlimit="10" d="
		M226.771,114.785c-61.847,0-111.985,50.138-111.985,111.986s50.139,111.987,111.985,111.987
		c61.849,0,111.986-50.138,111.986-111.987S288.62,114.785,226.771,114.785z M200.644,267.583c-9.015,0-16.323-7.308-16.323-16.323
		c0-9.015,7.309-16.323,16.323-16.323c9.014,0,16.322,7.308,16.322,16.323C216.966,260.276,209.657,267.583,200.644,267.583z
		 M200.644,217.798c-9.015,0-16.323-7.308-16.323-16.323c0-9.015,7.309-16.323,16.323-16.323c9.014,0,16.322,7.308,16.322,16.323
		C216.966,210.49,209.657,217.798,200.644,217.798z M253.356,267.583c-9.014,0-16.323-7.308-16.323-16.323
		c0-9.015,7.31-16.323,16.323-16.323s16.323,7.308,16.323,16.323C269.68,260.276,262.37,267.583,253.356,267.583z M253.356,217.798
		c-9.014,0-16.323-7.308-16.323-16.323c0-9.015,7.31-16.323,16.323-16.323s16.323,7.308,16.323,16.323
		C269.68,210.49,262.37,217.798,253.356,217.798z"/>
	<g id="rdeča7bela" display="inline">
	</g>
	
		<rect x="-10017.261" y="-2695.813" display="inline" fill="none" stroke="#000000" stroke-miterlimit="10" width="16736" height="13952"/>
</g>
<g id="cb_1_">
	<g>
		<path fill="#9C9C9C" d="M226.771,114.785c-61.847,0-111.985,50.138-111.985,111.986s50.139,111.987,111.985,111.987
			c61.849,0,111.986-50.138,111.986-111.987S288.62,114.785,226.771,114.785z M200.644,267.583c-9.015,0-16.323-7.308-16.323-16.323
			c0-9.015,7.309-16.323,16.323-16.323c9.014,0,16.322,7.308,16.322,16.323C216.966,260.276,209.657,267.583,200.644,267.583z
			 M200.644,217.798c-9.015,0-16.323-7.308-16.323-16.323c0-9.015,7.309-16.323,16.323-16.323c9.014,0,16.322,7.308,16.322,16.323
			C216.966,210.49,209.657,217.798,200.644,217.798z M253.356,267.583c-9.014,0-16.323-7.308-16.323-16.323
			c0-9.015,7.31-16.323,16.323-16.323s16.323,7.308,16.323,16.323C269.68,260.276,262.37,267.583,253.356,267.583z M253.356,217.798
			c-9.014,0-16.323-7.308-16.323-16.323c0-9.015,7.31-16.323,16.323-16.323s16.323,7.308,16.323,16.323
			C269.68,210.49,262.37,217.798,253.356,217.798z"/>
		<path d="M226.771,342.758c-63.954,0-115.985-52.031-115.985-115.987c0-63.955,52.031-115.986,115.985-115.986
			c63.955,0,115.986,52.031,115.986,115.986C342.758,290.727,290.727,342.758,226.771,342.758z M226.771,118.785
			c-59.543,0-107.985,48.442-107.985,107.986c0,59.544,48.442,107.987,107.985,107.987c59.544,0,107.986-48.443,107.986-107.987
			C334.758,167.228,286.315,118.785,226.771,118.785z M253.356,271.583c-11.206,0-20.323-9.117-20.323-20.323
			c0-11.206,9.117-20.323,20.323-20.323s20.323,9.117,20.323,20.323C273.68,262.467,264.563,271.583,253.356,271.583z
			 M253.356,238.937c-6.795,0-12.323,5.528-12.323,12.323c0,6.795,5.528,12.323,12.323,12.323s12.323-5.528,12.323-12.323
			C265.68,244.466,260.151,238.937,253.356,238.937z M200.644,271.583c-11.206,0-20.323-9.117-20.323-20.323
			c0-11.206,9.117-20.323,20.323-20.323s20.322,9.117,20.322,20.323C220.966,262.467,211.85,271.583,200.644,271.583z
			 M200.644,238.937c-6.795,0-12.323,5.528-12.323,12.323c0,6.795,5.528,12.323,12.323,12.323s12.322-5.528,12.322-12.323
			C212.966,244.466,207.438,238.937,200.644,238.937z M253.356,221.798c-11.206,0-20.323-9.117-20.323-20.323
			c0-11.206,9.117-20.323,20.323-20.323s20.323,9.117,20.323,20.323C273.68,212.682,264.563,221.798,253.356,221.798z
			 M253.356,189.152c-6.795,0-12.323,5.528-12.323,12.323c0,6.795,5.528,12.323,12.323,12.323s12.323-5.528,12.323-12.323
			C265.68,194.68,260.151,189.152,253.356,189.152z M200.644,221.798c-11.206,0-20.323-9.117-20.323-20.323
			c0-11.206,9.117-20.323,20.323-20.323s20.322,9.117,20.322,20.323C220.966,212.682,211.85,221.798,200.644,221.798z
			 M200.644,189.152c-6.795,0-12.323,5.528-12.323,12.323c0,6.795,5.528,12.323,12.323,12.323s12.322-5.528,12.322-12.323
			C212.966,194.68,207.438,189.152,200.644,189.152z"/>
	</g>
	<g id="rdeča7bela_copy_3">
	</g>
	<path d="M6719.239,11256.688h-16737v-13953h16737V11256.688z M-10017.261,11255.688h16736l-0.5-13951h-16735.5l0.5,13951
		H-10017.261z"/>
</g>
<g id="cb" display="none">
	
		<path display="inline" fill="none" stroke="#000000" stroke-width="8" stroke-linecap="round" stroke-linejoin="round" stroke-miterlimit="10" d="
		M226.771,114.785c-61.847,0-111.985,50.138-111.985,111.986s50.139,111.987,111.985,111.987
		c61.849,0,111.986-50.138,111.986-111.987S288.62,114.785,226.771,114.785z M200.644,267.583c-9.015,0-16.323-7.308-16.323-16.323
		c0-9.015,7.309-16.323,16.323-16.323c9.014,0,16.322,7.308,16.322,16.323C216.966,260.276,209.657,267.583,200.644,267.583z
		 M200.644,217.798c-9.015,0-16.323-7.308-16.323-16.323c0-9.015,7.309-16.323,16.323-16.323c9.014,0,16.322,7.308,16.322,16.323
		C216.966,210.49,209.657,217.798,200.644,217.798z M253.356,267.583c-9.014,0-16.323-7.308-16.323-16.323
		c0-9.015,7.31-16.323,16.323-16.323s16.323,7.308,16.323,16.323C269.68,260.276,262.37,267.583,253.356,267.583z M253.356,217.798
		c-9.014,0-16.323-7.308-16.323-16.323c0-9.015,7.31-16.323,16.323-16.323s16.323,7.308,16.323,16.323
		C269.68,210.49,262.37,217.798,253.356,217.798z"/>
	<g id="rdeča7bela_copy" display="inline">
	</g>
</g>
<g id="pivot">
	<circle fill="none" cx="229.78" cy="341.989" r="14.133"/>
</g>
</svg>
