<?xml version="1.0" encoding="utf-8"?>
<!-- Generator: Adobe Illustrator 16.0.0, SVG Export Plug-In . SVG Version: 6.00 Build 0)  -->
<!DOCTYPE svg PUBLIC "-//W3C//DTD SVG 1.1//EN" "http://www.w3.org/Graphics/SVG/1.1/DTD/svg11.dtd">
<svg version="1.1" xmlns="http://www.w3.org/2000/svg" xmlns:xlink="http://www.w3.org/1999/xlink" x="0px" y="0px"
	 width="453.543px" height="453.543px" viewBox="0 0 453.543 453.543" enable-background="new 0 0 453.543 453.543"
	 xml:space="preserve">
<g id="kvadrat">
</g>
<g id="bg" display="none">
	<rect x="-2873.904" y="-11460.058" display="inline" width="15266.867" height="13678.951"/>
</g>
<g id="barvno" display="none">
	<g id="rdeča7bela" display="inline">
	</g>
	
		<path display="inline" fill="#57B2E5" stroke="#000000" stroke-width="8" stroke-linecap="round" stroke-linejoin="round" stroke-miterlimit="10" d="
		M226.772,114.784c-61.848,0-111.986,50.138-111.986,111.986c0,61.848,50.139,111.986,111.986,111.986
		s111.986-50.139,111.986-111.986C338.758,164.922,288.62,114.784,226.772,114.784z M200.643,243.094
		c-9.013,0-16.322-7.308-16.322-16.323c0-9.015,7.309-16.322,16.322-16.322c9.014,0,16.322,7.308,16.322,16.322
		C216.965,235.786,209.657,243.094,200.643,243.094z M253.356,243.094c-9.014,0-16.322-7.308-16.322-16.323
		c0-9.015,7.309-16.322,16.322-16.322s16.324,7.308,16.324,16.322C269.68,235.786,262.37,243.094,253.356,243.094z"/>
	
		<rect x="-3384.189" y="-11880.066" display="inline" fill="none" stroke="#000000" stroke-miterlimit="10" width="16736" height="13952"/>
</g>
<g id="sivinsko">
	<g id="rdeča7bela_copy_3">
	</g>
	<g>
		<path fill="#9C9C9C" d="M226.772,114.784c-61.848,0-111.986,50.138-111.986,111.986c0,61.848,50.139,111.986,111.986,111.986
			s111.986-50.139,111.986-111.986C338.758,164.922,288.62,114.784,226.772,114.784z M200.643,243.094
			c-9.013,0-16.322-7.308-16.322-16.323c0-9.015,7.309-16.322,16.322-16.322c9.014,0,16.322,7.308,16.322,16.322
			C216.965,235.786,209.657,243.094,200.643,243.094z M253.356,243.094c-9.014,0-16.322-7.308-16.322-16.323
			c0-9.015,7.309-16.322,16.322-16.322s16.324,7.308,16.324,16.322C269.68,235.786,262.37,243.094,253.356,243.094z"/>
		<path d="M226.772,342.757c-63.955,0-115.986-52.031-115.986-115.986s52.031-115.986,115.986-115.986
			s115.986,52.031,115.986,115.986S290.727,342.757,226.772,342.757z M226.772,118.784c-59.544,0-107.986,48.442-107.986,107.986
			s48.442,107.986,107.986,107.986s107.986-48.442,107.986-107.986S286.316,118.784,226.772,118.784z M253.356,247.094
			c-11.206,0-20.322-9.117-20.322-20.323s9.116-20.322,20.322-20.322c11.207,0,20.324,9.116,20.324,20.322
			S264.563,247.094,253.356,247.094z M253.356,214.448c-6.794,0-12.322,5.527-12.322,12.322s5.528,12.323,12.322,12.323
			c6.796,0,12.324-5.528,12.324-12.323S260.152,214.448,253.356,214.448z M200.643,247.094c-11.206,0-20.322-9.117-20.322-20.323
			s9.116-20.322,20.322-20.322s20.322,9.116,20.322,20.322S211.848,247.094,200.643,247.094z M200.643,214.448
			c-6.794,0-12.322,5.527-12.322,12.322s5.528,12.323,12.322,12.323s12.322-5.528,12.322-12.323S207.437,214.448,200.643,214.448z"
			/>
	</g>
	<path d="M13352.311,2072.434h-16737v-13953h16737V2072.434z M-3384.189,2071.434h16736l-0.5-13951h-16735.5l0.5,13951H-3384.189z"
		/>
</g>
<g id="linijsko" display="none">
	<g id="rdeča7bela_copy" display="inline">
	</g>
	
		<path display="inline" fill="none" stroke="#000000" stroke-width="8" stroke-linecap="round" stroke-linejoin="round" stroke-miterlimit="10" d="
		M226.772,114.784c-61.848,0-111.986,50.138-111.986,111.986c0,61.848,50.139,111.986,111.986,111.986
		s111.986-50.139,111.986-111.986C338.758,164.922,288.62,114.784,226.772,114.784z M200.643,243.094
		c-9.013,0-16.322-7.308-16.322-16.323c0-9.015,7.309-16.322,16.322-16.322c9.014,0,16.322,7.308,16.322,16.322
		C216.965,235.786,209.657,243.094,200.643,243.094z M253.356,243.094c-9.014,0-16.322-7.308-16.322-16.323
		c0-9.015,7.309-16.322,16.322-16.322s16.324,7.308,16.324,16.322C269.68,235.786,262.37,243.094,253.356,243.094z"/>
</g>
<g id="pivot">
	<circle fill="none" cx="232.098" cy="341.915" r="14.133"/>
</g>
</svg>
