<?xml version="1.0" encoding="utf-8"?>
<!-- Generator: Adobe Illustrator 16.0.0, SVG Export Plug-In . SVG Version: 6.00 Build 0)  -->
<!DOCTYPE svg PUBLIC "-//W3C//DTD SVG 1.1//EN" "http://www.w3.org/Graphics/SVG/1.1/DTD/svg11.dtd">
<svg version="1.1" xmlns="http://www.w3.org/2000/svg" xmlns:xlink="http://www.w3.org/1999/xlink" x="0px" y="0px"
	 width="453.543px" height="453.543px" viewBox="0 0 453.543 453.543" enable-background="new 0 0 453.543 453.543"
	 xml:space="preserve">
<g id="kvadrat">
</g>
<g id="bg" display="none">
	<rect x="-2873.904" y="-2275.804" display="inline" width="15266.867" height="13678.951"/>
</g>
<g id="color" display="none">
	<g display="inline">
		
			<path fill="#93C01F" stroke="#000000" stroke-width="8" stroke-linecap="round" stroke-linejoin="round" stroke-miterlimit="10" d="
			M227.104,121.566h123.042l38.878,206.129H253.937c0,0-15.248-58.968-26.905-58.968c-11.657,0-21.29,53.354-26.903,58.968
			c-5.613,5.613-129.286,5.804-135.089,0c-5.803-5.803,38.88-206.129,38.88-206.129h123.042H227.104z"/>
		
			<path fill="#93C01F" stroke="#000000" stroke-width="8" stroke-linecap="round" stroke-linejoin="round" stroke-miterlimit="10" d="
			M349.622,121.566H226.771h-0.001H103.919c0,0-44.684,200.326-38.88,206.129c5.804,5.804,129.477,5.613,135.089,0
			c5.571-5.572,15.103-58.163,26.642-58.949c11.539,0.786,21.071,53.377,26.642,58.949c5.613,5.613,129.286,5.804,135.089,0
			C394.306,321.892,349.622,121.566,349.622,121.566z"/>
		
			<line fill="none" stroke="#000000" stroke-width="8" stroke-linecap="round" stroke-linejoin="round" stroke-miterlimit="10" x1="227.032" y1="198.898" x2="227.032" y2="147.488"/>
		<path fill="none" stroke="#000000" stroke-width="8" stroke-linecap="round" stroke-linejoin="round" stroke-miterlimit="10" d="
			M89.083,211.464c44.376,0,91.409-30.74,91.409-63.977"/>
		<path fill="none" stroke="#000000" stroke-width="8" stroke-linecap="round" stroke-linejoin="round" stroke-miterlimit="10" d="
			M363.76,211.464c-44.374,0-93.607-30.74-93.607-63.977"/>
		<polygon stroke="#000000" stroke-width="8" stroke-linecap="round" stroke-linejoin="round" stroke-miterlimit="10" points="
			355.033,147.488 350.146,121.566 227.104,121.566 226.961,121.566 103.919,121.566 99.03,147.488 		"/>
	</g>
	<g id="rdeča7bela" display="inline">
	</g>
	
		<rect x="-3384.189" y="-2695.813" display="inline" fill="none" stroke="#000000" stroke-miterlimit="10" width="16736" height="13952"/>
</g>
<g id="cb_1_">
	<g>
		<g>
			<path fill="#A1A1A1" d="M227.104,121.566h123.042l38.878,206.129H253.937c0,0-15.248-58.968-26.905-58.968
				c-11.657,0-21.29,53.354-26.903,58.968c-5.613,5.613-129.286,5.804-135.089,0c-5.803-5.803,38.88-206.129,38.88-206.129h123.042
				H227.104z"/>
			<path d="M131.844,335.977c-16.794,0-32.627-0.379-44.582-1.068c-21.93-1.264-23.734-3.068-25.051-4.385
				c-2.414-2.414-5.15-5.151,16.174-108.875c10.333-50.258,21.519-100.452,21.63-100.954c0.408-1.828,2.031-3.129,3.904-3.129
				h246.226c1.923,0,3.574,1.369,3.931,3.259l38.804,205.733c0.107,0.36,0.164,0.742,0.164,1.137c0,2.209-1.791,4-4,4
				c-0.007,0-0.013,0-0.02,0H253.937c-1.823,0-3.416-1.233-3.873-2.998c-0.036-0.14-3.677-14.153-8.657-28.245
				c-9.312-26.346-14.228-27.684-14.441-27.729c0.035,0.012-2.491,0.538-6.905,10.997c-3.049,7.225-5.904,16.531-8.423,24.742
				c-3.891,12.684-6.044,19.425-8.68,22.062c-1.305,1.305-3.093,3.092-25.576,4.367
				C165.029,335.591,148.856,335.977,131.844,335.977z M68.474,324.88c5.83,1.564,28.727,3.098,63.37,3.097
				c35.949,0,61.202-1.689,65.651-3.365c1.497-2.203,4.258-11.203,6.495-18.496c7.669-25,13.417-41.387,23.042-41.387
				c4.996,0,11.468,3.818,21.59,32.137c3.862,10.804,6.977,21.714,8.381,26.83h127.196l-37.37-198.129H107.126
				C91.236,197.014,67.806,309.23,68.474,324.88z"/>
		</g>
		<g>
			<path fill="#A1A1A1" d="M349.622,121.566H226.771h-0.001H103.919c0,0-44.684,200.326-38.88,206.129
				c5.804,5.804,129.477,5.613,135.089,0c5.571-5.572,15.103-58.163,26.642-58.949c11.539,0.786,21.071,53.377,26.642,58.949
				c5.613,5.613,129.286,5.804,135.089,0C394.306,321.892,349.622,121.566,349.622,121.566z"/>
			<path d="M321.706,335.977c-0.003,0-0.004,0-0.007,0c-17.013,0-33.185-0.386-45.537-1.086
				c-22.484-1.275-24.271-3.062-25.576-4.367c-2.636-2.636-4.79-9.377-8.681-22.06c-2.519-8.209-5.374-17.514-8.423-24.738
				c-3.599-8.525-5.943-10.449-6.71-10.873c-0.765,0.423-3.108,2.345-6.708,10.873c-3.05,7.224-5.905,16.529-8.424,24.739
				c-3.891,12.681-6.044,19.421-8.68,22.058c-1.305,1.305-3.093,3.093-25.575,4.367c-12.352,0.7-28.525,1.086-45.539,1.086
				c-16.793,0-32.625-0.379-44.58-1.068c-21.932-1.264-23.736-3.068-25.052-4.385c-2.415-2.414-5.151-5.15,16.174-108.875
				c10.333-50.258,21.519-100.452,21.63-100.954c0.408-1.828,2.031-3.129,3.904-3.129h245.702c1.874,0,3.496,1.301,3.904,3.129
				c0.112,0.501,11.298,50.696,21.631,100.954c21.325,103.724,18.589,106.461,16.174,108.875c-1.317,1.317-3.121,3.121-25.051,4.385
				C354.328,335.598,338.497,335.977,321.706,335.977z M256.055,324.615c4.47,1.675,29.715,3.362,65.644,3.362
				c0.002,0,0.006,0,0.008,0c34.639,0,57.531-1.534,63.361-3.097c0.668-15.65-22.762-127.866-38.653-199.313H107.126
				C91.235,197.014,67.805,309.229,68.474,324.88c5.831,1.563,28.728,3.097,63.37,3.097c35.949,0,61.202-1.689,65.651-3.365
				c1.497-2.203,4.258-11.201,6.495-18.492c7.54-24.573,13.18-40.728,22.51-41.363c0.181-0.012,0.363-0.012,0.543,0
				c9.329,0.635,14.969,16.79,22.509,41.362C251.783,313.391,254.536,322.362,256.055,324.615z"/>
		</g>
		<path d="M227.032,202.898c-2.209,0-4-1.791-4-4v-51.41c0-2.209,1.791-4,4-4s4,1.791,4,4v51.41
			C231.032,201.107,229.241,202.898,227.032,202.898z"/>
		<path d="M89.083,215.464c-2.209,0-4-1.791-4-4s1.791-4,4-4c20.699,0,42.6-6.862,60.087-18.826
			c17.364-11.88,27.322-26.878,27.322-41.151c0-2.209,1.791-4,4-4s4,1.791,4,4c0,16.954-11.228,34.36-30.805,47.753
			C134.901,208.093,111.354,215.464,89.083,215.464z"/>
		<path d="M363.76,215.464c-22.044,0-46.588-7.548-65.654-20.191c-20.307-13.465-31.953-30.882-31.953-47.786c0-2.209,1.791-4,4-4
			s4,1.791,4,4c0,14.174,10.342,29.162,28.374,41.118c17.808,11.808,40.699,18.858,61.233,18.858c2.209,0,4,1.791,4,4
			S365.969,215.464,363.76,215.464z"/>
		<g>
			<polygon points="355.033,147.488 350.146,121.566 227.104,121.566 226.961,121.566 103.919,121.566 99.03,147.488 			"/>
			<path d="M355.033,151.488H99.03c-1.19,0-2.319-0.531-3.079-1.447c-0.76-0.917-1.072-2.125-0.852-3.295l4.89-25.921
				c0.356-1.89,2.008-3.259,3.931-3.259h246.226c1.923,0,3.574,1.369,3.931,3.259l4.888,25.921c0.221,1.17-0.091,2.377-0.851,3.294
				C357.353,150.957,356.224,151.488,355.033,151.488z M103.855,143.488h246.354l-3.379-17.921H107.235L103.855,143.488z"/>
		</g>
	</g>
	<g id="rdeča7bela_copy_3">
	</g>
	<path d="M13352.311,11256.688h-16737v-13953h16737V11256.688z M-3384.189,11255.688h16736l-0.5-13951h-16735.5l0.5,13951H-3384.189
		z"/>
</g>
<g id="cb" display="none">
	<g id="rdeča7bela_copy" display="inline">
	</g>
	<g display="inline">
		
			<line fill="none" stroke="#000000" stroke-width="8" stroke-linecap="round" stroke-linejoin="round" stroke-miterlimit="10" x1="227.032" y1="198.898" x2="227.032" y2="147.488"/>
		<path fill="none" stroke="#000000" stroke-width="8" stroke-linecap="round" stroke-linejoin="round" stroke-miterlimit="10" d="
			M89.083,211.464c44.376,0,91.409-30.74,91.409-63.977"/>
		<path fill="none" stroke="#000000" stroke-width="8" stroke-linecap="round" stroke-linejoin="round" stroke-miterlimit="10" d="
			M363.76,211.464c-44.374,0-93.607-30.74-93.607-63.977"/>
		
			<polygon fill="none" stroke="#000000" stroke-width="8" stroke-linecap="round" stroke-linejoin="round" stroke-miterlimit="10" points="
			355.033,147.488 350.146,121.566 227.104,121.566 226.961,121.566 103.919,121.566 99.03,147.488 		"/>
		<path fill="none" stroke="#000000" stroke-width="8" stroke-linecap="round" stroke-linejoin="round" stroke-miterlimit="10" d="
			M349.622,121.566H226.771h-0.001H103.919c0,0-44.684,200.326-38.88,206.129c5.804,5.804,129.477,5.613,135.089,0
			c5.571-5.572,15.103-58.163,26.642-58.949c11.539,0.786,21.071,53.377,26.642,58.949c5.613,5.613,129.286,5.804,135.089,0
			C394.306,321.892,349.622,121.566,349.622,121.566z"/>
	</g>
</g>
<g id="pivot">
	<circle fill="none" cx="229.457" cy="330.416" r="14.133"/>
</g>
</svg>
