<?xml version="1.0" encoding="utf-8"?>
<!-- Generator: Adobe Illustrator 16.0.0, SVG Export Plug-In . SVG Version: 6.00 Build 0)  -->
<!DOCTYPE svg PUBLIC "-//W3C//DTD SVG 1.1//EN" "http://www.w3.org/Graphics/SVG/1.1/DTD/svg11.dtd">
<svg version="1.1" xmlns="http://www.w3.org/2000/svg" xmlns:xlink="http://www.w3.org/1999/xlink" x="0px" y="0px"
	 width="453.543px" height="453.543px" viewBox="0 0 453.543 453.543" enable-background="new 0 0 453.543 453.543"
	 xml:space="preserve">
<g id="kvadrat">
</g>
<g id="bg" display="none">
	<rect x="-1853.431" y="-2275.804" display="inline" width="15266.867" height="13678.951"/>
</g>
<g id="color" display="none">
	<g display="inline">
		
			<path fill="#662482" stroke="#000000" stroke-width="8" stroke-linecap="round" stroke-linejoin="round" stroke-miterlimit="10" d="
			M224.604,111.248c-0.32-0.006-0.645-0.006-0.962-0.015v-0.006c-0.075,0.002-0.157,0.001-0.232,0.003
			c-0.077-0.002-0.156-0.001-0.233-0.003v0.006c-0.675,0.018-1.352,0.031-2.046,0.031c-29.31,0-41.838-13.566-48.62-33.556
			c-5.923,1.83-55.859,16.202-55.859,16.202L59.789,307.24l49.605,12.273l36.661-140.831l6.955-3.136
			c0,0-16.67,193.108-11.913,197.865c4.757,4.757,61.853,1.045,61.853,1.045l21.655-71.201V111.248z"/>
		
			<path fill="#662482" stroke="#000000" stroke-width="8" stroke-linecap="round" stroke-linejoin="round" stroke-miterlimit="10" d="
			M224.604,111.248c0.321-0.006,0.646-0.006,0.964-0.015v-0.006c0.075,0.002,0.156,0.001,0.232,0.003
			c0.076-0.002,0.156-0.001,0.232-0.003v0.006c0.675,0.018,1.352,0.031,2.046,0.031c29.31,0,41.838-13.566,48.619-33.556
			c5.925,1.83,55.86,16.202,55.86,16.202l61.197,212.319L343.066,321.9l-39.91-143.218l-6.956-3.136
			c0,0,17.202,192.576,11.914,197.865c-5.289,5.288-80.035,0-80.035,0h-2.046h-0.465h-0.964V111.248z"/>
		
			<line fill="none" stroke="#000000" stroke-width="8" stroke-linecap="round" stroke-linejoin="round" stroke-miterlimit="10" x1="247.008" y1="182.644" x2="270.722" y2="182.644"/>
		<circle cx="200.533" cy="205.742" r="7.833"/>
		<circle cx="200.533" cy="243.667" r="7.833"/>
		<circle cx="200.533" cy="281.592" r="7.833"/>
	</g>
	<g id="rdeča7bela" display="inline">
	</g>
	
		<rect x="-2363.716" y="-2695.813" display="inline" fill="none" stroke="#000000" stroke-miterlimit="10" width="16736" height="13952"/>
</g>
<g id="cb_1_">
	<g>
		<g>
			<path fill="#424242" d="M224.604,111.248c-0.32-0.006-0.645-0.006-0.962-0.015v-0.006c-0.075,0.002-0.157,0.001-0.232,0.003
				c-0.077-0.002-0.156-0.001-0.233-0.003v0.006c-0.675,0.018-1.352,0.031-2.046,0.031c-29.31,0-41.838-13.566-48.62-33.556
				c-5.923,1.83-55.859,16.202-55.859,16.202L59.789,307.24l49.605,12.273l36.661-140.831l6.955-3.136
				c0,0-16.67,193.108-11.913,197.865c4.757,4.757,61.853,1.045,61.853,1.045l21.655-71.201V111.248z"/>
			<path d="M164.097,379.834c-20.517,0-24.01-1.776-25.829-3.595c-2-2-4.268-4.267,3.012-103.836
				c2.487-34.021,5.289-68.063,6.745-85.413l-34.76,133.53c-0.552,2.119-2.707,3.401-4.832,2.875l-49.605-12.273
				c-1.042-0.258-1.937-0.923-2.482-1.847c-0.546-0.924-0.698-2.029-0.422-3.066L112.788,92.88c0.361-1.357,1.409-2.425,2.758-2.814
				c0.499-0.144,49.966-14.382,55.785-16.179c2.069-0.639,4.273,0.485,4.969,2.537c7.333,21.617,20.741,30.841,44.832,30.841
				c0.583,0,1.155-0.01,1.723-0.024c0.141-0.012,0.282-0.015,0.425-0.012l0.128,0.002l0.081-0.001
				c0.087-0.001,0.177,0.001,0.265,0.006v0l0.924,0.014c2.18,0.04,3.927,1.818,3.927,3.999v192.006c0,0.394-0.058,0.787-0.173,1.164
				l-21.655,71.201c-0.484,1.594-1.905,2.72-3.567,2.828C202.996,378.46,181.666,379.834,164.097,379.834z M144.447,370.607
				c1.758,0.463,6.631,1.227,19.65,1.227c13.608,0,29.539-0.838,35.834-1.204l20.673-67.971V115.263
				c-26.047-0.134-41.801-10.253-50.56-32.644c-11.253,3.314-41.605,12.06-50.11,14.509L64.703,304.335l41.816,10.346
				l35.665-137.007c0.305-1.171,1.124-2.142,2.227-2.639l6.955-3.136c1.294-0.583,2.8-0.438,3.957,0.383
				c1.158,0.821,1.794,2.193,1.672,3.607C151.048,244.781,142.615,355.953,144.447,370.607z"/>
		</g>
		<g>
			<path fill="#424242" d="M224.604,111.248c0.321-0.006,0.646-0.006,0.964-0.015v-0.006c0.075,0.002,0.156,0.001,0.232,0.003
				c0.076-0.002,0.156-0.001,0.232-0.003v0.006c0.675,0.018,1.352,0.031,2.046,0.031c29.31,0,41.838-13.566,48.619-33.556
				c5.925,1.83,55.86,16.202,55.86,16.202l61.197,212.319L343.066,321.9l-39.91-143.218l-6.956-3.136
				c0,0,17.202,192.576,11.914,197.865c-5.289,5.288-80.035,0-80.035,0h-2.046h-0.465h-0.964V111.248z"/>
			<path d="M285.014,379.761c-22.794,0-54.667-2.183-57.074-2.35h-3.335c-2.209,0-4-1.791-4-4V111.248
				c0-2.181,1.747-3.959,3.927-3.999l0.745-0.011c0.131-0.01,0.262-0.013,0.396-0.009l0.125,0.002l0.083-0.001
				c0.133-0.003,0.264,0,0.396,0.009c0.595,0.015,1.191,0.026,1.804,0.026c24.091,0,37.498-9.224,44.831-30.841
				c0.696-2.051,2.898-3.175,4.968-2.537c5.82,1.798,55.288,16.036,55.787,16.18c1.322,0.381,2.356,1.414,2.737,2.736
				l61.197,212.319c0.604,2.094-0.58,4.286-2.662,4.929l-50.689,15.671c-1.032,0.32-2.149,0.208-3.098-0.311
				c-0.948-0.517-1.646-1.396-1.937-2.437l-38.041-136.51c1.487,17.151,4.399,51.437,6.957,85.734
				c7.415,99.439,4.863,101.991,2.813,104.041C309.16,378.021,305.69,379.761,285.014,379.761z M228.604,369.437
				c3.063,0.212,34.168,2.323,56.41,2.323c13.226,0,18.098-0.751,19.825-1.199c2.173-14.456-6.471-125.783-12.623-194.66
				c-0.127-1.416,0.508-2.792,1.666-3.616c1.159-0.823,2.667-0.972,3.962-0.387l6.956,3.136c1.081,0.487,1.891,1.43,2.209,2.573
				l38.806,139.255l43.011-13.297L329.328,97.143c-8.436-2.429-38.887-11.203-50.163-14.523
				c-8.758,22.391-24.513,32.51-50.561,32.645V369.437z"/>
		</g>
		<path d="M270.722,186.644h-23.714c-2.209,0-4-1.791-4-4s1.791-4,4-4h23.714c2.209,0,4,1.791,4,4S272.931,186.644,270.722,186.644z
			"/>
		<circle cx="200.533" cy="205.742" r="7.833"/>
		<circle cx="200.533" cy="243.667" r="7.833"/>
		<circle cx="200.533" cy="281.592" r="7.833"/>
	</g>
	<g id="rdeča7bela_copy_3">
	</g>
	<path d="M14372.783,11256.688h-16737v-13953h16737V11256.688z M-2363.716,11255.688h16736l-0.5-13951h-16735.5l0.5,13951H-2363.716
		z"/>
</g>
<g id="cb" display="none">
	<g display="inline">
		<path fill="none" stroke="#000000" stroke-width="8" stroke-linecap="round" stroke-linejoin="round" stroke-miterlimit="10" d="
			M224.604,111.248c-0.32-0.006-0.645-0.006-0.962-0.015v-0.006c-0.075,0.002-0.157,0.001-0.232,0.003
			c-0.077-0.002-0.156-0.001-0.233-0.003v0.006c-0.675,0.018-1.352,0.031-2.046,0.031c-29.31,0-41.838-13.566-48.62-33.556
			c-5.923,1.83-55.859,16.202-55.859,16.202L59.789,307.24l49.605,12.273l36.661-140.831l6.955-3.136
			c0,0-16.67,193.108-11.913,197.865c4.757,4.757,61.853,1.045,61.853,1.045l21.655-71.201V111.248z"/>
		<path fill="none" stroke="#000000" stroke-width="8" stroke-linecap="round" stroke-linejoin="round" stroke-miterlimit="10" d="
			M224.604,111.248c0.321-0.006,0.646-0.006,0.964-0.015v-0.006c0.075,0.002,0.156,0.001,0.232,0.003
			c0.076-0.002,0.156-0.001,0.232-0.003v0.006c0.675,0.018,1.352,0.031,2.046,0.031c29.31,0,41.838-13.566,48.619-33.556
			c5.925,1.83,55.86,16.202,55.86,16.202l61.197,212.319L343.066,321.9l-39.91-143.218l-6.956-3.136
			c0,0,17.202,192.576,11.914,197.865c-5.289,5.288-80.035,0-80.035,0h-2.046h-0.465h-0.964V111.248z"/>
		
			<line fill="none" stroke="#000000" stroke-width="8" stroke-linecap="round" stroke-linejoin="round" stroke-miterlimit="10" x1="247.008" y1="182.644" x2="270.722" y2="182.644"/>
		<circle cx="200.533" cy="205.742" r="7.833"/>
		<circle cx="200.533" cy="243.667" r="7.833"/>
		<circle cx="200.533" cy="281.592" r="7.833"/>
	</g>
	<g id="rdeča7bela_copy" display="inline">
	</g>
</g>
<g id="pivot">
	<circle fill="none" cx="221.284" cy="370.925" r="14.133"/>
</g>
</svg>
