<?xml version="1.0" encoding="utf-8"?>
<!-- Generator: Adobe Illustrator 16.0.0, SVG Export Plug-In . SVG Version: 6.00 Build 0)  -->
<!DOCTYPE svg PUBLIC "-//W3C//DTD SVG 1.1//EN" "http://www.w3.org/Graphics/SVG/1.1/DTD/svg11.dtd">
<svg version="1.1" xmlns="http://www.w3.org/2000/svg" xmlns:xlink="http://www.w3.org/1999/xlink" x="0px" y="0px"
	 width="453.543px" height="453.543px" viewBox="0 0 453.543 453.543" enable-background="new 0 0 453.543 453.543"
	 xml:space="preserve">
<g id="kvadrat">
</g>
<g id="bg" display="none">
	<rect x="-4914.849" y="-10439.585" display="inline" width="15266.867" height="13678.951"/>
</g>
<g id="barvno" display="none">
	<g id="rdeča7bela" display="inline">
	</g>
	<g display="inline">
		<g>
			<g>
				
					<path fill="#57B2E5" stroke="#000000" stroke-width="8" stroke-linecap="round" stroke-linejoin="round" stroke-miterlimit="10" d="
					M359.967,321.94v-51.571c0-73.175-59.318-132.491-132.492-132.491c-73.172,0-132.492,59.316-132.492,132.491v51.571H359.967z"/>
			</g>
			
				<path fill="#57B2E5" stroke="#000000" stroke-width="8" stroke-linecap="round" stroke-linejoin="round" stroke-miterlimit="10" d="
				M353.264,230.834l-23.797,21.609l-25.764-23.397l-25.762,23.397l-25.76-23.397l-25.76,23.397l-25.76-23.397l-25.756,23.397
				l-25.756-23.397l-25.753,23.397l-23.263-21.131c-3.803,12.347-5.855,25.462-5.855,39.057v51.571h264.984v-51.571
				C359.264,256.599,357.162,243.319,353.264,230.834z"/>
		</g>
		<g>
			
				<circle fill="#FFFFFF" stroke="#000000" stroke-width="8" stroke-linecap="round" stroke-linejoin="round" stroke-miterlimit="10" cx="227.476" cy="117.496" r="35.827"/>
		</g>
		<g>
			<g>
				<path fill="#00497E" d="M373.256,361.873c0,5.501-4.5,10.001-10,10.001H90.288c-5.5,0-10-4.5-10-10.001v-45.525
					c0-5.5,4.5-10,10-10h272.968c5.5,0,10,4.5,10,10V361.873z"/>
				
					<path fill="none" stroke="#000000" stroke-width="8" stroke-linecap="round" stroke-linejoin="round" stroke-miterlimit="10" d="
					M373.256,361.873c0,5.501-4.5,10.001-10,10.001H90.288c-5.5,0-10-4.5-10-10.001v-45.525c0-5.5,4.5-10,10-10h272.968
					c5.5,0,10,4.5,10,10V361.873z"/>
			</g>
		</g>
	</g>
	
		<rect x="-5425.134" y="-10859.594" display="inline" fill="none" stroke="#000000" stroke-miterlimit="10" width="16736" height="13952"/>
</g>
<g id="sivinsko">
	<g id="rdeča7bela_copy_3">
	</g>
	<g>
		<g>
			<g>
				<g>
					<path fill="#9C9C9C" d="M359.967,321.94v-51.571c0-73.175-59.318-132.491-132.492-132.491
						c-73.172,0-132.492,59.316-132.492,132.491v51.571H359.967z"/>
					<path d="M359.967,325.94H94.982c-2.209,0-4-1.791-4-4v-51.571c0-75.262,61.23-136.491,136.492-136.491
						s136.492,61.229,136.492,136.491v51.571C363.967,324.149,362.176,325.94,359.967,325.94z M98.982,317.94h256.984v-47.571
						c0-70.851-57.641-128.491-128.492-128.491S98.982,199.519,98.982,270.369V317.94z"/>
				</g>
			</g>
			<g>
				<path fill="#9C9C9C" d="M353.264,230.834l-23.797,21.609l-25.764-23.397l-25.762,23.397l-25.76-23.397l-25.76,23.397
					l-25.76-23.397l-25.756,23.397l-25.756-23.397l-25.753,23.397l-23.263-21.131c-3.803,12.347-5.855,25.462-5.855,39.057v51.571
					h264.984v-51.571C359.264,256.599,357.162,243.319,353.264,230.834z"/>
				<path d="M359.264,325.94H94.279c-2.209,0-4-1.791-4-4v-51.571c0-13.703,2.029-27.24,6.032-40.234
					c0.403-1.308,1.446-2.318,2.766-2.681c1.32-0.359,2.732-0.022,3.746,0.897l20.573,18.688l23.063-20.954
					c1.525-1.385,3.854-1.385,5.379,0l23.066,20.954l23.066-20.954c1.525-1.385,3.854-1.385,5.379,0l23.07,20.955l23.07-20.955
					c1.525-1.385,3.854-1.385,5.379,0l23.07,20.955l23.072-20.955c1.525-1.385,3.854-1.385,5.378,0l23.075,20.955l21.108-19.167
					c1.011-0.918,2.421-1.258,3.738-0.899c1.318,0.358,2.362,1.364,2.769,2.668c4.102,13.138,6.182,26.84,6.182,40.728v51.571
					C363.264,324.149,361.473,325.94,359.264,325.94z M98.279,317.94h256.984v-47.571c0-10.942-1.371-21.761-4.079-32.244
					l-19.029,17.279c-1.524,1.385-3.853,1.385-5.378,0l-23.075-20.955l-23.072,20.955c-1.525,1.385-3.854,1.385-5.379,0
					l-23.07-20.955l-23.07,20.955c-1.525,1.385-3.854,1.385-5.379,0l-23.07-20.954l-23.066,20.954c-1.524,1.385-3.854,1.385-5.379,0
					L149.15,234.45l-23.063,20.954c-1.525,1.385-3.854,1.385-5.379,0l-18.474-16.78c-2.626,10.333-3.955,20.984-3.955,31.745V317.94
					z"/>
			</g>
		</g>
		<g>
			<g>
				<circle fill="#FFFFFF" cx="227.476" cy="117.496" r="35.827"/>
				<path d="M227.475,157.323c-21.96,0-39.826-17.866-39.826-39.827s17.866-39.827,39.826-39.827
					c21.961,0,39.828,17.866,39.828,39.827S249.436,157.323,227.475,157.323z M227.475,85.669
					c-17.549,0-31.826,14.277-31.826,31.827s14.277,31.827,31.826,31.827c17.55,0,31.828-14.277,31.828-31.827
					S245.025,85.669,227.475,85.669z"/>
			</g>
		</g>
		<g>
			<g>
				<g>
					<path fill="#393939" d="M373.256,361.873c0,5.501-4.5,10.001-10,10.001H90.288c-5.5,0-10-4.5-10-10.001v-45.525
						c0-5.5,4.5-10,10-10h272.968c5.5,0,10,4.5,10,10V361.873z"/>
				</g>
				<path d="M363.255,375.874H90.288c-7.72,0-14-6.281-14-14.001v-45.525c0-7.72,6.281-14,14-14h272.968c7.72,0,14,6.28,14,14
					v45.525C377.256,369.593,370.975,375.874,363.255,375.874z M90.288,310.348c-3.309,0-6,2.691-6,6v45.525
					c0,3.309,2.692,6.001,6,6.001h272.968c3.309,0,6-2.692,6-6.001v-45.525c0-3.309-2.692-6-6-6H90.288z"/>
			</g>
		</g>
	</g>
	<path d="M11311.365,3092.906h-16737v-13953h16737V3092.906z M-5425.134,3091.906h16736l-0.5-13951h-16735.5l0.5,13951H-5425.134z"
		/>
</g>
<g id="linijsko" display="none">
	<g id="rdeča7bela_copy" display="inline">
	</g>
	<g display="inline">
		<path fill="none" stroke="#000000" stroke-width="8" stroke-linecap="round" stroke-linejoin="round" stroke-miterlimit="10" d="
			M94.982,306.348v-35.979c0-13.411,2-26.354,5.705-38.555"/>
		<path fill="none" stroke="#000000" stroke-width="8" stroke-linecap="round" stroke-linejoin="round" stroke-miterlimit="10" d="
			M100.688,231.814c13.927-45.856,52.044-81.181,99.499-91.117"/>
		<path fill="none" stroke="#000000" stroke-width="8" stroke-linecap="round" stroke-linejoin="round" stroke-miterlimit="10" d="
			M359.967,306.348v-35.979c0-63.818-45.122-117.091-105.202-129.672"/>
		<path fill="none" stroke="#000000" stroke-width="8" stroke-linecap="round" stroke-linejoin="round" stroke-miterlimit="10" d="
			M94.279,306.348v-35.979c0-13.595,2.052-26.71,5.855-39.057l0.553,0.502"/>
		<path fill="none" stroke="#000000" stroke-width="8" stroke-linecap="round" stroke-linejoin="round" stroke-miterlimit="10" d="
			M359.264,306.348v-35.979c0-13.771-2.102-27.05-6-39.535l-23.797,21.609l-25.764-23.397l-25.762,23.397l-25.76-23.397
			l-25.76,23.397l-25.76-23.397l-25.756,23.397l-25.756-23.397l-25.753,23.397l-22.71-20.629"/>
		<path fill="none" stroke="#000000" stroke-width="8" stroke-linecap="round" stroke-linejoin="round" stroke-miterlimit="10" d="
			M254.765,140.697c-6.572,7.723-16.355,12.626-27.291,12.626c-10.934,0-20.717-4.904-27.289-12.626"/>
		<path fill="none" stroke="#000000" stroke-width="8" stroke-linecap="round" stroke-linejoin="round" stroke-miterlimit="10" d="
			M254.765,140.697c5.32-6.252,8.538-14.349,8.538-23.201c0-19.788-16.039-35.827-35.828-35.827
			c-19.787,0-35.826,16.039-35.826,35.827c0,8.853,3.217,16.949,8.538,23.201"/>
		
			<line fill="none" stroke="#000000" stroke-width="8" stroke-linecap="round" stroke-linejoin="round" stroke-miterlimit="10" x1="359.264" y1="306.348" x2="359.967" y2="306.348"/>
		
			<polyline fill="none" stroke="#000000" stroke-width="8" stroke-linecap="round" stroke-linejoin="round" stroke-miterlimit="10" points="
			94.279,306.348 80.287,306.348 80.287,371.874 373.256,371.874 373.256,306.348 359.967,306.348 		"/>
		
			<line fill="none" stroke="#000000" stroke-width="8" stroke-linecap="round" stroke-linejoin="round" stroke-miterlimit="10" x1="94.982" y1="306.348" x2="359.264" y2="306.348"/>
		
			<line fill="none" stroke="#000000" stroke-width="8" stroke-linecap="round" stroke-linejoin="round" stroke-miterlimit="10" x1="94.982" y1="306.348" x2="94.279" y2="306.348"/>
	</g>
</g>
<g id="pivot">
	<circle fill="none" cx="223.757" cy="370.406" r="14.133"/>
</g>
</svg>
