<?xml version="1.0" encoding="utf-8"?>
<!-- Generator: Adobe Illustrator 16.0.0, SVG Export Plug-In . SVG Version: 6.00 Build 0)  -->
<!DOCTYPE svg PUBLIC "-//W3C//DTD SVG 1.1//EN" "http://www.w3.org/Graphics/SVG/1.1/DTD/svg11.dtd">
<svg version="1.1" xmlns="http://www.w3.org/2000/svg" xmlns:xlink="http://www.w3.org/1999/xlink" x="0px" y="0px"
	 width="453.543px" height="453.543px" viewBox="0 0 453.543 453.543" enable-background="new 0 0 453.543 453.543"
	 xml:space="preserve">
<g id="kvadrat">
</g>
<g id="bg" display="none">
	<rect x="-4404.613" y="-2275.804" display="inline" width="15266.867" height="13678.951"/>
</g>
<g id="color" display="none">
	
		<path display="inline" fill="#941B80" stroke="#000000" stroke-width="8" stroke-linecap="round" stroke-linejoin="round" stroke-miterlimit="10" d="
		M291.686,222.888c0-32.616,9.715-45.424,9.986-69.335c0.529-46.655,2.932-86,2.932-86l-33.773-6.997
		c0,67.826-24.627,82.265-42.877,82.265c-0.391,0-0.785-0.008-1.182-0.022c-0.396,0.015-0.793,0.022-1.184,0.022
		c-18.25,0-42.875-14.438-42.875-82.265l-33.775,6.997c0,0,2.404,39.345,2.932,86c0.271,23.912,9.988,36.719,9.988,69.335
		c0,32.618-15.225,57.344-15.225,57.344l0.008,30.88v7.098c0.025,0.128-0.025,0.258,0,0.387
		c42.262,3.511,59.811,39.25,66.787,74.227c1.563,0.131,5.455,0.174,12.16,0.162c0.395,0,0.789,0,1.184,0c0.393,0,0.787,0,1.182,0
		c6.707,0.011,10.598-0.031,12.16-0.162c6.977-34.977,24.525-70.716,66.789-74.227c0.025-0.13-0.025-0.259,0-0.387v-7.098
		l0.006-30.88C306.909,280.231,291.686,255.506,291.686,222.888z"/>
	<g id="rdeča7bela" display="inline">
	</g>
	
		<rect x="-4914.898" y="-2695.813" display="inline" fill="none" stroke="#000000" stroke-miterlimit="10" width="16736" height="13952"/>
</g>
<g id="cb_1_">
	<g>
		<path fill="#4A4A4A" d="M291.686,222.888c0-32.616,9.715-45.424,9.986-69.335c0.529-46.655,2.932-86,2.932-86l-33.773-6.997
			c0,67.826-24.627,82.265-42.877,82.265c-0.391,0-0.785-0.008-1.182-0.022c-0.396,0.015-0.793,0.022-1.184,0.022
			c-18.25,0-42.875-14.438-42.875-82.265l-33.775,6.997c0,0,2.404,39.345,2.932,86c0.271,23.912,9.988,36.719,9.988,69.335
			c0,32.618-15.225,57.344-15.225,57.344l0.008,30.88v7.098c0.025,0.128-0.025,0.258,0,0.387
			c42.262,3.511,59.811,39.25,66.787,74.227c1.563,0.131,5.455,0.174,12.16,0.162c0.395,0,0.789,0,1.184,0c0.393,0,0.787,0,1.182,0
			c6.707,0.011,10.598-0.031,12.16-0.162c6.977-34.977,24.525-70.716,66.789-74.227c0.025-0.13-0.025-0.259,0-0.387v-7.098
			l0.006-30.88C306.909,280.231,291.686,255.506,291.686,222.888z"/>
		<path d="M229.901,396.987l-1.954-0.002l-1.17,0l-1.188,0l-1.947,0.002c-5.906,0-9.06-0.053-10.548-0.178
			c-1.776-0.149-3.24-1.456-3.588-3.204c-8.852-44.379-30.114-68.275-63.195-71.023c-1.783-0.148-3.25-1.462-3.594-3.217
			c-0.086-0.439-0.091-0.82-0.074-1.112c0-0.015,0-0.03,0-0.045l-0.008-37.977c0-0.741,0.206-1.467,0.594-2.098
			c0.145-0.235,14.631-24.228,14.631-55.246c0-17.288-2.765-28.691-5.439-39.719c-2.273-9.374-4.42-18.228-4.549-29.571
			c-0.52-46.023-2.9-85.409-2.924-85.801c-0.121-1.985,1.234-3.757,3.181-4.161l33.775-6.997c1.178-0.244,2.403,0.055,3.337,0.815
			c0.933,0.759,1.475,1.899,1.475,3.102c0,49.738,14.169,78.265,38.875,78.265c0.342,0,0.689-0.007,1.036-0.02
			c0.098-0.004,0.197-0.004,0.295,0c0.347,0.013,0.692,0.02,1.034,0.02c24.707,0,38.877-28.526,38.877-78.265
			c0-1.203,0.542-2.343,1.475-3.102c0.934-0.76,2.159-1.059,3.337-0.815l33.773,6.997c1.947,0.403,3.302,2.176,3.181,4.16
			c-0.024,0.393-2.402,39.79-2.924,85.802c-0.129,11.342-2.276,20.197-4.548,29.571c-2.673,11.028-5.438,22.431-5.438,39.719
			c0,31.019,14.485,55.011,14.631,55.25c0.386,0.629,0.592,1.356,0.592,2.094l-0.006,37.977c0,0.016,0,0.031,0,0.047
			c0.016,0.294,0.011,0.673-0.074,1.11c-0.344,1.755-1.812,3.069-3.594,3.217c-33.083,2.748-54.345,26.644-63.197,71.023
			c-0.349,1.748-1.812,3.054-3.588,3.204C238.96,396.934,235.806,396.987,229.901,396.987z M227.954,388.986l1.947,0.002
			c2.161,0,4.836-0.006,6.935-0.043c9.581-44.099,32.344-69.563,66.067-73.944l0.006-33.68
			c-2.918-5.099-15.223-28.383-15.223-58.432c0-18.244,3.009-30.654,5.663-41.604c2.163-8.919,4.205-17.344,4.324-27.777
			c0.435-38.335,2.153-72.106,2.741-82.738l-25.627-5.309c-0.519,28.671-5.649,50.169-15.271,63.952
			c-10.043,14.388-22.707,17.408-31.562,17.408c-0.391,0-0.785-0.007-1.182-0.02c-0.396,0.013-0.792,0.02-1.184,0.02
			c-8.855,0-21.518-3.021-31.561-17.408c-9.621-13.783-14.751-35.281-15.27-63.952l-25.629,5.309
			c0.588,10.631,2.308,44.403,2.741,82.738c0.119,10.433,2.162,18.857,4.324,27.777c2.655,10.95,5.665,23.36,5.665,41.604
			c0,30.05-12.306,53.333-15.224,58.432l0.007,33.68c33.721,4.382,56.484,29.845,66.065,73.944c2.099,0.037,4.775,0.043,6.936,0.043
			l1.94-0.002l1.195,0L227.954,388.986z"/>
	</g>
	<g id="rdeča7bela_copy_3">
	</g>
	<path d="M11821.602,11256.688h-16737v-13953h16737V11256.688z M-4914.898,11255.688h16736l-0.5-13951h-16735.5l0.5,13951H-4914.898
		z"/>
</g>
<g id="cb" display="none">
	
		<path display="inline" fill="none" stroke="#000000" stroke-width="8" stroke-linecap="round" stroke-linejoin="round" stroke-miterlimit="10" d="
		M291.686,222.888c0-32.616,9.715-45.424,9.986-69.335c0.529-46.655,2.932-86,2.932-86l-33.773-6.997
		c0,67.826-24.627,82.265-42.877,82.265c-0.391,0-0.785-0.008-1.182-0.022c-0.396,0.015-0.793,0.022-1.184,0.022
		c-18.25,0-42.875-14.438-42.875-82.265l-33.775,6.997c0,0,2.404,39.345,2.932,86c0.271,23.912,9.988,36.719,9.988,69.335
		c0,32.618-15.225,57.344-15.225,57.344l0.008,30.88v7.098c0.025,0.128-0.025,0.258,0,0.387
		c42.262,3.511,59.811,39.25,66.787,74.227c1.563,0.131,5.455,0.174,12.16,0.162c0.395,0,0.789,0,1.184,0c0.393,0,0.787,0,1.182,0
		c6.707,0.011,10.598-0.031,12.16-0.162c6.977-34.977,24.525-70.716,66.789-74.227c0.025-0.13-0.025-0.259,0-0.387v-7.098
		l0.006-30.88C306.909,280.231,291.686,255.506,291.686,222.888z"/>
	<g id="rdeča7bela_copy" display="inline">
	</g>
</g>
<g id="pivot">
	<circle fill="none" cx="224.866" cy="389.733" r="14.133"/>
</g>
</svg>
