<?xml version="1.0" encoding="utf-8"?>
<!-- Generator: Adobe Illustrator 16.0.0, SVG Export Plug-In . SVG Version: 6.00 Build 0)  -->
<!DOCTYPE svg PUBLIC "-//W3C//DTD SVG 1.1//EN" "http://www.w3.org/Graphics/SVG/1.1/DTD/svg11.dtd">
<svg version="1.1" xmlns="http://www.w3.org/2000/svg" xmlns:xlink="http://www.w3.org/1999/xlink" x="0px" y="0px"
	 width="453.543px" height="453.543px" viewBox="0 0 453.543 453.543" enable-background="new 0 0 453.543 453.543"
	 xml:space="preserve">
<g id="kvadrat">
</g>
<g id="bg" display="none">
	<rect x="-3384.14" y="-2275.804" display="inline" width="15266.867" height="13678.951"/>
</g>
<g id="color" display="none">
	<g display="inline">
		
			<path fill="#FFCF00" stroke="#000000" stroke-width="8" stroke-linecap="round" stroke-linejoin="round" stroke-miterlimit="10" d="
			M88.045,373.086c23.005,0,23.005,10,46.008,10c23.006,0,23.006-10,46.011-10c23.006,0,23.006,10,46.012,10s23.006-10,46.011-10
			c23.008,0,23.008,10,46.018,10c23.009,0,23.009-10,46.017-10l0,0c11.836,0-56.492-302.629-56.492-302.629h-79.494h-0.092h-79.494
			C148.549,70.457,88.819,339.755,88.045,373.086"/>
		
			<polyline fill="none" stroke="#000000" stroke-width="8" stroke-linecap="round" stroke-linejoin="round" stroke-miterlimit="10" points="
			147.57,94.021 228.088,94.021 308.609,94.021 		"/>
		
			<line fill="none" stroke="#000000" stroke-width="8" stroke-linecap="round" stroke-linejoin="round" stroke-miterlimit="10" x1="184.08" y1="146.849" x2="188.502" y2="96.304"/>
		
			<line fill="none" stroke="#000000" stroke-width="8" stroke-linecap="round" stroke-linejoin="round" stroke-miterlimit="10" x1="276.609" y1="146.849" x2="272.188" y2="96.304"/>
	</g>
	<g id="rdeča7bela" display="inline">
	</g>
	
		<rect x="-3894.425" y="-2695.813" display="inline" fill="none" stroke="#000000" stroke-miterlimit="10" width="16736" height="13952"/>
</g>
<g id="cb_1_">
	<g>
		<g>
			<path fill="#C7C7C7" d="M88.045,373.086c23.005,0,23.005,10,46.008,10c23.006,0,23.006-10,46.011-10
				c23.006,0,23.006,10,46.012,10s23.006-10,46.011-10c23.008,0,23.008,10,46.018,10c23.009,0,23.009-10,46.017-10l0,0
				c11.836,0-56.492-302.629-56.492-302.629h-79.494h-0.092h-79.494C148.549,70.457,88.819,339.755,88.045,373.086"/>
			<path d="M318.104,387.086c-12.336,0-18.573-2.71-24.604-5.332c-5.524-2.401-10.742-4.668-21.414-4.668
				c-10.67,0-15.887,2.268-21.41,4.668c-6.03,2.621-12.266,5.332-24.601,5.332c-12.334,0-18.57-2.71-24.601-5.332
				c-5.523-2.401-10.74-4.668-21.411-4.668c-10.67,0-15.887,2.268-21.41,4.668c-6.03,2.621-12.266,5.332-24.601,5.332
				c-12.333,0-18.568-2.71-24.598-5.332c-5.522-2.401-10.739-4.668-21.41-4.668c-1.077,0-2.108-0.434-2.861-1.205
				c-0.752-0.77-1.163-1.812-1.138-2.888c0.775-33.339,58.156-292.39,60.598-303.402c0.406-1.831,2.03-3.134,3.905-3.134h159.08
				c1.87,0,3.49,1.295,3.902,3.119c0.165,0.729,16.632,73.735,31.822,147.137c31.098,150.271,26.789,155.661,24.474,158.557
				c-0.923,1.154-2.273,1.816-3.706,1.816c-10.672,0-15.89,2.268-21.413,4.668C336.677,384.375,330.441,387.086,318.104,387.086z
				 M272.087,369.086c12.336,0,18.572,2.71,24.603,5.331c5.524,2.401,10.742,4.669,21.415,4.669c10.673,0,15.891-2.268,21.415-4.668
				c5.591-2.43,11.359-4.937,22.002-5.29c0.475-7.173-2.327-36.698-26.701-154.168c-13.19-63.566-27.145-126.037-30.391-140.503
				H151.761c-6.438,29.152-55.388,251.639-59.455,294.745c9.595,0.545,15.046,2.915,20.339,5.215
				c5.522,2.401,10.739,4.668,21.409,4.668c10.671,0,15.889-2.268,21.412-4.668c6.03-2.621,12.266-5.332,24.6-5.332
				c12.335,0,18.57,2.71,24.601,5.332c5.523,2.401,10.74,4.668,21.411,4.668s15.888-2.268,21.411-4.668
				C253.518,371.796,259.753,369.086,272.087,369.086z"/>
		</g>
		<path d="M308.609,98.021H147.57c-2.209,0-4-1.791-4-4s1.791-4,4-4h161.039c2.209,0,4,1.791,4,4S310.818,98.021,308.609,98.021z"/>
		<path d="M184.084,150.849c-0.117,0-0.234-0.005-0.353-0.015c-2.201-0.193-3.829-2.133-3.636-4.333l4.422-50.545
			c0.192-2.2,2.133-3.824,4.333-3.636c2.201,0.193,3.829,2.133,3.636,4.333l-4.422,50.545
			C187.883,149.279,186.136,150.849,184.084,150.849z"/>
		<path d="M276.605,150.849c-2.052,0-3.798-1.569-3.98-3.651l-4.422-50.545c-0.192-2.201,1.436-4.141,3.636-4.333
			c2.208-0.19,4.141,1.436,4.333,3.636l4.422,50.545c0.192,2.201-1.436,4.141-3.636,4.333
			C276.839,150.844,276.722,150.849,276.605,150.849z"/>
	</g>
	<g id="rdeča7bela_copy_3">
	</g>
	<path d="M12842.074,11256.688h-16737v-13953h16737V11256.688z M-3894.425,11255.688h16736l-0.5-13951h-16735.5l0.5,13951H-3894.425
		z"/>
</g>
<g id="cb" display="none">
	<g display="inline">
		<path fill="none" stroke="#000000" stroke-width="8" stroke-linecap="round" stroke-linejoin="round" stroke-miterlimit="10" d="
			M88.045,373.086c23.005,0,23.005,10,46.008,10c23.006,0,23.006-10,46.011-10c23.006,0,23.006,10,46.012,10s23.006-10,46.011-10
			c23.008,0,23.008,10,46.018,10c23.009,0,23.009-10,46.017-10l0,0c11.836,0-56.492-302.629-56.492-302.629h-79.494h-0.092h-79.494
			C148.549,70.457,88.819,339.755,88.045,373.086"/>
		
			<polyline fill="none" stroke="#000000" stroke-width="8" stroke-linecap="round" stroke-linejoin="round" stroke-miterlimit="10" points="
			147.57,94.021 228.088,94.021 308.609,94.021 		"/>
		
			<line fill="none" stroke="#000000" stroke-width="8" stroke-linecap="round" stroke-linejoin="round" stroke-miterlimit="10" x1="184.08" y1="146.849" x2="188.502" y2="96.304"/>
		
			<line fill="none" stroke="#000000" stroke-width="8" stroke-linecap="round" stroke-linejoin="round" stroke-miterlimit="10" x1="276.609" y1="146.849" x2="272.188" y2="96.304"/>
	</g>
	<g id="rdeča7bela_copy" display="inline">
	</g>
</g>
<g id="pivot">
	<circle fill="none" cx="228.48" cy="378.159" r="14.133"/>
</g>
</svg>
