<?xml version="1.0" encoding="utf-8"?>
<!-- Generator: Adobe Illustrator 16.0.0, SVG Export Plug-In . SVG Version: 6.00 Build 0)  -->
<!DOCTYPE svg PUBLIC "-//W3C//DTD SVG 1.1//EN" "http://www.w3.org/Graphics/SVG/1.1/DTD/svg11.dtd">
<svg version="1.1" xmlns="http://www.w3.org/2000/svg" xmlns:xlink="http://www.w3.org/1999/xlink" x="0px" y="0px"
	 width="453.543px" height="453.543px" viewBox="0 0 453.543 453.543" enable-background="new 0 0 453.543 453.543"
	 xml:space="preserve">
<g id="kvadrat">
</g>
<g id="bg" display="none">
	<rect x="-5935.322" y="-2275.804" display="inline" width="15266.867" height="13678.951"/>
</g>
<g id="color" display="none">
	<g id="rdeča7bela" display="inline">
	</g>
	<g display="inline">
		<g id="XMLID_2_">
			<g>
				<path fill="#FFFFFF" d="M335.68,342.113c20.696-52.155-30.576-85.439-30.576-85.439l-74.645-49.748l0.893-131.765l-117.81-0.452
					v170.889c-5.88,47.868,33.159,65.288,44.279,72.575c11.109,7.297,103.215,57.235,103.215,57.235S314.995,394.288,335.68,342.113
					z"/>
			</g>
			<g>
				
					<path fill="none" stroke="#000000" stroke-width="8" stroke-linecap="round" stroke-linejoin="round" stroke-miterlimit="10" d="
					M230.459,206.926l74.645,49.748c0,0,51.272,33.284,30.576,85.439c-20.685,52.175-74.645,33.295-74.645,33.295
					S168.93,325.47,157.82,318.173c-11.12-7.287-50.159-24.707-44.279-72.575V74.709l117.81,0.452L230.459,206.926z"/>
			</g>
		</g>
		<g>
			<path stroke="#000000" stroke-width="8" stroke-linecap="round" stroke-linejoin="round" d="M159.338,315.913l13.252-69.541
				l-57.531-16.014C108.811,308.786,159.338,315.913,159.338,315.913z"/>
			<path stroke="#000000" stroke-width="8" stroke-linecap="round" stroke-linejoin="round" d="M261.504,375.248
				c20.118-72.04,72.157-85.165,72.157-85.165s15.855,36.485-6.979,68.393C303.851,390.381,261.504,375.248,261.504,375.248z"/>
			
				<line fill="none" stroke="#000000" stroke-width="8" stroke-linecap="round" stroke-linejoin="round" stroke-miterlimit="10" x1="115.512" y1="110.612" x2="229.785" y2="110.612"/>
		</g>
	</g>
	
		<rect x="-6445.607" y="-2695.813" display="inline" fill="none" stroke="#000000" stroke-miterlimit="10" width="16736" height="13952"/>
</g>
<g id="cb_1_">
	<g id="rdeča7bela_copy_3">
	</g>
	<g>
		<g id="XMLID_28_">
			<g>
				<path fill="#FFFFFF" d="M335.68,342.113c20.696-52.155-30.576-85.439-30.576-85.439l-74.645-49.748l0.893-131.765l-117.81-0.452
					v170.889c-5.88,47.868,33.159,65.288,44.279,72.575c11.109,7.297,103.215,57.235,103.215,57.235S314.995,394.288,335.68,342.113
					z"/>
			</g>
			<g>
				<path d="M283.115,382.737c-13.097,0-22.986-3.407-23.401-3.552c-0.202-0.071-0.397-0.157-0.585-0.259
					c-3.767-2.042-92.381-50.103-103.504-57.408c-1.059-0.694-2.444-1.519-4.048-2.475c-14.22-8.47-47.485-28.282-42.035-73.686
					V74.709c0-1.063,0.423-2.083,1.177-2.834c0.753-0.75,1.771-1.17,2.838-1.166l117.81,0.452c1.063,0.004,2.081,0.431,2.828,1.187
					s1.164,1.778,1.157,2.84l-0.878,129.607l72.848,48.551c0.51,0.331,13.564,8.902,24.124,24.219
					c14.18,20.568,16.93,43.399,7.952,66.023C326.57,375.945,301.71,382.737,283.115,382.737z M262.629,371.722
					c1.591,0.51,9.952,3.014,20.485,3.014c16.117,0,37.674-5.916,48.847-34.097c19.265-48.548-28.551-80.295-29.036-80.61
					l-74.685-49.775c-1.121-0.747-1.791-2.009-1.782-3.356l0.866-127.753l-109.783-0.421v166.873c0,0.163-0.01,0.326-0.03,0.488
					c-4.962,40.396,24.162,57.746,38.159,66.083c1.683,1.003,3.136,1.868,4.342,2.659
					C170.54,321.742,256.717,368.515,262.629,371.722z"/>
			</g>
		</g>
		<g>
			<g>
				<path d="M159.338,315.913l13.252-69.541l-57.531-16.014C108.811,308.786,159.338,315.913,159.338,315.913z"/>
				<path d="M159.342,319.913c-0.186,0-0.374-0.013-0.563-0.04c-0.569-0.08-14.077-2.107-26.72-14.467
					c-11.424-11.168-24.338-33.308-20.987-75.366c0.095-1.191,0.717-2.277,1.696-2.961c0.979-0.684,2.212-0.895,3.364-0.575
					l57.531,16.014c2.004,0.558,3.246,2.559,2.856,4.602l-13.252,69.541C162.903,318.57,161.233,319.913,159.342,319.913z
					 M118.73,235.532c-1.435,28.499,5.069,50.612,18.921,64.154c7.035,6.878,14.307,9.995,18.546,11.336l11.774-61.783
					L118.73,235.532z"/>
			</g>
			<g>
				<path d="M261.504,375.248c20.118-72.04,72.157-85.165,72.157-85.165s15.855,36.485-6.979,68.393
					C303.851,390.381,261.504,375.248,261.504,375.248z"/>
				<path d="M284.475,382.834c-13.476,0-23.881-3.664-24.317-3.82c-1.977-0.707-3.071-2.821-2.506-4.843
					c10.682-38.249,30.363-60.08,44.993-71.658c16.013-12.673,29.473-16.167,30.039-16.309c1.896-0.479,3.865,0.488,4.646,2.284
					c0.685,1.575,16.484,38.948-7.395,72.315C319.621,375.217,303.901,382.834,284.475,382.834z M266.463,372.531
					c3.852,0.984,10.432,2.303,18.012,2.303c16.975,0,30.082-6.287,38.954-18.686c17.284-24.152,10.837-51.568,7.792-61.045
					c-4.725,1.775-13.822,5.867-23.954,13.956C294.175,319.511,276.698,338.917,266.463,372.531z"/>
			</g>
			<path d="M229.785,114.612H115.512c-2.209,0-4-1.791-4-4s1.791-4,4-4h114.273c2.209,0,4,1.791,4,4
				S231.994,114.612,229.785,114.612z"/>
		</g>
	</g>
	<path d="M10290.893,11256.688h-16737v-13953h16737V11256.688z M-6445.607,11255.688h16736l-0.5-13951h-16735.5l0.5,13951H-6445.607
		z"/>
</g>
<g id="cb" display="none">
	<g id="rdeča7bela_copy" display="inline">
	</g>
	<g display="inline">
		<g id="XMLID_15_">
			<g>
				<path fill="none" d="M335.68,342.113c20.696-52.155-30.576-85.439-30.576-85.439l-74.645-49.748l0.893-131.765l-117.81-0.452
					v170.889c-5.88,47.868,33.159,65.288,44.279,72.575c11.109,7.297,103.215,57.235,103.215,57.235S314.995,394.288,335.68,342.113
					z"/>
			</g>
			<g>
				
					<path fill="none" stroke="#000000" stroke-width="8" stroke-linecap="round" stroke-linejoin="round" stroke-miterlimit="10" d="
					M230.459,206.926l74.645,49.748c0,0,51.272,33.284,30.576,85.439c-20.685,52.175-74.645,33.295-74.645,33.295
					S168.93,325.47,157.82,318.173c-11.12-7.287-50.159-24.707-44.279-72.575V74.709l117.81,0.452L230.459,206.926z"/>
			</g>
		</g>
		<g>
			<path fill="none" stroke="#000000" stroke-width="8" stroke-linecap="round" stroke-linejoin="round" d="M261.504,375.248
				c20.118-72.04,72.157-85.165,72.157-85.165s15.855,36.485-6.979,68.393C303.851,390.381,261.504,375.248,261.504,375.248z"/>
			
				<line fill="none" stroke="#000000" stroke-width="8" stroke-linecap="round" stroke-linejoin="round" stroke-miterlimit="10" x1="115.512" y1="110.612" x2="229.785" y2="110.612"/>
			<polyline fill="none" stroke="#000000" stroke-width="8" stroke-linecap="round" stroke-linejoin="round" points="
				115.06,230.358 172.59,246.372 157.82,318.173 			"/>
		</g>
	</g>
</g>
<g id="pivot">
	<circle fill="none" cx="220.701" cy="378.158" r="14.133"/>
</g>
</svg>
