<?xml version="1.0" encoding="utf-8"?>
<!-- Generator: Adobe Illustrator 16.0.0, SVG Export Plug-In . SVG Version: 6.00 Build 0)  -->
<!DOCTYPE svg PUBLIC "-//W3C//DTD SVG 1.1//EN" "http://www.w3.org/Graphics/SVG/1.1/DTD/svg11.dtd">
<svg version="1.1" xmlns="http://www.w3.org/2000/svg" xmlns:xlink="http://www.w3.org/1999/xlink" x="0px" y="0px"
	 width="453.544px" height="453.543px" viewBox="0 0 453.544 453.543" enable-background="new 0 0 453.544 453.543"
	 xml:space="preserve">
<g id="kvadrat">
</g>
<g id="bg" display="none">
	<rect x="-10527.448" y="-2275.804" display="inline" width="15266.867" height="13678.951"/>
</g>
<g id="color" display="none">
	<g id="rdeča7bela" display="inline">
	</g>
	<g display="inline">
		
			<path fill="#422918" stroke="#000000" stroke-width="8" stroke-linecap="round" stroke-linejoin="round" stroke-miterlimit="10" d="
			M394.904,201.901v50.994c-24.42-25.636-92.957-42.241-168.054-42.241c-75.11,0-143.645,16.596-168.057,42.241v-50.994
			c0-28.181,71.105-55.177,168.057-55.177C323.811,146.724,394.904,173.715,394.904,201.901z"/>
		
			<path fill="#B17F49" stroke="#000000" stroke-width="8" stroke-linecap="round" stroke-linejoin="round" stroke-miterlimit="10" d="
			M283.032,270.451l15.887,30.324c57.845-9.308,95.485-29.182,95.485-49.684v-50.994c-16.155,16.971-51.634,29.977-95.553,36.834
			L283.032,270.451z"/>
		
			<path fill="#B17F49" stroke="#000000" stroke-width="8" stroke-linecap="round" stroke-linejoin="round" stroke-miterlimit="10" d="
			M200.207,241.819c-63.736-1.479-120.642-17.348-141.567-41.222v49.901c0,26.544,59.29,52,141.567,53.881V241.819z"/>
		
			<rect x="176.419" y="237.291" fill="none" stroke="#000000" stroke-width="8" stroke-linecap="round" stroke-linejoin="round" stroke-miterlimit="10" width="62.981" height="69.528"/>
		
			<rect x="176.419" y="237.291" fill="none" stroke="#000000" stroke-width="12" stroke-linecap="round" stroke-linejoin="round" stroke-miterlimit="10" width="62.981" height="69.528"/>
		<g>
			<g>
				<g>
					<path d="M318.504,266.568c0.7,2.822-1.059,5.706-3.954,6.365c-2.892,0.666-5.761-1.149-6.335-4.01
						c-0.573-2.855,1.185-5.636,3.975-6.279C314.978,262.01,317.8,263.732,318.504,266.568z"/>
					<path d="M344.745,258.902c0.98,2.755-0.528,5.798-3.377,6.705c-2.841,0.948-5.836-0.674-6.663-3.45
						c-0.839-2.81,0.725-5.693,3.414-6.593C340.825,254.703,343.771,256.165,344.745,258.902z"/>
					<path d="M369.208,246.938c0.926,1.125,1.268,2.506,0.982,3.893c-0.278,1.349-1.182,2.849-2.563,3.593
						c-1.379,0.795-2.913,1.067-4.25,0.659c-1.342-0.396-2.475-1.305-3.133-2.606c-0.656-1.301-0.732-2.738-0.365-3.987
						c0.379-1.248,1.07-2.405,2.22-3.058c1.195-0.634,2.318-0.855,3.618-0.577C366.981,245.124,368.282,245.813,369.208,246.938z"/>
				</g>
			</g>
		</g>
		
			<line fill="none" stroke="#000000" stroke-width="10" stroke-linecap="round" stroke-linejoin="round" stroke-miterlimit="10" x1="214.904" y1="271.072" x2="177.244" y2="271.072"/>
	</g>
	
		<rect x="-11037.733" y="-2695.813" display="inline" fill="none" stroke="#000000" stroke-miterlimit="10" width="16736" height="13952"/>
</g>
<g id="cb_1_">
	<g id="rdeča7bela_copy_3">
	</g>
	<g>
		<g>
			<path fill="#2F2F2F" d="M394.904,201.901v50.994c-24.42-25.636-92.957-42.241-168.054-42.241
				c-75.11,0-143.645,16.596-168.057,42.241v-50.994c0-28.181,71.105-55.177,168.057-55.177
				C323.811,146.724,394.904,173.715,394.904,201.901z"/>
			<path d="M58.793,256.896c-0.499,0-1.002-0.094-1.484-0.286c-1.519-0.607-2.515-2.078-2.515-3.714v-50.994
				c0-15.885,17.889-30.779,50.372-41.94c32.353-11.116,75.567-17.238,121.685-17.238c46.122,0,89.338,6.121,121.687,17.236
				c32.479,11.16,50.367,26.055,50.367,41.942v50.994c0,1.635-0.996,3.106-2.515,3.714c-1.518,0.608-3.254,0.229-4.382-0.955
				c-23.36-24.523-89.731-41-165.157-41c-75.443,0-141.816,16.476-165.159,40.999C60.921,256.462,59.867,256.896,58.793,256.896z
				 M226.851,206.654c71.178,0,134.945,14.747,164.054,37.312v-42.065c0-24.206-67.374-51.177-164.054-51.177
				c-96.681,0-164.057,26.971-164.057,51.177v42.062C91.893,221.401,155.66,206.654,226.851,206.654z"/>
		</g>
		<g>
			<path fill="#888888" d="M283.032,270.451l15.887,30.324c57.845-9.308,95.485-29.182,95.485-49.684v-50.994
				c-16.155,16.971-51.634,29.977-95.553,36.834L283.032,270.451z"/>
			<path d="M298.918,304.775c-1.47,0-2.845-0.812-3.542-2.144l-15.887-30.324c-0.582-1.111-0.609-2.43-0.074-3.563l15.819-33.519
				c0.565-1.199,1.689-2.04,3-2.245c44.3-6.917,78.296-19.907,93.272-35.64c1.129-1.185,2.861-1.563,4.383-0.956
				c1.519,0.607,2.515,2.078,2.515,3.714v50.994c0,11.679-9.751,22.946-28.198,32.585c-17.513,9.15-41.943,16.429-70.651,21.048
				C299.342,304.759,299.129,304.775,298.918,304.775z M287.499,270.358l13.621,26c52.72-8.919,89.284-27.386,89.284-45.267v-42.032
				c-17.95,14.024-48.924,25.051-88.838,31.492L287.499,270.358z"/>
		</g>
		<g>
			<path fill="#888888" d="M200.207,241.819c-63.736-1.479-120.642-17.348-141.567-41.222v49.901c0,26.544,59.29,52,141.567,53.881
				V241.819z"/>
			<path d="M200.207,308.379c-0.03,0-0.061,0-0.092-0.001c-81.575-1.865-145.476-27.289-145.476-57.88v-49.901
				c0-1.666,1.032-3.157,2.592-3.744c1.562-0.586,3.319-0.145,4.416,1.107c19.609,22.372,75.329,38.39,138.652,39.86
				c2.173,0.051,3.907,1.826,3.907,3.999v62.56c0,1.077-0.435,2.108-1.204,2.861C202.255,307.971,201.251,308.379,200.207,308.379z
				 M62.64,209.95v40.548c0,22.194,53.489,47.153,133.567,49.768v-54.557C137.72,243.818,87.263,230.15,62.64,209.95z"/>
		</g>
		<path d="M239.4,310.819h-62.981c-2.209,0-4-1.791-4-4v-69.528c0-2.209,1.791-4,4-4H239.4c2.209,0,4,1.791,4,4v69.528
			C243.4,309.028,241.609,310.819,239.4,310.819z M180.419,302.819H235.4v-61.528h-54.981V302.819z"/>
		<path d="M239.4,312.819h-62.981c-3.313,0-6-2.686-6-6v-69.528c0-3.314,2.687-6,6-6H239.4c3.313,0,6,2.686,6,6v69.528
			C245.4,310.133,242.714,312.819,239.4,312.819z M182.419,300.819H233.4v-57.528h-50.981V300.819z"/>
		<g>
			<path d="M318.504,266.568c0.7,2.822-1.059,5.706-3.954,6.365c-2.892,0.666-5.761-1.149-6.335-4.01
				c-0.573-2.855,1.185-5.636,3.975-6.279C314.978,262.01,317.8,263.732,318.504,266.568z"/>
			<path d="M344.745,258.902c0.98,2.755-0.528,5.798-3.377,6.705c-2.841,0.948-5.836-0.674-6.663-3.45
				c-0.839-2.81,0.725-5.693,3.414-6.593C340.825,254.703,343.771,256.165,344.745,258.902z"/>
			<path d="M369.208,246.938c0.926,1.125,1.268,2.506,0.982,3.893c-0.278,1.349-1.182,2.849-2.563,3.593
				c-1.379,0.795-2.913,1.067-4.25,0.659c-1.342-0.396-2.475-1.305-3.133-2.606c-0.656-1.301-0.732-2.738-0.365-3.987
				c0.379-1.248,1.07-2.405,2.22-3.058c1.195-0.634,2.318-0.855,3.618-0.577C366.981,245.124,368.282,245.813,369.208,246.938z"/>
		</g>
		<path d="M214.904,276.072h-37.66c-2.762,0-5-2.239-5-5s2.238-5,5-5h37.66c2.762,0,5,2.239,5,5S217.666,276.072,214.904,276.072z"
			/>
	</g>
	<path d="M5698.767,11256.688h-16737v-13953h16737V11256.688z M-11037.733,11255.688h16736l-0.5-13951h-16735.5l0.5,13951
		H-11037.733z"/>
</g>
<g id="cb" display="none">
	<g id="rdeča7bela_copy" display="inline">
	</g>
	<g display="inline">
		<g>
			<path fill="none" stroke="#000000" stroke-width="8" stroke-linecap="round" stroke-linejoin="round" stroke-miterlimit="10" d="
				M345.132,226.418c22.052-6.932,39.327-15.874,49.272-26.321v50.994c0,0.409-0.04,0.817-0.07,1.226"/>
			<path fill="none" stroke="#000000" stroke-width="8" stroke-linecap="round" stroke-linejoin="round" stroke-miterlimit="10" d="
				M345.132,226.418c-13.77,4.329-29.397,7.877-46.28,10.513l-15.819,33.519l15.887,30.324c56.691-9.123,93.95-28.394,95.415-48.459
				"/>
			<path fill="none" stroke="#000000" stroke-width="8" stroke-linecap="round" stroke-linejoin="round" stroke-miterlimit="10" d="
				M58.837,200.809c1.808-27.782,72.316-54.085,168.014-54.085c96.96,0,168.054,26.991,168.054,55.177v50.994
				c-0.185-0.194-0.38-0.386-0.57-0.579"/>
			<path fill="none" stroke="#000000" stroke-width="8" stroke-linecap="round" stroke-linejoin="round" stroke-miterlimit="10" d="
				M345.132,226.418c-32.018-9.991-74.008-15.764-118.281-15.764c-45.553,0-88.683,6.106-121.022,16.63"/>
			<path fill="none" stroke="#000000" stroke-width="8" stroke-linecap="round" stroke-linejoin="round" stroke-miterlimit="10" d="
				M58.794,252.807v-50.906c0-0.364,0.02-0.728,0.043-1.092"/>
			
				<polyline fill="none" stroke="#000000" stroke-width="8" stroke-linecap="round" stroke-linejoin="round" stroke-miterlimit="10" points="
				58.794,252.807 58.794,252.896 58.802,252.887 			"/>
			<path fill="none" stroke="#000000" stroke-width="8" stroke-linecap="round" stroke-linejoin="round" stroke-miterlimit="10" d="
				M105.828,227.284c26.116,8.51,59.199,13.718,94.379,14.535v62.56c-79.806-1.824-137.981-25.829-141.405-51.492"/>
			<path fill="none" stroke="#000000" stroke-width="8" stroke-linecap="round" stroke-linejoin="round" stroke-miterlimit="10" d="
				M58.837,200.809c9.408,10.604,25.934,19.613,46.991,26.476"/>
			<path fill="none" stroke="#000000" stroke-width="8" stroke-linecap="round" stroke-linejoin="round" stroke-miterlimit="10" d="
				M58.837,200.809c-0.063-0.071-0.135-0.141-0.197-0.212v49.901c0,0.771,0.055,1.541,0.154,2.309"/>
			<path fill="none" stroke="#000000" stroke-width="8" stroke-linecap="round" stroke-linejoin="round" stroke-miterlimit="10" d="
				M58.794,252.807c0.004,0.026,0.005,0.053,0.008,0.08"/>
		</g>
		
			<rect x="176.419" y="237.291" fill="none" stroke="#000000" stroke-width="8" stroke-linecap="round" stroke-linejoin="round" stroke-miterlimit="10" width="62.981" height="69.528"/>
		
			<rect x="176.419" y="237.291" fill="none" stroke="#000000" stroke-width="12" stroke-linecap="round" stroke-linejoin="round" stroke-miterlimit="10" width="62.981" height="69.528"/>
		<g>
			<g>
				<g>
					<path d="M318.504,266.568c0.7,2.822-1.059,5.706-3.954,6.365c-2.892,0.666-5.761-1.149-6.335-4.01
						c-0.573-2.855,1.185-5.636,3.975-6.279C314.978,262.01,317.8,263.732,318.504,266.568z"/>
					<path d="M344.745,258.902c0.98,2.755-0.528,5.797-3.377,6.705c-2.841,0.948-5.836-0.674-6.663-3.45
						c-0.839-2.81,0.725-5.693,3.414-6.593C340.825,254.703,343.771,256.165,344.745,258.902z"/>
					<path d="M369.208,246.938c0.926,1.125,1.268,2.506,0.982,3.892c-0.278,1.35-1.182,2.85-2.563,3.594
						c-1.379,0.795-2.913,1.067-4.25,0.659c-1.342-0.396-2.475-1.305-3.133-2.606c-0.656-1.3-0.732-2.738-0.365-3.987
						c0.379-1.248,1.07-2.405,2.22-3.058c1.196-0.634,2.318-0.855,3.618-0.577C366.981,245.124,368.282,245.813,369.208,246.938z"/>
				</g>
			</g>
		</g>
		
			<line fill="none" stroke="#000000" stroke-width="10" stroke-linecap="round" stroke-linejoin="round" stroke-miterlimit="10" x1="214.904" y1="271.072" x2="177.244" y2="271.072"/>
	</g>
</g>
<g id="pivot">
	<circle fill="none" cx="232.167" cy="310.16" r="14.133"/>
</g>
</svg>
