<?xml version="1.0" encoding="utf-8"?>
<!-- Generator: Adobe Illustrator 16.0.0, SVG Export Plug-In . SVG Version: 6.00 Build 0)  -->
<!DOCTYPE svg PUBLIC "-//W3C//DTD SVG 1.1//EN" "http://www.w3.org/Graphics/SVG/1.1/DTD/svg11.dtd">
<svg version="1.1" xmlns="http://www.w3.org/2000/svg" xmlns:xlink="http://www.w3.org/1999/xlink" x="0px" y="0px"
	 width="453.543px" height="453.543px" viewBox="0 0 453.543 453.543" enable-background="new 0 0 453.543 453.543"
	 xml:space="preserve">
<g id="kvadrat">
</g>
<g id="bg" display="none">
	<rect x="-4914.849" y="-2275.804" display="inline" width="15266.867" height="13678.951"/>
</g>
<g id="color" display="none">
	<g display="inline">
		
			<path fill="#FFFFFF" stroke="#000000" stroke-width="8" stroke-linecap="round" stroke-linejoin="round" stroke-miterlimit="10" d="
			M72.501,184.858c70.438,5.853,117.154,68.75,128.781,127.046c5.098,0.424,44.178,0.296,48.451,0
			c11.682-59.083,59.668-122.265,131.346-127.236c0.029-0.151,0.055-0.303,0.084-0.454v-42.846H72.38v42.846
			C72.423,184.427,72.458,184.644,72.501,184.858z"/>
	</g>
	<g id="rdeča7bela" display="inline">
	</g>
	
		<rect x="-5425.134" y="-2695.813" display="inline" fill="none" stroke="#000000" stroke-miterlimit="10" width="16736" height="13952"/>
</g>
<g id="cb_1_">
	<g>
		<g>
			<path fill="#FFFFFF" d="M72.501,184.858c70.438,5.853,117.154,68.75,128.781,127.046c5.098,0.424,44.178,0.296,48.451,0
				c11.682-59.083,59.668-122.265,131.346-127.236c0.029-0.151,0.055-0.303,0.084-0.454v-42.846H72.38v42.846
				C72.423,184.427,72.458,184.644,72.501,184.858z"/>
			<path d="M222.974,316.176c-5.588,0-18.92-0.028-22.023-0.286c-1.777-0.148-3.242-1.455-3.591-3.204
				c-11.081-55.557-54.983-118.009-125.189-123.842c-1.775-0.147-3.239-1.451-3.59-3.198L68.458,185
				c-0.052-0.259-0.078-0.523-0.078-0.787v-42.846c0-2.209,1.791-4,4-4h308.783c2.209,0,4,1.791,4,4v42.846
				c0,0.256-0.024,0.511-0.073,0.763l-0.084,0.453c-0.345,1.779-1.842,3.104-3.65,3.229
				c-68.679,4.763-116.226,65.996-127.699,124.021c-0.35,1.772-1.845,3.09-3.647,3.215
				C247.466,316.071,234.266,316.176,222.974,316.176z M204.56,308.035c3.715,0.089,10.258,0.141,18.414,0.141
				c9.404,0,18.706-0.07,23.484-0.167c6.674-30.67,22.058-59.949,43.539-82.758c24.333-25.837,54.403-41.093,87.167-44.271v-35.613
				H76.38v35.848c32.178,3.561,61.675,18.994,85.503,44.785C182.839,248.68,197.919,277.705,204.56,308.035z"/>
		</g>
	</g>
	<g id="rdeča7bela_copy_3">
	</g>
	<path d="M11311.365,11256.688h-16737v-13953h16737V11256.688z M-5425.134,11255.688h16736l-0.5-13951h-16735.5l0.5,13951H-5425.134
		z"/>
</g>
<g id="cb" display="none">
	<g display="inline">
		<path fill="none" stroke="#000000" stroke-width="8" stroke-linecap="round" stroke-linejoin="round" stroke-miterlimit="10" d="
			M72.501,184.858c70.438,5.853,117.154,68.75,128.781,127.046c5.098,0.424,44.178,0.296,48.451,0
			c11.682-59.083,59.668-122.265,131.346-127.236c0.029-0.151,0.055-0.303,0.084-0.454v-42.846H72.38v42.846
			C72.423,184.427,72.458,184.644,72.501,184.858z"/>
	</g>
	<g id="rdeča7bela_copy" display="inline">
	</g>
</g>
<g id="pivot">
	<circle fill="none" cx="224.102" cy="313.054" r="14.133"/>
</g>
</svg>
