<?xml version="1.0" encoding="utf-8"?>
<!-- Generator: Adobe Illustrator 16.0.0, SVG Export Plug-In . SVG Version: 6.00 Build 0)  -->
<!DOCTYPE svg PUBLIC "-//W3C//DTD SVG 1.1//EN" "http://www.w3.org/Graphics/SVG/1.1/DTD/svg11.dtd">
<svg version="1.1" xmlns="http://www.w3.org/2000/svg" xmlns:xlink="http://www.w3.org/1999/xlink" x="0px" y="0px"
	 width="453.543px" height="453.543px" viewBox="0 0 453.543 453.543" enable-background="new 0 0 453.543 453.543"
	 xml:space="preserve">
<g id="kvadrat">
</g>
<g id="Layer_1">
</g>
<g id="Layer_2">
	
		<path fill="#7E4E24" stroke="#000000" stroke-width="8" stroke-linecap="round" stroke-linejoin="round" stroke-miterlimit="10" d="
		M134.329,206.75c0,0,36,116.364,36,134.33c0,17.966,127.394,17.966,127.394,0c0-17.965,36-134.33,36-134.33"/>
	
		<path fill="#35A8E0" stroke="#000000" stroke-width="8" stroke-linecap="round" stroke-linejoin="round" stroke-miterlimit="10" d="
		M134.329,206.75c0,0,36,116.364,36,134.33c0,17.966,127.394,17.966,127.394,0c0-17.965,36-134.33,36-134.33"/>
	
		<ellipse fill="#7E4E24" stroke="#000000" stroke-width="8" stroke-linecap="round" stroke-linejoin="round" stroke-miterlimit="10" cx="234.026" cy="206.75" rx="99.697" ry="32.53"/>
	
		<path fill="#FFFFFF" stroke="#000000" stroke-width="8" stroke-linecap="round" stroke-linejoin="round" stroke-miterlimit="10" d="
		M179.725,160.447c1.437,0,3.306-0.429,5.479-1.181c-0.989-2.537-1.537-5.295-1.537-8.182c0-12.455,10.097-22.551,22.55-22.551
		c1.817,0,3.582,0.221,5.273,0.626c-0.006-0.208-0.016-0.417-0.016-0.626c0-12.455,10.096-22.551,22.551-22.551
		s22.551,10.096,22.551,22.551c0,0.21-0.01,0.418-0.016,0.626c1.692-0.406,3.456-0.626,5.273-0.626
		c12.454,0,22.551,10.097,22.551,22.551c0,2.887-0.549,5.645-1.537,8.182c2.174,0.752,4.043,1.181,5.479,1.181
		c12.454,0,22.551,10.096,22.551,22.551c0,12.305-3.44,34.921-76.853,35.461c-73.412-0.541-76.852-23.156-76.852-35.461
		C157.174,170.543,167.27,160.447,179.725,160.447z"/>
	
		<circle fill="#E20613" stroke="#000000" stroke-width="8" stroke-linecap="round" stroke-linejoin="round" stroke-miterlimit="10" cx="266.705" cy="124.807" r="18.335"/>
	<path fill="none" stroke="#000000" stroke-width="8" stroke-linecap="round" stroke-linejoin="round" stroke-miterlimit="10" d="
		M271.673,118.913c0,0,6.04-29.26,33.248-34.505"/>
	
		<path fill="#7E4E24" stroke="#000000" stroke-width="8" stroke-linecap="round" stroke-linejoin="round" stroke-miterlimit="10" d="
		M333.723,206.75"/>
	
		<path fill="#FFFFFF" stroke="#000000" stroke-width="8" stroke-linecap="round" stroke-linejoin="round" stroke-miterlimit="10" d="
		M285.639,160.274c0,0-32.336,0.831-34.606,33.735"/>
	
		<path fill="#FFFFFF" stroke="#000000" stroke-width="8" stroke-linecap="round" stroke-linejoin="round" stroke-miterlimit="10" d="
		M232.824,153.319c0,0-4.563-26.298-28.361-24.611"/>
	
		<line fill="none" stroke="#000000" stroke-width="8" stroke-linecap="round" stroke-linejoin="round" stroke-miterlimit="10" x1="291.721" y1="235.402" x2="270.604" y2="352.344"/>
	
		<line fill="none" stroke="#000000" stroke-width="8" stroke-linecap="round" stroke-linejoin="round" stroke-miterlimit="10" x1="257.067" y1="242.757" x2="248.365" y2="349.563"/>
	
		<line fill="none" stroke="#000000" stroke-width="8" stroke-linecap="round" stroke-linejoin="round" stroke-miterlimit="10" x1="222.422" y1="242.757" x2="223.047" y2="354.372"/>
	
		<line fill="none" stroke="#000000" stroke-width="8" stroke-linecap="round" stroke-linejoin="round" stroke-miterlimit="10" x1="182.391" y1="239.281" x2="197.426" y2="349.563"/>
	<g id="rdeÄa7bela">
	</g>
</g>
</svg>
