<?xml version="1.0" encoding="utf-8"?>
<!-- Generator: Adobe Illustrator 16.0.0, SVG Export Plug-In . SVG Version: 6.00 Build 0)  -->
<!DOCTYPE svg PUBLIC "-//W3C//DTD SVG 1.1//EN" "http://www.w3.org/Graphics/SVG/1.1/DTD/svg11.dtd">
<svg version="1.1" xmlns="http://www.w3.org/2000/svg" xmlns:xlink="http://www.w3.org/1999/xlink" x="0px" y="0px"
	 width="453.543px" height="453.543px" viewBox="0 0 453.543 453.543" enable-background="new 0 0 453.543 453.543"
	 xml:space="preserve">
<g id="kvadrat">
	<rect x="-453.543" y="-453.543" fill="none" width="453.543" height="453.543"/>
	<rect y="-453.543" fill="none" width="453.543" height="453.543"/>
	<rect x="453.543" y="-453.543" fill="none" width="453.545" height="453.543"/>
</g>
<g id="Layer_1">
</g>
<g id="Layer_2">
	<g id="rdeÄa7bela">
	</g>
	
		<path fill="#D9D9D9" stroke="#000000" stroke-width="8" stroke-linecap="round" stroke-linejoin="round" stroke-miterlimit="10" d="
		M241.083,59.59c7.514,0,13.61,6.1,13.61,13.615l0.013,300.264c0,11.312-9.168,20.484-20.484,20.484
		c-11.32,0-20.489-9.172-20.489-20.484l9.351-121.601c0-5.353-6.049-17.23-9.415-20.885l-0.968-5.538l-4.55-4.799l1.023-6.54
		l-4.282-5.047l1.361-6.478l-4.017-5.26l1.691-6.403l-3.738-5.468l2.034-6.301l-3.428-5.664l2.395-6.175l-3.08-5.861l2.779-6.008
		l-2.686-6.051l3.189-5.8l-2.237-6.232l3.626-5.538l-1.726-6.392l4.083-5.211l-1.149-6.52l4.549-4.808l-0.514-6.6l5.009-4.327
		l0.172-6.617l5.439-3.773l0.884-6.561l5.818-3.159l1.594-6.425l6.126-2.509l2.272-6.218L241.083,59.59"/>
</g>
</svg>
