<?xml version="1.0" encoding="utf-8"?>
<!-- Generator: Adobe Illustrator 16.0.0, SVG Export Plug-In . SVG Version: 6.00 Build 0)  -->
<!DOCTYPE svg PUBLIC "-//W3C//DTD SVG 1.1//EN" "http://www.w3.org/Graphics/SVG/1.1/DTD/svg11.dtd">
<svg version="1.1" xmlns="http://www.w3.org/2000/svg" xmlns:xlink="http://www.w3.org/1999/xlink" x="0px" y="0px"
	 width="453.545px" height="453.543px" viewBox="0 0 453.545 453.543" enable-background="new 0 0 453.545 453.543"
	 xml:space="preserve">
<g id="kvadrat">
	<rect x="-453.543" y="-453.543" fill="none" width="453.543" height="453.543"/>
	<rect y="-453.543" fill="none" width="453.545" height="453.543"/>
	<rect x="453.545" y="-453.543" fill="none" width="453.543" height="453.543"/>
</g>
<g id="Layer_1">
</g>
<g id="Layer_2">
	<g id="rdeÄa7bela">
	</g>
	
		<path fill="#D9D9D9" stroke="#000000" stroke-width="8" stroke-linecap="round" stroke-linejoin="round" stroke-miterlimit="10" d="
		M261.915,162.656l-5.556-97.838c0,0,0.362-5.476-4.555-5.476c-4.918,0-4.82,5.476-4.82,5.476s-0.113-0.086-0.133,0
		c-0.274,0.645,0.733,91.612,0.733,91.612c0,2.303-1.872,4.17-4.175,4.17c-0.821,0-4.818,0-9.721,0V64.819c0,0-2.246-6-6-6s-6,6-6,6
		v95.783c-5.094,0-9.297,0-10.142,0c-2.303,0-4.175-1.867-4.175-4.17l0.122-91.612c0,0-1.518-5.476-4.642-5.476
		s-5.38,5.476-5.38,5.476l-4.435,97.838c-0.192,1.48-0.294,3.001-0.294,4.544c0,6.771,1.952,13.09,5.305,18.434l0.004,0.013
		l13.473,21.538c2.894,5.038,4.544,10.875,4.544,17.109l-9.084,149.945c0,11.311,9.168,20.484,20.488,20.484
		c11.312,0,20.488-9.173,20.488-20.484l-9.11-149.945c0-6.234,1.676-12.072,4.566-17.109l13.477-21.538v-0.013
		c3.353-5.344,5.305-11.663,5.305-18.434C262.204,165.652,262.094,164.136,261.915,162.656z"/>
</g>
</svg>
