<?xml version="1.0" encoding="utf-8"?>
<!-- Generator: Adobe Illustrator 16.0.0, SVG Export Plug-In . SVG Version: 6.00 Build 0)  -->
<!DOCTYPE svg PUBLIC "-//W3C//DTD SVG 1.1//EN" "http://www.w3.org/Graphics/SVG/1.1/DTD/svg11.dtd">
<svg version="1.1" id="Layer_1" xmlns="http://www.w3.org/2000/svg" xmlns:xlink="http://www.w3.org/1999/xlink" x="0px" y="0px"
	 width="405.688px" height="228.211px" viewBox="0 0 405.688 228.211" enable-background="new 0 0 405.688 228.211"
	 xml:space="preserve">
<g id="Layer_2">
	<rect x="-0.22" fill="#35BCAD" width="406.129" height="228.211"/>
</g>
<g>
	<path fill="#FFFFFF" d="M58.171,26.386c0-0.693,0.249-1.288,0.75-1.79c0.5-0.5,1.097-0.75,1.79-0.75c0.769,0,1.385,0.25,1.847,0.75
		c0.462,0.501,0.693,1.097,0.693,1.79c0,0.771-0.23,1.405-0.693,1.905c-0.462,0.502-1.079,0.751-1.847,0.751
		c-0.693,0-1.29-0.249-1.79-0.751C58.42,27.791,58.171,27.156,58.171,26.386z M58.171,57.56c0-0.769,0.249-1.404,0.75-1.905
		c0.5-0.5,1.097-0.75,1.79-0.75c0.769,0,1.385,0.25,1.847,0.75c0.462,0.501,0.693,1.137,0.693,1.905c0,0.693-0.23,1.29-0.693,1.789
		c-0.462,0.502-1.079,0.751-1.847,0.751c-0.693,0-1.29-0.249-1.79-0.751C58.42,58.85,58.171,58.253,58.171,57.56z M58.171,88.619
		c0-0.769,0.249-1.404,0.75-1.905c0.5-0.5,1.097-0.75,1.79-0.75c0.769,0,1.385,0.251,1.847,0.75
		c0.462,0.501,0.693,1.137,0.693,1.905c0,0.693-0.23,1.29-0.693,1.789c-0.462,0.502-1.079,0.751-1.847,0.751
		c-0.693,0-1.29-0.249-1.79-0.751C58.42,89.908,58.171,89.312,58.171,88.619z M82.648,26.386c0-2.54,0.904-4.714,2.713-6.523
		c1.808-1.808,4.021-2.713,6.639-2.713c2.541,0,4.714,0.906,6.524,2.713c1.808,1.81,2.713,3.983,2.713,6.523
		c0,2.618-0.906,4.832-2.713,6.639c-1.81,1.809-3.983,2.713-6.524,2.713c-2.617,0-4.831-0.904-6.639-2.713
		C83.552,31.217,82.648,29.003,82.648,26.386z M82.648,88.619c0-2.616,0.904-4.83,2.713-6.639c1.808-1.808,4.021-2.713,6.639-2.713
		c2.541,0,4.714,0.906,6.524,2.713c1.808,1.81,2.713,4.023,2.713,6.639c0,2.54-0.906,4.716-2.713,6.523
		c-1.81,1.81-3.983,2.713-6.524,2.713c-2.617,0-4.831-0.904-6.639-2.713C83.552,93.334,82.648,91.159,82.648,88.619z M89.344,57.56
		c0-0.769,0.249-1.404,0.75-1.905c0.5-0.5,1.135-0.75,1.905-0.75c0.693,0,1.288,0.25,1.79,0.75c0.5,0.501,0.75,1.137,0.75,1.905
		c0,0.693-0.25,1.29-0.75,1.789C93.288,59.851,92.693,60.1,92,60.1c-0.77,0-1.405-0.249-1.905-0.751
		C89.594,58.85,89.344,58.253,89.344,57.56z M138.415,26.386c0-2.54,0.904-4.714,2.713-6.523c1.808-1.808,3.983-2.713,6.524-2.713
		c2.616,0,4.829,0.906,6.639,2.713c1.808,1.81,2.713,3.983,2.713,6.523c0,2.618-0.906,4.832-2.713,6.639
		c-1.81,1.809-4.023,2.713-6.639,2.713c-2.541,0-4.716-0.904-6.524-2.713C139.319,31.217,138.415,29.003,138.415,26.386z
		 M138.415,57.56c0-2.616,0.904-4.83,2.713-6.639c1.808-1.808,3.983-2.713,6.524-2.713c2.616,0,4.829,0.906,6.639,2.713
		c1.808,1.81,2.713,4.023,2.713,6.639c0,2.54-0.906,4.716-2.713,6.523c-1.81,1.809-4.023,2.713-6.639,2.713
		c-2.541,0-4.716-0.904-6.524-2.713C139.319,62.276,138.415,60.1,138.415,57.56z M145.112,88.619c0-0.769,0.249-1.404,0.75-1.905
		c0.5-0.5,1.097-0.75,1.79-0.75c0.769,0,1.403,0.251,1.904,0.75c0.5,0.501,0.751,1.137,0.751,1.905c0,0.693-0.25,1.29-0.751,1.789
		c-0.501,0.502-1.136,0.751-1.904,0.751c-0.693,0-1.291-0.249-1.79-0.751C145.361,89.908,145.112,89.312,145.112,88.619z
		 M176.401,26.386c0-0.693,0.231-1.288,0.693-1.79c0.462-0.5,1.077-0.75,1.847-0.75c0.693,0,1.288,0.25,1.79,0.75
		c0.5,0.501,0.75,1.097,0.75,1.79c0,0.771-0.25,1.405-0.75,1.905c-0.501,0.502-1.097,0.751-1.79,0.751
		c-0.77,0-1.385-0.249-1.847-0.751C176.632,27.791,176.401,27.156,176.401,26.386z M176.401,57.56c0-0.769,0.231-1.404,0.693-1.905
		c0.462-0.5,1.077-0.75,1.847-0.75c0.693,0,1.288,0.25,1.79,0.75c0.5,0.501,0.75,1.137,0.75,1.905c0,0.693-0.25,1.29-0.75,1.789
		c-0.501,0.502-1.097,0.751-1.79,0.751c-0.77,0-1.385-0.249-1.847-0.751C176.632,58.85,176.401,58.253,176.401,57.56z
		 M176.401,88.619c0-0.769,0.231-1.404,0.693-1.905c0.462-0.5,1.077-0.75,1.847-0.75c0.693,0,1.288,0.251,1.79,0.75
		c0.5,0.501,0.75,1.137,0.75,1.905c0,0.693-0.25,1.29-0.75,1.789c-0.501,0.502-1.097,0.751-1.79,0.751
		c-0.77,0-1.385-0.249-1.847-0.751C176.632,89.908,176.401,89.312,176.401,88.619z"/>
	<path fill="#FFFFFF" d="M222.123,26.501c0-2.616,0.904-4.83,2.713-6.639c1.808-1.808,4.021-2.713,6.64-2.713
		c2.539,0,4.714,0.906,6.523,2.713c1.807,1.81,2.713,4.023,2.713,6.639c0,2.54-0.906,4.716-2.713,6.523
		c-1.81,1.809-3.984,2.713-6.523,2.713c-2.618,0-4.832-0.904-6.64-2.713C223.028,31.217,222.123,29.042,222.123,26.501z
		 M222.123,57.56c0-2.54,0.904-4.734,2.713-6.581c1.808-1.848,4.021-2.771,6.64-2.771c2.539,0,4.714,0.924,6.523,2.771
		c1.807,1.847,2.713,4.041,2.713,6.581c0,1.232-0.251,2.406-0.751,3.521c-0.501,1.117-1.154,2.098-1.962,2.944
		c-0.809,0.848-1.79,1.521-2.945,2.02c-1.154,0.502-2.349,0.751-3.578,0.751c-1.311,0-2.523-0.249-3.637-0.751
		c-1.117-0.5-2.1-1.172-2.945-2.02c-0.848-0.846-1.521-1.828-2.021-2.944C222.372,59.966,222.123,58.792,222.123,57.56z
		 M222.123,88.619c0-2.616,0.904-4.83,2.713-6.639c1.808-1.808,4.021-2.713,6.64-2.713c2.539,0,4.714,0.906,6.523,2.713
		c1.807,1.81,2.713,4.023,2.713,6.639c0,2.54-0.906,4.716-2.713,6.523c-1.81,1.81-3.984,2.713-6.523,2.713
		c-2.618,0-4.832-0.904-6.64-2.713C223.028,93.334,222.123,91.159,222.123,88.619z M253.297,57.56c0-2.54,0.903-4.734,2.713-6.581
		c1.809-1.848,3.984-2.771,6.524-2.771c2.615,0,4.829,0.924,6.638,2.771c1.809,1.847,2.714,4.041,2.714,6.581
		c0,1.232-0.25,2.406-0.75,3.521c-0.502,1.117-1.175,2.098-2.021,2.944c-0.849,0.848-1.829,1.521-2.944,2.02
		c-1.117,0.502-2.33,0.751-3.637,0.751c-1.311,0-2.523-0.249-3.637-0.751c-1.117-0.5-2.079-1.172-2.888-2.02
		c-0.809-0.846-1.462-1.828-1.962-2.944C253.545,59.966,253.297,58.792,253.297,57.56z M259.994,26.501
		c0-0.769,0.243-1.404,0.733-1.905c0.489-0.5,1.072-0.75,1.75-0.75c0.751,0,1.372,0.25,1.861,0.75
		c0.49,0.501,0.734,1.137,0.734,1.905c0,0.693-0.244,1.29-0.734,1.789c-0.489,0.502-1.11,0.751-1.861,0.751
		c-0.678,0-1.261-0.249-1.75-0.751C260.238,27.791,259.994,27.194,259.994,26.501z M259.994,88.619c0-0.769,0.243-1.404,0.733-1.905
		c0.489-0.5,1.072-0.75,1.75-0.75c0.751,0,1.372,0.251,1.861,0.75c0.49,0.501,0.734,1.137,0.734,1.905
		c0,0.693-0.244,1.29-0.734,1.789c-0.489,0.502-1.11,0.751-1.861,0.751c-0.678,0-1.261-0.249-1.75-0.751
		C260.238,89.908,259.994,89.312,259.994,88.619z"/>
	<path fill="#FFFFFF" d="M312.527,27.31c0-2.847,0.981-5.253,2.944-7.216c1.962-1.963,4.368-2.944,7.216-2.944
		c2.771,0,5.156,0.981,7.158,2.944c2.001,1.963,3.002,4.37,3.002,7.216c0,1.386-0.27,2.695-0.808,3.925
		c-0.539,1.232-1.271,2.31-2.194,3.233c-0.923,0.924-2.002,1.656-3.232,2.194c-1.232,0.54-2.54,0.808-3.926,0.808
		c-2.848,0-5.254-0.999-7.216-3.002C313.508,32.467,312.527,30.081,312.527,27.31z M319.916,61.139c0-0.769,0.249-1.423,0.75-1.963
		c0.5-0.538,1.173-0.808,2.021-0.808c0.769,0,1.424,0.271,1.963,0.808c0.538,0.54,0.808,1.194,0.808,1.963
		c0,0.848-0.27,1.521-0.808,2.021c-0.539,0.501-1.194,0.75-1.963,0.75c-0.848,0-1.521-0.249-2.021-0.75
		C320.165,62.66,319.916,61.987,319.916,61.139z M319.916,95.084c0-0.846,0.249-1.519,0.75-2.021c0.5-0.499,1.173-0.75,2.021-0.75
		c0.769,0,1.424,0.251,1.963,0.75c0.538,0.502,0.808,1.175,0.808,2.021c0,0.77-0.27,1.425-0.808,1.963
		c-0.539,0.539-1.194,0.808-1.963,0.808c-0.848,0-1.521-0.269-2.021-0.808C320.165,96.51,319.916,95.854,319.916,95.084z
		 M353.977,27.31c0-0.846,0.248-1.519,0.751-2.021c0.499-0.5,1.172-0.751,2.02-0.751c0.769,0,1.424,0.251,1.963,0.751
		c0.538,0.501,0.809,1.174,0.809,2.021c0,0.77-0.271,1.425-0.809,1.963c-0.539,0.54-1.194,0.808-1.963,0.808
		c-0.848,0-1.521-0.269-2.02-0.808C354.225,28.735,353.977,28.08,353.977,27.31z M353.977,61.139c0-0.769,0.248-1.423,0.751-1.963
		c0.499-0.538,1.172-0.808,2.02-0.808c0.769,0,1.424,0.271,1.963,0.808c0.538,0.54,0.809,1.194,0.809,1.963
		c0,0.848-0.271,1.521-0.809,2.021c-0.539,0.501-1.194,0.75-1.963,0.75c-0.848,0-1.521-0.249-2.02-0.75
		C354.225,62.66,353.977,61.987,353.977,61.139z M353.977,95.084c0-0.846,0.248-1.519,0.751-2.021c0.499-0.499,1.172-0.75,2.02-0.75
		c0.769,0,1.424,0.251,1.963,0.75c0.538,0.502,0.809,1.175,0.809,2.021c0,0.77-0.271,1.425-0.809,1.963
		c-0.539,0.539-1.194,0.808-1.963,0.808c-0.848,0-1.521-0.269-2.02-0.808C354.225,96.51,353.977,95.854,353.977,95.084z"/>
	<path fill="#FFFFFF" d="M42.814,174.584c0-2.771,0.981-5.139,2.944-7.102c1.963-1.962,4.33-2.943,7.101-2.943
		c2.847,0,5.253,0.981,7.216,2.943c1.963,1.963,2.944,4.33,2.944,7.102c0,2.771-0.981,5.137-2.944,7.101
		c-1.963,1.963-4.369,2.943-7.216,2.943c-2.771,0-5.138-0.98-7.101-2.943C43.796,179.721,42.814,177.354,42.814,174.584z
		 M50.088,140.522c0-0.769,0.269-1.423,0.809-1.963c0.538-0.537,1.192-0.808,1.963-0.808c0.846,0,1.539,0.271,2.078,0.808
		c0.538,0.54,0.808,1.194,0.808,1.963c0,0.849-0.271,1.541-0.808,2.079c-0.54,0.539-1.232,0.808-2.078,0.808
		c-0.771,0-1.425-0.269-1.963-0.808C50.357,142.063,50.088,141.371,50.088,140.522z M50.088,208.413
		c0-0.847,0.269-1.538,0.809-2.078c0.538-0.537,1.192-0.809,1.963-0.809c0.846,0,1.539,0.271,2.078,0.809
		c0.538,0.54,0.808,1.231,0.808,2.078c0,0.771-0.271,1.425-0.808,1.963c-0.54,0.539-1.232,0.808-2.078,0.808
		c-0.771,0-1.425-0.269-1.963-0.808C50.357,209.838,50.088,209.184,50.088,208.413z M76.99,140.522c0-2.771,0.982-5.138,2.944-7.1
		c1.963-1.964,4.368-2.945,7.216-2.945c2.771,0,5.138,0.981,7.101,2.945c1.963,1.962,2.944,4.329,2.944,7.1
		c0,2.849-0.981,5.254-2.944,7.217c-1.963,1.962-4.33,2.943-7.101,2.943c-2.849,0-5.253-0.981-7.216-2.943
		C77.972,145.776,76.99,143.371,76.99,140.522z M76.99,174.584c0-2.771,0.982-5.139,2.944-7.102
		c1.963-1.962,4.368-2.943,7.216-2.943c2.771,0,5.138,0.981,7.101,2.943c1.963,1.963,2.944,4.33,2.944,7.102
		c0,2.771-0.981,5.137-2.944,7.101c-1.963,1.963-4.33,2.943-7.101,2.943c-2.849,0-5.253-0.98-7.216-2.943
		C77.972,179.721,76.99,177.354,76.99,174.584z M84.264,208.413c0-0.847,0.269-1.538,0.809-2.078
		c0.538-0.537,1.23-0.809,2.078-0.809c0.769,0,1.423,0.271,1.963,0.809c0.538,0.54,0.808,1.231,0.808,2.078
		c0,0.771-0.271,1.425-0.808,1.963c-0.54,0.539-1.194,0.808-1.963,0.808c-0.848,0-1.541-0.269-2.078-0.808
		C84.533,209.838,84.264,209.184,84.264,208.413z"/>
	<path fill="#FFFFFF" d="M137.837,174.468c0-2.771,0.982-5.138,2.944-7.101c1.963-1.963,4.368-2.944,7.216-2.944
		c2.771,0,5.156,0.981,7.159,2.944c2,1.963,3.001,4.329,3.001,7.101c0,2.849-1.001,5.253-3.001,7.217
		c-2.003,1.963-4.388,2.943-7.159,2.943c-2.849,0-5.253-0.98-7.216-2.943C138.819,179.721,137.837,177.316,137.837,174.468z
		 M145.227,140.638c0-0.846,0.249-1.519,0.75-2.02c0.5-0.5,1.172-0.751,2.021-0.751c0.769,0,1.423,0.251,1.963,0.751
		c0.538,0.501,0.808,1.174,0.808,2.02c0,0.771-0.271,1.426-0.808,1.964c-0.54,0.539-1.194,0.808-1.963,0.808
		c-0.848,0-1.521-0.269-2.021-0.808C145.476,142.063,145.227,141.409,145.227,140.638z M145.227,208.413
		c0-0.847,0.249-1.519,0.75-2.021c0.5-0.499,1.172-0.749,2.021-0.749c0.769,0,1.423,0.25,1.963,0.749
		c0.538,0.503,0.808,1.175,0.808,2.021c0,0.771-0.271,1.425-0.808,1.963c-0.54,0.539-1.194,0.808-1.963,0.808
		c-0.848,0-1.521-0.269-2.021-0.808C145.476,209.838,145.227,209.184,145.227,208.413z M171.898,140.638
		c0-2.846,0.981-5.253,2.944-7.215c1.963-1.964,4.368-2.945,7.216-2.945c2.771,0,5.156,0.981,7.158,2.945
		c2.001,1.962,3.002,4.369,3.002,7.215c0,1.387-0.271,2.695-0.808,3.927c-0.54,1.232-1.27,2.309-2.194,3.232
		c-0.923,0.924-2.002,1.656-3.233,2.194c-1.232,0.539-2.54,0.808-3.925,0.808c-2.849,0-5.253-1-7.216-3.002
		C172.879,145.797,171.898,143.409,171.898,140.638z M179.287,174.468c0-0.768,0.249-1.423,0.751-1.962
		c0.5-0.538,1.172-0.81,2.021-0.81c0.769,0,1.423,0.271,1.963,0.81c0.538,0.539,0.808,1.194,0.808,1.962
		c0,0.849-0.271,1.521-0.808,2.021c-0.54,0.501-1.194,0.751-1.963,0.751c-0.848,0-1.521-0.25-2.021-0.751
		C179.536,175.988,179.287,175.316,179.287,174.468z M179.287,208.413c0-0.847,0.249-1.519,0.751-2.021
		c0.5-0.499,1.172-0.749,2.021-0.749c0.769,0,1.423,0.25,1.963,0.749c0.538,0.503,0.808,1.175,0.808,2.021
		c0,0.771-0.271,1.425-0.808,1.963c-0.54,0.539-1.194,0.808-1.963,0.808c-0.848,0-1.521-0.269-2.021-0.808
		C179.536,209.838,179.287,209.184,179.287,208.413z"/>
	<path fill="#FFFFFF" d="M232.861,140.638c0-2.846,0.98-5.253,2.944-7.215c1.962-1.964,4.367-2.945,7.216-2.945
		c2.771,0,5.155,0.981,7.158,2.945c2.001,1.962,3.002,4.369,3.002,7.215c0,1.387-0.27,2.695-0.808,3.927
		c-0.539,1.232-1.271,2.309-2.194,3.232c-0.923,0.924-2.003,1.656-3.232,2.194c-1.232,0.539-2.54,0.808-3.926,0.808
		c-2.849,0-5.254-1-7.216-3.002C233.841,145.797,232.861,143.409,232.861,140.638z M240.249,174.468c0-0.768,0.25-1.423,0.751-1.962
		c0.5-0.538,1.173-0.81,2.021-0.81c0.769,0,1.423,0.271,1.963,0.81c0.537,0.539,0.808,1.194,0.808,1.962
		c0,0.849-0.271,1.521-0.808,2.021c-0.54,0.501-1.194,0.751-1.963,0.751c-0.848,0-1.521-0.25-2.021-0.751
		C240.499,175.988,240.249,175.316,240.249,174.468z M240.249,208.413c0-0.847,0.25-1.519,0.751-2.021
		c0.5-0.499,1.173-0.749,2.021-0.749c0.769,0,1.423,0.25,1.963,0.749c0.537,0.503,0.808,1.175,0.808,2.021
		c0,0.771-0.271,1.425-0.808,1.963c-0.54,0.539-1.194,0.808-1.963,0.808c-0.848,0-1.521-0.269-2.021-0.808
		C240.499,209.838,240.249,209.184,240.249,208.413z M266.921,140.638c0-2.846,0.981-5.253,2.944-7.215
		c1.962-1.964,4.367-2.945,7.216-2.945c2.771,0,5.156,0.981,7.158,2.945c2.001,1.962,3.003,4.369,3.003,7.215
		c0,1.387-0.271,2.695-0.809,3.927c-0.54,1.232-1.27,2.309-2.194,3.232c-0.924,0.924-2.002,1.656-3.232,2.194
		c-1.231,0.539-2.54,0.808-3.926,0.808c-2.849,0-5.254-1-7.216-3.002C267.903,145.797,266.921,143.409,266.921,140.638z
		 M274.311,174.468c0-0.768,0.248-1.423,0.75-1.962c0.499-0.538,1.173-0.81,2.021-0.81c0.769,0,1.424,0.271,1.963,0.81
		c0.538,0.539,0.808,1.194,0.808,1.962c0,0.849-0.27,1.521-0.808,2.021c-0.539,0.501-1.194,0.751-1.963,0.751
		c-0.848,0-1.521-0.25-2.021-0.751C274.559,175.988,274.311,175.316,274.311,174.468z M274.311,208.413
		c0-0.847,0.248-1.519,0.75-2.021c0.499-0.499,1.173-0.749,2.021-0.749c0.769,0,1.424,0.25,1.963,0.749
		c0.538,0.503,0.808,1.175,0.808,2.021c0,0.771-0.27,1.425-0.808,1.963c-0.539,0.539-1.194,0.808-1.963,0.808
		c-0.848,0-1.521-0.269-2.021-0.808C274.559,209.838,274.311,209.184,274.311,208.413z"/>
	<path fill="#FFFFFF" d="M327.884,140.638c0-2.846,0.98-5.253,2.943-7.215c1.963-1.964,4.368-2.945,7.217-2.945
		c2.771,0,5.155,0.981,7.157,2.945c2.002,1.962,3.003,4.369,3.003,7.215c0,1.387-0.271,2.695-0.809,3.927
		c-0.539,1.232-1.27,2.309-2.194,3.232c-0.923,0.924-2.002,1.656-3.232,2.194c-1.231,0.539-2.54,0.808-3.925,0.808
		c-2.849,0-5.254-1-7.217-3.002C328.865,145.797,327.884,143.409,327.884,140.638z M335.273,174.468
		c0-0.768,0.249-1.423,0.751-1.962c0.5-0.538,1.172-0.81,2.021-0.81c0.768,0,1.423,0.271,1.962,0.81
		c0.538,0.539,0.809,1.194,0.809,1.962c0,0.849-0.271,1.521-0.809,2.021c-0.539,0.501-1.194,0.751-1.962,0.751
		c-0.849,0-1.521-0.25-2.021-0.751C335.522,175.988,335.273,175.316,335.273,174.468z M335.273,208.413
		c0-0.847,0.249-1.519,0.751-2.021c0.5-0.499,1.172-0.749,2.021-0.749c0.768,0,1.423,0.25,1.962,0.749
		c0.538,0.503,0.809,1.175,0.809,2.021c0,0.771-0.271,1.425-0.809,1.963c-0.539,0.539-1.194,0.808-1.962,0.808
		c-0.849,0-1.521-0.269-2.021-0.808C335.522,209.838,335.273,209.184,335.273,208.413z M369.333,140.638
		c0-0.846,0.249-1.519,0.751-2.02c0.499-0.5,1.173-0.751,2.02-0.751c0.77,0,1.424,0.251,1.964,0.751
		c0.537,0.501,0.808,1.174,0.808,2.02c0,0.771-0.271,1.426-0.808,1.964c-0.54,0.539-1.194,0.808-1.964,0.808
		c-0.847,0-1.521-0.269-2.02-0.808C369.582,142.063,369.333,141.409,369.333,140.638z M369.333,174.468
		c0-0.768,0.249-1.423,0.751-1.962c0.499-0.538,1.173-0.81,2.02-0.81c0.77,0,1.424,0.271,1.964,0.81
		c0.537,0.539,0.808,1.194,0.808,1.962c0,0.849-0.271,1.521-0.808,2.021c-0.54,0.501-1.194,0.751-1.964,0.751
		c-0.847,0-1.521-0.25-2.02-0.751C369.582,175.988,369.333,175.316,369.333,174.468z M369.333,208.413
		c0-0.847,0.249-1.519,0.751-2.021c0.499-0.499,1.173-0.749,2.02-0.749c0.77,0,1.424,0.25,1.964,0.749
		c0.537,0.503,0.808,1.175,0.808,2.021c0,0.771-0.271,1.425-0.808,1.963c-0.54,0.539-1.194,0.808-1.964,0.808
		c-0.847,0-1.521-0.269-2.02-0.808C369.582,209.838,369.333,209.184,369.333,208.413z"/>
</g>
</svg>
