<?xml version="1.0" encoding="utf-8"?>
<!-- Generator: Adobe Illustrator 16.0.0, SVG Export Plug-In . SVG Version: 6.00 Build 0)  -->
<!DOCTYPE svg PUBLIC "-//W3C//DTD SVG 1.1//EN" "http://www.w3.org/Graphics/SVG/1.1/DTD/svg11.dtd">
<svg version="1.1" xmlns="http://www.w3.org/2000/svg" xmlns:xlink="http://www.w3.org/1999/xlink" x="0px" y="0px"
	 width="1919.998px" height="1080px" viewBox="0 0 1919.998 1080" enable-background="new 0 0 1919.998 1080" xml:space="preserve">
<g id="Layer_1" display="none">
	<g id="Background">
	</g>
	<g id="Objets">
	</g>
	<g id="oseba">
	</g>
	<g id="zunaj">
		<g display="inline">
			<g>
				<defs>
					<rect id="SVGID_1_" y="0" width="370.197" height="1080"/>
				</defs>
				<clipPath id="SVGID_2_">
					<use xlink:href="#SVGID_1_"  overflow="visible"/>
				</clipPath>
				<g clip-path="url(#SVGID_2_)">
					<g>
						<rect x="-2.334" y="131.959" fill="none" width="243.57" height="963.197"/>
					</g>
					<g>
						
							<path fill="#57B2E5" stroke="#000000" stroke-width="3" stroke-linecap="round" stroke-linejoin="round" stroke-miterlimit="10" d="
							M408.211,884.429V-17.318H-34.143V897.64C69.58,894.362,355.508,874.438,408.211,884.429z"/>
						
							<path fill="#B8B5B5" stroke="#000000" stroke-width="3" stroke-linecap="round" stroke-linejoin="round" stroke-miterlimit="10" d="
							M-2.334,669.634c16.281,2.485,34.182-9.229,47.799-17.979c22.082-14.188,52.781-36.724,67.682-61.172
							c8.33-13.67,11.939-31.067,19.969-45.299c10.758-19.068,27.197-32.627,41.484-48.297c8.805-9.657,36.48-55.834,46.898-51.124
							c13.275,6.002,22.529,46.68,33.746,59.673c6.947,8.044,15.707,14.102,23.291,21.372c8.994,8.623,13.758,17.966,20.951,28.856
							c10.607,16.062,22.354,24.01,38.744,29.727c12.701,4.43,44.664,9.409,47.697,23.685c2.781,13.085,9.904,68.228,9.904,81.703
							c0,40.664-41.461,33.783-45.82,74.202c-4.189,38.854,1.791,80.893-4.303,118.916c-41.059,3.098-83.105,0.227-124.313,0.227
							c-18.148,0-35.275,3.587-53.115,4.524c-21.637,1.138-42.422-10.718-63.24-16.631c-18.232-5.179-30.064-17.366-45.811-30.209
							c-8.371-6.828-17.961-12.248-25.35-20.338c-15.924-17.437-10.186-52.72-13.279-75.927
							c-2.492-18.696-0.906-38.338-3.523-56.744c-1.516-10.67-1.506-15.094-12.941-13.165"/>
						
							<path fill="#B8B5B5" stroke="#000000" stroke-width="3" stroke-linecap="round" stroke-linejoin="round" stroke-miterlimit="10" d="
							M-91.801,569.302c-11.857,5.538-26.813,9.709-39.76,14.716c-15.354,5.938-23.482,12.37-35.764,19.87
							c-18.109,11.06-38.162,16.532-66.141,20.469c-21.684,3.051-20.973,1.514-26.152,11.344c-4.746,9.011-4.436,20.631-4.436,29.91
							c0,28,3.035,54.576,10.477,82.408c7.15,26.755-3.059,55.7,7.346,81.884c70.09,2.133,141.869,0.155,212.213,0.155
							c30.982,0,60.217,2.469,90.674,3.115c36.936,0.783,72.42-7.38,107.955-11.451c31.125-3.566,51.326-11.958,78.205-20.802
							c14.289-4.701,30.66-8.435,43.273-14.005c27.184-12.006,17.389-36.302,22.67-52.281c6.949-21.041,12.752-43.806-13.498-53.505
							c-27.314-10.094-58.016-12.813-85.695-22.227c-36.867-12.54-76.723-26.303-105.969-49.223
							c-23.451-18.376-40.768-36.64-67.793-52.771c-16.42-9.802-52.959-32.479-74.326-28.134
							C-61.221,533.39-72.035,560.069-91.801,569.302z"/>
						
							<path fill="#39A935" stroke="#000000" stroke-width="3" stroke-linecap="round" stroke-linejoin="round" stroke-miterlimit="10" d="
							M125.646,667.006c52.199,9.395,98.512-18.801,143.145-30.586c44.633-11.786,116.313,7.651,116.313,7.651v186.283H-2.645
							V683.519v-24.253C38.979,655.59,83.02,659.337,125.646,667.006z"/>
						
							<path fill="#93C01F" stroke="#000000" stroke-width="3" stroke-linecap="round" stroke-linejoin="round" stroke-miterlimit="10" d="
							M101.072,740.315C64.953,743.637-2.645,728.128-2.645,728.128v417.169H390.88l7.428-387.363l-7.428-26.254
							c-21.008-1.854-91.807-8.493-135.797,0.922C203.896,739.49,121.395,733.159,101.072,740.315z"/>
						
							<path fill="#0073B3" stroke="#000000" stroke-width="3" stroke-linecap="round" stroke-linejoin="round" stroke-miterlimit="10" d="
							M395.832,932.587c0,0-21.617-18.958-33.77-24.229c-8.789-3.814-21.83-0.449-31.396-1.611
							c-13.605-1.644-28.158,3.203-41.867,3.44c-17.043,0.292-33.363-11.188-50.59-9.04c-9.191,1.148-18.293,5.266-27.27,7.083
							c-29.684,6.009-46.277-8.882-70.982-16.444c-19.545-5.983-43.754,1.168-63.186,4.779c-25.834,4.802-52.539,3.566-79.264,3.505
							c-17.678-0.041-27.332-1.636-37.32,15.001c-18.936,31.546-16.66,69.912-34.689,101.833
							c-14.082,24.931-32.367,115.463,8.482,123.001c12.736,2.35,26.189-0.396,39.188-0.18c8.332,0.14,14.053,2.185,20.695,6.661
							c7.9,5.323,14.246,10.392,23.535,13.417c20.76,6.77,40.969,6.099,62.193,10.77c25.639,5.639,51.201,11.775,77.6,13.82
							c25.77,1.994,30.855,7.328,43.189,32.479c9.209,18.777,219.385-63.933,219.385-63.933L395.832,932.587z"/>
					</g>
					<g>
						<path stroke="#282828" stroke-width="3" stroke-linecap="round" stroke-linejoin="round" stroke-miterlimit="10" d="
							M71.025,464.629"/>
					</g>
					<g>
						<path stroke="#282828" stroke-width="3" stroke-linecap="round" stroke-linejoin="round" stroke-miterlimit="10" d="
							M48.375,464.629"/>
					</g>
					<g>
						
							<path fill="#785C37" stroke="#000000" stroke-width="3" stroke-linecap="round" stroke-linejoin="round" stroke-miterlimit="10" d="
							M89.668,404.813c-26.688-15.731-65.865-25.526-88.281-30.198c0.025-0.063,0.061-0.125,0.076-0.192
							c0.023-0.093,0.023-0.189,0.039-0.281c22.697,2.737,58.215,4.686,87.455-6.07c3.072-1.131,2.781-3.504-0.652-5.303
							c-3.438-1.801-8.711-2.342-11.783-1.208c-30.244,11.12-67.797,6.484-86.244,3.636c-1.137-0.315-2.33-0.594-3.574-0.813
							c-145.852-25.712-310.635,4.322-317.574,5.612c-7.523,1.4-9.313,5.785-3.994,9.797c3.012,2.272,7.664,3.938,12.498,4.701
							c3.695,0.582,7.496,0.638,10.758,0.033c1.6-0.297,161.459-29.363,294.658-5.908c0.096,0.019,0.195,0.028,0.291,0.045
							c5.475,0.911,61.848,10.617,94.287,29.734c1.498,0.883,3.451,1.507,5.447,1.824c2.266,0.354,4.584,0.315,6.352-0.214
							C92.752,409.02,92.861,406.69,89.668,404.813z"/>
						
							<path fill="#39A935" stroke="#000000" stroke-width="3" stroke-linecap="round" stroke-linejoin="round" stroke-miterlimit="10" d="
							M70.707,372.513c-0.988-10.73,2.094-19.141,9.176-25.013c9.783-8.109,24.531-9.567,31.248-9.789
							c-3.43,14.205-8.766,24.389-15.879,30.282C85.324,376.228,74.59,373.803,70.707,372.513z"/>
						
							<path fill="#39A935" stroke="#000000" stroke-width="3" stroke-linecap="round" stroke-linejoin="round" stroke-miterlimit="10" d="
							M79.626,405.295c7.069-4.336,13.918-5.067,20.383-2.182c8.925,3.992,14.95,13.675,17.386,18.234
							c-10.968,2.466-19.811,2.25-26.3-0.652C82.035,416.648,80.055,408.411,79.626,405.295z"/>
						
							<path fill="#39A935" stroke="#000000" stroke-width="3" stroke-linecap="round" stroke-linejoin="round" stroke-miterlimit="10" d="
							M35.501,383.286c8.258,0.757,14.183,4.268,17.637,10.447c4.764,8.54,3.799,19.902,3.023,25.013
							c-10.264-4.585-17.221-10.048-20.686-16.257C30.64,393.826,33.979,386.043,35.501,383.286z"/>
						
							<path fill="#39A935" stroke="#000000" stroke-width="3" stroke-linecap="round" stroke-linejoin="round" stroke-miterlimit="10" d="
							M71.061,362.839c8.014-2.144,14.787-0.896,20.16,3.715c7.42,6.369,10.436,17.368,11.473,22.433
							c-11.217-0.761-19.631-3.489-25.025-8.119C70.137,374.405,70.586,365.945,71.061,362.839z"/>
					</g>
					<g>
						
							<path fill="#785C37" stroke="#000000" stroke-width="3" stroke-linecap="round" stroke-linejoin="round" stroke-miterlimit="10" d="
							M58.449,246.143c-30.447,5.72-66.393,24.121-86.348,35.354c-0.023-0.066-0.037-0.136-0.068-0.197
							c-0.045-0.084-0.107-0.157-0.156-0.24c18.893-12.873,46.918-34.771,61.861-62.113c1.568-2.871-0.213-4.468-3.98-3.563
							c-3.773,0.907-8.102,3.968-9.67,6.841c-15.457,28.276-46.783,49.495-62.549,59.49c-1.063,0.51-2.145,1.085-3.229,1.736
							c-126.748,76.609-231.068,207.652-235.445,213.191c-4.744,6.005-3.205,10.484,3.439,10.003
							c3.762-0.268,8.361-2.076,12.504-4.682c3.168-1.994,6.063-4.453,8.121-7.056c1.01-1.273,102.264-128.35,217.996-198.332
							c0.086-0.05,0.166-0.108,0.248-0.161c4.725-2.914,53.561-32.699,90.568-39.647c1.705-0.319,3.59-1.136,5.303-2.211
							c1.939-1.223,3.658-2.779,4.641-4.34C63.539,247.285,62.09,245.46,58.449,246.143z"/>
						
							<path fill="#39A935" stroke="#000000" stroke-width="3" stroke-linecap="round" stroke-linejoin="round" stroke-miterlimit="10" d="
							M22.369,231.939c-6.09-5.632-8.65-12.027-7.619-19.03c1.424-9.675,9.113-18.095,12.846-21.675
							c5.342,9.891,7.527,18.462,6.488,25.491C32.643,226.543,25.25,230.681,22.369,231.939z"/>
						
							<path fill="#39A935" stroke="#000000" stroke-width="3" stroke-linecap="round" stroke-linejoin="round" stroke-miterlimit="10" d="
							M51.625,255.52c-3.27-7.62-3.008-14.503,0.783-20.483c5.234-8.258,15.686-12.82,20.553-14.574
							c0.859,11.207-0.633,19.929-4.443,25.931C63.207,254.772,54.771,255.546,51.625,255.52z"/>
						
							<path fill="#39A935" stroke="#000000" stroke-width="3" stroke-linecap="round" stroke-linejoin="round" stroke-miterlimit="10" d="
							M-11.918,272.595c6.264-5.44,12.9-7.29,19.75-5.501c9.461,2.471,16.992,11.031,20.146,15.132
							c-10.416,4.231-19.172,5.471-26.051,3.675C-7.674,283.394-10.982,275.596-11.918,272.595z"/>
						
							<path fill="#39A935" stroke="#000000" stroke-width="3" stroke-linecap="round" stroke-linejoin="round" stroke-miterlimit="10" d="
							M50.939,254.437c3.41-7.559,8.662-12.012,15.631-13.257c9.629-1.716,20.053,2.907,24.629,5.313
							c-7.684,8.2-15.119,12.988-22.119,14.236C59.313,262.475,53.043,256.776,50.939,254.437z"/>
						
							<path fill="#39A935" stroke="#000000" stroke-width="3" stroke-linecap="round" stroke-linejoin="round" stroke-miterlimit="10" d="
							M26.109,231.482c-7.851,2.679-14.695,1.89-20.365-2.35c-7.832-5.854-11.582-16.621-12.956-21.607
							c11.24,0.004,19.82,2.159,25.51,6.416C26.248,219.878,26.372,228.349,26.109,231.482z"/>
					</g>
					<g>
						
							<path fill="#785C37" stroke="#000000" stroke-width="3" stroke-linecap="round" stroke-linejoin="round" stroke-miterlimit="10" d="
							M24.699,495.316C17.273,465.24-3.125,430.39-15.465,411.1c0.064-0.029,0.133-0.045,0.191-0.081
							c0.082-0.049,0.152-0.115,0.232-0.169c13.918,18.137,37.363,44.884,65.502,58.262c2.957,1.403,4.449-0.466,3.334-4.176
							c-1.119-3.715-4.418-7.864-7.375-9.268c-29.104-13.84-52.055-43.921-62.922-59.097c-0.568-1.032-1.205-2.081-1.916-3.126
							c-83.635-122.228-220.352-218.992-226.129-223.051c-6.262-4.396-10.648-2.608-9.793,3.998c0.48,3.741,2.545,8.23,5.379,12.22
							c2.17,3.052,4.789,5.803,7.502,7.713c1.33,0.937,133.91,94.861,210.309,206.464c0.053,0.083,0.117,0.161,0.174,0.24
							c3.178,4.552,35.668,51.631,44.691,88.188c0.416,1.685,1.336,3.52,2.508,5.17c1.33,1.866,2.98,3.496,4.594,4.387
							C23.848,500.463,25.588,498.911,24.699,495.316z"/>
						
							<path fill="#39A935" stroke="#000000" stroke-width="3" stroke-linecap="round" stroke-linejoin="round" stroke-miterlimit="10" d="
							M36.846,458.49c5.281-6.396,11.523-9.313,18.572-8.68c9.738,0.878,18.578,8.08,22.365,11.604
							c-9.574,5.891-18.01,8.558-25.086,7.916C42.813,468.444,38.266,461.298,36.846,458.49z"/>
						
							<path fill="#39A935" stroke="#000000" stroke-width="3" stroke-linecap="round" stroke-linejoin="round" stroke-miterlimit="10" d="
							M14.852,489.216c10.77-5.359,20.76-5.544,29.732-0.543c12.387,6.906,19.854,21.67,22.789,28.573
							c-16.162,2.163-28.914,0.717-37.92-4.313C16.881,505.928,15.07,493.774,14.852,489.216z"/>
						
							<path fill="#39A935" stroke="#000000" stroke-width="3" stroke-linecap="round" stroke-linejoin="round" stroke-miterlimit="10" d="
							M-0.924,430.477c8.002,2.189,13.223,6.687,15.537,13.379c3.193,9.24,0.25,20.256-1.41,25.155
							c-9.301-6.317-15.189-12.915-17.514-19.634C-7.553,439.997-2.9,432.92-0.924,430.477z"/>
						
							<path fill="#39A935" stroke="#000000" stroke-width="3" stroke-linecap="round" stroke-linejoin="round" stroke-miterlimit="10" d="
							M12.889,486.456c7.738,2.979,12.48,7.973,14.117,14.859c2.256,9.517-1.773,20.185-3.916,24.89
							c-8.621-7.209-13.822-14.362-15.461-21.28C5.336,495.271,10.67,488.689,12.889,486.456z"/>
					</g>
					<g>
						<g>
							
								<path fill="#785C37" stroke="#000000" stroke-width="3" stroke-linecap="round" stroke-linejoin="round" stroke-miterlimit="10" d="
								M204.82,305.884c-29.934-7.983-72.156-6.771-72.166-6.864c22.6-3.459,36.334-10.122,61.609-28.337
								c2.654-1.914,1.738-4.121-2.053-4.932c-3.793-0.813-9.02,0.083-11.674,2c-26.145,18.836-53.564,24.458-72.098,26.669
								c-1.18,0.001-2.404,0.053-3.66,0.175c-147.4,14.41-298.061,87.604-304.398,90.71c-6.871,3.369-7.416,8.074-1.215,10.51
								c3.512,1.38,8.439,1.734,13.301,1.172c3.717-0.433,7.393-1.4,10.371-2.857c1.463-0.717,147.639-71.651,282.242-84.839
								c0.098-0.009,0.197-0.024,0.295-0.036c5.518-0.593,52.426-6.385,88.807,3.317c1.68,0.447,3.73,0.525,5.738,0.293
								c2.277-0.267,4.5-0.928,6.061-1.912C208.92,309.109,208.398,306.837,204.82,305.884z"/>
							
								<path fill="#39A935" stroke="#000000" stroke-width="3" stroke-linecap="round" stroke-linejoin="round" stroke-miterlimit="10" d="
								M184.15,275.188c-1.797-10.812,0.704-19.567,7.451-26.053c9.323-8.956,24.176-11.527,30.971-12.249
								c-2.421,14.665-7.078,25.389-13.855,31.897C199.255,277.874,188.185,276.211,184.15,275.188z"/>
							
								<path fill="#39A935" stroke="#000000" stroke-width="3" stroke-linecap="round" stroke-linejoin="round" stroke-miterlimit="10" d="
								M-15.344,379.936c-1.797-10.813,0.704-19.568,7.451-26.053c9.323-8.956,24.176-11.527,30.971-12.249
								C20.657,356.299,16,367.022,9.223,373.531C-0.239,382.62-11.31,380.957-15.344,379.936z"/>
							
								<path fill="#39A935" stroke="#000000" stroke-width="3" stroke-linecap="round" stroke-linejoin="round" stroke-miterlimit="10" d="
								M-34.172,369.862c10.311-3.715,19.375-2.832,26.969,2.637c10.489,7.559,15.692,21.704,17.627,28.259
								c-14.861,0.261-26.249-2.39-33.872-7.884C-34.093,385.202-34.451,374.015-34.172,369.862z"/>
							
								<path fill="#39A935" stroke="#000000" stroke-width="3" stroke-linecap="round" stroke-linejoin="round" stroke-miterlimit="10" d="
								M87.123,311.257c-8.049,1.989-14.799,0.618-20.084-4.092c-7.303-6.506-10.113-17.558-11.055-22.64
								c11.201,0.968,19.561,3.851,24.869,8.58C88.264,299.706,87.658,308.155,87.123,311.257z"/>
							
								<path fill="#39A935" stroke="#000000" stroke-width="3" stroke-linecap="round" stroke-linejoin="round" stroke-miterlimit="10" d="
								M193.371,309.903c1.438-8.167,5.428-13.781,11.875-16.709c8.904-4.041,20.146-2.137,25.176-0.938
								c-5.42,9.85-11.443,16.327-17.916,19.265C203.471,315.619,195.99,311.646,193.371,309.903z"/>
							
								<path fill="#39A935" stroke="#000000" stroke-width="3" stroke-linecap="round" stroke-linejoin="round" stroke-miterlimit="10" d="
								M193.318,308.448c7.557-3.413,14.445-3.279,20.494,0.396c8.357,5.078,13.119,15.438,14.965,20.269
								c-11.191,1.073-19.938-0.252-26.01-3.943C194.287,320.016,193.354,311.596,193.318,308.448z"/>
							
								<path fill="#39A935" stroke="#000000" stroke-width="3" stroke-linecap="round" stroke-linejoin="round" stroke-miterlimit="10" d="
								M88.438,308.367c5.363-6.324,11.643-9.16,18.684-8.434c9.729,1.004,18.471,8.323,22.211,11.894
								c-9.65,5.769-18.119,8.322-25.189,7.593C94.271,318.4,89.82,311.196,88.438,308.367z"/>
							
								<path fill="#39A935" stroke="#000000" stroke-width="3" stroke-linecap="round" stroke-linejoin="round" stroke-miterlimit="10" d="
								M186.563,276.116c-5.907-3.893-8.957-8.917-9.067-14.957c-0.151-8.345,5.147-16.504,7.785-20.039
								c5.883,7.58,8.918,14.488,9.027,20.554C194.461,270.142,188.816,274.654,186.563,276.116z"/>
						</g>
						
							<path fill="#39A935" stroke="#000000" stroke-width="3" stroke-linecap="round" stroke-linejoin="round" stroke-miterlimit="10" d="
							M87.727,310.3c-2.822-7.798-2.159-14.654,1.971-20.403c5.709-7.938,16.406-11.89,21.365-13.356
							c0.206,11.24-1.789,19.857-5.939,25.63C99.331,310.228,90.867,310.508,87.727,310.3z"/>
					</g>
					<g>
						
							<path fill="#B17F49" stroke="#1D1D1B" stroke-width="3" stroke-linecap="round" stroke-linejoin="round" stroke-miterlimit="10" d="
							M77.275,883.816c0,10.935-15.82,19.798-35.332,19.798c-19.512,0-35.33-8.863-35.33-19.798
							c0-10.933,15.818-28.021,35.33-28.021C61.455,855.794,77.275,872.884,77.275,883.816z"/>
						
							<path fill="#925F36" stroke="#1D1D1B" stroke-width="3" stroke-linecap="round" stroke-linejoin="round" stroke-miterlimit="10" d="
							M88.334,895.578c0,6.758-9.775,12.234-21.834,12.234c-12.057,0-21.834-5.479-21.834-12.234
							c0-6.758,9.777-17.317,21.834-17.317C78.559,878.261,88.334,888.821,88.334,895.578z"/>
					</g>
				</g>
			</g>
			<g>
				<defs>
					<rect id="SVGID_3_" y="0" width="370.197" height="1080"/>
				</defs>
				<clipPath id="SVGID_4_">
					<use xlink:href="#SVGID_3_"  overflow="visible"/>
				</clipPath>
				<g clip-path="url(#SVGID_4_)">
					
						<rect x="52.801" y="680.327" transform="matrix(0.1393 -0.9902 0.9902 0.1393 -649.8453 663.6578)" fill="#683B11" stroke="#000000" stroke-width="3" stroke-linecap="round" stroke-linejoin="round" stroke-miterlimit="10" width="8.13" height="50.69"/>
					
						<rect x="350.036" y="667.372" transform="matrix(0.1392 -0.9903 0.9903 0.1392 -381.1562 946.971)" fill="#683B11" stroke="#000000" stroke-width="3" stroke-linecap="round" stroke-linejoin="round" stroke-miterlimit="10" width="8.133" height="50.695"/>
					
						<rect x="100.591" y="679.279" transform="matrix(-0.2079 -0.9781 0.9781 -0.2079 -561.9597 953.0941)" fill="#683B11" stroke="#000000" stroke-width="3" stroke-linecap="round" stroke-linejoin="round" stroke-miterlimit="10" width="8.649" height="49.596"/>
					
						<rect x="152.141" y="668.439" transform="matrix(-0.0698 -0.9976 0.9976 -0.0698 -527.6634 900.8851)" fill="#683B11" stroke="#000000" stroke-width="3" stroke-linecap="round" stroke-linejoin="round" stroke-miterlimit="10" width="8.132" height="56.054"/>
					
						<rect x="199.452" y="676.401" transform="matrix(0.1392 -0.9903 0.9903 0.1392 -517.7958 803.9629)" fill="#683B11" stroke="#000000" stroke-width="3" stroke-linecap="round" stroke-linejoin="round" stroke-miterlimit="10" width="8.134" height="46.805"/>
					
						<rect x="6.279" y="675.645" transform="matrix(0.1392 -0.9903 0.9903 0.1392 -683.3377 611.9937)" fill="#683B11" stroke="#000000" stroke-width="3" stroke-linecap="round" stroke-linejoin="round" stroke-miterlimit="10" width="8.132" height="46.804"/>
					
						<rect x="247.925" y="671.513" transform="matrix(-0.1738 -0.9848 0.9848 -0.1738 -391.2059 1066.9656)" fill="#683B11" stroke="#000000" stroke-width="3" stroke-linecap="round" stroke-linejoin="round" stroke-miterlimit="10" width="8.13" height="52.162"/>
					
						<rect x="298.673" y="663.495" transform="matrix(-0.0871 -0.9962 0.9962 -0.0871 -359.7743 1053.3605)" fill="#683B11" stroke="#000000" stroke-width="3" stroke-linecap="round" stroke-linejoin="round" stroke-miterlimit="10" width="8.132" height="56.052"/>
					
						<rect x="52.73" y="698.89" transform="matrix(0.1393 -0.9902 0.9902 0.1393 -668.2895 679.5612)" fill="#683B11" stroke="#000000" stroke-width="3" stroke-linecap="round" stroke-linejoin="round" stroke-miterlimit="10" width="8.133" height="50.695"/>
					
						<rect x="350.031" y="685.943" transform="matrix(0.1392 -0.9903 0.9903 0.1392 -399.5658 962.9084)" fill="#683B11" stroke="#000000" stroke-width="3" stroke-linecap="round" stroke-linejoin="round" stroke-miterlimit="10" width="8.133" height="50.696"/>
					
						<rect x="100.591" y="697.824" transform="matrix(-0.2078 -0.9782 0.9782 -0.2078 -580.1366 975.3872)" fill="#683B11" stroke="#000000" stroke-width="3" stroke-linecap="round" stroke-linejoin="round" stroke-miterlimit="10" width="8.651" height="49.594"/>
					
						<rect x="152.14" y="687.023" transform="matrix(-0.0698 -0.9976 0.9976 -0.0698 -546.191 920.8075)" fill="#683B11" stroke="#000000" stroke-width="3" stroke-linecap="round" stroke-linejoin="round" stroke-miterlimit="10" width="8.132" height="56.054"/>
					
						<rect x="199.452" y="694.984" transform="matrix(0.1392 -0.9903 0.9903 0.1392 -536.1981 819.96)" fill="#683B11" stroke="#000000" stroke-width="3" stroke-linecap="round" stroke-linejoin="round" stroke-miterlimit="10" width="8.134" height="46.805"/>
					
						<rect x="6.279" y="694.217" transform="matrix(0.1392 -0.9903 0.9903 0.1392 -701.7298 627.9929)" fill="#683B11" stroke="#000000" stroke-width="3" stroke-linecap="round" stroke-linejoin="round" stroke-miterlimit="10" width="8.133" height="46.804"/>
					
						<rect x="247.915" y="690.053" transform="matrix(-0.1736 -0.9848 0.9848 -0.1736 -409.5345 1088.6111)" fill="#683B11" stroke="#000000" stroke-width="3" stroke-linecap="round" stroke-linejoin="round" stroke-miterlimit="10" width="8.131" height="52.161"/>
					
						<rect x="298.677" y="682.086" transform="matrix(-0.0871 -0.9962 0.9962 -0.0871 -378.3159 1073.5278)" fill="#683B11" stroke="#000000" stroke-width="3" stroke-linecap="round" stroke-linejoin="round" stroke-miterlimit="10" width="8.132" height="56.052"/>
					
						<rect x="52.729" y="717.474" transform="matrix(0.1393 -0.9903 0.9903 0.1393 -686.696 695.5986)" fill="#683B11" stroke="#000000" stroke-width="3" stroke-linecap="round" stroke-linejoin="round" stroke-miterlimit="10" width="8.133" height="50.695"/>
					
						<rect x="350.035" y="704.54" transform="matrix(0.1392 -0.9903 0.9903 0.1392 -417.982 978.906)" fill="#683B11" stroke="#000000" stroke-width="3" stroke-linecap="round" stroke-linejoin="round" stroke-miterlimit="10" width="8.132" height="50.695"/>
					
						<rect x="100.59" y="716.407" transform="matrix(-0.2078 -0.9782 0.9782 -0.2078 -598.3099 997.8463)" fill="#683B11" stroke="#000000" stroke-width="3" stroke-linecap="round" stroke-linejoin="round" stroke-miterlimit="10" width="8.65" height="49.594"/>
					
						<rect x="152.14" y="705.607" transform="matrix(-0.0698 -0.9976 0.9976 -0.0698 -564.7423 940.6458)" fill="#683B11" stroke="#000000" stroke-width="3" stroke-linecap="round" stroke-linejoin="round" stroke-miterlimit="10" width="8.132" height="56.054"/>
					
						<rect x="199.452" y="713.567" transform="matrix(0.1392 -0.9903 0.9903 0.1392 -554.6083 835.8989)" fill="#683B11" stroke="#000000" stroke-width="3" stroke-linecap="round" stroke-linejoin="round" stroke-miterlimit="10" width="8.133" height="46.804"/>
					
						<rect x="6.277" y="712.812" transform="matrix(0.1392 -0.9903 0.9903 0.1392 -720.1453 643.9988)" fill="#683B11" stroke="#000000" stroke-width="3" stroke-linecap="round" stroke-linejoin="round" stroke-miterlimit="10" width="8.133" height="46.804"/>
					
						<rect x="247.915" y="708.637" transform="matrix(-0.1736 -0.9848 0.9848 -0.1736 -427.8363 1110.4214)" fill="#683B11" stroke="#000000" stroke-width="3" stroke-linecap="round" stroke-linejoin="round" stroke-miterlimit="10" width="8.131" height="52.16"/>
					
						<rect x="298.677" y="700.671" transform="matrix(-0.0871 -0.9962 0.9962 -0.0871 -396.8049 1093.7798)" fill="#683B11" stroke="#000000" stroke-width="3" stroke-linecap="round" stroke-linejoin="round" stroke-miterlimit="10" width="8.132" height="56.052"/>
					<g>
						<g>
							<g>
								<path fill="#683B11" d="M38.174,746.222c0,1.56-1.275,2.835-2.835,2.835H32.88c-1.56,0-2.835-1.275-2.835-2.835V695.84
									c0-1.561,1.275-2.835,2.835-2.835h2.459c1.56,0,2.835,1.274,2.835,2.835V746.222z"/>
								
									<path fill="none" stroke="#000000" stroke-width="3" stroke-linecap="round" stroke-linejoin="round" stroke-miterlimit="10" d="
									M38.174,746.222c0,1.56-1.275,2.835-2.835,2.835H32.88c-1.56,0-2.835-1.275-2.835-2.835V695.84
									c0-1.561,1.275-2.835,2.835-2.835h2.459c1.56,0,2.835,1.274,2.835,2.835V746.222z"/>
							</g>
							<g>
								<path fill="#683B11" d="M83.41,752.654c0,1.561-1.275,2.835-2.835,2.835h-2.463c-1.56,0-2.835-1.274-2.835-2.835V702.27
									c0-1.56,1.275-2.835,2.835-2.835h2.463c1.56,0,2.835,1.275,2.835,2.835V752.654z"/>
								
									<path fill="none" stroke="#000000" stroke-width="3" stroke-linecap="round" stroke-linejoin="round" stroke-miterlimit="10" d="
									M83.41,752.654c0,1.561-1.275,2.835-2.835,2.835h-2.463c-1.56,0-2.835-1.274-2.835-2.835V702.27
									c0-1.56,1.275-2.835,2.835-2.835h2.463c1.56,0,2.835,1.275,2.835,2.835V752.654z"/>
							</g>
							<g>
								<path fill="#683B11" d="M185.658,739.255c0,1.56-1.275,2.835-2.834,2.835h-2.463c-1.56,0-2.835-1.275-2.835-2.835v-50.386
									c0-1.56,1.275-2.835,2.835-2.835h2.463c1.559,0,2.834,1.275,2.834,2.835V739.255z"/>
								
									<path fill="none" stroke="#000000" stroke-width="3" stroke-linecap="round" stroke-linejoin="round" stroke-miterlimit="10" d="
									M185.658,739.255c0,1.56-1.275,2.835-2.834,2.835h-2.463c-1.56,0-2.835-1.275-2.835-2.835v-50.386
									c0-1.56,1.275-2.835,2.835-2.835h2.463c1.559,0,2.834,1.275,2.834,2.835V739.255z"/>
							</g>
							<g>
								<path fill="#683B11" d="M132.939,743.005c0,1.56-1.275,2.835-2.835,2.835h-2.46c-1.56,0-2.835-1.275-2.835-2.835v-50.382
									c0-1.56,1.275-2.835,2.835-2.835h2.46c1.56,0,2.835,1.275,2.835,2.835V743.005z"/>
								
									<path fill="none" stroke="#000000" stroke-width="3" stroke-linecap="round" stroke-linejoin="round" stroke-miterlimit="10" d="
									M132.939,743.005c0,1.56-1.275,2.835-2.835,2.835h-2.46c-1.56,0-2.835-1.275-2.835-2.835v-50.382
									c0-1.56,1.275-2.835,2.835-2.835h2.46c1.56,0,2.835,1.275,2.835,2.835V743.005z"/>
							</g>
							<g>
								<path fill="#683B11" d="M230.916,746.153c0,1.561-1.275,2.835-2.834,2.835h-2.465c-1.559,0-2.834-1.274-2.834-2.835V695.77
									c0-1.56,1.275-2.835,2.834-2.835h2.465c1.559,0,2.834,1.275,2.834,2.835V746.153z"/>
								
									<path fill="none" stroke="#000000" stroke-width="3" stroke-linecap="round" stroke-linejoin="round" stroke-miterlimit="10" d="
									M230.916,746.153c0,1.561-1.275,2.835-2.834,2.835h-2.465c-1.559,0-2.834-1.274-2.834-2.835V695.77
									c0-1.56,1.275-2.835,2.834-2.835h2.465c1.559,0,2.834,1.275,2.834,2.835V746.153z"/>
							</g>
							<g>
								<path fill="#683B11" d="M333.164,732.754c0,1.56-1.275,2.835-2.834,2.835h-2.463c-1.56,0-2.835-1.275-2.835-2.835v-50.386
									c0-1.56,1.275-2.835,2.835-2.835h2.463c1.559,0,2.834,1.275,2.834,2.835V732.754z"/>
								
									<path fill="none" stroke="#000000" stroke-width="3" stroke-linecap="round" stroke-linejoin="round" stroke-miterlimit="10" d="
									M333.164,732.754c0,1.56-1.275,2.835-2.834,2.835h-2.463c-1.56,0-2.835-1.275-2.835-2.835v-50.386
									c0-1.56,1.275-2.835,2.835-2.835h2.463c1.559,0,2.834,1.275,2.834,2.835V732.754z"/>
							</g>
							<g>
								<path fill="#683B11" d="M280.445,736.504c0,1.56-1.275,2.835-2.834,2.835h-2.463c-1.56,0-2.835-1.275-2.835-2.835v-50.381
									c0-1.561,1.275-2.836,2.835-2.836h2.463c1.559,0,2.834,1.275,2.834,2.836V736.504z"/>
								
									<path fill="none" stroke="#000000" stroke-width="3" stroke-linecap="round" stroke-linejoin="round" stroke-miterlimit="10" d="
									M280.445,736.504c0,1.56-1.275,2.835-2.834,2.835h-2.463c-1.56,0-2.835-1.275-2.835-2.835v-50.381
									c0-1.561,1.275-2.836,2.835-2.836h2.463c1.559,0,2.834,1.275,2.834,2.836V736.504z"/>
							</g>
						</g>
					</g>
				</g>
			</g>
			<g>
				<defs>
					<rect id="SVGID_5_" y="0" width="370.197" height="1080"/>
				</defs>
				<clipPath id="SVGID_6_">
					<use xlink:href="#SVGID_5_"  overflow="visible"/>
				</clipPath>
				
					<path clip-path="url(#SVGID_6_)" fill="#785C37" stroke="#000000" stroke-width="3" stroke-linecap="round" stroke-linejoin="round" stroke-miterlimit="10" d="
					M-110.441,965.929c1.119,41.982,3.014,84.926-1.82,125.949c-3.18,26.989-9.416,44.57,18.316,49.7
					c27.631,5.107,58.971,0.011,87.02,0.011c40.697,0,93.014,15.08,131.941,1.192c-10.668-37.828-37.324-68.734-54.213-102.502
					c-18.324-36.626-30.336-72.611-39.443-114.772c-9.568-44.313-14.969-83.599-19.219-129.069
					c-4.09-43.673-14.475-89.484-17.73-134.5c-4.775-65.956-4.031-134.902-9.324-200.575c-2.021-25.144-5.234-50.081-7.807-75.127
					c-1.652-16.106,1.311-55.664-7.029-68.148c-10.777-16.129-62.852-16.2-76.734-5.859c-16.973,12.631-8.934,64.497-8.934,88.341
					c0,29.921,0.076,59.83,0.025,89.745c-0.066,31.881-6.846,61.438-7.32,93.062c-0.986,65.175-0.227,130.638,0.074,195.824
					C-122.346,842.331-112.111,903.315-110.441,965.929z"/>
			</g>
		</g>
	</g>
	<g id="zavesa">
		<g display="inline">
			<g>
				<defs>
					<rect id="SVGID_7_" y="0" width="420" height="1080"/>
				</defs>
				<clipPath id="SVGID_8_">
					<use xlink:href="#SVGID_7_"  overflow="visible"/>
				</clipPath>
				<g clip-path="url(#SVGID_8_)">
					
						<rect x="-11.424" y="7.65" fill="#C10000" stroke="#000000" stroke-width="3.0599" stroke-linecap="round" stroke-linejoin="round" stroke-miterlimit="10" width="265.152" height="195.452"/>
					<g>
						
							<path fill="#C10000" stroke="#000000" stroke-width="3.0599" stroke-linecap="round" stroke-linejoin="round" stroke-miterlimit="10" d="
							M367.848,9.779H219.426c0,205.479,65.021,438.718,71.115,635.097c7.701,248.192,3.293,437.513,3.293,437.513h93.482V9.779
							H367.848z"/>
					</g>
					
						<rect x="282.053" y="592.918" fill="#C10000" stroke="#000000" stroke-width="3" stroke-linecap="round" stroke-linejoin="round" stroke-miterlimit="10" width="109.73" height="51.417"/>
					
						<path fill="none" stroke="#000000" stroke-width="3" stroke-linecap="round" stroke-linejoin="round" stroke-miterlimit="10" d="
						M302.57,38.355c0,0-8.064,168.663,25.586,329.094"/>
					
						<rect x="-0.713" y="-7.969" fill="#785C37" stroke="#000000" stroke-width="3" stroke-linecap="round" stroke-linejoin="round" stroke-miterlimit="10" width="409.918" height="43.158"/>
				</g>
			</g>
		</g>
	</g>
	<g id="pohistvo">
		<g display="inline">
			<g>
				<defs>
					<rect id="SVGID_9_" y="0" width="1919.998" height="1080"/>
				</defs>
				<clipPath id="SVGID_10_">
					<use xlink:href="#SVGID_9_"  overflow="visible"/>
				</clipPath>
				<g clip-path="url(#SVGID_10_)">
					<g>
						<g>
							<g>
								
									<path fill="#E2BB93" stroke="#000000" stroke-width="3" stroke-linecap="round" stroke-linejoin="round" stroke-miterlimit="10" d="
									M1229.002,667.895c-6.129-10.006-30.92-47.002-42.66-55.942c-7.277-5.539-16.229-10.24-27.799-13.893
									c-16.506-5.209-30.873-5.55-46.922-8.786l-0.277-13.545c56.596-4.752,63.156-55.035,63.156-55.035
									s11.479,2.613,14.498-12.406c3.059-15.209-14.865-20.159-14.865-20.159s-6.481-68.34-65.85-67.253
									c-6.166,0.111-11.955,0.498-17.439,1.108c-5.485-0.609-11.276-0.997-17.442-1.108
									c-59.363-1.087-41.072,59.825-64.289,71.397c-0.504,0.245-0.75,0.404-0.75,0.404c-5.129-1.541-18.972,3.647-15.002,17.895
									c4.112,14.763,15.387,12.23,15.387,12.23s4.926,46.313,58.701,52.62l-0.504,13.107c-16.347,3.409-33.9,4.207-50.769,9.529
									c-11.569,3.65-20.521,8.354-27.797,13.893c-11.744,8.94-36.535,45.938-42.662,55.942
									c-5.559,9.084,1.205,32.956,1.205,32.956l3.301,7.771c0,0,25.275,12.515,24.488,2.273
									c-0.33-4.346-2.387-26.018-2.504-31.388c-0.146-6.633,10.498-16.165,14.082-21.29c11.492-16.431,14.797-23.438,43.217-27.9
									c3.338-0.526,8.979,42.064,12.547,74.815h90.613c3.568-32.751,9.211-75.343,12.547-74.815
									c28.42,4.463,31.728,11.471,43.217,27.9c3.584,5.125,14.23,14.658,14.087,21.29c-0.121,5.37-7.179,33.042-7.513,37.388
									c-0.785,10.24,24.492-2.273,24.492-2.273l8.299-13.771C1227.795,700.851,1234.559,676.979,1229.002,667.895z"/>
							</g>
							
								<path fill="none" stroke="#000000" stroke-width="3" stroke-linecap="round" stroke-linejoin="round" stroke-miterlimit="10" d="
								M1060.688,546.784c16.845,24.563,56.509,15.168,66.509-0.781"/>
							
								<line fill="none" stroke="#000000" stroke-width="3" stroke-linecap="round" stroke-linejoin="round" stroke-miterlimit="10" x1="1092.424" y1="532.293" x2="1096.451" y2="532.032"/>
							<g>
								
									<path fill="#FFFFFF" stroke="#000000" stroke-width="3" stroke-linecap="round" stroke-linejoin="round" stroke-miterlimit="10" d="
									M1066.736,501.97c1.061,4.199-2.172,8.636-7.215,9.9c-5.054,1.269-9.992-1.107-11.05-5.309
									c-1.055-4.199,2.179-8.631,7.224-9.895C1060.736,495.399,1065.686,497.77,1066.736,501.97z"/>
								<path stroke="#000000" stroke-width="3" stroke-linecap="round" stroke-linejoin="round" stroke-miterlimit="10" d="
									M1060.441,507.467c0.424,1.646-0.693,3.342-2.468,3.797c-1.805,0.45-3.586-0.523-3.998-2.174
									c-0.411-1.637,0.699-3.328,2.494-3.783C1058.258,504.861,1060.043,505.824,1060.441,507.467z"/>
							</g>
							<g>
								
									<path fill="#FFFFFF" stroke="#000000" stroke-width="3" stroke-linecap="round" stroke-linejoin="round" stroke-miterlimit="10" d="
									M1135.359,503.679c1.053,4.202-2.181,8.636-7.224,9.903c-5.047,1.271-9.985-1.112-11.049-5.313
									c-1.055-4.199,2.181-8.626,7.229-9.893C1129.357,497.111,1134.303,499.483,1135.359,503.679z"/>
								<path stroke="#000000" stroke-width="3" stroke-linecap="round" stroke-linejoin="round" stroke-miterlimit="10" d="
									M1129.063,509.18c0.418,1.647-0.698,3.345-2.477,3.796c-1.799,0.452-3.582-0.521-3.996-2.172
									c-0.408-1.636,0.703-3.329,2.496-3.78C1126.875,506.573,1128.658,507.536,1129.063,509.18z"/>
							</g>
							
								<path fill="#D45F14" stroke="#000000" stroke-width="3" stroke-linecap="round" stroke-linejoin="round" stroke-miterlimit="10" d="
								M1108.412,481.729"/>
							
								<path fill="#D45F14" stroke="#000000" stroke-width="3" stroke-linecap="round" stroke-linejoin="round" stroke-miterlimit="10" d="
								M1171.232,473.759c-6.16-17.538,3.967-58.161-66.779-59.879c-1.668-4.154,1.438-4.813,0.475-8.404
								c-4.43,1.078-13.973,3.267-14.918,8.581c-0.447,0.021-0.896,0.042-1.34,0.065c-0.949-2.405-1.547-5.089-1.205-7.545
								c-1.479,2.106-7.426,7.891-7.344,10.708c-53.693,0-74.893,52.189-71.01,74.986c0.627,3.678,12.848-13.624,14.401-10.543
								c3.523,6.986,16.494-3.528,21.925-1.313c5.428,2.227,9.84,3.554,12.739,3.554c5.806,0,12.031-7.414,23.31-7.407
								c11.459,0.011,13.912,5.693,22.83,5.693c8.92,0,5.305-5.64,11.608-5.484c6.449,0.153,13.951,6.118,17.906,8.521
								c4.887,2.972,15.514,6.939,15.367-0.047c-0.146-6.984,10.291-1.796,14.245-1.548
								C1167.623,483.963,1174.551,478.548,1171.232,473.759z"/>
						</g>
						<g>
							
								<path fill="#E69F00" stroke="#000100" stroke-width="3" stroke-linecap="round" stroke-linejoin="round" stroke-miterlimit="10" d="
								M1160.057,636.035l16.806,15.37l20.559-32.587c0,0-9.211-17.076-45.584-25.765c-5.735-1.369-20.606,0.11-21.332,1.768
								c-6.885,15.723-18.467,25.798-41.664,25.055c-23.024,0.736-34.602-9.179-41.504-24.694
								c-0.785-1.769-15.848-3.521-21.646-2.206c-36.533,8.293-46.584,23.869-46.584,23.869l20.555,32.588l17.961-13.396
								l-7.186,77.105h156.805L1160.057,636.035z"/>
						</g>
						<g>
							
								<path fill="#FFFFFF" stroke="#000000" stroke-width="3" stroke-linecap="round" stroke-linejoin="round" stroke-miterlimit="10" d="
								M1152.746,697.517l15.334,0.109l-1.162-13.557h-13.84c0.512-14.409,1.932-90.523,1.932-90.523l-25.856-3.31
								c0,59.072,8.977,68.839-39.894,68.839c-48.865,0-40.988-9.643-40.988-68.714l-26.836,3.185c0,0,2.854,76.124,2.775,90.523
								h-13.982l-2.166,13.446h15.984c-0.049,2.496-0.113,5.045-0.189,7.617h128.853
								C1152.703,702.566,1152.713,700.017,1152.746,697.517z"/>
						</g>
					</g>
					<rect x="505.529" y="723.216" fill="#C9BEAF" stroke="#70674B" stroke-miterlimit="10" width="776.399" height="359.171"/>
					
						<rect x="505.197" y="876.93" fill="#785C37" stroke="#000000" stroke-width="3" stroke-linecap="round" stroke-linejoin="round" stroke-miterlimit="10" width="783.43" height="13.157"/>
					
						<rect x="505.197" y="1031.125" fill="#785C37" stroke="#000000" stroke-width="3" stroke-linecap="round" stroke-linejoin="round" stroke-miterlimit="10" width="789.065" height="13.156"/>
					<g>
						
							<rect x="462.918" y="696.968" fill="#785C37" stroke="#000000" stroke-width="3" stroke-linecap="round" stroke-linejoin="round" stroke-miterlimit="10" width="856.43" height="26.315"/>
					</g>
					<g>
						
							<rect x="502.504" y="444.024" stroke="#000000" stroke-width="3" stroke-linecap="round" stroke-linejoin="round" stroke-miterlimit="10" width="252.207" height="8.46"/>
						
							<circle stroke="#000000" stroke-width="3" stroke-linecap="round" stroke-linejoin="round" stroke-miterlimit="10" cx="502.504" cy="448.254" r="11.01"/>
						
							<circle stroke="#000000" stroke-width="3" stroke-linecap="round" stroke-linejoin="round" stroke-miterlimit="10" cx="754.712" cy="448.254" r="11.009"/>
					</g>
					
						<path fill="#58595B" stroke="#000000" stroke-width="3" stroke-linecap="round" stroke-linejoin="round" stroke-miterlimit="10" d="
						M596.42,520.992"/>
					
						<rect x="460.918" y="348.264" fill="#785C37" stroke="#000000" stroke-width="3" stroke-linecap="round" stroke-linejoin="round" stroke-miterlimit="10" width="858.43" height="13.157"/>
					<path stroke="#000000" stroke-width="3" stroke-linecap="round" stroke-linejoin="round" stroke-miterlimit="10" d="
						M503.898,361.977c0,4.861-3.939,8.803-8.804,8.803c-4.86,0-8.803-3.94-8.803-8.803H503.898z"/>
					<path stroke="#000000" stroke-width="3" stroke-linecap="round" stroke-linejoin="round" stroke-miterlimit="10" d="
						M897.316,361.977c0,4.861-3.941,8.803-8.804,8.803c-4.861,0-8.803-3.94-8.803-8.803H897.316z"/>
					
						<rect x="460.918" y="189.499" fill="#785C37" stroke="#000000" stroke-width="3" stroke-linecap="round" stroke-linejoin="round" stroke-miterlimit="10" width="858.43" height="13.156"/>
					<path stroke="#000000" stroke-width="3" stroke-linecap="round" stroke-linejoin="round" stroke-miterlimit="10" d="
						M503.898,203.212c0,4.86-3.939,8.803-8.804,8.803c-4.86,0-8.803-3.94-8.803-8.803H503.898z"/>
					<path stroke="#000000" stroke-width="3" stroke-linecap="round" stroke-linejoin="round" stroke-miterlimit="10" d="
						M1290.732,361.977c0,4.861-3.939,8.803-8.804,8.803c-4.86,0-8.803-3.94-8.803-8.803H1290.732z"/>
					<path stroke="#000000" stroke-width="3" stroke-linecap="round" stroke-linejoin="round" stroke-miterlimit="10" d="
						M1290.732,203.212c0,4.86-3.939,8.803-8.804,8.803c-4.86,0-8.803-3.94-8.803-8.803H1290.732z"/>
					<path stroke="#000000" stroke-width="3" stroke-linecap="round" stroke-linejoin="round" stroke-miterlimit="10" d="
						M897.316,203.212c0,4.86-3.941,8.803-8.804,8.803c-4.861,0-8.803-3.94-8.803-8.803H897.316z"/>
					
						<rect x="518.947" y="688.776" stroke="#000000" stroke-width="3" stroke-linecap="round" stroke-linejoin="round" stroke-miterlimit="10" width="295.205" height="16.475"/>
				</g>
			</g>
		</g>
	</g>
	<g id="pivot">
		
			<path display="inline" fill="#58595B" stroke="#000000" stroke-width="3" stroke-linecap="round" stroke-linejoin="round" stroke-miterlimit="10" d="
			M633.662,533.076"/>
		
			<circle display="inline" fill="none" stroke="#000000" stroke-width="3" stroke-linecap="round" stroke-linejoin="round" stroke-miterlimit="10" cx="540.817" cy="549.901" r="7.857"/>
		
			<circle display="inline" fill="none" stroke="#000000" stroke-width="3" stroke-linecap="round" stroke-linejoin="round" stroke-miterlimit="10" cx="598.453" cy="549.901" r="7.857"/>
		
			<circle display="inline" fill="none" stroke="#000000" stroke-width="3" stroke-linecap="round" stroke-linejoin="round" stroke-miterlimit="10" cx="656.089" cy="549.901" r="7.857"/>
		
			<circle display="inline" fill="none" stroke="#000000" stroke-width="3" stroke-linecap="round" stroke-linejoin="round" stroke-miterlimit="10" cx="713.725" cy="549.901" r="7.857"/>
		
			<circle display="inline" fill="none" stroke="#000000" stroke-width="3" stroke-linecap="round" stroke-linejoin="round" stroke-miterlimit="10" cx="194.649" cy="568.563" r="7.857"/>
		
			<circle display="inline" fill="none" stroke="#000000" stroke-width="3" stroke-linecap="round" stroke-linejoin="round" stroke-miterlimit="10" cx="149.225" cy="369.88" r="7.857"/>
		
			<circle display="inline" fill="none" stroke="#000000" stroke-width="3" stroke-linecap="round" stroke-linejoin="round" stroke-miterlimit="10" cx="216.304" cy="860.51" r="7.857"/>
		
			<circle display="inline" fill="none" stroke="#000000" stroke-width="3" stroke-linecap="round" stroke-linejoin="round" stroke-miterlimit="10" cx="170.27" cy="1029.254" r="7.857"/>
		
			<circle display="inline" fill="none" stroke="#000000" stroke-width="3" stroke-linecap="round" stroke-linejoin="round" stroke-miterlimit="10" cx="98.451" cy="822.214" r="7.857"/>
		
			<circle display="inline" fill="none" stroke="#000000" stroke-width="3" stroke-linecap="round" stroke-linejoin="round" stroke-miterlimit="10" cx="590.151" cy="693.018" r="7.857"/>
		
			<circle display="inline" fill="none" stroke="#000000" stroke-width="3" stroke-linecap="round" stroke-linejoin="round" stroke-miterlimit="10" cx="743.709" cy="693.018" r="7.857"/>
		
			<circle display="inline" fill="none" stroke="#000000" stroke-width="3" stroke-linecap="round" stroke-linejoin="round" stroke-miterlimit="10" cx="1233.867" cy="709.018" r="7.857"/>
		
			<circle display="inline" fill="none" stroke="#000000" stroke-width="3" stroke-linecap="round" stroke-linejoin="round" stroke-miterlimit="10" cx="970.92" cy="709.018" r="7.857"/>
		
			<circle display="inline" fill="none" stroke="#000000" stroke-width="3" stroke-linecap="round" stroke-linejoin="round" stroke-miterlimit="10" cx="532.127" cy="195.775" r="7.857"/>
		
			<circle display="inline" fill="none" stroke="#000000" stroke-width="3" stroke-linecap="round" stroke-linejoin="round" stroke-miterlimit="10" cx="622.376" cy="195.775" r="7.857"/>
		
			<circle display="inline" fill="none" stroke="#000000" stroke-width="3" stroke-linecap="round" stroke-linejoin="round" stroke-miterlimit="10" cx="712.625" cy="195.775" r="7.857"/>
		
			<circle display="inline" fill="none" stroke="#000000" stroke-width="3" stroke-linecap="round" stroke-linejoin="round" stroke-miterlimit="10" cx="802.875" cy="195.775" r="7.857"/>
		
			<circle display="inline" fill="none" stroke="#000000" stroke-width="3" stroke-linecap="round" stroke-linejoin="round" stroke-miterlimit="10" cx="893.124" cy="195.775" r="7.857"/>
		
			<circle display="inline" fill="none" stroke="#000000" stroke-width="3" stroke-linecap="round" stroke-linejoin="round" stroke-miterlimit="10" cx="983.373" cy="195.775" r="7.857"/>
		
			<circle display="inline" fill="none" stroke="#000000" stroke-width="3" stroke-linecap="round" stroke-linejoin="round" stroke-miterlimit="10" cx="1073.623" cy="195.775" r="7.857"/>
		
			<circle display="inline" fill="none" stroke="#000000" stroke-width="3" stroke-linecap="round" stroke-linejoin="round" stroke-miterlimit="10" cx="1163.872" cy="195.775" r="7.857"/>
		
			<circle display="inline" fill="none" stroke="#000000" stroke-width="3" stroke-linecap="round" stroke-linejoin="round" stroke-miterlimit="10" cx="1254.121" cy="195.775" r="7.857"/>
		
			<circle display="inline" fill="none" stroke="#000000" stroke-width="3" stroke-linecap="round" stroke-linejoin="round" stroke-miterlimit="10" cx="532.127" cy="354.775" r="7.857"/>
		
			<circle display="inline" fill="none" stroke="#000000" stroke-width="3" stroke-linecap="round" stroke-linejoin="round" stroke-miterlimit="10" cx="622.376" cy="354.775" r="7.857"/>
		
			<circle display="inline" fill="none" stroke="#000000" stroke-width="3" stroke-linecap="round" stroke-linejoin="round" stroke-miterlimit="10" cx="712.625" cy="354.775" r="7.857"/>
		
			<circle display="inline" fill="none" stroke="#000000" stroke-width="3" stroke-linecap="round" stroke-linejoin="round" stroke-miterlimit="10" cx="802.875" cy="354.775" r="7.857"/>
		
			<circle display="inline" fill="none" stroke="#000000" stroke-width="3" stroke-linecap="round" stroke-linejoin="round" stroke-miterlimit="10" cx="893.124" cy="354.775" r="7.857"/>
		
			<circle display="inline" fill="none" stroke="#000000" stroke-width="3" stroke-linecap="round" stroke-linejoin="round" stroke-miterlimit="10" cx="983.373" cy="354.775" r="7.857"/>
		
			<circle display="inline" fill="none" stroke="#000000" stroke-width="3" stroke-linecap="round" stroke-linejoin="round" stroke-miterlimit="10" cx="1073.623" cy="354.775" r="7.857"/>
		
			<circle display="inline" fill="none" stroke="#000000" stroke-width="3" stroke-linecap="round" stroke-linejoin="round" stroke-miterlimit="10" cx="1163.872" cy="354.775" r="7.857"/>
		
			<circle display="inline" fill="none" stroke="#000000" stroke-width="3" stroke-linecap="round" stroke-linejoin="round" stroke-miterlimit="10" cx="1254.121" cy="354.775" r="7.857"/>
		
			<circle display="inline" fill="none" stroke="#000000" stroke-width="3" stroke-linecap="round" stroke-linejoin="round" stroke-miterlimit="10" cx="1140.596" cy="877.604" r="7.857"/>
		
			<circle display="inline" fill="none" stroke="#000000" stroke-width="3" stroke-linecap="round" stroke-linejoin="round" stroke-miterlimit="10" cx="1230.845" cy="877.604" r="7.857"/>
		
			<circle display="inline" fill="none" stroke="#000000" stroke-width="3" stroke-linecap="round" stroke-linejoin="round" stroke-miterlimit="10" cx="904.576" cy="877.604" r="7.857"/>
		
			<circle display="inline" fill="none" stroke="#000000" stroke-width="3" stroke-linecap="round" stroke-linejoin="round" stroke-miterlimit="10" cx="1041.752" cy="877.604" r="7.857"/>
		
			<circle display="inline" fill="none" stroke="#000000" stroke-width="3" stroke-linecap="round" stroke-linejoin="round" stroke-miterlimit="10" cx="973.164" cy="877.604" r="7.857"/>
		
			<circle display="inline" fill="none" stroke="#000000" stroke-width="3" stroke-linecap="round" stroke-linejoin="round" stroke-miterlimit="10" cx="904.576" cy="1031.285" r="7.857"/>
		
			<circle display="inline" fill="none" stroke="#000000" stroke-width="3" stroke-linecap="round" stroke-linejoin="round" stroke-miterlimit="10" cx="1041.752" cy="1031.285" r="7.857"/>
		
			<circle display="inline" fill="none" stroke="#000000" stroke-width="3" stroke-linecap="round" stroke-linejoin="round" stroke-miterlimit="10" cx="1185.721" cy="1031.285" r="7.857"/>
		
			<circle display="inline" fill="none" stroke="#000000" stroke-width="3" stroke-linecap="round" stroke-linejoin="round" stroke-miterlimit="10" cx="950.301" cy="1031.285" r="7.857"/>
		
			<circle display="inline" fill="none" stroke="#000000" stroke-width="3" stroke-linecap="round" stroke-linejoin="round" stroke-miterlimit="10" cx="996.027" cy="1031.285" r="7.857"/>
		
			<circle display="inline" fill="none" stroke="#000000" stroke-width="3" stroke-linecap="round" stroke-linejoin="round" stroke-miterlimit="10" cx="676.27" cy="877.604" r="7.857"/>
		
			<circle display="inline" fill="none" stroke="#000000" stroke-width="3" stroke-linecap="round" stroke-linejoin="round" stroke-miterlimit="10" cx="802.527" cy="877.604" r="7.857"/>
		
			<circle display="inline" fill="none" stroke="#000000" stroke-width="3" stroke-linecap="round" stroke-linejoin="round" stroke-miterlimit="10" cx="739.398" cy="877.604" r="7.857"/>
		
			<circle display="inline" fill="none" stroke="#000000" stroke-width="3" stroke-linecap="round" stroke-linejoin="round" stroke-miterlimit="10" cx="550.012" cy="877.604" r="7.857"/>
		
			<circle display="inline" fill="none" stroke="#000000" stroke-width="3" stroke-linecap="round" stroke-linejoin="round" stroke-miterlimit="10" cx="613.141" cy="877.604" r="7.857"/>
		
			<circle display="inline" fill="none" stroke="#000000" stroke-width="3" stroke-linecap="round" stroke-linejoin="round" stroke-miterlimit="10" cx="651.018" cy="1031.285" r="7.857"/>
		
			<circle display="inline" fill="none" stroke="#000000" stroke-width="3" stroke-linecap="round" stroke-linejoin="round" stroke-miterlimit="10" cx="701.521" cy="1031.285" r="7.857"/>
		
			<circle display="inline" fill="none" stroke="#000000" stroke-width="3" stroke-linecap="round" stroke-linejoin="round" stroke-miterlimit="10" cx="802.527" cy="1031.285" r="7.857"/>
		
			<circle display="inline" fill="none" stroke="#000000" stroke-width="3" stroke-linecap="round" stroke-linejoin="round" stroke-miterlimit="10" cx="752.024" cy="1031.285" r="7.857"/>
		
			<circle display="inline" fill="none" stroke="#000000" stroke-width="3" stroke-linecap="round" stroke-linejoin="round" stroke-miterlimit="10" cx="550.012" cy="1031.285" r="7.857"/>
		
			<circle display="inline" fill="none" stroke="#000000" stroke-width="3" stroke-linecap="round" stroke-linejoin="round" stroke-miterlimit="10" cx="600.515" cy="1031.285" r="7.857"/>
	</g>
	<g id="element">
	</g>
	<g id="spredaj">
		
			<rect x="848.389" y="723.216" display="inline" fill="#785C37" stroke="#000000" stroke-width="3" stroke-linecap="round" stroke-linejoin="round" stroke-miterlimit="10" width="26.316" height="389.172"/>
		
			<rect x="1072.08" y="723.216" display="inline" fill="#785C37" stroke="#000000" stroke-width="3" stroke-linecap="round" stroke-linejoin="round" stroke-miterlimit="10" width="26.316" height="389.172"/>
		
			<rect x="479.214" y="723.216" display="inline" fill="#785C37" stroke="#000000" stroke-width="3" stroke-linecap="round" stroke-linejoin="round" stroke-miterlimit="10" width="26.316" height="389.172"/>
		
			<rect x="1275.771" y="723.216" display="inline" fill="#785C37" stroke="#000000" stroke-width="3" stroke-linecap="round" stroke-linejoin="round" stroke-miterlimit="10" width="26.316" height="389.172"/>
	</g>
	<circle display="inline" cx="754.532" cy="169.69" r="21.095"/>
	<circle display="inline" cx="638.906" cy="298.909" r="21.095"/>
	<circle display="inline" cx="1089.192" cy="232.975" r="21.095"/>
	<circle display="inline" cx="1189.404" cy="98.31" r="21.095"/>
	<circle display="inline" cx="1300.307" cy="476.41" r="21.095"/>
	<circle display="inline" cx="1068.097" cy="414.267" r="21.095"/>
	<circle display="inline" cx="918.438" cy="336.702" r="21.095"/>
	<circle display="inline" cx="959.999" cy="140.5" r="21.095"/>
	<circle display="inline" cx="755.984" cy="395.099" r="21.095"/>
	<circle display="inline" cx="521.91" cy="426.146" r="21.095"/>
	<circle display="inline" cx="140.042" cy="169.69" r="21.095"/>
	<circle display="inline" cx="325.404" cy="106.404" r="21.095"/>
	<circle display="inline" cx="585.62" cy="766.615" r="21.095"/>
	<circle display="inline" cx="709.552" cy="563.073" r="21.095"/>
	<circle display="inline" cx="808.9" cy="724.425" r="21.095"/>
	<circle display="inline" cx="897.343" cy="543.487" r="21.095"/>
	<circle display="inline" cx="876.248" cy="929.685" r="21.095"/>
	<circle display="inline" cx="972.492" cy="724.425" r="21.095"/>
	<circle display="inline" cx="1200.681" cy="808.806" r="21.095"/>
	<circle display="inline" cx="1100.698" cy="605.264" r="21.095"/>
	<circle display="inline" cx="280.11" cy="320.005" r="21.095"/>
	<circle display="inline" cx="492.11" cy="211.88" r="21.095"/>
	<circle display="inline" cx="479.72" cy="605.63" r="21.095"/>
	<circle display="inline" cx="380.094" cy="487.017" r="21.095"/>
	<circle display="inline" cx="247.51" cy="543.487" r="21.095"/>
	<circle display="inline" cx="97.851" cy="465.922" r="21.095"/>
	<circle display="inline" cx="67.904" cy="1012.02" r="21.095"/>
	<circle display="inline" cx="151.904" cy="853.645" r="21.095"/>
	<circle display="inline" cx="67.904" cy="682.235" r="21.095"/>
	<circle display="inline" cx="380.094" cy="938.026" r="21.095"/>
	<circle display="inline" cx="667.362" cy="1012.021" r="21.095"/>
	<circle display="inline" cx="280.11" cy="734.484" r="21.095"/>
	<circle display="inline" cx="422.284" cy="734.484" r="21.095"/>
	<circle display="inline" cx="1083.713" cy="990.926" r="21.095"/>
	<circle display="inline" cx="1342.498" cy="713.389" r="21.095"/>
	<circle display="inline" cx="1279.212" cy="990.926" r="21.095"/>
	<circle display="inline" cx="1242.872" cy="277.815" r="21.095"/>
</g>
<g id="Layer_2">
	<rect y="0" fill="#A0BCF2" width="1919.998" height="1080"/>
	<line fill="#FFFFFF" stroke="#FFFFFF" stroke-width="5" stroke-miterlimit="10" x1="68.499" y1="414.5" x2="578.499" y2="108.5"/>
	
		<line fill="#FFFFFF" stroke="#FFFFFF" stroke-width="5" stroke-miterlimit="10" x1="959.999" y1="170.559" x2="1469.999" y2="-135.441"/>
	
		<line fill="#FFFFFF" stroke="#FFFFFF" stroke-width="5" stroke-miterlimit="10" x1="-356.442" y1="450.154" x2="153.558" y2="144.154"/>
	
		<line fill="#FFFFFF" stroke="#FFFFFF" stroke-width="5" stroke-miterlimit="10" x1="93.381" y1="741.971" x2="603.381" y2="435.971"/>
	
		<line fill="#FFFFFF" stroke="#FFFFFF" stroke-width="5" stroke-miterlimit="10" x1="393.381" y1="403.971" x2="903.381" y2="97.971"/>
	
		<line fill="#FFFFFF" stroke="#FFFFFF" stroke-width="5" stroke-miterlimit="10" x1="503.381" y1="645.971" x2="1013.382" y2="339.971"/>
	
		<line fill="#FFFFFF" stroke="#FFFFFF" stroke-width="5" stroke-miterlimit="10" x1="1029.382" y1="403.971" x2="1539.382" y2="97.971"/>
	
		<line fill="#FFFFFF" stroke="#FFFFFF" stroke-width="5" stroke-miterlimit="10" x1="588.264" y1="1007.442" x2="1098.264" y2="701.442"/>
	
		<line fill="#FFFFFF" stroke="#FFFFFF" stroke-width="5" stroke-miterlimit="10" x1="758.381" y1="731.442" x2="1268.382" y2="425.442"/>
	
		<line fill="#FFFFFF" stroke="#FFFFFF" stroke-width="5" stroke-miterlimit="10" x1="-38.591" y1="1149.155" x2="471.409" y2="843.155"/>
	
		<line fill="#FFFFFF" stroke="#FFFFFF" stroke-width="5" stroke-miterlimit="10" x1="1129.409" y1="927.155" x2="1639.409" y2="621.155"/>
	
		<line fill="#FFFFFF" stroke="#FFFFFF" stroke-width="5" stroke-miterlimit="10" x1="1165.997" y1="1252.801" x2="1675.997" y2="946.801"/>
	
		<line fill="#FFFFFF" stroke="#FFFFFF" stroke-width="5" stroke-miterlimit="10" x1="531.468" y1="1201.919" x2="1041.468" y2="895.919"/>
	
		<line fill="#FFFFFF" stroke="#FFFFFF" stroke-width="5" stroke-miterlimit="10" x1="1293.409" y1="603.155" x2="1803.409" y2="297.155"/>
</g>
</svg>
