<?xml version="1.0" encoding="utf-8"?>
<!-- Generator: Adobe Illustrator 16.0.0, SVG Export Plug-In . SVG Version: 6.00 Build 0)  -->
<!DOCTYPE svg PUBLIC "-//W3C//DTD SVG 1.1//EN" "http://www.w3.org/Graphics/SVG/1.1/DTD/svg11.dtd">
<svg version="1.1" xmlns="http://www.w3.org/2000/svg" xmlns:xlink="http://www.w3.org/1999/xlink" x="0px" y="0px"
	 width="453.543px" height="453.543px" viewBox="0 0 453.543 453.543" enable-background="new 0 0 453.543 453.543"
	 xml:space="preserve">
<g id="kvadrat">
</g>
<g id="bg" display="none">
	<rect x="-3384.14" y="-6357.694" display="inline" width="15266.867" height="13678.951"/>
</g>
<g id="barvno" display="none">
	<g id="rdeča7bela" display="inline">
	</g>
	<g display="inline">
		
			<path fill="#C8C8C8" stroke="#000000" stroke-width="8" stroke-linecap="round" stroke-linejoin="round" stroke-miterlimit="10" d="
			M239.008,383.336c19.931,36.556,100.556,9.364,103.358,6.55c2.8-2.813,10.909-32.792-6.707-54.23
			c-17.969-10.335-79.948,37.567-87.019,28.235c-7.087-9.344-138.437-312.595-138.437-312.595l-3.34,25.424
			C106.865,76.719,232.873,374.975,239.008,383.336z"/>
		<g>
			<path d="M301.55,295.72c-0.796-0.001-1.481-0.567-1.632-1.351l-2.775-14.43c-0.021-0.103-0.03-0.208-0.03-0.314v-29.921
				c-7.986-1.88-14.112-8.646-15.45-17.251c-0.1-0.646,0.186-1.29,0.731-1.646c0.278-0.182,0.597-0.273,0.913-0.273
				c0.309,0,0.618,0.085,0.89,0.257c5.272,3.33,11.274,5.089,17.361,5.089c6.058,0,12.059-1.755,17.355-5.073
				c0.271-0.17,0.577-0.255,0.883-0.255c0.32,0,0.639,0.092,0.916,0.274c0.544,0.359,0.829,1.001,0.73,1.646
				c-1.323,8.582-7.436,15.338-15.41,17.228v29.927c0,0.106-0.01,0.213-0.031,0.319l-2.815,14.43
				c-0.151,0.783-0.837,1.347-1.633,1.347C301.553,295.72,301.551,295.72,301.55,295.72z"/>
			<path d="M283.309,232.197c5.289,3.34,11.501,5.347,18.249,5.347c6.718,0,12.939-2.007,18.24-5.328
				c-1.28,8.295-7.51,14.843-15.43,16.118v31.292l-2.814,14.43l-2.775-14.43v-31.288
				C290.852,247.071,284.601,240.51,283.309,232.197 M319.798,232.215h0.006 M283.309,228.867c-0.636,0-1.272,0.182-1.827,0.546
				c-1.091,0.717-1.664,2.004-1.464,3.295c1.37,8.816,7.419,15.845,15.431,18.271v28.646c0,0.211,0.021,0.422,0.06,0.629
				l2.775,14.43c0.301,1.566,1.671,2.699,3.266,2.702c0.001,0,0.004,0,0.005,0c1.595,0,2.963-1.128,3.268-2.693l2.814-14.43
				c0.041-0.21,0.063-0.422,0.063-0.637v-28.652c7.952-2.419,13.961-9.371,15.365-18.092c0.045-0.214,0.066-0.438,0.066-0.666
				c0-1.838-1.487-3.33-3.326-3.33h-0.006c-0.002,0-0.004,0-0.007,0h-0.002c-0.001,0-0.003,0-0.005,0l0,0
				c-0.661,0.002-1.278,0.2-1.794,0.535c-5.022,3.137-10.704,4.793-16.432,4.793c-5.769,0-11.466-1.67-16.471-4.833
				C284.542,229.037,283.925,228.867,283.309,228.867L283.309,228.867z"/>
		</g>
		
			<path fill="#FFFFFF" stroke="#000000" stroke-width="8" stroke-linecap="round" stroke-linejoin="round" stroke-miterlimit="10" d="
			M335.77,199.676c0,19.018-15.429,34.436-34.456,34.436c-19.016,0-34.418-15.419-34.418-34.436
			c0-19.006,15.402-34.427,34.418-34.427C320.341,165.249,335.77,180.67,335.77,199.676z"/>
		<g>
			<circle cx="277.644" cy="172.235" r="2.105"/>
		</g>
		<g>
			<circle cx="286.067" cy="172.235" r="2.105"/>
		</g>
		<g>
			<circle cx="294.488" cy="172.235" r="2.105"/>
		</g>
		<g>
			<circle cx="302.91" cy="172.235" r="2.105"/>
		</g>
		<g>
			<circle cx="311.333" cy="172.235" r="2.105"/>
		</g>
		<g>
			<circle cx="319.755" cy="172.235" r="2.105"/>
		</g>
		<g>
			<circle cx="273.433" cy="180.083" r="2.106"/>
		</g>
		<g>
			<circle cx="281.855" cy="180.083" r="2.106"/>
		</g>
		<g>
			<circle cx="290.277" cy="180.083" r="2.106"/>
		</g>
		<g>
			<circle cx="298.699" cy="180.083" r="2.106"/>
		</g>
		<g>
			<circle cx="307.121" cy="180.083" r="2.106"/>
		</g>
		<g>
			<circle cx="315.542" cy="180.083" r="2.106"/>
		</g>
		<g>
			<circle cx="323.965" cy="180.083" r="2.106"/>
		</g>
		<g>
			<circle cx="277.644" cy="187.357" r="2.105"/>
		</g>
		<g>
			<circle cx="286.067" cy="187.357" r="2.105"/>
		</g>
		<g>
			<circle cx="294.488" cy="187.357" r="2.105"/>
		</g>
		<g>
			<circle cx="302.91" cy="187.357" r="2.105"/>
		</g>
		<g>
			<circle cx="311.333" cy="187.357" r="2.105"/>
		</g>
		<g>
			<circle cx="319.755" cy="187.357" r="2.105"/>
		</g>
		<g>
			<circle cx="328.176" cy="187.357" r="2.105"/>
		</g>
		<g>
			<circle cx="273.433" cy="195.206" r="2.105"/>
		</g>
		<g>
			<circle cx="281.855" cy="195.206" r="2.105"/>
		</g>
		<g>
			<circle cx="290.277" cy="195.206" r="2.105"/>
		</g>
		<g>
			<circle cx="298.699" cy="195.206" r="2.105"/>
		</g>
		<g>
			<circle cx="307.121" cy="195.206" r="2.105"/>
		</g>
		<g>
			<circle cx="315.542" cy="195.206" r="2.105"/>
		</g>
		<g>
			<circle cx="323.965" cy="195.206" r="2.105"/>
		</g>
		<g>
			<circle cx="277.644" cy="202.48" r="2.106"/>
		</g>
		<g>
			<circle cx="286.067" cy="202.48" r="2.106"/>
		</g>
		<g>
			<circle cx="294.488" cy="202.48" r="2.106"/>
		</g>
		<g>
			<circle cx="302.91" cy="202.48" r="2.106"/>
		</g>
		<g>
			<circle cx="311.333" cy="202.48" r="2.106"/>
		</g>
		<g>
			<circle cx="319.755" cy="202.48" r="2.106"/>
		</g>
		<g>
			<circle cx="328.176" cy="202.48" r="2.106"/>
		</g>
		<g>
			<circle cx="273.433" cy="210.327" r="2.106"/>
		</g>
		<g>
			<circle cx="281.855" cy="210.327" r="2.106"/>
		</g>
		<g>
			<circle cx="290.277" cy="210.327" r="2.106"/>
		</g>
		<g>
			<circle cx="298.699" cy="210.327" r="2.106"/>
		</g>
		<g>
			<circle cx="307.121" cy="210.327" r="2.106"/>
		</g>
		<g>
			<circle cx="315.542" cy="210.327" r="2.106"/>
		</g>
		<g>
			<circle cx="323.965" cy="210.327" r="2.106"/>
		</g>
		<g>
			<circle cx="277.644" cy="217.602" r="2.106"/>
		</g>
		<g>
			<circle cx="286.067" cy="217.602" r="2.106"/>
		</g>
		<g>
			<circle cx="294.488" cy="217.602" r="2.106"/>
		</g>
		<g>
			<circle cx="302.91" cy="217.602" r="2.106"/>
		</g>
		<g>
			<circle cx="311.333" cy="217.602" r="2.106"/>
		</g>
		<g>
			<circle cx="319.755" cy="217.602" r="2.106"/>
		</g>
		<g>
			<circle cx="328.176" cy="217.602" r="2.106"/>
		</g>
		<g>
			<circle cx="281.855" cy="225.45" r="2.106"/>
		</g>
		<g>
			<circle cx="290.277" cy="225.45" r="2.106"/>
		</g>
		<g>
			<circle cx="298.699" cy="225.45" r="2.106"/>
		</g>
		<g>
			<circle cx="307.121" cy="225.45" r="2.106"/>
		</g>
		<g>
			<circle cx="315.542" cy="225.45" r="2.106"/>
		</g>
		<g>
			<circle cx="323.965" cy="225.45" r="2.106"/>
		</g>
	</g>
	
		<rect x="-3894.425" y="-6777.703" display="inline" fill="none" stroke="#000000" stroke-miterlimit="10" width="16736" height="13952"/>
</g>
<g id="sivinsko">
	<g id="rdeča7bela_copy_3">
	</g>
	<g>
		<g>
			<path fill="#C8C8C8" d="M239.008,383.336c19.931,36.556,100.556,9.364,103.358,6.55c2.8-2.813,10.909-32.792-6.707-54.23
				c-17.969-10.335-79.948,37.567-87.019,28.235c-7.087-9.344-138.437-312.595-138.437-312.595l-3.34,25.424
				C106.865,76.719,232.873,374.975,239.008,383.336z"/>
			<path d="M282.369,406.248c-0.001,0,0,0-0.001,0c-23.462,0-39.217-7.039-46.829-20.92
				c-8.181-13.505-111.464-257.608-132.298-306.91l-0.058-0.138c-0.278-0.656-0.375-1.375-0.283-2.081l3.34-25.424
				c0.234-1.783,1.63-3.191,3.411-3.44c1.782-0.248,3.51,0.721,4.225,2.372c51.75,119.478,130.363,299.224,137.713,311.393
				c0.058,0.003,0.126,0.005,0.205,0.005c4.818-0.001,16.987-6.274,28.756-12.342c16.889-8.707,36.031-18.576,48.628-18.576
				c3.315,0,6.167,0.673,8.476,2.002c0.418,0.241,0.79,0.555,1.096,0.928c18.569,22.599,11.272,54.748,6.452,59.592
				C341.897,396.026,309.513,406.248,282.369,406.248z M110.972,76.164c43.31,102.479,125.982,296.886,131.288,304.844
				c0.106,0.144,0.174,0.256,0.26,0.414c6.087,11.165,19.494,16.826,39.847,16.826c25.021,0,52.549-8.962,57.19-11.316
				c2.327-4.327,8.145-29.568-6.472-48.095c-1.019-0.431-2.329-0.649-3.908-0.649c-10.656,0-28.882,9.396-44.962,17.686
				c-15.911,8.203-25.989,13.23-32.42,13.231c0,0-0.001,0-0.002,0c-3.489,0-5.373-1.521-6.34-2.797
				c-6.546-8.631-105.717-236.855-133.166-300.149L110.972,76.164z"/>
		</g>
		<g>
			<path d="M301.55,295.72c-0.796-0.001-1.481-0.567-1.632-1.351l-2.775-14.43c-0.021-0.103-0.03-0.208-0.03-0.314v-29.921
				c-7.986-1.88-14.112-8.646-15.45-17.251c-0.1-0.646,0.186-1.29,0.731-1.646c0.278-0.182,0.597-0.273,0.913-0.273
				c0.309,0,0.618,0.085,0.89,0.257c5.272,3.33,11.274,5.089,17.361,5.089c6.058,0,12.059-1.755,17.355-5.073
				c0.271-0.17,0.577-0.255,0.883-0.255c0.32,0,0.639,0.092,0.916,0.274c0.544,0.359,0.829,1.001,0.73,1.646
				c-1.323,8.582-7.436,15.338-15.41,17.228v29.927c0,0.106-0.01,0.213-0.031,0.319l-2.815,14.43
				c-0.151,0.783-0.837,1.347-1.633,1.347C301.553,295.72,301.551,295.72,301.55,295.72z"/>
			<path d="M283.309,232.197c5.289,3.34,11.501,5.347,18.249,5.347c6.718,0,12.939-2.007,18.24-5.328
				c-1.28,8.295-7.51,14.843-15.43,16.118v31.292l-2.814,14.43l-2.775-14.43v-31.288
				C290.852,247.071,284.601,240.51,283.309,232.197 M319.798,232.215h0.006 M283.309,228.867c-0.636,0-1.272,0.182-1.827,0.546
				c-1.091,0.717-1.664,2.004-1.464,3.295c1.37,8.816,7.419,15.845,15.431,18.271v28.646c0,0.211,0.021,0.422,0.06,0.629
				l2.775,14.43c0.301,1.566,1.671,2.699,3.266,2.702c0.001,0,0.004,0,0.005,0c1.595,0,2.963-1.128,3.268-2.693l2.814-14.43
				c0.041-0.21,0.063-0.422,0.063-0.637v-28.652c7.952-2.419,13.961-9.371,15.365-18.092c0.045-0.214,0.066-0.438,0.066-0.666
				c0-1.838-1.487-3.33-3.326-3.33h-0.006c-0.002,0-0.004,0-0.007,0h-0.002c-0.001,0-0.003,0-0.005,0l0,0
				c-0.661,0.002-1.278,0.2-1.794,0.535c-5.022,3.137-10.704,4.793-16.432,4.793c-5.769,0-11.466-1.67-16.471-4.833
				C284.542,229.037,283.925,228.867,283.309,228.867L283.309,228.867z"/>
		</g>
		<g>
			<path fill="#FFFFFF" d="M335.77,199.676c0,19.018-15.429,34.436-34.456,34.436c-19.016,0-34.418-15.419-34.418-34.436
				c0-19.006,15.402-34.427,34.418-34.427C320.341,165.249,335.77,180.67,335.77,199.676z"/>
			<path d="M301.314,238.112c-21.184,0-38.418-17.242-38.418-38.436c0-21.189,17.234-38.427,38.418-38.427
				c21.205,0,38.456,17.238,38.456,38.427C339.77,220.87,322.519,238.112,301.314,238.112z M301.314,169.249
				c-16.772,0-30.418,13.649-30.418,30.427c0,16.783,13.646,30.436,30.418,30.436c16.793,0,30.456-13.653,30.456-30.436
				C331.77,182.898,318.107,169.249,301.314,169.249z"/>
		</g>
		<g>
			<circle cx="277.644" cy="172.235" r="2.105"/>
		</g>
		<g>
			<circle cx="286.067" cy="172.235" r="2.105"/>
		</g>
		<g>
			<circle cx="294.488" cy="172.235" r="2.105"/>
		</g>
		<g>
			<circle cx="302.91" cy="172.235" r="2.105"/>
		</g>
		<g>
			<circle cx="311.333" cy="172.235" r="2.105"/>
		</g>
		<g>
			<circle cx="319.755" cy="172.235" r="2.105"/>
		</g>
		<g>
			<circle cx="273.433" cy="180.083" r="2.106"/>
		</g>
		<g>
			<circle cx="281.855" cy="180.083" r="2.106"/>
		</g>
		<g>
			<circle cx="290.277" cy="180.083" r="2.106"/>
		</g>
		<g>
			<circle cx="298.699" cy="180.083" r="2.106"/>
		</g>
		<g>
			<circle cx="307.121" cy="180.083" r="2.106"/>
		</g>
		<g>
			<circle cx="315.542" cy="180.083" r="2.106"/>
		</g>
		<g>
			<circle cx="323.965" cy="180.083" r="2.106"/>
		</g>
		<g>
			<circle cx="277.644" cy="187.357" r="2.105"/>
		</g>
		<g>
			<circle cx="286.067" cy="187.357" r="2.105"/>
		</g>
		<g>
			<circle cx="294.488" cy="187.357" r="2.105"/>
		</g>
		<g>
			<circle cx="302.91" cy="187.357" r="2.105"/>
		</g>
		<g>
			<circle cx="311.333" cy="187.357" r="2.105"/>
		</g>
		<g>
			<circle cx="319.755" cy="187.357" r="2.105"/>
		</g>
		<g>
			<circle cx="328.176" cy="187.357" r="2.105"/>
		</g>
		<g>
			<circle cx="273.433" cy="195.206" r="2.105"/>
		</g>
		<g>
			<circle cx="281.855" cy="195.206" r="2.105"/>
		</g>
		<g>
			<circle cx="290.277" cy="195.206" r="2.105"/>
		</g>
		<g>
			<circle cx="298.699" cy="195.206" r="2.105"/>
		</g>
		<g>
			<circle cx="307.121" cy="195.206" r="2.105"/>
		</g>
		<g>
			<circle cx="315.542" cy="195.206" r="2.105"/>
		</g>
		<g>
			<circle cx="323.965" cy="195.206" r="2.105"/>
		</g>
		<g>
			<circle cx="277.644" cy="202.48" r="2.106"/>
		</g>
		<g>
			<circle cx="286.067" cy="202.48" r="2.106"/>
		</g>
		<g>
			<circle cx="294.488" cy="202.48" r="2.106"/>
		</g>
		<g>
			<circle cx="302.91" cy="202.48" r="2.106"/>
		</g>
		<g>
			<circle cx="311.333" cy="202.48" r="2.106"/>
		</g>
		<g>
			<circle cx="319.755" cy="202.48" r="2.106"/>
		</g>
		<g>
			<circle cx="328.176" cy="202.48" r="2.106"/>
		</g>
		<g>
			<circle cx="273.433" cy="210.327" r="2.106"/>
		</g>
		<g>
			<circle cx="281.855" cy="210.327" r="2.106"/>
		</g>
		<g>
			<circle cx="290.277" cy="210.327" r="2.106"/>
		</g>
		<g>
			<circle cx="298.699" cy="210.327" r="2.106"/>
		</g>
		<g>
			<circle cx="307.121" cy="210.327" r="2.106"/>
		</g>
		<g>
			<circle cx="315.542" cy="210.327" r="2.106"/>
		</g>
		<g>
			<circle cx="323.965" cy="210.327" r="2.106"/>
		</g>
		<g>
			<circle cx="277.644" cy="217.602" r="2.106"/>
		</g>
		<g>
			<circle cx="286.067" cy="217.602" r="2.106"/>
		</g>
		<g>
			<circle cx="294.488" cy="217.602" r="2.106"/>
		</g>
		<g>
			<circle cx="302.91" cy="217.602" r="2.106"/>
		</g>
		<g>
			<circle cx="311.333" cy="217.602" r="2.106"/>
		</g>
		<g>
			<circle cx="319.755" cy="217.602" r="2.106"/>
		</g>
		<g>
			<circle cx="328.176" cy="217.602" r="2.106"/>
		</g>
		<g>
			<circle cx="281.855" cy="225.45" r="2.106"/>
		</g>
		<g>
			<circle cx="290.277" cy="225.45" r="2.106"/>
		</g>
		<g>
			<circle cx="298.699" cy="225.45" r="2.106"/>
		</g>
		<g>
			<circle cx="307.121" cy="225.45" r="2.106"/>
		</g>
		<g>
			<circle cx="315.542" cy="225.45" r="2.106"/>
		</g>
		<g>
			<circle cx="323.965" cy="225.45" r="2.106"/>
		</g>
	</g>
	<path d="M12842.074,7174.797h-16737v-13953h16737V7174.797z M-3894.425,7173.797h16736l-0.5-13951h-16735.5l0.5,13951H-3894.425z"
		/>
</g>
<g id="linijsko" display="none">
	<g id="rdeča7bela_copy" display="inline">
	</g>
	<g display="inline">
		<path fill="none" stroke="#000000" stroke-width="8" stroke-linecap="round" stroke-linejoin="round" stroke-miterlimit="10" d="
			M239.008,383.336c19.931,36.556,100.556,9.364,103.358,6.55c2.8-2.813,10.909-32.792-6.707-54.23
			c-17.969-10.335-79.948,37.567-87.019,28.235c-7.087-9.344-138.437-312.595-138.437-312.595l-3.34,25.424
			C106.865,76.719,232.873,374.975,239.008,383.336z"/>
		<g>
			<path d="M301.55,295.72c-0.796-0.001-1.481-0.567-1.632-1.351l-2.775-14.43c-0.021-0.103-0.03-0.208-0.03-0.314v-29.921
				c-7.986-1.88-14.112-8.646-15.45-17.251c-0.1-0.646,0.186-1.29,0.731-1.646c0.278-0.182,0.597-0.273,0.913-0.273
				c0.309,0,0.618,0.085,0.89,0.257c5.272,3.33,11.274,5.089,17.361,5.089c6.058,0,12.059-1.755,17.355-5.073
				c0.271-0.17,0.577-0.255,0.883-0.255c0.32,0,0.639,0.092,0.916,0.274c0.544,0.359,0.829,1.001,0.73,1.646
				c-1.323,8.582-7.436,15.338-15.41,17.228v29.927c0,0.106-0.01,0.213-0.031,0.319l-2.815,14.43
				c-0.151,0.783-0.837,1.347-1.633,1.347C301.553,295.72,301.551,295.72,301.55,295.72z"/>
			<path d="M283.309,232.197c5.289,3.34,11.501,5.347,18.249,5.347c6.718,0,12.939-2.007,18.24-5.328
				c-1.28,8.295-7.51,14.843-15.43,16.118v31.292l-2.814,14.43l-2.775-14.43v-31.288
				C290.852,247.071,284.601,240.51,283.309,232.197 M319.798,232.215h0.006 M283.309,228.867c-0.636,0-1.272,0.182-1.827,0.546
				c-1.091,0.717-1.664,2.004-1.464,3.295c1.37,8.816,7.419,15.845,15.431,18.271v28.646c0,0.211,0.021,0.422,0.06,0.629
				l2.775,14.43c0.301,1.566,1.671,2.699,3.266,2.702c0.001,0,0.004,0,0.005,0c1.595,0,2.963-1.128,3.268-2.693l2.814-14.43
				c0.041-0.21,0.063-0.422,0.063-0.637v-28.652c7.952-2.419,13.961-9.371,15.365-18.092c0.045-0.214,0.066-0.438,0.066-0.666
				c0-1.838-1.487-3.33-3.326-3.33h-0.006c-0.002,0-0.004,0-0.007,0h-0.002c-0.001,0-0.003,0-0.005,0l0,0
				c-0.661,0.002-1.278,0.2-1.794,0.535c-5.022,3.137-10.704,4.793-16.432,4.793c-5.769,0-11.466-1.67-16.471-4.833
				C284.542,229.037,283.925,228.867,283.309,228.867L283.309,228.867z"/>
		</g>
		<path fill="none" stroke="#000000" stroke-width="8" stroke-linecap="round" stroke-linejoin="round" stroke-miterlimit="10" d="
			M335.77,199.676c0,19.018-15.429,34.436-34.456,34.436c-19.016,0-34.418-15.419-34.418-34.436
			c0-19.006,15.402-34.427,34.418-34.427C320.341,165.249,335.77,180.67,335.77,199.676z"/>
		<g>
			<circle cx="277.644" cy="172.235" r="2.105"/>
		</g>
		<g>
			<circle cx="286.067" cy="172.235" r="2.105"/>
		</g>
		<g>
			<circle cx="294.488" cy="172.235" r="2.105"/>
		</g>
		<g>
			<circle cx="302.91" cy="172.235" r="2.105"/>
		</g>
		<g>
			<circle cx="311.333" cy="172.235" r="2.105"/>
		</g>
		<g>
			<circle cx="319.755" cy="172.235" r="2.105"/>
		</g>
		<g>
			<circle cx="273.433" cy="180.083" r="2.106"/>
		</g>
		<g>
			<circle cx="281.855" cy="180.083" r="2.106"/>
		</g>
		<g>
			<circle cx="290.277" cy="180.083" r="2.106"/>
		</g>
		<g>
			<circle cx="298.699" cy="180.083" r="2.106"/>
		</g>
		<g>
			<circle cx="307.121" cy="180.083" r="2.106"/>
		</g>
		<g>
			<circle cx="315.542" cy="180.083" r="2.106"/>
		</g>
		<g>
			<circle cx="323.965" cy="180.083" r="2.106"/>
		</g>
		<g>
			<circle cx="277.644" cy="187.357" r="2.105"/>
		</g>
		<g>
			<circle cx="286.067" cy="187.357" r="2.105"/>
		</g>
		<g>
			<circle cx="294.488" cy="187.357" r="2.105"/>
		</g>
		<g>
			<circle cx="302.91" cy="187.357" r="2.105"/>
		</g>
		<g>
			<circle cx="311.333" cy="187.357" r="2.105"/>
		</g>
		<g>
			<circle cx="319.755" cy="187.357" r="2.105"/>
		</g>
		<g>
			<circle cx="328.176" cy="187.357" r="2.105"/>
		</g>
		<g>
			<circle cx="273.433" cy="195.206" r="2.105"/>
		</g>
		<g>
			<circle cx="281.855" cy="195.206" r="2.105"/>
		</g>
		<g>
			<circle cx="290.277" cy="195.206" r="2.105"/>
		</g>
		<g>
			<circle cx="298.699" cy="195.206" r="2.105"/>
		</g>
		<g>
			<circle cx="307.121" cy="195.206" r="2.105"/>
		</g>
		<g>
			<circle cx="315.542" cy="195.206" r="2.105"/>
		</g>
		<g>
			<circle cx="323.965" cy="195.206" r="2.105"/>
		</g>
		<g>
			<circle cx="277.644" cy="202.48" r="2.106"/>
		</g>
		<g>
			<circle cx="286.067" cy="202.48" r="2.106"/>
		</g>
		<g>
			<circle cx="294.488" cy="202.48" r="2.106"/>
		</g>
		<g>
			<circle cx="302.91" cy="202.48" r="2.106"/>
		</g>
		<g>
			<circle cx="311.333" cy="202.48" r="2.106"/>
		</g>
		<g>
			<circle cx="319.755" cy="202.48" r="2.106"/>
		</g>
		<g>
			<circle cx="328.176" cy="202.48" r="2.106"/>
		</g>
		<g>
			<circle cx="273.433" cy="210.327" r="2.106"/>
		</g>
		<g>
			<circle cx="281.855" cy="210.327" r="2.106"/>
		</g>
		<g>
			<circle cx="290.277" cy="210.327" r="2.106"/>
		</g>
		<g>
			<circle cx="298.699" cy="210.327" r="2.106"/>
		</g>
		<g>
			<circle cx="307.121" cy="210.327" r="2.106"/>
		</g>
		<g>
			<circle cx="315.542" cy="210.327" r="2.106"/>
		</g>
		<g>
			<circle cx="323.965" cy="210.327" r="2.106"/>
		</g>
		<g>
			<circle cx="277.644" cy="217.602" r="2.106"/>
		</g>
		<g>
			<circle cx="286.067" cy="217.602" r="2.106"/>
		</g>
		<g>
			<circle cx="294.488" cy="217.602" r="2.106"/>
		</g>
		<g>
			<circle cx="302.91" cy="217.602" r="2.106"/>
		</g>
		<g>
			<circle cx="311.333" cy="217.602" r="2.106"/>
		</g>
		<g>
			<circle cx="319.755" cy="217.602" r="2.106"/>
		</g>
		<g>
			<circle cx="328.176" cy="217.602" r="2.106"/>
		</g>
		<g>
			<circle cx="281.855" cy="225.45" r="2.106"/>
		</g>
		<g>
			<circle cx="290.277" cy="225.45" r="2.106"/>
		</g>
		<g>
			<circle cx="298.699" cy="225.45" r="2.106"/>
		</g>
		<g>
			<circle cx="307.121" cy="225.45" r="2.106"/>
		</g>
		<g>
			<circle cx="315.542" cy="225.45" r="2.106"/>
		</g>
		<g>
			<circle cx="323.965" cy="225.45" r="2.106"/>
		</g>
	</g>
</g>
<g id="pivot">
	<circle fill="none" cx="237.169" cy="387.707" r="14.133"/>
</g>
</svg>
