<?xml version="1.0" encoding="utf-8"?>
<!-- Generator: Adobe Illustrator 16.0.0, SVG Export Plug-In . SVG Version: 6.00 Build 0)  -->
<!DOCTYPE svg PUBLIC "-//W3C//DTD SVG 1.1//EN" "http://www.w3.org/Graphics/SVG/1.1/DTD/svg11.dtd">
<svg version="1.1" xmlns="http://www.w3.org/2000/svg" xmlns:xlink="http://www.w3.org/1999/xlink" x="0px" y="0px"
	 width="453.543px" height="453.543px" viewBox="0 0 453.543 453.543" enable-background="new 0 0 453.543 453.543"
	 xml:space="preserve">
<g id="kvadrat">
</g>
<g id="bg" display="none">
	<rect x="-5425.085" y="-10949.821" display="inline" width="15266.867" height="13678.951"/>
</g>
<g id="barvno" display="none">
	<g id="rdeča7bela" display="inline">
	</g>
	<g display="inline">
		<g>
			
				<path fill="#7E4E24" stroke="#000000" stroke-width="8" stroke-linecap="round" stroke-linejoin="round" stroke-miterlimit="10" d="
				M125.268,198.006l165.318,88.62c-14.84,4.482-48.664,5.699-48.664,5.699s-31.177,4.018-38.578,15.254
				c-14.963,27.908-24.637,61.42-31.542,74.303s-24.525,7.227-39.614-0.863c-15.092-8.09-29.551-19.635-22.646-32.516
				c9.053-11.727,31.111-39.98,46.57-66.242c6.905-12.881-8.654-40.572-8.654-40.572S129.75,212.849,125.268,198.006z"/>
			
				<path fill="#BD1622" stroke="#000000" stroke-width="8" stroke-linecap="round" stroke-linejoin="round" stroke-miterlimit="10" d="
				M295.906,78.196c-66.004-36.521-128.316,3.1-158.189,56.691c-10.451,19.498-15.586,41.85-12.143,63.094l164.858,88.377
				c19.188-10.25,35.372-25.545,45.827-45.039C364.357,186.772,362.854,112.948,295.906,78.196z"/>
			
				<line fill="#FFFFFF" stroke="#000000" stroke-width="8" stroke-linecap="round" stroke-linejoin="round" stroke-miterlimit="10" x1="153.652" y1="286.358" x2="184.586" y2="232.47"/>
			
				<line fill="#FFFFFF" stroke="#000000" stroke-width="8" stroke-linecap="round" stroke-linejoin="round" stroke-miterlimit="10" x1="201.217" y1="311.081" x2="232.15" y2="257.192"/>
		</g>
	</g>
	
		<rect x="-5935.371" y="-11369.83" display="inline" fill="none" stroke="#000000" stroke-miterlimit="10" width="16736" height="13952"/>
</g>
<g id="sivinsko">
	<g id="rdeča7bela_copy_3">
	</g>
	<g>
		<g>
			<g>
				<path fill="#585858" d="M125.268,198.006l165.318,88.62c-14.84,4.482-48.664,5.699-48.664,5.699s-31.177,4.018-38.578,15.254
					c-14.963,27.908-24.637,61.42-31.542,74.303s-24.525,7.227-39.614-0.863c-15.092-8.09-29.551-19.635-22.646-32.516
					c9.053-11.727,31.111-39.98,46.57-66.242c6.905-12.881-8.654-40.572-8.654-40.572S129.75,212.849,125.268,198.006z"/>
				<path d="M158.149,393.498c-7.399,0-16.77-3.013-27.852-8.954c-28.643-15.354-29.014-29.102-24.282-37.931
					c0.104-0.194,0.224-0.38,0.359-0.555l1.266-1.639c9.848-12.742,30.329-39.243,44.979-64.112
					c4.694-8.942-4.838-29.852-8.612-36.594c-1.184-1.933-18.055-29.604-22.568-44.552c-0.468-1.549,0.043-3.227,1.295-4.251
					c1.252-1.026,2.999-1.194,4.423-0.431l165.318,88.62c1.426,0.765,2.251,2.313,2.091,3.922c-0.161,1.61-1.275,2.965-2.824,3.433
					c-14.739,4.452-46.446,5.746-49.488,5.86c-11.309,1.489-30.696,6.382-35.479,13.329c-8.744,16.347-15.719,34.797-21.328,49.633
					c-3.865,10.224-7.204,19.053-10.12,24.494C171.917,390.135,165.977,393.498,158.149,393.498z M112.925,350.666
					c-5.06,10.077,8.672,20.137,21.152,26.827c9.908,5.312,18.007,8.005,24.072,8.005c4.896,0,8.113-1.75,10.127-5.506
					c2.669-4.98,5.922-13.583,9.688-23.544c5.711-15.107,12.819-33.908,21.854-50.759c0.057-0.106,0.119-0.21,0.185-0.311
					c8.175-12.41,38.03-16.586,41.407-17.021c0.122-0.016,0.245-0.026,0.367-0.03c0.267-0.01,21.568-0.806,37.324-3.319
					L132.97,206.674c6.628,14.517,17.756,32.694,17.896,32.922c0.027,0.044,0.053,0.089,0.079,0.134
					c1.703,3.03,16.411,30.021,8.692,44.421c-0.025,0.047-0.051,0.094-0.078,0.14c-14.909,25.327-35.629,52.138-45.587,65.021
					L112.925,350.666z"/>
			</g>
			<g>
				<path fill="#494949" d="M295.906,78.196c-66.004-36.521-128.316,3.1-158.189,56.691c-10.451,19.498-15.586,41.85-12.143,63.094
					l164.858,88.377c19.188-10.25,35.372-25.545,45.827-45.039C364.357,186.772,362.854,112.948,295.906,78.196z"/>
				<path d="M290.433,290.358c-0.65,0-1.3-0.158-1.89-0.475l-164.858-88.377c-1.098-0.589-1.859-1.655-2.059-2.886
					c-3.385-20.885,1.077-44.19,12.565-65.623c25.096-45.022,67.127-72.956,109.724-72.956c18.195,0,36.323,4.922,53.882,14.629
					c31.89,16.569,51.899,43.184,57.867,76.968c5.153,29.169-0.476,61.669-15.848,91.513c-10.516,19.607-26.93,35.748-47.499,46.735
					C291.729,290.201,291.081,290.358,290.433,290.358z M129.235,195.405l161.181,86.405c18.296-10.206,32.902-24.823,42.319-42.382
					c26.92-52.263,26.325-123.943-38.671-157.683c-0.032-0.016-0.063-0.032-0.094-0.05c-16.374-9.06-33.215-13.654-50.055-13.654
					c-47.451,0-84.167,35.537-102.705,68.793C130.936,156.005,126.704,176.739,129.235,195.405z"/>
			</g>
			<g>
				<line fill="#FFFFFF" x1="153.652" y1="286.358" x2="184.586" y2="232.47"/>
				<path d="M153.648,290.359c-0.675,0-1.36-0.172-1.987-0.532c-1.916-1.1-2.578-3.544-1.478-5.46l30.934-53.889
					c1.101-1.915,3.545-2.576,5.46-1.478c1.916,1.1,2.578,3.544,1.478,5.46l-30.934,53.889
					C156.381,289.638,155.034,290.359,153.648,290.359z"/>
			</g>
			<g>
				<line fill="#FFFFFF" x1="201.217" y1="311.081" x2="232.15" y2="257.192"/>
				<path d="M201.213,315.082c-0.675,0-1.359-0.172-1.987-0.532c-1.916-1.1-2.578-3.544-1.478-5.46l30.934-53.889
					c1.101-1.916,3.543-2.579,5.46-1.478c1.916,1.1,2.578,3.544,1.478,5.46l-30.934,53.889
					C203.946,314.36,202.599,315.082,201.213,315.082z"/>
			</g>
		</g>
	</g>
	<path d="M10801.129,2582.67h-16737v-13953h16737V2582.67z M-5935.371,2581.67h16736l-0.5-13951h-16735.5l0.5,13951H-5935.371z"/>
</g>
<g id="linijsko" display="none">
	<g id="rdeča7bela_copy" display="inline">
	</g>
	<g display="inline">
		<g>
			<path fill="none" stroke="#000000" stroke-width="8" stroke-linecap="round" stroke-linejoin="round" stroke-miterlimit="10" d="
				M125.268,198.006l165.318,88.62c-14.84,4.482-48.664,5.699-48.664,5.699s-31.177,4.018-38.578,15.254
				c-14.963,27.908-24.637,61.42-31.542,74.303s-24.525,7.227-39.614-0.863c-15.092-8.09-29.551-19.635-22.646-32.516
				c9.053-11.727,31.111-39.98,46.57-66.242c6.905-12.881-8.654-40.572-8.654-40.572S129.75,212.849,125.268,198.006z"/>
			<path fill="none" stroke="#000000" stroke-width="8" stroke-linecap="round" stroke-linejoin="round" stroke-miterlimit="10" d="
				M295.906,78.196c-66.004-36.521-128.316,3.1-158.189,56.691c-10.451,19.498-15.586,41.85-12.143,63.094l164.858,88.377
				c19.188-10.25,35.372-25.545,45.827-45.039C364.357,186.772,362.854,112.948,295.906,78.196z"/>
			
				<line fill="none" stroke="#000000" stroke-width="8" stroke-linecap="round" stroke-linejoin="round" stroke-miterlimit="10" x1="153.652" y1="286.358" x2="184.586" y2="232.47"/>
			
				<line fill="none" stroke="#000000" stroke-width="8" stroke-linecap="round" stroke-linejoin="round" stroke-miterlimit="10" x1="201.217" y1="311.081" x2="232.15" y2="257.192"/>
		</g>
	</g>
</g>
<g id="pivot">
	<circle fill="none" cx="226.871" cy="374.151" r="14.133"/>
</g>
</svg>
