<?xml version="1.0" encoding="utf-8"?>
<!-- Generator: Adobe Illustrator 16.0.0, SVG Export Plug-In . SVG Version: 6.00 Build 0)  -->
<!DOCTYPE svg PUBLIC "-//W3C//DTD SVG 1.1//EN" "http://www.w3.org/Graphics/SVG/1.1/DTD/svg11.dtd">
<svg version="1.1" xmlns="http://www.w3.org/2000/svg" xmlns:xlink="http://www.w3.org/1999/xlink" x="0px" y="0px"
	 width="453.544px" height="453.543px" viewBox="0 0 453.544 453.543" enable-background="new 0 0 453.544 453.543"
	 xml:space="preserve">
<g id="kvadrat">
</g>
<g id="bg" display="none">
	<rect x="-7466.03" y="-10949.821" display="inline" width="15266.867" height="13678.951"/>
</g>
<g id="barvno" display="none">
	<g id="rdeča7bela" display="inline">
	</g>
	<g display="inline">
		<g>
			
				<circle fill="#FFFFFF" stroke="#000000" stroke-width="8" stroke-linecap="round" stroke-linejoin="round" stroke-miterlimit="10" cx="114.685" cy="342.041" r="23.917"/>
			
				<path fill="#7E4E24" stroke="#000000" stroke-width="8" stroke-linecap="round" stroke-linejoin="round" stroke-miterlimit="10" d="
				M345.276,198.006l-165.318,88.62c14.84,4.482,48.664,5.699,48.664,5.699s31.178,4.018,38.578,15.254
				c14.963,27.908,24.637,61.42,31.543,74.303c6.904,12.883,24.523,7.227,39.613-0.863c15.092-8.09,29.551-19.635,22.646-32.516
				c-9.053-11.727-31.111-39.98-46.57-66.242c-6.904-12.881,8.654-40.572,8.654-40.572S340.794,212.849,345.276,198.006z"/>
			
				<path fill="#BD1622" stroke="#000000" stroke-width="8" stroke-linecap="round" stroke-linejoin="round" stroke-miterlimit="10" d="
				M174.638,78.196c66.004-36.521,128.316,3.1,158.189,56.691c10.451,19.498,15.586,41.85,12.143,63.094l-164.857,88.377
				c-19.189-10.25-35.373-25.545-45.828-45.039C106.187,186.772,107.69,112.948,174.638,78.196z"/>
			
				<line fill="#FFFFFF" stroke="#000000" stroke-width="8" stroke-linecap="round" stroke-linejoin="round" stroke-miterlimit="10" x1="316.892" y1="286.358" x2="285.958" y2="232.47"/>
			
				<line fill="#FFFFFF" stroke="#000000" stroke-width="8" stroke-linecap="round" stroke-linejoin="round" stroke-miterlimit="10" x1="269.327" y1="311.081" x2="238.394" y2="257.192"/>
		</g>
	</g>
	
		<rect x="-7976.315" y="-11369.83" display="inline" fill="none" stroke="#000000" stroke-miterlimit="10" width="16736" height="13952"/>
</g>
<g id="sivinsko">
	<g id="rdeča7bela_copy_3">
	</g>
	<g>
		<g>
			<g>
				<circle fill="#FFFFFF" cx="114.685" cy="342.041" r="23.917"/>
				<path d="M114.685,369.958c-15.393,0-27.916-12.524-27.916-27.918c0-15.393,12.523-27.916,27.916-27.916
					c15.392,0,27.914,12.523,27.914,27.916C142.599,357.434,130.076,369.958,114.685,369.958z M114.685,322.124
					c-10.981,0-19.916,8.935-19.916,19.916c0,10.982,8.935,19.918,19.916,19.918c10.98,0,19.914-8.936,19.914-19.918
					C134.599,331.059,125.665,322.124,114.685,322.124z"/>
			</g>
			<g>
				<path fill="#585858" d="M345.276,198.006l-165.318,88.62c14.84,4.482,48.664,5.699,48.664,5.699s31.178,4.018,38.578,15.254
					c14.963,27.908,24.637,61.42,31.543,74.303c6.904,12.883,24.523,7.227,39.613-0.863c15.092-8.09,29.551-19.635,22.646-32.516
					c-9.053-11.727-31.111-39.98-46.57-66.242c-6.904-12.881,8.654-40.572,8.654-40.572S340.794,212.849,345.276,198.006z"/>
				<path d="M312.396,393.498c-0.001,0-0.001,0-0.002,0c-7.827-0.001-13.767-3.364-17.177-9.727
					c-2.917-5.441-6.256-14.272-10.122-24.499c-5.609-14.834-12.584-33.283-21.327-49.629c-4.783-6.946-24.171-11.839-35.48-13.328
					c-3.041-0.115-34.748-1.408-49.486-5.86c-1.549-0.468-2.663-1.822-2.824-3.433c-0.16-1.609,0.665-3.157,2.091-3.922
					l165.318-88.62c1.427-0.765,3.172-0.595,4.424,0.431c1.251,1.024,1.763,2.702,1.295,4.251
					c-4.513,14.944-21.378,42.608-22.567,44.551c-5.575,9.967-12.797,28.621-8.613,36.595
					c14.648,24.868,35.129,51.368,44.977,64.109l1.268,1.642c0.135,0.175,0.255,0.36,0.359,0.555
					c4.732,8.829,4.361,22.576-24.282,37.931C329.164,390.485,319.794,393.498,312.396,393.498z M191.441,285.009
					c15.756,2.514,37.058,3.31,37.324,3.319c0.123,0.004,0.246,0.015,0.367,0.03c3.378,0.435,33.234,4.61,41.408,17.021
					c0.066,0.101,0.128,0.204,0.185,0.311c9.034,16.85,16.142,35.648,21.853,50.754c3.768,9.964,7.021,18.568,9.69,23.549
					c2.013,3.756,5.23,5.506,10.126,5.506c0.001,0,0.002,0,0.002,0c6.064,0,14.162-2.693,24.07-8.005
					c12.48-6.69,26.212-16.75,21.152-26.827l-1.048-1.356c-9.958-12.885-30.678-39.694-45.586-65.02
					c-0.027-0.046-0.053-0.093-0.078-0.14c-7.719-14.4,6.99-41.391,8.692-44.421c0.025-0.045,0.052-0.09,0.078-0.134
					c0.14-0.228,11.268-18.408,17.896-32.922L191.441,285.009z"/>
			</g>
			<g>
				<path fill="#494949" d="M174.638,78.196c66.004-36.521,128.316,3.1,158.189,56.691c10.451,19.498,15.586,41.85,12.143,63.094
					l-164.857,88.377c-19.189-10.25-35.373-25.545-45.828-45.039C106.187,186.772,107.69,112.948,174.638,78.196z"/>
				<path d="M180.112,290.358c-0.647,0-1.296-0.157-1.885-0.472c-20.569-10.987-36.984-27.128-47.469-46.677
					c-15.403-29.902-21.031-62.402-15.879-91.571c5.969-33.784,25.978-60.398,57.867-76.968
					c17.559-9.707,35.687-14.629,53.882-14.629c42.597,0,84.628,27.934,109.692,72.898c11.52,21.49,15.982,44.796,12.597,65.681
					c-0.199,1.23-0.96,2.297-2.059,2.886l-164.857,88.377C181.412,290.2,180.762,290.358,180.112,290.358z M226.629,68.042
					c-16.84,0-33.681,4.595-50.055,13.654c-0.031,0.017-0.063,0.034-0.094,0.05c-64.996,33.739-65.592,105.42-38.641,157.741
					c9.388,17.502,23.992,32.118,42.289,42.323l161.181-86.405c2.53-18.666-1.702-39.402-12.008-58.628
					C310.796,103.579,274.08,68.042,226.629,68.042z"/>
			</g>
			<g>
				<line fill="#FFFFFF" x1="316.892" y1="286.358" x2="285.958" y2="232.47"/>
				<path d="M316.896,290.359c-1.386,0-2.733-0.722-3.473-2.01l-30.934-53.889c-1.101-1.916-0.438-4.36,1.478-5.46
					c1.918-1.098,4.361-0.438,5.46,1.478l30.934,53.889c1.101,1.916,0.438,4.36-1.478,5.46
					C318.255,290.188,317.57,290.359,316.896,290.359z"/>
			</g>
			<g>
				<line fill="#FFFFFF" x1="269.327" y1="311.081" x2="238.394" y2="257.192"/>
				<path d="M269.331,315.082c-1.386,0-2.733-0.722-3.473-2.01l-30.934-53.889c-1.101-1.916-0.438-4.36,1.478-5.46
					c1.918-1.101,4.36-0.438,5.46,1.478l30.934,53.889c1.101,1.916,0.438,4.36-1.478,5.46
					C270.69,314.91,270.006,315.082,269.331,315.082z"/>
			</g>
		</g>
	</g>
	<path d="M8760.185,2582.67h-16737v-13953h16737V2582.67z M-7976.315,2581.67h16736l-0.5-13951h-16735.5l0.5,13951H-7976.315z"/>
</g>
<g id="linijsko" display="none">
	<g id="rdeča7bela_copy" display="inline">
	</g>
	<g display="inline">
		<g>
			
				<circle fill="none" stroke="#000000" stroke-width="8" stroke-linecap="round" stroke-linejoin="round" stroke-miterlimit="10" cx="114.685" cy="342.041" r="23.917"/>
			<path fill="none" stroke="#000000" stroke-width="8" stroke-linecap="round" stroke-linejoin="round" stroke-miterlimit="10" d="
				M345.276,198.006l-165.318,88.62c14.84,4.482,48.664,5.699,48.664,5.699s31.178,4.018,38.578,15.254
				c14.963,27.908,24.637,61.42,31.543,74.303c6.904,12.883,24.523,7.227,39.613-0.863c15.092-8.09,29.551-19.635,22.646-32.516
				c-9.053-11.727-31.111-39.98-46.57-66.242c-6.904-12.881,8.654-40.572,8.654-40.572S340.794,212.849,345.276,198.006z"/>
			<path fill="none" stroke="#000000" stroke-width="8" stroke-linecap="round" stroke-linejoin="round" stroke-miterlimit="10" d="
				M174.638,78.196c66.004-36.521,128.316,3.1,158.189,56.691c10.451,19.498,15.586,41.85,12.143,63.094l-164.857,88.377
				c-19.189-10.25-35.373-25.545-45.828-45.039C106.187,186.772,107.69,112.948,174.638,78.196z"/>
			
				<line fill="none" stroke="#000000" stroke-width="8" stroke-linecap="round" stroke-linejoin="round" stroke-miterlimit="10" x1="316.892" y1="286.358" x2="285.958" y2="232.47"/>
			
				<line fill="none" stroke="#000000" stroke-width="8" stroke-linecap="round" stroke-linejoin="round" stroke-miterlimit="10" x1="269.327" y1="311.081" x2="238.394" y2="257.192"/>
		</g>
	</g>
</g>
<g id="pivot">
	<circle fill="none" cx="218.53" cy="379.17" r="14.133"/>
</g>
</svg>
