<?xml version="1.0" encoding="utf-8"?>
<!-- Generator: Adobe Illustrator 16.0.0, SVG Export Plug-In . SVG Version: 6.00 Build 0)  -->
<!DOCTYPE svg PUBLIC "-//W3C//DTD SVG 1.1//EN" "http://www.w3.org/Graphics/SVG/1.1/DTD/svg11.dtd">
<svg version="1.1" xmlns="http://www.w3.org/2000/svg" xmlns:xlink="http://www.w3.org/1999/xlink" x="0px" y="0px"
	 width="453.543px" height="453.543px" viewBox="0 0 453.543 453.543" enable-background="new 0 0 453.543 453.543"
	 xml:space="preserve">
<g id="kvadrat">
</g>
<g id="bg" display="none">
	<rect x="-2363.667" y="-6357.694" display="inline" width="15266.867" height="13678.951"/>
</g>
<g id="barvno" display="none">
	<g display="inline">
		
			<circle fill="#FFCF00" stroke="#000000" stroke-width="8" stroke-linecap="round" stroke-linejoin="round" stroke-miterlimit="10" cx="302.116" cy="326.188" r="33.507"/>
		
			<path fill="#FFCF00" stroke="#000000" stroke-width="8" stroke-linecap="round" stroke-linejoin="round" stroke-miterlimit="10" d="
			M303.751,293.387c1.69,0.564,20.289,25.023-10.031,32.801c-10.238,2.412-20.629,8.567-21.304,14.879"/>
		
			<path fill="#FFCF00" stroke="#000000" stroke-width="8" stroke-linecap="round" stroke-linejoin="round" stroke-miterlimit="10" d="
			M331.253,312.436c-2.385-0.588-13.976,3.72-15.893,11.159c-1.917,7.439,1.737,16.814,1.737,16.814s2.32,7.983-1.851,14.746"/>
		<g>
			<g>
				<g>
					
						<line fill="none" stroke="#000000" stroke-width="2" stroke-linecap="round" stroke-linejoin="round" stroke-miterlimit="10" x1="275.922" y1="220.443" x2="297.553" y2="119.822"/>
					
						<line fill="none" stroke="#000000" stroke-width="2" stroke-linecap="round" stroke-linejoin="round" stroke-miterlimit="10" x1="261.214" y1="226.221" x2="286.519" y2="108.509"/>
					
						<line fill="none" stroke="#000000" stroke-width="2" stroke-linecap="round" stroke-linejoin="round" stroke-miterlimit="10" x1="243.893" y1="244.155" x2="279.235" y2="79.752"/>
					
						<line fill="none" stroke="#000000" stroke-width="2" stroke-linecap="round" stroke-linejoin="round" stroke-miterlimit="10" x1="229.833" y1="246.911" x2="267.549" y2="71.463"/>
					
						<line fill="none" stroke="#000000" stroke-width="2" stroke-linecap="round" stroke-linejoin="round" stroke-miterlimit="10" x1="215.685" y1="250.084" x2="255.955" y2="62.756"/>
					
						<line fill="none" stroke="#000000" stroke-width="2" stroke-linecap="round" stroke-linejoin="round" stroke-miterlimit="10" x1="202.154" y1="250.388" x2="243.744" y2="56.917"/>
					
						<line fill="none" stroke="#000000" stroke-width="2" stroke-linecap="round" stroke-linejoin="round" stroke-miterlimit="10" x1="189.282" y1="247.62" x2="230.872" y2="54.151"/>
					
						<line fill="none" stroke="#000000" stroke-width="2" stroke-linecap="round" stroke-linejoin="round" stroke-miterlimit="10" x1="176.41" y1="244.854" x2="218" y2="51.383"/>
					
						<line fill="none" stroke="#000000" stroke-width="2" stroke-linecap="round" stroke-linejoin="round" stroke-miterlimit="10" x1="163.539" y1="242.087" x2="205.129" y2="48.617"/>
					
						<line fill="none" stroke="#000000" stroke-width="2" stroke-linecap="round" stroke-linejoin="round" stroke-miterlimit="10" x1="151.486" y1="235.507" x2="191.438" y2="49.662"/>
					
						<line fill="none" stroke="#000000" stroke-width="2" stroke-linecap="round" stroke-linejoin="round" stroke-miterlimit="10" x1="140.146" y1="225.619" x2="177.036" y2="54.017"/>
					
						<line fill="none" stroke="#000000" stroke-width="2" stroke-linecap="round" stroke-linejoin="round" stroke-miterlimit="10" x1="132.56" y1="198.262" x2="158.524" y2="77.486"/>
					
						<line fill="none" stroke="#000000" stroke-width="2" stroke-linecap="round" stroke-linejoin="round" stroke-miterlimit="10" x1="121.543" y1="186.862" x2="143.184" y2="86.196"/>
				</g>
				<g>
					
						<line fill="none" stroke="#000000" stroke-width="2" stroke-linecap="round" stroke-linejoin="round" stroke-miterlimit="10" x1="273.685" y1="70.703" x2="185.04" y2="51.646"/>
					
						<line fill="none" stroke="#000000" stroke-width="2" stroke-linecap="round" stroke-linejoin="round" stroke-miterlimit="10" x1="282.693" y1="86.106" x2="170.497" y2="61.986"/>
					
						<line fill="none" stroke="#000000" stroke-width="2" stroke-linecap="round" stroke-linejoin="round" stroke-miterlimit="10" x1="289.456" y1="101.026" x2="158.199" y2="72.81"/>
					
						<line fill="none" stroke="#000000" stroke-width="2" stroke-linecap="round" stroke-linejoin="round" stroke-miterlimit="10" x1="293.625" y1="115.388" x2="148.496" y2="84.189"/>
					
						<line fill="none" stroke="#000000" stroke-width="2" stroke-linecap="round" stroke-linejoin="round" stroke-miterlimit="10" x1="295.733" y1="129.308" x2="140.853" y2="96.013"/>
					
						<line fill="none" stroke="#000000" stroke-width="2" stroke-linecap="round" stroke-linejoin="round" stroke-miterlimit="10" x1="298.211" y1="143.307" x2="132.843" y2="107.758"/>
					
						<line fill="none" stroke="#000000" stroke-width="2" stroke-linecap="round" stroke-linejoin="round" stroke-miterlimit="10" x1="298.154" y1="156.762" x2="127.365" y2="120.046"/>
					
						<line fill="none" stroke="#000000" stroke-width="2" stroke-linecap="round" stroke-linejoin="round" stroke-miterlimit="10" x1="295.387" y1="169.633" x2="124.598" y2="132.918"/>
					
						<line fill="none" stroke="#000000" stroke-width="2" stroke-linecap="round" stroke-linejoin="round" stroke-miterlimit="10" x1="292.62" y1="182.505" x2="121.831" y2="145.79"/>
					
						<line fill="none" stroke="#000000" stroke-width="2" stroke-linecap="round" stroke-linejoin="round" stroke-miterlimit="10" x1="289.853" y1="195.376" x2="119.063" y2="158.661"/>
					
						<line fill="none" stroke="#000000" stroke-width="2" stroke-linecap="round" stroke-linejoin="round" stroke-miterlimit="10" x1="283.721" y1="207.524" x2="119.662" y2="172.257"/>
					
						<line fill="none" stroke="#000000" stroke-width="2" stroke-linecap="round" stroke-linejoin="round" stroke-miterlimit="10" x1="274.667" y1="219.045" x2="123.182" y2="186.479"/>
					
						<line fill="none" stroke="#000000" stroke-width="2" stroke-linecap="round" stroke-linejoin="round" stroke-miterlimit="10" x1="259.677" y1="229.289" x2="132.636" y2="201.979"/>
					
						<line fill="none" stroke="#000000" stroke-width="2" stroke-linecap="round" stroke-linejoin="round" stroke-miterlimit="10" x1="250.201" y1="240.718" x2="136.579" y2="216.292"/>
					
						<line fill="none" stroke="#000000" stroke-width="2" stroke-linecap="round" stroke-linejoin="round" stroke-miterlimit="10" x1="232.688" y1="250.421" x2="148.556" y2="232.335"/>
				</g>
			</g>
			
				<path fill="#0073B3" stroke="#000000" stroke-width="8" stroke-linecap="round" stroke-linejoin="round" stroke-miterlimit="10" d="
				M289.444,90.108C277.181,67.452,257.03,52.1,232.711,46.869c-24.324-5.231-49.001,0.491-69.496,16.106
				c-9.874,7.527-18.345,16.812-25.229,27.678l-0.053-0.019l-0.037,0.158c-7.554,11.967-13.181,25.849-16.542,41.488
				c-5.209,24.229-4.644,48.033,2.727,68.442c1.929,5.336,4.328,10.656,6.451,14.47c1.607,2.879,6.21,10.121,6.726,11.021
				c15.191,26.351,29.522,67.243,23.809,93.821l-14.41,67.045l-0.082-0.019c-0.862-0.183-1.72,0.381-1.908,1.273l-2.849,13.244
				c-0.191,0.887,0.357,1.758,1.216,1.943l23.281,5.007c0.859,0.185,1.649-0.398,1.844-1.283l2.845-13.247
				c0.189-0.892-0.286-1.747-1.153-1.932l-0.149-0.032l14.412-67.038c5.613-26.106,32.949-54.986,57.742-72.089
				c11.468-7.907,21.372-14.735,26.866-21.278c0.045-0.058,0.053-0.094,0.034-0.122c14.685-15.589,25.19-36.916,30.368-61.005
				C305.556,140.595,301.889,113.105,289.444,90.108z M178.063,298.462c-0.126-0.027-1.706-31.604-6.377-40.877
				c3.927,2.084,24.535,6.525,28.942,6.244C192.479,269.861,178.224,298.496,178.063,298.462z M190.978,240.996
				c-40.571-8.722-64.928-55.521-54.39-104.54c10.54-49.027,51.979-81.686,92.549-72.964c40.585,8.726,64.918,55.537,54.381,104.55
				C272.98,217.061,231.551,249.719,190.978,240.996z"/>
			
				<path fill="#FFFFFF" stroke="#000000" stroke-width="6" stroke-linecap="round" stroke-linejoin="round" stroke-miterlimit="10" d="
				M169.853,392.067l-0.149-0.032l14.412-67.038c0.091-0.422,0.203-0.847,0.305-1.271l-23.112-4.968
				c-0.08,0.426-0.15,0.858-0.241,1.277l-14.41,67.045l-0.082-0.019c-0.862-0.183-1.72,0.381-1.908,1.273l-2.849,13.244
				c-0.191,0.887,0.357,1.758,1.216,1.943l23.281,5.007c0.859,0.185,1.649-0.398,1.844-1.283l2.845-13.247
				C171.195,393.107,170.72,392.252,169.853,392.067z"/>
			
				<line fill="#FFFFFF" stroke="#000000" stroke-width="6" stroke-linecap="round" stroke-linejoin="round" stroke-miterlimit="10" x1="156.64" y1="341.569" x2="184.084" y2="323.837"/>
			
				<line fill="#FFFFFF" stroke="#000000" stroke-width="6" stroke-linecap="round" stroke-linejoin="round" stroke-miterlimit="10" x1="151.122" y1="367.236" x2="178.567" y2="349.502"/>
			
				<line fill="#FFFFFF" stroke="#000000" stroke-width="6" stroke-linecap="round" stroke-linejoin="round" stroke-miterlimit="10" x1="145.604" y1="392.902" x2="173.049" y2="375.168"/>
		</g>
	</g>
	<g id="rdeča7bela" display="inline">
	</g>
	
		<rect x="-2873.953" y="-6777.703" display="inline" fill="none" stroke="#000000" stroke-miterlimit="10" width="16736" height="13952"/>
</g>
<g id="sivinsko">
	<g>
		<g>
			<circle fill="#C7C7C7" cx="302.116" cy="326.188" r="33.507"/>
			<path d="M302.117,363.695c-20.682,0-37.508-16.826-37.508-37.507c0-20.681,16.826-37.507,37.508-37.507
				s37.507,16.826,37.507,37.507C339.624,346.869,322.798,363.695,302.117,363.695z M302.117,296.681
				c-16.271,0-29.508,13.237-29.508,29.507c0,16.271,13.237,29.507,29.508,29.507c16.27,0,29.507-13.237,29.507-29.507
				C331.624,309.917,318.387,296.681,302.117,296.681z"/>
		</g>
		<g>
			<path fill="#C7C7C7" d="M303.751,293.387c1.69,0.564,20.289,25.023-10.031,32.801c-10.238,2.412-20.629,8.567-21.304,14.879"/>
			<path d="M272.421,345.067c-0.142,0-0.286-0.008-0.43-0.023c-2.197-0.235-3.787-2.207-3.552-4.403
				c0.95-8.886,13.296-15.739,24.364-18.347c8.023-2.059,12.708-5.467,13.845-10.112c1.571-6.419-3.569-13.933-5.057-15.427
				c-1.506-0.964-2.226-2.86-1.634-4.634c0.699-2.095,2.965-3.229,5.06-2.528c3.465,1.156,10.238,11.504,9.909,20.78
				c-0.237,6.678-3.936,15.515-20.211,19.69c-10.072,2.374-17.953,7.985-18.321,11.43
				C276.174,343.544,274.439,345.066,272.421,345.067z"/>
		</g>
		<g>
			<path fill="#C7C7C7" d="M331.253,312.436c-2.385-0.588-13.976,3.72-15.893,11.159c-1.917,7.439,1.737,16.814,1.737,16.814
				s2.32,7.983-1.851,14.746"/>
			<path d="M315.244,359.155c-0.716,0-1.441-0.192-2.096-0.596c-1.88-1.16-2.465-3.625-1.305-5.504
				c2.926-4.745,1.652-10.567,1.441-11.423c-0.6-1.623-3.856-11.044-1.797-19.036c2.434-9.449,16.217-15.161,20.724-14.044
				c2.145,0.529,3.455,2.697,2.926,4.841c-0.502,2.036-2.483,3.317-4.514,2.992c-2.34,0.134-10.214,3.646-11.389,8.207
				c-1.297,5.037,0.71,12.081,1.593,14.37c0.041,0.106,0.08,0.221,0.111,0.33c0.115,0.396,2.758,9.782-2.287,17.962
				C317.896,358.48,316.585,359.155,315.244,359.155z"/>
		</g>
		<g>
			<g>
				<g>
					<path d="M275.923,221.443c-0.069,0-0.141-0.007-0.211-0.022c-0.54-0.116-0.884-0.648-0.768-1.188l21.631-100.621
						c0.116-0.541,0.648-0.885,1.188-0.768c0.54,0.116,0.884,0.648,0.768,1.188L276.9,220.653
						C276.799,221.122,276.384,221.443,275.923,221.443z"/>
					<path d="M261.215,227.221c-0.07,0-0.14-0.007-0.211-0.022c-0.54-0.116-0.883-0.648-0.768-1.188l25.305-117.711
						c0.116-0.541,0.646-0.885,1.188-0.768c0.54,0.116,0.883,0.648,0.768,1.188l-25.305,117.711
						C262.09,226.9,261.676,227.221,261.215,227.221z"/>
					<path d="M243.894,245.155c-0.07,0-0.14-0.007-0.211-0.022c-0.54-0.116-0.883-0.648-0.768-1.188l35.343-164.403
						c0.116-0.541,0.646-0.885,1.188-0.768c0.54,0.116,0.884,0.648,0.768,1.188l-35.342,164.403
						C244.769,244.834,244.355,245.155,243.894,245.155z"/>
					<path d="M229.834,247.911c-0.069,0-0.141-0.007-0.211-0.022c-0.54-0.116-0.884-0.648-0.768-1.188l37.716-175.448
						c0.116-0.54,0.648-0.883,1.188-0.768c0.54,0.116,0.884,0.648,0.768,1.188l-37.716,175.448
						C230.71,247.59,230.295,247.911,229.834,247.911z"/>
					<path d="M215.686,251.084c-0.07,0-0.14-0.007-0.211-0.022c-0.54-0.116-0.883-0.648-0.768-1.188l40.271-187.328
						c0.116-0.541,0.648-0.885,1.188-0.768c0.54,0.116,0.884,0.648,0.768,1.188l-40.27,187.328
						C216.561,250.763,216.147,251.084,215.686,251.084z"/>
					<path d="M202.155,251.388c-0.069,0-0.141-0.007-0.211-0.022c-0.54-0.116-0.884-0.648-0.768-1.188l41.59-193.47
						c0.117-0.54,0.647-0.883,1.188-0.768c0.54,0.116,0.883,0.648,0.768,1.188l-41.591,193.47
						C203.031,251.067,202.616,251.388,202.155,251.388z"/>
					<path d="M189.283,248.62c-0.069,0-0.141-0.007-0.211-0.022c-0.54-0.116-0.884-0.648-0.768-1.188l41.59-193.469
						c0.117-0.54,0.647-0.884,1.188-0.768c0.54,0.116,0.883,0.648,0.768,1.188L190.259,247.83
						C190.159,248.299,189.744,248.62,189.283,248.62z"/>
					<path d="M176.411,245.854c-0.069,0-0.141-0.007-0.211-0.022c-0.54-0.116-0.884-0.648-0.768-1.188l41.591-193.47
						c0.116-0.54,0.648-0.883,1.188-0.768c0.54,0.116,0.884,0.648,0.768,1.188l-41.591,193.47
						C177.287,245.533,176.872,245.854,176.411,245.854z"/>
					<path d="M163.54,243.087c-0.069,0-0.141-0.007-0.211-0.022c-0.54-0.116-0.884-0.648-0.768-1.188l41.59-193.47
						c0.117-0.54,0.647-0.884,1.188-0.768c0.54,0.116,0.883,0.648,0.768,1.188l-41.591,193.47
						C164.416,242.766,164,243.087,163.54,243.087z"/>
					<path d="M151.487,236.507c-0.07,0-0.14-0.007-0.211-0.022c-0.54-0.116-0.883-0.648-0.768-1.188L190.46,49.452
						c0.116-0.54,0.648-0.882,1.188-0.768c0.54,0.116,0.884,0.648,0.768,1.188l-39.952,185.846
						C152.363,236.187,151.949,236.507,151.487,236.507z"/>
					<path d="M140.147,226.619c-0.069,0-0.141-0.007-0.211-0.022c-0.54-0.116-0.884-0.648-0.768-1.188l36.89-171.602
						c0.116-0.54,0.647-0.883,1.188-0.768s0.884,0.648,0.768,1.188l-36.89,171.602C141.023,226.298,140.608,226.619,140.147,226.619
						z"/>
					<path d="M132.561,199.262c-0.069,0-0.141-0.007-0.211-0.022c-0.54-0.116-0.884-0.648-0.768-1.188l25.964-120.776
						c0.116-0.54,0.647-0.884,1.188-0.768c0.54,0.116,0.884,0.648,0.768,1.188l-25.964,120.776
						C133.437,198.941,133.022,199.262,132.561,199.262z"/>
					<path d="M121.544,187.862c-0.069,0-0.141-0.007-0.211-0.022c-0.54-0.116-0.884-0.648-0.768-1.188l21.641-100.666
						c0.116-0.541,0.647-0.885,1.188-0.768c0.54,0.116,0.884,0.648,0.768,1.188l-21.641,100.666
						C122.42,187.541,122.005,187.862,121.544,187.862z"/>
				</g>
				<g>
					<path d="M273.686,71.703c-0.07,0-0.14-0.007-0.211-0.022L184.83,52.624c-0.54-0.116-0.884-0.648-0.768-1.188
						c0.116-0.54,0.647-0.882,1.188-0.768l88.646,19.056c0.54,0.116,0.883,0.648,0.768,1.188
						C274.561,71.382,274.147,71.703,273.686,71.703z"/>
					<path d="M282.694,87.106c-0.069,0-0.141-0.007-0.211-0.022l-112.196-24.12c-0.54-0.116-0.884-0.648-0.768-1.188
						c0.116-0.54,0.647-0.882,1.188-0.768l112.196,24.12c0.54,0.116,0.884,0.648,0.768,1.188
						C283.57,86.785,283.155,87.106,282.694,87.106z"/>
					<path d="M289.457,102.026c-0.069,0-0.141-0.007-0.211-0.022L157.989,73.788c-0.54-0.116-0.883-0.648-0.768-1.188
						c0.116-0.54,0.647-0.882,1.188-0.768l131.256,28.216c0.54,0.116,0.884,0.648,0.768,1.188
						C290.333,101.705,289.917,102.026,289.457,102.026z"/>
					<path d="M293.625,116.388c-0.069,0-0.141-0.007-0.211-0.022L148.286,85.167c-0.54-0.116-0.884-0.648-0.768-1.188
						c0.116-0.54,0.647-0.883,1.188-0.768l145.129,31.199c0.54,0.116,0.884,0.648,0.768,1.188
						C294.501,116.067,294.086,116.388,293.625,116.388z"/>
					<path d="M295.734,130.308c-0.069,0-0.141-0.007-0.211-0.022L140.643,96.99c-0.54-0.116-0.884-0.648-0.768-1.188
						c0.116-0.54,0.647-0.884,1.188-0.768l154.88,33.295c0.54,0.116,0.884,0.648,0.768,1.188
						C296.61,129.987,296.195,130.308,295.734,130.308z"/>
					<path d="M298.212,144.307c-0.07,0-0.14-0.007-0.211-0.022l-165.368-35.549c-0.54-0.116-0.883-0.648-0.768-1.188
						c0.117-0.541,0.647-0.885,1.188-0.768l165.368,35.549c0.54,0.116,0.883,0.648,0.768,1.188
						C299.087,143.986,298.673,144.307,298.212,144.307z"/>
					<path d="M298.155,157.762c-0.07,0-0.14-0.007-0.211-0.022l-170.789-36.715c-0.54-0.116-0.884-0.648-0.768-1.188
						c0.116-0.54,0.646-0.883,1.188-0.768l170.79,36.715c0.54,0.116,0.883,0.648,0.767,1.188
						C299.031,157.441,298.617,157.762,298.155,157.762z"/>
					<path d="M295.388,170.633c-0.069,0-0.141-0.007-0.211-0.022l-170.79-36.715c-0.54-0.116-0.883-0.648-0.767-1.188
						c0.116-0.54,0.648-0.882,1.188-0.768l170.789,36.715c0.54,0.116,0.884,0.648,0.768,1.188
						C296.264,170.313,295.849,170.633,295.388,170.633z"/>
					<path d="M292.621,183.505c-0.07,0-0.14-0.007-0.211-0.022l-170.789-36.716c-0.54-0.116-0.884-0.648-0.768-1.188
						c0.116-0.541,0.647-0.885,1.188-0.768l170.79,36.716c0.54,0.116,0.883,0.648,0.767,1.188
						C293.497,183.185,293.083,183.505,292.621,183.505z"/>
					<path d="M289.854,196.376c-0.069,0-0.141-0.007-0.211-0.022l-170.79-36.715c-0.54-0.116-0.883-0.648-0.767-1.188
						c0.116-0.54,0.647-0.884,1.188-0.768l170.789,36.715c0.54,0.116,0.884,0.648,0.768,1.188
						C290.73,196.056,290.315,196.376,289.854,196.376z"/>
					<path d="M283.722,208.524c-0.069,0-0.141-0.007-0.211-0.022l-164.06-35.267c-0.54-0.116-0.884-0.648-0.768-1.188
						c0.115-0.541,0.647-0.885,1.188-0.768l164.06,35.267c0.54,0.116,0.884,0.648,0.768,1.188
						C284.598,208.203,284.183,208.524,283.722,208.524z"/>
					<path d="M274.668,220.045c-0.07,0-0.14-0.007-0.211-0.022l-151.485-32.565c-0.54-0.116-0.883-0.648-0.767-1.188
						c0.116-0.54,0.647-0.883,1.188-0.768l151.485,32.565c0.54,0.116,0.883,0.648,0.767,1.188
						C275.543,219.724,275.129,220.045,274.668,220.045z"/>
					<path d="M259.678,230.289c-0.069,0-0.141-0.007-0.211-0.022l-127.041-27.31c-0.54-0.116-0.884-0.648-0.768-1.188
						c0.116-0.54,0.647-0.884,1.188-0.768l127.041,27.31c0.54,0.116,0.884,0.648,0.768,1.188
						C260.554,229.968,260.139,230.289,259.678,230.289z"/>
					<path d="M250.202,241.718c-0.069,0-0.141-0.007-0.211-0.022L136.369,217.27c-0.54-0.116-0.883-0.648-0.767-1.188
						c0.116-0.54,0.647-0.884,1.188-0.768l113.621,24.425c0.54,0.116,0.884,0.648,0.768,1.188
						C251.078,241.397,250.663,241.718,250.202,241.718z"/>
					<path d="M232.689,251.421c-0.07,0-0.14-0.007-0.211-0.022l-84.132-18.086c-0.54-0.116-0.884-0.648-0.768-1.188
						c0.116-0.541,0.648-0.884,1.188-0.768l84.133,18.086c0.54,0.116,0.883,0.648,0.768,1.188
						C233.565,251.101,233.151,251.421,232.689,251.421z"/>
				</g>
			</g>
			<g>
				<path fill="#585858" d="M289.444,90.108C277.181,67.452,257.03,52.1,232.711,46.869c-24.324-5.231-49.001,0.491-69.496,16.106
					c-9.874,7.527-18.345,16.812-25.229,27.678l-0.053-0.019l-0.037,0.158c-7.554,11.967-13.181,25.849-16.542,41.488
					c-5.209,24.229-4.644,48.033,2.727,68.442c1.929,5.336,4.328,10.656,6.451,14.47c1.607,2.879,6.21,10.121,6.726,11.021
					c15.191,26.351,29.522,67.243,23.809,93.821l-14.41,67.045l-0.082-0.019c-0.862-0.183-1.72,0.381-1.908,1.273l-2.849,13.244
					c-0.191,0.887,0.357,1.758,1.216,1.943l23.281,5.007c0.859,0.185,1.649-0.398,1.844-1.283l2.845-13.247
					c0.189-0.892-0.286-1.747-1.153-1.932l-0.149-0.032l14.412-67.038c5.613-26.106,32.949-54.986,57.742-72.089
					c11.468-7.907,21.372-14.735,26.866-21.278c0.045-0.058,0.053-0.094,0.034-0.122c14.685-15.589,25.19-36.916,30.368-61.005
					C305.556,140.595,301.889,113.105,289.444,90.108z M178.063,298.462c-0.126-0.027-1.706-31.604-6.377-40.877
					c3.927,2.084,24.535,6.525,28.942,6.244C192.479,269.861,178.224,298.496,178.063,298.462z M190.978,240.996
					c-40.571-8.722-64.928-55.521-54.39-104.54c10.54-49.027,51.979-81.686,92.549-72.964c40.585,8.726,64.918,55.537,54.381,104.55
					C272.98,217.061,231.551,249.719,190.978,240.996z"/>
				<path d="M166.635,412.563c-0.389,0-0.779-0.042-1.161-0.124l-23.279-5.006c-1.459-0.313-2.753-1.222-3.55-2.494
					c-0.787-1.256-1.048-2.748-0.736-4.202l2.849-13.243c0.319-1.514,1.246-2.789,2.49-3.583l13.91-64.715
					c5.428-25.252-8.306-64.864-23.363-90.982c-0.167-0.292-0.754-1.23-1.52-2.459c-1.734-2.784-4.109-6.597-5.233-8.611
					c-2.314-4.159-4.763-9.646-6.72-15.06c-7.408-20.512-8.402-44.94-2.876-70.643c3.364-15.656,9.016-29.904,16.803-42.358
					c0.174-0.413,0.416-0.792,0.713-1.122c7.059-11.005,15.746-20.479,25.83-28.166c16.153-12.308,34.927-18.813,54.291-18.813
					c6.153,0,12.368,0.665,18.471,1.978c25.485,5.482,46.584,21.55,59.409,45.245c13.086,24.182,16.57,52.931,10.076,83.141
					c-5.348,24.877-16.05,46.467-30.968,62.481c-0.06,0.089-0.123,0.177-0.189,0.263c-0.03,0.039-0.061,0.077-0.092,0.114
					c-5.84,6.954-15.944,13.921-27.644,21.988c-24.053,16.592-50.723,44.555-56.118,69.647l-13.898,64.648
					c0.803,1.214,1.126,2.757,0.791,4.342l-2.847,13.257C171.491,410.729,169.257,412.563,166.635,412.563z M146.225,400.117
					l18.52,3.982l2.01-9.36c-0.149-0.164-0.287-0.34-0.409-0.529c-0.578-0.892-0.777-1.977-0.554-3.016l14.412-67.038
					c5.856-27.235,34.043-57.063,59.381-74.541c11.004-7.587,20.525-14.152,25.747-20.174c0.144-0.239,0.315-0.466,0.513-0.676
					c14.125-14.995,24.281-35.432,29.369-59.104c6.088-28.319,2.875-55.171-9.29-77.651c-11.695-21.606-30.893-36.25-54.057-41.232
					c-5.55-1.194-11.199-1.799-16.788-1.799c-17.598,0-34.694,5.939-49.442,17.176c-9.495,7.238-17.662,16.2-24.274,26.637
					c-0.021,0.033-0.042,0.065-0.064,0.098c-0.007,0.012-0.015,0.024-0.022,0.036c-7.422,11.757-12.81,25.28-16.014,40.193
					c-5.211,24.236-4.319,47.143,2.579,66.243c1.79,4.952,4.102,10.143,6.184,13.883c1.028,1.842,3.44,5.713,5.036,8.275
					c0.844,1.356,1.488,2.392,1.666,2.704c15.792,27.393,30.121,69.33,24.248,96.649l-14.41,67.045
					c-0.224,1.044-0.857,1.956-1.757,2.531c-0.184,0.117-0.375,0.218-0.572,0.303L146.225,400.117z M178.063,302.462
					c-0.279,0-0.559-0.029-0.832-0.087c-2.959-0.63-3.133-3.035-3.317-5.581c-1.809-24.994-4.152-34.139-5.8-37.41
					c-0.784-1.556-0.471-3.439,0.774-4.658c1.244-1.219,3.133-1.492,4.673-0.675c2.875,1.525,21.674,5.79,26.62,5.79
					c0.07,0,0.135-0.001,0.192-0.004c1.772-0.113,3.403,0.953,4.012,2.618c0.609,1.666,0.048,3.534-1.377,4.588
					c-2.791,2.066-8.585,9.177-20.337,31.321C181.27,301.006,180.497,302.462,178.063,302.462z M177.861,263.776
					c1.186,5.183,2.206,12.172,3.075,21.058c3.645-6.471,7.645-13.057,11.386-17.941
					C187.792,266.114,182.356,264.951,177.861,263.776z M204.233,246.406c-4.727,0-9.469-0.504-14.096-1.499
					c-42.667-9.172-68.443-58.2-57.46-109.291c9.659-44.926,44.652-77.533,83.207-77.533c4.726,0,9.467,0.504,14.093,1.499
					c42.664,9.172,68.437,58.205,57.451,109.302C277.772,213.803,242.784,246.406,204.233,246.406z M215.884,66.083
					c-34.81,0-66.514,29.95-75.386,71.214c-10.056,46.778,12.966,91.543,51.32,99.788c4.076,0.876,8.252,1.32,12.415,1.32
					c34.806,0,66.505-29.945,75.374-71.204c10.058-46.784-12.96-91.554-51.312-99.799C224.221,66.527,220.045,66.083,215.884,66.083
					z"/>
			</g>
			<g>
				<path fill="#FFFFFF" d="M169.853,392.067l-0.149-0.032l14.412-67.038c0.091-0.422,0.203-0.847,0.305-1.271l-23.112-4.968
					c-0.08,0.426-0.15,0.858-0.241,1.277l-14.41,67.045l-0.082-0.019c-0.862-0.183-1.72,0.381-1.908,1.273l-2.849,13.244
					c-0.191,0.887,0.357,1.758,1.216,1.943l23.281,5.007c0.859,0.185,1.649-0.398,1.844-1.283l2.845-13.247
					C171.195,393.107,170.72,392.252,169.853,392.067z"/>
				<path d="M166.635,411.563L166.635,411.563c-0.318,0-0.638-0.034-0.95-0.102l-23.28-5.006c-1.214-0.261-2.249-0.988-2.913-2.047
					c-0.648-1.034-0.863-2.262-0.605-3.459l2.849-13.244c0.292-1.385,1.201-2.526,2.398-3.153l14.001-65.146
					c0.055-0.256,0.101-0.516,0.148-0.776l0.077-0.422c0.148-0.796,0.613-1.498,1.287-1.946c0.674-0.448,1.502-0.604,2.292-0.436
					l23.112,4.968c0.791,0.17,1.479,0.652,1.91,1.337c0.43,0.685,0.565,1.515,0.375,2.301l-0.102,0.413
					c-0.065,0.262-0.13,0.524-0.187,0.785l-13.993,65.089c0.83,1.041,1.193,2.45,0.885,3.903l-2.847,13.255
					C170.616,410.052,168.784,411.563,166.635,411.563z M145.038,400.884l20.476,4.403l2.339-10.891
					c-0.259-0.203-0.484-0.448-0.666-0.729c-0.434-0.668-0.583-1.482-0.415-2.261l14.056-65.383l-17.183-3.693l-14.053,65.383
					c-0.168,0.783-0.643,1.467-1.319,1.898c-0.277,0.177-0.579,0.306-0.892,0.383L145.038,400.884z"/>
			</g>
			<g>
				<line fill="#FFFFFF" x1="156.64" y1="341.569" x2="184.084" y2="323.837"/>
				<path d="M156.643,344.569c-0.984,0-1.949-0.484-2.522-1.373c-0.899-1.392-0.5-3.249,0.892-4.148l27.444-17.732
					c1.392-0.898,3.249-0.5,4.147,0.892c0.899,1.392,0.5,3.249-0.892,4.148l-27.444,17.732
					C157.765,344.414,157.201,344.569,156.643,344.569z"/>
			</g>
			<g>
				<line fill="#FFFFFF" x1="151.122" y1="367.236" x2="178.567" y2="349.502"/>
				<path d="M151.125,370.237c-0.984,0-1.949-0.484-2.522-1.373c-0.899-1.392-0.5-3.249,0.892-4.147l27.445-17.734
					c1.392-0.899,3.249-0.5,4.148,0.892c0.899,1.392,0.5,3.249-0.892,4.147l-27.446,17.734
					C152.247,370.081,151.682,370.237,151.125,370.237z"/>
			</g>
			<g>
				<line fill="#FFFFFF" x1="145.604" y1="392.902" x2="173.049" y2="375.168"/>
				<path d="M145.607,395.903c-0.984,0-1.949-0.484-2.523-1.372c-0.899-1.392-0.5-3.249,0.892-4.148l27.445-17.734
					c1.392-0.9,3.248-0.5,4.147,0.891s0.5,3.249-0.892,4.148l-27.444,17.734C146.729,395.747,146.165,395.903,145.607,395.903z"/>
			</g>
		</g>
	</g>
	<g id="rdeča7bela_copy_3">
	</g>
	<path d="M13862.547,7174.797h-16737v-13953h16737V7174.797z M-2873.953,7173.797h16736l-0.5-13951h-16735.5l0.5,13951H-2873.953z"
		/>
</g>
<g id="linijsko" display="none">
	<g display="inline">
		
			<circle fill="none" stroke="#000000" stroke-width="6" stroke-linecap="round" stroke-linejoin="round" stroke-miterlimit="10" cx="302.116" cy="326.188" r="33.507"/>
		<path fill="none" stroke="#000000" stroke-width="6" stroke-linecap="round" stroke-linejoin="round" stroke-miterlimit="10" d="
			M303.751,293.387c1.69,0.564,20.289,25.023-10.031,32.801c-10.238,2.412-20.629,8.567-21.304,14.879"/>
		<path fill="none" stroke="#000000" stroke-width="6" stroke-linecap="round" stroke-linejoin="round" stroke-miterlimit="10" d="
			M331.253,312.436c-2.385-0.588-13.976,3.72-15.893,11.159c-1.917,7.439,1.737,16.814,1.737,16.814s2.32,7.983-1.851,14.746"/>
		<g>
			
				<line fill="none" stroke="#000000" stroke-width="6" stroke-linecap="round" stroke-linejoin="round" stroke-miterlimit="10" x1="264.828" y1="209.411" x2="268.817" y2="190.854"/>
			
				<line fill="none" stroke="#000000" stroke-width="6" stroke-linecap="round" stroke-linejoin="round" stroke-miterlimit="10" x1="268.817" y1="190.854" x2="274.351" y2="165.111"/>
			
				<line fill="none" stroke="#000000" stroke-width="6" stroke-linecap="round" stroke-linejoin="round" stroke-miterlimit="10" x1="274.351" y1="165.111" x2="279.885" y2="139.368"/>
			
				<line fill="none" stroke="#000000" stroke-width="6" stroke-linecap="round" stroke-linejoin="round" stroke-miterlimit="10" x1="283.474" y1="122.672" x2="279.885" y2="139.368"/>
			
				<line fill="none" stroke="#000000" stroke-width="6" stroke-linecap="round" stroke-linejoin="round" stroke-miterlimit="10" x1="254.142" y1="133.833" x2="259.676" y2="108.09"/>
			
				<line fill="none" stroke="#000000" stroke-width="6" stroke-linecap="round" stroke-linejoin="round" stroke-miterlimit="10" x1="264.685" y1="84.787" x2="259.676" y2="108.09"/>
			
				<line fill="none" stroke="#000000" stroke-width="6" stroke-linecap="round" stroke-linejoin="round" stroke-miterlimit="10" x1="248.607" y1="159.577" x2="254.142" y2="133.833"/>
			
				<line fill="none" stroke="#000000" stroke-width="6" stroke-linecap="round" stroke-linejoin="round" stroke-miterlimit="10" x1="237.54" y1="211.063" x2="232.137" y2="236.198"/>
			
				<line fill="none" stroke="#000000" stroke-width="6" stroke-linecap="round" stroke-linejoin="round" stroke-miterlimit="10" x1="237.54" y1="211.063" x2="243.074" y2="185.32"/>
			
				<line fill="none" stroke="#000000" stroke-width="6" stroke-linecap="round" stroke-linejoin="round" stroke-miterlimit="10" x1="232.137" y1="236.198" x2="232.006" y2="236.807"/>
			
				<line fill="none" stroke="#000000" stroke-width="6" stroke-linecap="round" stroke-linejoin="round" stroke-miterlimit="10" x1="243.074" y1="185.32" x2="248.607" y2="159.577"/>
			
				<line fill="none" stroke="#000000" stroke-width="6" stroke-linecap="round" stroke-linejoin="round" stroke-miterlimit="10" x1="222.865" y1="154.043" x2="228.399" y2="128.3"/>
			
				<line fill="none" stroke="#000000" stroke-width="6" stroke-linecap="round" stroke-linejoin="round" stroke-miterlimit="10" x1="233.933" y1="102.556" x2="228.399" y2="128.3"/>
			
				<line fill="none" stroke="#000000" stroke-width="6" stroke-linecap="round" stroke-linejoin="round" stroke-miterlimit="10" x1="241.462" y1="67.533" x2="239.467" y2="76.813"/>
			
				<line fill="none" stroke="#000000" stroke-width="6" stroke-linecap="round" stroke-linejoin="round" stroke-miterlimit="10" x1="233.933" y1="102.556" x2="239.467" y2="76.813"/>
			
				<line fill="none" stroke="#000000" stroke-width="6" stroke-linecap="round" stroke-linejoin="round" stroke-miterlimit="10" x1="217.331" y1="179.786" x2="222.865" y2="154.043"/>
			
				<line fill="none" stroke="#000000" stroke-width="6" stroke-linecap="round" stroke-linejoin="round" stroke-miterlimit="10" x1="211.797" y1="205.529" x2="217.331" y2="179.786"/>
			
				<line fill="none" stroke="#000000" stroke-width="6" stroke-linecap="round" stroke-linejoin="round" stroke-miterlimit="10" x1="206.263" y1="231.272" x2="203.871" y2="242.4"/>
			
				<line fill="none" stroke="#000000" stroke-width="6" stroke-linecap="round" stroke-linejoin="round" stroke-miterlimit="10" x1="206.263" y1="231.272" x2="211.797" y2="205.529"/>
			
				<line fill="none" stroke="#000000" stroke-width="6" stroke-linecap="round" stroke-linejoin="round" stroke-miterlimit="10" x1="202.655" y1="122.766" x2="197.121" y2="148.509"/>
			
				<line fill="none" stroke="#000000" stroke-width="6" stroke-linecap="round" stroke-linejoin="round" stroke-miterlimit="10" x1="178.156" y1="236.731" x2="180.519" y2="225.738"/>
			
				<line fill="none" stroke="#000000" stroke-width="6" stroke-linecap="round" stroke-linejoin="round" stroke-miterlimit="10" x1="208.189" y1="97.022" x2="202.655" y2="122.766"/>
			
				<line fill="none" stroke="#000000" stroke-width="6" stroke-linecap="round" stroke-linejoin="round" stroke-miterlimit="10" x1="215.7" y1="62.085" x2="213.724" y2="71.279"/>
			
				<line fill="none" stroke="#000000" stroke-width="6" stroke-linecap="round" stroke-linejoin="round" stroke-miterlimit="10" x1="213.724" y1="71.279" x2="208.189" y2="97.022"/>
			
				<line fill="none" stroke="#000000" stroke-width="6" stroke-linecap="round" stroke-linejoin="round" stroke-miterlimit="10" x1="180.519" y1="225.738" x2="186.053" y2="199.995"/>
			
				<line fill="none" stroke="#000000" stroke-width="6" stroke-linecap="round" stroke-linejoin="round" stroke-miterlimit="10" x1="191.587" y1="174.252" x2="197.121" y2="148.509"/>
			
				<line fill="none" stroke="#000000" stroke-width="6" stroke-linecap="round" stroke-linejoin="round" stroke-miterlimit="10" x1="186.053" y1="199.995" x2="191.587" y2="174.252"/>
			
				<line fill="none" stroke="#000000" stroke-width="6" stroke-linecap="round" stroke-linejoin="round" stroke-miterlimit="10" x1="187.373" y1="68.573" x2="182.446" y2="91.488"/>
			
				<line fill="none" stroke="#000000" stroke-width="6" stroke-linecap="round" stroke-linejoin="round" stroke-miterlimit="10" x1="182.446" y1="91.488" x2="176.913" y2="117.231"/>
			
				<line fill="none" stroke="#000000" stroke-width="6" stroke-linecap="round" stroke-linejoin="round" stroke-miterlimit="10" x1="171.378" y1="142.975" x2="165.844" y2="168.718"/>
			
				<line fill="none" stroke="#000000" stroke-width="6" stroke-linecap="round" stroke-linejoin="round" stroke-miterlimit="10" x1="176.913" y1="117.231" x2="171.378" y2="142.975"/>
			
				<line fill="none" stroke="#000000" stroke-width="6" stroke-linecap="round" stroke-linejoin="round" stroke-miterlimit="10" x1="160.31" y1="194.461" x2="165.844" y2="168.718"/>
			
				<line fill="none" stroke="#000000" stroke-width="6" stroke-linecap="round" stroke-linejoin="round" stroke-miterlimit="10" x1="136.353" y1="180.621" x2="140.101" y2="163.184"/>
			
				<line fill="none" stroke="#000000" stroke-width="6" stroke-linecap="round" stroke-linejoin="round" stroke-miterlimit="10" x1="145.635" y1="137.441" x2="140.101" y2="163.184"/>
			
				<line fill="none" stroke="#000000" stroke-width="6" stroke-linecap="round" stroke-linejoin="round" stroke-miterlimit="10" x1="151.169" y1="111.697" x2="145.635" y2="137.441"/>
			
				<line fill="none" stroke="#000000" stroke-width="6" stroke-linecap="round" stroke-linejoin="round" stroke-miterlimit="10" x1="151.169" y1="111.697" x2="154.524" y2="96.09"/>
			
				<line fill="none" stroke="#000000" stroke-width="6" stroke-linecap="round" stroke-linejoin="round" stroke-miterlimit="10" x1="239.467" y1="76.813" x2="213.724" y2="71.279"/>
			
				<line fill="none" stroke="#000000" stroke-width="6" stroke-linecap="round" stroke-linejoin="round" stroke-miterlimit="10" x1="191.998" y1="66.608" x2="213.724" y2="71.279"/>
			
				<line fill="none" stroke="#000000" stroke-width="6" stroke-linecap="round" stroke-linejoin="round" stroke-miterlimit="10" x1="261.709" y1="81.595" x2="239.467" y2="76.813"/>
			
				<line fill="none" stroke="#000000" stroke-width="6" stroke-linecap="round" stroke-linejoin="round" stroke-miterlimit="10" x1="259.676" y1="108.09" x2="233.933" y2="102.556"/>
			
				<line fill="none" stroke="#000000" stroke-width="6" stroke-linecap="round" stroke-linejoin="round" stroke-miterlimit="10" x1="208.189" y1="97.022" x2="182.446" y2="91.488"/>
			
				<line fill="none" stroke="#000000" stroke-width="6" stroke-linecap="round" stroke-linejoin="round" stroke-miterlimit="10" x1="162.026" y1="87.098" x2="182.446" y2="91.488"/>
			
				<line fill="none" stroke="#000000" stroke-width="6" stroke-linecap="round" stroke-linejoin="round" stroke-miterlimit="10" x1="208.189" y1="97.022" x2="233.933" y2="102.556"/>
			
				<line fill="none" stroke="#000000" stroke-width="6" stroke-linecap="round" stroke-linejoin="round" stroke-miterlimit="10" x1="280.604" y1="112.589" x2="259.676" y2="108.09"/>
			
				<line fill="none" stroke="#000000" stroke-width="6" stroke-linecap="round" stroke-linejoin="round" stroke-miterlimit="10" x1="254.142" y1="133.833" x2="228.399" y2="128.3"/>
			
				<line fill="none" stroke="#000000" stroke-width="6" stroke-linecap="round" stroke-linejoin="round" stroke-miterlimit="10" x1="145.694" y1="110.521" x2="151.169" y2="111.697"/>
			
				<line fill="none" stroke="#000000" stroke-width="6" stroke-linecap="round" stroke-linejoin="round" stroke-miterlimit="10" x1="176.913" y1="117.231" x2="202.655" y2="122.766"/>
			
				<line fill="none" stroke="#000000" stroke-width="6" stroke-linecap="round" stroke-linejoin="round" stroke-miterlimit="10" x1="279.885" y1="139.368" x2="285.872" y2="140.655"/>
			
				<line fill="none" stroke="#000000" stroke-width="6" stroke-linecap="round" stroke-linejoin="round" stroke-miterlimit="10" x1="228.399" y1="128.3" x2="202.655" y2="122.766"/>
			
				<line fill="none" stroke="#000000" stroke-width="6" stroke-linecap="round" stroke-linejoin="round" stroke-miterlimit="10" x1="151.169" y1="111.697" x2="176.913" y2="117.231"/>
			
				<line fill="none" stroke="#000000" stroke-width="6" stroke-linecap="round" stroke-linejoin="round" stroke-miterlimit="10" x1="279.885" y1="139.368" x2="254.142" y2="133.833"/>
			
				<line fill="none" stroke="#000000" stroke-width="6" stroke-linecap="round" stroke-linejoin="round" stroke-miterlimit="10" x1="274.351" y1="165.111" x2="283.696" y2="167.12"/>
			
				<line fill="none" stroke="#000000" stroke-width="6" stroke-linecap="round" stroke-linejoin="round" stroke-miterlimit="10" x1="145.635" y1="137.441" x2="171.378" y2="142.975"/>
			
				<line fill="none" stroke="#000000" stroke-width="6" stroke-linecap="round" stroke-linejoin="round" stroke-miterlimit="10" x1="197.121" y1="148.509" x2="222.865" y2="154.043"/>
			
				<line fill="none" stroke="#000000" stroke-width="6" stroke-linecap="round" stroke-linejoin="round" stroke-miterlimit="10" x1="136.794" y1="135.541" x2="145.635" y2="137.441"/>
			
				<line fill="none" stroke="#000000" stroke-width="6" stroke-linecap="round" stroke-linejoin="round" stroke-miterlimit="10" x1="222.865" y1="154.043" x2="248.607" y2="159.577"/>
			
				<line fill="none" stroke="#000000" stroke-width="6" stroke-linecap="round" stroke-linejoin="round" stroke-miterlimit="10" x1="171.378" y1="142.975" x2="197.121" y2="148.509"/>
			
				<line fill="none" stroke="#000000" stroke-width="6" stroke-linecap="round" stroke-linejoin="round" stroke-miterlimit="10" x1="274.351" y1="165.111" x2="248.607" y2="159.577"/>
			
				<line fill="none" stroke="#000000" stroke-width="6" stroke-linecap="round" stroke-linejoin="round" stroke-miterlimit="10" x1="275.265" y1="192.24" x2="268.817" y2="190.854"/>
			
				<line fill="none" stroke="#000000" stroke-width="6" stroke-linecap="round" stroke-linejoin="round" stroke-miterlimit="10" x1="243.074" y1="185.32" x2="268.817" y2="190.854"/>
			
				<line fill="none" stroke="#000000" stroke-width="6" stroke-linecap="round" stroke-linejoin="round" stroke-miterlimit="10" x1="140.101" y1="163.184" x2="165.844" y2="168.718"/>
			
				<line fill="none" stroke="#000000" stroke-width="6" stroke-linecap="round" stroke-linejoin="round" stroke-miterlimit="10" x1="217.331" y1="179.786" x2="243.074" y2="185.32"/>
			
				<line fill="none" stroke="#000000" stroke-width="6" stroke-linecap="round" stroke-linejoin="round" stroke-miterlimit="10" x1="165.844" y1="168.718" x2="191.587" y2="174.252"/>
			
				<line fill="none" stroke="#000000" stroke-width="6" stroke-linecap="round" stroke-linejoin="round" stroke-miterlimit="10" x1="140.101" y1="163.184" x2="134.186" y2="161.912"/>
			
				<line fill="none" stroke="#000000" stroke-width="6" stroke-linecap="round" stroke-linejoin="round" stroke-miterlimit="10" x1="191.587" y1="174.252" x2="217.331" y2="179.786"/>
			
				<line fill="none" stroke="#000000" stroke-width="6" stroke-linecap="round" stroke-linejoin="round" stroke-miterlimit="10" x1="186.053" y1="199.995" x2="160.31" y2="194.461"/>
			
				<line fill="none" stroke="#000000" stroke-width="6" stroke-linecap="round" stroke-linejoin="round" stroke-miterlimit="10" x1="138.823" y1="189.842" x2="160.31" y2="194.461"/>
			
				<line fill="none" stroke="#000000" stroke-width="6" stroke-linecap="round" stroke-linejoin="round" stroke-miterlimit="10" x1="211.797" y1="205.529" x2="237.54" y2="211.063"/>
			
				<line fill="none" stroke="#000000" stroke-width="6" stroke-linecap="round" stroke-linejoin="round" stroke-miterlimit="10" x1="237.54" y1="211.063" x2="259.558" y2="215.797"/>
			
				<line fill="none" stroke="#000000" stroke-width="6" stroke-linecap="round" stroke-linejoin="round" stroke-miterlimit="10" x1="186.053" y1="199.995" x2="211.797" y2="205.529"/>
			
				<line fill="none" stroke="#000000" stroke-width="6" stroke-linecap="round" stroke-linejoin="round" stroke-miterlimit="10" x1="206.263" y1="231.272" x2="231.168" y2="236.626"/>
			
				<line fill="none" stroke="#000000" stroke-width="6" stroke-linecap="round" stroke-linejoin="round" stroke-miterlimit="10" x1="156.15" y1="220.5" x2="180.519" y2="225.738"/>
			
				<line fill="none" stroke="#000000" stroke-width="6" stroke-linecap="round" stroke-linejoin="round" stroke-miterlimit="10" x1="206.263" y1="231.272" x2="180.519" y2="225.738"/>
			
				<line fill="none" stroke="#000000" stroke-width="6" stroke-linecap="round" stroke-linejoin="round" stroke-miterlimit="10" x1="231.168" y1="236.626" x2="232.006" y2="236.807"/>
			<path fill="none" stroke="#000000" stroke-width="6" stroke-linecap="round" stroke-linejoin="round" stroke-miterlimit="10" d="
				M154.524,96.09c2.345-3.19,4.854-6.191,7.501-8.992"/>
			<path fill="none" stroke="#000000" stroke-width="6" stroke-linecap="round" stroke-linejoin="round" stroke-miterlimit="10" d="
				M187.373,68.573c1.525-0.709,3.067-1.367,4.625-1.964"/>
			<path fill="none" stroke="#000000" stroke-width="6" stroke-linecap="round" stroke-linejoin="round" stroke-miterlimit="10" d="
				M285.872,140.655c-0.265-6.18-1.086-12.197-2.398-17.982"/>
			<path fill="none" stroke="#000000" stroke-width="6" stroke-linecap="round" stroke-linejoin="round" stroke-miterlimit="10" d="
				M231.168,236.626c0.323-0.141,0.646-0.283,0.969-0.429"/>
			<path fill="none" stroke="#000000" stroke-width="6" stroke-linecap="round" stroke-linejoin="round" stroke-miterlimit="10" d="
				M138.823,189.842c3.566,11.123,9.07,21.123,16.172,29.346"/>
			<path fill="none" stroke="#000000" stroke-width="6" stroke-linecap="round" stroke-linejoin="round" stroke-miterlimit="10" d="
				M178.156,236.731c-8.351-3.794-15.761-9.336-22.006-16.232"/>
			<path fill="none" stroke="#000000" stroke-width="6" stroke-linecap="round" stroke-linejoin="round" stroke-miterlimit="10" d="
				M280.604,112.589c1.131,3.265,2.087,6.632,2.87,10.083"/>
			<path fill="none" stroke="#000000" stroke-width="6" stroke-linecap="round" stroke-linejoin="round" stroke-miterlimit="10" d="
				M264.828,209.411c-1.68,2.224-3.438,4.355-5.27,6.386"/>
			<path fill="none" stroke="#000000" stroke-width="8" stroke-linecap="round" stroke-linejoin="round" stroke-miterlimit="10" d="
				M161.309,318.758c-0.08,0.426-0.151,0.858-0.241,1.277"/>
			<path fill="none" stroke="#000000" stroke-width="8" stroke-linecap="round" stroke-linejoin="round" stroke-miterlimit="10" d="
				M184.421,323.726c6.208-25.769,33.045-53.992,57.437-70.817c11.468-7.907,21.372-14.735,26.866-21.278
				c0.045-0.058,0.053-0.094,0.034-0.122c14.685-15.589,25.19-36.916,30.368-61.005c6.43-29.909,2.763-57.398-9.683-80.396
				C277.181,67.452,257.03,52.1,232.711,46.869c-24.324-5.231-49.001,0.491-69.496,16.106c-9.874,7.527-18.345,16.812-25.229,27.678
				l-0.053-0.019l-0.037,0.158c-7.554,11.967-13.181,25.849-16.542,41.488c-5.209,24.229-4.644,48.033,2.727,68.442
				c1.929,5.336,4.328,10.656,6.451,14.47c1.607,2.879,6.21,10.121,6.726,11.021c14.952,25.936,29.056,65.948,24.049,92.543"/>
			<path fill="none" stroke="#000000" stroke-width="6" stroke-linecap="round" stroke-linejoin="round" stroke-miterlimit="10" d="
				M283.696,167.12c1.851-8.977,2.545-17.872,2.176-26.465"/>
			<path fill="none" stroke="#000000" stroke-width="6" stroke-linecap="round" stroke-linejoin="round" stroke-miterlimit="10" d="
				M136.353,180.621c0.672,3.149,1.508,6.222,2.47,9.221"/>
			<path fill="none" stroke="#000000" stroke-width="6" stroke-linecap="round" stroke-linejoin="round" stroke-miterlimit="10" d="
				M231.168,236.626c-8.701,3.798-17.931,5.827-27.297,5.773"/>
			<path fill="none" stroke="#000000" stroke-width="6" stroke-linecap="round" stroke-linejoin="round" stroke-miterlimit="10" d="
				M178.156,236.731c4.063,1.846,8.337,3.3,12.822,4.265c4.301,0.925,8.611,1.379,12.894,1.404"/>
			<path fill="none" stroke="#000000" stroke-width="8" stroke-linecap="round" stroke-linejoin="round" stroke-miterlimit="10" d="
				M178.063,298.462c0.161,0.034,14.416-28.601,22.565-34.633c-4.408,0.281-25.016-4.16-28.942-6.244
				C176.357,266.858,177.937,298.435,178.063,298.462z"/>
			<path fill="none" stroke="#000000" stroke-width="6" stroke-linecap="round" stroke-linejoin="round" stroke-miterlimit="10" d="
				M187.373,68.573c-9.247,4.295-17.856,10.597-25.347,18.525"/>
			<path fill="none" stroke="#000000" stroke-width="6" stroke-linecap="round" stroke-linejoin="round" stroke-miterlimit="10" d="
				M280.604,112.589c-3.646-10.526-9.049-19.99-15.918-27.802"/>
			<path fill="none" stroke="#000000" stroke-width="6" stroke-linecap="round" stroke-linejoin="round" stroke-miterlimit="10" d="
				M264.685,84.787c-0.964-1.097-1.955-2.163-2.976-3.192"/>
			<path fill="none" stroke="#000000" stroke-width="6" stroke-linecap="round" stroke-linejoin="round" stroke-miterlimit="10" d="
				M275.265,192.24c3.589-7.471,6.4-15.58,8.253-24.198c0.066-0.308,0.115-0.615,0.178-0.922"/>
			<path fill="none" stroke="#000000" stroke-width="6" stroke-linecap="round" stroke-linejoin="round" stroke-miterlimit="10" d="
				M232.137,236.198c10.09-4.578,19.437-11.543,27.421-20.401"/>
			<path fill="none" stroke="#000000" stroke-width="6" stroke-linecap="round" stroke-linejoin="round" stroke-miterlimit="10" d="
				M156.15,220.5c-0.391-0.431-0.774-0.87-1.155-1.312"/>
			<path fill="none" stroke="#000000" stroke-width="6" stroke-linecap="round" stroke-linejoin="round" stroke-miterlimit="10" d="
				M261.709,81.595c-5.875-5.926-12.684-10.703-20.248-14.062"/>
			<path fill="none" stroke="#000000" stroke-width="6" stroke-linecap="round" stroke-linejoin="round" stroke-miterlimit="10" d="
				M275.265,192.24c-2.975,6.19-6.486,11.938-10.437,17.17"/>
			<path fill="none" stroke="#000000" stroke-width="6" stroke-linecap="round" stroke-linejoin="round" stroke-miterlimit="10" d="
				M136.794,135.541c-0.068,0.306-0.141,0.609-0.207,0.916c-1.853,8.621-2.605,17.167-2.402,25.456"/>
			<path fill="none" stroke="#000000" stroke-width="6" stroke-linecap="round" stroke-linejoin="round" stroke-miterlimit="10" d="
				M136.794,135.541c2.002-8.946,5.031-17.338,8.899-25.02"/>
			<path fill="none" stroke="#000000" stroke-width="6" stroke-linecap="round" stroke-linejoin="round" stroke-miterlimit="10" d="
				M154.524,96.09c-3.279,4.461-6.241,9.288-8.831,14.43"/>
			<path fill="none" stroke="#000000" stroke-width="6" stroke-linecap="round" stroke-linejoin="round" stroke-miterlimit="10" d="
				M134.186,161.912c0.158,6.423,0.882,12.693,2.167,18.708"/>
			<path fill="none" stroke="#000000" stroke-width="8" stroke-linecap="round" stroke-linejoin="round" stroke-miterlimit="10" d="
				M184.421,323.726c-0.102,0.424-0.214,0.849-0.305,1.271"/>
			<path fill="none" stroke="#000000" stroke-width="6" stroke-linecap="round" stroke-linejoin="round" stroke-miterlimit="10" d="
				M241.462,67.533c-3.915-1.739-8.023-3.116-12.326-4.041c-4.482-0.963-8.976-1.42-13.437-1.407"/>
			<path fill="none" stroke="#000000" stroke-width="6" stroke-linecap="round" stroke-linejoin="round" stroke-miterlimit="10" d="
				M215.7,62.085c-8.092,0.023-16.078,1.599-23.702,4.523"/>
			<path fill="none" stroke="#000000" stroke-width="8" stroke-linecap="round" stroke-linejoin="round" stroke-miterlimit="10" d="
				M184.421,323.726L184.421,323.726c-0.103,0.424-0.214,0.849-0.305,1.271"/>
			<path fill="none" stroke="#000000" stroke-width="8" stroke-linecap="round" stroke-linejoin="round" stroke-miterlimit="10" d="
				M161.309,318.758L161.309,318.758c-0.08,0.426-0.15,0.858-0.241,1.277"/>
			
				<line fill="none" stroke="#000000" stroke-width="8" stroke-linecap="round" stroke-linejoin="round" stroke-miterlimit="10" x1="161.309" y1="318.758" x2="184.421" y2="323.726"/>
			<path fill="none" stroke="#000000" stroke-width="8" stroke-linecap="round" stroke-linejoin="round" stroke-miterlimit="10" d="
				M161.068,320.036l-14.41,67.045l-0.082-0.019c-0.862-0.183-1.72,0.381-1.908,1.273l-2.849,13.244
				c-0.191,0.887,0.357,1.758,1.216,1.943l23.281,5.007c0.859,0.185,1.649-0.398,1.844-1.283l2.845-13.247
				c0.189-0.892-0.286-1.747-1.153-1.932l-0.149-0.032l14.412-67.038"/>
			
				<line fill="none" stroke="#000000" stroke-width="8" stroke-linecap="round" stroke-linejoin="round" stroke-miterlimit="10" x1="156.64" y1="341.569" x2="184.084" y2="323.837"/>
			
				<line fill="none" stroke="#000000" stroke-width="8" stroke-linecap="round" stroke-linejoin="round" stroke-miterlimit="10" x1="178.567" y1="349.502" x2="151.122" y2="367.236"/>
			
				<line fill="none" stroke="#000000" stroke-width="8" stroke-linecap="round" stroke-linejoin="round" stroke-miterlimit="10" x1="173.049" y1="375.168" x2="145.604" y2="392.902"/>
			
				<line fill="none" stroke="#000000" stroke-width="6" stroke-linecap="round" stroke-linejoin="round" stroke-miterlimit="10" x1="154.995" y1="219.188" x2="160.31" y2="194.461"/>
		</g>
	</g>
	<g id="rdeča7bela_copy" display="inline">
	</g>
</g>
<g id="pivot">
	<circle fill="none" cx="233.336" cy="387.707" r="14.133"/>
</g>
</svg>
