<?xml version="1.0" encoding="utf-8"?>
<!-- Generator: Adobe Illustrator 16.0.0, SVG Export Plug-In . SVG Version: 6.00 Build 0)  -->
<!DOCTYPE svg PUBLIC "-//W3C//DTD SVG 1.1//EN" "http://www.w3.org/Graphics/SVG/1.1/DTD/svg11.dtd">
<svg version="1.1" xmlns="http://www.w3.org/2000/svg" xmlns:xlink="http://www.w3.org/1999/xlink" x="0px" y="0px"
	 width="453.543px" height="453.543px" viewBox="0 0 453.543 453.543" enable-background="new 0 0 453.543 453.543"
	 xml:space="preserve">
<g id="kvadrat">
</g>
<g id="color" display="none">
	<g display="inline">
		
			<path fill="#E20613" stroke="#000000" stroke-width="8" stroke-linecap="round" stroke-linejoin="round" stroke-miterlimit="10" d="
			M318.647,274.086c1.771,0.2,3.569,0.313,5.398,0.313c26.161,0,47.364-21.203,47.364-47.362c0-26.157-21.207-47.364-47.364-47.364
			c-9.045,0-17.499,2.538-24.688,6.939 M299.358,186.612c-14.53-16.194-34.765-27.144-57.547-29.703
			c4.168-3.132,6.882-8.101,6.882-13.72c0-9.477-7.683-17.159-17.158-17.159s-17.157,7.683-17.157,17.159
			c0,5.616,2.709,10.588,6.884,13.72c-33.618,3.774-60.688,29.836-73.045,60.01c-0.673,0.009-1.476-0.191-2.369-0.818
			c-2.648-1.854-16.864-38.806-43.639-42.138l-20.072,17.094c0,0-0.265,3.973,4.239,2.387c4.503-1.59,12.388-2.533,14.507,4.355
			c2.119,6.884,14.594,38.666,18.566,49.526c13.534,52.059,56.557,71.438,72.672,80.188h82.824
			c20.78-11.286,36.666-30.426,43.702-53.428 M321.963,258.393c0.431-3.601,0.665-7.265,0.665-10.979
			c0-17.6-5.004-34.023-13.646-47.952 M308.983,199.461c4.476-2.454,9.606-3.854,15.063-3.854c17.33,0,31.433,14.103,31.433,31.433
			s-14.103,31.429-31.433,31.429c-0.699,0-1.395-0.03-2.082-0.075"/>
		<path fill="none" stroke="#000000" stroke-width="8" stroke-linecap="round" stroke-linejoin="round" stroke-miterlimit="10" d="
			M181.629,178.228c0,0,51.802,21.983,98.144-3.154"/>
	</g>
	<g id="rdeča7bela" display="inline">
	</g>
</g>
<g id="cb">
	<g>
		<path fill="none" stroke="#000000" stroke-width="8" stroke-linecap="round" stroke-linejoin="round" stroke-miterlimit="10" d="
			M318.647,274.086c1.771,0.2,3.569,0.313,5.398,0.313c26.161,0,47.364-21.203,47.364-47.362c0-26.157-21.207-47.364-47.364-47.364
			c-9.045,0-17.499,2.538-24.688,6.939 M299.358,186.612c-14.53-16.194-34.765-27.144-57.547-29.703
			c4.168-3.132,6.882-8.101,6.882-13.72c0-9.477-7.683-17.159-17.158-17.159s-17.157,7.683-17.157,17.159
			c0,5.616,2.709,10.588,6.884,13.72c-33.618,3.774-60.688,29.836-73.045,60.01c-0.673,0.009-1.476-0.191-2.369-0.818
			c-2.648-1.854-16.864-38.806-43.639-42.138l-20.072,17.094c0,0-0.265,3.973,4.239,2.387c4.503-1.59,12.388-2.533,14.507,4.355
			c2.119,6.884,14.594,38.666,18.566,49.526c13.534,52.059,56.557,71.438,72.672,80.188h82.824
			c20.78-11.286,36.666-30.426,43.702-53.428 M321.963,258.393c0.431-3.601,0.665-7.265,0.665-10.979
			c0-17.6-5.004-34.023-13.646-47.952 M308.983,199.461c4.476-2.454,9.606-3.854,15.063-3.854c17.33,0,31.433,14.103,31.433,31.433
			s-14.103,31.429-31.433,31.429c-0.699,0-1.395-0.03-2.082-0.075"/>
		<path fill="none" stroke="#000000" stroke-width="8" stroke-linecap="round" stroke-linejoin="round" stroke-miterlimit="10" d="
			M181.629,178.228c0,0,51.802,21.983,98.144-3.154"/>
	</g>
	<g id="rdeča7bela_copy">
	</g>
</g>
<g id="pivot">
	<circle fill="none" cx="225.16" cy="327.015" r="14.133"/>
</g>
</svg>
