<?xml version="1.0" encoding="utf-8"?>
<!-- Generator: Adobe Illustrator 16.0.0, SVG Export Plug-In . SVG Version: 6.00 Build 0)  -->
<!DOCTYPE svg PUBLIC "-//W3C//DTD SVG 1.1//EN" "http://www.w3.org/Graphics/SVG/1.1/DTD/svg11.dtd">
<svg version="1.1" xmlns="http://www.w3.org/2000/svg" xmlns:xlink="http://www.w3.org/1999/xlink" x="0px" y="0px"
	 width="453.544px" height="453.543px" viewBox="0 0 453.544 453.543" enable-background="new 0 0 453.544 453.543"
	 xml:space="preserve">
<g id="kvadrat">
</g>
<g id="color" display="none">
	<g id="rdeča7bela" display="inline">
	</g>
	
		<path display="inline" fill-rule="evenodd" clip-rule="evenodd" fill="#FFFFFF" stroke="#000000" stroke-width="8" stroke-linecap="round" stroke-linejoin="round" stroke-miterlimit="10" d="
		M312.815,138.78c-11.438,0-21.792,3.984-29.994,10.56c-12.084-18.099-32.696-30.062-56.003-30.062
		c-23.405,0-44.014,11.963-55.993,30.062c-8.193-6.575-18.659-10.56-30.097-10.56c-26.318,0-47.68,21.327-47.68,47.61
		c0,24.985,19.313,45.559,43.905,47.495l-10,90.38c0,0,38.635,10,101.396,10s98.242-10,98.242-10l-10-90.38
		c24.594-1.937,43.902-22.51,43.902-47.495C360.495,160.107,339.142,138.78,312.815,138.78L312.815,138.78z"/>
</g>
<g id="cb">
	<g id="rdeča7bela_copy">
	</g>
	
		<path fill-rule="evenodd" clip-rule="evenodd" fill="none" stroke="#000000" stroke-width="8" stroke-linecap="round" stroke-linejoin="round" stroke-miterlimit="10" d="
		M312.815,138.78c-11.438,0-21.792,3.984-29.994,10.56c-12.084-18.099-32.696-30.062-56.003-30.062
		c-23.405,0-44.014,11.963-55.993,30.062c-8.193-6.575-18.659-10.56-30.097-10.56c-26.318,0-47.68,21.327-47.68,47.61
		c0,24.985,19.313,45.559,43.905,47.495l-10,90.38c0,0,38.635,10,101.396,10s98.242-10,98.242-10l-10-90.38
		c24.594-1.937,43.902-22.51,43.902-47.495C360.495,160.107,339.142,138.78,312.815,138.78L312.815,138.78z"/>
</g>
<g id="pivot">
	<circle fill="none" cx="227.826" cy="332.801" r="14.133"/>
</g>
</svg>
