<?xml version="1.0" encoding="utf-8"?>
<!-- Generator: Adobe Illustrator 16.0.0, SVG Export Plug-In . SVG Version: 6.00 Build 0)  -->
<!DOCTYPE svg PUBLIC "-//W3C//DTD SVG 1.1//EN" "http://www.w3.org/Graphics/SVG/1.1/DTD/svg11.dtd">
<svg version="1.1" id="Layer_1" xmlns="http://www.w3.org/2000/svg" xmlns:xlink="http://www.w3.org/1999/xlink" x="0px" y="0px"
	 width="453.543px" height="453.543px" viewBox="0 0 453.543 453.543" enable-background="new 0 0 453.543 453.543"
	 xml:space="preserve">
<g id="kvadrat">
</g>
<g id="color" display="none">
	<g id="rdeča7bela" display="inline">
	</g>
	<g display="inline">
		
			<path fill="#009D73" stroke="#000000" stroke-width="8" stroke-linecap="round" stroke-linejoin="round" stroke-miterlimit="10" d="
			M343.639,238.198c0-13.447-52.325-34.351-116.867-34.351c-64.541,0-116.866,20.903-116.866,34.351l0.269,4.661
			c0,31.153,56.253,60.835,120.699,60.835s112.301-34.954,112.301-60.488C343.172,243.205,343.639,238.474,343.639,238.198z"/>
		
			<path fill="#FFFFFF" stroke="#000000" stroke-width="8" stroke-linecap="round" stroke-linejoin="round" stroke-miterlimit="10" d="
			M343.639,238.198c0-13.447-52.325-34.351-116.867-34.351c-64.541,0-116.866,20.903-116.866,34.351l0.269,4.661
			c14.609,13.03,61.323,27.835,116.699,27.835c54.884,0,101.261-14.546,116.3-27.488l0.39-4.182
			C343.606,238.75,343.639,238.474,343.639,238.198z"/>
		
			<path fill="#009D73" stroke="#000000" stroke-width="8" stroke-linecap="round" stroke-linejoin="round" stroke-miterlimit="10" d="
			M343.639,211.199c0-13.448-52.325-34.352-116.867-34.352c-64.541,0-116.866,20.903-116.866,34.352l0.269,4.661
			c0,31.152,56.253,60.835,120.699,60.835s112.301-34.953,112.301-60.488C343.172,216.206,343.639,211.475,343.639,211.199z"/>
		
			<path fill="#FFFFFF" stroke="#000000" stroke-width="8" stroke-linecap="round" stroke-linejoin="round" stroke-miterlimit="10" d="
			M343.639,211.199c0-13.448-52.325-34.352-116.867-34.352c-64.541,0-116.866,20.903-116.866,34.352l0.269,4.661
			c14.609,13.028,61.323,27.835,116.699,27.835c54.884,0,101.261-14.546,116.3-27.488l0.39-4.182
			C343.606,211.75,343.639,211.475,343.639,211.199z"/>
		
			<path fill="#009D73" stroke="#000000" stroke-width="8" stroke-linecap="round" stroke-linejoin="round" stroke-miterlimit="10" d="
			M343.639,184.2c0-13.448-52.325-34.352-116.867-34.352c-64.541,0-116.866,20.903-116.866,34.352l0.269,4.661
			c0,31.152,56.253,60.835,120.699,60.835s112.301-34.953,112.301-60.489C343.172,189.206,343.639,184.476,343.639,184.2z"/>
		
			<path fill="#FFFFFF" stroke="#000000" stroke-width="8" stroke-linecap="round" stroke-linejoin="round" stroke-miterlimit="10" d="
			M343.639,184.2c0-13.448-52.325-34.352-116.867-34.352c-64.541,0-116.866,20.903-116.866,34.352l0.269,4.661
			c14.609,13.028,61.323,27.835,116.699,27.835c54.884,0,101.261-14.546,116.3-27.489l0.39-4.181
			C343.606,184.752,343.639,184.476,343.639,184.2z"/>
	</g>
</g>
<g id="cb">
	<g id="rdeča7bela_copy">
	</g>
	<g>
		<path fill="none" stroke="#000000" stroke-width="8" stroke-linecap="round" stroke-linejoin="round" stroke-miterlimit="10" d="
			M343.639,238.198c0,0.276-0.467,5.008-0.467,5.008"/>
		<path fill="none" stroke="#000000" stroke-width="8" stroke-linecap="round" stroke-linejoin="round" stroke-miterlimit="10" d="
			M343.172,243.205c0,25.536-47.854,60.488-112.299,60.488c-64.447,0-120.7-29.683-120.7-60.835"/>
		<path fill="none" stroke="#000000" stroke-width="8" stroke-linecap="round" stroke-linejoin="round" stroke-miterlimit="10" d="
			M300.734,261.598c-20.466,5.363-46.067,9.097-73.861,9.097c-26.634,0-51.25-3.43-71.269-8.435"/>
		<path fill="none" stroke="#000000" stroke-width="8" stroke-linecap="round" stroke-linejoin="round" stroke-miterlimit="10" d="
			M300.734,261.598c19.948-5.228,35.015-12.004,42.438-18.393"/>
		<path fill="none" stroke="#000000" stroke-width="8" stroke-linecap="round" stroke-linejoin="round" stroke-miterlimit="10" d="
			M343.639,238.198c0,0.276-0.032,0.553-0.076,0.826l-0.391,4.182"/>
		<path fill="none" stroke="#000000" stroke-width="8" stroke-linecap="round" stroke-linejoin="round" stroke-miterlimit="10" d="
			M155.604,262.26c-21.603-5.401-37.848-12.638-45.431-19.401"/>
		<path fill="none" stroke="#000000" stroke-width="8" stroke-linecap="round" stroke-linejoin="round" stroke-miterlimit="10" d="
			M123.852,224.358c2.021-1.083,4.243-2.157,6.646-3.217"/>
		<path fill="none" stroke="#000000" stroke-width="8" stroke-linecap="round" stroke-linejoin="round" stroke-miterlimit="10" d="
			M114.378,230.713c-2.912,2.62-4.473,5.164-4.473,7.484l0.269,4.661"/>
		<path fill="none" stroke="#000000" stroke-width="8" stroke-linecap="round" stroke-linejoin="round" stroke-miterlimit="10" d="
			M338.831,230.422c3.123,2.722,4.809,5.368,4.809,7.774"/>
		<path fill="none" stroke="#000000" stroke-width="8" stroke-linecap="round" stroke-linejoin="round" stroke-miterlimit="10" d="
			M338.831,230.422c2.832-4.87,4.342-9.691,4.342-14.216"/>
		<path fill="none" stroke="#000000" stroke-width="8" stroke-linecap="round" stroke-linejoin="round" stroke-miterlimit="10" d="
			M343.172,216.206c0,0,0.467-4.731,0.467-5.008"/>
		<path fill="none" stroke="#000000" stroke-width="8" stroke-linecap="round" stroke-linejoin="round" stroke-miterlimit="10" d="
			M338.831,230.422c-6.463,11.117-19.852,22.487-38.097,31.175"/>
		<path fill="none" stroke="#000000" stroke-width="8" stroke-linecap="round" stroke-linejoin="round" stroke-miterlimit="10" d="
			M155.604,262.26c-19.572-8.277-34.377-19.417-41.227-31.547"/>
		<path fill="none" stroke="#000000" stroke-width="8" stroke-linecap="round" stroke-linejoin="round" stroke-miterlimit="10" d="
			M110.174,215.86c0,5.029,1.474,10.02,4.204,14.854"/>
		<path fill="none" stroke="#000000" stroke-width="8" stroke-linecap="round" stroke-linejoin="round" stroke-miterlimit="10" d="
			M300.734,234.599c11.478-3.008,21.329-6.527,29.046-10.192"/>
		<path fill="none" stroke="#000000" stroke-width="8" stroke-linecap="round" stroke-linejoin="round" stroke-miterlimit="10" d="
			M343.172,216.206c-3.151,2.713-7.696,5.495-13.393,8.199"/>
		<path fill="none" stroke="#000000" stroke-width="8" stroke-linecap="round" stroke-linejoin="round" stroke-miterlimit="10" d="
			M343.172,216.206l0.391-4.182c0.044-0.273,0.076-0.55,0.076-0.826"/>
		<path fill="none" stroke="#000000" stroke-width="8" stroke-linecap="round" stroke-linejoin="round" stroke-miterlimit="10" d="
			M110.174,215.86c3.146,2.807,7.788,5.693,13.678,8.498"/>
		<path fill="none" stroke="#000000" stroke-width="8" stroke-linecap="round" stroke-linejoin="round" stroke-miterlimit="10" d="
			M300.734,234.599c-20.466,5.363-46.067,9.097-73.861,9.097c-26.635,0-51.251-3.43-71.271-8.436"/>
		<path fill="none" stroke="#000000" stroke-width="8" stroke-linecap="round" stroke-linejoin="round" stroke-miterlimit="10" d="
			M155.603,235.26c-12.639-3.16-23.445-6.946-31.751-10.901"/>
		<path fill="none" stroke="#000000" stroke-width="8" stroke-linecap="round" stroke-linejoin="round" stroke-miterlimit="10" d="
			M338.831,203.423c3.123,2.723,4.809,5.369,4.809,7.776"/>
		<path fill="none" stroke="#000000" stroke-width="8" stroke-linecap="round" stroke-linejoin="round" stroke-miterlimit="10" d="
			M114.378,203.714c-2.912,2.62-4.473,5.164-4.473,7.485l0.269,4.661"/>
		<path fill="none" stroke="#000000" stroke-width="8" stroke-linecap="round" stroke-linejoin="round" stroke-miterlimit="10" d="
			M300.734,234.599c8.479-4.038,15.909-8.654,22.085-13.557"/>
		<path fill="none" stroke="#000000" stroke-width="8" stroke-linecap="round" stroke-linejoin="round" stroke-miterlimit="10" d="
			M322.819,221.042c7.109-5.646,12.553-11.669,16.012-17.619"/>
		<path fill="none" stroke="#000000" stroke-width="8" stroke-linecap="round" stroke-linejoin="round" stroke-miterlimit="10" d="
			M130.498,221.141c-7.14-5.393-12.65-11.283-16.12-17.427"/>
		<path fill="none" stroke="#000000" stroke-width="8" stroke-linecap="round" stroke-linejoin="round" stroke-miterlimit="10" d="
			M110.174,188.861c0,5.029,1.474,10.021,4.204,14.854"/>
		<path fill="none" stroke="#000000" stroke-width="8" stroke-linecap="round" stroke-linejoin="round" stroke-miterlimit="10" d="
			M343.639,184.2c0,0.275-0.467,5.006-0.467,5.006"/>
		<path fill="none" stroke="#000000" stroke-width="8" stroke-linecap="round" stroke-linejoin="round" stroke-miterlimit="10" d="
			M338.831,203.423c2.832-4.87,4.342-9.691,4.342-14.217"/>
		<path fill="none" stroke="#000000" stroke-width="8" stroke-linecap="round" stroke-linejoin="round" stroke-miterlimit="10" d="
			M155.603,235.26c-9.656-4.084-18.15-8.865-25.104-14.119"/>
		<path fill="none" stroke="#000000" stroke-width="8" stroke-linecap="round" stroke-linejoin="round" stroke-miterlimit="10" d="
			M123.852,197.359c10.269,4.892,24.35,9.527,41.007,13.034"/>
		<path fill="none" stroke="#000000" stroke-width="8" stroke-linecap="round" stroke-linejoin="round" stroke-miterlimit="10" d="
			M329.779,197.406c-10.28,4.884-24.354,9.509-41.001,13.008"/>
		<path fill="none" stroke="#000000" stroke-width="8" stroke-linecap="round" stroke-linejoin="round" stroke-miterlimit="10" d="
			M343.639,184.2c0,0.275-0.032,0.552-0.076,0.825l-0.391,4.181"/>
		<path fill="none" stroke="#000000" stroke-width="8" stroke-linecap="round" stroke-linejoin="round" stroke-miterlimit="10" d="
			M123.852,197.359c-5.89-2.805-10.532-5.691-13.678-8.498"/>
		<path fill="none" stroke="#000000" stroke-width="8" stroke-linecap="round" stroke-linejoin="round" stroke-miterlimit="10" d="
			M329.779,197.406c5.696-2.705,10.241-5.487,13.394-8.2"/>
		<path fill="none" stroke="#000000" stroke-width="8" stroke-linecap="round" stroke-linejoin="round" stroke-miterlimit="10" d="
			M288.778,210.414c-18.129,3.809-39.291,6.281-61.905,6.281c-22.659,0-43.862-2.48-62.015-6.303"/>
		<path fill="none" stroke="#000000" stroke-width="8" stroke-linecap="round" stroke-linejoin="round" stroke-miterlimit="10" d="
			M343.639,184.2c0-13.448-52.325-34.352-116.867-34.352c-64.541,0-116.866,20.903-116.866,34.352l0.269,4.661"/>
	</g>
</g>
<g id="pivot">
	<circle fill="none" cx="236" cy="305.781" r="14.133"/>
</g>
</svg>
