<?xml version="1.0" encoding="utf-8"?>
<!-- Generator: Adobe Illustrator 16.0.0, SVG Export Plug-In . SVG Version: 6.00 Build 0)  -->
<!DOCTYPE svg PUBLIC "-//W3C//DTD SVG 1.1//EN" "http://www.w3.org/Graphics/SVG/1.1/DTD/svg11.dtd">
<svg version="1.1" id="Layer_1" xmlns="http://www.w3.org/2000/svg" xmlns:xlink="http://www.w3.org/1999/xlink" x="0px" y="0px"
	 width="453.543px" height="453.543px" viewBox="0 0 453.543 453.543" enable-background="new 0 0 453.543 453.543"
	 xml:space="preserve">
<g id="kvadrat" display="none">
</g>
<g id="color" display="none">
	<g id="rdeča7bela" display="inline">
	</g>
	<g display="inline">
		<g>
			<path fill="none" stroke="#000000" stroke-width="6" stroke-linecap="round" stroke-linejoin="round" stroke-miterlimit="10" d="
				M265.162,208.195l0.113,0.114c-10.635,23.962-57.437,127.776-80.73,152.301c-8.692,9.155-20.463,14.197-33.137,14.197l0,0
				c-4.278,0-8.526-0.595-12.625-1.763l-0.424-0.122l-0.439,0.063c-2.383,0.361-4.799,0.543-7.184,0.543
				c-12.855,0-25.265-5.329-34.939-15.006c-11.394-11.388-16.582-25.995-14.617-41.131l0.059-0.46l-0.143-0.438
				c-5.459-16.717-0.771-35.319,11.943-47.394c24.545-23.316,128.353-70.102,152.302-80.727l0.109,0.106 M108.934,346.105
				l1.594,3.226c2.373,4.802,5.562,9.123,9.48,12.841c5.104,4.844,11.079,8.354,17.76,10.433l0.463,0.145l0.48-0.079
				c10.969-1.837,21.328-7.371,29.965-16.002c21.785-21.789,73.715-121.244,89.109-151.21l1.57-3.057l0.104,0.104
				c-12.574,24.638-67.629,131.196-90.686,154.257 M251.234,194.276l0.11,0.108l-3.19,1.57
				c-28.051,13.788-121.811,61.006-150.5,89.687c-8.895,8.897-14.483,19.586-16.152,30.905l-0.072,0.501l0.166,0.479
				c2.139,6.04,5.461,11.461,9.877,16.11c3.738,3.917,8.053,7.105,12.828,9.479l3.023,1.502 M257.855,200.896l-2.986,1.909
				c-2.803,1.799-6.404,4.111-10.614,6.836l-0.368,0.238l-0.238,0.368c-21.015,32.558-71.622,109.93-87.646,125.149
				c-8.537,8.104-19.705,12.568-31.45,12.568c-0.4,0-0.805-0.005-1.207-0.016c-3.494-0.091-7.016-0.596-10.471-1.5l-4.243-1.11
				l-0.093-0.24l-0.252-0.101l-1.102-4.227c-0.896-3.439-1.396-6.964-1.488-10.471c-0.311-12.206,4.148-23.801,12.555-32.652
				c15.274-16.087,92.608-66.646,125.151-87.638l0.369-0.238l8.981-13.979l0.104,0.099"/>
			<polygon stroke="#000000" stroke-width="8" stroke-linecap="round" stroke-linejoin="round" stroke-miterlimit="10" points="
				374.693,100.563 267.835,207.427 246.009,185.593 352.867,78.734 			"/>
		</g>
		
			<line fill="none" stroke="#000000" stroke-width="6" stroke-linecap="round" stroke-linejoin="round" stroke-miterlimit="10" x1="91.982" y1="358.523" x2="252.143" y2="198.434"/>
	</g>
</g>
<g id="cb">
	<g id="rdeča7bela_copy">
	</g>
	<g>
		<g>
			<path fill="none" stroke="#000000" stroke-width="6" stroke-linecap="round" stroke-linejoin="round" stroke-miterlimit="10" d="
				M265.162,208.195l0.113,0.114c-10.635,23.962-57.437,127.776-80.73,152.301c-8.692,9.155-20.463,14.197-33.137,14.197l0,0
				c-4.278,0-8.526-0.595-12.625-1.763l-0.424-0.122l-0.439,0.063c-2.383,0.361-4.799,0.543-7.184,0.543
				c-12.855,0-25.265-5.329-34.939-15.006c-11.394-11.388-16.582-25.995-14.617-41.131l0.059-0.46l-0.143-0.438
				c-5.459-16.717-0.771-35.319,11.943-47.394c24.545-23.316,128.353-70.102,152.302-80.727l0.109,0.106 M108.934,346.105
				l1.594,3.226c2.373,4.802,5.562,9.123,9.48,12.841c5.104,4.844,11.079,8.354,17.76,10.433l0.463,0.145l0.48-0.079
				c10.969-1.837,21.328-7.371,29.965-16.002c21.785-21.789,73.715-121.244,89.109-151.21l1.57-3.057l0.104,0.104
				c-12.574,24.638-67.629,131.196-90.686,154.257 M251.234,194.276l0.11,0.108l-3.19,1.57
				c-28.051,13.788-121.811,61.006-150.5,89.687c-8.895,8.897-14.483,19.586-16.152,30.905l-0.072,0.501l0.166,0.479
				c2.139,6.04,5.461,11.461,9.877,16.11c3.738,3.917,8.053,7.105,12.828,9.479l3.023,1.502 M257.855,200.896l-2.986,1.909
				c-2.803,1.799-6.404,4.111-10.614,6.836l-0.368,0.238l-0.238,0.368c-21.015,32.558-71.622,109.93-87.646,125.149
				c-8.537,8.104-19.705,12.568-31.45,12.568c-0.4,0-0.805-0.005-1.207-0.016c-3.494-0.091-7.016-0.596-10.471-1.5l-4.243-1.11
				l-0.093-0.24l-0.252-0.101l-1.102-4.227c-0.896-3.439-1.396-6.964-1.488-10.471c-0.311-12.206,4.148-23.801,12.555-32.652
				c15.274-16.087,92.608-66.646,125.151-87.638l0.369-0.238l8.981-13.979l0.104,0.099"/>
			
				<polygon fill="none" stroke="#000000" stroke-width="8" stroke-linecap="round" stroke-linejoin="round" stroke-miterlimit="10" points="
				374.693,100.563 267.835,207.427 246.009,185.593 352.867,78.734 			"/>
		</g>
		
			<line fill="none" stroke="#000000" stroke-width="6" stroke-linecap="round" stroke-linejoin="round" stroke-miterlimit="10" x1="93.982" y1="356.523" x2="252.143" y2="198.434"/>
	</g>
</g>
<g id="pivot" display="none">
	<circle display="inline" fill="none" cx="232.098" cy="359.442" r="14.133"/>
</g>
</svg>
