<?xml version="1.0" encoding="utf-8"?>
<!-- Generator: Adobe Illustrator 16.0.0, SVG Export Plug-In . SVG Version: 6.00 Build 0)  -->
<!DOCTYPE svg PUBLIC "-//W3C//DTD SVG 1.1//EN" "http://www.w3.org/Graphics/SVG/1.1/DTD/svg11.dtd">
<svg version="1.1" xmlns="http://www.w3.org/2000/svg" xmlns:xlink="http://www.w3.org/1999/xlink" x="0px" y="0px"
	 width="453.543px" height="453.543px" viewBox="0 0 453.543 453.543" enable-background="new 0 0 453.543 453.543"
	 xml:space="preserve">
<g id="kvadrat" display="none">
</g>
<g id="color" display="none">
	<g id="rdeča7bela" display="inline">
	</g>
	<g display="inline">
		<g>
			<polygon stroke="#000000" stroke-width="8" stroke-linecap="round" stroke-linejoin="round" stroke-miterlimit="10" points="
				373.241,100.563 266.383,207.426 244.557,185.592 351.415,78.734 			"/>
		</g>
		<path fill="none" stroke="#000000" stroke-width="6" stroke-linecap="round" stroke-linejoin="round" stroke-miterlimit="10" d="
			M109.109,344.256c0,0,4.813,26.498,28.836,26.498c8.753,0,22.272-7.307,30.908-15.936
			c21.786-21.791,73.715-121.246,89.111-151.211l1.569-3.055l0.104,0.102c-12.576,24.639-67.629,131.197-90.687,154.258
			 M251.41,192.428l0.111,0.107l-3.191,1.572c-28.052,13.787-121.812,61.004-150.5,89.686c-41.523,41.523,9.669,58.979,9.669,58.979
			 M258.03,199.047l-2.985,1.908c-2.803,1.799-6.404,4.111-10.614,6.836l-0.37,0.238l-0.237,0.369
			c-21.015,32.557-71.622,109.93-87.647,125.148c-8.536,8.105-19.704,12.57-31.45,12.57c-0.4,0-0.804-0.006-1.208-0.016
			c-3.493-0.09-7.015-0.596-10.471-1.5l-4.241-1.111l-0.094-0.238l-0.252-0.1l-1.102-4.229c-0.896-3.439-1.396-6.963-1.488-10.471
			c-0.311-12.205,4.147-23.801,12.556-32.65c15.274-16.088,92.607-66.648,125.151-87.639l0.368-0.238l8.982-13.98l0.104,0.1"/>
	</g>
</g>
<g id="cb">
	<g id="rdeča7bela_copy">
	</g>
	<g>
		<g>
			
				<polygon fill="none" stroke="#000000" stroke-width="8" stroke-linecap="round" stroke-linejoin="round" stroke-miterlimit="10" points="
				373.241,100.563 266.383,207.426 244.557,185.592 351.415,78.734 			"/>
		</g>
		<path fill="none" stroke="#000000" stroke-width="6" stroke-linecap="round" stroke-linejoin="round" stroke-miterlimit="10" d="
			M109.109,344.256c0,0,4.813,26.498,28.836,26.498c8.753,0,22.272-7.307,30.908-15.936
			c21.786-21.791,73.715-121.246,89.111-151.211l1.569-3.055l0.104,0.102c-12.576,24.639-67.629,131.197-90.687,154.258
			 M251.41,192.428l0.111,0.107l-3.191,1.572c-28.052,13.787-121.812,61.004-150.5,89.686c-41.523,41.523,9.669,58.979,9.669,58.979
			 M258.03,199.047l-2.985,1.908c-2.803,1.799-6.404,4.111-10.614,6.836l-0.37,0.238l-0.237,0.369
			c-21.015,32.557-71.622,109.93-87.647,125.148c-8.536,8.105-19.704,12.57-31.45,12.57c-0.4,0-0.804-0.006-1.208-0.016
			c-3.493-0.09-7.015-0.596-10.471-1.5l-4.241-1.111l-0.094-0.238l-0.252-0.1l-1.102-4.229c-0.896-3.439-1.396-6.963-1.488-10.471
			c-0.311-12.205,4.147-23.801,12.556-32.65c15.274-16.088,92.607-66.648,125.151-87.639l0.368-0.238l8.982-13.98l0.104,0.1"/>
	</g>
</g>
<g id="pivot" display="none">
	<circle display="inline" fill="none" cx="226.253" cy="364.461" r="14.133"/>
</g>
</svg>
