<?xml version="1.0" encoding="utf-8"?>
<!-- Generator: Adobe Illustrator 16.0.0, SVG Export Plug-In . SVG Version: 6.00 Build 0)  -->
<!DOCTYPE svg PUBLIC "-//W3C//DTD SVG 1.1//EN" "http://www.w3.org/Graphics/SVG/1.1/DTD/svg11.dtd">
<svg version="1.1" xmlns="http://www.w3.org/2000/svg" xmlns:xlink="http://www.w3.org/1999/xlink" x="0px" y="0px"
	 width="453.544px" height="453.543px" viewBox="0 0 453.544 453.543" enable-background="new 0 0 453.544 453.543"
	 xml:space="preserve">
<g id="kvadrat">
</g>
<g id="color" display="none">
	<g id="rdeča7bela" display="inline">
	</g>
	<g display="inline">
		
			<path fill="#C6C6C5" stroke="#000000" stroke-width="8" stroke-linecap="round" stroke-linejoin="round" stroke-miterlimit="10" d="
			M362.3,150.149c0,0,1.666-3.436-3.968-8.26c-10.46-8.957-37.593-26.76-47.351-35.115c-8.186-7.008-14.914,1.154-14.914,1.154
			s-30.461,40.007-57.769,71.897c-21.2,24.759-43.645,48.301-52.625,57.591c-1.661-0.039-3.325,0.632-4.484,1.984L99.759,334.5
			c-2.04,2.383-1.76,6.003,0.625,8.045l3.091,2.646l13.354,11.435l4.017,3.441c2.384,2.041,6.003,1.76,8.043-0.623l81.432-95.098
			c0.878-1.027,1.682-3.948,1.853-4.148c4.925-5.751,9.369-0.727,9.369-0.727l24.574,21.477l5.134,4.484
			C334.043,218.284,362.3,150.149,362.3,150.149z"/>
		
			<path fill="#C8C8C8" stroke="#000000" stroke-width="8" stroke-linecap="round" stroke-linejoin="round" stroke-miterlimit="10" d="
			M183.313,237.861c0.004-0.002,0.01-0.003,0.017-0.005C183.323,237.858,183.317,237.859,183.313,237.861L183.313,237.861z"/>
		
			<path fill="#C8C8C8" stroke="#000000" stroke-width="8" stroke-linecap="round" stroke-linejoin="round" stroke-miterlimit="10" d="
			M212.014,260.567c0.003-0.006,0.003-0.01,0.006-0.016C212.018,260.556,212.017,260.561,212.014,260.567z"/>
		
			<path fill="#C8C8C8" stroke="#000000" stroke-width="8" stroke-linecap="round" stroke-linejoin="round" stroke-miterlimit="10" d="
			M212.133,260.267c0.016-0.032,0.028-0.056,0.04-0.069C212.161,260.21,212.148,260.234,212.133,260.267z"/>
		
			<path fill="#C8C8C8" stroke="#000000" stroke-width="8" stroke-linecap="round" stroke-linejoin="round" stroke-miterlimit="10" d="
			M212.079,260.394c0.015-0.037,0.027-0.067,0.04-0.095C212.106,260.327,212.095,260.355,212.079,260.394z"/>
		
			<path fill="#C8C8C8" stroke="#000000" stroke-width="8" stroke-linecap="round" stroke-linejoin="round" stroke-miterlimit="10" d="
			M184.515,237.51c-0.014,0.003-0.029,0.004-0.044,0.007C184.485,237.514,184.501,237.513,184.515,237.51z"/>
		
			<path fill="#C8C8C8" stroke="#000000" stroke-width="8" stroke-linecap="round" stroke-linejoin="round" stroke-miterlimit="10" d="
			M185.674,237.417c-0.203-0.004-0.406,0.003-0.608,0.019C185.268,237.42,185.471,237.413,185.674,237.417z"/>
		
			<path fill="#7E4E24" stroke="#000000" stroke-width="8" stroke-linecap="round" stroke-linejoin="round" stroke-miterlimit="10" d="
			M184.471,237.517c-0.388,0.073-0.771,0.187-1.141,0.34C183.699,237.703,184.081,237.589,184.471,237.517z"/>
		
			<path fill="#7E4E24" stroke="#000000" stroke-width="8" stroke-linecap="round" stroke-linejoin="round" stroke-miterlimit="10" d="
			M185.065,237.436c-0.184,0.016-0.367,0.041-0.551,0.074C184.696,237.478,184.881,237.451,185.065,237.436z"/>
		
			<path fill="#7E4E24" stroke="#000000" stroke-width="8" stroke-linecap="round" stroke-linejoin="round" stroke-miterlimit="10" d="
			M212.02,260.551c0.021-0.058,0.041-0.112,0.06-0.157C212.061,260.439,212.04,260.493,212.02,260.551z"/>
		
			<path fill="#7E4E24" stroke="#000000" stroke-width="8" stroke-linecap="round" stroke-linejoin="round" stroke-miterlimit="10" d="
			M211.499,261.996l-28.186-24.134c-0.797,0.332-1.528,0.845-2.124,1.54L99.759,334.5c-2.04,2.383-1.76,6.003,0.625,8.045
			l3.091,2.646l13.354,11.435l4.017,3.441c2.384,2.041,6.003,1.76,8.043-0.623l81.432-95.098c0.714-0.834,1.377-2.919,1.693-3.778
			C211.89,260.904,211.712,261.43,211.499,261.996z M154.118,308.198c-1.8,2.102-4.959,2.346-7.062,0.545
			c-2.101-1.798-2.347-4.958-0.547-7.061c1.799-2.101,4.961-2.345,7.06-0.546C155.673,302.937,155.918,306.098,154.118,308.198z
			 M133.405,332.39c-1.8,2.1-4.962,2.348-7.064,0.547c-2.1-1.798-2.344-4.962-0.546-7.063c1.798-2.1,4.962-2.346,7.062-0.548
			C134.959,327.127,135.202,330.291,133.405,332.39z"/>
		
			<path fill="#7E4E24" stroke="#000000" stroke-width="8" stroke-linecap="round" stroke-linejoin="round" stroke-miterlimit="10" d="
			M212.119,260.299c0.005-0.011,0.011-0.024,0.014-0.032C212.13,260.275,212.124,260.288,212.119,260.299z"/>
		
			<path fill="#7E4E24" stroke="#000000" stroke-width="8" stroke-linecap="round" stroke-linejoin="round" stroke-miterlimit="10" d="
			M147.057,308.743c-2.101-1.798-2.347-4.958-0.547-7.061c1.799-2.101,4.961-2.345,7.06-0.546c2.104,1.8,2.349,4.961,0.549,7.062
			C152.318,310.3,149.159,310.544,147.057,308.743z"/>
		
			<circle fill="#7E4E24" stroke="#000000" stroke-width="8" stroke-linecap="round" stroke-linejoin="round" stroke-miterlimit="10" cx="129.599" cy="329.131" r="5.009"/>
	</g>
</g>
<g id="cb">
	<g id="rdeča7bela_copy">
	</g>
	<g>
		<path fill="none" stroke="#000000" stroke-width="8" stroke-linecap="round" stroke-linejoin="round" stroke-miterlimit="10" d="
			M362.3,150.149c0,0,1.666-3.436-3.968-8.26c-10.46-8.957-37.593-26.76-47.351-35.115c-8.186-7.008-14.914,1.154-14.914,1.154
			s-30.461,40.007-57.769,71.897c-21.2,24.759-43.645,48.301-52.625,57.591c-1.661-0.039-3.325,0.632-4.484,1.984L99.759,334.5
			c-2.04,2.383-1.76,6.003,0.625,8.045l3.091,2.646l13.354,11.435l4.017,3.441c2.384,2.041,6.003,1.76,8.043-0.623l81.432-95.098
			c0.878-1.027,1.682-3.948,1.853-4.148c4.925-5.751,9.369-0.727,9.369-0.727l24.574,21.477l5.134,4.484
			C334.043,218.284,362.3,150.149,362.3,150.149z"/>
		<path fill="none" stroke="#000000" stroke-width="8" stroke-linecap="round" stroke-linejoin="round" stroke-miterlimit="10" d="
			M183.313,237.861c0.004-0.002,0.01-0.003,0.017-0.005C183.323,237.858,183.317,237.859,183.313,237.861L183.313,237.861z"/>
		<path fill="none" stroke="#000000" stroke-width="8" stroke-linecap="round" stroke-linejoin="round" stroke-miterlimit="10" d="
			M212.014,260.567c0.003-0.006,0.003-0.01,0.006-0.016C212.018,260.556,212.017,260.561,212.014,260.567z"/>
		<path fill="none" stroke="#000000" stroke-width="8" stroke-linecap="round" stroke-linejoin="round" stroke-miterlimit="10" d="
			M212.133,260.267c0.016-0.032,0.028-0.056,0.04-0.069C212.161,260.21,212.148,260.234,212.133,260.267z"/>
		<path fill="none" stroke="#000000" stroke-width="8" stroke-linecap="round" stroke-linejoin="round" stroke-miterlimit="10" d="
			M212.079,260.394c0.015-0.037,0.027-0.067,0.04-0.095C212.106,260.327,212.095,260.355,212.079,260.394z"/>
		<path fill="none" stroke="#000000" stroke-width="8" stroke-linecap="round" stroke-linejoin="round" stroke-miterlimit="10" d="
			M184.515,237.51c-0.014,0.003-0.029,0.004-0.044,0.007C184.485,237.514,184.501,237.513,184.515,237.51z"/>
		<path fill="none" stroke="#000000" stroke-width="8" stroke-linecap="round" stroke-linejoin="round" stroke-miterlimit="10" d="
			M185.674,237.417c-0.203-0.004-0.406,0.003-0.608,0.019C185.268,237.42,185.471,237.413,185.674,237.417z"/>
		<path fill="none" stroke="#000000" stroke-width="8" stroke-linecap="round" stroke-linejoin="round" stroke-miterlimit="10" d="
			M184.471,237.517c-0.388,0.073-0.771,0.187-1.141,0.34C183.699,237.703,184.081,237.589,184.471,237.517z"/>
		<path fill="none" stroke="#000000" stroke-width="8" stroke-linecap="round" stroke-linejoin="round" stroke-miterlimit="10" d="
			M185.065,237.436c-0.184,0.016-0.367,0.041-0.551,0.074C184.696,237.478,184.881,237.451,185.065,237.436z"/>
		<path fill="none" stroke="#000000" stroke-width="8" stroke-linecap="round" stroke-linejoin="round" stroke-miterlimit="10" d="
			M212.02,260.551c0.021-0.058,0.041-0.112,0.06-0.157C212.061,260.439,212.04,260.493,212.02,260.551z"/>
		<path fill="none" stroke="#000000" stroke-width="8" stroke-linecap="round" stroke-linejoin="round" stroke-miterlimit="10" d="
			M211.499,261.996l-28.186-24.134c-0.797,0.332-1.528,0.845-2.124,1.54L99.759,334.5c-2.04,2.383-1.76,6.003,0.625,8.045
			l3.091,2.646l13.354,11.435l4.017,3.441c2.384,2.041,6.003,1.76,8.043-0.623l81.432-95.098c0.714-0.834,1.377-2.919,1.693-3.778
			C211.89,260.904,211.712,261.43,211.499,261.996z M154.118,308.198c-1.8,2.102-4.959,2.346-7.062,0.545
			c-2.101-1.798-2.347-4.958-0.547-7.061c1.799-2.101,4.961-2.345,7.06-0.546C155.673,302.937,155.918,306.098,154.118,308.198z
			 M133.405,332.39c-1.8,2.1-4.962,2.348-7.064,0.547c-2.1-1.798-2.344-4.962-0.546-7.063c1.798-2.1,4.962-2.346,7.062-0.548
			C134.959,327.127,135.202,330.291,133.405,332.39z"/>
		<path fill="none" stroke="#000000" stroke-width="8" stroke-linecap="round" stroke-linejoin="round" stroke-miterlimit="10" d="
			M212.119,260.299c0.005-0.011,0.011-0.024,0.014-0.032C212.13,260.275,212.124,260.288,212.119,260.299z"/>
		<path d="M147.057,308.743c-2.101-1.798-2.347-4.958-0.547-7.061c1.799-2.101,4.961-2.345,7.06-0.546
			c2.104,1.8,2.349,4.961,0.549,7.062C152.318,310.3,149.159,310.544,147.057,308.743z"/>
		<circle cx="129.599" cy="329.131" r="5.009"/>
	</g>
</g>
<g id="pivot">
	<circle fill="none" cx="211.011" cy="360.29" r="14.133"/>
</g>
</svg>
