<?xml version="1.0" encoding="utf-8"?>
<!-- Generator: Adobe Illustrator 16.0.0, SVG Export Plug-In . SVG Version: 6.00 Build 0)  -->
<!DOCTYPE svg PUBLIC "-//W3C//DTD SVG 1.1//EN" "http://www.w3.org/Graphics/SVG/1.1/DTD/svg11.dtd">
<svg version="1.1" xmlns="http://www.w3.org/2000/svg" xmlns:xlink="http://www.w3.org/1999/xlink" x="0px" y="0px"
	 width="453.544px" height="453.543px" viewBox="0 0 453.544 453.543" enable-background="new 0 0 453.544 453.543"
	 xml:space="preserve">
<g id="kvadrat">
</g>
<g id="color" display="none">
	<g display="inline">
		<g>
			
				<path fill="#C8C8C8" stroke="#000000" stroke-width="8" stroke-linecap="round" stroke-linejoin="round" stroke-miterlimit="10" d="
				M373.734,85.705c-0.15-1.012-0.74-1.903-1.609-2.435c-0.871-0.523-1.934-0.637-2.902-0.304
				c-59.6,20.938-194.008,167.212-200.107,173.872l-5.387,5.387l47.59,32.296l5.195,3.067c0.539,0.314,1.137,0.476,1.74,0.476
				c0.752,0,1.504-0.252,2.119-0.739C383.449,167.98,374.209,89.003,373.734,85.705z"/>
		</g>
		
			<path fill="#422918" stroke="#000000" stroke-width="8" stroke-linecap="round" stroke-linejoin="round" stroke-miterlimit="10" d="
			M163.729,262.226l-78.486,78.487c-4.248,4.247-6.125,8.778-5.576,13.466c0.441,3.719,2.434,7.376,5.932,10.877
			c3.838,3.845,7.676,5.709,11.727,5.709c4.09,0,8.15-1.988,12.068-5.901l82.066-82.067l0.85,0.502
			C182.822,277.311,171.703,269.662,163.729,262.226z"/>
		<path d="M119.385,328.997c2.672,0,4.836,2.167,4.836,4.842c0,2.673-2.164,4.838-4.836,4.838c-2.674,0-4.842-2.165-4.842-4.838
			C114.543,331.164,116.711,328.997,119.385,328.997z"/>
		<path d="M101.576,345.566c2.672,0,4.838,2.162,4.838,4.837c0,2.663-2.166,4.834-4.838,4.834c-2.666,0-4.83-2.171-4.83-4.834
			C96.746,347.729,98.91,345.566,101.576,345.566z"/>
		<path fill="none" stroke="#000000" stroke-width="6" stroke-linecap="round" stroke-linejoin="round" stroke-miterlimit="10" d="
			M206.043,290.455C349.266,177.722,361.541,91.664,362.305,84.778"/>
	</g>
	<g id="rdeča7bela" display="inline">
	</g>
</g>
<g id="cb">
	<g>
		<g>
			<path fill="none" stroke="#000000" stroke-width="8" stroke-linecap="round" stroke-linejoin="round" stroke-miterlimit="10" d="
				M373.734,85.705c-0.15-1.012-0.74-1.903-1.609-2.435c-0.871-0.523-1.934-0.637-2.902-0.304
				c-59.6,20.938-194.008,167.212-200.107,173.872l-5.387,5.387l47.59,32.296l5.195,3.067c0.539,0.314,1.137,0.476,1.74,0.476
				c0.752,0,1.504-0.252,2.119-0.739C383.449,167.98,374.209,89.003,373.734,85.705z"/>
		</g>
		<path fill="none" stroke="#000000" stroke-width="8" stroke-linecap="round" stroke-linejoin="round" stroke-miterlimit="10" d="
			M163.729,262.226l-78.486,78.487c-4.248,4.247-6.125,8.778-5.576,13.466c0.441,3.719,2.434,7.376,5.932,10.877
			c3.838,3.845,7.676,5.709,11.727,5.709c4.09,0,8.15-1.988,12.068-5.901l82.066-82.067l0.85,0.502
			C182.822,277.311,171.703,269.662,163.729,262.226z"/>
		<path d="M119.385,328.997c2.672,0,4.836,2.167,4.836,4.842c0,2.673-2.164,4.838-4.836,4.838c-2.674,0-4.842-2.165-4.842-4.838
			C114.543,331.164,116.711,328.997,119.385,328.997z"/>
		<path d="M101.576,345.566c2.672,0,4.838,2.162,4.838,4.837c0,2.663-2.166,4.834-4.838,4.834c-2.666,0-4.83-2.171-4.83-4.834
			C96.746,347.729,98.91,345.566,101.576,345.566z"/>
		<path fill="none" stroke="#000000" stroke-width="6" stroke-linecap="round" stroke-linejoin="round" stroke-miterlimit="10" d="
			M206.043,290.455C349.266,177.722,361.541,91.664,362.305,84.778"/>
	</g>
	<g id="rdeča7bela_copy">
	</g>
</g>
<g id="pivot">
	<circle fill="none" cx="211.988" cy="371.864" r="14.133"/>
</g>
</svg>
