<?xml version="1.0" encoding="utf-8"?>
<!-- Generator: Adobe Illustrator 16.0.0, SVG Export Plug-In . SVG Version: 6.00 Build 0)  -->
<!DOCTYPE svg PUBLIC "-//W3C//DTD SVG 1.1//EN" "http://www.w3.org/Graphics/SVG/1.1/DTD/svg11.dtd">
<svg version="1.1" xmlns="http://www.w3.org/2000/svg" xmlns:xlink="http://www.w3.org/1999/xlink" x="0px" y="0px"
	 width="453.543px" height="453.543px" viewBox="0 0 453.543 453.543" enable-background="new 0 0 453.543 453.543"
	 xml:space="preserve">
<g id="kvadrat">
</g>
<g id="color" display="none">
	<g id="rdeča7bela" display="inline">
	</g>
	<g display="inline">
		<g>
			<g>
				<path fill="#C8C8C8" d="M240.059,267.415V158.094c6.489-5.359,10.74-21.104,10.74-66.947c0-13.564-10.986-24.563-24.556-24.563
					c-13.563,0-24.55,10.999-24.55,24.563c0,47.193,4.508,62.476,11.323,67.379v109.005c-18.613,5.184-32.107,21.153-32.107,45.277
					c0,29.751,20.526,74.15,45.861,74.15c25.333,0,45.866-44.399,45.866-74.15C272.635,288.483,258.902,272.457,240.059,267.415z"/>
			</g>
			<g>
				
					<path fill="none" stroke="#000000" stroke-width="8" stroke-linecap="round" stroke-linejoin="round" stroke-miterlimit="10" d="
					M240.059,267.415V158.094c6.489-5.359,10.74-21.104,10.74-66.947c0-13.564-10.986-24.563-24.556-24.563
					c-13.563,0-24.55,10.999-24.55,24.563c0,47.193,4.508,62.476,11.323,67.379v109.005c-18.613,5.184-32.107,21.153-32.107,45.277
					c0,29.751,20.526,74.15,45.861,74.15c25.333,0,45.866-44.399,45.866-74.15C272.635,288.483,258.902,272.457,240.059,267.415z"/>
			</g>
		</g>
		
			<line fill="#C8C8C8" stroke="#000000" stroke-width="8" stroke-linecap="round" stroke-linejoin="round" stroke-miterlimit="10" x1="208.828" y1="296.258" x2="208.828" y2="349.636"/>
		
			<line fill="#C8C8C8" stroke="#000000" stroke-width="8" stroke-linecap="round" stroke-linejoin="round" stroke-miterlimit="10" x1="227.009" y1="296.258" x2="227.009" y2="349.636"/>
		
			<line fill="#C8C8C8" stroke="#000000" stroke-width="8" stroke-linecap="round" stroke-linejoin="round" stroke-miterlimit="10" x1="245.193" y1="296.258" x2="245.193" y2="349.636"/>
	</g>
</g>
<g id="cb">
	<g id="rdeča7bela_copy">
	</g>
	<g>
		<g>
			<g>
				
					<path fill="none" stroke="#000000" stroke-width="8" stroke-linecap="round" stroke-linejoin="round" stroke-miterlimit="10" d="
					M240.059,267.415V158.094c6.489-5.359,10.74-21.104,10.74-66.947c0-13.564-10.986-24.563-24.556-24.563
					c-13.563,0-24.55,10.999-24.55,24.563c0,47.193,4.508,62.476,11.323,67.379v109.005c-18.613,5.184-32.107,21.153-32.107,45.277
					c0,29.751,20.526,74.15,45.861,74.15c25.333,0,45.866-44.399,45.866-74.15C272.635,288.483,258.902,272.457,240.059,267.415z"/>
			</g>
		</g>
		
			<line fill="none" stroke="#000000" stroke-width="8" stroke-linecap="round" stroke-linejoin="round" stroke-miterlimit="10" x1="208.828" y1="296.258" x2="208.828" y2="349.636"/>
		
			<line fill="none" stroke="#000000" stroke-width="8" stroke-linecap="round" stroke-linejoin="round" stroke-miterlimit="10" x1="227.009" y1="296.258" x2="227.009" y2="349.636"/>
		
			<line fill="none" stroke="#000000" stroke-width="8" stroke-linecap="round" stroke-linejoin="round" stroke-miterlimit="10" x1="245.193" y1="296.258" x2="245.193" y2="349.636"/>
	</g>
</g>
<g id="pivot">
	<circle fill="none" cx="228.879" cy="69.961" r="14.133"/>
</g>
</svg>
