<?xml version="1.0" encoding="utf-8"?>
<!-- Generator: Adobe Illustrator 16.0.0, SVG Export Plug-In . SVG Version: 6.00 Build 0)  -->
<!DOCTYPE svg PUBLIC "-//W3C//DTD SVG 1.1//EN" "http://www.w3.org/Graphics/SVG/1.1/DTD/svg11.dtd">
<svg version="1.1" xmlns="http://www.w3.org/2000/svg" xmlns:xlink="http://www.w3.org/1999/xlink" x="0px" y="0px"
	 width="453.544px" height="453.543px" viewBox="0 0 453.544 453.543" enable-background="new 0 0 453.544 453.543"
	 xml:space="preserve">
<g id="kvadrat">
</g>
<g id="color" display="none">
	<g id="rdeča7bela" display="inline">
	</g>
	<g display="inline">
		<path fill="none" stroke="#1D1D1B" stroke-width="8" stroke-miterlimit="10" d="M226.772,131.865
			c-10.76,0-19.482,8.726-19.482,19.483c0,10.759,8.723,19.485,19.482,19.485c10.762,0,19.484-8.727,19.484-19.485
			C246.257,140.591,237.534,131.865,226.772,131.865z M226.772,164.152c-7.07,0-12.801-5.734-12.801-12.804
			c0-7.07,5.73-12.806,12.801-12.806s12.805,5.735,12.805,12.806C239.577,158.417,233.843,164.152,226.772,164.152z"/>
		<path fill="#B1B1B1" stroke="#1D1D1B" stroke-width="8" stroke-miterlimit="10" d="M370.116,297.222
			c-2.529-77.013-65.713-138.68-143.342-138.68S85.962,220.209,83.431,297.222H370.116z"/>
		
			<rect x="69.45" y="297.222" fill="#575756" stroke="#1D1D1B" stroke-width="8" stroke-miterlimit="10" width="314.643" height="24.456"/>
	</g>
</g>
<g id="cb">
	<g id="rdeča7bela_copy">
	</g>
	<g>
		
			<rect x="69.45" y="297.222" fill="none" stroke="#1C1C1C" stroke-width="8" stroke-linecap="round" stroke-linejoin="round" stroke-miterlimit="10" width="314.643" height="24.456"/>
		<path fill="none" stroke="#1C1C1C" stroke-width="8" stroke-linecap="round" stroke-linejoin="round" stroke-miterlimit="10" d="
			M370.116,297.222c-2.529-77.013-65.713-138.68-143.342-138.68S85.962,220.209,83.431,297.222H370.116z"/>
		<path fill="none" stroke="#1C1C1C" stroke-width="8" stroke-linecap="round" stroke-linejoin="round" stroke-miterlimit="10" d="
			M237.086,158.913c2.454,0.174,4.892,0.408,7.31,0.704c1.182-2.513,1.861-5.309,1.861-8.269c0-10.757-8.723-19.483-19.484-19.483
			c-10.76,0-19.482,8.726-19.482,19.483c0,2.96,0.68,5.756,1.861,8.27c2.419-0.296,4.856-0.53,7.311-0.705"/>
	</g>
</g>
<g id="pivot">
	<circle fill="none" cx="232.205" cy="315.91" r="14.133"/>
</g>
</svg>
