<?xml version="1.0" encoding="utf-8"?>
<!-- Generator: Adobe Illustrator 16.0.0, SVG Export Plug-In . SVG Version: 6.00 Build 0)  -->
<!DOCTYPE svg PUBLIC "-//W3C//DTD SVG 1.1//EN" "http://www.w3.org/Graphics/SVG/1.1/DTD/svg11.dtd">
<svg version="1.1" id="Layer_1" xmlns="http://www.w3.org/2000/svg" xmlns:xlink="http://www.w3.org/1999/xlink" x="0px" y="0px"
	 width="453.543px" height="453.543px" viewBox="0 0 453.543 453.543" enable-background="new 0 0 453.543 453.543"
	 xml:space="preserve">
<g id="kvadrat">
</g>
<g id="color" display="none">
	<g display="inline">
		
			<path fill="#EED2A3" stroke="#000000" stroke-width="8" stroke-linecap="round" stroke-linejoin="round" stroke-miterlimit="10" d="
			M40.828,206.752l8.771,31.774c0,0,10.873,32.935,106.914,32.935c96.042,0,106.917-32.935,106.917-32.935l14.178-31.774
			c0,13.625-53.004,24.669-118.39,24.669C93.834,231.421,40.828,220.378,40.828,206.752z"/>
		
			<ellipse fill="#FFFFFF" stroke="#000000" stroke-width="8" stroke-linecap="round" stroke-linejoin="round" stroke-miterlimit="10" cx="159.217" cy="206.752" rx="118.389" ry="24.669"/>
		
			<path fill="#7E4E24" stroke="#000000" stroke-width="8" stroke-linecap="round" stroke-linejoin="round" stroke-miterlimit="10" d="
			M408.715,200.378H280.068c-1.649,0-3.129,1.011-3.729,2.55l-9.199,23.669c-0.598,1.534-0.191,3.277,1.019,4.395
			c0.755,0.692,1.727,1.058,2.711,1.058c0.594,0,1.19-0.132,1.748-0.403l27.55-13.396h108.547c2.209,0,4-1.79,4-4v-9.868
			C412.715,202.168,410.924,200.378,408.715,200.378z"/>
	</g>
	<g id="rdeÄa7bela" display="inline">
	</g>
</g>
<g>
	<path fill="none" stroke="#000000" stroke-width="8" stroke-linecap="square" stroke-linejoin="round" stroke-miterlimit="10" d="
		M142.676,231.18c0.886,0.026,1.775,0.05,2.667,0.071"/>
	<path fill="none" stroke="#000000" stroke-width="8" stroke-linecap="square" stroke-linejoin="round" stroke-miterlimit="10" d="
		M145.343,231.251c2.348,0.058,4.716,0.101,7.105,0.129"/>
	
		<line fill="none" stroke="#000000" stroke-width="8" stroke-linecap="round" stroke-linejoin="round" stroke-miterlimit="10" x1="267.307" y1="229.841" x2="275.564" y2="211.329"/>
	
		<line fill="none" stroke="#000000" stroke-width="8" stroke-linecap="round" stroke-linejoin="round" stroke-miterlimit="10" x1="275.566" y1="211.324" x2="275.564" y2="211.329"/>
	<path fill="none" stroke="#000000" stroke-width="8" stroke-linecap="round" stroke-linejoin="round" stroke-miterlimit="10" d="
		M275.564,211.329c-0.922,1.022-2.146,2.024-3.655,3"/>
	<path fill="none" stroke="#000000" stroke-width="8" stroke-linecap="round" stroke-linejoin="round" stroke-miterlimit="10" d="
		M277.605,206.757l0.002-0.005c0,1.563-0.707,3.094-2.043,4.577"/>
	
		<line fill="none" stroke="#000000" stroke-width="8" stroke-linecap="round" stroke-linejoin="round" stroke-miterlimit="10" x1="275.566" y1="211.324" x2="277.605" y2="206.757"/>
	<path fill="none" stroke="#000000" stroke-width="8" stroke-linecap="square" stroke-linejoin="round" stroke-miterlimit="10" d="
		M159.217,231.421c-2.272,0-4.528-0.016-6.769-0.041"/>
	<path fill="none" stroke="#000000" stroke-width="8" stroke-linecap="square" stroke-linejoin="round" stroke-miterlimit="10" d="
		M142.676,231.18c-53.122-1.547-94.941-10.438-101.066-21.593"/>
	<path fill="none" stroke="#000000" stroke-width="8" stroke-linecap="square" stroke-linejoin="round" stroke-miterlimit="10" d="
		M159.217,231.421L159.217,231.421c52.698,0,97.346-7.175,112.692-17.092"/>
	
		<line fill="none" stroke="#000000" stroke-width="8" stroke-linecap="square" stroke-linejoin="round" stroke-miterlimit="10" x1="40.828" y1="206.752" x2="41.61" y2="209.586"/>
	
		<line fill="none" stroke="#000000" stroke-width="8" stroke-linecap="square" stroke-linejoin="round" stroke-miterlimit="10" x1="41.61" y1="209.587" x2="41.61" y2="209.586"/>
	<path fill="none" stroke="#000000" stroke-width="8" stroke-linecap="square" stroke-linejoin="round" stroke-miterlimit="10" d="
		M40.828,206.752c0,0.959,0.271,1.903,0.782,2.834"/>
	<path fill="none" stroke="#000000" stroke-width="8" stroke-linecap="square" stroke-linejoin="round" stroke-miterlimit="10" d="
		M267.307,229.841l-3.877,8.687c0,0-10.875,32.935-106.917,32.935c-96.041,0-106.914-32.935-106.914-32.935l-7.989-28.94"/>
	<path fill="none" stroke="#000000" stroke-width="8" stroke-linecap="round" stroke-linejoin="round" stroke-miterlimit="10" d="
		M275.566,211.324c1.332-1.48,2.037-3.007,2.039-4.567"/>
	<path fill="none" stroke="#000000" stroke-width="8" stroke-linecap="square" stroke-linejoin="round" stroke-miterlimit="10" d="
		M40.828,206.752c0,0.958,0.271,1.903,0.782,2.834"/>
	<path fill="none" stroke="#000000" stroke-width="8" stroke-linecap="round" stroke-linejoin="round" stroke-miterlimit="10" d="
		M277.605,206.757c0-0.001,0-0.003,0-0.005c0-1.253-0.453-2.485-1.317-3.688"/>
	<path fill="none" stroke="#000000" stroke-width="8" stroke-linecap="square" stroke-linejoin="round" stroke-miterlimit="10" d="
		M271.91,214.327c-15.344,9.917-59.993,17.094-112.693,17.094"/>
	<path fill="none" stroke="#000000" stroke-width="8" stroke-linecap="square" stroke-linejoin="round" stroke-miterlimit="10" d="
		M152.448,231.38c2.241,0.025,4.496,0.041,6.769,0.041l0,0"/>
	<path fill="none" stroke="#000000" stroke-width="8" stroke-linecap="square" stroke-linejoin="round" stroke-miterlimit="10" d="
		M142.676,231.18c-53.123-1.547-94.942-10.44-101.066-21.594"/>
	<path fill="none" stroke="#000000" stroke-width="8" stroke-linecap="square" stroke-linejoin="round" stroke-miterlimit="10" d="
		M276.288,203.064c-8.543-11.875-57.702-20.98-117.071-20.98c-65.384,0-118.389,11.044-118.389,24.669"/>
	<path fill="none" stroke="#000000" stroke-width="8" stroke-linecap="square" stroke-linejoin="round" stroke-miterlimit="10" d="
		M142.676,231.18c0.886,0.026,1.775,0.05,2.667,0.071"/>
	<path fill="none" stroke="#000000" stroke-width="8" stroke-linecap="square" stroke-linejoin="round" stroke-miterlimit="10" d="
		M152.448,231.38c-2.389-0.028-4.757-0.071-7.105-0.129"/>
	<path fill="none" stroke="#000000" stroke-width="8" stroke-linecap="round" stroke-linejoin="round" stroke-miterlimit="10" d="
		M275.566,211.324c-0.922,1.024-2.146,2.026-3.656,3.003"/>
	
		<line fill="none" stroke="#000000" stroke-width="8" stroke-linecap="round" stroke-linejoin="round" stroke-miterlimit="10" x1="271.909" y1="214.329" x2="271.91" y2="214.327"/>
	<path fill="none" stroke="#000000" stroke-width="8" stroke-linecap="round" stroke-linejoin="round" stroke-miterlimit="10" d="
		M276.288,203.064l0.053-0.136c0.599-1.539,2.078-2.55,3.728-2.55h128.646c2.209,0,4,1.79,4,4.002v9.868c0,2.21-1.791,4-4,4H300.168
		l-27.55,13.396c-0.558,0.271-1.154,0.403-1.748,0.403c-0.983,0-1.956-0.364-2.711-1.059c-0.361-0.333-0.642-0.727-0.854-1.148"/>
</g>
<g id="pivot">
	<circle fill="none" cx="211.2" cy="273.485" r="14.133"/>
</g>
</svg>
