<?xml version="1.0" encoding="utf-8"?>
<!-- Generator: Adobe Illustrator 16.0.0, SVG Export Plug-In . SVG Version: 6.00 Build 0)  -->
<!DOCTYPE svg PUBLIC "-//W3C//DTD SVG 1.1//EN" "http://www.w3.org/Graphics/SVG/1.1/DTD/svg11.dtd">
<svg version="1.1" xmlns="http://www.w3.org/2000/svg" xmlns:xlink="http://www.w3.org/1999/xlink" x="0px" y="0px"
	 width="453.543px" height="453.543px" viewBox="0 0 453.543 453.543" enable-background="new 0 0 453.543 453.543"
	 xml:space="preserve">
<g id="kvadrat">
</g>
<g id="color" display="none">
	<g id="rdeča7bela" display="inline">
	</g>
	<g display="inline">
		
			<path fill="#7E4E24" stroke="#000000" stroke-width="8" stroke-linecap="round" stroke-linejoin="round" stroke-miterlimit="10" d="
			M383.694,120.72h-48.645c-1.65,0-3.13,1.012-3.728,2.551l-9.2,23.669c-0.597,1.534-0.192,3.276,1.018,4.392
			c0.755,0.695,1.727,1.058,2.711,1.058c0.593,0,1.191-0.132,1.748-0.403l27.55-13.397h28.546c2.209,0,4-1.791,4-4v-9.869
			C387.694,122.51,385.903,120.72,383.694,120.72z"/>
		
			<path fill="#7E4E24" stroke="#000000" stroke-width="8" stroke-linecap="round" stroke-linejoin="round" stroke-miterlimit="10" d="
			M69.849,120.72h48.646c1.65,0,3.13,1.012,3.728,2.551l9.2,23.669c0.597,1.534,0.192,3.276-1.017,4.392
			c-0.755,0.695-1.728,1.058-2.712,1.058c-0.593,0-1.191-0.132-1.748-0.403l-27.55-13.397H69.849c-2.209,0-4-1.791-4-4v-9.869
			C65.849,122.51,67.64,120.72,69.849,120.72z"/>
		
			<path fill="#EED2A3" stroke="#000000" stroke-width="8" stroke-linecap="round" stroke-linejoin="round" stroke-miterlimit="10" d="
			M118.808,127.095l8.771,191.09c0,0,0.873,32.934,96.914,32.934s96.917-32.934,96.917-32.934l14.176-191.09
			c0,13.625-43.005,24.669-108.389,24.669C161.814,151.764,118.808,140.72,118.808,127.095z"/>
		
			<path fill="#FFFFFF" stroke="#000000" stroke-width="8" stroke-linecap="round" stroke-linejoin="round" stroke-miterlimit="10" d="
			M335.586,127.094c0,13.625-43.005,24.669-108.389,24.669c-65.383,0-108.389-11.045-108.389-24.669
			c0-13.624,43.006-24.669,108.389-24.669C292.582,102.425,335.586,113.471,335.586,127.094z"/>
	</g>
</g>
<g id="cb">
	<g id="rdeča7bela_copy">
	</g>
	<g>
		<path fill="none" stroke="#000000" stroke-width="8" stroke-linecap="round" stroke-linejoin="round" stroke-miterlimit="10" d="
			M333.97,148.888l21.178-10.299h28.546c2.209,0,4-1.791,4-4v-9.869c0-2.209-1.791-4-4-4h-48.645c-0.773,0-1.505,0.229-2.131,0.624"
			/>
		
			<line fill="none" stroke="#000000" stroke-width="8" stroke-linecap="round" stroke-linejoin="round" stroke-miterlimit="10" x1="325.639" y1="137.89" x2="325.639" y2="137.889"/>
		<path fill="none" stroke="#000000" stroke-width="8" stroke-linecap="round" stroke-linejoin="round" stroke-miterlimit="10" d="
			M121.131,121.721c-0.715-0.629-1.643-1.001-2.637-1.001H69.849c-2.209,0-4,1.791-4,4v9.869c0,2.209,1.791,4,4,4h28.547
			l21.417,10.415"/>
		
			<line fill="none" stroke="#000000" stroke-width="8" stroke-linecap="round" stroke-linejoin="round" stroke-miterlimit="10" x1="127.689" y1="137.334" x2="127.688" y2="137.333"/>
		<path fill="none" stroke="#000000" stroke-width="8" stroke-linecap="round" stroke-linejoin="round" stroke-miterlimit="10" d="
			M335.523,127.944c0.037-0.282,0.063-0.565,0.063-0.85v0.001"/>
		<path fill="none" stroke="#000000" stroke-width="8" stroke-linecap="round" stroke-linejoin="round" stroke-miterlimit="10" d="
			M127.689,137.334c13.77,7.423,42.796,12.872,81.727,14.146"/>
		<path fill="none" stroke="#000000" stroke-width="8" stroke-linecap="round" stroke-linejoin="round" stroke-miterlimit="10" d="
			M233.261,151.731c1.999-0.021,3.976-0.053,5.929-0.095"/>
		<path fill="none" stroke="#000000" stroke-width="8" stroke-linecap="round" stroke-linejoin="round" stroke-miterlimit="10" d="
			M325.639,137.89c-14.167,7.138-42.707,12.348-80.659,13.59"/>
		
			<line fill="none" stroke="#000000" stroke-width="8" stroke-linecap="round" stroke-linejoin="round" stroke-miterlimit="10" x1="335.523" y1="127.943" x2="335.523" y2="127.944"/>
		<path fill="none" stroke="#000000" stroke-width="8" stroke-linecap="round" stroke-linejoin="round" stroke-miterlimit="10" d="
			M215.205,151.636c1.954,0.042,3.93,0.074,5.929,0.095"/>
		<path fill="none" stroke="#000000" stroke-width="8" stroke-linecap="round" stroke-linejoin="round" stroke-miterlimit="10" d="
			M325.639,137.89c5.996-3.021,9.414-6.388,9.885-9.945"/>
		<path fill="none" stroke="#000000" stroke-width="8" stroke-linecap="round" stroke-linejoin="round" stroke-miterlimit="10" d="
			M127.689,137.334c-5.786-3.119-8.881-6.586-8.881-10.239l1.005,21.909"/>
		<path fill="none" stroke="#000000" stroke-width="8" stroke-linecap="round" stroke-linejoin="round" stroke-miterlimit="10" d="
			M333.97,148.888l-12.56,169.297c0,0-0.876,32.934-96.917,32.934s-96.914-32.934-96.914-32.934l-7.766-169.181"/>
		
			<line fill="none" stroke="#000000" stroke-width="8" stroke-linecap="round" stroke-linejoin="round" stroke-miterlimit="10" x1="335.523" y1="127.943" x2="335.586" y2="127.096"/>
		
			<line fill="none" stroke="#000000" stroke-width="8" stroke-linecap="round" stroke-linejoin="round" stroke-miterlimit="10" x1="333.97" y1="148.888" x2="335.523" y2="127.944"/>
		<path fill="none" stroke="#000000" stroke-width="8" stroke-linecap="round" stroke-linejoin="round" stroke-miterlimit="10" d="
			M335.586,127.096v-0.001c0-1.98-0.915-3.905-2.668-5.75"/>
		<path fill="none" stroke="#000000" stroke-width="8" stroke-linecap="round" stroke-linejoin="round" stroke-miterlimit="10" d="
			M335.523,127.943c0.037-0.281,0.063-0.564,0.063-0.848"/>
		<path fill="none" stroke="#000000" stroke-width="8" stroke-linecap="round" stroke-linejoin="round" stroke-miterlimit="10" d="
			M209.416,151.479c-38.931-1.274-67.958-6.723-81.727-14.146"/>
		<path fill="none" stroke="#000000" stroke-width="8" stroke-linecap="round" stroke-linejoin="round" stroke-miterlimit="10" d="
			M325.639,137.889c-14.167,7.139-42.707,12.349-80.66,13.591"/>
		<path fill="none" stroke="#000000" stroke-width="8" stroke-linecap="round" stroke-linejoin="round" stroke-miterlimit="10" d="
			M127.688,137.333c-5.785-3.119-8.88-6.586-8.88-10.239c0-1.846,0.796-3.644,2.323-5.374"/>
		<path fill="none" stroke="#000000" stroke-width="8" stroke-linecap="round" stroke-linejoin="round" stroke-miterlimit="10" d="
			M325.639,137.889c5.996-3.021,9.414-6.388,9.884-9.945"/>
		<path fill="none" stroke="#000000" stroke-width="8" stroke-linecap="round" stroke-linejoin="round" stroke-miterlimit="10" d="
			M221.134,151.731c-1.999-0.021-3.975-0.053-5.929-0.095"/>
		<path fill="none" stroke="#000000" stroke-width="8" stroke-linecap="round" stroke-linejoin="round" stroke-miterlimit="10" d="
			M121.131,121.721c9.747-11.04,49.541-19.296,106.066-19.296c55.881,0,95.41,8.069,105.721,18.919"/>
		<path fill="none" stroke="#000000" stroke-width="8" stroke-linecap="round" stroke-linejoin="round" stroke-miterlimit="10" d="
			M239.189,151.636c-1.953,0.042-3.93,0.074-5.929,0.095"/>
		<path fill="none" stroke="#000000" stroke-width="8" stroke-linecap="round" stroke-linejoin="round" stroke-miterlimit="10" d="
			M215.205,151.636c-1.953-0.042-3.883-0.094-5.79-0.157"/>
		<path fill="none" stroke="#000000" stroke-width="8" stroke-linecap="round" stroke-linejoin="round" stroke-miterlimit="10" d="
			M244.979,151.479c-1.906,0.063-3.836,0.115-5.79,0.157"/>
		<path fill="none" stroke="#000000" stroke-width="8" stroke-linecap="round" stroke-linejoin="round" stroke-miterlimit="10" d="
			M233.261,151.731c-1.999,0.021-4.02,0.032-6.063,0.032c-2.043,0-4.064-0.011-6.063-0.032"/>
	</g>
</g>
<g id="pivot">
	<circle fill="none" cx="226.137" cy="352.079" r="14.133"/>
</g>
</svg>
