<?xml version="1.0" encoding="utf-8"?>
<!-- Generator: Adobe Illustrator 16.0.0, SVG Export Plug-In . SVG Version: 6.00 Build 0)  -->
<!DOCTYPE svg PUBLIC "-//W3C//DTD SVG 1.1//EN" "http://www.w3.org/Graphics/SVG/1.1/DTD/svg11.dtd">
<svg version="1.1" xmlns="http://www.w3.org/2000/svg" xmlns:xlink="http://www.w3.org/1999/xlink" x="0px" y="0px"
	 width="453.543px" height="453.543px" viewBox="0 0 453.543 453.543" enable-background="new 0 0 453.543 453.543"
	 xml:space="preserve">
<g id="kvadrat">
</g>
<g id="color" display="none">
	<g id="rdeča7bela" display="inline">
	</g>
	<g display="inline">
		<g>
			<g>
				
					<path fill="#7E4E24" stroke="#000000" stroke-width="8" stroke-linecap="round" stroke-linejoin="round" stroke-miterlimit="10" d="
					M387.272,184.748h-38.454c-3.322,0-6.187,2.335-6.856,5.59l-4.14,20.123c-0.472,2.293,0.234,4.669,1.88,6.333
					c1.328,1.343,3.125,2.077,4.977,2.077c0.444,0,0.892-0.042,1.335-0.128l42.594-8.28c3.289-0.64,5.664-3.521,5.664-6.872v-11.843
					C394.272,187.882,391.138,184.748,387.272,184.748z"/>
				
					<path fill="#7E4E24" stroke="#000000" stroke-width="8" stroke-linecap="round" stroke-linejoin="round" stroke-miterlimit="10" d="
					M113.042,190.797c-0.476-3.466-3.437-6.049-6.936-6.049H66.272c-3.866,0-7,3.134-7,7v11.843c0,3.351,2.375,6.232,5.664,6.872
					l42.593,8.28c0.444,0.086,0.891,0.128,1.335,0.128c1.772,0,3.499-0.673,4.81-1.915c1.641-1.55,2.432-3.798,2.125-6.035
					L113.042,190.797z"/>
			</g>
			
				<path fill="#CB78A6" stroke="#000000" stroke-width="8" stroke-linecap="round" stroke-linejoin="round" stroke-miterlimit="10" d="
				M344.327,184.748c0-13.448-52.324-34.35-116.868-34.35c-64.542,0-116.866,20.902-116.866,34.35l8.657,80.367
				c0,21.005,47.254,38.03,105.539,38.03c58.29,0,105.543-17.025,105.543-38.03l13.917-79.541
				C344.295,185.3,344.327,185.025,344.327,184.748z"/>
		</g>
		
			<path fill="#FFFFFF" stroke="#000000" stroke-width="8" stroke-linecap="round" stroke-linejoin="round" stroke-miterlimit="10" d="
			M345.124,184.97c0-13.448-52.324-34.351-116.868-34.351c-64.542,0-116.866,20.902-116.866,34.351l0.269,4.661
			c14.609,13.029,61.324,27.834,116.699,27.834c54.885,0,101.26-14.545,116.299-27.489l0.389-4.18
			C345.092,185.521,345.124,185.246,345.124,184.97z"/>
	</g>
</g>
<g id="cb">
	<g id="rdeča7bela_copy">
	</g>
	<g>
		<path fill="none" stroke="#000000" stroke-width="8" stroke-linecap="round" stroke-linejoin="round" stroke-miterlimit="10" d="
			M345.039,185.882c-0.349,0.225-0.673,0.479-0.976,0.762"/>
		<path fill="none" stroke="#000000" stroke-width="8" stroke-linecap="round" stroke-linejoin="round" stroke-miterlimit="10" d="
			M344.063,186.644c-1.035,0.964-1.799,2.227-2.101,3.694l-0.418,2.03"/>
		<path fill="none" stroke="#000000" stroke-width="8" stroke-linecap="round" stroke-linejoin="round" stroke-miterlimit="10" d="
			M345.039,185.882c1.1-0.709,2.394-1.134,3.779-1.134h38.454c3.866,0,7,3.134,7,7v11.843c0,3.352-2.375,6.232-5.664,6.872
			l-42.594,8.28c-0.444,0.086-0.891,0.128-1.335,0.128c-1.852,0-3.649-0.734-4.977-2.077c-0.283-0.286-0.527-0.599-0.753-0.923"/>
		<path fill="none" stroke="#000000" stroke-width="8" stroke-linecap="round" stroke-linejoin="round" stroke-miterlimit="10" d="
			M113.04,190.789c-0.182-1.315-0.723-2.501-1.515-3.468"/>
		<path fill="none" stroke="#000000" stroke-width="8" stroke-linecap="round" stroke-linejoin="round" stroke-miterlimit="10" d="
			M111.525,187.32c-0.226-0.276-0.474-0.533-0.738-0.771"/>
		<path fill="none" stroke="#000000" stroke-width="8" stroke-linecap="round" stroke-linejoin="round" stroke-miterlimit="10" d="
			M110.787,186.549c-1.247-1.123-2.893-1.801-4.681-1.801H66.272c-3.866,0-7,3.134-7,7v11.843c0,3.351,2.375,6.232,5.664,6.872
			l42.593,8.28c0.444,0.086,0.891,0.128,1.335,0.128c1.772,0,3.499-0.673,4.81-1.915c0.124-0.117,0.233-0.246,0.348-0.37"/>
		
			<line fill="none" stroke="#000000" stroke-width="8" stroke-linecap="round" stroke-linejoin="round" stroke-miterlimit="10" x1="344.063" y1="186.644" x2="343.285" y2="191.09"/>
		
			<line fill="none" stroke="#000000" stroke-width="8" stroke-linecap="round" stroke-linejoin="round" stroke-miterlimit="10" x1="343.285" y1="191.09" x2="338.949" y2="215.871"/>
		
			<line fill="none" stroke="#000000" stroke-width="8" stroke-linecap="round" stroke-linejoin="round" stroke-miterlimit="10" x1="110.787" y1="186.549" x2="114.023" y2="216.586"/>
		<path fill="none" stroke="#000000" stroke-width="8" stroke-linecap="round" stroke-linejoin="round" stroke-miterlimit="10" d="
			M110.787,186.549l-0.194-1.801c0-13.448,52.324-34.35,116.866-34.35c28.393,0,54.417,4.045,74.667,9.721"/>
		<path fill="none" stroke="#000000" stroke-width="8" stroke-linecap="round" stroke-linejoin="round" stroke-miterlimit="10" d="
			M338.949,215.871l-8.616,49.244c0,21.005-47.253,38.03-105.543,38.03c-58.285,0-105.539-17.025-105.539-38.03l-5.228-48.529"/>
		<path fill="none" stroke="#000000" stroke-width="8" stroke-linecap="round" stroke-linejoin="round" stroke-miterlimit="10" d="
			M344.063,186.644l0.187-1.069c0.046-0.274,0.077-0.55,0.077-0.827c0-7.532-16.418-17.402-42.201-24.629"/>
		<path fill="none" stroke="#000000" stroke-width="8" stroke-linecap="round" stroke-linejoin="round" stroke-miterlimit="10" d="
			M113.04,190.789c-0.486-0.387-0.95-0.773-1.381-1.158l-0.133-2.311"/>
		<path fill="none" stroke="#000000" stroke-width="8" stroke-linecap="round" stroke-linejoin="round" stroke-miterlimit="10" d="
			M343.285,191.09c-0.549,0.425-1.127,0.852-1.741,1.278"/>
		<path fill="none" stroke="#000000" stroke-width="8" stroke-linecap="round" stroke-linejoin="round" stroke-miterlimit="10" d="
			M113.04,190.789c15.997,12.732,61.577,26.676,115.318,26.676c51.524,0,95.545-12.818,113.186-25.097"/>
		<path fill="none" stroke="#000000" stroke-width="8" stroke-linecap="round" stroke-linejoin="round" stroke-miterlimit="10" d="
			M345.039,185.882l0.008-0.086c0.046-0.274,0.077-0.55,0.077-0.826c0-7.609-16.757-17.605-42.998-24.851"/>
		<path fill="none" stroke="#000000" stroke-width="8" stroke-linecap="round" stroke-linejoin="round" stroke-miterlimit="10" d="
			M345.039,185.882l-0.381,4.094c-0.43,0.37-0.892,0.742-1.373,1.114"/>
		<path fill="none" stroke="#000000" stroke-width="8" stroke-linecap="round" stroke-linejoin="round" stroke-miterlimit="10" d="
			M111.525,187.32l-0.135-2.351c0-13.448,52.324-34.351,116.866-34.351c28.022,0,53.737,3.941,73.87,9.5"/>
	</g>
</g>
<g id="pivot">
	<circle fill="none" cx="216.95" cy="302.889" r="14.133"/>
</g>
</svg>
