<?xml version="1.0" encoding="utf-8"?>
<!-- Generator: Adobe Illustrator 16.0.0, SVG Export Plug-In . SVG Version: 6.00 Build 0)  -->
<!DOCTYPE svg PUBLIC "-//W3C//DTD SVG 1.1//EN" "http://www.w3.org/Graphics/SVG/1.1/DTD/svg11.dtd">
<svg version="1.1" xmlns="http://www.w3.org/2000/svg" xmlns:xlink="http://www.w3.org/1999/xlink" x="0px" y="0px"
	 width="453.544px" height="453.543px" viewBox="0 0 453.544 453.543" enable-background="new 0 0 453.544 453.543"
	 xml:space="preserve">
<g id="kvadrat">
</g>
<g id="color" display="none">
	<g id="rdeča7bela" display="inline">
	</g>
	<g display="inline">
		<path fill="#0073B3" stroke="#1D1D1B" stroke-width="8" stroke-miterlimit="10" d="M348.384,165.419h-26.526
			c-0.985-13.364-6.386-28.915-30.735-28.915c-24.351,0-29.751,15.551-30.736,28.915H235.22c-24.963,0-45.199,8.933-45.199,33.899
			v14.709h203.563v-18.477C393.584,170.586,373.347,165.419,348.384,165.419z M291.122,150.359c8.718,0,13.818,6.6,14.783,15.06
			h-29.564C277.308,156.959,282.403,150.359,291.122,150.359z"/>
		<path fill="#C6C6C5" stroke="#1D1D1B" stroke-width="8" stroke-linecap="round" stroke-miterlimit="10" d="M136.737,221.62
			c-2.557-2.939-7.316-4.842-15.546-4.842H74.282c-14.152,0-14.322,5.596-14.322,12.485c0,6.904,0.17,12.491,14.322,12.491h46.909
			c8.23,0,12.991-1.897,15.546-4.843h65.715V221.62H136.737z"/>
		<path fill="#57B2E5" stroke="#1D1D1B" stroke-width="8" stroke-linecap="round" stroke-miterlimit="10" d="M235.22,317.04h113.164
			c24.963,0,45.2-8.934,45.2-33.899V235.09v-21.063H190.616v75.795C193.986,309.688,212.642,317.04,235.22,317.04z"/>
	</g>
</g>
<g id="cb">
	<g id="rdeča7bela_copy">
	</g>
	<g>
		<path fill="none" stroke="#1C1C1C" stroke-width="8" stroke-miterlimit="10" d="M348.384,165.419h-26.526
			c-0.985-13.364-6.386-28.915-30.735-28.915c-24.351,0-29.751,15.551-30.736,28.915H235.22c-24.963,0-45.199,8.933-45.199,33.899
			v14.709h203.563v-18.477C393.584,170.586,373.347,165.419,348.384,165.419z M291.122,150.359c8.718,0,13.818,6.6,14.783,15.06
			h-29.564C277.308,156.959,282.403,150.359,291.122,150.359z"/>
		<path fill="none" stroke="#1C1C1C" stroke-width="8" stroke-linecap="round" stroke-miterlimit="10" d="M190.616,221.62h-53.879
			c-2.557-2.939-7.316-4.842-15.546-4.842H74.282c-14.152,0-14.322,5.596-14.322,12.485c0,6.904,0.17,12.491,14.322,12.491h46.909
			c8.23,0,12.991-1.897,15.546-4.843h53.879V221.62z"/>
		<path fill="none" stroke="#1C1C1C" stroke-width="8" stroke-linecap="round" stroke-miterlimit="10" d="M235.22,317.04h113.164
			c24.963,0,45.2-8.934,45.2-33.899V235.09v-21.063H190.616v75.795C193.986,309.688,212.642,317.04,235.22,317.04z"/>
	</g>
</g>
<g id="pivot">
	<circle fill="none" cx="272.245" cy="318.804" r="14.133"/>
</g>
</svg>
