<?xml version="1.0" encoding="utf-8"?>
<!-- Generator: Adobe Illustrator 16.0.0, SVG Export Plug-In . SVG Version: 6.00 Build 0)  -->
<!DOCTYPE svg PUBLIC "-//W3C//DTD SVG 1.1//EN" "http://www.w3.org/Graphics/SVG/1.1/DTD/svg11.dtd">
<svg version="1.1" xmlns="http://www.w3.org/2000/svg" xmlns:xlink="http://www.w3.org/1999/xlink" x="0px" y="0px"
	 width="453.543px" height="453.543px" viewBox="0 0 453.543 453.543" enable-background="new 0 0 453.543 453.543"
	 xml:space="preserve">
<g id="kvadrat">
</g>
<g id="color" display="none">
	<g id="rdeča7bela" display="inline">
	</g>
	<path display="inline" fill="#FFFFFF" stroke="#1D1D1B" stroke-width="8" stroke-miterlimit="10" d="M295.187,195.103
		c-2.859-7.6-6.902-14.418-10.813-20.995c-4.988-8.433-9.699-16.383-11.973-25.661c-2.594-10.616-4.055-25.2,1.711-38.566
		l10.32-9.478h-57.656H169.11l10.334,9.478c5.748,13.372,4.291,27.955,1.691,38.566c-2.254,9.278-6.979,17.228-11.967,25.661
		c-3.912,6.577-7.953,13.395-10.811,20.995c-12.246,32.465-13.299,61.592-3.314,91.659c6.973,20.922,21.684,39.451,35.34,53.235
		h1.627v13.144h69.52v-13.144h1.627c13.672-13.784,28.38-32.313,35.339-53.235C308.483,256.695,307.433,227.568,295.187,195.103z"/>
</g>
<g id="cb">
	<g id="rdeča7bela_copy">
	</g>
	<path fill="none" stroke="#1C1C1C" stroke-width="8" stroke-linecap="round" stroke-linejoin="round" stroke-miterlimit="10" d="
		M295.187,195.103c-2.859-7.6-6.902-14.418-10.813-20.995c-4.988-8.433-9.699-16.383-11.973-25.661
		c-2.594-10.616-4.055-25.2,1.711-38.566l10.32-9.478h-57.656H169.11l10.334,9.478c5.748,13.372,4.291,27.955,1.691,38.566
		c-2.254,9.278-6.979,17.228-11.967,25.661c-3.912,6.577-7.953,13.395-10.811,20.995c-12.246,32.465-13.299,61.592-3.314,91.659
		c6.973,20.922,21.684,39.451,35.34,53.235h1.627v13.144h69.52v-13.144h1.627c13.672-13.784,28.38-32.313,35.339-53.235
		C308.483,256.695,307.433,227.568,295.187,195.103z"/>
</g>
<g id="pivot">
	<circle fill="none" cx="222.191" cy="352.079" r="14.133"/>
</g>
</svg>
