<?xml version="1.0" encoding="utf-8"?>
<!-- Generator: Adobe Illustrator 16.0.0, SVG Export Plug-In . SVG Version: 6.00 Build 0)  -->
<!DOCTYPE svg PUBLIC "-//W3C//DTD SVG 1.1//EN" "http://www.w3.org/Graphics/SVG/1.1/DTD/svg11.dtd">
<svg version="1.1" xmlns="http://www.w3.org/2000/svg" xmlns:xlink="http://www.w3.org/1999/xlink" x="0px" y="0px"
	 width="453.544px" height="453.543px" viewBox="0 0 453.544 453.543" enable-background="new 0 0 453.544 453.543"
	 xml:space="preserve">
<g id="kvadrat">
</g>
<g id="color" display="none">
	<g id="rdeča7bela" display="inline">
	</g>
	<path display="inline" fill="#FFFFFF" stroke="#1D1D1B" stroke-width="8" stroke-miterlimit="10" d="M310.884,244.299
		c-12.887-23.68-36.471-39.121-49.844-62.434c-15.742-27.446-14.525-61.591-1.58-89.816c0.609-1.332-1.002-6.032-1.959-6.487
		c-8.135-3.847-53.324-3.847-61.459,0c-0.957,0.455-2.568,5.155-1.959,6.487c12.945,28.226,14.164,62.37-1.58,89.816
		c-13.371,23.313-36.955,38.754-49.842,62.434c-18.84,34.613-13.357,82.253,17.6,108.182c16.795,14.069,39.025,17.894,60.352,18.362
		c2.041,0.044,4.1,0.022,6.16-0.022c2.061,0.045,4.117,0.066,6.16,0.022c21.324-0.469,43.555-4.293,60.352-18.362
		C324.239,326.552,329.724,278.912,310.884,244.299z"/>
</g>
<g id="cb">
	<g id="rdeča7bela_copy">
	</g>
	<path fill="none" stroke="#1C1C1C" stroke-width="8" stroke-miterlimit="10" d="M310.884,244.299
		c-12.887-23.68-36.471-39.121-49.844-62.434c-15.742-27.446-14.525-61.591-1.58-89.816c0.609-1.332-1.002-6.032-1.959-6.487
		c-8.135-3.847-53.324-3.847-61.459,0c-0.957,0.455-2.568,5.155-1.959,6.487c12.945,28.226,14.164,62.37-1.58,89.816
		c-13.371,23.313-36.955,38.754-49.842,62.434c-18.84,34.613-13.357,82.253,17.6,108.182c16.795,14.069,39.025,17.894,60.352,18.362
		c2.041,0.044,4.1,0.022,6.16-0.022c2.061,0.045,4.117,0.066,6.16,0.022c21.324-0.469,43.555-4.293,60.352-18.362
		C324.239,326.552,329.724,278.912,310.884,244.299z"/>
</g>
<g id="pivot">
	<circle fill="none" cx="223.486" cy="366.546" r="14.133"/>
</g>
</svg>
