<?xml version="1.0" encoding="utf-8"?>
<!-- Generator: Adobe Illustrator 16.0.0, SVG Export Plug-In . SVG Version: 6.00 Build 0)  -->
<!DOCTYPE svg PUBLIC "-//W3C//DTD SVG 1.1//EN" "http://www.w3.org/Graphics/SVG/1.1/DTD/svg11.dtd">
<svg version="1.1" xmlns="http://www.w3.org/2000/svg" xmlns:xlink="http://www.w3.org/1999/xlink" x="0px" y="0px"
	 width="453.543px" height="453.543px" viewBox="0 0 453.543 453.543" enable-background="new 0 0 453.543 453.543"
	 xml:space="preserve">
<g id="kvadrat">
</g>
<g id="color" display="none">
	<g id="rdeča7bela" display="inline">
	</g>
	
		<path display="inline" fill="#C8C8C8" stroke="#000000" stroke-width="8" stroke-linecap="round" stroke-linejoin="round" stroke-miterlimit="10" d="
		M261.214,162.657l-5.557-97.838c0,0,0.363-5.477-4.555-5.477c-4.917,0-4.82,5.477-4.82,5.477s-0.113-0.086-0.133,0
		c-0.273,0.646,0.734,91.612,0.734,91.612c0,2.303-1.872,4.17-4.175,4.17c-0.821,0-4.818,0-9.721,0V64.819c0,0-2.246-6-6-6s-6,6-6,6
		v95.783c-5.094,0-9.298,0-10.142,0c-2.303,0-4.175-1.867-4.175-4.17l0.121-91.612c0,0-1.518-5.477-4.642-5.477
		s-5.379,5.477-5.379,5.477l-4.436,97.838c-0.191,1.479-0.293,3-0.293,4.544c0,6.771,1.951,13.09,5.304,18.434l0.005,0.013
		l13.472,21.537c2.895,5.038,4.544,10.876,4.544,17.109l-9.083,149.945c0,11.311,9.168,20.484,20.488,20.484
		c11.311,0,20.488-9.173,20.488-20.484l-9.11-149.945c0-6.233,1.676-12.071,4.565-17.109l13.478-21.537v-0.013
		c3.353-5.344,5.304-11.664,5.304-18.434C261.503,165.652,261.392,164.137,261.214,162.657z"/>
</g>
<g id="cb">
	<g id="rdeča7bela_copy">
	</g>
	<path fill="none" stroke="#000000" stroke-width="8" stroke-linecap="round" stroke-linejoin="round" stroke-miterlimit="10" d="
		M196.773,64.819l-4.436,97.838c-0.191,1.479-0.293,3-0.293,4.544c0,6.771,1.951,13.09,5.304,18.434l0.005,0.013l13.472,21.537
		c2.895,5.038,4.544,10.876,4.544,17.109l-9.083,149.945c0,11.311,9.168,20.484,20.488,20.484c11.311,0,20.488-9.173,20.488-20.484
		l-9.11-149.945c0-6.233,1.676-12.071,4.565-17.109l13.478-21.537v-0.013c3.353-5.344,5.304-11.664,5.304-18.434
		c0.005-1.549-0.106-3.064-0.284-4.544l-5.557-97.838"/>
	
		<line fill="none" stroke="#000000" stroke-width="8" stroke-linecap="round" stroke-linejoin="round" stroke-miterlimit="10" x1="216.925" y1="64.819" x2="216.925" y2="167.931"/>
	
		<line fill="none" stroke="#000000" stroke-width="8" stroke-linecap="round" stroke-linejoin="round" stroke-miterlimit="10" x1="235.806" y1="64.819" x2="235.806" y2="167.931"/>
</g>
<g id="pivot">
	<circle fill="none" cx="226.493" cy="387.779" r="14.133"/>
</g>
</svg>
