<?xml version="1.0" encoding="utf-8"?>
<!-- Generator: Adobe Illustrator 16.0.0, SVG Export Plug-In . SVG Version: 6.00 Build 0)  -->
<!DOCTYPE svg PUBLIC "-//W3C//DTD SVG 1.1//EN" "http://www.w3.org/Graphics/SVG/1.1/DTD/svg11.dtd">
<svg version="1.1" xmlns="http://www.w3.org/2000/svg" xmlns:xlink="http://www.w3.org/1999/xlink" x="0px" y="0px" width="220px"
	 height="220px" viewBox="0 0 220 220" enable-background="new 0 0 220 220" xml:space="preserve">
<g id="bg" display="none">
	<rect x="-445.836" y="-681.787" display="inline" fill="#FFFFFF" width="3240.076" height="8444.104"/>
</g>
<g id="Layer_3" display="none">
</g>
<g id="Layer_1">
	<g>
		<defs>
			<rect id="SVGID_245_" width="220" height="220"/>
		</defs>
		<clipPath id="SVGID_2_">
			<use xlink:href="#SVGID_245_"  overflow="visible"/>
		</clipPath>
		<rect clip-path="url(#SVGID_2_)" fill="#57B3E6" width="220" height="220"/>
		<g clip-path="url(#SVGID_2_)">
			
				<ellipse fill="#422778" stroke="#000100" stroke-width="2.4296" stroke-linecap="round" stroke-linejoin="round" stroke-miterlimit="10" cx="212.878" cy="1.918" rx="19.771" ry="29.844"/>
			
				<path fill="#422778" stroke="#000100" stroke-width="2.4296" stroke-linecap="round" stroke-linejoin="round" stroke-miterlimit="10" d="
				M232.546,1.918c0-13.295-5.761-24.559-13.72-28.418c1.908-0.923,3.941-1.426,6.052-1.426c10.92,0,19.771,13.361,19.771,29.844
				s-8.852,29.844-19.771,29.844c-2.111,0-4.144-0.501-6.052-1.426C226.786,26.477,232.546,15.214,232.546,1.918z"/>
		</g>
		<g clip-path="url(#SVGID_2_)">
			<g>
				
					<polygon fill="#683C14" stroke="#000100" stroke-width="3.9482" stroke-linecap="round" stroke-linejoin="round" stroke-miterlimit="10" points="
					139.877,41.762 143.842,38.741 145.586,35.717 142.095,35.717 138.606,35.717 140.352,38.741 				"/>
				
					<polygon fill="#683C14" stroke="#000100" stroke-width="3.9482" stroke-linecap="round" stroke-linejoin="round" stroke-miterlimit="10" points="
					145.586,41.762 147.331,38.741 149.076,35.717 145.586,35.717 142.095,35.717 143.842,38.741 				"/>
				
					<polygon fill="#683C14" stroke="#000100" stroke-width="3.9482" stroke-linecap="round" stroke-linejoin="round" stroke-miterlimit="10" points="
					151.296,41.762 150.821,38.741 152.565,35.717 149.076,35.717 145.586,35.717 147.331,38.741 				"/>
			</g>
			
				<path fill="#FFCF04" stroke="#000100" stroke-width="2.4296" stroke-linecap="round" stroke-linejoin="round" stroke-miterlimit="10" d="
				M132.035-6.244c4.861-12.369,3.461-20.763,13.596-20.763c10.136,0,8.735,8.395,13.596,20.763c3.331,8.472,25.213,31.146,0,43.505
				c-8.899,3.708-13.596,2.72-13.596,2.72s-4.696,0.988-13.596-2.72C106.821,24.902,128.705,2.229,132.035-6.244z"/>
			
				<path fill="none" stroke="#000100" stroke-width="1.8222" stroke-linecap="round" stroke-linejoin="round" stroke-miterlimit="10" d="
				M132.654,28.563c0,0-6.36-8.269,2.349-20.398"/>
		</g>
		<g clip-path="url(#SVGID_2_)">
			
				<path fill="#7F4F25" stroke="#000100" stroke-width="2.4296" stroke-linecap="round" stroke-linejoin="round" stroke-miterlimit="10" d="
				M140.901,68.239l7.165,0.003l-0.758,18.199h-0.059c0.003,0.154-0.02,0.307-0.07,0.457c-0.271,0.808-1.233,1.213-2.149,0.906
				c-0.673-0.226-1.132-0.772-1.222-1.367l-0.043-0.001L140.901,68.239z"/>
			
				<ellipse fill="#422778" stroke="#000100" stroke-width="2.4296" stroke-linecap="round" stroke-linejoin="round" stroke-miterlimit="10" cx="139.631" cy="111.918" rx="19.771" ry="29.844"/>
			
				<path fill="#422778" stroke="#000100" stroke-width="2.4296" stroke-linecap="round" stroke-linejoin="round" stroke-miterlimit="10" d="
				M159.299,111.918c0-13.295-5.761-24.559-13.72-28.418c1.908-0.923,3.942-1.426,6.052-1.426c10.919,0,19.771,13.361,19.771,29.844
				s-8.852,29.844-19.771,29.844c-2.11,0-4.144-0.501-6.052-1.426C153.538,136.477,159.299,125.214,159.299,111.918z"/>
		</g>
		<g clip-path="url(#SVGID_2_)">
			
				<path fill="#7F4F25" stroke="#000100" stroke-width="2.4296" stroke-linecap="round" stroke-linejoin="round" stroke-miterlimit="10" d="
				M217.67,63.675l7.166,0.006l-0.758,18.197h-0.059c0.002,0.155-0.021,0.307-0.071,0.457c-0.271,0.809-1.233,1.213-2.149,0.906
				c-0.673-0.226-1.132-0.773-1.222-1.367l-0.043-0.002L217.67,63.675z"/>
			<g>
				
					<polygon fill="#683C14" stroke="#000100" stroke-width="3.9482" stroke-linecap="round" stroke-linejoin="round" stroke-miterlimit="10" points="
					215.559,144.542 219.524,141.521 221.268,138.498 217.778,138.498 214.289,138.498 216.034,141.521 				"/>
				
					<polygon fill="#683C14" stroke="#000100" stroke-width="3.9482" stroke-linecap="round" stroke-linejoin="round" stroke-miterlimit="10" points="
					221.268,144.542 223.014,141.521 224.758,138.498 221.268,138.498 217.778,138.498 219.524,141.521 				"/>
				
					<polygon fill="#683C14" stroke="#000100" stroke-width="3.9482" stroke-linecap="round" stroke-linejoin="round" stroke-miterlimit="10" points="
					226.979,144.542 226.503,141.521 228.248,138.498 224.758,138.498 221.268,138.498 223.014,141.521 				"/>
			</g>
			
				<path fill="#FFCF04" stroke="#000100" stroke-width="2.4296" stroke-linecap="round" stroke-linejoin="round" stroke-miterlimit="10" d="
				M207.717,96.536c4.862-12.367,3.461-20.764,13.596-20.764c10.135,0,8.735,8.396,13.596,20.764c3.33,8.473,25.213,31.147,0,43.506
				c-8.899,3.709-13.596,2.721-13.596,2.721s-4.697,0.988-13.596-2.721C182.504,127.684,204.388,105.009,207.717,96.536z"/>
			
				<path fill="none" stroke="#000100" stroke-width="1.8222" stroke-linecap="round" stroke-linejoin="round" stroke-miterlimit="10" d="
				M208.336,131.343c0,0-6.36-8.27,2.349-20.398"/>
		</g>
		<g clip-path="url(#SVGID_2_)">
			
				<ellipse fill="#422778" stroke="#000100" stroke-width="2.4296" stroke-linecap="round" stroke-linejoin="round" stroke-miterlimit="10" cx="-7.122" cy="1.918" rx="19.771" ry="29.844"/>
			
				<path fill="#422778" stroke="#000100" stroke-width="2.4296" stroke-linecap="round" stroke-linejoin="round" stroke-miterlimit="10" d="
				M12.546,1.918c0-13.295-5.761-24.559-13.72-28.418c1.908-0.923,3.941-1.426,6.052-1.426c10.92,0,19.771,13.361,19.771,29.844
				S15.798,31.762,4.878,31.762c-2.111,0-4.144-0.501-6.052-1.426C6.786,26.477,12.546,15.214,12.546,1.918z"/>
		</g>
		<g clip-path="url(#SVGID_2_)">
			
				<path fill="#7F4F25" stroke="#000100" stroke-width="2.4296" stroke-linecap="round" stroke-linejoin="round" stroke-miterlimit="10" d="
				M214.148,178.239l7.165,0.003l-0.758,18.199h-0.058c0.002,0.154-0.021,0.307-0.071,0.457c-0.271,0.808-1.232,1.213-2.148,0.906
				c-0.673-0.226-1.132-0.772-1.222-1.367l-0.043-0.001L214.148,178.239z"/>
			
				<ellipse fill="#422778" stroke="#000100" stroke-width="2.4296" stroke-linecap="round" stroke-linejoin="round" stroke-miterlimit="10" cx="212.878" cy="221.918" rx="19.771" ry="29.844"/>
			
				<path fill="#422778" stroke="#000100" stroke-width="2.4296" stroke-linecap="round" stroke-linejoin="round" stroke-miterlimit="10" d="
				M232.546,221.918c0-13.295-5.761-24.559-13.72-28.418c1.908-0.923,3.941-1.426,6.052-1.426c10.92,0,19.771,13.361,19.771,29.844
				s-8.852,29.844-19.771,29.844c-2.111,0-4.144-0.501-6.052-1.426C226.786,246.477,232.546,235.214,232.546,221.918z"/>
		</g>
		<g clip-path="url(#SVGID_2_)">
			
				<path fill="#7F4F25" stroke="#000100" stroke-width="2.4296" stroke-linecap="round" stroke-linejoin="round" stroke-miterlimit="10" d="
				M141.987,180.895l7.166,0.004l-0.757,18.199h-0.059c0.002,0.153-0.021,0.307-0.071,0.458c-0.271,0.808-1.232,1.212-2.148,0.905
				c-0.673-0.226-1.132-0.772-1.222-1.367l-0.043-0.001L141.987,180.895z"/>
			
				<path fill="#FFCF04" stroke="#000100" stroke-width="2.4296" stroke-linecap="round" stroke-linejoin="round" stroke-miterlimit="10" d="
				M132.035,213.756c4.861-12.369,3.461-20.763,13.596-20.763c10.136,0,8.735,8.395,13.596,20.763
				c3.331,8.472,25.213,31.146,0,43.505c-8.899,3.708-13.596,2.72-13.596,2.72s-4.696,0.988-13.596-2.72
				C106.821,244.902,128.705,222.229,132.035,213.756z"/>
		</g>
		<g clip-path="url(#SVGID_2_)">
			<g>
				
					<polygon fill="#683C14" stroke="#000100" stroke-width="3.9482" stroke-linecap="round" stroke-linejoin="round" stroke-miterlimit="10" points="
					67.017,41.762 70.982,38.741 72.726,35.717 69.236,35.717 65.747,35.717 67.492,38.741 				"/>
				
					<polygon fill="#683C14" stroke="#000100" stroke-width="3.9482" stroke-linecap="round" stroke-linejoin="round" stroke-miterlimit="10" points="
					72.726,41.762 74.471,38.741 76.216,35.717 72.726,35.717 69.236,35.717 70.982,38.741 				"/>
				
					<polygon fill="#683C14" stroke="#000100" stroke-width="3.9482" stroke-linecap="round" stroke-linejoin="round" stroke-miterlimit="10" points="
					78.436,41.762 77.961,38.741 79.706,35.717 76.216,35.717 72.726,35.717 74.471,38.741 				"/>
			</g>
			
				<path fill="#FFCF04" stroke="#000100" stroke-width="2.4296" stroke-linecap="round" stroke-linejoin="round" stroke-miterlimit="10" d="
				M59.175-6.244c4.861-12.369,3.461-20.763,13.596-20.763c10.135,0,8.735,8.395,13.596,20.763c3.33,8.472,25.213,31.146,0,43.505
				c-8.899,3.708-13.596,2.72-13.596,2.72s-4.696,0.988-13.596-2.72C33.961,24.902,55.845,2.229,59.175-6.244z"/>
			
				<path fill="none" stroke="#000100" stroke-width="1.8222" stroke-linecap="round" stroke-linejoin="round" stroke-miterlimit="10" d="
				M59.794,28.563c0,0-6.36-8.269,2.349-20.398"/>
		</g>
		<g clip-path="url(#SVGID_2_)">
			
				<path fill="#7F4F25" stroke="#000100" stroke-width="2.4296" stroke-linecap="round" stroke-linejoin="round" stroke-miterlimit="10" d="
				M68.042,68.239l7.165,0.003l-0.758,18.199H74.39c0.003,0.154-0.02,0.307-0.07,0.457c-0.271,0.808-1.233,1.213-2.149,0.906
				c-0.673-0.226-1.132-0.772-1.222-1.367l-0.043-0.001L68.042,68.239z"/>
			
				<ellipse fill="#422778" stroke="#000100" stroke-width="2.4296" stroke-linecap="round" stroke-linejoin="round" stroke-miterlimit="10" cx="66.771" cy="111.918" rx="19.771" ry="29.844"/>
			
				<path fill="#422778" stroke="#000100" stroke-width="2.4296" stroke-linecap="round" stroke-linejoin="round" stroke-miterlimit="10" d="
				M86.439,111.918c0-13.295-5.761-24.559-13.72-28.418c1.908-0.923,3.942-1.426,6.052-1.426c10.92,0,19.771,13.361,19.771,29.844
				s-8.852,29.844-19.771,29.844c-2.11,0-4.144-0.501-6.052-1.426C80.678,136.477,86.439,125.214,86.439,111.918z"/>
		</g>
		<g clip-path="url(#SVGID_2_)">
			
				<path fill="#7F4F25" stroke="#000100" stroke-width="2.4296" stroke-linecap="round" stroke-linejoin="round" stroke-miterlimit="10" d="
				M69.127,180.895l7.166,0.004l-0.757,18.199h-0.059c0.002,0.153-0.021,0.307-0.072,0.458c-0.27,0.808-1.232,1.212-2.148,0.905
				c-0.673-0.226-1.132-0.772-1.222-1.367l-0.043-0.001L69.127,180.895z"/>
			
				<path fill="#FFCF04" stroke="#000100" stroke-width="2.4296" stroke-linecap="round" stroke-linejoin="round" stroke-miterlimit="10" d="
				M59.175,213.756c4.861-12.369,3.461-20.763,13.596-20.763c10.135,0,8.735,8.395,13.596,20.763c3.33,8.472,25.213,31.146,0,43.505
				c-8.899,3.708-13.596,2.72-13.596,2.72s-4.696,0.988-13.596-2.72C33.961,244.902,55.845,222.229,59.175,213.756z"/>
		</g>
		<g clip-path="url(#SVGID_2_)">
			
				<path fill="#7F4F25" stroke="#000100" stroke-width="2.4296" stroke-linecap="round" stroke-linejoin="round" stroke-miterlimit="10" d="
				M-5.852,178.239l7.165,0.003l-0.758,18.199H0.498c0.002,0.154-0.021,0.307-0.071,0.457c-0.271,0.808-1.232,1.213-2.148,0.906
				c-0.673-0.226-1.132-0.772-1.222-1.367l-0.043-0.001L-5.852,178.239z"/>
			
				<ellipse fill="#422778" stroke="#000100" stroke-width="2.4296" stroke-linecap="round" stroke-linejoin="round" stroke-miterlimit="10" cx="-7.122" cy="221.918" rx="19.771" ry="29.844"/>
			
				<path fill="#422778" stroke="#000100" stroke-width="2.4296" stroke-linecap="round" stroke-linejoin="round" stroke-miterlimit="10" d="
				M12.546,221.918c0-13.295-5.761-24.559-13.72-28.418c1.908-0.923,3.941-1.426,6.052-1.426c10.92,0,19.771,13.361,19.771,29.844
				s-8.852,29.844-19.771,29.844c-2.111,0-4.144-0.501-6.052-1.426C6.786,246.477,12.546,235.214,12.546,221.918z"/>
		</g>
		<g clip-path="url(#SVGID_2_)">
			
				<path fill="#7F4F25" stroke="#000100" stroke-width="2.4296" stroke-linecap="round" stroke-linejoin="round" stroke-miterlimit="10" d="
				M-2.33,63.675l7.166,0.006L4.078,81.878H4.019c0.002,0.155-0.021,0.307-0.071,0.457c-0.271,0.809-1.233,1.213-2.149,0.906
				c-0.673-0.226-1.132-0.773-1.222-1.367l-0.043-0.002L-2.33,63.675z"/>
			<g>
				
					<polygon fill="#683C14" stroke="#000100" stroke-width="3.9482" stroke-linecap="round" stroke-linejoin="round" stroke-miterlimit="10" points="
					-4.441,144.542 -0.476,141.521 1.268,138.498 -2.222,138.498 -5.711,138.498 -3.966,141.521 				"/>
				
					<polygon fill="#683C14" stroke="#000100" stroke-width="3.9482" stroke-linecap="round" stroke-linejoin="round" stroke-miterlimit="10" points="
					1.268,144.542 3.014,141.521 4.758,138.498 1.268,138.498 -2.222,138.498 -0.476,141.521 				"/>
				
					<polygon fill="#683C14" stroke="#000100" stroke-width="3.9482" stroke-linecap="round" stroke-linejoin="round" stroke-miterlimit="10" points="
					6.979,144.542 6.503,141.521 8.248,138.498 4.758,138.498 1.268,138.498 3.014,141.521 				"/>
			</g>
			
				<path fill="#FFCF04" stroke="#000100" stroke-width="2.4296" stroke-linecap="round" stroke-linejoin="round" stroke-miterlimit="10" d="
				M-12.283,96.536c4.862-12.367,3.461-20.764,13.596-20.764c10.135,0,8.735,8.396,13.596,20.764c3.33,8.473,25.213,31.147,0,43.506
				c-8.899,3.709-13.596,2.721-13.596,2.721s-4.697,0.988-13.596-2.721C-37.496,127.684-15.612,105.009-12.283,96.536z"/>
		</g>
		
			<circle clip-path="url(#SVGID_2_)" fill="#0073B3" stroke="#000000" stroke-width="1.2" stroke-miterlimit="10" cx="190" cy="55" r="7.5"/>
		
			<circle clip-path="url(#SVGID_2_)" fill="#0073B3" stroke="#000000" stroke-width="1.2" stroke-miterlimit="10" cx="190" cy="161" r="7.5"/>
		
			<circle clip-path="url(#SVGID_2_)" fill="#0073B3" stroke="#000000" stroke-width="1.2" stroke-miterlimit="10" cx="110" cy="161" r="7.5"/>
		
			<circle clip-path="url(#SVGID_2_)" fill="#0073B3" stroke="#000000" stroke-width="1.2" stroke-miterlimit="10" cx="110" cy="55" r="7.5"/>
		
			<circle clip-path="url(#SVGID_2_)" fill="#0073B3" stroke="#000000" stroke-width="1.2" stroke-miterlimit="10" cx="30" cy="55" r="7.5"/>
		
			<circle clip-path="url(#SVGID_2_)" fill="#0073B3" stroke="#000000" stroke-width="1.2" stroke-miterlimit="10" cx="30" cy="161" r="7.5"/>
	</g>
</g>
</svg>
