<?xml version="1.0" encoding="utf-8"?>
<!-- Generator: Adobe Illustrator 16.0.0, SVG Export Plug-In . SVG Version: 6.00 Build 0)  -->
<!DOCTYPE svg PUBLIC "-//W3C//DTD SVG 1.1//EN" "http://www.w3.org/Graphics/SVG/1.1/DTD/svg11.dtd">
<svg version="1.1" xmlns="http://www.w3.org/2000/svg" xmlns:xlink="http://www.w3.org/1999/xlink" x="0px" y="0px" width="220px"
	 height="220px" viewBox="0 0 220 220" enable-background="new 0 0 220 220" xml:space="preserve">
<g id="bg" display="none">
	<rect x="-1945.836" y="-681.787" display="inline" fill="#FFFFFF" width="3240.076" height="8444.104"/>
</g>
<g id="Layer_3" display="none">
</g>
<g id="Layer_1">
	<g>
		<defs>
			<rect id="SVGID_243_" x="0" width="220" height="220"/>
		</defs>
		<clipPath id="SVGID_2_">
			<use xlink:href="#SVGID_243_"  overflow="visible"/>
		</clipPath>
		<rect x="0" clip-path="url(#SVGID_2_)" fill="#57B3E6" width="220" height="220"/>
		<g clip-path="url(#SVGID_2_)">
			
				<ellipse fill="#422778" stroke="#000100" stroke-width="2.4296" stroke-linecap="round" stroke-linejoin="round" stroke-miterlimit="10" cx="7.123" cy="1.918" rx="19.771" ry="29.844"/>
			
				<path fill="#422778" stroke="#000100" stroke-width="2.4296" stroke-linecap="round" stroke-linejoin="round" stroke-miterlimit="10" d="
				M-12.546,1.918c0-13.295,5.761-24.559,13.72-28.418c-1.908-0.923-3.941-1.426-6.052-1.426c-10.92,0-19.771,13.361-19.771,29.844
				s8.852,29.844,19.771,29.844c2.111,0,4.144-0.501,6.052-1.426C-6.785,26.477-12.546,15.214-12.546,1.918z"/>
		</g>
		<g clip-path="url(#SVGID_2_)">
			<g>
				
					<polygon fill="#683C14" stroke="#000100" stroke-width="3.9482" stroke-linecap="round" stroke-linejoin="round" stroke-miterlimit="10" points="
					80.124,41.762 76.159,38.741 74.415,35.717 77.904,35.717 81.394,35.717 79.648,38.741 				"/>
				
					<polygon fill="#683C14" stroke="#000100" stroke-width="3.9482" stroke-linecap="round" stroke-linejoin="round" stroke-miterlimit="10" points="
					74.415,41.762 72.669,38.741 70.924,35.717 74.415,35.717 77.904,35.717 76.159,38.741 				"/>
				
					<polygon fill="#683C14" stroke="#000100" stroke-width="3.9482" stroke-linecap="round" stroke-linejoin="round" stroke-miterlimit="10" points="
					68.705,41.762 69.179,38.741 67.435,35.717 70.924,35.717 74.415,35.717 72.669,38.741 				"/>
			</g>
			
				<path fill="#FFCF04" stroke="#000100" stroke-width="2.4296" stroke-linecap="round" stroke-linejoin="round" stroke-miterlimit="10" d="
				M87.965-6.244c-4.861-12.369-3.461-20.763-13.596-20.763c-10.136,0-8.735,8.395-13.596,20.763
				c-3.331,8.472-25.213,31.146,0,43.505c8.899,3.708,13.596,2.72,13.596,2.72s4.696,0.988,13.596-2.72
				C113.179,24.902,91.295,2.229,87.965-6.244z"/>
			
				<path fill="none" stroke="#000100" stroke-width="1.8222" stroke-linecap="round" stroke-linejoin="round" stroke-miterlimit="10" d="
				M87.346,28.563c0,0,6.36-8.269-2.349-20.398"/>
		</g>
		<g clip-path="url(#SVGID_2_)">
			
				<path fill="#7F4F25" stroke="#000100" stroke-width="2.4296" stroke-linecap="round" stroke-linejoin="round" stroke-miterlimit="10" d="
				M79.099,68.239l-7.165,0.003l0.758,18.199h0.059c-0.003,0.154,0.02,0.307,0.07,0.457c0.271,0.808,1.233,1.213,2.149,0.906
				c0.673-0.226,1.132-0.772,1.222-1.367l0.043-0.001L79.099,68.239z"/>
			
				<ellipse fill="#422778" stroke="#000100" stroke-width="2.4296" stroke-linecap="round" stroke-linejoin="round" stroke-miterlimit="10" cx="80.37" cy="111.918" rx="19.771" ry="29.844"/>
			
				<path fill="#422778" stroke="#000100" stroke-width="2.4296" stroke-linecap="round" stroke-linejoin="round" stroke-miterlimit="10" d="
				M60.702,111.918c0-13.295,5.761-24.559,13.72-28.418c-1.908-0.923-3.942-1.426-6.052-1.426c-10.92,0-19.771,13.361-19.771,29.844
				s8.852,29.844,19.771,29.844c2.11,0,4.144-0.501,6.052-1.426C66.462,136.477,60.702,125.214,60.702,111.918z"/>
		</g>
		<g clip-path="url(#SVGID_2_)">
			
				<path fill="#7F4F25" stroke="#000100" stroke-width="2.4296" stroke-linecap="round" stroke-linejoin="round" stroke-miterlimit="10" d="
				M2.331,63.675l-7.166,0.006l0.758,18.197h0.059c-0.002,0.155,0.021,0.307,0.071,0.457c0.271,0.809,1.233,1.213,2.149,0.906
				c0.673-0.226,1.132-0.773,1.222-1.367l0.043-0.002L2.331,63.675z"/>
			<g>
				
					<polygon fill="#683C14" stroke="#000100" stroke-width="3.9482" stroke-linecap="round" stroke-linejoin="round" stroke-miterlimit="10" points="
					4.441,144.542 0.477,141.521 -1.268,138.498 2.223,138.498 5.712,138.498 3.967,141.521 				"/>
				
					<polygon fill="#683C14" stroke="#000100" stroke-width="3.9482" stroke-linecap="round" stroke-linejoin="round" stroke-miterlimit="10" points="
					-1.268,144.542 -3.013,141.521 -4.758,138.498 -1.268,138.498 2.223,138.498 0.477,141.521 				"/>
				
					<polygon fill="#683C14" stroke="#000100" stroke-width="3.9482" stroke-linecap="round" stroke-linejoin="round" stroke-miterlimit="10" points="
					-6.978,144.542 -6.503,141.521 -8.248,138.498 -4.758,138.498 -1.268,138.498 -3.013,141.521 				"/>
			</g>
			
				<path fill="#FFCF04" stroke="#000100" stroke-width="2.4296" stroke-linecap="round" stroke-linejoin="round" stroke-miterlimit="10" d="
				M12.283,96.536C7.421,84.169,8.821,75.772-1.313,75.772c-10.136,0-8.735,8.396-13.596,20.764
				c-3.331,8.473-25.213,31.147,0,43.506c8.899,3.709,13.596,2.721,13.596,2.721s4.696,0.988,13.596-2.721
				C37.497,127.684,15.612,105.009,12.283,96.536z"/>
			
				<path fill="none" stroke="#000100" stroke-width="1.8222" stroke-linecap="round" stroke-linejoin="round" stroke-miterlimit="10" d="
				M11.664,131.343c0,0,6.36-8.27-2.349-20.398"/>
		</g>
		<g clip-path="url(#SVGID_2_)">
			
				<ellipse fill="#422778" stroke="#000100" stroke-width="2.4296" stroke-linecap="round" stroke-linejoin="round" stroke-miterlimit="10" cx="227.123" cy="1.918" rx="19.771" ry="29.844"/>
			
				<path fill="#422778" stroke="#000100" stroke-width="2.4296" stroke-linecap="round" stroke-linejoin="round" stroke-miterlimit="10" d="
				M207.454,1.918c0-13.295,5.761-24.559,13.72-28.418c-1.908-0.923-3.941-1.426-6.052-1.426c-10.92,0-19.771,13.361-19.771,29.844
				s8.852,29.844,19.771,29.844c2.111,0,4.144-0.501,6.052-1.426C213.215,26.477,207.454,15.214,207.454,1.918z"/>
		</g>
		<g clip-path="url(#SVGID_2_)">
			
				<path fill="#7F4F25" stroke="#000100" stroke-width="2.4296" stroke-linecap="round" stroke-linejoin="round" stroke-miterlimit="10" d="
				M5.852,178.239l-7.165,0.003l0.758,18.199h0.058c-0.002,0.154,0.021,0.307,0.07,0.457c0.271,0.808,1.233,1.213,2.149,0.906
				c0.673-0.226,1.132-0.772,1.222-1.367l0.042-0.001L5.852,178.239z"/>
			
				<ellipse fill="#422778" stroke="#000100" stroke-width="2.4296" stroke-linecap="round" stroke-linejoin="round" stroke-miterlimit="10" cx="7.123" cy="221.918" rx="19.771" ry="29.844"/>
			
				<path fill="#422778" stroke="#000100" stroke-width="2.4296" stroke-linecap="round" stroke-linejoin="round" stroke-miterlimit="10" d="
				M-12.546,221.918c0-13.295,5.761-24.559,13.72-28.418c-1.908-0.923-3.941-1.426-6.052-1.426
				c-10.92,0-19.771,13.361-19.771,29.844s8.852,29.844,19.771,29.844c2.111,0,4.144-0.501,6.052-1.426
				C-6.785,246.477-12.546,235.214-12.546,221.918z"/>
		</g>
		<g clip-path="url(#SVGID_2_)">
			
				<path fill="#7F4F25" stroke="#000100" stroke-width="2.4296" stroke-linecap="round" stroke-linejoin="round" stroke-miterlimit="10" d="
				M78.013,180.895l-7.166,0.004l0.757,18.199h0.059c-0.002,0.153,0.021,0.307,0.071,0.458c0.271,0.808,1.232,1.212,2.148,0.905
				c0.673-0.226,1.132-0.772,1.222-1.367l0.043-0.001L78.013,180.895z"/>
			
				<path fill="#FFCF04" stroke="#000100" stroke-width="2.4296" stroke-linecap="round" stroke-linejoin="round" stroke-miterlimit="10" d="
				M87.965,213.756c-4.861-12.369-3.461-20.763-13.596-20.763c-10.136,0-8.735,8.395-13.596,20.763
				c-3.331,8.472-25.213,31.146,0,43.505c8.899,3.708,13.596,2.72,13.596,2.72s4.696,0.988,13.596-2.72
				C113.179,244.902,91.295,222.229,87.965,213.756z"/>
		</g>
		<g clip-path="url(#SVGID_2_)">
			<g>
				
					<polygon fill="#683C14" stroke="#000100" stroke-width="3.9482" stroke-linecap="round" stroke-linejoin="round" stroke-miterlimit="10" points="
					152.983,41.762 149.019,38.741 147.274,35.717 150.765,35.717 154.254,35.717 152.508,38.741 				"/>
				
					<polygon fill="#683C14" stroke="#000100" stroke-width="3.9482" stroke-linecap="round" stroke-linejoin="round" stroke-miterlimit="10" points="
					147.274,41.762 145.529,38.741 143.784,35.717 147.274,35.717 150.765,35.717 149.019,38.741 				"/>
				
					<polygon fill="#683C14" stroke="#000100" stroke-width="3.9482" stroke-linecap="round" stroke-linejoin="round" stroke-miterlimit="10" points="
					141.564,41.762 142.039,38.741 140.295,35.717 143.784,35.717 147.274,35.717 145.529,38.741 				"/>
			</g>
			
				<path fill="#FFCF04" stroke="#000100" stroke-width="2.4296" stroke-linecap="round" stroke-linejoin="round" stroke-miterlimit="10" d="
				M160.825-6.244c-4.861-12.369-3.461-20.763-13.596-20.763c-10.136,0-8.735,8.395-13.596,20.763
				c-3.331,8.472-25.213,31.146,0,43.505c8.899,3.708,13.596,2.72,13.596,2.72s4.696,0.988,13.596-2.72
				C186.039,24.902,164.155,2.229,160.825-6.244z"/>
			
				<path fill="none" stroke="#000100" stroke-width="1.8222" stroke-linecap="round" stroke-linejoin="round" stroke-miterlimit="10" d="
				M160.206,28.563c0,0,6.36-8.269-2.349-20.398"/>
		</g>
		<g clip-path="url(#SVGID_2_)">
			
				<path fill="#7F4F25" stroke="#000100" stroke-width="2.4296" stroke-linecap="round" stroke-linejoin="round" stroke-miterlimit="10" d="
				M150.873,180.895l-7.166,0.004l0.757,18.199h0.059c-0.002,0.153,0.021,0.307,0.071,0.458c0.271,0.808,1.232,1.212,2.148,0.905
				c0.673-0.226,1.132-0.772,1.222-1.367l0.043-0.001L150.873,180.895z"/>
			
				<path fill="#FFCF04" stroke="#000100" stroke-width="2.4296" stroke-linecap="round" stroke-linejoin="round" stroke-miterlimit="10" d="
				M160.825,213.756c-4.861-12.369-3.461-20.763-13.596-20.763c-10.136,0-8.735,8.395-13.596,20.763
				c-3.331,8.472-25.213,31.146,0,43.505c8.899,3.708,13.596,2.72,13.596,2.72s4.696,0.988,13.596-2.72
				C186.039,244.902,164.155,222.229,160.825,213.756z"/>
		</g>
		<g clip-path="url(#SVGID_2_)">
			
				<path fill="#7F4F25" stroke="#000100" stroke-width="2.4296" stroke-linecap="round" stroke-linejoin="round" stroke-miterlimit="10" d="
				M225.852,178.239l-7.165,0.003l0.758,18.199h0.058c-0.002,0.154,0.021,0.307,0.071,0.457c0.271,0.808,1.233,1.213,2.149,0.906
				c0.673-0.226,1.132-0.772,1.222-1.367l0.042-0.001L225.852,178.239z"/>
			
				<ellipse fill="#422778" stroke="#000100" stroke-width="2.4296" stroke-linecap="round" stroke-linejoin="round" stroke-miterlimit="10" cx="227.123" cy="221.918" rx="19.771" ry="29.844"/>
			
				<path fill="#422778" stroke="#000100" stroke-width="2.4296" stroke-linecap="round" stroke-linejoin="round" stroke-miterlimit="10" d="
				M207.454,221.918c0-13.295,5.761-24.559,13.72-28.418c-1.908-0.923-3.941-1.426-6.052-1.426
				c-10.92,0-19.771,13.361-19.771,29.844s8.852,29.844,19.771,29.844c2.111,0,4.144-0.501,6.052-1.426
				C213.215,246.477,207.454,235.214,207.454,221.918z"/>
		</g>
		<g clip-path="url(#SVGID_2_)">
			
				<path fill="#7F4F25" stroke="#000100" stroke-width="2.4296" stroke-linecap="round" stroke-linejoin="round" stroke-miterlimit="10" d="
				M222.331,63.675l-7.166,0.006l0.758,18.197h0.059c-0.002,0.155,0.021,0.307,0.071,0.457c0.271,0.809,1.233,1.213,2.149,0.906
				c0.673-0.226,1.132-0.773,1.222-1.367l0.043-0.002L222.331,63.675z"/>
			<g>
				
					<polygon fill="#683C14" stroke="#000100" stroke-width="3.9482" stroke-linecap="round" stroke-linejoin="round" stroke-miterlimit="10" points="
					224.441,144.542 220.477,141.521 218.732,138.498 222.223,138.498 225.712,138.498 223.967,141.521 				"/>
				
					<polygon fill="#683C14" stroke="#000100" stroke-width="3.9482" stroke-linecap="round" stroke-linejoin="round" stroke-miterlimit="10" points="
					218.732,144.542 216.987,141.521 215.242,138.498 218.732,138.498 222.223,138.498 220.477,141.521 				"/>
				
					<polygon fill="#683C14" stroke="#000100" stroke-width="3.9482" stroke-linecap="round" stroke-linejoin="round" stroke-miterlimit="10" points="
					213.022,144.542 213.497,141.521 211.752,138.498 215.242,138.498 218.732,138.498 216.987,141.521 				"/>
			</g>
			
				<path fill="#FFCF04" stroke="#000100" stroke-width="2.4296" stroke-linecap="round" stroke-linejoin="round" stroke-miterlimit="10" d="
				M232.283,96.536c-4.861-12.367-3.461-20.764-13.596-20.764c-10.136,0-8.735,8.396-13.596,20.764
				c-3.331,8.473-25.213,31.147,0,43.506c8.899,3.709,13.596,2.721,13.596,2.721s4.696,0.988,13.596-2.721
				C257.497,127.684,235.612,105.009,232.283,96.536z"/>
		</g>
		<g clip-path="url(#SVGID_2_)">
			
				<path fill="#7F4F25" stroke="#000100" stroke-width="2.4296" stroke-linecap="round" stroke-linejoin="round" stroke-miterlimit="10" d="
				M151.575,63.675l-7.166,0.006l0.758,18.197h0.059c-0.002,0.155,0.021,0.307,0.071,0.457c0.271,0.809,1.233,1.213,2.149,0.906
				c0.673-0.226,1.132-0.773,1.222-1.367l0.043-0.002L151.575,63.675z"/>
			<g>
				
					<polygon fill="#683C14" stroke="#000100" stroke-width="3.9482" stroke-linecap="round" stroke-linejoin="round" stroke-miterlimit="10" points="
					153.686,144.542 149.721,141.521 147.977,138.498 151.467,138.498 154.956,138.498 153.211,141.521 				"/>
				
					<polygon fill="#683C14" stroke="#000100" stroke-width="3.9482" stroke-linecap="round" stroke-linejoin="round" stroke-miterlimit="10" points="
					147.977,144.542 146.231,141.521 144.486,138.498 147.977,138.498 151.467,138.498 149.721,141.521 				"/>
				
					<polygon fill="#683C14" stroke="#000100" stroke-width="3.9482" stroke-linecap="round" stroke-linejoin="round" stroke-miterlimit="10" points="
					142.266,144.542 142.741,141.521 140.997,138.498 144.486,138.498 147.977,138.498 146.231,141.521 				"/>
			</g>
			
				<path fill="#FFCF04" stroke="#000100" stroke-width="2.4296" stroke-linecap="round" stroke-linejoin="round" stroke-miterlimit="10" d="
				M161.527,96.536c-4.861-12.367-3.461-20.764-13.596-20.764c-10.135,0-8.735,8.396-13.596,20.764
				c-3.33,8.473-25.213,31.147,0,43.506c8.899,3.709,13.596,2.721,13.596,2.721s4.697,0.988,13.596-2.721
				C186.741,127.684,164.857,105.009,161.527,96.536z"/>
			
				<path fill="none" stroke="#000100" stroke-width="1.8222" stroke-linecap="round" stroke-linejoin="round" stroke-miterlimit="10" d="
				M160.908,131.343c0,0,6.36-8.27-2.349-20.398"/>
		</g>
		
			<circle clip-path="url(#SVGID_2_)" fill="none" stroke="#000000" stroke-width="1.2" stroke-miterlimit="10" cx="30.001" cy="55" r="7.5"/>
		
			<circle clip-path="url(#SVGID_2_)" fill="none" stroke="#000000" stroke-width="1.2" stroke-miterlimit="10" cx="30.001" cy="161" r="7.5"/>
		
			<circle clip-path="url(#SVGID_2_)" fill="none" stroke="#000000" stroke-width="1.2" stroke-miterlimit="10" cx="110" cy="161" r="7.5"/>
		
			<circle clip-path="url(#SVGID_2_)" fill="none" stroke="#000000" stroke-width="1.2" stroke-miterlimit="10" cx="110" cy="55" r="7.5"/>
		
			<circle clip-path="url(#SVGID_2_)" fill="none" stroke="#000000" stroke-width="1.2" stroke-miterlimit="10" cx="190.001" cy="55" r="7.5"/>
		
			<circle clip-path="url(#SVGID_2_)" fill="none" stroke="#000000" stroke-width="1.2" stroke-miterlimit="10" cx="190.001" cy="161" r="7.5"/>
	</g>
</g>
</svg>
