<?xml version="1.0" encoding="utf-8"?>
<!-- Generator: Adobe Illustrator 16.0.0, SVG Export Plug-In . SVG Version: 6.00 Build 0)  -->
<!DOCTYPE svg PUBLIC "-//W3C//DTD SVG 1.1//EN" "http://www.w3.org/Graphics/SVG/1.1/DTD/svg11.dtd">
<svg version="1.1" xmlns="http://www.w3.org/2000/svg" xmlns:xlink="http://www.w3.org/1999/xlink" x="0px" y="0px"
	 width="220.001px" height="220px" viewBox="0 0 220.001 220" enable-background="new 0 0 220.001 220" xml:space="preserve">
<g id="bg">
	<g>
		<g>
			<rect fill="#B7D6C4" width="220.001" height="220"/>
		</g>
	</g>
</g>
<g id="Layer_1">
	<g>
		
			<line fill="#FFD009" stroke="#010202" stroke-width="2" stroke-linecap="round" stroke-linejoin="round" stroke-miterlimit="10" x1="109.097" y1="159.947" x2="109.097" y2="208.787"/>
		<g>
			
				<path fill="#CB78A6" stroke="#010202" stroke-width="2" stroke-linecap="round" stroke-linejoin="round" stroke-miterlimit="10" d="
				M124.733,148.832c5.221-2.087,8.369-6.927,7.182-11.463c-1.26-4.807-6.934-7.521-12.887-6.294
				c-0.371-5.61-4.002-10.101-8.682-10.371c-4.961-0.288-9.297,4.27-9.969,10.312c-5.451-1.382-10.842,0.684-12.547,5.051
				c-1.807,4.63,1.188,10.161,6.727,12.668c-2.998,4.757-2.701,10.522,0.926,13.493c3.846,3.149,10.031,2.011,14.127-2.482
				c3.598,4.321,9.174,5.819,13.119,3.288C126.913,160.35,127.741,154.114,124.733,148.832z"/>
			
				<path fill="#81368B" stroke="#010202" stroke-width="2" stroke-linecap="round" stroke-linejoin="round" stroke-miterlimit="10" d="
				M118.921,146.806c3.164-1.265,5.074-4.199,4.354-6.949c-0.764-2.915-4.203-4.56-7.813-3.815
				c-0.227-3.402-2.426-6.123-5.264-6.288c-3.008-0.175-5.637,2.589-6.045,6.251c-3.305-0.838-6.572,0.415-7.605,3.063
				c-1.096,2.807,0.721,6.16,4.078,7.68c-1.818,2.885-1.637,6.38,0.561,8.182c2.332,1.908,6.082,1.219,8.564-1.506
				c2.182,2.62,5.563,3.528,7.955,1.993C120.241,153.789,120.743,150.008,118.921,146.806z"/>
			
				<circle fill="#EFE343" stroke="#010202" stroke-width="2" stroke-linecap="round" stroke-linejoin="round" stroke-miterlimit="10" cx="109.881" cy="143.842" r="5.125"/>
		</g>
		
			<path fill="#3BAA35" stroke="#010202" stroke-width="2" stroke-linecap="round" stroke-linejoin="round" stroke-miterlimit="10" d="
			M109.065,209.665c0,0-6.383-4.452-10.301-11.998s-3.885-15.328-3.885-15.328s6.381,4.452,10.299,11.999
			C109.097,201.883,109.065,209.665,109.065,209.665z"/>
		
			<path fill="#3BAA35" stroke="#010202" stroke-width="2" stroke-linecap="round" stroke-linejoin="round" stroke-miterlimit="10" d="
			M123.315,182.339c0,0-6.383,4.452-10.301,11.998s-3.885,15.328-3.885,15.328s6.381-4.452,10.299-11.999
			C123.347,190.121,123.315,182.339,123.315,182.339z"/>
	</g>
	<g>
		<g>
			
				<path fill="#2A3180" stroke="#010202" stroke-width="2" stroke-linecap="round" stroke-linejoin="round" stroke-miterlimit="10" d="
				M53.544,174.939c0,0-5.932-6.773-5.572-14.784s6.875-14.227,6.875-14.227s5.932,6.773,5.572,14.784
				C60.06,168.725,53.544,174.939,53.544,174.939z"/>
			
				<line fill="#FFD009" stroke="#010202" stroke-width="2" stroke-linecap="round" stroke-linejoin="round" stroke-miterlimit="10" x1="54.839" y1="174.287" x2="54.839" y2="208.127"/>
			
				<path fill="#0574B4" stroke="#010202" stroke-width="2" stroke-linecap="round" stroke-linejoin="round" stroke-miterlimit="10" d="
				M53.944,175.131c0,0-8.523-2.9-12.217-10.018c-3.695-7.117-1.16-15.758-1.16-15.758s8.523,2.9,12.217,10.018
				C56.479,166.49,53.944,175.131,53.944,175.131z"/>
			
				<path fill="#0574B4" stroke="#010202" stroke-width="2" stroke-linecap="round" stroke-linejoin="round" stroke-miterlimit="10" d="
				M53.694,174.765c0,0-1.752-8.832,2.564-15.59c4.318-6.759,13.066-8.884,13.066-8.884s1.752,8.832-2.566,15.59
				C62.444,172.64,53.694,174.765,53.694,174.765z"/>
			
				<path fill="#57B2E5" stroke="#010202" stroke-width="2" stroke-linecap="round" stroke-linejoin="round" stroke-miterlimit="10" d="
				M53.911,174.688c0,0,2.898-8.523,10.016-12.219c7.117-3.693,15.758-1.16,15.758-1.16s-2.9,8.525-10.018,12.219
				C62.552,177.223,53.911,174.688,53.911,174.688z"/>
			
				<path fill="#57B2E5" stroke="#010202" stroke-width="2" stroke-linecap="round" stroke-linejoin="round" stroke-miterlimit="10" d="
				M53.944,175.131c0,0-8.83,1.75-15.59-2.566c-6.758-4.316-8.883-13.066-8.883-13.066s8.832-1.75,15.59,2.566
				C51.821,166.381,53.944,175.131,53.944,175.131z"/>
		</g>
		
			<path fill="#3BAA35" stroke="#010202" stroke-width="2" stroke-linecap="round" stroke-linejoin="round" stroke-miterlimit="10" d="
			M54.854,209.665c0,0-6.383-4.452-10.299-11.998c-3.918-7.546-3.887-15.328-3.887-15.328s6.383,4.452,10.301,11.999
			C54.886,201.883,54.854,209.665,54.854,209.665z"/>
		
			<path fill="#3BAA35" stroke="#010202" stroke-width="2" stroke-linecap="round" stroke-linejoin="round" stroke-miterlimit="10" d="
			M69.104,182.339c0,0-6.383,4.452-10.299,11.998c-3.918,7.546-3.887,15.328-3.887,15.328s6.383-4.452,10.301-11.999
			C69.136,190.121,69.104,182.339,69.104,182.339z"/>
	</g>
	<g>
		<g>
			
				<path fill="#2A3180" stroke="#010202" stroke-width="2" stroke-linecap="round" stroke-linejoin="round" stroke-miterlimit="10" d="
				M163.859,174.939c0,0-5.932-6.773-5.572-14.784s6.875-14.227,6.875-14.227s5.932,6.773,5.572,14.784
				C170.375,168.725,163.859,174.939,163.859,174.939z"/>
			
				<line fill="#FFD009" stroke="#010202" stroke-width="2" stroke-linecap="round" stroke-linejoin="round" stroke-miterlimit="10" x1="165.154" y1="174.287" x2="165.154" y2="208.127"/>
			
				<path fill="#0574B4" stroke="#010202" stroke-width="2" stroke-linecap="round" stroke-linejoin="round" stroke-miterlimit="10" d="
				M164.26,175.131c0,0-8.523-2.9-12.217-10.018c-3.695-7.117-1.16-15.758-1.16-15.758s8.523,2.9,12.217,10.018
				C166.795,166.49,164.26,175.131,164.26,175.131z"/>
			
				<path fill="#0574B4" stroke="#010202" stroke-width="2" stroke-linecap="round" stroke-linejoin="round" stroke-miterlimit="10" d="
				M164.01,174.765c0,0-1.752-8.832,2.564-15.59c4.318-6.759,13.066-8.884,13.066-8.884s1.752,8.832-2.566,15.59
				C172.76,172.64,164.01,174.765,164.01,174.765z"/>
			
				<path fill="#57B2E5" stroke="#010202" stroke-width="2" stroke-linecap="round" stroke-linejoin="round" stroke-miterlimit="10" d="
				M164.227,174.688c0,0,2.898-8.523,10.016-12.219c7.117-3.693,15.758-1.16,15.758-1.16s-2.9,8.525-10.018,12.219
				C172.867,177.223,164.227,174.688,164.227,174.688z"/>
			
				<path fill="#57B2E5" stroke="#010202" stroke-width="2" stroke-linecap="round" stroke-linejoin="round" stroke-miterlimit="10" d="
				M164.26,175.131c0,0-8.83,1.75-15.59-2.566c-6.758-4.316-8.883-13.066-8.883-13.066s8.832-1.75,15.59,2.566
				C162.137,166.381,164.26,175.131,164.26,175.131z"/>
		</g>
		
			<path fill="#3BAA35" stroke="#010202" stroke-width="2" stroke-linecap="round" stroke-linejoin="round" stroke-miterlimit="10" d="
			M165.17,209.665c0,0-6.383-4.452-10.299-11.998c-3.918-7.546-3.887-15.328-3.887-15.328s6.383,4.452,10.301,11.999
			C165.201,201.883,165.17,209.665,165.17,209.665z"/>
		
			<path fill="#3BAA35" stroke="#010202" stroke-width="2" stroke-linecap="round" stroke-linejoin="round" stroke-miterlimit="10" d="
			M179.42,182.339c0,0-6.383,4.452-10.299,11.998c-3.918,7.546-3.887,15.328-3.887,15.328s6.383-4.452,10.301-11.999
			C179.451,190.121,179.42,182.339,179.42,182.339z"/>
	</g>
	<g>
		
			<line fill="#2A3180" stroke="#010202" stroke-width="2" stroke-linecap="round" stroke-linejoin="round" stroke-miterlimit="10" x1="-0.331" y1="160.357" x2="-0.331" y2="209.197"/>
		
			<path fill="#2A3180" stroke="#010202" stroke-width="2" stroke-linecap="round" stroke-linejoin="round" stroke-miterlimit="10" d="
			M4.853,135.139l-4.774-8.393l-4.824,8.347l-8.779-8.405c0,0-0.084,18.24-0.093,19.957c-0.033,7.225,5.465,13.162,12.549,13.713
			l2.37-0.014c6.92-0.65,12.292-6.468,12.325-13.572c0.008-1.716,0.092-19.957,0.092-19.957L4.853,135.139z"/>
	</g>
	
		<path fill="#3BAA35" stroke="#010202" stroke-width="2" stroke-linecap="round" stroke-linejoin="round" stroke-miterlimit="10" d="
		M-0.69,209.665c0,0-6.383-4.452-10.3-11.998c-3.918-7.546-3.886-15.328-3.886-15.328s6.382,4.452,10.3,11.999
		C-0.659,201.883-0.69,209.665-0.69,209.665z"/>
	
		<path fill="#3BAA35" stroke="#010202" stroke-width="2" stroke-linecap="round" stroke-linejoin="round" stroke-miterlimit="10" d="
		M13.56,182.339c0,0-6.383,4.452-10.3,11.998c-3.918,7.546-3.886,15.328-3.886,15.328s6.382-4.452,10.3-11.999
		C13.591,190.121,13.56,182.339,13.56,182.339z"/>
	<g>
		
			<line fill="#2A3180" stroke="#010202" stroke-width="2" stroke-linecap="round" stroke-linejoin="round" stroke-miterlimit="10" x1="220.299" y1="160.357" x2="220.299" y2="209.197"/>
		
			<path fill="#2A3180" stroke="#010202" stroke-width="2" stroke-linecap="round" stroke-linejoin="round" stroke-miterlimit="10" d="
			M225.482,135.139l-4.774-8.393l-4.824,8.347l-8.779-8.405c0,0-0.084,18.24-0.093,19.957c-0.033,7.225,5.465,13.162,12.549,13.713
			l2.37-0.014c6.92-0.65,12.292-6.468,12.325-13.572c0.008-1.716,0.092-19.957,0.092-19.957L225.482,135.139z"/>
	</g>
	
		<path fill="#3BAA35" stroke="#010202" stroke-width="2" stroke-linecap="round" stroke-linejoin="round" stroke-miterlimit="10" d="
		M219.939,209.665c0,0-6.383-4.452-10.3-11.998c-3.918-7.546-3.886-15.328-3.886-15.328s6.382,4.452,10.3,11.999
		C219.971,201.883,219.939,209.665,219.939,209.665z"/>
	
		<path fill="#3BAA35" stroke="#010202" stroke-width="2" stroke-linecap="round" stroke-linejoin="round" stroke-miterlimit="10" d="
		M234.189,182.339c0,0-6.383,4.452-10.3,11.998c-3.918,7.546-3.886,15.328-3.886,15.328s6.382-4.452,10.3-11.999
		C234.221,190.121,234.189,182.339,234.189,182.339z"/>
	
		<rect x="8.014" y="200.792" transform="matrix(0.7071 0.7071 -0.7071 0.7071 163.7717 45.0867)" fill="none" stroke="#010202" stroke-width="2" stroke-linecap="round" stroke-linejoin="round" stroke-miterlimit="10" width="38.892" height="38.892"/>
	
		<rect x="63.014" y="200.792" transform="matrix(0.7071 0.7071 -0.7071 0.7071 179.8801 6.1966)" fill="none" stroke="#010202" stroke-width="2" stroke-linecap="round" stroke-linejoin="round" stroke-miterlimit="10" width="38.892" height="38.892"/>
	
		<rect x="118.014" y="200.792" transform="matrix(0.7071 0.7071 -0.7071 0.7071 195.9886 -32.6936)" fill="none" stroke="#010202" stroke-width="2" stroke-linecap="round" stroke-linejoin="round" stroke-miterlimit="10" width="38.892" height="38.892"/>
	
		<rect x="154.465" y="98.243" transform="matrix(0.7071 0.7071 -0.7071 0.7071 126.699 -85.4152)" fill="none" stroke="#010202" stroke-width="2" stroke-linecap="round" stroke-linejoin="round" stroke-miterlimit="10" width="23.988" height="23.989"/>
	
		<rect x="43.111" y="98.243" transform="matrix(0.7071 0.7071 -0.7071 0.7071 94.0865 -6.6787)" fill="none" stroke="#010202" stroke-width="2" stroke-linecap="round" stroke-linejoin="round" stroke-miterlimit="10" width="23.988" height="23.989"/>
	
		<rect x="173.014" y="200.792" transform="matrix(0.7071 0.7071 -0.7071 0.7071 212.097 -71.5838)" fill="none" stroke="#010202" stroke-width="2" stroke-linecap="round" stroke-linejoin="round" stroke-miterlimit="10" width="38.892" height="38.892"/>
	<g>
		
			<line fill="#FFD009" stroke="#010202" stroke-width="2" stroke-linecap="round" stroke-linejoin="round" stroke-miterlimit="10" x1="110.374" y1="60.437" x2="110.374" y2="11.597"/>
		<g>
			
				<path fill="#CB78A6" stroke="#010202" stroke-width="2" stroke-linecap="round" stroke-linejoin="round" stroke-miterlimit="10" d="
				M94.737,71.552c-5.221,2.086-8.369,6.926-7.182,11.463c1.26,4.807,6.934,7.521,12.887,6.293
				c0.371,5.611,4.002,10.102,8.682,10.371c4.961,0.289,9.297-4.27,9.969-10.311c5.451,1.381,10.842-0.684,12.547-5.051
				c1.807-4.631-1.188-10.162-6.727-12.668c2.998-4.758,2.701-10.523-0.926-13.494c-3.846-3.148-10.031-2.01-14.127,2.482
				c-3.598-4.32-9.174-5.818-13.119-3.287C92.558,60.034,91.729,66.269,94.737,71.552z"/>
			
				<path fill="#81368B" stroke="#010202" stroke-width="2" stroke-linecap="round" stroke-linejoin="round" stroke-miterlimit="10" d="
				M100.55,73.577c-3.164,1.266-5.074,4.199-4.354,6.949c0.764,2.916,4.203,4.561,7.813,3.816c0.227,3.402,2.426,6.123,5.264,6.287
				c3.008,0.176,5.637-2.588,6.045-6.25c3.305,0.838,6.572-0.416,7.605-3.063c1.096-2.807-0.721-6.16-4.078-7.68
				c1.818-2.885,1.637-6.381-0.561-8.182c-2.332-1.908-6.082-1.219-8.564,1.506c-2.182-2.621-5.563-3.529-7.955-1.994
				C99.229,66.595,98.728,70.376,100.55,73.577z"/>
			
				<circle fill="#EFE343" stroke="#010202" stroke-width="2" stroke-linecap="round" stroke-linejoin="round" stroke-miterlimit="10" cx="109.59" cy="76.541" r="5.125"/>
		</g>
		
			<path fill="#3BAA35" stroke="#010202" stroke-width="2" stroke-linecap="round" stroke-linejoin="round" stroke-miterlimit="10" d="
			M110.405,10.718c0,0,6.383,4.453,10.301,11.998c3.918,7.547,3.885,15.328,3.885,15.328s-6.381-4.451-10.299-11.998
			C110.374,18.501,110.405,10.718,110.405,10.718z"/>
		
			<path fill="#3BAA35" stroke="#010202" stroke-width="2" stroke-linecap="round" stroke-linejoin="round" stroke-miterlimit="10" d="
			M96.155,38.044c0,0,6.383-4.451,10.301-11.998c3.918-7.545,3.885-15.328,3.885-15.328s-6.381,4.453-10.299,12
			C96.124,30.263,96.155,38.044,96.155,38.044z"/>
	</g>
	<g>
		<g>
			
				<path fill="#2A3180" stroke="#010202" stroke-width="2" stroke-linecap="round" stroke-linejoin="round" stroke-miterlimit="10" d="
				M165.927,45.444c0,0,5.933,6.773,5.573,14.783c-0.359,8.012-6.876,14.227-6.876,14.227s-5.932-6.773-5.572-14.783
				C159.411,51.659,165.927,45.444,165.927,45.444z"/>
			
				<line fill="#FFD009" stroke="#010202" stroke-width="2" stroke-linecap="round" stroke-linejoin="round" stroke-miterlimit="10" x1="164.632" y1="46.097" x2="164.632" y2="12.257"/>
			
				<path fill="#0574B4" stroke="#010202" stroke-width="2" stroke-linecap="round" stroke-linejoin="round" stroke-miterlimit="10" d="
				M165.526,45.253c0,0,8.524,2.9,12.218,10.018c3.695,7.117,1.16,15.758,1.16,15.758s-8.523-2.9-12.218-10.018
				C162.991,53.894,165.526,45.253,165.526,45.253z"/>
			
				<path fill="#0574B4" stroke="#010202" stroke-width="2" stroke-linecap="round" stroke-linejoin="round" stroke-miterlimit="10" d="
				M165.776,45.618c0,0,1.752,8.832-2.564,15.59c-4.318,6.76-13.066,8.885-13.066,8.885s-1.752-8.832,2.566-15.59
				C157.026,47.743,165.776,45.618,165.776,45.618z"/>
			
				<path fill="#57B2E5" stroke="#010202" stroke-width="2" stroke-linecap="round" stroke-linejoin="round" stroke-miterlimit="10" d="
				M165.56,45.696c0,0-2.898,8.523-10.016,12.219c-7.117,3.693-15.758,1.16-15.758,1.16s2.9-8.525,10.018-12.219
				C156.919,43.161,165.56,45.696,165.56,45.696z"/>
			
				<path fill="#57B2E5" stroke="#010202" stroke-width="2" stroke-linecap="round" stroke-linejoin="round" stroke-miterlimit="10" d="
				M165.526,45.253c0,0,8.831-1.75,15.591,2.566C187.875,52.136,190,60.886,190,60.886s-8.832,1.75-15.59-2.566
				C167.649,54.003,165.526,45.253,165.526,45.253z"/>
		</g>
		
			<path fill="#3BAA35" stroke="#010202" stroke-width="2" stroke-linecap="round" stroke-linejoin="round" stroke-miterlimit="10" d="
			M164.616,10.718c0,0,6.384,4.453,10.3,11.998c3.918,7.547,3.887,15.328,3.887,15.328s-6.383-4.451-10.301-11.998
			C164.585,18.501,164.616,10.718,164.616,10.718z"/>
		
			<path fill="#3BAA35" stroke="#010202" stroke-width="2" stroke-linecap="round" stroke-linejoin="round" stroke-miterlimit="10" d="
			M150.366,38.044c0,0,6.383-4.451,10.299-11.998c3.918-7.545,3.887-15.328,3.887-15.328s-6.383,4.453-10.301,12
			C150.335,30.263,150.366,38.044,150.366,38.044z"/>
	</g>
	<g>
		<g>
			
				<path fill="#2A3180" stroke="#010202" stroke-width="2" stroke-linecap="round" stroke-linejoin="round" stroke-miterlimit="10" d="
				M55.612,45.444c0,0,5.932,6.773,5.572,14.783c-0.359,8.012-6.875,14.227-6.875,14.227s-5.932-6.773-5.572-14.783
				C49.097,51.659,55.612,45.444,55.612,45.444z"/>
			
				<line fill="#FFD009" stroke="#010202" stroke-width="2" stroke-linecap="round" stroke-linejoin="round" stroke-miterlimit="10" x1="54.317" y1="46.097" x2="54.317" y2="12.257"/>
			
				<path fill="#0574B4" stroke="#010202" stroke-width="2" stroke-linecap="round" stroke-linejoin="round" stroke-miterlimit="10" d="
				M55.212,45.253c0,0,8.523,2.9,12.217,10.018c3.695,7.117,1.16,15.758,1.16,15.758s-8.523-2.9-12.217-10.018
				C52.677,53.894,55.212,45.253,55.212,45.253z"/>
			
				<path fill="#0574B4" stroke="#010202" stroke-width="2" stroke-linecap="round" stroke-linejoin="round" stroke-miterlimit="10" d="
				M55.462,45.618c0,0,1.752,8.832-2.564,15.59c-4.318,6.76-13.066,8.885-13.066,8.885s-1.752-8.832,2.566-15.59
				C46.712,47.743,55.462,45.618,55.462,45.618z"/>
			
				<path fill="#57B2E5" stroke="#010202" stroke-width="2" stroke-linecap="round" stroke-linejoin="round" stroke-miterlimit="10" d="
				M55.245,45.696c0,0-2.898,8.523-10.016,12.219c-7.117,3.693-15.758,1.16-15.758,1.16s2.9-8.525,10.018-12.219
				C46.604,43.161,55.245,45.696,55.245,45.696z"/>
			
				<path fill="#57B2E5" stroke="#010202" stroke-width="2" stroke-linecap="round" stroke-linejoin="round" stroke-miterlimit="10" d="
				M55.212,45.253c0,0,8.83-1.75,15.59,2.566c6.758,4.316,8.883,13.066,8.883,13.066s-8.832,1.75-15.59-2.566
				C57.335,54.003,55.212,45.253,55.212,45.253z"/>
		</g>
		
			<path fill="#3BAA35" stroke="#010202" stroke-width="2" stroke-linecap="round" stroke-linejoin="round" stroke-miterlimit="10" d="
			M54.302,10.718c0,0,6.383,4.453,10.299,11.998c3.918,7.547,3.887,15.328,3.887,15.328s-6.383-4.451-10.301-11.998
			C54.271,18.501,54.302,10.718,54.302,10.718z"/>
		
			<path fill="#3BAA35" stroke="#010202" stroke-width="2" stroke-linecap="round" stroke-linejoin="round" stroke-miterlimit="10" d="
			M40.052,38.044c0,0,6.383-4.451,10.299-11.998c3.918-7.545,3.887-15.328,3.887-15.328s-6.383,4.453-10.301,12
			C40.021,30.263,40.052,38.044,40.052,38.044z"/>
	</g>
	<g>
		
			<line fill="#2A3180" stroke="#010202" stroke-width="2" stroke-linecap="round" stroke-linejoin="round" stroke-miterlimit="10" x1="219.803" y1="60.026" x2="219.803" y2="11.187"/>
		
			<path fill="#2A3180" stroke="#010202" stroke-width="2" stroke-linecap="round" stroke-linejoin="round" stroke-miterlimit="10" d="
			M214.619,85.245l4.774,8.393l4.824-8.348l8.779,8.406c0,0,0.084-18.24,0.093-19.957c0.033-7.225-5.465-13.162-12.549-13.713
			l-2.37,0.014c-6.92,0.65-12.292,6.467-12.325,13.572c-0.008,1.715-0.092,19.957-0.092,19.957L214.619,85.245z"/>
	</g>
	
		<path fill="#3BAA35" stroke="#010202" stroke-width="2" stroke-linecap="round" stroke-linejoin="round" stroke-miterlimit="10" d="
		M220.162,10.718c0,0,6.383,4.453,10.3,11.998c3.918,7.547,3.886,15.328,3.886,15.328s-6.382-4.451-10.3-11.998
		C220.131,18.501,220.162,10.718,220.162,10.718z"/>
	
		<path fill="#3BAA35" stroke="#010202" stroke-width="2" stroke-linecap="round" stroke-linejoin="round" stroke-miterlimit="10" d="
		M205.912,38.044c0,0,6.383-4.451,10.3-11.998c3.918-7.545,3.886-15.328,3.886-15.328s-6.382,4.453-10.3,12
		C205.881,30.263,205.912,38.044,205.912,38.044z"/>
	<g>
		
			<line fill="#2A3180" stroke="#010202" stroke-width="2" stroke-linecap="round" stroke-linejoin="round" stroke-miterlimit="10" x1="-0.827" y1="60.026" x2="-0.827" y2="11.187"/>
		
			<path fill="#2A3180" stroke="#010202" stroke-width="2" stroke-linecap="round" stroke-linejoin="round" stroke-miterlimit="10" d="
			M-6.011,85.245l4.773,8.393l4.824-8.348l8.779,8.406c0,0,0.084-18.24,0.094-19.957c0.033-7.225-5.465-13.162-12.549-13.713
			L-2.46,60.04c-6.92,0.65-12.291,6.467-12.324,13.572c-0.008,1.715-0.092,19.957-0.092,19.957L-6.011,85.245z"/>
	</g>
	
		<path fill="#3BAA35" stroke="#010202" stroke-width="2" stroke-linecap="round" stroke-linejoin="round" stroke-miterlimit="10" d="
		M-0.468,10.718c0,0,6.383,4.453,10.299,11.998c3.918,7.547,3.887,15.328,3.887,15.328S7.335,33.593,3.417,26.046
		C-0.499,18.501-0.468,10.718-0.468,10.718z"/>
	
		<path fill="#3BAA35" stroke="#010202" stroke-width="2" stroke-linecap="round" stroke-linejoin="round" stroke-miterlimit="10" d="
		M-14.718,38.044c0,0,6.383-4.451,10.299-11.998c3.918-7.545,3.887-15.328,3.887-15.328s-6.383,4.453-10.301,12
		C-14.749,30.263-14.718,38.044-14.718,38.044z"/>
	
		<rect x="172.566" y="-19.3" transform="matrix(-0.7071 -0.7071 0.7071 -0.7071 327.684 136.0188)" fill="none" stroke="#010202" stroke-width="2" stroke-linecap="round" stroke-linejoin="round" stroke-miterlimit="10" width="38.892" height="38.892"/>
	
		<rect x="117.565" y="-19.301" transform="matrix(-0.7071 -0.7071 0.7071 -0.7071 233.7925 97.1262)" fill="none" stroke="#010202" stroke-width="2" stroke-linecap="round" stroke-linejoin="round" stroke-miterlimit="10" width="38.892" height="38.892"/>
	
		<rect x="62.565" y="-19.301" transform="matrix(-0.7071 -0.7071 0.7071 -0.7071 139.9003 58.2367)" fill="none" stroke="#010202" stroke-width="2" stroke-linecap="round" stroke-linejoin="round" stroke-miterlimit="10" width="38.892" height="38.892"/>
	
		<rect x="7.565" y="-19.301" transform="matrix(-0.7071 -0.7071 0.7071 -0.7071 46.008 19.3472)" fill="none" stroke="#010202" stroke-width="2" stroke-linecap="round" stroke-linejoin="round" stroke-miterlimit="10" width="38.892" height="38.892"/>
</g>
</svg>
