<?xml version="1.0" encoding="utf-8"?>
<!-- Generator: Adobe Illustrator 16.0.0, SVG Export Plug-In . SVG Version: 6.00 Build 0)  -->
<!DOCTYPE svg PUBLIC "-//W3C//DTD SVG 1.1//EN" "http://www.w3.org/Graphics/SVG/1.1/DTD/svg11.dtd">
<svg version="1.1" xmlns="http://www.w3.org/2000/svg" xmlns:xlink="http://www.w3.org/1999/xlink" x="0px" y="0px"
	 width="220.001px" height="220px" viewBox="0 0 220.001 220" enable-background="new 0 0 220.001 220" xml:space="preserve">
<g id="bg">
	<g>
		<g>
			<rect fill="#B7D6C4" width="220.001" height="220"/>
		</g>
	</g>
</g>
<g id="Layer_1">
	<g>
		
			<line fill="#FFD009" stroke="#010202" stroke-width="2" stroke-linecap="round" stroke-linejoin="round" stroke-miterlimit="10" x1="110.182" y1="159.947" x2="110.182" y2="208.787"/>
		<g>
			
				<path fill="#CB78A6" stroke="#010202" stroke-width="2" stroke-linecap="round" stroke-linejoin="round" stroke-miterlimit="10" d="
				M125.818,148.832c5.221-2.087,8.369-6.927,7.182-11.463c-1.26-4.807-6.934-7.521-12.887-6.294
				c-0.371-5.61-4.002-10.101-8.682-10.371c-4.961-0.288-9.297,4.27-9.969,10.312c-5.451-1.382-10.842,0.684-12.547,5.051
				c-1.807,4.63,1.188,10.161,6.727,12.668c-2.998,4.757-2.701,10.522,0.926,13.493c3.846,3.149,10.031,2.011,14.127-2.482
				c3.598,4.321,9.174,5.819,13.119,3.288C127.998,160.35,128.826,154.114,125.818,148.832z"/>
			
				<path fill="#81368B" stroke="#010202" stroke-width="2" stroke-linecap="round" stroke-linejoin="round" stroke-miterlimit="10" d="
				M120.006,146.806c3.164-1.265,5.074-4.199,4.354-6.949c-0.764-2.915-4.203-4.56-7.813-3.815
				c-0.227-3.402-2.426-6.123-5.264-6.288c-3.008-0.175-5.637,2.589-6.045,6.251c-3.305-0.838-6.572,0.415-7.605,3.063
				c-1.096,2.807,0.721,6.16,4.078,7.68c-1.818,2.885-1.637,6.38,0.561,8.182c2.332,1.908,6.082,1.219,8.564-1.506
				c2.182,2.62,5.563,3.528,7.955,1.993C121.326,153.789,121.828,150.008,120.006,146.806z"/>
			
				<circle fill="#EFE343" stroke="#010202" stroke-width="2" stroke-linecap="round" stroke-linejoin="round" stroke-miterlimit="10" cx="110.966" cy="143.842" r="5.125"/>
		</g>
		
			<path fill="#3BAA35" stroke="#010202" stroke-width="2" stroke-linecap="round" stroke-linejoin="round" stroke-miterlimit="10" d="
			M110.15,209.665c0,0-6.383-4.452-10.301-11.998s-3.885-15.328-3.885-15.328s6.381,4.452,10.299,11.999
			C110.182,201.883,110.15,209.665,110.15,209.665z"/>
		
			<path fill="#3BAA35" stroke="#010202" stroke-width="2" stroke-linecap="round" stroke-linejoin="round" stroke-miterlimit="10" d="
			M124.4,182.339c0,0-6.383,4.452-10.301,11.998s-3.885,15.328-3.885,15.328s6.381-4.452,10.299-11.999
			C124.432,190.121,124.4,182.339,124.4,182.339z"/>
	</g>
	<g>
		<g>
			
				<path fill="#2A3180" stroke="#010202" stroke-width="2" stroke-linecap="round" stroke-linejoin="round" stroke-miterlimit="10" d="
				M54.629,174.939c0,0-5.932-6.773-5.572-14.784s6.875-14.227,6.875-14.227s5.932,6.773,5.572,14.784
				C61.145,168.725,54.629,174.939,54.629,174.939z"/>
			
				<line fill="#FFD009" stroke="#010202" stroke-width="2" stroke-linecap="round" stroke-linejoin="round" stroke-miterlimit="10" x1="55.924" y1="174.287" x2="55.924" y2="208.127"/>
			
				<path fill="#0574B4" stroke="#010202" stroke-width="2" stroke-linecap="round" stroke-linejoin="round" stroke-miterlimit="10" d="
				M55.029,175.131c0,0-8.523-2.9-12.217-10.018c-3.695-7.117-1.16-15.758-1.16-15.758s8.523,2.9,12.217,10.018
				C57.564,166.49,55.029,175.131,55.029,175.131z"/>
			
				<path fill="#0574B4" stroke="#010202" stroke-width="2" stroke-linecap="round" stroke-linejoin="round" stroke-miterlimit="10" d="
				M54.779,174.765c0,0-1.752-8.832,2.564-15.59c4.318-6.759,13.066-8.884,13.066-8.884s1.752,8.832-2.566,15.59
				C63.529,172.64,54.779,174.765,54.779,174.765z"/>
			
				<path fill="#57B2E5" stroke="#010202" stroke-width="2" stroke-linecap="round" stroke-linejoin="round" stroke-miterlimit="10" d="
				M54.996,174.688c0,0,2.898-8.523,10.016-12.219c7.117-3.693,15.758-1.16,15.758-1.16s-2.9,8.525-10.018,12.219
				C63.637,177.223,54.996,174.688,54.996,174.688z"/>
			
				<path fill="#57B2E5" stroke="#010202" stroke-width="2" stroke-linecap="round" stroke-linejoin="round" stroke-miterlimit="10" d="
				M55.029,175.131c0,0-8.83,1.75-15.59-2.566c-6.758-4.316-8.883-13.066-8.883-13.066s8.832-1.75,15.59,2.566
				C52.906,166.381,55.029,175.131,55.029,175.131z"/>
		</g>
		
			<path fill="#3BAA35" stroke="#010202" stroke-width="2" stroke-linecap="round" stroke-linejoin="round" stroke-miterlimit="10" d="
			M55.939,209.665c0,0-6.383-4.452-10.299-11.998c-3.918-7.546-3.887-15.328-3.887-15.328s6.383,4.452,10.301,11.999
			C55.971,201.883,55.939,209.665,55.939,209.665z"/>
		
			<path fill="#3BAA35" stroke="#010202" stroke-width="2" stroke-linecap="round" stroke-linejoin="round" stroke-miterlimit="10" d="
			M70.189,182.339c0,0-6.383,4.452-10.299,11.998c-3.918,7.546-3.887,15.328-3.887,15.328s6.383-4.452,10.301-11.999
			C70.221,190.121,70.189,182.339,70.189,182.339z"/>
	</g>
	<g>
		<g>
			
				<path fill="#2A3180" stroke="#010202" stroke-width="2" stroke-linecap="round" stroke-linejoin="round" stroke-miterlimit="10" d="
				M164.944,174.939c0,0-5.932-6.773-5.572-14.784s6.875-14.227,6.875-14.227s5.932,6.773,5.572,14.784
				C171.46,168.725,164.944,174.939,164.944,174.939z"/>
			
				<line fill="#FFD009" stroke="#010202" stroke-width="2" stroke-linecap="round" stroke-linejoin="round" stroke-miterlimit="10" x1="166.239" y1="174.287" x2="166.239" y2="208.127"/>
			
				<path fill="#0574B4" stroke="#010202" stroke-width="2" stroke-linecap="round" stroke-linejoin="round" stroke-miterlimit="10" d="
				M165.345,175.131c0,0-8.523-2.9-12.217-10.018c-3.695-7.117-1.16-15.758-1.16-15.758s8.523,2.9,12.217,10.018
				C167.88,166.49,165.345,175.131,165.345,175.131z"/>
			
				<path fill="#0574B4" stroke="#010202" stroke-width="2" stroke-linecap="round" stroke-linejoin="round" stroke-miterlimit="10" d="
				M165.095,174.765c0,0-1.752-8.832,2.564-15.59c4.318-6.759,13.066-8.884,13.066-8.884s1.752,8.832-2.566,15.59
				C173.845,172.64,165.095,174.765,165.095,174.765z"/>
			
				<path fill="#57B2E5" stroke="#010202" stroke-width="2" stroke-linecap="round" stroke-linejoin="round" stroke-miterlimit="10" d="
				M165.312,174.688c0,0,2.898-8.523,10.016-12.219c7.117-3.693,15.758-1.16,15.758-1.16s-2.9,8.525-10.018,12.219
				C173.952,177.223,165.312,174.688,165.312,174.688z"/>
			
				<path fill="#57B2E5" stroke="#010202" stroke-width="2" stroke-linecap="round" stroke-linejoin="round" stroke-miterlimit="10" d="
				M165.345,175.131c0,0-8.83,1.75-15.59-2.566c-6.758-4.316-8.883-13.066-8.883-13.066s8.832-1.75,15.59,2.566
				C163.222,166.381,165.345,175.131,165.345,175.131z"/>
		</g>
		
			<path fill="#3BAA35" stroke="#010202" stroke-width="2" stroke-linecap="round" stroke-linejoin="round" stroke-miterlimit="10" d="
			M166.255,209.665c0,0-6.383-4.452-10.299-11.998c-3.918-7.546-3.887-15.328-3.887-15.328s6.383,4.452,10.301,11.999
			C166.286,201.883,166.255,209.665,166.255,209.665z"/>
		
			<path fill="#3BAA35" stroke="#010202" stroke-width="2" stroke-linecap="round" stroke-linejoin="round" stroke-miterlimit="10" d="
			M180.505,182.339c0,0-6.383,4.452-10.299,11.998c-3.918,7.546-3.887,15.328-3.887,15.328s6.383-4.452,10.301-11.999
			C180.536,190.121,180.505,182.339,180.505,182.339z"/>
	</g>
	<g>
		
			<line fill="#CB78A6" stroke="#010202" stroke-width="2" stroke-linecap="round" stroke-linejoin="round" stroke-miterlimit="10" x1="0.754" y1="160.357" x2="0.754" y2="209.197"/>
		
			<path fill="#CB78A6" stroke="#010202" stroke-width="2" stroke-linecap="round" stroke-linejoin="round" stroke-miterlimit="10" d="
			M5.938,135.139l-4.774-8.393l-4.824,8.347l-8.779-8.405c0,0-0.084,18.24-0.093,19.957c-0.033,7.225,5.465,13.162,12.549,13.713
			l2.37-0.014c6.92-0.65,12.292-6.468,12.325-13.572c0.008-1.716,0.092-19.957,0.092-19.957L5.938,135.139z"/>
	</g>
	
		<path fill="#3BAA35" stroke="#010202" stroke-width="2" stroke-linecap="round" stroke-linejoin="round" stroke-miterlimit="10" d="
		M0.395,209.665c0,0-6.383-4.452-10.3-11.998c-3.918-7.546-3.886-15.328-3.886-15.328s6.382,4.452,10.3,11.999
		C0.426,201.883,0.395,209.665,0.395,209.665z"/>
	
		<path fill="#3BAA35" stroke="#010202" stroke-width="2" stroke-linecap="round" stroke-linejoin="round" stroke-miterlimit="10" d="
		M14.645,182.339c0,0-6.383,4.452-10.3,11.998c-3.918,7.546-3.886,15.328-3.886,15.328s6.382-4.452,10.3-11.999
		C14.676,190.121,14.645,182.339,14.645,182.339z"/>
	<g>
		
			<path fill="#CB78A6" stroke="#010202" stroke-width="2" stroke-linecap="round" stroke-linejoin="round" stroke-miterlimit="10" d="
			M226.567,135.139l-4.774-8.393l-4.824,8.347l-8.779-8.405c0,0-0.084,18.24-0.093,19.957c-0.033,7.225,5.465,13.162,12.549,13.713
			l2.37-0.014c6.92-0.65,12.292-6.468,12.325-13.572c0.008-1.716,0.092-19.957,0.092-19.957L226.567,135.139z"/>
	</g>
	
		<path fill="#3BAA35" stroke="#010202" stroke-width="2" stroke-linecap="round" stroke-linejoin="round" stroke-miterlimit="10" d="
		M221.024,209.665c0,0-6.383-4.452-10.3-11.998c-3.918-7.546-3.886-15.328-3.886-15.328s6.382,4.452,10.3,11.999
		C221.056,201.883,221.024,209.665,221.024,209.665z"/>
	
		<rect x="9.099" y="200.792" transform="matrix(0.7071 0.7071 -0.7071 0.7071 164.0895 44.3196)" fill="#3BAA35" stroke="#010202" stroke-width="2" stroke-linecap="round" stroke-linejoin="round" stroke-miterlimit="10" width="38.892" height="38.892"/>
	
		<rect x="64.099" y="200.792" transform="matrix(0.7071 0.7071 -0.7071 0.7071 180.1979 5.4294)" fill="#3BAA35" stroke="#010202" stroke-width="2" stroke-linecap="round" stroke-linejoin="round" stroke-miterlimit="10" width="38.892" height="38.892"/>
	
		<rect x="119.099" y="200.792" transform="matrix(0.7071 0.7071 -0.7071 0.7071 196.3063 -33.4608)" fill="#3BAA35" stroke="#010202" stroke-width="2" stroke-linecap="round" stroke-linejoin="round" stroke-miterlimit="10" width="38.892" height="38.892"/>
	
		<rect x="174.099" y="200.792" transform="matrix(0.7071 0.7071 -0.7071 0.7071 212.4148 -72.351)" fill="#3BAA35" stroke="#010202" stroke-width="2" stroke-linecap="round" stroke-linejoin="round" stroke-miterlimit="10" width="38.892" height="38.892"/>
	<g>
		
			<line fill="#FFD009" stroke="#010202" stroke-width="2" stroke-linecap="round" stroke-linejoin="round" stroke-miterlimit="10" x1="111.459" y1="60.437" x2="111.459" y2="11.597"/>
		<g>
			
				<path fill="#CB78A6" stroke="#010202" stroke-width="2" stroke-linecap="round" stroke-linejoin="round" stroke-miterlimit="10" d="
				M95.822,71.552c-5.221,2.086-8.369,6.926-7.182,11.463c1.26,4.807,6.934,7.521,12.887,6.293
				c0.371,5.611,4.002,10.102,8.682,10.371c4.961,0.289,9.297-4.27,9.969-10.311c5.451,1.381,10.842-0.684,12.547-5.051
				c1.807-4.631-1.188-10.162-6.727-12.668c2.998-4.758,2.701-10.523-0.926-13.494c-3.846-3.148-10.031-2.01-14.127,2.482
				c-3.598-4.32-9.174-5.818-13.119-3.287C93.643,60.034,92.814,66.269,95.822,71.552z"/>
			
				<path fill="#81368B" stroke="#010202" stroke-width="2" stroke-linecap="round" stroke-linejoin="round" stroke-miterlimit="10" d="
				M101.635,73.577c-3.164,1.266-5.074,4.199-4.354,6.949c0.764,2.916,4.203,4.561,7.813,3.816c0.227,3.402,2.426,6.123,5.264,6.287
				c3.008,0.176,5.637-2.588,6.045-6.25c3.305,0.838,6.572-0.416,7.605-3.063c1.096-2.807-0.721-6.16-4.078-7.68
				c1.818-2.885,1.637-6.381-0.561-8.182c-2.332-1.908-6.082-1.219-8.564,1.506c-2.182-2.621-5.563-3.529-7.955-1.994
				C100.314,66.595,99.813,70.376,101.635,73.577z"/>
			
				<circle fill="#EFE343" stroke="#010202" stroke-width="2" stroke-linecap="round" stroke-linejoin="round" stroke-miterlimit="10" cx="110.675" cy="76.541" r="5.125"/>
		</g>
		
			<path fill="#3BAA35" stroke="#010202" stroke-width="2" stroke-linecap="round" stroke-linejoin="round" stroke-miterlimit="10" d="
			M111.49,10.718c0,0,6.383,4.453,10.301,11.998c3.918,7.547,3.885,15.328,3.885,15.328s-6.381-4.451-10.299-11.998
			C111.459,18.501,111.49,10.718,111.49,10.718z"/>
		
			<path fill="#3BAA35" stroke="#010202" stroke-width="2" stroke-linecap="round" stroke-linejoin="round" stroke-miterlimit="10" d="
			M97.24,38.044c0,0,6.383-4.451,10.301-11.998c3.918-7.545,3.885-15.328,3.885-15.328s-6.381,4.453-10.299,12
			C97.209,30.263,97.24,38.044,97.24,38.044z"/>
	</g>
	<g>
		<g>
			
				<path fill="#2A3180" stroke="#010202" stroke-width="2" stroke-linecap="round" stroke-linejoin="round" stroke-miterlimit="10" d="
				M167.012,45.444c0,0,5.933,6.773,5.573,14.783c-0.359,8.012-6.876,14.227-6.876,14.227s-5.932-6.773-5.572-14.783
				C160.496,51.659,167.012,45.444,167.012,45.444z"/>
			
				<line fill="#FFD009" stroke="#010202" stroke-width="2" stroke-linecap="round" stroke-linejoin="round" stroke-miterlimit="10" x1="165.717" y1="46.097" x2="165.717" y2="12.257"/>
			
				<path fill="#0574B4" stroke="#010202" stroke-width="2" stroke-linecap="round" stroke-linejoin="round" stroke-miterlimit="10" d="
				M166.611,45.253c0,0,8.524,2.9,12.218,10.018c3.695,7.117,1.16,15.758,1.16,15.758s-8.523-2.9-12.218-10.018
				C164.076,53.894,166.611,45.253,166.611,45.253z"/>
			
				<path fill="#0574B4" stroke="#010202" stroke-width="2" stroke-linecap="round" stroke-linejoin="round" stroke-miterlimit="10" d="
				M166.861,45.618c0,0,1.752,8.832-2.564,15.59c-4.318,6.76-13.066,8.885-13.066,8.885s-1.752-8.832,2.566-15.59
				C158.111,47.743,166.861,45.618,166.861,45.618z"/>
			
				<path fill="#57B2E5" stroke="#010202" stroke-width="2" stroke-linecap="round" stroke-linejoin="round" stroke-miterlimit="10" d="
				M166.645,45.696c0,0-2.898,8.523-10.016,12.219c-7.117,3.693-15.758,1.16-15.758,1.16s2.9-8.525,10.018-12.219
				C158.004,43.161,166.645,45.696,166.645,45.696z"/>
			
				<path fill="#57B2E5" stroke="#010202" stroke-width="2" stroke-linecap="round" stroke-linejoin="round" stroke-miterlimit="10" d="
				M166.611,45.253c0,0,8.831-1.75,15.591,2.566c6.758,4.316,8.883,13.066,8.883,13.066s-8.832,1.75-15.59-2.566
				C168.734,54.003,166.611,45.253,166.611,45.253z"/>
		</g>
		
			<path fill="#3BAA35" stroke="#010202" stroke-width="2" stroke-linecap="round" stroke-linejoin="round" stroke-miterlimit="10" d="
			M165.701,10.718c0,0,6.384,4.453,10.3,11.998c3.918,7.547,3.887,15.328,3.887,15.328s-6.383-4.451-10.301-11.998
			C165.67,18.501,165.701,10.718,165.701,10.718z"/>
		
			<path fill="#3BAA35" stroke="#010202" stroke-width="2" stroke-linecap="round" stroke-linejoin="round" stroke-miterlimit="10" d="
			M151.451,38.044c0,0,6.383-4.451,10.299-11.998c3.918-7.545,3.887-15.328,3.887-15.328s-6.383,4.453-10.301,12
			C151.42,30.263,151.451,38.044,151.451,38.044z"/>
	</g>
	<g>
		<g>
			
				<path fill="#2A3180" stroke="#010202" stroke-width="2" stroke-linecap="round" stroke-linejoin="round" stroke-miterlimit="10" d="
				M56.697,45.444c0,0,5.932,6.773,5.572,14.783c-0.359,8.012-6.875,14.227-6.875,14.227s-5.932-6.773-5.572-14.783
				C50.182,51.659,56.697,45.444,56.697,45.444z"/>
			
				<line fill="#FFD009" stroke="#010202" stroke-width="2" stroke-linecap="round" stroke-linejoin="round" stroke-miterlimit="10" x1="55.402" y1="46.097" x2="55.402" y2="12.257"/>
			
				<path fill="#0574B4" stroke="#010202" stroke-width="2" stroke-linecap="round" stroke-linejoin="round" stroke-miterlimit="10" d="
				M56.297,45.253c0,0,8.523,2.9,12.217,10.018c3.695,7.117,1.16,15.758,1.16,15.758s-8.523-2.9-12.217-10.018
				C53.762,53.894,56.297,45.253,56.297,45.253z"/>
			
				<path fill="#0574B4" stroke="#010202" stroke-width="2" stroke-linecap="round" stroke-linejoin="round" stroke-miterlimit="10" d="
				M56.547,45.618c0,0,1.752,8.832-2.564,15.59c-4.318,6.76-13.066,8.885-13.066,8.885s-1.752-8.832,2.566-15.59
				C47.797,47.743,56.547,45.618,56.547,45.618z"/>
			
				<path fill="#57B2E5" stroke="#010202" stroke-width="2" stroke-linecap="round" stroke-linejoin="round" stroke-miterlimit="10" d="
				M56.33,45.696c0,0-2.898,8.523-10.016,12.219c-7.117,3.693-15.758,1.16-15.758,1.16s2.9-8.525,10.018-12.219
				C47.689,43.161,56.33,45.696,56.33,45.696z"/>
			
				<path fill="#57B2E5" stroke="#010202" stroke-width="2" stroke-linecap="round" stroke-linejoin="round" stroke-miterlimit="10" d="
				M56.297,45.253c0,0,8.83-1.75,15.59,2.566c6.758,4.316,8.883,13.066,8.883,13.066s-8.832,1.75-15.59-2.566
				C58.42,54.003,56.297,45.253,56.297,45.253z"/>
		</g>
		
			<path fill="#3BAA35" stroke="#010202" stroke-width="2" stroke-linecap="round" stroke-linejoin="round" stroke-miterlimit="10" d="
			M55.387,10.718c0,0,6.383,4.453,10.299,11.998c3.918,7.547,3.887,15.328,3.887,15.328s-6.383-4.451-10.301-11.998
			C55.355,18.501,55.387,10.718,55.387,10.718z"/>
		
			<path fill="#3BAA35" stroke="#010202" stroke-width="2" stroke-linecap="round" stroke-linejoin="round" stroke-miterlimit="10" d="
			M41.137,38.044c0,0,6.383-4.451,10.299-11.998c3.918-7.545,3.887-15.328,3.887-15.328s-6.383,4.453-10.301,12
			C41.105,30.263,41.137,38.044,41.137,38.044z"/>
	</g>
	<g>
		
			<line fill="#CB78A6" stroke="#010202" stroke-width="2" stroke-linecap="round" stroke-linejoin="round" stroke-miterlimit="10" x1="220.888" y1="60.026" x2="220.888" y2="11.187"/>
		
			<path fill="#CB78A6" stroke="#010202" stroke-width="2" stroke-linecap="round" stroke-linejoin="round" stroke-miterlimit="10" d="
			M215.704,85.245l4.774,8.393l4.824-8.348l8.779,8.406c0,0,0.084-18.24,0.093-19.957c0.033-7.225-5.465-13.162-12.549-13.713
			l-2.37,0.014c-6.92,0.65-12.292,6.467-12.325,13.572c-0.008,1.715-0.092,19.957-0.092,19.957L215.704,85.245z"/>
	</g>
	
		<path fill="#3BAA35" stroke="#010202" stroke-width="2" stroke-linecap="round" stroke-linejoin="round" stroke-miterlimit="10" d="
		M206.997,38.044c0,0,6.383-4.451,10.3-11.998c3.918-7.545,3.886-15.328,3.886-15.328s-6.382,4.453-10.3,12
		C206.966,30.263,206.997,38.044,206.997,38.044z"/>
	<g>
		
			<line fill="#CB78A6" stroke="#010202" stroke-width="2" stroke-linecap="round" stroke-linejoin="round" stroke-miterlimit="10" x1="0.258" y1="60.026" x2="0.258" y2="11.187"/>
		
			<path fill="#CB78A6" stroke="#010202" stroke-width="2" stroke-linecap="round" stroke-linejoin="round" stroke-miterlimit="10" d="
			M-4.926,85.245l4.773,8.393l4.824-8.348l8.779,8.406c0,0,0.084-18.24,0.094-19.957c0.033-7.225-5.465-13.162-12.549-13.713
			l-2.371,0.014c-6.92,0.65-12.291,6.467-12.324,13.572c-0.008,1.715-0.092,19.957-0.092,19.957L-4.926,85.245z"/>
	</g>
	
		<path fill="#3BAA35" stroke="#010202" stroke-width="2" stroke-linecap="round" stroke-linejoin="round" stroke-miterlimit="10" d="
		M0.617,10.718c0,0,6.383,4.453,10.299,11.998c3.918,7.547,3.887,15.328,3.887,15.328S8.42,33.593,4.502,26.046
		C0.586,18.501,0.617,10.718,0.617,10.718z"/>
	
		<path fill="#3BAA35" stroke="#010202" stroke-width="2" stroke-linecap="round" stroke-linejoin="round" stroke-miterlimit="10" d="
		M-13.633,38.044c0,0,6.383-4.451,10.299-11.998c3.918-7.545,3.887-15.328,3.887-15.328s-6.383,4.453-10.301,12
		C-13.664,30.263-13.633,38.044-13.633,38.044z"/>
	
		<rect x="173.651" y="-19.3" transform="matrix(-0.7071 -0.7071 0.7071 -0.7071 329.5362 136.786)" fill="#3BAA35" stroke="#010202" stroke-width="2" stroke-linecap="round" stroke-linejoin="round" stroke-miterlimit="10" width="38.892" height="38.892"/>
	
		<rect x="118.65" y="-19.301" transform="matrix(-0.7071 -0.7071 0.7071 -0.7071 235.6447 97.8933)" fill="#3BAA35" stroke="#010202" stroke-width="2" stroke-linecap="round" stroke-linejoin="round" stroke-miterlimit="10" width="38.892" height="38.892"/>
	
		<rect x="63.65" y="-19.301" transform="matrix(-0.7071 -0.7071 0.7071 -0.7071 141.7524 59.0038)" fill="#3BAA35" stroke="#010202" stroke-width="2" stroke-linecap="round" stroke-linejoin="round" stroke-miterlimit="10" width="38.892" height="38.892"/>
	
		<rect x="8.65" y="-19.301" transform="matrix(-0.7071 -0.7071 0.7071 -0.7071 47.8602 20.1144)" fill="#3BAA35" stroke="#010202" stroke-width="2" stroke-linecap="round" stroke-linejoin="round" stroke-miterlimit="10" width="38.892" height="38.892"/>
	
		<rect x="153.932" y="98.243" transform="matrix(0.7071 0.7071 -0.7071 0.7071 126.5428 -85.0382)" fill="#3BAA35" stroke="#010202" stroke-width="2" stroke-linecap="round" stroke-linejoin="round" stroke-miterlimit="10" width="23.988" height="23.989"/>
	
		<rect x="42.578" y="98.243" transform="matrix(0.7071 0.7071 -0.7071 0.7071 93.9304 -6.3017)" fill="#3BAA35" stroke="#010202" stroke-width="2" stroke-linecap="round" stroke-linejoin="round" stroke-miterlimit="10" width="23.988" height="23.989"/>
</g>
</svg>
