<?xml version="1.0" encoding="utf-8"?>
<!-- Generator: Adobe Illustrator 16.0.0, SVG Export Plug-In . SVG Version: 6.00 Build 0)  -->
<!DOCTYPE svg PUBLIC "-//W3C//DTD SVG 1.1//EN" "http://www.w3.org/Graphics/SVG/1.1/DTD/svg11.dtd">
<svg version="1.1" xmlns="http://www.w3.org/2000/svg" xmlns:xlink="http://www.w3.org/1999/xlink" x="0px" y="0px"
	 width="405.631px" height="228.21px" viewBox="0 0 405.631 228.21" enable-background="new 0 0 405.631 228.21"
	 xml:space="preserve">
<g id="ozadje" display="none">
</g>
<g id="Layer_1">
	<g>
		<defs>
			<rect id="SVGID_17_" width="405.631" height="228.21"/>
		</defs>
		<clipPath id="SVGID_23_">
			<use xlink:href="#SVGID_17_"  overflow="visible"/>
		</clipPath>
		<rect id="SVGID_16_" clip-path="url(#SVGID_23_)" fill="#902E51" width="405.631" height="228.21"/>
		<g clip-path="url(#SVGID_23_)">
			<g>
				<path fill="#422918" d="M1.183,131.35c-0.159-0.042-0.323-0.063-0.488-0.063c0,0-0.001,0-0.002,0
					c-0.135,0-0.176,0.003-4.207,0.623l0.618-2.308c0.366-1.169,4.792-5.609,8.891-5.609c0.481,0,0.945,0.063,1.378,0.189
					l87.335,23.394c0.937,0.42,4.128,3.306,4.326,9.985L1.183,131.35z"/>
				<path d="M5.995,125.879L5.995,125.879c0.307,0,0.585,0.038,0.849,0.115c0.026,0.008,0.053,0.015,0.079,0.021l87.012,23.307
					c0.442,0.343,2.247,1.949,2.944,5.708L1.671,129.527c-0.315-0.085-0.641-0.128-0.967-0.129c-0.009,0-0.017,0-0.024,0
					c-0.15,0-0.271,0.008-1.273,0.156C0.66,128.124,3.528,125.88,5.995,125.879 M5.994,122.105c-5.026,0-10.198,5.087-10.713,7.007
					c-0.58,2.163-1.367,5.103-1.367,5.103s6.762-1.042,6.78-1.042l0,0l100.174,26.833c0.673-9.837-4.302-13.817-5.585-14.229
					L7.899,122.37C7.273,122.188,6.635,122.105,5.994,122.105L5.994,122.105z"/>
			</g>
			<g>
				<path fill="#7E4E24" d="M89.887,234.229c-0.672,2.507-3.271,4.008-5.777,3.337l-103.893-27.829
					c-2.506-0.672-4.008-3.271-3.336-5.777l18.668-69.691c0.672-2.506,3.271-4.008,5.778-3.336l103.892,27.823
					c2.507,0.672,4.008,3.271,3.337,5.778l-1.626,6.07c-0.672,2.506-1.77,6.607-2.441,9.113l-8.393,31.332
					c-0.672,2.506-1.77,6.607-2.441,9.113L89.887,234.229z"/>
				
					<path fill="none" stroke="#000000" stroke-width="3.7742" stroke-linecap="round" stroke-linejoin="round" stroke-miterlimit="10" d="
					M89.887,234.229c-0.672,2.507-3.271,4.008-5.777,3.337l-103.893-27.829c-2.506-0.672-4.008-3.271-3.336-5.777l18.668-69.691
					c0.672-2.506,3.271-4.008,5.778-3.336l103.892,27.823c2.507,0.672,4.008,3.271,3.337,5.778l-1.626,6.07
					c-0.672,2.506-1.77,6.607-2.441,9.113l-8.393,31.332c-0.672,2.506-1.77,6.607-2.441,9.113L89.887,234.229z"/>
			</g>
			
				<rect x="59.26" y="175.435" transform="matrix(0.9659 0.2588 -0.2588 0.9659 51.7089 -14.3118)" fill="#B17F49" stroke="#000000" stroke-width="3.7742" stroke-linecap="round" stroke-linejoin="round" stroke-miterlimit="10" width="41.927" height="27.692"/>
			<g>
				<circle cx="72.109" cy="186.758" r="4.819"/>
			</g>
		</g>
		<g clip-path="url(#SVGID_23_)">
			<g>
				<path fill="#C8C8C8" d="M257.732,258.096c-1.469,2.432-4.661,3.219-7.093,1.748l-87.391-52.83
					c-2.432-1.471-3.219-4.662-1.749-7.094l32.299-53.426c1.471-2.432,4.662-3.219,7.094-1.748l87.39,52.83
					c2.432,1.471,3.218,4.662,1.749,7.094L257.732,258.096z"/>
				
					<path fill="none" stroke="#000000" stroke-width="4.1324" stroke-linecap="round" stroke-linejoin="round" stroke-miterlimit="10" d="
					M257.732,258.096c-1.469,2.432-4.661,3.219-7.093,1.748l-87.391-52.83c-2.432-1.471-3.219-4.662-1.749-7.094l32.299-53.426
					c1.471-2.432,4.662-3.219,7.094-1.748l87.39,52.83c2.432,1.471,3.218,4.662,1.749,7.094L257.732,258.096z"/>
			</g>
			
				<line fill="none" stroke="#000000" stroke-width="4.1324" stroke-linecap="round" stroke-linejoin="round" stroke-miterlimit="10" x1="183.018" y1="187.533" x2="258.702" y2="233.288"/>
			
				<line fill="none" stroke="#000000" stroke-width="4.1324" stroke-linecap="round" stroke-linejoin="round" stroke-miterlimit="10" x1="177.5" y1="196.659" x2="189.82" y2="204.106"/>
			
				<line fill="none" stroke="#000000" stroke-width="4.1324" stroke-linecap="round" stroke-linejoin="round" stroke-miterlimit="10" x1="197.105" y1="208.511" x2="223.625" y2="224.543"/>
			
				<polygon fill="#F8B133" stroke="#000000" stroke-width="2.0662" stroke-linecap="round" stroke-linejoin="round" stroke-miterlimit="10" points="
				204.395,186.313 187.84,176.307 195.215,164.107 201.33,167.805 211.769,174.115 			"/>
			
				<line fill="none" stroke="#000000" stroke-width="2.0662" stroke-linecap="round" stroke-linejoin="round" stroke-miterlimit="10" x1="194.024" y1="180.045" x2="201.187" y2="168.198"/>
			
				<line fill="none" stroke="#000000" stroke-width="2.0662" stroke-linecap="round" stroke-linejoin="round" stroke-miterlimit="10" x1="198.715" y1="182.88" x2="205.877" y2="171.033"/>
			
				<line fill="none" stroke="#000000" stroke-width="2.0662" stroke-linecap="round" stroke-linejoin="round" stroke-miterlimit="10" x1="201.692" y1="179.117" x2="205.835" y2="181.622"/>
			
				<line fill="none" stroke="#000000" stroke-width="2.0662" stroke-linecap="round" stroke-linejoin="round" stroke-miterlimit="10" x1="193.593" y1="169.312" x2="197.735" y2="171.816"/>
		</g>
		<g clip-path="url(#SVGID_23_)">
			<g>
				
					<path fill="#F5F4C8" stroke="#000000" stroke-width="4.5" stroke-linecap="round" stroke-linejoin="round" stroke-miterlimit="10" d="
					M304.648,18.412l-39.092,16.149l-23.76,58.189l55.701,22.748l23.761-58.183L304.648,18.412z M302.65,41.868
					c-1.385,3.393-5.26,5.021-8.652,3.636s-5.021-5.26-3.635-8.653c1.385-3.392,5.26-5.02,8.652-3.634
					C302.408,34.602,304.035,38.476,302.65,41.868z"/>
			</g>
			
				<path fill="none" stroke="#000000" stroke-width="4.5" stroke-linecap="round" stroke-linejoin="round" stroke-miterlimit="10" d="
				M296.623,38.843c0,0,0.352-66.707,25.6-56.396C347.471-7.245,296.623,38.843,296.623,38.843z"/>
		</g>
		<g clip-path="url(#SVGID_23_)">
			
				<polygon fill="#9BD3B1" stroke="#000000" stroke-width="3.7742" stroke-linecap="round" stroke-linejoin="round" stroke-miterlimit="10" points="
				70.861,40.313 -24.836,84.937 -71.32,52.766 24.376,8.142 			"/>
			
				<polygon fill="#9BD3B1" stroke="#000000" stroke-width="3.7742" stroke-linecap="round" stroke-linejoin="round" stroke-miterlimit="10" points="
				70.861,33.487 -24.836,78.111 -71.32,45.94 24.377,1.316 			"/>
			
				<polygon fill="#9BD3B1" stroke="#000000" stroke-width="3.7742" stroke-linecap="round" stroke-linejoin="round" stroke-miterlimit="10" points="
				70.861,26.091 -24.836,70.715 -71.32,38.543 24.377,-6.08 			"/>
			
				<polygon fill="#9BD3B1" stroke="#000000" stroke-width="3.7742" stroke-linecap="round" stroke-linejoin="round" stroke-miterlimit="10" points="
				70.861,18.024 -24.836,62.648 -71.32,30.477 24.377,-14.148 			"/>
			
				<polygon stroke="#000000" stroke-width="3.7742" stroke-linecap="round" stroke-linejoin="round" stroke-miterlimit="10" points="
				32.357,32.615 30.492,57.135 10.819,66.309 12.864,41.705 -32.816,10.332 -12.4,0.811 			"/>
		</g>
		<g clip-path="url(#SVGID_23_)">
			<g>
				
					<path fill="#FFCF00" stroke="#000000" stroke-width="4.5" stroke-linecap="round" stroke-linejoin="round" stroke-miterlimit="10" d="
					M408.067,133.073c0,0,0,5.946,0,13.282c0,7.335-14.687,13.28-32.802,13.28c-18.114,0-32.801-5.945-32.801-13.28
					c0-7.336,0-13.282,0-13.282"/>
				
					<ellipse fill="#FFCF00" stroke="#000000" stroke-width="4.5" stroke-linecap="round" stroke-linejoin="round" stroke-miterlimit="10" cx="375.266" cy="132.025" rx="32.801" ry="13.28"/>
				
					<line fill="none" stroke="#000000" stroke-width="4.5" stroke-linecap="round" stroke-linejoin="round" stroke-miterlimit="10" x1="350.801" y1="141.275" x2="350.801" y2="154.044"/>
				
					<line fill="none" stroke="#000000" stroke-width="4.5" stroke-linecap="round" stroke-linejoin="round" stroke-miterlimit="10" x1="358.795" y1="143.657" x2="358.795" y2="156.425"/>
				
					<line fill="none" stroke="#000000" stroke-width="4.5" stroke-linecap="round" stroke-linejoin="round" stroke-miterlimit="10" x1="366.791" y1="146.039" x2="366.791" y2="158.807"/>
				
					<line fill="none" stroke="#000000" stroke-width="4.5" stroke-linecap="round" stroke-linejoin="round" stroke-miterlimit="10" x1="374.785" y1="146.151" x2="374.785" y2="158.919"/>
				
					<line fill="none" stroke="#000000" stroke-width="4.5" stroke-linecap="round" stroke-linejoin="round" stroke-miterlimit="10" x1="382.78" y1="146.262" x2="382.78" y2="159.031"/>
				
					<line fill="none" stroke="#000000" stroke-width="4.5" stroke-linecap="round" stroke-linejoin="round" stroke-miterlimit="10" x1="390.775" y1="144.105" x2="390.775" y2="156.874"/>
				
					<line fill="none" stroke="#000000" stroke-width="4.5" stroke-linecap="round" stroke-linejoin="round" stroke-miterlimit="10" x1="398.771" y1="141.947" x2="398.771" y2="154.716"/>
			</g>
			<g>
				
					<path fill="#FFCF00" stroke="#000000" stroke-width="4.5" stroke-linecap="round" stroke-linejoin="round" stroke-miterlimit="10" d="
					M415.147,112.628c0,0,0,5.945,0,13.281c0,7.334-14.686,13.281-32.801,13.281c-18.114,0-32.802-5.947-32.802-13.281
					c0-7.336,0-13.281,0-13.281"/>
				
					<ellipse fill="#FFCF00" stroke="#000000" stroke-width="4.5" stroke-linecap="round" stroke-linejoin="round" stroke-miterlimit="10" cx="382.346" cy="111.58" rx="32.801" ry="13.28"/>
				
					<line fill="none" stroke="#000000" stroke-width="4.5" stroke-linecap="round" stroke-linejoin="round" stroke-miterlimit="10" x1="357.881" y1="120.83" x2="357.881" y2="133.598"/>
				
					<line fill="none" stroke="#000000" stroke-width="4.5" stroke-linecap="round" stroke-linejoin="round" stroke-miterlimit="10" x1="365.875" y1="123.211" x2="365.875" y2="135.979"/>
				
					<line fill="none" stroke="#000000" stroke-width="4.5" stroke-linecap="round" stroke-linejoin="round" stroke-miterlimit="10" x1="373.871" y1="125.593" x2="373.871" y2="138.361"/>
				
					<line fill="none" stroke="#000000" stroke-width="4.5" stroke-linecap="round" stroke-linejoin="round" stroke-miterlimit="10" x1="381.866" y1="125.705" x2="381.866" y2="138.474"/>
				
					<line fill="none" stroke="#000000" stroke-width="4.5" stroke-linecap="round" stroke-linejoin="round" stroke-miterlimit="10" x1="389.861" y1="125.816" x2="389.861" y2="138.584"/>
				
					<line fill="none" stroke="#000000" stroke-width="4.5" stroke-linecap="round" stroke-linejoin="round" stroke-miterlimit="10" x1="397.855" y1="123.659" x2="397.855" y2="136.428"/>
				
					<line fill="none" stroke="#000000" stroke-width="4.5" stroke-linecap="round" stroke-linejoin="round" stroke-miterlimit="10" x1="405.851" y1="121.502" x2="405.851" y2="134.27"/>
			</g>
			<g>
				
					<path fill="#FFCF00" stroke="#000000" stroke-width="4.5" stroke-linecap="round" stroke-linejoin="round" stroke-miterlimit="10" d="
					M405.615,93.011c0,0,0,5.945,0,13.281c0,7.335-14.687,13.281-32.801,13.281c-18.115,0-32.801-5.946-32.801-13.281
					c0-7.336,0-13.281,0-13.281"/>
				
					<path fill="#FFCF00" stroke="#000000" stroke-width="4.5" stroke-linecap="round" stroke-linejoin="round" stroke-miterlimit="10" d="
					M405.615,91.963c0,7.334-14.687,13.279-32.801,13.279c-18.115,0-32.801-5.945-32.801-13.279
					c0-7.337,14.686-13.283,32.801-13.283C390.929,78.68,405.615,84.626,405.615,91.963z"/>
				
					<line fill="none" stroke="#000000" stroke-width="4.5" stroke-linecap="round" stroke-linejoin="round" stroke-miterlimit="10" x1="348.348" y1="101.213" x2="348.348" y2="113.98"/>
				
					<line fill="none" stroke="#000000" stroke-width="4.5" stroke-linecap="round" stroke-linejoin="round" stroke-miterlimit="10" x1="356.343" y1="103.594" x2="356.343" y2="116.362"/>
				
					<line fill="none" stroke="#000000" stroke-width="4.5" stroke-linecap="round" stroke-linejoin="round" stroke-miterlimit="10" x1="364.339" y1="105.976" x2="364.339" y2="118.743"/>
				
					<line fill="none" stroke="#000000" stroke-width="4.5" stroke-linecap="round" stroke-linejoin="round" stroke-miterlimit="10" x1="372.332" y1="106.088" x2="372.332" y2="118.855"/>
				
					<line fill="none" stroke="#000000" stroke-width="4.5" stroke-linecap="round" stroke-linejoin="round" stroke-miterlimit="10" x1="380.328" y1="106.199" x2="380.328" y2="118.968"/>
				
					<line fill="none" stroke="#000000" stroke-width="4.5" stroke-linecap="round" stroke-linejoin="round" stroke-miterlimit="10" x1="388.323" y1="104.042" x2="388.323" y2="116.81"/>
				
					<line fill="none" stroke="#000000" stroke-width="4.5" stroke-linecap="round" stroke-linejoin="round" stroke-miterlimit="10" x1="396.318" y1="101.884" x2="396.318" y2="114.652"/>
			</g>
			<g>
				
					<path fill="#FFCF00" stroke="#000000" stroke-width="4.5" stroke-linecap="round" stroke-linejoin="round" stroke-miterlimit="10" d="
					M438.651,72.564c0,0,0,5.945,0,13.281c0,7.335-14.687,13.28-32.801,13.28s-32.801-5.945-32.801-13.28c0-7.336,0-13.281,0-13.281
					"/>
				
					<path fill="#FFCF00" stroke="#000000" stroke-width="4.5" stroke-linecap="round" stroke-linejoin="round" stroke-miterlimit="10" d="
					M438.651,71.517c0,7.333-14.687,13.279-32.801,13.279S373.05,78.85,373.05,71.517c0-7.337,14.687-13.283,32.801-13.283
					S438.651,64.18,438.651,71.517z"/>
				
					<line fill="none" stroke="#000000" stroke-width="4.5" stroke-linecap="round" stroke-linejoin="round" stroke-miterlimit="10" x1="381.385" y1="80.766" x2="381.385" y2="93.534"/>
				
					<line fill="none" stroke="#000000" stroke-width="4.5" stroke-linecap="round" stroke-linejoin="round" stroke-miterlimit="10" x1="389.379" y1="83.147" x2="389.379" y2="95.916"/>
				
					<line fill="none" stroke="#000000" stroke-width="4.5" stroke-linecap="round" stroke-linejoin="round" stroke-miterlimit="10" x1="397.375" y1="85.529" x2="397.375" y2="98.297"/>
				
					<line fill="none" stroke="#000000" stroke-width="4.5" stroke-linecap="round" stroke-linejoin="round" stroke-miterlimit="10" x1="405.369" y1="85.642" x2="405.369" y2="98.409"/>
			</g>
			<g>
				
					<path fill="#FFCF00" stroke="#000000" stroke-width="4.5" stroke-linecap="round" stroke-linejoin="round" stroke-miterlimit="10" d="
					M462.767,180.673c0,0,0,5.946,0,13.283c0,7.333-14.687,13.279-32.801,13.279c-18.115,0-32.802-5.946-32.802-13.279
					c0-7.337,0-13.283,0-13.283"/>
				
					<ellipse fill="#FFCF00" stroke="#000000" stroke-width="4.5" stroke-linecap="round" stroke-linejoin="round" stroke-miterlimit="10" cx="429.965" cy="179.625" rx="32.801" ry="13.28"/>
				
					<line fill="none" stroke="#000000" stroke-width="4.5" stroke-linecap="round" stroke-linejoin="round" stroke-miterlimit="10" x1="405.5" y1="188.875" x2="405.5" y2="201.644"/>
			</g>
			<g>
				
					<path fill="#FFCF00" stroke="#000000" stroke-width="4.5" stroke-linecap="round" stroke-linejoin="round" stroke-miterlimit="10" d="
					M464.861,140.609c0,0,0,5.946,0,13.282c0,7.334-14.686,13.281-32.801,13.281s-32.801-5.947-32.801-13.281
					c0-7.336,0-13.282,0-13.282"/>
				
					<ellipse fill="#FFCF00" stroke="#000000" stroke-width="4.5" stroke-linecap="round" stroke-linejoin="round" stroke-miterlimit="10" cx="432.061" cy="139.562" rx="32.801" ry="13.28"/>
				
					<line fill="none" stroke="#000000" stroke-width="4.5" stroke-linecap="round" stroke-linejoin="round" stroke-miterlimit="10" x1="407.595" y1="148.812" x2="407.595" y2="161.581"/>
			</g>
			<g>
				
					<path fill="#FFCF00" stroke="#000000" stroke-width="4.5" stroke-linecap="round" stroke-linejoin="round" stroke-miterlimit="10" d="
					M383.371,180.673c0,0,0,5.946,0,13.283c0,7.333-14.686,13.279-32.801,13.279c-18.114,0-32.801-5.946-32.801-13.279
					c0-7.337,0-13.283,0-13.283"/>
				
					<ellipse fill="#FFCF00" stroke="#000000" stroke-width="4.5" stroke-linecap="round" stroke-linejoin="round" stroke-miterlimit="10" cx="350.57" cy="179.625" rx="32.801" ry="13.28"/>
				
					<line fill="none" stroke="#000000" stroke-width="4.5" stroke-linecap="round" stroke-linejoin="round" stroke-miterlimit="10" x1="326.105" y1="188.875" x2="326.105" y2="201.644"/>
				
					<line fill="none" stroke="#000000" stroke-width="4.5" stroke-linecap="round" stroke-linejoin="round" stroke-miterlimit="10" x1="334.1" y1="191.257" x2="334.1" y2="204.025"/>
				
					<line fill="none" stroke="#000000" stroke-width="4.5" stroke-linecap="round" stroke-linejoin="round" stroke-miterlimit="10" x1="342.096" y1="193.638" x2="342.096" y2="206.407"/>
				
					<line fill="none" stroke="#000000" stroke-width="4.5" stroke-linecap="round" stroke-linejoin="round" stroke-miterlimit="10" x1="350.09" y1="193.75" x2="350.09" y2="206.519"/>
				
					<line fill="none" stroke="#000000" stroke-width="4.5" stroke-linecap="round" stroke-linejoin="round" stroke-miterlimit="10" x1="358.085" y1="193.862" x2="358.085" y2="206.631"/>
				
					<line fill="none" stroke="#000000" stroke-width="4.5" stroke-linecap="round" stroke-linejoin="round" stroke-miterlimit="10" x1="366.08" y1="191.704" x2="366.08" y2="204.473"/>
				
					<line fill="none" stroke="#000000" stroke-width="4.5" stroke-linecap="round" stroke-linejoin="round" stroke-miterlimit="10" x1="374.075" y1="189.547" x2="374.075" y2="202.316"/>
			</g>
			<g>
				
					<path fill="#FFCF00" stroke="#000000" stroke-width="4.5" stroke-linecap="round" stroke-linejoin="round" stroke-miterlimit="10" d="
					M378.962,158.866c0,0,0,5.946,0,13.282c0,7.334-14.686,13.28-32.801,13.28c-18.114,0-32.801-5.946-32.801-13.28
					c0-7.336,0-13.282,0-13.282"/>
				
					<ellipse fill="#FFCF00" stroke="#000000" stroke-width="4.5" stroke-linecap="round" stroke-linejoin="round" stroke-miterlimit="10" cx="346.161" cy="157.818" rx="32.801" ry="13.279"/>
				
					<line fill="none" stroke="#000000" stroke-width="4.5" stroke-linecap="round" stroke-linejoin="round" stroke-miterlimit="10" x1="321.695" y1="167.068" x2="321.695" y2="179.837"/>
				
					<line fill="none" stroke="#000000" stroke-width="4.5" stroke-linecap="round" stroke-linejoin="round" stroke-miterlimit="10" x1="329.69" y1="169.449" x2="329.69" y2="182.218"/>
				
					<line fill="none" stroke="#000000" stroke-width="4.5" stroke-linecap="round" stroke-linejoin="round" stroke-miterlimit="10" x1="337.686" y1="171.832" x2="337.686" y2="184.6"/>
				
					<line fill="none" stroke="#000000" stroke-width="4.5" stroke-linecap="round" stroke-linejoin="round" stroke-miterlimit="10" x1="345.681" y1="171.943" x2="345.681" y2="184.711"/>
				
					<line fill="none" stroke="#000000" stroke-width="4.5" stroke-linecap="round" stroke-linejoin="round" stroke-miterlimit="10" x1="353.676" y1="172.056" x2="353.676" y2="184.823"/>
				
					<line fill="none" stroke="#000000" stroke-width="4.5" stroke-linecap="round" stroke-linejoin="round" stroke-miterlimit="10" x1="361.671" y1="169.898" x2="361.671" y2="182.666"/>
				
					<line fill="none" stroke="#000000" stroke-width="4.5" stroke-linecap="round" stroke-linejoin="round" stroke-miterlimit="10" x1="369.666" y1="167.739" x2="369.666" y2="180.508"/>
			</g>
		</g>
		<g clip-path="url(#SVGID_23_)">
			
				<path fill="#F4AFB4" stroke="#000000" stroke-width="4.0786" stroke-linecap="round" stroke-linejoin="round" stroke-miterlimit="10" d="
				M211.89,47.182l-9.294,0.987c-3.561-3.836-11.17-9.896-16.004-12.395c1.16-5.308,2.443-13.583,2.619-16.889
				c0.188-3.538-12.568,2.364-19.076,11.006c-11.395-2.562-21.02-0.776-33.682,3.702C108.158,43.6,90.977,69.23,95.615,92.817
				c-7.848,1.62-11.576-11.196-12.645-11.591c-1.305-0.484-1.75,20.886,17.311,26.427c0.655,0.19,1.272,0.33,1.859,0.432
				c5.057,7.184,12.405,12.651,21.07,16.057l4.461,12.613c1.955,5.528,9.22,8.054,16.129,5.61c6.911-2.444,8.417-8.072,6.463-13.6
				l-0.043-0.117c9.451-1.07,26.033-7.081,35.795-12.658l0.037,0.105c1.955,5.526,6.154,9.136,13.059,6.694
				c6.912-2.444,10.973-8.976,8.127-16.964l-3.578-10.119c3.641-6.396,5.133-19.365,5.607-26.299l3.443-0.584
				c2.762-0.977,5.668-2.898,6.107-6.647l-0.301-10.649C219.062,48.283,215.44,46.721,211.89,47.182z"/>
			
				<path fill="#6F6F6E" stroke="#000000" stroke-width="4.0786" stroke-linecap="round" stroke-linejoin="round" stroke-miterlimit="10" d="
				M150.789,43.297c0.842,1.867-0.685,3.834-3.381,4.365c0,0-4.125,0.812-10.617,3.777c-6.487,2.963-10.405,6.901-10.405,6.901
				c-1.953,1.958-4.233,2.035-5.069,0.168c-0.839-1.87,0.074-5.004,2.029-6.966c0,0,3.914-3.937,10.402-6.9
				c6.491-2.963,10.615-3.775,10.615-3.775C147.061,40.333,149.955,41.428,150.789,43.297z"/>
			<g>
				
					<ellipse transform="matrix(0.9428 -0.3334 0.3334 0.9428 -6.7028 63.835)" fill="#FFFFFF" stroke="#000000" stroke-width="3.0589" stroke-linecap="round" stroke-linejoin="round" stroke-miterlimit="10" cx="182.651" cy="51.448" rx="5.041" ry="5.959"/>
				<ellipse transform="matrix(0.9428 -0.3334 0.3334 0.9428 -7.1104 64.8634)" cx="185.422" cy="53.147" rx="2.923" ry="3.456"/>
			</g>
		</g>
	</g>
</g>
</svg>
