<?xml version="1.0" encoding="utf-8"?>
<!-- Generator: Adobe Illustrator 16.0.0, SVG Export Plug-In . SVG Version: 6.00 Build 0)  -->
<!DOCTYPE svg PUBLIC "-//W3C//DTD SVG 1.1//EN" "http://www.w3.org/Graphics/SVG/1.1/DTD/svg11.dtd">
<svg version="1.1" xmlns="http://www.w3.org/2000/svg" xmlns:xlink="http://www.w3.org/1999/xlink" x="0px" y="0px"
	 width="405.688px" height="228.21px" viewBox="0 0 405.688 228.21" enable-background="new 0 0 405.688 228.21"
	 xml:space="preserve">
<g id="ozadje" display="none">
</g>
<g id="Layer_1">
	<g>
		<g>
			<defs>
				<rect id="SVGID_41_" width="405.688" height="228.21"/>
			</defs>
			<clipPath id="SVGID_23_">
				<use xlink:href="#SVGID_41_"  overflow="visible"/>
			</clipPath>
			<rect clip-path="url(#SVGID_23_)" fill="#009D73" width="405.688" height="228.21"/>
		</g>
		<g>
			<defs>
				<rect id="SVGID_43_" width="405.688" height="228.21"/>
			</defs>
			<clipPath id="SVGID_27_">
				<use xlink:href="#SVGID_43_"  overflow="visible"/>
			</clipPath>
			<g clip-path="url(#SVGID_27_)">
				
					<path fill="#FFFFFF" stroke="#000000" stroke-width="4.5341" stroke-linecap="round" stroke-linejoin="round" stroke-miterlimit="10" d="
					M315.1,123.354c37.518-14.041,76.678,6.894,96.74,33.959c2.715-1.017,22.715-10.536,24.834-11.724
					c-8.307-33.106,1.001-77.099,36.537-96.987c-0.021-0.086-0.045-0.17-0.068-0.254l-10.365-21.959l-158.262,74.703l10.365,21.959
					C314.955,123.152,315.025,123.255,315.1,123.354z"/>
			</g>
		</g>
		<g>
			<defs>
				<rect id="SVGID_45_" width="405.688" height="228.21"/>
			</defs>
			<clipPath id="SVGID_29_">
				<use xlink:href="#SVGID_45_"  overflow="visible"/>
			</clipPath>
			
				<path clip-path="url(#SVGID_29_)" fill="#FF64A8" stroke="#000000" stroke-width="4.5341" stroke-linecap="round" stroke-linejoin="round" stroke-miterlimit="10" d="
				M137.467,116.89c-3.236-1.463-21.855-4.018-39.617-2.9c-11.127,0.697-22.979,5.026-27.209,5.174
				c0.077,11.332-3.855,20.436-18.502,25.672c-14.742,4.958-23.469,0.246-30.426-8.699c-3.413,2.504-15.398,6.445-24.566,12.788
				c-14.638,10.124-27.674,23.66-29.309,26.814c-2.658,5.127,18.005,31.592,22.475,33.762c4.471,2.167,29.416-21.91,29.416-21.91
				s19.693,106.44,26.564,109.771c6.484,3.145,101.754-29.906,104.896-36.391c3.332-6.872-47.125-102.64-47.125-102.64
				s34.498,3.455,36.664-1.014C142.896,152.847,142.73,119.269,137.467,116.89z"/>
		</g>
		<g>
			<defs>
				<rect id="SVGID_47_" width="405.688" height="228.21"/>
			</defs>
			<clipPath id="SVGID_31_">
				<use xlink:href="#SVGID_47_"  overflow="visible"/>
			</clipPath>
			<g clip-path="url(#SVGID_31_)">
				
					<path fill="#57B2E5" stroke="#000000" stroke-width="4.5341" stroke-linecap="round" stroke-linejoin="round" stroke-miterlimit="10" d="
					M183.932,124.354c4.618,5.873,11.273,11.054,19.803,15.42c1.209,0.5,38.233,15.863,58.67-24.052
					c21.227-41.443,52.447-102.836,52.447-102.836L235.84-27.53L219.697,4.124c0,0-34.281,10.852-43.141,13.644
					c-10.861,3.421-8.086,14.582-8.086,14.582s3.172,11.741,14.004,10.232c9.385-1.308,19.625-3.955,19.625-3.955l-19.814,38.688
					C181.48,78.695,167.338,103.265,183.932,124.354z"/>
				<g>
					<path fill="#00497E" d="M228.824-26.099c1.418-2.777,4.848-3.891,7.625-2.475l77.936,39.747
						c2.777,1.417,3.891,4.848,2.475,7.625l-6.035,11.833c-1.416,2.777-4.848,3.89-7.623,2.474L225.264-6.641
						c-2.777-1.417-3.891-4.847-2.473-7.625L228.824-26.099z"/>
					
						<path fill="none" stroke="#000000" stroke-width="4.5341" stroke-linecap="round" stroke-linejoin="round" stroke-miterlimit="10" d="
						M228.824-26.099c1.418-2.777,4.848-3.891,7.625-2.475l77.936,39.747c2.777,1.417,3.891,4.848,2.475,7.625l-6.035,11.833
						c-1.416,2.777-4.848,3.89-7.623,2.474L225.264-6.641c-2.777-1.417-3.891-4.847-2.473-7.625L228.824-26.099z"/>
				</g>
			</g>
		</g>
		<g>
			<defs>
				<rect id="SVGID_49_" width="405.688" height="228.21"/>
			</defs>
			<clipPath id="SVGID_33_">
				<use xlink:href="#SVGID_49_"  overflow="visible"/>
			</clipPath>
			<g clip-path="url(#SVGID_33_)">
				
					<path fill="#93C01F" stroke="#000000" stroke-width="4.5341" stroke-linecap="round" stroke-linejoin="round" stroke-miterlimit="10" d="
					M275.373,167.861l68.541-12.854l43.191,110.763l-75.25,14.113c0,0-14.654-31.254-21.146-30.038
					c-6.494,1.218-6.287,31.945-8.826,35.659c-2.541,3.714-71.415,16.74-75.252,14.113c-3.84-2.625,0.123-118.887,0.123-118.887
					l68.541-12.854L275.373,167.861z"/>
				
					<path fill="#93C01F" stroke="#000000" stroke-width="4.5341" stroke-linecap="round" stroke-linejoin="round" stroke-miterlimit="10" d="
					M343.623,155.062l-68.436,12.834l0,0l-68.434,12.834c0,0-3.963,116.261-0.125,118.887c3.839,2.626,72.713-10.399,75.252-14.113
					c2.521-3.686,2.336-33.978,8.682-35.621c6.512-0.768,17.314,27.533,21,30.055c3.713,2.54,72.625-10.273,75.252-14.114
					C389.441,261.985,343.623,155.062,343.623,155.062z"/>
				
					<line fill="none" stroke="#000000" stroke-width="4.5341" stroke-linecap="round" stroke-linejoin="round" stroke-miterlimit="10" x1="283.412" y1="210.945" x2="278.041" y2="182.309"/>
				
					<path fill="none" stroke="#000000" stroke-width="4.5341" stroke-linecap="round" stroke-linejoin="round" stroke-miterlimit="10" d="
					M207.881,232.358c24.719-4.636,47.707-26.673,44.236-45.189"/>
				
					<path fill="none" stroke="#000000" stroke-width="4.5341" stroke-linecap="round" stroke-linejoin="round" stroke-miterlimit="10" d="
					M360.891,203.664c-24.719,4.635-55.355-7.346-58.828-25.858"/>
				
					<polygon stroke="#000000" stroke-width="4.5341" stroke-linecap="round" stroke-linejoin="round" stroke-miterlimit="10" points="
					349.345,168.936 343.914,155.007 275.373,167.861 275.295,167.876 206.754,180.73 206.736,195.681 				"/>
			</g>
		</g>
		<g>
			<defs>
				<rect id="SVGID_51_" width="405.688" height="228.21"/>
			</defs>
			<clipPath id="SVGID_35_">
				<use xlink:href="#SVGID_51_"  overflow="visible"/>
			</clipPath>
			
				<path clip-path="url(#SVGID_35_)" fill="#7E4E24" stroke="#000000" stroke-width="4.5341" stroke-linecap="round" stroke-linejoin="round" stroke-miterlimit="10" d="
				M-24.922,61.409c1.529,0.748,3.381,1.164,4.975,1.119c1.693-0.029,4.631-0.148,6.793-0.241c2.941-0.121,84.623-4.339,94.01-4.856
				c0.78-0.046,1.455-0.081,2.064-0.111c0.434-0.021,0.861-0.101,1.275-0.22l3.344,5.148c-0.031,0.118-0.064,0.236-0.096,0.357
				c-1.582,5.989-4.875,18.45,7.344,25.249c5.592,3.112,12.152,3.243,18.473,0.369c6.285-2.856,11.254-8.286,12.363-13.505
				c0.65-3.063-1.305-6.073-4.365-6.723c-3.063-0.651-6.072,1.303-6.723,4.364c-0.238,1.125-2.438,3.94-5.969,5.545
				c-2.094,0.953-5.23,1.734-8.27,0.044c-3.865-2.15-3.863-4.993-1.895-12.447c0.285-1.08,0.557-2.102,0.77-3.106
				c0.313-1.469,0.029-3.004-0.789-4.265l-4.793-7.38c0.141-0.211,0.268-0.435,0.377-0.665c0.111-0.229,0.227-0.479,0.355-0.754
				c0.326-0.704,0.721-1.544,1.17-2.506c0.576-1.235,1.248-2.668,1.988-4.264c2.873-6.156,27.598-59.55,32.723-71.08
				c1.457-3.27,2.633-5.979,3.313-7.643c0.961-2.354,1.461-4.576,1.443-6.421c0-0.021,0-0.044-0.002-0.065
				c-0.029-1.376-0.287-2.487-0.811-3.48c-0.125-0.241-0.266-0.472-0.422-0.692c-0.59-0.831-1.24-1.303-1.68-1.586
				c-0.064-0.042-0.129-0.083-0.195-0.121c-0.801-0.472-1.75-0.792-2.75-0.932c-1.923-0.292-4.15,0.151-5.719,1.147
				c-0.004,0.001-0.006,0.004-0.01,0.006c-0.064,0.038-0.127,0.079-0.189,0.12c-1.189,0.779-2.992,1.948-5.309,3.454
				c-7.877,5.107-21.629,14.029-37.609,24.391C58.313-6.111,32.207,10.813,11.592,24.201C-9.082,37.623-19.764,44.579-23.03,46.745
				c-2.987,1.973-5.091,4.164-5.954,6.196c-0.781,1.732-0.652,3.776,0.414,5.417C-27.801,59.543-26.441,60.681-24.922,61.409z
				 M17.766,33.707c20.613-13.385,46.717-30.31,68.666-44.54c13.215-8.565,24.924-16.158,33.023-21.413
				c-5.863,13.084-29.447,64.014-32.25,70.021c-0.74,1.596-1.408,3.021-1.98,4.247c-0.295,0.63-0.564,1.208-0.809,1.732l-3.59,2.325
				c-0.201,0.011-0.41,0.022-0.623,0.036c-8.064,0.443-69.891,3.641-88.58,4.586C-1.264,46.063,8.791,39.533,17.766,33.707z"/>
		</g>
	</g>
</g>
</svg>
