<?xml version="1.0" encoding="utf-8"?>
<!-- Generator: Adobe Illustrator 16.0.0, SVG Export Plug-In . SVG Version: 6.00 Build 0)  -->
<!DOCTYPE svg PUBLIC "-//W3C//DTD SVG 1.1//EN" "http://www.w3.org/Graphics/SVG/1.1/DTD/svg11.dtd">
<svg version="1.1" xmlns="http://www.w3.org/2000/svg" xmlns:xlink="http://www.w3.org/1999/xlink" x="0px" y="0px"
	 width="405.631px" height="228.211px" viewBox="0 0 405.631 228.211" enable-background="new 0 0 405.631 228.211"
	 xml:space="preserve">
<g id="ozadje" display="none">
</g>
<g id="Layer_1">
	<g>
		<defs>
			<rect id="SVGID_9_" width="405.631" height="228.211"/>
		</defs>
		<clipPath id="SVGID_23_">
			<use xlink:href="#SVGID_9_"  overflow="visible"/>
		</clipPath>
		<rect id="SVGID_8_" clip-path="url(#SVGID_23_)" fill="#F7BD3A" width="405.631" height="228.211"/>
		<g clip-path="url(#SVGID_23_)">
			
				<polygon fill="#28348A" stroke="#000000" stroke-width="4.059" stroke-linecap="round" stroke-linejoin="round" stroke-miterlimit="10" points="
				64.092,153.985 71.25,143.571 82.043,151.045 74.887,161.458 			"/>
			
				<polygon fill="#0073B3" stroke="#000000" stroke-width="4.059" stroke-linecap="round" stroke-linejoin="round" stroke-miterlimit="10" points="
				66.943,128.063 71.051,143.421 64.119,153.507 48.264,155.043 			"/>
			
				<polygon fill="#57B2E5" stroke="#000000" stroke-width="4.059" stroke-linecap="round" stroke-linejoin="round" stroke-miterlimit="10" points="
				66.943,128.063 -28.264,57.489 -36.014,49.29 -62.043,85.662 -51.402,90.703 48.264,155.043 			"/>
		</g>
		<g clip-path="url(#SVGID_23_)">
			
				<rect x="113.001" y="171.355" transform="matrix(-0.3242 -0.946 0.946 -0.3242 -18.2208 369.9509)" fill="#FFFFFF" stroke="#000000" stroke-width="4.059" stroke-linecap="round" stroke-linejoin="round" stroke-miterlimit="10" width="20.068" height="40.258"/>
			
				<line fill="none" stroke="#000000" stroke-width="3.0443" stroke-linecap="round" stroke-linejoin="round" stroke-miterlimit="10" x1="131.209" y1="178.077" x2="137.713" y2="197.063"/>
			
				<line fill="none" stroke="#000000" stroke-width="3.0443" stroke-linecap="round" stroke-linejoin="round" stroke-miterlimit="10" x1="123.592" y1="180.688" x2="130.096" y2="199.671"/>
			
				<line fill="none" stroke="#000000" stroke-width="3.0443" stroke-linecap="round" stroke-linejoin="round" stroke-miterlimit="10" x1="115.975" y1="183.297" x2="122.479" y2="202.281"/>
			
				<line fill="none" stroke="#000000" stroke-width="3.0443" stroke-linecap="round" stroke-linejoin="round" stroke-miterlimit="10" x1="108.357" y1="185.907" x2="114.861" y2="204.892"/>
			
				<rect x="65.302" y="137.016" transform="matrix(-0.3242 -0.946 0.946 -0.3242 -116.2636 356.6626)" fill="#D45F14" stroke="#000000" stroke-width="4.059" stroke-linecap="round" stroke-linejoin="round" stroke-miterlimit="10" width="7.928" height="165.688"/>
			
				<path fill="#FFFFFF" stroke="#000000" stroke-width="4.059" stroke-linecap="round" stroke-linejoin="round" stroke-miterlimit="10" d="
				M102.367,187.008l31.83-10.905c0,0,6.176-3.648,3.229-15.471c0,0-2.244,3.642-5.844,4.875l-22.449,8.267
				C109.133,173.773,99.254,177.924,102.367,187.008z"/>
		</g>
		<g clip-path="url(#SVGID_23_)">
			
				<path fill="#009D73" stroke="#000000" stroke-width="4.059" stroke-linecap="round" stroke-linejoin="round" stroke-miterlimit="10" d="
				M291.809,69.638c-0.619-0.573-1.271-1.084-1.953-1.539c-1.182-0.786-1.941-1.388-2.314-1.977
				c-1.627-2.572,4.164-4.841,14.465-20.67c-3.109-0.011-5.896-0.206-8.279-0.636c-1.148-0.208-2.262-0.447-3.34-0.68
				c-0.404-0.088-0.809-0.174-1.211-0.258c-0.844,2.955-2.057,6.079-4.455,9.682c-4.375,6.574-13.775,14.307-17.115,17.911
				c-5.674,6.126-6.52,14.896-2.537,21.194c0.705,1.113,1.555,2.146,2.559,3.075c6.688,6.196,17.523,5.376,24.201-1.834
				c5.676-6.127,6.521-14.896,2.537-21.194C293.664,71.602,292.811,70.567,291.809,69.638z M286.697,89.155
				c-3.846,4.153-10.09,4.626-13.941,1.056c-0.578-0.536-1.07-1.131-1.475-1.772c-2.295-3.628-1.809-8.68,1.461-12.212
				c3.846-4.152,10.088-4.627,13.941-1.056c0.578,0.535,1.07,1.131,1.475,1.772C290.453,80.57,289.967,85.624,286.697,89.155z"/>
			
				<path fill="#C8C8C8" stroke="#000000" stroke-width="4.059" stroke-linecap="round" stroke-linejoin="round" stroke-miterlimit="10" d="
				M347.377-26.104l-33.059,53.77l-19.988,2.173c6.572-12.17,17.596-27.668,27.59-42.995
				C329.709-25.105,338.924-28.467,347.377-26.104z"/>
			
				<path fill="#C8C8C8" stroke="#000000" stroke-width="4.059" stroke-linecap="round" stroke-linejoin="round" stroke-miterlimit="10" d="
				M290.43,43.938c1.064,0.229,2.127,0.458,3.219,0.655c12.859,2.326,38.906-2.666,63.818-6.045
				c14.133-1.918,21.121-8.8,22.609-17.45l-85.586,9.297"/>
			<circle cx="300.652" cy="37.097" r="2.653"/>
			
				<path fill="#009D73" stroke="#000000" stroke-width="4.059" stroke-linecap="round" stroke-linejoin="round" stroke-miterlimit="10" d="
				M265.633,35.085c-0.373-0.589-0.592-1.532-0.795-2.937c-0.117-0.812-0.299-1.62-0.553-2.425c-0.41-1.303-0.979-2.517-1.682-3.63
				c-3.984-6.3-12.268-9.295-20.238-6.794c-9.371,2.943-14.758,12.381-12.029,21.079c0.408,1.304,0.98,2.519,1.682,3.628
				c3.984,6.3,12.268,9.295,20.238,6.796c4.688-1.472,15.701-6.647,23.518-7.78c5.729-0.834,9.777-0.123,13.648,0.699l5.068-13.327
				C272.416,32.795,267.367,37.83,265.633,35.085z M250.158,44.126c-4.59,1.442-9.365-0.285-11.658-3.914
				c-0.404-0.639-0.732-1.339-0.969-2.092c-1.57-5.012,1.531-10.447,6.932-12.144c4.592-1.439,9.365,0.285,11.66,3.913
				c0.404,0.641,0.732,1.34,0.967,2.092C258.664,36.995,255.561,42.43,250.158,44.126z"/>
		</g>
		<g clip-path="url(#SVGID_23_)">
			<g>
				
					<path fill="#7E4E24" stroke="#000000" stroke-width="4.3749" stroke-linecap="round" stroke-linejoin="round" stroke-miterlimit="10" d="
					M239.74,128.212c-8.736-30.082-32.668-49.575-53.447-43.54c-20.781,6.036-30.545,35.315-21.807,65.397
					c7.217,24.846,24.797,42.467,42.408,44.447c5.463,25.706,9.984,48.778,11.203,52.976c2.611,8.991,31.43,1.573,28.563-8.295
					c-1.951-6.717-12.729-31.86-20.158-49.794C241.221,178.781,247.168,153.788,239.74,128.212z M214.059,180.271
					c-15.693,4.558-33.762-10.163-40.359-32.878c-6.598-22.717,0.775-44.824,16.469-49.383
					c15.691-4.558,33.762,10.161,40.359,32.878C237.125,153.603,229.752,175.713,214.059,180.271z"/>
				
					<ellipse transform="matrix(0.9603 -0.2789 0.2789 0.9603 -30.7872 61.8928)" opacity="0.3" fill="#FFFFFF" stroke="#000000" stroke-width="4.3749" stroke-linecap="round" stroke-linejoin="round" stroke-miterlimit="10" cx="202.113" cy="139.14" rx="29.588" ry="42.83"/>
			</g>
			<g>
				
					<path fill="none" stroke="#000000" stroke-width="4.3749" stroke-linecap="round" stroke-linejoin="round" stroke-miterlimit="10" d="
					M184.287,129.563c0,0,3.316-11.603,3.557-11.321"/>
				
					<path fill="none" stroke="#000000" stroke-width="4.3749" stroke-linecap="round" stroke-linejoin="round" stroke-miterlimit="10" d="
					M191.439,126.44c0,0,1.451-4.847,1.555-4.729"/>
			</g>
		</g>
		<g clip-path="url(#SVGID_23_)">
			<g>
				<path fill="#57B2E5" d="M372.568,153.604c-1.89,7.267-9.381,11.666-16.647,9.776l-9.143-2.376
					c-7.267-1.89-11.666-9.381-9.776-16.647l0.922-3.548c1.89-7.267,9.381-11.666,16.647-9.776l9.143,2.377
					c7.267,1.89,11.666,9.381,9.776,16.647L372.568,153.604z"/>
				
					<path fill="none" stroke="#000000" stroke-width="3.8528" stroke-linecap="round" stroke-linejoin="round" stroke-miterlimit="10" d="
					M372.568,153.604c-1.89,7.267-9.381,11.666-16.647,9.776l-9.143-2.376c-7.267-1.89-11.666-9.381-9.776-16.647l0.922-3.548
					c1.89-7.267,9.381-11.666,16.647-9.776l9.143,2.377c7.267,1.89,11.666,9.381,9.776,16.647L372.568,153.604z"/>
			</g>
			<g>
				<path fill="#0073B3" d="M382.565,157.366c7.267,1.89,11.666,9.381,9.776,16.647l-19.854,76.361
					c-1.89,7.267-9.381,11.666-16.647,9.776l-56.129-14.594c-7.267-1.89-11.666-9.381-9.776-16.647l19.854-76.36
					c1.89-7.267,9.381-11.666,16.647-9.776L382.565,157.366z"/>
				
					<path fill="none" stroke="#000000" stroke-width="3.8528" stroke-linecap="round" stroke-linejoin="round" stroke-miterlimit="10" d="
					M382.565,157.366c7.267,1.89,11.666,9.381,9.776,16.647l-19.854,76.361c-1.89,7.267-9.381,11.666-16.647,9.776l-56.129-14.594
					c-7.267-1.89-11.666-9.381-9.776-16.647l19.854-76.36c1.89-7.267,9.381-11.666,16.647-9.776L382.565,157.366z"/>
			</g>
			
				<rect x="353.573" y="119.185" transform="matrix(0.9678 0.2516 -0.2516 0.9678 43.2462 -86.7344)" stroke="#000000" stroke-width="3.8528" stroke-linecap="round" stroke-linejoin="round" stroke-miterlimit="10" width="14.498" height="13.148"/>
			
				<path fill="#FFFFFF" stroke="#000000" stroke-width="4.8159" stroke-linecap="round" stroke-linejoin="round" stroke-miterlimit="10" d="
				M380.188,122.956l-30.02-7.805c0,0-12.602-7.806-23.166-6.024"/>
			<g>
				
					<line fill="none" stroke="#000000" stroke-width="3.8528" stroke-linecap="round" stroke-linejoin="round" stroke-miterlimit="10" x1="305.281" y1="169.881" x2="387.756" y2="191.325"/>
			</g>
			<g>
				
					<line fill="none" stroke="#000000" stroke-width="3.8528" stroke-linecap="round" stroke-linejoin="round" stroke-miterlimit="10" x1="296.42" y1="203.972" x2="378.893" y2="225.415"/>
			</g>
		</g>
		<g clip-path="url(#SVGID_23_)">
			
				<path fill="#FFFFFF" stroke="#000000" stroke-width="4" stroke-linecap="round" stroke-linejoin="round" stroke-miterlimit="10" d="
				M100.508,92.814C89.822,97.271,80.746,77.39,68.906,61.835C53.572,41.689,40.127,21.66,51.693,9.008
				C61.75-3.027,71.086,6.346,82.646,1.522s30.174-30.029,42.244-3.549c4.076,8.944,4.871,21.725,7.816,33.195
				c5.775,22.491,12.252,43.102,2.49,47.174c-9.758,4.071-21.293-35.581-33.971-30.292C88.547,53.34,111.191,88.358,100.508,92.814z
				"/>
			
				<line fill="#FFFFFF" stroke="#000000" stroke-width="4" stroke-linecap="round" stroke-linejoin="round" stroke-miterlimit="10" x1="75.205" y1="22.721" x2="104.824" y2="-12.541"/>
		</g>
	</g>
</g>
</svg>
