<?xml version="1.0" encoding="utf-8"?>
<!-- Generator: Adobe Illustrator 16.0.0, SVG Export Plug-In . SVG Version: 6.00 Build 0)  -->
<!DOCTYPE svg PUBLIC "-//W3C//DTD SVG 1.1//EN" "http://www.w3.org/Graphics/SVG/1.1/DTD/svg11.dtd">
<svg version="1.1" xmlns="http://www.w3.org/2000/svg" xmlns:xlink="http://www.w3.org/1999/xlink" x="0px" y="0px"
	 width="405.688px" height="228.211px" viewBox="0 0 405.688 228.211" enable-background="new 0 0 405.688 228.211"
	 xml:space="preserve">
<g id="ozadje" display="none">
</g>
<g id="Layer_1">
	<g>
		<defs>
			<rect id="SVGID_2_" width="405.688" height="228.211"/>
		</defs>
		<clipPath id="SVGID_23_">
			<use xlink:href="#SVGID_2_"  overflow="visible"/>
		</clipPath>
		<g clip-path="url(#SVGID_23_)">
			<rect id="SVGID_1_" fill="#F5FAFD" width="405.688" height="228.211"/>
		</g>
		<rect y="-0.001" clip-path="url(#SVGID_23_)" fill="none" width="405.688" height="228.213"/>
		<g clip-path="url(#SVGID_23_)">
			
				<circle fill="#37A6DE" stroke="#000000" stroke-width="4" stroke-linecap="round" stroke-linejoin="round" stroke-miterlimit="10" cx="311.338" cy="54.479" r="9.177"/>
			
				<circle fill="#37A6DE" stroke="#000000" stroke-width="4" stroke-linecap="round" stroke-linejoin="round" stroke-miterlimit="10" cx="332.545" cy="77.515" r="7.801"/>
			
				<circle fill="#37A6DE" stroke="#000000" stroke-width="4" stroke-linecap="round" stroke-linejoin="round" stroke-miterlimit="10" cx="289.594" cy="102.493" r="7.801"/>
			
				<circle fill="#37A6DE" stroke="#000000" stroke-width="4" stroke-linecap="round" stroke-linejoin="round" stroke-miterlimit="10" cx="337.495" cy="132.294" r="7.801"/>
			
				<path fill="#37A6DE" stroke="#000000" stroke-width="4" stroke-linecap="round" stroke-linejoin="round" stroke-miterlimit="10" d="
				M305.868,145.953c0,5.211,4.225,9.438,9.438,9.438c5.211,0,9.439-4.227,9.439-9.438c0-5.215-4.229-9.439-9.439-9.439
				C310.092,136.514,305.868,140.738,305.868,145.953z"/>
			
				<path fill="#37A6DE" stroke="#000000" stroke-width="4" stroke-linecap="round" stroke-linejoin="round" stroke-miterlimit="10" d="
				M308.243,127.077c0,6.784,5.491,12.28,12.274,12.28s12.277-5.496,12.277-12.28c0-6.781-5.494-12.28-12.277-12.28
				S308.243,120.296,308.243,127.077z"/>
		</g>
		<g clip-path="url(#SVGID_23_)">
			
				<path fill="#FFFFFF" stroke="#000000" stroke-width="4.5" stroke-linecap="round" stroke-linejoin="round" stroke-miterlimit="10" d="
				M-11.893,186.213c-12.022,0-12.566-11.738-3.26-11.738c6.004,0,94.288,0,156.23,0c34.104,0,60.228,0,60.228,0
				c61.94,0,150.229,0,156.229,0c4.651,0,6.371,1.923,6.371,5.869c0,3.947-2.104,5.869-8.113,5.869H-11.893z"/>
			
				<path fill="#FFFFFF" stroke="#000000" stroke-width="4.5" stroke-linecap="round" stroke-linejoin="round" stroke-miterlimit="10" d="
				M354.273,186.213l-19.559,70.411c0,0-14.342,41.075-52.156,41.075v18.297H270.17l-3.373-15.604h-65.49h-60.228H75.586
				l-3.37,15.604H59.825V297.7c-37.813,0-52.157-41.076-52.157-41.076l-19.563-70.411H354.273z"/>
		</g>
		<rect y="-0.001" clip-path="url(#SVGID_23_)" fill="#32BCAD" width="268.344" height="228.213"/>
		<g clip-path="url(#SVGID_23_)">
			<g>
				<rect x="87.934" y="67.869" fill="#F5FAFD" width="92.477" height="92.473"/>
			</g>
		</g>
		
			<line clip-path="url(#SVGID_23_)" fill="none" stroke="#000000" stroke-width="4.5" stroke-linecap="round" stroke-linejoin="round" stroke-miterlimit="10" x1="267.52" y1="-38.956" x2="267.52" y2="281.414"/>
	</g>
</g>
</svg>
