<?xml version="1.0" encoding="utf-8"?>
<!-- Generator: Adobe Illustrator 16.0.0, SVG Export Plug-In . SVG Version: 6.00 Build 0)  -->
<!DOCTYPE svg PUBLIC "-//W3C//DTD SVG 1.1//EN" "http://www.w3.org/Graphics/SVG/1.1/DTD/svg11.dtd">
<svg version="1.1" xmlns="http://www.w3.org/2000/svg" xmlns:xlink="http://www.w3.org/1999/xlink" x="0px" y="0px"
	 width="405.631px" height="228.21px" viewBox="0 0 405.631 228.21" enable-background="new 0 0 405.631 228.21"
	 xml:space="preserve">
<g id="ozadje" display="none">
</g>
<g id="Layer_1">
	<g>
		<defs>
			<rect id="SVGID_19_" width="405.631" height="228.21"/>
		</defs>
		<clipPath id="SVGID_23_">
			<use xlink:href="#SVGID_19_"  overflow="visible"/>
		</clipPath>
		<rect id="SVGID_18_" clip-path="url(#SVGID_23_)" fill="#48B2E5" width="405.631" height="228.21"/>
		<g clip-path="url(#SVGID_23_)">
			<path fill="#8BC53F" stroke="#000000" stroke-width="4.5" stroke-miterlimit="10" d="M157.205,251.222
				c21.633-20.245,31.289-51.681,22.297-82.022L24.522,215.126c8.991,30.342,34.217,51.44,63.388,56.631L157.205,251.222z"/>
			<path fill="#7FB439" stroke="#000000" stroke-width="4.5" stroke-miterlimit="10" d="M176.375,156.458
				c3.596-1.065,7.375,0.986,8.439,4.58c1.066,3.597-0.986,7.376-4.581,8.44L24.063,215.758c-3.596,1.065-7.374-0.985-8.439-4.581
				c-1.064-3.595,0.984-7.374,4.581-8.439L176.375,156.458z"/>
		</g>
		<g clip-path="url(#SVGID_23_)">
			<g>
				
					<path fill="#90278E" stroke="#000000" stroke-width="4.5" stroke-linecap="round" stroke-linejoin="round" stroke-miterlimit="10" d="
					M-35.995,81.197c1.329,31.124,20.374,57.298,46.987,69.243l0.488,11.44c0,0,15.215,1.973,35.475,1.107
					c20.261-0.865,35.615-4.144,35.615-4.144l-0.489-11.44c25.499-14.171,42.244-41.873,40.915-72.997
					c0,0-47.738,9.909-79.158,11.25C12.417,87-35.995,81.197-35.995,81.197z"/>
				
					<path fill="#90278E" stroke="#000000" stroke-width="4.5" stroke-linecap="round" stroke-linejoin="round" stroke-miterlimit="10" d="
					M106.713,98.361c-3.268,11.556-19.203,29.879-25.225,32.672"/>
			</g>
			<g>
				
					<path fill="#CB78A6" stroke="#000000" stroke-width="4.5" stroke-linecap="round" stroke-linejoin="round" stroke-miterlimit="10" d="
					M-35.806,81.184c17.647,6.652,47.358,10.277,79.923,8.888c32.547-1.391,61.818-7.528,78.84-15.655
					c-17.648-6.651-47.357-10.278-79.923-8.888C10.486,66.918-18.785,73.058-35.806,81.184z"/>
			</g>
		</g>
		<path clip-path="url(#SVGID_23_)" fill="none" stroke="#1D1D1B" stroke-width="4.5" stroke-miterlimit="10" d="M336.554,246.191
			c-3.325-15.221-10.913-28.823-20.569-40.907c-1.517-1.898-2.959-3.794-4.338-5.691c5.566-3.102,9.335-9.04,9.335-15.863
			c0-10.03-8.13-18.158-18.159-18.158c-1.954,0-3.833,0.318-5.6,0.89c-0.625-5.517-0.407-11.341,0.843-17.612
			c0.192-0.952-0.303-1.673-0.978-2.016c0.131-0.521-0.012-1.098-0.616-1.424c-3.669-1.995-7.784-2.852-11.929-2.829v-0.015
			c-0.073-0.004-0.147,0.008-0.218,0.008c-0.073,0-0.147-0.012-0.218-0.008v0.015c-4.146-0.022-8.262,0.834-11.929,2.829
			c-0.606,0.326-0.749,0.903-0.618,1.424c-0.676,0.343-1.17,1.063-0.979,2.016c1.251,6.271,1.469,12.096,0.844,17.612
			c-1.766-0.571-3.646-0.89-5.6-0.89c-10.029,0-18.159,8.128-18.159,18.158c0,6.823,3.769,12.762,9.335,15.863
			c-1.379,1.897-2.822,3.793-4.336,5.691c-9.657,12.084-17.248,25.687-20.571,40.907c-5.53,25.324,1.794,54.145,23.258,70.057
			c8.68,6.436,49.265,6.436,57.94,0C334.761,300.336,342.083,271.516,336.554,246.191z M265.826,192.293
			c-4.732,0-8.565-3.833-8.565-8.563c0-4.731,3.833-8.568,8.565-8.568c4.73,0,8.564,3.837,8.564,8.568
			C274.391,188.46,270.557,192.293,265.826,192.293z M302.822,192.293c-4.73,0-8.565-3.833-8.565-8.563
			c0-4.731,3.835-8.568,8.565-8.568c4.732,0,8.565,3.837,8.565,8.568C311.388,188.46,307.555,192.293,302.822,192.293z"/>
		<g clip-path="url(#SVGID_23_)">
			<g>
				<g>
					
						<path fill="#FFFFFF" stroke="#010101" stroke-width="4.5" stroke-linecap="round" stroke-linejoin="round" stroke-miterlimit="10" d="
						M288.772,84.459c-2.54-4.477-6.968-7.942-12.471-9.753c-1.687-0.556-3.358-0.879-5.257-1.018l-3.353-0.246l1.071-3.185
						c0.49-1.455,0.998-2.977,1.522-4.567c1.606-4.88-1.789-10.602-9.817-16.543c-7.131-5.279-17.584-9.198-28.821-12.897
						c-11.232-3.698-21.972-6.754-30.849-6.745c-9.988,0.011-16.117,2.598-17.723,7.478c-5.855,17.785-9.891,32.094-10.555,44.117
						c-0.627,11.438,1.684,21.117,7.724,32.367c3.609,6.726,10.846,12.034,20.927,15.354c10.082,3.319,19.058,3.346,25.957,0.08
						c8.805-4.167,15.474-9.176,21.619-16.239l0.065-0.07c0.972-1.042,2.313-1.148,3.237-1.136c1.895,0.023,4.137,0.685,5.879,1.258
						c0.753,0.248,1.521,0.52,2.279,0.787l0.44,0.154c0.787,0.281,1.696,0.605,2.541,0.884c5.406,1.779,11.263,1.155,16.491-1.757
						c4.922-2.738,8.735-7.317,10.463-12.564C291.938,94.769,291.451,89.174,288.772,84.459z M266.852,102.585
						c-0.232-0.05-0.488-0.122-0.781-0.218l-0.048-0.016c-0.785-0.259-1.72-0.635-2.71-1.035c-1.17-0.472-2.496-1.006-3.821-1.442
						c-0.896-0.294-1.729-0.524-2.51-0.686c1.774-3.657,4.071-8.399,5.135-10.904c2.756-2.325,6.47-2.945,10.274-1.693
						c5.121,1.686,7.315,5.318,5.869,9.715C276.744,100.907,271.732,103.666,266.852,102.585z"/>
				</g>
				
					<polygon fill="#FFCF00" stroke="#000000" stroke-width="4.5" stroke-linecap="round" stroke-linejoin="round" stroke-miterlimit="10" points="
					184.309,89.728 189.648,73.503 199.688,70.284 205.851,78.836 200.51,95.061 				"/>
				
					<path fill="none" stroke="#010101" stroke-width="4.5" stroke-linecap="round" stroke-linejoin="round" stroke-miterlimit="10" d="
					M199.756,70.308l4.266-12.958c0,0,1.432-6.458,7.623-4.42"/>
			</g>
			
				<ellipse transform="matrix(-0.9499 -0.3127 0.3127 -0.9499 429.3791 164.311)" fill="#FFFFFF" stroke="#000000" stroke-width="4.5" stroke-linecap="round" stroke-linejoin="round" stroke-miterlimit="10" cx="227.864" cy="47.729" rx="45.821" ry="12.743"/>
			<g>
				
					<path fill="#F8B133" stroke="#000000" stroke-width="4.5" stroke-linecap="round" stroke-linejoin="round" stroke-miterlimit="10" d="
					M253.75,64.797c-4.324-4.73-13.762-10.513-26.802-14.806c-13.203-4.345-24.347-5.273-30.596-3.967
					c4.92,5.11,15.29,9.728,27.182,13.643C235.565,63.628,246.78,66.062,253.75,64.797z"/>
			</g>
		</g>
		<g clip-path="url(#SVGID_23_)">
			<path opacity="0.5" fill="#FFFFFF" d="M410.969,105.437c-3.646-4.068-19.744-2.783-39.398,6.387
				c-19.654,9.171-30.981,20.682-30.207,26.091c0.052,0.305,0.13,0.582,0.251,0.843c0.048,0.081,0.091,0.171,0.134,0.261
				l0.326,0.556c0.258,0.134,0.539,0.254,0.828,0.367l-0.5,0.239l47.807,80.754l0.997,1.715c1.846,3.077,6.089,6.515,15.814,5.318
				c7.268-0.894,14.204-3.845,16.356-4.849l0.137-0.064c2.151-1.004,8.867-4.423,14.222-9.42c7.164-6.684,7.265-12.138,6.091-15.518
				l-0.729-2.027l-31.302-88.872c-0.009-0.026-0.023-0.055-0.034-0.082c0.006-0.03,0.018-0.063,0.024-0.095l-0.154-0.438
				c-0.036-0.063-0.06-0.127-0.085-0.199C411.334,105.914,411.176,105.67,410.969,105.437z"/>
			<g>
				<path fill="#E69F00" d="M389.743,170.443c2.622-0.806,5.245-1.776,7.763-2.951c2.695-1.257,5.287-2.755,7.731-4.368
					c-2.519,1.463-5.214,2.876-8.036,4.192C394.69,168.487,392.191,169.529,389.743,170.443z"/>
				<path fill="#E69F00" d="M423.483,147.103c-2.263,4.703-9.096,10.705-18.246,16.021c-2.444,1.613-5.036,3.111-7.731,4.368
					c-2.518,1.175-5.141,2.146-7.763,2.951c-10.659,3.976-20.33,5.453-25.421,3.889c-0.893,0.02-1.385,0.02-1.378,0.029
					l27.265,46.572l0.997,1.715c1.846,3.077,6.089,6.515,15.814,5.318c7.268-0.894,14.204-3.845,16.356-4.849l0.137-0.064
					c2.151-1.004,8.867-4.423,14.222-9.42c7.164-6.684,7.265-12.138,6.091-15.518l-0.729-2.027l-18.137-50.664
					C424.957,145.409,424.438,146.038,423.483,147.103z"/>
				<path fill="#E69F00" d="M397.201,167.316c2.822-1.316,5.518-2.729,8.036-4.192c9.15-5.316,15.983-11.318,18.246-16.021
					c0.315-0.653,0.544-1.283,0.677-1.881l-0.138-0.386c-0.031-0.055-0.052-0.111-0.073-0.175c-0.188-0.429-0.327-0.643-0.509-0.849
					c-3.201-3.571-17.335-2.443-34.59,5.607c-17.259,8.053-27.204,18.16-26.522,22.908c0.044,0.268,0.112,0.513,0.219,0.74
					c0.043,0.071,0.08,0.15,0.117,0.23l0.287,0.485c0.408,0.214,0.87,0.394,1.371,0.548c5.091,1.564,14.762,0.087,25.421-3.889
					C392.191,169.529,394.69,168.487,397.201,167.316z"/>
			</g>
			
				<path fill="#E69F00" stroke="#000000" stroke-width="4.5" stroke-linecap="round" stroke-linejoin="round" stroke-miterlimit="10" d="
				M362.328,172.328c-0.682-4.748,9.264-14.855,26.522-22.908c17.255-8.051,31.389-9.179,34.59-5.607
				c0.182,0.206,0.321,0.42,0.509,0.849c0.021,0.063,0.042,0.12,0.073,0.175l0.138,0.386c-1.341,6.082-12.453,15.327-26.959,22.095
				c-14.506,6.769-28.731,9.348-34.25,6.468l-0.287-0.485c-0.037-0.08-0.074-0.159-0.117-0.23
				C362.44,172.841,362.372,172.596,362.328,172.328z"/>
			
				<path fill="none" stroke="#000000" stroke-width="4.5" stroke-linecap="round" stroke-linejoin="round" stroke-miterlimit="10" d="
				M411.344,106.241c-1.518,6.887-14.099,17.353-30.524,25.017c-16.423,7.663-32.53,10.583-38.778,7.324"/>
			
				<path fill="none" stroke="#000000" stroke-width="4.5" stroke-linecap="round" stroke-linejoin="round" stroke-miterlimit="10" d="
				M410.969,105.437c-3.646-4.068-19.744-2.783-39.398,6.387c-19.654,9.171-30.981,20.682-30.207,26.091
				c0.052,0.305,0.13,0.582,0.251,0.843c0.048,0.081,0.091,0.171,0.134,0.261l0.654,1.162l47.807,80.754l0.997,1.715
				c1.846,3.077,6.089,6.515,15.814,5.318c7.268-0.894,14.204-3.845,16.356-4.849l0.137-0.064c2.151-1.004,8.867-4.423,14.222-9.42
				c7.164-6.684,7.265-12.138,6.091-15.518l-0.729-2.027l-31.302-88.872c-0.009-0.026-0.023-0.055-0.034-0.082
				c0.006-0.03,0.018-0.063,0.024-0.095l-0.154-0.438c-0.036-0.063-0.06-0.127-0.085-0.199
				C411.334,105.914,411.176,105.67,410.969,105.437z"/>
		</g>
		<g clip-path="url(#SVGID_23_)">
			
				<path fill="#009D73" stroke="#000000" stroke-width="4.5" stroke-linecap="round" stroke-linejoin="round" stroke-miterlimit="10" d="
				M457.313-5.634c-2.237-9.069-41.007-14.461-84.538-3.72c-43.531,10.74-75.344,33.546-73.105,42.616l0.957,3.1
				c5.184,21.012,48.064,31.669,91.53,20.945c43.466-10.725,69.926-42.264,65.677-59.486C457.834-2.179,457.359-5.447,457.313-5.634
				z"/>
			
				<path fill="#FFFFFF" stroke="#000000" stroke-width="4.5" stroke-linecap="round" stroke-linejoin="round" stroke-miterlimit="10" d="
				M457.313-5.634c-2.237-9.069-41.007-14.461-84.538-3.72c-43.531,10.74-75.344,33.546-73.105,42.616l0.957,3.1
				c12.021,6.356,45.992,8.568,83.341-0.646c37.017-9.134,65.876-26.662,73.866-37.895l-0.435-2.885
				C457.385-5.255,457.359-5.447,457.313-5.634z"/>
		</g>
		<g clip-path="url(#SVGID_23_)">
			
				<path fill="none" stroke="#1C1C1C" stroke-width="4.5" stroke-linecap="round" stroke-linejoin="round" stroke-miterlimit="10" d="
				M63.736-9.232c5.254,28.675,32.344,48.217,61.391,43.876s49.241-30.949,45.882-59.907L63.736-9.232z"/>
			
				<path fill="none" stroke="#1C1C1C" stroke-width="4.5" stroke-linecap="round" stroke-linejoin="round" stroke-miterlimit="10" d="
				M121.248,35.082c-0.928,0.071-1.854,0.12-2.773,0.144c-0.303,1.007-0.4,2.092-0.234,3.199c0.601,4.025,4.353,6.802,8.38,6.2
				c4.025-0.602,6.802-4.354,6.2-8.38c-0.165-1.107-0.576-2.116-1.158-2.99c-0.891,0.246-1.787,0.471-2.696,0.673"/>
		</g>
	</g>
</g>
</svg>
