<?xml version="1.0" encoding="utf-8"?>
<!-- Generator: Adobe Illustrator 16.0.0, SVG Export Plug-In . SVG Version: 6.00 Build 0)  -->
<!DOCTYPE svg PUBLIC "-//W3C//DTD SVG 1.1//EN" "http://www.w3.org/Graphics/SVG/1.1/DTD/svg11.dtd">
<svg version="1.1" xmlns="http://www.w3.org/2000/svg" xmlns:xlink="http://www.w3.org/1999/xlink" x="0px" y="0px"
	 width="405.631px" height="228.211px" viewBox="0 0 405.631 228.211" enable-background="new 0 0 405.631 228.211"
	 xml:space="preserve">
<g id="ozadje" display="none">
</g>
<g id="Layer_1">
	<g>
		<defs>
			<rect id="SVGID_7_" width="405.631" height="228.211"/>
		</defs>
		<clipPath id="SVGID_23_">
			<use xlink:href="#SVGID_7_"  overflow="visible"/>
		</clipPath>
		<rect id="SVGID_6_" clip-path="url(#SVGID_23_)" fill="#4D4D4F" width="405.631" height="228.211"/>
		
			<path clip-path="url(#SVGID_23_)" fill="#A6A8AB" stroke="#000000" stroke-width="4.5" stroke-linecap="round" stroke-linejoin="round" stroke-miterlimit="10" d="
			M53.586,250.86l46.43-62.22c10.411,2.146,21.601-1.694,28.378-10.776c6.776-9.082,7.272-20.902,2.253-30.271l-3.91,5.241
			l-3.037,4.068l-5.228,7.006l-13.726-1.619l-5.459-12.697l5.227-7.006h-0.001l6.948-9.31c-10.41-2.146-21.6,1.694-28.377,10.778
			c-6.776,9.08-7.271,20.9-2.253,30.269l-46.43,62.221c-10.411-2.144-21.601,1.695-28.377,10.777
			c-6.776,9.083-7.272,20.902-2.255,30.271l3.543-4.746l3.037-4.071l5.228-7.005l13.726,1.62l5.459,12.696l-5.227,7.006l0,0
			l-6.579,8.816c10.409,2.145,21.601-1.696,28.378-10.777C58.11,272.05,58.606,260.231,53.586,250.86z"/>
		<g clip-path="url(#SVGID_23_)">
			
				<rect x="-22.972" y="-25.902" transform="matrix(0.2545 0.9671 -0.9671 0.2545 44.3829 50.3896)" fill="#AB5C2E" stroke="#000000" stroke-width="4.5" stroke-linecap="round" stroke-linejoin="round" stroke-miterlimit="10" width="24.961" height="159.767"/>
			
				<polygon fill="#A6A8AB" stroke="#000000" stroke-width="4.5" stroke-linecap="round" stroke-linejoin="round" stroke-miterlimit="10" points="
				56.822,61.272 39.264,-5.459 73.305,-14.415 90.863,52.316 84.43,84.351 74.091,87.101 			"/>
		</g>
		<g clip-path="url(#SVGID_23_)">
			
				<path fill="#F8B133" stroke="#000000" stroke-width="4.5" stroke-linecap="round" stroke-linejoin="round" stroke-miterlimit="10" d="
				M318.687,191.762l163.36-116.719l-23.32,140.039L318.687,191.762z M446.339,127.017l-66.911,47.808l57.358,9.551L446.339,127.017
				z"/>
			<g>
				
					<line fill="none" stroke="#000000" stroke-width="4.5" stroke-linecap="round" stroke-linejoin="round" stroke-miterlimit="10" x1="403.75" y1="138.138" x2="400.502" y2="133.594"/>
				
					<line fill="none" stroke="#000000" stroke-width="4.5" stroke-linecap="round" stroke-linejoin="round" stroke-miterlimit="10" x1="394.498" y1="144.75" x2="391.25" y2="140.205"/>
				
					<line fill="none" stroke="#000000" stroke-width="4.5" stroke-linecap="round" stroke-linejoin="round" stroke-miterlimit="10" x1="385.242" y1="151.361" x2="381.996" y2="146.816"/>
				
					<line fill="none" stroke="#000000" stroke-width="4.5" stroke-linecap="round" stroke-linejoin="round" stroke-miterlimit="10" x1="375.988" y1="157.973" x2="372.741" y2="153.429"/>
				
					<line fill="none" stroke="#000000" stroke-width="4.5" stroke-linecap="round" stroke-linejoin="round" stroke-miterlimit="10" x1="366.734" y1="164.586" x2="363.487" y2="160.041"/>
				
					<line fill="none" stroke="#000000" stroke-width="4.5" stroke-linecap="round" stroke-linejoin="round" stroke-miterlimit="10" x1="357.481" y1="171.198" x2="354.234" y2="166.652"/>
				
					<line fill="none" stroke="#000000" stroke-width="4.5" stroke-linecap="round" stroke-linejoin="round" stroke-miterlimit="10" x1="348.227" y1="177.811" x2="344.979" y2="173.264"/>
				
					<line fill="none" stroke="#000000" stroke-width="4.5" stroke-linecap="round" stroke-linejoin="round" stroke-miterlimit="10" x1="338.973" y1="184.423" x2="335.725" y2="179.877"/>
			</g>
		</g>
		<g clip-path="url(#SVGID_23_)">
			
				<polygon fill="#A6A8AB" stroke="#000000" stroke-width="4.5" stroke-linecap="round" stroke-linejoin="round" stroke-miterlimit="10" points="
				253.474,259.948 275.747,178.142 268.954,176.293 246.682,258.099 243.49,257.229 238.129,285.089 247.809,287.725 
				257.313,260.993 			"/>
			
				<path fill="#009CAE" stroke="#000000" stroke-width="4.5" stroke-linecap="round" stroke-linejoin="round" stroke-miterlimit="10" d="
				M293.274,100.625c-18.38-5.004-22.046,18.351-22.046,18.351l-12.93,69.797l-7.818,6.411l32.313,8.797l-3.488-9.489l24.236-66.719
				C303.541,127.772,311.654,105.629,293.274,100.625z"/>
		</g>
		<g clip-path="url(#SVGID_23_)">
			
				<path fill="#CABA9F" stroke="#000000" stroke-width="4.5" stroke-linecap="round" stroke-linejoin="round" stroke-miterlimit="10" d="
				M138.342,61.272c-2.81-9.457-2.363-17.93,0.996-18.927l35.801-10.636c3.359-0.998,8.357,5.856,11.168,15.313l12.742,42.892
				l-47.966,14.249L138.342,61.272z"/>
			
				<path fill="#E20613" stroke="#000000" stroke-width="4.5" stroke-linecap="round" stroke-linejoin="round" stroke-miterlimit="10" d="
				M168.607,128.06c3.498,0.521,7.965,3.295,10.297,11.146c2.383,8.027,1.936,15.401-0.873,17.577l10.91,36.491
				c0,0,3.975,18.913,15.055,15.623l2.671-0.794l2.559-0.76l2.669-0.793c11.082-3.293,4.085-21.309,4.085-21.309l-10.782-36.529
				c-3.54-0.289-7.943-6.223-10.327-14.249c-2.333-7.853-0.104-12.613,2.542-14.961l9.23-9.081l-6.994-23.544l-50.727,15.07
				l6.993,23.543L168.607,128.06z"/>
			
				<line fill="#0073B3" stroke="#000100" stroke-width="4.5" stroke-linecap="round" stroke-linejoin="round" stroke-miterlimit="10" x1="176.766" y1="71.928" x2="166.078" y2="35.949"/>
			
				<line fill="#0073B3" stroke="#000100" stroke-width="4.5" stroke-linecap="round" stroke-linejoin="round" stroke-miterlimit="10" x1="159.931" y1="76.929" x2="149.242" y2="40.95"/>
			
				<rect x="150.742" y="93.651" transform="matrix(-0.9586 0.2848 -0.2848 -0.9586 376.106 152.0367)" fill="#A6A8AB" stroke="#000000" stroke-width="4.5" stroke-linecap="round" stroke-linejoin="round" stroke-miterlimit="10" width="52.517" height="19.419"/>
		</g>
		
			<path clip-path="url(#SVGID_23_)" fill="#A6A8AB" stroke="#000000" stroke-width="4.5" stroke-linecap="round" stroke-linejoin="round" stroke-miterlimit="10" d="
			M12.442,118.381l-22.499,3.207l-13.641,18.176l3.207,22.499l18.177,13.641l22.499-3.207l13.641-18.177l-3.207-22.499
			L12.442,118.381z M7.231,162.346c-8.397,1.197-16.175-4.639-17.371-13.037c-1.196-8.396,4.64-16.174,13.037-17.37
			c8.396-1.197,16.174,4.64,17.371,13.036C21.466,153.372,15.627,161.149,7.231,162.346z"/>
		
			<path clip-path="url(#SVGID_23_)" fill="#A6A8AB" stroke="#000000" stroke-width="4.5" stroke-linecap="round" stroke-linejoin="round" stroke-miterlimit="10" d="
			M349.719,102.416c9.666,5.658,21.331,4.851,29.982-1.11l-5.576-3.266l-4.332-2.536l-7.454-4.366l0.085-13.658l11.869-6.755
			l7.457,4.366l0,0l9.907,5.801c0.966-10.462-4.036-21.032-13.7-26.691c-9.665-5.661-21.33-4.85-29.982,1.11L253.968,0.257
			c-0.761-5.672-4.024-10.946-9.343-14.062c-9.17-5.37-20.955-2.29-26.326,6.88c-5.369,9.169-2.289,20.954,6.881,26.326
			c5.318,3.113,11.516,3.38,16.832,1.27l94.008,55.055C335.056,86.188,340.055,96.757,349.719,102.416z M229.24-0.516
			c1.831-3.127,5.851-4.176,8.976-2.345c3.125,1.829,4.177,5.848,2.347,8.973c-1.831,3.126-5.852,4.176-8.975,2.347
			C228.461,6.627,227.41,2.608,229.24-0.516z"/>
	</g>
</g>
</svg>
