<?xml version="1.0" encoding="utf-8"?>
<!-- Generator: Adobe Illustrator 16.0.0, SVG Export Plug-In . SVG Version: 6.00 Build 0)  -->
<!DOCTYPE svg PUBLIC "-//W3C//DTD SVG 1.1//EN" "http://www.w3.org/Graphics/SVG/1.1/DTD/svg11.dtd">
<svg version="1.1" xmlns="http://www.w3.org/2000/svg" xmlns:xlink="http://www.w3.org/1999/xlink" x="0px" y="0px"
	 width="405.631px" height="228.21px" viewBox="0 0 405.631 228.21" enable-background="new 0 0 405.631 228.21"
	 xml:space="preserve">
<g id="ozadje" display="none">
</g>
<g id="Layer_1">
	<g>
		<defs>
			<rect id="SVGID_13_" width="405.631" height="228.21"/>
		</defs>
		<clipPath id="SVGID_23_">
			<use xlink:href="#SVGID_13_"  overflow="visible"/>
		</clipPath>
		<rect id="SVGID_12_" clip-path="url(#SVGID_23_)" fill="#65C8D0" width="405.631" height="228.21"/>
		
			<path clip-path="url(#SVGID_23_)" fill="#E84E1B" stroke="#000000" stroke-width="4.5" stroke-linecap="round" stroke-linejoin="round" stroke-miterlimit="10" d="
			M126.896,189.966c-3.166-13.37-10.619-23.744-22.34-31.123c-5.943-3.741-12.068-6.167-18.381-7.276
			c0.15-2.623,0.439-6.549,0.879-11.782c0.691-7.574,0.73-12.52,0.117-14.834l-14.844-5.059c-0.078,1.382-0.635,4.14-1.668,8.277
			c-0.596,2.419-1.338,4.63-2.244,6.634c-0.238,0.491-0.451,0.998-0.641,1.526c-0.078,0.234-0.973,1.606-2.686,4.101
			c-4.004-6.815-9.621-12.495-16.842-17.041c-11.727-7.383-24.303-9.617-37.729-6.691c-0.918,0.213-1.77,0.429-2.549,0.644
			c-13.533,5.141-24.508,14.394-32.922,27.759c-9.027,14.341-12.551,29.246-10.57,44.727c1.912,15.365,8.732,26.74,20.457,34.122
			c10.857,6.836,20.551,11.825,29.084,14.977c7.295,6.814,16.369,13.638,27.23,20.476c11.725,7.382,24.928,8.612,39.609,3.693
			c14.766-4.937,26.66-14.574,35.688-28.913c8.414-13.365,12.064-27.229,10.951-41.59
			C127.303,191.766,127.104,190.89,126.896,189.966z M85.805,173.804l-0.359,23.05L65.09,184.038L85.805,173.804z M50.488,184.396
			l-0.197,17.355l-15.363-9.672L50.488,184.396z M43.777,147.346l-0.35,23.055l-20.359-12.816L43.777,147.346z M25.947,231.211
			l3.939-6.258l-8.756-5.512l-3.795,6.029c-29.07-18.302-28.379-46.686-26.096-52.468c3.662,5.879,25.873,24.444,25.873,24.444
			l-4.518,7.178l10.26,6.459l3.555-5.646c4.656,3.725,9.66,6.91,15.002,9.554l-3.506,5.567l10.338,6.509l4.52-7.18
			c6.111,1.991,26.832,12.313,33.77,13.102C82.305,237.55,55.256,249.663,25.947,231.211z"/>
		<g clip-path="url(#SVGID_23_)">
			<path fill="#FFFFFF" d="M105.264,97.797c0.369,0.455,0.75,0.907,1.139,1.355c3.107,3.574,6.928,6.863,11.418,9.337
				c4.473,2.482,9.59,4.078,14.746,4.53c5.164,0.472,10.309-0.153,15.059-1.611c4.758-1.457,9.148-3.723,13.057-6.603
				c3.902-2.884,7.34-6.393,10.135-10.455c2.793-4.058,4.939-8.7,6.1-13.713c1.174-4.998,1.301-10.358,0.324-15.438
				c-0.959-5.095-2.977-9.839-5.557-13.93c-0.643-1.028-1.322-2.016-2.029-2.968c-0.354-0.476-0.711-0.945-1.08-1.4l-0.879-1.096
				l-3.422-4.245l-16.029-19.888l-0.021,0.02c-3.9-4.646-10.814-5.345-15.559-1.521c-4.715,3.801-5.52,10.641-1.887,15.436
				l-0.039,0.031l13.688,16.981l6.77,8.402c1.594,2.016,2.76,4.101,3.463,6.165c0.707,2.068,0.963,4.122,0.791,6.194
				c-0.17,2.07-0.785,4.171-1.828,6.192c-2.064,4.049-5.922,7.65-10.24,9.556c-2.154,0.965-4.398,1.518-6.549,1.63
				c-2.158,0.112-4.217-0.203-6.164-0.938c-1.949-0.733-3.816-1.903-5.572-3.514c-0.438-0.403-0.869-0.834-1.291-1.287
				c-0.211-0.227-0.42-0.463-0.625-0.702l-0.309-0.364l-0.336-0.412l-3.422-4.247l-13.686-16.98l-13.686-16.98L78.055,28.352
				l-13.686-16.98L50.682-5.61L21.209-42.18l-0.041,0.033c-0.105-0.143-0.201-0.292-0.314-0.432
				c-3.871-4.804-10.904-5.559-15.707-1.688c-4.803,3.873-5.559,10.904-1.688,15.709c0.113,0.14,0.236,0.264,0.355,0.397
				l-0.041,0.033L30.834,5.448l13.686,16.98l13.686,16.98l13.688,16.981l13.684,16.98l13.688,16.982l3.422,4.245l1.709,2.122
				L105.264,97.797z"/>
			<path fill="#FFFFFF" d="M154.658,67.187c-0.703-2.064-1.869-4.148-3.465-6.165l-6.771-8.403l19.852-11.058l3.42,4.244
				l0.881,1.097c0.369,0.455,0.729,0.924,1.08,1.399c0.707,0.953,1.385,1.94,2.029,2.968c2.578,4.091,4.598,8.835,5.555,13.929
				C169.564,64.795,161.969,65.503,154.658,67.187z"/>
			<path fill="#FFFFFF" d="M143.379,89.128c4.32-1.904,8.176-5.506,10.24-9.555c6.264,4.138,12.033,9.115,17.197,14.777
				c-2.795,4.064-6.232,7.572-10.135,10.455c-3.908,2.881-8.297,5.146-13.057,6.603C147.119,103.759,145.666,96.283,143.379,89.128z
				"/>
			<path fill="#FFFFFF" d="M119.113,79.294l3.42,4.246l0.338,0.413l0.307,0.364c0.207,0.239,0.416,0.475,0.627,0.701
				c0.42,0.457,0.852,0.884,1.289,1.288c1.758,1.611,3.623,2.78,5.572,3.513c-3.32,6.728-7.658,13.004-12.846,18.67
				c-4.49-2.474-8.311-5.763-11.418-9.338c-0.389-0.447-0.771-0.899-1.141-1.355l-0.867-1.076l-1.711-2.123l-3.42-4.244
				L119.113,79.294z"/>
			<polygon fill="#FFFFFF" points="91.74,45.332 105.426,62.313 85.576,73.371 71.891,56.39 			"/>
			<polygon fill="#FFFFFF" points="64.369,11.371 78.055,28.352 58.205,39.409 44.52,22.429 			"/>
			<polygon fill="#FFFFFF" points="36.996,-22.592 50.682,-5.611 30.834,5.448 17.146,-11.533 			"/>
			
				<polygon fill="#E20613" stroke="#000000" stroke-width="3.9988" stroke-linecap="round" stroke-linejoin="round" stroke-miterlimit="10" points="
				144.422,52.618 130.736,35.638 150.588,24.579 164.273,41.561 			"/>
			
				<path fill="#E20613" stroke="#000000" stroke-width="3.9988" stroke-linecap="round" stroke-linejoin="round" stroke-miterlimit="10" d="
				M153.619,79.573c1.043-2.021,1.66-4.122,1.83-6.192c0.172-2.072-0.086-4.126-0.791-6.194c7.311-1.684,14.906-2.392,22.582-1.987
				c0.977,5.08,0.85,10.44-0.324,15.438c-1.16,5.013-3.307,9.655-6.1,13.713C165.652,88.688,159.883,83.711,153.619,79.573z"/>
			
				<path fill="#E20613" stroke="#000000" stroke-width="3.9988" stroke-linecap="round" stroke-linejoin="round" stroke-miterlimit="10" d="
				M130.666,89.819c1.949,0.736,4.008,1.052,6.166,0.938c2.15-0.11,4.395-0.665,6.549-1.63c2.285,7.155,3.738,14.629,4.244,22.28
				c-4.75,1.458-9.895,2.083-15.059,1.611c-5.156-0.452-10.273-2.048-14.746-4.53C123.008,102.826,127.346,96.548,130.666,89.819z"
				/>
			
				<polygon fill="#E20613" stroke="#000000" stroke-width="3.9988" stroke-linecap="round" stroke-linejoin="round" stroke-miterlimit="10" points="
				105.426,62.313 119.113,79.294 99.264,90.354 85.576,73.371 			"/>
			
				<polygon fill="#E20613" stroke="#000000" stroke-width="3.9988" stroke-linecap="round" stroke-linejoin="round" stroke-miterlimit="10" points="
				78.055,28.352 91.74,45.332 71.891,56.39 58.205,39.409 			"/>
			
				<polygon fill="#E20613" stroke="#000000" stroke-width="3.9988" stroke-linecap="round" stroke-linejoin="round" stroke-miterlimit="10" points="
				50.682,-5.611 64.369,11.371 44.52,22.429 30.834,5.448 			"/>
			
				<path fill="none" stroke="#000000" stroke-width="5.3318" stroke-linecap="round" stroke-linejoin="round" stroke-miterlimit="10" d="
				M105.264,97.797c0.369,0.455,0.75,0.907,1.139,1.355c3.107,3.574,6.928,6.863,11.418,9.337c4.473,2.482,9.59,4.078,14.746,4.53
				c5.164,0.472,10.309-0.153,15.059-1.611c4.758-1.457,9.148-3.723,13.057-6.603c3.902-2.884,7.34-6.393,10.135-10.455
				c2.793-4.058,4.939-8.7,6.1-13.713c1.174-4.998,1.301-10.358,0.324-15.438c-0.959-5.095-2.977-9.839-5.557-13.93
				c-0.643-1.028-1.322-2.016-2.029-2.968c-0.354-0.476-0.711-0.945-1.08-1.4l-0.879-1.096l-3.422-4.245l-16.029-19.888l-0.021,0.02
				c-3.9-4.646-10.814-5.345-15.559-1.521c-4.715,3.801-5.52,10.641-1.887,15.436l-0.039,0.031l13.688,16.981l6.77,8.402
				c1.594,2.016,2.76,4.101,3.463,6.165c0.707,2.068,0.963,4.122,0.791,6.194c-0.17,2.07-0.785,4.171-1.828,6.192
				c-2.064,4.049-5.922,7.65-10.24,9.556c-2.154,0.965-4.398,1.518-6.549,1.63c-2.158,0.112-4.217-0.203-6.164-0.938
				c-1.949-0.733-3.816-1.903-5.572-3.514c-0.438-0.403-0.869-0.834-1.291-1.287c-0.211-0.227-0.42-0.463-0.625-0.702l-0.309-0.364
				l-0.336-0.412l-3.422-4.247l-13.686-16.98l-13.686-16.98L78.055,28.352l-13.686-16.98L50.682-5.61L21.209-42.18l-0.041,0.033
				c-0.105-0.143-0.201-0.292-0.314-0.432c-3.871-4.804-10.904-5.559-15.707-1.688c-4.803,3.873-5.559,10.904-1.688,15.709
				c0.113,0.14,0.236,0.264,0.355,0.397l-0.041,0.033L30.834,5.448l13.686,16.98l13.686,16.98l13.688,16.981l13.684,16.98
				l13.688,16.982l3.422,4.245l1.709,2.122L105.264,97.797z"/>
		</g>
		<g clip-path="url(#SVGID_23_)">
			
				<path fill="none" stroke="#000000" stroke-width="4.7313" stroke-linecap="round" stroke-linejoin="round" stroke-miterlimit="10" d="
				M246.043,163.087c0,0-14.344,25.483,11.941,61.68c26.283,36.195,21.193,62.936,17.738,68.959"/>
			
				<path fill="#0073B3" stroke="#000000" stroke-width="4.5" stroke-linecap="round" stroke-linejoin="round" stroke-miterlimit="10" d="
				M242.486,185.049c52.896-37.62,28.838-93.479-11.488-91.702c0,0-6.363,0.715-4.879,0.45s-4.576,1.236-4.576,1.236
				C183.092,107.315,179.84,168.049,242.486,185.049"/>
			
				<polygon fill="#0073B3" stroke="#000000" stroke-width="4.7313" stroke-linecap="round" stroke-linejoin="round" stroke-miterlimit="10" points="
				239.686,183.6 237.939,190.009 248.467,188.13 244.611,182.721 			"/>
			
				<path fill="none" stroke="#000000" stroke-width="4.7313" stroke-linecap="round" stroke-linejoin="round" stroke-miterlimit="10" d="
				M234.996,102.369c8.908-0.75,24.805,6.507,27.494,23.269"/>
			<g>
				
					<path fill="none" stroke="#000000" stroke-width="4.5" stroke-linecap="round" stroke-linejoin="round" stroke-miterlimit="10" d="
					M291.129,183.133c0,0-17.742,16.021-6.783,50.909c10.959,34.887-4.379,55.914-8.623,59.684"/>
				
					<path fill="#E20613" stroke="#000000" stroke-width="4.5" stroke-linecap="round" stroke-linejoin="round" stroke-miterlimit="10" d="
					M282.66,199.229c50.781-15.402,46.66-64.953,14.943-74.061c0,0-5.117-1.102-3.898-0.92c1.219,0.181-3.867-0.23-3.867-0.23
					C256.842,123.537,238.529,169.763,282.66,199.229"/>
				
					<polygon fill="#E20613" stroke="#000000" stroke-width="4.5" stroke-linecap="round" stroke-linejoin="round" stroke-miterlimit="10" points="
					280.867,197.377 277.848,201.891 286.496,203.172 284.914,197.977 				"/>
				
					<path fill="none" stroke="#000000" stroke-width="4.5" stroke-linecap="round" stroke-linejoin="round" stroke-miterlimit="10" d="
					M298.357,133.2c7.098,1.735,17.531,11.493,15.258,25.184"/>
			</g>
			<g>
				
					<path fill="none" stroke="#000000" stroke-width="4.5" stroke-linecap="round" stroke-linejoin="round" stroke-miterlimit="10" d="
					M219.137,211.509c0,0-2.934,21.086,24.512,38.61c27.445,17.525,32.811,38.606,32.074,43.606"/>
				
					<path fill="#FFCF00" stroke="#000000" stroke-width="4.5" stroke-linecap="round" stroke-linejoin="round" stroke-miterlimit="10" d="
					M222.574,227.337c25.822-39.572-5.35-71.012-32.199-59.071c0,0-4.119,2.179-3.186,1.604c0.936-0.575-2.771,2.056-2.771,2.056
					C161.637,190.484,175.604,232.498,222.574,227.337"/>
				
					<polygon fill="#FFCF00" stroke="#000000" stroke-width="4.5" stroke-linecap="round" stroke-linejoin="round" stroke-miterlimit="10" points="
					220.291,227.1 220.814,231.907 227.447,227.832 223.395,225.192 				"/>
				
					<path fill="none" stroke="#000000" stroke-width="4.5" stroke-linecap="round" stroke-linejoin="round" stroke-miterlimit="10" d="
					M195.488,173.312c5.836-2.877,18.535-2.192,24.82,8.447"/>
			</g>
		</g>
		<g clip-path="url(#SVGID_23_)">
			
				<path fill="#FFCF00" stroke="#000000" stroke-width="4.5" stroke-linecap="round" stroke-linejoin="round" stroke-miterlimit="10" d="
				M202.67-40.114c0.445-0.028,45.193-1.93,84.996,21.947c3.025,1.817,5.98,3.785,8.785,5.862
				c22.951,17.004,32.83,38.812,36.627,49.997l13.143-17.06c0.242-0.314,0.643-0.462,1.035-0.386
				c0.389,0.08,0.701,0.372,0.803,0.758l6.904,25.893l25.246,8.997c0.367,0.129,0.639,0.469,0.688,0.861
				c0.045,0.396-0.137,0.782-0.471,1.003l-22.494,14.565l-0.754,26.791c-0.014,0.397-0.248,0.755-0.611,0.921
				c-0.363,0.167-0.801,0.105-1.096-0.142l-20.807-16.892l-25.709,7.563c-0.318,0.092-0.66,0.029-0.918-0.163
				c-0.051-0.038-0.102-0.087-0.146-0.133c-0.27-0.292-0.35-0.714-0.207-1.085l9.639-25.004L302.18,42.063
				c-0.225-0.332-0.244-0.756-0.049-1.107c0.195-0.348,0.568-0.55,0.967-0.532l23.35,1.258c-2.672-2.318-5.543-4.404-8.25-6.675
				C268.689-6.604,206.213,4.279,205.592,4.347c-0.531,0.058-1.059-0.098-1.471-0.401c-0.262-0.194-0.482-0.451-0.631-0.76
				c-0.391-0.789,0.238-1.698,0.848-2.335l8.572-9.453l-11.146-6.989c-0.586-0.371-1.775-1.271-1.816-1.953
				c-0.033-0.686,0.262-1.349,0.803-1.771l10.006-7.833l-9.293-9.725c-0.59-0.586-0.945-1.133-0.648-1.906
				C201.111-39.552,201.846-40.072,202.67-40.114z"/>
		</g>
		<g clip-path="url(#SVGID_23_)">
			<g>
				
					<line fill="none" stroke="#000000" stroke-width="3.8205" stroke-linecap="round" stroke-linejoin="round" stroke-miterlimit="10" x1="365.701" y1="132.367" x2="413.949" y2="167.153"/>
				
					<line fill="none" stroke="#000000" stroke-width="3.8205" stroke-linecap="round" stroke-linejoin="round" stroke-miterlimit="10" x1="357.199" y1="148.062" x2="381.143" y2="144.179"/>
				
					<line fill="none" stroke="#000000" stroke-width="3.8205" stroke-linecap="round" stroke-linejoin="round" stroke-miterlimit="10" x1="374.691" y1="160.673" x2="398.635" y2="156.791"/>
				
					<line fill="none" stroke="#000000" stroke-width="3.8205" stroke-linecap="round" stroke-linejoin="round" stroke-miterlimit="10" x1="377.26" y1="120.236" x2="381.143" y2="144.179"/>
				
					<line fill="none" stroke="#000000" stroke-width="3.8205" stroke-linecap="round" stroke-linejoin="round" stroke-miterlimit="10" x1="394.752" y1="132.848" x2="398.635" y2="156.791"/>
			</g>
			<g>
				
					<line fill="none" stroke="#000000" stroke-width="3.8205" stroke-linecap="round" stroke-linejoin="round" stroke-miterlimit="10" x1="358.656" y1="201.851" x2="412.906" y2="177.458"/>
				
					<line fill="none" stroke="#000000" stroke-width="3.8205" stroke-linecap="round" stroke-linejoin="round" stroke-miterlimit="10" x1="367.996" y1="217.062" x2="376.605" y2="194.385"/>
				
					<line fill="none" stroke="#000000" stroke-width="3.8205" stroke-linecap="round" stroke-linejoin="round" stroke-miterlimit="10" x1="387.664" y1="208.218" x2="396.273" y2="185.542"/>
				
					<line fill="none" stroke="#000000" stroke-width="3.8205" stroke-linecap="round" stroke-linejoin="round" stroke-miterlimit="10" x1="353.93" y1="185.775" x2="376.605" y2="194.385"/>
				
					<line fill="none" stroke="#000000" stroke-width="3.8205" stroke-linecap="round" stroke-linejoin="round" stroke-miterlimit="10" x1="373.596" y1="176.932" x2="396.273" y2="185.542"/>
			</g>
			<g>
				
					<line fill="none" stroke="#000000" stroke-width="3.8205" stroke-linecap="round" stroke-linejoin="round" stroke-miterlimit="10" x1="399.021" y1="238.75" x2="417.818" y2="223.416"/>
				
					<line fill="none" stroke="#000000" stroke-width="3.8205" stroke-linecap="round" stroke-linejoin="round" stroke-miterlimit="10" x1="401.197" y1="217.296" x2="419.992" y2="201.961"/>
			</g>
		</g>
	</g>
</g>
</svg>
