<?xml version="1.0" encoding="utf-8"?>
<!-- Generator: Adobe Illustrator 16.0.0, SVG Export Plug-In . SVG Version: 6.00 Build 0)  -->
<!DOCTYPE svg PUBLIC "-//W3C//DTD SVG 1.1//EN" "http://www.w3.org/Graphics/SVG/1.1/DTD/svg11.dtd">
<svg version="1.1" xmlns="http://www.w3.org/2000/svg" xmlns:xlink="http://www.w3.org/1999/xlink" x="0px" y="0px"
	 width="405.631px" height="228.21px" viewBox="0 0 405.631 228.21" enable-background="new 0 0 405.631 228.21"
	 xml:space="preserve">
<g id="ozadje" display="none">
</g>
<g id="Layer_1">
	<g>
		<defs>
			<rect id="SVGID_21_" width="405.631" height="228.21"/>
		</defs>
		<clipPath id="SVGID_23_">
			<use xlink:href="#SVGID_21_"  overflow="visible"/>
		</clipPath>
		<rect id="SVGID_20_" clip-path="url(#SVGID_23_)" fill="#0067B3" width="405.631" height="228.21"/>
		<g clip-path="url(#SVGID_23_)">
			
				<rect x="25.553" y="151.352" transform="matrix(0.9589 -0.2838 0.2838 0.9589 -44.7911 16.7728)" stroke="#000000" stroke-width="4.5" stroke-linecap="round" stroke-linejoin="round" stroke-miterlimit="10" width="19.884" height="23.258"/>
			
				<rect x="22.774" y="167.229" transform="matrix(0.9589 -0.2838 0.2838 0.9589 -52.712 26.0894)" fill="#C8C8C8" stroke="#000000" stroke-width="4.5" stroke-linecap="round" stroke-linejoin="round" stroke-miterlimit="10" width="81.829" height="55.491"/>
			<g>
				
					<polyline fill="#29235C" stroke="#000000" stroke-width="4.5" stroke-linecap="round" stroke-linejoin="round" stroke-miterlimit="10" points="
					159.781,185.607 171.779,173.106 4.563,232.637 30.389,251.529 				"/>
			</g>
			
				<circle fill="#FFFFFF" stroke="#000000" stroke-width="4.5" stroke-linecap="round" stroke-linejoin="round" stroke-miterlimit="10" cx="39.727" cy="194.204" r="8.158"/>
			
				<circle fill="#FFFFFF" stroke="#000000" stroke-width="4.5" stroke-linecap="round" stroke-linejoin="round" stroke-miterlimit="10" cx="62.176" cy="187.559" r="8.158"/>
			
				<circle fill="#FFFFFF" stroke="#000000" stroke-width="4.5" stroke-linecap="round" stroke-linejoin="round" stroke-miterlimit="10" cx="84.625" cy="180.916" r="8.158"/>
			
				<path fill="#BD1622" stroke="#000000" stroke-width="4.5" stroke-linecap="round" stroke-linejoin="round" stroke-miterlimit="10" d="
				M19.941,243.534l24.242,17.808l107.279-31.75c0,0,12.27-47.914,20.316-56.485L19.941,243.534z"/>
		</g>
		<g clip-path="url(#SVGID_23_)">
			
				<path opacity="0.3" fill="#FFFFFF" stroke="#010101" stroke-width="4.5" stroke-linecap="round" stroke-linejoin="round" stroke-miterlimit="10" enable-background="new    " d="
				M244.117,50.297l1.807,4.646L207.08,70.054l-9.852-25.319C222.143,35.042,235.156,40.143,244.117,50.297z"/>
			
				<path opacity="0.3" fill="#FFFFFF" stroke="#010101" stroke-width="4.5" stroke-linecap="round" stroke-linejoin="round" stroke-miterlimit="10" enable-background="new    " d="
				M188.662,48.066l9.527,24.49l-27.393,10.656l-18.916,7.359C152.545,74.021,165.508,57.074,188.662,48.066z"/>
			
				<path fill="#E20613" stroke="#010101" stroke-width="4.5" stroke-linecap="round" stroke-linejoin="round" stroke-miterlimit="10" d="
				M310.73,53.983l-1.922,0.179c-22.225-14.693-44.641-4.265-44.641-4.265s-20.725-34.853-75.064-13.713
				c-54.344,21.142-56.914,63.683-50.422,80.373c2.822,7.256,6.164,19.037,6.164,19.037l7.977-3.103
				c-0.488-0.853-1.576-3.431-1.943-4.374c-3.945-10.143,1.08-21.563,11.223-25.509c10.141-3.945,21.563,1.077,25.508,11.22
				c0.418,1.076,1.234,3.468,1.457,4.563l77.453-30.131c-0.781-1.169-1.639-2.921-2.17-4.286
				c-3.945-10.143,1.078-21.563,11.221-25.508c10.143-3.946,21.563,1.076,25.508,11.219c0.584,1.498,1.008,3.133,1.211,4.659
				l10.254-3.989C318.994,67.925,310.73,53.983,310.73,53.983z M198.189,72.557l-27.393,10.656l-18.916,7.359
				c0.664-16.55,13.627-33.498,36.781-42.506L198.189,72.557L198.189,72.557z M245.924,54.942L207.08,70.054l-9.852-25.32
				c24.914-9.691,37.928-4.591,46.889,5.563L245.924,54.942z"/>
			<circle fill="#010101" cx="169.246" cy="120.973" r="15.158"/>
			<circle fill="#010101" cx="282.714" cy="76.83" r="15.157"/>
			<circle fill="#B1B1B1" cx="282.715" cy="76.83" r="6.619"/>
			<circle fill="#B1B1B1" cx="169.246" cy="120.973" r="6.619"/>
			
				<line fill="none" stroke="#010101" stroke-width="4.5" stroke-linecap="round" stroke-linejoin="round" stroke-miterlimit="10" x1="216.199" y1="76.098" x2="211.6" y2="77.887"/>
			
				<path fill="#FFCF00" stroke="#000000" stroke-width="4.5" stroke-linecap="round" stroke-linejoin="round" stroke-miterlimit="10" d="
				M311.326,50.764c1.775,2.674,1.346,6.081-0.957,7.608c-2.303,1.528-4.627-0.238-6.4-2.912c-1.775-2.674-2.328-5.243-0.025-6.771
				C306.248,47.16,309.553,48.09,311.326,50.764z"/>
		</g>
		<g clip-path="url(#SVGID_23_)">
			
				<line fill="none" stroke="#000000" stroke-width="4.5" stroke-linecap="round" stroke-linejoin="round" stroke-miterlimit="10" x1="42.738" y1="74.414" x2="46.09" y2="95.811"/>
			
				<line fill="none" stroke="#000000" stroke-width="4.5" stroke-linecap="round" stroke-linejoin="round" stroke-miterlimit="10" x1="67.371" y1="74.414" x2="64.02" y2="95.811"/>
			
				<rect x="44.414" y="95.811" fill="#7E4E24" stroke="#000000" stroke-width="4.5" stroke-linecap="round" stroke-linejoin="round" stroke-miterlimit="10" width="21.912" height="21.913"/>
			<g>
				
					<path fill="#006633" stroke="#000000" stroke-width="4.5" stroke-linecap="round" stroke-linejoin="round" stroke-miterlimit="10" d="
					M96.518,8.568c0,11.519-9.336,20.854-20.854,20.854S54.809,20.087,54.809,8.568c0,11.519-9.336,20.854-20.854,20.854
					S13.102,20.087,13.102,8.568c0,7.285-3.738,13.693-9.396,17.423c16.023,29.287,38.652,46.627,38.652,46.627h17.061h7.553h1.758
					c0,0,22.285-17.072,38.285-45.952C100.744,23.069,96.518,16.316,96.518,8.568z"/>
				
					<path fill="#39A935" stroke="#000000" stroke-width="4.5" stroke-linecap="round" stroke-linejoin="round" stroke-miterlimit="10" d="
					M110.729-26.896c-2.699,2.417-6.262,3.889-10.17,3.889c-8.422,0-15.25-6.826-15.25-15.249c0,8.423-6.828,15.249-15.25,15.249
					s-15.25-6.826-15.25-15.249c0,8.423-6.826,15.249-15.248,15.249s-15.25-6.826-15.25-15.249c0,8.423-6.828,15.249-15.25,15.249
					c-3.404,0-6.547-1.116-9.084-3.001C-6.295-10.914-6.059,6.52,0.971,20.745c0.885,1.789,1.799,3.537,2.734,5.246
					c5.658-3.729,9.396-10.138,9.396-17.423c0,11.519,9.336,20.854,20.854,20.854s20.854-9.336,20.854-20.854
					c0,11.519,9.338,20.854,20.855,20.854s20.854-9.336,20.854-20.854c0,7.748,4.227,14.501,10.496,18.098
					c1.064-1.922,2.102-3.896,3.102-5.921C117.285,6.239,117.385-11.6,110.729-26.896z"/>
			</g>
		</g>
		<g clip-path="url(#SVGID_23_)">
			
				<path fill="none" stroke="#000000" stroke-width="4.5" stroke-linecap="round" stroke-linejoin="round" stroke-miterlimit="10" d="
				M264.32,137.021c0,0,3.105,0,10.637,0s7.617,4.141,7.617,15.734c0,11.593,0,33.951,0,33.951"/>
			
				<polygon fill="#575756" stroke="#000000" stroke-width="4.5" stroke-linecap="round" stroke-linejoin="round" stroke-miterlimit="10" points="
				319.871,202.044 259.09,202.044 263.893,164.526 310.266,164.526 			"/>
			
				<path fill="#575756" stroke="#000000" stroke-width="4.5" stroke-linecap="round" stroke-linejoin="round" stroke-miterlimit="10" d="
				M424.979,239.663c0-31.322-221.535-87.627-221.535-1.359C203.443,324.572,424.979,270.986,424.979,239.663z"/>
			
				<circle fill="#FFFFFF" stroke="#000000" stroke-width="4.5" stroke-linecap="round" stroke-linejoin="round" stroke-miterlimit="10" cx="253.644" cy="231.769" r="13.833"/>
			
				<circle fill="#FFFFFF" stroke="#000000" stroke-width="4.5" stroke-linecap="round" stroke-linejoin="round" stroke-miterlimit="10" cx="293.343" cy="231.769" r="13.833"/>
			
				<circle fill="#FFFFFF" stroke="#000000" stroke-width="4.5" stroke-linecap="round" stroke-linejoin="round" stroke-miterlimit="10" cx="333.042" cy="231.769" r="13.833"/>
		</g>
		<g clip-path="url(#SVGID_23_)">
			
				<rect x="385.146" y="-1.717" transform="matrix(0.9579 -0.2871 0.2871 0.9579 -1.0961 113.5267)" stroke="#000000" stroke-width="4.5" stroke-linecap="round" stroke-linejoin="round" stroke-miterlimit="10" width="2.83" height="124.437"/>
			
				<path fill="#57B2E5" stroke="#000000" stroke-width="4.5" stroke-linecap="round" stroke-linejoin="round" stroke-miterlimit="10" d="
				M375.395,29.746l19.305,64.364l-50.252,15.071C344.447,109.182,378.912,59.837,375.395,29.746z"/>
			
				<path fill="#0075A5" stroke="#000000" stroke-width="4.5" stroke-linecap="round" stroke-linejoin="round" stroke-miterlimit="10" d="
				M468.176,72.072c0,0-83.631-44.378-100.844-70.761l27.793,92.67L468.176,72.072z"/>
			
				<path fill="#EED2A3" stroke="#000000" stroke-width="4.5" stroke-linecap="round" stroke-linejoin="round" stroke-miterlimit="10" d="
				M456.521,135.369c-26.113,7.832-63.746,19.119-81.66,24.492c-17.914,5.372-38.879-27.476-38.879-27.476l137.879-41.354
				C473.861,91.031,482.635,127.537,456.521,135.369z"/>
		</g>
	</g>
</g>
</svg>
