<?xml version="1.0" encoding="utf-8"?>
<!-- Generator: Adobe Illustrator 16.0.0, SVG Export Plug-In . SVG Version: 6.00 Build 0)  -->
<!DOCTYPE svg PUBLIC "-//W3C//DTD SVG 1.1//EN" "http://www.w3.org/Graphics/SVG/1.1/DTD/svg11.dtd">
<svg version="1.1" xmlns="http://www.w3.org/2000/svg" xmlns:xlink="http://www.w3.org/1999/xlink" x="0px" y="0px"
	 width="405.631px" height="228.21px" viewBox="0 0 405.631 228.21" enable-background="new 0 0 405.631 228.21"
	 xml:space="preserve">
<g id="ozadje" display="none">
</g>
<g id="Layer_1">
	<g>
		<defs>
			<rect id="SVGID_11_" width="405.631" height="228.21"/>
		</defs>
		<clipPath id="SVGID_23_">
			<use xlink:href="#SVGID_11_"  overflow="visible"/>
		</clipPath>
		<rect id="SVGID_10_" clip-path="url(#SVGID_23_)" fill="#009D73" width="405.631" height="228.21"/>
		<g clip-path="url(#SVGID_23_)">
			
				<path fill="#EE7D00" stroke="#000000" stroke-width="4.5" stroke-linecap="round" stroke-linejoin="round" stroke-miterlimit="10" d="
				M219.748,167.474c0.198,0.224-0.236,0.939-0.502,1.438c-7.596,14.199-15.059,28.539-22.955,42.893
				c-1.156,2.1-3.541,4.886-2.279,7.464c0.521,1.063,1.881,2.226,2.834,3.236c2.802,2.993,6.031,6.297,8.729,9.123
				c-10.684,2.718-21.73,4.868-32.755,7.44c-3.618,0.844-7.314,1.395-10.799,2.677c5.375,13.122,16.273,34.134,16.273,34.134
				l-7.04,9.046c0,0-9.386-23.799-13.825-35.971c-0.582-1.593-0.945-3.384-2.18-4.618c-1.697,0.775-3.219,1.93-4.773,2.98
				c-10.826,7.325-22.059,14.584-32.963,21.903c-0.074-2.474-0.041-5.259-0.111-8.185c-0.068-2.754,0.24-5.807-0.512-8.259
				c-1.281-4.182-5.075-4.318-8.228-5.277c-15.347-4.676-32.149-9.233-46.751-13.966c1.238-1.274,2.707-2.675,4.244-4.238
				c1.229-1.25,3.744-3.379,3.969-4.608c0.429-2.306-2.362-5.136-3.748-6.906c-4.697-6.004-9.902-12.605-14.264-18.227
				c5.17-0.914,11.938-2.187,17.646-3.333c3.303-0.664,7.814-1.236,8.621-4.347c0.41-1.597-0.004-4.388-0.035-6.25
				c-0.039-2.142-0.045-4.204-0.186-6.309c1.287,0.216,2.459,1.028,3.646,1.667c6.018,3.217,11.858,6.329,18.388,9.01
				c1.12,0.457,2.293,1.01,3.813,1.477c1.115,0.341,3.142,1.151,4.235,0.438c1.585-1.034-0.766-4.73-1.676-6.057
				c-8.72-12.761-17.476-25.975-26.2-38.536c0.259-0.386,0.731,0.015,1.008,0.07c4.574,0.852,9.031,1.779,13.953,2.514
				c1.514,0.226,3.896,0.86,5.429,0.062c2.093-1.098,1.542-6.369,1.693-8.572c0.429-6.129,0.804-12.119,1.208-17.948
				c0.215-3.085,0.209-6.251,0.525-9.311c0.083-0.059,0.117,0,0.15,0.062c7.832,6.672,15.914,13.32,24.037,20.156
				c1.035,0.874,2.541,2.718,3.533,2.576c1.823-0.266,3.402-2.739,4.275-3.879c3.266-4.268,6.597-8.831,9.792-12.696
				c2.708,15.122,5.581,30.486,8.285,45.911c0.251,1.441,1.044,5.902,2.657,5.769c1.49-0.127,2.555-2.344,2.959-3.202
				c1.018-2.163,1.582-4.711,2.408-7.15c2.361-6.956,4.711-14.594,7.218-21.201c1.372,1.494,2.888,2.998,4.411,4.661
				c1.469,1.603,2.734,3.675,4.285,4.965c2.827,2.341,7.426-1.705,10.15-3.635c4.467-3.162,9.554-6.724,14.068-9.816
				c0.905,8.024,2.277,17.412,3.467,26.185c0.365,2.669,0.565,4.287,2.982,4.771C212.121,168.252,216.293,167.381,219.748,167.474z"
				/>
			
				<polyline fill="#EE7D00" stroke="#000000" stroke-width="4.5" stroke-linecap="round" stroke-linejoin="round" stroke-miterlimit="10" points="
				130.348,174.434 151.662,226.463 167.826,195.858 			"/>
			
				<line fill="#EE7D00" stroke="#000000" stroke-width="4.5" stroke-linecap="round" stroke-linejoin="round" stroke-miterlimit="10" x1="111.998" y1="215.518" x2="151.662" y2="226.463"/>
		</g>
		<g clip-path="url(#SVGID_23_)">
			<g id="Layer_3_1_">
				
					<path fill="#CD7D00" stroke="#000000" stroke-width="4.5" stroke-linecap="round" stroke-linejoin="round" stroke-miterlimit="10" d="
					M127.684-16.301c0.771,0.491,34.454,27.141,23.918,52.505c-2.812,14.184,9.592,19.944,13.122,13.287
					c2.364-4.432,9.635-0.827,9.598,4.511c0.186,8.129-3.345,17.142-0.062,24.339c5.138,11.379,16.665,10.844,21.082,0.201
					c1.5-3.678,6.75-6.088,8.598-2.566c6.443,12.204,7.04,30.494,26.544,34.283c12.032,2.334,19.948-7.129,14.159-19.221
					c-1.67-4.479,3.695-6.865,9.648-2.923c5.57,3.079,11.326,5.295,16.467,6.535c22.508,5.519,36.5-22.613,10.338-30.341
					c-5.251-1.544-12.027-1.093-16.889-3.78c-5.31-2.983-7.26-6.366-1.211-10.328c10.784-7.095,8.404-18.555,0.344-24.275
					c-5.27-3.713-13.389-5.363-22.869-2.634c-4.933,1.371-13.545,3.54-18.402,4.898c-4.269,1.184-7.688-4.084-4.295-6.862
					c13.535-11.127,3.611-27.227-11.92-18.599c-3.977,2.188-6.537,4.664-10.057,6.852c-4.901,3.045-9.912-2.015-5.119-6.354
					c7.443-6.795-1.238-19.181-12.205-12.523c-8.977,5.416-17.448,10.919-23.776,2.057c-5.399-7.534-23.564-30.941-23.564-30.941
					L127.684-16.301z"/>
			</g>
			
				<path fill="#CD7D00" stroke="#000000" stroke-width="4.5" stroke-linecap="round" stroke-linejoin="round" stroke-miterlimit="10" d="
				M246.156,71.463c0,0-36.874-15.437-69.727-46.009"/>
		</g>
		<g clip-path="url(#SVGID_23_)">
			
				<path fill="#39A935" stroke="#000000" stroke-width="4.5" stroke-linecap="round" stroke-linejoin="round" stroke-miterlimit="10" d="
				M91.809-18.636c5.283,3.271,11.795,80.479-17.521,127.814C56.257,138.292,23.571,151.102-0.7,139.443l-7.657,16.813
				l-11.168-0.843l11.033-20.796c-21.875-16.922-24.346-51.507-6.315-80.619C14.508,6.665,85.965-22.255,91.809-18.636z"/>
			<g>
				
					<line fill="#39A935" stroke="#000000" stroke-width="4.5" stroke-linecap="round" stroke-linejoin="round" stroke-miterlimit="10" x1="67.992" y1="17.497" x2="4.959" y2="119.275"/>
				
					<line fill="#39A935" stroke="#000000" stroke-width="4.5" stroke-linecap="round" stroke-linejoin="round" stroke-miterlimit="10" x1="54.9" y1="38.356" x2="52.07" y2="23.052"/>
				
					<line fill="#39A935" stroke="#000000" stroke-width="4.5" stroke-linecap="round" stroke-linejoin="round" stroke-miterlimit="10" x1="33.241" y1="73.375" x2="27.053" y2="39.908"/>
				
					<line fill="#39A935" stroke="#000000" stroke-width="4.5" stroke-linecap="round" stroke-linejoin="round" stroke-miterlimit="10" x1="11.664" y1="108.168" x2="3.064" y2="61.657"/>
				
					<line fill="#39A935" stroke="#000000" stroke-width="4.5" stroke-linecap="round" stroke-linejoin="round" stroke-miterlimit="10" x1="55.25" y1="38.573" x2="70.211" y2="34.288"/>
				
					<line fill="#39A935" stroke="#000000" stroke-width="4.5" stroke-linecap="round" stroke-linejoin="round" stroke-miterlimit="10" x1="33.551" y1="73.566" x2="66.269" y2="64.196"/>
				
					<line fill="#39A935" stroke="#000000" stroke-width="4.5" stroke-linecap="round" stroke-linejoin="round" stroke-miterlimit="10" x1="12.015" y1="108.385" x2="57.486" y2="95.36"/>
			</g>
		</g>
		<g clip-path="url(#SVGID_23_)">
			
				<path fill="#39A935" stroke="#000000" stroke-width="4.5" stroke-linecap="round" stroke-linejoin="round" stroke-miterlimit="10" d="
				M465.287,44.956c-4.171-10.538-12.504-18.246-22.503-24.389c12.509,0.037,24.397-2.211,33.872-9.585
				c11.041-8.592,13.023-24.507,4.432-35.547c-4.545-5.839-11.137-9.117-17.971-9.663c1.146-6.764-0.414-13.961-4.956-19.797
				c-8.593-11.041-24.507-13.025-35.546-4.436c-9.477,7.374-14.578,18.347-17.609,30.481c-3.502-11.202-8.927-21.17-18.115-27.804
				c-11.343-8.188-27.178-5.627-35.367,5.716c-4.326,5.999-5.622,13.246-4.232,19.965c-6.811,0.795-13.281,4.308-17.61,10.306
				c-8.187,11.344-5.63,27.179,5.715,35.366c13.257,9.562,30.61,9.517,47.86,7.056c-21.98,14.267-46.42,41.224-46.42,41.224
				l15.981,1.361c0,0,19.771-25.405,36.589-38.419c-7.182,16.849-12.25,34.594-5.936,50.555
				c5.152,13.01,19.875,19.377,32.881,14.227c6.881-2.72,11.874-8.132,14.316-14.537c6.17,2.995,13.515,3.524,20.393,0.799
				C464.067,72.685,470.437,57.96,465.287,44.956z"/>
			
				<polyline fill="none" stroke="#000000" stroke-width="4.5" stroke-linecap="round" stroke-linejoin="round" stroke-miterlimit="10" points="
				371.588,-5.044 393.1,3.586 385.441,-17.852 			"/>
		</g>
		<g clip-path="url(#SVGID_23_)">
			
				<path fill="#93C01F" stroke="#000000" stroke-width="4.5" stroke-linecap="round" stroke-linejoin="round" stroke-miterlimit="10" d="
				M377.315,127.044c-122.794-15.537-147.052,96.35-85.392,90.801c-11.192,18.93-16.929,46.879-16.929,46.879l7.856-4.659
				c0,0,3.582-20.764,14.449-39.091C315.43,264.929,405.4,230.79,377.315,127.044z"/>
			
				<path fill="#93C01F" stroke="#000000" stroke-width="4.5" stroke-linecap="round" stroke-linejoin="round" stroke-miterlimit="10" d="
				M356.471,144.907c-17.105,10.422-37.701,32.039-53.953,59.684"/>
			
				<path fill="#93C01F" stroke="#000000" stroke-width="4.5" stroke-linecap="round" stroke-linejoin="round" stroke-miterlimit="10" d="
				M330.564,143.184c-1.076-2.165,4.716,10.6-0.296,23.479"/>
			
				<path fill="#93C01F" stroke="#000000" stroke-width="4.5" stroke-linecap="round" stroke-linejoin="round" stroke-miterlimit="10" d="
				M350.881,180.728c0,0-17.949-7.367-32.016,0.04"/>
			
				<path fill="#93C01F" stroke="#000000" stroke-width="4.5" stroke-linecap="round" stroke-linejoin="round" stroke-miterlimit="10" d="
				M300.762,179.4c3.519,6.075,5.618,14.079,4.939,20.06"/>
		</g>
	</g>
</g>
</svg>
