<?xml version="1.0" encoding="utf-8"?>
<!-- Generator: Adobe Illustrator 16.0.0, SVG Export Plug-In . SVG Version: 6.00 Build 0)  -->
<!DOCTYPE svg PUBLIC "-//W3C//DTD SVG 1.1//EN" "http://www.w3.org/Graphics/SVG/1.1/DTD/svg11.dtd">
<svg version="1.1" xmlns="http://www.w3.org/2000/svg" xmlns:xlink="http://www.w3.org/1999/xlink" x="0px" y="0px"
	 width="405.688px" height="228.211px" viewBox="0 0 405.688 228.211" enable-background="new 0 0 405.688 228.211"
	 xml:space="preserve">
<g id="ozadje" display="none">
</g>
<g id="Layer_1">
	<g>
		<g id="Layer_2_1_">
			<rect fill="#34BCAD" width="405.688" height="228.211"/>
		</g>
		<g id="Layer_1_7_">
			<g>
				<g>
					<defs>
						<rect id="SVGID_133_" width="405.688" height="228.211"/>
					</defs>
					<clipPath id="SVGID_23_">
						<use xlink:href="#SVGID_133_"  overflow="visible"/>
					</clipPath>
					<g clip-path="url(#SVGID_23_)">
						
							<circle fill="#BC2026" stroke="#010101" stroke-width="4.5" stroke-linecap="round" stroke-linejoin="round" stroke-miterlimit="10" cx="338.929" cy="205.492" r="34.43"/>
						
							<circle fill="#BC2026" stroke="#010101" stroke-width="4.5" stroke-linecap="round" stroke-linejoin="round" stroke-miterlimit="10" cx="427.429" cy="233.065" r="34.43"/>
						
							<path fill="#7E4F23" stroke="#010101" stroke-width="4.5" stroke-linecap="round" stroke-linejoin="round" stroke-miterlimit="10" d="
							M426.041,215.094c-0.083-0.02-0.173-0.047-0.248-0.07c-2.017-0.629-3.229-2.719-2.725-4.806
							c0.713-2.937,1.297-5.877,1.761-8.82c0.437-2.717,0.76-5.43,1.001-8.145c2.718-30.798-6.354-61.165-15.511-82.94
							c-1.65-3.922-3.302-7.56-4.888-10.878c-6.163-12.9-11.332-20.867-11.481-21.096c-1.224-1.861-0.705-4.365,1.15-5.595
							c1.871-1.226,4.374-0.709,5.602,1.152c1.1,1.673,16.457,25.352,26.067,57.939c2.194,7.422,4.086,15.307,5.443,23.499
							c2.032,12.29,2.871,25.264,1.702,38.412c-0.231,2.667-0.553,5.349-0.97,8.024c-0.519,3.447-1.19,6.901-2.028,10.347
							C430.392,214.286,428.21,215.616,426.041,215.094z"/>
						
							<path fill="#7E4F23" stroke="#010101" stroke-width="4.5" stroke-linecap="round" stroke-linejoin="round" stroke-miterlimit="10" d="
							M410.32,110.313c-4.398,13.554-16.146,43.341-40.886,69.563c-1.829,1.947-3.733,3.872-5.711,5.768
							c-1.348,1.29-2.733,2.569-4.15,3.84c-1.1,0.978-2.579,1.247-3.894,0.838c-0.673-0.208-1.308-0.604-1.806-1.168
							c-1.492-1.662-1.342-4.216,0.322-5.7c1.262-1.129,2.504-2.273,3.712-3.434c1.989-1.899,3.898-3.835,5.728-5.791
							c9.287-9.896,16.676-20.395,22.477-30.26c4.565-7.765,8.144-15.135,10.893-21.504c5.392-12.531,7.557-21.192,7.605-21.394
							c0.15-0.621,0.441-1.179,0.822-1.637c0.952-1.143,2.502-1.717,4.051-1.346c2.134,0.49,3.503,2.705,2.979,4.873
							C412.359,103.407,411.699,106.061,410.32,110.313z"/>
						
							<path fill="#3BA949" stroke="#010101" stroke-width="4.5" stroke-linecap="round" stroke-linejoin="round" stroke-miterlimit="10" d="
							M413.122,97.619c-2.626,17.531-10.851,29.753-24.465,36.356c-18.81,9.124-42.939,5.667-53.756,3.383
							c11.049-21.344,23.563-35.516,37.237-42.147C391.226,85.954,407.424,94.036,413.122,97.619z"/>
					</g>
				</g>
				<g>
					<defs>
						<rect id="SVGID_135_" width="405.688" height="228.211"/>
					</defs>
					<clipPath id="SVGID_27_">
						<use xlink:href="#SVGID_135_"  overflow="visible"/>
					</clipPath>
					<g clip-path="url(#SVGID_27_)">
						
							<line fill="none" stroke="#010101" stroke-width="4.5" stroke-linecap="round" stroke-linejoin="round" stroke-miterlimit="10" x1="129.612" y1="106.393" x2="104.998" y2="165.005"/>
						
							<line fill="none" stroke="#010101" stroke-width="4.5" stroke-linecap="round" stroke-linejoin="round" stroke-miterlimit="10" x1="146.611" y1="148.008" x2="87.999" y2="123.393"/>
					</g>
				</g>
				<g>
					<defs>
						<rect id="SVGID_137_" width="405.688" height="228.211"/>
					</defs>
					<clipPath id="SVGID_29_">
						<use xlink:href="#SVGID_137_"  overflow="visible"/>
					</clipPath>
					<g clip-path="url(#SVGID_29_)">
						
							<path fill="#5AB2E4" stroke="#010101" stroke-width="4.5" stroke-linecap="round" stroke-linejoin="round" stroke-miterlimit="10" d="
							M195.746,168.318c-4.779-4.357-16.563-1.282-28.926,1.946c-11.691,3.054-19.537,14.964-16.79,25.489c0,0,0,0,0.001,0
							c0.315,1.212,4.388-1.146,4.388-1.146v0l46.514-12.146C200.933,182.461,196.641,169.134,195.746,168.318z"/>
						
							<path fill="#5AB2E4" stroke="#010101" stroke-width="4.5" stroke-linecap="round" stroke-linejoin="round" stroke-miterlimit="10" d="
							M245.101,193.225c-3.322-12.729-30.788-29.321-51.119-24.014c-28.361,7.406-51.042,34.345-59.576,44.482
							c-0.35,0.414-0.666,0.799-0.965,1.146c-3.296-1.752-9.229-4.606-12.283-5.258c-1.711-0.361-3.252-0.37-4.572-0.025
							c-3.565,0.931-4.773,4.164-4.103,6.731l6.879,26.348c0.671,2.568,3.306,4.797,6.871,3.866c1.319-0.345,2.66-1.104,3.976-2.26
							c2.363-2.067,6.176-7.523,8.183-10.656c8.004,2.447,42.214,11.813,73.362,3.68
							C234.997,231.194,248.425,205.953,245.101,193.225z"/>
						
							<path fill="none" stroke="#010101" stroke-width="4.5" stroke-linecap="round" stroke-linejoin="round" stroke-miterlimit="10" d="
							M206.49,182.358c0,0-12.195,25.231,10.317,39.513"/>
						<circle fill="#010101" cx="223.967" cy="194.241" r="4.507"/>
					</g>
				</g>
				<g>
					<defs>
						<rect id="SVGID_139_" width="405.688" height="228.211"/>
					</defs>
					<clipPath id="SVGID_31_">
						<use xlink:href="#SVGID_139_"  overflow="visible"/>
					</clipPath>
					<g clip-path="url(#SVGID_31_)">
						
							<circle fill="#ED7E23" stroke="#010101" stroke-width="4.5" stroke-linecap="round" stroke-linejoin="round" stroke-miterlimit="10" cx="16.563" cy="189.731" r="49.891"/>
						
							<path fill="none" stroke="#010101" stroke-width="4.5" stroke-linecap="round" stroke-linejoin="round" stroke-miterlimit="10" d="
							M42.939,148.296c0,0-63.202,14.38-63.716,73.747"/>
						
							<line fill="none" stroke="#010101" stroke-width="4.5" stroke-linecap="round" stroke-linejoin="round" stroke-miterlimit="10" x1="-20.623" y1="156.349" x2="52.846" y2="223.545"/>
						
							<path fill="none" stroke="#010101" stroke-width="4.5" stroke-linecap="round" stroke-linejoin="round" stroke-miterlimit="10" d="
							M-32.395,185.169c0,0,38.461,6.51,48.322,53.377"/>
						
							<path fill="none" stroke="#010101" stroke-width="4.5" stroke-linecap="round" stroke-linejoin="round" stroke-miterlimit="10" d="
							M5.81,141.005c0,0,12.322,37.728,59.114,39.896"/>
					</g>
				</g>
				<g>
					<defs>
						<rect id="SVGID_141_" width="405.688" height="228.211"/>
					</defs>
					<clipPath id="SVGID_33_">
						<use xlink:href="#SVGID_141_"  overflow="visible"/>
					</clipPath>
					<g clip-path="url(#SVGID_33_)">
						
							<polygon fill="none" stroke="#010101" stroke-width="4.5" stroke-linecap="round" stroke-linejoin="round" stroke-miterlimit="10" points="
							302.1,22.73 313.857,-20.058 356.791,-31.269 387.968,0.308 376.21,43.097 333.276,54.308 						"/>
						
							<line fill="none" stroke="#010101" stroke-width="4.5" stroke-linecap="round" stroke-linejoin="round" stroke-miterlimit="10" x1="370.546" y1="-13.67" x2="318.757" y2="37.464"/>
						
							<line fill="none" stroke="#010101" stroke-width="4.5" stroke-linecap="round" stroke-linejoin="round" stroke-miterlimit="10" x1="373.918" y1="41.537" x2="313.475" y2="-19.681"/>
					</g>
				</g>
				<g>
					<defs>
						<rect id="SVGID_143_" width="405.688" height="228.211"/>
					</defs>
					<clipPath id="SVGID_35_">
						<use xlink:href="#SVGID_143_"  overflow="visible"/>
					</clipPath>
					<g clip-path="url(#SVGID_35_)">
						
							<polygon fill="#A6A8AC" stroke="#010101" stroke-width="4.5" stroke-linecap="round" stroke-linejoin="round" stroke-miterlimit="10" points="
							46.031,96.534 46.031,29.155 40.436,29.155 40.436,96.534 37.806,96.534 39.512,119.017 47.485,119.017 49.191,96.534 						
							"/>
						
							<path fill="#E01E26" stroke="#010101" stroke-width="4.5" stroke-linecap="round" stroke-linejoin="round" stroke-miterlimit="10" d="
							M43.288-33.945c-15.139,0-13.073,18.676-13.073,18.676l4.655,56.219l-4.655,6.549h26.613l-4.656-6.549l4.656-56.219
							C56.828-15.271,58.427-33.945,43.288-33.945z"/>
					</g>
				</g>
				<g>
					<defs>
						<rect id="SVGID_145_" width="405.688" height="228.211"/>
					</defs>
					<clipPath id="SVGID_37_">
						<use xlink:href="#SVGID_145_"  overflow="visible"/>
					</clipPath>
					<g clip-path="url(#SVGID_37_)">
						
							<path fill="#AC5D2E" stroke="#010101" stroke-width="4.5" stroke-linecap="round" stroke-linejoin="round" stroke-miterlimit="10" d="
							M280.092,157.435c1.88,4.573-0.305,9.806-4.878,11.684l0,0c-4.574,1.879-9.805-0.303-11.686-4.876l-21.204-51.598
							c-1.88-4.573,0.305-9.803,4.879-11.683l0,0c4.572-1.88,9.804,0.303,11.684,4.876L280.092,157.435z"/>
						
							<path fill="#CABAA0" stroke="#010101" stroke-width="4.5" stroke-linecap="round" stroke-linejoin="round" stroke-miterlimit="10" d="
							M273.438,95.043c3.104,7.551-0.503,16.189-8.055,19.292l-21.702,8.919c-7.551,3.104-16.188-0.502-19.292-8.053L204.6,67.051
							c-2.551-6.206-8.203-29.925,12.817-38.563c21.021-8.641,33.128,10.854,36.231,18.406L273.438,95.043z"/>
						
							<path fill="#422A19" stroke="#010101" stroke-width="4.5" stroke-linecap="round" stroke-linejoin="round" stroke-miterlimit="10" d="
							M272.25,92.155l-18.602-45.263c-3.104-7.552-15.211-27.046-36.231-18.405c-21.021,8.639-15.368,32.356-12.817,38.563
							l18.603,45.263L272.25,92.155z"/>
					</g>
				</g>
				<g>
					<defs>
						<rect id="SVGID_147_" width="405.688" height="228.211"/>
					</defs>
					<clipPath id="SVGID_40_">
						<use xlink:href="#SVGID_147_"  overflow="visible"/>
					</clipPath>
					<g clip-path="url(#SVGID_40_)">
						
							<rect x="141.041" y="-62.78" transform="matrix(-0.7071 -0.7071 0.7071 -0.7071 256.5762 140.9014)" fill="#F7B132" stroke="#010101" stroke-width="4.5" stroke-linecap="round" stroke-linejoin="round" stroke-miterlimit="10" width="32.858" height="160.184"/>
						<g>
							
								<line fill="none" stroke="#010101" stroke-width="4.5" stroke-linecap="round" stroke-linejoin="round" stroke-miterlimit="10" x1="98.209" y1="56.551" x2="103.732" y2="62.073"/>
							
								<line fill="none" stroke="#010101" stroke-width="4.5" stroke-linecap="round" stroke-linejoin="round" stroke-miterlimit="10" x1="105.237" y1="49.521" x2="110.761" y2="55.045"/>
							
								<line fill="none" stroke="#010101" stroke-width="4.5" stroke-linecap="round" stroke-linejoin="round" stroke-miterlimit="10" x1="112.266" y1="42.493" x2="117.789" y2="48.017"/>
							
								<line fill="none" stroke="#010101" stroke-width="4.5" stroke-linecap="round" stroke-linejoin="round" stroke-miterlimit="10" x1="119.295" y1="35.465" x2="124.818" y2="40.987"/>
							
								<line fill="none" stroke="#010101" stroke-width="4.5" stroke-linecap="round" stroke-linejoin="round" stroke-miterlimit="10" x1="126.324" y1="28.436" x2="131.847" y2="33.958"/>
							
								<line fill="none" stroke="#010101" stroke-width="4.5" stroke-linecap="round" stroke-linejoin="round" stroke-miterlimit="10" x1="133.352" y1="21.407" x2="138.875" y2="26.931"/>
							
								<line fill="none" stroke="#010101" stroke-width="4.5" stroke-linecap="round" stroke-linejoin="round" stroke-miterlimit="10" x1="140.381" y1="14.378" x2="145.905" y2="19.901"/>
							
								<line fill="none" stroke="#010101" stroke-width="4.5" stroke-linecap="round" stroke-linejoin="round" stroke-miterlimit="10" x1="147.41" y1="7.35" x2="152.933" y2="12.872"/>
							
								<line fill="none" stroke="#010101" stroke-width="4.5" stroke-linecap="round" stroke-linejoin="round" stroke-miterlimit="10" x1="154.439" y1="0.32" x2="159.962" y2="5.844"/>
							
								<line fill="none" stroke="#010101" stroke-width="4.5" stroke-linecap="round" stroke-linejoin="round" stroke-miterlimit="10" x1="161.467" y1="-6.708" x2="166.99" y2="-1.185"/>
						</g>
					</g>
				</g>
			</g>
		</g>
	</g>
</g>
</svg>
