<?xml version="1.0" encoding="utf-8"?>
<!-- Generator: Adobe Illustrator 16.0.0, SVG Export Plug-In . SVG Version: 6.00 Build 0)  -->
<!DOCTYPE svg PUBLIC "-//W3C//DTD SVG 1.1//EN" "http://www.w3.org/Graphics/SVG/1.1/DTD/svg11.dtd">
<svg version="1.1" xmlns="http://www.w3.org/2000/svg" xmlns:xlink="http://www.w3.org/1999/xlink" x="0px" y="0px"
	 width="405.631px" height="228.211px" viewBox="0 0 405.631 228.211" enable-background="new 0 0 405.631 228.211"
	 xml:space="preserve">
<g id="ozadje" display="none">
</g>
<g id="Layer_1">
	<g>
		<g>
			<defs>
				<rect id="SVGID_89_" width="405.631" height="228.211"/>
			</defs>
			<clipPath id="SVGID_23_">
				<use xlink:href="#SVGID_89_"  overflow="visible"/>
			</clipPath>
			<g clip-path="url(#SVGID_23_)">
				<rect id="SVGID_3_" fill="#CB78A6" width="405.631" height="228.211"/>
			</g>
			<g clip-path="url(#SVGID_23_)">
				<defs>
					<rect id="SVGID_91_" width="405.631" height="228.211"/>
				</defs>
				<clipPath id="SVGID_27_">
					<use xlink:href="#SVGID_91_"  overflow="visible"/>
				</clipPath>
			</g>
			<g clip-path="url(#SVGID_23_)">
				<rect fill="none" width="405.631" height="228.211"/>
				<g>
					
						<path fill="#7E4E24" stroke="#000000" stroke-width="4.7997" stroke-linecap="round" stroke-linejoin="round" stroke-miterlimit="10" d="
						M241.078-3.41l-13.537-4.137l-9.092,34.819l0.107,0.033c-0.092,0.287-0.139,0.589-0.131,0.905
						c0.045,1.682,1.629,3.001,3.537,2.951c1.398-0.038,2.584-0.804,3.1-1.876l0.08,0.025L241.078-3.41z"/>
					
						<ellipse transform="matrix(-0.9562 -0.2928 0.2928 -0.9562 403.5134 220.0761)" fill="#43237A" stroke="#000000" stroke-width="4.7997" stroke-linecap="round" stroke-linejoin="round" stroke-miterlimit="10" cx="218.227" cy="79.84" rx="39.057" ry="58.963"/>
					
						<path fill="#43237A" stroke="#000000" stroke-width="4.7997" stroke-linecap="round" stroke-linejoin="round" stroke-miterlimit="10" d="
						M181.069,68.464c7.688-25.115,25.079-43.063,42.347-45.748c-3.068-2.851-6.621-4.975-10.605-6.196
						c-20.626-6.315-45.068,13.809-54.602,44.943c-9.531,31.137-0.539,61.496,20.086,67.81c3.988,1.224,8.119,1.452,12.257,0.811
						C177.75,118.189,173.381,93.582,181.069,68.464z"/>
				</g>
				<g>
					<g>
						<defs>
							<rect id="SVGID_93_" width="405.631" height="228.211"/>
						</defs>
						<clipPath id="SVGID_29_">
							<use xlink:href="#SVGID_93_"  overflow="visible"/>
						</clipPath>
						<g clip-path="url(#SVGID_29_)">
							
								<path fill="#FFCF00" stroke="#000000" stroke-width="4.7997" stroke-linecap="round" stroke-linejoin="round" stroke-miterlimit="10" d="
								M140.526-20.111c-1.278-3.315-8.463-6.159-8.463-6.159l-1.896-22.747c0.742-1.056,1.018-3.34,0.664-4.276
								c-0.826-2.186-4.756-2.726-8.777-1.204c-4.021,1.521-6.614,4.526-5.783,6.712c0.154,0.416,0.428,1.973,0.787,2.265v19.25
								c0,0-18.885,40.307-48.875,42.583c-45.452,3.448-75.754,4.12-86.932,8.208c-5.086,1.858-10.771,6.157-5.387,15.006
								c5.387,8.849,10.012,15.078,16.157,18.084c6.149,3.005,61.487,20.877,100.009,4.13
								C123.59,48.025,153.606,13.749,140.526-20.111z"/>
							
								<path fill="none" stroke="#000000" stroke-width="3.5997" stroke-linecap="round" stroke-linejoin="round" stroke-miterlimit="10" d="
								M8.463,46.885c0,0,60.334,20.536,90.719-8.197"/>
						</g>
					</g>
					<g>
						<g>
							<defs>
								<rect id="SVGID_95_" width="405.631" height="228.211"/>
							</defs>
							<clipPath id="SVGID_31_">
								<use xlink:href="#SVGID_95_"  overflow="visible"/>
							</clipPath>
							<g clip-path="url(#SVGID_31_)">
								
									<path fill="#BD1622" stroke="#000000" stroke-width="4.7997" stroke-linecap="round" stroke-linejoin="round" stroke-miterlimit="10" d="
									M60.838,132.064c-13.369-7.793-28.664-6.418-42.402-1.899c-14.18,2.841-28.166,9.187-35.957,22.562
									c-19.758,33.91,3.115,56.049,5.191,57.563c2.356,1.705,13.268,12.942,15.051,15.471c5.652,8.001,12.023,15.771,20.65,25.193
									c7.93,8.647,15.93,12.901,24.457,12.998c1.84,0.021,3.746-0.366,5.625-0.943c1.918-0.424,3.768-1.028,5.356-1.952
									c7.371-4.289,12.233-11.936,14.873-23.367c2.858-12.453,4.571-22.354,5.543-32.102c0.312-3.079,4.262-18.236,5.474-20.882
									C85.758,182.365,94.746,151.824,60.838,132.064z"/>
								
									<path fill="none" stroke="#000000" stroke-width="0.6" stroke-linecap="round" stroke-linejoin="round" stroke-miterlimit="10" d="
									M21.612,142.217"/>
								<g>
									
										<line fill="none" stroke="#000000" stroke-width="5.9996" stroke-linecap="round" stroke-linejoin="round" stroke-miterlimit="10" x1="3.055" y1="202.415" x2="4.512" y2="208.295"/>
									
										<line fill="none" stroke="#000000" stroke-width="5.9996" stroke-linecap="round" stroke-linejoin="round" stroke-miterlimit="10" x1="35.158" y1="193.425" x2="36.615" y2="199.307"/>
									
										<line fill="none" stroke="#000000" stroke-width="5.9996" stroke-linecap="round" stroke-linejoin="round" stroke-miterlimit="10" x1="67.26" y1="184.437" x2="68.717" y2="190.32"/>
									
										<line fill="none" stroke="#000000" stroke-width="5.9996" stroke-linecap="round" stroke-linejoin="round" stroke-miterlimit="10" x1="24.231" y1="218.611" x2="25.688" y2="224.494"/>
									
										<line fill="none" stroke="#000000" stroke-width="5.9996" stroke-linecap="round" stroke-linejoin="round" stroke-miterlimit="10" x1="56.334" y1="209.622" x2="57.791" y2="215.504"/>
								</g>
								
									<path fill="#39A935" stroke="#000000" stroke-width="4.7997" stroke-linecap="round" stroke-linejoin="round" stroke-miterlimit="10" d="
									M76.684,130.373c-6.803-2.826-22.398-8.271-37.58-6.352c-5.729,0.727-15.561,5.124-15.674,5.077l-0.926-0.371l-2.445-19
									l-14.564,3.839l7.24,17.74c0,0-14.518,2.555-20.912,5.181c-14.154,5.817-25.041,18.244-29.564,24.055
									c11.181,1.271,21.048,1.059,29.492-0.632c-1.602,7.446-1.998,16.231-1.17,26.3c7.599-2.786,23.908-10.024,32.029-22.998
									c0.848-1.352,1.566-2.734,2.182-4.14c0.521,0.368,1.056,0.733,1.617,1.085c9.43,5.906,23.086,8.16,40.621,6.717
									c-2-5.452-6.291-15.387-13.346-23.568C60.987,140.516,68.678,136.197,76.684,130.373z"/>
							</g>
						</g>
						<g>
							<g>
								<defs>
									<rect id="SVGID_97_" width="405.631" height="228.211"/>
								</defs>
								<clipPath id="SVGID_33_">
									<use xlink:href="#SVGID_97_"  overflow="visible"/>
								</clipPath>
								<g clip-path="url(#SVGID_33_)">
									
										<path fill="#7E4E24" stroke="#000000" stroke-width="4.7997" stroke-linecap="round" stroke-linejoin="round" stroke-miterlimit="10" d="
										M319.281,110.054l-13.729,3.458l10.215,34.506l0.111-0.028c0.07,0.293,0.188,0.577,0.355,0.842
										c0.906,1.416,2.945,1.729,4.555,0.698c1.178-0.756,1.795-2.026,1.682-3.209l0.082-0.021L319.281,110.054z"/>
									
										<path fill="#FFCF00" stroke="#000000" stroke-width="4.7997" stroke-linecap="round" stroke-linejoin="round" stroke-miterlimit="10" d="
										M354.168,168.225c-15.27-21.356-16.627-38.12-36.043-33.24c-19.416,4.883-12.691,20.293-16.049,46.33
										c-2.303,17.84-33.307,71.818,20.947,83.358c18.834,2.82,27.357-1.333,27.357-1.333s9.475-0.369,24.734-11.757
										C417.471,215.762,364.629,182.855,354.168,168.225z"/>
									
										<path fill="none" stroke="#000000" stroke-width="3.5997" stroke-linecap="round" stroke-linejoin="round" stroke-miterlimit="10" d="
										M369.744,235.211c0,0,8.201-18.906-14.322-37.95"/>
								</g>
							</g>
							<g id="Layer_1_2_">
								<g>
									<defs>
										<rect id="SVGID_99_" width="405.631" height="228.211"/>
									</defs>
									<clipPath id="SVGID_35_">
										<use xlink:href="#SVGID_99_"  overflow="visible"/>
									</clipPath>
									<g clip-path="url(#SVGID_35_)">
										
											<path fill="#662482" stroke="#000000" stroke-width="4.7997" stroke-linecap="round" stroke-linejoin="round" stroke-miterlimit="10" d="
											M188.162,223.458c-3.764-8.099-0.252-17.715,7.846-21.479c8.096-3.764,17.711-0.25,21.475,7.848
											c3.766,8.098,0.252,17.715-7.844,21.479C201.541,235.066,191.926,231.557,188.162,223.458z"/>
										
											<circle fill="#662482" stroke="#000000" stroke-width="4.7997" stroke-linecap="round" stroke-linejoin="round" stroke-miterlimit="10" cx="230.102" cy="236.974" r="16.169"/>
										
											<circle fill="#662482" stroke="#000000" stroke-width="4.7997" stroke-linecap="round" stroke-linejoin="round" stroke-miterlimit="10" cx="148.263" cy="175.977" r="16.168"/>
										
											<circle fill="#662482" stroke="#000000" stroke-width="4.7997" stroke-linecap="round" stroke-linejoin="round" stroke-miterlimit="10" cx="175.543" cy="196.309" r="16.168"/>
										
											<circle fill="#662482" stroke="#000000" stroke-width="4.7997" stroke-linecap="round" stroke-linejoin="round" stroke-miterlimit="10" cx="173.502" cy="230.273" r="16.168"/>
										
											<circle fill="#662482" stroke="#000000" stroke-width="4.7997" stroke-linecap="round" stroke-linejoin="round" stroke-miterlimit="10" cx="146.221" cy="209.941" r="16.168"/>
										
											<circle fill="#662482" stroke="#000000" stroke-width="4.7997" stroke-linecap="round" stroke-linejoin="round" stroke-miterlimit="10" cx="144.18" cy="243.907" r="16.168"/>
									</g>
								</g>
								<g>
									<g>
										<defs>
											<rect id="SVGID_101_" width="405.631" height="228.211"/>
										</defs>
										<clipPath id="SVGID_37_">
											<use xlink:href="#SVGID_101_"  overflow="visible"/>
										</clipPath>
										<g clip-path="url(#SVGID_37_)">
											<g>
												
													<path fill="#422918" stroke="#000000" stroke-width="4.5291" stroke-linecap="round" stroke-linejoin="round" stroke-miterlimit="10" d="
													M332.588,70.589c0,0-1.205,10.227,18.604,20.447c0,0,0,0,0.004,0.002c19.809,10.221,27.445,3.313,27.445,3.313
													l16.076-31.159L348.664,39.43L332.588,70.589z"/>
												
													<path fill="#B17F49" stroke="#000000" stroke-width="4.5291" stroke-linecap="round" stroke-linejoin="round" stroke-miterlimit="10" d="
													M441.016,42.784c6.615-23.986-14.174-53.281-32.391-63.059l0.002-0.007c-0.092-0.048-0.189-0.095-0.285-0.144
													c-0.094-0.049-0.189-0.102-0.283-0.15l-0.004,0.006c-18.523-9.179-54.445-9.146-70.16,10.146
													C331.83-2.978,325.102,6.108,324.68,11.36c-0.371,4.622-4.084,15.788,46.207,40.805
													c49.531,26.487,56.48,16.992,60.031,14.011C434.955,62.79,438.461,52.042,441.016,42.784z"/>
											</g>
										</g>
									</g>
								</g>
							</g>
						</g>
					</g>
				</g>
			</g>
		</g>
	</g>
</g>
</svg>
