<?xml version="1.0" encoding="utf-8"?>
<!-- Generator: Adobe Illustrator 16.0.0, SVG Export Plug-In . SVG Version: 6.00 Build 0)  -->
<!DOCTYPE svg PUBLIC "-//W3C//DTD SVG 1.1//EN" "http://www.w3.org/Graphics/SVG/1.1/DTD/svg11.dtd">
<svg version="1.1" xmlns="http://www.w3.org/2000/svg" xmlns:xlink="http://www.w3.org/1999/xlink" x="0px" y="0px"
	 width="1919.999px" height="1080px" viewBox="0 0 1919.999 1080" enable-background="new 0 0 1919.999 1080" xml:space="preserve">
<g id="zid" display="none">
	<rect display="inline" fill="#EDEBDD" width="1919.999" height="1080"/>
</g>
<g id="zunaj" display="none">
	<g id="zunaj_2_" display="inline">
		<g>
			<g>
				<defs>
					<rect id="SVGID_1_" width="370.197" height="1080"/>
				</defs>
				<clipPath id="SVGID_2_">
					<use xlink:href="#SVGID_1_"  overflow="visible"/>
				</clipPath>
				<g clip-path="url(#SVGID_2_)">
					<g>
						<rect x="-2.334" y="131.959" fill="none" width="243.568" height="963.198"/>
					</g>
					<g>
						
							<path fill="#57B2E5" stroke="#000000" stroke-width="3" stroke-linecap="round" stroke-linejoin="round" stroke-miterlimit="10" d="
							M408.211,884.429V-17.318H-34.145V897.64C69.58,894.362,355.508,874.438,408.211,884.429z"/>
						
							<path fill="#B8B5B5" stroke="#000000" stroke-width="3" stroke-linecap="round" stroke-linejoin="round" stroke-miterlimit="10" d="
							M-2.334,669.634c16.279,2.486,34.182-9.228,47.799-17.979c22.082-14.189,52.781-36.725,67.682-61.172
							c8.33-13.67,11.939-31.067,19.969-45.3c10.758-19.067,27.197-32.627,41.484-48.297c8.805-9.657,36.48-55.834,46.898-51.124
							c13.273,6.002,22.527,46.681,33.746,59.673c6.945,8.044,15.707,14.103,23.291,21.372c8.992,8.623,13.758,17.967,20.951,28.857
							c10.605,16.061,22.354,24.009,38.744,29.726c12.699,4.431,44.662,9.409,47.695,23.686c2.781,13.085,9.904,68.227,9.904,81.703
							c0,40.664-41.461,33.782-45.82,74.202c-4.188,38.854,1.791,80.892-4.303,118.916c-41.059,3.098-83.105,0.227-124.313,0.227
							c-18.148,0-35.275,3.586-53.115,4.524c-21.637,1.138-42.422-10.719-63.24-16.632c-18.232-5.179-30.064-17.365-45.811-30.209
							c-8.371-6.827-17.961-12.248-25.35-20.338c-15.924-17.436-10.188-52.72-13.279-75.927
							c-2.492-18.696-0.906-38.337-3.523-56.744c-1.516-10.67-1.506-15.093-12.941-13.165"/>
						
							<path fill="#B8B5B5" stroke="#000000" stroke-width="3" stroke-linecap="round" stroke-linejoin="round" stroke-miterlimit="10" d="
							M-91.801,569.302c-11.857,5.538-26.814,9.709-39.762,14.716c-15.354,5.938-23.48,12.37-35.764,19.87
							c-18.109,11.061-38.162,16.532-66.141,20.47c-21.684,3.051-20.973,1.514-26.152,11.344c-4.746,9.01-4.436,20.631-4.436,29.91
							c0,28,3.035,54.575,10.477,82.407c7.15,26.756-3.059,55.7,7.346,81.885c70.09,2.133,141.869,0.154,212.213,0.154
							c30.982,0,60.219,2.47,90.674,3.115c36.938,0.784,72.422-7.38,107.955-11.451c31.125-3.565,51.326-11.958,78.205-20.802
							c14.289-4.701,30.66-8.434,43.273-14.004c27.186-12.006,17.389-36.302,22.67-52.282c6.949-21.041,12.752-43.805-13.498-53.505
							c-27.313-10.093-58.016-12.812-85.695-22.226c-36.865-12.54-76.723-26.304-105.969-49.224
							c-23.451-18.376-40.768-36.639-67.793-52.771c-16.42-9.803-52.959-32.479-74.326-28.134
							C-61.223,533.39-72.035,560.069-91.801,569.302z"/>
						
							<path fill="#39A935" stroke="#000000" stroke-width="3" stroke-linecap="round" stroke-linejoin="round" stroke-miterlimit="10" d="
							M125.645,667.006c52.199,9.396,98.514-18.8,143.146-30.586s116.313,7.652,116.313,7.652v186.282H-2.646V683.519v-24.253
							C38.979,655.59,83.02,659.337,125.645,667.006z"/>
						
							<path fill="#93C01F" stroke="#000000" stroke-width="3" stroke-linecap="round" stroke-linejoin="round" stroke-miterlimit="10" d="
							M101.07,740.315C64.953,743.637-2.646,728.128-2.646,728.128v417.169h393.525l7.428-387.363l-7.428-26.254
							c-21.008-1.854-91.807-8.493-135.797,0.922C203.895,739.491,121.395,733.16,101.07,740.315z"/>
						
							<path fill="#0073B3" stroke="#000000" stroke-width="3" stroke-linecap="round" stroke-linejoin="round" stroke-miterlimit="10" d="
							M395.832,932.587c0,0-21.617-18.958-33.77-24.229c-8.789-3.815-21.83-0.449-31.396-1.611
							c-13.605-1.645-28.158,3.203-41.867,3.439c-17.043,0.292-33.363-11.188-50.59-9.039c-9.191,1.147-18.293,5.266-27.271,7.082
							c-29.684,6.01-46.275-8.882-70.98-16.443c-19.545-5.984-43.754,1.168-63.188,4.779c-25.834,4.802-52.539,3.565-79.264,3.505
							c-17.678-0.041-27.332-1.637-37.32,15.001c-18.936,31.546-16.66,69.912-34.688,101.833
							c-14.082,24.931-32.367,115.463,8.48,123.001c12.736,2.349,26.189-0.396,39.189-0.181c8.332,0.141,14.053,2.186,20.693,6.661
							c7.9,5.323,14.246,10.393,23.535,13.417c20.762,6.771,40.971,6.1,62.193,10.771c25.639,5.638,51.201,11.774,77.6,13.819
							c25.771,1.994,30.855,7.328,43.189,32.479c9.209,18.777,219.385-63.934,219.385-63.934L395.832,932.587z"/>
					</g>
					<g>
						<path stroke="#282828" stroke-width="3" stroke-linecap="round" stroke-linejoin="round" stroke-miterlimit="10" d="
							M71.023,464.629"/>
					</g>
					<g>
						<path stroke="#282828" stroke-width="3" stroke-linecap="round" stroke-linejoin="round" stroke-miterlimit="10" d="
							M48.375,464.629"/>
					</g>
					<g>
						
							<path fill="#785C37" stroke="#000000" stroke-width="3" stroke-linecap="round" stroke-linejoin="round" stroke-miterlimit="10" d="
							M89.668,404.813c-26.689-15.73-65.865-25.525-88.281-30.197c0.025-0.064,0.061-0.125,0.076-0.193
							c0.021-0.092,0.021-0.189,0.039-0.281c22.697,2.737,58.215,4.687,87.455-6.07c3.07-1.131,2.779-3.504-0.652-5.303
							c-3.438-1.801-8.711-2.342-11.783-1.207c-30.244,11.119-67.797,6.483-86.244,3.635c-1.137-0.315-2.33-0.594-3.574-0.813
							c-145.852-25.712-310.635,4.323-317.574,5.613c-7.523,1.399-9.313,5.784-3.994,9.797c3.012,2.272,7.664,3.938,12.498,4.701
							c3.695,0.582,7.496,0.637,10.758,0.032c1.602-0.297,161.459-29.362,294.658-5.907c0.096,0.018,0.195,0.028,0.291,0.045
							c5.475,0.911,61.848,10.616,94.287,29.733c1.498,0.883,3.451,1.508,5.447,1.824c2.266,0.355,4.584,0.316,6.352-0.214
							C92.752,409.02,92.859,406.689,89.668,404.813z"/>
						
							<path fill="#39A935" stroke="#000000" stroke-width="3" stroke-linecap="round" stroke-linejoin="round" stroke-miterlimit="10" d="
							M70.707,372.514c-0.988-10.73,2.094-19.141,9.176-25.014c9.783-8.109,24.531-9.566,31.248-9.789
							c-3.43,14.206-8.766,24.389-15.879,30.283C85.324,376.229,74.59,373.803,70.707,372.514z"/>
						
							<path fill="#39A935" stroke="#000000" stroke-width="3" stroke-linecap="round" stroke-linejoin="round" stroke-miterlimit="10" d="
							M79.625,405.295c7.068-4.336,13.918-5.066,20.383-2.181c8.926,3.991,14.951,13.675,17.387,18.233
							c-10.969,2.467-19.811,2.25-26.301-0.652C82.035,416.648,80.055,408.412,79.625,405.295z"/>
						
							<path fill="#39A935" stroke="#000000" stroke-width="3" stroke-linecap="round" stroke-linejoin="round" stroke-miterlimit="10" d="
							M35.5,383.287c8.258,0.756,14.184,4.268,17.637,10.447c4.764,8.539,3.799,19.901,3.023,25.013
							c-10.264-4.585-17.221-10.048-20.686-16.257C30.639,393.827,33.979,386.043,35.5,383.287z"/>
						
							<path fill="#39A935" stroke="#000000" stroke-width="3" stroke-linecap="round" stroke-linejoin="round" stroke-miterlimit="10" d="
							M71.061,362.839c8.014-2.144,14.787-0.896,20.16,3.716c7.42,6.368,10.436,17.367,11.473,22.432
							c-11.217-0.76-19.631-3.488-25.025-8.118C70.137,374.404,70.586,365.945,71.061,362.839z"/>
					</g>
					<g>
						
							<path fill="#785C37" stroke="#000000" stroke-width="3" stroke-linecap="round" stroke-linejoin="round" stroke-miterlimit="10" d="
							M58.449,246.143c-30.447,5.721-66.395,24.121-86.35,35.354c-0.021-0.065-0.037-0.136-0.066-0.197
							c-0.047-0.084-0.107-0.157-0.156-0.239c18.893-12.873,46.918-34.772,61.859-62.113c1.568-2.872-0.213-4.469-3.979-3.563
							c-3.773,0.907-8.104,3.968-9.67,6.841c-15.457,28.276-46.783,49.496-62.549,59.49c-1.064,0.51-2.146,1.085-3.23,1.736
							c-126.748,76.609-231.066,207.653-235.443,213.191c-4.744,6.006-3.205,10.484,3.438,10.003
							c3.762-0.268,8.361-2.075,12.504-4.682c3.168-1.994,6.064-4.453,8.121-7.055c1.01-1.274,102.264-128.351,217.996-198.333
							c0.086-0.049,0.166-0.108,0.248-0.161c4.725-2.914,53.561-32.699,90.568-39.647c1.705-0.318,3.59-1.136,5.303-2.211
							c1.939-1.223,3.658-2.779,4.641-4.34C63.539,247.285,62.09,245.46,58.449,246.143z"/>
						
							<path fill="#39A935" stroke="#000000" stroke-width="3" stroke-linecap="round" stroke-linejoin="round" stroke-miterlimit="10" d="
							M22.369,231.939c-6.092-5.633-8.65-12.028-7.619-19.031c1.424-9.674,9.111-18.094,12.846-21.674
							c5.342,9.89,7.527,18.461,6.488,25.49C32.643,226.543,25.25,230.682,22.369,231.939z"/>
						
							<path fill="#39A935" stroke="#000000" stroke-width="3" stroke-linecap="round" stroke-linejoin="round" stroke-miterlimit="10" d="
							M51.625,255.52c-3.271-7.619-3.008-14.502,0.783-20.483c5.232-8.257,15.686-12.82,20.553-14.574
							c0.857,11.207-0.633,19.929-4.443,25.931C63.207,254.771,54.77,255.546,51.625,255.52z"/>
						
							<path fill="#39A935" stroke="#000000" stroke-width="3" stroke-linecap="round" stroke-linejoin="round" stroke-miterlimit="10" d="
							M-11.918,272.596c6.264-5.441,12.898-7.291,19.75-5.502c9.461,2.471,16.992,11.031,20.145,15.133
							c-10.416,4.23-19.172,5.471-26.051,3.674C-7.674,283.395-10.982,275.596-11.918,272.596z"/>
						
							<path fill="#39A935" stroke="#000000" stroke-width="3" stroke-linecap="round" stroke-linejoin="round" stroke-miterlimit="10" d="
							M50.938,254.438c3.41-7.56,8.662-12.013,15.631-13.258c9.631-1.716,20.055,2.907,24.631,5.313
							c-7.686,8.2-15.119,12.989-22.119,14.237C59.313,262.475,53.043,256.775,50.938,254.438z"/>
						
							<path fill="#39A935" stroke="#000000" stroke-width="3" stroke-linecap="round" stroke-linejoin="round" stroke-miterlimit="10" d="
							M26.107,231.482c-7.85,2.678-14.693,1.889-20.363-2.351c-7.832-5.853-11.582-16.621-12.957-21.606
							c11.24,0.004,19.82,2.158,25.51,6.416C26.248,219.878,26.371,228.35,26.107,231.482z"/>
					</g>
					<g>
						
							<path fill="#785C37" stroke="#000000" stroke-width="3" stroke-linecap="round" stroke-linejoin="round" stroke-miterlimit="10" d="
							M24.699,495.316C17.271,465.24-3.125,430.39-15.465,411.1c0.063-0.029,0.133-0.045,0.189-0.08
							c0.082-0.049,0.152-0.115,0.232-0.17c13.918,18.138,37.363,44.885,65.502,58.263c2.957,1.402,4.449-0.467,3.334-4.177
							c-1.119-3.715-4.418-7.863-7.375-9.268c-29.104-13.839-52.055-43.92-62.922-59.096c-0.568-1.032-1.205-2.081-1.916-3.127
							c-83.635-122.228-220.352-218.992-226.129-223.051c-6.262-4.396-10.648-2.608-9.793,3.998c0.48,3.741,2.545,8.23,5.379,12.221
							c2.17,3.051,4.789,5.802,7.502,7.712c1.33,0.937,133.91,94.862,210.309,206.465c0.053,0.083,0.117,0.161,0.174,0.239
							c3.18,4.553,35.668,51.632,44.691,88.188c0.416,1.686,1.336,3.521,2.508,5.17c1.33,1.866,2.98,3.496,4.594,4.388
							C23.848,500.463,25.588,498.912,24.699,495.316z"/>
						
							<path fill="#39A935" stroke="#000000" stroke-width="3" stroke-linecap="round" stroke-linejoin="round" stroke-miterlimit="10" d="
							M36.846,458.491c5.281-6.396,11.523-9.313,18.572-8.681c9.736,0.879,18.578,8.08,22.365,11.604
							c-9.574,5.89-18.012,8.557-25.088,7.916C42.813,468.444,38.266,461.298,36.846,458.491z"/>
						
							<path fill="#39A935" stroke="#000000" stroke-width="3" stroke-linecap="round" stroke-linejoin="round" stroke-miterlimit="10" d="
							M14.852,489.216c10.77-5.358,20.76-5.544,29.732-0.543c12.387,6.907,19.854,21.67,22.789,28.574
							c-16.162,2.163-28.914,0.716-37.92-4.313C16.881,505.928,15.068,493.774,14.852,489.216z"/>
						
							<path fill="#39A935" stroke="#000000" stroke-width="3" stroke-linecap="round" stroke-linejoin="round" stroke-miterlimit="10" d="
							M-0.924,430.477c8.002,2.19,13.223,6.688,15.535,13.38c3.193,9.239,0.25,20.256-1.408,25.154
							C3.9,462.694-1.986,456.096-4.313,449.377C-7.555,439.998-2.9,432.92-0.924,430.477z"/>
						
							<path fill="#39A935" stroke="#000000" stroke-width="3" stroke-linecap="round" stroke-linejoin="round" stroke-miterlimit="10" d="
							M12.889,486.457c7.738,2.979,12.48,7.972,14.117,14.859c2.256,9.517-1.773,20.184-3.916,24.89
							c-8.621-7.209-13.822-14.363-15.461-21.281C5.336,495.271,10.67,488.689,12.889,486.457z"/>
					</g>
					<g>
						<g>
							
								<path fill="#785C37" stroke="#000000" stroke-width="3" stroke-linecap="round" stroke-linejoin="round" stroke-miterlimit="10" d="
								M204.818,305.884c-29.934-7.983-72.154-6.771-72.166-6.864c22.602-3.459,36.334-10.121,61.609-28.336
								c2.654-1.914,1.738-4.121-2.053-4.933c-3.793-0.813-9.02,0.083-11.674,2c-26.145,18.836-53.564,24.458-72.098,26.669
								c-1.18,0.001-2.404,0.053-3.66,0.175c-147.4,14.41-298.061,87.604-304.398,90.71c-6.871,3.369-7.416,8.074-1.215,10.51
								c3.512,1.381,8.439,1.734,13.301,1.172c3.717-0.433,7.393-1.4,10.371-2.857c1.463-0.716,147.639-71.65,282.242-84.838
								c0.098-0.01,0.197-0.025,0.295-0.037c5.518-0.592,52.426-6.384,88.807,3.318c1.68,0.447,3.73,0.525,5.738,0.293
								c2.277-0.268,4.5-0.928,6.061-1.912C208.92,309.109,208.396,306.837,204.818,305.884z"/>
							
								<path fill="#39A935" stroke="#000000" stroke-width="3" stroke-linecap="round" stroke-linejoin="round" stroke-miterlimit="10" d="
								M184.148,275.188c-1.797-10.812,0.705-19.567,7.451-26.053c9.324-8.955,24.176-11.527,30.971-12.249
								c-2.42,14.665-7.076,25.39-13.854,31.897C199.254,277.874,188.184,276.211,184.148,275.188z"/>
							
								<path fill="#39A935" stroke="#000000" stroke-width="3" stroke-linecap="round" stroke-linejoin="round" stroke-miterlimit="10" d="
								M-15.346,379.936c-1.797-10.812,0.705-19.567,7.451-26.053c9.324-8.956,24.178-11.527,30.973-12.249
								C20.656,356.299,16,367.021,9.223,373.531C-0.24,382.621-11.311,380.958-15.346,379.936z"/>
							
								<path fill="#39A935" stroke="#000000" stroke-width="3" stroke-linecap="round" stroke-linejoin="round" stroke-miterlimit="10" d="
								M-34.172,369.861c10.311-3.715,19.375-2.832,26.969,2.638c10.488,7.558,15.691,21.704,17.627,28.258
								c-14.861,0.261-26.25-2.389-33.873-7.883C-34.094,385.203-34.451,374.016-34.172,369.861z"/>
							
								<path fill="#39A935" stroke="#000000" stroke-width="3" stroke-linecap="round" stroke-linejoin="round" stroke-miterlimit="10" d="
								M87.123,311.257c-8.049,1.99-14.799,0.618-20.084-4.091c-7.305-6.506-10.113-17.559-11.057-22.641
								c11.201,0.968,19.563,3.851,24.869,8.58C88.264,299.707,87.658,308.154,87.123,311.257z"/>
							
								<path fill="#39A935" stroke="#000000" stroke-width="3" stroke-linecap="round" stroke-linejoin="round" stroke-miterlimit="10" d="
								M193.371,309.902c1.438-8.166,5.428-13.781,11.875-16.709c8.902-4.041,20.145-2.137,25.176-0.938
								c-5.42,9.851-11.443,16.327-17.916,19.265C203.471,315.62,195.99,311.646,193.371,309.902z"/>
							
								<path fill="#39A935" stroke="#000000" stroke-width="3" stroke-linecap="round" stroke-linejoin="round" stroke-miterlimit="10" d="
								M193.316,308.449c7.559-3.413,14.445-3.28,20.494,0.395c8.357,5.078,13.119,15.439,14.965,20.27
								c-11.189,1.072-19.938-0.252-26.01-3.944C194.287,320.016,193.354,311.596,193.316,308.449z"/>
							
								<path fill="#39A935" stroke="#000000" stroke-width="3" stroke-linecap="round" stroke-linejoin="round" stroke-miterlimit="10" d="
								M88.438,308.368c5.363-6.325,11.643-9.16,18.684-8.435c9.729,1.004,18.471,8.323,22.211,11.895
								c-9.65,5.768-18.119,8.322-25.189,7.592C94.27,318.4,89.818,311.195,88.438,308.368z"/>
							
								<path fill="#39A935" stroke="#000000" stroke-width="3" stroke-linecap="round" stroke-linejoin="round" stroke-miterlimit="10" d="
								M186.563,276.116c-5.906-3.892-8.957-8.917-9.066-14.957c-0.152-8.345,5.146-16.503,7.785-20.039
								c5.883,7.58,8.918,14.489,9.025,20.554C194.461,270.143,188.814,274.654,186.563,276.116z"/>
						</g>
						
							<path fill="#39A935" stroke="#000000" stroke-width="3" stroke-linecap="round" stroke-linejoin="round" stroke-miterlimit="10" d="
							M87.727,310.3c-2.822-7.798-2.16-14.653,1.971-20.403c5.709-7.938,16.406-11.89,21.365-13.356
							c0.205,11.241-1.789,19.858-5.939,25.63C99.33,310.229,90.867,310.508,87.727,310.3z"/>
					</g>
					<g>
						
							<path fill="#B17F49" stroke="#1D1D1B" stroke-width="3" stroke-linecap="round" stroke-linejoin="round" stroke-miterlimit="10" d="
							M77.273,883.816c0,10.935-15.818,19.798-35.332,19.798c-19.512,0-35.33-8.863-35.33-19.798
							c0-10.934,15.818-28.022,35.33-28.022C61.455,855.794,77.273,872.884,77.273,883.816z"/>
						
							<path fill="#925F36" stroke="#1D1D1B" stroke-width="3" stroke-linecap="round" stroke-linejoin="round" stroke-miterlimit="10" d="
							M88.334,895.579c0,6.757-9.775,12.234-21.834,12.234s-21.834-5.479-21.834-12.234c0-6.758,9.775-17.318,21.834-17.318
							S88.334,888.821,88.334,895.579z"/>
					</g>
				</g>
			</g>
			<g>
				<defs>
					<rect id="SVGID_3_" width="370.197" height="1080"/>
				</defs>
				<clipPath id="SVGID_4_">
					<use xlink:href="#SVGID_3_"  overflow="visible"/>
				</clipPath>
				<g clip-path="url(#SVGID_4_)">
					
						<rect x="52.8" y="680.327" transform="matrix(0.1393 -0.9902 0.9902 0.1393 -649.847 663.6689)" fill="#683B11" stroke="#000000" stroke-width="3" stroke-linecap="round" stroke-linejoin="round" stroke-miterlimit="10" width="8.131" height="50.69"/>
					
						<rect x="350.036" y="667.372" transform="matrix(0.1391 -0.9903 0.9903 0.1391 -381.1309 947.0459)" fill="#683B11" stroke="#000000" stroke-width="3" stroke-linecap="round" stroke-linejoin="round" stroke-miterlimit="10" width="8.132" height="50.695"/>
					
						<rect x="100.59" y="679.279" transform="matrix(-0.208 -0.9781 0.9781 -0.208 -561.9415 953.1459)" fill="#683B11" stroke="#000000" stroke-width="3" stroke-linecap="round" stroke-linejoin="round" stroke-miterlimit="10" width="8.648" height="49.597"/>
					
						<rect x="152.14" y="668.439" transform="matrix(-0.0699 -0.9976 0.9976 -0.0699 -527.64 900.9664)" fill="#683B11" stroke="#000000" stroke-width="3" stroke-linecap="round" stroke-linejoin="round" stroke-miterlimit="10" width="8.132" height="56.055"/>
					
						<rect x="199.451" y="676.401" transform="matrix(0.1391 -0.9903 0.9903 0.1391 -517.787 804.0361)" fill="#683B11" stroke="#000000" stroke-width="3" stroke-linecap="round" stroke-linejoin="round" stroke-miterlimit="10" width="8.133" height="46.805"/>
					
						<rect x="6.277" y="675.645" transform="matrix(0.1393 -0.9903 0.9903 0.1393 -683.3292 611.9219)" fill="#683B11" stroke="#000000" stroke-width="3" stroke-linecap="round" stroke-linejoin="round" stroke-miterlimit="10" width="8.133" height="46.803"/>
					
						<rect x="247.924" y="671.513" transform="matrix(-0.1739 -0.9848 0.9848 -0.1739 -391.1492 1067.0658)" fill="#683B11" stroke="#000000" stroke-width="3" stroke-linecap="round" stroke-linejoin="round" stroke-miterlimit="10" width="8.131" height="52.162"/>
					
						<rect x="298.674" y="663.496" transform="matrix(-0.087 -0.9962 0.9962 -0.087 -359.8354 1053.249)" fill="#683B11" stroke="#000000" stroke-width="3" stroke-linecap="round" stroke-linejoin="round" stroke-miterlimit="10" width="8.13" height="56.051"/>
					
						<rect x="52.729" y="698.89" transform="matrix(0.1393 -0.9903 0.9903 0.1393 -668.2938 679.6159)" fill="#683B11" stroke="#000000" stroke-width="3" stroke-linecap="round" stroke-linejoin="round" stroke-miterlimit="10" width="8.134" height="50.695"/>
					
						<rect x="350.03" y="685.944" transform="matrix(0.1393 -0.9903 0.9903 0.1393 -399.5773 962.8757)" fill="#683B11" stroke="#000000" stroke-width="3" stroke-linecap="round" stroke-linejoin="round" stroke-miterlimit="10" width="8.134" height="50.695"/>
					
						<rect x="100.591" y="697.824" transform="matrix(-0.2077 -0.9782 0.9782 -0.2077 -580.1457 975.3661)" fill="#683B11" stroke="#000000" stroke-width="3" stroke-linecap="round" stroke-linejoin="round" stroke-miterlimit="10" width="8.65" height="49.594"/>
					
						<rect x="152.14" y="687.024" transform="matrix(-0.0697 -0.9976 0.9976 -0.0697 -546.2282 920.6816)" fill="#683B11" stroke="#000000" stroke-width="3" stroke-linecap="round" stroke-linejoin="round" stroke-miterlimit="10" width="8.132" height="56.053"/>
					
						<rect x="199.451" y="694.984" transform="matrix(0.1391 -0.9903 0.9903 0.1391 -536.1895 820.0351)" fill="#683B11" stroke="#000000" stroke-width="3" stroke-linecap="round" stroke-linejoin="round" stroke-miterlimit="10" width="8.133" height="46.805"/>
					
						<rect x="6.277" y="694.216" transform="matrix(0.139 -0.9903 0.9903 0.139 -701.7427 628.0881)" fill="#683B11" stroke="#000000" stroke-width="3" stroke-linecap="round" stroke-linejoin="round" stroke-miterlimit="10" width="8.134" height="46.805"/>
					
						<rect x="247.913" y="690.053" transform="matrix(-0.1734 -0.9848 0.9848 -0.1734 -409.609 1088.479)" fill="#683B11" stroke="#000000" stroke-width="3" stroke-linecap="round" stroke-linejoin="round" stroke-miterlimit="10" width="8.132" height="52.161"/>
					
						<rect x="298.677" y="682.087" transform="matrix(-0.087 -0.9962 0.9962 -0.087 -378.3564 1073.4543)" fill="#683B11" stroke="#000000" stroke-width="3" stroke-linecap="round" stroke-linejoin="round" stroke-miterlimit="10" width="8.131" height="56.051"/>
					
						<rect x="52.727" y="717.474" transform="matrix(0.1393 -0.9903 0.9903 0.1393 -686.6984 695.6098)" fill="#683B11" stroke="#000000" stroke-width="3" stroke-linecap="round" stroke-linejoin="round" stroke-miterlimit="10" width="8.134" height="50.695"/>
					
						<rect x="350.034" y="704.54" transform="matrix(0.1393 -0.9903 0.9903 0.1393 -417.9931 978.873)" fill="#683B11" stroke="#000000" stroke-width="3" stroke-linecap="round" stroke-linejoin="round" stroke-miterlimit="10" width="8.133" height="50.695"/>
					
						<rect x="100.589" y="716.407" transform="matrix(-0.2077 -0.9782 0.9782 -0.2077 -598.3312 997.7906)" fill="#683B11" stroke="#000000" stroke-width="3" stroke-linecap="round" stroke-linejoin="round" stroke-miterlimit="10" width="8.651" height="49.594"/>
					
						<rect x="152.139" y="705.607" transform="matrix(-0.0697 -0.9976 0.9976 -0.0697 -564.7681 940.559)" fill="#683B11" stroke="#000000" stroke-width="3" stroke-linecap="round" stroke-linejoin="round" stroke-miterlimit="10" width="8.132" height="56.055"/>
					
						<rect x="199.451" y="713.567" transform="matrix(0.1393 -0.9903 0.9903 0.1393 -554.6129 835.8657)" fill="#683B11" stroke="#000000" stroke-width="3" stroke-linecap="round" stroke-linejoin="round" stroke-miterlimit="10" width="8.134" height="46.803"/>
					
						<rect x="6.277" y="712.813" transform="matrix(0.1391 -0.9903 0.9903 0.1391 -720.1561 644.0734)" fill="#683B11" stroke="#000000" stroke-width="3" stroke-linecap="round" stroke-linejoin="round" stroke-miterlimit="10" width="8.132" height="46.803"/>
					
						<rect x="247.913" y="708.638" transform="matrix(-0.1736 -0.9848 0.9848 -0.1736 -427.8226 1110.4463)" fill="#683B11" stroke="#000000" stroke-width="3" stroke-linecap="round" stroke-linejoin="round" stroke-miterlimit="10" width="8.132" height="52.159"/>
					
						<rect x="298.677" y="700.671" transform="matrix(-0.0869 -0.9962 0.9962 -0.0869 -396.8737 1093.647)" fill="#683B11" stroke="#000000" stroke-width="3" stroke-linecap="round" stroke-linejoin="round" stroke-miterlimit="10" width="8.132" height="56.051"/>
					<g>
						<g>
							<g>
								<path fill="#683B11" d="M38.174,746.222c0,1.561-1.275,2.835-2.836,2.835h-2.459c-1.561,0-2.834-1.274-2.834-2.835V695.84
									c0-1.56,1.273-2.835,2.834-2.835h2.459c1.561,0,2.836,1.275,2.836,2.835V746.222z"/>
								
									<path fill="none" stroke="#000000" stroke-width="3" stroke-linecap="round" stroke-linejoin="round" stroke-miterlimit="10" d="
									M38.174,746.222c0,1.561-1.275,2.835-2.836,2.835h-2.459c-1.561,0-2.834-1.274-2.834-2.835V695.84
									c0-1.56,1.273-2.835,2.834-2.835h2.459c1.561,0,2.836,1.275,2.836,2.835V746.222z"/>
							</g>
							<g>
								<path fill="#683B11" d="M83.41,752.654c0,1.56-1.275,2.835-2.836,2.835h-2.463c-1.561,0-2.836-1.275-2.836-2.835v-50.384
									c0-1.561,1.275-2.836,2.836-2.836h2.463c1.561,0,2.836,1.275,2.836,2.836V752.654z"/>
								
									<path fill="none" stroke="#000000" stroke-width="3" stroke-linecap="round" stroke-linejoin="round" stroke-miterlimit="10" d="
									M83.41,752.654c0,1.56-1.275,2.835-2.836,2.835h-2.463c-1.561,0-2.836-1.275-2.836-2.835v-50.384
									c0-1.561,1.275-2.836,2.836-2.836h2.463c1.561,0,2.836,1.275,2.836,2.836V752.654z"/>
							</g>
							<g>
								<path fill="#683B11" d="M185.658,739.255c0,1.561-1.275,2.835-2.834,2.835h-2.465c-1.559,0-2.834-1.274-2.834-2.835V688.87
									c0-1.561,1.275-2.835,2.834-2.835h2.465c1.559,0,2.834,1.274,2.834,2.835V739.255z"/>
								
									<path fill="none" stroke="#000000" stroke-width="3" stroke-linecap="round" stroke-linejoin="round" stroke-miterlimit="10" d="
									M185.658,739.255c0,1.561-1.275,2.835-2.834,2.835h-2.465c-1.559,0-2.834-1.274-2.834-2.835V688.87
									c0-1.561,1.275-2.835,2.834-2.835h2.465c1.559,0,2.834,1.274,2.834,2.835V739.255z"/>
							</g>
							<g>
								<path fill="#683B11" d="M132.938,743.005c0,1.561-1.273,2.835-2.834,2.835h-2.461c-1.559,0-2.834-1.274-2.834-2.835v-50.381
									c0-1.56,1.275-2.835,2.834-2.835h2.461c1.561,0,2.834,1.275,2.834,2.835V743.005z"/>
								
									<path fill="none" stroke="#000000" stroke-width="3" stroke-linecap="round" stroke-linejoin="round" stroke-miterlimit="10" d="
									M132.938,743.005c0,1.561-1.273,2.835-2.834,2.835h-2.461c-1.559,0-2.834-1.274-2.834-2.835v-50.381
									c0-1.56,1.275-2.835,2.834-2.835h2.461c1.561,0,2.834,1.275,2.834,2.835V743.005z"/>
							</g>
							<g>
								<path fill="#683B11" d="M230.916,746.153c0,1.56-1.275,2.835-2.834,2.835h-2.465c-1.561,0-2.834-1.275-2.834-2.835v-50.383
									c0-1.561,1.273-2.836,2.834-2.836h2.465c1.559,0,2.834,1.275,2.834,2.836V746.153z"/>
								
									<path fill="none" stroke="#000000" stroke-width="3" stroke-linecap="round" stroke-linejoin="round" stroke-miterlimit="10" d="
									M230.916,746.153c0,1.56-1.275,2.835-2.834,2.835h-2.465c-1.561,0-2.834-1.275-2.834-2.835v-50.383
									c0-1.561,1.273-2.836,2.834-2.836h2.465c1.559,0,2.834,1.275,2.834,2.836V746.153z"/>
							</g>
							<g>
								<path fill="#683B11" d="M333.164,732.754c0,1.561-1.275,2.835-2.834,2.835h-2.463c-1.561,0-2.836-1.274-2.836-2.835v-50.385
									c0-1.561,1.275-2.835,2.836-2.835h2.463c1.559,0,2.834,1.274,2.834,2.835V732.754z"/>
								
									<path fill="none" stroke="#000000" stroke-width="3" stroke-linecap="round" stroke-linejoin="round" stroke-miterlimit="10" d="
									M333.164,732.754c0,1.561-1.275,2.835-2.834,2.835h-2.463c-1.561,0-2.836-1.274-2.836-2.835v-50.385
									c0-1.561,1.275-2.835,2.836-2.835h2.463c1.559,0,2.834,1.274,2.834,2.835V732.754z"/>
							</g>
							<g>
								<path fill="#683B11" d="M280.443,736.504c0,1.561-1.273,2.835-2.834,2.835h-2.463c-1.559,0-2.834-1.274-2.834-2.835v-50.381
									c0-1.56,1.275-2.835,2.834-2.835h2.463c1.561,0,2.834,1.275,2.834,2.835V736.504z"/>
								
									<path fill="none" stroke="#000000" stroke-width="3" stroke-linecap="round" stroke-linejoin="round" stroke-miterlimit="10" d="
									M280.443,736.504c0,1.561-1.273,2.835-2.834,2.835h-2.463c-1.559,0-2.834-1.274-2.834-2.835v-50.381
									c0-1.56,1.275-2.835,2.834-2.835h2.463c1.561,0,2.834,1.275,2.834,2.835V736.504z"/>
							</g>
						</g>
					</g>
				</g>
			</g>
			<g>
				<defs>
					<rect id="SVGID_5_" width="370.197" height="1080"/>
				</defs>
				<clipPath id="SVGID_6_">
					<use xlink:href="#SVGID_5_"  overflow="visible"/>
				</clipPath>
			</g>
		</g>
	</g>
</g>
<g id="zavesa" display="none">
	<g display="inline">
		<defs>
			<rect id="SVGID_13_" width="420" height="1080"/>
		</defs>
		<clipPath id="SVGID_8_">
			<use xlink:href="#SVGID_13_"  overflow="visible"/>
		</clipPath>
	</g>
</g>
<g id="pohistvo" display="none">
	<g id="pohistvo_1_" display="inline">
		<g>
			<g>
				<defs>
					<rect id="SVGID_19_" width="1919.998" height="1080"/>
				</defs>
				<clipPath id="SVGID_10_">
					<use xlink:href="#SVGID_19_"  overflow="visible"/>
				</clipPath>
				<g clip-path="url(#SVGID_10_)">
					<g>
						<g>
							<g>
								
									<path fill="#E2BB93" stroke="#000000" stroke-width="3" stroke-linecap="round" stroke-linejoin="round" stroke-miterlimit="10" d="
									M1229.002,667.896c-6.129-10.007-30.92-47.003-42.66-55.942c-7.277-5.539-16.229-10.241-27.799-13.894
									c-16.506-5.209-30.873-5.55-46.922-8.785l-0.277-13.545c56.596-4.753,63.156-55.035,63.156-55.035
									s11.479,2.612,14.498-12.406c3.059-15.209-14.865-20.16-14.865-20.16s-6.48-68.339-65.85-67.253
									c-6.166,0.112-11.955,0.499-17.439,1.109c-5.484-0.61-11.275-0.997-17.441-1.109c-59.363-1.086-41.072,59.826-64.289,71.398
									c-0.504,0.244-0.75,0.403-0.75,0.403c-5.129-1.541-18.973,3.648-15.002,17.896c4.111,14.762,15.387,12.229,15.387,12.229
									s4.926,46.313,58.701,52.62l-0.504,13.108c-16.348,3.408-33.9,4.207-50.77,9.528c-11.568,3.651-20.52,8.354-27.797,13.894
									c-11.744,8.939-36.535,45.937-42.662,55.941c-5.559,9.084,1.205,32.956,1.205,32.956l3.301,7.772
									c0,0,25.275,12.514,24.488,2.272c-0.33-4.346-2.387-26.018-2.504-31.388c-0.145-6.632,10.498-16.165,14.082-21.29
									c11.492-16.43,14.797-23.438,43.217-27.899c3.338-0.526,8.98,42.063,12.547,74.814h90.613
									c3.568-32.751,9.211-75.342,12.547-74.814c28.42,4.463,31.729,11.471,43.217,27.899c3.584,5.125,14.23,14.658,14.088,21.29
									c-0.121,5.37-7.18,33.042-7.514,37.388c-0.785,10.24,24.492-2.272,24.492-2.272l8.299-13.772
									C1227.795,700.851,1234.559,676.979,1229.002,667.896z"/>
							</g>
							
								<path fill="none" stroke="#000000" stroke-width="3" stroke-linecap="round" stroke-linejoin="round" stroke-miterlimit="10" d="
								M1060.688,546.785c16.846,24.563,56.51,15.168,66.51-0.782"/>
							
								<line fill="none" stroke="#000000" stroke-width="3" stroke-linecap="round" stroke-linejoin="round" stroke-miterlimit="10" x1="1092.424" y1="532.293" x2="1096.451" y2="532.033"/>
							<g>
								
									<path fill="#FFFFFF" stroke="#000000" stroke-width="3" stroke-linecap="round" stroke-linejoin="round" stroke-miterlimit="10" d="
									M1066.736,501.97c1.061,4.199-2.172,8.637-7.215,9.901c-5.053,1.268-9.992-1.108-11.049-5.31
									c-1.055-4.198,2.178-8.631,7.223-9.895C1060.736,495.399,1065.686,497.77,1066.736,501.97z"/>
								<path stroke="#000000" stroke-width="3" stroke-linecap="round" stroke-linejoin="round" stroke-miterlimit="10" d="
									M1060.441,507.467c0.424,1.647-0.693,3.342-2.467,3.797c-1.805,0.45-3.586-0.522-3.998-2.174
									c-0.412-1.636,0.699-3.328,2.494-3.783C1058.258,504.861,1060.043,505.825,1060.441,507.467z"/>
							</g>
							<g>
								
									<path fill="#FFFFFF" stroke="#000000" stroke-width="3" stroke-linecap="round" stroke-linejoin="round" stroke-miterlimit="10" d="
									M1135.359,503.679c1.053,4.202-2.18,8.637-7.223,9.904c-5.047,1.27-9.986-1.113-11.049-5.313
									c-1.055-4.199,2.18-8.627,7.229-9.894C1129.357,497.111,1134.303,499.483,1135.359,503.679z"/>
								<path stroke="#000000" stroke-width="3" stroke-linecap="round" stroke-linejoin="round" stroke-miterlimit="10" d="
									M1129.063,509.18c0.418,1.648-0.697,3.346-2.477,3.796c-1.799,0.452-3.582-0.52-3.996-2.172
									c-0.408-1.636,0.703-3.329,2.496-3.779C1126.875,506.573,1128.658,507.537,1129.063,509.18z"/>
							</g>
							
								<path fill="#D45F14" stroke="#000000" stroke-width="3" stroke-linecap="round" stroke-linejoin="round" stroke-miterlimit="10" d="
								M1108.412,481.729"/>
							
								<path fill="#D45F14" stroke="#000000" stroke-width="3" stroke-linecap="round" stroke-linejoin="round" stroke-miterlimit="10" d="
								M1171.232,473.759c-6.16-17.538,3.967-58.16-66.779-59.879c-1.668-4.154,1.439-4.813,0.475-8.404
								c-4.43,1.078-13.973,3.268-14.918,8.582c-0.447,0.021-0.895,0.041-1.34,0.065c-0.949-2.406-1.547-5.089-1.205-7.545
								c-1.479,2.106-7.426,7.89-7.344,10.708c-53.693,0-74.893,52.188-71.01,74.986c0.627,3.678,12.848-13.624,14.402-10.543
								c3.523,6.985,16.494-3.528,21.924-1.313c5.428,2.226,9.84,3.553,12.74,3.553c5.805,0,12.031-7.414,23.309-7.406
								c11.459,0.011,13.912,5.692,22.83,5.692c8.92,0,5.305-5.639,11.609-5.483c6.449,0.152,13.951,6.117,17.906,8.521
								c4.887,2.972,15.514,6.94,15.367-0.046c-0.146-6.985,10.291-1.796,14.244-1.548
								C1167.623,483.963,1174.551,478.548,1171.232,473.759z"/>
						</g>
						<g>
							
								<path fill="#E69F00" stroke="#000100" stroke-width="3" stroke-linecap="round" stroke-linejoin="round" stroke-miterlimit="10" d="
								M1160.057,636.036l16.807,15.37l20.559-32.587c0,0-9.211-17.076-45.584-25.766c-5.736-1.369-20.607,0.111-21.332,1.769
								c-6.885,15.722-18.467,25.798-41.664,25.054c-23.025,0.737-34.602-9.178-41.504-24.694
								c-0.785-1.768-15.848-3.521-21.646-2.206c-36.533,8.293-46.584,23.869-46.584,23.869l20.555,32.588l17.961-13.396
								l-7.186,77.104h156.805L1160.057,636.036z"/>
						</g>
						<g>
							
								<path fill="#FFFFFF" stroke="#000000" stroke-width="3" stroke-linecap="round" stroke-linejoin="round" stroke-miterlimit="10" d="
								M1152.746,697.517l15.334,0.109l-1.162-13.556h-13.84c0.512-14.409,1.932-90.524,1.932-90.524l-25.855-3.309
								c0,59.072,8.977,68.839-39.895,68.839c-48.865,0-40.988-9.644-40.988-68.714l-26.836,3.184c0,0,2.855,76.124,2.775,90.524
								h-13.982l-2.166,13.445h15.984c-0.049,2.496-0.113,5.046-0.189,7.617h128.854
								C1152.703,702.566,1152.713,700.017,1152.746,697.517z"/>
						</g>
					</g>
					<rect x="505.529" y="723.216" fill="#C9BEAF" stroke="#70674B" stroke-miterlimit="10" width="776.4" height="359.171"/>
					
						<rect x="505.197" y="876.93" fill="#7E725B" stroke="#000000" stroke-width="3" stroke-linecap="round" stroke-linejoin="round" stroke-miterlimit="10" width="783.43" height="13.157"/>
					
						<rect x="505.197" y="1031.125" fill="#7E725B" stroke="#000000" stroke-width="3" stroke-linecap="round" stroke-linejoin="round" stroke-miterlimit="10" width="789.066" height="13.157"/>
					<g>
						
							<rect x="462.918" y="696.968" fill="#7E725B" stroke="#000000" stroke-width="3" stroke-linecap="round" stroke-linejoin="round" stroke-miterlimit="10" width="856.43" height="26.316"/>
					</g>
					<g>
						
							<rect x="502.504" y="444.024" stroke="#000000" stroke-width="3" stroke-linecap="round" stroke-linejoin="round" stroke-miterlimit="10" width="252.207" height="8.46"/>
						
							<circle stroke="#000000" stroke-width="3" stroke-linecap="round" stroke-linejoin="round" stroke-miterlimit="10" cx="502.504" cy="448.254" r="11.01"/>
						
							<circle stroke="#000000" stroke-width="3" stroke-linecap="round" stroke-linejoin="round" stroke-miterlimit="10" cx="754.713" cy="448.254" r="11.009"/>
					</g>
					
						<path fill="#58595B" stroke="#000000" stroke-width="3" stroke-linecap="round" stroke-linejoin="round" stroke-miterlimit="10" d="
						M596.42,520.993"/>
					
						<rect x="460.918" y="348.265" fill="#7E725B" stroke="#000000" stroke-width="3" stroke-linecap="round" stroke-linejoin="round" stroke-miterlimit="10" width="858.43" height="13.156"/>
					<path stroke="#000000" stroke-width="3" stroke-linecap="round" stroke-linejoin="round" stroke-miterlimit="10" d="
						M503.898,361.978c0,4.86-3.939,8.803-8.803,8.803c-4.861,0-8.803-3.941-8.803-8.803H503.898z"/>
					<path stroke="#000000" stroke-width="3" stroke-linecap="round" stroke-linejoin="round" stroke-miterlimit="10" d="
						M897.316,361.978c0,4.86-3.941,8.803-8.803,8.803s-8.803-3.941-8.803-8.803H897.316z"/>
					
						<rect x="460.918" y="189.499" fill="#7E725B" stroke="#000000" stroke-width="3" stroke-linecap="round" stroke-linejoin="round" stroke-miterlimit="10" width="858.43" height="13.157"/>
					<path stroke="#000000" stroke-width="3" stroke-linecap="round" stroke-linejoin="round" stroke-miterlimit="10" d="
						M503.898,203.212c0,4.861-3.939,8.803-8.803,8.803c-4.861,0-8.803-3.94-8.803-8.803H503.898z"/>
					<path stroke="#000000" stroke-width="3" stroke-linecap="round" stroke-linejoin="round" stroke-miterlimit="10" d="
						M1290.732,361.978c0,4.86-3.939,8.803-8.803,8.803c-4.861,0-8.803-3.941-8.803-8.803H1290.732z"/>
					<path stroke="#000000" stroke-width="3" stroke-linecap="round" stroke-linejoin="round" stroke-miterlimit="10" d="
						M1290.732,203.212c0,4.861-3.939,8.803-8.803,8.803c-4.861,0-8.803-3.94-8.803-8.803H1290.732z"/>
					<path stroke="#000000" stroke-width="3" stroke-linecap="round" stroke-linejoin="round" stroke-miterlimit="10" d="
						M897.316,203.212c0,4.861-3.941,8.803-8.803,8.803s-8.803-3.94-8.803-8.803H897.316z"/>
					
						<rect x="518.947" y="688.776" stroke="#000000" stroke-width="3" stroke-linecap="round" stroke-linejoin="round" stroke-miterlimit="10" width="295.205" height="16.475"/>
				</g>
			</g>
		</g>
	</g>
</g>
<g id="pivot" display="none">
	<g id="pivot_1_" display="inline">
		<path fill="#EFE342" d="M633.662,533.077"/>
		<circle fill="#EFE342" cx="540.816" cy="549.901" r="7.857"/>
		<circle fill="#EFE342" cx="598.453" cy="549.901" r="7.857"/>
		<circle fill="#EFE342" cx="656.089" cy="549.901" r="7.857"/>
		<circle fill="#EFE342" cx="713.725" cy="549.901" r="7.857"/>
		<circle fill="#EFE342" cx="194.648" cy="568.563" r="7.857"/>
		<circle fill="#EFE342" cx="153.225" cy="395.88" r="7.857"/>
		<circle fill="#EFE342" cx="216.305" cy="860.51" r="7.857"/>
		<circle fill="#EFE342" cx="170.27" cy="1029.254" r="7.857"/>
		<circle fill="#EFE342" cx="96.451" cy="835.214" r="7.857"/>
		<circle fill="#EFE342" cx="590.151" cy="693.019" r="7.857"/>
		<circle fill="#EFE342" cx="743.709" cy="693.019" r="7.857"/>
		<circle fill="#EFE342" cx="1233.867" cy="709.019" r="7.857"/>
		<circle fill="#EFE342" cx="970.92" cy="709.019" r="7.857"/>
		<circle fill="#EFE342" cx="532.127" cy="195.775" r="7.857"/>
		<circle fill="#EFE342" cx="622.376" cy="195.775" r="7.857"/>
		<circle fill="#EFE342" cx="712.625" cy="195.775" r="7.857"/>
		<circle fill="#EFE342" cx="802.875" cy="195.775" r="7.857"/>
		<circle fill="#EFE342" cx="893.124" cy="195.775" r="7.857"/>
		<circle fill="#EFE342" cx="983.373" cy="195.775" r="7.857"/>
		<circle fill="#EFE342" cx="1073.623" cy="195.775" r="7.857"/>
		<circle fill="#EFE342" cx="1163.872" cy="195.775" r="7.857"/>
		<circle fill="#EFE342" cx="1254.121" cy="195.775" r="7.857"/>
		<circle fill="#EFE342" cx="532.127" cy="354.775" r="7.857"/>
		<circle fill="#EFE342" cx="622.376" cy="354.775" r="7.857"/>
		<circle fill="#EFE342" cx="712.625" cy="354.775" r="7.857"/>
		<circle fill="#EFE342" cx="802.875" cy="354.775" r="7.857"/>
		<circle fill="#EFE342" cx="893.124" cy="354.775" r="7.857"/>
		<circle fill="#EFE342" cx="983.373" cy="354.775" r="7.857"/>
		<circle fill="#EFE342" cx="1073.623" cy="354.775" r="7.857"/>
		<circle fill="#EFE342" cx="1163.872" cy="354.775" r="7.857"/>
		<circle fill="#EFE342" cx="1254.121" cy="354.775" r="7.857"/>
		<circle fill="#EFE342" cx="1140.596" cy="877.604" r="7.857"/>
		<circle fill="#EFE342" cx="1230.845" cy="877.604" r="7.857"/>
		<circle fill="#EFE342" cx="904.576" cy="877.604" r="7.857"/>
		<circle fill="#EFE342" cx="1041.752" cy="877.604" r="7.857"/>
		<circle fill="#EFE342" cx="973.164" cy="877.604" r="7.857"/>
		<circle fill="#EFE342" cx="904.576" cy="1031.285" r="7.857"/>
		<circle fill="#EFE342" cx="1041.752" cy="1031.285" r="7.857"/>
		<circle fill="#EFE342" cx="1185.721" cy="1031.285" r="7.857"/>
		<circle fill="#EFE342" cx="973.164" cy="1031.285" r="7.857"/>
		<circle fill="#EFE342" cx="634.184" cy="877.604" r="7.857"/>
		<circle fill="#EFE342" cx="802.527" cy="877.604" r="7.857"/>
		<circle fill="#EFE342" cx="718.355" cy="877.604" r="7.857"/>
		<circle fill="#EFE342" cx="550.012" cy="877.604" r="7.857"/>
		<circle fill="#EFE342" cx="676.27" cy="1031.285" r="7.857"/>
		<circle fill="#EFE342" cx="739.398" cy="1031.285" r="7.857"/>
		<circle fill="#EFE342" cx="802.527" cy="1031.285" r="7.857"/>
		<circle fill="#EFE342" cx="550.012" cy="1031.285" r="7.857"/>
		<circle fill="#EFE342" cx="613.141" cy="1031.285" r="7.857"/>
	</g>
</g>
<g id="elements" display="none">
</g>
<g id="spredaj">
	<g id="spredaj_1_">
		
			<rect x="848.389" y="723.216" fill="#7E725B" stroke="#000000" stroke-width="3" stroke-linecap="round" stroke-linejoin="round" stroke-miterlimit="10" width="26.316" height="389.172"/>
		
			<rect x="1072.08" y="723.216" fill="#7E725B" stroke="#000000" stroke-width="3" stroke-linecap="round" stroke-linejoin="round" stroke-miterlimit="10" width="26.316" height="389.172"/>
		
			<rect x="479.214" y="723.216" fill="#7E725B" stroke="#000000" stroke-width="3" stroke-linecap="round" stroke-linejoin="round" stroke-miterlimit="10" width="26.316" height="389.172"/>
		
			<rect x="1275.771" y="723.216" fill="#7E725B" stroke="#000000" stroke-width="3" stroke-linecap="round" stroke-linejoin="round" stroke-miterlimit="10" width="26.316" height="389.172"/>
		<g>
			
				<line fill="none" stroke="#000000" stroke-width="3" stroke-linecap="round" stroke-linejoin="round" stroke-miterlimit="10" x1="875.265" y1="858.244" x2="1071.755" y2="858.244"/>
			
				<line fill="none" stroke="#000000" stroke-width="3" stroke-linecap="round" stroke-linejoin="round" stroke-miterlimit="10" x1="875.265" y1="834.436" x2="1071.755" y2="834.436"/>
			
				<line fill="none" stroke="#000000" stroke-width="3" stroke-linecap="round" stroke-linejoin="round" stroke-miterlimit="10" x1="875.265" y1="810.627" x2="1071.755" y2="810.627"/>
			
				<line fill="none" stroke="#000000" stroke-width="3" stroke-linecap="round" stroke-linejoin="round" stroke-miterlimit="10" x1="887.626" y1="810.626" x2="887.626" y2="876.149"/>
			
				<line fill="none" stroke="#000000" stroke-width="3" stroke-linecap="round" stroke-linejoin="round" stroke-miterlimit="10" x1="909.093" y1="810.626" x2="909.093" y2="876.149"/>
			
				<line fill="none" stroke="#000000" stroke-width="3" stroke-linecap="round" stroke-linejoin="round" stroke-miterlimit="10" x1="930.56" y1="810.626" x2="930.56" y2="876.149"/>
			
				<line fill="none" stroke="#000000" stroke-width="3" stroke-linecap="round" stroke-linejoin="round" stroke-miterlimit="10" x1="952.026" y1="810.626" x2="952.026" y2="876.149"/>
			
				<line fill="none" stroke="#000000" stroke-width="3" stroke-linecap="round" stroke-linejoin="round" stroke-miterlimit="10" x1="973.493" y1="810.626" x2="973.493" y2="876.149"/>
			
				<line fill="none" stroke="#000000" stroke-width="3" stroke-linecap="round" stroke-linejoin="round" stroke-miterlimit="10" x1="994.96" y1="810.626" x2="994.96" y2="876.149"/>
			
				<line fill="none" stroke="#000000" stroke-width="3" stroke-linecap="round" stroke-linejoin="round" stroke-miterlimit="10" x1="1016.427" y1="810.626" x2="1016.427" y2="876.149"/>
			
				<line fill="none" stroke="#000000" stroke-width="3" stroke-linecap="round" stroke-linejoin="round" stroke-miterlimit="10" x1="1037.895" y1="810.626" x2="1037.895" y2="876.149"/>
			
				<line fill="none" stroke="#000000" stroke-width="3" stroke-linecap="round" stroke-linejoin="round" stroke-miterlimit="10" x1="1059.36" y1="810.626" x2="1059.36" y2="876.149"/>
		</g>
		
			<rect x="874.973" y="983.988" opacity="0.5" fill="#68ABC8" stroke="#000000" stroke-width="3" stroke-linecap="round" stroke-linejoin="round" stroke-miterlimit="10" enable-background="new    " width="197.148" height="47.521"/>
	</g>
	
		<path fill="#93C01F" stroke="#000000" stroke-width="3.3766" stroke-linecap="round" stroke-linejoin="round" stroke-miterlimit="10" d="
		M294.437,828.748c-6.249-2.532-13.293-3.964-20.752-3.964c-6.45,0-12.581,1.083-18.165,3.009
		c-2.299-8.648-9.877-15.005-18.894-15.005c-7.616,0-14.213,4.531-17.466,11.148c-2.668-1.415-5.684-2.218-8.882-2.218
		c-10.839,0-19.625,9.173-19.625,20.488c0,0.967,0.087,1.911,0.211,2.843c-15.538,6.127-26.249,19.063-26.25,34.032
		c-0.001,28.768,29.117,36.521,52.229,35.739c11.487-0.389,21.368-5.252,32.901-6.883c9.692-1.37,17.903-1.247,27.268,1.534
		c7.795,2.315,13.529,4.264,18.04,4.243C294.979,887.695,294.791,859.233,294.437,828.748z"/>
	<g>
		<path opacity="0.5" fill="#68ABC8" enable-background="new    " d="M293.835,1082.764c0,0,4.408-189.319-3.293-437.513
			c-0.006-0.18-0.014-0.36-0.02-0.54h-8.47v-51.417h5.641c-9.376-123.215-36.607-258.016-53.712-389.815H0V1085h293.956
			L293.835,1082.764z"/>
	</g>
	<g>
		
			<rect x="-11.424" y="7.65" fill="#E0B76F" stroke="#000000" stroke-width="3.0599" stroke-linecap="round" stroke-linejoin="round" stroke-miterlimit="10" width="265.153" height="195.453"/>
		<g>
			
				<path fill="#E0B76F" stroke="#000000" stroke-width="3.0599" stroke-linecap="round" stroke-linejoin="round" stroke-miterlimit="10" d="
				M367.848,9.779H219.426c0,205.479,65.022,438.718,71.116,635.096c7.701,248.193,3.293,437.513,3.293,437.513h93.482V9.779
				H367.848z"/>
		</g>
		
			<rect x="282.053" y="592.918" fill="#E0B76F" stroke="#000000" stroke-width="3.0599" stroke-linecap="round" stroke-linejoin="round" stroke-miterlimit="10" width="109.73" height="51.417"/>
		<path fill="none" stroke="#000000" stroke-width="3" stroke-linecap="round" stroke-linejoin="round" stroke-miterlimit="10" d="
			M302.57,36.355c0,0-8.064,170.663,25.586,331.094"/>
		
			<rect x="-5.501" y="-7.969" fill="#785C37" stroke="#000000" stroke-width="3" stroke-linecap="round" stroke-linejoin="round" stroke-miterlimit="10" width="414.707" height="43.159"/>
	</g>
</g>
</svg>
