<?xml version="1.0" encoding="utf-8"?>
<!-- Generator: Adobe Illustrator 16.0.0, SVG Export Plug-In . SVG Version: 6.00 Build 0)  -->
<!DOCTYPE svg PUBLIC "-//W3C//DTD SVG 1.1//EN" "http://www.w3.org/Graphics/SVG/1.1/DTD/svg11.dtd">
<svg version="1.1" xmlns="http://www.w3.org/2000/svg" xmlns:xlink="http://www.w3.org/1999/xlink" x="0px" y="0px"
	 width="453.543px" height="453.543px" viewBox="0 0 453.543 453.543" enable-background="new 0 0 453.543 453.543"
	 xml:space="preserve">
<g id="kvadrat">
</g>
<g id="bg" display="none">
	<rect x="-3384.14" y="-4826.985" display="inline" width="15266.867" height="13678.951"/>
</g>
<g id="barvno" display="none">
	<g display="inline">
		
			<path fill="#39A935" stroke="#000000" stroke-width="8" stroke-linecap="round" stroke-linejoin="round" stroke-miterlimit="10" d="
			M296.334,72.148c9.362,3.816,40.747,125.925,6.549,209.818c-21.035,51.599-70.002,81.016-112.105,68.893l-7.727,29.051
			l-18.146,1.677l12.062-36.358c-39.685-21.217-53.027-76.035-31.994-127.634C179.172,133.702,285.976,67.926,296.334,72.148z"/>
		<g>
			
				<line fill="none" stroke="#000000" stroke-width="6" stroke-linecap="round" stroke-linejoin="round" stroke-miterlimit="10" x1="267.921" y1="136.578" x2="194.387" y2="316.966"/>
			
				<line fill="none" stroke="#000000" stroke-width="6" stroke-linecap="round" stroke-linejoin="round" stroke-miterlimit="10" x1="252.571" y1="173.595" x2="243.881" y2="149.809"/>
			
				<line fill="none" stroke="#000000" stroke-width="6" stroke-linecap="round" stroke-linejoin="round" stroke-miterlimit="10" x1="227.317" y1="235.653" x2="208.314" y2="183.637"/>
			
				<line fill="none" stroke="#000000" stroke-width="6" stroke-linecap="round" stroke-linejoin="round" stroke-miterlimit="10" x1="202.134" y1="297.327" x2="175.725" y2="225.036"/>
			
				<line fill="none" stroke="#000000" stroke-width="6" stroke-linecap="round" stroke-linejoin="round" stroke-miterlimit="10" x1="253.192" y1="173.849" x2="276.035" y2="162.917"/>
			
				<line fill="none" stroke="#000000" stroke-width="6" stroke-linecap="round" stroke-linejoin="round" stroke-miterlimit="10" x1="227.867" y1="235.877" x2="277.819" y2="211.971"/>
			
				<line fill="none" stroke="#000000" stroke-width="6" stroke-linecap="round" stroke-linejoin="round" stroke-miterlimit="10" x1="202.756" y1="297.58" x2="272.177" y2="264.353"/>
		</g>
	</g>
	<g id="rde훾a7bela" display="inline">
	</g>
	
		<rect x="-3894.425" y="-5246.994" display="inline" fill="none" stroke="#000000" stroke-miterlimit="10" width="16736" height="13952"/>
</g>
<g id="barvno_copy_2">
	<g>
		<g>
			<path fill="#00FF00" d="M296.334,72.148c9.362,3.816,40.747,125.925,6.549,209.818c-21.035,51.599-70.002,81.016-112.105,68.893
				l-7.727,29.051l-18.146,1.677l12.062-36.358c-39.685-21.217-53.027-76.035-31.994-127.634
				C179.172,133.702,285.976,67.926,296.334,72.148z"/>
			<path d="M164.905,385.587c-1.213,0-2.369-0.552-3.131-1.512c-0.84-1.057-1.09-2.466-0.665-3.747l11.025-33.233
				c-38.881-23.098-52.2-78.67-30.865-131.009c33.257-81.585,135.533-148.13,153.853-148.13c1.025,0,1.916,0.16,2.722,0.488
				c1.562,0.637,5.71,2.328,12.124,25.222c4.251,15.176,7.785,33.966,9.95,52.909c3.474,30.394,6.361,88.596-13.331,136.902
				c-18.066,44.318-56.788,74.096-96.354,74.1c-0.002,0-0.005,0-0.007,0c-5.634,0-11.201-0.623-16.603-1.855l-6.707,25.217
				c-0.431,1.621-1.828,2.8-3.498,2.955l-18.146,1.677C165.15,385.582,165.027,385.587,164.905,385.587z M294.722,75.984
				c-6.682,0.688-33.777,14.864-65.526,41.363c-22.097,18.442-61.94,56.187-80.518,101.759
				c-20.314,49.833-7.341,102.538,30.175,122.597c1.717,0.918,2.524,2.939,1.911,4.787l-10.136,30.553l9.275-0.857l7.009-26.354
				c0.276-1.039,0.959-1.923,1.895-2.452c0.936-0.53,2.044-0.66,3.078-0.363c5.901,1.699,12.072,2.561,18.342,2.561
				c0.002,0,0.004,0,0.006,0c36.349-0.003,72.094-27.781,88.946-69.12c18.62-45.677,16.206-101.109,13.11-130.086
				C307.868,108.991,298.333,80.542,294.722,75.984z"/>
		</g>
		<g>
			<path d="M194.386,319.967c-0.377,0-0.761-0.072-1.131-0.223c-1.534-0.625-2.271-2.376-1.646-3.91l73.534-180.388
				c0.625-1.535,2.378-2.271,3.91-1.646c1.534,0.625,2.271,2.376,1.646,3.91l-73.534,180.388
				C196.691,319.262,195.569,319.967,194.386,319.967z"/>
			<path d="M252.572,176.596c-1.225,0-2.374-0.755-2.818-1.972l-8.69-23.786c-0.568-1.556,0.232-3.279,1.789-3.847
				c1.557-0.568,3.279,0.233,3.847,1.789l8.69,23.786c0.568,1.556-0.232,3.279-1.789,3.847
				C253.261,176.537,252.913,176.596,252.572,176.596z"/>
			<path d="M227.318,238.654c-1.225,0-2.374-0.755-2.818-1.972l-19.003-52.016c-0.568-1.556,0.232-3.279,1.789-3.847
				c1.555-0.568,3.279,0.232,3.847,1.789l19.003,52.016c0.568,1.556-0.232,3.279-1.789,3.847
				C228.007,238.595,227.66,238.654,227.318,238.654z"/>
			<path d="M202.135,300.328c-1.225,0-2.374-0.755-2.818-1.972l-26.409-72.291c-0.568-1.556,0.232-3.279,1.789-3.847
				c1.557-0.568,3.279,0.233,3.847,1.789l26.409,72.291c0.568,1.556-0.232,3.279-1.789,3.847
				C202.824,300.269,202.476,300.328,202.135,300.328z"/>
			<path d="M253.194,176.849c-1.119,0-2.193-0.629-2.708-1.706c-0.715-1.494-0.083-3.286,1.411-4.001l22.843-10.932
				c1.492-0.715,3.286-0.084,4.001,1.411c0.715,1.494,0.083,3.286-1.411,4.001l-22.843,10.932
				C254.069,176.755,253.628,176.849,253.194,176.849z"/>
			<path d="M227.869,238.877c-1.119,0-2.193-0.629-2.708-1.706c-0.715-1.495-0.083-3.286,1.411-4.001l49.952-23.906
				c1.492-0.716,3.286-0.084,4.001,1.411c0.715,1.495,0.083,3.286-1.411,4.001l-49.952,23.906
				C228.744,238.783,228.303,238.877,227.869,238.877z"/>
			<path d="M202.758,300.58c-1.119,0-2.192-0.628-2.708-1.705c-0.715-1.495-0.083-3.286,1.411-4.001l69.422-33.227
				c1.492-0.714,3.286-0.084,4.001,1.411c0.715,1.495,0.083,3.286-1.411,4.001l-69.421,33.227
				C203.633,300.485,203.192,300.58,202.758,300.58z"/>
		</g>
	</g>
	<g id="rde훾a7bela_copy_4">
	</g>
	<rect x="-3894.425" y="-5246.994" fill="none" stroke="#000000" stroke-miterlimit="10" width="16736" height="13952"/>
</g>
<g id="sivinsko" display="none">
	<g display="inline">
		<g>
			<path fill="#7B7B7B" d="M296.334,72.148c9.362,3.816,40.747,125.925,6.549,209.818c-21.035,51.599-70.002,81.016-112.105,68.893
				l-7.727,29.051l-18.146,1.677l12.062-36.358c-39.685-21.217-53.027-76.035-31.994-127.634
				C179.172,133.702,285.976,67.926,296.334,72.148z"/>
			<path d="M164.905,385.587c-1.213,0-2.369-0.552-3.131-1.512c-0.84-1.057-1.09-2.466-0.665-3.747l11.025-33.233
				c-38.881-23.098-52.2-78.67-30.865-131.009c33.257-81.585,135.533-148.13,153.853-148.13c1.025,0,1.916,0.16,2.722,0.488
				c1.562,0.637,5.71,2.328,12.124,25.222c4.251,15.176,7.785,33.966,9.95,52.909c3.474,30.394,6.361,88.596-13.331,136.902
				c-18.066,44.318-56.788,74.096-96.354,74.1c-0.002,0-0.005,0-0.007,0c-5.634,0-11.201-0.623-16.603-1.855l-6.707,25.217
				c-0.431,1.621-1.828,2.8-3.498,2.955l-18.146,1.677C165.15,385.582,165.027,385.587,164.905,385.587z M294.721,75.984
				c-6.681,0.688-33.777,14.864-65.526,41.363c-22.097,18.442-61.94,56.187-80.518,101.759
				c-20.313,49.833-7.341,102.538,30.176,122.597c1.717,0.918,2.524,2.939,1.91,4.787l-10.135,30.553l9.275-0.857l7.009-26.354
				c0.276-1.039,0.959-1.923,1.895-2.452c0.936-0.53,2.044-0.66,3.078-0.363c5.901,1.699,12.072,2.561,18.342,2.561
				c0.002,0,0.004,0,0.006,0c36.349-0.003,72.094-27.781,88.946-69.12c18.62-45.677,16.206-101.109,13.11-130.086
				C307.868,108.991,298.333,80.542,294.721,75.984z"/>
		</g>
		<g>
			<path d="M194.386,319.967c-0.377,0-0.761-0.072-1.131-0.223c-1.535-0.625-2.271-2.376-1.646-3.91l73.534-180.388
				c0.625-1.535,2.378-2.271,3.91-1.646c1.534,0.625,2.271,2.376,1.646,3.91l-73.534,180.388
				C196.691,319.262,195.569,319.967,194.386,319.967z"/>
			<path d="M252.572,176.596c-1.225,0-2.374-0.755-2.818-1.972l-8.69-23.786c-0.568-1.556,0.232-3.279,1.789-3.847
				c1.557-0.568,3.279,0.233,3.847,1.789l8.69,23.786c0.568,1.556-0.232,3.279-1.789,3.847
				C253.261,176.537,252.913,176.596,252.572,176.596z"/>
			<path d="M227.318,238.654c-1.225,0-2.374-0.755-2.818-1.972l-19.003-52.016c-0.569-1.556,0.232-3.279,1.789-3.847
				c1.555-0.568,3.279,0.232,3.847,1.789l19.003,52.016c0.568,1.556-0.232,3.279-1.789,3.847
				C228.007,238.595,227.66,238.654,227.318,238.654z"/>
			<path d="M202.135,300.328c-1.225,0-2.375-0.755-2.818-1.972l-26.409-72.291c-0.568-1.556,0.232-3.279,1.789-3.847
				c1.557-0.568,3.279,0.233,3.847,1.789l26.409,72.291c0.568,1.556-0.233,3.279-1.789,3.847
				C202.824,300.269,202.476,300.328,202.135,300.328z"/>
			<path d="M253.194,176.849c-1.119,0-2.193-0.629-2.708-1.706c-0.715-1.494-0.083-3.286,1.411-4.001l22.843-10.932
				c1.492-0.715,3.286-0.084,4.001,1.411c0.715,1.494,0.083,3.286-1.411,4.001l-22.843,10.932
				C254.069,176.755,253.628,176.849,253.194,176.849z"/>
			<path d="M227.869,238.877c-1.119,0-2.193-0.629-2.708-1.706c-0.715-1.495-0.083-3.286,1.411-4.001l49.952-23.906
				c1.492-0.716,3.286-0.084,4.001,1.411c0.715,1.495,0.083,3.286-1.411,4.001l-49.952,23.906
				C228.744,238.783,228.303,238.877,227.869,238.877z"/>
			<path d="M202.758,300.58c-1.119,0-2.192-0.628-2.708-1.705c-0.715-1.495-0.083-3.286,1.411-4.001l69.422-33.227
				c1.492-0.714,3.286-0.084,4.001,1.411c0.715,1.495,0.083,3.286-1.411,4.001l-69.421,33.227
				C203.633,300.485,203.192,300.58,202.758,300.58z"/>
		</g>
	</g>
	<g id="rde훾a7bela_copy_3" display="inline">
	</g>
	<path display="inline" d="M12842.074,8705.506h-16737v-13953h16737V8705.506z M-3894.425,8704.506h16736l-0.5-13951h-16735.5
		l0.5,13951H-3894.425z"/>
</g>
<g id="linijsko" display="none">
	<g display="inline">
		<path fill="none" stroke="#000000" stroke-width="8" stroke-linecap="round" stroke-linejoin="round" stroke-miterlimit="10" d="
			M296.334,72.148c9.362,3.816,40.747,125.925,6.549,209.818c-21.035,51.599-70.002,81.016-112.105,68.893l-7.727,29.051
			l-18.146,1.677l12.062-36.358c-39.685-21.217-53.027-76.035-31.994-127.634C179.172,133.702,285.976,67.926,296.334,72.148z"/>
		<g>
			
				<line fill="none" stroke="#000000" stroke-width="6" stroke-linecap="round" stroke-linejoin="round" stroke-miterlimit="10" x1="267.921" y1="136.578" x2="194.387" y2="316.966"/>
			
				<line fill="none" stroke="#000000" stroke-width="6" stroke-linecap="round" stroke-linejoin="round" stroke-miterlimit="10" x1="252.571" y1="173.595" x2="243.881" y2="149.809"/>
			
				<line fill="none" stroke="#000000" stroke-width="6" stroke-linecap="round" stroke-linejoin="round" stroke-miterlimit="10" x1="227.317" y1="235.653" x2="208.314" y2="183.637"/>
			
				<line fill="none" stroke="#000000" stroke-width="6" stroke-linecap="round" stroke-linejoin="round" stroke-miterlimit="10" x1="202.134" y1="297.327" x2="175.725" y2="225.036"/>
			
				<line fill="none" stroke="#000000" stroke-width="6" stroke-linecap="round" stroke-linejoin="round" stroke-miterlimit="10" x1="253.192" y1="173.849" x2="276.035" y2="162.917"/>
			
				<line fill="none" stroke="#000000" stroke-width="6" stroke-linecap="round" stroke-linejoin="round" stroke-miterlimit="10" x1="227.867" y1="235.877" x2="277.819" y2="211.971"/>
			
				<line fill="none" stroke="#000000" stroke-width="6" stroke-linecap="round" stroke-linejoin="round" stroke-miterlimit="10" x1="202.756" y1="297.58" x2="272.177" y2="264.353"/>
		</g>
	</g>
	<g id="rde훾a7bela_copy" display="inline">
	</g>
</g>
<g id="pivot">
	<circle fill="none" cx="211.125" cy="370.383" r="14.133"/>
</g>
</svg>
