<?xml version="1.0" encoding="utf-8"?>
<!-- Generator: Adobe Illustrator 16.0.0, SVG Export Plug-In . SVG Version: 6.00 Build 0)  -->
<!DOCTYPE svg PUBLIC "-//W3C//DTD SVG 1.1//EN" "http://www.w3.org/Graphics/SVG/1.1/DTD/svg11.dtd">
<svg version="1.1" xmlns="http://www.w3.org/2000/svg" xmlns:xlink="http://www.w3.org/1999/xlink" x="0px" y="0px"
	 width="453.543px" height="453.543px" viewBox="0 0 453.543 453.543" enable-background="new 0 0 453.543 453.543"
	 xml:space="preserve">
<g id="kvadrat">
</g>
<g id="bg" display="none">
	<rect x="-4404.613" y="-4826.985" display="inline" width="15266.867" height="13678.951"/>
</g>
<g id="barvno" display="none">
	<g display="inline">
		
			<rect x="209.813" y="327.277" fill="#7E4E24" stroke="#000000" stroke-width="8" stroke-linecap="round" stroke-linejoin="round" stroke-miterlimit="10" width="33.917" height="55.885"/>
		
			<polygon fill="#39A935" stroke="#000000" stroke-width="8" stroke-linecap="round" stroke-linejoin="round" stroke-miterlimit="10" points="
			285.882,242.251 307.065,242.251 266.918,172.714 263.542,166.866 282.476,166.866 254.625,118.624 226.772,70.382 
			198.919,118.624 171.067,166.866 190.001,166.866 186.625,172.714 146.478,242.251 167.661,242.251 115.302,332.939 
			226.772,332.939 338.241,332.939 		"/>
	</g>
	<g id="rde훾a7bela" display="inline">
	</g>
	
		<rect x="-4914.898" y="-5246.994" display="inline" fill="none" stroke="#000000" stroke-miterlimit="10" width="16736" height="13952"/>
</g>
<g id="barvno_copy_2">
	<g>
		<g>
			<rect x="209.813" y="327.277" fill="#0000FF" width="33.917" height="55.885"/>
			<path d="M243.73,387.162h-33.917c-2.209,0-4-1.791-4-4v-55.885c0-2.209,1.791-4,4-4h33.917c2.209,0,4,1.791,4,4v55.885
				C247.73,385.371,245.939,387.162,243.73,387.162z M213.813,379.162h25.917v-47.885h-25.917V379.162z"/>
		</g>
		<g>
			<polygon fill="#00FF00" points="285.882,242.251 307.065,242.251 266.918,172.714 263.542,166.866 282.476,166.866 
				254.625,118.624 226.772,70.382 198.919,118.624 171.067,166.866 190.001,166.866 186.625,172.714 146.478,242.251 
				167.661,242.251 115.302,332.939 226.772,332.939 338.241,332.939 			"/>
			<path d="M338.241,336.939H115.302c-1.429,0-2.75-0.762-3.464-2c-0.715-1.238-0.715-2.762,0-4l48.895-84.688h-14.254
				c-1.429,0-2.75-0.762-3.464-2c-0.715-1.238-0.715-2.762,0-4l40.059-69.385h-12.005c-1.429,0-2.75-0.762-3.464-2
				c-0.715-1.238-0.715-2.762,0-4l55.705-96.484c0.715-1.238,2.035-2,3.464-2s2.75,0.762,3.464,2l55.521,96.168
				c0.465,0.654,0.738,1.453,0.738,2.316c0,2.209-1.791,4-4,4c-0.007,0-0.013,0-0.02,0h-12.005l39.876,69.068
				c0.465,0.654,0.738,1.453,0.738,2.316c0,2.209-1.791,4-4,4c-0.007,0-0.013,0-0.02,0h-14.254l48.895,84.688
				c0.714,1.238,0.714,2.762,0,4C340.99,336.177,339.67,336.939,338.241,336.939z M122.23,328.939h209.082l-48.895-84.688
				c-0.714-1.238-0.714-2.762,0-4c0.714-1.238,2.035-2,3.464-2h14.254l-40.059-69.385c-0.714-1.238-0.714-2.762,0-4
				c0.714-1.238,2.035-2,3.464-2h12.005l-48.776-84.484l-48.777,84.484h12.006c1.429,0,2.75,0.763,3.464,2
				c0.714,1.238,0.714,2.763,0,4l-40.059,69.384h14.254c1.429,0,2.75,0.762,3.464,2c0.715,1.238,0.715,2.762,0,4L122.23,328.939z"/>
		</g>
	</g>
	<g id="rde훾a7bela_copy_4">
	</g>
	<rect x="-4914.898" y="-5246.994" fill="none" stroke="#000000" stroke-miterlimit="10" width="16736" height="13952"/>
</g>
<g id="sivinsko" display="none">
	<g display="inline">
		<g>
			<rect x="209.813" y="327.277" fill="#585858" width="33.917" height="55.885"/>
			<path d="M243.73,387.162h-33.917c-2.209,0-4-1.791-4-4v-55.885c0-2.209,1.791-4,4-4h33.917c2.209,0,4,1.791,4,4v55.885
				C247.73,385.371,245.939,387.162,243.73,387.162z M213.813,379.162h25.917v-47.885h-25.917V379.162z"/>
		</g>
		<g>
			<polygon fill="#7B7B7B" points="285.882,242.251 307.065,242.251 266.918,172.714 263.542,166.866 282.476,166.866 
				254.625,118.624 226.772,70.382 198.919,118.624 171.067,166.866 190.001,166.866 186.625,172.714 146.478,242.251 
				167.661,242.251 115.302,332.939 226.772,332.939 338.241,332.939 			"/>
			<path d="M338.241,336.939H115.302c-1.429,0-2.75-0.762-3.464-2c-0.715-1.238-0.715-2.762,0-4l48.895-84.688h-14.254
				c-1.429,0-2.75-0.762-3.464-2c-0.715-1.238-0.715-2.762,0-4l40.059-69.385h-12.005c-1.429,0-2.75-0.762-3.464-2
				c-0.715-1.238-0.715-2.762,0-4l55.705-96.484c0.715-1.238,2.035-2,3.464-2s2.75,0.762,3.464,2l55.521,96.168
				c0.465,0.654,0.738,1.453,0.738,2.316c0,2.209-1.791,4-4,4c-0.006,0-0.013,0-0.02,0h-12.005l39.876,69.068
				c0.465,0.654,0.738,1.453,0.738,2.316c0,2.209-1.791,4-4,4c-0.007,0-0.013,0-0.02,0h-14.254l48.894,84.688
				c0.715,1.238,0.715,2.762,0,4C340.99,336.177,339.67,336.939,338.241,336.939z M122.23,328.939h209.082l-48.895-84.688
				c-0.714-1.238-0.714-2.762,0-4c0.714-1.238,2.035-2,3.464-2h14.254l-40.059-69.385c-0.714-1.238-0.714-2.762,0-4
				c0.714-1.238,2.035-2,3.464-2h12.005l-48.776-84.484l-48.777,84.484h12.006c1.429,0,2.75,0.763,3.464,2
				c0.714,1.238,0.714,2.763,0,4l-40.059,69.384h14.254c1.429,0,2.75,0.762,3.464,2c0.715,1.238,0.715,2.762,0,4L122.23,328.939z"/>
		</g>
	</g>
	<g id="rde훾a7bela_copy_3" display="inline">
	</g>
	<path display="inline" d="M11821.602,8705.506h-16737v-13953h16737V8705.506z M-4914.898,8704.506h16736l-0.5-13951h-16735.5
		l0.5,13951H-4914.898z"/>
</g>
<g id="linijsko" display="none">
	
		<polygon display="inline" fill="none" stroke="#000000" stroke-width="8" stroke-linecap="round" stroke-linejoin="round" stroke-miterlimit="10" points="
		226.772,332.939 209.813,332.939 209.813,383.162 243.73,383.162 243.73,332.939 	"/>
	<g display="inline">
		
			<polygon fill="none" stroke="#000000" stroke-width="8" stroke-linecap="round" stroke-linejoin="round" stroke-miterlimit="10" points="
			285.882,242.251 307.065,242.251 266.918,172.714 263.542,166.866 282.476,166.866 254.625,118.624 226.772,70.382 
			198.919,118.624 171.067,166.866 190.001,166.866 186.625,172.714 146.478,242.251 167.661,242.251 115.302,332.939 
			226.772,332.939 338.241,332.939 		"/>
	</g>
	<g id="rde훾a7bela_copy" display="inline">
	</g>
</g>
<g id="pivot">
	<circle fill="none" cx="223.638" cy="374.724" r="14.133"/>
</g>
</svg>
