<?xml version="1.0" encoding="utf-8"?>
<!-- Generator: Adobe Illustrator 16.0.0, SVG Export Plug-In . SVG Version: 6.00 Build 0)  -->
<!DOCTYPE svg PUBLIC "-//W3C//DTD SVG 1.1//EN" "http://www.w3.org/Graphics/SVG/1.1/DTD/svg11.dtd">
<svg version="1.1" xmlns="http://www.w3.org/2000/svg" xmlns:xlink="http://www.w3.org/1999/xlink" x="0px" y="0px" width="220px"
	 height="220px" viewBox="0 0 220 220" enable-background="new 0 0 220 220" xml:space="preserve">
<g id="bg">
</g>
<g id="Layer_1">
	<g>
		
			<path fill="#FFD009" stroke="#010202" stroke-width="3.0341" stroke-linecap="round" stroke-linejoin="round" stroke-miterlimit="10" d="
			M168.256,141.488c0.809-2.095,5.351-3.893,5.351-3.893l1.198-14.378c-0.469-0.667-0.644-1.353-0.419-1.944
			c0.522-1.383,3.007-1.723,5.549-0.762c2.542,0.962,4.18,2.861,3.656,4.243c-0.099,0.264-0.271,0.488-0.498,0.675v12.166
			c0,0,11.938,25.479,30.899,26.917c28.733,2.18,47.89,2.605,54.957,5.188c3.214,1.175,6.81,3.892,3.405,9.485
			c-3.405,5.595-6.331,9.531-10.215,11.431c-3.886,1.9-38.871,13.196-63.224,2.612C178.965,184.558,159.987,162.892,168.256,141.488
			z"/>
		
			<path fill="none" stroke="#010202" stroke-width="2.2756" stroke-linecap="round" stroke-linejoin="round" stroke-miterlimit="10" d="
			M251.747,183.836c0,0-38.143,12.981-57.352-5.181"/>
	</g>
	<g>
		
			<path fill="#FFD009" stroke="#010202" stroke-width="3.0341" stroke-linecap="round" stroke-linejoin="round" stroke-miterlimit="10" d="
			M-24.374,45.204c0.809-2.095,5.351-3.893,5.351-3.893l1.198-14.378c-0.469-0.667-0.644-1.353-0.419-1.944
			c0.522-1.383,3.007-1.723,5.549-0.762c2.542,0.962,4.18,2.861,3.656,4.243c-0.098,0.264-0.27,0.488-0.498,0.675v12.166
			c0,0,11.939,25.479,30.9,26.917c28.733,2.18,47.89,2.605,54.957,5.188c3.214,1.175,6.81,3.892,3.405,9.485
			c-3.405,5.595-6.33,9.531-10.215,11.431c-3.886,1.9-38.871,13.196-63.224,2.612C-13.665,88.273-32.643,66.607-24.374,45.204z"/>
		
			<path fill="none" stroke="#010202" stroke-width="2.2756" stroke-linecap="round" stroke-linejoin="round" stroke-miterlimit="10" d="
			M59.117,87.552c0,0-38.143,12.981-57.352-5.181"/>
	</g>
	
		<path fill="#FFD009" stroke="#010202" stroke-width="3.0341" stroke-linecap="round" stroke-linejoin="round" stroke-miterlimit="10" d="
		M64.588,254.457c-1.394-1.762-0.635-6.587-0.635-6.587l-11.777-8.335c-0.813,0.064-1.491-0.133-1.888-0.627
		c-0.926-1.152,0.043-3.465,2.163-5.167c2.12-1.7,4.588-2.147,5.513-0.994c0.176,0.22,0.282,0.481,0.328,0.772l10.48,6.18
		c0,0,28.011,2.658,38.881-12.943c16.473-23.643,26.57-39.928,32.385-44.703c2.646-2.172,6.812-3.889,9.9,1.885
		c3.09,5.775,4.995,10.295,4.657,14.605c-0.337,4.313-8.378,40.186-29.864,55.787C107.126,267.109,78.824,272.451,64.588,254.457z"
		/>
	
		<path fill="none" stroke="#010202" stroke-width="2.2756" stroke-linecap="round" stroke-linejoin="round" stroke-miterlimit="10" d="
		M143.475,204.051c0,0-8.193,39.449-33.595,46.77"/>
	<g>
		
			<path fill="#FFD009" stroke="#010202" stroke-width="3.0341" stroke-linecap="round" stroke-linejoin="round" stroke-miterlimit="10" d="
			M-50.779,141.488c0.809-2.095,5.351-3.893,5.351-3.893l1.198-14.378c-0.469-0.667-0.644-1.353-0.419-1.944
			c0.522-1.383,3.007-1.723,5.549-0.762c2.542,0.962,4.181,2.861,3.657,4.243c-0.099,0.264-0.271,0.488-0.498,0.675v12.166
			c0,0,11.938,25.479,30.899,26.917c28.733,2.18,47.89,2.605,54.957,5.188c3.214,1.175,6.81,3.892,3.405,9.485
			c-3.405,5.595-6.33,9.531-10.215,11.431c-3.886,1.9-38.871,13.196-63.224,2.612C-40.07,184.558-59.048,162.892-50.779,141.488z"/>
		
			<path fill="none" stroke="#010202" stroke-width="2.2756" stroke-linecap="round" stroke-linejoin="round" stroke-miterlimit="10" d="
			M32.711,183.836c0,0-38.143,12.981-57.352-5.181"/>
	</g>
	<g>
		
			<path fill="#FFD009" stroke="#010202" stroke-width="3.0341" stroke-linecap="round" stroke-linejoin="round" stroke-miterlimit="10" d="
			M195.626,45.204c0.809-2.095,5.351-3.893,5.351-3.893l1.198-14.378c-0.469-0.667-0.644-1.353-0.419-1.944
			c0.522-1.383,3.007-1.723,5.549-0.762c2.542,0.962,4.18,2.861,3.656,4.243c-0.098,0.264-0.27,0.488-0.498,0.675v12.166
			c0,0,11.939,25.479,30.9,26.917c28.733,2.18,47.89,2.605,54.957,5.188c3.214,1.175,6.81,3.892,3.405,9.485
			c-3.405,5.595-6.33,9.531-10.215,11.431c-3.886,1.9-38.871,13.196-63.224,2.612C206.335,88.273,187.357,66.607,195.626,45.204z"/>
	</g>
	<g>
		
			<path fill="#FFD009" stroke="#010202" stroke-width="3.0341" stroke-linecap="round" stroke-linejoin="round" stroke-miterlimit="10" d="
			M64.588,33.951c-1.394-1.762-0.635-6.587-0.635-6.587l-11.777-8.335c-0.813,0.064-1.491-0.133-1.888-0.627
			c-0.926-1.152,0.043-3.465,2.163-5.167c2.12-1.7,4.588-2.147,5.513-0.994c0.176,0.22,0.282,0.481,0.328,0.772l10.48,6.18
			c0,0,28.011,2.658,38.881-12.943c16.473-23.643,26.57-39.928,32.385-44.703c2.646-2.172,6.812-3.889,9.9,1.885
			c3.09,5.775,4.995,10.295,4.657,14.605c-0.337,4.313-8.378,40.186-29.864,55.787C107.126,46.604,78.824,51.945,64.588,33.951z"/>
		
			<path fill="none" stroke="#010202" stroke-width="2.2756" stroke-linecap="round" stroke-linejoin="round" stroke-miterlimit="10" d="
			M143.475-16.455c0,0-8.193,39.449-33.595,46.77"/>
	</g>
	<g>
		
			<path fill="#FFD009" stroke="#010202" stroke-width="3.0341" stroke-linecap="round" stroke-linejoin="round" stroke-miterlimit="10" d="
			M-51.744,141.488c0.809-2.095,5.351-3.893,5.351-3.893l1.198-14.378c-0.469-0.667-0.644-1.353-0.419-1.944
			c0.522-1.383,3.007-1.723,5.549-0.762c2.542,0.962,4.18,2.861,3.656,4.243c-0.099,0.264-0.271,0.488-0.498,0.675v12.166
			c0,0,11.938,25.479,30.899,26.917c28.733,2.18,47.89,2.605,54.957,5.188c3.214,1.175,6.81,3.892,3.405,9.485
			c-3.405,5.595-6.331,9.531-10.215,11.431c-3.886,1.9-38.871,13.196-63.224,2.612C-41.035,184.558-60.013,162.892-51.744,141.488z"
			/>
		
			<path fill="none" stroke="#010202" stroke-width="2.2756" stroke-linecap="round" stroke-linejoin="round" stroke-miterlimit="10" d="
			M31.747,183.836c0,0-38.143,12.981-57.352-5.181"/>
	</g>
	<g>
		
			<path fill="#FFD009" stroke="#010202" stroke-width="3.0341" stroke-linecap="round" stroke-linejoin="round" stroke-miterlimit="10" d="
			M-24.374,45.204c0.809-2.095,5.351-3.893,5.351-3.893l1.198-14.378c-0.469-0.667-0.644-1.353-0.419-1.944
			c0.522-1.383,3.007-1.723,5.549-0.762c2.542,0.962,4.18,2.861,3.656,4.243c-0.098,0.264-0.27,0.488-0.498,0.675v12.166
			c0,0,11.939,25.479,30.9,26.917c28.733,2.18,47.89,2.605,54.957,5.188c3.214,1.175,6.81,3.892,3.405,9.485
			c-3.405,5.595-6.33,9.531-10.215,11.431c-3.886,1.9-38.871,13.196-63.224,2.612C-13.665,88.273-32.643,66.607-24.374,45.204z"/>
		
			<path fill="none" stroke="#010202" stroke-width="2.2756" stroke-linecap="round" stroke-linejoin="round" stroke-miterlimit="10" d="
			M59.117,87.552c0,0-38.143,12.981-57.352-5.181"/>
	</g>
	<g>
		
			<path fill="#E20717" stroke="#010202" stroke-width="3.3407" stroke-linecap="round" stroke-linejoin="round" stroke-miterlimit="10" d="
			M136.805,71.266c-12.256,2.457-26.234,15.884-34.481,26.637c-6.885,8.975-16.077,23.354-16.416,44.48
			c-0.261,15.827,5.597,30.598,13.045,32.91c2.145,0.664,3.653,0.691,4.486,0.079c2.026-1.486,2.319-7.549,2.336-13.28
			c0.048-16.682,8.518-31.852,15.753-39.774c4.075-4.464,10.947-8.931,17.595-13.254c5.89-3.832,14.026-13.307,16.922-20.127
			c2.895-6.821-4.84-13.574-4.84-13.574l-7.708-4.366C141.784,70.601,139.091,70.668,136.805,71.266z"/>
		
			<path fill="none" stroke="#010202" stroke-width="2.5055" stroke-linecap="round" stroke-linejoin="round" stroke-miterlimit="10" d="
			M103.558,136.313c0,0,0.823-18.171,22.008-29.642"/>
		
			<path fill="#3BAA35" stroke="#010202" stroke-width="3.3407" stroke-linecap="round" stroke-linejoin="round" stroke-miterlimit="10" d="
			M144.097,67.773c1.699,0.73,5.393,2.582,7.575,5.629c0.821,1.15,1.802,2.949,1.802,2.949l10.759-4.92l3.913,4.805l-11.896,4.796
			c0,0,0.383,1.382,0.946,2.979c1.247,3.533,0.647,7.623,0.273,9.434c-2.135-1.78-3.755-3.584-4.846-5.386
			c-1.189,1.57-2.841,3.153-4.954,4.741c-0.734-1.84-2.066-6.006-0.895-9.693c0.123-0.385,0.272-0.752,0.445-1.104
			c-0.161-0.03-0.323-0.063-0.486-0.103c-2.746-0.67-5.488-2.725-8.16-6.112c1.404-0.581,4.074-1.525,6.864-1.672
			C144.753,72.329,144.304,70.209,144.097,67.773z"/>
	</g>
</g>
</svg>
