<?xml version="1.0" encoding="utf-8"?>
<!-- Generator: Adobe Illustrator 16.0.0, SVG Export Plug-In . SVG Version: 6.00 Build 0)  -->
<!DOCTYPE svg PUBLIC "-//W3C//DTD SVG 1.1//EN" "http://www.w3.org/Graphics/SVG/1.1/DTD/svg11.dtd">
<svg version="1.1" xmlns="http://www.w3.org/2000/svg" xmlns:xlink="http://www.w3.org/1999/xlink" x="0px" y="0px" width="220px"
	 height="220px" viewBox="0 0 220 220" enable-background="new 0 0 220 220" xml:space="preserve">
<g id="bg">
</g>
<g id="Layer_1">
	<g>
		
			<path fill="#FFD009" stroke="#010202" stroke-width="3.0341" stroke-linecap="round" stroke-linejoin="round" stroke-miterlimit="10" d="
			M51.744,141.488c-0.809-2.095-5.351-3.893-5.351-3.893l-1.198-14.378c0.469-0.667,0.644-1.353,0.419-1.944
			c-0.522-1.383-3.007-1.723-5.549-0.762c-2.542,0.962-4.18,2.861-3.657,4.243c0.099,0.264,0.271,0.488,0.498,0.675v12.166
			c0,0-11.938,25.479-30.899,26.917c-28.733,2.18-47.89,2.605-54.957,5.188c-3.214,1.175-6.81,3.892-3.405,9.485
			c3.405,5.595,6.33,9.531,10.215,11.431c3.886,1.9,38.871,13.196,63.224,2.612C41.035,184.558,60.013,162.892,51.744,141.488z"/>
		
			<path fill="none" stroke="#010202" stroke-width="2.2756" stroke-linecap="round" stroke-linejoin="round" stroke-miterlimit="10" d="
			M-31.747,183.836c0,0,38.143,12.981,57.352-5.181"/>
	</g>
	<g>
		
			<path fill="#FFD009" stroke="#010202" stroke-width="3.0341" stroke-linecap="round" stroke-linejoin="round" stroke-miterlimit="10" d="
			M244.374,45.204c-0.809-2.095-5.351-3.893-5.351-3.893l-1.199-14.378c0.47-0.667,0.644-1.353,0.42-1.944
			c-0.522-1.383-3.007-1.723-5.549-0.762c-2.542,0.962-4.18,2.861-3.656,4.243c0.099,0.264,0.271,0.488,0.498,0.675v12.166
			c0,0-11.938,25.479-30.899,26.917c-28.733,2.18-47.89,2.605-54.957,5.188c-3.214,1.175-6.81,3.892-3.405,9.485
			c3.405,5.595,6.33,9.531,10.215,11.431c3.886,1.9,38.871,13.196,63.224,2.612C233.665,88.273,252.643,66.607,244.374,45.204z"/>
		
			<path fill="none" stroke="#010202" stroke-width="2.2756" stroke-linecap="round" stroke-linejoin="round" stroke-miterlimit="10" d="
			M160.883,87.552c0,0,38.143,12.981,57.352-5.181"/>
	</g>
	<g>
		
			<path fill="#FFD009" stroke="#010202" stroke-width="3.0341" stroke-linecap="round" stroke-linejoin="round" stroke-miterlimit="10" d="
			M58.303,80.178c-1.767,1.387-2.159,6.255-2.159,6.255l-13.401,5.345c-0.775-0.25-1.482-0.219-1.982,0.169
			c-1.17,0.905-0.769,3.38,0.893,5.531c1.662,2.147,3.958,3.161,5.127,2.256c0.222-0.171,0.387-0.402,0.499-0.674l11.636-3.555
			c0,0,27.855,3.972,34.771,21.684c10.48,26.843,16.485,45.04,21.021,51.044c2.063,2.73,5.712,5.373,10.066,0.485
			c4.356-4.894,7.267-8.84,7.947-13.11c0.682-4.271,1.261-41.03-15.975-61.228C102.621,77.834,76.355,66.016,58.303,80.178z"/>
		
			<path fill="none" stroke="#010202" stroke-width="2.2756" stroke-linecap="round" stroke-linejoin="round" stroke-miterlimit="10" d="
			M123.198,147.649c0,0,1.269-40.271-21.713-53.335"/>
	</g>
	
		<path fill="#FFD009" stroke="#010202" stroke-width="3.0341" stroke-linecap="round" stroke-linejoin="round" stroke-miterlimit="10" d="
		M155.412,254.457c1.393-1.762,0.635-6.587,0.635-6.587l11.777-8.335c0.812,0.064,1.491-0.133,1.888-0.627
		c0.925-1.152-0.043-3.465-2.163-5.167c-2.12-1.7-4.588-2.147-5.513-0.994c-0.176,0.22-0.282,0.481-0.328,0.772l-10.48,6.18
		c0,0-28.011,2.658-38.881-12.943c-16.472-23.643-26.57-39.928-32.384-44.703c-2.646-2.172-6.812-3.889-9.9,1.885
		c-3.09,5.775-4.995,10.295-4.657,14.605c0.337,4.313,8.378,40.186,29.864,55.787C112.874,267.109,141.176,272.451,155.412,254.457z
		"/>
	
		<path fill="none" stroke="#010202" stroke-width="2.2756" stroke-linecap="round" stroke-linejoin="round" stroke-miterlimit="10" d="
		M76.525,204.051c0,0,8.193,39.449,33.595,46.77"/>
	<g>
		
			<path fill="#FFD009" stroke="#010202" stroke-width="3.0341" stroke-linecap="round" stroke-linejoin="round" stroke-miterlimit="10" d="
			M270.779,141.488c-0.809-2.095-5.351-3.893-5.351-3.893l-1.198-14.378c0.469-0.667,0.644-1.353,0.419-1.944
			c-0.522-1.383-3.007-1.723-5.549-0.762c-2.542,0.962-4.18,2.861-3.656,4.243c0.099,0.264,0.271,0.488,0.498,0.675v12.166
			c0,0-11.938,25.479-30.899,26.917c-28.733,2.18-47.89,2.605-54.957,5.188c-3.214,1.175-6.81,3.892-3.405,9.485
			c3.405,5.595,6.33,9.531,10.215,11.431c3.886,1.9,38.871,13.196,63.224,2.612C260.07,184.558,279.048,162.892,270.779,141.488z"/>
		
			<path fill="none" stroke="#010202" stroke-width="2.2756" stroke-linecap="round" stroke-linejoin="round" stroke-miterlimit="10" d="
			M187.288,183.836c0,0,38.143,12.981,57.352-5.181"/>
	</g>
	<g>
		
			<path fill="#FFD009" stroke="#010202" stroke-width="3.0341" stroke-linecap="round" stroke-linejoin="round" stroke-miterlimit="10" d="
			M24.374,45.204c-0.809-2.095-5.351-3.893-5.351-3.893l-1.199-14.378c0.47-0.667,0.644-1.353,0.42-1.944
			c-0.522-1.383-3.007-1.723-5.549-0.762c-2.542,0.962-4.18,2.861-3.656,4.243c0.099,0.264,0.271,0.488,0.498,0.675v12.166
			c0,0-11.938,25.479-30.899,26.917c-28.733,2.18-47.89,2.605-54.957,5.188c-3.214,1.175-6.81,3.892-3.405,9.485
			c3.405,5.595,6.33,9.531,10.215,11.431c3.886,1.9,38.871,13.196,63.224,2.612C13.665,88.273,32.643,66.607,24.374,45.204z"/>
	</g>
	<g>
		
			<path fill="#FFD009" stroke="#010202" stroke-width="3.0341" stroke-linecap="round" stroke-linejoin="round" stroke-miterlimit="10" d="
			M155.412,33.951c1.393-1.762,0.635-6.587,0.635-6.587l11.777-8.335c0.812,0.064,1.491-0.133,1.888-0.627
			c0.925-1.152-0.043-3.465-2.163-5.167c-2.12-1.7-4.588-2.147-5.513-0.994c-0.176,0.22-0.282,0.481-0.328,0.772l-10.48,6.18
			c0,0-28.011,2.658-38.881-12.943c-16.472-23.643-26.57-39.928-32.384-44.703c-2.646-2.172-6.812-3.889-9.9,1.885
			c-3.09,5.775-4.995,10.295-4.657,14.605c0.337,4.313,8.378,40.186,29.864,55.787C112.874,46.604,141.176,51.945,155.412,33.951z"
			/>
		
			<path fill="none" stroke="#010202" stroke-width="2.2756" stroke-linecap="round" stroke-linejoin="round" stroke-miterlimit="10" d="
			M76.525-16.455c0,0,8.193,39.449,33.595,46.77"/>
	</g>
	<g>
		
			<path fill="#FFD009" stroke="#010202" stroke-width="3.0341" stroke-linecap="round" stroke-linejoin="round" stroke-miterlimit="10" d="
			M271.744,141.488c-0.809-2.095-5.351-3.893-5.351-3.893l-1.198-14.378c0.469-0.667,0.644-1.353,0.419-1.944
			c-0.522-1.383-3.007-1.723-5.549-0.762c-2.542,0.962-4.18,2.861-3.657,4.243c0.099,0.264,0.271,0.488,0.498,0.675v12.166
			c0,0-11.938,25.479-30.899,26.917c-28.733,2.18-47.89,2.605-54.957,5.188c-3.214,1.175-6.81,3.892-3.405,9.485
			c3.405,5.595,6.33,9.531,10.215,11.431c3.886,1.9,38.871,13.196,63.224,2.612C261.035,184.558,280.013,162.892,271.744,141.488z"
			/>
		
			<path fill="none" stroke="#010202" stroke-width="2.2756" stroke-linecap="round" stroke-linejoin="round" stroke-miterlimit="10" d="
			M188.253,183.836c0,0,38.143,12.981,57.352-5.181"/>
	</g>
	<g>
		
			<path fill="#FFD009" stroke="#010202" stroke-width="3.0341" stroke-linecap="round" stroke-linejoin="round" stroke-miterlimit="10" d="
			M244.374,45.204c-0.809-2.095-5.351-3.893-5.351-3.893l-1.199-14.378c0.47-0.667,0.644-1.353,0.42-1.944
			c-0.522-1.383-3.007-1.723-5.549-0.762c-2.542,0.962-4.18,2.861-3.656,4.243c0.099,0.264,0.271,0.488,0.498,0.675v12.166
			c0,0-11.938,25.479-30.899,26.917c-28.733,2.18-47.89,2.605-54.957,5.188c-3.214,1.175-6.81,3.892-3.405,9.485
			c3.405,5.595,6.33,9.531,10.215,11.431c3.886,1.9,38.871,13.196,63.224,2.612C233.665,88.273,252.643,66.607,244.374,45.204z"/>
		
			<path fill="none" stroke="#010202" stroke-width="2.2756" stroke-linecap="round" stroke-linejoin="round" stroke-miterlimit="10" d="
			M160.883,87.552c0,0,38.143,12.981,57.352-5.181"/>
	</g>
</g>
</svg>
