<?xml version="1.0" encoding="utf-8"?>
<!-- Generator: Adobe Illustrator 16.0.0, SVG Export Plug-In . SVG Version: 6.00 Build 0)  -->
<!DOCTYPE svg PUBLIC "-//W3C//DTD SVG 1.1//EN" "http://www.w3.org/Graphics/SVG/1.1/DTD/svg11.dtd">
<svg version="1.1" xmlns="http://www.w3.org/2000/svg" xmlns:xlink="http://www.w3.org/1999/xlink" x="0px" y="0px" width="600px"
	 height="600px" viewBox="0 0 600 600" enable-background="new 0 0 600 600" xml:space="preserve">
<g id="gb">
</g>
<g id="_x31_-1">
</g>
<g id="_x31_-2">
</g>
<g id="_x31_-3">
</g>
<g id="_x32_-1">
</g>
<g id="_x32_-2">
</g>
<g id="_x32_-3">
</g>
<g id="_x33_-1">
</g>
<g id="_x33_-2">
</g>
<g id="_x33_-3">
</g>
<g id="opis">
</g>
<g id="polje">
	<path stroke="#000000" stroke-width="2" stroke-miterlimit="10" d="M600.001,200h-50.006c-0.001-27.615-22.384-50-49.988-50
		c-27.616,0-49.997,22.385-49.998,50h-50.008v50c0.002,0,0.004,0,0.006,0c27.605,0,49.988,22.386,49.988,50.002
		c0,27.612-22.383,49.998-49.988,49.998c-0.002,0-0.004,0-0.006,0v50h50.008v0.002c0,27.612,22.381,49.998,49.998,49.998
		c27.605,0,49.988-22.386,49.988-49.998V400l50.006,0V200z"/>
</g>
</svg>
