<?xml version="1.0" encoding="utf-8"?>
<!-- Generator: Adobe Illustrator 16.0.0, SVG Export Plug-In . SVG Version: 6.00 Build 0)  -->
<!DOCTYPE svg PUBLIC "-//W3C//DTD SVG 1.1//EN" "http://www.w3.org/Graphics/SVG/1.1/DTD/svg11.dtd">
<svg version="1.1" xmlns="http://www.w3.org/2000/svg" xmlns:xlink="http://www.w3.org/1999/xlink" x="0px" y="0px"
	 width="453.543px" height="453.543px" viewBox="0 0 453.543 453.543" enable-background="new 0 0 453.543 453.543"
	 xml:space="preserve">
<g id="kvadrat">
</g>
<g id="bg" display="none">
	<rect x="-1853.431" y="-1765.567" display="inline" width="15266.867" height="13678.951"/>
</g>
<g id="barvno" display="none">
	<g id="rde훾a7bela" display="inline">
	</g>
	<g display="inline">
		
			<polygon fill="#A6A8AB" stroke="#000000" stroke-width="8" stroke-linecap="round" stroke-linejoin="round" stroke-miterlimit="10" points="
			232.194,342.437 232.194,198.109 220.212,198.109 220.212,342.437 214.579,342.437 218.233,390.594 235.31,390.594 
			238.966,342.437 		"/>
		
			<path fill="#0073B3" stroke="#000100" stroke-width="8" stroke-linecap="round" stroke-linejoin="round" stroke-miterlimit="10" d="
			M226.321,62.95c-32.427,0-28.003,40-28.003,40l9.972,120.422l-9.972,14.026h57.007l-9.973-14.026l9.973-120.422
			C255.325,102.95,258.749,62.95,226.321,62.95z"/>
	</g>
	
		<rect x="-2363.716" y="-2185.576" display="inline" fill="none" stroke="#000000" stroke-miterlimit="10" width="16736" height="13952"/>
</g>
<g id="barvno_copy_2">
	<g id="rde훾a7bela_copy_4">
	</g>
	<g>
		
			<polygon fill="#96FFFF" stroke="#000000" stroke-width="8" stroke-linecap="round" stroke-linejoin="round" stroke-miterlimit="10" points="
			232.194,342.437 232.194,198.109 220.212,198.109 220.212,342.437 214.579,342.437 218.233,390.594 235.31,390.594 
			238.966,342.437 		"/>
		
			<path fill="#2626FF" stroke="#000100" stroke-width="8" stroke-linecap="round" stroke-linejoin="round" stroke-miterlimit="10" d="
			M226.321,62.95c-32.427,0-28.003,40-28.003,40l9.972,120.422l-9.972,14.026h57.007l-9.973-14.026l9.973-120.422
			C255.325,102.95,258.749,62.95,226.321,62.95z"/>
	</g>
	<rect x="-2363.716" y="-2185.576" fill="none" stroke="#000000" stroke-miterlimit="10" width="16736" height="13952"/>
</g>
<g id="sivinsko" display="none">
	<g id="rde훾a7bela_copy_3" display="inline">
	</g>
	<g display="inline">
		<g>
			<polygon fill="#A8A8A8" points="232.194,342.437 232.194,198.109 220.212,198.109 220.212,342.437 214.579,342.437 
				218.233,390.594 235.31,390.594 238.966,342.437 			"/>
			<path d="M235.31,394.594h-17.076c-2.092,0-3.831-1.611-3.989-3.697l-3.654-48.157c-0.084-1.11,0.298-2.206,1.055-3.022
				c0.757-0.816,1.82-1.281,2.934-1.281h1.633V198.109c0-2.208,1.791-4,4-4h11.982c2.209,0,4,1.792,4,4v140.328h2.771
				c1.114,0,2.176,0.464,2.934,1.281c0.757,0.816,1.139,1.912,1.055,3.022l-3.656,48.157
				C239.14,392.982,237.401,394.594,235.31,394.594z M221.941,386.594h9.661l3.049-40.157h-2.457c-2.209,0-4-1.79-4-4V202.109
				h-3.982v140.328c0,2.21-1.791,4-4,4h-1.318L221.941,386.594z"/>
		</g>
		<g>
			<path fill="#585858" d="M226.321,62.95c-32.427,0-28.003,40-28.003,40l9.972,120.422l-9.972,14.026h57.007l-9.973-14.026
				l9.973-120.422C255.325,102.95,258.749,62.95,226.321,62.95z"/>
			<path fill="#010101" d="M255.325,241.399h-57.007c-1.497,0-2.868-0.835-3.555-2.166c-0.686-1.33-0.573-2.932,0.294-4.152
				l9.125-12.834l-9.847-118.917c-0.163-1.54-2.117-22.399,9.208-35.045c5.546-6.194,13.209-9.334,22.777-9.334
				c9.561,0,17.289,3.136,22.967,9.321c11.774,12.825,10.099,34.12,10.022,35.02l-9.851,118.956l9.126,12.834
				c0.867,1.22,0.98,2.822,0.294,4.152S256.822,241.399,255.325,241.399z M206.07,233.399h41.503l-5.481-7.708
				c-0.547-0.769-0.804-1.707-0.726-2.647l9.973-120.423c0.016-0.192,1.434-18.751-7.963-28.96c-4.157-4.515-9.735-6.71-17.054-6.71
				c-7.286,0-12.781,2.175-16.799,6.65c-9.131,10.168-7.248,28.729-7.228,28.916c0.004,0.033,0.008,0.071,0.01,0.104l9.972,120.423
				c0.078,0.94-0.179,1.878-0.726,2.647L206.07,233.399z"/>
		</g>
	</g>
	<path display="inline" d="M14372.783,11766.924h-16737v-13953h16737V11766.924z M-2363.716,11765.924h16736l-0.5-13951h-16735.5
		l0.5,13951H-2363.716z"/>
</g>
<g id="linijsko" display="none">
	<g id="rde훾a7bela_copy" display="inline">
	</g>
	
		<polygon display="inline" fill="none" stroke="#000000" stroke-width="8" stroke-linecap="round" stroke-linejoin="round" stroke-miterlimit="10" points="
		232.194,237.399 220.212,237.399 220.212,342.437 214.579,342.437 218.233,390.594 235.31,390.594 238.966,342.437 
		232.194,342.437 	"/>
	<g display="inline">
		<path fill="none" stroke="#000000" stroke-width="8" stroke-linecap="round" stroke-linejoin="round" stroke-miterlimit="10" d="
			M226.321,62.95c-32.427,0-28.003,40-28.003,40l9.972,120.422l-9.972,14.026h57.007l-9.973-14.026l9.973-120.422
			C255.325,102.95,258.749,62.95,226.321,62.95z"/>
	</g>
</g>
<g id="pivot">
	<circle fill="none" cx="222.73" cy="389.265" r="14.133"/>
</g>
</svg>
