<?xml version="1.0" encoding="utf-8"?>
<!-- Generator: Adobe Illustrator 16.0.0, SVG Export Plug-In . SVG Version: 6.00 Build 0)  -->
<!DOCTYPE svg PUBLIC "-//W3C//DTD SVG 1.1//EN" "http://www.w3.org/Graphics/SVG/1.1/DTD/svg11.dtd">
<svg version="1.1" xmlns="http://www.w3.org/2000/svg" xmlns:xlink="http://www.w3.org/1999/xlink" x="0px" y="0px"
	 width="453.543px" height="453.543px" viewBox="0 0 453.543 453.543" enable-background="new 0 0 453.543 453.543"
	 xml:space="preserve">
<g id="kvadrat">
</g>
<g id="bg" display="none">
	<rect x="-5425.085" y="-1765.567" display="inline" width="15266.867" height="13678.951"/>
</g>
<g id="barvno" display="none">
	<g id="rde훾a7bela" display="inline">
	</g>
	<g display="inline">
		
			<rect x="70.772" y="194.771" fill="#F8B133" stroke="#000000" stroke-width="8" stroke-linecap="round" stroke-linejoin="round" stroke-miterlimit="10" width="312" height="64"/>
		<g>
			
				<line fill="none" stroke="#000000" stroke-width="8" stroke-linecap="round" stroke-linejoin="round" stroke-miterlimit="10" x1="91.124" y1="199.183" x2="91.124" y2="214.396"/>
			
				<line fill="none" stroke="#000000" stroke-width="8" stroke-linecap="round" stroke-linejoin="round" stroke-miterlimit="10" x1="110.485" y1="199.183" x2="110.485" y2="214.396"/>
			
				<line fill="none" stroke="#000000" stroke-width="8" stroke-linecap="round" stroke-linejoin="round" stroke-miterlimit="10" x1="129.846" y1="199.183" x2="129.846" y2="214.396"/>
			
				<line fill="none" stroke="#000000" stroke-width="8" stroke-linecap="round" stroke-linejoin="round" stroke-miterlimit="10" x1="149.208" y1="199.183" x2="149.208" y2="214.396"/>
			
				<line fill="none" stroke="#000000" stroke-width="8" stroke-linecap="round" stroke-linejoin="round" stroke-miterlimit="10" x1="168.567" y1="199.183" x2="168.567" y2="214.396"/>
			
				<line fill="none" stroke="#000000" stroke-width="8" stroke-linecap="round" stroke-linejoin="round" stroke-miterlimit="10" x1="187.928" y1="199.183" x2="187.928" y2="214.396"/>
			
				<line fill="none" stroke="#000000" stroke-width="8" stroke-linecap="round" stroke-linejoin="round" stroke-miterlimit="10" x1="207.29" y1="199.183" x2="207.29" y2="214.396"/>
			
				<line fill="none" stroke="#000000" stroke-width="8" stroke-linecap="round" stroke-linejoin="round" stroke-miterlimit="10" x1="226.651" y1="199.183" x2="226.651" y2="214.396"/>
			
				<line fill="none" stroke="#000000" stroke-width="8" stroke-linecap="round" stroke-linejoin="round" stroke-miterlimit="10" x1="246.01" y1="199.183" x2="246.01" y2="214.396"/>
			
				<line fill="none" stroke="#000000" stroke-width="8" stroke-linecap="round" stroke-linejoin="round" stroke-miterlimit="10" x1="265.372" y1="199.183" x2="265.372" y2="214.396"/>
			
				<line fill="none" stroke="#000000" stroke-width="8" stroke-linecap="round" stroke-linejoin="round" stroke-miterlimit="10" x1="284.733" y1="199.183" x2="284.733" y2="214.396"/>
			
				<line fill="none" stroke="#000000" stroke-width="8" stroke-linecap="round" stroke-linejoin="round" stroke-miterlimit="10" x1="304.094" y1="199.183" x2="304.094" y2="214.396"/>
			
				<line fill="none" stroke="#000000" stroke-width="8" stroke-linecap="round" stroke-linejoin="round" stroke-miterlimit="10" x1="323.454" y1="199.183" x2="323.454" y2="214.396"/>
			
				<line fill="none" stroke="#000000" stroke-width="8" stroke-linecap="round" stroke-linejoin="round" stroke-miterlimit="10" x1="342.815" y1="199.183" x2="342.815" y2="214.396"/>
			
				<line fill="none" stroke="#000000" stroke-width="8" stroke-linecap="round" stroke-linejoin="round" stroke-miterlimit="10" x1="362.176" y1="199.183" x2="362.176" y2="214.396"/>
		</g>
	</g>
	
		<rect x="-5935.371" y="-2185.576" display="inline" fill="none" stroke="#000000" stroke-miterlimit="10" width="16736" height="13952"/>
</g>
<g id="barvno_copy_2">
	<g id="rde훾a7bela_copy_4">
	</g>
	<g>
		
			<rect x="70.772" y="194.771" fill="#00FF00" stroke="#000000" stroke-width="8" stroke-linecap="round" stroke-linejoin="round" stroke-miterlimit="10" width="312" height="64"/>
		<g>
			
				<line fill="none" stroke="#000000" stroke-width="8" stroke-linecap="round" stroke-linejoin="round" stroke-miterlimit="10" x1="91.124" y1="199.183" x2="91.124" y2="214.396"/>
			
				<line fill="none" stroke="#000000" stroke-width="8" stroke-linecap="round" stroke-linejoin="round" stroke-miterlimit="10" x1="110.485" y1="199.183" x2="110.485" y2="214.396"/>
			
				<line fill="none" stroke="#000000" stroke-width="8" stroke-linecap="round" stroke-linejoin="round" stroke-miterlimit="10" x1="129.846" y1="199.183" x2="129.846" y2="214.396"/>
			
				<line fill="none" stroke="#000000" stroke-width="8" stroke-linecap="round" stroke-linejoin="round" stroke-miterlimit="10" x1="149.208" y1="199.183" x2="149.208" y2="214.396"/>
			
				<line fill="none" stroke="#000000" stroke-width="8" stroke-linecap="round" stroke-linejoin="round" stroke-miterlimit="10" x1="168.567" y1="199.183" x2="168.567" y2="214.396"/>
			
				<line fill="none" stroke="#000000" stroke-width="8" stroke-linecap="round" stroke-linejoin="round" stroke-miterlimit="10" x1="187.928" y1="199.183" x2="187.928" y2="214.396"/>
			
				<line fill="none" stroke="#000000" stroke-width="8" stroke-linecap="round" stroke-linejoin="round" stroke-miterlimit="10" x1="207.29" y1="199.183" x2="207.29" y2="214.396"/>
			
				<line fill="none" stroke="#000000" stroke-width="8" stroke-linecap="round" stroke-linejoin="round" stroke-miterlimit="10" x1="226.651" y1="199.183" x2="226.651" y2="214.396"/>
			
				<line fill="none" stroke="#000000" stroke-width="8" stroke-linecap="round" stroke-linejoin="round" stroke-miterlimit="10" x1="246.01" y1="199.183" x2="246.01" y2="214.396"/>
			
				<line fill="none" stroke="#000000" stroke-width="8" stroke-linecap="round" stroke-linejoin="round" stroke-miterlimit="10" x1="265.372" y1="199.183" x2="265.372" y2="214.396"/>
			
				<line fill="none" stroke="#000000" stroke-width="8" stroke-linecap="round" stroke-linejoin="round" stroke-miterlimit="10" x1="284.733" y1="199.183" x2="284.733" y2="214.396"/>
			
				<line fill="none" stroke="#000000" stroke-width="8" stroke-linecap="round" stroke-linejoin="round" stroke-miterlimit="10" x1="304.094" y1="199.183" x2="304.094" y2="214.396"/>
			
				<line fill="none" stroke="#000000" stroke-width="8" stroke-linecap="round" stroke-linejoin="round" stroke-miterlimit="10" x1="323.454" y1="199.183" x2="323.454" y2="214.396"/>
			
				<line fill="none" stroke="#000000" stroke-width="8" stroke-linecap="round" stroke-linejoin="round" stroke-miterlimit="10" x1="342.815" y1="199.183" x2="342.815" y2="214.396"/>
			
				<line fill="none" stroke="#000000" stroke-width="8" stroke-linecap="round" stroke-linejoin="round" stroke-miterlimit="10" x1="362.176" y1="199.183" x2="362.176" y2="214.396"/>
		</g>
	</g>
	<rect x="-5935.371" y="-2185.576" fill="none" stroke="#000000" stroke-miterlimit="10" width="16736" height="13952"/>
</g>
<g id="sivinsko" display="none">
	<g id="rde훾a7bela_copy_3" display="inline">
	</g>
	<g display="inline">
		<g>
			<rect x="70.772" y="194.771" fill="#B8B8B8" width="312" height="64"/>
			<path d="M382.772,262.771h-312c-2.209,0-4-1.791-4-4v-64c0-2.208,1.791-4,4-4h312c2.209,0,4,1.792,4,4v64
				C386.772,260.981,384.981,262.771,382.772,262.771z M74.772,254.771h304v-56h-304V254.771z"/>
		</g>
		<g>
			<path d="M91.124,218.396c-2.209,0-4-1.791-4-4v-15.213c0-2.209,1.791-4,4-4s4,1.791,4,4v15.213
				C95.124,216.605,93.333,218.396,91.124,218.396z"/>
			<path d="M110.485,218.396c-2.209,0-4-1.791-4-4v-15.213c0-2.209,1.791-4,4-4s4,1.791,4,4v15.213
				C114.485,216.605,112.694,218.396,110.485,218.396z"/>
			<path d="M129.846,218.396c-2.209,0-4-1.791-4-4v-15.213c0-2.209,1.791-4,4-4s4,1.791,4,4v15.213
				C133.846,216.605,132.055,218.396,129.846,218.396z"/>
			<path d="M149.208,218.396c-2.209,0-4-1.791-4-4v-15.213c0-2.209,1.791-4,4-4s4,1.791,4,4v15.213
				C153.208,216.605,151.417,218.396,149.208,218.396z"/>
			<path d="M168.567,218.396c-2.209,0-4-1.791-4-4v-15.213c0-2.209,1.791-4,4-4s4,1.791,4,4v15.213
				C172.567,216.605,170.776,218.396,168.567,218.396z"/>
			<path d="M187.928,218.396c-2.209,0-4-1.791-4-4v-15.213c0-2.209,1.791-4,4-4s4,1.791,4,4v15.213
				C191.928,216.605,190.137,218.396,187.928,218.396z"/>
			<path d="M207.29,218.396c-2.209,0-4-1.791-4-4v-15.213c0-2.209,1.791-4,4-4s4,1.791,4,4v15.213
				C211.29,216.605,209.499,218.396,207.29,218.396z"/>
			<path d="M226.651,218.396c-2.209,0-4-1.791-4-4v-15.213c0-2.209,1.791-4,4-4s4,1.791,4,4v15.213
				C230.651,216.605,228.86,218.396,226.651,218.396z"/>
			<path d="M246.01,218.396c-2.209,0-4-1.791-4-4v-15.213c0-2.209,1.791-4,4-4s4,1.791,4,4v15.213
				C250.01,216.605,248.219,218.396,246.01,218.396z"/>
			<path d="M265.372,218.396c-2.209,0-4-1.791-4-4v-15.213c0-2.209,1.791-4,4-4s4,1.791,4,4v15.213
				C269.372,216.605,267.581,218.396,265.372,218.396z"/>
			<path d="M284.733,218.396c-2.209,0-4-1.791-4-4v-15.213c0-2.209,1.791-4,4-4s4,1.791,4,4v15.213
				C288.733,216.605,286.942,218.396,284.733,218.396z"/>
			<path d="M304.094,218.396c-2.209,0-4-1.791-4-4v-15.213c0-2.209,1.791-4,4-4s4,1.791,4,4v15.213
				C308.094,216.605,306.303,218.396,304.094,218.396z"/>
			<path d="M323.454,218.396c-2.209,0-4-1.791-4-4v-15.213c0-2.209,1.791-4,4-4s4,1.791,4,4v15.213
				C327.454,216.605,325.663,218.396,323.454,218.396z"/>
			<path d="M342.815,218.396c-2.209,0-4-1.791-4-4v-15.213c0-2.209,1.791-4,4-4s4,1.791,4,4v15.213
				C346.815,216.605,345.024,218.396,342.815,218.396z"/>
			<path d="M362.176,218.396c-2.209,0-4-1.791-4-4v-15.213c0-2.209,1.791-4,4-4s4,1.791,4,4v15.213
				C366.176,216.605,364.385,218.396,362.176,218.396z"/>
		</g>
	</g>
	<path display="inline" d="M10801.129,11766.924h-16737v-13953h16737V11766.924z M-5935.371,11765.924h16736l-0.5-13951h-16735.5
		l0.5,13951H-5935.371z"/>
</g>
<g id="linijsko" display="none">
	<g id="rde훾a7bela_copy" display="inline">
	</g>
	<g display="inline">
		
			<rect x="70.772" y="194.771" fill="none" stroke="#000000" stroke-width="8" stroke-linecap="round" stroke-linejoin="round" stroke-miterlimit="10" width="312" height="64"/>
		<g>
			
				<line fill="none" stroke="#000000" stroke-width="8" stroke-linecap="round" stroke-linejoin="round" stroke-miterlimit="10" x1="91.124" y1="199.183" x2="91.124" y2="214.396"/>
			
				<line fill="none" stroke="#000000" stroke-width="8" stroke-linecap="round" stroke-linejoin="round" stroke-miterlimit="10" x1="110.485" y1="199.183" x2="110.485" y2="214.396"/>
			
				<line fill="none" stroke="#000000" stroke-width="8" stroke-linecap="round" stroke-linejoin="round" stroke-miterlimit="10" x1="129.846" y1="199.183" x2="129.846" y2="214.396"/>
			
				<line fill="none" stroke="#000000" stroke-width="8" stroke-linecap="round" stroke-linejoin="round" stroke-miterlimit="10" x1="149.208" y1="199.183" x2="149.208" y2="214.396"/>
			
				<line fill="none" stroke="#000000" stroke-width="8" stroke-linecap="round" stroke-linejoin="round" stroke-miterlimit="10" x1="168.567" y1="199.183" x2="168.567" y2="214.396"/>
			
				<line fill="none" stroke="#000000" stroke-width="8" stroke-linecap="round" stroke-linejoin="round" stroke-miterlimit="10" x1="187.928" y1="199.183" x2="187.928" y2="214.396"/>
			
				<line fill="none" stroke="#000000" stroke-width="8" stroke-linecap="round" stroke-linejoin="round" stroke-miterlimit="10" x1="207.29" y1="199.183" x2="207.29" y2="214.396"/>
			
				<line fill="none" stroke="#000000" stroke-width="8" stroke-linecap="round" stroke-linejoin="round" stroke-miterlimit="10" x1="226.651" y1="199.183" x2="226.651" y2="214.396"/>
			
				<line fill="none" stroke="#000000" stroke-width="8" stroke-linecap="round" stroke-linejoin="round" stroke-miterlimit="10" x1="246.01" y1="199.183" x2="246.01" y2="214.396"/>
			
				<line fill="none" stroke="#000000" stroke-width="8" stroke-linecap="round" stroke-linejoin="round" stroke-miterlimit="10" x1="265.372" y1="199.183" x2="265.372" y2="214.396"/>
			
				<line fill="none" stroke="#000000" stroke-width="8" stroke-linecap="round" stroke-linejoin="round" stroke-miterlimit="10" x1="284.733" y1="199.183" x2="284.733" y2="214.396"/>
			
				<line fill="none" stroke="#000000" stroke-width="8" stroke-linecap="round" stroke-linejoin="round" stroke-miterlimit="10" x1="304.094" y1="199.183" x2="304.094" y2="214.396"/>
			
				<line fill="none" stroke="#000000" stroke-width="8" stroke-linecap="round" stroke-linejoin="round" stroke-miterlimit="10" x1="323.454" y1="199.183" x2="323.454" y2="214.396"/>
			
				<line fill="none" stroke="#000000" stroke-width="8" stroke-linecap="round" stroke-linejoin="round" stroke-miterlimit="10" x1="342.815" y1="199.183" x2="342.815" y2="214.396"/>
			
				<line fill="none" stroke="#000000" stroke-width="8" stroke-linecap="round" stroke-linejoin="round" stroke-miterlimit="10" x1="362.176" y1="199.183" x2="362.176" y2="214.396"/>
		</g>
	</g>
</g>
<g id="pivot">
	<circle fill="none" cx="231.805" cy="259.057" r="14.133"/>
</g>
</svg>
