<?xml version="1.0" encoding="utf-8"?>
<!-- Generator: Adobe Illustrator 16.0.0, SVG Export Plug-In . SVG Version: 6.00 Build 0)  -->
<!DOCTYPE svg PUBLIC "-//W3C//DTD SVG 1.1//EN" "http://www.w3.org/Graphics/SVG/1.1/DTD/svg11.dtd">
<svg version="1.1" xmlns="http://www.w3.org/2000/svg" xmlns:xlink="http://www.w3.org/1999/xlink" x="0px" y="0px"
	 width="453.543px" height="453.543px" viewBox="0 0 453.543 453.543" enable-background="new 0 0 453.543 453.543"
	 xml:space="preserve">
<g id="kvadrat">
</g>
<g id="bg" display="none">
	<rect x="-6445.558" y="-9929.349" display="inline" width="15266.867" height="13678.951"/>
</g>
<g id="barvno" display="none">
	<g display="inline">
		<path d="M77.495,300.915h47.001V162.56H85.769v-23.831c20.853-3.973,35.416-9.269,48.656-17.212h28.465v179.398h41.375v31.113
			H77.495V300.915z"/>
		<path d="M248.948,281.717c12.577,12.909,28.796,23.17,49.979,23.17c22.839,0,38.727-11.916,38.727-31.775
			c0-21.846-13.901-35.747-61.896-35.747v-27.804c41.374,0,54.944-14.232,54.944-33.762c0-17.542-11.915-28.134-31.113-28.134
			c-16.55,0-29.458,7.944-42.367,19.859l-19.528-23.501c17.874-15.887,38.064-26.479,63.22-26.479
			c40.381,0,68.185,19.859,68.185,55.606c0,23.501-13.901,39.388-36.74,48.325v1.324c24.824,6.619,43.691,24.493,43.691,52.297
			c0,38.395-33.431,60.902-73.812,60.902c-34.093,0-56.601-13.239-71.495-29.789L248.948,281.717z"/>
	</g>
	<g id="rde훾a7bela" display="inline">
	</g>
	
		<rect x="-6955.843" y="-10349.357" display="inline" fill="none" stroke="#000000" stroke-miterlimit="10" width="16736" height="13952"/>
</g>
<g id="barvno_copy_2">
	<g>
		<path fill="#00FFFF" d="M77.495,300.915h47.001V162.56H85.769v-23.831c20.853-3.973,35.416-9.269,48.656-17.212h28.465v179.398
			h41.375v31.113H77.495V300.915z"/>
		<path fill="#00FFFF" d="M248.948,281.717c12.577,12.909,28.796,23.17,49.979,23.17c22.839,0,38.727-11.916,38.727-31.775
			c0-21.846-13.901-35.747-61.896-35.747v-27.804c41.374,0,54.944-14.232,54.944-33.762c0-17.542-11.915-28.134-31.113-28.134
			c-16.55,0-29.458,7.944-42.367,19.859l-19.528-23.501c17.874-15.887,38.064-26.479,63.22-26.479
			c40.381,0,68.185,19.859,68.185,55.606c0,23.501-13.901,39.388-36.74,48.325v1.324c24.824,6.619,43.691,24.493,43.691,52.297
			c0,38.395-33.431,60.902-73.812,60.902c-34.093,0-56.601-13.239-71.495-29.789L248.948,281.717z"/>
	</g>
	<g id="rde훾a7bela_copy_4">
	</g>
	<rect x="-6955.843" y="-10349.357" fill="none" stroke="#000000" stroke-miterlimit="10" width="16736" height="13952"/>
</g>
<g id="sivinsko" display="none">
	<g id="rde훾a7bela_copy_3" display="inline">
	</g>
	<path display="inline" d="M9780.656,3603.143h-16737v-13953h16737V3603.143z M-6955.843,3602.143h16736l-0.5-13951h-16735.5
		l0.5,13951H-6955.843z"/>
</g>
<g id="linijsko" display="none">
	<g display="inline">
		<path d="M77.495,300.915h47.001V162.56H85.769v-23.831c20.853-3.973,35.416-9.269,48.656-17.212h28.465v179.398h41.375v31.113
			H77.495V300.915z"/>
		<path d="M248.948,281.717c12.577,12.909,28.796,23.17,49.979,23.17c22.839,0,38.727-11.916,38.727-31.775
			c0-21.846-13.901-35.747-61.896-35.747v-27.804c41.374,0,54.944-14.232,54.944-33.762c0-17.542-11.915-28.134-31.113-28.134
			c-16.55,0-29.458,7.944-42.367,19.859l-19.528-23.501c17.874-15.887,38.064-26.479,63.22-26.479
			c40.381,0,68.185,19.859,68.185,55.606c0,23.501-13.901,39.388-36.74,48.325v1.324c24.824,6.619,43.691,24.493,43.691,52.297
			c0,38.395-33.431,60.902-73.812,60.902c-34.093,0-56.601-13.239-71.495-29.789L248.948,281.717z"/>
	</g>
	<g id="rde훾a7bela_copy" display="inline">
	</g>
</g>
<g id="pivot">
	<circle fill="none" cx="221.68" cy="330.301" r="14.133"/>
</g>
</svg>
