<?xml version="1.0" encoding="utf-8"?>
<!-- Generator: Adobe Illustrator 16.0.0, SVG Export Plug-In . SVG Version: 6.00 Build 0)  -->
<!DOCTYPE svg PUBLIC "-//W3C//DTD SVG 1.1//EN" "http://www.w3.org/Graphics/SVG/1.1/DTD/svg11.dtd">
<svg version="1.1" xmlns="http://www.w3.org/2000/svg" xmlns:xlink="http://www.w3.org/1999/xlink" x="0px" y="0px"
	 width="453.544px" height="453.543px" viewBox="0 0 453.544 453.543" enable-background="new 0 0 453.544 453.543"
	 xml:space="preserve">
<g id="kvadrat">
</g>
<g id="bg" display="none">
	<rect x="-7976.267" y="-9929.349" display="inline" width="15266.867" height="13678.951"/>
</g>
<g id="barvno" display="none">
	<g display="inline">
		<path d="M75.509,300.915h47V162.56H83.783v-23.831c20.853-3.973,35.416-9.269,48.655-17.212h28.467v179.398h41.373v31.113H75.509
			V300.915z"/>
		<path d="M353.872,164.545c-7.612-9.268-20.852-15.887-33.43-15.887c-26.48,0-47.994,19.528-49.649,77.783
			c12.247-15.557,30.452-24.824,45.677-24.824c36.41,0,61.565,21.184,61.565,65.205c0,42.037-30.12,69.178-66.198,69.178
			c-41.375,0-76.461-32.105-76.461-102.939c0-81.755,39.721-115.516,82.749-115.516c25.487,0,43.691,10.592,56.269,23.831
			L353.872,164.545z M342.618,266.822c0-24.824-12.246-37.402-33.1-37.402c-11.915,0-25.816,6.62-37.732,24.163
			c3.972,37.402,18.867,53.29,39.389,53.29C328.717,306.873,342.618,292.641,342.618,266.822z"/>
	</g>
	<g id="rde훾a7bela" display="inline">
	</g>
	
		<rect x="-8486.552" y="-10349.357" display="inline" fill="none" stroke="#000000" stroke-miterlimit="10" width="16736" height="13952"/>
</g>
<g id="barvno_copy_2">
	<g>
		<path fill="#00FFFF" d="M75.509,300.915h47V162.56H83.783v-23.831c20.853-3.973,35.416-9.269,48.655-17.212h28.467v179.398h41.373
			v31.113H75.509V300.915z"/>
		<path fill="#00FFFF" d="M353.872,164.545c-7.612-9.268-20.852-15.887-33.43-15.887c-26.48,0-47.994,19.528-49.649,77.783
			c12.247-15.557,30.452-24.824,45.677-24.824c36.41,0,61.565,21.184,61.565,65.205c0,42.037-30.12,69.178-66.198,69.178
			c-41.375,0-76.461-32.105-76.461-102.939c0-81.755,39.721-115.516,82.749-115.516c25.487,0,43.691,10.592,56.269,23.831
			L353.872,164.545z M342.618,266.822c0-24.824-12.246-37.402-33.1-37.402c-11.915,0-25.816,6.62-37.732,24.163
			c3.972,37.402,18.867,53.29,39.389,53.29C328.717,306.873,342.618,292.641,342.618,266.822z"/>
	</g>
	<g id="rde훾a7bela_copy_4">
	</g>
	<rect x="-8486.552" y="-10349.357" fill="none" stroke="#000000" stroke-miterlimit="10" width="16736" height="13952"/>
</g>
<g id="sivinsko" display="none">
	<g id="rde훾a7bela_copy_3" display="inline">
	</g>
	<path display="inline" d="M8249.948,3603.143h-16737v-13953h16737V3603.143z M-8486.552,3602.143h16736l-0.5-13951h-16735.5
		l0.5,13951H-8486.552z"/>
</g>
<g id="linijsko" display="none">
	<g display="inline">
		<path d="M75.509,300.915h47V162.56H83.783v-23.831c20.853-3.973,35.416-9.269,48.655-17.212h28.467v179.398h41.373v31.113H75.509
			V300.915z"/>
		<path d="M353.872,164.545c-7.612-9.268-20.852-15.887-33.43-15.887c-26.48,0-47.994,19.528-49.649,77.783
			c12.247-15.557,30.452-24.824,45.677-24.824c36.41,0,61.565,21.184,61.565,65.205c0,42.037-30.12,69.178-66.198,69.178
			c-41.375,0-76.461-32.105-76.461-102.939c0-81.755,39.721-115.516,82.749-115.516c25.487,0,43.691,10.592,56.269,23.831
			L353.872,164.545z M342.618,266.822c0-24.824-12.246-37.402-33.1-37.402c-11.915,0-25.816,6.62-37.732,24.163
			c3.972,37.402,18.867,53.29,39.389,53.29C328.717,306.873,342.618,292.641,342.618,266.822z"/>
	</g>
	<g id="rde훾a7bela_copy" display="inline">
	</g>
</g>
<g id="pivot">
	<circle fill="none" cx="229.239" cy="327.791" r="14.133"/>
</g>
</svg>
