<?xml version="1.0" encoding="utf-8"?>
<!-- Generator: Adobe Illustrator 16.0.0, SVG Export Plug-In . SVG Version: 6.00 Build 0)  -->
<!DOCTYPE svg PUBLIC "-//W3C//DTD SVG 1.1//EN" "http://www.w3.org/Graphics/SVG/1.1/DTD/svg11.dtd">
<svg version="1.1" xmlns="http://www.w3.org/2000/svg" xmlns:xlink="http://www.w3.org/1999/xlink" x="0px" y="0px"
	 width="453.543px" height="453.543px" viewBox="0 0 453.543 453.543" enable-background="new 0 0 453.543 453.543"
	 xml:space="preserve">
<g id="kvadrat">
</g>
<g id="bg" display="none">
	<rect x="-1343.195" y="-9929.349" display="inline" width="15266.867" height="13678.951"/>
</g>
<g id="barvno" display="none">
	<g display="inline">
		<path d="M173.922,281.718c12.578,12.908,28.797,23.169,49.98,23.169c22.838,0,38.727-11.915,38.727-31.775
			c0-21.846-13.903-35.747-61.896-35.747v-27.804c41.373,0,54.945-14.232,54.945-33.761c0-17.543-11.916-28.135-31.113-28.135
			c-16.551,0-29.459,7.943-42.367,19.859l-19.529-23.5c17.873-15.889,38.064-26.48,63.221-26.48
			c40.381,0,68.184,19.86,68.184,55.607c0,23.5-13.902,39.389-36.74,48.325v1.323c24.824,6.621,43.691,24.494,43.691,52.298
			c0,38.396-33.43,60.902-73.813,60.902c-34.092,0-56.6-13.239-71.494-29.789L173.922,281.718z"/>
	</g>
	<g id="rde훾a7bela" display="inline">
	</g>
	
		<rect x="-1853.48" y="-10349.357" display="inline" fill="none" stroke="#000000" stroke-miterlimit="10" width="16736" height="13952"/>
</g>
<g id="barvno_copy_2">
	<g>
		<path fill="#00FFFF" d="M173.922,281.718c12.578,12.908,28.797,23.169,49.98,23.169c22.838,0,38.727-11.915,38.727-31.775
			c0-21.846-13.903-35.747-61.896-35.747v-27.804c41.373,0,54.945-14.232,54.945-33.761c0-17.543-11.916-28.135-31.113-28.135
			c-16.551,0-29.459,7.943-42.367,19.859l-19.529-23.5c17.873-15.889,38.064-26.48,63.221-26.48
			c40.381,0,68.184,19.86,68.184,55.607c0,23.5-13.902,39.389-36.74,48.325v1.323c24.824,6.621,43.691,24.494,43.691,52.298
			c0,38.396-33.43,60.902-73.813,60.902c-34.092,0-56.6-13.239-71.494-29.789L173.922,281.718z"/>
	</g>
	<g id="rde훾a7bela_copy_4">
	</g>
	<rect x="-1853.48" y="-10349.357" fill="none" stroke="#000000" stroke-miterlimit="10" width="16736" height="13952"/>
</g>
<g id="sivinsko" display="none">
	<g id="rde훾a7bela_copy_3" display="inline">
	</g>
	<path display="inline" d="M14883.02,3603.143h-16737v-13953h16737V3603.143z M-1853.48,3602.143h16736l-0.5-13951h-16735.5
		l0.5,13951H-1853.48z"/>
</g>
<g id="linijsko" display="none">
	<g display="inline">
		<path d="M173.922,281.718c12.578,12.908,28.797,23.169,49.98,23.169c22.838,0,38.727-11.915,38.727-31.775
			c0-21.846-13.903-35.747-61.896-35.747v-27.804c41.373,0,54.945-14.232,54.945-33.761c0-17.543-11.916-28.135-31.113-28.135
			c-16.551,0-29.459,7.943-42.367,19.859l-19.529-23.5c17.873-15.889,38.064-26.48,63.221-26.48
			c40.381,0,68.184,19.86,68.184,55.607c0,23.5-13.902,39.389-36.74,48.325v1.323c24.824,6.621,43.691,24.494,43.691,52.298
			c0,38.396-33.43,60.902-73.813,60.902c-34.092,0-56.6-13.239-71.494-29.789L173.922,281.718z"/>
	</g>
	<g id="rde훾a7bela_copy" display="inline">
	</g>
</g>
<g id="pivot">
	<circle fill="none" cx="225.45" cy="330.301" r="14.133"/>
</g>
</svg>
