<?xml version="1.0" encoding="utf-8"?>
<!-- Generator: Adobe Illustrator 16.0.0, SVG Export Plug-In . SVG Version: 6.00 Build 0)  -->
<!DOCTYPE svg PUBLIC "-//W3C//DTD SVG 1.1//EN" "http://www.w3.org/Graphics/SVG/1.1/DTD/svg11.dtd">
<svg version="1.1" xmlns="http://www.w3.org/2000/svg" xmlns:xlink="http://www.w3.org/1999/xlink" x="0px" y="0px"
	 width="453.544px" height="453.543px" viewBox="0 0 453.544 453.543" enable-background="new 0 0 453.544 453.543"
	 xml:space="preserve">
<g id="kvadrat">
</g>
<g id="bg" display="none">
	<rect x="-11037.685" y="-9929.349" display="inline" width="15266.867" height="13678.951"/>
</g>
<g id="barvno" display="none">
	<g display="inline">
		<path d="M85.935,281.717c12.578,12.909,28.797,23.17,49.98,23.17c22.84,0,38.727-11.916,38.727-31.775
			c0-21.846-13.902-35.747-61.896-35.747v-27.804c41.375,0,54.945-14.232,54.945-33.762c0-17.542-11.916-28.134-31.113-28.134
			c-16.549,0-29.459,7.944-42.367,19.859l-19.529-23.501c17.875-15.887,38.064-26.479,63.221-26.479
			c40.381,0,68.186,19.859,68.186,55.606c0,23.501-13.902,39.388-36.74,48.325v1.324c24.824,6.619,43.689,24.493,43.689,52.297
			c0,38.395-33.43,60.902-73.811,60.902c-34.092,0-56.6-13.239-71.494-29.789L85.935,281.717z"/>
		<path d="M242.825,225.779c0-71.164,27.803-108.234,71.494-108.234s71.494,37.402,71.494,108.234
			c0,71.164-27.803,110.221-71.494,110.221S242.825,296.943,242.825,225.779z M349.405,225.779
			c0-59.578-14.564-78.445-35.086-78.445c-20.191,0-35.086,18.867-35.086,78.445c0,59.579,14.895,80.432,35.086,80.432
			C334.841,306.211,349.405,285.358,349.405,225.779z"/>
	</g>
	<g id="rde훾a7bela" display="inline">
	</g>
	
		<rect x="-11547.97" y="-10349.357" display="inline" fill="none" stroke="#000000" stroke-miterlimit="10" width="16736" height="13952"/>
</g>
<g id="barvno_copy_2">
	<g>
		<path fill="#00FFFF" d="M85.935,281.717c12.578,12.909,28.797,23.17,49.98,23.17c22.84,0,38.727-11.916,38.727-31.775
			c0-21.846-13.902-35.747-61.896-35.747v-27.804c41.375,0,54.945-14.232,54.945-33.762c0-17.542-11.916-28.134-31.113-28.134
			c-16.549,0-29.459,7.944-42.367,19.859l-19.529-23.501c17.875-15.887,38.064-26.479,63.221-26.479
			c40.381,0,68.186,19.859,68.186,55.606c0,23.501-13.902,39.388-36.74,48.325v1.324c24.824,6.619,43.689,24.493,43.689,52.297
			c0,38.395-33.43,60.902-73.811,60.902c-34.092,0-56.6-13.239-71.494-29.789L85.935,281.717z"/>
		<path fill="#00FFFF" d="M242.825,225.779c0-71.164,27.803-108.234,71.494-108.234s71.494,37.402,71.494,108.234
			c0,71.164-27.803,110.221-71.494,110.221S242.825,296.943,242.825,225.779z M349.405,225.779
			c0-59.578-14.564-78.445-35.086-78.445c-20.191,0-35.086,18.867-35.086,78.445c0,59.579,14.895,80.432,35.086,80.432
			C334.841,306.211,349.405,285.358,349.405,225.779z"/>
	</g>
	<g id="rde훾a7bela_copy_4">
	</g>
	<rect x="-11547.97" y="-10349.357" fill="none" stroke="#000000" stroke-miterlimit="10" width="16736" height="13952"/>
</g>
<g id="sivinsko" display="none">
	<g id="rde훾a7bela_copy_3" display="inline">
	</g>
	<path display="inline" d="M5188.53,3603.143h-16737v-13953h16737V3603.143z M-11547.97,3602.143h16736l-0.5-13951h-16735.5
		l0.5,13951H-11547.97z"/>
</g>
<g id="linijsko" display="none">
	<g display="inline">
		<path d="M85.935,281.717c12.578,12.909,28.797,23.17,49.98,23.17c22.84,0,38.727-11.916,38.727-31.775
			c0-21.846-13.902-35.747-61.896-35.747v-27.804c41.375,0,54.945-14.232,54.945-33.762c0-17.542-11.916-28.134-31.113-28.134
			c-16.549,0-29.459,7.944-42.367,19.859l-19.529-23.501c17.875-15.887,38.064-26.479,63.221-26.479
			c40.381,0,68.186,19.859,68.186,55.606c0,23.501-13.902,39.388-36.74,48.325v1.324c24.824,6.619,43.689,24.493,43.689,52.297
			c0,38.395-33.43,60.902-73.811,60.902c-34.092,0-56.6-13.239-71.494-29.789L85.935,281.717z"/>
		<path d="M242.825,225.779c0-71.164,27.803-108.234,71.494-108.234s71.494,37.402,71.494,108.234
			c0,71.164-27.803,110.221-71.494,110.221S242.825,296.943,242.825,225.779z M349.405,225.779
			c0-59.578-14.564-78.445-35.086-78.445c-20.191,0-35.086,18.867-35.086,78.445c0,59.579,14.895,80.432,35.086,80.432
			C334.841,306.211,349.405,285.358,349.405,225.779z"/>
	</g>
	<g id="rde훾a7bela_copy" display="inline">
	</g>
</g>
<g id="pivot">
	<circle fill="none" cx="225.668" cy="327.791" r="14.133"/>
</g>
</svg>
