<?xml version="1.0" encoding="utf-8"?>
<!-- Generator: Adobe Illustrator 16.0.0, SVG Export Plug-In . SVG Version: 6.00 Build 0)  -->
<!DOCTYPE svg PUBLIC "-//W3C//DTD SVG 1.1//EN" "http://www.w3.org/Graphics/SVG/1.1/DTD/svg11.dtd">
<svg version="1.1" xmlns="http://www.w3.org/2000/svg" xmlns:xlink="http://www.w3.org/1999/xlink" x="0px" y="0px"
	 width="453.544px" height="453.543px" viewBox="0 0 453.544 453.543" enable-background="new 0 0 453.544 453.543"
	 xml:space="preserve">
<g id="kvadrat">
</g>
<g id="bg" display="none">
	<rect x="-11547.921" y="-9929.349" display="inline" width="15266.867" height="13678.951"/>
</g>
<g id="barvno" display="none">
	<g display="inline">
		<path d="M221.974,277.745h-26.479v54.283h-35.748v-54.283h-93.01v-25.817l83.41-130.411h45.348v126.771h26.479V277.745z
			 M159.747,248.287v-47.663c0-12.247,0.992-31.444,1.654-43.691h-1.324c-5.295,10.923-11.254,21.515-17.211,32.769l-38.395,58.586
			H159.747z"/>
		<path d="M243.817,225.779c0-71.164,27.803-108.234,71.494-108.234s71.496,37.402,71.496,108.234
			c0,71.164-27.805,110.221-71.496,110.221S243.817,296.943,243.817,225.779z M350.397,225.779
			c0-59.578-14.564-78.445-35.086-78.445c-20.189,0-35.084,18.867-35.084,78.445c0,59.579,14.895,80.432,35.084,80.432
			C335.833,306.211,350.397,285.358,350.397,225.779z"/>
	</g>
	<g id="rde훾a7bela" display="inline">
	</g>
	
		<rect x="-12058.206" y="-10349.357" display="inline" fill="none" stroke="#000000" stroke-miterlimit="10" width="16736" height="13952"/>
</g>
<g id="barvno_copy_2">
	<g>
		<path fill="#00FFFF" d="M221.974,277.745h-26.479v54.283h-35.748v-54.283h-93.01v-25.817l83.41-130.411h45.348v126.771h26.479
			V277.745z M159.747,248.287v-47.663c0-12.247,0.992-31.444,1.654-43.691h-1.324c-5.295,10.923-11.254,21.515-17.211,32.769
			l-38.395,58.586H159.747z"/>
		<path fill="#00FFFF" d="M243.817,225.779c0-71.164,27.803-108.234,71.494-108.234s71.496,37.402,71.496,108.234
			c0,71.164-27.805,110.221-71.496,110.221S243.817,296.943,243.817,225.779z M350.397,225.779
			c0-59.578-14.564-78.445-35.086-78.445c-20.189,0-35.084,18.867-35.084,78.445c0,59.579,14.895,80.432,35.084,80.432
			C335.833,306.211,350.397,285.358,350.397,225.779z"/>
	</g>
	<g id="rde훾a7bela_copy_4">
	</g>
	<rect x="-12058.206" y="-10349.357" fill="none" stroke="#000000" stroke-miterlimit="10" width="16736" height="13952"/>
</g>
<g id="sivinsko" display="none">
	<g id="rde훾a7bela_copy_3" display="inline">
	</g>
	<path display="inline" d="M4678.294,3603.143h-16737v-13953h16737V3603.143z M-12058.206,3602.143h16736l-0.5-13951h-16735.5
		l0.5,13951H-12058.206z"/>
</g>
<g id="linijsko" display="none">
	<g display="inline">
		<path d="M221.974,277.745h-26.479v54.283h-35.748v-54.283h-93.01v-25.817l83.41-130.411h45.348v126.771h26.479V277.745z
			 M159.747,248.287v-47.663c0-12.247,0.992-31.444,1.654-43.691h-1.324c-5.295,10.923-11.254,21.515-17.211,32.769l-38.395,58.586
			H159.747z"/>
		<path d="M243.817,225.779c0-71.164,27.803-108.234,71.494-108.234s71.496,37.402,71.496,108.234
			c0,71.164-27.805,110.221-71.496,110.221S243.817,296.943,243.817,225.779z M350.397,225.779
			c0-59.578-14.564-78.445-35.086-78.445c-20.189,0-35.084,18.867-35.084,78.445c0,59.579,14.895,80.432,35.084,80.432
			C335.833,306.211,350.397,285.358,350.397,225.779z"/>
	</g>
	<g id="rde훾a7bela_copy" display="inline">
	</g>
</g>
<g id="pivot">
	<circle fill="none" cx="224.842" cy="327.791" r="14.133"/>
</g>
</svg>
