<?xml version="1.0" encoding="utf-8"?>
<!-- Generator: Adobe Illustrator 16.0.0, SVG Export Plug-In . SVG Version: 6.00 Build 0)  -->
<!DOCTYPE svg PUBLIC "-//W3C//DTD SVG 1.1//EN" "http://www.w3.org/Graphics/SVG/1.1/DTD/svg11.dtd">
<svg version="1.1" xmlns="http://www.w3.org/2000/svg" xmlns:xlink="http://www.w3.org/1999/xlink" x="0px" y="0px"
	 width="453.543px" height="453.543px" viewBox="0 0 453.543 453.543" enable-background="new 0 0 453.543 453.543"
	 xml:space="preserve">
<g id="kvadrat">
</g>
<g id="bg" display="none">
	<rect x="-2363.667" y="-9929.349" display="inline" width="15266.867" height="13678.951"/>
</g>
<g id="barvno" display="none">
	<g display="inline">
		<path d="M172.93,282.38c12.578,11.915,28.135,22.507,49.318,22.507c23.5,0,40.711-14.895,40.711-40.381
			c0-25.155-15.557-39.389-38.725-39.389c-13.572,0-21.184,3.642-33.762,11.916l-18.205-11.585l6.289-103.932h112.537v32.105
			h-79.438l-4.303,50.974c8.936-4.303,16.881-6.95,27.803-6.95c36.078,0,66.199,20.521,66.199,65.867
			c0,46.008-35.416,72.487-74.143,72.487c-34.092,0-56.27-13.57-71.826-29.127L172.93,282.38z"/>
	</g>
	<g id="rde훾a7bela" display="inline">
	</g>
	
		<rect x="-2873.953" y="-10349.357" display="inline" fill="none" stroke="#000000" stroke-miterlimit="10" width="16736" height="13952"/>
</g>
<g id="barvno_copy_2">
	<g>
		<path fill="#00FFFF" d="M172.93,282.38c12.578,11.915,28.135,22.507,49.318,22.507c23.5,0,40.711-14.895,40.711-40.381
			c0-25.155-15.557-39.389-38.725-39.389c-13.572,0-21.184,3.642-33.762,11.916l-18.205-11.585l6.289-103.932h112.537v32.105
			h-79.438l-4.303,50.974c8.936-4.303,16.881-6.95,27.803-6.95c36.078,0,66.199,20.521,66.199,65.867
			c0,46.008-35.416,72.487-74.143,72.487c-34.092,0-56.27-13.57-71.826-29.127L172.93,282.38z"/>
	</g>
	<g id="rde훾a7bela_copy_4">
	</g>
	<rect x="-2873.953" y="-10349.357" fill="none" stroke="#000000" stroke-miterlimit="10" width="16736" height="13952"/>
</g>
<g id="sivinsko" display="none">
	<g id="rde훾a7bela_copy_3" display="inline">
	</g>
	<path display="inline" d="M13862.547,3603.143h-16737v-13953h16737V3603.143z M-2873.953,3602.143h16736l-0.5-13951h-16735.5
		l0.5,13951H-2873.953z"/>
</g>
<g id="linijsko" display="none">
	<g display="inline">
		<path d="M172.93,282.38c12.578,11.915,28.135,22.507,49.318,22.507c23.5,0,40.711-14.895,40.711-40.381
			c0-25.155-15.557-39.389-38.725-39.389c-13.572,0-21.184,3.642-33.762,11.916l-18.205-11.585l6.289-103.932h112.537v32.105
			h-79.438l-4.303,50.974c8.936-4.303,16.881-6.95,27.803-6.95c36.078,0,66.199,20.521,66.199,65.867
			c0,46.008-35.416,72.487-74.143,72.487c-34.092,0-56.27-13.57-71.826-29.127L172.93,282.38z"/>
	</g>
	<g id="rde훾a7bela_copy" display="inline">
	</g>
</g>
<g id="pivot">
	<circle fill="none" cx="216.252" cy="330.301" r="14.133"/>
</g>
</svg>
