<?xml version="1.0" encoding="utf-8"?>
<!-- Generator: Adobe Illustrator 16.0.0, SVG Export Plug-In . SVG Version: 6.00 Build 0)  -->
<!DOCTYPE svg PUBLIC "-//W3C//DTD SVG 1.1//EN" "http://www.w3.org/Graphics/SVG/1.1/DTD/svg11.dtd">
<svg version="1.1" xmlns="http://www.w3.org/2000/svg" xmlns:xlink="http://www.w3.org/1999/xlink" x="0px" y="0px"
	 width="453.544px" height="453.543px" viewBox="0 0 453.544 453.543" enable-background="new 0 0 453.544 453.543"
	 xml:space="preserve">
<g id="kvadrat">
</g>
<g id="bg" display="none">
	<rect x="-12568.394" y="-9929.349" display="inline" width="15266.867" height="13678.951"/>
</g>
<g id="barvno" display="none">
	<g display="inline">
		<path d="M189.536,164.545c-7.613-9.268-20.852-15.887-33.43-15.887c-26.48,0-47.994,19.528-49.648,77.783
			c12.246-15.557,30.451-24.824,45.676-24.824c36.41,0,61.564,21.184,61.564,65.205c0,42.037-30.119,69.178-66.197,69.178
			c-41.375,0-76.461-32.105-76.461-102.939c0-81.755,39.721-115.516,82.75-115.516c25.486,0,43.689,10.592,56.268,23.831
			L189.536,164.545z M178.282,266.822c0-24.824-12.246-37.402-33.1-37.402c-11.914,0-25.816,6.62-37.732,24.163
			c3.973,37.402,18.867,53.29,39.389,53.29C164.382,306.873,178.282,292.641,178.282,266.822z"/>
		<path d="M239.515,225.779c0-71.164,27.803-108.234,71.494-108.234s71.494,37.402,71.494,108.234
			C382.503,296.943,354.7,336,311.009,336S239.515,296.943,239.515,225.779z M346.093,225.779c0-59.578-14.563-78.445-35.084-78.445
			c-20.191,0-35.086,18.867-35.086,78.445c0,59.579,14.895,80.432,35.086,80.432C331.53,306.211,346.093,285.358,346.093,225.779z"
			/>
	</g>
	<g id="rde훾a7bela" display="inline">
	</g>
	
		<rect x="-13078.679" y="-10349.357" display="inline" fill="none" stroke="#000000" stroke-miterlimit="10" width="16736" height="13952"/>
</g>
<g id="barvno_copy_2">
	<g>
		<path fill="#00FFFF" d="M189.536,164.545c-7.613-9.268-20.852-15.887-33.43-15.887c-26.48,0-47.994,19.528-49.648,77.783
			c12.246-15.557,30.451-24.824,45.676-24.824c36.41,0,61.564,21.184,61.564,65.205c0,42.037-30.119,69.178-66.197,69.178
			c-41.375,0-76.461-32.105-76.461-102.939c0-81.755,39.721-115.516,82.75-115.516c25.486,0,43.689,10.592,56.268,23.831
			L189.536,164.545z M178.282,266.822c0-24.824-12.246-37.402-33.1-37.402c-11.914,0-25.816,6.62-37.732,24.163
			c3.973,37.402,18.867,53.29,39.389,53.29C164.382,306.873,178.282,292.641,178.282,266.822z"/>
		<path fill="#00FFFF" d="M239.515,225.779c0-71.164,27.803-108.234,71.494-108.234s71.494,37.402,71.494,108.234
			C382.503,296.943,354.7,336,311.009,336S239.515,296.943,239.515,225.779z M346.093,225.779c0-59.578-14.563-78.445-35.084-78.445
			c-20.191,0-35.086,18.867-35.086,78.445c0,59.579,14.895,80.432,35.086,80.432C331.53,306.211,346.093,285.358,346.093,225.779z"
			/>
	</g>
	<g id="rde훾a7bela_copy_4">
	</g>
	<rect x="-13078.679" y="-10349.357" fill="none" stroke="#000000" stroke-miterlimit="10" width="16736" height="13952"/>
</g>
<g id="sivinsko" display="none">
	<g id="rde훾a7bela_copy_3" display="inline">
	</g>
	<path display="inline" d="M3657.821,3603.143h-16737v-13953h16737V3603.143z M-13078.679,3602.143h16736l-0.5-13951h-16735.5
		l0.5,13951H-13078.679z"/>
</g>
<g id="linijsko" display="none">
	<g display="inline">
		<path d="M189.536,164.545c-7.613-9.268-20.852-15.887-33.43-15.887c-26.48,0-47.994,19.528-49.648,77.783
			c12.246-15.557,30.451-24.824,45.676-24.824c36.41,0,61.564,21.184,61.564,65.205c0,42.037-30.119,69.178-66.197,69.178
			c-41.375,0-76.461-32.105-76.461-102.939c0-81.755,39.721-115.516,82.75-115.516c25.486,0,43.689,10.592,56.268,23.831
			L189.536,164.545z M178.282,266.822c0-24.824-12.246-37.402-33.1-37.402c-11.914,0-25.816,6.62-37.732,24.163
			c3.973,37.402,18.867,53.29,39.389,53.29C164.382,306.873,178.282,292.641,178.282,266.822z"/>
		<path d="M239.515,225.779c0-71.164,27.803-108.234,71.494-108.234s71.494,37.402,71.494,108.234
			C382.503,296.943,354.7,336,311.009,336S239.515,296.943,239.515,225.779z M346.093,225.779c0-59.578-14.563-78.445-35.084-78.445
			c-20.191,0-35.086,18.867-35.086,78.445c0,59.579,14.895,80.432,35.086,80.432C331.53,306.211,346.093,285.358,346.093,225.779z"
			/>
	</g>
	<g id="rde훾a7bela_copy" display="inline">
	</g>
</g>
<g id="pivot">
	<circle fill="none" cx="223.189" cy="327.791" r="14.134"/>
</g>
</svg>
