<?xml version="1.0" encoding="utf-8"?>
<!-- Generator: Adobe Illustrator 16.0.0, SVG Export Plug-In . SVG Version: 6.00 Build 0)  -->
<!DOCTYPE svg PUBLIC "-//W3C//DTD SVG 1.1//EN" "http://www.w3.org/Graphics/SVG/1.1/DTD/svg11.dtd">
<svg version="1.1" xmlns="http://www.w3.org/2000/svg" xmlns:xlink="http://www.w3.org/1999/xlink" x="0px" y="0px"
	 width="453.545px" height="453.543px" viewBox="0 0 453.545 453.543" enable-background="new 0 0 453.545 453.543"
	 xml:space="preserve">
<g id="kvadrat">
</g>
<g id="bg" display="none">
	<rect x="-13588.865" y="-9929.349" display="inline" width="15266.867" height="13678.951"/>
</g>
<g id="barvno" display="none">
	<g display="inline">
		<path d="M108.608,224.125v-1.324c-16.219-11.585-29.127-27.142-29.127-49.318c0-34.092,27.141-55.938,63.55-55.938
			c37.734,0,61.896,22.838,61.896,56.931c0,20.853-14.563,38.396-28.135,48.325v1.324c19.528,10.922,36.41,26.479,36.41,54.613
			c0,32.438-28.466,57.262-71.165,57.262c-41.042,0-71.493-23.831-71.493-57.924C70.544,251.928,88.748,234.717,108.608,224.125z
			 M142.699,308.859c20.193,0,34.754-11.916,34.754-31.445c0-22.838-22.175-31.113-50.64-42.697
			c-13.24,9.598-22.839,23.169-22.839,39.388C103.975,294.957,121.186,308.859,142.699,308.859z M173.482,176.793
			c0-18.536-11.585-32.107-31.113-32.107c-16.219,0-28.796,10.592-28.796,28.797c0,21.184,18.867,30.451,42.367,39.719
			C167.194,201.947,173.482,190.032,173.482,176.793z"/>
		<path d="M240.01,225.779c0-71.164,27.804-108.234,71.494-108.234c43.691,0,71.496,37.402,71.496,108.234
			C383,296.943,355.195,336,311.504,336C267.813,336,240.01,296.943,240.01,225.779z M346.591,225.779
			c0-59.578-14.564-78.445-35.087-78.445c-20.189,0-35.084,18.867-35.084,78.445c0,59.579,14.895,80.432,35.084,80.432
			C332.026,306.211,346.591,285.358,346.591,225.779z"/>
	</g>
	<g id="rde훾a7bela" display="inline">
	</g>
	
		<rect x="-14099.15" y="-10349.357" display="inline" fill="none" stroke="#000000" stroke-miterlimit="10" width="16736" height="13952"/>
</g>
<g id="barvno_copy_2">
	<g>
		<path fill="#00FFFF" d="M108.608,224.125v-1.324c-16.219-11.585-29.127-27.142-29.127-49.318c0-34.092,27.141-55.938,63.55-55.938
			c37.734,0,61.896,22.838,61.896,56.931c0,20.853-14.563,38.396-28.135,48.325v1.324c19.528,10.922,36.41,26.479,36.41,54.613
			c0,32.438-28.466,57.262-71.165,57.262c-41.042,0-71.493-23.831-71.493-57.924C70.544,251.928,88.748,234.717,108.608,224.125z
			 M142.699,308.859c20.193,0,34.754-11.916,34.754-31.445c0-22.838-22.175-31.113-50.64-42.697
			c-13.24,9.598-22.839,23.169-22.839,39.388C103.975,294.957,121.186,308.859,142.699,308.859z M173.482,176.793
			c0-18.536-11.585-32.107-31.113-32.107c-16.219,0-28.796,10.592-28.796,28.797c0,21.184,18.867,30.451,42.367,39.719
			C167.194,201.947,173.482,190.032,173.482,176.793z"/>
		<path fill="#00FFFF" d="M240.01,225.779c0-71.164,27.804-108.234,71.494-108.234c43.691,0,71.496,37.402,71.496,108.234
			C383,296.943,355.195,336,311.504,336C267.813,336,240.01,296.943,240.01,225.779z M346.591,225.779
			c0-59.578-14.564-78.445-35.087-78.445c-20.189,0-35.084,18.867-35.084,78.445c0,59.579,14.895,80.432,35.084,80.432
			C332.026,306.211,346.591,285.358,346.591,225.779z"/>
	</g>
	<g id="rde훾a7bela_copy_4">
	</g>
	<rect x="-14099.15" y="-10349.357" fill="none" stroke="#000000" stroke-miterlimit="10" width="16736" height="13952"/>
</g>
<g id="sivinsko" display="none">
	<g id="rde훾a7bela_copy_3" display="inline">
	</g>
	<path display="inline" d="M2637.35,3603.143h-16737v-13953h16737V3603.143z M-14099.15,3602.143h16736l-0.5-13951h-16735.5
		l0.5,13951H-14099.15z"/>
</g>
<g id="linijsko" display="none">
	<g display="inline">
		<path d="M108.608,224.125v-1.324c-16.219-11.585-29.127-27.142-29.127-49.318c0-34.092,27.141-55.938,63.55-55.938
			c37.734,0,61.896,22.838,61.896,56.931c0,20.853-14.563,38.396-28.135,48.325v1.324c19.528,10.922,36.41,26.479,36.41,54.613
			c0,32.438-28.466,57.262-71.165,57.262c-41.042,0-71.493-23.831-71.493-57.924C70.544,251.928,88.748,234.717,108.608,224.125z
			 M142.699,308.859c20.193,0,34.754-11.916,34.754-31.445c0-22.838-22.175-31.113-50.64-42.697
			c-13.24,9.598-22.839,23.169-22.839,39.388C103.975,294.957,121.186,308.859,142.699,308.859z M173.482,176.793
			c0-18.536-11.585-32.107-31.113-32.107c-16.219,0-28.796,10.592-28.796,28.797c0,21.184,18.867,30.451,42.367,39.719
			C167.194,201.947,173.482,190.032,173.482,176.793z"/>
		<path d="M240.01,225.779c0-71.164,27.804-108.234,71.494-108.234c43.691,0,71.496,37.402,71.496,108.234
			C383,296.943,355.195,336,311.504,336C267.813,336,240.01,296.943,240.01,225.779z M346.591,225.779
			c0-59.578-14.564-78.445-35.087-78.445c-20.189,0-35.084,18.867-35.084,78.445c0,59.579,14.895,80.432,35.084,80.432
			C332.026,306.211,346.591,285.358,346.591,225.779z"/>
	</g>
	<g id="rde훾a7bela_copy" display="inline">
	</g>
</g>
<g id="pivot">
	<circle fill="none" cx="221.538" cy="327.791" r="14.133"/>
</g>
</svg>
