<?xml version="1.0" encoding="utf-8"?>
<!-- Generator: Adobe Illustrator 16.0.0, SVG Export Plug-In . SVG Version: 6.00 Build 0)  -->
<!DOCTYPE svg PUBLIC "-//W3C//DTD SVG 1.1//EN" "http://www.w3.org/Graphics/SVG/1.1/DTD/svg11.dtd">
<svg version="1.1" xmlns="http://www.w3.org/2000/svg" xmlns:xlink="http://www.w3.org/1999/xlink" x="0px" y="0px"
	 width="453.543px" height="453.543px" viewBox="0 0 453.543 453.543" enable-background="new 0 0 453.543 453.543"
	 xml:space="preserve">
<g id="kvadrat">
</g>
<g id="bg" display="none">
	<rect x="-4404.613" y="-4316.749" display="inline" width="15266.867" height="13678.951"/>
</g>
<g id="barvno" display="none">
	<g id="rdeča7bela" display="inline">
	</g>
	<g display="inline">
		
			<path fill="#FFFFFF" stroke="#000000" stroke-width="8" stroke-linecap="round" stroke-linejoin="round" stroke-miterlimit="10" d="
			M315.005,125.646l-42.486-37.071l-19.525,22.378l26.35,22.991c0,0,5.021,25.335-35.715,55.064L100.262,352.712l9.438,8.234
			l9.438,8.234l142.765-164.226c23.934-44.39,49.716-42.849,49.716-42.849l26.35,22.991l19.526-22.377L315.005,125.646z"/>
		
			<path fill="#0073B3" stroke="#000000" stroke-width="8" stroke-linecap="round" stroke-linejoin="round" stroke-miterlimit="10" d="
			M311.618,162.103c0,0-25.782-1.541-49.716,42.85L119.137,369.18l-9.438-8.234l-9.438-8.234l143.366-163.703
			c40.737-29.729,35.716-55.064,35.716-55.064L311.618,162.103z"/>
		
			<line fill="none" stroke="#000000" stroke-width="8" stroke-linecap="round" stroke-linejoin="round" stroke-miterlimit="10" x1="263.553" y1="98.853" x2="348.526" y2="172.994"/>
	</g>
	
		<rect x="-4914.898" y="-4736.758" display="inline" fill="none" stroke="#000000" stroke-miterlimit="10" width="16736" height="13952"/>
</g>
<g id="sivinsko">
	<g id="rdeča7bela_copy_3">
	</g>
	<g>
		<g>
			<path fill="#FFFFFF" d="M315.005,125.646l-42.486-37.071l-19.525,22.378l26.35,22.991c0,0,5.021,25.335-35.715,55.064
				L100.262,352.712l9.438,8.234l9.438,8.234l142.765-164.226c23.934-44.39,49.716-42.849,49.716-42.849l26.35,22.991l19.526-22.377
				L315.005,125.646z"/>
			<path d="M119.137,373.18c-0.964,0-1.899-0.348-2.63-0.986l-18.875-16.468c-0.8-0.698-1.29-1.687-1.361-2.746
				c-0.071-1.06,0.282-2.104,0.982-2.903l143.366-163.704c0.194-0.222,0.413-0.422,0.651-0.596
				c32.855-23.977,34.418-44.711,34.24-49.869l-25.146-21.94c-0.799-0.698-1.289-1.684-1.361-2.743
				c-0.072-1.058,0.279-2.102,0.977-2.901l19.525-22.378c0.698-0.799,1.684-1.289,2.743-1.361c1.054-0.076,2.102,0.279,2.901,0.977
				l84.975,74.143c0.799,0.698,1.289,1.684,1.361,2.743c0.072,1.058-0.279,2.102-0.977,2.901l-19.526,22.377
				c-1.453,1.664-3.979,1.836-5.644,0.384l-25.164-21.956c-5.295,0.463-25.321,4.659-44.751,40.698
				c-0.14,0.26-0.309,0.503-0.502,0.726L122.156,371.804c-0.697,0.802-1.684,1.293-2.743,1.367
				C119.321,373.177,119.229,373.18,119.137,373.18z M105.912,352.333l12.836,11.199l139.846-160.869
				c23.012-42.412,47.932-44.564,52.706-44.564c0.369,0,0.559,0.014,0.559,0.014c0.866,0.063,1.736,0.408,2.39,0.979l23.335,20.361
				l14.266-16.35l-78.946-68.883l-14.266,16.35l23.336,20.361c0.667,0.582,1.122,1.369,1.294,2.236
				c0.225,1.134,5.001,28.042-36.92,58.809L105.912,352.333z"/>
		</g>
		<g>
			<path fill="#585858" d="M311.618,162.103c0,0-25.782-1.541-49.716,42.85L119.137,369.18l-9.438-8.234l-9.438-8.234
				l143.366-163.703c40.737-29.729,35.716-55.064,35.716-55.064L311.618,162.103z"/>
			<path d="M119.137,373.18c-0.964,0-1.899-0.348-2.63-0.986l-18.875-16.468c-0.8-0.698-1.29-1.687-1.361-2.746
				c-0.071-1.06,0.282-2.104,0.982-2.903l143.366-163.703c0.194-0.222,0.413-0.422,0.651-0.596
				c37.789-27.579,34.183-50.865,34.142-51.097c-0.294-1.67,0.493-3.365,1.97-4.198c1.476-0.834,3.313-0.667,4.592,0.448
				l32.038,27.953c0.986,0.729,1.625,1.899,1.625,3.219c0,2.209-1.791,4-4,4c-0.006,0-0.012,0-0.019,0
				c-0.08,0-0.16-0.002-0.24-0.007l-0.08,0.001c-2.446,0-24.52,1.144-45.877,40.754c-0.14,0.26-0.309,0.503-0.502,0.726
				L122.156,371.804c-0.697,0.801-1.684,1.293-2.744,1.366C119.321,373.177,119.229,373.18,119.137,373.18z M105.912,352.333
				l12.836,11.199l139.845-160.87c16.351-30.134,33.663-39.943,44.029-43.099l-19.574-17.078
				c-1.743,10.657-9.105,29.237-36.701,49.491L105.912,352.333z"/>
		</g>
		<path d="M348.524,176.994c-0.933,0-1.87-0.324-2.628-0.986l-84.973-74.142c-1.665-1.453-1.836-3.979-0.384-5.644
			c1.453-1.665,3.979-1.837,5.644-0.384l84.973,74.142c1.665,1.453,1.836,3.979,0.384,5.644
			C350.749,176.53,349.64,176.994,348.524,176.994z"/>
	</g>
	<path d="M11821.602,9215.742h-16737v-13953h16737V9215.742z M-4914.898,9214.742h16736l-0.5-13951h-16735.5l0.5,13951H-4914.898z"
		/>
</g>
<g id="linijsko" display="none">
	<g id="rdeča7bela_copy" display="inline">
	</g>
	<g display="inline">
		<path fill="none" stroke="#000000" stroke-width="8" stroke-linecap="round" stroke-linejoin="round" stroke-miterlimit="10" d="
			M315.005,125.646l-42.486-37.071l-19.525,22.378l26.35,22.991c0,0,5.021,25.335-35.715,55.064L100.262,352.712l9.438,8.234
			l9.438,8.234l142.765-164.226c23.934-44.39,49.716-42.849,49.716-42.849l26.35,22.991l19.526-22.377L315.005,125.646z"/>
		<path fill="none" stroke="#000000" stroke-width="8" stroke-linecap="round" stroke-linejoin="round" stroke-miterlimit="10" d="
			M311.618,162.103c0,0-25.782-1.541-49.716,42.85L119.137,369.18l-9.438-8.234l-9.438-8.234l143.366-163.703
			c40.737-29.729,35.716-55.064,35.716-55.064L311.618,162.103z"/>
		
			<line fill="none" stroke="#000000" stroke-width="8" stroke-linecap="round" stroke-linejoin="round" stroke-miterlimit="10" x1="263.553" y1="98.853" x2="348.526" y2="172.994"/>
	</g>
</g>
<g id="pivot">
	<circle fill="none" cx="187.703" cy="365.573" r="14.133"/>
</g>
</svg>
