<?xml version="1.0" encoding="utf-8"?>
<!-- Generator: Adobe Illustrator 16.0.0, SVG Export Plug-In . SVG Version: 6.00 Build 0)  -->
<!DOCTYPE svg PUBLIC "-//W3C//DTD SVG 1.1//EN" "http://www.w3.org/Graphics/SVG/1.1/DTD/svg11.dtd">
<svg version="1.1" xmlns="http://www.w3.org/2000/svg" xmlns:xlink="http://www.w3.org/1999/xlink" x="0px" y="0px"
	 width="453.543px" height="453.543px" viewBox="0 0 453.543 453.543" enable-background="new 0 0 453.543 453.543"
	 xml:space="preserve">
<g id="kvadrat">
</g>
<g id="bg" display="none">
	<rect x="-3894.376" y="-4316.749" display="inline" width="15266.867" height="13678.951"/>
</g>
<g id="barvno" display="none">
	<g id="rdeča7bela" display="inline">
	</g>
	<g display="inline">
		<g>
			
				<path fill="#7E4E24" stroke="#000000" stroke-width="8" stroke-linecap="round" stroke-linejoin="round" stroke-miterlimit="10" d="
				M298.421,172.68c0-57.282-32.079-103.718-71.649-103.718c-39.571,0-71.649,46.436-71.649,103.718
				c0,47.313,21.886,87.223,51.8,99.682c-3.517,47.93-7.346,90.752-7.346,98.744c0,17.12,54.39,18.793,54.39,0
				c0-12.789-6.102-62.439-10.003-97.721C275.23,262.237,298.421,221.382,298.421,172.68z M226.772,251
				c-29.881,0-54.104-35.065-54.104-78.32c0-43.256,24.223-78.321,54.104-78.321c29.881,0,54.105,35.065,54.105,78.321
				C280.877,215.935,256.653,251,226.772,251z"/>
			
				<ellipse opacity="0.3" fill="#FFFFFF" stroke="#000000" stroke-width="8" stroke-linecap="round" stroke-linejoin="round" stroke-miterlimit="10" cx="226.772" cy="172.68" rx="54.105" ry="78.32"/>
		</g>
		<g>
			<path fill="none" stroke="#000000" stroke-width="8" stroke-linecap="round" stroke-linejoin="round" stroke-miterlimit="10" d="
				M200.354,146.771c0,0,11.739-18.683,12.018-18.067"/>
			<path fill="none" stroke="#000000" stroke-width="8" stroke-linecap="round" stroke-linejoin="round" stroke-miterlimit="10" d="
				M214.506,144.935c0,0,5.022-7.77,5.142-7.513"/>
		</g>
	</g>
	
		<rect x="-4404.662" y="-4736.758" display="inline" fill="none" stroke="#000000" stroke-miterlimit="10" width="16736" height="13952"/>
</g>
<g id="sivinsko">
	<g id="rdeča7bela_copy_3">
	</g>
	<g>
		<g>
			<g>
				<path fill="#585858" d="M298.421,172.68c0-57.282-32.079-103.718-71.649-103.718c-39.571,0-71.649,46.436-71.649,103.718
					c0,47.313,21.886,87.223,51.8,99.682c-3.517,47.93-7.346,90.752-7.346,98.744c0,17.12,54.39,18.793,54.39,0
					c0-12.789-6.102-62.439-10.003-97.721C275.23,262.237,298.421,221.382,298.421,172.68z M226.772,251
					c-29.881,0-54.104-35.065-54.104-78.32c0-43.256,24.223-78.321,54.104-78.321c29.881,0,54.105,35.065,54.105,78.321
					C280.877,215.935,256.653,251,226.772,251z"/>
				<path d="M227.723,388.581c-0.001,0-0.001,0-0.003,0c-15.481-0.001-32.144-5.469-32.144-17.475
					c0-4.928,1.352-21.954,3.224-45.519c1.211-15.255,2.577-32.446,3.927-50.718c-14.42-6.861-27.289-20.036-36.46-37.411
					c-9.908-18.77-15.145-41.169-15.145-64.778c0-28.508,7.705-55.362,21.694-75.613c14.302-20.703,33.463-32.104,53.955-32.104
					c20.491,0,39.653,11.402,53.955,32.104c13.99,20.252,21.695,47.105,21.695,75.613c0,48.05-22.111,89.923-54.143,103.322
					c0.803,7.198,1.684,14.91,2.576,22.729c3.497,30.618,7.112,62.278,7.112,72.375c0,5.847-3.727,10.756-10.494,13.823
					C242.276,387.284,235.262,388.581,227.723,388.581z M226.772,72.962c-37.302,0-67.649,44.733-67.649,99.718
					c0,44.418,20.289,83.89,49.338,95.99c1.59,0.662,2.577,2.268,2.451,3.985c-1.419,19.34-2.863,37.523-4.137,53.566
					c-1.787,22.502-3.198,40.275-3.198,44.886c0,5.135,11.057,9.474,24.144,9.475c0,0,0.002,0,0.002,0
					c6.425,0,12.266-1.043,16.448-2.938c3.846-1.743,5.796-3.942,5.796-6.536c0-9.642-3.751-42.488-7.061-71.468
					c-1.021-8.947-2.027-17.755-2.918-25.813c-0.204-1.843,0.886-3.584,2.632-4.207c14.355-5.119,27.421-17.345,36.791-34.426
					c9.82-17.903,15.011-39.519,15.011-62.512C294.421,117.696,264.074,72.962,226.772,72.962z M226.772,255
					c-32.039,0-58.104-36.929-58.104-82.32c0-45.392,26.065-82.321,58.104-82.321c32.04,0,58.105,36.929,58.105,82.321
					C284.877,218.072,258.812,255,226.772,255z M226.772,98.359c-27.628,0-50.104,33.34-50.104,74.321S199.144,247,226.772,247
					c27.628,0,50.105-33.34,50.105-74.32S254.4,98.359,226.772,98.359z"/>
			</g>
			<g opacity="0.3">
				<ellipse fill="#FFFFFF" cx="226.772" cy="172.68" rx="54.105" ry="78.32"/>
				<path d="M226.772,255c-32.039,0-58.104-36.929-58.104-82.32s26.065-82.321,58.104-82.321c32.04,0,58.105,36.929,58.105,82.321
					S258.812,255,226.772,255z M226.772,98.359c-27.628,0-50.104,33.34-50.104,74.321S199.144,247,226.772,247
					c27.628,0,50.105-33.34,50.105-74.32S254.4,98.359,226.772,98.359z"/>
			</g>
		</g>
		<g>
			<path d="M200.351,150.771c-0.727,0-1.463-0.198-2.124-0.614c-1.871-1.175-2.434-3.644-1.259-5.515
				c0.028-0.046,2.894-4.604,5.796-9.099c1.715-2.655,3.111-4.774,4.15-6.299c2.139-3.14,3.22-4.708,5.708-4.547
				c1.469,0.1,2.785,1.013,3.393,2.354c0.771,1.698,0.256,3.651-1.132,4.768c-1.43,1.866-6.63,9.899-11.142,17.079
				C202.981,150.108,201.681,150.771,200.351,150.771z"/>
			<path d="M214.502,148.936c-0.744,0-1.496-0.207-2.167-0.641c-1.855-1.199-2.387-3.675-1.188-5.531c0,0,1.232-1.905,2.497-3.809
				c3.061-4.607,3.785-5.703,6.27-5.53c1.452,0.1,2.744,0.986,3.359,2.305c0.75,1.606,0.34,3.457-0.885,4.607
				c-0.711,0.959-2.809,4.119-4.522,6.769C217.1,148.291,215.814,148.936,214.502,148.936z"/>
		</g>
	</g>
	<path d="M12331.838,9215.742h-16737v-13953h16737V9215.742z M-4404.662,9214.742h16736l-0.5-13951h-16735.5l0.5,13951H-4404.662z"
		/>
</g>
<g id="linijsko" display="none">
	<g id="rdeča7bela_copy" display="inline">
	</g>
	<g display="inline">
		<g>
			<path fill="none" stroke="#000000" stroke-width="8" stroke-linecap="round" stroke-linejoin="round" stroke-miterlimit="10" d="
				M298.421,172.68c0-57.282-32.079-103.718-71.649-103.718c-39.571,0-71.649,46.436-71.649,103.718
				c0,47.313,21.886,87.223,51.8,99.682c-3.517,47.93-7.346,90.752-7.346,98.744c0,17.12,54.39,18.793,54.39,0
				c0-12.789-6.102-62.439-10.003-97.721C275.23,262.237,298.421,221.382,298.421,172.68z M226.772,251
				c-29.881,0-54.104-35.065-54.104-78.32c0-43.256,24.223-78.321,54.104-78.321c29.881,0,54.105,35.065,54.105,78.321
				C280.877,215.935,256.653,251,226.772,251z"/>
		</g>
		<g>
			<path fill="none" stroke="#000000" stroke-width="8" stroke-linecap="round" stroke-linejoin="round" stroke-miterlimit="10" d="
				M200.354,146.771c0,0,11.739-18.683,12.018-18.067"/>
			<path fill="none" stroke="#000000" stroke-width="8" stroke-linecap="round" stroke-linejoin="round" stroke-miterlimit="10" d="
				M214.506,144.935c0,0,5.022-7.77,5.142-7.513"/>
		</g>
	</g>
</g>
<g id="pivot">
	<circle fill="none" cx="226.296" cy="369.914" r="14.133"/>
</g>
</svg>
