<?xml version="1.0" encoding="utf-8"?>
<!-- Generator: Adobe Illustrator 16.0.0, SVG Export Plug-In . SVG Version: 6.00 Build 0)  -->
<!DOCTYPE svg PUBLIC "-//W3C//DTD SVG 1.1//EN" "http://www.w3.org/Graphics/SVG/1.1/DTD/svg11.dtd">
<svg version="1.1" xmlns="http://www.w3.org/2000/svg" xmlns:xlink="http://www.w3.org/1999/xlink" x="0px" y="0px"
	 width="453.543px" height="453.543px" viewBox="0 0 453.543 453.543" enable-background="new 0 0 453.543 453.543"
	 xml:space="preserve">
<g id="kvadrat">
</g>
<g id="bg" display="none">
	<rect x="-2363.667" y="-4316.749" display="inline" width="15266.867" height="13678.951"/>
</g>
<g id="barvno" display="none">
	<g display="inline">
		
			<path fill="#FFFFFF" stroke="#000000" stroke-width="8" stroke-linecap="round" stroke-linejoin="round" stroke-miterlimit="10" d="
			M107.75,377.7c0,0,0-184.759,0-245.612c0-56.721,27.356-56.721,27.356-56.721h173.176v135.756l-35.126-25.343v192.396"/>
		<g>
			<line fill="#FFFFFF" x1="124.196" y1="377.7" x2="254.323" y2="377.7"/>
			<g>
				
					<line fill="none" stroke="#000000" stroke-width="8" stroke-linecap="round" stroke-linejoin="round" x1="124.196" y1="377.7" x2="130.196" y2="377.7"/>
				
					<line fill="none" stroke="#000000" stroke-width="8" stroke-linecap="round" stroke-linejoin="round" stroke-dasharray="10.7389,21.4777" x1="151.673" y1="377.7" x2="237.584" y2="377.7"/>
				
					<line fill="none" stroke="#000000" stroke-width="8" stroke-linecap="round" stroke-linejoin="round" x1="248.323" y1="377.7" x2="254.323" y2="377.7"/>
			</g>
		</g>
		<g>
			<line fill="#FFFFFF" x1="124.196" y1="216.822" x2="254.323" y2="216.822"/>
			<g>
				
					<line fill="none" stroke="#000000" stroke-width="8" stroke-linecap="round" stroke-linejoin="round" x1="124.196" y1="216.822" x2="130.196" y2="216.822"/>
				
					<line fill="none" stroke="#000000" stroke-width="8" stroke-linecap="round" stroke-linejoin="round" stroke-dasharray="10.7389,21.4777" x1="151.673" y1="216.822" x2="237.584" y2="216.822"/>
				
					<line fill="none" stroke="#000000" stroke-width="8" stroke-linecap="round" stroke-linejoin="round" x1="248.323" y1="216.822" x2="254.323" y2="216.822"/>
			</g>
		</g>
		
			<ellipse fill="#FFFFFF" stroke="#000000" stroke-width="8" stroke-linecap="round" stroke-linejoin="round" stroke-miterlimit="10" cx="308.282" cy="156.545" rx="37.512" ry="81.178"/>
		<ellipse cx="308.282" cy="158.545" rx="11.302" ry="24.457"/>
	</g>
	<g id="rdeča7bela" display="inline">
	</g>
	
		<rect x="-2873.953" y="-4736.758" display="inline" fill="none" stroke="#000000" stroke-miterlimit="10" width="16736" height="13952"/>
</g>
<g id="sivinsko">
	<g>
		<g>
			<path fill="#FFFFFF" d="M107.75,377.7c0,0,0-184.759,0-245.612c0-56.721,27.356-56.721,27.356-56.721h173.176v135.756
				l-35.126-25.343v192.396"/>
			<path d="M273.156,382.177c-2.209,0-4-1.791-4-4V185.78c0-1.502,0.841-2.877,2.178-3.561c1.336-0.685,2.944-0.563,4.162,0.317
				l28.786,20.768V79.367H135.106c-0.175,0.006-5.67,0.236-11.287,6.387c-5.506,6.03-12.069,18.963-12.069,46.334V377.7
				c0,2.209-1.791,4-4,4s-4-1.791-4-4V132.088c0-60.03,30.076-60.721,31.356-60.721h173.176c2.209,0,4,1.791,4,4v135.756
				c0,1.502-0.841,2.877-2.178,3.561c-1.337,0.684-2.944,0.562-4.162-0.317l-28.786-20.768v184.578
				C277.156,380.386,275.365,382.177,273.156,382.177z"/>
		</g>
		<g>
			<line fill="#FFFFFF" x1="124.196" y1="377.7" x2="254.323" y2="377.7"/>
			<g>
				<path d="M130.196,381.7h-6c-2.209,0-4-1.791-4-4s1.791-4,4-4h6c2.209,0,4,1.791,4,4S132.405,381.7,130.196,381.7z"/>
				<path d="M226.845,381.7h-10.739c-2.209,0-4-1.791-4-4s1.791-4,4-4h10.739c2.209,0,4,1.791,4,4S229.055,381.7,226.845,381.7z
					 M194.628,381.7H183.89c-2.209,0-4-1.791-4-4s1.791-4,4-4h10.738c2.209,0,4,1.791,4,4S196.838,381.7,194.628,381.7z
					 M162.412,381.7h-10.739c-2.209,0-4-1.791-4-4s1.791-4,4-4h10.739c2.209,0,4,1.791,4,4S164.622,381.7,162.412,381.7z"/>
				<path d="M254.323,381.7h-6c-2.209,0-4-1.791-4-4s1.791-4,4-4h6c2.209,0,4,1.791,4,4S256.533,381.7,254.323,381.7z"/>
			</g>
		</g>
		<g>
			<line fill="#FFFFFF" x1="124.196" y1="216.822" x2="254.323" y2="216.822"/>
			<g>
				<path d="M130.196,220.822h-6c-2.209,0-4-1.791-4-4s1.791-4,4-4h6c2.209,0,4,1.791,4,4S132.405,220.822,130.196,220.822z"/>
				<path d="M226.845,220.822h-10.739c-2.209,0-4-1.791-4-4s1.791-4,4-4h10.739c2.209,0,4,1.791,4,4
					S229.055,220.822,226.845,220.822z M194.628,220.822H183.89c-2.209,0-4-1.791-4-4s1.791-4,4-4h10.738c2.209,0,4,1.791,4,4
					S196.838,220.822,194.628,220.822z M162.412,220.822h-10.739c-2.209,0-4-1.791-4-4s1.791-4,4-4h10.739c2.209,0,4,1.791,4,4
					S164.622,220.822,162.412,220.822z"/>
				<path d="M254.323,220.822h-6c-2.209,0-4-1.791-4-4s1.791-4,4-4h6c2.209,0,4,1.791,4,4S256.533,220.822,254.323,220.822z"/>
			</g>
		</g>
		<g>
			<ellipse fill="#FFFFFF" cx="308.282" cy="156.545" rx="37.512" ry="81.178"/>
			<path d="M308.282,241.723c-23.278,0-41.512-37.415-41.512-85.178s18.234-85.178,41.512-85.178s41.512,37.415,41.512,85.178
				S331.56,241.723,308.282,241.723z M308.282,79.367c-18.166,0-33.512,35.343-33.512,77.178s15.347,77.178,33.512,77.178
				s33.512-35.343,33.512-77.178S326.448,79.367,308.282,79.367z"/>
		</g>
		<ellipse cx="308.282" cy="158.545" rx="11.302" ry="24.457"/>
	</g>
	<g id="rdeča7bela_copy_3">
	</g>
	<path d="M13862.547,9215.742h-16737v-13953h16737V9215.742z M-2873.953,9214.742h16736l-0.5-13951h-16735.5l0.5,13951H-2873.953z"
		/>
</g>
<g id="linijsko" display="none">
	<g display="inline">
		<g>
			<g>
				
					<line fill="none" stroke="#000000" stroke-width="8" stroke-linecap="round" stroke-linejoin="round" x1="124.196" y1="377.7" x2="130.196" y2="377.7"/>
				
					<line fill="none" stroke="#000000" stroke-width="8" stroke-linecap="round" stroke-linejoin="round" stroke-dasharray="10.7389,21.4777" x1="151.673" y1="377.7" x2="237.584" y2="377.7"/>
				
					<line fill="none" stroke="#000000" stroke-width="8" stroke-linecap="round" stroke-linejoin="round" x1="248.323" y1="377.7" x2="254.323" y2="377.7"/>
			</g>
		</g>
		<g>
			<g>
				
					<line fill="none" stroke="#000000" stroke-width="8" stroke-linecap="round" stroke-linejoin="round" x1="124.196" y1="216.822" x2="130.196" y2="216.822"/>
				
					<line fill="none" stroke="#000000" stroke-width="8" stroke-linecap="round" stroke-linejoin="round" stroke-dasharray="10.7389,21.4777" x1="151.673" y1="216.822" x2="237.584" y2="216.822"/>
				
					<line fill="none" stroke="#000000" stroke-width="8" stroke-linecap="round" stroke-linejoin="round" x1="248.323" y1="216.822" x2="254.323" y2="216.822"/>
			</g>
		</g>
		<g>
			
				<polyline fill="none" stroke="#000000" stroke-width="8" stroke-linecap="round" stroke-linejoin="round" stroke-miterlimit="10" points="
				273.308,185.89 273.156,185.78 273.156,378.177 			"/>
			<path fill="none" stroke="#000000" stroke-width="8" stroke-linecap="round" stroke-linejoin="round" stroke-miterlimit="10" d="
				M308.282,75.367H135.106c0,0-27.356,0-27.356,56.721c0,60.854,0,245.612,0,245.612"/>
			<path fill="none" stroke="#000000" stroke-width="8" stroke-linecap="round" stroke-linejoin="round" stroke-miterlimit="10" d="
				M308.282,75.367c20.717,0,37.512,36.344,37.512,81.178c0,44.833-16.795,81.178-37.512,81.178
				c-15.934,0-29.538-21.509-34.975-51.833"/>
			<path fill="none" stroke="#000000" stroke-width="8" stroke-linecap="round" stroke-linejoin="round" stroke-miterlimit="10" d="
				M308.282,75.367c-20.717,0-37.512,36.344-37.512,81.178c0,10.352,0.905,20.241,2.538,29.345"/>
		</g>
		<ellipse cx="308.282" cy="158.545" rx="11.302" ry="24.457"/>
	</g>
	<g id="rdeča7bela_copy" display="inline">
	</g>
</g>
<g id="pivot">
	<circle fill="none" cx="197.165" cy="374.253" r="14.133"/>
</g>
</svg>
