<?xml version="1.0" encoding="utf-8"?>
<!-- Generator: Adobe Illustrator 16.0.0, SVG Export Plug-In . SVG Version: 6.00 Build 0)  -->
<!DOCTYPE svg PUBLIC "-//W3C//DTD SVG 1.1//EN" "http://www.w3.org/Graphics/SVG/1.1/DTD/svg11.dtd">
<svg version="1.1" xmlns="http://www.w3.org/2000/svg" xmlns:xlink="http://www.w3.org/1999/xlink" x="0px" y="0px"
	 width="453.543px" height="453.543px" viewBox="0 0 453.543 453.543" enable-background="new 0 0 453.543 453.543"
	 xml:space="preserve">
<g id="kvadrat">
</g>
<g id="bg" display="none">
	<rect x="-1343.195" y="-4316.749" display="inline" width="15266.867" height="13678.951"/>
</g>
<g id="barvno" display="none">
	<g display="inline">
		
			<path fill="#FFFFFF" stroke="#000000" stroke-width="8" stroke-linecap="round" stroke-linejoin="round" stroke-miterlimit="10" d="
			M353.878,380.56c-0.015,0-0.029,0-0.044,0c-57.843-0.349-70.858-7.924-71.993-8.246c-3.799-1.078-6.003-5.032-4.924-8.831
			c1.078-3.795,5.027-6.002,8.821-4.928l0,0c0.262,0.074,12.596,7.37,68.182,7.705c3.949,0.023,7.13,3.244,7.107,7.192
			C361.003,377.386,357.807,380.56,353.878,380.56z"/>
		
			<polygon fill="#28348A" stroke="#000000" stroke-width="8" stroke-linecap="round" stroke-linejoin="round" stroke-miterlimit="10" points="
			259.071,344.113 280.629,331.648 293.504,354.092 271.946,366.558 		"/>
		
			<polygon fill="#0073B3" stroke="#000000" stroke-width="8" stroke-linecap="round" stroke-linejoin="round" stroke-miterlimit="10" points="
			286.11,300.401 280.406,331.21 259.523,343.287 230.006,332.584 		"/>
		
			<polygon fill="#57B2E5" stroke="#000000" stroke-width="8" stroke-linecap="round" stroke-linejoin="round" stroke-miterlimit="10" points="
			286.11,300.401 176.5,94.141 169.657,72.984 92.516,115.647 107.178,133.635 230.006,332.584 		"/>
		
			<line fill="#FFFFFF" stroke="#000000" stroke-width="8" stroke-linecap="round" stroke-linejoin="round" stroke-miterlimit="10" x1="175.179" y1="91.654" x2="105.897" y2="131.396"/>
		
			<line fill="#FFFFFF" stroke="#000000" stroke-width="8" stroke-linecap="round" stroke-linejoin="round" stroke-miterlimit="10" x1="109.252" y1="106.404" x2="119.421" y2="123.532"/>
		
			<line fill="#FFFFFF" stroke="#000000" stroke-width="8" stroke-linecap="round" stroke-linejoin="round" stroke-miterlimit="10" x1="122.851" y1="99.374" x2="132.773" y2="115.474"/>
		
			<line fill="#FFFFFF" stroke="#000000" stroke-width="8" stroke-linecap="round" stroke-linejoin="round" stroke-miterlimit="10" x1="137.055" y1="91.387" x2="147.011" y2="107.862"/>
		
			<line fill="#FFFFFF" stroke="#000000" stroke-width="8" stroke-linecap="round" stroke-linejoin="round" stroke-miterlimit="10" x1="150.928" y1="84.03" x2="159.96" y2="99.374"/>
	</g>
	<g id="rdeča7bela" display="inline">
	</g>
	
		<rect x="-1853.48" y="-4736.758" display="inline" fill="none" stroke="#000000" stroke-miterlimit="10" width="16736" height="13952"/>
</g>
<g id="sivinsko">
	<g>
		<g>
			<path fill="#FFFFFF" d="M353.878,380.56c-0.015,0-0.029,0-0.044,0c-57.843-0.349-70.858-7.924-71.993-8.246
				c-3.799-1.078-6.003-5.032-4.924-8.831c1.078-3.795,5.027-6.002,8.821-4.928l0,0c0.262,0.074,12.596,7.37,68.182,7.705
				c3.949,0.023,7.13,3.244,7.107,7.192C361.003,377.386,357.807,380.56,353.878,380.56z"/>
			<path d="M353.878,384.56h-0.044c-35.022-0.211-60.972-3.186-73.092-8.377l-0.17-0.073c-2.786-0.839-5.095-2.695-6.515-5.243
				c-1.45-2.601-1.801-5.612-0.987-8.477c1.356-4.773,5.765-8.106,10.722-8.106c1.024,0,2.046,0.142,3.037,0.423
				c0.363,0.103,0.626,0.232,0.782,0.309c1.439,0.709,15.527,6.938,66.334,7.245c2.978,0.018,5.771,1.194,7.864,3.313
				c2.093,2.119,3.236,4.925,3.219,7.903C364.99,379.588,359.989,384.56,353.878,384.56z M283.791,362.283
				c-1.398,0-2.643,0.942-3.026,2.292c-0.23,0.81-0.131,1.66,0.279,2.395c0.409,0.735,1.081,1.266,1.89,1.495
				c0.172,0.049,0.487,0.161,0.959,0.363c5.204,2.229,22.44,7.445,69.966,7.731l0.02,4v-4c1.726,0,3.138-1.405,3.149-3.132
				c0.005-0.841-0.318-1.634-0.909-2.232c-0.592-0.598-1.38-0.931-2.222-0.936c-48.911-0.295-65.29-5.948-69.511-7.919
				C284.188,362.302,283.989,362.283,283.791,362.283z"/>
		</g>
		<g>
			<polygon fill="#3A3A3A" points="259.071,344.113 280.629,331.648 293.504,354.092 271.946,366.558 			"/>
			<path d="M271.945,370.558c-0.348,0-0.697-0.045-1.039-0.137c-1.026-0.276-1.901-0.95-2.43-1.873l-12.875-22.444
				c-1.096-1.912-0.44-4.35,1.467-5.453l21.559-12.465c0.92-0.532,2.015-0.675,3.041-0.4c1.027,0.276,1.901,0.95,2.431,1.873
				l12.875,22.443c1.097,1.911,0.441,4.35-1.467,5.453l-21.559,12.466C273.334,370.375,272.643,370.558,271.945,370.558z
				 M264.524,345.581l8.894,15.505l14.633-8.461l-8.895-15.504L264.524,345.581z"/>
		</g>
		<g>
			<polygon fill="#585858" points="286.11,300.401 280.406,331.21 259.523,343.287 230.006,332.584 			"/>
			<path d="M259.522,347.287c-0.459,0-0.921-0.079-1.363-0.24l-29.517-10.703c-1.464-0.531-2.487-1.863-2.621-3.415
				c-0.135-1.551,0.644-3.04,1.995-3.815l56.104-32.183c1.351-0.775,3.031-0.695,4.303,0.206c1.271,0.901,1.904,2.459,1.62,3.992
				l-5.704,30.809c-0.213,1.15-0.918,2.149-1.931,2.734l-20.883,12.077C260.91,347.106,260.218,347.287,259.522,347.287z
				 M239.477,331.763l19.657,7.128l17.674-10.221l3.795-20.499L239.477,331.763z"/>
		</g>
		<g>
			<polygon fill="#9C9C9C" points="286.11,300.401 176.5,94.141 169.657,72.984 92.516,115.647 107.178,133.635 230.006,332.584 			
				"/>
			<path d="M230.01,336.584c-1.344,0-2.652-0.677-3.407-1.899l-122.69-198.727l-14.497-17.784c-0.749-0.919-1.052-2.123-0.827-3.286
				c0.226-1.164,0.955-2.168,1.992-2.742l77.141-42.663c1.046-0.578,2.295-0.658,3.406-0.22c1.111,0.439,1.968,1.353,2.336,2.489
				l6.734,20.821l109.445,205.95c1.013,1.906,0.331,4.272-1.542,5.347l-56.104,32.183
				C231.37,336.413,230.686,336.584,230.01,336.584z M98.641,116.831l11.638,14.276c0.11,0.135,0.211,0.277,0.303,0.426
				l120.794,195.654l49.385-28.329L172.967,96.018c-0.11-0.207-0.202-0.423-0.274-0.646l-5.349-16.538L98.641,116.831z"/>
		</g>
		<g>
			<line fill="#FFFFFF" x1="175.179" y1="91.654" x2="105.897" y2="131.396"/>
			<path d="M105.9,135.396c-1.386,0-2.734-0.721-3.473-2.01c-1.099-1.916-0.437-4.361,1.479-5.46l69.282-39.741
				c1.917-1.099,4.361-0.437,5.46,1.479c1.099,1.916,0.437,4.361-1.479,5.46l-69.282,39.741
				C107.26,135.225,106.575,135.396,105.9,135.396z"/>
		</g>
		<g>
			<line fill="#FFFFFF" x1="109.252" y1="106.404" x2="119.421" y2="123.532"/>
			<path d="M119.425,127.533c-1.366,0-2.696-0.699-3.443-1.958l-10.169-17.128c-1.128-1.899-0.502-4.354,1.397-5.481
				c1.9-1.129,4.354-0.502,5.481,1.397l10.169,17.128c1.128,1.899,0.502,4.354-1.397,5.481
				C120.823,127.352,120.119,127.533,119.425,127.533z"/>
		</g>
		<g>
			<line fill="#FFFFFF" x1="122.851" y1="99.374" x2="132.773" y2="115.474"/>
			<path d="M132.777,119.474c-1.342,0-2.653-0.675-3.409-1.902l-9.922-16.1c-1.159-1.881-0.574-4.345,1.307-5.504
				c1.881-1.16,4.345-0.574,5.504,1.307l9.922,16.1c1.159,1.881,0.574,4.345-1.307,5.504
				C134.218,119.282,133.492,119.474,132.777,119.474z"/>
		</g>
		<g>
			<line fill="#FFFFFF" x1="137.055" y1="91.387" x2="147.011" y2="107.862"/>
			<path d="M147.015,111.863c-1.354,0-2.676-0.688-3.428-1.932l-9.956-16.476c-1.142-1.891-0.536-4.35,1.355-5.492
				c1.891-1.143,4.35-0.536,5.493,1.354l9.956,16.476c1.142,1.891,0.536,4.35-1.355,5.492
				C148.433,111.677,147.719,111.863,147.015,111.863z"/>
		</g>
		<g>
			<line fill="#FFFFFF" x1="150.928" y1="84.03" x2="159.96" y2="99.374"/>
			<path d="M159.964,103.375c-1.37,0-2.705-0.705-3.45-1.971L147.48,86.06c-1.121-1.904-0.486-4.355,1.418-5.477
				c1.903-1.12,4.355-0.486,5.477,1.418l9.032,15.344c1.121,1.904,0.486,4.355-1.417,5.477
				C161.353,103.196,160.654,103.375,159.964,103.375z"/>
		</g>
	</g>
	<g id="rdeča7bela_copy_3">
	</g>
	<path d="M14883.02,9215.742h-16737v-13953h16737V9215.742z M-1853.48,9214.742h16736l-0.5-13951h-16735.5l0.5,13951H-1853.48z"/>
</g>
<g id="linijsko" display="none">
	<g display="inline">
		<path fill="none" stroke="#000000" stroke-width="8" stroke-linecap="round" stroke-linejoin="round" stroke-miterlimit="10" d="
			M353.878,380.56c-0.015,0-0.029,0-0.044,0c-57.843-0.349-70.858-7.924-71.993-8.246c-3.799-1.078-6.003-5.032-4.924-8.831
			c1.078-3.795,5.027-6.002,8.821-4.928l0,0c0.262,0.074,12.596,7.37,68.182,7.705c3.949,0.023,7.13,3.244,7.107,7.192
			C361.003,377.386,357.807,380.56,353.878,380.56z"/>
		
			<polygon fill="none" stroke="#000000" stroke-width="8" stroke-linecap="round" stroke-linejoin="round" stroke-miterlimit="10" points="
			259.071,344.113 280.629,331.648 293.504,354.092 271.946,366.558 		"/>
		
			<polygon fill="none" stroke="#000000" stroke-width="8" stroke-linecap="round" stroke-linejoin="round" stroke-miterlimit="10" points="
			286.11,300.401 280.406,331.21 259.523,343.287 230.006,332.584 		"/>
		
			<polygon fill="none" stroke="#000000" stroke-width="8" stroke-linecap="round" stroke-linejoin="round" stroke-miterlimit="10" points="
			286.11,300.401 176.5,94.141 169.657,72.984 92.516,115.647 107.178,133.635 230.006,332.584 		"/>
		
			<line fill="none" stroke="#000000" stroke-width="8" stroke-linecap="round" stroke-linejoin="round" stroke-miterlimit="10" x1="175.179" y1="91.654" x2="105.897" y2="131.396"/>
		
			<line fill="none" stroke="#000000" stroke-width="8" stroke-linecap="round" stroke-linejoin="round" stroke-miterlimit="10" x1="109.252" y1="106.404" x2="119.421" y2="123.532"/>
		
			<line fill="none" stroke="#000000" stroke-width="8" stroke-linecap="round" stroke-linejoin="round" stroke-miterlimit="10" x1="122.851" y1="99.374" x2="132.773" y2="115.474"/>
		
			<line fill="none" stroke="#000000" stroke-width="8" stroke-linecap="round" stroke-linejoin="round" stroke-miterlimit="10" x1="137.055" y1="91.387" x2="147.011" y2="107.862"/>
		
			<line fill="none" stroke="#000000" stroke-width="8" stroke-linecap="round" stroke-linejoin="round" stroke-miterlimit="10" x1="150.928" y1="84.03" x2="159.96" y2="99.374"/>
	</g>
	<g id="rdeča7bela_copy" display="inline">
	</g>
</g>
<g id="pivot">
	<circle fill="none" cx="226.607" cy="374.253" r="14.133"/>
</g>
</svg>
