<?xml version="1.0" encoding="utf-8"?>
<!-- Generator: Adobe Illustrator 16.0.0, SVG Export Plug-In . SVG Version: 6.00 Build 0)  -->
<!DOCTYPE svg PUBLIC "-//W3C//DTD SVG 1.1//EN" "http://www.w3.org/Graphics/SVG/1.1/DTD/svg11.dtd">
<svg version="1.1" xmlns="http://www.w3.org/2000/svg" xmlns:xlink="http://www.w3.org/1999/xlink" x="0px" y="0px"
	 width="453.543px" height="453.543px" viewBox="0 0 453.543 453.543" enable-background="new 0 0 453.543 453.543"
	 xml:space="preserve">
<g id="kvadrat">
</g>
<g id="bg" display="none">
	<rect x="-832.959" y="-4316.749" display="inline" width="15266.867" height="13678.951"/>
</g>
<g id="barvno" display="none">
	<g display="inline">
		
			<rect x="304.657" y="217.979" fill="#FFFFFF" stroke="#000000" stroke-width="8" stroke-linecap="round" stroke-linejoin="round" stroke-miterlimit="10" width="79.345" height="39.551"/>
		
			<line fill="none" stroke="#000000" stroke-width="6" stroke-linecap="round" stroke-linejoin="round" stroke-miterlimit="10" x1="368.134" y1="217.979" x2="368.134" y2="257.529"/>
		
			<line fill="none" stroke="#000000" stroke-width="6" stroke-linecap="round" stroke-linejoin="round" stroke-miterlimit="10" x1="352.265" y1="217.979" x2="352.265" y2="257.529"/>
		
			<line fill="none" stroke="#000000" stroke-width="6" stroke-linecap="round" stroke-linejoin="round" stroke-miterlimit="10" x1="336.396" y1="217.979" x2="336.396" y2="257.529"/>
		
			<line fill="none" stroke="#000000" stroke-width="6" stroke-linecap="round" stroke-linejoin="round" stroke-miterlimit="10" x1="320.526" y1="217.979" x2="320.526" y2="257.529"/>
		
			<rect x="62.67" y="248.496" fill="#57B2E5" stroke="#000000" stroke-width="8" stroke-linecap="round" stroke-linejoin="round" stroke-miterlimit="10" width="326.557" height="15.625"/>
		
			<path fill="#FFFFFF" stroke="#000000" stroke-width="8" stroke-linecap="round" stroke-linejoin="round" stroke-miterlimit="10" d="
			M308.655,216.205h66.314c0,0,13.844-2.857,15.903-26.783c0,0-6.512,5.356-14.011,5.356l-47.137,1.071
			C329.725,195.85,308.655,197.278,308.655,216.205z"/>
	</g>
	<g id="rdeča7bela" display="inline">
	</g>
	
		<rect x="-1343.244" y="-4736.758" display="inline" fill="none" stroke="#000000" stroke-miterlimit="10" width="16736" height="13952"/>
</g>
<g id="sivinsko">
	<g>
		<g>
			<rect x="304.657" y="217.979" fill="#FFFFFF" width="79.345" height="39.551"/>
			<path d="M384.003,261.529h-79.345c-2.209,0-4-1.791-4-4v-39.551c0-2.209,1.791-4,4-4h79.345c2.209,0,4,1.791,4,4v39.551
				C388.003,259.738,386.212,261.529,384.003,261.529z M308.658,253.529h71.345v-31.551h-71.345V253.529z"/>
		</g>
		<path d="M368.134,260.529c-1.657,0-3-1.343-3-3v-39.551c0-1.657,1.343-3,3-3s3,1.343,3,3v39.551
			C371.134,259.186,369.791,260.529,368.134,260.529z"/>
		<path d="M352.265,260.529c-1.657,0-3-1.343-3-3v-39.551c0-1.657,1.343-3,3-3s3,1.343,3,3v39.551
			C355.265,259.186,353.921,260.529,352.265,260.529z"/>
		<path d="M336.396,260.529c-1.657,0-3-1.343-3-3v-39.551c0-1.657,1.343-3,3-3s3,1.343,3,3v39.551
			C339.396,259.186,338.052,260.529,336.396,260.529z"/>
		<path d="M320.526,260.529c-1.657,0-3-1.343-3-3v-39.551c0-1.657,1.343-3,3-3s3,1.343,3,3v39.551
			C323.526,259.186,322.183,260.529,320.526,260.529z"/>
		<g>
			<rect x="62.67" y="248.496" fill="#9C9C9C" width="326.557" height="15.625"/>
			<path d="M389.227,268.121H62.67c-2.209,0-4-1.791-4-4v-15.625c0-2.209,1.791-4,4-4h326.557c2.209,0,4,1.791,4,4v15.625
				C393.227,266.33,391.436,268.121,389.227,268.121z M66.67,260.121h318.557v-7.625H66.67V260.121z"/>
		</g>
		<g>
			<path fill="#FFFFFF" d="M308.655,216.205h66.314c0,0,13.844-2.857,15.903-26.783c0,0-6.512,5.356-14.011,5.356l-47.137,1.071
				C329.725,195.85,308.655,197.278,308.655,216.205z"/>
			<path d="M374.969,220.205h-66.314c-2.209,0-4-1.791-4-4c0-17.928,16.222-23.765,24.799-24.346c0.06-0.004,0.12-0.007,0.18-0.008
				l47.137-1.071c5.991-0.001,11.506-4.402,11.561-4.447c1.243-1.022,2.978-1.2,4.403-0.451c1.425,0.75,2.261,2.28,2.124,3.883
				c-2.288,26.592-18.395,30.217-19.08,30.358C375.512,220.177,375.241,220.205,374.969,220.205z M313.103,212.205h61.319
				c1.571-0.522,8.145-3.376,11.171-15.22c-2.548,1.012-5.547,1.793-8.731,1.793l-46.936,1.068
				C328.703,199.95,315.695,201.316,313.103,212.205z"/>
		</g>
	</g>
	<g id="rdeča7bela_copy_3">
	</g>
	<path d="M15393.256,9215.742h-16737v-13953h16737V9215.742z M-1343.244,9214.742h16736l-0.5-13951h-16735.5l0.5,13951H-1343.244z"
		/>
</g>
<g id="linijsko" display="none">
	<g display="inline">
		
			<rect x="304.657" y="217.978" fill="none" stroke="#000000" stroke-width="8" stroke-linecap="round" stroke-linejoin="round" stroke-miterlimit="10" width="79.345" height="30.518"/>
		
			<line fill="none" stroke="#000000" stroke-width="8" stroke-linecap="round" stroke-linejoin="round" stroke-miterlimit="10" x1="368.134" y1="217.978" x2="368.134" y2="248.496"/>
		
			<line fill="none" stroke="#000000" stroke-width="8" stroke-linecap="round" stroke-linejoin="round" stroke-miterlimit="10" x1="352.265" y1="217.978" x2="352.265" y2="248.496"/>
		
			<line fill="none" stroke="#000000" stroke-width="8" stroke-linecap="round" stroke-linejoin="round" stroke-miterlimit="10" x1="336.396" y1="217.978" x2="336.396" y2="248.496"/>
		
			<line fill="none" stroke="#000000" stroke-width="8" stroke-linecap="round" stroke-linejoin="round" stroke-miterlimit="10" x1="320.526" y1="217.978" x2="320.526" y2="248.496"/>
		
			<rect x="62.67" y="248.496" fill="none" stroke="#000000" stroke-width="8" stroke-linecap="round" stroke-linejoin="round" stroke-miterlimit="10" width="326.557" height="15.625"/>
		<path fill="none" stroke="#000000" stroke-width="8" stroke-linecap="round" stroke-linejoin="round" stroke-miterlimit="10" d="
			M308.655,216.205h66.314c0,0,13.844-2.857,15.903-26.783c0,0-6.512,5.356-14.011,5.356l-47.137,1.071
			C329.725,195.85,308.655,197.278,308.655,216.205z"/>
	</g>
	<g id="rdeča7bela_copy" display="inline">
	</g>
</g>
<g id="pivot">
	<circle fill="none" cx="230.478" cy="262.853" r="14.133"/>
</g>
</svg>
