<?xml version="1.0" encoding="utf-8"?>
<!-- Generator: Adobe Illustrator 16.0.0, SVG Export Plug-In . SVG Version: 6.00 Build 0)  -->
<!DOCTYPE svg PUBLIC "-//W3C//DTD SVG 1.1//EN" "http://www.w3.org/Graphics/SVG/1.1/DTD/svg11.dtd">
<svg version="1.1" xmlns="http://www.w3.org/2000/svg" xmlns:xlink="http://www.w3.org/1999/xlink" x="0px" y="0px"
	 width="220.001px" height="220px" viewBox="0 0 220.001 220" enable-background="new 0 0 220.001 220" xml:space="preserve">
<g id="bg">
	<g>
		<g>
			<rect fill="#FBF6C1" width="220.001" height="220"/>
		</g>
	</g>
</g>
<g id="Layer_1">
	<g>
		
			<rect x="31.136" y="-43.705" fill="#AC5D2E" stroke="#010202" stroke-width="2.219" stroke-linecap="round" stroke-linejoin="round" stroke-miterlimit="10" width="11.786" height="75.438"/>
	</g>
	<g>
		
			<rect x="31.136" y="66.05" fill="#AC5D2E" stroke="#010202" stroke-width="2.219" stroke-linecap="round" stroke-linejoin="round" stroke-miterlimit="10" width="11.786" height="75.438"/>
		
			<polygon fill="#A6A8AB" stroke="#010202" stroke-width="2.219" stroke-linecap="round" stroke-linejoin="round" stroke-miterlimit="10" points="
			25.61,73.905 58.192,73.905 58.192,57.286 25.61,57.286 11.757,64.073 11.742,69.124 		"/>
	</g>
	<g>
		
			<rect x="153.33" y="82.341" fill="#F9B233" stroke="#010202" stroke-width="2.159" stroke-linecap="round" stroke-linejoin="round" stroke-miterlimit="10" width="17.272" height="84.201"/>
		<g>
			
				<line fill="none" stroke="#010202" stroke-width="2.159" stroke-linecap="round" stroke-linejoin="round" stroke-miterlimit="10" x1="169.413" y1="161.05" x2="165.306" y2="161.05"/>
			
				<line fill="none" stroke="#010202" stroke-width="2.159" stroke-linecap="round" stroke-linejoin="round" stroke-miterlimit="10" x1="169.413" y1="155.823" x2="165.306" y2="155.823"/>
			
				<line fill="none" stroke="#010202" stroke-width="2.159" stroke-linecap="round" stroke-linejoin="round" stroke-miterlimit="10" x1="169.413" y1="150.599" x2="165.306" y2="150.599"/>
			
				<line fill="none" stroke="#010202" stroke-width="2.159" stroke-linecap="round" stroke-linejoin="round" stroke-miterlimit="10" x1="169.413" y1="145.374" x2="165.306" y2="145.374"/>
			
				<line fill="none" stroke="#010202" stroke-width="2.159" stroke-linecap="round" stroke-linejoin="round" stroke-miterlimit="10" x1="169.413" y1="140.149" x2="165.306" y2="140.149"/>
			
				<line fill="none" stroke="#010202" stroke-width="2.159" stroke-linecap="round" stroke-linejoin="round" stroke-miterlimit="10" x1="169.413" y1="134.925" x2="165.306" y2="134.925"/>
			
				<line fill="none" stroke="#010202" stroke-width="2.159" stroke-linecap="round" stroke-linejoin="round" stroke-miterlimit="10" x1="169.413" y1="129.698" x2="165.306" y2="129.698"/>
			
				<line fill="none" stroke="#010202" stroke-width="2.159" stroke-linecap="round" stroke-linejoin="round" stroke-miterlimit="10" x1="169.413" y1="124.474" x2="165.306" y2="124.474"/>
			
				<line fill="none" stroke="#010202" stroke-width="2.159" stroke-linecap="round" stroke-linejoin="round" stroke-miterlimit="10" x1="169.413" y1="119.249" x2="165.306" y2="119.249"/>
			
				<line fill="none" stroke="#010202" stroke-width="2.159" stroke-linecap="round" stroke-linejoin="round" stroke-miterlimit="10" x1="169.413" y1="114.024" x2="165.306" y2="114.024"/>
			
				<line fill="none" stroke="#010202" stroke-width="2.159" stroke-linecap="round" stroke-linejoin="round" stroke-miterlimit="10" x1="169.413" y1="108.8" x2="165.306" y2="108.8"/>
			
				<line fill="none" stroke="#010202" stroke-width="2.159" stroke-linecap="round" stroke-linejoin="round" stroke-miterlimit="10" x1="169.413" y1="103.575" x2="165.306" y2="103.575"/>
			
				<line fill="none" stroke="#010202" stroke-width="2.159" stroke-linecap="round" stroke-linejoin="round" stroke-miterlimit="10" x1="169.413" y1="98.349" x2="165.306" y2="98.349"/>
			
				<line fill="none" stroke="#010202" stroke-width="2.159" stroke-linecap="round" stroke-linejoin="round" stroke-miterlimit="10" x1="169.413" y1="93.124" x2="165.306" y2="93.124"/>
			
				<line fill="none" stroke="#010202" stroke-width="2.159" stroke-linecap="round" stroke-linejoin="round" stroke-miterlimit="10" x1="169.413" y1="87.899" x2="165.306" y2="87.899"/>
		</g>
	</g>
	<g>
		
			<path fill="#CABAA0" stroke="#010202" stroke-width="2" stroke-linecap="round" stroke-linejoin="round" stroke-miterlimit="10" d="
			M115.714,107.823c0,4.666-1.344,8.445-3,8.445h-17.66c-1.658,0-3-3.779-3-8.445V86.665h23.66V107.823z"/>
		
			<path fill="#0574B4" stroke="#020303" stroke-width="2" stroke-linecap="round" stroke-linejoin="round" stroke-miterlimit="10" d="
			M110.987,73.476c-1.516-0.709-3.166-2.566-3.166-6.439c0-3.959,1.196-7.242,2.763-7.85l-0.032-18.01c0,0,0.746-9.107-4.721-9.109
			h-1.316h-1.263h-1.317c-5.465,0.002-4.72,9.109-4.72,9.109l-0.032,18.01c1.566,0.607,2.763,3.891,2.763,7.85
			c0,3.873-1.65,5.73-3.166,6.439l-5.407,2.873v11.613h25.022V76.349L110.987,73.476z"/>
		
			<line fill="#0574B4" stroke="#020303" stroke-width="2" stroke-linecap="round" stroke-linejoin="round" stroke-miterlimit="10" x1="99.731" y1="97.819" x2="99.731" y2="115.567"/>
		
			<line fill="#0574B4" stroke="#020303" stroke-width="2" stroke-linecap="round" stroke-linejoin="round" stroke-miterlimit="10" x1="108.036" y1="97.819" x2="108.036" y2="115.567"/>
		
			<rect x="91.44" y="78.95" fill="#A6A8AB" stroke="#010202" stroke-width="2" stroke-linecap="round" stroke-linejoin="round" stroke-miterlimit="10" width="24.834" height="9.182"/>
	</g>
	<g>
		
			<rect x="31.136" y="175.804" fill="#AC5D2E" stroke="#010202" stroke-width="2.219" stroke-linecap="round" stroke-linejoin="round" stroke-miterlimit="10" width="11.786" height="75.438"/>
		
			<polygon fill="#A6A8AB" stroke="#010202" stroke-width="2.219" stroke-linecap="round" stroke-linejoin="round" stroke-miterlimit="10" points="
			25.61,183.659 58.192,183.659 58.192,167.04 25.61,167.04 11.757,173.827 11.742,178.879 		"/>
	</g>
	<g>
		
			<rect x="153.33" y="192.175" fill="#F9B233" stroke="#010202" stroke-width="2.159" stroke-linecap="round" stroke-linejoin="round" stroke-miterlimit="10" width="17.272" height="84.201"/>
		<g>
			
				<line fill="none" stroke="#010202" stroke-width="2.159" stroke-linecap="round" stroke-linejoin="round" stroke-miterlimit="10" x1="169.413" y1="218.633" x2="165.306" y2="218.633"/>
			
				<line fill="none" stroke="#010202" stroke-width="2.159" stroke-linecap="round" stroke-linejoin="round" stroke-miterlimit="10" x1="169.413" y1="213.408" x2="165.306" y2="213.408"/>
			
				<line fill="none" stroke="#010202" stroke-width="2.159" stroke-linecap="round" stroke-linejoin="round" stroke-miterlimit="10" x1="169.413" y1="208.182" x2="165.306" y2="208.182"/>
			
				<line fill="none" stroke="#010202" stroke-width="2.159" stroke-linecap="round" stroke-linejoin="round" stroke-miterlimit="10" x1="169.413" y1="202.957" x2="165.306" y2="202.957"/>
			
				<line fill="none" stroke="#010202" stroke-width="2.159" stroke-linecap="round" stroke-linejoin="round" stroke-miterlimit="10" x1="169.413" y1="197.732" x2="165.306" y2="197.732"/>
		</g>
	</g>
	<g>
		
			<rect x="153.33" y="-27.492" fill="#F9B233" stroke="#010202" stroke-width="2.159" stroke-linecap="round" stroke-linejoin="round" stroke-miterlimit="10" width="17.272" height="84.201"/>
		<g>
			
				<line fill="none" stroke="#010202" stroke-width="2.159" stroke-linecap="round" stroke-linejoin="round" stroke-miterlimit="10" x1="169.413" y1="51.217" x2="165.306" y2="51.217"/>
			
				<line fill="none" stroke="#010202" stroke-width="2.159" stroke-linecap="round" stroke-linejoin="round" stroke-miterlimit="10" x1="169.413" y1="45.99" x2="165.306" y2="45.99"/>
			
				<line fill="none" stroke="#010202" stroke-width="2.159" stroke-linecap="round" stroke-linejoin="round" stroke-miterlimit="10" x1="169.413" y1="40.766" x2="165.306" y2="40.766"/>
			
				<line fill="none" stroke="#010202" stroke-width="2.159" stroke-linecap="round" stroke-linejoin="round" stroke-miterlimit="10" x1="169.413" y1="35.541" x2="165.306" y2="35.541"/>
			
				<line fill="none" stroke="#010202" stroke-width="2.159" stroke-linecap="round" stroke-linejoin="round" stroke-miterlimit="10" x1="169.413" y1="30.316" x2="165.306" y2="30.316"/>
			
				<line fill="none" stroke="#010202" stroke-width="2.159" stroke-linecap="round" stroke-linejoin="round" stroke-miterlimit="10" x1="169.413" y1="25.092" x2="165.306" y2="25.092"/>
			
				<line fill="none" stroke="#010202" stroke-width="2.159" stroke-linecap="round" stroke-linejoin="round" stroke-miterlimit="10" x1="169.413" y1="19.864" x2="165.306" y2="19.864"/>
			
				<line fill="none" stroke="#010202" stroke-width="2.159" stroke-linecap="round" stroke-linejoin="round" stroke-miterlimit="10" x1="169.413" y1="14.64" x2="165.306" y2="14.64"/>
			
				<line fill="none" stroke="#010202" stroke-width="2.159" stroke-linecap="round" stroke-linejoin="round" stroke-miterlimit="10" x1="169.413" y1="9.415" x2="165.306" y2="9.415"/>
			
				<line fill="none" stroke="#010202" stroke-width="2.159" stroke-linecap="round" stroke-linejoin="round" stroke-miterlimit="10" x1="169.413" y1="4.19" x2="165.306" y2="4.19"/>
			
				<line fill="none" stroke="#010202" stroke-width="2.159" stroke-linecap="round" stroke-linejoin="round" stroke-miterlimit="10" x1="169.413" y1="-1.034" x2="165.306" y2="-1.034"/>
		</g>
	</g>
	<g>
		
			<path fill="#CABAA0" stroke="#010202" stroke-width="2" stroke-linecap="round" stroke-linejoin="round" stroke-miterlimit="10" d="
			M115.714,217.823c0,4.666-1.344,8.445-3,8.445h-17.66c-1.658,0-3-3.779-3-8.445v-21.158h23.66V217.823z"/>
		
			<path fill="#0574B4" stroke="#020303" stroke-width="2" stroke-linecap="round" stroke-linejoin="round" stroke-miterlimit="10" d="
			M110.987,183.476c-1.516-0.709-3.166-2.566-3.166-6.439c0-3.959,1.196-7.242,2.763-7.85l-0.032-18.01c0,0,0.746-9.107-4.721-9.109
			h-1.316h-1.263h-1.317c-5.465,0.002-4.72,9.109-4.72,9.109l-0.032,18.01c1.566,0.607,2.763,3.891,2.763,7.85
			c0,3.873-1.65,5.73-3.166,6.439l-5.407,2.873v11.613h25.022v-11.613L110.987,183.476z"/>
		
			<line fill="#0574B4" stroke="#020303" stroke-width="2" stroke-linecap="round" stroke-linejoin="round" stroke-miterlimit="10" x1="99.731" y1="207.819" x2="99.731" y2="225.567"/>
		
			<line fill="#0574B4" stroke="#020303" stroke-width="2" stroke-linecap="round" stroke-linejoin="round" stroke-miterlimit="10" x1="108.036" y1="207.819" x2="108.036" y2="225.567"/>
		
			<rect x="91.44" y="188.95" fill="#A6A8AB" stroke="#010202" stroke-width="2" stroke-linecap="round" stroke-linejoin="round" stroke-miterlimit="10" width="24.834" height="9.182"/>
	</g>
	<g>
		
			<path fill="#CABAA0" stroke="#010202" stroke-width="2" stroke-linecap="round" stroke-linejoin="round" stroke-miterlimit="10" d="
			M115.714-2.177c0,4.666-1.344,8.445-3,8.445h-17.66c-1.658,0-3-3.779-3-8.445v-21.158h23.66V-2.177z"/>
		
			<line fill="#0574B4" stroke="#020303" stroke-width="2" stroke-linecap="round" stroke-linejoin="round" stroke-miterlimit="10" x1="99.731" y1="-12.181" x2="99.731" y2="5.567"/>
		
			<line fill="#0574B4" stroke="#020303" stroke-width="2" stroke-linecap="round" stroke-linejoin="round" stroke-miterlimit="10" x1="108.036" y1="-12.181" x2="108.036" y2="5.567"/>
	</g>
	<rect x="199.835" y="0.016" fill="#010202" width="6.584" height="220"/>
</g>
</svg>
