<?xml version="1.0" encoding="utf-8"?>
<!-- Generator: Adobe Illustrator 16.0.0, SVG Export Plug-In . SVG Version: 6.00 Build 0)  -->
<!DOCTYPE svg PUBLIC "-//W3C//DTD SVG 1.1//EN" "http://www.w3.org/Graphics/SVG/1.1/DTD/svg11.dtd">
<svg version="1.1" xmlns="http://www.w3.org/2000/svg" xmlns:xlink="http://www.w3.org/1999/xlink" x="0px" y="0px" width="220px"
	 height="220px" viewBox="0 0 220 220" enable-background="new 0 0 220 220" xml:space="preserve">
<g id="bg">
	<g>
		<g>
			<rect fill="#FBF6C1" width="220" height="220"/>
		</g>
	</g>
</g>
<g id="Layer_1">
	<g>
		
			<rect x="-43.705" y="27.014" fill="#AC5D2E" stroke="#010202" stroke-width="2.219" stroke-linecap="round" stroke-linejoin="round" stroke-miterlimit="10" width="75.438" height="11.785"/>
	</g>
	<g>
		
			<rect x="66.049" y="27.014" fill="#AC5D2E" stroke="#010202" stroke-width="2.219" stroke-linecap="round" stroke-linejoin="round" stroke-miterlimit="10" width="75.438" height="11.785"/>
		
			<polygon fill="#A6A8AB" stroke="#010202" stroke-width="2.219" stroke-linecap="round" stroke-linejoin="round" stroke-miterlimit="10" points="
			73.904,44.324 73.904,11.742 57.285,11.742 57.285,44.324 64.072,58.178 69.123,58.193 		"/>
	</g>
	<g>
		
			<rect x="82.34" y="153.328" fill="#F9B233" stroke="#010202" stroke-width="2.159" stroke-linecap="round" stroke-linejoin="round" stroke-miterlimit="10" width="84.201" height="17.273"/>
		<g>
			
				<line fill="none" stroke="#010202" stroke-width="2.159" stroke-linecap="round" stroke-linejoin="round" stroke-miterlimit="10" x1="161.049" y1="154.518" x2="161.049" y2="158.625"/>
			
				<line fill="none" stroke="#010202" stroke-width="2.159" stroke-linecap="round" stroke-linejoin="round" stroke-miterlimit="10" x1="155.822" y1="154.518" x2="155.822" y2="158.625"/>
			
				<line fill="none" stroke="#010202" stroke-width="2.159" stroke-linecap="round" stroke-linejoin="round" stroke-miterlimit="10" x1="150.598" y1="154.518" x2="150.598" y2="158.625"/>
			
				<line fill="none" stroke="#010202" stroke-width="2.159" stroke-linecap="round" stroke-linejoin="round" stroke-miterlimit="10" x1="145.373" y1="154.518" x2="145.373" y2="158.625"/>
			
				<line fill="none" stroke="#010202" stroke-width="2.159" stroke-linecap="round" stroke-linejoin="round" stroke-miterlimit="10" x1="140.148" y1="154.518" x2="140.148" y2="158.625"/>
			
				<line fill="none" stroke="#010202" stroke-width="2.159" stroke-linecap="round" stroke-linejoin="round" stroke-miterlimit="10" x1="134.924" y1="154.518" x2="134.924" y2="158.625"/>
			
				<line fill="none" stroke="#010202" stroke-width="2.159" stroke-linecap="round" stroke-linejoin="round" stroke-miterlimit="10" x1="129.697" y1="154.518" x2="129.697" y2="158.625"/>
			
				<line fill="none" stroke="#010202" stroke-width="2.159" stroke-linecap="round" stroke-linejoin="round" stroke-miterlimit="10" x1="124.473" y1="154.518" x2="124.473" y2="158.625"/>
			
				<line fill="none" stroke="#010202" stroke-width="2.159" stroke-linecap="round" stroke-linejoin="round" stroke-miterlimit="10" x1="119.248" y1="154.518" x2="119.248" y2="158.625"/>
			
				<line fill="none" stroke="#010202" stroke-width="2.159" stroke-linecap="round" stroke-linejoin="round" stroke-miterlimit="10" x1="114.023" y1="154.518" x2="114.023" y2="158.625"/>
			
				<line fill="none" stroke="#010202" stroke-width="2.159" stroke-linecap="round" stroke-linejoin="round" stroke-miterlimit="10" x1="108.799" y1="154.518" x2="108.799" y2="158.625"/>
			
				<line fill="none" stroke="#010202" stroke-width="2.159" stroke-linecap="round" stroke-linejoin="round" stroke-miterlimit="10" x1="103.574" y1="154.518" x2="103.574" y2="158.625"/>
			
				<line fill="none" stroke="#010202" stroke-width="2.159" stroke-linecap="round" stroke-linejoin="round" stroke-miterlimit="10" x1="98.348" y1="154.518" x2="98.348" y2="158.625"/>
			
				<line fill="none" stroke="#010202" stroke-width="2.159" stroke-linecap="round" stroke-linejoin="round" stroke-miterlimit="10" x1="93.123" y1="154.518" x2="93.123" y2="158.625"/>
			
				<line fill="none" stroke="#010202" stroke-width="2.159" stroke-linecap="round" stroke-linejoin="round" stroke-miterlimit="10" x1="87.898" y1="154.518" x2="87.898" y2="158.625"/>
		</g>
	</g>
	<g>
		
			<path fill="#CABAA0" stroke="#010202" stroke-width="2" stroke-linecap="round" stroke-linejoin="round" stroke-miterlimit="10" d="
			M107.822,115.713c4.666,0,8.445-1.344,8.445-3v-17.66c0-1.658-3.779-3-8.445-3H86.664v23.66H107.822z"/>
		
			<path fill="#0574B4" stroke="#020303" stroke-width="2" stroke-linecap="round" stroke-linejoin="round" stroke-miterlimit="10" d="
			M73.475,110.986c-0.709-1.516-2.566-3.166-6.439-3.166c-3.959,0-7.242,1.197-7.85,2.764l-18.01-0.033c0,0-9.107,0.746-9.109-4.721
			v-1.316v-1.262v-1.318c0.002-5.465,9.109-4.719,9.109-4.719l18.01-0.033c0.607,1.566,3.891,2.764,7.85,2.764
			c3.873,0,5.73-1.65,6.439-3.166l2.873-5.408h11.613v25.023H76.348L73.475,110.986z"/>
		
			<line fill="#0574B4" stroke="#020303" stroke-width="2" stroke-linecap="round" stroke-linejoin="round" stroke-miterlimit="10" x1="97.818" y1="99.73" x2="115.566" y2="99.73"/>
		
			<line fill="#0574B4" stroke="#020303" stroke-width="2" stroke-linecap="round" stroke-linejoin="round" stroke-miterlimit="10" x1="97.818" y1="108.035" x2="115.566" y2="108.035"/>
		
			<rect x="78.949" y="91.439" fill="#A6A8AB" stroke="#010202" stroke-width="2" stroke-linecap="round" stroke-linejoin="round" stroke-miterlimit="10" width="9.182" height="24.834"/>
	</g>
	<g>
		
			<rect x="175.803" y="27.014" fill="#AC5D2E" stroke="#010202" stroke-width="2.219" stroke-linecap="round" stroke-linejoin="round" stroke-miterlimit="10" width="75.438" height="11.785"/>
		
			<polygon fill="#A6A8AB" stroke="#010202" stroke-width="2.219" stroke-linecap="round" stroke-linejoin="round" stroke-miterlimit="10" points="
			183.658,44.324 183.658,11.742 167.039,11.742 167.039,44.324 173.826,58.178 178.879,58.193 		"/>
	</g>
	<g>
		
			<rect x="192.174" y="153.328" fill="#F9B233" stroke="#010202" stroke-width="2.159" stroke-linecap="round" stroke-linejoin="round" stroke-miterlimit="10" width="84.201" height="17.273"/>
		<g>
			
				<line fill="none" stroke="#010202" stroke-width="2.159" stroke-linecap="round" stroke-linejoin="round" stroke-miterlimit="10" x1="218.633" y1="154.518" x2="218.633" y2="158.625"/>
			
				<line fill="none" stroke="#010202" stroke-width="2.159" stroke-linecap="round" stroke-linejoin="round" stroke-miterlimit="10" x1="213.408" y1="154.518" x2="213.408" y2="158.625"/>
			
				<line fill="none" stroke="#010202" stroke-width="2.159" stroke-linecap="round" stroke-linejoin="round" stroke-miterlimit="10" x1="208.182" y1="154.518" x2="208.182" y2="158.625"/>
			
				<line fill="none" stroke="#010202" stroke-width="2.159" stroke-linecap="round" stroke-linejoin="round" stroke-miterlimit="10" x1="202.957" y1="154.518" x2="202.957" y2="158.625"/>
			
				<line fill="none" stroke="#010202" stroke-width="2.159" stroke-linecap="round" stroke-linejoin="round" stroke-miterlimit="10" x1="197.732" y1="154.518" x2="197.732" y2="158.625"/>
		</g>
	</g>
	<g>
		
			<rect x="-27.492" y="153.328" fill="#F9B233" stroke="#010202" stroke-width="2.159" stroke-linecap="round" stroke-linejoin="round" stroke-miterlimit="10" width="84.201" height="17.273"/>
		<g>
			
				<line fill="none" stroke="#010202" stroke-width="2.159" stroke-linecap="round" stroke-linejoin="round" stroke-miterlimit="10" x1="51.217" y1="154.518" x2="51.217" y2="158.625"/>
			
				<line fill="none" stroke="#010202" stroke-width="2.159" stroke-linecap="round" stroke-linejoin="round" stroke-miterlimit="10" x1="45.99" y1="154.518" x2="45.99" y2="158.625"/>
			
				<line fill="none" stroke="#010202" stroke-width="2.159" stroke-linecap="round" stroke-linejoin="round" stroke-miterlimit="10" x1="40.766" y1="154.518" x2="40.766" y2="158.625"/>
			
				<line fill="none" stroke="#010202" stroke-width="2.159" stroke-linecap="round" stroke-linejoin="round" stroke-miterlimit="10" x1="35.541" y1="154.518" x2="35.541" y2="158.625"/>
			
				<line fill="none" stroke="#010202" stroke-width="2.159" stroke-linecap="round" stroke-linejoin="round" stroke-miterlimit="10" x1="30.316" y1="154.518" x2="30.316" y2="158.625"/>
			
				<line fill="none" stroke="#010202" stroke-width="2.159" stroke-linecap="round" stroke-linejoin="round" stroke-miterlimit="10" x1="25.092" y1="154.518" x2="25.092" y2="158.625"/>
			
				<line fill="none" stroke="#010202" stroke-width="2.159" stroke-linecap="round" stroke-linejoin="round" stroke-miterlimit="10" x1="19.863" y1="154.518" x2="19.863" y2="158.625"/>
			
				<line fill="none" stroke="#010202" stroke-width="2.159" stroke-linecap="round" stroke-linejoin="round" stroke-miterlimit="10" x1="14.639" y1="154.518" x2="14.639" y2="158.625"/>
			
				<line fill="none" stroke="#010202" stroke-width="2.159" stroke-linecap="round" stroke-linejoin="round" stroke-miterlimit="10" x1="9.414" y1="154.518" x2="9.414" y2="158.625"/>
			
				<line fill="none" stroke="#010202" stroke-width="2.159" stroke-linecap="round" stroke-linejoin="round" stroke-miterlimit="10" x1="4.189" y1="154.518" x2="4.189" y2="158.625"/>
			
				<line fill="none" stroke="#010202" stroke-width="2.159" stroke-linecap="round" stroke-linejoin="round" stroke-miterlimit="10" x1="-1.035" y1="154.518" x2="-1.035" y2="158.625"/>
		</g>
	</g>
	<g>
		
			<path fill="#CABAA0" stroke="#010202" stroke-width="2" stroke-linecap="round" stroke-linejoin="round" stroke-miterlimit="10" d="
			M217.822,115.713c4.666,0,8.445-1.344,8.445-3v-17.66c0-1.658-3.779-3-8.445-3h-21.158v23.66H217.822z"/>
		
			<path fill="#0574B4" stroke="#020303" stroke-width="2" stroke-linecap="round" stroke-linejoin="round" stroke-miterlimit="10" d="
			M183.475,110.986c-0.709-1.516-2.566-3.166-6.439-3.166c-3.959,0-7.242,1.197-7.85,2.764l-18.01-0.033
			c0,0-9.107,0.746-9.109-4.721v-1.316v-1.262v-1.318c0.002-5.465,9.109-4.719,9.109-4.719l18.01-0.033
			c0.607,1.566,3.891,2.764,7.85,2.764c3.873,0,5.73-1.65,6.439-3.166l2.873-5.408h11.613v25.023h-11.613L183.475,110.986z"/>
		
			<line fill="#0574B4" stroke="#020303" stroke-width="2" stroke-linecap="round" stroke-linejoin="round" stroke-miterlimit="10" x1="207.818" y1="99.73" x2="225.566" y2="99.73"/>
		
			<line fill="#0574B4" stroke="#020303" stroke-width="2" stroke-linecap="round" stroke-linejoin="round" stroke-miterlimit="10" x1="207.818" y1="108.035" x2="225.566" y2="108.035"/>
		
			<rect x="188.949" y="91.439" fill="#A6A8AB" stroke="#010202" stroke-width="2" stroke-linecap="round" stroke-linejoin="round" stroke-miterlimit="10" width="9.182" height="24.834"/>
	</g>
	<g>
		
			<path fill="#CABAA0" stroke="#010202" stroke-width="2" stroke-linecap="round" stroke-linejoin="round" stroke-miterlimit="10" d="
			M-2.178,115.713c4.666,0,8.445-1.344,8.445-3v-17.66c0-1.658-3.779-3-8.445-3h-21.158v23.66H-2.178z"/>
		
			<line fill="#0574B4" stroke="#020303" stroke-width="2" stroke-linecap="round" stroke-linejoin="round" stroke-miterlimit="10" x1="-12.182" y1="99.73" x2="5.566" y2="99.73"/>
		
			<line fill="#0574B4" stroke="#020303" stroke-width="2" stroke-linecap="round" stroke-linejoin="round" stroke-miterlimit="10" x1="-12.182" y1="108.035" x2="5.566" y2="108.035"/>
	</g>
	<rect x="0.016" y="199.834" fill="#010202" width="220" height="6.584"/>
</g>
</svg>
