<?xml version="1.0" encoding="utf-8"?>
<!-- Generator: Adobe Illustrator 16.0.0, SVG Export Plug-In . SVG Version: 6.00 Build 0)  -->
<!DOCTYPE svg PUBLIC "-//W3C//DTD SVG 1.1//EN" "http://www.w3.org/Graphics/SVG/1.1/DTD/svg11.dtd">
<svg version="1.1" xmlns="http://www.w3.org/2000/svg" xmlns:xlink="http://www.w3.org/1999/xlink" x="0px" y="0px"
	 width="453.543px" height="453.543px" viewBox="0 0 453.543 453.543" enable-background="new 0 0 453.543 453.543"
	 xml:space="preserve">
<g id="kvadrat">
</g>
<g id="bg" display="none">
	<rect x="-322.723" y="-6867.931" display="inline" width="15266.867" height="13678.951"/>
</g>
<g id="barvno" display="none">
	<g display="inline">
		<g>
			
				<path fill="#FFCF00" stroke="#000000" stroke-width="8" stroke-linecap="round" stroke-linejoin="round" stroke-miterlimit="10" d="
				M372.285,199.639c0,0,0,26.377,0,58.923c0,32.534-65.15,58.915-145.514,58.915c-80.361,0-145.513-26.381-145.513-58.915
				c0-32.546,0-58.923,0-58.923"/>
			
				<path fill="#FFCF00" stroke="#000000" stroke-width="8" stroke-linecap="round" stroke-linejoin="round" stroke-miterlimit="10" d="
				M372.285,194.988c0,32.535-65.15,58.914-145.514,58.914c-80.361,0-145.513-26.379-145.513-58.914
				c0-32.546,65.151-58.922,145.513-58.922C307.135,136.066,372.285,162.442,372.285,194.988z"/>
			
				<line fill="none" stroke="#000000" stroke-width="8" stroke-linecap="round" stroke-linejoin="round" stroke-miterlimit="10" x1="118.235" y1="236.024" x2="118.235" y2="297.8"/>
			
				<line fill="none" stroke="#000000" stroke-width="8" stroke-linecap="round" stroke-linejoin="round" stroke-miterlimit="10" x1="153.703" y1="245.945" x2="153.703" y2="308.738"/>
			
				<line fill="none" stroke="#000000" stroke-width="8" stroke-linecap="round" stroke-linejoin="round" stroke-miterlimit="10" x1="189.172" y1="251.915" x2="189.172" y2="313.798"/>
			
				<line fill="none" stroke="#000000" stroke-width="8" stroke-linecap="round" stroke-linejoin="round" stroke-miterlimit="10" x1="224.64" y1="255.294" x2="224.64" y2="314.295"/>
			
				<line fill="none" stroke="#000000" stroke-width="8" stroke-linecap="round" stroke-linejoin="round" stroke-miterlimit="10" x1="260.107" y1="253.902" x2="260.107" y2="314.791"/>
			
				<line fill="none" stroke="#000000" stroke-width="8" stroke-linecap="round" stroke-linejoin="round" stroke-miterlimit="10" x1="295.576" y1="248.576" x2="295.576" y2="308.738"/>
			
				<line fill="none" stroke="#000000" stroke-width="8" stroke-linecap="round" stroke-linejoin="round" stroke-miterlimit="10" x1="331.043" y1="236.024" x2="331.043" y2="299.078"/>
		</g>
	</g>
	<g id="rdeča7bela" display="inline">
	</g>
	
		<rect x="-833.008" y="-7287.939" display="inline" fill="none" stroke="#000000" stroke-miterlimit="10" width="16736" height="13952"/>
</g>
<g id="sivinsko">
	<g>
		<g>
			<g>
				<path fill="#C7C7C7" d="M372.285,199.639c0,0,0,26.377,0,58.923c0,32.534-65.15,58.915-145.514,58.915
					c-80.361,0-145.513-26.381-145.513-58.915c0-32.546,0-58.923,0-58.923"/>
				<path d="M226.771,321.477c-83.839,0-149.513-27.636-149.513-62.915v-58.923c0-2.209,1.791-4,4-4s4,1.791,4,4v58.923
					c0,29.767,64.805,54.915,141.513,54.915c76.708,0,141.514-25.148,141.514-54.915v-58.923c0-2.209,1.791-4,4-4s4,1.791,4,4
					v58.923C376.285,293.841,310.61,321.477,226.771,321.477z"/>
			</g>
			<g>
				<path fill="#C7C7C7" d="M372.285,194.988c0,32.535-65.15,58.914-145.514,58.914c-80.361,0-145.513-26.379-145.513-58.914
					c0-32.546,65.151-58.922,145.513-58.922C307.135,136.066,372.285,162.442,372.285,194.988z"/>
				<path d="M226.771,257.902c-83.839,0-149.513-27.635-149.513-62.914c0-35.283,65.674-62.922,149.513-62.922
					c83.839,0,149.514,27.639,149.514,62.922C376.285,230.268,310.61,257.902,226.771,257.902z M226.771,140.066
					c-76.708,0-141.513,25.151-141.513,54.922c0,29.767,64.805,54.914,141.513,54.914c76.708,0,141.514-25.147,141.514-54.914
					C368.285,165.218,303.479,140.066,226.771,140.066z"/>
			</g>
			<path d="M118.235,301.8c-2.209,0-4-1.791-4-4v-61.775c0-2.209,1.791-4,4-4s4,1.791,4,4V297.8
				C122.235,300.009,120.444,301.8,118.235,301.8z"/>
			<path d="M153.703,312.738c-2.209,0-4-1.791-4-4v-62.793c0-2.209,1.791-4,4-4s4,1.791,4,4v62.793
				C157.703,310.947,155.912,312.738,153.703,312.738z"/>
			<path d="M189.172,317.798c-2.209,0-4-1.791-4-4v-61.883c0-2.209,1.791-4,4-4s4,1.791,4,4v61.883
				C193.172,316.007,191.381,317.798,189.172,317.798z"/>
			<path d="M224.64,318.295c-2.209,0-4-1.791-4-4v-59.001c0-2.209,1.791-4,4-4s4,1.791,4,4v59.001
				C228.64,316.504,226.849,318.295,224.64,318.295z"/>
			<path d="M260.107,318.791c-2.209,0-4-1.791-4-4v-60.889c0-2.209,1.791-4,4-4s4,1.791,4,4v60.889
				C264.107,317,262.316,318.791,260.107,318.791z"/>
			<path d="M295.576,312.738c-2.209,0-4-1.791-4-4v-60.162c0-2.209,1.791-4,4-4s4,1.791,4,4v60.162
				C299.576,310.947,297.785,312.738,295.576,312.738z"/>
			<path d="M331.043,303.078c-2.209,0-4-1.791-4-4v-63.054c0-2.209,1.791-4,4-4s4,1.791,4,4v63.054
				C335.043,301.287,333.252,303.078,331.043,303.078z"/>
		</g>
	</g>
	<g id="rdeča7bela_copy_3">
	</g>
	<path d="M15903.492,6664.561h-16737v-13953h16737V6664.561z M-833.008,6663.561h16736l-0.5-13951h-16735.5l0.5,13951H-833.008z"/>
</g>
<g id="linijsko" display="none">
	<g display="inline">
		<g>
			<path fill="none" stroke="#000000" stroke-width="8" stroke-linecap="round" stroke-linejoin="round" stroke-miterlimit="10" d="
				M372.285,199.639c0,0,0,26.377,0,58.923c0,32.534-65.15,58.915-145.514,58.915c-80.361,0-145.513-26.381-145.513-58.915
				c0-32.546,0-58.923,0-58.923"/>
			<path fill="none" stroke="#000000" stroke-width="8" stroke-linecap="round" stroke-linejoin="round" stroke-miterlimit="10" d="
				M372.285,194.988c0,32.535-65.15,58.914-145.514,58.914c-80.361,0-145.513-26.379-145.513-58.914
				c0-32.546,65.151-58.922,145.513-58.922C307.135,136.066,372.285,162.442,372.285,194.988z"/>
			
				<line fill="none" stroke="#000000" stroke-width="8" stroke-linecap="round" stroke-linejoin="round" stroke-miterlimit="10" x1="118.235" y1="236.024" x2="118.235" y2="297.8"/>
			
				<line fill="none" stroke="#000000" stroke-width="8" stroke-linecap="round" stroke-linejoin="round" stroke-miterlimit="10" x1="153.703" y1="245.945" x2="153.703" y2="308.738"/>
			
				<line fill="none" stroke="#000000" stroke-width="8" stroke-linecap="round" stroke-linejoin="round" stroke-miterlimit="10" x1="189.172" y1="251.915" x2="189.172" y2="313.798"/>
			
				<line fill="none" stroke="#000000" stroke-width="8" stroke-linecap="round" stroke-linejoin="round" stroke-miterlimit="10" x1="224.64" y1="255.294" x2="224.64" y2="314.295"/>
			
				<line fill="none" stroke="#000000" stroke-width="8" stroke-linecap="round" stroke-linejoin="round" stroke-miterlimit="10" x1="260.107" y1="253.902" x2="260.107" y2="314.791"/>
			
				<line fill="none" stroke="#000000" stroke-width="8" stroke-linecap="round" stroke-linejoin="round" stroke-miterlimit="10" x1="295.576" y1="248.576" x2="295.576" y2="308.738"/>
			
				<line fill="none" stroke="#000000" stroke-width="8" stroke-linecap="round" stroke-linejoin="round" stroke-miterlimit="10" x1="331.043" y1="236.024" x2="331.043" y2="299.078"/>
		</g>
	</g>
	<g id="rdeča7bela_copy" display="inline">
	</g>
</g>
<g id="pivot">
	<circle fill="none" cx="221.33" cy="312.945" r="14.133"/>
</g>
</svg>
