<?xml version="1.0" encoding="utf-8"?>
<!-- Generator: Adobe Illustrator 16.0.0, SVG Export Plug-In . SVG Version: 6.00 Build 0)  -->
<!DOCTYPE svg PUBLIC "-//W3C//DTD SVG 1.1//EN" "http://www.w3.org/Graphics/SVG/1.1/DTD/svg11.dtd">
<svg version="1.1" xmlns="http://www.w3.org/2000/svg" xmlns:xlink="http://www.w3.org/1999/xlink" x="0px" y="0px"
	 width="453.543px" height="453.543px" viewBox="0 0 453.543 453.543" enable-background="new 0 0 453.543 453.543"
	 xml:space="preserve">
<g id="kvadrat">
</g>
<g id="bg" display="none">
	<rect x="-5425.085" y="-745.095" display="inline" width="15266.867" height="13678.951"/>
</g>
<g id="barvno" display="none">
	<g id="rde훾a7bela" display="inline">
	</g>
	<g display="inline">
		<g>
			
				<line fill="#EED2A3" stroke="#000000" stroke-width="8" stroke-linecap="round" stroke-linejoin="round" stroke-miterlimit="10" x1="194.771" y1="359.374" x2="228.363" y2="348.16"/>
			
				<line fill="#EED2A3" stroke="#000000" stroke-width="8" stroke-linecap="round" stroke-linejoin="round" stroke-miterlimit="10" x1="194.771" y1="359.374" x2="228.363" y2="348.16"/>
			
				<line fill="#EED2A3" stroke="#000000" stroke-width="8" stroke-linecap="round" stroke-linejoin="round" stroke-miterlimit="10" x1="207.28" y1="376.615" x2="228.363" y2="348.16"/>
			
				<line fill="#EED2A3" stroke="#000000" stroke-width="8" stroke-linecap="round" stroke-linejoin="round" stroke-miterlimit="10" x1="227.413" y1="383.561" x2="228.363" y2="348.16"/>
			
				<line fill="#EED2A3" stroke="#000000" stroke-width="8" stroke-linecap="round" stroke-linejoin="round" stroke-miterlimit="10" x1="247.89" y1="377.704" x2="228.363" y2="348.16"/>
			
				<line fill="#EED2A3" stroke="#000000" stroke-width="8" stroke-linecap="round" stroke-linejoin="round" stroke-miterlimit="10" x1="261.304" y1="361.162" x2="228.363" y2="348.16"/>
		</g>
		
			<path fill="#EED2A3" stroke="#000000" stroke-width="8" stroke-linecap="round" stroke-linejoin="round" stroke-miterlimit="10" d="
			M328.917,244.362c3.126,56.415-40.07,104.679-96.484,107.807c-56.413,3.126-104.68-40.071-107.806-96.483
			c-2-36.088,14.956-68.841,42.201-88.579c15.346-11.116,46.588-45.342,35.568-97.125l12.767,22.704l7.515-14.478l6.252,21.283
			l11.877-12.228c2.95,53.231,29.26,69.44,38.382,74.894C307.376,179.007,326.962,209.104,328.917,244.362z"/>
		<g>
			<path fill="none" stroke="#000000" stroke-width="6" stroke-linecap="round" stroke-linejoin="round" stroke-miterlimit="10" d="
				M200.896,185.345c-67.353,61.89-26.639,149.158,36.829,167.671"/>
			<path fill="none" stroke="#000000" stroke-width="6" stroke-linecap="round" stroke-linejoin="round" stroke-miterlimit="10" d="
				M208.177,219.019c-21.844,25.485-9.84,118.776,25.985,134.193"/>
		</g>
		<g>
			<path fill="none" stroke="#000000" stroke-width="6" stroke-linecap="round" stroke-linejoin="round" stroke-miterlimit="10" d="
				M256.017,185.345c67.353,61.89,26.639,149.158-36.829,167.671"/>
			<path fill="none" stroke="#000000" stroke-width="6" stroke-linecap="round" stroke-linejoin="round" stroke-miterlimit="10" d="
				M248.736,219.019c21.845,25.485,9.841,118.776-25.984,134.193"/>
		</g>
		<path fill="none" stroke="#000000" stroke-width="6" stroke-linecap="round" stroke-linejoin="round" stroke-miterlimit="10" d="
			M225.929,251.786"/>
		<path fill="none" stroke="#000000" stroke-width="6" stroke-linecap="round" stroke-linejoin="round" stroke-miterlimit="10" d="
			M232.929,348.179"/>
	</g>
	
		<rect x="-5935.371" y="-1165.104" display="inline" fill="none" stroke="#000000" stroke-miterlimit="10" width="16736" height="13952"/>
</g>
<g id="barvno_copy_2">
	<g id="rde훾a7bela_copy_4">
	</g>
	<g>
		<g>
			
				<line fill="#00FFFF" stroke="#000000" stroke-width="8" stroke-linecap="round" stroke-linejoin="round" stroke-miterlimit="10" x1="194.771" y1="359.374" x2="228.363" y2="348.16"/>
			
				<line fill="#00FFFF" stroke="#000000" stroke-width="8" stroke-linecap="round" stroke-linejoin="round" stroke-miterlimit="10" x1="194.771" y1="359.374" x2="228.363" y2="348.16"/>
			
				<line fill="#00FFFF" stroke="#000000" stroke-width="8" stroke-linecap="round" stroke-linejoin="round" stroke-miterlimit="10" x1="207.28" y1="376.615" x2="228.363" y2="348.16"/>
			
				<line fill="#00FFFF" stroke="#000000" stroke-width="8" stroke-linecap="round" stroke-linejoin="round" stroke-miterlimit="10" x1="227.413" y1="383.561" x2="228.363" y2="348.16"/>
			
				<line fill="#00FFFF" stroke="#000000" stroke-width="8" stroke-linecap="round" stroke-linejoin="round" stroke-miterlimit="10" x1="247.89" y1="377.704" x2="228.363" y2="348.16"/>
			
				<line fill="#00FFFF" stroke="#000000" stroke-width="8" stroke-linecap="round" stroke-linejoin="round" stroke-miterlimit="10" x1="261.304" y1="361.162" x2="228.363" y2="348.16"/>
		</g>
		
			<path fill="#00FFFF" stroke="#000000" stroke-width="8" stroke-linecap="round" stroke-linejoin="round" stroke-miterlimit="10" d="
			M328.917,244.362c3.126,56.415-40.07,104.679-96.484,107.807c-56.413,3.126-104.68-40.071-107.806-96.483
			c-2-36.088,14.956-68.841,42.201-88.579c15.346-11.116,46.588-45.342,35.568-97.125l12.767,22.704l7.515-14.478l6.252,21.283
			l11.877-12.228c2.95,53.231,29.26,69.44,38.382,74.894C307.376,179.007,326.962,209.104,328.917,244.362z"/>
		<g>
			<path fill="none" stroke="#000000" stroke-width="6" stroke-linecap="round" stroke-linejoin="round" stroke-miterlimit="10" d="
				M200.896,185.345c-67.353,61.89-26.639,149.158,36.829,167.671"/>
			<path fill="none" stroke="#000000" stroke-width="6" stroke-linecap="round" stroke-linejoin="round" stroke-miterlimit="10" d="
				M208.177,219.019c-21.844,25.485-9.84,118.776,25.985,134.193"/>
		</g>
		<g>
			<path fill="none" stroke="#000000" stroke-width="6" stroke-linecap="round" stroke-linejoin="round" stroke-miterlimit="10" d="
				M256.017,185.345c67.353,61.89,26.639,149.158-36.829,167.671"/>
			<path fill="none" stroke="#000000" stroke-width="6" stroke-linecap="round" stroke-linejoin="round" stroke-miterlimit="10" d="
				M248.736,219.019c21.845,25.485,9.841,118.776-25.984,134.193"/>
		</g>
		<path fill="none" stroke="#000000" stroke-width="6" stroke-linecap="round" stroke-linejoin="round" stroke-miterlimit="10" d="
			M225.929,251.786"/>
		<path fill="none" stroke="#000000" stroke-width="6" stroke-linecap="round" stroke-linejoin="round" stroke-miterlimit="10" d="
			M232.929,348.179"/>
	</g>
	<rect x="-5935.371" y="-1165.104" fill="none" stroke="#000000" stroke-miterlimit="10" width="16736" height="13952"/>
</g>
<g id="sivinsko" display="none">
	<g id="rde훾a7bela_copy_3" display="inline">
	</g>
	<g display="inline">
		<g>
			<g>
				<line fill="#D5D5D5" x1="194.771" y1="359.374" x2="228.363" y2="348.16"/>
				<path d="M194.771,363.375c-1.674,0-3.234-1.059-3.793-2.734c-0.7-2.096,0.432-4.361,2.527-5.061l33.592-11.214
					c2.093-0.699,4.361,0.433,5.061,2.528c0.7,2.095-0.432,4.361-2.527,5.06l-33.592,11.214
					C195.618,363.309,195.19,363.375,194.771,363.375z"/>
			</g>
			<g>
				<line fill="#D5D5D5" x1="194.771" y1="359.374" x2="228.363" y2="348.16"/>
				<path d="M194.771,363.375c-1.674,0-3.234-1.059-3.793-2.734c-0.7-2.096,0.432-4.361,2.527-5.061l33.592-11.214
					c2.093-0.699,4.361,0.433,5.061,2.528c0.7,2.095-0.432,4.361-2.527,5.06l-33.592,11.214
					C195.618,363.309,195.19,363.375,194.771,363.375z"/>
			</g>
			<g>
				<line fill="#D5D5D5" x1="207.28" y1="376.615" x2="228.363" y2="348.16"/>
				<path d="M207.277,380.615c-0.828,0-1.662-0.256-2.378-0.786c-1.775-1.316-2.148-3.821-0.833-5.595l21.083-28.456
					c1.315-1.775,3.82-2.147,5.595-0.833c1.775,1.315,2.148,3.82,0.833,5.595l-21.083,28.456
					C209.709,380.056,208.5,380.615,207.277,380.615z"/>
			</g>
			<g>
				<line fill="#D5D5D5" x1="227.413" y1="383.561" x2="228.363" y2="348.16"/>
				<path d="M227.415,387.561c-0.037,0-0.073,0-0.109-0.001c-2.208-0.06-3.95-1.898-3.891-4.106l0.95-35.401
					c0.059-2.208,1.896-3.955,4.106-3.891c2.208,0.059,3.95,1.897,3.891,4.106l-0.95,35.401
					C231.353,385.84,229.574,387.561,227.415,387.561z"/>
			</g>
			<g>
				<line fill="#D5D5D5" x1="247.89" y1="377.704" x2="228.363" y2="348.16"/>
				<path d="M247.894,381.705c-1.298,0-2.571-0.631-3.341-1.795l-19.527-29.544c-1.218-1.843-0.711-4.325,1.131-5.542
					c1.842-1.219,4.324-0.71,5.542,1.131l19.527,29.544c1.218,1.843,0.711,4.325-1.131,5.542
					C249.417,381.49,248.651,381.705,247.894,381.705z"/>
			</g>
			<g>
				<line fill="#D5D5D5" x1="261.304" y1="361.162" x2="228.363" y2="348.16"/>
				<path d="M261.303,365.163c-0.489,0-0.985-0.089-1.467-0.28l-32.941-13.001c-2.055-0.811-3.063-3.134-2.252-5.189
					c0.811-2.055,3.135-3.063,5.189-2.252l32.941,13.001c2.055,0.812,3.063,3.134,2.252,5.19
					C264.404,364.203,262.897,365.163,261.303,365.163z"/>
			</g>
		</g>
		<g>
			<path fill="#D5D5D5" d="M328.917,244.362c3.126,56.415-40.07,104.679-96.484,107.807c-56.413,3.126-104.68-40.071-107.806-96.483
				c-2-36.088,14.956-68.841,42.201-88.579c15.346-11.116,46.588-45.342,35.568-97.125l12.767,22.704l7.515-14.478l6.252,21.283
				l11.877-12.228c2.95,53.231,29.26,69.44,38.382,74.894C307.376,179.007,326.962,209.104,328.917,244.362z"/>
			<path d="M226.681,356.328c-56.346,0-102.928-44.11-106.048-100.421c-2.011-36.285,14.381-70.692,43.848-92.039
				c4.771-3.457,46.264-35.433,34.002-93.053c-0.411-1.933,0.651-3.877,2.5-4.575c1.848-0.698,3.93,0.059,4.899,1.782l9.139,16.252
				l4.105-7.909c0.752-1.45,2.309-2.296,3.936-2.139c1.625,0.157,2.992,1.287,3.452,2.854l4.32,14.708l7.102-7.312
				c1.106-1.138,2.782-1.516,4.27-0.96c1.487,0.557,2.505,1.94,2.593,3.525c2.86,51.606,28.135,66.717,36.441,71.683
				c30.396,18.169,49.712,50.101,51.669,85.416c3.243,58.524-41.732,108.778-100.257,112.022
				C230.67,356.272,228.661,356.328,226.681,356.328z M208.724,89.395c1.137,49.843-34.938,77.612-39.549,80.953
				c-27.253,19.743-42.414,51.562-40.554,85.117c2.886,52.073,45.959,92.863,98.061,92.863c1.833,0,3.693-0.051,5.53-0.153
				c54.12-3,95.71-49.472,92.712-103.591c-1.81-32.659-19.674-62.189-47.787-78.993c-8.701-5.201-34.197-20.448-39.592-69.227
				l-5.745,5.915c-0.991,1.021-2.452,1.437-3.83,1.096c-1.38-0.342-2.476-1.391-2.877-2.754l-3.448-11.737l-2.931,5.646
				c-0.677,1.304-2.014,2.133-3.483,2.157c-1.462,0.011-2.833-0.759-3.554-2.04L208.724,89.395z"/>
		</g>
		<g>
			<path d="M237.727,356.017c-0.278,0-0.561-0.039-0.841-0.122c-34.849-10.165-62.79-39.928-71.183-75.826
				c-8.248-35.278,3.53-69.703,33.164-96.934c1.22-1.122,3.117-1.041,4.239,0.179c1.121,1.221,1.041,3.118-0.179,4.239
				c-27.969,25.701-39.114,58.073-31.38,91.15c7.908,33.824,34.215,61.863,67.02,71.432c1.591,0.464,2.504,2.13,2.04,3.72
				C240.223,355.166,239.025,356.017,237.727,356.017z"/>
			<path d="M234.161,356.212c-0.396,0-0.798-0.078-1.185-0.245c-15.194-6.538-27.708-26.668-34.332-55.229
				c-6.822-29.414-6.521-67.601,7.254-83.672c1.078-1.258,2.973-1.403,4.23-0.326c1.258,1.079,1.404,2.972,0.326,4.23
				c-10.836,12.643-13.401,46.352-5.965,78.412c6.097,26.289,17.633,45.382,30.859,51.073c1.521,0.655,2.225,2.419,1.57,3.941
				C236.43,355.532,235.323,356.212,234.161,356.212z"/>
		</g>
		<g>
			<path d="M219.187,356.017c-1.299,0-2.497-0.851-2.878-2.161c-0.464-1.59,0.449-3.256,2.04-3.72
				c32.805-9.569,59.112-37.608,67.02-71.432c7.733-33.077-3.411-65.449-31.38-91.15c-1.22-1.121-1.3-3.018-0.179-4.239
				c1.121-1.22,3.019-1.299,4.239-0.179c29.634,27.23,41.411,61.655,33.164,96.934c-8.393,35.897-36.333,65.661-71.183,75.826
				C219.748,355.978,219.465,356.017,219.187,356.017z"/>
			<path d="M222.753,356.212c-1.162,0-2.269-0.679-2.757-1.814c-0.655-1.522,0.048-3.287,1.57-3.941
				c13.226-5.691,24.762-24.785,30.859-51.074c7.435-32.059,4.87-65.769-5.967-78.411c-1.078-1.258-0.933-3.152,0.325-4.23
				s3.152-0.932,4.23,0.326c13.776,16.071,14.078,54.257,7.256,83.671c-6.624,28.562-19.138,48.691-34.332,55.229
				C223.551,356.134,223.148,356.212,222.753,356.212z"/>
		</g>
		<path fill="none" stroke="#000000" stroke-width="6" stroke-linecap="round" stroke-linejoin="round" stroke-miterlimit="10" d="
			M225.929,251.786"/>
		<path fill="none" stroke="#000000" stroke-width="6" stroke-linecap="round" stroke-linejoin="round" stroke-miterlimit="10" d="
			M232.929,348.179"/>
	</g>
	<path display="inline" d="M10801.129,12787.396h-16737v-13953h16737V12787.396z M-5935.371,12786.396h16736l-0.5-13951h-16735.5
		l0.5,13951H-5935.371z"/>
</g>
<g id="linijsko" display="none">
	<g id="rde훾a7bela_copy" display="inline">
	</g>
	<g display="inline">
		<g>
			
				<line fill="none" stroke="#000000" stroke-width="8" stroke-linecap="round" stroke-linejoin="round" stroke-miterlimit="10" x1="194.771" y1="359.374" x2="228.363" y2="348.16"/>
			
				<line fill="none" stroke="#000000" stroke-width="8" stroke-linecap="round" stroke-linejoin="round" stroke-miterlimit="10" x1="194.771" y1="359.374" x2="228.363" y2="348.16"/>
			
				<line fill="none" stroke="#000000" stroke-width="8" stroke-linecap="round" stroke-linejoin="round" stroke-miterlimit="10" x1="207.28" y1="376.615" x2="228.363" y2="348.16"/>
			
				<line fill="none" stroke="#000000" stroke-width="8" stroke-linecap="round" stroke-linejoin="round" stroke-miterlimit="10" x1="227.413" y1="383.561" x2="228.363" y2="348.16"/>
			
				<line fill="none" stroke="#000000" stroke-width="8" stroke-linecap="round" stroke-linejoin="round" stroke-miterlimit="10" x1="247.89" y1="377.704" x2="228.363" y2="348.16"/>
			
				<line fill="none" stroke="#000000" stroke-width="8" stroke-linecap="round" stroke-linejoin="round" stroke-miterlimit="10" x1="261.304" y1="361.162" x2="228.363" y2="348.16"/>
		</g>
		<path fill="none" stroke="#000000" stroke-width="8" stroke-linecap="round" stroke-linejoin="round" stroke-miterlimit="10" d="
			M328.917,244.362c3.126,56.415-40.07,104.679-96.484,107.807c-56.413,3.126-104.68-40.071-107.806-96.483
			c-2-36.088,14.956-68.841,42.201-88.579c15.346-11.116,46.588-45.342,35.568-97.125l12.767,22.704l7.515-14.478l6.252,21.283
			l11.877-12.228c2.95,53.231,29.26,69.44,38.382,74.894C307.376,179.007,326.962,209.104,328.917,244.362z"/>
		<g>
			<path fill="none" stroke="#000000" stroke-width="6" stroke-linecap="round" stroke-linejoin="round" stroke-miterlimit="10" d="
				M200.896,185.345c-67.353,61.89-26.639,149.158,36.829,167.671"/>
			<path fill="none" stroke="#000000" stroke-width="6" stroke-linecap="round" stroke-linejoin="round" stroke-miterlimit="10" d="
				M208.177,219.019c-21.844,25.485-9.84,118.776,25.985,134.193"/>
		</g>
		<g>
			<path fill="none" stroke="#000000" stroke-width="6" stroke-linecap="round" stroke-linejoin="round" stroke-miterlimit="10" d="
				M256.017,185.345c67.353,61.89,26.639,149.158-36.829,167.671"/>
			<path fill="none" stroke="#000000" stroke-width="6" stroke-linecap="round" stroke-linejoin="round" stroke-miterlimit="10" d="
				M248.736,219.019c21.845,25.485,9.841,118.776-25.984,134.193"/>
		</g>
		<path fill="none" stroke="#000000" stroke-width="6" stroke-linecap="round" stroke-linejoin="round" stroke-miterlimit="10" d="
			M225.929,251.786"/>
		<path fill="none" stroke="#000000" stroke-width="6" stroke-linecap="round" stroke-linejoin="round" stroke-miterlimit="10" d="
			M232.929,348.179"/>
	</g>
</g>
<g id="pivot">
	<circle fill="none" cx="227.463" cy="362.286" r="14.132"/>
</g>
</svg>
