<?xml version="1.0" encoding="utf-8"?>
<!-- Generator: Adobe Illustrator 16.0.0, SVG Export Plug-In . SVG Version: 6.00 Build 0)  -->
<!DOCTYPE svg PUBLIC "-//W3C//DTD SVG 1.1//EN" "http://www.w3.org/Graphics/SVG/1.1/DTD/svg11.dtd">
<svg version="1.1" xmlns="http://www.w3.org/2000/svg" xmlns:xlink="http://www.w3.org/1999/xlink" x="0px" y="0px"
	 width="453.543px" height="453.543px" viewBox="0 0 453.543 453.543" enable-background="new 0 0 453.543 453.543"
	 xml:space="preserve">
<g id="kvadrat">
</g>
<g id="bg" display="none">
	<rect x="-3384.14" y="-745.095" display="inline" width="15266.867" height="13678.951"/>
</g>
<g id="barvno" display="none">
	<g display="inline">
		
			<path fill="#EED2A3" stroke="#000000" stroke-width="8" stroke-linecap="round" stroke-linejoin="round" stroke-miterlimit="10" d="
			M229.371,138.152c2.674,15.097,16.939,65.534,62.428,80.596c22.574,7.476,43.051,18.009,45.6,64.147l0.018,9.791
			c0,0.085,0,0.18-0.01,0.271c-2.758,30.308-29.029,53.989-59.818,53.989c-8.008,0-15.83-1.617-23.281-4.808l-1.508-0.645
			l-1.311,0.985c-6.893,5.181-15.035,7.92-23.551,7.92c-8.881,0-17.287-2.935-24.311-8.483l-1.9-1.503l-1.469,1.356
			c-7.65,3.444-15.813,5.19-24.266,5.19c-30.816,0-57.088-23.684-59.844-53.92c-0.01-0.109-0.02-0.233-0.02-0.354v-9.427
			c2.561-46.486,23.033-57.041,45.605-64.51c45.547-15.08,60.754-65.331,63.41-80.372L229.371,138.152z"/>
		<g>
			<path fill="none" stroke="#000000" stroke-width="6" stroke-linecap="round" stroke-linejoin="round" stroke-miterlimit="10" d="
				M272,242.589c0,0,27.07,18.047,20.422,67.914"/>
			<path fill="none" stroke="#000000" stroke-width="6" stroke-linecap="round" stroke-linejoin="round" stroke-miterlimit="10" d="
				M162.292,253.853c0,0-25.758,21.422,0,56.649"/>
		</g>
		
			<polyline fill="none" stroke="#000000" stroke-width="8" stroke-linecap="round" stroke-linejoin="round" stroke-miterlimit="10" points="
			204.409,103.145 226.772,138.291 248.955,103.145 		"/>
		
			<line fill="none" stroke="#000000" stroke-width="8" stroke-linecap="round" stroke-linejoin="round" stroke-miterlimit="10" x1="226.772" y1="103.145" x2="226.772" y2="138.291"/>
		<path fill="none" stroke="#000000" stroke-width="6" stroke-linecap="round" stroke-linejoin="round" stroke-miterlimit="10" d="
			M214.809,240.778c20.024-27.201-52.773,58.912-12.083,99.634"/>
		<path fill="none" stroke="#000000" stroke-width="6" stroke-linecap="round" stroke-linejoin="round" stroke-miterlimit="10" d="
			M258.669,318.415c0,0,3.264,15.243-8.465,23.682"/>
	</g>
	<g id="rde훾a7bela" display="inline">
	</g>
	
		<rect x="-3894.425" y="-1165.104" display="inline" fill="none" stroke="#000000" stroke-miterlimit="10" width="16736" height="13952"/>
</g>
<g id="barvno_copy_2">
	<g>
		
			<path fill="#FFFFFF" stroke="#000000" stroke-width="8" stroke-linecap="round" stroke-linejoin="round" stroke-miterlimit="10" d="
			M229.371,138.152c2.674,15.097,16.939,65.534,62.428,80.596c22.574,7.476,43.051,18.009,45.6,64.147l0.018,9.791
			c0,0.085,0,0.18-0.01,0.271c-2.758,30.308-29.029,53.989-59.818,53.989c-8.008,0-15.83-1.617-23.281-4.808l-1.508-0.645
			l-1.311,0.985c-6.893,5.181-15.035,7.92-23.551,7.92c-8.881,0-17.287-2.935-24.311-8.483l-1.9-1.503l-1.469,1.356
			c-7.65,3.444-15.813,5.19-24.266,5.19c-30.816,0-57.088-23.684-59.844-53.92c-0.01-0.109-0.02-0.233-0.02-0.354v-9.427
			c2.561-46.486,23.033-57.041,45.605-64.51c45.547-15.08,60.754-65.331,63.41-80.372L229.371,138.152z"/>
		<g>
			<path fill="none" stroke="#000000" stroke-width="6" stroke-linecap="round" stroke-linejoin="round" stroke-miterlimit="10" d="
				M272,242.589c0,0,27.07,18.047,20.422,67.914"/>
			<path fill="none" stroke="#000000" stroke-width="6" stroke-linecap="round" stroke-linejoin="round" stroke-miterlimit="10" d="
				M162.292,253.853c0,0-25.758,21.422,0,56.649"/>
		</g>
		
			<polyline fill="none" stroke="#000000" stroke-width="8" stroke-linecap="round" stroke-linejoin="round" stroke-miterlimit="10" points="
			204.409,103.145 226.772,138.291 248.955,103.145 		"/>
		
			<line fill="none" stroke="#000000" stroke-width="8" stroke-linecap="round" stroke-linejoin="round" stroke-miterlimit="10" x1="226.772" y1="103.145" x2="226.772" y2="138.291"/>
		<path fill="none" stroke="#000000" stroke-width="6" stroke-linecap="round" stroke-linejoin="round" stroke-miterlimit="10" d="
			M214.809,240.778c20.024-27.201-52.773,58.912-12.083,99.634"/>
		<path fill="none" stroke="#000000" stroke-width="6" stroke-linecap="round" stroke-linejoin="round" stroke-miterlimit="10" d="
			M258.669,318.415c0,0,3.264,15.243-8.465,23.682"/>
	</g>
	<g id="rde훾a7bela_copy_4">
	</g>
	<rect x="-3894.425" y="-1165.104" fill="none" stroke="#000000" stroke-miterlimit="10" width="16736" height="13952"/>
</g>
<g id="sivinsko" display="none">
	<g display="inline">
		<g>
			<path fill="#D5D5D5" d="M229.371,138.152c2.674,15.097,16.939,65.534,62.428,80.596c22.574,7.476,43.051,18.009,45.6,64.147
				l0.018,9.791c0,0.085,0,0.18-0.01,0.271c-2.758,30.308-29.029,53.989-59.818,53.989c-8.008,0-15.83-1.617-23.281-4.808
				l-1.508-0.645l-1.311,0.985c-6.893,5.181-15.035,7.92-23.551,7.92c-8.881,0-17.287-2.935-24.311-8.483l-1.9-1.503l-1.469,1.356
				c-7.65,3.444-15.813,5.19-24.266,5.19c-30.816,0-57.088-23.684-59.844-53.92c-0.01-0.109-0.02-0.233-0.02-0.354v-9.427
				c2.561-46.486,23.033-57.041,45.605-64.51c45.547-15.08,60.754-65.331,63.41-80.372L229.371,138.152z"/>
			<path d="M227.937,354.398c-9.549,0-18.599-3.075-26.22-8.9c-8.117,3.623-16.771,5.46-25.726,5.46
				c-32.849,0-60.886-25.282-63.827-57.558c-0.021-0.226-0.036-0.473-0.036-0.717v-9.427c0-0.073,0.002-0.146,0.006-0.22
				c2.697-48.961,25.361-60.483,48.343-68.087c39.555-13.097,57.02-56.271,60.728-77.27c0.324-1.834,1.87-3.201,3.729-3.299
				l4.227-0.223c2.007-0.104,3.796,1.309,4.148,3.297c1.112,6.275,12.23,61.763,59.747,77.498
				c22.985,7.61,45.651,19.11,48.336,67.723c0.004,0.071,0.006,0.142,0.006,0.213l0.018,9.792c0,0.226-0.007,0.47-0.033,0.704
				c-2.934,32.25-30.959,57.563-63.795,57.563c-8.322,0-16.472-1.638-24.237-4.87C245.875,351.523,237.103,354.398,227.937,354.398z
				 M201.727,336.412c0.875,0,1.751,0.286,2.481,0.863l1.9,1.504c6.309,4.985,13.858,7.62,21.829,7.62
				c7.64,0,14.953-2.461,21.147-7.117l1.31-0.986c1.144-0.859,2.662-1.042,3.977-0.48l1.508,0.646
				c6.951,2.976,14.254,4.485,21.708,4.485c28.714,0,53.221-22.079,55.828-50.275l-0.018-9.661
				c-2.437-43.596-20.851-53.177-42.857-60.465c-42.717-14.144-58.407-57.096-63.293-75.64
				c-4.911,17.958-20.994,61.314-64.257,75.638c-22.001,7.28-40.412,16.889-42.863,60.824v9.316
				c2.573,28.188,27.11,50.275,55.863,50.275c7.667,0,15.077-1.54,22.039-4.578l0.982-0.906
				C199.775,336.768,200.75,336.412,201.727,336.412z"/>
		</g>
		<g>
			<path d="M292.425,313.503c-0.132,0-0.266-0.009-0.4-0.027c-1.642-0.219-2.796-1.728-2.577-3.37
				c6.294-47.21-18.081-64.322-19.122-65.028c-1.368-0.927-1.733-2.789-0.812-4.16c0.922-1.371,2.775-1.743,4.149-0.825
				c1.169,0.779,28.549,19.672,21.731,70.806C295.194,312.406,293.906,313.503,292.425,313.503z"/>
			<path d="M162.295,313.503c-0.925,0-1.836-0.426-2.424-1.229c-27.107-37.073,0.224-60.495,0.503-60.727
				c1.273-1.059,3.166-0.886,4.225,0.388c1.058,1.272,0.886,3.161-0.383,4.221c-0.992,0.837-23.186,20.186,0.499,52.576
				c0.978,1.338,0.687,3.215-0.651,4.192C163.529,313.314,162.909,313.503,162.295,313.503z"/>
		</g>
		<path d="M226.772,142.291c-1.368,0-2.641-0.698-3.375-1.853l-22.363-35.146c-1.186-1.863-0.637-4.336,1.227-5.522
			s4.336-0.636,5.522,1.228l18.975,29.821l18.813-29.809c1.179-1.868,3.649-2.427,5.518-1.246c1.868,1.178,2.427,3.648,1.248,5.518
			l-22.183,35.145c-0.731,1.159-2.005,1.863-3.375,1.865C226.777,142.291,226.774,142.291,226.772,142.291z"/>
		<path d="M226.772,142.291c-2.209,0-4-1.791-4-4v-35.146c0-2.209,1.791-4,4-4s4,1.791,4,4v35.146
			C230.772,140.5,228.981,142.291,226.772,142.291z"/>
		<path d="M202.726,343.412c-0.768,0-1.536-0.293-2.122-0.879c-15.031-15.042-17.49-38.193-7.111-66.95
			c7.561-20.95,19.97-39.114,22.459-41.865c1.524-1.686,3.415-1.208,4.312-0.473c2.182,1.782,0.643,4.072-0.184,5.303
			c-0.671,0.997-1.658,2.384-2.855,4.01c-0.2,0.271-0.438,0.5-0.7,0.683c-4.547,6.938-12.06,19.669-17.335,34.23
			c-9.731,26.862-7.828,47.325,5.658,60.821c1.171,1.172,1.17,3.071-0.002,4.243C204.26,343.12,203.493,343.412,202.726,343.412z"/>
		<path d="M250.207,345.097c-0.933,0-1.852-0.433-2.438-1.248c-0.968-1.345-0.662-3.22,0.683-4.187
			c10.021-7.21,7.312-20.484,7.283-20.619c-0.347-1.62,0.686-3.215,2.306-3.562c1.62-0.346,3.214,0.686,3.562,2.306
			c0.15,0.7,3.523,17.27-9.646,26.745C251.427,344.914,250.814,345.097,250.207,345.097z"/>
	</g>
	<g id="rde훾a7bela_copy_3" display="inline">
	</g>
	<path display="inline" d="M12842.074,12787.396h-16737v-13953h16737V12787.396z M-3894.425,12786.396h16736l-0.5-13951h-16735.5
		l0.5,13951H-3894.425z"/>
</g>
<g id="linijsko" display="none">
	<g display="inline">
		<path fill="none" stroke="#000000" stroke-width="8" stroke-linecap="round" stroke-linejoin="round" stroke-miterlimit="10" d="
			M229.371,138.152c2.674,15.097,16.939,65.534,62.428,80.596c22.574,7.476,43.051,18.009,45.6,64.147l0.018,9.791
			c0,0.085,0,0.18-0.01,0.271c-2.758,30.308-29.029,53.989-59.818,53.989c-8.008,0-15.83-1.617-23.281-4.808l-1.508-0.645
			l-1.311,0.985c-6.893,5.181-15.035,7.92-23.551,7.92c-8.881,0-17.287-2.935-24.311-8.483l-1.9-1.503l-1.469,1.356
			c-7.65,3.444-15.813,5.19-24.266,5.19c-30.816,0-57.088-23.684-59.844-53.92c-0.01-0.109-0.02-0.233-0.02-0.354v-9.427
			c2.561-46.486,23.033-57.041,45.605-64.51c45.547-15.08,60.754-65.331,63.41-80.372L229.371,138.152z"/>
		<g>
			<path fill="none" stroke="#000000" stroke-width="6" stroke-linecap="round" stroke-linejoin="round" stroke-miterlimit="10" d="
				M272,242.589c0,0,27.07,18.047,20.422,67.914"/>
			<path fill="none" stroke="#000000" stroke-width="6" stroke-linecap="round" stroke-linejoin="round" stroke-miterlimit="10" d="
				M162.292,253.853c0,0-25.758,21.422,0,56.649"/>
		</g>
		
			<polyline fill="none" stroke="#000000" stroke-width="8" stroke-linecap="round" stroke-linejoin="round" stroke-miterlimit="10" points="
			204.409,103.145 226.772,138.291 248.955,103.145 		"/>
		
			<line fill="none" stroke="#000000" stroke-width="8" stroke-linecap="round" stroke-linejoin="round" stroke-miterlimit="10" x1="226.772" y1="103.145" x2="226.772" y2="138.291"/>
		<path fill="none" stroke="#000000" stroke-width="6" stroke-linecap="round" stroke-linejoin="round" stroke-miterlimit="10" d="
			M214.809,240.778c20.024-27.201-52.773,58.912-12.083,99.634"/>
		<path fill="none" stroke="#000000" stroke-width="6" stroke-linecap="round" stroke-linejoin="round" stroke-miterlimit="10" d="
			M258.669,318.415c0,0,3.264,15.243-8.465,23.682"/>
	</g>
	<g id="rde훾a7bela_copy" display="inline">
	</g>
</g>
<g id="pivot">
	<circle fill="none" cx="225.584" cy="346.371" r="14.132"/>
</g>
</svg>
