<?xml version="1.0" encoding="utf-8"?>
<!-- Generator: Adobe Illustrator 16.0.0, SVG Export Plug-In . SVG Version: 6.00 Build 0)  -->
<!DOCTYPE svg PUBLIC "-//W3C//DTD SVG 1.1//EN" "http://www.w3.org/Graphics/SVG/1.1/DTD/svg11.dtd">
<svg version="1.1" xmlns="http://www.w3.org/2000/svg" xmlns:xlink="http://www.w3.org/1999/xlink" x="0px" y="0px"
	 width="453.543px" height="453.543px" viewBox="0 0 453.543 453.543" enable-background="new 0 0 453.543 453.543"
	 xml:space="preserve">
<g id="kvadrat">
</g>
<g id="bg" display="none">
	<rect x="-832.959" y="-10439.585" display="inline" width="15266.867" height="13678.951"/>
</g>
<g id="barvno" display="none">
	<g id="rde훾a7bela" display="inline">
	</g>
	<g display="inline">
		
			<circle fill="#BD1622" stroke="#000000" stroke-width="8" stroke-linecap="round" stroke-linejoin="round" stroke-miterlimit="10" cx="156.969" cy="309.98" r="51.853"/>
		
			<circle fill="#BD1622" stroke="#000000" stroke-width="8" stroke-linecap="round" stroke-linejoin="round" stroke-miterlimit="10" cx="296.574" cy="309.98" r="51.853"/>
		
			<path fill="#7E4E24" stroke="#000000" stroke-width="8" stroke-linecap="round" stroke-linejoin="round" stroke-miterlimit="10" d="
			M286.528,284.762c-0.129,0.009-0.27,0.009-0.389,0.009c-3.182,0-5.861-2.46-6.07-5.69c-0.291-4.538-0.77-9.029-1.42-13.47
			c-0.59-4.098-1.34-8.149-2.211-12.159c-9.889-45.5-36.539-85.1-59.459-112.31c-4.131-4.9-8.131-9.392-11.9-13.451
			c-14.641-15.79-25.641-24.929-25.961-25.19c-2.59-2.129-2.969-5.958-0.85-8.56c2.141-2.6,5.971-2.979,8.57-0.85
			c2.331,1.909,35.02,29.079,63.44,71.63c6.48,9.69,12.73,20.18,18.351,31.35c8.43,16.761,15.45,35.04,19.659,54.472
			c0.861,3.938,1.602,7.938,2.201,11.971c0.799,5.188,1.379,10.458,1.719,15.788C292.419,281.65,289.879,284.542,286.528,284.762z"
			/>
		
			<path fill="#7E4E24" stroke="#000000" stroke-width="8" stroke-linecap="round" stroke-linejoin="round" stroke-miterlimit="10" d="
			M216.979,141.142c-0.25,21.459-3.801,69.549-27.621,118.339c-1.76,3.62-3.639,7.24-5.629,10.851
			c-1.361,2.461-2.781,4.919-4.25,7.381c-1.141,1.898-3.15,2.949-5.221,2.949c-1.061,0-2.15-0.28-3.119-0.869
			c-2.892-1.722-3.82-5.461-2.09-8.341c1.309-2.189,2.58-4.39,3.799-6.6c2.01-3.621,3.891-7.262,5.641-10.891
			c8.92-18.391,14.84-36.8,18.759-53.58c3.09-13.211,4.931-25.41,6.03-35.801c2.141-20.43,1.371-33.859,1.351-34.169
			c-0.06-0.96,0.11-1.891,0.45-2.721c0.859-2.069,2.83-3.59,5.221-3.75c3.289-0.25,6.25,2.321,6.469,5.67
			C216.819,130.301,217.06,134.411,216.979,141.142z"/>
		
			<path fill="#39A935" stroke="#000000" stroke-width="8" stroke-linecap="round" stroke-linejoin="round" stroke-miterlimit="10" d="
			M215.323,121.635c4.078,26.384-2.27,47.642-18.889,63.236c-22.959,21.547-59.203,27.388-75.779,28.947
			c6.324-35.638,17.971-61.624,34.66-77.285C178.612,114.671,205.526,119.034,215.323,121.635z"/>
		<path fill="none" stroke="#000000" stroke-width="6" stroke-linecap="round" stroke-linejoin="round" stroke-miterlimit="10" d="
			M312.137,340.895c0,0,25.004-10.021,14.068-37.669"/>
	</g>
	
		<path display="inline" fill="#39A935" stroke="#000000" stroke-width="8" stroke-linecap="round" stroke-linejoin="round" stroke-miterlimit="10" d="
		M216.853,119.635c-4.078,26.384,2.27,47.642,18.889,63.236c22.959,21.547,59.203,27.388,75.779,28.947
		c-6.324-35.638-17.971-61.624-34.66-77.285C253.563,112.671,226.649,117.034,216.853,119.635z"/>
	
		<rect x="-1343.244" y="-10859.594" display="inline" fill="none" stroke="#000000" stroke-miterlimit="10" width="16736" height="13952"/>
</g>
<g id="barvno_copy_2">
	<g id="rde훾a7bela_copy_4">
	</g>
	<g>
		<g>
			<circle fill="#FF0000" cx="156.969" cy="309.98" r="51.853"/>
			<path d="M156.968,365.832c-30.797,0-55.852-25.055-55.852-55.852s25.055-55.852,55.852-55.852
				c30.798,0,55.854,25.055,55.854,55.852S187.766,365.832,156.968,365.832z M156.968,262.129
				c-26.386,0-47.852,21.466-47.852,47.852s21.466,47.852,47.852,47.852c26.387,0,47.854-21.466,47.854-47.852
				S183.354,262.129,156.968,262.129z"/>
		</g>
		<g>
			<circle fill="#FF0000" cx="296.574" cy="309.98" r="51.853"/>
			<path d="M296.573,365.832c-30.797,0-55.852-25.055-55.852-55.852s25.055-55.852,55.852-55.852
				c30.798,0,55.854,25.055,55.854,55.852S327.371,365.832,296.573,365.832z M296.573,262.129
				c-26.386,0-47.852,21.466-47.852,47.852s21.466,47.852,47.852,47.852c26.387,0,47.854-21.466,47.854-47.852
				S322.96,262.129,296.573,262.129z"/>
		</g>
		<g>
			<path fill="#00FF00" d="M286.528,284.762c-0.129,0.009-0.27,0.009-0.389,0.009c-3.182,0-5.861-2.46-6.07-5.69
				c-0.291-4.538-0.77-9.029-1.42-13.47c-0.59-4.098-1.34-8.149-2.211-12.159c-9.889-45.5-36.539-85.1-59.459-112.31
				c-4.131-4.9-8.131-9.392-11.9-13.451c-14.641-15.79-25.641-24.929-25.961-25.19c-2.59-2.129-2.969-5.958-0.85-8.56
				c2.141-2.6,5.971-2.979,8.57-0.85c2.331,1.909,35.02,29.079,63.44,71.63c6.48,9.69,12.73,20.18,18.351,31.35
				c8.43,16.761,15.45,35.04,19.659,54.472c0.861,3.938,1.602,7.938,2.201,11.971c0.799,5.188,1.379,10.458,1.719,15.788
				C292.419,281.65,289.879,284.542,286.528,284.762z"/>
			<path d="M286.14,288.771c-5.3,0-9.72-4.144-10.062-9.433c-0.279-4.351-0.745-8.773-1.386-13.147
				c-0.549-3.814-1.276-7.812-2.162-11.89c-9.926-45.673-37.351-85.345-58.61-110.582c-3.812-4.522-7.773-9-11.772-13.307
				c-14.5-15.639-25.456-24.729-25.562-24.815c-4.287-3.524-4.92-9.884-1.419-14.183c1.942-2.358,4.787-3.702,7.818-3.702
				c2.322,0,4.59,0.812,6.388,2.285c1.425,1.167,35.237,29.091,64.231,72.502c6.995,10.46,13.253,21.15,18.598,31.773
				c9.312,18.514,16.039,37.161,19.995,55.423c0.891,4.072,1.647,8.189,2.249,12.229c0.821,5.335,1.413,10.766,1.754,16.121
				c0.349,5.542-3.873,10.344-9.41,10.707C286.581,288.768,286.342,288.771,286.14,288.771z M182.985,95.712
				c-0.632,0-1.226,0.281-1.629,0.771c-0.715,0.877-0.585,2.197,0.302,2.927c0.101,0.082,11.371,9.4,26.354,25.561
				c4.084,4.398,8.13,8.972,12.026,13.593c21.842,25.931,50.035,66.764,60.309,114.038c0.926,4.263,1.687,8.448,2.261,12.438
				c0.671,4.579,1.16,9.22,1.453,13.784c0.071,1.091,0.984,1.946,2.079,1.946l0.142-0.001c1.132-0.074,2.007-1.069,1.935-2.218
				c-0.326-5.116-0.892-10.309-1.68-15.431c-0.577-3.883-1.301-7.82-2.155-11.725c-3.814-17.61-10.315-35.617-19.325-53.529
				c-5.198-10.329-11.288-20.733-18.103-30.923c-28.341-42.434-61.262-69.622-62.649-70.759
				C183.826,95.794,183.324,95.712,182.985,95.712z"/>
		</g>
		<g>
			<path fill="#00FF00" d="M216.979,141.142c-0.25,21.459-3.801,69.549-27.621,118.339c-1.76,3.62-3.639,7.24-5.629,10.851
				c-1.361,2.461-2.781,4.919-4.25,7.381c-1.141,1.898-3.15,2.949-5.221,2.949c-1.061,0-2.15-0.28-3.119-0.869
				c-2.892-1.722-3.82-5.461-2.09-8.341c1.309-2.189,2.58-4.39,3.799-6.6c2.01-3.621,3.891-7.262,5.641-10.891
				c8.92-18.391,14.84-36.8,18.759-53.58c3.09-13.211,4.931-25.41,6.03-35.801c2.141-20.43,1.371-33.859,1.351-34.169
				c-0.06-0.96,0.11-1.891,0.45-2.721c0.859-2.069,2.83-3.59,5.221-3.75c3.289-0.25,6.25,2.321,6.469,5.67
				C216.819,130.301,217.06,134.411,216.979,141.142z"/>
			<path d="M174.259,284.661c-1.838,0-3.635-0.502-5.197-1.451c-2.284-1.359-3.92-3.558-4.578-6.17
				c-0.658-2.617-0.254-5.334,1.137-7.649c1.333-2.229,2.588-4.41,3.725-6.472c1.935-3.486,3.797-7.082,5.54-10.695
				c7.868-16.221,14.08-33.967,18.467-52.753c2.679-11.452,4.68-23.332,5.948-35.312c2.119-20.225,1.345-33.363,1.337-33.494
				c-0.096-1.524,0.16-3.075,0.74-4.49c1.49-3.589,4.804-5.968,8.655-6.226c0.214-0.017,0.463-0.025,0.71-0.025
				c5.272,0,9.673,4.141,10.018,9.426c0.001,0.01,0.309,4.299,0.22,11.84c-0.279,23.966-4.292,71.431-28.026,120.046
				c-1.772,3.646-3.698,7.358-5.721,11.026c-1.339,2.421-2.75,4.872-4.318,7.5C181.068,282.834,177.834,284.661,174.259,284.661z
				 M210.742,127.924c-0.046,0-0.093,0.002-0.139,0.005c-0.989,0.066-1.587,0.713-1.83,1.296c-0.117,0.285-0.172,0.615-0.152,0.937
				c0.008,0.127,0.847,13.727-1.365,34.836c-1.303,12.313-3.36,24.522-6.114,36.295c-4.522,19.361-10.933,37.669-19.055,54.415
				c-1.805,3.742-3.738,7.475-5.742,11.086c-1.177,2.133-2.478,4.394-3.863,6.71c-0.292,0.487-0.376,1.047-0.24,1.586
				c0.078,0.31,0.304,0.886,0.943,1.267c0.422,0.256,0.813,0.306,1.073,0.306c0.742,0,1.412-0.378,1.792-1.01
				c1.516-2.541,2.885-4.918,4.178-7.257c1.954-3.544,3.815-7.134,5.531-10.663c23.051-47.214,26.948-93.342,27.219-116.637
				c0.086-7.204-0.197-11.152-0.2-11.19C212.708,128.815,211.776,127.924,210.742,127.924z"/>
		</g>
		<g>
			<path fill="#00FF00" d="M215.323,121.635c4.078,26.384-2.27,47.642-18.889,63.236c-22.959,21.547-59.203,27.388-75.779,28.947
				c6.324-35.638,17.971-61.624,34.66-77.285C178.612,114.671,205.526,119.034,215.323,121.635z"/>
			<path d="M120.655,217.818c-1.112,0-2.18-0.464-2.941-1.29c-0.846-0.918-1.215-2.179-0.997-3.409
				c6.478-36.503,18.543-63.252,35.861-79.503c16.008-15.021,33.655-18.175,45.641-18.175c7.739,0,14.131,1.266,18.131,2.327
				c1.535,0.407,2.684,1.686,2.927,3.255c4.291,27.758-2.474,50.221-20.104,66.765c-23.35,21.914-58.981,28.21-78.142,30.013
				C120.905,217.813,120.779,217.818,120.655,217.818z M198.219,123.441c-15.333,0-28.847,5.386-40.166,16.009
				c-15.211,14.273-26.124,37.741-32.471,69.802c16.819-2.115,48.059-8.475,68.116-27.298
				c15.037-14.109,21.102-33.299,18.047-57.068C208.28,124.134,203.625,123.441,198.219,123.441z"/>
		</g>
		<path d="M312.138,343.896c-1.19,0-2.316-0.713-2.786-1.885c-0.615-1.535,0.128-3.278,1.661-3.897l0,0
			c0.906-0.369,22.077-9.325,12.403-33.784c-0.609-1.541,0.146-3.284,1.686-3.894c1.541-0.608,3.284,0.146,3.893,1.687
			c11.896,30.078-15.464,41.446-15.742,41.558C312.887,343.826,312.509,343.896,312.138,343.896z"/>
	</g>
	<g>
		<path fill="#00FF00" d="M216.853,119.635c-4.078,26.384,2.27,47.642,18.889,63.236c22.959,21.547,59.203,27.388,75.779,28.947
			c-6.324-35.638-17.971-61.624-34.66-77.285C253.563,112.671,226.649,117.034,216.853,119.635z"/>
		<path d="M311.521,215.818c-0.125,0-0.25-0.006-0.375-0.018c-19.161-1.803-54.792-8.099-78.142-30.013
			c-17.631-16.544-24.395-39.007-20.104-66.765c0.243-1.569,1.392-2.848,2.927-3.255c4-1.062,10.392-2.327,18.131-2.327
			c11.985,0,29.633,3.153,45.641,18.175c17.318,16.251,29.383,43,35.861,79.503c0.218,1.23-0.15,2.491-0.997,3.409
			C313.701,215.354,312.633,215.818,311.521,215.818z M220.432,122.886c-3.055,23.77,3.01,42.959,18.047,57.068
			c20.057,18.823,51.297,25.183,68.116,27.298c-6.347-32.061-17.26-55.528-32.471-69.802
			c-11.319-10.623-24.833-16.009-40.166-16.009C228.551,121.441,223.896,122.134,220.432,122.886z"/>
	</g>
	<rect x="-1343.244" y="-10859.594" fill="none" stroke="#000000" stroke-miterlimit="10" width="16736" height="13952"/>
</g>
<g id="sivinsko" display="none">
	<g id="rde훾a7bela_copy_3" display="inline">
	</g>
	<g display="inline">
		<g>
			<circle fill="#494949" cx="156.969" cy="309.98" r="51.853"/>
			<path d="M156.968,365.832c-30.797,0-55.852-25.055-55.852-55.852s25.054-55.852,55.852-55.852
				c30.798,0,55.854,25.055,55.854,55.852S187.766,365.832,156.968,365.832z M156.968,262.129
				c-26.386,0-47.852,21.466-47.852,47.852s21.466,47.852,47.852,47.852c26.387,0,47.854-21.466,47.854-47.852
				S183.354,262.129,156.968,262.129z"/>
		</g>
		<g>
			<circle fill="#494949" cx="296.574" cy="309.98" r="51.853"/>
			<path d="M296.573,365.832c-30.797,0-55.852-25.055-55.852-55.852s25.055-55.852,55.852-55.852
				c30.798,0,55.854,25.055,55.854,55.852S327.371,365.832,296.573,365.832z M296.573,262.129
				c-26.386,0-47.852,21.466-47.852,47.852s21.466,47.852,47.852,47.852c26.387,0,47.854-21.466,47.854-47.852
				S322.96,262.129,296.573,262.129z"/>
		</g>
		<g>
			<path fill="#585858" d="M286.528,284.762c-0.129,0.009-0.27,0.009-0.389,0.009c-3.182,0-5.861-2.46-6.07-5.69
				c-0.291-4.538-0.77-9.029-1.42-13.47c-0.59-4.098-1.34-8.149-2.211-12.159c-9.889-45.5-36.539-85.1-59.459-112.31
				c-4.131-4.9-8.131-9.392-11.9-13.451c-14.641-15.79-25.641-24.929-25.961-25.19c-2.59-2.129-2.969-5.958-0.85-8.56
				c2.141-2.6,5.971-2.979,8.57-0.85c2.331,1.909,35.02,29.079,63.44,71.63c6.48,9.69,12.73,20.18,18.351,31.35
				c8.43,16.761,15.45,35.04,19.659,54.472c0.861,3.938,1.602,7.938,2.201,11.971c0.799,5.188,1.379,10.458,1.719,15.788
				C292.419,281.65,289.879,284.542,286.528,284.762z"/>
			<path d="M286.14,288.771c-5.3,0-9.72-4.144-10.062-9.433c-0.279-4.351-0.745-8.773-1.386-13.147
				c-0.549-3.814-1.276-7.812-2.162-11.89c-9.926-45.673-37.351-85.345-58.61-110.582c-3.812-4.522-7.773-9-11.772-13.307
				c-14.5-15.639-25.456-24.729-25.562-24.815c-4.288-3.524-4.92-9.884-1.419-14.183c1.942-2.358,4.787-3.702,7.818-3.702
				c2.322,0,4.59,0.812,6.388,2.285c1.425,1.167,35.237,29.091,64.231,72.502c6.995,10.46,13.253,21.15,18.598,31.773
				c9.312,18.514,16.039,37.161,19.995,55.423c0.89,4.072,1.647,8.189,2.249,12.229c0.821,5.335,1.413,10.766,1.754,16.121
				c0.348,5.542-3.873,10.344-9.41,10.707C286.581,288.768,286.342,288.771,286.14,288.771z M182.985,95.712
				c-0.632,0-1.226,0.281-1.629,0.771c-0.715,0.877-0.585,2.197,0.302,2.927c0.101,0.082,11.371,9.4,26.354,25.561
				c4.084,4.398,8.13,8.972,12.026,13.593c21.842,25.931,50.035,66.764,60.309,114.038c0.926,4.263,1.687,8.448,2.261,12.438
				c0.671,4.579,1.16,9.22,1.453,13.784c0.07,1.091,0.984,1.946,2.079,1.946l0.142-0.001c1.132-0.074,2.007-1.069,1.935-2.218
				c-0.326-5.116-0.892-10.309-1.68-15.431c-0.577-3.883-1.301-7.82-2.155-11.725c-3.814-17.61-10.315-35.617-19.325-53.529
				c-5.198-10.329-11.288-20.733-18.103-30.923c-28.341-42.434-61.262-69.622-62.649-70.759
				C183.826,95.794,183.324,95.712,182.985,95.712z"/>
		</g>
		<g>
			<path fill="#585858" d="M216.979,141.142c-0.25,21.459-3.801,69.549-27.621,118.339c-1.76,3.62-3.639,7.24-5.629,10.851
				c-1.361,2.461-2.781,4.919-4.25,7.381c-1.141,1.898-3.15,2.949-5.221,2.949c-1.061,0-2.15-0.28-3.119-0.869
				c-2.892-1.722-3.82-5.461-2.09-8.341c1.309-2.189,2.58-4.39,3.799-6.6c2.01-3.621,3.891-7.262,5.641-10.891
				c8.92-18.391,14.84-36.8,18.759-53.58c3.09-13.211,4.931-25.41,6.03-35.801c2.141-20.43,1.371-33.859,1.351-34.169
				c-0.06-0.96,0.11-1.891,0.45-2.721c0.859-2.069,2.83-3.59,5.221-3.75c3.289-0.25,6.25,2.321,6.469,5.67
				C216.819,130.301,217.06,134.411,216.979,141.142z"/>
			<path d="M174.259,284.661c-1.838,0-3.635-0.502-5.197-1.451c-2.284-1.359-3.92-3.558-4.578-6.17
				c-0.658-2.617-0.254-5.334,1.137-7.649c1.333-2.229,2.588-4.41,3.725-6.472c1.935-3.486,3.797-7.082,5.54-10.695
				c7.867-16.221,14.08-33.967,18.467-52.753c2.679-11.452,4.68-23.332,5.948-35.312c2.119-20.225,1.345-33.363,1.337-33.494
				c-0.096-1.524,0.16-3.075,0.74-4.49c1.49-3.589,4.804-5.968,8.655-6.226c0.214-0.017,0.463-0.025,0.71-0.025
				c5.272,0,9.673,4.141,10.018,9.426c0.001,0.01,0.309,4.299,0.22,11.84c-0.279,23.966-4.292,71.431-28.026,120.046
				c-1.772,3.646-3.699,7.358-5.721,11.026c-1.339,2.421-2.75,4.872-4.318,7.5C181.067,282.834,177.834,284.661,174.259,284.661z
				 M210.742,127.924c-0.046,0-0.093,0.002-0.139,0.005c-0.989,0.066-1.587,0.713-1.83,1.296c-0.117,0.285-0.172,0.615-0.152,0.937
				c0.008,0.127,0.847,13.727-1.365,34.836c-1.303,12.313-3.359,24.522-6.113,36.295c-4.522,19.361-10.933,37.669-19.055,54.415
				c-1.805,3.742-3.738,7.475-5.742,11.086c-1.177,2.133-2.478,4.394-3.863,6.71c-0.292,0.487-0.376,1.047-0.24,1.586
				c0.078,0.31,0.303,0.886,0.943,1.267c0.422,0.256,0.813,0.306,1.073,0.306c0.742,0,1.412-0.378,1.792-1.01
				c1.515-2.541,2.885-4.918,4.178-7.257c1.954-3.544,3.815-7.134,5.531-10.663c23.051-47.214,26.948-93.342,27.219-116.637
				c0.086-7.204-0.197-11.152-0.2-11.19C212.708,128.815,211.776,127.924,210.742,127.924z"/>
		</g>
		<g>
			<path fill="#7B7B7B" d="M215.323,121.635c4.078,26.384-2.27,47.642-18.889,63.236c-22.959,21.547-59.203,27.388-75.779,28.947
				c6.324-35.638,17.971-61.624,34.66-77.285C178.612,114.671,205.526,119.034,215.323,121.635z"/>
			<path d="M120.655,217.818c-1.112,0-2.18-0.464-2.941-1.29c-0.846-0.918-1.215-2.179-0.997-3.409
				c6.478-36.503,18.543-63.252,35.861-79.503c16.008-15.021,33.655-18.175,45.641-18.175c7.739,0,14.131,1.266,18.131,2.327
				c1.535,0.407,2.684,1.686,2.927,3.255c4.29,27.758-2.474,50.221-20.105,66.765c-23.35,21.914-58.98,28.21-78.142,30.013
				C120.905,217.813,120.779,217.818,120.655,217.818z M198.219,123.441c-15.333,0-28.847,5.386-40.166,16.009
				c-15.211,14.273-26.124,37.741-32.471,69.802c16.819-2.115,48.059-8.475,68.116-27.298
				c15.037-14.109,21.102-33.299,18.047-57.068C208.28,124.134,203.625,123.441,198.219,123.441z"/>
		</g>
		<path d="M312.138,343.896c-1.19,0-2.316-0.713-2.786-1.885c-0.615-1.535,0.128-3.278,1.661-3.897l0,0
			c0.906-0.369,22.077-9.325,12.403-33.784c-0.609-1.541,0.146-3.284,1.686-3.894c1.541-0.608,3.284,0.146,3.893,1.687
			c11.896,30.078-15.464,41.446-15.742,41.558C312.887,343.826,312.509,343.896,312.138,343.896z"/>
	</g>
	<g display="inline">
		<path fill="#7B7B7B" d="M216.853,119.635c-4.078,26.384,2.27,47.642,18.889,63.236c22.959,21.547,59.203,27.388,75.779,28.947
			c-6.324-35.638-17.971-61.624-34.66-77.285C253.563,112.671,226.649,117.034,216.853,119.635z"/>
		<path d="M311.521,215.818c-0.125,0-0.25-0.006-0.375-0.018c-19.162-1.803-54.792-8.099-78.143-30.013
			c-17.63-16.544-24.395-39.007-20.104-66.765c0.243-1.569,1.392-2.848,2.927-3.255c4-1.062,10.392-2.327,18.131-2.327
			c11.985,0,29.632,3.153,45.641,18.175c17.318,16.251,29.383,43,35.861,79.503c0.218,1.23-0.15,2.491-0.997,3.409
			C313.701,215.354,312.633,215.818,311.521,215.818z M220.432,122.886c-3.055,23.77,3.01,42.959,18.047,57.068
			c20.057,18.823,51.297,25.183,68.116,27.298c-6.347-32.061-17.26-55.528-32.471-69.802
			c-11.319-10.623-24.833-16.009-40.166-16.009C228.551,121.441,223.896,122.134,220.432,122.886z"/>
	</g>
	<path display="inline" d="M15393.256,3092.906h-16737v-13953h16737V3092.906z M-1343.244,3091.906h16736l-0.5-13951h-16735.5
		l0.5,13951H-1343.244z"/>
</g>
<g id="linijsko" display="none">
	<g id="rde훾a7bela_copy" display="inline">
	</g>
	
		<path display="inline" fill="none" stroke="#000000" stroke-width="6" stroke-linecap="round" stroke-linejoin="round" stroke-miterlimit="10" d="
		M312.137,340.895c0,0,25.004-10.021,14.068-37.669"/>
	<g display="inline">
		<path fill="none" stroke="#000000" stroke-width="8" stroke-linecap="round" stroke-linejoin="round" stroke-miterlimit="10" d="
			M174.771,261.267c-5.552-2.03-11.548-3.138-17.803-3.138c-28.638,0-51.852,23.216-51.852,51.852
			c0,28.637,23.214,51.852,51.852,51.852c28.639,0,51.854-23.215,51.854-51.852c0-18.037-9.215-33.916-23.189-43.206"/>
		<path fill="none" stroke="#000000" stroke-width="8" stroke-linecap="round" stroke-linejoin="round" stroke-miterlimit="10" d="
			M278.008,261.566c-19.463,7.469-33.286,26.322-33.286,48.414c0,28.637,23.215,51.852,51.852,51.852
			c28.639,0,51.854-23.215,51.854-51.852c0-28.636-23.215-51.852-51.854-51.852c-2.286,0-4.531,0.164-6.739,0.45"/>
		<path fill="none" stroke="#000000" stroke-width="8" stroke-linecap="round" stroke-linejoin="round" stroke-miterlimit="10" d="
			M197.206,119.455c-10.548-10.695-17.828-16.743-18.087-16.955c-2.59-2.129-2.969-5.958-0.85-8.56c2.141-2.6,5.971-2.979,8.57-0.85
			c1.404,1.149,13.827,11.476,29.692,28.796"/>
		<path fill="none" stroke="#000000" stroke-width="8" stroke-linecap="round" stroke-linejoin="round" stroke-miterlimit="10" d="
			M289.834,258.579c0.225,1.31,0.459,2.616,0.655,3.934c0.799,5.188,1.379,10.458,1.719,15.788c0.211,3.35-2.329,6.241-5.68,6.461
			c-0.129,0.009-0.27,0.009-0.389,0.009c-3.182,0-5.861-2.46-6.07-5.69c-0.291-4.538-0.77-9.029-1.42-13.47
			c-0.195-1.354-0.413-2.7-0.642-4.044"/>
		<path fill="none" stroke="#000000" stroke-width="8" stroke-linecap="round" stroke-linejoin="round" stroke-miterlimit="10" d="
			M216.427,140.494c0.186,0.219,0.367,0.428,0.553,0.647"/>
		<path fill="none" stroke="#000000" stroke-width="8" stroke-linecap="round" stroke-linejoin="round" stroke-miterlimit="10" d="
			M289.834,258.579c-0.464-2.698-0.966-5.386-1.546-8.037c-3.586-16.558-9.218-32.273-16.019-46.931"/>
		<path fill="none" stroke="#000000" stroke-width="8" stroke-linecap="round" stroke-linejoin="round" stroke-miterlimit="10" d="
			M278.008,261.566c-0.463-2.725-0.986-5.43-1.569-8.115c-4.454-20.494-12.314-39.785-21.696-57.291"/>
		<path fill="none" stroke="#000000" stroke-width="8" stroke-linecap="round" stroke-linejoin="round" stroke-miterlimit="10" d="
			M216.427,140.494c-0.2-0.236-0.398-0.466-0.598-0.7"/>
		<path fill="none" stroke="#000000" stroke-width="8" stroke-linecap="round" stroke-linejoin="round" stroke-miterlimit="10" d="
			M185.632,266.774c-0.629,1.187-1.25,2.372-1.903,3.557c-1.361,2.461-2.781,4.919-4.25,7.381c-1.141,1.898-3.15,2.949-5.221,2.949
			c-1.061,0-2.15-0.28-3.119-0.869c-2.892-1.722-3.82-5.461-2.09-8.341c1.309-2.189,2.58-4.39,3.799-6.6
			c0.662-1.193,1.288-2.389,1.922-3.585"/>
		<path fill="none" stroke="#000000" stroke-width="8" stroke-linecap="round" stroke-linejoin="round" stroke-miterlimit="10" d="
			M201.256,179.847c-1.023,6.464-2.325,13.341-4.008,20.534c-3.919,16.78-9.839,35.189-18.759,53.58
			c-1.174,2.434-2.428,4.871-3.719,7.306"/>
		<path fill="none" stroke="#000000" stroke-width="8" stroke-linecap="round" stroke-linejoin="round" stroke-miterlimit="10" d="
			M216.804,147.949c0.097-2.494,0.151-4.771,0.175-6.808"/>
		<path fill="none" stroke="#000000" stroke-width="8" stroke-linecap="round" stroke-linejoin="round" stroke-miterlimit="10" d="
			M216.979,141.142c0.08-6.73-0.16-10.841-0.211-11.531c-0.06-0.914-0.329-1.767-0.749-2.522"/>
		<path fill="none" stroke="#000000" stroke-width="8" stroke-linecap="round" stroke-linejoin="round" stroke-miterlimit="10" d="
			M185.632,266.774c1.288-2.43,2.543-4.861,3.726-7.294c21.561-44.161,26.514-87.746,27.446-111.531"/>
		<path fill="none" stroke="#000000" stroke-width="8" stroke-linecap="round" stroke-linejoin="round" stroke-miterlimit="10" d="
			M215.974,127.007c0.015,0.026,0.03,0.054,0.046,0.081"/>
		<path fill="none" stroke="#000000" stroke-width="8" stroke-linecap="round" stroke-linejoin="round" stroke-miterlimit="10" d="
			M197.206,119.455c7.829-0.117,14.286,1.162,18.118,2.18c0.27,1.744,0.49,3.463,0.669,5.162"/>
		<path fill="none" stroke="#000000" stroke-width="8" stroke-linecap="round" stroke-linejoin="round" stroke-miterlimit="10" d="
			M201.256,179.847c8.684-10.042,13.672-22.099,14.936-36.052"/>
		<path fill="none" stroke="#000000" stroke-width="8" stroke-linecap="round" stroke-linejoin="round" stroke-miterlimit="10" d="
			M216.02,127.088c0.474,4.637,0.612,9.109,0.407,13.406"/>
		<path fill="none" stroke="#000000" stroke-width="8" stroke-linecap="round" stroke-linejoin="round" stroke-miterlimit="10" d="
			M216.191,143.795c0.099-1.09,0.182-2.188,0.235-3.301"/>
		<path fill="none" stroke="#000000" stroke-width="8" stroke-linecap="round" stroke-linejoin="round" stroke-miterlimit="10" d="
			M215.992,126.797c0.01,0.098,0.018,0.193,0.028,0.291"/>
		<path fill="none" stroke="#000000" stroke-width="8" stroke-linecap="round" stroke-linejoin="round" stroke-miterlimit="10" d="
			M197.206,119.455c-12.187,0.185-27.706,3.767-41.89,17.078c-16.689,15.661-28.336,41.647-34.66,77.285
			c16.576-1.56,52.82-7.4,75.779-28.947c1.719-1.613,3.322-3.291,4.821-5.024"/>
		<path fill="none" stroke="#000000" stroke-width="8" stroke-linecap="round" stroke-linejoin="round" stroke-miterlimit="10" d="
			M216.191,143.795c0.166,1.404,0.37,2.789,0.613,4.154"/>
		<path fill="none" stroke="#000000" stroke-width="8" stroke-linecap="round" stroke-linejoin="round" stroke-miterlimit="10" d="
			M215.992,126.797c-0.006,0.07-0.012,0.141-0.018,0.21"/>
		<path fill="none" stroke="#000000" stroke-width="8" stroke-linecap="round" stroke-linejoin="round" stroke-miterlimit="10" d="
			M216.191,143.795c-0.154-1.316-0.276-2.65-0.363-4.001"/>
		<path fill="none" stroke="#000000" stroke-width="8" stroke-linecap="round" stroke-linejoin="round" stroke-miterlimit="10" d="
			M215.992,126.797c0.137-1.616,0.317-3.253,0.538-4.91"/>
		<path fill="none" stroke="#000000" stroke-width="8" stroke-linecap="round" stroke-linejoin="round" stroke-miterlimit="10" d="
			M254.742,196.16c-6.814-3.584-13.315-7.953-19.001-13.289c-10.183-9.555-16.502-21.239-18.937-34.922"/>
		<path fill="none" stroke="#000000" stroke-width="8" stroke-linecap="round" stroke-linejoin="round" stroke-miterlimit="10" d="
			M215.974,127.007c-0.366,4.421-0.41,8.683-0.146,12.787"/>
		<path fill="none" stroke="#000000" stroke-width="8" stroke-linecap="round" stroke-linejoin="round" stroke-miterlimit="10" d="
			M272.269,203.611c15.368,5.232,30.226,7.357,39.251,8.207c-6.324-35.638-17.971-61.624-34.66-77.285
			c-23.297-21.862-50.211-17.499-60.008-14.898c-0.117,0.755-0.223,1.505-0.322,2.252"/>
		<path fill="none" stroke="#000000" stroke-width="8" stroke-linecap="round" stroke-linejoin="round" stroke-miterlimit="10" d="
			M272.269,203.611c-5.868-1.998-11.807-4.443-17.527-7.451"/>
	</g>
</g>
<g id="pivot">
	<circle fill="none" cx="218.748" cy="362.022" r="14.132"/>
</g>
</svg>
