<?xml version="1.0" encoding="utf-8"?>
<!-- Generator: Adobe Illustrator 16.0.0, SVG Export Plug-In . SVG Version: 6.00 Build 0)  -->
<!DOCTYPE svg PUBLIC "-//W3C//DTD SVG 1.1//EN" "http://www.w3.org/Graphics/SVG/1.1/DTD/svg11.dtd">
<svg version="1.1" xmlns="http://www.w3.org/2000/svg" xmlns:xlink="http://www.w3.org/1999/xlink" x="0px" y="0px"
	 width="453.543px" height="453.543px" viewBox="0 0 453.543 453.543" enable-background="new 0 0 453.543 453.543"
	 xml:space="preserve">
<g id="kvadrat">
</g>
<g id="bg" display="none">
	<rect x="-2873.904" y="-234.859" display="inline" width="15266.867" height="13678.951"/>
</g>
<g id="barvno" display="none">
	<g id="rde훾a7bela" display="inline">
	</g>
	<g display="inline">
		
			<circle fill="#BD1622" stroke="#000000" stroke-width="8" stroke-linecap="round" stroke-linejoin="round" stroke-miterlimit="10" cx="156.969" cy="309.98" r="51.852"/>
		
			<circle fill="#BD1622" stroke="#000000" stroke-width="8" stroke-linecap="round" stroke-linejoin="round" stroke-miterlimit="10" cx="296.574" cy="309.98" r="51.853"/>
		
			<path fill="#7E4E24" stroke="#000000" stroke-width="8" stroke-linecap="round" stroke-linejoin="round" stroke-miterlimit="10" d="
			M286.529,284.761c-0.129,0.009-0.27,0.009-0.389,0.009c-3.182,0-5.861-2.46-6.07-5.689c-0.291-4.541-0.77-9.031-1.42-13.471
			c-0.59-4.099-1.34-8.15-2.211-12.159c-9.889-45.5-36.539-85.1-59.459-112.31c-4.131-4.9-8.131-9.391-11.9-13.451
			c-14.641-15.79-25.641-24.929-25.961-25.19c-2.59-2.129-2.969-5.96-0.85-8.56c2.141-2.6,5.971-2.98,8.57-0.85
			c2.33,1.91,35.02,29.08,63.439,71.631c6.48,9.69,12.73,20.179,18.352,31.349c8.43,16.761,15.449,35.04,19.658,54.47
			c0.861,3.94,1.602,7.94,2.201,11.971c0.799,5.19,1.379,10.46,1.719,15.79C292.419,281.65,289.88,284.54,286.529,284.761z"/>
		
			<path fill="#7E4E24" stroke="#000000" stroke-width="8" stroke-linecap="round" stroke-linejoin="round" stroke-miterlimit="10" d="
			M216.98,141.141c-0.25,21.46-3.801,69.549-27.621,118.339c-1.76,3.621-3.639,7.241-5.629,10.851
			c-1.361,2.459-2.781,4.919-4.25,7.379c-1.141,1.9-3.15,2.951-5.221,2.951c-1.06,0-2.15-0.281-3.119-0.871
			c-2.891-1.72-3.82-5.459-2.09-8.339c1.309-2.19,2.58-4.391,3.799-6.6c2.01-3.621,3.891-7.261,5.641-10.891
			c8.92-18.39,14.84-36.799,18.76-53.58c3.09-13.21,4.93-25.409,6.029-35.799c2.141-20.431,1.371-33.86,1.352-34.17
			c-0.061-0.96,0.109-1.891,0.449-2.721c0.859-2.069,2.83-3.589,5.22-3.75c3.289-0.25,6.25,2.321,6.469,5.67
			C216.82,130.3,217.06,134.411,216.98,141.141z"/>
		
			<path fill="#39A935" stroke="#000000" stroke-width="8" stroke-linecap="round" stroke-linejoin="round" stroke-miterlimit="10" d="
			M215.323,121.634c4.078,26.384-2.27,47.642-18.889,63.237c-22.959,21.546-59.203,27.387-75.779,28.947
			c6.324-35.639,17.971-61.625,34.66-77.285C178.613,114.67,205.527,119.035,215.323,121.634z"/>
		<path fill="none" stroke="#000000" stroke-width="6" stroke-linecap="round" stroke-linejoin="round" stroke-miterlimit="10" d="
			M312.136,340.894c0,0,25.004-10.021,14.07-37.67"/>
	</g>
	
		<rect x="-3384.189" y="-654.868" display="inline" fill="none" stroke="#000000" stroke-miterlimit="10" width="16736" height="13952"/>
</g>
<g id="barvno_copy_2">
	<g id="rde훾a7bela_copy_4">
	</g>
	<g>
		
			<circle fill="#FF0000" stroke="#000000" stroke-width="8" stroke-linecap="round" stroke-linejoin="round" stroke-miterlimit="10" cx="156.969" cy="309.98" r="51.852"/>
		
			<circle fill="#FF0000" stroke="#000000" stroke-width="8" stroke-linecap="round" stroke-linejoin="round" stroke-miterlimit="10" cx="296.574" cy="309.98" r="51.853"/>
		
			<path fill="#00FF00" stroke="#000000" stroke-width="8" stroke-linecap="round" stroke-linejoin="round" stroke-miterlimit="10" d="
			M286.529,284.761c-0.129,0.009-0.27,0.009-0.389,0.009c-3.182,0-5.861-2.46-6.07-5.689c-0.291-4.541-0.77-9.031-1.42-13.471
			c-0.59-4.099-1.34-8.15-2.211-12.159c-9.889-45.5-36.539-85.1-59.459-112.31c-4.131-4.9-8.131-9.391-11.9-13.451
			c-14.641-15.79-25.641-24.929-25.961-25.19c-2.59-2.129-2.969-5.96-0.85-8.56c2.141-2.6,5.971-2.98,8.57-0.85
			c2.33,1.91,35.02,29.08,63.439,71.631c6.48,9.69,12.73,20.179,18.352,31.349c8.43,16.761,15.449,35.04,19.658,54.47
			c0.861,3.94,1.602,7.94,2.201,11.971c0.799,5.19,1.379,10.46,1.719,15.79C292.419,281.65,289.88,284.54,286.529,284.761z"/>
		
			<path fill="#00FF00" stroke="#000000" stroke-width="8" stroke-linecap="round" stroke-linejoin="round" stroke-miterlimit="10" d="
			M216.98,141.141c-0.25,21.46-3.801,69.549-27.621,118.339c-1.76,3.621-3.639,7.241-5.629,10.851
			c-1.361,2.459-2.781,4.919-4.25,7.379c-1.141,1.9-3.15,2.951-5.221,2.951c-1.06,0-2.15-0.281-3.119-0.871
			c-2.891-1.72-3.82-5.459-2.09-8.339c1.309-2.19,2.58-4.391,3.799-6.6c2.01-3.621,3.891-7.261,5.641-10.891
			c8.92-18.39,14.84-36.799,18.76-53.58c3.09-13.21,4.93-25.409,6.029-35.799c2.141-20.431,1.371-33.86,1.352-34.17
			c-0.061-0.96,0.109-1.891,0.449-2.721c0.859-2.069,2.83-3.589,5.22-3.75c3.289-0.25,6.25,2.321,6.469,5.67
			C216.82,130.3,217.06,134.411,216.98,141.141z"/>
		
			<path fill="#00FF00" stroke="#000000" stroke-width="8" stroke-linecap="round" stroke-linejoin="round" stroke-miterlimit="10" d="
			M215.323,121.634c4.078,26.384-2.27,47.642-18.889,63.237c-22.959,21.546-59.203,27.387-75.779,28.947
			c6.324-35.639,17.971-61.625,34.66-77.285C178.613,114.67,205.527,119.035,215.323,121.634z"/>
		<path fill="none" stroke="#000000" stroke-width="6" stroke-linecap="round" stroke-linejoin="round" stroke-miterlimit="10" d="
			M312.136,340.894c0,0,25.004-10.021,14.07-37.67"/>
	</g>
	<rect x="-3384.189" y="-654.868" fill="none" stroke="#000000" stroke-miterlimit="10" width="16736" height="13952"/>
</g>
<g id="sivinsko" display="none">
	<g id="rde훾a7bela_copy_3" display="inline">
	</g>
	<g display="inline">
		<g>
			<circle fill="#494949" cx="156.969" cy="309.98" r="51.852"/>
			<path d="M156.968,365.832c-30.796,0-55.851-25.055-55.851-55.852c0-30.797,25.055-55.852,55.851-55.852
				c30.798,0,55.854,25.055,55.854,55.852C212.822,340.777,187.766,365.832,156.968,365.832z M156.968,262.128
				c-26.385,0-47.851,21.466-47.851,47.852c0,26.386,21.466,47.852,47.851,47.852c26.387,0,47.854-21.465,47.854-47.852
				C204.822,283.595,183.354,262.128,156.968,262.128z"/>
		</g>
		<g>
			<circle fill="#494949" cx="296.574" cy="309.98" r="51.853"/>
			<path d="M296.573,365.832c-30.797,0-55.852-25.055-55.852-55.852c0-30.797,25.055-55.852,55.852-55.852
				c30.798,0,55.853,25.055,55.853,55.852C352.427,340.777,327.371,365.832,296.573,365.832z M296.573,262.128
				c-26.386,0-47.852,21.466-47.852,47.852c0,26.386,21.466,47.852,47.852,47.852c26.386,0,47.853-21.465,47.853-47.852
				C344.427,283.595,322.96,262.128,296.573,262.128z"/>
		</g>
		<g>
			<path fill="#585858" d="M286.529,284.761c-0.129,0.009-0.27,0.009-0.389,0.009c-3.182,0-5.861-2.46-6.07-5.689
				c-0.291-4.541-0.77-9.031-1.42-13.471c-0.59-4.099-1.34-8.15-2.211-12.159c-9.889-45.5-36.539-85.1-59.459-112.31
				c-4.131-4.9-8.131-9.391-11.9-13.451c-14.641-15.79-25.641-24.929-25.961-25.19c-2.59-2.129-2.969-5.96-0.85-8.56
				c2.141-2.6,5.971-2.98,8.57-0.85c2.33,1.91,35.02,29.08,63.439,71.631c6.48,9.69,12.73,20.179,18.352,31.349
				c8.43,16.761,15.449,35.04,19.658,54.47c0.861,3.94,1.602,7.94,2.201,11.971c0.799,5.19,1.379,10.46,1.719,15.79
				C292.419,281.65,289.88,284.54,286.529,284.761z"/>
			<path d="M286.14,288.77c-5.3,0-9.72-4.143-10.062-9.431c-0.279-4.348-0.745-8.771-1.386-13.149
				c-0.556-3.867-1.263-7.752-2.162-11.89c-9.927-45.673-37.351-85.344-58.609-110.582c-3.808-4.517-7.769-8.993-11.772-13.307
				c-14.551-15.693-25.452-24.724-25.558-24.812c-4.293-3.529-4.926-9.888-1.422-14.187c1.941-2.358,4.786-3.701,7.818-3.701
				c2.322,0,4.59,0.811,6.388,2.284c1.427,1.17,35.264,29.134,64.23,72.504c6.994,10.458,13.252,21.148,18.598,31.772
				c9.312,18.516,16.039,37.162,19.995,55.421c0.891,4.074,1.647,8.191,2.248,12.229c0.822,5.337,1.413,10.769,1.754,16.124
				c0.349,5.54-3.872,10.341-9.409,10.706C286.591,288.767,286.346,288.77,286.14,288.77z M182.986,95.712
				c-0.632,0-1.226,0.281-1.629,0.771c-0.716,0.877-0.586,2.198,0.302,2.927c0.094,0.076,11.25,9.271,26.354,25.561
				c4.089,4.403,8.135,8.977,12.026,13.593c21.842,25.93,50.035,66.763,60.309,114.038c0.927,4.264,1.687,8.449,2.261,12.439
				c0.671,4.583,1.16,9.224,1.452,13.785c0.071,1.09,0.984,1.945,2.079,1.945l0.134-0.001c1.14-0.075,2.015-1.07,1.942-2.217
				c-0.326-5.116-0.891-10.309-1.68-15.433c-0.577-3.881-1.302-7.819-2.156-11.725c-3.814-17.607-10.315-35.614-19.324-53.527
				c-5.199-10.33-11.29-20.735-18.103-30.923c-28.314-42.392-61.262-69.622-62.65-70.761
				C183.827,95.793,183.324,95.712,182.986,95.712z"/>
		</g>
		<g>
			<path fill="#585858" d="M216.98,141.141c-0.25,21.46-3.801,69.549-27.621,118.339c-1.76,3.621-3.639,7.241-5.629,10.851
				c-1.361,2.459-2.781,4.919-4.25,7.379c-1.141,1.9-3.15,2.951-5.221,2.951c-1.06,0-2.15-0.281-3.119-0.871
				c-2.891-1.72-3.82-5.459-2.09-8.339c1.309-2.19,2.58-4.391,3.799-6.6c2.01-3.621,3.891-7.261,5.641-10.891
				c8.92-18.39,14.84-36.799,18.76-53.58c3.09-13.21,4.93-25.409,6.029-35.799c2.141-20.431,1.371-33.86,1.352-34.17
				c-0.061-0.96,0.109-1.891,0.449-2.721c0.859-2.069,2.83-3.589,5.22-3.75c3.289-0.25,6.25,2.321,6.469,5.67
				C216.82,130.3,217.06,134.411,216.98,141.141z"/>
			<path d="M174.259,284.661c-1.838,0-3.636-0.502-5.199-1.454c-2.28-1.357-3.917-3.555-4.574-6.167
				c-0.659-2.618-0.255-5.333,1.135-7.649c1.335-2.235,2.591-4.415,3.726-6.472c1.938-3.49,3.8-7.086,5.54-10.696
				c7.867-16.219,14.079-33.966,18.467-52.752c2.678-11.449,4.679-23.33,5.947-35.311c2.114-20.18,1.345-33.368,1.337-33.499
				c-0.096-1.519,0.16-3.071,0.74-4.486c1.49-3.588,4.803-5.966,8.653-6.226c0.216-0.016,0.464-0.026,0.711-0.026
				c5.272,0,9.673,4.141,10.018,9.426c0.001,0.01,0.309,4.298,0.219,11.84c-0.279,23.965-4.292,71.432-28.026,120.045
				c-1.77,3.642-3.695,7.354-5.72,11.028c-1.341,2.422-2.793,4.942-4.319,7.498C181.07,282.832,177.836,284.661,174.259,284.661z
				 M210.742,127.923c-0.046,0-0.093,0.002-0.139,0.006c-0.988,0.066-1.587,0.712-1.83,1.296c-0.116,0.284-0.171,0.613-0.151,0.934
				c0.009,0.137,0.832,13.863-1.365,34.839c-1.303,12.314-3.36,24.524-6.113,36.294c-4.523,19.362-10.934,37.67-19.055,54.414
				c-1.802,3.738-3.736,7.471-5.742,11.087c-1.175,2.129-2.476,4.389-3.863,6.71c-0.292,0.486-0.376,1.046-0.24,1.586
				c0.078,0.309,0.303,0.884,0.942,1.264c0.425,0.258,0.815,0.309,1.073,0.309c0.742,0,1.412-0.377,1.792-1.01
				c1.477-2.472,2.885-4.917,4.18-7.257c1.956-3.547,3.818-7.138,5.531-10.662c23.051-47.214,26.947-93.342,27.219-116.637
				c0.086-7.204-0.198-11.152-0.2-11.191C212.708,128.815,211.776,127.923,210.742,127.923z"/>
		</g>
		<g>
			<path fill="#7B7B7B" d="M215.323,121.634c4.078,26.384-2.27,47.642-18.889,63.237c-22.959,21.546-59.203,27.387-75.779,28.947
				c6.324-35.639,17.971-61.625,34.66-77.285C178.613,114.67,205.527,119.035,215.323,121.634z"/>
			<path d="M120.655,217.818c-1.111,0-2.18-0.464-2.941-1.29c-0.846-0.918-1.215-2.179-0.997-3.409
				c6.478-36.504,18.543-63.252,35.861-79.503c16.007-15.021,33.655-18.174,45.641-18.174c7.737,0,14.13,1.266,18.13,2.326
				c1.536,0.407,2.685,1.685,2.927,3.255c4.29,27.757-2.474,50.221-20.105,66.766c-23.348,21.911-58.98,28.208-78.142,30.012
				C120.905,217.812,120.78,217.818,120.655,217.818z M198.219,123.442c-15.333,0-28.847,5.385-40.167,16.009
				c-15.211,14.272-26.124,37.739-32.471,69.801c16.82-2.116,48.061-8.476,68.116-27.296c15.037-14.111,21.102-33.301,18.047-57.07
				C208.28,124.133,203.625,123.442,198.219,123.442z"/>
		</g>
		<path d="M312.137,343.896c-1.19,0-2.316-0.713-2.786-1.885c-0.616-1.536,0.129-3.28,1.662-3.898
			c0.93-0.38,22.069-9.34,12.402-33.786c-0.609-1.541,0.146-3.284,1.687-3.893c1.54-0.609,3.284,0.146,3.893,1.687
			c11.895,30.078-15.466,41.447-15.743,41.558C312.886,343.825,312.509,343.896,312.137,343.896z"/>
	</g>
	<path display="inline" d="M13352.311,13297.633h-16737v-13953h16737V13297.633z M-3384.189,13296.633h16736l-0.5-13951h-16735.5
		l0.5,13951H-3384.189z"/>
</g>
<g id="linijsko" display="none">
	<g id="rde훾a7bela_copy" display="inline">
	</g>
	
		<path display="inline" fill="none" stroke="#000000" stroke-width="8" stroke-linecap="round" stroke-linejoin="round" stroke-miterlimit="10" d="
		M174.771,261.267c-5.552-2.03-11.548-3.137-17.803-3.137c-28.637,0-51.852,23.214-51.852,51.851s23.215,51.852,51.852,51.852
		c28.639,0,51.854-23.215,51.854-51.852c0-18.038-9.214-33.917-23.188-43.206"/>
	
		<path display="inline" fill="none" stroke="#000000" stroke-width="8" stroke-linecap="round" stroke-linejoin="round" stroke-miterlimit="10" d="
		M278.008,261.566c-19.463,7.469-33.286,26.322-33.286,48.415c0,28.637,23.215,51.852,51.852,51.852
		c28.639,0,51.854-23.215,51.854-51.852s-23.215-51.851-51.854-51.851c-2.286,0-4.531,0.162-6.739,0.449"/>
	
		<path display="inline" fill="none" stroke="#000000" stroke-width="8" stroke-linecap="round" stroke-linejoin="round" stroke-miterlimit="10" d="
		M278.008,261.566c0.229,1.344,0.447,2.691,0.642,4.045c0.65,4.44,1.128,8.931,1.419,13.47c0.209,3.23,2.889,5.69,6.071,5.69
		c0.119,0,0.26,0,0.388-0.009c3.352-0.221,5.891-3.112,5.68-6.462c-0.34-5.329-0.92-10.6-1.719-15.789
		c-0.196-1.318-0.43-2.624-0.655-3.933"/>
	
		<path display="inline" fill="none" stroke="#000000" stroke-width="8" stroke-linecap="round" stroke-linejoin="round" stroke-miterlimit="10" d="
		M185.633,266.774c-0.629,1.188-1.25,2.373-1.903,3.558c-1.362,2.459-2.781,4.918-4.25,7.379c-1.141,1.9-3.15,2.951-5.221,2.951
		c-1.061,0-2.15-0.281-3.119-0.871c-2.891-1.721-3.821-5.459-2.09-8.34c1.309-2.188,2.58-4.391,3.799-6.6
		c0.662-1.192,1.288-2.39,1.922-3.584"/>
	<g display="inline">
		<path fill="none" stroke="#000000" stroke-width="8" stroke-linecap="round" stroke-linejoin="round" stroke-miterlimit="10" d="
			M216.427,140.495c0.285-5.959-0.081-12.249-1.103-18.861c-3.832-1.016-10.289-2.296-18.118-2.178"/>
		<path fill="none" stroke="#000000" stroke-width="8" stroke-linecap="round" stroke-linejoin="round" stroke-miterlimit="10" d="
			M216.427,140.495c-0.734,15.361-5.809,28.524-15.17,39.352"/>
		<path fill="none" stroke="#000000" stroke-width="8" stroke-linecap="round" stroke-linejoin="round" stroke-miterlimit="10" d="
			M197.206,119.456c-12.186,0.184-27.705,3.766-41.89,17.077c-16.689,15.66-28.336,41.646-34.66,77.285
			c16.576-1.56,52.82-7.4,75.779-28.947c1.719-1.614,3.323-3.292,4.822-5.024"/>
		<path fill="none" stroke="#000000" stroke-width="8" stroke-linecap="round" stroke-linejoin="round" stroke-miterlimit="10" d="
			M197.206,119.456c-10.548-10.695-17.828-16.743-18.088-16.956c-2.59-2.128-2.968-5.958-0.849-8.56
			c2.14-2.601,5.971-2.979,8.571-0.85c2.33,1.909,35.02,29.08,63.439,71.631c6.481,9.688,12.731,20.178,18.352,31.349
			c8.429,16.761,15.449,35.04,19.658,54.471c0.58,2.652,1.082,5.339,1.546,8.038"/>
		<path fill="none" stroke="#000000" stroke-width="8" stroke-linecap="round" stroke-linejoin="round" stroke-miterlimit="10" d="
			M216.427,140.495c0.186,0.219,0.367,0.427,0.553,0.648"/>
		<path fill="none" stroke="#000000" stroke-width="8" stroke-linecap="round" stroke-linejoin="round" stroke-miterlimit="10" d="
			M278.008,261.566c-0.463-2.724-0.986-5.43-1.569-8.115c-9.889-45.5-36.539-85.1-59.459-112.308"/>
		<path fill="none" stroke="#000000" stroke-width="8" stroke-linecap="round" stroke-linejoin="round" stroke-miterlimit="10" d="
			M201.257,179.847c-1.023,6.464-2.325,13.341-4.007,20.534c-3.92,16.781-9.84,35.19-18.76,53.581
			c-1.174,2.434-2.428,4.87-3.718,7.305"/>
		<path fill="none" stroke="#000000" stroke-width="8" stroke-linecap="round" stroke-linejoin="round" stroke-miterlimit="10" d="
			M216.98,141.143c-0.25,21.458-3.801,69.547-27.621,118.337c-1.183,2.433-2.438,4.864-3.726,7.294"/>
	</g>
	
		<path display="inline" fill="none" stroke="#000000" stroke-width="8" stroke-linecap="round" stroke-linejoin="round" stroke-miterlimit="10" d="
		M326.207,303.224c10.934,27.65-14.07,37.672-14.07,37.672"/>
</g>
<g id="pivot">
	<circle fill="none" cx="228.008" cy="358.922" r="14.132"/>
</g>
</svg>
