<?xml version="1.0" encoding="utf-8"?>
<!-- Generator: Adobe Illustrator 16.0.0, SVG Export Plug-In . SVG Version: 6.00 Build 0)  -->
<!DOCTYPE svg PUBLIC "-//W3C//DTD SVG 1.1//EN" "http://www.w3.org/Graphics/SVG/1.1/DTD/svg11.dtd">
<svg version="1.1" xmlns="http://www.w3.org/2000/svg" xmlns:xlink="http://www.w3.org/1999/xlink" x="0px" y="0px"
	 width="453.543px" height="453.543px" viewBox="0 0 453.543 453.543" enable-background="new 0 0 453.543 453.543"
	 xml:space="preserve">
<g id="kvadrat">
</g>
<g id="bg" display="none">
	<rect x="-1853.431" y="-10439.585" display="inline" width="15266.867" height="13678.951"/>
</g>
<g id="barvno" display="none">
	<g id="rde훾a7bela" display="inline">
	</g>
	<g display="inline">
		
			<circle fill="#662482" stroke="#000000" stroke-width="8" stroke-linecap="round" stroke-linejoin="round" stroke-miterlimit="10" cx="156.969" cy="309.979" r="51.853"/>
		
			<circle fill="#662482" stroke="#000000" stroke-width="8" stroke-linecap="round" stroke-linejoin="round" stroke-miterlimit="10" cx="296.575" cy="309.979" r="51.853"/>
		
			<path fill="#7E4E24" stroke="#000000" stroke-width="8" stroke-linecap="round" stroke-linejoin="round" stroke-miterlimit="10" d="
			M286.529,284.761c-0.129,0.009-0.27,0.009-0.389,0.009c-3.182,0-5.861-2.46-6.07-5.689c-0.291-4.54-0.77-9.03-1.42-13.47
			c-0.59-4.1-1.34-8.15-2.211-12.16c-9.889-45.5-36.539-85.1-59.459-112.309c-4.131-4.9-8.131-9.393-11.9-13.452
			c-14.641-15.79-25.641-24.929-25.961-25.19c-2.59-2.128-2.969-5.959-0.85-8.56c2.141-2.601,5.971-2.979,8.57-0.85
			c2.33,1.909,35.02,29.08,63.439,71.631c6.48,9.688,12.73,20.179,18.352,31.35c8.43,16.761,15.449,35.04,19.658,54.47
			c0.861,3.939,1.602,7.939,2.201,11.971c0.799,5.189,1.379,10.46,1.719,15.789C292.419,281.649,289.88,284.54,286.529,284.761z"/>
		
			<path fill="#7E4E24" stroke="#000000" stroke-width="8" stroke-linecap="round" stroke-linejoin="round" stroke-miterlimit="10" d="
			M216.98,141.142c-0.25,21.459-3.801,69.548-27.621,118.338c-1.76,3.621-3.639,7.241-5.629,10.852
			c-1.361,2.459-2.782,4.918-4.25,7.379c-1.141,1.9-3.15,2.951-5.221,2.951c-1.061,0-2.15-0.281-3.119-0.871
			c-2.891-1.72-3.82-5.459-2.09-8.34c1.309-2.189,2.58-4.391,3.799-6.6c2.01-3.621,3.891-7.261,5.641-10.891
			c8.92-18.39,14.84-36.799,18.76-53.58c3.09-13.21,4.93-25.409,6.029-35.8c2.141-20.431,1.371-33.859,1.352-34.171
			c-0.061-0.959,0.109-1.89,0.449-2.72c0.859-2.068,2.83-3.589,5.221-3.75c3.289-0.25,6.25,2.321,6.469,5.671
			C216.82,130.3,217.06,134.409,216.98,141.142z"/>
		
			<path fill="#39A935" stroke="#000000" stroke-width="8" stroke-linecap="round" stroke-linejoin="round" stroke-miterlimit="10" d="
			M215.324,121.634c4.078,26.384-2.27,47.643-18.889,63.237c-22.959,21.546-59.203,27.388-75.779,28.946
			c6.324-35.639,17.971-61.625,34.66-77.285C178.613,114.67,205.527,119.034,215.324,121.634z"/>
		<path fill="none" stroke="#000000" stroke-width="6" stroke-linecap="round" stroke-linejoin="round" stroke-miterlimit="10" d="
			M312.136,340.894c0,0,25.004-10.021,14.07-37.671"/>
	</g>
	
		<rect x="-2363.716" y="-10859.594" display="inline" fill="none" stroke="#000000" stroke-miterlimit="10" width="16736" height="13952"/>
</g>
<g id="barvno_copy_2">
	<g id="rde훾a7bela_copy_4">
	</g>
	<g>
		<g>
			<circle fill="#FF00FF" cx="156.969" cy="309.979" r="51.853"/>
			<path d="M156.968,365.831c-30.797,0-55.852-25.055-55.852-55.852s25.055-55.852,55.852-55.852
				c30.798,0,55.854,25.055,55.854,55.852S187.766,365.831,156.968,365.831z M156.968,262.128
				c-26.386,0-47.852,21.466-47.852,47.852s21.466,47.852,47.852,47.852c26.387,0,47.854-21.466,47.854-47.852
				S183.355,262.128,156.968,262.128z"/>
		</g>
		<g>
			<circle fill="#FF00FF" cx="296.575" cy="309.979" r="51.853"/>
			<path d="M296.574,365.831c-30.797,0-55.852-25.055-55.852-55.852s25.055-55.852,55.852-55.852
				c30.798,0,55.854,25.055,55.854,55.852S327.372,365.831,296.574,365.831z M296.574,262.128
				c-26.386,0-47.852,21.466-47.852,47.852s21.466,47.852,47.852,47.852c26.387,0,47.854-21.466,47.854-47.852
				S322.96,262.128,296.574,262.128z"/>
		</g>
		<g>
			<path fill="#00FF00" d="M286.529,284.761c-0.129,0.009-0.27,0.009-0.389,0.009c-3.182,0-5.861-2.46-6.07-5.689
				c-0.291-4.54-0.77-9.03-1.42-13.47c-0.59-4.1-1.34-8.15-2.211-12.16c-9.889-45.5-36.539-85.1-59.459-112.309
				c-4.131-4.9-8.131-9.393-11.9-13.452c-14.641-15.79-25.641-24.929-25.961-25.19c-2.59-2.128-2.969-5.959-0.85-8.56
				c2.141-2.601,5.971-2.979,8.57-0.85c2.33,1.909,35.02,29.08,63.439,71.631c6.48,9.688,12.73,20.179,18.352,31.35
				c8.43,16.761,15.449,35.04,19.658,54.47c0.861,3.939,1.602,7.939,2.201,11.971c0.799,5.189,1.379,10.46,1.719,15.789
				C292.419,281.649,289.88,284.54,286.529,284.761z"/>
			<path d="M286.14,288.77c-5.3,0-9.72-4.143-10.062-9.432c-0.279-4.351-0.745-8.773-1.386-13.147
				c-0.556-3.867-1.263-7.753-2.162-11.891c-9.926-45.674-37.351-85.345-58.609-110.581c-3.817-4.529-7.779-9.007-11.772-13.308
				c-14.502-15.641-25.456-24.729-25.562-24.815c-4.289-3.524-4.922-9.884-1.418-14.183c1.94-2.358,4.785-3.702,7.817-3.702
				c2.321,0,4.59,0.812,6.389,2.285c1.426,1.168,35.244,29.104,64.23,72.503c6.992,10.453,13.25,21.144,18.599,31.773
				c9.312,18.515,16.039,37.16,19.994,55.421c0.891,4.073,1.647,8.19,2.249,12.229c0.821,5.336,1.413,10.768,1.754,16.123
				c0.349,5.541-3.872,10.343-9.409,10.707C286.582,288.767,286.343,288.77,286.14,288.77z M182.986,95.711
				c-0.632,0-1.226,0.281-1.628,0.771c-0.715,0.878-0.586,2.198,0.3,2.927c0.102,0.083,11.367,9.397,26.355,25.562
				c4.078,4.392,8.125,8.966,12.026,13.594c21.842,25.93,50.034,66.761,60.309,114.037c0.94,4.325,1.679,8.395,2.261,12.44
				c0.671,4.578,1.16,9.219,1.453,13.783c0.071,1.09,0.984,1.945,2.079,1.945l0.141-0.001c1.132-0.075,2.007-1.069,1.935-2.218
				c-0.326-5.116-0.892-10.31-1.68-15.432c-0.578-3.881-1.302-7.819-2.156-11.725c-3.814-17.608-10.315-35.615-19.324-53.527
				c-5.201-10.336-11.292-20.74-18.103-30.923c-28.334-42.423-61.262-69.623-62.65-70.761
				C183.827,95.793,183.324,95.711,182.986,95.711z"/>
		</g>
		<g>
			<path fill="#00FF00" d="M216.98,141.142c-0.25,21.459-3.801,69.548-27.621,118.338c-1.76,3.621-3.639,7.241-5.629,10.852
				c-1.361,2.459-2.782,4.918-4.25,7.379c-1.141,1.9-3.15,2.951-5.221,2.951c-1.061,0-2.15-0.281-3.119-0.871
				c-2.891-1.72-3.82-5.459-2.09-8.34c1.309-2.189,2.58-4.391,3.799-6.6c2.01-3.621,3.891-7.261,5.641-10.891
				c8.92-18.39,14.84-36.799,18.76-53.58c3.09-13.21,4.93-25.409,6.029-35.8c2.141-20.431,1.371-33.859,1.352-34.171
				c-0.061-0.959,0.109-1.89,0.449-2.72c0.859-2.068,2.83-3.589,5.221-3.75c3.289-0.25,6.25,2.321,6.469,5.671
				C216.82,130.3,217.06,134.409,216.98,141.142z"/>
			<path d="M174.259,284.661c-1.839,0-3.637-0.503-5.199-1.454c-2.28-1.356-3.917-3.554-4.574-6.165
				c-0.659-2.618-0.256-5.335,1.136-7.651c1.333-2.229,2.587-4.41,3.725-6.473c1.939-3.493,3.801-7.088,5.54-10.695
				c7.867-16.219,14.079-33.964,18.467-52.753c2.679-11.449,4.679-23.329,5.947-35.311c2.113-20.173,1.345-33.37,1.337-33.501
				c-0.096-1.517,0.16-3.068,0.74-4.484c1.491-3.588,4.803-5.966,8.653-6.226c0.215-0.017,0.464-0.025,0.711-0.025
				c5.272,0,9.673,4.141,10.018,9.427c0.001,0.009,0.31,4.293,0.22,11.84c-0.279,23.965-4.292,71.43-28.026,120.045
				c-1.771,3.644-3.697,7.356-5.721,11.027c-1.326,2.396-2.777,4.916-4.318,7.498C181.071,282.832,177.837,284.661,174.259,284.661z
				 M210.743,127.923c-0.046,0-0.093,0.002-0.139,0.005c-0.989,0.067-1.587,0.713-1.83,1.297c-0.116,0.283-0.171,0.613-0.151,0.933
				c0.009,0.138,0.83,13.887-1.365,34.84c-1.304,12.314-3.36,24.523-6.113,36.294c-4.522,19.363-10.934,37.672-19.056,54.415
				c-1.801,3.735-3.734,7.468-5.742,11.086c-1.177,2.134-2.479,4.395-3.863,6.71c-0.292,0.486-0.376,1.048-0.24,1.587
				c0.078,0.309,0.304,0.884,0.941,1.264c0.426,0.259,0.815,0.309,1.074,0.309c0.742,0,1.412-0.377,1.791-1.01
				c1.491-2.499,2.899-4.943,4.18-7.258c1.955-3.545,3.816-7.135,5.531-10.662c23.051-47.215,26.947-93.342,27.219-116.637
				c0.086-7.209-0.197-11.151-0.2-11.19C212.708,128.814,211.777,127.923,210.743,127.923z"/>
		</g>
		<g>
			<path fill="#00FF00" d="M215.324,121.634c4.078,26.384-2.27,47.643-18.889,63.237c-22.959,21.546-59.203,27.388-75.779,28.946
				c6.324-35.639,17.971-61.625,34.66-77.285C178.613,114.67,205.527,119.034,215.324,121.634z"/>
			<path d="M120.656,217.817c-1.112,0-2.181-0.464-2.942-1.29c-0.846-0.918-1.215-2.179-0.997-3.409
				c6.478-36.504,18.543-63.253,35.861-79.503c16.007-15.021,33.655-18.175,45.641-18.175c7.737,0,14.13,1.266,18.13,2.327
				c1.536,0.407,2.685,1.686,2.927,3.255c4.291,27.758-2.474,50.222-20.104,66.766c-23.354,21.916-58.982,28.21-78.142,30.012
				C120.905,217.812,120.78,217.817,120.656,217.817z M198.219,123.44c-15.333,0-28.847,5.387-40.166,16.009
				c-15.211,14.272-26.124,37.74-32.472,69.802c16.818-2.114,48.057-8.472,68.116-27.297c15.037-14.11,21.102-33.3,18.047-57.068
				C208.281,124.133,203.625,123.44,198.219,123.44z"/>
		</g>
		<path d="M312.137,343.895c-1.19,0-2.316-0.713-2.786-1.885c-0.616-1.536,0.128-3.279,1.663-3.898
			c0.93-0.38,22.069-9.34,12.402-33.785c-0.609-1.541,0.146-3.284,1.687-3.894c1.541-0.606,3.284,0.146,3.894,1.687
			c11.894,30.08-15.467,41.448-15.744,41.56C312.886,343.825,312.508,343.895,312.137,343.895z"/>
	</g>
	<rect x="-2363.716" y="-10859.594" fill="none" stroke="#000000" stroke-miterlimit="10" width="16736" height="13952"/>
</g>
<g id="sivinsko" display="none">
	<g id="rde훾a7bela_copy_3" display="inline">
	</g>
	<circle display="inline" fill="#B1B1B1" cx="156.969" cy="309.979" r="51.853"/>
	<path display="inline" d="M156.968,365.831c-30.797,0-55.852-25.055-55.852-55.852s25.055-55.852,55.852-55.852
		c30.798,0,55.854,25.055,55.854,55.852S187.766,365.831,156.968,365.831z M156.968,262.128c-26.386,0-47.852,21.466-47.852,47.852
		s21.466,47.852,47.852,47.852c26.387,0,47.854-21.466,47.854-47.852S183.355,262.128,156.968,262.128z"/>
	<circle display="inline" fill="#B1B1B1" cx="296.575" cy="309.979" r="51.853"/>
	<path display="inline" d="M296.574,365.831c-30.797,0-55.852-25.055-55.852-55.852s25.055-55.852,55.852-55.852
		c30.798,0,55.854,25.055,55.854,55.852S327.372,365.831,296.574,365.831z M296.574,262.128c-26.386,0-47.852,21.466-47.852,47.852
		s21.466,47.852,47.852,47.852c26.387,0,47.854-21.466,47.854-47.852S322.96,262.128,296.574,262.128z"/>
	<g display="inline">
		<path fill="#585858" d="M286.529,284.761c-0.129,0.009-0.27,0.009-0.389,0.009c-3.182,0-5.861-2.46-6.07-5.689
			c-0.291-4.54-0.77-9.03-1.42-13.47c-0.59-4.1-1.34-8.15-2.211-12.16c-9.889-45.5-36.539-85.1-59.459-112.309
			c-4.131-4.9-8.131-9.393-11.9-13.452c-14.641-15.79-25.641-24.929-25.961-25.19c-2.59-2.128-2.969-5.959-0.85-8.56
			c2.141-2.601,5.971-2.979,8.57-0.85c2.33,1.909,35.02,29.08,63.439,71.631c6.48,9.688,12.73,20.179,18.352,31.35
			c8.43,16.761,15.449,35.04,19.658,54.47c0.861,3.939,1.602,7.939,2.201,11.971c0.799,5.189,1.379,10.46,1.719,15.789
			C292.419,281.649,289.88,284.54,286.529,284.761z"/>
		<path d="M286.14,288.77c-5.3,0-9.72-4.143-10.062-9.432c-0.279-4.351-0.745-8.773-1.386-13.147
			c-0.556-3.867-1.263-7.753-2.162-11.891c-9.926-45.674-37.351-85.345-58.609-110.581c-3.817-4.529-7.779-9.007-11.772-13.308
			c-14.502-15.641-25.456-24.729-25.562-24.815c-4.289-3.524-4.922-9.884-1.418-14.183c1.94-2.358,4.785-3.702,7.817-3.702
			c2.321,0,4.59,0.812,6.389,2.285c1.426,1.168,35.244,29.104,64.23,72.503c6.992,10.453,13.25,21.144,18.599,31.773
			c9.312,18.515,16.039,37.16,19.994,55.421c0.891,4.073,1.647,8.19,2.249,12.229c0.821,5.336,1.413,10.768,1.754,16.123
			c0.349,5.541-3.872,10.343-9.409,10.707C286.582,288.767,286.343,288.77,286.14,288.77z M182.986,95.711
			c-0.632,0-1.226,0.281-1.628,0.771c-0.715,0.878-0.586,2.198,0.3,2.927c0.102,0.083,11.368,9.397,26.355,25.562
			c4.078,4.392,8.125,8.966,12.026,13.594c21.842,25.93,50.034,66.761,60.309,114.037c0.94,4.325,1.679,8.395,2.261,12.44
			c0.671,4.578,1.16,9.219,1.453,13.783c0.071,1.09,0.984,1.945,2.079,1.945l0.141-0.001c1.132-0.075,2.007-1.069,1.935-2.218
			c-0.326-5.116-0.892-10.31-1.68-15.432c-0.578-3.881-1.302-7.819-2.156-11.725c-3.814-17.608-10.315-35.615-19.324-53.527
			c-5.201-10.336-11.292-20.74-18.103-30.923c-28.334-42.423-61.262-69.623-62.65-70.761
			C183.827,95.793,183.324,95.711,182.986,95.711z"/>
	</g>
	<g display="inline">
		<path fill="#585858" d="M216.98,141.142c-0.25,21.459-3.801,69.548-27.621,118.338c-1.76,3.621-3.639,7.241-5.629,10.852
			c-1.361,2.459-2.782,4.918-4.25,7.379c-1.141,1.9-3.15,2.951-5.221,2.951c-1.061,0-2.15-0.281-3.119-0.871
			c-2.891-1.72-3.82-5.459-2.09-8.34c1.309-2.189,2.58-4.391,3.799-6.6c2.01-3.621,3.891-7.261,5.641-10.891
			c8.92-18.39,14.84-36.799,18.76-53.58c3.09-13.21,4.93-25.409,6.029-35.8c2.141-20.431,1.371-33.859,1.352-34.171
			c-0.061-0.959,0.109-1.89,0.449-2.72c0.859-2.068,2.83-3.589,5.221-3.75c3.289-0.25,6.25,2.321,6.469,5.671
			C216.82,130.3,217.06,134.409,216.98,141.142z"/>
		<path d="M174.259,284.661c-1.839,0-3.637-0.503-5.199-1.454c-2.28-1.356-3.917-3.554-4.574-6.165
			c-0.659-2.618-0.256-5.335,1.136-7.651c1.333-2.229,2.587-4.41,3.725-6.473c1.939-3.493,3.801-7.088,5.54-10.695
			c7.867-16.219,14.079-33.964,18.468-52.753c2.678-11.449,4.678-23.329,5.947-35.311c2.113-20.173,1.345-33.37,1.337-33.501
			c-0.096-1.517,0.16-3.068,0.74-4.484c1.491-3.588,4.803-5.966,8.653-6.226c0.215-0.017,0.464-0.025,0.711-0.025
			c5.272,0,9.673,4.141,10.018,9.427c0.001,0.009,0.31,4.293,0.22,11.84c-0.279,23.965-4.292,71.43-28.026,120.045
			c-1.771,3.644-3.697,7.356-5.721,11.027c-1.327,2.396-2.777,4.916-4.318,7.498C181.071,282.832,177.837,284.661,174.259,284.661z
			 M210.743,127.923c-0.046,0-0.093,0.002-0.139,0.005c-0.989,0.067-1.587,0.713-1.83,1.297c-0.116,0.283-0.171,0.613-0.151,0.933
			c0.009,0.138,0.83,13.887-1.365,34.84c-1.304,12.314-3.36,24.523-6.113,36.294c-4.522,19.363-10.934,37.672-19.056,54.415
			c-1.801,3.735-3.734,7.468-5.742,11.086c-1.177,2.134-2.479,4.395-3.863,6.71c-0.292,0.486-0.376,1.048-0.24,1.587
			c0.078,0.309,0.304,0.884,0.941,1.264c0.426,0.259,0.815,0.309,1.074,0.309c0.742,0,1.412-0.377,1.791-1.01
			c1.491-2.499,2.899-4.943,4.18-7.258c1.955-3.545,3.816-7.135,5.531-10.662c23.051-47.215,26.947-93.342,27.219-116.637
			c0.086-7.209-0.198-11.151-0.2-11.19C212.708,128.814,211.777,127.923,210.743,127.923z"/>
	</g>
	<g display="inline">
		<path fill="#7B7B7B" d="M215.324,121.634c4.078,26.384-2.27,47.643-18.889,63.237c-22.959,21.546-59.203,27.388-75.779,28.946
			c6.324-35.639,17.971-61.625,34.66-77.285C178.613,114.67,205.527,119.034,215.324,121.634z"/>
		<path d="M120.656,217.817c-1.112,0-2.181-0.464-2.942-1.29c-0.846-0.918-1.215-2.179-0.997-3.409
			c6.478-36.504,18.543-63.253,35.861-79.503c16.007-15.021,33.655-18.175,45.641-18.175c7.737,0,14.13,1.266,18.13,2.327
			c1.536,0.407,2.685,1.686,2.927,3.255c4.291,27.758-2.474,50.222-20.104,66.766c-23.354,21.916-58.982,28.21-78.142,30.012
			C120.905,217.812,120.78,217.817,120.656,217.817z M198.219,123.44c-15.333,0-28.847,5.387-40.166,16.009
			c-15.211,14.272-26.124,37.74-32.472,69.802c16.818-2.114,48.057-8.472,68.116-27.297c15.037-14.11,21.102-33.3,18.047-57.068
			C208.281,124.133,203.625,123.44,198.219,123.44z"/>
	</g>
	<path display="inline" d="M312.137,343.895c-1.19,0-2.316-0.713-2.786-1.885c-0.616-1.536,0.128-3.279,1.663-3.898
		c0.93-0.38,22.069-9.34,12.402-33.785c-0.609-1.541,0.146-3.284,1.687-3.894c1.541-0.606,3.284,0.146,3.894,1.687
		c11.894,30.08-15.467,41.448-15.744,41.56C312.886,343.825,312.508,343.895,312.137,343.895z"/>
	<path display="inline" d="M14372.783,3092.906h-16737v-13953h16737V3092.906z M-2363.716,3091.906h16736l-0.5-13951h-16735.5
		l0.5,13951H-2363.716z"/>
</g>
<g id="linijsko" display="none">
	<g id="rde훾a7bela_copy" display="inline">
	</g>
</g>
<g id="pivot">
	<circle fill="none" cx="222.097" cy="357.004" r="14.133"/>
</g>
</svg>
