<?xml version="1.0" encoding="utf-8"?>
<!-- Generator: Adobe Illustrator 16.0.0, SVG Export Plug-In . SVG Version: 6.00 Build 0)  -->
<!DOCTYPE svg PUBLIC "-//W3C//DTD SVG 1.1//EN" "http://www.w3.org/Graphics/SVG/1.1/DTD/svg11.dtd">
<svg version="1.1" xmlns="http://www.w3.org/2000/svg" xmlns:xlink="http://www.w3.org/1999/xlink" x="0px" y="0px"
	 width="453.543px" height="453.543px" viewBox="0 0 453.543 453.543" enable-background="new 0 0 453.543 453.543"
	 xml:space="preserve">
<g id="kvadrat">
</g>
<g id="bg" display="none">
	<rect x="-2363.667" y="-10439.585" display="inline" width="15266.867" height="13678.951"/>
</g>
<g id="barvno" display="none">
	<g id="rde훾a7bela" display="inline">
	</g>
	<g display="inline">
		
			<circle fill="#BD1622" stroke="#000000" stroke-width="8" stroke-linecap="round" stroke-linejoin="round" stroke-miterlimit="10" cx="156.969" cy="309.979" r="51.853"/>
		
			<circle fill="#BD1622" stroke="#000000" stroke-width="8" stroke-linecap="round" stroke-linejoin="round" stroke-miterlimit="10" cx="296.575" cy="309.979" r="51.853"/>
		
			<path fill="#7E4E24" stroke="#000000" stroke-width="8" stroke-linecap="round" stroke-linejoin="round" stroke-miterlimit="10" d="
			M168.347,284.761c0.129,0.009,0.27,0.009,0.389,0.009c3.182,0,5.861-2.46,6.07-5.689c0.291-4.54,0.77-9.03,1.42-13.47
			c0.59-4.1,1.34-8.15,2.211-12.16c9.889-45.5,36.539-85.1,59.459-112.309c4.131-4.9,8.131-9.393,11.9-13.452
			c14.641-15.79,25.641-24.929,25.961-25.19c2.59-2.128,2.969-5.959,0.85-8.56c-2.141-2.601-5.971-2.979-8.57-0.85
			c-2.33,1.909-35.02,29.08-63.439,71.631c-6.48,9.688-12.73,20.179-18.352,31.35c-8.43,16.761-15.449,35.04-19.658,54.47
			c-0.861,3.939-1.602,7.939-2.201,11.971c-0.799,5.189-1.379,10.46-1.719,15.789C162.457,281.649,164.996,284.54,168.347,284.761z"
			/>
		
			<path fill="#7E4E24" stroke="#000000" stroke-width="8" stroke-linecap="round" stroke-linejoin="round" stroke-miterlimit="10" d="
			M237.896,141.142c0.25,21.459,3.801,69.548,27.621,118.338c1.76,3.621,3.639,7.241,5.629,10.852
			c1.361,2.459,2.781,4.918,4.25,7.379c1.141,1.9,3.15,2.951,5.221,2.951c1.061,0,2.15-0.281,3.119-0.871
			c2.891-1.72,3.82-5.459,2.09-8.34c-1.309-2.189-2.58-4.391-3.799-6.6c-2.01-3.621-3.891-7.261-5.641-10.891
			c-8.92-18.39-14.84-36.799-18.76-53.58c-3.09-13.21-4.93-25.409-6.029-35.8c-2.141-20.431-1.371-33.859-1.352-34.171
			c0.061-0.959-0.109-1.89-0.449-2.72c-0.859-2.068-2.83-3.589-5.221-3.75c-3.289-0.25-6.25,2.321-6.469,5.671
			C238.056,130.3,237.816,134.409,237.896,141.142z"/>
		
			<path fill="#39A935" stroke="#000000" stroke-width="8" stroke-linecap="round" stroke-linejoin="round" stroke-miterlimit="10" d="
			M239.552,121.634c-4.078,26.384,2.27,47.643,18.889,63.237c22.959,21.546,59.203,27.388,75.779,28.946
			c-6.324-35.639-17.971-61.625-34.66-77.285C276.263,114.67,249.349,119.034,239.552,121.634z"/>
		<path fill="none" stroke="#000000" stroke-width="6" stroke-linecap="round" stroke-linejoin="round" stroke-miterlimit="10" d="
			M312.136,340.894c0,0,25.004-10.021,14.07-37.671"/>
	</g>
	
		<rect x="-2873.953" y="-10859.594" display="inline" fill="none" stroke="#000000" stroke-miterlimit="10" width="16736" height="13952"/>
</g>
<g id="barvno_copy_2">
	<g id="rde훾a7bela_copy_4">
	</g>
	<g>
		<g>
			<circle fill="#FF0000" cx="156.969" cy="309.979" r="51.853"/>
			<path d="M156.968,365.831c-30.797,0-55.852-25.055-55.852-55.852s25.055-55.852,55.852-55.852
				c30.798,0,55.854,25.055,55.854,55.852S187.766,365.831,156.968,365.831z M156.968,262.128
				c-26.386,0-47.852,21.466-47.852,47.852s21.466,47.852,47.852,47.852c26.387,0,47.854-21.466,47.854-47.852
				S183.355,262.128,156.968,262.128z"/>
		</g>
		<g>
			<circle fill="#FF0000" cx="296.575" cy="309.979" r="51.853"/>
			<path d="M296.574,365.831c-30.797,0-55.852-25.055-55.852-55.852s25.055-55.852,55.852-55.852
				c30.798,0,55.854,25.055,55.854,55.852S327.372,365.831,296.574,365.831z M296.574,262.128
				c-26.386,0-47.852,21.466-47.852,47.852s21.466,47.852,47.852,47.852c26.387,0,47.854-21.466,47.854-47.852
				S322.96,262.128,296.574,262.128z"/>
		</g>
		<g>
			<path fill="#00FF00" d="M168.347,284.761c0.129,0.009,0.27,0.009,0.389,0.009c3.182,0,5.861-2.46,6.07-5.689
				c0.291-4.54,0.77-9.03,1.42-13.47c0.59-4.1,1.34-8.15,2.211-12.16c9.889-45.5,36.539-85.1,59.459-112.309
				c4.131-4.9,8.131-9.393,11.9-13.452c14.641-15.79,25.641-24.929,25.961-25.19c2.59-2.128,2.969-5.959,0.85-8.56
				c-2.141-2.601-5.971-2.979-8.57-0.85c-2.33,1.909-35.02,29.08-63.439,71.631c-6.48,9.688-12.73,20.179-18.352,31.35
				c-8.43,16.761-15.449,35.04-19.658,54.47c-0.861,3.939-1.602,7.939-2.201,11.971c-0.799,5.189-1.379,10.46-1.719,15.789
				C162.457,281.649,164.996,284.54,168.347,284.761z"/>
			<path d="M168.736,288.77c-0.203,0-0.442-0.003-0.661-0.019c-5.527-0.363-9.748-5.165-9.399-10.702
				c0.342-5.359,0.933-10.791,1.758-16.146c0.598-4.019,1.354-8.136,2.247-12.217c3.954-18.253,10.681-36.898,19.993-55.412
				c5.349-10.631,11.606-21.321,18.6-31.776c28.985-43.397,62.803-71.333,64.229-72.501c1.799-1.474,4.067-2.285,6.389-2.285
				c3.032,0,5.877,1.344,7.805,3.687c3.516,4.314,2.883,10.674-1.399,14.192c-0.113,0.093-11.066,9.181-25.567,24.819
				c-3.995,4.303-7.957,8.78-11.775,13.311c-21.258,25.235-48.683,64.906-58.609,110.58c-0.899,4.138-1.605,8.023-2.161,11.88
				c-0.642,4.385-1.108,8.808-1.387,13.156C178.456,284.627,174.036,288.77,168.736,288.77z M271.89,95.711
				c-0.338,0-0.841,0.082-1.318,0.473c-1.388,1.138-34.315,28.338-62.648,70.759c-6.813,10.185-12.903,20.589-18.104,30.926
				c-9.008,17.911-15.509,35.918-19.322,53.519c-0.855,3.913-1.58,7.852-2.154,11.713c-0.792,5.142-1.357,10.335-1.683,15.455
				c-0.072,1.145,0.803,2.139,1.95,2.215h0.126c1.095,0,2.008-0.855,2.079-1.947c0.292-4.563,0.782-9.203,1.454-13.792
				c0.581-4.035,1.32-8.104,2.26-12.43c10.275-47.276,38.468-88.107,60.309-114.036c3.902-4.629,7.949-9.203,12.029-13.597
				c14.986-16.162,26.251-25.477,26.361-25.566c0.878-0.722,1.007-2.042,0.28-2.936C273.116,95.992,272.522,95.711,271.89,95.711z"
				/>
		</g>
		<g>
			<path fill="#00FF00" d="M237.896,141.142c0.25,21.459,3.801,69.548,27.621,118.338c1.76,3.621,3.639,7.241,5.629,10.852
				c1.361,2.459,2.781,4.918,4.25,7.379c1.141,1.9,3.15,2.951,5.221,2.951c1.061,0,2.15-0.281,3.119-0.871
				c2.891-1.72,3.82-5.459,2.09-8.34c-1.309-2.189-2.58-4.391-3.799-6.6c-2.01-3.621-3.891-7.261-5.641-10.891
				c-8.92-18.39-14.84-36.799-18.76-53.58c-3.09-13.21-4.93-25.409-6.029-35.8c-2.141-20.431-1.371-33.859-1.352-34.171
				c0.061-0.959-0.109-1.89-0.449-2.72c-0.859-2.068-2.83-3.589-5.221-3.75c-3.289-0.25-6.25,2.321-6.469,5.671
				C238.056,130.3,237.816,134.409,237.896,141.142z"/>
			<path d="M280.617,284.661c-3.578,0-6.812-1.829-8.65-4.893c-1.539-2.578-2.99-5.099-4.32-7.5
				c-2.027-3.678-3.953-7.391-5.727-11.041c-23.731-48.608-27.744-96.073-28.023-120.039c-0.09-7.546,0.219-11.83,0.222-11.872
				c0.359-5.498,5.181-9.796,10.761-9.365c3.816,0.257,7.128,2.635,8.611,6.203c0.587,1.436,0.843,2.987,0.748,4.507
				c-0.008,0.128-0.776,13.325,1.338,33.502c1.268,11.978,3.268,23.857,5.945,35.306c4.39,18.79,10.602,36.535,18.464,52.745
				c1.743,3.616,3.605,7.211,5.54,10.695c1.143,2.071,2.397,4.252,3.735,6.489c1.387,2.309,1.79,5.025,1.131,7.644
				c-0.657,2.611-2.294,4.809-4.609,6.186C284.253,284.158,282.456,284.661,280.617,284.661z M244.133,127.923
				c-1.034,0-1.966,0.892-2.035,1.948c-0.005,0.072-0.288,4.015-0.202,11.223c0.271,23.296,4.168,69.423,27.216,116.631
				c1.717,3.534,3.579,7.124,5.537,10.676c1.284,2.319,2.692,4.764,4.182,7.26c0.375,0.624,1.044,1.001,1.786,1.001
				c0.259,0,0.648-0.05,1.039-0.288c0.673-0.4,0.898-0.976,0.977-1.284c0.136-0.539,0.052-1.101-0.235-1.579
				c-1.389-2.323-2.69-4.584-3.873-6.727c-2.002-3.609-3.936-7.342-5.741-11.086c-8.117-16.734-14.529-35.043-19.052-54.407
				c-2.753-11.77-4.809-23.979-6.112-36.289c-2.196-20.957-1.375-34.706-1.366-34.842c0.021-0.321-0.035-0.651-0.159-0.954
				c-0.235-0.564-0.833-1.21-1.788-1.274C244.226,127.925,244.179,127.923,244.133,127.923z"/>
		</g>
		<g>
			<path fill="#00FF00" d="M239.552,121.634c-4.078,26.384,2.27,47.643,18.889,63.237c22.959,21.546,59.203,27.388,75.779,28.946
				c-6.324-35.639-17.971-61.625-34.66-77.285C276.263,114.67,249.349,119.034,239.552,121.634z"/>
			<path d="M334.22,217.817c-0.124,0-0.249-0.006-0.375-0.018c-19.16-1.802-54.789-8.096-78.142-30.012
				c-17.631-16.544-24.395-39.008-20.104-66.766c0.243-1.569,1.392-2.848,2.927-3.255c4-1.062,10.393-2.327,18.13-2.327
				c11.986,0,29.633,3.153,45.641,18.175c17.318,16.25,29.384,42.999,35.861,79.503c0.218,1.23-0.15,2.491-0.997,3.409
				C336.401,217.354,335.333,217.817,334.22,217.817z M243.131,124.886c-3.055,23.769,3.01,42.958,18.047,57.068
				c20.06,18.825,51.298,25.183,68.116,27.297c-6.348-32.062-17.261-55.529-32.472-69.802
				c-11.319-10.622-24.833-16.009-40.166-16.009C251.251,123.44,246.595,124.133,243.131,124.886z"/>
		</g>
		<path d="M312.137,343.895c-1.19,0-2.316-0.713-2.786-1.885c-0.616-1.536,0.128-3.279,1.663-3.898
			c0.93-0.38,22.069-9.34,12.402-33.785c-0.609-1.541,0.146-3.284,1.687-3.894c1.54-0.606,3.284,0.146,3.894,1.687
			c11.894,30.08-15.467,41.448-15.744,41.56C312.886,343.825,312.508,343.895,312.137,343.895z"/>
	</g>
	<rect x="-2873.953" y="-10859.594" fill="none" stroke="#000000" stroke-miterlimit="10" width="16736" height="13952"/>
</g>
<g id="sivinsko" display="none">
	<g id="rde훾a7bela_copy_3" display="inline">
	</g>
	<circle display="inline" fill="#494949" cx="156.969" cy="309.979" r="51.853"/>
	<path display="inline" d="M156.968,365.831c-30.797,0-55.852-25.055-55.852-55.852s25.055-55.852,55.852-55.852
		c30.798,0,55.854,25.055,55.854,55.852S187.766,365.831,156.968,365.831z M156.968,262.128c-26.386,0-47.852,21.466-47.852,47.852
		s21.466,47.852,47.852,47.852c26.387,0,47.854-21.466,47.854-47.852S183.355,262.128,156.968,262.128z"/>
	<circle display="inline" fill="#494949" cx="296.575" cy="309.979" r="51.853"/>
	<path display="inline" d="M296.574,365.831c-30.797,0-55.852-25.055-55.852-55.852s25.055-55.852,55.852-55.852
		c30.798,0,55.854,25.055,55.854,55.852S327.372,365.831,296.574,365.831z M296.574,262.128c-26.386,0-47.852,21.466-47.852,47.852
		s21.466,47.852,47.852,47.852c26.387,0,47.854-21.466,47.854-47.852S322.96,262.128,296.574,262.128z"/>
	<g display="inline">
		<path fill="#585858" d="M168.347,284.761c0.129,0.009,0.27,0.009,0.389,0.009c3.182,0,5.861-2.46,6.07-5.689
			c0.291-4.54,0.77-9.03,1.42-13.47c0.59-4.1,1.34-8.15,2.211-12.16c9.889-45.5,36.539-85.1,59.459-112.309
			c4.131-4.9,8.131-9.393,11.9-13.452c14.641-15.79,25.641-24.929,25.961-25.19c2.59-2.128,2.969-5.959,0.85-8.56
			c-2.141-2.601-5.971-2.979-8.57-0.85c-2.33,1.909-35.02,29.08-63.439,71.631c-6.48,9.688-12.73,20.179-18.352,31.35
			c-8.43,16.761-15.449,35.04-19.658,54.47c-0.861,3.939-1.602,7.939-2.201,11.971c-0.799,5.189-1.379,10.46-1.719,15.789
			C162.457,281.649,164.996,284.54,168.347,284.761z"/>
		<path d="M168.736,288.77c-0.203,0-0.442-0.003-0.661-0.019c-5.527-0.363-9.748-5.165-9.399-10.702
			c0.342-5.359,0.933-10.791,1.758-16.146c0.598-4.019,1.354-8.136,2.247-12.217c3.954-18.253,10.681-36.898,19.993-55.412
			c5.349-10.631,11.606-21.321,18.6-31.776c28.985-43.397,62.803-71.333,64.229-72.501c1.799-1.474,4.067-2.285,6.389-2.285
			c3.032,0,5.877,1.344,7.805,3.687c3.516,4.314,2.883,10.674-1.399,14.192c-0.113,0.093-11.066,9.181-25.567,24.819
			c-3.995,4.303-7.957,8.78-11.775,13.311c-21.258,25.235-48.683,64.906-58.609,110.58c-0.899,4.138-1.605,8.023-2.161,11.88
			c-0.642,4.385-1.108,8.808-1.387,13.156C178.456,284.627,174.036,288.77,168.736,288.77z M271.89,95.711
			c-0.338,0-0.841,0.082-1.318,0.473c-1.388,1.138-34.315,28.338-62.648,70.759c-6.813,10.185-12.903,20.589-18.104,30.926
			c-9.008,17.911-15.509,35.918-19.322,53.519c-0.855,3.913-1.58,7.852-2.154,11.713c-0.792,5.142-1.357,10.335-1.683,15.455
			c-0.072,1.145,0.802,2.139,1.95,2.215h0.126c1.095,0,2.008-0.855,2.079-1.947c0.292-4.563,0.782-9.203,1.454-13.792
			c0.581-4.035,1.32-8.104,2.26-12.43c10.275-47.276,38.468-88.107,60.309-114.036c3.902-4.629,7.949-9.203,12.029-13.597
			c14.986-16.162,26.251-25.477,26.361-25.566c0.878-0.722,1.007-2.042,0.28-2.936C273.116,95.992,272.522,95.711,271.89,95.711z"/>
	</g>
	<g display="inline">
		<path fill="#585858" d="M237.896,141.142c0.25,21.459,3.801,69.548,27.621,118.338c1.76,3.621,3.639,7.241,5.629,10.852
			c1.361,2.459,2.781,4.918,4.25,7.379c1.141,1.9,3.15,2.951,5.221,2.951c1.061,0,2.15-0.281,3.119-0.871
			c2.891-1.72,3.82-5.459,2.09-8.34c-1.309-2.189-2.58-4.391-3.799-6.6c-2.01-3.621-3.891-7.261-5.641-10.891
			c-8.92-18.39-14.84-36.799-18.76-53.58c-3.09-13.21-4.93-25.409-6.029-35.8c-2.141-20.431-1.371-33.859-1.352-34.171
			c0.061-0.959-0.109-1.89-0.449-2.72c-0.859-2.068-2.83-3.589-5.221-3.75c-3.289-0.25-6.25,2.321-6.469,5.671
			C238.056,130.3,237.816,134.409,237.896,141.142z"/>
		<path d="M280.617,284.661c-3.578,0-6.812-1.829-8.65-4.893c-1.539-2.578-2.99-5.099-4.32-7.5
			c-2.027-3.678-3.953-7.391-5.727-11.041c-23.731-48.608-27.744-96.073-28.023-120.039c-0.09-7.546,0.219-11.83,0.222-11.872
			c0.359-5.498,5.181-9.796,10.761-9.365c3.816,0.257,7.128,2.635,8.611,6.203c0.587,1.436,0.843,2.987,0.748,4.507
			c-0.008,0.128-0.776,13.325,1.338,33.502c1.268,11.978,3.268,23.857,5.945,35.306c4.39,18.79,10.602,36.535,18.464,52.745
			c1.743,3.616,3.605,7.211,5.54,10.695c1.143,2.071,2.397,4.252,3.735,6.489c1.387,2.309,1.79,5.025,1.131,7.644
			c-0.657,2.611-2.294,4.809-4.609,6.186C284.253,284.158,282.456,284.661,280.617,284.661z M244.133,127.923
			c-1.034,0-1.966,0.892-2.035,1.948c-0.005,0.072-0.288,4.015-0.202,11.223c0.271,23.296,4.168,69.423,27.216,116.631
			c1.717,3.534,3.579,7.124,5.537,10.676c1.284,2.319,2.692,4.764,4.182,7.26c0.375,0.624,1.044,1.001,1.786,1.001
			c0.259,0,0.648-0.05,1.039-0.288c0.673-0.4,0.898-0.976,0.977-1.284c0.136-0.539,0.052-1.101-0.235-1.579
			c-1.389-2.323-2.69-4.584-3.873-6.727c-2.002-3.609-3.936-7.342-5.741-11.086c-8.117-16.734-14.529-35.043-19.052-54.407
			c-2.753-11.77-4.809-23.979-6.112-36.289c-2.196-20.957-1.375-34.706-1.366-34.842c0.021-0.321-0.035-0.651-0.159-0.954
			c-0.235-0.564-0.833-1.21-1.788-1.274C244.226,127.925,244.179,127.923,244.133,127.923z"/>
	</g>
	<g display="inline">
		<path fill="#7B7B7B" d="M239.552,121.634c-4.078,26.384,2.27,47.643,18.889,63.237c22.959,21.546,59.203,27.388,75.779,28.946
			c-6.324-35.639-17.971-61.625-34.66-77.285C276.263,114.67,249.349,119.034,239.552,121.634z"/>
		<path d="M334.22,217.817c-0.124,0-0.249-0.006-0.375-0.018c-19.16-1.802-54.789-8.096-78.142-30.012
			c-17.631-16.544-24.395-39.008-20.104-66.766c0.243-1.569,1.392-2.848,2.927-3.255c4-1.062,10.393-2.327,18.13-2.327
			c11.986,0,29.633,3.153,45.641,18.175c17.318,16.25,29.384,42.999,35.861,79.503c0.218,1.23-0.15,2.491-0.997,3.409
			C336.401,217.354,335.333,217.817,334.22,217.817z M243.131,124.886c-3.055,23.769,3.01,42.958,18.047,57.068
			c20.06,18.825,51.298,25.183,68.116,27.297c-6.348-32.062-17.261-55.529-32.472-69.802
			c-11.319-10.622-24.833-16.009-40.166-16.009C251.251,123.44,246.595,124.133,243.131,124.886z"/>
	</g>
	<path display="inline" d="M312.137,343.895c-1.19,0-2.316-0.713-2.786-1.885c-0.616-1.536,0.128-3.279,1.663-3.898
		c0.93-0.38,22.069-9.34,12.402-33.785c-0.609-1.541,0.146-3.284,1.687-3.894c1.54-0.606,3.284,0.146,3.894,1.687
		c11.894,30.08-15.467,41.448-15.744,41.56C312.886,343.825,312.508,343.895,312.137,343.895z"/>
	<path display="inline" d="M13862.547,3092.906h-16737v-13953h16737V3092.906z M-2873.953,3091.906h16736l-0.5-13951h-16735.5
		l0.5,13951H-2873.953z"/>
</g>
<g id="linijsko" display="none">
	<g id="rde훾a7bela_copy" display="inline">
	</g>
	<g display="inline">
		<g>
			<path fill="none" stroke="#000000" stroke-width="8" stroke-linecap="round" stroke-linejoin="round" stroke-miterlimit="10" d="
				M165.012,258.752c-2.622-0.408-5.308-0.624-8.044-0.624c-28.637,0-51.852,23.215-51.852,51.852s23.215,51.852,51.852,51.852
				c28.639,0,51.854-23.215,51.854-51.852c0-21.618-13.233-40.14-32.04-47.923"/>
			<path fill="none" stroke="#000000" stroke-width="8" stroke-linecap="round" stroke-linejoin="round" stroke-miterlimit="10" d="
				M268.902,266.138c-14.526,9.188-24.18,25.383-24.18,43.842c0,28.637,23.215,51.852,51.852,51.852
				c28.638,0,51.854-23.215,51.854-51.852s-23.215-51.852-51.854-51.852c-5.835,0-11.439,0.979-16.674,2.756"/>
			<path fill="none" stroke="#000000" stroke-width="8" stroke-linecap="round" stroke-linejoin="round" stroke-miterlimit="10" d="
				M176.782,262.057c0.482-2.891,1.036-5.76,1.655-8.606c9.889-45.5,36.539-85.1,59.459-112.309"/>
			<path fill="none" stroke="#000000" stroke-width="8" stroke-linecap="round" stroke-linejoin="round" stroke-miterlimit="10" d="
				M176.782,262.057c-0.197,1.182-0.385,2.365-0.556,3.554c-0.65,4.439-1.129,8.93-1.42,13.47c-0.209,3.229-2.889,5.689-6.07,5.689
				c-0.119,0-0.26,0-0.389-0.009c-3.352-0.221-5.891-3.111-5.68-6.461c0.34-5.329,0.92-10.6,1.719-15.789
				c0.187-1.259,0.412-2.507,0.626-3.759"/>
			<path fill="none" stroke="#000000" stroke-width="8" stroke-linecap="round" stroke-linejoin="round" stroke-miterlimit="10" d="
				M165.012,258.752c0.472-2.758,0.983-5.502,1.575-8.212c4.209-19.43,11.229-37.709,19.658-54.47
				c5.621-11.171,11.871-21.661,18.352-31.35c28.42-42.551,61.109-69.722,63.439-71.631c2.6-2.13,6.43-1.751,8.57,0.85
				c2.119,2.601,1.74,6.432-0.85,8.56c-0.26,0.212-7.54,6.261-18.088,16.956"/>
			<path fill="none" stroke="#000000" stroke-width="8" stroke-linecap="round" stroke-linejoin="round" stroke-miterlimit="10" d="
				M237.896,141.142c0.186-0.221,0.367-0.429,0.553-0.647"/>
			<path fill="none" stroke="#000000" stroke-width="8" stroke-linecap="round" stroke-linejoin="round" stroke-miterlimit="10" d="
				M268.902,266.138c0.736,1.398,1.474,2.798,2.244,4.193c1.361,2.459,2.781,4.918,4.25,7.379c1.141,1.9,3.15,2.951,5.221,2.951
				c1.061,0,2.15-0.281,3.119-0.871c2.891-1.72,3.82-5.459,2.09-8.34c-1.309-2.189-2.58-4.391-3.799-6.6
				c-0.732-1.319-1.429-2.644-2.127-3.967"/>
			<path fill="none" stroke="#000000" stroke-width="8" stroke-linecap="round" stroke-linejoin="round" stroke-miterlimit="10" d="
				M238.855,127.087c-0.419,0.757-0.689,1.609-0.749,2.523c-0.051,0.689-0.291,4.799-0.211,11.531"/>
			<path fill="none" stroke="#000000" stroke-width="8" stroke-linecap="round" stroke-linejoin="round" stroke-miterlimit="10" d="
				M268.902,266.138c-1.167-2.218-2.306-4.438-3.385-6.658c-23.82-48.79-27.371-96.879-27.621-118.338"/>
			<path fill="none" stroke="#000000" stroke-width="8" stroke-linecap="round" stroke-linejoin="round" stroke-miterlimit="10" d="
				M279.9,260.884c-1.217-2.308-2.401-4.617-3.514-6.924c-8.92-18.39-14.84-36.799-18.76-53.58
				c-1.682-7.192-2.983-14.069-4.007-20.534"/>
			<path fill="none" stroke="#000000" stroke-width="8" stroke-linecap="round" stroke-linejoin="round" stroke-miterlimit="10" d="
				M238.855,127.087c0.183-1.794,0.412-3.609,0.697-5.453c3.832-1.017,10.289-2.297,18.117-2.179"/>
			<path fill="none" stroke="#000000" stroke-width="8" stroke-linecap="round" stroke-linejoin="round" stroke-miterlimit="10" d="
				M238.855,127.087c-0.474,4.638-0.612,9.109-0.407,13.407"/>
			<path fill="none" stroke="#000000" stroke-width="8" stroke-linecap="round" stroke-linejoin="round" stroke-miterlimit="10" d="
				M238.449,140.494c0.735,15.361,5.81,28.525,15.17,39.352"/>
			<path fill="none" stroke="#000000" stroke-width="8" stroke-linecap="round" stroke-linejoin="round" stroke-miterlimit="10" d="
				M253.619,179.846c1.5,1.734,3.103,3.412,4.822,5.025c22.959,21.546,59.203,27.388,75.779,28.946
				c-6.324-35.639-17.971-61.625-34.66-77.285c-14.185-13.312-29.704-16.894-41.891-17.077"/>
		</g>
		<path fill="none" stroke="#000000" stroke-width="6" stroke-linecap="round" stroke-linejoin="round" stroke-miterlimit="10" d="
			M312.136,340.894c0,0,25.004-10.021,14.07-37.671"/>
	</g>
</g>
<g id="pivot">
	<circle fill="none" cx="216.252" cy="362.022" r="14.133"/>
</g>
</svg>
