<?xml version="1.0" encoding="utf-8"?>
<!-- Generator: Adobe Illustrator 16.0.0, SVG Export Plug-In . SVG Version: 6.00 Build 0)  -->
<!DOCTYPE svg PUBLIC "-//W3C//DTD SVG 1.1//EN" "http://www.w3.org/Graphics/SVG/1.1/DTD/svg11.dtd">
<svg version="1.1" xmlns="http://www.w3.org/2000/svg" xmlns:xlink="http://www.w3.org/1999/xlink" x="0px" y="0px"
	 width="453.543px" height="453.543px" viewBox="0 0 453.543 453.543" enable-background="new 0 0 453.543 453.543"
	 xml:space="preserve">
<g id="kvadrat">
</g>
<g id="bg" display="none">
	<rect x="-832.959" y="-745.095" display="inline" width="15266.867" height="13678.951"/>
</g>
<g id="barvno" display="none">
	<g display="inline">
		<g>
			
				<path fill="#422918" stroke="#000000" stroke-width="8" stroke-linecap="round" stroke-linejoin="round" stroke-miterlimit="10" d="
				M181.572,320.374c0,0,6.39,17.026,45.764,17.026c0,0,0,0,0.007,0c39.373,0,45.765-17.026,45.765-17.026V258.44h-91.536V320.374z"
				/>
			
				<path fill="#B17F49" stroke="#000000" stroke-width="8" stroke-linecap="round" stroke-linejoin="round" stroke-miterlimit="10" d="
				M329.253,188.907c-9.042-43.011-65.401-72.158-101.917-72.75v-0.015c-0.186,0-0.377,0.006-0.565,0.006
				c-0.188,0-0.379-0.006-0.566-0.006v0.015c-36.515,0.592-92.873,29.739-101.915,72.75c-3.489,16.602-6.69,36.312-3.098,44.896
				c3.159,7.556,6.374,28.087,105.579,26.628c99.204,1.459,102.419-19.073,105.579-26.628
				C335.943,225.219,332.741,205.509,329.253,188.907z"/>
		</g>
		<path fill="none" stroke="#000000" stroke-width="6" stroke-linecap="round" stroke-linejoin="round" stroke-miterlimit="10" d="
			M304.847,223.758c0,0,1.857-37.145-28.697-63.485"/>
	</g>
	<g id="rde훾a7bela" display="inline">
	</g>
	
		<rect x="-1343.244" y="-1165.104" display="inline" fill="none" stroke="#000000" stroke-miterlimit="10" width="16736" height="13952"/>
</g>
<g id="barvno_copy_2">
	<g>
		<g>
			
				<path fill="#00FFFF" stroke="#000000" stroke-width="8" stroke-linecap="round" stroke-linejoin="round" stroke-miterlimit="10" d="
				M181.572,320.374c0,0,6.39,17.026,45.764,17.026c0,0,0,0,0.007,0c39.373,0,45.765-17.026,45.765-17.026V258.44h-91.536V320.374z"
				/>
			
				<path fill="#00FFFF" stroke="#000000" stroke-width="8" stroke-linecap="round" stroke-linejoin="round" stroke-miterlimit="10" d="
				M329.253,188.907c-9.042-43.011-65.401-72.158-101.917-72.75v-0.015c-0.186,0-0.377,0.006-0.565,0.006
				c-0.188,0-0.379-0.006-0.566-0.006v0.015c-36.515,0.592-92.873,29.739-101.915,72.75c-3.489,16.602-6.69,36.312-3.098,44.896
				c3.159,7.556,6.374,28.087,105.579,26.628c99.204,1.459,102.419-19.073,105.579-26.628
				C335.943,225.219,332.741,205.509,329.253,188.907z"/>
		</g>
		<path fill="none" stroke="#000000" stroke-width="6" stroke-linecap="round" stroke-linejoin="round" stroke-miterlimit="10" d="
			M304.847,223.758c0,0,1.857-37.145-28.697-63.485"/>
	</g>
	<g id="rde훾a7bela_copy_4">
	</g>
	<rect x="-1343.244" y="-1165.104" fill="none" stroke="#000000" stroke-miterlimit="10" width="16736" height="13952"/>
</g>
<g id="sivinsko" display="none">
	<g display="inline">
		<g>
			<g>
				<path fill="#2F2F2F" d="M181.572,320.374c0,0,6.39,17.026,45.764,17.026c0,0,0,0,0.007,0c39.373,0,45.765-17.026,45.765-17.026
					V258.44h-91.536V320.374z"/>
				<path d="M227.344,341.4h-0.007c-41.666,0-49.208-18.82-49.509-19.621c-0.168-0.449-0.255-0.925-0.255-1.405V258.44
					c0-2.209,1.791-4,4-4h91.536c2.209,0,4,1.791,4,4v61.934c0,0.48-0.086,0.956-0.255,1.406
					C276.553,322.582,269.009,341.4,227.344,341.4z M185.572,319.439c1.479,2.484,10.032,13.961,41.764,13.961h0.007
					c31.586,0,40.206-11.373,41.765-13.98v-56.98h-83.536V319.439z"/>
			</g>
			<g>
				<path fill="#888888" d="M329.253,188.907c-9.042-43.011-65.401-72.158-101.917-72.75v-0.015c-0.186,0-0.377,0.006-0.565,0.006
					c-0.188,0-0.379-0.006-0.566-0.006v0.015c-36.515,0.592-92.873,29.739-101.915,72.75c-3.489,16.602-6.69,36.312-3.098,44.896
					c3.159,7.556,6.374,28.087,105.579,26.628c99.204,1.459,102.419-19.073,105.579-26.628
					C335.943,225.219,332.741,205.509,329.253,188.907z"/>
				<path d="M236.599,264.507c-0.005,0-0.005,0-0.012,0c-3.182,0-6.485-0.025-9.816-0.074c-3.335,0.049-6.638,0.074-9.817,0.074
					c-88.125,0-95.504-19.012-99.051-28.148c-0.14-0.359-0.27-0.698-0.401-1.011c-3.25-7.766-2.364-22.343,2.874-47.264
					c4.315-20.525,19.375-39.995,42.405-54.822c19.911-12.819,43.434-20.691,63.007-21.098c0.138-0.014,0.277-0.021,0.418-0.021
					l0.577,0.006l0.554-0.006c0.142,0,0.282,0.008,0.419,0.021c19.573,0.407,43.096,8.279,63.006,21.098
					c23.03,14.827,38.09,34.297,42.405,54.822c5.237,24.923,6.123,39.5,2.873,47.264c-0.131,0.313-0.263,0.653-0.402,1.013
					C332.093,245.498,324.711,264.507,236.599,264.507z M226.771,256.432c0.02,0,0.039,0,0.059,0
					c3.313,0.049,6.596,0.074,9.758,0.074c0.002,0,0.009,0,0.011,0c36.178,0,62.064-3.192,76.951-9.489
					c11.211-4.743,13.187-9.833,14.629-13.551c0.167-0.429,0.324-0.832,0.48-1.206c2.481-5.927,1.363-20.237-3.321-42.532
					c-8.754-41.641-63.929-69.019-98.067-69.572c-0.079-0.002-0.157-0.005-0.235-0.011l-0.254,0.003l-0.277-0.003
					c-0.078,0.006-0.156,0.009-0.235,0.011c-34.137,0.553-89.311,27.931-98.065,69.573c-4.686,22.292-5.803,36.602-3.322,42.529
					c0.156,0.374,0.313,0.776,0.479,1.204c1.443,3.717,3.419,8.808,14.631,13.552c16.188,6.847,45.425,10.023,86.72,9.417
					C226.732,256.432,226.752,256.432,226.771,256.432z"/>
			</g>
		</g>
		<path d="M304.849,226.758c-0.051,0-0.101-0.001-0.152-0.003c-1.653-0.083-2.927-1.489-2.847-3.142l0,0
			c0.017-0.358,1.362-36.048-27.66-61.068c-1.255-1.082-1.395-2.976-0.313-4.23c1.082-1.255,2.977-1.396,4.231-0.313
			c31.305,26.988,29.813,64.331,29.734,65.907C307.763,225.512,306.437,226.758,304.849,226.758z"/>
	</g>
	<g id="rde훾a7bela_copy_3" display="inline">
	</g>
	<path display="inline" d="M15393.256,12787.396h-16737v-13953h16737V12787.396z M-1343.244,12786.396h16736l-0.5-13951h-16735.5
		l0.5,13951H-1343.244z"/>
</g>
<g id="linijsko" display="none">
	<g display="inline">
		<path fill="none" stroke="#000000" stroke-width="8" stroke-linecap="round" stroke-linejoin="round" stroke-miterlimit="10" d="
			M226.771,260.432c-18.059,0.266-32.923-0.2-45.199-1.181v61.123c0,0,6.39,17.026,45.764,17.026c0,0,0,0,0.007,0
			c39.373,0,45.765-17.026,45.765-17.026v-61.212C260.62,260.206,245.386,260.706,226.771,260.432z"/>
		<path fill="none" stroke="#000000" stroke-width="6" stroke-linecap="round" stroke-linejoin="round" stroke-miterlimit="10" d="
			M304.847,223.758c0,0,1.857-37.145-28.697-63.485"/>
		<g>
			<path fill="none" stroke="#000000" stroke-width="8" stroke-linecap="round" stroke-linejoin="round" stroke-miterlimit="10" d="
				M329.253,188.907c-9.042-43.011-65.401-72.158-101.917-72.75v-0.015c-0.186,0-0.377,0.006-0.565,0.006
				c-0.188,0-0.379-0.006-0.566-0.006v0.015c-36.515,0.592-92.873,29.739-101.915,72.75c-3.489,16.602-6.69,36.312-3.098,44.896
				c3.159,7.556,6.374,28.087,105.579,26.628c99.204,1.459,102.419-19.073,105.579-26.628
				C335.943,225.219,332.741,205.509,329.253,188.907z"/>
		</g>
	</g>
	<g id="rde훾a7bela_copy" display="inline">
	</g>
</g>
<g id="pivot">
	<circle fill="none" cx="223.235" cy="340.584" r="14.132"/>
</g>
</svg>
