<?xml version="1.0" encoding="utf-8"?>
<!-- Generator: Adobe Illustrator 16.0.0, SVG Export Plug-In . SVG Version: 6.00 Build 0)  -->
<!DOCTYPE svg PUBLIC "-//W3C//DTD SVG 1.1//EN" "http://www.w3.org/Graphics/SVG/1.1/DTD/svg11.dtd">
<svg version="1.1" xmlns="http://www.w3.org/2000/svg" xmlns:xlink="http://www.w3.org/1999/xlink" x="0px" y="0px"
	 width="453.543px" height="453.543px" viewBox="0 0 453.543 453.543" enable-background="new 0 0 453.543 453.543"
	 xml:space="preserve">
<g id="kvadrat">
</g>
<g id="bg" display="none">
	<rect x="-1853.431" y="-234.859" display="inline" width="15266.867" height="13678.951"/>
</g>
<g id="barvno" display="none">
	<g display="inline">
		
			<path fill="#7E4E24" stroke="#000000" stroke-width="8" stroke-linecap="round" stroke-linejoin="round" stroke-miterlimit="10" d="
			M233.348,197.018l-11.953-1.065c0.03-0.342,2.312-27.855-5.582-48.93c-9.711,6.931-23.079,10.26-38.049,6.5
			c-14.116-3.546-23.011-12.257-23.797-23.306c-0.714-10.029,5.521-19.515,15.516-23.602c14.705-6.011,32.546,1.046,47.725,18.88
			c0.262,0.308,0.521,0.622,0.775,0.936c0.576-1.252,1.034-2.54,1.363-3.852c3.306-13.161-4.61-28.005-24.526-33.006
			c0,0-7.132-2.62-5.557-7.744c1.575-5.125,8.48-3.895,8.48-3.895c32.066,8.052,37.026,32.504,33.242,47.568
			c-1.104,4.398-3.146,8.649-5.973,12.491C236.244,162.464,233.493,195.38,233.348,197.018z M180.366,116.506
			c-2.221,0-4.347,0.401-6.343,1.217c-5.101,2.086-8.427,6.874-8.087,11.645c0.405,5.7,5.782,10.262,14.75,12.515
			c11.653,2.927,22.292-0.027,29.549-5.787c-0.683-0.985-1.403-1.926-2.167-2.823C198.823,122.41,188.9,116.506,180.366,116.506z"/>
		
			<circle fill="#662482" stroke="#000000" stroke-width="8" stroke-linecap="round" stroke-linejoin="round" stroke-miterlimit="10" cx="172.873" cy="248.991" r="26.95"/>
		
			<path fill="#662482" stroke="#000000" stroke-width="8" stroke-linecap="round" stroke-linejoin="round" stroke-miterlimit="10" d="
			M172.873,199.09c0,14.886-12.067,26.952-26.95,26.952c-14.884,0-26.95-12.066-26.95-26.952c0-14.881,12.066-26.948,26.95-26.948
			C160.806,172.142,172.873,184.208,172.873,199.09z"/>
		
			<circle fill="#662482" stroke="#000000" stroke-width="8" stroke-linecap="round" stroke-linejoin="round" stroke-miterlimit="10" cx="226.772" cy="348.79" r="26.95"/>
		
			<circle fill="#662482" stroke="#000000" stroke-width="8" stroke-linecap="round" stroke-linejoin="round" stroke-miterlimit="10" cx="199.822" cy="298.89" r="26.95"/>
		
			<circle fill="#662482" stroke="#000000" stroke-width="8" stroke-linecap="round" stroke-linejoin="round" stroke-miterlimit="10" cx="226.772" cy="248.991" r="26.95"/>
		
			<path fill="#662482" stroke="#000000" stroke-width="8" stroke-linecap="round" stroke-linejoin="round" stroke-miterlimit="10" d="
			M226.772,199.09c0,14.886-12.066,26.952-26.95,26.952s-26.95-12.066-26.95-26.952c0-14.881,12.066-26.948,26.95-26.948
			S226.772,184.208,226.772,199.09z"/>
		
			<circle fill="#662482" stroke="#000000" stroke-width="8" stroke-linecap="round" stroke-linejoin="round" stroke-miterlimit="10" cx="253.722" cy="298.89" r="26.95"/>
		
			<circle fill="#662482" stroke="#000000" stroke-width="8" stroke-linecap="round" stroke-linejoin="round" stroke-miterlimit="10" cx="280.671" cy="248.991" r="26.95"/>
		
			<path fill="#662482" stroke="#000000" stroke-width="8" stroke-linecap="round" stroke-linejoin="round" stroke-miterlimit="10" d="
			M280.671,199.09c0,14.886-12.066,26.952-26.95,26.952s-26.95-12.066-26.95-26.952c0-14.881,12.066-26.948,26.95-26.948
			S280.671,184.208,280.671,199.09z"/>
		
			<path fill="#662482" stroke="#000000" stroke-width="8" stroke-linecap="round" stroke-linejoin="round" stroke-miterlimit="10" d="
			M334.571,199.09c0,14.886-12.066,26.952-26.95,26.952s-26.95-12.066-26.95-26.952c0-14.881,12.066-26.948,26.95-26.948
			S334.571,184.208,334.571,199.09z"/>
	</g>
	<g id="rde훾a7bela" display="inline">
	</g>
	
		<rect x="-2363.716" y="-654.868" display="inline" fill="none" stroke="#000000" stroke-miterlimit="10" width="16736" height="13952"/>
</g>
<g id="barvno_copy_2">
	<g>
		
			<path fill="#00FF00" stroke="#000000" stroke-width="8" stroke-linecap="round" stroke-linejoin="round" stroke-miterlimit="10" d="
			M233.348,197.018l-11.953-1.065c0.03-0.342,2.312-27.855-5.582-48.93c-9.711,6.931-23.079,10.26-38.049,6.5
			c-14.116-3.546-23.011-12.257-23.797-23.306c-0.714-10.029,5.521-19.515,15.516-23.602c14.705-6.011,32.546,1.046,47.725,18.88
			c0.262,0.308,0.521,0.622,0.775,0.936c0.576-1.252,1.034-2.54,1.363-3.852c3.306-13.161-4.61-28.005-24.526-33.006
			c0,0-7.132-2.62-5.557-7.744c1.575-5.125,8.48-3.895,8.48-3.895c32.066,8.052,37.026,32.504,33.242,47.568
			c-1.104,4.398-3.146,8.649-5.973,12.491C236.244,162.464,233.493,195.38,233.348,197.018z M180.366,116.506
			c-2.221,0-4.347,0.401-6.343,1.217c-5.101,2.086-8.427,6.874-8.087,11.645c0.405,5.7,5.782,10.262,14.75,12.515
			c11.653,2.927,22.292-0.027,29.549-5.787c-0.683-0.985-1.403-1.926-2.167-2.823C198.823,122.41,188.9,116.506,180.366,116.506z"/>
		
			<circle fill="#FF0000" stroke="#000000" stroke-width="8" stroke-linecap="round" stroke-linejoin="round" stroke-miterlimit="10" cx="172.873" cy="248.991" r="26.95"/>
		
			<path fill="#FF0000" stroke="#000000" stroke-width="8" stroke-linecap="round" stroke-linejoin="round" stroke-miterlimit="10" d="
			M172.873,199.09c0,14.886-12.067,26.952-26.95,26.952c-14.884,0-26.95-12.066-26.95-26.952c0-14.881,12.066-26.948,26.95-26.948
			C160.806,172.142,172.873,184.208,172.873,199.09z"/>
		
			<circle fill="#FF0000" stroke="#000000" stroke-width="8" stroke-linecap="round" stroke-linejoin="round" stroke-miterlimit="10" cx="226.772" cy="348.79" r="26.95"/>
		
			<circle fill="#FF0000" stroke="#000000" stroke-width="8" stroke-linecap="round" stroke-linejoin="round" stroke-miterlimit="10" cx="199.822" cy="298.89" r="26.95"/>
		
			<circle fill="#FF0000" stroke="#000000" stroke-width="8" stroke-linecap="round" stroke-linejoin="round" stroke-miterlimit="10" cx="226.772" cy="248.991" r="26.95"/>
		
			<path fill="#FF0000" stroke="#000000" stroke-width="8" stroke-linecap="round" stroke-linejoin="round" stroke-miterlimit="10" d="
			M226.772,199.09c0,14.886-12.066,26.952-26.95,26.952s-26.95-12.066-26.95-26.952c0-14.881,12.066-26.948,26.95-26.948
			S226.772,184.208,226.772,199.09z"/>
		
			<circle fill="#FF0000" stroke="#000000" stroke-width="8" stroke-linecap="round" stroke-linejoin="round" stroke-miterlimit="10" cx="253.722" cy="298.89" r="26.95"/>
		
			<circle fill="#FF0000" stroke="#000000" stroke-width="8" stroke-linecap="round" stroke-linejoin="round" stroke-miterlimit="10" cx="280.671" cy="248.991" r="26.95"/>
		
			<path fill="#FF0000" stroke="#000000" stroke-width="8" stroke-linecap="round" stroke-linejoin="round" stroke-miterlimit="10" d="
			M280.671,199.09c0,14.886-12.066,26.952-26.95,26.952s-26.95-12.066-26.95-26.952c0-14.881,12.066-26.948,26.95-26.948
			S280.671,184.208,280.671,199.09z"/>
		
			<path fill="#FF0000" stroke="#000000" stroke-width="8" stroke-linecap="round" stroke-linejoin="round" stroke-miterlimit="10" d="
			M334.571,199.09c0,14.886-12.066,26.952-26.95,26.952s-26.95-12.066-26.95-26.952c0-14.881,12.066-26.948,26.95-26.948
			S334.571,184.208,334.571,199.09z"/>
	</g>
	<g id="rde훾a7bela_copy_4">
	</g>
	<rect x="-2363.716" y="-654.868" fill="none" stroke="#000000" stroke-miterlimit="10" width="16736" height="13952"/>
</g>
<g id="sivinsko" display="none">
	<g display="inline">
		<g>
			<path fill="#585858" d="M233.348,197.018l-11.953-1.065c0.03-0.342,2.312-27.855-5.582-48.93
				c-9.711,6.931-23.079,10.26-38.049,6.5c-14.116-3.546-23.011-12.257-23.797-23.306c-0.714-10.029,5.521-19.515,15.516-23.602
				c14.705-6.011,32.546,1.046,47.725,18.88c0.262,0.308,0.521,0.622,0.775,0.936c0.576-1.252,1.034-2.54,1.363-3.852
				c3.306-13.161-4.61-28.005-24.526-33.006c0,0-7.132-2.62-5.557-7.744c1.575-5.125,8.48-3.895,8.48-3.895
				c32.066,8.052,37.026,32.504,33.242,47.568c-1.104,4.398-3.146,8.649-5.973,12.491
				C236.244,162.464,233.493,195.38,233.348,197.018z M180.366,116.506c-2.221,0-4.347,0.401-6.343,1.217
				c-5.101,2.086-8.427,6.874-8.087,11.645c0.405,5.7,5.782,10.262,14.75,12.515c11.653,2.927,22.292-0.027,29.549-5.787
				c-0.683-0.985-1.403-1.926-2.167-2.823C198.823,122.41,188.9,116.506,180.366,116.506z"/>
			<path d="M233.348,201.018c-0.118,0-0.237-0.005-0.355-0.016l-11.953-1.065c-2.2-0.197-3.824-2.139-3.629-4.338
				c0.021-0.243,1.893-23.088-3.784-42.474c-7.07,3.916-15.094,5.965-23.492,5.965c-4.394,0-8.884-0.568-13.346-1.689
				c-15.875-3.988-25.898-14.044-26.813-26.901c-0.837-11.758,6.394-22.846,17.992-27.587c3.896-1.593,8.039-2.4,12.316-2.4
				c11.96,0,24.478,6.255,35.729,17.742c0.354-4.532-0.858-9.046-3.534-12.994c-3.812-5.62-10.255-9.704-18.635-11.808
				c-0.137-0.035-0.272-0.077-0.405-0.125c-5.148-1.891-9.849-6.664-8.001-12.674c1.318-4.289,5.259-6.849,10.541-6.849
				c1.322,0,2.285,0.159,2.464,0.192c0.092,0.016,0.183,0.035,0.272,0.058c19.395,4.87,28.446,15.283,32.625,23.159
				c4.689,8.841,5.973,19.507,3.523,29.263c-1.051,4.186-2.827,8.199-5.29,11.957c10.595,25.178,7.883,57.534,7.758,58.937
				c-0.093,1.058-0.604,2.034-1.417,2.714C235.192,200.69,234.282,201.018,233.348,201.018z M225.605,192.312l4.002,0.358
				c0.414-9.536,0.468-34.055-8.231-53.008c-0.607-1.322-0.449-2.868,0.414-4.039c2.548-3.462,4.336-7.196,5.315-11.095
				c0.934-3.719,2.528-13.46-2.832-23.565c-4.948-9.328-14.138-15.753-27.318-19.102c-0.158-0.019-0.52-0.056-0.976-0.056
				c-1.676,0-2.649,0.403-2.895,1.2c-0.32,1.042,2.037,2.354,2.976,2.758c10.188,2.613,18.151,7.799,23.04,15.009
				c4.633,6.833,6.097,14.924,4.124,22.783c-0.384,1.534-0.925,3.066-1.609,4.549c-0.578,1.257-1.765,2.126-3.138,2.297
				c-1.374,0.171-2.737-0.379-3.606-1.457c-0.232-0.287-0.471-0.575-0.71-0.856c-10.744-12.623-22.775-19.575-33.876-19.575
				c-3.234,0-6.359,0.608-9.289,1.805c-8.391,3.431-13.631,11.313-13.04,19.615c0.657,9.238,8.427,16.606,20.782,19.71
				c12.59,3.163,25.109,1.005,34.751-5.876c1.012-0.721,2.303-0.933,3.491-0.57c1.189,0.363,2.143,1.258,2.578,2.422
				C225.965,162.724,225.944,183.688,225.605,192.312z M189.778,147.028c-0.001,0,0,0-0.001,0c-3.335,0-6.722-0.426-10.065-1.266
				c-10.755-2.702-17.23-8.574-17.766-16.112c-0.46-6.47,3.883-12.898,10.563-15.629c2.459-1.006,5.103-1.516,7.857-1.516
				c9.853,0,20.773,6.455,30.749,18.175c0.833,0.98,1.645,2.035,2.407,3.135c1.202,1.733,0.852,4.102-0.8,5.414
				C206.386,144.258,198.237,147.028,189.778,147.028z M180.366,120.506c-1.711,0-3.336,0.31-4.83,0.92
				c-3.466,1.417-5.826,4.638-5.611,7.658c0.271,3.807,4.658,7.142,11.735,8.92c2.707,0.679,5.438,1.024,8.116,1.024
				c0,0,0.001,0,0.001,0c5.256,0,10.338-1.341,14.67-3.83C196.302,125.85,187.559,120.506,180.366,120.506z"/>
		</g>
		<g>
			<circle fill="#424242" cx="172.873" cy="248.991" r="26.95"/>
			<path d="M172.873,279.94c-17.065,0-30.95-13.884-30.95-30.949c0-17.065,13.884-30.949,30.95-30.949s30.95,13.884,30.95,30.949
				C203.822,266.057,189.938,279.94,172.873,279.94z M172.873,226.042c-12.654,0-22.95,10.296-22.95,22.949
				c0,12.654,10.295,22.949,22.95,22.949s22.95-10.295,22.95-22.949C195.822,236.338,185.527,226.042,172.873,226.042z"/>
		</g>
		<g>
			<path fill="#424242" d="M172.873,199.09c0,14.886-12.067,26.952-26.95,26.952c-14.884,0-26.95-12.066-26.95-26.952
				c0-14.881,12.066-26.948,26.95-26.948C160.806,172.142,172.873,184.208,172.873,199.09z"/>
			<path d="M145.923,230.042c-17.066,0-30.95-13.885-30.95-30.952c0-17.064,13.884-30.948,30.95-30.948s30.95,13.884,30.95,30.948
				C176.873,216.157,162.989,230.042,145.923,230.042z M145.923,176.142c-12.655,0-22.95,10.294-22.95,22.948
				c0,12.656,10.295,22.952,22.95,22.952s22.95-10.296,22.95-22.952C168.873,186.437,158.578,176.142,145.923,176.142z"/>
		</g>
		<g>
			<circle fill="#424242" cx="226.772" cy="348.79" r="26.95"/>
			<path d="M226.772,379.739c-17.065,0-30.95-13.884-30.95-30.949c0-17.066,13.884-30.951,30.95-30.951s30.95,13.885,30.95,30.951
				C257.722,365.855,243.837,379.739,226.772,379.739z M226.772,325.839c-12.654,0-22.95,10.296-22.95,22.951
				c0,12.654,10.295,22.949,22.95,22.949s22.95-10.295,22.95-22.949C249.722,336.135,239.426,325.839,226.772,325.839z"/>
		</g>
		<g>
			<circle fill="#424242" cx="199.822" cy="298.89" r="26.95"/>
			<path d="M199.822,329.839c-17.066,0-30.95-13.883-30.95-30.949s13.884-30.95,30.95-30.95s30.95,13.884,30.95,30.95
				S216.888,329.839,199.822,329.839z M199.822,275.94c-12.655,0-22.95,10.295-22.95,22.95c0,12.654,10.295,22.949,22.95,22.949
				s22.95-10.295,22.95-22.949C222.772,286.236,212.477,275.94,199.822,275.94z"/>
		</g>
		<g>
			<circle fill="#424242" cx="226.772" cy="248.991" r="26.95"/>
			<path d="M226.772,279.94c-17.065,0-30.95-13.884-30.95-30.949c0-17.065,13.884-30.949,30.95-30.949s30.95,13.884,30.95,30.949
				C257.722,266.057,243.837,279.94,226.772,279.94z M226.772,226.042c-12.654,0-22.95,10.296-22.95,22.949
				c0,12.654,10.295,22.949,22.95,22.949s22.95-10.295,22.95-22.949C249.722,236.338,239.426,226.042,226.772,226.042z"/>
		</g>
		<g>
			<path fill="#424242" d="M226.772,199.09c0,14.886-12.066,26.952-26.95,26.952s-26.95-12.066-26.95-26.952
				c0-14.881,12.066-26.948,26.95-26.948S226.772,184.208,226.772,199.09z"/>
			<path d="M199.822,230.042c-17.066,0-30.95-13.885-30.95-30.952c0-17.064,13.884-30.948,30.95-30.948s30.95,13.884,30.95,30.948
				C230.772,216.157,216.888,230.042,199.822,230.042z M199.822,176.142c-12.655,0-22.95,10.294-22.95,22.948
				c0,12.656,10.295,22.952,22.95,22.952s22.95-10.296,22.95-22.952C222.772,186.437,212.477,176.142,199.822,176.142z"/>
		</g>
		<g>
			<circle fill="#424242" cx="253.722" cy="298.89" r="26.95"/>
			<path d="M253.722,329.839c-17.066,0-30.95-13.883-30.95-30.949s13.884-30.95,30.95-30.95s30.95,13.884,30.95,30.95
				S270.788,329.839,253.722,329.839z M253.722,275.94c-12.655,0-22.95,10.295-22.95,22.95c0,12.654,10.295,22.949,22.95,22.949
				s22.95-10.295,22.95-22.949C276.671,286.236,266.376,275.94,253.722,275.94z"/>
		</g>
		<g>
			<circle fill="#424242" cx="280.671" cy="248.991" r="26.95"/>
			<path d="M280.671,279.94c-17.065,0-30.95-13.884-30.95-30.949c0-17.065,13.884-30.949,30.95-30.949s30.95,13.884,30.95,30.949
				C311.621,266.057,297.737,279.94,280.671,279.94z M280.671,226.042c-12.654,0-22.95,10.296-22.95,22.949
				c0,12.654,10.295,22.949,22.95,22.949s22.95-10.295,22.95-22.949C303.621,236.338,293.326,226.042,280.671,226.042z"/>
		</g>
		<g>
			<path fill="#424242" d="M280.671,199.09c0,14.886-12.066,26.952-26.95,26.952s-26.95-12.066-26.95-26.952
				c0-14.881,12.066-26.948,26.95-26.948S280.671,184.208,280.671,199.09z"/>
			<path d="M253.722,230.042c-17.066,0-30.95-13.885-30.95-30.952c0-17.064,13.884-30.948,30.95-30.948s30.95,13.884,30.95,30.948
				C284.671,216.157,270.788,230.042,253.722,230.042z M253.722,176.142c-12.655,0-22.95,10.294-22.95,22.948
				c0,12.656,10.295,22.952,22.95,22.952s22.95-10.296,22.95-22.952C276.671,186.437,266.376,176.142,253.722,176.142z"/>
		</g>
		<g>
			<path fill="#424242" d="M334.571,199.09c0,14.886-12.066,26.952-26.95,26.952s-26.95-12.066-26.95-26.952
				c0-14.881,12.066-26.948,26.95-26.948S334.571,184.208,334.571,199.09z"/>
			<path d="M307.621,230.042c-17.066,0-30.95-13.885-30.95-30.952c0-17.064,13.884-30.948,30.95-30.948s30.95,13.884,30.95,30.948
				C338.571,216.157,324.687,230.042,307.621,230.042z M307.621,176.142c-12.655,0-22.95,10.294-22.95,22.948
				c0,12.656,10.295,22.952,22.95,22.952s22.95-10.296,22.95-22.952C330.571,186.437,320.276,176.142,307.621,176.142z"/>
		</g>
	</g>
	<g id="rde훾a7bela_copy_3" display="inline">
	</g>
	<path display="inline" d="M14372.783,13297.633h-16737v-13953h16737V13297.633z M-2363.716,13296.633h16736l-0.5-13951h-16735.5
		l0.5,13951H-2363.716z"/>
</g>
<g id="linijsko" display="none">
	<g display="inline">
		
			<circle fill="none" stroke="#000000" stroke-width="8" stroke-linecap="round" stroke-linejoin="round" stroke-miterlimit="10" cx="172.873" cy="248.991" r="26.95"/>
		<path fill="none" stroke="#000000" stroke-width="8" stroke-linecap="round" stroke-linejoin="round" stroke-miterlimit="10" d="
			M172.873,199.09c0,14.886-12.067,26.952-26.95,26.952c-14.884,0-26.95-12.066-26.95-26.952c0-14.881,12.066-26.948,26.95-26.948
			C160.806,172.142,172.873,184.208,172.873,199.09z"/>
		
			<circle fill="none" stroke="#000000" stroke-width="8" stroke-linecap="round" stroke-linejoin="round" stroke-miterlimit="10" cx="226.772" cy="348.79" r="26.95"/>
		
			<circle fill="none" stroke="#000000" stroke-width="8" stroke-linecap="round" stroke-linejoin="round" stroke-miterlimit="10" cx="199.822" cy="298.89" r="26.95"/>
		
			<circle fill="none" stroke="#000000" stroke-width="8" stroke-linecap="round" stroke-linejoin="round" stroke-miterlimit="10" cx="226.772" cy="248.991" r="26.95"/>
		
			<circle fill="none" stroke="#000000" stroke-width="8" stroke-linecap="round" stroke-linejoin="round" stroke-miterlimit="10" cx="253.722" cy="298.89" r="26.95"/>
		
			<circle fill="none" stroke="#000000" stroke-width="8" stroke-linecap="round" stroke-linejoin="round" stroke-miterlimit="10" cx="280.671" cy="248.991" r="26.95"/>
		<path fill="none" stroke="#000000" stroke-width="8" stroke-linecap="round" stroke-linejoin="round" stroke-miterlimit="10" d="
			M215.813,147.023c4.539,12.116,5.711,26.351,5.884,36.337c2.701,3.748,4.466,8.215,4.942,13.06l0.264,0.024
			c0.573-5.876,3.033-11.197,6.767-15.354c-0.361-12.108-2.188-28.999-8.659-43.097c2.827-3.841,4.869-8.092,5.973-12.491
			c3.784-15.064-1.176-39.517-33.242-47.568c0,0-6.905-1.23-8.48,3.895c-1.575,5.124,5.557,7.744,5.557,7.744
			c19.916,5.001,27.832,19.845,24.526,33.006c-0.329,1.312-0.787,2.6-1.363,3.852c-0.254-0.314-0.514-0.628-0.775-0.936
			c-15.179-17.834-33.021-24.891-47.725-18.88c-9.995,4.086-16.23,13.572-15.516,23.602c0.786,11.049,9.682,19.76,23.797,23.306
			C192.734,157.283,206.102,153.954,215.813,147.023z M165.936,129.368c-0.339-4.771,2.986-9.559,8.087-11.645
			c1.996-0.816,4.123-1.217,6.343-1.217c8.534,0,18.457,5.904,27.702,16.767c0.764,0.897,1.484,1.838,2.167,2.823
			c-7.257,5.76-17.896,8.714-29.549,5.787C171.718,139.63,166.341,135.068,165.936,129.368z"/>
		<path fill="none" stroke="#000000" stroke-width="8" stroke-linecap="round" stroke-linejoin="round" stroke-miterlimit="10" d="
			M334.571,199.09c0,14.886-12.066,26.952-26.95,26.952s-26.95-12.066-26.95-26.952c0-14.881,12.066-26.948,26.95-26.948
			S334.571,184.208,334.571,199.09z"/>
		<path fill="none" stroke="#000000" stroke-width="8" stroke-linecap="round" stroke-linejoin="round" stroke-miterlimit="10" d="
			M226.772,199.09c0,14.886-12.066,26.952-26.95,26.952s-26.95-12.066-26.95-26.952c0-14.881,12.066-26.948,26.95-26.948
			S226.772,184.208,226.772,199.09z"/>
		<path fill="none" stroke="#000000" stroke-width="8" stroke-linecap="round" stroke-linejoin="round" stroke-miterlimit="10" d="
			M280.671,199.09c0,14.886-12.066,26.952-26.95,26.952s-26.95-12.066-26.95-26.952c0-14.881,12.066-26.948,26.95-26.948
			S280.671,184.208,280.671,199.09z"/>
	</g>
	<g id="rde훾a7bela_copy" display="inline">
	</g>
</g>
<g id="pivot">
	<circle fill="none" cx="225.622" cy="376.283" r="14.132"/>
</g>
</svg>
