<?xml version="1.0" encoding="utf-8"?>
<!-- Generator: Adobe Illustrator 16.0.0, SVG Export Plug-In . SVG Version: 6.00 Build 0)  -->
<!DOCTYPE svg PUBLIC "-//W3C//DTD SVG 1.1//EN" "http://www.w3.org/Graphics/SVG/1.1/DTD/svg11.dtd">
<svg version="1.1" xmlns="http://www.w3.org/2000/svg" xmlns:xlink="http://www.w3.org/1999/xlink" x="0px" y="0px"
	 width="453.543px" height="453.543px" viewBox="0 0 453.543 453.543" enable-background="new 0 0 453.543 453.543"
	 xml:space="preserve">
<g id="kvadrat">
</g>
<g id="bg" display="none">
	<rect x="-3384.14" y="-5847.458" display="inline" width="15266.867" height="13678.951"/>
</g>
<g id="barvno" display="none">
	<g id="rde훾a7bela" display="inline">
	</g>
	<g display="inline">
		
			<path fill="#FCD18D" stroke="#1D1D1B" stroke-width="8" stroke-linecap="round" stroke-linejoin="round" stroke-miterlimit="10" d="
			M222.719,219.619l-14.742-18.324l-22.131,22.289l-18.584-26.525l-22.502,21.609l-19.484-25.147c0,0-8.658,12.379-8.514,14.65
			c2.683,41.365,29.19,73.865,61.539,73.865c33.25,0,60.271-34.309,61.672-77.294L222.719,219.619z"/>
		
			<path fill="#FCD18D" stroke="#1D1D1B" stroke-width="8" stroke-linecap="round" stroke-linejoin="round" stroke-miterlimit="10" d="
			M321.428,190.208l-17.939-14.326l-17.298,27.118l-23.265-21.407l-17.797,26.54l-23.881-19.835c0,0-6.064,14.182-5.479,16.364
			c10.607,39.739,42.762,65.06,74.348,57.232c32.458-8.046,52.213-48.077,45.284-90.387L321.428,190.208z"/>
	</g>
	
		<rect x="-3894.425" y="-6267.467" display="inline" fill="none" stroke="#000000" stroke-miterlimit="10" width="16736" height="13952"/>
</g>
<g id="barvno_copy_2">
	<g id="rde훾a7bela_copy_4">
	</g>
	<g>
		<g>
			<path fill="#FF00FF" d="M222.719,219.619l-14.742-18.324l-22.131,22.289l-18.584-26.525l-22.502,21.609l-19.484-25.147
				c0,0-8.658,12.379-8.514,14.65c2.683,41.365,29.19,73.865,61.539,73.865c33.25,0,60.271-34.309,61.672-77.294L222.719,219.619z"
				/>
			<path d="M178.301,286.036c-16.795,0-32.768-8.122-44.976-22.87c-11.898-14.374-19.198-33.813-20.555-54.736
				c-0.076-1.196-0.234-3.674,9.228-17.202c0.729-1.042,1.909-1.675,3.18-1.707c1.265-0.012,2.481,0.543,3.26,1.549l16.76,21.631
				l19.294-18.529c0.842-0.809,1.995-1.209,3.159-1.096c1.163,0.113,2.218,0.729,2.888,1.686l15.84,22.608l18.761-18.895
				c0.802-0.808,1.902-1.235,3.047-1.176c1.137,0.06,2.194,0.6,2.908,1.487l12.148,15.1l14.119-12.175
				c1.203-1.037,2.904-1.264,4.337-0.58c1.433,0.685,2.325,2.152,2.273,3.739C242.488,250.384,213.643,286.036,178.301,286.036z
				 M120.786,208.393c1.326,19.068,7.959,36.694,18.702,49.672c10.661,12.879,24.445,19.971,38.813,19.971
				c28.57,0,52.327-27.395,56.925-63.92l-9.895,8.532c-0.822,0.708-1.896,1.051-2.975,0.954c-1.08-0.098-2.074-0.631-2.754-1.476
				l-11.938-14.839l-18.979,19.115c-0.834,0.84-1.998,1.267-3.179,1.167c-1.181-0.101-2.255-0.72-2.935-1.69l-15.905-22.701
				l-19.135,18.375c-0.818,0.786-1.935,1.188-3.063,1.104c-1.131-0.083-2.175-0.643-2.87-1.54l-16.1-20.778
				C123.244,203.793,121.278,207.075,120.786,208.393z"/>
		</g>
		<g>
			<path fill="#FF00FF" d="M321.428,190.208l-17.939-14.326l-17.298,27.118l-23.265-21.407l-17.797,26.54l-23.881-19.835
				c0,0-6.064,14.182-5.479,16.364c10.607,39.739,42.762,65.06,74.348,57.232c32.458-8.046,52.213-48.077,45.284-90.387
				L321.428,190.208z"/>
			<path d="M278.544,267.313c-29.552,0-56.955-25.339-66.639-61.62c-0.305-1.137-0.943-3.514,5.666-18.968
				c0.497-1.161,1.512-2.02,2.739-2.315c1.227-0.297,2.522,0.004,3.494,0.811l20.472,17.003l15.328-22.859
				c0.65-0.969,1.691-1.606,2.851-1.744c1.16-0.135,2.32,0.238,3.18,1.029l19.751,18.174l14.73-23.093
				c0.61-0.956,1.598-1.609,2.717-1.794c1.121-0.187,2.265,0.112,3.151,0.82l14.711,11.748l11.501-15.392
				c0.96-1.285,2.595-1.872,4.154-1.491c1.559,0.381,2.738,1.656,2.998,3.239c7.32,44.699-13.882,86.391-48.269,94.916
				C286.966,266.796,282.749,267.313,278.544,267.313z M219.758,204.089c8.857,32.541,32.976,55.224,58.786,55.224
				c3.557,0,7.127-0.438,10.611-1.301c27.907-6.918,45.858-39.325,43.427-76.048l-7.95,10.639c-0.648,0.868-1.621,1.435-2.695,1.573
				c-1.078,0.14-2.159-0.166-3.005-0.842l-14.463-11.55l-14.905,23.368c-0.637,0.998-1.682,1.662-2.855,1.815
				c-1.177,0.152-2.355-0.222-3.226-1.023l-19.832-18.249l-15.199,22.666c-0.63,0.94-1.63,1.569-2.75,1.731
				c-1.12,0.163-2.257-0.159-3.127-0.882l-19.689-16.354C221.31,198.867,219.982,202.662,219.758,204.089z"/>
		</g>
	</g>
	<rect x="-3894.425" y="-6267.467" fill="none" stroke="#000000" stroke-miterlimit="10" width="16736" height="13952"/>
</g>
<g id="sivinsko" display="none">
	<g id="rde훾a7bela_copy_3" display="inline">
	</g>
	<g display="inline">
		<g>
			<path fill="#D6D6D6" d="M222.719,219.619l-14.742-18.324l-22.131,22.289l-18.584-26.525l-22.502,21.609l-19.484-25.147
				c0,0-8.658,12.379-8.514,14.65c2.683,41.365,29.19,73.865,61.539,73.865c33.25,0,60.271-34.309,61.672-77.294L222.719,219.619z"
				/>
			<path fill="#1D1D1D" d="M178.301,286.036c-16.795,0-32.768-8.122-44.976-22.87c-11.898-14.374-19.198-33.813-20.555-54.736
				c-0.076-1.196-0.234-3.674,9.228-17.202c0.729-1.042,1.909-1.675,3.18-1.707c1.265-0.012,2.481,0.543,3.26,1.549l16.76,21.631
				l19.294-18.529c0.842-0.809,1.995-1.209,3.159-1.096c1.163,0.113,2.218,0.729,2.888,1.686l15.84,22.608l18.76-18.895
				c0.802-0.808,1.902-1.235,3.047-1.176c1.137,0.06,2.194,0.6,2.908,1.487l12.148,15.1l14.119-12.175
				c1.203-1.037,2.904-1.264,4.337-0.58c1.433,0.685,2.325,2.152,2.273,3.739C242.488,250.384,213.643,286.036,178.301,286.036z
				 M120.786,208.393c1.326,19.068,7.959,36.694,18.702,49.672c10.661,12.879,24.445,19.971,38.813,19.971
				c28.57,0,52.327-27.395,56.925-63.92l-9.895,8.532c-0.822,0.708-1.896,1.051-2.975,0.954c-1.08-0.098-2.074-0.631-2.754-1.476
				l-11.938-14.839l-18.979,19.115c-0.834,0.84-1.998,1.267-3.179,1.167c-1.181-0.101-2.255-0.72-2.935-1.69l-15.905-22.701
				l-19.135,18.375c-0.818,0.786-1.935,1.188-3.063,1.104c-1.131-0.083-2.175-0.643-2.87-1.54l-16.1-20.778
				C123.244,203.793,121.278,207.075,120.786,208.393z"/>
		</g>
		<g>
			<path fill="#D6D6D6" d="M321.428,190.208l-17.939-14.326l-17.298,27.118l-23.265-21.407l-17.797,26.54l-23.881-19.835
				c0,0-6.064,14.182-5.479,16.364c10.607,39.739,42.762,65.06,74.348,57.232c32.458-8.046,52.213-48.077,45.284-90.387
				L321.428,190.208z"/>
			<path fill="#1D1D1D" d="M278.544,267.313c-29.552,0-56.955-25.339-66.639-61.62c-0.305-1.137-0.943-3.514,5.666-18.968
				c0.497-1.161,1.512-2.02,2.739-2.315c1.227-0.297,2.522,0.004,3.494,0.811l20.472,17.003l15.328-22.859
				c0.65-0.969,1.691-1.606,2.851-1.744c1.16-0.135,2.32,0.238,3.18,1.029l19.751,18.174l14.73-23.093
				c0.61-0.956,1.598-1.609,2.717-1.794c1.121-0.187,2.265,0.112,3.151,0.82l14.711,11.748l11.501-15.392
				c0.96-1.285,2.595-1.872,4.154-1.491c1.559,0.381,2.738,1.656,2.998,3.239c7.32,44.699-13.882,86.391-48.269,94.916
				C286.966,266.796,282.749,267.313,278.544,267.313z M219.758,204.089c8.857,32.541,32.976,55.224,58.786,55.224
				c3.557,0,7.127-0.438,10.611-1.301c27.907-6.918,45.858-39.325,43.427-76.048l-7.95,10.639c-0.648,0.868-1.621,1.435-2.695,1.573
				c-1.078,0.14-2.159-0.166-3.005-0.842l-14.464-11.55l-14.905,23.368c-0.637,0.998-1.682,1.662-2.855,1.815
				c-1.177,0.152-2.355-0.222-3.226-1.023l-19.832-18.249l-15.199,22.666c-0.63,0.94-1.63,1.569-2.75,1.731
				c-1.12,0.163-2.257-0.159-3.127-0.882l-19.689-16.354C221.31,198.867,219.982,202.662,219.758,204.089z"/>
		</g>
	</g>
	<path display="inline" d="M12842.074,7685.033h-16737v-13953h16737V7685.033z M-3894.425,7684.033h16736l-0.5-13951h-16735.5
		l0.5,13951H-3894.425z"/>
</g>
<g id="linijsko" display="none">
	<g id="rde훾a7bela_copy" display="inline">
	</g>
	<g display="inline">
		<path fill="none" stroke="#1C1C1C" stroke-width="8" stroke-linecap="round" stroke-linejoin="round" stroke-miterlimit="10" d="
			M219.255,215.313l3.464,4.306l17.254-14.877c-0.402,12.354-2.931,23.984-7.105,34.296"/>
		<path fill="none" stroke="#1C1C1C" stroke-width="8" stroke-linecap="round" stroke-linejoin="round" stroke-miterlimit="10" d="
			M219.255,215.313l-11.278-14.018l-22.131,22.289l-18.584-26.525l-22.502,21.609l-19.484-25.147c0,0-8.658,12.379-8.514,14.65
			c2.683,41.365,29.19,73.865,61.539,73.865c23.694,0,44.216-17.43,54.567-42.999"/>
		<path fill="none" stroke="#1C1C1C" stroke-width="8" stroke-linecap="round" stroke-linejoin="round" stroke-miterlimit="10" d="
			M219.255,215.313c-1.334-3.417-2.502-6.971-3.485-10.65c-0.586-2.182,5.479-16.364,5.479-16.364l23.881,19.835l17.797-26.54
			l23.265,21.407l17.298-27.118l17.939,14.326l13.974-18.701c6.929,42.31-12.826,82.34-45.284,90.387
			c-21.002,5.205-42.246-4.258-57.25-22.857"/>
	</g>
</g>
<g id="pivot">
	<circle fill="none" cx="237.169" cy="274.39" r="14.133"/>
</g>
</svg>
