<?xml version="1.0" encoding="utf-8"?>
<!-- Generator: Adobe Illustrator 16.0.0, SVG Export Plug-In . SVG Version: 6.00 Build 0)  -->
<!DOCTYPE svg PUBLIC "-//W3C//DTD SVG 1.1//EN" "http://www.w3.org/Graphics/SVG/1.1/DTD/svg11.dtd">
<svg version="1.1" xmlns="http://www.w3.org/2000/svg" xmlns:xlink="http://www.w3.org/1999/xlink" x="0px" y="0px"
	 width="453.543px" height="453.543px" viewBox="0 0 453.543 453.543" enable-background="new 0 0 453.543 453.543"
	 xml:space="preserve">
<g id="kvadrat">
</g>
<g id="bg" display="none">
	<rect x="-3384.14" y="-234.859" display="inline" width="15266.867" height="13678.951"/>
</g>
<g id="barvno" display="none">
	<g id="rde훾a7bela" display="inline">
	</g>
	<g display="inline">
		
			<path fill="#93C01F" stroke="#000000" stroke-width="8" stroke-linecap="round" stroke-linejoin="round" stroke-miterlimit="10" d="
			M185.597,318.442c-21.423,0-39.852-7.104-53.295-20.555c-34.048-34.061-24.607-98.91,21.039-144.558
			c26.039-26.04,60.141-41.586,91.229-41.586c21.433,0,39.858,7.108,53.305,20.553c34.057,34.064,24.617,98.914-21.041,144.553
			C250.408,303.283,217.15,318.442,185.597,318.442z"/>
		
			<path fill="#7E4E24" stroke="#000000" stroke-width="8" stroke-linecap="round" stroke-linejoin="round" stroke-miterlimit="10" d="
			M298.373,132.813c33.457,34.197,23.892,98.622-21.539,144.035c-26.426,26.434-59.684,41.593-91.236,41.593
			c-21.371,0-39.76-7.071-53.193-20.46c25.497,25.464,58.01,40.891,91.57,43.447c3.289,0.245,6.543,0.374,9.771,0.374
			c30.021,0,57.152-10.768,77.208-30.823C356.455,265.473,350.767,185.685,298.373,132.813z"/>
		<path d="M185.929,189.396c-1.141,0-2.212-0.443-3.018-1.25l-6.994-6.993c-0.808-0.808-1.252-1.881-1.252-3.022
			c0-1.137,0.444-2.21,1.252-3.016c0.809-0.81,1.881-1.254,3.021-1.254s2.212,0.445,3.02,1.254l6.994,6.994
			c0.808,0.807,1.253,1.88,1.253,3.02s-0.445,2.21-1.252,3.018C188.148,188.953,187.076,189.396,185.929,189.396z"/>
		<path d="M247.985,251.466c-1.138,0-2.209-0.444-3.018-1.252l-6.981-6.986c-0.811-0.808-1.257-1.881-1.256-3.02
			c0-1.14,0.445-2.21,1.254-3.018c0.809-0.81,1.879-1.254,3.019-1.254s2.211,0.445,3.017,1.252l6.991,6.986
			c0.81,0.81,1.256,1.881,1.256,3.019c0,1.139-0.446,2.212-1.255,3.02C250.206,251.023,249.132,251.466,247.985,251.466z"/>
		<path d="M255.618,174.783c-1.14,0-2.212-0.445-3.018-1.25c-0.811-0.81-1.256-1.883-1.256-3.024s0.445-2.215,1.255-3.024
			l10.706-10.702c0.809-0.806,1.882-1.25,3.021-1.25s2.214,0.444,3.023,1.252c1.661,1.664,1.661,4.376-0.003,6.042l-10.711,10.706
			C257.83,174.338,256.757,174.783,255.618,174.783z"/>
		<path d="M160.605,269.809c-1.137,0-2.209-0.445-3.02-1.252c-0.806-0.805-1.25-1.876-1.25-3.018c0-1.14,0.444-2.215,1.253-3.025
			l10.701-10.704c0.81-0.81,1.884-1.256,3.024-1.256s2.215,0.445,3.022,1.254c0.808,0.806,1.252,1.874,1.253,3.013
			c0.001,1.142-0.443,2.215-1.252,3.024l-10.707,10.712C162.821,269.364,161.745,269.809,160.605,269.809z"/>
		<path d="M223.81,167.656c-0.287,0-0.592-0.033-0.905-0.095c-1.099-0.23-2.058-0.888-2.683-1.846
			c-0.623-0.953-0.837-2.093-0.602-3.206l2.624-12.522c0.412-1.964,2.165-3.392,4.169-3.392c0.296,0,0.596,0.031,0.89,0.093
			c1.117,0.233,2.076,0.891,2.702,1.85c0.623,0.956,0.836,2.091,0.6,3.204l-2.625,12.522
			C227.57,166.229,225.817,167.656,223.81,167.656z"/>
		<path d="M200.51,278.734c-0.29,0-0.59-0.031-0.892-0.091c-1.106-0.23-2.064-0.887-2.688-1.841
			c-0.624-0.956-0.838-2.095-0.603-3.213l2.625-12.514c0.412-1.967,2.168-3.394,4.177-3.394c0.293,0,0.589,0.031,0.878,0.091
			c1.12,0.234,2.079,0.892,2.703,1.847c0.624,0.956,0.838,2.095,0.602,3.212l-2.625,12.516
			C204.275,277.309,202.519,278.734,200.51,278.734z"/>
		<path d="M262.731,206.608c-2.008,0-3.762-1.427-4.169-3.394c-0.483-2.308,0.997-4.577,3.299-5.063l12.516-2.625
			c0.289-0.06,0.585-0.09,0.878-0.09c2.004,0,3.763,1.429,4.181,3.398c0.236,1.109,0.024,2.246-0.595,3.197
			c-0.625,0.96-1.589,1.62-2.714,1.856l-12.508,2.624C263.308,206.579,263.03,206.608,262.731,206.608z"/>
		<path d="M151.665,229.904c-2.003,0-3.761-1.427-4.179-3.391c-0.235-1.113-0.021-2.252,0.602-3.208
			c0.623-0.956,1.583-1.613,2.701-1.846l12.519-2.633c0.292-0.062,0.589-0.093,0.882-0.093c2.004,0,3.762,1.429,4.18,3.4
			c0.482,2.299-1,4.567-3.306,5.053l-12.521,2.628C152.257,229.875,151.97,229.904,151.665,229.904z"/>
		<path fill="#F5F5F5" d="M203.05,244.975c-6.568,0-12.218-2.178-16.339-6.303c-10.438-10.441-7.544-30.321,6.449-44.314
			c7.983-7.982,18.438-12.748,27.968-12.748c6.57,0,12.219,2.179,16.341,6.301c10.44,10.441,7.547,30.323-6.45,44.314
			C222.918,240.329,212.722,244.975,203.05,244.975z"/>
	</g>
	
		<rect x="-3894.425" y="-654.868" display="inline" fill="none" stroke="#000000" stroke-miterlimit="10" width="16736" height="13952"/>
</g>
<g id="barvno_copy_2">
	<g id="rde훾a7bela_copy_4">
	</g>
	<g>
		
			<path fill="#00FF00" stroke="#000000" stroke-width="8" stroke-linecap="round" stroke-linejoin="round" stroke-miterlimit="10" d="
			M185.597,318.442c-21.423,0-39.852-7.104-53.295-20.555c-34.048-34.061-24.607-98.91,21.039-144.558
			c26.039-26.04,60.141-41.586,91.229-41.586c21.433,0,39.858,7.108,53.305,20.553c34.057,34.064,24.617,98.914-21.041,144.553
			C250.408,303.283,217.15,318.442,185.597,318.442z"/>
		
			<path fill="#00FF00" stroke="#000000" stroke-width="8" stroke-linecap="round" stroke-linejoin="round" stroke-miterlimit="10" d="
			M298.373,132.813c33.457,34.197,23.892,98.622-21.539,144.035c-26.426,26.434-59.684,41.593-91.236,41.593
			c-21.371,0-39.76-7.071-53.193-20.46c25.497,25.464,58.01,40.891,91.57,43.447c3.289,0.245,6.543,0.374,9.771,0.374
			c30.021,0,57.152-10.768,77.208-30.823C356.455,265.473,350.767,185.685,298.373,132.813z"/>
		<path d="M185.929,189.396c-1.141,0-2.212-0.443-3.018-1.25l-6.994-6.993c-0.808-0.808-1.252-1.881-1.252-3.022
			c0-1.137,0.444-2.21,1.252-3.016c0.809-0.81,1.881-1.254,3.021-1.254s2.212,0.445,3.02,1.254l6.994,6.994
			c0.808,0.807,1.253,1.88,1.253,3.02s-0.445,2.21-1.252,3.018C188.148,188.953,187.076,189.396,185.929,189.396z"/>
		<path d="M247.985,251.466c-1.138,0-2.209-0.444-3.018-1.252l-6.981-6.986c-0.811-0.808-1.257-1.881-1.256-3.02
			c0-1.14,0.445-2.21,1.254-3.018c0.809-0.81,1.879-1.254,3.019-1.254s2.211,0.445,3.017,1.252l6.991,6.986
			c0.81,0.81,1.256,1.881,1.256,3.019c0,1.139-0.446,2.212-1.255,3.02C250.206,251.023,249.132,251.466,247.985,251.466z"/>
		<path d="M255.618,174.783c-1.14,0-2.212-0.445-3.018-1.25c-0.811-0.81-1.256-1.883-1.256-3.024s0.445-2.215,1.255-3.024
			l10.706-10.702c0.809-0.806,1.882-1.25,3.021-1.25s2.214,0.444,3.023,1.252c1.661,1.664,1.661,4.376-0.003,6.042l-10.711,10.706
			C257.83,174.338,256.757,174.783,255.618,174.783z"/>
		<path d="M160.605,269.809c-1.137,0-2.209-0.445-3.02-1.252c-0.806-0.805-1.25-1.876-1.25-3.018c0-1.14,0.444-2.215,1.253-3.025
			l10.701-10.704c0.81-0.81,1.884-1.256,3.024-1.256s2.215,0.445,3.022,1.254c0.808,0.806,1.252,1.874,1.253,3.013
			c0.001,1.142-0.443,2.215-1.252,3.024l-10.707,10.712C162.821,269.364,161.745,269.809,160.605,269.809z"/>
		<path d="M223.81,167.656c-0.287,0-0.592-0.033-0.905-0.095c-1.099-0.23-2.058-0.888-2.683-1.846
			c-0.623-0.953-0.837-2.093-0.602-3.206l2.624-12.522c0.412-1.964,2.165-3.392,4.169-3.392c0.296,0,0.596,0.031,0.89,0.093
			c1.117,0.233,2.076,0.891,2.702,1.85c0.623,0.956,0.836,2.091,0.6,3.204l-2.625,12.522
			C227.57,166.229,225.817,167.656,223.81,167.656z"/>
		<path d="M200.51,278.734c-0.29,0-0.59-0.031-0.892-0.091c-1.106-0.23-2.064-0.887-2.688-1.841
			c-0.624-0.956-0.838-2.095-0.603-3.213l2.625-12.514c0.412-1.967,2.168-3.394,4.177-3.394c0.293,0,0.589,0.031,0.878,0.091
			c1.12,0.234,2.079,0.892,2.703,1.847c0.624,0.956,0.838,2.095,0.602,3.212l-2.625,12.516
			C204.275,277.309,202.519,278.734,200.51,278.734z"/>
		<path d="M262.731,206.608c-2.008,0-3.762-1.427-4.169-3.394c-0.483-2.308,0.997-4.577,3.299-5.063l12.516-2.625
			c0.289-0.06,0.585-0.09,0.878-0.09c2.004,0,3.763,1.429,4.181,3.398c0.236,1.109,0.024,2.246-0.595,3.197
			c-0.625,0.96-1.589,1.62-2.714,1.856l-12.508,2.624C263.308,206.579,263.03,206.608,262.731,206.608z"/>
		<path d="M151.665,229.904c-2.003,0-3.761-1.427-4.179-3.391c-0.235-1.113-0.021-2.252,0.602-3.208
			c0.623-0.956,1.583-1.613,2.701-1.846l12.519-2.633c0.292-0.062,0.589-0.093,0.882-0.093c2.004,0,3.762,1.429,4.18,3.4
			c0.482,2.299-1,4.567-3.306,5.053l-12.521,2.628C152.257,229.875,151.97,229.904,151.665,229.904z"/>
		<path fill="#F2FFFF" d="M203.05,244.975c-6.568,0-12.218-2.178-16.339-6.303c-10.438-10.441-7.544-30.321,6.449-44.314
			c7.983-7.982,18.438-12.748,27.968-12.748c6.57,0,12.219,2.179,16.341,6.301c10.44,10.441,7.547,30.323-6.45,44.314
			C222.918,240.329,212.722,244.975,203.05,244.975z"/>
	</g>
	<rect x="-3894.425" y="-654.868" fill="none" stroke="#000000" stroke-miterlimit="10" width="16736" height="13952"/>
</g>
<g id="sivinsko" display="none">
	<g id="rde훾a7bela_copy_3" display="inline">
	</g>
	<g display="inline">
		<g>
			<path fill="#A1A1A1" d="M185.597,318.442c-21.423,0-39.852-7.104-53.295-20.555c-34.048-34.061-24.607-98.91,21.039-144.558
				c26.039-26.04,60.141-41.586,91.229-41.586c21.433,0,39.858,7.108,53.305,20.553c34.057,34.064,24.617,98.914-21.041,144.553
				C250.408,303.283,217.15,318.442,185.597,318.442z"/>
			<path d="M185.597,322.442c-22.511,0-41.919-7.513-56.124-21.728c-35.606-35.619-26.168-103.004,21.039-150.213
				c26.773-26.773,61.935-42.758,94.058-42.758c22.509,0,41.919,7.512,56.133,21.724c17.387,17.391,24.668,42.726,20.503,71.341
				c-4.102,28.182-18.856,56.192-41.544,78.871C252.493,306.855,218.208,322.442,185.597,322.442z M244.57,115.743
				c-30.048,0-63.095,15.108-88.4,40.416c-44.089,44.089-53.527,106.4-21.039,138.9c12.673,12.68,30.124,19.383,50.466,19.383
				c30.504,0,62.727-14.732,88.407-40.421c21.478-21.469,35.429-47.878,39.284-74.365c3.792-26.054-2.686-48.971-18.243-64.531
				C282.365,122.445,264.911,115.743,244.57,115.743z"/>
		</g>
		<g>
			<path fill="#585858" d="M298.373,132.813c33.457,34.197,23.892,98.622-21.539,144.035
				c-26.426,26.434-59.684,41.593-91.236,41.593c-21.371,0-39.76-7.071-53.193-20.46c25.497,25.464,58.01,40.891,91.57,43.447
				c3.289,0.245,6.543,0.374,9.771,0.374c30.021,0,57.152-10.768,77.208-30.823C356.455,265.473,350.767,185.685,298.373,132.813z"
				/>
			<path d="M233.746,345.802c-3.257,0-6.645-0.129-10.069-0.385c-34.511-2.628-67.925-18.467-94.094-44.6
				c-0.001-0.001-0.001-0.002-0.002-0.003c-0.001-0.001-0.001-0.001-0.003-0.003c-1.563-1.561-1.565-4.091-0.005-5.655
				c1.559-1.563,4.09-1.568,5.655-0.007c12.664,12.622,30.081,19.292,50.37,19.292c30.504,0,62.727-14.732,88.407-40.421
				c43.747-43.729,53.395-105.819,21.509-138.41c-1.541-1.576-1.518-4.101,0.053-5.647c1.569-1.546,4.096-1.531,5.648,0.034
				c53.893,54.384,59.531,136.84,12.568,183.81C293.15,334.44,264.726,345.802,233.746,345.802z M169.932,321.15
				c17.043,9.25,35.53,14.856,54.346,16.29c3.221,0.241,6.409,0.362,9.468,0.362c28.843,0,55.258-10.53,74.379-29.651
				c34.848-34.852,38.438-90.876,12.96-138.139c1.648,9.754,1.692,20.244,0.057,31.203c-4.184,28.041-18.916,55.906-41.48,78.464
				c-27.168,27.177-61.454,42.763-94.064,42.763C180.187,322.442,174.955,322.007,169.932,321.15z"/>
		</g>
		<path d="M185.929,189.396c-1.141,0-2.212-0.443-3.018-1.25l-6.994-6.993c-0.808-0.808-1.252-1.881-1.252-3.022
			c0-1.137,0.444-2.21,1.252-3.016c0.809-0.81,1.881-1.254,3.021-1.254s2.212,0.445,3.02,1.254l6.994,6.994
			c0.808,0.807,1.253,1.88,1.253,3.02s-0.445,2.21-1.252,3.018C188.148,188.953,187.076,189.396,185.929,189.396z"/>
		<path d="M247.985,251.466c-1.138,0-2.209-0.444-3.018-1.252l-6.981-6.986c-0.811-0.808-1.257-1.881-1.256-3.02
			c0-1.14,0.445-2.21,1.254-3.018c0.809-0.81,1.879-1.254,3.019-1.254s2.211,0.445,3.017,1.252l6.991,6.986
			c0.81,0.81,1.256,1.881,1.256,3.019c0,1.139-0.446,2.212-1.255,3.02C250.206,251.023,249.132,251.466,247.985,251.466z"/>
		<path d="M255.618,174.783c-1.14,0-2.212-0.445-3.018-1.25c-0.811-0.81-1.256-1.883-1.256-3.024s0.445-2.215,1.255-3.024
			l10.706-10.702c0.809-0.806,1.882-1.25,3.021-1.25s2.214,0.444,3.023,1.252c1.661,1.664,1.661,4.376-0.003,6.042l-10.711,10.706
			C257.83,174.338,256.757,174.783,255.618,174.783z"/>
		<path d="M160.605,269.809c-1.137,0-2.209-0.445-3.02-1.252c-0.806-0.805-1.25-1.876-1.25-3.018c0-1.14,0.444-2.215,1.253-3.025
			l10.701-10.704c0.81-0.81,1.884-1.256,3.024-1.256s2.215,0.445,3.022,1.254c0.808,0.806,1.252,1.874,1.253,3.013
			c0.001,1.142-0.443,2.215-1.252,3.024l-10.707,10.712C162.821,269.364,161.745,269.809,160.605,269.809z"/>
		<path d="M223.81,167.656c-0.287,0-0.592-0.033-0.905-0.095c-1.099-0.23-2.058-0.888-2.683-1.846
			c-0.623-0.953-0.837-2.093-0.602-3.206l2.624-12.522c0.412-1.964,2.165-3.392,4.169-3.392c0.296,0,0.596,0.031,0.89,0.093
			c1.117,0.233,2.076,0.891,2.702,1.85c0.623,0.956,0.836,2.091,0.6,3.204l-2.625,12.522
			C227.57,166.229,225.817,167.656,223.81,167.656z"/>
		<path d="M200.51,278.734c-0.29,0-0.59-0.031-0.892-0.091c-1.106-0.23-2.064-0.887-2.688-1.841
			c-0.624-0.956-0.838-2.095-0.603-3.213l2.625-12.514c0.412-1.967,2.168-3.394,4.177-3.394c0.293,0,0.589,0.031,0.878,0.091
			c1.12,0.234,2.079,0.892,2.703,1.847c0.624,0.956,0.838,2.095,0.602,3.212l-2.625,12.516
			C204.275,277.309,202.519,278.734,200.51,278.734z"/>
		<path d="M262.731,206.608c-2.008,0-3.762-1.427-4.169-3.394c-0.483-2.308,0.997-4.577,3.299-5.063l12.516-2.625
			c0.289-0.06,0.585-0.09,0.878-0.09c2.004,0,3.763,1.429,4.181,3.398c0.236,1.109,0.024,2.246-0.595,3.197
			c-0.625,0.96-1.589,1.62-2.714,1.856l-12.508,2.624C263.308,206.579,263.03,206.608,262.731,206.608z"/>
		<path d="M151.665,229.904c-2.003,0-3.761-1.427-4.179-3.391c-0.235-1.113-0.021-2.252,0.602-3.208
			c0.623-0.956,1.583-1.613,2.701-1.846l12.519-2.633c0.292-0.062,0.589-0.093,0.882-0.093c2.004,0,3.762,1.429,4.18,3.4
			c0.482,2.299-1,4.567-3.306,5.053l-12.521,2.628C152.257,229.875,151.97,229.904,151.665,229.904z"/>
		<path fill="#F5F5F5" d="M203.05,244.975c-6.568,0-12.218-2.178-16.339-6.303c-10.438-10.441-7.544-30.321,6.449-44.314
			c7.983-7.982,18.438-12.748,27.968-12.748c6.57,0,12.219,2.179,16.341,6.301c10.44,10.441,7.547,30.323-6.45,44.314
			C222.918,240.329,212.722,244.975,203.05,244.975z"/>
	</g>
	<path display="inline" d="M12842.074,13297.633h-16737v-13953h16737V13297.633z M-3894.425,13296.633h16736l-0.5-13951h-16735.5
		l0.5,13951H-3894.425z"/>
</g>
<g id="linijsko" display="none">
	<g id="rde훾a7bela_copy" display="inline">
	</g>
	<g display="inline">
		<path fill="none" stroke="#000000" stroke-width="8" stroke-linecap="round" stroke-linejoin="round" stroke-miterlimit="10" d="
			M185.597,318.442c-21.423,0-39.852-7.104-53.295-20.555c-34.048-34.061-24.607-98.91,21.039-144.558
			c26.039-26.04,60.141-41.586,91.229-41.586c21.433,0,39.858,7.108,53.305,20.553c34.057,34.064,24.617,98.914-21.041,144.553
			C250.408,303.283,217.15,318.442,185.597,318.442z"/>
		<path fill="none" stroke="#000000" stroke-width="8" stroke-linecap="round" stroke-linejoin="round" stroke-miterlimit="10" d="
			M298.373,132.813c33.457,34.197,23.892,98.622-21.539,144.035c-26.426,26.434-59.684,41.593-91.236,41.593
			c-21.371,0-39.76-7.071-53.193-20.46c25.497,25.464,58.01,40.891,91.57,43.447c3.289,0.245,6.543,0.374,9.771,0.374
			c30.021,0,57.152-10.768,77.208-30.823C356.455,265.473,350.767,185.685,298.373,132.813z"/>
		<path d="M185.929,189.396c-1.141,0-2.212-0.443-3.018-1.25l-6.994-6.993c-0.808-0.808-1.252-1.881-1.252-3.022
			c0-1.137,0.444-2.21,1.252-3.016c0.809-0.81,1.881-1.254,3.021-1.254s2.212,0.445,3.02,1.254l6.994,6.994
			c0.808,0.807,1.253,1.88,1.253,3.02s-0.445,2.21-1.252,3.018C188.148,188.953,187.076,189.396,185.929,189.396z"/>
		<path d="M247.985,251.466c-1.138,0-2.209-0.444-3.018-1.252l-6.981-6.986c-0.811-0.808-1.257-1.881-1.256-3.02
			c0-1.14,0.445-2.21,1.254-3.018c0.809-0.81,1.879-1.254,3.019-1.254s2.211,0.445,3.017,1.252l6.991,6.986
			c0.81,0.81,1.256,1.881,1.256,3.019c0,1.139-0.446,2.212-1.255,3.02C250.206,251.023,249.132,251.466,247.985,251.466z"/>
		<path d="M255.618,174.783c-1.14,0-2.212-0.445-3.018-1.25c-0.811-0.81-1.256-1.883-1.256-3.024s0.445-2.215,1.255-3.024
			l10.706-10.702c0.809-0.806,1.882-1.25,3.021-1.25s2.214,0.444,3.023,1.252c1.661,1.664,1.661,4.376-0.003,6.042l-10.711,10.706
			C257.83,174.338,256.757,174.783,255.618,174.783z"/>
		<path d="M160.605,269.809c-1.137,0-2.209-0.445-3.02-1.252c-0.806-0.805-1.25-1.876-1.25-3.018c0-1.14,0.444-2.215,1.253-3.025
			l10.701-10.704c0.81-0.81,1.884-1.256,3.024-1.256s2.215,0.445,3.022,1.254c0.808,0.806,1.252,1.874,1.253,3.013
			c0.001,1.142-0.443,2.215-1.252,3.024l-10.707,10.712C162.821,269.364,161.745,269.809,160.605,269.809z"/>
		<path d="M223.81,167.656c-0.287,0-0.592-0.033-0.905-0.095c-1.099-0.23-2.058-0.888-2.683-1.846
			c-0.623-0.953-0.837-2.093-0.602-3.206l2.624-12.522c0.412-1.964,2.165-3.392,4.169-3.392c0.296,0,0.596,0.031,0.89,0.093
			c1.117,0.233,2.076,0.891,2.702,1.85c0.623,0.956,0.836,2.091,0.6,3.204l-2.625,12.522
			C227.57,166.229,225.817,167.656,223.81,167.656z"/>
		<path d="M200.51,278.734c-0.29,0-0.59-0.031-0.892-0.091c-1.106-0.23-2.064-0.887-2.688-1.841
			c-0.624-0.956-0.838-2.095-0.603-3.213l2.625-12.514c0.412-1.967,2.168-3.394,4.177-3.394c0.293,0,0.589,0.031,0.878,0.091
			c1.12,0.234,2.079,0.892,2.703,1.847c0.624,0.956,0.838,2.095,0.602,3.212l-2.625,12.516
			C204.275,277.309,202.519,278.734,200.51,278.734z"/>
		<path d="M262.731,206.608c-2.008,0-3.762-1.427-4.169-3.394c-0.483-2.308,0.997-4.577,3.299-5.063l12.516-2.625
			c0.289-0.06,0.585-0.09,0.878-0.09c2.004,0,3.763,1.429,4.181,3.398c0.236,1.109,0.024,2.246-0.595,3.197
			c-0.625,0.96-1.589,1.62-2.714,1.856l-12.508,2.624C263.308,206.579,263.03,206.608,262.731,206.608z"/>
		<path d="M151.665,229.904c-2.003,0-3.761-1.427-4.179-3.391c-0.235-1.113-0.021-2.252,0.602-3.208
			c0.623-0.956,1.583-1.613,2.701-1.846l12.519-2.633c0.292-0.062,0.589-0.093,0.882-0.093c2.004,0,3.762,1.429,4.18,3.4
			c0.482,2.299-1,4.567-3.306,5.053l-12.521,2.628C152.257,229.875,151.97,229.904,151.665,229.904z"/>
		<path fill="none" stroke="#000000" stroke-width="8" stroke-linecap="round" stroke-linejoin="round" stroke-miterlimit="10" d="
			M203.05,244.975c-6.568,0-12.218-2.178-16.339-6.303c-10.438-10.441-7.544-30.321,6.449-44.314
			c7.983-7.982,18.438-12.748,27.968-12.748c6.57,0,12.219,2.179,16.341,6.301c10.44,10.441,7.547,30.323-6.45,44.314
			C222.918,240.329,212.722,244.975,203.05,244.975z"/>
	</g>
</g>
<g id="pivot">
	<circle fill="none" cx="240.052" cy="341.561" r="14.132"/>
</g>
</svg>
