<?xml version="1.0" encoding="utf-8"?>
<!-- Generator: Adobe Illustrator 16.0.0, SVG Export Plug-In . SVG Version: 6.00 Build 0)  -->
<!DOCTYPE svg PUBLIC "-//W3C//DTD SVG 1.1//EN" "http://www.w3.org/Graphics/SVG/1.1/DTD/svg11.dtd">
<svg version="1.1" xmlns="http://www.w3.org/2000/svg" xmlns:xlink="http://www.w3.org/1999/xlink" x="0px" y="0px"
	 width="453.543px" height="453.543px" viewBox="0 0 453.543 453.543" enable-background="new 0 0 453.543 453.543"
	 xml:space="preserve">
<g id="kvadrat">
</g>
<g id="bg" display="none">
	<rect x="-3894.376" y="-234.859" display="inline" width="15266.867" height="13678.951"/>
</g>
<g id="barvno" display="none">
	<g display="inline">
		<g>
			<path fill="#008D36" d="M337.839,120.526c17.677,32.029,22.035,69.091,12.264,104.392c-9.804,35.42-32.734,65.047-64.567,83.427
				c-21.161,12.217-45.187,18.677-69.479,18.677c-0.003,0-0.005,0-0.008,0c-23.621-0.002-47.033-6.056-67.706-17.504
				c-21.201-11.742-39.042-28.957-51.613-49.788l-10.396,6.002c13.661,22.719,33.093,41.489,56.196,54.283
				c22.447,12.433,47.869,19.004,73.52,19.007h0.008c26.396,0,52.496-7.016,75.479-20.285
				c34.576-19.963,59.483-52.146,70.132-90.619c10.635-38.417,5.863-78.757-13.433-113.596L337.839,120.526z"/>
			<path fill="#FFFFFF" d="M283.536,304.88c-63.891,36.888-145.363,15.709-183.341-47.15l-3.465,2
				c12.571,20.832,30.412,38.046,51.613,49.788c20.673,11.448,44.085,17.501,67.706,17.504c0.003,0,0.005,0,0.008,0
				c24.292,0,48.317-6.46,69.479-18.677c31.833-18.379,54.764-48.006,64.567-83.427c9.771-35.301,5.413-72.363-12.264-104.392
				l-3.466,2C369.823,186.844,347.428,267.993,283.536,304.88z"/>
			<path fill="#E20613" d="M283.536,304.88c63.893-36.887,86.287-118.036,50.838-182.354L100.195,257.729
				C138.172,320.589,219.645,341.768,283.536,304.88z"/>
		</g>
		<path fill="none" stroke="#000000" stroke-width="8" stroke-linecap="round" stroke-linejoin="round" stroke-miterlimit="10" d="
			M348.235,114.522l-10.396,6.003l-3.466,2L100.195,257.729l-3.465,2l-10.396,6.002c13.661,22.719,33.093,41.489,56.196,54.283
			c22.447,12.433,47.869,19.004,73.52,19.007h0.008c26.396,0,52.496-7.016,75.479-20.285c34.576-19.963,59.483-52.146,70.132-90.619
			C372.302,189.702,367.531,149.361,348.235,114.522z"/>
		<g>
			
				<line stroke="#000000" stroke-width="10" stroke-linecap="round" stroke-linejoin="round" stroke-miterlimit="10" x1="185.737" y1="252.709" x2="191.138" y2="262.064"/>
			
				<line stroke="#000000" stroke-width="10" stroke-linecap="round" stroke-linejoin="round" stroke-miterlimit="10" x1="238.188" y1="222.425" x2="243.589" y2="231.783"/>
			
				<line stroke="#000000" stroke-width="10" stroke-linecap="round" stroke-linejoin="round" stroke-miterlimit="10" x1="290.639" y1="192.143" x2="296.041" y2="201.5"/>
			
				<line stroke="#000000" stroke-width="10" stroke-linecap="round" stroke-linejoin="round" stroke-miterlimit="10" x1="230.962" y1="270.476" x2="236.364" y2="279.833"/>
			
				<line stroke="#000000" stroke-width="10" stroke-linecap="round" stroke-linejoin="round" stroke-miterlimit="10" x1="283.414" y1="240.193" x2="288.815" y2="249.549"/>
		</g>
	</g>
	<g id="rde훾a7bela" display="inline">
	</g>
	
		<rect x="-4404.662" y="-654.868" display="inline" fill="none" stroke="#000000" stroke-miterlimit="10" width="16736" height="13952"/>
</g>
<g id="barvno_copy_2">
	<g>
		<g>
			<path fill="#1FFF1F" d="M337.839,120.526c17.677,32.029,22.035,69.091,12.264,104.392c-9.804,35.42-32.734,65.047-64.567,83.427
				c-21.161,12.217-45.187,18.677-69.479,18.677c-0.003,0-0.005,0-0.008,0c-23.621-0.002-47.033-6.056-67.706-17.504
				c-21.201-11.742-39.042-28.957-51.613-49.788l-10.396,6.002c13.661,22.719,33.093,41.489,56.196,54.283
				c22.447,12.433,47.869,19.004,73.52,19.007h0.008c26.396,0,52.496-7.016,75.479-20.285
				c34.576-19.963,59.483-52.146,70.132-90.619c10.635-38.417,5.863-78.757-13.433-113.596L337.839,120.526z"/>
			<path fill="#FF0000" d="M283.536,304.88c-63.891,36.888-145.363,15.709-183.341-47.15l-3.465,2
				c12.571,20.832,30.412,38.046,51.613,49.788c20.673,11.448,44.085,17.501,67.706,17.504c0.003,0,0.005,0,0.008,0
				c24.292,0,48.317-6.46,69.479-18.677c31.833-18.379,54.764-48.006,64.567-83.427c9.771-35.301,5.413-72.363-12.264-104.392
				l-3.466,2C369.823,186.844,347.428,267.993,283.536,304.88z"/>
			<path fill="#FF0000" d="M283.536,304.88c63.893-36.887,86.287-118.036,50.838-182.354L100.195,257.729
				C138.172,320.589,219.645,341.768,283.536,304.88z"/>
		</g>
		<path fill="none" stroke="#000000" stroke-width="8" stroke-linecap="round" stroke-linejoin="round" stroke-miterlimit="10" d="
			M348.235,114.522l-10.396,6.003l-3.466,2L100.195,257.729l-3.465,2l-10.396,6.002c13.661,22.719,33.093,41.489,56.196,54.283
			c22.447,12.433,47.869,19.004,73.52,19.007h0.008c26.396,0,52.496-7.016,75.479-20.285c34.576-19.963,59.483-52.146,70.132-90.619
			C372.302,189.702,367.531,149.361,348.235,114.522z"/>
		<g>
			
				<line stroke="#000000" stroke-width="10" stroke-linecap="round" stroke-linejoin="round" stroke-miterlimit="10" x1="185.737" y1="252.709" x2="191.138" y2="262.064"/>
			
				<line stroke="#000000" stroke-width="10" stroke-linecap="round" stroke-linejoin="round" stroke-miterlimit="10" x1="238.188" y1="222.425" x2="243.589" y2="231.783"/>
			
				<line stroke="#000000" stroke-width="10" stroke-linecap="round" stroke-linejoin="round" stroke-miterlimit="10" x1="290.639" y1="192.143" x2="296.041" y2="201.5"/>
			
				<line stroke="#000000" stroke-width="10" stroke-linecap="round" stroke-linejoin="round" stroke-miterlimit="10" x1="230.962" y1="270.476" x2="236.364" y2="279.833"/>
			
				<line stroke="#000000" stroke-width="10" stroke-linecap="round" stroke-linejoin="round" stroke-miterlimit="10" x1="283.414" y1="240.193" x2="288.815" y2="249.549"/>
		</g>
	</g>
	<g id="rde훾a7bela_copy_4">
	</g>
	<rect x="-4404.662" y="-654.868" fill="none" stroke="#000000" stroke-miterlimit="10" width="16736" height="13952"/>
</g>
<g id="sivinsko" display="none">
	<g display="inline">
		<g>
			<path fill="#595959" d="M337.839,120.526c17.677,32.029,22.035,69.091,12.264,104.392c-9.804,35.42-32.734,65.047-64.567,83.427
				c-21.161,12.217-45.187,18.677-69.479,18.677c-0.003,0-0.005,0-0.008,0c-23.621-0.002-47.033-6.056-67.706-17.504
				c-21.201-11.742-39.042-28.957-51.613-49.788l-10.396,6.002c13.661,22.719,33.093,41.489,56.196,54.283
				c22.447,12.433,47.869,19.004,73.52,19.007h0.008c26.396,0,52.496-7.016,75.479-20.285
				c34.576-19.963,59.483-52.146,70.132-90.619c10.635-38.417,5.863-78.757-13.433-113.596L337.839,120.526z"/>
			<path fill="#FFFFFF" d="M283.536,304.88c-63.891,36.888-145.363,15.709-183.341-47.15l-3.465,2
				c12.571,20.832,30.412,38.046,51.613,49.788c20.673,11.448,44.085,17.501,67.706,17.504c0.003,0,0.005,0,0.008,0
				c24.292,0,48.317-6.46,69.479-18.677c31.833-18.379,54.764-48.006,64.567-83.427c9.771-35.301,5.413-72.363-12.264-104.392
				l-3.466,2C369.823,186.844,347.428,267.993,283.536,304.88z"/>
			<path fill="#494949" d="M283.536,304.88c63.893-36.887,86.287-118.036,50.838-182.354L100.195,257.729
				C138.172,320.589,219.645,341.768,283.536,304.88z"/>
		</g>
		<path d="M216.057,343.021h-0.008c-26.327-0.002-52.42-6.748-75.458-19.508c-23.716-13.134-43.664-32.401-57.687-55.721
			c-0.553-0.919-0.713-2.023-0.444-3.062c0.269-1.039,0.943-1.927,1.873-2.463l261.9-151.208c0.931-0.537,2.036-0.678,3.07-0.391
			s1.91,0.978,2.43,1.917c19.807,35.762,24.704,77.17,13.789,116.601c-10.93,39.49-36.496,72.524-71.987,93.016
			C269.944,335.822,243.152,343.021,216.057,343.021z M91.909,267.131c13.154,20.564,31.254,37.586,52.559,49.384
			c21.854,12.104,46.607,18.504,71.582,18.506l0.007,4v-4c25.693,0,51.101-6.829,73.479-19.748
			c33.662-19.436,57.91-50.768,68.277-88.222c9.99-36.086,6.016-73.92-11.151-107.001L91.909,267.131z"/>
		<g>
			<g>
				<line x1="185.737" y1="252.709" x2="191.138" y2="262.064"/>
				<path d="M191.143,267.066c-1.728,0-3.409-0.898-4.335-2.502l-5.401-9.354c-1.381-2.392-0.562-5.449,1.83-6.83
					c2.391-1.38,5.449-0.562,6.83,1.83l5.401,9.354c1.381,2.391,0.562,5.449-1.83,6.83
					C192.851,266.849,191.991,267.066,191.143,267.066z"/>
			</g>
			<g>
				<line x1="238.188" y1="222.425" x2="243.589" y2="231.783"/>
				<path d="M243.594,236.784c-1.729,0-3.409-0.897-4.335-2.501l-5.402-9.358c-1.38-2.392-0.56-5.449,1.832-6.83
					c2.392-1.38,5.449-0.56,6.83,1.831l5.401,9.358c1.38,2.392,0.561,5.451-1.831,6.83
					C245.302,236.568,244.442,236.784,243.594,236.784z"/>
			</g>
			<g>
				<line x1="290.639" y1="192.143" x2="296.041" y2="201.5"/>
				<path d="M296.045,206.5c-1.729,0-3.409-0.897-4.335-2.501l-5.401-9.356c-1.381-2.392-0.561-5.45,1.83-6.83
					c2.393-1.38,5.45-0.562,6.83,1.83l5.401,9.356c1.381,2.392,0.561,5.45-1.83,6.83C297.753,206.285,296.894,206.5,296.045,206.5z"
					/>
			</g>
			<g>
				<line x1="230.962" y1="270.476" x2="236.364" y2="279.833"/>
				<path d="M236.369,284.834c-1.729,0-3.409-0.897-4.335-2.501l-5.401-9.358c-1.38-2.392-0.561-5.45,1.831-6.83
					c2.392-1.381,5.449-0.561,6.83,1.831l5.401,9.357c1.38,2.392,0.561,5.449-1.831,6.83
					C238.076,284.618,237.216,284.834,236.369,284.834z"/>
			</g>
			<g>
				<line x1="283.414" y1="240.193" x2="288.815" y2="249.549"/>
				<path d="M288.82,254.55c-1.729,0-3.409-0.897-4.335-2.501l-5.401-9.356c-1.381-2.392-0.562-5.45,1.83-6.83
					c2.393-1.381,5.45-0.561,6.83,1.83l5.401,9.356c1.381,2.392,0.562,5.451-1.83,6.83
					C290.527,254.333,289.668,254.55,288.82,254.55z"/>
			</g>
		</g>
	</g>
	<g id="rde훾a7bela_copy_3" display="inline">
	</g>
	<path display="inline" d="M12331.838,13297.633h-16737v-13953h16737V13297.633z M-4404.662,13296.633h16736l-0.5-13951h-16735.5
		l0.5,13951H-4404.662z"/>
</g>
<g id="linijsko" display="none">
	<g display="inline">
		<g>
			<path fill="none" stroke="#000000" stroke-width="6" stroke-linecap="round" stroke-linejoin="round" stroke-miterlimit="10" d="
				M337.839,120.526c17.677,32.029,22.035,69.091,12.264,104.392c-9.804,35.42-32.734,65.047-64.567,83.427
				c-21.161,12.217-45.187,18.677-69.479,18.677c-0.003,0-0.005,0-0.008,0c-23.621-0.002-47.033-6.056-67.706-17.504
				c-21.201-11.742-39.042-28.957-51.613-49.788"/>
		</g>
		<path fill="none" stroke="#000000" stroke-width="8" stroke-linecap="round" stroke-linejoin="round" stroke-miterlimit="10" d="
			M348.235,114.522l-10.396,6.003l-3.466,2L100.195,257.729l-3.465,2l-10.396,6.002c13.661,22.719,33.093,41.489,56.196,54.283
			c22.447,12.433,47.869,19.004,73.52,19.007h0.008c26.396,0,52.496-7.016,75.479-20.285c34.576-19.963,59.483-52.146,70.132-90.619
			C372.302,189.702,367.531,149.361,348.235,114.522z"/>
		<g>
			
				<line fill="none" stroke="#000000" stroke-width="10" stroke-linecap="round" stroke-linejoin="round" stroke-miterlimit="10" x1="185.737" y1="252.709" x2="191.138" y2="262.064"/>
			
				<line fill="none" stroke="#000000" stroke-width="10" stroke-linecap="round" stroke-linejoin="round" stroke-miterlimit="10" x1="238.188" y1="222.425" x2="243.589" y2="231.783"/>
			
				<line fill="none" stroke="#000000" stroke-width="10" stroke-linecap="round" stroke-linejoin="round" stroke-miterlimit="10" x1="290.639" y1="192.143" x2="296.041" y2="201.5"/>
			
				<line fill="none" stroke="#000000" stroke-width="10" stroke-linecap="round" stroke-linejoin="round" stroke-miterlimit="10" x1="230.962" y1="270.476" x2="236.364" y2="279.833"/>
			
				<line fill="none" stroke="#000000" stroke-width="10" stroke-linecap="round" stroke-linejoin="round" stroke-miterlimit="10" x1="283.414" y1="240.193" x2="288.815" y2="249.549"/>
		</g>
	</g>
	<g id="rde훾a7bela_copy" display="inline">
	</g>
</g>
<g id="pivot">
	<circle fill="none" cx="246.308" cy="340.114" r="14.132"/>
</g>
</svg>
