<?xml version="1.0" encoding="utf-8"?>
<!-- Generator: Adobe Illustrator 16.0.0, SVG Export Plug-In . SVG Version: 6.00 Build 0)  -->
<!DOCTYPE svg PUBLIC "-//W3C//DTD SVG 1.1//EN" "http://www.w3.org/Graphics/SVG/1.1/DTD/svg11.dtd">
<svg version="1.1" xmlns="http://www.w3.org/2000/svg" xmlns:xlink="http://www.w3.org/1999/xlink" x="0px" y="0px"
	 width="453.543px" height="453.543px" viewBox="0 0 453.543 453.543" enable-background="new 0 0 453.543 453.543"
	 xml:space="preserve">
<g id="kvadrat">
</g>
<g id="bg" display="none">
	<rect x="-1343.195" y="-5847.458" display="inline" width="15266.867" height="13678.951"/>
</g>
<g id="barvno" display="none">
	<g id="rde훾a7bela" display="inline">
	</g>
	<g display="inline">
		
			<path fill="#CABA9F" stroke="#000000" stroke-width="8" stroke-linecap="round" stroke-linejoin="round" stroke-miterlimit="10" d="
			M368.967,221.907c7.205-2.173,12.455-8.853,12.455-16.77c0-9.677-7.843-17.518-17.519-17.518c-9.676,0-17.52,7.841-17.52,17.518
			c0,4.657,1.828,8.875,4.79,12.013H196.002l-1.001,19.522h151.505c-0.075,0.659-0.123,1.322-0.123,2.002
			c0,9.678,7.844,17.518,17.52,17.518c9.675,0,17.519-7.84,17.519-17.518C381.421,230.759,376.172,224.079,368.967,221.907z"/>
		
			<path fill="#925F36" stroke="#000000" stroke-width="8" stroke-linecap="round" stroke-linejoin="round" stroke-miterlimit="10" d="
			M271.39,227.781c0-5.159-2.703-9.658-6.752-12.241c4.049-2.582,6.752-7.082,6.752-12.24c0-8.033-6.511-14.542-14.542-14.542
			c-5.844,0-10.851,3.468-13.161,8.44c-14.746-26.429-48.636-44.925-88.105-44.925c-53.009,0-83.462,33.353-83.462,74.5
			c0,41.14,30.453,74.497,83.462,74.497c39.059,0,72.643-18.119,87.631-44.109c2.014,5.611,7.33,9.644,13.635,9.644
			c8.03,0,14.542-6.509,14.542-14.542c0-5.158-2.703-9.658-6.752-12.24C268.687,237.439,271.39,232.94,271.39,227.781z"/>
	</g>
	
		<rect x="-1853.48" y="-6267.467" display="inline" fill="none" stroke="#000000" stroke-miterlimit="10" width="16736" height="13952"/>
</g>
<g id="barvno_copy_2">
	<g id="rde훾a7bela_copy_4">
	</g>
	<g>
		<g>
			<path fill="#00FFFF" d="M368.967,221.907c7.205-2.173,12.455-8.853,12.455-16.77c0-9.677-7.843-17.518-17.519-17.518
				c-9.676,0-17.52,7.841-17.52,17.518c0,4.657,1.828,8.875,4.79,12.013H196.002l-1.001,19.522h151.505
				c-0.075,0.659-0.123,1.322-0.123,2.002c0,9.678,7.844,17.518,17.52,17.518c9.675,0,17.519-7.84,17.519-17.518
				C381.421,230.759,376.172,224.079,368.967,221.907z"/>
			<path d="M363.903,260.192c-11.192,0-20.417-8.588-21.427-19.52H195.001c-1.097,0-2.145-0.45-2.9-1.245s-1.151-1.865-1.095-2.96
				l1.001-19.522c0.109-2.126,1.865-3.795,3.995-3.795h147.931c-1.016-2.522-1.549-5.234-1.549-8.013
				c0-11.865,9.654-21.518,21.52-21.518s21.519,9.653,21.519,21.518c0,6.709-3.028,12.787-7.996,16.769
				c4.968,3.982,7.996,10.059,7.996,16.768C385.421,250.54,375.769,260.192,363.903,260.192z M199.211,232.673h147.295
				c1.139,0,2.225,0.486,2.983,1.335c0.759,0.85,1.12,1.983,0.991,3.115c-0.066,0.58-0.098,1.087-0.098,1.552
				c0,7.454,6.065,13.518,13.52,13.518c7.454,0,13.519-6.064,13.519-13.518c0-5.912-3.952-11.232-9.609-12.938
				c-1.689-0.509-2.846-2.065-2.846-3.83c0-1.764,1.156-3.32,2.845-3.83c5.748-1.733,9.61-6.934,9.61-12.94
				c0-7.454-6.064-13.518-13.519-13.518c-7.455,0-13.52,6.064-13.52,13.518c0,3.449,1.313,6.74,3.699,9.267
				c1.096,1.161,1.396,2.863,0.765,4.33c-0.633,1.466-2.076,2.416-3.673,2.416H199.802L199.211,232.673z"/>
		</g>
		<g>
			<path fill="#FF0000" d="M271.39,227.781c0-5.159-2.703-9.658-6.752-12.241c4.049-2.582,6.752-7.082,6.752-12.24
				c0-8.033-6.511-14.542-14.542-14.542c-5.844,0-10.851,3.468-13.161,8.44c-14.746-26.429-48.636-44.925-88.105-44.925
				c-53.009,0-83.462,33.353-83.462,74.5c0,41.14,30.453,74.497,83.462,74.497c39.059,0,72.643-18.119,87.631-44.109
				c2.014,5.611,7.33,9.644,13.635,9.644c8.03,0,14.542-6.509,14.542-14.542c0-5.158-2.703-9.658-6.752-12.24
				C268.687,237.439,271.39,232.94,271.39,227.781z"/>
			<path d="M155.583,305.271c-26.27,0-48.525-7.924-64.359-22.917c-14.898-14.105-23.103-33.844-23.103-55.581
				c0-21.739,8.205-41.48,23.103-55.585c15.833-14.991,38.089-22.915,64.359-22.915c37.239,0,71.166,16.205,88.381,41.745
				c3.404-3.307,8.012-5.26,12.885-5.26c10.224,0,18.542,8.318,18.542,18.542c0,4.583-1.679,8.901-4.643,12.241
				c2.964,3.34,4.643,7.658,4.643,12.241c0,4.582-1.679,8.901-4.643,12.241c2.963,3.339,4.643,7.658,4.643,12.241
				c0,10.224-8.318,18.542-18.542,18.542c-5.31,0-10.257-2.308-13.699-6.117C225.688,289.528,192.125,305.271,155.583,305.271z
				 M155.583,156.273c-47.528,0-79.462,28.332-79.462,70.5c0,42.167,31.934,70.497,79.462,70.497
				c36.378,0,69.415-16.528,84.166-42.107c0.778-1.35,2.269-2.129,3.821-1.986c1.552,0.139,2.882,1.166,3.408,2.632
				c1.502,4.184,5.469,6.995,9.87,6.995c5.813,0,10.542-4.729,10.542-10.542c0-3.595-1.833-6.91-4.903-8.868
				c-1.151-0.734-1.849-2.006-1.849-3.372s0.697-2.638,1.849-3.373c3.07-1.959,4.903-5.274,4.903-8.869s-1.833-6.91-4.903-8.869
				c-1.152-0.734-1.849-2.006-1.849-3.373c0-1.366,0.698-2.638,1.849-3.372c3.07-1.958,4.903-5.273,4.903-8.868
				c0-5.813-4.729-10.542-10.542-10.542c-4.063,0-7.804,2.404-9.533,6.125c-0.633,1.363-1.978,2.256-3.479,2.312
				c-1.498,0.059-2.908-0.735-3.641-2.048C225.663,173.103,192.451,156.273,155.583,156.273z"/>
		</g>
	</g>
	<rect x="-1853.48" y="-6267.467" fill="none" stroke="#000000" stroke-miterlimit="10" width="16736" height="13952"/>
</g>
<g id="sivinsko" display="none">
	<g id="rde훾a7bela_copy_3" display="inline">
	</g>
	<g display="inline">
		<g>
			<path fill="#BCBCBC" d="M368.967,221.907c7.205-2.173,12.455-8.853,12.455-16.77c0-9.677-7.843-17.518-17.519-17.518
				c-9.676,0-17.52,7.841-17.52,17.518c0,4.657,1.828,8.875,4.79,12.013H196.002l-1.001,19.522h151.505
				c-0.075,0.659-0.123,1.322-0.123,2.002c0,9.678,7.844,17.518,17.52,17.518c9.675,0,17.519-7.84,17.519-17.518
				C381.421,230.759,376.172,224.079,368.967,221.907z"/>
			<path d="M363.903,260.192c-11.192,0-20.417-8.588-21.427-19.52H195.001c-1.097,0-2.145-0.45-2.9-1.245s-1.151-1.865-1.095-2.96
				l1.001-19.522c0.109-2.126,1.865-3.795,3.995-3.795h147.931c-1.016-2.522-1.549-5.234-1.549-8.013
				c0-11.865,9.654-21.518,21.52-21.518c11.865,0,21.519,9.653,21.519,21.518c0,6.709-3.028,12.787-7.996,16.769
				c4.968,3.982,7.996,10.059,7.996,16.768C385.421,250.54,375.768,260.192,363.903,260.192z M199.211,232.673h147.295
				c1.139,0,2.225,0.486,2.983,1.335c0.759,0.85,1.12,1.983,0.991,3.115c-0.066,0.58-0.098,1.087-0.098,1.552
				c0,7.454,6.065,13.518,13.52,13.518c7.454,0,13.519-6.064,13.519-13.518c0-5.912-3.952-11.232-9.609-12.938
				c-1.689-0.509-2.846-2.065-2.846-3.83c0-1.764,1.155-3.32,2.844-3.83c5.749-1.733,9.61-6.934,9.61-12.94
				c0-7.454-6.064-13.518-13.519-13.518c-7.455,0-13.52,6.064-13.52,13.518c0,3.449,1.313,6.74,3.699,9.267
				c1.096,1.161,1.396,2.863,0.765,4.33c-0.633,1.466-2.076,2.416-3.673,2.416H199.802L199.211,232.673z"/>
		</g>
		<g>
			<path fill="#6A6A6A" d="M271.39,227.781c0-5.159-2.703-9.658-6.752-12.241c4.049-2.582,6.752-7.082,6.752-12.24
				c0-8.033-6.511-14.542-14.542-14.542c-5.844,0-10.851,3.468-13.161,8.44c-14.746-26.429-48.636-44.925-88.105-44.925
				c-53.009,0-83.462,33.353-83.462,74.5c0,41.14,30.453,74.497,83.462,74.497c39.059,0,72.643-18.119,87.631-44.109
				c2.014,5.611,7.33,9.644,13.635,9.644c8.03,0,14.542-6.509,14.542-14.542c0-5.158-2.703-9.658-6.752-12.24
				C268.687,237.439,271.39,232.94,271.39,227.781z"/>
			<path d="M155.583,305.271c-26.27,0-48.525-7.924-64.359-22.917c-14.898-14.105-23.103-33.844-23.103-55.581
				c0-21.739,8.205-41.48,23.103-55.585c15.833-14.991,38.089-22.915,64.359-22.915c37.239,0,71.166,16.205,88.381,41.745
				c3.404-3.307,8.012-5.26,12.885-5.26c10.224,0,18.542,8.318,18.542,18.542c0,4.583-1.679,8.901-4.643,12.241
				c2.964,3.34,4.643,7.658,4.643,12.241c0,4.582-1.679,8.901-4.643,12.241c2.964,3.339,4.643,7.658,4.643,12.241
				c0,10.224-8.318,18.542-18.542,18.542c-5.31,0-10.257-2.308-13.699-6.117C225.688,289.528,192.125,305.271,155.583,305.271z
				 M155.583,156.273c-47.528,0-79.462,28.332-79.462,70.5c0,42.167,31.934,70.497,79.462,70.497
				c36.378,0,69.415-16.528,84.166-42.107c0.778-1.35,2.268-2.129,3.821-1.986c1.552,0.139,2.882,1.166,3.408,2.632
				c1.502,4.184,5.469,6.995,9.871,6.995c5.813,0,10.542-4.729,10.542-10.542c0-3.595-1.833-6.91-4.903-8.868
				c-1.151-0.734-1.849-2.006-1.849-3.372s0.697-2.638,1.849-3.373c3.07-1.959,4.903-5.274,4.903-8.869s-1.833-6.91-4.903-8.869
				c-1.152-0.734-1.849-2.006-1.849-3.373c0-1.366,0.698-2.638,1.849-3.372c3.07-1.958,4.903-5.273,4.903-8.868
				c0-5.813-4.729-10.542-10.542-10.542c-4.063,0-7.804,2.404-9.533,6.125c-0.633,1.363-1.978,2.256-3.479,2.312
				c-1.498,0.059-2.908-0.735-3.641-2.048C225.663,173.103,192.451,156.273,155.583,156.273z"/>
		</g>
	</g>
	<path display="inline" d="M14883.02,7685.033h-16737v-13953h16737V7685.033z M-1853.48,7684.033h16736l-0.5-13951h-16735.5
		l0.5,13951H-1853.48z"/>
</g>
<g id="linijsko" display="none">
	<g id="rde훾a7bela_copy" display="inline">
	</g>
	<g display="inline">
		<path fill="none" stroke="#000000" stroke-width="8" stroke-linecap="round" stroke-linejoin="round" stroke-miterlimit="10" d="
			M266.723,217.15h84.45c-2.962-3.138-4.79-7.355-4.79-12.013c0-9.677,7.844-17.518,17.52-17.518
			c9.675,0,17.519,7.841,17.519,17.518c0,7.917-5.25,14.597-12.455,16.77c7.205,2.172,12.455,8.852,12.455,16.768
			c0,9.678-7.843,17.518-17.519,17.518c-9.676,0-17.52-7.84-17.52-17.518c0-0.68,0.048-1.343,0.123-2.002h-78.188"/>
		<path fill="none" stroke="#000000" stroke-width="8" stroke-linecap="round" stroke-linejoin="round" stroke-miterlimit="10" d="
			M266.723,217.15c2.865,2.648,4.667,6.419,4.667,10.631c0,3.361-1.153,6.438-3.072,8.892"/>
		<path fill="none" stroke="#000000" stroke-width="8" stroke-linecap="round" stroke-linejoin="round" stroke-miterlimit="10" d="
			M266.723,217.15c-0.644-0.596-1.341-1.136-2.085-1.61c4.049-2.582,6.752-7.082,6.752-12.24c0-8.033-6.511-14.542-14.542-14.542
			c-5.844,0-10.851,3.468-13.161,8.44c-14.746-26.429-48.636-44.925-88.105-44.925c-53.009,0-83.462,33.353-83.462,74.5
			c0,41.14,30.453,74.497,83.462,74.497c39.059,0,72.643-18.119,87.631-44.109c2.014,5.611,7.33,9.644,13.635,9.644
			c8.03,0,14.542-6.509,14.542-14.542c0-5.158-2.703-9.658-6.752-12.24c1.411-0.9,2.653-2.037,3.68-3.35"/>
	</g>
</g>
<g id="pivot">
	<circle fill="none" cx="215.035" cy="300.433" r="14.133"/>
</g>
</svg>
