<?xml version="1.0" encoding="utf-8"?>
<!-- Generator: Adobe Illustrator 16.0.0, SVG Export Plug-In . SVG Version: 6.00 Build 0)  -->
<!DOCTYPE svg PUBLIC "-//W3C//DTD SVG 1.1//EN" "http://www.w3.org/Graphics/SVG/1.1/DTD/svg11.dtd">
<svg version="1.1" xmlns="http://www.w3.org/2000/svg" xmlns:xlink="http://www.w3.org/1999/xlink" x="0px" y="0px"
	 width="453.543px" height="453.543px" viewBox="0 0 453.543 453.543" enable-background="new 0 0 453.543 453.543"
	 xml:space="preserve">
<g id="kvadrat">
</g>
<g id="bg" display="none">
	<rect x="-1343.195" y="-745.095" display="inline" width="15266.867" height="13678.951"/>
</g>
<g id="barvno" display="none">
	<g id="rde훾a7bela" display="inline">
	</g>
	<g display="inline">
		<g>
			<path fill="#941B80" d="M226.423,375.053c-1.382,0-2.667-0.714-3.397-1.888c-2.277-3.664-4.524-10.161-7.125-17.685
				c-3.619-10.467-8.122-23.494-12.886-28.27c-1.61-1.615-7.985-4.092-14.15-6.488c-23.543-9.149-62.949-24.465-62.949-64.204
				c0-66.729,35.341-102,102.204-102c66.027,0,99.506,34.318,99.506,102c0,39.017-39.075,54.409-62.421,63.604
				c-5.869,2.312-13.174,5.189-14.338,6.702c-3.482,4.524-7.158,15.787-10.4,25.724c-2.887,8.843-5.379,16.481-7.95,20.615
				c-0.729,1.174-2.012,1.887-3.394,1.888C229.123,375.051,226.424,375.053,226.423,375.053z"/>
			<path d="M228.121,158.519c72.345,0,95.506,41.557,95.506,98c0,49.289-68.954,58.8-75.93,67.867
				c-6.976,9.063-13.324,38.217-18.576,46.666l-2.697,0.002c-5.254-8.451-11.727-37.796-20.576-46.667
				c-8.85-8.874-75.931-18.578-75.931-67.867C129.917,200.075,155.775,158.519,228.121,158.519 M228.121,150.519
				c-36.548,0-64.208,10.268-82.21,30.519c-15.921,17.909-23.994,43.304-23.994,75.481c0,18.673,8.366,34.544,24.864,47.173
				c13.179,10.088,29.048,16.255,40.636,20.76c5.048,1.961,11.324,4.4,12.812,5.628c4.103,4.177,8.604,17.193,11.893,26.707
				c2.68,7.751,4.994,14.446,7.509,18.49c1.46,2.348,4.029,3.776,6.794,3.776c0.002,0,0.004,0,0.006,0l2.697-0.002
				c2.763-0.002,5.33-1.429,6.788-3.776c2.827-4.545,5.389-12.396,8.355-21.484c2.927-8.97,6.556-20.088,9.582-24.276
				c1.672-1.279,7.838-3.708,12.82-5.67c11.507-4.533,27.267-10.74,40.318-20.75c16.349-12.539,24.638-28.209,24.638-46.576
				c0-32.417-7.58-57.768-22.529-75.348C291.803,160.831,264.559,150.519,228.121,150.519L228.121,150.519z"/>
		</g>
		<path fill="none" stroke="#000000" stroke-width="6" stroke-linecap="round" stroke-linejoin="round" stroke-miterlimit="10" d="
			M295.234,259.934c0,0,7.632-36.401-18.436-67.188"/>
		
			<path fill="#39A935" stroke="#000000" stroke-width="8" stroke-linecap="round" stroke-linejoin="round" stroke-miterlimit="10" d="
			M228.959,174.456l-14.587-91.965l-29.693,6.591c0,0,29.761,87.299,29.602,88.648C214.122,179.082,228.959,174.456,228.959,174.456
			z"/>
		
			<path fill="#39A935" stroke="#000000" stroke-width="8" stroke-linecap="round" stroke-linejoin="round" stroke-miterlimit="10" d="
			M262.554,115.642l-27.575-9.23c0,0-19.455,67.578-20.572,71c-1.311,4.014,3.087,8.179,7.007,8.179
			c4.798-0.062,6.633-3.628,6.633-3.628L262.554,115.642z"/>
	</g>
	
		<rect x="-1853.48" y="-1165.104" display="inline" fill="none" stroke="#000000" stroke-miterlimit="10" width="16736" height="13952"/>
</g>
<g id="barvno_copy_2">
	<g id="rde훾a7bela_copy_4">
	</g>
	<g>
		<g>
			<path fill="#FF00FF" d="M226.423,375.053c-1.382,0-2.667-0.714-3.397-1.888c-2.277-3.664-4.524-10.161-7.125-17.685
				c-3.619-10.467-8.122-23.494-12.886-28.27c-1.61-1.615-7.985-4.092-14.15-6.488c-23.543-9.149-62.949-24.465-62.949-64.204
				c0-66.729,35.341-102,102.204-102c66.027,0,99.506,34.318,99.506,102c0,39.017-39.075,54.409-62.421,63.604
				c-5.869,2.312-13.174,5.189-14.338,6.702c-3.482,4.524-7.158,15.787-10.4,25.724c-2.887,8.843-5.379,16.481-7.95,20.615
				c-0.729,1.174-2.012,1.887-3.394,1.888C229.123,375.051,226.424,375.053,226.423,375.053z"/>
			<path d="M228.121,158.519c72.345,0,95.506,41.557,95.506,98c0,49.289-68.954,58.8-75.93,67.867
				c-6.976,9.063-13.324,38.217-18.576,46.666l-2.697,0.002c-5.254-8.451-11.727-37.796-20.576-46.667
				c-8.85-8.874-75.931-18.578-75.931-67.867C129.917,200.075,155.775,158.519,228.121,158.519 M228.121,150.519
				c-36.548,0-64.208,10.268-82.21,30.519c-15.921,17.909-23.994,43.304-23.994,75.481c0,18.673,8.366,34.544,24.864,47.173
				c13.179,10.088,29.048,16.255,40.636,20.76c5.048,1.961,11.324,4.4,12.812,5.628c4.103,4.177,8.604,17.193,11.893,26.707
				c2.68,7.751,4.994,14.446,7.509,18.49c1.46,2.348,4.029,3.776,6.794,3.776c0.002,0,0.004,0,0.006,0l2.697-0.002
				c2.763-0.002,5.33-1.429,6.788-3.776c2.827-4.545,5.389-12.396,8.355-21.484c2.927-8.97,6.556-20.088,9.582-24.276
				c1.672-1.279,7.838-3.708,12.82-5.67c11.507-4.533,27.267-10.74,40.318-20.75c16.349-12.539,24.638-28.209,24.638-46.576
				c0-32.417-7.58-57.768-22.529-75.348C291.803,160.831,264.559,150.519,228.121,150.519L228.121,150.519z"/>
		</g>
		<path fill="none" stroke="#000000" stroke-width="6" stroke-linecap="round" stroke-linejoin="round" stroke-miterlimit="10" d="
			M295.234,259.934c0,0,7.632-36.401-18.436-67.188"/>
		
			<path fill="#00FF00" stroke="#000000" stroke-width="8" stroke-linecap="round" stroke-linejoin="round" stroke-miterlimit="10" d="
			M228.959,174.456l-14.587-91.965l-29.693,6.591c0,0,29.761,87.299,29.602,88.648C214.122,179.082,228.959,174.456,228.959,174.456
			z"/>
		
			<path fill="#00FF00" stroke="#000000" stroke-width="8" stroke-linecap="round" stroke-linejoin="round" stroke-miterlimit="10" d="
			M262.554,115.642l-27.575-9.23c0,0-19.455,67.578-20.572,71c-1.311,4.014,3.087,8.179,7.007,8.179
			c4.798-0.062,6.633-3.628,6.633-3.628L262.554,115.642z"/>
	</g>
	<rect x="-1853.48" y="-1165.104" fill="none" stroke="#000000" stroke-miterlimit="10" width="16736" height="13952"/>
</g>
<g id="sivinsko" display="none">
	<g id="rde훾a7bela_copy_3" display="inline">
	</g>
	<g display="inline">
		<g>
			<path fill="#4A4A4A" d="M228.121,158.519c-72.345,0-98.204,41.557-98.204,98c0,49.289,67.081,58.993,75.931,67.867
				c8.85,8.872,15.322,38.217,20.576,46.667l2.697-0.002c5.252-8.449,11.601-37.602,18.576-46.666
				c6.976-9.066,75.93-18.578,75.93-67.867C323.626,200.075,300.466,158.519,228.121,158.519z"/>
			<path d="M228.121,158.519c72.345,0,95.506,41.557,95.506,98c0,49.289-68.954,58.8-75.93,67.867
				c-6.976,9.063-13.324,38.217-18.576,46.666l-2.697,0.002c-5.254-8.451-11.727-37.796-20.576-46.667
				c-8.85-8.874-75.931-18.578-75.931-67.867C129.917,200.075,155.775,158.519,228.121,158.519 M228.121,150.519
				c-36.548,0-64.208,10.268-82.21,30.519c-15.921,17.909-23.994,43.304-23.994,75.481c0,18.673,8.366,34.544,24.864,47.173
				c13.179,10.088,29.048,16.255,40.636,20.76c5.048,1.961,11.324,4.4,12.812,5.628c4.103,4.177,8.604,17.193,11.893,26.707
				c2.68,7.751,4.994,14.446,7.509,18.49c1.46,2.348,4.029,3.776,6.794,3.776c0.002,0,0.004,0,0.006,0l2.697-0.002
				c2.763-0.002,5.33-1.429,6.788-3.776c2.827-4.545,5.389-12.396,8.355-21.484c2.927-8.97,6.556-20.088,9.582-24.276
				c1.672-1.279,7.838-3.708,12.82-5.67c11.507-4.533,27.267-10.74,40.318-20.75c16.349-12.539,24.638-28.209,24.638-46.576
				c0-32.417-7.58-57.768-22.529-75.348C291.803,160.831,264.559,150.519,228.121,150.519L228.121,150.519z"/>
		</g>
		<path d="M295.237,262.935c-0.204,0-0.411-0.021-0.619-0.064c-1.621-0.34-2.659-1.928-2.321-3.549l0,0
			c0.073-0.35,6.973-35.394-17.789-64.637c-1.07-1.265-0.914-3.158,0.351-4.229c1.265-1.071,3.158-0.913,4.229,0.351
			c26.709,31.543,19.406,68.197,19.083,69.742C297.874,261.963,296.627,262.935,295.237,262.935z"/>
		<g>
			<path fill="#7B7B7B" d="M228.959,174.456l-14.587-91.965l-29.693,6.591c0,0,29.761,87.299,29.602,88.648
				C214.122,179.082,228.959,174.456,228.959,174.456z"/>
			<path d="M214.89,181.978L214.89,181.978c-1.497,0-2.694-0.495-3.562-1.47c-0.567-0.638-0.918-1.43-1.019-2.264
				c-1.157-4.552-18.141-54.794-29.417-87.87c-0.367-1.078-0.258-2.26,0.299-3.251c0.557-0.992,1.51-1.699,2.621-1.945l29.693-6.591
				c1.076-0.239,2.205-0.023,3.117,0.598c0.913,0.621,1.528,1.59,1.701,2.681l14.587,91.964c0.311,1.961-0.864,3.854-2.76,4.445
				C226.579,179.388,217.944,181.978,214.89,181.978z M217.923,176.132c0.324,1.238,0.361,1.646,0.345,1.907
				C218.318,177.38,218.196,176.724,217.923,176.132z M189.906,92.019c18.683,54.835,25.111,74.317,27.285,81.553
				c1.889-0.43,4.579-1.153,7.271-1.938l-13.374-84.316L189.906,92.019z"/>
		</g>
		<g>
			<path fill="#7B7B7B" d="M262.554,115.642l-27.575-9.23c0,0-19.455,67.578-20.572,71c-1.311,4.014,3.087,8.179,7.007,8.179
				c4.798-0.062,6.633-3.628,6.633-3.628L262.554,115.642z"/>
			<path d="M221.414,189.59c-3.461,0-7.106-1.941-9.285-4.944c-1.881-2.594-2.437-5.684-1.525-8.476
				c0.867-2.655,13.809-47.516,20.53-70.866c0.301-1.048,1.019-1.928,1.984-2.435c0.965-0.507,2.096-0.598,3.13-0.252l27.575,9.23
				c1.109,0.371,2,1.21,2.438,2.294c0.438,1.085,0.379,2.307-0.161,3.345l-34.507,66.321c-1.082,2.103-4.444,5.709-10.13,5.782
				C221.448,189.59,221.431,189.59,221.414,189.59z M237.668,111.529c-4.239,14.716-18.48,64.126-19.459,67.124
				c-0.147,0.45,0.185,1.005,0.396,1.295c0.739,1.019,1.991,1.63,2.787,1.642c2.23-0.041,3.09-1.444,3.098-1.458l32.354-62.184
				L237.668,111.529z"/>
		</g>
	</g>
	<path display="inline" d="M14883.02,12787.396h-16737v-13953h16737V12787.396z M-1853.48,12786.396h16736l-0.5-13951h-16735.5
		l0.5,13951H-1853.48z"/>
</g>
<g id="linijsko" display="none">
	<g id="rde훾a7bela_copy" display="inline">
	</g>
	<g display="inline">
		<path fill="none" stroke="#000000" stroke-width="6" stroke-linecap="round" stroke-linejoin="round" stroke-miterlimit="10" d="
			M295.234,259.934c0,0,7.632-36.401-18.436-67.188"/>
		<g>
			<path d="M240.032,158.927c62.996,4.394,83.594,44.372,83.594,97.591c0,49.289-68.954,58.8-75.93,67.867
				c-6.976,9.063-13.324,38.217-18.576,46.666l-2.697,0.002c-5.254-8.451-11.727-37.796-20.576-46.667
				c-8.85-8.874-75.931-18.578-75.931-67.867c0-51.011,21.125-89.859,78.594-96.865c3.431,10.329,5.815,17.693,5.77,18.077
				c-0.004,0.04,0.006,0.071,0.026,0.1c-0.889,3.879,3.323,7.76,7.107,7.76c4.798-0.062,6.633-3.628,6.633-3.628L240.032,158.927
				 M240.03,150.927c-2.967,0-5.711,1.648-7.095,4.308l-10.827,20.808c-0.476-2.215-1.957-6.72-6.005-18.911
				c-1.097-3.301-4.18-5.479-7.587-5.479c-0.322,0-0.646,0.02-0.973,0.059c-29.525,3.599-51.841,15.421-66.327,35.136
				c-12.806,17.428-19.299,40.869-19.299,69.671c0,18.673,8.366,34.544,24.864,47.173c13.179,10.088,29.048,16.255,40.636,20.76
				c5.048,1.961,11.324,4.4,12.812,5.628c4.103,4.177,8.604,17.193,11.893,26.707c2.68,7.751,4.994,14.446,7.509,18.49
				c1.46,2.348,4.029,3.776,6.794,3.776c0.002,0,0.004,0,0.006,0l2.697-0.002c2.763-0.002,5.33-1.429,6.788-3.776
				c2.827-4.545,5.389-12.396,8.355-21.484c2.927-8.97,6.556-20.088,9.582-24.276c1.672-1.279,7.838-3.708,12.82-5.67
				c11.507-4.533,27.267-10.74,40.318-20.75c16.349-12.539,24.638-28.209,24.638-46.576c0-30.389-6.66-54.591-19.796-71.936
				c-15.21-20.084-39.18-31.4-71.241-33.637C240.402,150.934,240.215,150.927,240.03,150.927L240.03,150.927z"/>
		</g>
		
			<path fill="none" stroke="#000000" stroke-width="6.9277" stroke-linecap="round" stroke-linejoin="round" stroke-miterlimit="10" d="
			M233.065,101.411c0,0-4.138,19.172-8.135,37.609l-7.318-61.529l-22.266,6.591c0,0,22.317,87.299,22.198,88.648
			c-0.003,0.04,0.005,0.071,0.02,0.1c-0.667,3.879,2.491,7.76,5.329,7.76c3.598-0.062,4.975-3.628,4.975-3.628l25.876-66.321
			L233.065,101.411z"/>
	</g>
</g>
<g id="pivot">
	<circle fill="none" cx="228.045" cy="369.519" r="14.132"/>
</g>
</svg>
