<?xml version="1.0" encoding="utf-8"?>
<!-- Generator: Adobe Illustrator 16.0.0, SVG Export Plug-In . SVG Version: 6.00 Build 0)  -->
<!DOCTYPE svg PUBLIC "-//W3C//DTD SVG 1.1//EN" "http://www.w3.org/Graphics/SVG/1.1/DTD/svg11.dtd">
<svg version="1.1" xmlns="http://www.w3.org/2000/svg" xmlns:xlink="http://www.w3.org/1999/xlink" x="0px" y="0px"
	 width="453.543px" height="453.543px" viewBox="0 0 453.543 453.543" enable-background="new 0 0 453.543 453.543"
	 xml:space="preserve">
<g id="kvadrat">
</g>
<g id="bg" display="none">
	<rect x="-1343.195" y="-234.859" display="inline" width="15266.867" height="13678.951"/>
</g>
<g id="barvno" display="none">
	<g display="inline">
		
			<path fill="#7E4E24" stroke="#000000" stroke-width="8" stroke-linecap="round" stroke-linejoin="round" stroke-miterlimit="10" d="
			M242.345,105.727l-23.593,0.016l2.496,59.922l0.192-0.001c-0.007,0.506,0.067,1.01,0.233,1.506c0.892,2.659,4.06,3.991,7.076,2.98
			c2.215-0.745,3.728-2.546,4.024-4.503l0.141-0.001L242.345,105.727z"/>
		
			<ellipse fill="#43237A" stroke="#000000" stroke-width="8" stroke-linecap="round" stroke-linejoin="round" stroke-miterlimit="10" cx="246.529" cy="249.55" rx="65.101" ry="98.268"/>
		
			<path fill="#43237A" stroke="#000000" stroke-width="8" stroke-linecap="round" stroke-linejoin="round" stroke-miterlimit="10" d="
			M181.767,249.55c0-43.778,18.969-80.863,45.175-93.57c-6.282-3.045-12.977-4.698-19.927-4.698
			c-35.956,0-65.102,43.995-65.102,98.268c0,54.271,29.146,98.268,65.102,98.268c6.951,0,13.645-1.65,19.927-4.697
			C200.736,330.414,181.767,293.329,181.767,249.55z"/>
	</g>
	<g id="rde훾a7bela" display="inline">
	</g>
	
		<rect x="-1853.48" y="-654.868" display="inline" fill="none" stroke="#000000" stroke-miterlimit="10" width="16736" height="13952"/>
</g>
<g id="barvno_copy_2">
	<g>
		
			<path fill="#00FF00" stroke="#000000" stroke-width="8" stroke-linecap="round" stroke-linejoin="round" stroke-miterlimit="10" d="
			M242.345,105.727l-23.593,0.016l2.496,59.922l0.192-0.001c-0.007,0.506,0.067,1.01,0.233,1.506c0.892,2.659,4.06,3.991,7.076,2.98
			c2.215-0.745,3.728-2.546,4.024-4.503l0.141-0.001L242.345,105.727z"/>
		
			<ellipse fill="#0000FF" stroke="#000000" stroke-width="8" stroke-linecap="round" stroke-linejoin="round" stroke-miterlimit="10" cx="246.529" cy="249.55" rx="65.101" ry="98.268"/>
		
			<path fill="#0000FF" stroke="#000000" stroke-width="8" stroke-linecap="round" stroke-linejoin="round" stroke-miterlimit="10" d="
			M181.767,249.55c0-43.778,18.969-80.863,45.175-93.57c-6.282-3.045-12.977-4.698-19.927-4.698
			c-35.956,0-65.102,43.995-65.102,98.268c0,54.271,29.146,98.268,65.102,98.268c6.951,0,13.645-1.65,19.927-4.697
			C200.736,330.414,181.767,293.329,181.767,249.55z"/>
	</g>
	<g id="rde훾a7bela_copy_4">
	</g>
	<rect x="-1853.48" y="-654.868" fill="none" stroke="#000000" stroke-miterlimit="10" width="16736" height="13952"/>
</g>
<g id="sivinsko" display="none">
	<g display="inline">
		<g>
			<path fill="#585858" d="M242.345,105.727l-23.593,0.016l2.496,59.922l0.192-0.001c-0.007,0.506,0.067,1.01,0.233,1.506
				c0.892,2.659,4.06,3.991,7.076,2.98c2.215-0.745,3.728-2.546,4.024-4.503l0.141-0.001L242.345,105.727z"/>
			<path d="M226.701,174.488C226.701,174.488,226.7,174.488,226.701,174.488c-4.063,0-7.607-2.43-8.82-6.046
				c-0.131-0.391-0.232-0.787-0.305-1.188c-0.19-0.438-0.304-0.918-0.325-1.422l-2.496-59.922c-0.045-1.088,0.355-2.148,1.109-2.934
				c0.754-0.787,1.795-1.231,2.885-1.232l23.593-0.016c0.001,0,0.002,0,0.002,0c1.169,0,2.28,0.511,3.04,1.4
				c0.761,0.89,1.093,2.066,0.912,3.222l-9.432,59.919c-0.074,0.469-0.227,0.908-0.445,1.304c-0.916,2.908-3.31,5.332-6.396,6.37
				C228.94,174.305,227.823,174.488,226.701,174.488z M225.194,164.283c0.168,0.457,0.253,0.944,0.246,1.439
				c-0.001,0.065,0.008,0.12,0.027,0.178c0.113,0.34,0.633,0.588,1.234,0.588l0,0c0.256,0,0.518-0.044,0.776-0.13
				c0.827-0.278,1.275-0.874,1.341-1.31c0.056-0.365,0.159-0.712,0.304-1.035l8.544-54.283l-14.744,0.01L225.194,164.283z"/>
		</g>
		<g>
			<ellipse fill="#363636" cx="246.529" cy="249.55" rx="65.101" ry="98.268"/>
			<path d="M246.53,351.818c-18.774,0-36.307-10.858-49.368-30.573c-12.726-19.208-19.733-44.67-19.733-71.695
				s7.008-52.487,19.733-71.695c13.061-19.714,30.594-30.573,49.368-30.573c18.773,0,36.306,10.858,49.367,30.573
				c12.725,19.208,19.733,44.67,19.733,71.695s-7.008,52.487-19.733,71.695C282.835,340.96,265.303,351.818,246.53,351.818z
				 M246.53,155.283c-33.691,0-61.102,42.288-61.102,94.268c0,51.98,27.41,94.268,61.102,94.268c33.69,0,61.1-42.288,61.1-94.268
				C307.629,197.571,280.22,155.283,246.53,155.283z"/>
		</g>
		<g>
			<path fill="#363636" d="M181.767,249.55c0-43.778,18.969-80.863,45.175-93.57c-6.282-3.045-12.977-4.698-19.927-4.698
				c-35.956,0-65.102,43.995-65.102,98.268c0,54.271,29.146,98.268,65.102,98.268c6.951,0,13.645-1.65,19.927-4.697
				C200.736,330.414,181.767,293.329,181.767,249.55z"/>
			<path d="M207.015,351.818c-18.775,0-36.308-10.858-49.369-30.573c-12.725-19.208-19.733-44.67-19.733-71.695
				c0-27.024,7.008-52.487,19.733-71.695c13.061-19.714,30.594-30.573,49.369-30.573c7.402,0,14.693,1.715,21.671,5.098
				c1.38,0.669,2.256,2.067,2.256,3.6s-0.875,2.93-2.255,3.599c-25.671,12.448-42.92,48.605-42.92,89.971
				c0,41.367,17.249,77.524,42.92,89.972c1.379,0.668,2.255,2.066,2.255,3.599s-0.875,2.93-2.254,3.6
				C221.712,350.104,214.42,351.818,207.015,351.818z M207.015,155.283c-33.691,0-61.102,42.288-61.102,94.268
				c0,51.98,27.41,94.268,61.102,94.268c3.597,0,7.17-0.489,10.688-1.458c-24.179-16.535-39.935-52.477-39.935-92.81
				c0-40.332,15.756-76.273,39.935-92.808C214.184,155.771,210.611,155.283,207.015,155.283z"/>
		</g>
	</g>
	<g id="rde훾a7bela_copy_3" display="inline">
	</g>
	<path display="inline" d="M14883.02,13297.633h-16737v-13953h16737V13297.633z M-1853.48,13296.633h16736l-0.5-13951h-16735.5
		l0.5,13951H-1853.48z"/>
</g>
<g id="linijsko" display="none">
	<g display="inline">
		<path fill="none" stroke="#000000" stroke-width="8" stroke-linecap="round" stroke-linejoin="round" stroke-miterlimit="10" d="
			M181.767,249.55c0-43.778,18.969-80.863,45.175-93.57c-6.282-3.045-12.977-4.698-19.927-4.698
			c-35.956,0-65.102,43.995-65.102,98.268c0,54.271,29.146,98.268,65.102,98.268c6.951,0,13.645-1.65,19.927-4.697
			C200.736,330.414,181.767,293.329,181.767,249.55z"/>
		
			<ellipse fill="none" stroke="#000000" stroke-width="8" stroke-linecap="round" stroke-linejoin="round" stroke-miterlimit="10" cx="246.529" cy="249.55" rx="65.101" ry="98.268"/>
		<path fill="none" stroke="#000000" stroke-width="8" stroke-linecap="round" stroke-linejoin="round" stroke-miterlimit="10" d="
			M234.93,152.839l7.416-47.112l-23.593,0.016l2.224,53.403C225.398,156.294,230.07,154.159,234.93,152.839z"/>
	</g>
	<g id="rde훾a7bela_copy" display="inline">
	</g>
</g>
<g id="pivot">
	<circle fill="none" cx="223.705" cy="350.241" r="14.132"/>
</g>
</svg>
