<?xml version="1.0" encoding="utf-8"?>
<!-- Generator: Adobe Illustrator 16.0.0, SVG Export Plug-In . SVG Version: 6.00 Build 0)  -->
<!DOCTYPE svg PUBLIC "-//W3C//DTD SVG 1.1//EN" "http://www.w3.org/Graphics/SVG/1.1/DTD/svg11.dtd">
<svg version="1.1" xmlns="http://www.w3.org/2000/svg" xmlns:xlink="http://www.w3.org/1999/xlink" x="0px" y="0px" width="1920px"
	 height="1080px" viewBox="0 0 1920 1080" enable-background="new 0 0 1920 1080" xml:space="preserve">
<g id="Layer_2">
</g>
<g id="Layer_3">
	<g>
		<defs>
			<rect id="SVGID_1_" x="0" width="1919.999" height="1080"/>
		</defs>
		<clipPath id="SVGID_2_">
			<use xlink:href="#SVGID_1_"  overflow="visible"/>
		</clipPath>
		<rect x="0" clip-path="url(#SVGID_2_)" fill="#0F569C" width="1919.999" height="1080"/>
		<path clip-path="url(#SVGID_2_)" fill="#003668" stroke="#231F20" stroke-width="4.1453" stroke-miterlimit="10" d="
			M1948.5,214.049v907.085H-26.163V150c213.78,0,349.538,96.069,618.087,96.069S1138.517,150,1332.96,150
			S1748.462,214.049,1948.5,214.049z"/>
		
			<path clip-path="url(#SVGID_2_)" fill="#BE1622" stroke="#010202" stroke-width="4" stroke-linecap="round" stroke-linejoin="round" stroke-miterlimit="10" d="
			M-13.47,980.943c-7.459,0.092-14.906,3.104-22.348,3.599c-6.561,0.436-10.303-5.523-6.98-11.081
			c2.629-4.373,7.35-6.666,11.65-9.047c2.703-1.49,8.578-3.658,7.842-7.675c-0.803-4.432-6.645-4.227-10.051-4.428
			c-6.695-0.402-29.326-4.984-26.539-15.634c2.719-10.391,17.09-6.913,23.35-3.114c4.168,2.536,8.295,9.517,13.617,9.232
			c6.193-0.318,9.482-9.098,2.662-11.617c-3.322-1.23-17.074-5.942-10.596-13.224c5.725-6.444,17.283,8.754,17.383,8.842
			c1.834,1.486,7.684,2.382,9.592,1.13c6.537-4.293-5.264-16.822-8.32-19.555c-3.355-3.005-6.971-5.188-11.029-7.056
			c-3.658-1.682-8.076-3.364-10.102-7.113c-4.002-7.437,0.426-25.276,11.063-24.405c7.559,0.619,10.42,8.729,10.045,15.282
			c-0.619,11.081,13.391,14.441,19.258,5.436c4.996-7.687-5.047-14.604-7.35-20.86c-3.758-10.228,8.229-10.964,14.354-7.805
			c6.262,3.243,11.818,10.76,11.811,17.986c-0.01,5.867-3.951,11.977-7.701,16.236c-3.254,3.695-8.092,6.411-10.219,11.064
			c-2.252,4.959,2.018,6.733,6.109,8.181c7.391,2.62,13.617-7.205,16.447-12.495c2.627-4.904,5.531-12.072,10.887-14.588
			c3.021-1.419,5.852-0.54,8.396,1.507c11.615,9.386-2.504,29.828-11.643,31.348c-9.131,1.519-24.02,8.331-21.367,11.755
			c3.842,4.963,7.398,2.108,12.252,1.469c3.684-0.49,10.078,0.912,6.779,5.683c-3.104,4.486-10.93,3.247-15.516,5.884
			c-1.809,1.033-4.512,5.143-3.859,7.699c1.289,5.018,10.547,4.164,13.551,1.862c5.766-4.428,23.4-23.856,29.285-10.127
			c1.514,3.565,1.063,11.513-1.088,14.742c-4.086,6.123-13.451,6.026-19.971,6.633c-2.92,0.269-5.816,0.44-8.729-0.028
			c-2.477-0.397-5.105-1.703-7.658-1.369c-2.52,0.327-5.992,3.457-6.486,5.935c-0.938,4.637,4.828,4.102,7.549,5.866
			c7.582,4.946-9.508,7.391-12.061,7.315c-8.193-0.255-15.959-3.532-24.203-3.448C-13.437,980.943-13.455,980.943-13.47,980.943z"/>
		<g clip-path="url(#SVGID_2_)">
			
				<path fill="#009E73" stroke="#010202" stroke-width="4" stroke-linecap="round" stroke-linejoin="round" stroke-miterlimit="10" d="
				M1216.177,1063.283c0,0-25.727-199.398,2.962-264.005c28.679-64.604,10.948-215.039,10.948-215.039s68.56,124.378,34.652,240.704
				c-33.906,116.326,11.898,229.93,11.898,229.93L1216.177,1063.283z"/>
			
				<path fill="#009E73" stroke="#010202" stroke-width="4" stroke-linecap="round" stroke-linejoin="round" stroke-miterlimit="10" d="
				M1111.771,1110.794c0,0-41.557-81.51-19.436-240.024c9.068-64.976-13.053-187.582-13.053-187.582s41.832,82.919,38.422,235.246
				c-1.227,54.699,37.154,112.72,30.117,167.359l-32.222,37.858"/>
			
				<path fill="#009E73" stroke="#010202" stroke-width="4" stroke-linecap="round" stroke-linejoin="round" stroke-miterlimit="10" d="
				M1138.834,1124.536c0,0,28.106-146.899,5.056-224.129c-23.041-77.23,15.942-142.777,17.025-241.079
				c1.072-98.301,15.054-161.128,15.054-161.128s34.265,150.038,11.704,281.479c-27.096,157.912,9.252,214.391,8.303,249.727
				c-3.248,120.881-5.842,61.463-13.307,95.13H1138.834z"/>
			
				<path fill="#A48A7B" stroke="#010202" stroke-width="4" stroke-linecap="round" stroke-linejoin="round" stroke-miterlimit="10" d="
				M1473.615,1044.818c54.364,18.563-34.325,256.999-30.525,261.165c16.033,17.5-118.389-138.568-186.652-140.948
				c-71.582-2.492-142.613-7.951-213.604-13.981c-40.188-3.422-80.488-6.675-120.82-9.346
				c-46.684-3.094-86.054-9.068-125.149-22.866c-32.426-11.444-69.754-21.892-100.158-34.479
				c-56.191-23.275-2.012-70.24,58.735-71.461c51.596-1.041,102.231,10.086,153.296,10.168c24.112,0.045,47.46-1.813,69.019-7.231
				c35.715-8.982,63.902-24.123,100.885-32.084c36.439-7.864,77.025-8.829,116.683-7.404c43.384,1.573,86.636,6.194,128.417,13.267
				c32.529,5.489,75.679,12.408,98.371,27.188C1432.508,1023.564,1464.26,1041.632,1473.615,1044.818z"/>
		</g>
		
			<path clip-path="url(#SVGID_2_)" fill="#A48A7B" stroke="#010202" stroke-width="4" stroke-linecap="round" stroke-linejoin="round" stroke-miterlimit="10" d="
			M341.348,991.415c15.514,19.689,53.012,19.718,80.373,20.023c27.449,0.302,75.451-5.544,97.453,9.512
			c19.306,13.182-10.066,28.784-24.617,35.491c-17.465,8.064-31.143,10.137-51.496,11.472c-24.747,1.632-49.067,2.67-69.434,13.924
			c-10.772,5.988-20.229,13.692-31.148,19.51c-46.578,24.793-89.616,41.665-147.777,45.434
			c-60.984,3.949-121.844,4.25-182.717,3.842c-34.453-0.25-68.999-0.264-103.498,0.427c-39.937,0.778-73.982-2.638-108.652-15.583
			c-28.757-10.744-61.564-19.792-88.722-32.136c-50.208-22.814-9.367-85.138,42.026-92.54c43.649-6.304,87.818,2.275,131.138-2.601
			c20.474-2.304,40.066-6.828,57.763-15.523c29.327-14.383,51.571-35.528,82.07-48.813c30.055-13.104,64.387-18.239,98.177-20.367
			c36.975-2.326,74.167-0.917,110.376,3.602C260.854,930.574,337.672,986.724,341.348,991.415z"/>
		
			<path clip-path="url(#SVGID_2_)" fill="#CBBBA0" stroke="#010202" stroke-width="4" stroke-linecap="round" stroke-linejoin="round" stroke-miterlimit="10" d="
			M2038.446,1100.31c-83.349-20.793-168.876-37.581-253.94-50.704c-147.823-22.809-152.379-36.406-302.006-40.401
			c-82.095-2.189-259.502,34.36-368.751,34.36s-151.512-29.561-227.661-41.309c-147.823-22.809-299.958-31.041-449.585-35.036
			c-136.273-3.634-243.02,24.585-352.428,102.381c-20.437,14.526-38.43,34.689-58.63,49.697
			c-38.156,28.233-82.255,26.634-127.192,26.634c-36.966,0-61.944,3.337-94.479,23.022c-27.088,16.354-82.069,55.256-48.725,96.416
			c38.008,46.968-20.172,110.529,29.424,116.518c49.43,5.984,117.223,13.095,142.92,72.035c6.091,14.049,9.085,29.063,11.593,44.196
			c4.454,26.93,7.402,54.124,23.819,76.368c35.854,48.715,248.546-3.49,299.097,11.736c64.929,19.644,132.009,30.624,199.125,30.921
			c61.351,0.26,124.046-7.94,179.937-39.598c54.552-30.864,96.172-83.857,147.96-119.427c15.417,9.977,28.433,23.758,36.888,43.152
			c6.091,14.049,9.085,29.063,11.593,44.196c4.454,26.93,7.402,54.124,23.819,76.368c35.854,48.715,248.546-3.49,299.097,11.736
			c64.929,19.644,132.009,30.624,199.125,30.921c61.351,0.26,124.046-7.94,179.937-39.598
			c56.725-32.094,99.461-88.124,154.192-123.602c33.021-21.423,68.989-30.619,106.274-33.354
			c78.918-5.767,157.742,26.939,237.412,17.178c89.847-11.014,147.119-137.831,160.162-208.044
			C2218.16,1165.438,2138.333,1125.219,2038.446,1100.31z"/>
		
			<path clip-path="url(#SVGID_2_)" fill="#009E73" stroke="#010202" stroke-width="4" stroke-linecap="round" stroke-linejoin="round" stroke-miterlimit="10" d="
			M90.328,1114.982c0,0-37.554-38.985-17.558-114.808c8.199-31.083-11.797-89.727-11.797-89.727s37.8,39.658,34.713,112.527
			c-1.104,26.165,33.586,53.911,27.222,80.044l-29.122,18.114"/>
		
			<path clip-path="url(#SVGID_2_)" fill="#009E73" stroke="#010202" stroke-width="4" stroke-linecap="round" stroke-linejoin="round" stroke-miterlimit="10" d="
			M108.039,1089.04c0,0,25.396-70.269,4.569-107.206c-20.825-36.942,14.406-68.299,15.38-115.317
			c0.96-47.019,13.604-77.073,13.604-77.073s30.963,71.771,10.577,134.642c-24.492,75.534,8.353,102.548,7.499,119.452
			c-2.938,57.818-5.283,29.4-12.023,45.503H108.039L108.039,1089.04z"/>
		
			<path clip-path="url(#SVGID_2_)" fill="#009E73" stroke="#010202" stroke-width="4" stroke-linecap="round" stroke-linejoin="round" stroke-miterlimit="10" d="
			M184.69,1073.327c0,0-23.255-95.378,2.674-126.28c25.93-30.897,9.892-102.857,9.892-102.857s61.977,59.496,31.329,115.141
			c-30.647,55.641,10.753,109.979,10.753,109.979L184.69,1073.327z"/>
		
			<path clip-path="url(#SVGID_2_)" fill="#B17F4A" stroke="#010202" stroke-width="4" stroke-linecap="round" stroke-linejoin="round" stroke-miterlimit="10" d="
			M237.766,1113.866c0,40.84-59.084,73.948-131.967,73.948c-72.878,0-131.962-33.108-131.962-73.948
			c0-40.836,59.079-104.662,131.962-104.662C178.678,1009.204,237.766,1073.035,237.766,1113.866z"/>
		
			<path clip-path="url(#SVGID_2_)" fill="#B17F4A" stroke="#010202" stroke-width="4" stroke-linecap="round" stroke-linejoin="round" stroke-miterlimit="10" d="
			M900.23,1006.768c1.874,19.182-24.353,37.43-58.563,40.772s-63.473-9.484-65.347-28.665
			c-1.872-19.164,22.942-51.841,57.155-55.184C867.684,960.349,898.358,987.604,900.23,1006.768z"/>
		
			<path clip-path="url(#SVGID_2_)" fill="#936037" stroke="#010202" stroke-width="4" stroke-linecap="round" stroke-linejoin="round" stroke-miterlimit="10" d="
			M926.079,1030.63c0.9,9.208-11.684,17.973-28.115,19.578c-16.433,1.605-30.476-4.558-31.375-13.766
			c-0.898-9.198,11.008-24.888,27.441-26.493C910.452,1008.345,925.18,1021.432,926.079,1030.63z"/>
		<g clip-path="url(#SVGID_2_)">
			
				<path fill="#E69F02" stroke="#010202" stroke-width="4" stroke-linecap="round" stroke-linejoin="round" stroke-miterlimit="10" d="
				M1678.001,1106.49c14.797,0.179,29.566,6.16,44.318,7.146c13.02,0.853,20.449-10.97,13.846-21.976
				c-5.21-8.69-14.575-13.235-23.104-17.948c-5.354-2.946-16.998-7.264-15.561-15.239c1.589-8.792,13.173-8.387,19.936-8.792
				c13.288-0.789,58.182-9.888,52.643-31.008c-5.396-20.6-33.896-13.705-46.304-6.16c-8.265,5.033-16.457,18.879-27.002,18.32
				c-12.292-0.657-18.808-18.063-5.281-23.06c6.568-2.423,33.861-11.778,21.01-26.22c-11.353-12.785-34.288,17.366-34.483,17.535
				c-3.621,2.933-15.23,4.718-19.029,2.228c-12.949-8.512,10.456-33.378,16.5-38.797c6.657-5.95,13.829-10.3,21.888-13.997
				c7.252-3.324,16.021-6.655,20.042-14.107c7.926-14.752-0.843-50.14-21.95-48.396c-14.973,1.229-20.646,17.331-19.927,30.303
				c1.243,21.981-26.556,28.647-38.191,10.784c-9.914-15.245,10.002-28.975,14.574-41.384c7.455-20.289-16.332-21.746-28.448-15.471
				c-12.426,6.427-23.458,21.32-23.423,35.668c0.019,11.641,7.82,23.766,15.257,32.206c6.453,7.345,16.039,12.719,20.256,21.963
				c4.491,9.835-3.985,13.354-12.09,16.226c-14.672,5.192-27.018-14.295-32.636-24.781c-5.21-9.724-10.962-23.961-21.587-28.944
				c-5.999-2.813-11.618-1.061-16.65,2.981c-23.06,18.622,4.953,59.172,23.06,62.18c18.125,3.02,47.654,16.545,42.399,23.326
				c-7.624,9.835-14.681,4.198-24.302,2.902c-7.313-0.968-19.979,1.82-13.465,11.277c6.16,8.893,21.701,6.436,30.79,11.662
				c3.595,2.068,8.938,10.216,7.643,15.272c-2.548,9.949-20.894,8.262-26.857,3.695c-11.442-8.791-46.422-47.316-58.084-20.099
				c-3.027,7.083-2.113,22.847,2.165,29.254c8.077,12.143,26.663,11.947,39.596,13.15c5.787,0.537,11.556,0.865,17.325-0.059
				c4.917-0.78,10.128-3.372,15.178-2.715c4.997,0.656,11.903,6.852,12.88,11.769c1.837,9.204-9.588,8.126-14.983,11.649
				c-15.045,9.804,18.853,14.637,23.92,14.491c16.271-0.489,31.67-6.995,48.019-6.836
				C1677.939,1106.49,1677.966,1106.49,1678.001,1106.49z"/>
			
				<path fill="#D45F14" stroke="#010202" stroke-width="4" stroke-linecap="round" stroke-linejoin="round" stroke-miterlimit="10" d="
				M1832.531,1085.712c-23.354,0.289-46.678,9.733-69.96,11.269c-20.565,1.354-32.281-17.313-21.861-34.696
				c8.219-13.709,22.998-20.88,36.471-28.327c8.451-4.659,26.85-11.45,24.569-24.049c-2.521-13.877-20.823-13.229-31.475-13.868
				c-20.982-1.251-91.847-15.612-83.113-48.95c8.513-32.53,53.503-21.658,73.11-9.746c13.056,7.936,25.962,29.796,42.622,28.917
				c19.428-1.011,29.698-28.509,8.352-36.391c-10.394-3.847-53.45-18.595-33.177-41.405c17.938-20.175,54.124,27.427,54.444,27.688
				c5.716,4.647,24.044,7.461,30.025,3.521c20.46-13.438-16.49-52.67-26.059-61.239c-10.5-9.396-21.816-16.248-34.546-22.097
				c-11.457-5.26-25.286-10.519-31.623-22.278c-12.542-23.29,1.313-79.146,34.642-76.412c23.654,1.935,32.61,27.351,31.447,47.842
				c-1.961,34.699,41.93,45.239,60.303,17.022c15.656-24.07-15.799-45.736-23.007-65.316
				c-11.769-32.033,25.768-34.342,44.912-24.436c19.616,10.136,37.03,33.665,36.985,56.317
				c-0.026,18.364-12.355,37.491-24.089,50.836c-10.198,11.592-25.349,20.077-31.988,34.66
				c-7.083,15.537,6.302,21.089,19.101,25.624c23.157,8.215,42.64-22.565,51.516-39.129c8.229-15.347,17.299-37.819,34.083-45.688
				c9.472-4.441,18.347-1.69,26.282,4.718c36.391,29.397-7.83,93.4-36.418,98.158c-28.598,4.757-75.25,26.112-66.941,36.813
				c12.054,15.537,23.156,6.621,38.388,4.588c11.529-1.539,31.545,2.872,21.23,17.801c-9.719,14.06-34.233,10.181-48.595,18.427
				c-5.672,3.249-14.112,16.127-12.08,24.115c4.021,15.711,33,13.039,42.418,5.814c18.063-13.855,73.27-74.7,91.688-31.714
				c4.784,11.166,3.346,36.054-3.408,46.194c-12.764,19.158-42.09,18.849-62.513,20.748c-9.143,0.852-18.231,1.374-27.338-0.085
				c-7.758-1.238-16.003-5.343-23.974-4.292c-7.883,1.035-18.772,10.82-20.326,18.586c-2.902,14.521,15.125,12.834,23.637,18.373
				c23.77,15.479-29.752,23.131-37.749,22.883c-25.678-0.772-49.989-11.047-75.826-10.784
				C1832.654,1085.712,1832.592,1085.712,1832.531,1085.712z"/>
			
				<path fill="#E6332A" stroke="#010202" stroke-width="4" stroke-linecap="round" stroke-linejoin="round" stroke-miterlimit="10" d="
				M1729.366,1121.331c-12.267,0.15-24.514,5.104-36.746,5.916c-10.802,0.705-16.952-9.093-11.476-18.227
				c4.313-7.199,12.08-10.967,19.154-14.876c4.446-2.455,14.111-6.019,12.905-12.64c-1.322-7.286-10.927-6.95-16.535-7.278
				c-11.016-0.656-48.241-8.201-43.644-25.717c4.465-17.087,28.102-11.375,38.397-5.117c6.86,4.167,13.634,15.647,22.394,15.194
				c10.207-0.54,15.604-14.981,4.385-19.118c-5.459-2.023-28.083-9.767-17.423-21.754c9.407-10.598,28.429,14.405,28.597,14.547
				c3.001,2.441,12.621,3.915,15.781,1.851c10.74-7.061-8.671-27.67-13.694-32.17c-5.512-4.939-11.459-8.539-18.151-11.61
				c-6.018-2.76-13.278-5.52-16.606-11.702c-6.586-12.235,0.691-41.569,18.195-40.142c12.426,1.021,17.131,14.371,16.518,25.138
				c-1.029,18.227,22.03,23.76,31.679,8.937c8.228-12.639-8.3-24.022-12.081-34.31c-6.186-16.824,13.536-18.03,23.591-12.833
				c10.297,5.325,19.449,17.685,19.422,29.582c-0.019,9.644-6.488,19.692-12.656,26.703c-5.353,6.089-13.314,10.545-16.803,18.204
				c-3.719,8.166,3.31,11.082,10.037,13.465c12.161,4.305,22.396-11.854,27.055-20.552c4.323-8.063,9.098-19.873,17.902-24.001
				c4.98-2.333,9.641-0.883,13.812,2.48c19.118,15.44-4.11,49.059-19.127,51.562c-15.019,2.502-39.525,13.712-35.167,19.336
				c6.329,8.161,12.169,3.483,20.166,2.41c6.054-0.813,16.57,1.509,11.157,9.35c-5.113,7.39-17.991,5.348-25.536,9.679
				c-2.974,1.709-7.411,8.468-6.347,12.667c2.113,8.254,17.345,6.848,22.288,3.053c9.488-7.278,38.485-39.236,48.16-16.655
				c2.521,5.861,1.767,18.937-1.793,24.262c-6.701,10.064-22.109,9.905-32.832,10.903c-4.801,0.444-9.576,0.725-14.361-0.048
				c-4.074-0.653-8.405-2.805-12.595-2.255c-4.145,0.541-9.861,5.681-10.677,9.759c-1.519,7.629,7.952,6.741,12.417,9.652
				c12.488,8.135-15.63,12.151-19.829,12.027c-13.491-0.408-26.255-5.805-39.824-5.663
				C1729.464,1121.331,1729.402,1121.331,1729.366,1121.331z"/>
			
				<path fill="#BE1622" stroke="#010202" stroke-width="4" stroke-linecap="round" stroke-linejoin="round" stroke-miterlimit="10" d="
				M1598.857,1143.965c-7.909,0.098-15.809,3.292-23.7,3.816c-6.958,0.462-10.926-5.857-7.401-11.752
				c2.786-4.638,7.793-7.069,12.354-9.594c2.867-1.581,9.098-3.88,8.316-8.14c-0.853-4.7-7.046-4.482-10.659-4.695
				c-7.101-0.427-31.102-5.286-28.146-16.58c2.884-11.02,18.125-7.331,24.764-3.303c4.42,2.689,8.796,10.093,14.441,9.791
				c6.567-0.338,10.056-9.648,2.822-12.32c-3.523-1.305-18.106-6.302-11.237-14.023c6.071-6.835,18.329,9.283,18.436,9.377
				c1.944,1.576,8.147,2.525,10.172,1.198c6.933-4.553-5.583-17.841-8.823-20.738c-3.56-3.187-7.394-5.502-11.698-7.482
				c-3.879-1.783-8.564-3.568-10.712-7.544c-4.243-7.887,0.452-26.806,11.732-25.882c8.015,0.656,11.051,9.258,10.651,16.207
				c-0.656,11.751,14.201,15.315,20.424,5.765c5.298-8.152-5.353-15.488-7.794-22.123c-3.984-10.847,8.726-11.627,15.223-8.277
				c6.64,3.439,12.532,11.411,12.524,19.075c-0.01,6.222-4.19,12.701-8.166,17.219c-3.452,3.919-8.583,6.799-10.838,11.734
				c-2.388,5.259,2.139,7.141,6.479,8.675c7.838,2.779,14.441-7.641,17.441-13.251c2.787-5.201,5.866-12.803,11.547-15.471
				c3.204-1.505,6.204-0.572,8.903,1.599c12.319,9.953-2.654,31.633-12.348,33.244c-9.683,1.61-25.473,8.835-22.66,12.466
				c4.074,5.264,7.848,2.236,12.995,1.558c3.905-0.52,10.687,0.968,7.189,6.027c-3.293,4.758-11.593,3.443-16.456,6.239
				c-1.917,1.096-4.784,5.454-4.092,8.165c1.367,5.321,11.185,4.416,14.371,1.976c6.114-4.696,24.816-25.301,31.056-10.74
				c1.606,3.781,1.127,12.209-1.153,15.635c-4.332,6.493-14.264,6.391-21.178,7.034c-3.098,0.284-6.169,0.467-9.258-0.03
				c-2.627-0.422-5.415-1.807-8.121-1.452c-2.672,0.347-6.355,3.666-6.88,6.294c-0.994,4.917,5.121,4.35,8.007,6.221
				c8.041,5.246-10.083,7.838-12.79,7.759c-8.689-0.271-16.926-3.746-25.669-3.657
				C1598.892,1143.965,1598.874,1143.965,1598.857,1143.965z"/>
		</g>
		
			<path clip-path="url(#SVGID_2_)" fill="#D45F14" stroke="#010202" stroke-width="4" stroke-linecap="round" stroke-linejoin="round" stroke-miterlimit="10" d="
			M219.638,1116.527c-7.593,0.093-15.166,3.161-22.74,3.662c-6.68,0.436-10.484-5.632-7.102-11.272
			c2.675-4.459,7.473-6.791,11.857-9.206c2.744-1.52,8.728-3.727,7.986-7.814c-0.82-4.515-6.768-4.302-10.23-4.505
			c-6.818-0.408-29.841-5.071-27.004-15.913c2.763-10.572,17.391-7.041,23.76-3.166c4.246,2.577,8.436,9.684,13.85,9.4
			c6.313-0.334,9.65-9.271,2.717-11.829c-3.385-1.251-17.373-6.044-10.781-13.455c5.83-6.56,17.585,8.913,17.696,8.996
			c1.858,1.512,7.811,2.429,9.757,1.146c6.643-4.366-5.357-17.118-8.469-19.899c-3.411-3.059-7.092-5.279-11.226-7.184
			c-3.718-1.706-8.214-3.416-10.271-7.24c-4.079-7.564,0.427-25.716,11.254-24.831c7.685,0.631,10.591,8.891,10.221,15.552
			c-0.64,11.272,13.622,14.702,19.597,5.524c5.085-7.814-5.135-14.86-7.477-21.224c-3.828-10.406,8.371-11.157,14.592-7.94
			c6.378,3.296,12.033,10.938,12.02,18.3c-0.01,5.97-4.02,12.181-7.829,16.515c-3.31,3.772-8.231,6.526-10.392,11.264
			c-2.3,5.048,2.049,6.854,6.211,8.329c7.522,2.67,13.854-7.338,16.732-12.714c2.68-4.992,5.627-12.293,11.083-14.852
			c3.073-1.441,5.96-0.547,8.542,1.534c11.82,9.553-2.545,30.352-11.838,31.899c-9.289,1.539-24.445,8.486-21.748,11.968
			c3.912,5.043,7.519,2.146,12.469,1.488c3.75-0.496,10.253,0.922,6.901,5.779c-3.156,4.57-11.129,3.31-15.792,5.989
			c-1.845,1.062-4.589,5.242-3.921,7.838c1.298,5.103,10.716,4.241,13.78,1.886c5.863-4.5,23.811-24.273,29.79-10.308
			c1.558,3.634,1.089,11.717-1.104,15.018c-4.144,6.225-13.674,6.118-20.312,6.739c-2.976,0.278-5.923,0.445-8.881-0.027
			c-2.521-0.403-5.209-1.734-7.796-1.4c-2.563,0.339-6.1,3.519-6.609,6.045c-0.937,4.718,4.922,4.171,7.685,5.97
			c7.723,5.033-9.669,7.518-12.265,7.435c-8.353-0.25-16.251-3.588-24.64-3.504C219.698,1116.527,219.656,1116.527,219.638,1116.527
			z"/>
	</g>
</g>
<g id="pivot" xmlns:dc="http://purl.org/dc/elements/1.1/" xmlns:rdf="http://www.w3.org/1999/02/22-rdf-syntax-ns#" xmlns:cc="http://creativecommons.org/ns#" xmlns:sodipodi="http://sodipodi.sourceforge.net/DTD/sodipodi-0.dtd" xmlns:svg="http://www.w3.org/2000/svg" xmlns:inkscape="http://www.inkscape.org/namespaces/inkscape" inkscape:version="0.91 r13725" sodipodi:docname="pivot-02.svg" display="none">
	<g id="zid">
		<rect id="rect7" display="inline" fill="#EDEBDD" width="1920" height="1080"/>
	</g>
	<g id="zunaj">
		<g id="zunaj_2_" display="inline">
			<g id="g11">
				<g id="g13">
					<g>
						<defs>
							<rect id="SVGID_5_" width="370.197" height="1080"/>
						</defs>
						<clipPath id="SVGID_4_">
							<use xlink:href="#SVGID_5_"  overflow="visible"/>
						</clipPath>
						<g id="g21" clip-path="url(#SVGID_4_)">
							<g id="g23">
								<rect id="rect25" x="-2.334" y="131.959" fill="none" width="243.568" height="963.198"/>
							</g>
							<g id="g27">
								
									<path id="path29" fill="#57B2E5" stroke="#000000" stroke-width="3" stroke-linecap="round" stroke-linejoin="round" stroke-miterlimit="10" d="
									M408.211,884.429V-17.318H-34.145V897.64C69.58,894.362,355.508,874.438,408.211,884.429z"/>
								
									<path id="path31" fill="#B8B5B5" stroke="#000000" stroke-width="3" stroke-linecap="round" stroke-linejoin="round" stroke-miterlimit="10" d="
									M-2.334,669.634c16.279,2.486,34.182-9.228,47.799-17.979c22.082-14.189,52.781-36.726,67.682-61.172
									c8.33-13.671,11.939-31.067,19.969-45.301c10.758-19.066,27.197-32.627,41.484-48.297
									c8.805-9.657,36.48-55.834,46.898-51.124c13.273,6.002,22.527,46.682,33.746,59.673
									c6.945,8.044,15.707,14.104,23.291,21.372c8.992,8.623,13.758,17.968,20.951,28.857
									c10.605,16.061,22.354,24.009,38.744,29.726c12.699,4.432,44.662,9.409,47.695,23.687
									c2.781,13.085,9.904,68.227,9.904,81.703c0,40.664-41.461,33.781-45.82,74.202c-4.188,38.854,1.791,80.892-4.303,118.916
									c-41.059,3.098-83.105,0.227-124.313,0.227c-18.148,0-35.275,3.586-53.115,4.524c-21.637,1.138-42.422-10.72-63.24-16.633
									c-18.232-5.179-30.064-17.364-45.811-30.209c-8.371-6.826-17.961-12.248-25.35-20.338
									c-15.924-17.436-10.188-52.72-13.279-75.927c-2.492-18.696-0.906-38.337-3.523-56.744
									c-1.516-10.67-1.506-15.093-12.941-13.165"/>
								
									<path id="path33" fill="#B8B5B5" stroke="#000000" stroke-width="3" stroke-linecap="round" stroke-linejoin="round" stroke-miterlimit="10" d="
									M-91.801,569.302c-11.857,5.538-26.814,9.709-39.762,14.716c-15.354,5.938-23.48,12.37-35.764,19.87
									c-18.109,11.062-38.162,16.532-66.141,20.471c-21.684,3.051-20.973,1.514-26.152,11.344
									c-4.746,9.01-4.436,20.631-4.436,29.91c0,28,3.035,54.574,10.477,82.406c7.15,26.757-3.059,55.7,7.346,81.886
									c70.09,2.133,141.869,0.153,212.213,0.153c30.982,0,60.219,2.471,90.674,3.115c36.938,0.784,72.422-7.38,107.955-11.451
									c31.125-3.564,51.326-11.958,78.205-20.802c14.289-4.701,30.66-8.434,43.273-14.004
									c27.186-12.006,17.389-36.302,22.67-52.282c6.949-21.041,12.752-43.805-13.498-53.505
									c-27.313-10.093-58.016-12.813-85.695-22.226c-36.865-12.54-76.723-26.305-105.969-49.225
									c-23.451-18.376-40.768-36.639-67.793-52.771c-16.42-9.804-52.959-32.479-74.326-28.135
									C-61.223,533.39-72.035,560.069-91.801,569.302z"/>
								
									<path id="path35" fill="#39A935" stroke="#000000" stroke-width="3" stroke-linecap="round" stroke-linejoin="round" stroke-miterlimit="10" d="
									M125.645,667.006c52.199,9.396,98.514-18.8,143.146-30.586s116.313,7.652,116.313,7.652v186.281H-2.646V683.519v-24.253
									C38.979,655.59,83.02,659.337,125.645,667.006z"/>
								
									<path id="path37" fill="#93C01F" stroke="#000000" stroke-width="3" stroke-linecap="round" stroke-linejoin="round" stroke-miterlimit="10" d="
									M101.07,740.315C64.953,743.637-2.646,728.128-2.646,728.128v417.169h393.525l7.428-387.363l-7.428-26.254
									c-21.008-1.854-91.807-8.493-135.797,0.922C203.895,739.491,121.395,733.16,101.07,740.315z"/>
								
									<path id="path39" fill="#0073B3" stroke="#000000" stroke-width="3" stroke-linecap="round" stroke-linejoin="round" stroke-miterlimit="10" d="
									M395.832,932.587c0,0-21.617-18.958-33.77-24.229c-8.789-3.815-21.83-0.449-31.396-1.611
									c-13.605-1.646-28.158,3.203-41.867,3.438c-17.043,0.292-33.363-11.188-50.59-9.039c-9.191,1.147-18.293,5.267-27.271,7.082
									c-29.684,6.011-46.275-8.882-70.98-16.442c-19.545-5.984-43.754,1.168-63.188,4.778
									c-25.834,4.803-52.539,3.565-79.264,3.506c-17.678-0.041-27.332-1.638-37.32,15.001
									c-18.936,31.546-16.66,69.911-34.688,101.833c-14.082,24.931-32.367,115.463,8.48,123.001
									c12.736,2.349,26.189-0.396,39.189-0.182c8.332,0.142,14.053,2.187,20.693,6.661c7.9,5.323,14.246,10.393,23.535,13.417
									c20.762,6.771,40.971,6.101,62.193,10.771c25.639,5.638,51.201,11.773,77.6,13.818c25.771,1.994,30.855,7.328,43.189,32.479
									c9.209,18.776,219.385-63.935,219.385-63.935L395.832,932.587z"/>
							</g>
							<g id="g41">
								
									<path id="path43" stroke="#282828" stroke-width="3" stroke-linecap="round" stroke-linejoin="round" stroke-miterlimit="10" d="
									M71.023,464.629"/>
							</g>
							<g id="g45">
								
									<path id="path47" stroke="#282828" stroke-width="3" stroke-linecap="round" stroke-linejoin="round" stroke-miterlimit="10" d="
									M48.375,464.629"/>
							</g>
							<g id="g49">
								
									<path id="path51" fill="#785C37" stroke="#000000" stroke-width="3" stroke-linecap="round" stroke-linejoin="round" stroke-miterlimit="10" d="
									M89.668,404.813c-26.689-15.729-65.865-25.524-88.281-30.196c0.025-0.064,0.061-0.125,0.076-0.193
									c0.021-0.092,0.021-0.188,0.039-0.281c22.697,2.737,58.215,4.688,87.455-6.069c3.07-1.131,2.779-3.504-0.652-5.304
									c-3.438-1.801-8.711-2.342-11.783-1.207c-30.244,11.119-67.797,6.483-86.244,3.636c-1.137-0.315-2.33-0.595-3.574-0.813
									c-145.852-25.712-310.635,4.323-317.574,5.613c-7.523,1.399-9.313,5.784-3.994,9.797c3.012,2.272,7.664,3.938,12.498,4.701
									c3.695,0.582,7.496,0.637,10.758,0.032c1.602-0.297,161.459-29.362,294.658-5.907c0.096,0.018,0.195,0.028,0.291,0.045
									c5.475,0.911,61.848,10.616,94.287,29.733c1.498,0.883,3.451,1.508,5.447,1.823c2.266,0.355,4.584,0.316,6.352-0.214
									C92.752,409.02,92.859,406.689,89.668,404.813z"/>
								
									<path id="path53" fill="#39A935" stroke="#000000" stroke-width="3" stroke-linecap="round" stroke-linejoin="round" stroke-miterlimit="10" d="
									M70.707,372.514c-0.988-10.729,2.094-19.141,9.176-25.014c9.783-8.109,24.531-9.566,31.248-9.789
									c-3.43,14.206-8.766,24.389-15.879,30.283C85.324,376.229,74.59,373.803,70.707,372.514z"/>
								
									<path id="path55" fill="#39A935" stroke="#000000" stroke-width="3" stroke-linecap="round" stroke-linejoin="round" stroke-miterlimit="10" d="
									M79.625,405.295c7.068-4.336,13.918-5.066,20.383-2.181c8.926,3.991,14.951,13.675,17.387,18.232
									c-10.969,2.468-19.811,2.25-26.301-0.651C82.035,416.648,80.055,408.412,79.625,405.295z"/>
								
									<path id="path57" fill="#39A935" stroke="#000000" stroke-width="3" stroke-linecap="round" stroke-linejoin="round" stroke-miterlimit="10" d="
									M35.5,383.287c8.258,0.756,14.184,4.268,17.637,10.447c4.764,8.539,3.799,19.9,3.023,25.013
									c-10.264-4.585-17.221-10.048-20.686-16.257C30.639,393.827,33.979,386.043,35.5,383.287z"/>
								
									<path id="path59" fill="#39A935" stroke="#000000" stroke-width="3" stroke-linecap="round" stroke-linejoin="round" stroke-miterlimit="10" d="
									M71.061,362.839c8.014-2.144,14.787-0.896,20.16,3.716c7.42,6.368,10.436,17.367,11.473,22.433
									c-11.217-0.761-19.631-3.488-25.025-8.118C70.137,374.404,70.586,365.945,71.061,362.839z"/>
							</g>
							<g id="g61">
								
									<path id="path63" fill="#785C37" stroke="#000000" stroke-width="3" stroke-linecap="round" stroke-linejoin="round" stroke-miterlimit="10" d="
									M58.449,246.143c-30.447,5.721-66.395,24.121-86.35,35.354c-0.021-0.065-0.037-0.136-0.066-0.197
									c-0.047-0.084-0.107-0.157-0.156-0.239c18.893-12.873,46.918-34.772,61.859-62.113c1.568-2.872-0.213-4.469-3.979-3.563
									c-3.773,0.907-8.104,3.968-9.67,6.841c-15.457,28.276-46.783,49.496-62.549,59.49c-1.064,0.51-2.146,1.085-3.23,1.736
									c-126.748,76.608-231.066,207.653-235.443,213.19c-4.744,6.007-3.205,10.484,3.438,10.004
									c3.762-0.269,8.361-2.075,12.504-4.683c3.168-1.994,6.064-4.453,8.121-7.055c1.01-1.274,102.264-128.352,217.996-198.333
									c0.086-0.049,0.166-0.108,0.248-0.161c4.725-2.914,53.561-32.699,90.568-39.647c1.705-0.318,3.59-1.136,5.303-2.211
									c1.939-1.223,3.658-2.779,4.641-4.34C63.539,247.285,62.09,245.46,58.449,246.143z"/>
								
									<path id="path65" fill="#39A935" stroke="#000000" stroke-width="3" stroke-linecap="round" stroke-linejoin="round" stroke-miterlimit="10" d="
									M22.369,231.939c-6.092-5.633-8.65-12.028-7.619-19.031c1.424-9.674,9.111-18.094,12.846-21.674
									c5.342,9.89,7.527,18.461,6.488,25.49C32.643,226.543,25.25,230.682,22.369,231.939z"/>
								
									<path id="path67" fill="#39A935" stroke="#000000" stroke-width="3" stroke-linecap="round" stroke-linejoin="round" stroke-miterlimit="10" d="
									M51.625,255.52c-3.271-7.619-3.008-14.502,0.783-20.483c5.232-8.257,15.686-12.82,20.553-14.574
									c0.857,11.207-0.633,19.929-4.443,25.931C63.207,254.771,54.77,255.546,51.625,255.52z"/>
								
									<path id="path69" fill="#39A935" stroke="#000000" stroke-width="3" stroke-linecap="round" stroke-linejoin="round" stroke-miterlimit="10" d="
									M-11.918,272.596c6.264-5.441,12.898-7.291,19.75-5.502c9.461,2.471,16.992,11.031,20.145,15.133
									c-10.416,4.23-19.172,5.471-26.051,3.674C-7.674,283.395-10.982,275.596-11.918,272.596z"/>
								
									<path id="path71" fill="#39A935" stroke="#000000" stroke-width="3" stroke-linecap="round" stroke-linejoin="round" stroke-miterlimit="10" d="
									M50.938,254.438c3.41-7.56,8.662-12.013,15.631-13.258c9.631-1.716,20.055,2.907,24.631,5.313
									c-7.686,8.2-15.119,12.989-22.119,14.237C59.313,262.475,53.043,256.775,50.938,254.438z"/>
								
									<path id="path73" fill="#39A935" stroke="#000000" stroke-width="3" stroke-linecap="round" stroke-linejoin="round" stroke-miterlimit="10" d="
									M26.107,231.482c-7.85,2.678-14.693,1.889-20.363-2.351c-7.832-5.853-11.582-16.621-12.957-21.606
									c11.24,0.004,19.82,2.158,25.51,6.416C26.248,219.878,26.371,228.35,26.107,231.482z"/>
							</g>
							<g id="g75">
								
									<path id="path77" fill="#785C37" stroke="#000000" stroke-width="3" stroke-linecap="round" stroke-linejoin="round" stroke-miterlimit="10" d="
									M24.699,495.316C17.271,465.24-3.125,430.39-15.465,411.1c0.063-0.028,0.133-0.045,0.189-0.08
									c0.082-0.049,0.152-0.114,0.232-0.17c13.918,18.139,37.363,44.886,65.502,58.264c2.957,1.401,4.449-0.467,3.334-4.178
									c-1.119-3.715-4.418-7.862-7.375-9.268c-29.104-13.839-52.055-43.92-62.922-59.096c-0.568-1.032-1.205-2.081-1.916-3.127
									c-83.635-122.229-220.352-218.992-226.129-223.051c-6.262-4.396-10.648-2.608-9.793,3.998
									c0.48,3.741,2.545,8.23,5.379,12.221c2.17,3.051,4.789,5.802,7.502,7.712c1.33,0.937,133.91,94.862,210.309,206.465
									c0.053,0.083,0.117,0.161,0.174,0.239c3.18,4.553,35.668,51.632,44.691,88.188c0.416,1.687,1.336,3.521,2.508,5.17
									c1.33,1.866,2.98,3.496,4.594,4.389C23.848,500.463,25.588,498.912,24.699,495.316z"/>
								
									<path id="path79" fill="#39A935" stroke="#000000" stroke-width="3" stroke-linecap="round" stroke-linejoin="round" stroke-miterlimit="10" d="
									M36.846,458.491c5.281-6.396,11.523-9.313,18.572-8.682c9.736,0.88,18.578,8.08,22.365,11.604
									c-9.574,5.89-18.012,8.557-25.088,7.916C42.813,468.444,38.266,461.298,36.846,458.491z"/>
								
									<path id="path81" fill="#39A935" stroke="#000000" stroke-width="3" stroke-linecap="round" stroke-linejoin="round" stroke-miterlimit="10" d="
									M14.852,489.216c10.77-5.357,20.76-5.544,29.732-0.543c12.387,6.907,19.854,21.67,22.789,28.574
									c-16.162,2.163-28.914,0.716-37.92-4.313C16.881,505.928,15.068,493.774,14.852,489.216z"/>
								
									<path id="path83" fill="#39A935" stroke="#000000" stroke-width="3" stroke-linecap="round" stroke-linejoin="round" stroke-miterlimit="10" d="
									M-0.924,430.477c8.002,2.19,13.223,6.688,15.535,13.381c3.193,9.238,0.25,20.256-1.408,25.153
									C3.9,462.694-1.986,456.096-4.313,449.377C-7.555,439.998-2.9,432.92-0.924,430.477z"/>
								
									<path id="path85" fill="#39A935" stroke="#000000" stroke-width="3" stroke-linecap="round" stroke-linejoin="round" stroke-miterlimit="10" d="
									M12.889,486.457c7.738,2.979,12.48,7.972,14.117,14.859c2.256,9.517-1.773,20.184-3.916,24.89
									c-8.621-7.209-13.822-14.363-15.461-21.281C5.336,495.271,10.67,488.689,12.889,486.457z"/>
							</g>
							<g id="g87">
								<g id="g89">
									
										<path id="path91" fill="#785C37" stroke="#000000" stroke-width="3" stroke-linecap="round" stroke-linejoin="round" stroke-miterlimit="10" d="
										M204.818,305.884c-29.934-7.983-72.154-6.771-72.166-6.864c22.602-3.458,36.334-10.121,61.609-28.335
										c2.654-1.914,1.738-4.121-2.053-4.933c-3.793-0.813-9.02,0.083-11.674,2c-26.145,18.836-53.564,24.458-72.098,26.669
										c-1.18,0.001-2.404,0.053-3.66,0.175c-147.4,14.41-298.061,87.604-304.398,90.71c-6.871,3.369-7.416,8.074-1.215,10.511
										c3.512,1.381,8.439,1.733,13.301,1.172c3.717-0.434,7.393-1.4,10.371-2.857c1.463-0.716,147.639-71.649,282.242-84.838
										c0.098-0.01,0.197-0.025,0.295-0.037c5.518-0.592,52.426-6.384,88.807,3.318c1.68,0.446,3.73,0.524,5.738,0.293
										c2.277-0.269,4.5-0.929,6.061-1.912C208.92,309.109,208.396,306.837,204.818,305.884z"/>
									
										<path id="path93" fill="#39A935" stroke="#000000" stroke-width="3" stroke-linecap="round" stroke-linejoin="round" stroke-miterlimit="10" d="
										M184.148,275.188c-1.797-10.812,0.705-19.567,7.451-26.053c9.324-8.955,24.176-11.527,30.971-12.249
										c-2.42,14.665-7.076,25.39-13.854,31.897C199.254,277.874,188.184,276.211,184.148,275.188z"/>
									
										<path id="path95" fill="#39A935" stroke="#000000" stroke-width="3" stroke-linecap="round" stroke-linejoin="round" stroke-miterlimit="10" d="
										M-15.346,379.936c-1.797-10.812,0.705-19.566,7.451-26.053c9.324-8.956,24.178-11.526,30.973-12.249
										C20.656,356.299,16,367.021,9.223,373.531C-0.24,382.621-11.311,380.958-15.346,379.936z"/>
									
										<path id="path97" fill="#39A935" stroke="#000000" stroke-width="3" stroke-linecap="round" stroke-linejoin="round" stroke-miterlimit="10" d="
										M-34.172,369.861c10.311-3.715,19.375-2.832,26.969,2.638c10.488,7.558,15.691,21.704,17.627,28.258
										c-14.861,0.261-26.25-2.389-33.873-7.883C-34.094,385.203-34.451,374.016-34.172,369.861z"/>
									
										<path id="path99" fill="#39A935" stroke="#000000" stroke-width="3" stroke-linecap="round" stroke-linejoin="round" stroke-miterlimit="10" d="
										M87.123,311.257c-8.049,1.99-14.799,0.618-20.084-4.091c-7.305-6.506-10.113-17.559-11.057-22.641
										c11.201,0.968,19.563,3.851,24.869,8.58C88.264,299.707,87.658,308.154,87.123,311.257z"/>
									
										<path id="path101" fill="#39A935" stroke="#000000" stroke-width="3" stroke-linecap="round" stroke-linejoin="round" stroke-miterlimit="10" d="
										M193.371,309.902c1.438-8.166,5.428-13.781,11.875-16.709c8.902-4.041,20.145-2.137,25.176-0.938
										c-5.42,9.852-11.443,16.327-17.916,19.265C203.471,315.62,195.99,311.646,193.371,309.902z"/>
									
										<path id="path103" fill="#39A935" stroke="#000000" stroke-width="3" stroke-linecap="round" stroke-linejoin="round" stroke-miterlimit="10" d="
										M193.316,308.449c7.559-3.413,14.445-3.28,20.494,0.395c8.357,5.078,13.119,15.439,14.965,20.271
										c-11.189,1.071-19.938-0.252-26.01-3.944C194.287,320.016,193.354,311.596,193.316,308.449z"/>
									
										<path id="path105" fill="#39A935" stroke="#000000" stroke-width="3" stroke-linecap="round" stroke-linejoin="round" stroke-miterlimit="10" d="
										M88.438,308.368c5.363-6.325,11.643-9.16,18.684-8.436c9.729,1.005,18.471,8.323,22.211,11.896
										c-9.65,5.768-18.119,8.322-25.189,7.592C94.27,318.4,89.818,311.195,88.438,308.368z"/>
									
										<path id="path107" fill="#39A935" stroke="#000000" stroke-width="3" stroke-linecap="round" stroke-linejoin="round" stroke-miterlimit="10" d="
										M186.563,276.116c-5.906-3.892-8.957-8.917-9.066-14.957c-0.152-8.345,5.146-16.503,7.785-20.039
										c5.883,7.58,8.918,14.489,9.025,20.554C194.461,270.143,188.814,274.654,186.563,276.116z"/>
								</g>
								
									<path id="path109" fill="#39A935" stroke="#000000" stroke-width="3" stroke-linecap="round" stroke-linejoin="round" stroke-miterlimit="10" d="
									M87.727,310.3c-2.822-7.798-2.16-14.653,1.971-20.403c5.709-7.938,16.406-11.89,21.365-13.356
									c0.205,11.241-1.789,19.858-5.939,25.63C99.33,310.229,90.867,310.508,87.727,310.3z"/>
							</g>
							<g id="g111">
								
									<path id="path113" fill="#B17F49" stroke="#1D1D1B" stroke-width="3" stroke-linecap="round" stroke-linejoin="round" stroke-miterlimit="10" d="
									M77.273,883.816c0,10.935-15.818,19.798-35.332,19.798c-19.512,0-35.33-8.863-35.33-19.798s15.818-28.022,35.33-28.022
									C61.455,855.794,77.273,872.884,77.273,883.816z"/>
								
									<path id="path115" fill="#925F36" stroke="#1D1D1B" stroke-width="3" stroke-linecap="round" stroke-linejoin="round" stroke-miterlimit="10" d="
									M88.334,895.579c0,6.757-9.775,12.233-21.834,12.233s-21.834-5.479-21.834-12.233c0-6.758,9.775-17.318,21.834-17.318
									S88.334,888.821,88.334,895.579z"/>
							</g>
						</g>
					</g>
				</g>
				<g id="g117">
					<g>
						<defs>
							<rect id="SVGID_7_" width="370.197" height="1080"/>
						</defs>
						<clipPath id="SVGID_6_">
							<use xlink:href="#SVGID_7_"  overflow="visible"/>
						</clipPath>
						<g id="g125" clip-path="url(#SVGID_6_)">
							
								<rect id="rect127" x="52.765" y="680.317" transform="matrix(-0.1393 0.9903 -0.9903 -0.1393 763.5302 747.6547)" fill="#683B11" stroke="#000000" stroke-width="3" stroke-linecap="round" stroke-linejoin="round" stroke-miterlimit="10" width="8.131" height="50.688"/>
							
								<rect id="rect129" x="350.059" y="667.388" transform="matrix(-0.1391 0.9903 -0.9903 -0.1391 1089.3916 438.4327)" fill="#683B11" stroke="#000000" stroke-width="3" stroke-linecap="round" stroke-linejoin="round" stroke-miterlimit="10" width="8.132" height="50.696"/>
							
								<rect id="rect131" x="100.57" y="679.284" transform="matrix(0.208 0.9781 -0.9781 0.208 771.7585 455.0309)" fill="#683B11" stroke="#000000" stroke-width="3" stroke-linecap="round" stroke-linejoin="round" stroke-miterlimit="10" width="8.648" height="49.595"/>
							
								<rect id="rect133" x="152.17" y="668.423" transform="matrix(0.0699 0.9976 -0.9976 0.0699 840.0659 491.923)" fill="#683B11" stroke="#000000" stroke-width="3" stroke-linecap="round" stroke-linejoin="round" stroke-miterlimit="10" width="8.132" height="56.058"/>
							
								<rect id="rect135" x="199.471" y="676.432" transform="matrix(-0.1391 0.9903 -0.9903 -0.1391 924.8808 595.6185)" fill="#683B11" stroke="#000000" stroke-width="3" stroke-linecap="round" stroke-linejoin="round" stroke-miterlimit="10" width="8.134" height="46.806"/>
							
								<rect id="rect137" x="6.31" y="675.654" transform="matrix(-0.1393 0.9902 -0.9902 -0.1393 704.0608 786.1786)" fill="#683B11" stroke="#000000" stroke-width="3" stroke-linecap="round" stroke-linejoin="round" stroke-miterlimit="10" width="8.134" height="46.805"/>
							
								<rect id="rect139" x="247.955" y="671.513" transform="matrix(0.1739 0.9848 -0.9848 0.1739 895.1541 328.0923)" fill="#683B11" stroke="#000000" stroke-width="3" stroke-linecap="round" stroke-linejoin="round" stroke-miterlimit="10" width="8.131" height="52.164"/>
							
								<rect id="rect141" x="298.655" y="663.472" transform="matrix(0.087 0.9962 -0.9962 0.087 965.2476 329.7443)" fill="#683B11" stroke="#000000" stroke-width="3" stroke-linecap="round" stroke-linejoin="round" stroke-miterlimit="10" width="8.129" height="56.05"/>
							
								<rect id="rect143" x="52.763" y="698.908" transform="matrix(-0.1393 0.9903 -0.9903 -0.1393 781.9449 768.8357)" fill="#683B11" stroke="#000000" stroke-width="3" stroke-linecap="round" stroke-linejoin="round" stroke-miterlimit="10" width="8.135" height="50.698"/>
							
								<rect id="rect145" x="350.073" y="685.948" transform="matrix(-0.1393 0.9902 -0.9902 -0.1393 1107.8408 459.714)" fill="#683B11" stroke="#000000" stroke-width="3" stroke-linecap="round" stroke-linejoin="round" stroke-miterlimit="10" width="8.134" height="50.697"/>
							
								<rect id="rect147" x="100.606" y="697.852" transform="matrix(0.2077 0.9782 -0.9782 0.2077 790.0224 469.8999)" fill="#683B11" stroke="#000000" stroke-width="3" stroke-linecap="round" stroke-linejoin="round" stroke-miterlimit="10" width="8.651" height="49.594"/>
							
								<rect id="rect149" x="152.152" y="686.984" transform="matrix(0.0697 0.9976 -0.9976 0.0697 858.6026 509.3348)" fill="#683B11" stroke="#000000" stroke-width="3" stroke-linecap="round" stroke-linejoin="round" stroke-miterlimit="10" width="8.133" height="56.055"/>
							
								<rect id="rect151" x="199.471" y="695.016" transform="matrix(-0.1391 0.9903 -0.9903 -0.1391 943.2847 616.7869)" fill="#683B11" stroke="#000000" stroke-width="3" stroke-linecap="round" stroke-linejoin="round" stroke-miterlimit="10" width="8.134" height="46.806"/>
							
								<rect id="rect153" x="6.285" y="694.191" transform="matrix(-0.139 0.9903 -0.9903 -0.139 722.4174 807.0991)" fill="#683B11" stroke="#000000" stroke-width="3" stroke-linecap="round" stroke-linejoin="round" stroke-miterlimit="10" width="8.135" height="46.805"/>
							
								<rect id="rect155" x="247.881" y="690.073" transform="matrix(0.1734 0.9849 -0.9849 0.1734 913.5734 343.8617)" fill="#683B11" stroke="#000000" stroke-width="3" stroke-linecap="round" stroke-linejoin="round" stroke-miterlimit="10" width="8.131" height="52.158"/>
							
								<rect id="rect157" x="298.654" y="682.057" transform="matrix(0.087 0.9962 -0.9962 0.087 983.7644 346.7195)" fill="#683B11" stroke="#000000" stroke-width="3" stroke-linecap="round" stroke-linejoin="round" stroke-miterlimit="10" width="8.13" height="56.05"/>
							
								<rect id="rect159" x="52.762" y="717.493" transform="matrix(-0.1393 0.9903 -0.9903 -0.1393 800.3456 790.0212)" fill="#683B11" stroke="#000000" stroke-width="3" stroke-linecap="round" stroke-linejoin="round" stroke-miterlimit="10" width="8.134" height="50.697"/>
							
								<rect id="rect161" x="350.074" y="704.532" transform="matrix(-0.1393 0.9903 -0.9903 -0.1393 1126.2295 480.8416)" fill="#683B11" stroke="#000000" stroke-width="3" stroke-linecap="round" stroke-linejoin="round" stroke-miterlimit="10" width="8.134" height="50.697"/>
							
								<rect id="rect163" x="100.599" y="716.418" transform="matrix(0.2077 0.9782 -0.9782 0.2077 808.178 484.6169)" fill="#683B11" stroke="#000000" stroke-width="3" stroke-linecap="round" stroke-linejoin="round" stroke-miterlimit="10" width="8.651" height="49.594"/>
							
								<rect id="rect165" x="152.152" y="705.566" transform="matrix(0.0697 0.9976 -0.9976 0.0697 877.1382 526.617)" fill="#683B11" stroke="#000000" stroke-width="3" stroke-linecap="round" stroke-linejoin="round" stroke-miterlimit="10" width="8.132" height="56.057"/>
							
								<rect id="rect167" x="199.49" y="713.579" transform="matrix(-0.1393 0.9902 -0.9902 -0.1393 961.7112 638.0925)" fill="#683B11" stroke="#000000" stroke-width="3" stroke-linecap="round" stroke-linejoin="round" stroke-miterlimit="10" width="8.134" height="46.805"/>
							
								<rect id="rect169" x="6.289" y="712.836" transform="matrix(-0.1391 0.9903 -0.9903 -0.1391 740.8761 828.4009)" fill="#683B11" stroke="#000000" stroke-width="3" stroke-linecap="round" stroke-linejoin="round" stroke-miterlimit="10" width="8.133" height="46.804"/>
							
								<rect id="rect171" x="247.918" y="708.671" transform="matrix(0.1736 0.9848 -0.9848 0.1736 931.8398 359.0518)" fill="#683B11" stroke="#000000" stroke-width="3" stroke-linecap="round" stroke-linejoin="round" stroke-miterlimit="10" width="8.132" height="52.158"/>
							
								<rect id="rect173" x="298.679" y="700.706" transform="matrix(0.0869 0.9962 -0.9962 0.0869 1002.418 363.8176)" fill="#683B11" stroke="#000000" stroke-width="3" stroke-linecap="round" stroke-linejoin="round" stroke-miterlimit="10" width="8.132" height="56.05"/>
							<g id="g175">
								<g id="g177">
									<g id="g179">
										<path id="path181" fill="#683B11" d="M38.174,746.222c0,1.562-1.275,2.835-2.836,2.835h-2.459
											c-1.561,0-2.834-1.273-2.834-2.835V695.84c0-1.56,1.273-2.835,2.834-2.835h2.459c1.561,0,2.836,1.275,2.836,2.835V746.222
											z"/>
										
											<path id="path183" fill="none" stroke="#000000" stroke-width="3" stroke-linecap="round" stroke-linejoin="round" stroke-miterlimit="10" d="
											M38.174,746.222c0,1.562-1.275,2.835-2.836,2.835h-2.459c-1.561,0-2.834-1.273-2.834-2.835V695.84
											c0-1.56,1.273-2.835,2.834-2.835h2.459c1.561,0,2.836,1.275,2.836,2.835V746.222z"/>
									</g>
									<g id="g185">
										<path id="path187" fill="#683B11" d="M83.41,752.654c0,1.56-1.275,2.835-2.836,2.835h-2.463
											c-1.561,0-2.836-1.275-2.836-2.835V702.27c0-1.561,1.275-2.836,2.836-2.836h2.463c1.561,0,2.836,1.275,2.836,2.836
											V752.654z"/>
										
											<path id="path189" fill="none" stroke="#000000" stroke-width="3" stroke-linecap="round" stroke-linejoin="round" stroke-miterlimit="10" d="
											M83.41,752.654c0,1.56-1.275,2.835-2.836,2.835h-2.463c-1.561,0-2.836-1.275-2.836-2.835V702.27
											c0-1.561,1.275-2.836,2.836-2.836h2.463c1.561,0,2.836,1.275,2.836,2.836V752.654z"/>
									</g>
									<g id="g191">
										<path id="path193" fill="#683B11" d="M185.658,739.255c0,1.562-1.275,2.835-2.834,2.835h-2.465
											c-1.559,0-2.834-1.273-2.834-2.835V688.87c0-1.562,1.275-2.835,2.834-2.835h2.465c1.559,0,2.834,1.273,2.834,2.835
											V739.255z"/>
										
											<path id="path195" fill="none" stroke="#000000" stroke-width="3" stroke-linecap="round" stroke-linejoin="round" stroke-miterlimit="10" d="
											M185.658,739.255c0,1.562-1.275,2.835-2.834,2.835h-2.465c-1.559,0-2.834-1.273-2.834-2.835V688.87
											c0-1.562,1.275-2.835,2.834-2.835h2.465c1.559,0,2.834,1.273,2.834,2.835V739.255z"/>
									</g>
									<g id="g197">
										<path id="path199" fill="#683B11" d="M132.938,743.005c0,1.562-1.273,2.835-2.834,2.835h-2.461
											c-1.559,0-2.834-1.273-2.834-2.835v-50.381c0-1.56,1.275-2.835,2.834-2.835h2.461c1.561,0,2.834,1.275,2.834,2.835
											V743.005z"/>
										
											<path id="path201" fill="none" stroke="#000000" stroke-width="3" stroke-linecap="round" stroke-linejoin="round" stroke-miterlimit="10" d="
											M132.938,743.005c0,1.562-1.273,2.835-2.834,2.835h-2.461c-1.559,0-2.834-1.273-2.834-2.835v-50.381
											c0-1.56,1.275-2.835,2.834-2.835h2.461c1.561,0,2.834,1.275,2.834,2.835V743.005z"/>
									</g>
									<g id="g203">
										<path id="path205" fill="#683B11" d="M230.916,746.153c0,1.56-1.275,2.835-2.834,2.835h-2.465
											c-1.561,0-2.834-1.275-2.834-2.835V695.77c0-1.561,1.273-2.836,2.834-2.836h2.465c1.559,0,2.834,1.275,2.834,2.836
											V746.153z"/>
										
											<path id="path207" fill="none" stroke="#000000" stroke-width="3" stroke-linecap="round" stroke-linejoin="round" stroke-miterlimit="10" d="
											M230.916,746.153c0,1.56-1.275,2.835-2.834,2.835h-2.465c-1.561,0-2.834-1.275-2.834-2.835V695.77
											c0-1.561,1.273-2.836,2.834-2.836h2.465c1.559,0,2.834,1.275,2.834,2.836V746.153z"/>
									</g>
									<g id="g209">
										<path id="path211" fill="#683B11" d="M333.164,732.754c0,1.562-1.275,2.835-2.834,2.835h-2.463
											c-1.561,0-2.836-1.273-2.836-2.835v-50.385c0-1.562,1.275-2.835,2.836-2.835h2.463c1.559,0,2.834,1.273,2.834,2.835
											V732.754z"/>
										
											<path id="path213" fill="none" stroke="#000000" stroke-width="3" stroke-linecap="round" stroke-linejoin="round" stroke-miterlimit="10" d="
											M333.164,732.754c0,1.562-1.275,2.835-2.834,2.835h-2.463c-1.561,0-2.836-1.273-2.836-2.835v-50.385
											c0-1.562,1.275-2.835,2.836-2.835h2.463c1.559,0,2.834,1.273,2.834,2.835V732.754z"/>
									</g>
									<g id="g215">
										<path id="path217" fill="#683B11" d="M280.443,736.504c0,1.562-1.273,2.835-2.834,2.835h-2.463
											c-1.559,0-2.834-1.273-2.834-2.835v-50.381c0-1.56,1.275-2.835,2.834-2.835h2.463c1.561,0,2.834,1.275,2.834,2.835
											V736.504z"/>
										
											<path id="path219" fill="none" stroke="#000000" stroke-width="3" stroke-linecap="round" stroke-linejoin="round" stroke-miterlimit="10" d="
											M280.443,736.504c0,1.562-1.273,2.835-2.834,2.835h-2.463c-1.559,0-2.834-1.273-2.834-2.835v-50.381
											c0-1.56,1.275-2.835,2.834-2.835h2.463c1.561,0,2.834,1.275,2.834,2.835V736.504z"/>
									</g>
								</g>
							</g>
						</g>
					</g>
				</g>
				<g id="g221">
					<g>
						<defs>
							<rect id="SVGID_9_" width="370.197" height="1080"/>
						</defs>
						<clipPath id="SVGID_8_">
							<use xlink:href="#SVGID_9_"  overflow="visible"/>
						</clipPath>
						
							<path id="path229" clip-path="url(#SVGID_8_)" fill="#785C37" stroke="#000000" stroke-width="3" stroke-linecap="round" stroke-linejoin="round" stroke-miterlimit="10" d="
							M-110.441,965.929c1.119,41.983,3.014,84.927-1.82,125.949c-3.18,26.99-9.416,44.571,18.316,49.701
							c27.631,5.107,58.971,0.01,87.02,0.01c40.697,0,93.014,15.08,131.941,1.193c-10.668-37.829-37.324-68.735-54.213-102.502
							c-18.324-36.626-30.336-72.612-39.443-114.773c-9.568-44.313-14.969-83.598-19.219-129.067
							c-4.09-43.674-14.475-89.484-17.73-134.5c-4.775-65.956-4.031-134.902-9.324-200.575c-2.021-25.146-5.234-50.081-7.807-75.127
							c-1.652-16.107,1.311-55.664-7.029-68.149c-10.777-16.129-62.852-16.2-76.734-5.857c-16.973,12.631-8.934,64.496-8.934,88.341
							c0,29.921,0.076,59.83,0.025,89.745c-0.066,31.881-6.846,61.438-7.32,93.061c-0.986,65.175-0.227,130.639,0.074,195.825
							C-122.348,842.332-112.111,903.315-110.441,965.929z"/>
					</g>
				</g>
			</g>
		</g>
	</g>
	<g id="zavesa">
		<g id="g232" display="inline">
			<g>
				<defs>
					<rect id="SVGID_11_" width="420" height="1080"/>
				</defs>
				<clipPath id="SVGID_10_">
					<use xlink:href="#SVGID_11_"  overflow="visible"/>
				</clipPath>
				<g id="g240" clip-path="url(#SVGID_10_)">
					
						<rect id="rect242" x="-11.424" y="7.65" fill="#C10000" stroke="#000000" stroke-width="3.0599" stroke-linecap="round" stroke-linejoin="round" stroke-miterlimit="10" width="265.153" height="195.453"/>
					<g id="g244">
						
							<path id="path246" fill="#C10000" stroke="#000000" stroke-width="3.0599" stroke-linecap="round" stroke-linejoin="round" stroke-miterlimit="10" d="
							M367.848,9.779H219.426c0,205.479,65.022,438.718,71.116,635.096c7.701,248.193,3.293,437.513,3.293,437.513h93.482V9.779
							H367.848z"/>
					</g>
					
						<rect id="rect248" x="282.053" y="592.918" fill="#C10000" stroke="#000000" stroke-width="3" stroke-linecap="round" stroke-linejoin="round" stroke-miterlimit="10" width="109.73" height="51.417"/>
					
						<path id="path250" fill="none" stroke="#000000" stroke-width="3" stroke-linecap="round" stroke-linejoin="round" stroke-miterlimit="10" d="
						M302.57,36.355c0,0-8.064,170.663,25.586,331.094"/>
					
						<rect id="rect252" x="-5.501" y="-7.969" fill="#785C37" stroke="#000000" stroke-width="3" stroke-linecap="round" stroke-linejoin="round" stroke-miterlimit="10" width="414.707" height="43.159"/>
				</g>
			</g>
		</g>
	</g>
	<g id="pohistvo">
		<g id="pohistvo_1_" display="inline">
			<g id="g256">
				<g id="g258">
					<g>
						<defs>
							<rect id="SVGID_13_" width="1919.998" height="1080"/>
						</defs>
						<clipPath id="SVGID_12_">
							<use xlink:href="#SVGID_13_"  overflow="visible"/>
						</clipPath>
						<g id="g266" clip-path="url(#SVGID_12_)">
							<g id="g268">
								<g id="g270">
									<g id="g272">
										
											<path id="path274" fill="#E2BB93" stroke="#000000" stroke-width="3" stroke-linecap="round" stroke-linejoin="round" stroke-miterlimit="10" d="
											M1229.001,667.896c-6.129-10.008-30.92-47.004-42.66-55.942c-7.277-5.539-16.229-10.241-27.799-13.895
											c-16.506-5.209-30.873-5.55-46.922-8.784l-0.277-13.545c56.596-4.754,63.156-55.035,63.156-55.035
											s11.479,2.611,14.498-12.406c3.059-15.209-14.865-20.16-14.865-20.16s-6.479-68.339-65.85-67.253
											c-6.166,0.112-11.955,0.499-17.439,1.109c-5.482-0.61-11.273-0.997-17.439-1.109
											c-59.363-1.086-41.072,59.826-64.289,71.398c-0.504,0.243-0.75,0.402-0.75,0.402c-5.129-1.541-18.975,3.648-15.002,17.896
											c4.109,14.762,15.387,12.229,15.387,12.229s4.926,46.313,58.701,52.62l-0.504,13.108
											c-16.35,3.408-33.9,4.207-50.771,9.527c-11.566,3.651-20.52,8.354-27.797,13.895
											c-11.744,8.938-36.535,45.937-42.662,55.94c-5.559,9.084,1.205,32.956,1.205,32.956l3.301,7.772
											c0,0,25.275,12.514,24.488,2.271c-0.33-4.346-2.387-26.018-2.504-31.388c-0.145-6.632,10.498-16.165,14.082-21.29
											c11.492-16.43,14.797-23.438,43.217-27.898c3.338-0.526,8.98,42.063,12.547,74.813h90.613
											c3.568-32.751,9.211-75.342,12.547-74.813c28.42,4.463,31.73,11.471,43.217,27.898c3.584,5.125,14.23,14.658,14.088,21.29
											c-0.119,5.37-7.18,33.042-7.514,37.388c-0.785,10.24,24.492-2.271,24.492-2.271l8.299-13.772
											C1227.794,700.851,1234.558,676.979,1229.001,667.896z"/>
									</g>
									
										<path id="path276" fill="none" stroke="#000000" stroke-width="3" stroke-linecap="round" stroke-linejoin="round" stroke-miterlimit="10" d="
										M1060.687,546.785c16.848,24.563,56.512,15.168,66.512-0.782"/>
									
										<line id="line278" fill="none" stroke="#000000" stroke-width="3" stroke-linecap="round" stroke-linejoin="round" stroke-miterlimit="10" x1="1092.423" y1="532.293" x2="1096.451" y2="532.033"/>
									<g id="g280">
										
											<path id="path282" fill="#FFFFFF" stroke="#000000" stroke-width="3" stroke-linecap="round" stroke-linejoin="round" stroke-miterlimit="10" d="
											M1066.736,501.97c1.061,4.199-2.172,8.638-7.215,9.901c-5.053,1.268-9.992-1.108-11.049-5.311
											c-1.055-4.197,2.178-8.631,7.223-9.895C1060.736,495.399,1065.685,497.77,1066.736,501.97z"/>
										
											<path id="path284" stroke="#000000" stroke-width="3" stroke-linecap="round" stroke-linejoin="round" stroke-miterlimit="10" d="
											M1060.441,507.467c0.424,1.647-0.693,3.342-2.467,3.797c-1.805,0.45-3.586-0.521-3.998-2.174
											c-0.412-1.636,0.699-3.328,2.494-3.783C1058.257,504.861,1060.042,505.825,1060.441,507.467z"/>
									</g>
									<g id="g286">
										
											<path id="path288" fill="#FFFFFF" stroke="#000000" stroke-width="3" stroke-linecap="round" stroke-linejoin="round" stroke-miterlimit="10" d="
											M1135.359,503.679c1.053,4.202-2.18,8.638-7.223,9.904c-5.047,1.271-9.986-1.113-11.049-5.313
											c-1.055-4.198,2.18-8.627,7.229-9.894C1129.357,497.111,1134.302,499.483,1135.359,503.679z"/>
										
											<path id="path290" stroke="#000000" stroke-width="3" stroke-linecap="round" stroke-linejoin="round" stroke-miterlimit="10" d="
											M1129.062,509.18c0.418,1.648-0.695,3.347-2.477,3.796c-1.799,0.452-3.582-0.52-3.996-2.172
											c-0.408-1.636,0.703-3.329,2.496-3.778C1126.875,506.573,1128.658,507.537,1129.062,509.18z"/>
									</g>
									
										<path id="path292" fill="#D45F14" stroke="#000000" stroke-width="3" stroke-linecap="round" stroke-linejoin="round" stroke-miterlimit="10" d="
										M1108.412,481.729"/>
									
										<path id="path294" fill="#D45F14" stroke="#000000" stroke-width="3" stroke-linecap="round" stroke-linejoin="round" stroke-miterlimit="10" d="
										M1171.232,473.759c-6.16-17.538,3.967-58.16-66.779-59.879c-1.668-4.154,1.439-4.813,0.475-8.404
										c-4.43,1.078-13.973,3.269-14.918,8.582c-0.447,0.021-0.895,0.041-1.34,0.065c-0.949-2.406-1.547-5.089-1.205-7.545
										c-1.479,2.105-7.426,7.89-7.344,10.708c-53.693,0-74.893,52.188-71.01,74.986c0.627,3.678,12.848-13.624,14.402-10.544
										c3.523,6.985,16.494-3.527,21.924-1.313c5.428,2.226,9.84,3.553,12.74,3.553c5.805,0,12.031-7.414,23.309-7.405
										c11.459,0.011,13.912,5.691,22.83,5.691c8.92,0,5.305-5.639,11.609-5.482c6.449,0.151,13.951,6.116,17.906,8.521
										c4.887,2.972,15.514,6.94,15.367-0.046c-0.146-6.985,10.291-1.796,14.242-1.548
										C1167.623,483.963,1174.55,478.548,1171.232,473.759z"/>
								</g>
								<g id="g296">
									
										<path id="path298" fill="#E69F00" stroke="#000100" stroke-width="3" stroke-linecap="round" stroke-linejoin="round" stroke-miterlimit="10" d="
										M1160.056,636.036l16.809,15.37l20.559-32.587c0,0-9.211-17.076-45.584-25.767c-5.736-1.369-20.607,0.111-21.332,1.77
										c-6.885,15.722-18.467,25.798-41.664,25.054c-23.025,0.737-34.602-9.178-41.504-24.694
										c-0.785-1.768-15.848-3.521-21.646-2.206c-36.533,8.294-46.584,23.869-46.584,23.869l20.555,32.588l17.961-13.396
										l-7.186,77.104h156.805L1160.056,636.036z"/>
								</g>
								<g id="g300">
									
										<path id="path302" fill="#FFFFFF" stroke="#000000" stroke-width="3" stroke-linecap="round" stroke-linejoin="round" stroke-miterlimit="10" d="
										M1152.746,697.517l15.334,0.109l-1.162-13.556h-13.84c0.512-14.409,1.932-90.524,1.932-90.524l-25.854-3.309
										c0,59.071,8.977,68.839-39.896,68.839c-48.865,0-40.988-9.645-40.988-68.714l-26.836,3.184c0,0,2.855,76.124,2.775,90.524
										h-13.982l-2.166,13.444h15.984c-0.049,2.496-0.113,5.047-0.189,7.617h128.855
										C1152.703,702.566,1152.712,700.017,1152.746,697.517z"/>
								</g>
							</g>
							
								<rect id="rect304" x="505.529" y="723.216" fill="#C9BEAF" stroke="#70674B" stroke-miterlimit="10" width="776.4" height="359.171"/>
							
								<rect id="rect306" x="505.197" y="876.93" fill="#785C37" stroke="#000000" stroke-width="3" stroke-linecap="round" stroke-linejoin="round" stroke-miterlimit="10" width="783.429" height="13.157"/>
							
								<rect id="rect308" x="505.197" y="1031.125" fill="#785C37" stroke="#000000" stroke-width="3" stroke-linecap="round" stroke-linejoin="round" stroke-miterlimit="10" width="789.066" height="13.157"/>
							<g id="g310">
								
									<rect id="rect312" x="462.918" y="696.968" fill="#785C37" stroke="#000000" stroke-width="3" stroke-linecap="round" stroke-linejoin="round" stroke-miterlimit="10" width="856.429" height="26.316"/>
							</g>
							<g id="g314">
								
									<rect id="rect316" x="502.504" y="444.024" stroke="#000000" stroke-width="3" stroke-linecap="round" stroke-linejoin="round" stroke-miterlimit="10" width="252.207" height="8.46"/>
								
									<circle id="circle318" stroke="#000000" stroke-width="3" stroke-linecap="round" stroke-linejoin="round" stroke-miterlimit="10" cx="502.504" cy="448.254" r="11.01"/>
								
									<circle id="circle320" stroke="#000000" stroke-width="3" stroke-linecap="round" stroke-linejoin="round" stroke-miterlimit="10" cx="754.713" cy="448.254" r="11.009"/>
							</g>
							
								<path id="path322" fill="#58595B" stroke="#000000" stroke-width="3" stroke-linecap="round" stroke-linejoin="round" stroke-miterlimit="10" d="
								M596.42,520.993"/>
							
								<rect id="rect324" x="460.918" y="348.265" fill="#785C37" stroke="#000000" stroke-width="3" stroke-linecap="round" stroke-linejoin="round" stroke-miterlimit="10" width="858.429" height="13.156"/>
							
								<path id="path326" stroke="#000000" stroke-width="3" stroke-linecap="round" stroke-linejoin="round" stroke-miterlimit="10" d="
								M503.898,361.978c0,4.86-3.939,8.804-8.804,8.804c-4.86,0-8.803-3.941-8.803-8.804H503.898z"/>
							
								<path id="path328" stroke="#000000" stroke-width="3" stroke-linecap="round" stroke-linejoin="round" stroke-miterlimit="10" d="
								M897.316,361.978c0,4.86-3.941,8.804-8.804,8.804c-4.861,0-8.803-3.941-8.803-8.804H897.316z"/>
							
								<rect id="rect330" x="460.918" y="189.499" fill="#785C37" stroke="#000000" stroke-width="3" stroke-linecap="round" stroke-linejoin="round" stroke-miterlimit="10" width="858.429" height="13.157"/>
							
								<path id="path332" stroke="#000000" stroke-width="3" stroke-linecap="round" stroke-linejoin="round" stroke-miterlimit="10" d="
								M503.898,203.212c0,4.861-3.939,8.803-8.804,8.803c-4.86,0-8.803-3.94-8.803-8.803H503.898z"/>
							
								<path id="path334" stroke="#000000" stroke-width="3" stroke-linecap="round" stroke-linejoin="round" stroke-miterlimit="10" d="
								M1290.732,361.978c0,4.86-3.939,8.804-8.803,8.804c-4.861,0-8.803-3.941-8.803-8.804H1290.732z"/>
							
								<path id="path336" stroke="#000000" stroke-width="3" stroke-linecap="round" stroke-linejoin="round" stroke-miterlimit="10" d="
								M1290.732,203.212c0,4.861-3.939,8.803-8.803,8.803c-4.861,0-8.803-3.94-8.803-8.803H1290.732z"/>
							
								<path id="path338" stroke="#000000" stroke-width="3" stroke-linecap="round" stroke-linejoin="round" stroke-miterlimit="10" d="
								M897.316,203.212c0,4.861-3.941,8.803-8.804,8.803c-4.861,0-8.803-3.94-8.803-8.803H897.316z"/>
							
								<rect id="rect340" x="518.947" y="688.776" stroke="#000000" stroke-width="3" stroke-linecap="round" stroke-linejoin="round" stroke-miterlimit="10" width="295.205" height="16.475"/>
						</g>
					</g>
				</g>
			</g>
		</g>
	</g>
	<g id="AREA1" transform="translate(-29.502633,5.4808424)" inkscape:label="#AREA1" display="inline">
		<circle id="circle372" fill="#FFFF00" cx="130.162" cy="319.478" r="7.857"/>
		<circle id="circle374" fill="#FFFF00" cx="1278.774" cy="311.621" r="7.857"/>
		<circle id="circle376" fill="#FFFF00" cx="371.943" cy="338.822" r="7.857"/>
		<circle id="circle380" fill="#FFFF00" cx="159.984" cy="452.007" r="7.857"/>
		<circle id="circle382" fill="#FFFF00" cx="820.71" cy="426.632" r="7.857"/>
		<circle id="circle382_1_" fill="#FFFF00" cx="618.456" cy="402.108" r="7.857"/>
		<circle id="circle386" fill="#FFFF00" cx="952.205" cy="358.108" r="7.857"/>
		<circle id="circle402" fill="#FFFF00" cx="1163.623" cy="382.109" r="7.857"/>
		<circle id="circle402_2_" fill="#FFFF00" cx="1060.639" cy="468.775" r="7.857"/>
		<circle id="circle406" fill="#FFFF00" cx="1305.787" cy="468.775" r="7.857"/>
	</g>
	<g id="spredaj">
		<g id="spredaj_1_" display="inline">
			
				<rect id="rect447" x="848.389" y="723.216" fill="#785C37" stroke="#000000" stroke-width="3" stroke-linecap="round" stroke-linejoin="round" stroke-miterlimit="10" width="26.316" height="389.172"/>
			
				<rect id="rect449" x="1072.08" y="723.216" fill="#785C37" stroke="#000000" stroke-width="3" stroke-linecap="round" stroke-linejoin="round" stroke-miterlimit="10" width="26.316" height="389.172"/>
			
				<rect id="rect451" x="479.214" y="723.216" fill="#785C37" stroke="#000000" stroke-width="3" stroke-linecap="round" stroke-linejoin="round" stroke-miterlimit="10" width="26.316" height="389.172"/>
			
				<rect id="rect453" x="1275.771" y="723.216" fill="#785C37" stroke="#000000" stroke-width="3" stroke-linecap="round" stroke-linejoin="round" stroke-miterlimit="10" width="26.316" height="389.172"/>
			<g id="g455">
				
					<line id="line457" fill="none" stroke="#000000" stroke-width="3" stroke-linecap="round" stroke-linejoin="round" stroke-miterlimit="10" x1="875.265" y1="858.244" x2="1071.755" y2="858.244"/>
				
					<line id="line459" fill="none" stroke="#000000" stroke-width="3" stroke-linecap="round" stroke-linejoin="round" stroke-miterlimit="10" x1="875.265" y1="834.436" x2="1071.755" y2="834.436"/>
				
					<line id="line461" fill="none" stroke="#000000" stroke-width="3" stroke-linecap="round" stroke-linejoin="round" stroke-miterlimit="10" x1="875.265" y1="810.627" x2="1071.755" y2="810.627"/>
				
					<line id="line463" fill="none" stroke="#000000" stroke-width="3" stroke-linecap="round" stroke-linejoin="round" stroke-miterlimit="10" x1="887.626" y1="810.626" x2="887.626" y2="876.149"/>
				
					<line id="line465" fill="none" stroke="#000000" stroke-width="3" stroke-linecap="round" stroke-linejoin="round" stroke-miterlimit="10" x1="909.093" y1="810.626" x2="909.093" y2="876.149"/>
				
					<line id="line467" fill="none" stroke="#000000" stroke-width="3" stroke-linecap="round" stroke-linejoin="round" stroke-miterlimit="10" x1="930.56" y1="810.626" x2="930.56" y2="876.149"/>
				
					<line id="line469" fill="none" stroke="#000000" stroke-width="3" stroke-linecap="round" stroke-linejoin="round" stroke-miterlimit="10" x1="952.026" y1="810.626" x2="952.026" y2="876.149"/>
				
					<line id="line471" fill="none" stroke="#000000" stroke-width="3" stroke-linecap="round" stroke-linejoin="round" stroke-miterlimit="10" x1="973.494" y1="810.626" x2="973.494" y2="876.149"/>
				
					<line id="line473" fill="none" stroke="#000000" stroke-width="3" stroke-linecap="round" stroke-linejoin="round" stroke-miterlimit="10" x1="994.96" y1="810.626" x2="994.96" y2="876.149"/>
				
					<line id="line475" fill="none" stroke="#000000" stroke-width="3" stroke-linecap="round" stroke-linejoin="round" stroke-miterlimit="10" x1="1016.427" y1="810.626" x2="1016.427" y2="876.149"/>
				
					<line id="line477" fill="none" stroke="#000000" stroke-width="3" stroke-linecap="round" stroke-linejoin="round" stroke-miterlimit="10" x1="1037.894" y1="810.626" x2="1037.894" y2="876.149"/>
				
					<line id="line479" fill="none" stroke="#000000" stroke-width="3" stroke-linecap="round" stroke-linejoin="round" stroke-miterlimit="10" x1="1059.361" y1="810.626" x2="1059.361" y2="876.149"/>
			</g>
			
				<rect id="rect481" x="874.973" y="983.988" opacity="0.5" fill="#68ABC8" stroke="#000000" stroke-width="3" stroke-linecap="round" stroke-linejoin="round" stroke-miterlimit="10" enable-background="new    " width="197.148" height="47.521"/>
		</g>
		
			<path id="path483" display="inline" fill="#93C01F" stroke="#000000" stroke-width="3.3766" stroke-linecap="round" stroke-linejoin="round" stroke-miterlimit="10" d="
			M294.437,828.748c-6.249-2.532-13.293-3.964-20.752-3.964c-6.45,0-12.581,1.083-18.165,3.009
			c-2.299-8.648-9.877-15.005-18.894-15.005c-7.616,0-14.213,4.531-17.466,11.147c-2.668-1.414-5.684-2.218-8.882-2.218
			c-10.839,0-19.625,9.173-19.625,20.488c0,0.967,0.087,1.911,0.211,2.843c-15.538,6.127-26.249,19.063-26.25,34.032
			c-0.001,28.768,29.117,36.521,52.229,35.739c11.487-0.39,21.368-5.252,32.901-6.884c9.692-1.369,17.903-1.247,27.268,1.534
			c7.795,2.315,13.529,4.265,18.04,4.243C294.979,887.695,294.791,859.233,294.437,828.748z"/>
	</g>
	<g id="AREA3" transform="translate(0.38884549,0.36212323)" inkscape:label="#AREA3" display="inline">
		<circle id="circle348-3" fill="#2A39FF" cx="284.405" cy="694.109" r="7.857"/>
		<circle id="circle269" inkscape:label="#circle356" fill="#2A39FF" cx="134.177" cy="716.755" r="7.857">
		</circle>
		<circle id="circle269_1_" inkscape:label="#circle356" fill="#2A39FF" cx="92.413" cy="583.877" r="7.857">
		</circle>
		<circle id="circle380-6" fill="#2A39FF" cx="265.742" cy="526.65" r="7.857"/>
		<circle id="circle382-0" fill="#2A39FF" cx="668.975" cy="519.983" r="7.857"/>
		<circle id="circle384-7" fill="#2A39FF" cx="407.908" cy="444.983" r="7.857"/>
		<circle id="circle386-3" fill="#2A39FF" cx="893.158" cy="519.983" r="7.857"/>
		<circle id="circle390-6" fill="#2A39FF" cx="543.079" cy="555.65" r="7.857"/>
		<circle id="circle390-6_1_" fill="#2A39FF" cx="608.577" cy="842.89" r="7.857"/>
		<circle id="circle392-4" fill="#2A39FF" cx="434.994" cy="642.316" r="7.857"/>
		<circle id="circle394-2" fill="#2A39FF" cx="618.576" cy="683.983" r="7.857"/>
		<circle id="circle396-5" fill="#2A39FF" cx="775.493" cy="622.316" r="7.857"/>
		<circle id="circle400-4" fill="#2A39FF" cx="932.658" cy="668.983" r="7.857"/>
		<circle id="circle402-1" fill="#2A39FF" cx="1073.966" cy="593.507" r="7.857"/>
		<circle id="circle404-5" fill="#2A39FF" cx="1204.823" cy="623.983" r="7.857"/>
		<circle id="circle406-7" fill="#2A39FF" cx="1256.74" cy="760.65" r="7.857"/>
	</g>
	<g id="AREA2" display="inline">
		<circle id="circle326" inkscape:label="#circle356" fill="#FF2A2A" cx="108.517" cy="991.214" r="7.857">
		</circle>
		<circle id="circle376-8-9" fill="#FF2A2A" cx="334.583" cy="902.776" r="7.857"/>
		<circle id="circle378-2-9" fill="#FF2A2A" cx="769.833" cy="757.776" r="7.857"/>
		<circle id="circle380-6-1" fill="#FF2A2A" cx="200.083" cy="851.109" r="7.857"/>
		<circle id="circle382-0-5" fill="#FF2A2A" cx="775.331" cy="894.443" r="7.857"/>
		<circle id="circle384-7-1" fill="#FF2A2A" cx="442.248" cy="789.443" r="7.857"/>
		<circle id="circle386-3-2" fill="#FF2A2A" cx="917.497" cy="863.443" r="7.857"/>
		<circle id="circle386-3-2_1_" fill="#FF2A2A" cx="1066.5" cy="742.062" r="7.857"/>
		<circle id="circle390-6-9" fill="#FF2A2A" cx="487.418" cy="950.109" r="7.857"/>
		<circle id="circle392-4-0" fill="#FF2A2A" cx="364.334" cy="1020.109" r="7.857"/>
		<circle id="circle396-5-9" fill="#FF2A2A" cx="669.833" cy="1016.776" r="7.857"/>
		<circle id="circle400-4-0" fill="#FF2A2A" cx="956.998" cy="993.443" r="7.857"/>
		<circle id="circle402-1-9" fill="#FF2A2A" cx="1108.914" cy="868.443" r="7.857"/>
		<circle id="circle404-5-0" fill="#FF2A2A" cx="1149.164" cy="1028.443" r="7.857"/>
		<circle id="circle406-7-2" fill="#FF2A2A" cx="1261.08" cy="935.109" r="7.857"/>
	</g>
</g>
</svg>
