<?xml version="1.0" encoding="utf-8"?>
<!-- Generator: Adobe Illustrator 16.0.0, SVG Export Plug-In . SVG Version: 6.00 Build 0)  -->
<!DOCTYPE svg PUBLIC "-//W3C//DTD SVG 1.1//EN" "http://www.w3.org/Graphics/SVG/1.1/DTD/svg11.dtd">
<svg version="1.1" xmlns="http://www.w3.org/2000/svg" xmlns:xlink="http://www.w3.org/1999/xlink" x="0px" y="0px"
	 width="1919.999px" height="1080px" viewBox="2448.246 0 1919.999 1080" enable-background="new 2448.246 0 1919.999 1080"
	 xml:space="preserve">
<g id="Layer_2">
</g>
<g id="Layer_3">
	<g>
		<defs>
			<rect id="SVGID_3_" x="2448.246" width="1919.999" height="1080"/>
		</defs>
		<clipPath id="SVGID_2_">
			<use xlink:href="#SVGID_3_"  overflow="visible"/>
		</clipPath>
		<rect x="2448.246" clip-path="url(#SVGID_2_)" fill="#65A2D8" width="1919.999" height="1080"/>
		
			<path clip-path="url(#SVGID_2_)" fill="#FFFFFF" stroke="#010202" stroke-width="4" stroke-linecap="round" stroke-linejoin="round" stroke-miterlimit="10" d="
			M4020.468,801.992c-10.174-20.979-31.561-32.857-53.46-31.957c4.854-13.802,4.422-29.449-2.474-43.645
			c-13.686-28.227-47.66-40.002-75.884-26.316c-19.189,9.311-30.751,28.014-31.9,47.896c-0.465-0.521-0.989-1.01-1.474-1.523
			c-3.647-16.209-14.325-30.67-30.416-38.526c-20.959-10.235-45.119-6.38-61.792,7.837c-4.689-13.85-14.693-25.898-28.868-32.809
			c-28.186-13.761-62.185-2.066-75.952,26.119c-9.359,19.164-6.92,41.019,4.447,57.371c-4.889-0.885-9.923-1.375-15.067-1.375
			c-46.531,0-84.25,37.729-84.25,84.254s37.719,84.244,84.25,84.244c4.389,0,8.704-0.336,12.909-0.977
			c10.562,34.458,42.626,59.52,80.563,59.52c16.644,0,32.143-4.842,45.202-13.168c36.084,22.773,84.269,14.996,111.173-19.313
			c2.105-2.688,3.996-5.473,5.732-8.322c29.523,5.064,60.813-5.822,80.588-31.047c10.96-13.971,16.779-30.311,17.788-46.779
			C4024.304,857.83,4032.874,827.568,4020.468,801.992z"/>
		
			<path clip-path="url(#SVGID_2_)" fill="#FFFFFF" stroke="#010202" stroke-width="4" stroke-linecap="round" stroke-linejoin="round" stroke-miterlimit="10" d="
			M2836.298,1248.753c16.184,33.37,50.201,52.266,85.037,50.833c-7.721,21.954-7.033,46.844,3.934,69.424
			c21.77,44.899,75.813,63.63,120.707,41.861c30.523-14.811,48.914-44.561,50.742-76.188c0.74,0.829,1.574,1.605,2.346,2.423
			c5.801,25.783,22.785,48.786,48.381,61.283c33.34,16.281,71.77,10.148,98.291-12.466c7.459,22.029,23.373,41.195,45.92,52.188
			c44.834,21.889,98.916,3.287,120.814-41.547c14.889-30.484,11.008-65.247-7.074-91.259c7.777,1.407,15.785,2.188,23.967,2.188
			c74.018,0,134.016-60.014,134.016-134.021s-59.998-134.005-134.016-134.005c-6.98,0-13.844,0.534-20.533,1.554
			c-16.801-54.812-67.805-94.677-128.15-94.677c-26.475,0-51.129,7.702-71.902,20.946c-57.396-36.225-134.043-23.854-176.838,30.72
			c-3.35,4.275-6.357,8.705-9.119,13.238c-46.963-8.056-96.732,9.261-128.189,49.385c-17.434,22.224-26.689,48.215-28.295,74.411
			C2830.197,1159.934,2816.566,1208.069,2836.298,1248.753z"/>
		
			<path clip-path="url(#SVGID_2_)" fill="#FFFFFF" stroke="#010202" stroke-width="4" stroke-linecap="round" stroke-linejoin="round" stroke-miterlimit="10" d="
			M2928.414-125.873c-31.009-19.196-69.204-16.977-97.383,2.547c-5.143-22.292-18.815-42.601-39.813-55.584
			c-41.713-25.823-96.453-12.927-122.271,28.78c-17.559,28.372-17.17,62.758-2.039,89.985c-1.052-0.299-2.15-0.504-3.226-0.78
			c-18.381-18.359-44.604-28.516-72.437-25.421c-36.258,4.031-64.947,29.352-75.058,62.091
			c-17.799-14.365-41.096-21.903-65.609-19.166c-48.76,5.427-83.882,49.347-78.461,98.103c3.677,33.155,25.201,59.984,53.916,72.063
			c-7.205,2.929-14.266,6.493-21.063,10.802c-61.467,38.963-79.697,120.391-40.738,181.851
			c38.957,61.456,120.369,79.702,181.836,40.738c5.798-3.675,11.216-7.735,16.241-12.105
			c42.807,36.674,106.15,42.931,156.258,11.167c21.985-13.937,38.404-33.312,48.684-55.247
			c66.736-0.133,123.877-50.754,130.687-118.605c0.53-5.311,0.702-10.58,0.604-15.793C2941.784,151.522,2974,110.94,2979,61.057
			c2.783-27.628-3.209-54.094-15.672-76.689C2980.242-55.329,2966.226-102.472,2928.414-125.873z"/>
		
			<path clip-path="url(#SVGID_2_)" fill="#FFFFFF" stroke="#010202" stroke-width="4" stroke-linecap="round" stroke-linejoin="round" stroke-miterlimit="10" d="
			M3604.714,413.403c-10.18-20.981-31.556-32.857-53.466-31.96c4.859-13.799,4.428-29.446-2.463-43.645
			c-13.686-28.224-47.666-39.998-75.885-26.313c-4.14,2.008-7.921,4.455-11.322,7.253c-15.693-9.066-33.907-14.256-53.334-14.256
			c-23.113,0-44.51,7.346-61.986,19.827c-5.049-12.639-14.618-23.521-27.813-29.953c-28.185-13.758-62.185-2.066-75.952,26.122
			c-9.359,19.163-6.92,41.017,4.452,57.372c-4.894-0.885-9.927-1.377-15.072-1.377c-46.53,0-84.254,37.731-84.254,84.257
			c0,46.523,37.724,84.244,84.254,84.244c4.389,0,8.705-0.336,12.909-0.977c10.563,34.455,42.627,59.52,80.56,59.52
			c16.647,0,32.146-4.842,45.206-13.168c36.09,22.772,84.274,14.994,111.179-19.313c2.104-2.687,3.996-5.473,5.728-8.324
			c29.523,5.065,60.812-5.819,80.593-31.046c10.95-13.969,16.779-30.312,17.778-46.778
			C3608.55,469.244,3617.124,438.981,3604.714,413.403z"/>
		
			<path clip-path="url(#SVGID_2_)" fill="#FFFFFF" stroke="#010202" stroke-width="4" stroke-linecap="round" stroke-linejoin="round" stroke-miterlimit="10" d="
			M2866.63,728.421c-7.08-14.594-21.947-22.854-37.188-22.229c3.38-9.598,3.08-20.481-1.713-30.357
			c-9.519-19.631-33.153-27.82-52.781-18.302c-2.879,1.396-5.509,3.099-7.875,5.045c-10.915-6.306-23.584-9.915-37.096-9.915
			c-16.076,0-30.959,5.108-43.114,13.79c-3.512-8.791-10.167-16.359-19.345-20.833c-19.604-9.569-43.252-1.438-52.828,18.169
			c-6.51,13.327-4.813,28.527,3.098,39.903c-3.404-0.615-6.905-0.958-10.484-0.958c-32.363,0-58.602,26.243-58.602,58.604
			c0,32.359,26.238,58.596,58.602,58.596c3.053,0,6.056-0.233,8.979-0.68c7.347,23.965,29.648,41.398,56.032,41.398
			c11.579,0,22.359-3.367,31.443-9.159c25.102,15.84,58.615,10.43,77.328-13.433c1.465-1.869,2.78-3.806,3.984-5.789
			c20.535,3.522,42.297-4.049,56.056-21.595c7.616-9.716,11.671-21.082,12.365-32.535
			C2869.298,767.26,2875.261,746.211,2866.63,728.421z"/>
		
			<path clip-path="url(#SVGID_2_)" fill="#FFFFFF" stroke="#010202" stroke-width="4" stroke-linecap="round" stroke-linejoin="round" stroke-miterlimit="10" d="
			M4603.295,533.208c-8.912-18.368-27.626-28.765-46.807-27.98c4.254-12.08,3.876-25.778-2.156-38.209
			c-11.981-24.708-41.729-35.017-66.434-23.036c-3.624,1.757-6.935,3.899-9.912,6.35c-13.739-7.937-29.685-12.48-46.691-12.48
			c-20.234,0-38.966,6.431-54.266,17.357c-4.421-11.065-12.798-20.591-24.349-26.222c-24.675-12.044-54.439-1.809-66.492,22.868
			c-8.194,16.776-6.059,35.908,3.897,50.226c-4.284-0.775-8.69-1.206-13.195-1.206c-40.735,0-73.761,33.032-73.761,73.763
			c0,40.729,33.025,73.752,73.761,73.752c3.842,0,7.621-0.294,11.302-0.855c9.246,30.164,37.317,52.106,70.525,52.106
			c14.574,0,28.143-4.238,39.576-11.527c31.595,19.937,73.778,13.127,97.331-16.908c1.843-2.352,3.499-4.791,5.015-7.287
			c25.846,4.435,53.237-5.095,70.555-27.18c9.587-12.229,14.689-26.536,15.564-40.952
			C4606.654,582.095,4614.159,555.601,4603.295,533.208z"/>
		
			<path clip-path="url(#SVGID_2_)" fill="#FFFFFF" stroke="#010202" stroke-width="4" stroke-linecap="round" stroke-linejoin="round" stroke-miterlimit="10" d="
			M4197.436,78.475c-10.18-20.981-31.556-32.857-53.466-31.96c4.859-13.799,4.428-29.446-2.463-43.645
			c-13.686-28.224-47.666-39.998-75.885-26.313c-4.14,2.008-7.921,4.455-11.322,7.253c-15.693-9.066-33.907-14.256-53.334-14.256
			c-23.113,0-44.51,7.346-61.986,19.827c-5.049-12.639-14.618-23.521-27.813-29.953c-28.185-13.758-62.185-2.066-75.952,26.122
			c-9.359,19.163-6.92,41.017,4.452,57.372c-4.894-0.885-9.927-1.377-15.072-1.377c-46.53,0-84.254,37.731-84.254,84.257
			c0,46.523,37.724,84.244,84.254,84.244c4.389,0,8.705-0.336,12.909-0.977c10.563,34.455,42.627,59.52,80.56,59.52
			c16.647,0,32.146-4.842,45.206-13.168c36.09,22.772,84.274,14.994,111.179-19.313c2.104-2.687,3.996-5.473,5.728-8.324
			c29.523,5.065,60.812-5.819,80.593-31.046c10.95-13.969,16.779-30.312,17.778-46.778
			C4201.272,134.316,4209.845,104.053,4197.436,78.475z"/>
	</g>
</g>
<g id="pivot" xmlns:dc="http://purl.org/dc/elements/1.1/" xmlns:rdf="http://www.w3.org/1999/02/22-rdf-syntax-ns#" xmlns:cc="http://creativecommons.org/ns#" xmlns:sodipodi="http://sodipodi.sourceforge.net/DTD/sodipodi-0.dtd" xmlns:svg="http://www.w3.org/2000/svg" xmlns:inkscape="http://www.inkscape.org/namespaces/inkscape" inkscape:version="0.91 r13725" sodipodi:docname="pivot-02.svg" display="none">
	<g id="AREA1_1_" transform="translate(-29.502633,5.4808424)" inkscape:label="#AREA1" display="inline">
		<circle id="circle376_1_" fill="#FFFF00" cx="2816.607" cy="239.965" r="7.857"/>
		<circle id="circle380_1_" fill="#FFFF00" cx="2618.177" cy="326.632" r="7.857"/>
		<circle id="circle382_3_" fill="#FFFF00" cx="3418.955" cy="276.632" r="7.857"/>
		<circle id="circle382_2_" fill="#FFFF00" cx="3226.701" cy="222.108" r="7.857"/>
		<circle id="circle386_1_" fill="#FFFF00" cx="3550.451" cy="208.108" r="7.857"/>
		<circle id="circle402_3_" fill="#FFFF00" cx="3761.869" cy="232.109" r="7.857"/>
		<circle id="circle406_1_" fill="#FFFF00" cx="3904.033" cy="318.775" r="7.857"/>
	</g>
	<g id="AREA3_1_" transform="translate(0.38884549,0.36212323)" inkscape:label="#AREA3" display="inline">
		<circle id="circle348-3_1_" fill="#2A39FF" cx="2842.65" cy="494.109" r="7.857"/>
		<circle id="circle269_2_" inkscape:label="#circle356" fill="#2A39FF" cx="2640.659" cy="563.877" r="7.857">
		</circle>
		<circle id="circle380-6_1_" fill="#2A39FF" cx="2956.623" cy="368.792" r="7.857"/>
		<circle id="circle386-3_1_" fill="#2A39FF" cx="3561.404" cy="389.983" r="7.857"/>
		<circle id="circle390-6_3_" fill="#2A39FF" cx="3141.324" cy="405.65" r="7.857"/>
		<circle id="circle390-6_2_" fill="#2A39FF" cx="3206.823" cy="692.89" r="7.857"/>
		<circle id="circle396-5_1_" fill="#2A39FF" cx="3333.739" cy="483.316" r="7.857"/>
		<circle id="circle402-1_1_" fill="#2A39FF" cx="3702.212" cy="493.507" r="7.857"/>
		<circle id="circle406-7_1_" fill="#2A39FF" cx="3854.986" cy="610.65" r="7.857"/>
	</g>
	<g id="AREA2_1_" display="inline">
		<circle id="circle326_1_" inkscape:label="#circle356" fill="#FF2A2A" cx="2656.762" cy="971.214" r="7.857">
		</circle>
		<circle id="circle376-8-9_1_" fill="#FF2A2A" cx="2932.829" cy="752.776" r="7.857"/>
		<circle id="circle380-6-1_1_" fill="#FF2A2A" cx="2748.328" cy="831.109" r="7.857"/>
		<circle id="circle382-0-5_1_" fill="#FF2A2A" cx="3373.577" cy="744.443" r="7.857"/>
		<circle id="circle384-7-1_1_" fill="#FF2A2A" cx="3050.494" cy="579.443" r="7.857"/>
		<circle id="circle386-3-2_3_" fill="#FF2A2A" cx="3535.743" cy="643.443" r="7.857"/>
		<circle id="circle390-6-9_1_" fill="#FF2A2A" cx="3125.999" cy="877.966" r="7.857"/>
		<circle id="circle392-4-0_1_" fill="#FF2A2A" cx="2932.829" cy="955.5" r="7.857"/>
		<circle id="circle396-5-9_1_" fill="#FF2A2A" cx="3335.998" cy="963.357" r="7.857"/>
		<circle id="circle400-4-0_1_" fill="#FF2A2A" cx="3595.244" cy="903.443" r="7.857"/>
		<circle id="circle402-1-9_1_" fill="#FF2A2A" cx="3707.16" cy="718.443" r="7.857"/>
		<circle id="circle404-5-0_1_" fill="#FF2A2A" cx="3785.601" cy="956.395" r="7.857"/>
	</g>
</g>
</svg>
