<?xml version="1.0" encoding="utf-8"?>
<!-- Generator: Adobe Illustrator 16.0.0, SVG Export Plug-In . SVG Version: 6.00 Build 0)  -->
<!DOCTYPE svg PUBLIC "-//W3C//DTD SVG 1.1//EN" "http://www.w3.org/Graphics/SVG/1.1/DTD/svg11.dtd">
<svg version="1.1" id="Layer_1" xmlns="http://www.w3.org/2000/svg" xmlns:xlink="http://www.w3.org/1999/xlink" x="0px" y="0px"
	 width="453.543px" height="453.543px" viewBox="0 0 453.543 453.543" enable-background="new 0 0 453.543 453.543"
	 xml:space="preserve">
<g id="kvadrat">
</g>
<g id="rdeÄa7bela">
</g>
<g>
	
		<path fill="#57B2E5" stroke="#000000" stroke-width="8" stroke-linecap="round" stroke-linejoin="round" stroke-miterlimit="10" d="
		M213.961,318.165c-22.238,0-34.981-14.57-34.981-39.979c0-2.765,2.235-5,4.995-5c2.757,0,72.198,19.988,74.964,19.988
		c2.758,0,4.996,2.239,4.996,5C263.934,318.165,239.66,318.165,213.961,318.165z"/>
	
		<path fill="#57B2E5" stroke="#000000" stroke-width="8" stroke-linecap="round" stroke-linejoin="round" stroke-miterlimit="10" d="
		M283.188,147.324c-7.761-11.947-34.584-11.947-62.733-11.947c-26.614,0-49.966,21.018-49.966,44.979c0,0,0,0,0,0.003
		c0,2.758,9.99,0,9.99,0v-0.003h105.891C286.369,180.356,284.639,149.563,283.188,147.324z"/>
	
		<path fill="#57B2E5" stroke="#000000" stroke-width="8" stroke-linecap="round" stroke-linejoin="round" stroke-miterlimit="10" d="
		M374.514,227.876c0-28.979-49.296-79.632-95.582-79.632c-64.569,0-127.899,44.792-151.731,61.649
		c-0.977,0.688-1.864,1.333-2.696,1.905c-6.051-5.566-17.102-14.959-23.249-18.043c-3.448-1.724-6.729-2.598-9.733-2.598
		c-8.119,0-12.493,6.219-12.493,12.063v59.982c0,5.844,4.374,12.063,12.493,12.063c3.004,0,6.285-0.875,9.733-2.605
		c6.187-3.092,17.348-12.597,23.369-18.155c15.694,9.669,83.393,48.669,154.308,48.669
		C331.854,303.176,374.514,256.854,374.514,227.876z"/>
	<path fill="none" stroke="#000000" stroke-width="8" stroke-linecap="round" stroke-linejoin="round" stroke-miterlimit="10" d="
		M298.271,183.23c0,0-40.033,46.987,0,89.957"/>
	<path d="M338.836,218.281c0,5.481-4.445,9.932-9.932,9.932c-5.484,0-9.93-4.45-9.93-9.932c0-5.483,4.445-9.931,9.93-9.931
		C334.391,208.35,338.836,212.796,338.836,218.281z"/>
</g>
<g id="pivot">
	<circle fill="none" cx="226.771" cy="322.923" r="17.289"/>
</g>
</svg>
