<?xml version="1.0" encoding="utf-8"?>
<!-- Generator: Adobe Illustrator 16.0.0, SVG Export Plug-In . SVG Version: 6.00 Build 0)  -->
<!DOCTYPE svg PUBLIC "-//W3C//DTD SVG 1.1//EN" "http://www.w3.org/Graphics/SVG/1.1/DTD/svg11.dtd">
<svg version="1.1" id="Layer_1" xmlns="http://www.w3.org/2000/svg" xmlns:xlink="http://www.w3.org/1999/xlink" x="0px" y="0px"
	 width="453.543px" height="453.543px" viewBox="0 0 453.543 453.543" enable-background="new 0 0 453.543 453.543"
	 xml:space="preserve">
<g id="kvadrat" display="none">
</g>
<g id="color" display="none">
	<g id="rdeča7bela" display="inline">
	</g>
	<g display="inline">
		
			<line fill="none" stroke="#000000" stroke-width="8" stroke-linecap="round" stroke-linejoin="round" stroke-miterlimit="10" x1="230.364" y1="206.269" x2="230.364" y2="316.315"/>
		
			<path fill="#39A935" stroke="#000000" stroke-width="8" stroke-linecap="round" stroke-linejoin="round" stroke-miterlimit="10" d="
			M213.853,273.596c-5.387-25.598-0.881-48.216-0.881-48.216s13.241,18.883,18.629,44.48c5.388,25.598,0.881,48.215,0.881,48.215
			S219.24,299.194,213.853,273.596z"/>
		
			<path fill="#39A935" stroke="#000000" stroke-width="8" stroke-linecap="round" stroke-linejoin="round" stroke-miterlimit="10" d="
			M219.021,306.115c0,0-24.746,5.162-41.486-27.084c-16.737-32.246-19.128-64.189-19.128-64.189s24.748,20.338,41.485,52.585
			C216.632,299.672,219.021,306.115,219.021,306.115z"/>
		
			<path fill="#39A935" stroke="#000000" stroke-width="8" stroke-linecap="round" stroke-linejoin="round" stroke-miterlimit="10" d="
			M258.028,265.851c12.053-23.217,29.87-37.859,29.87-37.859s-1.722,22.997-13.772,46.215
			c-12.051,23.217-29.869,37.858-29.869,37.858S245.978,289.067,258.028,265.851z"/>
		<g>
			
				<polygon fill="#AB5C2E" stroke="#000000" stroke-width="8" stroke-linecap="round" stroke-linejoin="round" stroke-miterlimit="10" points="
				268.86,358.501 184.677,358.501 150.644,261.053 302.903,261.053 			"/>
			
				<rect x="146.514" y="261.053" fill="#BF6735" stroke="#000000" stroke-width="8" stroke-linecap="round" stroke-linejoin="round" stroke-miterlimit="10" width="160.518" height="19.647"/>
		</g>
		<g>
			
				<path fill="#CB78A6" stroke="#000000" stroke-width="8" stroke-linecap="round" stroke-linejoin="round" stroke-miterlimit="10" d="
				M273.608,174.772c14.793-5.911,23.713-19.624,20.346-32.474c-3.565-13.622-19.645-21.313-36.513-17.835
				c-1.052-15.896-11.336-28.616-24.597-29.384c-14.058-0.817-26.34,12.097-28.246,29.214c-15.443-3.914-30.719,1.938-35.549,14.313
				c-5.119,13.117,3.365,28.788,19.057,35.891c-8.493,13.478-7.648,29.813,2.628,38.23c10.894,8.922,28.421,5.696,40.022-7.033
				c10.193,12.243,25.992,16.487,37.174,9.314C279.782,207.406,282.129,189.741,273.608,174.772z"/>
			
				<path fill="#81358A" stroke="#000000" stroke-width="8" stroke-linecap="round" stroke-linejoin="round" stroke-miterlimit="10" d="
				M257.138,169.031c8.968-3.584,14.375-11.896,12.334-19.688c-2.162-8.257-11.909-12.92-22.136-10.813
				c-0.639-9.637-6.873-17.349-14.914-17.813c-8.521-0.496-15.968,7.334-17.125,17.711c-9.361-2.373-18.623,1.175-21.551,8.678
				c-3.104,7.952,2.04,17.453,11.554,21.759c-5.149,8.172-4.637,18.076,1.592,23.18c6.604,5.41,17.231,3.453,24.266-4.265
				c6.18,7.423,15.758,9.996,22.536,5.647C260.879,188.818,262.301,178.106,257.138,169.031z"/>
			
				<circle fill="#EFE342" stroke="#000000" stroke-width="8" stroke-linecap="round" stroke-linejoin="round" stroke-miterlimit="10" cx="231.524" cy="160.636" r="14.52"/>
		</g>
	</g>
</g>
<g id="cb">
	<g id="rdeča7bela_copy">
	</g>
	<g>
		
			<line fill="none" stroke="#000000" stroke-width="8" stroke-linecap="round" stroke-linejoin="round" stroke-miterlimit="10" x1="230.524" y1="206.269" x2="230.524" y2="261.053"/>
		<path fill="none" stroke="#000000" stroke-width="8" stroke-linecap="round" stroke-linejoin="round" stroke-miterlimit="10" d="
			M229.543,261.053c-6.129-21.003-16.409-35.672-16.409-35.672s-3.116,15.665-1.061,35.672"/>
		<path fill="none" stroke="#000000" stroke-width="8" stroke-linecap="round" stroke-linejoin="round" stroke-miterlimit="10" d="
			M196.554,261.053c-16.477-28.527-37.987-46.211-37.987-46.211s1.576,21.043,11.119,46.211"/>
		<path fill="none" stroke="#000000" stroke-width="8" stroke-linecap="round" stroke-linejoin="round" stroke-miterlimit="10" d="
			M280.131,261.053c6.8-18.027,7.928-33.062,7.928-33.062s-15.381,12.646-27.229,33.062"/>
		
			<polyline fill="none" stroke="#000000" stroke-width="8" stroke-linecap="round" stroke-linejoin="round" stroke-miterlimit="10" points="
			301.935,280.7 275.456,358.501 180.739,358.501 152.403,280.7 		"/>
		
			<line fill="none" stroke="#000000" stroke-width="8" stroke-linecap="round" stroke-linejoin="round" stroke-miterlimit="10" x1="178.607" y1="280.7" x2="152.403" y2="280.7"/>
		
			<line fill="none" stroke="#000000" stroke-width="8" stroke-linecap="round" stroke-linejoin="round" stroke-miterlimit="10" x1="215.745" y1="280.7" x2="230.524" y2="280.7"/>
		
			<line fill="none" stroke="#000000" stroke-width="8" stroke-linecap="round" stroke-linejoin="round" stroke-miterlimit="10" x1="233.514" y1="280.7" x2="230.524" y2="280.7"/>
		
			<line fill="none" stroke="#000000" stroke-width="8" stroke-linecap="round" stroke-linejoin="round" stroke-miterlimit="10" x1="270.645" y1="280.7" x2="251.717" y2="280.7"/>
		
			<line fill="none" stroke="#000000" stroke-width="8" stroke-linecap="round" stroke-linejoin="round" stroke-miterlimit="10" x1="206.881" y1="280.7" x2="178.607" y2="280.7"/>
		
			<line fill="none" stroke="#000000" stroke-width="8" stroke-linecap="round" stroke-linejoin="round" stroke-miterlimit="10" x1="270.645" y1="280.7" x2="301.935" y2="280.7"/>
		
			<line fill="none" stroke="#000000" stroke-width="8" stroke-linecap="round" stroke-linejoin="round" stroke-miterlimit="10" x1="206.881" y1="280.7" x2="215.745" y2="280.7"/>
		
			<line fill="none" stroke="#000000" stroke-width="8" stroke-linecap="round" stroke-linejoin="round" stroke-miterlimit="10" x1="233.514" y1="280.7" x2="251.717" y2="280.7"/>
		<path fill="none" stroke="#000000" stroke-width="8" stroke-linecap="round" stroke-linejoin="round" stroke-miterlimit="10" d="
			M230.92,205.695c10.19,12.243,25.988,16.487,37.17,9.314c11.854-7.603,14.199-25.27,5.68-40.237
			c14.792-5.911,23.712-19.624,20.346-32.474c-3.566-13.622-19.645-21.313-36.514-17.835c-1.049-15.896-11.336-28.616-24.598-29.384
			c-14.056-0.817-26.339,12.097-28.246,29.214c-15.441-3.914-30.718,1.938-35.547,14.313c-5.12,13.117,3.365,28.788,19.057,35.891
			c-8.495,13.478-7.648,29.813,2.626,38.23C201.789,221.65,219.316,218.424,230.92,205.695z"/>
		<path fill="none" stroke="#000000" stroke-width="8" stroke-linecap="round" stroke-linejoin="round" stroke-miterlimit="10" d="
			M205.461,168.864c-5.149,8.172-4.637,18.076,1.594,23.18c6.604,5.41,17.23,3.453,24.265-4.265
			c6.181,7.423,15.757,9.996,22.535,5.647c7.187-4.608,8.608-15.32,3.442-24.396c8.971-3.584,14.377-11.896,12.336-19.688
			c-2.163-8.257-11.91-12.92-22.137-10.813c-0.637-9.637-6.871-17.349-14.912-17.813c-8.522-0.496-15.969,7.334-17.125,17.711
			c-9.363-2.373-18.623,1.175-21.552,8.678C190.804,155.058,195.948,164.559,205.461,168.864z"/>
		
			<circle fill="none" stroke="#000000" stroke-width="8" stroke-linecap="round" stroke-linejoin="round" stroke-miterlimit="10" cx="231.685" cy="160.636" r="14.52"/>
		
			<rect x="146.675" y="261.053" fill="none" stroke="#000000" stroke-width="8" stroke-linecap="round" stroke-linejoin="round" stroke-miterlimit="10" width="160.516" height="19.647"/>
	</g>
</g>
<g id="pivot">
	<circle fill="none" cx="222.585" cy="355.916" r="14.133"/>
</g>
<ellipse transform="matrix(0.9567 0.2911 -0.2911 0.9567 79.3354 -73.7257)" cx="287.451" cy="229.774" rx="4.321" ry="6.17"/>
</svg>
