<?xml version="1.0" encoding="utf-8"?>
<!-- Generator: Adobe Illustrator 16.0.0, SVG Export Plug-In . SVG Version: 6.00 Build 0)  -->
<!DOCTYPE svg PUBLIC "-//W3C//DTD SVG 1.1//EN" "http://www.w3.org/Graphics/SVG/1.1/DTD/svg11.dtd">
<svg version="1.1" xmlns="http://www.w3.org/2000/svg" xmlns:xlink="http://www.w3.org/1999/xlink" x="0px" y="0px"
	 width="453.543px" height="453.543px" viewBox="0 0 453.543 453.543" enable-background="new 0 0 453.543 453.543"
	 xml:space="preserve">
<g id="kvadrat" display="none">
</g>
<g id="color" display="none">
	<g display="inline">
		
			<rect x="209.813" y="327.277" fill="#7E4E24" stroke="#000000" stroke-width="8" stroke-linecap="round" stroke-linejoin="round" stroke-miterlimit="10" width="33.917" height="55.885"/>
		
			<polygon fill="#39A935" stroke="#000000" stroke-width="8" stroke-linecap="round" stroke-linejoin="round" stroke-miterlimit="10" points="
			285.882,242.251 307.065,242.251 266.918,172.714 263.542,166.866 282.476,166.866 254.625,118.624 226.772,70.382 
			198.919,118.624 171.067,166.866 190.001,166.866 186.625,172.714 146.478,242.251 167.661,242.251 115.302,332.939 
			226.772,332.939 338.241,332.939 		"/>
	</g>
	<g id="rdeča7bela" display="inline">
	</g>
</g>
<g id="cb">
	
		<polygon fill="none" stroke="#000000" stroke-width="8" stroke-linecap="round" stroke-linejoin="round" stroke-miterlimit="10" points="
		226.772,332.939 209.813,332.939 209.813,383.162 243.73,383.162 243.73,332.939 	"/>
	<g>
		
			<polygon fill="none" stroke="#000000" stroke-width="8" stroke-linecap="round" stroke-linejoin="round" stroke-miterlimit="10" points="
			285.882,242.251 307.065,242.251 266.918,172.714 263.542,166.866 282.476,166.866 254.625,118.624 226.772,70.382 
			198.919,118.624 171.067,166.866 190.001,166.866 186.625,172.714 146.478,242.251 167.661,242.251 115.302,332.939 
			226.772,332.939 338.241,332.939 		"/>
	</g>
	<g id="rdeča7bela_copy">
	</g>
</g>
<g id="pivot">
	<circle fill="none" cx="223.638" cy="374.724" r="14.133"/>
</g>
</svg>
