<?xml version="1.0" encoding="utf-8"?>
<!-- Generator: Adobe Illustrator 16.0.0, SVG Export Plug-In . SVG Version: 6.00 Build 0)  -->
<!DOCTYPE svg PUBLIC "-//W3C//DTD SVG 1.1//EN" "http://www.w3.org/Graphics/SVG/1.1/DTD/svg11.dtd">
<svg version="1.1" xmlns="http://www.w3.org/2000/svg" xmlns:xlink="http://www.w3.org/1999/xlink" x="0px" y="0px"
	 width="453.543px" height="453.543px" viewBox="0 0 453.543 453.543" enable-background="new 0 0 453.543 453.543"
	 xml:space="preserve">
<g id="kvadrat" display="none">
</g>
<g id="color" display="none">
	<g display="inline">
		
			<path fill="#39A935" stroke="#000000" stroke-width="8" stroke-linecap="round" stroke-linejoin="round" stroke-miterlimit="10" d="
			M223.998,369.253c0,0-34.327-28.21-57.543-72.938c-23.217-44.727-26.534-89.034-26.534-89.034s34.327,28.21,57.544,72.938
			C220.683,324.946,223.998,369.253,223.998,369.253z"/>
		
			<path fill="#39A935" stroke="#000000" stroke-width="8" stroke-linecap="round" stroke-linejoin="round" stroke-miterlimit="10" d="
			M256.077,280.219c23.217-44.728,57.543-72.938,57.543-72.938s-3.315,44.307-26.533,89.034
			c-23.216,44.728-57.543,72.938-57.543,72.938S232.859,324.946,256.077,280.219z"/>
		
			<line fill="#FFCF00" stroke="#000000" stroke-width="8" stroke-linecap="round" stroke-linejoin="round" stroke-miterlimit="10" x1="226.771" y1="216.612" x2="226.771" y2="369.253"/>
		
			<path fill="#FFCF00" stroke="#000000" stroke-width="8" stroke-linecap="round" stroke-linejoin="round" stroke-miterlimit="10" d="
			M247.141,117.499l-18.761-32.98l-18.962,32.801l-34.5-33.029c0,0-0.332,71.684-0.365,78.429
			c-0.132,28.39,21.476,51.728,49.316,53.892l9.313-0.055c27.195-2.559,48.309-25.419,48.439-53.336
			c0.028-6.746,0.36-78.43,0.36-78.43L247.141,117.499z"/>
	</g>
	<g id="rdeča7bela" display="inline">
	</g>
</g>
<g id="cb">
	<g>
		<path fill="none" stroke="#000000" stroke-width="8" stroke-linecap="round" stroke-linejoin="round" stroke-miterlimit="10" d="
			M223.998,369.253c0,0-34.327-28.21-57.543-72.938c-23.217-44.727-26.534-89.034-26.534-89.034s34.327,28.21,57.544,72.938
			C220.683,324.946,223.998,369.253,223.998,369.253z"/>
		<path fill="none" stroke="#000000" stroke-width="8" stroke-linecap="round" stroke-linejoin="round" stroke-miterlimit="10" d="
			M256.077,280.219c23.217-44.728,57.543-72.938,57.543-72.938s-3.315,44.307-26.533,89.034
			c-23.216,44.728-57.543,72.938-57.543,72.938S232.859,324.946,256.077,280.219z"/>
		
			<line fill="none" stroke="#000000" stroke-width="8" stroke-linecap="round" stroke-linejoin="round" stroke-miterlimit="10" x1="226.771" y1="216.612" x2="226.771" y2="369.253"/>
		<path fill="none" stroke="#000000" stroke-width="8" stroke-linecap="round" stroke-linejoin="round" stroke-miterlimit="10" d="
			M247.141,117.499l-18.761-32.98l-18.962,32.801l-34.5-33.029c0,0-0.332,71.684-0.365,78.429
			c-0.132,28.39,21.476,51.728,49.316,53.892l9.313-0.055c27.195-2.559,48.309-25.419,48.439-53.336
			c0.028-6.746,0.36-78.43,0.36-78.43L247.141,117.499z"/>
	</g>
	<g id="rdeča7bela_copy">
	</g>
</g>
<g id="pivot">
	<circle fill="none" cx="223.243" cy="370.382" r="14.133"/>
</g>
</svg>
