<?xml version="1.0" encoding="utf-8"?>
<!-- Generator: Adobe Illustrator 16.0.0, SVG Export Plug-In . SVG Version: 6.00 Build 0)  -->
<!DOCTYPE svg PUBLIC "-//W3C//DTD SVG 1.1//EN" "http://www.w3.org/Graphics/SVG/1.1/DTD/svg11.dtd">
<svg version="1.1" xmlns="http://www.w3.org/2000/svg" xmlns:xlink="http://www.w3.org/1999/xlink" x="0px" y="0px"
	 width="453.543px" height="453.543px" viewBox="0 0 453.543 453.543" enable-background="new 0 0 453.543 453.543"
	 xml:space="preserve">
<g id="kvadrat">
</g>
<g id="Layer_2">
	<g id="rdeÄa7bela">
	</g>
	<g>
		
			<path fill="#39A935" stroke="#000000" stroke-width="8" stroke-linecap="round" stroke-linejoin="round" stroke-miterlimit="10" d="
			M231.667,177.319l5.083-121.074l-20.667-0.209c0,0,5.687,119.527,5.365,121.199C221.125,178.904,231.667,177.319,231.667,177.319z
			"/>
		
			<path fill="#EE7D00" stroke="#000000" stroke-width="8" stroke-linecap="round" stroke-linejoin="round" stroke-miterlimit="10" d="
			M229.559,397.508c-14.476,0-41.819-97.922-41.819-179.075c0-81.154,83.645-81.734,83.645,0S244.035,397.508,229.559,397.508z"/>
		<g>
			
				<line fill="none" stroke="#000000" stroke-width="8" stroke-linecap="round" stroke-linejoin="round" stroke-miterlimit="10" x1="188.996" y1="222.224" x2="251.275" y2="222.224"/>
			
				<line fill="none" stroke="#000000" stroke-width="8" stroke-linecap="round" stroke-linejoin="round" stroke-miterlimit="10" x1="191.696" y1="257.299" x2="229.021" y2="257.299"/>
			
				<line fill="none" stroke="#000000" stroke-width="8" stroke-linecap="round" stroke-linejoin="round" stroke-miterlimit="10" x1="196.196" y1="291.53" x2="209.081" y2="291.53"/>
		</g>
		
			<path fill="#39A935" stroke="#000000" stroke-width="8" stroke-linecap="round" stroke-linejoin="round" stroke-miterlimit="10" d="
			M234.04,180.452l-31.737-87.453l-20.143,8.325c0,0,41.732,81.947,41.926,83.258C224.28,185.89,234.04,180.452,234.04,180.452z"/>
		
			<path fill="#39A935" stroke="#000000" stroke-width="8" stroke-linecap="round" stroke-linejoin="round" stroke-miterlimit="10" d="
			M267.641,122.253l-19.62-12.117c0,0-24.289,64.803-25.619,68.07c-1.561,3.833,1.189,8.43,4.163,8.854
			c3.649,0.458,5.544-2.875,5.544-2.875L267.641,122.253z"/>
		<circle fill="none" cx="226.771" cy="389.456" r="17.289"/>
	</g>
</g>
<g id="pivot">
</g>
</svg>
