<?xml version="1.0" encoding="utf-8"?>
<!-- Generator: Adobe Illustrator 16.0.0, SVG Export Plug-In . SVG Version: 6.00 Build 0)  -->
<!DOCTYPE svg PUBLIC "-//W3C//DTD SVG 1.1//EN" "http://www.w3.org/Graphics/SVG/1.1/DTD/svg11.dtd">
<svg version="1.1" xmlns="http://www.w3.org/2000/svg" xmlns:xlink="http://www.w3.org/1999/xlink" x="0px" y="0px"
	 width="453.543px" height="453.543px" viewBox="0 0 453.543 453.543" enable-background="new 0 0 453.543 453.543"
	 xml:space="preserve">
<g id="kvadrat">
</g>
<g id="Layer_2">
	<g id="rdeÄa7bela">
	</g>
	<g>
		
			<path fill="#BD1622" stroke="#000000" stroke-width="8" stroke-linecap="round" stroke-linejoin="round" stroke-miterlimit="10" d="
			M298.953,149.471c-18.24-18.24-43.479-22.525-67.541-21.078c-24.062-1.447-49.301,2.837-67.541,21.078
			c-46.255,46.254-18.794,91.656-16.093,94.976c3.076,3.75,15.887,26.498,17.69,31.33c5.708,15.295,12.677,30.525,22.577,49.376
			c9.11,17.304,20.198,27.561,33.9,31.34c2.957,0.813,6.195,1.001,9.466,0.868c3.271,0.133,6.51-0.055,9.466-0.868
			c13.702-3.779,24.79-14.036,33.899-31.34c9.9-18.851,16.868-34.081,22.577-49.376c1.804-4.832,14.614-27.58,17.69-31.33
			C317.747,241.127,345.207,195.725,298.953,149.471z"/>
		<path fill="none" stroke="#000000" stroke-linecap="round" stroke-linejoin="round" stroke-miterlimit="10" d="M231.412,149.164"
			/>
		<g>
			
				<line stroke="#000000" stroke-width="10" stroke-linecap="round" stroke-linejoin="round" stroke-miterlimit="10" x1="175.925" y1="238.294" x2="175.775" y2="248.393"/>
			
				<line stroke="#000000" stroke-width="10" stroke-linecap="round" stroke-linejoin="round" stroke-miterlimit="10" x1="231.488" y1="237.448" x2="231.337" y2="247.547"/>
			
				<line stroke="#000000" stroke-width="10" stroke-linecap="round" stroke-linejoin="round" stroke-miterlimit="10" x1="230.497" y1="303.786" x2="230.346" y2="313.883"/>
			
				<line stroke="#000000" stroke-width="10" stroke-linecap="round" stroke-linejoin="round" stroke-miterlimit="10" x1="287.05" y1="236.604" x2="286.899" y2="246.702"/>
			
				<line stroke="#000000" stroke-width="10" stroke-linecap="round" stroke-linejoin="round" stroke-miterlimit="10" x1="203.177" y1="273.396" x2="203.025" y2="283.494"/>
			
				<line stroke="#000000" stroke-width="10" stroke-linecap="round" stroke-linejoin="round" stroke-miterlimit="10" x1="258.738" y1="272.549" x2="258.587" y2="282.647"/>
		</g>
		
			<path fill="#39A935" stroke="#000000" stroke-width="8" stroke-linecap="round" stroke-linejoin="round" stroke-miterlimit="10" d="
			M325.209,153.476c-9.764-7.441-32.588-22.846-57.876-26.203c-9.541-1.267-27.254,1.645-27.418,1.521l-1.334-0.994l4.129-31.655
			h-25.105l4.132,31.662c0,0-24.484-2.049-35.906-0.533c-25.289,3.356-48.112,18.761-57.877,26.203
			c17.482,6.804,33.477,10.648,47.806,11.515c-5.744,11.321-10.115,25.307-13.058,41.89c13.43-1.264,42.796-5.998,61.397-23.453
			c1.938-1.818,3.682-3.743,5.274-5.749c0.683,0.818,1.388,1.632,2.146,2.439c12.689,13.523,33.743,22.959,62.619,28.083
			c-0.906-9.636-3.6-27.471-11.495-43.652C295.601,163.156,309.829,159.463,325.209,153.476z"/>
		<circle fill="none" cx="226.771" cy="361.485" r="17.289"/>
	</g>
</g>
<g id="pivot">
</g>
</svg>
