<?xml version="1.0" encoding="utf-8"?>
<!-- Generator: Adobe Illustrator 16.0.0, SVG Export Plug-In . SVG Version: 6.00 Build 0)  -->
<!DOCTYPE svg PUBLIC "-//W3C//DTD SVG 1.1//EN" "http://www.w3.org/Graphics/SVG/1.1/DTD/svg11.dtd">
<svg version="1.1" xmlns="http://www.w3.org/2000/svg" xmlns:xlink="http://www.w3.org/1999/xlink" x="0px" y="0px"
	 width="453.543px" height="453.543px" viewBox="0 0 453.543 453.543" enable-background="new 0 0 453.543 453.543"
	 xml:space="preserve">
<g id="kvadrat">
</g>
<g id="Layer_2">
	<g id="rdeÄa7bela">
	</g>
	
		<path fill="#A6A8AB" stroke="#000000" stroke-width="8" stroke-linecap="round" stroke-linejoin="round" stroke-miterlimit="10" d="
		M247.146,292.848V160.693c16.387-7.673,27.744-24.303,27.744-43.592c0-19.292-11.357-35.922-27.744-43.594v11.131v8.644v14.881
		l-20.374,11.764l-20.374-11.764V93.282h-0.001V73.507c-16.387,7.671-27.744,24.302-27.744,43.594
		c0,19.29,11.357,35.919,27.744,43.592v132.155c-16.387,7.673-27.744,24.303-27.744,43.594c0,19.291,11.357,35.922,27.744,43.594
		v-10.081v-8.645V346.43l20.374-11.764l20.374,11.764v14.881h0.001v18.725c16.387-7.672,27.744-24.303,27.744-43.594
		C274.89,317.151,263.533,300.521,247.146,292.848z"/>
	<circle fill="none" cx="226.771" cy="368.633" r="17.289"/>
</g>
<g id="pivot">
</g>
</svg>
