<?xml version="1.0" encoding="utf-8"?>
<!-- Generator: Adobe Illustrator 16.0.0, SVG Export Plug-In . SVG Version: 6.00 Build 0)  -->
<!DOCTYPE svg PUBLIC "-//W3C//DTD SVG 1.1//EN" "http://www.w3.org/Graphics/SVG/1.1/DTD/svg11.dtd">
<svg version="1.1" xmlns="http://www.w3.org/2000/svg" xmlns:xlink="http://www.w3.org/1999/xlink" x="0px" y="0px"
	 width="453.544px" height="453.543px" viewBox="0 0 453.544 453.543" enable-background="new 0 0 453.544 453.543"
	 xml:space="preserve">
<g id="kvadrat" display="none">
</g>
<g id="color">
	<g id="rdeča7bela">
	</g>
	<g>
		<g>
			
				<path fill="#39A935" stroke="#000000" stroke-width="8" stroke-linecap="round" stroke-linejoin="round" stroke-miterlimit="10" d="
				M231.664,288.167c0,0-31.197-10.41-44.616-36.263c-13.42-25.854-3.979-57.356-3.979-57.356s31.196,10.41,44.614,36.264
				C241.104,256.663,231.664,288.167,231.664,288.167z"/>
			
				<path fill="#39A935" stroke="#000000" stroke-width="8" stroke-linecap="round" stroke-linejoin="round" stroke-miterlimit="10" d="
				M225.568,288.167c0,0,31.197-10.41,44.616-36.263c13.42-25.854,3.979-57.356,3.979-57.356s-31.196,10.41-44.614,36.264
				C216.128,256.663,225.568,288.167,225.568,288.167z"/>
			
				<line fill="#FFCF00" stroke="#000000" stroke-width="8" stroke-linecap="round" stroke-linejoin="round" stroke-miterlimit="10" x1="226.772" y1="176.13" x2="226.772" y2="286.177"/>
			
				<path fill="#A2195B" stroke="#000000" stroke-width="8" stroke-linecap="round" stroke-linejoin="round" stroke-miterlimit="10" d="
				M224.238,178.518c0,0-24.151-8.215-34.619-28.381c-10.468-20.166-3.287-44.646-3.287-44.646s24.153,8.215,34.619,28.383
				C231.421,154.038,224.238,178.518,224.238,178.518z"/>
			
				<path fill="#39A935" stroke="#000000" stroke-width="8" stroke-linecap="round" stroke-linejoin="round" stroke-miterlimit="10" d="
				M223.104,177.978c0,0-16.809-19.191-15.791-41.889c1.018-22.698,19.477-40.308,19.477-40.308s16.809,19.191,15.789,41.89
				C241.563,160.368,223.104,177.978,223.104,177.978z"/>
			
				<path fill="#A2195B" stroke="#000000" stroke-width="8" stroke-linecap="round" stroke-linejoin="round" stroke-miterlimit="10" d="
				M223.526,177.482c0,0-4.961-25.024,7.27-44.171c12.23-19.148,37.021-25.17,37.021-25.17s4.962,25.024-7.271,44.173
				C248.317,171.461,223.526,177.482,223.526,177.482z"/>
			
				<path fill="#CB78A6" stroke="#000000" stroke-width="8" stroke-linecap="round" stroke-linejoin="round" stroke-miterlimit="10" d="
				M224.141,177.265c0,0,8.216-24.152,28.381-34.619c20.165-10.468,44.646-3.287,44.646-3.287s-8.216,24.152-28.383,34.619
				C248.621,184.445,224.141,177.265,224.141,177.265z"/>
			
				<path fill="#CB78A6" stroke="#000000" stroke-width="8" stroke-linecap="round" stroke-linejoin="round" stroke-miterlimit="10" d="
				M224.238,178.518c0,0-25.023,4.961-44.172-7.269c-19.147-12.23-25.169-37.021-25.169-37.021s25.025-4.96,44.173,7.271
				C218.219,153.728,224.238,178.518,224.238,178.518z"/>
			
				<path fill="#81358A" stroke="#000000" stroke-width="8" stroke-linecap="round" stroke-linejoin="round" stroke-miterlimit="10" d="
				M223.104,177.978c0,0-16.809-19.191-15.791-41.889c1.018-22.698,19.477-40.308,19.477-40.308s16.809,19.191,15.789,41.89
				C241.563,160.368,223.104,177.978,223.104,177.978z"/>
		</g>
		<g>
			
				<polygon fill="#AB5C2E" stroke="#000000" stroke-width="8" stroke-linecap="round" stroke-linejoin="round" stroke-miterlimit="10" points="
				268.86,357.763 184.677,357.763 150.644,234.814 302.903,234.814 			"/>
			
				<rect x="146.515" y="234.814" fill="#BF6735" stroke="#000000" stroke-width="8" stroke-linecap="round" stroke-linejoin="round" stroke-miterlimit="10" width="160.516" height="19.647"/>
		</g>
	</g>
</g>
<g id="cb" display="none">
	<g id="rdeča7bela_copy" display="inline">
	</g>
</g>
<g id="pivot">
	<circle fill="none" cx="223.563" cy="355.916" r="14.133"/>
</g>
</svg>
