<?xml version="1.0" encoding="utf-8"?>
<!-- Generator: Adobe Illustrator 16.0.0, SVG Export Plug-In . SVG Version: 6.00 Build 0)  -->
<!DOCTYPE svg PUBLIC "-//W3C//DTD SVG 1.1//EN" "http://www.w3.org/Graphics/SVG/1.1/DTD/svg11.dtd">
<svg version="1.1" xmlns="http://www.w3.org/2000/svg" xmlns:xlink="http://www.w3.org/1999/xlink" x="0px" y="0px"
	 width="453.544px" height="453.543px" viewBox="0 0 453.544 453.543" enable-background="new 0 0 453.544 453.543"
	 xml:space="preserve">
<g id="kvadrat" display="none">
</g>
<g id="color">
	<g id="rdeča7bela">
	</g>
	<g>
		<g>
			
				<path fill="#81358A" stroke="#000000" stroke-width="8" stroke-linecap="round" stroke-linejoin="round" stroke-miterlimit="10" d="
				M223.104,177.978c0,0-16.809-19.191-15.791-41.889c1.018-22.698,19.477-40.308,19.477-40.308s16.809,19.191,15.789,41.89
				C241.563,160.368,223.104,177.978,223.104,177.978z"/>
			
				<path fill="#39A935" stroke="#000000" stroke-width="8" stroke-linecap="round" stroke-linejoin="round" stroke-miterlimit="10" d="
				M223.164,288.167c0,0-31.198-10.41-44.616-36.263c-13.42-25.854-3.98-57.356-3.98-57.356s31.197,10.41,44.615,36.264
				C232.604,256.663,223.164,288.167,223.164,288.167z"/>
			
				<path fill="#39A935" stroke="#000000" stroke-width="8" stroke-linecap="round" stroke-linejoin="round" stroke-miterlimit="10" d="
				M234.067,288.167c0,0,31.198-10.41,44.617-36.263c13.42-25.854,3.979-57.356,3.979-57.356s-31.196,10.41-44.614,36.264
				C224.628,256.663,234.067,288.167,234.067,288.167z"/>
			
				<line fill="#FFCF00" stroke="#000000" stroke-width="8" stroke-linecap="round" stroke-linejoin="round" stroke-miterlimit="10" x1="226.771" y1="176.13" x2="226.771" y2="286.177"/>
			
				<path fill="#A2195B" stroke="#000000" stroke-width="8" stroke-linecap="round" stroke-linejoin="round" stroke-miterlimit="10" d="
				M224.238,178.518c0,0-24.151-8.215-34.619-28.381c-10.468-20.166-3.287-44.646-3.287-44.646s24.153,8.215,34.619,28.383
				C231.42,154.038,224.238,178.518,224.238,178.518z"/>
			
				<path fill="#A2195B" stroke="#000000" stroke-width="8" stroke-linecap="round" stroke-linejoin="round" stroke-miterlimit="10" d="
				M223.526,177.482c0,0-4.961-25.024,7.27-44.171c12.23-19.148,37.021-25.17,37.021-25.17s4.962,25.024-7.271,44.173
				C248.317,171.461,223.526,177.482,223.526,177.482z"/>
			
				<path fill="#CB78A6" stroke="#000000" stroke-width="8" stroke-linecap="round" stroke-linejoin="round" stroke-miterlimit="10" d="
				M224.14,177.265c0,0,8.217-24.152,28.382-34.619c20.165-10.468,44.646-3.287,44.646-3.287s-8.216,24.152-28.383,34.619
				C248.621,184.445,224.14,177.265,224.14,177.265z"/>
			
				<path fill="#CB78A6" stroke="#000000" stroke-width="8" stroke-linecap="round" stroke-linejoin="round" stroke-miterlimit="10" d="
				M224.238,178.518c0,0-25.023,4.961-44.172-7.269c-19.147-12.23-25.169-37.021-25.169-37.021s25.024-4.96,44.173,7.271
				C218.219,153.728,224.238,178.518,224.238,178.518z"/>
			
				<path fill="#39A935" stroke="#000000" stroke-width="8" stroke-linecap="round" stroke-linejoin="round" stroke-miterlimit="10" d="
				M226.174,255.036c0,0-11.53-11.76-11.634-26.365c-0.104-14.607,11.259-26.527,11.259-26.527s11.53,11.759,11.633,26.364
				C237.538,243.114,226.174,255.036,226.174,255.036z"/>
		</g>
		<g>
			
				<polygon fill="#AB5C2E" stroke="#000000" stroke-width="8" stroke-linecap="round" stroke-linejoin="round" stroke-miterlimit="10" points="
				268.86,357.763 184.678,357.763 150.644,234.814 302.903,234.814 			"/>
			
				<rect x="146.514" y="234.814" fill="#BF6735" stroke="#000000" stroke-width="8" stroke-linecap="round" stroke-linejoin="round" stroke-miterlimit="10" width="160.517" height="19.647"/>
		</g>
	</g>
</g>
<g id="cb" display="none">
	<g id="rdeča7bela_copy" display="inline">
	</g>
	<g display="inline">
		<path fill="none" stroke="#000000" stroke-width="8" stroke-linecap="round" stroke-linejoin="round" stroke-miterlimit="10" d="
			M240.706,122.161c-4.211-15.288-13.916-26.38-13.916-26.38s-10.52,10.042-16.113,24.73"/>
		<path fill="none" stroke="#000000" stroke-width="8" stroke-linecap="round" stroke-linejoin="round" stroke-miterlimit="10" d="
			M210.677,120.511c-1.814,4.766-3.114,10.018-3.363,15.578c-0.212,4.727,0.356,9.297,1.378,13.578"/>
		<path fill="none" stroke="#000000" stroke-width="8" stroke-linecap="round" stroke-linejoin="round" stroke-miterlimit="10" d="
			M240.706,122.161c1.33,4.826,2.117,10.065,1.873,15.51c-0.238,5.313-1.438,10.341-3.127,14.936"/>
		<path fill="none" stroke="#000000" stroke-width="8" stroke-linecap="round" stroke-linejoin="round" stroke-miterlimit="10" d="
			M223.875,177.202c0.139-0.144,0.293-0.305,0.464-0.487"/>
		<path fill="none" stroke="#000000" stroke-width="8" stroke-linecap="round" stroke-linejoin="round" stroke-miterlimit="10" d="
			M224.814,176.203c3.273-3.564,10.465-12.242,14.638-23.596"/>
		<path fill="none" stroke="#000000" stroke-width="8" stroke-linecap="round" stroke-linejoin="round" stroke-miterlimit="10" d="
			M223.627,177.457c-0.332,0.338-0.522,0.521-0.522,0.521s-10.53-12.035-14.413-28.311"/>
		<path fill="none" stroke="#000000" stroke-width="8" stroke-linecap="round" stroke-linejoin="round" stroke-miterlimit="10" d="
			M223.875,177.202c-0.091,0.095-0.172,0.177-0.248,0.255"/>
		<path fill="none" stroke="#000000" stroke-width="8" stroke-linecap="round" stroke-linejoin="round" stroke-miterlimit="10" d="
			M224.339,176.715c0.147-0.157,0.306-0.327,0.476-0.512"/>
		<path fill="none" stroke="#000000" stroke-width="8" stroke-linecap="round" stroke-linejoin="round" stroke-miterlimit="10" d="
			M214.915,223.854c-14.801-20.78-40.348-29.307-40.348-29.307s-5.812,19.413-1.821,40.266"/>
		<path fill="none" stroke="#000000" stroke-width="8" stroke-linecap="round" stroke-linejoin="round" stroke-miterlimit="10" d="
			M237.165,232.622c-0.346,0.728-0.671,1.458-0.982,2.192"/>
		<path fill="none" stroke="#000000" stroke-width="8" stroke-linecap="round" stroke-linejoin="round" stroke-miterlimit="10" d="
			M277.267,254.461"/>
		<path fill="none" stroke="#000000" stroke-width="8" stroke-linecap="round" stroke-linejoin="round" stroke-miterlimit="10" d="
			M284.486,234.814c3.99-20.854-1.822-40.266-1.822-40.266s-31.196,10.41-44.614,36.264c-0.312,0.6-0.598,1.205-0.885,1.81"/>
		
			<line fill="none" stroke="#000000" stroke-width="8" stroke-linecap="round" stroke-linejoin="round" stroke-miterlimit="10" x1="226.771" y1="177.91" x2="226.771" y2="176.518"/>
		
			<line fill="none" stroke="#000000" stroke-width="8" stroke-linecap="round" stroke-linejoin="round" stroke-miterlimit="10" x1="226.771" y1="176.518" x2="226.771" y2="176.13"/>
		
			<line fill="none" stroke="#000000" stroke-width="8" stroke-linecap="round" stroke-linejoin="round" stroke-miterlimit="10" x1="226.771" y1="177.91" x2="226.771" y2="203.219"/>
		<path fill="none" stroke="#000000" stroke-width="8" stroke-linecap="round" stroke-linejoin="round" stroke-miterlimit="10" d="
			M224.583,177.195c0.07-0.29,0.146-0.615,0.231-0.992"/>
		<path fill="none" stroke="#000000" stroke-width="8" stroke-linecap="round" stroke-linejoin="round" stroke-miterlimit="10" d="
			M225.12,174.755c-0.106,0.532-0.21,1.021-0.306,1.448"/>
		<path fill="none" stroke="#000000" stroke-width="8" stroke-linecap="round" stroke-linejoin="round" stroke-miterlimit="10" d="
			M224.539,177.375c0.014-0.055,0.029-0.121,0.044-0.179"/>
		<path fill="none" stroke="#000000" stroke-width="8" stroke-linecap="round" stroke-linejoin="round" stroke-miterlimit="10" d="
			M224.238,178.518c0,0-24.151-8.215-34.619-28.381c-2.491-4.799-3.975-9.84-4.802-14.74"/>
		<path fill="none" stroke="#000000" stroke-width="8" stroke-linecap="round" stroke-linejoin="round" stroke-miterlimit="10" d="
			M224.238,178.518c0,0,0.118-0.405,0.301-1.144"/>
		<path fill="none" stroke="#000000" stroke-width="8" stroke-linecap="round" stroke-linejoin="round" stroke-miterlimit="10" d="
			M210.677,120.511"/>
		<path fill="none" stroke="#000000" stroke-width="8" stroke-linecap="round" stroke-linejoin="round" stroke-miterlimit="10" d="
			M225.2,145.758"/>
		<path fill="none" stroke="#000000" stroke-width="8" stroke-linecap="round" stroke-linejoin="round" stroke-miterlimit="10" d="
			M184.817,135.396c-2.646-15.688,1.515-29.905,1.515-29.905s13.226,4.506,24.345,15.02"/>
		<path fill="none" stroke="#000000" stroke-width="8" stroke-linecap="round" stroke-linejoin="round" stroke-miterlimit="10" d="
			M224.237,177.292c0.105-0.03,0.218-0.061,0.346-0.097"/>
		<path fill="none" stroke="#000000" stroke-width="8" stroke-linecap="round" stroke-linejoin="round" stroke-miterlimit="10" d="
			M266.68,137.944c3.996-15.345,1.137-29.804,1.137-29.804s-14.751,3.591-27.11,14.02"/>
		<path fill="none" stroke="#000000" stroke-width="8" stroke-linecap="round" stroke-linejoin="round" stroke-miterlimit="10" d="
			M223.627,177.457c-0.062,0.016-0.101,0.025-0.101,0.025s-0.191-0.973-0.405-2.664"/>
		<path fill="none" stroke="#000000" stroke-width="8" stroke-linecap="round" stroke-linejoin="round" stroke-miterlimit="10" d="
			M223.927,177.377c-0.13,0.035-0.234,0.063-0.3,0.079"/>
		<path fill="none" stroke="#000000" stroke-width="8" stroke-linecap="round" stroke-linejoin="round" stroke-miterlimit="10" d="
			M226.771,176.518c-0.902,0.297-1.644,0.521-2.188,0.678"/>
		<path fill="none" stroke="#000000" stroke-width="8" stroke-linecap="round" stroke-linejoin="round" stroke-miterlimit="10" d="
			M223.927,177.377c0.091-0.024,0.19-0.052,0.311-0.085"/>
		<path fill="none" stroke="#000000" stroke-width="8" stroke-linecap="round" stroke-linejoin="round" stroke-miterlimit="10" d="
			M266.68,137.944c-1.262,4.844-3.199,9.775-6.134,14.369c-9.521,14.907-26.652,21.856-33.774,24.204"/>
		<path fill="none" stroke="#000000" stroke-width="8" stroke-linecap="round" stroke-linejoin="round" stroke-miterlimit="10" d="
			M224.237,177.292c-0.06-0.017-0.098-0.028-0.098-0.028s0.068-0.198,0.199-0.55"/>
		<path fill="none" stroke="#000000" stroke-width="8" stroke-linecap="round" stroke-linejoin="round" stroke-miterlimit="10" d="
			M224.539,177.375c0.424,0.113,1.184,0.306,2.232,0.536"/>
		<path fill="none" stroke="#000000" stroke-width="8" stroke-linecap="round" stroke-linejoin="round" stroke-miterlimit="10" d="
			M225.12,174.755c-0.361,0.862-0.622,1.532-0.781,1.96"/>
		<path fill="none" stroke="#000000" stroke-width="8" stroke-linecap="round" stroke-linejoin="round" stroke-miterlimit="10" d="
			M224.237,177.292c0.064,0.018,0.171,0.047,0.302,0.082"/>
		<path fill="none" stroke="#000000" stroke-width="8" stroke-linecap="round" stroke-linejoin="round" stroke-miterlimit="10" d="
			M266.68,137.944c15.917-2.852,30.487,1.414,30.487,1.414s-8.216,24.152-28.383,34.619c-16.198,8.409-35.173,5.43-42.013,3.933"/>
		<path fill="none" stroke="#000000" stroke-width="8" stroke-linecap="round" stroke-linejoin="round" stroke-miterlimit="10" d="
			M224.238,178.518c0,0-0.1-0.409-0.312-1.141"/>
		<path fill="none" stroke="#000000" stroke-width="8" stroke-linecap="round" stroke-linejoin="round" stroke-miterlimit="10" d="
			M208.691,149.667"/>
		<path fill="none" stroke="#000000" stroke-width="8" stroke-linecap="round" stroke-linejoin="round" stroke-miterlimit="10" d="
			M223.121,174.818"/>
		<path fill="none" stroke="#000000" stroke-width="8" stroke-linecap="round" stroke-linejoin="round" stroke-miterlimit="10" d="
			M223.927,177.377c-0.016-0.054-0.035-0.119-0.052-0.176"/>
		<path fill="none" stroke="#000000" stroke-width="8" stroke-linecap="round" stroke-linejoin="round" stroke-miterlimit="10" d="
			M184.817,135.396c-15.389-4.041-29.92-1.169-29.92-1.169s6.021,24.791,25.169,37.021c19.148,12.23,44.172,7.269,44.172,7.269"/>
		<path fill="none" stroke="#000000" stroke-width="8" stroke-linecap="round" stroke-linejoin="round" stroke-miterlimit="10" d="
			M223.875,177.202c-0.179-0.611-0.428-1.417-0.754-2.384"/>
		<path fill="none" stroke="#000000" stroke-width="8" stroke-linecap="round" stroke-linejoin="round" stroke-miterlimit="10" d="
			M236.788,234.814c0.148-0.72,0.277-1.451,0.377-2.192"/>
		<path fill="none" stroke="#000000" stroke-width="8" stroke-linecap="round" stroke-linejoin="round" stroke-miterlimit="10" d="
			M214.915,223.854c-0.247,1.563-0.387,3.171-0.375,4.816c0.015,2.118,0.275,4.173,0.701,6.144"/>
		<path fill="none" stroke="#000000" stroke-width="8" stroke-linecap="round" stroke-linejoin="round" stroke-miterlimit="10" d="
			M214.915,223.854c1.942-12.321,10.884-21.711,10.884-21.711s0.37,0.379,0.973,1.076"/>
		<path fill="none" stroke="#000000" stroke-width="8" stroke-linecap="round" stroke-linejoin="round" stroke-miterlimit="10" d="
			M226.771,203.219c2.777,3.211,10.576,13.285,10.66,25.288c0.011,1.399-0.087,2.773-0.267,4.115"/>
		
			<polyline fill="none" stroke="#000000" stroke-width="8" stroke-linecap="round" stroke-linejoin="round" stroke-miterlimit="10" points="
			156.082,254.461 184.678,357.763 268.86,357.763 297.464,254.461 		"/>
		
			<polyline fill="none" stroke="#000000" stroke-width="8" stroke-linecap="round" stroke-linejoin="round" stroke-miterlimit="10" points="
			297.464,254.461 307.03,254.461 307.03,234.814 302.903,234.814 		"/>
		
			<polyline fill="none" stroke="#000000" stroke-width="8" stroke-linecap="round" stroke-linejoin="round" stroke-miterlimit="10" points="
			150.644,234.814 146.514,234.814 146.514,254.461 156.082,254.461 		"/>
		
			<line fill="none" stroke="#000000" stroke-width="8" stroke-linecap="round" stroke-linejoin="round" stroke-miterlimit="10" x1="297.464" y1="254.461" x2="277.267" y2="254.461"/>
		
			<line fill="none" stroke="#000000" stroke-width="8" stroke-linecap="round" stroke-linejoin="round" stroke-miterlimit="10" x1="282.64" y1="254.461" x2="156.082" y2="254.461"/>
		
			<line fill="none" stroke="#000000" stroke-width="8" stroke-linecap="round" stroke-linejoin="round" stroke-miterlimit="10" x1="284.486" y1="234.814" x2="236.788" y2="234.814"/>
		
			<line fill="none" stroke="#000000" stroke-width="8" stroke-linecap="round" stroke-linejoin="round" stroke-miterlimit="10" x1="172.746" y1="234.814" x2="215.241" y2="234.814"/>
		
			<line fill="none" stroke="#000000" stroke-width="8" stroke-linecap="round" stroke-linejoin="round" stroke-miterlimit="10" x1="221.05" y1="234.814" x2="226.771" y2="234.814"/>
		
			<line fill="none" stroke="#000000" stroke-width="8" stroke-linecap="round" stroke-linejoin="round" stroke-miterlimit="10" x1="236.788" y1="234.814" x2="236.183" y2="234.814"/>
		
			<line fill="none" stroke="#000000" stroke-width="8" stroke-linecap="round" stroke-linejoin="round" stroke-miterlimit="10" x1="150.644" y1="234.814" x2="172.746" y2="234.814"/>
		
			<line fill="none" stroke="#000000" stroke-width="8" stroke-linecap="round" stroke-linejoin="round" stroke-miterlimit="10" x1="236.183" y1="234.814" x2="226.771" y2="234.814"/>
		
			<line fill="none" stroke="#000000" stroke-width="8" stroke-linecap="round" stroke-linejoin="round" stroke-miterlimit="10" x1="284.486" y1="234.814" x2="302.903" y2="234.814"/>
		
			<line fill="none" stroke="#000000" stroke-width="8" stroke-linecap="round" stroke-linejoin="round" stroke-miterlimit="10" x1="221.05" y1="234.814" x2="215.241" y2="234.814"/>
	</g>
</g>
<g id="pivot">
	<circle fill="none" cx="226.607" cy="355.916" r="14.133"/>
</g>
</svg>
