<?xml version="1.0" encoding="utf-8"?>
<!-- Generator: Adobe Illustrator 16.0.0, SVG Export Plug-In . SVG Version: 6.00 Build 0)  -->
<!DOCTYPE svg PUBLIC "-//W3C//DTD SVG 1.1//EN" "http://www.w3.org/Graphics/SVG/1.1/DTD/svg11.dtd">
<svg version="1.1" xmlns="http://www.w3.org/2000/svg" xmlns:xlink="http://www.w3.org/1999/xlink" x="0px" y="0px"
	 width="453.544px" height="453.543px" viewBox="0 0 453.544 453.543" enable-background="new 0 0 453.544 453.543"
	 xml:space="preserve">
<g id="kvadrat" display="none">
</g>
<g id="color">
	<g id="rdeča7bela">
	</g>
	<g>
		<g>
			
				<path fill="#2D2E82" stroke="#000000" stroke-width="8" stroke-linecap="round" stroke-linejoin="round" stroke-miterlimit="10" d="
				M223.104,177.978c0,0-16.808-19.191-15.789-41.889c1.018-22.698,19.477-40.308,19.477-40.308s16.809,19.191,15.79,41.89
				C241.564,160.368,223.104,177.978,223.104,177.978z"/>
			
				<path fill="#39A935" stroke="#000000" stroke-width="8" stroke-linecap="round" stroke-linejoin="round" stroke-miterlimit="10" d="
				M223.165,288.167c0,0-31.197-10.41-44.616-36.263c-13.419-25.854-3.979-57.356-3.979-57.356s31.195,10.41,44.615,36.264
				C232.604,256.663,223.165,288.167,223.165,288.167z"/>
			
				<path fill="#39A935" stroke="#000000" stroke-width="8" stroke-linecap="round" stroke-linejoin="round" stroke-miterlimit="10" d="
				M234.069,288.167c0,0,31.197-10.41,44.616-36.263c13.419-25.854,3.979-57.356,3.979-57.356s-31.196,10.41-44.615,36.264
				C224.63,256.663,234.069,288.167,234.069,288.167z"/>
			
				<line fill="#FFCF00" stroke="#000000" stroke-width="8" stroke-linecap="round" stroke-linejoin="round" stroke-miterlimit="10" x1="226.772" y1="176.13" x2="226.772" y2="286.177"/>
			
				<path fill="#0073B3" stroke="#000000" stroke-width="8" stroke-linecap="round" stroke-linejoin="round" stroke-miterlimit="10" d="
				M224.239,178.518c0,0-24.152-8.215-34.619-28.381c-10.468-20.166-3.287-44.646-3.287-44.646s24.153,8.215,34.619,28.383
				C231.421,154.038,224.239,178.518,224.239,178.518z"/>
			
				<path fill="#0073B3" stroke="#000000" stroke-width="8" stroke-linecap="round" stroke-linejoin="round" stroke-miterlimit="10" d="
				M223.527,177.482c0,0-4.961-25.024,7.27-44.171c12.23-19.148,37.02-25.17,37.02-25.17s4.963,25.024-7.27,44.173
				C248.318,171.461,223.527,177.482,223.527,177.482z"/>
			
				<path fill="#57B2E5" stroke="#000000" stroke-width="8" stroke-linecap="round" stroke-linejoin="round" stroke-miterlimit="10" d="
				M224.142,177.265c0,0,8.216-24.152,28.38-34.619c20.166-10.468,44.646-3.287,44.646-3.287s-8.216,24.152-28.384,34.619
				C248.622,184.445,224.142,177.265,224.142,177.265z"/>
			
				<path fill="#57B2E5" stroke="#000000" stroke-width="8" stroke-linecap="round" stroke-linejoin="round" stroke-miterlimit="10" d="
				M224.239,178.518c0,0-25.023,4.961-44.172-7.269s-25.17-37.021-25.17-37.021s25.025-4.96,44.174,7.271
				C218.22,153.728,224.239,178.518,224.239,178.518z"/>
			
				<path fill="#39A935" stroke="#000000" stroke-width="8" stroke-linecap="round" stroke-linejoin="round" stroke-miterlimit="10" d="
				M226.175,255.036c0,0-11.529-11.76-11.634-26.365c-0.104-14.607,11.259-26.527,11.259-26.527s11.53,11.759,11.633,26.364
				C237.539,243.114,226.175,255.036,226.175,255.036z"/>
		</g>
		<g>
			
				<polygon fill="#AB5C2E" stroke="#000000" stroke-width="8" stroke-linecap="round" stroke-linejoin="round" stroke-miterlimit="10" points="
				268.861,357.763 184.678,357.763 150.645,234.814 302.904,234.814 			"/>
			
				<rect x="146.514" y="234.814" fill="#BF6735" stroke="#000000" stroke-width="8" stroke-linecap="round" stroke-linejoin="round" stroke-miterlimit="10" width="160.518" height="19.647"/>
		</g>
	</g>
</g>
<g id="cb" display="none">
	<g id="rdeča7bela_copy" display="inline">
	</g>
	<g display="inline">
		<path fill="none" stroke="#000000" stroke-width="8" stroke-linecap="round" stroke-linejoin="round" stroke-miterlimit="10" d="
			M223.876,177.2c0.139-0.145,0.295-0.308,0.467-0.49"/>
		<path fill="none" stroke="#000000" stroke-width="8" stroke-linecap="round" stroke-linejoin="round" stroke-miterlimit="10" d="
			M240.708,122.16c-4.213-15.287-13.917-26.379-13.917-26.379s-10.52,10.042-16.112,24.73"/>
		<path fill="none" stroke="#000000" stroke-width="8" stroke-linecap="round" stroke-linejoin="round" stroke-miterlimit="10" d="
			M224.343,176.71c0.146-0.157,0.305-0.325,0.473-0.509"/>
		<path fill="none" stroke="#000000" stroke-width="8" stroke-linecap="round" stroke-linejoin="round" stroke-miterlimit="10" d="
			M223.876,177.2c-0.093,0.096-0.174,0.179-0.251,0.257"/>
		<path fill="none" stroke="#000000" stroke-width="8" stroke-linecap="round" stroke-linejoin="round" stroke-miterlimit="10" d="
			M214.916,223.854c-14.802-20.78-40.347-29.307-40.347-29.307s-5.812,19.413-1.822,40.266"/>
		<path fill="none" stroke="#000000" stroke-width="8" stroke-linecap="round" stroke-linejoin="round" stroke-miterlimit="10" d="
			M237.166,232.619c-0.345,0.729-0.671,1.46-0.983,2.195"/>
		<path fill="none" stroke="#000000" stroke-width="8" stroke-linecap="round" stroke-linejoin="round" stroke-miterlimit="10" d="
			M284.487,234.814c3.989-20.854-1.822-40.266-1.822-40.266s-31.196,10.41-44.615,36.264c-0.311,0.599-0.597,1.203-0.884,1.808"/>
		
			<line fill="none" stroke="#000000" stroke-width="8" stroke-linecap="round" stroke-linejoin="round" stroke-miterlimit="10" x1="226.772" y1="176.518" x2="226.772" y2="176.13"/>
		
			<line fill="none" stroke="#000000" stroke-width="8" stroke-linecap="round" stroke-linejoin="round" stroke-miterlimit="10" x1="226.772" y1="177.91" x2="226.772" y2="176.518"/>
		
			<line fill="none" stroke="#000000" stroke-width="8" stroke-linecap="round" stroke-linejoin="round" stroke-miterlimit="10" x1="226.772" y1="177.91" x2="226.772" y2="203.219"/>
		<path fill="none" stroke="#000000" stroke-width="8" stroke-linecap="round" stroke-linejoin="round" stroke-miterlimit="10" d="
			M224.583,177.195c0.071-0.29,0.148-0.617,0.232-0.995"/>
		<path fill="none" stroke="#000000" stroke-width="8" stroke-linecap="round" stroke-linejoin="round" stroke-miterlimit="10" d="
			M225.121,174.759c-0.106,0.529-0.21,1.016-0.306,1.442"/>
		<path fill="none" stroke="#000000" stroke-width="8" stroke-linecap="round" stroke-linejoin="round" stroke-miterlimit="10" d="
			M224.54,177.374c0.014-0.055,0.029-0.121,0.043-0.179"/>
		<path fill="none" stroke="#000000" stroke-width="8" stroke-linecap="round" stroke-linejoin="round" stroke-miterlimit="10" d="
			M224.239,178.518c0,0-24.152-8.215-34.619-28.381c-2.491-4.799-3.975-9.84-4.801-14.74"/>
		<path fill="none" stroke="#000000" stroke-width="8" stroke-linecap="round" stroke-linejoin="round" stroke-miterlimit="10" d="
			M224.239,178.518c0,0,0.118-0.405,0.301-1.144"/>
		<path fill="none" stroke="#000000" stroke-width="8" stroke-linecap="round" stroke-linejoin="round" stroke-miterlimit="10" d="
			M225.2,145.758c2.631,11.852,1.068,23.296-0.079,29"/>
		<path fill="none" stroke="#000000" stroke-width="8" stroke-linecap="round" stroke-linejoin="round" stroke-miterlimit="10" d="
			M184.819,135.396c-2.648-15.688,1.514-29.905,1.514-29.905s13.226,4.506,24.346,15.02"/>
		<path fill="none" stroke="#000000" stroke-width="8" stroke-linecap="round" stroke-linejoin="round" stroke-miterlimit="10" d="
			M225.2,145.758c-0.884-3.985-2.238-8.014-4.248-11.884c-2.721-5.242-6.368-9.67-10.273-13.363"/>
		<path fill="none" stroke="#000000" stroke-width="8" stroke-linecap="round" stroke-linejoin="round" stroke-miterlimit="10" d="
			M223.928,177.377c0.091-0.024,0.191-0.052,0.312-0.085"/>
		<path fill="none" stroke="#000000" stroke-width="8" stroke-linecap="round" stroke-linejoin="round" stroke-miterlimit="10" d="
			M223.928,177.377c-0.131,0.035-0.237,0.063-0.303,0.08"/>
		<path fill="none" stroke="#000000" stroke-width="8" stroke-linecap="round" stroke-linejoin="round" stroke-miterlimit="10" d="
			M224.239,177.292c0.105-0.029,0.217-0.061,0.344-0.097"/>
		<path fill="none" stroke="#000000" stroke-width="8" stroke-linecap="round" stroke-linejoin="round" stroke-miterlimit="10" d="
			M266.681,137.944c3.995-15.346,1.136-29.804,1.136-29.804s-14.75,3.591-27.108,14.02"/>
		<path fill="none" stroke="#000000" stroke-width="8" stroke-linecap="round" stroke-linejoin="round" stroke-miterlimit="10" d="
			M240.708,122.16c-3.662,3.09-7.115,6.773-9.911,11.15c-2.547,3.987-4.341,8.229-5.597,12.448"/>
		<path fill="none" stroke="#000000" stroke-width="8" stroke-linecap="round" stroke-linejoin="round" stroke-miterlimit="10" d="
			M266.681,137.944c-1.262,4.844-3.199,9.775-6.134,14.369c-9.521,14.907-26.652,21.856-33.774,24.204"/>
		<path fill="none" stroke="#000000" stroke-width="8" stroke-linecap="round" stroke-linejoin="round" stroke-miterlimit="10" d="
			M223.625,177.457c-0.06,0.016-0.098,0.025-0.098,0.025s-0.19-0.973-0.405-2.664"/>
		<path fill="none" stroke="#000000" stroke-width="8" stroke-linecap="round" stroke-linejoin="round" stroke-miterlimit="10" d="
			M226.772,176.518c-0.902,0.297-1.645,0.521-2.189,0.678"/>
		<path fill="none" stroke="#000000" stroke-width="8" stroke-linecap="round" stroke-linejoin="round" stroke-miterlimit="10" d="
			M224.239,177.292c-0.06-0.017-0.098-0.027-0.098-0.027s0.068-0.199,0.201-0.555"/>
		<path fill="none" stroke="#000000" stroke-width="8" stroke-linecap="round" stroke-linejoin="round" stroke-miterlimit="10" d="
			M224.54,177.374c0.424,0.113,1.184,0.306,2.232,0.536"/>
		<path fill="none" stroke="#000000" stroke-width="8" stroke-linecap="round" stroke-linejoin="round" stroke-miterlimit="10" d="
			M224.239,177.292c0.064,0.019,0.17,0.047,0.301,0.082"/>
		<path fill="none" stroke="#000000" stroke-width="8" stroke-linecap="round" stroke-linejoin="round" stroke-miterlimit="10" d="
			M266.681,137.944c15.917-2.852,30.487,1.414,30.487,1.414s-8.216,24.152-28.384,34.619c-16.198,8.409-35.173,5.43-42.012,3.933"/>
		<path fill="none" stroke="#000000" stroke-width="8" stroke-linecap="round" stroke-linejoin="round" stroke-miterlimit="10" d="
			M225.121,174.759c-0.36,0.856-0.619,1.523-0.778,1.951"/>
		<path fill="none" stroke="#000000" stroke-width="8" stroke-linecap="round" stroke-linejoin="round" stroke-miterlimit="10" d="
			M224.239,178.518c0,0-0.1-0.409-0.312-1.141"/>
		<path fill="none" stroke="#000000" stroke-width="8" stroke-linecap="round" stroke-linejoin="round" stroke-miterlimit="10" d="
			M223.876,177.2c-0.179-0.61-0.428-1.416-0.754-2.382"/>
		<path fill="none" stroke="#000000" stroke-width="8" stroke-linecap="round" stroke-linejoin="round" stroke-miterlimit="10" d="
			M184.819,135.396c-15.39-4.041-29.922-1.169-29.922-1.169s6.021,24.791,25.17,37.021s44.172,7.269,44.172,7.269"/>
		<path fill="none" stroke="#000000" stroke-width="8" stroke-linecap="round" stroke-linejoin="round" stroke-miterlimit="10" d="
			M223.928,177.377c-0.016-0.054-0.035-0.12-0.052-0.177"/>
		<path fill="none" stroke="#000000" stroke-width="8" stroke-linecap="round" stroke-linejoin="round" stroke-miterlimit="10" d="
			M214.916,223.854c1.942-12.322,10.884-21.711,10.884-21.711s0.371,0.379,0.973,1.076"/>
		<path fill="none" stroke="#000000" stroke-width="8" stroke-linecap="round" stroke-linejoin="round" stroke-miterlimit="10" d="
			M214.916,223.854c-0.247,1.563-0.387,3.171-0.375,4.816c0.015,2.118,0.276,4.173,0.702,6.144"/>
		<path fill="none" stroke="#000000" stroke-width="8" stroke-linecap="round" stroke-linejoin="round" stroke-miterlimit="10" d="
			M226.772,203.219c2.777,3.211,10.576,13.285,10.66,25.288c0.01,1.398-0.086,2.771-0.267,4.112"/>
		<path fill="none" stroke="#000000" stroke-width="8" stroke-linecap="round" stroke-linejoin="round" stroke-miterlimit="10" d="
			M236.79,234.814c0.148-0.721,0.276-1.452,0.376-2.195"/>
		
			<polyline fill="none" stroke="#000000" stroke-width="8" stroke-linecap="round" stroke-linejoin="round" stroke-miterlimit="10" points="
			156.083,254.461 184.678,357.763 268.861,357.763 297.464,254.461 		"/>
		
			<line fill="none" stroke="#000000" stroke-width="8" stroke-linecap="round" stroke-linejoin="round" stroke-miterlimit="10" x1="297.464" y1="254.461" x2="277.268" y2="254.461"/>
		
			<polyline fill="none" stroke="#000000" stroke-width="8" stroke-linecap="round" stroke-linejoin="round" stroke-miterlimit="10" points="
			297.464,254.461 307.031,254.461 307.031,234.814 302.904,234.814 		"/>
		
			<line fill="none" stroke="#000000" stroke-width="8" stroke-linecap="round" stroke-linejoin="round" stroke-miterlimit="10" x1="277.268" y1="254.461" x2="174.85" y2="254.461"/>
		
			<polyline fill="none" stroke="#000000" stroke-width="8" stroke-linecap="round" stroke-linejoin="round" stroke-miterlimit="10" points="
			150.645,234.814 146.514,234.814 146.514,254.461 156.083,254.461 		"/>
		
			<line fill="none" stroke="#000000" stroke-width="8" stroke-linecap="round" stroke-linejoin="round" stroke-miterlimit="10" x1="179.967" y1="254.461" x2="156.083" y2="254.461"/>
		
			<line fill="none" stroke="#000000" stroke-width="8" stroke-linecap="round" stroke-linejoin="round" stroke-miterlimit="10" x1="284.487" y1="234.814" x2="236.79" y2="234.814"/>
		
			<line fill="none" stroke="#000000" stroke-width="8" stroke-linecap="round" stroke-linejoin="round" stroke-miterlimit="10" x1="172.747" y1="234.814" x2="215.243" y2="234.814"/>
		
			<line fill="none" stroke="#000000" stroke-width="8" stroke-linecap="round" stroke-linejoin="round" stroke-miterlimit="10" x1="221.052" y1="234.814" x2="226.772" y2="234.814"/>
		
			<line fill="none" stroke="#000000" stroke-width="8" stroke-linecap="round" stroke-linejoin="round" stroke-miterlimit="10" x1="150.645" y1="234.814" x2="172.747" y2="234.814"/>
		
			<line fill="none" stroke="#000000" stroke-width="8" stroke-linecap="round" stroke-linejoin="round" stroke-miterlimit="10" x1="236.79" y1="234.814" x2="236.183" y2="234.814"/>
		
			<line fill="none" stroke="#000000" stroke-width="8" stroke-linecap="round" stroke-linejoin="round" stroke-miterlimit="10" x1="221.052" y1="234.814" x2="215.243" y2="234.814"/>
		
			<line fill="none" stroke="#000000" stroke-width="8" stroke-linecap="round" stroke-linejoin="round" stroke-miterlimit="10" x1="284.487" y1="234.814" x2="302.904" y2="234.814"/>
		
			<line fill="none" stroke="#000000" stroke-width="8" stroke-linecap="round" stroke-linejoin="round" stroke-miterlimit="10" x1="236.183" y1="234.814" x2="226.772" y2="234.814"/>
	</g>
</g>
<g id="pivot">
	<circle fill="none" cx="225.63" cy="355.916" r="14.133"/>
</g>
</svg>
