<?xml version="1.0" encoding="utf-8"?>
<!-- Generator: Adobe Illustrator 16.0.0, SVG Export Plug-In . SVG Version: 6.00 Build 0)  -->
<!DOCTYPE svg PUBLIC "-//W3C//DTD SVG 1.1//EN" "http://www.w3.org/Graphics/SVG/1.1/DTD/svg11.dtd">
<svg version="1.1" xmlns="http://www.w3.org/2000/svg" xmlns:xlink="http://www.w3.org/1999/xlink" x="0px" y="0px"
	 width="453.543px" height="453.543px" viewBox="0 0 453.543 453.543" enable-background="new 0 0 453.543 453.543"
	 xml:space="preserve">
<g id="kvadrat" display="none">
</g>
<g id="color">
	<g>
		
			<path fill="#93C01F" stroke="#000000" stroke-width="8" stroke-linecap="round" stroke-linejoin="round" stroke-miterlimit="10" d="
			M333.005,79.537C81.52,66.824,49.447,297.52,173.685,276.819c-19.806,40.116-27.163,97.694-27.163,97.694l15.224-10.656
			c0,0,4.086-42.673,23.323-81.513C228.582,368.736,405.871,285.699,333.005,79.537z"/>
		<path fill="none" stroke="#000000" stroke-width="6" stroke-linecap="round" stroke-linejoin="round" stroke-miterlimit="10" d="
			M293.456,118.967c-33.106,23.763-71.578,70.77-100.313,129.34"/>
		<path fill="none" stroke="#000000" stroke-width="6" stroke-linecap="round" stroke-linejoin="round" stroke-miterlimit="10" d="
			M240.637,119.436c-2.515-4.224,11.189,20.781,2.995,47.681"/>
		<path fill="none" stroke="#000000" stroke-width="6" stroke-linecap="round" stroke-linejoin="round" stroke-miterlimit="10" d="
			M287.602,192.491c0,0-37.543-12.196-64.943,4.984"/>
		<path fill="none" stroke="#000000" stroke-width="6" stroke-linecap="round" stroke-linejoin="round" stroke-miterlimit="10" d="
			M185.723,197.476c8.069,11.783,13.556,27.702,13.093,39.936"/>
	</g>
	<g id="rdeča7bela">
	</g>
</g>
<g id="cb" display="none">
	<g display="inline">
		<path fill="none" stroke="#000000" stroke-width="8" stroke-linecap="round" stroke-linejoin="round" stroke-miterlimit="10" d="
			M333.005,79.537C81.52,66.824,49.447,297.52,173.685,276.819c-19.806,40.116-27.163,97.694-27.163,97.694l15.224-10.656
			c0,0,4.086-42.673,23.323-81.513C228.582,368.736,405.871,285.699,333.005,79.537z"/>
		<path fill="none" stroke="#000000" stroke-width="6" stroke-linecap="round" stroke-linejoin="round" stroke-miterlimit="10" d="
			M293.456,118.967c-33.106,23.763-71.578,70.77-100.313,129.34"/>
		<path fill="none" stroke="#000000" stroke-width="6" stroke-linecap="round" stroke-linejoin="round" stroke-miterlimit="10" d="
			M240.637,119.436c-2.515-4.224,11.189,20.781,2.995,47.681"/>
		<path fill="none" stroke="#000000" stroke-width="6" stroke-linecap="round" stroke-linejoin="round" stroke-miterlimit="10" d="
			M287.602,192.491c0,0-37.543-12.196-64.943,4.984"/>
		<path fill="none" stroke="#000000" stroke-width="6" stroke-linecap="round" stroke-linejoin="round" stroke-miterlimit="10" d="
			M185.723,197.476c8.069,11.783,13.556,27.702,13.093,39.936"/>
	</g>
	<g id="rdeča7bela_copy" display="inline">
	</g>
</g>
<g id="pivot">
	<circle fill="none" cx="182.66" cy="360.256" r="14.133"/>
</g>
</svg>
