<?xml version="1.0" encoding="utf-8"?>
<!-- Generator: Adobe Illustrator 16.0.0, SVG Export Plug-In . SVG Version: 6.00 Build 0)  -->
<!DOCTYPE svg PUBLIC "-//W3C//DTD SVG 1.1//EN" "http://www.w3.org/Graphics/SVG/1.1/DTD/svg11.dtd">
<svg version="1.1" xmlns="http://www.w3.org/2000/svg" xmlns:xlink="http://www.w3.org/1999/xlink" x="0px" y="0px"
	 width="453.543px" height="453.543px" viewBox="0 0 453.543 453.543" enable-background="new 0 0 453.543 453.543"
	 xml:space="preserve">
<g id="kvadrat" display="none">
</g>
<g id="color">
	<g>
		<g>
			
				<path fill="#FFFFFF" stroke="#000000" stroke-width="7" stroke-linecap="round" stroke-linejoin="round" stroke-miterlimit="10" d="
				M205.958,190.646c-6.661-9.958-40.605-62.293-42.649-66.204c-4.533-10.904,0.598-23.444,11.42-27.947
				c10.995-4.565,23.613,0.592,28.026,11.16c0.737,2.381,5.607,23.969,16.954,77.334
				C214.749,186.077,210.12,188.017,205.958,190.646z"/>
			
				<path fill="#FFFFFF" stroke="#000000" stroke-width="7" stroke-linecap="round" stroke-linejoin="round" stroke-miterlimit="10" d="
				M186.509,215.943c-11.751-2.331-72.76-15.336-76.971-16.655c-10.917-4.505-16.156-17.001-11.688-27.837
				c4.547-11.003,17.116-16.279,27.709-11.926c2.204,1.162,20.913,12.982,66.672,42.694
				C189.495,206.497,187.592,211.143,186.509,215.943z"/>
			
				<path fill="#FFFFFF" stroke="#000000" stroke-width="7" stroke-linecap="round" stroke-linejoin="round" stroke-miterlimit="10" d="
				M190.645,247.584c-9.958,6.662-62.294,40.605-66.204,42.649c-10.904,4.534-23.445-0.597-27.948-11.418
				c-4.565-10.997,0.593-23.615,11.161-28.027c2.381-0.736,23.969-5.608,77.334-16.955
				C186.077,238.794,188.015,243.424,190.645,247.584z"/>
			
				<path fill="#FFFFFF" stroke="#000000" stroke-width="7" stroke-linecap="round" stroke-linejoin="round" stroke-miterlimit="10" d="
				M215.943,267.034c-2.331,11.751-15.336,72.761-16.655,76.971c-4.505,10.916-17.001,16.156-27.837,11.687
				c-11.004-4.546-16.279-17.115-11.926-27.709c1.162-2.205,12.982-20.914,42.694-66.673
				C206.497,264.049,211.142,265.951,215.943,267.034z"/>
			
				<path fill="#FFFFFF" stroke="#000000" stroke-width="7" stroke-linecap="round" stroke-linejoin="round" stroke-miterlimit="10" d="
				M247.584,262.898c6.661,9.959,40.605,62.293,42.649,66.203c4.533,10.905-0.598,23.446-11.419,27.948
				c-10.996,4.565-23.613-0.591-28.026-11.161c-0.737-2.38-5.608-23.969-16.955-77.334
				C238.794,267.467,243.423,265.527,247.584,262.898z"/>
			
				<path fill="#FFFFFF" stroke="#000000" stroke-width="7" stroke-linecap="round" stroke-linejoin="round" stroke-miterlimit="10" d="
				M267.033,237.601c11.753,2.332,72.761,15.335,76.972,16.655c10.917,4.505,16.155,17.001,11.687,27.837
				c-4.546,11.003-17.115,16.279-27.709,11.926c-2.205-1.161-20.914-12.983-66.672-42.694
				C264.048,247.046,265.951,242.401,267.033,237.601z"/>
			
				<path fill="#FFFFFF" stroke="#000000" stroke-width="7" stroke-linecap="round" stroke-linejoin="round" stroke-miterlimit="10" d="
				M262.897,205.959c9.959-6.661,62.294-40.605,66.204-42.649c10.905-4.534,23.446,0.598,27.948,11.42
				c4.565,10.995-0.592,23.613-11.162,28.026c-2.379,0.737-23.968,5.608-77.333,16.955
				C267.466,214.75,265.527,210.12,262.897,205.959z"/>
			
				<path fill="#FFFFFF" stroke="#000000" stroke-width="7" stroke-linecap="round" stroke-linejoin="round" stroke-miterlimit="10" d="
				M237.6,186.51c2.331-11.751,15.336-72.761,16.655-76.971c4.505-10.917,17.001-16.156,27.837-11.688
				c11.003,4.548,16.279,17.117,11.926,27.71c-1.161,2.204-12.982,20.914-42.694,66.673C247.045,189.495,242.4,187.593,237.6,186.51
				z"/>
			
				<path fill="#FFFFFF" stroke="#000000" stroke-width="7" stroke-linecap="round" stroke-linejoin="round" stroke-miterlimit="10" d="
				M205.958,190.646c-6.661-9.958-40.605-62.293-42.649-66.204c-4.534-10.905,0.598-23.445,11.419-27.947
				c10.995-4.565,23.614,0.592,28.026,11.16c0.738,2.381,5.608,23.97,16.956,77.334
				C214.749,186.077,210.119,188.017,205.958,190.646z"/>
		</g>
		<g>
			
				<path fill="#FFFFFF" stroke="#000000" stroke-width="7" stroke-linecap="round" stroke-linejoin="round" stroke-miterlimit="10" d="
				M193.718,201.36c-9.966-6.651-61.354-42.014-64.738-44.844c-8.361-8.339-8.42-21.889-0.145-30.19
				c8.412-8.426,22.043-8.49,30.165-0.414c1.592,1.918,14.353,19.997,45.259,64.959C200.091,193.775,196.556,197.339,193.718,201.36
				z"/>
			
				<path fill="#FFFFFF" stroke="#000000" stroke-width="7" stroke-linecap="round" stroke-linejoin="round" stroke-miterlimit="10" d="
				M185.43,232.176c-11.749,2.343-73.09,13.675-77.486,14.067c-11.809,0.015-21.431-9.524-21.449-21.245
				c-0.01-11.906,9.583-21.591,21.036-21.623c2.482,0.23,24.291,3.992,77.936,13.932
				C184.574,222.306,184.594,227.325,185.43,232.176z"/>
			
				<path fill="#FFFFFF" stroke="#000000" stroke-width="7" stroke-linecap="round" stroke-linejoin="round" stroke-miterlimit="10" d="
				M201.359,259.825c-6.65,9.966-42.012,61.353-44.843,64.738c-8.338,8.362-21.888,8.42-30.19,0.146
				c-8.426-8.412-8.49-22.044-0.414-30.164c1.918-1.593,19.998-14.354,64.959-45.26
				C193.775,253.452,197.338,256.987,201.359,259.825z"/>
			
				<path fill="#FFFFFF" stroke="#000000" stroke-width="7" stroke-linecap="round" stroke-linejoin="round" stroke-miterlimit="10" d="
				M232.175,268.113c2.343,11.749,13.676,73.091,14.068,77.485c0.016,11.81-9.524,21.432-21.246,21.45
				c-11.905,0.01-21.59-9.583-21.622-21.037c0.23-2.481,3.991-24.289,13.93-77.936C222.306,268.97,227.325,268.95,232.175,268.113z"
				/>
			
				<path fill="#FFFFFF" stroke="#000000" stroke-width="7" stroke-linecap="round" stroke-linejoin="round" stroke-miterlimit="10" d="
				M259.825,252.184c9.966,6.65,61.353,42.014,64.738,44.843c8.362,8.34,8.42,21.891,0.145,30.19
				c-8.411,8.426-22.042,8.49-30.164,0.414c-1.592-1.917-14.354-19.997-45.259-64.959
				C253.453,259.769,256.987,256.205,259.825,252.184z"/>
			
				<path fill="#FFFFFF" stroke="#000000" stroke-width="7" stroke-linecap="round" stroke-linejoin="round" stroke-miterlimit="10" d="
				M268.112,221.368c11.75-2.343,73.09-13.676,77.485-14.067c11.81-0.016,21.433,9.523,21.451,21.245
				c0.009,11.905-9.583,21.59-21.037,21.621c-2.481-0.229-24.291-3.99-77.935-13.929
				C268.969,231.238,268.949,226.219,268.112,221.368z"/>
			
				<path fill="#FFFFFF" stroke="#000000" stroke-width="7" stroke-linecap="round" stroke-linejoin="round" stroke-miterlimit="10" d="
				M252.183,193.719c6.652-9.966,42.013-61.354,44.843-64.737c8.339-8.363,21.891-8.421,30.19-0.146
				c8.425,8.411,8.49,22.042,0.414,30.163c-1.917,1.593-19.998,14.354-64.958,45.26
				C259.768,200.092,256.205,196.557,252.183,193.719z"/>
			
				<path fill="#FFFFFF" stroke="#000000" stroke-width="7" stroke-linecap="round" stroke-linejoin="round" stroke-miterlimit="10" d="
				M221.368,185.431c-2.343-11.749-13.676-73.091-14.067-77.485c-0.017-11.81,9.523-21.433,21.245-21.45
				c11.905-0.011,21.59,9.583,21.622,21.037c-0.229,2.48-3.991,24.29-13.93,77.935C231.237,184.574,226.218,184.594,221.368,185.431
				z"/>
			
				<path fill="#FFFFFF" stroke="#000000" stroke-width="7" stroke-linecap="round" stroke-linejoin="round" stroke-miterlimit="10" d="
				M193.718,201.36c-9.965-6.651-61.353-42.014-64.738-44.844c-8.362-8.34-8.421-21.889-0.145-30.189
				c8.412-8.427,22.043-8.491,30.164-0.415c1.593,1.917,14.354,19.999,45.26,64.959C200.091,193.775,196.556,197.34,193.718,201.36z
				"/>
		</g>
		
			<circle fill="#FFCF00" stroke="#000000" stroke-width="8" stroke-linecap="round" stroke-linejoin="round" stroke-miterlimit="10" cx="227.54" cy="228.07" r="42.492"/>
	</g>
	<g id="rdeča7bela">
	</g>
</g>
<g id="cb" display="none">
	<g display="inline">
		<g>
			<path fill="none" stroke="#000000" stroke-width="7" stroke-linecap="round" stroke-linejoin="round" stroke-miterlimit="10" d="
				M205.958,190.646c-6.661-9.958-40.605-62.293-42.649-66.204c-4.533-10.904,0.598-23.444,11.42-27.947
				c10.995-4.565,23.613,0.592,28.026,11.16c0.737,2.381,5.607,23.969,16.954,77.334
				C214.749,186.077,210.12,188.017,205.958,190.646z"/>
			<path fill="none" stroke="#000000" stroke-width="7" stroke-linecap="round" stroke-linejoin="round" stroke-miterlimit="10" d="
				M186.509,215.943c-11.751-2.331-72.76-15.336-76.971-16.655c-10.917-4.505-16.156-17.001-11.688-27.837
				c4.547-11.003,17.116-16.279,27.709-11.926c2.204,1.162,20.913,12.982,66.672,42.694
				C189.495,206.497,187.592,211.143,186.509,215.943z"/>
			<path fill="none" stroke="#000000" stroke-width="7" stroke-linecap="round" stroke-linejoin="round" stroke-miterlimit="10" d="
				M190.645,247.584c-9.958,6.662-62.294,40.605-66.204,42.649c-10.904,4.534-23.445-0.597-27.948-11.418
				c-4.565-10.997,0.593-23.615,11.161-28.027c2.381-0.736,23.969-5.608,77.334-16.955
				C186.077,238.794,188.015,243.424,190.645,247.584z"/>
			<path fill="none" stroke="#000000" stroke-width="7" stroke-linecap="round" stroke-linejoin="round" stroke-miterlimit="10" d="
				M215.943,267.034c-2.331,11.751-15.336,72.761-16.655,76.971c-4.505,10.916-17.001,16.156-27.837,11.687
				c-11.004-4.546-16.279-17.115-11.926-27.709c1.162-2.205,12.982-20.914,42.694-66.673
				C206.497,264.049,211.142,265.951,215.943,267.034z"/>
			<path fill="none" stroke="#000000" stroke-width="7" stroke-linecap="round" stroke-linejoin="round" stroke-miterlimit="10" d="
				M247.584,262.898c6.661,9.959,40.605,62.293,42.649,66.203c4.533,10.905-0.598,23.446-11.419,27.948
				c-10.996,4.565-23.613-0.591-28.026-11.161c-0.737-2.38-5.608-23.969-16.955-77.334
				C238.794,267.467,243.423,265.527,247.584,262.898z"/>
			<path fill="none" stroke="#000000" stroke-width="7" stroke-linecap="round" stroke-linejoin="round" stroke-miterlimit="10" d="
				M267.033,237.601c11.753,2.332,72.761,15.335,76.972,16.655c10.917,4.505,16.155,17.001,11.687,27.837
				c-4.546,11.003-17.115,16.279-27.709,11.926c-2.205-1.161-20.914-12.983-66.672-42.694
				C264.048,247.046,265.951,242.401,267.033,237.601z"/>
			<path fill="none" stroke="#000000" stroke-width="7" stroke-linecap="round" stroke-linejoin="round" stroke-miterlimit="10" d="
				M262.897,205.959c9.959-6.661,62.294-40.605,66.204-42.649c10.905-4.534,23.446,0.598,27.948,11.42
				c4.565,10.995-0.592,23.613-11.162,28.026c-2.379,0.737-23.968,5.608-77.333,16.955
				C267.466,214.75,265.527,210.12,262.897,205.959z"/>
			<path fill="none" stroke="#000000" stroke-width="7" stroke-linecap="round" stroke-linejoin="round" stroke-miterlimit="10" d="
				M237.6,186.51c2.331-11.751,15.336-72.761,16.655-76.971c4.505-10.917,17.001-16.156,27.837-11.688
				c11.003,4.548,16.279,17.117,11.926,27.71c-1.161,2.204-12.982,20.914-42.694,66.673C247.045,189.495,242.4,187.593,237.6,186.51
				z"/>
			<path fill="none" stroke="#000000" stroke-width="7" stroke-linecap="round" stroke-linejoin="round" stroke-miterlimit="10" d="
				M205.958,190.646c-6.661-9.958-40.605-62.293-42.649-66.204c-4.534-10.905,0.598-23.445,11.419-27.947
				c10.995-4.565,23.614,0.592,28.026,11.16c0.738,2.381,5.608,23.97,16.956,77.334
				C214.749,186.077,210.119,188.017,205.958,190.646z"/>
		</g>
		<g>
			<path fill="none" stroke="#000000" stroke-width="7" stroke-linecap="round" stroke-linejoin="round" stroke-miterlimit="10" d="
				M193.718,201.36c-9.966-6.651-61.354-42.014-64.738-44.844c-8.361-8.339-8.42-21.889-0.145-30.19
				c8.412-8.426,22.043-8.49,30.165-0.414c1.592,1.918,14.353,19.997,45.259,64.959C200.091,193.775,196.556,197.339,193.718,201.36
				z"/>
			<path fill="none" stroke="#000000" stroke-width="7" stroke-linecap="round" stroke-linejoin="round" stroke-miterlimit="10" d="
				M185.43,232.176c-11.749,2.343-73.09,13.675-77.486,14.067c-11.809,0.015-21.431-9.524-21.449-21.245
				c-0.01-11.906,9.583-21.591,21.036-21.623c2.482,0.23,24.291,3.992,77.936,13.932
				C184.574,222.306,184.594,227.325,185.43,232.176z"/>
			<path fill="none" stroke="#000000" stroke-width="7" stroke-linecap="round" stroke-linejoin="round" stroke-miterlimit="10" d="
				M201.359,259.825c-6.65,9.966-42.012,61.353-44.843,64.738c-8.338,8.362-21.888,8.42-30.19,0.146
				c-8.426-8.412-8.49-22.044-0.414-30.164c1.918-1.593,19.998-14.354,64.959-45.26
				C193.775,253.452,197.338,256.987,201.359,259.825z"/>
			<path fill="none" stroke="#000000" stroke-width="7" stroke-linecap="round" stroke-linejoin="round" stroke-miterlimit="10" d="
				M232.175,268.113c2.343,11.749,13.676,73.091,14.068,77.485c0.016,11.81-9.524,21.432-21.246,21.45
				c-11.905,0.01-21.59-9.583-21.622-21.037c0.23-2.481,3.991-24.289,13.93-77.936C222.306,268.97,227.325,268.95,232.175,268.113z"
				/>
			<path fill="none" stroke="#000000" stroke-width="7" stroke-linecap="round" stroke-linejoin="round" stroke-miterlimit="10" d="
				M259.825,252.184c9.966,6.65,61.353,42.014,64.738,44.843c8.362,8.34,8.42,21.891,0.145,30.19
				c-8.411,8.426-22.042,8.49-30.164,0.414c-1.592-1.917-14.354-19.997-45.259-64.959
				C253.453,259.769,256.987,256.205,259.825,252.184z"/>
			<path fill="none" stroke="#000000" stroke-width="7" stroke-linecap="round" stroke-linejoin="round" stroke-miterlimit="10" d="
				M268.112,221.368c11.75-2.343,73.09-13.676,77.485-14.067c11.81-0.016,21.433,9.523,21.451,21.245
				c0.009,11.905-9.583,21.59-21.037,21.621c-2.481-0.229-24.291-3.99-77.935-13.929
				C268.969,231.238,268.949,226.219,268.112,221.368z"/>
			<path fill="none" stroke="#000000" stroke-width="7" stroke-linecap="round" stroke-linejoin="round" stroke-miterlimit="10" d="
				M252.183,193.719c6.652-9.966,42.013-61.354,44.843-64.737c8.339-8.363,21.891-8.421,30.19-0.146
				c8.425,8.411,8.49,22.042,0.414,30.163c-1.917,1.593-19.998,14.354-64.958,45.26
				C259.768,200.092,256.205,196.557,252.183,193.719z"/>
			<path fill="none" stroke="#000000" stroke-width="7" stroke-linecap="round" stroke-linejoin="round" stroke-miterlimit="10" d="
				M221.368,185.431c-2.343-11.749-13.676-73.091-14.067-77.485c-0.017-11.81,9.523-21.433,21.245-21.45
				c11.905-0.011,21.59,9.583,21.622,21.037c-0.229,2.48-3.991,24.29-13.93,77.935C231.237,184.574,226.218,184.594,221.368,185.431
				z"/>
			<path fill="none" stroke="#000000" stroke-width="7" stroke-linecap="round" stroke-linejoin="round" stroke-miterlimit="10" d="
				M193.718,201.36c-9.965-6.651-61.353-42.014-64.738-44.844c-8.362-8.34-8.421-21.889-0.145-30.189
				c8.412-8.427,22.043-8.491,30.164-0.415c1.593,1.917,14.354,19.999,45.26,64.959C200.091,193.775,196.556,197.34,193.718,201.36z
				"/>
		</g>
		
			<circle fill="none" stroke="#000000" stroke-width="8" stroke-linecap="round" stroke-linejoin="round" stroke-miterlimit="10" cx="227.54" cy="228.07" r="42.492"/>
	</g>
	<g id="rdeča7bela_copy" display="inline">
	</g>
</g>
<g id="pivot">
	<circle fill="none" cx="228.561" cy="364.595" r="14.133"/>
</g>
</svg>
