<?xml version="1.0" encoding="utf-8"?>
<!-- Generator: Adobe Illustrator 16.0.0, SVG Export Plug-In . SVG Version: 6.00 Build 0)  -->
<!DOCTYPE svg PUBLIC "-//W3C//DTD SVG 1.1//EN" "http://www.w3.org/Graphics/SVG/1.1/DTD/svg11.dtd">
<svg version="1.1" xmlns="http://www.w3.org/2000/svg" xmlns:xlink="http://www.w3.org/1999/xlink" x="0px" y="0px"
	 width="453.543px" height="453.543px" viewBox="0 0 453.543 453.543" enable-background="new 0 0 453.543 453.543"
	 xml:space="preserve">
<g id="kvadrat" display="none">
</g>
<g id="color">
	<g id="rdeča7bela">
	</g>
	<g>
		<g>
			
				<path fill="#FFFFFF" stroke="#000000" stroke-width="7" stroke-linecap="round" stroke-linejoin="round" stroke-miterlimit="10" d="
				M226.986,236.888c-16.02-3.178-99.188-20.906-104.928-22.705c-14.883-6.141-22.025-23.176-15.934-37.947
				c6.199-15,23.334-22.191,37.773-16.258c3.006,1.584,28.511,17.699,90.89,58.203C231.055,224.011,228.462,230.343,226.986,236.888
				z"/>
			
				<path fill="#FFFFFF" stroke="#000000" stroke-width="7" stroke-linecap="round" stroke-linejoin="round" stroke-miterlimit="10" d="
				M235.681,234.521c-13.574,9.08-84.92,55.354-90.25,58.139c-14.865,6.182-31.962-0.813-38.099-15.564
				c-6.225-14.99,0.808-32.191,15.214-38.207c3.246-1.004,32.675-7.646,105.423-23.113
				C229.453,222.536,232.096,228.849,235.681,234.521z"/>
			
				<path fill="#FFFFFF" stroke="#000000" stroke-width="7" stroke-linecap="round" stroke-linejoin="round" stroke-miterlimit="10" d="
				M232.742,233.067c-3.178,16.021-20.906,99.189-22.704,104.928c-6.142,14.881-23.177,22.025-37.948,15.934
				c-15-6.199-22.191-23.334-16.258-37.775c1.584-3.004,17.699-28.51,58.202-90.889
				C219.865,228.999,226.198,231.593,232.742,233.067z"/>
			
				<path fill="#FFFFFF" stroke="#000000" stroke-width="7" stroke-linecap="round" stroke-linejoin="round" stroke-miterlimit="10" d="
				M234.481,227.073c9.082,13.576,55.354,84.92,58.143,90.25c6.179,14.865-0.814,31.961-15.568,38.098
				c-14.99,6.225-32.189-0.805-38.206-15.213c-1.006-3.246-7.646-32.676-23.113-105.424
				C222.5,233.302,228.812,230.657,234.481,227.073z"/>
			
				<path fill="#FFFFFF" stroke="#000000" stroke-width="7" stroke-linecap="round" stroke-linejoin="round" stroke-miterlimit="10" d="
				M233.448,221.849c16.021,3.178,99.189,20.906,104.93,22.705c14.882,6.141,22.022,23.176,15.931,37.947
				c-6.196,15-23.331,22.191-37.773,16.258c-3.006-1.584-28.511-17.699-90.89-58.201
				C229.38,234.726,231.974,228.394,233.448,221.849z"/>
			
				<path fill="#FFFFFF" stroke="#000000" stroke-width="7" stroke-linecap="round" stroke-linejoin="round" stroke-miterlimit="10" d="
				M225.754,221.46c13.576-9.08,84.919-55.354,90.25-58.141c14.865-6.18,31.961,0.816,38.1,15.568
				c6.223,14.988-0.808,32.189-15.216,38.205c-3.244,1.006-32.675,7.646-105.421,23.115
				C231.982,233.444,229.338,227.134,225.754,221.46z"/>
			
				<path fill="#FFFFFF" stroke="#000000" stroke-width="7" stroke-linecap="round" stroke-linejoin="round" stroke-miterlimit="10" d="
				M221.729,225.905c3.178-16.02,20.904-99.189,22.705-104.928c6.141-14.883,23.176-22.025,37.947-15.932
				c15,6.197,22.192,23.332,16.256,37.773c-1.581,3.004-17.695,28.51-58.199,90.889
				C234.605,229.976,228.271,227.382,221.729,225.905z"/>
			
				<path fill="#FFFFFF" stroke="#000000" stroke-width="7" stroke-linecap="round" stroke-linejoin="round" stroke-miterlimit="10" d="
				M222.226,234.601c-9.081-13.576-55.354-84.92-58.142-90.25c-6.18-14.867,0.816-31.961,15.568-38.098
				c14.989-6.225,32.19,0.807,38.205,15.213c1.007,3.244,7.645,32.676,23.115,105.424
				C234.208,228.374,227.898,231.017,222.226,234.601z"/>
		</g>
		
			<circle fill="#FFCF00" stroke="#000000" stroke-width="8" stroke-linecap="round" stroke-linejoin="round" stroke-miterlimit="10" cx="227.36" cy="231.229" r="42.491"/>
		
			<line fill="#FFFFFF" stroke="#000000" stroke-width="8" stroke-linecap="round" stroke-linejoin="round" stroke-miterlimit="10" x1="245.131" y1="192.633" x2="262.131" y2="153.94"/>
		
			<line fill="#FFFFFF" stroke="#000000" stroke-width="8" stroke-linecap="round" stroke-linejoin="round" stroke-miterlimit="10" x1="213.633" y1="191.372" x2="198.295" y2="151.991"/>
		
			<line fill="#FFFFFF" stroke="#000000" stroke-width="8" stroke-linecap="round" stroke-linejoin="round" stroke-miterlimit="10" x1="188.763" y1="211.46" x2="150.07" y2="194.46"/>
		
			<line fill="#FFFFFF" stroke="#000000" stroke-width="8" stroke-linecap="round" stroke-linejoin="round" stroke-miterlimit="10" x1="186.502" y1="245.957" x2="147.122" y2="261.296"/>
		
			<line fill="#FFFFFF" stroke="#000000" stroke-width="8" stroke-linecap="round" stroke-linejoin="round" stroke-miterlimit="10" x1="208.59" y1="269.827" x2="191.59" y2="308.52"/>
		
			<line fill="#FFFFFF" stroke="#000000" stroke-width="8" stroke-linecap="round" stroke-linejoin="round" stroke-miterlimit="10" x1="242.087" y1="271.088" x2="257.426" y2="310.468"/>
		
			<line fill="#FFFFFF" stroke="#000000" stroke-width="8" stroke-linecap="round" stroke-linejoin="round" stroke-miterlimit="10" x1="266.957" y1="248" x2="305.649" y2="265"/>
		
			<line fill="#FFFFFF" stroke="#000000" stroke-width="8" stroke-linecap="round" stroke-linejoin="round" stroke-miterlimit="10" x1="267.218" y1="215.503" x2="306.598" y2="200.164"/>
	</g>
</g>
<g id="cb" display="none">
	<g id="rdeča7bela_copy" display="inline">
	</g>
	<g display="inline">
		<path fill="none" stroke="#000000" stroke-width="8" stroke-linecap="round" stroke-linejoin="round" stroke-miterlimit="10" d="
			M195.209,192.086c2.448,1.578,5.012,3.234,7.662,4.945"/>
		<path fill="none" stroke="#000000" stroke-width="8" stroke-linecap="round" stroke-linejoin="round" stroke-miterlimit="10" d="
			M178.456,226.533c2.436,0.521,4.864,1.04,7.269,1.553"/>
		<path fill="none" stroke="#000000" stroke-width="8" stroke-linecap="round" stroke-linejoin="round" stroke-miterlimit="10" d="
			M195.209,192.086c-33.478-21.596-48.334-30.923-50.583-32.108c-14.44-5.934-31.574,1.258-37.774,16.258
			c-6.091,14.771,1.051,31.807,15.934,37.947c3.157,0.989,29.727,6.796,55.67,12.351"/>
		<path fill="none" stroke="#000000" stroke-width="8" stroke-linecap="round" stroke-linejoin="round" stroke-miterlimit="10" d="
			M188.587,265.695c2.814-1.818,5.645-3.65,8.453-5.47"/>
		<path fill="none" stroke="#000000" stroke-width="8" stroke-linecap="round" stroke-linejoin="round" stroke-miterlimit="10" d="
			M178.456,226.533c2.446-0.529,4.983-1.076,7.613-1.643"/>
		<path fill="none" stroke="#000000" stroke-width="8" stroke-linecap="round" stroke-linejoin="round" stroke-miterlimit="10" d="
			M178.456,226.533c-36.619,7.914-52.823,11.625-55.183,12.354c-14.406,6.016-21.438,23.217-15.214,38.207
			c6.137,14.752,23.233,21.746,38.099,15.564c2.683-1.401,22.085-13.817,42.429-26.964"/>
		<path fill="none" stroke="#000000" stroke-width="8" stroke-linecap="round" stroke-linejoin="round" stroke-miterlimit="10" d="
			M188.587,265.695c1.801-2.793,3.688-5.716,5.663-8.771"/>
		<path fill="none" stroke="#000000" stroke-width="8" stroke-linecap="round" stroke-linejoin="round" stroke-miterlimit="10" d="
			M188.587,265.695c-21.537,33.389-30.844,48.213-32.027,50.458c-5.934,14.441,1.258,31.576,16.258,37.775
			c14.771,6.092,31.807-1.053,37.948-15.934c1.094-3.491,8.082-35.632,14.104-63.884"/>
		<path fill="none" stroke="#000000" stroke-width="8" stroke-linecap="round" stroke-linejoin="round" stroke-miterlimit="10" d="
			M224.87,274.111c0.037-0.172,0.073-0.343,0.11-0.516"/>
		<path fill="none" stroke="#000000" stroke-width="8" stroke-linecap="round" stroke-linejoin="round" stroke-miterlimit="10" d="
			M224.87,274.111c9.541,44.357,13.908,63.514,14.707,66.097c6.017,14.408,23.216,21.438,38.206,15.213
			c14.754-6.137,21.747-23.232,15.568-38.098c-1.709-3.268-19.761-31.345-35.568-55.712"/>
		<path fill="none" stroke="#000000" stroke-width="8" stroke-linecap="round" stroke-linejoin="round" stroke-miterlimit="10" d="
			M224.755,273.579c0.038,0.178,0.077,0.356,0.115,0.532"/>
		<path fill="none" stroke="#000000" stroke-width="8" stroke-linecap="round" stroke-linejoin="round" stroke-miterlimit="10" d="
			M258.218,261.189c39.459,25.498,56.614,36.289,59.045,37.569c14.442,5.934,31.577-1.258,37.773-16.258
			c6.092-14.771-1.049-31.807-15.931-37.947c-3.397-1.064-33.915-7.708-61.582-13.614"/>
		<path fill="none" stroke="#000000" stroke-width="8" stroke-linecap="round" stroke-linejoin="round" stroke-miterlimit="10" d="
			M277.523,230.939c-2.357-0.503-4.692-1-6.989-1.488"/>
		<path fill="none" stroke="#000000" stroke-width="8" stroke-linecap="round" stroke-linejoin="round" stroke-miterlimit="10" d="
			M265.664,195.875c-2.631,1.705-5.241,3.397-7.794,5.055"/>
		<path fill="none" stroke="#000000" stroke-width="8" stroke-linecap="round" stroke-linejoin="round" stroke-miterlimit="10" d="
			M277.523,230.939c41.507-8.943,59.59-13.07,62.092-13.847c14.408-6.016,21.438-23.217,15.216-38.205
			c-6.139-14.752-23.234-21.748-38.1-15.568c-3.062,1.601-27.904,17.55-51.067,32.556"/>
		<path fill="none" stroke="#000000" stroke-width="8" stroke-linecap="round" stroke-linejoin="round" stroke-miterlimit="10" d="
			M277.523,230.939c-2.257,0.486-4.578,0.986-6.975,1.501"/>
		<path fill="none" stroke="#000000" stroke-width="8" stroke-linecap="round" stroke-linejoin="round" stroke-miterlimit="10" d="
			M265.664,195.875c22.723-35.209,32.488-50.754,33.7-53.056c5.937-14.441-1.256-31.576-16.256-37.773
			c-14.771-6.094-31.807,1.049-37.947,15.932c-1.046,3.333-7.462,32.778-13.282,60.022"/>
		<path fill="none" stroke="#000000" stroke-width="8" stroke-linecap="round" stroke-linejoin="round" stroke-miterlimit="10" d="
			M231.879,181c-0.561,2.626-1.116,5.23-1.661,7.791"/>
		<path fill="none" stroke="#000000" stroke-width="8" stroke-linecap="round" stroke-linejoin="round" stroke-miterlimit="10" d="
			M265.664,195.875c-1.641,2.543-3.348,5.185-5.125,7.935"/>
		<path fill="none" stroke="#000000" stroke-width="8" stroke-linecap="round" stroke-linejoin="round" stroke-miterlimit="10" d="
			M195.209,192.086c1.589,2.453,3.174,4.901,4.74,7.315"/>
		<path fill="none" stroke="#000000" stroke-width="8" stroke-linecap="round" stroke-linejoin="round" stroke-miterlimit="10" d="
			M195.209,192.086c-14.341-22.158-28.874-44.82-30.398-47.735c-6.179-14.867,0.817-31.961,15.569-38.098
			c14.989-6.225,32.19,0.807,38.205,15.213c0.76,2.45,4.733,19.84,13.294,59.534"/>
		<path fill="none" stroke="#000000" stroke-width="8" stroke-linecap="round" stroke-linejoin="round" stroke-miterlimit="10" d="
			M231.879,181c0.562,2.605,1.144,5.309,1.746,8.108"/>
		<path fill="none" stroke="#000000" stroke-width="8" stroke-linecap="round" stroke-linejoin="round" stroke-miterlimit="10" d="
			M194.25,256.924c0.874,1.148,1.806,2.249,2.79,3.302"/>
		<path fill="none" stroke="#000000" stroke-width="8" stroke-linecap="round" stroke-linejoin="round" stroke-miterlimit="10" d="
			M186.069,224.891c-0.157,1.052-0.266,2.119-0.345,3.195"/>
		<path fill="none" stroke="#000000" stroke-width="8" stroke-linecap="round" stroke-linejoin="round" stroke-miterlimit="10" d="
			M197.04,260.226c7.044,7.54,16.8,12.506,27.715,13.354"/>
		<path fill="none" stroke="#000000" stroke-width="8" stroke-linecap="round" stroke-linejoin="round" stroke-miterlimit="10" d="
			M185.725,228.086c-0.076,1.039-0.128,2.085-0.128,3.144c0,9.657,3.227,18.558,8.653,25.694"/>
		<path fill="none" stroke="#000000" stroke-width="8" stroke-linecap="round" stroke-linejoin="round" stroke-miterlimit="10" d="
			M224.755,273.579c0.075,0.006,0.149,0.012,0.225,0.017"/>
		<path fill="none" stroke="#000000" stroke-width="8" stroke-linecap="round" stroke-linejoin="round" stroke-miterlimit="10" d="
			M230.219,188.791c1.149,0.057,2.283,0.171,3.407,0.317"/>
		<path fill="none" stroke="#000000" stroke-width="8" stroke-linecap="round" stroke-linejoin="round" stroke-miterlimit="10" d="
			M257.87,200.93c0.934,0.918,1.823,1.88,2.669,2.88"/>
		<path fill="none" stroke="#000000" stroke-width="8" stroke-linecap="round" stroke-linejoin="round" stroke-miterlimit="10" d="
			M233.625,189.108c9.391,1.223,17.817,5.504,24.244,11.821"/>
		<path fill="none" stroke="#000000" stroke-width="8" stroke-linecap="round" stroke-linejoin="round" stroke-miterlimit="10" d="
			M260.539,203.81c5.902,6.979,9.593,15.884,9.996,25.642"/>
		<path fill="none" stroke="#000000" stroke-width="8" stroke-linecap="round" stroke-linejoin="round" stroke-miterlimit="10" d="
			M270.534,229.451c0.024,0.59,0.045,1.182,0.045,1.778c0,0.406-0.02,0.808-0.031,1.211"/>
		<path fill="none" stroke="#000000" stroke-width="8" stroke-linecap="round" stroke-linejoin="round" stroke-miterlimit="10" d="
			M258.218,261.189c7.374-7.416,12.016-17.541,12.331-28.749"/>
		<path fill="none" stroke="#000000" stroke-width="8" stroke-linecap="round" stroke-linejoin="round" stroke-miterlimit="10" d="
			M230.219,188.791c-0.706-0.035-1.417-0.054-2.131-0.054c-9.443,0-18.163,3.084-25.217,8.294"/>
		<path fill="none" stroke="#000000" stroke-width="8" stroke-linecap="round" stroke-linejoin="round" stroke-miterlimit="10" d="
			M199.95,199.401c-7.303,6.462-12.37,15.392-13.88,25.489"/>
		<path fill="none" stroke="#000000" stroke-width="8" stroke-linecap="round" stroke-linejoin="round" stroke-miterlimit="10" d="
			M202.871,197.031c-1.01,0.746-1.982,1.539-2.921,2.37"/>
		<path fill="none" stroke="#000000" stroke-width="8" stroke-linecap="round" stroke-linejoin="round" stroke-miterlimit="10" d="
			M224.98,273.596c1.027,0.075,2.062,0.126,3.108,0.126c11.56,0,22.035-4.622,29.696-12.11"/>
		<path fill="none" stroke="#000000" stroke-width="8" stroke-linecap="round" stroke-linejoin="round" stroke-miterlimit="10" d="
			M257.784,261.611c0.145-0.142,0.292-0.279,0.434-0.422"/>
	</g>
	
		<line display="inline" fill="none" stroke="#000000" stroke-width="8" stroke-linecap="round" stroke-linejoin="round" stroke-miterlimit="10" x1="245.131" y1="192.633" x2="262.131" y2="153.94"/>
	
		<line display="inline" fill="none" stroke="#000000" stroke-width="8" stroke-linecap="round" stroke-linejoin="round" stroke-miterlimit="10" x1="213.633" y1="191.372" x2="198.295" y2="151.991"/>
	
		<line display="inline" fill="none" stroke="#000000" stroke-width="8" stroke-linecap="round" stroke-linejoin="round" stroke-miterlimit="10" x1="188.763" y1="211.46" x2="150.07" y2="194.46"/>
	
		<line display="inline" fill="none" stroke="#000000" stroke-width="8" stroke-linecap="round" stroke-linejoin="round" stroke-miterlimit="10" x1="186.502" y1="245.957" x2="147.122" y2="261.296"/>
	
		<line display="inline" fill="none" stroke="#000000" stroke-width="8" stroke-linecap="round" stroke-linejoin="round" stroke-miterlimit="10" x1="208.59" y1="269.827" x2="191.59" y2="308.52"/>
	
		<line display="inline" fill="none" stroke="#000000" stroke-width="8" stroke-linecap="round" stroke-linejoin="round" stroke-miterlimit="10" x1="242.087" y1="271.088" x2="257.426" y2="310.468"/>
	
		<line display="inline" fill="none" stroke="#000000" stroke-width="8" stroke-linecap="round" stroke-linejoin="round" stroke-miterlimit="10" x1="266.957" y1="248" x2="305.649" y2="265"/>
	
		<line display="inline" fill="none" stroke="#000000" stroke-width="8" stroke-linecap="round" stroke-linejoin="round" stroke-miterlimit="10" x1="267.218" y1="215.503" x2="306.598" y2="200.164"/>
</g>
<g id="pivot">
	<circle fill="none" cx="227.728" cy="340.406" r="14.133"/>
</g>
</svg>
