<?xml version="1.0" encoding="utf-8"?>
<!-- Generator: Adobe Illustrator 16.0.0, SVG Export Plug-In . SVG Version: 6.00 Build 0)  -->
<!DOCTYPE svg PUBLIC "-//W3C//DTD SVG 1.1//EN" "http://www.w3.org/Graphics/SVG/1.1/DTD/svg11.dtd">
<svg version="1.1" xmlns="http://www.w3.org/2000/svg" xmlns:xlink="http://www.w3.org/1999/xlink" x="0px" y="0px"
	 width="453.543px" height="453.543px" viewBox="0 0 453.543 453.543" enable-background="new 0 0 453.543 453.543"
	 xml:space="preserve">
<g id="kvadrat" display="none">
</g>
<g id="color">
	<g id="rdeča7bela">
	</g>
	<g>
		<g>
			<g>
				
					<path fill="#EFE342" stroke="#000000" stroke-width="7" stroke-linecap="round" stroke-linejoin="round" stroke-miterlimit="10" d="
					M205.958,190.644c-6.661-9.957-40.605-62.293-42.648-66.203c-4.533-10.904,0.598-23.445,11.42-27.947
					c10.994-4.566,23.613,0.592,28.025,11.16c0.738,2.381,5.607,23.969,16.955,77.334
					C214.749,186.075,210.12,188.015,205.958,190.644z"/>
				
					<path fill="#EFE342" stroke="#000000" stroke-width="7" stroke-linecap="round" stroke-linejoin="round" stroke-miterlimit="10" d="
					M186.508,215.942c-11.751-2.332-72.76-15.336-76.971-16.656c-10.916-4.504-16.156-17-11.688-27.836
					c4.547-11.004,17.117-16.279,27.71-11.926c2.204,1.162,20.913,12.982,66.673,42.693
					C189.495,206.495,187.592,211.142,186.508,215.942z"/>
				
					<path fill="#EFE342" stroke="#000000" stroke-width="7" stroke-linecap="round" stroke-linejoin="round" stroke-miterlimit="10" d="
					M190.645,247.583c-9.959,6.662-62.295,40.605-66.205,42.648c-10.904,4.535-23.445-0.596-27.947-11.418
					c-4.565-10.996,0.592-23.615,11.16-28.027c2.381-0.736,23.969-5.607,77.334-16.955
					C186.077,238.792,188.014,243.423,190.645,247.583z"/>
				
					<path fill="#EFE342" stroke="#000000" stroke-width="7" stroke-linecap="round" stroke-linejoin="round" stroke-miterlimit="10" d="
					M215.942,267.032c-2.33,11.752-15.336,72.761-16.654,76.97c-4.506,10.916-17.002,16.156-27.838,11.688
					c-11.004-4.547-16.279-17.114-11.926-27.708c1.162-2.205,12.982-20.914,42.694-66.674
					C206.497,264.048,211.141,265.95,215.942,267.032z"/>
				
					<path fill="#EFE342" stroke="#000000" stroke-width="7" stroke-linecap="round" stroke-linejoin="round" stroke-miterlimit="10" d="
					M247.583,262.897c6.661,9.959,40.605,62.293,42.649,66.203c4.533,10.903-0.598,23.444-11.42,27.946
					c-10.996,4.566-23.613-0.59-28.025-11.16c-0.739-2.381-5.608-23.968-16.955-77.333
					C238.793,267.466,243.422,265.526,247.583,262.897z"/>
				
					<path fill="#EFE342" stroke="#000000" stroke-width="7" stroke-linecap="round" stroke-linejoin="round" stroke-miterlimit="10" d="
					M267.032,237.599c11.754,2.332,72.762,15.336,76.973,16.656c10.916,4.504,16.154,17,11.686,27.836
					c-4.546,11.004-17.115,16.279-27.709,11.926c-2.204-1.16-20.914-12.982-66.672-42.693
					C264.047,247.044,265.95,242.399,267.032,237.599z"/>
				
					<path fill="#EFE342" stroke="#000000" stroke-width="7" stroke-linecap="round" stroke-linejoin="round" stroke-miterlimit="10" d="
					M262.897,205.958c9.959-6.662,62.294-40.605,66.203-42.65c10.906-4.533,23.447,0.598,27.949,11.42
					c4.564,10.996-0.592,23.613-11.162,28.027c-2.379,0.736-23.968,5.607-77.333,16.955
					C267.465,214.749,265.526,210.118,262.897,205.958z"/>
				
					<path fill="#EFE342" stroke="#000000" stroke-width="7" stroke-linecap="round" stroke-linejoin="round" stroke-miterlimit="10" d="
					M237.599,186.509c2.331-11.752,15.336-72.762,16.655-76.971c4.506-10.918,17.001-16.156,27.837-11.688
					c11.003,4.547,16.278,17.117,11.926,27.709c-1.161,2.205-12.981,20.914-42.694,66.674
					C247.045,189.493,242.399,187.591,237.599,186.509z"/>
				
					<path fill="#EFE342" stroke="#000000" stroke-width="7" stroke-linecap="round" stroke-linejoin="round" stroke-miterlimit="10" d="
					M205.958,190.644c-6.661-9.957-40.605-62.293-42.648-66.203c-4.534-10.906,0.598-23.445,11.419-27.947
					c10.995-4.566,23.614,0.592,28.026,11.16c0.738,2.381,5.607,23.969,16.956,77.334
					C214.749,186.075,210.118,188.015,205.958,190.644z"/>
			</g>
			<g>
				
					<path fill="#EFE342" stroke="#000000" stroke-width="7" stroke-linecap="round" stroke-linejoin="round" stroke-miterlimit="10" d="
					M193.717,201.358c-9.965-6.65-61.354-42.014-64.738-44.844c-8.361-8.338-8.42-21.889-0.145-30.189
					c8.412-8.426,22.043-8.49,30.164-0.414c1.591,1.918,14.354,19.996,45.26,64.959C200.09,193.774,196.555,197.337,193.717,201.358
					z"/>
				
					<path fill="#EFE342" stroke="#000000" stroke-width="7" stroke-linecap="round" stroke-linejoin="round" stroke-miterlimit="10" d="
					M185.429,232.175c-11.749,2.342-73.091,13.674-77.485,14.066c-11.809,0.016-21.432-9.523-21.449-21.244
					c-0.01-11.906,9.582-21.592,21.035-21.623c2.482,0.23,24.291,3.992,77.935,13.932
					C184.573,222.304,184.593,227.323,185.429,232.175z"/>
				
					<path fill="#EFE342" stroke="#000000" stroke-width="7" stroke-linecap="round" stroke-linejoin="round" stroke-miterlimit="10" d="
					M201.358,259.823c-6.649,9.967-42.012,61.354-44.843,64.738c-8.339,8.363-21.888,8.42-30.19,0.146
					c-8.426-8.412-8.489-22.045-0.414-30.164c1.918-1.594,19.998-14.354,64.959-45.26
					C193.775,253.45,197.337,256.985,201.358,259.823z"/>
				
					<path fill="#EFE342" stroke="#000000" stroke-width="7" stroke-linecap="round" stroke-linejoin="round" stroke-miterlimit="10" d="
					M232.174,268.112c2.344,11.748,13.676,73.089,14.068,77.483c0.016,11.811-9.525,21.432-21.246,21.451
					c-11.905,0.01-21.59-9.584-21.621-21.037c0.229-2.482,3.99-24.288,13.93-77.935
					C222.305,268.968,227.325,268.948,232.174,268.112z"/>
				
					<path fill="#EFE342" stroke="#000000" stroke-width="7" stroke-linecap="round" stroke-linejoin="round" stroke-miterlimit="10" d="
					M259.825,252.183c9.965,6.65,61.353,42.014,64.737,44.842c8.362,8.34,8.421,21.891,0.146,30.191
					c-8.412,8.426-22.043,8.49-30.164,0.414c-1.592-1.918-14.354-19.998-45.26-64.959
					C253.452,259.767,256.987,256.204,259.825,252.183z"/>
				
					<path fill="#EFE342" stroke="#000000" stroke-width="7" stroke-linecap="round" stroke-linejoin="round" stroke-miterlimit="10" d="
					M268.112,221.366c11.75-2.342,73.09-13.676,77.485-14.066c11.81-0.016,21.433,9.523,21.45,21.244
					c0.01,11.906-9.582,21.59-21.036,21.621c-2.481-0.229-24.291-3.99-77.935-13.928
					C268.969,231.237,268.948,226.218,268.112,221.366z"/>
				
					<path fill="#EFE342" stroke="#000000" stroke-width="7" stroke-linecap="round" stroke-linejoin="round" stroke-miterlimit="10" d="
					M252.182,193.718c6.652-9.967,42.013-61.355,44.844-64.738c8.338-8.363,21.891-8.42,30.189-0.145
					c8.426,8.41,8.491,22.041,0.415,30.162c-1.917,1.594-19.998,14.355-64.958,45.26
					C259.767,200.091,256.204,196.556,252.182,193.718z"/>
				
					<path fill="#EFE342" stroke="#000000" stroke-width="7" stroke-linecap="round" stroke-linejoin="round" stroke-miterlimit="10" d="
					M221.368,185.429c-2.344-11.748-13.676-73.09-14.069-77.484c-0.015-11.811,9.524-21.434,21.247-21.451
					c11.904-0.01,21.59,9.584,21.621,21.037c-0.229,2.48-3.99,24.291-13.93,77.936C231.237,184.573,226.217,184.593,221.368,185.429
					z"/>
				
					<path fill="#EFE342" stroke="#000000" stroke-width="7" stroke-linecap="round" stroke-linejoin="round" stroke-miterlimit="10" d="
					M193.717,201.358c-9.965-6.65-61.354-42.014-64.738-44.844c-8.361-8.34-8.42-21.889-0.145-30.189
					c8.412-8.426,22.043-8.49,30.164-0.414c1.593,1.916,14.354,19.998,45.26,64.959C200.09,193.774,196.555,197.339,193.717,201.358
					z"/>
			</g>
			
				<circle fill="#FFFFFF" stroke="#000000" stroke-width="8" stroke-linecap="round" stroke-linejoin="round" stroke-miterlimit="10" cx="227.539" cy="228.069" r="42.492"/>
		</g>
	</g>
</g>
<g id="cb" display="none">
	<g id="rdeča7bela_copy" display="inline">
	</g>
</g>
<g id="pivot">
	<circle fill="none" cx="226.871" cy="365.388" r="14.133"/>
</g>
</svg>
