<?xml version="1.0" encoding="utf-8"?>
<!-- Generator: Adobe Illustrator 16.0.0, SVG Export Plug-In . SVG Version: 6.00 Build 0)  -->
<!DOCTYPE svg PUBLIC "-//W3C//DTD SVG 1.1//EN" "http://www.w3.org/Graphics/SVG/1.1/DTD/svg11.dtd">
<svg version="1.1"
	 id="svg2" inkscape:version="0.91 r13725" sodipodi:docname="pivot-02.svg" xmlns:rdf="http://www.w3.org/1999/02/22-rdf-syntax-ns#" xmlns:cc="http://creativecommons.org/ns#" xmlns:sodipodi="http://sodipodi.sourceforge.net/DTD/sodipodi-0.dtd" xmlns:dc="http://purl.org/dc/elements/1.1/" xmlns:svg="http://www.w3.org/2000/svg" xmlns:inkscape="http://www.inkscape.org/namespaces/inkscape"
	 xmlns="http://www.w3.org/2000/svg" xmlns:xlink="http://www.w3.org/1999/xlink" x="0px" y="0px" width="1920px" height="1080px"
	 viewBox="0 0 1920 1080" enable-background="new 0 0 1920 1080" xml:space="preserve">
<g id="AREA1" transform="translate(-29.502633,5.4808424)" inkscape:label="#AREA1">
	<circle id="circle372" fill="#FFFF00" cx="172.127" cy="109.109" r="7.857"/>
	<circle id="circle374" fill="#FFFF00" cx="1272.375" cy="119.108" r="7.857"/>
	<circle id="circle376" fill="#FFFF00" cx="352.625" cy="109.109" r="7.857"/>
	<circle id="circle378" fill="#FFFF00" cx="619.542" cy="120.775" r="7.857"/>
	<circle id="circle380" fill="#FFFF00" cx="264.791" cy="275.775" r="7.857"/>
	<circle id="circle382" fill="#FFFF00" cx="760.04" cy="279.108" r="7.857"/>
	<circle id="circle384" fill="#FFFF00" cx="526.957" cy="224.108" r="7.857"/>
	<circle id="circle384_1_" fill="#FFFF00" cx="884.002" cy="315.162" r="7.857"/>
	<circle id="circle386" fill="#FFFF00" cx="1002.205" cy="239.108" r="7.857"/>
	<circle id="circle388" fill="#FFFF00" cx="894.121" cy="109.109" r="7.857"/>
	<circle id="circle402" fill="#FFFF00" cx="1153.623" cy="273.109" r="7.857"/>
	<circle id="circle406" fill="#FFFF00" cx="1305.787" cy="339.775" r="7.857"/>
</g>
<g id="AREA3" transform="translate(0.38884549,0.36212323)" inkscape:label="#AREA3">
	<circle id="circle348-3" fill="#2A39FF" cx="284.405" cy="595.108" r="7.857"/>
	<circle id="circle269" inkscape:label="#circle356" fill="#2A39FF" cx="124.177" cy="517.754" r="7.857">
	</circle>
	<circle id="circle380-6" fill="#2A39FF" cx="235.742" cy="397.649" r="7.857"/>
	<circle id="circle382-0" fill="#2A39FF" cx="730.991" cy="400.982" r="7.857"/>
	<circle id="circle384-7" fill="#2A39FF" cx="607.908" cy="373.982" r="7.857"/>
	<circle id="circle384-7_1_" fill="#2A39FF" cx="377.908" cy="329.982" r="7.857"/>
	<circle id="circle384-7_2_" fill="#2A39FF" cx="890.111" cy="625.995" r="7.857"/>
	<circle id="circle384-7_3_" fill="#2A39FF" cx="870.111" cy="450.281" r="7.857"/>
	<circle id="circle384-7_4_" fill="#2A39FF" cx="82.111" cy="339.995" r="7.857"/>
	<circle id="circle386-3" fill="#2A39FF" cx="973.158" cy="360.982" r="7.857"/>
	<circle id="circle390-6" fill="#2A39FF" cx="503.078" cy="476.649" r="7.857"/>
	<circle id="circle392-4" fill="#2A39FF" cx="434.994" cy="543.316" r="7.857"/>
	<circle id="circle394-2" fill="#2A39FF" cx="608.576" cy="554.982" r="7.857"/>
	<circle id="circle396-5" fill="#2A39FF" cx="775.493" cy="523.316" r="7.857"/>
	<circle id="circle400-4" fill="#2A39FF" cx="972.658" cy="519.982" r="7.857"/>
	<circle id="circle402-1" fill="#2A39FF" cx="1124.573" cy="394.982" r="7.857"/>
	<circle id="circle404-5" fill="#2A39FF" cx="1164.823" cy="554.982" r="7.857"/>
	<circle id="circle404-5_1_" fill="#2A39FF" cx="1057.968" cy="592.138" r="7.857"/>
	<circle id="circle404-5_2_" fill="#2A39FF" cx="1252.111" cy="680.281" r="7.857"/>
	<circle id="circle406-7" fill="#2A39FF" cx="1276.74" cy="461.649" r="7.857"/>
</g>
<g id="AREA2">
	<path id="path344-3-6" inkscape:connector-curvature="0" fill="#FF2A2A" d="M588.953,1029.411"/>
	<circle id="circle348-3-0" fill="#FF2A2A" cx="268.745" cy="969.568" r="7.857"/>
	<circle id="circle350-6-5" fill="#FF2A2A" cx="449.714" cy="1047.902" r="7.857"/>
	<circle id="circle350-6-5_1_" fill="#FF2A2A" cx="608.643" cy="724.501" r="7.857"/>
	<circle id="circle350-6-5_2_" fill="#FF2A2A" cx="124.643" cy="690.501" r="7.857"/>
	<circle id="circle326" inkscape:label="#circle356" fill="#FF2A2A" cx="108.517" cy="892.214" r="7.857">
	</circle>
	<circle id="circle376-8-9" fill="#FF2A2A" cx="334.583" cy="683.776" r="7.857"/>
	<circle id="circle378-2-9" fill="#FF2A2A" cx="769.833" cy="658.776" r="7.857"/>
	<circle id="circle380-6-1" fill="#FF2A2A" cx="220.083" cy="772.109" r="7.857"/>
	<circle id="circle382-0-5" fill="#FF2A2A" cx="715.331" cy="775.442" r="7.857"/>
	<circle id="circle384-7-1" fill="#FF2A2A" cx="482.248" cy="720.442" r="7.857"/>
	<circle id="circle386-3-2" fill="#FF2A2A" cx="957.497" cy="735.442" r="7.857"/>
	<circle id="circle390-6-9" fill="#FF2A2A" cx="487.418" cy="851.109" r="7.857"/>
	<circle id="circle392-4-0" fill="#FF2A2A" cx="414.334" cy="921.109" r="7.857"/>
	<circle id="circle394-2-3" fill="#FF2A2A" cx="592.916" cy="929.442" r="7.857"/>
	<circle id="circle396-5-9" fill="#FF2A2A" cx="759.833" cy="897.776" r="7.857"/>
	<circle id="circle398-7-3" fill="#FF2A2A" cx="890.082" cy="1019.442" r="7.857"/>
	<circle id="circle400-4-0" fill="#FF2A2A" cx="956.998" cy="894.442" r="7.857"/>
	<circle id="circle402-1-9" fill="#FF2A2A" cx="1108.914" cy="769.442" r="7.857"/>
	<circle id="circle404-5-0" fill="#FF2A2A" cx="1149.164" cy="929.442" r="7.857"/>
	<circle id="circle406-7-2" fill="#FF2A2A" cx="1261.08" cy="836.109" r="7.857"/>
	<circle id="circle410-9-7" fill="#FF2A2A" cx="1111.136" cy="1053.938" r="7.857"/>
</g>
</svg>
