<?xml version="1.0" encoding="utf-8"?>
<!-- Generator: Adobe Illustrator 16.0.0, SVG Export Plug-In . SVG Version: 6.00 Build 0)  -->
<!DOCTYPE svg PUBLIC "-//W3C//DTD SVG 1.1//EN" "http://www.w3.org/Graphics/SVG/1.1/DTD/svg11.dtd">
<svg version="1.1" xmlns="http://www.w3.org/2000/svg" xmlns:xlink="http://www.w3.org/1999/xlink" x="0px" y="0px" width="220px"
	 height="220px" viewBox="0 0 220 220" enable-background="new 0 0 220 220" xml:space="preserve">
<g id="bg">
</g>
<g id="Layer_1">
	<rect x="-1807.751" y="-105.918" fill="#0073B3" width="3865.441" height="710.867"/>
	<g>
		<defs>
			<rect id="SVGID_439_" width="220" height="220"/>
		</defs>
		<clipPath id="SVGID_2_">
			<use xlink:href="#SVGID_439_"  overflow="visible"/>
		</clipPath>
		<g clip-path="url(#SVGID_2_)">
			<path fill="#FFFFFF" d="M220-45c24.813,0,45,20.187,45,45s-20.187,45-45,45s-45-20.187-45-45S195.187-45,220-45 M220-55
				c-30.377,0-55,24.623-55,55s24.623,55,55,55c30.375,0,55-24.623,55-55S250.375-55,220-55L220-55z"/>
		</g>
		<g clip-path="url(#SVGID_2_)">
			<path fill="#FFFFFF" d="M0-45c24.813,0,45,20.187,45,45S24.813,45,0,45S-45,24.813-45,0S-24.813-45,0-45 M0-55
				c-30.376,0-55,24.623-55,55c0,30.375,24.624,55,55,55c30.375,0,55-24.625,55-55C55-30.377,30.375-55,0-55L0-55z"/>
		</g>
		<g clip-path="url(#SVGID_2_)">
			<path fill="#FFFFFF" d="M220,175c24.813,0,45,20.187,45,45s-20.187,45-45,45s-45-20.187-45-45S195.187,175,220,175 M220,165
				c-30.376,0-55,24.623-55,55c0,30.375,24.624,55,55,55c30.375,0,55-24.625,55-55C275,189.623,250.375,165,220,165L220,165z"/>
		</g>
		<g clip-path="url(#SVGID_2_)">
			<path fill="#FFFFFF" d="M0,175c24.813,0,45,20.187,45,45s-20.187,45-45,45s-45-20.187-45-45S-24.813,175,0,175 M0,165
				c-30.376,0-55,24.623-55,55c0,30.375,24.624,55,55,55c30.375,0,55-24.625,55-55C55,189.623,30.375,165,0,165L0,165z"/>
		</g>
		<g clip-path="url(#SVGID_2_)">
			<path fill="#D45F14" d="M110,160c-27.57,0-50-22.43-50-50s22.43-50,50-50s50,22.43,50,50S137.57,160,110,160z"/>
			<path fill="#D45F14" d="M110,65c24.813,0,45,20.187,45,45s-20.187,45-45,45s-45-20.187-45-45S85.187,65,110,65 M110,55
				c-30.376,0-55,24.623-55,55c0,30.375,24.624,55,55,55c30.375,0,55-24.625,55-55C165,79.623,140.375,55,110,55L110,55z"/>
		</g>
	</g>
</g>
</svg>
