<?xml version="1.0" encoding="utf-8"?>
<!-- Generator: Adobe Illustrator 16.0.0, SVG Export Plug-In . SVG Version: 6.00 Build 0)  -->
<!DOCTYPE svg PUBLIC "-//W3C//DTD SVG 1.1//EN" "http://www.w3.org/Graphics/SVG/1.1/DTD/svg11.dtd">
<svg version="1.1" xmlns="http://www.w3.org/2000/svg" xmlns:xlink="http://www.w3.org/1999/xlink" x="0px" y="0px"
	 width="453.543px" height="453.543px" viewBox="0 0 453.543 453.543" enable-background="new 0 0 453.543 453.543"
	 xml:space="preserve">
<g id="kvadrat">
</g>
<g id="bg" display="none">
	<rect x="-322.723" y="-9419.112" display="inline" width="15266.867" height="13678.951"/>
</g>
<g id="barvno" display="none">
	<path display="inline" d="M255.568,225.919c-0.331-17.211-7.613-31.775-29.459-31.775c-16.219,0-31.443,7.282-45.677,15.889
		l-13.902-25.486c17.873-11.254,40.712-21.184,66.53-21.184c40.713,0,60.572,24.824,60.572,70.17v96.319h-31.113l-2.979-17.874
		h-0.993c-14.563,12.247-31.113,21.846-50.311,21.846c-28.466,0-48.325-19.197-48.325-47.663
		C159.911,251.406,189.039,233.201,255.568,225.919z M220.152,304.034c13.239,0,23.5-6.62,35.416-17.874v-36.409
		c-44.022,5.627-58.586,17.212-58.586,33.431C196.982,297.745,206.581,304.034,220.152,304.034z"/>
	<g id="rde훾a7bela" display="inline">
	</g>
	
		<rect x="-833.008" y="-9839.121" display="inline" fill="none" stroke="#000000" stroke-miterlimit="10" width="16736" height="13952"/>
</g>
<g id="barvno_copy_2">
	<path fill="#00FFFF" d="M255.568,225.919c-0.331-17.211-7.613-31.775-29.459-31.775c-16.219,0-31.443,7.282-45.677,15.889
		l-13.902-25.486c17.873-11.254,40.712-21.184,66.53-21.184c40.713,0,60.572,24.824,60.572,70.17v96.319h-31.113l-2.979-17.874
		h-0.993c-14.563,12.247-31.113,21.846-50.311,21.846c-28.466,0-48.325-19.197-48.325-47.663
		C159.911,251.406,189.039,233.201,255.568,225.919z M220.152,304.034c13.239,0,23.5-6.62,35.416-17.874v-36.409
		c-44.022,5.627-58.586,17.212-58.586,33.431C196.982,297.745,206.581,304.034,220.152,304.034z"/>
	<g id="rde훾a7bela_copy_4">
	</g>
	<rect x="-833.008" y="-9839.121" fill="none" stroke="#000000" stroke-miterlimit="10" width="16736" height="13952"/>
</g>
<g id="sivinsko" display="none">
	<g id="rde훾a7bela_copy_3" display="inline">
	</g>
	<path display="inline" d="M15903.492,4113.379h-16737v-13953h16737V4113.379z M-833.008,4112.379h16736l-0.5-13951h-16735.5
		l0.5,13951H-833.008z"/>
</g>
<g id="linijsko" display="none">
	<path display="inline" d="M255.568,225.919c-0.331-17.211-7.613-31.775-29.459-31.775c-16.219,0-31.443,7.282-45.677,15.889
		l-13.902-25.486c17.873-11.254,40.712-21.184,66.53-21.184c40.713,0,60.572,24.824,60.572,70.17v96.319h-31.113l-2.979-17.874
		h-0.993c-14.563,12.247-31.113,21.846-50.311,21.846c-28.466,0-48.325-19.197-48.325-47.663
		C159.911,251.406,189.039,233.201,255.568,225.919z M220.152,304.034c13.239,0,23.5-6.62,35.416-17.874v-36.409
		c-44.022,5.627-58.586,17.212-58.586,33.431C196.982,297.745,206.581,304.034,220.152,304.034z"/>
	<g id="rde훾a7bela_copy" display="inline">
	</g>
</g>
<g id="pivot">
	<circle fill="none" cx="224.593" cy="327.034" r="14.133"/>
</g>
</svg>
