<?xml version="1.0" encoding="utf-8"?>
<!-- Generator: Adobe Illustrator 16.0.0, SVG Export Plug-In . SVG Version: 6.00 Build 0)  -->
<!DOCTYPE svg PUBLIC "-//W3C//DTD SVG 1.1//EN" "http://www.w3.org/Graphics/SVG/1.1/DTD/svg11.dtd">
<svg version="1.1" xmlns="http://www.w3.org/2000/svg" xmlns:xlink="http://www.w3.org/1999/xlink" x="0px" y="0px"
	 width="453.543px" height="453.543px" viewBox="0 0 453.543 453.543" enable-background="new 0 0 453.543 453.543"
	 xml:space="preserve">
<g id="kvadrat">
</g>
<g id="bg" display="none">
	<rect x="-832.959" y="-8908.876" display="inline" width="15266.867" height="13678.951"/>
</g>
<g id="barvno" display="none">
	<path display="inline" d="M147.83,121.468h69.177c44.685,0,77.453,13.571,77.453,53.29c0,20.521-11.915,40.381-37.071,47.001v1.323
		c31.114,5.297,48.325,22.178,48.325,51.305c0,43.36-35.417,63.551-83.08,63.551H147.83V121.468z M213.697,211.167
		c30.12,0,43.029-11.585,43.029-31.775c0-19.86-14.233-28.135-42.367-28.135h-28.135v59.91H213.697z M218.662,308.148
		c31.775,0,49.649-11.916,49.649-36.41c0-22.507-17.211-33.099-49.649-33.099h-32.438v69.509H218.662z"/>
	<g id="rde훾a7bela" display="inline">
	</g>
	
		<rect x="-1343.244" y="-9328.885" display="inline" fill="none" stroke="#000000" stroke-miterlimit="10" width="16736" height="13952"/>
</g>
<g id="barvno_copy_2">
	<path fill="#00FFFF" d="M147.83,121.468h69.177c44.685,0,77.453,13.571,77.453,53.29c0,20.521-11.915,40.381-37.071,47.001v1.323
		c31.114,5.297,48.325,22.178,48.325,51.305c0,43.36-35.417,63.551-83.08,63.551H147.83V121.468z M213.697,211.167
		c30.12,0,43.029-11.585,43.029-31.775c0-19.86-14.233-28.135-42.367-28.135h-28.135v59.91H213.697z M218.662,308.148
		c31.775,0,49.649-11.916,49.649-36.41c0-22.507-17.211-33.099-49.649-33.099h-32.438v69.509H218.662z"/>
	<g id="rde훾a7bela_copy_4">
	</g>
	<rect x="-1343.244" y="-9328.885" fill="none" stroke="#000000" stroke-miterlimit="10" width="16736" height="13952"/>
</g>
<g id="sivinsko" display="none">
	<g id="rde훾a7bela_copy_3" display="inline">
	</g>
	<path display="inline" d="M15393.256,4623.615h-16737v-13953h16737V4623.615z M-1343.244,4622.615h16736l-0.5-13951h-16735.5
		l0.5,13951H-1343.244z"/>
</g>
<g id="linijsko" display="none">
	<path display="inline" d="M147.83,121.468h69.177c44.685,0,77.453,13.571,77.453,53.29c0,20.521-11.915,40.381-37.071,47.001v1.323
		c31.114,5.297,48.325,22.178,48.325,51.305c0,43.36-35.417,63.551-83.08,63.551H147.83V121.468z M213.697,211.167
		c30.12,0,43.029-11.585,43.029-31.775c0-19.86-14.233-28.135-42.367-28.135h-28.135v59.91H213.697z M218.662,308.148
		c31.775,0,49.649-11.916,49.649-36.41c0-22.507-17.211-33.099-49.649-33.099h-32.438v69.509H218.662z"/>
	<g id="rde훾a7bela_copy" display="inline">
	</g>
</g>
<g id="pivot">
	<circle fill="none" cx="218.748" cy="340.395" r="14.132"/>
</g>
</svg>
