<?xml version="1.0" encoding="utf-8"?>
<!-- Generator: Adobe Illustrator 16.0.0, SVG Export Plug-In . SVG Version: 6.00 Build 0)  -->
<!DOCTYPE svg PUBLIC "-//W3C//DTD SVG 1.1//EN" "http://www.w3.org/Graphics/SVG/1.1/DTD/svg11.dtd">
<svg version="1.1" xmlns="http://www.w3.org/2000/svg" xmlns:xlink="http://www.w3.org/1999/xlink" x="0px" y="0px"
	 width="453.543px" height="453.543px" viewBox="0 0 453.543 453.543" enable-background="new 0 0 453.543 453.543"
	 xml:space="preserve">
<g id="kvadrat">
</g>
<g id="bg" display="none">
	<rect x="-1343.195" y="-9419.112" display="inline" width="15266.867" height="13678.951"/>
</g>
<g id="barvno" display="none">
	<path display="inline" d="M242.329,163.362c20.853,0,36.74,8.274,47.663,18.866l-18.205,24.163
		c-8.605-7.613-17.211-11.916-27.473-11.916c-26.149,0-44.353,21.514-44.353,54.283c0,32.437,17.873,53.951,43.36,53.951
		c13.239,0,24.493-6.619,33.43-13.901l15.888,24.162c-15.226,13.571-34.754,20.853-53.29,20.853
		c-44.353,0-78.445-31.113-78.445-85.064C160.904,194.476,198.968,163.362,242.329,163.362z"/>
	<g id="rde훾a7bela" display="inline">
	</g>
	
		<rect x="-1853.48" y="-9839.121" display="inline" fill="none" stroke="#000000" stroke-miterlimit="10" width="16736" height="13952"/>
</g>
<g id="barvno_copy_2">
	<path fill="#00FFFF" d="M242.329,163.362c20.853,0,36.74,8.274,47.663,18.866l-18.205,24.163
		c-8.605-7.613-17.211-11.916-27.473-11.916c-26.149,0-44.353,21.514-44.353,54.283c0,32.437,17.873,53.951,43.36,53.951
		c13.239,0,24.493-6.619,33.43-13.901l15.888,24.162c-15.226,13.571-34.754,20.853-53.29,20.853
		c-44.353,0-78.445-31.113-78.445-85.064C160.904,194.476,198.968,163.362,242.329,163.362z"/>
	<g id="rde훾a7bela_copy_4">
	</g>
	<rect x="-1853.48" y="-9839.121" fill="none" stroke="#000000" stroke-miterlimit="10" width="16736" height="13952"/>
</g>
<g id="sivinsko" display="none">
	<g id="rde훾a7bela_copy_3" display="inline">
	</g>
	<path display="inline" d="M14883.02,4113.379h-16737v-13953h16737V4113.379z M-1853.48,4112.379h16736l-0.5-13951h-16735.5
		l0.5,13951H-1853.48z"/>
</g>
<g id="linijsko" display="none">
	<path display="inline" d="M242.329,163.362c20.853,0,36.74,8.274,47.663,18.866l-18.205,24.163
		c-8.605-7.613-17.211-11.916-27.473-11.916c-26.149,0-44.353,21.514-44.353,54.283c0,32.437,17.873,53.951,43.36,53.951
		c13.239,0,24.493-6.619,33.43-13.901l15.888,24.162c-15.226,13.571-34.754,20.853-53.29,20.853
		c-44.353,0-78.445-31.113-78.445-85.064C160.904,194.476,198.968,163.362,242.329,163.362z"/>
	<g id="rde훾a7bela_copy" display="inline">
	</g>
</g>
<g id="pivot">
	<circle fill="none" cx="225.45" cy="332.053" r="14.133"/>
</g>
</svg>
