<?xml version="1.0" encoding="utf-8"?>
<!-- Generator: Adobe Illustrator 16.0.0, SVG Export Plug-In . SVG Version: 6.00 Build 0)  -->
<!DOCTYPE svg PUBLIC "-//W3C//DTD SVG 1.1//EN" "http://www.w3.org/Graphics/SVG/1.1/DTD/svg11.dtd">
<svg version="1.1" xmlns="http://www.w3.org/2000/svg" xmlns:xlink="http://www.w3.org/1999/xlink" x="0px" y="0px"
	 width="453.543px" height="453.543px" viewBox="0 0 453.543 453.543" enable-background="new 0 0 453.543 453.543"
	 xml:space="preserve">
<g id="kvadrat">
</g>
<g id="bg" display="none">
	<rect x="-1853.431" y="-8908.876" display="inline" width="15266.867" height="13678.951"/>
</g>
<g id="barvno" display="none">
	<path display="inline" d="M243.818,117.496c26.148,0,47.994,12.908,61.565,27.473L283.868,168.8
		c-10.923-10.923-23.17-17.874-39.719-17.874c-35.747,0-60.903,29.789-60.903,78.445c0,49.318,23.169,79.107,59.578,79.107
		c19.198,0,33.1-7.943,45.346-21.514l21.515,23.5c-17.542,20.191-40.381,31.444-67.522,31.444
		c-55.276,0-98.305-39.719-98.305-111.544C143.858,159.531,188.211,117.496,243.818,117.496z M289.495,66.522l-31.776,38.396
		h-37.071l-31.775-38.396h29.79l19.859,21.184h1.324l19.859-21.184H289.495z"/>
	<g id="rde훾a7bela" display="inline">
	</g>
	
		<rect x="-2363.716" y="-9328.885" display="inline" fill="none" stroke="#000000" stroke-miterlimit="10" width="16736" height="13952"/>
</g>
<g id="barvno_copy_2">
	<path fill="#00FFFF" d="M243.818,117.496c26.148,0,47.994,12.908,61.565,27.473L283.868,168.8
		c-10.923-10.923-23.17-17.874-39.719-17.874c-35.747,0-60.903,29.789-60.903,78.445c0,49.318,23.169,79.107,59.578,79.107
		c19.198,0,33.1-7.943,45.346-21.514l21.515,23.5c-17.542,20.191-40.381,31.444-67.522,31.444
		c-55.276,0-98.305-39.719-98.305-111.544C143.858,159.531,188.211,117.496,243.818,117.496z M289.495,66.522l-31.776,38.396
		h-37.071l-31.775-38.396h29.79l19.859,21.184h1.324l19.859-21.184H289.495z"/>
	<g id="rde훾a7bela_copy_4">
	</g>
	<rect x="-2363.716" y="-9328.885" fill="none" stroke="#000000" stroke-miterlimit="10" width="16736" height="13952"/>
</g>
<g id="sivinsko" display="none">
	<g id="rde훾a7bela_copy_3" display="inline">
	</g>
	<path display="inline" d="M14372.783,4623.615h-16737v-13953h16737V4623.615z M-2363.716,4622.615h16736l-0.5-13951h-16735.5
		l0.5,13951H-2363.716z"/>
</g>
<g id="linijsko" display="none">
	<path display="inline" d="M243.818,117.496c26.148,0,47.994,12.908,61.565,27.473L283.868,168.8
		c-10.923-10.923-23.17-17.874-39.719-17.874c-35.747,0-60.903,29.789-60.903,78.445c0,49.318,23.169,79.107,59.578,79.107
		c19.198,0,33.1-7.943,45.346-21.514l21.515,23.5c-17.542,20.191-40.381,31.444-67.522,31.444
		c-55.276,0-98.305-39.719-98.305-111.544C143.858,159.531,188.211,117.496,243.818,117.496z M289.495,66.522l-31.776,38.396
		h-37.071l-31.775-38.396h29.79l19.859,21.184h1.324l19.859-21.184H289.495z"/>
	<g id="rde훾a7bela_copy" display="inline">
	</g>
</g>
<g id="pivot">
	<circle fill="none" cx="222.097" cy="335.376" r="14.133"/>
</g>
</svg>
