<?xml version="1.0" encoding="utf-8"?>
<!-- Generator: Adobe Illustrator 16.0.0, SVG Export Plug-In . SVG Version: 6.00 Build 0)  -->
<!DOCTYPE svg PUBLIC "-//W3C//DTD SVG 1.1//EN" "http://www.w3.org/Graphics/SVG/1.1/DTD/svg11.dtd">
<svg version="1.1" xmlns="http://www.w3.org/2000/svg" xmlns:xlink="http://www.w3.org/1999/xlink" x="0px" y="0px"
	 width="453.543px" height="453.543px" viewBox="0 0 453.543 453.543" enable-background="new 0 0 453.543 453.543"
	 xml:space="preserve">
<g id="kvadrat">
</g>
<g id="bg" display="none">
	<rect x="-2363.667" y="-9419.112" display="inline" width="15266.867" height="13678.951"/>
</g>
<g id="barvno" display="none">
	<path display="inline" d="M221.476,163.362c18.536,0,30.12,6.95,42.698,17.873l-1.324-26.148V96.17h38.064v233.682H269.47
		l-2.647-17.542h-1.324c-11.916,11.915-28.466,21.514-46.009,21.514c-40.712,0-66.861-31.444-66.861-85.064
		C152.629,195.8,186.06,163.362,221.476,163.362z M228.758,302.379c12.577,0,23.169-5.627,34.092-18.204v-75.798
		c-11.254-9.93-22.177-13.571-33.099-13.571c-20.854,0-37.733,19.529-37.733,53.621
		C192.018,283.513,205.257,302.379,228.758,302.379z"/>
	<g id="rde훾a7bela" display="inline">
	</g>
	
		<rect x="-2873.953" y="-9839.121" display="inline" fill="none" stroke="#000000" stroke-miterlimit="10" width="16736" height="13952"/>
</g>
<g id="barvno_copy_2">
	<path fill="#00FFFF" d="M221.476,163.362c18.536,0,30.12,6.95,42.698,17.873l-1.324-26.148V96.17h38.064v233.682H269.47
		l-2.647-17.542h-1.324c-11.916,11.915-28.466,21.514-46.009,21.514c-40.712,0-66.861-31.444-66.861-85.064
		C152.629,195.8,186.06,163.362,221.476,163.362z M228.758,302.379c12.577,0,23.169-5.627,34.092-18.204v-75.798
		c-11.254-9.93-22.177-13.571-33.099-13.571c-20.854,0-37.733,19.529-37.733,53.621
		C192.018,283.513,205.257,302.379,228.758,302.379z"/>
	<g id="rde훾a7bela_copy_4">
	</g>
	<rect x="-2873.953" y="-9839.121" fill="none" stroke="#000000" stroke-miterlimit="10" width="16736" height="13952"/>
</g>
<g id="sivinsko" display="none">
	<g id="rde훾a7bela_copy_3" display="inline">
	</g>
	<path display="inline" d="M13862.547,4113.379h-16737v-13953h16737V4113.379z M-2873.953,4112.379h16736l-0.5-13951h-16735.5
		l0.5,13951H-2873.953z"/>
</g>
<g id="linijsko" display="none">
	<path display="inline" d="M221.476,163.362c18.536,0,30.12,6.95,42.698,17.873l-1.324-26.148V96.17h38.064v233.682H269.47
		l-2.647-17.542h-1.324c-11.916,11.915-28.466,21.514-46.009,21.514c-40.712,0-66.861-31.444-66.861-85.064
		C152.629,195.8,186.06,163.362,221.476,163.362z M228.758,302.379c12.577,0,23.169-5.627,34.092-18.204v-75.798
		c-11.254-9.93-22.177-13.571-33.099-13.571c-20.854,0-37.733,19.529-37.733,53.621
		C192.018,283.513,205.257,302.379,228.758,302.379z"/>
	<g id="rde훾a7bela_copy" display="inline">
	</g>
</g>
<g id="pivot">
	<circle fill="none" cx="216.252" cy="332.053" r="14.133"/>
</g>
</svg>
