<?xml version="1.0" encoding="utf-8"?>
<!-- Generator: Adobe Illustrator 16.0.0, SVG Export Plug-In . SVG Version: 6.00 Build 0)  -->
<!DOCTYPE svg PUBLIC "-//W3C//DTD SVG 1.1//EN" "http://www.w3.org/Graphics/SVG/1.1/DTD/svg11.dtd">
<svg version="1.1" xmlns="http://www.w3.org/2000/svg" xmlns:xlink="http://www.w3.org/1999/xlink" x="0px" y="0px"
	 width="453.543px" height="453.543px" viewBox="0 0 453.543 453.543" enable-background="new 0 0 453.543 453.543"
	 xml:space="preserve">
<g id="kvadrat">
</g>
<g id="bg" display="none">
	<rect x="-3384.14" y="-9419.112" display="inline" width="15266.867" height="13678.951"/>
</g>
<g id="barvno" display="none">
	<path display="inline" d="M272.284,126.29c-5.958-2.647-12.247-3.972-17.874-3.972c-13.24,0-20.521,8.606-20.521,27.473v17.542
		h31.775v30.121h-31.775v132.397h-38.064V197.454h-21.846v-28.465l21.846-1.656v-16.88c0-33.762,15.557-58.255,53.952-58.255
		c11.585,0,22.508,2.648,29.789,5.627L272.284,126.29z"/>
	<g id="rde훾a7bela" display="inline">
	</g>
	
		<rect x="-3894.425" y="-9839.121" display="inline" fill="none" stroke="#000000" stroke-miterlimit="10" width="16736" height="13952"/>
</g>
<g id="barvno_copy_2">
	<path fill="#00FFFF" d="M272.284,126.29c-5.958-2.647-12.247-3.972-17.874-3.972c-13.24,0-20.521,8.606-20.521,27.473v17.542
		h31.775v30.121h-31.775v132.397h-38.064V197.454h-21.846v-28.465l21.846-1.656v-16.88c0-33.762,15.557-58.255,53.952-58.255
		c11.585,0,22.508,2.648,29.789,5.627L272.284,126.29z"/>
	<g id="rde훾a7bela_copy_4">
	</g>
	<rect x="-3894.425" y="-9839.121" fill="none" stroke="#000000" stroke-miterlimit="10" width="16736" height="13952"/>
</g>
<g id="sivinsko" display="none">
	<g id="rde훾a7bela_copy_3" display="inline">
	</g>
	<path display="inline" d="M12842.074,4113.379h-16737v-13953h16737V4113.379z M-3894.425,4112.379h16736l-0.5-13951h-16735.5
		l0.5,13951H-3894.425z"/>
</g>
<g id="linijsko" display="none">
	<path display="inline" d="M272.284,126.29c-5.958-2.647-12.247-3.972-17.874-3.972c-13.24,0-20.521,8.606-20.521,27.473v17.542
		h31.775v30.121h-31.775v132.397h-38.064V197.454h-21.846v-28.465l21.846-1.656v-16.88c0-33.762,15.557-58.255,53.952-58.255
		c11.585,0,22.508,2.648,29.789,5.627L272.284,126.29z"/>
	<g id="rde훾a7bela_copy" display="inline">
	</g>
</g>
<g id="pivot">
	<circle fill="none" cx="224.6" cy="329.543" r="14.133"/>
</g>
</svg>
