<?xml version="1.0" encoding="utf-8"?>
<!-- Generator: Adobe Illustrator 16.0.0, SVG Export Plug-In . SVG Version: 6.00 Build 0)  -->
<!DOCTYPE svg PUBLIC "-//W3C//DTD SVG 1.1//EN" "http://www.w3.org/Graphics/SVG/1.1/DTD/svg11.dtd">
<svg version="1.1" xmlns="http://www.w3.org/2000/svg" xmlns:xlink="http://www.w3.org/1999/xlink" x="0px" y="0px"
	 width="453.543px" height="453.543px" viewBox="0 0 453.543 453.543" enable-background="new 0 0 453.543 453.543"
	 xml:space="preserve">
<g id="kvadrat">
</g>
<g id="bg" display="none">
	<rect x="-4914.849" y="-9419.112" display="inline" width="15266.867" height="13678.951"/>
</g>
<g id="barvno" display="none">
	<path display="inline" d="M203.271,117.354c0-12.909,9.93-21.846,23.501-21.846c13.57,0,23.5,8.937,23.5,21.846
		c0,12.578-9.93,21.515-23.5,21.515C213.201,138.868,203.271,129.932,203.271,117.354z M207.574,167.333h38.064v162.519h-38.064
		V167.333z"/>
	<g id="rde훾a7bela" display="inline">
	</g>
	
		<rect x="-5425.134" y="-9839.121" display="inline" fill="none" stroke="#000000" stroke-miterlimit="10" width="16736" height="13952"/>
</g>
<g id="barvno_copy_2">
	<path fill="#00FFFF" d="M203.271,117.354c0-12.909,9.93-21.846,23.501-21.846c13.57,0,23.5,8.937,23.5,21.846
		c0,12.578-9.93,21.515-23.5,21.515C213.201,138.868,203.271,129.932,203.271,117.354z M207.574,167.333h38.064v162.519h-38.064
		V167.333z"/>
	<g id="rde훾a7bela_copy_4">
	</g>
	<rect x="-5425.134" y="-9839.121" fill="none" stroke="#000000" stroke-miterlimit="10" width="16736" height="13952"/>
</g>
<g id="sivinsko" display="none">
	<g id="rde훾a7bela_copy_3" display="inline">
	</g>
	<path display="inline" d="M11311.365,4113.379h-16737v-13953h16737V4113.379z M-5425.134,4112.379h16736l-0.5-13951h-16735.5
		l0.5,13951H-5425.134z"/>
</g>
<g id="linijsko" display="none">
	<path display="inline" d="M203.271,117.354c0-12.909,9.93-21.846,23.501-21.846c13.57,0,23.5,8.937,23.5,21.846
		c0,12.578-9.93,21.515-23.5,21.515C213.201,138.868,203.271,129.932,203.271,117.354z M207.574,167.333h38.064v162.519h-38.064
		V167.333z"/>
	<g id="rde훾a7bela_copy" display="inline">
	</g>
</g>
<g id="pivot">
	<circle fill="none" cx="229.687" cy="329.543" r="14.133"/>
</g>
</svg>
