<?xml version="1.0" encoding="utf-8"?>
<!-- Generator: Adobe Illustrator 16.0.0, SVG Export Plug-In . SVG Version: 6.00 Build 0)  -->
<!DOCTYPE svg PUBLIC "-//W3C//DTD SVG 1.1//EN" "http://www.w3.org/Graphics/SVG/1.1/DTD/svg11.dtd">
<svg version="1.1" xmlns="http://www.w3.org/2000/svg" xmlns:xlink="http://www.w3.org/1999/xlink" x="0px" y="0px"
	 width="453.543px" height="453.543px" viewBox="0 0 453.543 453.543" enable-background="new 0 0 453.543 453.543"
	 xml:space="preserve">
<g id="kvadrat">
</g>
<g id="bg" display="none">
	<rect x="-5935.322" y="-8908.876" display="inline" width="15266.867" height="13678.951"/>
</g>
<g id="barvno" display="none">
	<path display="inline" d="M141.541,121.468h38.396v98.306h0.992l77.122-98.306h42.698l-66.53,84.403l77.784,132.066h-42.367
		l-58.586-101.946l-31.113,38.727v63.22h-38.396V121.468z"/>
	<g id="rde훾a7bela" display="inline">
	</g>
	
		<rect x="-6445.607" y="-9328.885" display="inline" fill="none" stroke="#000000" stroke-miterlimit="10" width="16736" height="13952"/>
</g>
<g id="barvno_copy_2">
	<path fill="#00FFFF" d="M141.541,121.468h38.396v98.306h0.992l77.122-98.306h42.698l-66.53,84.403l77.784,132.066h-42.367
		l-58.586-101.946l-31.113,38.727v63.22h-38.396V121.468z"/>
	<g id="rde훾a7bela_copy_4">
	</g>
	<rect x="-6445.607" y="-9328.885" fill="none" stroke="#000000" stroke-miterlimit="10" width="16736" height="13952"/>
</g>
<g id="sivinsko" display="none">
	<g id="rde훾a7bela_copy_3" display="inline">
	</g>
	<path display="inline" d="M10290.893,4623.615h-16737v-13953h16737V4623.615z M-6445.607,4622.615h16736l-0.5-13951h-16735.5
		l0.5,13951H-6445.607z"/>
</g>
<g id="linijsko" display="none">
	<path display="inline" d="M141.541,121.468h38.396v98.306h0.992l77.122-98.306h42.698l-66.53,84.403l77.784,132.066h-42.367
		l-58.586-101.946l-31.113,38.727v63.22h-38.396V121.468z"/>
	<g id="rde훾a7bela_copy" display="inline">
	</g>
</g>
<g id="pivot">
	<circle fill="none" cx="214.978" cy="340.395" r="14.133"/>
</g>
</svg>
