<?xml version="1.0" encoding="utf-8"?>
<!-- Generator: Adobe Illustrator 16.0.0, SVG Export Plug-In . SVG Version: 6.00 Build 0)  -->
<!DOCTYPE svg PUBLIC "-//W3C//DTD SVG 1.1//EN" "http://www.w3.org/Graphics/SVG/1.1/DTD/svg11.dtd">
<svg version="1.1" xmlns="http://www.w3.org/2000/svg" xmlns:xlink="http://www.w3.org/1999/xlink" x="0px" y="0px"
	 width="453.543px" height="453.543px" viewBox="0 0 453.543 453.543" enable-background="new 0 0 453.543 453.543"
	 xml:space="preserve">
<g id="kvadrat">
</g>
<g id="bg" display="none">
	<rect x="-6955.794" y="-8908.876" display="inline" width="15266.867" height="13678.951"/>
</g>
<g id="barvno" display="none">
	<path display="inline" d="M130.949,121.468h42.367l39.057,106.58l14.233,41.043h1.323l13.902-41.043l38.396-106.58h42.367v216.47
		h-36.079v-98.967c0-20.191,2.979-48.987,4.965-68.848h-1.323l-17.543,49.318l-37.402,98.306h-17.874l-37.401-98.306l-17.212-49.318
		H161.4c1.986,19.86,4.965,48.656,4.965,68.848v98.967h-35.416V121.468z"/>
	<g id="rde훾a7bela" display="inline">
	</g>
	
		<rect x="-7466.08" y="-9328.885" display="inline" fill="none" stroke="#000000" stroke-miterlimit="10" width="16736" height="13952"/>
</g>
<g id="barvno_copy_2">
	<path fill="#00FFFF" d="M130.949,121.468h42.367l39.057,106.58l14.233,41.043h1.323l13.902-41.043l38.396-106.58h42.367v216.47
		h-36.079v-98.967c0-20.191,2.979-48.987,4.965-68.848h-1.323l-17.543,49.318l-37.402,98.306h-17.874l-37.401-98.306l-17.212-49.318
		H161.4c1.986,19.86,4.965,48.656,4.965,68.848v98.967h-35.416V121.468z"/>
	<g id="rde훾a7bela_copy_4">
	</g>
	<rect x="-7466.08" y="-9328.885" fill="none" stroke="#000000" stroke-miterlimit="10" width="16736" height="13952"/>
</g>
<g id="sivinsko" display="none">
	<g id="rde훾a7bela_copy_3" display="inline">
	</g>
	<path display="inline" d="M9270.42,4623.615h-16737v-13953h16737V4623.615z M-7466.08,4622.615h16736l-0.5-13951h-16735.5
		l0.5,13951H-7466.08z"/>
</g>
<g id="linijsko" display="none">
	<path display="inline" d="M130.949,121.468h42.367l39.057,106.58l14.233,41.043h1.323l13.902-41.043l38.396-106.58h42.367v216.47
		h-36.079v-98.967c0-20.191,2.979-48.987,4.965-68.848h-1.323l-17.543,49.318l-37.402,98.306h-17.874l-37.401-98.306l-17.212-49.318
		H161.4c1.986,19.86,4.965,48.656,4.965,68.848v98.967h-35.416V121.468z"/>
	<g id="rde훾a7bela_copy" display="inline">
	</g>
</g>
<g id="pivot">
	<circle fill="none" cx="223.326" cy="337.885" r="14.133"/>
</g>
</svg>
