<?xml version="1.0" encoding="utf-8"?>
<!-- Generator: Adobe Illustrator 16.0.0, SVG Export Plug-In . SVG Version: 6.00 Build 0)  -->
<!DOCTYPE svg PUBLIC "-//W3C//DTD SVG 1.1//EN" "http://www.w3.org/Graphics/SVG/1.1/DTD/svg11.dtd">
<svg version="1.1" xmlns="http://www.w3.org/2000/svg" xmlns:xlink="http://www.w3.org/1999/xlink" x="0px" y="0px"
	 width="453.544px" height="453.543px" viewBox="0 0 453.544 453.543" enable-background="new 0 0 453.544 453.543"
	 xml:space="preserve">
<g id="kvadrat">
</g>
<g id="bg" display="none">
	<rect x="-8486.503" y="-8908.876" display="inline" width="15266.867" height="13678.951"/>
</g>
<g id="barvno" display="none">
	<path display="inline" d="M149.153,121.468h72.82c47.332,0,82.416,16.55,82.416,66.86c0,47.994-35.746,70.171-82.416,70.171H187.55
		v79.438h-38.396V121.468z M218.993,227.717c32.107,0,47.664-12.909,47.664-39.389c0-27.141-16.219-36.078-47.664-36.078H187.55
		v75.467H218.993z"/>
	<g id="rde훾a7bela" display="inline">
	</g>
	
		<rect x="-8996.788" y="-9328.885" display="inline" fill="none" stroke="#000000" stroke-miterlimit="10" width="16736" height="13952"/>
</g>
<g id="barvno_copy_2">
	<path fill="#00FFFF" d="M149.153,121.468h72.82c47.332,0,82.416,16.55,82.416,66.86c0,47.994-35.746,70.171-82.416,70.171H187.55
		v79.438h-38.396V121.468z M218.993,227.717c32.107,0,47.664-12.909,47.664-39.389c0-27.141-16.219-36.078-47.664-36.078H187.55
		v75.467H218.993z"/>
	<g id="rde훾a7bela_copy_4">
	</g>
	<rect x="-8996.788" y="-9328.885" fill="none" stroke="#000000" stroke-miterlimit="10" width="16736" height="13952"/>
</g>
<g id="sivinsko" display="none">
	<g id="rde훾a7bela_copy_3" display="inline">
	</g>
	<path display="inline" d="M7739.712,4623.615h-16737v-13953h16737V4623.615z M-8996.788,4622.615h16736l-0.5-13951h-16735.5
		l0.5,13951H-8996.788z"/>
</g>
<g id="linijsko" display="none">
	<path display="inline" d="M149.153,121.468h72.82c47.332,0,82.416,16.55,82.416,66.86c0,47.994-35.746,70.171-82.416,70.171H187.55
		v79.438h-38.396V121.468z M218.993,227.717c32.107,0,47.664-12.909,47.664-39.389c0-27.141-16.219-36.078-47.664-36.078H187.55
		v75.467H218.993z"/>
	<g id="rde훾a7bela_copy" display="inline">
	</g>
</g>
<g id="pivot">
	<circle fill="none" cx="228.413" cy="337.885" r="14.133"/>
</g>
</svg>
