<?xml version="1.0" encoding="utf-8"?>
<!-- Generator: Adobe Illustrator 16.0.0, SVG Export Plug-In . SVG Version: 6.00 Build 0)  -->
<!DOCTYPE svg PUBLIC "-//W3C//DTD SVG 1.1//EN" "http://www.w3.org/Graphics/SVG/1.1/DTD/svg11.dtd">
<svg version="1.1" xmlns="http://www.w3.org/2000/svg" xmlns:xlink="http://www.w3.org/1999/xlink" x="0px" y="0px"
	 width="453.544px" height="453.543px" viewBox="0 0 453.544 453.543" enable-background="new 0 0 453.544 453.543"
	 xml:space="preserve">
<g id="kvadrat">
</g>
<g id="bg" display="none">
	<rect x="-8996.739" y="-8908.876" display="inline" width="15266.867" height="13678.951"/>
</g>
<g id="barvno" display="none">
	<path display="inline" d="M264.339,337.938l-46.67-84.734h-33.1v84.734h-38.395v-216.47h73.148
		c45.016,0,79.439,15.888,79.439,64.213c0,33.099-17.211,52.959-43.029,61.896l51.635,90.361H264.339z M184.569,222.752h30.783
		c29.457,0,45.676-12.578,45.676-37.071c0-24.825-16.219-33.431-45.676-33.431h-30.783V222.752z"/>
	<g id="rde훾a7bela" display="inline">
	</g>
	
		<rect x="-9507.024" y="-9328.885" display="inline" fill="none" stroke="#000000" stroke-miterlimit="10" width="16736" height="13952"/>
</g>
<g id="barvno_copy_2">
	<path fill="#00FFFF" d="M264.339,337.938l-46.67-84.734h-33.1v84.734h-38.395v-216.47h73.148c45.016,0,79.439,15.888,79.439,64.213
		c0,33.099-17.211,52.959-43.029,61.896l51.635,90.361H264.339z M184.569,222.752h30.783c29.457,0,45.676-12.578,45.676-37.071
		c0-24.825-16.219-33.431-45.676-33.431h-30.783V222.752z"/>
	<g id="rde훾a7bela_copy_4">
	</g>
	<rect x="-9507.024" y="-9328.885" fill="none" stroke="#000000" stroke-miterlimit="10" width="16736" height="13952"/>
</g>
<g id="sivinsko" display="none">
	<g id="rde훾a7bela_copy_3" display="inline">
	</g>
	<path display="inline" d="M7229.476,4623.615h-16737v-13953h16737V4623.615z M-9507.024,4622.615h16736l-0.5-13951h-16735.5
		l0.5,13951H-9507.024z"/>
</g>
<g id="linijsko" display="none">
	<path display="inline" d="M264.339,337.938l-46.67-84.734h-33.1v84.734h-38.395v-216.47h73.148
		c45.016,0,79.439,15.888,79.439,64.213c0,33.099-17.211,52.959-43.029,61.896l51.635,90.361H264.339z M184.569,222.752h30.783
		c29.457,0,45.676-12.578,45.676-37.071c0-24.825-16.219-33.431-45.676-33.431h-30.783V222.752z"/>
	<g id="rde훾a7bela_copy" display="inline">
	</g>
</g>
<g id="pivot">
	<circle fill="none" cx="227.587" cy="337.885" r="14.133"/>
</g>
</svg>
