<?xml version="1.0" encoding="utf-8"?>
<!-- Generator: Adobe Illustrator 16.0.0, SVG Export Plug-In . SVG Version: 6.00 Build 0)  -->
<!DOCTYPE svg PUBLIC "-//W3C//DTD SVG 1.1//EN" "http://www.w3.org/Graphics/SVG/1.1/DTD/svg11.dtd">
<svg version="1.1" xmlns="http://www.w3.org/2000/svg" xmlns:xlink="http://www.w3.org/1999/xlink" x="0px" y="0px"
	 width="453.544px" height="453.543px" viewBox="0 0 453.544 453.543" enable-background="new 0 0 453.544 453.543"
	 xml:space="preserve">
<g id="kvadrat">
</g>
<g id="bg" display="none">
	<rect x="-8996.739" y="-9419.112" display="inline" width="15266.867" height="13678.951"/>
</g>
<g id="barvno" display="none">
	<path display="inline" d="M176.792,167.334h31.444l2.648,28.796h1.324c11.584-21.184,28.796-32.769,46.008-32.769
		c8.274,0,13.57,0.993,18.535,3.311l-6.619,33.1c-5.627-1.655-9.931-2.648-16.881-2.648c-12.909,0-28.466,8.938-38.396,33.431
		v99.298h-38.063V167.334z"/>
	<g id="rde훾a7bela" display="inline">
	</g>
	
		<rect x="-9507.024" y="-9839.121" display="inline" fill="none" stroke="#000000" stroke-miterlimit="10" width="16736" height="13952"/>
</g>
<g id="barvno_copy_2">
	<path fill="#00FFFF" d="M176.792,167.334h31.444l2.648,28.796h1.324c11.584-21.184,28.796-32.769,46.008-32.769
		c8.274,0,13.57,0.993,18.535,3.311l-6.619,33.1c-5.627-1.655-9.931-2.648-16.881-2.648c-12.909,0-28.466,8.938-38.396,33.431
		v99.298h-38.063V167.334z"/>
	<g id="rde훾a7bela_copy_4">
	</g>
	<rect x="-9507.024" y="-9839.121" fill="none" stroke="#000000" stroke-miterlimit="10" width="16736" height="13952"/>
</g>
<g id="sivinsko" display="none">
	<g id="rde훾a7bela_copy_3" display="inline">
	</g>
	<path display="inline" d="M7229.476,4113.379h-16737v-13953h16737V4113.379z M-9507.024,4112.379h16736l-0.5-13951h-16735.5
		l0.5,13951H-9507.024z"/>
</g>
<g id="linijsko" display="none">
	<path display="inline" d="M176.792,167.334h31.444l2.648,28.796h1.324c11.584-21.184,28.796-32.769,46.008-32.769
		c8.274,0,13.57,0.993,18.535,3.311l-6.619,33.1c-5.627-1.655-9.931-2.648-16.881-2.648c-12.909,0-28.466,8.938-38.396,33.431
		v99.298h-38.063V167.334z"/>
	<g id="rde훾a7bela_copy" display="inline">
	</g>
</g>
<g id="pivot">
	<circle fill="none" cx="227.587" cy="329.543" r="14.133"/>
</g>
</svg>
