<?xml version="1.0" encoding="utf-8"?>
<!-- Generator: Adobe Illustrator 16.0.0, SVG Export Plug-In . SVG Version: 6.00 Build 0)  -->
<!DOCTYPE svg PUBLIC "-//W3C//DTD SVG 1.1//EN" "http://www.w3.org/Graphics/SVG/1.1/DTD/svg11.dtd">
<svg version="1.1" xmlns="http://www.w3.org/2000/svg" xmlns:xlink="http://www.w3.org/1999/xlink" x="0px" y="0px"
	 width="453.544px" height="453.543px" viewBox="0 0 453.544 453.543" enable-background="new 0 0 453.544 453.543"
	 xml:space="preserve">
<g id="kvadrat">
</g>
<g id="bg" display="none">
	<rect x="-9506.976" y="-9419.112" display="inline" width="15266.867" height="13678.951"/>
</g>
<g id="barvno" display="none">
	<path display="inline" d="M182.253,286.822c14.564,11.254,28.465,18.205,45.016,18.205c17.543,0,25.816-8.275,25.816-19.529
		c0-13.57-17.542-19.528-34.754-26.148c-21.514-7.943-45.677-20.19-45.677-47.332c0-28.465,22.839-48.656,59.247-48.656
		c22.508,0,40.713,9.268,53.953,19.529l-17.543,23.17c-11.254-8.275-22.839-13.902-35.748-13.902
		c-16.219,0-23.831,7.613-23.831,17.873c0,12.909,16.219,17.874,33.761,24.163c22.178,8.274,46.671,18.866,46.671,49.318
		c0,27.804-22.177,50.311-63.22,50.311c-22.177,0-45.678-9.599-61.564-22.507L182.253,286.822z"/>
	<g id="rde훾a7bela" display="inline">
	</g>
	
		<rect x="-10017.261" y="-9839.121" display="inline" fill="none" stroke="#000000" stroke-miterlimit="10" width="16736" height="13952"/>
</g>
<g id="barvno_copy_2">
	<path fill="#00FFFF" d="M182.253,286.822c14.564,11.254,28.465,18.205,45.016,18.205c17.543,0,25.816-8.275,25.816-19.529
		c0-13.57-17.542-19.528-34.754-26.148c-21.514-7.943-45.677-20.19-45.677-47.332c0-28.465,22.839-48.656,59.247-48.656
		c22.508,0,40.713,9.268,53.953,19.529l-17.543,23.17c-11.254-8.275-22.839-13.902-35.748-13.902
		c-16.219,0-23.831,7.613-23.831,17.873c0,12.909,16.219,17.874,33.761,24.163c22.178,8.274,46.671,18.866,46.671,49.318
		c0,27.804-22.177,50.311-63.22,50.311c-22.177,0-45.678-9.599-61.564-22.507L182.253,286.822z"/>
	<g id="rde훾a7bela_copy_4">
	</g>
	<rect x="-10017.261" y="-9839.121" fill="none" stroke="#000000" stroke-miterlimit="10" width="16736" height="13952"/>
</g>
<g id="sivinsko" display="none">
	<g id="rde훾a7bela_copy_3" display="inline">
	</g>
	<path display="inline" d="M6719.239,4113.379h-16737v-13953h16737V4113.379z M-10017.261,4112.379h16736l-0.5-13951h-16735.5
		l0.5,13951H-10017.261z"/>
</g>
<g id="linijsko" display="none">
	<path display="inline" d="M182.253,286.822c14.564,11.254,28.465,18.205,45.016,18.205c17.543,0,25.816-8.275,25.816-19.529
		c0-13.57-17.542-19.528-34.754-26.148c-21.514-7.943-45.677-20.19-45.677-47.332c0-28.465,22.839-48.656,59.247-48.656
		c22.508,0,40.713,9.268,53.953,19.529l-17.543,23.17c-11.254-8.275-22.839-13.902-35.748-13.902
		c-16.219,0-23.831,7.613-23.831,17.873c0,12.909,16.219,17.874,33.761,24.163c22.178,8.274,46.671,18.866,46.671,49.318
		c0,27.804-22.177,50.311-63.22,50.311c-22.177,0-45.678-9.599-61.564-22.507L182.253,286.822z"/>
	<g id="rde훾a7bela_copy" display="inline">
	</g>
</g>
<g id="pivot">
	<circle fill="none" cx="226.761" cy="329.543" r="14.133"/>
</g>
</svg>
