<?xml version="1.0" encoding="utf-8"?>
<!-- Generator: Adobe Illustrator 16.0.0, SVG Export Plug-In . SVG Version: 6.00 Build 0)  -->
<!DOCTYPE svg PUBLIC "-//W3C//DTD SVG 1.1//EN" "http://www.w3.org/Graphics/SVG/1.1/DTD/svg11.dtd">
<svg version="1.1" xmlns="http://www.w3.org/2000/svg" xmlns:xlink="http://www.w3.org/1999/xlink" x="0px" y="0px"
	 width="453.544px" height="453.543px" viewBox="0 0 453.544 453.543" enable-background="new 0 0 453.544 453.543"
	 xml:space="preserve">
<g id="kvadrat">
</g>
<g id="bg" display="none">
	<rect x="-11037.685" y="-8908.876" display="inline" width="15266.867" height="13678.951"/>
</g>
<g id="barvno" display="none">
	<path display="inline" d="M144.851,121.468h38.396v124.454c0,47,17.543,62.557,43.691,62.557c26.479,0,45.014-15.557,45.014-62.557
		V121.468h36.74v121.475c0,71.163-31.443,98.967-81.754,98.967c-49.98,0-82.088-27.804-82.088-98.967V121.468z"/>
	<g id="rde훾a7bela" display="inline">
	</g>
	
		<rect x="-11547.97" y="-9328.885" display="inline" fill="none" stroke="#000000" stroke-miterlimit="10" width="16736" height="13952"/>
</g>
<g id="barvno_copy_2">
	<path fill="#00FFFF" d="M144.851,121.468h38.396v124.454c0,47,17.543,62.557,43.691,62.557c26.479,0,45.014-15.557,45.014-62.557
		V121.468h36.74v121.475c0,71.163-31.443,98.967-81.754,98.967c-49.98,0-82.088-27.804-82.088-98.967V121.468z"/>
	<g id="rde훾a7bela_copy_4">
	</g>
	<rect x="-11547.97" y="-9328.885" fill="none" stroke="#000000" stroke-miterlimit="10" width="16736" height="13952"/>
</g>
<g id="sivinsko" display="none">
	<g id="rde훾a7bela_copy_3" display="inline">
	</g>
	<path display="inline" d="M5188.53,4623.615h-16737v-13953h16737V4623.615z M-11547.97,4622.615h16736l-0.5-13951h-16735.5
		l0.5,13951H-11547.97z"/>
</g>
<g id="linijsko" display="none">
	<path display="inline" d="M144.851,121.468h38.396v124.454c0,47,17.543,62.557,43.691,62.557c26.479,0,45.014-15.557,45.014-62.557
		V121.468h36.74v121.475c0,71.163-31.443,98.967-81.754,98.967c-49.98,0-82.088-27.804-82.088-98.967V121.468z"/>
	<g id="rde훾a7bela_copy" display="inline">
	</g>
</g>
<g id="pivot">
	<circle fill="none" cx="225.668" cy="340.021" r="14.133"/>
</g>
</svg>
