<?xml version="1.0" encoding="utf-8"?>
<!-- Generator: Adobe Illustrator 16.0.0, SVG Export Plug-In . SVG Version: 6.00 Build 0)  -->
<!DOCTYPE svg PUBLIC "-//W3C//DTD SVG 1.1//EN" "http://www.w3.org/Graphics/SVG/1.1/DTD/svg11.dtd">
<svg version="1.1" xmlns="http://www.w3.org/2000/svg" xmlns:xlink="http://www.w3.org/1999/xlink" x="0px" y="0px"
	 width="453.544px" height="453.543px" viewBox="0 0 453.544 453.543" enable-background="new 0 0 453.544 453.543"
	 xml:space="preserve">
<g id="kvadrat">
</g>
<g id="bg" display="none">
	<rect x="-11547.921" y="-9419.112" display="inline" width="15266.867" height="13678.951"/>
</g>
<g id="barvno" display="none">
	<path display="inline" d="M148.823,167.334h38.726l25.817,84.403c4.303,15.888,9.268,32.437,13.57,48.987h1.324
		c4.635-16.551,9.268-33.1,13.902-48.987l25.816-84.403h36.741l-55.276,162.518h-44.021L148.823,167.334z"/>
	<g id="rde훾a7bela" display="inline">
	</g>
	
		<rect x="-12058.206" y="-9839.121" display="inline" fill="none" stroke="#000000" stroke-miterlimit="10" width="16736" height="13952"/>
</g>
<g id="barvno_copy_2">
	<path fill="#00FFFF" d="M148.823,167.334h38.726l25.817,84.403c4.303,15.888,9.268,32.437,13.57,48.987h1.324
		c4.635-16.551,9.268-33.1,13.902-48.987l25.816-84.403h36.741l-55.276,162.518h-44.021L148.823,167.334z"/>
	<g id="rde훾a7bela_copy_4">
	</g>
	<rect x="-12058.206" y="-9839.121" fill="none" stroke="#000000" stroke-miterlimit="10" width="16736" height="13952"/>
</g>
<g id="sivinsko" display="none">
	<g id="rde훾a7bela_copy_3" display="inline">
	</g>
	<path display="inline" d="M4678.294,4113.379h-16737v-13953h16737V4113.379z M-12058.206,4112.379h16736l-0.5-13951h-16735.5
		l0.5,13951H-12058.206z"/>
</g>
<g id="linijsko" display="none">
	<path display="inline" d="M148.823,167.334h38.726l25.817,84.403c4.303,15.888,9.268,32.437,13.57,48.987h1.324
		c4.635-16.551,9.268-33.1,13.902-48.987l25.816-84.403h36.741l-55.276,162.518h-44.021L148.823,167.334z"/>
	<g id="rde훾a7bela_copy" display="inline">
	</g>
</g>
<g id="pivot">
	<circle fill="none" cx="224.842" cy="329.543" r="14.133"/>
</g>
</svg>
