<?xml version="1.0" encoding="utf-8"?>
<!-- Generator: Adobe Illustrator 16.0.0, SVG Export Plug-In . SVG Version: 6.00 Build 0)  -->
<!DOCTYPE svg PUBLIC "-//W3C//DTD SVG 1.1//EN" "http://www.w3.org/Graphics/SVG/1.1/DTD/svg11.dtd">
<svg version="1.1" xmlns="http://www.w3.org/2000/svg" xmlns:xlink="http://www.w3.org/1999/xlink" x="0px" y="0px"
	 width="453.544px" height="453.543px" viewBox="0 0 453.544 453.543" enable-background="new 0 0 453.544 453.543"
	 xml:space="preserve">
<g id="kvadrat">
</g>
<g id="bg" display="none">
	<rect x="-14099.103" y="-9419.112" display="inline" width="15266.867" height="13678.951"/>
</g>
<g id="barvno" display="none">
	<path display="inline" d="M110.925,167.334h38.395l19.529,84.403c3.309,15.557,5.627,30.782,8.605,46.67h1.324
		c2.979-15.888,6.289-31.444,10.26-46.67l21.184-84.403h34.754l21.516,84.403c3.973,15.557,7.281,30.782,10.922,46.67h1.324
		c2.98-15.888,5.627-31.113,8.605-46.67l19.529-84.403h35.748l-41.375,162.518h-45.346l-18.867-75.797
		c-3.641-15.227-6.289-30.121-9.93-47.333h-1.324c-2.979,17.212-5.957,32.438-9.598,47.663l-18.537,75.467h-43.689L110.925,167.334z
		"/>
	<g id="rde훾a7bela" display="inline">
	</g>
	
		<rect x="-14609.388" y="-9839.121" display="inline" fill="none" stroke="#000000" stroke-miterlimit="10" width="16736" height="13952"/>
</g>
<g id="barvno_copy_2">
	<path fill="#00FFFF" d="M110.925,167.334h38.395l19.529,84.403c3.309,15.557,5.627,30.782,8.605,46.67h1.324
		c2.979-15.888,6.289-31.444,10.26-46.67l21.184-84.403h34.754l21.516,84.403c3.973,15.557,7.281,30.782,10.922,46.67h1.324
		c2.98-15.888,5.627-31.113,8.605-46.67l19.529-84.403h35.748l-41.375,162.518h-45.346l-18.867-75.797
		c-3.641-15.227-6.289-30.121-9.93-47.333h-1.324c-2.979,17.212-5.957,32.438-9.598,47.663l-18.537,75.467h-43.689L110.925,167.334z
		"/>
	<g id="rde훾a7bela_copy_4">
	</g>
	<rect x="-14609.388" y="-9839.121" fill="none" stroke="#000000" stroke-miterlimit="10" width="16736" height="13952"/>
</g>
<g id="sivinsko" display="none">
	<g id="rde훾a7bela_copy_3" display="inline">
	</g>
	<path display="inline" d="M2127.112,4113.379h-16737v-13953h16737V4113.379z M-14609.388,4112.379h16736l-0.5-13951h-16735.5
		l0.5,13951H-14609.388z"/>
</g>
<g id="linijsko" display="none">
	<path display="inline" d="M110.925,167.334h38.395l19.529,84.403c3.309,15.557,5.627,30.782,8.605,46.67h1.324
		c2.979-15.888,6.289-31.444,10.26-46.67l21.184-84.403h34.754l21.516,84.403c3.973,15.557,7.281,30.782,10.922,46.67h1.324
		c2.98-15.888,5.627-31.113,8.605-46.67l19.529-84.403h35.748l-41.375,162.518h-45.346l-18.867-75.797
		c-3.641-15.227-6.289-30.121-9.93-47.333h-1.324c-2.979,17.212-5.957,32.438-9.598,47.663l-18.537,75.467h-43.689L110.925,167.334z
		"/>
	<g id="rde훾a7bela_copy" display="inline">
	</g>
</g>
<g id="pivot">
	<circle fill="none" cx="220.71" cy="329.543" r="14.133"/>
</g>
</svg>
