<?xml version="1.0" encoding="utf-8"?>
<!-- Generator: Adobe Illustrator 16.0.0, SVG Export Plug-In . SVG Version: 6.00 Build 0)  -->
<!DOCTYPE svg PUBLIC "-//W3C//DTD SVG 1.1//EN" "http://www.w3.org/Graphics/SVG/1.1/DTD/svg11.dtd">
<svg version="1.1" xmlns="http://www.w3.org/2000/svg" xmlns:xlink="http://www.w3.org/1999/xlink" x="0px" y="0px"
	 width="453.544px" height="453.543px" viewBox="0 0 453.544 453.543" enable-background="new 0 0 453.544 453.543"
	 xml:space="preserve">
<g id="kvadrat">
</g>
<g id="bg" display="none">
	<rect x="-12568.394" y="-8908.876" display="inline" width="15266.867" height="13678.951"/>
</g>
<g id="barvno" display="none">
	<path display="inline" d="M150.313,314.768l104.594-160.862h-94.996v-32.438h142.658v23.169L197.646,305.5h105.586v32.438H150.313
		V314.768z M280.724,66.522l-31.775,38.396h-37.07l-31.775-38.396h29.789l19.859,21.184h1.324l19.859-21.184H280.724z"/>
	<g id="rde훾a7bela" display="inline">
	</g>
	
		<rect x="-13078.679" y="-9328.885" display="inline" fill="none" stroke="#000000" stroke-miterlimit="10" width="16736" height="13952"/>
</g>
<g id="barvno_copy_2">
	<path fill="#00FFFF" d="M150.313,314.768l104.594-160.862h-94.996v-32.438h142.658v23.169L197.646,305.5h105.586v32.438H150.313
		V314.768z M280.724,66.522l-31.775,38.396h-37.07l-31.775-38.396h29.789l19.859,21.184h1.324l19.859-21.184H280.724z"/>
	<g id="rde훾a7bela_copy_4">
	</g>
	<rect x="-13078.679" y="-9328.885" fill="none" stroke="#000000" stroke-miterlimit="10" width="16736" height="13952"/>
</g>
<g id="sivinsko" display="none">
	<g id="rde훾a7bela_copy_3" display="inline">
	</g>
	<path display="inline" d="M3657.821,4623.615h-16737v-13953h16737V4623.615z M-13078.679,4622.615h16736l-0.5-13951h-16735.5
		l0.5,13951H-13078.679z"/>
</g>
<g id="linijsko" display="none">
	<path display="inline" d="M150.313,314.768l104.594-160.862h-94.996v-32.438h142.658v23.169L197.646,305.5h105.586v32.438H150.313
		V314.768z M280.724,66.522l-31.775,38.396h-37.07l-31.775-38.396h29.789l19.859,21.184h1.324l19.859-21.184H280.724z"/>
	<g id="rde훾a7bela_copy" display="inline">
	</g>
</g>
<g id="pivot">
	<circle fill="none" cx="223.189" cy="340.021" r="14.134"/>
</g>
</svg>
