<?xml version="1.0" encoding="utf-8"?>
<!-- Generator: Adobe Illustrator 16.0.0, SVG Export Plug-In . SVG Version: 6.00 Build 0)  -->
<!DOCTYPE svg PUBLIC "-//W3C//DTD SVG 1.1//EN" "http://www.w3.org/Graphics/SVG/1.1/DTD/svg11.dtd">
<svg version="1.1" xmlns="http://www.w3.org/2000/svg" xmlns:xlink="http://www.w3.org/1999/xlink" x="0px" y="0px"
	 width="453.544px" height="453.543px" viewBox="0 0 453.544 453.543" enable-background="new 0 0 453.544 453.543"
	 xml:space="preserve">
<g id="kvadrat">
</g>
<g id="bg" display="none">
	<rect x="-12058.157" y="-9419.112" display="inline" width="15266.867" height="13678.951"/>
</g>
<g id="barvno" display="none">
	<path display="inline" d="M163.222,309.33l76.791-111.876h-68.186v-30.12h115.848v20.19L211.216,299.4h79.107v30.451H163.222
		V309.33z"/>
	<g id="rde훾a7bela" display="inline">
	</g>
	
		<rect x="-12568.442" y="-9839.121" display="inline" fill="none" stroke="#000000" stroke-miterlimit="10" width="16736" height="13952"/>
</g>
<g id="barvno_copy_2">
	<path fill="#00FFFF" d="M163.222,309.33l76.791-111.876h-68.186v-30.12h115.848v20.19L211.216,299.4h79.107v30.451H163.222V309.33z
		"/>
	<g id="rde훾a7bela_copy_4">
	</g>
	<rect x="-12568.442" y="-9839.121" fill="none" stroke="#000000" stroke-miterlimit="10" width="16736" height="13952"/>
</g>
<g id="sivinsko" display="none">
	<g id="rde훾a7bela_copy_3" display="inline">
	</g>
	<path display="inline" d="M4168.058,4113.379h-16737v-13953h16737V4113.379z M-12568.442,4112.379h16736l-0.5-13951h-16735.5
		l0.5,13951H-12568.442z"/>
</g>
<g id="linijsko" display="none">
	<path display="inline" d="M163.222,309.33l76.791-111.876h-68.186v-30.12h115.848v20.19L211.216,299.4h79.107v30.451H163.222
		V309.33z"/>
	<g id="rde훾a7bela_copy" display="inline">
	</g>
</g>
<g id="pivot">
	<circle fill="none" cx="224.016" cy="329.543" r="14.133"/>
</g>
</svg>
