<?xml version="1.0" encoding="utf-8"?>
<!-- Generator: Adobe Illustrator 16.0.0, SVG Export Plug-In . SVG Version: 6.00 Build 0)  -->
<!DOCTYPE svg PUBLIC "-//W3C//DTD SVG 1.1//EN" "http://www.w3.org/Graphics/SVG/1.1/DTD/svg11.dtd">
<svg version="1.1" xmlns="http://www.w3.org/2000/svg" xmlns:xlink="http://www.w3.org/1999/xlink" x="0px" y="0px" width="220px"
	 height="220px" viewBox="0 0 220 220" enable-background="new 0 0 220 220" xml:space="preserve">
<g id="bg">
</g>
<g id="Layer_1">
	<g>
		
			<line fill="none" stroke="#010202" stroke-width="2.4" stroke-linecap="round" stroke-linejoin="round" stroke-miterlimit="10" x1="10.561" y1="87.284" x2="12.315" y2="98.489"/>
		
			<line fill="none" stroke="#010202" stroke-width="2.4" stroke-linecap="round" stroke-linejoin="round" stroke-miterlimit="10" x1="23.46" y1="87.284" x2="21.705" y2="98.489"/>
		
			<rect x="11.438" y="98.489" fill="#7F4F25" stroke="#010202" stroke-width="2.4" stroke-linecap="round" stroke-linejoin="round" stroke-miterlimit="10" width="11.476" height="11.475"/>
		<g>
			
				<path fill="#DEDC06" stroke="#010202" stroke-width="2.4" stroke-linecap="round" stroke-linejoin="round" stroke-miterlimit="10" d="
				M0.91,28.279c0,4.411,3.575,7.986,7.985,7.986c4.411,0,7.986-3.575,7.986-7.986c0,4.411,3.575,7.986,7.985,7.986
				c4.411,0,7.986-3.575,7.986-7.986c0,4.411,3.575,7.986,7.986,7.986c2.046,0,3.913-0.771,5.326-2.037
				c-4.313-9.91-14.043-17.782-28.899-17.782c-15.088,0-24.892,8.118-29.1,18.247c1.329,0.988,2.975,1.572,4.758,1.572
				C-2.666,36.266,0.91,32.69,0.91,28.279z"/>
			
				<path fill="#056734" stroke="#010202" stroke-width="2.4" stroke-linecap="round" stroke-linejoin="round" stroke-miterlimit="10" d="
				M38.724,52.802c0,6.032-4.89,10.921-10.921,10.921c-6.032,0-10.921-4.889-10.921-10.921c0,6.032-4.89,10.921-10.921,10.921
				c-6.032,0-10.921-4.889-10.921-10.921c0,3.815-1.957,7.171-4.92,9.124c8.392,15.337,20.242,24.418,20.242,24.418h8.933h3.956
				h0.921c0,0,11.67-8.94,20.049-24.064C40.937,60.396,38.724,56.858,38.724,52.802z"/>
			
				<path fill="#3BAA35" stroke="#010202" stroke-width="2.4" stroke-linecap="round" stroke-linejoin="round" stroke-miterlimit="10" d="
				M46.165,34.229c-1.413,1.267-3.279,2.037-5.326,2.037c-4.411,0-7.986-3.575-7.986-7.986c0,4.411-3.575,7.986-7.986,7.986
				c-4.41,0-7.985-3.575-7.985-7.986c0,4.411-3.576,7.986-7.986,7.986c-4.41,0-7.985-3.575-7.985-7.986
				c0,4.411-3.576,7.986-7.986,7.986c-1.783,0-3.429-0.584-4.758-1.572c-3.284,7.905-3.16,17.035,0.521,24.485
				c0.463,0.937,0.941,1.852,1.432,2.747c2.963-1.953,4.92-5.309,4.92-9.124c0,6.032,4.889,10.921,10.921,10.921
				c6.031,0,10.921-4.889,10.921-10.921c0,6.032,4.889,10.921,10.921,10.921c6.031,0,10.921-4.889,10.921-10.921
				c0,4.057,2.213,7.594,5.496,9.478c0.558-1.007,1.101-2.04,1.625-3.101C49.599,51.582,49.651,42.24,46.165,34.229z"/>
		</g>
	</g>
	<g>
		<g>
			
				<path fill="#DEDC06" stroke="#010202" stroke-width="2.4" stroke-linecap="round" stroke-linejoin="round" stroke-miterlimit="10" d="
				M221.014,28.279c0,4.411,3.576,7.986,7.986,7.986s7.985-3.575,7.985-7.986c0,4.411,3.576,7.986,7.986,7.986
				s7.986-3.575,7.986-7.986c0,4.411,3.575,7.986,7.985,7.986c2.047,0,3.913-0.771,5.326-2.037
				c-4.313-9.91-14.043-17.782-28.899-17.782c-15.088,0-24.892,8.118-29.1,18.247c1.329,0.988,2.975,1.572,4.758,1.572
				C217.439,36.266,221.014,32.69,221.014,28.279z"/>
			
				<path fill="#056734" stroke="#010202" stroke-width="2.4" stroke-linecap="round" stroke-linejoin="round" stroke-miterlimit="10" d="
				M258.829,52.802c0,6.032-4.89,10.921-10.921,10.921c-6.032,0-10.922-4.889-10.922-10.921c0,6.032-4.89,10.921-10.921,10.921
				c-6.031,0-10.921-4.889-10.921-10.921c0,3.815-1.957,7.171-4.921,9.124c8.391,15.337,20.242,24.418,20.242,24.418h8.934h3.956
				h0.921c0,0,11.67-8.94,20.049-24.064C261.042,60.396,258.829,56.858,258.829,52.802z"/>
			
				<path fill="#3BAA35" stroke="#010202" stroke-width="2.4" stroke-linecap="round" stroke-linejoin="round" stroke-miterlimit="10" d="
				M266.27,34.229c-1.413,1.267-3.28,2.037-5.326,2.037c-4.41,0-7.985-3.575-7.985-7.986c0,4.411-3.576,7.986-7.986,7.986
				s-7.986-3.575-7.986-7.986c0,4.411-3.575,7.986-7.985,7.986s-7.986-3.575-7.986-7.986c0,4.411-3.575,7.986-7.985,7.986
				c-1.783,0-3.429-0.584-4.758-1.572c-3.284,7.905-3.16,17.035,0.521,24.485c0.463,0.937,0.941,1.852,1.431,2.747
				c2.964-1.953,4.921-5.309,4.921-9.124c0,6.032,4.889,10.921,10.921,10.921c6.031,0,10.921-4.889,10.921-10.921
				c0,6.032,4.89,10.921,10.922,10.921c6.031,0,10.921-4.889,10.921-10.921c0,4.057,2.213,7.594,5.496,9.478
				c0.558-1.007,1.101-2.04,1.625-3.101C269.704,51.582,269.755,42.24,266.27,34.229z"/>
		</g>
	</g>
	<g>
		
			<path fill="none" stroke="#010202" stroke-width="4.5" stroke-linecap="round" stroke-linejoin="round" stroke-miterlimit="10" d="
			M117.392,133.995c0,0-1.31,0-4.485,0s-3.212,1.745-3.212,6.634c0,4.888,0,14.314,0,14.314"/>
		
			<polygon fill="#585857" stroke="#010202" stroke-width="2.4" stroke-linecap="round" stroke-linejoin="round" stroke-miterlimit="10" points="
			93.97,161.41 119.597,161.41 117.571,145.592 98.02,145.592 		"/>
		
			<path fill="#585857" stroke="#010202" stroke-width="2.4" stroke-linecap="round" stroke-linejoin="round" stroke-miterlimit="10" d="
			M49.654,177.271c0-13.207,93.404-36.946,93.404-0.574S49.654,190.477,49.654,177.271z"/>
		
			<circle fill="#FFFFFF" stroke="#010202" stroke-width="2.4" stroke-linecap="round" stroke-linejoin="round" stroke-miterlimit="10" cx="121.893" cy="173.942" r="5.832"/>
		
			<circle fill="#FFFFFF" stroke="#010202" stroke-width="2.4" stroke-linecap="round" stroke-linejoin="round" stroke-miterlimit="10" cx="105.154" cy="173.942" r="5.832"/>
		
			<circle fill="#FFFFFF" stroke="#010202" stroke-width="2.4" stroke-linecap="round" stroke-linejoin="round" stroke-miterlimit="10" cx="88.417" cy="173.942" r="5.833"/>
		
			<path fill="#010202" stroke="#010202" stroke-width="2.4" stroke-linecap="round" stroke-linejoin="round" stroke-miterlimit="10" d="
			M49.697,177.228c-0.873,0-4.03-10.517-0.063-10.517C53.603,166.711,50.57,177.228,49.697,177.228z"/>
		
			<path fill="#010202" stroke="#010202" stroke-width="2.4" stroke-linecap="round" stroke-linejoin="round" stroke-miterlimit="10" d="
			M49.697,177.228c-0.873,0-4.03,10.516-0.063,10.516C53.603,187.743,50.57,177.228,49.697,177.228z"/>
	</g>
	<g>
		
			<line fill="none" stroke="#010202" stroke-width="2.4" stroke-linecap="round" stroke-linejoin="round" stroke-miterlimit="10" x1="120.613" y1="87.284" x2="122.368" y2="98.489"/>
		
			<line fill="none" stroke="#010202" stroke-width="2.4" stroke-linecap="round" stroke-linejoin="round" stroke-miterlimit="10" x1="133.512" y1="87.284" x2="131.757" y2="98.489"/>
		
			<rect x="121.49" y="98.489" fill="#7F4F25" stroke="#010202" stroke-width="2.4" stroke-linecap="round" stroke-linejoin="round" stroke-miterlimit="10" width="11.476" height="11.475"/>
		<g>
			
				<path fill="#DEDC06" stroke="#010202" stroke-width="2.4" stroke-linecap="round" stroke-linejoin="round" stroke-miterlimit="10" d="
				M110.962,28.279c0,4.411,3.575,7.986,7.985,7.986c4.411,0,7.986-3.575,7.986-7.986c0,4.411,3.575,7.986,7.985,7.986
				c4.411,0,7.986-3.575,7.986-7.986c0,4.411,3.575,7.986,7.986,7.986c2.046,0,3.912-0.771,5.325-2.037
				c-4.313-9.91-14.043-17.782-28.898-17.782c-15.089,0-24.893,8.118-29.101,18.247c1.329,0.988,2.976,1.572,4.758,1.572
				C107.387,36.266,110.962,32.69,110.962,28.279z"/>
			
				<path fill="#056734" stroke="#010202" stroke-width="2.4" stroke-linecap="round" stroke-linejoin="round" stroke-miterlimit="10" d="
				M148.776,52.802c0,6.032-4.89,10.921-10.921,10.921s-10.921-4.889-10.921-10.921c0,6.032-4.89,10.921-10.921,10.921
				c-6.032,0-10.921-4.889-10.921-10.921c0,3.815-1.957,7.171-4.921,9.124c8.392,15.337,20.242,24.418,20.242,24.418h8.934h3.955
				h0.921c0,0,11.67-8.94,20.049-24.064C150.99,60.396,148.776,56.858,148.776,52.802z"/>
			
				<path fill="#3BAA35" stroke="#010202" stroke-width="2.4" stroke-linecap="round" stroke-linejoin="round" stroke-miterlimit="10" d="
				M156.217,34.229c-1.413,1.267-3.279,2.037-5.325,2.037c-4.411,0-7.986-3.575-7.986-7.986c0,4.411-3.575,7.986-7.986,7.986
				c-4.41,0-7.985-3.575-7.985-7.986c0,4.411-3.575,7.986-7.986,7.986c-4.41,0-7.985-3.575-7.985-7.986
				c0,4.411-3.575,7.986-7.986,7.986c-1.782,0-3.429-0.584-4.758-1.572c-3.284,7.905-3.16,17.035,0.521,24.485
				c0.463,0.937,0.941,1.852,1.432,2.747c2.964-1.953,4.921-5.309,4.921-9.124c0,6.032,4.889,10.921,10.921,10.921
				c6.031,0,10.921-4.889,10.921-10.921c0,6.032,4.89,10.921,10.921,10.921s10.921-4.889,10.921-10.921
				c0,4.057,2.214,7.594,5.496,9.478c0.558-1.007,1.102-2.04,1.625-3.101C159.651,51.582,159.704,42.24,156.217,34.229z"/>
		</g>
	</g>
	<g>
		
			<path fill="none" stroke="#010202" stroke-width="4.5" stroke-linecap="round" stroke-linejoin="round" stroke-miterlimit="10" d="
			M7.314,133.995c0,0-1.309,0-4.485,0c-3.175,0-3.212,1.745-3.212,6.634c0,4.888,0,14.314,0,14.314"/>
		
			<polygon fill="#585857" stroke="#010202" stroke-width="2.4" stroke-linecap="round" stroke-linejoin="round" stroke-miterlimit="10" points="
			-16.107,161.41 9.519,161.41 7.494,145.592 -12.058,145.592 		"/>
		
			<path fill="#585857" stroke="#010202" stroke-width="2.4" stroke-linecap="round" stroke-linejoin="round" stroke-miterlimit="10" d="
			M-60.423,177.271c0-13.207,93.403-36.946,93.403-0.574S-60.423,190.477-60.423,177.271z"/>
		
			<circle fill="#FFFFFF" stroke="#010202" stroke-width="2.4" stroke-linecap="round" stroke-linejoin="round" stroke-miterlimit="10" cx="11.815" cy="173.942" r="5.832"/>
		
			<circle fill="#FFFFFF" stroke="#010202" stroke-width="2.4" stroke-linecap="round" stroke-linejoin="round" stroke-miterlimit="10" cx="-4.923" cy="173.942" r="5.832"/>
	</g>
	<g>
		
			<path fill="none" stroke="#010202" stroke-width="4.5" stroke-linecap="round" stroke-linejoin="round" stroke-miterlimit="10" d="
			M227.469,133.995c0,0-1.309,0-4.484,0s-3.212,1.745-3.212,6.634c0,4.888,0,14.314,0,14.314"/>
		
			<polygon fill="#585857" stroke="#010202" stroke-width="2.4" stroke-linecap="round" stroke-linejoin="round" stroke-miterlimit="10" points="
			204.047,161.41 229.674,161.41 227.649,145.592 208.097,145.592 		"/>
		
			<path fill="#585857" stroke="#010202" stroke-width="2.4" stroke-linecap="round" stroke-linejoin="round" stroke-miterlimit="10" d="
			M159.732,177.271c0-13.207,93.404-36.946,93.404-0.574S159.732,190.477,159.732,177.271z"/>
		
			<circle fill="#FFFFFF" stroke="#010202" stroke-width="2.4" stroke-linecap="round" stroke-linejoin="round" stroke-miterlimit="10" cx="215.232" cy="173.942" r="5.832"/>
		
			<circle fill="#FFFFFF" stroke="#010202" stroke-width="2.4" stroke-linecap="round" stroke-linejoin="round" stroke-miterlimit="10" cx="198.494" cy="173.942" r="5.832"/>
		
			<path fill="#010202" stroke="#010202" stroke-width="2.4" stroke-linecap="round" stroke-linejoin="round" stroke-miterlimit="10" d="
			M159.775,177.228c-0.873,0-4.03-10.517-0.063-10.517C163.68,166.711,160.647,177.228,159.775,177.228z"/>
		
			<path fill="#010202" stroke="#010202" stroke-width="2.4" stroke-linecap="round" stroke-linejoin="round" stroke-miterlimit="10" d="
			M159.775,177.228c-0.873,0-4.03,10.516-0.063,10.516C163.68,187.743,160.647,177.228,159.775,177.228z"/>
	</g>
</g>
</svg>
