<?xml version="1.0" encoding="utf-8"?>
<!-- Generator: Adobe Illustrator 16.0.0, SVG Export Plug-In . SVG Version: 6.00 Build 0)  -->
<!DOCTYPE svg PUBLIC "-//W3C//DTD SVG 1.1//EN" "http://www.w3.org/Graphics/SVG/1.1/DTD/svg11.dtd">
<svg version="1.1" xmlns="http://www.w3.org/2000/svg" xmlns:xlink="http://www.w3.org/1999/xlink" x="0px" y="0px"
	 width="453.543px" height="453.543px" viewBox="0 0 453.543 453.543" enable-background="new 0 0 453.543 453.543"
	 xml:space="preserve">
<g id="kvadrat" display="none">
</g>
<g id="color">
	<g>
		<polygon stroke="#000000" stroke-width="8" stroke-linecap="round" stroke-linejoin="round" stroke-miterlimit="10" points="
			162.363,353.771 142.591,368.92 145.608,343.312 		"/>
		<path stroke="#000000" stroke-width="8" stroke-linecap="round" stroke-linejoin="round" stroke-miterlimit="10" d="
			M283.743,205.066c11.788-18.884,20.833-44.535-3.073-59.456c-25.177-15.717-45.132,7.886-54.781,23.343"/>
		
			<path fill="#FFCF00" stroke="#000000" stroke-width="8" stroke-linecap="round" stroke-linejoin="round" stroke-miterlimit="10" d="
			M258.752,199.94l-26.325,136.905c-28.845,25.209-60.488,32.334-82.51,18.587c-22.531-14.064-29.805-46.376-18.963-84.311
			l112.686-80.615L258.752,199.94z"/>
		<g>
			<path d="M184.932,361.942l-55.522-34.659c-3.514-2.192-4.054-20.212-0.54-18.02l72.489,45.249
				C204.872,356.706,188.446,364.135,184.932,361.942z"/>
			<path d="M219.056,343.157l-88.606-55.31c-3.513-2.193-4.584-6.819-2.391-10.333c2.193-3.513,6.82-4.584,10.334-2.391
				l88.606,55.31c3.514,2.195,4.584,6.82,2.391,10.333C227.196,344.281,222.569,345.351,219.056,343.157z"/>
			<path d="M243,318.019l-103.027-64.312c-3.514-2.193-4.584-6.821-2.391-10.333c2.193-3.514,6.819-4.584,10.333-2.392
				l103.027,64.312c3.514,2.193,4.584,6.819,2.391,10.334C251.14,319.141,246.513,320.212,243,318.019z"/>
			<path d="M261.005,289.173l-103.027-64.312c-3.514-2.193-4.584-6.82-2.391-10.333c2.193-3.513,6.819-4.584,10.333-2.391
				l103.027,64.312c3.514,2.192,4.584,6.821,2.391,10.332C269.146,290.295,264.519,291.366,261.005,289.173z"/>
		</g>
		<g>
			
				<path fill="#C8C8C8" stroke="#000000" stroke-width="8" stroke-linecap="round" stroke-linejoin="round" stroke-miterlimit="10" d="
				M232.021,344.371c-9.145-5.708-15.225-15.287-18.059-28.479c-8.382-38.771,45.643-139.333,46.957-138.226
				c33.126,28.476,44.582,105.21,29.293,143.903c-7.861,19.903-22.294,29.995-40.609,28.42
				C242.986,349.43,237.085,347.532,232.021,344.371z"/>
			
				<path fill="#C8C8C8" stroke="#000000" stroke-width="8" stroke-linecap="round" stroke-linejoin="round" stroke-miterlimit="10" d="
				M110.687,263.276c-9.458-15.762-6.731-33.161,7.696-48.965c28.046-30.729,102.015-54.142,142.147-36.889
				c1.57,0.694-65.043,93.398-103.556,102.896c-13.097,3.249-24.373,1.993-33.517-3.715
				C118.393,273.442,114.097,268.975,110.687,263.276z"/>
		</g>
		<path fill="none" stroke="#000000" stroke-width="10" stroke-linecap="round" stroke-linejoin="round" stroke-miterlimit="10" d="
			M241.252,84.623c29.824,23.614,23.08,43.085,14.729,64.14"/>
		<path fill="none" stroke="#000000" stroke-width="10" stroke-linecap="round" stroke-linejoin="round" stroke-miterlimit="10" d="
			M348.391,151.501c-34.313-16.422-48.844-1.811-64.092,14.939"/>
	</g>
	<g id="rdeča7bela">
	</g>
</g>
<g id="cb" display="none">
	<g display="inline">
		<path fill="none" stroke="#000000" stroke-width="10" stroke-linecap="round" stroke-linejoin="round" stroke-miterlimit="10" d="
			M241.252,84.623c29.824,23.614,23.08,43.085,14.729,64.14"/>
		<path fill="none" stroke="#000000" stroke-width="10" stroke-linecap="round" stroke-linejoin="round" stroke-miterlimit="10" d="
			M348.391,151.501c-34.313-16.422-48.844-1.811-64.092,14.939"/>
		<path fill="none" stroke="#000000" stroke-width="8" stroke-linecap="round" stroke-linejoin="round" stroke-miterlimit="10" d="
			M283.743,205.066c11.788-18.884,20.833-44.535-3.073-59.456c-25.177-15.717-45.132,7.886-54.781,23.343"/>
		<path d="M184.932,361.942l-55.522-34.659c-3.514-2.192-4.054-20.212-0.54-18.02l72.489,45.249
			C204.872,356.706,188.446,364.135,184.932,361.942z"/>
		<path d="M216.151,283.578l-31.107-19.418c-4.492,3.635-8.914,6.836-13.181,9.455l41.584,25.958
			C213.925,294.588,214.859,289.209,216.151,283.578z"/>
		<path d="M226.561,249.99l-15.916-9.935c-3.557,3.751-7.177,7.421-10.816,10.931l21.662,13.522
			C223.046,259.697,224.753,254.833,226.561,249.99z"/>
		<path fill="none" stroke="#000000" stroke-width="8" stroke-linecap="round" stroke-linejoin="round" stroke-miterlimit="10" d="
			M213.962,315.892c-6.167-28.525,21.447-90.496,36.996-120.817l-1.693-1.056c-20.411,27.286-63.956,79.313-92.291,86.301
			c-10.621,2.635-20.042,2.306-28.102-0.956c-6.919,31.253-1.094,57.841,15.765,72.189l-2.046,17.369l13.454-10.309
			c20.182,8.57,46.563,2.119,71.424-17.632C220.835,335.161,216.296,326.754,213.962,315.892z"/>
		<path d="M216.17,323.674l-67.158-41.921c-8.015,0.891-15.232-0.118-21.566-3.015c-1.304,3.301-0.116,7.162,3.002,9.109
			l88.606,55.31c3.108,1.94,7.084,1.323,9.479-1.277C223.058,337.45,218.922,331.354,216.17,323.674z"/>
		<g>
			<path fill="none" stroke="#000000" stroke-width="8" stroke-linecap="round" stroke-linejoin="round" stroke-miterlimit="10" d="
				M232.021,344.371c-9.145-5.708-15.225-15.287-18.059-28.479c-8.382-38.771,45.643-139.333,46.957-138.226
				c33.126,28.476,44.582,105.21,29.293,143.903c-7.861,19.903-22.294,29.995-40.609,28.42
				C242.986,349.43,237.085,347.532,232.021,344.371z"/>
			<path fill="none" stroke="#000000" stroke-width="8" stroke-linecap="round" stroke-linejoin="round" stroke-miterlimit="10" d="
				M110.687,263.276c-9.458-15.762-6.731-33.161,7.696-48.965c28.046-30.729,102.015-54.142,142.147-36.889
				c1.57,0.694-65.043,93.398-103.556,102.896c-13.097,3.249-24.373,1.993-33.517-3.715
				C118.393,273.442,114.097,268.975,110.687,263.276z"/>
		</g>
	</g>
	<g id="rdeča7bela_copy" display="inline">
	</g>
</g>
<g id="pivot">
	<circle fill="none" cx="152.703" cy="361.308" r="14.133"/>
</g>
</svg>
