<?xml version="1.0" encoding="utf-8"?>
<!-- Generator: Adobe Illustrator 16.0.0, SVG Export Plug-In . SVG Version: 6.00 Build 0)  -->
<!DOCTYPE svg PUBLIC "-//W3C//DTD SVG 1.1//EN" "http://www.w3.org/Graphics/SVG/1.1/DTD/svg11.dtd">
<svg version="1.1" xmlns="http://www.w3.org/2000/svg" xmlns:xlink="http://www.w3.org/1999/xlink" x="0px" y="0px"
	 width="453.543px" height="453.543px" viewBox="0 0 453.543 453.543" enable-background="new 0 0 453.543 453.543"
	 xml:space="preserve">
<g id="kvadrat" display="none">
</g>
<g id="color">
	<g>
		
			<path fill="#E84E1B" stroke="#000000" stroke-width="8" stroke-linecap="round" stroke-linejoin="round" stroke-miterlimit="10" d="
			M356.987,192.195c3.647-6.615,5.483-14.31,4.872-22.385c-0.831-10.961-6.002-20.569-13.717-27.31
			c2.709-7.338,2.863-15.637-0.188-23.506c-6.705-17.297-26.306-25.938-43.779-19.297c-0.057,0.021-0.111,0.047-0.168,0.069
			c-12.395-8.233-28.762-9.297-42.374-1.925c-3.963-6.436-9.775-11.856-17.146-15.37c-19.115-9.112-41.838-2.19-52.641,15.388
			c-6.682-3.611-14.453-5.429-22.61-4.826c-7.314,0.545-14.032,2.962-19.713,6.74c-7.582-2.93-16.242-3.193-24.439-0.076
			c-17.297,6.571-26.013,25.653-19.68,42.818c-14.28,12.432-18.031,33.151-8.863,49.744c-6.5,3.923-11.976,9.677-15.524,16.973
			c-9.205,18.924-2.212,41.42,15.542,52.115c-3.648,6.617-5.485,14.309-4.872,22.385c1.586,20.945,19.003,36.965,39.78,37.44
			c0.182,7.534,2.478,15.106,7.086,21.797c11.952,17.354,35.126,22.607,53.359,12.732c3.963,6.436,9.775,11.856,17.146,15.37
			c19.115,9.113,41.839,2.191,52.642-15.385c6.683,3.61,14.453,5.428,22.61,4.823c21.157-1.571,37.34-18.814,37.818-39.383
			c7.61-0.181,15.258-2.454,22.017-7.016c17.529-11.833,22.835-34.776,12.861-52.825c6.501-3.925,11.976-9.679,15.524-16.976
			C381.734,225.385,374.74,202.89,356.987,192.195z"/>
		<g>
			<path d="M327.281,133.117c-4.654-12.132-18.262-18.191-30.393-13.535c-3.183,1.223-5.941,3.064-8.204,5.33l33.27,33.27
				C328.316,151.813,330.716,142.064,327.281,133.117z"/>
		</g>
		<g>
			<path d="M139.796,120.583c-12.131,4.656-18.189,18.263-13.533,30.394c1.222,3.183,3.064,5.942,5.329,8.204l33.27-33.269
				C158.493,119.549,148.745,117.149,139.796,120.583z"/>
		</g>
		<g>
			<path fill="#E84E1B" d="M345.924,219.923c0,65.436-46.765,107.7-119.166,107.7c-73.501,0-119.137-41.27-119.137-107.7
				c0-61.189,53.448-111.008,119.167-111.008C292.475,108.915,345.924,158.729,345.924,219.923z"/>
		</g>
		<g>
			<path fill="#F8B133" d="M226.761,308.01c-60.141,0-97.501-33.884-97.501-88.43c0-50.207,43.75-91.053,97.525-91.053
				c53.762,0,97.501,40.847,97.501,91.053C324.286,273.299,286.005,308.01,226.761,308.01z"/>
			<g>
				<path d="M226.785,131.527c52.104,0,94.501,39.513,94.501,88.053c0,51.905-37.095,85.43-94.525,85.43
					c-58.302,0-94.501-32.735-94.501-85.43C132.259,171.045,174.656,131.527,226.785,131.527 M226.785,125.527
					c-55.43,0-100.525,42.192-100.525,94.053c0,27.599,9.462,50.742,27.364,66.926c17.731,16.031,43.021,24.503,73.138,24.503
					c29.689,0,54.871-8.575,72.822-24.799c18.124-16.379,27.703-39.42,27.703-66.63
					C327.286,167.719,282.201,125.527,226.785,125.527L226.785,125.527z"/>
			</g>
		</g>
		<g>
			<path fill="#F8B133" d="M226.761,308.01c-60.141,0-97.501-33.884-97.501-88.43c0-50.207,43.75-91.053,97.525-91.053
				c53.762,0,97.501,40.847,97.501,91.053C324.286,273.299,286.005,308.01,226.761,308.01z"/>
			<g>
				<path d="M226.785,131.527c52.104,0,94.501,39.513,94.501,88.053c0,51.905-37.095,85.43-94.525,85.43
					c-58.302,0-94.501-32.735-94.501-85.43C132.259,171.045,174.656,131.527,226.785,131.527 M226.785,125.527
					c-55.43,0-100.525,42.192-100.525,94.053c0,27.599,9.462,50.742,27.364,66.926c17.731,16.031,43.021,24.503,73.138,24.503
					c29.689,0,54.871-8.575,72.822-24.799c18.124-16.379,27.703-39.42,27.703-66.63
					C327.286,167.719,282.201,125.527,226.785,125.527L226.785,125.527z"/>
			</g>
		</g>
		<g>
			<path fill="none" stroke="#000000" stroke-width="6" stroke-linecap="round" stroke-linejoin="round" stroke-miterlimit="10" d="
				M230.268,256.881c0,8.562,10.8,15.5,24.119,15.5c13.32,0,24.12-6.938,24.12-15.5"/>
			<path fill="none" stroke="#000000" stroke-width="6" stroke-linecap="round" stroke-linejoin="round" stroke-miterlimit="10" d="
				M230.268,256.881c0,8.562-10.799,15.5-24.119,15.5c-13.319,0-24.119-6.938-24.119-15.5"/>
		</g>
		<path stroke="#000000" stroke-width="6" stroke-linecap="round" stroke-linejoin="round" stroke-miterlimit="10" d="
			M210.649,241.875c0,8.438,8.519,15.048,19.394,15.048s19.394-6.61,19.394-15.048c0,0-3.755-4.103-18.932-4.103
			C215.327,237.772,210.649,241.875,210.649,241.875z"/>
		
			<circle fill="#FFFFFF" stroke="#000000" stroke-width="6" stroke-linecap="round" stroke-linejoin="round" stroke-miterlimit="10" cx="192.714" cy="190.355" r="13.452"/>
		<circle cx="192.54" cy="198.247" r="7.802"/>
		
			<circle fill="#FFFFFF" stroke="#000000" stroke-width="6" stroke-linecap="round" stroke-linejoin="round" stroke-miterlimit="10" cx="254.405" cy="190.355" r="13.453"/>
		<circle cx="254.231" cy="198.247" r="7.802"/>
	</g>
	<g id="rdeča7bela">
	</g>
</g>
<g id="cb" display="none">
	<g display="inline">
		<path fill="none" stroke="#000000" stroke-width="8" stroke-linecap="round" stroke-linejoin="round" stroke-miterlimit="10" d="
			M356.987,192.195c3.647-6.615,5.483-14.31,4.872-22.385c-0.831-10.961-6.002-20.569-13.717-27.31
			c2.709-7.338,2.863-15.637-0.188-23.506c-6.705-17.297-26.306-25.938-43.779-19.297c-0.057,0.021-0.111,0.047-0.168,0.069
			c-12.395-8.233-28.762-9.297-42.374-1.925c-3.963-6.436-9.775-11.856-17.146-15.37c-19.115-9.112-41.838-2.19-52.641,15.388
			c-6.682-3.611-14.453-5.429-22.61-4.826c-7.314,0.545-14.032,2.962-19.713,6.74c-7.582-2.93-16.242-3.193-24.439-0.076
			c-17.297,6.571-26.013,25.653-19.68,42.818c-14.28,12.432-18.031,33.151-8.863,49.744c-6.5,3.923-11.976,9.677-15.524,16.973
			c-9.205,18.924-2.212,41.42,15.542,52.115c-3.648,6.617-5.485,14.309-4.872,22.385c1.586,20.945,19.003,36.965,39.78,37.44
			c0.182,7.534,2.478,15.106,7.086,21.797c11.952,17.354,35.126,22.607,53.359,12.732c3.963,6.436,9.775,11.856,17.146,15.37
			c19.115,9.113,41.839,2.191,52.642-15.385c6.683,3.61,14.453,5.428,22.61,4.823c21.157-1.571,37.34-18.814,37.818-39.383
			c7.61-0.181,15.258-2.454,22.017-7.016c17.529-11.833,22.835-34.776,12.861-52.825c6.501-3.925,11.976-9.679,15.524-16.976
			C381.734,225.385,374.74,202.89,356.987,192.195z"/>
		<g>
			<path fill="none" d="M327.281,133.117c-4.654-12.132-18.262-18.191-30.393-13.535c-3.183,1.223-5.941,3.064-8.204,5.33
				l33.27,33.27C328.316,151.813,330.716,142.064,327.281,133.117z"/>
		</g>
		<g>
			<path fill="none" d="M139.796,120.583c-12.131,4.656-18.189,18.263-13.533,30.394c1.222,3.183,3.064,5.942,5.329,8.204
				l33.27-33.269C158.493,119.549,148.745,117.149,139.796,120.583z"/>
		</g>
		<g>
			<path fill="none" d="M345.924,219.923c0,65.436-46.765,107.7-119.166,107.7c-73.501,0-119.137-41.27-119.137-107.7
				c0-61.189,53.448-111.008,119.167-111.008C292.475,108.915,345.924,158.729,345.924,219.923z"/>
		</g>
		<g>
			<path d="M226.785,131.527c52.104,0,94.501,39.513,94.501,88.053c0,51.905-37.095,85.43-94.525,85.43
				c-58.302,0-94.501-32.735-94.501-85.43C132.259,171.045,174.656,131.527,226.785,131.527 M226.785,125.527
				c-55.43,0-100.525,42.192-100.525,94.053c0,27.599,9.462,50.742,27.364,66.926c17.731,16.031,43.021,24.503,73.138,24.503
				c29.689,0,54.871-8.575,72.822-24.799c18.124-16.379,27.703-39.42,27.703-66.63C327.286,167.719,282.201,125.527,226.785,125.527
				L226.785,125.527z"/>
		</g>
		<g>
			<path d="M226.785,131.527c52.104,0,94.501,39.513,94.501,88.053c0,51.905-37.095,85.43-94.525,85.43
				c-58.302,0-94.501-32.735-94.501-85.43C132.259,171.045,174.656,131.527,226.785,131.527 M226.785,125.527
				c-55.43,0-100.525,42.192-100.525,94.053c0,27.599,9.462,50.742,27.364,66.926c17.731,16.031,43.021,24.503,73.138,24.503
				c29.689,0,54.871-8.575,72.822-24.799c18.124-16.379,27.703-39.42,27.703-66.63C327.286,167.719,282.201,125.527,226.785,125.527
				L226.785,125.527z"/>
		</g>
		<g>
			<path fill="none" stroke="#000000" stroke-width="6" stroke-linecap="round" stroke-linejoin="round" stroke-miterlimit="10" d="
				M230.268,256.881c0,8.562,10.8,15.5,24.119,15.5c13.32,0,24.12-6.938,24.12-15.5"/>
			<path fill="none" stroke="#000000" stroke-width="6" stroke-linecap="round" stroke-linejoin="round" stroke-miterlimit="10" d="
				M230.268,256.881c0,8.562-10.799,15.5-24.119,15.5c-13.319,0-24.119-6.938-24.119-15.5"/>
		</g>
		<path fill="none" stroke="#000000" stroke-width="6" stroke-linecap="round" stroke-linejoin="round" stroke-miterlimit="10" d="
			M210.649,241.875c0,8.438,8.519,15.048,19.394,15.048s19.394-6.61,19.394-15.048c0,0-3.755-4.103-18.932-4.103
			C215.327,237.772,210.649,241.875,210.649,241.875z"/>
		
			<circle fill="none" stroke="#000000" stroke-width="6" stroke-linecap="round" stroke-linejoin="round" stroke-miterlimit="10" cx="192.714" cy="190.355" r="13.452"/>
		<circle cx="192.54" cy="198.247" r="7.802"/>
		
			<circle fill="none" stroke="#000000" stroke-width="6" stroke-linecap="round" stroke-linejoin="round" stroke-miterlimit="10" cx="254.405" cy="190.355" r="13.453"/>
		<circle cx="254.231" cy="198.247" r="7.802"/>
	</g>
	<g id="rdeča7bela_copy" display="inline">
	</g>
</g>
<g id="pivot">
	<circle fill="none" cx="228.518" cy="368.54" r="14.133"/>
</g>
</svg>
