<?xml version="1.0" encoding="utf-8"?>
<!-- Generator: Adobe Illustrator 16.0.0, SVG Export Plug-In . SVG Version: 6.00 Build 0)  -->
<!DOCTYPE svg PUBLIC "-//W3C//DTD SVG 1.1//EN" "http://www.w3.org/Graphics/SVG/1.1/DTD/svg11.dtd">
<svg version="1.1" id="Layer_1" xmlns="http://www.w3.org/2000/svg" xmlns:xlink="http://www.w3.org/1999/xlink" x="0px" y="0px"
	 width="453.543px" height="453.543px" viewBox="0 0 453.543 453.543" enable-background="new 0 0 453.543 453.543"
	 xml:space="preserve">
<g id="kvadrat" display="none">
</g>
<g id="color">
	<g id="rdeča7bela">
	</g>
	<g>
		<g>
			<path fill="none" stroke="#000000" stroke-width="8" stroke-linecap="round" stroke-linejoin="round" stroke-miterlimit="10" d="
				M169.771,102.141c18.195,5.107,56.146,18.898,56.146,63.783"/>
			<path fill="none" stroke="#000000" stroke-width="8" stroke-linecap="round" stroke-linejoin="round" stroke-miterlimit="10" d="
				M282.064,102.141c-18.17,5.201-56.146,18.898-56.146,63.783"/>
			<path fill="#E84E1B" stroke="#000000" stroke-width="8" stroke-linejoin="round" stroke-miterlimit="10" d="M223.028,200.732
				c0-36.271-29.402-65.676-65.675-65.676s-65.676,29.404-65.676,65.676c0,36.272,29.403,65.674,65.676,65.674
				c1.198,0,2.387-0.034,3.569-0.1c-13.524,6.991-22.775,21.096-22.775,37.369c0,23.227,18.826,42.051,42.051,42.051
				c23.225,0,42.051-18.824,42.051-42.051C222.249,281.006,223.028,228.342,223.028,200.732z"/>
			<path fill="#E84E1B" stroke="#000000" stroke-width="8" stroke-linejoin="round" stroke-miterlimit="10" d="M361.863,200.732
				c0-36.271-29.402-65.676-65.676-65.676c-36.271,0-65.674,29.404-65.674,65.676c0,27.609,0.779,80.273,0.779,102.943
				c0,23.227,18.826,42.051,42.05,42.051c23.226,0,42.052-18.824,42.052-42.051c0-16.273-9.25-30.378-22.774-37.369
				c1.182,0.064,2.371,0.1,3.567,0.1C332.461,266.406,361.863,237.004,361.863,200.732z"/>
			
				<path fill="#7E4E24" stroke="#000000" stroke-width="8" stroke-linecap="round" stroke-linejoin="round" stroke-miterlimit="10" d="
				M227.904,351.399c11.783,0,13.406-41.951,13.406-41.951s0-110.755,0-120.531c0-12.125-0.072-35.09-13.906-35.09
				c-13.833,0-13.907,22.965-13.907,35.09c0,9.776,0,120.531,0,120.531S216.122,351.399,227.904,351.399z"/>
			
				<circle fill="#FFCF00" stroke="#000000" stroke-width="8" stroke-linecap="round" stroke-linejoin="round" stroke-miterlimit="10" cx="157.354" cy="200.732" r="21.734"/>
			
				<circle fill="#57B2E5" stroke="#000000" stroke-width="8" stroke-linecap="round" stroke-linejoin="round" stroke-miterlimit="10" cx="180.198" cy="303.677" r="12.757"/>
			
				<circle fill="#FFCF00" stroke="#000000" stroke-width="8" stroke-linecap="round" stroke-linejoin="round" stroke-miterlimit="10" cx="296.188" cy="200.732" r="21.734"/>
			
				<circle fill="#57B2E5" stroke="#000000" stroke-width="8" stroke-linecap="round" stroke-linejoin="round" stroke-miterlimit="10" cx="273.344" cy="303.677" r="12.757"/>
		</g>
	</g>
</g>
<g id="cb" display="none">
	<g id="rdeča7bela_copy" display="inline">
	</g>
</g>
<g id="pivot">
	<circle fill="none" cx="227.729" cy="349.479" r="14.133"/>
</g>
</svg>
