<?xml version="1.0" encoding="utf-8"?>
<!-- Generator: Adobe Illustrator 16.0.0, SVG Export Plug-In . SVG Version: 6.00 Build 0)  -->
<!DOCTYPE svg PUBLIC "-//W3C//DTD SVG 1.1//EN" "http://www.w3.org/Graphics/SVG/1.1/DTD/svg11.dtd">
<svg version="1.1" id="Layer_1" xmlns="http://www.w3.org/2000/svg" xmlns:xlink="http://www.w3.org/1999/xlink" x="0px" y="0px"
	 width="453.543px" height="453.543px" viewBox="0 0 453.543 453.543" enable-background="new 0 0 453.543 453.543"
	 xml:space="preserve">
<g id="kvadrat" display="none">
</g>
<g id="color">
	<g id="rdeča7bela">
	</g>
	<g>
		<path fill="none" stroke="#000000" stroke-width="8" stroke-linecap="round" stroke-linejoin="round" stroke-miterlimit="10" d="
			M189.771,112.141c18.195,5.107,36.146,18.898,36.146,63.783"/>
		<path fill="none" stroke="#000000" stroke-width="8" stroke-linecap="round" stroke-linejoin="round" stroke-miterlimit="10" d="
			M262.064,112.141c-18.17,5.201-36.146,18.898-36.146,63.783"/>
		
			<path fill="#E84E1B" stroke="#000000" stroke-width="8" stroke-linecap="round" stroke-linejoin="round" stroke-miterlimit="10" d="
			M223.028,200.732c0-36.271-29.402-65.676-65.675-65.676s-65.675,29.404-65.675,65.676c0,36.272,29.402,65.674,65.675,65.674
			c1.198,0,2.387-0.034,3.569-0.1c-13.524,6.991-22.775,21.096-22.775,37.369c0,23.227,18.826,42.051,42.051,42.051
			c23.225,0,42.05-18.824,42.05-42.051C222.249,281.006,223.028,228.342,223.028,200.732z"/>
		
			<path fill="#E84E1B" stroke="#000000" stroke-width="8" stroke-linecap="round" stroke-linejoin="round" stroke-miterlimit="10" d="
			M361.863,200.732c0-36.271-29.402-65.676-65.676-65.676c-36.271,0-65.674,29.404-65.674,65.676
			c0,27.609,0.779,80.273,0.779,102.943c0,23.227,18.826,42.051,42.051,42.051s42.051-18.824,42.051-42.051
			c0-16.273-9.25-30.378-22.774-37.369c1.182,0.064,2.371,0.1,3.567,0.1C332.461,266.406,361.863,237.004,361.863,200.732z"/>
		
			<path fill="#7E4E24" stroke="#000000" stroke-width="8" stroke-linecap="round" stroke-linejoin="round" stroke-miterlimit="10" d="
			M227.904,351.399l13.406-20.951c0,0,0-131.755,0-141.531c0-12.125-0.072-35.09-13.906-35.09c-13.833,0-13.907,22.965-13.907,35.09
			c0,9.776,0,141.531,0,141.531L227.904,351.399z"/>
		
			<circle fill="#FFCF00" stroke="#000000" stroke-width="8" stroke-linecap="round" stroke-linejoin="round" stroke-miterlimit="10" cx="157.354" cy="200.732" r="21.734"/>
		
			<circle fill="#57B2E5" stroke="#000000" stroke-width="8" stroke-linecap="round" stroke-linejoin="round" stroke-miterlimit="10" cx="180.198" cy="303.677" r="12.757"/>
		
			<circle fill="#FFCF00" stroke="#000000" stroke-width="8" stroke-linecap="round" stroke-linejoin="round" stroke-miterlimit="10" cx="296.188" cy="200.732" r="21.734"/>
		
			<circle fill="#57B2E5" stroke="#000000" stroke-width="8" stroke-linecap="round" stroke-linejoin="round" stroke-miterlimit="10" cx="273.344" cy="303.677" r="12.757"/>
		<circle cx="189.771" cy="112.141" r="11.662"/>
		<circle cx="264.454" cy="112.141" r="11.662"/>
	</g>
</g>
<g id="cb" display="none">
	<g id="rdeča7bela_copy" display="inline">
	</g>
	<g display="inline">
		<path fill="none" stroke="#000000" stroke-width="8" stroke-linecap="round" stroke-linejoin="round" stroke-miterlimit="10" d="
			M189.771,112.141c3.666,1.029,7.319,2.42,10.82,4.337"/>
		<path fill="none" stroke="#000000" stroke-width="8" stroke-linecap="round" stroke-linejoin="round" stroke-miterlimit="10" d="
			M200.591,116.478c10.701,5.86,19.954,16.725,23.63,37.824"/>
		<path fill="none" stroke="#000000" stroke-width="8" stroke-linecap="round" stroke-linejoin="round" stroke-miterlimit="10" d="
			M262.064,112.141c-2.961,0.848-5.914,1.926-8.787,3.322"/>
		<path fill="none" stroke="#000000" stroke-width="8" stroke-linecap="round" stroke-linejoin="round" stroke-miterlimit="10" d="
			M253.279,115.463c-11.459,5.57-21.616,16.283-25.586,38.379"/>
		<path fill="none" stroke="#000000" stroke-width="8" stroke-linecap="round" stroke-linejoin="round" stroke-miterlimit="10" d="
			M214.816,168.93c-11.202-20.196-32.73-33.873-57.462-33.873c-36.273,0-65.675,29.404-65.675,65.676
			c0,36.272,29.402,65.675,65.675,65.675c1.198,0,2.387-0.035,3.569-0.101c-13.524,6.991-22.775,21.096-22.775,37.369
			c0,23.227,18.826,42.051,42.051,42.051c13.558,0,25.609-6.422,33.299-16.384"/>
		<path fill="none" stroke="#000000" stroke-width="8" stroke-linecap="round" stroke-linejoin="round" stroke-miterlimit="10" d="
			M241.145,330.711c7.713,9.178,19.272,15.016,32.201,15.016c23.225,0,42.051-18.824,42.051-42.051
			c0-16.273-9.252-30.378-22.775-37.369c1.182,0.064,2.371,0.101,3.568,0.101c36.271,0,65.675-29.402,65.675-65.675
			c0-36.271-29.402-65.676-65.675-65.676c-24.066,0-45.098,12.951-56.533,32.258"/>
		<path fill="none" stroke="#000000" stroke-width="8" stroke-linecap="round" stroke-linejoin="round" stroke-miterlimit="10" d="
			M213.497,329.343c0,0.71,0,1.104,0,1.104l14.407,20.951l13.238-20.688"/>
		<path fill="none" stroke="#000000" stroke-width="8" stroke-linecap="round" stroke-linejoin="round" stroke-miterlimit="10" d="
			M241.145,330.711l0.168-0.264c0,0,0-131.755,0-141.531c0-5.929-0.022-14.442-1.656-21.603"/>
		<path fill="none" stroke="#000000" stroke-width="8" stroke-linecap="round" stroke-linejoin="round" stroke-miterlimit="10" d="
			M224.221,154.302c0.973-0.302,2.026-0.476,3.183-0.476c0.099,0,0.189,0.013,0.289,0.016"/>
		<path fill="none" stroke="#000000" stroke-width="8" stroke-linecap="round" stroke-linejoin="round" stroke-miterlimit="10" d="
			M214.816,168.93c1.331-6.963,4.014-12.956,9.405-14.628"/>
		<path fill="none" stroke="#000000" stroke-width="8" stroke-linecap="round" stroke-linejoin="round" stroke-miterlimit="10" d="
			M213.497,329.343c0-12.614,0-131.171,0-140.427c0-5.487,0.02-13.191,1.319-19.986"/>
		<path fill="none" stroke="#000000" stroke-width="8" stroke-linecap="round" stroke-linejoin="round" stroke-miterlimit="10" d="
			M227.693,153.842c6.873,0.164,10.277,6.093,11.961,13.473"/>
		
			<circle fill="none" stroke="#000000" stroke-width="8" stroke-linecap="round" stroke-linejoin="round" stroke-miterlimit="10" cx="157.354" cy="200.732" r="21.734"/>
		
			<circle fill="none" stroke="#000000" stroke-width="8" stroke-linecap="round" stroke-linejoin="round" stroke-miterlimit="10" cx="180.198" cy="303.677" r="12.757"/>
		
			<circle fill="none" stroke="#000000" stroke-width="8" stroke-linecap="round" stroke-linejoin="round" stroke-miterlimit="10" cx="296.188" cy="200.732" r="21.734"/>
		
			<circle fill="none" stroke="#000000" stroke-width="8" stroke-linecap="round" stroke-linejoin="round" stroke-miterlimit="10" cx="273.344" cy="303.677" r="12.757"/>
		<path d="M200.591,116.478c0.538-1.342,0.842-2.803,0.842-4.337c0-6.439-5.221-11.662-11.662-11.662s-11.662,5.223-11.662,11.662
			c0,6.44,5.221,11.662,11.662,11.662C194.678,123.803,198.869,120.769,200.591,116.478"/>
		<path d="M253.279,115.463c1.432,4.82,5.89,8.34,11.175,8.34c6.44,0,11.662-5.222,11.662-11.662
			c0-6.439-5.222-11.662-11.662-11.662s-11.662,5.223-11.662,11.662C252.792,113.297,252.966,114.409,253.279,115.463"/>
	</g>
</g>
<g id="pivot">
	<circle fill="none" cx="221.026" cy="349.479" r="14.133"/>
</g>
</svg>
