<?xml version="1.0" encoding="utf-8"?>
<!-- Generator: Adobe Illustrator 16.0.0, SVG Export Plug-In . SVG Version: 6.00 Build 0)  -->
<!DOCTYPE svg PUBLIC "-//W3C//DTD SVG 1.1//EN" "http://www.w3.org/Graphics/SVG/1.1/DTD/svg11.dtd">
<svg version="1.1" id="Layer_1" xmlns="http://www.w3.org/2000/svg" xmlns:xlink="http://www.w3.org/1999/xlink" x="0px" y="0px"
	 width="453.543px" height="453.543px" viewBox="0 0 453.543 453.543" enable-background="new 0 0 453.543 453.543"
	 xml:space="preserve">
<g id="kvadrat" display="none">
</g>
<g id="color">
	<g>
		<path d="M115.461,332.797c-0.474,0-0.956-0.067-1.434-0.21c-2.646-0.791-4.15-3.577-3.359-6.223
			c0.352-1.177,8.82-29.178,26.609-59.625c23.872-40.857,53.219-66.12,84.87-73.057c2.695-0.587,5.363,1.117,5.954,3.814
			c0.592,2.697-1.116,5.363-3.813,5.955c-70.292,15.406-103.709,124.675-104.039,125.777
			C119.602,331.396,117.613,332.797,115.461,332.797z"/>
		<path d="M79.453,236.011c-1.379,0-2.752-0.567-3.741-1.68c-1.833-2.065-1.646-5.226,0.419-7.059
			c1.941-1.724,48.69-42.172,147.195-40.059c2.761,0.06,4.95,2.347,4.891,5.107c-0.061,2.76-2.346,4.901-5.107,4.891
			c-94.632-2.048-139.892,37.142-140.338,37.537C81.819,235.595,80.634,236.011,79.453,236.011z"/>
		<path d="M211.176,193.594c-28.586,0-55.992-10.063-79.922-29.477c-20.592-16.705-31.282-34.244-31.727-34.982
			c-1.425-2.365-0.663-5.438,1.702-6.863c2.363-1.425,5.437-0.664,6.863,1.702c0.099,0.164,10.397,16.989,29.727,32.592
			c25.612,20.675,54.174,29.573,84.891,26.438c2.75-0.28,5.202,1.72,5.482,4.467c0.279,2.748-1.72,5.202-4.467,5.481
			C219.523,193.382,215.336,193.594,211.176,193.594z"/>
		<path d="M214.213,195.887c-0.923,0-1.857-0.255-2.692-0.791c-53.077-34.006-68.527-97.401-69.158-100.083
			c-0.633-2.688,1.033-5.38,3.72-6.013c2.689-0.633,5.378,1.031,6.013,3.717l0,0c0.146,0.618,15.224,62.183,64.82,93.959
			c2.325,1.49,3.002,4.582,1.513,6.907C217.473,195.074,215.86,195.887,214.213,195.887z"/>
		<path d="M115.461,332.797c-0.474,0-0.956-0.067-1.434-0.21c-2.646-0.791-4.15-3.577-3.359-6.223
			c0.352-1.177,8.82-29.178,26.609-59.625c23.872-40.857,53.219-66.12,84.87-73.057c2.695-0.587,5.363,1.117,5.954,3.814
			c0.592,2.697-1.116,5.363-3.813,5.955c-70.292,15.406-103.709,124.675-104.039,125.777
			C119.602,331.396,117.613,332.797,115.461,332.797z"/>
		<path d="M79.453,236.011c-1.379,0-2.752-0.567-3.741-1.68c-1.833-2.065-1.646-5.226,0.419-7.059
			c1.941-1.724,48.69-42.172,147.195-40.059c2.761,0.06,4.95,2.347,4.891,5.107c-0.061,2.76-2.346,4.901-5.107,4.891
			c-94.632-2.048-139.892,37.142-140.338,37.537C81.819,235.595,80.634,236.011,79.453,236.011z"/>
		<path d="M211.176,193.594c-28.586,0-55.992-10.063-79.922-29.477c-20.592-16.705-31.282-34.244-31.727-34.982
			c-1.425-2.365-0.663-5.438,1.702-6.863c2.363-1.425,5.437-0.664,6.863,1.702c0.099,0.164,10.397,16.989,29.727,32.592
			c25.612,20.675,54.174,29.573,84.891,26.438c2.75-0.28,5.202,1.72,5.482,4.467c0.279,2.748-1.72,5.202-4.467,5.481
			C219.523,193.382,215.336,193.594,211.176,193.594z"/>
		<path d="M214.213,195.887c-0.923,0-1.857-0.255-2.692-0.791c-53.077-34.006-68.527-97.401-69.158-100.083
			c-0.633-2.688,1.033-5.38,3.72-6.013c2.689-0.633,5.378,1.031,6.013,3.717l0,0c0.146,0.618,15.224,62.183,64.82,93.959
			c2.325,1.49,3.002,4.582,1.513,6.907C217.473,195.074,215.86,195.887,214.213,195.887z"/>
		<path d="M338.083,332.797c-2.152,0-4.14-1.4-4.788-3.568c-0.33-1.102-33.818-110.388-104.039-125.778
			c-2.698-0.591-4.405-3.257-3.814-5.955c0.591-2.698,3.256-4.404,5.955-3.814c31.65,6.937,60.998,32.2,84.869,73.057
			c17.79,30.447,26.258,58.448,26.61,59.625c0.79,2.646-0.713,5.43-3.358,6.221C339.04,332.729,338.558,332.797,338.083,332.797z"/>
		<path d="M374.09,236.011c-1.179,0-2.361-0.414-3.313-1.256c-0.548-0.48-46.171-39.591-140.343-37.543
			c-0.037,0-0.074,0.001-0.11,0.001c-2.711,0-4.938-2.168-4.997-4.892c-0.06-2.761,2.13-5.047,4.891-5.107
			c98.481-2.139,145.253,38.334,147.194,40.059c2.064,1.833,2.252,4.993,0.418,7.059
			C376.843,235.444,375.469,236.011,374.09,236.011z"/>
		<path d="M242.367,193.594c-4.161,0-8.344-0.213-12.548-0.642c-2.748-0.28-4.748-2.734-4.467-5.481
			c0.28-2.748,2.751-4.746,5.481-4.467c73.643,7.507,114.218-58.364,114.619-59.03c1.424-2.366,4.497-3.127,6.863-1.702
			c2.365,1.425,3.127,4.498,1.701,6.863c-0.444,0.738-11.135,18.277-31.727,34.982C298.361,183.53,270.952,193.594,242.367,193.594z
			"/>
		<path d="M239.331,195.887c-1.647,0-3.26-0.813-4.215-2.303c-1.49-2.325-0.813-5.417,1.513-6.907
			c49.7-31.844,64.673-93.338,64.818-93.956c0.634-2.688,3.317-4.357,6.014-3.72c2.688,0.633,4.354,3.325,3.721,6.013
			c-0.632,2.682-16.083,66.077-69.158,100.083C241.188,195.632,240.254,195.887,239.331,195.887z"/>
		<g>
			<ellipse cx="225.333" cy="284.29" rx="44.608" ry="75.385"/>
			<path d="M225.333,364.675c-13.754,0-26.484-8.713-35.846-24.533c-8.875-14.998-13.763-34.833-13.763-55.852
				s4.888-40.854,13.763-55.853c9.362-15.82,22.092-24.533,35.846-24.533s26.484,8.713,35.846,24.533
				c8.875,14.998,13.763,34.834,13.763,55.853s-4.888,40.854-13.763,55.852C251.817,355.962,239.087,364.675,225.333,364.675z
				 M225.333,213.905c-21.47,0-39.609,32.232-39.609,70.386c0,38.152,18.139,70.385,39.609,70.385
				c21.47,0,39.608-32.232,39.608-70.385C264.941,246.137,246.803,213.905,225.333,213.905z"/>
		</g>
		<g>
			<ellipse cx="225.333" cy="188.606" rx="24.556" ry="30.943"/>
			<path d="M225.333,224.549c-16.297,0-29.555-16.124-29.555-35.943c0-19.819,13.258-35.942,29.555-35.942
				s29.556,16.124,29.556,35.942C254.889,208.425,241.63,224.549,225.333,224.549z M225.333,162.663
				c-10.783,0-19.555,11.638-19.555,25.942c0,14.305,8.772,25.943,19.555,25.943c10.783,0,19.556-11.638,19.556-25.943
				C244.889,174.301,236.116,162.663,225.333,162.663z"/>
		</g>
		<path d="M223.165,167.33c-0.019,0-0.037,0-0.056,0c-0.928-0.021-1.768-0.554-2.182-1.384l-14.511-29.11
			c-0.616-1.236-0.114-2.737,1.122-3.353c1.235-0.615,2.736-0.113,3.353,1.122l12.393,24.861l13.857-24.959
			c0.671-1.208,2.193-1.643,3.399-0.972c1.207,0.67,1.642,2.192,0.972,3.399l-16.162,29.11
			C224.908,166.839,224.071,167.33,223.165,167.33z"/>
	</g>
	<g id="rdeča7bela">
	</g>
</g>
<g id="cb" display="none">
	<g display="inline">
		
			<polyline fill="none" stroke="#000000" stroke-width="5" stroke-linecap="round" stroke-linejoin="round" stroke-miterlimit="10" points="
			208.653,129.72 223.164,158.83 239.326,129.72 		"/>
		<path fill="none" stroke="#000000" stroke-width="8" stroke-linecap="round" stroke-linejoin="round" stroke-miterlimit="10" d="
			M204.519,205.016c-60.991,28.901-89.06,122.78-89.06,122.78"/>
		<path fill="none" stroke="#000000" stroke-width="8" stroke-linecap="round" stroke-linejoin="round" stroke-miterlimit="10" d="
			M200.976,192.48c-82.457,3.842-121.525,38.531-121.525,38.531"/>
		<path fill="none" stroke="#000000" stroke-width="8" stroke-linecap="round" stroke-linejoin="round" stroke-miterlimit="10" d="
			M103.81,126.554c0,0,33.769,56.017,96.978,61.596"/>
		<path fill="none" stroke="#000000" stroke-width="8" stroke-linecap="round" stroke-linejoin="round" stroke-miterlimit="10" d="
			M147.229,93.867c0,0,12.506,53.064,54.203,87.653"/>
		<path fill="none" stroke="#000000" stroke-width="8" stroke-linecap="round" stroke-linejoin="round" stroke-miterlimit="10" d="
			M338.085,327.796c0,0-28.79-96.313-91.421-123.869"/>
		<path fill="none" stroke="#000000" stroke-width="8" stroke-linecap="round" stroke-linejoin="round" stroke-miterlimit="10" d="
			M374.092,231.011c0,0-39.978-35.486-124.391-38.646"/>
		<path fill="none" stroke="#000000" stroke-width="8" stroke-linecap="round" stroke-linejoin="round" stroke-miterlimit="10" d="
			M349.734,126.554c0,0-34.793,57.716-99.852,61.813"/>
		<path fill="none" stroke="#000000" stroke-width="8" stroke-linecap="round" stroke-linejoin="round" stroke-miterlimit="10" d="
			M306.314,93.867c0,0-13.014,55.22-56.754,89.717"/>
		<path fill="none" stroke="#000000" stroke-width="8" stroke-linecap="round" stroke-linejoin="round" stroke-miterlimit="10" d="
			M200.976,192.48c0.453,4.563,1.69,8.814,3.542,12.536"/>
		<g>
			<path fill="none" stroke="#000000" stroke-width="8" stroke-linecap="round" stroke-linejoin="round" stroke-miterlimit="10" d="
				M240.203,213.212c-4.127,3.97-9.276,6.337-14.87,6.337s-10.744-2.366-14.872-6.337c-17.323,10.352-29.738,38.258-29.738,71.078
				c0,41.633,19.972,75.385,44.609,75.385c24.637,0,44.609-33.751,44.609-75.385C269.941,251.469,257.527,223.563,240.203,213.212z"
				/>
			<g>
				
					<path fill="none" stroke="#000000" stroke-width="8" stroke-linecap="round" stroke-linejoin="round" stroke-miterlimit="10" d="
					M210.461,213.212c-17.323,10.352-29.738,38.258-29.738,71.078c0,41.633,19.972,75.385,44.609,75.385
					c24.637,0,44.609-33.751,44.609-75.385c0-32.821-12.416-60.729-29.739-71.078"/>
				
					<path fill="none" stroke="#000000" stroke-width="8" stroke-linecap="round" stroke-linejoin="round" stroke-miterlimit="10" d="
					M240.203,213.212c2.613-2.516,4.82-5.667,6.46-9.285"/>
				
					<path fill="none" stroke="#000000" stroke-width="8" stroke-linecap="round" stroke-linejoin="round" stroke-miterlimit="10" d="
					M204.519,205.016c1.575,3.165,3.595,5.938,5.943,8.196"/>
				
					<path fill="none" stroke="#000000" stroke-width="8" stroke-linecap="round" stroke-linejoin="round" stroke-miterlimit="10" d="
					M210.461,213.212c4.127,3.971,9.277,6.337,14.872,6.337c5.594,0,10.743-2.367,14.87-6.337"/>
			</g>
		</g>
		<path fill="none" stroke="#000000" stroke-width="8" stroke-linecap="round" stroke-linejoin="round" stroke-miterlimit="10" d="
			M201.432,181.521c-0.396,2.134-0.619,4.352-0.645,6.629"/>
		<path fill="none" stroke="#000000" stroke-width="8" stroke-linecap="round" stroke-linejoin="round" stroke-miterlimit="10" d="
			M246.664,203.927c1.581-3.486,2.637-7.396,3.038-11.563"/>
		<path fill="none" stroke="#000000" stroke-width="8" stroke-linecap="round" stroke-linejoin="round" stroke-miterlimit="10" d="
			M201.432,181.521c2.543-13.671,12.275-23.854,23.901-23.854c12.204,0,22.323,11.219,24.228,25.917"/>
		<path fill="none" stroke="#000000" stroke-width="8" stroke-linecap="round" stroke-linejoin="round" stroke-miterlimit="10" d="
			M249.883,188.367c-0.01-1.628-0.119-3.226-0.322-4.783"/>
		<path fill="none" stroke="#000000" stroke-width="8" stroke-linecap="round" stroke-linejoin="round" stroke-miterlimit="10" d="
			M249.883,188.367c0,0.08,0.006,0.158,0.006,0.238c0,1.273-0.068,2.525-0.188,3.758"/>
		<path fill="none" stroke="#000000" stroke-width="8" stroke-linecap="round" stroke-linejoin="round" stroke-miterlimit="10" d="
			M200.976,192.48c-0.126-1.27-0.198-2.56-0.198-3.874c0-0.152,0.007-0.303,0.009-0.456"/>
	</g>
	<g id="rdeča7bela_copy" display="inline">
	</g>
</g>
<g id="pivot">
	<circle fill="none" cx="224.063" cy="358.414" r="14.133"/>
</g>
</svg>
