<?xml version="1.0" encoding="utf-8"?>
<!-- Generator: Adobe Illustrator 16.0.0, SVG Export Plug-In . SVG Version: 6.00 Build 0)  -->
<!DOCTYPE svg PUBLIC "-//W3C//DTD SVG 1.1//EN" "http://www.w3.org/Graphics/SVG/1.1/DTD/svg11.dtd">
<svg version="1.1" xmlns="http://www.w3.org/2000/svg" xmlns:xlink="http://www.w3.org/1999/xlink" x="0px" y="0px"
	 width="453.543px" height="453.543px" viewBox="0 0 453.543 453.543" enable-background="new 0 0 453.543 453.543"
	 xml:space="preserve">
<g id="kvadrat" display="none">
</g>
<g id="color">
	<g id="rdeča7bela">
	</g>
	<g>
		
			<path fill="#57B2E5" stroke="#000000" stroke-width="8" stroke-linecap="round" stroke-linejoin="round" stroke-miterlimit="10" d="
			M213.961,318.166c-22.238,0-34.981-14.571-34.981-39.98c0-2.765,2.235-5,4.995-5c2.757,0,72.198,19.988,74.965,19.988
			c2.757,0,4.995,2.239,4.995,5C263.934,318.166,239.66,318.166,213.961,318.166z"/>
		
			<path fill="#57B2E5" stroke="#000000" stroke-width="8" stroke-linecap="round" stroke-linejoin="round" stroke-miterlimit="10" d="
			M283.187,147.324c-7.76-11.947-34.583-11.947-62.733-11.947c-26.614,0-49.966,21.018-49.966,44.979c0,0,0,0,0,0.003
			c0,2.757,9.99,0,9.99,0v-0.003h105.891C286.369,180.356,284.639,149.563,283.187,147.324z"/>
		
			<path fill="#57B2E5" stroke="#000000" stroke-width="8" stroke-linecap="round" stroke-linejoin="round" stroke-miterlimit="10" d="
			M374.514,227.876c0-28.978-49.296-79.632-95.583-79.632c-64.568,0-127.899,44.792-151.731,61.65
			c-0.977,0.688-1.864,1.333-2.696,1.905c-6.051-5.566-17.102-14.959-23.249-18.043c-3.448-1.724-6.729-2.598-9.733-2.598
			c-8.119,0-12.493,6.219-12.493,12.064v59.982c0,5.844,4.374,12.064,12.493,12.064c3.004,0,6.285-0.875,9.733-2.606
			c6.187-3.091,17.348-12.596,23.369-18.155c15.694,9.669,83.393,48.669,154.307,48.669
			C331.853,303.176,374.514,256.854,374.514,227.876z"/>
		<path fill="none" stroke="#000000" stroke-width="8" stroke-linecap="round" stroke-linejoin="round" stroke-miterlimit="10" d="
			M298.271,183.23c0,0-40.032,46.987,0,89.957"/>
		<path d="M338.836,218.281c0,5.481-4.446,9.931-9.931,9.931c-5.485,0-9.931-4.45-9.931-9.931c0-5.484,4.446-9.931,9.931-9.931
			C334.39,208.35,338.836,212.796,338.836,218.281z"/>
	</g>
</g>
<g id="cb" display="none">
	<g id="rdeča7bela_copy" display="inline">
	</g>
	<g display="inline">
		<g>
			<path fill="none" stroke="#000000" stroke-width="8" stroke-linecap="round" stroke-linejoin="round" stroke-miterlimit="10" d="
				M171.45,181.394c-0.593-0.182-0.962-0.507-0.962-1.035c0-0.003,0-0.003,0-0.003c0-23.962,23.352-44.979,49.966-44.979
				c28.15,0,54.974,0,62.733,11.947c0.117,0.181,0.236,0.566,0.356,1.088"/>
			<path fill="none" stroke="#000000" stroke-width="8" stroke-linecap="round" stroke-linejoin="round" stroke-miterlimit="10" d="
				M179.072,281.669c1.129,23.248,13.69,36.497,34.889,36.497c23.649,0,46.076-0.013,49.505-15.593"/>
			<path fill="none" stroke="#000000" stroke-width="8" stroke-linecap="round" stroke-linejoin="round" stroke-miterlimit="10" d="
				M171.45,181.394c-19.323,10.872-34.856,21.855-44.25,28.5c-0.977,0.688-1.864,1.333-2.696,1.905
				c-6.051-5.566-17.102-14.959-23.249-18.043c-3.448-1.724-6.729-2.598-9.733-2.598c-8.119,0-12.493,6.219-12.493,12.064v59.982
				c0,5.844,4.374,12.064,12.493,12.064c3.004,0,6.285-0.875,9.733-2.606c6.187-3.091,17.348-12.596,23.369-18.155
				c7.657,4.717,27.698,16.417,54.448,27.163"/>
			<path fill="none" stroke="#000000" stroke-width="8" stroke-linecap="round" stroke-linejoin="round" stroke-miterlimit="10" d="
				M171.45,181.394c29.702-16.708,68.363-33.15,107.481-33.15c1.535,0,3.073,0.059,4.612,0.168"/>
			<path fill="none" stroke="#000000" stroke-width="8" stroke-linecap="round" stroke-linejoin="round" stroke-miterlimit="10" d="
				M283.543,148.413c44.89,3.171,90.971,51.447,90.971,79.464c0,28.978-42.661,75.299-95.583,75.299
				c-5.179,0-10.339-0.213-15.464-0.603"/>
			<path fill="none" stroke="#000000" stroke-width="8" stroke-linecap="round" stroke-linejoin="round" stroke-miterlimit="10" d="
				M179.072,281.669c24.073,9.67,53.579,18.563,84.395,20.903"/>
		</g>
		<path fill="none" stroke="#000000" stroke-width="8" stroke-linecap="round" stroke-linejoin="round" stroke-miterlimit="10" d="
			M298.271,183.23c0,0-40.032,46.987,0,89.957"/>
		<path fill="none" stroke="#000000" stroke-width="8" stroke-linecap="round" stroke-linejoin="round" stroke-miterlimit="10" d="
			M338.836,218.281c0,5.481-4.446,9.931-9.931,9.931c-5.485,0-9.931-4.45-9.931-9.931c0-5.484,4.446-9.931,9.931-9.931
			C334.39,208.35,338.836,212.796,338.836,218.281z"/>
	</g>
</g>
<g id="pivot">
	<circle fill="none" cx="225.661" cy="319.35" r="14.133"/>
</g>
</svg>
