<?xml version="1.0" encoding="utf-8"?>
<!-- Generator: Adobe Illustrator 16.0.0, SVG Export Plug-In . SVG Version: 6.00 Build 0)  -->
<!DOCTYPE svg PUBLIC "-//W3C//DTD SVG 1.1//EN" "http://www.w3.org/Graphics/SVG/1.1/DTD/svg11.dtd">
<svg version="1.1" xmlns="http://www.w3.org/2000/svg" xmlns:xlink="http://www.w3.org/1999/xlink" x="0px" y="0px"
	 width="453.543px" height="453.543px" viewBox="0 0 453.543 453.543" enable-background="new 0 0 453.543 453.543"
	 xml:space="preserve">
<g id="kvadrat">
</g>
<g id="Layer_1">
</g>
<g id="Layer_2">
	
		<path fill="#7E4E24" stroke="#000000" stroke-width="8" stroke-linecap="round" stroke-linejoin="round" stroke-miterlimit="10" d="
		M312.814,206.75c0,0-36,116.364-36,134.33c0,17.966-127.392,17.966-127.392,0c0-17.965-36-134.33-36-134.33"/>
	
		<path fill="#35A8E0" stroke="#000000" stroke-width="8" stroke-linecap="round" stroke-linejoin="round" stroke-miterlimit="10" d="
		M312.814,206.75c0,0-36,116.364-36,134.33c0,17.966-127.392,17.966-127.392,0c0-17.965-36-134.33-36-134.33"/>
	
		<ellipse fill="#7E4E24" stroke="#000000" stroke-width="8" stroke-linecap="round" stroke-linejoin="round" stroke-miterlimit="10" cx="213.119" cy="206.75" rx="99.696" ry="32.53"/>
	
		<path fill="#FFFFFF" stroke="#000000" stroke-width="8" stroke-linecap="round" stroke-linejoin="round" stroke-miterlimit="10" d="
		M267.421,160.447c-1.438,0-3.307-0.429-5.48-1.181c0.989-2.537,1.537-5.295,1.537-8.182c0-12.455-10.097-22.551-22.55-22.551
		c-1.817,0-3.582,0.221-5.273,0.626c0.006-0.208,0.016-0.417,0.016-0.626c0-12.455-10.096-22.551-22.551-22.551
		s-22.551,10.096-22.551,22.551c0,0.21,0.01,0.418,0.016,0.626c-1.692-0.406-3.456-0.626-5.273-0.626
		c-12.454,0-22.551,10.097-22.551,22.551c0,2.887,0.549,5.645,1.537,8.182c-2.174,0.752-4.042,1.181-5.48,1.181
		c-12.453,0-22.549,10.096-22.549,22.551c0,12.305,3.439,34.921,76.852,35.461c73.412-0.541,76.852-23.156,76.852-35.461
		C289.971,170.543,279.875,160.447,267.421,160.447z"/>
	
		<circle fill="#E20613" stroke="#000000" stroke-width="8" stroke-linecap="round" stroke-linejoin="round" stroke-miterlimit="10" cx="180.439" cy="124.807" r="18.335"/>
	<path fill="none" stroke="#000000" stroke-width="8" stroke-linecap="round" stroke-linejoin="round" stroke-miterlimit="10" d="
		M177.61,118.913c0,0-14.181-26.297,3.29-47.805"/>
	
		<path fill="#7E4E24" stroke="#000000" stroke-width="8" stroke-linecap="round" stroke-linejoin="round" stroke-miterlimit="10" d="
		M113.423,206.75"/>
	
		<line fill="none" stroke="#000000" stroke-width="8" stroke-linecap="round" stroke-linejoin="round" stroke-miterlimit="10" x1="155.424" y1="235.402" x2="176.541" y2="352.344"/>
	
		<line fill="none" stroke="#000000" stroke-width="8" stroke-linecap="round" stroke-linejoin="round" stroke-miterlimit="10" x1="190.077" y1="242.757" x2="198.779" y2="349.563"/>
	
		<line fill="none" stroke="#000000" stroke-width="8" stroke-linecap="round" stroke-linejoin="round" stroke-miterlimit="10" x1="224.723" y1="242.757" x2="224.098" y2="354.372"/>
	
		<line fill="none" stroke="#000000" stroke-width="8" stroke-linecap="round" stroke-linejoin="round" stroke-miterlimit="10" x1="264.754" y1="239.281" x2="249.719" y2="349.563"/>
	<g id="rdeÄa7bela">
	</g>
</g>
</svg>
