<?xml version="1.0" encoding="utf-8"?>
<!-- Generator: Adobe Illustrator 16.0.0, SVG Export Plug-In . SVG Version: 6.00 Build 0)  -->
<!DOCTYPE svg PUBLIC "-//W3C//DTD SVG 1.1//EN" "http://www.w3.org/Graphics/SVG/1.1/DTD/svg11.dtd">
<svg version="1.1" xmlns="http://www.w3.org/2000/svg" xmlns:xlink="http://www.w3.org/1999/xlink" x="0px" y="0px"
	 width="453.543px" height="453.543px" viewBox="0 0 453.543 453.543" enable-background="new 0 0 453.543 453.543"
	 xml:space="preserve">
<g id="kvadrat">
</g>
<g id="Layer_1">
</g>
<g id="Layer_2">
	<path fill="none" stroke="#000000" stroke-width="6" stroke-linecap="round" stroke-linejoin="round" stroke-miterlimit="10" d="
		M95.495,338.154c0,0,4.813,26.499,28.836,26.499c8.753,0,22.271-7.307,30.908-15.938c21.785-21.791,73.715-121.245,89.11-151.21
		l1.569-3.056l0.104,0.103c-12.575,24.638-67.629,131.197-90.686,154.257 M237.796,186.325l0.111,0.108l-3.191,1.57
		c-28.052,13.787-121.811,61.005-150.5,89.687c-41.523,41.524,9.67,58.978,9.67,58.978 M244.416,192.944l-2.985,1.91
		c-2.803,1.799-6.404,4.111-10.614,6.835l-0.369,0.237l-0.237,0.369c-21.015,32.558-71.621,109.93-87.647,125.15
		c-8.536,8.103-19.704,12.568-31.45,12.568c-0.4,0-0.804-0.006-1.207-0.014c-3.494-0.091-7.016-0.595-10.472-1.5l-4.241-1.111
		l-0.094-0.24l-0.252-0.1l-1.102-4.227c-0.896-3.439-1.396-6.964-1.488-10.471c-0.311-12.205,4.148-23.801,12.555-32.652
		c15.275-16.087,92.609-66.647,125.152-87.638l0.368-0.238l8.982-13.98l0.104,0.1"/>
	<polygon stroke="#000000" stroke-width="8" stroke-linecap="round" stroke-linejoin="round" stroke-miterlimit="10" points="
		361.255,92.611 254.397,199.475 232.571,177.642 339.429,70.782 	"/>
	<g id="rdeÄa7bela">
	</g>
</g>
</svg>
