<?xml version="1.0" encoding="utf-8"?>
<!-- Generator: Adobe Illustrator 16.0.0, SVG Export Plug-In . SVG Version: 6.00 Build 0)  -->
<!DOCTYPE svg PUBLIC "-//W3C//DTD SVG 1.1//EN" "http://www.w3.org/Graphics/SVG/1.1/DTD/svg11.dtd">
<svg version="1.1" xmlns="http://www.w3.org/2000/svg" xmlns:xlink="http://www.w3.org/1999/xlink" x="0px" y="0px"
	 width="453.543px" height="453.543px" viewBox="0 0 453.543 453.543" enable-background="new 0 0 453.543 453.543"
	 xml:space="preserve">
<g id="kvadrat">
	<rect x="453.543" y="-453.543" fill="none" width="453.545" height="453.543"/>
	<rect x="453.543" fill="none" width="453.545" height="453.543"/>
</g>
<g id="Layer_1">
</g>
<g id="Layer_2">
	<path fill="none" stroke="#000000" stroke-width="6" stroke-linecap="round" stroke-linejoin="round" stroke-miterlimit="10" d="
		M275.348,200.244l0.114,0.115c-10.636,23.962-57.436,127.776-80.731,152.3c-8.69,9.155-20.462,14.197-33.135,14.197l0,0
		c-4.278,0-8.526-0.595-12.625-1.763l-0.425-0.12l-0.439,0.064c-2.383,0.361-4.799,0.542-7.184,0.542
		c-12.855,0-25.266-5.329-34.94-15.006c-11.394-11.388-16.581-25.995-14.617-41.13l0.06-0.46l-0.144-0.437
		c-5.458-16.717-0.771-35.32,11.944-47.394c24.545-23.317,128.353-70.102,152.303-80.728l0.11,0.108 M119.12,338.154l1.594,3.226
		c2.373,4.801,5.563,9.123,9.479,12.84c5.104,4.843,11.081,8.353,17.763,10.433l0.463,0.144l0.479-0.079
		c10.97-1.837,21.329-7.371,29.966-16.002c21.784-21.791,73.714-121.245,89.109-151.21l1.569-3.056l0.104,0.103
		c-12.574,24.638-67.629,131.197-90.686,154.257 M261.421,186.325l0.11,0.108l-3.19,1.57
		c-28.051,13.787-121.812,61.005-150.5,89.687c-8.896,8.897-14.482,19.585-16.152,30.905l-0.073,0.501l0.166,0.478
		c2.14,6.041,5.462,11.461,9.878,16.11c3.737,3.917,8.052,7.107,12.828,9.48l3.023,1.503 M268.042,192.944l-2.986,1.91
		c-2.803,1.799-6.404,4.111-10.613,6.835l-0.369,0.237l-0.238,0.369c-21.014,32.558-71.621,109.93-87.646,125.15
		c-8.537,8.103-19.706,12.568-31.451,12.568c-0.4,0-0.806-0.006-1.208-0.014c-3.493-0.091-7.016-0.595-10.47-1.5l-4.242-1.111
		l-0.094-0.24l-0.251-0.1l-1.103-4.227c-0.896-3.439-1.396-6.964-1.489-10.471c-0.31-12.205,4.148-23.801,12.556-32.652
		c15.274-16.087,92.609-66.647,125.152-87.638l0.369-0.238l8.982-13.98l0.103,0.1"/>
	
		<polygon fill="#CABA9F" stroke="#000000" stroke-width="8" stroke-linecap="round" stroke-linejoin="round" stroke-miterlimit="10" points="
		384.879,92.611 278.022,199.475 256.196,177.642 363.055,70.782 	"/>
	<g id="rdeÄa7bela">
	</g>
</g>
</svg>
