<?xml version="1.0" encoding="utf-8"?>
<!-- Generator: Adobe Illustrator 16.0.0, SVG Export Plug-In . SVG Version: 6.00 Build 0)  -->
<!DOCTYPE svg PUBLIC "-//W3C//DTD SVG 1.1//EN" "http://www.w3.org/Graphics/SVG/1.1/DTD/svg11.dtd">
<svg version="1.1" xmlns="http://www.w3.org/2000/svg" xmlns:xlink="http://www.w3.org/1999/xlink" x="0px" y="0px"
	 width="453.543px" height="453.543px" viewBox="0 0 453.543 453.543" enable-background="new 0 0 453.543 453.543"
	 xml:space="preserve">
<g id="kvadrat">
	<rect x="-453.543" y="-453.543" fill="none" width="453.543" height="453.543"/>
	<rect x="-453.543" fill="none" width="453.543" height="453.543"/>
</g>
<g id="Layer_1">
</g>
<g id="Layer_2">
	<path fill="none" stroke="#000000" stroke-width="6" stroke-linecap="round" stroke-linejoin="round" stroke-miterlimit="10" d="
		M276.372,200.244l0.112,0.115c-10.634,23.962-57.435,127.776-80.729,152.3c-8.691,9.155-20.463,14.197-33.138,14.197l0,0
		c-4.276,0-8.524-0.595-12.624-1.763l-0.425-0.12l-0.438,0.064c-2.383,0.361-4.799,0.542-7.184,0.542
		c-12.855,0-25.266-5.329-34.939-15.006c-11.395-11.388-16.582-25.995-14.617-41.13l0.059-0.46l-0.143-0.437
		c-5.459-16.717-0.771-35.32,11.943-47.394c24.545-23.317,128.354-70.102,152.302-80.728l0.11,0.108 M120.144,338.154l1.594,3.226
		c2.373,4.801,5.562,9.123,9.48,12.84c5.104,4.843,11.08,8.353,17.762,10.433l0.463,0.144l0.48-0.079
		c10.969-1.837,21.327-7.371,29.965-16.002c21.785-21.791,73.715-121.245,89.109-151.21l1.57-3.056l0.104,0.103
		c-12.574,24.638-67.629,131.197-90.687,154.257 M262.444,186.325l0.111,0.108l-3.191,1.57
		c-28.051,13.787-121.811,61.005-150.5,89.687c-8.895,8.897-14.482,19.585-16.152,30.905l-0.072,0.501l0.166,0.478
		c2.139,6.041,5.461,11.461,9.877,16.11c3.738,3.917,8.053,7.107,12.828,9.48l3.023,1.503 M269.065,192.944l-2.986,1.91
		c-2.803,1.799-6.404,4.111-10.613,6.835l-0.369,0.237l-0.238,0.369c-21.014,32.558-71.621,109.93-87.646,125.15
		c-8.537,8.103-19.705,12.568-31.451,12.568c-0.4,0-0.805-0.006-1.207-0.014c-3.494-0.091-7.016-0.595-10.472-1.5l-4.241-1.111
		l-0.094-0.24l-0.252-0.1l-1.102-4.227c-0.896-3.439-1.396-6.964-1.488-10.471c-0.311-12.205,4.148-23.801,12.555-32.652
		c15.275-16.087,92.608-66.647,125.152-87.638l0.369-0.238l8.982-13.98l0.104,0.1"/>
	<polygon stroke="#000000" stroke-width="8" stroke-linecap="round" stroke-linejoin="round" stroke-miterlimit="10" points="
		385.902,92.611 279.046,199.475 257.219,177.642 364.077,70.782 	"/>
	<g id="rdeÄa7bela">
	</g>
</g>
</svg>
