<?xml version="1.0" encoding="utf-8"?>
<!-- Generator: Adobe Illustrator 16.0.0, SVG Export Plug-In . SVG Version: 6.00 Build 0)  -->
<!DOCTYPE svg PUBLIC "-//W3C//DTD SVG 1.1//EN" "http://www.w3.org/Graphics/SVG/1.1/DTD/svg11.dtd">
<svg version="1.1" xmlns="http://www.w3.org/2000/svg" xmlns:xlink="http://www.w3.org/1999/xlink" x="0px" y="0px"
	 width="453.543px" height="453.543px" viewBox="0 0 453.543 453.543" enable-background="new 0 0 453.543 453.543"
	 xml:space="preserve">
<g id="kvadrat">
</g>
<g id="bg" display="none">
	<rect x="-2873.904" y="-5337.222" display="inline" width="15266.867" height="13678.951"/>
</g>
<g id="barvno" display="none">
	<g id="rde훾a7bela" display="inline">
	</g>
	<g display="inline">
		
			<rect x="128.977" y="168.784" fill="#57B2E5" stroke="#000000" stroke-width="8" stroke-linecap="round" stroke-linejoin="round" stroke-miterlimit="10" width="195.591" height="195.591"/>
		
			<path fill="#00497E" stroke="#000000" stroke-width="8" stroke-linecap="round" stroke-linejoin="round" stroke-miterlimit="10" d="
			M337.635,206.308c0,4.683-3.796,8.477-8.476,8.477H124.384c-4.68,0-8.476-3.794-8.476-8.477V163.46
			c0-4.682,3.795-8.477,8.476-8.477h204.774c4.68,0,8.476,3.795,8.476,8.477V206.308z"/>
		
			<path fill="#E20613" stroke="#000000" stroke-width="8" stroke-linecap="round" stroke-linejoin="round" stroke-miterlimit="10" d="
			M298.353,102.097c-7.473-8.578-15.928-12.928-25.13-12.928c-19.54,0-36.26,20.55-46.452,36.855
			c-10.191-16.306-26.912-36.855-46.451-36.855c-9.202,0-17.658,4.35-25.13,12.928c-10.312,11.836-9.422,21.399-6.859,27.336
			c4.885,11.317,19.974,19.149,46.128,23.943c7.735,1.419,15.2,2.339,21.199,2.929v58.479h22.227v-58.479
			c5.999-0.591,13.463-1.511,21.198-2.929c26.155-4.794,41.243-12.626,46.128-23.943
			C307.775,123.496,308.665,113.933,298.353,102.097z M168.197,113.428c15.033-15.032,37.229,10.461,46.155,25.48
			C190.422,136.307,153.164,128.461,168.197,113.428z M239.337,138.908c8.926-15.02,31.122-40.513,46.155-25.48
			C300.525,128.461,263.267,136.307,239.337,138.908z"/>
	</g>
	
		<rect x="-3384.189" y="-5757.23" display="inline" fill="none" stroke="#000000" stroke-miterlimit="10" width="16736" height="13952"/>
</g>
<g id="barvno_copy_2">
	<g id="rde훾a7bela_copy_4">
	</g>
	<g>
		<g>
			<rect x="128.977" y="168.784" fill="#00FFFF" width="195.591" height="195.591"/>
			<path d="M324.567,368.375H128.977c-2.209,0-4-1.791-4-4V168.784c0-2.209,1.791-4,4-4h195.591c2.209,0,4,1.791,4,4v195.591
				C328.567,366.584,326.777,368.375,324.567,368.375z M132.977,360.375h187.591V172.784H132.977V360.375z"/>
		</g>
		<g>
			<path fill="#FFFF00" d="M337.635,206.308c0,4.683-3.796,8.477-8.476,8.477H124.384c-4.68,0-8.476-3.794-8.476-8.477V163.46
				c0-4.682,3.795-8.477,8.476-8.477h204.774c4.68,0,8.476,3.795,8.476,8.477V206.308z"/>
			<path d="M329.159,218.784H124.384c-6.879,0-12.476-5.597-12.476-12.477V163.46c0-6.879,5.596-12.477,12.476-12.477h204.774
				c6.879,0,12.476,5.597,12.476,12.477v42.848C341.635,213.187,336.038,218.784,329.159,218.784z M124.384,158.983
				c-2.468,0-4.476,2.008-4.476,4.477v42.848c0,2.468,2.008,4.477,4.476,4.477h204.774c2.468,0,4.476-2.008,4.476-4.477V163.46
				c0-2.468-2.008-4.477-4.476-4.477H124.384z"/>
		</g>
		<g>
			<path fill="#FF00FF" d="M298.353,102.097c-7.473-8.578-15.928-12.928-25.13-12.928c-19.54,0-36.26,20.55-46.452,36.855
				c-10.191-16.306-26.912-36.855-46.451-36.855c-9.202,0-17.658,4.35-25.13,12.928c-10.312,11.836-9.422,21.399-6.859,27.336
				c4.885,11.317,19.974,19.149,46.128,23.943c7.735,1.419,15.2,2.339,21.199,2.929v58.479h22.227v-58.479
				c5.999-0.591,13.463-1.511,21.198-2.929c26.155-4.794,41.243-12.626,46.128-23.943
				C307.775,123.496,308.665,113.933,298.353,102.097z M168.197,113.428c15.033-15.032,37.229,10.461,46.155,25.48
				C190.422,136.307,153.164,128.461,168.197,113.428z M239.337,138.908c8.926-15.02,31.122-40.513,46.155-25.48
				C300.525,128.461,263.267,136.307,239.337,138.908z"/>
			<path d="M237.886,218.784h-22.227c-2.209,0-4-1.791-4-4v-54.875c-6.284-0.695-12.297-1.567-17.92-2.598
				c-27.569-5.053-43.623-13.654-49.079-26.292c-3.019-6.993-4.166-18.142,7.515-31.549c8.266-9.489,17.736-14.3,28.146-14.3
				c19.134,0,35.353,17.181,46.451,33.527c11.1-16.346,27.319-33.527,46.452-33.527c10.41,0,19.879,4.812,28.146,14.3
				c11.681,13.407,10.534,24.556,7.515,31.549c-5.456,12.639-21.51,21.239-49.08,26.292c-5.619,1.03-11.632,1.901-17.919,2.598
				v54.876C241.886,216.993,240.095,218.784,237.886,218.784z M219.659,210.784h14.227v-54.479c0-2.057,1.561-3.779,3.608-3.981
				c7.379-0.727,14.4-1.696,20.868-2.882c24.396-4.471,38.922-11.737,43.177-21.594c3.022-7.001,0.878-14.997-6.202-23.123
				c-6.68-7.667-14.12-11.555-22.114-11.555c-18.444,0-34.895,21.914-43.06,34.976c-0.731,1.169-2.013,1.88-3.392,1.88c0,0,0,0,0,0
				c-1.379,0-2.661-0.71-3.392-1.88c-8.164-13.063-24.614-34.976-43.059-34.976c-7.995,0-15.435,3.888-22.114,11.555
				c-7.08,8.126-9.225,16.122-6.202,23.123c4.255,9.857,18.782,17.123,43.177,21.594c6.474,1.188,13.495,2.157,20.869,2.882
				c2.048,0.202,3.609,1.923,3.609,3.981V210.784z M239.336,142.908c-1.351,0-2.623-0.684-3.364-1.836
				c-0.82-1.275-0.848-2.904-0.074-4.207c7.068-11.893,23.265-32.02,39.138-32.02c4.996,0,9.465,1.936,13.283,5.754
				c5.242,5.242,5.107,9.852,4.071,12.795c-4.386,12.458-34.852,17.559-52.622,19.491C239.624,142.9,239.48,142.908,239.336,142.908
				z M275.037,112.845c-8.347,0-19.392,9.882-27.547,21c22.694-3.305,35.86-8.863,37.355-13.107
				c0.397-1.128-0.337-2.636-2.182-4.481C280.368,113.961,277.873,112.845,275.037,112.845z M214.353,142.908
				c-0.144,0-0.288-0.008-0.433-0.023c-17.77-1.932-48.235-7.033-52.622-19.491c-1.037-2.943-1.172-7.552,4.071-12.795
				c3.818-3.818,8.288-5.754,13.283-5.754c15.874,0,32.071,20.127,39.139,32.02c0.774,1.303,0.746,2.932-0.074,4.207
				C216.975,142.224,215.703,142.908,214.353,142.908z M178.652,112.845c-2.836,0-5.331,1.116-7.626,3.412
				c-1.845,1.845-2.579,3.353-2.182,4.481c1.494,4.244,14.661,9.802,37.355,13.107C198.044,122.727,186.999,112.845,178.652,112.845
				z"/>
		</g>
	</g>
	<rect x="-3384.189" y="-5757.23" fill="none" stroke="#000000" stroke-miterlimit="10" width="16736" height="13952"/>
</g>
<g id="sivinsko" display="none">
	<g id="rde훾a7bela_copy_3" display="inline">
	</g>
	<g display="inline">
		<g>
			<rect x="128.977" y="168.784" fill="#9C9C9C" width="195.591" height="195.591"/>
			<path d="M324.567,368.375H128.977c-2.209,0-4-1.791-4-4V168.784c0-2.209,1.791-4,4-4h195.591c2.209,0,4,1.791,4,4v195.591
				C328.567,366.584,326.777,368.375,324.567,368.375z M132.977,360.375h187.591V172.784H132.977V360.375z"/>
		</g>
		<g>
			<path fill="#393939" d="M337.635,206.308c0,4.683-3.796,8.477-8.476,8.477H124.384c-4.68,0-8.476-3.794-8.476-8.477V163.46
				c0-4.682,3.795-8.477,8.476-8.477h204.774c4.68,0,8.476,3.795,8.476,8.477V206.308z"/>
			<path d="M329.159,218.784H124.384c-6.879,0-12.476-5.597-12.476-12.477V163.46c0-6.879,5.596-12.477,12.476-12.477h204.774
				c6.879,0,12.476,5.597,12.476,12.477v42.848C341.635,213.187,336.038,218.784,329.159,218.784z M124.384,158.983
				c-2.468,0-4.476,2.008-4.476,4.477v42.848c0,2.468,2.008,4.477,4.476,4.477h204.774c2.468,0,4.476-2.008,4.476-4.477V163.46
				c0-2.468-2.008-4.477-4.476-4.477H124.384z"/>
		</g>
		<g>
			<path fill="#494949" d="M298.353,102.097c-7.473-8.578-15.928-12.928-25.13-12.928c-19.54,0-36.26,20.55-46.452,36.855
				c-10.191-16.306-26.912-36.855-46.451-36.855c-9.202,0-17.658,4.35-25.13,12.928c-10.312,11.836-9.422,21.399-6.859,27.336
				c4.885,11.317,19.974,19.149,46.128,23.943c7.735,1.419,15.2,2.339,21.199,2.929v58.479h22.227v-58.479
				c5.999-0.591,13.463-1.511,21.198-2.929c26.155-4.794,41.243-12.626,46.128-23.943
				C307.775,123.496,308.665,113.933,298.353,102.097z M168.197,113.428c15.033-15.032,37.229,10.461,46.155,25.48
				C190.422,136.307,153.164,128.461,168.197,113.428z M239.337,138.908c8.926-15.02,31.122-40.513,46.155-25.48
				C300.525,128.461,263.267,136.307,239.337,138.908z"/>
			<path d="M237.886,218.784h-22.227c-2.209,0-4-1.791-4-4v-54.875c-6.284-0.695-12.297-1.567-17.92-2.598
				c-27.569-5.053-43.623-13.654-49.079-26.292c-3.019-6.993-4.166-18.142,7.515-31.549c8.266-9.489,17.736-14.3,28.146-14.3
				c19.134,0,35.353,17.181,46.451,33.527c11.1-16.346,27.319-33.527,46.452-33.527c10.41,0,19.879,4.812,28.146,14.3
				c11.68,13.407,10.533,24.556,7.515,31.549c-5.456,12.639-21.51,21.239-49.08,26.292c-5.619,1.03-11.632,1.901-17.919,2.598
				v54.876C241.886,216.993,240.095,218.784,237.886,218.784z M219.659,210.784h14.227v-54.479c0-2.057,1.561-3.779,3.608-3.981
				c7.379-0.727,14.4-1.696,20.868-2.882c24.396-4.471,38.923-11.737,43.178-21.594c3.022-7.001,0.878-14.997-6.202-23.123
				c-6.68-7.667-14.12-11.555-22.114-11.555c-18.444,0-34.895,21.914-43.06,34.976c-0.731,1.169-2.013,1.88-3.392,1.88c0,0,0,0,0,0
				c-1.379,0-2.661-0.71-3.392-1.88c-8.164-13.063-24.614-34.976-43.059-34.976c-7.995,0-15.435,3.888-22.114,11.555
				c-7.08,8.126-9.225,16.122-6.202,23.123c4.255,9.857,18.782,17.123,43.177,21.594c6.474,1.188,13.495,2.157,20.869,2.882
				c2.048,0.202,3.609,1.923,3.609,3.981V210.784z M239.336,142.908c-1.351,0-2.623-0.684-3.364-1.836
				c-0.82-1.275-0.849-2.904-0.074-4.207c7.068-11.893,23.265-32.02,39.138-32.02c4.996,0,9.465,1.936,13.283,5.754
				c5.242,5.242,5.107,9.852,4.071,12.795c-4.386,12.458-34.852,17.559-52.622,19.491C239.624,142.9,239.48,142.908,239.336,142.908
				z M275.037,112.845c-8.347,0-19.392,9.882-27.547,21c22.694-3.305,35.86-8.863,37.355-13.107
				c0.397-1.128-0.337-2.636-2.182-4.481C280.368,113.961,277.873,112.845,275.037,112.845z M214.353,142.908
				c-0.144,0-0.288-0.008-0.433-0.023c-17.77-1.932-48.235-7.033-52.622-19.491c-1.037-2.943-1.172-7.552,4.071-12.795
				c3.818-3.818,8.287-5.754,13.283-5.754c15.874,0,32.071,20.127,39.139,32.02c0.774,1.303,0.746,2.932-0.074,4.207
				C216.975,142.224,215.703,142.908,214.353,142.908z M178.652,112.845c-2.836,0-5.331,1.116-7.626,3.412
				c-1.845,1.845-2.579,3.353-2.182,4.481c1.494,4.244,14.661,9.802,37.355,13.107C198.044,122.727,186.999,112.845,178.652,112.845
				z"/>
		</g>
	</g>
	<path display="inline" d="M13352.311,8195.27h-16737v-13953h16737V8195.27z M-3384.189,8194.27h16736l-0.5-13951h-16735.5
		l0.5,13951H-3384.189z"/>
</g>
<g id="linijsko" display="none">
	<g id="rde훾a7bela_copy" display="inline">
	</g>
	<g display="inline">
		
			<polyline fill="none" stroke="#000000" stroke-width="8" stroke-linecap="round" stroke-linejoin="round" stroke-miterlimit="10" points="
			128.977,214.784 128.977,364.375 324.567,364.375 324.567,214.784 		"/>
		
			<line fill="none" stroke="#000000" stroke-width="8" stroke-linecap="round" stroke-linejoin="round" stroke-miterlimit="10" x1="237.886" y1="214.784" x2="324.567" y2="214.784"/>
		
			<line fill="none" stroke="#000000" stroke-width="8" stroke-linecap="round" stroke-linejoin="round" stroke-miterlimit="10" x1="128.977" y1="214.784" x2="215.659" y2="214.784"/>
		<path fill="none" stroke="#000000" stroke-width="8" stroke-linecap="round" stroke-linejoin="round" stroke-miterlimit="10" d="
			M204.508,154.983h-80.124c-4.68,0-8.476,3.795-8.476,8.477v42.848c0,4.683,3.795,8.477,8.476,8.477h4.592"/>
		<path fill="none" stroke="#000000" stroke-width="8" stroke-linecap="round" stroke-linejoin="round" stroke-miterlimit="10" d="
			M324.567,214.784h4.591c4.68,0,8.476-3.794,8.476-8.477V163.46c0-4.682-3.796-8.477-8.476-8.477h-80.128"/>
		<path fill="none" stroke="#000000" stroke-width="8" stroke-linecap="round" stroke-linejoin="round" stroke-miterlimit="10" d="
			M214.352,138.908c-8.927-15.02-31.122-40.513-46.155-25.48C153.164,128.461,190.422,136.307,214.352,138.908z"/>
		<path fill="none" stroke="#000000" stroke-width="8" stroke-linecap="round" stroke-linejoin="round" stroke-miterlimit="10" d="
			M204.508,154.983c4.029,0.56,7.821,0.994,11.151,1.321v58.479"/>
		<path fill="none" stroke="#000000" stroke-width="8" stroke-linecap="round" stroke-linejoin="round" stroke-miterlimit="10" d="
			M237.886,214.784v-58.479c3.329-0.328,7.118-0.762,11.145-1.321"/>
		<path fill="none" stroke="#000000" stroke-width="8" stroke-linecap="round" stroke-linejoin="round" stroke-miterlimit="10" d="
			M204.508,154.983c-3.229-0.449-6.607-0.976-10.048-1.607c-26.154-4.794-41.243-12.626-46.128-23.943
			c-2.563-5.937-3.453-15.5,6.859-27.336c7.473-8.578,15.928-12.928,25.13-12.928c19.539,0,36.26,20.55,46.451,36.855
			c10.192-16.306,26.912-36.855,46.452-36.855c9.201,0,17.657,4.35,25.13,12.928c10.312,11.836,9.422,21.399,6.859,27.336
			c-4.885,11.317-19.974,19.149-46.128,23.943c-3.443,0.631-6.822,1.159-10.053,1.607"/>
		<path fill="none" stroke="#000000" stroke-width="8" stroke-linecap="round" stroke-linejoin="round" stroke-miterlimit="10" d="
			M239.337,138.908c23.93-2.602,61.188-10.447,46.155-25.48C270.459,98.396,248.263,123.889,239.337,138.908z"/>
		
			<line fill="none" stroke="#000000" stroke-width="8" stroke-linecap="round" stroke-linejoin="round" stroke-miterlimit="10" x1="237.886" y1="214.784" x2="215.659" y2="214.784"/>
	</g>
</g>
<g id="pivot">
	<circle fill="none" cx="223.679" cy="362.172" r="14.133"/>
</g>
</svg>
