<?xml version="1.0" encoding="utf-8"?>
<!-- Generator: Adobe Illustrator 16.0.0, SVG Export Plug-In . SVG Version: 6.00 Build 0)  -->
<!DOCTYPE svg PUBLIC "-//W3C//DTD SVG 1.1//EN" "http://www.w3.org/Graphics/SVG/1.1/DTD/svg11.dtd">
<svg version="1.1" xmlns="http://www.w3.org/2000/svg" xmlns:xlink="http://www.w3.org/1999/xlink" x="0px" y="0px"
	 width="453.543px" height="453.543px" viewBox="0 0 453.543 453.543" enable-background="new 0 0 453.543 453.543"
	 xml:space="preserve">
<g id="kvadrat">
</g>
<g id="bg" display="none">
	<rect x="-3894.376" y="-5337.222" display="inline" width="15266.867" height="13678.951"/>
</g>
<g id="barvno" display="none">
	<g id="rde훾a7bela" display="inline">
	</g>
	<g display="inline">
		
			<path fill="#E20613" stroke="#000000" stroke-width="8" stroke-linecap="round" stroke-linejoin="round" stroke-miterlimit="10" d="
			M325.63,327.196c0,0-54.682-182.581-98.857-182.581c-44.185,0-98.86,182.581-98.86,182.581H325.63z"/>
		
			<path fill="#FFFFFF" stroke="#000000" stroke-width="8" stroke-linecap="round" stroke-linejoin="round" stroke-miterlimit="10" d="
			M226.778,156.279c-18.466,0-33.431-14.965-33.431-33.424c0-18.456,14.965-33.427,33.431-33.427
			c18.453,0,33.418,14.965,33.418,33.427C260.196,141.314,245.23,156.279,226.778,156.279z"/>
		
			<rect x="121.455" y="316.441" fill="#FFFFFF" stroke="#000000" stroke-width="8" stroke-linecap="round" stroke-linejoin="round" stroke-miterlimit="10" width="210.633" height="47.674"/>
	</g>
	
		<rect x="-4404.662" y="-5757.23" display="inline" fill="none" stroke="#000000" stroke-miterlimit="10" width="16736" height="13952"/>
</g>
<g id="barvno_copy_2">
	<g id="rde훾a7bela_copy_4">
	</g>
	<g>
		<g>
			<path fill="#FF0000" d="M325.63,327.196c0,0-54.682-182.581-98.857-182.581c-44.185,0-98.86,182.581-98.86,182.581H325.63z"/>
			<path d="M325.63,331.196H127.913c-1.264,0-2.454-0.598-3.208-1.611c-0.755-1.014-0.986-2.325-0.624-3.536
				c0.138-0.458,13.951-46.375,33.006-91.693c26.521-63.078,49.316-93.74,69.687-93.74c20.367,0,43.16,30.663,69.682,93.74
				c19.055,45.318,32.87,91.235,33.008,91.693c0.362,1.211,0.131,2.522-0.624,3.536C328.084,330.598,326.895,331.196,325.63,331.196
				z M133.333,323.196h186.875c-4.136-13.19-15.97-49.695-31.151-85.793c-32.49-77.253-52.969-88.788-62.285-88.788
				c-9.321,0-29.811,11.542-62.312,88.841C149.285,273.548,137.466,310.014,133.333,323.196z"/>
		</g>
		<g>
			<path fill="#FFFFFF" d="M226.778,156.279c-18.466,0-33.431-14.965-33.431-33.424c0-18.456,14.965-33.427,33.431-33.427
				c18.453,0,33.418,14.965,33.418,33.427C260.196,141.314,245.23,156.279,226.778,156.279z"/>
			<path d="M226.778,160.279c-20.639,0-37.431-16.789-37.431-37.424c0-20.637,16.792-37.427,37.431-37.427
				c20.632,0,37.418,16.79,37.418,37.427C264.196,143.49,247.41,160.279,226.778,160.279z M226.778,93.427
				c-16.228,0-29.431,13.201-29.431,29.427c0,16.225,13.203,29.424,29.431,29.424c16.221,0,29.418-13.2,29.418-29.424
				C256.196,106.628,242.999,93.427,226.778,93.427z"/>
		</g>
		<g>
			<rect x="121.455" y="316.441" fill="#FFFFFF" width="210.633" height="47.674"/>
			<path d="M332.088,368.116H121.455c-2.209,0-4-1.791-4-4v-47.674c0-2.209,1.791-4,4-4h210.633c2.209,0,4,1.791,4,4v47.674
				C336.088,366.325,334.297,368.116,332.088,368.116z M125.455,360.116h202.633v-39.674H125.455V360.116z"/>
		</g>
	</g>
	<rect x="-4404.662" y="-5757.23" fill="none" stroke="#000000" stroke-miterlimit="10" width="16736" height="13952"/>
</g>
<g id="sivinsko" display="none">
	<g id="rde훾a7bela_copy_3" display="inline">
	</g>
	<g display="inline">
		<g>
			<path fill="#494949" d="M325.63,327.196c0,0-54.682-182.581-98.857-182.581c-44.185,0-98.86,182.581-98.86,182.581H325.63z"/>
			<path d="M325.63,331.196H127.913c-1.264,0-2.454-0.598-3.208-1.611c-0.755-1.014-0.986-2.325-0.624-3.536
				c0.138-0.458,13.951-46.375,33.006-91.693c26.521-63.078,49.316-93.74,69.687-93.74c20.367,0,43.16,30.663,69.682,93.74
				c19.055,45.318,32.87,91.235,33.008,91.693c0.362,1.211,0.131,2.522-0.624,3.536C328.084,330.598,326.895,331.196,325.63,331.196
				z M133.333,323.196h186.875c-4.136-13.19-15.97-49.695-31.151-85.793c-32.49-77.253-52.969-88.788-62.285-88.788
				c-9.321,0-29.811,11.542-62.312,88.841C149.285,273.548,137.466,310.014,133.333,323.196z"/>
		</g>
		<g>
			<path fill="#FFFFFF" d="M226.778,156.279c-18.466,0-33.431-14.965-33.431-33.424c0-18.456,14.965-33.427,33.431-33.427
				c18.453,0,33.418,14.965,33.418,33.427C260.196,141.314,245.23,156.279,226.778,156.279z"/>
			<path d="M226.778,160.279c-20.639,0-37.431-16.789-37.431-37.424c0-20.637,16.792-37.427,37.431-37.427
				c20.632,0,37.418,16.79,37.418,37.427C264.196,143.49,247.41,160.279,226.778,160.279z M226.778,93.427
				c-16.228,0-29.431,13.201-29.431,29.427c0,16.225,13.203,29.424,29.431,29.424c16.221,0,29.418-13.2,29.418-29.424
				C256.196,106.628,242.999,93.427,226.778,93.427z"/>
		</g>
		<g>
			<rect x="121.455" y="316.441" fill="#FFFFFF" width="210.633" height="47.674"/>
			<path d="M332.088,368.116H121.455c-2.209,0-4-1.791-4-4v-47.674c0-2.209,1.791-4,4-4h210.633c2.209,0,4,1.791,4,4v47.674
				C336.088,366.325,334.297,368.116,332.088,368.116z M125.455,360.116h202.633v-39.674H125.455V360.116z"/>
		</g>
	</g>
	<path display="inline" d="M12331.838,8195.27h-16737v-13953h16737V8195.27z M-4404.662,8194.27h16736l-0.5-13951h-16735.5
		l0.5,13951H-4404.662z"/>
</g>
<g id="linijsko" display="none">
	<g id="rde훾a7bela_copy" display="inline">
	</g>
	<g display="inline">
		<path fill="none" stroke="#000000" stroke-width="8" stroke-linecap="round" stroke-linejoin="round" stroke-miterlimit="10" d="
			M243.149,151.989c33.476,28.402,68.353,130.855,79.119,164.452"/>
		<path fill="none" stroke="#000000" stroke-width="8" stroke-linecap="round" stroke-linejoin="round" stroke-miterlimit="10" d="
			M210.395,151.988c-33.48,28.4-68.355,130.855-79.12,164.453"/>
		<path fill="none" stroke="#000000" stroke-width="8" stroke-linecap="round" stroke-linejoin="round" stroke-miterlimit="10" d="
			M243.149,151.989c10.171-5.73,17.047-16.627,17.047-29.135c0-18.462-14.965-33.427-33.418-33.427
			c-18.466,0-33.431,14.972-33.431,33.427c0,12.507,6.874,23.402,17.048,29.134"/>
		<path fill="none" stroke="#000000" stroke-width="8" stroke-linecap="round" stroke-linejoin="round" stroke-miterlimit="10" d="
			M243.149,151.989c-4.839,2.727-10.422,4.29-16.371,4.29c-5.955,0-11.541-1.563-16.383-4.291"/>
		
			<polyline fill="none" stroke="#000000" stroke-width="8" stroke-linecap="round" stroke-linejoin="round" stroke-miterlimit="10" points="
			131.275,316.441 121.455,316.441 121.455,364.116 332.088,364.116 332.088,316.441 322.268,316.441 		"/>
		
			<line fill="none" stroke="#000000" stroke-width="8" stroke-linecap="round" stroke-linejoin="round" stroke-miterlimit="10" x1="131.275" y1="316.441" x2="322.268" y2="316.441"/>
	</g>
</g>
<g id="pivot">
	<circle fill="none" cx="226.065" cy="363.619" r="14.133"/>
</g>
</svg>
