<?xml version="1.0" encoding="utf-8"?>
<!-- Generator: Adobe Illustrator 16.0.0, SVG Export Plug-In . SVG Version: 6.00 Build 0)  -->
<!DOCTYPE svg PUBLIC "-//W3C//DTD SVG 1.1//EN" "http://www.w3.org/Graphics/SVG/1.1/DTD/svg11.dtd">
<svg version="1.1" xmlns="http://www.w3.org/2000/svg" xmlns:xlink="http://www.w3.org/1999/xlink" x="0px" y="0px"
	 width="453.543px" height="453.543px" viewBox="0 0 453.543 453.543" enable-background="new 0 0 453.543 453.543"
	 xml:space="preserve">
<g id="kvadrat">
</g>
<g id="bg" display="none">
	<rect x="-832.959" y="-5337.222" display="inline" width="15266.867" height="13678.951"/>
</g>
<g id="barvno" display="none">
	<g display="inline">
		
			<path fill="#7E4E24" stroke="#000000" stroke-width="8" stroke-linecap="round" stroke-linejoin="round" stroke-miterlimit="10" d="
			M324.225,207.045c0,0-35.19,113.746-35.19,131.307s-124.525,17.562-124.525,0s-35.19-131.307-35.19-131.307"/>
		
			<path fill="#57B2E5" stroke="#000000" stroke-width="8" stroke-linecap="round" stroke-linejoin="round" stroke-miterlimit="10" d="
			M324.225,207.045c0,0-35.19,113.746-35.19,131.307s-124.525,17.562-124.525,0s-35.19-131.307-35.19-131.307"/>
		
			<ellipse fill="#7E4E24" stroke="#000000" stroke-width="8" stroke-linecap="round" stroke-linejoin="round" stroke-miterlimit="10" cx="226.771" cy="207.045" rx="97.453" ry="31.798"/>
		
			<path fill="#FFFFFF" stroke="#000000" stroke-width="8" stroke-linecap="round" stroke-linejoin="round" stroke-miterlimit="10" d="
			M279.851,161.783c-1.405,0-3.232-0.419-5.357-1.154c0.967-2.48,1.503-5.176,1.503-7.998c0-12.174-9.869-22.044-22.043-22.044
			c-1.775,0-3.5,0.216-5.154,0.613c0.005-0.204,0.015-0.407,0.015-0.613c0-12.174-9.869-22.043-22.043-22.043
			c-12.175,0-22.044,9.869-22.044,22.043c0,0.206,0.01,0.409,0.016,0.613c-1.655-0.397-3.378-0.613-5.155-0.613
			c-12.174,0-22.043,9.87-22.043,22.044c0,2.822,0.536,5.518,1.503,7.998c-2.126,0.735-3.952,1.154-5.357,1.154
			c-12.174,0-22.043,9.869-22.043,22.044c0,12.028,3.362,34.135,75.123,34.664c71.76-0.528,75.122-22.635,75.122-34.664
			C301.894,171.652,292.024,161.783,279.851,161.783z"/>
		
			<circle fill="#E20613" stroke="#000000" stroke-width="8" stroke-linecap="round" stroke-linejoin="round" stroke-miterlimit="10" cx="194.827" cy="126.946" r="17.922"/>
		<path fill="none" stroke="#000000" stroke-width="8" stroke-linecap="round" stroke-linejoin="round" stroke-miterlimit="10" d="
			M192.062,121.184c0,0-7.563-18.139,9.515-39.163"/>
		
			<path fill="#7E4E24" stroke="#000000" stroke-width="8" stroke-linecap="round" stroke-linejoin="round" stroke-miterlimit="10" d="
			M129.318,207.045"/>
		
			<path fill="#FFFFFF" stroke="#000000" stroke-width="8" stroke-linecap="round" stroke-linejoin="round" stroke-miterlimit="10" d="
			M176.318,161.614c0,0,31.61,0.812,33.829,32.977"/>
		
			<path fill="#FFFFFF" stroke="#000000" stroke-width="8" stroke-linecap="round" stroke-linejoin="round" stroke-miterlimit="10" d="
			M227.944,154.815c0,0,4.462-25.707,27.725-24.058"/>
		
			<line fill="none" stroke="#000000" stroke-width="8" stroke-linecap="round" stroke-linejoin="round" stroke-miterlimit="10" x1="170.374" y1="235.052" x2="191.016" y2="349.362"/>
		
			<line fill="none" stroke="#000000" stroke-width="8" stroke-linecap="round" stroke-linejoin="round" stroke-miterlimit="10" x1="204.248" y1="242.241" x2="212.753" y2="346.644"/>
		
			<line fill="none" stroke="#000000" stroke-width="8" stroke-linecap="round" stroke-linejoin="round" stroke-miterlimit="10" x1="238.113" y1="242.241" x2="237.503" y2="351.345"/>
		
			<line fill="none" stroke="#000000" stroke-width="8" stroke-linecap="round" stroke-linejoin="round" stroke-miterlimit="10" x1="277.244" y1="238.843" x2="262.546" y2="346.644"/>
	</g>
	<g id="rde훾a7bela" display="inline">
	</g>
	
		<rect x="-1343.244" y="-5757.23" display="inline" fill="none" stroke="#000000" stroke-miterlimit="10" width="16736" height="13952"/>
</g>
<g id="barvno_copy_2">
	<g>
		<g>
			<path fill="#00FF00" d="M324.225,207.045c0,0-35.19,113.746-35.19,131.307s-124.525,17.562-124.525,0
				s-35.19-131.307-35.19-131.307"/>
			<path d="M226.771,355.523c-16.552,0-32.016-1.194-43.545-3.361c-15.499-2.915-22.718-7.303-22.718-13.81
				c0-13.911-25.273-98.648-35.012-130.125c-0.653-2.11,0.528-4.351,2.639-5.003c2.11-0.654,4.351,0.528,5.003,2.639
				c1.444,4.668,35.369,114.53,35.369,132.489c1.085,3.042,19.851,9.171,58.263,9.171s57.178-6.128,58.274-9.255
				c-0.012-17.875,33.913-127.737,35.357-132.405c0.653-2.111,2.894-3.293,5.003-2.639c2.111,0.653,3.292,2.893,2.639,5.003
				c-9.738,31.477-35.012,116.215-35.012,130.125c0,6.507-7.219,10.895-22.718,13.81
				C258.788,354.329,243.323,355.523,226.771,355.523z"/>
		</g>
		<g>
			<path fill="#00FFFF" d="M324.225,207.045c0,0-35.19,113.746-35.19,131.307s-124.525,17.562-124.525,0
				s-35.19-131.307-35.19-131.307"/>
			<path d="M226.771,355.523c-16.552,0-32.016-1.194-43.545-3.361c-15.499-2.915-22.718-7.303-22.718-13.81
				c0-13.911-25.273-98.648-35.012-130.125c-0.653-2.11,0.528-4.351,2.639-5.003c2.11-0.654,4.351,0.528,5.003,2.639
				c1.444,4.668,35.369,114.53,35.369,132.489c1.085,3.042,19.851,9.171,58.263,9.171s57.178-6.128,58.274-9.255
				c-0.012-17.875,33.913-127.737,35.357-132.405c0.653-2.111,2.894-3.293,5.003-2.639c2.111,0.653,3.292,2.893,2.639,5.003
				c-9.738,31.477-35.012,116.215-35.012,130.125c0,6.507-7.219,10.895-22.718,13.81
				C258.788,354.329,243.323,355.523,226.771,355.523z"/>
		</g>
		<g>
			<ellipse fill="#00FF00" cx="226.771" cy="207.045" rx="97.453" ry="31.798"/>
			<path d="M226.771,242.843c-49.182,0-101.453-12.546-101.453-35.798s52.271-35.798,101.453-35.798s101.453,12.546,101.453,35.798
				S275.954,242.843,226.771,242.843z M226.771,179.247c-55.073,0-93.453,14.65-93.453,27.798s38.38,27.798,93.453,27.798
				s93.453-14.65,93.453-27.798S281.845,179.247,226.771,179.247z"/>
		</g>
		<g>
			<path fill="#FFFFFF" d="M279.851,161.783c-1.405,0-3.232-0.419-5.357-1.154c0.967-2.48,1.503-5.176,1.503-7.998
				c0-12.174-9.869-22.044-22.043-22.044c-1.775,0-3.5,0.216-5.154,0.613c0.005-0.204,0.015-0.407,0.015-0.613
				c0-12.174-9.869-22.043-22.043-22.043c-12.175,0-22.044,9.869-22.044,22.043c0,0.206,0.01,0.409,0.016,0.613
				c-1.655-0.397-3.378-0.613-5.155-0.613c-12.174,0-22.043,9.87-22.043,22.044c0,2.822,0.536,5.518,1.503,7.998
				c-2.126,0.735-3.952,1.154-5.357,1.154c-12.174,0-22.043,9.869-22.043,22.044c0,12.028,3.362,34.135,75.123,34.664
				c71.76-0.528,75.122-22.635,75.122-34.664C301.894,171.652,292.024,161.783,279.851,161.783z"/>
			<path d="M226.771,222.49c-0.01,0-0.02,0-0.029,0c-70.895-0.522-79.094-22.316-79.094-38.664
				c0-14.361,11.683-26.044,26.043-26.044c0.095,0,0.215-0.004,0.363-0.017c-0.339-1.684-0.509-3.399-0.509-5.135
				c0-14.361,11.683-26.044,26.043-26.044c0.479,0,0.96,0.014,1.44,0.041c1.913-12.487,12.729-22.083,25.743-22.083
				c13.014,0,23.829,9.596,25.742,22.083c0.48-0.026,0.96-0.04,1.44-0.04c14.36,0,26.043,11.683,26.043,26.044
				c0,1.736-0.17,3.452-0.509,5.135c0.148,0.013,0.269,0.017,0.364,0.017c14.36,0,26.042,11.683,26.042,26.044
				c0,16.348-8.199,38.142-79.093,38.664C226.791,222.49,226.781,222.49,226.771,222.49z M199.588,134.586
				c-9.949,0-18.043,8.094-18.043,18.044c0,2.25,0.414,4.452,1.23,6.545c0.395,1.014,0.36,2.145-0.097,3.132
				c-0.457,0.987-1.295,1.746-2.324,2.101c-2.674,0.925-4.854,1.374-6.664,1.374c-9.949,0-18.043,8.094-18.043,18.044
				c0,8.242-0.003,30.134,71.123,30.664c71.125-0.529,71.122-22.421,71.122-30.664c0-9.95-8.094-18.044-18.042-18.044
				c-1.811,0-3.991-0.449-6.665-1.374c-1.028-0.355-1.867-1.114-2.324-2.102c-0.457-0.987-0.491-2.118-0.096-3.131
				c0.816-2.092,1.229-4.294,1.229-6.545c0-9.95-8.094-18.044-18.043-18.044c-1.412,0-2.832,0.169-4.22,0.502
				c-1.209,0.29-2.485,0.001-3.451-0.781s-1.514-1.97-1.481-3.213l0.013-0.508c0-9.949-8.094-18.043-18.043-18.043
				s-18.044,8.094-18.044,18.043c0,0.101,0.004,0.201,0.008,0.302l0.006,0.196c0.036,1.245-0.51,2.435-1.477,3.22
				s-2.244,1.075-3.455,0.785C202.42,134.755,201,134.586,199.588,134.586z"/>
		</g>
		<g>
			<circle fill="#FF0000" cx="194.827" cy="126.946" r="17.922"/>
			<path d="M194.84,148.872c-8.386,0-16.148-4.883-19.776-12.44c-5.23-10.896-0.62-24.018,10.277-29.249
				c2.99-1.436,6.177-2.163,9.474-2.163c8.386,0,16.148,4.883,19.775,12.44c2.534,5.278,2.861,11.228,0.919,16.753
				c-1.941,5.524-5.917,9.962-11.196,12.496C201.323,148.144,198.136,148.872,194.84,148.872z M194.814,113.02
				c-2.088,0-4.111,0.463-6.012,1.375c-6.92,3.322-9.848,11.655-6.527,18.575c2.304,4.8,7.236,7.902,12.564,7.902
				c2.088,0,4.111-0.463,6.012-1.375c3.353-1.609,5.877-4.427,7.11-7.936c1.232-3.508,1.025-7.287-0.584-10.639
				C205.074,116.121,200.143,113.02,194.814,113.02z"/>
		</g>
		<path fill="#00FF00" d="M192.05,125.174c-1.563,0-3.042-0.918-3.68-2.451c-0.346-0.831-8.271-20.605,10.102-43.225
			c1.393-1.715,3.912-1.976,5.627-0.583c1.715,1.393,1.976,3.912,0.583,5.626c-15.231,18.75-9.183,34.466-8.918,35.126
			c0.819,2.041-0.157,4.372-2.192,5.205C193.073,125.077,192.557,125.174,192.05,125.174z"/>
		
			<path fill="#00FF00" stroke="#000000" stroke-width="8" stroke-linecap="round" stroke-linejoin="round" stroke-miterlimit="10" d="
			M129.318,207.045"/>
		<path d="M210.143,198.59c-2.084,0-3.841-1.614-3.987-3.725c-1.935-28.053-28.809-29.218-29.952-29.253
			c-2.204-0.069-3.942-1.909-3.879-4.112s1.898-3.932,4.095-3.885c0.353,0.009,35.275,1.314,37.717,36.7
			c0.152,2.204-1.512,4.114-3.715,4.266C210.329,198.587,210.235,198.59,210.143,198.59z"/>
		<path d="M227.948,158.811c-0.23,0-0.463-0.02-0.697-0.061c-2.172-0.383-3.625-2.446-3.248-4.618
			c1.757-10.123,10.699-28.86,31.949-27.364c2.204,0.156,3.863,2.069,3.707,4.273s-2.069,3.851-4.272,3.708
			c-19.314-1.381-23.341,19.858-23.503,20.762C231.537,157.446,229.85,158.811,227.948,158.811z"/>
		<path d="M191.011,353.363c-1.897,0-3.582-1.356-3.932-3.29l-20.642-114.311c-0.393-2.174,1.052-4.255,3.226-4.647
			c2.175-0.39,4.255,1.052,4.647,3.226l20.642,114.311c0.393,2.174-1.052,4.255-3.226,4.647
			C191.486,353.342,191.247,353.363,191.011,353.363z"/>
		<path d="M212.749,350.644c-2.062,0-3.812-1.584-3.982-3.675l-8.506-104.402c-0.179-2.202,1.46-4.132,3.662-4.312
			c2.202-0.177,4.132,1.46,4.312,3.662l8.506,104.402c0.179,2.202-1.46,4.132-3.662,4.312
			C212.968,350.639,212.858,350.644,212.749,350.644z"/>
		<path d="M237.503,355.345c-0.008,0-0.015,0-0.023,0c-2.209-0.012-3.99-1.813-3.978-4.022l0.61-109.104
			c0.012-2.209,1.81-3.98,4.022-3.978c2.209,0.012,3.99,1.813,3.978,4.022l-0.61,109.104
			C241.491,353.568,239.702,355.345,237.503,355.345z"/>
		<path d="M262.551,350.644c-0.18,0-0.362-0.012-0.545-0.037c-2.188-0.298-3.721-2.315-3.423-4.504l14.698-107.801
			c0.298-2.189,2.314-3.718,4.504-3.423c2.189,0.298,3.721,2.315,3.423,4.504L266.51,347.184
			C266.236,349.189,264.521,350.644,262.551,350.644z"/>
	</g>
	<g id="rde훾a7bela_copy_4">
	</g>
	<rect x="-1343.244" y="-5757.23" fill="none" stroke="#000000" stroke-miterlimit="10" width="16736" height="13952"/>
</g>
<g id="sivinsko" display="none">
	<g display="inline">
		<g>
			<path fill="#585858" d="M324.225,207.045c0,0-35.19,113.746-35.19,131.307s-124.525,17.562-124.525,0
				s-35.19-131.307-35.19-131.307"/>
			<path d="M226.771,355.523c-16.552,0-32.016-1.194-43.545-3.361c-15.499-2.915-22.718-7.303-22.718-13.81
				c0-13.911-25.273-98.648-35.012-130.125c-0.653-2.11,0.528-4.351,2.639-5.003c2.11-0.654,4.35,0.528,5.003,2.639
				c1.444,4.668,35.369,114.53,35.369,132.489c1.085,3.042,19.851,9.171,58.263,9.171c38.412,0,57.178-6.128,58.274-9.255
				c-0.012-17.875,33.913-127.737,35.357-132.405c0.653-2.111,2.893-3.293,5.003-2.639c2.111,0.653,3.292,2.893,2.639,5.003
				c-9.738,31.477-35.012,116.215-35.012,130.125c0,6.507-7.219,10.895-22.718,13.81
				C258.788,354.329,243.323,355.523,226.771,355.523z"/>
		</g>
		<g>
			<path fill="#9C9C9C" d="M324.225,207.045c0,0-35.19,113.746-35.19,131.307s-124.525,17.562-124.525,0
				s-35.19-131.307-35.19-131.307"/>
			<path d="M226.771,355.523c-16.552,0-32.016-1.194-43.545-3.361c-15.499-2.915-22.718-7.303-22.718-13.81
				c0-13.911-25.273-98.648-35.012-130.125c-0.653-2.11,0.528-4.351,2.639-5.003c2.11-0.654,4.35,0.528,5.003,2.639
				c1.444,4.668,35.369,114.53,35.369,132.489c1.085,3.042,19.851,9.171,58.263,9.171c38.412,0,57.178-6.128,58.274-9.255
				c-0.012-17.875,33.913-127.737,35.357-132.405c0.653-2.111,2.893-3.293,5.003-2.639c2.111,0.653,3.292,2.893,2.639,5.003
				c-9.738,31.477-35.012,116.215-35.012,130.125c0,6.507-7.219,10.895-22.718,13.81
				C258.788,354.329,243.323,355.523,226.771,355.523z"/>
		</g>
		<g>
			<ellipse fill="#585858" cx="226.771" cy="207.045" rx="97.453" ry="31.798"/>
			<path d="M226.771,242.843c-49.182,0-101.453-12.546-101.453-35.798s52.271-35.798,101.453-35.798s101.453,12.546,101.453,35.798
				S275.954,242.843,226.771,242.843z M226.771,179.247c-55.073,0-93.453,14.65-93.453,27.798s38.38,27.798,93.453,27.798
				s93.453-14.65,93.453-27.798S281.845,179.247,226.771,179.247z"/>
		</g>
		<g>
			<path fill="#FFFFFF" d="M279.851,161.783c-1.405,0-3.232-0.419-5.357-1.154c0.967-2.48,1.503-5.176,1.503-7.998
				c0-12.174-9.869-22.044-22.043-22.044c-1.775,0-3.5,0.216-5.154,0.613c0.005-0.204,0.015-0.407,0.015-0.613
				c0-12.174-9.869-22.043-22.043-22.043c-12.175,0-22.044,9.869-22.044,22.043c0,0.206,0.01,0.409,0.016,0.613
				c-1.655-0.397-3.378-0.613-5.155-0.613c-12.174,0-22.043,9.87-22.043,22.044c0,2.822,0.536,5.518,1.503,7.998
				c-2.126,0.735-3.952,1.154-5.357,1.154c-12.174,0-22.043,9.869-22.043,22.044c0,12.028,3.362,34.135,75.123,34.664
				c71.76-0.528,75.122-22.635,75.122-34.664C301.894,171.652,292.024,161.783,279.851,161.783z"/>
			<path d="M226.771,222.49c-0.01,0-0.02,0-0.029,0c-70.895-0.522-79.094-22.316-79.094-38.664
				c0-14.361,11.683-26.044,26.043-26.044c0.095,0,0.215-0.004,0.363-0.017c-0.339-1.684-0.509-3.399-0.509-5.135
				c0-14.361,11.683-26.044,26.043-26.044c0.479,0,0.96,0.014,1.44,0.041c1.913-12.487,12.729-22.083,25.743-22.083
				c13.014,0,23.829,9.596,25.742,22.083c0.48-0.026,0.96-0.04,1.44-0.04c14.36,0,26.043,11.683,26.043,26.044
				c0,1.736-0.17,3.452-0.509,5.135c0.148,0.013,0.269,0.017,0.364,0.017c14.36,0,26.042,11.683,26.042,26.044
				c0,16.348-8.199,38.142-79.093,38.664C226.791,222.49,226.781,222.49,226.771,222.49z M199.588,134.586
				c-9.949,0-18.043,8.094-18.043,18.044c0,2.25,0.414,4.452,1.23,6.545c0.395,1.014,0.36,2.145-0.097,3.132
				c-0.457,0.987-1.295,1.746-2.324,2.101c-2.674,0.925-4.854,1.374-6.664,1.374c-9.949,0-18.043,8.094-18.043,18.044
				c0,8.242-0.003,30.134,71.123,30.664c71.125-0.529,71.122-22.421,71.122-30.664c0-9.95-8.094-18.044-18.042-18.044
				c-1.811,0-3.992-0.449-6.665-1.374c-1.028-0.355-1.867-1.114-2.324-2.102c-0.457-0.987-0.491-2.118-0.096-3.131
				c0.816-2.092,1.229-4.294,1.229-6.545c0-9.95-8.094-18.044-18.043-18.044c-1.412,0-2.832,0.169-4.22,0.502
				c-1.209,0.29-2.485,0.001-3.451-0.781s-1.514-1.97-1.481-3.213l0.013-0.508c0-9.949-8.094-18.043-18.043-18.043
				s-18.044,8.094-18.044,18.043c0,0.101,0.004,0.201,0.008,0.302l0.006,0.196c0.036,1.245-0.51,2.435-1.477,3.22
				c-0.967,0.785-2.244,1.075-3.455,0.785C202.42,134.755,201,134.586,199.588,134.586z"/>
		</g>
		<g>
			<circle fill="#494949" cx="194.827" cy="126.946" r="17.922"/>
			<path d="M194.839,148.872c-8.386,0-16.148-4.883-19.775-12.44c-5.23-10.896-0.621-24.018,10.276-29.249
				c2.991-1.436,6.178-2.163,9.474-2.163c8.386,0,16.148,4.883,19.775,12.44c2.535,5.278,2.861,11.228,0.92,16.753
				c-1.941,5.524-5.917,9.962-11.196,12.496C201.323,148.144,198.136,148.872,194.839,148.872z M194.814,113.02
				c-2.088,0-4.111,0.463-6.012,1.375c-6.92,3.322-9.848,11.655-6.527,18.575c2.304,4.8,7.236,7.902,12.563,7.902
				c2.088,0,4.111-0.463,6.012-1.375c3.353-1.609,5.877-4.427,7.11-7.936c1.232-3.508,1.024-7.287-0.584-10.639
				C205.074,116.121,200.143,113.02,194.814,113.02z"/>
		</g>
		<path d="M192.05,125.174c-1.563,0-3.042-0.918-3.68-2.451c-0.346-0.831-8.271-20.605,10.102-43.225
			c1.393-1.715,3.912-1.976,5.627-0.583c1.715,1.393,1.976,3.912,0.583,5.626c-15.231,18.75-9.183,34.466-8.918,35.126
			c0.819,2.041-0.157,4.372-2.192,5.205C193.073,125.077,192.557,125.174,192.05,125.174z"/>
		
			<path fill="#585858" stroke="#000000" stroke-width="8" stroke-linecap="round" stroke-linejoin="round" stroke-miterlimit="10" d="
			M129.318,207.045"/>
		<g>
			<path fill="#FFFFFF" d="M176.318,161.614c0,0,31.61,0.812,33.829,32.977"/>
			<path d="M210.143,198.59c-2.084,0-3.841-1.614-3.987-3.725c-1.935-28.053-28.809-29.218-29.952-29.253
				c-2.204-0.069-3.942-1.909-3.879-4.112s1.898-3.932,4.095-3.885c0.353,0.009,35.276,1.314,37.717,36.7
				c0.152,2.204-1.512,4.114-3.715,4.266C210.329,198.587,210.235,198.59,210.143,198.59z"/>
		</g>
		<g>
			<path fill="#FFFFFF" d="M227.944,154.815c0,0,4.462-25.707,27.725-24.058"/>
			<path d="M227.948,158.811c-0.23,0-0.463-0.02-0.697-0.061c-2.172-0.383-3.625-2.446-3.248-4.618
				c1.757-10.123,10.699-28.86,31.949-27.364c2.204,0.156,3.863,2.069,3.707,4.273s-2.069,3.851-4.272,3.708
				c-19.314-1.381-23.341,19.858-23.503,20.762C231.537,157.446,229.85,158.811,227.948,158.811z"/>
		</g>
		<path d="M191.011,353.363c-1.897,0-3.582-1.356-3.932-3.29l-20.642-114.311c-0.393-2.174,1.052-4.255,3.226-4.647
			c2.174-0.39,4.255,1.052,4.647,3.226l20.642,114.311c0.393,2.174-1.052,4.255-3.226,4.647
			C191.486,353.342,191.247,353.363,191.011,353.363z"/>
		<path d="M212.749,350.644c-2.062,0-3.812-1.584-3.982-3.675l-8.506-104.402c-0.179-2.202,1.46-4.132,3.662-4.312
			c2.203-0.177,4.132,1.46,4.312,3.662l8.506,104.402c0.179,2.202-1.46,4.132-3.662,4.312
			C212.968,350.639,212.858,350.644,212.749,350.644z"/>
		<path d="M237.503,355.345c-0.008,0-0.015,0-0.023,0c-2.209-0.012-3.99-1.813-3.978-4.022l0.61-109.104
			c0.012-2.209,1.809-3.98,4.022-3.978c2.209,0.012,3.99,1.813,3.978,4.022l-0.61,109.104
			C241.491,353.568,239.702,355.345,237.503,355.345z"/>
		<path d="M262.551,350.644c-0.18,0-0.362-0.012-0.545-0.037c-2.188-0.298-3.721-2.315-3.423-4.504l14.698-107.801
			c0.298-2.189,2.314-3.718,4.504-3.423c2.189,0.298,3.721,2.315,3.423,4.504L266.51,347.184
			C266.236,349.189,264.521,350.644,262.551,350.644z"/>
	</g>
	<g id="rde훾a7bela_copy_3" display="inline">
	</g>
	<path display="inline" d="M15393.256,8195.27h-16737v-13953h16737V8195.27z M-1343.244,8194.27h16736l-0.5-13951h-16735.5
		l0.5,13951H-1343.244z"/>
</g>
<g id="linijsko" display="none">
	<g display="inline">
		<path fill="none" stroke="#000000" stroke-width="8" stroke-linecap="round" stroke-linejoin="round" stroke-miterlimit="10" d="
			M192.062,121.184c0,0-7.563-18.139,9.515-39.163"/>
		<path fill="none" stroke="#000000" stroke-width="8" stroke-linecap="round" stroke-linejoin="round" stroke-miterlimit="10" d="
			M129.318,207.045"/>
		<g>
			<path fill="none" stroke="#000000" stroke-width="8" stroke-linecap="round" stroke-linejoin="round" stroke-miterlimit="10" d="
				M181.955,139.402c-1.306-1.349-2.428-2.917-3.285-4.702c-4.283-8.923-0.521-19.628,8.402-23.912
				c8.074-3.875,17.59-1.149,22.504,6.012"/>
			<path fill="none" stroke="#000000" stroke-width="8" stroke-linecap="round" stroke-linejoin="round" stroke-miterlimit="10" d="
				M181.955,139.402c5.219,5.394,13.489,7.126,20.627,3.7c8.923-4.283,12.685-14.989,8.401-23.912
				c-0.408-0.85-0.89-1.636-1.407-2.39"/>
			<path fill="none" stroke="#000000" stroke-width="8" stroke-linecap="round" stroke-linejoin="round" stroke-miterlimit="10" d="
				M151.736,186.755c-14,5.506-22.418,12.577-22.418,20.29c0,17.562,43.631,31.798,97.453,31.798s97.453-14.236,97.453-31.798
				c0-7.713-8.419-14.785-22.42-20.291"/>
			<path fill="none" stroke="#000000" stroke-width="8" stroke-linecap="round" stroke-linejoin="round" stroke-miterlimit="10" d="
				M181.955,139.402c-2.769,3.685-4.41,8.265-4.41,13.228c0,2.822,0.536,5.518,1.503,7.998c-2.126,0.735-3.952,1.154-5.357,1.154
				c-12.174,0-22.043,9.869-22.043,22.044c0,0.921,0.02,1.902,0.088,2.928"/>
			<path fill="none" stroke="#000000" stroke-width="8" stroke-linecap="round" stroke-linejoin="round" stroke-miterlimit="10" d="
				M301.805,186.754c0.068-1.026,0.089-2.006,0.089-2.928c0-12.175-9.869-22.044-22.042-22.044c-1.405,0-3.232-0.419-5.357-1.154
				c0.967-2.48,1.503-5.176,1.503-7.998c0-12.174-9.869-22.044-22.043-22.044c-1.775,0-3.5,0.216-5.154,0.613
				c0.005-0.204,0.015-0.407,0.015-0.613c0-12.174-9.869-22.043-22.043-22.043c-6.957,0-13.155,3.225-17.195,8.257"/>
			<path fill="none" stroke="#000000" stroke-width="8" stroke-linecap="round" stroke-linejoin="round" stroke-miterlimit="10" d="
				M301.805,186.754c-0.828,12.361-8.77,31.248-75.033,31.736c-66.264-0.488-74.206-19.375-75.035-31.735"/>
			<path fill="none" stroke="#000000" stroke-width="8" stroke-linecap="round" stroke-linejoin="round" stroke-miterlimit="10" d="
				M176.318,161.614c0,0,17.979,0.471,27.769,14.501"/>
			<path fill="none" stroke="#000000" stroke-width="8" stroke-linecap="round" stroke-linejoin="round" stroke-miterlimit="10" d="
				M204.087,176.115c3.19,4.57,5.515,10.572,6.06,18.475"/>
		</g>
		<path fill="none" stroke="#000000" stroke-width="8" stroke-linecap="round" stroke-linejoin="round" stroke-miterlimit="10" d="
			M227.944,154.815c0,0,4.462-25.707,27.725-24.058"/>
		
			<line fill="none" stroke="#000000" stroke-width="8" stroke-linecap="round" stroke-linejoin="round" stroke-miterlimit="10" x1="170.374" y1="235.052" x2="191.016" y2="349.362"/>
		
			<line fill="none" stroke="#000000" stroke-width="8" stroke-linecap="round" stroke-linejoin="round" stroke-miterlimit="10" x1="204.248" y1="242.241" x2="212.753" y2="346.644"/>
		
			<line fill="none" stroke="#000000" stroke-width="8" stroke-linecap="round" stroke-linejoin="round" stroke-miterlimit="10" x1="238.113" y1="242.241" x2="237.503" y2="351.345"/>
		
			<line fill="none" stroke="#000000" stroke-width="8" stroke-linecap="round" stroke-linejoin="round" stroke-miterlimit="10" x1="277.244" y1="238.843" x2="262.546" y2="346.644"/>
		<path fill="none" stroke="#000000" stroke-width="8" stroke-linecap="round" stroke-linejoin="round" stroke-miterlimit="10" d="
			M324.225,207.045c0,0-35.19,113.746-35.19,131.307s-124.525,17.562-124.525,0s-35.19-131.307-35.19-131.307"/>
	</g>
	<g id="rde훾a7bela_copy" display="inline">
	</g>
</g>
<g id="pivot">
	<circle fill="none" cx="237.714" cy="378.087" r="14.133"/>
</g>
</svg>
