<?xml version="1.0" encoding="utf-8"?>
<!-- Generator: Adobe Illustrator 16.0.0, SVG Export Plug-In . SVG Version: 6.00 Build 0)  -->
<!DOCTYPE svg PUBLIC "-//W3C//DTD SVG 1.1//EN" "http://www.w3.org/Graphics/SVG/1.1/DTD/svg11.dtd">
<svg version="1.1" xmlns="http://www.w3.org/2000/svg" xmlns:xlink="http://www.w3.org/1999/xlink" x="0px" y="0px"
	 width="453.544px" height="453.543px" viewBox="0 0 453.544 453.543" enable-background="new 0 0 453.544 453.543"
	 xml:space="preserve">
<g id="kvadrat">
</g>
<g id="bg" display="none">
	<rect x="-7976.267" y="-5337.222" display="inline" width="15266.867" height="13678.951"/>
</g>
<g id="barvno" display="none">
	
		<path display="inline" stroke="#000000" stroke-width="8" stroke-linecap="round" stroke-linejoin="round" stroke-miterlimit="10" d="
		M55.866,312.197c0,0,38.127-21.664,61.313-75.488c0,0,46.643,35.844,106.908,31.698c0,0,5.428-2.487-8.691-44.156l16.33,13.664
		c0,0,8.383-16.221,20.252-10.629l-0.623-21.664c0,0,18.432,29.654,26.355,30.08c0,0,37.406-39.503,32.506-108.886
		c0,0,43.713,16.208,87.461-26.047c0,0-34.393,37.732-20.654,74.645c0,0-60.697,35.331-28.654,93.065
		c-39.385,7.089-67.977,40.165-42.365,84.295c-15.438-14.521-62.916-52.953-99.168-2.347c0,0-36.729-61.603-85.625-22.142
		C121.21,328.286,103.474,300.082,55.866,312.197z"/>
	<g id="rde훾a7bela" display="inline">
	</g>
	
		<rect x="-8486.552" y="-5757.23" display="inline" fill="none" stroke="#000000" stroke-miterlimit="10" width="16736" height="13952"/>
</g>
<g id="barvno_copy_2">
	<g>
		<path fill="#0000FF" d="M55.866,312.197c0,0,38.127-21.664,61.313-75.488c0,0,46.643,35.844,106.908,31.698
			c0,0,5.428-2.487-8.691-44.156l16.33,13.664c0,0,8.383-16.221,20.252-10.629l-0.623-21.664c0,0,18.432,29.654,26.355,30.08
			c0,0,37.406-39.503,32.506-108.886c0,0,43.713,16.208,87.461-26.047c0,0-34.393,37.732-20.654,74.645
			c0,0-60.697,35.331-28.654,93.065c-39.385,7.089-67.977,40.165-42.365,84.295c-15.438-14.521-62.916-52.953-99.168-2.347
			c0,0-36.729-61.603-85.625-22.142C121.21,328.286,103.474,300.082,55.866,312.197z"/>
		<path d="M306.004,356.774c-0.989,0-1.975-0.365-2.741-1.086c-10.557-9.93-31.549-26.587-53.547-26.587
			c-15.051,0-28.385,7.959-39.629,23.657c-0.785,1.096-2.054,1.724-3.42,1.667c-1.348-0.057-2.577-0.789-3.268-1.948
			c-0.198-0.331-20.322-33.388-49.104-33.388c-10.165,0-20.452,4.142-30.574,12.311c-0.889,0.717-2.038,1.021-3.17,0.833
			c-1.127-0.188-2.119-0.849-2.728-1.816c-0.442-0.688-11.415-17.242-39.44-17.242c-6.725,0-13.969,0.976-21.531,2.9
			c-1.941,0.497-3.948-0.524-4.696-2.382c-0.749-1.858-0.008-3.983,1.733-4.972c0.366-0.209,37.289-21.763,59.615-73.593
			c0.488-1.133,1.473-1.978,2.667-2.289c1.193-0.311,2.465-0.052,3.444,0.699c0.405,0.311,41.334,31.204,94.714,31.204
			c2.256,0,4.526-0.056,6.778-0.166c0.118-3.396-0.778-13.298-9.501-39.041c-0.575-1.698,0.049-3.571,1.528-4.584
			c1.479-1.015,3.452-0.917,4.826,0.232l12.862,10.762c3.071-4.123,8.676-9.832,16.159-9.832c0.282,0,0.563,0.008,0.845,0.024
			l-0.472-16.4c-0.053-1.807,1.114-3.424,2.845-3.945c1.729-0.521,3.596,0.183,4.551,1.718c7.932,12.757,17.304,24.511,21.72,27.494
			c7.054-8.643,33.87-45.635,29.754-103.906c-0.096-1.355,0.504-2.667,1.592-3.482c1.088-0.814,2.513-1.021,3.789-0.55
			c0.067,0.024,7.824,2.805,19.75,2.805c15.772,0,39.6-4.854,63.541-27.979c1.554-1.501,4.017-1.497,5.566,0.008
			c1.549,1.505,1.624,3.968,0.169,5.564c-0.325,0.357-32.572,36.404-19.861,70.555c0.679,1.824-0.055,3.873-1.736,4.852
			c-0.143,0.083-14.711,8.709-25.216,23.917c-13.737,19.885-14.395,41.334-1.954,63.75c0.627,1.128,0.67,2.49,0.117,3.656
			c-0.554,1.166-1.636,1.993-2.905,2.222c-21.116,3.801-37.949,15.202-45.027,30.498c-6.489,14.022-4.618,30.569,5.413,47.853
			c0.996,1.717,0.582,3.906-0.974,5.141C307.759,356.487,306.88,356.774,306.004,356.774z M154.296,311.088
			c26.368,0,45.46,22.354,52.75,32.471c12.13-14.908,26.462-22.458,42.67-22.458c17.137,0,33.36,8.634,45.512,17.511
			c-5.447-16.951-2.536-30.203,1.562-39.057c7.559-16.333,24.393-28.755,45.611-33.902c-14.14-29.393-5.294-52.854,4.996-67.641
			c8.761-12.59,19.758-20.86,24.832-24.28c-6.171-20.082,0.218-39.802,7.747-54.078c-18.579,11.391-35.955,14.218-48.619,14.218
			c-7.122,0-12.912-0.887-16.84-1.742c2.695,66.845-32.368,104.703-33.902,106.324c-0.806,0.852-1.933,1.311-3.119,1.244
			c-3.174-0.17-8.218-2.234-19.135-16.794c-0.901-1.203-1.776-2.401-2.609-3.566l0.225,7.834c0.04,1.39-0.645,2.701-1.808,3.462
			c-1.163,0.762-2.639,0.864-3.896,0.272c-1.13-0.533-2.206-0.792-3.289-0.792c-5.488,0-10.412,7.138-11.704,9.638
			c-0.558,1.079-1.574,1.846-2.765,2.085c-1.189,0.24-2.426-0.075-3.355-0.854l-5.736-4.799c3.311,11.043,5.19,19.588,5.604,25.493
			c0.148,2.125,0.601,8.592-3.273,10.368c-0.438,0.201-0.91,0.321-1.392,0.354c-3.311,0.228-6.686,0.343-10.031,0.343
			c-46.789,0-83.507-21.86-95.484-29.945c-14.585,31.687-33.918,51.748-46.886,62.633c2.181-0.171,4.323-0.256,6.424-0.256
			c24.742,0,38.217,11.563,43.525,17.534C132.486,314.994,143.365,311.088,154.296,311.088z"/>
	</g>
	<g id="rde훾a7bela_copy_4">
	</g>
	<rect x="-8486.552" y="-5757.23" fill="none" stroke="#000000" stroke-miterlimit="10" width="16736" height="13952"/>
</g>
<g id="sivinsko" display="none">
	<g display="inline">
		<path d="M55.866,312.197c0,0,38.127-21.664,61.313-75.488c0,0,46.643,35.844,106.908,31.698c0,0,5.428-2.487-8.691-44.156
			l16.33,13.664c0,0,8.383-16.221,20.252-10.629l-0.623-21.664c0,0,18.432,29.654,26.355,30.08c0,0,37.406-39.503,32.506-108.886
			c0,0,43.713,16.208,87.461-26.047c0,0-34.393,37.732-20.654,74.645c0,0-60.697,35.331-28.654,93.065
			c-39.385,7.089-67.977,40.165-42.365,84.295c-15.438-14.521-62.916-52.953-99.168-2.347c0,0-36.729-61.603-85.625-22.142
			C121.21,328.286,103.474,300.082,55.866,312.197z"/>
		<path d="M306.004,356.774c-0.989,0-1.975-0.365-2.741-1.086c-10.557-9.93-31.549-26.587-53.547-26.587
			c-15.051,0-28.385,7.959-39.629,23.657c-0.785,1.096-2.054,1.724-3.42,1.667c-1.348-0.057-2.577-0.789-3.268-1.948
			c-0.198-0.331-20.322-33.388-49.104-33.388c-10.165,0-20.452,4.142-30.574,12.311c-0.889,0.717-2.038,1.021-3.17,0.833
			c-1.127-0.188-2.119-0.849-2.728-1.816c-0.442-0.688-11.415-17.242-39.44-17.242c-6.725,0-13.969,0.976-21.531,2.9
			c-1.941,0.497-3.948-0.524-4.696-2.382c-0.749-1.858-0.008-3.983,1.733-4.972c0.366-0.209,37.289-21.763,59.615-73.593
			c0.488-1.133,1.473-1.978,2.667-2.289c1.193-0.311,2.465-0.052,3.444,0.699c0.405,0.311,41.334,31.204,94.714,31.204
			c2.256,0,4.526-0.056,6.778-0.166c0.118-3.396-0.778-13.298-9.501-39.041c-0.575-1.698,0.049-3.571,1.528-4.584
			c1.479-1.015,3.452-0.917,4.826,0.232l12.862,10.762c3.071-4.123,8.676-9.832,16.159-9.832c0.282,0,0.563,0.008,0.845,0.024
			l-0.472-16.4c-0.053-1.807,1.114-3.424,2.845-3.945c1.729-0.521,3.596,0.183,4.551,1.718c7.932,12.757,17.304,24.511,21.72,27.494
			c7.054-8.643,33.87-45.635,29.754-103.906c-0.096-1.355,0.504-2.667,1.592-3.482c1.088-0.814,2.513-1.021,3.789-0.55
			c0.067,0.024,7.824,2.805,19.75,2.805c15.772,0,39.6-4.854,63.541-27.979c1.554-1.501,4.017-1.497,5.566,0.008
			c1.549,1.505,1.624,3.968,0.169,5.564c-0.325,0.357-32.572,36.404-19.861,70.555c0.679,1.824-0.055,3.873-1.736,4.852
			c-0.143,0.083-14.711,8.709-25.216,23.917c-13.737,19.885-14.395,41.334-1.954,63.75c0.627,1.128,0.67,2.49,0.117,3.656
			c-0.554,1.166-1.636,1.993-2.905,2.222c-21.116,3.801-37.949,15.202-45.027,30.498c-6.489,14.022-4.618,30.569,5.413,47.853
			c0.996,1.717,0.582,3.906-0.974,5.141C307.759,356.487,306.88,356.774,306.004,356.774z M154.296,311.088
			c26.368,0,45.46,22.354,52.75,32.471c12.13-14.908,26.462-22.458,42.67-22.458c17.137,0,33.36,8.634,45.512,17.511
			c-5.447-16.951-2.536-30.203,1.562-39.057c7.559-16.333,24.393-28.755,45.611-33.902c-14.14-29.393-5.294-52.854,4.996-67.641
			c8.761-12.59,19.758-20.86,24.832-24.28c-6.171-20.082,0.218-39.802,7.747-54.078c-18.579,11.391-35.955,14.218-48.619,14.218
			c-7.122,0-12.912-0.887-16.84-1.742c2.695,66.845-32.368,104.703-33.902,106.324c-0.806,0.852-1.933,1.311-3.119,1.244
			c-3.174-0.17-8.218-2.234-19.135-16.794c-0.901-1.203-1.776-2.401-2.609-3.566l0.225,7.834c0.04,1.39-0.645,2.701-1.808,3.462
			c-1.163,0.762-2.639,0.864-3.896,0.272c-1.13-0.533-2.206-0.792-3.289-0.792c-5.488,0-10.412,7.138-11.704,9.638
			c-0.558,1.079-1.574,1.846-2.765,2.085c-1.189,0.24-2.426-0.075-3.355-0.854l-5.736-4.799c3.311,11.043,5.19,19.588,5.604,25.493
			c0.148,2.125,0.601,8.592-3.273,10.368c-0.438,0.201-0.91,0.321-1.392,0.354c-3.311,0.228-6.686,0.343-10.031,0.343
			c-46.789,0-83.507-21.86-95.484-29.945c-14.585,31.687-33.918,51.748-46.886,62.633c2.181-0.171,4.323-0.256,6.424-0.256
			c24.742,0,38.217,11.563,43.525,17.534C132.486,314.994,143.365,311.088,154.296,311.088z"/>
	</g>
	<g id="rde훾a7bela_copy_3" display="inline">
	</g>
	<path display="inline" d="M8249.948,8195.27h-16737v-13953h16737V8195.27z M-8486.552,8194.27h16736l-0.5-13951h-16735.5l0.5,13951
		H-8486.552z"/>
</g>
<g id="linijsko" display="none">
	
		<path display="inline" fill="none" stroke="#000000" stroke-width="8" stroke-linecap="round" stroke-linejoin="round" stroke-miterlimit="10" d="
		M55.866,312.197c0,0,38.127-21.664,61.313-75.488c0,0,46.643,35.844,106.908,31.698c0,0,5.428-2.487-8.691-44.156l16.33,13.664
		c0,0,8.383-16.221,20.252-10.629l-0.623-21.664c0,0,18.432,29.654,26.355,30.08c0,0,37.406-39.503,32.506-108.886
		c0,0,43.713,16.208,87.461-26.047c0,0-34.393,37.732-20.654,74.645c0,0-60.697,35.331-28.654,93.065
		c-39.385,7.089-67.977,40.165-42.365,84.295c-15.438-14.521-62.916-52.953-99.168-2.347c0,0-36.729-61.603-85.625-22.142
		C121.21,328.286,103.474,300.082,55.866,312.197z"/>
	<g id="rde훾a7bela_copy" display="inline">
	</g>
</g>
<g id="pivot">
	<circle fill="none" cx="241.397" cy="357.833" r="14.133"/>
</g>
</svg>
