<?xml version="1.0" encoding="utf-8"?>
<!-- Generator: Adobe Illustrator 16.0.0, SVG Export Plug-In . SVG Version: 6.00 Build 0)  -->
<!DOCTYPE svg PUBLIC "-//W3C//DTD SVG 1.1//EN" "http://www.w3.org/Graphics/SVG/1.1/DTD/svg11.dtd">
<svg version="1.1" xmlns="http://www.w3.org/2000/svg" xmlns:xlink="http://www.w3.org/1999/xlink" x="0px" y="0px"
	 width="453.543px" height="453.543px" viewBox="0 0 453.543 453.543" enable-background="new 0 0 453.543 453.543"
	 xml:space="preserve">
<g id="kvadrat">
</g>
<g id="bg" display="none">
	<rect x="-3384.14" y="-5337.222" display="inline" width="15266.867" height="13678.951"/>
</g>
<g id="barvno" display="none">
	<g display="inline">
		
			<path fill="#E20613" stroke="#000000" stroke-width="8" stroke-linecap="round" stroke-linejoin="round" stroke-miterlimit="10" d="
			M291.727,107.37c-35.678,0-64.954,34.324-64.954,55.143c0-20.819-29.276-55.143-64.956-55.143c-35.881,0-61.97,21.21-61.97,67.822
			c0,70.329,117.244,154.589,126.926,161.982c9.68-7.393,124.923-91.653,124.923-161.982
			C351.696,128.58,327.608,107.37,291.727,107.37z"/>
	</g>
	<g id="rde훾a7bela" display="inline">
	</g>
	
		<rect x="-3894.425" y="-5757.23" display="inline" fill="none" stroke="#000000" stroke-miterlimit="10" width="16736" height="13952"/>
</g>
<g id="barvno_copy_2">
	<g>
		<g>
			<path fill="#FF0000" d="M291.727,107.37c-35.678,0-64.954,34.324-64.954,55.143c0-20.819-29.276-55.143-64.956-55.143
				c-35.881,0-61.97,21.21-61.97,67.822c0,70.329,117.244,154.589,126.926,161.982c9.68-7.393,124.923-91.653,124.923-161.982
				C351.696,128.58,327.608,107.37,291.727,107.37z"/>
			<path d="M226.773,341.174c-0.855,0-1.711-0.273-2.428-0.821c-0.432-0.33-1.082-0.815-1.929-1.448
				c-26.915-20.11-50.386-40.493-69.762-60.583c-37.694-39.083-56.807-73.781-56.807-103.13c0-23.431,6.287-41.667,18.686-54.203
				c11.4-11.526,27.75-17.619,47.284-17.619c17.177,0,34.441,7.409,48.612,20.863c7.209,6.844,12.85,14.598,16.344,22.174
				c3.495-7.577,9.135-15.33,16.343-22.174c14.17-13.454,31.434-20.863,48.61-20.863c19.675,0,35.27,5.95,46.349,17.686
				c11.692,12.384,17.621,30.598,17.621,54.136c0,63.008-87.475,135.746-125.084,164.094c-0.596,0.45-1.07,0.807-1.411,1.067
				C228.484,340.9,227.628,341.174,226.773,341.174z M161.817,111.37c-36.841,0-57.97,23.262-57.97,63.822
				c0,58.553,85.587,129.032,122.917,156.975c37.163-28.126,120.932-98.084,120.932-156.975c0-41.156-19.877-63.822-55.969-63.822
				c-32.465,0-60.954,31.875-60.954,51.143c0,2.209-1.791,4-4,4s-4-1.791-4-4C222.773,143.245,194.283,111.37,161.817,111.37z"/>
		</g>
	</g>
	<g id="rde훾a7bela_copy_4">
	</g>
	<rect x="-3894.425" y="-5757.23" fill="none" stroke="#000000" stroke-miterlimit="10" width="16736" height="13952"/>
</g>
<g id="sivinsko" display="none">
	<g display="inline">
		<g>
			<path fill="#494949" d="M291.727,107.37c-35.678,0-64.954,34.324-64.954,55.143c0-20.819-29.276-55.143-64.956-55.143
				c-35.881,0-61.97,21.21-61.97,67.822c0,70.329,117.244,154.589,126.926,161.982c9.68-7.393,124.923-91.653,124.923-161.982
				C351.696,128.58,327.608,107.37,291.727,107.37z"/>
			<path d="M226.773,341.174c-0.855,0-1.711-0.273-2.428-0.821c-0.432-0.33-1.082-0.815-1.929-1.448
				c-26.915-20.11-50.386-40.493-69.762-60.583c-37.694-39.083-56.807-73.781-56.807-103.13c0-23.431,6.287-41.667,18.686-54.203
				c11.4-11.526,27.75-17.619,47.284-17.619c17.177,0,34.441,7.409,48.611,20.863c7.209,6.844,12.85,14.598,16.345,22.174
				c3.495-7.577,9.135-15.33,16.343-22.174c14.17-13.454,31.434-20.863,48.61-20.863c19.675,0,35.27,5.95,46.349,17.686
				c11.692,12.384,17.621,30.598,17.621,54.136c0,63.008-87.475,135.746-125.084,164.094c-0.596,0.45-1.07,0.807-1.411,1.067
				C228.484,340.9,227.628,341.174,226.773,341.174z M161.817,111.37c-36.841,0-57.97,23.262-57.97,63.822
				c0,58.553,85.587,129.032,122.917,156.975c37.163-28.126,120.932-98.084,120.932-156.975c0-41.156-19.877-63.822-55.969-63.822
				c-32.465,0-60.954,31.875-60.954,51.143c0,2.209-1.791,4-4,4s-4-1.791-4-4C222.773,143.245,194.283,111.37,161.817,111.37z"/>
		</g>
	</g>
	<g id="rde훾a7bela_copy_3" display="inline">
	</g>
	<path display="inline" d="M12842.074,8195.27h-16737v-13953h16737V8195.27z M-3894.425,8194.27h16736l-0.5-13951h-16735.5
		l0.5,13951H-3894.425z"/>
</g>
<g id="linijsko" display="none">
	<g display="inline">
		<path fill="none" stroke="#000000" stroke-width="8" stroke-linecap="round" stroke-linejoin="round" stroke-miterlimit="10" d="
			M291.727,107.37c-35.678,0-64.954,34.324-64.954,55.143c0-20.819-29.276-55.143-64.956-55.143c-35.881,0-61.97,21.21-61.97,67.822
			c0,70.329,117.244,154.589,126.926,161.982c9.68-7.393,124.923-91.653,124.923-161.982
			C351.696,128.58,327.608,107.37,291.727,107.37z"/>
	</g>
	<g id="rde훾a7bela_copy" display="inline">
	</g>
</g>
<g id="pivot">
	<circle fill="none" cx="228.489" cy="331.79" r="14.133"/>
</g>
</svg>
