<?xml version="1.0" encoding="utf-8"?>
<!-- Generator: Adobe Illustrator 16.0.0, SVG Export Plug-In . SVG Version: 6.00 Build 0)  -->
<!DOCTYPE svg PUBLIC "-//W3C//DTD SVG 1.1//EN" "http://www.w3.org/Graphics/SVG/1.1/DTD/svg11.dtd">
<svg version="1.1" xmlns="http://www.w3.org/2000/svg" xmlns:xlink="http://www.w3.org/1999/xlink" x="0px" y="0px"
	 width="453.543px" height="453.543px" viewBox="0 0 453.543 453.543" enable-background="new 0 0 453.543 453.543"
	 xml:space="preserve">
<g id="kvadrat">
</g>
<g id="bg" display="none">
	<rect x="-322.723" y="-5337.222" display="inline" width="15266.867" height="13678.951"/>
</g>
<g id="barvno" display="none">
	<g display="inline">
		
			<path fill="#7E4E24" stroke="#000000" stroke-width="8" stroke-linecap="round" stroke-linejoin="round" stroke-miterlimit="10" d="
			M365.064,186.283c0,0,0,76.223,0,98.608c0,22.387-61.916,40.534-138.293,40.534S88.479,307.278,88.479,284.892
			c0-22.386,0-98.608,0-98.608"/>
		
			<ellipse fill="#683B11" stroke="#000000" stroke-width="8" stroke-linecap="round" stroke-linejoin="round" stroke-miterlimit="10" cx="226.771" cy="186.283" rx="138.293" ry="40.535"/>
		
			<path fill="#F19DC3" stroke="#000000" stroke-width="8" stroke-linecap="round" stroke-linejoin="round" stroke-miterlimit="10" d="
			M226.771,260.549c-76.377,0-138.293-18.148-138.293-40.534c0,12.547,0,23.746,0,30.312c0,22.387,61.916,40.534,138.293,40.534
			s138.293-18.147,138.293-40.534c0-6.565,0-17.765,0-30.312C365.064,242.4,303.148,260.549,226.771,260.549z"/>
		
			<path fill="#FFFFFF" stroke="#000000" stroke-width="8" stroke-linecap="round" stroke-linejoin="round" stroke-miterlimit="10" d="
			M122.456,188.315c5.948,0,24.581-7.744,0-30.949c-3.369,6.799-8.331,10.409-10.575,14.417
			C106.313,181.725,113.814,188.315,122.456,188.315z"/>
		
			<path fill="#FFFFFF" stroke="#000000" stroke-width="8" stroke-linecap="round" stroke-linejoin="round" stroke-miterlimit="10" d="
			M170.239,166.931c5.949,0,24.581-7.743,0-30.949c-3.368,6.799-8.331,10.409-10.575,14.417
			C154.096,160.34,161.598,166.931,170.239,166.931z"/>
		
			<path fill="#FFFFFF" stroke="#000000" stroke-width="8" stroke-linecap="round" stroke-linejoin="round" stroke-miterlimit="10" d="
			M231.652,159.068c5.948,0,24.581-7.744,0-30.95c-3.369,6.799-8.331,10.409-10.576,14.417
			C215.51,152.476,223.011,159.068,231.652,159.068z"/>
		
			<path fill="#FFFFFF" stroke="#000000" stroke-width="8" stroke-linecap="round" stroke-linejoin="round" stroke-miterlimit="10" d="
			M287.68,164.149c5.949,0,24.582-7.745,0-30.951c-3.367,6.8-8.33,10.409-10.574,14.417
			C271.539,157.558,279.039,164.149,287.68,164.149z"/>
		
			<path fill="#FFFFFF" stroke="#000000" stroke-width="8" stroke-linecap="round" stroke-linejoin="round" stroke-miterlimit="10" d="
			M326.957,193.2c5.949,0,24.582-7.743,0-30.949c-3.368,6.799-8.33,10.409-10.574,14.417
			C310.815,186.61,318.316,193.2,326.957,193.2z"/>
		
			<path fill="#FFFFFF" stroke="#000000" stroke-width="8" stroke-linecap="round" stroke-linejoin="round" stroke-miterlimit="10" d="
			M278.915,206.799c5.948,0,24.581-7.745,0-30.951c-3.369,6.8-8.331,10.409-10.575,14.417
			C262.772,200.208,270.273,206.799,278.915,206.799z"/>
		
			<path fill="#FFFFFF" stroke="#000000" stroke-width="8" stroke-linecap="round" stroke-linejoin="round" stroke-miterlimit="10" d="
			M225.288,209.885c5.947,0,24.58-7.744,0-30.95c-3.369,6.799-8.332,10.409-10.575,14.417
			C209.146,203.294,216.646,209.885,225.288,209.885z"/>
		
			<path fill="#FFFFFF" stroke="#000000" stroke-width="8" stroke-linecap="round" stroke-linejoin="round" stroke-miterlimit="10" d="
			M173.841,208.675c5.949,0,24.58-7.743,0-30.949c-3.368,6.8-8.331,10.409-10.575,14.417
			C157.699,202.085,165.2,208.675,173.841,208.675z"/>
	</g>
	<g id="rde훾a7bela" display="inline">
	</g>
	
		<rect x="-833.008" y="-5757.23" display="inline" fill="none" stroke="#000000" stroke-miterlimit="10" width="16736" height="13952"/>
</g>
<g id="barvno_copy_2">
	<g>
		<g>
			<path fill="#FF00FF" d="M365.064,186.283c0,0,0,76.223,0,98.608c0,22.387-61.916,40.534-138.293,40.534
				S88.479,307.278,88.479,284.892c0-22.386,0-98.608,0-98.608"/>
			<path d="M226.771,329.426c-37.31,0-72.438-4.273-98.913-12.034c-28.379-8.318-43.38-19.557-43.38-32.5v-98.608
				c0-2.209,1.791-4,4-4s4,1.791,4,4v98.608c0,17.28,55.152,36.534,134.293,36.534s134.293-19.254,134.293-36.534v-98.608
				c0-2.209,1.791-4,4-4s4,1.791,4,4v98.608c0,12.944-15,24.183-43.38,32.5C299.209,325.152,264.081,329.426,226.771,329.426z"/>
		</g>
		<g>
			<ellipse fill="#00FF00" cx="226.771" cy="186.283" rx="138.293" ry="40.535"/>
			<path d="M226.771,230.818c-37.31,0-72.438-4.274-98.913-12.034c-28.379-8.318-43.38-19.557-43.38-32.501
				c0-12.943,15-24.182,43.38-32.5c26.476-7.76,61.604-12.033,98.913-12.033s72.438,4.273,98.913,12.033
				c28.379,8.318,43.38,19.557,43.38,32.5c0,12.944-15,24.183-43.38,32.501C299.209,226.544,264.081,230.818,226.771,230.818z
				 M226.771,149.75c-79.141,0-134.293,19.253-134.293,36.533c0,17.281,55.152,36.535,134.293,36.535s134.293-19.254,134.293-36.535
				C361.064,169.003,305.912,149.75,226.771,149.75z"/>
		</g>
		<g>
			<path fill="#00FF00" d="M226.771,260.549c-76.377,0-138.293-18.148-138.293-40.534c0,12.547,0,23.746,0,30.312
				c0,22.387,61.916,40.534,138.293,40.534s138.293-18.147,138.293-40.534c0-6.565,0-17.765,0-30.312
				C365.064,242.4,303.148,260.549,226.771,260.549z"/>
			<path d="M226.771,294.86c-37.31,0-72.438-4.273-98.913-12.034c-28.379-8.318-43.38-19.557-43.38-32.5v-30.312
				c0-2.209,1.791-4,4-4s4,1.791,4,4c0,17.28,55.152,36.534,134.293,36.534s134.293-19.254,134.293-36.534c0-2.209,1.791-4,4-4
				s4,1.791,4,4v30.312c0,12.944-15,24.183-43.38,32.5C299.209,290.587,264.081,294.86,226.771,294.86z M92.479,235.497v14.829
				c0,17.28,55.152,36.534,134.293,36.534s134.293-19.254,134.293-36.534v-14.829c-7.163,6.485-19.058,12.234-35.38,17.018
				c-26.476,7.76-61.604,12.034-98.913,12.034s-72.438-4.274-98.913-12.034C111.537,247.731,99.641,241.982,92.479,235.497z"/>
		</g>
		<g>
			<path fill="#FFFF00" d="M122.456,188.315c5.948,0,24.581-7.744,0-30.949c-3.369,6.799-8.331,10.409-10.575,14.417
				C106.313,181.725,113.814,188.315,122.456,188.315z"/>
			<path d="M122.456,192.315c-6.379,0-12.029-2.878-14.745-7.512c-2.542-4.335-2.3-9.653,0.679-14.975
				c1.128-2.015,2.684-3.794,4.332-5.677c2.162-2.472,4.398-5.027,6.149-8.562c0.563-1.136,1.631-1.938,2.879-2.162
				c1.249-0.223,2.528,0.159,3.45,1.029c11.482,10.839,15.748,20.25,12.679,27.972C135.17,189.248,127.229,192.315,122.456,192.315z
				 M123.244,163.834c-1.531,2.189-3.119,4.005-4.5,5.584c-1.424,1.627-2.653,3.033-3.373,4.318c-1.086,1.94-2.1,4.733-0.758,7.021
				c1.267,2.161,4.346,3.557,7.843,3.557c1.727,0,6.639-1.44,7.99-4.841C131.859,175.919,129.254,170.34,123.244,163.834z"/>
		</g>
		<g>
			<path fill="#FFFF00" d="M170.239,166.931c5.949,0,24.581-7.743,0-30.949c-3.368,6.799-8.331,10.409-10.575,14.417
				C154.096,160.34,161.598,166.931,170.239,166.931z"/>
			<path d="M170.239,170.931c-6.379,0-12.03-2.879-14.746-7.513c-2.541-4.335-2.299-9.653,0.681-14.974
				c1.127-2.014,2.684-3.793,4.332-5.676c2.162-2.472,4.398-5.027,6.148-8.562c0.563-1.136,1.631-1.938,2.88-2.162
				c1.248-0.224,2.528,0.158,3.45,1.029c11.482,10.84,15.748,20.251,12.68,27.973C182.954,167.864,175.012,170.931,170.239,170.931z
				 M171.027,142.451c-1.531,2.19-3.119,4.005-4.501,5.584c-1.423,1.627-2.653,3.032-3.372,4.317c-1.087,1.94-2.1,4.733-0.759,7.021
				c1.267,2.161,4.345,3.558,7.843,3.558c1.727,0,6.639-1.44,7.991-4.84C179.643,154.535,177.038,148.957,171.027,142.451z"/>
		</g>
		<g>
			<path fill="#FFFF00" d="M231.652,159.068c5.948,0,24.581-7.744,0-30.95c-3.369,6.799-8.331,10.409-10.576,14.417
				C215.51,152.476,223.011,159.068,231.652,159.068z"/>
			<path d="M231.652,163.068c-6.379,0-12.029-2.879-14.745-7.513c-2.541-4.335-2.3-9.654,0.679-14.974
				c1.128-2.015,2.685-3.794,4.332-5.677c2.163-2.472,4.399-5.028,6.15-8.562c0.563-1.136,1.631-1.938,2.879-2.162
				c1.248-0.224,2.528,0.158,3.451,1.029c11.482,10.84,15.748,20.251,12.678,27.973
				C244.367,160.001,236.426,163.068,231.652,163.068z M232.44,134.586c-1.531,2.19-3.119,4.005-4.501,5.585
				c-1.423,1.627-2.653,3.033-3.373,4.318c-1.086,1.939-2.099,4.732-0.758,7.021c1.267,2.162,4.346,3.558,7.843,3.558
				c1.727,0,6.639-1.44,7.99-4.841C241.056,146.671,238.451,141.093,232.44,134.586z"/>
		</g>
		<g>
			<path fill="#FFFF00" d="M287.68,164.149c5.949,0,24.582-7.745,0-30.951c-3.367,6.8-8.33,10.409-10.574,14.417
				C271.539,157.558,279.039,164.149,287.68,164.149z"/>
			<path d="M287.68,168.149c-6.378,0-12.028-2.878-14.744-7.512c-2.542-4.336-2.3-9.654,0.68-14.976
				c1.127-2.014,2.683-3.792,4.33-5.675c2.162-2.472,4.398-5.028,6.149-8.563c0.563-1.137,1.631-1.939,2.879-2.163
				c1.248-0.224,2.528,0.158,3.451,1.029c11.482,10.84,15.749,20.251,12.68,27.973C300.395,165.082,292.453,168.149,287.68,168.149z
				 M288.469,139.667c-1.531,2.19-3.119,4.006-4.501,5.586c-1.423,1.627-2.652,3.032-3.372,4.316c-1.086,1.94-2.1,4.733-0.758,7.021
				c1.267,2.161,4.345,3.558,7.842,3.558c1.727,0,6.64-1.44,7.991-4.841C297.084,151.752,294.479,146.174,288.469,139.667z"/>
		</g>
		<g>
			<path fill="#FFFF00" d="M326.957,193.2c5.949,0,24.582-7.743,0-30.949c-3.368,6.799-8.33,10.409-10.574,14.417
				C310.815,186.61,318.316,193.2,326.957,193.2z"/>
			<path d="M326.957,197.2c-6.379,0-12.028-2.878-14.744-7.512c-2.542-4.335-2.3-9.654,0.68-14.975
				c1.128-2.015,2.684-3.793,4.331-5.676c2.163-2.472,4.398-5.027,6.149-8.562c0.563-1.136,1.631-1.938,2.879-2.162
				c1.248-0.225,2.529,0.158,3.451,1.029c11.482,10.84,15.748,20.251,12.679,27.972C339.672,194.133,331.73,197.2,326.957,197.2z
				 M327.746,168.72c-1.531,2.19-3.119,4.005-4.5,5.585c-1.424,1.627-2.653,3.032-3.372,4.317c-1.086,1.94-2.1,4.733-0.759,7.021
				c1.267,2.161,4.345,3.557,7.843,3.557c1.727,0,6.64-1.44,7.991-4.84C336.361,180.805,333.756,175.226,327.746,168.72z"/>
		</g>
		<g>
			<path fill="#FFFF00" d="M278.915,206.799c5.948,0,24.581-7.745,0-30.951c-3.369,6.8-8.331,10.409-10.575,14.417
				C262.772,200.208,270.273,206.799,278.915,206.799z"/>
			<path d="M278.915,210.799c-6.379,0-12.029-2.879-14.745-7.513c-2.541-4.335-2.3-9.654,0.68-14.975
				c1.128-2.014,2.684-3.793,4.332-5.676c2.163-2.472,4.398-5.028,6.15-8.563c0.563-1.136,1.631-1.938,2.879-2.162
				c1.248-0.224,2.528,0.159,3.451,1.029c11.482,10.84,15.748,20.251,12.679,27.973
				C291.629,207.731,283.688,210.799,278.915,210.799z M279.703,182.317c-1.531,2.19-3.119,4.005-4.501,5.585
				c-1.423,1.627-2.653,3.032-3.372,4.317c-1.086,1.94-2.1,4.732-0.758,7.021c1.267,2.162,4.345,3.558,7.843,3.558
				c1.727,0,6.639-1.44,7.99-4.841C288.318,194.402,285.714,188.823,279.703,182.317z"/>
		</g>
		<g>
			<path fill="#FFFF00" d="M225.288,209.885c5.947,0,24.58-7.744,0-30.95c-3.369,6.799-8.332,10.409-10.575,14.417
				C209.146,203.294,216.646,209.885,225.288,209.885z"/>
			<path d="M225.288,213.885c-6.379,0-12.029-2.878-14.745-7.512c-2.542-4.335-2.3-9.654,0.679-14.975
				c1.128-2.015,2.684-3.794,4.332-5.678c2.163-2.472,4.398-5.027,6.149-8.561c0.563-1.136,1.631-1.938,2.879-2.162
				c1.248-0.224,2.528,0.159,3.451,1.029c11.481,10.84,15.747,20.251,12.678,27.973
				C238.001,210.818,230.061,213.885,225.288,213.885z M226.076,185.403c-1.531,2.189-3.119,4.004-4.5,5.584
				c-1.423,1.627-2.653,3.033-3.373,4.318c-1.086,1.94-2.1,4.733-0.758,7.022c1.267,2.161,4.346,3.558,7.843,3.558
				c1.727,0,6.638-1.44,7.99-4.841C234.69,197.488,232.086,191.909,226.076,185.403z"/>
		</g>
		<g>
			<path fill="#FFFF00" d="M173.841,208.675c5.949,0,24.58-7.743,0-30.949c-3.368,6.8-8.331,10.409-10.575,14.417
				C157.699,202.085,165.2,208.675,173.841,208.675z"/>
			<path d="M173.841,212.675c-6.379,0-12.029-2.878-14.745-7.512c-2.542-4.335-2.3-9.653,0.679-14.975
				c1.128-2.014,2.684-3.793,4.331-5.675c2.163-2.472,4.399-5.028,6.15-8.563c0.563-1.136,1.631-1.938,2.879-2.162
				c1.249-0.224,2.529,0.159,3.451,1.029c11.481,10.84,15.748,20.251,12.679,27.973
				C186.555,209.608,178.614,212.675,173.841,212.675z M174.629,184.195c-1.531,2.19-3.12,4.006-4.502,5.586
				c-1.423,1.626-2.652,3.032-3.372,4.316c-1.086,1.94-2.1,4.732-0.758,7.021c1.267,2.161,4.345,3.558,7.843,3.558
				c1.727,0,6.639-1.44,7.99-4.84C183.244,196.279,180.64,190.701,174.629,184.195z"/>
		</g>
	</g>
	<g id="rde훾a7bela_copy_4">
	</g>
	<rect x="-833.008" y="-5757.23" fill="none" stroke="#000000" stroke-miterlimit="10" width="16736" height="13952"/>
</g>
<g id="sivinsko" display="none">
	<g display="inline">
		<g>
			<path fill="#585858" d="M365.064,186.283c0,0,0,76.223,0,98.608c0,22.387-61.916,40.534-138.293,40.534
				S88.479,307.278,88.479,284.892c0-22.386,0-98.608,0-98.608"/>
			<path d="M226.771,329.426c-37.31,0-72.438-4.273-98.913-12.034c-28.379-8.318-43.38-19.557-43.38-32.5v-98.608
				c0-2.209,1.791-4,4-4s4,1.791,4,4v98.608c0,17.28,55.152,36.534,134.293,36.534s134.293-19.254,134.293-36.534v-98.608
				c0-2.209,1.791-4,4-4s4,1.791,4,4v98.608c0,12.944-15,24.183-43.38,32.5C299.209,325.152,264.081,329.426,226.771,329.426z"/>
		</g>
		<g>
			<ellipse fill="#444444" cx="226.771" cy="186.283" rx="138.293" ry="40.535"/>
			<path d="M226.771,230.818c-37.31,0-72.438-4.274-98.913-12.034c-28.379-8.318-43.38-19.557-43.38-32.501
				c0-12.943,15-24.182,43.38-32.5c26.476-7.76,61.604-12.033,98.913-12.033s72.438,4.273,98.913,12.033
				c28.379,8.318,43.38,19.557,43.38,32.5c0,12.944-15,24.183-43.38,32.501C299.209,226.544,264.081,230.818,226.771,230.818z
				 M226.771,149.75c-79.141,0-134.293,19.253-134.293,36.533c0,17.281,55.152,36.535,134.293,36.535s134.293-19.254,134.293-36.535
				C361.064,169.003,305.912,149.75,226.771,149.75z"/>
		</g>
		<g>
			<path fill="#BABABA" d="M226.771,260.549c-76.377,0-138.293-18.148-138.293-40.534c0,12.547,0,23.746,0,30.312
				c0,22.387,61.916,40.534,138.293,40.534s138.293-18.147,138.293-40.534c0-6.565,0-17.765,0-30.312
				C365.064,242.4,303.148,260.549,226.771,260.549z"/>
			<path d="M226.771,294.86c-37.31,0-72.438-4.273-98.913-12.034c-28.379-8.318-43.38-19.557-43.38-32.5v-30.312
				c0-2.209,1.791-4,4-4s4,1.791,4,4c0,17.28,55.152,36.534,134.293,36.534s134.293-19.254,134.293-36.534c0-2.209,1.791-4,4-4
				s4,1.791,4,4v30.312c0,12.944-15,24.183-43.38,32.5C299.209,290.587,264.081,294.86,226.771,294.86z M92.479,235.497v14.829
				c0,17.28,55.152,36.534,134.293,36.534s134.293-19.254,134.293-36.534v-14.829c-7.163,6.485-19.058,12.234-35.38,17.018
				c-26.476,7.76-61.604,12.034-98.913,12.034s-72.438-4.274-98.913-12.034C111.537,247.731,99.641,241.982,92.479,235.497z"/>
		</g>
		<g>
			<path fill="#FFFFFF" d="M122.456,188.315c5.948,0,24.581-7.744,0-30.949c-3.369,6.799-8.331,10.409-10.575,14.417
				C106.313,181.725,113.814,188.315,122.456,188.315z"/>
			<path d="M122.456,192.315c-6.379,0-12.029-2.878-14.745-7.512c-2.542-4.335-2.3-9.653,0.679-14.975
				c1.128-2.015,2.684-3.794,4.332-5.677c2.162-2.472,4.398-5.027,6.149-8.562c0.563-1.136,1.631-1.938,2.879-2.162
				c1.249-0.223,2.528,0.159,3.45,1.029c11.483,10.839,15.748,20.25,12.679,27.972C135.17,189.248,127.229,192.315,122.456,192.315z
				 M123.244,163.834c-1.531,2.189-3.119,4.005-4.501,5.584c-1.423,1.627-2.653,3.033-3.372,4.318
				c-1.087,1.94-2.1,4.733-0.758,7.021c1.267,2.161,4.346,3.557,7.843,3.557c1.727,0,6.639-1.44,7.99-4.841
				C131.859,175.919,129.254,170.34,123.244,163.834z"/>
		</g>
		<g>
			<path fill="#FFFFFF" d="M170.239,166.931c5.949,0,24.581-7.743,0-30.949c-3.368,6.799-8.331,10.409-10.575,14.417
				C154.096,160.34,161.598,166.931,170.239,166.931z"/>
			<path d="M170.239,170.931c-6.379,0-12.03-2.879-14.746-7.513c-2.541-4.335-2.298-9.653,0.682-14.974
				c1.127-2.014,2.684-3.793,4.332-5.676c2.162-2.472,4.398-5.027,6.148-8.562c0.563-1.136,1.631-1.938,2.879-2.162
				c1.248-0.224,2.529,0.158,3.451,1.029c11.482,10.84,15.748,20.251,12.68,27.973C182.954,167.864,175.012,170.931,170.239,170.931
				z M171.027,142.451c-1.531,2.19-3.119,4.005-4.501,5.584c-1.423,1.627-2.653,3.032-3.372,4.317
				c-1.087,1.94-2.101,4.733-0.759,7.021c1.267,2.161,4.345,3.558,7.843,3.558c1.727,0,6.639-1.44,7.991-4.84
				C179.643,154.535,177.038,148.957,171.027,142.451z"/>
		</g>
		<g>
			<path fill="#FFFFFF" d="M231.652,159.068c5.948,0,24.581-7.744,0-30.95c-3.369,6.799-8.331,10.409-10.576,14.417
				C215.51,152.476,223.011,159.068,231.652,159.068z"/>
			<path d="M231.652,163.068c-6.379,0-12.029-2.879-14.746-7.513c-2.541-4.335-2.299-9.654,0.68-14.974
				c1.128-2.015,2.685-3.794,4.332-5.677c2.163-2.472,4.399-5.028,6.15-8.562c0.563-1.136,1.63-1.938,2.879-2.162
				c1.248-0.224,2.528,0.158,3.451,1.029c11.482,10.84,15.748,20.251,12.678,27.973
				C244.367,160.001,236.426,163.068,231.652,163.068z M232.44,134.586c-1.531,2.19-3.119,4.005-4.501,5.585
				c-1.423,1.627-2.653,3.033-3.373,4.318c-1.086,1.939-2.099,4.732-0.758,7.021c1.267,2.162,4.346,3.558,7.843,3.558
				c1.727,0,6.639-1.44,7.99-4.841C241.056,146.671,238.451,141.093,232.44,134.586z"/>
		</g>
		<g>
			<path fill="#FFFFFF" d="M287.68,164.149c5.949,0,24.582-7.745,0-30.951c-3.367,6.8-8.33,10.409-10.574,14.417
				C271.539,157.558,279.039,164.149,287.68,164.149z"/>
			<path d="M287.68,168.149c-6.378,0-12.028-2.878-14.744-7.512c-2.542-4.336-2.3-9.654,0.68-14.976
				c1.128-2.014,2.684-3.792,4.331-5.675c2.162-2.472,4.398-5.028,6.148-8.563c0.563-1.137,1.631-1.939,2.88-2.163
				c1.248-0.224,2.528,0.158,3.451,1.029c11.482,10.84,15.749,20.251,12.68,27.973C300.395,165.082,292.453,168.149,287.68,168.149z
				 M288.469,139.667c-1.531,2.19-3.119,4.006-4.501,5.586c-1.423,1.627-2.652,3.032-3.372,4.316c-1.086,1.94-2.1,4.733-0.758,7.021
				c1.267,2.161,4.345,3.558,7.842,3.558c1.727,0,6.64-1.44,7.991-4.841C297.084,151.752,294.479,146.174,288.469,139.667z"/>
		</g>
		<g>
			<path fill="#FFFFFF" d="M326.957,193.2c5.949,0,24.582-7.743,0-30.949c-3.368,6.799-8.33,10.409-10.574,14.417
				C310.815,186.61,318.316,193.2,326.957,193.2z"/>
			<path d="M326.957,197.2c-6.379,0-12.028-2.878-14.744-7.512c-2.542-4.335-2.3-9.654,0.68-14.975
				c1.128-2.015,2.683-3.793,4.331-5.676c2.162-2.472,4.398-5.027,6.149-8.562c0.563-1.136,1.631-1.938,2.879-2.162
				c1.248-0.225,2.529,0.158,3.451,1.029c11.482,10.84,15.748,20.251,12.679,27.972C339.672,194.133,331.73,197.2,326.957,197.2z
				 M327.746,168.72c-1.531,2.19-3.119,4.005-4.5,5.585c-1.424,1.627-2.653,3.032-3.372,4.317c-1.086,1.94-2.1,4.733-0.759,7.021
				c1.267,2.161,4.345,3.557,7.843,3.557c1.727,0,6.64-1.44,7.991-4.84C336.361,180.805,333.756,175.226,327.746,168.72z"/>
		</g>
		<g>
			<path fill="#FFFFFF" d="M278.915,206.799c5.948,0,24.581-7.745,0-30.951c-3.369,6.8-8.331,10.409-10.575,14.417
				C262.772,200.208,270.273,206.799,278.915,206.799z"/>
			<path d="M278.915,210.799c-6.379,0-12.029-2.879-14.745-7.513c-2.541-4.335-2.3-9.654,0.68-14.975
				c1.128-2.014,2.684-3.793,4.331-5.676c2.163-2.472,4.399-5.028,6.15-8.563c0.563-1.136,1.631-1.938,2.879-2.162
				c1.248-0.224,2.528,0.159,3.451,1.029c11.482,10.84,15.748,20.251,12.679,27.973
				C291.629,207.731,283.688,210.799,278.915,210.799z M279.703,182.317c-1.531,2.19-3.119,4.005-4.501,5.585
				c-1.423,1.627-2.653,3.032-3.372,4.317c-1.086,1.94-2.1,4.732-0.758,7.021c1.267,2.162,4.345,3.558,7.843,3.558
				c1.727,0,6.639-1.44,7.99-4.841C288.318,194.402,285.714,188.823,279.703,182.317z"/>
		</g>
		<g>
			<path fill="#FFFFFF" d="M225.288,209.885c5.947,0,24.58-7.744,0-30.95c-3.369,6.799-8.332,10.409-10.575,14.417
				C209.146,203.294,216.646,209.885,225.288,209.885z"/>
			<path d="M225.288,213.885c-6.379,0-12.029-2.878-14.745-7.512c-2.542-4.335-2.3-9.654,0.679-14.975
				c1.128-2.015,2.684-3.794,4.332-5.678c2.163-2.472,4.398-5.027,6.15-8.561c0.563-1.136,1.631-1.938,2.879-2.162
				c1.248-0.224,2.528,0.159,3.451,1.029c11.481,10.84,15.747,20.251,12.678,27.973
				C238.001,210.818,230.061,213.885,225.288,213.885z M226.076,185.403c-1.531,2.189-3.119,4.004-4.501,5.584
				c-1.423,1.627-2.653,3.033-3.372,4.318c-1.087,1.94-2.1,4.733-0.758,7.022c1.267,2.161,4.346,3.558,7.843,3.558
				c1.726,0,6.638-1.44,7.99-4.841C234.69,197.488,232.086,191.909,226.076,185.403z"/>
		</g>
		<g>
			<path fill="#FFFFFF" d="M173.841,208.675c5.949,0,24.58-7.743,0-30.949c-3.368,6.8-8.331,10.409-10.575,14.417
				C157.699,202.085,165.2,208.675,173.841,208.675z"/>
			<path d="M173.841,212.675c-6.379,0-12.029-2.878-14.745-7.512c-2.541-4.335-2.3-9.653,0.68-14.975
				c1.128-2.014,2.684-3.793,4.331-5.675c2.163-2.472,4.399-5.028,6.15-8.563c0.563-1.136,1.631-1.938,2.879-2.162
				c1.249-0.224,2.529,0.159,3.451,1.029c11.481,10.84,15.748,20.251,12.679,27.973
				C186.555,209.608,178.614,212.675,173.841,212.675z M174.629,184.195c-1.532,2.19-3.12,4.006-4.502,5.586
				c-1.423,1.626-2.652,3.032-3.372,4.316c-1.086,1.94-2.1,4.732-0.758,7.021c1.267,2.161,4.345,3.558,7.843,3.558
				c1.727,0,6.639-1.44,7.99-4.84C183.244,196.279,180.64,190.701,174.629,184.195z"/>
		</g>
	</g>
	<g id="rde훾a7bela_copy_3" display="inline">
	</g>
	<path display="inline" d="M15903.492,8195.27h-16737v-13953h16737V8195.27z M-833.008,8194.27h16736l-0.5-13951h-16735.5l0.5,13951
		H-833.008z"/>
</g>
<g id="linijsko" display="none">
	<g display="inline">
		<path fill="none" stroke="#000000" stroke-width="8" stroke-linecap="round" stroke-linejoin="round" stroke-miterlimit="10" d="
			M365.064,186.283c0,0,0,76.223,0,98.608c0,22.387-61.916,40.534-138.293,40.534S88.479,307.278,88.479,284.892
			c0-22.386,0-98.608,0-98.608"/>
		<path fill="none" stroke="#000000" stroke-width="8" stroke-linecap="round" stroke-linejoin="round" stroke-miterlimit="10" d="
			M226.771,260.549c-76.377,0-138.293-18.148-138.293-40.534c0,12.547,0,23.746,0,30.312c0,22.387,61.916,40.534,138.293,40.534
			s138.293-18.147,138.293-40.534c0-6.565,0-17.765,0-30.312C365.064,242.4,303.148,260.549,226.771,260.549z"/>
		<path fill="none" stroke="#000000" stroke-width="8" stroke-linecap="round" stroke-linejoin="round" stroke-miterlimit="10" d="
			M122.456,188.315c5.948,0,24.581-7.744,0-30.949c-3.369,6.799-8.331,10.409-10.575,14.417
			C106.313,181.725,113.814,188.315,122.456,188.315z"/>
		<g>
			<path fill="none" stroke="#000000" stroke-width="8" stroke-linecap="round" stroke-linejoin="round" stroke-miterlimit="10" d="
				M180.242,148.104c12.42-1.301,25.657-2.098,39.429-2.302"/>
			<path fill="none" stroke="#000000" stroke-width="8" stroke-linecap="round" stroke-linejoin="round" stroke-miterlimit="10" d="
				M159.412,150.878c-42.316,6.932-70.934,20.188-70.934,35.405c0,22.387,61.916,40.535,138.293,40.535
				s138.293-18.148,138.293-40.535c0-14.506-26.006-27.23-65.093-34.393"/>
			<path fill="none" stroke="#000000" stroke-width="8" stroke-linecap="round" stroke-linejoin="round" stroke-miterlimit="10" d="
				M243.832,146.057c11.433,0.413,22.432,1.234,32.826,2.413"/>
			<path fill="none" stroke="#000000" stroke-width="8" stroke-linecap="round" stroke-linejoin="round" stroke-miterlimit="10" d="
				M159.412,150.878c-5.063,9.672,2.326,16.053,10.827,16.053c4.76,0,17.635-4.958,10.003-18.826"/>
			<path fill="none" stroke="#000000" stroke-width="8" stroke-linecap="round" stroke-linejoin="round" stroke-miterlimit="10" d="
				M159.412,150.878c0.084-0.16,0.162-0.318,0.252-0.479c2.244-4.008,7.207-7.618,10.575-14.417
				c4.914,4.639,8.097,8.658,10.003,12.123"/>
			<path fill="none" stroke="#000000" stroke-width="8" stroke-linecap="round" stroke-linejoin="round" stroke-miterlimit="10" d="
				M219.671,145.803c0.313-1.043,0.77-2.132,1.406-3.268c2.245-4.009,7.207-7.618,10.576-14.417
				c7.959,7.514,11.384,13.406,12.179,17.939"/>
			<path fill="none" stroke="#000000" stroke-width="8" stroke-linecap="round" stroke-linejoin="round" stroke-miterlimit="10" d="
				M219.671,145.803c-2.425,8.09,4.327,13.265,11.981,13.265c4.022,0,13.84-3.543,12.179-13.011"/>
			<path fill="none" stroke="#000000" stroke-width="8" stroke-linecap="round" stroke-linejoin="round" stroke-miterlimit="10" d="
				M299.972,151.891c-0.534-4.628-3.885-10.756-12.292-18.692c-3.367,6.8-8.33,10.409-10.574,14.417
				c-0.161,0.288-0.309,0.572-0.448,0.854"/>
			<path fill="none" stroke="#000000" stroke-width="8" stroke-linecap="round" stroke-linejoin="round" stroke-miterlimit="10" d="
				M276.658,148.47c-4.682,9.463,2.631,15.679,11.022,15.679c3.915,0,13.318-3.354,12.292-12.258"/>
		</g>
		<path fill="none" stroke="#000000" stroke-width="8" stroke-linecap="round" stroke-linejoin="round" stroke-miterlimit="10" d="
			M326.957,193.2c5.949,0,24.582-7.743,0-30.949c-3.368,6.799-8.33,10.409-10.574,14.417
			C310.815,186.61,318.316,193.2,326.957,193.2z"/>
		<path fill="none" stroke="#000000" stroke-width="8" stroke-linecap="round" stroke-linejoin="round" stroke-miterlimit="10" d="
			M278.915,206.799c5.948,0,24.581-7.745,0-30.951c-3.369,6.8-8.331,10.409-10.575,14.417
			C262.772,200.208,270.273,206.799,278.915,206.799z"/>
		<path fill="none" stroke="#000000" stroke-width="8" stroke-linecap="round" stroke-linejoin="round" stroke-miterlimit="10" d="
			M225.288,209.885c5.947,0,24.58-7.744,0-30.95c-3.369,6.799-8.332,10.409-10.575,14.417
			C209.146,203.294,216.646,209.885,225.288,209.885z"/>
		<path fill="none" stroke="#000000" stroke-width="8" stroke-linecap="round" stroke-linejoin="round" stroke-miterlimit="10" d="
			M173.841,208.675c5.949,0,24.58-7.743,0-30.949c-3.368,6.8-8.331,10.409-10.575,14.417
			C157.699,202.085,165.2,208.675,173.841,208.675z"/>
	</g>
	<g id="rde훾a7bela_copy" display="inline">
	</g>
</g>
<g id="pivot">
	<circle fill="none" cx="218.436" cy="318.77" r="14.133"/>
</g>
</svg>
