<?xml version="1.0" encoding="utf-8"?>
<!-- Generator: Adobe Illustrator 16.0.0, SVG Export Plug-In . SVG Version: 6.00 Build 0)  -->
<!DOCTYPE svg PUBLIC "-//W3C//DTD SVG 1.1//EN" "http://www.w3.org/Graphics/SVG/1.1/DTD/svg11.dtd">
<svg version="1.1" xmlns="http://www.w3.org/2000/svg" xmlns:xlink="http://www.w3.org/1999/xlink" x="0px" y="0px"
	 width="251.992px" height="251.992px" viewBox="0 0 251.992 251.992" enable-background="new 0 0 251.992 251.992"
	 xml:space="preserve">
<g id="bg">
	<rect fill="#57B3E6" width="251.992" height="251.992"/>
</g>
<g id="Layer_1">
	<g>
		
			<path fill="none" stroke="#010202" stroke-width="2.4" stroke-linecap="round" stroke-linejoin="round" stroke-miterlimit="10" d="
			M137.206,78.857c4.217,5.2,12.38,16.92,3.225,29.898"/>
		
			<path fill="none" stroke="#010202" stroke-width="2.4" stroke-linecap="round" stroke-linejoin="round" stroke-miterlimit="10" d="
			M169.677,101.762c-6.323-2.2-20.091-5.984-29.246,6.994"/>
		
			<path fill="#CC78A7" stroke="#010202" stroke-width="2.4" stroke-linecap="round" stroke-linejoin="round" stroke-miterlimit="10" d="
			M132.497,118.23c7.395-10.489,4.894-24.987-5.589-32.384c-10.492-7.4-24.992-4.892-32.391,5.592
			c-7.395,10.483-4.891,24.985,5.597,32.384c0.345,0.245,0.693,0.477,1.049,0.704c-5.334-0.741-10.887,1.445-14.205,6.161
			c-4.742,6.712-3.132,15.998,3.577,20.732c6.719,4.73,16.005,3.137,20.74-3.578C115.895,141.273,126.858,126.219,132.497,118.23z"
			/>
		
			<path fill="#CC78A7" stroke="#010202" stroke-width="2.4" stroke-linecap="round" stroke-linejoin="round" stroke-miterlimit="10" d="
			M172.638,146.546c7.398-10.482,4.893-24.979-5.598-32.38c-10.488-7.407-24.976-4.896-32.378,5.594
			c-5.63,7.978-16.146,23.362-20.771,29.922c-4.743,6.715-3.138,15.998,3.573,20.735c6.718,4.73,16.01,3.128,20.743-3.584
			c3.317-4.703,3.516-10.667,1.036-15.442c0.328,0.253,0.664,0.507,1.013,0.748C150.742,159.531,165.235,157.03,172.638,146.546z"/>
		
			<path fill="#7F4F25" stroke="#010202" stroke-width="2.4" stroke-linecap="round" stroke-linejoin="round" stroke-miterlimit="10" d="
			M103.171,162.793c3.409,2.398,12.435-9.405,12.435-9.405s22.592-32.019,24.584-34.845c2.473-3.507,7.13-10.159,3.137-12.985
			c-4.006-2.811-8.702,3.813-11.176,7.317c-1.997,2.829-24.588,34.837-24.588,34.837S99.766,160.387,103.171,162.793z"/>
	</g>
	
		<circle fill="none" stroke="#CC78A7" stroke-width="8" stroke-linecap="round" stroke-linejoin="round" stroke-miterlimit="10" cx="125.996" cy="125.996" r="108.438"/>
	
		<circle fill="none" stroke="#CC78A7" stroke-width="8" stroke-linecap="round" stroke-linejoin="round" stroke-miterlimit="10" cx="251.992" cy="251.992" r="108.438"/>
	
		<circle fill="none" stroke="#CC78A7" stroke-width="8" stroke-linecap="round" stroke-linejoin="round" stroke-miterlimit="10" cx="251.992" cy="0" r="108.438"/>
	
		<circle fill="none" stroke="#CC78A7" stroke-width="8" stroke-linecap="round" stroke-linejoin="round" stroke-miterlimit="10" cx="0" cy="251.992" r="108.438"/>
	
		<circle fill="none" stroke="#CC78A7" stroke-width="8" stroke-linecap="round" stroke-linejoin="round" stroke-miterlimit="10" cx="0" cy="0" r="108.438"/>
</g>
</svg>
