<?xml version="1.0" encoding="utf-8"?>
<!-- Generator: Adobe Illustrator 16.0.0, SVG Export Plug-In . SVG Version: 6.00 Build 0)  -->
<!DOCTYPE svg PUBLIC "-//W3C//DTD SVG 1.1//EN" "http://www.w3.org/Graphics/SVG/1.1/DTD/svg11.dtd">
<svg version="1.1" xmlns="http://www.w3.org/2000/svg" xmlns:xlink="http://www.w3.org/1999/xlink" x="0px" y="0px" width="220px"
	 height="220px" viewBox="0 0 220 220" enable-background="new 0 0 220 220" xml:space="preserve">
<g id="bg">
</g>
<g id="Layer_1">
	<g>
		<g>
			
				<polygon fill="#683C14" stroke="#010202" stroke-width="3.9482" stroke-linecap="round" stroke-linejoin="round" stroke-miterlimit="10" points="
				5.754,41.762 1.789,38.74 0.045,35.717 3.535,35.717 7.024,35.717 5.279,38.74 			"/>
			
				<polygon fill="#683C14" stroke="#010202" stroke-width="3.9482" stroke-linecap="round" stroke-linejoin="round" stroke-miterlimit="10" points="
				0.045,41.762 -1.701,38.74 -3.445,35.717 0.045,35.717 3.535,35.717 1.789,38.74 			"/>
			
				<polygon fill="#683C14" stroke="#010202" stroke-width="3.9482" stroke-linecap="round" stroke-linejoin="round" stroke-miterlimit="10" points="
				-5.665,41.762 -5.19,38.74 -6.935,35.717 -3.445,35.717 0.045,35.717 -1.701,38.74 			"/>
		</g>
		
			<path fill="#FFD009" stroke="#010202" stroke-width="2.4296" stroke-linecap="round" stroke-linejoin="round" stroke-miterlimit="10" d="
			M13.596-6.244C8.734-18.612,10.134-27.008,0-27.008c-10.136,0-8.735,8.396-13.596,20.764c-3.331,8.473-25.214,31.146,0,43.506
			C-4.698,40.97,0,39.981,0,39.981s4.696,0.988,13.596-2.72C38.81,24.902,16.925,2.229,13.596-6.244z"/>
		
			<path fill="none" stroke="#010202" stroke-width="1.8222" stroke-linecap="round" stroke-linejoin="round" stroke-miterlimit="10" d="
			M12.977,28.563c0,0,6.36-8.27-2.349-20.398"/>
	</g>
	<g>
		
			<path fill="#7F4F25" stroke="#010202" stroke-width="2.4296" stroke-linecap="round" stroke-linejoin="round" stroke-miterlimit="10" d="
			M3.644,180.895l-7.166,0.005l0.758,18.198h0.059c-0.002,0.153,0.021,0.307,0.071,0.457c0.27,0.808,1.232,1.213,2.148,0.905
			c0.673-0.226,1.132-0.772,1.223-1.367l0.043-0.001L3.644,180.895z"/>
		
			<path fill="#FFD009" stroke="#010202" stroke-width="2.4296" stroke-linecap="round" stroke-linejoin="round" stroke-miterlimit="10" d="
			M13.596,213.756C8.734,201.388,10.134,192.992,0,192.992c-10.136,0-8.735,8.396-13.596,20.764
			c-3.331,8.473-25.214,31.146,0,43.506C-4.698,260.97,0,259.981,0,259.981s4.696,0.988,13.596-2.72
			C38.81,244.902,16.925,222.229,13.596,213.756z"/>
	</g>
	<g>
		
			<path fill="#7F4F25" stroke="#010202" stroke-width="2.4296" stroke-linecap="round" stroke-linejoin="round" stroke-miterlimit="10" d="
			M4.729,68.238l-7.165,0.004l0.758,18.199h0.059c-0.003,0.153,0.021,0.307,0.07,0.457c0.271,0.808,1.233,1.213,2.149,0.905
			c0.673-0.226,1.132-0.772,1.222-1.367l0.043-0.001L4.729,68.238z"/>
		
			<ellipse fill="#432778" stroke="#010202" stroke-width="2.4296" stroke-linecap="round" stroke-linejoin="round" stroke-miterlimit="10" cx="6" cy="111.918" rx="19.771" ry="29.844"/>
		
			<path fill="#432778" stroke="#010202" stroke-width="2.4296" stroke-linecap="round" stroke-linejoin="round" stroke-miterlimit="10" d="
			M-13.668,111.918c0-13.295,5.76-24.559,13.719-28.418C-1.856,82.576-3.89,82.074-6,82.074c-10.92,0-19.771,13.361-19.771,29.844
			S-16.92,141.762-6,141.762c2.11,0,4.144-0.501,6.051-1.426C-7.908,136.477-13.668,125.214-13.668,111.918z"/>
	</g>
	<g>
		<g>
			
				<polygon fill="#683C14" stroke="#010202" stroke-width="3.9482" stroke-linecap="round" stroke-linejoin="round" stroke-miterlimit="10" points="
				225.755,41.762 221.79,38.74 220.046,35.717 223.536,35.717 227.025,35.717 225.28,38.74 			"/>
			
				<polygon fill="#683C14" stroke="#010202" stroke-width="3.9482" stroke-linecap="round" stroke-linejoin="round" stroke-miterlimit="10" points="
				220.046,41.762 218.299,38.74 216.556,35.717 220.046,35.717 223.536,35.717 221.79,38.74 			"/>
			
				<polygon fill="#683C14" stroke="#010202" stroke-width="3.9482" stroke-linecap="round" stroke-linejoin="round" stroke-miterlimit="10" points="
				214.335,41.762 214.811,38.74 213.065,35.717 216.556,35.717 220.046,35.717 218.299,38.74 			"/>
		</g>
		
			<path fill="#FFD009" stroke="#010202" stroke-width="2.4296" stroke-linecap="round" stroke-linejoin="round" stroke-miterlimit="10" d="
			M233.596-6.244c-4.861-12.368-3.46-20.764-13.596-20.764c-10.135,0-8.734,8.396-13.596,20.764c-3.33,8.473-25.214,31.146,0,43.506
			c8.899,3.708,13.596,2.72,13.596,2.72s4.697,0.988,13.596-2.72C258.81,24.902,236.927,2.229,233.596-6.244z"/>
	</g>
	<g>
		
			<path fill="#7F4F25" stroke="#010202" stroke-width="2.4296" stroke-linecap="round" stroke-linejoin="round" stroke-miterlimit="10" d="
			M223.644,180.895l-7.165,0.005l0.758,18.198h0.059c-0.002,0.153,0.021,0.307,0.07,0.457c0.271,0.808,1.233,1.213,2.149,0.905
			c0.673-0.226,1.132-0.772,1.222-1.367l0.043-0.001L223.644,180.895z"/>
		
			<path fill="#FFD009" stroke="#010202" stroke-width="2.4296" stroke-linecap="round" stroke-linejoin="round" stroke-miterlimit="10" d="
			M233.596,213.756c-4.861-12.368-3.46-20.764-13.596-20.764c-10.135,0-8.734,8.396-13.596,20.764
			c-3.33,8.473-25.214,31.146,0,43.506c8.899,3.708,13.596,2.72,13.596,2.72s4.697,0.988,13.596-2.72
			C258.81,244.902,236.927,222.229,233.596,213.756z"/>
	</g>
	<g>
		
			<path fill="#7F4F25" stroke="#010202" stroke-width="2.4296" stroke-linecap="round" stroke-linejoin="round" stroke-miterlimit="10" d="
			M224.73,68.238l-7.165,0.004l0.758,18.199h0.058c-0.002,0.153,0.021,0.307,0.071,0.457c0.271,0.808,1.232,1.213,2.148,0.905
			c0.673-0.226,1.133-0.772,1.223-1.367l0.043-0.001L224.73,68.238z"/>
		
			<ellipse fill="#432778" stroke="#010202" stroke-width="2.4296" stroke-linecap="round" stroke-linejoin="round" stroke-miterlimit="10" cx="226.001" cy="111.918" rx="19.771" ry="29.844"/>
		
			<path fill="#432778" stroke="#010202" stroke-width="2.4296" stroke-linecap="round" stroke-linejoin="round" stroke-miterlimit="10" d="
			M206.332,111.918c0-13.295,5.761-24.559,13.719-28.418c-1.907-0.924-3.94-1.426-6.051-1.426c-10.92,0-19.771,13.361-19.771,29.844
			s8.852,29.844,19.771,29.844c2.111,0,4.145-0.501,6.051-1.426C212.093,136.477,206.332,125.214,206.332,111.918z"/>
	</g>
	<g>
		
			<ellipse fill="#432778" stroke="#010202" stroke-width="2.4296" stroke-linecap="round" stroke-linejoin="round" stroke-miterlimit="10" cx="117.122" cy="1.918" rx="19.771" ry="29.844"/>
		
			<path fill="#432778" stroke="#010202" stroke-width="2.4296" stroke-linecap="round" stroke-linejoin="round" stroke-miterlimit="10" d="
			M97.453,1.918c0-13.295,5.761-24.559,13.72-28.418c-1.908-0.924-3.941-1.426-6.052-1.426c-10.92,0-19.771,13.361-19.771,29.844
			s8.852,29.844,19.771,29.844c2.111,0,4.144-0.501,6.052-1.426C103.214,26.477,97.453,15.214,97.453,1.918z"/>
	</g>
	<g>
		
			<path fill="#7F4F25" stroke="#010202" stroke-width="2.4296" stroke-linecap="round" stroke-linejoin="round" stroke-miterlimit="10" d="
			M115.851,178.238l-7.165,0.004l0.758,18.199h0.058c-0.002,0.153,0.021,0.307,0.07,0.457c0.271,0.808,1.233,1.213,2.149,0.905
			c0.673-0.226,1.132-0.772,1.222-1.367l0.043-0.001L115.851,178.238z"/>
		
			<ellipse fill="#432778" stroke="#010202" stroke-width="2.4296" stroke-linecap="round" stroke-linejoin="round" stroke-miterlimit="10" cx="117.122" cy="221.918" rx="19.771" ry="29.844"/>
		
			<path fill="#432778" stroke="#010202" stroke-width="2.4296" stroke-linecap="round" stroke-linejoin="round" stroke-miterlimit="10" d="
			M97.453,221.918c0-13.295,5.761-24.559,13.72-28.418c-1.908-0.924-3.941-1.426-6.052-1.426c-10.92,0-19.771,13.361-19.771,29.844
			s8.852,29.844,19.771,29.844c2.111,0,4.144-0.501,6.052-1.426C103.214,246.477,97.453,235.214,97.453,221.918z"/>
	</g>
	<g>
		
			<path fill="#7F4F25" stroke="#010202" stroke-width="2.4296" stroke-linecap="round" stroke-linejoin="round" stroke-miterlimit="10" d="
			M112.33,63.675l-7.166,0.006l0.758,18.197h0.059c-0.002,0.154,0.021,0.307,0.071,0.457c0.271,0.809,1.233,1.213,2.149,0.906
			c0.673-0.227,1.132-0.773,1.222-1.367l0.043-0.002L112.33,63.675z"/>
		<g>
			
				<polygon fill="#683C14" stroke="#010202" stroke-width="3.9482" stroke-linecap="round" stroke-linejoin="round" stroke-miterlimit="10" points="
				114.44,144.542 110.476,141.521 108.731,138.497 112.222,138.497 115.711,138.497 113.966,141.521 			"/>
			
				<polygon fill="#683C14" stroke="#010202" stroke-width="3.9482" stroke-linecap="round" stroke-linejoin="round" stroke-miterlimit="10" points="
				108.731,144.542 106.986,141.521 105.241,138.497 108.731,138.497 112.222,138.497 110.476,141.521 			"/>
			
				<polygon fill="#683C14" stroke="#010202" stroke-width="3.9482" stroke-linecap="round" stroke-linejoin="round" stroke-miterlimit="10" points="
				103.021,144.542 103.496,141.521 101.751,138.497 105.241,138.497 108.731,138.497 106.986,141.521 			"/>
		</g>
		
			<path fill="#FFD009" stroke="#010202" stroke-width="2.4296" stroke-linecap="round" stroke-linejoin="round" stroke-miterlimit="10" d="
			M122.281,96.536c-4.861-12.367-3.46-20.764-13.595-20.764c-10.136,0-8.735,8.396-13.596,20.764
			c-3.331,8.473-25.214,31.146,0,43.506c8.899,3.709,13.596,2.721,13.596,2.721s4.697,0.988,13.595-2.721
			C147.496,127.683,125.612,105.009,122.281,96.536z"/>
		
			<path fill="none" stroke="#010202" stroke-width="1.8222" stroke-linecap="round" stroke-linejoin="round" stroke-miterlimit="10" d="
			M121.663,131.343c0,0,6.36-8.27-2.349-20.398"/>
	</g>
	<circle fill="#CC78A7" stroke="#010202" stroke-width="2.4" stroke-miterlimit="10" cx="50" cy="50" r="15"/>
	<circle fill="#CC78A7" stroke="#010202" stroke-width="2.4" stroke-miterlimit="10" cx="50" cy="170" r="15"/>
	<circle fill="#CC78A7" stroke="#010202" stroke-width="2.4" stroke-miterlimit="10" cx="170" cy="50" r="15"/>
	<circle fill="#CC78A7" stroke="#010202" stroke-width="2.4" stroke-miterlimit="10" cx="170" cy="170" r="15"/>
</g>
</svg>
