<?xml version="1.0" encoding="utf-8"?>
<!-- Generator: Adobe Illustrator 16.0.0, SVG Export Plug-In . SVG Version: 6.00 Build 0)  -->
<!DOCTYPE svg PUBLIC "-//W3C//DTD SVG 1.1//EN" "http://www.w3.org/Graphics/SVG/1.1/DTD/svg11.dtd">
<svg version="1.1" xmlns="http://www.w3.org/2000/svg" xmlns:xlink="http://www.w3.org/1999/xlink" x="0px" y="0px" width="220px"
	 height="220px" viewBox="0 0 220 220" enable-background="new 0 0 220 220" xml:space="preserve">
<g id="bg">
</g>
<g id="Layer_1">
	<g>
		<g>
			
				<polygon fill="#683C14" stroke="#010202" stroke-width="3.9482" stroke-linecap="round" stroke-linejoin="round" stroke-miterlimit="10" points="
				5.754,41.762 1.789,38.74 0.045,35.717 3.535,35.717 7.024,35.717 5.279,38.74 			"/>
			
				<polygon fill="#683C14" stroke="#010202" stroke-width="3.9482" stroke-linecap="round" stroke-linejoin="round" stroke-miterlimit="10" points="
				0.045,41.762 -1.701,38.74 -3.445,35.717 0.045,35.717 3.535,35.717 1.789,38.74 			"/>
			
				<polygon fill="#683C14" stroke="#010202" stroke-width="3.9482" stroke-linecap="round" stroke-linejoin="round" stroke-miterlimit="10" points="
				-5.666,41.762 -5.191,38.74 -6.935,35.717 -3.445,35.717 0.045,35.717 -1.701,38.74 			"/>
		</g>
		
			<path fill="#FFD009" stroke="#010202" stroke-width="2.4296" stroke-linecap="round" stroke-linejoin="round" stroke-miterlimit="10" d="
			M13.595-6.244c-4.861-12.368-3.46-20.764-13.596-20.764c-10.135,0-8.734,8.396-13.595,20.764c-3.331,8.473-25.214,31.146,0,43.506
			c8.899,3.708,13.595,2.72,13.595,2.72s4.697,0.988,13.596-2.72C38.809,24.902,16.926,2.229,13.595-6.244z"/>
		
			<path fill="none" stroke="#010202" stroke-width="1.8222" stroke-linecap="round" stroke-linejoin="round" stroke-miterlimit="10" d="
			M12.976,28.563c0,0,6.36-8.27-2.349-20.398"/>
	</g>
	<g>
		
			<path fill="#7F4F25" stroke="#010202" stroke-width="2.4296" stroke-linecap="round" stroke-linejoin="round" stroke-miterlimit="10" d="
			M3.643,180.895l-7.166,0.005l0.758,18.198h0.059c-0.002,0.153,0.021,0.307,0.071,0.457c0.271,0.808,1.233,1.213,2.149,0.905
			c0.672-0.226,1.131-0.772,1.222-1.367l0.043-0.001L3.643,180.895z"/>
		
			<path fill="#FFD009" stroke="#010202" stroke-width="2.4296" stroke-linecap="round" stroke-linejoin="round" stroke-miterlimit="10" d="
			M13.595,213.756c-4.861-12.368-3.46-20.764-13.596-20.764c-10.135,0-8.734,8.396-13.595,20.764
			c-3.331,8.473-25.214,31.146,0,43.506c8.899,3.708,13.595,2.72,13.595,2.72s4.697,0.988,13.596-2.72
			C38.809,244.902,16.926,222.229,13.595,213.756z"/>
	</g>
	<g>
		
			<path fill="#7F4F25" stroke="#010202" stroke-width="2.4296" stroke-linecap="round" stroke-linejoin="round" stroke-miterlimit="10" d="
			M4.729,68.238l-7.165,0.004l0.758,18.199h0.058c-0.002,0.153,0.021,0.307,0.071,0.457c0.271,0.808,1.233,1.213,2.149,0.905
			c0.673-0.226,1.132-0.772,1.222-1.367l0.043-0.001L4.729,68.238z"/>
		
			<ellipse fill="#432778" stroke="#010202" stroke-width="2.4296" stroke-linecap="round" stroke-linejoin="round" stroke-miterlimit="10" cx="6" cy="111.918" rx="19.772" ry="29.844"/>
		
			<path fill="#432778" stroke="#010202" stroke-width="2.4296" stroke-linecap="round" stroke-linejoin="round" stroke-miterlimit="10" d="
			M-13.669,111.918c0-13.295,5.762-24.559,13.72-28.418c-1.908-0.924-3.941-1.426-6.052-1.426
			c-10.919,0-19.771,13.361-19.771,29.844s8.852,29.844,19.771,29.844c2.111,0,4.145-0.501,6.052-1.426
			C-7.907,136.477-13.669,125.214-13.669,111.918z"/>
	</g>
	<g>
		<g>
			
				<polygon fill="#683C14" stroke="#010202" stroke-width="3.9482" stroke-linecap="round" stroke-linejoin="round" stroke-miterlimit="10" points="
				225.754,41.762 221.789,38.74 220.045,35.717 223.536,35.717 227.025,35.717 225.28,38.74 			"/>
			
				<polygon fill="#683C14" stroke="#010202" stroke-width="3.9482" stroke-linecap="round" stroke-linejoin="round" stroke-miterlimit="10" points="
				220.045,41.762 218.3,38.74 216.555,35.717 220.045,35.717 223.536,35.717 221.789,38.74 			"/>
			
				<polygon fill="#683C14" stroke="#010202" stroke-width="3.9482" stroke-linecap="round" stroke-linejoin="round" stroke-miterlimit="10" points="
				214.335,41.762 214.81,38.74 213.065,35.717 216.555,35.717 220.045,35.717 218.3,38.74 			"/>
		</g>
		
			<path fill="#FFD009" stroke="#010202" stroke-width="2.4296" stroke-linecap="round" stroke-linejoin="round" stroke-miterlimit="10" d="
			M233.596-6.244c-4.861-12.368-3.46-20.764-13.596-20.764s-8.735,8.396-13.596,20.764c-3.331,8.473-25.214,31.146,0,43.506
			c8.899,3.708,13.596,2.72,13.596,2.72s4.697,0.988,13.596-2.72C258.809,24.902,236.926,2.229,233.596-6.244z"/>
	</g>
	<g>
		
			<path fill="#7F4F25" stroke="#010202" stroke-width="2.4296" stroke-linecap="round" stroke-linejoin="round" stroke-miterlimit="10" d="
			M223.644,180.895l-7.166,0.005l0.758,18.198h0.059c-0.002,0.153,0.021,0.307,0.071,0.457c0.271,0.808,1.233,1.213,2.149,0.905
			c0.673-0.226,1.132-0.772,1.222-1.367l0.043-0.001L223.644,180.895z"/>
		
			<path fill="#FFD009" stroke="#010202" stroke-width="2.4296" stroke-linecap="round" stroke-linejoin="round" stroke-miterlimit="10" d="
			M233.596,213.756c-4.861-12.368-3.46-20.764-13.596-20.764s-8.735,8.396-13.596,20.764c-3.331,8.473-25.214,31.146,0,43.506
			c8.899,3.708,13.596,2.72,13.596,2.72s4.697,0.988,13.596-2.72C258.809,244.902,236.926,222.229,233.596,213.756z"/>
	</g>
	<g>
		
			<path fill="#7F4F25" stroke="#010202" stroke-width="2.4296" stroke-linecap="round" stroke-linejoin="round" stroke-miterlimit="10" d="
			M224.73,68.238l-7.165,0.004l0.758,18.199h0.058c-0.002,0.153,0.021,0.307,0.071,0.457c0.271,0.808,1.232,1.213,2.149,0.905
			c0.673-0.226,1.132-0.772,1.222-1.367l0.043-0.001L224.73,68.238z"/>
		
			<ellipse fill="#432778" stroke="#010202" stroke-width="2.4296" stroke-linecap="round" stroke-linejoin="round" stroke-miterlimit="10" cx="226" cy="111.918" rx="19.771" ry="29.844"/>
		
			<path fill="#432778" stroke="#010202" stroke-width="2.4296" stroke-linecap="round" stroke-linejoin="round" stroke-miterlimit="10" d="
			M206.332,111.918c0-13.295,5.761-24.559,13.72-28.418c-1.908-0.924-3.941-1.426-6.052-1.426c-10.92,0-19.772,13.361-19.772,29.844
			s8.852,29.844,19.772,29.844c2.111,0,4.144-0.501,6.052-1.426C212.093,136.477,206.332,125.214,206.332,111.918z"/>
	</g>
	<g>
		
			<ellipse fill="#432778" stroke="#010202" stroke-width="2.4296" stroke-linecap="round" stroke-linejoin="round" stroke-miterlimit="10" cx="117.122" cy="1.918" rx="19.771" ry="29.844"/>
		
			<path fill="#432778" stroke="#010202" stroke-width="2.4296" stroke-linecap="round" stroke-linejoin="round" stroke-miterlimit="10" d="
			M97.453,1.918c0-13.295,5.761-24.559,13.72-28.418c-1.908-0.924-3.941-1.426-6.052-1.426c-10.92,0-19.771,13.361-19.771,29.844
			s8.852,29.844,19.771,29.844c2.111,0,4.144-0.501,6.052-1.426C103.214,26.477,97.453,15.214,97.453,1.918z"/>
	</g>
	<g>
		
			<path fill="#7F4F25" stroke="#010202" stroke-width="2.4296" stroke-linecap="round" stroke-linejoin="round" stroke-miterlimit="10" d="
			M115.851,178.238l-7.165,0.004l0.758,18.199h0.058c-0.003,0.153,0.021,0.307,0.071,0.457c0.271,0.808,1.233,1.213,2.149,0.905
			c0.672-0.226,1.132-0.772,1.222-1.367l0.043-0.001L115.851,178.238z"/>
		
			<ellipse fill="#432778" stroke="#010202" stroke-width="2.4296" stroke-linecap="round" stroke-linejoin="round" stroke-miterlimit="10" cx="117.122" cy="221.918" rx="19.771" ry="29.844"/>
		
			<path fill="#432778" stroke="#010202" stroke-width="2.4296" stroke-linecap="round" stroke-linejoin="round" stroke-miterlimit="10" d="
			M97.453,221.918c0-13.295,5.761-24.559,13.72-28.418c-1.908-0.924-3.941-1.426-6.052-1.426c-10.92,0-19.771,13.361-19.771,29.844
			s8.852,29.844,19.771,29.844c2.111,0,4.144-0.501,6.052-1.426C103.214,246.477,97.453,235.214,97.453,221.918z"/>
	</g>
	<g>
		
			<path fill="#7F4F25" stroke="#010202" stroke-width="2.4296" stroke-linecap="round" stroke-linejoin="round" stroke-miterlimit="10" d="
			M112.33,63.675l-7.166,0.006l0.758,18.197h0.059c-0.002,0.154,0.021,0.307,0.071,0.457c0.271,0.809,1.233,1.213,2.149,0.906
			c0.673-0.227,1.132-0.773,1.222-1.367l0.043-0.002L112.33,63.675z"/>
		<g>
			
				<polygon fill="#683C14" stroke="#010202" stroke-width="3.9482" stroke-linecap="round" stroke-linejoin="round" stroke-miterlimit="10" points="
				114.44,144.542 110.476,141.521 108.731,138.497 112.222,138.497 115.711,138.497 113.966,141.521 			"/>
			
				<polygon fill="#683C14" stroke="#010202" stroke-width="3.9482" stroke-linecap="round" stroke-linejoin="round" stroke-miterlimit="10" points="
				108.731,144.542 106.986,141.521 105.241,138.497 108.731,138.497 112.222,138.497 110.476,141.521 			"/>
			
				<polygon fill="#683C14" stroke="#010202" stroke-width="3.9482" stroke-linecap="round" stroke-linejoin="round" stroke-miterlimit="10" points="
				103.021,144.542 103.496,141.521 101.751,138.497 105.241,138.497 108.731,138.497 106.986,141.521 			"/>
		</g>
		
			<path fill="#FFD009" stroke="#010202" stroke-width="2.4296" stroke-linecap="round" stroke-linejoin="round" stroke-miterlimit="10" d="
			M122.282,96.536c-4.861-12.367-3.46-20.764-13.596-20.764s-8.735,8.396-13.596,20.764c-3.331,8.473-25.214,31.146,0,43.506
			c8.899,3.709,13.596,2.721,13.596,2.721s4.697,0.988,13.596-2.721C147.496,127.683,125.612,105.009,122.282,96.536z"/>
		
			<path fill="none" stroke="#010202" stroke-width="1.8222" stroke-linecap="round" stroke-linejoin="round" stroke-miterlimit="10" d="
			M121.663,131.343c0,0,6.36-8.27-2.349-20.398"/>
	</g>
	<rect x="35" y="35" fill="#CC78A7" stroke="#010202" stroke-width="2.4" stroke-miterlimit="10" width="30" height="30"/>
	<rect x="35" y="155" fill="#CC78A7" stroke="#010202" stroke-width="2.4" stroke-miterlimit="10" width="30" height="30"/>
	<rect x="155" y="155" fill="#CC78A7" stroke="#010202" stroke-width="2.4" stroke-miterlimit="10" width="30" height="30"/>
	<rect x="155" y="35" fill="#CC78A7" stroke="#010202" stroke-width="2.4" stroke-miterlimit="10" width="30" height="30"/>
</g>
</svg>
