<?xml version="1.0" encoding="utf-8"?>
<!-- Generator: Adobe Illustrator 16.0.0, SVG Export Plug-In . SVG Version: 6.00 Build 0)  -->
<!DOCTYPE svg PUBLIC "-//W3C//DTD SVG 1.1//EN" "http://www.w3.org/Graphics/SVG/1.1/DTD/svg11.dtd">
<svg version="1.1" xmlns="http://www.w3.org/2000/svg" xmlns:xlink="http://www.w3.org/1999/xlink" x="0px" y="0px" width="220px"
	 height="220px" viewBox="0 0 220 220" enable-background="new 0 0 220 220" xml:space="preserve">
<g id="bg">
</g>
<g id="Layer_1">
	<g>
		
			<ellipse fill="#432778" stroke="#010202" stroke-width="2.4296" stroke-linecap="round" stroke-linejoin="round" stroke-miterlimit="10" cx="7.122" cy="1.918" rx="19.771" ry="29.844"/>
		
			<path fill="#432778" stroke="#010202" stroke-width="2.4296" stroke-linecap="round" stroke-linejoin="round" stroke-miterlimit="10" d="
			M-12.547,1.918c0-13.295,5.761-24.559,13.72-28.418c-1.908-0.924-3.941-1.426-6.052-1.426c-10.92,0-19.771,13.361-19.771,29.844
			s8.852,29.844,19.771,29.844c2.111,0,4.144-0.501,6.052-1.426C-6.786,26.477-12.547,15.214-12.547,1.918z"/>
	</g>
	<g>
		<g>
			
				<polygon fill="#683C14" stroke="#010202" stroke-width="3.9482" stroke-linecap="round" stroke-linejoin="round" stroke-miterlimit="10" points="
				115.754,41.762 111.79,38.74 110.045,35.717 113.536,35.717 117.025,35.717 115.28,38.74 			"/>
			
				<polygon fill="#683C14" stroke="#010202" stroke-width="3.9482" stroke-linecap="round" stroke-linejoin="round" stroke-miterlimit="10" points="
				110.045,41.762 108.299,38.74 106.555,35.717 110.045,35.717 113.536,35.717 111.79,38.74 			"/>
			
				<polygon fill="#683C14" stroke="#010202" stroke-width="3.9482" stroke-linecap="round" stroke-linejoin="round" stroke-miterlimit="10" points="
				104.334,41.762 104.81,38.74 103.065,35.717 106.555,35.717 110.045,35.717 108.299,38.74 			"/>
		</g>
		
			<path fill="#FFD009" stroke="#010202" stroke-width="2.4296" stroke-linecap="round" stroke-linejoin="round" stroke-miterlimit="10" d="
			M123.595-6.244c-4.861-12.368-3.46-20.764-13.596-20.764c-10.135,0-8.734,8.396-13.596,20.764c-3.33,8.473-25.214,31.146,0,43.506
			c8.899,3.708,13.596,2.72,13.596,2.72s4.697,0.988,13.596-2.72C148.809,24.902,126.926,2.229,123.595-6.244z"/>
		
			<path fill="none" stroke="#010202" stroke-width="1.8222" stroke-linecap="round" stroke-linejoin="round" stroke-miterlimit="10" d="
			M122.977,28.563c0,0,6.359-8.27-2.35-20.398"/>
	</g>
	<g>
		
			<path fill="#7F4F25" stroke="#010202" stroke-width="2.4296" stroke-linecap="round" stroke-linejoin="round" stroke-miterlimit="10" d="
			M113.643,63.675l-7.165,0.005l0.758,18.198h0.059c-0.002,0.153,0.021,0.307,0.07,0.457c0.271,0.808,1.233,1.213,2.149,0.905
			c0.673-0.226,1.132-0.772,1.222-1.367l0.043-0.001L113.643,63.675z"/>
		<g>
			
				<polygon fill="#683C14" stroke="#010202" stroke-width="3.9482" stroke-linecap="round" stroke-linejoin="round" stroke-miterlimit="10" points="
				115.754,144.542 111.79,141.521 110.045,138.497 113.536,138.497 117.025,138.497 115.28,141.521 			"/>
			
				<polygon fill="#683C14" stroke="#010202" stroke-width="3.9482" stroke-linecap="round" stroke-linejoin="round" stroke-miterlimit="10" points="
				110.045,144.542 108.299,141.521 106.555,138.497 110.045,138.497 113.536,138.497 111.79,141.521 			"/>
			
				<polygon fill="#683C14" stroke="#010202" stroke-width="3.9482" stroke-linecap="round" stroke-linejoin="round" stroke-miterlimit="10" points="
				104.334,144.542 104.81,141.521 103.065,138.497 106.555,138.497 110.045,138.497 108.299,141.521 			"/>
		</g>
		
			<path fill="#FFD009" stroke="#010202" stroke-width="2.4296" stroke-linecap="round" stroke-linejoin="round" stroke-miterlimit="10" d="
			M123.595,96.536c-4.861-12.368-3.46-20.764-13.596-20.764c-10.135,0-8.734,8.396-13.596,20.764
			c-3.33,8.473-25.214,31.146,0,43.506c8.899,3.708,13.596,2.72,13.596,2.72s4.697,0.988,13.596-2.72
			C148.809,127.683,126.926,105.009,123.595,96.536z"/>
		
			<path fill="none" stroke="#010202" stroke-width="1.8222" stroke-linecap="round" stroke-linejoin="round" stroke-miterlimit="10" d="
			M122.977,131.343c0,0,6.359-8.27-2.35-20.398"/>
	</g>
	<g>
		
			<path fill="#7F4F25" stroke="#010202" stroke-width="2.4296" stroke-linecap="round" stroke-linejoin="round" stroke-miterlimit="10" d="
			M2.33,63.675l-7.166,0.006l0.758,18.197h0.059c-0.002,0.154,0.021,0.307,0.071,0.457c0.271,0.809,1.233,1.213,2.149,0.906
			c0.673-0.227,1.132-0.773,1.222-1.367l0.043-0.002L2.33,63.675z"/>
		<g>
			
				<polygon fill="#683C14" stroke="#010202" stroke-width="3.9482" stroke-linecap="round" stroke-linejoin="round" stroke-miterlimit="10" points="
				4.44,144.542 0.476,141.521 -1.269,138.497 2.222,138.497 5.711,138.497 3.966,141.521 			"/>
			
				<polygon fill="#683C14" stroke="#010202" stroke-width="3.9482" stroke-linecap="round" stroke-linejoin="round" stroke-miterlimit="10" points="
				-1.269,144.542 -3.014,141.521 -4.759,138.497 -1.269,138.497 2.222,138.497 0.476,141.521 			"/>
			
				<polygon fill="#683C14" stroke="#010202" stroke-width="3.9482" stroke-linecap="round" stroke-linejoin="round" stroke-miterlimit="10" points="
				-6.979,144.542 -6.504,141.521 -8.249,138.497 -4.759,138.497 -1.269,138.497 -3.014,141.521 			"/>
		</g>
		
			<path fill="#FFD009" stroke="#010202" stroke-width="2.4296" stroke-linecap="round" stroke-linejoin="round" stroke-miterlimit="10" d="
			M12.282,96.536C7.42,84.169,8.821,75.772-1.314,75.772c-10.135,0-8.735,8.396-13.596,20.764c-3.33,8.473-25.213,31.146,0,43.506
			c8.899,3.709,13.596,2.721,13.596,2.721s4.697,0.988,13.596-2.721C37.496,127.683,15.612,105.009,12.282,96.536z"/>
		
			<path fill="none" stroke="#010202" stroke-width="1.8222" stroke-linecap="round" stroke-linejoin="round" stroke-miterlimit="10" d="
			M11.663,131.343c0,0,6.36-8.27-2.349-20.398"/>
	</g>
	<g>
		
			<ellipse fill="#432778" stroke="#010202" stroke-width="2.4296" stroke-linecap="round" stroke-linejoin="round" stroke-miterlimit="10" cx="227.122" cy="1.918" rx="19.771" ry="29.844"/>
		
			<path fill="#432778" stroke="#010202" stroke-width="2.4296" stroke-linecap="round" stroke-linejoin="round" stroke-miterlimit="10" d="
			M207.453,1.918c0-13.295,5.761-24.559,13.72-28.418c-1.908-0.924-3.941-1.426-6.052-1.426c-10.92,0-19.771,13.361-19.771,29.844
			s8.852,29.844,19.771,29.844c2.111,0,4.144-0.501,6.052-1.426C213.214,26.477,207.453,15.214,207.453,1.918z"/>
	</g>
	<g>
		
			<path fill="#7F4F25" stroke="#010202" stroke-width="2.4296" stroke-linecap="round" stroke-linejoin="round" stroke-miterlimit="10" d="
			M5.851,178.238l-7.165,0.004l0.758,18.199h0.058c-0.002,0.153,0.021,0.307,0.071,0.457c0.271,0.808,1.233,1.213,2.149,0.905
			c0.673-0.226,1.132-0.772,1.222-1.367l0.043-0.001L5.851,178.238z"/>
		
			<ellipse fill="#432778" stroke="#010202" stroke-width="2.4296" stroke-linecap="round" stroke-linejoin="round" stroke-miterlimit="10" cx="7.122" cy="221.918" rx="19.771" ry="29.844"/>
		
			<path fill="#432778" stroke="#010202" stroke-width="2.4296" stroke-linecap="round" stroke-linejoin="round" stroke-miterlimit="10" d="
			M-12.547,221.918c0-13.295,5.761-24.559,13.72-28.418c-1.908-0.924-3.941-1.426-6.052-1.426c-10.92,0-19.771,13.361-19.771,29.844
			s8.852,29.844,19.771,29.844c2.111,0,4.144-0.501,6.052-1.426C-6.786,246.477-12.547,235.214-12.547,221.918z"/>
	</g>
	<g>
		
			<path fill="#7F4F25" stroke="#010202" stroke-width="2.4296" stroke-linecap="round" stroke-linejoin="round" stroke-miterlimit="10" d="
			M113.643,180.895l-7.165,0.005l0.758,18.198h0.059c-0.002,0.153,0.021,0.307,0.07,0.457c0.271,0.808,1.233,1.213,2.149,0.905
			c0.673-0.226,1.132-0.772,1.222-1.367l0.043-0.001L113.643,180.895z"/>
		
			<path fill="#FFD009" stroke="#010202" stroke-width="2.4296" stroke-linecap="round" stroke-linejoin="round" stroke-miterlimit="10" d="
			M123.595,213.756c-4.861-12.368-3.46-20.764-13.596-20.764c-10.135,0-8.734,8.396-13.596,20.764
			c-3.33,8.473-25.214,31.146,0,43.506c8.899,3.708,13.596,2.72,13.596,2.72s4.697,0.988,13.596-2.72
			C148.809,244.902,126.926,222.229,123.595,213.756z"/>
	</g>
	<g>
		
			<path fill="#7F4F25" stroke="#010202" stroke-width="2.4296" stroke-linecap="round" stroke-linejoin="round" stroke-miterlimit="10" d="
			M225.851,178.238l-7.165,0.004l0.758,18.199h0.058c-0.002,0.153,0.021,0.307,0.071,0.457c0.271,0.808,1.233,1.213,2.149,0.905
			c0.673-0.226,1.132-0.772,1.222-1.367l0.043-0.001L225.851,178.238z"/>
		
			<ellipse fill="#432778" stroke="#010202" stroke-width="2.4296" stroke-linecap="round" stroke-linejoin="round" stroke-miterlimit="10" cx="227.122" cy="221.918" rx="19.771" ry="29.844"/>
		
			<path fill="#432778" stroke="#010202" stroke-width="2.4296" stroke-linecap="round" stroke-linejoin="round" stroke-miterlimit="10" d="
			M207.453,221.918c0-13.295,5.761-24.559,13.72-28.418c-1.908-0.924-3.941-1.426-6.052-1.426c-10.92,0-19.771,13.361-19.771,29.844
			s8.852,29.844,19.771,29.844c2.111,0,4.144-0.501,6.052-1.426C213.214,246.477,207.453,235.214,207.453,221.918z"/>
	</g>
	<g>
		
			<path fill="#7F4F25" stroke="#010202" stroke-width="2.4296" stroke-linecap="round" stroke-linejoin="round" stroke-miterlimit="10" d="
			M222.33,63.675l-7.166,0.006l0.758,18.197h0.059c-0.002,0.154,0.021,0.307,0.071,0.457c0.271,0.809,1.233,1.213,2.149,0.906
			c0.673-0.227,1.132-0.773,1.222-1.367l0.043-0.002L222.33,63.675z"/>
		<g>
			
				<polygon fill="#683C14" stroke="#010202" stroke-width="3.9482" stroke-linecap="round" stroke-linejoin="round" stroke-miterlimit="10" points="
				224.44,144.542 220.476,141.521 218.731,138.497 222.222,138.497 225.711,138.497 223.966,141.521 			"/>
			
				<polygon fill="#683C14" stroke="#010202" stroke-width="3.9482" stroke-linecap="round" stroke-linejoin="round" stroke-miterlimit="10" points="
				218.731,144.542 216.986,141.521 215.241,138.497 218.731,138.497 222.222,138.497 220.476,141.521 			"/>
			
				<polygon fill="#683C14" stroke="#010202" stroke-width="3.9482" stroke-linecap="round" stroke-linejoin="round" stroke-miterlimit="10" points="
				213.021,144.542 213.496,141.521 211.751,138.497 215.241,138.497 218.731,138.497 216.986,141.521 			"/>
		</g>
		
			<path fill="#FFD009" stroke="#010202" stroke-width="2.4296" stroke-linecap="round" stroke-linejoin="round" stroke-miterlimit="10" d="
			M232.282,96.536c-4.861-12.367-3.461-20.764-13.596-20.764c-10.135,0-8.735,8.396-13.596,20.764
			c-3.33,8.473-25.213,31.146,0,43.506c8.899,3.709,13.596,2.721,13.596,2.721s4.697,0.988,13.596-2.721
			C257.496,127.683,235.612,105.009,232.282,96.536z"/>
	</g>
	<circle fill="#CC78A7" stroke="#010202" stroke-width="2.4" stroke-miterlimit="10" cx="50" cy="50" r="15"/>
	<circle fill="#CC78A7" stroke="#010202" stroke-width="2.4" stroke-miterlimit="10" cx="50" cy="170" r="15"/>
	<circle fill="#CC78A7" stroke="#010202" stroke-width="2.4" stroke-miterlimit="10" cx="170" cy="50" r="15"/>
	<circle fill="#CC78A7" stroke="#010202" stroke-width="2.4" stroke-miterlimit="10" cx="170" cy="170" r="15"/>
</g>
</svg>
