<?xml version="1.0" encoding="utf-8"?>
<!-- Generator: Adobe Illustrator 16.0.0, SVG Export Plug-In . SVG Version: 6.00 Build 0)  -->
<!DOCTYPE svg PUBLIC "-//W3C//DTD SVG 1.1//EN" "http://www.w3.org/Graphics/SVG/1.1/DTD/svg11.dtd">
<svg version="1.1" xmlns="http://www.w3.org/2000/svg" xmlns:xlink="http://www.w3.org/1999/xlink" x="0px" y="0px" width="220px"
	 height="220px" viewBox="0 0 220 220" enable-background="new 0 0 220 220" xml:space="preserve">
<g id="bg">
</g>
<g id="Layer_1">
	<g>
		<g>
			
				<polygon fill="#683C14" stroke="#010202" stroke-width="3.9482" stroke-linecap="round" stroke-linejoin="round" stroke-miterlimit="10" points="
				5.754,41.762 1.789,38.74 0.045,35.717 3.535,35.717 7.024,35.717 5.279,38.74 			"/>
			
				<polygon fill="#683C14" stroke="#010202" stroke-width="3.9482" stroke-linecap="round" stroke-linejoin="round" stroke-miterlimit="10" points="
				0.045,41.762 -1.701,38.74 -3.445,35.717 0.045,35.717 3.535,35.717 1.789,38.74 			"/>
			
				<polygon fill="#683C14" stroke="#010202" stroke-width="3.9482" stroke-linecap="round" stroke-linejoin="round" stroke-miterlimit="10" points="
				-5.666,41.762 -5.191,38.74 -6.935,35.717 -3.445,35.717 0.045,35.717 -1.701,38.74 			"/>
		</g>
		
			<path fill="#FFD009" stroke="#010202" stroke-width="2.4296" stroke-linecap="round" stroke-linejoin="round" stroke-miterlimit="10" d="
			M13.595-6.244C8.734-18.612,10.135-27.008,0-27.008s-8.735,8.396-13.596,20.764c-3.331,8.473-25.214,31.146,0,43.506
			C-4.697,40.97,0,39.981,0,39.981s4.697,0.988,13.596-2.72C38.809,24.902,16.926,2.229,13.595-6.244z"/>
		
			<path fill="none" stroke="#010202" stroke-width="1.8222" stroke-linecap="round" stroke-linejoin="round" stroke-miterlimit="10" d="
			M12.976,28.563c0,0,6.36-8.27-2.349-20.398"/>
	</g>
	<g>
		
			<path fill="#7F4F25" stroke="#010202" stroke-width="2.4296" stroke-linecap="round" stroke-linejoin="round" stroke-miterlimit="10" d="
			M3.643,180.895l-7.166,0.005l0.758,18.198h0.059c-0.002,0.153,0.021,0.307,0.071,0.457c0.271,0.808,1.233,1.213,2.149,0.905
			c0.672-0.226,1.132-0.772,1.222-1.367l0.043-0.001L3.643,180.895z"/>
		
			<path fill="#FFD009" stroke="#010202" stroke-width="2.4296" stroke-linecap="round" stroke-linejoin="round" stroke-miterlimit="10" d="
			M13.595,213.756C8.734,201.388,10.135,192.992,0,192.992s-8.735,8.396-13.596,20.764c-3.331,8.473-25.214,31.146,0,43.506
			C-4.697,260.97,0,259.981,0,259.981s4.697,0.988,13.596-2.72C38.809,244.902,16.926,222.229,13.595,213.756z"/>
	</g>
	<g>
		
			<path fill="#7F4F25" stroke="#010202" stroke-width="2.4296" stroke-linecap="round" stroke-linejoin="round" stroke-miterlimit="10" d="
			M4.729,68.238l-7.165,0.004l0.758,18.199h0.058c-0.002,0.153,0.021,0.307,0.071,0.457c0.271,0.808,1.233,1.213,2.149,0.905
			c0.673-0.226,1.132-0.772,1.222-1.367l0.043-0.001L4.729,68.238z"/>
		
			<ellipse fill="#432778" stroke="#010202" stroke-width="2.4296" stroke-linecap="round" stroke-linejoin="round" stroke-miterlimit="10" cx="6" cy="111.918" rx="19.772" ry="29.844"/>
		
			<path fill="#432778" stroke="#010202" stroke-width="2.4296" stroke-linecap="round" stroke-linejoin="round" stroke-miterlimit="10" d="
			M-13.669,111.918c0-13.295,5.762-24.559,13.72-28.418C-1.856,82.576-3.89,82.074-6,82.074c-10.92,0-19.771,13.361-19.771,29.844
			S-16.92,141.762-6,141.762c2.111,0,4.144-0.501,6.052-1.426C-7.907,136.477-13.669,125.214-13.669,111.918z"/>
	</g>
	<g>
		<g>
			
				<polygon fill="#683C14" stroke="#010202" stroke-width="3.9482" stroke-linecap="round" stroke-linejoin="round" stroke-miterlimit="10" points="
				225.754,41.762 221.789,38.74 220.045,35.717 223.536,35.717 227.025,35.717 225.28,38.74 			"/>
			
				<polygon fill="#683C14" stroke="#010202" stroke-width="3.9482" stroke-linecap="round" stroke-linejoin="round" stroke-miterlimit="10" points="
				220.045,41.762 218.3,38.74 216.555,35.717 220.045,35.717 223.536,35.717 221.789,38.74 			"/>
			
				<polygon fill="#683C14" stroke="#010202" stroke-width="3.9482" stroke-linecap="round" stroke-linejoin="round" stroke-miterlimit="10" points="
				214.335,41.762 214.81,38.74 213.065,35.717 216.555,35.717 220.045,35.717 218.3,38.74 			"/>
		</g>
		
			<path fill="#FFD009" stroke="#010202" stroke-width="2.4296" stroke-linecap="round" stroke-linejoin="round" stroke-miterlimit="10" d="
			M233.596-6.244c-4.861-12.368-3.46-20.764-13.596-20.764s-8.735,8.396-13.596,20.764c-3.331,8.473-25.214,31.146,0,43.506
			c8.899,3.708,13.596,2.72,13.596,2.72s4.697,0.988,13.596-2.72C258.809,24.902,236.926,2.229,233.596-6.244z"/>
	</g>
	<g>
		
			<path fill="#7F4F25" stroke="#010202" stroke-width="2.4296" stroke-linecap="round" stroke-linejoin="round" stroke-miterlimit="10" d="
			M223.644,180.895l-7.166,0.005l0.758,18.198h0.059c-0.002,0.153,0.021,0.307,0.071,0.457c0.271,0.808,1.233,1.213,2.149,0.905
			c0.673-0.226,1.132-0.772,1.222-1.367l0.043-0.001L223.644,180.895z"/>
		
			<path fill="#FFD009" stroke="#010202" stroke-width="2.4296" stroke-linecap="round" stroke-linejoin="round" stroke-miterlimit="10" d="
			M233.596,213.756c-4.861-12.368-3.46-20.764-13.596-20.764s-8.735,8.396-13.596,20.764c-3.331,8.473-25.214,31.146,0,43.506
			c8.899,3.708,13.596,2.72,13.596,2.72s4.697,0.988,13.596-2.72C258.809,244.902,236.926,222.229,233.596,213.756z"/>
	</g>
	<g>
		
			<path fill="#7F4F25" stroke="#010202" stroke-width="2.4296" stroke-linecap="round" stroke-linejoin="round" stroke-miterlimit="10" d="
			M224.73,68.238l-7.165,0.004l0.758,18.199h0.058c-0.002,0.153,0.021,0.307,0.071,0.457c0.271,0.808,1.232,1.213,2.149,0.905
			c0.673-0.226,1.132-0.772,1.222-1.367l0.043-0.001L224.73,68.238z"/>
		
			<ellipse fill="#432778" stroke="#010202" stroke-width="2.4296" stroke-linecap="round" stroke-linejoin="round" stroke-miterlimit="10" cx="226" cy="111.918" rx="19.771" ry="29.844"/>
		
			<path fill="#432778" stroke="#010202" stroke-width="2.4296" stroke-linecap="round" stroke-linejoin="round" stroke-miterlimit="10" d="
			M206.332,111.918c0-13.295,5.761-24.559,13.72-28.418c-1.908-0.924-3.941-1.426-6.052-1.426c-10.92,0-19.771,13.361-19.771,29.844
			s8.852,29.844,19.771,29.844c2.111,0,4.144-0.501,6.052-1.426C212.093,136.477,206.332,125.214,206.332,111.918z"/>
	</g>
	<g>
		
			<ellipse fill="#432778" stroke="#010202" stroke-width="2.4296" stroke-linecap="round" stroke-linejoin="round" stroke-miterlimit="10" cx="117.122" cy="1.918" rx="19.771" ry="29.844"/>
		
			<path fill="#432778" stroke="#010202" stroke-width="2.4296" stroke-linecap="round" stroke-linejoin="round" stroke-miterlimit="10" d="
			M97.453,1.918c0-13.295,5.761-24.559,13.72-28.418c-1.908-0.924-3.941-1.426-6.052-1.426c-10.92,0-19.771,13.361-19.771,29.844
			s8.852,29.844,19.771,29.844c2.111,0,4.144-0.501,6.052-1.426C103.214,26.477,97.453,15.214,97.453,1.918z"/>
	</g>
	<g>
		
			<path fill="#7F4F25" stroke="#010202" stroke-width="2.4296" stroke-linecap="round" stroke-linejoin="round" stroke-miterlimit="10" d="
			M115.851,68.238l-7.165,0.004l0.758,18.199h0.058c-0.002,0.153,0.021,0.307,0.071,0.457c0.271,0.808,1.233,1.213,2.149,0.905
			c0.672-0.226,1.132-0.772,1.222-1.367l0.043-0.001L115.851,68.238z"/>
		
			<ellipse fill="#432778" stroke="#010202" stroke-width="2.4296" stroke-linecap="round" stroke-linejoin="round" stroke-miterlimit="10" cx="117.122" cy="111.918" rx="19.771" ry="29.844"/>
		
			<path fill="#432778" stroke="#010202" stroke-width="2.4296" stroke-linecap="round" stroke-linejoin="round" stroke-miterlimit="10" d="
			M97.453,111.918c0-13.295,5.761-24.559,13.72-28.418c-1.908-0.924-3.941-1.426-6.052-1.426c-10.92,0-19.771,13.361-19.771,29.844
			s8.852,29.844,19.771,29.844c2.111,0,4.144-0.501,6.052-1.426C103.214,136.477,97.453,125.214,97.453,111.918z"/>
	</g>
	<g>
		
			<path fill="#7F4F25" stroke="#010202" stroke-width="2.4296" stroke-linecap="round" stroke-linejoin="round" stroke-miterlimit="10" d="
			M115.851,178.238l-7.165,0.004l0.758,18.199h0.058c-0.002,0.153,0.021,0.307,0.071,0.457c0.271,0.808,1.233,1.213,2.149,0.905
			c0.672-0.226,1.132-0.772,1.222-1.367l0.043-0.001L115.851,178.238z"/>
		
			<ellipse fill="#432778" stroke="#010202" stroke-width="2.4296" stroke-linecap="round" stroke-linejoin="round" stroke-miterlimit="10" cx="117.122" cy="221.918" rx="19.771" ry="29.844"/>
		
			<path fill="#432778" stroke="#010202" stroke-width="2.4296" stroke-linecap="round" stroke-linejoin="round" stroke-miterlimit="10" d="
			M97.453,221.918c0-13.295,5.761-24.559,13.72-28.418c-1.908-0.924-3.941-1.426-6.052-1.426c-10.92,0-19.771,13.361-19.771,29.844
			s8.852,29.844,19.771,29.844c2.111,0,4.144-0.501,6.052-1.426C103.214,246.477,97.453,235.214,97.453,221.918z"/>
	</g>
	<rect x="35" y="35" fill="#CC78A7" stroke="#010202" stroke-width="2.4" stroke-miterlimit="10" width="30" height="30"/>
	<rect x="35" y="155" fill="#CC78A7" stroke="#010202" stroke-width="2.4" stroke-miterlimit="10" width="30" height="30"/>
	<rect x="155" y="155" fill="#CC78A7" stroke="#010202" stroke-width="2.4" stroke-miterlimit="10" width="30" height="30"/>
	<rect x="155" y="35" fill="#CC78A7" stroke="#010202" stroke-width="2.4" stroke-miterlimit="10" width="30" height="30"/>
</g>
</svg>
