<?xml version="1.0" encoding="utf-8"?>
<!-- Generator: Adobe Illustrator 16.0.0, SVG Export Plug-In . SVG Version: 6.00 Build 0)  -->
<!DOCTYPE svg PUBLIC "-//W3C//DTD SVG 1.1//EN" "http://www.w3.org/Graphics/SVG/1.1/DTD/svg11.dtd">
<svg version="1.1" xmlns="http://www.w3.org/2000/svg" xmlns:xlink="http://www.w3.org/1999/xlink" x="0px" y="0px" width="250px"
	 height="250px" viewBox="0 0 250 250" enable-background="new 0 0 250 250" xml:space="preserve">
<g id="BG">
</g>
<g id="Layer_1">
	<g>
		<defs>
			<rect id="SVGID_1_" y="-600" width="250" height="250"/>
		</defs>
		<clipPath id="SVGID_2_">
			<use xlink:href="#SVGID_1_"  overflow="visible"/>
		</clipPath>
	</g>
	<g>
		<defs>
			<rect id="SVGID_25_" width="250" height="250"/>
		</defs>
		<clipPath id="SVGID_4_">
			<use xlink:href="#SVGID_25_"  overflow="visible"/>
		</clipPath>
		
			<rect x="-0.085" y="-4.194" clip-path="url(#SVGID_4_)" fill="#57B3E6" stroke="#010202" stroke-linecap="round" stroke-linejoin="round" stroke-miterlimit="10" width="251.993" height="59.082"/>
		
			<path clip-path="url(#SVGID_4_)" fill="#5B5D46" stroke="#010202" stroke-width="0.846" stroke-linecap="round" stroke-linejoin="round" stroke-miterlimit="10" d="
			M247.681,49.897c-4.229-0.064-8.336,0.017-12.127,0.215c-0.785-0.034-1.592-0.061-2.426-0.072
			c-0.105-0.002-0.213-0.002-0.318-0.003c-0.684-1.882-9.867-3.457-22.01-3.643c-3.41-0.052-6.723,0.012-9.787,0.169
			c-1.441-1.758-10.313-3.189-21.859-3.365c-12.266-0.188-23.254,1.107-26.039,2.963c-8.143-0.057-15.924,0.24-22.717,0.808
			c-6.799-0.567-14.576-0.864-22.723-0.808c-2.785-1.855-13.773-3.151-26.039-2.963c-11.545,0.176-20.418,1.607-21.859,3.365
			c-3.064-0.157-6.375-0.221-9.785-0.169c-12.145,0.186-21.326,1.761-22.014,3.643c-0.104,0.001-0.209,0.001-0.314,0.003
			c-0.836,0.012-1.643,0.038-2.428,0.072c-3.789-0.198-7.896-0.279-12.125-0.215c-16.367,0.251-28.365,2.566-26.795,5.175
			c1.57,2.607,16.111,4.519,32.479,4.269c1.037-0.016,2.059-0.039,3.061-0.072c0.34,0.062,0.693,0.117,1.07,0.158
			c22.605,2.488,72.805,1.26,90.955,0.982c5.957-0.092,11.523-0.365,16.518-0.782c4.99,0.417,10.557,0.69,16.514,0.782
			c18.15,0.277,68.35,1.506,90.953-0.982c0.377-0.041,0.73-0.097,1.072-0.158c1,0.033,2.021,0.057,3.059,0.072
			c16.367,0.25,30.908-1.661,32.477-4.269C276.044,52.464,264.05,50.148,247.681,49.897z"/>
		
			<rect x="-3.99" y="55.694" clip-path="url(#SVGID_4_)" fill="#CA9E67" stroke="#010202" stroke-linecap="round" stroke-linejoin="round" stroke-miterlimit="10" width="261.929" height="199.974"/>
		
			<path clip-path="url(#SVGID_4_)" fill="#683C11" stroke="#000000" stroke-linecap="round" stroke-linejoin="round" stroke-miterlimit="10" d="
			M57.27,35.137c-0.108,9.016-1.765,39.886-1.765,39.886l50.501,1.082c0,0-11.883-22.671-11.883-49.795
			c0-9.876-0.329-16.116-1.06-25.919c-0.699-9.416-3.131-19.371-3.587-29.064C88.809-42.877,58.128-53.81,57.679-47.036
			c-0.925,13.959-1.368,28.004-1.936,41.982C55.193,8.484,57.431,21.691,57.27,35.137z"/>
		
			<path clip-path="url(#SVGID_4_)" fill="#683C11" stroke="#000000" stroke-linecap="round" stroke-linejoin="round" stroke-miterlimit="10" d="
			M167.317,25.137c-0.107,9.016-0.01,18.246-1.765,26.978c-1.155,5.745-3.065,9.434,4.597,10.893
			c7.639,1.453,16.408,0.768,24.209,1.131c11.323,0.528,25.727,4.44,36.695,1.967c-2.592-8.247-9.696-15.22-14.059-22.677
			c-4.732-8.09-7.714-15.961-9.824-25.118c-2.219-9.623-3.328-18.116-4.059-27.919c-0.7-9.416-3.133-19.371-3.588-29.064
			c-0.668-14.203-31.349-25.136-31.797-18.362c-0.926,13.959-1.369,28.004-1.937,41.982
			C165.241-1.516,167.479,11.691,167.317,25.137z"/>
		<g clip-path="url(#SVGID_4_)">
			<g id="Layer_3_10_">
				<path fill="#CD7D10" stroke="#010202" stroke-linecap="round" stroke-linejoin="round" stroke-miterlimit="10" d="
					M-24.311,158.11c0.28,0.231,12.383,12.358,7.029,21.915c-1.776,5.488,2.869,8.348,4.577,5.875
					c1.143-1.646,3.855,0.121,3.591,2.236c-0.306,3.225-2.124,6.633-1.156,9.635c1.506,4.748,6.096,5.076,8.342,1.064
					c0.767-1.39,2.955-2.098,3.526-0.618c1.982,5.138,1.367,12.411,8.915,14.819c4.658,1.486,8.238-1.895,6.507-6.955
					c-0.453-1.852,1.785-2.546,3.958-0.708c2.063,1.481,4.24,2.627,6.217,3.356c8.661,3.235,15.514-7.258,5.511-11.537
					c-2.011-0.856-4.713-0.993-6.515-2.284c-1.965-1.43-2.577-2.861,0.002-4.148c4.604-2.308,4.193-6.958,1.267-9.599
					c-1.914-1.718-5.053-2.75-8.937-2.111c-2.018,0.313-5.53,0.772-7.518,1.082c-1.746,0.271-2.855-1.976-1.382-2.918
					c5.88-3.775,2.7-10.616-3.854-7.924c-1.679,0.682-2.809,1.545-4.305,2.248c-2.083,0.977-3.833-1.259-1.731-2.756
					c3.264-2.347,0.404-7.657-4.252-5.531c-3.809,1.728-7.421,3.512-9.514-0.291c-1.787-3.239-7.893-13.356-7.893-13.356
					L-24.311,158.11z"/>
			</g>
			<path fill="none" stroke="#010202" stroke-linecap="round" stroke-linejoin="round" stroke-miterlimit="10" d="M16.237,196.646
				c0,0-13.889-7.833-25.479-21.475"/>
		</g>
		<g clip-path="url(#SVGID_4_)">
			<g id="Layer_3_5_">
				<path fill="#D45F14" stroke="#010202" stroke-linecap="round" stroke-linejoin="round" stroke-miterlimit="10" d="
					M67.409,225.987c-0.326,0.067-15.785,1.649-19.451-7.588c-2.848-4.389-7.518-2.756-6.755-0.138
					c0.507,1.746-2.29,2.645-3.628,1.249c-2.098-2.059-3.456-5.291-6.122-6.326c-4.204-1.655-7.061,1.389-5.52,5.264
					c0.538,1.334-0.216,3.281-1.585,2.835c-4.749-1.542-9.518-6.136-15.531-2.2c-3.711,2.431-3.379,6.883,1.174,8.559
					c1.563,0.74,0.773,2.714-1.765,3.191c-2.223,0.606-4.274,1.483-5.92,2.457c-7.232,4.247-3.765,15.073,4.97,10.479
					c1.754-0.924,3.395-2.749,5.334-3.278c2.131-0.565,3.488-0.177,2.922,2.375c-1.011,4.562,2.498,6.932,6.033,6.383
					c2.304-0.365,4.824-1.984,6.596-5.083c0.934-1.601,2.621-4.336,3.54-5.913c0.808-1.384,3.022-0.88,2.843,0.697
					c-0.703,6.3,5.932,7.973,7.783,1.817c0.482-1.569,0.521-2.859,0.883-4.314c0.502-2.025,3.078-1.978,2.93,0.356
					c-0.218,3.642,5.158,4.666,6.324,0.173c0.964-3.671,1.773-7.235,5.648-6.532c3.301,0.595,13.918,2.084,13.918,2.084
					L67.409,225.987z"/>
			</g>
			<path fill="#D45F14" stroke="#010202" stroke-linecap="round" stroke-linejoin="round" stroke-miterlimit="10" d="
				M17.081,232.487c0,0,13.461-5.295,29.693-5.651"/>
		</g>
		<g clip-path="url(#SVGID_4_)">
			<g id="Layer_3_17_">
				<path fill="#683C11" stroke="#010202" stroke-linecap="round" stroke-linejoin="round" stroke-miterlimit="10" d="
					M19.387-15.258c0.182,0.114,7.876,6.945,5.014,12.862c-0.861,3.34,2.036,4.879,2.957,3.34c0.633-1.021,2.318-0.063,2.218,1.21
					c-0.067,1.948-1.029,4.05-0.33,5.82c1.075,2.775,3.838,2.81,5.027,0.329c0.409-0.86,1.688-1.371,2.084-0.494
					c1.384,2.99,1.29,7.372,5.887,8.531c2.844,0.727,4.858-1.425,3.635-4.397c-0.328-1.093,0.975-1.59,2.347-0.562
					c1.29,0.81,2.635,1.422,3.837,1.784c5.31,1.619,9.032-4.909,2.877-7.11c-1.223-0.447-2.844-0.431-3.966-1.126
					C49.75,4.137,49.32,3.311,50.805,2.45c2.682-1.553,2.265-4.331,0.417-5.803c-1.209-0.958-3.124-1.456-5.424-0.925
					c-1.188,0.245-3.292,0.659-4.448,0.907c-1.062,0.232-1.787-1.074-0.94-1.687c3.387-2.48,1.223-6.466-2.601-4.613
					c-0.988,0.48-1.621,1.024-2.494,1.505c-1.209,0.662-2.333-0.612-1.142-1.586c1.888-1.522-0.034-4.597-2.743-3.158
					c-2.217,1.172-4.32,2.382-5.705,0.181c-1.189-1.885-5.208-7.705-5.208-7.705L19.387-15.258z"/>
			</g>
			<path fill="#683C11" stroke="#010202" stroke-linecap="round" stroke-linejoin="round" stroke-miterlimit="10" d="M45.066,6.338
				c0,0-8.597-4.201-16.022-11.938"/>
		</g>
		<g clip-path="url(#SVGID_4_)">
			<g id="Layer_3_20_">
				<path fill="#683C11" stroke="#010202" stroke-linecap="round" stroke-linejoin="round" stroke-miterlimit="10" d="
					M164.513-17.028c-0.135,0.168-7.801,7.031-13.352,3.511c-3.22-1.237-5.08,1.465-3.656,2.556
					c0.942,0.746-0.202,2.311-1.455,2.064c-1.928-0.289-3.906-1.484-5.745-0.992c-2.88,0.75-3.229,3.491-0.901,4.956
					c0.808,0.505,1.169,1.834,0.252,2.127c-3.128,1.033-7.471,0.438-9.147,4.873c-1.047,2.741,0.86,4.989,3.952,4.114
					c1.124-0.201,1.469,1.148,0.29,2.395c-0.952,1.189-1.714,2.455-2.211,3.607c-2.216,5.09,3.845,9.535,6.735,3.672
					c0.584-1.164,0.752-2.775,1.571-3.812c0.928-1.124,1.798-1.456,2.482,0.116c1.235,2.842,4.044,2.746,5.718,1.078
					c1.09-1.092,1.803-2.938,1.538-5.281c-0.107-1.21-0.278-3.347-0.393-4.523c-0.11-1.082,1.271-1.653,1.783-0.742
					c2.077,3.648,6.283,1.955,4.88-2.056c-0.364-1.037-0.832-1.728-1.209-2.65c-0.52-1.276,0.875-2.247,1.705-0.952
					c1.297,2.049,4.57,0.491,3.451-2.365c-0.91-2.336-1.872-4.564,0.473-5.688c2.009-0.967,8.25-4.293,8.25-4.293L164.513-17.028z"
					/>
			</g>
			<path fill="#683C11" stroke="#010202" stroke-linecap="round" stroke-linejoin="round" stroke-miterlimit="10" d="M140.122,6.015
				c0,0,5.156-8.061,13.691-14.553"/>
		</g>
		<g clip-path="url(#SVGID_4_)">
			<g id="Layer_3_15_">
				<path fill="#D45F14" stroke="#010202" stroke-linecap="round" stroke-linejoin="round" stroke-miterlimit="10" d="
					M185.835,204.758c-0.213,0.259-11.324,11.359-20.098,6.554c-5.035-1.58-7.65,2.672-5.386,4.209
					c1.515,1.028-0.104,3.51-2.044,3.283c-2.961-0.252-6.086-1.885-8.84-0.982c-4.351,1.403-4.647,5.586-0.967,7.602
					c1.272,0.689,1.925,2.674,0.567,3.205c-4.709,1.844-11.382,1.332-13.581,8.223c-1.361,4.252,1.744,7.486,6.385,5.875
					c1.696-0.429,2.338,1.604,0.652,3.598c-1.355,1.887-2.404,3.877-3.069,5.688c-2.962,7.901,6.673,14.069,10.585,4.933
					c0.785-1.836,0.908-4.301,2.09-5.948c1.308-1.798,2.621-2.365,3.806-0.03c2.119,4.18,6.385,3.771,8.807,1.086
					c1.569-1.752,2.518-4.617,1.925-8.15c-0.286-1.835-0.711-5.025-1-6.836c-0.246-1.586,1.81-2.611,2.678-1.274
					c3.469,5.325,9.74,2.376,7.263-3.571c-0.626-1.52-1.42-2.545-2.063-3.902c-0.897-1.887,1.15-3.498,2.527-1.592
					c2.154,2.954,7.021,0.315,5.067-3.914c-1.591-3.453-3.233-6.732,0.257-8.664c2.969-1.646,12.242-7.278,12.242-7.278
					L185.835,204.758z"/>
			</g>
			<path fill="#D45F14" stroke="#010202" stroke-linecap="round" stroke-linejoin="round" stroke-miterlimit="10" d="
				M150.524,241.944c0,0,7.173-12.697,19.674-23.346"/>
		</g>
		<g clip-path="url(#SVGID_4_)">
			<g id="Layer_3_12_">
				<path fill="#7D4E24" stroke="#010202" stroke-linecap="round" stroke-linejoin="round" stroke-miterlimit="10" d="
					M202.221,188.939c0.31,0.092,15.278,2.867,19.602-6.256c3.135-4.249,7.564-2.234,6.608,0.369
					c-0.637,1.739,2.022,2.863,3.441,1.545c2.214-1.938,3.799-5.122,6.486-5.977c4.236-1.366,6.781,1.944,4.968,5.771
					c-0.635,1.316-0.055,3.354,1.316,3.002c4.764-1.209,9.788-5.526,15.344-1.07c3.427,2.752,2.743,7.257-1.835,8.62
					c-1.586,0.635-0.973,2.703,1.468,3.38c2.121,0.783,4.053,1.831,5.579,2.945c6.723,4.86,2.469,15.618-5.693,10.284
					c-1.639-1.069-3.095-3.051-4.946-3.735c-2.033-0.735-3.392-0.442-3.044,2.193c0.622,4.718-2.995,6.867-6.403,6.04
					c-2.219-0.542-4.553-2.379-6.031-5.666c-0.786-1.697-2.21-4.608-2.979-6.281c-0.679-1.467-2.885-1.121-2.833,0.493
					c0.181,6.462-6.433,7.668-7.748,1.265c-0.343-1.632-0.277-2.946-0.514-4.454c-0.328-2.098-2.846-2.244-2.892,0.141
					c-0.08,3.721-5.41,4.359-6.188-0.302c-0.646-3.806-1.148-7.493-4.988-7.069c-3.273,0.357-13.759,1.073-13.759,1.073
					L202.221,188.939z"/>
			</g>
			<path fill="#7D4E24" stroke="#010202" stroke-linecap="round" stroke-linejoin="round" stroke-miterlimit="10" d="
				M250.838,199.342c0,0-12.718-6.399-28.541-7.985"/>
		</g>
		
			<path clip-path="url(#SVGID_4_)" fill="#5C6723" stroke="#010202" stroke-width="0.846" stroke-linecap="round" stroke-linejoin="round" stroke-miterlimit="10" d="
			M245.59,45.187c-1.749-0.129-3.449,0.032-5.018,0.427c-0.325-0.069-0.658-0.121-1.004-0.145c-0.044-0.004-0.088-0.004-0.132-0.005
			c-0.283-3.744-4.082-6.877-9.105-7.245c-1.412-0.104-2.782,0.023-4.051,0.335c-0.596-3.495-4.266-6.343-9.044-6.692
			c-5.075-0.375-9.621,2.203-10.773,5.893c-3.369-0.113-6.588,0.479-9.398,1.607c-2.813-1.129-6.031-1.721-9.402-1.607
			c-1.152-3.689-5.699-6.268-10.773-5.893c-4.777,0.35-8.448,3.197-9.045,6.692c-1.269-0.312-2.638-0.438-4.048-0.335
			c-5.026,0.368-8.824,3.501-9.109,7.245c-0.043,0.001-0.087,0.001-0.13,0.005c-0.347,0.023-0.68,0.075-1.004,0.145
			c-1.568-0.395-3.268-0.556-5.018-0.427c-6.771,0.498-11.736,5.104-11.086,10.29c0.65,5.186,6.665,8.988,13.438,8.49
			c0.43-0.03,0.853-0.077,1.267-0.144c0.141,0.123,0.287,0.232,0.442,0.315c9.353,4.948,30.123,2.505,37.633,1.954
			c2.465-0.184,4.769-0.728,6.836-1.558c2.063,0.83,4.367,1.374,6.831,1.558c7.51,0.551,28.28,2.994,37.633-1.954
			c0.156-0.083,0.302-0.192,0.444-0.315c0.412,0.066,0.835,0.113,1.265,0.144c6.772,0.498,12.788-3.305,13.438-8.49
			C257.325,50.29,252.363,45.685,245.59,45.187z"/>
		<g clip-path="url(#SVGID_4_)">
			<g id="Layer_3_2_">
				<path fill="#CD7D10" stroke="#010202" stroke-linecap="round" stroke-linejoin="round" stroke-miterlimit="10" d="
					M118.535,228.352c-0.259,0.205-13.327,8.615-20.776,2.039c-4.527-2.624-7.951,0.948-6.086,2.936
					c1.242,1.329-0.845,3.396-2.668,2.758c-2.804-0.888-5.477-3.153-8.326-2.87c-4.495,0.426-5.662,4.435-2.537,7.191
					c1.086,0.947,1.293,3.023-0.128,3.246c-4.933,0.776-11.266-1.163-14.845,5.07c-2.209,3.846,0.104,7.665,4.922,7.099
					c1.729-0.048,1.916,2.07-0.13,3.646c-1.706,1.546-3.139,3.257-4.165,4.871c-4.527,7.06,3.467,15.145,9.175,7.093
					c1.146-1.618,1.783-3.989,3.272-5.339c1.643-1.468,3.03-1.738,3.679,0.794c1.165,4.525,5.366,5.051,8.27,2.96
					c1.888-1.367,3.403-3.952,3.58-7.52c0.108-1.849,0.374-5.051,0.479-6.873c0.094-1.6,2.297-2.153,2.852-0.666
					c2.223,5.936,8.897,4.424,7.764-1.903c-0.283-1.618-0.832-2.784-1.17-4.245c-0.467-2.034,1.85-3.157,2.775-1.009
					c1.455,3.344,6.711,1.824,5.719-2.712c-0.805-3.707-1.697-7.253,2.078-8.381c3.213-0.964,13.354-4.442,13.354-4.442
					L118.535,228.352z"/>
			</g>
			<path fill="none" stroke="#010202" stroke-linecap="round" stroke-linejoin="round" stroke-miterlimit="10" d="M76.606,256.933
				c0,0,9.604-10.815,23.917-18.483"/>
		</g>
		
			<path clip-path="url(#SVGID_4_)" fill="#CBBBA0" stroke="#010202" stroke-linecap="round" stroke-linejoin="round" stroke-miterlimit="10" d="
			M137.765,192.997c-9.035,0.065-50.104,2.703-49.017,18.1c10.835,1.435,22.347,0.214,32.558-3.383
			c11.063-3.896,21.971-5.299,33.539-6.595c5.338-0.598,12.79-0.803,16.719-4.298c-5.13-8.253-18.033-6.029-26.451-6.029"/>
		<g clip-path="url(#SVGID_4_)">
			<path fill="#CBBBA0" stroke="#010202" stroke-linecap="round" stroke-linejoin="round" stroke-miterlimit="10" d="M45.136,86.514
				c0,0-18.703,0.455-26.643-9.544c1.557-3.295,7.424-6.476,10.791-10.534c3.367-4.057,4.6-7.557,4.6-7.557
				s10.619,0.598,12.978,11.22S45.136,86.514,45.136,86.514z"/>
			<path fill="#010202" stroke="#010202" stroke-linecap="round" stroke-linejoin="round" stroke-miterlimit="10" d="M23.823,81.498
				c0,0-3.285-0.96-5.612-3.288s-1.282-3.777-0.63-4.429c0.65-0.652,3.034-0.785,4.432,0.606
				C23.411,75.777,23.823,81.498,23.823,81.498z"/>
			<path fill="#432918" stroke="#010202" stroke-linecap="round" stroke-linejoin="round" stroke-miterlimit="10" d="M33.884,58.879
				l-3.611-6.778l5.076,3.398l-0.987-6.112l2.958,4.747l2.761-9.818l1.252,5.421l5.048-6.823l-0.838,4.814l7.77-7.553l-0.577,4.61
				l6.392-3.999l-1.871,4.645l8.711-3.926l-3.096,3.132l6.597-1.899l-2.15,2.368l8.921-1.503c0,0-2.701,3.194-2.188,3.247
				c0.512,0.057,7.937,0.145,7.937,0.145l-4.103,2.854l4.878-0.353l-2.528,2.675l8.188,1.034l-3.784,1.471l3.461,1.608l-4.24,2.49
				l5.881,1.656l-4.609,1.072l5.766,2.705l-2.797,1.93l2.35,2.321l-4.625,1.243l5.208,4.035l-3.804,2.337l3.82,3.136l-8.491,0.176
				l6.521,3.77l-7.183-0.757l1.05,1.523l-5.544,0.109l0.877,1.502l-8.207-0.864l4.18,3.008l-6.67-0.702l2.164,2.418l-9.949-2.371
				l0.033,1.33l-7.812-1.977l0.766,3.192l-6.03-3.745L44.9,88.738l0.235-2.225c0,0,2.502-6.335,0.365-14.829
				C43.368,63.19,33.884,58.879,33.884,58.879z"/>
			<g>
				
					<ellipse transform="matrix(0.9923 0.1237 -0.1237 0.9923 9.0869 -3.9871)" fill="#FFFFFF" stroke="#010202" stroke-linecap="round" stroke-linejoin="round" stroke-miterlimit="10" cx="36.642" cy="71.161" rx="2.423" ry="2.922"/>
				<path fill="#010202" stroke="#010202" stroke-linecap="round" stroke-linejoin="round" stroke-miterlimit="10" d="
					M35.009,72.366c-0.51-0.057-0.873-0.564-0.809-1.134c0.063-0.565,0.529-0.981,1.036-0.923c0.511,0.055,0.873,0.563,0.81,1.131
					C35.981,72.009,35.517,72.422,35.009,72.366z"/>
				<g>
					<path fill="none" stroke="#010202" stroke-linecap="round" stroke-linejoin="round" stroke-miterlimit="10" d="M36.365,68.293
						c0.161-0.268,0.239-0.641,0.188-1.042c-0.051-0.399-0.22-0.743-0.447-0.962"/>
				</g>
				<g>
					<path fill="none" stroke="#010202" stroke-linecap="round" stroke-linejoin="round" stroke-miterlimit="10" d="M37.874,68.312
						c0.162-0.269,0.239-0.641,0.188-1.04c-0.049-0.399-0.219-0.742-0.446-0.96"/>
				</g>
			</g>
			<g>
				<path fill="#7F4F25" stroke="#010202" stroke-linecap="round" stroke-linejoin="round" stroke-miterlimit="10" d="
					M68.601,46.211l-1.957-0.655l-1.465,5.041l0.017,0.006c-0.017,0.04-0.023,0.084-0.023,0.13c0,0.247,0.226,0.443,0.505,0.445
					c0.203,0,0.38-0.107,0.459-0.264l0.012,0.006L68.601,46.211z"/>
				<g>
					<polygon fill="#683C14" stroke="#010202" stroke-linecap="round" stroke-linejoin="round" stroke-miterlimit="10" points="
						61.753,68.493 60.946,67.303 60.747,66.317 61.702,66.638 62.653,66.957 61.899,67.623 					"/>
					<polygon fill="#683C14" stroke="#010202" stroke-linecap="round" stroke-linejoin="round" stroke-miterlimit="10" points="
						60.192,67.97 59.993,66.981 59.796,65.996 60.747,66.317 61.702,66.638 60.946,67.303 					"/>
					<polygon fill="#683C14" stroke="#010202" stroke-linecap="round" stroke-linejoin="round" stroke-miterlimit="10" points="
						58.632,67.443 59.04,66.662 58.841,65.677 59.796,65.996 60.747,66.317 59.993,66.981 					"/>
				</g>
				<path fill="#FFD009" stroke="#010202" stroke-linecap="round" stroke-linejoin="round" stroke-miterlimit="10" d="
					M68.302,56.102c-0.192-3.825,0.961-5.988-1.808-6.921c-2.768-0.93-3.156,1.492-5.618,4.424
					c-1.688,2.009-9.748,6.192-3.998,11.883c2.092,1.831,3.466,1.99,3.466,1.99s1.19,0.701,3.965,0.506
					C72.327,66.924,68.433,58.722,68.302,56.102z"/>
			</g>
			<polyline fill="#432918" stroke="#010202" stroke-linecap="round" stroke-linejoin="round" stroke-miterlimit="10" points="
				46.244,61.864 52.305,59.237 55.032,63.908 62.084,59.237 61.289,63.771 66.177,61.573 66.177,66.795 71.821,65.084 
				72.493,75.106 			"/>
		</g>
		<g clip-path="url(#SVGID_4_)">
			<path fill="#936037" stroke="#010202" stroke-linecap="round" stroke-linejoin="round" stroke-miterlimit="10" d="
				M254.195,149.699l-8.048-0.48l-5.843,5.556c0,0,1.011,3.215,2.781,5.578c1.768,2.362,4.119,1.755,5.666,1.672
				c1.66-0.091,2.143,0.186,2.143,0.186s0.189-0.521,1.518-1.523c1.235-0.933,3.424-1.984,3.255-4.931
				C255.496,152.809,254.195,149.699,254.195,149.699z"/>
			<path fill="#432918" stroke="#010202" stroke-linecap="round" stroke-linejoin="round" stroke-miterlimit="10" d="
				M244.829,145.609c-5.491,2.006-5.958,7.381-4.914,9.225c1.044,1.845,8.116-0.463,8.116-0.463s6.893-2.794,6.502-4.877
				S250.32,143.604,244.829,145.609z"/>
			<g>
				<path fill="#432918" stroke="#010202" stroke-linecap="round" stroke-linejoin="round" stroke-miterlimit="10" d="
					M244.822,146.942c0,0-0.148-1.76,0.993-2.919"/>
				<path fill="#432918" stroke="#010202" stroke-linecap="round" stroke-linejoin="round" stroke-miterlimit="10" d="
					M244.93,147.239c-0.025,0.01-0.053,0.015-0.083,0.018c-0.173,0.014-0.325-0.114-0.339-0.288
					c-0.008-0.078-0.148-1.919,1.082-3.168c0.123-0.124,0.322-0.126,0.447-0.003c0.124,0.123,0.127,0.323,0.005,0.447
					c-1.024,1.037-0.907,2.655-0.905,2.671C245.147,147.061,245.061,147.191,244.93,147.239z"/>
			</g>
		</g>
		<g clip-path="url(#SVGID_4_)">
			<path fill="#936037" stroke="#010202" stroke-linecap="round" stroke-linejoin="round" stroke-miterlimit="10" d="
				M207.802,227.646l-8.047-0.48l-5.844,5.556c0,0,1.012,3.215,2.781,5.578c1.768,2.362,4.119,1.755,5.666,1.672
				c1.66-0.091,2.143,0.186,2.143,0.186s0.189-0.521,1.518-1.523c1.236-0.933,3.424-1.984,3.255-4.931
				C209.103,230.755,207.802,227.646,207.802,227.646z"/>
			<path fill="#432918" stroke="#010202" stroke-linecap="round" stroke-linejoin="round" stroke-miterlimit="10" d="
				M198.437,223.556c-5.492,2.006-5.959,7.381-4.914,9.225c1.043,1.845,8.115-0.463,8.115-0.463s6.893-2.794,6.502-4.877
				S203.927,221.55,198.437,223.556z"/>
			<g>
				<path fill="#432918" stroke="#010202" stroke-linecap="round" stroke-linejoin="round" stroke-miterlimit="10" d="
					M198.429,224.889c0,0-0.148-1.76,0.994-2.919"/>
				<path fill="#432918" stroke="#010202" stroke-linecap="round" stroke-linejoin="round" stroke-miterlimit="10" d="
					M198.536,225.186c-0.025,0.01-0.053,0.015-0.082,0.018c-0.174,0.014-0.326-0.114-0.34-0.288
					c-0.008-0.078-0.148-1.919,1.082-3.168c0.123-0.124,0.322-0.126,0.447-0.003s0.127,0.323,0.004,0.447
					c-1.023,1.037-0.906,2.655-0.904,2.671C198.755,225.007,198.667,225.138,198.536,225.186z"/>
			</g>
		</g>
		<g clip-path="url(#SVGID_4_)">
			<path fill="#936037" stroke="#010202" stroke-linecap="round" stroke-linejoin="round" stroke-miterlimit="10" d="M30.7,144.563
				l-6.561-4.685l-7.903,1.6c0,0-0.852,3.261-0.609,6.203c0.242,2.94,2.557,3.676,3.91,4.428c1.455,0.806,1.717,1.297,1.717,1.297
				s0.438-0.342,2.096-0.484c1.543-0.133,3.954,0.14,5.377-2.445C30.147,147.888,30.7,144.563,30.7,144.563z"/>
			<path fill="#432918" stroke="#010202" stroke-linecap="round" stroke-linejoin="round" stroke-miterlimit="10" d="M24.941,136.12
				c-5.718-1.221-8.971,3.084-9.065,5.201c-0.097,2.117,7.12,3.922,7.12,3.922s7.322,1.297,8.099-0.674
				C31.871,142.597,30.658,137.34,24.941,136.12z"/>
			<g>
				<path fill="#432918" stroke="#010202" stroke-linecap="round" stroke-linejoin="round" stroke-miterlimit="10" d="
					M24.227,137.245c0,0,0.81-1.569,2.394-1.943"/>
				<path fill="#432918" stroke="#010202" stroke-linecap="round" stroke-linejoin="round" stroke-miterlimit="10" d="
					M24.16,137.554c-0.028-0.006-0.053-0.016-0.079-0.028c-0.154-0.081-0.216-0.271-0.135-0.425c0.035-0.07,0.895-1.705,2.6-2.108
					c0.171-0.04,0.341,0.064,0.382,0.235c0.04,0.171-0.064,0.342-0.234,0.381c-1.419,0.334-2.18,1.768-2.187,1.781
					C24.439,137.519,24.296,137.583,24.16,137.554z"/>
			</g>
		</g>
		<g clip-path="url(#SVGID_4_)">
			<path fill="#936037" stroke="#010202" stroke-linecap="round" stroke-linejoin="round" stroke-miterlimit="10" d="
				M75.819,229.228l-8.047-0.48l-5.844,5.556c0,0,1.012,3.215,2.781,5.578c1.768,2.362,4.119,1.755,5.666,1.672
				c1.66-0.091,2.143,0.186,2.143,0.186s0.189-0.521,1.518-1.523c1.236-0.933,3.424-1.984,3.255-4.931
				C77.12,232.337,75.819,229.228,75.819,229.228z"/>
			<path fill="#432918" stroke="#010202" stroke-linecap="round" stroke-linejoin="round" stroke-miterlimit="10" d="
				M66.454,225.138c-5.492,2.006-5.959,7.381-4.914,9.225c1.043,1.845,8.115-0.463,8.115-0.463s6.893-2.794,6.502-4.877
				S71.944,223.132,66.454,225.138z"/>
			<g>
				<path fill="#432918" stroke="#010202" stroke-linecap="round" stroke-linejoin="round" stroke-miterlimit="10" d="
					M66.446,226.471c0,0-0.148-1.76,0.994-2.919"/>
				<path fill="#432918" stroke="#010202" stroke-linecap="round" stroke-linejoin="round" stroke-miterlimit="10" d="
					M66.554,226.768c-0.025,0.01-0.053,0.015-0.082,0.018c-0.174,0.014-0.326-0.114-0.34-0.288
					c-0.008-0.078-0.148-1.919,1.082-3.168c0.123-0.124,0.322-0.126,0.447-0.003s0.127,0.323,0.004,0.447
					c-1.023,1.037-0.906,2.655-0.904,2.671C66.772,226.589,66.685,226.72,66.554,226.768z"/>
			</g>
		</g>
		
			<path clip-path="url(#SVGID_4_)" fill="#683C11" stroke="#000000" stroke-linecap="round" stroke-linejoin="round" stroke-miterlimit="10" d="
			M-7.412,83.352c0.263,7.569,0.706,15.312-0.425,22.708c-0.745,4.866-2.203,8.036,4.284,8.961
			c6.466,0.921,13.798,0.002,20.359,0.002c9.522,0,21.763,2.719,30.87,0.215c-2.496-6.82-8.732-12.393-12.684-18.48
			c-4.288-6.604-7.099-13.092-9.229-20.693c-2.238-7.989-3.502-15.072-4.497-23.271c-0.957-7.874-3.387-16.134-4.148-24.25
			C16.002,16.651,16.176,4.221,14.938-7.62c-0.474-4.533-1.226-9.029-1.826-13.545c-0.387-2.904,0.306-10.036-1.646-12.287
			C8.946-36.36-3.237-36.373-6.485-34.509c-3.971,2.277-2.09,11.629-2.09,15.928c0,5.395,0.018,10.787,0.005,16.181
			c-0.015,5.748-1.602,11.077-1.713,16.778c-0.229,11.751-0.053,23.554,0.018,35.307C-10.196,61.067-7.802,72.063-7.412,83.352z"/>
		<g clip-path="url(#SVGID_4_)">
			<g id="Layer_3_18_">
				<path fill="#CD7D10" stroke="#010202" stroke-linecap="round" stroke-linejoin="round" stroke-miterlimit="10" d="
					M187.364,250.98c0.328-0.032,15.572-3.053,16.366-12.959c1.437-5.03,6.381-4.838,6.417-2.113
					c0.03,1.818,2.969,1.856,3.836,0.131c1.402-2.584,1.751-6.071,3.998-7.845c3.531-2.814,7.156-0.742,6.82,3.414
					c-0.123,1.434,1.168,3.072,2.346,2.246c4.089-2.866,7.301-8.659,14.203-6.66c4.261,1.235,5.248,5.59,1.389,8.526
					c-1.277,1.167,0.058,2.822,2.624,2.534c2.302-0.072,4.521,0.165,6.38,0.615c8.159,1.935,8.02,13.305-1.678,11.473
					c-1.947-0.368-4.053-1.632-6.062-1.569c-2.202,0.085-3.388,0.854-2.098,3.126c2.306,4.064-0.354,7.36-3.894,7.871
					c-2.309,0.328-5.194-0.479-7.799-2.924c-1.36-1.256-3.775-3.375-5.117-4.614c-1.178-1.085-3.148,0.047-2.514,1.501
					c2.521,5.815-3.33,9.362-6.909,4.021c-0.92-1.361-1.334-2.581-2.106-3.867c-1.075-1.787-3.523-0.988-2.698,1.2
					c1.275,3.417-3.563,5.974-5.997,2.021c-1.996-3.228-3.815-6.397-7.315-4.589c-2.98,1.537-12.693,6.075-12.693,6.075
					L187.364,250.98z"/>
			</g>
			<path fill="none" stroke="#010202" stroke-linecap="round" stroke-linejoin="round" stroke-miterlimit="10" d="M237.382,242.435
				c0,0-14.421-1.113-30.046,3.306"/>
		</g>
		<g clip-path="url(#SVGID_4_)">
			<g>
				<g>
					<path fill="#422A19" stroke="#010202" stroke-linecap="round" stroke-linejoin="round" stroke-miterlimit="10" d="
						M137.759,57.002c0,0-0.514,1.368-3.68,1.368h-0.001c-3.165,0-3.679-1.368-3.679-1.368v-4.979h7.359V57.002z"/>
					<path fill="#B18049" stroke="#010202" stroke-linecap="round" stroke-linejoin="round" stroke-miterlimit="10" d="
						M125.886,46.432c0.727-3.458,5.258-5.802,8.193-5.85v-0.001c0.015,0,0.03,0.001,0.046,0.001c0.015,0,0.03-0.001,0.045-0.001
						v0.001c2.936,0.048,7.467,2.392,8.194,5.85c0.28,1.334,0.537,2.919,0.249,3.609c-0.254,0.607-0.513,2.258-8.488,2.141
						c-7.978,0.117-8.235-1.533-8.488-2.141C125.347,49.351,125.604,47.766,125.886,46.432z"/>
				</g>
			</g>
			<g>
				<g>
					<path fill="#422A19" stroke="#010202" stroke-linecap="round" stroke-linejoin="round" stroke-miterlimit="10" d="
						M129.907,66.158c0,0-0.35,0.933-2.508,0.933h-0.001c-2.159,0-2.509-0.933-2.509-0.933v-3.396h5.018V66.158z"/>
					<path fill="#B18049" stroke="#010202" stroke-linecap="round" stroke-linejoin="round" stroke-miterlimit="10" d="
						M121.812,58.95c0.495-2.358,3.586-3.957,5.588-3.989l0,0c0.01,0,0.021,0,0.031,0c0.009,0,0.02,0,0.029,0l0,0
						c2.002,0.032,5.093,1.631,5.588,3.989c0.191,0.909,0.367,1.991,0.171,2.461c-0.174,0.414-0.351,1.54-5.788,1.46
						c-5.44,0.08-5.617-1.046-5.79-1.46C121.444,60.941,121.62,59.859,121.812,58.95z"/>
				</g>
			</g>
			<g>
				<g>
					<path fill="#422A19" stroke="#010202" stroke-linecap="round" stroke-linejoin="round" stroke-miterlimit="10" d="
						M140.817,61.779c0,0-0.214,0.567-1.527,0.567h-0.001c-1.314,0-1.528-0.567-1.528-0.567v-2.067h3.057V61.779z"/>
					<path fill="#B18049" stroke="#010202" stroke-linecap="round" stroke-linejoin="round" stroke-miterlimit="10" d="
						M135.887,57.39c0.302-1.437,2.184-2.409,3.403-2.429l0,0c0.006,0,0.012,0,0.019,0c0,0,0.013,0,0.019,0l0,0
						c1.219,0.02,3.101,0.992,3.402,2.429c0.116,0.554,0.223,1.212,0.104,1.499c-0.105,0.252-0.213,0.938-3.524,0.889
						c-3.313,0.049-3.42-0.637-3.525-0.889C135.663,58.602,135.771,57.943,135.887,57.39z"/>
				</g>
			</g>
		</g>
		<g clip-path="url(#SVGID_4_)">
			<g id="Layer_3_11_">
				<path fill="#CD7D10" stroke="#010202" stroke-linecap="round" stroke-linejoin="round" stroke-miterlimit="10" d="M78.74-10.457
					c-0.118,0.222-6.72,9.996-13.883,7.639c-3.945-0.476-5.264,3.043-3.37,3.87c1.266,0.555,0.428,2.622-1.035,2.721
					c-2.222,0.221-4.763-0.558-6.667,0.49c-3.008,1.643-2.624,4.789,0.383,5.778c1.038,0.336,1.806,1.722,0.881,2.304
					c-3.209,2.016-8.208,2.559-8.838,7.979c-0.393,3.345,2.365,5.317,5.557,3.481c1.192-0.552,1.957,0.868,1,2.581
					c-0.728,1.588-1.215,3.211-1.447,4.646c-1.045,6.277,6.952,9.527,8.521,2.202c0.318-1.473,0.053-3.317,0.688-4.705
					c0.706-1.515,1.594-2.118,2.804-0.548c2.166,2.812,5.255,1.919,6.654-0.408c0.909-1.52,1.193-3.777,0.248-6.317
					c-0.478-1.323-1.25-3.636-1.723-4.939c-0.413-1.144,0.959-2.19,1.791-1.317c3.325,3.476,7.531,0.422,4.846-3.654
					c-0.68-1.041-1.412-1.692-2.087-2.609c-0.934-1.28,0.349-2.758,1.637-1.533c2.017,1.896,5.228-0.736,3.177-3.604
					c-1.671-2.348-3.354-4.554-1.058-6.47c1.953-1.635,7.985-7.097,7.985-7.097L78.74-10.457z"/>
			</g>
			<path fill="none" stroke="#010202" stroke-linecap="round" stroke-linejoin="round" stroke-miterlimit="10" d="M58.041,22.03
				c0,0,3.465-10.421,11.156-20.052"/>
		</g>
		<g clip-path="url(#SVGID_4_)">
			<g id="Layer_3_22_">
				<path fill="#CD7D10" stroke="#010202" stroke-linecap="round" stroke-linejoin="round" stroke-miterlimit="10" d="
					M188.788-20.457c-0.118,0.222-6.72,9.996-13.883,7.639c-3.945-0.476-5.264,3.043-3.37,3.87c1.266,0.555,0.429,2.622-1.035,2.721
					c-2.222,0.221-4.763-0.558-6.667,0.49c-3.008,1.643-2.624,4.789,0.383,5.778c1.038,0.336,1.806,1.722,0.881,2.304
					c-3.209,2.016-8.208,2.559-8.838,7.979c-0.393,3.345,2.365,5.317,5.557,3.481c1.192-0.552,1.957,0.868,1,2.581
					c-0.728,1.588-1.215,3.211-1.447,4.646c-1.045,6.277,6.952,9.527,8.521,2.202c0.318-1.473,0.053-3.317,0.688-4.705
					c0.706-1.515,1.594-2.118,2.804-0.548c2.166,2.812,5.255,1.919,6.654-0.408c0.909-1.52,1.193-3.777,0.248-6.317
					c-0.478-1.323-1.25-3.636-1.723-4.939c-0.414-1.144,0.959-2.19,1.791-1.317c3.326,3.476,7.531,0.422,4.846-3.654
					c-0.68-1.041-1.412-1.692-2.086-2.609c-0.934-1.28,0.348-2.758,1.636-1.533c2.017,1.896,5.228-0.736,3.177-3.604
					c-1.671-2.348-3.354-4.554-1.058-6.47c1.953-1.635,7.985-7.097,7.985-7.097L188.788-20.457z"/>
			</g>
			<path fill="none" stroke="#010202" stroke-linecap="round" stroke-linejoin="round" stroke-miterlimit="10" d="M168.089,12.03
				c0,0,3.465-10.421,11.156-20.052"/>
		</g>
		
			<path clip-path="url(#SVGID_4_)" fill="#5C6723" stroke="#010202" stroke-width="0.846" stroke-linecap="round" stroke-linejoin="round" stroke-miterlimit="10" d="
			M53.307,104.486c-1.632-0.12-3.217,0.03-4.68,0.398c-0.304-0.064-0.614-0.113-0.937-0.135c-0.041-0.004-0.082-0.004-0.123-0.005
			c-0.264-3.491-3.807-6.413-8.492-6.757c-1.316-0.097-2.596,0.021-3.777,0.313c-0.556-3.26-3.979-5.915-8.435-6.241
			c-4.733-0.35-8.974,2.055-10.048,5.495c-3.143-0.105-6.145,0.446-8.766,1.499c-2.624-1.053-5.625-1.604-8.769-1.499
			c-1.075-3.44-5.315-5.845-10.048-5.495c-4.455,0.326-7.879,2.981-8.436,6.241c-1.183-0.291-2.46-0.409-3.775-0.313
			c-4.687,0.344-8.229,3.266-8.495,6.757c-0.04,0.001-0.081,0.001-0.121,0.005c-0.323,0.021-0.634,0.07-0.937,0.135
			c-1.463-0.368-3.047-0.519-4.68-0.398c-6.315,0.465-10.945,4.76-10.339,9.598c0.606,4.836,6.217,8.382,12.532,7.918
			c0.4-0.028,0.795-0.072,1.182-0.134c0.131,0.114,0.268,0.217,0.412,0.294c8.724,4.615,28.095,2.336,35.098,1.822
			c2.299-0.171,4.447-0.679,6.375-1.452c1.925,0.773,4.073,1.281,6.371,1.452c7.004,0.514,26.375,2.793,35.098-1.822
			c0.146-0.077,0.281-0.18,0.414-0.294c0.385,0.062,0.779,0.105,1.18,0.134c6.316,0.464,11.927-3.082,12.532-7.918
			C64.251,109.246,59.623,104.951,53.307,104.486z"/>
		<g clip-path="url(#SVGID_4_)">
			<path fill="#CBBBA0" stroke="#010202" stroke-linecap="round" stroke-linejoin="round" stroke-miterlimit="10" d="
				M97.862,220.394c0,0-20.563,0.479-38.023-6.164c-1.554-0.591,12.565-3.104,10.915-3.546c-2.201-0.59-17.244,1.025-25.511-0.382
				s-19.6-8.038-28.194-18.862c4.72-9.993,22.519-19.643,32.729-31.95c10.21-12.309,13.948-22.929,13.948-22.929
				s32.218,1.815,39.372,34.035S97.862,220.394,97.862,220.394z"/>
			<path fill="#010202" stroke="#010202" stroke-linecap="round" stroke-linejoin="round" stroke-miterlimit="10" d="
				M33.214,205.179c0,0-9.963-2.916-17.024-9.978s-3.89-11.454-1.911-13.433s7.661-5.264,11.899-1.046
				C30.418,184.939,33.214,205.179,33.214,205.179z"/>
			<path fill="#432918" stroke="#010202" stroke-linecap="round" stroke-linejoin="round" stroke-miterlimit="10" d="
				M63.727,136.561l-10.95-20.556l15.395,10.309l-2.989-18.544l8.974,14.402l8.375-29.784l3.797,16.444l15.311-20.697l-2.543,14.604
				l23.569-22.912l-1.752,13.983l19.388-12.13l-5.677,14.087l26.427-11.903l-9.391,9.5l20.01-5.761l-6.523,7.179l27.059-4.558
				c0,0-8.191,9.688-6.637,9.852c1.555,0.165,24.077,0.436,24.077,0.436l-12.446,8.657l14.797-1.066l-7.672,8.107l24.845,3.139
				l-11.483,4.461l10.502,4.877l-12.861,7.559l17.831,5.025l-13.978,3.249l17.492,8.205l-8.482,5.854l7.125,7.041l-14.03,3.771
				l15.794,12.24l-11.534,7.087l11.587,9.516l-25.757,0.533l19.779,11.432l-21.789-2.293l3.186,4.62l-16.817,0.328l2.667,4.556
				l-24.897-2.619l12.678,9.12l-20.232-2.127l6.57,7.34l-30.184-7.2l0.1,4.035l-23.696-5.993l2.327,9.685l-18.294-11.362
				l-5.619,8.848l0.712-6.742c0,0,7.59-19.222,1.111-44.985C92.503,149.642,63.727,136.561,63.727,136.561z"/>
			<g>
				<path fill="#7F4F25" stroke="#010202" stroke-linecap="round" stroke-linejoin="round" stroke-miterlimit="10" d="
					M187.521,62.804l-7.704-2.581l-5.763,19.834l0.064,0.022c-0.059,0.164-0.09,0.336-0.09,0.516c0,0.966,0.887,1.748,1.982,1.752
					c0.806,0,1.498-0.426,1.809-1.032l0.049,0.017L187.521,62.804z"/>
				<g>
					<polygon fill="#683C14" stroke="#010202" stroke-linecap="round" stroke-linejoin="round" stroke-miterlimit="10" points="
						160.567,150.493 157.4,145.812 156.614,141.932 160.369,143.192 164.116,144.453 161.151,147.071 					"/>
					<polygon fill="#683C14" stroke="#010202" stroke-linecap="round" stroke-linejoin="round" stroke-miterlimit="10" points="
						154.431,148.432 153.647,144.547 152.866,140.667 156.614,141.932 160.369,143.192 157.4,145.812 					"/>
					<polygon fill="#683C14" stroke="#010202" stroke-linecap="round" stroke-linejoin="round" stroke-miterlimit="10" points="
						148.296,146.366 149.894,143.289 149.111,139.408 152.866,140.667 156.614,141.932 153.647,144.547 					"/>
				</g>
				<path fill="#FFD009" stroke="#010202" stroke-linecap="round" stroke-linejoin="round" stroke-miterlimit="10" d="
					M186.345,101.724c-0.756-15.051,3.783-23.566-7.111-27.231c-10.891-3.659-12.424,5.868-22.117,17.406
					c-6.642,7.903-38.357,24.367-15.725,46.765c8.229,7.201,13.635,7.836,13.635,7.836s4.689,2.759,15.6,1.991
					C202.194,144.315,186.861,112.036,186.345,101.724z"/>
			</g>
			<polyline fill="#432918" stroke="#010202" stroke-linecap="round" stroke-linejoin="round" stroke-miterlimit="10" points="
				111.356,126.353 129.741,118.382 138.013,132.554 159.405,118.382 156.993,132.131 174.028,127.525 171.821,141.309 
				190.518,141.784 187.946,154.388 204.179,158.142 188.219,172.585 			"/>
		</g>
		<g clip-path="url(#SVGID_4_)">
			<path fill="#7F4F25" stroke="#010202" stroke-linecap="round" stroke-linejoin="round" stroke-miterlimit="10" d="
				M151.981,143.038l-4.781,0.657l2.166,12.079l0.039-0.006c0.012,0.103,0.041,0.204,0.089,0.299
				c0.254,0.518,0.933,0.696,1.516,0.408c0.429-0.211,0.687-0.619,0.691-1.022l0.03-0.007L151.981,143.038z"/>
			<g>
				<polygon fill="#683C14" stroke="#010202" stroke-linecap="round" stroke-linejoin="round" stroke-miterlimit="10" points="
					160.763,196.827 157.837,195.172 156.4,193.311 158.729,192.993 161.057,192.676 160.169,194.852 				"/>
				<polygon fill="#683C14" stroke="#010202" stroke-linecap="round" stroke-linejoin="round" stroke-miterlimit="10" points="
					156.951,197.348 155.509,195.487 154.069,193.628 156.4,193.311 158.729,192.993 157.837,195.172 				"/>
				<polygon fill="#683C14" stroke="#010202" stroke-linecap="round" stroke-linejoin="round" stroke-miterlimit="10" points="
					153.14,197.867 153.181,195.806 151.738,193.95 154.069,193.628 156.4,193.311 155.509,195.487 				"/>
			</g>
			<path fill="#FFD009" stroke="#010202" stroke-linecap="round" stroke-linejoin="round" stroke-miterlimit="10" d="
				M161.622,164.068c-4.373-7.815-4.207-13.545-10.971-12.624c-6.763,0.926-5.063,6.402-7.182,15.102
				c-1.451,5.958-13.993,23.085,3.961,29.039c6.283,1.666,9.324,0.576,9.324,0.576s3.225,0.232,8.83-3.054
				C181.289,182.56,164.617,169.42,161.622,164.068z"/>
		</g>
		
			<polyline clip-path="url(#SVGID_4_)" fill="#432918" stroke="#010202" stroke-linecap="round" stroke-linejoin="round" stroke-miterlimit="10" points="
			98.69,144.323 116.493,138.257 114.448,162.23 136.843,159.02 132.304,174.853 152.384,175.843 148.798,189.839 167.021,198.741 
			148.605,202.735 		"/>
		<g clip-path="url(#SVGID_4_)">
			<g>
				<path fill="#CBBBA0" stroke="#010202" stroke-linecap="round" stroke-linejoin="round" stroke-miterlimit="10" d="
					M230.634,95.902c0,0-18.044,0.439-25.701-9.209c1.502-3.176,7.162-6.245,10.408-10.161c3.248-3.912,4.44-7.291,4.44-7.291
					s10.243,0.577,12.519,10.822C234.576,90.313,230.634,95.902,230.634,95.902z"/>
				<path fill="#010202" stroke="#010202" stroke-linecap="round" stroke-linejoin="round" stroke-miterlimit="10" d="
					M209.741,90.881c0,0-3.462-2.846-4.809-4.188c-1.351-1.341-2.671-3.247,0.306-3.397c1.351-0.068,2.979,0.839,3.642,2.329
					S210.755,89.861,209.741,90.881z"/>
				<path fill="#432918" stroke="#010202" stroke-linecap="round" stroke-linejoin="round" stroke-miterlimit="10" d="
					M219.781,69.241l-3.485-6.537l4.896,3.278l-0.953-5.897l3.105,2.941l2.413-7.834l0.532,4.456l6.709-6.697l-2.838,6.374
					l8.363-8.127l-0.043,3.285l5.648-2.695l-1.804,4.479l8.405-3.788l-2.987,3.022l6.364-1.831l-2.075,2.283l9.559-0.495
					c0,0-3.56,2.126-3.064,2.18c0.494,0.052,7.659,0.138,7.659,0.138l-3.96,2.754l4.707-0.34l-2.44,2.58l7.901,0.996l-3.651,1.419
					l3.341,1.552l-4.091,2.403l5.671,1.599l-4.445,1.033l5.562,2.609l-2.696,1.862l2.265,2.239l-4.46,1.199l6.294,5.165
					l-4.941,0.982l3.687,3.024l-8.194,0.17l6.294,3.637l-6.93-0.73l1.014,1.471l-5.353,0.104l0.851,1.448l-7.921-0.833l4.034,2.901
					l-6.433-0.677l2.087,2.335l-10.561-2.548l-1.352,1.756l-5.19-3.118l0.74,4.076l-5.818-3.613l-1.788,2.814l0.226-2.146
					c0,0,2.412-6.113,0.353-14.307C228.931,73.401,219.781,69.241,219.781,69.241z"/>
				<polyline fill="#432918" stroke="#010202" stroke-linecap="round" stroke-linejoin="round" stroke-miterlimit="10" points="
					232.801,67.46 238.647,64.924 241.28,69.431 248.085,64.924 247.317,69.296 252.033,67.178 252.033,72.216 257.478,70.566 
					257.159,76.376 261.292,78.756 260.381,82.986 				"/>
				<g>
					
						<ellipse transform="matrix(0.9924 0.1232 -0.1232 0.9924 11.6836 -26.7842)" fill="#FFFFFF" stroke="#010202" stroke-linecap="round" stroke-linejoin="round" stroke-miterlimit="10" cx="222.442" cy="81.092" rx="2.339" ry="2.82"/>
					
						<ellipse transform="matrix(-0.112 0.9937 -0.9937 -0.112 326.4701 -129.2231)" fill="#010202" stroke="#010202" stroke-linecap="round" stroke-linejoin="round" stroke-miterlimit="10" cx="220.974" cy="81.261" rx="0.998" ry="0.895"/>
					<g>
						<path fill="none" stroke="#010202" stroke-linecap="round" stroke-linejoin="round" stroke-miterlimit="10" d="
							M222.174,78.323c0.158-0.258,0.231-0.619,0.182-1.004c-0.049-0.387-0.213-0.716-0.431-0.93"/>
					</g>
					<g>
						<path fill="none" stroke="#010202" stroke-linecap="round" stroke-linejoin="round" stroke-miterlimit="10" d="
							M223.778,78.341c0.157-0.258,0.23-0.618,0.182-1.002c-0.052-0.387-0.215-0.717-0.434-0.928"/>
					</g>
				</g>
			</g>
			<path fill="none" stroke="#010202" stroke-linecap="round" stroke-linejoin="round" stroke-miterlimit="10" d="M214.634,93.191
				c2.61,1.156,6.629-0.264,8.672-2.4"/>
		</g>
		<g clip-path="url(#SVGID_4_)">
			<g id="Layer_3_13_">
				<path fill="#D45F14" stroke="#010202" stroke-linecap="round" stroke-linejoin="round" stroke-miterlimit="10" d="
					M16.434-18.101c0.024,0.25-0.021,12.047-7.286,14.074c-3.541,1.8-2.68,5.456-0.645,5.089c1.358-0.24,1.813,1.941,0.654,2.838
					C7.434,5.32,4.887,6.086,3.889,8.018c-1.586,3.039,0.485,5.439,3.533,4.588c1.051-0.299,2.459,0.426,2.014,1.423
					c-1.543,3.462-5.395,6.694-2.904,11.548c1.537,2.997,4.925,3.102,6.555-0.199c0.684-1.122,2.109-0.367,2.268,1.589
					c0.28,1.724,0.776,3.344,1.383,4.665c2.625,5.799,11.075,4.049,8.307-2.912c-0.557-1.4-1.804-2.785-2.047-4.291
					c-0.258-1.652,0.144-2.647,2.025-2.016c3.363,1.129,5.434-1.33,5.302-4.043c-0.092-1.768-1.11-3.801-3.31-5.387
					c-1.133-0.834-3.063-2.324-4.18-3.145c-0.98-0.722-0.422-2.354,0.754-2.092c4.699,1.037,6.493-3.84,1.995-5.731
					c-1.146-0.487-2.116-0.621-3.188-1.009c-1.487-0.542-1.245-2.483,0.506-2.184c2.73,0.453,3.934-3.521,0.636-4.764
					c-2.694-1.02-5.321-1.916-4.479-4.785c0.712-2.445,2.687-10.34,2.687-10.34L16.434-18.101z"/>
			</g>
			<path fill="#D45F14" stroke="#010202" stroke-linecap="round" stroke-linejoin="round" stroke-miterlimit="10" d="M17.312,20.412
				c0,0-2.919-10.586-1.89-22.869"/>
		</g>
		<g clip-path="url(#SVGID_4_)">
			<g id="Layer_3_16_">
				<path fill="#CD7D10" stroke="#010202" stroke-linecap="round" stroke-linejoin="round" stroke-miterlimit="10" d="M12.844-9.317
					c-0.19,0.164-9.88,6.891-15.706,2.103c-3.506-1.87-6.008,0.934-4.541,2.39c0.979,0.975-0.549,2.6-1.949,2.162
					c-2.15-0.598-4.239-2.242-6.393-1.953c-3.399,0.443-4.179,3.516-1.732,5.525c0.846,0.688,1.061,2.258-0.013,2.466
					c-3.72,0.72-8.577-0.582-11.124,4.243c-1.575,2.977,0.282,5.813,3.922,5.256c1.311-0.084,1.51,1.517-0.001,2.768
					c-1.253,1.217-2.294,2.555-3.029,3.809c-3.245,5.475,3.036,11.396,7.148,5.135c0.829-1.258,1.248-3.074,2.343-4.139
					c1.206-1.156,2.252-1.398,2.813,0.504c1.003,3.404,4.205,3.688,6.352,2.025c1.396-1.088,2.479-3.09,2.516-5.801
					c0.033-1.406,0.148-3.842,0.18-5.228c0.028-1.216,1.686-1.695,2.146-0.581c1.845,4.443,6.869,3.117,5.839-1.654
					C1.356,8.495,0.908,7.623,0.612,6.524c-0.408-1.531,1.32-2.445,2.079-0.838c1.194,2.496,5.14,1.203,4.266-2.211
					C6.247,0.683,5.476-1.983,8.31-2.938C10.722-3.757,18.32-6.668,18.32-6.668L12.844-9.317z"/>
			</g>
		</g>
		<g clip-path="url(#SVGID_4_)">
			<g id="Layer_3_9_">
				<path fill="#D45F14" stroke="#010202" stroke-linecap="round" stroke-linejoin="round" stroke-miterlimit="10" d="
					M77.171-13.345c0.116,0.158,4.797,8.086,0.789,12.365c-1.631,2.629,0.401,4.734,1.604,3.672
					c0.805-0.709,1.978,0.572,1.566,1.639c-0.575,1.645-1.957,3.182-1.848,4.877c0.161,2.674,2.492,3.451,4.175,1.656
					c0.576-0.621,1.8-0.701,1.902,0.146c0.359,2.941-0.903,6.654,2.687,8.908c2.215,1.393,4.504,0.104,4.266-2.766
					c0.005-1.027,1.252-1.094,2.139,0.154c0.873,1.043,1.851,1.93,2.78,2.572c4.055,2.834,8.961-1.736,4.345-5.291
					c-0.928-0.713-2.309-1.143-3.071-2.053c-0.83-1.006-0.96-1.834,0.54-2.166c2.682-0.594,3.07-3.074,1.899-4.84
					c-0.766-1.148-2.253-2.104-4.346-2.283c-1.084-0.104-2.958-0.328-4.027-0.43c-0.937-0.09-1.219-1.408-0.334-1.705
					c3.529-1.193,2.772-5.184-0.967-4.645c-0.954,0.133-1.651,0.434-2.516,0.604c-1.203,0.234-1.817-1.164-0.536-1.668
					c1.991-0.791,1.202-3.939-1.481-3.449c-2.192,0.4-4.294,0.854-4.88-1.408c-0.504-1.926-2.348-8.012-2.348-8.012L77.171-13.345z"
					/>
			</g>
			<path fill="#D45F14" stroke="#010202" stroke-linecap="round" stroke-linejoin="round" stroke-miterlimit="10" d="M93.13,12.126
				c0,0-6.161-5.924-10.382-14.574"/>
		</g>
		<g clip-path="url(#SVGID_4_)">
			<g id="Layer_3_19_">
				<path fill="#D45F14" stroke="#010202" stroke-linecap="round" stroke-linejoin="round" stroke-miterlimit="10" d="
					M187.219-23.345c0.116,0.158,4.796,8.086,0.789,12.365c-1.631,2.629,0.401,4.734,1.604,3.672
					c0.804-0.709,1.978,0.572,1.566,1.639c-0.575,1.645-1.957,3.182-1.849,4.877c0.162,2.674,2.493,3.451,4.176,1.656
					c0.576-0.621,1.8-0.701,1.902,0.146c0.359,2.941-0.903,6.654,2.687,8.908c2.215,1.393,4.504,0.104,4.267-2.766
					c0.004-1.027,1.252-1.094,2.137,0.154c0.874,1.043,1.852,1.93,2.781,2.572c4.055,2.834,8.961-1.736,4.345-5.291
					c-0.928-0.713-2.309-1.143-3.071-2.053c-0.83-1.006-0.96-1.834,0.54-2.166c2.682-0.594,3.069-3.074,1.899-4.84
					c-0.766-1.148-2.253-2.104-4.346-2.283c-1.084-0.104-2.958-0.328-4.027-0.43c-0.937-0.09-1.219-1.408-0.334-1.705
					c3.529-1.193,2.772-5.184-0.967-4.645c-0.954,0.133-1.652,0.434-2.516,0.604c-1.203,0.234-1.817-1.164-0.536-1.668
					c1.991-0.791,1.202-3.939-1.481-3.449c-2.192,0.4-4.294,0.854-4.88-1.408c-0.504-1.926-2.348-8.012-2.348-8.012L187.219-23.345z
					"/>
			</g>
			<path fill="#D45F14" stroke="#010202" stroke-linecap="round" stroke-linejoin="round" stroke-miterlimit="10" d="M203.179,2.126
				c0,0-6.162-5.924-10.383-14.574"/>
		</g>
		<g clip-path="url(#SVGID_4_)">
			<path fill="#FFFFFF" stroke="#010202" stroke-linecap="round" stroke-linejoin="round" stroke-miterlimit="10" d="
				M74.275,167.327c-0.017,4.898-3.321,8.854-7.378,8.839c-4.057-0.013-7.339-3.993-7.321-8.89c0.018-4.895,3.323-8.853,7.382-8.84
				C71.016,158.45,74.295,162.43,74.275,167.327z"/>
			<path fill="#010202" stroke="#010202" stroke-linecap="round" stroke-linejoin="round" stroke-miterlimit="10" d="M66.885,175.23
				c-2.381,0.641-4.891-1.004-5.604-3.681c-0.716-2.66,0.634-5.343,3.016-5.976c2.376-0.64,4.887,1.008,5.6,3.675
				C70.607,171.921,69.258,174.598,66.885,175.23z"/>
			<g>
				<path fill="none" stroke="#010202" stroke-linecap="round" stroke-linejoin="round" stroke-miterlimit="10" d="M65.04,158.766
					c0.395-0.867,0.492-2.021,0.191-3.208c-0.301-1.185-0.937-2.154-1.697-2.729"/>
			</g>
			<g>
				<path fill="none" stroke="#010202" stroke-linecap="round" stroke-linejoin="round" stroke-miterlimit="10" d="M69.595,158.271
					c0.392-0.867,0.488-2.019,0.189-3.2c-0.299-1.188-0.936-2.158-1.698-2.73"/>
			</g>
			<g>
				<path fill="none" stroke="#010202" stroke-linecap="round" stroke-linejoin="round" stroke-miterlimit="10" d="M72.591,160.729
					c0.65-0.695,1.113-1.753,1.212-2.968c0.101-1.222-0.189-2.346-0.728-3.133"/>
			</g>
		</g>
	</g>
</g>
<g id="Layer_2">
</g>
</svg>
