<?xml version="1.0" encoding="utf-8"?>
<!-- Generator: Adobe Illustrator 16.0.0, SVG Export Plug-In . SVG Version: 6.00 Build 0)  -->
<!DOCTYPE svg PUBLIC "-//W3C//DTD SVG 1.1//EN" "http://www.w3.org/Graphics/SVG/1.1/DTD/svg11.dtd">
<svg version="1.1" xmlns="http://www.w3.org/2000/svg" xmlns:xlink="http://www.w3.org/1999/xlink" x="0px" y="0px" width="250px"
	 height="250px" viewBox="0 0 250 250" enable-background="new 0 0 250 250" xml:space="preserve">
<g id="BG">
	<rect fill="#D9E6B1" width="250" height="250"/>
</g>
<g id="Layer_1">
	<g>
		<defs>
			<rect id="SVGID_1_" x="-900" y="-900" width="250" height="250"/>
		</defs>
		<clipPath id="SVGID_2_">
			<use xlink:href="#SVGID_1_"  overflow="visible"/>
		</clipPath>
	</g>
	
		<path fill="#FFFFFF" stroke="#010202" stroke-width="5" stroke-linecap="round" stroke-linejoin="round" stroke-miterlimit="10" d="
		M215.534,250c0,0-11.902-49.018-59.984-72.044h-32.338h3.577H94.45C46.368,200.982,34.466,250,34.466,250"/>
	<g>
		
			<path fill="#FFFFFF" stroke="#010202" stroke-width="5" stroke-linecap="round" stroke-linejoin="round" stroke-miterlimit="10" d="
			M124.999,216.36c-15.955,0-27.82-4.2-36.273-12.812c-16.553-16.883-15.927-40.304-15.32-69.941
			c0.024-1.098,0.049-2.188,0.068-3.285c-8.46,11.354-21.051,22.205-35.29,23.681c-1.052,0.114-2.134-0.226-2.929-0.946
			c-0.788-0.735-1.248-1.732-1.248-2.82c0-21.625,7.085-41.066,24.43-67.033c1.861-2.68,18.287-25.428,34.853-25.428
			c0.765,0,1.493,0.045,2.226,0.15c6.561-9.923,17.634-15.955,29.484-15.955c11.853,0,22.923,6.047,29.486,15.946
			c0.786-0.09,1.507-0.151,2.217-0.151c16.559,0,32.99,22.75,34.821,25.363c17.392,26.033,24.47,45.477,24.47,67.123
			c0,1.095-0.471,2.087-1.258,2.82c-0.788,0.727-1.848,1.082-2.93,0.948c-14.227-1.463-26.828-12.339-35.281-23.69
			c0.013,1.104,0.043,2.188,0.059,3.299c0.609,29.645,1.227,53.037-15.311,69.936C152.823,212.16,140.946,216.36,124.999,216.36z"/>
		<path fill="none" stroke="#010202" stroke-width="5" stroke-linecap="round" stroke-linejoin="round" stroke-miterlimit="10" d="
			M124.999,216.36c-15.955,0-27.82-4.2-36.273-12.812c-16.553-16.883-15.927-40.304-15.32-69.941
			c0.024-1.098,0.049-2.188,0.068-3.285c-8.46,11.354-21.051,22.205-35.29,23.681c-1.052,0.114-2.134-0.226-2.929-0.946
			c-0.788-0.735-1.248-1.732-1.248-2.82c0-21.625,7.085-41.066,24.43-67.033c1.861-2.68,18.287-25.428,34.853-25.428
			c0.765,0,1.493,0.045,2.226,0.15c6.561-9.923,17.634-15.955,29.484-15.955c11.853,0,22.923,6.047,29.486,15.946
			c0.786-0.09,1.507-0.151,2.217-0.151c16.559,0,32.99,22.75,34.821,25.363c17.392,26.033,24.47,45.477,24.47,67.123
			c0,1.095-0.471,2.087-1.258,2.82c-0.788,0.727-1.848,1.082-2.93,0.948c-14.227-1.463-26.828-12.339-35.281-23.69
			c0.013,1.104,0.043,2.188,0.059,3.299c0.609,29.645,1.227,53.037-15.311,69.936C152.823,212.16,140.946,216.36,124.999,216.36z"/>
		<g>
			<path fill="#010202" d="M105.552,138.938c-2.088,0-3.785-1.686-3.785-3.781V120.02c0-2.082,1.697-3.783,3.785-3.783
				c2.082,0,3.784,1.701,3.784,3.783v15.137C109.336,137.252,107.634,138.938,105.552,138.938z"/>
			<path fill="#010202" d="M143.396,138.938c-2.085,0-3.787-1.686-3.787-3.781V120.02c0-2.082,1.702-3.783,3.787-3.783
				c2.078,0,3.779,1.701,3.779,3.783v15.137C147.175,137.252,145.474,138.938,143.396,138.938z"/>
		</g>
		<g>
			
				<polyline fill="none" stroke="#010202" stroke-width="5" stroke-linecap="round" stroke-linejoin="round" stroke-miterlimit="10" points="
				109.026,181.402 126.829,199.205 144.249,181.783 			"/>
			
				<line fill="none" stroke="#010202" stroke-width="5" stroke-linecap="round" stroke-linejoin="round" stroke-miterlimit="10" x1="126.637" y1="198.678" x2="126.637" y2="216.303"/>
		</g>
		
			<path fill="#010202" stroke="#010202" stroke-width="5" stroke-linecap="round" stroke-linejoin="round" stroke-miterlimit="10" d="
			M154.485,57.917c0.786-0.09,1.507-0.151,2.217-0.151c16.559,0,32.99,22.75,34.821,25.363c17.392,26.033,24.47,45.477,24.47,67.123
			c0,1.095-0.471,2.087-1.258,2.82c-0.788,0.727-1.848,1.082-2.93,0.948c-14.227-1.463-26.828-12.339-35.281-23.69L154.485,57.917z"
			/>
		
			<path fill="#010202" stroke="#010202" stroke-width="5" stroke-linecap="round" stroke-linejoin="round" stroke-miterlimit="10" d="
			M73.474,130.322c-8.46,11.354-21.051,22.205-35.29,23.681c-1.052,0.114-2.134-0.226-2.929-0.946
			c-0.788-0.735-1.248-1.732-1.248-2.82c0-21.625,7.085-41.066,24.43-67.033c1.861-2.68,18.287-25.428,34.853-25.428
			c0.765,0,1.493,0.045,2.226,0.15L73.474,130.322z"/>
		
			<path fill="#FFFFFF" stroke="#010202" stroke-width="5" stroke-linecap="round" stroke-linejoin="round" stroke-miterlimit="10" d="
			M172.113,40.854c-4.558-0.681-8.96,0.532-12.415,3.042c3.471-5.048,3.224-11.982-1.019-16.777c-5-5.65-13.634-6.177-19.283-1.178
			c-0.077,0.068-0.145,0.146-0.222,0.218c-0.836-6.353-6.068-11.433-12.704-11.837c-7.532-0.46-14.008,5.271-14.468,12.803
			c-0.006,0.104,0,0.205-0.004,0.309c-5.084-3.9-12.376-3.791-17.354,0.613c-5.254,4.65-6.07,12.439-2.14,18.053
			c-4.043-1.878-8.819-2.164-13.293-0.398c-8.675,3.416-12.938,13.219-9.519,21.892c3.419,8.675,13.22,12.935,21.894,9.519
			c2.014-0.793,3.783-1.932,5.278-3.316c0.599,2.711,1.866,5.315,3.837,7.543c6.176,6.981,16.846,7.632,23.828,1.453
			c1.618-1.432,2.882-3.113,3.813-4.927c1.489,2.348,3.579,4.362,6.195,5.784c8.193,4.447,18.443,1.41,22.889-6.783
			c1.031-1.898,1.653-3.906,1.91-5.928c2.201,1.692,4.849,2.868,7.789,3.309c9.221,1.375,17.813-4.982,19.188-14.203
			C187.691,50.824,181.333,42.232,172.113,40.854z"/>
	</g>
</g>
<g id="Layer_2">
</g>
</svg>
