<?xml version="1.0" encoding="utf-8"?>
<!-- Generator: Adobe Illustrator 16.0.0, SVG Export Plug-In . SVG Version: 6.00 Build 0)  -->
<!DOCTYPE svg PUBLIC "-//W3C//DTD SVG 1.1//EN" "http://www.w3.org/Graphics/SVG/1.1/DTD/svg11.dtd">
<svg version="1.1" xmlns="http://www.w3.org/2000/svg" xmlns:xlink="http://www.w3.org/1999/xlink" x="0px" y="0px" width="250px"
	 height="250px" viewBox="0 0 250 250" enable-background="new 0 0 250 250" xml:space="preserve">
<g id="BG">
</g>
<g id="Layer_1">
	<g>
		<defs>
			<rect id="SVGID_1_" width="250" height="250"/>
		</defs>
		<clipPath id="SVGID_2_">
			<use xlink:href="#SVGID_1_"  overflow="visible"/>
		</clipPath>
		<rect clip-path="url(#SVGID_2_)" fill="#57B3E6" width="250" height="250"/>
		
			<path clip-path="url(#SVGID_2_)" fill="#0073B3" stroke="#000000" stroke-linecap="round" stroke-linejoin="round" stroke-miterlimit="10" d="
			M-10.658,129.732c7.334,0.666,17.334-7.334,24.667-9.334c10-3.332,24.667-10,35.333-8c11.334,2,17.334,8.668,30.667,8.668
			c14,0,28,0,42,0.666c15.333,0.666,24.667,0.666,38.667-5.334c8.666-3.332,22-9.332,32-10c16-0.666,30.666,14,48,14.668
			c10.666,0.666,14.666-0.668,16.666,10.666c1.334,10.666-4,22-7.333,32.666c-2.667,10.668-2.667,17.334-12.667,23.334
			s-22,10-32,14.666c-31.333,16-73.333,10-107.333,10c-16.667,0-34,0-50.667,0c-13.333,0-38.666,4.668-52-2.666
			c-13.333-7.334-4.666-25.334-4-38c1.334-14.666-1.333-28.666,0-42.666"/>
		
			<path clip-path="url(#SVGID_2_)" fill="#BE1622" stroke="#000000" stroke-linecap="round" stroke-linejoin="round" stroke-miterlimit="10" d="
			M38.564,192.065c-1.74,0.021-3.479,0.726-5.215,0.84c-1.531,0.101-2.405-1.29-1.629-2.586c0.613-1.021,1.715-1.556,2.719-2.11
			c0.63-0.349,2.002-0.854,1.831-1.793c-0.188-1.034-1.552-0.986-2.346-1.033c-1.563-0.094-6.845-1.163-6.194-3.648
			c0.635-2.424,3.988-1.613,5.449-0.727c0.973,0.592,1.935,2.221,3.177,2.156c1.447-0.076,2.213-2.125,0.622-2.713
			c-0.775-0.286-3.984-1.386-2.473-3.086c1.336-1.504,4.033,2.044,4.057,2.063c0.427,0.347,1.793,0.556,2.239,0.263
			c1.524-1.002-1.229-3.926-1.942-4.563c-0.783-0.701-1.627-1.212-2.574-1.647c-0.854-0.392-1.885-0.783-2.357-1.66
			c-0.934-1.736,0.099-5.898,2.582-5.695c1.763,0.145,2.43,2.039,2.344,3.566c-0.146,2.586,3.125,3.371,4.494,1.268
			c1.166-1.793-1.178-3.408-1.715-4.867c-0.877-2.387,1.92-2.559,3.348-1.82c1.461,0.755,2.759,2.508,2.756,4.197
			c-0.002,1.367-0.922,2.793-1.796,3.788c-0.759,0.864-1.889,1.495-2.384,2.583c-0.527,1.158,0.47,1.571,1.424,1.909
			c1.725,0.612,3.178-1.682,3.839-2.916c0.613-1.144,1.29-2.819,2.54-3.405c0.706-0.331,1.367-0.126,1.959,0.352
			c2.711,2.191-0.584,6.961-2.715,7.315s-5.606,1.946-4.988,2.743c0.898,1.158,1.727,0.494,2.861,0.342
			c0.859-0.114,2.35,0.215,1.582,1.326c-0.725,1.049-2.552,0.76-3.622,1.373c-0.422,0.243-1.052,1.203-0.9,1.797
			c0.3,1.172,2.46,0.973,3.161,0.434c1.346-1.031,5.461-5.566,6.834-2.363c0.355,0.832,0.249,2.688-0.254,3.443
			c-0.952,1.428-3.138,1.404-4.66,1.547c-0.68,0.063-1.357,0.102-2.037-0.007c-0.578-0.093-1.191-0.397-1.786-0.32
			c-0.588,0.077-1.399,0.807-1.515,1.386c-0.217,1.082,1.127,0.955,1.762,1.369c1.771,1.154-2.218,1.723-2.813,1.705
			c-1.913-0.058-3.726-0.823-5.65-0.804C38.572,192.065,38.568,192.065,38.564,192.065z"/>
		
			<path clip-path="url(#SVGID_2_)" fill="#009E73" stroke="#000000" stroke-linecap="round" stroke-linejoin="round" stroke-miterlimit="10" d="
			M248.318,187.719c0,0-6.076-53.016,0.699-70.192c6.773-17.177,2.584-57.173,2.584-57.173s16.193,33.068,8.184,63.998
			c-8.006,30.928,2.813,61.132,2.813,61.132L248.318,187.719z"/>
		
			<path clip-path="url(#SVGID_2_)" fill="#009E73" stroke="#000000" stroke-linecap="round" stroke-linejoin="round" stroke-miterlimit="10" d="
			M8.908,210.711c0,0-6.949-11.734-3.25-34.556c1.518-9.354-2.184-27.005-2.184-27.005s6.996,11.938,6.426,33.867
			c-0.205,7.875,6.215,16.227,5.037,24.094l-5.389,5.45"/>
		
			<path clip-path="url(#SVGID_2_)" fill="#009E73" stroke="#000000" stroke-linecap="round" stroke-linejoin="round" stroke-miterlimit="10" d="
			M12.186,202.902c0,0,4.7-21.147,0.846-32.266c-3.854-11.119,2.666-20.555,2.846-34.707c0.18-14.151,2.519-23.197,2.519-23.197
			s5.731,21.602,1.958,40.523c-4.532,22.734,1.547,30.863,1.388,35.951c-0.543,17.402-0.978,8.848-2.226,13.695H12.186z"/>
		
			<path clip-path="url(#SVGID_2_)" fill="#009E73" stroke="#000000" stroke-linecap="round" stroke-linejoin="round" stroke-miterlimit="10" d="
			M26.371,198.174c0,0-4.303-28.705,0.495-38.006s1.83-30.958,1.83-30.958s11.47,17.905,5.797,34.653
			c-5.671,16.746,1.991,33.101,1.991,33.101L26.371,198.174z"/>
		
			<path clip-path="url(#SVGID_2_)" fill="#009E73" stroke="#000000" stroke-linecap="round" stroke-linejoin="round" stroke-miterlimit="10" d="
			M223.662,200.352c0,0-9.813-21.67-4.588-63.817c2.141-17.274-3.083-49.874-3.083-49.874s9.878,22.047,9.072,62.547
			c-0.29,14.545,8.775,29.969,7.112,44.497l-7.609,10.066"/>
		
			<path clip-path="url(#SVGID_2_)" fill="#009E73" stroke="#000000" stroke-linecap="round" stroke-linejoin="round" stroke-miterlimit="10" d="
			M231.289,185.932c0,0,6.637-39.057,1.194-59.59c-5.441-20.535,3.765-37.961,4.019-64.098c0.253-26.136,3.556-42.842,3.556-42.842
			s8.091,39.894,2.765,74.84c-6.399,41.986,2.184,57,1.959,66.396c-0.767,32.139-1.379,16.341-3.143,25.293H231.289z"/>
		
			<path clip-path="url(#SVGID_2_)" fill="#009E73" stroke="#000000" stroke-linecap="round" stroke-linejoin="round" stroke-miterlimit="10" d="
			M95.359,201.463c0,0-6.287-8.289-2.939-24.412c1.371-6.607-1.977-19.078-1.977-19.078s6.33,8.434,5.814,23.926
			c-0.186,5.564,5.623,11.465,4.557,17.021l-4.875,3.851"/>
		
			<path clip-path="url(#SVGID_2_)" fill="#009E73" stroke="#000000" stroke-linecap="round" stroke-linejoin="round" stroke-miterlimit="10" d="
			M97.746,233.947c0,0,4.253-14.94,0.766-22.795c-3.487-7.855,2.412-14.521,2.574-24.52c0.163-9.998,2.279-16.388,2.279-16.388
			s5.185,15.261,1.771,28.628c-4.102,16.061,1.398,21.805,1.256,25.398c-0.492,12.294-0.885,6.25-2.014,9.676H97.746z"/>
		
			<path clip-path="url(#SVGID_2_)" fill="#009E73" stroke="#000000" stroke-linecap="round" stroke-linejoin="round" stroke-miterlimit="10" d="
			M166.821,205.997c0,0-6.287-8.29-2.939-24.412c1.371-6.608-1.977-19.078-1.977-19.078s6.33,8.434,5.814,23.926
			c-0.186,5.563,5.623,11.464,4.557,17.021l-4.875,3.851"/>
		
			<path clip-path="url(#SVGID_2_)" fill="#009E73" stroke="#000000" stroke-linecap="round" stroke-linejoin="round" stroke-miterlimit="10" d="
			M172.208,231.48c0,0,4.253-14.939,0.766-22.795c-3.487-7.854,2.412-14.521,2.574-24.519c0.163-9.997,2.279-16.388,2.279-16.388
			s5.185,15.26,1.771,28.628c-4.102,16.061,1.398,21.804,1.256,25.398c-0.492,12.294-0.885,6.251-2.014,9.675H172.208z"/>
		
			<path clip-path="url(#SVGID_2_)" fill="#A48A7B" stroke="#000000" stroke-linecap="round" stroke-linejoin="round" stroke-miterlimit="10" d="
			M103.643,193.082c0.365,1.096,0.784,2.18,1.559,3.168c3.268,4.148,11.168,4.154,16.933,4.219
			c5.783,0.063,15.896-1.168,20.532,2.003c4.068,2.778-2.121,6.065-5.186,7.478c-3.68,1.699-6.562,2.135-10.85,2.417
			c-5.214,0.343-10.338,0.562-14.629,2.934c-2.27,1.261-4.262,2.884-6.563,4.11c-9.813,5.223-18.881,8.778-31.134,9.572
			c-12.849,0.832-25.671,0.896-38.496,0.809c-7.259-0.052-14.537-0.055-21.806,0.09c-8.414,0.165-15.587-0.555-22.892-3.283
			c-6.058-2.263-12.97-4.17-18.692-6.77c-10.578-4.807-1.973-17.938,8.855-19.498c9.196-1.328,18.502,0.48,27.629-0.547
			c4.313-0.486,8.441-1.438,12.169-3.27c6.179-3.031,10.866-7.486,17.292-10.285c6.331-2.76,13.565-3.842,20.684-4.291
			c7.79-0.49,15.626-0.193,23.255,0.759c5.938,0.735,13.81,1.624,18.204,4.94C102.521,189.15,102.994,191.131,103.643,193.082z"/>
		
			<path clip-path="url(#SVGID_2_)" fill="#A48A7B" stroke="#000000" stroke-linecap="round" stroke-linejoin="round" stroke-miterlimit="10" d="
			M260.598,178.297c10.04,3.084-0.762,57.917,0,58.771c3.211,3.586-23.904-28.584-36.078-27.793
			c-12.765,0.828-25.495,0.986-38.229,1.014c-7.207,0.014-14.434,0.069-21.652,0.254c-8.355,0.212-15.472-0.356-22.702-2.676
			c-5.996-1.921-12.843-3.527-18.505-5.744c-10.465-4.101-1.814-15.607,8.949-17.054c9.143-1.229,18.367,0.271,27.438-0.698
			c4.286-0.458,8.394-1.321,12.109-2.945c6.158-2.691,10.849-6.608,17.252-9.098c6.308-2.454,13.499-3.455,20.571-3.904
			c7.737-0.488,15.516-0.294,23.083,0.475c5.891,0.592,13.697,1.303,18.035,4.155C252.855,174.355,258.871,177.766,260.598,178.297z
			"/>
		
			<path clip-path="url(#SVGID_2_)" fill="#CBBBA0" stroke="#000000" stroke-linecap="round" stroke-linejoin="round" stroke-miterlimit="10" d="
			M44.384,284.263c-0.479-3.065-1.05-6.105-2.213-8.951c-4.905-11.938-17.847-13.379-27.282-14.591
			c-9.468-1.213-26.166,0.333-33.42-9.18c-6.365-8.338,4.129-16.217,9.3-19.529c6.212-3.988,10.979-4.664,18.036-4.664
			c8.577,0,16.995,0.324,24.279-5.395c3.855-3.039,7.291-7.123,11.191-10.066c20.885-15.756,41.262-21.474,67.275-20.736
			c28.563,0.809,57.604,2.476,85.822,7.096c16.236,2.658,32.564,6.059,48.474,10.27c19.067,5.046,34.306,13.192,30.348,35.805
			c-2.489,14.223-13.423,39.909-30.573,42.139c-15.208,1.978-30.256-4.646-45.319-3.479c-7.118,0.554-13.983,2.416-20.287,6.756
			c-10.448,7.186-18.606,18.535-29.435,25.035c-10.668,6.413-22.637,8.074-34.348,8.021c-12.813-0.062-25.617-2.283-38.012-6.264
			c-9.649-3.084-22.447-6.931-29.29-16.797C45.797,295.227,45.234,289.719,44.384,284.263z"/>
		
			<circle clip-path="url(#SVGID_2_)" fill="#0073B3" stroke="#000000" stroke-linecap="round" stroke-linejoin="round" stroke-miterlimit="10" cx="36.032" cy="69.774" r="7.26"/>
		
			<circle clip-path="url(#SVGID_2_)" fill="#0073B3" stroke="#000000" stroke-linecap="round" stroke-linejoin="round" stroke-miterlimit="10" cx="56.023" cy="40.072" r="5.318"/>
		
			<circle clip-path="url(#SVGID_2_)" fill="#0073B3" stroke="#000000" stroke-linecap="round" stroke-linejoin="round" stroke-miterlimit="10" cx="16.779" cy="38.838" r="4.59"/>
		
			<circle clip-path="url(#SVGID_2_)" fill="#0073B3" stroke="#000000" stroke-linecap="round" stroke-linejoin="round" stroke-miterlimit="10" cx="51.766" cy="134.418" r="6.225"/>
		
			<circle clip-path="url(#SVGID_2_)" fill="#0073B3" stroke="#000000" stroke-linecap="round" stroke-linejoin="round" stroke-miterlimit="10" cx="45.541" cy="102.667" r="3.389"/>
		
			<circle clip-path="url(#SVGID_2_)" fill="#0073B3" stroke="#000000" stroke-linecap="round" stroke-linejoin="round" stroke-miterlimit="10" cx="37.396" cy="11.092" r="14.872"/>
		
			<circle clip-path="url(#SVGID_2_)" fill="#0073B3" stroke="#000000" stroke-linecap="round" stroke-linejoin="round" stroke-miterlimit="10" cx="16.78" cy="94.799" r="6.136"/>
		
			<path clip-path="url(#SVGID_2_)" fill="#009E73" stroke="#000000" stroke-linecap="round" stroke-linejoin="round" stroke-miterlimit="10" d="
			M52.313,222.284c0,0-7.911-8.214-3.698-24.189c1.727-6.548-2.486-18.904-2.486-18.904s7.964,8.356,7.314,23.708
			c-0.233,5.513,7.076,11.359,5.735,16.865l-6.136,3.816"/>
		
			<path clip-path="url(#SVGID_2_)" fill="#009E73" stroke="#000000" stroke-linecap="round" stroke-linejoin="round" stroke-miterlimit="10" d="
			M56.045,216.818c0,0,5.351-14.804,0.963-22.587s3.035-14.389,3.24-24.296c0.203-9.906,2.866-16.238,2.866-16.238
			s6.524,15.121,2.229,28.367c-5.16,15.914,1.76,21.605,1.58,25.167c-0.619,12.182-1.113,6.194-2.533,9.587H56.045z"/>
		
			<path clip-path="url(#SVGID_2_)" fill="#009E73" stroke="#000000" stroke-linecap="round" stroke-linejoin="round" stroke-miterlimit="10" d="
			M72.195,213.508c0,0-4.9-20.094,0.563-26.605c5.463-6.51,2.084-21.671,2.084-21.671s13.057,12.535,6.6,24.259
			c-6.457,11.723,2.266,23.171,2.266,23.171L72.195,213.508z"/>
		
			<path clip-path="url(#SVGID_2_)" fill="#E69F02" stroke="#000000" stroke-linecap="round" stroke-linejoin="round" stroke-miterlimit="10" d="
			M197.416,240.938c3.256,0.039,6.506,1.355,9.752,1.572c2.866,0.188,4.5-2.414,3.047-4.836c-1.146-1.912-3.207-2.912-5.085-3.949
			c-1.176-0.649-3.739-1.599-3.423-3.354c0.35-1.934,2.899-1.845,4.386-1.934c2.925-0.174,12.803-2.176,11.584-6.824
			c-1.187-4.533-7.458-3.015-10.188-1.355c-1.82,1.107-3.621,4.154-5.943,4.032c-2.705-0.145-4.137-3.975-1.161-5.075
			c1.446-0.533,7.45-2.592,4.623-5.77c-2.499-2.813-7.545,3.822-7.589,3.859c-0.795,0.645-3.35,1.038-4.187,0.49
			c-2.85-1.873,2.302-7.344,3.632-8.537c1.464-1.309,3.043-2.266,4.815-3.08c1.597-0.731,3.526-1.465,4.41-3.105
			c1.745-3.246-0.185-11.032-4.829-10.649c-3.296,0.271-4.543,3.813-4.385,6.668c0.273,4.837-5.843,6.304-8.404,2.373
			c-2.182-3.354,2.201-6.376,3.207-9.106c1.641-4.465-3.594-4.785-6.261-3.404c-2.734,1.414-5.161,4.691-5.153,7.848
			c0.003,2.562,1.72,5.229,3.357,7.087c1.42,1.616,3.53,2.799,4.457,4.833c0.988,2.164-0.876,2.939-2.661,3.57
			c-3.228,1.143-5.944-3.145-7.181-5.453c-1.146-2.139-2.412-5.272-4.75-6.369c-1.32-0.619-2.557-0.234-3.664,0.656
			c-5.074,4.098,1.09,13.02,5.074,13.683c3.989,0.664,10.486,3.64,9.33,5.132c-1.678,2.164-3.229,0.924-5.348,0.639
			c-1.609-0.212-4.396,0.4-2.962,2.482c1.356,1.957,4.775,1.416,6.776,2.566c0.791,0.455,1.967,2.248,1.682,3.361
			c-0.561,2.189-4.599,1.818-5.912,0.813c-2.517-1.934-10.213-10.412-12.781-4.423c-0.666,1.559-0.465,5.028,0.477,6.438
			c1.778,2.672,5.868,2.629,8.713,2.893c1.273,0.118,2.543,0.19,3.813-0.012c1.082-0.173,2.229-0.742,3.34-0.598
			c1.099,0.144,2.618,1.508,2.834,2.589c0.404,2.026-2.109,1.789-3.297,2.564c-3.311,2.157,4.148,3.221,5.264,3.188
			c3.58-0.107,6.967-1.539,10.566-1.503C197.401,240.938,197.408,240.938,197.416,240.938z"/>
		
			<path clip-path="url(#SVGID_2_)" fill="#D45F14" stroke="#000000" stroke-linecap="round" stroke-linejoin="round" stroke-miterlimit="10" d="
			M231.419,236.366c-5.138,0.063-10.271,2.141-15.394,2.479c-4.525,0.298-7.104-3.809-4.811-7.635
			c1.81-3.016,5.061-4.595,8.027-6.233c1.859-1.026,5.908-2.52,5.406-5.292c-0.555-3.054-4.582-2.911-6.927-3.052
			c-4.616-0.275-20.211-3.435-18.289-10.772c1.874-7.157,11.774-4.765,16.089-2.144c2.873,1.746,5.713,6.557,9.379,6.364
			c4.275-0.224,6.534-6.274,1.837-8.009c-2.287-0.846-11.762-4.092-7.3-9.111c3.946-4.44,11.909,6.035,11.98,6.093
			c1.258,1.022,5.291,1.642,6.608,0.775c4.501-2.957-3.63-11.591-5.734-13.476c-2.311-2.068-4.802-3.576-7.603-4.862
			c-2.521-1.158-5.564-2.315-6.959-4.903c-2.759-5.125,0.289-17.416,7.624-16.815c5.205,0.427,7.175,6.019,6.919,10.528
			c-0.432,7.636,9.227,9.955,13.27,3.746c3.446-5.297-3.477-10.064-5.062-14.373c-2.591-7.049,5.669-7.557,9.883-5.377
			c4.316,2.231,8.147,7.408,8.138,12.393c-0.006,4.04-2.719,8.25-5.301,11.186c-2.243,2.551-5.578,4.418-7.039,7.627
			c-1.558,3.419,1.387,4.641,4.203,5.639c5.095,1.807,9.383-4.966,11.336-8.61c1.81-3.378,3.807-8.323,7.5-10.054
			c2.084-0.978,4.037-0.373,5.783,1.038c8.008,6.468-1.723,20.552-8.014,21.599c-6.293,1.047-16.557,5.746-14.729,8.101
			c2.651,3.419,5.095,1.457,8.447,1.01c2.536-0.339,6.94,0.632,4.671,3.917c-2.138,3.094-7.533,2.24-10.693,4.054
			c-1.248,0.716-3.105,3.55-2.658,5.307c0.884,3.457,7.262,2.869,9.334,1.28c3.974-3.049,16.123-16.438,20.176-6.979
			c1.053,2.457,0.736,7.934-0.75,10.165c-2.809,4.216-9.262,4.147-13.756,4.565c-2.012,0.188-4.012,0.303-6.016-0.018
			c-1.707-0.273-3.521-1.176-5.275-0.945c-1.735,0.228-4.131,2.381-4.473,4.09c-0.639,3.195,3.329,2.824,5.201,4.043
			c5.231,3.407-6.547,5.09-8.307,5.036c-5.65-0.171-10.999-2.431-16.684-2.374C231.446,236.365,231.433,236.366,231.419,236.366z"/>
		
			<path clip-path="url(#SVGID_2_)" fill="#E6332A" stroke="#000000" stroke-linecap="round" stroke-linejoin="round" stroke-miterlimit="10" d="
			M209.719,247.203c-2.699,0.033-5.395,1.124-8.086,1.302c-2.377,0.156-3.73-2.001-2.525-4.011c0.949-1.584,2.658-2.413,4.215-3.273
			c0.977-0.54,3.104-1.324,2.84-2.781c-0.291-1.604-2.406-1.529-3.639-1.602c-2.424-0.145-10.615-1.805-9.605-5.659
			c0.984-3.76,6.184-2.503,8.451-1.126c1.508,0.917,3,3.443,4.926,3.343c2.246-0.118,3.434-3.296,0.965-4.207
			c-1.201-0.444-6.178-2.149-3.834-4.786c2.072-2.332,6.256,3.17,6.293,3.201c0.66,0.537,2.779,0.861,3.473,0.407
			c2.363-1.554-1.908-6.089-3.014-7.079c-1.213-1.087-2.521-1.879-3.994-2.555c-1.324-0.607-2.922-1.215-3.654-2.575
			c-1.449-2.692,0.152-9.148,4.004-8.833c2.734,0.225,3.77,3.162,3.635,5.531c-0.227,4.011,4.848,5.229,6.971,1.967
			c1.811-2.781-1.826-5.286-2.658-7.55c-1.361-3.702,2.977-3.968,5.191-2.824c2.266,1.172,4.279,3.892,4.273,6.51
			c-0.004,2.122-1.428,4.333-2.785,5.876c-1.178,1.34-2.93,2.32-3.697,4.006c-0.818,1.797,0.729,2.438,2.209,2.963
			c2.676,0.947,4.928-2.609,5.953-4.523c0.951-1.775,2.002-4.373,3.939-5.281c1.096-0.514,2.121-0.195,3.039,0.545
			c4.207,3.398-0.904,10.796-4.209,11.346c-3.305,0.551-8.697,3.018-7.738,4.255c1.393,1.796,2.678,0.767,4.438,0.53
			c1.332-0.178,3.646,0.332,2.455,2.058c-1.125,1.626-3.959,1.177-5.619,2.13c-0.654,0.376-1.631,1.864-1.396,2.787
			c0.465,1.816,3.816,1.507,4.904,0.672c2.088-1.601,8.469-8.634,10.598-3.665c0.553,1.29,0.387,4.167-0.395,5.339
			c-1.475,2.215-4.865,2.18-7.225,2.399c-1.057,0.098-2.107,0.159-3.16-0.01c-0.896-0.144-1.85-0.617-2.771-0.497
			c-0.912,0.12-2.17,1.251-2.35,2.148c-0.334,1.679,1.75,1.483,2.732,2.124c2.748,1.79-3.439,2.673-4.363,2.646
			c-2.969-0.09-5.777-1.277-8.764-1.246C209.734,247.203,209.727,247.203,209.719,247.203z"/>
		
			<path clip-path="url(#SVGID_2_)" fill="#D45F14" stroke="#000000" stroke-linecap="round" stroke-linejoin="round" stroke-miterlimit="10" d="
			M80.819,227.275c-1.599,0.02-3.195,0.666-4.79,0.771c-1.408,0.093-2.21-1.186-1.496-2.375c0.563-0.939,1.574-1.43,2.497-1.939
			c0.579-0.32,1.839-0.785,1.683-1.646c-0.173-0.951-1.426-0.906-2.155-0.95c-1.437-0.085-6.288-1.068-5.69-3.352
			c0.582-2.228,3.664-1.483,5.006-0.667c0.894,0.543,1.777,2.04,2.918,1.98c1.33-0.07,2.033-1.953,0.572-2.492
			c-0.713-0.264-3.66-1.273-2.271-2.835c1.228-1.382,3.705,1.878,3.728,1.896c0.392,0.318,1.646,0.511,2.056,0.241
			c1.4-0.92-1.129-3.606-1.784-4.192c-0.719-0.645-1.494-1.113-2.365-1.514c-0.784-0.359-1.731-0.72-2.165-1.525
			c-0.859-1.594,0.09-5.419,2.372-5.232c1.619,0.133,2.231,1.873,2.153,3.276c-0.135,2.376,2.87,3.098,4.129,1.165
			c1.071-1.647-1.082-3.131-1.576-4.472c-0.806-2.192,1.764-2.351,3.075-1.673c1.343,0.694,2.535,2.305,2.532,3.855
			c-0.002,1.258-0.846,2.567-1.649,3.48c-0.698,0.795-1.735,1.375-2.19,2.373c-0.484,1.064,0.432,1.444,1.309,1.755
			c1.585,0.562,2.919-1.546,3.526-2.679c0.563-1.051,1.185-2.59,2.334-3.129c0.648-0.304,1.256-0.115,1.8,0.323
			c2.491,2.013-0.536,6.395-2.494,6.721c-1.957,0.325-5.15,1.788-4.582,2.521c0.824,1.063,1.584,0.453,2.627,0.314
			c0.79-0.105,2.16,0.195,1.454,1.218c-0.665,0.963-2.345,0.697-3.327,1.262c-0.389,0.223-0.967,1.104-0.827,1.651
			c0.274,1.075,2.259,0.893,2.904,0.398c1.236-0.949,5.017-5.115,6.277-2.172c0.327,0.765,0.229,2.469-0.233,3.163
			c-0.873,1.312-2.881,1.29-4.28,1.421c-0.626,0.058-1.248,0.094-1.871-0.006c-0.531-0.085-1.097-0.365-1.642-0.295
			c-0.54,0.071-1.285,0.741-1.392,1.273c-0.198,0.994,1.036,0.879,1.618,1.258c1.628,1.061-2.037,1.584-2.584,1.566
			c-1.759-0.053-3.423-0.756-5.191-0.738C80.828,227.275,80.824,227.275,80.819,227.275z"/>
		
			<path clip-path="url(#SVGID_2_)" fill="#B17F4A" stroke="#000000" stroke-linecap="round" stroke-linejoin="round" stroke-miterlimit="10" d="
			M83.377,222.05c0,8.604-12.448,15.579-27.803,15.579c-15.355,0-27.803-6.975-27.803-15.579c0-8.604,12.447-22.052,27.803-22.052
			C70.929,199.998,83.377,213.446,83.377,222.05z"/>
		
			<path clip-path="url(#SVGID_2_)" fill="#936037" stroke="#000000" stroke-linecap="round" stroke-linejoin="round" stroke-miterlimit="10" d="
			M92.08,231.306c0,5.317-7.692,9.628-17.182,9.628c-9.488,0-17.181-4.311-17.181-9.628s7.692-13.628,17.181-13.628
			C84.388,217.678,92.08,225.988,92.08,231.306z"/>
		
			<path clip-path="url(#SVGID_2_)" fill="#7D4E24" stroke="#000000" stroke-linecap="round" stroke-linejoin="round" stroke-miterlimit="10" d="
			M263.656,254.652c0,9.645-17.672,17.459-39.471,17.459s-39.471-7.814-39.471-17.459c0-9.639,17.672-24.709,39.471-24.709
			S263.656,245.014,263.656,254.652z"/>
		
			<path clip-path="url(#SVGID_2_)" fill="#936037" stroke="#000000" stroke-linecap="round" stroke-linejoin="round" stroke-miterlimit="10" d="
			M117.76,233.68c0,1.949-2.818,3.528-6.297,3.528c-3.478,0-6.297-1.579-6.297-3.528s2.819-4.994,6.297-4.994
			C114.941,228.686,117.76,231.73,117.76,233.68z"/>
		<g clip-path="url(#SVGID_2_)">
			<g>
				<path fill="#F0E443" stroke="#000000" stroke-linecap="round" stroke-linejoin="round" stroke-miterlimit="10" d="
					M240.751,74.24c-12.346-6.599-30.317,7.305-40.144,13.978L204,92.35c4.261-1.828,23.591-12.804,40.502-14.637
					C243.973,76.512,242.803,75.338,240.751,74.24z"/>
				<path fill="#F0E443" stroke="#000000" stroke-linecap="round" stroke-linejoin="round" stroke-miterlimit="10" d="
					M238.774,87.259c3.632-2.622,7.211-6.186,5.728-9.546C227.591,79.546,208.261,90.521,204,92.35l-1.241,5.424
					c4.726-0.932,15.81-2.889,27.48-3.339C232.793,91.715,235.842,89.378,238.774,87.259z"/>
				<path fill="#F0E443" stroke="#000000" stroke-linecap="round" stroke-linejoin="round" stroke-miterlimit="10" d="
					M224.378,105.584c0.661-4.407,2.935-8.031,5.861-11.149c-11.671,0.45-22.755,2.407-27.48,3.339l-1.339,9.1
					c4.308-0.416,13.169-1.096,22.907-0.837C224.346,105.886,224.355,105.734,224.378,105.584z"/>
				<path fill="#F0E443" stroke="#000000" stroke-linecap="round" stroke-linejoin="round" stroke-miterlimit="10" d="
					M229.543,123.934c-0.773-1.33-1.542-2.746-2.244-4.219c-10.143-2.486-26.34-8.536-26.343-8.656
					c0.003,0.12,16.2,6.17,26.343,8.656c-2.047-4.293-3.523-9.078-2.972-13.679c-9.738-0.259-18.6,0.421-22.907,0.837l-4.15,12.613
					c4.426,5.495,14.615,16.871,19.438,20.275c2.706,1.901,5.381,3.061,7.933,3.443c3.832,0.574,9.031-0.891,10.867-4.598
					c-9.669-5.209-26.359-14.668-34.76-25.13c8.4,10.462,25.091,19.921,34.76,25.13c0.25-0.502,0.441-1.045,0.555-1.633
					C236.986,132.184,231.75,127.727,229.543,123.934z"/>
			</g>
			<g>
				<path fill="#F0E443" stroke="#000000" stroke-linecap="round" stroke-linejoin="round" stroke-miterlimit="10" d="
					M143.955,166.529c1.049-0.645,1.873-1.578,2.561-2.824c2.583-4.674-1.535-9.362,3.646-17.532l-16.557-1.818
					c1.321,2.569,6.233,11.308,13.468,14.597c-7.234-3.289-12.146-12.027-13.468-14.597l-21.12-2.321
					C115.684,147.836,124.791,160.938,143.955,166.529z"/>
				<path fill="#F0E443" stroke="#000000" stroke-linecap="round" stroke-linejoin="round" stroke-miterlimit="10" d="
					M112.484,142.033l-13.043-1.433c0,0,9.046,18.395,28.367,24.503c8.603,2.719,13.254,3.202,16.146,1.426
					C124.791,160.938,115.684,147.836,112.484,142.033z"/>
			</g>
			<g>
				<path fill="none" d="M204.778,29.867c0.014,0.002,0.03,0.005,0.044,0.008C205.107,29.484,205.085,29.498,204.778,29.867z"/>
				<path fill="#F0E443" stroke="#000000" stroke-linecap="round" stroke-linejoin="round" stroke-miterlimit="10" d="
					M154.963,77.582l11.127,1.758c18.696-1.178,46.807-33.16,42.155-46.689c-0.558-1.621-1.759-2.426-3.423-2.775
					c-0.021,0.031-0.041,0.059-0.066,0.094c0.025-0.035,0.045-0.063,0.066-0.094c-0.014-0.003-0.03-0.006-0.044-0.008"/>
				<path fill="#F0E443" stroke="#000000" stroke-linecap="round" stroke-linejoin="round" stroke-miterlimit="10" d="
					M204.778,29.867c-4.071-0.829-10.896,1.035-18.015,0.457c-1.686-0.137-3.401-0.322-5.126-0.541
					c-40.231,11.468-49.606,43.818-49.606,43.818s9.375-32.351,49.606-43.818c-3.327-0.424-6.686-0.978-9.927-1.58
					c-44.143,3.25-50.092,43.888-50.092,43.888s5.949-40.638,50.092-43.888c-3.902-0.725-7.635-1.519-10.938-2.233
					c-46.792,1.636-53.002,44.043-53.002,44.043s6.21-42.407,53.002-44.043c-4.623-1.001-8.409-1.847-10.638-2.133
					c-49.729-0.245-56.214,44.099-56.214,44.099l61.042,9.646C177.968,63.115,197.027,47.73,204.778,29.867z M196.623,29.731
					c-30.202,11.882-52.773,45.694-52.773,45.694S166.421,41.613,196.623,29.731z"/>
			</g>
			<path fill="#F9B233" stroke="#000000" stroke-linecap="round" stroke-linejoin="round" stroke-miterlimit="10" d="
				M105.404,119.904c0,0-24.967,10.252-27.43,9.596c-2.463-0.658-15.562-15.946-13.51-39.707
				c1.74-20.131,20.025-36.713,25.109-41.219c8.597-7.617,53.139-30.713,93.682,15.1c9.312,19.639,12.794,19.619,20.978,23.584
				c8.185,3.965-0.128,8.454-1.796,16.811c-0.758,3.798,5.963,11.436,1.367,14.346c-11.115,3.828-14.016,2.724-30.049,23.564
				c-19.287,25.07-87.52,2.441-86.922-1.547C87.433,136.443,105.404,119.904,105.404,119.904z"/>
			<g>
				<path fill="#F0E443" stroke="#000000" stroke-linecap="round" stroke-linejoin="round" stroke-miterlimit="10" d="
					M135.619,128.836c0.436,6.824,25.533,16.148,25.533,16.148s11.359,7.053,18.9-2.768c-15.732-7.844-35.803-12.294-44.457-13.965
					C135.6,128.438,135.605,128.631,135.619,128.836z"/>
				<path fill="#F0E443" stroke="#000000" stroke-linecap="round" stroke-linejoin="round" stroke-miterlimit="10" d="
					M192.824,100.617c-1.072-4.902-4.758-11.541-16.848-11.573c-19.181-0.053-45.529-0.153-45.995,5.522
					c-0.171,2.078,0.442,3.518,1.476,4.607c0.555,0.586,1.232,1.071,1.975,1.502C139.893,99.564,171.203,94.701,192.824,100.617z"/>
				<path fill="#F0E443" stroke="#000000" stroke-linecap="round" stroke-linejoin="round" stroke-miterlimit="10" d="
					M145.979,114.965c-0.146,1.135-0.545,2.248-1.251,3.302c-1.11,1.661-2.188,2.774-3.189,3.573
					c10.997,1.254,29.192,4.106,43.338,10.172c1.486-4.012,2.763-7.701,3.833-10.974
					C175.196,116.384,157.813,115.18,145.979,114.965z"/>
				<path fill="#F0E443" stroke="#000000" stroke-linecap="round" stroke-linejoin="round" stroke-miterlimit="10" d="
					M188.709,121.038c3.067-9.356,4.478-15.265,4.478-15.265s0.267-2.279-0.362-5.156c-21.621-5.916-52.932-1.053-59.393,0.059
					c2.14,1.246,4.814,2.037,6.658,3.467c1.475,1.141,2.714,2.401,3.682,3.719c12.188-1.224,32.854-2.335,48.297,1.85
					c-15.443-4.185-36.109-3.073-48.297-1.85c1.679,2.284,2.512,4.744,2.207,7.104C157.813,115.18,175.196,116.384,188.709,121.038z
					"/>
				<path fill="#F0E443" stroke="#000000" stroke-linecap="round" stroke-linejoin="round" stroke-miterlimit="10" d="
					M141.538,121.84c-3.483,2.78-6.055,1.74-5.942,6.412c8.654,1.671,28.725,6.121,44.457,13.965
					c1.145-1.49,2.203-3.361,3.121-5.715c0.596-1.537,1.16-3.032,1.702-4.49C170.73,125.946,152.535,123.094,141.538,121.84z"/>
			</g>
			<path fill="none" stroke="#000000" stroke-linecap="round" stroke-linejoin="round" stroke-miterlimit="10" d="M103.687,117.064
				c0.003,0.729,0.583,1.484,1.011,2.021c0.707,0.895,1.637,1.707,2.766,1.99"/>
			<path fill="#FFFFFF" stroke="#000000" stroke-linecap="round" stroke-linejoin="round" stroke-miterlimit="10" d="
				M88.926,100.432c0,0,10.986-6.68,18.377-2.362c0,0,16.541-27.741-4.379-30.88C82.003,64.052,88.926,100.432,88.926,100.432z"/>
			<path fill="#010202" stroke="#000000" stroke-linecap="round" stroke-linejoin="round" stroke-miterlimit="10" d="M95.279,97.219
				c0,0,6.826-2.15,11.646,0.627c0,0,12.788-17.433-0.841-19.477C92.457,76.324,95.279,97.219,95.279,97.219z"/>
		</g>
		
			<path clip-path="url(#SVGID_2_)" fill="#D45F14" stroke="#000000" stroke-linecap="round" stroke-linejoin="round" stroke-miterlimit="10" d="
			M1.316,252.959c-4.406,0.053-8.807,1.836-13.201,2.125c-3.881,0.256-6.093-3.266-4.125-6.547c1.551-2.587,4.34-3.94,6.883-5.346
			c1.596-0.881,5.068-2.162,4.637-4.539c-0.476-2.619-3.929-2.496-5.939-2.617c-3.959-0.236-17.333-2.945-15.686-9.238
			c1.607-6.138,10.099-4.086,13.798-1.838c2.464,1.497,4.899,5.623,8.044,5.457c3.666-0.191,5.604-5.38,1.575-6.868
			c-1.962-0.725-10.087-3.509-6.261-7.813c3.385-3.809,10.214,5.176,10.275,5.225c1.078,0.877,4.537,1.408,5.667,0.666
			c3.86-2.537-3.113-9.941-4.918-11.557c-1.981-1.775-4.118-3.067-6.521-4.17c-2.161-0.994-4.771-1.986-5.967-4.206
			c-2.367-4.395,0.248-14.936,6.537-14.421c4.465,0.366,6.153,5.162,5.935,9.029c-0.37,6.549,7.912,8.537,11.38,3.213
			c2.955-4.542-2.982-8.631-4.341-12.326c-2.222-6.045,4.861-6.48,8.476-4.611c3.701,1.914,6.986,6.354,6.979,10.627
			c-0.006,3.466-2.332,7.076-4.547,9.594c-1.923,2.188-4.783,3.788-6.036,6.541c-1.335,2.932,1.189,3.979,3.604,4.836
			c4.369,1.549,8.047-4.26,9.722-7.385c1.552-2.896,3.266-7.138,6.433-8.622c1.787-0.839,3.461-0.319,4.959,0.89
			c6.867,5.548-1.477,17.626-6.873,18.523c-5.396,0.898-14.197,4.928-12.631,6.947c2.273,2.932,4.369,1.25,7.244,0.865
			c2.176-0.289,5.952,0.543,4.006,3.359c-1.833,2.653-6.461,1.922-9.171,3.477c-1.069,0.614-2.663,3.045-2.279,4.551
			c0.758,2.965,6.228,2.461,8.005,1.098c3.408-2.613,13.826-14.096,17.303-5.984c0.902,2.107,0.631,6.805-0.643,8.718
			c-2.41,3.616-7.943,3.558-11.799,3.916c-1.724,0.16-3.439,0.259-5.158-0.016c-1.464-0.234-3.02-1.009-4.523-0.812
			c-1.488,0.195-3.543,2.042-3.836,3.508c-0.547,2.74,2.855,2.422,4.461,3.468c4.486,2.922-5.615,4.364-7.125,4.319
			c-4.846-0.147-9.432-2.086-14.307-2.036C1.34,252.958,1.328,252.959,1.316,252.959z"/>
		
			<path clip-path="url(#SVGID_2_)" fill="#009E73" stroke="#000000" stroke-linecap="round" stroke-linejoin="round" stroke-miterlimit="10" d="
			M116.361,203.206c-0.561-3.26-0.66-7.492,0.473-12.676c1.227-5.623-1.769-16.233-1.769-16.233s5.663,7.176,5.202,20.359
			c-0.092,2.624,1.464,5.336,2.707,8.037"/>
		
			<path clip-path="url(#SVGID_2_)" fill="#009E73" stroke="#000000" stroke-linecap="round" stroke-linejoin="round" stroke-miterlimit="10" d="
			M123.775,202.007c0.821-4.313,1.516-10.689-0.4-14.794c-3.119-6.684,2.16-12.357,2.305-20.865
			c0.146-8.507,2.039-13.944,2.039-13.944s4.641,12.985,1.586,24.36c-3.67,13.668,1.252,18.555,1.123,21.613
			c-0.072,1.729-0.143,3.032-0.215,4.016L123.775,202.007z"/>
		
			<path clip-path="url(#SVGID_2_)" fill="#009E73" stroke="#000000" stroke-linecap="round" stroke-linejoin="round" stroke-miterlimit="10" d="
			M130.653,201.003c-0.648-5.526-1.015-13.255,1.351-16.659c3.884-5.592,1.48-18.611,1.48-18.611s9.286,10.764,4.693,20.832
			c-2.529,5.547-1.783,11.021-0.602,14.82L130.653,201.003z"/>
		
			<path clip-path="url(#SVGID_2_)" fill="#B17F4A" stroke="#000000" stroke-linecap="round" stroke-linejoin="round" stroke-miterlimit="10" d="
			M147.941,197.201c0,2.751-3.98,4.982-8.893,4.982s-8.893-2.231-8.893-4.982c0-2.752,3.98-7.054,8.893-7.054
			S147.941,194.449,147.941,197.201z"/>
		
			<path clip-path="url(#SVGID_2_)" fill="#B17F4A" stroke="#000000" stroke-linecap="round" stroke-linejoin="round" stroke-miterlimit="10" d="
			M136.522,202.809c0,4.061-5.872,7.35-13.114,7.35c-7.243,0-13.115-3.289-13.115-7.35c0-4.057,5.872-10.4,13.115-10.4
			C130.65,192.408,136.522,198.752,136.522,202.809z"/>
		
			<path clip-path="url(#SVGID_2_)" fill="#BE1622" stroke="#000000" stroke-linecap="round" stroke-linejoin="round" stroke-miterlimit="10" d="
			M184,251.184c-1.74,0.021-3.479,0.725-5.215,0.84c-1.531,0.101-2.405-1.29-1.629-2.586c0.613-1.021,1.715-1.556,2.719-2.111
			c0.63-0.348,2.002-0.854,1.831-1.792c-0.188-1.034-1.552-0.986-2.346-1.033c-1.563-0.093-6.845-1.163-6.194-3.648
			c0.635-2.425,3.988-1.614,5.449-0.727c0.973,0.592,1.935,2.221,3.177,2.155c1.447-0.075,2.213-2.124,0.622-2.712
			c-0.775-0.286-3.984-1.386-2.473-3.085c1.336-1.505,4.033,2.043,4.057,2.063c0.427,0.347,1.793,0.556,2.239,0.264
			c1.524-1.002-1.229-3.926-1.942-4.564c-0.783-0.701-1.627-1.211-2.574-1.646c-0.854-0.393-1.885-0.785-2.357-1.661
			c-0.934-1.735,0.099-5.898,2.582-5.694c1.763,0.144,2.43,2.037,2.344,3.565c-0.146,2.586,3.125,3.371,4.494,1.269
			c1.166-1.793-1.178-3.408-1.715-4.868c-0.877-2.387,1.92-2.559,3.348-1.821c1.461,0.756,2.759,2.51,2.756,4.197
			c-0.002,1.369-0.922,2.795-1.796,3.789c-0.759,0.863-1.889,1.496-2.384,2.582c-0.527,1.158,0.47,1.572,1.424,1.91
			c1.725,0.611,3.178-1.682,3.839-2.916c0.613-1.145,1.29-2.818,2.54-3.405c0.706-0.331,1.367-0.126,1.959,0.352
			c2.711,2.19-0.584,6.961-2.715,7.315s-5.606,1.945-4.988,2.743c0.898,1.158,1.727,0.493,2.861,0.343
			c0.859-0.115,2.35,0.213,1.582,1.326c-0.725,1.047-2.552,0.758-3.622,1.373c-0.422,0.242-1.052,1.201-0.9,1.797
			c0.3,1.171,2.46,0.971,3.161,0.434c1.346-1.033,5.461-5.567,6.834-2.363c0.355,0.832,0.249,2.687-0.254,3.441
			c-0.952,1.429-3.138,1.406-4.66,1.547c-0.68,0.063-1.357,0.103-2.037-0.006c-0.578-0.093-1.191-0.398-1.786-0.32
			c-0.588,0.077-1.399,0.807-1.515,1.385c-0.217,1.082,1.127,0.957,1.762,1.369c1.771,1.154-2.218,1.725-2.813,1.707
			c-1.913-0.059-3.726-0.824-5.65-0.805C184.008,251.184,184.004,251.184,184,251.184z"/>
		<path clip-path="url(#SVGID_2_)" fill="#FFFFFF" d="M101.9,75.119c0,0-2.637,2.176-5.269,1.811c0,0-2.536,10.01,3.862,8.471
			C106.895,83.863,101.9,75.119,101.9,75.119z"/>
		<rect x="-1.992" y="-1.992" clip-path="url(#SVGID_2_)" fill="none" width="251.992" height="251.992"/>
	</g>
	<g>
		<defs>
			<rect id="SVGID_21_" y="300" width="250" height="250"/>
		</defs>
		<clipPath id="SVGID_4_">
			<use xlink:href="#SVGID_21_"  overflow="visible"/>
		</clipPath>
		
			<path clip-path="url(#SVGID_4_)" fill="#FFFFFF" stroke="#010202" stroke-linecap="round" stroke-linejoin="round" stroke-miterlimit="10" d="
			M99.411,272.899c-2.049-4.225-6.355-6.617-10.766-6.436c0.978-2.779,0.891-5.93-0.497-8.789
			c-2.756-5.684-9.598-8.055-15.281-5.299c-3.865,1.875-6.193,5.641-6.424,9.645c-0.094-0.105-0.2-0.203-0.298-0.307
			c-0.733-3.264-2.884-6.176-6.125-7.758c-4.22-2.061-9.085-1.285-12.442,1.578c-0.945-2.789-2.959-5.215-5.814-6.607
			c-5.676-2.771-12.523-0.416-15.295,5.26c-1.885,3.859-1.394,8.26,0.896,11.553c-0.985-0.178-1.999-0.277-3.035-0.277
			c-9.37,0-16.966,7.598-16.966,16.967s7.596,16.965,16.966,16.965c0.884,0,1.753-0.068,2.6-0.197
			c2.127,6.939,8.584,11.986,16.223,11.986c3.352,0,6.473-0.975,9.103-2.652c7.267,4.586,16.97,3.02,22.388-3.889
			c0.424-0.541,0.805-1.102,1.154-1.676c5.945,1.02,12.246-1.172,16.229-6.252c2.206-2.813,3.379-6.104,3.581-9.42
			C100.184,284.144,101.91,278.05,99.411,272.899z"/>
	</g>
</g>
<g id="Layer_2">
</g>
</svg>
