<?xml version="1.0" encoding="utf-8"?>
<!-- Generator: Adobe Illustrator 16.0.0, SVG Export Plug-In . SVG Version: 6.00 Build 0)  -->
<!DOCTYPE svg PUBLIC "-//W3C//DTD SVG 1.1//EN" "http://www.w3.org/Graphics/SVG/1.1/DTD/svg11.dtd">
<svg version="1.1" xmlns="http://www.w3.org/2000/svg" xmlns:xlink="http://www.w3.org/1999/xlink" x="0px" y="0px" width="250px"
	 height="250px" viewBox="0 0 250 250" enable-background="new 0 0 250 250" xml:space="preserve">
<g id="BG">
</g>
<g id="Layer_1">
	<g>
		<defs>
			<rect id="SVGID_1_" x="-600" width="250" height="250"/>
		</defs>
		<clipPath id="SVGID_2_">
			<use xlink:href="#SVGID_1_"  overflow="visible"/>
		</clipPath>
	</g>
	<g>
		<defs>
			<rect id="SVGID_3_" width="250" height="250"/>
		</defs>
		<clipPath id="SVGID_4_">
			<use xlink:href="#SVGID_3_"  overflow="visible"/>
		</clipPath>
		
			<rect clip-path="url(#SVGID_4_)" fill="#010202" stroke="#000000" stroke-linecap="round" stroke-linejoin="round" stroke-miterlimit="10" width="250" height="250"/>
		
			<path clip-path="url(#SVGID_4_)" fill="#3C3C3B" stroke="#000000" stroke-linecap="round" stroke-linejoin="round" stroke-miterlimit="10" d="
			M-15.063,188.486c7.334,1.105,26.608-28.064,59-28.777c11.807-0.26,34.762,15.496,80.666,15.496
			c45.905,0,41.93-25.457,70.667-25.457c28.738,0,21.139,23.88,62.666,23.242c10.723-0.165,0,0,2,18.816
			c1.334,17.707,3.543,115.452,0.211,133.159c-2.668,17.711-125.544,0.76-159.544,0.76c-16.666,0-34,0-50.666,0
			c-13.334,0-38.666,7.749-52-4.426c-13.334-12.176-4.666-42.059-4-63.087c1.334-24.348-7-70.832-7-70.832"/>
		
			<circle clip-path="url(#SVGID_4_)" fill="#FFD009" stroke="#010202" stroke-linecap="round" stroke-linejoin="round" stroke-miterlimit="10" cx="68.135" cy="29.966" r="54.556"/>
		
			<path clip-path="url(#SVGID_4_)" fill="#010202" stroke="#000000" stroke-linecap="round" stroke-linejoin="round" stroke-miterlimit="10" d="
			M329.832,242.011c-22.723-11.647-55.434-17.808-74.104-20.563c0.018-0.056,0.043-0.106,0.054-0.163
			c0.015-0.077,0.01-0.157,0.019-0.235c18.808,1.152,48.126,1.033,71.663-9.235c2.472-1.079,2.118-3.018-0.795-4.331
			c-2.915-1.315-7.28-1.505-9.753-0.424c-24.345,10.618-55.469,8.626-70.785,7.177c-0.951-0.205-1.946-0.376-2.98-0.497
			c-121.255-14.081-255.382,18.625-261.03,20.023c-6.121,1.517-7.38,5.212-2.81,8.254c2.588,1.725,6.497,2.868,10.511,3.263
			c3.069,0.3,6.199,0.16,8.854-0.495c1.303-0.321,131.425-31.991,242.158-19.154c0.081,0.01,0.163,0.014,0.243,0.021
			c4.549,0.485,51.402,5.737,79.021,19.894c1.275,0.653,2.913,1.073,4.572,1.236c1.88,0.183,3.786,0.037,5.215-0.483
			C332.573,245.323,332.549,243.402,329.832,242.011z"/>
		
			<polygon clip-path="url(#SVGID_4_)" fill="#F0E443" stroke="#010202" stroke-linecap="round" stroke-linejoin="round" stroke-miterlimit="10" points="
			157.032,-7.99 159.567,-2.853 165.235,-2.029 161.134,1.969 162.103,7.614 157.032,4.95 151.962,7.614 152.931,1.969 
			148.829,-2.029 154.498,-2.853 		"/>
		
			<polygon clip-path="url(#SVGID_4_)" fill="#F0E443" stroke="#010202" stroke-linecap="round" stroke-linejoin="round" stroke-miterlimit="10" points="
			12.253,80.451 14.506,85.017 19.545,85.748 15.898,89.303 16.759,94.32 12.253,91.951 7.746,94.32 8.607,89.303 4.961,85.748 
			10,85.017 		"/>
		
			<polygon clip-path="url(#SVGID_4_)" fill="#F0E443" stroke="#010202" stroke-linecap="round" stroke-linejoin="round" stroke-miterlimit="10" points="
			226.712,9 228.965,13.566 234.004,14.298 230.357,17.853 231.218,22.87 226.712,20.501 222.205,22.87 223.066,17.853 
			219.42,14.298 224.459,13.566 		"/>
		
			<polygon clip-path="url(#SVGID_4_)" fill="#F0E443" stroke="#010202" stroke-linecap="round" stroke-linejoin="round" stroke-miterlimit="10" points="
			186.064,20.91 187.701,24.227 191.361,24.759 188.712,27.341 189.337,30.985 186.064,29.264 182.791,30.985 183.416,27.341 
			180.768,24.759 184.428,24.227 		"/>
		
			<polygon clip-path="url(#SVGID_4_)" fill="#F0E443" stroke="#010202" stroke-linecap="round" stroke-linejoin="round" stroke-miterlimit="10" points="
			52.833,107.67 55.087,112.236 60.126,112.969 56.479,116.522 57.34,121.54 52.833,119.172 48.327,121.54 49.188,116.522 
			45.542,112.969 50.581,112.236 		"/>
		
			<polygon clip-path="url(#SVGID_4_)" fill="#FFED00" stroke="#010202" stroke-linecap="round" stroke-linejoin="round" stroke-miterlimit="10" points="
			18.015,124.075 20.833,129.782 27.13,130.696 22.573,135.14 23.649,141.412 18.015,138.451 12.382,141.412 13.458,135.14 
			8.901,130.696 15.2,129.782 		"/>
		
			<polygon clip-path="url(#SVGID_4_)" fill="#FFED00" stroke="#010202" stroke-linecap="round" stroke-linejoin="round" stroke-miterlimit="10" points="
			234.972,52.794 237.328,57.57 242.6,58.335 238.785,62.054 239.686,67.303 234.972,64.825 230.258,67.303 231.158,62.054 
			227.344,58.335 232.615,57.57 		"/>
		<g clip-path="url(#SVGID_4_)">
			<path fill="#009E73" stroke="#000000" stroke-linecap="round" stroke-linejoin="round" stroke-miterlimit="10" d="
				M207.935,122.308c-3.163-13.118,7.399-8.078,7.399-32.746c0-8.563-4.16-18.134-4.563-26.98
				c-0.76-16.644,1.997-30.727,1.997-30.727s-3.818,2.858-12.215,14.244c-8.396,11.389-12.783-9.215-50.61-9.215
				c-0.61,0-1.188,0.017-1.774,0.029c-0.587-0.013-1.165-0.029-1.774-0.029c-37.826,0-42.213,20.604-50.61,9.215
				c-8.397-11.386-12.214-14.244-12.214-14.244s2.756,14.083,1.996,30.727c-0.404,8.847-4.563,18.418-4.563,26.98
				c0,24.668,10.562,19.628,7.398,32.746C84.011,140.521,67.87,141.98,67.87,141.98s24.723,79.196,72.394,79.867
				c0,0-5.28-30.72,7.904-30.72s8.16,30.751,8.386,30.751v-0.031c47.671-0.671,69.88-79.867,69.88-79.867
				S212.326,140.521,207.935,122.308z"/>
			<path fill="#E69F02" stroke="#000000" stroke-linecap="round" stroke-linejoin="round" stroke-miterlimit="10" d="
				M147.571,117.403c-2.925,0-8.879-6.1-8.879-13.514s17.757-5.9,17.757,0S150.495,117.403,147.571,117.403z"/>
			<path fill="#FFFFFF" stroke="#000000" stroke-linecap="round" stroke-linejoin="round" stroke-miterlimit="10" d="
				M170.997,63.116c-10.762,0-19.983,6.597-23.887,15.987c-3.904-9.391-13.126-15.987-23.888-15.987
				c-14.298,0-25.886,11.634-25.886,25.998c0,14.357,11.588,25.999,25.886,25.999c10.762,0,19.983-6.601,23.888-15.99
				c3.903,9.39,13.125,15.99,23.887,15.99c14.299,0,25.886-11.642,25.886-25.999C196.883,74.75,185.296,63.116,170.997,63.116z"/>
			<g>
				<path fill="#FFFFFF" stroke="#000000" stroke-linecap="round" stroke-linejoin="round" stroke-miterlimit="10" d="
					M159.931,95.646c-3.864-3.604-3.864-9.454,0-13.062c3.858-3.611,10.122-3.609,13.983,0c3.863,3.607,3.863,9.454-0.002,13.061
					C170.051,99.254,163.793,99.257,159.931,95.646z"/>
				<path stroke="#000000" stroke-linecap="round" stroke-linejoin="round" stroke-miterlimit="10" d="M160.361,95.241
					c-2.432-2.272-2.432-5.953,0-8.226c2.431-2.273,6.374-2.272,8.807,0c2.43,2.272,2.43,5.953,0,8.226
					C166.735,97.514,162.795,97.514,160.361,95.241z"/>
			</g>
			<g>
				<path fill="#FFFFFF" stroke="#000000" stroke-linecap="round" stroke-linejoin="round" stroke-miterlimit="10" d="
					M134.29,95.646c3.863-3.604,3.863-9.454,0-13.062c-3.859-3.611-10.123-3.609-13.984,0c-3.863,3.607-3.863,9.454,0.001,13.061
					C124.169,99.254,130.426,99.257,134.29,95.646z"/>
				<path stroke="#000000" stroke-linecap="round" stroke-linejoin="round" stroke-miterlimit="10" d="M133.858,95.241
					c2.432-2.272,2.432-5.953,0-8.226c-2.431-2.273-6.375-2.272-8.806,0c-2.432,2.272-2.432,5.953,0,8.226
					C127.483,97.514,131.425,97.514,133.858,95.241z"/>
			</g>
			<path fill="#CA9E67" stroke="#000000" stroke-linecap="round" stroke-linejoin="round" stroke-miterlimit="10" d="
				M121.093,215.185"/>
			<path fill="#328070" stroke="#000000" stroke-linecap="round" stroke-linejoin="round" stroke-miterlimit="10" d="
				M229.197,154.825c0,25.07-16.888,45.395-22.811,45.395c-5.922,0-22.81-20.324-22.81-45.395s10.126-45.395,22.81-45.395
				C219.072,109.431,229.197,129.755,229.197,154.825z"/>
			<path fill="#328070" stroke="#000000" stroke-linecap="round" stroke-linejoin="round" stroke-miterlimit="10" d="
				M111.761,154.825c0,25.07-16.888,45.395-22.811,45.395c-5.922,0-22.811-20.324-22.811-45.395s10.126-45.395,22.811-45.395
				C101.636,109.431,111.761,129.755,111.761,154.825z"/>
			<path fill="#936037" stroke="#000000" stroke-linecap="round" stroke-linejoin="round" stroke-miterlimit="10" d="
				M136.489,208.409c-2.834,0-5.133,0.932-5.133,3.998c0-3.066-2.299-3.998-5.133-3.998c-2.832,0-5.131,0.932-5.131,3.998
				c0-3.066-2.296-3.998-5.132-3.998c-2.833,0-5.132,2.487-5.132,5.557v8.311c0,3.067,2.299,5.555,5.132,5.555
				c2.836,0,5.132-2.487,5.132-5.555c0,3.067,2.299,5.555,5.131,5.555c2.834,0,5.133-2.487,5.133-5.555
				c0,3.067,2.299,5.555,5.133,5.555c2.835,0,5.134-2.487,5.134-5.555v-8.311C141.623,210.896,139.324,208.409,136.489,208.409z"/>
			<path fill="#936037" stroke="#000000" stroke-linecap="round" stroke-linejoin="round" stroke-miterlimit="10" d="
				M180.789,208.407c-2.831,0-5.13,0.934-5.13,4c0-3.066-2.298-4-5.134-4c-2.834,0-5.133,0.934-5.133,4c0-3.066-2.295-4-5.131-4
				c-2.833,0-5.131,2.489-5.131,5.559v8.311c0,3.067,2.298,5.555,5.131,5.555c2.836,0,5.131-2.487,5.131-5.555
				c0,3.067,2.299,5.555,5.133,5.555c2.836,0,5.134-2.487,5.134-5.555c0,3.067,2.299,5.555,5.13,5.555
				c2.836,0,5.135-2.487,5.135-5.555v-8.311C185.924,210.896,183.625,208.407,180.789,208.407z"/>
		</g>
		
			<polyline clip-path="url(#SVGID_4_)" fill="none" stroke="#000000" stroke-linecap="round" stroke-linejoin="round" stroke-miterlimit="10" points="
			157.201,58.462 147.11,78.553 137.019,58.462 		"/>
	</g>
	<g>
		<defs>
			<rect id="SVGID_15_" x="300" width="250" height="250"/>
		</defs>
		<clipPath id="SVGID_6_">
			<use xlink:href="#SVGID_15_"  overflow="visible"/>
		</clipPath>
		
			<path clip-path="url(#SVGID_6_)" fill="none" stroke="#878787" stroke-linecap="round" stroke-linejoin="round" stroke-miterlimit="10" d="
			M224.101,249.389c0-177.89,144.206-322.098,322.097-322.098"/>
	</g>
	<g>
		<defs>
			<rect id="SVGID_19_" x="-300" width="250" height="250"/>
		</defs>
		<clipPath id="SVGID_8_">
			<use xlink:href="#SVGID_19_"  overflow="visible"/>
		</clipPath>
		<g clip-path="url(#SVGID_8_)">
			<g>
				<path fill="#FFFFFF" stroke="#010202" stroke-linecap="round" stroke-linejoin="round" stroke-miterlimit="10" d="
					M0.966,180.429c-0.008,0.001-21.072,4.687-21.072,4.687l19.352-26.688l-9.941,1.77l8.486-20.377
					c-0.244,0.47-0.652,0.998-1.209,1.579c-8.436,8.781-51.077,29.153-73.565,25.27c-31.941-5.506-69.615-17.63-55.564-49.432
					c9.654-21.857-1.752-42.19-21.213-44.104c-19.477-1.902-15.984,12.691-22.129,21.181c-6.158,8.482,1.551,19.83,1.551,19.83
					s21.443,1.51,12.203,11.445c-8.881,9.537-27.936,27.274-23.182,64.162c1.799,13.95,7.361,23.435,17.824,29.74
					c1.244,0.752,4.893,0.215,6.266,0.215c2.68-0.001,5.359,0,8.043,0c2.057,0,4.266-0.256,6.303-0.017
					c2.451,0.285,4.691,1.18,7.225,0.96c2.342-0.197,4.383-0.912,6.82-0.943c6.281-0.078,12.088-1.786,18.52-1.307
					c6.695,0.495,13.311,1.934,20.037,2.016c8.246,0.1,16.643,0.171,24.82-0.235c3.85-0.19,7.697-0.44,11.549-0.414
					c1.953,0.015,3.891,0.083,5.816,0.395c2.925,0.467,4.224-0.22,6.999-1.611c12.639-6.347,24.189-14.845,34.262-24.757
					c3.105-3.056,6.082-6.251,8.861-9.607C-1.485,183.598,0.206,180.599,0.966,180.429z"/>
			</g>
		</g>
	</g>
</g>
<g id="Layer_2">
</g>
</svg>
