<?xml version="1.0" encoding="utf-8"?>
<!-- Generator: Adobe Illustrator 16.0.0, SVG Export Plug-In . SVG Version: 6.00 Build 0)  -->
<!DOCTYPE svg PUBLIC "-//W3C//DTD SVG 1.1//EN" "http://www.w3.org/Graphics/SVG/1.1/DTD/svg11.dtd">
<svg version="1.1" xmlns="http://www.w3.org/2000/svg" xmlns:xlink="http://www.w3.org/1999/xlink" x="0px" y="0px" width="250px"
	 height="250px" viewBox="0 0 250 250" enable-background="new 0 0 250 250" xml:space="preserve">
<g id="BG">
</g>
<g id="Layer_1">
	<g>
		<defs>
			<rect id="SVGID_1_" x="-3200" y="-800" width="250" height="250"/>
		</defs>
		<clipPath id="SVGID_2_">
			<use xlink:href="#SVGID_1_"  overflow="visible"/>
		</clipPath>
	</g>
	<g>
		<defs>
			<rect id="SVGID_25_" width="250" height="250"/>
		</defs>
		<clipPath id="SVGID_4_">
			<use xlink:href="#SVGID_25_"  overflow="visible"/>
		</clipPath>
		
			<rect x="-7.258" y="-14.938" clip-path="url(#SVGID_4_)" stroke="#000000" stroke-linecap="round" stroke-linejoin="round" stroke-miterlimit="10" width="268.517" height="255.363"/>
		<g clip-path="url(#SVGID_4_)">
			
				<circle fill="#0000FF" stroke="#000100" stroke-linecap="round" stroke-linejoin="round" stroke-miterlimit="10" cx="34.541" cy="34.942" r="22.286"/>
			
				<circle fill="#00FFFF" stroke="#000100" stroke-linecap="round" stroke-linejoin="round" stroke-miterlimit="10" cx="34.541" cy="34.942" r="16.107"/>
		</g>
		<g clip-path="url(#SVGID_4_)">
			
				<circle fill="#0000FF" stroke="#000100" stroke-linecap="round" stroke-linejoin="round" stroke-miterlimit="10" cx="78.778" cy="39.571" r="17.657"/>
			
				<circle fill="#00FFFF" stroke="#000100" stroke-linecap="round" stroke-linejoin="round" stroke-miterlimit="10" cx="78.777" cy="39.571" r="11.749"/>
		</g>
		
			<rect x="6.895" y="58.005" clip-path="url(#SVGID_4_)" fill="#FF00FF" stroke="#000100" stroke-linecap="round" stroke-linejoin="round" stroke-miterlimit="10" width="233.872" height="6.188"/>
		
			<rect x="-7.258" y="185.734" clip-path="url(#SVGID_4_)" fill="#00FFFF" stroke="#000100" stroke-linecap="round" stroke-linejoin="round" stroke-miterlimit="10" width="268.517" height="79.462"/>
		
			<path clip-path="url(#SVGID_4_)" fill="#FFFF00" stroke="#000000" stroke-linecap="round" stroke-linejoin="round" stroke-miterlimit="10" d="
			M228.971,230.193c-3.221-7.05-3.131-16.479-8.604-22.566c-2.569-2.857-6.948-2.321-10.368-3.005
			c-3.542-0.708-6.813-1.642-10.372-2.372c-7.98-1.639-16.047-6.449-24.641-4.982c-4.799,0.82-9.209,2.807-14.158,3.449
			c-8.518,1.107-17.271,0.51-25.771,1.328c-10.133,0.976-12.694,0.337-20.332,6.958c-4.281,3.711-14.352,4.956-16.854,10.343
			c-3.854,8.294,5.422,5.232,8.845,9.012c5.021,5.543-1.195,16.216,11.565,15.652c3.107-0.137,6.07-0.283,9.213-0.008
			c4.17,0.365,9.131,2.191,12.896,3.928c4.102,1.893,7.992,4.627,12.084,5.846c5.725,1.709,11.178,1.477,16.918,1.152
			c4.064-0.229,8.547-0.088,12.408-1.973c2.314-1.127,4.201-3.809,6.316-5.754c3.461-3.184,11.656,0.188,16.006,0.678
			c1.006,0.113,2.012,0.248,3.018,0.396c1.926,0.85,3.861,1.861,5.742,2.623c2.451,0.992,3.99,3.248,6.453,1.623
			c0.711-0.469,1.316-1.266,1.902-2.111c2.436,0.24,4.877,0.346,7.328,0.199C232.883,244.582,231.965,236.744,228.971,230.193z"/>
		
			<path clip-path="url(#SVGID_4_)" fill="#FF00FF" stroke="#000000" stroke-linecap="round" stroke-linejoin="round" stroke-miterlimit="10" d="
			M189.057,217.97c5.605-1.873,8.667,0.159,13.061-4.677c2.188-2.408,4.091-5.523,4.761-8.707
			c2.486-11.802-15.924-13.961-24.443-15.377c-6.156-1.023-14.734-0.795-20.896-0.141c-6.421,0.682-5.311,2.234-8.973,6.484
			c-2.87,3.333-7.582,3.869-10.721,6.304c-3.343,2.593-3.782,6.486-3.346,11.153c2.198,0.905,3.329,2.826,5.517,3.449
			c1.812,0.516,4.603-0.1,6.495-0.141c4.641-0.103,9.356,0.044,13.984-0.309c4.891-0.371,9.251-1.436,14.35-1.315
			c4.772,0.111,8.16,3.082,12.211,3.231"/>
		<g clip-path="url(#SVGID_4_)">
			<g>
				<path fill="#FFFF00" stroke="#000100" stroke-linecap="round" stroke-linejoin="round" stroke-miterlimit="10" d="
					M242.93,167.463c-3.007-4.91-15.171-23.063-20.932-27.449c-3.57-2.718-7.963-5.024-13.64-6.816
					c-8.099-2.556-15.148-2.723-23.022-4.311l-0.136-6.646c27.769-2.331,30.987-27.003,30.987-27.003s5.632,1.282,7.114-6.088
					c1.501-7.462-7.294-9.892-7.294-9.892s-3.181-33.531-32.31-32.998c-3.025,0.055-5.866,0.245-8.557,0.544
					c-2.692-0.299-5.534-0.489-8.56-0.544c-29.127-0.533-20.152,29.354-31.544,35.032c-0.247,0.12-0.368,0.198-0.368,0.198
					c-2.517-0.756-9.308,1.79-7.36,8.78c2.018,7.243,7.55,6.001,7.55,6.001s2.417,22.724,28.802,25.818l-0.247,6.432
					c-8.02,1.673-16.634,2.064-24.909,4.676c-5.678,1.792-10.069,4.099-13.64,6.816c-5.762,4.387-17.926,22.539-20.932,27.449
					c-2.728,4.457,0.591,16.17,0.591,16.17l4.073,21.478c0,0,12.401,6.14,12.016,1.115c-0.162-2.132-3.625-30.43-3.683-33.064
					c-0.071-3.254,5.151-7.932,6.909-10.446c5.639-8.062,7.261-11.5,21.205-13.689c1.638-0.258,4.406,20.64,6.156,36.709h44.461
					c1.75-16.069,4.519-36.967,6.156-36.709c13.944,2.189,15.566,5.628,21.204,13.689c1.759,2.515,6.982,7.192,6.911,10.446
					c-0.059,2.635-3.521,30.933-3.686,33.064c-0.385,5.024,12.018-1.115,12.018-1.115l4.072-21.478
					C242.338,183.633,245.656,171.92,242.93,167.463z"/>
			</g>
			<path fill="#FF0000" stroke="#000000" stroke-linecap="round" stroke-linejoin="round" stroke-miterlimit="10" d="
				M142.104,76.119c1.729,3.428,8.094-1.731,10.758-0.644c2.663,1.092,4.828,1.743,6.251,1.743c2.848,0,5.903-3.638,11.437-3.635
				c5.622,0.006,6.826,2.794,11.202,2.794s2.603-2.767,5.696-2.691c3.164,0.075,6.845,3.002,8.785,4.182
				c2.398,1.458,7.612,3.405,7.54-0.022c-0.07-3.428,7.268,1.164,6.99-0.76c-1.165-8.069-23.062-29.555-40.021-29.555
				C142.999,47.531,136.347,64.703,142.104,76.119z"/>
			<path fill="none" stroke="#000100" stroke-linecap="round" stroke-linejoin="round" stroke-miterlimit="10" d="M160.345,108.039
				c8.265,12.052,27.726,7.442,32.633-0.384"/>
			
				<line fill="none" stroke="#000100" stroke-linecap="round" stroke-linejoin="round" stroke-miterlimit="10" x1="175.916" y1="100.929" x2="177.893" y2="100.801"/>
			<g>
				<path fill="#FFFFFF" stroke="#000100" stroke-linecap="round" stroke-linejoin="round" stroke-miterlimit="10" d="
					M163.313,86.05c0.521,2.061-1.065,4.237-3.54,4.858c-2.479,0.622-4.902-0.544-5.421-2.604c-0.518-2.061,1.068-4.235,3.544-4.855
					C160.369,82.826,162.797,83.989,163.313,86.05z"/>
				<path stroke="#000100" stroke-linecap="round" stroke-linejoin="round" stroke-miterlimit="10" d="M160.225,88.747
					c0.207,0.809-0.341,1.64-1.211,1.863c-0.886,0.221-1.76-0.257-1.962-1.066c-0.202-0.803,0.344-1.634,1.224-1.856
					C159.152,87.469,160.028,87.941,160.225,88.747z"/>
			</g>
			<g>
				
					<ellipse transform="matrix(0.9698 -0.2437 0.2437 0.9698 -15.6467 49.5722)" fill="#FFFFFF" stroke="#000100" stroke-linecap="round" stroke-linejoin="round" stroke-miterlimit="10" cx="192.501" cy="88.015" rx="4.622" ry="3.849"/>
				<path stroke="#000100" stroke-linecap="round" stroke-linejoin="round" stroke-miterlimit="10" d="M193.894,89.588
					c0.205,0.809-0.343,1.641-1.215,1.862c-0.883,0.222-1.758-0.255-1.961-1.065c-0.2-0.803,0.345-1.634,1.225-1.855
					C192.82,88.309,193.695,88.781,193.894,89.588z"/>
			</g>
			<g>
				
					<path fill="#FFFFFF" stroke="#000000" stroke-width="0.9661" stroke-linecap="round" stroke-linejoin="round" stroke-miterlimit="10" d="
					M135.139,63.337c-1.664-5.86,0.558-13.55-0.925-19.479c-0.245-0.99-6.067-0.406-6.807-0.435
					c-2.769-0.109-15.827-2.891-18.241-6.079c-2.621-3.465-3.606-6.916-4.254-11.083c-0.366-2.335-1.706-21.196-0.563-26.13
					c0.729-3.139,2.387-6.164,4.162-8.822c3.662-5.487,9.017-10.793,15.43-12.845c9.843-3.147,26.088-5.234,34.24,2.352
					c1.574,1.466,3.436,4.286,5.635,4.894c2.588,0.717,4.708-1.168,7.401-2.77c3.726-2.211,8.067-4.674,12.171-6.455
					c11.04-4.787,23.921-1.056,32.947,6.817c7.799,6.804,12.852,22.11,11.75,32.377c-0.588,5.438-2.972,10.218-6.093,14.673
					c-3.659,5.229-7.38,6.799-12.158,10.399c-0.974,0.732-2.153,1.188-3.042,2.07c7.219,3.952,12.354,31.462,10.127,38.856
					c-2.923-6.849-17.252-12.669-23.697-14.115c-7.192-1.616-21.153-1.229-28.348,0.127c-6.712,1.272-11.152,2.116-17.077,5.201
					c-5.461,2.847-12.796,8.797-12.796,8.797C134.516,77.919,137.306,70.972,135.139,63.337z"/>
				
					<path fill="none" stroke="#000000" stroke-width="0.9661" stroke-linecap="round" stroke-linejoin="round" stroke-miterlimit="10" d="
					M155.494,34.846c-5.083-2.778-16.617,5.593-21.28,9.012"/>
				
					<path fill="none" stroke="#000000" stroke-width="0.9661" stroke-linecap="round" stroke-linejoin="round" stroke-miterlimit="10" d="
					M220.375,32.432c-7.471,1.045-32.229,11.139-35.369,0.23"/>
			</g>
			<path fill="#FF00FF" stroke="#000000" stroke-linecap="round" stroke-linejoin="round" stroke-miterlimit="10" d="
				M183.761,76.119"/>
		</g>
		
			<path clip-path="url(#SVGID_4_)" fill="none" stroke="#000000" stroke-width="0.9661" stroke-linecap="round" stroke-linejoin="round" stroke-miterlimit="10" d="
			M175.009,9.54c-1.231-9.083-12.607-23.203-22.558-22.558"/>
		<g clip-path="url(#SVGID_4_)">
			<path fill="#00FF00" stroke="#000100" stroke-linecap="round" stroke-linejoin="round" stroke-miterlimit="10" d="
				M208.762,150.529l8.217,7.018l10.052-14.879c0,0-4.503-7.797-22.289-11.764c-2.805-0.625-10.076,0.051-10.431,0.807
				c-3.366,7.179-9.029,11.779-20.372,11.439c-11.259,0.337-16.919-4.19-20.294-11.275c-0.384-0.807-7.749-1.607-10.584-1.007
				c-17.864,3.786-22.779,10.898-22.779,10.898l10.051,14.879l8.782-6.116l-2.514,35.205h75.674L208.762,150.529z"/>
		</g>
		<g clip-path="url(#SVGID_4_)">
			
				<rect x="12.744" y="84.859" fill="#FF00FF" stroke="#000100" stroke-linecap="round" stroke-linejoin="round" stroke-miterlimit="10" width="66.023" height="2.958"/>
			
				<circle fill="#FF00FF" stroke="#000100" stroke-linecap="round" stroke-linejoin="round" stroke-miterlimit="10" cx="12.744" cy="86.338" r="3.85"/>
			
				<circle fill="#FF00FF" stroke="#000100" stroke-linecap="round" stroke-linejoin="round" stroke-miterlimit="10" cx="78.768" cy="86.338" r="3.85"/>
		</g>
		<g clip-path="url(#SVGID_4_)">
			<g>
				<g>
					<path fill="#00FFFF" d="M29.221,107.392V94.032c0.793-0.655,1.314-2.579,1.314-8.181c0-1.657-1.344-3.002-3.002-3.002
						s-3.002,1.345-3.002,3.002c0,5.767,0.553,7.635,1.385,8.233v13.32c-2.273,0.634-3.924,2.585-3.924,5.533
						c0,3.636,2.51,9.062,5.605,9.062c3.094,0,5.604-5.426,5.604-9.062C33.201,109.966,31.524,108.008,29.221,107.392z"/>
				</g>
				<g>
					<path fill="none" stroke="#000100" stroke-linecap="round" stroke-linejoin="round" stroke-miterlimit="10" d="M29.221,107.392
						V94.032c0.793-0.655,1.314-2.579,1.314-8.181c0-1.657-1.344-3.002-3.002-3.002s-3.002,1.345-3.002,3.002
						c0,5.767,0.553,7.635,1.385,8.233v13.32c-2.273,0.634-3.924,2.585-3.924,5.533c0,3.636,2.51,9.062,5.605,9.062
						c3.094,0,5.604-5.426,5.604-9.062C33.201,109.966,31.524,108.008,29.221,107.392z"/>
				</g>
			</g>
			<g>
				<g>
					<path fill="#00FFFF" d="M63.922,113.859v-19.8c0.813-0.627,1.348-2.523,1.348-8.208c0-1.657-1.342-3.002-3.001-3.002
						c-1.657,0-3.001,1.345-3.001,3.002c0,5.685,0.537,7.581,1.35,8.208v19.8c0,4.125,3.344,7.47,7.469,7.47s7.469-3.345,7.469-7.47
						H63.922z"/>
				</g>
				<g>
					<path fill="none" stroke="#000100" stroke-linecap="round" stroke-linejoin="round" stroke-miterlimit="10" d="M63.922,113.859
						v-19.8c0.813-0.627,1.348-2.523,1.348-8.208c0-1.657-1.342-3.002-3.001-3.002c-1.657,0-3.001,1.345-3.001,3.002
						c0,5.685,0.537,7.581,1.35,8.208v19.8c0,4.125,3.344,7.47,7.469,7.47s7.469-3.345,7.469-7.47H63.922z"/>
				</g>
			</g>
			<g>
				<g>
					<path fill="#00FFFF" d="M48.013,107.392V94.032c0.793-0.655,1.313-2.579,1.313-8.181c0-1.657-1.344-3.002-3.001-3.002
						s-3.001,1.345-3.001,3.002c0,5.767,0.552,7.635,1.385,8.233v13.32c-2.274,0.634-3.924,2.585-3.924,5.533
						c0,3.636,2.508,9.062,5.604,9.062s5.605-5.426,5.605-9.062C51.994,109.966,50.315,108.008,48.013,107.392z"/>
				</g>
				<g>
					<path fill="none" stroke="#000100" stroke-linecap="round" stroke-linejoin="round" stroke-miterlimit="10" d="M48.013,107.392
						V94.032c0.793-0.655,1.313-2.579,1.313-8.181c0-1.657-1.344-3.002-3.001-3.002s-3.001,1.345-3.001,3.002
						c0,5.767,0.552,7.635,1.385,8.233v13.32c-2.274,0.634-3.924,2.585-3.924,5.533c0,3.636,2.508,9.062,5.604,9.062
						s5.605-5.426,5.605-9.062C51.994,109.966,50.315,108.008,48.013,107.392z"/>
				</g>
			</g>
			
				<line fill="#00FFFF" stroke="#000100" stroke-linecap="round" stroke-linejoin="round" stroke-miterlimit="10" x1="44.196" y1="110.916" x2="44.196" y2="117.438"/>
			
				<line fill="#00FFFF" stroke="#000100" stroke-linecap="round" stroke-linejoin="round" stroke-miterlimit="10" x1="46.418" y1="110.916" x2="46.418" y2="117.438"/>
			
				<line fill="#00FFFF" stroke="#000100" stroke-linecap="round" stroke-linejoin="round" stroke-miterlimit="10" x1="48.641" y1="110.916" x2="48.641" y2="117.438"/>
		</g>
		<g clip-path="url(#SVGID_4_)">
			<polyline fill="#FFFFFF" stroke="#000000" stroke-linecap="round" stroke-linejoin="round" stroke-miterlimit="10" points="
				205.514,181.997 213.038,182.051 212.468,175.399 205.677,175.399 			"/>
			<path fill="#FFFFFF" stroke="#000000" stroke-linecap="round" stroke-linejoin="round" stroke-miterlimit="10" d="
				M212.468,175.399h-6.791c0.251-7.07,0.948-44.417,0.948-44.417l-12.688-1.623c0,28.984,4.404,33.776-19.573,33.776
				c-23.977,0-20.111-4.731-20.111-33.715l-13.168,1.562c0,0,1.4,37.352,1.362,44.417h-6.354l-0.57,6.651l6.844-0.049
				c-0.024,1.223-0.057,2.473-0.094,3.732h63.223c-0.003-1.26,0.002-2.511,0.018-3.737l7.524,0.054L212.468,175.399z"/>
		</g>
		
			<path clip-path="url(#SVGID_4_)" fill="#FF00FF" stroke="#000100" stroke-linecap="round" stroke-linejoin="round" stroke-miterlimit="10" d="
			M164.614,137.011"/>
		<g clip-path="url(#SVGID_4_)">
			<path fill="#FF0000" stroke="#000100" stroke-linecap="round" stroke-linejoin="round" stroke-miterlimit="10" d="
				M234.928,200.111c-3.31-0.002-6.373,0.412-8.878,1.088c-1.816,0.491-3.929,0.771-6.179,0.771
				c-0.358-0.001-3.181-1.208-3.181-1.208l0.002-6.504c0-0.553-0.445-0.998-0.991-0.998l-86.895-0.032
				c-0.552,0-0.997,0.447-0.997,0.997l-0.003,6.504c0,0-2.822,1.205-3.182,1.205c-2.25-0.002-4.359-0.285-6.181-0.776
				c-2.499-0.678-5.562-1.094-8.874-1.096c-3.216-0.001-5.825,2.604-5.826,5.82c-0.003,3.215,2.604,5.822,5.821,5.823
				c3.312,0.003,6.373-0.412,8.879-1.086c1.819-0.491,3.928-0.77,6.181-0.77c0.356,0,3.181,1.208,3.181,1.208l-0.002,6.503
				c0,0.553,0.442,0.998,0.995,0.998l86.893,0.032c0.549,0,0.993-0.446,0.992-0.995l0.005-6.506c0,0,2.821-1.204,3.183-1.204
				c2.246,0.001,4.357,0.283,6.179,0.774c2.503,0.678,5.564,1.093,8.874,1.094c3.22,0.002,5.828-2.604,5.831-5.817
				C240.755,202.721,238.146,200.113,234.928,200.111z"/>
		</g>
		
			<path clip-path="url(#SVGID_4_)" fill="#FF00FF" stroke="#000100" stroke-linecap="round" stroke-linejoin="round" stroke-miterlimit="10" d="
			M115.955,207.476c0.857,0.079,1.646-0.501,2.013-1.37c0.223-0.342,0.396-0.731,0.437-1.188c-0.115,1.32,0.695,2.469,1.813,2.566
			c1.116,0.101,2.119-0.888,2.24-2.204l0.319-3.566c0.119-1.314-0.699-2.465-1.814-2.565c-1.116-0.097-11.489-0.65-12.364-0.731
			c-1.116-0.098-2.118,0.886-2.239,2.205l-0.316,3.563c-0.113,1.317,0.692,2.466,1.812,2.565c1.12,0.101,2.121-0.892,2.237-2.207
			c-0.116,1.315,0.69,2.465,1.813,2.569c0.864,0.077,1.646-0.504,2.017-1.365c0.099-0.159,0.185-0.316,0.248-0.496
			C114.216,206.415,114.937,207.385,115.955,207.476z"/>
		
			<path clip-path="url(#SVGID_4_)" fill="#FF00FF" stroke="#000100" stroke-linecap="round" stroke-linejoin="round" stroke-miterlimit="10" d="
			M231.926,207.476c0.859,0.079,1.648-0.501,2.014-1.37c0.223-0.342,0.396-0.731,0.437-1.188c-0.114,1.32,0.695,2.469,1.813,2.566
			c1.117,0.101,2.12-0.888,2.241-2.204l0.318-3.566c0.119-1.314-0.698-2.465-1.813-2.565c-1.116-0.097-11.491-0.65-12.363-0.731
			c-1.117-0.098-2.119,0.886-2.241,2.205l-0.315,3.563c-0.113,1.317,0.692,2.466,1.811,2.565c1.12,0.101,2.122-0.892,2.238-2.207
			c-0.116,1.315,0.69,2.465,1.813,2.569c0.864,0.077,1.646-0.504,2.019-1.365c0.098-0.159,0.184-0.316,0.246-0.496
			C230.187,206.415,230.908,207.385,231.926,207.476z"/>
		
			<path clip-path="url(#SVGID_4_)" fill="#FF00FF" stroke="#000000" stroke-linecap="round" stroke-linejoin="round" stroke-miterlimit="10" d="
			M84.934,211.211c2.902,0.856,7.822,0.723,10.783-0.146c5.026-1.474,4.57-5.402-0.402-6.919c-2.708-0.825-8.789-0.812-11.142,1.076
			C81.995,206.971,81.955,210.331,84.934,211.211z"/>
		
			<path clip-path="url(#SVGID_4_)" fill="#FF00FF" stroke="#000000" stroke-linecap="round" stroke-linejoin="round" stroke-miterlimit="10" d="
			M74.6,250.978c6.074,1.707,16.393,1.36,22.615-0.457c10.563-3.084,9.664-11.099-0.741-14.122
			c-5.668-1.645-18.421-1.528-23.382,2.36C68.498,242.362,68.365,249.225,74.6,250.978z"/>
		
			<path clip-path="url(#SVGID_4_)" fill="#00FF00" stroke="#000000" stroke-linecap="round" stroke-linejoin="round" stroke-miterlimit="10" d="
			M56.87,219.871l-1.966-2.443l-2.95,2.972l-2.478-3.536l-3,2.881l-2.598-3.353c0,0-1.154,1.65-1.135,1.953
			c0.357,5.515,3.892,9.848,8.204,9.848c4.433,0,8.035-4.574,8.222-10.305L56.87,219.871z"/>
		
			<path clip-path="url(#SVGID_4_)" fill="#00FF00" stroke="#000000" stroke-linecap="round" stroke-linejoin="round" stroke-miterlimit="10" d="
			M70.029,215.95l-2.392-1.91l-2.306,3.615l-3.102-2.854l-2.373,3.538l-3.184-2.645c0,0-0.809,1.891-0.73,2.182
			c1.414,5.298,5.701,8.674,9.912,7.63c4.327-1.072,6.961-6.409,6.037-12.05L70.029,215.95z"/>
		<g clip-path="url(#SVGID_4_)">
			<path fill="none" stroke="#000000" stroke-linecap="round" stroke-linejoin="round" stroke-miterlimit="10" d="M34.516,175.418
				l0.02,0.014c-1.117,3.832-6.065,20.442-9.081,24.613c-1.124,1.56-2.797,2.56-4.709,2.818l0,0
				c-0.646,0.086-1.298,0.082-1.94-0.011l-0.066-0.009l-0.064,0.02c-0.353,0.102-0.714,0.18-1.073,0.227
				c-1.938,0.263-3.919-0.291-5.575-1.553c-1.951-1.485-3.029-3.583-3.041-5.905v-0.072l-0.03-0.062
				c-1.164-2.412-0.835-5.313,0.837-7.395c3.227-4.014,17.935-13.183,21.332-15.272l0.018,0.015 M13.753,199.397l0.308,0.454
				c0.455,0.676,1.025,1.263,1.691,1.743c0.867,0.627,1.842,1.035,2.89,1.213l0.073,0.013l0.072-0.021
				c1.617-0.501,3.067-1.547,4.193-3.023c2.844-3.73,8.655-19.789,10.365-24.621l0.176-0.494l0.019,0.014
				c-1.397,3.973-7.533,21.165-10.542,25.114 M32.132,173.602l0.019,0.013l-0.449,0.302c-3.951,2.65-17.135,11.681-20.877,16.59
				c-1.162,1.523-1.787,3.248-1.809,4.99v0.077l0.035,0.068c0.444,0.869,1.055,1.618,1.815,2.23c0.646,0.514,1.36,0.907,2.128,1.169
				l0.487,0.164 M33.265,174.463l-0.412,0.351c-0.386,0.328-0.882,0.751-1.462,1.247l-0.051,0.042l-0.027,0.061
				c-2.508,5.34-8.568,18.039-10.676,20.661c-1.123,1.397-2.717,2.297-4.488,2.536c-0.061,0.009-0.123,0.016-0.184,0.021
				c-0.527,0.058-1.069,0.053-1.609-0.013l-0.662-0.082l-0.019-0.033l-0.041-0.011l-0.251-0.614
				c-0.207-0.502-0.354-1.022-0.438-1.549c-0.295-1.836,0.141-3.676,1.229-5.182c1.979-2.737,12.615-11.938,17.097-15.765
				l0.05-0.044l1.07-2.291l0.018,0.013"/>
			
				<rect x="28.506" y="162.326" transform="matrix(0.6063 -0.7952 0.7952 0.6063 -115.2036 96.646)" fill="#000100" stroke="#000000" stroke-linecap="round" stroke-linejoin="round" stroke-miterlimit="10" width="23.003" height="4.7"/>
		</g>
		
			<path clip-path="url(#SVGID_4_)" fill="#0000FF" stroke="#000000" stroke-linecap="round" stroke-linejoin="round" stroke-miterlimit="10" d="
			M43.76,176.139c0,7.175,4.125,13.385,10.131,16.395v2.638c0,0,3.482,0.604,8.152,0.604s8.236-0.604,8.236-0.604v-2.638
			c6.006-3.01,10.132-9.22,10.132-16.395c0,0-11.082,1.811-18.325,1.811S43.76,176.139,43.76,176.139z"/>
		
			<path clip-path="url(#SVGID_4_)" fill="#00FF00" stroke="#000000" stroke-linecap="round" stroke-linejoin="round" stroke-miterlimit="10" d="
			M-9.859,180.951c0,11.887,6.834,22.175,16.785,27.162v4.369c0,0,5.769,1,13.506,1s13.645-1,13.645-1v-4.369
			c9.951-4.987,16.786-15.275,16.786-27.162c0,0-18.36,3-30.36,3S-9.859,180.951-9.859,180.951z"/>
		<g clip-path="url(#SVGID_4_)">
			<path fill="#0000FF" stroke="#000100" stroke-linecap="round" stroke-linejoin="round" stroke-miterlimit="10" d="
				M21.465,236.752c0.901-0.395,1.65-1.14,2.031-2.132c0.383-0.993,0.323-2.046-0.08-2.946c-1.104-2.443-3.131-4.468-5.828-5.506
				c-1.6-0.615-3.28-0.975-4.85-0.652c-0.767,0.158-1.224,0.336-1.873,0.56c-1.813,0.628-4.074,0.604-6.272-0.403l-18.074-8.11
				c-1.369-0.526-2.903,0.156-3.427,1.522l0,0c-0.527,1.367,0.154,2.901,1.522,3.428L3.467,228.6
				c2.308,0.725,4.002,2.222,4.926,3.903c0.333,0.601,0.554,1.038,1.017,1.667c0.949,1.293,2.438,2.152,4.038,2.768
				C16.146,237.976,19.008,237.827,21.465,236.752z"/>
			<path fill="none" stroke="#000100" stroke-linecap="round" stroke-linejoin="round" stroke-miterlimit="10" d="M20.436,234.85
				c0,0-3.483,1.682-7.852-1.347"/>
		</g>
		
			<path clip-path="url(#SVGID_4_)" fill="none" stroke="#000100" stroke-linecap="round" stroke-linejoin="round" stroke-miterlimit="10" d="
			M43.76,189.509c-1.434,4.352-7.807,11.077-10.147,12.044"/>
	</g>
</g>
<g id="Layer_2">
</g>
</svg>
