<?xml version="1.0" encoding="utf-8"?>
<!-- Generator: Adobe Illustrator 16.0.0, SVG Export Plug-In . SVG Version: 6.00 Build 0)  -->
<!DOCTYPE svg PUBLIC "-//W3C//DTD SVG 1.1//EN" "http://www.w3.org/Graphics/SVG/1.1/DTD/svg11.dtd">
<svg version="1.1" xmlns="http://www.w3.org/2000/svg" xmlns:xlink="http://www.w3.org/1999/xlink" x="0px" y="0px" width="250px"
	 height="250px" viewBox="0 0 250 250" enable-background="new 0 0 250 250" xml:space="preserve">
<g id="BG">
</g>
<g id="Layer_1">
	<g>
		<defs>
			<rect id="SVGID_1_" x="-1600" y="-800" width="250" height="250"/>
		</defs>
		<clipPath id="SVGID_2_">
			<use xlink:href="#SVGID_1_"  overflow="visible"/>
		</clipPath>
	</g>
	<g>
		<defs>
			<rect id="SVGID_29_" width="250" height="250"/>
		</defs>
		<clipPath id="SVGID_4_">
			<use xlink:href="#SVGID_29_"  overflow="visible"/>
		</clipPath>
		
			<rect x="-7.786" y="-7.786" clip-path="url(#SVGID_4_)" stroke="#000000" stroke-linecap="round" stroke-linejoin="round" stroke-miterlimit="10" width="265.572" height="265.573"/>
		
			<circle clip-path="url(#SVGID_4_)" fill="#FFFF00" stroke="#000100" stroke-linecap="round" stroke-linejoin="round" stroke-miterlimit="10" cx="32.675" cy="229.049" r="3.208"/>
		
			<circle clip-path="url(#SVGID_4_)" fill="#FFFF00" stroke="#000100" stroke-linecap="round" stroke-linejoin="round" stroke-miterlimit="10" cx="148.667" cy="74" r="3.208"/>
		
			<circle clip-path="url(#SVGID_4_)" fill="#FFFF00" stroke="#000100" stroke-linecap="round" stroke-linejoin="round" stroke-miterlimit="10" cx="160.534" cy="237.867" r="2.292"/>
		
			<circle clip-path="url(#SVGID_4_)" fill="#FFFF00" stroke="#000100" stroke-linecap="round" stroke-linejoin="round" stroke-miterlimit="10" cx="235.046" cy="14.332" r="2.292"/>
		
			<circle clip-path="url(#SVGID_4_)" fill="#FFFF00" stroke="#000100" stroke-linecap="round" stroke-linejoin="round" stroke-miterlimit="10" cx="173.708" cy="9.333" r="2.292"/>
		
			<circle clip-path="url(#SVGID_4_)" fill="#FFFF00" stroke="#000100" stroke-linecap="round" stroke-linejoin="round" stroke-miterlimit="10" cx="62.214" cy="9.482" r="2.292"/>
		
			<circle clip-path="url(#SVGID_4_)" fill="#FFFF00" stroke="#000100" stroke-linecap="round" stroke-linejoin="round" stroke-miterlimit="10" cx="36.202" cy="65.476" r="2.292"/>
		
			<circle clip-path="url(#SVGID_4_)" fill="#FFFF00" stroke="#000100" stroke-linecap="round" stroke-linejoin="round" stroke-miterlimit="10" cx="212.375" cy="190" r="2.292"/>
		
			<circle clip-path="url(#SVGID_4_)" fill="#FFFF00" stroke="#000100" stroke-linecap="round" stroke-linejoin="round" stroke-miterlimit="10" cx="243.042" cy="116" r="2.292"/>
		
			<circle clip-path="url(#SVGID_4_)" fill="#FFFF00" stroke="#000100" stroke-linecap="round" stroke-linejoin="round" stroke-miterlimit="10" cx="142.018" cy="139.987" r="2.704"/>
		
			<path clip-path="url(#SVGID_4_)" fill="none" stroke="#00FFFF" stroke-linecap="round" stroke-linejoin="round" stroke-miterlimit="10" d="
			M118.398,293.93c0-95.181,77.159-172.34,172.34-172.34"/>
		
			<path clip-path="url(#SVGID_4_)" fill="none" stroke="#00FFFF" stroke-linecap="round" stroke-linejoin="round" stroke-miterlimit="10" d="
			M118.398,293.93c0-95.181,77.159-172.34,172.34-172.34"/>
		
			<path clip-path="url(#SVGID_4_)" fill="none" stroke="#00FFFF" stroke-linecap="round" stroke-linejoin="round" stroke-miterlimit="10" d="
			M170.385,293.24c0-66.626,54.011-120.637,120.637-120.637"/>
		
			<path clip-path="url(#SVGID_4_)" fill="none" stroke="#00FFFF" stroke-linecap="round" stroke-linejoin="round" stroke-miterlimit="10" d="
			M206.774,292.759c0-46.639,37.808-84.446,84.446-84.446"/>
		
			<path clip-path="url(#SVGID_4_)" fill="none" stroke="#00FFFF" stroke-linecap="round" stroke-linejoin="round" stroke-miterlimit="10" d="
			M46.83,293.93c0-134.707,109.201-243.908,243.908-243.908"/>
		
			<path clip-path="url(#SVGID_4_)" fill="none" stroke="#00FFFF" stroke-linecap="round" stroke-linejoin="round" stroke-miterlimit="10" d="
			M-31.358,293.93c0-177.889,144.206-322.098,322.097-322.098"/>
		
			<path clip-path="url(#SVGID_4_)" fill="none" stroke="#00FFFF" stroke-linecap="round" stroke-linejoin="round" stroke-miterlimit="10" d="
			M-75.899,249.389c0-177.89,144.206-322.098,322.097-322.098"/>
		<g clip-path="url(#SVGID_4_)">
			<path fill="#FF00FF" stroke="#000100" stroke-linecap="round" stroke-linejoin="round" stroke-miterlimit="10" d="
				M221.641,143.01c1.673-12.121-6.797-23.301-18.917-24.973c-10.021-1.382-19.396,4.167-23.289,12.979
				c-0.817,1.848-1.393,3.838-1.682,5.939c-1.673,12.12,6.797,23.301,18.917,24.973c10.604,1.461,20.49-4.84,23.916-14.558
				C221.074,145.981,221.432,144.524,221.641,143.01z"/>
			<path fill="#FF00FF" stroke="#000000" stroke-linecap="round" stroke-linejoin="round" stroke-miterlimit="10" d="
				M186.517,146.734L186.517,146.734c-5.412-2.049-14.841-6.227-17.187-11.199c-0.847-1.795-0.705-3.568,0.397-4.994
				c4.318-5.586,21.239-2.9,26.322-1.943c6.124,1.152,12.293,2.871,17.839,4.971c5.411,2.049,14.839,6.227,17.185,11.201
				c0.847,1.792,0.706,3.566-0.396,4.992c-4.318,5.588-21.241,2.9-26.323,1.943C198.229,150.553,192.062,148.834,186.517,146.734z
				 M212.472,137.31c-5.328-2.017-11.265-3.671-17.162-4.781c-13.286-2.501-21.106-1.236-22.417,0.46
				c-0.084,0.108-0.212,0.273,0.055,0.84c0.926,1.962,5.406,5.539,14.984,9.165v0.001c5.33,2.018,11.264,3.67,17.162,4.779
				c13.287,2.502,21.108,1.237,22.419-0.458c0.084-0.108,0.211-0.272-0.058-0.841C226.53,144.514,222.051,140.935,212.472,137.31z"
				/>
			<path fill="#FF00FF" stroke="#000100" stroke-linecap="round" stroke-linejoin="round" stroke-miterlimit="10" d="
				M221.201,145.301c0.187-0.748,0.333-1.512,0.439-2.291c1.673-12.121-6.797-23.301-18.917-24.973
				c-10.021-1.382-19.396,4.167-23.289,12.979c-0.817,1.848-1.393,3.838-1.682,5.939"/>
		</g>
		<g clip-path="url(#SVGID_4_)">
			<path fill="#FFFF00" stroke="#000100" stroke-linecap="round" stroke-linejoin="round" stroke-miterlimit="10" d="
				M91.134,152.791c-19.98-30.979-11.062-72.293,19.921-92.272c1.903-1.229,3.851-2.347,5.826-3.36
				c-20.232-3.509-41.783,0.276-60.396,12.282C17.141,94.814,5.82,147.272,31.193,186.608
				c25.373,39.341,77.83,50.663,117.166,25.291c14.527-9.368,25.226-22.431,31.674-37.16
				C149.49,192.012,110.398,182.663,91.134,152.791z"/>
			<path fill="none" stroke="#000100" stroke-linecap="round" stroke-linejoin="round" stroke-miterlimit="10" d="M96.711,181.342
				c1.894-0.066,3.688-0.969,4.854-2.398"/>
			<path fill="none" stroke="#000000" stroke-linecap="round" stroke-linejoin="round" stroke-miterlimit="10" d="M125,180.143
				c-6.723,5.439-18.203,4.425-24.785,0.085"/>
			<path fill="#FFFF00" stroke="#000100" stroke-linecap="round" stroke-linejoin="round" stroke-miterlimit="10" d="
				M77.349,100.402c4.74,32.422,28.78,40.557,35.624,47.342c-6.588,7.551-22.307,14.076-31.43,17.387"/>
			<g>
				<path fill="#FFFFFF" stroke="#000100" stroke-linecap="round" stroke-linejoin="round" stroke-miterlimit="10" d="
					M70.354,113.73c2.905,7.998,1.5,15.844-3.135,17.525c-4.633,1.682-10.744-3.439-13.646-11.438
					c-2.903-7.997-1.499-15.845,3.138-17.525C61.346,100.61,67.453,105.73,70.354,113.73z"/>
				
					<ellipse transform="matrix(0.9401 -0.341 0.341 0.9401 -39.222 29.92)" stroke="#000000" stroke-linecap="round" stroke-linejoin="round" stroke-miterlimit="10" cx="65.509" cy="126.543" rx="3.813" ry="4.895"/>
				<g>
					<path fill="none" stroke="#000100" stroke-linecap="round" stroke-linejoin="round" stroke-miterlimit="10" d="M65.256,99.191
						c-3.276-2.262-7.171-3.032-10.738-1.738c-3.563,1.293-6.059,4.381-7.123,8.219"/>
				</g>
			</g>
		</g>
		
			<circle clip-path="url(#SVGID_4_)" fill="#0000FF" stroke="#000100" stroke-linecap="round" stroke-linejoin="round" stroke-miterlimit="10" cx="211.207" cy="66.61" r="12.392"/>
		
			<path clip-path="url(#SVGID_4_)" fill="#0000FF" stroke="#000100" stroke-linecap="round" stroke-linejoin="round" stroke-miterlimit="10" d="
			M149.123-1.807c2.984,13.06-5.183,26.066-18.244,29.053c-13.059,2.986-26.065-5.18-29.051-18.24
			c-2.988-13.059,5.18-26.067,18.24-29.053C133.126-23.033,146.133-14.867,149.123-1.807z"/>
		
			<path clip-path="url(#SVGID_4_)" fill="#00FF00" stroke="#000100" stroke-linecap="round" stroke-linejoin="round" stroke-miterlimit="10" d="
			M289.776,242.131c4.894,21.417-8.498,42.747-29.916,47.644c-21.416,4.897-42.745-8.493-47.644-29.911
			c-4.898-21.416,8.495-42.748,29.914-47.645C263.544,207.321,284.873,220.713,289.776,242.131z"/>
		
			<circle clip-path="url(#SVGID_4_)" fill="#FF00FF" stroke="#000000" stroke-linecap="round" stroke-linejoin="round" stroke-miterlimit="10" cx="-0.996" cy="34.568" r="18.341"/>
	</g>
</g>
<g id="Layer_2">
</g>
</svg>
