<?xml version="1.0" encoding="utf-8"?>
<!-- Generator: Adobe Illustrator 16.0.0, SVG Export Plug-In . SVG Version: 6.00 Build 0)  -->
<!DOCTYPE svg PUBLIC "-//W3C//DTD SVG 1.1//EN" "http://www.w3.org/Graphics/SVG/1.1/DTD/svg11.dtd">
<svg version="1.1" xmlns="http://www.w3.org/2000/svg" xmlns:xlink="http://www.w3.org/1999/xlink" x="0px" y="0px" width="250px"
	 height="250px" viewBox="0 0 250 250" enable-background="new 0 0 250 250" xml:space="preserve">
<g id="BG">
</g>
<g id="Layer_1">
	<g>
		<defs>
			<rect id="SVGID_1_" x="-2000" y="-800" width="250" height="250"/>
		</defs>
		<clipPath id="SVGID_2_">
			<use xlink:href="#SVGID_1_"  overflow="visible"/>
		</clipPath>
	</g>
	<g>
		<defs>
			<rect id="SVGID_9_" width="250" height="250"/>
		</defs>
		<clipPath id="SVGID_4_">
			<use xlink:href="#SVGID_9_"  overflow="visible"/>
		</clipPath>
		
			<rect x="-21.084" y="-9.731" clip-path="url(#SVGID_4_)" stroke="#000000" stroke-linecap="round" stroke-linejoin="round" stroke-miterlimit="10" width="275.861" height="71.068"/>
		<g clip-path="url(#SVGID_4_)">
			<path stroke="#000000" stroke-linecap="round" stroke-linejoin="round" stroke-miterlimit="10" d="M-11,56.337v95.12
				c4.529-0.83,7.907-3.734,12.725-3.135c4.281,0.334,8.561,1,13.2,1c6.065,0,7.848,3.334,13.198,4
				c5.351,0.667,13.913-2.333,17.838-4.333c6.421-3.667,4.994-2.333,11.771-0.333c3.925,1,10.346,1.666,14.269,0.333
				c8.563-2.333,8.92-5,16.411-1.667c9.632,3.667,11.061,0.334,18.907-3c12.486-5,23.544,2.667,35.315-2.333
				c7.85-3,9.991-3.333,18.193-4.333c6.066-0.667,13.558-5,19.622-2.334c4.995,2.334,7.136,6.334,13.557,7.334
				c2.854,0.666,7.135-0.667,9.631,0c3.569,1.333,3.925,5,7.492,6.333c5.351,1.667,13.912-3.667,20.334-2.667
				c6.779,1,10.702,5.334,18.192,4.667c3.148-0.185,6.078-0.771,9.029-0.927V56.337H-11z"/>
		</g>
		
			<path clip-path="url(#SVGID_4_)" fill="#00FFFF" stroke="#000000" stroke-linecap="round" stroke-linejoin="round" stroke-miterlimit="10" d="
			M226.569,118.165c-1.978-0.078-3.955,0.011-5.927,0.345c-10.887,1.845-13.779-0.91-23.922-4.338
			c-4.154-1.404-8.619-1.663-12.683-3.373c-3.755-1.581-6.877-4.727-10.893-5.679c-7.854-1.862-17.749,3.175-25.391,4.959
			c-10.325,2.41-19.826,2.024-30.2,3.059c-9.258,0.924-16.001,6.713-25.593,5.842c-17.407-1.58-35.884-1.458-52.624,3.388
			c-11.368,3.292-47.836-2.876-47.836-2.876v34.567c0,0-0.247,76.828,0,99.742c0.061,5.6,0.022,19.887,0.022,25.484h261.507
			c0-34.23-0.093-108.143,0.014-142.375c0.016-4.902,1.326-9.957,0-14.741C244.473,122.02,235.21,118.505,226.569,118.165z"/>
		
			<polygon clip-path="url(#SVGID_4_)" fill="#FFFF00" stroke="#000100" stroke-linecap="round" stroke-linejoin="round" stroke-miterlimit="10" points="
			23.584,133.575 22.35,142.682 29.15,148.861 20.109,150.5 16.332,158.877 11.98,150.787 2.848,149.785 9.197,143.145 
			7.326,134.148 15.607,138.136 		"/>
		<g clip-path="url(#SVGID_4_)">
			<path fill="#FF0000" stroke="#000100" stroke-linecap="round" stroke-linejoin="round" stroke-miterlimit="10" d="
				M188.039,13.673c-8.998-3.944-57.756-6.988-74.514,33.652c-5.432,13.174-3.232,29.916-12.314,39.691
				c2.705,0.367,6.502,0.719,9.072,1.055c1.234,0.161,5.102,0.658,5.816,0.749c43.816,5.558,67.211,6.536,87.197,7.18
				c0.391,0.013,0.631-14.546,1.018-14.533c1.277,0.041,5.385,14.785,6.627,14.825c1.365,0.044,11.611-0.045,12.939,0
				c-5.111-16.145-4.924-46.363-9.82-58.49C206.695,19.566,188.846,14.026,188.039,13.673z"/>
			<path fill="none" stroke="#000100" stroke-linecap="round" stroke-linejoin="round" stroke-miterlimit="10" d="M158.629,83.545"
				/>
			<path fill="#FFFF00" stroke="#000100" stroke-linecap="round" stroke-linejoin="round" stroke-miterlimit="10" d="
				M209.516,128.043c-2.689-5.295-8.381-36.709-18.328-41.539c-6.754-3.278-14.031-6.935-20.182-8.95v-3.567
				c21.785-0.007,24.756-16.813,24.756-16.813s4.574,2.296,6.727-2.619c2.154-4.915-2.242-9.485-4.844-7.875
				c0,0-0.088-0.05-0.258-0.15c-1.725-1.036-11.668-7.5-16.961-21.84c-13.631,8.519-41.047,11.731-41.195,11.769
				c-2.52-2.34-5.197-0.45-5.357,4.301c-0.131,3.925,1.648,3.95,3.141,5.229c0,0,0.475,0.766,0.627,1.336
				c2.465,9.129,7.756,20.64,20.988,24.904v3.831c-7.518,0.265-18.855,1.852-31.752,11.25
				c-15.875,11.57-16.953,14.798-18.836,14.798S68.219,87.709,68.219,87.709v9.021c0,0,25.021,14.74,27.715,15.846
				c2.691,1.106,8.607,4.335,12.107,4.335s27.986-13.723,30.408-15.069c1.232-0.685,1.02,10.767-2.658,23.754
				c-3.541,12.512-10.527,26.564-10.527,26.564s-0.594,17.512,4.25,34.465c4.844,16.951,11.57,1.344,11.57,1.344l9.74-12.936h7.805
				l4.574,25.209c0,0,18.297-0.27,18.566-18.029c0.27-17.759-1.076-15.792,0-22.787c0.574-3.721-2.631-19.805-1.223-31.51
				c1.24-10.304,7.143-16.489,7.143-18.001c0-3.229,7.105,17.026,10.604,21.869c3.498,4.844,6.324,43.994,6.324,43.994l10.896,2.763
				C215.514,178.541,212.205,133.34,209.516,128.043z"/>
			<path fill="#00FF00" stroke="#000100" stroke-linecap="round" stroke-linejoin="round" stroke-miterlimit="10" d="
				M181.488,129.975c0.811-9.311,6.164-14.99,6.854-21.809c1.342-13.301,3.078-21.542,3.078-21.542l-11.166-5.35
				c-1.68,19.362-11.197,22.131-17.629,21.572c-0.139-0.012-0.277-0.025-0.416-0.042c-0.145-0.009-0.281-0.018-0.42-0.03
				c-6.434-0.559-14.703-6.171-13.021-25.533c0,0-8.551,2.07-10.775,3.55c0,0-1.482,9.455-2.451,22.788
				c-0.496,6.836,0.994,10.789,0.186,20.101c-0.811,9.312-9.166,24.719-9.166,24.719l-0.174,2.025
				c0.004,0.038-0.018,0.073-0.01,0.11c14.807,2.298,23.334,14.651,24.926,24.849c0.549,0.086,1.922,0.218,4.283,0.419
				c0.141,0.013,0.279,0.024,0.418,0.037c0.137,0.011,0.279,0.023,0.418,0.036c2.361,0.209,2.119,0.315,2.674,0.326
				c3.326-9.771,7.17-21.051,22.152-20.76c0.014-0.036,0-0.074,0.01-0.11l0.176-2.024
				C181.434,153.307,180.678,139.286,181.488,129.975z"/>
			<path fill="none" stroke="#000100" stroke-linecap="round" stroke-linejoin="round" stroke-miterlimit="10" d="M163.203,60.5
				c2.389,3.992,8.461,3.16,10.076,1.545"/>
			
				<line fill="none" stroke="#000100" stroke-linecap="round" stroke-linejoin="round" stroke-miterlimit="10" x1="168.35" y1="51.255" x2="169.762" y2="51.255"/>
		</g>
		
			<path clip-path="url(#SVGID_4_)" fill="none" stroke="#000000" stroke-linecap="round" stroke-linejoin="round" stroke-miterlimit="10" d="
			M97.367,250.898c11.764-0.561,22.967-1.68,34.168-6.162c5.602-2.24,9.523-4.48,16.244-2.799c5.041,1.119,8.402,6.16,14.564,5.6"/>
		
			<path clip-path="url(#SVGID_4_)" fill="none" stroke="#000000" stroke-linecap="round" stroke-linejoin="round" stroke-miterlimit="10" d="
			M204.914,254.82c10.082-4.482,27.445-14.004,39.209-10.643c7.842,2.801,12.322,10.643,21.846,4.48"/>
		
			<path clip-path="url(#SVGID_4_)" fill="#00FFFF" stroke="#000000" stroke-linecap="round" stroke-linejoin="round" stroke-miterlimit="10" d="
			M-23.613,220.391v-72.9c4.742-0.93,8.277-4.184,13.32-3.512c4.48,0.373,8.963,1.121,13.816,1.121c6.348,0,8.215,3.734,13.816,4.48
			c5.602,0.747,14.563-2.613,18.672-4.854c6.721-4.109,5.227-2.615,12.322-0.375c4.107,1.121,10.83,1.867,14.936,0.375
			c8.963-2.615,9.338-5.602,17.18-1.868c10.082,4.108,11.574,0.374,19.791-3.36c13.068-5.602,24.645,2.987,36.969-2.614
			c8.215-3.36,10.455-3.734,19.043-4.854c6.35-0.746,14.191-5.602,20.539-2.614c5.229,2.614,7.469,7.095,14.189,8.216
			c2.988,0.746,7.469-0.747,10.084,0c3.734,1.494,4.107,5.602,7.842,7.096c5.602,1.866,14.563-4.109,21.285-2.988
			c7.096,1.12,11.201,5.975,19.043,5.229c3.295-0.207,6.361-0.863,9.451-1.039v66.824"/>
		<g clip-path="url(#SVGID_4_)">
			
				<ellipse fill="#FFFFFF" stroke="#000100" stroke-linecap="round" stroke-linejoin="round" stroke-miterlimit="10" cx="158.487" cy="42.25" rx="3.356" ry="2.794"/>
			
				<ellipse stroke="#000100" stroke-linecap="round" stroke-linejoin="round" stroke-miterlimit="10" cx="158.001" cy="43.604" rx="0.673" ry="0.618"/>
		</g>
		<g clip-path="url(#SVGID_4_)">
			
				<ellipse fill="#FFFFFF" stroke="#000100" stroke-linecap="round" stroke-linejoin="round" stroke-miterlimit="10" cx="179.415" cy="45.069" rx="3.356" ry="2.666"/>
			
				<ellipse stroke="#000100" stroke-linecap="round" stroke-linejoin="round" stroke-miterlimit="10" cx="178.785" cy="46.295" rx="0.672" ry="0.618"/>
		</g>
		<g clip-path="url(#SVGID_4_)">
			
				<line fill="none" stroke="#FF00FF" stroke-linecap="round" stroke-linejoin="round" stroke-miterlimit="10" x1="61.988" y1="115.223" x2="77.336" y2="41.25"/>
			<polygon fill="#FF00FF" stroke="#000100" stroke-linecap="round" stroke-linejoin="round" stroke-miterlimit="10" points="
				49.338,50.495 63.336,45.874 77.322,41.249 74.328,55.68 71.334,70.11 60.342,60.304 			"/>
		</g>
		
			<path clip-path="url(#SVGID_4_)" fill="#FFFF00" stroke="#000100" stroke-linecap="round" stroke-linejoin="round" stroke-miterlimit="10" d="
			M70.951,91.481c0.158-0.585-0.145-1.196-0.701-1.558c-0.211-0.195-0.457-0.362-0.768-0.446c0.895,0.242,1.787-0.179,1.992-0.938
			c0.207-0.759-0.355-1.574-1.25-1.815l-2.422-0.652c-0.895-0.241-1.785,0.181-1.992,0.941c-0.205,0.759-1.848,7.856-2.008,8.449
			c-0.207,0.76,0.354,1.571,1.25,1.813l2.42,0.652c0.898,0.242,1.789-0.179,1.994-0.938c0.205-0.761-0.357-1.573-1.252-1.813
			c0.895,0.24,1.787-0.18,1.994-0.939c0.156-0.587-0.148-1.197-0.699-1.559c-0.096-0.087-0.193-0.165-0.311-0.233
			C70.008,92.554,70.764,92.17,70.951,91.481z"/>
		
			<path clip-path="url(#SVGID_4_)" fill="#FFFF00" stroke="#000100" stroke-linecap="round" stroke-linejoin="round" stroke-miterlimit="10" d="
			M51.424-9.732c0,18.933-15.346,34.279-34.279,34.279c-18.932,0-34.277-15.346-34.277-34.279c0-18.928,15.346-34.276,34.277-34.276
			C36.078-44.008,51.424-28.66,51.424-9.732z"/>
		<g clip-path="url(#SVGID_4_)">
			<polygon fill="#0000FF" stroke="#000100" stroke-linecap="round" stroke-linejoin="round" stroke-miterlimit="10" points="
				115.299,149.383 89.871,149.383 94.74,124.081 110.432,124.081 			"/>
			<polygon fill="#0000FF" stroke="#000100" stroke-linecap="round" stroke-linejoin="round" stroke-miterlimit="10" points="
				127.844,200.22 77.326,200.22 87.063,142.305 118.109,142.305 			"/>
		</g>
		<g clip-path="url(#SVGID_4_)">
			
				<line fill="#0000FF" stroke="#000100" stroke-linecap="round" stroke-linejoin="round" stroke-miterlimit="10" x1="74.346" y1="171.833" x2="74.346" y2="154.195"/>
			<polygon fill="#FF00FF" stroke="#000100" stroke-linecap="round" stroke-linejoin="round" stroke-miterlimit="10" points="
				68.383,157.637 71.365,155.916 74.344,154.195 74.344,157.637 74.344,161.077 71.365,159.356 			"/>
			<polygon fill="#0000FF" stroke="#000100" stroke-linecap="round" stroke-linejoin="round" stroke-miterlimit="10" points="
				82.498,182.709 67.236,182.709 70.158,167.523 79.576,167.523 			"/>
			<g>
				<polygon fill="#0000FF" stroke="#000100" stroke-linecap="round" stroke-linejoin="round" stroke-miterlimit="10" points="
					84.184,178.461 65.551,178.461 62.074,199.137 87.66,199.137 				"/>
			</g>
		</g>
		
			<path clip-path="url(#SVGID_4_)" fill="#00FFFF" stroke="#000000" stroke-linecap="round" stroke-linejoin="round" stroke-miterlimit="10" d="
			M155.139,202.723c-5.248-0.582-16.256-14.424-21.877-12.015c-8.215,3.735-15.709,7.47-25.791,3.36
			c-7.842-3.733-8.217-0.746-17.178,1.868c-4.107,1.493-10.83,0.747-14.938-0.374c-7.094-2.24-5.602-3.734-12.322,0.374
			c-4.109,2.241-13.07,5.602-18.672,4.854"/>
		<g clip-path="url(#SVGID_4_)">
			
				<line fill="#0000FF" stroke="#000100" stroke-linecap="round" stroke-linejoin="round" stroke-miterlimit="10" x1="27" y1="195.137" x2="27" y2="173.58"/>
			<polygon fill="#FF00FF" stroke="#000100" stroke-linecap="round" stroke-linejoin="round" stroke-miterlimit="10" points="
				34.285,177.785 30.643,179.889 27,181.992 27,177.785 27,173.58 30.643,175.684 			"/>
			<polygon fill="#0000FF" stroke="#000100" stroke-linecap="round" stroke-linejoin="round" stroke-miterlimit="10" points="
				36.961,208.43 18.311,208.43 21.883,189.871 33.391,189.871 			"/>
			<polygon fill="#0000FF" stroke="#000100" stroke-linecap="round" stroke-linejoin="round" stroke-miterlimit="10" points="
				46.164,245.719 9.109,245.719 16.25,203.238 39.023,203.238 			"/>
		</g>
		
			<path clip-path="url(#SVGID_4_)" fill="#00FFFF" stroke="#000000" stroke-linecap="round" stroke-linejoin="round" stroke-miterlimit="10" d="
			M59.543,254.256c-5.246-0.582-18.254-16.424-23.877-14.014c-8.215,3.734-9.707,7.469-19.789,3.359
			c-7.844-3.732-8.217-0.746-17.18,1.869"/>
		
			<polygon clip-path="url(#SVGID_4_)" fill="#FFFF00" stroke="#000100" stroke-linecap="round" stroke-linejoin="round" stroke-miterlimit="10" points="
			106.232,225.754 105,234.861 111.801,241.041 102.76,242.68 98.982,251.057 94.629,242.967 85.498,241.965 91.848,235.324 
			89.977,226.328 98.256,230.314 		"/>
		<g clip-path="url(#SVGID_4_)">
			
				<line fill="#0000FF" stroke="#000100" stroke-linecap="round" stroke-linejoin="round" stroke-miterlimit="10" x1="213.279" y1="136.66" x2="213.279" y2="118.231"/>
			<polygon fill="#FF00FF" stroke="#000100" stroke-linecap="round" stroke-linejoin="round" stroke-miterlimit="10" points="
				219.508,121.826 216.393,123.624 213.279,125.423 213.279,121.826 213.279,118.231 216.393,120.029 			"/>
			<polygon fill="#0000FF" stroke="#000100" stroke-linecap="round" stroke-linejoin="round" stroke-miterlimit="10" points="
				221.795,148.024 205.85,148.024 208.904,132.158 218.742,132.158 			"/>
			<polygon fill="#0000FF" stroke="#000100" stroke-linecap="round" stroke-linejoin="round" stroke-miterlimit="10" points="
				229.664,179.902 197.984,179.902 204.088,143.586 223.559,143.586 			"/>
		</g>
		
			<path clip-path="url(#SVGID_4_)" fill="#00FFFF" stroke="#000000" stroke-linecap="round" stroke-linejoin="round" stroke-miterlimit="10" d="
			M67.012,238.822c5.686-3.477,5.66-1.836,11.096,0.125c5.439,1.961,11.891,0.979,17.576,1.23
			c8.742,0.389,17.836-2.141,26.369-4.025c6.525-1.441,12.91-4.768,19.682-5.971c8.646-1.535,31.77,5.996,40.652,5.996
			c18.975,0,26.533-8.414,45.457-5c8.662,1.563,17.012-0.791,25.01,2.59c3.953,1.67,16.098-5.484,20.033-3.793
			c6.781,2.914,3.074,15.074,10.182,15.762c3.998,0.387,19.727-0.785,22.156,2.424c0.834,1.1,0.084,4.096,0.039,5.379
			c-0.26,7.348-1.117,14.727-1.674,22.059c-1.439,18.955-2.879,37.912-4.318,56.867c-0.207,2.738-0.414,5.477-0.623,8.213"/>
		<g clip-path="url(#SVGID_4_)">
			
				<line fill="#0000FF" stroke="#000100" stroke-linecap="round" stroke-linejoin="round" stroke-miterlimit="10" x1="192.539" y1="214.619" x2="192.539" y2="185.187"/>
			<polygon fill="#FF00FF" stroke="#000100" stroke-linecap="round" stroke-linejoin="round" stroke-miterlimit="10" points="
				182.59,190.929 187.564,188.058 192.533,185.187 192.533,190.929 192.533,196.67 187.564,193.799 			"/>
			<polygon fill="#0000FF" stroke="#000100" stroke-linecap="round" stroke-linejoin="round" stroke-miterlimit="10" points="
				206.139,232.768 180.674,232.768 185.549,207.428 201.264,207.428 			"/>
			<polygon fill="#0000FF" stroke="#000100" stroke-linecap="round" stroke-linejoin="round" stroke-miterlimit="10" points="
				218.703,283.678 168.109,283.678 177.859,225.679 208.951,225.679 			"/>
			<g>
				<polygon fill="#0000FF" stroke="#000100" stroke-linecap="round" stroke-linejoin="round" stroke-miterlimit="10" points="
					216.721,242.902 170.088,242.902 163.146,284.197 223.664,284.197 				"/>
			</g>
		</g>
		
			<polygon clip-path="url(#SVGID_4_)" fill="#FFFF00" stroke="#000100" stroke-linecap="round" stroke-linejoin="round" stroke-miterlimit="10" points="
			174.395,165.8 174.266,173.487 180.518,177.51 173.174,180.273 166.455,181.779 158.779,182.383 163.396,175.925 160.961,168.813 
			168.223,170.799 		"/>
		
			<path clip-path="url(#SVGID_4_)" fill="#00FFFF" stroke="#000000" stroke-linecap="round" stroke-linejoin="round" stroke-miterlimit="10" d="
			M150.594,185.622l22.338-9.091c9.32-2.244,9.707-4.809,17.863-1.604c10.482,3.527,12.037,0.321,20.578-2.885
			c3.307-1.17,20.922,9.073,44.48,9.073"/>
	</g>
</g>
<g id="Layer_2">
</g>
</svg>
