<?xml version="1.0" encoding="utf-8"?>
<!-- Generator: Adobe Illustrator 16.0.0, SVG Export Plug-In . SVG Version: 6.00 Build 0)  -->
<!DOCTYPE svg PUBLIC "-//W3C//DTD SVG 1.1//EN" "http://www.w3.org/Graphics/SVG/1.1/DTD/svg11.dtd">
<svg version="1.1" xmlns="http://www.w3.org/2000/svg" xmlns:xlink="http://www.w3.org/1999/xlink" x="0px" y="0px" width="250px"
	 height="250px" viewBox="0 0 250 250" enable-background="new 0 0 250 250" xml:space="preserve">
<g id="BG">
	<rect width="250" height="250"/>
</g>
<g id="Layer_1">
	<g>
		<defs>
			<rect id="SVGID_1_" x="-2000" y="-1200" width="250" height="250"/>
		</defs>
		<clipPath id="SVGID_2_">
			<use xlink:href="#SVGID_1_"  overflow="visible"/>
		</clipPath>
	</g>
	
		<path fill="#FF00FF" stroke="#000100" stroke-width="5" stroke-linecap="round" stroke-linejoin="round" stroke-miterlimit="10" d="
		M209.434,250c0,0-11.1-45.715-55.941-67.188h-30.16h3.336H96.509C51.666,204.285,40.566,250,40.566,250"/>
	<g>
		
			<path fill="#FF00FF" stroke="#000100" stroke-width="5" stroke-linecap="round" stroke-linejoin="round" stroke-miterlimit="10" d="
			M220.498,49.396V23.563H195c-13.8,0-25.253,11.328-25.482,25.077c-8.419-4.702-24.281-11.034-44.675-11.126V37.51
			c-0.051,0-0.101,0.002-0.15,0.002c-0.101,0-0.2-0.002-0.3-0.002v0.006c-20.382,0.094-35.492,6.422-43.91,11.124
			C80.253,34.891,68.799,23.563,55,23.563H29.502v25.834c0,12.938,9.961,23.818,22.537,25.314
			C41.328,89.502,35.01,107.683,35.01,127.34c0,49.463,39.977,89.584,89.383,89.828v0.006c0.074,0,0.149-0.004,0.225-0.004
			c0.076,0,0.15,0.004,0.226,0.004v-0.006c49.41-0.244,90.146-40.365,90.146-89.828c0-19.657-6.317-37.838-17.03-52.629
			C210.537,73.215,220.498,62.334,220.498,49.396z"/>
		
			<ellipse fill="#FFFFFF" stroke="#000100" stroke-width="5" stroke-linecap="round" stroke-linejoin="round" stroke-miterlimit="10" cx="124.684" cy="156.51" rx="30.604" ry="21.235"/>
		<circle fill="#000100" cx="113.059" cy="156.077" r="5.952"/>
		<circle fill="#000100" cx="136.869" cy="156.077" r="5.952"/>
		<g>
			
				<circle fill="#FFFFFF" stroke="#000100" stroke-width="5" stroke-linecap="round" stroke-linejoin="round" stroke-miterlimit="10" cx="91.559" cy="90.82" r="11.648"/>
			<circle fill="#000100" cx="91.408" cy="97.652" r="6.756"/>
		</g>
		<g>
			
				<circle fill="#FFFFFF" stroke="#000100" stroke-width="5" stroke-linecap="round" stroke-linejoin="round" stroke-miterlimit="10" cx="160.658" cy="90.818" r="11.648"/>
			<circle fill="#000100" cx="160.809" cy="97.652" r="6.756"/>
		</g>
		
			<line fill="none" stroke="#000100" stroke-width="5" stroke-linecap="round" stroke-linejoin="round" stroke-miterlimit="10" x1="49.932" y1="44.658" x2="64.544" y2="60.753"/>
		
			<line fill="none" stroke="#000100" stroke-width="5" stroke-linecap="round" stroke-linejoin="round" stroke-miterlimit="10" x1="198.695" y1="44.658" x2="184.084" y2="60.753"/>
	</g>
</g>
<g id="Layer_2">
</g>
</svg>
