<?xml version="1.0" encoding="utf-8"?>
<!-- Generator: Adobe Illustrator 16.0.0, SVG Export Plug-In . SVG Version: 6.00 Build 0)  -->
<!DOCTYPE svg PUBLIC "-//W3C//DTD SVG 1.1//EN" "http://www.w3.org/Graphics/SVG/1.1/DTD/svg11.dtd">
<svg version="1.1" xmlns="http://www.w3.org/2000/svg" xmlns:xlink="http://www.w3.org/1999/xlink" x="0px" y="0px" width="250px"
	 height="250px" viewBox="0 0 250 250" enable-background="new 0 0 250 250" xml:space="preserve">
<g id="BG">
</g>
<g id="Layer_1">
	<g>
		<defs>
			<rect id="SVGID_1_" x="-400" y="-1600" width="250" height="250"/>
		</defs>
		<clipPath id="SVGID_2_">
			<use xlink:href="#SVGID_1_"  overflow="visible"/>
		</clipPath>
	</g>
</g>
<g id="Layer_2">
	<g>
		<defs>
			<rect id="SVGID_119_" width="250" height="250"/>
		</defs>
		<clipPath id="SVGID_4_">
			<use xlink:href="#SVGID_119_"  overflow="visible"/>
		</clipPath>
		<rect clip-path="url(#SVGID_4_)" width="250" height="250"/>
		
			<circle clip-path="url(#SVGID_4_)" fill="#FFFFFF" stroke="#000100" stroke-width="5.1694" stroke-linecap="round" stroke-linejoin="round" stroke-miterlimit="10" cx="214.266" cy="51.276" r="8.033"/>
		
			<circle clip-path="url(#SVGID_4_)" fill="#FFFFFF" stroke="#000100" stroke-width="5.1694" stroke-linecap="round" stroke-linejoin="round" stroke-miterlimit="10" cx="225.9" cy="99.913" r="8.034"/>
		
			<circle clip-path="url(#SVGID_4_)" fill="#FFFFFF" stroke="#000100" stroke-width="5.1694" stroke-linecap="round" stroke-linejoin="round" stroke-miterlimit="10" cx="241.967" cy="19.986" r="8.033"/>
		
			<circle clip-path="url(#SVGID_4_)" fill="#FFFFFF" stroke="#000100" stroke-width="5.1694" stroke-linecap="round" stroke-linejoin="round" stroke-miterlimit="10" cx="73.014" cy="8.034" r="8.033"/>
		
			<circle clip-path="url(#SVGID_4_)" fill="#FFFFFF" stroke="#000100" stroke-width="5.1694" stroke-linecap="round" stroke-linejoin="round" stroke-miterlimit="10" cx="189.625" cy="3.919" r="8.033"/>
		
			<circle clip-path="url(#SVGID_4_)" fill="#FFFFFF" stroke="#000100" stroke-width="5.1694" stroke-linecap="round" stroke-linejoin="round" stroke-miterlimit="10" cx="19.355" cy="97.365" r="8.033"/>
		
			<circle clip-path="url(#SVGID_4_)" fill="#FFFFFF" stroke="#000100" stroke-width="5.1694" stroke-linecap="round" stroke-linejoin="round" stroke-miterlimit="10" cx="48.963" cy="66.498" r="8.033"/>
		
			<circle clip-path="url(#SVGID_4_)" fill="#FFFFFF" stroke="#000100" stroke-width="5.1694" stroke-linecap="round" stroke-linejoin="round" stroke-miterlimit="10" cx="24.791" cy="32.266" r="8.034"/>
		
			<path clip-path="url(#SVGID_4_)" fill="none" stroke="#FFFFFF" stroke-width="5.1694" stroke-linecap="round" stroke-linejoin="round" stroke-miterlimit="10" d="
			M-6.668,206.846c-40.666,40.667,70.647-20.737,113.031,0c42.383,20.737,91.437,9.847,119.536-4.41s94.1,18.668,94.1,18.668"/>
		<g clip-path="url(#SVGID_4_)">
			
				<ellipse fill="#00FFFF" stroke="#000100" stroke-width="5.1694" stroke-linecap="round" stroke-linejoin="round" stroke-miterlimit="10" cx="56.996" cy="146.607" rx="16.018" ry="12.502"/>
			
				<ellipse fill="#00FFFF" stroke="#000100" stroke-width="5.1694" stroke-linecap="round" stroke-linejoin="round" stroke-miterlimit="10" cx="189.625" cy="146.607" rx="16.018" ry="12.502"/>
			<g>
				<g>
					<path fill="#000100" d="M129.643,162.288c0,2.528-2.198,4.579-4.92,4.579c-2.715,0-4.919-2.051-4.919-4.579
						c0-2.522,2.204-4.57,4.919-4.57C127.444,157.718,129.643,159.766,129.643,162.288z"/>
				</g>
			</g>
			<g>
				<g>
					<path fill="#000100" d="M129.643,184.068c0,2.53-2.198,4.579-4.92,4.579c-2.715,0-4.919-2.049-4.919-4.579
						c0-2.521,2.204-4.568,4.919-4.568C127.444,179.5,129.643,181.547,129.643,184.068z"/>
				</g>
			</g>
			
				<path fill="#00FFFF" stroke="#000100" stroke-width="5.1694" stroke-linecap="round" stroke-linejoin="round" stroke-miterlimit="10" d="
				M90.808,113.057c-20.753,9.017-33.794,26.305-33.794,46.122c0,29.093,3.307,70.836,67.596,70.836
				c64.288,0,67.6-41.743,67.6-70.836c0-19.856-12.581-37.178-33.405-46.178c-9.276,4.914-22.118,7.804-34.306,7.804
				C112.35,120.805,100.066,117.935,90.808,113.057z"/>
			
				<circle fill="#000100" stroke="#000100" stroke-width="5.1694" stroke-linecap="round" stroke-linejoin="round" stroke-miterlimit="10" cx="124.807" cy="150.391" r="4.836"/>
			
				<circle fill="#000100" stroke="#000100" stroke-width="5.1694" stroke-linecap="round" stroke-linejoin="round" stroke-miterlimit="10" cx="124.807" cy="171.98" r="4.836"/>
			
				<circle fill="#000100" stroke="#000100" stroke-width="5.1694" stroke-linecap="round" stroke-linejoin="round" stroke-miterlimit="10" cx="124.807" cy="193.571" r="4.836"/>
			
				<path fill="#00FFFF" stroke="#000100" stroke-width="5.1694" stroke-linecap="round" stroke-linejoin="round" stroke-miterlimit="10" d="
				M124.803,54.609c-23.82,0-43.204,16.201-43.204,36.118c0,9.135,4.108,17.464,10.815,23.831c0,0,7,9.494,30.107,9.494
				c23.106,0,35.865-10.637,35.865-10.637c6.01-6.21,9.629-14.099,9.629-22.688C168.018,70.81,148.631,54.609,124.803,54.609z"/>
			
				<path fill="#FF00FF" stroke="#000100" stroke-width="5.1694" stroke-linecap="round" stroke-linejoin="round" stroke-miterlimit="10" d="
				M102.632,113.114c-1.38-1.897,13.616-21.239,17.692-21.235c4.077,0.002,8.916,8.045,7.969,10.965
				C127.348,105.764,104.011,115.012,102.632,113.114z"/>
			<g>
				<g>
					<path fill="#000100" d="M133.191,74.456c2.786,0,5.024,2.764,5.024,6.177c0,3.416-2.247,6.186-5.024,6.186
						c-2.766,0-5.021-2.77-5.021-6.186C128.166,77.22,130.426,74.456,133.191,74.456z"/>
				</g>
			</g>
			<g>
				<g>
					<ellipse fill="#000100" cx="112.245" cy="80.25" rx="5.025" ry="6.182"/>
				</g>
			</g>
			<g>
				
					<path fill="#FF00FF" stroke="#000100" stroke-width="5.1694" stroke-linecap="round" stroke-linejoin="round" stroke-miterlimit="10" d="
					M92.703,56.888c0.631,0,1.146-0.515,1.146-1.142C93.85,56.373,93.334,56.886,92.703,56.888z"/>
				
					<path fill="#FF00FF" stroke="#000100" stroke-width="5.1694" stroke-linecap="round" stroke-linejoin="round" stroke-miterlimit="10" d="
					M166.123,57.726h-5.271V37.244c0-9.53-7.716-17.258-17.251-17.258h-36.566c-9.533,0-17.258,7.728-17.258,17.258v17.354v3.127
					h-7.904c-2.412,0-4.387,1.96-4.387,4.386c0,2.422,1.975,4.387,4.387,4.387h7.904h71.075h5.271c2.436,0,4.387-1.965,4.387-4.387
					C170.51,59.686,168.552,57.726,166.123,57.726z"/>
			</g>
		</g>
	</g>
</g>
</svg>
