<?xml version="1.0" encoding="utf-8"?>
<!-- Generator: Adobe Illustrator 16.0.0, SVG Export Plug-In . SVG Version: 6.00 Build 0)  -->
<!DOCTYPE svg PUBLIC "-//W3C//DTD SVG 1.1//EN" "http://www.w3.org/Graphics/SVG/1.1/DTD/svg11.dtd">
<svg version="1.1" xmlns="http://www.w3.org/2000/svg" xmlns:xlink="http://www.w3.org/1999/xlink" x="0px" y="0px"
	 width="453.543px" height="453.543px" viewBox="0 0 453.543 453.543" enable-background="new 0 0 453.543 453.543"
	 xml:space="preserve">
<g id="kvadrat" display="none">
	
		<rect x="-453.543" y="-453.543" display="inline" fill="none" stroke="#BD1622" stroke-width="0.3359" stroke-miterlimit="10" width="453.543" height="453.543"/>
	
		<rect y="-453.543" display="inline" fill="none" stroke="#BD1622" stroke-width="0.3359" stroke-miterlimit="10" width="453.543" height="453.543"/>
	
		<rect x="453.543" y="-453.543" display="inline" fill="none" stroke="#BD1622" stroke-width="0.3359" stroke-miterlimit="10" width="453.543" height="453.543"/>
</g>
<g id="Layer_1" display="none">
</g>
<g id="Layer_2">
	<g id="rdeÄa7bela">
	</g>
	<g>
		<path fill="#C6C6C5" stroke="#1D1D1B" stroke-width="8" stroke-linecap="round" stroke-miterlimit="10" d="M152.342,160.176
			c-0.633-3.845-3.685-7.963-10.688-12.285l-39.921-24.633c-12.043-7.432-15.127-2.76-18.745,3.104
			c-3.626,5.876-6.414,10.721,5.629,18.152l39.921,24.633c7.004,4.322,12.053,5.208,15.773,4.043l55.925,34.51l8.03-13.016
			L152.342,160.176z"/>
		<path fill="#57B2E5" stroke="#1D1D1B" stroke-width="8" stroke-linecap="round" stroke-miterlimit="10" d="M371.778,295.3
			L194.402,185.849c-1.055,1.524-2.079,3.084-3.063,4.68c-30.268,49.052-15.04,113.353,34.011,143.619
			c49.052,30.269,113.352,15.04,143.62-34.011C369.954,298.541,370.889,296.927,371.778,295.3z M213.349,230.188
			c-3.24-2-4.246-6.246-2.247-9.485s6.246-4.245,9.485-2.247c3.24,2,4.245,6.246,2.247,9.485
			C220.835,231.181,216.589,232.186,213.349,230.188z M217.097,268.741c-3.24-1.999-4.246-6.245-2.247-9.485
			c1.999-3.239,6.246-4.245,9.485-2.246c3.239,1.999,4.245,6.246,2.246,9.485S220.336,270.74,217.097,268.741z M218.861,306.133
			c-3.239-1.998-4.245-6.245-2.246-9.484c1.999-3.24,6.246-4.246,9.485-2.246c3.239,1.998,4.245,6.245,2.246,9.484
			C226.348,307.127,222.101,308.133,218.861,306.133z M251.281,253.594c-3.239-1.999-4.245-6.246-2.246-9.485
			s6.246-4.245,9.485-2.246s4.245,6.245,2.246,9.485C258.768,254.587,254.521,255.593,251.281,253.594z M255.029,292.148
			c-3.24-2-4.245-6.246-2.246-9.485c1.999-3.24,6.246-4.246,9.485-2.247c3.24,1.999,4.246,6.246,2.247,9.485
			S258.269,294.146,255.029,292.148z M256.794,329.54c-3.24-1.999-4.245-6.246-2.246-9.485c1.999-3.24,6.246-4.245,9.485-2.246
			c3.239,1.998,4.245,6.245,2.246,9.484C264.28,330.533,260.033,331.539,256.794,329.54z M289.214,277
			c-3.239-1.999-4.245-6.246-2.246-9.485s6.246-4.245,9.485-2.246c3.239,1.999,4.245,6.245,2.246,9.485
			C296.7,277.993,292.454,278.999,289.214,277z M292.961,315.555c-3.24-1.999-4.246-6.246-2.247-9.485
			c1.999-3.24,6.246-4.245,9.485-2.247c3.239,1.999,4.245,6.246,2.246,9.486C300.447,316.548,296.201,317.554,292.961,315.555z
			 M327.146,300.406c-3.24-1.999-4.245-6.246-2.246-9.485c1.999-3.239,6.246-4.245,9.485-2.246c3.24,1.999,4.245,6.246,2.247,9.485
			C334.633,301.399,330.386,302.405,327.146,300.406z"/>
	</g>
</g>
<g id="pivot" display="none">
	<circle display="inline" fill="#EC008C" cx="225.827" cy="341.854" r="7.856"/>
</g>
</svg>
