<?xml version="1.0" encoding="utf-8"?>
<!-- Generator: Adobe Illustrator 16.0.0, SVG Export Plug-In . SVG Version: 6.00 Build 0)  -->
<!DOCTYPE svg PUBLIC "-//W3C//DTD SVG 1.1//EN" "http://www.w3.org/Graphics/SVG/1.1/DTD/svg11.dtd">
<svg version="1.1" xmlns="http://www.w3.org/2000/svg" xmlns:xlink="http://www.w3.org/1999/xlink" x="0px" y="0px"
	 width="453.543px" height="453.543px" viewBox="0 0 453.543 453.543" enable-background="new 0 0 453.543 453.543"
	 xml:space="preserve">
<g id="kvadrat">
	
		<rect x="-2.789" y="451.394" fill="none" stroke="#BD1622" stroke-width="0.3359" stroke-miterlimit="10" width="453.543" height="453.542"/>
	
		<rect x="450.754" y="451.394" fill="none" stroke="#BD1622" stroke-width="0.3359" stroke-miterlimit="10" width="453.543" height="453.542"/>
</g>
<g id="Layer_1">
</g>
<g id="Layer_2">
	<g id="rdeÄa7bela">
	</g>
	<g>
		<path fill="none" stroke="#000000" stroke-width="8" stroke-linecap="round" stroke-linejoin="round" stroke-miterlimit="10" d="
			M130.288,106.174l23.048,234.562l0.449,4.961c0.932,8.966,6.938,21.294,30.345,28.898c17.489,5.687,36.41,6.337,42.376,6.337
			h0.381c5.961,0,24.877-0.65,42.371-6.337c23.403-7.604,29.426-19.909,30.342-28.848l0.493-5.39l23.139-235.512
			c0.019-0.182,0.019-0.372,0.019-0.56"/>
		<path fill="none" stroke="#000000" stroke-width="8" stroke-linecap="round" stroke-linejoin="round" stroke-miterlimit="10" d="
			M130.33,99.914c3.978-13.133,41.986-27.303,96.459-27.303c54.469,0,92.472,14.169,96.45,27.303
			c0.222,0.753,0.325,1.475,0.292,2.814c-0.021,0.19-0.034,0.36-0.021,0.542l-0.112,1.163
			c-10.83,14.148-50.816,24.669-96.609,24.669c-45.785,0-85.779-10.521-96.604-24.659l-0.156-1.608c0.002-0.25,0-0.503-0.023-0.737
			C130.006,101.376,130.123,100.662,130.33,99.914z"/>
	</g>
</g>
</svg>
