<?xml version="1.0" encoding="utf-8"?>
<!-- Generator: Adobe Illustrator 16.0.0, SVG Export Plug-In . SVG Version: 6.00 Build 0)  -->
<!DOCTYPE svg PUBLIC "-//W3C//DTD SVG 1.1//EN" "http://www.w3.org/Graphics/SVG/1.1/DTD/svg11.dtd">
<svg version="1.1" xmlns="http://www.w3.org/2000/svg" xmlns:xlink="http://www.w3.org/1999/xlink" x="0px" y="0px"
	 width="453.543px" height="453.543px" viewBox="0 0 453.543 453.543" enable-background="new 0 0 453.543 453.543"
	 xml:space="preserve">
<g id="kvadrat" display="none">
	
		<rect x="-453.545" y="-453.543" display="inline" fill="none" stroke="#BD1622" stroke-width="0.3359" stroke-miterlimit="10" width="453.545" height="453.543"/>
	
		<rect y="-453.543" display="inline" fill="none" stroke="#BD1622" stroke-width="0.3359" stroke-miterlimit="10" width="453.543" height="453.543"/>
	
		<rect x="453.543" y="-453.543" display="inline" fill="none" stroke="#BD1622" stroke-width="0.3359" stroke-miterlimit="10" width="453.543" height="453.543"/>
</g>
<g id="Layer_1" display="none">
</g>
<g id="Layer_2">
	<g id="rdeÄa7bela">
	</g>
	<g>
		<path opacity="0.5" fill="#FFFFFF" d="M311.497,131.018c1.104-0.699,1.932-1.437,2.451-2.213l0.7-0.632h-0.35
			c0.093-0.212,0.171-0.425,0.218-0.643h0.088c-0.006-0.103-0.026-0.201-0.037-0.303c0.01-0.104,0.031-0.206,0.037-0.311h-0.09
			c-2.36-10.726-61.548-18.826-94.879-18.826c-33.348,0-92.563,8.104-94.881,18.841h-0.086c0.006,0.101,0.022,0.202,0.037,0.3
			c-0.015,0.104-0.031,0.209-0.037,0.314h0.088c0.324,1.47,1.722,2.812,3.968,4.032l81.593,76.35v126.965
			c0,0-35.707,12.368-35.707,16.099c0,3.729,19.996,3,45.585,3s44.6,1.257,44.6-3s-37.354-16.084-37.354-16.084V207.928
			L311.497,131.018z"/>
		<path fill="none" stroke="#000000" stroke-width="8" stroke-linecap="round" stroke-linejoin="round" stroke-miterlimit="10" d="
			M311.497,131.018c1.104-0.699,1.932-1.437,2.451-2.213l0.7-0.632h-0.35c0.093-0.212,0.171-0.425,0.218-0.643h0.088
			c-0.006-0.103-0.026-0.201-0.037-0.303c0.01-0.104,0.031-0.206,0.037-0.311h-0.09c-2.36-10.726-61.548-18.826-94.879-18.826
			c-33.348,0-92.563,8.104-94.881,18.841h-0.086c0.006,0.101,0.022,0.202,0.037,0.3c-0.015,0.104-0.031,0.209-0.037,0.314h0.088
			c0.324,1.47,1.722,2.812,3.968,4.032l81.593,76.35v126.965c0,0-35.707,12.368-35.707,16.099c0,3.729,19.996,3,45.585,3
			s44.6,1.257,44.6-3s-37.354-16.084-37.354-16.084V207.928L311.497,131.018z"/>
		<g>
			<path fill="none" stroke="#000000" stroke-width="8" stroke-linecap="round" stroke-linejoin="round" stroke-miterlimit="10" d="
				M314.647,128.173h-0.35c-0.094,0.214-0.211,0.424-0.35,0.632L314.647,128.173z"/>
			<path fill="none" stroke="#000000" stroke-width="8" stroke-linecap="round" stroke-linejoin="round" stroke-miterlimit="10" d="
				M227.441,334.907V207.928l84.055-76.91c-12.792,8.111-62.411,11.173-91.862,11.173c-28.761,0-76.769-2.921-90.911-10.612
				l81.593,76.35v126.965c0,0-35.707,12.368-35.707,16.099c0,3.729,19.996,3,45.585,3s44.6,1.257,44.6-3
				S227.441,334.907,227.441,334.907z"/>
		</g>
	</g>
</g>
<g id="pivot" display="none">
	<circle display="inline" fill="#EC008C" cx="219.656" cy="346.308" r="7.856"/>
</g>
</svg>
