<?xml version="1.0" encoding="utf-8"?>
<!-- Generator: Adobe Illustrator 16.0.0, SVG Export Plug-In . SVG Version: 6.00 Build 0)  -->
<!DOCTYPE svg PUBLIC "-//W3C//DTD SVG 1.1//EN" "http://www.w3.org/Graphics/SVG/1.1/DTD/svg11.dtd">
<svg version="1.1" xmlns="http://www.w3.org/2000/svg" xmlns:xlink="http://www.w3.org/1999/xlink" x="0px" y="0px"
	 width="453.543px" height="453.543px" viewBox="0 0 453.543 453.543" enable-background="new 0 0 453.543 453.543"
	 xml:space="preserve">
<g id="kvadrat">
	
		<rect x="-2.789" y="451.394" fill="none" stroke="#BD1622" stroke-width="0.3359" stroke-miterlimit="10" width="453.543" height="453.542"/>
	
		<rect x="450.754" y="451.394" fill="none" stroke="#BD1622" stroke-width="0.3359" stroke-miterlimit="10" width="453.543" height="453.542"/>
</g>
<g id="Layer_1">
</g>
<g id="Layer_2">
	<g id="rdeÄa7bela">
	</g>
	<g>
		<g>
			<path fill="#D45F14" d="M205.895,225.327c6.826,0.953,13.824,1.526,20.803,1.526c7.467,0,14.958-0.655,22.235-1.732
				c-7.289,0.656-14.918,1.01-22.745,1.01C219.233,226.131,212.438,225.849,205.895,225.327z"/>
			<path fill="#D45F14" d="M307.474,208.037c-10.142,8.298-32.068,14.704-58.541,17.084c-7.277,1.077-14.769,1.732-22.235,1.732
				c-6.979,0-13.977-0.573-20.803-1.526c-28.482-2.27-52.061-9.18-61.986-18.148c-2.052-0.899-3.172-1.425-3.168-1.395
				l12.596,134.952l0.449,4.961c0.932,8.966,6.938,21.294,30.345,28.898c17.489,5.687,36.41,6.337,42.376,6.337h0.381
				c5.961,0,24.877-0.65,42.371-6.337c23.403-7.604,29.426-19.909,30.342-28.848l0.493-5.39l12.528-134.573
				C312.625,205.746,310.777,206.624,307.474,208.037z"/>
			<path fill="#D45F14" d="M226.188,226.131c7.827,0,15.456-0.354,22.745-1.01c26.473-2.38,48.399-8.787,58.541-17.084
				c1.411-1.155,2.603-2.344,3.538-3.566l0.098-1.021c-0.012-0.16,0-0.309,0.019-0.476c0.029-1.176-0.062-1.81-0.257-2.471
				c-3.492-11.531-36.859-23.972-84.684-23.972c-47.827,0-81.199,12.441-84.691,23.972c-0.182,0.657-0.285,1.284-0.285,1.917
				c0.021,0.206,0.022,0.427,0.021,0.647l0.138,1.412c0.703,0.918,1.563,1.818,2.539,2.699c9.926,8.968,33.504,15.878,61.986,18.148
				C212.438,225.849,219.233,226.131,226.188,226.131z"/>
		</g>
		<path fill="none" stroke="#000000" stroke-width="8" stroke-linecap="round" stroke-linejoin="round" stroke-miterlimit="10" d="
			M130.288,106.174l23.048,234.562l0.449,4.961c0.932,8.966,6.938,21.294,30.345,28.898c17.489,5.687,36.41,6.337,42.376,6.337
			h0.381c5.961,0,24.877-0.65,42.371-6.337c23.403-7.604,29.426-19.909,30.342-28.848l0.493-5.39l23.139-235.512
			c0.019-0.182,0.019-0.372,0.019-0.56"/>
		
			<path fill="#D45F14" stroke="#000000" stroke-width="8" stroke-linecap="round" stroke-linejoin="round" stroke-miterlimit="10" d="
			M141.496,200.503c3.492-11.531,36.864-23.972,84.691-23.972c47.824,0,81.191,12.441,84.684,23.972
			c0.195,0.661,0.286,1.295,0.257,2.471c-0.019,0.167-0.03,0.316-0.019,0.476l-0.098,1.021c-9.509,12.422-44.617,21.66-84.824,21.66
			c-40.199,0-75.315-9.238-84.818-21.651l-0.138-1.412c0.002-0.22,0-0.442-0.021-0.647
			C141.211,201.787,141.314,201.161,141.496,200.503z"/>
		<path fill="none" stroke="#000000" stroke-width="8" stroke-linecap="round" stroke-linejoin="round" stroke-miterlimit="10" d="
			M130.33,99.914c3.978-13.133,41.986-27.303,96.459-27.303c54.469,0,92.472,14.169,96.45,27.303
			c0.222,0.753,0.325,1.475,0.292,2.814c-0.021,0.19-0.034,0.36-0.021,0.542l-0.112,1.163
			c-10.83,14.148-50.816,24.669-96.609,24.669c-45.785,0-85.779-10.521-96.604-24.659l-0.156-1.608c0.002-0.25,0-0.503-0.023-0.737
			C130.006,101.376,130.123,100.662,130.33,99.914z"/>
	</g>
</g>
</svg>
