<?xml version="1.0" encoding="utf-8"?>
<!-- Generator: Adobe Illustrator 16.0.0, SVG Export Plug-In . SVG Version: 6.00 Build 0)  -->
<!DOCTYPE svg PUBLIC "-//W3C//DTD SVG 1.1//EN" "http://www.w3.org/Graphics/SVG/1.1/DTD/svg11.dtd">
<svg version="1.1" xmlns="http://www.w3.org/2000/svg" xmlns:xlink="http://www.w3.org/1999/xlink" x="0px" y="0px"
	 width="453.543px" height="453.543px" viewBox="0 0 453.543 453.543" enable-background="new 0 0 453.543 453.543"
	 xml:space="preserve">
<g id="kvadrat" display="none">
	
		<rect x="-450.818" y="450.929" display="inline" fill="none" stroke="#BD1622" stroke-width="0.3359" stroke-miterlimit="10" width="453.543" height="453.542"/>
	
		<rect y="450.929" display="inline" fill="none" stroke="#BD1622" stroke-width="0.3359" stroke-miterlimit="10" width="453.543" height="453.542"/>
	
		<rect x="453.543" y="450.929" display="inline" fill="none" stroke="#BD1622" stroke-width="0.3359" stroke-miterlimit="10" width="453.543" height="453.542"/>
	
		<rect x="-450.818" display="inline" fill="none" stroke="#BD1622" stroke-width="0.3359" stroke-miterlimit="10" width="453.543" height="453.543"/>
	
		<rect display="inline" fill="none" stroke="#BD1622" stroke-width="0.3359" stroke-miterlimit="10" width="453.543" height="453.543"/>
	
		<rect x="453.543" display="inline" fill="none" stroke="#BD1622" stroke-width="0.3359" stroke-miterlimit="10" width="453.543" height="453.543"/>
</g>
<g id="Layer_1">
</g>
<g id="Layer_2">
	<g id="rdeÄa7bela">
	</g>
	<g>
		
			<path fill="#FFFFFF" stroke="#000000" stroke-width="8" stroke-linecap="round" stroke-linejoin="round" stroke-miterlimit="10" d="
			M370.842,171.125c0-23.741-54.24-50.98-142.878-50.98c-0.045,0-0.09,0-0.135,0.001c-0.045,0-0.09-0.001-0.135-0.001
			c-88.639,0-142.878,27.239-142.878,50.98c0,15.486,74.152,149.228,74.152,149.228c21.404,10.446,45.374,13.043,68.849,13.043
			s47.47-2.598,68.874-13.043C296.69,320.354,370.842,186.612,370.842,171.125z"/>
		<g>
			
				<path fill="#EED2A3" stroke="#000000" stroke-width="8" stroke-linecap="round" stroke-linejoin="round" stroke-miterlimit="10" d="
				M123.832,186.954c22.67,9.669,61.259,16.06,103.854,16.06c42.573,0,81.133-6.382,103.81-16.043
				c-22.671-9.669-61.259-16.06-103.854-16.06C185.068,170.91,146.508,177.292,123.832,186.954z"/>
		</g>
		<path fill="none" stroke="#000000" stroke-width="8" stroke-linecap="round" stroke-linejoin="round" stroke-miterlimit="10" d="
			M321.004,152.91c15.839,5.292,25.663,11.664,27.783,17.83c0.278,0.833,0.409,1.631,0.367,3.112c-0.025,0.21-0.042,0.397-0.025,0.6
			l-0.143,1.285c-13.596,15.643-63.804,27.277-121.3,27.277c-57.486,0-107.705-11.634-121.295-27.266l-0.197-1.778
			c0.005-0.276,0-0.556-0.028-0.815c0-0.798,0.146-1.587,0.41-2.415c2.115-6.156,11.912-12.518,27.708-17.805"/>
	</g>
</g>
</svg>
