<?xml version="1.0" encoding="utf-8"?>
<!-- Generator: Adobe Illustrator 16.0.0, SVG Export Plug-In . SVG Version: 6.00 Build 0)  -->
<!DOCTYPE svg PUBLIC "-//W3C//DTD SVG 1.1//EN" "http://www.w3.org/Graphics/SVG/1.1/DTD/svg11.dtd">
<svg version="1.1" xmlns="http://www.w3.org/2000/svg" xmlns:xlink="http://www.w3.org/1999/xlink" x="0px" y="0px"
	 width="453.543px" height="453.543px" viewBox="0 0 453.543 453.543" enable-background="new 0 0 453.543 453.543"
	 xml:space="preserve">
<g id="kvadrat" display="none">
	
		<rect x="-450.009" y="450.929" display="inline" fill="none" stroke="#BD1622" stroke-width="0.3359" stroke-miterlimit="10" width="453.543" height="453.542"/>
	
		<rect y="450.929" display="inline" fill="none" stroke="#BD1622" stroke-width="0.3359" stroke-miterlimit="10" width="453.543" height="453.542"/>
	
		<rect x="-450.009" display="inline" fill="none" stroke="#BD1622" stroke-width="0.3359" stroke-miterlimit="10" width="453.543" height="453.543"/>
	
		<rect display="inline" fill="none" stroke="#BD1622" stroke-width="0.3359" stroke-miterlimit="10" width="453.543" height="453.543"/>
</g>
<g id="Layer_1">
</g>
<g id="Layer_2">
	<g id="rdeÄa7bela">
	</g>
	<g>
		<g>
			
				<path fill="#FFFFFF" stroke="#010101" stroke-width="8" stroke-linecap="round" stroke-linejoin="round" stroke-miterlimit="10" d="
				M358.263,180.127c-8.778-7.965-20.957-12.352-34.293-12.352c-4.09,0-7.976,0.496-12.23,1.559l-7.506,1.877l0.051-7.737
				c0.023-3.537,0.038-7.227,0.038-11.085c0-11.827-11.542-21.893-33.377-29.11c-19.396-6.41-45.077-9.94-72.314-9.94
				c-27.227,0-52.91,3.53-72.318,9.94c-21.834,7.215-33.375,17.281-33.375,29.11c0,43.11,1.476,77.308,8.679,104.078
				c6.864,25.466,18.883,44.971,40.191,65.224c12.733,12.11,32.38,18.512,56.817,18.512s44.086-6.401,56.823-18.514
				c16.257-15.449,27.233-31.201,35.59-51.074l0.09-0.203c1.375-2.977,4.233-4.172,6.266-4.813c4.157-1.309,9.538-1.477,13.76-1.477
				c1.825,0,3.702,0.038,5.548,0.076l1.077,0.022c1.922,0.049,4.145,0.102,6.194,0.102c13.103,0,25.459-5.58,34.796-15.714
				c8.793-9.532,13.837-22.291,13.837-35.007C372.606,200.396,367.513,188.508,358.263,180.127z M323.373,235.548
				c-0.543,0.058-1.157,0.086-1.866,0.086l-0.116,0c-1.904,0-4.219-0.151-6.671-0.311c-2.898-0.189-6.182-0.404-9.396-0.404
				c-2.171,0-4.158,0.101-5.984,0.306c1.249-9.276,2.859-21.299,3.381-27.54c4.353-7.072,12.027-11.1,21.251-11.1
				c12.414,0,19.825,6.361,19.825,17.018C343.798,224.755,334.826,234.395,323.373,235.548z"/>
		</g>
		
			<path fill="#FFFFFF" stroke="#000000" stroke-width="8" stroke-linecap="round" stroke-linejoin="round" stroke-miterlimit="10" d="
			M258.459,139.618c10.293,3.905,16.678,8.608,18.056,13.158c0.181,0.615,0.266,1.204,0.238,2.296
			c-0.017,0.155-0.028,0.293-0.017,0.443l-0.091,0.948c-8.837,11.545-41.466,20.131-78.833,20.131
			c-37.36,0-69.997-8.586-78.829-20.122l-0.127-1.313c0.002-0.204,0-0.41-0.019-0.602c0-0.589,0.096-1.171,0.266-1.782
			c1.375-4.543,7.742-9.238,18.009-13.14"/>
		<g>
			
				<path fill="#F8B133" stroke="#000000" stroke-width="8" stroke-linecap="round" stroke-linejoin="round" stroke-miterlimit="10" d="
				M267.586,163.58c-12.864-7.233-37.665-13.083-69.274-13.083c-32.002,0-57.039,5.994-69.763,13.351
				c14.438,7.634,40.438,12.747,69.263,12.747C226.976,176.595,253.253,171.365,267.586,163.58z"/>
		</g>
		
			<polygon fill="#FFCF00" stroke="#000000" stroke-width="8" stroke-linecap="round" stroke-linejoin="round" stroke-miterlimit="10" points="
			133.603,274.294 133.603,234.97 153.238,220.704 172.874,234.97 172.874,274.294 		"/>
		<path fill="none" stroke="#010101" stroke-width="8" stroke-linecap="round" stroke-linejoin="round" stroke-miterlimit="10" d="
			M153.404,220.704v-31.407c0,0-1.517-15.153,13.492-15.153"/>
	</g>
</g>
</svg>
