<?xml version="1.0" encoding="utf-8"?>
<!-- Generator: Adobe Illustrator 16.0.0, SVG Export Plug-In . SVG Version: 6.00 Build 0)  -->
<!DOCTYPE svg PUBLIC "-//W3C//DTD SVG 1.1//EN" "http://www.w3.org/Graphics/SVG/1.1/DTD/svg11.dtd">
<svg version="1.1" xmlns="http://www.w3.org/2000/svg" xmlns:xlink="http://www.w3.org/1999/xlink" x="0px" y="0px"
	 width="453.543px" height="453.543px" viewBox="0 0 453.543 453.543" enable-background="new 0 0 453.543 453.543"
	 xml:space="preserve">
<g id="kvadrat" display="none">
	
		<rect x="-450.75" y="450.929" display="inline" fill="none" stroke="#BD1622" stroke-width="0.3359" stroke-miterlimit="10" width="453.543" height="453.542"/>
	
		<rect y="450.929" display="inline" fill="none" stroke="#BD1622" stroke-width="0.3359" stroke-miterlimit="10" width="453.543" height="453.542"/>
	
		<rect x="-450.75" display="inline" fill="none" stroke="#BD1622" stroke-width="0.3359" stroke-miterlimit="10" width="453.543" height="453.543"/>
	
		<rect display="inline" fill="none" stroke="#BD1622" stroke-width="0.3359" stroke-miterlimit="10" width="453.543" height="453.543"/>
</g>
<g id="Layer_1">
</g>
<g id="Layer_2">
	
		<path fill="#7E4E24" stroke="#000000" stroke-width="8" stroke-linecap="round" stroke-linejoin="round" stroke-miterlimit="10" d="
		M362.125,144.023H174.243c-11.94,0-21.673,9.604-21.883,21.492l-3.124,38.793c-16.608-0.765-30.427-3.723-39.152-5.593
		c-5.358-1.146-8.594-1.845-11.178-1.845c-16.196,0-29.372,13.208-29.372,29.436c0,16.226,13.176,29.429,29.372,29.429
		c2.584,0,5.817-0.699,11.178-1.845c8.726-1.865,22.536-4.822,39.134-5.593l3.142,39.722c0.2,11.887,9.94,21.5,21.883,21.5h187.882
		c12.07,0,21.885-9.823,21.885-21.891V165.904C384.01,153.84,374.195,144.023,362.125,144.023z M98.903,237.086
		c-5.949,0-10.75-4.805-10.75-10.743c0-5.949,4.801-10.75,10.75-10.75c5.922,0,10.744,4.801,10.744,10.75
		C109.647,232.281,104.825,237.086,98.903,237.086z"/>
	<g id="rdeÄa7bela">
	</g>
</g>
</svg>
