<?xml version="1.0" encoding="utf-8"?>
<!-- Generator: Adobe Illustrator 16.0.0, SVG Export Plug-In . SVG Version: 6.00 Build 0)  -->
<!DOCTYPE svg PUBLIC "-//W3C//DTD SVG 1.1//EN" "http://www.w3.org/Graphics/SVG/1.1/DTD/svg11.dtd">
<svg version="1.1" xmlns="http://www.w3.org/2000/svg" xmlns:xlink="http://www.w3.org/1999/xlink" x="0px" y="0px"
	 width="453.543px" height="453.543px" viewBox="0 0 453.543 453.543" enable-background="new 0 0 453.543 453.543"
	 xml:space="preserve">
<g id="kvadrat">
	
		<rect x="-0.93" y="451.394" fill="none" stroke="#BD1622" stroke-width="0.3359" stroke-miterlimit="10" width="453.543" height="453.542"/>
	
		<rect x="452.613" y="451.394" fill="none" stroke="#BD1622" stroke-width="0.3359" stroke-miterlimit="10" width="453.543" height="453.542"/>
</g>
<g id="Layer_1">
</g>
<g id="Layer_2">
	<g>
		<path fill="none" stroke="#000000" stroke-width="6" stroke-linecap="round" stroke-linejoin="round" stroke-miterlimit="10" d="
			M208.092,188.486l0.109-0.108c23.949,10.626,127.758,57.41,152.303,80.728c12.715,12.073,17.402,30.677,11.943,47.394
			l-0.143,0.437l0.059,0.46c1.965,15.135-3.223,29.742-14.617,41.13c-9.674,9.677-22.084,15.006-34.939,15.006
			c-2.385,0-4.801-0.182-7.184-0.542l-0.439-0.064l-0.424,0.12c-4.1,1.169-8.348,1.763-12.625,1.763l0,0
			c-12.674,0-24.445-5.042-33.137-14.197c-23.295-24.524-70.096-128.338-80.73-152.3l0.113-0.115 M284.768,356.761
			c-23.057-23.059-78.111-129.618-90.686-154.257l0.104-0.103l1.57,3.056c15.395,29.965,67.324,129.419,89.109,151.21
			c8.637,8.631,18.996,14.165,29.965,16.002l0.48,0.079l0.463-0.144c6.682-2.08,12.658-5.59,17.762-10.433
			c3.918-3.717,7.107-8.039,9.48-12.84l1.594-3.226 M346.219,344.62l3.023-1.502c4.775-2.374,9.09-5.563,12.828-9.481
			c4.416-4.649,7.738-10.07,9.877-16.11l0.166-0.478l-0.072-0.501c-1.67-11.32-7.258-22.008-16.152-30.905
			c-28.689-28.682-122.449-75.899-150.5-89.687l-3.191-1.57l0.111-0.108 M200.686,195.895l0.104-0.1l8.982,13.98l0.369,0.238
			c32.543,20.991,109.877,71.552,125.152,87.638c8.406,8.851,12.865,20.446,12.555,32.652c-0.092,3.507-0.592,7.031-1.488,10.471
			l-1.102,4.227l-0.252,0.1l-0.094,0.24l-4.242,1.111c-3.455,0.905-6.977,1.409-10.471,1.5c-0.402,0.009-0.807,0.014-1.207,0.014
			c-11.746,0-22.914-4.465-31.451-12.568c-16.025-15.22-66.633-92.593-87.646-125.15l-0.238-0.369l-0.369-0.237
			c-4.209-2.725-7.811-5.036-10.613-6.835l-2.986-1.91"/>
		<polygon stroke="#000000" stroke-width="8" stroke-linecap="round" stroke-linejoin="round" stroke-miterlimit="10" points="
			78.85,100.563 185.707,207.427 207.533,185.594 100.676,78.735 		"/>
	</g>
	<g id="rdeÄa7bela">
	</g>
</g>
</svg>
