<?xml version="1.0" encoding="utf-8"?>
<!-- Generator: Adobe Illustrator 16.0.0, SVG Export Plug-In . SVG Version: 6.00 Build 0)  -->
<!DOCTYPE svg PUBLIC "-//W3C//DTD SVG 1.1//EN" "http://www.w3.org/Graphics/SVG/1.1/DTD/svg11.dtd">
<svg version="1.1" xmlns="http://www.w3.org/2000/svg" xmlns:xlink="http://www.w3.org/1999/xlink" x="0px" y="0px"
	 width="453.543px" height="453.543px" viewBox="0 0 453.543 453.543" enable-background="new 0 0 453.543 453.543"
	 xml:space="preserve">
<g id="kvadrat" display="none">
	
		<rect x="0" y="-450.765" display="inline" fill="none" stroke="#BD1622" stroke-width="0.3359" stroke-miterlimit="10" width="453.543" height="453.544"/>
</g>
<g id="Layer_1" display="none">
</g>
<g id="Layer_2">
	<g>
		<g>
			
				<path fill="#C8C8C8" stroke="#000000" stroke-width="8" stroke-linecap="round" stroke-linejoin="round" stroke-miterlimit="10" d="
				M219.566,397.629c0.669,0.496,1.521,0.669,2.327,0.475c0.803-0.199,1.479-0.746,1.846-1.495
				c22.246-46.344,15.419-207.856,15.096-215.199v-6.199l-45.969,8.8l-4.755,1.224c-0.491,0.129-0.928,0.38-1.274,0.728
				c-0.433,0.433-0.721,1.01-0.794,1.646C166.632,355.875,217.396,396.005,219.566,397.629z"/>
		</g>
		
			<path fill="#422918" stroke="#000000" stroke-width="8" stroke-linecap="round" stroke-linejoin="round" stroke-miterlimit="10" d="
			M238.835,175.21l-0.001-90.328c0.001-4.888-1.526-8.575-4.54-10.958c-2.394-1.886-5.645-2.844-9.672-2.846
			c-4.421-0.004-7.702,1.132-10.032,3.463c-2.354,2.354-3.547,5.834-3.55,10.34l0.001,94.448l-0.778,0.2
			C219.168,177.517,229.967,175.519,238.835,175.21z"/>
		<circle cx="223.144" cy="108.486" r="3.939"/>
		<path d="M226.642,91.489c-1.538,1.538-4.028,1.54-5.567,0c-1.532-1.531-1.535-4.027,0.002-5.564
			c1.534-1.534,4.029-1.53,5.561,0.002C228.177,87.465,228.177,89.956,226.642,91.489z"/>
		<path fill="none" stroke="#000000" stroke-width="6" stroke-linecap="round" stroke-linejoin="round" stroke-miterlimit="10" d="
			M198.242,183.315c-17.545,147.285,24.912,203.869,28.435,208.271"/>
	</g>
	<g id="rdeÄa7bela">
	</g>
</g>
<g id="pivot">
	<circle fill="none" cx="210.849" cy="390.325" r="7.857"/>
</g>
</svg>
