<?xml version="1.0" encoding="utf-8"?>
<!-- Generator: Adobe Illustrator 16.0.0, SVG Export Plug-In . SVG Version: 6.00 Build 0)  -->
<!DOCTYPE svg PUBLIC "-//W3C//DTD SVG 1.1//EN" "http://www.w3.org/Graphics/SVG/1.1/DTD/svg11.dtd">
<svg version="1.1" xmlns="http://www.w3.org/2000/svg" xmlns:xlink="http://www.w3.org/1999/xlink" x="0px" y="0px"
	 width="453.544px" height="453.543px" viewBox="0 0 453.544 453.543" enable-background="new 0 0 453.544 453.543"
	 xml:space="preserve">
<g id="kvadrat" display="none">
	
		<rect x="0" y="-450.765" display="inline" fill="none" stroke="#BD1622" stroke-width="0.3359" stroke-miterlimit="10" width="453.544" height="453.544"/>
	
		<rect x="453.696" y="-450.765" display="inline" fill="none" stroke="#BD1622" stroke-width="0.3359" stroke-miterlimit="10" width="453.543" height="453.544"/>
</g>
<g id="Layer_1" display="none">
</g>
<g id="Layer_2">
	<g id="rdeÄa7bela">
	</g>
	<g>
		<g>
			<g>
				<path fill="#C8C8C8" d="M224.156,278.458V169.137c6.489-5.359,10.74-21.104,10.74-66.947c0-13.563-10.986-24.562-24.556-24.562
					c-13.563,0-24.55,10.998-24.55,24.562c0,47.193,4.508,62.477,11.323,67.38v109.005c-18.612,5.184-32.107,21.153-32.107,45.277
					c0,29.751,20.526,74.15,45.861,74.15c25.333,0,45.866-44.399,45.866-74.15C256.732,299.526,243,283.5,224.156,278.458z"/>
			</g>
			<g>
				
					<path fill="none" stroke="#000000" stroke-width="8" stroke-linecap="round" stroke-linejoin="round" stroke-miterlimit="10" d="
					M224.156,278.458V169.137c6.489-5.359,10.74-21.104,10.74-66.947c0-13.563-10.986-24.562-24.556-24.562
					c-13.563,0-24.55,10.998-24.55,24.562c0,47.193,4.508,62.477,11.323,67.38v109.005c-18.612,5.184-32.107,21.153-32.107,45.277
					c0,29.751,20.526,74.15,45.861,74.15c25.333,0,45.866-44.399,45.866-74.15C256.732,299.526,243,283.5,224.156,278.458z"/>
			</g>
		</g>
		
			<line fill="#C8C8C8" stroke="#000000" stroke-width="8" stroke-linecap="round" stroke-linejoin="round" stroke-miterlimit="10" x1="192.925" y1="307.301" x2="192.925" y2="360.679"/>
		
			<line fill="#C8C8C8" stroke="#000000" stroke-width="8" stroke-linecap="round" stroke-linejoin="round" stroke-miterlimit="10" x1="211.106" y1="307.301" x2="211.106" y2="360.679"/>
		
			<line fill="#C8C8C8" stroke="#000000" stroke-width="8" stroke-linecap="round" stroke-linejoin="round" stroke-miterlimit="10" x1="229.291" y1="307.301" x2="229.291" y2="360.679"/>
	</g>
</g>
<g id="pivot">
	<circle fill="none" cx="210.868" cy="390.145" r="7.857"/>
</g>
</svg>
