<?xml version="1.0" encoding="utf-8"?>
<!-- Generator: Adobe Illustrator 16.0.0, SVG Export Plug-In . SVG Version: 6.00 Build 0)  -->
<!DOCTYPE svg PUBLIC "-//W3C//DTD SVG 1.1//EN" "http://www.w3.org/Graphics/SVG/1.1/DTD/svg11.dtd">
<svg version="1.1" xmlns="http://www.w3.org/2000/svg" xmlns:xlink="http://www.w3.org/1999/xlink" x="0px" y="0px"
	 width="453.543px" height="453.543px" viewBox="0 0 453.543 453.543" enable-background="new 0 0 453.543 453.543"
	 xml:space="preserve">
<g id="kvadrat" display="none">
	
		<rect x="-450.818" y="450.929" display="inline" fill="none" stroke="#BD1622" stroke-width="0.3359" stroke-miterlimit="10" width="453.543" height="453.542"/>
	
		<rect y="450.929" display="inline" fill="none" stroke="#BD1622" stroke-width="0.3359" stroke-miterlimit="10" width="453.543" height="453.542"/>
	
		<rect x="453.543" y="450.929" display="inline" fill="none" stroke="#BD1622" stroke-width="0.3359" stroke-miterlimit="10" width="453.543" height="453.542"/>
	
		<rect x="453.543" display="inline" fill="none" stroke="#BD1622" stroke-width="0.3359" stroke-miterlimit="10" width="453.543" height="453.543"/>
</g>
<g id="Layer_1" display="none">
</g>
<g id="Layer_2">
	<g>
		
			<path fill="#CB78A6" stroke="#000000" stroke-width="8" stroke-linecap="round" stroke-linejoin="round" stroke-miterlimit="10" d="
			M403.69,206.752l-8.771,31.775c0,0-10.873,32.934-106.914,32.934s-106.917-32.934-106.917-32.934l-14.176-31.775
			c0,13.625,53.005,24.669,118.389,24.669C350.684,231.421,403.69,220.377,403.69,206.752z"/>
		
			<ellipse fill="#FFFFFF" stroke="#000000" stroke-width="8" stroke-linecap="round" stroke-linejoin="round" stroke-miterlimit="10" cx="285.301" cy="206.751" rx="118.389" ry="24.669"/>
		
			<path fill="#7E4E24" stroke="#000000" stroke-width="8" stroke-linecap="round" stroke-linejoin="round" stroke-miterlimit="10" d="
			M35.803,200.377h128.646c1.65,0,3.13,1.012,3.728,2.551l9.2,23.669c0.597,1.534,0.192,3.276-1.018,4.392
			c-0.755,0.695-1.728,1.058-2.711,1.058c-0.594,0-1.191-0.132-1.748-0.403l-27.55-13.397H35.803c-2.209,0-4-1.791-4-4v-9.869
			C31.803,202.167,33.594,200.377,35.803,200.377z"/>
	</g>
	<g id="rdeÄa7bela">
	</g>
</g>
<g id="pivot">
	<circle fill="none" cx="217.746" cy="263.604" r="7.857"/>
</g>
</svg>
