<?xml version="1.0" encoding="utf-8"?>
<!-- Generator: Adobe Illustrator 16.0.0, SVG Export Plug-In . SVG Version: 6.00 Build 0)  -->
<!DOCTYPE svg PUBLIC "-//W3C//DTD SVG 1.1//EN" "http://www.w3.org/Graphics/SVG/1.1/DTD/svg11.dtd">
<svg version="1.1" xmlns="http://www.w3.org/2000/svg" xmlns:xlink="http://www.w3.org/1999/xlink" x="0px" y="0px"
	 width="453.543px" height="453.543px" viewBox="0 0 453.543 453.543" enable-background="new 0 0 453.543 453.543"
	 xml:space="preserve">
<g id="kvadrat" display="none">
	
		<rect x="-453.543" y="-453.543" display="inline" fill="none" stroke="#BD1622" stroke-width="0.3359" stroke-miterlimit="10" width="453.543" height="453.543"/>
	
		<rect y="-453.543" display="inline" fill="none" stroke="#BD1622" stroke-width="0.3359" stroke-miterlimit="10" width="453.543" height="453.543"/>
	
		<rect x="453.543" y="-453.543" display="inline" fill="none" stroke="#BD1622" stroke-width="0.3359" stroke-miterlimit="10" width="453.541" height="453.543"/>
	
		<rect x="-453.543" display="inline" fill="none" stroke="#BD1622" stroke-width="0.3359" stroke-miterlimit="10" width="453.543" height="453.543"/>
	
		<rect x="-453.543" y="453.543" display="inline" fill="none" stroke="#BD1622" stroke-width="0.3359" stroke-miterlimit="10" width="453.543" height="453.543"/>
	
		<rect y="453.543" display="inline" fill="none" stroke="#BD1622" stroke-width="0.3359" stroke-miterlimit="10" width="453.543" height="453.543"/>
</g>
<g id="Layer_1" display="none">
</g>
<g id="Layer_2">
	<g id="rdeÄa7bela">
	</g>
	<g>
		<path opacity="0.5" fill="#FFFFFF" d="M305.978,121.473c0-6.762-5.482-12.246-12.246-12.246H168.373H136.81l21.215,31.32
			l20.553,206.66c0,6.763,5.482,12.246,12.246,12.246h93.725c6.764,0,12.246-5.483,12.246-12.246L305.978,121.473z"/>
		<path fill="none" stroke="#000000" stroke-width="8" stroke-linecap="round" stroke-linejoin="round" stroke-miterlimit="10" d="
			M305.978,121.473c0-6.762-5.482-12.246-12.246-12.246H168.373H136.81l21.215,31.32l20.553,206.66
			c0,6.763,5.482,12.246,12.246,12.246h93.725c6.764,0,12.246-5.483,12.246-12.246L305.978,121.473z"/>
		
			<path fill="#57B2E5" stroke="#000000" stroke-width="8" stroke-linecap="round" stroke-linejoin="round" stroke-miterlimit="10" d="
			M280.587,179.561"/>
		
			<line fill="#57B2E5" stroke="#000000" stroke-width="8" stroke-linecap="round" stroke-linejoin="round" stroke-miterlimit="10" x1="211.728" y1="169.922" x2="280.587" y2="169.922"/>
		
			<line fill="#57B2E5" stroke="#000000" stroke-width="8" stroke-linecap="round" stroke-linejoin="round" stroke-miterlimit="10" x1="235.201" y1="188.857" x2="280.587" y2="188.857"/>
		
			<line fill="#57B2E5" stroke="#000000" stroke-width="8" stroke-linecap="round" stroke-linejoin="round" stroke-miterlimit="10" x1="235.201" y1="207.793" x2="280.587" y2="207.793"/>
		
			<line fill="#57B2E5" stroke="#000000" stroke-width="8" stroke-linecap="round" stroke-linejoin="round" stroke-miterlimit="10" x1="235.201" y1="226.728" x2="280.587" y2="226.728"/>
		
			<line fill="#57B2E5" stroke="#000000" stroke-width="8" stroke-linecap="round" stroke-linejoin="round" stroke-miterlimit="10" x1="211.728" y1="245.664" x2="280.587" y2="245.664"/>
		
			<line fill="#57B2E5" stroke="#000000" stroke-width="8" stroke-linecap="round" stroke-linejoin="round" stroke-miterlimit="10" x1="233.159" y1="264.599" x2="280.587" y2="264.599"/>
		
			<line fill="#57B2E5" stroke="#000000" stroke-width="8" stroke-linecap="round" stroke-linejoin="round" stroke-miterlimit="10" x1="233.159" y1="283.533" x2="280.587" y2="283.533"/>
		
			<line fill="#57B2E5" stroke="#000000" stroke-width="8" stroke-linecap="round" stroke-linejoin="round" stroke-miterlimit="10" x1="233.159" y1="302.47" x2="280.587" y2="302.47"/>
		
			<line fill="#57B2E5" stroke="#000000" stroke-width="8" stroke-linecap="round" stroke-linejoin="round" stroke-miterlimit="10" x1="211.728" y1="321.404" x2="280.587" y2="321.404"/>
	</g>
</g>
<g id="pivot" display="none">
	<circle display="inline" fill="#EC008C" cx="221.394" cy="351.597" r="7.856"/>
</g>
</svg>
