<?xml version="1.0" encoding="utf-8"?>
<!-- Generator: Adobe Illustrator 16.0.0, SVG Export Plug-In . SVG Version: 6.00 Build 0)  -->
<!DOCTYPE svg PUBLIC "-//W3C//DTD SVG 1.1//EN" "http://www.w3.org/Graphics/SVG/1.1/DTD/svg11.dtd">
<svg version="1.1" xmlns="http://www.w3.org/2000/svg" xmlns:xlink="http://www.w3.org/1999/xlink" x="0px" y="0px"
	 width="453.541px" height="453.543px" viewBox="0 0 453.541 453.543" enable-background="new 0 0 453.541 453.543"
	 xml:space="preserve">
<g id="kvadrat" display="none">
	
		<rect x="-453.543" y="-453.543" display="inline" fill="none" stroke="#BD1622" stroke-width="0.3359" stroke-miterlimit="10" width="453.543" height="453.543"/>
	
		<rect y="-453.543" display="inline" fill="none" stroke="#BD1622" stroke-width="0.3359" stroke-miterlimit="10" width="453.541" height="453.543"/>
	
		<rect x="-453.543" y="453.543" display="inline" fill="none" stroke="#BD1622" stroke-width="0.3359" stroke-miterlimit="10" width="453.543" height="453.543"/>
</g>
<g id="Layer_1" display="none">
</g>
<g id="Layer_2">
	<g id="rdeÄa7bela">
	</g>
	<g>
		<path opacity="0.5" fill="#FFFFFF" d="M315.484,148.451h-27.007l1.097-26.979c0-6.762-5.482-12.246-12.246-12.246H151.969h-31.563
			l21.215,31.32l20.553,206.66c0,6.763,5.482,12.246,12.246,12.246h93.725c6.764,0,12.246-5.483,12.246-12.246l2.752-67.639
			c0.453,0.051,0.912,0.084,1.379,0.084h30.963c6.763,0,12.246-5.484,12.246-12.246V160.697
			C327.73,153.934,322.247,148.451,315.484,148.451z M313.266,265.188h-26.526V191.17l1.149-28.255h25.377V265.188z"/>
		<path fill="none" stroke="#000000" stroke-width="8" stroke-linecap="round" stroke-linejoin="round" stroke-miterlimit="10" d="
			M315.484,148.451h-27.007l1.097-26.979c0-6.762-5.482-12.246-12.246-12.246H151.969h-31.563l21.215,31.32l20.553,206.66
			c0,6.763,5.482,12.246,12.246,12.246h93.725c6.764,0,12.246-5.483,12.246-12.246l2.752-67.639
			c0.453,0.051,0.912,0.084,1.379,0.084h30.963c6.763,0,12.246-5.484,12.246-12.246V160.697
			C327.73,153.934,322.247,148.451,315.484,148.451z M313.266,265.188h-26.526V191.17l1.149-28.255h25.377V265.188z"/>
		
			<path fill="#57B2E5" stroke="#000000" stroke-width="8" stroke-linecap="round" stroke-linejoin="round" stroke-miterlimit="10" d="
			M264.184,179.561"/>
		
			<line fill="#57B2E5" stroke="#000000" stroke-width="8" stroke-linecap="round" stroke-linejoin="round" stroke-miterlimit="10" x1="195.324" y1="169.922" x2="264.184" y2="169.922"/>
		
			<line fill="#57B2E5" stroke="#000000" stroke-width="8" stroke-linecap="round" stroke-linejoin="round" stroke-miterlimit="10" x1="218.797" y1="188.857" x2="264.184" y2="188.857"/>
		
			<line fill="#57B2E5" stroke="#000000" stroke-width="8" stroke-linecap="round" stroke-linejoin="round" stroke-miterlimit="10" x1="218.797" y1="207.793" x2="264.184" y2="207.793"/>
		
			<line fill="#57B2E5" stroke="#000000" stroke-width="8" stroke-linecap="round" stroke-linejoin="round" stroke-miterlimit="10" x1="218.797" y1="226.728" x2="264.184" y2="226.728"/>
		
			<line fill="#57B2E5" stroke="#000000" stroke-width="8" stroke-linecap="round" stroke-linejoin="round" stroke-miterlimit="10" x1="195.324" y1="245.664" x2="264.184" y2="245.664"/>
		
			<line fill="#57B2E5" stroke="#000000" stroke-width="8" stroke-linecap="round" stroke-linejoin="round" stroke-miterlimit="10" x1="216.755" y1="264.599" x2="264.184" y2="264.599"/>
		
			<line fill="#57B2E5" stroke="#000000" stroke-width="8" stroke-linecap="round" stroke-linejoin="round" stroke-miterlimit="10" x1="216.755" y1="283.533" x2="264.184" y2="283.533"/>
		
			<line fill="#57B2E5" stroke="#000000" stroke-width="8" stroke-linecap="round" stroke-linejoin="round" stroke-miterlimit="10" x1="216.755" y1="302.47" x2="264.184" y2="302.47"/>
		
			<line fill="#57B2E5" stroke="#000000" stroke-width="8" stroke-linecap="round" stroke-linejoin="round" stroke-miterlimit="10" x1="195.324" y1="321.404" x2="264.184" y2="321.404"/>
	</g>
</g>
<g id="pivot" display="none">
	<circle display="inline" fill="#EC008C" cx="224.067" cy="351.597" r="7.856"/>
</g>
</svg>
