<?xml version="1.0" encoding="utf-8"?>
<!-- Generator: Adobe Illustrator 16.0.0, SVG Export Plug-In . SVG Version: 6.00 Build 0)  -->
<!DOCTYPE svg PUBLIC "-//W3C//DTD SVG 1.1//EN" "http://www.w3.org/Graphics/SVG/1.1/DTD/svg11.dtd">
<svg version="1.1" id="Layer_1" xmlns="http://www.w3.org/2000/svg" xmlns:xlink="http://www.w3.org/1999/xlink" x="0px" y="0px"
	 width="553.1px" height="270.646px" viewBox="0 0 553.1 270.646" enable-background="new 0 0 553.1 270.646" xml:space="preserve">
<g id="x">
</g>
<g>
	<path fill="#FFFFFF" d="M539.85,3.25c5.5,0,10,4.5,10,10v186.509c0,5.5-4.5,10-10,10H105.73c-5.5,0-13.753,2.482-18.341,5.516
		l-76.674,50.705c-4.588,3.033-7.924,1.035-7.414-4.441L26.446,13.207c0.51-5.477,5.428-9.957,10.928-9.957H539.85z"/>
	<path fill="none" stroke="#010101" stroke-width="6.5" stroke-miterlimit="10" d="M539.85,3.25c5.5,0,10,4.5,10,10v186.509
		c0,5.5-4.5,10-10,10H105.73c-5.5,0-13.753,2.482-18.341,5.516l-76.674,50.705c-4.588,3.033-7.924,1.035-7.414-4.441L26.446,13.207
		c0.51-5.477,5.428-9.957,10.928-9.957H539.85z"/>
</g>
</svg>
