<?xml version="1.0" encoding="utf-8"?>
<!-- Generator: Adobe Illustrator 16.0.0, SVG Export Plug-In . SVG Version: 6.00 Build 0)  -->
<!DOCTYPE svg PUBLIC "-//W3C//DTD SVG 1.1//EN" "http://www.w3.org/Graphics/SVG/1.1/DTD/svg11.dtd">
<svg version="1.1" id="Layer_1" xmlns="http://www.w3.org/2000/svg" xmlns:xlink="http://www.w3.org/1999/xlink" x="0px" y="0px"
	 width="41.922px" height="40.122px" viewBox="3.08 31.999 41.922 40.122" enable-background="new 3.08 31.999 41.922 40.122"
	 xml:space="preserve">
<g id="x">
</g>
<g>
	<path fill="#646464" d="M44.948,47.017c-0.868-2.596-12.97-2.047-12.97-2.047c-0.821,0.037-1.69-0.576-1.931-1.361
		c0,0-3.563-11.632-6.134-11.61c-2.567,0.021-5.938,11.71-5.938,11.71c-0.228,0.79-1.086,1.408-1.907,1.373
		c0,0-12.052-0.516-12.936,2.282c-0.883,2.794,9.279,9.296,9.279,9.296c0.692,0.443,1.023,1.436,0.736,2.206
		c0,0-4.216,11.303-1.826,13.008c2.387,1.704,11.709-5.95,11.709-5.95c0.636-0.521,1.677-0.523,2.314-0.005
		c0,0,9.322,7.59,11.819,5.744s-2.023-12.984-2.023-12.984c-0.31-0.762-0.007-1.765,0.672-2.229
		C35.814,56.45,45.815,49.614,44.948,47.017z"/>
</g>
</svg>
