<?xml version="1.0" encoding="utf-8"?>
<!-- Generator: Adobe Illustrator 16.0.0, SVG Export Plug-In . SVG Version: 6.00 Build 0)  -->
<!DOCTYPE svg PUBLIC "-//W3C//DTD SVG 1.1//EN" "http://www.w3.org/Graphics/SVG/1.1/DTD/svg11.dtd">
<svg version="1.1" id="Layer_1" xmlns="http://www.w3.org/2000/svg" xmlns:xlink="http://www.w3.org/1999/xlink" x="0px" y="0px"
	 width="41.922px" height="40.122px" viewBox="86.847 12.044 41.922 40.122" enable-background="new 86.847 12.044 41.922 40.122"
	 xml:space="preserve">
<g id="x">
</g>
<g>
	<path fill="#FFE600" d="M128.715,27.061c-0.868-2.596-12.97-2.047-12.97-2.047c-0.821,0.037-1.69-0.576-1.931-1.361
		c0,0-3.563-11.631-6.134-11.609c-2.567,0.021-5.938,11.709-5.938,11.709c-0.228,0.791-1.086,1.408-1.907,1.373
		c0,0-12.052-0.516-12.936,2.282c-0.883,2.794,9.279,9.297,9.279,9.297c0.692,0.442,1.024,1.437,0.737,2.206
		c0,0-4.217,11.303-1.827,13.008c2.387,1.703,11.709-5.95,11.709-5.95c0.636-0.521,1.677-0.523,2.314-0.005
		c0,0,9.322,7.59,11.819,5.744c2.497-1.847-2.023-12.985-2.023-12.985c-0.309-0.762-0.007-1.765,0.672-2.228
		C119.581,36.495,129.582,29.659,128.715,27.061z"/>
</g>
</svg>
