<?xml version="1.0" encoding="utf-8"?>
<!-- Generator: Adobe Illustrator 16.0.0, SVG Export Plug-In . SVG Version: 6.00 Build 0)  -->
<!DOCTYPE svg PUBLIC "-//W3C//DTD SVG 1.1//EN" "http://www.w3.org/Graphics/SVG/1.1/DTD/svg11.dtd">
<svg version="1.1" xmlns="http://www.w3.org/2000/svg" xmlns:xlink="http://www.w3.org/1999/xlink" x="0px" y="0px"
	 width="453.543px" height="453.543px" viewBox="0 0 453.543 453.543" enable-background="new 0 0 453.543 453.543"
	 xml:space="preserve">
<g id="kvadrat" display="none">
</g>
<g id="color" display="none">
	<g id="rdeča7bela" display="inline">
	</g>
	<g display="inline">
		<g>
			
				<path fill="#39A935" stroke="#000000" stroke-width="8" stroke-linecap="round" stroke-linejoin="round" stroke-miterlimit="10" d="
				M283.435,339.993c17.923-2.528,35.073,14.691,41.79,22.43c13.245-9.24,25.354-9.301,34.29-6.941
				c-3.189-8.67-4.263-20.738,3.7-34.792c-8.266-5.912-26.772-21.19-26.263-39.058c-13.774,1.839-33.924-1.751-43.898-24.458
				l-12.992,2.099c1.01,6.79-1.058,13.958-6.234,19.24c-5.138,5.242-12.193,7.459-18.956,6.638l-0.958,13.265
				C279.592,306.872,283.316,328.697,283.435,339.993z"/>
			
				<circle fill="#E20613" stroke="#000000" stroke-width="8" stroke-linecap="round" stroke-linejoin="round" stroke-miterlimit="10" cx="255.753" cy="260.574" r="13.54"/>
			
				<line fill="none" stroke="#000000" stroke-width="8" stroke-linecap="round" stroke-linejoin="round" stroke-miterlimit="10" x1="314.671" y1="319.492" x2="276.4" y2="281.22"/>
		</g>
		<g>
			
				<path fill="#39A935" stroke="#000000" stroke-width="8" stroke-linecap="round" stroke-linejoin="round" stroke-miterlimit="10" d="
				M300.034,164.75c-11.15-14.257-4.813-37.719-1.47-47.406c-14.625-6.85-20.732-17.307-23.156-26.226
				c-5.916,7.096-15.827,14.062-31.981,14.193c-0.987,10.113-4.966,33.781-20.694,42.273c8.482,11.01,15.445,30.254,0.77,50.246
				l8.313,10.202c5.375-4.271,12.617-6.063,19.78-4.221c7.108,1.827,12.556,6.829,15.227,13.096l11.966-5.802
				C273.271,184.639,290.312,170.501,300.034,164.75z"/>
			
				<circle fill="#E20613" stroke="#000000" stroke-width="8" stroke-linecap="round" stroke-linejoin="round" stroke-miterlimit="10" cx="244.998" cy="228.531" r="13.54"/>
			
				<line fill="none" stroke="#000000" stroke-width="8" stroke-linecap="round" stroke-linejoin="round" stroke-miterlimit="10" x1="266.66" y1="147.949" x2="252.653" y2="200.229"/>
		</g>
		<g>
			
				<path fill="#39A935" stroke="#000000" stroke-width="8" stroke-linecap="round" stroke-linejoin="round" stroke-miterlimit="10" d="
				M141.784,231.225c-6.772,16.785-30.26,23.028-40.321,24.975c1.38,16.091-4.622,26.608-11.134,33.167
				c9.104,1.574,20.091,6.676,28.283,20.601c9.251-4.201,31.739-12.59,46.955-3.215c5.295-12.85,18.479-28.505,43.131-25.79
				l4.677-12.301c-6.385-2.519-11.56-7.893-13.545-15.018c-1.972-7.07-0.363-14.29,3.729-19.735l-11.009-7.462
				C172.39,244.458,151.625,236.771,141.784,231.225z"/>
			
				<circle fill="#E20613" stroke="#000000" stroke-width="8" stroke-linecap="round" stroke-linejoin="round" stroke-miterlimit="10" cx="224.501" cy="246.865" r="13.54"/>
			
				<line fill="none" stroke="#000000" stroke-width="8" stroke-linecap="round" stroke-linejoin="round" stroke-miterlimit="10" x1="143.919" y1="268.528" x2="196.201" y2="254.519"/>
		</g>
	</g>
</g>
<g id="cb">
	<g id="rdeča7bela_copy">
	</g>
	<g>
		<g>
			<path fill="none" stroke="#000000" stroke-width="8" stroke-linecap="round" stroke-linejoin="round" stroke-miterlimit="10" d="
				M283.435,339.993c17.923-2.528,35.073,14.691,41.79,22.43c13.245-9.24,25.354-9.301,34.29-6.941
				c-3.189-8.67-4.263-20.738,3.7-34.792c-8.266-5.912-26.772-21.19-26.263-39.058c-13.774,1.839-33.924-1.751-43.898-24.458
				l-12.992,2.099c1.01,6.79-1.058,13.958-6.234,19.24c-5.138,5.242-12.193,7.459-18.956,6.638l-0.958,13.265
				C279.592,306.872,283.316,328.697,283.435,339.993z"/>
			
				<circle fill="none" stroke="#000000" stroke-width="8" stroke-linecap="round" stroke-linejoin="round" stroke-miterlimit="10" cx="255.753" cy="260.574" r="13.54"/>
			
				<line fill="none" stroke="#000000" stroke-width="8" stroke-linecap="round" stroke-linejoin="round" stroke-miterlimit="10" x1="314.671" y1="319.492" x2="276.4" y2="281.22"/>
		</g>
		<g>
			<path fill="none" stroke="#000000" stroke-width="8" stroke-linecap="round" stroke-linejoin="round" stroke-miterlimit="10" d="
				M300.034,164.75c-11.15-14.257-4.813-37.719-1.47-47.406c-14.625-6.85-20.732-17.307-23.156-26.226
				c-5.916,7.096-15.827,14.062-31.981,14.193c-0.987,10.113-4.966,33.781-20.694,42.273c8.482,11.01,15.445,30.254,0.77,50.246
				l8.313,10.202c5.375-4.271,12.617-6.063,19.78-4.221c7.108,1.827,12.556,6.829,15.227,13.096l11.966-5.802
				C273.271,184.639,290.312,170.501,300.034,164.75z"/>
			
				<circle fill="none" stroke="#000000" stroke-width="8" stroke-linecap="round" stroke-linejoin="round" stroke-miterlimit="10" cx="244.998" cy="228.531" r="13.54"/>
			
				<line fill="none" stroke="#000000" stroke-width="8" stroke-linecap="round" stroke-linejoin="round" stroke-miterlimit="10" x1="266.66" y1="147.949" x2="252.653" y2="200.229"/>
		</g>
		<g>
			<path fill="none" stroke="#000000" stroke-width="8" stroke-linecap="round" stroke-linejoin="round" stroke-miterlimit="10" d="
				M141.784,231.225c-6.772,16.785-30.26,23.028-40.321,24.975c1.38,16.091-4.622,26.608-11.134,33.167
				c9.104,1.574,20.091,6.676,28.283,20.601c9.251-4.201,31.739-12.59,46.955-3.215c5.295-12.85,18.479-28.505,43.131-25.79
				l4.677-12.301c-6.385-2.519-11.56-7.893-13.545-15.018c-1.972-7.07-0.363-14.29,3.729-19.735l-11.009-7.462
				C172.39,244.458,151.625,236.771,141.784,231.225z"/>
			
				<circle fill="none" stroke="#000000" stroke-width="8" stroke-linecap="round" stroke-linejoin="round" stroke-miterlimit="10" cx="224.501" cy="246.865" r="13.54"/>
			
				<line fill="none" stroke="#000000" stroke-width="8" stroke-linecap="round" stroke-linejoin="round" stroke-miterlimit="10" x1="143.919" y1="268.528" x2="196.201" y2="254.519"/>
		</g>
	</g>
</g>
<g id="pivot">
	<circle fill="none" cx="227.004" cy="336.131" r="14.133"/>
</g>
</svg>
