<?xml version="1.0" encoding="utf-8"?>
<!-- Generator: Adobe Illustrator 16.0.0, SVG Export Plug-In . SVG Version: 6.00 Build 0)  -->
<!DOCTYPE svg PUBLIC "-//W3C//DTD SVG 1.1//EN" "http://www.w3.org/Graphics/SVG/1.1/DTD/svg11.dtd">
<svg version="1.1" xmlns="http://www.w3.org/2000/svg" xmlns:xlink="http://www.w3.org/1999/xlink" x="0px" y="0px"
	 width="453.544px" height="453.543px" viewBox="0 0 453.544 453.543" enable-background="new 0 0 453.544 453.543"
	 xml:space="preserve">
<g id="kvadrat" display="none">
</g>
<g id="color" display="none">
	<g display="inline">
		
			<line fill="none" stroke="#000000" stroke-width="8" stroke-linecap="round" stroke-linejoin="round" stroke-miterlimit="10" x1="58.874" y1="226.771" x2="394.67" y2="226.771"/>
		
			<line fill="none" stroke="#000000" stroke-width="8" stroke-linecap="round" stroke-linejoin="round" stroke-miterlimit="10" x1="58.874" y1="226.772" x2="394.67" y2="226.771"/>
		
			<line fill="none" stroke="#000000" stroke-width="8" stroke-linecap="round" stroke-linejoin="round" stroke-miterlimit="10" x1="226.773" y1="394.669" x2="226.771" y2="58.874"/>
		
			<line fill="none" stroke="#000000" stroke-width="8" stroke-linecap="round" stroke-linejoin="round" stroke-miterlimit="10" x1="345.494" y1="345.493" x2="108.051" y2="108.05"/>
		
			<line fill="none" stroke="#000000" stroke-width="8" stroke-linecap="round" stroke-linejoin="round" stroke-miterlimit="10" x1="108.051" y1="345.493" x2="345.494" y2="108.05"/>
		
			<polygon fill="none" stroke="#000000" stroke-width="8" stroke-linecap="round" stroke-linejoin="round" stroke-miterlimit="10" points="
			362.325,226.771 322.623,322.622 226.772,362.325 130.922,322.622 91.22,226.771 130.922,130.921 226.772,91.219 322.623,130.921 
					"/>
		
			<polygon fill="none" stroke="#000000" stroke-width="8" stroke-linecap="round" stroke-linejoin="round" stroke-miterlimit="10" points="
			325.465,226.771 296.559,296.558 226.773,325.463 156.987,296.558 128.08,226.771 156.987,156.986 226.773,128.08 
			296.559,156.985 		"/>
		
			<polygon fill="none" stroke="#000000" stroke-width="8" stroke-linecap="round" stroke-linejoin="round" stroke-miterlimit="10" points="
			290.201,226.771 271.623,271.623 226.772,290.201 181.922,271.623 163.344,226.771 181.922,181.921 226.772,163.343 
			271.623,181.92 		"/>
		
			<polygon fill="none" stroke="#000000" stroke-width="8" stroke-linecap="round" stroke-linejoin="round" stroke-miterlimit="10" points="
			258.987,226.771 249.552,249.551 226.772,258.986 203.993,249.551 194.558,226.771 203.993,203.992 226.772,194.557 
			249.552,203.992 		"/>
	</g>
	<g id="rdeča7bela" display="inline">
	</g>
</g>
<g id="cb">
	<g>
		
			<line fill="#FFFFFF" stroke="#000000" stroke-width="8" stroke-linecap="round" stroke-linejoin="round" stroke-miterlimit="10" x1="58.874" y1="226.771" x2="394.67" y2="226.771"/>
		
			<polygon fill="none" stroke="#000000" stroke-width="8" stroke-linecap="round" stroke-linejoin="round" stroke-miterlimit="10" points="
			362.325,226.771 322.623,322.622 226.772,362.325 130.922,322.622 91.22,226.771 130.922,130.921 226.772,91.219 322.623,130.921 
					"/>
		
			<polygon fill="none" stroke="#000000" stroke-width="8" stroke-linecap="round" stroke-linejoin="round" stroke-miterlimit="10" points="
			325.465,226.771 296.559,296.558 226.773,325.463 156.987,296.558 128.08,226.771 156.987,156.986 226.773,128.08 
			296.559,156.985 		"/>
		
			<polygon fill="none" stroke="#000000" stroke-width="8" stroke-linecap="round" stroke-linejoin="round" stroke-miterlimit="10" points="
			290.201,226.771 271.623,271.623 226.772,290.201 181.922,271.623 163.344,226.771 181.922,181.921 226.772,163.343 
			271.623,181.92 		"/>
		
			<polygon fill="none" stroke="#000000" stroke-width="8" stroke-linecap="round" stroke-linejoin="round" stroke-miterlimit="10" points="
			258.987,226.771 249.552,249.551 226.772,258.986 203.993,249.551 194.558,226.771 203.993,203.992 226.772,194.557 
			249.552,203.992 		"/>
		
			<line fill="none" stroke="#000000" stroke-width="8" stroke-linecap="round" stroke-linejoin="round" stroke-miterlimit="10" x1="58.874" y1="226.772" x2="394.67" y2="226.771"/>
		
			<line fill="none" stroke="#000000" stroke-width="8" stroke-linecap="round" stroke-linejoin="round" stroke-miterlimit="10" x1="226.773" y1="394.669" x2="226.771" y2="58.874"/>
		
			<line fill="none" stroke="#000000" stroke-width="8" stroke-linecap="round" stroke-linejoin="round" stroke-miterlimit="10" x1="345.494" y1="345.493" x2="108.051" y2="108.05"/>
		
			<line fill="none" stroke="#000000" stroke-width="8" stroke-linecap="round" stroke-linejoin="round" stroke-miterlimit="10" x1="108.051" y1="345.493" x2="345.494" y2="108.05"/>
	</g>
	<g id="rdeča7bela_copy">
	</g>
</g>
<g id="pivot">
	<circle fill="none" cx="230.293" cy="357.833" r="14.133"/>
</g>
</svg>
