<?xml version="1.0" encoding="utf-8"?>
<!-- Generator: Adobe Illustrator 16.0.0, SVG Export Plug-In . SVG Version: 6.00 Build 0)  -->
<!DOCTYPE svg PUBLIC "-//W3C//DTD SVG 1.1//EN" "http://www.w3.org/Graphics/SVG/1.1/DTD/svg11.dtd">
<svg version="1.1" xmlns="http://www.w3.org/2000/svg" xmlns:xlink="http://www.w3.org/1999/xlink" x="0px" y="0px"
	 width="453.543px" height="453.543px" viewBox="0 0 453.543 453.543" enable-background="new 0 0 453.543 453.543"
	 xml:space="preserve">
<g id="kvadrat" display="none">
</g>
<g id="color" display="none">
	<g id="rdeča7bela" display="inline">
	</g>
	
		<path display="inline" fill="#57B2E5" stroke="#000000" stroke-width="6" stroke-linecap="round" stroke-linejoin="round" stroke-miterlimit="10" d="
		M359.908,261.186l-39.464,11.966l-24.502-14.146l27.506-8.34c3.524-1.07,5.516-4.793,4.446-8.317
		c-1.068-3.525-4.794-5.516-8.317-4.447l-39.463,11.966l-30.688-17.716c0.409-1.729,0.631-3.526,0.631-5.378
		c0-1.854-0.222-3.653-0.631-5.38l30.686-17.716l39.465,11.966c0.646,0.197,1.297,0.291,1.938,0.291
		c2.862,0,5.507-1.857,6.378-4.737c1.07-3.524-0.922-7.247-4.446-8.315l-27.506-8.34l24.503-14.148l39.464,11.966
		c0.646,0.196,1.297,0.29,1.939,0.29c2.86,0,5.506-1.856,6.379-4.737c1.068-3.524-0.922-7.248-4.448-8.317l-27.508-8.34
		l15.115-8.728c3.19-1.841,4.282-5.919,2.441-9.109c-1.842-3.19-5.92-4.283-9.11-2.44l-15.114,8.726l6.53-27.99
		c0.837-3.587-1.392-7.175-4.979-8.01c-3.588-0.837-7.173,1.393-8.009,4.979l-9.369,40.159l-24.502,14.147l6.53-27.991
		c0.837-3.587-1.392-7.174-4.979-8.01c-3.589-0.837-7.174,1.394-8.011,4.979l-9.369,40.16l-30.692,17.719
		c-2.609-2.464-5.783-4.331-9.312-5.384v-35.43l30.096-28.195c2.688-2.517,2.825-6.738,0.308-9.426
		c-2.518-2.688-6.74-2.824-9.426-0.306l-20.978,19.651v-28.295l30.096-28.194c2.688-2.518,2.825-6.739,0.308-9.426
		c-2.518-2.688-6.74-2.825-9.426-0.308l-20.98,19.65V86.73c0-3.683-2.986-6.669-6.669-6.669c-3.683,0-6.668,2.986-6.668,6.669
		v17.452L199.125,84.53c-2.688-2.519-6.91-2.381-9.424,0.308c-2.52,2.688-2.383,6.908,0.305,9.425l30.096,28.194v28.294
		l-20.977-19.649c-2.688-2.52-6.91-2.383-9.424,0.306c-2.52,2.688-2.383,6.908,0.305,9.426l30.096,28.194v35.431
		c-3.53,1.053-6.706,2.92-9.314,5.383l-30.689-17.718l-9.371-40.161c-0.835-3.586-4.419-5.816-8.009-4.978
		c-3.587,0.836-5.816,4.422-4.979,8.01l6.531,27.993l-24.503-14.147l-9.37-40.163c-0.837-3.586-4.42-5.817-8.011-4.978
		c-3.586,0.837-5.816,4.422-4.978,8.01l6.53,27.993l-15.116-8.726c-3.189-1.843-7.268-0.75-9.109,2.44
		c-1.842,3.19-0.749,7.271,2.44,9.109l15.115,8.728l-27.506,8.339c-3.524,1.069-5.516,4.792-4.446,8.317
		c0.874,2.881,3.519,4.737,6.378,4.737c0.643,0,1.294-0.093,1.938-0.291L133.1,180.39l24.502,14.147l-27.506,8.34
		c-3.525,1.069-5.516,4.792-4.446,8.317c0.872,2.878,3.519,4.735,6.379,4.735c0.641,0,1.292-0.092,1.937-0.289l39.465-11.964
		l30.686,17.715c-0.409,1.728-0.632,3.526-0.632,5.378c0,1.854,0.223,3.652,0.632,5.381l-30.686,17.716l-39.466-11.966
		c-3.522-1.069-7.248,0.922-8.315,4.447c-1.07,3.524,0.922,7.247,4.446,8.316l27.507,8.342L133.1,273.152l-39.465-11.966
		c-3.525-1.069-7.249,0.922-8.318,4.448c-1.069,3.524,0.923,7.247,4.448,8.315l27.507,8.34l-15.114,8.729
		c-3.191,1.841-4.284,5.92-2.441,9.109c1.234,2.141,3.476,3.337,5.782,3.337c1.131,0,2.278-0.291,3.328-0.896l15.114-8.725
		l-6.53,27.992c-0.836,3.586,1.392,7.172,4.979,8.009c0.508,0.12,1.019,0.176,1.52,0.176c3.031,0,5.771-2.079,6.489-5.154
		l9.37-40.162l24.503-14.146l-6.531,27.991c-0.837,3.587,1.392,7.174,4.979,8.009c0.509,0.12,1.019,0.176,1.521,0.176
		c3.029,0,5.771-2.079,6.488-5.155l9.371-40.159l30.69-17.72c2.609,2.462,5.784,4.331,9.313,5.384v35.43l-30.097,28.194
		c-2.688,2.518-2.826,6.738-0.308,9.426c2.519,2.689,6.738,2.827,9.426,0.308l20.979-19.65v28.294l-30.097,28.194
		c-2.688,2.518-2.826,6.738-0.308,9.426c1.314,1.401,3.088,2.11,4.868,2.11c1.634,0,3.271-0.597,4.558-1.802l20.979-19.653v17.452
		c0,3.683,2.987,6.67,6.668,6.67c3.684,0,6.669-2.987,6.669-6.67v-17.452l20.976,19.652c2.688,2.518,6.908,2.381,9.426-0.307
		c2.518-2.688,2.38-6.908-0.309-9.426l-30.095-28.194v-28.295l20.977,19.65c1.286,1.205,2.922,1.803,4.557,1.803
		c1.782,0,3.556-0.708,4.87-2.109c2.518-2.688,2.38-6.909-0.308-9.426l-30.095-28.194v-35.432c3.529-1.052,6.704-2.92,9.312-5.383
		l30.69,17.718l9.37,40.163c0.72,3.077,3.459,5.154,6.491,5.154c0.5,0,1.011-0.057,1.52-0.175c3.587-0.838,5.817-4.422,4.979-8.01
		l-6.53-27.993l24.503,14.146l9.368,40.162c0.718,3.078,3.46,5.155,6.489,5.155c0.501,0,1.012-0.057,1.521-0.175
		c3.588-0.837,5.817-4.422,4.98-8.011l-6.53-27.994l15.113,8.727c1.051,0.606,2.198,0.895,3.33,0.895
		c2.304,0,4.546-1.197,5.781-3.336c1.841-3.19,0.75-7.269-2.441-9.109l-15.115-8.728l27.508-8.34
		c3.525-1.068,5.516-4.792,4.445-8.317C367.157,262.108,363.434,260.117,359.908,261.186z"/>
</g>
<g id="cb">
	<g id="rdeča7bela_copy">
	</g>
	<g>
		
			<circle fill="none" stroke="#000000" stroke-width="8" stroke-linecap="round" stroke-linejoin="round" stroke-miterlimit="10" cx="226.771" cy="226.304" r="21.689"/>
		<g>
			
				<line fill="none" stroke="#000000" stroke-width="8" stroke-linecap="round" stroke-linejoin="round" stroke-miterlimit="10" x1="226.771" y1="80.061" x2="226.771" y2="204.615"/>
			
				<line fill="none" stroke="#000000" stroke-width="8" stroke-linecap="round" stroke-linejoin="round" stroke-miterlimit="10" x1="189.701" y1="84.838" x2="225.615" y2="120.752"/>
			
				<line fill="none" stroke="#000000" stroke-width="8" stroke-linecap="round" stroke-linejoin="round" stroke-miterlimit="10" x1="189.701" y1="129.994" x2="225.615" y2="165.908"/>
			
				<line fill="none" stroke="#000000" stroke-width="8" stroke-linecap="round" stroke-linejoin="round" stroke-miterlimit="10" x1="261.53" y1="84.838" x2="225.615" y2="120.752"/>
			
				<line fill="none" stroke="#000000" stroke-width="8" stroke-linecap="round" stroke-linejoin="round" stroke-miterlimit="10" x1="261.53" y1="129.994" x2="225.615" y2="165.908"/>
		</g>
		<g>
			
				<line fill="none" stroke="#000000" stroke-width="8" stroke-linecap="round" stroke-linejoin="round" stroke-miterlimit="10" x1="100.121" y1="153.184" x2="207.987" y2="215.46"/>
			
				<line fill="none" stroke="#000000" stroke-width="8" stroke-linecap="round" stroke-linejoin="round" stroke-miterlimit="10" x1="85.724" y1="187.675" x2="134.783" y2="174.529"/>
			
				<line fill="none" stroke="#000000" stroke-width="8" stroke-linecap="round" stroke-linejoin="round" stroke-miterlimit="10" x1="124.829" y1="210.253" x2="173.89" y2="197.107"/>
			
				<line fill="none" stroke="#000000" stroke-width="8" stroke-linecap="round" stroke-linejoin="round" stroke-miterlimit="10" x1="121.638" y1="125.469" x2="134.783" y2="174.529"/>
			
				<line fill="none" stroke="#000000" stroke-width="8" stroke-linecap="round" stroke-linejoin="round" stroke-miterlimit="10" x1="160.743" y1="148.047" x2="173.89" y2="197.107"/>
		</g>
		<g>
			
				<line fill="none" stroke="#000000" stroke-width="8" stroke-linecap="round" stroke-linejoin="round" stroke-miterlimit="10" x1="100.122" y1="299.426" x2="207.988" y2="237.149"/>
			
				<line fill="none" stroke="#000000" stroke-width="8" stroke-linecap="round" stroke-linejoin="round" stroke-miterlimit="10" x1="122.794" y1="329.14" x2="135.939" y2="280.081"/>
			
				<line fill="none" stroke="#000000" stroke-width="8" stroke-linecap="round" stroke-linejoin="round" stroke-miterlimit="10" x1="161.899" y1="306.563" x2="175.046" y2="257.502"/>
			
				<line fill="none" stroke="#000000" stroke-width="8" stroke-linecap="round" stroke-linejoin="round" stroke-miterlimit="10" x1="86.879" y1="266.935" x2="135.939" y2="280.081"/>
			
				<line fill="none" stroke="#000000" stroke-width="8" stroke-linecap="round" stroke-linejoin="round" stroke-miterlimit="10" x1="125.984" y1="244.357" x2="175.046" y2="257.502"/>
		</g>
		<g>
			
				<line fill="none" stroke="#000000" stroke-width="8" stroke-linecap="round" stroke-linejoin="round" stroke-miterlimit="10" x1="226.772" y1="372.546" x2="226.772" y2="247.993"/>
			
				<line fill="none" stroke="#000000" stroke-width="8" stroke-linecap="round" stroke-linejoin="round" stroke-miterlimit="10" x1="263.842" y1="367.769" x2="227.928" y2="331.854"/>
			
				<line fill="none" stroke="#000000" stroke-width="8" stroke-linecap="round" stroke-linejoin="round" stroke-miterlimit="10" x1="263.842" y1="322.614" x2="227.928" y2="286.698"/>
			
				<line fill="none" stroke="#000000" stroke-width="8" stroke-linecap="round" stroke-linejoin="round" stroke-miterlimit="10" x1="192.013" y1="367.77" x2="227.928" y2="331.854"/>
			
				<line fill="none" stroke="#000000" stroke-width="8" stroke-linecap="round" stroke-linejoin="round" stroke-miterlimit="10" x1="192.013" y1="322.615" x2="227.928" y2="286.698"/>
		</g>
		<g>
			
				<line fill="none" stroke="#000000" stroke-width="8" stroke-linecap="round" stroke-linejoin="round" stroke-miterlimit="10" x1="353.422" y1="299.424" x2="245.556" y2="237.147"/>
			
				<line fill="none" stroke="#000000" stroke-width="8" stroke-linecap="round" stroke-linejoin="round" stroke-miterlimit="10" x1="367.818" y1="264.932" x2="318.759" y2="278.078"/>
			
				<line fill="none" stroke="#000000" stroke-width="8" stroke-linecap="round" stroke-linejoin="round" stroke-miterlimit="10" x1="328.714" y1="242.355" x2="279.652" y2="255.5"/>
			
				<line fill="none" stroke="#000000" stroke-width="8" stroke-linecap="round" stroke-linejoin="round" stroke-miterlimit="10" x1="331.905" y1="327.139" x2="318.759" y2="278.078"/>
			
				<line fill="none" stroke="#000000" stroke-width="8" stroke-linecap="round" stroke-linejoin="round" stroke-miterlimit="10" x1="292.8" y1="304.562" x2="279.652" y2="255.5"/>
		</g>
		<g>
			
				<line fill="none" stroke="#000000" stroke-width="8" stroke-linecap="round" stroke-linejoin="round" stroke-miterlimit="10" x1="353.421" y1="153.181" x2="245.555" y2="215.458"/>
			
				<line fill="none" stroke="#000000" stroke-width="8" stroke-linecap="round" stroke-linejoin="round" stroke-miterlimit="10" x1="330.748" y1="123.468" x2="317.603" y2="172.527"/>
			
				<line fill="none" stroke="#000000" stroke-width="8" stroke-linecap="round" stroke-linejoin="round" stroke-miterlimit="10" x1="291.644" y1="146.045" x2="278.496" y2="195.105"/>
			
				<line fill="none" stroke="#000000" stroke-width="8" stroke-linecap="round" stroke-linejoin="round" stroke-miterlimit="10" x1="366.664" y1="185.672" x2="317.603" y2="172.527"/>
			
				<line fill="none" stroke="#000000" stroke-width="8" stroke-linecap="round" stroke-linejoin="round" stroke-miterlimit="10" x1="327.559" y1="208.25" x2="278.496" y2="195.105"/>
		</g>
	</g>
</g>
<g id="pivot">
	<circle fill="none" cx="227.436" cy="369.406" r="14.133"/>
</g>
</svg>
