<?xml version="1.0" encoding="utf-8"?>
<!-- Generator: Adobe Illustrator 16.0.0, SVG Export Plug-In . SVG Version: 6.00 Build 0)  -->
<!DOCTYPE svg PUBLIC "-//W3C//DTD SVG 1.1//EN" "http://www.w3.org/Graphics/SVG/1.1/DTD/svg11.dtd">
<svg version="1.1" xmlns="http://www.w3.org/2000/svg" xmlns:xlink="http://www.w3.org/1999/xlink" x="0px" y="0px"
	 width="453.543px" height="453.543px" viewBox="0 0 453.543 453.543" enable-background="new 0 0 453.543 453.543"
	 xml:space="preserve">
<g id="kvadrat" display="none">
</g>
<g id="color" display="none">
	<g display="inline">
		
			<path fill="#E73088" stroke="#000000" stroke-width="8" stroke-linecap="round" stroke-linejoin="round" stroke-miterlimit="10" d="
			M268.222,204.865c0,0,0,146.864,0,157.226s-18.558,18.762-41.45,18.762c-22.893,0-41.451-8.4-41.451-18.762s0-157.226,0-157.226"
			/>
		
			<path fill="#FFCF00" stroke="#000000" stroke-width="8" stroke-linecap="round" stroke-linejoin="round" stroke-miterlimit="10" d="
			M226.517,161.866c17.14,0,70.826-22.312,0-89.175c-9.703,19.593-24.002,29.991-30.468,41.54
			C180.009,142.877,201.62,161.866,226.517,161.866z"/>
		<path fill="none" stroke="#000000" stroke-width="8" stroke-linecap="round" stroke-linejoin="round" stroke-miterlimit="10" d="
			M226.347,114.641c0,0-27.165,19.471-4.395,32.011"/>
		<path fill="none" stroke="#000000" stroke-width="8" stroke-linecap="round" stroke-linejoin="round" stroke-miterlimit="10" d="
			M268.222,204.865c0,0,0,146.864,0,157.226s-18.558,18.762-41.45,18.762c-22.893,0-41.451-8.4-41.451-18.762s0-157.226,0-157.226"
			/>
		
			<ellipse fill="#F19DC3" stroke="#000000" stroke-width="8" stroke-linecap="round" stroke-linejoin="round" stroke-miterlimit="10" cx="226.771" cy="204.865" rx="41.451" ry="18.763"/>
		
			<line fill="#FFFFFF" stroke="#000000" stroke-width="8" stroke-linecap="round" stroke-linejoin="round" stroke-miterlimit="10" x1="226.517" y1="161.866" x2="226.517" y2="203.741"/>
	</g>
	<g id="rdeča7bela" display="inline">
	</g>
</g>
<g id="cb">
	<g>
		<path fill="none" stroke="#000000" stroke-width="8" stroke-linecap="round" stroke-linejoin="round" stroke-miterlimit="10" d="
			M226.517,161.866c17.14,0,70.826-22.312,0-89.175c-9.703,19.593-24.002,29.991-30.468,41.54
			C180.009,142.877,201.62,161.866,226.517,161.866z"/>
		<path fill="none" stroke="#000000" stroke-width="8" stroke-linecap="round" stroke-linejoin="round" stroke-miterlimit="10" d="
			M226.347,114.641c0,0-27.165,19.471-4.395,32.011"/>
		
			<ellipse fill="none" stroke="#000000" stroke-width="8" stroke-linecap="round" stroke-linejoin="round" stroke-miterlimit="10" cx="226.771" cy="204.865" rx="41.451" ry="18.763"/>
		
			<line fill="none" stroke="#000000" stroke-width="8" stroke-linecap="round" stroke-linejoin="round" stroke-miterlimit="10" x1="226.517" y1="161.866" x2="226.517" y2="203.741"/>
		<path fill="none" stroke="#000000" stroke-width="8" stroke-linecap="round" stroke-linejoin="round" stroke-miterlimit="10" d="
			M268.222,204.865c0,0,0,146.864,0,157.226s-18.558,18.762-41.45,18.762c-22.893,0-41.451-8.4-41.451-18.762s0-157.226,0-157.226"
			/>
	</g>
	<g id="rdeča7bela_copy">
	</g>
</g>
<g id="pivot">
	<circle fill="none" cx="228.375" cy="378.086" r="14.133"/>
</g>
</svg>
