<?xml version="1.0" encoding="utf-8"?>
<!-- Generator: Adobe Illustrator 16.0.0, SVG Export Plug-In . SVG Version: 6.00 Build 0)  -->
<!DOCTYPE svg PUBLIC "-//W3C//DTD SVG 1.1//EN" "http://www.w3.org/Graphics/SVG/1.1/DTD/svg11.dtd">
<svg version="1.1" xmlns="http://www.w3.org/2000/svg" xmlns:xlink="http://www.w3.org/1999/xlink" x="0px" y="0px"
	 width="1919.999px" height="1080px" viewBox="0 0 1919.999 1080" enable-background="new 0 0 1919.999 1080" xml:space="preserve">
<g id="zid">
</g>
<g id="ozadje_1_">
</g>
<g id="pivot">
</g>
<g id="elements" display="none">
</g>
<g id="ospredje">
	<g id="spredaj_8_">
		
			<rect x="848.389" y="723.216" fill="#FF00FF" stroke="#000000" stroke-width="3" stroke-linecap="round" stroke-linejoin="round" stroke-miterlimit="10" width="26.316" height="389.171"/>
		
			<rect x="1072.081" y="723.216" fill="#FF00FF" stroke="#000000" stroke-width="3" stroke-linecap="round" stroke-linejoin="round" stroke-miterlimit="10" width="26.314" height="389.171"/>
		
			<rect x="479.213" y="723.216" fill="#FF00FF" stroke="#000000" stroke-width="3" stroke-linecap="round" stroke-linejoin="round" stroke-miterlimit="10" width="26.316" height="389.171"/>
		
			<rect x="1275.771" y="723.216" fill="#FF00FF" stroke="#000000" stroke-width="3" stroke-linecap="round" stroke-linejoin="round" stroke-miterlimit="10" width="26.316" height="389.171"/>
		<g>
			
				<line fill="none" stroke="#00FFFF" stroke-width="3" stroke-linecap="round" stroke-linejoin="round" stroke-miterlimit="10" x1="875.264" y1="858.244" x2="1071.755" y2="858.244"/>
			
				<line fill="none" stroke="#00FFFF" stroke-width="3" stroke-linecap="round" stroke-linejoin="round" stroke-miterlimit="10" x1="875.264" y1="834.436" x2="1071.755" y2="834.436"/>
			
				<line fill="none" stroke="#00FFFF" stroke-width="3" stroke-linecap="round" stroke-linejoin="round" stroke-miterlimit="10" x1="875.264" y1="810.627" x2="1071.755" y2="810.627"/>
			
				<line fill="none" stroke="#00FFFF" stroke-width="3" stroke-linecap="round" stroke-linejoin="round" stroke-miterlimit="10" x1="887.625" y1="810.626" x2="887.625" y2="876.149"/>
			
				<line fill="none" stroke="#00FFFF" stroke-width="3" stroke-linecap="round" stroke-linejoin="round" stroke-miterlimit="10" x1="909.092" y1="810.626" x2="909.092" y2="876.149"/>
			
				<line fill="none" stroke="#00FFFF" stroke-width="3" stroke-linecap="round" stroke-linejoin="round" stroke-miterlimit="10" x1="930.559" y1="810.626" x2="930.559" y2="876.149"/>
			
				<line fill="none" stroke="#00FFFF" stroke-width="3" stroke-linecap="round" stroke-linejoin="round" stroke-miterlimit="10" x1="952.025" y1="810.626" x2="952.025" y2="876.149"/>
			
				<line fill="none" stroke="#00FFFF" stroke-width="3" stroke-linecap="round" stroke-linejoin="round" stroke-miterlimit="10" x1="973.492" y1="810.626" x2="973.492" y2="876.149"/>
			
				<line fill="none" stroke="#00FFFF" stroke-width="3" stroke-linecap="round" stroke-linejoin="round" stroke-miterlimit="10" x1="994.958" y1="810.626" x2="994.958" y2="876.149"/>
			
				<line fill="none" stroke="#00FFFF" stroke-width="3" stroke-linecap="round" stroke-linejoin="round" stroke-miterlimit="10" x1="1016.427" y1="810.626" x2="1016.427" y2="876.149"/>
			
				<line fill="none" stroke="#00FFFF" stroke-width="3" stroke-linecap="round" stroke-linejoin="round" stroke-miterlimit="10" x1="1037.896" y1="810.626" x2="1037.896" y2="876.149"/>
			
				<line fill="none" stroke="#00FFFF" stroke-width="3" stroke-linecap="round" stroke-linejoin="round" stroke-miterlimit="10" x1="1059.36" y1="810.626" x2="1059.36" y2="876.149"/>
		</g>
		<g>
			
				<line fill="none" stroke="#00FFFF" stroke-width="3" stroke-linecap="round" stroke-linejoin="round" stroke-miterlimit="10" x1="734.74" y1="527.503" x2="517.459" y2="527.503"/>
			
				<line fill="none" stroke="#00FFFF" stroke-width="3" stroke-linecap="round" stroke-linejoin="round" stroke-miterlimit="10" x1="734.74" y1="542.631" x2="517.459" y2="542.631"/>
			
				<line fill="none" stroke="#00FFFF" stroke-width="3" stroke-linecap="round" stroke-linejoin="round" stroke-miterlimit="10" x1="734.74" y1="557.758" x2="517.459" y2="557.758"/>
			
				<line fill="none" stroke="#00FFFF" stroke-width="3" stroke-linecap="round" stroke-linejoin="round" stroke-miterlimit="10" x1="734.74" y1="512.376" x2="517.459" y2="512.376"/>
			
				<line fill="none" stroke="#00FFFF" stroke-width="3" stroke-linecap="round" stroke-linejoin="round" stroke-miterlimit="10" x1="689.131" y1="557.759" x2="689.131" y2="512.376"/>
			
				<line fill="none" stroke="#00FFFF" stroke-width="3" stroke-linecap="round" stroke-linejoin="round" stroke-miterlimit="10" x1="673.559" y1="557.759" x2="673.559" y2="512.376"/>
			
				<line fill="none" stroke="#00FFFF" stroke-width="3" stroke-linecap="round" stroke-linejoin="round" stroke-miterlimit="10" x1="657.984" y1="557.759" x2="657.984" y2="512.376"/>
			
				<line fill="none" stroke="#00FFFF" stroke-width="3" stroke-linecap="round" stroke-linejoin="round" stroke-miterlimit="10" x1="626.838" y1="557.759" x2="626.838" y2="512.376"/>
			
				<line fill="none" stroke="#00FFFF" stroke-width="3" stroke-linecap="round" stroke-linejoin="round" stroke-miterlimit="10" x1="611.266" y1="557.759" x2="611.266" y2="512.376"/>
			
				<line fill="none" stroke="#00FFFF" stroke-width="3" stroke-linecap="round" stroke-linejoin="round" stroke-miterlimit="10" x1="704.705" y1="557.759" x2="704.705" y2="512.376"/>
			
				<line fill="none" stroke="#00FFFF" stroke-width="3" stroke-linecap="round" stroke-linejoin="round" stroke-miterlimit="10" x1="720.277" y1="557.759" x2="720.277" y2="512.376"/>
			
				<line fill="none" stroke="#00FFFF" stroke-width="3" stroke-linecap="round" stroke-linejoin="round" stroke-miterlimit="10" x1="735.852" y1="557.759" x2="735.852" y2="512.376"/>
			
				<line fill="none" stroke="#00FFFF" stroke-width="3" stroke-linecap="round" stroke-linejoin="round" stroke-miterlimit="10" x1="642.412" y1="557.759" x2="642.412" y2="512.376"/>
			
				<line fill="none" stroke="#00FFFF" stroke-width="3" stroke-linecap="round" stroke-linejoin="round" stroke-miterlimit="10" x1="595.691" y1="557.759" x2="595.691" y2="512.376"/>
			
				<line fill="none" stroke="#00FFFF" stroke-width="3" stroke-linecap="round" stroke-linejoin="round" stroke-miterlimit="10" x1="580.119" y1="557.759" x2="580.119" y2="512.376"/>
			
				<line fill="none" stroke="#00FFFF" stroke-width="3" stroke-linecap="round" stroke-linejoin="round" stroke-miterlimit="10" x1="564.545" y1="557.759" x2="564.545" y2="512.376"/>
			
				<line fill="none" stroke="#00FFFF" stroke-width="3" stroke-linecap="round" stroke-linejoin="round" stroke-miterlimit="10" x1="548.971" y1="557.759" x2="548.971" y2="512.376"/>
			
				<line fill="none" stroke="#00FFFF" stroke-width="3" stroke-linecap="round" stroke-linejoin="round" stroke-miterlimit="10" x1="533.398" y1="557.759" x2="533.398" y2="512.376"/>
			
				<line fill="none" stroke="#00FFFF" stroke-width="3" stroke-linecap="round" stroke-linejoin="round" stroke-miterlimit="10" x1="517.824" y1="557.759" x2="517.824" y2="512.376"/>
		</g>
		<path stroke="#00FFFF" stroke-width="3" stroke-linecap="round" stroke-linejoin="round" stroke-miterlimit="10" d="
			M596.42,520.993"/>
	</g>
	
		<path fill="#00FF00" stroke="#000000" stroke-width="3.3766" stroke-linecap="round" stroke-linejoin="round" stroke-miterlimit="10" d="
		M294.436,828.748c-6.248-2.532-13.293-3.964-20.752-3.964c-6.449,0-12.58,1.083-18.164,3.009
		c-2.299-8.648-9.877-15.005-18.895-15.005c-7.615,0-14.213,4.531-17.465,11.148c-2.668-1.415-5.684-2.218-8.883-2.218
		c-10.838,0-19.625,9.173-19.625,20.488c0,0.967,0.088,1.911,0.211,2.843c-15.537,6.127-26.248,19.063-26.25,34.032
		c0,28.768,29.117,36.521,52.23,35.739c11.486-0.389,21.367-5.252,32.9-6.883c9.693-1.37,17.904-1.247,27.268,1.534
		c7.795,2.315,13.529,4.264,18.041,4.243C294.979,887.695,294.791,859.233,294.436,828.748z"/>
	<g>
		
			<rect x="-11.424" y="7.65" fill="#FF0000" stroke="#000000" stroke-width="3.0599" stroke-linecap="round" stroke-linejoin="round" stroke-miterlimit="10" width="265.152" height="195.453"/>
		<g>
			
				<path fill="#FF0000" stroke="#000000" stroke-width="3.0599" stroke-linecap="round" stroke-linejoin="round" stroke-miterlimit="10" d="
				M367.848,9.779H219.426c0,205.479,65.021,438.718,71.115,635.096c7.701,248.193,3.293,437.513,3.293,437.513h93.482V9.779
				H367.848z"/>
		</g>
		
			<rect x="282.053" y="592.918" fill="#FF0000" stroke="#000000" stroke-width="3.0599" stroke-linecap="round" stroke-linejoin="round" stroke-miterlimit="10" width="109.73" height="51.417"/>
		
			<path fill="#FF0000" stroke="#000000" stroke-width="3" stroke-linecap="round" stroke-linejoin="round" stroke-miterlimit="10" d="
			M302.57,36.355c0,0-8.064,170.663,25.586,331.094"/>
		
			<rect x="-5.502" y="-7.969" fill="#0000FF" stroke="#000000" stroke-width="3" stroke-linecap="round" stroke-linejoin="round" stroke-miterlimit="10" width="414.707" height="43.159"/>
	</g>
	
		<path fill-rule="evenodd" clip-rule="evenodd" fill="#FFFFFF" stroke="#000000" stroke-width="3" stroke-linecap="round" stroke-linejoin="round" stroke-miterlimit="10" d="
		M1178.163,337.037c-8.568,0-16.322,2.984-22.465,7.909c-9.051-13.556-24.486-22.515-41.941-22.515
		c-17.529,0-32.965,8.959-41.934,22.515c-6.137-4.925-13.975-7.909-22.541-7.909c-19.711,0-35.709,15.973-35.709,35.656
		c0,18.713,14.465,34.12,32.883,35.571l-7.488,67.688c0,0,28.934,7.489,75.936,7.489c47.004,0,73.576-7.489,73.576-7.489
		l-7.488-67.688c18.42-1.451,32.879-16.858,32.879-35.571C1213.87,353.01,1197.878,337.037,1178.163,337.037L1178.163,337.037z"/>
</g>
</svg>
