<?xml version="1.0" encoding="utf-8"?>
<!-- Generator: Adobe Illustrator 16.0.0, SVG Export Plug-In . SVG Version: 6.00 Build 0)  -->
<!DOCTYPE svg PUBLIC "-//W3C//DTD SVG 1.1//EN" "http://www.w3.org/Graphics/SVG/1.1/DTD/svg11.dtd">
<svg version="1.1" xmlns="http://www.w3.org/2000/svg" xmlns:xlink="http://www.w3.org/1999/xlink" x="0px" y="0px"
	 width="453.544px" height="453.543px" viewBox="0 0 453.544 453.543" enable-background="new 0 0 453.544 453.543"
	 xml:space="preserve">
<g id="kvadrat">
</g>
<g id="bg" display="none">
	<rect x="-7466.03" y="-11460.058" display="inline" width="15266.867" height="13678.951"/>
</g>
<g id="barvno" display="none">
	<g id="rde훾a7bela" display="inline">
	</g>
	<g display="inline">
		<g>
			
				<line fill="none" stroke="#000000" stroke-width="8" stroke-linecap="round" stroke-linejoin="round" stroke-miterlimit="10" x1="204.089" y1="307.034" x2="209.937" y2="344.384"/>
			
				<line fill="none" stroke="#000000" stroke-width="8" stroke-linecap="round" stroke-linejoin="round" stroke-miterlimit="10" x1="247.087" y1="307.034" x2="241.235" y2="344.384"/>
			
				<rect x="207.013" y="344.384" fill="#7E4E24" stroke="#000000" stroke-width="8" stroke-linecap="round" stroke-linejoin="round" stroke-miterlimit="10" width="38.25" height="38.25"/>
			<g>
				<g>
					
						<path fill="#006633" stroke="#000000" stroke-width="8" stroke-linecap="round" stroke-linejoin="round" stroke-miterlimit="10" d="
						M316.288,223.684c1.523-2.753,3.006-5.582,4.457-8.457H132.134c1.246,2.467,2.516,4.9,3.816,7.279
						c9.391,17.164,20.082,31.974,30.141,44.08h120.705C296.624,254.758,307.056,240.348,316.288,223.684z"/>
					
						<path fill="#0075A5" stroke="#000000" stroke-width="8" stroke-linecap="round" stroke-linejoin="round" stroke-miterlimit="10" d="
						M166.091,266.586c19.902,23.953,37.334,37.313,37.334,37.313h29.777h13.186h3.07c0,0,17.434-13.358,37.338-37.313H166.091z"/>
				</g>
				<path fill="#D45F14" stroke="#000000" stroke-width="8" stroke-miterlimit="10" d="M226.44,70.906
					c-31.619,0-56.27,10.701-73.705,27.033h147.391C282.69,81.61,258.054,70.906,226.44,70.906z"/>
				
					<path fill="#DDDB00" stroke="#000000" stroke-width="8" stroke-linecap="round" stroke-linejoin="round" stroke-miterlimit="10" d="
					M322.771,130.184c-5.197-11.946-12.77-22.994-22.645-32.244H152.735c-10.301,9.647-18.086,21.256-23.293,33.793
					c-0.488,1.174-0.945,2.358-1.389,3.548h196.773C324.188,133.565,323.503,131.865,322.771,130.184z"/>
				
					<path fill="#39A935" stroke="#000000" stroke-width="8" stroke-linecap="round" stroke-linejoin="round" stroke-miterlimit="10" d="
					M128.054,135.28c-9.492,25.507-8.6,54.342,3.125,78.067c0.313,0.634,0.637,1.251,0.955,1.879h188.611
					c0.318-0.629,0.645-1.244,0.957-1.879c11.727-23.726,12.617-52.561,3.125-78.067H128.054z"/>
			</g>
		</g>
	</g>
	
		<rect x="-7976.315" y="-11880.066" display="inline" fill="none" stroke="#000000" stroke-miterlimit="10" width="16736" height="13952"/>
</g>
<g id="barvno_copy_2">
	<g id="rde훾a7bela_copy_4">
	</g>
	<g>
		<g>
			<path fill="#0000FF" d="M209.932,348.385c-1.937,0-3.638-1.409-3.947-3.382l-5.848-37.35c-0.342-2.183,1.15-4.229,3.333-4.571
				c2.186-0.339,4.229,1.15,4.571,3.333l5.848,37.35c0.342,2.183-1.15,4.229-3.333,4.571
				C210.346,348.368,210.138,348.385,209.932,348.385z"/>
			<path fill="#0000FF" d="M241.24,348.385c-0.206,0-0.414-0.017-0.624-0.049c-2.183-0.342-3.675-2.389-3.333-4.571l5.852-37.35
				c0.343-2.184,2.389-3.669,4.571-3.333c2.183,0.342,3.675,2.389,3.333,4.571l-5.852,37.35
				C244.878,346.976,243.176,348.385,241.24,348.385z"/>
			<g>
				<rect x="207.013" y="344.384" fill="#FF0000" width="38.25" height="38.25"/>
				<path d="M245.263,386.634h-38.25c-2.209,0-4-1.791-4-4v-38.25c0-2.209,1.791-4,4-4h38.25c2.209,0,4,1.791,4,4v38.25
					C249.263,384.843,247.472,386.634,245.263,386.634z M211.013,378.634h30.25v-30.25h-30.25V378.634z"/>
			</g>
			<g>
				<g>
					<g>
						<path fill="#00FF00" d="M316.288,223.684c1.523-2.753,3.006-5.582,4.457-8.457H132.134c1.246,2.467,2.516,4.9,3.816,7.279
							c9.391,17.164,20.082,31.974,30.141,44.08h120.705C296.624,254.758,307.056,240.348,316.288,223.684z"/>
						<path d="M286.796,270.586H166.091c-1.189,0-2.316-0.529-3.076-1.443c-11.869-14.285-22.155-29.33-30.573-44.717
							c-1.252-2.29-2.521-4.709-3.878-7.396c-0.626-1.24-0.564-2.717,0.163-3.899c0.729-1.184,2.018-1.904,3.407-1.904h188.611
							c1.389,0,2.679,0.721,3.406,1.903c0.729,1.184,0.791,2.659,0.165,3.899c-1.581,3.131-3.062,5.94-4.528,8.591
							c-8.296,14.973-18.36,29.615-29.916,43.522C289.112,270.057,287.985,270.586,286.796,270.586z M167.976,262.586h116.936
							c10.737-13.091,20.111-26.822,27.878-40.841c0.454-0.821,0.911-1.659,1.371-2.519H138.723c0.247,0.46,0.492,0.912,0.737,1.36
							C147.349,235.006,156.938,249.128,167.976,262.586z"/>
					</g>
					<g>
						<path fill="#2626FF" d="M166.091,266.586c19.902,23.953,37.334,37.313,37.334,37.313h29.777h13.186h3.07
							c0,0,17.434-13.358,37.338-37.313H166.091z"/>
						<path d="M249.458,307.899h-46.033c-0.88,0-1.735-0.29-2.434-0.825c-0.726-0.557-18.018-13.91-37.977-37.932
							c-0.991-1.193-1.204-2.852-0.545-4.256s2.07-2.301,3.621-2.301h120.705c1.551,0,2.962,0.896,3.621,2.301
							s0.446,3.063-0.545,4.256c-19.962,24.024-37.255,37.375-37.981,37.932C251.192,307.609,250.338,307.899,249.458,307.899z
							 M204.819,299.899h43.243c3.548-2.867,15.745-13.102,30.044-29.313H174.779C189.101,286.827,201.276,297.038,204.819,299.899z
							"/>
					</g>
				</g>
				<g>
					<path fill="#FF0000" d="M226.44,70.906c-31.619,0-56.27,10.701-73.705,27.033h147.391
						C282.69,81.61,258.054,70.906,226.44,70.906z"/>
					<path d="M310.249,101.939H142.614l7.387-6.919c19.635-18.393,46.067-28.114,76.439-28.114c30.355,0,56.781,9.722,76.42,28.113
						L310.249,101.939z M163.808,93.939h125.245c-17.031-12.488-38.452-19.033-62.612-19.033
						C202.267,74.906,180.839,81.452,163.808,93.939z"/>
				</g>
				<g>
					<path fill="#FF00FF" d="M322.771,130.184c-5.197-11.946-12.77-22.994-22.645-32.244H152.735
						c-10.301,9.647-18.086,21.256-23.293,33.793c-0.488,1.174-0.945,2.358-1.389,3.548h196.773
						C324.188,133.565,323.503,131.865,322.771,130.184z"/>
					<path d="M324.827,139.28H128.054c-1.311,0-2.538-0.642-3.285-1.719c-0.748-1.076-0.921-2.45-0.463-3.679
						c0.53-1.422,0.989-2.594,1.443-3.687c5.621-13.533,13.781-25.369,24.252-35.177c0.741-0.693,1.719-1.08,2.734-1.08h147.391
						c1.016,0,1.993,0.387,2.734,1.081c10.051,9.414,17.983,20.708,23.578,33.567c0.754,1.73,1.473,3.513,2.137,5.296
						c0.458,1.229,0.284,2.603-0.463,3.679C327.364,138.639,326.138,139.28,324.827,139.28z M133.987,131.28h184.896
						c-4.929-11.159-11.772-21.021-20.358-29.341h-144.19C145.748,110.26,138.913,120.115,133.987,131.28z"/>
				</g>
				<g>
					<path fill="#FFFF00" d="M128.054,135.28c-9.492,25.507-8.6,54.342,3.125,78.067c0.313,0.634,0.637,1.251,0.955,1.879h188.611
						c0.318-0.629,0.645-1.244,0.957-1.879c11.727-23.726,12.617-52.561,3.125-78.067H128.054z"/>
					<path d="M320.745,219.227H132.134c-1.507,0-2.886-0.847-3.567-2.191l-0.336-0.656c-0.215-0.419-0.43-0.837-0.64-1.263
						c-12.149-24.585-13.348-54.194-3.286-81.231c0.583-1.565,2.078-2.604,3.749-2.604h196.773c1.671,0,3.166,1.039,3.749,2.604
						c10.063,27.04,8.864,56.648-3.288,81.235c-0.2,0.407-0.408,0.812-0.617,1.217l-0.357,0.696
						C323.633,218.379,322.253,219.227,320.745,219.227z M134.594,211.227h183.693c10.472-21.448,11.817-48.109,3.718-71.946
						H130.876C122.776,163.118,124.121,189.78,134.594,211.227z"/>
				</g>
			</g>
		</g>
	</g>
	<rect x="-7976.315" y="-11880.066" fill="none" stroke="#000000" stroke-miterlimit="10" width="16736" height="13952"/>
</g>
<g id="sivinsko" display="none">
	<g id="rde훾a7bela_copy_3" display="inline">
	</g>
	<g display="inline">
		<g>
			<path d="M209.932,348.385c-1.937,0-3.638-1.408-3.947-3.382l-5.848-37.35c-0.342-2.183,1.15-4.229,3.333-4.571
				c2.186-0.339,4.229,1.15,4.571,3.333l5.848,37.35c0.342,2.183-1.15,4.229-3.333,4.571
				C210.346,348.368,210.138,348.385,209.932,348.385z"/>
			<path d="M241.24,348.385c-0.206,0-0.414-0.017-0.624-0.049c-2.183-0.342-3.675-2.389-3.333-4.571l5.852-37.35
				c0.343-2.184,2.389-3.669,4.571-3.333c2.183,0.342,3.675,2.389,3.333,4.571l-5.852,37.35
				C244.878,346.977,243.176,348.385,241.24,348.385z"/>
			<g>
				<rect x="207.013" y="344.384" fill="#585858" width="38.25" height="38.25"/>
				<path d="M245.263,386.634h-38.25c-2.209,0-4-1.791-4-4v-38.25c0-2.209,1.791-4,4-4h38.25c2.209,0,4,1.791,4,4v38.25
					C249.263,384.843,247.472,386.634,245.263,386.634z M211.013,378.634h30.25v-30.25h-30.25V378.634z"/>
			</g>
			<g>
				<g>
					<g>
						<path fill="#424242" d="M316.288,223.684c1.523-2.753,3.006-5.582,4.457-8.457H132.134c1.246,2.467,2.516,4.9,3.816,7.279
							c9.391,17.164,20.082,31.974,30.141,44.08h120.705C296.624,254.758,307.056,240.348,316.288,223.684z"/>
						<path d="M286.796,270.586H166.091c-1.189,0-2.316-0.529-3.076-1.443c-11.869-14.285-22.155-29.33-30.573-44.717
							c-1.252-2.29-2.521-4.709-3.878-7.396c-0.626-1.24-0.564-2.717,0.163-3.899c0.729-1.184,2.018-1.904,3.407-1.904h188.611
							c1.389,0,2.679,0.721,3.406,1.903c0.729,1.184,0.791,2.659,0.165,3.899c-1.581,3.131-3.062,5.94-4.528,8.591
							c-8.296,14.973-18.36,29.615-29.916,43.522C289.112,270.057,287.985,270.586,286.796,270.586z M167.976,262.586h116.936
							c10.737-13.091,20.111-26.822,27.878-40.841c0.454-0.821,0.911-1.659,1.371-2.519H138.723c0.247,0.46,0.492,0.912,0.737,1.36
							C147.349,235.006,156.938,249.128,167.976,262.586z"/>
					</g>
					<g>
						<path fill="#575757" d="M166.091,266.586c19.902,23.953,37.334,37.313,37.334,37.313h29.777h13.186h3.07
							c0,0,17.434-13.358,37.338-37.313H166.091z"/>
						<path d="M249.458,307.899h-46.033c-0.88,0-1.735-0.29-2.434-0.825c-0.726-0.557-18.018-13.91-37.977-37.932
							c-0.991-1.193-1.204-2.852-0.545-4.256s2.07-2.301,3.621-2.301h120.705c1.551,0,2.962,0.896,3.621,2.301
							s0.446,3.063-0.545,4.256c-19.962,24.024-37.255,37.375-37.981,37.932C251.192,307.609,250.338,307.899,249.458,307.899z
							 M204.819,299.899h43.243c3.548-2.867,15.745-13.102,30.044-29.313H174.779C189.101,286.827,201.276,297.038,204.819,299.899z
							"/>
					</g>
				</g>
				<g>
					<path fill="#7A7A7A" d="M226.44,70.906c-31.619,0-56.27,10.701-73.705,27.033h147.391
						C282.69,81.61,258.054,70.906,226.44,70.906z"/>
					<path d="M310.249,101.939H142.614l7.387-6.919c19.635-18.393,46.067-28.114,76.439-28.114c30.355,0,56.781,9.722,76.42,28.113
						L310.249,101.939z M163.808,93.939h125.245c-17.031-12.488-38.452-19.033-62.612-19.033
						C202.267,74.906,180.839,81.452,163.808,93.939z"/>
				</g>
				<g>
					<path fill="#C4C4C4" d="M322.771,130.184c-5.197-11.946-12.77-22.994-22.645-32.244H152.735
						c-10.301,9.647-18.086,21.256-23.293,33.793c-0.488,1.174-0.945,2.358-1.389,3.548h196.773
						C324.188,133.565,323.503,131.865,322.771,130.184z"/>
					<path d="M324.827,139.28H128.054c-1.311,0-2.538-0.642-3.285-1.719c-0.748-1.076-0.921-2.45-0.463-3.679
						c0.53-1.422,0.989-2.594,1.443-3.687c5.621-13.533,13.781-25.369,24.252-35.177c0.741-0.693,1.719-1.08,2.734-1.08h147.391
						c1.016,0,1.993,0.387,2.734,1.081c10.051,9.415,17.983,20.708,23.578,33.567c0.754,1.73,1.473,3.514,2.137,5.296
						c0.458,1.229,0.284,2.603-0.463,3.679C327.364,138.639,326.138,139.28,324.827,139.28z M133.987,131.28h184.896
						c-4.929-11.159-11.772-21.021-20.358-29.341h-144.19C145.748,110.26,138.913,120.115,133.987,131.28z"/>
				</g>
				<g>
					<path fill="#7B7B7B" d="M128.054,135.28c-9.492,25.507-8.6,54.342,3.125,78.067c0.313,0.634,0.637,1.251,0.955,1.879h188.611
						c0.318-0.629,0.645-1.244,0.957-1.879c11.727-23.726,12.617-52.561,3.125-78.067H128.054z"/>
					<path d="M320.745,219.227H132.134c-1.507,0-2.886-0.847-3.567-2.191l-0.336-0.656c-0.215-0.419-0.43-0.837-0.64-1.263
						c-12.149-24.585-13.348-54.194-3.286-81.231c0.583-1.565,2.078-2.604,3.749-2.604h196.773c1.671,0,3.166,1.039,3.749,2.604
						c10.063,27.04,8.864,56.648-3.288,81.235c-0.2,0.407-0.408,0.812-0.617,1.217l-0.357,0.696
						C323.633,218.379,322.253,219.227,320.745,219.227z M134.594,211.227h183.693c10.472-21.448,11.817-48.109,3.718-71.946
						H130.876C122.776,163.118,124.121,189.78,134.594,211.227z"/>
				</g>
			</g>
		</g>
	</g>
	<path display="inline" d="M8760.185,2072.434h-16737v-13953h16737V2072.434z M-7976.315,2071.434h16736l-0.5-13951h-16735.5
		l0.5,13951H-7976.315z"/>
</g>
<g id="linijsko" display="none">
	<g id="rde훾a7bela_copy" display="inline">
	</g>
	<g display="inline">
		<g>
			
				<line fill="none" stroke="#000000" stroke-width="8" stroke-linecap="round" stroke-linejoin="round" stroke-miterlimit="10" x1="204.089" y1="307.034" x2="209.937" y2="344.384"/>
			
				<line fill="none" stroke="#000000" stroke-width="8" stroke-linecap="round" stroke-linejoin="round" stroke-miterlimit="10" x1="247.087" y1="307.034" x2="241.235" y2="344.384"/>
			
				<rect x="207.013" y="344.384" fill="none" stroke="#000000" stroke-width="8" stroke-linecap="round" stroke-linejoin="round" stroke-miterlimit="10" width="38.25" height="38.25"/>
			<g>
				<g>
					
						<path fill="none" stroke="#000000" stroke-width="8" stroke-linecap="round" stroke-linejoin="round" stroke-miterlimit="10" d="
						M316.288,223.684c1.523-2.753,3.006-5.582,4.457-8.457H132.134c1.246,2.467,2.516,4.9,3.816,7.279
						c9.391,17.164,20.082,31.974,30.141,44.08h120.705C296.624,254.758,307.056,240.348,316.288,223.684z"/>
					
						<path fill="none" stroke="#000000" stroke-width="8" stroke-linecap="round" stroke-linejoin="round" stroke-miterlimit="10" d="
						M166.091,266.586c19.902,23.953,37.334,37.313,37.334,37.313h29.777h13.186h3.07c0,0,17.434-13.358,37.338-37.313H166.091z"/>
				</g>
				<path fill="none" stroke="#000000" stroke-width="8" stroke-miterlimit="10" d="M226.44,70.906
					c-31.619,0-56.27,10.701-73.705,27.033h147.391C282.69,81.61,258.054,70.906,226.44,70.906z"/>
				
					<path fill="none" stroke="#000000" stroke-width="8" stroke-linecap="round" stroke-linejoin="round" stroke-miterlimit="10" d="
					M322.771,130.184c-5.197-11.946-12.77-22.994-22.645-32.244H152.735c-10.301,9.647-18.086,21.256-23.293,33.793
					c-0.488,1.174-0.945,2.358-1.389,3.548h196.773C324.188,133.565,323.503,131.865,322.771,130.184z"/>
				
					<path fill="none" stroke="#000000" stroke-width="8" stroke-linecap="round" stroke-linejoin="round" stroke-miterlimit="10" d="
					M128.054,135.28c-9.492,25.507-8.6,54.342,3.125,78.067c0.313,0.634,0.637,1.251,0.955,1.879h188.611
					c0.318-0.629,0.645-1.244,0.957-1.879c11.727-23.726,12.617-52.561,3.125-78.067H128.054z"/>
			</g>
		</g>
	</g>
</g>
<g id="pivot">
	<circle fill="none" cx="218.53" cy="376.934" r="14.133"/>
</g>
</svg>
