<?xml version="1.0" encoding="utf-8"?>
<!-- Generator: Adobe Illustrator 16.0.0, SVG Export Plug-In . SVG Version: 6.00 Build 0)  -->
<!DOCTYPE svg PUBLIC "-//W3C//DTD SVG 1.1//EN" "http://www.w3.org/Graphics/SVG/1.1/DTD/svg11.dtd">
<svg version="1.1" xmlns="http://www.w3.org/2000/svg" xmlns:xlink="http://www.w3.org/1999/xlink" x="0px" y="0px"
	 width="453.543px" height="453.543px" viewBox="0 0 453.543 453.543" enable-background="new 0 0 453.543 453.543"
	 xml:space="preserve">
<g id="kvadrat">
</g>
<g id="bg" display="none">
	<rect x="-6955.794" y="-11460.058" display="inline" width="15266.867" height="13678.951"/>
</g>
<g id="barvno" display="none">
	<g id="rde훾a7bela" display="inline">
	</g>
	<g display="inline">
		<g>
			
				<line fill="none" stroke="#000000" stroke-width="8" stroke-linecap="round" stroke-linejoin="round" stroke-miterlimit="10" x1="204.422" y1="301.034" x2="210.271" y2="338.384"/>
			
				<line fill="none" stroke="#000000" stroke-width="8" stroke-linecap="round" stroke-linejoin="round" stroke-miterlimit="10" x1="247.42" y1="301.034" x2="241.568" y2="338.384"/>
			
				<polygon fill="#7E4E24" stroke="#000000" stroke-width="8" stroke-linecap="round" stroke-linejoin="round" stroke-miterlimit="10" points="
				247.978,389.014 204.967,389.014 194.967,336.004 257.978,336.004 			"/>
			<g>
				
					<path fill="#DDDB00" stroke="#000000" stroke-width="8" stroke-linecap="round" stroke-linejoin="round" stroke-miterlimit="10" d="
					M172.254,104.354c0,14.701,11.918,26.619,26.619,26.619s26.619-11.918,26.619-26.619c0,14.701,11.918,26.619,26.619,26.619
					c14.703,0,26.621-11.918,26.621-26.619c0,14.701,11.918,26.619,26.619,26.619c6.821,0,13.043-2.568,17.754-6.789
					c-14.377-33.037-46.811-59.277-96.332-59.277c-50.295,0-82.973,27.064-96.998,60.826c4.43,3.291,9.916,5.24,15.857,5.24
					C160.336,130.973,172.254,119.055,172.254,104.354z"/>
				
					<path fill="#006633" stroke="#000000" stroke-width="8" stroke-linecap="round" stroke-linejoin="round" stroke-miterlimit="10" d="
					M298.298,186.094c0,20.105-16.298,36.402-36.401,36.402c-20.105,0-36.404-16.297-36.404-36.402
					c0,20.105-16.299,36.402-36.402,36.402c-20.105,0-36.404-16.297-36.404-36.402c0,12.715-6.523,23.902-16.402,30.412
					c27.973,51.124,67.475,81.394,67.475,81.394h29.777h13.186h3.07c0,0,38.9-29.803,66.83-80.216
					C305.678,211.406,298.298,199.615,298.298,186.094z"/>
				
					<path fill="#39A935" stroke="#000000" stroke-width="8" stroke-linecap="round" stroke-linejoin="round" stroke-miterlimit="10" d="
					M323.105,124.184c-4.711,4.221-10.933,6.789-17.754,6.789c-14.701,0-26.619-11.918-26.619-26.619
					c0,14.701-11.918,26.619-26.621,26.619c-14.701,0-26.619-11.918-26.619-26.619c0,14.701-11.918,26.619-26.619,26.619
					s-26.619-11.918-26.619-26.619c0,14.701-11.918,26.619-26.621,26.619c-5.941,0-11.428-1.949-15.857-5.24
					c-10.949,26.352-10.535,56.783,1.736,81.615c1.543,3.125,3.139,6.174,4.771,9.158c9.879-6.51,16.402-17.697,16.402-30.412
					c0,20.105,16.299,36.402,36.404,36.402c20.104,0,36.402-16.297,36.402-36.402c0,20.105,16.299,36.402,36.404,36.402
					c20.104,0,36.401-16.297,36.401-36.402c0,13.521,7.38,25.313,18.323,31.59c1.857-3.355,3.668-6.801,5.414-10.336
					C334.549,182.027,334.725,150.887,323.105,124.184z"/>
			</g>
		</g>
	</g>
	
		<rect x="-7466.08" y="-11880.066" display="inline" fill="none" stroke="#000000" stroke-miterlimit="10" width="16736" height="13952"/>
</g>
<g id="barvno_copy_2">
	<g id="rde훾a7bela_copy_4">
	</g>
	<g>
		<g>
			<path fill="#0000FF" d="M210.267,342.385c-1.937,0-3.638-1.409-3.947-3.382l-5.85-37.35c-0.342-2.183,1.15-4.229,3.333-4.571
				c2.189-0.335,4.23,1.15,4.571,3.333l5.85,37.35c0.342,2.183-1.15,4.229-3.333,4.571
				C210.681,342.368,210.472,342.385,210.267,342.385z"/>
			<path fill="#0000FF" d="M241.573,342.385c-0.206,0-0.414-0.017-0.624-0.049c-2.183-0.342-3.675-2.389-3.333-4.571l5.852-37.35
				c0.342-2.183,2.39-3.664,4.571-3.333c2.183,0.342,3.675,2.389,3.333,4.571l-5.852,37.35
				C245.211,340.976,243.509,342.385,241.573,342.385z"/>
			<g>
				<polygon fill="#FF0000" points="247.978,389.014 204.967,389.014 194.967,336.004 257.978,336.004 				"/>
				<path d="M247.978,393.014h-43.011c-1.923,0-3.574-1.368-3.931-3.259l-10-53.01c-0.221-1.17,0.091-2.377,0.851-3.294
					c0.76-0.917,1.889-1.447,3.08-1.447h63.011c1.191,0,2.319,0.53,3.08,1.447c0.76,0.917,1.072,2.124,0.851,3.294l-10,53.01
					C251.552,391.646,249.901,393.014,247.978,393.014z M208.283,385.014h36.379l8.491-45.01h-53.36L208.283,385.014z"/>
			</g>
			<g>
				<g>
					<path fill="#FF00FF" d="M172.254,104.354c0,14.701,11.918,26.619,26.619,26.619s26.619-11.918,26.619-26.619
						c0,14.701,11.918,26.619,26.619,26.619c14.703,0,26.621-11.918,26.621-26.619c0,14.701,11.918,26.619,26.619,26.619
						c6.821,0,13.043-2.568,17.754-6.789c-14.377-33.037-46.811-59.277-96.332-59.277c-50.295,0-82.973,27.064-96.998,60.826
						c4.43,3.291,9.916,5.24,15.857,5.24C160.336,130.973,172.254,119.055,172.254,104.354z"/>
					<path d="M305.352,134.973c-11.389,0-21.345-6.249-26.619-15.5c-5.275,9.251-15.231,15.5-26.621,15.5
						c-11.389,0-21.345-6.249-26.619-15.499c-5.274,9.25-15.23,15.499-26.619,15.499s-21.345-6.249-26.619-15.5
						c-5.275,9.251-15.231,15.5-26.621,15.5c-6.625,0-12.934-2.085-18.243-6.029c-1.473-1.095-2.013-3.051-1.309-4.745
						c7.647-18.408,20.216-33.917,36.348-44.851c18.054-12.237,39.703-18.441,64.344-18.441c24.272,0,45.656,6.028,63.558,17.918
						c16.007,10.631,28.609,25.764,36.442,43.764c0.688,1.58,0.285,3.425-0.999,4.575
						C320.153,132.199,312.9,134.973,305.352,134.973z M282.732,104.354c0,12.473,10.147,22.619,22.619,22.619
						c4.608,0,9.068-1.399,12.821-3.985c-16.229-34.416-49.363-54.081-91.399-54.081c-42.669,0-76,20.106-91.978,55.307
						c3.306,1.813,6.999,2.76,10.837,2.76c12.473,0,22.621-10.146,22.621-22.619c0-2.209,1.791-4,4-4s4,1.791,4,4
						c0,12.473,10.147,22.619,22.619,22.619s22.619-10.146,22.619-22.619c0-2.209,1.791-4,4-4s4,1.791,4,4
						c0,12.473,10.147,22.619,22.619,22.619c12.473,0,22.621-10.146,22.621-22.619c0-2.209,1.791-4,4-4
						S282.732,102.145,282.732,104.354z"/>
				</g>
				<g>
					<path fill="#00FF00" d="M298.298,186.094c0,20.105-16.298,36.402-36.401,36.402c-20.105,0-36.404-16.297-36.404-36.402
						c0,20.105-16.299,36.402-36.402,36.402c-20.105,0-36.404-16.297-36.404-36.402c0,12.715-6.523,23.902-16.402,30.412
						c27.973,51.124,67.475,81.394,67.475,81.394h29.777h13.186h3.07c0,0,38.9-29.803,66.83-80.216
						C305.678,211.406,298.298,199.615,298.298,186.094z"/>
					<path d="M249.791,301.899h-46.033c-0.879,0-1.735-0.29-2.433-0.825c-1.64-1.257-40.495-31.373-68.551-82.648
						c-0.999-1.826-0.43-4.114,1.309-5.26c9.144-6.025,14.603-16.146,14.603-27.072c0-2.209,1.791-4,4-4s4,1.791,4,4
						c0,17.867,14.537,32.402,32.404,32.402c17.867,0,32.402-14.535,32.402-32.402c0-2.209,1.791-4,4-4s4,1.791,4,4
						c0,17.867,14.537,32.402,32.404,32.402c17.866,0,32.401-14.535,32.401-32.402c0-2.209,1.791-4,4-4s4,1.791,4,4
						c0,11.573,6.251,22.348,16.313,28.12c1.896,1.088,2.568,3.496,1.509,5.408c-28.012,50.562-66.281,80.215-67.896,81.452
						C251.525,301.609,250.67,301.899,249.791,301.899z M205.154,293.899h43.24c6.159-4.987,38.424-32.259,62.889-74.893
						c-5.605-3.998-10.044-9.33-12.976-15.412c-6.533,13.539-20.399,22.901-36.411,22.901c-16.005,0-29.866-9.354-36.404-22.882
						c-6.538,13.527-20.398,22.882-36.402,22.882c-16,0-29.857-9.348-36.397-22.867c-2.6,5.396-6.4,10.201-11.192,14.026
						C166.092,261.133,198.933,288.867,205.154,293.899z"/>
				</g>
				<g>
					<path fill="#0000FF" d="M323.105,124.184c-4.711,4.221-10.933,6.789-17.754,6.789c-14.701,0-26.619-11.918-26.619-26.619
						c0,14.701-11.918,26.619-26.621,26.619c-14.701,0-26.619-11.918-26.619-26.619c0,14.701-11.918,26.619-26.619,26.619
						s-26.619-11.918-26.619-26.619c0,14.701-11.918,26.619-26.621,26.619c-5.941,0-11.428-1.949-15.857-5.24
						c-10.949,26.352-10.535,56.783,1.736,81.615c1.543,3.125,3.139,6.174,4.771,9.158c9.879-6.51,16.402-17.697,16.402-30.412
						c0,20.105,16.299,36.402,36.404,36.402c20.104,0,36.402-16.297,36.402-36.402c0,20.105,16.299,36.402,36.404,36.402
						c20.104,0,36.401-16.297,36.401-36.402c0,13.521,7.38,25.313,18.323,31.59c1.857-3.355,3.668-6.801,5.414-10.336
						C334.549,182.027,334.725,150.887,323.105,124.184z"/>
					<path d="M261.896,226.496c-16.005,0-29.866-9.354-36.404-22.882c-6.538,13.527-20.398,22.882-36.402,22.882
						c-16,0-29.857-9.348-36.397-22.867c-3.124,6.484-7.98,12.113-14.208,16.217c-0.934,0.616-2.082,0.812-3.167,0.542
						c-1.085-0.27-2.007-0.981-2.544-1.962c-1.725-3.152-3.356-6.284-4.849-9.308c-12.63-25.556-13.319-57.303-1.844-84.921
						c0.473-1.138,1.443-1.993,2.631-2.321c1.188-0.328,2.459-0.088,3.449,0.646c3.919,2.912,8.578,4.451,13.472,4.451
						c12.473,0,22.621-10.146,22.621-22.619c0-2.209,1.791-4,4-4s4,1.791,4,4c0,12.473,10.147,22.619,22.619,22.619
						s22.619-10.146,22.619-22.619c0-2.209,1.791-4,4-4s4,1.791,4,4c0,12.473,10.147,22.619,22.619,22.619
						c12.473,0,22.621-10.146,22.621-22.619c0-2.209,1.791-4,4-4s4,1.791,4,4c0,12.473,10.147,22.619,22.619,22.619
						c5.576,0,10.933-2.049,15.085-5.769c0.957-0.857,2.267-1.201,3.522-0.929c1.255,0.274,2.302,1.134,2.815,2.313
						c12.2,28.038,11.769,60.387-1.152,86.532c-1.717,3.476-3.567,7.009-5.5,10.501c-0.519,0.938-1.392,1.627-2.424,1.915
						c-1.032,0.288-2.136,0.149-3.066-0.383c-7.197-4.129-12.83-10.312-16.323-17.559
						C291.774,217.134,277.908,226.496,261.896,226.496z M229.492,186.094c0,17.866,14.537,32.402,32.404,32.402
						c17.866,0,32.401-14.536,32.401-32.402c0-2.209,1.791-4,4-4s4,1.791,4,4c0,10.195,4.851,19.771,12.885,25.853
						c1.132-2.13,2.225-4.261,3.266-6.37c11.18-22.622,12.176-50.342,2.887-75.106c-4.78,2.93-10.298,4.503-15.984,4.503
						c-11.389,0-21.345-6.249-26.619-15.5c-5.275,9.251-15.231,15.5-26.621,15.5c-11.389,0-21.345-6.249-26.619-15.499
						c-5.274,9.25-15.23,15.499-26.619,15.499c-11.389,0-21.345-6.249-26.619-15.5c-5.275,9.251-15.231,15.5-26.621,15.5
						c-4.886,0-9.599-1.134-13.866-3.311c-8.795,24.438-7.629,51.735,3.331,73.913c0.795,1.611,1.632,3.255,2.502,4.917
						c7.008-6.116,11.085-14.957,11.085-24.398c0-2.209,1.791-4,4-4s4,1.791,4,4c0,17.866,14.537,32.402,32.404,32.402
						c17.867,0,32.402-14.536,32.402-32.402c0-2.209,1.791-4,4-4S229.492,183.885,229.492,186.094z"/>
				</g>
			</g>
		</g>
	</g>
	<rect x="-7466.08" y="-11880.066" fill="none" stroke="#000000" stroke-miterlimit="10" width="16736" height="13952"/>
</g>
<g id="sivinsko" display="none">
	<g id="rde훾a7bela_copy_3" display="inline">
	</g>
	<g display="inline">
		<g>
			<path d="M210.267,342.385c-1.937,0-3.638-1.408-3.947-3.382l-5.85-37.35c-0.342-2.183,1.15-4.229,3.333-4.571
				c2.189-0.335,4.23,1.15,4.571,3.333l5.85,37.35c0.342,2.183-1.15,4.229-3.333,4.571
				C210.681,342.368,210.472,342.385,210.267,342.385z"/>
			<path d="M241.573,342.385c-0.206,0-0.414-0.017-0.624-0.049c-2.183-0.342-3.675-2.389-3.333-4.571l5.852-37.35
				c0.342-2.183,2.39-3.664,4.571-3.333c2.183,0.342,3.675,2.389,3.333,4.571l-5.852,37.35
				C245.211,340.977,243.509,342.385,241.573,342.385z"/>
			<g>
				<polygon fill="#585858" points="247.978,389.014 204.967,389.014 194.967,336.004 257.978,336.004 				"/>
				<path d="M247.978,393.014h-43.011c-1.923,0-3.574-1.368-3.931-3.259l-10-53.01c-0.221-1.17,0.091-2.377,0.851-3.294
					c0.76-0.917,1.889-1.447,3.08-1.447h63.011c1.191,0,2.319,0.53,3.08,1.447c0.76,0.917,1.072,2.124,0.851,3.294l-10,53.01
					C251.552,391.646,249.901,393.014,247.978,393.014z M208.283,385.014h36.379l8.491-45.01h-53.36L208.283,385.014z"/>
			</g>
			<g>
				<g>
					<path fill="#C4C4C4" d="M172.254,104.354c0,14.701,11.918,26.619,26.619,26.619s26.619-11.918,26.619-26.619
						c0,14.701,11.918,26.619,26.619,26.619c14.703,0,26.621-11.918,26.621-26.619c0,14.701,11.918,26.619,26.619,26.619
						c6.821,0,13.043-2.568,17.754-6.789c-14.377-33.037-46.811-59.277-96.332-59.277c-50.295,0-82.973,27.064-96.998,60.826
						c4.43,3.291,9.916,5.24,15.857,5.24C160.336,130.973,172.254,119.055,172.254,104.354z"/>
					<path d="M305.352,134.973c-11.389,0-21.345-6.249-26.619-15.5c-5.275,9.251-15.231,15.5-26.621,15.5
						c-11.389,0-21.345-6.249-26.619-15.499c-5.274,9.25-15.23,15.499-26.619,15.499s-21.345-6.249-26.619-15.5
						c-5.275,9.251-15.231,15.5-26.621,15.5c-6.625,0-12.934-2.085-18.243-6.029c-1.473-1.095-2.013-3.051-1.309-4.745
						c7.647-18.408,20.216-33.917,36.348-44.851c18.054-12.237,39.703-18.441,64.344-18.441c24.272,0,45.656,6.029,63.558,17.918
						c16.007,10.631,28.609,25.764,36.442,43.764c0.688,1.58,0.285,3.425-0.999,4.575
						C320.153,132.199,312.9,134.973,305.352,134.973z M282.732,104.354c0,12.473,10.147,22.619,22.619,22.619
						c4.608,0,9.068-1.399,12.821-3.985c-16.229-34.416-49.363-54.081-91.399-54.081c-42.669,0-76,20.106-91.978,55.307
						c3.306,1.813,6.999,2.76,10.837,2.76c12.473,0,22.621-10.146,22.621-22.619c0-2.209,1.791-4,4-4s4,1.791,4,4
						c0,12.473,10.147,22.619,22.619,22.619s22.619-10.146,22.619-22.619c0-2.209,1.791-4,4-4s4,1.791,4,4
						c0,12.473,10.147,22.619,22.619,22.619c12.473,0,22.621-10.146,22.621-22.619c0-2.209,1.791-4,4-4
						S282.732,102.145,282.732,104.354z"/>
				</g>
				<g>
					<path fill="#424242" d="M298.298,186.094c0,20.105-16.298,36.402-36.401,36.402c-20.105,0-36.404-16.297-36.404-36.402
						c0,20.105-16.299,36.402-36.402,36.402c-20.105,0-36.404-16.297-36.404-36.402c0,12.715-6.523,23.902-16.402,30.412
						c27.973,51.124,67.475,81.394,67.475,81.394h29.777h13.186h3.07c0,0,38.9-29.803,66.83-80.216
						C305.678,211.406,298.298,199.615,298.298,186.094z"/>
					<path d="M249.791,301.899h-46.033c-0.879,0-1.735-0.29-2.433-0.825c-1.64-1.257-40.495-31.373-68.551-82.648
						c-0.999-1.826-0.43-4.114,1.309-5.26c9.144-6.025,14.603-16.146,14.603-27.072c0-2.209,1.791-4,4-4s4,1.791,4,4
						c0,17.867,14.537,32.402,32.404,32.402c17.867,0,32.402-14.535,32.402-32.402c0-2.209,1.791-4,4-4s4,1.791,4,4
						c0,17.867,14.537,32.402,32.404,32.402c17.866,0,32.401-14.535,32.401-32.402c0-2.209,1.791-4,4-4s4,1.791,4,4
						c0,11.573,6.251,22.348,16.313,28.12c1.896,1.088,2.568,3.496,1.509,5.408c-28.012,50.562-66.281,80.215-67.896,81.452
						C251.525,301.609,250.67,301.899,249.791,301.899z M205.154,293.899h43.24c6.159-4.987,38.424-32.259,62.889-74.893
						c-5.605-3.998-10.044-9.33-12.976-15.412c-6.533,13.539-20.399,22.901-36.411,22.901c-16.005,0-29.866-9.354-36.404-22.882
						c-6.538,13.527-20.398,22.882-36.402,22.882c-16,0-29.857-9.348-36.397-22.867c-2.6,5.396-6.4,10.201-11.192,14.026
						C166.092,261.133,198.933,288.867,205.154,293.899z"/>
				</g>
				<g>
					<path fill="#7B7B7B" d="M323.105,124.184c-4.711,4.221-10.933,6.789-17.754,6.789c-14.701,0-26.619-11.918-26.619-26.619
						c0,14.701-11.918,26.619-26.621,26.619c-14.701,0-26.619-11.918-26.619-26.619c0,14.701-11.918,26.619-26.619,26.619
						s-26.619-11.918-26.619-26.619c0,14.701-11.918,26.619-26.621,26.619c-5.941,0-11.428-1.949-15.857-5.24
						c-10.949,26.352-10.535,56.783,1.736,81.615c1.543,3.125,3.139,6.174,4.771,9.158c9.879-6.51,16.402-17.697,16.402-30.412
						c0,20.105,16.299,36.402,36.404,36.402c20.104,0,36.402-16.297,36.402-36.402c0,20.105,16.299,36.402,36.404,36.402
						c20.104,0,36.401-16.297,36.401-36.402c0,13.521,7.38,25.313,18.323,31.59c1.857-3.355,3.668-6.801,5.414-10.336
						C334.549,182.027,334.725,150.887,323.105,124.184z"/>
					<path d="M261.896,226.496c-16.005,0-29.866-9.354-36.404-22.882c-6.538,13.527-20.398,22.882-36.402,22.882
						c-16,0-29.857-9.348-36.397-22.867c-3.124,6.484-7.98,12.113-14.208,16.217c-0.934,0.616-2.082,0.812-3.167,0.542
						c-1.085-0.27-2.007-0.981-2.544-1.962c-1.725-3.152-3.356-6.284-4.849-9.308c-12.63-25.556-13.319-57.303-1.844-84.921
						c0.473-1.137,1.443-1.993,2.631-2.321c1.188-0.328,2.459-0.088,3.449,0.646c3.919,2.912,8.578,4.451,13.472,4.451
						c12.473,0,22.621-10.146,22.621-22.619c0-2.209,1.791-4,4-4s4,1.791,4,4c0,12.473,10.147,22.619,22.619,22.619
						s22.619-10.146,22.619-22.619c0-2.209,1.791-4,4-4s4,1.791,4,4c0,12.473,10.147,22.619,22.619,22.619
						c12.473,0,22.621-10.146,22.621-22.619c0-2.209,1.791-4,4-4s4,1.791,4,4c0,12.473,10.147,22.619,22.619,22.619
						c5.576,0,10.933-2.049,15.085-5.769c0.957-0.857,2.267-1.201,3.522-0.929c1.255,0.274,2.302,1.134,2.815,2.313
						c12.2,28.038,11.769,60.387-1.152,86.532c-1.717,3.476-3.567,7.009-5.5,10.501c-0.519,0.938-1.392,1.627-2.424,1.915
						c-1.032,0.288-2.136,0.149-3.066-0.383c-7.197-4.129-12.83-10.312-16.323-17.559
						C291.774,217.134,277.908,226.496,261.896,226.496z M229.492,186.094c0,17.866,14.537,32.402,32.404,32.402
						c17.866,0,32.401-14.536,32.401-32.402c0-2.209,1.791-4,4-4s4,1.791,4,4c0,10.195,4.851,19.771,12.885,25.853
						c1.132-2.13,2.225-4.261,3.266-6.37c11.18-22.622,12.176-50.342,2.887-75.106c-4.78,2.93-10.298,4.503-15.984,4.503
						c-11.389,0-21.345-6.249-26.619-15.5c-5.275,9.251-15.231,15.5-26.621,15.5c-11.389,0-21.345-6.249-26.619-15.499
						c-5.274,9.25-15.23,15.499-26.619,15.499c-11.389,0-21.345-6.249-26.619-15.5c-5.275,9.251-15.231,15.5-26.621,15.5
						c-4.886,0-9.599-1.134-13.866-3.311c-8.795,24.438-7.629,51.735,3.331,73.913c0.795,1.611,1.632,3.255,2.502,4.917
						c7.008-6.116,11.085-14.957,11.085-24.398c0-2.209,1.791-4,4-4s4,1.791,4,4c0,17.866,14.537,32.402,32.404,32.402
						c17.867,0,32.402-14.536,32.402-32.402c0-2.209,1.791-4,4-4S229.492,183.885,229.492,186.094z"/>
				</g>
			</g>
		</g>
	</g>
	<path display="inline" d="M9270.42,2072.434h-16737v-13953h16737V2072.434z M-7466.08,2071.434h16736l-0.5-13951h-16735.5
		l0.5,13951H-7466.08z"/>
</g>
<g id="linijsko" display="none">
	<g id="rde훾a7bela_copy" display="inline">
	</g>
</g>
<g id="pivot">
	<circle fill="none" cx="224.375" cy="371.915" r="14.133"/>
</g>
</svg>
