<?xml version="1.0" encoding="utf-8"?>
<!-- Generator: Adobe Illustrator 16.0.0, SVG Export Plug-In . SVG Version: 6.00 Build 0)  -->
<!DOCTYPE svg PUBLIC "-//W3C//DTD SVG 1.1//EN" "http://www.w3.org/Graphics/SVG/1.1/DTD/svg11.dtd">
<svg version="1.1" xmlns="http://www.w3.org/2000/svg" xmlns:xlink="http://www.w3.org/1999/xlink" x="0px" y="0px"
	 width="453.543px" height="453.543px" viewBox="0 0 453.543 453.543" enable-background="new 0 0 453.543 453.543"
	 xml:space="preserve">
<g id="kvadrat">
</g>
<g id="bg" display="none">
	<rect x="-5425.085" y="-11970.294" display="inline" width="15266.867" height="13678.951"/>
</g>
<g id="barvno" display="none">
	<g id="rde훾a7bela" display="inline">
	</g>
	<g display="inline">
		<g>
			
				<rect x="219.462" y="95.559" stroke="#000000" stroke-width="8" stroke-linecap="round" stroke-linejoin="round" stroke-miterlimit="10" width="4.821" height="212.006"/>
			
				<path fill="#57B2E5" stroke="#000000" stroke-width="8" stroke-linecap="round" stroke-linejoin="round" stroke-miterlimit="10" d="
				M218.701,145.906v114.484h-89.382C129.319,260.391,209.714,196.734,218.701,145.906z"/>
			
				<path fill="#0075A5" stroke="#000000" stroke-width="8" stroke-linecap="round" stroke-linejoin="round" stroke-miterlimit="10" d="
				M349.397,260.391c0,0-114.756-113.354-129.935-164.832v164.832H349.397z"/>
			
				<polygon fill="#EED2A3" stroke="#000000" stroke-width="8" stroke-linecap="round" stroke-linejoin="round" stroke-miterlimit="10" points="
				299.397,357.98 154.147,357.98 104.147,294.113 349.397,294.113 			"/>
		</g>
	</g>
	
		<rect x="-5935.371" y="-12390.303" display="inline" fill="none" stroke="#000000" stroke-miterlimit="10" width="16736" height="13952"/>
</g>
<g id="barvno_copy_2">
	<g id="rde훾a7bela_copy_4">
	</g>
	<g>
		<g>
			<rect x="219.462" y="147.93" fill="#00FF00" width="4.821" height="159.635"/>
			<path fill="#00FF00" d="M224.284,311.035h-4.821c-1.917,0-3.471-1.554-3.471-3.471V147.93c0-1.917,1.554-3.471,3.471-3.471h4.821
				c1.917,0,3.471,1.554,3.471,3.471v159.635C227.755,309.481,226.201,311.035,224.284,311.035z"/>
		</g>
		<g>
			<path fill="#00FFFF" d="M218.701,145.906v114.484h-89.382C129.319,260.391,209.714,196.734,218.701,145.906z"/>
			<path d="M218.701,264.391h-89.382c-1.702,0-3.218-1.077-3.777-2.686c-0.56-1.607-0.041-3.394,1.294-4.45
				c0.792-0.627,79.309-63.305,87.926-112.045c0.361-2.042,2.222-3.472,4.289-3.288c2.065,0.181,3.65,1.911,3.65,3.984v114.484
				C222.701,262.6,220.91,264.391,218.701,264.391z M140.403,256.391h74.297v-86.748
				C197.126,205.411,157.897,241.422,140.403,256.391z"/>
		</g>
		<g>
			<path fill="#2626FF" d="M349.397,260.391c0,0-114.756-113.354-129.935-164.832v164.832H349.397z"/>
			<path d="M349.397,264.391H219.462c-2.209,0-4-1.791-4-4V95.559c0-1.988,1.46-3.675,3.429-3.959
				c1.968-0.279,3.846,0.922,4.408,2.828c14.714,49.902,127.769,161.991,128.909,163.117c1.154,1.14,1.505,2.864,0.889,4.365
				S351.019,264.391,349.397,264.391z M223.462,256.391h116.296c-22.153-22.434-90.877-93.852-116.296-141.461V256.391z"/>
		</g>
		<g>
			<polygon fill="#FF0000" points="299.397,357.98 154.147,357.98 104.147,294.113 349.397,294.113 			"/>
			<path d="M299.397,361.98h-145.25c-1.23,0-2.392-0.565-3.149-1.534l-50-63.867c-0.943-1.205-1.117-2.842-0.447-4.218
				c0.67-1.375,2.066-2.248,3.596-2.248h245.25c1.53,0,2.926,0.873,3.596,2.248c0.67,1.376,0.497,3.013-0.447,4.218l-50,63.867
				C301.789,361.415,300.627,361.98,299.397,361.98z M156.096,353.98h141.353l43.737-55.867H112.358L156.096,353.98z"/>
		</g>
	</g>
	<rect x="-5935.371" y="-12390.303" fill="none" stroke="#000000" stroke-miterlimit="10" width="16736" height="13952"/>
</g>
<g id="sivinsko" display="none">
	<g id="rde훾a7bela_copy_3" display="inline">
	</g>
	<g display="inline">
		<g>
			<g>
				<rect x="219.462" y="95.559" width="4.821" height="212.006"/>
				<path d="M224.284,311.564h-4.821c-2.209,0-4-1.791-4-4V95.559c0-2.209,1.791-4,4-4h4.821c2.209,0,4,1.791,4,4v212.006
					C228.284,309.773,226.493,311.564,224.284,311.564z"/>
			</g>
			<g>
				<path fill="#9C9C9C" d="M218.701,145.906v114.484h-89.382C129.319,260.391,209.714,196.734,218.701,145.906z"/>
				<path d="M218.701,264.391h-89.382c-1.702,0-3.218-1.077-3.777-2.686c-0.56-1.607-0.041-3.394,1.294-4.45
					c0.792-0.627,79.309-63.305,87.926-112.045c0.361-2.042,2.222-3.472,4.289-3.288c2.065,0.181,3.65,1.911,3.65,3.984v114.484
					C222.701,262.6,220.91,264.391,218.701,264.391z M140.403,256.391h74.297v-86.748
					C197.126,205.411,157.897,241.422,140.403,256.391z"/>
			</g>
			<g>
				<path fill="#575757" d="M349.397,260.391c0,0-114.756-113.354-129.935-164.832v164.832H349.397z"/>
				<path d="M349.397,264.391H219.462c-2.209,0-4-1.791-4-4V95.559c0-1.988,1.46-3.675,3.429-3.959
					c1.968-0.279,3.846,0.922,4.408,2.828c14.714,49.902,127.769,161.991,128.909,163.117c1.154,1.14,1.505,2.864,0.889,4.365
					S351.019,264.391,349.397,264.391z M223.462,256.391h116.296c-22.153-22.434-90.877-93.852-116.296-141.461V256.391z"/>
			</g>
			<g>
				<polygon fill="#D5D5D5" points="299.397,357.98 154.147,357.98 104.147,294.113 349.397,294.113 				"/>
				<path d="M299.397,361.98h-145.25c-1.23,0-2.392-0.565-3.149-1.533l-50-63.868c-0.943-1.205-1.117-2.842-0.447-4.218
					c0.67-1.375,2.066-2.248,3.596-2.248h245.25c1.53,0,2.926,0.873,3.596,2.248c0.67,1.376,0.497,3.013-0.447,4.218l-50,63.868
					C301.789,361.415,300.627,361.98,299.397,361.98z M156.096,353.98h141.353l43.737-55.867H112.358L156.096,353.98z"/>
			</g>
		</g>
	</g>
	<path display="inline" d="M10801.129,1562.197h-16737v-13953h16737V1562.197z M-5935.371,1561.197h16736l-0.5-13951h-16735.5
		l0.5,13951H-5935.371z"/>
</g>
<g id="linijsko" display="none">
	<g id="rde훾a7bela_copy" display="inline">
	</g>
	<g display="inline">
		<g>
			
				<polygon fill="none" stroke="#000000" stroke-width="8" stroke-linecap="round" stroke-linejoin="round" stroke-miterlimit="10" points="
				299.397,357.98 154.147,357.98 104.147,294.113 349.397,294.113 			"/>
			<g>
				
					<path fill="none" stroke="#000000" stroke-width="8" stroke-linecap="round" stroke-linejoin="round" stroke-miterlimit="10" d="
					M223.117,145.906v114.484h-89.382C133.735,260.391,214.131,196.734,223.117,145.906z"/>
				
					<path fill="none" stroke="#000000" stroke-width="8" stroke-linecap="round" stroke-linejoin="round" stroke-miterlimit="10" d="
					M353.052,260.391c0,0-114.756-113.354-129.935-164.832v164.832H353.052z"/>
				
					<line fill="none" stroke="#000000" stroke-width="8" stroke-linecap="round" stroke-linejoin="round" stroke-miterlimit="10" x1="223.117" y1="247.559" x2="223.117" y2="291.865"/>
			</g>
		</g>
	</g>
</g>
<g id="pivot">
	<circle fill="none" cx="226.871" cy="353.564" r="14.133"/>
</g>
</svg>
