<?xml version="1.0" encoding="utf-8"?>
<!-- Generator: Adobe Illustrator 16.0.0, SVG Export Plug-In . SVG Version: 6.00 Build 0)  -->
<!DOCTYPE svg PUBLIC "-//W3C//DTD SVG 1.1//EN" "http://www.w3.org/Graphics/SVG/1.1/DTD/svg11.dtd">
<svg version="1.1" xmlns="http://www.w3.org/2000/svg" xmlns:xlink="http://www.w3.org/1999/xlink" x="0px" y="0px"
	 width="453.544px" height="453.543px" viewBox="0 0 453.544 453.543" enable-background="new 0 0 453.544 453.543"
	 xml:space="preserve">
<g id="kvadrat">
</g>
<g id="bg" display="none">
	<rect x="-7466.03" y="-11970.294" display="inline" width="15266.867" height="13678.951"/>
</g>
<g id="barvno" display="none">
	<g id="rde훾a7bela" display="inline">
	</g>
	<g display="inline">
		<g>
			
				<rect x="229.261" y="95.559" stroke="#000000" stroke-width="8" stroke-linecap="round" stroke-linejoin="round" stroke-miterlimit="10" width="4.822" height="212.006"/>
			
				<path fill="#57B2E5" stroke="#000000" stroke-width="8" stroke-linecap="round" stroke-linejoin="round" stroke-miterlimit="10" d="
				M234.845,145.906v114.484h89.381C324.226,260.391,243.831,196.734,234.845,145.906z"/>
			
				<path fill="#0075A5" stroke="#000000" stroke-width="8" stroke-linecap="round" stroke-linejoin="round" stroke-miterlimit="10" d="
				M104.147,260.391c0,0,114.756-113.354,129.936-164.832v164.832H104.147z"/>
			
				<path fill="#EED2A3" stroke="#000000" stroke-width="8" stroke-linecap="round" stroke-linejoin="round" stroke-miterlimit="10" d="
				M154.147,357.98c46.447,0,113.387,0,145.25,0s50-63.867,50-63.867h-245.25C104.147,294.113,107.702,357.98,154.147,357.98z"/>
		</g>
	</g>
	
		<rect x="-7976.315" y="-12390.303" display="inline" fill="none" stroke="#000000" stroke-miterlimit="10" width="16736" height="13952"/>
</g>
<g id="barvno_copy_2">
	<g id="rde훾a7bela_copy_4">
	</g>
	<g>
		<g>
			<rect x="229.261" y="147.93" fill="#00FF00" width="4.822" height="159.635"/>
			<path fill="#00FF00" d="M234.083,311.035h-4.822c-1.917,0-3.471-1.554-3.471-3.471V147.93c0-1.917,1.554-3.471,3.471-3.471h4.822
				c1.917,0,3.471,1.554,3.471,3.471v159.635C237.554,309.481,236,311.035,234.083,311.035z"/>
		</g>
		<g>
			<path fill="#00FFFF" d="M234.845,145.906v114.484h89.381C324.226,260.391,243.831,196.734,234.845,145.906z"/>
			<path d="M324.226,264.391h-89.381c-2.209,0-4-1.791-4-4V145.906c0-2.073,1.585-3.804,3.65-3.984
				c2.053-0.189,3.928,1.246,4.288,3.288c8.618,48.74,87.134,111.418,87.926,112.045c1.334,1.057,1.854,2.843,1.294,4.45
				C327.443,263.313,325.928,264.391,324.226,264.391z M238.845,256.391h74.296c-17.493-14.969-56.722-50.979-74.296-86.748V256.391
				z"/>
		</g>
		<g>
			<path fill="#2626FF" d="M104.147,260.391c0,0,114.756-113.354,129.936-164.832v164.832H104.147z"/>
			<path d="M234.083,264.391H104.147c-1.622,0-3.084-0.979-3.7-2.48s-0.265-3.226,0.889-4.365
				c1.141-1.126,114.195-113.215,128.91-163.117c0.563-1.906,2.439-3.108,4.408-2.828c1.968,0.284,3.429,1.971,3.429,3.959v164.832
				C238.083,262.6,236.292,264.391,234.083,264.391z M113.786,256.391h116.297V114.93
				C204.664,162.539,135.939,233.957,113.786,256.391z"/>
		</g>
		<g>
			<path fill="#FF0000" d="M154.147,357.98c46.447,0,113.387,0,145.25,0s50-63.867,50-63.867h-245.25
				C104.147,294.113,107.702,357.98,154.147,357.98z"/>
			<path d="M299.397,361.98h-145.25c-20.73,0-36.674-11.891-46.105-34.387c-6.882-16.414-7.851-32.578-7.889-33.258
				c-0.061-1.098,0.333-2.173,1.088-2.972c0.756-0.799,1.807-1.251,2.906-1.251h245.25c1.254,0,2.436,0.588,3.191,1.589
				c0.756,1,0.999,2.298,0.656,3.504C352.471,297.933,333.887,361.98,299.397,361.98z M108.57,298.113
				c0.718,5.655,2.543,16.185,6.922,26.562c8.208,19.445,21.213,29.306,38.655,29.306h145.25c21.564,0,38.159-36.555,44.575-55.867
				H108.57z"/>
		</g>
	</g>
	<rect x="-7976.315" y="-12390.303" fill="none" stroke="#000000" stroke-miterlimit="10" width="16736" height="13952"/>
</g>
<g id="sivinsko" display="none">
	<g id="rde훾a7bela_copy_3" display="inline">
	</g>
	<g display="inline">
		<g>
			<g>
				<rect x="229.261" y="95.559" width="4.822" height="212.006"/>
				<path d="M234.083,311.564h-4.822c-2.209,0-4-1.791-4-4V95.559c0-2.209,1.791-4,4-4h4.822c2.209,0,4,1.791,4,4v212.006
					C238.083,309.773,236.292,311.564,234.083,311.564z"/>
			</g>
			<g>
				<path fill="#9C9C9C" d="M234.845,145.906v114.484h89.381C324.226,260.391,243.831,196.734,234.845,145.906z"/>
				<path d="M324.226,264.391h-89.381c-2.209,0-4-1.791-4-4V145.906c0-2.073,1.585-3.804,3.65-3.984
					c2.053-0.189,3.928,1.246,4.288,3.288c8.618,48.74,87.134,111.418,87.926,112.045c1.334,1.057,1.854,2.843,1.294,4.45
					C327.443,263.313,325.928,264.391,324.226,264.391z M238.845,256.391h74.296c-17.493-14.969-56.722-50.979-74.296-86.748
					V256.391z"/>
			</g>
			<g>
				<path fill="#575757" d="M104.147,260.391c0,0,114.756-113.354,129.936-164.832v164.832H104.147z"/>
				<path d="M234.083,264.391H104.147c-1.622,0-3.084-0.979-3.7-2.48s-0.265-3.226,0.889-4.365
					c1.141-1.126,114.195-113.215,128.91-163.117c0.563-1.906,2.439-3.108,4.408-2.828c1.968,0.284,3.429,1.971,3.429,3.959v164.832
					C238.083,262.6,236.292,264.391,234.083,264.391z M113.786,256.391h116.297V114.93
					C204.664,162.539,135.939,233.957,113.786,256.391z"/>
			</g>
			<g>
				<path fill="#D5D5D5" d="M154.147,357.98c46.447,0,113.387,0,145.25,0s50-63.867,50-63.867h-245.25
					C104.147,294.113,107.702,357.98,154.147,357.98z"/>
				<path d="M299.397,361.98h-145.25c-20.73,0-36.674-11.891-46.105-34.387c-6.882-16.414-7.851-32.578-7.889-33.258
					c-0.061-1.098,0.333-2.173,1.088-2.971c0.756-0.8,1.807-1.252,2.906-1.252h245.25c1.254,0,2.436,0.588,3.191,1.589
					c0.756,1,0.999,2.298,0.656,3.504C352.471,297.933,333.887,361.98,299.397,361.98z M108.57,298.113
					c0.718,5.655,2.543,16.185,6.922,26.562c8.208,19.445,21.213,29.306,38.655,29.306h145.25c21.564,0,38.159-36.555,44.575-55.867
					H108.57z"/>
			</g>
		</g>
	</g>
	<path display="inline" d="M8760.185,1562.197h-16737v-13953h16737V1562.197z M-7976.315,1561.197h16736l-0.5-13951h-16735.5
		l0.5,13951H-7976.315z"/>
</g>
<g id="linijsko" display="none">
	<g id="rde훾a7bela_copy" display="inline">
	</g>
	<g display="inline">
		<g>
			<path fill="none" stroke="#000000" stroke-width="8" stroke-linecap="round" stroke-linejoin="round" stroke-miterlimit="10" d="
				M154.147,357.98c46.447,0,113.387,0,145.25,0s50-63.867,50-63.867h-245.25C104.147,294.113,107.702,357.98,154.147,357.98z"/>
			<g>
				
					<path fill="none" stroke="#000000" stroke-width="8" stroke-linecap="round" stroke-linejoin="round" stroke-miterlimit="10" d="
					M232.447,147.154v114.484h89.383C321.83,261.639,241.434,197.982,232.447,147.154z"/>
				
					<path fill="none" stroke="#000000" stroke-width="8" stroke-linecap="round" stroke-linejoin="round" stroke-miterlimit="10" d="
					M102.514,261.639c0,0,114.756-113.354,129.934-164.832v164.832H102.514z"/>
				
					<line fill="none" stroke="#000000" stroke-width="8" stroke-linecap="round" stroke-linejoin="round" stroke-miterlimit="10" x1="232.447" y1="248.807" x2="232.447" y2="293.113"/>
			</g>
		</g>
	</g>
</g>
<g id="pivot">
	<circle fill="none" cx="218.53" cy="358.583" r="14.133"/>
</g>
</svg>
