<?xml version="1.0" encoding="utf-8"?>
<!-- Generator: Adobe Illustrator 16.0.0, SVG Export Plug-In . SVG Version: 6.00 Build 0)  -->
<!DOCTYPE svg PUBLIC "-//W3C//DTD SVG 1.1//EN" "http://www.w3.org/Graphics/SVG/1.1/DTD/svg11.dtd">
<svg version="1.1" xmlns="http://www.w3.org/2000/svg" xmlns:xlink="http://www.w3.org/1999/xlink" x="0px" y="0px"
	 width="453.543px" height="453.543px" viewBox="0 0 453.543 453.543" enable-background="new 0 0 453.543 453.543"
	 xml:space="preserve">
<g id="kvadrat">
</g>
<g id="bg" display="none">
	<rect x="-5935.322" y="-11970.294" display="inline" width="15266.867" height="13678.951"/>
</g>
<g id="barvno" display="none">
	<g id="rde훾a7bela" display="inline">
	</g>
	<g display="inline">
		<g>
			
				<rect x="219.462" y="95.559" stroke="#000000" stroke-width="8" stroke-linecap="round" stroke-linejoin="round" stroke-miterlimit="10" width="4.821" height="212.006"/>
			
				<path fill="#EED2A3" stroke="#000000" stroke-width="8" stroke-linecap="round" stroke-linejoin="round" stroke-miterlimit="10" d="
				M299.397,357.98c-46.447,0-113.387,0-145.25,0s-50-63.867-50-63.867h245.25C349.397,294.113,345.843,357.98,299.397,357.98z"/>
			<g>
				<g>
					
						<path fill="#57B2E5" stroke="#000000" stroke-width="8" stroke-linecap="round" stroke-linejoin="round" stroke-miterlimit="10" d="
						M218.701,95.906v164.484h-89.382C129.319,260.391,209.714,146.734,218.701,95.906z"/>
					
						<path fill="#0075A5" stroke="#000000" stroke-width="8" stroke-linecap="round" stroke-linejoin="round" stroke-miterlimit="10" d="
						M348.635,260.391c0,0-114.756-113.354-129.935-164.832v164.832H348.635z"/>
					
						<line fill="#57B2E5" stroke="#000000" stroke-width="8" stroke-linecap="round" stroke-linejoin="round" stroke-miterlimit="10" x1="218.701" y1="247.559" x2="218.701" y2="291.865"/>
				</g>
			</g>
		</g>
	</g>
	
		<rect x="-6445.607" y="-12390.303" display="inline" fill="none" stroke="#000000" stroke-miterlimit="10" width="16736" height="13952"/>
</g>
<g id="barvno_copy_2">
	<g id="rde훾a7bela_copy_4">
	</g>
	<g>
		<g>
			<rect x="219.462" y="147.93" fill="#00FF00" width="4.821" height="159.635"/>
			<path fill="#00FF00" d="M224.284,311.035h-4.821c-1.917,0-3.471-1.554-3.471-3.471V147.93c0-1.917,1.554-3.471,3.471-3.471h4.821
				c1.917,0,3.471,1.554,3.471,3.471v159.635C227.755,309.481,226.201,311.035,224.284,311.035z"/>
		</g>
		<g>
			<path fill="#FF0000" d="M299.397,357.98c-46.447,0-113.387,0-145.25,0s-50-63.867-50-63.867h245.25
				C349.397,294.113,345.843,357.98,299.397,357.98z"/>
			<path d="M299.397,361.98h-145.25c-34.489,0-53.074-64.048-53.848-66.774c-0.343-1.206-0.1-2.504,0.656-3.504
				c0.756-1.001,1.938-1.589,3.191-1.589h245.25c1.1,0,2.15,0.452,2.906,1.251c0.756,0.799,1.149,1.873,1.088,2.972
				c-0.038,0.68-1.006,16.844-7.887,33.258C336.071,350.09,320.128,361.98,299.397,361.98z M109.575,298.113
				c6.426,19.313,23.034,55.867,44.572,55.867h145.25c17.442,0,30.448-9.86,38.655-29.306c4.379-10.377,6.204-20.905,6.922-26.562
				H109.575z"/>
		</g>
		<g>
			<g>
				<g>
					<path fill="#00FFFF" d="M218.701,95.906v164.484h-89.382C129.319,260.391,209.714,146.734,218.701,95.906z"/>
					<path d="M218.701,264.391h-89.382c-1.495,0-2.865-0.834-3.552-2.161c-0.688-1.328-0.577-2.928,0.287-4.148
						c0.799-1.13,79.981-113.506,88.708-162.871c0.361-2.041,2.224-3.478,4.289-3.288c2.065,0.181,3.65,1.911,3.65,3.984v164.484
						C222.701,262.6,220.91,264.391,218.701,264.391z M136.983,256.391h77.718v-134.04
						C195.676,169.705,151.26,235.705,136.983,256.391z"/>
				</g>
				<g>
					<path fill="#2626FF" d="M348.635,260.391c0,0-114.756-113.354-129.935-164.832v164.832H348.635z"/>
					<path d="M348.635,264.391H218.701c-2.209,0-4-1.791-4-4V95.559c0-1.988,1.46-3.675,3.429-3.959
						c1.968-0.279,3.846,0.922,4.408,2.828c14.714,49.902,127.769,161.991,128.909,163.117c1.154,1.14,1.505,2.864,0.889,4.365
						S350.257,264.391,348.635,264.391z M222.701,256.391h116.296c-22.153-22.434-90.877-93.852-116.296-141.461V256.391z"/>
				</g>
			</g>
		</g>
	</g>
	<rect x="-6445.607" y="-12390.303" fill="none" stroke="#000000" stroke-miterlimit="10" width="16736" height="13952"/>
</g>
<g id="sivinsko" display="none">
	<g id="rde훾a7bela_copy_3" display="inline">
	</g>
	<g display="inline">
		<g>
			<g>
				<rect x="219.462" y="95.559" width="4.821" height="212.006"/>
				<path d="M224.284,311.564h-4.821c-2.209,0-4-1.791-4-4V95.559c0-2.209,1.791-4,4-4h4.821c2.209,0,4,1.791,4,4v212.006
					C228.284,309.773,226.493,311.564,224.284,311.564z"/>
			</g>
			<g>
				<path fill="#D5D5D5" d="M299.397,357.98c-46.447,0-113.387,0-145.25,0s-50-63.867-50-63.867h245.25
					C349.397,294.113,345.843,357.98,299.397,357.98z"/>
				<path d="M299.397,361.98h-145.25c-34.489,0-53.074-64.048-53.848-66.774c-0.343-1.206-0.1-2.504,0.656-3.504
					c0.756-1.001,1.938-1.589,3.191-1.589h245.25c1.1,0,2.15,0.452,2.906,1.252c0.756,0.798,1.149,1.872,1.088,2.971
					c-0.038,0.68-1.006,16.844-7.887,33.258C336.071,350.09,320.128,361.98,299.397,361.98z M109.575,298.113
					c6.426,19.313,23.034,55.867,44.572,55.867h145.25c17.442,0,30.448-9.86,38.655-29.306c4.379-10.377,6.204-20.905,6.922-26.562
					H109.575z"/>
			</g>
			<g>
				<g>
					<g>
						<path fill="#9C9C9C" d="M218.701,95.906v164.484h-89.382C129.319,260.391,209.714,146.734,218.701,95.906z"/>
						<path d="M218.701,264.391h-89.382c-1.495,0-2.865-0.834-3.552-2.161c-0.688-1.328-0.577-2.928,0.287-4.148
							c0.799-1.13,79.981-113.506,88.708-162.871c0.361-2.041,2.224-3.478,4.289-3.288c2.065,0.181,3.65,1.911,3.65,3.984v164.484
							C222.701,262.6,220.91,264.391,218.701,264.391z M136.983,256.391h77.718v-134.04
							C195.676,169.705,151.26,235.705,136.983,256.391z"/>
					</g>
					<g>
						<path fill="#575757" d="M348.635,260.391c0,0-114.756-113.354-129.935-164.832v164.832H348.635z"/>
						<path d="M348.635,264.391H218.701c-2.209,0-4-1.791-4-4V95.559c0-1.988,1.46-3.675,3.429-3.959
							c1.968-0.279,3.846,0.922,4.408,2.828c14.714,49.902,127.769,161.991,128.909,163.117c1.154,1.14,1.505,2.864,0.889,4.365
							S350.257,264.391,348.635,264.391z M222.701,256.391h116.296c-22.153-22.434-90.877-93.852-116.296-141.461V256.391z"/>
					</g>
					<g>
						<line fill="#9C9C9C" x1="218.701" y1="247.559" x2="218.701" y2="291.865"/>
						<path d="M218.701,295.865c-2.209,0-4-1.791-4-4v-44.307c0-2.209,1.791-4,4-4s4,1.791,4,4v44.307
							C222.701,294.074,220.91,295.865,218.701,295.865z"/>
					</g>
				</g>
			</g>
		</g>
	</g>
	<path display="inline" d="M10290.893,1562.197h-16737v-13953h16737V1562.197z M-6445.607,1561.197h16736l-0.5-13951h-16735.5
		l0.5,13951H-6445.607z"/>
</g>
<g id="linijsko" display="none">
	<g id="rde훾a7bela_copy" display="inline">
	</g>
	<g display="inline">
		<g>
			<g>
				
					<path fill="none" stroke="#000000" stroke-width="8" stroke-linecap="round" stroke-linejoin="round" stroke-miterlimit="10" d="
					M299.397,357.98c-46.447,0-113.387,0-145.25,0s-50-63.867-50-63.867h245.25C349.397,294.113,345.843,357.98,299.397,357.98z"/>
			</g>
		</g>
		<g>
			<g>
				<g>
					
						<path fill="none" stroke="#000000" stroke-width="8" stroke-linecap="round" stroke-linejoin="round" stroke-miterlimit="10" d="
						M222.21,95.906v164.484h-89.382C132.829,260.391,213.224,146.734,222.21,95.906z"/>
					
						<path fill="none" stroke="#000000" stroke-width="8" stroke-linecap="round" stroke-linejoin="round" stroke-miterlimit="10" d="
						M352.145,260.391c0,0-114.756-113.354-129.935-164.832v164.832H352.145z"/>
					
						<line fill="none" stroke="#000000" stroke-width="8" stroke-linecap="round" stroke-linejoin="round" stroke-miterlimit="10" x1="222.21" y1="247.559" x2="222.21" y2="291.865"/>
				</g>
			</g>
		</g>
	</g>
</g>
<g id="pivot">
	<circle fill="none" cx="221.026" cy="358.583" r="14.133"/>
</g>
</svg>
