<?xml version="1.0" encoding="utf-8"?>
<!-- Generator: Adobe Illustrator 16.0.0, SVG Export Plug-In . SVG Version: 6.00 Build 0)  -->
<!DOCTYPE svg PUBLIC "-//W3C//DTD SVG 1.1//EN" "http://www.w3.org/Graphics/SVG/1.1/DTD/svg11.dtd">
<svg version="1.1" xmlns="http://www.w3.org/2000/svg" xmlns:xlink="http://www.w3.org/1999/xlink" x="0px" y="0px"
	 width="453.543px" height="453.543px" viewBox="0 0 453.543 453.543" enable-background="new 0 0 453.543 453.543"
	 xml:space="preserve">
<g id="kvadrat">
</g>
<g id="bg" display="none">
	<rect x="-4404.613" y="-7378.167" display="inline" width="15266.867" height="13678.951"/>
</g>
<g id="barvno" display="none">
	<g display="inline">
		<path fill="none" stroke="#000000" stroke-width="15" stroke-linecap="round" stroke-linejoin="round" stroke-miterlimit="10" d="
			M153.365,122.736c0,0,4.364,0,14.949,0c10.584,0,10.706,5.818,10.706,22.111s0,47.717,0,47.717"/>
		
			<polygon fill="#575756" stroke="#000000" stroke-width="8" stroke-linecap="round" stroke-linejoin="round" stroke-miterlimit="10" points="
			231.437,214.119 146.015,214.119 152.765,161.393 217.937,161.393 		"/>
		
			<path fill="#575756" stroke="#000000" stroke-width="8" stroke-linecap="round" stroke-linejoin="round" stroke-miterlimit="10" d="
			M379.155,266.99c0-44.021-311.346-123.152-311.346-1.912C67.809,386.32,379.155,311.012,379.155,266.99z"/>
		
			<circle fill="#FFFFFF" stroke="#000000" stroke-width="8" stroke-linecap="round" stroke-linejoin="round" stroke-miterlimit="10" cx="138.36" cy="255.895" r="19.441"/>
		
			<circle fill="#FFFFFF" stroke="#000000" stroke-width="8" stroke-linecap="round" stroke-linejoin="round" stroke-miterlimit="10" cx="194.154" cy="255.895" r="19.44"/>
		
			<circle fill="#FFFFFF" stroke="#000000" stroke-width="8" stroke-linecap="round" stroke-linejoin="round" stroke-miterlimit="10" cx="249.948" cy="255.895" r="19.44"/>
		<path stroke="#000000" stroke-width="8" stroke-linecap="round" stroke-linejoin="round" stroke-miterlimit="10" d="
			M379.011,266.846c2.909,0,13.434-35.053,0.208-35.053C365.995,231.793,376.103,266.846,379.011,266.846z"/>
		<path stroke="#000000" stroke-width="8" stroke-linecap="round" stroke-linejoin="round" stroke-miterlimit="10" d="
			M379.011,266.846c2.909,0,13.434,35.051,0.208,35.051C365.995,301.896,376.103,266.846,379.011,266.846z"/>
	</g>
	<g id="rde훾a7bela" display="inline">
	</g>
	
		<rect x="-4914.898" y="-7798.176" display="inline" fill="none" stroke="#000000" stroke-miterlimit="10" width="16736" height="13952"/>
</g>
<g id="barvno_copy_2">
	<g>
		<path fill="#00FFFF" d="M179.02,200.064c-4.142,0-7.5-3.357-7.5-7.5v-47.717c0-5.549,0-12.39-0.842-14.405
			c-0.338-0.085-1.05-0.206-2.364-0.206h-14.949c-4.142,0-7.5-3.357-7.5-7.5s3.358-7.5,7.5-7.5h14.949
			c8.321,0,13.811,3.275,16.315,9.734c1.891,4.878,1.891,11.17,1.891,19.877v47.717C186.52,196.707,183.162,200.064,179.02,200.064z
			"/>
		<g>
			<polygon fill="#38FFFF" points="231.437,214.119 146.015,214.119 152.765,161.393 217.937,161.393 			"/>
			<path d="M231.457,218.119c-0.007,0-0.013,0-0.02,0h-85.422c-1.149,0-2.243-0.494-3.002-1.357c-0.76-0.862-1.111-2.011-0.965-3.15
				l6.75-52.727c0.256-1.997,1.955-3.492,3.968-3.492h65.172c1.827,0,3.422,1.238,3.875,3.008l13.401,52.34
				c0.158,0.43,0.244,0.895,0.244,1.379C235.457,216.328,233.666,218.119,231.457,218.119z M150.56,210.119h75.724l-11.452-44.727
				h-58.546L150.56,210.119z"/>
		</g>
		<g>
			<path fill="#38FFFF" d="M379.155,266.99c0-44.021-311.346-123.152-311.346-1.912C67.809,386.32,379.155,311.012,379.155,266.99z"
				/>
			<path d="M178.377,334.808c-0.002,0,0,0-0.002,0c-73.879-0.001-114.566-24.765-114.566-69.729
				c0-44.104,39.317-68.395,110.709-68.395c41.973,0,93.329,8.728,137.376,23.346c21.426,7.11,71.26,25.921,71.26,46.961
				c0,20.748-48.667,38.789-69.591,45.582C270.684,326.495,220.145,334.808,178.377,334.808z M174.519,204.684
				c-31.167,0-55.874,4.659-73.434,13.849c-19.426,10.165-29.276,25.826-29.276,46.546c0,21.167,10.273,37.18,30.533,47.592
				c17.997,9.248,44.289,14.138,76.033,14.138c40.976,0,90.59-8.166,132.718-21.844c44.253-14.368,64.062-29.425,64.062-37.974
				c0-8.729-20.34-24.287-65.78-39.368C266.096,213.259,215.682,204.684,174.519,204.684z"/>
		</g>
		<g>
			<circle fill="#FFFFFF" cx="138.36" cy="255.895" r="19.441"/>
			<path d="M138.361,279.334c-12.926,0-23.441-10.515-23.441-23.439c0-12.926,10.516-23.441,23.441-23.441
				c12.925,0,23.44,10.516,23.44,23.441C161.801,268.819,151.286,279.334,138.361,279.334z M138.361,240.453
				c-8.515,0-15.441,6.927-15.441,15.441c0,8.514,6.927,15.439,15.441,15.439c8.514,0,15.44-6.926,15.44-15.439
				C153.801,247.38,146.875,240.453,138.361,240.453z"/>
		</g>
		<g>
			<circle fill="#FFFFFF" cx="194.154" cy="255.895" r="19.44"/>
			<path d="M194.154,279.334c-12.925,0-23.44-10.515-23.44-23.439c0-12.926,10.515-23.441,23.44-23.441s23.44,10.516,23.44,23.441
				C217.594,268.819,207.079,279.334,194.154,279.334z M194.154,240.453c-8.514,0-15.44,6.927-15.44,15.441
				c0,8.514,6.927,15.439,15.44,15.439s15.44-6.926,15.44-15.439C209.594,247.38,202.667,240.453,194.154,240.453z"/>
		</g>
		<g>
			<circle fill="#FFFFFF" cx="249.948" cy="255.895" r="19.44"/>
			<path d="M249.948,279.334c-12.925,0-23.44-10.515-23.44-23.439c0-12.926,10.515-23.441,23.44-23.441s23.44,10.516,23.44,23.441
				C273.388,268.819,262.873,279.334,249.948,279.334z M249.948,240.453c-8.514,0-15.44,6.927-15.44,15.441
				c0,8.514,6.927,15.439,15.44,15.439s15.44-6.926,15.44-15.439C265.388,247.38,258.461,240.453,249.948,240.453z"/>
		</g>
		<g>
			<path fill="#00FFFF" d="M379.011,266.846c2.909,0,13.434-35.053,0.208-35.053C365.995,231.793,376.103,266.846,379.011,266.846z"
				/>
			<path fill="#00FFFF" d="M379.011,270.846c-2.781,0-5.045-1.837-7.736-10.983c-1.716-5.832-2.7-12.006-2.7-16.939
				c0-4.006,0.641-7.276,1.906-9.721c1.805-3.488,4.908-5.409,8.738-5.409c3.162,0,10.515,1.436,10.515,14.733
				c0,7.033-1.988,14.36-2.843,17.184C384.083,268.982,381.794,270.846,379.011,270.846z M379.219,235.793
				c-0.647,0-1.146,0.085-1.682,1.184c-2.148,4.402-0.421,14.482,1.524,21.052c2.039-6.576,3.899-16.693,1.775-21.105
				C380.33,235.872,379.867,235.793,379.219,235.793z"/>
		</g>
		<g>
			<path fill="#00FFFF" d="M379.011,266.846c2.909,0,13.434,35.051,0.208,35.051C365.995,301.896,376.103,266.846,379.011,266.846z"
				/>
			<path fill="#00FFFF" d="M379.219,305.896c-3.83,0-6.934-1.921-8.738-5.409c-1.265-2.444-1.906-5.715-1.906-9.72
				c0-4.934,0.984-11.107,2.7-16.939c2.691-9.146,4.955-10.982,7.736-10.982c2.783,0,5.072,1.862,7.88,11.135
				c0.855,2.823,2.843,10.149,2.843,17.183c0,3.908-0.638,7.098-1.896,9.481C386.05,304.031,382.99,305.896,379.219,305.896z
				 M379.061,275.663c-1.945,6.568-3.672,16.647-1.524,21.05c0.536,1.099,1.036,1.184,1.683,1.184c0.648,0,1.11-0.079,1.617-1.13
				C382.96,292.354,381.1,282.238,379.061,275.663z"/>
		</g>
	</g>
	<g id="rde훾a7bela_copy_4">
	</g>
	<rect x="-4914.898" y="-7798.176" fill="none" stroke="#000000" stroke-miterlimit="10" width="16736" height="13952"/>
</g>
<g id="sivinsko" display="none">
	<g display="inline">
		<path d="M179.02,200.064c-4.142,0-7.5-3.357-7.5-7.5v-47.717c0-5.549,0-12.39-0.842-14.405c-0.338-0.085-1.05-0.206-2.364-0.206
			h-14.949c-4.142,0-7.5-3.357-7.5-7.5s3.358-7.5,7.5-7.5h14.949c8.321,0,13.811,3.275,16.315,9.734
			c1.891,4.878,1.891,11.17,1.891,19.877v47.717C186.52,196.707,183.162,200.064,179.02,200.064z"/>
		<g>
			<polygon fill="#575757" points="231.437,214.119 146.015,214.119 152.765,161.393 217.937,161.393 			"/>
			<path d="M231.457,218.119c-0.007,0-0.013,0-0.02,0h-85.422c-1.149,0-2.243-0.494-3.002-1.357c-0.76-0.862-1.111-2.011-0.965-3.15
				l6.75-52.727c0.256-1.997,1.955-3.492,3.968-3.492h65.172c1.827,0,3.422,1.238,3.875,3.008l13.401,52.34
				c0.158,0.43,0.244,0.895,0.244,1.379C235.457,216.328,233.666,218.119,231.457,218.119z M150.56,210.119h75.724l-11.452-44.727
				h-58.546L150.56,210.119z"/>
		</g>
		<g>
			<path fill="#575757" d="M379.155,266.99c0-44.021-311.346-123.152-311.346-1.912C67.809,386.32,379.155,311.012,379.155,266.99z"
				/>
			<path d="M178.377,334.808c-0.002,0,0,0-0.002,0c-73.879-0.001-114.566-24.765-114.566-69.729
				c0-44.104,39.317-68.395,110.709-68.395c41.973,0,93.329,8.728,137.376,23.346c21.426,7.11,71.26,25.921,71.26,46.961
				c0,20.748-48.667,38.789-69.591,45.582C270.684,326.495,220.145,334.808,178.377,334.808z M174.519,204.684
				c-31.167,0-55.874,4.659-73.434,13.849c-19.426,10.165-29.276,25.826-29.276,46.546c0,21.167,10.273,37.18,30.533,47.592
				c17.997,9.248,44.289,14.138,76.033,14.138c40.976,0,90.59-8.166,132.718-21.844c44.253-14.368,64.062-29.425,64.062-37.974
				c0-8.729-20.34-24.287-65.78-39.368C266.096,213.259,215.682,204.684,174.519,204.684z"/>
		</g>
		<g>
			<circle fill="#FFFFFF" cx="138.36" cy="255.895" r="19.441"/>
			<path d="M138.361,279.334c-12.926,0-23.441-10.515-23.441-23.439c0-12.926,10.516-23.441,23.441-23.441
				c12.925,0,23.44,10.516,23.44,23.441C161.801,268.819,151.286,279.334,138.361,279.334z M138.361,240.453
				c-8.515,0-15.441,6.927-15.441,15.441c0,8.514,6.927,15.439,15.441,15.439c8.514,0,15.44-6.926,15.44-15.439
				C153.801,247.38,146.875,240.453,138.361,240.453z"/>
		</g>
		<g>
			<circle fill="#FFFFFF" cx="194.154" cy="255.895" r="19.44"/>
			<path d="M194.154,279.334c-12.925,0-23.44-10.515-23.44-23.439c0-12.926,10.515-23.441,23.44-23.441s23.44,10.516,23.44,23.441
				C217.594,268.819,207.079,279.334,194.154,279.334z M194.154,240.453c-8.514,0-15.44,6.927-15.44,15.441
				c0,8.514,6.927,15.439,15.44,15.439s15.44-6.926,15.44-15.439C209.594,247.38,202.667,240.453,194.154,240.453z"/>
		</g>
		<g>
			<circle fill="#FFFFFF" cx="249.948" cy="255.895" r="19.44"/>
			<path d="M249.948,279.334c-12.925,0-23.44-10.515-23.44-23.439c0-12.926,10.515-23.441,23.44-23.441s23.44,10.516,23.44,23.441
				C273.388,268.819,262.873,279.334,249.948,279.334z M249.948,240.453c-8.514,0-15.44,6.927-15.44,15.441
				c0,8.514,6.927,15.439,15.44,15.439s15.44-6.926,15.44-15.439C265.388,247.38,258.461,240.453,249.948,240.453z"/>
		</g>
		<g>
			<path d="M379.011,266.846c2.909,0,13.434-35.053,0.208-35.053C365.995,231.793,376.103,266.846,379.011,266.846z"/>
			<path d="M379.011,270.846c-2.781,0-5.045-1.837-7.736-10.983c-1.716-5.832-2.7-12.006-2.7-16.939
				c0-4.006,0.641-7.276,1.906-9.721c1.805-3.488,4.908-5.409,8.738-5.409c3.162,0,10.515,1.436,10.515,14.733
				c0,7.033-1.989,14.36-2.843,17.184C384.083,268.982,381.794,270.846,379.011,270.846z M379.219,235.793
				c-0.647,0-1.146,0.085-1.682,1.184c-2.148,4.402-0.421,14.482,1.524,21.052c2.039-6.576,3.899-16.693,1.775-21.105
				C380.33,235.872,379.867,235.793,379.219,235.793z"/>
		</g>
		<g>
			<path d="M379.011,266.846c2.909,0,13.434,35.051,0.208,35.051C365.995,301.896,376.103,266.846,379.011,266.846z"/>
			<path d="M379.219,305.896c-3.83,0-6.934-1.921-8.738-5.409c-1.265-2.444-1.906-5.715-1.906-9.72c0-4.934,0.984-11.107,2.7-16.939
				c2.691-9.146,4.955-10.982,7.736-10.982c2.783,0,5.072,1.862,7.88,11.135c0.854,2.823,2.843,10.149,2.843,17.183
				c0,3.908-0.638,7.098-1.896,9.481C386.05,304.031,382.99,305.896,379.219,305.896z M379.061,275.663
				c-1.945,6.568-3.672,16.647-1.524,21.05c0.536,1.099,1.036,1.184,1.683,1.184c0.648,0,1.11-0.079,1.617-1.13
				C382.96,292.354,381.1,282.238,379.061,275.663z"/>
		</g>
	</g>
	<g id="rde훾a7bela_copy_3" display="inline">
	</g>
	<path display="inline" d="M11821.602,6154.324h-16737v-13953h16737V6154.324z M-4914.898,6153.324h16736l-0.5-13951h-16735.5
		l0.5,13951H-4914.898z"/>
</g>
<g id="linijsko" display="none">
	<g display="inline">
		<path fill="none" stroke="#000000" stroke-width="8" stroke-linecap="round" stroke-linejoin="round" stroke-miterlimit="10" d="
			M179.02,161.393c0-6.025,0-11.9,0-16.545c0-16.293-0.122-22.111-10.706-22.111c-10.585,0-14.949,0-14.949,0"/>
		
			<polyline fill="none" stroke="#000000" stroke-width="8" stroke-linecap="round" stroke-linejoin="round" stroke-miterlimit="10" points="
			179.02,161.393 217.937,161.393 229.058,204.825 		"/>
		
			<polyline fill="none" stroke="#000000" stroke-width="8" stroke-linecap="round" stroke-linejoin="round" stroke-miterlimit="10" points="
			179.02,161.393 152.765,161.393 147.565,202.011 		"/>
		<path fill="none" stroke="#000000" stroke-width="8" stroke-linecap="round" stroke-linejoin="round" stroke-miterlimit="10" d="
			M379.15,266.893c0,0.033,0.005,0.065,0.005,0.098c0,3.15-1.601,6.461-4.561,9.848"/>
		<path fill="none" stroke="#000000" stroke-width="8" stroke-linecap="round" stroke-linejoin="round" stroke-miterlimit="10" d="
			M379.145,266.8c-0.062-3.062-1.62-6.291-4.464-9.609"/>
		<path fill="none" stroke="#000000" stroke-width="8" stroke-linecap="round" stroke-linejoin="round" stroke-miterlimit="10" d="
			M147.565,202.011c-45.641,4.765-79.756,22.937-79.756,63.067c0,112.566,268.375,55.705,306.785,11.76"/>
		<path fill="none" stroke="#000000" stroke-width="8" stroke-linecap="round" stroke-linejoin="round" stroke-miterlimit="10" d="
			M379.15,266.893c-0.001-0.03-0.005-0.062-0.005-0.093"/>
		<path fill="none" stroke="#000000" stroke-width="8" stroke-linecap="round" stroke-linejoin="round" stroke-miterlimit="10" d="
			M374.68,257.19c-17.099-19.948-80.709-43.103-145.623-52.365"/>
		<path fill="none" stroke="#000000" stroke-width="8" stroke-linecap="round" stroke-linejoin="round" stroke-miterlimit="10" d="
			M147.565,202.011c24.95-2.604,53.341-1.202,81.493,2.814"/>
		
			<circle fill="none" stroke="#000000" stroke-width="8" stroke-linecap="round" stroke-linejoin="round" stroke-miterlimit="10" cx="138.361" cy="255.894" r="19.44"/>
		
			<circle fill="none" stroke="#000000" stroke-width="8" stroke-linecap="round" stroke-linejoin="round" stroke-miterlimit="10" cx="194.154" cy="255.895" r="19.44"/>
		
			<circle fill="none" stroke="#000000" stroke-width="8" stroke-linecap="round" stroke-linejoin="round" stroke-miterlimit="10" cx="249.948" cy="255.895" r="19.44"/>
		<path fill="none" stroke="#000000" stroke-width="8" stroke-linecap="round" stroke-linejoin="round" stroke-miterlimit="10" d="
			M379.145,266.8c-0.044,0.015-0.092,0.046-0.133,0.046"/>
		<path fill="none" stroke="#000000" stroke-width="8" stroke-linecap="round" stroke-linejoin="round" stroke-miterlimit="10" d="
			M379.145,266.8c3.075-0.966,13.113-35.007,0.075-35.007c-8.658,0-7.314,15.021-4.539,25.397"/>
		<path fill="none" stroke="#000000" stroke-width="8" stroke-linecap="round" stroke-linejoin="round" stroke-miterlimit="10" d="
			M379.011,266.846c-1.004,0-2.867-4.182-4.331-9.655"/>
		<path fill="none" stroke="#000000" stroke-width="8" stroke-linecap="round" stroke-linejoin="round" stroke-miterlimit="10" d="
			M374.594,276.838c-2.715,10.36-3.94,25.059,4.625,25.059c13.031,0,3.011-34.003-0.069-35.004"/>
		<path fill="none" stroke="#000000" stroke-width="8" stroke-linecap="round" stroke-linejoin="round" stroke-miterlimit="10" d="
			M379.011,266.846c-1.024,0-2.941,4.356-4.417,9.992"/>
		<path fill="none" stroke="#000000" stroke-width="8" stroke-linecap="round" stroke-linejoin="round" stroke-miterlimit="10" d="
			M379.15,266.893c-0.046-0.015-0.096-0.047-0.139-0.047"/>
	</g>
	<g id="rde훾a7bela_copy" display="inline">
	</g>
</g>
<g id="pivot">
	<circle fill="none" cx="217.854" cy="327.883" r="14.133"/>
</g>
</svg>
