<?xml version="1.0" encoding="utf-8"?>
<!-- Generator: Adobe Illustrator 16.0.0, SVG Export Plug-In . SVG Version: 6.00 Build 0)  -->
<!DOCTYPE svg PUBLIC "-//W3C//DTD SVG 1.1//EN" "http://www.w3.org/Graphics/SVG/1.1/DTD/svg11.dtd">
<svg version="1.1" xmlns="http://www.w3.org/2000/svg" xmlns:xlink="http://www.w3.org/1999/xlink" x="0px" y="0px" width="220px"
	 height="220px" viewBox="0 0 220 220" enable-background="new 0 0 220 220" xml:space="preserve">
<g id="bg" display="none">
	<rect x="-2545.836" y="-7281.787" display="inline" fill="#FFFFFF" width="3240.076" height="8444.104"/>
</g>
<g id="Layer_3" display="none">
</g>
<g id="Layer_1">
	<g>
		<defs>
			<rect id="SVGID_573_" x="0" y="-0.001" width="220" height="220"/>
		</defs>
		<clipPath id="SVGID_2_">
			<use xlink:href="#SVGID_573_"  overflow="visible"/>
		</clipPath>
		<rect x="0" y="-0.001" clip-path="url(#SVGID_2_)" fill="#009E73" width="220" height="220"/>
		<g clip-path="url(#SVGID_2_)">
			<path fill="none" stroke="#FFFFFF" stroke-width="5" stroke-linecap="square" stroke-miterlimit="10" d="M100,219.999
				c0-18.332,20-18.332,20-36.664c0-18.333-20-18.333-20-36.665c0-18.333,20-18.333,20-36.666c0-18.333-20-18.333-20-36.665
				c0-18.335,20-18.335,20-36.67c0-18.335-20-18.335-20-36.67"/>
		</g>
		<g clip-path="url(#SVGID_2_)">
			<path fill="none" stroke="#FFFFFF" stroke-width="5" stroke-linecap="square" stroke-miterlimit="10" d="M50.008,219.999
				c0-18.332,20-18.332,20-36.664c0-18.333-20-18.333-20-36.665c0-18.333,20-18.333,20-36.666c0-18.333-20-18.333-20-36.665
				c0-18.335,20-18.335,20-36.67c0-18.335-20-18.335-20-36.67"/>
		</g>
		<g clip-path="url(#SVGID_2_)">
			<path fill="none" stroke="#FFFFFF" stroke-width="5" stroke-linecap="square" stroke-miterlimit="10" d="M149.965,219.999
				c0-18.332,20-18.332,20-36.664c0-18.333-20-18.333-20-36.665c0-18.333,20-18.333,20-36.666c0-18.333-20-18.333-20-36.665
				c0-18.335,20-18.335,20-36.67c0-18.335-20-18.335-20-36.67"/>
		</g>
	</g>
</g>
</svg>
