<?xml version="1.0" encoding="utf-8"?>
<!-- Generator: Adobe Illustrator 16.0.0, SVG Export Plug-In . SVG Version: 6.00 Build 0)  -->
<!DOCTYPE svg PUBLIC "-//W3C//DTD SVG 1.1//EN" "http://www.w3.org/Graphics/SVG/1.1/DTD/svg11.dtd">
<svg version="1.1" xmlns="http://www.w3.org/2000/svg" xmlns:xlink="http://www.w3.org/1999/xlink" x="0px" y="0px" width="220px"
	 height="220px" viewBox="0 0 220 220" enable-background="new 0 0 220 220" xml:space="preserve">
<g id="bg" display="none">
</g>
<g id="Layer_3">
</g>
<g id="Layer_1">
	<g>
		<defs>
			<rect id="SVGID_29_" x="-4290.076" y="-1800" width="220" height="220"/>
		</defs>
		<clipPath id="SVGID_2_">
			<use xlink:href="#SVGID_29_"  overflow="visible"/>
		</clipPath>
	</g>
	<g>
		<defs>
			<rect id="SVGID_31_" x="-3090.076" y="-1800" width="220" height="220"/>
		</defs>
		<clipPath id="SVGID_4_">
			<use xlink:href="#SVGID_31_"  overflow="visible"/>
		</clipPath>
	</g>
	<g>
		<defs>
			<rect id="SVGID_33_" x="-2490.076" y="-1800" width="220" height="220"/>
		</defs>
		<clipPath id="SVGID_6_">
			<use xlink:href="#SVGID_33_"  overflow="visible"/>
		</clipPath>
	</g>
	<g>
		<defs>
			<rect id="SVGID_35_" x="-2790.076" y="-1800" width="220" height="220"/>
		</defs>
		<clipPath id="SVGID_8_">
			<use xlink:href="#SVGID_35_"  overflow="visible"/>
		</clipPath>
	</g>
	<g>
		<defs>
			<rect id="SVGID_37_" x="-3990.076" y="-1800" width="220" height="220"/>
		</defs>
		<clipPath id="SVGID_10_">
			<use xlink:href="#SVGID_37_"  overflow="visible"/>
		</clipPath>
	</g>
	<g>
		<defs>
			<rect id="SVGID_39_" x="-3390.076" y="-1800" width="220" height="220"/>
		</defs>
		<clipPath id="SVGID_12_">
			<use xlink:href="#SVGID_39_"  overflow="visible"/>
		</clipPath>
	</g>
	<g>
		<defs>
			<rect id="SVGID_411_" x="-900" y="-1800" width="220" height="220"/>
		</defs>
		<clipPath id="SVGID_14_">
			<use xlink:href="#SVGID_411_"  overflow="visible"/>
		</clipPath>
	</g>
	<g>
		<defs>
			<rect id="SVGID_419_" x="-600" y="-1800" width="220" height="220"/>
		</defs>
		<clipPath id="SVGID_16_">
			<use xlink:href="#SVGID_419_"  overflow="visible"/>
		</clipPath>
	</g>
	<g>
		<defs>
			<rect id="SVGID_421_" x="0" y="-1800" width="220" height="220"/>
		</defs>
		<clipPath id="SVGID_18_">
			<use xlink:href="#SVGID_421_"  overflow="visible"/>
		</clipPath>
	</g>
	<g>
		<defs>
			<rect id="SVGID_505_" x="0" width="220" height="220"/>
		</defs>
		<clipPath id="SVGID_20_">
			<use xlink:href="#SVGID_505_"  overflow="visible"/>
		</clipPath>
		<rect x="0" clip-path="url(#SVGID_20_)" width="220" height="220"/>
		<g clip-path="url(#SVGID_20_)">
			
				<path fill="#9C9C9C" stroke="#000000" stroke-width="2" stroke-linecap="round" stroke-linejoin="round" stroke-miterlimit="10" d="
				M18.972,67.646c-6.741,0-10.604-4.417-10.604-12.121c0-0.837,0.678-1.515,1.515-1.515c0.836,0,21.887,6.059,22.726,6.059
				c0.835,0,1.515,0.679,1.515,1.516C34.123,67.646,26.762,67.646,18.972,67.646z"/>
			
				<path fill="#9C9C9C" stroke="#000000" stroke-width="2" stroke-linecap="round" stroke-linejoin="round" stroke-miterlimit="10" d="
				M39.958,15.855c-2.353-3.622-10.484-3.622-19.019-3.622c-8.067,0-15.146,6.372-15.146,13.636v0c0,0.835,3.028,0,3.028,0v0h32.102
				C40.923,25.869,40.399,16.534,39.958,15.855z"/>
			
				<path fill="#9C9C9C" stroke="#000000" stroke-width="2" stroke-linecap="round" stroke-linejoin="round" stroke-miterlimit="10" d="
				M67.644,40.274c0-8.784-14.944-24.14-28.976-24.14c-19.574,0-38.773,13.578-45.998,18.688c-0.296,0.209-0.564,0.404-0.817,0.578
				c-1.834-1.688-5.184-4.536-7.047-5.471c-1.046-0.521-2.04-0.787-2.951-0.787c-2.462,0-3.787,1.884-3.787,3.657v18.183
				c0,1.772,1.325,3.658,3.787,3.658c0.911,0,1.905-0.265,2.951-0.79c1.875-0.938,5.258-3.818,7.084-5.504
				c4.758,2.931,25.28,14.754,46.778,14.754C54.711,63.102,67.644,49.059,67.644,40.274z"/>
			<path fill="none" stroke="#000000" stroke-width="2" stroke-linecap="round" stroke-linejoin="round" stroke-miterlimit="10" d="
				M44.53,26.74c0,0-12.135,14.245,0,27.271"/>
			<circle cx="53.817" cy="37.366" r="3.01"/>
		</g>
		<g clip-path="url(#SVGID_20_)">
			
				<path fill="#9C9C9C" stroke="#000000" stroke-width="2" stroke-linecap="round" stroke-linejoin="round" stroke-miterlimit="10" d="
				M134.383,67.646c6.741,0,10.604-4.417,10.604-12.121c0-0.837-0.677-1.515-1.514-1.515c-0.836,0-21.887,6.059-22.726,6.059
				c-0.835,0-1.515,0.679-1.515,1.516C119.233,67.646,126.593,67.646,134.383,67.646z"/>
			
				<path fill="#9C9C9C" stroke="#000000" stroke-width="2" stroke-linecap="round" stroke-linejoin="round" stroke-miterlimit="10" d="
				M113.397,15.855c2.353-3.622,10.484-3.622,19.019-3.622c8.067,0,15.146,6.372,15.146,13.636v0c0,0.835-3.028,0-3.028,0v0h-32.102
				C112.432,25.869,112.957,16.534,113.397,15.855z"/>
			
				<path fill="#9C9C9C" stroke="#000000" stroke-width="2" stroke-linecap="round" stroke-linejoin="round" stroke-miterlimit="10" d="
				M85.711,40.274c0-8.784,14.944-24.14,28.976-24.14c19.574,0,38.773,13.578,45.998,18.688c0.296,0.209,0.564,0.404,0.817,0.578
				c1.834-1.688,5.184-4.536,7.047-5.471c1.046-0.521,2.04-0.787,2.951-0.787c2.462,0,3.787,1.884,3.787,3.657v18.183
				c0,1.772-1.325,3.658-3.787,3.658c-0.911,0-1.905-0.265-2.951-0.79c-1.875-0.938-5.258-3.818-7.084-5.504
				c-4.758,2.931-25.28,14.754-46.778,14.754C98.644,63.102,85.711,49.059,85.711,40.274z"/>
			<path fill="none" stroke="#000000" stroke-width="2" stroke-linecap="round" stroke-linejoin="round" stroke-miterlimit="10" d="
				M108.824,26.74c0,0,12.136,14.245,0,27.271"/>
			<circle cx="99.538" cy="37.366" r="3.01"/>
		</g>
		<g clip-path="url(#SVGID_20_)">
			
				<path fill="#9C9C9C" stroke="#000000" stroke-width="2" stroke-linecap="round" stroke-linejoin="round" stroke-miterlimit="10" d="
				M287.644,40.274c0-8.784-14.944-24.14-28.976-24.14c-19.574,0-38.773,13.578-45.998,18.688c-0.296,0.209-0.564,0.404-0.817,0.578
				c-1.834-1.688-5.184-4.536-7.047-5.471c-1.046-0.521-2.04-0.787-2.951-0.787c-2.462,0-3.787,1.884-3.787,3.657v18.183
				c0,1.772,1.325,3.658,3.787,3.658c0.911,0,1.905-0.265,2.951-0.79c1.875-0.938,5.258-3.818,7.084-5.504
				c4.758,2.931,25.28,14.754,46.778,14.754C274.711,63.102,287.644,49.059,287.644,40.274z"/>
		</g>
		<g clip-path="url(#SVGID_20_)">
			
				<path fill="#9C9C9C" stroke="#000000" stroke-width="2" stroke-linecap="round" stroke-linejoin="round" stroke-miterlimit="10" d="
				M-11.028,214.646c-6.741,0-10.604-4.417-10.604-12.121c0-0.837,0.678-1.515,1.515-1.515c0.836,0,21.887,6.059,22.726,6.059
				c0.835,0,1.515,0.679,1.515,1.516C4.123,214.646-3.238,214.646-11.028,214.646z"/>
			
				<path fill="#9C9C9C" stroke="#000000" stroke-width="2" stroke-linecap="round" stroke-linejoin="round" stroke-miterlimit="10" d="
				M9.958,162.855c-2.353-3.622-10.484-3.622-19.019-3.622c-8.067,0-15.146,6.372-15.146,13.636v0c0,0.835,3.028,0,3.028,0v0h32.102
				C10.923,172.869,10.399,163.534,9.958,162.855z"/>
			
				<path fill="#9C9C9C" stroke="#000000" stroke-width="2" stroke-linecap="round" stroke-linejoin="round" stroke-miterlimit="10" d="
				M37.644,187.274c0-8.784-14.944-24.14-28.976-24.14c-19.574,0-38.773,13.578-45.998,18.688c-0.296,0.209-0.564,0.404-0.817,0.578
				c-1.834-1.688-5.184-4.536-7.047-5.471c-1.046-0.521-2.04-0.787-2.951-0.787c-2.462,0-3.787,1.884-3.787,3.657v18.183
				c0,1.772,1.325,3.658,3.787,3.658c0.911,0,1.905-0.265,2.951-0.79c1.875-0.938,5.258-3.818,7.084-5.504
				c4.758,2.931,25.28,14.754,46.778,14.754C24.711,210.102,37.644,196.059,37.644,187.274z"/>
			<path fill="none" stroke="#000000" stroke-width="2" stroke-linecap="round" stroke-linejoin="round" stroke-miterlimit="10" d="
				M14.53,173.74c0,0-12.135,14.245,0,27.271"/>
			<circle cx="23.817" cy="184.366" r="3.01"/>
		</g>
		<g clip-path="url(#SVGID_20_)">
			
				<path fill="#9C9C9C" stroke="#000000" stroke-width="2" stroke-linecap="round" stroke-linejoin="round" stroke-miterlimit="10" d="
				M104.383,214.646c6.741,0,10.604-4.417,10.604-12.121c0-0.837-0.677-1.515-1.514-1.515c-0.836,0-21.887,6.059-22.726,6.059
				c-0.835,0-1.515,0.679-1.515,1.516C89.233,214.646,96.593,214.646,104.383,214.646z"/>
			
				<path fill="#9C9C9C" stroke="#000000" stroke-width="2" stroke-linecap="round" stroke-linejoin="round" stroke-miterlimit="10" d="
				M83.397,162.855c2.353-3.622,10.484-3.622,19.019-3.622c8.067,0,15.146,6.372,15.146,13.636v0c0,0.835-3.028,0-3.028,0v0H82.432
				C82.432,172.869,82.957,163.534,83.397,162.855z"/>
			
				<path fill="#9C9C9C" stroke="#000000" stroke-width="2" stroke-linecap="round" stroke-linejoin="round" stroke-miterlimit="10" d="
				M55.711,187.274c0-8.784,14.944-24.14,28.976-24.14c19.574,0,38.773,13.578,45.998,18.688c0.296,0.209,0.564,0.404,0.817,0.578
				c1.834-1.688,5.184-4.536,7.047-5.471c1.046-0.521,2.04-0.787,2.951-0.787c2.462,0,3.787,1.884,3.787,3.657v18.183
				c0,1.772-1.325,3.658-3.787,3.658c-0.911,0-1.905-0.265-2.951-0.79c-1.875-0.938-5.258-3.818-7.084-5.504
				c-4.758,2.931-25.28,14.754-46.778,14.754C68.644,210.102,55.711,196.059,55.711,187.274z"/>
			<path fill="none" stroke="#000000" stroke-width="2" stroke-linecap="round" stroke-linejoin="round" stroke-miterlimit="10" d="
				M78.824,173.74c0,0,12.136,14.245,0,27.271"/>
			<circle cx="69.538" cy="184.366" r="3.01"/>
		</g>
		<g clip-path="url(#SVGID_20_)">
			
				<path fill="#9C9C9C" stroke="#000000" stroke-width="2" stroke-linecap="round" stroke-linejoin="round" stroke-miterlimit="10" d="
				M170.383,140.707c6.741,0,10.604-4.417,10.604-12.121c0-0.837-0.677-1.516-1.514-1.516c-0.836,0-21.887,6.06-22.726,6.06
				c-0.835,0-1.515,0.679-1.515,1.516C155.233,140.707,162.593,140.707,170.383,140.707z"/>
			
				<path fill="#9C9C9C" stroke="#000000" stroke-width="2" stroke-linecap="round" stroke-linejoin="round" stroke-miterlimit="10" d="
				M149.397,88.916c2.353-3.622,10.484-3.622,19.019-3.622c8.067,0,15.146,6.372,15.146,13.636c0,0,0,0,0,0c0,0.835-3.028,0-3.028,0
				v0h-32.102C148.432,98.93,148.957,89.594,149.397,88.916z"/>
			
				<path fill="#9C9C9C" stroke="#000000" stroke-width="2" stroke-linecap="round" stroke-linejoin="round" stroke-miterlimit="10" d="
				M121.711,113.334c0-8.784,14.944-24.14,28.976-24.14c19.574,0,38.773,13.578,45.998,18.688c0.296,0.209,0.564,0.404,0.817,0.578
				c1.834-1.688,5.184-4.535,7.047-5.471c1.046-0.522,2.04-0.787,2.951-0.787c2.462,0,3.787,1.885,3.787,3.658v18.183
				c0,1.772-1.325,3.658-3.787,3.658c-0.911,0-1.905-0.265-2.951-0.79c-1.875-0.938-5.258-3.818-7.084-5.504
				c-4.758,2.931-25.28,14.754-46.778,14.754C134.644,136.162,121.711,122.12,121.711,113.334z"/>
			<path fill="none" stroke="#000000" stroke-width="2" stroke-linecap="round" stroke-linejoin="round" stroke-miterlimit="10" d="
				M144.825,99.8c0,0,12.136,14.245,0,27.27"/>
			<circle cx="135.538" cy="110.427" r="3.01"/>
		</g>
		<g clip-path="url(#SVGID_20_)">
			
				<path fill="#9C9C9C" stroke="#000000" stroke-width="2" stroke-linecap="round" stroke-linejoin="round" stroke-miterlimit="10" d="
				M63.096,140.707c6.741,0,10.604-4.417,10.604-12.121c0-0.837-0.678-1.516-1.515-1.516c-0.836,0-21.887,6.06-22.726,6.06
				c-0.835,0-1.515,0.679-1.515,1.516C47.946,140.707,55.306,140.707,63.096,140.707z"/>
			
				<path fill="#9C9C9C" stroke="#000000" stroke-width="2" stroke-linecap="round" stroke-linejoin="round" stroke-miterlimit="10" d="
				M42.11,88.916c2.353-3.622,10.484-3.622,19.019-3.622c8.067,0,15.146,6.372,15.146,13.636c0,0,0,0,0,0c0,0.835-3.028,0-3.028,0v0
				H41.145C41.145,98.93,41.669,89.594,42.11,88.916z"/>
			
				<path fill="#9C9C9C" stroke="#000000" stroke-width="2" stroke-linecap="round" stroke-linejoin="round" stroke-miterlimit="10" d="
				M14.424,113.334c0-8.784,14.944-24.14,28.976-24.14c19.574,0,38.773,13.578,45.998,18.688c0.296,0.209,0.564,0.404,0.817,0.578
				c1.834-1.688,5.184-4.535,7.047-5.471c1.046-0.522,2.04-0.787,2.951-0.787c2.462,0,3.787,1.885,3.787,3.658v18.183
				c0,1.772-1.325,3.658-3.787,3.658c-0.911,0-1.905-0.265-2.951-0.79c-1.875-0.938-5.258-3.818-7.084-5.504
				c-4.758,2.931-25.28,14.754-46.778,14.754C27.357,136.162,14.424,122.12,14.424,113.334z"/>
			<path fill="none" stroke="#000000" stroke-width="2" stroke-linecap="round" stroke-linejoin="round" stroke-miterlimit="10" d="
				M37.538,99.8c0,0,12.136,14.245,0,27.27"/>
			<circle cx="28.251" cy="110.427" r="3.01"/>
		</g>
		<g clip-path="url(#SVGID_20_)">
			
				<path fill="#9C9C9C" stroke="#000000" stroke-width="2" stroke-linecap="round" stroke-linejoin="round" stroke-miterlimit="10" d="
				M208.972,214.646c-6.741,0-10.604-4.417-10.604-12.121c0-0.837,0.678-1.515,1.515-1.515c0.836,0,21.887,6.059,22.726,6.059
				c0.835,0,1.515,0.679,1.515,1.516C224.123,214.646,216.762,214.646,208.972,214.646z"/>
			
				<path fill="#9C9C9C" stroke="#000000" stroke-width="2" stroke-linecap="round" stroke-linejoin="round" stroke-miterlimit="10" d="
				M229.958,162.855c-2.353-3.622-10.484-3.622-19.019-3.622c-8.067,0-15.146,6.372-15.146,13.636v0c0,0.835,3.028,0,3.028,0v0
				h32.102C230.923,172.869,230.399,163.534,229.958,162.855z"/>
			
				<path fill="#9C9C9C" stroke="#000000" stroke-width="2" stroke-linecap="round" stroke-linejoin="round" stroke-miterlimit="10" d="
				M257.644,187.274c0-8.784-14.944-24.14-28.976-24.14c-19.574,0-38.773,13.578-45.998,18.688
				c-0.296,0.209-0.564,0.404-0.817,0.578c-1.834-1.688-5.184-4.536-7.047-5.471c-1.046-0.521-2.04-0.787-2.951-0.787
				c-2.462,0-3.787,1.884-3.787,3.657v18.183c0,1.772,1.325,3.658,3.787,3.658c0.911,0,1.905-0.265,2.951-0.79
				c1.875-0.938,5.258-3.818,7.084-5.504c4.758,2.931,25.28,14.754,46.778,14.754C244.711,210.102,257.644,196.059,257.644,187.274z
				"/>
		</g>
	</g>
</g>
</svg>
