<?xml version="1.0" encoding="utf-8"?>
<!-- Generator: Adobe Illustrator 16.0.0, SVG Export Plug-In . SVG Version: 6.00 Build 0)  -->
<!DOCTYPE svg PUBLIC "-//W3C//DTD SVG 1.1//EN" "http://www.w3.org/Graphics/SVG/1.1/DTD/svg11.dtd">
<svg version="1.1" xmlns="http://www.w3.org/2000/svg" xmlns:xlink="http://www.w3.org/1999/xlink" x="0px" y="0px" width="220px"
	 height="220px" viewBox="0 0 220 220" enable-background="new 0 0 220 220" xml:space="preserve">
<g id="bg" display="none">
</g>
<g id="Layer_3">
</g>
<g id="Layer_1">
	<g>
		<defs>
			<rect id="SVGID_29_" x="-5190.076" y="-1800" width="220" height="220"/>
		</defs>
		<clipPath id="SVGID_2_">
			<use xlink:href="#SVGID_29_"  overflow="visible"/>
		</clipPath>
	</g>
	<g>
		<defs>
			<rect id="SVGID_31_" x="-3990.076" y="-1800" width="220" height="220"/>
		</defs>
		<clipPath id="SVGID_4_">
			<use xlink:href="#SVGID_31_"  overflow="visible"/>
		</clipPath>
	</g>
	<g>
		<defs>
			<rect id="SVGID_33_" x="-3390.076" y="-1800" width="220" height="220"/>
		</defs>
		<clipPath id="SVGID_6_">
			<use xlink:href="#SVGID_33_"  overflow="visible"/>
		</clipPath>
	</g>
	<g>
		<defs>
			<rect id="SVGID_35_" x="-3690.076" y="-1800" width="220" height="220"/>
		</defs>
		<clipPath id="SVGID_8_">
			<use xlink:href="#SVGID_35_"  overflow="visible"/>
		</clipPath>
	</g>
	<g>
		<defs>
			<rect id="SVGID_37_" x="-4890.076" y="-1800" width="220" height="220"/>
		</defs>
		<clipPath id="SVGID_10_">
			<use xlink:href="#SVGID_37_"  overflow="visible"/>
		</clipPath>
	</g>
	<g>
		<defs>
			<rect id="SVGID_39_" x="-4290.076" y="-1800" width="220" height="220"/>
		</defs>
		<clipPath id="SVGID_12_">
			<use xlink:href="#SVGID_39_"  overflow="visible"/>
		</clipPath>
	</g>
	<g>
		<defs>
			<rect id="SVGID_411_" x="-1800" y="-1800" width="220" height="220"/>
		</defs>
		<clipPath id="SVGID_14_">
			<use xlink:href="#SVGID_411_"  overflow="visible"/>
		</clipPath>
	</g>
	<g>
		<defs>
			<rect id="SVGID_413_" x="-600" y="-1800" width="220" height="220"/>
		</defs>
		<clipPath id="SVGID_16_">
			<use xlink:href="#SVGID_413_"  overflow="visible"/>
		</clipPath>
	</g>
	<g>
		<defs>
			<rect id="SVGID_415_" x="0" y="-1800" width="220" height="220"/>
		</defs>
		<clipPath id="SVGID_18_">
			<use xlink:href="#SVGID_415_"  overflow="visible"/>
		</clipPath>
	</g>
	<g>
		<defs>
			<rect id="SVGID_417_" x="-300" y="-1800" width="220" height="220"/>
		</defs>
		<clipPath id="SVGID_20_">
			<use xlink:href="#SVGID_417_"  overflow="visible"/>
		</clipPath>
	</g>
	<g>
		<defs>
			<rect id="SVGID_419_" x="-1500" y="-1800" width="220" height="220"/>
		</defs>
		<clipPath id="SVGID_22_">
			<use xlink:href="#SVGID_419_"  overflow="visible"/>
		</clipPath>
	</g>
	<g>
		<defs>
			<rect id="SVGID_421_" x="-900" y="-1800" width="220" height="220"/>
		</defs>
		<clipPath id="SVGID_24_">
			<use xlink:href="#SVGID_421_"  overflow="visible"/>
		</clipPath>
	</g>
	<g>
		<defs>
			<rect id="SVGID_507_" x="0" width="220" height="220"/>
		</defs>
		<use xlink:href="#SVGID_507_"  overflow="visible"/>
		<clipPath id="SVGID_26_">
			<use xlink:href="#SVGID_507_"  overflow="visible"/>
		</clipPath>
		<rect x="0" clip-path="url(#SVGID_26_)" width="220" height="220"/>
		<g clip-path="url(#SVGID_26_)">
			
				<path fill="#9C9C9C" stroke="#000000" stroke-width="2" stroke-linecap="round" stroke-linejoin="round" stroke-miterlimit="10" d="
				M152.354,18.972c0-6.741,4.417-10.604,12.121-10.604c0.837,0,1.516,0.678,1.516,1.515c0,0.836-6.06,21.886-6.06,22.725
				c0,0.835-0.679,1.515-1.516,1.515C152.354,34.122,152.354,26.762,152.354,18.972z"/>
			
				<path fill="#9C9C9C" stroke="#000000" stroke-width="2" stroke-linecap="round" stroke-linejoin="round" stroke-miterlimit="10" d="
				M204.145,39.958c3.622-2.352,3.622-10.484,3.622-19.019c0-8.067-6.372-15.145-13.636-15.145c0,0,0,0,0,0
				c-0.835,0,0,3.027,0,3.027h0v32.102C194.13,40.923,203.466,40.398,204.145,39.958z"/>
			
				<path fill="#9C9C9C" stroke="#000000" stroke-width="2" stroke-linecap="round" stroke-linejoin="round" stroke-miterlimit="10" d="
				M179.726,67.644c8.784,0,24.14-14.944,24.14-28.976c0-19.574-13.578-38.773-18.689-45.998c-0.209-0.296-0.404-0.564-0.578-0.817
				c1.688-1.834,4.536-5.184,5.471-7.047c0.522-1.046,0.787-2.04,0.787-2.951c0-2.462-1.885-3.787-3.658-3.787h-18.183
				c-1.772,0-3.658,1.325-3.658,3.787c0,0.911,0.265,1.905,0.79,2.951c0.938,1.875,3.818,5.258,5.504,7.084
				c-2.931,4.758-14.754,25.28-14.754,46.778C156.898,54.711,170.94,67.644,179.726,67.644z"/>
			<path fill="none" stroke="#000000" stroke-width="2" stroke-linecap="round" stroke-linejoin="round" stroke-miterlimit="10" d="
				M193.26,44.531c0,0-14.245-12.136-27.27,0"/>
			<circle cx="182.633" cy="53.817" r="3.01"/>
		</g>
		<g clip-path="url(#SVGID_26_)">
			
				<path fill="#9C9C9C" stroke="#000000" stroke-width="2" stroke-linecap="round" stroke-linejoin="round" stroke-miterlimit="10" d="
				M152.354,134.383c0,6.741,4.417,10.604,12.121,10.604c0.837,0,1.516-0.678,1.516-1.515c0-0.836-6.06-21.887-6.06-22.725
				c0-0.835-0.679-1.515-1.516-1.515C152.354,119.232,152.354,126.593,152.354,134.383z"/>
			
				<path fill="#9C9C9C" stroke="#000000" stroke-width="2" stroke-linecap="round" stroke-linejoin="round" stroke-miterlimit="10" d="
				M204.145,113.396c3.622,2.353,3.622,10.484,3.622,19.019c0,8.067-6.372,15.146-13.636,15.146c0,0,0,0,0,0
				c-0.835,0,0-3.028,0-3.028h0v-32.102C194.13,112.432,203.466,112.956,204.145,113.396z"/>
			
				<path fill="#9C9C9C" stroke="#000000" stroke-width="2" stroke-linecap="round" stroke-linejoin="round" stroke-miterlimit="10" d="
				M179.726,85.711c8.784,0,24.14,14.944,24.14,28.976c0,19.574-13.578,38.773-18.689,45.998c-0.209,0.296-0.404,0.565-0.578,0.817
				c1.688,1.834,4.536,5.184,5.471,7.047c0.522,1.046,0.787,2.04,0.787,2.951c0,2.462-1.885,3.787-3.658,3.787h-18.183
				c-1.772,0-3.658-1.325-3.658-3.787c0-0.911,0.265-1.905,0.79-2.951c0.938-1.875,3.818-5.258,5.504-7.084
				c-2.931-4.758-14.754-25.28-14.754-46.778C156.898,98.644,170.94,85.711,179.726,85.711z"/>
			<path fill="none" stroke="#000000" stroke-width="2" stroke-linecap="round" stroke-linejoin="round" stroke-miterlimit="10" d="
				M193.26,108.825c0,0-14.245,12.135-27.27,0"/>
			<circle cx="182.633" cy="99.538" r="3.01"/>
		</g>
		<g clip-path="url(#SVGID_26_)">
			
				<path fill="#9C9C9C" stroke="#000000" stroke-width="2" stroke-linecap="round" stroke-linejoin="round" stroke-miterlimit="10" d="
				M179.726,287.644c8.784,0,24.14-14.944,24.14-28.976c0-19.574-13.578-38.773-18.689-45.998c-0.209-0.296-0.404-0.564-0.578-0.817
				c1.688-1.834,4.536-5.184,5.471-7.047c0.522-1.046,0.787-2.04,0.787-2.951c0-2.462-1.885-3.787-3.658-3.787h-18.183
				c-1.772,0-3.658,1.325-3.658,3.787c0,0.911,0.265,1.905,0.79,2.951c0.938,1.875,3.818,5.258,5.504,7.084
				c-2.931,4.758-14.754,25.28-14.754,46.778C156.898,274.711,170.94,287.644,179.726,287.644z"/>
		</g>
		<g clip-path="url(#SVGID_26_)">
			
				<path fill="#9C9C9C" stroke="#000000" stroke-width="2" stroke-linecap="round" stroke-linejoin="round" stroke-miterlimit="10" d="
				M5.354-11.028c0-6.741,4.417-10.604,12.121-10.604c0.837,0,1.516,0.678,1.516,1.515c0,0.836-6.06,21.886-6.06,22.725
				c0,0.835-0.679,1.515-1.516,1.515C5.354,4.122,5.354-3.238,5.354-11.028z"/>
			
				<path fill="#9C9C9C" stroke="#000000" stroke-width="2" stroke-linecap="round" stroke-linejoin="round" stroke-miterlimit="10" d="
				M57.145,9.958c3.622-2.352,3.622-10.484,3.622-19.019c0-8.067-6.372-15.145-13.636-15.145c0,0,0,0,0,0c-0.835,0,0,3.027,0,3.027
				h0v32.102C47.13,10.923,56.466,10.398,57.145,9.958z"/>
			
				<path fill="#9C9C9C" stroke="#000000" stroke-width="2" stroke-linecap="round" stroke-linejoin="round" stroke-miterlimit="10" d="
				M32.726,37.644c8.784,0,24.14-14.944,24.14-28.976c0-19.574-13.578-38.773-18.689-45.998c-0.209-0.296-0.404-0.564-0.578-0.817
				c1.688-1.834,4.536-5.184,5.471-7.047c0.522-1.046,0.787-2.04,0.787-2.951c0-2.462-1.885-3.787-3.658-3.787H22.016
				c-1.772,0-3.658,1.325-3.658,3.787c0,0.911,0.265,1.905,0.79,2.951c0.938,1.875,3.818,5.258,5.504,7.084
				C21.721-33.352,9.898-12.83,9.898,8.668C9.898,24.711,23.94,37.644,32.726,37.644z"/>
			<path fill="none" stroke="#000000" stroke-width="2" stroke-linecap="round" stroke-linejoin="round" stroke-miterlimit="10" d="
				M46.26,14.531c0,0-14.245-12.136-27.27,0"/>
			<circle cx="35.633" cy="23.817" r="3.01"/>
		</g>
		<g clip-path="url(#SVGID_26_)">
			
				<path fill="#9C9C9C" stroke="#000000" stroke-width="2" stroke-linecap="round" stroke-linejoin="round" stroke-miterlimit="10" d="
				M5.354,104.383c0,6.741,4.417,10.604,12.121,10.604c0.837,0,1.516-0.678,1.516-1.515c0-0.836-6.06-21.887-6.06-22.725
				c0-0.835-0.679-1.515-1.516-1.515C5.354,89.232,5.354,96.593,5.354,104.383z"/>
			
				<path fill="#9C9C9C" stroke="#000000" stroke-width="2" stroke-linecap="round" stroke-linejoin="round" stroke-miterlimit="10" d="
				M57.145,83.396c3.622,2.353,3.622,10.484,3.622,19.019c0,8.067-6.372,15.146-13.636,15.146c0,0,0,0,0,0c-0.835,0,0-3.028,0-3.028
				h0V82.432C47.13,82.432,56.466,82.956,57.145,83.396z"/>
			
				<path fill="#9C9C9C" stroke="#000000" stroke-width="2" stroke-linecap="round" stroke-linejoin="round" stroke-miterlimit="10" d="
				M32.726,55.711c8.784,0,24.14,14.944,24.14,28.976c0,19.574-13.578,38.773-18.689,45.998c-0.209,0.296-0.404,0.565-0.578,0.817
				c1.688,1.834,4.536,5.184,5.471,7.047c0.522,1.046,0.787,2.04,0.787,2.951c0,2.462-1.885,3.787-3.658,3.787H22.016
				c-1.772,0-3.658-1.325-3.658-3.787c0-0.911,0.265-1.905,0.79-2.951c0.938-1.875,3.818-5.258,5.504-7.084
				c-2.931-4.758-14.754-25.28-14.754-46.778C9.898,68.644,23.94,55.711,32.726,55.711z"/>
			<path fill="none" stroke="#000000" stroke-width="2" stroke-linecap="round" stroke-linejoin="round" stroke-miterlimit="10" d="
				M46.26,78.825c0,0-14.245,12.135-27.27,0"/>
			<circle cx="35.633" cy="69.538" r="3.01"/>
		</g>
		<g clip-path="url(#SVGID_26_)">
			
				<path fill="#9C9C9C" stroke="#000000" stroke-width="2" stroke-linecap="round" stroke-linejoin="round" stroke-miterlimit="10" d="
				M79.293,170.383c0,6.741,4.417,10.604,12.121,10.604c0.837,0,1.516-0.678,1.516-1.515c0-0.836-6.06-21.887-6.06-22.725
				c0-0.835-0.679-1.515-1.516-1.515C79.293,155.232,79.293,162.593,79.293,170.383z"/>
			
				<path fill="#9C9C9C" stroke="#000000" stroke-width="2" stroke-linecap="round" stroke-linejoin="round" stroke-miterlimit="10" d="
				M131.084,149.396c3.622,2.353,3.622,10.484,3.622,19.019c0,8.067-6.372,15.146-13.636,15.146h0c-0.835,0,0-3.028,0-3.028h0
				v-32.102C121.07,148.432,130.405,148.956,131.084,149.396z"/>
			
				<path fill="#9C9C9C" stroke="#000000" stroke-width="2" stroke-linecap="round" stroke-linejoin="round" stroke-miterlimit="10" d="
				M106.665,121.711c8.784,0,24.14,14.944,24.14,28.976c0,19.574-13.578,38.773-18.688,45.998c-0.209,0.296-0.404,0.565-0.578,0.817
				c1.688,1.834,4.536,5.184,5.47,7.047c0.522,1.046,0.788,2.04,0.788,2.951c0,2.462-1.885,3.787-3.658,3.787H95.956
				c-1.772,0-3.658-1.325-3.658-3.787c0-0.911,0.265-1.905,0.79-2.951c0.938-1.875,3.818-5.258,5.504-7.084
				c-2.931-4.758-14.754-25.28-14.754-46.778C83.837,134.644,97.88,121.711,106.665,121.711z"/>
			<path fill="none" stroke="#000000" stroke-width="2" stroke-linecap="round" stroke-linejoin="round" stroke-miterlimit="10" d="
				M120.199,144.825c0,0-14.245,12.135-27.27,0"/>
			<circle cx="109.573" cy="135.538" r="3.01"/>
		</g>
		<g clip-path="url(#SVGID_26_)">
			
				<path fill="#9C9C9C" stroke="#000000" stroke-width="2" stroke-linecap="round" stroke-linejoin="round" stroke-miterlimit="10" d="
				M79.293,63.096c0,6.741,4.417,10.605,12.121,10.605c0.837,0,1.516-0.678,1.516-1.515c0-0.836-6.06-21.887-6.06-22.726
				c0-0.834-0.679-1.515-1.516-1.515C79.293,47.945,79.293,55.306,79.293,63.096z"/>
			
				<path fill="#9C9C9C" stroke="#000000" stroke-width="2" stroke-linecap="round" stroke-linejoin="round" stroke-miterlimit="10" d="
				M131.084,42.109c3.622,2.353,3.622,10.484,3.622,19.019c0,8.067-6.372,15.146-13.636,15.146h0c-0.835,0,0-3.028,0-3.028h0V41.145
				C121.07,41.145,130.405,41.669,131.084,42.109z"/>
			
				<path fill="#9C9C9C" stroke="#000000" stroke-width="2" stroke-linecap="round" stroke-linejoin="round" stroke-miterlimit="10" d="
				M106.665,14.424c8.784,0,24.14,14.945,24.14,28.976c0,19.574-13.578,38.773-18.688,45.999c-0.209,0.295-0.404,0.564-0.578,0.817
				c1.688,1.834,4.536,5.184,5.47,7.047c0.522,1.046,0.788,2.041,0.788,2.951c0,2.462-1.885,3.787-3.658,3.787H95.956
				c-1.772,0-3.658-1.325-3.658-3.787c0-0.911,0.265-1.905,0.79-2.951c0.938-1.875,3.818-5.258,5.504-7.084
				c-2.931-4.758-14.754-25.28-14.754-46.778C83.837,27.356,97.88,14.424,106.665,14.424z"/>
			<path fill="none" stroke="#000000" stroke-width="2" stroke-linecap="round" stroke-linejoin="round" stroke-miterlimit="10" d="
				M120.199,37.537c0,0-14.245,12.136-27.27,0"/>
			<circle cx="109.573" cy="28.251" r="3.01"/>
		</g>
		<g clip-path="url(#SVGID_26_)">
			
				<path fill="#9C9C9C" stroke="#000000" stroke-width="2" stroke-linecap="round" stroke-linejoin="round" stroke-miterlimit="10" d="
				M5.354,208.972c0-6.741,4.417-10.604,12.121-10.604c0.837,0,1.516,0.678,1.516,1.515c0,0.836-6.06,21.886-6.06,22.725
				c0,0.835-0.679,1.515-1.516,1.515C5.354,224.122,5.354,216.762,5.354,208.972z"/>
			
				<path fill="#9C9C9C" stroke="#000000" stroke-width="2" stroke-linecap="round" stroke-linejoin="round" stroke-miterlimit="10" d="
				M57.145,229.958c3.622-2.352,3.622-10.484,3.622-19.019c0-8.067-6.372-15.145-13.636-15.145c0,0,0,0,0,0
				c-0.835,0,0,3.027,0,3.027h0v32.102C47.13,230.923,56.466,230.398,57.145,229.958z"/>
			
				<path fill="#9C9C9C" stroke="#000000" stroke-width="2" stroke-linecap="round" stroke-linejoin="round" stroke-miterlimit="10" d="
				M32.726,257.644c8.784,0,24.14-14.944,24.14-28.976c0-19.574-13.578-38.773-18.689-45.998c-0.209-0.296-0.404-0.564-0.578-0.817
				c1.688-1.834,4.536-5.184,5.471-7.047c0.522-1.046,0.787-2.04,0.787-2.951c0-2.462-1.885-3.787-3.658-3.787H22.016
				c-1.772,0-3.658,1.325-3.658,3.787c0,0.911,0.265,1.905,0.79,2.951c0.938,1.875,3.818,5.258,5.504,7.084
				c-2.931,4.758-14.754,25.28-14.754,46.778C9.898,244.711,23.94,257.644,32.726,257.644z"/>
		</g>
	</g>
</g>
</svg>
