<?xml version="1.0" encoding="utf-8"?>
<!-- Generator: Adobe Illustrator 16.0.0, SVG Export Plug-In . SVG Version: 6.00 Build 0)  -->
<!DOCTYPE svg PUBLIC "-//W3C//DTD SVG 1.1//EN" "http://www.w3.org/Graphics/SVG/1.1/DTD/svg11.dtd">
<svg version="1.1" xmlns="http://www.w3.org/2000/svg" xmlns:xlink="http://www.w3.org/1999/xlink" x="0px" y="0px"
	 width="453.543px" height="453.543px" viewBox="0 0 453.543 453.543" enable-background="new 0 0 453.543 453.543"
	 xml:space="preserve">
<g id="kvadrat" display="none">
</g>
<g id="color" display="none">
	<g id="rdeča7bela" display="inline">
	</g>
	<g display="inline">
		<g>
			
				<line fill="none" stroke="#000000" stroke-width="8" stroke-linecap="round" stroke-linejoin="round" stroke-miterlimit="10" x1="204.421" y1="307.034" x2="210.271" y2="344.384"/>
			
				<line fill="none" stroke="#000000" stroke-width="8" stroke-linecap="round" stroke-linejoin="round" stroke-miterlimit="10" x1="247.419" y1="307.034" x2="241.569" y2="344.384"/>
			
				<rect x="207.346" y="344.384" fill="#7E4E24" stroke="#000000" stroke-width="8" stroke-linecap="round" stroke-linejoin="round" stroke-miterlimit="10" width="38.25" height="38.25"/>
			<g>
				
					<path fill="#DDDB00" stroke="#000000" stroke-width="8" stroke-linecap="round" stroke-linejoin="round" stroke-miterlimit="10" d="
					M172.253,110.354c0,14.701,11.918,26.619,26.619,26.619c14.702,0,26.62-11.918,26.62-26.619
					c0,14.701,11.918,26.619,26.619,26.619c14.702,0,26.62-11.918,26.62-26.619c0,14.701,11.918,26.619,26.619,26.619
					c6.822,0,13.042-2.568,17.754-6.789c-14.376-33.037-46.811-59.277-96.331-59.277c-50.295,0-82.974,27.064-96.999,60.826
					c4.43,3.291,9.916,5.24,15.858,5.24C160.335,136.973,172.253,125.055,172.253,110.354z"/>
				
					<path fill="#006633" stroke="#000000" stroke-width="8" stroke-linecap="round" stroke-linejoin="round" stroke-miterlimit="10" d="
					M298.298,192.094c0,20.105-16.298,36.402-36.402,36.402c-20.105,0-36.403-16.297-36.403-36.402
					c0,20.105-16.299,36.402-36.403,36.402c-20.105,0-36.404-16.297-36.404-36.402c0,12.715-6.524,23.902-16.402,30.412
					c27.972,51.124,67.474,81.394,67.474,81.394h29.778h13.186h3.069c0,0,38.9-29.803,66.83-80.216
					C305.677,217.406,298.298,205.615,298.298,192.094z"/>
				
					<path fill="#39A935" stroke="#000000" stroke-width="8" stroke-linecap="round" stroke-linejoin="round" stroke-miterlimit="10" d="
					M323.105,130.184c-4.711,4.221-10.932,6.789-17.754,6.789c-14.701,0-26.619-11.918-26.619-26.619
					c0,14.701-11.918,26.619-26.62,26.619c-14.701,0-26.619-11.918-26.619-26.619c0,14.701-11.918,26.619-26.62,26.619
					c-14.701,0-26.619-11.918-26.619-26.619c0,14.701-11.918,26.619-26.62,26.619c-5.942,0-11.429-1.949-15.858-5.24
					c-10.948,26.352-10.535,56.783,1.737,81.615c1.543,3.125,3.139,6.174,4.771,9.158c9.878-6.51,16.402-17.697,16.402-30.412
					c0,20.105,16.298,36.402,36.404,36.402c20.104,0,36.403-16.297,36.403-36.402c0,20.105,16.298,36.402,36.403,36.402
					c20.104,0,36.402-16.297,36.402-36.402c0,13.521,7.379,25.313,18.322,31.59c1.858-3.355,3.669-6.801,5.415-10.336
					C334.549,188.027,334.724,156.887,323.105,130.184z"/>
			</g>
		</g>
		
			<line fill="#39A935" stroke="#000000" stroke-width="8" stroke-linecap="round" stroke-linejoin="round" stroke-miterlimit="10" x1="227.539" y1="344.384" x2="227.539" y2="303.899"/>
	</g>
</g>
<g id="cb">
	<g id="rdeča7bela_copy">
	</g>
	<g>
		<g>
			
				<line fill="none" stroke="#000000" stroke-width="8" stroke-linecap="round" stroke-linejoin="round" stroke-miterlimit="10" x1="204.421" y1="307.034" x2="210.271" y2="344.384"/>
			
				<line fill="none" stroke="#000000" stroke-width="8" stroke-linecap="round" stroke-linejoin="round" stroke-miterlimit="10" x1="247.419" y1="307.034" x2="241.569" y2="344.384"/>
			
				<rect x="207.346" y="344.384" fill="none" stroke="#000000" stroke-width="8" stroke-linecap="round" stroke-linejoin="round" stroke-miterlimit="10" width="38.25" height="38.25"/>
			<g>
				
					<path fill="none" stroke="#000000" stroke-width="8" stroke-linecap="round" stroke-linejoin="round" stroke-miterlimit="10" d="
					M172.253,110.354c0,14.701,11.918,26.619,26.619,26.619c14.702,0,26.62-11.918,26.62-26.619
					c0,14.701,11.918,26.619,26.619,26.619c14.702,0,26.62-11.918,26.62-26.619c0,14.701,11.918,26.619,26.619,26.619
					c6.822,0,13.042-2.568,17.754-6.789c-14.376-33.037-46.811-59.277-96.331-59.277c-50.295,0-82.974,27.064-96.999,60.826
					c4.43,3.291,9.916,5.24,15.858,5.24C160.335,136.973,172.253,125.055,172.253,110.354z"/>
				
					<path fill="none" stroke="#000000" stroke-width="8" stroke-linecap="round" stroke-linejoin="round" stroke-miterlimit="10" d="
					M298.298,192.094c0,20.105-16.298,36.402-36.402,36.402c-20.105,0-36.403-16.297-36.403-36.402
					c0,20.105-16.299,36.402-36.403,36.402c-20.105,0-36.404-16.297-36.404-36.402c0,12.715-6.524,23.902-16.402,30.412
					c27.972,51.124,67.474,81.394,67.474,81.394h29.778h13.186h3.069c0,0,38.9-29.803,66.83-80.216
					C305.677,217.406,298.298,205.615,298.298,192.094z"/>
				
					<path fill="none" stroke="#000000" stroke-width="8" stroke-linecap="round" stroke-linejoin="round" stroke-miterlimit="10" d="
					M323.105,130.184c-4.711,4.221-10.932,6.789-17.754,6.789c-14.701,0-26.619-11.918-26.619-26.619
					c0,14.701-11.918,26.619-26.62,26.619c-14.701,0-26.619-11.918-26.619-26.619c0,14.701-11.918,26.619-26.62,26.619
					c-14.701,0-26.619-11.918-26.619-26.619c0,14.701-11.918,26.619-26.62,26.619c-5.942,0-11.429-1.949-15.858-5.24
					c-10.948,26.352-10.535,56.783,1.737,81.615c1.543,3.125,3.139,6.174,4.771,9.158c9.878-6.51,16.402-17.697,16.402-30.412
					c0,20.105,16.298,36.402,36.404,36.402c20.104,0,36.403-16.297,36.403-36.402c0,20.105,16.298,36.402,36.403,36.402
					c20.104,0,36.402-16.297,36.402-36.402c0,13.521,7.379,25.313,18.322,31.59c1.858-3.355,3.669-6.801,5.415-10.336
					C334.549,188.027,334.724,156.887,323.105,130.184z"/>
			</g>
		</g>
		
			<line fill="none" stroke="#000000" stroke-width="8" stroke-linecap="round" stroke-linejoin="round" stroke-miterlimit="10" x1="227.539" y1="344.384" x2="227.539" y2="303.899"/>
	</g>
</g>
<g id="pivot">
	<circle fill="none" cx="221.026" cy="376.934" r="14.133"/>
</g>
</svg>
