<?xml version="1.0" encoding="utf-8"?>
<!-- Generator: Adobe Illustrator 16.0.0, SVG Export Plug-In . SVG Version: 6.00 Build 0)  -->
<!DOCTYPE svg PUBLIC "-//W3C//DTD SVG 1.1//EN" "http://www.w3.org/Graphics/SVG/1.1/DTD/svg11.dtd">
<svg version="1.1" xmlns="http://www.w3.org/2000/svg" xmlns:xlink="http://www.w3.org/1999/xlink" x="0px" y="0px"
	 width="453.544px" height="453.543px" viewBox="0 0 453.544 453.543" enable-background="new 0 0 453.544 453.543"
	 xml:space="preserve">
<g id="kvadrat" display="none">
</g>
<g id="color" display="none">
	<g id="rdeča7bela" display="inline">
	</g>
	<g display="inline">
		<g>
			
				<line fill="none" stroke="#000000" stroke-width="8" stroke-linecap="round" stroke-linejoin="round" stroke-miterlimit="10" x1="204.089" y1="307.034" x2="209.937" y2="344.384"/>
			
				<line fill="none" stroke="#000000" stroke-width="8" stroke-linecap="round" stroke-linejoin="round" stroke-miterlimit="10" x1="247.087" y1="307.034" x2="241.235" y2="344.384"/>
			
				<rect x="207.013" y="344.384" fill="#7E4E24" stroke="#000000" stroke-width="8" stroke-linecap="round" stroke-linejoin="round" stroke-miterlimit="10" width="38.25" height="38.25"/>
			<g>
				<g>
					
						<path fill="#006633" stroke="#000000" stroke-width="8" stroke-linecap="round" stroke-linejoin="round" stroke-miterlimit="10" d="
						M316.288,223.684c1.523-2.753,3.006-5.582,4.457-8.457H132.134c1.246,2.467,2.516,4.9,3.816,7.279
						c9.391,17.164,20.082,31.974,30.141,44.08h120.705C296.624,254.758,307.056,240.348,316.288,223.684z"/>
					
						<path fill="#0075A5" stroke="#000000" stroke-width="8" stroke-linecap="round" stroke-linejoin="round" stroke-miterlimit="10" d="
						M166.091,266.586c19.902,23.953,37.334,37.313,37.334,37.313h29.777h13.186h3.07c0,0,17.434-13.358,37.338-37.313H166.091z"/>
				</g>
				<path fill="#D45F14" stroke="#000000" stroke-width="8" stroke-miterlimit="10" d="M226.44,70.906
					c-31.619,0-56.27,10.701-73.705,27.033h147.391C282.69,81.61,258.054,70.906,226.44,70.906z"/>
				
					<path fill="#DDDB00" stroke="#000000" stroke-width="8" stroke-linecap="round" stroke-linejoin="round" stroke-miterlimit="10" d="
					M322.771,130.184c-5.197-11.946-12.77-22.994-22.645-32.244H152.735c-10.301,9.647-18.086,21.256-23.293,33.793
					c-0.488,1.174-0.945,2.358-1.389,3.548h196.773C324.188,133.565,323.503,131.865,322.771,130.184z"/>
				
					<path fill="#39A935" stroke="#000000" stroke-width="8" stroke-linecap="round" stroke-linejoin="round" stroke-miterlimit="10" d="
					M128.054,135.28c-9.492,25.507-8.6,54.342,3.125,78.067c0.313,0.634,0.637,1.251,0.955,1.879h188.611
					c0.318-0.629,0.645-1.244,0.957-1.879c11.727-23.726,12.617-52.561,3.125-78.067H128.054z"/>
			</g>
		</g>
	</g>
</g>
<g id="cb">
	<g id="rdeča7bela_copy">
	</g>
	<g>
		<g>
			
				<line fill="none" stroke="#000000" stroke-width="8" stroke-linecap="round" stroke-linejoin="round" stroke-miterlimit="10" x1="204.089" y1="307.034" x2="209.937" y2="344.384"/>
			
				<line fill="none" stroke="#000000" stroke-width="8" stroke-linecap="round" stroke-linejoin="round" stroke-miterlimit="10" x1="247.087" y1="307.034" x2="241.235" y2="344.384"/>
			
				<rect x="207.013" y="344.384" fill="none" stroke="#000000" stroke-width="8" stroke-linecap="round" stroke-linejoin="round" stroke-miterlimit="10" width="38.25" height="38.25"/>
			<g>
				<g>
					
						<path fill="none" stroke="#000000" stroke-width="8" stroke-linecap="round" stroke-linejoin="round" stroke-miterlimit="10" d="
						M316.288,223.684c1.523-2.753,3.006-5.582,4.457-8.457H132.134c1.246,2.467,2.516,4.9,3.816,7.279
						c9.391,17.164,20.082,31.974,30.141,44.08h120.705C296.624,254.758,307.056,240.348,316.288,223.684z"/>
					
						<path fill="none" stroke="#000000" stroke-width="8" stroke-linecap="round" stroke-linejoin="round" stroke-miterlimit="10" d="
						M166.091,266.586c19.902,23.953,37.334,37.313,37.334,37.313h29.777h13.186h3.07c0,0,17.434-13.358,37.338-37.313H166.091z"/>
				</g>
				<path fill="none" stroke="#000000" stroke-width="8" stroke-miterlimit="10" d="M226.44,70.906
					c-31.619,0-56.27,10.701-73.705,27.033h147.391C282.69,81.61,258.054,70.906,226.44,70.906z"/>
				
					<path fill="none" stroke="#000000" stroke-width="8" stroke-linecap="round" stroke-linejoin="round" stroke-miterlimit="10" d="
					M322.771,130.184c-5.197-11.946-12.77-22.994-22.645-32.244H152.735c-10.301,9.647-18.086,21.256-23.293,33.793
					c-0.488,1.174-0.945,2.358-1.389,3.548h196.773C324.188,133.565,323.503,131.865,322.771,130.184z"/>
				
					<path fill="none" stroke="#000000" stroke-width="8" stroke-linecap="round" stroke-linejoin="round" stroke-miterlimit="10" d="
					M128.054,135.28c-9.492,25.507-8.6,54.342,3.125,78.067c0.313,0.634,0.637,1.251,0.955,1.879h188.611
					c0.318-0.629,0.645-1.244,0.957-1.879c11.727-23.726,12.617-52.561,3.125-78.067H128.054z"/>
			</g>
		</g>
	</g>
</g>
<g id="pivot">
	<circle fill="none" cx="218.53" cy="376.934" r="14.133"/>
</g>
</svg>
