<?xml version="1.0" encoding="utf-8"?>
<!-- Generator: Adobe Illustrator 16.0.0, SVG Export Plug-In . SVG Version: 6.00 Build 0)  -->
<!DOCTYPE svg PUBLIC "-//W3C//DTD SVG 1.1//EN" "http://www.w3.org/Graphics/SVG/1.1/DTD/svg11.dtd">
<svg version="1.1" xmlns="http://www.w3.org/2000/svg" xmlns:xlink="http://www.w3.org/1999/xlink" x="0px" y="0px"
	 width="453.543px" height="453.543px" viewBox="0 0 453.543 453.543" enable-background="new 0 0 453.543 453.543"
	 xml:space="preserve">
<g id="kvadrat" display="none">
</g>
<g id="color" display="none">
	<g id="rdeča7bela" display="inline">
	</g>
	<g display="inline">
		
			<rect x="60.472" y="154.053" fill="#575756" stroke="#000000" stroke-width="8" stroke-linecap="round" stroke-linejoin="round" stroke-miterlimit="10" width="227.964" height="103.34"/>
		<circle fill="#B1B1B1" cx="348.84" cy="294.244" r="9.188"/>
		<circle fill="#B1B1B1" cx="147.564" cy="294.244" r="9.188"/>
		<path d="M147.565,319.49L147.565,319.49c-14.284,0-25.859-11.559-25.895-25.838l0,0c0-0.047,0-0.068,0-0.09l0,0
			c0.01-14.305,11.596-25.895,25.895-25.9l0,0c14.217,0.006,25.755,11.461,25.894,25.641l0,0c0,0.082,0,0.178,0,0.293l0,0
			c-0.006,14.283-11.56,25.854-25.844,25.895l0,0C147.604,319.49,147.576,319.49,147.565,319.49L147.565,319.49L147.565,319.49z
			 M147.6,302.502L147.6,302.502L147.6,302.502c4.827-0.01,8.76-3.895,8.852-8.719l0,0v-0.221l0,0c0-4.906-3.983-8.885-8.892-8.895
			l0,0c-4.907,0.01-8.891,3.988-8.896,8.895l0,0c0,0.033,0,0.043,0,0.074l0,0c0.013,4.875,3.999,8.865,8.896,8.865l0,0
			C147.58,302.502,147.589,302.502,147.6,302.502L147.6,302.502z"/>
		<path d="M348.841,319.49L348.841,319.49c-14.284,0-25.859-11.559-25.896-25.838l0,0c0-0.047,0-0.068,0-0.09l0,0
			c0.011-14.305,11.596-25.895,25.896-25.9l0,0c14.217,0.006,25.754,11.461,25.894,25.641l0,0c0,0.082,0,0.178,0,0.293l0,0
			c-0.006,14.283-11.56,25.854-25.844,25.895l0,0C348.88,319.49,348.851,319.49,348.841,319.49L348.841,319.49L348.841,319.49z
			 M348.875,302.502L348.875,302.502L348.875,302.502c4.827-0.01,8.761-3.895,8.852-8.719l0,0v-0.221l0,0
			c0-4.906-3.983-8.885-8.891-8.895l0,0c-4.907,0.01-8.892,3.988-8.896,8.895l0,0c0,0.033,0,0.043,0,0.074l0,0
			c0.013,4.875,3.999,8.865,8.896,8.865l0,0C348.856,302.502,348.865,302.502,348.875,302.502L348.875,302.502z"/>
		<g>
			<path opacity="0.3" fill="#FFFFFF" d="M322.282,196.758c0-3.432,2.991-6.16,6.625-6.16h25.52c3.636,0,5.212,2.373,6.627,6.16
				l9.665,24.17c2.525,5.557-2.555,7.25-6.19,7.25h-35.622c-3.643,0-6.625-2.729-6.625-6.164V196.758z"/>
			
				<path fill="#0073B3" stroke="#010101" stroke-width="8" stroke-linecap="round" stroke-linejoin="round" stroke-miterlimit="10" d="
				M372.488,172.893l-69.172-0.266v85.006H192.94h-34.076H75.836v30.15l20.572,6.229h18.536c0-18.438,14.94-33.381,33.379-33.381
				c7.384,0,13.605,2.537,19.735,6.463s12.502,17.674,13.575,24.871c0.041,0.678,0.068,1.357,0.068,2.047h0.096h4.484h128.795
				c0-18.438,14.94-33.381,33.379-33.381c18.432,0,33.378,14.943,33.378,33.381h4.579c3.676,0,6.66-2.982,6.66-6.664v-12.855
				v-45.814C387.66,215.447,372.488,172.893,372.488,172.893z M365.273,229.313h-37.896c-3.875,0-7.049-2.902-7.049-6.557v-26.869
				c0-3.65,3.182-6.553,7.049-6.553h27.148c3.868,0,5.544,2.523,7.05,6.553l10.282,25.715
				C374.545,227.512,369.141,229.313,365.273,229.313z"/>
		</g>
	</g>
</g>
<g id="cb">
	<g id="rdeča7bela_copy">
	</g>
	<g>
		
			<rect x="60.472" y="154.053" fill="none" stroke="#000000" stroke-width="8" stroke-linecap="round" stroke-linejoin="round" stroke-miterlimit="10" width="227.964" height="103.34"/>
		<path d="M147.565,267.662c-14.299,0.006-25.885,11.596-25.895,25.9c0,0.021,0,0.043,0,0.09
			c0.036,14.279,11.611,25.838,25.895,25.838c0.011,0,0.04,0,0.05,0c14.284-0.041,25.837-11.611,25.844-25.895
			c0-0.115,0-0.211,0-0.293C173.32,279.123,161.782,267.668,147.565,267.662z M156.452,293.783
			c-0.092,4.824-4.025,8.709-8.852,8.719c-0.01,0-0.02,0-0.04,0c-4.897,0-8.883-3.99-8.896-8.865c0-0.031,0-0.041,0-0.074
			c0.005-4.906,3.989-8.885,8.896-8.895c4.908,0.01,8.892,3.988,8.892,8.895V293.783z"/>
		<g>
			<path fill="none" stroke="#000000" stroke-width="8" stroke-linecap="round" stroke-linejoin="round" stroke-miterlimit="10" d="
				M372.488,172.893l-69.172-0.266v85.006H192.94h-34.076H75.836v30.15l20.572,6.229h18.536c0-18.438,14.94-33.381,33.379-33.381
				c7.384,0,13.605,2.537,19.735,6.463s12.502,17.674,13.575,24.871c0.041,0.678,0.068,1.357,0.068,2.047h0.096h4.484h128.795
				c0-18.438,14.94-33.381,33.379-33.381c18.432,0,33.378,14.943,33.378,33.381h4.579c3.676,0,6.66-2.982,6.66-6.664v-12.855
				v-45.814C387.66,215.447,372.488,172.893,372.488,172.893z M365.273,229.313h-37.896c-3.875,0-7.049-2.902-7.049-6.557v-26.869
				c0-3.65,3.182-6.553,7.049-6.553h27.148c3.868,0,5.544,2.523,7.05,6.553l10.282,25.715
				C374.545,227.512,369.141,229.313,365.273,229.313z"/>
		</g>
		<path d="M348.841,267.662c-14.299,0.006-25.886,11.596-25.895,25.9c0,0.021,0,0.043,0,0.09
			c0.036,14.279,11.611,25.838,25.895,25.838c0.01,0,0.04,0,0.05,0c14.284-0.041,25.837-11.611,25.844-25.895
			c0-0.115,0-0.211,0-0.293C374.596,279.123,363.058,267.668,348.841,267.662z M357.727,293.783
			c-0.091,4.824-4.025,8.709-8.852,8.719c-0.01,0-0.02,0-0.04,0c-4.897,0-8.883-3.99-8.896-8.865c0-0.031,0-0.041,0-0.074
			c0.005-4.906,3.989-8.885,8.896-8.895c4.908,0.01,8.891,3.988,8.891,8.895V293.783z"/>
	</g>
</g>
<g id="pivot">
	<circle fill="none" cx="251.205" cy="297.501" r="14.133"/>
</g>
</svg>
