<?xml version="1.0" encoding="utf-8"?>
<!-- Generator: Adobe Illustrator 16.0.0, SVG Export Plug-In . SVG Version: 6.00 Build 0)  -->
<!DOCTYPE svg PUBLIC "-//W3C//DTD SVG 1.1//EN" "http://www.w3.org/Graphics/SVG/1.1/DTD/svg11.dtd">
<svg version="1.1" xmlns="http://www.w3.org/2000/svg" xmlns:xlink="http://www.w3.org/1999/xlink" x="0px" y="0px"
	 width="453.543px" height="453.543px" viewBox="0 0 453.543 453.543" enable-background="new 0 0 453.543 453.543"
	 xml:space="preserve">
<g id="kvadrat" display="none">
</g>
<g id="color" display="none">
	<g display="inline">
		
			<line fill="none" stroke="#000000" stroke-width="12" stroke-linecap="round" stroke-linejoin="round" stroke-miterlimit="10" x1="192.427" y1="276.885" x2="211.14" y2="276.885"/>
		<circle fill="#010101" cx="88.362" cy="306.076" r="17.513"/>
		<circle fill="#010101" cx="151.589" cy="306.076" r="17.513"/>
		<circle fill="#010101" cx="247.716" cy="306.076" r="17.513"/>
		<circle fill="#010101" cx="305.418" cy="306.076" r="17.513"/>
		<circle fill="#010101" cx="363.122" cy="306.076" r="17.513"/>
		
			<path fill="#D45F14" stroke="#000000" stroke-width="8" stroke-linecap="round" stroke-linejoin="round" stroke-miterlimit="10" d="
			M395.861,248.123h-7.022v-22.578h-20.443v22.578H264.647v-55.838h-50.051h-9.464v19.635h9.464v90.525h50.051v-0.004h131.213
			c5.433,0,9.844-12.16,9.844-27.158C405.705,260.283,401.294,248.123,395.861,248.123z"/>
		
			<path fill="#009D73" stroke="#000000" stroke-width="8" stroke-linecap="round" stroke-linejoin="round" stroke-miterlimit="10" d="
			M47.84,229.512v9l0,0v63.934h144.587v-72.934H47.84L47.84,229.512z"/>
		<path stroke="#000000" stroke-width="8" stroke-linecap="round" stroke-linejoin="round" stroke-miterlimit="10" d="
			M285.208,146.496c0,13.205,9.403,23.91,21.005,23.91c1.94,0,3.818-0.309,5.613-0.871c-0.21,0.715-0.379,1.445-0.458,2.203
			c-0.997,9.338,8.23,17.979,20.614,19.305c1.386,0.143,2.743,0.182,4.075,0.139v0.014c0,0,21.411-0.967,31.043,16.566h16.731
			c0-24.627-21.36-37.82-28.548-37.646l0,0c-0.233-0.586-0.5-1.158-0.812-1.723c0.01-0.07,0.027-0.141,0.034-0.209
			c1.001-9.357-6.367-17.816-16.463-18.896c-0.895-0.094-1.776-0.111-2.648-0.086c0.458-4.264-0.163-8.82-2.061-13.195
			c-3.034-7.01-8.635-12-14.87-14.066c3.335-3.336,5.458-8.27,5.458-13.785c0-10.051-7.02-18.199-15.686-18.199
			c-8.657,0-15.676,8.148-15.676,18.199c0,6.551,2.992,12.279,7.464,15.482C291.441,126.641,285.199,135.738,285.208,146.496z"/>
		
			<rect x="229.659" y="215.006" fill="#91C7ED" stroke="#010101" stroke-width="6" stroke-linecap="round" stroke-linejoin="round" stroke-miterlimit="10" width="18.876" height="17.732"/>
		
			<rect x="147.446" y="247.814" fill="#91C7ED" stroke="#010101" stroke-width="6" stroke-linecap="round" stroke-linejoin="round" stroke-miterlimit="10" width="18.876" height="17.732"/>
		
			<rect x="108.946" y="247.814" fill="#91C7ED" stroke="#010101" stroke-width="6" stroke-linecap="round" stroke-linejoin="round" stroke-miterlimit="10" width="18.876" height="17.732"/>
		
			<rect x="70.446" y="247.814" fill="#91C7ED" stroke="#010101" stroke-width="6" stroke-linecap="round" stroke-linejoin="round" stroke-miterlimit="10" width="18.876" height="17.732"/>
	</g>
	<g id="rdeča7bela" display="inline">
	</g>
</g>
<g id="cb">
	<g>
		
			<line fill="none" stroke="#000000" stroke-width="8" stroke-linecap="round" stroke-linejoin="round" stroke-miterlimit="10" x1="192.427" y1="276.885" x2="211.14" y2="276.885"/>
		<path fill="none" stroke="#000000" stroke-width="8" stroke-linecap="round" stroke-linejoin="round" stroke-miterlimit="10" d="
			M285.208,146.496c0,13.205,9.403,23.91,21.005,23.91c1.94,0,3.818-0.309,5.613-0.871c-0.21,0.715-0.379,1.445-0.458,2.203
			c-0.997,9.338,8.23,17.979,20.614,19.305c1.386,0.143,2.743,0.182,4.075,0.139v0.014c0,0,21.411-0.967,31.043,16.566h16.731
			c0-24.627-21.36-37.82-28.548-37.646l0,0c-0.233-0.586-0.5-1.158-0.812-1.723c0.01-0.07,0.027-0.141,0.034-0.209
			c1.001-9.357-6.367-17.816-16.463-18.896c-0.895-0.094-1.776-0.111-2.648-0.086c0.458-4.264-0.163-8.82-2.061-13.195
			c-3.034-7.01-8.635-12-14.87-14.066c3.335-3.336,5.458-8.27,5.458-13.785c0-10.051-7.02-18.199-15.686-18.199
			c-8.657,0-15.676,8.148-15.676,18.199c0,6.551,2.992,12.279,7.464,15.482C291.441,126.641,285.199,135.738,285.208,146.496z"/>
		<g>
			<path fill="none" stroke="#000000" stroke-width="8" stroke-linecap="round" stroke-linejoin="round" stroke-miterlimit="10" d="
				M71.231,302.445c-0.247,1.172-0.382,2.385-0.382,3.631c0,9.672,7.84,17.512,17.512,17.512c9.672,0,17.513-7.84,17.513-17.512
				c0-1.246-0.135-2.459-0.382-3.631"/>
			<path fill="none" stroke="#000000" stroke-width="8" stroke-linecap="round" stroke-linejoin="round" stroke-miterlimit="10" d="
				M134.458,302.445c-0.247,1.172-0.382,2.385-0.382,3.631c0,9.672,7.841,17.512,17.513,17.512s17.513-7.84,17.513-17.512
				c0-1.246-0.135-2.459-0.382-3.631"/>
			<path fill="none" stroke="#000000" stroke-width="8" stroke-linecap="round" stroke-linejoin="round" stroke-miterlimit="10" d="
				M230.585,302.445c-0.247,1.172-0.382,2.385-0.382,3.631c0,9.672,7.84,17.512,17.513,17.512c9.672,0,17.513-7.84,17.513-17.512
				c0-1.247-0.135-2.462-0.383-3.635"/>
			<path fill="none" stroke="#000000" stroke-width="8" stroke-linecap="round" stroke-linejoin="round" stroke-miterlimit="10" d="
				M288.289,302.441c-0.248,1.173-0.383,2.388-0.383,3.635c0,9.672,7.841,17.512,17.513,17.512c9.672,0,17.513-7.84,17.513-17.512
				c0-1.247-0.135-2.462-0.383-3.635"/>
			<path fill="none" stroke="#000000" stroke-width="8" stroke-linecap="round" stroke-linejoin="round" stroke-miterlimit="10" d="
				M345.991,302.441c-0.248,1.173-0.383,2.388-0.383,3.635c0,9.672,7.841,17.512,17.513,17.512c9.672,0,17.513-7.84,17.513-17.512
				c0-1.247-0.135-2.462-0.383-3.635"/>
			
				<polyline fill="none" stroke="#000000" stroke-width="8" stroke-linecap="round" stroke-linejoin="round" stroke-miterlimit="10" points="
				230.585,302.445 264.647,302.445 264.647,302.441 264.846,302.441 			"/>
			
				<rect x="229.659" y="215.006" fill="none" stroke="#000000" stroke-width="8" stroke-linecap="round" stroke-linejoin="round" stroke-miterlimit="10" width="18.876" height="17.732"/>
			
				<line fill="none" stroke="#000000" stroke-width="8" stroke-linecap="round" stroke-linejoin="round" stroke-miterlimit="10" x1="288.289" y1="302.441" x2="264.846" y2="302.441"/>
			<path fill="none" stroke="#000000" stroke-width="8" stroke-linecap="round" stroke-linejoin="round" stroke-miterlimit="10" d="
				M380.251,302.441h15.609c5.433,0,9.844-12.16,9.844-27.158c0-15-4.411-27.16-9.844-27.16h-7.022v-22.578h-20.443v22.578H264.647
				v-55.838h-50.051h-9.464v19.635h9.464v90.525h15.989"/>
			
				<line fill="none" stroke="#000000" stroke-width="8" stroke-linecap="round" stroke-linejoin="round" stroke-miterlimit="10" x1="345.991" y1="302.441" x2="380.251" y2="302.441"/>
			
				<line fill="none" stroke="#000000" stroke-width="8" stroke-linecap="round" stroke-linejoin="round" stroke-miterlimit="10" x1="345.991" y1="302.441" x2="322.549" y2="302.441"/>
			
				<line fill="none" stroke="#000000" stroke-width="8" stroke-linecap="round" stroke-linejoin="round" stroke-miterlimit="10" x1="288.289" y1="302.441" x2="322.549" y2="302.441"/>
			
				<line fill="none" stroke="#000000" stroke-width="8" stroke-linecap="round" stroke-linejoin="round" stroke-miterlimit="10" x1="134.458" y1="302.445" x2="105.493" y2="302.445"/>
			
				<rect x="70.446" y="247.814" fill="none" stroke="#000000" stroke-width="8" stroke-linecap="round" stroke-linejoin="round" stroke-miterlimit="10" width="18.876" height="17.732"/>
			
				<rect x="108.946" y="247.814" fill="none" stroke="#000000" stroke-width="8" stroke-linecap="round" stroke-linejoin="round" stroke-miterlimit="10" width="18.876" height="17.732"/>
			
				<polyline fill="none" stroke="#000000" stroke-width="8" stroke-linecap="round" stroke-linejoin="round" stroke-miterlimit="10" points="
				168.72,302.445 192.427,302.445 192.427,229.512 47.84,229.512 47.84,238.512 47.84,302.445 71.231,302.445 			"/>
			
				<line fill="none" stroke="#000000" stroke-width="8" stroke-linecap="round" stroke-linejoin="round" stroke-miterlimit="10" x1="71.231" y1="302.445" x2="105.493" y2="302.445"/>
			
				<rect x="147.446" y="247.814" fill="none" stroke="#000000" stroke-width="8" stroke-linecap="round" stroke-linejoin="round" stroke-miterlimit="10" width="18.876" height="17.732"/>
			
				<line fill="none" stroke="#000000" stroke-width="8" stroke-linecap="round" stroke-linejoin="round" stroke-miterlimit="10" x1="134.458" y1="302.445" x2="168.72" y2="302.445"/>
		</g>
	</g>
	<g id="rdeča7bela_copy">
	</g>
</g>
<g id="pivot">
	<circle fill="none" cx="241.547" cy="316.309" r="14.133"/>
</g>
</svg>
