<?xml version="1.0" encoding="utf-8"?>
<!-- Generator: Adobe Illustrator 16.0.0, SVG Export Plug-In . SVG Version: 6.00 Build 0)  -->
<!DOCTYPE svg PUBLIC "-//W3C//DTD SVG 1.1//EN" "http://www.w3.org/Graphics/SVG/1.1/DTD/svg11.dtd">
<svg version="1.1" xmlns="http://www.w3.org/2000/svg" xmlns:xlink="http://www.w3.org/1999/xlink" x="0px" y="0px"
	 width="453.543px" height="453.543px" viewBox="0 0 453.543 453.543" enable-background="new 0 0 453.543 453.543"
	 xml:space="preserve">
<g id="kvadrat" display="none">
</g>
<g id="color" display="none">
	<g display="inline">
		
			<path fill="#FFCF00" stroke="#000000" stroke-width="8" stroke-linecap="round" stroke-linejoin="round" stroke-miterlimit="10" d="
			M363.205,182.043c-2.133-5.524-14.107-10.263-14.107-10.263l-3.16-37.91c1.238-1.759,1.697-5.568,1.106-7.128
			c-1.377-3.644-7.928-4.542-14.632-2.007c-6.703,2.536-11.021,7.544-9.641,11.188c0.26,0.694,0.714,3.288,1.314,3.777v32.08
			c0,0-31.479,67.179-81.474,70.971c-75.76,5.748-126.271,6.869-144.903,13.681c-8.476,3.098-17.956,10.261-8.979,25.011
			c8.979,14.75,16.69,25.131,26.935,30.14c10.245,5.01,102.49,34.794,166.701,6.885
			C334.969,295.606,385.009,238.477,363.205,182.043z"/>
		<path fill="none" stroke="#000000" stroke-width="6" stroke-linecap="round" stroke-linejoin="round" stroke-miterlimit="10" d="
			M143.066,293.703c0,0,100.571,34.228,151.22-13.661"/>
	</g>
	<g id="rdeča7bela" display="inline">
	</g>
</g>
<g id="cb">
	<g>
		<path fill="none" stroke="#000000" stroke-width="8" stroke-linecap="round" stroke-linejoin="round" stroke-miterlimit="10" d="
			M363.205,182.043c-2.133-5.524-14.107-10.263-14.107-10.263l-3.16-37.91c1.238-1.759,1.697-5.568,1.106-7.128
			c-1.377-3.644-7.928-4.542-14.632-2.007c-6.703,2.536-11.021,7.544-9.641,11.188c0.26,0.694,0.714,3.288,1.314,3.777v32.08
			c0,0-31.479,67.179-81.474,70.971c-75.76,5.748-126.271,6.869-144.903,13.681c-8.476,3.098-17.956,10.261-8.979,25.011
			c8.979,14.75,16.69,25.131,26.935,30.14c10.245,5.01,102.49,34.794,166.701,6.885
			C334.969,295.606,385.009,238.477,363.205,182.043z"/>
		<path fill="none" stroke="#000000" stroke-width="6" stroke-linecap="round" stroke-linejoin="round" stroke-miterlimit="10" d="
			M143.066,293.703c0,0,100.571,34.228,151.22-13.661"/>
	</g>
	<g id="rdeča7bela_copy">
	</g>
</g>
<g id="pivot">
	<circle fill="none" cx="235.794" cy="331.781" r="14.132"/>
</g>
</svg>
