<?xml version="1.0" encoding="utf-8"?>
<!-- Generator: Adobe Illustrator 16.0.0, SVG Export Plug-In . SVG Version: 6.00 Build 0)  -->
<!DOCTYPE svg PUBLIC "-//W3C//DTD SVG 1.1//EN" "http://www.w3.org/Graphics/SVG/1.1/DTD/svg11.dtd">
<svg version="1.1" xmlns="http://www.w3.org/2000/svg" xmlns:xlink="http://www.w3.org/1999/xlink" x="0px" y="0px"
	 width="453.543px" height="453.543px" viewBox="0 0 453.543 453.543" enable-background="new 0 0 453.543 453.543"
	 xml:space="preserve">
<g id="kvadrat" display="none">
</g>
<g id="color" display="none">
	<g id="rdeča7bela" display="inline">
	</g>
	<g display="inline">
		
			<path fill="#57B2E5" stroke="#000000" stroke-width="8" stroke-linecap="round" stroke-linejoin="round" stroke-miterlimit="10" d="
			M128.877,264.402c-8.376-8.539-12.635-26.188-12.388-23.937c-7.002-5.403-17.052-5.022-23.544,1.345
			c-7.098,6.963-7.206,18.359-0.245,25.456c1.263,1.286,2.7,2.263,4.202,3.091c-3.071,6.6-1.977,14.672,3.422,20.174
			c5.472,5.58,13.658,6.773,20.367,3.681c0.84,1.827,1.944,3.571,3.436,5.092c6.962,7.097,18.357,7.206,25.454,0.244
			c6.223-6.104,7.067-15.615,2.491-22.651C152.479,276.951,135.724,271.382,128.877,264.402z"/>
		
			<path fill="#57B2E5" stroke="#000000" stroke-width="8" stroke-linecap="round" stroke-linejoin="round" stroke-miterlimit="10" d="
			M203.168,189.142c8.377,8.539,12.636,26.188,12.39,23.937c7.002,5.403,17.051,5.022,23.543-1.345
			c7.098-6.963,7.206-18.359,0.245-25.456c-1.263-1.286-2.701-2.263-4.202-3.091c3.072-6.6,1.977-14.672-3.422-20.175
			c-5.473-5.579-13.657-6.772-20.367-3.68c-0.84-1.827-1.944-3.571-3.435-5.092c-6.962-7.097-18.358-7.206-25.454-0.243
			c-6.222,6.104-7.067,15.614-2.491,22.651C179.569,176.593,196.322,182.162,203.168,189.142z"/>
		
			<ellipse transform="matrix(0.7139 -0.7003 0.7003 0.7139 -111.7991 180.6391)" fill="#0073B3" stroke="#000000" stroke-width="8" stroke-linecap="round" stroke-linejoin="round" stroke-miterlimit="10" cx="165.149" cy="227.128" rx="57.636" ry="43.93"/>
		
			<path fill="#00973A" stroke="#000000" stroke-width="8" stroke-linecap="round" stroke-linejoin="round" stroke-miterlimit="10" d="
			M221.589,262.333c-0.151-11.961,8.971-27.658,7.594-25.86c-1.324-8.744-8.851-15.416-17.943-15.302
			c-9.941,0.125-17.897,8.285-17.772,18.226c0.022,1.802,0.387,3.502,0.9,5.139c-6.782,2.646-11.569,9.236-11.473,16.942
			c0.097,7.815,5.188,14.336,12.174,16.738c-0.655,1.901-1.063,3.925-1.036,6.055c0.125,9.94,8.284,17.896,18.225,17.771
			c8.717-0.11,15.9-6.399,17.458-14.647C229.971,287.715,221.712,272.111,221.589,262.333z"/>
		
			<path fill="#00973A" stroke="#000000" stroke-width="8" stroke-linecap="round" stroke-linejoin="round" stroke-miterlimit="10" d="
			M327.296,259.3c0.151,11.961-8.971,27.658-7.592,25.861c1.324,8.744,8.85,15.415,17.942,15.302
			c9.942-0.126,17.898-8.286,17.773-18.226c-0.024-1.803-0.388-3.503-0.9-5.139c6.781-2.646,11.57-9.236,11.472-16.944
			c-0.098-7.815-5.188-14.335-12.174-16.737c0.656-1.901,1.063-3.925,1.037-6.055c-0.126-9.94-8.285-17.896-18.226-17.77
			c-8.715,0.109-15.901,6.397-17.457,14.646C318.917,233.919,327.174,249.523,327.296,259.3z"/>
		
			<ellipse transform="matrix(0.9999 -0.0126 0.0126 0.9999 -3.2617 3.4692)" fill="#009D73" stroke="#000000" stroke-width="8" stroke-linecap="round" stroke-linejoin="round" stroke-miterlimit="10" cx="273.565" cy="260.47" rx="57.636" ry="43.929"/>
	</g>
</g>
<g id="cb">
	<g id="rdeča7bela_copy">
	</g>
	<g>
		<path fill="none" stroke="#1C1C1C" stroke-width="8" stroke-linecap="round" stroke-linejoin="round" stroke-miterlimit="10" d="
			M113.821,238.761c-6.717-3.515-15.169-2.546-20.875,3.049c-7.098,6.963-7.206,18.359-0.245,25.456
			c1.263,1.286,2.7,2.263,4.202,3.091c-3.071,6.6-1.977,14.672,3.422,20.174c5.472,5.58,13.658,6.773,20.367,3.681
			c0.84,1.827,1.944,3.571,3.436,5.092c6.962,7.097,18.357,7.206,25.454,0.244c5.84-5.729,6.942-14.458,3.273-21.326"/>
		<path fill="none" stroke="#1C1C1C" stroke-width="8" stroke-linecap="round" stroke-linejoin="round" stroke-miterlimit="10" d="
			M216.521,213.754c6.937,4.668,16.378,4.062,22.58-2.021c7.098-6.963,7.206-18.359,0.245-25.456
			c-1.263-1.286-2.701-2.263-4.202-3.091c3.072-6.6,1.977-14.672-3.422-20.175c-5.473-5.579-13.657-6.772-20.367-3.68
			c-0.84-1.827-1.944-3.571-3.435-5.092c-6.962-7.097-18.358-7.206-25.454-0.243c-6.041,5.926-6.998,15.058-2.86,22.025"/>
		<path fill="none" stroke="#1C1C1C" stroke-width="8" stroke-linecap="round" stroke-linejoin="round" stroke-miterlimit="10" d="
			M152.854,278.221c10.258-0.285,21.23-3.799,31.326-10.331"/>
		<path fill="none" stroke="#1C1C1C" stroke-width="8" stroke-linecap="round" stroke-linejoin="round" stroke-miterlimit="10" d="
			M216.521,213.754c-0.011,2.613-0.248,5.278-0.686,7.965"/>
		<path fill="none" stroke="#1C1C1C" stroke-width="8" stroke-linecap="round" stroke-linejoin="round" stroke-miterlimit="10" d="
			M113.821,238.761c0.586-14.492,7.654-30.327,20.566-42.993c13.459-13.203,30.241-19.997,45.218-19.745"/>
		<path fill="none" stroke="#1C1C1C" stroke-width="8" stroke-linecap="round" stroke-linejoin="round" stroke-miterlimit="10" d="
			M113.821,238.761c-0.445,11.012,2.848,21.25,10.184,28.729c7.408,7.551,17.707,11.042,28.85,10.731"/>
		<path fill="none" stroke="#1C1C1C" stroke-width="8" stroke-linecap="round" stroke-linejoin="round" stroke-miterlimit="10" d="
			M216.521,213.754c0.046-10.347-3.279-19.904-10.227-26.987c-6.926-7.061-16.38-10.571-26.688-10.744"/>
		<path fill="none" stroke="#1C1C1C" stroke-width="8" stroke-linecap="round" stroke-linejoin="round" stroke-miterlimit="10" d="
			M215.835,221.72c5.917,1.488,10.656,5.923,12.598,11.677"/>
		<path fill="none" stroke="#1C1C1C" stroke-width="8" stroke-linecap="round" stroke-linejoin="round" stroke-miterlimit="10" d="
			M215.835,221.72c-1.469-0.37-3.006-0.568-4.595-0.548c-9.941,0.125-17.897,8.285-17.772,18.226c0.022,1.802,0.387,3.502,0.9,5.139
			c-6.782,2.646-11.569,9.236-11.473,16.942c0.028,2.272,0.489,4.429,1.285,6.413"/>
		<path fill="none" stroke="#1C1C1C" stroke-width="8" stroke-linecap="round" stroke-linejoin="round" stroke-miterlimit="10" d="
			M229.364,288.894c-2.097,7.499-8.926,13.045-17.106,13.148c-9.94,0.125-18.1-7.831-18.225-17.771
			c-0.027-2.13,0.381-4.153,1.036-6.055c-4.955-1.704-8.946-5.485-10.889-10.326"/>
		<path fill="none" stroke="#1C1C1C" stroke-width="8" stroke-linecap="round" stroke-linejoin="round" stroke-miterlimit="10" d="
			M319.337,233.532c1.825-7.896,8.83-13.833,17.291-13.939c9.941-0.127,18.1,7.829,18.226,17.77c0.027,2.13-0.381,4.153-1.037,6.055
			c6.986,2.402,12.076,8.922,12.174,16.737c0.098,7.708-4.691,14.298-11.472,16.944c0.512,1.636,0.876,3.336,0.9,5.139
			c0.125,9.939-7.831,18.1-17.773,18.226c-8.687,0.108-15.928-5.981-17.714-14.149"/>
		<path fill="none" stroke="#1C1C1C" stroke-width="8" stroke-linecap="round" stroke-linejoin="round" stroke-miterlimit="10" d="
			M228.433,233.397c-7.935,7.65-12.632,17.325-12.5,27.8c0.134,10.578,5.164,20.218,13.431,27.697"/>
		<path fill="none" stroke="#1C1C1C" stroke-width="8" stroke-linecap="round" stroke-linejoin="round" stroke-miterlimit="10" d="
			M228.433,233.397c10.441-10.067,26.494-16.625,44.58-16.853c18.853-0.237,35.675,6.453,46.324,16.988"/>
		<path fill="none" stroke="#1C1C1C" stroke-width="8" stroke-linecap="round" stroke-linejoin="round" stroke-miterlimit="10" d="
			M319.933,286.314c-10.385,10.762-27.001,17.845-45.813,18.082c-17.951,0.227-34.062-5.829-44.756-15.502"/>
		<path fill="none" stroke="#1C1C1C" stroke-width="8" stroke-linecap="round" stroke-linejoin="round" stroke-miterlimit="10" d="
			M319.337,233.532c7.329,7.25,11.735,16.322,11.86,26.211c0.125,9.921-4.079,19.125-11.264,26.571"/>
	</g>
</g>
<g id="pivot">
	<circle fill="none" cx="222.232" cy="306.219" r="14.133"/>
</g>
</svg>
