<?xml version="1.0" encoding="utf-8"?>
<!-- Generator: Adobe Illustrator 16.0.0, SVG Export Plug-In . SVG Version: 6.00 Build 0)  -->
<!DOCTYPE svg PUBLIC "-//W3C//DTD SVG 1.1//EN" "http://www.w3.org/Graphics/SVG/1.1/DTD/svg11.dtd">
<svg version="1.1" xmlns="http://www.w3.org/2000/svg" xmlns:xlink="http://www.w3.org/1999/xlink" x="0px" y="0px"
	 width="453.543px" height="453.543px" viewBox="0 0 453.543 453.543" enable-background="new 0 0 453.543 453.543"
	 xml:space="preserve">
<g id="kvadrat" display="none">
</g>
<g id="color" display="none">
	<g display="inline">
		
			<path fill="#EED2A3" stroke="#000000" stroke-width="8" stroke-linecap="round" stroke-linejoin="round" stroke-miterlimit="10" d="
			M229.371,138.152c2.674,15.097,16.939,65.534,62.428,80.596c22.574,7.476,43.051,18.009,45.6,64.147l0.018,9.791
			c0,0.085,0,0.18-0.01,0.271c-2.758,30.308-29.029,53.989-59.818,53.989c-8.008,0-15.83-1.617-23.281-4.808l-1.508-0.645
			l-1.311,0.985c-6.893,5.181-15.035,7.92-23.551,7.92c-8.881,0-17.287-2.935-24.311-8.483l-1.9-1.503l-1.469,1.356
			c-7.65,3.444-15.813,5.19-24.266,5.19c-30.816,0-57.088-23.684-59.844-53.92c-0.01-0.109-0.02-0.233-0.02-0.354v-9.427
			c2.561-46.486,23.033-57.041,45.605-64.51c45.547-15.08,60.754-65.331,63.41-80.372L229.371,138.152z"/>
		<g>
			<path fill="none" stroke="#000000" stroke-width="6" stroke-linecap="round" stroke-linejoin="round" stroke-miterlimit="10" d="
				M272,242.589c0,0,27.07,18.047,20.422,67.914"/>
			<path fill="none" stroke="#000000" stroke-width="6" stroke-linecap="round" stroke-linejoin="round" stroke-miterlimit="10" d="
				M162.292,253.853c0,0-25.758,21.422,0,56.649"/>
		</g>
		
			<polyline fill="none" stroke="#000000" stroke-width="8" stroke-linecap="round" stroke-linejoin="round" stroke-miterlimit="10" points="
			204.409,103.145 226.772,138.291 248.955,103.145 		"/>
		
			<line fill="none" stroke="#000000" stroke-width="8" stroke-linecap="round" stroke-linejoin="round" stroke-miterlimit="10" x1="226.772" y1="103.145" x2="226.772" y2="138.291"/>
		<path fill="none" stroke="#000000" stroke-width="6" stroke-linecap="round" stroke-linejoin="round" stroke-miterlimit="10" d="
			M214.809,240.778c20.024-27.201-52.773,58.912-12.083,99.634"/>
		<path fill="none" stroke="#000000" stroke-width="6" stroke-linecap="round" stroke-linejoin="round" stroke-miterlimit="10" d="
			M258.669,318.415c0,0,3.264,15.243-8.465,23.682"/>
	</g>
	<g id="rdeča7bela" display="inline">
	</g>
</g>
<g id="cb">
	<g>
		<path fill="none" stroke="#000000" stroke-width="8" stroke-linecap="round" stroke-linejoin="round" stroke-miterlimit="10" d="
			M229.371,138.152c2.674,15.097,16.939,65.534,62.428,80.596c22.574,7.476,43.051,18.009,45.6,64.147l0.018,9.791
			c0,0.085,0,0.18-0.01,0.271c-2.758,30.308-29.029,53.989-59.818,53.989c-8.008,0-15.83-1.617-23.281-4.808l-1.508-0.645
			l-1.311,0.985c-6.893,5.181-15.035,7.92-23.551,7.92c-8.881,0-17.287-2.935-24.311-8.483l-1.9-1.503l-1.469,1.356
			c-7.65,3.444-15.813,5.19-24.266,5.19c-30.816,0-57.088-23.684-59.844-53.92c-0.01-0.109-0.02-0.233-0.02-0.354v-9.427
			c2.561-46.486,23.033-57.041,45.605-64.51c45.547-15.08,60.754-65.331,63.41-80.372L229.371,138.152z"/>
		<g>
			<path fill="none" stroke="#000000" stroke-width="6" stroke-linecap="round" stroke-linejoin="round" stroke-miterlimit="10" d="
				M272,242.589c0,0,27.07,18.047,20.422,67.914"/>
			<path fill="none" stroke="#000000" stroke-width="6" stroke-linecap="round" stroke-linejoin="round" stroke-miterlimit="10" d="
				M162.292,253.853c0,0-25.758,21.422,0,56.649"/>
		</g>
		
			<polyline fill="none" stroke="#000000" stroke-width="8" stroke-linecap="round" stroke-linejoin="round" stroke-miterlimit="10" points="
			204.409,103.145 226.772,138.291 248.955,103.145 		"/>
		
			<line fill="none" stroke="#000000" stroke-width="8" stroke-linecap="round" stroke-linejoin="round" stroke-miterlimit="10" x1="226.772" y1="103.145" x2="226.772" y2="138.291"/>
		<path fill="none" stroke="#000000" stroke-width="6" stroke-linecap="round" stroke-linejoin="round" stroke-miterlimit="10" d="
			M214.809,240.778c20.024-27.201-52.773,58.912-12.083,99.634"/>
		<path fill="none" stroke="#000000" stroke-width="6" stroke-linecap="round" stroke-linejoin="round" stroke-miterlimit="10" d="
			M258.669,318.415c0,0,3.264,15.243-8.465,23.682"/>
	</g>
	<g id="rdeča7bela_copy">
	</g>
</g>
<g id="pivot">
	<circle fill="none" cx="225.584" cy="346.371" r="14.132"/>
</g>
</svg>
