<?xml version="1.0" encoding="utf-8"?>
<!-- Generator: Adobe Illustrator 16.0.0, SVG Export Plug-In . SVG Version: 6.00 Build 0)  -->
<!DOCTYPE svg PUBLIC "-//W3C//DTD SVG 1.1//EN" "http://www.w3.org/Graphics/SVG/1.1/DTD/svg11.dtd">
<svg version="1.1" xmlns="http://www.w3.org/2000/svg" xmlns:xlink="http://www.w3.org/1999/xlink" x="0px" y="0px"
	 width="453.543px" height="453.543px" viewBox="0 0 453.543 453.543" enable-background="new 0 0 453.543 453.543"
	 xml:space="preserve">
<g id="kvadrat" display="none">
</g>
<g id="color" display="none">
	<g id="rdeča7bela" display="inline">
	</g>
	<g display="inline">
		<g>
			<g>
				
					<circle fill="#BD1622" stroke="#000000" stroke-width="8" stroke-linecap="round" stroke-linejoin="round" stroke-miterlimit="10" cx="156.969" cy="309.979" r="51.853"/>
				
					<circle fill="#BD1622" stroke="#000000" stroke-width="8" stroke-linecap="round" stroke-linejoin="round" stroke-miterlimit="10" cx="296.574" cy="309.979" r="51.853"/>
				
					<path fill="#7E4E24" stroke="#000000" stroke-width="8" stroke-linecap="round" stroke-linejoin="round" stroke-miterlimit="10" d="
					M286.528,284.761c-0.128,0.009-0.269,0.009-0.388,0.009c-3.182,0-5.862-2.46-6.071-5.689c-0.291-4.54-0.769-9.03-1.419-13.47
					c-0.59-4.1-1.34-8.15-2.211-12.16c-9.889-45.5-36.539-85.1-59.459-112.309c-4.131-4.9-8.131-9.393-11.9-13.452
					c-14.641-15.79-25.641-24.929-25.961-25.19c-2.59-2.128-2.968-5.959-0.849-8.56c2.14-2.601,5.971-2.979,8.57-0.85
					c2.33,1.909,35.02,29.08,63.439,71.631c6.481,9.688,12.731,20.179,18.352,31.35c8.43,16.761,15.449,35.04,19.658,54.47
					c0.861,3.939,1.602,7.939,2.201,11.971c0.799,5.189,1.378,10.46,1.719,15.789C292.419,281.649,289.88,284.54,286.528,284.761z"
					/>
				
					<path fill="#7E4E24" stroke="#000000" stroke-width="8" stroke-linecap="round" stroke-linejoin="round" stroke-miterlimit="10" d="
					M216.979,141.142c-0.25,21.459-3.801,69.548-27.621,118.338c-1.76,3.621-3.639,7.241-5.629,10.852
					c-1.362,2.459-2.781,4.918-4.25,7.379c-1.141,1.9-3.15,2.951-5.221,2.951c-1.061,0-2.15-0.281-3.119-0.871
					c-2.891-1.72-3.821-5.459-2.09-8.34c1.309-2.189,2.58-4.391,3.799-6.6c2.01-3.621,3.891-7.261,5.641-10.891
					c8.919-18.39,14.84-36.799,18.76-53.58c3.09-13.21,4.93-25.409,6.029-35.8c2.141-20.431,1.372-33.859,1.352-34.171
					c-0.061-0.959,0.109-1.89,0.449-2.72c0.859-2.068,2.83-3.589,5.221-3.75c3.289-0.25,6.25,2.321,6.469,5.671
					C216.819,130.3,217.06,134.409,216.979,141.142z"/>
				
					<path fill="none" stroke="#000000" stroke-width="6" stroke-linecap="round" stroke-linejoin="round" stroke-miterlimit="10" d="
					M312.136,340.894c0,0,25.004-10.021,14.07-37.671"/>
			</g>
		</g>
	</g>
</g>
<g id="cb">
	<g id="rdeča7bela_copy">
	</g>
	<g>
		<path fill="none" stroke="#000000" stroke-width="8" stroke-linecap="round" stroke-linejoin="round" stroke-miterlimit="10" d="
			M174.771,261.266c-5.552-2.029-11.548-3.138-17.803-3.138c-28.637,0-51.852,23.215-51.852,51.852s23.215,51.852,51.852,51.852
			c28.639,0,51.854-23.215,51.854-51.852c0-18.037-9.214-33.917-23.188-43.206"/>
		<path fill="none" stroke="#000000" stroke-width="8" stroke-linecap="round" stroke-linejoin="round" stroke-miterlimit="10" d="
			M278.008,261.564c-19.463,7.469-33.286,26.322-33.286,48.415c0,28.637,23.215,51.852,51.852,51.852
			c28.639,0,51.854-23.215,51.854-51.852s-23.215-51.852-51.854-51.852c-2.286,0-4.531,0.163-6.739,0.45"/>
		<path fill="none" stroke="#000000" stroke-width="8" stroke-linecap="round" stroke-linejoin="round" stroke-miterlimit="10" d="
			M205.079,127.689c-14.641-15.79-25.641-24.929-25.961-25.19c-2.59-2.128-2.968-5.959-0.849-8.56c2.14-2.601,5.971-2.979,8.57-0.85
			c2.33,1.909,35.02,29.08,63.439,71.631c6.481,9.688,12.731,20.179,18.352,31.35c8.43,16.761,15.449,35.04,19.658,54.47
			c0.58,2.653,1.082,5.34,1.546,8.038"/>
		<path fill="none" stroke="#000000" stroke-width="8" stroke-linecap="round" stroke-linejoin="round" stroke-miterlimit="10" d="
			M205.079,127.689c3.77,4.06,7.77,8.552,11.9,13.452"/>
		<path fill="none" stroke="#000000" stroke-width="8" stroke-linecap="round" stroke-linejoin="round" stroke-miterlimit="10" d="
			M278.008,261.564c0.229,1.345,0.447,2.691,0.642,4.046c0.65,4.439,1.128,8.93,1.419,13.47c0.209,3.229,2.889,5.689,6.071,5.689
			c0.119,0,0.26,0,0.388-0.009c3.352-0.221,5.891-3.111,5.68-6.461c-0.34-5.329-0.92-10.6-1.719-15.789
			c-0.196-1.317-0.43-2.624-0.655-3.933"/>
		<path fill="none" stroke="#000000" stroke-width="8" stroke-linecap="round" stroke-linejoin="round" stroke-miterlimit="10" d="
			M278.008,261.564c-0.463-2.724-0.986-5.43-1.569-8.114c-9.889-45.5-36.539-85.1-59.459-112.309"/>
		<path fill="none" stroke="#000000" stroke-width="8" stroke-linecap="round" stroke-linejoin="round" stroke-miterlimit="10" d="
			M205.079,127.689c-0.34,0.83-0.51,1.761-0.449,2.72c0.02,0.312,0.789,13.74-1.352,34.171c-1.099,10.391-2.939,22.59-6.029,35.8
			c-3.92,16.781-9.84,35.19-18.76,53.58c-1.174,2.435-2.428,4.871-3.718,7.306"/>
		<path fill="none" stroke="#000000" stroke-width="8" stroke-linecap="round" stroke-linejoin="round" stroke-miterlimit="10" d="
			M185.633,266.773c-0.629,1.187-1.25,2.373-1.903,3.558c-1.362,2.459-2.781,4.918-4.25,7.379c-1.141,1.9-3.15,2.951-5.221,2.951
			c-1.061,0-2.15-0.281-3.119-0.871c-2.891-1.72-3.821-5.459-2.09-8.34c1.309-2.189,2.58-4.391,3.799-6.6
			c0.662-1.192,1.288-2.39,1.922-3.585"/>
		<path fill="none" stroke="#000000" stroke-width="8" stroke-linecap="round" stroke-linejoin="round" stroke-miterlimit="10" d="
			M185.633,266.773c1.288-2.43,2.543-4.861,3.726-7.294c23.82-48.79,27.371-96.879,27.621-118.338"/>
		<path fill="none" stroke="#000000" stroke-width="8" stroke-linecap="round" stroke-linejoin="round" stroke-miterlimit="10" d="
			M326.206,303.223c10.934,27.65-14.07,37.671-14.07,37.671"/>
	</g>
</g>
<g id="pivot">
	<circle fill="none" cx="224.593" cy="357.004" r="14.133"/>
</g>
</svg>
