<?xml version="1.0" encoding="utf-8"?>
<!-- Generator: Adobe Illustrator 16.0.0, SVG Export Plug-In . SVG Version: 6.00 Build 0)  -->
<!DOCTYPE svg PUBLIC "-//W3C//DTD SVG 1.1//EN" "http://www.w3.org/Graphics/SVG/1.1/DTD/svg11.dtd">
<svg version="1.1" xmlns="http://www.w3.org/2000/svg" xmlns:xlink="http://www.w3.org/1999/xlink" x="0px" y="0px"
	 width="453.543px" height="453.543px" viewBox="0 0 453.543 453.543" enable-background="new 0 0 453.543 453.543"
	 xml:space="preserve">
<g id="kvadrat" display="none">
</g>
<g id="color" display="none">
	<g id="rdeča7bela" display="inline">
	</g>
	<g display="inline">
		<g>
			<g>
				
					<path fill="#7E4E24" stroke="#000000" stroke-width="8" stroke-linecap="round" stroke-linejoin="round" stroke-miterlimit="10" d="
					M233.348,197.018l-11.953-1.065c0.03-0.342,2.311-27.855-5.582-48.93c-9.711,6.931-23.079,10.26-38.05,6.5
					c-14.115-3.547-23.011-12.258-23.797-23.307c-0.714-10.029,5.521-19.515,15.516-23.602c14.705-6.01,32.547,1.047,47.726,18.881
					c0.262,0.308,0.521,0.622,0.775,0.936c0.576-1.252,1.034-2.539,1.362-3.852c3.307-13.161-4.609-28.005-24.525-33.006
					c0,0-7.133-2.621-5.557-7.744c1.574-5.126,8.479-3.896,8.479-3.896c32.066,8.052,37.026,32.505,33.242,47.568
					c-1.105,4.399-3.147,8.649-5.974,12.491C236.243,162.464,233.493,195.38,233.348,197.018z M180.366,116.506
					c-2.221,0-4.348,0.401-6.344,1.218c-5.101,2.085-8.426,6.873-8.087,11.644c0.405,5.7,5.782,10.263,14.751,12.515
					c11.652,2.928,22.292-0.027,29.549-5.787c-0.684-0.984-1.403-1.926-2.167-2.822
					C198.823,122.409,188.899,116.506,180.366,116.506z"/>
				<g>
					<g>
						
							<circle fill="#662482" stroke="#000000" stroke-width="8" stroke-linecap="round" stroke-linejoin="round" stroke-miterlimit="10" cx="150.268" cy="204.963" r="36.709"/>
						
							<path fill="#662482" stroke="#000000" stroke-width="8" stroke-linecap="round" stroke-linejoin="round" stroke-miterlimit="10" d="
							M264.117,204.963c0,20.274-16.438,36.708-36.709,36.708c-20.275,0-36.711-16.434-36.711-36.708
							c0-20.273,16.436-36.707,36.711-36.707C247.68,168.256,264.117,184.689,264.117,204.963z"/>
						
							<circle fill="#662482" stroke="#000000" stroke-width="8" stroke-linecap="round" stroke-linejoin="round" stroke-miterlimit="10" cx="303.275" cy="204.963" r="36.709"/>
					</g>
					<g>
						
							<circle fill="#662482" stroke="#000000" stroke-width="8" stroke-linecap="round" stroke-linejoin="round" stroke-miterlimit="10" cx="226.771" cy="338.917" r="36.71"/>
					</g>
					<g>
						
							<circle fill="#662482" stroke="#000000" stroke-width="8" stroke-linecap="round" stroke-linejoin="round" stroke-miterlimit="10" cx="188.838" cy="273.578" r="36.709"/>
						
							<circle fill="#662482" stroke="#000000" stroke-width="8" stroke-linecap="round" stroke-linejoin="round" stroke-miterlimit="10" cx="264.706" cy="273.578" r="36.708"/>
					</g>
				</g>
			</g>
		</g>
	</g>
</g>
<g id="cb">
	<g id="rdeča7bela_copy">
	</g>
	<g>
		<path fill="none" stroke="#000000" stroke-width="8" stroke-linecap="round" stroke-linejoin="round" stroke-miterlimit="10" d="
			M220.755,168.868c-0.834-7.175-2.328-14.862-4.943-21.846c-9.711,6.931-23.079,10.26-38.05,6.5
			c-14.115-3.547-23.011-12.258-23.797-23.307c-0.714-10.029,5.521-19.515,15.516-23.602c14.705-6.01,32.547,1.047,47.726,18.881
			c0.262,0.308,0.521,0.622,0.775,0.936c0.576-1.252,1.034-2.539,1.362-3.852c3.307-13.161-4.609-28.005-24.525-33.006
			c0,0-7.133-2.621-5.557-7.744c1.574-5.126,8.479-3.896,8.479-3.896c32.066,8.052,37.026,32.505,33.242,47.568
			c-1.105,4.399-3.147,8.649-5.974,12.491c4.461,9.72,6.712,20.767,7.801,30.662"/>
		<path fill="none" stroke="#000000" stroke-width="8" stroke-linecap="round" stroke-linejoin="round" stroke-miterlimit="10" d="
			M210.235,136.095c-0.684-0.984-1.403-1.926-2.167-2.822c-9.245-10.863-19.169-16.767-27.702-16.767
			c-2.221,0-4.348,0.401-6.344,1.218c-5.101,2.085-8.426,6.873-8.087,11.644c0.405,5.7,5.782,10.263,14.751,12.515
			C192.338,144.81,202.979,141.854,210.235,136.095z"/>
		
			<circle fill="none" stroke="#000000" stroke-width="8" stroke-linecap="round" stroke-linejoin="round" stroke-miterlimit="10" cx="150.268" cy="204.963" r="36.709"/>
		<path fill="none" stroke="#000000" stroke-width="8" stroke-linecap="round" stroke-linejoin="round" stroke-miterlimit="10" d="
			M220.755,168.868c2.159-0.396,4.38-0.612,6.653-0.612c1.836,0,3.64,0.139,5.404,0.399"/>
		<path fill="none" stroke="#000000" stroke-width="8" stroke-linecap="round" stroke-linejoin="round" stroke-miterlimit="10" d="
			M220.755,168.868c-17.097,3.132-30.058,18.095-30.058,36.095c0,20.274,16.436,36.708,36.711,36.708
			c20.271,0,36.709-16.434,36.709-36.708c0-18.438-13.596-33.694-31.305-36.308"/>
		
			<circle fill="none" stroke="#000000" stroke-width="8" stroke-linecap="round" stroke-linejoin="round" stroke-miterlimit="10" cx="303.275" cy="204.963" r="36.708"/>
		
			<circle fill="none" stroke="#000000" stroke-width="8" stroke-linecap="round" stroke-linejoin="round" stroke-miterlimit="10" cx="226.771" cy="338.917" r="36.71"/>
		
			<circle fill="none" stroke="#000000" stroke-width="8" stroke-linecap="round" stroke-linejoin="round" stroke-miterlimit="10" cx="188.838" cy="273.578" r="36.71"/>
		
			<circle fill="none" stroke="#000000" stroke-width="8" stroke-linecap="round" stroke-linejoin="round" stroke-miterlimit="10" cx="264.705" cy="273.579" r="36.708"/>
	</g>
</g>
<g id="pivot">
	<circle fill="none" cx="224.748" cy="371.686" r="14.132"/>
</g>
</svg>
