<?xml version="1.0" encoding="utf-8"?>
<!-- Generator: Adobe Illustrator 16.0.0, SVG Export Plug-In . SVG Version: 6.00 Build 0)  -->
<!DOCTYPE svg PUBLIC "-//W3C//DTD SVG 1.1//EN" "http://www.w3.org/Graphics/SVG/1.1/DTD/svg11.dtd">
<svg version="1.1" xmlns="http://www.w3.org/2000/svg" xmlns:xlink="http://www.w3.org/1999/xlink" x="0px" y="0px"
	 width="453.543px" height="453.543px" viewBox="0 0 453.543 453.543" enable-background="new 0 0 453.543 453.543"
	 xml:space="preserve">
<g id="kvadrat" display="none">
</g>
<g id="color" display="none">
	<g display="inline">
		<g>
			<path fill="#008D36" d="M337.839,120.526c17.677,32.029,22.035,69.091,12.264,104.392c-9.804,35.42-32.734,65.047-64.567,83.427
				c-21.161,12.217-45.187,18.677-69.479,18.677c-0.003,0-0.005,0-0.008,0c-23.621-0.002-47.033-6.056-67.706-17.504
				c-21.201-11.742-39.042-28.957-51.613-49.788l-10.396,6.002c13.661,22.719,33.093,41.489,56.196,54.283
				c22.447,12.433,47.869,19.004,73.52,19.007h0.008c26.396,0,52.496-7.016,75.479-20.285
				c34.576-19.963,59.483-52.146,70.132-90.619c10.635-38.417,5.863-78.757-13.433-113.596L337.839,120.526z"/>
			<path fill="#FFFFFF" d="M283.536,304.88c-63.891,36.888-145.363,15.709-183.341-47.15l-3.465,2
				c12.571,20.832,30.412,38.046,51.613,49.788c20.673,11.448,44.085,17.501,67.706,17.504c0.003,0,0.005,0,0.008,0
				c24.292,0,48.317-6.46,69.479-18.677c31.833-18.379,54.764-48.006,64.567-83.427c9.771-35.301,5.413-72.363-12.264-104.392
				l-3.466,2C369.823,186.844,347.428,267.993,283.536,304.88z"/>
			<path fill="#E20613" d="M283.536,304.88c63.893-36.887,86.287-118.036,50.838-182.354L100.195,257.729
				C138.172,320.589,219.645,341.768,283.536,304.88z"/>
		</g>
		<path fill="none" stroke="#000000" stroke-width="8" stroke-linecap="round" stroke-linejoin="round" stroke-miterlimit="10" d="
			M348.235,114.522l-10.396,6.003l-3.466,2L100.195,257.729l-3.465,2l-10.396,6.002c13.661,22.719,33.093,41.489,56.196,54.283
			c22.447,12.433,47.869,19.004,73.52,19.007h0.008c26.396,0,52.496-7.016,75.479-20.285c34.576-19.963,59.483-52.146,70.132-90.619
			C372.302,189.702,367.531,149.361,348.235,114.522z"/>
		<g>
			
				<line stroke="#000000" stroke-width="10" stroke-linecap="round" stroke-linejoin="round" stroke-miterlimit="10" x1="185.737" y1="252.709" x2="191.138" y2="262.064"/>
			
				<line stroke="#000000" stroke-width="10" stroke-linecap="round" stroke-linejoin="round" stroke-miterlimit="10" x1="238.188" y1="222.425" x2="243.589" y2="231.783"/>
			
				<line stroke="#000000" stroke-width="10" stroke-linecap="round" stroke-linejoin="round" stroke-miterlimit="10" x1="290.639" y1="192.143" x2="296.041" y2="201.5"/>
			
				<line stroke="#000000" stroke-width="10" stroke-linecap="round" stroke-linejoin="round" stroke-miterlimit="10" x1="230.962" y1="270.476" x2="236.364" y2="279.833"/>
			
				<line stroke="#000000" stroke-width="10" stroke-linecap="round" stroke-linejoin="round" stroke-miterlimit="10" x1="283.414" y1="240.193" x2="288.815" y2="249.549"/>
		</g>
	</g>
	<g id="rdeča7bela" display="inline">
	</g>
</g>
<g id="cb">
	<g>
		<g>
			<path fill="none" stroke="#000000" stroke-width="6" stroke-linecap="round" stroke-linejoin="round" stroke-miterlimit="10" d="
				M337.839,120.526c17.677,32.029,22.035,69.091,12.264,104.392c-9.804,35.42-32.734,65.047-64.567,83.427
				c-21.161,12.217-45.187,18.677-69.479,18.677c-0.003,0-0.005,0-0.008,0c-23.621-0.002-47.033-6.056-67.706-17.504
				c-21.201-11.742-39.042-28.957-51.613-49.788"/>
		</g>
		<path fill="none" stroke="#000000" stroke-width="8" stroke-linecap="round" stroke-linejoin="round" stroke-miterlimit="10" d="
			M348.235,114.522l-10.396,6.003l-3.466,2L100.195,257.729l-3.465,2l-10.396,6.002c13.661,22.719,33.093,41.489,56.196,54.283
			c22.447,12.433,47.869,19.004,73.52,19.007h0.008c26.396,0,52.496-7.016,75.479-20.285c34.576-19.963,59.483-52.146,70.132-90.619
			C372.302,189.702,367.531,149.361,348.235,114.522z"/>
		<g>
			
				<line fill="none" stroke="#000000" stroke-width="10" stroke-linecap="round" stroke-linejoin="round" stroke-miterlimit="10" x1="185.737" y1="252.709" x2="191.138" y2="262.064"/>
			
				<line fill="none" stroke="#000000" stroke-width="10" stroke-linecap="round" stroke-linejoin="round" stroke-miterlimit="10" x1="238.188" y1="222.425" x2="243.589" y2="231.783"/>
			
				<line fill="none" stroke="#000000" stroke-width="10" stroke-linecap="round" stroke-linejoin="round" stroke-miterlimit="10" x1="290.639" y1="192.143" x2="296.041" y2="201.5"/>
			
				<line fill="none" stroke="#000000" stroke-width="10" stroke-linecap="round" stroke-linejoin="round" stroke-miterlimit="10" x1="230.962" y1="270.476" x2="236.364" y2="279.833"/>
			
				<line fill="none" stroke="#000000" stroke-width="10" stroke-linecap="round" stroke-linejoin="round" stroke-miterlimit="10" x1="283.414" y1="240.193" x2="288.815" y2="249.549"/>
		</g>
	</g>
	<g id="rdeča7bela_copy">
	</g>
</g>
<g id="pivot">
	<circle fill="none" cx="246.308" cy="340.114" r="14.132"/>
</g>
</svg>
