<?xml version="1.0" encoding="utf-8"?>
<!-- Generator: Adobe Illustrator 16.0.0, SVG Export Plug-In . SVG Version: 6.00 Build 0)  -->
<!DOCTYPE svg PUBLIC "-//W3C//DTD SVG 1.1//EN" "http://www.w3.org/Graphics/SVG/1.1/DTD/svg11.dtd">
<svg version="1.1" id="Layer_1" xmlns="http://www.w3.org/2000/svg" xmlns:xlink="http://www.w3.org/1999/xlink" x="0px" y="0px"
	 width="453.543px" height="453.543px" viewBox="0 0 453.543 453.543" enable-background="new 0 0 453.543 453.543"
	 xml:space="preserve">
<g id="kvadrat" display="none">
</g>
<g id="color" display="none">
	<g id="rdeča7bela" display="inline">
	</g>
	<g display="inline">
		<g>
			<path fill="#7E4E24" d="M254.15,176.291c-1.014,0-2.027-0.383-2.805-1.148l-3.982-3.918
				c-6.809-6.698-13.967-10.094-21.278-10.094c-7.211,0-14.569,3.489-21.279,10.089l-3.982,3.918
				c-0.778,0.766-1.792,1.149-2.805,1.149c-1.016,0-2.031-0.385-2.811-1.154l-3.976-3.925c-1.5-1.48-3.041-2.817-4.579-3.972
				l-8.483-6.37c-1.18-0.888-1.777-2.352-1.551-3.811c0.226-1.458,1.236-2.674,2.628-3.163l10.009-3.513
				c11.735-4.12,19.481-9.751,24.268-13.35l-3.387-25.951c-0.149-1.143,0.201-2.292,0.96-3.157c0.759-0.865,1.854-1.361,3.006-1.361
				h22.417c1.15,0,2.248,0.497,3.006,1.361c0.76,0.864,1.109,2.015,0.961,3.157l-3.385,25.946
				c4.726,3.561,13.01,9.575,25.213,13.696l10.054,3.396c1.397,0.471,2.423,1.676,2.666,3.131c0.241,1.456-0.337,2.928-1.507,3.828
				l-8.411,6.469c-1.404,1.081-2.812,2.313-4.179,3.665l-3.977,3.925C256.182,175.906,255.166,176.291,254.15,176.291z"/>
			<path d="M236.52,110.562h0.006 M236.52,110.562l-3.688,28.267l1.191,0.888c4.766,3.601,13.574,10.259,27.012,14.796l10.053,3.396
				l-8.411,6.469c-1.532,1.179-3.063,2.521-4.55,3.989l-3.977,3.925l-3.982-3.917c-7.582-7.461-15.686-11.243-24.083-11.243
				c-8.282,0-16.61,3.885-24.084,11.238l-3.982,3.918l-3.976-3.926c-1.627-1.605-3.306-3.062-4.988-4.323l-8.482-6.371l10.009-3.513
				c12.857-4.514,21.077-10.708,25.987-14.407l1.225-0.914l-3.689-28.271H236.52 M236.523,102.562h-0.004h-22.417
				c-2.302,0-4.493,0.992-6.012,2.723c-1.519,1.729-2.219,4.03-1.921,6.313l3.083,23.625c-4.785,3.504-11.509,7.938-21.323,11.384
				l-10.008,3.514c-2.785,0.977-4.806,3.408-5.257,6.325s0.742,5.847,3.103,7.619l8.482,6.37c1.396,1.048,2.799,2.267,4.172,3.622
				l3.975,3.923c1.558,1.539,3.589,2.309,5.621,2.309c2.027,0,4.054-0.767,5.61-2.298l3.982-3.918
				c5.946-5.85,12.334-8.939,18.474-8.939c6.226,0,12.44,3.009,18.474,8.945l3.982,3.918c1.557,1.531,3.583,2.297,5.609,2.297
				c2.031,0,4.063-0.77,5.621-2.307l3.977-3.925c1.252-1.237,2.533-2.36,3.809-3.342l8.41-6.469c2.34-1.8,3.499-4.742,3.014-7.654
				c-0.484-2.913-2.533-5.321-5.33-6.266l-10.054-3.396c-10.237-3.458-17.411-8.188-22.225-11.714l3.051-23.384
				c0.065-0.415,0.101-0.839,0.101-1.273C244.521,106.144,240.943,102.562,236.523,102.562L236.523,102.562z"/>
		</g>
		
			<path fill="#39A935" stroke="#000000" stroke-width="8" stroke-linecap="round" stroke-linejoin="round" stroke-miterlimit="10" d="
			M270.844,153.403c-8.449,0-15.563,4.903-20.713,10.06c-7.125-6.572-15.219-10.06-23.724-10.06c-7.285,0-14.272,3.575-20.607,9.893
			l0.092,0.104c0,0-14.773-10.001-23.189-10.001c-27.46,0-53.658,36.277-53.658,95.793c0,59.51,26.198,93.79,53.658,93.785
			c8.412,0,23.189-9.991,23.189-9.991l-0.092,0.105c6.335,6.313,13.322,9.891,20.607,9.891c8.602,0,16.784-3.365,23.969-9.812
			c5.13,5.058,12.149,9.812,20.468,9.812c27.458,0,53.656-34.28,53.656-93.787C324.5,189.679,298.302,153.403,270.844,153.403z"/>
		<path fill="none" stroke="#000000" stroke-width="6" stroke-linecap="round" stroke-linejoin="round" stroke-miterlimit="10" d="
			M206.575,332.57c0,0-23.467-17.377-21.102-68.207"/>
		<path fill="none" stroke="#000000" stroke-width="6" stroke-linecap="round" stroke-linejoin="round" stroke-miterlimit="10" d="
			M249.407,332.57c0,0,11.692-8.658,17.739-31.629"/>
		<path fill="none" stroke="#000000" stroke-width="6" stroke-linecap="round" stroke-linejoin="round" stroke-miterlimit="10" d="
			M246.876,162.365c0,0,23.467,17.377,21.103,68.205"/>
	</g>
</g>
<g id="pivot">
	<circle fill="none" cx="227.538" cy="339.137" r="14.132"/>
</g>
<g id="rdeča7bela_1_">
</g>
<g>
	<path fill="none" stroke="#000000" stroke-width="8" stroke-linecap="round" stroke-linejoin="round" stroke-miterlimit="10" d="
		M180.383,153.494l8.873-3.114c11.735-4.12,19.481-9.751,24.268-13.35l-3.387-25.952c-0.149-1.142,0.201-2.292,0.96-3.156
		c0.759-0.865,1.854-1.361,3.006-1.361h22.417c1.15,0,2.248,0.497,3.006,1.361c0.76,0.863,1.109,2.015,0.961,3.156l-3.385,25.947
		c4.726,3.561,13.01,9.575,25.213,13.696l7.994,2.7"/>
	<path fill="none" stroke="#000000" stroke-width="8" stroke-linecap="round" stroke-linejoin="round" stroke-miterlimit="10" d="
		M180.383,153.494c0.772-0.058,1.545-0.096,2.32-0.096c8.416,0,23.189,10.001,23.189,10.001l-0.092-0.104
		c6.335-6.317,13.322-9.893,20.607-9.893c8.505,0,16.599,3.487,23.724,10.06c5.041-5.046,11.965-9.838,20.178-10.041"/>
	<path fill="none" stroke="#000000" stroke-width="8" stroke-linecap="round" stroke-linejoin="round" stroke-miterlimit="10" d="
		M270.844,153.403c-8.449,0-15.563,4.903-20.713,10.06c-7.125-6.572-15.219-10.06-23.724-10.06c-7.285,0-14.272,3.575-20.607,9.893
		l0.092,0.104c0,0-14.773-10.001-23.189-10.001c-27.46,0-53.658,36.277-53.658,95.793c0,59.51,26.198,93.79,53.658,93.785
		c8.412,0,23.189-9.991,23.189-9.991l-0.092,0.105c6.335,6.313,13.322,9.891,20.607,9.891c8.602,0,16.784-3.365,23.969-9.812
		c5.13,5.058,12.149,9.812,20.468,9.812c27.458,0,53.656-34.28,53.656-93.787C324.5,189.679,298.302,153.403,270.844,153.403z"/>
	<path fill="none" stroke="#000000" stroke-width="6" stroke-linecap="round" stroke-linejoin="round" stroke-miterlimit="10" d="
		M206.575,332.57c0,0-23.467-17.377-21.102-68.207"/>
	<path fill="none" stroke="#000000" stroke-width="6" stroke-linecap="round" stroke-linejoin="round" stroke-miterlimit="10" d="
		M249.407,332.57c0,0,11.692-8.658,17.739-31.629"/>
	<path fill="none" stroke="#000000" stroke-width="6" stroke-linecap="round" stroke-linejoin="round" stroke-miterlimit="10" d="
		M246.876,162.365c0,0,23.467,17.376,21.103,68.205"/>
</g>
</svg>
