<?xml version="1.0" encoding="utf-8"?>
<!-- Generator: Adobe Illustrator 16.0.0, SVG Export Plug-In . SVG Version: 6.00 Build 0)  -->
<!DOCTYPE svg PUBLIC "-//W3C//DTD SVG 1.1//EN" "http://www.w3.org/Graphics/SVG/1.1/DTD/svg11.dtd">
<svg version="1.1" xmlns="http://www.w3.org/2000/svg" xmlns:xlink="http://www.w3.org/1999/xlink" x="0px" y="0px" width="220px"
	 height="220px" viewBox="0 0 220 220" enable-background="new 0 0 220 220" xml:space="preserve">
<g id="bg" display="none">
</g>
<g id="Layer_3">
</g>
<g id="Layer_1">
	<g>
		<defs>
			<rect id="SVGID_29_" x="-3090.076" y="-2100" width="220" height="220"/>
		</defs>
		<clipPath id="SVGID_2_">
			<use xlink:href="#SVGID_29_"  overflow="visible"/>
		</clipPath>
	</g>
	<g>
		<defs>
			<rect id="SVGID_31_" x="-1890.076" y="-2100" width="220" height="220"/>
		</defs>
		<clipPath id="SVGID_4_">
			<use xlink:href="#SVGID_31_"  overflow="visible"/>
		</clipPath>
	</g>
	<g>
		<defs>
			<rect id="SVGID_33_" x="-1290.076" y="-2100" width="220" height="220"/>
		</defs>
		<clipPath id="SVGID_6_">
			<use xlink:href="#SVGID_33_"  overflow="visible"/>
		</clipPath>
	</g>
	<g>
		<defs>
			<rect id="SVGID_35_" x="-1590.076" y="-2100" width="220" height="220"/>
		</defs>
		<clipPath id="SVGID_8_">
			<use xlink:href="#SVGID_35_"  overflow="visible"/>
		</clipPath>
	</g>
	<g>
		<defs>
			<rect id="SVGID_37_" x="-2790.076" y="-2100" width="220" height="220"/>
		</defs>
		<clipPath id="SVGID_10_">
			<use xlink:href="#SVGID_37_"  overflow="visible"/>
		</clipPath>
	</g>
	<g>
		<defs>
			<rect id="SVGID_39_" x="-2190.076" y="-2100" width="220" height="220"/>
		</defs>
		<clipPath id="SVGID_12_">
			<use xlink:href="#SVGID_39_"  overflow="visible"/>
		</clipPath>
	</g>
	<g>
		<defs>
			<rect id="SVGID_523_" width="220" height="220"/>
		</defs>
		<clipPath id="SVGID_14_">
			<use xlink:href="#SVGID_523_"  overflow="visible"/>
		</clipPath>
		<rect clip-path="url(#SVGID_14_)" fill="#D6D6D6" width="220" height="220"/>
		<g clip-path="url(#SVGID_14_)">
			<g id="XMLID_172_">
				<g>
					<path fill="#4A4A4A" d="M34.614,126.894c0,0-12.157,4.404-34.573,4.594v0.008c-0.183,0-0.361-0.005-0.544-0.008
						c-0.178,0.003-0.358,0.008-0.541,0.008v-0.008c-22.418-0.191-34.57-4.337-34.57-4.337
						c2.703-16.963,15.492-35.235,15.492-35.235H19.12C19.12,91.917,31.908,109.928,34.614,126.894z"/>
					<path fill="#525252" d="M19.12,68.303v23.614h-39.242V68.303c10.08-5.9,3.44-24.34,3.44-24.34l7.13-1.477
						c0,0,6.375,14.018,9.052,14.018c2.68,0,9.05-14.018,9.05-14.018l7.127,1.477C15.677,43.963,9.039,62.402,19.12,68.303z"/>
				</g>
				<g>
					
						<path fill="none" stroke="#000000" stroke-width="2" stroke-linecap="round" stroke-linejoin="round" stroke-miterlimit="10" d="
						M19.12,91.917V68.303c-10.08-5.9-3.443-24.34-3.443-24.34L8.55,42.486c0,0-6.37,14.018-9.05,14.018
						c-2.677,0-9.052-14.018-9.052-14.018l-7.13,1.477c0,0,6.64,18.439-3.44,24.34v23.614"/>
					
						<path fill="none" stroke="#000000" stroke-width="2" stroke-linecap="round" stroke-linejoin="round" stroke-miterlimit="10" d="
						M19.12,91.917h-39.242c0,0-12.789,18.272-15.492,35.235c0,0,12.152,4.146,34.57,4.337v0.008c0.183,0,0.363-0.005,0.541-0.008
						c0.183,0.003,0.361,0.008,0.544,0.008v-0.008c22.415-0.191,34.573-4.594,34.573-4.594
						C31.908,109.928,19.12,91.917,19.12,91.917z"/>
				</g>
			</g>
			<path fill="none" stroke="#000000" stroke-width="2" stroke-linecap="round" stroke-linejoin="round" stroke-miterlimit="10" d="
				M17.758,130.01c0,0-2.386-31.156-6.862-38.092"/>
			
				<line fill="none" stroke="#000000" stroke-width="2" stroke-linecap="round" stroke-linejoin="round" stroke-miterlimit="10" x1="-0.503" y1="91.918" x2="-0.503" y2="131.49"/>
		</g>
		<g clip-path="url(#SVGID_14_)">
			<g id="XMLID_171_">
				<g>
					<path fill="#4A4A4A" d="M254.614,126.894c0,0-12.157,4.404-34.573,4.594v0.008c-0.183,0-0.36-0.005-0.543-0.008
						c-0.178,0.003-0.358,0.008-0.541,0.008v-0.008c-22.418-0.191-34.57-4.337-34.57-4.337
						c2.703-16.963,15.492-35.235,15.492-35.235h39.242C239.12,91.917,251.908,109.928,254.614,126.894z"/>
					<path fill="#525252" d="M239.12,68.303v23.614h-39.242V68.303c10.08-5.9,3.44-24.34,3.44-24.34l7.13-1.477
						c0,0,6.375,14.018,9.052,14.018c2.68,0,9.05-14.018,9.05-14.018l7.127,1.477C235.677,43.963,229.039,62.402,239.12,68.303z"/>
				</g>
				<g>
					
						<path fill="none" stroke="#000000" stroke-width="2" stroke-linecap="round" stroke-linejoin="round" stroke-miterlimit="10" d="
						M239.12,91.917V68.303c-10.081-5.9-3.442-24.34-3.442-24.34l-7.127-1.477c0,0-6.37,14.018-9.05,14.018
						c-2.677,0-9.052-14.018-9.052-14.018l-7.13,1.477c0,0,6.64,18.439-3.44,24.34v23.614"/>
					
						<path fill="none" stroke="#000000" stroke-width="2" stroke-linecap="round" stroke-linejoin="round" stroke-miterlimit="10" d="
						M239.12,91.917h-39.242c0,0-12.789,18.272-15.492,35.235c0,0,12.152,4.146,34.57,4.337v0.008c0.183,0,0.363-0.005,0.541-0.008
						c0.183,0.003,0.361,0.008,0.543,0.008v-0.008c22.416-0.191,34.573-4.594,34.573-4.594
						C251.908,109.928,239.12,91.917,239.12,91.917z"/>
				</g>
			</g>
			<path fill="none" stroke="#000000" stroke-width="2" stroke-linecap="round" stroke-linejoin="round" stroke-miterlimit="10" d="
				M201.809,130.01c0,0,2.386-31.156,6.862-38.092"/>
			
				<line fill="none" stroke="#000000" stroke-width="2" stroke-linecap="round" stroke-linejoin="round" stroke-miterlimit="10" x1="219.497" y1="91.918" x2="219.497" y2="131.49"/>
		</g>
		<g clip-path="url(#SVGID_14_)">
			<g id="XMLID_170_">
				<g>
					<path fill="#4A4A4A" d="M145.114,126.894c0,0-12.157,4.404-34.573,4.594v0.008c-0.183,0-0.36-0.005-0.543-0.008
						c-0.178,0.003-0.358,0.008-0.541,0.008v-0.008c-22.418-0.191-34.57-4.337-34.57-4.337
						c2.703-16.963,15.492-35.235,15.492-35.235h39.242C129.62,91.917,142.408,109.928,145.114,126.894z"/>
					<path fill="#525252" d="M129.62,68.303v23.614H90.378V68.303c10.08-5.9,3.44-24.34,3.44-24.34l7.13-1.477
						c0,0,6.375,14.018,9.052,14.018c2.68,0,9.05-14.018,9.05-14.018l7.127,1.477C126.177,43.963,119.539,62.402,129.62,68.303z"/>
				</g>
				<g>
					
						<path fill="none" stroke="#000000" stroke-width="2" stroke-linecap="round" stroke-linejoin="round" stroke-miterlimit="10" d="
						M129.62,91.917V68.303c-10.081-5.9-3.442-24.34-3.442-24.34l-7.127-1.477c0,0-6.37,14.018-9.05,14.018
						c-2.677,0-9.052-14.018-9.052-14.018l-7.13,1.477c0,0,6.64,18.439-3.44,24.34v23.614"/>
					
						<path fill="none" stroke="#000000" stroke-width="2" stroke-linecap="round" stroke-linejoin="round" stroke-miterlimit="10" d="
						M129.62,91.917H90.378c0,0-12.789,18.272-15.492,35.235c0,0,12.152,4.146,34.57,4.337v0.008c0.183,0,0.363-0.005,0.541-0.008
						c0.183,0.003,0.361,0.008,0.543,0.008v-0.008c22.416-0.191,34.573-4.594,34.573-4.594
						C142.408,109.928,129.62,91.917,129.62,91.917z"/>
				</g>
			</g>
			<path fill="none" stroke="#000000" stroke-width="2" stroke-linecap="round" stroke-linejoin="round" stroke-miterlimit="10" d="
				M92.309,130.01c0,0,2.386-31.156,6.862-38.092"/>
			<path fill="none" stroke="#000000" stroke-width="2" stroke-linecap="round" stroke-linejoin="round" stroke-miterlimit="10" d="
				M128.258,130.01c0,0-2.386-31.156-6.862-38.092"/>
			
				<line fill="none" stroke="#000000" stroke-width="2" stroke-linecap="round" stroke-linejoin="round" stroke-miterlimit="10" x1="109.997" y1="91.918" x2="109.997" y2="131.49"/>
		</g>
		<g clip-path="url(#SVGID_14_)">
			<g id="XMLID_169_">
				<g>
					<path fill="#4A4A4A" d="M89.124,232.86c0,0-12.157,4.404-34.573,4.594v0.008c-0.183,0-0.361-0.005-0.544-0.008
						c-0.178,0.003-0.358,0.008-0.541,0.008v-0.008c-22.418-0.191-34.57-4.337-34.57-4.337
						c2.703-16.963,15.491-35.235,15.491-35.235h39.242C73.629,197.883,86.418,215.895,89.124,232.86z"/>
					<path fill="#525252" d="M73.629,174.269v23.614H34.387v-23.614c10.081-5.901,3.44-24.34,3.44-24.34l7.13-1.477
						c0,0,6.375,14.018,9.052,14.018c2.68,0,9.05-14.018,9.05-14.018l7.127,1.477C70.187,149.929,63.549,168.369,73.629,174.269z"/>
				</g>
				<g>
					
						<path fill="none" stroke="#000000" stroke-width="2" stroke-linecap="round" stroke-linejoin="round" stroke-miterlimit="10" d="
						M73.629,197.883v-23.614c-10.08-5.901-3.443-24.34-3.443-24.34l-7.127-1.477c0,0-6.37,14.018-9.05,14.018
						c-2.677,0-9.052-14.018-9.052-14.018l-7.13,1.477c0,0,6.64,18.439-3.44,24.34v23.614"/>
					
						<path fill="none" stroke="#000000" stroke-width="2" stroke-linecap="round" stroke-linejoin="round" stroke-miterlimit="10" d="
						M73.629,197.883H34.387c0,0-12.789,18.272-15.491,35.235c0,0,12.152,4.146,34.57,4.337v0.008c0.183,0,0.363-0.005,0.541-0.008
						c0.183,0.003,0.361,0.008,0.544,0.008v-0.008c22.416-0.191,34.573-4.594,34.573-4.594
						C86.418,215.895,73.629,197.883,73.629,197.883z"/>
				</g>
			</g>
			<path fill="none" stroke="#000000" stroke-width="2" stroke-linecap="round" stroke-linejoin="round" stroke-miterlimit="10" d="
				M36.318,235.977c0,0,2.386-31.156,6.861-38.092"/>
			<path fill="none" stroke="#000000" stroke-width="2" stroke-linecap="round" stroke-linejoin="round" stroke-miterlimit="10" d="
				M72.268,235.977c0,0-2.386-31.156-6.862-38.092"/>
			
				<line fill="none" stroke="#000000" stroke-width="2" stroke-linecap="round" stroke-linejoin="round" stroke-miterlimit="10" x1="54.006" y1="197.885" x2="54.006" y2="237.457"/>
		</g>
		<g clip-path="url(#SVGID_14_)">
			<g id="XMLID_168_">
				<g>
					<path fill="#4A4A4A" d="M199.055,232.86c0,0-12.157,4.404-34.573,4.594v0.008c-0.183,0-0.361-0.005-0.543-0.008
						c-0.178,0.003-0.358,0.008-0.542,0.008v-0.008c-22.418-0.191-34.57-4.337-34.57-4.337
						c2.703-16.963,15.492-35.235,15.492-35.235h39.242C183.561,197.883,196.349,215.895,199.055,232.86z"/>
					<path fill="#525252" d="M183.561,174.269v23.614h-39.242v-23.614c10.08-5.901,3.44-24.34,3.44-24.34l7.13-1.477
						c0,0,6.375,14.018,9.052,14.018c2.68,0,9.05-14.018,9.05-14.018l7.127,1.477C180.118,149.929,173.48,168.369,183.561,174.269z"
						/>
				</g>
				<g>
					
						<path fill="none" stroke="#000000" stroke-width="2" stroke-linecap="round" stroke-linejoin="round" stroke-miterlimit="10" d="
						M183.561,197.883v-23.614c-10.081-5.901-3.443-24.34-3.443-24.34l-7.127-1.477c0,0-6.37,14.018-9.05,14.018
						c-2.677,0-9.052-14.018-9.052-14.018l-7.13,1.477c0,0,6.64,18.439-3.44,24.34v23.614"/>
					
						<path fill="none" stroke="#000000" stroke-width="2" stroke-linecap="round" stroke-linejoin="round" stroke-miterlimit="10" d="
						M183.561,197.883h-39.242c0,0-12.789,18.272-15.492,35.235c0,0,12.152,4.146,34.57,4.337v0.008
						c0.183,0,0.363-0.005,0.542-0.008c0.183,0.003,0.36,0.008,0.543,0.008v-0.008c22.416-0.191,34.573-4.594,34.573-4.594
						C196.349,215.895,183.561,197.883,183.561,197.883z"/>
				</g>
			</g>
			<path fill="none" stroke="#000000" stroke-width="2" stroke-linecap="round" stroke-linejoin="round" stroke-miterlimit="10" d="
				M146.25,235.977c0,0,2.386-31.156,6.861-38.092"/>
			<path fill="none" stroke="#000000" stroke-width="2" stroke-linecap="round" stroke-linejoin="round" stroke-miterlimit="10" d="
				M182.198,235.977c0,0-2.385-31.156-6.862-38.092"/>
			
				<line fill="none" stroke="#000000" stroke-width="2" stroke-linecap="round" stroke-linejoin="round" stroke-miterlimit="10" x1="163.938" y1="197.885" x2="163.938" y2="237.457"/>
		</g>
		<g clip-path="url(#SVGID_14_)">
			<g id="XMLID_167_">
				<g>
					<path fill="#4A4A4A" d="M89.124,12.86c0,0-12.157,4.403-34.573,4.594v0.008c-0.183,0-0.361-0.005-0.544-0.008
						c-0.178,0.002-0.358,0.008-0.541,0.008v-0.008c-22.418-0.191-34.57-4.336-34.57-4.336
						c2.703-16.963,15.491-35.235,15.491-35.235h39.242C73.629-22.117,86.418-4.105,89.124,12.86z"/>
				</g>
				<g>
					
						<path fill="none" stroke="#000000" stroke-width="2" stroke-linecap="round" stroke-linejoin="round" stroke-miterlimit="10" d="
						M73.629-22.117H34.387c0,0-12.789,18.272-15.491,35.235c0,0,12.152,4.146,34.57,4.336v0.008c0.183,0,0.363-0.005,0.541-0.008
						c0.183,0.002,0.361,0.008,0.544,0.008v-0.008c22.416-0.191,34.573-4.594,34.573-4.594
						C86.418-4.105,73.629-22.117,73.629-22.117z"/>
				</g>
			</g>
			<path fill="none" stroke="#000000" stroke-width="2" stroke-linecap="round" stroke-linejoin="round" stroke-miterlimit="10" d="
				M36.318,15.977c0,0,2.386-31.156,6.861-38.092"/>
			<path fill="none" stroke="#000000" stroke-width="2" stroke-linecap="round" stroke-linejoin="round" stroke-miterlimit="10" d="
				M72.268,15.977c0,0-2.386-31.156-6.862-38.092"/>
			
				<line fill="none" stroke="#000000" stroke-width="2" stroke-linecap="round" stroke-linejoin="round" stroke-miterlimit="10" x1="54.006" y1="-22.116" x2="54.006" y2="17.458"/>
		</g>
		<g clip-path="url(#SVGID_14_)">
			<g id="XMLID_166_">
				<g>
					<path fill="#4A4A4A" d="M199.055,12.86c0,0-12.157,4.403-34.573,4.594v0.008c-0.183,0-0.361-0.005-0.543-0.008
						c-0.178,0.002-0.358,0.008-0.542,0.008v-0.008c-22.418-0.191-34.57-4.336-34.57-4.336
						c2.703-16.963,15.492-35.235,15.492-35.235h39.242C183.561-22.117,196.349-4.105,199.055,12.86z"/>
				</g>
				<g>
					
						<path fill="none" stroke="#000000" stroke-width="2" stroke-linecap="round" stroke-linejoin="round" stroke-miterlimit="10" d="
						M183.561-22.117h-39.242c0,0-12.789,18.272-15.492,35.235c0,0,12.152,4.146,34.57,4.336v0.008c0.183,0,0.363-0.005,0.542-0.008
						c0.183,0.002,0.36,0.008,0.543,0.008v-0.008c22.416-0.191,34.573-4.594,34.573-4.594
						C196.349-4.105,183.561-22.117,183.561-22.117z"/>
				</g>
			</g>
			<path fill="none" stroke="#000000" stroke-width="2" stroke-linecap="round" stroke-linejoin="round" stroke-miterlimit="10" d="
				M146.25,15.977c0,0,2.386-31.156,6.861-38.092"/>
			<path fill="none" stroke="#000000" stroke-width="2" stroke-linecap="round" stroke-linejoin="round" stroke-miterlimit="10" d="
				M182.198,15.977c0,0-2.385-31.156-6.862-38.092"/>
			
				<line fill="none" stroke="#000000" stroke-width="2" stroke-linecap="round" stroke-linejoin="round" stroke-miterlimit="10" x1="163.938" y1="-22.116" x2="163.938" y2="17.458"/>
		</g>
	</g>
</g>
</svg>
