<?xml version="1.0" encoding="utf-8"?>
<!-- Generator: Adobe Illustrator 16.0.0, SVG Export Plug-In . SVG Version: 6.00 Build 0)  -->
<!DOCTYPE svg PUBLIC "-//W3C//DTD SVG 1.1//EN" "http://www.w3.org/Graphics/SVG/1.1/DTD/svg11.dtd">
<svg version="1.1" xmlns="http://www.w3.org/2000/svg" xmlns:xlink="http://www.w3.org/1999/xlink" x="0px" y="0px" width="220px"
	 height="220px" viewBox="0 0 220 220" enable-background="new 0 0 220 220" xml:space="preserve">
<g id="bg" display="none">
</g>
<g id="Layer_3">
</g>
<g id="Layer_1">
	<g>
		<defs>
			<rect id="SVGID_29_" x="-3690.076" y="-2100" width="220" height="220"/>
		</defs>
		<clipPath id="SVGID_2_">
			<use xlink:href="#SVGID_29_"  overflow="visible"/>
		</clipPath>
	</g>
	<g>
		<defs>
			<rect id="SVGID_31_" x="-2490.076" y="-2100" width="220" height="220"/>
		</defs>
		<clipPath id="SVGID_4_">
			<use xlink:href="#SVGID_31_"  overflow="visible"/>
		</clipPath>
	</g>
	<g>
		<defs>
			<rect id="SVGID_33_" x="-1890.076" y="-2100" width="220" height="220"/>
		</defs>
		<clipPath id="SVGID_6_">
			<use xlink:href="#SVGID_33_"  overflow="visible"/>
		</clipPath>
	</g>
	<g>
		<defs>
			<rect id="SVGID_35_" x="-2190.076" y="-2100" width="220" height="220"/>
		</defs>
		<clipPath id="SVGID_8_">
			<use xlink:href="#SVGID_35_"  overflow="visible"/>
		</clipPath>
	</g>
	<g>
		<defs>
			<rect id="SVGID_37_" x="-3390.076" y="-2100" width="220" height="220"/>
		</defs>
		<clipPath id="SVGID_10_">
			<use xlink:href="#SVGID_37_"  overflow="visible"/>
		</clipPath>
	</g>
	<g>
		<defs>
			<rect id="SVGID_39_" x="-2790.076" y="-2100" width="220" height="220"/>
		</defs>
		<clipPath id="SVGID_12_">
			<use xlink:href="#SVGID_39_"  overflow="visible"/>
		</clipPath>
	</g>
	<g>
		<defs>
			<rect id="SVGID_411_" x="-300" y="-2100" width="220" height="220"/>
		</defs>
		<clipPath id="SVGID_14_">
			<use xlink:href="#SVGID_411_"  overflow="visible"/>
		</clipPath>
	</g>
	<g>
		<defs>
			<rect id="SVGID_419_" y="-2100" width="220" height="220"/>
		</defs>
		<clipPath id="SVGID_16_">
			<use xlink:href="#SVGID_419_"  overflow="visible"/>
		</clipPath>
	</g>
	<g>
		<defs>
			<rect id="SVGID_529_" x="-300" width="220" height="220"/>
		</defs>
		<clipPath id="SVGID_18_">
			<use xlink:href="#SVGID_529_"  overflow="visible"/>
		</clipPath>
		<rect x="-80" y="-1" clip-path="url(#SVGID_18_)" fill="#D6D6D6" width="220" height="220"/>
	</g>
	<g>
		<defs>
			<rect id="SVGID_535_" width="220" height="220"/>
		</defs>
		<clipPath id="SVGID_20_">
			<use xlink:href="#SVGID_535_"  overflow="visible"/>
		</clipPath>
		<rect clip-path="url(#SVGID_20_)" fill="#D6D6D6" width="220" height="220"/>
		<g clip-path="url(#SVGID_20_)">
			<g id="XMLID_130_">
				<g>
					<path fill="#4A4A4A" d="M37.841,103.507c0,0-4.719,9.205-17.741,21.535l0.004,0.004c-0.107,0.1-0.214,0.194-0.323,0.292
						c-0.101,0.097-0.206,0.2-0.313,0.299l-0.003-0.006C6.234,137.741-3.142,141.937-3.142,141.937
						c-7.664-11.406-10.134-29.077-10.134-29.077l22.979-21.39C9.703,91.471,27.009,95.047,37.841,103.507z"/>
					<path fill="#525252" d="M-3.168,77.643L9.703,91.471l-22.979,21.39l-12.871-13.827C-23.459,90.084-37.4,82.905-37.4,82.905
						l3.372-4.75c0,0,11.373,4.732,12.94,3.273c1.569-1.461-2.34-13.14-2.34-13.14l4.979-3.02
						C-18.45,65.269-12.284,79.683-3.168,77.643z"/>
				</g>
				<g>
					
						<path fill="none" stroke="#000000" stroke-width="2" stroke-linecap="round" stroke-linejoin="round" stroke-miterlimit="10" d="
						M9.703,91.471L-3.168,77.643c-9.116,2.039-15.282-12.375-15.282-12.375l-4.979,3.02c0,0,3.909,11.679,2.34,13.14
						c-1.567,1.459-12.94-3.273-12.94-3.273l-3.372,4.75c0,0,13.94,7.18,11.253,16.128l12.871,13.827"/>
					
						<path fill="none" stroke="#000000" stroke-width="2" stroke-linecap="round" stroke-linejoin="round" stroke-miterlimit="10" d="
						M9.703,91.471l-22.979,21.39c0,0,2.471,17.67,10.134,29.077c0,0,9.375-4.196,22.608-16.305l0.003,0.006
						c0.107-0.1,0.211-0.202,0.313-0.299c0.108-0.098,0.215-0.192,0.323-0.292l-0.004-0.004
						c13.022-12.33,17.741-21.535,17.741-21.535C27.009,95.047,9.703,91.471,9.703,91.471z"/>
				</g>
			</g>
			<path fill="none" stroke="#000000" stroke-width="2" stroke-linecap="round" stroke-linejoin="round" stroke-miterlimit="10" d="
				M8.619,134.115c0,0-15.586-19.544-16.745-26.046"/>
			<path fill="none" stroke="#000000" stroke-width="2" stroke-linecap="round" stroke-linejoin="round" stroke-miterlimit="10" d="
				M29.67,114.521c0,0-18.38-16.944-24.782-18.566"/>
			
				<line fill="none" stroke="#000000" stroke-width="2" stroke-linecap="round" stroke-linejoin="round" stroke-miterlimit="10" x1="-1.786" y1="102.168" x2="19.784" y2="125.341"/>
		</g>
		<g clip-path="url(#SVGID_20_)">
			<g id="XMLID_129_">
				<g>
					<path fill="#4A4A4A" d="M64.961,97.981c0,0,9.33,4.467,22.009,17.149l0.004-0.004c0.103,0.104,0.199,0.209,0.301,0.314
						c0.1,0.099,0.205,0.2,0.308,0.304l-0.006,0.003c12.464,12.899,16.914,22.157,16.914,22.157
						c-11.194,7.97-28.791,10.921-28.791,10.921l-22.006-22.389C53.694,126.436,56.799,109.039,64.961,97.981z"/>
					<path fill="#525252" d="M40.221,139.678l13.473-13.242L75.7,148.825l-13.473,13.242c-9.018-2.444-15.816,11.687-15.816,11.687
						l-4.839-3.241c0,0,4.421-11.497,2.92-13.024c-1.502-1.529-13.071,2.696-13.071,2.696l-3.155-4.895
						C28.266,155.291,42.508,148.736,40.221,139.678z"/>
				</g>
				<g>
					
						<path fill="none" stroke="#000000" stroke-width="2" stroke-linecap="round" stroke-linejoin="round" stroke-miterlimit="10" d="
						M53.694,126.436l-13.473,13.242c2.287,9.057-11.955,15.612-11.955,15.612l3.155,4.895c0,0,11.568-4.225,13.071-2.696
						c1.501,1.528-2.92,13.024-2.92,13.024l4.839,3.241c0,0,6.798-14.131,15.816-11.687L75.7,148.825"/>
					
						<path fill="none" stroke="#000000" stroke-width="2" stroke-linecap="round" stroke-linejoin="round" stroke-miterlimit="10" d="
						M53.694,126.436L75.7,148.825c0,0,17.597-2.95,28.791-10.921c0,0-4.449-9.258-16.914-22.157l0.006-0.003
						c-0.103-0.104-0.208-0.206-0.308-0.304c-0.102-0.106-0.198-0.21-0.301-0.314l-0.004,0.004
						c-12.679-12.682-22.009-17.149-22.009-17.149C56.799,109.039,53.694,126.436,53.694,126.436z"/>
				</g>
			</g>
			<path fill="none" stroke="#000000" stroke-width="2" stroke-linecap="round" stroke-linejoin="round" stroke-miterlimit="10" d="
				M96.351,126.362c0,0-19.114,16.111-25.581,17.446"/>
			<path fill="none" stroke="#000000" stroke-width="2" stroke-linecap="round" stroke-linejoin="round" stroke-miterlimit="10" d="
				M76.192,105.851c0,0-16.438,18.833-17.885,25.277"/>
			
				<line fill="none" stroke="#000000" stroke-width="2" stroke-linecap="round" stroke-linejoin="round" stroke-miterlimit="10" x1="64.698" y1="137.63" x2="87.278" y2="115.44"/>
		</g>
		<g clip-path="url(#SVGID_20_)">
			<g id="XMLID_128_">
				<g>
					<path fill="#4A4A4A" d="M148.912,64.262c0,0-2.816,9.953-13.16,24.603l0.005,0.004c-0.085,0.119-0.172,0.232-0.259,0.349
						c-0.08,0.115-0.162,0.236-0.248,0.355l-0.002-0.007C124.654,104.042,116.286,110,116.286,110
						c-9.756-9.677-15.654-26.516-15.654-26.516l18.324-25.491C118.957,57.993,136.628,58.097,148.912,64.262z"/>
					<path fill="#525252" d="M103.617,46.967l15.339,11.026l-18.324,25.491L85.293,72.458c0.875-9.302-14.205-13.6-14.205-13.6
						l2.372-5.32c0,0,12.081,2.403,13.331,0.665c1.251-1.741-4.878-12.423-4.878-12.423l4.287-3.94
						C86.201,37.838,95.08,50.759,103.617,46.967z"/>
				</g>
				<g>
					
						<path fill="none" stroke="#000000" stroke-width="2" stroke-linecap="round" stroke-linejoin="round" stroke-miterlimit="10" d="
						M118.957,57.993l-15.339-11.026c-8.537,3.792-17.417-9.128-17.417-9.128l-4.287,3.94c0,0,6.129,10.682,4.878,12.423
						c-1.25,1.739-13.331-0.665-13.331-0.665l-2.372,5.32c0,0,15.08,4.298,14.205,13.6l15.339,11.026"/>
					
						<path fill="none" stroke="#000000" stroke-width="2" stroke-linecap="round" stroke-linejoin="round" stroke-miterlimit="10" d="
						M118.957,57.993l-18.324,25.491c0,0,5.897,16.839,15.654,26.516c0,0,8.368-5.958,18.962-20.434l0.002,0.007
						c0.085-0.119,0.167-0.24,0.248-0.355c0.087-0.117,0.173-0.231,0.259-0.349l-0.005-0.004
						c10.343-14.65,13.16-24.603,13.16-24.603C136.628,58.097,118.957,57.993,118.957,57.993z"/>
				</g>
			</g>
			<path fill="none" stroke="#000000" stroke-width="2" stroke-linecap="round" stroke-linejoin="round" stroke-miterlimit="10" d="
				M126.278,100.017c0,0-19.125-16.098-21.539-22.244"/>
			<path fill="none" stroke="#000000" stroke-width="2" stroke-linecap="round" stroke-linejoin="round" stroke-miterlimit="10" d="
				M143.065,76.666c0,0-21.353-13-27.949-13.33"/>
			
				<line fill="none" stroke="#000000" stroke-width="2" stroke-linecap="round" stroke-linejoin="round" stroke-miterlimit="10" x1="109.795" y1="70.74" x2="135.5" y2="89.22"/>
		</g>
		<g clip-path="url(#SVGID_20_)">
			<g id="XMLID_127_">
				<g>
					<path fill="#4A4A4A" d="M124.27,166.317c0,0,0.598-10.327,7.529-26.868l-0.005-0.002c0.058-0.135,0.117-0.264,0.176-0.395
						c0.054-0.132,0.107-0.266,0.166-0.402l0.004,0.006c7.214-16.425,14.095-24.051,14.095-24.051
						c11.618,7.338,21.017,22.504,21.017,22.504l-12.379,28.85C154.873,165.959,137.596,169.68,124.27,166.317z"/>
					<path fill="#525252" d="M172.232,173.41l-17.359-7.451l12.379-28.85l17.359,7.451c1.157,9.27,16.809,10.208,16.809,10.208
						l-1.166,5.707c0,0-12.314,0.265-13.159,2.234c-0.845,1.97,7.45,11.073,7.45,11.073l-3.334,4.774
						C191.211,178.555,179.749,167.86,172.232,173.41z"/>
				</g>
				<g>
					
						<path fill="none" stroke="#000000" stroke-width="2" stroke-linecap="round" stroke-linejoin="round" stroke-miterlimit="10" d="
						M154.873,165.959l17.359,7.451c7.516-5.55,18.979,5.145,18.979,5.145l3.334-4.774c0,0-8.295-9.102-7.45-11.073
						c0.845-1.968,13.159-2.234,13.159-2.234l1.166-5.707c0,0-15.652-0.938-16.809-10.208l-17.359-7.451"/>
					
						<path fill="none" stroke="#000000" stroke-width="2" stroke-linecap="round" stroke-linejoin="round" stroke-miterlimit="10" d="
						M154.873,165.959l12.379-28.85c0,0-9.399-15.166-21.017-22.504c0,0-6.881,7.626-14.095,24.051l-0.004-0.006
						c-0.058,0.136-0.111,0.271-0.166,0.402c-0.059,0.132-0.119,0.261-0.176,0.395l0.005,0.002
						c-6.932,16.541-7.529,26.868-7.529,26.868C137.596,169.68,154.873,165.959,154.873,165.959z"/>
				</g>
			</g>
			<path fill="none" stroke="#000000" stroke-width="2" stroke-linecap="round" stroke-linejoin="round" stroke-miterlimit="10" d="
				M138.638,126.512c0,0,22.152,11.582,25.839,17.061"/>
			<path fill="none" stroke="#000000" stroke-width="2" stroke-linecap="round" stroke-linejoin="round" stroke-miterlimit="10" d="
				M127.297,152.94c0,0,23.657,8.075,30.169,6.972"/>
			
				<line fill="none" stroke="#000000" stroke-width="2" stroke-linecap="round" stroke-linejoin="round" stroke-miterlimit="10" x1="161.062" y1="151.533" x2="131.968" y2="139.048"/>
		</g>
		<g clip-path="url(#SVGID_20_)">
			<g id="XMLID_126_">
				<g>
					<path fill="#4A4A4A" d="M257.841,103.507c0,0-4.719,9.205-17.741,21.535l0.004,0.004c-0.107,0.1-0.214,0.194-0.323,0.292
						c-0.101,0.097-0.206,0.2-0.313,0.299l-0.003-0.006c-13.233,12.109-22.608,16.305-22.608,16.305
						c-7.664-11.406-10.134-29.077-10.134-29.077l22.979-21.39C229.703,91.471,247.009,95.047,257.841,103.507z"/>
					<path fill="#525252" d="M216.832,77.643l12.871,13.827l-22.979,21.39l-12.871-13.827c2.688-8.948-11.253-16.128-11.253-16.128
						l3.372-4.75c0,0,11.373,4.732,12.94,3.273c1.569-1.461-2.34-13.14-2.34-13.14l4.979-3.02
						C201.55,65.269,207.716,79.683,216.832,77.643z"/>
				</g>
				<g>
					
						<path fill="none" stroke="#000000" stroke-width="2" stroke-linecap="round" stroke-linejoin="round" stroke-miterlimit="10" d="
						M229.703,91.471l-12.871-13.827c-9.116,2.039-15.282-12.375-15.282-12.375l-4.979,3.02c0,0,3.909,11.679,2.34,13.14
						c-1.567,1.459-12.94-3.273-12.94-3.273l-3.372,4.75c0,0,13.94,7.18,11.253,16.128l12.871,13.827"/>
					
						<path fill="none" stroke="#000000" stroke-width="2" stroke-linecap="round" stroke-linejoin="round" stroke-miterlimit="10" d="
						M229.703,91.471l-22.979,21.39c0,0,2.471,17.67,10.134,29.077c0,0,9.375-4.196,22.608-16.305l0.003,0.006
						c0.107-0.1,0.211-0.202,0.313-0.299c0.108-0.098,0.215-0.192,0.323-0.292l-0.004-0.004
						c13.022-12.33,17.741-21.535,17.741-21.535C247.009,95.047,229.703,91.471,229.703,91.471z"/>
				</g>
			</g>
			<path fill="none" stroke="#000000" stroke-width="2" stroke-linecap="round" stroke-linejoin="round" stroke-miterlimit="10" d="
				M228.619,134.115c0,0-15.586-19.544-16.745-26.046"/>
			
				<line fill="none" stroke="#000000" stroke-width="2" stroke-linecap="round" stroke-linejoin="round" stroke-miterlimit="10" x1="218.214" y1="102.168" x2="239.784" y2="125.341"/>
		</g>
		<g clip-path="url(#SVGID_20_)">
			<g id="XMLID_125_">
				<g>
					<path fill="#525252" d="M54.508,211.003l-2.345,18.745l-31.151-3.898l2.346-18.745c8.588-3.683,5.148-18.98,5.148-18.98
						l5.807-0.464c0,0,3.668,11.76,5.793,12.026c2.127,0.266,8.576-10.229,8.576-10.229l5.511,1.88
						C54.193,191.34,47.092,205.318,54.508,211.003z"/>
				</g>
				<g>
					
						<path fill="none" stroke="#000000" stroke-width="2" stroke-linecap="round" stroke-linejoin="round" stroke-miterlimit="10" d="
						M52.163,229.748l2.345-18.745c-7.416-5.685-0.315-19.663-0.315-19.663l-5.511-1.88c0,0-6.449,10.495-8.576,10.229
						c-2.125-0.266-5.793-12.026-5.793-12.026l-5.807,0.464c0,0,3.44,15.297-5.148,18.98l-2.346,18.745"/>
				</g>
			</g>
		</g>
		<g clip-path="url(#SVGID_20_)">
			<g id="XMLID_124_">
				<g>
					<path fill="#525252" d="M203.508,215.003l-2.345,18.745l-31.151-3.898l2.346-18.745c8.588-3.683,5.148-18.98,5.148-18.98
						l5.807-0.464c0,0,3.668,11.76,5.793,12.026c2.127,0.266,8.576-10.229,8.576-10.229l5.511,1.88
						C203.193,195.34,196.092,209.318,203.508,215.003z"/>
				</g>
				<g>
					
						<path fill="none" stroke="#000000" stroke-width="2" stroke-linecap="round" stroke-linejoin="round" stroke-miterlimit="10" d="
						M201.163,233.748l2.345-18.745c-7.416-5.685-0.315-19.663-0.315-19.663l-5.511-1.88c0,0-6.449,10.495-8.576,10.229
						c-2.125-0.266-5.793-12.026-5.793-12.026l-5.807,0.464c0,0,3.44,15.297-5.148,18.98l-2.346,18.745"/>
				</g>
			</g>
		</g>
		<g clip-path="url(#SVGID_20_)">
			<g id="XMLID_123_">
				<g>
					<path fill="#4A4A4A" d="M146.579,211.714c0,0-5.503,8.759-19.551,19.906l0.003,0.005c-0.115,0.09-0.23,0.174-0.347,0.262
						c-0.111,0.089-0.222,0.181-0.337,0.271l-0.004-0.005c-14.237,10.908-23.943,14.27-23.943,14.27
						c-6.639-12.031-7.56-29.85-7.56-29.85l24.756-19.304C119.598,197.27,136.526,202.342,146.579,211.714z"/>
					<path fill="#525252" d="M107.981,182.373l11.616,14.897l-24.756,19.304l-11.616-14.897c3.457-8.682-9.804-17.048-9.804-17.048
						l3.772-4.439c0,0,10.917,5.708,12.606,4.39c1.69-1.318-1.187-13.295-1.187-13.295l5.223-2.575
						C93.836,168.71,98.719,183.609,107.981,182.373z"/>
				</g>
				<g>
					
						<path fill="none" stroke="#000000" stroke-width="2" stroke-linecap="round" stroke-linejoin="round" stroke-miterlimit="10" d="
						M119.598,197.27l-11.616-14.897c-9.262,1.236-14.146-13.662-14.146-13.662l-5.223,2.575c0,0,2.877,11.977,1.187,13.295
						c-1.689,1.317-12.606-4.39-12.606-4.39l-3.772,4.439c0,0,13.26,8.366,9.804,17.048l11.616,14.897"/>
					
						<path fill="none" stroke="#000000" stroke-width="2" stroke-linecap="round" stroke-linejoin="round" stroke-miterlimit="10" d="
						M119.598,197.27l-24.756,19.304c0,0,0.92,17.818,7.56,29.85c0,0,9.706-3.362,23.943-14.27l0.004,0.005
						c0.115-0.09,0.227-0.182,0.337-0.271c0.117-0.088,0.231-0.173,0.347-0.262l-0.003-0.005
						c14.047-11.147,19.551-19.906,19.551-19.906C136.526,202.342,119.598,197.27,119.598,197.27z"/>
				</g>
			</g>
			<path fill="none" stroke="#000000" stroke-width="2" stroke-linecap="round" stroke-linejoin="round" stroke-miterlimit="10" d="
				M114.799,239.656c0,0-13.822-20.829-14.41-27.407"/>
			<path fill="none" stroke="#000000" stroke-width="2" stroke-linecap="round" stroke-linejoin="round" stroke-miterlimit="10" d="
				M137.478,221.972c0,0-16.832-18.482-23.068-20.656"/>
			
				<line fill="none" stroke="#000000" stroke-width="2" stroke-linecap="round" stroke-linejoin="round" stroke-miterlimit="10" x1="107.219" y1="206.924" x2="126.686" y2="231.889"/>
		</g>
		<g clip-path="url(#SVGID_20_)">
			<g id="XMLID_122_">
				<g>
					<path fill="#4A4A4A" d="M60.988,39.052c0,0-10.088,2.288-27.9,0.213l-0.001,0.006c-0.145-0.018-0.286-0.04-0.431-0.06
						c-0.142-0.016-0.285-0.03-0.43-0.047l0-0.006C14.45,36.779,5.215,32.281,5.215,32.281C9.046,19.085,21.012,5.851,21.012,5.851
						l31.151,3.897C52.163,9.748,60.525,25.316,60.988,39.052z"/>
					<path fill="#525252" d="M54.508-8.997L52.163,9.748L21.012,5.851l2.346-18.745c8.588-3.683,5.148-18.979,5.148-18.979
						l5.807-0.464c0,0,3.668,11.76,5.793,12.026c2.127,0.266,8.576-10.229,8.576-10.229l5.511,1.88
						C54.193-28.66,47.092-14.682,54.508-8.997z"/>
				</g>
				<g>
					
						<path fill="none" stroke="#000000" stroke-width="2" stroke-linecap="round" stroke-linejoin="round" stroke-miterlimit="10" d="
						M52.163,9.748l2.345-18.745c-7.416-5.685-0.315-19.663-0.315-19.663l-5.511-1.88c0,0-6.449,10.495-8.576,10.229
						c-2.125-0.266-5.793-12.026-5.793-12.026l-5.807,0.464c0,0,3.44,15.297-5.148,18.979L21.012,5.851"/>
					
						<path fill="none" stroke="#000000" stroke-width="2" stroke-linecap="round" stroke-linejoin="round" stroke-miterlimit="10" d="
						M52.163,9.748L21.012,5.851c0,0-11.966,13.234-15.797,26.431c0,0,9.234,4.498,27.011,6.876l0,0.006
						c0.145,0.018,0.289,0.032,0.43,0.047c0.145,0.02,0.286,0.042,0.431,0.06l0.001-0.006c17.813,2.075,27.9-0.213,27.9-0.213
						C60.525,25.316,52.163,9.748,52.163,9.748z"/>
				</g>
			</g>
			<path fill="none" stroke="#000000" stroke-width="2" stroke-linecap="round" stroke-linejoin="round" stroke-miterlimit="10" d="
				M18.761,36.28c0,0,4.989-24.495,9.231-29.556"/>
			<path fill="none" stroke="#000000" stroke-width="2" stroke-linecap="round" stroke-linejoin="round" stroke-miterlimit="10" d="
				M47.298,39.852c0,0,1.202-24.969-1.664-30.92"/>
			
				<line fill="none" stroke="#000000" stroke-width="2" stroke-linecap="round" stroke-linejoin="round" stroke-miterlimit="10" x1="36.585" y1="7.8" x2="32.655" y2="39.213"/>
		</g>
		<g clip-path="url(#SVGID_20_)">
			<g id="XMLID_121_">
				<g>
					<path fill="#4A4A4A" d="M209.988,43.052c0,0-10.088,2.288-27.9,0.213l-0.001,0.006c-0.145-0.018-0.286-0.04-0.431-0.06
						c-0.142-0.016-0.285-0.03-0.43-0.047l0-0.006c-17.777-2.378-27.011-6.876-27.011-6.876
						c3.831-13.196,15.797-26.431,15.797-26.431l31.151,3.897C201.163,13.748,209.525,29.316,209.988,43.052z"/>
					<path fill="#525252" d="M203.508-4.997l-2.345,18.745l-31.151-3.897l2.346-18.745c8.588-3.683,5.148-18.979,5.148-18.979
						l5.807-0.464c0,0,3.668,11.76,5.793,12.026c2.127,0.266,8.576-10.229,8.576-10.229l5.511,1.88
						C203.193-24.66,196.092-10.682,203.508-4.997z"/>
				</g>
				<g>
					
						<path fill="none" stroke="#000000" stroke-width="2" stroke-linecap="round" stroke-linejoin="round" stroke-miterlimit="10" d="
						M201.163,13.748l2.345-18.745c-7.416-5.685-0.315-19.663-0.315-19.663l-5.511-1.88c0,0-6.449,10.495-8.576,10.229
						c-2.125-0.266-5.793-12.026-5.793-12.026l-5.807,0.464c0,0,3.44,15.297-5.148,18.979l-2.346,18.745"/>
					
						<path fill="none" stroke="#000000" stroke-width="2" stroke-linecap="round" stroke-linejoin="round" stroke-miterlimit="10" d="
						M201.163,13.748l-31.151-3.897c0,0-11.966,13.234-15.797,26.431c0,0,9.234,4.498,27.011,6.876l0,0.006
						c0.145,0.018,0.289,0.032,0.43,0.047c0.145,0.02,0.286,0.042,0.431,0.06l0.001-0.006c17.813,2.075,27.9-0.213,27.9-0.213
						C209.525,29.316,201.163,13.748,201.163,13.748z"/>
				</g>
			</g>
			<path fill="none" stroke="#000000" stroke-width="2" stroke-linecap="round" stroke-linejoin="round" stroke-miterlimit="10" d="
				M167.761,40.28c0,0,4.989-24.495,9.231-29.556"/>
			<path fill="none" stroke="#000000" stroke-width="2" stroke-linecap="round" stroke-linejoin="round" stroke-miterlimit="10" d="
				M196.298,43.852c0,0,1.202-24.969-1.664-30.92"/>
			
				<line fill="none" stroke="#000000" stroke-width="2" stroke-linecap="round" stroke-linejoin="round" stroke-miterlimit="10" x1="185.585" y1="11.8" x2="181.655" y2="43.213"/>
		</g>
		<g clip-path="url(#SVGID_20_)">
			<g id="XMLID_120_">
				<g>
					<path fill="#4A4A4A" d="M146.579-8.286c0,0-5.503,8.759-19.551,19.906l0.002,0.006c-0.114,0.089-0.229,0.173-0.345,0.261
						c-0.111,0.089-0.222,0.181-0.337,0.271l-0.004-0.005c-14.237,10.908-23.943,14.271-23.943,14.271
						c-6.639-12.031-7.56-29.85-7.56-29.85l24.756-19.305C119.598-22.73,136.526-17.658,146.579-8.286z"/>
				</g>
				<g>
					
						<path fill="none" stroke="#000000" stroke-width="2" stroke-linecap="round" stroke-linejoin="round" stroke-miterlimit="10" d="
						M119.598-22.73L94.841-3.426c0,0,0.92,17.818,7.56,29.85c0,0,9.706-3.362,23.943-14.271l0.004,0.005
						c0.115-0.09,0.227-0.182,0.337-0.271c0.117-0.088,0.231-0.172,0.345-0.261l-0.002-0.006
						c14.047-11.147,19.551-19.906,19.551-19.906C136.526-17.658,119.598-22.73,119.598-22.73z"/>
				</g>
			</g>
			<path fill="none" stroke="#000000" stroke-width="2" stroke-linecap="round" stroke-linejoin="round" stroke-miterlimit="10" d="
				M114.799,19.657c0,0-13.822-20.83-14.41-27.407"/>
			<path fill="none" stroke="#000000" stroke-width="2" stroke-linecap="round" stroke-linejoin="round" stroke-miterlimit="10" d="
				M137.478,1.972c0,0-16.832-18.481-23.068-20.655"/>
			
				<line fill="none" stroke="#000000" stroke-width="2" stroke-linecap="round" stroke-linejoin="round" stroke-miterlimit="10" x1="107.219" y1="-13.076" x2="126.686" y2="11.889"/>
		</g>
	</g>
</g>
</svg>
