<?xml version="1.0" encoding="utf-8"?>
<!-- Generator: Adobe Illustrator 16.0.0, SVG Export Plug-In . SVG Version: 6.00 Build 0)  -->
<!DOCTYPE svg PUBLIC "-//W3C//DTD SVG 1.1//EN" "http://www.w3.org/Graphics/SVG/1.1/DTD/svg11.dtd">
<svg version="1.1" xmlns="http://www.w3.org/2000/svg" xmlns:xlink="http://www.w3.org/1999/xlink" x="0px" y="0px"
	 width="453.544px" height="453.543px" viewBox="0 0 453.544 453.543" enable-background="new 0 0 453.544 453.543"
	 xml:space="preserve">
<g id="kvadrat">
</g>
<g id="color">
	<g id="rdeča7bela">
	</g>
	<g>
		
			<path fill-rule="evenodd" clip-rule="evenodd" fill="#E20613" stroke="#000000" stroke-width="8" stroke-linecap="round" stroke-linejoin="round" stroke-miterlimit="10" d="
			M101.753,224.066c0,26.933,13.732,40.16,41.295,40.16c3.904,0,7.697-0.451,11.344-1.277v79.295
			c0,13.715,11.234,15.468,24.961,15.468h88.486c13.729,0,24.959-1.752,24.959-15.468v-66.087
			c27.131-11.624,16.688-50.849,38.119-72.28c21.432-21.431,20.871-11.625,20.871-16.152c0-9.082,0-27.141,0-27.141
			s-15.85-5.202-33.803,12.752c-17.955,17.955-24.563,32.873-25.188,53.646v-80.916c0-13.724-11.23-19.787-24.959-19.787h-32.086
			c4.674-3.105,7.695-7.963,7.695-13.431c0-9.399-8.891-17.017-19.852-17.017s-19.854,7.617-19.854,17.017
			c0,5.468,3.021,10.326,7.697,13.431h-32.088c-13.727,0-24.961,6.063-24.961,19.787v39.119c-3.646-0.821-7.439-1.276-11.344-1.276
			C115.485,183.908,101.753,197.128,101.753,224.066z M155.325,224.01c0,11.141-0.408,20.173-11.543,20.173
			c-11.139,0-20.168-9.032-20.168-20.173c0-11.131,9.029-20.163,20.168-20.163C154.917,203.847,155.325,212.879,155.325,224.01z"/>
		
			<line fill="none" stroke="#000000" stroke-width="8" stroke-linecap="round" stroke-linejoin="round" stroke-miterlimit="10" x1="211.44" y1="126.279" x2="235.753" y2="126.279"/>
	</g>
</g>
<g id="cb" display="none">
	<g id="rdeča7bela_copy" display="inline">
	</g>
	<g display="inline">
		
			<path fill-rule="evenodd" clip-rule="evenodd" fill="none" stroke="#000000" stroke-width="8" stroke-linecap="round" stroke-linejoin="round" stroke-miterlimit="10" d="
			M101.753,224.066c0,26.933,13.732,40.16,41.295,40.16c3.904,0,7.697-0.451,11.344-1.277v79.295
			c0,13.715,11.234,15.468,24.961,15.468h88.486c13.729,0,24.959-1.752,24.959-15.468v-66.087
			c27.131-11.624,16.688-50.849,38.119-72.28c21.432-21.431,20.871-11.625,20.871-16.152c0-9.082,0-27.141,0-27.141
			s-15.85-5.202-33.803,12.752c-17.955,17.955-24.563,32.873-25.188,53.646v-80.916c0-13.724-11.23-19.787-24.959-19.787h-32.086
			c4.674-3.105,7.695-7.963,7.695-13.431c0-9.399-8.891-17.017-19.852-17.017s-19.854,7.617-19.854,17.017
			c0,5.468,3.021,10.326,7.697,13.431h-32.088c-13.727,0-24.961,6.063-24.961,19.787v39.119c-3.646-0.821-7.439-1.276-11.344-1.276
			C115.485,183.908,101.753,197.128,101.753,224.066z M155.325,224.01c0,11.141-0.408,20.173-11.543,20.173
			c-11.139,0-20.168-9.032-20.168-20.173c0-11.131,9.029-20.163,20.168-20.163C154.917,203.847,155.325,212.879,155.325,224.01z"/>
		
			<line fill="none" stroke="#000000" stroke-width="8" stroke-linecap="round" stroke-linejoin="round" stroke-miterlimit="10" x1="211.44" y1="126.279" x2="235.753" y2="126.279"/>
	</g>
</g>
<g id="pivot">
	<circle fill="none" cx="221.062" cy="353.056" r="14.133"/>
</g>
</svg>
