<?xml version="1.0" encoding="utf-8"?>
<!-- Generator: Adobe Illustrator 16.0.0, SVG Export Plug-In . SVG Version: 6.00 Build 0)  -->
<!DOCTYPE svg PUBLIC "-//W3C//DTD SVG 1.1//EN" "http://www.w3.org/Graphics/SVG/1.1/DTD/svg11.dtd">
<svg version="1.1" xmlns="http://www.w3.org/2000/svg" xmlns:xlink="http://www.w3.org/1999/xlink" x="0px" y="0px"
	 width="453.543px" height="453.543px" viewBox="0 0 453.543 453.543" enable-background="new 0 0 453.543 453.543"
	 xml:space="preserve">
<g id="kvadrat">
</g>
<g id="color">
	<path opacity="0.5" fill="#FFFFFF" d="M234.019,350.166V252.18c0,0,20.357-4.798,22.971-5.947
		c23.561-10.365,26.943-34.978,24.777-68.744c-1.98-30.935-13.656-82.278-13.779-82.8c-0.109-0.472-0.33-0.893-0.619-1.25
		c0.001-0.006,0.005-0.012,0.006-0.018h0.042c-0.003-0.049-0.013-0.097-0.018-0.146c0.005-0.049,0.015-0.098,0.018-0.149h-0.043
		c-1.129-5.13-24.658-9.006-40.603-9.006c-15.952,0-39.494,3.878-40.604,9.012h-0.041c0.003,0.049,0.011,0.098,0.018,0.145
		c-0.007,0.051-0.015,0.1-0.018,0.15h0.042c0.001,0.004,0.003,0.007,0.004,0.011c-0.29,0.358-0.509,0.778-0.615,1.25
		c-0.109,0.513-11.803,51.866-13.785,82.8c-2.154,33.766,1.223,58.383,24.779,68.744c2.613,1.149,18.301,4.11,20.342,4.947v98.971
		c0,0-35.707,12.368-35.707,16.099s19.996,3,45.585,3c25.59,0,44.601,1.257,44.601-3
		C271.372,361.993,234.019,350.166,234.019,350.166z"/>
	<g id="rdeča7bela">
	</g>
	<g>
		<g id="Livello_2_1_">
			<path fill="none" stroke="#000000" stroke-width="8" stroke-linecap="round" stroke-linejoin="round" stroke-miterlimit="10" d="
				M188.593,92.276c-1.451,0-2.719,0.999-3.035,2.413c-0.109,0.513-11.803,51.866-13.785,82.8
				c-2.154,33.766,1.223,58.383,24.779,68.744c2.613,1.149,18.301,4.11,20.342,4.947v98.971c0,0-35.707,12.368-35.707,16.099
				s19.996,3,45.585,3c25.59,0,44.601,1.257,44.601-3c0-4.257-37.354-16.084-37.354-16.084V252.18c0,0,20.357-4.798,22.971-5.947
				c23.561-10.365,26.943-34.978,24.777-68.744c-1.98-30.935-13.656-82.278-13.779-82.8c-0.326-1.414-1.584-2.413-3.029-2.413"/>
		</g>
		<path fill="none" stroke="#000000" stroke-width="8" stroke-linecap="round" stroke-linejoin="round" stroke-miterlimit="10" d="
			M267.399,93.275c0.005-0.049,0.015-0.098,0.018-0.149h-0.043c-1.129-5.13-24.658-9.006-40.603-9.006
			c-15.952,0-39.494,3.878-40.604,9.012h-0.041c0.003,0.049,0.011,0.098,0.018,0.145c-0.007,0.051-0.015,0.1-0.018,0.15h0.042
			c1.131,5.13,24.659,7.006,40.603,7.006c15.952,0,39.495-1.877,40.604-7.013h0.042C267.414,93.372,267.404,93.324,267.399,93.275z"
			/>
	</g>
</g>
<g id="cb" display="none">
	<path display="inline" opacity="0.5" fill="none" d="M234.019,350.166V252.18c0,0,20.357-4.798,22.971-5.947
		c23.561-10.365,26.943-34.978,24.777-68.744c-1.98-30.935-13.656-82.278-13.779-82.8c-0.109-0.472-0.33-0.893-0.619-1.25
		c0.001-0.006,0.005-0.012,0.006-0.018h0.042c-0.003-0.049-0.013-0.097-0.018-0.146c0.005-0.049,0.015-0.098,0.018-0.149h-0.043
		c-1.129-5.13-24.658-9.006-40.603-9.006c-15.952,0-39.494,3.878-40.604,9.012h-0.041c0.003,0.049,0.011,0.098,0.018,0.145
		c-0.007,0.051-0.015,0.1-0.018,0.15h0.042c0.001,0.004,0.003,0.007,0.004,0.011c-0.29,0.358-0.509,0.778-0.615,1.25
		c-0.109,0.513-11.803,51.866-13.785,82.8c-2.154,33.766,1.223,58.383,24.779,68.744c2.613,1.149,18.301,4.11,20.342,4.947v98.971
		c0,0-35.707,12.368-35.707,16.099s19.996,3,45.585,3c25.59,0,44.601,1.257,44.601-3
		C271.372,361.993,234.019,350.166,234.019,350.166z"/>
	<g id="rdeča7bela_copy" display="inline">
	</g>
	<g display="inline">
		<g id="Livello_2_4_">
			<path fill="none" stroke="#000000" stroke-width="8" stroke-linecap="round" stroke-linejoin="round" stroke-miterlimit="10" d="
				M188.593,92.276c-1.451,0-2.719,0.999-3.035,2.413c-0.109,0.513-11.803,51.866-13.785,82.8
				c-2.154,33.766,1.223,58.383,24.779,68.744c2.613,1.149,18.301,4.11,20.342,4.947v98.971c0,0-35.707,12.368-35.707,16.099
				s19.996,3,45.585,3c25.59,0,44.601,1.257,44.601-3c0-4.257-37.354-16.084-37.354-16.084V252.18c0,0,20.357-4.798,22.971-5.947
				c23.561-10.365,26.943-34.978,24.777-68.744c-1.98-30.935-13.656-82.278-13.779-82.8c-0.326-1.414-1.584-2.413-3.029-2.413"/>
		</g>
		<path fill="none" stroke="#000000" stroke-width="8" stroke-linecap="round" stroke-linejoin="round" stroke-miterlimit="10" d="
			M267.399,93.275c0.005-0.049,0.015-0.098,0.018-0.149h-0.043c-1.129-5.13-24.658-9.006-40.603-9.006
			c-15.952,0-39.494,3.878-40.604,9.012h-0.041c0.003,0.049,0.011,0.098,0.018,0.145c-0.007,0.051-0.015,0.1-0.018,0.15h0.042
			c1.131,5.13,24.659,7.006,40.603,7.006c15.952,0,39.495-1.877,40.604-7.013h0.042C267.414,93.372,267.404,93.324,267.399,93.275z"
			/>
	</g>
</g>
<g id="pivot">
	<circle fill="none" cx="224.145" cy="368.971" r="14.133"/>
</g>
</svg>
