<?xml version="1.0" encoding="utf-8"?>
<!-- Generator: Adobe Illustrator 16.0.0, SVG Export Plug-In . SVG Version: 6.00 Build 0)  -->
<!DOCTYPE svg PUBLIC "-//W3C//DTD SVG 1.1//EN" "http://www.w3.org/Graphics/SVG/1.1/DTD/svg11.dtd">
<svg version="1.1" xmlns="http://www.w3.org/2000/svg" xmlns:xlink="http://www.w3.org/1999/xlink" x="0px" y="0px"
	 width="453.543px" height="453.543px" viewBox="0 0 453.543 453.543" enable-background="new 0 0 453.543 453.543"
	 xml:space="preserve">
<g id="kvadrat" display="none">
</g>
<g id="color">
	<g id="rdeča7bela">
	</g>
	<g>
		<g>
			<path opacity="0.5" fill="#FFFFFF" d="M323.239,99.913c-3.979-13.132-41.981-27.303-96.45-27.303
				c-54.472,0-92.481,14.171-96.458,27.303c-0.208,0.748-0.325,1.462-0.325,2.184c0.023,0.234,0.026,0.487,0.023,0.737l0.156,1.608
				c0.443,0.579,0.954,1.15,1.494,1.717l-1.391,0.014l23.047,234.563l0.45,4.962c0.931,8.965,6.937,21.293,30.345,28.896
				c17.49,5.688,36.41,6.337,42.376,6.337h0.38c5.961,0,24.877-0.649,42.372-6.337c23.403-7.604,29.426-19.908,30.342-28.848
				l0.493-5.39l23.139-235.512c0.007-0.072,0.005-0.148,0.007-0.223c0.05-0.063,0.11-0.127,0.16-0.19l0.112-1.162
				c-0.013-0.183,0-0.353,0.021-0.542C323.565,101.388,323.461,100.666,323.239,99.913z"/>
			<g>
				<path fill="#E69F00" d="M205.895,185.327c6.827,0.954,13.825,1.526,20.802,1.526c7.468,0,14.958-0.654,22.236-1.733
					c-7.289,0.656-14.918,1.01-22.745,1.01C219.233,186.13,212.438,185.848,205.895,185.327z"/>
				<path fill="#E69F00" d="M311.474,168.036c-10.142,8.298-36.068,14.704-62.541,17.084c-7.277,1.079-14.768,1.733-22.236,1.733
					c-6.978,0-13.976-0.572-20.802-1.526c-28.483-2.271-56.06-9.18-65.986-18.148c-2.052-0.899-3.173-1.425-3.168-1.396
					l16.595,172.952l0.45,4.962c0.931,8.965,6.937,21.293,30.345,28.896c17.49,5.688,36.41,6.337,42.376,6.337h0.38
					c5.961,0,24.877-0.649,42.372-6.337c23.403-7.604,29.426-19.908,30.342-28.848l0.493-5.39l16.529-172.573
					C316.625,165.745,314.777,166.623,311.474,168.036z"/>
				<path fill="#E69F00" d="M226.188,186.13c7.827,0,15.456-0.354,22.745-1.01c26.473-2.38,52.399-8.786,62.541-17.084
					c1.411-1.154,2.603-2.344,3.538-3.565l0.099-1.021c-0.012-0.16,0-0.309,0.018-0.476c0.029-1.176-0.062,0.19-0.256-0.471
					c-3.493-11.531-40.859-23.972-88.684-23.972c-47.827,0-85.2,12.44-88.691,23.972c-0.183,0.657-0.286,1.283-0.286,1.917
					c0.021,0.206,0.022-1.573,0.021-1.353l0.137,1.412c0.704,0.918,1.563,1.817,2.54,2.699c9.926,8.969,37.503,15.878,65.986,18.148
					C212.438,185.848,219.233,186.13,226.188,186.13z"/>
			</g>
			
				<path fill="#E69F00" stroke="#000000" stroke-width="8" stroke-linecap="round" stroke-linejoin="round" stroke-miterlimit="10" d="
				M141.497,159.503c3.491-11.531,36.864-23.972,84.691-23.972c47.825,0,81.191,12.44,84.684,23.972
				c0.194,0.661,0.286,1.295,0.256,2.471c-0.018,0.167-0.03,0.315-0.018,0.476l-0.099,1.021
				c-9.508,12.422-44.618,21.659-84.824,21.659c-40.199,0-75.315-9.237-84.819-21.65l-0.137-1.412c0.001-0.221,0-0.441-0.021-0.647
				C141.211,160.786,141.314,160.16,141.497,159.503z"/>
			<path fill="none" stroke="#000000" stroke-width="8" stroke-linecap="round" stroke-linejoin="round" stroke-miterlimit="10" d="
				M323.239,102.141c-10.766,14.064-50.518,24.523-96.042,24.523c-45.516,0-85.276-10.459-96.037-24.514"/>
			<path fill="none" stroke="#000000" stroke-width="8" stroke-linecap="round" stroke-linejoin="round" stroke-miterlimit="10" d="
				M323.239,99.913c-3.979-13.132-41.981-27.303-96.45-27.303c-54.472,0-92.481,14.171-96.458,27.303
				c-0.208,0.748-0.325,1.462-0.325,2.184c0.023,0.234,0.026,0.487,0.023,0.737l0.259,3.339l23.047,234.563l0.45,4.962
				c0.931,8.965,6.937,21.293,30.345,28.896c17.49,5.688,36.41,6.337,42.376,6.337h0.38c5.961,0,24.877-0.649,42.372-6.337
				c23.403-7.604,29.426-19.908,30.342-28.848l0.493-5.39l23.139-235.512c0.007-0.072,0.005-0.148,0.007-0.223
				c0.05-0.063,0.11-0.127,0.16-0.19l0.112-1.162c-0.013-0.183,0-0.353,0.021-0.542C323.565,101.388,323.461,100.666,323.239,99.913
				z"/>
		</g>
	</g>
</g>
<g id="cb" display="none">
	
		<path display="inline" fill="none" stroke="#000000" stroke-width="8" stroke-linecap="round" stroke-linejoin="round" stroke-miterlimit="10" d="
		M323.239,99.913c-3.979-13.132-41.981-27.303-96.45-27.303c-54.472,0-92.481,14.171-96.458,27.303
		c-0.208,0.748-0.325,1.462-0.325,2.184c0.023,0.234,0.026,0.487,0.023,0.737l0.259,3.339l23.047,234.563l0.45,4.962
		c0.931,8.965,6.937,21.293,30.345,28.896c17.49,5.688,36.41,6.337,42.376,6.337h0.38c5.961,0,24.877-0.649,42.372-6.337
		c23.403-7.604,29.426-19.908,30.342-28.848l0.493-5.39l23.139-235.512c0.007-0.072,0.005-0.148,0.007-0.223
		c0.05-0.063,0.11-0.127,0.16-0.19l0.112-1.162c-0.013-0.183,0-0.353,0.021-0.542C323.565,101.388,323.461,100.666,323.239,99.913z"
		/>
	<g id="rdeča7bela_copy" display="inline">
	</g>
	<g display="inline">
		<g>
			<path fill="none" stroke="#000000" stroke-width="8" stroke-linecap="round" stroke-linejoin="round" stroke-miterlimit="10" d="
				M141.497,159.503c3.491-11.531,36.864-23.972,84.691-23.972c47.825,0,81.191,12.44,84.684,23.972
				c0.194,0.661,0.286,1.295,0.256,2.471c-0.018,0.167-0.03,0.315-0.018,0.476l-0.099,1.021
				c-9.508,12.422-44.618,21.659-84.824,21.659c-40.199,0-75.315-9.237-84.819-21.65l-0.137-1.412c0.001-0.221,0-0.441-0.021-0.647
				C141.211,160.786,141.314,160.16,141.497,159.503z"/>
			<path fill="none" stroke="#000000" stroke-width="8" stroke-linecap="round" stroke-linejoin="round" stroke-miterlimit="10" d="
				M323.239,102.141c-10.766,14.064-50.518,24.523-96.042,24.523c-45.516,0-85.276-10.459-96.037-24.514"/>
		</g>
	</g>
</g>
<g id="pivot" display="none">
	<circle display="inline" fill="none" cx="226.253" cy="376.697" r="14.133"/>
</g>
</svg>
