<?xml version="1.0" encoding="utf-8"?>
<!-- Generator: Adobe Illustrator 16.0.0, SVG Export Plug-In . SVG Version: 6.00 Build 0)  -->
<!DOCTYPE svg PUBLIC "-//W3C//DTD SVG 1.1//EN" "http://www.w3.org/Graphics/SVG/1.1/DTD/svg11.dtd">
<svg version="1.1" xmlns="http://www.w3.org/2000/svg" xmlns:xlink="http://www.w3.org/1999/xlink" x="0px" y="0px"
	 width="453.544px" height="453.543px" viewBox="0 0 453.544 453.543" enable-background="new 0 0 453.544 453.543"
	 xml:space="preserve">
<g id="kvadrat">
</g>
<g id="color">
	<g id="rdeča7bela">
	</g>
	<g>
		
			<path fill="#C8C8C8" stroke="#000000" stroke-width="8" stroke-linecap="round" stroke-linejoin="round" stroke-miterlimit="10" d="
			M218.544,65.997c-1.727,0.136-3.102,1.58-3.102,3.343V175.4c0,1.855,1.514,3.37,3.367,3.37h1.922v73.853
			c0,5.26-3.434,11.55-9.969,14.064c-11.271,4.728-19.563,20.059-19.73,38.325c0,0.05-0.008,0.101-0.008,0.152v76.273
			c0,3.369,2.762,6.127,6.127,6.127h59.236c3.375,0,6.131-2.758,6.131-6.127v-76.273c0-0.052-0.008-0.103-0.008-0.152
			c-0.168-18.267-8.463-33.598-19.734-38.325c-6.535-2.514-9.967-8.805-9.967-14.064v-73.853h1.92c1.855,0,3.375-1.515,3.375-3.37
			V69.34c0-1.825-1.479-3.32-3.293-3.362L218.544,65.997z"/>
		<g>
			<path d="M226.772,285.897c-2.145,0-3.885-1.734-3.885-3.88c0-2.148,1.74-3.891,3.885-3.891c2.148,0,3.883,1.742,3.883,3.891
				C230.655,284.163,228.921,285.897,226.772,285.897z"/>
			<g>
				<path d="M210.765,371.242c-2.146,0-3.889-1.74-3.889-3.886c0-2.145,1.742-3.883,3.889-3.883c2.143,0,3.885,1.738,3.885,3.883
					C214.649,369.501,212.907,371.242,210.765,371.242z"/>
				<path d="M226.772,371.242c-2.145,0-3.885-1.74-3.885-3.886c0-2.145,1.74-3.883,3.885-3.883c2.148,0,3.883,1.738,3.883,3.883
					C230.655,369.501,228.921,371.242,226.772,371.242z"/>
				<circle cx="242.78" cy="367.357" r="3.885"/>
			</g>
			<g>
				<path d="M210.765,354.274c-2.146,0-3.889-1.737-3.889-3.884c0-2.144,1.742-3.887,3.889-3.887c2.143,0,3.885,1.743,3.885,3.887
					C214.649,352.538,212.907,354.274,210.765,354.274z"/>
				<path d="M226.772,354.274c-2.145,0-3.885-1.737-3.885-3.884c0-2.144,1.74-3.887,3.885-3.887c2.148,0,3.883,1.743,3.883,3.887
					C230.655,352.538,228.921,354.274,226.772,354.274z"/>
				<circle cx="242.78" cy="350.389" r="3.885"/>
			</g>
			<g>
				<path d="M210.765,337.306c-2.146,0-3.889-1.733-3.889-3.883c0-2.141,1.742-3.886,3.889-3.886c2.143,0,3.885,1.745,3.885,3.886
					C214.649,335.572,212.907,337.306,210.765,337.306z"/>
				<path d="M226.772,337.306c-2.145,0-3.885-1.733-3.885-3.883c0-2.141,1.74-3.886,3.885-3.886c2.148,0,3.883,1.745,3.883,3.886
					C230.655,335.572,228.921,337.306,226.772,337.306z"/>
				<path d="M242.78,337.306c-2.145,0-3.887-1.733-3.887-3.883c0-2.141,1.742-3.886,3.887-3.886c2.146,0,3.887,1.745,3.887,3.886
					C246.667,335.572,244.927,337.306,242.78,337.306z"/>
			</g>
			<g>
				<path d="M210.765,320.338c-2.146,0-3.889-1.74-3.889-3.884c0-2.148,1.742-3.886,3.889-3.886c2.143,0,3.885,1.738,3.885,3.886
					C214.649,318.598,212.907,320.338,210.765,320.338z"/>
				<path d="M226.772,320.338c-2.145,0-3.885-1.74-3.885-3.884c0-2.148,1.74-3.886,3.885-3.886c2.148,0,3.883,1.738,3.883,3.886
					C230.655,318.598,228.921,320.338,226.772,320.338z"/>
				<circle cx="242.78" cy="316.453" r="3.885"/>
			</g>
			<g>
				<path d="M210.765,303.37c-2.146,0-3.889-1.742-3.889-3.891c0-2.14,1.742-3.879,3.889-3.879c2.143,0,3.885,1.739,3.885,3.879
					C214.649,301.628,212.907,303.37,210.765,303.37z"/>
				<path d="M226.772,303.37c-2.145,0-3.885-1.742-3.885-3.891c0-2.14,1.74-3.879,3.885-3.879c2.148,0,3.883,1.739,3.883,3.879
					C230.655,301.628,228.921,303.37,226.772,303.37z"/>
				<path d="M242.78,303.37c-2.145,0-3.887-1.742-3.887-3.891c0-2.14,1.742-3.879,3.887-3.879c2.146,0,3.887,1.739,3.887,3.879
					C246.667,301.628,244.927,303.37,242.78,303.37z"/>
			</g>
		</g>
	</g>
</g>
<g id="cb" display="none">
	<g id="rdeča7bela_copy" display="inline">
	</g>
	<g display="inline">
		<path fill="none" stroke="#000000" stroke-width="8" stroke-linecap="round" stroke-linejoin="round" stroke-miterlimit="10" d="
			M218.544,65.997c-1.727,0.136-3.102,1.58-3.102,3.343V175.4c0,1.855,1.514,3.37,3.367,3.37h1.922v73.853
			c0,5.26-3.434,11.55-9.969,14.064c-11.271,4.728-19.563,20.059-19.73,38.325c0,0.05-0.008,0.101-0.008,0.152v76.273
			c0,3.369,2.762,6.127,6.127,6.127h59.236c3.375,0,6.131-2.758,6.131-6.127v-76.273c0-0.052-0.008-0.103-0.008-0.152
			c-0.168-18.267-8.463-33.598-19.734-38.325c-6.535-2.514-9.967-8.805-9.967-14.064v-73.853h1.92c1.855,0,3.375-1.515,3.375-3.37
			V69.34c0-1.825-1.479-3.32-3.293-3.362L218.544,65.997z"/>
		<g>
			<path d="M226.772,285.897c-2.145,0-3.885-1.734-3.885-3.88c0-2.148,1.74-3.891,3.885-3.891c2.148,0,3.883,1.742,3.883,3.891
				C230.655,284.163,228.921,285.897,226.772,285.897z"/>
			<g>
				<path d="M210.765,371.242c-2.146,0-3.889-1.74-3.889-3.886c0-2.145,1.742-3.883,3.889-3.883c2.143,0,3.885,1.738,3.885,3.883
					C214.649,369.501,212.907,371.242,210.765,371.242z"/>
				<path d="M226.772,371.242c-2.145,0-3.885-1.74-3.885-3.886c0-2.145,1.74-3.883,3.885-3.883c2.148,0,3.883,1.738,3.883,3.883
					C230.655,369.501,228.921,371.242,226.772,371.242z"/>
				<circle cx="242.78" cy="367.357" r="3.885"/>
			</g>
			<g>
				<path d="M210.765,354.274c-2.146,0-3.889-1.737-3.889-3.884c0-2.144,1.742-3.887,3.889-3.887c2.143,0,3.885,1.743,3.885,3.887
					C214.649,352.538,212.907,354.274,210.765,354.274z"/>
				<path d="M226.772,354.274c-2.145,0-3.885-1.737-3.885-3.884c0-2.144,1.74-3.887,3.885-3.887c2.148,0,3.883,1.743,3.883,3.887
					C230.655,352.538,228.921,354.274,226.772,354.274z"/>
				<circle cx="242.78" cy="350.389" r="3.885"/>
			</g>
			<g>
				<path d="M210.765,337.306c-2.146,0-3.889-1.733-3.889-3.883c0-2.141,1.742-3.886,3.889-3.886c2.143,0,3.885,1.745,3.885,3.886
					C214.649,335.572,212.907,337.306,210.765,337.306z"/>
				<path d="M226.772,337.306c-2.145,0-3.885-1.733-3.885-3.883c0-2.141,1.74-3.886,3.885-3.886c2.148,0,3.883,1.745,3.883,3.886
					C230.655,335.572,228.921,337.306,226.772,337.306z"/>
				<path d="M242.78,337.306c-2.145,0-3.887-1.733-3.887-3.883c0-2.141,1.742-3.886,3.887-3.886c2.146,0,3.887,1.745,3.887,3.886
					C246.667,335.572,244.927,337.306,242.78,337.306z"/>
			</g>
			<g>
				<path d="M210.765,320.338c-2.146,0-3.889-1.74-3.889-3.884c0-2.148,1.742-3.886,3.889-3.886c2.143,0,3.885,1.738,3.885,3.886
					C214.649,318.598,212.907,320.338,210.765,320.338z"/>
				<path d="M226.772,320.338c-2.145,0-3.885-1.74-3.885-3.884c0-2.148,1.74-3.886,3.885-3.886c2.148,0,3.883,1.738,3.883,3.886
					C230.655,318.598,228.921,320.338,226.772,320.338z"/>
				<circle cx="242.78" cy="316.453" r="3.885"/>
			</g>
			<g>
				<path d="M210.765,303.37c-2.146,0-3.889-1.742-3.889-3.891c0-2.14,1.742-3.879,3.889-3.879c2.143,0,3.885,1.739,3.885,3.879
					C214.649,301.628,212.907,303.37,210.765,303.37z"/>
				<path d="M226.772,303.37c-2.145,0-3.885-1.742-3.885-3.891c0-2.14,1.74-3.879,3.885-3.879c2.148,0,3.883,1.739,3.883,3.879
					C230.655,301.628,228.921,303.37,226.772,303.37z"/>
				<path d="M242.78,303.37c-2.145,0-3.887-1.742-3.887-3.891c0-2.14,1.742-3.879,3.887-3.879c2.146,0,3.887,1.739,3.887,3.879
					C246.667,301.628,244.927,303.37,242.78,303.37z"/>
			</g>
		</g>
	</g>
</g>
<g id="pivot">
	<circle fill="none" cx="224.501" cy="65.15" r="14.133"/>
</g>
</svg>
