<?xml version="1.0" encoding="utf-8"?>
<!-- Generator: Adobe Illustrator 16.0.0, SVG Export Plug-In . SVG Version: 6.00 Build 0)  -->
<!DOCTYPE svg PUBLIC "-//W3C//DTD SVG 1.1//EN" "http://www.w3.org/Graphics/SVG/1.1/DTD/svg11.dtd">
<svg version="1.1" xmlns="http://www.w3.org/2000/svg" xmlns:xlink="http://www.w3.org/1999/xlink" x="0px" y="0px"
	 width="453.544px" height="453.543px" viewBox="0 0 453.544 453.543" enable-background="new 0 0 453.544 453.543"
	 xml:space="preserve">
<g id="kvadrat">
</g>
<g id="color">
	<g id="rdeča7bela">
	</g>
	
		<path fill="#575756" stroke="#000000" stroke-width="8" stroke-linecap="round" stroke-linejoin="round" stroke-miterlimit="10" d="
		M236.923,166.376c0.844-0.789,4.383-1.905,4.383-3.146V70.29c0-2.343-1.891-4.258-4.223-4.313l-20.857,0.025
		c-2.221,0.178-3.984,2.028-3.984,4.287v92.94c0,1.24,3.537,2.356,4.381,3.146l-10.752,75.852v124.44
		c0,11.542,9.357,20.897,20.902,20.897s20.9-9.355,20.9-20.897v-124.44L236.923,166.376z"/>
</g>
<g id="cb" display="none">
	<g id="rdeča7bela_copy" display="inline">
	</g>
	
		<path display="inline" fill="none" stroke="#000000" stroke-width="8" stroke-linecap="round" stroke-linejoin="round" stroke-miterlimit="10" d="
		M236.923,166.376c0.844-0.789,4.383-1.905,4.383-3.146V70.29c0-2.343-1.891-4.258-4.223-4.313l-20.857,0.025
		c-2.221,0.178-3.984,2.028-3.984,4.287v92.94c0,1.24,3.537,2.356,4.381,3.146l-10.752,75.852v124.44
		c0,11.542,9.357,20.897,20.902,20.897s20.9-9.355,20.9-20.897v-124.44L236.923,166.376z"/>
</g>
<g id="pivot">
	<circle fill="none" cx="227.864" cy="65.15" r="14.133"/>
</g>
</svg>
