<?xml version="1.0" encoding="utf-8"?>
<!-- Generator: Adobe Illustrator 16.0.0, SVG Export Plug-In . SVG Version: 6.00 Build 0)  -->
<!DOCTYPE svg PUBLIC "-//W3C//DTD SVG 1.1//EN" "http://www.w3.org/Graphics/SVG/1.1/DTD/svg11.dtd">
<svg version="1.1" id="Layer_1" xmlns="http://www.w3.org/2000/svg" xmlns:xlink="http://www.w3.org/1999/xlink" x="0px" y="0px"
	 width="453.543px" height="453.543px" viewBox="0 0 453.543 453.543" enable-background="new 0 0 453.543 453.543"
	 xml:space="preserve">
<g id="kvadrat">
</g>
<g id="color">
	<g id="rdeča7bela">
	</g>
	<g>
		<path fill="none" stroke="#1D1D1B" stroke-width="8" stroke-miterlimit="10" d="M226.772,131.865
			c-10.76,0-19.482,8.727-19.482,19.483c0,10.759,8.723,19.485,19.482,19.485c10.762,0,19.484-8.728,19.484-19.485
			C246.256,140.591,237.534,131.865,226.772,131.865z M226.772,164.152c-7.07,0-12.801-5.733-12.801-12.804
			s5.73-12.806,12.801-12.806c7.07,0,12.805,5.734,12.805,12.806C239.577,158.417,233.842,164.152,226.772,164.152z"/>
		<path fill="#B1B1B1" stroke="#1D1D1B" stroke-width="8" stroke-miterlimit="10" d="M370.116,297.222
			c-2.529-77.013-65.713-138.68-143.342-138.68S85.962,220.209,83.431,297.222H370.116z"/>
		
			<rect x="69.45" y="297.222" fill="#575756" stroke="#1D1D1B" stroke-width="8" stroke-linejoin="round" stroke-miterlimit="10" width="314.642" height="24.456"/>
	</g>
</g>
<g id="cb" display="none">
	<g id="rdeča7bela_copy" display="inline">
	</g>
	<g display="inline">
		
			<rect x="69.45" y="297.222" fill="none" stroke="#1C1C1C" stroke-width="8" stroke-miterlimit="10" width="314.642" height="24.456"/>
		<path fill="none" stroke="#1C1C1C" stroke-width="8" stroke-miterlimit="10" d="M370.116,297.222
			c-2.529-77.013-65.713-138.68-143.342-138.68S85.962,220.209,83.431,297.222H370.116z"/>
		<path fill="none" stroke="#1C1C1C" stroke-width="8" stroke-miterlimit="10" d="M237.086,158.913
			c2.453,0.174,4.892,0.407,7.31,0.704c1.183-2.514,1.86-5.31,1.86-8.27c0-10.757-8.723-19.483-19.483-19.483
			c-10.76,0-19.482,8.727-19.482,19.483c0,2.96,0.68,5.756,1.861,8.271c2.419-0.297,4.856-0.53,7.311-0.705"/>
	</g>
</g>
<g id="pivot">
	<circle fill="none" cx="232.206" cy="315.91" r="14.133"/>
</g>
</svg>
