<?xml version="1.0" encoding="utf-8"?>
<!-- Generator: Adobe Illustrator 16.0.0, SVG Export Plug-In . SVG Version: 6.00 Build 0)  -->
<!DOCTYPE svg PUBLIC "-//W3C//DTD SVG 1.1//EN" "http://www.w3.org/Graphics/SVG/1.1/DTD/svg11.dtd">
<svg version="1.1" xmlns="http://www.w3.org/2000/svg" xmlns:xlink="http://www.w3.org/1999/xlink" x="0px" y="0px"
	 width="453.543px" height="453.543px" viewBox="0 0 453.543 453.543" enable-background="new 0 0 453.543 453.543"
	 xml:space="preserve">
<g id="kvadrat">
</g>
<g id="color">
	<g id="rdeča7bela">
	</g>
	<g>
		
			<path fill="#7E4E24" stroke="#000000" stroke-width="8" stroke-linecap="round" stroke-linejoin="round" stroke-miterlimit="10" d="
			M383.694,155.72h-48.646c-1.65,0-3.13,1.012-3.728,2.551l-9.2,23.669c-0.597,1.534-0.193,3.276,1.017,4.392
			c0.755,0.695,1.728,1.058,2.712,1.058c0.594,0,1.191-0.132,1.748-0.403l27.55-13.397h28.547c2.209,0,4-1.791,4-4v-9.869
			C387.694,157.51,385.903,155.72,383.694,155.72z"/>
		
			<path fill="#7E4E24" stroke="#000000" stroke-width="8" stroke-linecap="round" stroke-linejoin="round" stroke-miterlimit="10" d="
			M69.849,155.72h48.645c1.65,0,3.131,1.012,3.729,2.551l9.2,23.669c0.597,1.534,0.192,3.276-1.018,4.392
			c-0.755,0.695-1.728,1.058-2.711,1.058c-0.594,0-1.192-0.132-1.748-0.403l-27.55-13.397H69.849c-2.209,0-4-1.791-4-4v-9.869
			C65.849,157.51,67.64,155.72,69.849,155.72z"/>
		
			<path fill="#EED2A3" stroke="#000000" stroke-width="8" stroke-linecap="round" stroke-linejoin="round" stroke-miterlimit="10" d="
			M118.808,162.095l8.771,121.09c0,0,0.873,32.934,96.914,32.934s96.917-32.934,96.917-32.934l14.176-121.09
			c0,13.625-43.004,24.669-108.389,24.669C161.813,186.764,118.808,175.72,118.808,162.095z"/>
		
			<path fill="#FFFFFF" stroke="#000000" stroke-width="8" stroke-linecap="round" stroke-linejoin="round" stroke-miterlimit="10" d="
			M335.585,162.094c0,13.625-43.004,24.669-108.389,24.669c-65.383,0-108.389-11.045-108.389-24.669
			c0-13.624,43.006-24.669,108.389-24.669C292.581,137.425,335.585,148.471,335.585,162.094z"/>
	</g>
</g>
<g id="cb" display="none">
	<g id="rdeča7bela_copy" display="inline">
	</g>
	<g display="inline">
		
			<line fill="none" stroke="#000000" stroke-width="8" stroke-linecap="round" stroke-linejoin="round" stroke-miterlimit="10" x1="325.639" y1="172.889" x2="325.639" y2="172.889"/>
		<path fill="none" stroke="#000000" stroke-width="8" stroke-linecap="round" stroke-linejoin="round" stroke-miterlimit="10" d="
			M332.978,184.37l22.17-10.781h28.547c2.209,0,4-1.791,4-4v-9.869c0-2.209-1.791-4-4-4h-48.646c-0.774,0-1.506,0.229-2.131,0.625"
			/>
		
			<line fill="none" stroke="#000000" stroke-width="8" stroke-linecap="round" stroke-linejoin="round" stroke-miterlimit="10" x1="127.688" y1="172.333" x2="127.688" y2="172.334"/>
		<path fill="none" stroke="#000000" stroke-width="8" stroke-linecap="round" stroke-linejoin="round" stroke-miterlimit="10" d="
			M121.131,156.721c-0.715-0.629-1.644-1.001-2.638-1.001H69.849c-2.209,0-4,1.791-4,4v9.869c0,2.209,1.791,4,4,4h28.547
			l22.021,10.708"/>
		<path fill="none" stroke="#000000" stroke-width="8" stroke-linecap="round" stroke-linejoin="round" stroke-miterlimit="10" d="
			M233.26,186.731c1.999-0.021,3.976-0.053,5.929-0.095"/>
		<path fill="none" stroke="#000000" stroke-width="8" stroke-linecap="round" stroke-linejoin="round" stroke-miterlimit="10" d="
			M325.639,172.889c-14.168,7.139-42.707,12.348-80.66,13.59"/>
		<path fill="none" stroke="#000000" stroke-width="8" stroke-linecap="round" stroke-linejoin="round" stroke-miterlimit="10" d="
			M215.205,186.636c1.953,0.042,3.93,0.074,5.929,0.095"/>
		<path fill="none" stroke="#000000" stroke-width="8" stroke-linecap="round" stroke-linejoin="round" stroke-miterlimit="10" d="
			M127.688,172.334c13.77,7.423,42.796,12.872,81.726,14.146"/>
		
			<line fill="none" stroke="#000000" stroke-width="8" stroke-linecap="round" stroke-linejoin="round" stroke-miterlimit="10" x1="332.978" y1="184.37" x2="335.416" y2="163.542"/>
		
			<line fill="none" stroke="#000000" stroke-width="8" stroke-linecap="round" stroke-linejoin="round" stroke-miterlimit="10" x1="335.416" y1="163.54" x2="335.585" y2="162.096"/>
		<path fill="none" stroke="#000000" stroke-width="8" stroke-linecap="round" stroke-linejoin="round" stroke-miterlimit="10" d="
			M335.416,163.542c0.108-0.479,0.169-0.961,0.169-1.447v0.001"/>
		
			<line fill="none" stroke="#000000" stroke-width="8" stroke-linecap="round" stroke-linejoin="round" stroke-miterlimit="10" x1="118.868" y1="162.925" x2="118.868" y2="162.924"/>
		<path fill="none" stroke="#000000" stroke-width="8" stroke-linecap="round" stroke-linejoin="round" stroke-miterlimit="10" d="
			M127.688,172.334c-5.345-2.882-8.388-6.061-8.821-9.409"/>
		
			<line fill="none" stroke="#000000" stroke-width="8" stroke-linecap="round" stroke-linejoin="round" stroke-miterlimit="10" x1="118.868" y1="162.924" x2="118.808" y2="162.096"/>
		<path fill="none" stroke="#000000" stroke-width="8" stroke-linecap="round" stroke-linejoin="round" stroke-miterlimit="10" d="
			M325.639,172.889c5.659-2.851,9.022-6.01,9.777-9.348"/>
		
			<line fill="none" stroke="#000000" stroke-width="8" stroke-linecap="round" stroke-linejoin="round" stroke-miterlimit="10" x1="118.868" y1="162.925" x2="120.416" y2="184.297"/>
		<path fill="none" stroke="#000000" stroke-width="8" stroke-linecap="round" stroke-linejoin="round" stroke-miterlimit="10" d="
			M118.808,162.096L118.808,162.096c0,0.276,0.024,0.553,0.06,0.829"/>
		<path fill="none" stroke="#000000" stroke-width="8" stroke-linecap="round" stroke-linejoin="round" stroke-miterlimit="10" d="
			M332.978,184.37l-11.568,98.815c0,0-0.876,32.934-96.917,32.934s-96.914-32.934-96.914-32.934l-7.163-98.888"/>
		
			<line fill="none" stroke="#000000" stroke-width="8" stroke-linecap="round" stroke-linejoin="round" stroke-miterlimit="10" x1="335.416" y1="163.54" x2="335.416" y2="163.542"/>
		<path fill="none" stroke="#000000" stroke-width="8" stroke-linecap="round" stroke-linejoin="round" stroke-miterlimit="10" d="
			M127.688,172.333c-5.346-2.882-8.389-6.061-8.821-9.409"/>
		<path fill="none" stroke="#000000" stroke-width="8" stroke-linecap="round" stroke-linejoin="round" stroke-miterlimit="10" d="
			M121.131,156.721c-1.528,1.729-2.324,3.528-2.324,5.374v0.001"/>
		<path fill="none" stroke="#000000" stroke-width="8" stroke-linecap="round" stroke-linejoin="round" stroke-miterlimit="10" d="
			M118.808,162.096c0,0.277,0.024,0.553,0.06,0.828"/>
		<path fill="none" stroke="#000000" stroke-width="8" stroke-linecap="round" stroke-linejoin="round" stroke-miterlimit="10" d="
			M335.585,162.096C335.585,162.095,335.585,162.095,335.585,162.096c0-1.981-0.915-3.906-2.668-5.751"/>
		<path fill="none" stroke="#000000" stroke-width="8" stroke-linecap="round" stroke-linejoin="round" stroke-miterlimit="10" d="
			M335.416,163.54c0.108-0.478,0.169-0.959,0.169-1.444"/>
		<path fill="none" stroke="#000000" stroke-width="8" stroke-linecap="round" stroke-linejoin="round" stroke-miterlimit="10" d="
			M121.131,156.721c9.747-11.04,49.541-19.296,106.065-19.296c55.881,0,95.41,8.069,105.721,18.919"/>
		<path fill="none" stroke="#000000" stroke-width="8" stroke-linecap="round" stroke-linejoin="round" stroke-miterlimit="10" d="
			M127.688,172.333c13.77,7.423,42.796,12.872,81.726,14.146"/>
		<path fill="none" stroke="#000000" stroke-width="8" stroke-linecap="round" stroke-linejoin="round" stroke-miterlimit="10" d="
			M221.133,186.731c-1.999-0.021-3.976-0.053-5.929-0.095"/>
		<path fill="none" stroke="#000000" stroke-width="8" stroke-linecap="round" stroke-linejoin="round" stroke-miterlimit="10" d="
			M325.639,172.889c-14.168,7.139-42.707,12.349-80.66,13.591"/>
		<path fill="none" stroke="#000000" stroke-width="8" stroke-linecap="round" stroke-linejoin="round" stroke-miterlimit="10" d="
			M239.189,186.636c-1.953,0.042-3.93,0.074-5.929,0.095"/>
		<path fill="none" stroke="#000000" stroke-width="8" stroke-linecap="round" stroke-linejoin="round" stroke-miterlimit="10" d="
			M325.639,172.889c5.659-2.852,9.022-6.011,9.777-9.349"/>
		<path fill="none" stroke="#000000" stroke-width="8" stroke-linecap="round" stroke-linejoin="round" stroke-miterlimit="10" d="
			M244.979,186.479c-1.906,0.063-3.836,0.115-5.79,0.157"/>
		<path fill="none" stroke="#000000" stroke-width="8" stroke-linecap="round" stroke-linejoin="round" stroke-miterlimit="10" d="
			M215.205,186.636c-1.953-0.042-3.883-0.094-5.79-0.157"/>
		<path fill="none" stroke="#000000" stroke-width="8" stroke-linecap="round" stroke-linejoin="round" stroke-miterlimit="10" d="
			M233.26,186.731c-1.999,0.021-4.021,0.032-6.063,0.032c-2.043,0-4.064-0.011-6.063-0.032"/>
	</g>
</g>
<g id="pivot">
	<circle fill="none" cx="224.221" cy="315.91" r="14.133"/>
</g>
</svg>
