<?xml version="1.0" encoding="utf-8"?>
<!-- Generator: Adobe Illustrator 16.0.0, SVG Export Plug-In . SVG Version: 6.00 Build 0)  -->
<!DOCTYPE svg PUBLIC "-//W3C//DTD SVG 1.1//EN" "http://www.w3.org/Graphics/SVG/1.1/DTD/svg11.dtd">
<svg version="1.1" xmlns="http://www.w3.org/2000/svg" xmlns:xlink="http://www.w3.org/1999/xlink" x="0px" y="0px"
	 width="453.543px" height="453.543px" viewBox="0 0 453.543 453.543" enable-background="new 0 0 453.543 453.543"
	 xml:space="preserve">
<g id="kvadrat">
</g>
<g id="color">
	<g id="rdeča7bela">
	</g>
	<g>
		<g>
			<g>
				
					<path fill="#7E4E24" stroke="#000000" stroke-width="8" stroke-linecap="round" stroke-linejoin="round" stroke-miterlimit="10" d="
					M387.271,149.748h-38.454c-3.322,0-6.187,2.336-6.856,5.59l-4.14,20.123c-0.472,2.293,0.234,4.669,1.88,6.333
					c1.328,1.343,3.125,2.077,4.977,2.077c0.444,0,0.892-0.042,1.335-0.128l42.594-8.28c3.289-0.64,5.664-3.521,5.664-6.872v-11.843
					C394.271,152.883,391.137,149.748,387.271,149.748z"/>
				
					<path fill="#7E4E24" stroke="#000000" stroke-width="8" stroke-linecap="round" stroke-linejoin="round" stroke-miterlimit="10" d="
					M113.041,155.797c-0.476-3.465-3.437-6.049-6.936-6.049H66.272c-3.866,0-7,3.135-7,7v11.843c0,3.352,2.375,6.232,5.664,6.872
					l42.593,8.28c0.444,0.086,0.891,0.128,1.336,0.128c1.772,0,3.498-0.673,4.81-1.914c1.641-1.551,2.432-3.799,2.125-6.036
					L113.041,155.797z"/>
			</g>
			
				<path fill="#FFFFFF" stroke="#000000" stroke-width="8" stroke-linecap="round" stroke-linejoin="round" stroke-miterlimit="10" d="
				M344.326,149.748c0-13.447-52.324-34.35-116.868-34.35c-64.542,0-116.866,20.902-116.866,34.35l8.657,150.367
				c0,21.005,47.254,38.03,105.539,38.03c58.29,0,105.543-17.025,105.543-38.03l13.917-149.54
				C344.295,150.301,344.326,150.025,344.326,149.748z"/>
		</g>
		<path fill="none" stroke="#000000" stroke-width="8" stroke-linecap="round" stroke-linejoin="round" stroke-miterlimit="10" d="
			M111.168,146.529c-0.045,0.272-0.076,0.546-0.076,0.82c0,13.332,51.877,34.056,115.868,34.056
			c63.988,0,115.865-20.724,115.865-34.056"/>
	</g>
</g>
<g id="cb" display="none">
	<g id="rdeča7bela_copy" display="inline">
	</g>
	<g display="inline">
		<g>
			<path fill="none" stroke="#000000" stroke-width="8" stroke-linecap="round" stroke-linejoin="round" stroke-miterlimit="10" d="
				M341.235,182.959c1.048,0.592,2.232,0.912,3.442,0.912c0.444,0,0.892-0.042,1.335-0.128l42.594-8.28
				c3.289-0.64,5.664-3.521,5.664-6.872v-11.843c0-3.865-3.134-7-7-7h-38.454c-1.777,0-3.41,0.684-4.659,1.803"/>
			<path fill="none" stroke="#000000" stroke-width="8" stroke-linecap="round" stroke-linejoin="round" stroke-miterlimit="10" d="
				M110.691,151.461c-1.235-1.071-2.844-1.713-4.586-1.713H66.272c-3.866,0-7,3.135-7,7v11.843c0,3.352,2.375,6.232,5.664,6.872
				l42.593,8.28c0.444,0.086,0.891,0.128,1.336,0.128c1.283,0,2.539-0.357,3.633-1.022"/>
			<path fill="none" stroke="#000000" stroke-width="8" stroke-linecap="round" stroke-linejoin="round" stroke-miterlimit="10" d="
				M341.235,182.959l-10.903,117.156c0,21.005-47.253,38.03-105.543,38.03c-58.285,0-105.539-17.025-105.539-38.03l-6.751-117.267"
				/>
			
				<line fill="none" stroke="#000000" stroke-width="8" stroke-linecap="round" stroke-linejoin="round" stroke-miterlimit="10" x1="341.235" y1="182.959" x2="344.158" y2="151.551"/>
			
				<line fill="none" stroke="#000000" stroke-width="8" stroke-linecap="round" stroke-linejoin="round" stroke-miterlimit="10" x1="110.691" y1="151.461" x2="112.499" y2="182.849"/>
			<path fill="none" stroke="#000000" stroke-width="8" stroke-linecap="round" stroke-linejoin="round" stroke-miterlimit="10" d="
				M110.691,151.461l-0.099-1.713c0-13.447,52.324-34.35,116.866-34.35c64.543,0,116.868,20.902,116.868,34.35
				c0,0.277-0.031,0.553-0.077,0.827l-0.091,0.976"/>
		</g>
		<path fill="none" stroke="#000000" stroke-width="8" stroke-linecap="round" stroke-linejoin="round" stroke-miterlimit="10" d="
			M111.168,146.529c-0.045,0.272-0.076,0.546-0.076,0.82c0,13.332,51.877,34.056,115.868,34.056
			c63.988,0,115.865-20.724,115.865-34.056"/>
	</g>
</g>
<g id="pivot">
	<circle fill="none" cx="231.924" cy="337.143" r="14.133"/>
</g>
</svg>
