<?xml version="1.0" encoding="utf-8"?>
<!-- Generator: Adobe Illustrator 16.0.0, SVG Export Plug-In . SVG Version: 6.00 Build 0)  -->
<!DOCTYPE svg PUBLIC "-//W3C//DTD SVG 1.1//EN" "http://www.w3.org/Graphics/SVG/1.1/DTD/svg11.dtd">
<svg version="1.1" xmlns="http://www.w3.org/2000/svg" xmlns:xlink="http://www.w3.org/1999/xlink" x="0px" y="0px"
	 width="453.543px" height="453.543px" viewBox="0 0 453.543 453.543" enable-background="new 0 0 453.543 453.543"
	 xml:space="preserve">
<g id="kvadrat">
</g>
<g id="color">
	<g id="rdeča7bela">
	</g>
	<g>
		<g>
			
				<path fill="#7E4E24" stroke="#000000" stroke-width="8" stroke-linecap="round" stroke-linejoin="round" stroke-miterlimit="10" d="
				M387.271,149.748h-38.454c-3.322,0-6.187,2.335-6.856,5.59l-4.14,20.123c-0.472,2.293,0.234,4.669,1.88,6.333
				c1.328,1.343,3.125,2.077,4.977,2.077c0.444,0,0.892-0.042,1.335-0.128l42.594-8.28c3.289-0.64,5.664-3.521,5.664-6.872v-11.843
				C394.271,152.882,391.137,149.748,387.271,149.748z"/>
			
				<path fill="#7E4E24" stroke="#000000" stroke-width="8" stroke-linecap="round" stroke-linejoin="round" stroke-miterlimit="10" d="
				M113.041,155.797c-0.476-3.466-3.437-6.049-6.936-6.049H66.272c-3.866,0-7,3.134-7,7v11.843c0,3.351,2.375,6.232,5.663,6.872
				l42.594,8.28c0.444,0.086,0.891,0.128,1.336,0.128c1.772,0,3.498-0.673,4.81-1.915c1.641-1.55,2.432-3.798,2.125-6.035
				L113.041,155.797z"/>
		</g>
		<g>
			
				<path fill="#CB78A6" stroke="#000000" stroke-width="8" stroke-linecap="round" stroke-linejoin="round" stroke-miterlimit="10" d="
				M110.861,154.41l8.389,145.706c0,21.005,47.255,38.03,105.539,38.03c58.29,0,105.542-17.025,105.542-38.03l13.529-145.359
				c-15.039,12.942-61.415,27.488-116.3,27.488C172.185,182.244,125.47,167.438,110.861,154.41z"/>
			
				<path fill="#FFFFFF" stroke="#000000" stroke-width="8" stroke-linecap="round" stroke-linejoin="round" stroke-miterlimit="10" d="
				M344.326,149.748c0-13.448-52.324-34.35-116.868-34.35c-64.542,0-116.866,20.902-116.866,34.35l0.269,4.662
				c14.609,13.029,61.324,27.834,116.699,27.834c54.885,0,101.261-14.546,116.3-27.488l0.389-4.181
				C344.295,150.3,344.326,150.025,344.326,149.748z"/>
		</g>
	</g>
</g>
<g id="cb" display="none">
	<g id="rdeča7bela_copy" display="inline">
	</g>
	<g display="inline">
		<g>
			<path d="M387.271,149.748h-38.454c-3.322,0-6.187,2.335-6.856,5.59l-4.14,20.123c-0.472,2.293,0.234,4.669,1.88,6.333
				c1.328,1.343,3.125,2.077,4.977,2.077c0.444,0,0.892-0.042,1.335-0.128l42.594-8.28c3.289-0.64,5.664-3.521,5.664-6.872v-11.843
				C394.271,152.882,391.137,149.748,387.271,149.748z"/>
			<path d="M113.041,155.797c-0.476-3.466-3.437-6.049-6.936-6.049H66.272c-3.866,0-7,3.134-7,7v11.843
				c0,3.351,2.375,6.232,5.663,6.872l42.594,8.28c0.444,0.086,0.891,0.128,1.336,0.128c1.772,0,3.498-0.673,4.81-1.915
				c1.641-1.55,2.432-3.798,2.125-6.035L113.041,155.797z"/>
		</g>
		<g>
			<path fill="none" stroke="#000000" stroke-width="8" stroke-linecap="round" stroke-linejoin="round" stroke-miterlimit="10" d="
				M110.861,154.41l8.389,145.706c0,21.005,47.255,38.03,105.539,38.03c58.29,0,105.542-17.025,105.542-38.03l13.529-145.359
				c-15.039,12.942-61.415,27.488-116.3,27.488C172.185,182.244,125.47,167.438,110.861,154.41z"/>
			<path fill="none" stroke="#000000" stroke-width="8" stroke-linecap="round" stroke-linejoin="round" stroke-miterlimit="10" d="
				M344.326,149.748c0-13.448-52.324-34.35-116.868-34.35c-64.542,0-116.866,20.902-116.866,34.35l0.269,4.662
				c14.609,13.029,61.324,27.834,116.699,27.834c54.885,0,101.261-14.546,116.3-27.488l0.389-4.181
				C344.295,150.3,344.326,150.025,344.326,149.748z"/>
		</g>
	</g>
</g>
<g id="pivot">
	<circle fill="none" cx="233.841" cy="339.059" r="14.133"/>
</g>
</svg>
