<?xml version="1.0" encoding="utf-8"?>
<!-- Generator: Adobe Illustrator 16.0.0, SVG Export Plug-In . SVG Version: 6.00 Build 0)  -->
<!DOCTYPE svg PUBLIC "-//W3C//DTD SVG 1.1//EN" "http://www.w3.org/Graphics/SVG/1.1/DTD/svg11.dtd">
<svg version="1.1" xmlns="http://www.w3.org/2000/svg" xmlns:xlink="http://www.w3.org/1999/xlink" x="0px" y="0px"
	 width="453.543px" height="453.544px" viewBox="0 0 453.543 453.544" enable-background="new 0 0 453.543 453.544"
	 xml:space="preserve">
<g id="kvadrat">
</g>
<g id="color">
	<g id="rdeča7bela">
	</g>
	<g>
		<path fill="#8BC53F" stroke="#000000" stroke-width="8" stroke-miterlimit="10" d="M283.993,294.395
			c41.95-21.004,70.754-64.384,70.754-114.493H98.795c0,50.109,28.804,93.489,70.755,114.493H283.993z"/>
		<path fill="#7FB439" stroke="#000000" stroke-width="8" stroke-miterlimit="10" d="M355.73,159.149
			c5.938,0,10.752,4.815,10.752,10.752c0,5.939-4.814,10.752-10.752,10.752H97.813c-5.939,0-10.752-4.813-10.752-10.752
			c0-5.937,4.813-10.752,10.752-10.752H355.73z"/>
	</g>
</g>
<g id="cb" display="none">
	<g id="rdeča7bela_copy" display="inline">
	</g>
	<g display="inline">
		<path fill="none" stroke="#000000" stroke-width="8" stroke-miterlimit="10" d="M283.993,294.395
			c41.95-21.004,70.754-64.384,70.754-114.493H98.795c0,50.109,28.804,93.489,70.755,114.493H283.993z"/>
		<path fill="none" stroke="#000000" stroke-width="8" stroke-miterlimit="10" d="M355.73,159.149
			c5.938,0,10.752,4.815,10.752,10.752c0,5.939-4.814,10.752-10.752,10.752H97.813c-5.939,0-10.752-4.813-10.752-10.752
			c0-5.937,4.813-10.752,10.752-10.752H355.73z"/>
	</g>
</g>
<g id="pivot">
	<circle fill="none" cx="231.239" cy="294.717" r="14.133"/>
</g>
</svg>
