<?xml version="1.0" encoding="utf-8"?>
<!-- Generator: Adobe Illustrator 16.0.0, SVG Export Plug-In . SVG Version: 6.00 Build 0)  -->
<!DOCTYPE svg PUBLIC "-//W3C//DTD SVG 1.1//EN" "http://www.w3.org/Graphics/SVG/1.1/DTD/svg11.dtd">
<svg version="1.1" id="Layer_1" xmlns="http://www.w3.org/2000/svg" xmlns:xlink="http://www.w3.org/1999/xlink" x="0px" y="0px"
	 width="453.543px" height="453.543px" viewBox="0 0 453.543 453.543" enable-background="new 0 0 453.543 453.543"
	 xml:space="preserve">
<g id="kvadrat">
</g>
<g id="color">
	<g id="rdeča7bela">
	</g>
	<g>
		<g>
			<g>
				
					<path fill="#FFFFFF" stroke="#010101" stroke-width="8" stroke-linecap="round" stroke-linejoin="round" stroke-miterlimit="10" d="
					M327.924,188.781c-7.076-6.419-16.892-9.955-27.642-9.955c-3.298,0-6.431,0.399-9.858,1.257l-6.052,1.513l0.042-6.236
					c0.02-2.85,0.031-5.824,0.031-8.935c0-9.532-9.305-17.647-26.903-23.465c-15.634-5.166-36.336-6.013-58.289-6.013
					c-21.946,0-42.648,0.847-58.293,6.013c-17.6,5.815-26.902,13.931-26.902,23.465c0,34.749,1.189,62.313,6.996,83.893
					c5.532,20.526,15.221,36.249,32.396,52.574c10.264,9.761,26.1,14.921,45.797,14.921c19.698,0,35.536-5.16,45.802-14.923
					c13.104-12.452,21.952-25.15,28.688-41.169l0.072-0.163c1.108-2.398,3.412-3.364,5.051-3.88
					c3.352-1.056,7.688-1.191,11.092-1.191c1.471,0,2.984,0.032,4.473,0.063l0.867,0.017c1.551,0.04,3.342,0.083,4.993,0.083
					c10.562,0,20.521-4.498,28.048-12.667c7.088-7.682,11.152-17.967,11.152-28.217C339.486,205.119,335.38,195.538,327.924,188.781
					z M299.8,233.454c-0.437,0.046-0.932,0.067-1.503,0.067h-0.094c-1.534,0-3.4-0.122-5.377-0.251
					c-2.336-0.151-4.982-0.325-7.573-0.325c-1.75,0-3.353,0.08-4.823,0.246c1.008-7.477,2.305-17.168,2.727-22.197
					c3.509-5.7,9.693-8.947,17.129-8.947c10.006,0,15.98,5.128,15.98,13.717C316.266,224.755,309.033,232.524,299.8,233.454z"/>
			</g>
		</g>
		
			<ellipse fill="#FFFFFF" stroke="#000000" stroke-width="8" stroke-linecap="round" stroke-linejoin="round" stroke-miterlimit="10" cx="199.244" cy="159.378" rx="85.035" ry="23.647"/>
		<g>
			
				<path fill="#F8B133" stroke="#000000" stroke-width="8" stroke-linecap="round" stroke-linejoin="round" stroke-miterlimit="10" d="
				M254.781,174.444c-10.368-5.831-30.359-10.546-55.838-10.546c-25.796,0-45.977,4.832-56.233,10.763
				c11.638,6.152,32.596,8.273,55.83,8.273C222.047,182.935,243.229,180.719,254.781,174.444z"/>
		</g>
	</g>
</g>
<g id="cb" display="none">
	<g id="rdeča7bela_copy" display="inline">
	</g>
	<g display="inline">
		<g>
			
				<polygon fill="none" stroke="#000000" stroke-width="8" stroke-linecap="round" stroke-linejoin="round" stroke-miterlimit="10" points="
				146.837,258.686 146.837,226.987 162.665,215.488 178.492,226.987 178.492,258.686 			"/>
			<path fill="none" stroke="#000000" stroke-width="8" stroke-linecap="round" stroke-linejoin="round" stroke-miterlimit="10" d="
				M162.798,215.488v-25.314c0,0-1.224-12.215,10.874-12.215"/>
		</g>
		<g>
			<path fill="none" stroke="#000000" stroke-width="8" stroke-linecap="round" stroke-linejoin="round" stroke-miterlimit="10" d="
				M280.43,233.192c1.471-0.166,3.073-0.246,4.823-0.246c2.591,0,5.237,0.174,7.573,0.325c1.977,0.129,3.843,0.251,5.377,0.251
				h0.094c0.571,0,1.066-0.021,1.503-0.067c9.232-0.931,16.466-8.699,16.466-17.69c0-8.589-5.975-13.717-15.98-13.717
				c-7.436,0-13.62,3.247-17.129,8.947C282.734,216.024,281.438,225.716,280.43,233.192z"/>
			<path fill="none" stroke="#000000" stroke-width="8" stroke-linecap="round" stroke-linejoin="round" stroke-miterlimit="10" d="
				M114.766,162.054c-0.453,1.421-0.708,2.876-0.708,4.37c0,34.749,1.19,62.313,6.996,83.893
				c5.532,20.526,15.221,36.249,32.396,52.574c10.264,9.761,26.1,14.921,45.798,14.921c19.697,0,35.535-5.16,45.801-14.923
				c13.104-12.452,21.952-25.15,28.688-41.169l0.072-0.163c1.108-2.398,3.412-3.364,5.051-3.88
				c3.352-1.056,7.688-1.191,11.092-1.191c1.471,0,2.984,0.032,4.473,0.063l0.867,0.017c1.551,0.04,3.342,0.083,4.993,0.083
				c10.562,0,20.521-4.498,28.048-12.667c7.088-7.682,11.152-17.967,11.152-28.217c0-10.645-4.104-20.226-11.562-26.982
				c-7.075-6.419-16.892-9.955-27.642-9.955c-3.297,0-6.43,0.399-9.858,1.257l-6.051,1.513l0.042-6.236
				c0.02-2.85,0.029-5.824,0.029-8.935c0-1.501-0.256-2.962-0.715-4.39"/>
			<path fill="none" stroke="#000000" stroke-width="8" stroke-linecap="round" stroke-linejoin="round" stroke-miterlimit="10" d="
				M251.328,178.063c-14.391,3.108-32.452,4.962-52.083,4.962c-20.98,0-40.168-2.116-54.993-5.62"/>
			<path fill="none" stroke="#000000" stroke-width="8" stroke-linecap="round" stroke-linejoin="round" stroke-miterlimit="10" d="
				M283.73,162.034c-2.617,6.508-14.739,12.214-32.402,16.028"/>
			<path fill="none" stroke="#000000" stroke-width="8" stroke-linecap="round" stroke-linejoin="round" stroke-miterlimit="10" d="
				M144.251,177.405c-16.061-3.794-26.999-9.216-29.485-15.352"/>
			<path fill="none" stroke="#000000" stroke-width="8" stroke-linecap="round" stroke-linejoin="round" stroke-miterlimit="10" d="
				M283.73,162.034c0.352-0.872,0.549-1.759,0.549-2.656c0-13.061-38.073-23.646-85.034-23.646
				c-46.964,0-85.035,10.586-85.035,23.646c0,0.905,0.201,1.797,0.557,2.676"/>
			<path fill="none" stroke="#000000" stroke-width="8" stroke-linecap="round" stroke-linejoin="round" stroke-miterlimit="10" d="
				M251.328,178.063c1.22-0.509,2.391-1.042,3.453-1.619c-10.368-5.831-30.359-10.546-55.838-10.546
				c-25.796,0-45.977,4.832-56.233,10.763c0.49,0.259,1.02,0.5,1.542,0.744"/>
		</g>
	</g>
</g>
<g id="pivot">
	<circle fill="none" cx="200.998" cy="320.25" r="14.133"/>
</g>
<g>
	
		<polygon fill="#FFCF00" stroke="#000000" stroke-width="8" stroke-linecap="round" stroke-linejoin="round" stroke-miterlimit="10" points="
		146.837,258.686 146.837,226.987 162.665,215.488 178.492,226.987 178.492,258.686 	"/>
	<path fill="none" stroke="#000000" stroke-width="8" stroke-linecap="round" stroke-linejoin="round" stroke-miterlimit="10" d="
		M162.798,215.488v-25.314c0,0-1.224-12.215,10.874-12.215"/>
</g>
</svg>
