<?xml version="1.0" encoding="utf-8"?>
<!-- Generator: Adobe Illustrator 16.0.0, SVG Export Plug-In . SVG Version: 6.00 Build 0)  -->
<!DOCTYPE svg PUBLIC "-//W3C//DTD SVG 1.1//EN" "http://www.w3.org/Graphics/SVG/1.1/DTD/svg11.dtd">
<svg version="1.1" xmlns="http://www.w3.org/2000/svg" xmlns:xlink="http://www.w3.org/1999/xlink" x="0px" y="0px"
	 width="453.543px" height="453.544px" viewBox="0 0 453.543 453.544" enable-background="new 0 0 453.543 453.544"
	 xml:space="preserve">
<g id="kvadrat">
</g>
<g id="color">
	<g id="rdeča7bela">
	</g>
	<g>
		<path fill="#FFE080" stroke="#000000" stroke-width="8" stroke-miterlimit="10" d="M361.547,226.766
			c0,39.869-17.301,72.192-57.17,72.192c-36.486,0-54.482-19.198-77.609-19.198c-23.128,0-42.286,19.198-77.604,19.198
			c-39.869,0-57.167-32.323-57.167-72.192c0-39.861,17.298-72.18,57.167-72.18c35.318,0,54.477,19.194,77.604,19.194
			c23.127,0,41.123-19.194,77.609-19.194C344.247,154.586,361.547,186.905,361.547,226.766z"/>
		<path fill="#FFCB4E" stroke="#000000" stroke-width="8" stroke-miterlimit="10" d="M163.967,246.812
			c-7.121,0-12.895,5.776-12.895,12.9c0,7.125,5.773,12.893,12.895,12.893s12.896-5.769,12.896-12.893
			C176.864,252.588,171.088,246.812,163.967,246.812z M146.463,174.447c-8.195,0-14.845,6.645-14.845,14.846
			c0,8.201,6.649,14.842,14.845,14.842c8.197,0,14.841-6.642,14.841-14.842C161.304,181.091,154.661,174.447,146.463,174.447z
			 M229.155,214.361c-6.643,0-12.031,5.383-12.031,12.033c0,6.646,5.389,12.024,12.031,12.024s12.027-5.378,12.027-12.024
			C241.182,219.744,235.797,214.361,229.155,214.361z M293.103,178.96c-7.599,0-13.761,6.152-13.761,13.761
			c0,7.601,6.162,13.76,13.761,13.76c7.6,0,13.761-6.159,13.761-13.76C306.864,185.113,300.703,178.96,293.103,178.96z
			 M306.658,248.677c-6.762,0-12.245,5.474-12.245,12.239c0,6.771,5.483,12.25,12.245,12.25c6.762,0,12.247-5.479,12.247-12.25
			C318.905,254.151,313.42,248.677,306.658,248.677z"/>
	</g>
</g>
<g id="cb" display="none">
	<g id="rdeča7bela_copy" display="inline">
	</g>
	<g display="inline">
		<path fill="none" stroke="#000000" stroke-width="8" stroke-miterlimit="10" d="M361.547,226.766
			c0,39.869-17.301,72.192-57.17,72.192c-36.486,0-54.482-19.198-77.609-19.198c-23.128,0-42.286,19.198-77.604,19.198
			c-39.869,0-57.167-32.323-57.167-72.192c0-39.861,17.298-72.18,57.167-72.18c35.318,0,54.477,19.194,77.604,19.194
			c23.127,0,41.123-19.194,77.609-19.194C344.247,154.586,361.547,186.905,361.547,226.766z"/>
		<path fill="none" stroke="#000000" stroke-width="8" stroke-miterlimit="10" d="M163.967,246.812
			c-7.121,0-12.895,5.776-12.895,12.9c0,7.125,5.773,12.893,12.895,12.893s12.896-5.769,12.896-12.893
			C176.864,252.588,171.088,246.812,163.967,246.812z M146.463,174.447c-8.195,0-14.845,6.645-14.845,14.846
			c0,8.201,6.649,14.842,14.845,14.842c8.197,0,14.841-6.642,14.841-14.842C161.304,181.091,154.661,174.447,146.463,174.447z
			 M229.155,214.361c-6.643,0-12.031,5.383-12.031,12.033c0,6.646,5.389,12.024,12.031,12.024s12.027-5.378,12.027-12.024
			C241.182,219.744,235.797,214.361,229.155,214.361z M293.103,178.96c-7.599,0-13.761,6.152-13.761,13.761
			c0,7.601,6.162,13.76,13.761,13.76c7.6,0,13.761-6.159,13.761-13.76C306.864,185.113,300.703,178.96,293.103,178.96z
			 M306.658,248.677c-6.762,0-12.245,5.474-12.245,12.239c0,6.771,5.483,12.25,12.245,12.25c6.762,0,12.247-5.479,12.247-12.25
			C318.905,254.151,313.42,248.677,306.658,248.677z"/>
	</g>
</g>
<g id="pivot">
	<circle fill="none" cx="224.647" cy="288.93" r="14.133"/>
</g>
</svg>
