<?xml version="1.0" encoding="utf-8"?>
<!-- Generator: Adobe Illustrator 16.0.0, SVG Export Plug-In . SVG Version: 6.00 Build 0)  -->
<!DOCTYPE svg PUBLIC "-//W3C//DTD SVG 1.1//EN" "http://www.w3.org/Graphics/SVG/1.1/DTD/svg11.dtd">
<svg version="1.1" xmlns="http://www.w3.org/2000/svg" xmlns:xlink="http://www.w3.org/1999/xlink" x="0px" y="0px"
	 width="453.543px" height="453.543px" viewBox="0 0 453.543 453.543" enable-background="new 0 0 453.543 453.543"
	 xml:space="preserve">
<g id="kvadrat">
</g>
<g id="color">
	<g id="rdeča7bela">
	</g>
	<g>
		
			<path fill="#39A935" stroke="#000000" stroke-width="8" stroke-linecap="round" stroke-linejoin="round" stroke-miterlimit="10" d="
			M245.26,153.314c0,0,0.324,13.556,8.715,22.591c8.393,9.033,17.102,21.785,17.268,45.664
			c0.162,23.881,0.324,173.316,0.324,173.316v1.293c-0.006,8.789-20.061,15.914-44.799,15.914s-44.791-7.125-44.791-15.904v-1.291
			c0,0,0.162-149.434,0.318-173.318c0.164-23.883,8.877-36.631,17.268-45.666c8.389-9.033,8.717-22.588,8.717-22.588l-0.01-80.827
			c-0.006-3.624,8.275-6.564,18.494-6.564c10.213,0,18.492,2.94,18.492,6.564L245.26,153.314z"/>
		<g>
			<path d="M213.183,69.676c-2.635,0.895-4.504,2.146-4.708,3.828h-0.019c0.001,0.039,0.004,0.078,0.008,0.117
				c-0.004,0.04-0.007,0.08-0.008,0.121h0.019c0.254,2.05,2.985,3.459,6.559,4.363L213.183,69.676z"/>
			<path d="M245.518,73.498h-0.02c-0.207-1.676-2.069-2.924-4.693-3.816l-1.336,8.435l0.024-0.156
				c3.303-0.907,5.77-2.277,6.005-4.225h0.02c-0.002-0.039-0.006-0.077-0.009-0.116C245.512,73.579,245.516,73.538,245.518,73.498z"
				/>
		</g>
		
			<path fill="#7E4E24" stroke="#000000" stroke-width="8" stroke-linecap="round" stroke-linejoin="round" stroke-miterlimit="10" d="
			M210.989,41.45l4.045,36.655l0.002,0.011h0.042c3.676,0.924,8.233,1.313,11.909,1.313s8.233-0.39,11.91-1.313h0.572l1.336-8.435
			l2.472-28.231H210.989z"/>
	</g>
</g>
<g id="cb" display="none">
	<g id="rdeča7bela_copy" display="inline">
	</g>
	<g display="inline">
		<g>
			<path fill="none" d="M213.183,69.676c-2.635,0.895-4.504,2.146-4.708,3.828h-0.019c0.001,0.039,0.004,0.078,0.008,0.117
				c-0.004,0.04-0.007,0.08-0.008,0.121h0.019c0.254,2.05,2.985,3.459,6.559,4.363L213.183,69.676z"/>
			<path fill="none" d="M245.518,73.498h-0.02c-0.207-1.676-2.069-2.924-4.693-3.816l-1.336,8.435l0.024-0.156
				c3.303-0.907,5.77-2.277,6.005-4.225h0.02c-0.002-0.039-0.006-0.077-0.009-0.116C245.512,73.579,245.516,73.538,245.518,73.498z"
				/>
		</g>
		<g>
			<path fill="none" stroke="#000000" stroke-width="8" stroke-linecap="round" stroke-linejoin="round" stroke-miterlimit="10" d="
				M213.895,67.788c-3.467,1.193-5.628,2.861-5.625,4.71l0.01,80.827c0,0-0.328,13.555-8.717,22.588
				c-8.391,9.035-17.104,21.783-17.268,45.666c-0.156,23.885-0.318,173.318-0.318,173.318v1.291
				c0,8.779,20.053,15.904,44.791,15.904s44.793-7.125,44.799-15.914v-1.293c0,0-0.162-149.436-0.324-173.316
				c-0.166-23.879-8.875-36.631-17.268-45.664c-8.391-9.035-8.715-22.591-8.715-22.591l-0.004-80.816
				c0-1.605-1.63-3.075-4.329-4.216"/>
			<path fill="none" stroke="#000000" stroke-width="8" stroke-linecap="round" stroke-linejoin="round" stroke-miterlimit="10" d="
				M240.928,68.282l-0.123,1.4l-1.336,8.435h-0.572c-3.677,0.924-8.234,1.313-11.91,1.313s-8.233-0.39-11.909-1.313h-0.042
				l-0.002-0.011l-1.139-10.317"/>
			
				<polyline fill="none" stroke="#000000" stroke-width="8" stroke-linecap="round" stroke-linejoin="round" stroke-miterlimit="10" points="
				240.928,68.282 243.277,41.45 210.989,41.45 213.895,67.788 			"/>
		</g>
	</g>
</g>
<g id="pivot">
	<circle fill="none" cx="220.275" cy="408.033" r="14.133"/>
</g>
</svg>
