<?xml version="1.0" encoding="utf-8"?>
<!-- Generator: Adobe Illustrator 16.0.0, SVG Export Plug-In . SVG Version: 6.00 Build 0)  -->
<!DOCTYPE svg PUBLIC "-//W3C//DTD SVG 1.1//EN" "http://www.w3.org/Graphics/SVG/1.1/DTD/svg11.dtd">
<svg version="1.1" xmlns="http://www.w3.org/2000/svg" xmlns:xlink="http://www.w3.org/1999/xlink" x="0px" y="0px"
	 width="453.543px" height="453.543px" viewBox="0 0 453.543 453.543" enable-background="new 0 0 453.543 453.543"
	 xml:space="preserve">
<g id="kvadrat">
</g>
<g id="color">
	<g id="rdeča7bela">
	</g>
	<g>
		
			<path fill="#424242" stroke="#000000" stroke-width="8" stroke-linecap="round" stroke-linejoin="round" stroke-miterlimit="10" d="
			M250.699,168.9c0,0,0.419,17.542,11.277,29.239c10.866,11.689,22.132,28.192,22.35,59.097
			c0.205,30.905,0.419,109.851,0.419,109.851v1.67c-0.005,11.38-25.967,20.602-57.977,20.602c-32.018,0-57.971-9.222-57.971-20.589
			v-1.666c0,0,0.211-78.94,0.413-109.852c0.209-30.912,11.491-47.407,22.349-59.105c10.853-11.687,11.279-29.23,11.279-29.23
			l-0.012-64.547c-0.005-4.688,10.708-8.496,23.936-8.496c13.218,0,23.931,3.808,23.931,8.496L250.699,168.9z"/>
		<g>
			<path d="M209.185,100.712c-3.407,1.163-5.828,2.778-6.09,4.958h-0.028c0,0.051,0.005,0.1,0.011,0.15
				c-0.006,0.051-0.011,0.106-0.011,0.157h0.028c0.324,2.653,3.862,4.476,8.484,5.644L209.185,100.712z"/>
			<path d="M251.034,105.664h-0.027c-0.269-2.169-2.677-3.784-6.075-4.941l-1.728,10.916l0.035-0.201
				c4.269-1.174,7.466-2.948,7.768-5.467h0.027c-0.004-0.049-0.01-0.1-0.01-0.15C251.023,105.765,251.029,105.714,251.034,105.664z"
				/>
		</g>
		
			<path fill="#925F36" stroke="#000000" stroke-width="8" stroke-linecap="round" stroke-linejoin="round" stroke-miterlimit="10" d="
			M206.347,64.186l5.231,47.436l0.005,0.018h0.05c4.762,1.195,10.658,1.699,15.414,1.699c4.762,0,10.658-0.504,15.414-1.699h0.743
			l1.728-10.916l3.203-36.537H206.347z"/>
	</g>
</g>
<g id="cb" display="none">
	<g id="rdeča7bela_copy" display="inline">
	</g>
	<g display="inline">
		<g>
			<path fill="none" d="M209.185,100.712c-3.407,1.163-5.828,2.778-6.09,4.958h-0.028c0,0.051,0.005,0.1,0.011,0.15
				c-0.006,0.051-0.011,0.106-0.011,0.157h0.028c0.324,2.653,3.862,4.476,8.484,5.644L209.185,100.712z"/>
			<path fill="none" d="M251.034,105.664h-0.027c-0.269-2.169-2.677-3.784-6.075-4.941l-1.728,10.916l0.035-0.201
				c4.269-1.174,7.466-2.948,7.768-5.467h0.027c-0.004-0.049-0.01-0.1-0.01-0.15C251.023,105.765,251.029,105.714,251.034,105.664z"
				/>
		</g>
		<g>
			<path fill="none" stroke="#000000" stroke-width="8" stroke-linecap="round" stroke-linejoin="round" stroke-miterlimit="10" d="
				M210.106,98.27c-4.489,1.545-7.282,3.707-7.279,6.099l0.012,64.547c0,0-0.426,17.544-11.279,29.23
				c-10.858,11.698-22.14,28.193-22.349,59.105c-0.202,30.911-0.413,109.852-0.413,109.852v1.666
				c0,11.367,25.953,20.589,57.971,20.589c32.01,0,57.972-9.222,57.977-20.602v-1.67c0,0-0.214-78.945-0.419-109.851
				c-0.218-30.904-11.484-47.407-22.35-59.097c-10.858-11.697-11.277-29.239-11.277-29.239l-0.006-64.531
				c0-2.078-2.108-3.982-5.603-5.459"/>
			<path fill="none" stroke="#000000" stroke-width="8" stroke-linecap="round" stroke-linejoin="round" stroke-miterlimit="10" d="
				M245.09,98.91l-0.159,1.813l-1.728,10.916h-0.743c-4.755,1.195-10.652,1.699-15.414,1.699c-4.756,0-10.652-0.504-15.414-1.699
				h-0.05l-0.005-0.018l-1.473-13.351"/>
			
				<polyline fill="none" stroke="#000000" stroke-width="8" stroke-linecap="round" stroke-linejoin="round" stroke-miterlimit="10" points="
				245.09,98.91 248.134,64.186 206.347,64.186 210.106,98.27 			"/>
		</g>
	</g>
</g>
<g id="pivot">
	<circle fill="none" cx="223.638" cy="386.332" r="14.133"/>
</g>
</svg>
