<?xml version="1.0" encoding="utf-8"?>
<!-- Generator: Adobe Illustrator 16.0.0, SVG Export Plug-In . SVG Version: 6.00 Build 0)  -->
<!DOCTYPE svg PUBLIC "-//W3C//DTD SVG 1.1//EN" "http://www.w3.org/Graphics/SVG/1.1/DTD/svg11.dtd">
<svg version="1.1" xmlns="http://www.w3.org/2000/svg" xmlns:xlink="http://www.w3.org/1999/xlink" x="0px" y="0px"
	 width="453.543px" height="453.543px" viewBox="0 0 453.543 453.543" enable-background="new 0 0 453.543 453.543"
	 xml:space="preserve">
<g id="kvadrat">
</g>
<g id="color">
	<g>
		
			<path fill="#EED2A3" stroke="#000000" stroke-width="8" stroke-linecap="round" stroke-linejoin="round" stroke-miterlimit="10" d="
			M378.048,153.595c-9.092,3.31-17.096,7.514-23.299,11.877c-4.498,3.168-10.021,6.05-16.203,8.302
			c-0.984,0.357-9.947-0.131-9.947-0.131l-6.504-17.872c-0.553-1.516-2.225-2.295-3.729-1.749L109.839,229.92
			c-1.514,0.552-2.287,2.229-1.736,3.736l6.504,17.874c0,0-6.549,6.135-7.537,6.493c-6.184,2.25-12.26,3.589-17.756,4.061
			c-7.545,0.639-16.373,2.562-25.475,5.873c-8.84,3.217-13.398,12.987-10.182,21.824c3.213,8.829,12.986,13.386,21.826,10.169
			c9.1-3.312,17.1-7.515,23.303-11.876c4.504-3.17,10.02-6.049,16.207-8.302c0.982-0.357,9.951,0.134,9.951,0.134l6.504,17.866
			c0.551,1.518,2.217,2.297,3.734,1.745l208.521-75.896c1.51-0.549,2.283-2.219,1.732-3.732l-6.502-17.868
			c0,0,6.547-6.138,7.535-6.499c6.176-2.248,12.26-3.587,17.75-4.058c7.555-0.646,16.387-2.57,25.48-5.879
			c8.842-3.22,13.4-12.991,10.188-21.821C396.669,154.928,386.892,150.376,378.048,153.595z"/>
	</g>
	<g id="rdeča7bela">
	</g>
</g>
<g id="cb" display="none">
	<g display="inline">
		<path fill="none" stroke="#000000" stroke-width="8" stroke-linecap="round" stroke-linejoin="round" stroke-miterlimit="10" d="
			M378.048,153.595c-9.092,3.31-17.096,7.514-23.299,11.877c-4.498,3.168-10.021,6.05-16.203,8.302
			c-0.984,0.357-9.947-0.131-9.947-0.131l-6.504-17.872c-0.553-1.516-2.225-2.295-3.729-1.749L109.839,229.92
			c-1.514,0.552-2.287,2.229-1.736,3.736l6.504,17.874c0,0-6.549,6.135-7.537,6.493c-6.184,2.25-12.26,3.589-17.756,4.061
			c-7.545,0.639-16.373,2.562-25.475,5.873c-8.84,3.217-13.398,12.987-10.182,21.824c3.213,8.829,12.986,13.386,21.826,10.169
			c9.1-3.312,17.1-7.515,23.303-11.876c4.504-3.17,10.02-6.049,16.207-8.302c0.982-0.357,9.951,0.134,9.951,0.134l6.504,17.866
			c0.551,1.518,2.217,2.297,3.734,1.745l208.521-75.896c1.51-0.549,2.283-2.219,1.732-3.732l-6.502-17.868
			c0,0,6.547-6.138,7.535-6.499c6.176-2.248,12.26-3.587,17.75-4.058c7.555-0.646,16.387-2.57,25.48-5.879
			c8.842-3.22,13.4-12.991,10.188-21.821C396.669,154.928,386.892,150.376,378.048,153.595z"/>
	</g>
	<g id="rdeča7bela_copy" display="inline">
	</g>
</g>
<g id="pivot">
	<circle fill="none" cx="224.539" cy="300.974" r="14.133"/>
</g>
</svg>
