<?xml version="1.0" encoding="utf-8"?>
<!-- Generator: Adobe Illustrator 16.0.0, SVG Export Plug-In . SVG Version: 6.00 Build 0)  -->
<!DOCTYPE svg PUBLIC "-//W3C//DTD SVG 1.1//EN" "http://www.w3.org/Graphics/SVG/1.1/DTD/svg11.dtd">
<svg version="1.1" xmlns="http://www.w3.org/2000/svg" xmlns:xlink="http://www.w3.org/1999/xlink" x="0px" y="0px"
	 width="453.543px" height="453.543px" viewBox="0 0 453.543 453.543" enable-background="new 0 0 453.543 453.543"
	 xml:space="preserve">
<g id="kvadrat">
</g>
<g id="color">
	<g id="rdeča7bela">
	</g>
	<g>
		
			<path fill="#C8C8C8" stroke="#000000" stroke-width="8" stroke-linecap="round" stroke-linejoin="round" stroke-miterlimit="10" d="
			M247.791,68.268c-5.362-5.411-12.806-8.755-21.021-8.755c-8.221,0-15.655,3.349-21.026,8.755
			c-14.557,14.731-23.552,34.97-23.552,57.313c0,13.236,2.063,26.353,8.75,36.78c3.264,5.091,5.807,7.896,9.226,11.956
			c9.556,11.347,15.656,27.712,14.482,46.356l-8.368,152.861c0,11.33,9.177,20.498,20.489,20.498l0,0
			c11.315,0,20.492-9.168,20.492-20.498l-8.367-152.857c-1.179-18.648,4.917-35.014,14.485-46.356
			c3.415-4.06,5.958-6.869,9.218-11.957c6.691-10.425,8.754-23.543,8.754-36.783C271.352,103.238,262.353,82.999,247.791,68.268z"/>
		<path fill="none" stroke="#000000" stroke-width="6" stroke-linecap="round" stroke-linejoin="round" stroke-miterlimit="10" d="
			M236.917,80.961c0,0,21.784,20.454,12.048,60.364"/>
	</g>
</g>
<g id="cb" display="none">
	<g id="rdeča7bela_copy" display="inline">
	</g>
	<g display="inline">
		<path fill="none" stroke="#000000" stroke-width="8" stroke-linecap="round" stroke-linejoin="round" stroke-miterlimit="10" d="
			M247.791,68.268c-5.362-5.411-12.806-8.755-21.021-8.755c-8.221,0-15.655,3.349-21.026,8.755
			c-14.557,14.731-23.552,34.97-23.552,57.313c0,13.236,2.063,26.353,8.75,36.78c3.264,5.091,5.807,7.896,9.226,11.956
			c9.556,11.347,15.656,27.712,14.482,46.356l-8.368,152.861c0,11.33,9.177,20.498,20.489,20.498l0,0
			c11.315,0,20.492-9.168,20.492-20.498l-8.367-152.857c-1.179-18.648,4.917-35.014,14.485-46.356
			c3.415-4.06,5.958-6.869,9.218-11.957c6.691-10.425,8.754-23.543,8.754-36.783C271.352,103.238,262.353,82.999,247.791,68.268z"/>
		<path fill="none" stroke="#000000" stroke-width="6" stroke-linecap="round" stroke-linejoin="round" stroke-miterlimit="10" d="
			M236.917,80.961c0,0,21.784,20.454,12.048,60.364"/>
	</g>
</g>
<g id="pivot">
	<circle fill="none" cx="224.108" cy="387.778" r="14.133"/>
</g>
</svg>
