<?xml version="1.0" encoding="utf-8"?>
<!-- Generator: Adobe Illustrator 16.0.0, SVG Export Plug-In . SVG Version: 6.00 Build 0)  -->
<!DOCTYPE svg PUBLIC "-//W3C//DTD SVG 1.1//EN" "http://www.w3.org/Graphics/SVG/1.1/DTD/svg11.dtd">
<svg version="1.1" xmlns="http://www.w3.org/2000/svg" xmlns:xlink="http://www.w3.org/1999/xlink" x="0px" y="0px"
	 width="453.543px" height="453.543px" viewBox="0 0 453.543 453.543" enable-background="new 0 0 453.543 453.543"
	 xml:space="preserve">
<g id="kvadrat">
</g>
<g id="color">
	<g id="rdeča7bela">
	</g>
	<g>
		<g>
			<path fill="#C8C8C8" d="M240.062,267.415V158.094c6.485-5.359,10.747-21.104,10.747-66.947c0-13.564-10.993-24.563-24.558-24.563
				c-13.568,0-24.563,10.999-24.563,24.563c0,47.193,4.52,62.476,11.332,67.379v109.005c-18.61,5.184-32.113,21.153-32.113,45.277
				c0,29.751,20.533,74.15,45.864,74.15c25.33,0,45.863-44.399,45.863-74.15C272.635,288.483,258.907,272.457,240.062,267.415z"/>
		</g>
		<g>
			<path fill="none" stroke="#000000" stroke-width="8" stroke-linecap="round" stroke-linejoin="round" stroke-miterlimit="10" d="
				M240.062,267.415V158.094c6.485-5.359,10.747-21.104,10.747-66.947c0-13.564-10.993-24.563-24.558-24.563
				c-13.568,0-24.563,10.999-24.563,24.563c0,47.193,4.52,62.476,11.332,67.379v109.005c-18.61,5.184-32.113,21.153-32.113,45.277
				c0,29.751,20.533,74.15,45.864,74.15c25.33,0,45.863-44.399,45.863-74.15C272.635,288.483,258.907,272.457,240.062,267.415z"/>
		</g>
	</g>
</g>
<g id="cb" display="none">
	<g id="rdeča7bela_copy" display="inline">
	</g>
	<g display="inline">
		<g>
			<path fill="none" stroke="#000000" stroke-width="8" stroke-linecap="round" stroke-linejoin="round" stroke-miterlimit="10" d="
				M240.062,267.415V158.094c6.485-5.359,10.747-21.104,10.747-66.947c0-13.564-10.993-24.563-24.558-24.563
				c-13.568,0-24.563,10.999-24.563,24.563c0,47.193,4.52,62.476,11.332,67.379v109.005c-18.61,5.184-32.113,21.153-32.113,45.277
				c0,29.751,20.533,74.15,45.864,74.15c25.33,0,45.863-44.399,45.863-74.15C272.635,288.483,258.907,272.457,240.062,267.415z"/>
		</g>
	</g>
</g>
<g id="pivot">
	<circle fill="none" cx="225.516" cy="58.388" r="14.133"/>
</g>
</svg>
