<?xml version="1.0" encoding="utf-8"?>
<!-- Generator: Adobe Illustrator 16.0.0, SVG Export Plug-In . SVG Version: 6.00 Build 0)  -->
<!DOCTYPE svg PUBLIC "-//W3C//DTD SVG 1.1//EN" "http://www.w3.org/Graphics/SVG/1.1/DTD/svg11.dtd">
<svg version="1.1" xmlns="http://www.w3.org/2000/svg" xmlns:xlink="http://www.w3.org/1999/xlink" x="0px" y="0px" width="220px"
	 height="220px" viewBox="0 0 220 220" enable-background="new 0 0 220 220" xml:space="preserve">
<g id="bg">
</g>
<g id="Layer_1">
	<g>
		
			<path fill="none" stroke="#010202" stroke-width="2.4" stroke-linecap="round" stroke-linejoin="round" stroke-miterlimit="10" d="
			M0.658,154.43c0,0-16.289,19.767,0.805,55.021c17.094,35.254,8.59,57.526,4.684,62.188"/>
		
			<path fill="#1F71B8" stroke="#010202" stroke-width="2.4" stroke-linecap="round" stroke-linejoin="round" stroke-miterlimit="10" d="
			M-5.789,172.819c51.399-24.298,39.25-76.165,4.205-80.838c0,0-5.597-0.362-4.275-0.362c1.32,0-4.136,0.362-4.136,0.362
			C-45.04,96.654-57.189,148.521-5.789,172.819"/>
		
			<polygon fill="#1F71B8" stroke="#010202" stroke-width="2.4" stroke-linecap="round" stroke-linejoin="round" stroke-miterlimit="10" points="
			-7.98,171.139 -10.473,176.396 -1.105,176.396 -3.598,171.139 		"/>
		
			<path fill="none" stroke="#010202" stroke-width="2.4" stroke-linecap="round" stroke-linejoin="round" stroke-miterlimit="10" d="
			M0.477,100.376c7.796,0.726,20.385,9.428,20.125,24.294"/>
		<g>
			
				<path fill="none" stroke="#010202" stroke-width="2.4" stroke-linecap="round" stroke-linejoin="round" stroke-miterlimit="10" d="
				M36.449,178.652c0,0-17.766,11.084-13.684,42.852c4.081,31.77-8.302,46.82-12.541,49.418"/>
			
				<path fill="#E20717" stroke="#010202" stroke-width="2.4" stroke-linecap="round" stroke-linejoin="round" stroke-miterlimit="10" d="
				M26.67,191.229c46.155-5.467,50.227-48.826,24.28-61.561c0,0-4.243-1.736-3.22-1.393s-3.3-0.794-3.3-0.794
				C16.055,121.99-6.85,159.029,26.67,191.229"/>
			
				<polygon fill="#E20717" stroke="#010202" stroke-width="2.4" stroke-linecap="round" stroke-linejoin="round" stroke-miterlimit="10" points="
				25.408,189.355 22.11,192.782 29.369,195.219 28.806,190.495 			"/>
			
				<path fill="none" stroke="#010202" stroke-width="2.4" stroke-linecap="round" stroke-linejoin="round" stroke-miterlimit="10" d="
				M50.364,136.71c5.854,2.59,13.348,12.608,9.28,24.063"/>
		</g>
		<g>
			
				<path fill="none" stroke="#010202" stroke-width="2.4" stroke-linecap="round" stroke-linejoin="round" stroke-miterlimit="10" d="
				M-29.993,192.042c0,0-5.773,17.729,15.193,37.063c20.968,19.334,21.137,36.688,19.73,40.887"/>
		</g>
	</g>
	<g>
		
			<path fill="none" stroke="#010202" stroke-width="2.4" stroke-linecap="round" stroke-linejoin="round" stroke-miterlimit="10" d="
			M103.342,63.338c0,0,16.289-19.767-0.803-55.021c-17.094-35.254-8.591-57.526-4.684-62.188"/>
		
			<path fill="#1F71B8" stroke="#010202" stroke-width="2.4" stroke-linecap="round" stroke-linejoin="round" stroke-miterlimit="10" d="
			M109.79,44.948c-51.4,24.298-39.251,76.165-4.206,80.838c0,0,5.597,0.362,4.276,0.362c-1.321,0,4.135-0.362,4.135-0.362
			C149.04,121.113,161.189,69.246,109.79,44.948"/>
		
			<polygon fill="#1F71B8" stroke="#010202" stroke-width="2.4" stroke-linecap="round" stroke-linejoin="round" stroke-miterlimit="10" points="
			111.981,46.629 114.474,41.371 105.106,41.371 107.599,46.629 		"/>
		
			<path fill="none" stroke="#010202" stroke-width="2.4" stroke-linecap="round" stroke-linejoin="round" stroke-miterlimit="10" d="
			M103.523,117.392c-7.796-0.726-20.385-9.428-20.124-24.294"/>
		<g>
			
				<path fill="none" stroke="#010202" stroke-width="2.4" stroke-linecap="round" stroke-linejoin="round" stroke-miterlimit="10" d="
				M133.994,25.726c0,0,5.774-17.729-15.193-37.063C97.833-30.672,97.665-48.026,99.07-52.225"/>
			
				<path fill="#FFD009" stroke="#010202" stroke-width="2.4" stroke-linecap="round" stroke-linejoin="round" stroke-miterlimit="10" d="
				M133.467,11.55c-28.356,30.147-6.315,62.054,18.672,55.889c0,0,3.889-1.244,2.993-0.893c-0.895,0.352,2.705-1.347,2.705-1.347
				C180.337,52.703,174.76,14.328,133.467,11.55"/>
			
				<polygon fill="#FFD009" stroke="#010202" stroke-width="2.4" stroke-linecap="round" stroke-linejoin="round" stroke-miterlimit="10" points="
				135.398,12.105 135.688,7.879 129.341,10.373 132.43,13.271 			"/>
			
				<path fill="none" stroke="#010202" stroke-width="2.4" stroke-linecap="round" stroke-linejoin="round" stroke-miterlimit="10" d="
				M148.508,62.3c-5.475,1.584-16.321-0.96-20.103-11.103"/>
		</g>
	</g>
	<g>
		
			<path fill="none" stroke="#010202" stroke-width="2.4" stroke-linecap="round" stroke-linejoin="round" stroke-miterlimit="10" d="
			M103.342,283.78c0,0,16.289-19.767-0.803-55.021c-17.094-35.254-8.591-57.526-4.684-62.188"/>
		<g>
			
				<path fill="none" stroke="#010202" stroke-width="2.4" stroke-linecap="round" stroke-linejoin="round" stroke-miterlimit="10" d="
				M133.994,246.168c0,0,5.774-17.729-15.193-37.063c-20.968-19.334-21.136-36.688-19.73-40.887"/>
		</g>
	</g>
	<g>
		
			<path fill="none" stroke="#010202" stroke-width="2.4" stroke-linecap="round" stroke-linejoin="round" stroke-miterlimit="10" d="
			M220.658,154.43c0,0-16.289,19.767,0.805,55.021c17.094,35.254,8.59,57.526,4.684,62.188"/>
		
			<path fill="#1F71B8" stroke="#010202" stroke-width="2.4" stroke-linecap="round" stroke-linejoin="round" stroke-miterlimit="10" d="
			M214.211,172.819c51.399-24.298,39.25-76.165,4.205-80.838c0,0-5.597-0.362-4.275-0.362c1.32,0-4.136,0.362-4.136,0.362
			C174.96,96.654,162.811,148.521,214.211,172.819"/>
		
			<polygon fill="#1F71B8" stroke="#010202" stroke-width="2.4" stroke-linecap="round" stroke-linejoin="round" stroke-miterlimit="10" points="
			212.02,171.139 209.527,176.396 218.895,176.396 216.402,171.139 		"/>
		
			<path fill="none" stroke="#010202" stroke-width="2.4" stroke-linecap="round" stroke-linejoin="round" stroke-miterlimit="10" d="
			M220.477,100.376c7.796,0.726,20.385,9.428,20.125,24.294"/>
		<g>
			
				<path fill="none" stroke="#010202" stroke-width="2.4" stroke-linecap="round" stroke-linejoin="round" stroke-miterlimit="10" d="
				M190.007,192.042c0,0-5.773,17.729,15.193,37.063c20.968,19.334,21.137,36.688,19.73,40.887"/>
			
				<path fill="#FFD009" stroke="#010202" stroke-width="2.4" stroke-linecap="round" stroke-linejoin="round" stroke-miterlimit="10" d="
				M190.534,206.218c28.355-30.147,6.314-62.054-18.673-55.889c0,0-3.888,1.244-2.993,0.893s-2.705,1.347-2.705,1.347
				C143.663,165.064,149.241,203.439,190.534,206.218"/>
			
				<polygon fill="#FFD009" stroke="#010202" stroke-width="2.4" stroke-linecap="round" stroke-linejoin="round" stroke-miterlimit="10" points="
				188.603,205.662 188.313,209.889 194.66,207.395 191.571,204.496 			"/>
			
				<path fill="none" stroke="#010202" stroke-width="2.4" stroke-linecap="round" stroke-linejoin="round" stroke-miterlimit="10" d="
				M175.492,155.468c5.476-1.584,16.321,0.96,20.103,11.103"/>
		</g>
	</g>
	<g>
		
			<path fill="none" stroke="#010202" stroke-width="2.4" stroke-linecap="round" stroke-linejoin="round" stroke-miterlimit="10" d="
			M0.658-64.665c0,0-16.289,19.767,0.805,55.021c17.094,35.254,8.59,57.526,4.684,62.188"/>
		<g>
			
				<path fill="none" stroke="#010202" stroke-width="2.4" stroke-linecap="round" stroke-linejoin="round" stroke-miterlimit="10" d="
				M36.449-40.442c0,0-17.766,11.084-13.684,42.852c4.081,31.77-8.302,46.82-12.541,49.418"/>
		</g>
		<g>
			
				<path fill="none" stroke="#010202" stroke-width="2.4" stroke-linecap="round" stroke-linejoin="round" stroke-miterlimit="10" d="
				M-29.993-27.053c0,0-5.773,17.729,15.193,37.063C6.168,29.345,6.337,46.699,4.931,50.897"/>
		</g>
	</g>
	<g>
		
			<path fill="none" stroke="#010202" stroke-width="2.4" stroke-linecap="round" stroke-linejoin="round" stroke-miterlimit="10" d="
			M220.658-64.665c0,0-16.289,19.767,0.805,55.021c17.094,35.254,8.59,57.526,4.684,62.188"/>
		<g>
			
				<path fill="none" stroke="#010202" stroke-width="2.4" stroke-linecap="round" stroke-linejoin="round" stroke-miterlimit="10" d="
				M190.007-27.053c0,0-5.773,17.729,15.193,37.063c20.968,19.334,21.137,36.688,19.73,40.887"/>
		</g>
	</g>
</g>
</svg>
