<?xml version="1.0" encoding="utf-8"?>
<!-- Generator: Adobe Illustrator 16.0.0, SVG Export Plug-In . SVG Version: 6.00 Build 0)  -->
<!DOCTYPE svg PUBLIC "-//W3C//DTD SVG 1.1//EN" "http://www.w3.org/Graphics/SVG/1.1/DTD/svg11.dtd">
<svg version="1.1" xmlns="http://www.w3.org/2000/svg" xmlns:xlink="http://www.w3.org/1999/xlink" x="0px" y="0px" width="220px"
	 height="220px" viewBox="0 0 220 220" enable-background="new 0 0 220 220" xml:space="preserve">
<g id="bg">
</g>
<g id="Layer_1">
	<g>
		
			<path fill="none" stroke="#010202" stroke-width="2.4" stroke-linecap="round" stroke-linejoin="round" stroke-miterlimit="10" d="
			M219.342,154.43c0,0,16.289,19.767-0.804,55.021c-17.094,35.254-8.591,57.526-4.684,62.188"/>
		
			<path fill="#1F71B8" stroke="#010202" stroke-width="2.4" stroke-linecap="round" stroke-linejoin="round" stroke-miterlimit="10" d="
			M225.79,172.819c-51.4-24.298-39.251-76.165-4.206-80.838c0,0,5.597-0.362,4.276-0.362c-1.321,0,4.135,0.362,4.135,0.362
			C265.04,96.654,277.189,148.521,225.79,172.819"/>
		
			<polygon fill="#1F71B8" stroke="#010202" stroke-width="2.4" stroke-linecap="round" stroke-linejoin="round" stroke-miterlimit="10" points="
			227.981,171.139 230.474,176.396 221.106,176.396 223.599,171.139 		"/>
		
			<path fill="none" stroke="#010202" stroke-width="2.4" stroke-linecap="round" stroke-linejoin="round" stroke-miterlimit="10" d="
			M219.523,100.376c-7.796,0.726-20.385,9.428-20.124,24.294"/>
		<g>
			
				<path fill="none" stroke="#010202" stroke-width="2.4" stroke-linecap="round" stroke-linejoin="round" stroke-miterlimit="10" d="
				M183.552,178.652c0,0,17.765,11.084,13.684,42.852c-4.082,31.77,8.301,46.82,12.541,49.418"/>
			
				<path fill="#E20717" stroke="#010202" stroke-width="2.4" stroke-linecap="round" stroke-linejoin="round" stroke-miterlimit="10" d="
				M193.33,191.229c-46.155-5.467-50.226-48.826-24.279-61.561c0,0,4.243-1.736,3.22-1.393s3.299-0.794,3.299-0.794
				C203.946,121.99,226.85,159.029,193.33,191.229"/>
			
				<polygon fill="#E20717" stroke="#010202" stroke-width="2.4" stroke-linecap="round" stroke-linejoin="round" stroke-miterlimit="10" points="
				194.592,189.355 197.891,192.782 190.631,195.219 191.195,190.495 			"/>
			
				<path fill="none" stroke="#010202" stroke-width="2.4" stroke-linecap="round" stroke-linejoin="round" stroke-miterlimit="10" d="
				M169.636,136.71c-5.854,2.59-13.348,12.608-9.279,24.063"/>
		</g>
		<g>
			
				<path fill="none" stroke="#010202" stroke-width="2.4" stroke-linecap="round" stroke-linejoin="round" stroke-miterlimit="10" d="
				M249.993,192.042c0,0,5.774,17.729-15.193,37.063c-20.968,19.334-21.136,36.688-19.73,40.887"/>
		</g>
	</g>
	<g>
		
			<path fill="none" stroke="#010202" stroke-width="2.4" stroke-linecap="round" stroke-linejoin="round" stroke-miterlimit="10" d="
			M100.658,63.338c0,0-16.289-19.767,0.804-55.021c17.094-35.254,8.591-57.526,4.684-62.188"/>
		
			<path fill="#1F71B8" stroke="#010202" stroke-width="2.4" stroke-linecap="round" stroke-linejoin="round" stroke-miterlimit="10" d="
			M94.21,44.948c51.4,24.298,39.251,76.165,4.206,80.838c0,0-5.597,0.362-4.276,0.362c1.321,0-4.135-0.362-4.135-0.362
			C54.96,121.113,42.811,69.246,94.21,44.948"/>
		
			<polygon fill="#1F71B8" stroke="#010202" stroke-width="2.4" stroke-linecap="round" stroke-linejoin="round" stroke-miterlimit="10" points="
			92.019,46.629 89.526,41.371 98.894,41.371 96.401,46.629 		"/>
		
			<path fill="none" stroke="#010202" stroke-width="2.4" stroke-linecap="round" stroke-linejoin="round" stroke-miterlimit="10" d="
			M100.477,117.392c7.796-0.726,20.385-9.428,20.124-24.294"/>
		<g>
			
				<path fill="none" stroke="#010202" stroke-width="2.4" stroke-linecap="round" stroke-linejoin="round" stroke-miterlimit="10" d="
				M136.448,39.115c0,0-17.765-11.084-13.684-42.852c4.082-31.77-8.301-46.82-12.541-49.418"/>
			
				<path fill="#E20717" stroke="#010202" stroke-width="2.4" stroke-linecap="round" stroke-linejoin="round" stroke-miterlimit="10" d="
				M126.67,26.539c46.155,5.467,50.226,48.826,24.279,61.561c0,0-4.243,1.736-3.22,1.393s-3.299,0.794-3.299,0.794
				C116.054,95.777,93.15,58.738,126.67,26.539"/>
			
				<polygon fill="#E20717" stroke="#010202" stroke-width="2.4" stroke-linecap="round" stroke-linejoin="round" stroke-miterlimit="10" points="
				125.408,28.412 122.109,24.985 129.369,22.549 128.805,27.272 			"/>
			
				<path fill="none" stroke="#010202" stroke-width="2.4" stroke-linecap="round" stroke-linejoin="round" stroke-miterlimit="10" d="
				M150.364,81.058c5.854-2.59,13.348-12.608,9.279-24.063"/>
		</g>
	</g>
	<g>
		
			<path fill="none" stroke="#010202" stroke-width="2.4" stroke-linecap="round" stroke-linejoin="round" stroke-miterlimit="10" d="
			M100.658,283.78c0,0-16.289-19.767,0.804-55.021c17.094-35.254,8.591-57.526,4.684-62.188"/>
		<g>
			
				<path fill="none" stroke="#010202" stroke-width="2.4" stroke-linecap="round" stroke-linejoin="round" stroke-miterlimit="10" d="
				M136.448,259.558c0,0-17.765-11.084-13.684-42.852c4.082-31.77-8.301-46.82-12.541-49.418"/>
		</g>
	</g>
	<g>
		
			<path fill="none" stroke="#010202" stroke-width="2.4" stroke-linecap="round" stroke-linejoin="round" stroke-miterlimit="10" d="
			M-0.658,154.43c0,0,16.289,19.767-0.804,55.021c-17.094,35.254-8.59,57.526-4.684,62.188"/>
		
			<path fill="#1F71B8" stroke="#010202" stroke-width="2.4" stroke-linecap="round" stroke-linejoin="round" stroke-miterlimit="10" d="
			M5.79,172.819c-51.4-24.298-39.25-76.165-4.206-80.838c0,0,5.597-0.362,4.276-0.362s4.135,0.362,4.135,0.362
			C45.04,96.654,57.189,148.521,5.79,172.819"/>
		
			<polygon fill="#1F71B8" stroke="#010202" stroke-width="2.4" stroke-linecap="round" stroke-linejoin="round" stroke-miterlimit="10" points="
			7.981,171.139 10.473,176.396 1.106,176.396 3.598,171.139 		"/>
		
			<path fill="none" stroke="#010202" stroke-width="2.4" stroke-linecap="round" stroke-linejoin="round" stroke-miterlimit="10" d="
			M-0.477,100.376c-7.796,0.726-20.385,9.428-20.125,24.294"/>
		<g>
			
				<path fill="none" stroke="#010202" stroke-width="2.4" stroke-linecap="round" stroke-linejoin="round" stroke-miterlimit="10" d="
				M29.993,192.042c0,0,5.774,17.729-15.193,37.063c-20.968,19.334-21.136,36.688-19.73,40.887"/>
			
				<path fill="#FFD009" stroke="#010202" stroke-width="2.4" stroke-linecap="round" stroke-linejoin="round" stroke-miterlimit="10" d="
				M29.466,206.218c-28.355-30.147-6.314-62.054,18.673-55.889c0,0,3.889,1.244,2.993,0.893c-0.895-0.352,2.705,1.347,2.705,1.347
				C76.337,165.064,70.759,203.439,29.466,206.218"/>
			
				<polygon fill="#FFD009" stroke="#010202" stroke-width="2.4" stroke-linecap="round" stroke-linejoin="round" stroke-miterlimit="10" points="
				31.397,205.662 31.687,209.889 25.34,207.395 28.429,204.496 			"/>
			
				<path fill="none" stroke="#010202" stroke-width="2.4" stroke-linecap="round" stroke-linejoin="round" stroke-miterlimit="10" d="
				M44.508,155.468c-5.475-1.584-16.321,0.96-20.103,11.103"/>
		</g>
	</g>
	<g>
		
			<path fill="none" stroke="#010202" stroke-width="2.4" stroke-linecap="round" stroke-linejoin="round" stroke-miterlimit="10" d="
			M219.342-64.665c0,0,16.289,19.767-0.804,55.021c-17.094,35.254-8.591,57.526-4.684,62.188"/>
		<g>
			
				<path fill="none" stroke="#010202" stroke-width="2.4" stroke-linecap="round" stroke-linejoin="round" stroke-miterlimit="10" d="
				M183.552-40.442c0,0,17.765,11.084,13.684,42.852c-4.082,31.77,8.301,46.82,12.541,49.418"/>
		</g>
		<g>
			
				<path fill="none" stroke="#010202" stroke-width="2.4" stroke-linecap="round" stroke-linejoin="round" stroke-miterlimit="10" d="
				M249.993-27.053c0,0,5.774,17.729-15.193,37.063c-20.968,19.334-21.136,36.688-19.73,40.887"/>
		</g>
	</g>
	<g>
		
			<path fill="none" stroke="#010202" stroke-width="2.4" stroke-linecap="round" stroke-linejoin="round" stroke-miterlimit="10" d="
			M-0.658-64.665c0,0,16.289,19.767-0.804,55.021c-17.094,35.254-8.59,57.526-4.684,62.188"/>
		<g>
			
				<path fill="none" stroke="#010202" stroke-width="2.4" stroke-linecap="round" stroke-linejoin="round" stroke-miterlimit="10" d="
				M29.993-27.053c0,0,5.774,17.729-15.193,37.063C-6.168,29.345-6.336,46.699-4.931,50.897"/>
		</g>
	</g>
</g>
</svg>
