<?xml version="1.0" encoding="utf-8"?>
<!-- Generator: Adobe Illustrator 16.0.0, SVG Export Plug-In . SVG Version: 6.00 Build 0)  -->
<!DOCTYPE svg PUBLIC "-//W3C//DTD SVG 1.1//EN" "http://www.w3.org/Graphics/SVG/1.1/DTD/svg11.dtd">
<svg version="1.1" xmlns="http://www.w3.org/2000/svg" xmlns:xlink="http://www.w3.org/1999/xlink" x="0px" y="0px"
	 width="429.954px" height="159.373px" viewBox="0 0 429.954 159.373" enable-background="new 0 0 429.954 159.373"
	 xml:space="preserve">
<g id="gb">
	<rect y="0" opacity="0.95" fill="none" width="429.954" height="159.373"/>
	<g>
		<path fill="#519CB9" d="M75.664,64.252c-2.941-1.488-5.871-2.577-8.792-3.267c-2.922-0.689-5.89-1.032-8.903-1.032
			c-3.313,0-6.374,0.366-9.183,1.086c-2.81,0.729-5.666,1.797-8.567,3.212l1.227,19.815c0.148,2.456,0.67,4.781,1.563,6.977
			c0.895,2.198,2.066,4.188,3.517,5.975c1.451,1.785,3.153,3.323,5.107,4.604c1.953,1.285,4.065,2.242,6.336,2.874
			c2.343-0.668,4.493-1.663,6.447-2.986c1.952-1.319,3.646-2.875,5.08-4.658c1.432-1.789,2.575-3.769,3.432-5.946
			c0.857-2.177,1.359-4.456,1.507-6.839L75.664,64.252z M57.969,75.472l3.572,7.201l2.511-3.349l6.03,7.981
			c-0.148,0.97-0.54,1.722-1.172,2.261c-0.633,0.541-1.565,0.81-2.792,0.81c-0.446,0-0.81-0.053-1.087-0.167
			c-0.281-0.113-0.56-0.232-0.839-0.362c-0.278-0.132-0.587-0.251-0.921-0.364c-0.335-0.109-0.762-0.167-1.284-0.167
			c-0.521,0-0.94,0.059-1.256,0.167c-0.316,0.113-0.605,0.232-0.867,0.364c-0.259,0.129-0.529,0.249-0.808,0.362
			c-0.28,0.114-0.643,0.167-1.089,0.167c-0.483,0-0.866-0.053-1.144-0.167c-0.28-0.113-0.56-0.232-0.839-0.362
			c-0.278-0.132-0.575-0.251-0.894-0.364c-0.315-0.109-0.734-0.167-1.255-0.167c-0.52,0-0.939,0.059-1.254,0.167
			c-0.317,0.113-0.614,0.232-0.894,0.364c-0.28,0.129-0.559,0.249-0.838,0.362c-0.278,0.114-0.643,0.167-1.088,0.167
			c-1.266,0-2.188-0.239-2.763-0.727c-0.578-0.484-0.978-1.247-1.201-2.286l6.027-8.039l2.514,3.349L57.969,75.472z M60.815,92.272
			c-0.298,0.113-0.576,0.244-0.837,0.394c-0.26,0.148-0.548,0.278-0.865,0.387c-0.316,0.114-0.717,0.167-1.201,0.167
			c-0.484,0-0.873-0.053-1.171-0.167c-0.299-0.109-0.587-0.239-0.865-0.387c-0.28-0.15-0.568-0.281-0.866-0.394
			c-0.298-0.107-0.689-0.167-1.173-0.167c-0.52,0-0.92,0.059-1.201,0.167c-0.277,0.113-0.547,0.232-0.81,0.364
			c-0.259,0.13-0.539,0.25-0.835,0.364c-0.299,0.112-0.708,0.167-1.228,0.167c-0.448,0-0.95-0.092-1.508-0.281
			c-0.186-0.258-0.345-0.519-0.476-0.78c-0.129-0.259-0.269-0.52-0.417-0.782c0.333,0.15,0.689,0.297,1.061,0.447
			c0.373,0.147,0.819,0.224,1.34,0.224c0.482,0,0.873-0.057,1.171-0.17c0.299-0.109,0.578-0.228,0.839-0.359
			c0.259-0.13,0.548-0.255,0.863-0.362c0.316-0.114,0.717-0.167,1.201-0.167s0.885,0.053,1.201,0.167
			c0.315,0.107,0.595,0.232,0.838,0.362c0.241,0.131,0.511,0.25,0.808,0.359c0.298,0.113,0.707,0.17,1.228,0.17
			c0.484,0,0.885-0.057,1.201-0.17c0.316-0.109,0.604-0.228,0.865-0.359c0.261-0.13,0.54-0.255,0.837-0.362
			c0.298-0.114,0.689-0.167,1.172-0.167c0.484,0,0.884,0.053,1.2,0.167c0.316,0.107,0.605,0.232,0.864,0.362
			c0.261,0.131,0.54,0.25,0.838,0.359c0.298,0.113,0.707,0.17,1.228,0.17c0.447,0,0.865-0.057,1.256-0.17
			c0.392-0.109,0.772-0.257,1.145-0.441c-0.187,0.296-0.335,0.549-0.447,0.751c-0.113,0.203-0.261,0.454-0.446,0.751
			c-0.224,0.077-0.456,0.149-0.698,0.226c-0.241,0.071-0.512,0.108-0.81,0.108c-0.521,0-0.93-0.053-1.228-0.167
			c-0.298-0.109-0.585-0.239-0.865-0.387c-0.279-0.15-0.569-0.281-0.866-0.394c-0.297-0.107-0.688-0.167-1.171-0.167
			C61.505,92.106,61.113,92.165,60.815,92.272 M57.969,100.478c-1.675-0.594-3.209-1.373-4.605-2.345
			c-1.395-0.965-2.632-2.081-3.712-3.345c0.595,0,1.059-0.059,1.396-0.171c0.333-0.11,0.631-0.23,0.893-0.36
			c0.26-0.129,0.53-0.254,0.809-0.362c0.279-0.114,0.643-0.17,1.088-0.17c0.446,0,0.81,0.056,1.089,0.17
			c0.277,0.107,0.558,0.232,0.837,0.362c0.28,0.13,0.586,0.25,0.92,0.36c0.335,0.112,0.763,0.171,1.285,0.171
			c0.521,0,0.939-0.059,1.255-0.171c0.316-0.11,0.605-0.23,0.866-0.36c0.261-0.129,0.531-0.254,0.809-0.362
			c0.28-0.114,0.643-0.17,1.089-0.17c0.484,0,0.865,0.056,1.145,0.17c0.279,0.107,0.557,0.232,0.835,0.362
			c0.281,0.13,0.587,0.25,0.922,0.36c0.335,0.112,0.782,0.171,1.339,0.171C63.96,97.429,61.206,99.325,57.969,100.478
			 M73.096,83.958c-0.148,2.268-0.623,4.427-1.424,6.472c-0.8,2.05-1.869,3.911-3.21,5.583c-1.34,1.676-2.902,3.118-4.688,4.33
			c-1.786,1.208-3.722,2.127-5.805,2.76c-2.121-0.632-4.084-1.563-5.888-2.79c-1.806-1.229-3.369-2.679-4.69-4.354
			c-1.321-1.676-2.382-3.536-3.181-5.583c-0.801-2.044-1.275-4.186-1.424-6.417l-1.173-18.921c0.149-0.079,0.326-0.162,0.53-0.254
			c0.206-0.093,0.4-0.177,0.585-0.252l1.23,19.371c0.146,2.122,0.593,4.142,1.339,6.057c0.744,1.915,1.729,3.65,2.958,5.189
			c1.229,1.545,2.669,2.899,4.327,4.05c1.655,1.151,3.451,2.046,5.386,2.678c2.047-0.667,3.898-1.608,5.554-2.816
			c1.657-1.21,3.089-2.599,4.299-4.161c1.209-1.562,2.167-3.282,2.874-5.163c0.706-1.881,1.117-3.824,1.229-5.833l1.227-19.371
			c0.224,0.076,0.419,0.159,0.585,0.252c0.168,0.092,0.345,0.176,0.531,0.254L73.096,83.958z M57.969,68.438l0.613,1.395
			l1.507-0.167l-0.893,1.229l0.893,1.226l-1.507-0.166l-0.613,1.453l-0.614-1.453l-1.619,0.166l1.005-1.226l-0.95-1.229l1.563,0.167
			L57.969,68.438z M53.615,62.69l0.613,1.395l1.508-0.168l-0.894,1.227l0.894,1.229l-1.508-0.168l-0.613,1.452L53,66.205
			l-1.619,0.168l1.006-1.229l-0.95-1.227L53,64.085L53.615,62.69z M62.211,62.69l0.614,1.395l1.507-0.168l-0.893,1.227l0.893,1.229
			l-1.507-0.168l-0.614,1.452l-0.614-1.452l-1.619,0.168l1.004-1.229l-0.947-1.227l1.562,0.168L62.211,62.69z"/>
		<g>
			<path fill="#231F20" d="M112.58,74.905h-1.413V61.583h4.261c0.756,0,1.413,0.063,1.972,0.186
				c0.558,0.124,1.021,0.328,1.386,0.615c0.365,0.284,0.636,0.663,0.81,1.134c0.174,0.472,0.26,1.05,0.26,1.731
				c0,1.129-0.229,1.987-0.689,2.576c-0.458,0.591-1.171,0.972-2.139,1.146l3.107,5.936h-1.619l-2.977-5.787h-2.96V74.905z
				 M112.58,67.928h2.737c0.507,0,0.954-0.031,1.338-0.094c0.385-0.063,0.708-0.186,0.968-0.373
				c0.259-0.187,0.458-0.452,0.595-0.794c0.137-0.343,0.204-0.788,0.204-1.335c0-0.536-0.065-0.967-0.194-1.295
				c-0.131-0.333-0.323-0.59-0.578-0.776c-0.254-0.187-0.576-0.314-0.966-0.385c-0.391-0.068-0.847-0.102-1.368-0.102h-2.737V67.928
				z"/>
			<path fill="#231F20" d="M122.777,74.905V61.583h7.981v1.19h-6.567v4.819h5.693v1.192h-5.693v4.931h6.567v1.19H122.777z"/>
			<path fill="#231F20" d="M135.002,74.905h-1.413V61.583h4.167c0.756,0,1.415,0.066,1.972,0.194
				c0.558,0.132,1.021,0.344,1.387,0.643c0.366,0.297,0.635,0.688,0.81,1.172c0.173,0.485,0.26,1.086,0.26,1.806
				c0,1.45-0.357,2.483-1.069,3.097c-0.714,0.614-1.833,0.919-3.358,0.919h-2.754V74.905z M135.002,68.225h2.643
				c0.508,0,0.955-0.034,1.339-0.102c0.385-0.069,0.707-0.199,0.968-0.392c0.261-0.193,0.459-0.468,0.596-0.823
				c0.136-0.354,0.205-0.825,0.205-1.409c0-0.561-0.066-1.014-0.196-1.362c-0.129-0.348-0.322-0.625-0.576-0.823
				s-0.577-0.332-0.969-0.4c-0.39-0.069-0.846-0.104-1.366-0.104h-2.643V68.225z"/>
			<path fill="#231F20" d="M153.33,70.272c0,0.857-0.105,1.59-0.316,2.204c-0.213,0.617-0.523,1.117-0.932,1.507
				c-0.409,0.392-0.905,0.68-1.488,0.867c-0.583,0.186-1.247,0.279-1.99,0.279c-1.44,0-2.553-0.368-3.34-1.107
				c-0.788-0.74-1.183-1.918-1.183-3.544v-8.895h1.414v8.745c0,1.276,0.265,2.193,0.792,2.745c0.526,0.552,1.331,0.829,2.409,0.829
				c1.066,0,1.87-0.281,2.41-0.84c0.539-0.556,0.808-1.469,0.808-2.734v-8.745h1.416V70.272z"/>
			<path fill="#231F20" d="M165.405,71.272c0,1.254-0.351,2.174-1.051,2.758c-0.701,0.583-1.839,0.875-3.415,0.875h-4.242V61.583
				h4.242c1.5,0,2.581,0.288,3.238,0.863c0.657,0.575,0.986,1.439,0.986,2.591c0,1.524-0.546,2.513-1.637,2.973v0.075
				c0.644,0.249,1.118,0.618,1.422,1.109C165.253,69.685,165.405,70.379,165.405,71.272z M163.73,65.155
				c0-0.918-0.233-1.543-0.698-1.878c-0.464-0.336-1.113-0.503-1.944-0.503h-2.977v4.744h2.977c0.819,0,1.464-0.169,1.936-0.511
				C163.495,66.665,163.73,66.048,163.73,65.155z M163.973,71.191c0-0.857-0.224-1.487-0.669-1.885
				c-0.448-0.397-1.13-0.598-2.048-0.598h-3.143v5.006h3.143c0.918,0,1.601-0.203,2.048-0.607
				C163.749,72.703,163.973,72.065,163.973,71.191z"/>
			<path fill="#231F20" d="M168.271,74.905V61.583h1.413v12.132h6.215v1.19H168.271z"/>
			<path fill="#231F20" d="M178.207,74.905V61.583h1.415v13.322H178.207z"/>
			<path fill="#231F20" d="M183.304,61.583h1.415v5.879h1.246l4.336-5.879h1.637l-4.819,6.439l4.93,6.883h-1.711l-4.466-6.233
				h-1.153v6.233h-1.415V61.583z"/>
			<path fill="#231F20" d="M201.168,71.651h-5.658l-1.024,3.254h-1.45l4.373-13.322h1.897l4.392,13.322h-1.489L201.168,71.651z
				 M195.882,70.458h4.912l-2.419-7.609h-0.074L195.882,70.458z"/>
			<path fill="#231F20" d="M217.559,71.388c0,0.67-0.077,1.244-0.233,1.724c-0.154,0.476-0.409,0.863-0.762,1.161
				c-0.354,0.296-0.809,0.514-1.368,0.651c-0.558,0.136-1.234,0.205-2.028,0.205c-0.707,0-1.353-0.051-1.936-0.149
				c-0.583-0.1-1.153-0.254-1.71-0.464l0.297-1.209c0.52,0.185,1.081,0.332,1.683,0.437c0.603,0.106,1.212,0.16,1.833,0.16
				c0.484,0,0.899-0.036,1.247-0.104c0.349-0.067,0.637-0.192,0.866-0.372c0.229-0.18,0.399-0.424,0.512-0.737
				c0.111-0.309,0.167-0.697,0.167-1.169c0-0.384-0.04-0.715-0.121-0.995c-0.082-0.28-0.23-0.521-0.447-0.726
				c-0.217-0.206-0.508-0.389-0.875-0.547c-0.366-0.162-0.827-0.325-1.386-0.486c-0.622-0.173-1.163-0.362-1.627-0.568
				c-0.466-0.205-0.851-0.454-1.153-0.752c-0.305-0.298-0.531-0.648-0.68-1.052c-0.149-0.404-0.224-0.885-0.224-1.443
				c0-1.192,0.335-2.087,1.006-2.69c0.668-0.599,1.712-0.899,3.126-0.899c0.582,0,1.162,0.052,1.739,0.158
				c0.577,0.105,1.119,0.257,1.628,0.457l-0.244,1.188c-0.507-0.172-1.002-0.31-1.486-0.407c-0.483-0.101-1.012-0.15-1.583-0.15
				c-0.992,0-1.695,0.173-2.112,0.52c-0.416,0.348-0.623,0.925-0.623,1.731c0,0.408,0.053,0.751,0.159,1.023
				c0.105,0.273,0.264,0.501,0.474,0.688c0.21,0.186,0.477,0.347,0.799,0.484c0.323,0.136,0.7,0.266,1.135,0.392
				c0.782,0.247,1.427,0.486,1.934,0.716c0.51,0.231,0.91,0.49,1.202,0.78c0.291,0.292,0.495,0.632,0.613,1.024
				C217.499,70.356,217.559,70.829,217.559,71.388z"/>
			<path fill="#231F20" d="M220.183,74.905V61.583h1.415v12.132h6.214v1.19H220.183z"/>
			<path fill="#231F20" d="M233.895,75.129c-0.867,0-1.625-0.116-2.268-0.345c-0.646-0.23-1.18-0.609-1.601-1.144
				c-0.422-0.534-0.738-1.237-0.949-2.113c-0.212-0.875-0.316-1.957-0.316-3.246c0-1.29,0.104-2.38,0.316-3.265
				c0.211-0.887,0.526-1.599,0.949-2.141c0.421-0.539,0.955-0.925,1.601-1.162c0.644-0.237,1.401-0.353,2.268-0.353
				c0.856,0,1.604,0.116,2.244,0.353c0.639,0.237,1.169,0.62,1.59,1.154c0.422,0.533,0.738,1.24,0.95,2.119
				c0.21,0.883,0.316,1.962,0.316,3.239c0,1.305-0.103,2.394-0.306,3.275c-0.206,0.879-0.516,1.593-0.932,2.13
				c-0.415,0.541-0.945,0.924-1.591,1.154C235.521,75.013,234.764,75.129,233.895,75.129z M233.878,73.882
				c0.694,0,1.274-0.103,1.739-0.308c0.466-0.206,0.837-0.531,1.116-0.987c0.279-0.452,0.479-1.038,0.597-1.759
				c0.117-0.718,0.177-1.593,0.177-2.622c0-1.043-0.06-1.921-0.177-2.634c-0.118-0.712-0.317-1.29-0.597-1.729
				c-0.278-0.442-0.649-0.758-1.116-0.948c-0.464-0.192-1.045-0.289-1.739-0.289c-0.695,0-1.274,0.097-1.74,0.289
				c-0.465,0.19-0.837,0.506-1.116,0.948c-0.28,0.44-0.478,1.018-0.597,1.729c-0.118,0.713-0.177,1.591-0.177,2.634
				c0,1.029,0.06,1.904,0.177,2.622c0.119,0.721,0.317,1.307,0.597,1.759c0.278,0.456,0.651,0.781,1.116,0.987
				C232.604,73.779,233.183,73.882,233.878,73.882z"/>
			<path fill="#231F20" d="M240.185,61.583h1.451l3.571,11.946h0.075l3.537-11.946h1.375l-4,13.322h-1.991L240.185,61.583z"/>
			<path fill="#231F20" d="M252.224,74.905V61.583h7.98v1.19h-6.567v4.819h5.694v1.192h-5.694v4.931h6.567v1.19H252.224z"/>
			<path fill="#231F20" d="M264.411,63.091h-0.074v11.814h-1.302V61.583h2.083l5.973,11.797h0.074V61.583h1.302v13.322h-2.064
				L264.411,63.091z"/>
			<path fill="#231F20" d="M276.151,74.905V61.583h1.415v13.322H276.151z"/>
			<path fill="#231F20" d="M283.055,61.583v12.262c0,0.632-0.054,1.191-0.159,1.674c-0.104,0.484-0.285,0.907-0.539,1.265
				c-0.254,0.36-0.593,0.67-1.015,0.931c-0.422,0.261-0.95,0.484-1.581,0.671l-0.373-1.192c0.422-0.124,0.775-0.275,1.061-0.457
				c0.285-0.18,0.518-0.398,0.697-0.66c0.181-0.261,0.308-0.564,0.382-0.912c0.074-0.346,0.112-0.75,0.112-1.21V61.583H283.055z"/>
			<path fill="#231F20" d="M293.01,71.651h-5.656l-1.024,3.254h-1.451l4.372-13.322h1.899l4.391,13.322h-1.489L293.01,71.651z
				 M287.725,70.458h4.912l-2.418-7.609h-0.074L287.725,70.458z"/>
		</g>
		<g>
			<path fill="#231F20" d="M113.79,81.811l2.699,6.048h0.093l2.678-6.048h2.997v13.323h-2.346v-9.861h-0.092l-2.271,5.192h-2.195
				l-2.289-5.172h-0.092v9.84h-2.271V81.811H113.79z"/>
			<path fill="#231F20" d="M125.047,95.134V81.811h2.586v13.323H125.047z"/>
			<path fill="#231F20" d="M132.861,85.144h-0.093v9.991h-2.308V81.811h3.424l4.502,10.291h0.093V81.811h2.307v13.323h-3.442
				L132.861,85.144z"/>
			<path fill="#231F20" d="M143.615,95.134V81.811h2.587v13.323H143.615z"/>
			<path fill="#231F20" d="M157.255,91.271c0,0.743-0.091,1.371-0.27,1.885c-0.181,0.517-0.471,0.935-0.875,1.264
				c-0.403,0.326-0.917,0.565-1.544,0.713c-0.627,0.151-1.387,0.224-2.279,0.224c-0.769,0-1.468-0.048-2.094-0.148
				c-0.625-0.1-1.211-0.235-1.757-0.411l0.464-2.231c0.51,0.172,1.08,0.315,1.713,0.427c0.633,0.11,1.24,0.167,1.823,0.167
				c0.31,0,0.595-0.025,0.856-0.073c0.261-0.051,0.485-0.138,0.669-0.263c0.186-0.124,0.332-0.297,0.438-0.522
				c0.105-0.222,0.158-0.501,0.158-0.836c0-0.26-0.037-0.483-0.111-0.669c-0.075-0.187-0.198-0.352-0.371-0.493
				c-0.176-0.143-0.403-0.273-0.689-0.391c-0.285-0.119-0.646-0.238-1.079-0.363c-0.608-0.174-1.148-0.361-1.62-0.567
				c-0.471-0.206-0.864-0.463-1.181-0.773c-0.316-0.31-0.559-0.685-0.727-1.126c-0.167-0.44-0.25-0.982-0.25-1.628
				c0-1.412,0.385-2.41,1.152-2.994c0.771-0.584,1.911-0.875,3.425-0.875c0.644,0,1.246,0.055,1.804,0.168
				c0.559,0.114,1.135,0.288,1.731,0.526l-0.317,2.152c-0.458-0.185-0.961-0.332-1.506-0.437c-0.547-0.106-1.099-0.16-1.656-0.16
				c-0.286,0-0.548,0.017-0.782,0.047c-0.236,0.031-0.441,0.1-0.615,0.207c-0.173,0.103-0.311,0.249-0.409,0.435
				c-0.099,0.185-0.148,0.433-0.148,0.743c0,0.31,0.049,0.571,0.148,0.781c0.099,0.211,0.248,0.389,0.447,0.538
				c0.198,0.148,0.443,0.279,0.735,0.39c0.292,0.112,0.636,0.226,1.033,0.334c0.682,0.199,1.258,0.403,1.729,0.614
				c0.472,0.21,0.85,0.465,1.136,0.762c0.285,0.298,0.493,0.65,0.624,1.059C157.189,90.156,157.255,90.664,157.255,91.271z"/>
			<path fill="#231F20" d="M164.026,84.063v11.071h-2.585V84.063h-3.48v-2.252h9.545v2.252H164.026z"/>
			<path fill="#231F20" d="M178.615,85.775c0,0.93-0.167,1.713-0.503,2.344c-0.336,0.633-0.881,1.099-1.638,1.396l2.941,5.619
				h-2.978l-2.585-5.229h-1.974v5.229h-2.585V81.811h4.597c0.905,0,1.662,0.084,2.27,0.253c0.607,0.167,1.092,0.419,1.451,0.753
				c0.36,0.335,0.616,0.75,0.771,1.246C178.538,84.562,178.615,85.129,178.615,85.775z M175.973,85.85
				c0-0.721-0.168-1.203-0.502-1.452c-0.335-0.248-0.918-0.371-1.75-0.371h-1.843v3.757h1.843c0.447,0,0.816-0.033,1.107-0.1
				c0.292-0.07,0.522-0.18,0.688-0.328c0.167-0.148,0.286-0.348,0.354-0.595C175.939,86.514,175.973,86.21,175.973,85.85z"/>
			<path fill="#231F20" d="M189.408,91.271c0,0.743-0.091,1.371-0.269,1.885c-0.18,0.517-0.472,0.935-0.876,1.264
				c-0.402,0.326-0.917,0.565-1.543,0.713c-0.626,0.151-1.387,0.224-2.28,0.224c-0.77,0-1.467-0.048-2.093-0.148
				s-1.212-0.235-1.758-0.411l0.465-2.231c0.509,0.172,1.078,0.315,1.712,0.427c0.632,0.11,1.24,0.167,1.823,0.167
				c0.31,0,0.596-0.025,0.855-0.073c0.261-0.051,0.485-0.138,0.672-0.263c0.185-0.124,0.331-0.297,0.436-0.522
				c0.106-0.222,0.158-0.501,0.158-0.836c0-0.26-0.037-0.483-0.111-0.669c-0.074-0.187-0.199-0.352-0.372-0.493
				c-0.174-0.143-0.404-0.273-0.688-0.391c-0.285-0.119-0.645-0.238-1.079-0.363c-0.609-0.174-1.148-0.361-1.619-0.567
				c-0.472-0.206-0.866-0.463-1.183-0.773c-0.315-0.31-0.558-0.685-0.726-1.126c-0.167-0.44-0.251-0.982-0.251-1.628
				c0-1.412,0.385-2.41,1.153-2.994c0.77-0.584,1.91-0.875,3.424-0.875c0.646,0,1.247,0.055,1.805,0.168
				c0.559,0.114,1.134,0.288,1.731,0.526l-0.317,2.152c-0.459-0.185-0.962-0.332-1.507-0.437c-0.545-0.106-1.098-0.16-1.656-0.16
				c-0.286,0-0.545,0.017-0.781,0.047c-0.237,0.031-0.441,0.1-0.616,0.207c-0.173,0.103-0.308,0.249-0.409,0.435
				c-0.1,0.185-0.148,0.433-0.148,0.743c0,0.31,0.048,0.571,0.148,0.781c0.101,0.211,0.247,0.389,0.448,0.538
				c0.198,0.148,0.443,0.279,0.734,0.39c0.292,0.112,0.635,0.226,1.033,0.334c0.682,0.199,1.258,0.403,1.73,0.614
				c0.471,0.21,0.85,0.465,1.135,0.762c0.285,0.298,0.493,0.65,0.622,1.059C189.342,90.156,189.408,90.664,189.408,91.271z"/>
			<path fill="#231F20" d="M196.18,84.063v11.071h-2.586V84.063h-3.479v-2.252h9.543v2.252H196.18z"/>
			<path fill="#231F20" d="M207.884,95.134h-3.89l-3.61-13.323h2.735l2.829,11.072h0.093l2.847-11.072h2.623L207.884,95.134z"/>
			<path fill="#231F20" d="M217.838,95.358c-0.918,0-1.718-0.104-2.4-0.316c-0.682-0.21-1.25-0.577-1.703-1.098
				c-0.452-0.52-0.791-1.221-1.014-2.104c-0.224-0.878-0.334-1.988-0.334-3.33c0-1.339,0.111-2.453,0.334-3.34
				c0.224-0.886,0.562-1.596,1.014-2.132c0.453-0.531,1.021-0.908,1.703-1.125c0.683-0.218,1.482-0.325,2.4-0.325
				c0.905,0,1.696,0.107,2.372,0.325c0.677,0.217,1.242,0.592,1.694,1.118c0.453,0.525,0.791,1.231,1.014,2.112
				c0.222,0.879,0.335,1.983,0.335,3.311c0,1.353-0.109,2.473-0.327,3.36c-0.216,0.888-0.548,1.593-0.994,2.121
				c-0.447,0.527-1.012,0.896-1.692,1.106C219.557,95.253,218.756,95.358,217.838,95.358z M217.818,93.105
				c0.548,0,0.997-0.077,1.35-0.232c0.354-0.154,0.633-0.412,0.837-0.771c0.205-0.36,0.348-0.839,0.429-1.443
				c0.08-0.603,0.121-1.343,0.121-2.222c0-0.894-0.041-1.637-0.121-2.223c-0.081-0.59-0.224-1.063-0.429-1.416
				c-0.204-0.354-0.482-0.602-0.837-0.744c-0.353-0.144-0.802-0.215-1.35-0.215c-0.545,0-0.994,0.072-1.349,0.215
				c-0.353,0.142-0.632,0.39-0.836,0.744c-0.205,0.354-0.349,0.826-0.429,1.416c-0.081,0.586-0.121,1.33-0.121,2.223
				c0,0.879,0.04,1.619,0.121,2.222c0.08,0.604,0.224,1.083,0.429,1.443c0.204,0.359,0.483,0.617,0.836,0.771
				C216.824,93.028,217.273,93.105,217.818,93.105z"/>
			<path fill="#231F20" d="M228.983,95.134v-2.271l5.955-8.836h-5.675v-2.216h8.578v2.235l-6.029,8.873h6.159v2.215H228.983z"/>
			<path fill="#231F20" d="M246.901,92.325h-4.54l-0.743,2.809h-2.717l4.037-13.323h3.479l4.056,13.323h-2.792L246.901,92.325z
				 M242.957,90.148h3.349l-1.637-5.99h-0.093L242.957,90.148z"/>
			<path fill="#231F20" d="M256.092,95.134V81.811h2.587v13.323H256.092z"/>
			<path fill="#231F20" d="M260.873,95.134v-2.271l5.954-8.836h-5.676v-2.216h8.58v2.235l-6.029,8.873h6.158v2.215H260.873z"/>
			<path fill="#231F20" d="M276.616,95.358c-0.919,0-1.72-0.104-2.4-0.316c-0.683-0.21-1.25-0.577-1.702-1.098
				c-0.454-0.52-0.792-1.221-1.014-2.104c-0.224-0.878-0.335-1.988-0.335-3.33c0-1.339,0.111-2.453,0.335-3.34
				c0.223-0.886,0.56-1.596,1.014-2.132c0.452-0.531,1.02-0.908,1.702-1.125c0.681-0.218,1.481-0.325,2.4-0.325
				c0.905,0,1.696,0.107,2.373,0.325c0.674,0.217,1.239,0.592,1.692,1.118c0.452,0.525,0.791,1.231,1.014,2.112
				c0.224,0.879,0.334,1.983,0.334,3.311c0,1.353-0.107,2.473-0.324,3.36c-0.216,0.888-0.549,1.593-0.996,2.121
				c-0.446,0.527-1.011,0.896-1.692,1.106C278.335,95.253,277.534,95.358,276.616,95.358z M276.597,93.105
				c0.546,0,0.996-0.077,1.349-0.232c0.354-0.154,0.633-0.412,0.837-0.771c0.206-0.36,0.347-0.839,0.429-1.443
				c0.079-0.603,0.121-1.343,0.121-2.222c0-0.894-0.042-1.637-0.121-2.223c-0.082-0.59-0.223-1.063-0.429-1.416
				c-0.205-0.354-0.484-0.602-0.837-0.744c-0.353-0.144-0.803-0.215-1.349-0.215s-0.994,0.072-1.35,0.215
				c-0.353,0.142-0.633,0.39-0.835,0.744c-0.205,0.354-0.349,0.826-0.428,1.416c-0.081,0.586-0.121,1.33-0.121,2.223
				c0,0.879,0.04,1.619,0.121,2.222c0.079,0.604,0.224,1.083,0.428,1.443c0.203,0.359,0.483,0.617,0.835,0.771
				C275.603,93.028,276.051,93.105,276.597,93.105z"/>
			<path fill="#231F20" d="M293.863,91.452c0,1.327-0.388,2.272-1.162,2.835c-0.775,0.567-1.97,0.847-3.583,0.847h-4.782V81.811
				h4.727c0.831,0,1.535,0.069,2.112,0.207c0.577,0.135,1.044,0.343,1.405,0.622c0.359,0.28,0.62,0.637,0.78,1.07
				c0.162,0.435,0.243,0.956,0.243,1.564c0,0.473-0.043,0.873-0.131,1.199c-0.087,0.329-0.208,0.612-0.362,0.846
				c-0.155,0.238-0.338,0.428-0.549,0.578s-0.434,0.267-0.67,0.354v0.095c0.273,0.11,0.531,0.241,0.772,0.39
				c0.242,0.149,0.449,0.341,0.624,0.578c0.173,0.234,0.313,0.526,0.419,0.873C293.811,90.532,293.863,90.954,293.863,91.452z
				 M290.923,85.609c0-0.56-0.129-0.957-0.391-1.191c-0.26-0.237-0.738-0.355-1.433-0.355h-2.177v3.22h1.862
				c0.843,0,1.41-0.14,1.703-0.419C290.778,86.585,290.923,86.167,290.923,85.609z M291.184,91.209c0-0.286-0.034-0.537-0.102-0.754
				c-0.068-0.217-0.189-0.398-0.363-0.54c-0.172-0.142-0.409-0.251-0.706-0.326c-0.298-0.075-0.676-0.112-1.135-0.112h-1.955v3.405
				h2.382c0.708,0,1.198-0.14,1.472-0.419C291.048,92.187,291.184,91.768,291.184,91.209z"/>
			<path fill="#231F20" d="M305.419,85.775c0,0.93-0.167,1.713-0.504,2.344c-0.334,0.633-0.88,1.099-1.637,1.396l2.94,5.619h-2.977
				l-2.588-5.229h-1.971v5.229h-2.588V81.811h4.599c0.905,0,1.661,0.084,2.27,0.253c0.605,0.167,1.091,0.419,1.45,0.753
				c0.361,0.335,0.617,0.75,0.773,1.246C305.341,84.562,305.419,85.129,305.419,85.775z M302.776,85.85
				c0-0.721-0.169-1.203-0.502-1.452c-0.334-0.248-0.918-0.371-1.749-0.371h-1.842v3.757h1.842c0.446,0,0.816-0.033,1.107-0.1
				c0.292-0.07,0.521-0.18,0.688-0.328c0.168-0.148,0.286-0.348,0.354-0.595C302.741,86.514,302.776,86.21,302.776,85.85z"/>
			<path fill="#231F20" d="M314.722,92.325h-4.542l-0.742,2.809h-2.717l4.036-13.323h3.48l4.056,13.323h-2.791L314.722,92.325z
				 M310.776,90.148h3.351l-1.637-5.99h-0.094L310.776,90.148z"/>
			<path fill="#231F20" d="M319.168,95.134v-2.271l5.955-8.836h-5.676v-2.216h8.578v2.235l-6.029,8.873h6.159v2.215H319.168z
				 M321.327,77.476l2.455,1.453l2.511-1.47l0.913,1.543l-3.516,2.047l-3.406-1.936L321.327,77.476z"/>
			<path fill="#231F20" d="M330.276,95.134V81.811h8.521v2.252h-5.935v3.255h5.172v2.215h-5.172v3.35h5.935v2.251H330.276z"/>
			<path fill="#231F20" d="M347.319,95.134h-3.889l-3.609-13.323h2.735l2.828,11.072h0.093l2.846-11.072h2.624L347.319,95.134z"/>
			<path fill="#231F20" d="M358.504,92.325h-4.541l-0.744,2.809h-2.716l4.038-13.323h3.479l4.058,13.323h-2.792L358.504,92.325z
				 M354.558,90.148h3.35l-1.638-5.99h-0.093L354.558,90.148z"/>
			<path fill="#231F20" d="M366.039,85.144h-0.092v9.991h-2.309V81.811h3.425l4.503,10.291h0.092V81.811h2.309v13.323h-3.443
				L366.039,85.144z"/>
			<path fill="#231F20" d="M374.896,96.921c0.434-0.136,0.796-0.286,1.088-0.447c0.291-0.163,0.523-0.357,0.698-0.586
				c0.172-0.228,0.293-0.502,0.362-0.82c0.067-0.315,0.102-0.69,0.102-1.125V81.811h2.587V93.74c0,0.744-0.065,1.406-0.196,1.992
				c-0.129,0.581-0.353,1.092-0.67,1.524c-0.315,0.433-0.741,0.805-1.273,1.115c-0.534,0.309-1.198,0.566-1.991,0.765
				L374.896,96.921z"/>
			<path fill="#231F20" d="M382.542,95.134V81.811h8.522v2.252h-5.936v3.255h5.172v2.215h-5.172v3.35h5.936v2.251H382.542z"/>
			<path fill="#231F20" d="M394.804,97.982l-1.6-0.466l0.577-2.325l-0.652-0.168v-2.566h2.698v2.251L394.804,97.982z"/>
			<path fill="#231F20" d="M110.106,117.464v-2.271l5.955-8.84h-5.677v-2.212h8.578v2.231l-6.028,8.876h6.159v2.215H110.106z"/>
			<path fill="#231F20" d="M123.614,107.472h-0.092v9.992h-2.309v-13.322h3.426l4.502,10.29h0.091v-10.29h2.309v13.322h-3.442
				L123.614,107.472z"/>
			<path fill="#231F20" d="M141.104,114.653h-4.539l-0.744,2.811h-2.717l4.038-13.322h3.479l4.056,13.322h-2.791L141.104,114.653z
				 M137.159,112.478h3.351l-1.637-5.992h-0.095L137.159,112.478z"/>
			<path fill="#231F20" d="M148.64,107.472h-0.093v9.992h-2.308v-13.322h3.425l4.501,10.29h0.094v-10.29h2.308v13.322h-3.442
				L148.64,107.472z"/>
			<path fill="#231F20" d="M164.326,117.686c-0.919,0-1.72-0.104-2.4-0.315c-0.683-0.211-1.25-0.576-1.703-1.099
				c-0.453-0.519-0.792-1.22-1.014-2.102c-0.224-0.88-0.335-1.99-0.335-3.331c0-1.338,0.111-2.453,0.335-3.338
				c0.222-0.887,0.561-1.598,1.014-2.133c0.453-0.532,1.021-0.905,1.703-1.125c0.681-0.218,1.481-0.326,2.4-0.326
				c0.904,0,1.696,0.108,2.371,0.326c0.677,0.219,1.24,0.59,1.694,1.12c0.452,0.525,0.79,1.228,1.014,2.11
				c0.222,0.88,0.334,1.984,0.334,3.311c0,1.353-0.107,2.473-0.326,3.358c-0.216,0.888-0.547,1.595-0.996,2.122
				c-0.445,0.528-1.01,0.897-1.693,1.108C166.043,117.581,165.243,117.686,164.326,117.686z M164.307,115.434
				c0.547,0,0.995-0.077,1.35-0.233c0.353-0.156,0.632-0.413,0.837-0.77c0.204-0.36,0.348-0.841,0.428-1.442
				c0.08-0.603,0.122-1.343,0.122-2.226c0-0.891-0.042-1.633-0.122-2.222c-0.08-0.589-0.224-1.062-0.428-1.415
				c-0.205-0.353-0.484-0.602-0.837-0.743c-0.354-0.144-0.803-0.216-1.35-0.216c-0.545,0-0.994,0.072-1.351,0.216
				c-0.352,0.141-0.631,0.39-0.834,0.743c-0.207,0.353-0.349,0.825-0.428,1.415c-0.081,0.589-0.121,1.332-0.121,2.222
				c0,0.882,0.04,1.623,0.121,2.226c0.079,0.601,0.222,1.082,0.428,1.442c0.203,0.357,0.483,0.614,0.834,0.77
				C163.313,115.357,163.761,115.434,164.307,115.434z"/>
			<path fill="#231F20" d="M180.217,113.601c0,0.741-0.091,1.369-0.271,1.884c-0.18,0.514-0.472,0.936-0.875,1.263
				c-0.404,0.328-0.918,0.567-1.545,0.716c-0.625,0.147-1.386,0.222-2.279,0.222c-0.769,0-1.465-0.05-2.093-0.149
				c-0.626-0.099-1.213-0.235-1.758-0.41l0.465-2.231c0.509,0.172,1.08,0.317,1.711,0.428c0.634,0.111,1.24,0.167,1.823,0.167
				c0.31,0,0.597-0.024,0.857-0.075c0.26-0.048,0.483-0.136,0.669-0.26c0.186-0.124,0.332-0.296,0.437-0.52
				c0.105-0.224,0.159-0.503,0.159-0.839c0-0.259-0.039-0.482-0.112-0.669c-0.076-0.187-0.197-0.349-0.372-0.493
				c-0.174-0.143-0.403-0.272-0.689-0.391c-0.285-0.117-0.645-0.238-1.079-0.362c-0.609-0.175-1.148-0.362-1.619-0.569
				c-0.473-0.204-0.865-0.461-1.181-0.771c-0.317-0.311-0.559-0.685-0.726-1.126c-0.167-0.438-0.252-0.982-0.252-1.628
				c0-1.414,0.385-2.411,1.155-2.995c0.768-0.582,1.91-0.875,3.424-0.875c0.644,0,1.246,0.057,1.804,0.169
				c0.557,0.113,1.134,0.288,1.73,0.526l-0.315,2.151c-0.46-0.186-0.962-0.332-1.508-0.438c-0.546-0.104-1.098-0.158-1.657-0.158
				c-0.284,0-0.545,0.016-0.779,0.047c-0.237,0.03-0.44,0.1-0.615,0.206c-0.173,0.104-0.31,0.25-0.41,0.437
				c-0.099,0.185-0.148,0.435-0.148,0.741c0,0.313,0.05,0.571,0.148,0.781c0.101,0.21,0.248,0.39,0.446,0.539
				c0.199,0.15,0.444,0.278,0.736,0.39c0.292,0.111,0.635,0.225,1.033,0.333c0.681,0.199,1.258,0.404,1.73,0.613
				c0.472,0.211,0.848,0.465,1.135,0.764c0.284,0.295,0.492,0.649,0.624,1.057C180.151,112.485,180.217,112.992,180.217,113.601z"/>
			<path fill="#231F20" d="M186.988,106.391v11.073h-2.586v-11.073h-3.479v-2.25h9.545v2.25H186.988z"/>
			<path fill="#231F20" d="M196.31,117.464v-13.322h2.587v13.322H196.31z"/>
			<path fill="#231F20" d="M204.123,107.472h-0.091v9.992h-2.31v-13.322h3.426l4.502,10.29h0.092v-10.29h2.308v13.322h-3.442
				L204.123,107.472z"/>
			<path fill="#231F20" d="M227.16,113.601c0,0.741-0.09,1.369-0.271,1.884c-0.179,0.514-0.472,0.936-0.874,1.263
				c-0.403,0.328-0.918,0.567-1.544,0.716c-0.626,0.147-1.386,0.222-2.281,0.222c-0.768,0-1.465-0.05-2.092-0.149
				c-0.626-0.099-1.212-0.235-1.757-0.41l0.464-2.231c0.509,0.172,1.079,0.317,1.712,0.428c0.634,0.111,1.241,0.167,1.824,0.167
				c0.31,0,0.595-0.024,0.855-0.075c0.26-0.048,0.484-0.136,0.67-0.26c0.185-0.124,0.331-0.296,0.438-0.52
				c0.105-0.224,0.157-0.503,0.157-0.839c0-0.259-0.037-0.482-0.111-0.669c-0.074-0.187-0.198-0.349-0.371-0.493
				c-0.176-0.143-0.405-0.272-0.69-0.391c-0.285-0.117-0.645-0.238-1.079-0.362c-0.607-0.175-1.147-0.362-1.619-0.569
				c-0.471-0.204-0.865-0.461-1.182-0.771c-0.315-0.311-0.557-0.685-0.726-1.126c-0.166-0.438-0.25-0.982-0.25-1.628
				c0-1.414,0.384-2.411,1.151-2.995c0.771-0.582,1.912-0.875,3.426-0.875c0.644,0,1.246,0.057,1.804,0.169
				c0.559,0.113,1.136,0.288,1.732,0.526l-0.317,2.151c-0.46-0.186-0.962-0.332-1.508-0.438c-0.546-0.104-1.098-0.158-1.655-0.158
				c-0.286,0-0.547,0.016-0.781,0.047c-0.236,0.03-0.44,0.1-0.615,0.206c-0.173,0.104-0.31,0.25-0.409,0.437
				c-0.1,0.185-0.149,0.435-0.149,0.741c0,0.313,0.05,0.571,0.149,0.781c0.099,0.21,0.248,0.39,0.446,0.539
				c0.199,0.15,0.444,0.278,0.736,0.39c0.292,0.111,0.634,0.225,1.032,0.333c0.683,0.199,1.259,0.404,1.73,0.613
				c0.471,0.211,0.849,0.465,1.136,0.764c0.284,0.295,0.491,0.649,0.623,1.057C227.094,112.485,227.16,112.992,227.16,113.601z
				 M220.35,99.805l2.456,1.453l2.511-1.472l0.912,1.545l-3.517,2.046l-3.406-1.934L220.35,99.805z"/>
			<path fill="#231F20" d="M238.491,108.179c0,0.707-0.083,1.327-0.252,1.859c-0.167,0.534-0.436,0.981-0.808,1.34
				c-0.371,0.359-0.858,0.633-1.46,0.818c-0.603,0.187-1.337,0.281-2.206,0.281h-2.047v4.986h-2.586v-13.322h4.633
				c0.894,0,1.645,0.085,2.252,0.258c0.607,0.174,1.095,0.433,1.46,0.775c0.366,0.34,0.627,0.76,0.781,1.263
				C238.414,106.94,238.491,107.521,238.491,108.179z M235.85,108.298c0-0.37-0.038-0.679-0.112-0.924
				c-0.074-0.248-0.199-0.446-0.372-0.593c-0.174-0.15-0.407-0.252-0.698-0.307c-0.291-0.054-0.647-0.083-1.069-0.083h-1.88v3.833
				h1.88c0.447,0,0.812-0.034,1.098-0.102c0.285-0.069,0.515-0.178,0.688-0.333c0.173-0.153,0.295-0.35,0.363-0.593
				C235.814,108.956,235.85,108.657,235.85,108.298z"/>
			<path fill="#231F20" d="M245.115,117.686c-0.918,0-1.72-0.104-2.401-0.315c-0.681-0.211-1.25-0.576-1.702-1.099
				c-0.453-0.519-0.792-1.22-1.014-2.102c-0.225-0.88-0.336-1.99-0.336-3.331c0-1.338,0.111-2.453,0.336-3.338
				c0.222-0.887,0.561-1.598,1.014-2.133c0.452-0.532,1.021-0.905,1.702-1.125c0.681-0.218,1.482-0.326,2.401-0.326
				c0.905,0,1.696,0.108,2.373,0.326c0.676,0.219,1.24,0.59,1.692,1.12c0.452,0.525,0.791,1.228,1.014,2.11
				c0.223,0.88,0.336,1.984,0.336,3.311c0,1.353-0.109,2.473-0.326,3.358c-0.217,0.888-0.548,1.595-0.995,2.122
				c-0.447,0.528-1.012,0.897-1.693,1.108C246.833,117.581,246.032,117.686,245.115,117.686z M245.097,115.434
				c0.546,0,0.995-0.077,1.35-0.233c0.354-0.156,0.631-0.413,0.837-0.77c0.205-0.36,0.347-0.841,0.428-1.442
				c0.079-0.603,0.119-1.343,0.119-2.226c0-0.891-0.041-1.633-0.119-2.222c-0.081-0.589-0.224-1.062-0.428-1.415
				c-0.207-0.353-0.484-0.602-0.837-0.743c-0.354-0.144-0.804-0.216-1.35-0.216c-0.546,0-0.995,0.072-1.35,0.216
				c-0.354,0.141-0.634,0.39-0.838,0.743c-0.203,0.353-0.347,0.825-0.427,1.415c-0.081,0.589-0.121,1.332-0.121,2.222
				c0,0.882,0.04,1.623,0.121,2.226c0.08,0.601,0.224,1.082,0.427,1.442c0.204,0.357,0.484,0.614,0.838,0.77
				C244.102,115.357,244.55,115.434,245.097,115.434z"/>
			<path fill="#231F20" d="M262.158,108.102c0,0.933-0.167,1.713-0.502,2.347s-0.881,1.097-1.637,1.395l2.939,5.621h-2.976
				l-2.587-5.231h-1.972v5.231h-2.587v-13.322h4.597c0.906,0,1.661,0.082,2.271,0.251c0.606,0.166,1.091,0.417,1.451,0.752
				c0.36,0.336,0.616,0.75,0.772,1.247C262.081,106.889,262.158,107.458,262.158,108.102z M259.516,108.179
				c0-0.721-0.169-1.203-0.502-1.45c-0.335-0.251-0.918-0.375-1.748-0.375h-1.843v3.759h1.843c0.446,0,0.814-0.034,1.106-0.103
				c0.292-0.065,0.522-0.178,0.689-0.326c0.167-0.148,0.284-0.347,0.353-0.595C259.482,108.842,259.516,108.539,259.516,108.179z"/>
			<path fill="#231F20" d="M269.527,106.391v11.073h-2.587v-11.073h-3.479v-2.25h9.545v2.25H269.527z"/>
		</g>
	</g>
</g>
<g id="mreza">
</g>
<g id="Layer_1">
</g>
<g id="glava">
</g>
</svg>
