<?xml version="1.0" encoding="utf-8"?>
<!-- Generator: Adobe Illustrator 16.0.0, SVG Export Plug-In . SVG Version: 6.00 Build 0)  -->
<!DOCTYPE svg PUBLIC "-//W3C//DTD SVG 1.1//EN" "http://www.w3.org/Graphics/SVG/1.1/DTD/svg11.dtd">
<svg version="1.1" xmlns="http://www.w3.org/2000/svg" xmlns:xlink="http://www.w3.org/1999/xlink" x="0px" y="0px"
	 width="410.046px" height="159.373px" viewBox="0 0 410.046 159.373" enable-background="new 0 0 410.046 159.373"
	 xml:space="preserve">
<g id="gb">
	<rect y="0" opacity="0.95" fill="none" width="410.046" height="159.373"/>
	<g>
		<polygon fill="#034EA1" points="30.955,49.641 24.936,49.637 29.823,53.148 		"/>
		<g>
			<polygon fill="#034EA1" points="92.889,64.533 119.553,64.533 119.553,43.886 72.245,43.886 72.245,91.197 92.889,91.197 			"/>
			<g>
				<polygon fill="#FFF100" points="80.11,43.889 78.264,49.641 72.245,49.637 77.13,53.148 75.297,58.826 80.11,55.313 
					84.918,58.826 83.089,53.148 87.977,49.637 81.956,49.637 				"/>
				<polygon fill="#034EA1" points="30.955,49.641 24.936,49.637 29.823,53.148 				"/>
				<polygon fill="#034EA1" points="47.405,49.637 45.563,43.889 43.715,49.641 37.695,49.637 42.578,53.148 45.563,55.313 
					50.37,58.826 48.541,53.148 				"/>
				<g>
					<g>
						<polygon fill="#034EA1" points="69.201,49.637 63.177,49.637 61.331,43.889 59.485,49.641 53.465,49.637 58.349,53.148 
							61.331,55.313 66.142,58.826 64.311,53.148 						"/>
					</g>
				</g>
			</g>
			<g>
				<g>
					<path fill="#FFF100" d="M119.553,83.641"/>
				</g>
				<g>
					<rect x="95.899" y="67.543" fill="#034EA1" width="47.308" height="31.533"/>
					<path fill="#FFF100" d="M119.553,83.307"/>
				</g>
				<g>
					<polygon fill="#FFF100" points="118.541,74.414 119.538,73.685 120.54,74.414 120.16,73.226 121.175,72.497 119.925,72.497 
						119.538,71.309 119.158,72.497 117.912,72.497 118.93,73.226 					"/>
					<polygon fill="#FFF100" points="113.378,75.8 114.381,75.07 115.375,75.8 114.995,74.62 116.005,73.891 114.754,73.891 
						114.371,72.687 113.994,73.891 112.747,73.891 113.758,74.62 					"/>
					<polygon fill="#FFF100" points="110.598,76.484 110.213,77.669 108.963,77.669 109.974,78.404 109.6,79.585 110.598,78.863 
						111.603,79.585 111.215,78.404 112.231,77.669 110.979,77.669 					"/>
					<polygon fill="#FFF100" points="109.214,84.022 110.206,84.747 109.829,83.567 110.843,82.84 109.591,82.84 109.214,81.643 
						108.825,82.84 107.574,82.84 108.597,83.567 108.209,84.747 					"/>
					<polygon fill="#FFF100" points="110.979,88.013 110.598,86.818 110.213,88.015 108.963,88.013 109.974,88.74 109.6,89.92 
						110.598,89.192 111.603,89.92 111.215,88.74 112.231,88.013 					"/>
					<polygon fill="#FFF100" points="114.762,91.799 114.388,90.608 114.007,91.799 112.75,91.799 113.765,92.532 113.383,93.709 
						114.388,92.977 115.384,93.709 115.004,92.532 116.013,91.799 					"/>
					<polygon fill="#FFF100" points="119.926,93.178 119.545,91.981 119.158,93.178 117.912,93.178 118.93,93.902 118.55,95.079 
						119.545,94.36 120.54,95.079 120.16,93.902 121.175,93.178 					"/>
					<polygon fill="#FFF100" points="125.082,91.799 124.706,90.608 124.32,91.799 123.07,91.799 124.083,92.532 123.704,93.709 
						124.706,92.977 125.695,93.709 125.323,92.532 126.333,91.799 					"/>
					<polygon fill="#FFF100" points="128.872,88.013 128.491,86.818 128.108,88.015 126.862,88.013 127.872,88.74 127.49,89.92 
						128.491,89.192 129.492,89.92 129.107,88.74 130.127,88.013 					"/>
					<polygon fill="#FFF100" points="131.493,82.824 130.245,82.824 129.862,81.631 129.479,82.825 128.234,82.824 129.243,83.557 
						128.861,84.727 129.862,83.999 130.861,84.727 130.48,83.557 					"/>
					<polygon fill="#FFF100" points="127.49,79.57 128.491,78.844 129.492,79.57 129.107,78.394 130.127,77.664 128.872,77.664 
						128.491,76.479 128.108,77.664 126.862,77.664 127.872,78.394 					"/>
					<polygon fill="#FFF100" points="124.714,72.699 124.334,73.891 123.085,73.891 124.101,74.62 123.723,75.8 124.714,75.07 
						125.718,75.8 125.339,74.62 126.351,73.891 125.099,73.891 					"/>
				</g>
			</g>
		</g>
		<g>
			<path fill="#231F20" d="M153.472,118.864h-4.161v-8.356h3.962v0.343h-3.574v3.431h3.375v0.344h-3.375v3.896h3.773V118.864z"/>
			<path fill="#231F20" d="M158.862,112.931l-2.436,5.934h-0.332l-2.369-5.934h0.465l1.473,3.843
				c0.243,0.597,0.443,1.06,0.606,1.568h0.023c0.178-0.495,0.387-0.995,0.632-1.568l1.503-3.843H158.862z"/>
			<path fill="#231F20" d="M161.994,113.177c-0.101-0.012-0.155-0.024-0.255-0.024c-0.961,0-1.648,1.062-1.648,2.391v3.321h-0.388
				v-4.185c0-0.541-0.011-1.172-0.045-1.749h0.366l0.024,1.243h0.032c0.243-0.732,0.852-1.374,1.693-1.374
				c0.079,0,0.145,0.011,0.222,0.033V113.177z"/>
			<path fill="#231F20" d="M167.802,115.842c0,2.226-1.516,3.153-2.778,3.153c-1.516,0-2.677-1.194-2.677-3.042
				c0-2.047,1.337-3.153,2.745-3.153C166.741,112.8,167.802,114.048,167.802,115.842z M165.103,113.12
				c-1.562,0-2.357,1.395-2.357,2.799c0,1.473,1.006,2.757,2.291,2.757c1.296,0,2.368-1.152,2.368-2.789
				C167.404,114.625,166.718,113.12,165.103,113.12z"/>
			<path fill="#231F20" d="M169.441,114.115c0.466-0.874,1.362-1.315,2.225-1.315c1.56,0,2.567,1.284,2.567,2.997
				c0,2.149-1.284,3.199-2.7,3.199c-0.842,0-1.66-0.432-2.092-1.171h-0.023v3.494h-0.386v-6.505c0-0.739-0.013-1.318-0.045-1.883
				h0.398l0.032,1.184H169.441z M169.418,116.529c0,1.272,1.096,2.147,2.137,2.147c1.439,0,2.28-1.228,2.28-2.86
				c0-1.489-0.831-2.695-2.203-2.695c-1.383,0-2.214,1.308-2.214,2.246V116.529z"/>
			<path fill="#231F20" d="M177.962,113.496c-0.321-0.232-0.708-0.375-1.096-0.375c-0.807,0-1.295,0.554-1.295,1.129
				c0,0.675,0.443,0.996,1.262,1.339c0.94,0.374,1.517,0.829,1.517,1.736c0,1.031-0.819,1.661-1.914,1.661
				c-0.553,0-1.041-0.152-1.451-0.422l0.188-0.32c0.333,0.212,0.875,0.42,1.284,0.42c0.753,0,1.496-0.463,1.496-1.272
				c0-0.709-0.433-1.106-1.309-1.46c-0.951-0.377-1.471-0.873-1.471-1.583c0-0.816,0.63-1.549,1.727-1.549
				c0.531,0,0.963,0.175,1.262,0.396L177.962,113.496z"/>
			<path fill="#231F20" d="M183.715,118.864h-0.487l-2.565-3.221l-0.632,0.642v2.579h-0.386v-8.799h0.386v5.799h0.023
				c0.144-0.164,0.409-0.432,0.596-0.629l2.225-2.305h0.497l-2.444,2.471L183.715,118.864z"/>
			<path fill="#231F20" d="M184.514,111.667c-0.232,0-0.388-0.206-0.388-0.438c0-0.234,0.166-0.443,0.397-0.443
				c0.234,0,0.389,0.199,0.389,0.443C184.912,111.494,184.746,111.667,184.514,111.667z M184.712,118.864h-0.387v-5.934h0.387
				V118.864z"/>
			<path fill="#231F20" d="M191.174,113.496c-0.32-0.232-0.708-0.375-1.094-0.375c-0.808,0-1.296,0.554-1.296,1.129
				c0,0.675,0.444,0.996,1.264,1.339c0.939,0.374,1.515,0.829,1.515,1.736c0,1.031-0.818,1.661-1.914,1.661
				c-0.554,0-1.041-0.152-1.45-0.422l0.188-0.32c0.332,0.212,0.875,0.42,1.284,0.42c0.751,0,1.493-0.463,1.493-1.272
				c0-0.709-0.433-1.106-1.307-1.46c-0.952-0.377-1.47-0.873-1.47-1.583c0-0.816,0.629-1.549,1.725-1.549
				c0.531,0,0.964,0.175,1.261,0.396L191.174,113.496z"/>
			<path fill="#231F20" d="M197.792,115.842c0,2.226-1.516,3.153-2.779,3.153c-1.515,0-2.676-1.194-2.676-3.042
				c0-2.047,1.338-3.153,2.745-3.153C196.729,112.8,197.792,114.048,197.792,115.842z M195.093,113.12
				c-1.562,0-2.357,1.395-2.357,2.799c0,1.473,1.007,2.757,2.292,2.757c1.293,0,2.368-1.152,2.368-2.789
				C197.395,114.625,196.708,113.12,195.093,113.12z"/>
			<path fill="#231F20" d="M203.071,118.563c-0.243,0.122-0.864,0.422-1.748,0.422c-1.682,0-2.801-1.26-2.801-3.022
				c0-1.915,1.296-3.163,2.999-3.163c0.499,0,1.219,0.142,1.573,0.429l-0.178,0.289c-0.277-0.166-0.741-0.397-1.406-0.397
				c-1.683,0-2.589,1.339-2.589,2.799c0,1.626,1.028,2.745,2.468,2.745c0.752,0,1.207-0.242,1.527-0.388L203.071,118.563z"/>
			<path fill="#231F20" d="M204.421,111.667c-0.232,0-0.388-0.206-0.388-0.438c0-0.234,0.166-0.443,0.398-0.443
				c0.232,0,0.388,0.199,0.388,0.443C204.82,111.494,204.654,111.667,204.421,111.667z M204.62,118.864h-0.387v-5.934h0.387V118.864
				z"/>
			<path fill="#231F20" d="M209.854,117.458c0,0.466,0.011,0.931,0.088,1.407h-0.364l-0.088-0.896h-0.023
				c-0.276,0.454-0.942,1.028-1.914,1.028c-1.195,0-1.715-0.828-1.715-1.591c0-1.34,1.172-2.181,3.629-2.148
				c0-0.675,0-2.126-1.595-2.126c-0.496,0-1.03,0.167-1.461,0.478l-0.154-0.29c0.553-0.387,1.194-0.518,1.649-0.518
				c1.671,0,1.947,1.306,1.947,2.312V117.458z M209.456,115.599c-1.15-0.023-3.221,0.157-3.221,1.738
				c0,0.919,0.643,1.339,1.296,1.339c1.407,0,1.925-1.163,1.925-1.647V115.599z"/>
			<path fill="#231F20" d="M211.922,118.864h-0.386v-8.799h0.386V118.864z"/>
			<path fill="#231F20" d="M218.176,118.864h-0.387v-3.531c0-1.141-0.442-2.204-1.749-2.204c-1.183,0-1.991,1.108-1.991,2.027v3.708
				h-0.387v-4.593c0-0.508-0.011-0.887-0.045-1.341h0.376l0.033,1.106h0.023c0.419-0.761,1.173-1.237,2.079-1.237
				c0.466,0,2.048,0.208,2.048,2.502V118.864z"/>
			<path fill="#231F20" d="M220.067,111.667c-0.229,0-0.386-0.206-0.386-0.438c0-0.234,0.166-0.443,0.398-0.443
				s0.387,0.199,0.387,0.443C220.466,111.494,220.302,111.667,220.067,111.667z M220.268,118.864h-0.387v-5.934h0.387V118.864z"/>
			<path fill="#231F20" d="M226.731,113.496c-0.322-0.232-0.709-0.375-1.095-0.375c-0.809,0-1.296,0.554-1.296,1.129
				c0,0.675,0.444,0.996,1.262,1.339c0.941,0.374,1.516,0.829,1.516,1.736c0,1.031-0.817,1.661-1.914,1.661
				c-0.553,0-1.041-0.152-1.451-0.422l0.189-0.32c0.332,0.212,0.875,0.42,1.283,0.42c0.751,0,1.493-0.463,1.493-1.272
				c0-0.709-0.431-1.106-1.305-1.46c-0.952-0.377-1.471-0.873-1.471-1.583c0-0.816,0.629-1.549,1.726-1.549
				c0.53,0,0.963,0.175,1.26,0.396L226.731,113.496z"/>
			<path fill="#231F20" d="M232.485,118.864h-0.488l-2.565-3.221l-0.632,0.642v2.579h-0.389v-8.799h0.389v5.799h0.022
				c0.144-0.164,0.41-0.432,0.597-0.629l2.225-2.305h0.498l-2.446,2.471L232.485,118.864z"/>
			<path fill="#231F20" d="M233.481,118.864h-0.388v-8.799h0.388V118.864z"/>
			<path fill="#231F20" d="M238.706,117.458c0,0.466,0.01,0.931,0.088,1.407h-0.366l-0.089-0.896h-0.022
				c-0.276,0.454-0.941,1.028-1.915,1.028c-1.194,0-1.714-0.828-1.714-1.591c0-1.34,1.172-2.181,3.629-2.148
				c0-0.675,0-2.126-1.594-2.126c-0.498,0-1.028,0.167-1.461,0.478l-0.154-0.29c0.553-0.387,1.195-0.518,1.647-0.518
				c1.672,0,1.951,1.306,1.951,2.312V117.458z M238.306,115.599c-1.151-0.023-3.22,0.157-3.22,1.738
				c0,0.919,0.642,1.339,1.293,1.339c1.407,0,1.926-1.163,1.926-1.647V115.599z"/>
			<path fill="#231F20" d="M244.956,117.545c0,0.388,0.023,0.898,0.057,1.319h-0.366l-0.031-1.184h-0.035
				c-0.354,0.796-1.238,1.315-2.148,1.315c-1.469,0-2.542-1.229-2.555-2.987c-0.01-1.981,1.207-3.209,2.677-3.209
				c0.754,0,1.629,0.419,1.983,1.106h0.032v-3.841h0.387V117.545z M244.569,115.267c0-1.23-0.873-2.146-2.025-2.146
				c-1.362,0-2.269,1.196-2.269,2.833c0,1.36,0.775,2.723,2.226,2.723c1.282,0,2.067-1.218,2.067-2.191V115.267z"/>
		</g>
		<g>
			<path fill="#231F20" d="M152.04,99.027c2.488,0,4.348,1.576,4.348,4.151c0,2.48-1.748,4.525-4.415,4.525
				c-3.031,0-4.291-2.356-4.291-4.346C147.682,101.562,148.988,99.027,152.04,99.027z M152.27,107.284
				c0.999,0,3.057-0.576,3.057-3.793c0-2.657-1.617-4.085-3.365-4.085c-1.848,0-3.23,1.217-3.23,3.641
				C148.731,105.624,150.28,107.284,152.27,107.284z"/>
			<path fill="#231F20" d="M157.339,103.156c0-1.46,0-1.727-0.022-2.026c-0.023-0.317-0.077-0.474-0.4-0.519
				c-0.074-0.008-0.242-0.021-0.33-0.021c-0.033,0-0.078-0.045-0.078-0.075c0-0.058,0.045-0.082,0.155-0.082
				c0.443,0,1.051,0.024,1.128,0.024c0.209,0,0.94-0.024,1.384-0.024c1.25,0,1.692,0.389,1.858,0.533
				c0.222,0.2,0.488,0.619,0.488,1.131c0,1.348-1.018,2.242-2.514,2.242c-0.055,0-0.219,0-0.275-0.007c-0.045,0-0.1-0.046-0.1-0.088
				c0-0.08,0.054-0.101,0.254-0.101c1.051,0,1.803-0.664,1.803-1.515c0-0.31-0.032-0.918-0.552-1.43
				c-0.508-0.508-1.095-0.454-1.315-0.454c-0.167,0-0.442,0.045-0.544,0.07c-0.054,0.009-0.077,0.075-0.077,0.175v3.83
				c0,0.904,0,1.646,0.044,2.033c0.033,0.277,0.089,0.454,0.387,0.5c0.133,0.022,0.343,0.044,0.432,0.044
				c0.055,0,0.077,0.045,0.077,0.077c0,0.043-0.046,0.076-0.154,0.076c-0.531,0-1.173-0.033-1.215-0.033
				c-0.037,0-0.665,0.033-0.964,0.033c-0.099,0-0.156-0.021-0.156-0.076c0-0.032,0.023-0.077,0.079-0.077
				c0.089,0,0.209-0.021,0.298-0.044c0.189-0.046,0.211-0.223,0.255-0.5c0.055-0.387,0.055-1.128,0.055-2.033V103.156z"/>
			<path fill="#231F20" d="M162.563,103.156c0-1.46,0-1.727-0.023-2.026c-0.023-0.317-0.078-0.474-0.398-0.519
				c-0.08-0.008-0.245-0.021-0.333-0.021c-0.033,0-0.078-0.045-0.078-0.075c0-0.058,0.044-0.082,0.155-0.082
				c0.442,0,1.073,0.024,1.128,0.024c0.067,0,2.102,0.012,2.324,0c0.187-0.011,0.364-0.044,0.441-0.055
				c0.045-0.013,0.088-0.05,0.134-0.05c0.033,0,0.043,0.05,0.043,0.093c0,0.069-0.055,0.176-0.075,0.443
				c-0.013,0.09-0.035,0.509-0.057,0.62c-0.012,0.042-0.045,0.099-0.088,0.099c-0.056,0-0.079-0.045-0.079-0.123
				c0-0.063-0.011-0.218-0.056-0.331c-0.065-0.154-0.164-0.22-0.696-0.287c-0.166-0.021-1.293-0.034-1.404-0.034
				c-0.046,0-0.057,0.034-0.057,0.1v2.557c0,0.063,0,0.095,0.057,0.095c0.12,0,1.404,0,1.625-0.02
				c0.233-0.021,0.377-0.035,0.475-0.133c0.067-0.066,0.112-0.119,0.145-0.119c0.033,0,0.056,0.02,0.056,0.075
				c0,0.056-0.056,0.21-0.077,0.521c-0.023,0.188-0.044,0.54-0.044,0.607c0,0.076-0.023,0.177-0.088,0.177
				c-0.045,0-0.067-0.033-0.067-0.088c0-0.089,0-0.187-0.043-0.31c-0.033-0.133-0.122-0.243-0.497-0.288
				c-0.266-0.032-1.306-0.044-1.473-0.044c-0.056,0-0.067,0.033-0.067,0.066v0.788c0,0.318-0.011,1.415,0,1.604
				c0.023,0.629,0.201,0.75,1.163,0.75c0.253,0,0.72,0,0.973-0.1c0.254-0.111,0.387-0.274,0.444-0.65
				c0.02-0.112,0.042-0.146,0.098-0.146c0.055,0,0.066,0.079,0.066,0.146c0,0.064-0.075,0.706-0.132,0.905
				c-0.066,0.243-0.167,0.243-0.543,0.243c-0.73,0-1.293-0.022-1.691-0.033c-0.41-0.022-0.665-0.022-0.809-0.022
				c-0.022,0-0.209,0-0.421,0.012c-0.188,0.01-0.408,0.021-0.564,0.021c-0.098,0-0.154-0.021-0.154-0.076
				c0-0.032,0.021-0.077,0.077-0.077c0.089,0,0.211-0.036,0.3-0.044c0.187-0.032,0.209-0.223,0.253-0.5
				c0.058-0.387,0.058-1.128,0.058-2.033V103.156z"/>
			<path fill="#231F20" d="M167.549,103.156c0-1.46,0-1.727-0.021-2.026c-0.023-0.317-0.078-0.474-0.398-0.519
				c-0.078-0.008-0.244-0.021-0.333-0.021c-0.03,0-0.075-0.045-0.075-0.075c0-0.058,0.045-0.082,0.154-0.082
				c0.441,0,1.095,0.024,1.15,0.024c0.102,0,0.917-0.024,1.219-0.024c0.618,0,1.304,0.057,1.812,0.412
				c0.244,0.176,0.676,0.631,0.676,1.282c0,0.698-0.29,1.372-1.196,2.146c0.796,0.996,1.473,1.845,2.036,2.434
				c0.521,0.531,0.841,0.619,1.084,0.651c0.188,0.036,0.289,0.036,0.343,0.036c0.056,0,0.088,0.045,0.088,0.077
				c0,0.056-0.055,0.076-0.232,0.076h-0.608c-0.554,0-0.797-0.055-1.041-0.189c-0.42-0.22-0.774-0.672-1.328-1.378
				c-0.409-0.511-0.839-1.12-1.051-1.375c-0.044-0.045-0.066-0.054-0.133-0.054l-1.239-0.025c-0.043,0-0.066,0.025-0.066,0.079
				v0.219c0,0.91,0,1.64,0.045,2.027c0.032,0.277,0.089,0.454,0.386,0.5c0.135,0.022,0.344,0.044,0.432,0.044
				c0.066,0,0.078,0.045,0.078,0.077c0,0.043-0.045,0.076-0.155,0.076c-0.53,0-1.151-0.033-1.195-0.033
				c-0.011,0-0.665,0.033-0.962,0.033c-0.101,0-0.155-0.021-0.155-0.076c0-0.032,0.021-0.077,0.075-0.077
				c0.089,0,0.212-0.021,0.3-0.044c0.188-0.046,0.21-0.223,0.254-0.5c0.055-0.387,0.055-1.128,0.055-2.033V103.156z
				 M168.391,103.955c0,0.053,0.023,0.087,0.066,0.12c0.144,0.078,0.643,0.143,1.073,0.143c0.233,0,0.499-0.009,0.729-0.165
				c0.335-0.222,0.589-0.719,0.589-1.437c0-1.175-0.641-1.849-1.682-1.849c-0.288,0-0.598,0.033-0.698,0.055
				c-0.045,0.023-0.077,0.058-0.077,0.111V103.955z"/>
			<path fill="#231F20" d="M175.417,100.622c0.121-0.306,0.166-0.365,0.232-0.365c0.1,0,0.132,0.133,0.233,0.347
				c0.177,0.396,1.734,4.28,2.333,5.706c0.354,0.841,0.619,0.964,0.83,1.028c0.143,0.046,0.287,0.057,0.388,0.057
				c0.055,0,0.12,0.017,0.12,0.077c0,0.056-0.111,0.076-0.221,0.076c-0.144,0-0.863,0-1.537-0.021
				c-0.19-0.012-0.343-0.012-0.343-0.066c0-0.05,0.021-0.05,0.065-0.066c0.056-0.021,0.156-0.099,0.088-0.256l-0.874-2.157
				c-0.021-0.042-0.032-0.056-0.088-0.056h-2.246c-0.045,0-0.078,0.023-0.101,0.079l-0.552,1.503
				c-0.089,0.235-0.145,0.463-0.145,0.63c0,0.188,0.168,0.256,0.334,0.256h0.089c0.075,0,0.098,0.031,0.098,0.077
				c0,0.056-0.055,0.076-0.145,0.076c-0.232,0-0.762-0.033-0.873-0.033c-0.1,0-0.587,0.033-0.985,0.033
				c-0.122,0-0.187-0.021-0.187-0.076c0-0.046,0.043-0.077,0.087-0.077c0.067,0,0.21-0.011,0.288-0.021
				c0.443-0.055,0.63-0.389,0.82-0.865L175.417,100.622z M176.5,104.539c0.044,0,0.044-0.022,0.033-0.068l-0.963-2.576
				c-0.055-0.144-0.111-0.144-0.167,0l-0.907,2.576c-0.009,0.045,0,0.068,0.033,0.068H176.5z"/>
			<path fill="#231F20" d="M179.808,106.664c-0.95-0.818-1.184-1.892-1.184-2.788c0-0.631,0.234-1.725,1.096-2.567
				c0.585-0.565,1.473-1.011,2.965-1.011c0.386,0,0.939,0.038,1.416,0.115c0.364,0.065,0.674,0.132,0.995,0.144
				c0.1,0,0.122,0.046,0.122,0.1c0,0.073-0.022,0.188-0.043,0.531c-0.013,0.31-0.013,0.831-0.022,0.963
				c-0.013,0.143-0.056,0.196-0.111,0.196c-0.065,0-0.078-0.064-0.078-0.196c0-0.364-0.155-0.742-0.409-0.94
				c-0.343-0.288-1.051-0.521-1.916-0.521c-1.248,0-1.845,0.332-2.188,0.653c-0.72,0.662-0.875,1.505-0.875,2.455
				c0,1.805,1.428,3.407,3.508,3.407c0.729,0,1.215-0.055,1.604-0.441c0.209-0.21,0.343-0.61,0.375-0.784
				c0.024-0.102,0.033-0.135,0.099-0.135c0.046,0,0.089,0.066,0.089,0.135c0,0.065-0.131,0.884-0.232,1.204
				c-0.055,0.175-0.076,0.211-0.243,0.277c-0.399,0.154-1.128,0.208-1.76,0.208C181.556,107.668,180.572,107.327,179.808,106.664z"
				/>
			<path fill="#231F20" d="M187.342,104.818c0,0.904,0,1.646,0.046,2.033c0.032,0.277,0.067,0.454,0.354,0.5
				c0.145,0.022,0.354,0.044,0.441,0.044c0.056,0,0.079,0.045,0.079,0.077c0,0.043-0.045,0.076-0.155,0.076
				c-0.542,0-1.174-0.033-1.217-0.033c-0.055,0-0.664,0.033-0.965,0.033c-0.098,0-0.151-0.021-0.151-0.076
				c0-0.032,0.02-0.077,0.075-0.077c0.09,0,0.212-0.021,0.3-0.044c0.189-0.046,0.223-0.223,0.255-0.5
				c0.044-0.387,0.056-1.128,0.056-2.033v-1.662c0-1.46,0-1.727-0.023-2.026c-0.022-0.317-0.099-0.463-0.311-0.509
				c-0.109-0.018-0.231-0.032-0.297-0.032c-0.044,0-0.077-0.045-0.077-0.075c0-0.058,0.042-0.082,0.155-0.082
				c0.321,0,0.93,0.024,0.985,0.024c0.043,0,0.675-0.024,0.973-0.024c0.109,0,0.153,0.024,0.153,0.082
				c0,0.03-0.044,0.075-0.076,0.075c-0.067,0-0.134,0-0.243,0.021c-0.267,0.056-0.322,0.189-0.344,0.519
				c-0.011,0.299-0.011,0.565-0.011,2.026V104.818z"/>
			<path fill="#231F20" d="M190.539,105.414c0,1.526-0.033,2.114-0.321,2.778c-0.209,0.476-0.642,0.917-1.426,1.436
				c-0.133,0.092-0.3,0.191-0.397,0.243c-0.012,0-0.035,0.013-0.068,0.013c-0.022,0-0.064-0.013-0.064-0.057
				c0-0.053,0.032-0.098,0.121-0.155c0.121-0.066,0.255-0.174,0.343-0.254c0.63-0.629,0.929-1.116,0.929-3.54v-2.722
				c0-1.46,0-1.727-0.022-2.026c-0.022-0.317-0.079-0.474-0.398-0.519c-0.078-0.008-0.243-0.021-0.331-0.021
				c-0.034,0-0.079-0.045-0.079-0.075c0-0.058,0.045-0.082,0.156-0.082c0.442,0,1.072,0.024,1.126,0.024
				c0.046,0,0.655-0.024,0.953-0.024c0.111,0,0.153,0.024,0.153,0.082c0,0.03-0.042,0.075-0.076,0.075c-0.068,0-0.134,0-0.243,0.021
				c-0.267,0.056-0.323,0.189-0.345,0.519c-0.01,0.299-0.01,0.565-0.01,2.026V105.414z"/>
			<path fill="#231F20" d="M195.284,100.298c2.192,0,3.853,1.343,3.853,3.533c0,2.101-1.562,3.837-3.907,3.837
				c-2.664,0-3.805-2.001-3.805-3.692C191.424,102.46,192.597,100.298,195.284,100.298z M195.507,107.284
				c0.874,0,2.634-0.467,2.634-3.187c0-2.257-1.375-3.44-2.912-3.44c-1.625,0-2.799,1.018-2.799,3.063
				C192.43,105.911,193.748,107.284,195.507,107.284z"/>
			<path fill="#231F20" d="M202.854,103.156c0-1.46,0-1.727-0.023-2.026c-0.023-0.317-0.078-0.474-0.399-0.519
				c-0.077-0.008-0.242-0.021-0.332-0.021c-0.032,0-0.077-0.045-0.077-0.075c0-0.058,0.045-0.082,0.157-0.082
				c0.441,0,1.071,0.024,1.125,0.024c0.112,0,0.731-0.024,1.307-0.024c0.975,0,2.755-0.085,3.907,1.076
				c0.485,0.486,0.95,1.269,0.95,2.391c0,1.181-0.507,2.089-1.051,2.643c-0.418,0.428-1.293,1.084-2.955,1.084
				c-0.418,0-0.937-0.034-1.359-0.058c-0.42-0.033-0.752-0.055-0.798-0.055c-0.02,0-0.197,0.012-0.396,0.012
				c-0.2,0.01-0.432,0.021-0.585,0.021c-0.102,0-0.157-0.021-0.157-0.076c0-0.032,0.023-0.077,0.078-0.077
				c0.09,0,0.21-0.021,0.299-0.044c0.189-0.046,0.21-0.223,0.255-0.5c0.056-0.387,0.056-1.128,0.056-2.033V103.156z
				 M203.737,104.174c0,0.995,0,1.871,0.012,2.049c0.011,0.232,0.032,0.575,0.109,0.674c0.124,0.176,0.464,0.377,1.617,0.377
				c0.896,0,1.691-0.303,2.28-0.852c0.507-0.478,0.763-1.374,0.763-2.239c0-1.192-0.52-1.956-0.919-2.352
				c-0.918-0.932-1.991-1.053-3.154-1.053c-0.187,0-0.496,0.035-0.586,0.067c-0.088,0.035-0.121,0.077-0.121,0.187V104.174z"/>
			<path fill="#231F20" d="M210.596,103.156c0-1.46,0-1.727-0.021-2.026c-0.023-0.317-0.076-0.474-0.398-0.519
				c-0.077-0.008-0.244-0.021-0.332-0.021c-0.034,0-0.078-0.045-0.078-0.075c0-0.058,0.044-0.082,0.156-0.082
				c0.441,0,1.073,0.024,1.129,0.024c0.065,0,2.101,0.012,2.324,0c0.186-0.011,0.363-0.044,0.441-0.055
				c0.043-0.013,0.088-0.05,0.132-0.05c0.036,0,0.045,0.05,0.045,0.093c0,0.069-0.055,0.176-0.079,0.443
				c-0.01,0.09-0.032,0.509-0.055,0.62c-0.009,0.042-0.043,0.099-0.088,0.099c-0.056,0-0.076-0.045-0.076-0.123
				c0-0.063-0.013-0.218-0.056-0.331c-0.066-0.154-0.166-0.22-0.696-0.287c-0.167-0.021-1.296-0.034-1.406-0.034
				c-0.045,0-0.055,0.034-0.055,0.1v2.557c0,0.063,0,0.095,0.055,0.095c0.121,0,1.406,0,1.625-0.02
				c0.233-0.021,0.378-0.035,0.477-0.133c0.067-0.066,0.11-0.119,0.144-0.119c0.033,0,0.056,0.02,0.056,0.075
				c0,0.056-0.056,0.21-0.078,0.521c-0.023,0.188-0.045,0.54-0.045,0.607c0,0.076-0.021,0.177-0.089,0.177
				c-0.042,0-0.066-0.033-0.066-0.088c0-0.089,0-0.187-0.043-0.31c-0.033-0.133-0.122-0.243-0.499-0.288
				c-0.266-0.032-1.304-0.044-1.472-0.044c-0.054,0-0.064,0.033-0.064,0.066v0.788c0,0.318-0.012,1.415,0,1.604
				c0.022,0.629,0.197,0.75,1.161,0.75c0.253,0,0.717,0,0.973-0.1c0.255-0.111,0.387-0.274,0.442-0.65
				c0.023-0.112,0.045-0.146,0.098-0.146c0.057,0,0.068,0.079,0.068,0.146c0,0.064-0.079,0.706-0.133,0.905
				c-0.067,0.243-0.167,0.243-0.542,0.243c-0.731,0-1.295-0.022-1.692-0.033c-0.411-0.022-0.663-0.022-0.807-0.022
				c-0.023,0-0.211,0-0.422,0.012c-0.189,0.01-0.409,0.021-0.563,0.021c-0.101,0-0.155-0.021-0.155-0.076
				c0-0.032,0.021-0.077,0.076-0.077c0.088,0,0.211-0.036,0.298-0.044c0.189-0.032,0.212-0.223,0.255-0.5
				c0.055-0.387,0.055-1.128,0.055-2.033V103.156z"/>
			<path fill="#231F20" d="M216.471,104.84c0,1.383,0.023,1.945,0.2,2.11c0.155,0.155,0.53,0.222,1.294,0.222
				c0.508,0,0.94-0.012,1.172-0.287c0.122-0.142,0.2-0.342,0.232-0.53c0.012-0.066,0.045-0.122,0.098-0.122
				c0.045,0,0.068,0.043,0.068,0.143c0,0.101-0.068,0.662-0.145,0.942c-0.065,0.219-0.101,0.251-0.619,0.251
				c-0.698,0-1.238-0.009-1.693-0.033c-0.442-0.01-0.774-0.022-1.061-0.022c-0.046,0-0.212,0-0.399,0.012
				c-0.2,0.01-0.409,0.021-0.564,0.021c-0.1,0-0.156-0.021-0.156-0.076c0-0.032,0.023-0.077,0.079-0.077
				c0.088,0,0.209-0.021,0.298-0.044c0.188-0.046,0.21-0.223,0.255-0.5c0.056-0.387,0.056-1.128,0.056-2.033v-1.662
				c0-1.46,0-1.727-0.023-2.026c-0.023-0.317-0.077-0.474-0.399-0.519c-0.075-0.008-0.242-0.021-0.331-0.021
				c-0.032,0-0.078-0.045-0.078-0.075c0-0.058,0.046-0.082,0.157-0.082c0.442,0,1.05,0.024,1.106,0.024
				c0.043,0,0.772-0.024,1.072-0.024c0.099,0,0.155,0.024,0.155,0.082c0,0.03-0.045,0.062-0.079,0.062
				c-0.066,0-0.209,0.013-0.32,0.027c-0.289,0.053-0.344,0.197-0.364,0.527c-0.013,0.299-0.013,0.565-0.013,2.026V104.84z"/>
			<path fill="#231F20" d="M220.81,106.267c0.021,0.771,0.109,1.007,0.375,1.071c0.178,0.046,0.397,0.057,0.487,0.057
				c0.045,0,0.078,0.031,0.078,0.077c0,0.056-0.067,0.076-0.178,0.076c-0.553,0-0.941-0.033-1.03-0.033
				c-0.088,0-0.497,0.033-0.939,0.033c-0.099,0-0.154-0.011-0.154-0.076c0-0.046,0.031-0.077,0.077-0.077
				c0.077,0,0.253-0.011,0.397-0.057c0.245-0.064,0.276-0.321,0.276-1.171v-5.389c0-0.376,0.058-0.48,0.133-0.48
				c0.111,0,0.278,0.192,0.376,0.292c0.154,0.154,1.57,1.661,3.076,3.208c0.962,0.997,2.002,2.113,2.301,2.425l-0.1-4.714
				c-0.012-0.609-0.067-0.819-0.366-0.875c-0.177-0.031-0.397-0.044-0.475-0.044c-0.067,0-0.077-0.055-0.077-0.089
				c0-0.055,0.077-0.067,0.188-0.067c0.442,0,0.907,0.024,1.018,0.024c0.109,0,0.431-0.024,0.83-0.024
				c0.101,0,0.177,0.013,0.177,0.067c0,0.035-0.043,0.089-0.11,0.089c-0.045,0-0.124,0-0.234,0.021
				c-0.319,0.065-0.341,0.255-0.341,0.818l-0.024,5.51c0,0.621-0.01,0.675-0.077,0.675c-0.098,0-0.199-0.078-0.739-0.577
				c-0.101-0.088-1.505-1.468-2.534-2.544c-1.127-1.181-2.224-2.334-2.522-2.663L220.81,106.267z"/>
			<path fill="#231F20" d="M231.108,100.298c2.191,0,3.85,1.343,3.85,3.533c0,2.101-1.56,3.837-3.905,3.837
				c-2.667,0-3.806-2.001-3.806-3.692C227.247,102.46,228.42,100.298,231.108,100.298z M231.33,107.284
				c0.875,0,2.632-0.467,2.632-3.187c0-2.257-1.371-3.44-2.91-3.44c-1.627,0-2.8,1.018-2.8,3.063
				C228.253,105.911,229.571,107.284,231.33,107.284z"/>
			<path fill="#231F20" d="M238.675,103.156c0-1.46,0-1.727-0.022-2.026c-0.022-0.317-0.077-0.474-0.399-0.519
				c-0.076-0.008-0.243-0.021-0.332-0.021c-0.031,0-0.077-0.045-0.077-0.075c0-0.058,0.045-0.082,0.155-0.082
				c0.442,0,1.05,0.024,1.105,0.024c0.189,0,2.301,0.012,2.523,0c0.187-0.011,0.354-0.011,0.441-0.044
				c0.057-0.011,0.102-0.061,0.134-0.061c0.043,0,0.066,0.05,0.066,0.093c0,0.069-0.043,0.176-0.077,0.443
				c-0.012,0.09-0.021,0.509-0.044,0.62c-0.012,0.042-0.045,0.099-0.089,0.099c-0.045,0-0.078-0.045-0.078-0.11
				c0-0.075-0.033-0.23-0.089-0.354c-0.055-0.122-0.288-0.277-0.664-0.277l-1.594-0.021c-0.052,0-0.076,0.021-0.076,0.099v2.569
				c0,0.052,0,0.086,0.066,0.086l1.329-0.014c0.164,0,0.307,0,0.441-0.007c0.233-0.024,0.365-0.057,0.454-0.169
				c0.044-0.052,0.089-0.096,0.123-0.096c0.043,0,0.055,0.029,0.055,0.075c0,0.056-0.068,0.21-0.089,0.521
				c-0.022,0.188-0.034,0.562-0.034,0.63c0,0.088-0.02,0.188-0.089,0.188c-0.055,0-0.065-0.043-0.065-0.089
				c-0.012-0.098-0.022-0.231-0.066-0.341c-0.045-0.133-0.2-0.254-0.498-0.299c-0.244-0.033-1.394-0.021-1.561-0.021
				c-0.055,0-0.066,0.021-0.066,0.087v0.755c0,0.924,0,1.668,0.043,2.033c0.033,0.277,0.09,0.454,0.354,0.5
				c0.145,0.022,0.354,0.044,0.444,0.044c0.053,0,0.075,0.045,0.075,0.077c0,0.043-0.043,0.076-0.154,0.076
				c-0.541,0-1.171-0.033-1.217-0.033c-0.056,0-0.663,0.033-0.962,0.033c-0.098,0-0.155-0.021-0.155-0.076
				c0-0.032,0.022-0.077,0.076-0.077c0.089,0,0.212-0.036,0.299-0.044c0.189-0.032,0.212-0.223,0.254-0.5
				c0.057-0.387,0.057-1.128,0.057-2.033V103.156z"/>
			<path fill="#231F20" d="M244.373,104.818c0,0.904,0,1.646,0.046,2.033c0.032,0.277,0.065,0.454,0.354,0.5
				c0.142,0.022,0.354,0.044,0.441,0.044c0.055,0,0.078,0.045,0.078,0.077c0,0.043-0.046,0.076-0.157,0.076
				c-0.541,0-1.171-0.033-1.217-0.033c-0.052,0-0.661,0.033-0.962,0.033c-0.098,0-0.154-0.021-0.154-0.076
				c0-0.032,0.023-0.077,0.079-0.077c0.088,0,0.209-0.021,0.298-0.044c0.188-0.046,0.222-0.223,0.254-0.5
				c0.044-0.387,0.054-1.128,0.054-2.033v-1.662c0-1.46,0-1.727-0.021-2.026c-0.021-0.317-0.099-0.463-0.311-0.509
				c-0.111-0.018-0.229-0.032-0.298-0.032c-0.045,0-0.079-0.045-0.079-0.075c0-0.058,0.046-0.082,0.156-0.082
				c0.322,0,0.931,0.024,0.983,0.024c0.046,0,0.677-0.024,0.975-0.024c0.112,0,0.153,0.024,0.153,0.082
				c0,0.03-0.042,0.075-0.075,0.075c-0.068,0-0.134,0-0.245,0.021c-0.266,0.056-0.321,0.189-0.342,0.519
				c-0.011,0.299-0.011,0.565-0.011,2.026V104.818z"/>
			<path fill="#231F20" d="M246.872,106.267c0.023,0.771,0.111,1.007,0.376,1.071c0.177,0.046,0.399,0.057,0.487,0.057
				c0.043,0,0.077,0.031,0.077,0.077c0,0.056-0.066,0.076-0.178,0.076c-0.553,0-0.939-0.033-1.028-0.033s-0.498,0.033-0.938,0.033
				c-0.102,0-0.156-0.011-0.156-0.076c0-0.046,0.032-0.077,0.078-0.077c0.079,0,0.254-0.011,0.396-0.057
				c0.245-0.064,0.277-0.321,0.277-1.171v-5.389c0-0.376,0.056-0.48,0.133-0.48c0.112,0,0.278,0.192,0.377,0.292
				c0.155,0.154,1.571,1.661,3.076,3.208c0.962,0.997,2.001,2.113,2.301,2.425l-0.1-4.714c-0.011-0.609-0.066-0.819-0.364-0.875
				c-0.177-0.031-0.4-0.044-0.476-0.044c-0.067,0-0.078-0.055-0.078-0.089c0-0.055,0.078-0.067,0.188-0.067
				c0.442,0,0.906,0.024,1.018,0.024c0.111,0,0.432-0.024,0.83-0.024c0.099,0,0.177,0.013,0.177,0.067
				c0,0.035-0.045,0.089-0.111,0.089c-0.043,0-0.124,0-0.232,0.021c-0.321,0.065-0.343,0.255-0.343,0.818l-0.022,5.51
				c0,0.621-0.01,0.675-0.077,0.675c-0.1,0-0.2-0.078-0.743-0.577c-0.098-0.088-1.505-1.468-2.533-2.544
				c-1.127-1.181-2.221-2.334-2.521-2.663L246.872,106.267z"/>
			<path fill="#231F20" d="M256.055,100.622c0.124-0.306,0.167-0.365,0.232-0.365c0.102,0,0.134,0.133,0.232,0.347
				c0.18,0.396,1.738,4.28,2.335,5.706c0.354,0.841,0.619,0.964,0.829,1.028c0.145,0.046,0.288,0.057,0.389,0.057
				c0.056,0,0.12,0.017,0.12,0.077c0,0.056-0.111,0.076-0.221,0.076c-0.143,0-0.864,0-1.539-0.021
				c-0.186-0.012-0.343-0.012-0.343-0.066c0-0.05,0.023-0.05,0.067-0.066c0.057-0.021,0.156-0.099,0.09-0.256l-0.873-2.157
				c-0.023-0.042-0.035-0.056-0.09-0.056h-2.246c-0.043,0-0.078,0.023-0.099,0.079l-0.553,1.503
				c-0.089,0.235-0.145,0.463-0.145,0.63c0,0.188,0.167,0.256,0.332,0.256h0.088c0.079,0,0.102,0.031,0.102,0.077
				c0,0.056-0.055,0.076-0.145,0.076c-0.232,0-0.763-0.033-0.873-0.033c-0.102,0-0.588,0.033-0.985,0.033
				c-0.122,0-0.189-0.021-0.189-0.076c0-0.046,0.045-0.077,0.088-0.077c0.067,0,0.211-0.011,0.29-0.021
				c0.441-0.055,0.629-0.389,0.816-0.865L256.055,100.622z M257.138,104.539c0.046,0,0.046-0.022,0.035-0.068l-0.963-2.576
				c-0.055-0.144-0.109-0.144-0.166,0l-0.906,2.576c-0.014,0.045,0,0.068,0.033,0.068H257.138z"/>
			<path fill="#231F20" d="M260.778,106.267c0.022,0.771,0.11,1.007,0.378,1.071c0.176,0.046,0.396,0.057,0.486,0.057
				c0.044,0,0.077,0.031,0.077,0.077c0,0.056-0.066,0.076-0.177,0.076c-0.553,0-0.94-0.033-1.029-0.033s-0.499,0.033-0.94,0.033
				c-0.099,0-0.153-0.011-0.153-0.076c0-0.046,0.032-0.077,0.076-0.077c0.077,0,0.254-0.011,0.397-0.057
				c0.244-0.064,0.278-0.321,0.278-1.171v-5.389c0-0.376,0.054-0.48,0.131-0.48c0.111,0,0.277,0.192,0.375,0.292
				c0.157,0.154,1.571,1.661,3.077,3.208c0.961,0.997,2.002,2.113,2.3,2.425l-0.098-4.714c-0.011-0.609-0.067-0.819-0.366-0.875
				c-0.177-0.031-0.397-0.044-0.475-0.044c-0.067,0-0.079-0.055-0.079-0.089c0-0.055,0.079-0.067,0.19-0.067
				c0.442,0,0.907,0.024,1.018,0.024c0.11,0,0.432-0.024,0.829-0.024c0.099,0,0.177,0.013,0.177,0.067
				c0,0.035-0.043,0.089-0.11,0.089c-0.044,0-0.123,0-0.232,0.021c-0.319,0.065-0.342,0.255-0.342,0.818l-0.023,5.51
				c0,0.621-0.011,0.675-0.079,0.675c-0.098,0-0.197-0.078-0.739-0.577c-0.102-0.088-1.505-1.468-2.533-2.544
				c-1.129-1.181-2.226-2.334-2.523-2.663L260.778,106.267z"/>
			<path fill="#231F20" d="M268.402,106.664c-0.952-0.818-1.184-1.892-1.184-2.788c0-0.631,0.232-1.725,1.096-2.567
				c0.586-0.565,1.471-1.011,2.965-1.011c0.386,0,0.939,0.038,1.415,0.115c0.365,0.065,0.675,0.132,0.997,0.144
				c0.098,0,0.122,0.046,0.122,0.1c0,0.073-0.023,0.188-0.044,0.531c-0.013,0.31-0.013,0.831-0.022,0.963
				c-0.012,0.143-0.056,0.196-0.112,0.196c-0.064,0-0.077-0.064-0.077-0.196c0-0.364-0.155-0.742-0.409-0.94
				c-0.344-0.288-1.051-0.521-1.914-0.521c-1.251,0-1.847,0.332-2.19,0.653c-0.72,0.662-0.875,1.505-0.875,2.455
				c0,1.805,1.427,3.407,3.508,3.407c0.73,0,1.216-0.055,1.603-0.441c0.21-0.21,0.344-0.61,0.377-0.784
				c0.021-0.102,0.033-0.135,0.098-0.135c0.043,0,0.089,0.066,0.089,0.135c0,0.065-0.131,0.884-0.232,1.204
				c-0.055,0.175-0.078,0.211-0.243,0.277c-0.399,0.154-1.128,0.208-1.76,0.208C270.149,107.668,269.166,107.327,268.402,106.664z"
				/>
			<path fill="#231F20" d="M275.936,104.818c0,0.904,0,1.646,0.046,2.033c0.032,0.277,0.065,0.454,0.354,0.5
				c0.143,0.022,0.354,0.044,0.441,0.044c0.055,0,0.079,0.045,0.079,0.077c0,0.043-0.045,0.076-0.156,0.076
				c-0.541,0-1.172-0.033-1.219-0.033c-0.052,0-0.661,0.033-0.96,0.033c-0.099,0-0.156-0.021-0.156-0.076
				c0-0.032,0.024-0.077,0.079-0.077c0.089,0,0.21-0.021,0.298-0.044c0.188-0.046,0.223-0.223,0.255-0.5
				c0.043-0.387,0.054-1.128,0.054-2.033v-1.662c0-1.46,0-1.727-0.021-2.026c-0.022-0.317-0.099-0.463-0.311-0.509
				c-0.108-0.018-0.232-0.032-0.297-0.032c-0.046,0-0.08-0.045-0.08-0.075c0-0.058,0.046-0.082,0.156-0.082
				c0.322,0,0.931,0.024,0.982,0.024c0.046,0,0.678-0.024,0.977-0.024c0.111,0,0.153,0.024,0.153,0.082
				c0,0.03-0.042,0.075-0.076,0.075c-0.067,0-0.134,0-0.245,0.021c-0.265,0.056-0.32,0.189-0.342,0.519
				c-0.011,0.299-0.011,0.565-0.011,2.026V104.818z"/>
			<path fill="#231F20" d="M278.027,103.156c0-1.46,0-1.727-0.023-2.026c-0.022-0.317-0.077-0.474-0.398-0.519
				c-0.077-0.008-0.243-0.021-0.332-0.021c-0.033,0-0.078-0.045-0.078-0.075c0-0.058,0.045-0.082,0.156-0.082
				c0.441,0,1.095,0.024,1.149,0.024c0.101,0,0.919-0.024,1.218-0.024c0.619,0,1.305,0.057,1.813,0.412
				c0.243,0.176,0.675,0.631,0.675,1.282c0,0.698-0.288,1.372-1.195,2.146c0.796,0.996,1.47,1.845,2.036,2.434
				c0.519,0.531,0.842,0.619,1.083,0.651c0.189,0.036,0.288,0.036,0.344,0.036c0.056,0,0.088,0.045,0.088,0.077
				c0,0.056-0.055,0.076-0.232,0.076h-0.609c-0.553,0-0.796-0.055-1.039-0.189c-0.422-0.22-0.775-0.672-1.327-1.378
				c-0.411-0.511-0.842-1.12-1.054-1.375c-0.042-0.045-0.065-0.054-0.131-0.054l-1.237-0.025c-0.046,0-0.068,0.025-0.068,0.079
				v0.219c0,0.91,0,1.64,0.045,2.027c0.031,0.277,0.087,0.454,0.387,0.5c0.131,0.022,0.342,0.044,0.431,0.044
				c0.066,0,0.076,0.045,0.076,0.077c0,0.043-0.043,0.076-0.153,0.076c-0.534,0-1.152-0.033-1.196-0.033
				c-0.01,0-0.664,0.033-0.961,0.033c-0.102,0-0.156-0.021-0.156-0.076c0-0.032,0.022-0.077,0.077-0.077
				c0.088,0,0.21-0.021,0.298-0.044c0.189-0.046,0.211-0.223,0.254-0.5c0.057-0.387,0.057-1.128,0.057-2.033V103.156z
				 M278.868,103.955c0,0.053,0.022,0.087,0.068,0.12c0.141,0.078,0.639,0.143,1.071,0.143c0.232,0,0.497-0.009,0.729-0.165
				c0.333-0.222,0.587-0.719,0.587-1.437c0-1.175-0.642-1.849-1.682-1.849c-0.287,0-0.597,0.033-0.698,0.055
				c-0.044,0.023-0.077,0.058-0.077,0.111V103.955z"/>
			<path fill="#231F20" d="M285.894,100.622c0.121-0.306,0.164-0.365,0.232-0.365c0.099,0,0.133,0.133,0.232,0.347
				c0.178,0.396,1.738,4.28,2.334,5.706c0.354,0.841,0.618,0.964,0.83,1.028c0.144,0.046,0.286,0.057,0.386,0.057
				c0.057,0,0.121,0.017,0.121,0.077c0,0.056-0.111,0.076-0.222,0.076c-0.142,0-0.861,0-1.535-0.021
				c-0.189-0.012-0.344-0.012-0.344-0.066c0-0.05,0.023-0.05,0.066-0.066c0.056-0.021,0.156-0.099,0.089-0.256l-0.875-2.157
				c-0.021-0.042-0.032-0.056-0.088-0.056h-2.245c-0.045,0-0.079,0.023-0.102,0.079l-0.553,1.503
				c-0.088,0.235-0.144,0.463-0.144,0.63c0,0.188,0.167,0.256,0.332,0.256h0.089c0.077,0,0.101,0.031,0.101,0.077
				c0,0.056-0.055,0.076-0.144,0.076c-0.234,0-0.764-0.033-0.875-0.033c-0.099,0-0.586,0.033-0.983,0.033
				c-0.122,0-0.188-0.021-0.188-0.076c0-0.046,0.044-0.077,0.088-0.077c0.065,0,0.21-0.011,0.288-0.021
				c0.442-0.055,0.629-0.389,0.818-0.865L285.894,100.622z M286.977,104.539c0.046,0,0.046-0.022,0.033-0.068l-0.963-2.576
				c-0.056-0.144-0.111-0.144-0.167,0l-0.907,2.576c-0.009,0.045,0,0.068,0.035,0.068H286.977z"/>
			<path fill="#231F20" d="M292.95,102.393c0-1.726,0-2.041-0.021-2.392c-0.022-0.373-0.111-0.549-0.478-0.628
				c-0.087-0.022-0.274-0.032-0.374-0.032c-0.045,0-0.09-0.023-0.09-0.069c0-0.066,0.056-0.087,0.177-0.087
				c0.254,0,0.553,0,0.798,0.012l0.452,0.021c0.079,0,2.28,0,2.534-0.012c0.211-0.009,0.388-0.031,0.476-0.052
				c0.056-0.014,0.1-0.057,0.155-0.057c0.033,0,0.042,0.042,0.042,0.1c0,0.076-0.053,0.208-0.086,0.52
				c-0.011,0.111-0.033,0.6-0.055,0.73c-0.014,0.055-0.033,0.125-0.078,0.125c-0.066,0-0.089-0.056-0.089-0.147
				c0-0.076-0.01-0.266-0.065-0.396c-0.079-0.177-0.189-0.312-0.785-0.377c-0.188-0.022-1.395-0.033-1.519-0.033
				c-0.043,0-0.065,0.033-0.065,0.107v3.053c0,0.08,0.012,0.107,0.065,0.107c0.146,0,1.505,0,1.76-0.015
				c0.265-0.021,0.421-0.044,0.52-0.155c0.079-0.087,0.121-0.146,0.167-0.146c0.033,0,0.056,0.025,0.056,0.092
				c0,0.063-0.056,0.25-0.09,0.616c-0.021,0.223-0.044,0.633-0.044,0.71c0,0.088,0,0.21-0.077,0.21c-0.056,0-0.077-0.044-0.077-0.1
				c0-0.11,0-0.221-0.046-0.365c-0.042-0.153-0.144-0.343-0.574-0.389c-0.299-0.029-1.394-0.053-1.582-0.053
				c-0.056,0-0.078,0.035-0.078,0.077v0.972c0,0.379-0.01,1.661,0,1.895c0.035,0.764,0.199,0.905,1.284,0.905
				c0.286,0,0.773,0,1.061-0.122c0.289-0.12,0.422-0.34,0.497-0.794c0.024-0.124,0.047-0.169,0.103-0.169
				c0.064,0,0.064,0.089,0.064,0.169c0,0.087-0.087,0.838-0.143,1.073c-0.076,0.287-0.166,0.287-0.598,0.287
				c-0.829,0-1.437-0.021-1.869-0.034c-0.432-0.021-0.698-0.033-0.864-0.033c-0.022,0-0.209,0-0.443,0.012
				c-0.22,0-0.474,0.021-0.641,0.021c-0.122,0-0.177-0.021-0.177-0.087c0-0.035,0.023-0.066,0.089-0.066
				c0.099,0,0.232-0.021,0.332-0.044c0.22-0.046,0.277-0.29,0.321-0.607c0.055-0.467,0.055-1.341,0.055-2.405V102.393z"/>
			<path fill="#231F20" d="M300.784,106.318c0.563-1.258,1.836-4.468,2.046-5.143c0.045-0.144,0.089-0.276,0.089-0.354
				c0-0.079-0.033-0.166-0.132-0.201c-0.111-0.032-0.222-0.032-0.333-0.032c-0.053,0-0.11-0.033-0.11-0.075
				c0-0.058,0.066-0.082,0.222-0.082c0.388,0,0.831,0.024,0.952,0.024c0.056,0,0.474-0.024,0.763-0.024
				c0.099,0,0.155,0.024,0.155,0.067c0,0.044-0.034,0.089-0.11,0.089c-0.067,0-0.288,0-0.464,0.111
				c-0.134,0.088-0.288,0.221-0.543,0.861c-0.11,0.269-0.586,1.393-1.083,2.546c-0.598,1.37-1.03,2.386-1.25,2.854
				c-0.266,0.566-0.321,0.707-0.42,0.707c-0.109,0-0.178-0.121-0.365-0.576l-2.39-5.762c-0.222-0.531-0.355-0.63-0.676-0.709
				c-0.154-0.032-0.321-0.032-0.375-0.032c-0.056,0-0.077-0.055-0.077-0.089c0-0.055,0.099-0.067,0.254-0.067
				c0.463,0,1.017,0.024,1.14,0.024c0.099,0,0.53-0.024,0.907-0.024c0.177,0,0.266,0.024,0.266,0.067
				c0,0.044-0.034,0.089-0.101,0.089c-0.11,0-0.266,0.014-0.354,0.044c-0.098,0.042-0.11,0.096-0.11,0.166
				c0,0.122,0.123,0.41,0.266,0.784L300.784,106.318z"/>
			<path fill="#231F20" d="M304.767,103.156c0-1.46,0-1.727-0.023-2.026c-0.022-0.317-0.075-0.474-0.397-0.519
				c-0.078-0.008-0.244-0.021-0.333-0.021c-0.033,0-0.078-0.045-0.078-0.075c0-0.058,0.045-0.082,0.156-0.082
				c0.442,0,1.096,0.024,1.149,0.024c0.1,0,0.919-0.024,1.217-0.024c0.62,0,1.305,0.057,1.813,0.412
				c0.245,0.176,0.676,0.631,0.676,1.282c0,0.698-0.288,1.372-1.195,2.146c0.796,0.996,1.47,1.845,2.036,2.434
				c0.52,0.531,0.841,0.619,1.084,0.651c0.187,0.036,0.287,0.036,0.341,0.036c0.056,0,0.089,0.045,0.089,0.077
				c0,0.056-0.056,0.076-0.232,0.076h-0.607c-0.553,0-0.798-0.055-1.041-0.189c-0.42-0.22-0.773-0.672-1.326-1.378
				c-0.412-0.511-0.841-1.12-1.053-1.375c-0.042-0.045-0.066-0.054-0.13-0.054l-1.241-0.025c-0.046,0-0.066,0.025-0.066,0.079v0.219
				c0,0.91,0,1.64,0.043,2.027c0.035,0.277,0.089,0.454,0.389,0.5c0.131,0.022,0.342,0.044,0.429,0.044
				c0.069,0,0.079,0.045,0.079,0.077c0,0.043-0.043,0.076-0.154,0.076c-0.53,0-1.151-0.033-1.194-0.033
				c-0.011,0-0.664,0.033-0.963,0.033c-0.101,0-0.156-0.021-0.156-0.076c0-0.032,0.023-0.077,0.078-0.077
				c0.088,0,0.209-0.021,0.298-0.044c0.189-0.046,0.212-0.223,0.255-0.5c0.055-0.387,0.055-1.128,0.055-2.033V103.156z
				 M305.607,103.955c0,0.053,0.02,0.087,0.066,0.12c0.144,0.078,0.641,0.143,1.073,0.143c0.232,0,0.498-0.009,0.729-0.165
				c0.334-0.222,0.587-0.719,0.587-1.437c0-1.175-0.644-1.849-1.682-1.849c-0.288,0-0.598,0.033-0.696,0.055
				c-0.044,0.023-0.078,0.058-0.078,0.111V103.955z"/>
			<path fill="#231F20" d="M314.005,100.298c2.189,0,3.849,1.343,3.849,3.533c0,2.101-1.559,3.837-3.905,3.837
				c-2.666,0-3.805-2.001-3.805-3.692C310.144,102.46,311.314,100.298,314.005,100.298z M314.225,107.284
				c0.875,0,2.634-0.467,2.634-3.187c0-2.257-1.371-3.44-2.91-3.44c-1.626,0-2.798,1.018-2.798,3.063
				C311.151,105.911,312.466,107.284,314.225,107.284z"/>
			<path fill="#231F20" d="M318.783,103.156c0-1.46,0-1.727-0.021-2.026c-0.022-0.317-0.077-0.474-0.398-0.519
				c-0.079-0.008-0.245-0.021-0.333-0.021c-0.034,0-0.076-0.045-0.076-0.075c0-0.058,0.042-0.082,0.155-0.082
				c0.441,0,1.049,0.024,1.128,0.024c0.209,0,0.939-0.024,1.381-0.024c1.25,0,1.693,0.389,1.859,0.533
				c0.223,0.2,0.488,0.619,0.488,1.131c0,1.348-1.019,2.242-2.511,2.242c-0.055,0-0.223,0-0.278-0.007
				c-0.043,0-0.098-0.046-0.098-0.088c0-0.08,0.055-0.101,0.255-0.101c1.05,0,1.803-0.664,1.803-1.515
				c0-0.31-0.034-0.918-0.553-1.43c-0.51-0.508-1.096-0.454-1.318-0.454c-0.166,0-0.442,0.045-0.542,0.07
				c-0.054,0.009-0.077,0.075-0.077,0.175v3.83c0,0.904,0,1.646,0.043,2.033c0.034,0.277,0.091,0.454,0.389,0.5
				c0.132,0.022,0.342,0.044,0.432,0.044c0.054,0,0.075,0.045,0.075,0.077c0,0.043-0.043,0.076-0.154,0.076
				c-0.53,0-1.173-0.033-1.215-0.033c-0.035,0-0.667,0.033-0.964,0.033c-0.101,0-0.154-0.021-0.154-0.076
				c0-0.032,0.02-0.077,0.075-0.077c0.089,0,0.212-0.021,0.298-0.044c0.19-0.046,0.213-0.223,0.255-0.5
				c0.056-0.387,0.056-1.128,0.056-2.033V103.156z"/>
			<path fill="#231F20" d="M323.397,107.411c-0.132-0.061-0.145-0.093-0.145-0.351c0-0.464,0.043-0.838,0.055-0.995
				c0-0.099,0.022-0.154,0.079-0.154c0.053,0,0.089,0.033,0.089,0.112c0,0.075,0,0.21,0.033,0.341
				c0.153,0.687,0.884,0.931,1.537,0.931c0.963,0,1.46-0.544,1.46-1.25c0-0.676-0.365-0.997-1.228-1.639l-0.443-0.332
				c-1.05-0.785-1.395-1.361-1.395-2.014c0-1.106,0.876-1.769,2.159-1.769c0.387,0,0.774,0.055,1.006,0.11
				c0.188,0.043,0.267,0.043,0.343,0.043c0.078,0,0.101,0.011,0.101,0.069c0,0.042-0.046,0.352-0.046,0.994
				c0,0.143-0.01,0.208-0.079,0.208c-0.065,0-0.075-0.043-0.086-0.123c-0.012-0.11-0.09-0.361-0.145-0.464
				c-0.067-0.109-0.388-0.463-1.261-0.463c-0.707,0-1.294,0.354-1.294,1.016c0,0.599,0.297,0.944,1.26,1.593l0.277,0.19
				c1.183,0.807,1.593,1.459,1.593,2.268c0,0.555-0.21,1.151-0.907,1.604c-0.411,0.268-1.018,0.331-1.549,0.331
				C324.359,107.668,323.796,107.605,323.397,107.411z"/>
			<path fill="#231F20" d="M328.685,103.156c0-1.46,0-1.727-0.023-2.026c-0.021-0.317-0.076-0.474-0.396-0.519
				c-0.08-0.008-0.245-0.021-0.334-0.021c-0.032,0-0.077-0.045-0.077-0.075c0-0.058,0.045-0.082,0.156-0.082
				c0.442,0,1.04,0.024,1.096,0.024c0.088,0,0.674-0.024,0.962-0.024c0.11,0,0.155,0.024,0.155,0.082
				c0,0.03-0.034,0.075-0.079,0.075c-0.065,0-0.121,0-0.242,0.021c-0.255,0.056-0.321,0.189-0.343,0.519
				c-0.023,0.299-0.023,0.565-0.023,2.026v0.563h0.045c0.154-0.175,1.892-1.889,2.257-2.265c0.276-0.279,0.53-0.522,0.53-0.677
				c0-0.122-0.044-0.175-0.122-0.188c-0.055-0.013-0.09-0.055-0.09-0.089c0-0.043,0.046-0.067,0.113-0.067
				c0.198,0,0.497,0.024,0.728,0.024c0.056,0,0.7-0.024,0.942-0.024c0.098,0,0.143,0.024,0.143,0.067
				c0,0.044-0.022,0.076-0.101,0.076c-0.144,0-0.353,0.058-0.542,0.134c-0.396,0.178-0.585,0.388-1.016,0.798
				c-0.245,0.22-1.904,1.815-2.114,2.045c0.253,0.277,2.278,2.302,2.679,2.669c0.817,0.728,0.928,0.85,1.393,1.037
				c0.254,0.099,0.53,0.135,0.595,0.135c0.069,0,0.125,0.031,0.125,0.077c0,0.043-0.045,0.076-0.211,0.076h-0.499
				c-0.276,0-0.452,0-0.674-0.021c-0.508-0.047-0.763-0.253-1.184-0.577c-0.442-0.342-2.488-2.501-2.953-3.05h-0.045v0.918
				c0,0.904,0,1.646,0.045,2.033c0.033,0.277,0.077,0.454,0.376,0.5c0.131,0.022,0.287,0.044,0.376,0.044
				c0.054,0,0.075,0.045,0.075,0.077c0,0.043-0.043,0.076-0.153,0.076c-0.475,0-1.062-0.033-1.14-0.033s-0.664,0.033-0.965,0.033
				c-0.098,0-0.154-0.021-0.154-0.076c0-0.032,0.023-0.077,0.079-0.077c0.089,0,0.21-0.021,0.298-0.044
				c0.189-0.046,0.211-0.223,0.255-0.5c0.055-0.387,0.055-1.128,0.055-2.033V103.156z"/>
			<path fill="#231F20" d="M336.375,100.622c0.122-0.306,0.166-0.365,0.233-0.365c0.098,0,0.131,0.133,0.23,0.347
				c0.179,0.396,1.737,4.28,2.335,5.706c0.354,0.841,0.619,0.964,0.829,1.028c0.144,0.046,0.288,0.057,0.389,0.057
				c0.055,0,0.121,0.017,0.121,0.077c0,0.056-0.111,0.076-0.223,0.076c-0.144,0-0.862,0-1.537-0.021
				c-0.188-0.012-0.342-0.012-0.342-0.066c0-0.05,0.02-0.05,0.066-0.066c0.055-0.021,0.154-0.099,0.088-0.256l-0.874-2.157
				c-0.023-0.042-0.034-0.056-0.089-0.056h-2.246c-0.045,0-0.08,0.023-0.1,0.079l-0.553,1.503c-0.088,0.235-0.145,0.463-0.145,0.63
				c0,0.188,0.167,0.256,0.333,0.256h0.087c0.08,0,0.102,0.031,0.102,0.077c0,0.056-0.056,0.076-0.145,0.076
				c-0.232,0-0.762-0.033-0.874-0.033c-0.098,0-0.588,0.033-0.985,0.033c-0.121,0-0.188-0.021-0.188-0.076
				c0-0.046,0.044-0.077,0.09-0.077c0.066,0,0.209-0.011,0.288-0.021c0.442-0.055,0.63-0.389,0.818-0.865L336.375,100.622z
				 M337.459,104.539c0.042,0,0.042-0.022,0.032-0.068l-0.962-2.576c-0.055-0.144-0.111-0.144-0.167,0l-0.906,2.576
				c-0.011,0.045,0,0.068,0.033,0.068H337.459z"/>
			<path fill="#231F20" d="M342.681,103.156c0-1.46,0-1.727-0.022-2.026c-0.022-0.297-0.079-0.474-0.399-0.519
				c-0.078-0.008-0.243-0.021-0.333-0.021c-0.033,0-0.076-0.045-0.076-0.075c0-0.058,0.043-0.082,0.154-0.082
				c0.444,0,1.03,0.024,1.118,0.024c0.088,0,0.697-0.024,0.986-0.024c0.109,0,0.164,0.024,0.164,0.082
				c0,0.03-0.043,0.075-0.088,0.075c-0.066,0-0.122,0-0.243,0.021c-0.255,0.045-0.311,0.211-0.332,0.519
				c-0.022,0.299-0.022,0.565-0.022,2.026v1.315c0,1.362,0.298,1.928,0.718,2.304c0.476,0.43,0.896,0.508,1.45,0.508
				c0.597,0,1.172-0.267,1.504-0.665c0.454-0.542,0.552-1.317,0.552-2.281v-1.182c0-1.46-0.011-1.727-0.022-2.026
				c-0.01-0.297-0.064-0.474-0.387-0.519c-0.078-0.008-0.242-0.021-0.333-0.021c-0.044,0-0.077-0.045-0.077-0.075
				c0-0.058,0.046-0.082,0.156-0.082c0.43,0,0.996,0.024,1.05,0.024c0.067,0,0.531-0.024,0.82-0.024
				c0.109,0,0.154,0.024,0.154,0.082c0,0.03-0.032,0.075-0.076,0.075c-0.067,0-0.124,0-0.245,0.021
				c-0.265,0.056-0.32,0.211-0.343,0.519c-0.023,0.299-0.01,0.565-0.01,2.026v1.007c0,1.02-0.134,2.155-0.907,2.821
				c-0.708,0.609-1.462,0.684-2.036,0.684c-0.322,0-1.339-0.019-2.024-0.663c-0.478-0.442-0.852-1.095-0.852-2.467V103.156z"/>
			<path fill="#231F20" d="M350.579,106.267c0.022,0.771,0.111,1.007,0.376,1.071c0.176,0.046,0.398,0.057,0.487,0.057
				c0.042,0,0.075,0.031,0.075,0.077c0,0.056-0.066,0.076-0.177,0.076c-0.553,0-0.939-0.033-1.028-0.033s-0.497,0.033-0.939,0.033
				c-0.101,0-0.156-0.011-0.156-0.076c0-0.046,0.033-0.077,0.078-0.077c0.078,0,0.255-0.011,0.397-0.057
				c0.245-0.064,0.277-0.321,0.277-1.171v-5.389c0-0.376,0.056-0.48,0.134-0.48c0.111,0,0.277,0.192,0.375,0.292
				c0.156,0.154,1.571,1.661,3.076,3.208c0.963,0.997,2.002,2.113,2.301,2.425l-0.099-4.714c-0.012-0.609-0.067-0.819-0.365-0.875
				c-0.177-0.031-0.398-0.044-0.476-0.044c-0.067,0-0.078-0.055-0.078-0.089c0-0.055,0.078-0.067,0.188-0.067
				c0.443,0,0.907,0.024,1.018,0.024s0.432-0.024,0.831-0.024c0.098,0,0.178,0.013,0.178,0.067c0,0.035-0.044,0.089-0.112,0.089
				c-0.043,0-0.122,0-0.232,0.021c-0.321,0.065-0.343,0.255-0.343,0.818l-0.023,5.51c0,0.621-0.01,0.675-0.077,0.675
				c-0.1,0-0.199-0.078-0.741-0.577c-0.1-0.088-1.504-1.468-2.533-2.544c-1.128-1.181-2.222-2.334-2.521-2.663L350.579,106.267z"/>
			<path fill="#231F20" d="M358.943,104.818c0,0.904,0,1.646,0.046,2.033c0.032,0.277,0.064,0.454,0.354,0.5
				c0.142,0.022,0.354,0.044,0.441,0.044c0.056,0,0.079,0.045,0.079,0.077c0,0.043-0.044,0.076-0.157,0.076
				c-0.541,0-1.172-0.033-1.217-0.033c-0.052,0-0.662,0.033-0.962,0.033c-0.098,0-0.154-0.021-0.154-0.076
				c0-0.032,0.023-0.077,0.079-0.077c0.087,0,0.209-0.021,0.298-0.044c0.188-0.046,0.222-0.223,0.255-0.5
				c0.043-0.387,0.053-1.128,0.053-2.033v-1.662c0-1.46,0-1.727-0.021-2.026c-0.022-0.317-0.099-0.463-0.31-0.509
				c-0.111-0.018-0.232-0.032-0.298-0.032c-0.045,0-0.079-0.045-0.079-0.075c0-0.058,0.046-0.082,0.156-0.082
				c0.322,0,0.931,0.024,0.983,0.024c0.045,0,0.677-0.024,0.975-0.024c0.112,0,0.155,0.024,0.155,0.082
				c0,0.03-0.043,0.075-0.076,0.075c-0.068,0-0.134,0-0.243,0.021c-0.268,0.056-0.322,0.189-0.344,0.519
				c-0.012,0.299-0.012,0.565-0.012,2.026V104.818z"/>
			<path fill="#231F20" d="M362.141,105.414c0,1.526-0.033,2.114-0.321,2.778c-0.209,0.476-0.641,0.917-1.427,1.436
				c-0.134,0.092-0.298,0.191-0.398,0.243c-0.01,0-0.033,0.013-0.066,0.013c-0.023,0-0.067-0.013-0.067-0.057
				c0-0.053,0.034-0.098,0.123-0.155c0.121-0.066,0.255-0.174,0.343-0.254c0.629-0.629,0.929-1.116,0.929-3.54v-2.722
				c0-1.46,0-1.727-0.022-2.026c-0.023-0.317-0.078-0.474-0.398-0.519c-0.078-0.008-0.243-0.021-0.332-0.021
				c-0.033,0-0.078-0.045-0.078-0.075c0-0.058,0.045-0.082,0.155-0.082c0.442,0,1.072,0.024,1.128,0.024
				c0.046,0,0.654-0.024,0.951-0.024c0.112,0,0.154,0.024,0.154,0.082c0,0.03-0.042,0.075-0.075,0.075c-0.068,0-0.134,0-0.245,0.021
				c-0.266,0.056-0.321,0.189-0.342,0.519c-0.011,0.299-0.011,0.565-0.011,2.026V105.414z"/>
			<path fill="#231F20" d="M365.714,100.622c0.121-0.306,0.165-0.365,0.232-0.365c0.099,0,0.132,0.133,0.232,0.347
				c0.177,0.396,1.735,4.28,2.333,5.706c0.355,0.841,0.619,0.964,0.83,1.028c0.143,0.046,0.287,0.057,0.387,0.057
				c0.055,0,0.121,0.017,0.121,0.077c0,0.056-0.111,0.076-0.222,0.076c-0.144,0-0.862,0-1.536-0.021
				c-0.189-0.012-0.343-0.012-0.343-0.066c0-0.05,0.023-0.05,0.066-0.066c0.056-0.021,0.155-0.099,0.088-0.256l-0.874-2.157
				c-0.023-0.042-0.032-0.056-0.089-0.056h-2.244c-0.046,0-0.079,0.023-0.102,0.079l-0.553,1.503
				c-0.087,0.235-0.144,0.463-0.144,0.63c0,0.188,0.167,0.256,0.333,0.256h0.089c0.076,0,0.098,0.031,0.098,0.077
				c0,0.056-0.054,0.076-0.141,0.076c-0.235,0-0.766-0.033-0.876-0.033c-0.099,0-0.587,0.033-0.984,0.033
				c-0.123,0-0.188-0.021-0.188-0.076c0-0.046,0.045-0.077,0.089-0.077c0.065,0,0.21-0.011,0.288-0.021
				c0.442-0.055,0.63-0.389,0.819-0.865L365.714,100.622z M366.798,104.539c0.044,0,0.044-0.022,0.032-0.068l-0.962-2.576
				c-0.055-0.144-0.111-0.144-0.166,0l-0.906,2.576c-0.011,0.045,0,0.068,0.031,0.068H366.798z"/>
		</g>
		<g>
			<path fill="#034EA1" d="M146.825,90.88v-0.629c0.894-0.033,1.41-0.112,1.548-0.248c0.139-0.135,0.391-1.13,0.757-2.983
				c0.471-2.375,1.063-5.71,1.787-10.001c-0.301-0.448-0.577-0.732-0.831-0.857c-0.253-0.127-0.818-0.219-1.697-0.276v-0.629
				c1.289,0.045,2.08,0.072,2.374,0.072c0.42,0,0.867-0.027,1.337-0.072c0.352,0.656,1.415,2.509,3.185,5.556l4.56,7.691
				c0.211-1.194,0.743-4.384,1.591-9.575c0.22-1.338,0.329-2.13,0.329-2.373c0-0.235-0.079-0.394-0.234-0.475
				c-0.16-0.085-0.695-0.149-1.611-0.194v-0.629c1.098,0.045,1.925,0.072,2.484,0.072c0.667,0,1.473-0.027,2.412-0.072v0.629
				c-0.71,0.028-1.138,0.079-1.275,0.149c-0.139,0.069-0.259,0.176-0.357,0.325c-0.098,0.144-0.232,0.624-0.402,1.436l-1.229,6.715
				c-0.455,2.548-0.82,4.751-1.098,6.612h-1.123c-0.725-1.345-1.52-2.752-2.383-4.223l-5.203-8.755
				c-0.183,0.923-0.712,3.868-1.584,8.839c-0.214,1.219-0.319,2.007-0.319,2.376c0,0.35,0.126,0.586,0.384,0.702
				c0.168,0.074,0.697,0.135,1.579,0.189v0.629c-1.059-0.048-1.845-0.071-2.357-0.071C149.113,90.809,148.239,90.832,146.825,90.88z
				"/>
			<path fill="#034EA1" d="M172.257,80.165l0.253,0.161c-0.717,2.491-1.272,4.701-1.662,6.629c-0.227,1.113-0.341,1.84-0.341,2.185
				c0,0.14,0.03,0.246,0.089,0.321c0.058,0.074,0.138,0.111,0.239,0.111c0.243,0,0.789-0.354,1.638-1.057l0.132,0.498
				c-0.791,0.695-1.552,1.252-2.282,1.668c-0.359,0.196-0.67,0.296-0.932,0.296c-0.197,0-0.344-0.057-0.438-0.168
				c-0.095-0.116-0.143-0.301-0.143-0.555c0-0.603,0.246-1.854,0.74-3.75l-0.088-0.011c-1.041,1.51-2.147,2.73-3.321,3.658
				c-0.791,0.633-1.371,0.946-1.737,0.946c-0.222,0-0.393-0.108-0.517-0.329c-0.186-0.337-0.275-0.823-0.275-1.46
				c0-1.083,0.219-2.374,0.655-3.878c0.436-1.496,0.884-2.566,1.338-3.204c0.345-0.48,1.018-1,2.015-1.548
				c0.624-0.341,1.273-0.514,1.948-0.514c0.294,0,0.608,0.03,0.942,0.093c0.333,0.068,0.689,0.164,1.063,0.291L172.257,80.165z
				 M170.571,81.617c-0.323-0.127-0.625-0.217-0.912-0.274c-0.286-0.062-0.555-0.088-0.813-0.088c-0.571,0-1.086,0.101-1.548,0.294
				c-0.131,0.068-0.299,0.31-0.503,0.728c-0.405,0.833-0.768,1.893-1.094,3.183c-0.326,1.286-0.487,2.418-0.487,3.4
				c0,0.262,0.038,0.449,0.114,0.556c0.079,0.113,0.171,0.167,0.28,0.167c0.3,0,0.853-0.386,1.654-1.152
				c0.803-0.766,1.435-1.563,1.897-2.38C169.775,84.943,170.244,83.468,170.571,81.617z"/>
			<path fill="#034EA1" d="M173.916,75.848l0.066-0.448c1.521-0.215,2.711-0.523,3.574-0.921l0.318,0.176l-1.319,6.364l-0.219,1.067
				l-1.172,5.64c-0.138,0.755-0.208,1.261-0.208,1.525c0,0.148,0.032,0.257,0.093,0.332c0.063,0.074,0.143,0.109,0.248,0.109
				c0.314,0,0.991-0.428,2.025-1.286l0.231,0.449c-0.916,0.775-1.8,1.403-2.647,1.878c-0.44,0.243-0.79,0.364-1.047,0.364
				c-0.204,0-0.374-0.074-0.504-0.224c-0.132-0.15-0.198-0.361-0.198-0.631c0-0.098,0.018-0.266,0.055-0.509l0.396-1.933
				c0.407-1.927,0.766-3.593,1.074-4.994l0.235-1.064c0.249-1.188,0.48-2.485,0.687-3.894c0.094-0.688,0.14-1.174,0.14-1.46
				c0-0.25-0.062-0.404-0.186-0.458C175.431,75.876,174.884,75.848,173.916,75.848z"/>
			<path fill="#034EA1" d="M178.16,87.564c0-2.342,0.601-4.161,1.809-5.458c1.206-1.292,2.533-1.941,3.979-1.941
				c0.958,0,1.702,0.287,2.236,0.859c0.534,0.576,0.8,1.399,0.8,2.475c0,1.355-0.293,2.651-0.881,3.89
				c-0.588,1.237-1.337,2.163-2.249,2.783c-0.91,0.618-1.82,0.925-2.735,0.925c-0.929,0-1.654-0.289-2.177-0.865
				C178.419,89.651,178.16,88.765,178.16,87.564z M179.879,87.394c0,1.026,0.181,1.763,0.543,2.205
				c0.363,0.442,0.873,0.663,1.535,0.663c0.972,0,1.729-0.545,2.272-1.636c0.688-1.392,1.032-2.984,1.032-4.777
				c0-1.055-0.187-1.805-0.554-2.251c-0.37-0.446-0.901-0.669-1.599-0.669c-0.563,0-1.061,0.188-1.487,0.564
				c-0.429,0.378-0.825,1.127-1.192,2.248C180.063,84.858,179.879,86.075,179.879,87.394z"/>
			<path fill="#034EA1" d="M188.7,83.157h-0.533c0.446-1.284,0.736-2.211,0.867-2.784c0.257-0.071,0.495-0.126,0.714-0.161
				c0.22-0.032,0.422-0.047,0.604-0.047c0.397,0,0.942,0.091,1.637,0.286c1.101,0.294,1.917,0.441,2.452,0.441
				c0.3,0,0.563-0.053,0.786-0.156c0.224-0.103,0.459-0.293,0.709-0.571l0.219,0.152c-0.052,0.228-0.096,0.45-0.132,0.672
				l-7.341,8.57c0.972-0.275,1.704-0.415,2.194-0.415c0.357,0,0.819,0.079,1.381,0.232c0.504,0.136,0.886,0.206,1.142,0.206
				c0.167,0,0.334-0.023,0.498-0.077c0.164-0.05,0.331-0.126,0.5-0.229c0.151-0.31,0.383-0.838,0.689-1.593l0.546,0.044
				c-0.263,0.755-0.53,1.793-0.801,3.118c-0.241,0.078-0.477,0.143-0.707,0.184c-0.231,0.045-0.457,0.066-0.675,0.066
				c-0.55,0-1.197-0.108-1.943-0.325c-0.931-0.258-1.66-0.388-2.195-0.388c-0.387,0-0.735,0.047-1.042,0.142
				c-0.309,0.092-0.648,0.272-1.021,0.533l-0.306-0.514l7.75-9.077c-0.674,0.223-1.139,0.357-1.396,0.404
				c-0.255,0.05-0.551,0.073-0.879,0.073c-0.338,0-0.693-0.037-1.068-0.111c-0.536-0.104-0.944-0.154-1.231-0.154
				c-0.103,0-0.206,0.005-0.315,0.019c-0.105,0.014-0.209,0.042-0.313,0.081C189.257,82.117,188.994,82.574,188.7,83.157z
				 M197.731,74.625l-3.868,3.757h-0.913l-2.189-3.757h0.755l2.05,2.424l3.32-2.424H197.731z"/>
			<path fill="#034EA1" d="M197.064,75.848l0.034-0.448c1.455-0.124,2.689-0.429,3.702-0.921l0.275,0.244
				c-0.101,0.423-0.55,2.492-1.341,6.205l-0.55,2.659c0.636-1.065,1.444-1.896,2.424-2.508c0.979-0.609,1.876-0.914,2.687-0.914
				c0.432,0,0.728,0.126,0.889,0.383c0.264,0.409,0.396,1.031,0.396,1.865c0,1.555-0.325,3.006-0.978,4.36
				c-0.651,1.35-1.514,2.412-2.59,3.178c-1.077,0.765-2.065,1.146-2.965,1.146c-0.664,0-1.216-0.187-1.651-0.561
				c-0.435-0.372-0.653-0.823-0.653-1.352c0-0.421,0.189-1.574,0.567-3.447c0.469-2.323,0.947-4.962,1.431-7.914
				c0.125-0.738,0.188-1.199,0.188-1.382c0-0.257-0.104-0.418-0.31-0.483C198.525,75.931,198.007,75.891,197.064,75.848z
				 M198.355,88.463c0,0.521,0.153,0.931,0.457,1.234c0.302,0.303,0.711,0.454,1.225,0.454c0.63,0,1.165-0.196,1.604-0.579
				c0.621-0.534,1.169-1.434,1.641-2.699c0.473-1.267,0.709-2.557,0.709-3.874c0-0.652-0.07-1.084-0.208-1.296
				c-0.109-0.154-0.348-0.23-0.714-0.23c-0.76,0-1.537,0.367-2.324,1.097c-0.789,0.73-1.382,1.743-1.785,3.035
				C198.558,86.894,198.355,87.849,198.355,88.463z"/>
			<path fill="#034EA1" d="M214.381,80.165l0.253,0.161c-0.72,2.491-1.273,4.701-1.664,6.629c-0.226,1.113-0.338,1.84-0.338,2.185
				c0,0.14,0.027,0.246,0.086,0.321c0.058,0.074,0.138,0.111,0.242,0.111c0.24,0,0.786-0.354,1.636-1.057l0.132,0.498
				c-0.791,0.695-1.553,1.252-2.283,1.668c-0.356,0.196-0.669,0.296-0.932,0.296c-0.196,0-0.344-0.057-0.438-0.168
				c-0.095-0.116-0.144-0.301-0.144-0.555c0-0.603,0.248-1.854,0.741-3.75l-0.087-0.011c-1.042,1.51-2.148,2.73-3.319,3.658
				c-0.794,0.633-1.372,0.946-1.737,0.946c-0.221,0-0.394-0.108-0.516-0.329c-0.184-0.337-0.277-0.823-0.277-1.46
				c0-1.083,0.218-2.374,0.656-3.878c0.436-1.496,0.882-2.566,1.338-3.204c0.344-0.48,1.016-1,2.013-1.548
				c0.624-0.341,1.274-0.514,1.95-0.514c0.292,0,0.606,0.03,0.94,0.093c0.336,0.068,0.689,0.164,1.063,0.291L214.381,80.165z
				 M212.695,81.617c-0.323-0.127-0.627-0.217-0.912-0.274c-0.286-0.062-0.558-0.088-0.813-0.088c-0.571,0-1.087,0.101-1.548,0.294
				c-0.132,0.068-0.301,0.31-0.504,0.728c-0.404,0.833-0.768,1.893-1.094,3.183c-0.324,1.286-0.489,2.418-0.489,3.4
				c0,0.262,0.038,0.449,0.116,0.556c0.077,0.113,0.17,0.167,0.281,0.167c0.301,0,0.852-0.386,1.652-1.152
				c0.802-0.766,1.435-1.563,1.896-2.38C211.897,84.943,212.367,83.468,212.695,81.617z"/>
			<path fill="#034EA1" d="M219.885,82.997h-0.495l0.68-1.87l0.263-0.787c0.22-0.056,0.429-0.102,0.626-0.132
				c0.197-0.029,0.385-0.042,0.561-0.042c0.276,0,0.669,0.04,1.174,0.126c0.62,0.108,1.065,0.166,1.329,0.166
				c0.322,0,0.731-0.079,1.229-0.232l0.174,0.275c-1.148,1.456-1.944,2.727-2.383,3.81c-0.44,1.083-0.66,2.157-0.66,3.216
				c0,0.775,0.166,1.366,0.491,1.77c0.325,0.402,0.732,0.602,1.225,0.602c1.134,0,2.122-0.742,2.962-2.231
				c0.844-1.489,1.264-3.02,1.264-4.6c0-0.484-0.084-0.83-0.251-1.044c-0.168-0.213-0.399-0.318-0.691-0.318
				c-0.182,0-0.398,0.055-0.646,0.165l-0.241-0.384c0.489-0.431,0.899-0.851,1.237-1.253c0.233-0.045,0.42-0.066,0.557-0.066
				c0.432,0,0.785,0.182,1.063,0.542c0.278,0.363,0.415,0.884,0.415,1.564c0,1.245-0.39,2.619-1.172,4.139
				c-0.782,1.515-1.76,2.732-2.929,3.652c-0.864,0.692-1.676,1.035-2.437,1.035c-0.737,0-1.336-0.259-1.793-0.777
				c-0.457-0.521-0.685-1.282-0.685-2.284c0-1.035,0.277-2.102,0.833-3.208c0.336-0.659,1.18-1.789,2.526-3.394
				c-0.46,0.064-0.841,0.1-1.142,0.1c-0.173,0-0.393-0.012-0.656-0.035c-0.316-0.019-0.542-0.031-0.682-0.031
				c-0.125,0-0.266,0.013-0.423,0.038c-0.156,0.027-0.335,0.064-0.532,0.114C220.454,81.952,220.191,82.409,219.885,82.997z"/>
			<path fill="#034EA1" d="M234.958,82.997h-0.494l0.68-1.87l0.264-0.787c0.22-0.056,0.428-0.102,0.626-0.132
				c0.197-0.029,0.383-0.042,0.56-0.042c0.278,0,0.669,0.04,1.174,0.126c0.62,0.108,1.066,0.166,1.328,0.166
				c0.32,0,0.731-0.079,1.23-0.232L240.5,80.5c-1.148,1.456-1.943,2.727-2.383,3.81c-0.439,1.083-0.659,2.157-0.659,3.216
				c0,0.775,0.163,1.366,0.489,1.77c0.325,0.402,0.732,0.602,1.225,0.602c1.133,0,2.121-0.742,2.965-2.231
				c0.841-1.489,1.261-3.02,1.261-4.6c0-0.484-0.083-0.83-0.253-1.044c-0.167-0.213-0.397-0.318-0.69-0.318
				c-0.182,0-0.397,0.055-0.646,0.165l-0.24-0.384c0.486-0.431,0.901-0.851,1.235-1.253c0.233-0.045,0.42-0.066,0.561-0.066
				c0.429,0,0.782,0.182,1.061,0.542c0.277,0.363,0.416,0.884,0.416,1.564c0,1.245-0.391,2.619-1.174,4.139
				c-0.782,1.515-1.76,2.732-2.93,3.652c-0.864,0.692-1.675,1.035-2.437,1.035c-0.737,0-1.335-0.259-1.792-0.777
				c-0.457-0.521-0.686-1.282-0.686-2.284c0-1.035,0.278-2.102,0.834-3.208c0.336-0.659,1.18-1.789,2.526-3.394
				c-0.46,0.064-0.841,0.1-1.14,0.1c-0.176,0-0.395-0.012-0.659-0.035c-0.315-0.019-0.541-0.031-0.681-0.031
				c-0.125,0-0.266,0.013-0.421,0.038c-0.157,0.027-0.333,0.064-0.531,0.114C235.53,81.952,235.266,82.409,234.958,82.997z"/>
			<path fill="#034EA1" d="M253.614,80.165l0.255,0.161c-0.719,2.491-1.272,4.701-1.663,6.629c-0.227,1.113-0.34,1.84-0.34,2.185
				c0,0.14,0.029,0.246,0.088,0.321c0.058,0.074,0.139,0.111,0.241,0.111c0.241,0,0.788-0.354,1.638-1.057l0.132,0.498
				c-0.791,0.695-1.553,1.252-2.284,1.668c-0.358,0.196-0.669,0.296-0.932,0.296c-0.197,0-0.344-0.057-0.438-0.168
				c-0.096-0.116-0.143-0.301-0.143-0.555c0-0.603,0.247-1.854,0.739-3.75l-0.087-0.011c-1.042,1.51-2.148,2.73-3.32,3.658
				c-0.792,0.633-1.371,0.946-1.738,0.946c-0.222,0-0.393-0.108-0.518-0.329c-0.184-0.337-0.275-0.823-0.275-1.46
				c0-1.083,0.22-2.374,0.655-3.878c0.436-1.496,0.883-2.566,1.337-3.204c0.346-0.48,1.019-1,2.016-1.548
				c0.625-0.341,1.273-0.514,1.947-0.514c0.295,0,0.609,0.03,0.942,0.093c0.334,0.068,0.69,0.164,1.063,0.291L253.614,80.165z
				 M251.93,81.617c-0.322-0.127-0.625-0.217-0.913-0.274c-0.285-0.062-0.556-0.088-0.811-0.088c-0.572,0-1.088,0.101-1.55,0.294
				c-0.131,0.068-0.299,0.31-0.503,0.728c-0.405,0.833-0.766,1.893-1.094,3.183c-0.325,1.286-0.487,2.418-0.487,3.4
				c0,0.262,0.039,0.449,0.114,0.556c0.077,0.113,0.171,0.167,0.28,0.167c0.3,0,0.854-0.386,1.653-1.152
				c0.803-0.766,1.435-1.563,1.897-2.38C251.133,84.943,251.603,83.468,251.93,81.617z"/>
			<path fill="#034EA1" d="M254.591,87.56h0.57l-0.011,1.037l0.011,0.81c0.359,0.283,0.737,0.495,1.137,0.64
				c0.398,0.144,0.815,0.216,1.248,0.216c0.703,0,1.287-0.226,1.748-0.683c0.46-0.449,0.691-1.017,0.691-1.699
				c0-0.489-0.113-0.848-0.341-1.075c-0.235-0.227-0.716-0.399-1.451-0.518c-1.304-0.204-2.148-0.447-2.528-0.734
				c-0.506-0.386-0.759-0.962-0.759-1.722c0-0.583,0.172-1.122,0.517-1.607c0.345-0.488,0.974-0.992,1.891-1.509
				c0.646-0.367,1.32-0.549,2.022-0.549c0.354,0,0.712,0.044,1.08,0.137c0.365,0.09,0.741,0.232,1.121,0.422
				c-0.17,0.658-0.304,1.5-0.399,2.524h-0.521c0.007-0.33,0.01-0.599,0.01-0.812c0-0.356-0.077-0.602-0.23-0.734
				c-0.478-0.395-1.083-0.593-1.821-0.593c-0.747,0-1.322,0.188-1.728,0.557c-0.406,0.374-0.608,0.859-0.608,1.467
				c0,0.503,0.164,0.869,0.496,1.094c0.25,0.172,0.854,0.347,1.813,0.534c1.087,0.199,1.79,0.413,2.111,0.647
				c0.447,0.339,0.672,0.86,0.672,1.561c0,0.967-0.5,1.893-1.502,2.789c-1,0.894-2.119,1.338-3.36,1.338
				c-0.402,0-0.8-0.049-1.191-0.154c-0.393-0.103-0.783-0.251-1.173-0.449C254.318,89.651,254.48,88.674,254.591,87.56z
				 M264.046,74.625l-3.867,3.757h-0.911l-2.192-3.757h0.755l2.05,2.424l3.319-2.424H264.046z"/>
			<path fill="#034EA1" d="M262.022,87.564c0-2.342,0.604-4.161,1.809-5.458c1.206-1.292,2.533-1.941,3.98-1.941
				c0.957,0,1.703,0.287,2.235,0.859c0.535,0.576,0.801,1.399,0.801,2.475c0,1.355-0.293,2.651-0.881,3.89
				c-0.588,1.237-1.338,2.163-2.248,2.783c-0.91,0.618-1.821,0.925-2.735,0.925c-0.93,0-1.655-0.289-2.178-0.865
				C262.283,89.651,262.022,88.765,262.022,87.564z M263.746,87.394c0,1.026,0.179,1.763,0.542,2.205
				c0.363,0.442,0.873,0.663,1.531,0.663c0.975,0,1.733-0.545,2.276-1.636c0.688-1.392,1.031-2.984,1.031-4.777
				c0-1.055-0.185-1.805-0.554-2.251c-0.371-0.446-0.901-0.669-1.598-0.669c-0.564,0-1.061,0.188-1.487,0.564
				c-0.43,0.378-0.828,1.127-1.192,2.248C263.926,84.858,263.746,86.075,263.746,87.394z"/>
			<path fill="#034EA1" d="M275.534,82.636l-0.265-0.439c1.384-0.92,2.337-1.51,2.856-1.757c0.387-0.185,0.694-0.274,0.921-0.274
				c0.162,0,0.291,0.055,0.392,0.161c0.099,0.113,0.149,0.271,0.149,0.472c0,0.274-0.223,1.438-0.662,3.495
				c0.608-0.981,1.215-1.751,1.82-2.311c0.604-0.559,1.273-1.003,2.011-1.331c0.735-0.324,1.321-0.485,1.753-0.485
				c0.342,0,0.61,0.152,0.803,0.46c0.305,0.506,0.461,1.135,0.461,1.888c0,1.193-0.252,2.418-0.754,3.67
				c-0.501,1.256-1.03,2.147-1.587,2.664c-0.557,0.52-1.245,1.026-2.065,1.516c-0.821,0.491-1.542,0.735-2.166,0.735
				c-0.375,0-0.842-0.089-1.406-0.274c-0.499,2.398-0.843,4.383-1.034,5.958c-0.65,0.08-1.198,0.187-1.637,0.319l-0.152-0.123
				c0.74-3.112,1.52-7.007,2.341-11.68c0.307-1.745,0.46-2.834,0.46-3.267c0-0.157-0.035-0.268-0.104-0.344
				c-0.07-0.081-0.159-0.116-0.269-0.116C277.167,81.57,276.544,81.924,275.534,82.636z M277.981,89.537
				c0.667,0.41,1.336,0.614,2.01,0.614c0.645,0,1.222-0.222,1.729-0.675c0.508-0.448,1.03-1.389,1.56-2.813
				c0.531-1.425,0.795-2.75,0.795-3.971c0-0.445-0.065-0.765-0.197-0.943c-0.131-0.184-0.335-0.276-0.614-0.276
				c-0.65,0-1.389,0.34-2.207,1.021c-0.82,0.678-1.489,1.617-2.01,2.819c-0.293,0.655-0.596,1.8-0.912,3.434L277.981,89.537z"/>
			<path fill="#034EA1" d="M286.697,82.771l-0.252-0.389c1.275-0.952,2.235-1.598,2.881-1.934c0.366-0.192,0.67-0.284,0.911-0.284
				c0.132,0,0.235,0.04,0.309,0.126c0.073,0.084,0.111,0.212,0.111,0.388c0,0.258-0.038,0.583-0.111,0.979l-0.733,3.314
				c1.163-1.974,2.142-3.355,2.94-4.14c0.454-0.444,0.87-0.668,1.253-0.668c0.159,0,0.361,0.04,0.603,0.121
				c-0.163,0.669-0.292,1.463-0.388,2.386l-0.331,0.08c-0.197-0.279-0.431-0.419-0.701-0.419c-0.301,0-0.617,0.117-0.944,0.352
				c-0.573,0.402-1.109,1.03-1.612,1.881c-0.501,0.854-0.884,1.788-1.147,2.802c-0.065,0.242-0.304,1.352-0.716,3.337
				c-0.452,0.087-0.967,0.217-1.538,0.392l-0.187-0.161c0.55-1.862,0.99-3.694,1.321-5.492c0.331-1.802,0.497-2.914,0.497-3.338
				c0-0.292-0.094-0.439-0.285-0.439C288.348,81.667,287.722,82.034,286.697,82.771z"/>
			<path fill="#034EA1" d="M294.386,82.636l-0.222-0.439c1.81-1.353,3-2.032,3.569-2.032c0.176,0,0.31,0.047,0.406,0.144
				c0.093,0.103,0.142,0.246,0.142,0.436c0,0.462-0.169,1.325-0.505,2.593c-0.857,3.227-1.286,5.186-1.286,5.872
				c0,0.25,0.114,0.374,0.341,0.374c0.262,0,0.852-0.328,1.77-0.98l0.221,0.424c-1.051,0.84-1.915,1.449-2.597,1.83
				c-0.277,0.161-0.538,0.241-0.779,0.241c-0.198,0-0.368-0.086-0.512-0.262c-0.143-0.181-0.214-0.428-0.214-0.759
				c0-0.474,0.194-1.433,0.583-2.874c0.767-2.825,1.147-4.53,1.147-5.104c0-0.28-0.105-0.417-0.318-0.417
				C295.897,81.681,295.316,81.997,294.386,82.636z M297.129,76.321c0-0.373,0.132-0.703,0.396-0.988
				c0.263-0.289,0.556-0.431,0.878-0.431c0.256,0,0.458,0.082,0.604,0.238c0.146,0.166,0.219,0.398,0.219,0.7
				c0,0.407-0.122,0.753-0.366,1.034c-0.245,0.276-0.525,0.417-0.841,0.417c-0.255,0-0.468-0.086-0.637-0.259
				C297.214,76.861,297.129,76.625,297.129,76.321z"/>
			<path fill="#034EA1" d="M299.127,91.097l-0.187-0.187c0.571-1.987,1.321-5.391,2.249-10.218c0.499-2.557,0.747-3.976,0.747-4.251
				c0-0.302-0.106-0.482-0.318-0.551c-0.11-0.035-0.631-0.054-1.561-0.054l0.055-0.474c1.245-0.154,2.474-0.448,3.69-0.884
				l0.229,0.244c-1.207,5.394-1.921,8.785-2.148,10.178c1.429-1.773,2.684-3.007,3.771-3.698c1.087-0.693,1.962-1.038,2.621-1.038
				c0.212,0,0.38,0.066,0.505,0.196c0.124,0.136,0.185,0.325,0.185,0.572c0,0.263-0.029,0.548-0.087,0.859
				c-0.139,0.718-0.472,2.135-1,4.25c-0.452,1.812-0.679,2.898-0.679,3.267c0,0.256,0.114,0.384,0.341,0.384
				c0.108,0,0.235-0.029,0.374-0.094c0.139-0.063,0.434-0.252,0.888-0.564l0.671-0.432l0.197,0.41
				c-1.375,1.004-2.284,1.616-2.724,1.843c-0.315,0.161-0.594,0.241-0.833,0.241c-0.207,0-0.374-0.078-0.506-0.233
				c-0.133-0.155-0.199-0.366-0.199-0.633c0-0.309,0.169-1.129,0.505-2.463c0.803-3.201,1.207-5.059,1.207-5.573
				c0-0.214-0.043-0.368-0.128-0.469c-0.083-0.106-0.202-0.156-0.356-0.156c-0.432,0-1.091,0.336-1.976,1.011
				c-1.153,0.879-2.024,1.898-2.61,3.055c-0.586,1.157-1.047,2.859-1.383,5.097C300.086,90.809,299.575,90.925,299.127,91.097z"/>
			<path fill="#034EA1" d="M309.739,87.564c0-2.342,0.604-4.161,1.811-5.458c1.204-1.292,2.531-1.941,3.979-1.941
				c0.957,0,1.703,0.287,2.237,0.859c0.532,0.576,0.799,1.399,0.799,2.475c0,1.355-0.294,2.651-0.881,3.89
				c-0.589,1.237-1.338,2.163-2.249,2.783c-0.909,0.618-1.821,0.925-2.735,0.925c-0.927,0-1.653-0.289-2.176-0.865
				C310,89.651,309.739,88.765,309.739,87.564z M311.461,87.394c0,1.026,0.179,1.763,0.543,2.205
				c0.362,0.442,0.874,0.663,1.533,0.663c0.974,0,1.731-0.545,2.272-1.636c0.689-1.392,1.034-2.984,1.034-4.777
				c0-1.055-0.184-1.805-0.556-2.251c-0.369-0.446-0.901-0.669-1.599-0.669c-0.563,0-1.06,0.188-1.487,0.564
				c-0.43,0.378-0.826,1.127-1.192,2.248C311.644,84.858,311.461,86.075,311.461,87.394z"/>
			<path fill="#034EA1" d="M325.549,75.922l0.065-0.449c1.54-0.206,2.742-0.537,3.606-0.994l0.275,0.244
				c-0.616,2.584-1.394,6.198-2.336,10.841c-0.424,2.07-0.636,3.255-0.636,3.548c0,0.176,0.025,0.302,0.076,0.375
				c0.052,0.073,0.125,0.108,0.22,0.108c0.33,0,0.948-0.354,1.855-1.067l0.275,0.402c-1.784,1.445-2.977,2.167-3.574,2.167
				c-0.161,0-0.295-0.066-0.4-0.197c-0.106-0.132-0.159-0.328-0.159-0.58c0-0.248,0.038-0.573,0.111-0.967
				c0.073-0.395,0.301-1.408,0.682-3.031c-0.909,1.484-1.931,2.654-3.063,3.502s-1.95,1.272-2.447,1.272
				c-0.294,0-0.533-0.154-0.717-0.458c-0.233-0.388-0.351-0.974-0.351-1.762c0-1.585,0.336-3.203,1.012-4.85
				c0.493-1.192,1.225-2.135,2.2-2.827c0.978-0.691,1.887-1.035,2.73-1.035c0.47,0,1.056,0.091,1.76,0.284l0.418-2.563
				c0.132-0.758,0.199-1.254,0.199-1.48c0-0.19-0.062-0.311-0.187-0.363C326.988,75.971,326.45,75.931,325.549,75.922z
				 M326.481,81.691c-0.799-0.389-1.526-0.581-2.185-0.581c-0.592,0-1.072,0.101-1.438,0.308c-0.22,0.125-0.429,0.376-0.625,0.755
				c-0.439,0.844-0.819,1.882-1.137,3.119c-0.317,1.237-0.477,2.249-0.477,3.031c0,0.54,0.045,0.891,0.136,1.048
				c0.093,0.158,0.226,0.237,0.401,0.237c0.447,0,1.018-0.276,1.712-0.824c0.952-0.756,1.748-1.743,2.389-2.964
				C325.898,84.605,326.306,83.228,326.481,81.691z"/>
			<path fill="#034EA1" d="M329.362,82.672l-0.177-0.46c1.185-0.854,2.112-1.457,2.783-1.806c0.306-0.161,0.579-0.241,0.821-0.241
				c0.166,0,0.298,0.051,0.389,0.152s0.136,0.256,0.136,0.459c0,0.157-0.024,0.372-0.078,0.647l-0.855,3.802
				c0.639-1.021,1.383-1.931,2.238-2.741c0.852-0.808,1.668-1.396,2.446-1.768c0.778-0.368,1.385-0.552,1.825-0.552
				c0.198,0,0.355,0.062,0.473,0.188c0.116,0.121,0.177,0.298,0.177,0.527c0,0.204-0.026,0.429-0.079,0.669
				c-0.073,0.388-0.418,1.876-1.037,4.461c-0.46,1.912-0.69,3.029-0.69,3.353c0,0.22,0.112,0.33,0.339,0.33
				c0.22,0,0.642-0.22,1.266-0.653l0.694-0.463l0.198,0.437c-1.81,1.394-3.012,2.084-3.607,2.084c-0.204,0-0.368-0.071-0.493-0.213
				c-0.125-0.144-0.186-0.343-0.186-0.6c0-0.431,0.241-1.575,0.725-3.429c0.678-2.593,1.02-4.194,1.02-4.802
				c0-0.152-0.037-0.272-0.115-0.357c-0.076-0.084-0.181-0.126-0.313-0.126c-0.432,0-1.031,0.303-1.8,0.912
				c-1.105,0.874-1.966,1.917-2.58,3.129c-0.614,1.213-1.096,2.932-1.442,5.157c-0.404,0.049-0.927,0.161-1.565,0.329l-0.177-0.185
				c0.535-1.786,0.998-3.709,1.389-5.765c0.299-1.58,0.449-2.587,0.449-3.02c0-0.153-0.033-0.267-0.094-0.345
				c-0.062-0.075-0.147-0.115-0.256-0.115C330.904,81.667,330.298,82.003,329.362,82.672z"/>
			<path fill="#034EA1" d="M340.788,87.564c0-2.342,0.603-4.161,1.808-5.458c1.207-1.292,2.533-1.941,3.979-1.941
				c0.958,0,1.705,0.287,2.238,0.859c0.532,0.576,0.799,1.399,0.799,2.475c0,1.355-0.294,2.651-0.883,3.89
				c-0.588,1.237-1.337,2.163-2.248,2.783c-0.909,0.618-1.821,0.925-2.735,0.925c-0.926,0-1.654-0.289-2.177-0.865
				C341.049,89.651,340.788,88.765,340.788,87.564z M342.51,87.394c0,1.026,0.179,1.763,0.543,2.205
				c0.362,0.442,0.874,0.663,1.533,0.663c0.972,0,1.731-0.545,2.273-1.636c0.689-1.392,1.033-2.984,1.033-4.777
				c0-1.055-0.185-1.805-0.556-2.251c-0.368-0.446-0.902-0.669-1.598-0.669c-0.564,0-1.061,0.188-1.487,0.564
				c-0.43,0.378-0.827,1.127-1.192,2.248C342.692,84.858,342.51,86.075,342.51,87.394z"/>
			<path fill="#034EA1" d="M350.299,87.56h0.569l-0.011,1.037l0.011,0.81c0.36,0.283,0.738,0.495,1.138,0.64
				c0.398,0.144,0.815,0.216,1.248,0.216c0.702,0,1.285-0.226,1.747-0.683c0.461-0.449,0.692-1.017,0.692-1.699
				c0-0.489-0.113-0.848-0.341-1.075c-0.235-0.227-0.719-0.399-1.452-0.518c-1.303-0.204-2.146-0.447-2.528-0.734
				c-0.505-0.386-0.757-0.962-0.757-1.722c0-0.583,0.171-1.122,0.515-1.607c0.346-0.488,0.976-0.992,1.893-1.509
				c0.644-0.367,1.319-0.549,2.021-0.549c0.354,0,0.712,0.044,1.078,0.137c0.366,0.09,0.742,0.232,1.122,0.422
				c-0.169,0.658-0.303,1.5-0.4,2.524h-0.52c0.005-0.33,0.01-0.599,0.01-0.812c0-0.356-0.077-0.602-0.23-0.734
				c-0.479-0.395-1.083-0.593-1.821-0.593c-0.746,0-1.322,0.188-1.728,0.557c-0.406,0.374-0.61,0.859-0.61,1.467
				c0,0.503,0.167,0.869,0.497,1.094c0.25,0.172,0.854,0.347,1.814,0.534c1.083,0.199,1.788,0.413,2.109,0.647
				c0.448,0.339,0.673,0.86,0.673,1.561c0,0.967-0.502,1.893-1.503,2.789c-1,0.894-2.119,1.338-3.359,1.338
				c-0.404,0-0.8-0.049-1.192-0.154c-0.394-0.103-0.783-0.251-1.172-0.449C350.026,89.651,350.189,88.674,350.299,87.56z"/>
			<path fill="#034EA1" d="M363.388,88.249l0.264,0.413c-1.945,1.623-3.252,2.435-3.918,2.435c-0.22,0-0.404-0.085-0.548-0.258
				c-0.147-0.172-0.219-0.408-0.219-0.705c0-0.369,0.159-1.294,0.482-2.78c0.447-2.02,0.803-3.75,1.067-5.188l-0.815-0.014
				l-1.087,0.014l0.052-0.365c0.719-0.221,1.385-0.486,1.994-0.801c0.174-0.853,0.375-2.142,0.603-3.86
				c0.592-0.19,1.177-0.444,1.755-0.761l0.252,0.2c-0.182,0.735-0.536,2.266-1.053,4.594l1.164,0.031
				c0.461,0,0.872-0.046,1.231-0.142l0.098,0.111c-0.101,0.35-0.186,0.717-0.253,1.09c-0.725-0.06-1.533-0.092-2.427-0.097
				c-0.833,3.934-1.25,6.218-1.25,6.848c0,0.197,0.035,0.345,0.108,0.439c0.073,0.094,0.169,0.143,0.286,0.143
				C361.489,89.595,362.226,89.145,363.388,88.249z"/>
		</g>
	</g>
</g>
<g id="mreza">
</g>
<g id="Layer_1">
</g>
<g id="glava">
</g>
</svg>
