<?xml version="1.0" encoding="utf-8"?>
<!-- Generator: Adobe Illustrator 16.0.0, SVG Export Plug-In . SVG Version: 6.00 Build 0)  -->
<!DOCTYPE svg PUBLIC "-//W3C//DTD SVG 1.1//EN" "http://www.w3.org/Graphics/SVG/1.1/DTD/svg11.dtd">
<svg version="1.1" xmlns="http://www.w3.org/2000/svg" xmlns:xlink="http://www.w3.org/1999/xlink" x="0px" y="0px"
	 width="252.992px" height="252.993px" viewBox="0 0 252.992 252.993" enable-background="new 0 0 252.992 252.993"
	 xml:space="preserve">
<g id="bg">
</g>
<g id="Layer_1">
	
		<rect x="0.5" y="0.5" fill="#010202" stroke="#000000" stroke-linecap="round" stroke-linejoin="round" stroke-miterlimit="10" width="251.992" height="251.993"/>
	<g>
		<path fill="#FFD009" stroke="#010202" stroke-linecap="round" stroke-linejoin="round" stroke-miterlimit="10" d="
			M104.769,132.768C74.437,111.819,66.831,70.243,87.783,39.91c1.286-1.865,2.656-3.644,4.093-5.337
			c-20.032,4.519-38.485,16.278-51.071,34.503c-26.605,38.521-16.944,91.311,21.573,117.91
			c38.518,26.604,91.307,16.945,117.906-21.572c9.827-14.222,14.698-30.388,15.004-46.465
			C173.704,146.614,134.016,152.969,104.769,132.768z"/>
		<path fill="none" stroke="#010202" stroke-linecap="round" stroke-linejoin="round" stroke-miterlimit="10" d="M120.868,156.998
			c1.723-0.787,3.034-2.309,3.562-4.078"/>
		<path fill="none" stroke="#000000" stroke-linecap="round" stroke-linejoin="round" stroke-miterlimit="10" d="M146.534,145.043
			c-4.123,7.6-15.115,11.066-22.857,9.584"/>
		<path fill="#FFD009" stroke="#010202" stroke-linecap="round" stroke-linejoin="round" stroke-miterlimit="10" d="M71.947,89.67
			c16.811,28.127,42.134,26.422,51.056,30.064c-3.188,9.499-15.203,21.554-22.36,28.109"/>
		<g>
			
				<ellipse transform="matrix(0.7374 -0.6754 0.6754 0.7374 -57.9538 72.3024)" fill="#FFFFFF" stroke="#010202" stroke-linecap="round" stroke-linejoin="round" stroke-miterlimit="10" cx="64.017" cy="110.69" rx="8.925" ry="15.406"/>
			
				<ellipse transform="matrix(0.7374 -0.6754 0.6754 0.7374 -61.2879 79.06)" fill="#010202" stroke="#000000" stroke-linecap="round" stroke-linejoin="round" stroke-miterlimit="10" cx="71.037" cy="118.354" rx="3.814" ry="4.895"/>
			<g>
				<path fill="none" stroke="#010202" stroke-linecap="round" stroke-linejoin="round" stroke-miterlimit="10" d="M60.316,93.189
					c-3.895-0.832-7.787-0.051-10.585,2.512c-2.794,2.561-3.916,6.369-3.427,10.321"/>
			</g>
		</g>
	</g>
	<path fill="#2D2E83" stroke="#010202" stroke-linecap="round" stroke-linejoin="round" stroke-miterlimit="10" d="M155.619-5.312
		c2.984,13.061-5.183,26.067-18.244,29.054c-13.059,2.985-26.065-5.18-29.051-18.239c-2.988-13.061,5.18-26.068,18.24-29.055
		C139.622-26.538,152.629-18.372,155.619-5.312z"/>
	<path fill="#2D2E83" stroke="#010202" stroke-linecap="round" stroke-linejoin="round" stroke-miterlimit="10" d="M155.619,246.878
		c2.984,13.061-5.183,26.067-18.244,29.054c-13.059,2.985-26.065-5.18-29.051-18.239c-2.988-13.061,5.18-26.068,18.24-29.055
		C139.622,225.651,152.629,233.817,155.619,246.878z"/>
	<path fill="#936037" stroke="#000000" stroke-linecap="round" stroke-linejoin="round" stroke-miterlimit="10" d="M269.125,190.294
		c4.894,21.417-8.498,42.747-29.916,47.644c-21.416,4.897-42.745-8.494-47.644-29.91c-4.898-21.417,8.495-42.749,29.914-47.646
		C242.893,155.484,264.222,168.875,269.125,190.294z"/>
	<path fill="#936037" stroke="#000000" stroke-linecap="round" stroke-linejoin="round" stroke-miterlimit="10" d="M17.006,190.294
		c4.894,21.417-8.498,42.747-29.916,47.644c-21.416,4.897-42.745-8.494-47.644-29.91c-4.898-21.417,8.495-42.749,29.914-47.646
		C-9.227,155.484,12.103,168.875,17.006,190.294z"/>
	
		<circle fill="#F0E443" stroke="#010202" stroke-linecap="round" stroke-linejoin="round" stroke-miterlimit="10" cx="0.5" cy="36.065" r="18.341"/>
	
		<circle fill="#F0E443" stroke="#010202" stroke-linecap="round" stroke-linejoin="round" stroke-miterlimit="10" cx="252.69" cy="36.065" r="18.341"/>
	
		<circle fill="#1D71B8" stroke="#010202" stroke-linecap="round" stroke-linejoin="round" stroke-miterlimit="10" cx="168.113" cy="81.609" r="17.806"/>
</g>
</svg>
