<?xml version="1.0" encoding="utf-8"?>
<!-- Generator: Adobe Illustrator 16.0.0, SVG Export Plug-In . SVG Version: 6.00 Build 0)  -->
<!DOCTYPE svg PUBLIC "-//W3C//DTD SVG 1.1//EN" "http://www.w3.org/Graphics/SVG/1.1/DTD/svg11.dtd">
<svg version="1.1" xmlns="http://www.w3.org/2000/svg" xmlns:xlink="http://www.w3.org/1999/xlink" x="0px" y="0px"
	 width="252.992px" height="252.993px" viewBox="0 0 252.992 252.993" enable-background="new 0 0 252.992 252.993"
	 xml:space="preserve">
<g id="bg">
</g>
<g id="Layer_1">
	
		<rect x="0.5" y="0.5" fill="#010202" stroke="#000000" stroke-linecap="round" stroke-linejoin="round" stroke-miterlimit="10" width="251.992" height="251.993"/>
	<g>
		<path fill="#CA9E67" stroke="#010202" stroke-linecap="round" stroke-linejoin="round" stroke-miterlimit="10" d="
			M192.137,124.505c1.673-12.121-6.797-23.3-18.917-24.973c-10.021-1.381-19.396,4.168-23.289,12.98
			c-0.817,1.846-1.393,3.838-1.682,5.939c-1.673,12.119,6.797,23.299,18.917,24.971c10.604,1.462,20.49-4.84,23.916-14.557
			C191.57,127.478,191.928,126.021,192.137,124.505z"/>
		<path fill="#936037" stroke="#000000" stroke-linecap="round" stroke-linejoin="round" stroke-miterlimit="10" d="M157.013,128.23
			L157.013,128.23c-5.412-2.048-14.841-6.228-17.187-11.199c-0.847-1.794-0.705-3.567,0.397-4.994
			c4.318-5.587,21.239-2.899,26.322-1.942c6.124,1.152,12.293,2.871,17.839,4.97c5.411,2.049,14.839,6.227,17.185,11.2
			c0.847,1.793,0.706,3.566-0.396,4.992c-4.318,5.588-21.241,2.901-26.323,1.945C168.726,132.048,162.558,130.329,157.013,128.23z
			 M182.968,118.806c-5.328-2.018-11.265-3.672-17.162-4.781c-13.286-2.5-21.106-1.236-22.417,0.459
			c-0.084,0.109-0.212,0.273,0.055,0.842c0.926,1.961,5.406,5.538,14.984,9.164l0,0c5.33,2.018,11.264,3.67,17.162,4.781
			c13.287,2.5,21.108,1.236,22.419-0.459c0.084-0.109,0.211-0.273-0.058-0.84C197.026,126.009,192.547,122.431,182.968,118.806z"/>
		<path fill="#CA9E67" stroke="#010202" stroke-linecap="round" stroke-linejoin="round" stroke-miterlimit="10" d="
			M191.697,126.797c0.187-0.747,0.333-1.512,0.439-2.292c1.673-12.121-6.797-23.3-18.917-24.973
			c-10.021-1.381-19.396,4.168-23.289,12.98c-0.817,1.846-1.393,3.838-1.682,5.939"/>
	</g>
	<g>
		<path fill="#FFD009" stroke="#010202" stroke-linecap="round" stroke-linejoin="round" stroke-miterlimit="10" d="M91.693,131.403
			c3.284-36.717,35.715-63.82,72.434-60.534c2.257,0.199,4.479,0.516,6.66,0.932c-13.801-15.206-33.126-25.468-55.188-27.44
			c-46.629-4.171-87.806,30.248-91.973,76.871c-4.169,46.626,30.246,87.803,76.869,91.971c17.217,1.543,33.685-2.184,47.826-9.839
			C113.612,198.212,88.526,166.808,91.693,131.403z"/>
		<path fill="none" stroke="#010202" stroke-linecap="round" stroke-linejoin="round" stroke-miterlimit="10" d="M78.542,157.352
			c1.533,1.112,3.504,1.503,5.303,1.091"/>
		<path fill="none" stroke="#000000" stroke-linecap="round" stroke-linejoin="round" stroke-miterlimit="10" d="M101.592,173.796
			c-8.645,0.156-17.077-7.7-19.602-15.168"/>
		<path fill="#FFD009" stroke="#010202" stroke-linecap="round" stroke-linejoin="round" stroke-miterlimit="10" d="M113.024,81.608
			c-16.192,28.486-2.231,49.682-1.004,59.24c-9.837,1.906-26.247-2.609-35.477-5.607"/>
		<g>
			<path fill="#FFFFFF" stroke="#010202" stroke-linecap="round" stroke-linejoin="round" stroke-miterlimit="10" d="M99.314,87.821
				c-2.624,8.092-8.556,13.418-13.246,11.896c-4.688-1.522-6.359-9.318-3.731-17.41c2.626-8.094,8.557-13.418,13.248-11.895
				C100.274,71.937,101.944,79.728,99.314,87.821z"/>
			
				<ellipse transform="matrix(0.9511 0.3089 -0.3089 0.9511 33.6195 -22.4235)" fill="#010202" stroke="#000000" stroke-linecap="round" stroke-linejoin="round" stroke-miterlimit="10" cx="87.616" cy="94.949" rx="3.814" ry="4.895"/>
			<g>
				<path fill="none" stroke="#010202" stroke-linecap="round" stroke-linejoin="round" stroke-miterlimit="10" d="M104.23,73.221
					c-1.194-3.799-3.792-6.802-7.4-7.974c-3.605-1.17-7.472-0.27-10.67,2.104"/>
			</g>
		</g>
	</g>
	
		<circle fill="#1D71B8" stroke="#010202" stroke-linecap="round" stroke-linejoin="round" stroke-miterlimit="10" cx="190.722" cy="52.224" r="12.392"/>
	<path fill="#2D2E83" stroke="#010202" stroke-linecap="round" stroke-linejoin="round" stroke-miterlimit="10" d="M155.619-5.312
		c2.984,13.061-5.183,26.067-18.244,29.054c-13.059,2.985-26.065-5.18-29.051-18.239c-2.988-13.061,5.18-26.068,18.24-29.055
		C139.622-26.538,152.629-18.372,155.619-5.312z"/>
	<path fill="#2D2E83" stroke="#010202" stroke-linecap="round" stroke-linejoin="round" stroke-miterlimit="10" d="M155.619,246.878
		c2.984,13.061-5.183,26.067-18.244,29.054c-13.059,2.985-26.065-5.18-29.051-18.239c-2.988-13.061,5.18-26.068,18.24-29.055
		C139.622,225.651,152.629,233.817,155.619,246.878z"/>
	<path fill="#936037" stroke="#000000" stroke-linecap="round" stroke-linejoin="round" stroke-miterlimit="10" d="M269.125,190.294
		c4.894,21.417-8.498,42.747-29.916,47.644c-21.416,4.897-42.745-8.494-47.644-29.91c-4.898-21.417,8.495-42.749,29.914-47.646
		C242.893,155.484,264.222,168.875,269.125,190.294z"/>
	<path fill="#936037" stroke="#000000" stroke-linecap="round" stroke-linejoin="round" stroke-miterlimit="10" d="M17.006,190.294
		c4.894,21.417-8.498,42.747-29.916,47.644c-21.416,4.897-42.745-8.494-47.644-29.91c-4.898-21.417,8.495-42.749,29.914-47.646
		C-9.227,155.484,12.103,168.875,17.006,190.294z"/>
	
		<circle fill="#F0E443" stroke="#010202" stroke-linecap="round" stroke-linejoin="round" stroke-miterlimit="10" cx="0.5" cy="36.065" r="18.341"/>
	
		<circle fill="#F0E443" stroke="#010202" stroke-linecap="round" stroke-linejoin="round" stroke-miterlimit="10" cx="252.69" cy="36.065" r="18.341"/>
</g>
</svg>
