<?xml version="1.0" encoding="utf-8"?>
<!-- Generator: Adobe Illustrator 16.0.0, SVG Export Plug-In . SVG Version: 6.00 Build 0)  -->
<!DOCTYPE svg PUBLIC "-//W3C//DTD SVG 1.1//EN" "http://www.w3.org/Graphics/SVG/1.1/DTD/svg11.dtd">
<svg version="1.1" xmlns="http://www.w3.org/2000/svg" xmlns:xlink="http://www.w3.org/1999/xlink" x="0px" y="0px"
	 width="453.544px" height="453.543px" viewBox="0 0 453.544 453.543" enable-background="new 0 0 453.544 453.543"
	 xml:space="preserve">
<g id="kvadrat" display="none">
	
		<rect x="0" y="450.929" display="inline" fill="none" stroke="#BD1622" stroke-width="0.3359" stroke-miterlimit="10" width="453.544" height="453.542"/>
	
		<rect x="453.696" y="450.929" display="inline" fill="none" stroke="#BD1622" stroke-width="0.3359" stroke-miterlimit="10" width="453.543" height="453.542"/>
</g>
<g id="Layer_1" display="none">
</g>
<g id="Layer_2">
	<g id="rdeÄa7bela">
	</g>
	<g>
		<g>
			
				<path fill="#7E4E24" stroke="#000000" stroke-width="8" stroke-linecap="round" stroke-linejoin="round" stroke-miterlimit="10" d="
				M387.272,149.748h-38.454c-3.322,0-6.187,2.335-6.856,5.59l-4.14,20.123c-0.472,2.292,0.234,4.669,1.88,6.333
				c1.328,1.342,3.125,2.077,4.977,2.077c0.444,0,0.892-0.042,1.335-0.128l42.594-8.28c3.289-0.639,5.664-3.52,5.664-6.872v-11.843
				C394.272,152.882,391.138,149.748,387.272,149.748z"/>
			
				<path fill="#7E4E24" stroke="#000000" stroke-width="8" stroke-linecap="round" stroke-linejoin="round" stroke-miterlimit="10" d="
				M113.042,155.797c-0.476-3.466-3.437-6.049-6.936-6.049H66.273c-3.866,0-7,3.134-7,7v11.843c0,3.351,2.375,6.232,5.664,6.872
				l42.593,8.28c0.444,0.086,0.891,0.128,1.336,0.128c1.772,0,3.498-0.673,4.81-1.914c1.641-1.551,2.432-3.799,2.125-6.036
				L113.042,155.797z"/>
		</g>
		
			<path fill="#FFFFFF" stroke="#000000" stroke-width="8" stroke-linecap="round" stroke-linejoin="round" stroke-miterlimit="10" d="
			M344.327,149.748c0-13.448-52.324-34.35-116.868-34.35c-64.542,0-116.866,20.902-116.866,34.35l8.657,150.367
			c0,21.005,47.255,38.03,105.539,38.03c58.29,0,105.543-17.025,105.543-38.03l13.917-149.541
			C344.296,150.3,344.327,150.025,344.327,149.748z"/>
	</g>
	<path fill="none" stroke="#000000" stroke-width="8" stroke-linecap="round" stroke-linejoin="round" stroke-miterlimit="10" d="
		M111.169,146.529c-0.045,0.272-0.076,0.545-0.076,0.82c0,13.333,51.877,34.056,115.868,34.056
		c63.988,0,115.865-20.724,115.865-34.056"/>
	<rect x="0" fill="none" width="453.544" height="453.543"/>
</g>
<g id="pivot" display="none">
	<circle display="inline" fill="#EC008C" cx="226.772" cy="330.288" r="7.857"/>
</g>
</svg>
