<?xml version="1.0" encoding="utf-8"?>
<!-- Generator: Adobe Illustrator 16.0.0, SVG Export Plug-In . SVG Version: 6.00 Build 0)  -->
<!DOCTYPE svg PUBLIC "-//W3C//DTD SVG 1.1//EN" "http://www.w3.org/Graphics/SVG/1.1/DTD/svg11.dtd">
<svg version="1.1" xmlns="http://www.w3.org/2000/svg" xmlns:xlink="http://www.w3.org/1999/xlink" x="0px" y="0px"
	 width="453.543px" height="453.543px" viewBox="0 0 453.543 453.543" enable-background="new 0 0 453.543 453.543"
	 xml:space="preserve">
<g id="kvadrat" display="none">
	
		<rect x="-450.75" y="450.929" display="inline" fill="none" stroke="#BD1622" stroke-width="0.3359" stroke-miterlimit="10" width="453.543" height="453.542"/>
	
		<rect y="450.929" display="inline" fill="none" stroke="#BD1622" stroke-width="0.3359" stroke-miterlimit="10" width="453.543" height="453.542"/>
</g>
<g id="Layer_1" display="none">
</g>
<g id="Layer_2">
	<g>
		
			<path fill="#7E4E24" stroke="#000000" stroke-width="8" stroke-linecap="round" stroke-linejoin="round" stroke-miterlimit="10" d="
			M381.714,117.377h-48.646c-1.65,0-3.13,1.012-3.728,2.551l-9.2,23.669c-0.597,1.534-0.192,3.276,1.018,4.392
			c0.755,0.695,1.727,1.058,2.711,1.058c0.594,0,1.191-0.132,1.748-0.403l27.55-13.397h28.547c2.209,0,4-1.791,4-4v-9.869
			C385.714,119.167,383.923,117.377,381.714,117.377z"/>
		
			<path fill="#7E4E24" stroke="#000000" stroke-width="8" stroke-linecap="round" stroke-linejoin="round" stroke-miterlimit="10" d="
			M67.869,117.377h48.646c1.65,0,3.13,1.012,3.728,2.551l9.2,23.669c0.597,1.534,0.192,3.276-1.018,4.392
			c-0.755,0.695-1.728,1.058-2.711,1.058c-0.594,0-1.191-0.132-1.748-0.403l-27.55-13.397H67.869c-2.209,0-4-1.791-4-4v-9.869
			C63.869,119.167,65.66,117.377,67.869,117.377z"/>
		
			<path fill="#EED2A3" stroke="#000000" stroke-width="8" stroke-linecap="round" stroke-linejoin="round" stroke-miterlimit="10" d="
			M116.828,123.752l8.771,191.09c0,0,0.873,32.934,96.914,32.934s96.917-32.934,96.917-32.934l14.176-191.09
			c0,13.625-43.005,24.669-108.389,24.669C159.834,148.421,116.828,137.377,116.828,123.752z"/>
		
			<path fill="#FFFFFF" stroke="#000000" stroke-width="8" stroke-linecap="round" stroke-linejoin="round" stroke-miterlimit="10" d="
			M333.606,123.751c0,13.625-43.005,24.669-108.389,24.669c-65.383,0-108.389-11.044-108.389-24.669
			c0-13.624,43.006-24.669,108.389-24.669C290.601,99.082,333.606,110.127,333.606,123.751z"/>
	</g>
	<g id="rdeÄa7bela">
	</g>
	<rect x="-450.75" fill="none" width="453.543" height="453.543"/>
	<rect fill="none" width="453.543" height="453.543"/>
</g>
<g id="pivot" display="none">
	<circle display="inline" fill="#EC008C" cx="224.791" cy="339.919" r="7.857"/>
</g>
</svg>
