<?xml version="1.0" encoding="utf-8"?>
<!-- Generator: Adobe Illustrator 16.0.0, SVG Export Plug-In . SVG Version: 6.00 Build 0)  -->
<!DOCTYPE svg PUBLIC "-//W3C//DTD SVG 1.1//EN" "http://www.w3.org/Graphics/SVG/1.1/DTD/svg11.dtd">
<svg version="1.1" xmlns="http://www.w3.org/2000/svg" xmlns:xlink="http://www.w3.org/1999/xlink" x="0px" y="0px"
	 width="453.543px" height="453.542px" viewBox="0 0 453.543 453.542" enable-background="new 0 0 453.543 453.542"
	 xml:space="preserve">
<g id="kvadrat" display="none">
	
		<rect x="-453.543" display="inline" fill="none" stroke="#BD1622" stroke-width="0.3359" stroke-miterlimit="10" width="453.543" height="453.542"/>
	
		<rect x="453.543" display="inline" fill="none" stroke="#BD1622" stroke-width="0.3359" stroke-miterlimit="10" width="453.541" height="453.542"/>
	
		<rect x="-453.543" y="453.543" display="inline" fill="none" stroke="#BD1622" stroke-width="0.3359" stroke-miterlimit="10" width="453.543" height="453.543"/>
	
		<rect y="453.543" display="inline" fill="none" stroke="#BD1622" stroke-width="0.3359" stroke-miterlimit="10" width="453.543" height="453.543"/>
	
		<rect x="453.543" y="453.543" display="inline" fill="none" stroke="#BD1622" stroke-width="0.3359" stroke-miterlimit="10" width="453.541" height="453.543"/>
	
		<rect x="-453.543" y="-451.394" display="inline" fill="none" stroke="#BD1622" stroke-width="0.3359" stroke-miterlimit="10" width="453.543" height="453.543"/>
	
		<rect y="-451.394" display="inline" fill="none" stroke="#BD1622" stroke-width="0.3359" stroke-miterlimit="10" width="453.543" height="453.543"/>
	
		<rect x="453.543" y="-451.394" display="inline" fill="none" stroke="#BD1622" stroke-width="0.3359" stroke-miterlimit="10" width="453.541" height="453.543"/>
</g>
<g id="Layer_1" display="none">
</g>
<g id="Layer_2">
	<g id="rdeÄa7bela">
	</g>
	
		<path fill="#0073B3" stroke="#000000" stroke-width="8" stroke-linecap="round" stroke-linejoin="round" stroke-miterlimit="10" d="
		M301.729,191.076c-2.859-7.6-6.903-14.418-10.813-20.995c-4.987-8.433-9.699-16.383-11.973-25.662
		c-2.594-10.616-4.055-25.199,1.712-38.566h10.32v-9.478h-57.656h-57.667v9.478h10.334c5.749,13.372,4.291,27.955,1.692,38.566
		c-2.255,9.279-6.979,17.229-11.967,25.662c-3.912,6.577-7.954,13.395-10.811,20.995c-12.247,32.465-13.3,61.592-3.315,91.658
		c6.973,20.923,21.685,39.451,35.34,53.235h1.628v13.144h69.52V335.97h1.627c13.671-13.784,28.38-32.313,35.34-53.235
		C315.025,252.668,313.974,223.541,301.729,191.076z"/>
	<rect fill="none" width="453.543" height="453.542"/>
</g>
<g id="pivot" display="none">
	<circle display="inline" fill="#EC008C" cx="233.313" cy="341.256" r="7.857"/>
</g>
</svg>
