<?xml version="1.0" encoding="utf-8"?>
<!-- Generator: Adobe Illustrator 16.0.0, SVG Export Plug-In . SVG Version: 6.00 Build 0)  -->
<!DOCTYPE svg PUBLIC "-//W3C//DTD SVG 1.1//EN" "http://www.w3.org/Graphics/SVG/1.1/DTD/svg11.dtd">
<svg version="1.1" xmlns="http://www.w3.org/2000/svg" xmlns:xlink="http://www.w3.org/1999/xlink" x="0px" y="0px"
	 width="453.543px" height="453.543px" viewBox="0 0 453.543 453.543" enable-background="new 0 0 453.543 453.543"
	 xml:space="preserve">
<g id="kvadrat" display="none">
	
		<rect x="-453.543" y="-453.543" display="inline" fill="none" stroke="#BD1622" stroke-width="0.3359" stroke-miterlimit="10" width="453.543" height="453.543"/>
	
		<rect y="-453.543" display="inline" fill="none" stroke="#BD1622" stroke-width="0.3359" stroke-miterlimit="10" width="453.543" height="453.543"/>
	
		<rect x="453.543" y="-453.543" display="inline" fill="none" stroke="#BD1622" stroke-width="0.3359" stroke-miterlimit="10" width="453.543" height="453.543"/>
	
		<rect x="-453.543" display="inline" fill="none" stroke="#BD1622" stroke-width="0.3359" stroke-miterlimit="10" width="453.543" height="453.543"/>
	
		<rect x="453.543" display="inline" fill="none" stroke="#BD1622" stroke-width="0.3359" stroke-miterlimit="10" width="453.543" height="453.543"/>
</g>
<g id="Layer_1" display="none">
</g>
<g id="Layer_2">
	<g id="rdeÄa7bela">
	</g>
	<g>
		<path fill="#0073B3" stroke="#1D1D1B" stroke-width="8" stroke-miterlimit="10" d="M338.883,163.653h-26.527
			c-0.986-13.364-6.386-28.915-30.736-28.915s-29.75,15.551-30.735,28.915h-25.167c-24.962,0-45.199,8.933-45.199,33.899v14.709
			h203.564v-18.477C384.083,168.82,363.845,163.653,338.883,163.653z M281.621,148.594c8.718,0,13.819,6.6,14.784,15.06H266.84
			C267.806,155.193,272.903,148.594,281.621,148.594z"/>
		<path fill="#C6C6C5" stroke="#1D1D1B" stroke-width="8" stroke-linecap="round" stroke-miterlimit="10" d="M127.237,219.854
			c-2.558-2.939-7.317-4.842-15.546-4.842h-46.91c-14.151,0-14.322,5.596-14.322,12.485c0,6.904,0.171,12.491,14.322,12.491h46.91
			c8.23,0,12.992-1.897,15.546-4.842h65.715v-15.293H127.237z"/>
		<path fill="#57B2E5" stroke="#1D1D1B" stroke-width="8" stroke-linecap="round" stroke-miterlimit="10" d="M225.718,315.274
			h113.165c24.962,0,45.2-8.934,45.2-33.899v-48.051v-21.063H181.115v75.795C184.485,307.923,203.141,315.274,225.718,315.274z"/>
	</g>
	<rect fill="none" width="453.543" height="453.543"/>
</g>
<g id="pivot" display="none">
	<circle display="inline" fill="#EC008C" cx="217.27" cy="307.418" r="7.856"/>
</g>
</svg>
