<?xml version="1.0" encoding="utf-8"?>
<!-- Generator: Adobe Illustrator 16.0.0, SVG Export Plug-In . SVG Version: 6.00 Build 0)  -->
<!DOCTYPE svg PUBLIC "-//W3C//DTD SVG 1.1//EN" "http://www.w3.org/Graphics/SVG/1.1/DTD/svg11.dtd">
<svg version="1.1" xmlns="http://www.w3.org/2000/svg" xmlns:xlink="http://www.w3.org/1999/xlink" x="0px" y="0px"
	 width="453.543px" height="453.543px" viewBox="0 0 453.543 453.543" enable-background="new 0 0 453.543 453.543"
	 xml:space="preserve">
<g id="kvadrat">
</g>
<g id="bg" display="none">
	<rect x="-2363.667" y="-1765.567" display="inline" width="15266.867" height="13678.951"/>
</g>
<g id="color" display="none">
	<g id="rdeča7bela" display="inline">
	</g>
	<g display="inline">
		
			<polygon fill="#A6A8AB" stroke="#000000" stroke-width="8" stroke-linecap="round" stroke-linejoin="round" stroke-miterlimit="10" points="
			232.194,342.437 232.194,198.109 220.211,198.109 220.211,342.437 214.579,342.437 218.232,390.594 235.309,390.594 
			238.965,342.437 		"/>
		
			<path fill="#E20613" stroke="#000000" stroke-width="8" stroke-linecap="round" stroke-linejoin="round" stroke-miterlimit="10" d="
			M226.321,62.95c-32.427,0-28.003,40-28.003,40l9.972,120.422l-9.972,14.026h57.007l-9.973-14.026l9.973-120.422
			C255.325,102.95,258.749,62.95,226.321,62.95z"/>
	</g>
	
		<rect x="-2873.953" y="-2185.576" display="inline" fill="none" stroke="#000000" stroke-miterlimit="10" width="16736" height="13952"/>
</g>
<g id="cb_1_">
	<g id="rdeča7bela_copy_3">
	</g>
	<g>
		<g>
			<polygon fill="#A8A8A8" points="232.194,342.437 232.194,198.109 220.211,198.109 220.211,342.437 214.579,342.437 
				218.232,390.594 235.309,390.594 238.965,342.437 			"/>
			<path d="M235.309,394.594h-17.077c-2.092,0-3.831-1.612-3.989-3.698l-3.653-48.157c-0.084-1.11,0.298-2.206,1.055-3.022
				c0.757-0.817,1.82-1.281,2.934-1.281h1.633V198.109c0-2.209,1.791-4,4-4h11.982c2.209,0,4,1.791,4,4v140.327h2.771
				c1.113,0,2.177,0.464,2.934,1.281s1.139,1.912,1.055,3.022l-3.656,48.158C239.139,392.982,237.401,394.594,235.309,394.594z
				 M221.94,386.594h9.661l3.049-40.158h-2.456c-2.209,0-4-1.791-4-4V202.109h-3.982v140.327c0,2.209-1.791,4-4,4h-1.318
				L221.94,386.594z"/>
		</g>
		<g>
			<path fill="#D9D9D9" d="M226.321,62.95c-32.427,0-28.003,40-28.003,40l9.972,120.422l-9.972,14.026h57.007l-9.973-14.026
				l9.973-120.422C255.325,102.95,258.749,62.95,226.321,62.95z"/>
			<path d="M255.325,241.398h-57.007c-1.497,0-2.868-0.836-3.555-2.166s-0.573-2.932,0.295-4.151l9.125-12.835l-9.847-118.917
				c-0.162-1.541-2.116-22.399,9.208-35.045c5.546-6.193,13.209-9.333,22.777-9.333c9.562,0,17.289,3.136,22.967,9.322
				c11.774,12.825,10.1,34.119,10.022,35.02l-9.851,118.955l9.125,12.835c0.867,1.22,0.981,2.822,0.295,4.152
				S256.822,241.398,255.325,241.398z M206.069,233.398h41.503l-5.48-7.708c-0.547-0.769-0.805-1.708-0.727-2.648l9.973-120.422
				c0.016-0.192,1.435-18.751-7.963-28.959c-4.157-4.516-9.735-6.71-17.054-6.71c-7.286,0-12.781,2.175-16.799,6.65
				c-9.131,10.168-7.248,28.729-7.228,28.916c0.003,0.033,0.007,0.071,0.01,0.104l9.972,120.422c0.078,0.94-0.18,1.878-0.727,2.647
				L206.069,233.398z"/>
		</g>
	</g>
	<path d="M13862.547,11766.924h-16737v-13953h16737V11766.924z M-2873.953,11765.924h16736l-0.5-13951h-16735.5l0.5,13951H-2873.953
		z"/>
</g>
<g id="cb" display="none">
	<g id="rdeča7bela_copy" display="inline">
	</g>
</g>
<g id="pivot">
	<circle fill="none" cx="228.987" cy="387.818" r="14.133"/>
</g>
</svg>
