<?xml version="1.0" encoding="utf-8"?>
<!-- Generator: Adobe Illustrator 16.0.0, SVG Export Plug-In . SVG Version: 6.00 Build 0)  -->
<!DOCTYPE svg PUBLIC "-//W3C//DTD SVG 1.1//EN" "http://www.w3.org/Graphics/SVG/1.1/DTD/svg11.dtd">
<svg version="1.1" xmlns="http://www.w3.org/2000/svg" xmlns:xlink="http://www.w3.org/1999/xlink" x="0px" y="0px"
	 width="453.543px" height="453.543px" viewBox="0 0 453.543 453.543" enable-background="new 0 0 453.543 453.543"
	 xml:space="preserve">
<g id="kvadrat">
</g>
<g id="bg" display="none">
	<rect x="-322.723" y="-1765.567" display="inline" width="15266.867" height="13678.951"/>
</g>
<g id="color" display="none">
	<g id="rdeča7bela" display="inline">
	</g>
	
		<path display="inline" fill="#A6A8AB" stroke="#000000" stroke-width="8" stroke-linecap="round" stroke-linejoin="round" stroke-miterlimit="10" d="
		M247.146,292.848V160.693c16.387-7.673,27.744-24.303,27.744-43.592c0-19.292-11.357-35.922-27.744-43.594v11.131v8.644v14.881
		l-20.374,11.764l-20.374-11.764V93.282h-0.001V73.507c-16.387,7.671-27.744,24.302-27.744,43.594
		c0,19.29,11.357,35.919,27.744,43.592v132.155c-16.387,7.673-27.744,24.303-27.744,43.594c0,19.291,11.357,35.922,27.744,43.594
		v-10.081v-8.645V346.43l20.374-11.764l20.374,11.764v14.881h0.001v18.725c16.387-7.672,27.744-24.303,27.744-43.594
		C274.89,317.151,263.533,300.521,247.146,292.848z"/>
	
		<rect x="-833.008" y="-2185.576" display="inline" fill="none" stroke="#000000" stroke-miterlimit="10" width="16736" height="13952"/>
</g>
<g id="cb_1_">
	<g id="rdeča7bela_copy_3">
	</g>
	<g>
		<path fill="#3C3C3B" d="M247.146,292.848V160.693c16.387-7.673,27.744-24.303,27.744-43.592c0-19.292-11.357-35.922-27.744-43.594
			v11.131v8.644v14.881l-20.374,11.764l-20.374-11.764V93.282h-0.001V73.507c-16.387,7.671-27.744,24.302-27.744,43.594
			c0,19.29,11.357,35.919,27.744,43.592v132.155c-16.387,7.673-27.744,24.303-27.744,43.594c0,19.291,11.357,35.922,27.744,43.594
			v-10.081v-8.645V346.43l20.374-11.764l20.374,11.764v14.881h0.001v18.725c16.387-7.672,27.744-24.303,27.744-43.594
			C274.89,317.151,263.533,300.521,247.146,292.848z"/>
		<path d="M247.146,384.036c-0.749,0-1.495-0.21-2.146-0.625c-1.154-0.734-1.854-2.007-1.854-3.375l-0.001-31.297l-16.374-9.454
			l-16.374,9.454v31.297c0,1.368-0.699,2.641-1.854,3.375c-1.154,0.734-2.604,0.827-3.843,0.248
			c-18.253-8.546-30.047-27.08-30.047-47.217c0-19.275,10.808-37.083,27.744-46.067V163.166
			c-16.936-8.984-27.744-26.791-27.744-46.065c0-20.138,11.794-38.671,30.048-47.216c1.239-0.58,2.688-0.487,3.842,0.248
			c1.154,0.734,1.854,2.007,1.854,3.375l0.001,32.347l16.374,9.454l16.374-9.454V73.507c0-1.368,0.699-2.641,1.854-3.375
			c1.154-0.734,2.604-0.828,3.842-0.248c18.253,8.545,30.048,27.079,30.048,47.217c0,19.275-10.808,37.082-27.744,46.065v127.209
			c16.936,8.984,27.744,26.792,27.744,46.067c0,20.137-11.794,38.67-30.048,47.217C248.302,383.911,247.723,384.036,247.146,384.036
			z M226.771,330.667c0.69,0,1.381,0.179,2,0.536l20.374,11.764c1.238,0.715,2,2.035,2,3.464l0,26.778
			c12.167-8.099,19.745-21.918,19.745-36.766c0-17.045-9.986-32.735-25.44-39.971c-1.406-0.658-2.304-2.07-2.304-3.623V160.693
			c0-1.552,0.898-2.964,2.304-3.623c15.455-7.236,25.44-22.925,25.44-39.97c0-14.849-7.577-28.667-19.744-36.766v27.828
			c0,1.429-0.762,2.75-2,3.464l-20.374,11.764c-1.238,0.714-2.762,0.714-4,0l-20.374-11.764c-1.238-0.715-2-2.035-2-3.464l0-27.828
			c-12.167,8.098-19.744,21.917-19.744,36.766c0,17.044,9.986,32.733,25.44,39.97c1.406,0.658,2.304,2.07,2.304,3.623v132.155
			c0,1.552-0.898,2.964-2.304,3.623c-15.454,7.236-25.44,22.926-25.44,39.971c0,14.848,7.577,28.667,19.744,36.766V346.43
			c0-1.429,0.762-2.75,2-3.464l20.374-11.764C225.389,330.845,226.08,330.667,226.771,330.667z"/>
	</g>
	<path d="M15903.492,11766.924h-16737v-13953h16737V11766.924z M-833.008,11765.924h16736l-0.5-13951h-16735.5l0.5,13951H-833.008z"
		/>
</g>
<g id="cb" display="none">
	<g id="rdeča7bela_copy" display="inline">
	</g>
	
		<path display="inline" fill="none" stroke="#000000" stroke-width="8" stroke-linecap="round" stroke-linejoin="round" stroke-miterlimit="10" d="
		M247.146,292.848V160.693c16.387-7.673,27.744-24.303,27.744-43.592c0-19.292-11.357-35.922-27.744-43.594v11.131v8.644v14.881
		l-20.374,11.764l-20.374-11.764V93.282h-0.001V73.507c-16.387,7.671-27.744,24.302-27.744,43.594
		c0,19.29,11.357,35.919,27.744,43.592v132.155c-16.387,7.673-27.744,24.303-27.744,43.594c0,19.291,11.357,35.922,27.744,43.594
		v-10.081v-8.645V346.43l20.374-11.764l20.374,11.764v14.881h0.001v18.725c16.387-7.672,27.744-24.303,27.744-43.594
		C274.89,317.151,263.533,300.521,247.146,292.848z"/>
</g>
<g id="pivot">
	<circle fill="none" cx="225.661" cy="374.797" r="14.133"/>
</g>
</svg>
