<?xml version="1.0" encoding="utf-8"?>
<!-- Generator: Adobe Illustrator 16.0.0, SVG Export Plug-In . SVG Version: 6.00 Build 0)  -->
<!DOCTYPE svg PUBLIC "-//W3C//DTD SVG 1.1//EN" "http://www.w3.org/Graphics/SVG/1.1/DTD/svg11.dtd">
<svg version="1.1" xmlns="http://www.w3.org/2000/svg" xmlns:xlink="http://www.w3.org/1999/xlink" x="0px" y="0px"
	 width="453.543px" height="453.543px" viewBox="0 0 453.543 453.543" enable-background="new 0 0 453.543 453.543"
	 xml:space="preserve">
<g id="kvadrat">
</g>
<g id="bg" display="none">
	<rect x="-3894.376" y="-1765.567" display="inline" width="15266.867" height="13678.951"/>
</g>
<g id="color" display="none">
	<g id="rdeča7bela" display="inline">
	</g>
	
		<path display="inline" fill="#A6A8AB" stroke="#000000" stroke-width="8" stroke-linecap="round" stroke-linejoin="round" stroke-miterlimit="10" d="
		M266.265,131.428H187.28l-55.852,55.851v78.984l55.852,55.852h78.985l55.851-55.852v-78.984L266.265,131.428z M226.772,280.147
		c-29.479,0-53.376-23.896-53.376-53.375c0-29.479,23.897-53.376,53.376-53.376s53.376,23.897,53.376,53.376
		C280.148,256.251,256.25,280.147,226.772,280.147z"/>
	
		<rect x="-4404.662" y="-2185.576" display="inline" fill="none" stroke="#000000" stroke-miterlimit="10" width="16736" height="13952"/>
</g>
<g id="cb_1_">
	<g id="rdeča7bela_copy_3">
	</g>
	<g>
		<path fill="#3C3C3B" d="M266.265,131.428H187.28l-55.852,55.851v78.984l55.852,55.852h78.985l55.851-55.852v-78.984
			L266.265,131.428z M226.772,280.147c-29.479,0-53.376-23.896-53.376-53.375c0-29.479,23.897-53.376,53.376-53.376
			s53.376,23.897,53.376,53.376C280.148,256.251,256.25,280.147,226.772,280.147z"/>
		<path d="M266.265,326.115H187.28c-1.061,0-2.078-0.421-2.829-1.171L128.6,269.092c-0.75-0.75-1.171-1.768-1.171-2.829v-78.984
			c0-1.061,0.421-2.079,1.171-2.829l55.852-55.851c0.75-0.75,1.768-1.171,2.829-1.171h78.985c1.061,0,2.078,0.421,2.829,1.171
			l55.851,55.851c0.75,0.75,1.171,1.768,1.171,2.829v78.984c0,1.061-0.421,2.079-1.171,2.829l-55.851,55.852
			C268.343,325.693,267.326,326.115,266.265,326.115z M188.937,318.115h75.672l53.507-53.508v-75.671l-53.507-53.507h-75.672
			l-53.508,53.507v75.671L188.937,318.115z M226.772,284.147c-31.637,0-57.376-25.738-57.376-57.375s25.739-57.376,57.376-57.376
			s57.376,25.739,57.376,57.376S258.409,284.147,226.772,284.147z M226.772,177.396c-27.226,0-49.376,22.15-49.376,49.376
			s22.15,49.375,49.376,49.375s49.376-22.149,49.376-49.375S253.998,177.396,226.772,177.396z"/>
	</g>
	<path d="M12331.838,11766.924h-16737v-13953h16737V11766.924z M-4404.662,11765.924h16736l-0.5-13951h-16735.5l0.5,13951H-4404.662
		z"/>
</g>
<g id="cb" display="none">
	<g id="rdeča7bela_copy" display="inline">
	</g>
	
		<path display="inline" fill="none" stroke="#000000" stroke-width="8" stroke-linecap="round" stroke-linejoin="round" stroke-miterlimit="10" d="
		M266.265,131.428H187.28l-55.852,55.851v78.984l55.852,55.852h78.985l55.851-55.852v-78.984L266.265,131.428z M226.772,280.147
		c-29.479,0-53.376-23.896-53.376-53.375c0-29.479,23.897-53.376,53.376-53.376s53.376,23.897,53.376,53.376
		C280.148,256.251,256.25,280.147,226.772,280.147z"/>
</g>
<g id="pivot">
	<circle fill="none" cx="226.056" cy="319.822" r="14.133"/>
</g>
</svg>
