<?xml version="1.0" encoding="utf-8"?>
<!-- Generator: Adobe Illustrator 16.0.0, SVG Export Plug-In . SVG Version: 6.00 Build 0)  -->
<!DOCTYPE svg PUBLIC "-//W3C//DTD SVG 1.1//EN" "http://www.w3.org/Graphics/SVG/1.1/DTD/svg11.dtd">
<svg version="1.1" xmlns="http://www.w3.org/2000/svg" xmlns:xlink="http://www.w3.org/1999/xlink" x="0px" y="0px"
	 width="453.543px" height="453.543px" viewBox="0 0 453.543 453.543" enable-background="new 0 0 453.543 453.543"
	 xml:space="preserve">
<g id="kvadrat">
</g>
<g id="bg" display="none">
	<rect x="-3384.14" y="-1765.567" display="inline" width="15266.867" height="13678.951"/>
</g>
<g id="color" display="none">
	<g id="rdeča7bela" display="inline">
	</g>
	<g display="inline">
		
			<path fill="#F8B133" stroke="#000000" stroke-width="8" stroke-linecap="round" stroke-linejoin="round" stroke-miterlimit="10" d="
			M397.66,312.216H55.884l170.889-170.888L397.66,312.216z M156.779,275.567h139.986l-69.992-69.993L156.779,275.567z"/>
		<g>
			
				<line fill="none" stroke="#000000" stroke-width="8" stroke-linecap="round" stroke-linejoin="round" stroke-miterlimit="10" x1="91.246" y1="302.309" x2="91.246" y2="311.817"/>
			
				<line fill="none" stroke="#000000" stroke-width="8" stroke-linecap="round" stroke-linejoin="round" stroke-miterlimit="10" x1="110.607" y1="302.309" x2="110.607" y2="311.817"/>
			
				<line fill="none" stroke="#000000" stroke-width="8" stroke-linecap="round" stroke-linejoin="round" stroke-miterlimit="10" x1="129.968" y1="302.309" x2="129.968" y2="311.817"/>
			
				<line fill="none" stroke="#000000" stroke-width="8" stroke-linecap="round" stroke-linejoin="round" stroke-miterlimit="10" x1="149.329" y1="302.309" x2="149.329" y2="311.817"/>
			
				<line fill="none" stroke="#000000" stroke-width="8" stroke-linecap="round" stroke-linejoin="round" stroke-miterlimit="10" x1="168.689" y1="302.309" x2="168.689" y2="311.817"/>
			
				<line fill="none" stroke="#000000" stroke-width="8" stroke-linecap="round" stroke-linejoin="round" stroke-miterlimit="10" x1="188.05" y1="302.309" x2="188.05" y2="311.817"/>
			
				<line fill="none" stroke="#000000" stroke-width="8" stroke-linecap="round" stroke-linejoin="round" stroke-miterlimit="10" x1="207.412" y1="302.309" x2="207.412" y2="311.817"/>
			
				<line fill="none" stroke="#000000" stroke-width="8" stroke-linecap="round" stroke-linejoin="round" stroke-miterlimit="10" x1="226.772" y1="302.309" x2="226.772" y2="311.817"/>
			
				<line fill="none" stroke="#000000" stroke-width="8" stroke-linecap="round" stroke-linejoin="round" stroke-miterlimit="10" x1="246.132" y1="302.309" x2="246.132" y2="311.817"/>
			
				<line fill="none" stroke="#000000" stroke-width="8" stroke-linecap="round" stroke-linejoin="round" stroke-miterlimit="10" x1="265.494" y1="302.309" x2="265.494" y2="311.817"/>
			
				<line fill="none" stroke="#000000" stroke-width="8" stroke-linecap="round" stroke-linejoin="round" stroke-miterlimit="10" x1="284.855" y1="302.309" x2="284.855" y2="311.817"/>
			
				<line fill="none" stroke="#000000" stroke-width="8" stroke-linecap="round" stroke-linejoin="round" stroke-miterlimit="10" x1="304.215" y1="302.309" x2="304.215" y2="311.817"/>
			
				<line fill="none" stroke="#000000" stroke-width="8" stroke-linecap="round" stroke-linejoin="round" stroke-miterlimit="10" x1="323.576" y1="302.309" x2="323.576" y2="311.817"/>
			
				<line fill="none" stroke="#000000" stroke-width="8" stroke-linecap="round" stroke-linejoin="round" stroke-miterlimit="10" x1="342.937" y1="302.309" x2="342.937" y2="311.817"/>
			
				<line fill="none" stroke="#000000" stroke-width="8" stroke-linecap="round" stroke-linejoin="round" stroke-miterlimit="10" x1="362.298" y1="302.309" x2="362.298" y2="311.817"/>
		</g>
	</g>
	
		<rect x="-3894.425" y="-2185.576" display="inline" fill="none" stroke="#000000" stroke-miterlimit="10" width="16736" height="13952"/>
</g>
<g id="cb_1_">
	<g id="rdeča7bela_copy_3">
	</g>
	<g>
		<g>
			<path fill="#B8B8B8" d="M397.66,312.216H55.884l170.889-170.888L397.66,312.216z M156.779,275.567h139.986l-69.992-69.993
				L156.779,275.567z"/>
			<path d="M397.68,316.216c-0.007,0-0.014,0-0.02,0H55.884c-1.618,0-3.076-0.975-3.695-2.469s-0.277-3.215,0.867-4.359
				L223.944,138.5c0.75-0.75,1.768-1.172,2.829-1.172s2.078,0.421,2.829,1.172L400.26,309.159c0.869,0.733,1.42,1.831,1.42,3.057
				C401.68,314.425,399.889,316.216,397.68,316.216z M65.541,308.216h322.462l-161.23-161.231L65.541,308.216z M296.765,279.567
				H156.779c-1.618,0-3.076-0.975-3.695-2.469s-0.277-3.215,0.867-4.359l69.994-69.993c0.75-0.75,1.768-1.172,2.829-1.172
				s2.078,0.421,2.829,1.172l69.992,69.993c1.144,1.144,1.486,2.864,0.867,4.359S298.383,279.567,296.765,279.567z M166.436,271.567
				h120.673l-60.335-60.336L166.436,271.567z"/>
		</g>
		<g>
			<path d="M91.246,315.817c-2.209,0-4-1.791-4-4v-9.508c0-2.209,1.791-4,4-4s4,1.791,4,4v9.508
				C95.246,314.026,93.455,315.817,91.246,315.817z"/>
			<path d="M110.607,315.817c-2.209,0-4-1.791-4-4v-9.508c0-2.209,1.791-4,4-4s4,1.791,4,4v9.508
				C114.607,314.026,112.816,315.817,110.607,315.817z"/>
			<path d="M129.968,315.817c-2.209,0-4-1.791-4-4v-9.508c0-2.209,1.791-4,4-4s4,1.791,4,4v9.508
				C133.968,314.026,132.177,315.817,129.968,315.817z"/>
			<path d="M149.329,315.817c-2.209,0-4-1.791-4-4v-9.508c0-2.209,1.791-4,4-4s4,1.791,4,4v9.508
				C153.329,314.026,151.538,315.817,149.329,315.817z"/>
			<path d="M168.689,315.817c-2.209,0-4-1.791-4-4v-9.508c0-2.209,1.791-4,4-4s4,1.791,4,4v9.508
				C172.689,314.026,170.898,315.817,168.689,315.817z"/>
			<path d="M188.05,315.817c-2.209,0-4-1.791-4-4v-9.508c0-2.209,1.791-4,4-4s4,1.791,4,4v9.508
				C192.05,314.026,190.259,315.817,188.05,315.817z"/>
			<path d="M207.412,315.817c-2.209,0-4-1.791-4-4v-9.508c0-2.209,1.791-4,4-4s4,1.791,4,4v9.508
				C211.412,314.026,209.621,315.817,207.412,315.817z"/>
			<path d="M226.772,315.817c-2.209,0-4-1.791-4-4v-9.508c0-2.209,1.791-4,4-4s4,1.791,4,4v9.508
				C230.772,314.026,228.981,315.817,226.772,315.817z"/>
			<path d="M246.132,315.817c-2.209,0-4-1.791-4-4v-9.508c0-2.209,1.791-4,4-4s4,1.791,4,4v9.508
				C250.132,314.026,248.341,315.817,246.132,315.817z"/>
			<path d="M265.494,315.817c-2.209,0-4-1.791-4-4v-9.508c0-2.209,1.791-4,4-4s4,1.791,4,4v9.508
				C269.494,314.026,267.703,315.817,265.494,315.817z"/>
			<path d="M284.855,315.817c-2.209,0-4-1.791-4-4v-9.508c0-2.209,1.791-4,4-4s4,1.791,4,4v9.508
				C288.855,314.026,287.064,315.817,284.855,315.817z"/>
			<path d="M304.215,315.817c-2.209,0-4-1.791-4-4v-9.508c0-2.209,1.791-4,4-4s4,1.791,4,4v9.508
				C308.215,314.026,306.424,315.817,304.215,315.817z"/>
			<path d="M323.576,315.817c-2.209,0-4-1.791-4-4v-9.508c0-2.209,1.791-4,4-4s4,1.791,4,4v9.508
				C327.576,314.026,325.785,315.817,323.576,315.817z"/>
			<path d="M342.937,315.817c-2.209,0-4-1.791-4-4v-9.508c0-2.209,1.791-4,4-4s4,1.791,4,4v9.508
				C346.937,314.026,345.146,315.817,342.937,315.817z"/>
			<path d="M362.298,315.817c-2.209,0-4-1.791-4-4v-9.508c0-2.209,1.791-4,4-4s4,1.791,4,4v9.508
				C366.298,314.026,364.507,315.817,362.298,315.817z"/>
		</g>
	</g>
	<path d="M12842.074,11766.924h-16737v-13953h16737V11766.924z M-3894.425,11765.924h16736l-0.5-13951h-16735.5l0.5,13951H-3894.425
		z"/>
</g>
<g id="cb" display="none">
	<g id="rdeča7bela_copy" display="inline">
	</g>
	<g display="inline">
		<path fill="none" stroke="#000000" stroke-width="8" stroke-linecap="round" stroke-linejoin="round" stroke-miterlimit="10" d="
			M397.66,312.216H55.884l170.889-170.888L397.66,312.216z M156.779,275.567h139.986l-69.992-69.993L156.779,275.567z"/>
		<g>
			
				<line fill="none" stroke="#000000" stroke-width="8" stroke-linecap="round" stroke-linejoin="round" stroke-miterlimit="10" x1="91.246" y1="302.309" x2="91.246" y2="311.817"/>
			
				<line fill="none" stroke="#000000" stroke-width="8" stroke-linecap="round" stroke-linejoin="round" stroke-miterlimit="10" x1="110.607" y1="302.309" x2="110.607" y2="311.817"/>
			
				<line fill="none" stroke="#000000" stroke-width="8" stroke-linecap="round" stroke-linejoin="round" stroke-miterlimit="10" x1="129.968" y1="302.309" x2="129.968" y2="311.817"/>
			
				<line fill="none" stroke="#000000" stroke-width="8" stroke-linecap="round" stroke-linejoin="round" stroke-miterlimit="10" x1="149.329" y1="302.309" x2="149.329" y2="311.817"/>
			
				<line fill="none" stroke="#000000" stroke-width="8" stroke-linecap="round" stroke-linejoin="round" stroke-miterlimit="10" x1="168.689" y1="302.309" x2="168.689" y2="311.817"/>
			
				<line fill="none" stroke="#000000" stroke-width="8" stroke-linecap="round" stroke-linejoin="round" stroke-miterlimit="10" x1="188.05" y1="302.309" x2="188.05" y2="311.817"/>
			
				<line fill="none" stroke="#000000" stroke-width="8" stroke-linecap="round" stroke-linejoin="round" stroke-miterlimit="10" x1="207.412" y1="302.309" x2="207.412" y2="311.817"/>
			
				<line fill="none" stroke="#000000" stroke-width="8" stroke-linecap="round" stroke-linejoin="round" stroke-miterlimit="10" x1="226.772" y1="302.309" x2="226.772" y2="311.817"/>
			
				<line fill="none" stroke="#000000" stroke-width="8" stroke-linecap="round" stroke-linejoin="round" stroke-miterlimit="10" x1="246.132" y1="302.309" x2="246.132" y2="311.817"/>
			
				<line fill="none" stroke="#000000" stroke-width="8" stroke-linecap="round" stroke-linejoin="round" stroke-miterlimit="10" x1="265.494" y1="302.309" x2="265.494" y2="311.817"/>
			
				<line fill="none" stroke="#000000" stroke-width="8" stroke-linecap="round" stroke-linejoin="round" stroke-miterlimit="10" x1="284.855" y1="302.309" x2="284.855" y2="311.817"/>
			
				<line fill="none" stroke="#000000" stroke-width="8" stroke-linecap="round" stroke-linejoin="round" stroke-miterlimit="10" x1="304.215" y1="302.309" x2="304.215" y2="311.817"/>
			
				<line fill="none" stroke="#000000" stroke-width="8" stroke-linecap="round" stroke-linejoin="round" stroke-miterlimit="10" x1="323.576" y1="302.309" x2="323.576" y2="311.817"/>
			
				<line fill="none" stroke="#000000" stroke-width="8" stroke-linecap="round" stroke-linejoin="round" stroke-miterlimit="10" x1="342.937" y1="302.309" x2="342.937" y2="311.817"/>
			
				<line fill="none" stroke="#000000" stroke-width="8" stroke-linecap="round" stroke-linejoin="round" stroke-miterlimit="10" x1="362.298" y1="302.309" x2="362.298" y2="311.817"/>
		</g>
	</g>
</g>
<g id="pivot">
	<circle fill="none" cx="224.14" cy="312.587" r="14.133"/>
</g>
</svg>
