<?xml version="1.0" encoding="utf-8"?>
<!-- Generator: Adobe Illustrator 16.0.0, SVG Export Plug-In . SVG Version: 6.00 Build 0)  -->
<!DOCTYPE svg PUBLIC "-//W3C//DTD SVG 1.1//EN" "http://www.w3.org/Graphics/SVG/1.1/DTD/svg11.dtd">
<svg version="1.1" xmlns="http://www.w3.org/2000/svg" xmlns:xlink="http://www.w3.org/1999/xlink" x="0px" y="0px"
	 width="453.543px" height="453.543px" viewBox="0 0 453.543 453.543" enable-background="new 0 0 453.543 453.543"
	 xml:space="preserve">
<g id="kvadrat">
</g>
<g id="bg" display="none">
	<rect x="-2873.904" y="-1765.567" display="inline" width="15266.867" height="13678.951"/>
</g>
<g id="color" display="none">
	<g id="rdeča7bela" display="inline">
	</g>
	<g display="inline">
		
			<path fill="#0073B3" stroke="#000100" stroke-width="8" stroke-linecap="round" stroke-linejoin="round" stroke-miterlimit="10" d="
			M182.131,320.647v70.268l73.976-24.763v11.313l15.305-6.347V361.03v-35.559v-33.625L182.131,320.647z M252.73,340.643
			l-48.929,15.785v-22.483l48.929-15.784V340.643z"/>
		
			<polyline fill="#A6A8AB" stroke="#000000" stroke-width="8" stroke-linecap="round" stroke-linejoin="round" stroke-miterlimit="10" points="
			182.244,320.077 192.475,312.192 186.651,300.262 197.342,292.393 191.516,280.461 202.209,272.59 196.385,260.661 
			207.074,252.795 201.25,240.868 211.941,233.001 206.117,221.071 216.807,213.203 210.982,201.272 221.676,193.4 215.852,181.47 
			226.541,173.598 220.719,161.667 231.41,153.793 225.586,141.862 236.28,133.99 230.453,122.06 241.145,114.189 235.323,102.256 
			246.016,94.381 240.191,82.448 250.885,74.569 245.063,62.627 245.526,62.643 271.412,62.643 271.412,291.313 182.244,320.077 		
			"/>
	</g>
	
		<rect x="-3384.189" y="-2185.576" display="inline" fill="none" stroke="#000000" stroke-miterlimit="10" width="16736" height="13952"/>
</g>
<g id="cb_1_">
	<g id="rdeča7bela_copy_3">
	</g>
	<g>
		<g>
			<path fill="#585858" d="M182.131,320.647v70.268l73.976-24.763v11.313l15.305-6.347V361.03v-35.559v-33.625L182.131,320.647z
				 M252.73,340.643l-48.929,15.785v-22.483l48.929-15.784V340.643z"/>
			<path fill="#010101" d="M182.131,394.916c-0.828,0-1.647-0.257-2.337-0.753c-1.044-0.752-1.663-1.96-1.663-3.247v-70.268
				c0-1.736,1.12-3.274,2.772-3.807l89.281-28.802c1.217-0.393,2.549-0.18,3.583,0.573s1.646,1.955,1.646,3.234v79.272
				c0,1.617-0.974,3.075-2.468,3.695l-15.305,6.347c-1.233,0.512-2.642,0.374-3.754-0.368c-1.111-0.742-1.778-1.99-1.778-3.327
				v-5.755l-68.707,22.999C182.986,394.848,182.558,394.916,182.131,394.916z M186.131,323.56v61.798l68.707-22.999
				c1.22-0.408,2.562-0.204,3.606,0.547c1.044,0.752,1.663,1.96,1.663,3.247v5.323l7.305-3.029V297.34L186.131,323.56z
				 M203.801,360.428c-0.836,0-1.662-0.262-2.355-0.766c-1.034-0.753-1.646-1.955-1.646-3.234v-22.483
				c0-1.736,1.12-3.274,2.772-3.807l48.929-15.784c1.217-0.393,2.549-0.18,3.583,0.573s1.646,1.955,1.646,3.234v22.482
				c0,1.736-1.12,3.274-2.772,3.807l-48.929,15.785C204.627,360.364,204.213,360.428,203.801,360.428z M207.801,336.857v14.077
				l40.929-13.204v-14.076L207.801,336.857z"/>
		</g>
		<g>
			<polyline fill="#A8A8A8" points="182.244,320.077 192.475,312.192 186.651,300.262 197.342,292.393 191.516,280.461 
				202.209,272.59 196.385,260.661 207.074,252.795 201.25,240.868 211.941,233.001 206.117,221.071 216.807,213.203 
				210.982,201.272 221.676,193.4 215.852,181.47 226.541,173.598 220.719,161.667 231.41,153.793 225.586,141.862 236.28,133.99 
				230.453,122.06 241.145,114.189 235.323,102.256 246.016,94.381 240.191,82.448 250.885,74.569 245.063,62.627 245.526,62.643 
				271.412,62.643 271.412,291.313 182.244,320.077 			"/>
			<path d="M182.245,324.077c-1.452,0-2.833-0.795-3.54-2.138c-0.905-1.721-0.442-3.844,1.098-5.031l7.647-5.893l-4.393-8.998
				c-0.848-1.737-0.333-3.831,1.223-4.976l8.004-5.892l-4.362-8.933c-0.848-1.737-0.333-3.831,1.223-4.977l8.006-5.894l-4.361-8.931
				c-0.848-1.737-0.333-3.832,1.224-4.977l8.001-5.887l-4.36-8.929c-0.848-1.736-0.333-3.831,1.224-4.977l8.004-5.89l-4.36-8.932
				c-0.848-1.736-0.333-3.83,1.223-4.976l8.002-5.891l-4.361-8.932c-0.848-1.737-0.333-3.831,1.223-4.976l8.007-5.895l-4.36-8.932
				c-0.848-1.736-0.333-3.83,1.223-4.976l8.004-5.894l-4.36-8.934c-0.847-1.736-0.333-3.83,1.223-4.975l8.006-5.896l-4.361-8.935
				c-0.847-1.736-0.333-3.83,1.223-4.976l8.006-5.894l-4.362-8.932c-0.848-1.736-0.333-3.831,1.223-4.977l8.005-5.894l-4.36-8.935
				c-0.847-1.736-0.332-3.83,1.223-4.975l8.008-5.896l-4.362-8.937c-0.847-1.736-0.333-3.829,1.222-4.975l8.01-5.902l-4.362-8.945
				c-0.615-1.26-0.524-2.751,0.239-3.928c0.762-1.177,2.078-1.871,3.488-1.822l0.398,0.013h25.821c2.209,0,4,1.791,4,4v228.67
				c0,1.736-1.12,3.274-2.772,3.807l-89.168,28.764C183.066,324.015,182.653,324.077,182.245,324.077z M191.709,301.506l4.36,8.931
				c0.139,0.285,0.241,0.579,0.309,0.877l71.034-22.914V66.643H251.47l3.01,6.173c0.846,1.736,0.332,3.828-1.223,4.973l-8.009,5.901
				l4.362,8.937c0.847,1.736,0.333,3.83-1.223,4.976l-8.008,5.897l4.36,8.936c0.847,1.736,0.332,3.83-1.224,4.975l-8.004,5.893
				l4.362,8.932c0.848,1.737,0.333,3.831-1.223,4.977l-8.007,5.894l4.361,8.934c0.847,1.736,0.333,3.83-1.223,4.976l-8.006,5.896
				l4.36,8.934c0.847,1.736,0.333,3.83-1.223,4.976l-8.003,5.894l4.361,8.932c0.848,1.737,0.333,3.831-1.223,4.976l-8.007,5.895
				l4.361,8.932c0.848,1.737,0.333,3.831-1.223,4.976l-8.002,5.891l4.36,8.932c0.848,1.737,0.333,3.831-1.224,4.977l-8.003,5.889
				l4.36,8.928c0.848,1.737,0.333,3.832-1.224,4.978l-8.002,5.887l4.36,8.931c0.848,1.737,0.333,3.831-1.223,4.976l-8.006,5.894
				l4.362,8.933c0.848,1.737,0.333,3.831-1.223,4.977L191.709,301.506z"/>
		</g>
	</g>
	<path d="M13352.311,11766.924h-16737v-13953h16737V11766.924z M-3384.189,11765.924h16736l-0.5-13951h-16735.5l0.5,13951H-3384.189
		z"/>
</g>
<g id="cb" display="none">
	<g id="rdeča7bela_copy" display="inline">
	</g>
	<g display="inline">
		<path fill="none" stroke="#000000" stroke-width="8" stroke-linecap="round" stroke-linejoin="round" stroke-miterlimit="10" d="
			M182.131,320.647v70.268l73.976-24.763v11.313l15.305-6.347V361.03v-35.559v-33.625L182.131,320.647z M252.73,340.643
			l-48.929,15.785v-22.483l48.929-15.784V340.643z"/>
		
			<polyline fill="none" stroke="#000000" stroke-width="8" stroke-linecap="round" stroke-linejoin="round" stroke-miterlimit="10" points="
			182.244,320.077 192.475,312.192 186.651,300.262 197.342,292.393 191.516,280.461 202.209,272.59 196.385,260.661 
			207.074,252.795 201.25,240.868 211.941,233.001 206.117,221.071 216.807,213.203 210.982,201.272 221.676,193.4 215.852,181.47 
			226.541,173.598 220.719,161.667 231.41,153.793 225.586,141.862 236.28,133.99 230.453,122.06 241.145,114.189 235.323,102.256 
			246.016,94.381 240.191,82.448 250.885,74.569 245.063,62.627 245.526,62.643 271.412,62.643 271.412,291.313 182.244,320.077 		
			"/>
	</g>
</g>
<g id="pivot">
	<circle fill="none" cx="225.117" cy="373.352" r="14.133"/>
</g>
</svg>
