<?xml version="1.0" encoding="utf-8"?>
<!-- Generator: Adobe Illustrator 16.0.0, SVG Export Plug-In . SVG Version: 6.00 Build 0)  -->
<!DOCTYPE svg PUBLIC "-//W3C//DTD SVG 1.1//EN" "http://www.w3.org/Graphics/SVG/1.1/DTD/svg11.dtd">
<svg version="1.1" xmlns="http://www.w3.org/2000/svg" xmlns:xlink="http://www.w3.org/1999/xlink" x="0px" y="0px"
	 width="453.543px" height="453.543px" viewBox="0 0 453.543 453.543" enable-background="new 0 0 453.543 453.543"
	 xml:space="preserve">
<g id="kvadrat">
</g>
<g id="bg" display="none">
	<rect x="-4404.613" y="-1765.567" display="inline" width="15266.867" height="13678.951"/>
</g>
<g id="color" display="none">
	<g id="rdeča7bela" display="inline">
	</g>
	
		<path display="inline" stroke="#000000" stroke-width="8" stroke-linecap="round" stroke-linejoin="round" stroke-miterlimit="10" d="
		M262.093,103.45h-16.322v9.037h-38v-9.037h-16.32c-6.627,0-12,5.373-12,12v12.657c0,6.627,5.373,12,12,12h16.992v18.662h-6.831
		v5.333h6.831v18.103h-6.831v5.332h6.831v18.104h-6.831v5.332h6.831v18.104h-6.831v5.332h6.831v20.54h-6.831v5.332h6.831v19.538
		h-6.831v5.333h6.831v18.105h-6.831v5.332h6.831v6.924c0,13.211,2.666,34.583,17.994,34.583c15.33,0,18.663-21.371,18.663-34.583
		v-6.924h6.832v-5.332H245.1V285.15h6.832v-5.333H245.1V260.28h6.832v-5.332H245.1v-20.54h6.832v-5.332H245.1v-18.104h6.832v-5.332
		H245.1v-18.104h6.832v-5.332H245.1v-18.103h6.832v-5.333H245.1v-18.662h16.993c6.627,0,12-5.373,12-12V115.45
		C274.093,108.823,268.72,103.45,262.093,103.45z"/>
	
		<rect x="-4914.898" y="-2185.576" display="inline" fill="none" stroke="#000000" stroke-miterlimit="10" width="16736" height="13952"/>
</g>
<g id="cb_1_">
	<g id="rdeča7bela_copy_3">
	</g>
	<g>
		<path fill="#B1B1B1" d="M262.093,103.45h-16.322v9.037h-38v-9.037h-16.32c-6.627,0-12,5.373-12,12v12.657c0,6.627,5.373,12,12,12
			h16.992v18.662h-6.831v5.333h6.831v18.103h-6.831v5.332h6.831v18.104h-6.831v5.332h6.831v18.104h-6.831v5.332h6.831v20.54h-6.831
			v5.332h6.831v19.538h-6.831v5.333h6.831v18.105h-6.831v5.332h6.831v6.924c0,13.211,2.666,34.583,17.994,34.583
			c15.33,0,18.663-21.371,18.663-34.583v-6.924h6.832v-5.332H245.1V285.15h6.832v-5.333H245.1V260.28h6.832v-5.332H245.1v-20.54
			h6.832v-5.332H245.1v-18.104h6.832v-5.332H245.1v-18.104h6.832v-5.332H245.1v-18.103h6.832v-5.333H245.1v-18.662h16.993
			c6.627,0,12-5.373,12-12V115.45C274.093,108.823,268.72,103.45,262.093,103.45z"/>
		<path d="M226.437,354.094c-13.978,0-21.994-14.063-21.994-38.583v-2.924h-2.831c-2.209,0-4-1.791-4-4v-5.332c0-2.209,1.791-4,4-4
			h2.831V289.15h-2.831c-2.209,0-4-1.791-4-4v-5.333c0-2.209,1.791-4,4-4h2.831V264.28h-2.831c-2.209,0-4-1.791-4-4v-5.332
			c0-2.209,1.791-4,4-4h2.831v-12.54h-2.831c-2.209,0-4-1.791-4-4v-5.332c0-2.209,1.791-4,4-4h2.831v-10.104h-2.831
			c-2.209,0-4-1.791-4-4v-5.332c0-2.209,1.791-4,4-4h2.831v-10.104h-2.831c-2.209,0-4-1.791-4-4v-5.332c0-2.209,1.791-4,4-4h2.831
			v-10.103h-2.831c-2.209,0-4-1.791-4-4v-5.333c0-2.209,1.791-4,4-4h2.831v-10.662h-12.992c-8.822,0-16-7.177-16-16V115.45
			c0-8.822,7.178-16,16-16h16.32c2.209,0,4,1.791,4,4v5.037h30v-5.037c0-2.209,1.791-4,4-4h16.322c8.822,0,16,7.178,16,16v12.657
			c0,8.823-7.178,16-16,16H249.1v10.662h2.832c2.209,0,4,1.791,4,4v5.333c0,2.209-1.791,4-4,4H249.1v10.103h2.832
			c2.209,0,4,1.791,4,4v5.332c0,2.209-1.791,4-4,4H249.1v10.104h2.832c2.209,0,4,1.791,4,4v5.332c0,2.209-1.791,4-4,4H249.1v10.104
			h2.832c2.209,0,4,1.791,4,4v5.332c0,2.209-1.791,4-4,4H249.1v12.54h2.832c2.209,0,4,1.791,4,4v5.332c0,2.209-1.791,4-4,4H249.1
			v11.538h2.832c2.209,0,4,1.791,4,4v5.333c0,2.209-1.791,4-4,4H249.1v10.105h2.832c2.209,0,4,1.791,4,4v5.332c0,2.209-1.791,4-4,4
			H249.1v2.924c0,5.187-0.501,15.166-3.86,23.709C240.407,351.514,232.348,354.094,226.437,354.094z M211.425,305.921
			c0.633,0.708,1.018,1.642,1.018,2.666v6.924c0,9.195,1.364,30.583,13.994,30.583c13.956,0,14.663-25.476,14.663-30.583v-6.924
			c0-1.024,0.385-1.958,1.018-2.666c-0.633-0.708-1.018-1.642-1.018-2.666V285.15c0-1.024,0.385-1.958,1.018-2.667
			c-0.633-0.708-1.018-1.642-1.018-2.666V260.28c0-1.024,0.385-1.958,1.018-2.666c-0.633-0.708-1.018-1.642-1.018-2.666v-20.54
			c0-1.024,0.385-1.958,1.018-2.666c-0.633-0.708-1.018-1.642-1.018-2.666v-18.104c0-1.024,0.385-1.958,1.018-2.666
			c-0.633-0.708-1.018-1.642-1.018-2.666v-18.104c0-1.024,0.385-1.958,1.018-2.666c-0.633-0.708-1.018-1.642-1.018-2.666v-18.103
			c0-1.024,0.385-1.958,1.018-2.667c-0.633-0.708-1.018-1.642-1.018-2.666v-18.662c0-2.209,1.791-4,4-4h16.993c4.411,0,8-3.589,8-8
			V115.45c0-4.411-3.589-8-8-8h-12.322v5.037c0,2.209-1.791,4-4,4h-38c-2.209,0-4-1.791-4-4v-5.037h-12.32c-4.411,0-8,3.589-8,8
			v12.657c0,4.411,3.589,8,8,8h16.992c2.209,0,4,1.791,4,4v18.662c0,1.024-0.385,1.958-1.018,2.666
			c0.633,0.708,1.018,1.642,1.018,2.667v18.103c0,1.024-0.385,1.958-1.018,2.666c0.633,0.708,1.018,1.642,1.018,2.666v18.104
			c0,1.024-0.385,1.958-1.018,2.666c0.633,0.708,1.018,1.642,1.018,2.666v18.104c0,1.024-0.385,1.958-1.018,2.666
			c0.633,0.707,1.018,1.642,1.018,2.666v20.54c0,1.024-0.385,1.958-1.018,2.666c0.633,0.708,1.018,1.642,1.018,2.666v19.538
			c0,1.024-0.385,1.958-1.018,2.666c0.633,0.708,1.018,1.642,1.018,2.667v18.105C212.443,304.279,212.058,305.214,211.425,305.921z"
			/>
	</g>
	<path d="M11821.602,11766.924h-16737v-13953h16737V11766.924z M-4914.898,11765.924h16736l-0.5-13951h-16735.5l0.5,13951H-4914.898
		z"/>
</g>
<g id="cb" display="none">
	<g id="rdeča7bela_copy" display="inline">
	</g>
	
		<path display="inline" fill="none" stroke="#000000" stroke-width="8" stroke-linecap="round" stroke-linejoin="round" stroke-miterlimit="10" d="
		M262.093,103.45h-16.322v9.037h-38v-9.037h-16.32c-6.627,0-12,5.373-12,12v12.657c0,6.627,5.373,12,12,12h16.992v18.662h-6.831
		v5.333h6.831v18.103h-6.831v5.332h6.831v18.104h-6.831v5.332h6.831v18.104h-6.831v5.332h6.831v20.54h-6.831v5.332h6.831v19.538
		h-6.831v5.333h6.831v18.105h-6.831v5.332h6.831v6.924c0,13.211,2.666,34.583,17.994,34.583c15.33,0,18.663-21.371,18.663-34.583
		v-6.924h6.832v-5.332H245.1V285.15h6.832v-5.333H245.1V260.28h6.832v-5.332H245.1v-20.54h6.832v-5.332H245.1v-18.104h6.832v-5.332
		H245.1v-18.104h6.832v-5.332H245.1v-18.103h6.832v-5.333H245.1v-18.662h16.993c6.627,0,12-5.373,12-12V115.45
		C274.093,108.823,268.72,103.45,262.093,103.45z"/>
</g>
<g id="pivot">
	<circle fill="none" cx="225.079" cy="347.31" r="14.133"/>
</g>
</svg>
