<?xml version="1.0" encoding="utf-8"?>
<!-- Generator: Adobe Illustrator 16.0.0, SVG Export Plug-In . SVG Version: 6.00 Build 0)  -->
<!DOCTYPE svg PUBLIC "-//W3C//DTD SVG 1.1//EN" "http://www.w3.org/Graphics/SVG/1.1/DTD/svg11.dtd">
<svg version="1.1" xmlns="http://www.w3.org/2000/svg" xmlns:xlink="http://www.w3.org/1999/xlink" x="0px" y="0px"
	 width="453.544px" height="453.543px" viewBox="0 0 453.544 453.543" enable-background="new 0 0 453.544 453.543"
	 xml:space="preserve">
<g id="kvadrat">
</g>
<g id="bg" display="none">
	<rect x="-7466.03" y="-1765.567" display="inline" width="15266.867" height="13678.951"/>
</g>
<g id="color" display="none">
	<g id="rdeča7bela" display="inline">
	</g>
	<g display="inline">
		<path stroke="#000000" stroke-width="8" stroke-linecap="round" stroke-linejoin="round" stroke-miterlimit="10" d="
			M274.093,161.607c0,6.627-5.373,12-12,12H191.45c-6.627,0-12-5.373-12-12V148.95c0-6.627,5.373-12,12-12h70.643
			c6.627,0,12,5.373,12,12V161.607z"/>
		<path stroke="#000000" stroke-width="8" stroke-linecap="round" stroke-linejoin="round" stroke-miterlimit="10" d="
			M208.442,282.011V162.205c0-13.208,5.373-23.919,12-23.919h12.658c6.627,0,12,10.711,12,23.919v119.807
			c0,13.211-3.334,34.583-18.664,34.583C211.108,316.594,208.442,295.223,208.442,282.011z"/>
		
			<rect x="201.612" y="192.269" stroke="#000000" stroke-width="8" stroke-linecap="round" stroke-linejoin="round" stroke-miterlimit="10" width="50.32" height="5.332"/>
		
			<rect x="201.612" y="215.704" stroke="#000000" stroke-width="8" stroke-linecap="round" stroke-linejoin="round" stroke-miterlimit="10" width="50.32" height="5.332"/>
		
			<rect x="201.612" y="239.141" stroke="#000000" stroke-width="8" stroke-linecap="round" stroke-linejoin="round" stroke-miterlimit="10" width="50.32" height="5.332"/>
		
			<rect x="201.612" y="262.576" stroke="#000000" stroke-width="8" stroke-linecap="round" stroke-linejoin="round" stroke-miterlimit="10" width="50.32" height="5.332"/>
	</g>
	
		<rect x="-7976.315" y="-2185.576" display="inline" fill="none" stroke="#000000" stroke-miterlimit="10" width="16736" height="13952"/>
</g>
<g id="cb_1_">
	<g id="rdeča7bela_copy_3">
	</g>
	<g>
		<g>
			<path d="M274.093,161.607c0,6.627-5.373,12-12,12H191.45c-6.627,0-12-5.373-12-12V148.95c0-6.627,5.373-12,12-12h70.643
				c6.627,0,12,5.373,12,12V161.607z"/>
			<path d="M262.093,177.607H191.45c-8.822,0-16-7.177-16-16V148.95c0-8.822,7.178-16,16-16h70.643c8.822,0,16,7.178,16,16v12.657
				C278.093,170.43,270.915,177.607,262.093,177.607z M191.45,140.95c-4.411,0-8,3.589-8,8v12.657c0,4.411,3.589,8,8,8h70.643
				c4.411,0,8-3.589,8-8V148.95c0-4.411-3.589-8-8-8H191.45z"/>
		</g>
		<g>
			<path d="M208.442,282.011V162.205c0-13.208,5.373-23.919,12-23.919h12.658c6.627,0,12,10.711,12,23.919v119.807
				c0,13.211-3.334,34.583-18.664,34.583C211.108,316.594,208.442,295.223,208.442,282.011z"/>
			<path d="M226.437,320.594c-13.978,0-21.994-14.063-21.994-38.583V162.205c0-15.917,6.879-27.919,16-27.919h12.658
				c9.121,0,16,12.002,16,27.919v119.807c0,5.187-0.502,15.165-3.86,23.709C240.407,318.014,232.347,320.594,226.437,320.594z
				 M220.442,142.286c-3.262,0-8,7.759-8,19.919v119.807c0,9.195,1.363,30.583,13.994,30.583c13.957,0,14.664-25.476,14.664-30.583
				V162.205c0-12.16-4.738-19.919-8-19.919H220.442z"/>
		</g>
		<g>
			<rect x="201.612" y="192.269" width="50.32" height="5.332"/>
			<path d="M251.933,201.601h-50.32c-2.209,0-4-1.791-4-4v-5.332c0-2.209,1.791-4,4-4h50.32c2.209,0,4,1.791,4,4v5.332
				C255.933,199.81,254.142,201.601,251.933,201.601z"/>
		</g>
		<g>
			<rect x="201.612" y="215.704" width="50.32" height="5.332"/>
			<path d="M251.933,225.036h-50.32c-2.209,0-4-1.791-4-4v-5.332c0-2.209,1.791-4,4-4h50.32c2.209,0,4,1.791,4,4v5.332
				C255.933,223.245,254.142,225.036,251.933,225.036z"/>
		</g>
		<g>
			<rect x="201.612" y="239.141" width="50.32" height="5.332"/>
			<path d="M251.933,248.473h-50.32c-2.209,0-4-1.791-4-4v-5.332c0-2.209,1.791-4,4-4h50.32c2.209,0,4,1.791,4,4v5.332
				C255.933,246.682,254.142,248.473,251.933,248.473z"/>
		</g>
		<g>
			<rect x="201.612" y="262.576" width="50.32" height="5.332"/>
			<path d="M251.933,271.908h-50.32c-2.209,0-4-1.791-4-4v-5.332c0-2.209,1.791-4,4-4h50.32c2.209,0,4,1.791,4,4v5.332
				C255.933,270.117,254.142,271.908,251.933,271.908z"/>
		</g>
	</g>
	<path d="M8760.185,11766.924h-16737v-13953h16737V11766.924z M-7976.315,11765.924h16736l-0.5-13951h-16735.5l0.5,13951H-7976.315z
		"/>
</g>
<g id="cb" display="none">
	<g id="rdeča7bela_copy" display="inline">
	</g>
	
		<path display="inline" fill="none" stroke="#000000" stroke-width="8" stroke-linecap="round" stroke-linejoin="round" stroke-miterlimit="10" d="
		M262.093,136.95H191.45c-6.627,0-12,5.373-12,12v12.657c0,6.627,5.373,12,12,12h16.992v18.662h-6.83v5.332h6.83v18.104h-6.83v5.332
		h6.83v18.104h-6.83v5.332h6.83v18.104h-6.83v5.332h6.83v14.104c0,13.211,2.666,34.583,17.994,34.583
		c15.33,0,18.664-21.371,18.664-34.583v-14.104h6.832v-5.332h-6.832v-18.104h6.832v-5.332h-6.832v-18.104h6.832v-5.332h-6.832
		v-18.104h6.832v-5.332h-6.832v-18.662h16.992c6.627,0,12-5.373,12-12V148.95C274.093,142.323,268.72,136.95,262.093,136.95z"/>
</g>
<g id="pivot">
	<circle fill="none" cx="223.556" cy="318.375" r="14.133"/>
</g>
</svg>
