<?xml version="1.0" encoding="utf-8"?>
<!-- Generator: Adobe Illustrator 16.0.0, SVG Export Plug-In . SVG Version: 6.00 Build 0)  -->
<!DOCTYPE svg PUBLIC "-//W3C//DTD SVG 1.1//EN" "http://www.w3.org/Graphics/SVG/1.1/DTD/svg11.dtd">
<svg version="1.1" xmlns="http://www.w3.org/2000/svg" xmlns:xlink="http://www.w3.org/1999/xlink" x="0px" y="0px"
	 width="453.543px" height="453.543px" viewBox="0 0 453.543 453.543" enable-background="new 0 0 453.543 453.543"
	 xml:space="preserve">
<g id="kvadrat">
</g>
<g id="bg" display="none">
	<rect x="-5425.085" y="-1255.332" display="inline" width="15266.867" height="13678.951"/>
</g>
<g id="color" display="none">
	<g display="inline">
		<path fill="none" stroke="#000000" stroke-width="10" stroke-linecap="round" stroke-linejoin="round" stroke-miterlimit="10" d="
			M149.898,333.366c0,0-18.548-47.584,4.99-86.494"/>
		<path fill="none" stroke="#000000" stroke-width="10" stroke-linecap="round" stroke-linejoin="round" stroke-miterlimit="10" d="
			M118.98,273.537c-1.226-24.514,3.197-50.866,30.402-65.576"/>
		<path fill="none" stroke="#000000" stroke-width="10" stroke-linecap="round" stroke-linejoin="round" stroke-miterlimit="10" d="
			M128.786,121.583c0,0-8.783,32.464,27.171,61.873"/>
		<path fill="none" stroke="#000000" stroke-width="10" stroke-linecap="round" stroke-linejoin="round" stroke-miterlimit="10" d="
			M169.234,109.204c0,0-2.908,12.802,36.236,29.733"/>
		<path fill="none" stroke="#000000" stroke-width="10" stroke-linecap="round" stroke-linejoin="round" stroke-miterlimit="10" d="
			M303.646,333.366c0,0,18.548-47.584-4.991-86.494"/>
		<path fill="none" stroke="#000000" stroke-width="10" stroke-linecap="round" stroke-linejoin="round" stroke-miterlimit="10" d="
			M334.564,273.537c1.226-24.514-3.197-50.866-30.403-65.576"/>
		<path fill="none" stroke="#000000" stroke-width="10" stroke-linecap="round" stroke-linejoin="round" stroke-miterlimit="10" d="
			M324.758,121.583c0,0,8.782,32.464-27.171,61.873"/>
		<path fill="none" stroke="#000000" stroke-width="10" stroke-linecap="round" stroke-linejoin="round" stroke-miterlimit="10" d="
			M284.309,109.204c0,0,2.909,12.802-36.236,29.733"/>
		<g>
			
				<path fill="#39A935" stroke="#000000" stroke-width="8" stroke-linecap="round" stroke-linejoin="round" stroke-miterlimit="10" d="
				M257.161,155.212c0-16.667-13.617-30.249-30.357-30.249c-16.738,0-30.351,13.57-30.351,30.249"/>
		</g>
		
			<path fill="#006633" stroke="#000000" stroke-width="8" stroke-linecap="round" stroke-linejoin="round" stroke-miterlimit="10" d="
			M228.34,344.34c-0.615,0-1.22-0.021-1.825-0.061c0,0.04-0.615,0.061-1.23,0.061c-31.837,0-63.694-48.317-72.556-110.041
			c-4.401-29.314-0.604-50.483,11.62-64.701c12.34-14.328,33.037-20.881,62.597-20.132c1.283-0.042,2.798-0.063,4.299-0.063
			c27.362,0,46.34,6.605,58.029,20.186c12.219,14.215,16.031,35.374,11.623,64.75C292.046,296.001,260.168,344.34,228.34,344.34z"/>
		
			<line fill="#006633" stroke="#000000" stroke-width="8" stroke-linecap="round" stroke-linejoin="round" stroke-miterlimit="10" x1="226.808" y1="153.445" x2="226.808" y2="344.34"/>
	</g>
	<g id="rdeča7bela" display="inline">
	</g>
	
		<rect x="-5935.371" y="-1675.34" display="inline" fill="none" stroke="#000000" stroke-miterlimit="10" width="16736" height="13952"/>
</g>
<g id="cb_1_">
	<g>
		<path d="M149.896,338.366c-2,0-3.887-1.208-4.657-3.184c-0.794-2.037-19.161-50.346,5.371-90.898
			c1.429-2.362,4.503-3.121,6.866-1.69c2.363,1.429,3.12,4.503,1.69,6.866c-21.943,36.274-4.784,81.641-4.608,82.095
			c0.997,2.573-0.278,5.47-2.851,6.469C151.112,338.255,150.5,338.366,149.896,338.366z"/>
		<path d="M118.976,278.537c-2.647,0-4.856-2.077-4.99-4.75c-1.715-34.313,9.084-57.283,33.018-70.224
			c2.427-1.313,5.462-0.409,6.776,2.02c1.313,2.43,0.409,5.463-2.021,6.776c-20.481,11.075-29.311,30.435-27.787,60.928
			c0.138,2.758-1.986,5.106-4.744,5.244C119.145,278.535,119.06,278.537,118.976,278.537z"/>
		<path d="M155.954,188.456c-1.113,0-2.233-0.37-3.163-1.13c-38.023-31.101-29.225-65.596-28.832-67.049
			c0.721-2.666,3.467-4.243,6.132-3.521c2.659,0.719,4.234,3.452,3.526,6.111c-0.325,1.257-7.269,29.911,25.504,56.717
			c2.138,1.749,2.453,4.898,0.705,7.036C158.838,187.829,157.402,188.455,155.954,188.456z"/>
		<path d="M205.468,143.938c-0.663,0-1.336-0.133-1.982-0.412c-40.884-17.684-39.767-32.616-39.127-35.43
			c0.612-2.693,3.29-4.38,5.983-3.769c2.549,0.579,4.197,3.011,3.847,5.553c0.065,0.82,1.532,10.74,33.267,24.466
			c2.535,1.097,3.701,4.04,2.604,6.574C209.243,142.809,207.401,143.938,205.468,143.938z"/>
		<path d="M303.645,338.368c-0.604,0-1.218-0.11-1.814-0.343c-2.571-1.002-3.844-3.898-2.844-6.471
			c0.19-0.492,17.326-45.836-4.609-82.094c-1.429-2.363-0.672-5.437,1.69-6.866c2.363-1.43,5.437-0.673,6.866,1.689
			c24.532,40.553,6.166,88.862,5.372,90.898C307.534,337.158,305.645,338.368,303.645,338.368z"/>
		<path d="M334.568,278.537c-0.084,0-0.168-0.002-0.253-0.006c-2.758-0.138-4.882-2.485-4.744-5.244
			c1.524-30.493-7.305-49.853-27.788-60.928c-2.429-1.313-3.333-4.347-2.021-6.776c1.314-2.429,4.349-3.333,6.776-2.02
			c23.934,12.94,34.734,35.911,33.019,70.224C339.424,276.459,337.215,278.537,334.568,278.537z"/>
		<path d="M297.59,188.456c-1.448,0-2.885-0.626-3.873-1.835c-1.749-2.137-1.433-5.287,0.705-7.036
			c32.802-26.831,25.817-55.513,25.503-56.721c-0.691-2.663,0.896-5.397,3.556-6.102c2.66-0.705,5.385,0.859,6.104,3.515
			c0.393,1.453,9.19,35.948-28.832,67.048C299.824,188.085,298.704,188.456,297.59,188.456z"/>
		<path d="M248.075,143.938c-1.934,0-3.775-1.129-4.592-3.017c-1.096-2.534,0.07-5.478,2.604-6.574
			c31.736-13.726,33.202-23.646,33.267-24.466c-0.351-2.542,1.297-4.974,3.846-5.554c2.693-0.611,5.372,1.075,5.983,3.768
			c0.64,2.814,1.758,17.747-39.127,35.43C249.411,143.805,248.738,143.938,248.075,143.938z"/>
		<g>
			<g>
				<path fill="#7B7B7B" d="M257.161,155.212c0-16.667-13.617-30.249-30.357-30.249c-16.738,0-30.351,13.57-30.351,30.249"/>
				<path d="M257.161,159.212c-2.209,0-4-1.791-4-4c0-14.473-11.824-26.249-26.357-26.249c-14.53,0-26.351,11.775-26.351,26.249
					c0,2.209-1.791,4-4,4s-4-1.791-4-4c0-18.885,15.41-34.249,34.351-34.249c18.945,0,34.357,15.364,34.357,34.249
					C261.161,157.421,259.37,159.212,257.161,159.212z"/>
			</g>
		</g>
		<g>
			<path fill="#424242" d="M228.34,344.34c-0.615,0-1.22-0.021-1.825-0.061c0,0.04-0.615,0.061-1.23,0.061
				c-31.837,0-63.694-48.317-72.556-110.041c-4.401-29.314-0.604-50.483,11.62-64.701c12.34-14.328,33.037-20.881,62.597-20.132
				c1.283-0.042,2.798-0.063,4.299-0.063c27.362,0,46.34,6.605,58.029,20.186c12.219,14.215,16.031,35.374,11.623,64.75
				C292.046,296.001,260.168,344.34,228.34,344.34z"/>
			<path d="M228.34,348.34c-0.646,0-1.277-0.019-1.923-0.059c-0.348,0.038-0.725,0.059-1.132,0.059
				c-16.787,0-33.916-11.958-48.233-33.672c-13.87-21.036-23.915-49.376-28.282-79.8c-4.582-30.517-0.479-52.728,12.546-67.877
				c13.147-15.265,34.58-22.287,65.615-21.526c1.263-0.04,2.751-0.061,4.313-0.061c28.59,0,48.563,7.058,61.061,21.576
				c13.03,15.16,17.134,37.387,12.547,67.953c-4.359,30.371-14.403,58.696-28.278,79.733
				C262.251,336.38,245.122,348.34,228.34,348.34z M222.552,343.739c-0.024,0.174-0.036,0.352-0.037,0.534
				C222.516,344.093,222.528,343.915,222.552,343.739z M225.594,340.387c-0.343,0.074-0.685,0.206-1.009,0.389
				C224.902,340.601,225.242,340.47,225.594,340.387z M226.515,340.279c0.088,0,0.176,0.003,0.264,0.009
				c0.518,0.034,1.035,0.052,1.562,0.052c14.004,0,28.762-10.682,41.556-30.08c13.239-20.073,22.843-47.237,27.042-76.49
				c4.225-28.154,0.725-48.287-10.697-61.574c-10.885-12.645-28.875-18.793-54.996-18.793c-1.524,0-2.965,0.021-4.167,0.061
				c-0.078,0.002-0.156,0.002-0.234,0.001c-1.479-0.038-2.935-0.057-4.369-0.057c-26.178,0-44.2,6.149-55.095,18.8
				c-11.416,13.277-14.915,33.393-10.695,61.497c4.208,29.306,13.811,56.486,27.046,76.559
				c12.788,19.395,27.545,30.076,41.554,30.076c0.208,0,0.416-0.001,0.578-0.007C226.077,340.297,226.295,340.279,226.515,340.279z"
				/>
		</g>
		<g>
			<line fill="#424242" x1="226.808" y1="153.445" x2="226.808" y2="344.34"/>
			<path d="M226.808,348.34c-2.209,0-4-1.791-4-4V153.445c0-2.209,1.791-4,4-4s4,1.791,4,4V344.34
				C230.808,346.549,229.017,348.34,226.808,348.34z"/>
		</g>
	</g>
	<g id="rdeča7bela_copy_3">
	</g>
	<path d="M10801.129,12277.16h-16737v-13953h16737V12277.16z M-5935.371,12276.16h16736l-0.5-13951h-16735.5l0.5,13951H-5935.371z"
		/>
</g>
<g id="cb" display="none">
	<g display="inline">
		<path fill="none" stroke="#000000" stroke-width="10" stroke-linecap="round" stroke-linejoin="round" stroke-miterlimit="10" d="
			M148.898,333.366c0,0-18.548-47.584,4.99-86.494"/>
		<path fill="none" stroke="#000000" stroke-width="10" stroke-linecap="round" stroke-linejoin="round" stroke-miterlimit="10" d="
			M118.98,273.537c-1.226-24.514,3.197-50.866,30.402-65.576"/>
		<path fill="none" stroke="#000000" stroke-width="10" stroke-linecap="round" stroke-linejoin="round" stroke-miterlimit="10" d="
			M127.786,121.583c0,0-8.783,32.464,27.171,61.873"/>
		<path fill="none" stroke="#000000" stroke-width="10" stroke-linecap="round" stroke-linejoin="round" stroke-miterlimit="10" d="
			M165.234,103.204c0,0-2.908,12.802,36.236,29.733"/>
		<path fill="none" stroke="#000000" stroke-width="10" stroke-linecap="round" stroke-linejoin="round" stroke-miterlimit="10" d="
			M304.646,333.366c0,0,18.548-47.584-4.991-86.494"/>
		<path fill="none" stroke="#000000" stroke-width="10" stroke-linecap="round" stroke-linejoin="round" stroke-miterlimit="10" d="
			M334.564,273.537c1.226-24.514-3.197-50.866-30.403-65.576"/>
		<path fill="none" stroke="#000000" stroke-width="10" stroke-linecap="round" stroke-linejoin="round" stroke-miterlimit="10" d="
			M325.758,121.583c0,0,8.782,32.464-27.171,61.873"/>
		<path fill="none" stroke="#000000" stroke-width="10" stroke-linecap="round" stroke-linejoin="round" stroke-miterlimit="10" d="
			M288.309,103.204c0,0,2.909,12.802-36.236,29.733"/>
		<g>
			<path fill="none" stroke="#000000" stroke-width="8" stroke-linecap="round" stroke-linejoin="round" stroke-miterlimit="10" d="
				M257.161,152.212c0-16.667-13.617-30.249-30.357-30.249c-16.738,0-30.351,13.57-30.351,30.249"/>
		</g>
		<path fill="none" stroke="#000000" stroke-width="8" stroke-linecap="round" stroke-linejoin="round" stroke-miterlimit="10" d="
			M228.34,344.34c-0.615,0-1.22-0.021-1.825-0.061c0,0.04-0.615,0.061-1.23,0.061c-31.837,0-63.694-48.317-72.556-110.041
			c-4.401-29.314-0.604-50.483,11.62-64.701c12.34-14.328,33.037-20.881,62.597-20.132c1.283-0.042,2.798-0.063,4.299-0.063
			c27.362,0,46.34,6.605,58.029,20.186c12.219,14.215,16.031,35.374,11.623,64.75C292.046,296.001,260.168,344.34,228.34,344.34z"/>
		
			<line fill="none" stroke="#000000" stroke-width="8" stroke-linecap="round" stroke-linejoin="round" stroke-miterlimit="10" x1="226.808" y1="153.445" x2="226.808" y2="344.34"/>
	</g>
	<g id="rdeča7bela_copy" display="inline">
	</g>
</g>
<g id="pivot">
	<circle fill="none" cx="227.465" cy="342.499" r="14.133"/>
</g>
</svg>
