<?xml version="1.0" encoding="utf-8"?>
<!-- Generator: Adobe Illustrator 16.0.0, SVG Export Plug-In . SVG Version: 6.00 Build 0)  -->
<!DOCTYPE svg PUBLIC "-//W3C//DTD SVG 1.1//EN" "http://www.w3.org/Graphics/SVG/1.1/DTD/svg11.dtd">
<svg version="1.1" xmlns="http://www.w3.org/2000/svg" xmlns:xlink="http://www.w3.org/1999/xlink" x="0px" y="0px"
	 width="453.543px" height="453.543px" viewBox="0 0 453.543 453.543" enable-background="new 0 0 453.543 453.543"
	 xml:space="preserve">
<g id="kvadrat">
</g>
<g id="bg" display="none">
	<rect x="-1853.431" y="-1255.332" display="inline" width="15266.867" height="13678.951"/>
</g>
<g id="color" display="none">
	<g display="inline">
		
			<path fill="#E84E1B" stroke="#000000" stroke-width="8" stroke-linecap="round" stroke-linejoin="round" stroke-miterlimit="10" d="
			M356.987,192.195c3.647-6.615,5.483-14.31,4.872-22.385c-0.831-10.961-6.002-20.569-13.717-27.31
			c2.709-7.338,2.863-15.637-0.188-23.506c-6.705-17.297-26.306-25.938-43.779-19.297c-0.057,0.021-0.111,0.047-0.168,0.069
			c-12.395-8.233-28.762-9.297-42.374-1.925c-3.963-6.436-9.775-11.856-17.146-15.37c-19.115-9.112-41.838-2.19-52.641,15.388
			c-6.682-3.611-14.453-5.429-22.61-4.826c-7.314,0.545-14.032,2.962-19.713,6.74c-7.582-2.93-16.242-3.193-24.439-0.076
			c-17.297,6.571-26.013,25.653-19.68,42.818c-14.28,12.432-18.031,33.151-8.863,49.744c-6.5,3.923-11.976,9.677-15.524,16.973
			c-9.205,18.924-2.212,41.42,15.542,52.115c-3.648,6.617-5.485,14.309-4.872,22.385c1.586,20.945,19.003,36.965,39.78,37.44
			c0.182,7.534,2.478,15.106,7.086,21.797c11.952,17.354,35.126,22.607,53.359,12.732c3.963,6.436,9.775,11.856,17.146,15.37
			c19.115,9.113,41.839,2.191,52.642-15.385c6.683,3.61,14.453,5.428,22.61,4.823c21.157-1.571,37.34-18.814,37.818-39.383
			c7.61-0.181,15.258-2.454,22.017-7.016c17.529-11.833,22.835-34.776,12.861-52.825c6.501-3.925,11.976-9.679,15.524-16.976
			C381.734,225.385,374.74,202.89,356.987,192.195z"/>
		<g>
			<path d="M327.281,133.117c-4.654-12.132-18.262-18.191-30.393-13.535c-3.183,1.223-5.941,3.064-8.204,5.33l33.27,33.27
				C328.316,151.813,330.716,142.064,327.281,133.117z"/>
		</g>
		<g>
			<path d="M139.796,120.583c-12.131,4.656-18.189,18.263-13.533,30.394c1.222,3.183,3.064,5.942,5.329,8.204l33.27-33.269
				C158.493,119.549,148.745,117.149,139.796,120.583z"/>
		</g>
		<g>
			<path fill="#E84E1B" d="M345.924,219.923c0,65.436-46.765,107.7-119.166,107.7c-73.501,0-119.137-41.27-119.137-107.7
				c0-61.189,53.448-111.008,119.167-111.008C292.475,108.915,345.924,158.729,345.924,219.923z"/>
		</g>
		<g>
			<path fill="#F8B133" d="M226.761,308.01c-60.141,0-97.501-33.884-97.501-88.43c0-50.207,43.75-91.053,97.525-91.053
				c53.762,0,97.501,40.846,97.501,91.053C324.286,273.299,286.005,308.01,226.761,308.01z"/>
			<g>
				<path d="M226.785,131.527c52.104,0,94.501,39.513,94.501,88.053c0,51.905-37.095,85.43-94.525,85.43
					c-58.302,0-94.501-32.735-94.501-85.43C132.259,171.045,174.656,131.527,226.785,131.527 M226.785,125.527
					c-55.43,0-100.525,42.192-100.525,94.053c0,27.599,9.462,50.742,27.364,66.926c17.731,16.031,43.021,24.504,73.138,24.504
					c29.689,0,54.871-8.575,72.822-24.799c18.124-16.379,27.703-39.42,27.703-66.63
					C327.286,167.719,282.201,125.527,226.785,125.527L226.785,125.527z"/>
			</g>
		</g>
		<g>
			<path fill="#F8B133" d="M226.761,308.01c-60.141,0-97.501-33.884-97.501-88.43c0-50.207,43.75-91.053,97.525-91.053
				c53.762,0,97.501,40.846,97.501,91.053C324.286,273.299,286.005,308.01,226.761,308.01z"/>
			<g>
				<path d="M226.785,131.527c52.104,0,94.501,39.513,94.501,88.053c0,51.905-37.095,85.43-94.525,85.43
					c-58.302,0-94.501-32.735-94.501-85.43C132.259,171.045,174.656,131.527,226.785,131.527 M226.785,125.527
					c-55.43,0-100.525,42.192-100.525,94.053c0,27.599,9.462,50.742,27.364,66.926c17.731,16.031,43.021,24.504,73.138,24.504
					c29.689,0,54.871-8.575,72.822-24.799c18.124-16.379,27.703-39.42,27.703-66.63
					C327.286,167.719,282.201,125.527,226.785,125.527L226.785,125.527z"/>
			</g>
		</g>
		<g>
			<path fill="none" stroke="#000000" stroke-width="6" stroke-linecap="round" stroke-linejoin="round" stroke-miterlimit="10" d="
				M230.268,256.881c0,8.562,10.8,15.5,24.119,15.5c13.32,0,24.12-6.938,24.12-15.5"/>
			<path fill="none" stroke="#000000" stroke-width="6" stroke-linecap="round" stroke-linejoin="round" stroke-miterlimit="10" d="
				M230.268,256.881c0,8.562-10.799,15.5-24.119,15.5c-13.319,0-24.119-6.938-24.119-15.5"/>
		</g>
		<path stroke="#000000" stroke-width="6" stroke-linecap="round" stroke-linejoin="round" stroke-miterlimit="10" d="
			M210.649,241.875c0,8.438,8.519,15.048,19.394,15.048s19.394-6.61,19.394-15.048c0,0-3.755-4.103-18.932-4.103
			C215.327,237.772,210.649,241.875,210.649,241.875z"/>
		
			<circle fill="#FFFFFF" stroke="#000000" stroke-width="6" stroke-linecap="round" stroke-linejoin="round" stroke-miterlimit="10" cx="192.714" cy="190.355" r="13.452"/>
		<circle cx="192.54" cy="198.247" r="7.802"/>
		
			<circle fill="#FFFFFF" stroke="#000000" stroke-width="6" stroke-linecap="round" stroke-linejoin="round" stroke-miterlimit="10" cx="254.405" cy="190.355" r="13.453"/>
		<circle cx="254.231" cy="198.247" r="7.802"/>
	</g>
	<g id="rdeča7bela" display="inline">
	</g>
	
		<rect x="-2363.716" y="-1675.34" display="inline" fill="none" stroke="#000000" stroke-miterlimit="10" width="16736" height="13952"/>
</g>
<g id="cb_1_">
	<g>
		<g>
			<path fill="#777777" d="M356.987,192.195c3.647-6.615,5.483-14.31,4.872-22.385c-0.831-10.961-6.002-20.569-13.717-27.31
				c2.709-7.338,2.863-15.637-0.188-23.506c-6.705-17.297-26.306-25.938-43.779-19.297c-0.057,0.021-0.111,0.047-0.168,0.069
				c-12.395-8.233-28.762-9.297-42.374-1.925c-3.963-6.436-9.775-11.856-17.146-15.37c-19.115-9.112-41.838-2.19-52.641,15.388
				c-6.682-3.611-14.453-5.429-22.61-4.826c-7.314,0.545-14.032,2.962-19.713,6.74c-7.582-2.93-16.242-3.193-24.439-0.076
				c-17.297,6.571-26.013,25.653-19.68,42.818c-14.28,12.432-18.031,33.151-8.863,49.744c-6.5,3.923-11.976,9.677-15.524,16.973
				c-9.205,18.924-2.212,41.42,15.542,52.115c-3.648,6.617-5.485,14.309-4.872,22.385c1.586,20.945,19.003,36.965,39.78,37.44
				c0.182,7.534,2.478,15.106,7.086,21.797c11.952,17.354,35.126,22.607,53.359,12.732c3.963,6.436,9.775,11.856,17.146,15.37
				c19.115,9.113,41.839,2.191,52.642-15.385c6.683,3.61,14.453,5.428,22.61,4.823c21.157-1.571,37.34-18.814,37.818-39.383
				c7.61-0.181,15.258-2.454,22.017-7.016c17.529-11.833,22.835-34.776,12.861-52.825c6.501-3.925,11.976-9.679,15.524-16.976
				C381.734,225.385,374.74,202.89,356.987,192.195z"/>
			<path d="M226.766,379.088c-6.76,0-13.298-1.482-19.431-4.406c-6.703-3.195-12.449-7.948-16.793-13.86
				c-5.704,2.51-11.92,3.825-18.176,3.825c-14.866,0-28.738-7.256-37.108-19.408c-4.188-6.08-6.766-13.033-7.549-20.296
				c-21.452-2.202-38.368-19.208-40.012-40.908c-0.556-7.333,0.72-14.624,3.704-21.297c-17.461-12.542-23.519-35.646-13.982-55.254
				c3.224-6.627,8.013-12.309,13.968-16.608c-7.442-16.692-3.69-36.646,9.419-49.552c-5.317-18.458,4.515-38.397,22.858-45.366
				c8.144-3.096,17.143-3.293,25.368-0.605c6.011-3.61,12.851-5.783,19.908-6.309c7.386-0.547,14.808,0.738,21.537,3.696
				c8.37-11.361,21.964-18.287,36.303-18.287c6.759,0,13.296,1.483,19.429,4.407c6.704,3.195,12.45,7.948,16.794,13.86
				c5.702-2.509,11.915-3.823,18.17-3.823c8.278,0,16.298,2.223,23.322,6.445c3.816-1.248,7.79-1.883,11.819-1.883
				c15.571,0,29.785,9.681,35.371,24.089c2.954,7.618,3.31,15.958,1.056,23.763c7.665,7.536,12.293,17.451,13.107,28.197
				c0.556,7.335-0.721,14.626-3.703,21.298c17.462,12.542,23.519,35.646,13.981,55.254c-3.222,6.625-8.01,12.307-13.961,16.605
				c8.783,19.509,2.368,42.508-15.783,54.761c-6.14,4.144-13.16,6.692-20.491,7.463c-2.238,21.24-19.396,37.984-41.286,39.609
				c-1.123,0.083-2.261,0.125-3.381,0.125c-0.001,0-0.001,0-0.002,0c-6.241,0-12.449-1.313-18.153-3.819
				C254.698,372.165,241.105,379.088,226.766,379.088z M191.908,351.701c1.347,0,2.656,0.681,3.409,1.903
				c3.698,6.007,9.045,10.798,15.46,13.856c5.05,2.408,10.429,3.628,15.989,3.628c12.811,0,24.891-6.704,31.524-17.496
				c1.111-1.809,3.441-2.434,5.309-1.425c5.396,2.915,11.49,4.456,17.622,4.456c0.001,0,0.001,0,0.002,0
				c0.924,0,1.862-0.035,2.789-0.104c19.011-1.411,33.678-16.667,34.115-35.486c0.05-2.136,1.769-3.855,3.904-3.906
				c7.115-0.169,13.988-2.359,19.874-6.332c15.731-10.62,20.717-31.072,11.598-47.575c-1.04-1.881-0.406-4.248,1.434-5.359
				c6.069-3.664,10.908-8.955,13.994-15.3c8.257-16.976,2.235-37.155-14.008-46.939c-1.841-1.109-2.477-3.475-1.439-5.357
				c3.4-6.167,4.917-13.136,4.386-20.152c-0.723-9.529-5.112-18.266-12.36-24.599c-1.249-1.091-1.695-2.841-1.121-4.397
				c2.469-6.689,2.411-14.032-0.165-20.675c-4.401-11.353-15.618-18.98-27.912-18.98c-3.66,0-7.266,0.665-10.717,1.977l-0.152,0.063
				c-1.21,0.465-2.57,0.316-3.65-0.401c-6.106-4.056-13.237-6.2-20.622-6.2c-6.148,0-12.246,1.542-17.634,4.461
				c-1.867,1.011-4.198,0.388-5.312-1.42c-3.698-6.006-9.044-10.797-15.461-13.857c-5.05-2.407-10.428-3.627-15.987-3.627
				c-12.812,0-24.892,6.706-31.525,17.5c-1.111,1.808-3.442,2.434-5.31,1.424c-6.209-3.356-13.338-4.879-20.414-4.356
				c-6.371,0.475-12.524,2.578-17.793,6.082c-1.081,0.72-2.445,0.869-3.657,0.4c-6.925-2.676-14.625-2.711-21.576-0.068
				c-15.117,5.742-22.899,22.652-17.35,37.695c0.575,1.559,0.127,3.311-1.126,4.401c-12.809,11.15-16.168,29.988-7.988,44.793
				c1.039,1.881,0.406,4.248-1.435,5.358c-6.069,3.664-10.908,8.953-13.994,15.298c-8.257,16.975-2.234,37.155,14.009,46.939
				c1.841,1.109,2.477,3.475,1.438,5.358c-3.401,6.169-4.918,13.137-4.386,20.15c1.423,18.803,16.85,33.309,35.882,33.744
				c2.136,0.049,3.856,1.767,3.908,3.903c0.169,7.023,2.376,13.809,6.381,19.624c6.877,9.985,18.287,15.946,30.52,15.946
				c6.15,0,12.25-1.543,17.641-4.463C190.61,351.857,191.263,351.701,191.908,351.701z"/>
		</g>
		<g>
			<path d="M327.281,133.117c-4.654-12.132-18.262-18.191-30.393-13.535c-3.183,1.223-5.941,3.064-8.204,5.33l33.27,33.27
				C328.316,151.813,330.716,142.064,327.281,133.117z"/>
		</g>
		<g>
			<path d="M139.796,120.583c-12.131,4.656-18.189,18.263-13.533,30.394c1.222,3.183,3.064,5.942,5.329,8.204l33.27-33.269
				C158.493,119.549,148.745,117.149,139.796,120.583z"/>
		</g>
		<g>
			<path fill="#777777" d="M345.924,219.923c0,65.436-46.765,107.7-119.166,107.7c-73.501,0-119.137-41.27-119.137-107.7
				c0-61.189,53.448-111.008,119.167-111.008C292.475,108.915,345.924,158.729,345.924,219.923z"/>
		</g>
		<g>
			<path fill="#B8B8B8" d="M321.286,219.581c0,51.905-37.095,85.43-94.525,85.43c-58.302,0-94.501-32.735-94.501-85.43
				c0-48.536,42.396-88.053,94.525-88.053C278.889,131.527,321.286,171.041,321.286,219.581z"/>
			<path d="M226.785,131.527c52.104,0,94.501,39.513,94.501,88.053c0,51.905-37.095,85.43-94.525,85.43
				c-58.302,0-94.501-32.735-94.501-85.43C132.259,171.045,174.656,131.527,226.785,131.527 M226.785,125.527
				c-55.43,0-100.525,42.192-100.525,94.053c0,27.599,9.462,50.742,27.364,66.926c17.731,16.031,43.021,24.504,73.138,24.504
				c29.689,0,54.871-8.575,72.822-24.799c18.124-16.379,27.703-39.42,27.703-66.63C327.286,167.719,282.201,125.527,226.785,125.527
				L226.785,125.527z"/>
		</g>
		<g>
			<path fill="#B8B8B8" d="M321.286,219.581c0,51.905-37.095,85.43-94.525,85.43c-58.302,0-94.501-32.735-94.501-85.43
				c0-48.536,42.396-88.053,94.525-88.053C278.889,131.527,321.286,171.041,321.286,219.581z"/>
			<path d="M226.785,131.527c52.104,0,94.501,39.513,94.501,88.053c0,51.905-37.095,85.43-94.525,85.43
				c-58.302,0-94.501-32.735-94.501-85.43C132.259,171.045,174.656,131.527,226.785,131.527 M226.785,125.527
				c-55.43,0-100.525,42.192-100.525,94.053c0,27.599,9.462,50.742,27.364,66.926c17.731,16.031,43.021,24.504,73.138,24.504
				c29.689,0,54.871-8.575,72.822-24.799c18.124-16.379,27.703-39.42,27.703-66.63C327.286,167.719,282.201,125.527,226.785,125.527
				L226.785,125.527z"/>
		</g>
		<g>
			<path d="M254.387,275.381c-15.207,0-27.119-8.126-27.119-18.5c0-1.657,1.343-3,3-3s3,1.343,3,3c0,6.776,9.671,12.5,21.119,12.5
				c11.448,0,21.12-5.724,21.12-12.5c0-1.657,1.343-3,3-3s3,1.343,3,3C281.507,267.254,269.595,275.381,254.387,275.381z"/>
			<path d="M206.149,275.381c-15.207,0-27.119-8.126-27.119-18.5c0-1.657,1.343-3,3-3c1.657,0,3,1.343,3,3
				c0,6.776,9.671,12.5,21.119,12.5s21.119-5.724,21.119-12.5c0-1.657,1.343-3,3-3c1.657,0,3,1.343,3,3
				C233.268,267.254,221.356,275.381,206.149,275.381z"/>
		</g>
		<g>
			<path d="M210.649,241.875c0,8.438,8.519,15.048,19.394,15.048s19.394-6.61,19.394-15.048c0,0-3.755-4.103-18.932-4.103
				C215.327,237.772,210.649,241.875,210.649,241.875z"/>
			<path d="M230.042,259.923c-12.557,0-22.394-7.927-22.394-18.048c0-0.864,0.372-1.686,1.022-2.255
				c0.566-0.496,5.984-4.847,21.833-4.847c15.702,0,20.369,4.229,21.145,5.077c0.506,0.553,0.787,1.276,0.787,2.025
				C252.436,251.996,242.6,259.923,230.042,259.923z M213.786,243.474c1.034,5.974,7.803,10.449,16.257,10.449
				c8.501,0,15.299-4.526,16.273-10.55c-1.813-0.938-6.357-2.6-15.812-2.6C220.823,240.772,215.834,242.497,213.786,243.474z"/>
		</g>
		<g>
			<circle fill="#FFFFFF" cx="192.714" cy="190.355" r="13.452"/>
			<path d="M192.715,206.807c-4.395,0-8.525-1.711-11.633-4.818c-3.108-3.107-4.82-7.239-4.82-11.634
				c0-4.395,1.711-8.526,4.819-11.634c3.107-3.107,7.238-4.818,11.633-4.818c4.395,0,8.527,1.711,11.636,4.819
				c6.414,6.417,6.413,16.854-0.002,23.267C201.241,205.096,197.11,206.807,192.715,206.807z M192.714,179.902
				c-2.792,0-5.417,1.087-7.39,3.061c-1.975,1.975-3.062,4.599-3.062,7.391c0,2.792,1.088,5.417,3.063,7.392
				c1.975,1.974,4.599,3.062,7.391,3.062s5.416-1.087,7.39-3.062c4.076-4.074,4.076-10.705,0.002-14.781
				C198.132,180.99,195.506,179.902,192.714,179.902z"/>
		</g>
		<circle cx="192.54" cy="198.247" r="7.802"/>
		<g>
			<circle fill="#FFFFFF" cx="254.405" cy="190.355" r="13.453"/>
			<path d="M254.407,206.808c-4.395,0-8.526-1.711-11.633-4.819c-3.107-3.107-4.819-7.239-4.82-11.633
				c-0.001-4.395,1.71-8.526,4.817-11.634s7.239-4.819,11.634-4.819c4.396,0,8.527,1.711,11.636,4.82
				c3.107,3.106,4.818,7.238,4.818,11.633c0,4.395-1.712,8.526-4.82,11.634C262.933,205.096,258.802,206.808,254.407,206.808z
				 M254.405,179.902c-2.792,0-5.417,1.087-7.391,3.061c-1.974,1.974-3.061,4.599-3.061,7.391s1.088,5.417,3.063,7.392
				c1.974,1.975,4.599,3.062,7.391,3.062s5.416-1.087,7.389-3.061c1.975-1.975,3.062-4.6,3.063-7.392
				c0-2.792-1.087-5.417-3.061-7.391C259.823,180.99,257.198,179.902,254.405,179.902z"/>
		</g>
		<circle cx="254.231" cy="198.247" r="7.802"/>
	</g>
	<g id="rdeča7bela_copy_3">
	</g>
	<path d="M14372.783,12277.16h-16737v-13953h16737V12277.16z M-2363.716,12276.16h16736l-0.5-13951h-16735.5l0.5,13951H-2363.716z"
		/>
</g>
<g id="cb" display="none">
	<g display="inline">
		<path fill="none" stroke="#000000" stroke-width="8" stroke-linecap="round" stroke-linejoin="round" stroke-miterlimit="10" d="
			M356.987,192.195c3.647-6.615,5.483-14.31,4.872-22.385c-0.831-10.961-6.002-20.569-13.717-27.31
			c2.709-7.338,2.863-15.637-0.188-23.506c-6.705-17.297-26.306-25.938-43.779-19.297c-0.057,0.021-0.111,0.047-0.168,0.069
			c-12.395-8.233-28.762-9.297-42.374-1.925c-3.963-6.436-9.775-11.856-17.146-15.37c-19.115-9.112-41.838-2.19-52.641,15.388
			c-6.682-3.611-14.453-5.429-22.61-4.826c-7.314,0.545-14.032,2.962-19.713,6.74c-7.582-2.93-16.242-3.193-24.439-0.076
			c-17.297,6.571-26.013,25.653-19.68,42.818c-14.28,12.432-18.031,33.151-8.863,49.744c-6.5,3.923-11.976,9.677-15.524,16.973
			c-9.205,18.924-2.212,41.42,15.542,52.115c-3.648,6.617-5.485,14.309-4.872,22.385c1.586,20.945,19.003,36.965,39.78,37.44
			c0.182,7.534,2.478,15.106,7.086,21.797c11.952,17.354,35.126,22.607,53.359,12.732c3.963,6.436,9.775,11.856,17.146,15.37
			c19.115,9.113,41.839,2.191,52.642-15.385c6.683,3.61,14.453,5.428,22.61,4.823c21.157-1.571,37.34-18.814,37.818-39.383
			c7.61-0.181,15.258-2.454,22.017-7.016c17.529-11.833,22.835-34.776,12.861-52.825c6.501-3.925,11.976-9.679,15.524-16.976
			C381.734,225.385,374.74,202.89,356.987,192.195z"/>
		<g>
			<path fill="none" d="M327.281,133.117c-4.654-12.132-18.262-18.191-30.393-13.535c-3.183,1.223-5.941,3.064-8.204,5.33
				l33.27,33.27C328.316,151.813,330.716,142.064,327.281,133.117z"/>
		</g>
		<g>
			<path fill="none" d="M139.796,120.583c-12.131,4.656-18.189,18.263-13.533,30.394c1.222,3.183,3.064,5.942,5.329,8.204
				l33.27-33.269C158.493,119.549,148.745,117.149,139.796,120.583z"/>
		</g>
		<g>
			<path fill="none" d="M345.924,219.923c0,65.436-46.765,107.7-119.166,107.7c-73.501,0-119.137-41.27-119.137-107.7
				c0-61.189,53.448-111.008,119.167-111.008C292.475,108.915,345.924,158.729,345.924,219.923z"/>
		</g>
		<g>
			<path d="M226.785,131.527c52.104,0,94.501,39.513,94.501,88.053c0,51.905-37.095,85.43-94.525,85.43
				c-58.302,0-94.501-32.735-94.501-85.43C132.259,171.045,174.656,131.527,226.785,131.527 M226.785,125.527
				c-55.43,0-100.525,42.192-100.525,94.053c0,27.599,9.462,50.742,27.364,66.926c17.731,16.031,43.021,24.503,73.138,24.503
				c29.689,0,54.871-8.575,72.822-24.799c18.124-16.379,27.703-39.42,27.703-66.63C327.286,167.719,282.201,125.527,226.785,125.527
				L226.785,125.527z"/>
		</g>
		<g>
			<path d="M226.785,131.527c52.104,0,94.501,39.513,94.501,88.053c0,51.905-37.095,85.43-94.525,85.43
				c-58.302,0-94.501-32.735-94.501-85.43C132.259,171.045,174.656,131.527,226.785,131.527 M226.785,125.527
				c-55.43,0-100.525,42.192-100.525,94.053c0,27.599,9.462,50.742,27.364,66.926c17.731,16.031,43.021,24.503,73.138,24.503
				c29.689,0,54.871-8.575,72.822-24.799c18.124-16.379,27.703-39.42,27.703-66.63C327.286,167.719,282.201,125.527,226.785,125.527
				L226.785,125.527z"/>
		</g>
		<g>
			<path fill="none" stroke="#000000" stroke-width="6" stroke-linecap="round" stroke-linejoin="round" stroke-miterlimit="10" d="
				M230.268,256.881c0,8.562,10.8,15.5,24.119,15.5c13.32,0,24.12-6.938,24.12-15.5"/>
			<path fill="none" stroke="#000000" stroke-width="6" stroke-linecap="round" stroke-linejoin="round" stroke-miterlimit="10" d="
				M230.268,256.881c0,8.562-10.799,15.5-24.119,15.5c-13.319,0-24.119-6.938-24.119-15.5"/>
		</g>
		<path fill="none" stroke="#000000" stroke-width="6" stroke-linecap="round" stroke-linejoin="round" stroke-miterlimit="10" d="
			M210.649,241.875c0,8.438,8.519,15.048,19.394,15.048s19.394-6.61,19.394-15.048c0,0-3.755-4.103-18.932-4.103
			C215.327,237.772,210.649,241.875,210.649,241.875z"/>
		
			<circle fill="none" stroke="#000000" stroke-width="6" stroke-linecap="round" stroke-linejoin="round" stroke-miterlimit="10" cx="192.714" cy="190.355" r="13.452"/>
		<circle cx="192.54" cy="198.247" r="7.802"/>
		
			<circle fill="none" stroke="#000000" stroke-width="6" stroke-linecap="round" stroke-linejoin="round" stroke-miterlimit="10" cx="254.405" cy="190.355" r="13.453"/>
		<circle cx="254.231" cy="198.247" r="7.802"/>
	</g>
	<g id="rdeča7bela_copy" display="inline">
	</g>
</g>
<g id="pivot">
	<circle fill="none" cx="228.518" cy="368.54" r="14.133"/>
</g>
</svg>
