<?xml version="1.0" encoding="utf-8"?>
<!-- Generator: Adobe Illustrator 16.0.0, SVG Export Plug-In . SVG Version: 6.00 Build 0)  -->
<!DOCTYPE svg PUBLIC "-//W3C//DTD SVG 1.1//EN" "http://www.w3.org/Graphics/SVG/1.1/DTD/svg11.dtd">
<svg version="1.1" xmlns="http://www.w3.org/2000/svg" xmlns:xlink="http://www.w3.org/1999/xlink" x="0px" y="0px"
	 width="453.543px" height="453.543px" viewBox="0 0 453.543 453.543" enable-background="new 0 0 453.543 453.543"
	 xml:space="preserve">
<g id="kvadrat">
</g>
<g id="bg" display="none">
	<rect x="-6445.558" y="-1255.332" display="inline" width="15266.867" height="13678.951"/>
</g>
<g id="color" display="none">
	<g display="inline">
		<path fill="none" stroke="#000000" stroke-width="10" stroke-linecap="round" stroke-linejoin="round" stroke-miterlimit="10" d="
			M115.459,327.796c0,0,33.777-113.014,107.759-129.229"/>
		<path fill="none" stroke="#000000" stroke-width="10" stroke-linecap="round" stroke-linejoin="round" stroke-miterlimit="10" d="
			M79.451,231.011c0,0,46.075-40.916,143.767-38.798"/>
		<path fill="none" stroke="#000000" stroke-width="10" stroke-linecap="round" stroke-linejoin="round" stroke-miterlimit="10" d="
			M223.218,187.979c-77.625,7.915-119.408-61.424-119.408-61.424"/>
		<path fill="none" stroke="#000000" stroke-width="10" stroke-linecap="round" stroke-linejoin="round" stroke-miterlimit="10" d="
			M147.229,93.867c0,0,15.007,63.715,66.989,97.02"/>
		<path fill="none" stroke="#000000" stroke-width="10" stroke-linecap="round" stroke-linejoin="round" stroke-miterlimit="10" d="
			M115.459,327.796c0,0,33.777-113.014,107.759-129.229"/>
		<path fill="none" stroke="#000000" stroke-width="10" stroke-linecap="round" stroke-linejoin="round" stroke-miterlimit="10" d="
			M79.451,231.011c0,0,46.075-40.916,143.767-38.798"/>
		<path fill="none" stroke="#000000" stroke-width="10" stroke-linecap="round" stroke-linejoin="round" stroke-miterlimit="10" d="
			M223.218,187.979c-77.625,7.915-119.408-61.424-119.408-61.424"/>
		<path fill="none" stroke="#000000" stroke-width="10" stroke-linecap="round" stroke-linejoin="round" stroke-miterlimit="10" d="
			M147.229,93.867c0,0,15.007,63.715,66.989,97.02"/>
		<path fill="none" stroke="#000000" stroke-width="10" stroke-linecap="round" stroke-linejoin="round" stroke-miterlimit="10" d="
			M338.085,327.796c0,0-33.777-113.014-107.759-129.229"/>
		<path fill="none" stroke="#000000" stroke-width="10" stroke-linecap="round" stroke-linejoin="round" stroke-miterlimit="10" d="
			M374.092,231.011c0,0-46.075-40.916-143.766-38.798"/>
		<path fill="none" stroke="#000000" stroke-width="10" stroke-linecap="round" stroke-linejoin="round" stroke-miterlimit="10" d="
			M230.326,187.979c77.625,7.915,119.408-61.424,119.408-61.424"/>
		<path fill="none" stroke="#000000" stroke-width="10" stroke-linecap="round" stroke-linejoin="round" stroke-miterlimit="10" d="
			M306.314,93.867c0,0-15.007,63.715-66.988,97.02"/>
		
			<ellipse stroke="#000000" stroke-width="10" stroke-linecap="round" stroke-linejoin="round" stroke-miterlimit="10" cx="225.333" cy="284.29" rx="44.609" ry="75.385"/>
		
			<ellipse stroke="#000000" stroke-width="10" stroke-linecap="round" stroke-linejoin="round" stroke-miterlimit="10" cx="225.333" cy="188.606" rx="24.555" ry="30.943"/>
		
			<polyline fill="none" stroke="#000000" stroke-width="5" stroke-linecap="round" stroke-linejoin="round" stroke-miterlimit="10" points="
			208.653,135.72 223.164,164.83 239.326,135.72 		"/>
	</g>
	<g id="rdeča7bela" display="inline">
	</g>
	
		<rect x="-6955.843" y="-1675.34" display="inline" fill="none" stroke="#000000" stroke-miterlimit="10" width="16736" height="13952"/>
</g>
<g id="cb_1_">
	<g>
		<path d="M115.461,332.797c-0.474,0-0.956-0.068-1.434-0.211c-2.646-0.791-4.15-3.576-3.359-6.223
			c0.352-1.177,8.82-29.177,26.609-59.624c23.872-40.857,53.219-66.12,84.87-73.057c2.695-0.591,5.364,1.116,5.955,3.813
			c0.591,2.698-1.116,5.364-3.814,5.955c-70.292,15.406-103.709,124.674-104.039,125.776
			C119.602,331.396,117.614,332.797,115.461,332.797z"/>
		<path d="M79.453,236.011c-1.379,0-2.752-0.567-3.741-1.68c-1.833-2.065-1.646-5.226,0.419-7.059
			c1.941-1.724,48.661-42.194,147.195-40.058c2.761,0.06,4.95,2.346,4.891,5.107c-0.06,2.76-2.338,4.96-5.107,4.89
			c-94.63-2.047-139.892,37.143-140.338,37.538C81.819,235.595,80.634,236.011,79.453,236.011z"/>
		<path d="M211.177,193.594c-28.587,0-55.992-10.063-79.922-29.477c-20.593-16.706-31.282-34.244-31.728-34.983
			c-1.425-2.365-0.663-5.438,1.702-6.863c2.364-1.426,5.438-0.664,6.863,1.702c0.099,0.164,10.397,16.989,29.728,32.592
			c25.612,20.675,54.171,29.57,84.891,26.438c2.751-0.278,5.202,1.72,5.481,4.467c0.28,2.747-1.72,5.201-4.467,5.481
			C219.523,193.381,215.336,193.594,211.177,193.594z"/>
		<path d="M214.213,195.888c-0.923,0-1.857-0.256-2.692-0.791c-53.077-34.007-68.526-97.401-69.158-100.084
			c-0.633-2.688,1.033-5.38,3.72-6.013c2.689-0.633,5.38,1.033,6.013,3.721c0.194,0.81,15.302,62.229,64.819,93.956
			c2.325,1.49,3.002,4.582,1.513,6.907C217.473,195.075,215.86,195.888,214.213,195.888z"/>
		<path d="M115.461,332.797c-0.474,0-0.956-0.068-1.434-0.211c-2.646-0.791-4.15-3.576-3.359-6.223
			c0.352-1.177,8.82-29.177,26.609-59.624c23.872-40.857,53.219-66.12,84.87-73.057c2.695-0.591,5.364,1.116,5.955,3.813
			c0.591,2.698-1.116,5.364-3.814,5.955c-70.292,15.406-103.709,124.674-104.039,125.776
			C119.602,331.396,117.614,332.797,115.461,332.797z"/>
		<path d="M79.453,236.011c-1.379,0-2.752-0.567-3.741-1.68c-1.833-2.065-1.646-5.226,0.419-7.059
			c1.941-1.724,48.661-42.194,147.195-40.058c2.761,0.06,4.95,2.346,4.891,5.107c-0.06,2.76-2.338,4.96-5.107,4.89
			c-94.63-2.047-139.892,37.143-140.338,37.538C81.819,235.595,80.634,236.011,79.453,236.011z"/>
		<path d="M211.177,193.594c-28.587,0-55.992-10.063-79.922-29.477c-20.593-16.706-31.282-34.244-31.728-34.983
			c-1.425-2.365-0.663-5.438,1.702-6.863c2.364-1.426,5.438-0.664,6.863,1.702c0.099,0.164,10.397,16.989,29.728,32.592
			c25.612,20.675,54.171,29.57,84.891,26.438c2.751-0.278,5.202,1.72,5.481,4.467c0.28,2.747-1.72,5.201-4.467,5.481
			C219.523,193.381,215.336,193.594,211.177,193.594z"/>
		<path d="M214.213,195.888c-0.923,0-1.857-0.256-2.692-0.791c-53.077-34.007-68.526-97.401-69.158-100.084
			c-0.633-2.688,1.033-5.38,3.72-6.013c2.689-0.633,5.38,1.033,6.013,3.721c0.194,0.81,15.302,62.229,64.819,93.956
			c2.325,1.49,3.002,4.582,1.513,6.907C217.473,195.075,215.86,195.888,214.213,195.888z"/>
		<path d="M338.083,332.796c-2.152,0-4.139-1.4-4.788-3.567c-0.33-1.102-33.819-110.387-104.039-125.777
			c-2.698-0.591-4.405-3.257-3.814-5.955c0.591-2.697,3.264-4.405,5.955-3.813c31.65,6.937,60.998,32.2,84.869,73.057
			c17.79,30.447,26.258,58.447,26.61,59.624c0.791,2.646-0.712,5.431-3.357,6.222C339.04,332.728,338.558,332.796,338.083,332.796z"
			/>
		<path d="M374.09,236.011c-1.178,0-2.359-0.414-3.311-1.255l0,0c-0.45-0.396-46.042-39.582-140.345-37.545
			c-2.767,0.063-5.047-2.13-5.107-4.89c-0.06-2.761,2.13-5.047,4.891-5.107c98.521-2.134,145.254,38.334,147.194,40.058
			c2.065,1.833,2.252,4.994,0.419,7.059C376.843,235.444,375.47,236.011,374.09,236.011z"/>
		<path d="M242.367,193.594c-4.161,0-8.344-0.213-12.548-0.642c-2.747-0.28-4.747-2.734-4.467-5.481
			c0.28-2.747,2.727-4.749,5.481-4.467c73.619,7.504,114.217-58.364,114.618-59.031c1.425-2.365,4.499-3.127,6.863-1.702
			c2.365,1.425,3.127,4.498,1.702,6.863c-0.445,0.739-11.135,18.277-31.728,34.983C298.361,183.529,270.952,193.594,242.367,193.594
			z"/>
		<path d="M239.331,195.888c-1.647,0-3.26-0.813-4.215-2.304c-1.49-2.325-0.813-5.417,1.513-6.907
			c49.596-31.777,64.673-93.342,64.819-93.96c0.636-2.686,3.327-4.349,6.016-3.714c2.686,0.634,4.35,3.324,3.717,6.01
			c-0.631,2.683-16.081,66.077-69.158,100.084C241.188,195.632,240.254,195.888,239.331,195.888z"/>
		<g>
			<ellipse cx="225.333" cy="284.29" rx="44.609" ry="75.385"/>
			<path d="M225.333,364.675c-13.754,0-26.485-8.713-35.847-24.534c-8.875-14.998-13.763-34.833-13.763-55.851
				c0-21.019,4.888-40.854,13.763-55.852c9.362-15.82,22.092-24.533,35.847-24.533s26.485,8.712,35.847,24.533
				c8.875,14.998,13.763,34.833,13.763,55.852c0,21.018-4.888,40.853-13.763,55.851
				C251.818,355.962,239.087,364.675,225.333,364.675z M225.333,213.905c-21.471,0-39.609,32.232-39.609,70.385
				s18.139,70.385,39.609,70.385s39.609-32.232,39.609-70.385S246.804,213.905,225.333,213.905z"/>
		</g>
		<g>
			<ellipse cx="225.333" cy="188.606" rx="24.555" ry="30.943"/>
			<path d="M225.333,224.549c-16.297,0-29.555-16.124-29.555-35.943c0-19.817,13.258-35.94,29.555-35.94s29.555,16.123,29.555,35.94
				C254.888,208.425,241.63,224.549,225.333,224.549z M225.333,162.667c-10.783,0-19.555,11.637-19.555,25.94
				c0,14.305,8.772,25.943,19.555,25.943s19.555-11.638,19.555-25.943C244.888,174.303,236.116,162.667,225.333,162.667z"/>
		</g>
		<path d="M223.165,167.33c-0.019,0-0.037,0-0.056,0c-0.928-0.021-1.768-0.554-2.182-1.384l-14.511-29.11
			c-0.616-1.236-0.114-2.737,1.122-3.353c1.236-0.617,2.737-0.114,3.353,1.122l12.393,24.861l13.857-24.959
			c0.669-1.207,2.191-1.643,3.399-0.973c1.207,0.67,1.643,2.192,0.972,3.399l-16.162,29.11
			C224.908,166.838,224.071,167.33,223.165,167.33z"/>
	</g>
	<g id="rdeča7bela_copy_3">
	</g>
	<path d="M9780.656,12277.16h-16737v-13953h16737V12277.16z M-6955.843,12276.16h16736l-0.5-13951h-16735.5l0.5,13951H-6955.843z"/>
</g>
<g id="cb" display="none">
	<g display="inline">
		
			<polyline fill="none" stroke="#000000" stroke-width="5" stroke-linecap="round" stroke-linejoin="round" stroke-miterlimit="10" points="
			208.653,129.72 223.164,158.83 239.326,129.72 		"/>
		<path fill="none" stroke="#000000" stroke-width="8" stroke-linecap="round" stroke-linejoin="round" stroke-miterlimit="10" d="
			M204.519,205.016c-60.991,28.901-89.06,122.78-89.06,122.78"/>
		<path fill="none" stroke="#000000" stroke-width="8" stroke-linecap="round" stroke-linejoin="round" stroke-miterlimit="10" d="
			M200.976,192.48c-82.457,3.842-121.525,38.531-121.525,38.531"/>
		<path fill="none" stroke="#000000" stroke-width="8" stroke-linecap="round" stroke-linejoin="round" stroke-miterlimit="10" d="
			M103.81,126.554c0,0,33.769,56.017,96.978,61.596"/>
		<path fill="none" stroke="#000000" stroke-width="8" stroke-linecap="round" stroke-linejoin="round" stroke-miterlimit="10" d="
			M147.229,93.867c0,0,12.506,53.065,54.203,87.654"/>
		<path fill="none" stroke="#000000" stroke-width="8" stroke-linecap="round" stroke-linejoin="round" stroke-miterlimit="10" d="
			M338.085,327.796c0,0-28.79-96.313-91.421-123.869"/>
		<path fill="none" stroke="#000000" stroke-width="8" stroke-linecap="round" stroke-linejoin="round" stroke-miterlimit="10" d="
			M374.092,231.011c0,0-39.978-35.486-124.391-38.646"/>
		<path fill="none" stroke="#000000" stroke-width="8" stroke-linecap="round" stroke-linejoin="round" stroke-miterlimit="10" d="
			M349.734,126.554c0,0-34.792,57.716-99.851,61.813"/>
		<path fill="none" stroke="#000000" stroke-width="8" stroke-linecap="round" stroke-linejoin="round" stroke-miterlimit="10" d="
			M306.314,93.867c0,0-13.013,55.22-56.753,89.717"/>
		<path fill="none" stroke="#000000" stroke-width="8" stroke-linecap="round" stroke-linejoin="round" stroke-miterlimit="10" d="
			M200.976,192.48c0.453,4.562,1.69,8.814,3.542,12.536"/>
		<g>
			<path fill="none" stroke="#000000" stroke-width="8" stroke-linecap="round" stroke-linejoin="round" stroke-miterlimit="10" d="
				M240.203,213.212c-4.127,3.97-9.276,6.337-14.87,6.337c-5.594,0-10.744-2.366-14.872-6.337
				c-17.323,10.352-29.738,38.258-29.738,71.078c0,41.633,19.972,75.385,44.609,75.385s44.609-33.751,44.609-75.385
				C269.942,251.469,257.527,223.563,240.203,213.212z"/>
			<g>
				
					<path fill="none" stroke="#000000" stroke-width="8" stroke-linecap="round" stroke-linejoin="round" stroke-miterlimit="10" d="
					M210.461,213.212c-17.323,10.352-29.738,38.258-29.738,71.078c0,41.633,19.972,75.385,44.609,75.385
					s44.609-33.751,44.609-75.385c0-32.821-12.415-60.728-29.739-71.078"/>
				
					<path fill="none" stroke="#000000" stroke-width="8" stroke-linecap="round" stroke-linejoin="round" stroke-miterlimit="10" d="
					M240.203,213.212c2.614-2.515,4.821-5.667,6.46-9.285"/>
				
					<path fill="none" stroke="#000000" stroke-width="8" stroke-linecap="round" stroke-linejoin="round" stroke-miterlimit="10" d="
					M204.519,205.016c1.575,3.165,3.595,5.938,5.943,8.196"/>
				
					<path fill="none" stroke="#000000" stroke-width="8" stroke-linecap="round" stroke-linejoin="round" stroke-miterlimit="10" d="
					M210.461,213.212c4.127,3.971,9.277,6.337,14.872,6.337c5.594,0,10.743-2.367,14.87-6.337"/>
			</g>
		</g>
		<path fill="none" stroke="#000000" stroke-width="8" stroke-linecap="round" stroke-linejoin="round" stroke-miterlimit="10" d="
			M201.432,181.521c-0.396,2.134-0.619,4.351-0.645,6.629"/>
		<path fill="none" stroke="#000000" stroke-width="8" stroke-linecap="round" stroke-linejoin="round" stroke-miterlimit="10" d="
			M246.664,203.927c1.581-3.486,2.637-7.396,3.038-11.562"/>
		<path fill="none" stroke="#000000" stroke-width="8" stroke-linecap="round" stroke-linejoin="round" stroke-miterlimit="10" d="
			M201.432,181.521c2.543-13.671,12.275-23.854,23.901-23.854c12.204,0,22.323,11.219,24.228,25.917"/>
		<path fill="none" stroke="#000000" stroke-width="8" stroke-linecap="round" stroke-linejoin="round" stroke-miterlimit="10" d="
			M249.883,188.367c-0.01-1.627-0.12-3.225-0.322-4.783"/>
		<path fill="none" stroke="#000000" stroke-width="8" stroke-linecap="round" stroke-linejoin="round" stroke-miterlimit="10" d="
			M249.883,188.367c0,0.081,0.005,0.159,0.005,0.239c0,1.273-0.068,2.525-0.187,3.759"/>
		<path fill="none" stroke="#000000" stroke-width="8" stroke-linecap="round" stroke-linejoin="round" stroke-miterlimit="10" d="
			M200.976,192.48c-0.126-1.27-0.198-2.56-0.198-3.874c0-0.153,0.007-0.303,0.009-0.456"/>
	</g>
	<g id="rdeča7bela_copy" display="inline">
	</g>
</g>
<g id="pivot">
	<circle fill="none" cx="224.063" cy="358.414" r="14.133"/>
</g>
</svg>
