<?xml version="1.0" encoding="utf-8"?>
<!-- Generator: Adobe Illustrator 16.0.0, SVG Export Plug-In . SVG Version: 6.00 Build 0)  -->
<!DOCTYPE svg PUBLIC "-//W3C//DTD SVG 1.1//EN" "http://www.w3.org/Graphics/SVG/1.1/DTD/svg11.dtd">
<svg version="1.1" xmlns="http://www.w3.org/2000/svg" xmlns:xlink="http://www.w3.org/1999/xlink" x="0px" y="0px"
	 width="453.543px" height="453.543px" viewBox="0 0 453.543 453.543" enable-background="new 0 0 453.543 453.543"
	 xml:space="preserve">
<g id="kvadrat">
</g>
<g id="bg" display="none">
	<rect x="-1343.195" y="-1255.332" display="inline" width="15266.867" height="13678.951"/>
</g>
<g id="color" display="none">
	<g id="rdeča7bela" display="inline">
	</g>
	<g display="inline">
		
			<path fill="#F4AFB4" stroke="#000000" stroke-width="8" stroke-linecap="round" stroke-linejoin="round" stroke-miterlimit="10" d="
			M351.566,134.027v-33.76h-33.321c-18.032,0-32.999,14.804-33.298,32.77c-11.003-6.143-31.732-14.418-58.381-14.539v-0.007
			c-0.067,0-0.13,0.004-0.197,0.005c-0.131-0.001-0.261-0.005-0.393-0.005v0.012c-26.632,0.123-46.379,8.392-57.381,14.534
			c-0.298-17.966-15.265-32.77-33.297-32.77h-33.321v33.76c0,16.907,13.017,31.125,29.452,33.082
			c-13.998,19.328-22.254,43.086-22.254,68.775c0,64.637,52.24,117.066,116.802,117.385v0.007c0.099,0,0.197-0.003,0.295-0.003
			s0.196,0.003,0.295,0.003v-0.007c64.567-0.318,117.803-52.748,117.803-117.385c0-25.688-8.256-49.447-22.254-68.775
			C338.55,165.152,351.566,150.934,351.566,134.027z"/>
		
			<ellipse fill="#FFFFFF" stroke="#000000" stroke-width="6" stroke-linecap="round" stroke-linejoin="round" stroke-miterlimit="10" cx="227.105" cy="273.003" rx="33.043" ry="27.749"/>
		<circle cx="213.5" cy="273.435" r="6.612"/>
		<circle cx="239.947" cy="273.435" r="6.612"/>
		<g>
			
				<circle fill="#FFFFFF" stroke="#000000" stroke-width="6" stroke-linecap="round" stroke-linejoin="round" stroke-miterlimit="10" cx="186.137" cy="193.147" r="16.744"/>
			<circle cx="186.137" cy="200.246" r="9.711"/>
		</g>
		<g>
			
				<circle fill="#FFFFFF" stroke="#000000" stroke-width="6" stroke-linecap="round" stroke-linejoin="round" stroke-miterlimit="10" cx="265.148" cy="193.147" r="16.744"/>
			<circle cx="265.148" cy="200.246" r="9.711"/>
		</g>
		
			<line fill="none" stroke="#000000" stroke-width="6" stroke-linecap="round" stroke-linejoin="round" stroke-miterlimit="10" x1="128.673" y1="127.835" x2="147.768" y2="148.866"/>
		
			<line fill="none" stroke="#000000" stroke-width="6" stroke-linecap="round" stroke-linejoin="round" stroke-miterlimit="10" x1="323.077" y1="127.835" x2="303.981" y2="148.866"/>
	</g>
	
		<rect x="-1853.48" y="-1675.34" display="inline" fill="none" stroke="#000000" stroke-miterlimit="10" width="16736" height="13952"/>
</g>
<g id="cb_1_">
	<g id="rdeča7bela_copy_3">
	</g>
	<g>
		<g>
			<path fill="#C4C4C4" d="M351.566,134.027v-33.76h-33.321c-18.032,0-32.999,14.804-33.298,32.77
				c-11.003-6.143-31.732-14.418-58.381-14.539v-0.007c-0.067,0-0.13,0.004-0.197,0.005c-0.131-0.001-0.261-0.005-0.393-0.005v0.012
				c-26.632,0.123-46.379,8.392-57.381,14.534c-0.298-17.966-15.265-32.77-33.297-32.77h-33.321v33.76
				c0,16.907,13.017,31.125,29.452,33.082c-13.998,19.328-22.254,43.086-22.254,68.775c0,64.637,52.24,117.066,116.802,117.385
				v0.007c0.099,0,0.197-0.003,0.295-0.003s0.196,0.003,0.295,0.003v-0.007c64.567-0.318,117.803-52.748,117.803-117.385
				c0-25.688-8.256-49.447-22.254-68.775C338.55,165.152,351.566,150.934,351.566,134.027z"/>
			<path d="M226.566,357.276l-0.373-0.002l-0.217,0.002c-0.09,0-0.179-0.003-0.268-0.009c-32.205-0.223-62.447-12.913-85.179-35.749
				c-22.799-22.904-35.355-53.315-35.355-85.634c0-23.688,6.742-46.409,19.553-66.084c-15.619-4.623-26.751-19.037-26.751-35.772
				v-33.76c0-2.209,1.791-4,4-4h33.321c18.116,0,33.426,13.203,36.669,30.497c12.321-6.02,30.467-12.099,53.679-12.258
				c0.109-0.009,0.219-0.014,0.331-0.014l0.379,0.004l0.211-0.004c0.087,0,0.173,0.002,0.258,0.008
				c25.034,0.158,44.313,7.307,54.746,12.297c3.23-17.309,18.549-30.53,36.675-30.53h33.321c2.209,0,4,1.791,4,4v33.76
				c0,16.736-11.133,31.15-26.751,35.772c12.812,19.676,19.554,42.396,19.554,66.084c0,66.519-54.497,120.92-121.536,121.383
				C226.745,357.273,226.656,357.276,226.566,357.276z M105.976,104.267v29.76c0,14.592,11.387,27.379,25.924,29.11
				c1.408,0.167,2.623,1.068,3.191,2.367s0.407,2.802-0.424,3.951c-14.061,19.416-21.494,42.386-21.494,66.429
				c0,62.214,50.612,113.078,112.822,113.385c0.061,0,0.121,0.002,0.181,0.005l0.095-0.001l0.096,0.001
				c0.06-0.003,0.119-0.004,0.18-0.005c62.762-0.309,113.822-51.173,113.822-113.385c0-24.042-7.433-47.013-21.494-66.429
				c-0.832-1.148-0.993-2.652-0.424-3.951s1.783-2.2,3.191-2.367c14.537-1.731,25.925-14.518,25.925-29.11v-29.76h-29.321
				c-15.891,0-29.034,12.936-29.298,28.836c-0.023,1.407-0.784,2.698-2.003,3.4c-1.219,0.702-2.717,0.712-3.946,0.026
				c-7.48-4.176-27.954-13.902-56.45-14.031c-0.041,0-0.081-0.001-0.121-0.002c0,0,0,0,0,0l-0.184-0.001
				c-0.082,0.005-0.165,0.008-0.249,0.009c-25.271,0.116-44.103,7.692-55.45,14.026c-1.228,0.686-2.727,0.676-3.946-0.026
				c-1.219-0.702-1.98-1.993-2.003-3.4c-0.264-15.9-13.407-28.836-29.298-28.836H105.976z"/>
		</g>
		<g>
			<ellipse fill="#FFFFFF" cx="227.105" cy="273.003" rx="33.043" ry="27.749"/>
			<path d="M227.106,303.752c-19.875,0-36.043-13.794-36.043-30.749c0-16.955,16.168-30.748,36.043-30.748
				c19.874,0,36.042,13.793,36.042,30.748C263.148,289.958,246.979,303.752,227.106,303.752z M227.106,248.255
				c-16.566,0-30.043,11.102-30.043,24.748c0,13.647,13.477,24.749,30.043,24.749c16.565,0,30.042-11.102,30.042-24.749
				C257.148,259.357,243.671,248.255,227.106,248.255z"/>
		</g>
		<circle cx="213.5" cy="273.435" r="6.612"/>
		<circle cx="239.947" cy="273.435" r="6.612"/>
		<g>
			<g>
				<circle fill="#FFFFFF" cx="186.137" cy="193.147" r="16.744"/>
				<path d="M186.138,212.89c-10.887,0-19.745-8.856-19.745-19.743s8.858-19.744,19.745-19.744c10.886,0,19.743,8.857,19.743,19.744
					S197.024,212.89,186.138,212.89z M186.138,179.403c-7.579,0-13.745,6.166-13.745,13.744s6.166,13.743,13.745,13.743
					c7.578,0,13.743-6.165,13.743-13.743S193.716,179.403,186.138,179.403z"/>
			</g>
			<circle cx="186.137" cy="200.246" r="9.711"/>
		</g>
		<g>
			<g>
				<circle fill="#FFFFFF" cx="265.148" cy="193.147" r="16.744"/>
				<path d="M265.149,212.89c-10.887,0-19.745-8.856-19.745-19.743s8.857-19.744,19.745-19.744c10.886,0,19.743,8.857,19.743,19.744
					S276.036,212.89,265.149,212.89z M265.149,179.403c-7.579,0-13.745,6.166-13.745,13.744s6.166,13.743,13.745,13.743
					c7.578,0,13.743-6.165,13.743-13.743S272.727,179.403,265.149,179.403z"/>
			</g>
			<circle cx="265.148" cy="200.246" r="9.711"/>
		</g>
		<path d="M147.769,151.866c-0.817,0-1.63-0.332-2.222-0.983l-19.095-21.031c-1.114-1.227-1.022-3.124,0.205-4.238
			c1.227-1.113,3.125-1.021,4.238,0.205l19.095,21.031c1.114,1.227,1.022,3.124-0.205,4.238
			C149.21,151.609,148.488,151.866,147.769,151.866z"/>
		<path d="M303.98,151.866c-0.719,0-1.441-0.257-2.016-0.779c-1.227-1.114-1.318-3.011-0.205-4.238l19.096-21.031
			c1.113-1.227,3.011-1.319,4.238-0.205c1.227,1.114,1.318,3.011,0.205,4.238l-19.096,21.031
			C305.61,151.535,304.796,151.866,303.98,151.866z"/>
	</g>
	<path d="M14883.02,12277.16h-16737v-13953h16737V12277.16z M-1853.48,12276.16h16736l-0.5-13951h-16735.5l0.5,13951H-1853.48z"/>
</g>
<g id="cb" display="none">
	<g id="rdeča7bela_copy" display="inline">
	</g>
	<g display="inline">
		<path fill="none" stroke="#000000" stroke-width="8" stroke-linecap="round" stroke-linejoin="round" stroke-miterlimit="10" d="
			M351.566,134.027v-33.76h-33.321c-18.032,0-32.999,14.804-33.298,32.77c-11.003-6.143-31.732-14.418-58.381-14.539v-0.007
			c-0.067,0-0.13,0.004-0.197,0.005c-0.131-0.001-0.261-0.005-0.393-0.005v0.012c-26.632,0.123-46.379,8.392-57.381,14.534
			c-0.298-17.966-15.265-32.77-33.297-32.77h-33.321v33.76c0,16.907,13.017,31.125,29.452,33.082
			c-13.998,19.328-22.254,43.086-22.254,68.775c0,64.637,52.24,117.066,116.802,117.385v0.007c0.099,0,0.197-0.003,0.295-0.003
			s0.196,0.003,0.295,0.003v-0.007c64.567-0.318,117.803-52.748,117.803-117.385c0-25.688-8.256-49.447-22.254-68.775
			C338.55,165.152,351.566,150.934,351.566,134.027z"/>
		
			<ellipse fill="none" stroke="#000000" stroke-width="6" stroke-linecap="round" stroke-linejoin="round" stroke-miterlimit="10" cx="227.105" cy="273.003" rx="33.043" ry="27.749"/>
		<circle cx="213.5" cy="273.435" r="6.612"/>
		<circle cx="239.947" cy="273.435" r="6.612"/>
		<g>
			
				<circle fill="none" stroke="#000000" stroke-width="6" stroke-linecap="round" stroke-linejoin="round" stroke-miterlimit="10" cx="186.137" cy="193.147" r="16.744"/>
			<circle cx="186.137" cy="200.246" r="9.711"/>
		</g>
		<g>
			
				<circle fill="none" stroke="#000000" stroke-width="6" stroke-linecap="round" stroke-linejoin="round" stroke-miterlimit="10" cx="265.148" cy="193.147" r="16.744"/>
			<circle cx="265.148" cy="200.246" r="9.711"/>
		</g>
		
			<line fill="none" stroke="#000000" stroke-width="6" stroke-linecap="round" stroke-linejoin="round" stroke-miterlimit="10" x1="128.673" y1="127.835" x2="147.768" y2="148.866"/>
		
			<line fill="none" stroke="#000000" stroke-width="6" stroke-linecap="round" stroke-linejoin="round" stroke-miterlimit="10" x1="323.077" y1="127.835" x2="303.981" y2="148.866"/>
	</g>
</g>
<g id="pivot">
	<circle fill="none" cx="226.601" cy="352.625" r="14.133"/>
</g>
</svg>
