<?xml version="1.0" encoding="utf-8"?>
<!-- Generator: Adobe Illustrator 16.0.0, SVG Export Plug-In . SVG Version: 6.00 Build 0)  -->
<!DOCTYPE svg PUBLIC "-//W3C//DTD SVG 1.1//EN" "http://www.w3.org/Graphics/SVG/1.1/DTD/svg11.dtd">
<svg version="1.1" xmlns="http://www.w3.org/2000/svg" xmlns:xlink="http://www.w3.org/1999/xlink" x="0px" y="0px"
	 width="453.543px" height="453.543px" viewBox="0 0 453.543 453.543" enable-background="new 0 0 453.543 453.543"
	 xml:space="preserve">
<g id="kvadrat">
</g>
<g id="bg" display="none">
	<rect x="-1343.195" y="-11970.294" display="inline" width="15266.867" height="13678.951"/>
</g>
<g id="barvno" display="none">
	<g id="rdeča7bela" display="inline">
	</g>
	<g display="inline">
		<g>
			
				<path fill="#57B2E5" stroke="#000000" stroke-width="8" stroke-linecap="round" stroke-linejoin="round" stroke-miterlimit="10" d="
				M213.961,318.167c-22.238,0-34.983-14.571-34.983-39.98c0-2.766,2.237-5,4.996-5c2.757,0,72.198,19.988,74.966,19.988
				c2.756,0,4.994,2.238,4.994,5C263.934,318.167,239.659,318.167,213.961,318.167z"/>
			
				<path fill="#57B2E5" stroke="#000000" stroke-width="8" stroke-linecap="round" stroke-linejoin="round" stroke-miterlimit="10" d="
				M283.185,147.325c-7.759-11.948-34.582-11.948-62.732-11.948c-26.615,0-49.967,21.018-49.967,44.979v0.003c0,2.757,9.99,0,9.99,0
				v-0.003h105.892C286.368,180.356,284.639,149.563,283.185,147.325z"/>
			
				<path fill="#57B2E5" stroke="#000000" stroke-width="8" stroke-linecap="round" stroke-linejoin="round" stroke-miterlimit="10" d="
				M374.514,227.876c0-28.977-49.297-79.632-95.584-79.632c-64.568,0-127.898,44.792-151.73,61.649
				c-0.977,0.688-1.863,1.333-2.695,1.905c-6.051-5.566-17.102-14.959-23.25-18.044c-3.447-1.722-6.729-2.598-9.732-2.598
				c-8.119,0-12.494,6.219-12.494,12.063v59.983c0,5.844,4.375,12.064,12.494,12.064c3.004,0,6.285-0.877,9.732-2.607
				c6.188-3.091,17.347-12.596,23.369-18.154c15.695,9.669,83.394,48.669,154.307,48.669
				C331.851,303.176,374.514,256.854,374.514,227.876z"/>
			<path d="M338.836,218.281c0,5.481-4.446,9.931-9.932,9.931c-5.484,0-9.931-4.449-9.931-9.931c0-5.484,4.446-9.931,9.931-9.931
				C334.39,208.351,338.836,212.797,338.836,218.281z"/>
		</g>
		<path fill="none" stroke="#000000" stroke-width="8" stroke-linecap="round" stroke-linejoin="round" stroke-miterlimit="10" d="
			M286.368,250.15c0,0,17.615,33.865,63.687,23.036"/>
	</g>
	
		<rect x="-1853.48" y="-12390.303" display="inline" fill="none" stroke="#000000" stroke-miterlimit="10" width="16736" height="13952"/>
</g>
<g id="sivinsko">
	<g id="rdeča7bela_copy_3">
	</g>
	<g>
		<g>
			<g>
				<path fill="#9C9C9C" d="M213.961,318.167c-22.238,0-34.983-14.571-34.983-39.98c0-2.766,2.237-5,4.996-5
					c2.757,0,72.198,19.988,74.966,19.988c2.756,0,4.994,2.238,4.994,5C263.934,318.167,239.659,318.167,213.961,318.167z"/>
				<path d="M213.961,322.167c-24.41,0-38.983-16.441-38.983-43.98c0-4.963,4.036-9,8.996-9c1.615,0,7.731,1.608,38.493,10.125
					c15.196,4.206,34.058,9.428,36.706,9.866c4.852,0.124,8.761,4.112,8.761,8.997c0,10.899-6.16,18.084-18.31,21.355
					C239.832,322.167,227.266,322.167,213.961,322.167z M183.823,277.198c-0.478,0.073-0.845,0.488-0.845,0.988
					c0,23.202,11.003,35.98,30.983,35.98c28.604,0,45.973-1.076,45.973-15.992c0-0.552-0.446-1-0.994-1
					c-1.622,0-7.756-1.613-38.606-10.153C205.335,282.869,186.756,277.726,183.823,277.198z"/>
			</g>
			<g>
				<path fill="#9C9C9C" d="M283.185,147.325c-7.759-11.948-34.582-11.948-62.732-11.948c-26.615,0-49.967,21.018-49.967,44.979
					v0.003c0,2.757,9.99,0,9.99,0v-0.003h105.892C286.368,180.356,284.639,149.563,283.185,147.325z"/>
				<path d="M173.076,185.585c-6.405,0-6.59-4.69-6.59-5.226c0-26.095,25.218-48.982,53.967-48.982c29.387,0,57.145,0,66.087,13.77
					c0.608,0.937,2.033,3.131,3.822,34.985c0.062,1.099-0.332,2.174-1.087,2.973s-1.807,1.252-2.907,1.252h-105.36
					C179.606,184.717,175.936,185.585,173.076,185.585z M220.453,139.377c-23.403,0-44.06,17.491-45.842,38.098
					c1.735-0.214,3.733-0.686,4.656-0.932c0.381-0.121,0.788-0.187,1.209-0.187h101.649c-0.749-12.129-1.796-24.509-2.496-27.151
					C272.723,139.376,246.155,139.377,220.453,139.377z"/>
			</g>
			<g>
				<path fill="#D9D9D9" d="M374.514,227.876c0-28.977-49.297-79.632-95.584-79.632c-64.568,0-127.898,44.792-151.73,61.649
					c-0.977,0.688-1.863,1.333-2.695,1.905c-6.051-5.566-17.102-14.959-23.25-18.044c-3.447-1.722-6.729-2.598-9.732-2.598
					c-8.119,0-12.494,6.219-12.494,12.063v59.983c0,5.844,4.375,12.064,12.494,12.064c3.004,0,6.285-0.877,9.732-2.607
					c6.188-3.091,17.347-12.596,23.369-18.154c15.695,9.669,83.394,48.669,154.307,48.669
					C331.851,303.176,374.514,256.854,374.514,227.876z"/>
				<path d="M278.93,307.176c-67.99,0-132.114-34.649-153.83-47.697c-6.232,5.58-16.069,13.77-22.058,16.761
					c-4.001,2.009-7.88,3.029-11.52,3.029c-10.713,0-16.494-8.276-16.494-16.064v-59.983c0-7.787,5.781-16.063,16.494-16.063
					c3.633,0,7.509,1.016,11.52,3.02c6.583,3.303,16.991,12.253,21.769,16.508l0.085-0.061
					c24.116-17.058,88.189-62.38,154.035-62.38c21.92,0,46.641,10.926,67.824,29.976c19.59,17.616,31.76,38.177,31.76,53.656
					C378.514,259.191,333.9,307.176,278.93,307.176z M124.624,250.507c0.723,0,1.449,0.195,2.097,0.595
					c13.032,8.027,81.614,48.074,152.209,48.074c49.671,0,91.584-43.795,91.584-71.3c0-26.449-47.076-75.632-91.584-75.632
					c-63.303,0-125.867,44.255-149.421,60.915l-1.054,0.749c-0.589,0.42-1.147,0.817-1.684,1.187
					c-1.537,1.056-3.602,0.912-4.975-0.353c-7.147-6.574-17.185-14.828-22.336-17.412c-2.885-1.44-5.558-2.173-7.938-2.173
					c-6.232,0-8.494,4.822-8.494,8.063v59.983c0,3.241,2.262,8.064,8.494,8.064c2.383,0,5.053-0.734,7.938-2.183
					c5.2-2.598,15.282-10.901,22.451-17.519C122.669,250.867,123.643,250.507,124.624,250.507z"/>
			</g>
			<path d="M338.836,218.281c0,5.481-4.446,9.931-9.932,9.931c-5.484,0-9.931-4.449-9.931-9.931c0-5.484,4.446-9.931,9.931-9.931
				C334.39,208.351,338.836,212.797,338.836,218.281z"/>
		</g>
		<path d="M332.69,279.306c-15.496,0-26.727-5.174-34.049-10.299c-10.841-7.588-15.624-16.63-15.822-17.011
			c-1.02-1.96-0.257-4.375,1.703-5.395c1.957-1.016,4.367-0.259,5.389,1.693c0.683,1.292,16.921,30.947,59.228,20.998
			c2.15-0.508,4.304,0.828,4.809,2.979c0.506,2.15-0.828,4.304-2.979,4.809C344.321,278.644,338.232,279.306,332.69,279.306z"/>
	</g>
	<path d="M14883.02,1562.197h-16737v-13953h16737V1562.197z M-1853.48,1561.197h16736l-0.5-13951h-16735.5l0.5,13951H-1853.48z"/>
</g>
<g id="linijsko" display="none">
	<g id="rdeča7bela_copy" display="inline">
	</g>
	<g display="inline">
		<path fill="none" stroke="#000000" stroke-width="8" stroke-linecap="round" stroke-linejoin="round" stroke-miterlimit="10" d="
			M179.07,281.669c1.129,23.249,13.691,36.498,34.891,36.498c23.649,0,46.076-0.013,49.505-15.593"/>
		<path fill="none" stroke="#000000" stroke-width="8" stroke-linecap="round" stroke-linejoin="round" stroke-miterlimit="10" d="
			M171.449,181.395c-0.594-0.182-0.963-0.507-0.963-1.035v-0.003c0-23.962,23.352-44.979,49.967-44.979
			c28.15,0,54.973,0,62.732,11.948c0.118,0.181,0.237,0.565,0.357,1.087"/>
		<path fill="none" stroke="#000000" stroke-width="8" stroke-linecap="round" stroke-linejoin="round" stroke-miterlimit="10" d="
			M171.449,181.395c29.702-16.709,68.362-33.15,107.48-33.15c1.535,0,3.073,0.06,4.612,0.168"/>
		<path fill="none" stroke="#000000" stroke-width="8" stroke-linecap="round" stroke-linejoin="round" stroke-miterlimit="10" d="
			M171.449,181.395c-19.323,10.87-34.856,21.854-44.25,28.499c-0.977,0.688-1.863,1.333-2.695,1.905
			c-6.051-5.566-17.102-14.959-23.25-18.044c-3.447-1.722-6.729-2.598-9.732-2.598c-8.119,0-12.494,6.219-12.494,12.063v59.983
			c0,5.844,4.375,12.064,12.494,12.064c3.004,0,6.285-0.877,9.732-2.607c6.188-3.091,17.347-12.596,23.369-18.154
			c7.658,4.718,27.698,16.417,54.447,27.162"/>
		<path fill="none" stroke="#000000" stroke-width="8" stroke-linecap="round" stroke-linejoin="round" stroke-miterlimit="10" d="
			M283.542,148.412c44.89,3.171,90.972,51.448,90.972,79.464c0,13.487-9.244,30.729-24.459,45.311"/>
		<path fill="none" stroke="#000000" stroke-width="8" stroke-linecap="round" stroke-linejoin="round" stroke-miterlimit="10" d="
			M350.054,273.187c-17.477,16.749-42.833,29.989-71.125,29.989c-5.179,0-10.339-0.213-15.464-0.602"/>
		<path fill="none" stroke="#000000" stroke-width="8" stroke-linecap="round" stroke-linejoin="round" stroke-miterlimit="10" d="
			M179.07,281.669c24.073,9.671,53.58,18.563,84.396,20.905"/>
		<path d="M318.974,218.281c0,5.481,4.446,9.931,9.931,9.931c5.485,0,9.932-4.449,9.932-9.931c0-5.484-4.446-9.931-9.932-9.931
			C323.42,208.351,318.974,212.797,318.974,218.281z"/>
		<path fill="none" stroke="#000000" stroke-width="8" stroke-linecap="round" stroke-linejoin="round" stroke-miterlimit="10" d="
			M286.368,250.15c0,0,17.615,33.865,63.686,23.036"/>
		
			<line fill="none" stroke="#000000" stroke-width="8" stroke-linecap="round" stroke-linejoin="round" stroke-miterlimit="10" x1="350.054" y1="273.187" x2="350.055" y2="273.187"/>
	</g>
</g>
<g id="pivot">
	<circle fill="none" cx="230.45" cy="320.68" r="14.133"/>
</g>
</svg>
