<?xml version="1.0" encoding="utf-8"?>
<!-- Generator: Adobe Illustrator 16.0.0, SVG Export Plug-In . SVG Version: 6.00 Build 0)  -->
<!DOCTYPE svg PUBLIC "-//W3C//DTD SVG 1.1//EN" "http://www.w3.org/Graphics/SVG/1.1/DTD/svg11.dtd">
<svg version="1.1" xmlns="http://www.w3.org/2000/svg" xmlns:xlink="http://www.w3.org/1999/xlink" x="0px" y="0px"
	 width="453.543px" height="453.543px" viewBox="0 0 453.543 453.543" enable-background="new 0 0 453.543 453.543"
	 xml:space="preserve">
<g id="kvadrat">
</g>
<g id="bg" display="none">
	<rect x="-2363.667" y="-11970.294" display="inline" width="15266.867" height="13678.951"/>
</g>
<g id="barvno" display="none">
	<g id="rdeča7bela" display="inline">
	</g>
	<g display="inline">
		<g>
			
				<path fill="#57B2E5" stroke="#000000" stroke-width="8" stroke-linecap="round" stroke-linejoin="round" stroke-miterlimit="10" d="
				M239.581,318.167c22.238,0,34.981-14.571,34.981-39.98c0-2.766-2.235-5-4.994-5c-2.758,0-72.198,19.988-74.966,19.988
				c-2.756,0-4.994,2.238-4.994,5C189.608,318.167,213.882,318.167,239.581,318.167z"/>
			
				<path fill="#57B2E5" stroke="#000000" stroke-width="8" stroke-linecap="round" stroke-linejoin="round" stroke-miterlimit="10" d="
				M170.355,147.325c7.761-11.948,34.583-11.948,62.733-11.948c26.615,0,49.967,21.018,49.967,44.979v0.003c0,2.757-9.99,0-9.99,0
				v-0.003H167.173C167.173,180.356,168.903,149.563,170.355,147.325z"/>
			
				<path fill="#57B2E5" stroke="#000000" stroke-width="8" stroke-linecap="round" stroke-linejoin="round" stroke-miterlimit="10" d="
				M79.028,227.876c0-28.977,49.297-79.632,95.584-79.632c64.568,0,127.898,44.792,151.73,61.649
				c0.977,0.688,1.863,1.333,2.695,1.905c6.051-5.566,17.102-14.959,23.25-18.044c3.447-1.722,6.729-2.598,9.732-2.598
				c8.119,0,12.494,6.219,12.494,12.063v59.983c0,5.844-4.375,12.064-12.494,12.064c-3.004,0-6.285-0.877-9.732-2.607
				c-6.188-3.091-17.348-12.596-23.369-18.154c-15.695,9.669-83.394,48.669-154.307,48.669
				C121.69,303.176,79.028,256.854,79.028,227.876z"/>
			<path fill="none" stroke="#000000" stroke-width="8" stroke-linecap="round" stroke-linejoin="round" stroke-miterlimit="10" d="
				M155.271,183.23c0,0,40.032,46.987,0,89.956"/>
			<path d="M114.706,218.281c0,5.481,4.446,9.931,9.932,9.931c5.484,0,9.931-4.449,9.931-9.931c0-5.484-4.446-9.931-9.931-9.931
				C119.152,208.351,114.706,212.797,114.706,218.281z"/>
		</g>
	</g>
	
		<rect x="-2873.953" y="-12390.303" display="inline" fill="none" stroke="#000000" stroke-miterlimit="10" width="16736" height="13952"/>
</g>
<g id="sivinsko">
	<g id="rdeča7bela_copy_3">
	</g>
	<g>
		<g>
			<g>
				<path fill="#9C9C9C" d="M239.581,318.167c22.238,0,34.981-14.571,34.981-39.98c0-2.766-2.235-5-4.994-5
					c-2.758,0-72.198,19.988-74.966,19.988c-2.756,0-4.994,2.238-4.994,5C189.608,318.167,213.882,318.167,239.581,318.167z"/>
				<path d="M239.581,322.167c-13.305,0-25.871,0-35.663-2.637c-12.149-3.271-18.31-10.456-18.31-21.355
					c0-4.885,3.909-8.873,8.761-8.997c2.647-0.438,21.507-5.659,36.701-9.865c30.766-8.518,36.882-10.126,38.499-10.126
					c4.959,0,8.994,4.037,8.994,9C278.562,305.726,263.99,322.167,239.581,322.167z M269.719,277.198
					c-2.934,0.527-21.515,5.672-36.515,9.824c-30.847,8.539-36.979,10.152-38.602,10.152c-0.548,0-0.994,0.448-0.994,1
					c0,14.916,17.368,15.992,45.973,15.992c19.979,0,30.981-12.778,30.981-35.98C270.562,277.687,270.196,277.271,269.719,277.198z"
					/>
			</g>
			<g>
				<path fill="#9C9C9C" d="M170.355,147.325c7.761-11.948,34.583-11.948,62.733-11.948c26.615,0,49.967,21.018,49.967,44.979v0.003
					c0,2.757-9.99,0-9.99,0v-0.003H167.173C167.173,180.356,168.903,149.563,170.355,147.325z"/>
				<path d="M280.465,185.585c-2.86,0-6.531-0.868-7.932-1.229h-105.36c-1.1,0-2.151-0.453-2.907-1.252s-1.149-1.874-1.087-2.973
					c1.789-31.854,3.212-34.047,3.82-34.983c8.944-13.771,36.702-13.771,66.089-13.771c28.749,0,53.967,22.888,53.967,48.979
					C287.055,180.895,286.871,185.585,280.465,185.585z M274.28,176.544c0.923,0.246,2.918,0.718,4.65,0.931
					c-1.784-20.607-22.44-38.098-45.842-38.098c-25.7,0-52.268,0-59.177,9.828c-0.7,2.644-1.747,15.022-2.495,27.151h101.648
					C273.489,176.356,273.897,176.422,274.28,176.544z"/>
			</g>
			<g>
				<path fill="#9C9C9C" d="M79.028,227.876c0-28.977,49.297-79.632,95.584-79.632c64.568,0,127.898,44.792,151.73,61.649
					c0.977,0.688,1.863,1.333,2.695,1.905c6.051-5.566,17.102-14.959,23.25-18.044c3.447-1.722,6.729-2.598,9.732-2.598
					c8.119,0,12.494,6.219,12.494,12.063v59.983c0,5.844-4.375,12.064-12.494,12.064c-3.004,0-6.285-0.877-9.732-2.607
					c-6.188-3.091-17.348-12.596-23.369-18.154c-15.695,9.669-83.394,48.669-154.307,48.669
					C121.69,303.176,79.028,256.854,79.028,227.876z"/>
				<path d="M174.612,307.176c-54.971,0-99.584-47.984-99.584-79.3c0-15.479,12.17-36.04,31.76-53.656
					c21.184-19.05,45.904-29.976,67.824-29.976c65.846,0,129.919,45.322,154.04,62.384l0.08,0.057
					c4.777-4.255,15.184-13.204,21.762-16.505c4.018-2.007,7.894-3.022,11.526-3.022c10.713,0,16.494,8.276,16.494,16.063v59.983
					c0,7.788-5.781,16.064-16.494,16.064c-3.64,0-7.519-1.021-11.527-3.032c-5.984-2.989-15.82-11.178-22.051-16.758
					C306.721,272.528,242.597,307.176,174.612,307.176z M174.612,152.244c-44.508,0-91.584,49.183-91.584,75.632
					c0,27.505,41.913,71.3,91.584,71.3c70.595,0,139.177-40.047,152.209-48.074c1.526-0.943,3.493-0.751,4.811,0.466
					c7.168,6.617,17.249,14.92,22.444,17.516c2.892,1.451,5.562,2.186,7.945,2.186c6.232,0,8.494-4.823,8.494-8.064v-59.983
					c0-3.241-2.262-8.063-8.494-8.063c-2.381,0-5.054,0.732-7.945,2.176c-5.144,2.581-15.182,10.835-22.329,17.409
					c-1.373,1.265-3.437,1.409-4.975,0.353c-0.537-0.369-1.095-0.767-1.684-1.187l-1.049-0.745
					C300.479,196.499,237.915,152.244,174.612,152.244z"/>
			</g>
			<path d="M155.27,277.187c-0.977,0-1.955-0.355-2.726-1.073c-1.616-1.506-1.706-4.037-0.2-5.653
				c15.573-16.715,20.316-35.975,14.1-57.242c-4.71-16.111-14.123-27.282-14.218-27.394c-1.433-1.682-1.23-4.206,0.451-5.639
				s4.206-1.23,5.639,0.451c0.431,0.506,10.622,12.602,15.807,30.336c4.856,16.615,6.037,41.368-15.925,64.94
				C157.41,276.759,156.341,277.187,155.27,277.187z"/>
			<path d="M114.706,218.281c0,5.481,4.446,9.931,9.932,9.931c5.484,0,9.931-4.449,9.931-9.931c0-5.484-4.446-9.931-9.931-9.931
				C119.152,208.351,114.706,212.797,114.706,218.281z"/>
		</g>
	</g>
	<path d="M13862.547,1562.197h-16737v-13953h16737V1562.197z M-2873.953,1561.197h16736l-0.5-13951h-16735.5l0.5,13951H-2873.953z"
		/>
</g>
<g id="linijsko" display="none">
	<g id="rdeča7bela_copy" display="inline">
	</g>
	<g display="inline">
		<path fill="none" stroke="#000000" stroke-width="8" stroke-linecap="round" stroke-linejoin="round" stroke-miterlimit="10" d="
			M190.076,302.574c3.429,15.58,25.856,15.593,49.505,15.593c21.199,0,33.76-13.249,34.889-36.497"/>
		<path fill="none" stroke="#000000" stroke-width="8" stroke-linecap="round" stroke-linejoin="round" stroke-miterlimit="10" d="
			M282.092,181.395c0.594-0.182,0.963-0.507,0.963-1.035v-0.003c0-23.962-23.352-44.979-49.967-44.979
			c-28.15,0-54.973,0-62.733,11.948c-0.117,0.181-0.236,0.565-0.356,1.087"/>
		<path fill="none" stroke="#000000" stroke-width="8" stroke-linecap="round" stroke-linejoin="round" stroke-miterlimit="10" d="
			M190.076,302.574c30.815-2.342,60.321-11.234,84.394-20.904"/>
		<path fill="none" stroke="#000000" stroke-width="8" stroke-linecap="round" stroke-linejoin="round" stroke-miterlimit="10" d="
			M282.092,181.395c19.323,10.87,34.856,21.854,44.25,28.499c0.977,0.688,1.863,1.333,2.695,1.905
			c6.051-5.566,17.102-14.959,23.25-18.044c3.447-1.722,6.729-2.598,9.732-2.598c8.119,0,12.494,6.219,12.494,12.063v59.983
			c0,5.844-4.375,12.064-12.494,12.064c-3.004,0-6.285-0.877-9.732-2.607c-6.188-3.091-17.348-12.596-23.369-18.154
			c-7.658,4.718-27.699,16.417-54.449,27.163"/>
		<path fill="none" stroke="#000000" stroke-width="8" stroke-linecap="round" stroke-linejoin="round" stroke-miterlimit="10" d="
			M282.092,181.395c-29.702-16.709-68.362-33.15-107.48-33.15c-1.535,0-3.073,0.06-4.613,0.168"/>
		<path fill="none" stroke="#000000" stroke-width="8" stroke-linecap="round" stroke-linejoin="round" stroke-miterlimit="10" d="
			M169.999,148.412c-44.89,3.172-90.971,51.448-90.971,79.464c0,28.979,42.662,75.3,95.584,75.3c5.179,0,10.339-0.213,15.464-0.602"
			/>
		<path fill="none" stroke="#000000" stroke-width="8" stroke-linecap="round" stroke-linejoin="round" stroke-miterlimit="10" d="
			M155.271,273.187c40.032-42.969,0-89.956,0-89.956"/>
		<path d="M134.568,218.281c0-5.484-4.446-9.931-9.931-9.931c-5.485,0-9.932,4.446-9.932,9.931c0,5.481,4.446,9.931,9.932,9.931
			C130.122,228.212,134.568,223.763,134.568,218.281z"/>
	</g>
</g>
<g id="pivot">
	<circle fill="none" cx="221.252" cy="320.68" r="14.133"/>
</g>
</svg>
