<?xml version="1.0" encoding="utf-8"?>
<!-- Generator: Adobe Illustrator 16.0.0, SVG Export Plug-In . SVG Version: 6.00 Build 0)  -->
<!DOCTYPE svg PUBLIC "-//W3C//DTD SVG 1.1//EN" "http://www.w3.org/Graphics/SVG/1.1/DTD/svg11.dtd">
<svg version="1.1" xmlns="http://www.w3.org/2000/svg" xmlns:xlink="http://www.w3.org/1999/xlink" x="0px" y="0px"
	 width="453.543px" height="453.543px" viewBox="0 0 453.543 453.543" enable-background="new 0 0 453.543 453.543"
	 xml:space="preserve">
<g id="kvadrat">
</g>
<g id="bg" display="none">
	<rect x="-2363.667" y="-12480.53" display="inline" width="15266.867" height="13678.951"/>
</g>
<g id="barvno" display="none">
	<g id="rdeča7bela" display="inline">
	</g>
	<g display="inline">
		<g>
			
				<path fill="#93C01F" stroke="#000000" stroke-width="8" stroke-linecap="round" stroke-linejoin="round" stroke-miterlimit="10" d="
				M105.477,159.386c0-29.649,24.256-53.908,53.908-53.908c25.336,0,46.629,17.251,52.291,41.239c9.975-1.08,19.945-1.08,29.916,0
				c5.932-23.988,27.229-41.239,52.564-41.239c29.65,0,53.908,24.259,53.908,53.908c0,14.286-5.662,27.763-15.637,38.004
				c10.246,15.097,15.637,32.077,15.637,49.598c0,55.798-54.449,101.077-121.297,101.077c-66.842,0-121.291-45.279-121.291-101.077
				c0-17.521,5.387-34.501,15.627-49.598C111.135,187.148,105.477,173.672,105.477,159.386z"/>
			
				<circle fill="#FFFFFF" stroke="#000000" stroke-width="8" stroke-linecap="round" stroke-linejoin="round" stroke-miterlimit="10" cx="293.856" cy="159.513" r="22.1"/>
			<circle cx="284.89" cy="168.881" r="12.817"/>
			
				<circle fill="#FFFFFF" stroke="#000000" stroke-width="8" stroke-linecap="round" stroke-linejoin="round" stroke-miterlimit="10" cx="162.093" cy="159.513" r="22.099"/>
			<circle cx="153.128" cy="168.881" r="12.817"/>
			<path fill="none" stroke="#000000" stroke-width="8" stroke-linecap="round" stroke-linejoin="round" stroke-miterlimit="10" d="
				M292.958,267.094c-48.193,35.066-108.531,19.886-130.865,0"/>
		</g>
	</g>
	
		<rect x="-2873.953" y="-12900.539" display="inline" fill="none" stroke="#000000" stroke-miterlimit="10" width="16736" height="13952"/>
</g>
<g id="sivinsko">
	<g id="rdeča7bela_copy_3">
	</g>
	<g>
		<g>
			<g>
				<path fill="#A1A1A1" d="M105.477,159.386c0-29.649,24.256-53.908,53.908-53.908c25.336,0,46.629,17.251,52.291,41.239
					c9.975-1.08,19.945-1.08,29.916,0c5.932-23.988,27.229-41.239,52.564-41.239c29.65,0,53.908,24.259,53.908,53.908
					c0,14.286-5.662,27.763-15.637,38.004c10.246,15.097,15.637,32.077,15.637,49.598c0,55.798-54.449,101.077-121.297,101.077
					c-66.842,0-121.291-45.279-121.291-101.077c0-17.521,5.387-34.501,15.627-49.598
					C111.135,187.148,105.477,173.672,105.477,159.386z"/>
				<path d="M226.768,352.064c-69.086,0-125.291-47.138-125.291-105.077c0-17.16,5.028-34.098,14.571-49.179
					c-9.419-10.757-14.571-24.28-14.571-38.423c0-31.931,25.978-57.908,57.908-57.908c25.741,0,47.992,16.661,55.277,40.934
					c7.99-0.671,15.99-0.67,23.978,0.003c7.534-24.271,29.889-40.937,55.517-40.937c31.931,0,57.908,25.978,57.908,57.908
					c0,14.143-5.154,27.666-14.58,38.423c9.548,15.082,14.58,32.019,14.58,49.179C352.065,304.927,295.857,352.064,226.768,352.064z
					 M159.385,109.478c-27.52,0-49.908,22.389-49.908,49.908c0,13.106,5.147,25.612,14.493,35.214
					c1.324,1.36,1.51,3.464,0.444,5.035c-9.772,14.407-14.938,30.781-14.938,47.353c0,53.528,52.616,97.077,117.291,97.077
					c64.678,0,117.297-43.549,117.297-97.077c0-16.57-5.168-32.944-14.946-47.352c-1.067-1.571-0.881-3.677,0.444-5.037
					c9.352-9.602,14.502-22.107,14.502-35.213c0-27.52-22.389-49.908-49.908-49.908c-23.102,0-43.12,15.708-48.682,38.199
					c-0.48,1.943-2.325,3.229-4.313,3.017c-9.639-1.043-19.412-1.043-29.055,0c-2.006,0.223-3.86-1.093-4.324-3.058
					C202.48,125.169,182.578,109.478,159.385,109.478z"/>
			</g>
			<g>
				<circle fill="#FFFFFF" cx="293.856" cy="159.513" r="22.1"/>
				<path d="M293.854,185.612c-14.391,0-26.098-11.708-26.098-26.1c0-14.391,11.707-26.099,26.098-26.099
					c14.393,0,26.102,11.708,26.102,26.099C319.956,173.904,308.247,185.612,293.854,185.612z M293.854,141.414
					c-9.979,0-18.098,8.119-18.098,18.099c0,9.98,8.119,18.1,18.098,18.1c9.981,0,18.102-8.119,18.102-18.1
					C311.956,149.533,303.835,141.414,293.854,141.414z"/>
			</g>
			<circle cx="284.89" cy="168.881" r="12.817"/>
			<g>
				<circle fill="#FFFFFF" cx="162.093" cy="159.513" r="22.099"/>
				<path d="M162.092,185.612c-14.391,0-26.098-11.708-26.098-26.1c0-14.391,11.707-26.099,26.098-26.099
					c14.392,0,26.1,11.708,26.1,26.099C188.192,173.904,176.484,185.612,162.092,185.612z M162.092,141.414
					c-9.979,0-18.098,8.119-18.098,18.099c0,9.98,8.119,18.1,18.098,18.1c9.98,0,18.1-8.119,18.1-18.1
					C180.192,149.533,172.073,141.414,162.092,141.414z"/>
			</g>
			<circle cx="153.128" cy="168.881" r="12.817"/>
			<path d="M227.45,292.083c-3.521,0-6.846-0.149-9.938-0.395c-22.897-1.818-45.152-10.098-58.079-21.607
				c-1.649-1.469-1.796-3.997-0.327-5.647c1.469-1.65,3.997-1.796,5.647-0.327c19.066,16.976,77.403,35.005,125.852-0.247
				c1.786-1.3,4.288-0.906,5.588,0.881c1.3,1.786,0.905,4.288-0.881,5.588C271.486,287.664,246.61,292.083,227.45,292.083z"/>
		</g>
	</g>
	<path d="M13862.547,1051.961h-16737v-13953h16737V1051.961z M-2873.953,1050.961h16736l-0.5-13951h-16735.5l0.5,13951H-2873.953z"
		/>
</g>
<g id="linijsko" display="none">
	<g id="rdeča7bela_copy" display="inline">
	</g>
	<g display="inline">
		<g>
			<path fill="none" stroke="#000000" stroke-width="8" stroke-linecap="round" stroke-linejoin="round" stroke-miterlimit="10" d="
				M105.477,159.386c0-29.649,24.256-53.908,53.908-53.908c25.336,0,46.629,17.251,52.291,41.239c9.975-1.08,19.945-1.08,29.916,0
				c5.932-23.988,27.229-41.239,52.564-41.239c29.65,0,53.908,24.259,53.908,53.908c0,14.286-5.662,27.763-15.637,38.004
				c10.246,15.097,15.637,32.077,15.637,49.598c0,55.798-54.449,101.077-121.297,101.077c-66.842,0-121.291-45.279-121.291-101.077
				c0-17.521,5.387-34.501,15.627-49.598C111.135,187.148,105.477,173.672,105.477,159.386z"/>
			
				<circle fill="none" stroke="#000000" stroke-width="8" stroke-linecap="round" stroke-linejoin="round" stroke-miterlimit="10" cx="293.856" cy="159.513" r="22.1"/>
			<circle cx="284.89" cy="168.881" r="12.817"/>
			
				<circle fill="none" stroke="#000000" stroke-width="8" stroke-linecap="round" stroke-linejoin="round" stroke-miterlimit="10" cx="162.093" cy="159.513" r="22.099"/>
			<circle cx="153.128" cy="168.881" r="12.817"/>
			<path fill="none" stroke="#000000" stroke-width="8" stroke-linecap="round" stroke-linejoin="round" stroke-miterlimit="10" d="
				M292.958,267.094c-48.193,35.066-108.531,19.886-130.865,0"/>
		</g>
	</g>
</g>
<g id="pivot">
	<circle fill="none" cx="221.252" cy="350.251" r="14.133"/>
</g>
</svg>
