<?xml version="1.0" encoding="utf-8"?>
<!-- Generator: Adobe Illustrator 16.0.0, SVG Export Plug-In . SVG Version: 6.00 Build 0)  -->
<!DOCTYPE svg PUBLIC "-//W3C//DTD SVG 1.1//EN" "http://www.w3.org/Graphics/SVG/1.1/DTD/svg11.dtd">
<svg version="1.1" xmlns="http://www.w3.org/2000/svg" xmlns:xlink="http://www.w3.org/1999/xlink" x="0px" y="0px"
	 width="453.543px" height="453.543px" viewBox="0 0 453.543 453.543" enable-background="new 0 0 453.543 453.543"
	 xml:space="preserve">
<g id="kvadrat">
</g>
<g id="bg" display="none">
	<rect x="-832.959" y="-12480.53" display="inline" width="15266.867" height="13678.951"/>
</g>
<g id="barvno" display="none">
	<g id="rdeča7bela" display="inline">
	</g>
	<g display="inline">
		<g>
			
				<path fill="#93C01F" stroke="#000000" stroke-width="8" stroke-linecap="round" stroke-linejoin="round" stroke-miterlimit="10" d="
				M348.064,159.386c0-29.649-24.256-53.908-53.908-53.908c-25.336,0-46.629,17.251-52.291,41.239c-9.975-1.08-19.945-1.08-29.916,0
				c-5.932-23.988-27.229-41.239-52.564-41.239c-29.65,0-53.908,24.259-53.908,53.908c0,14.286,5.662,27.763,15.637,38.004
				c-10.246,15.097-15.637,32.077-15.637,49.598c0,55.798,54.449,101.077,121.297,101.077c66.844,0,121.291-45.279,121.291-101.077
				c0-17.521-5.387-34.501-15.627-49.598C342.406,187.148,348.064,173.672,348.064,159.386z"/>
			<g>
				
					<circle fill="#FFFFFF" stroke="#000000" stroke-width="8" stroke-linecap="round" stroke-linejoin="round" stroke-miterlimit="10" cx="179.687" cy="199.513" r="22.099"/>
				<circle cx="188.651" cy="208.881" r="12.817"/>
			</g>
			<g>
				
					<circle fill="#FFFFFF" stroke="#000000" stroke-width="8" stroke-linecap="round" stroke-linejoin="round" stroke-miterlimit="10" cx="271.491" cy="199.556" r="22.099"/>
				<circle cx="262.123" cy="208.521" r="12.817"/>
			</g>
			<path fill="none" stroke="#000000" stroke-width="8" stroke-linecap="round" stroke-linejoin="round" stroke-miterlimit="10" d="
				M160.584,267.094c48.193,35.066,108.531,19.886,130.865,0"/>
		</g>
	</g>
	
		<rect x="-1343.244" y="-12900.539" display="inline" fill="none" stroke="#000000" stroke-miterlimit="10" width="16736" height="13952"/>
</g>
<g id="sivinsko">
	<g id="rdeča7bela_copy_3">
	</g>
	<g>
		<g>
			<g>
				<path fill="#A1A1A1" d="M348.064,159.386c0-29.649-24.256-53.908-53.908-53.908c-25.336,0-46.629,17.251-52.291,41.239
					c-9.975-1.08-19.945-1.08-29.916,0c-5.932-23.988-27.229-41.239-52.564-41.239c-29.65,0-53.908,24.259-53.908,53.908
					c0,14.286,5.662,27.763,15.637,38.004c-10.246,15.097-15.637,32.077-15.637,49.598c0,55.798,54.449,101.077,121.297,101.077
					c66.844,0,121.291-45.279,121.291-101.077c0-17.521-5.387-34.501-15.627-49.598
					C342.406,187.148,348.064,173.672,348.064,159.386z"/>
				<path d="M226.773,352.064c-69.089,0-125.297-47.138-125.297-105.077c0-17.16,5.031-34.097,14.58-49.179
					c-9.425-10.757-14.58-24.28-14.58-38.423c0-31.931,25.978-57.908,57.908-57.908c25.628,0,47.983,16.666,55.517,40.937
					c7.987-0.674,15.987-0.675,23.978-0.003c7.286-24.272,29.536-40.934,55.277-40.934c31.931,0,57.908,25.978,57.908,57.908
					c0,14.143-5.152,27.666-14.571,38.423c9.542,15.081,14.571,32.019,14.571,49.179
					C352.064,304.927,295.859,352.064,226.773,352.064z M159.385,109.478c-27.52,0-49.908,22.389-49.908,49.908
					c0,13.105,5.15,25.611,14.502,35.213c1.325,1.36,1.511,3.466,0.444,5.037c-9.778,14.407-14.946,30.781-14.946,47.352
					c0,53.528,52.619,97.077,117.297,97.077c64.674,0,117.291-43.549,117.291-97.077c0-16.571-5.165-32.945-14.938-47.353
					c-1.065-1.571-0.88-3.675,0.444-5.035c9.346-9.602,14.493-22.107,14.493-35.214c0-27.52-22.389-49.908-49.908-49.908
					c-23.193,0-43.095,15.691-48.398,38.158c-0.463,1.965-2.318,3.277-4.324,3.058c-9.643-1.043-19.416-1.043-29.055,0
					c-1.99,0.219-3.833-1.072-4.313-3.017C202.505,125.186,182.486,109.478,159.385,109.478z"/>
			</g>
			<g>
				<g>
					<circle fill="#FFFFFF" cx="179.687" cy="199.513" r="22.099"/>
					<path d="M179.688,225.612c-14.392,0-26.1-11.708-26.1-26.1c0-14.391,11.708-26.099,26.1-26.099
						c14.39,0,26.098,11.708,26.098,26.099C205.785,213.904,194.078,225.612,179.688,225.612z M179.688,181.414
						c-9.98,0-18.1,8.119-18.1,18.099c0,9.98,8.12,18.1,18.1,18.1c9.979,0,18.098-8.119,18.098-18.1
						C197.785,189.533,189.667,181.414,179.688,181.414z"/>
				</g>
				<circle cx="188.651" cy="208.881" r="12.817"/>
			</g>
			<g>
				<g>
					<circle fill="#FFFFFF" cx="271.491" cy="199.556" r="22.099"/>
					<path d="M271.491,225.654c-14.392,0-26.1-11.707-26.1-26.098c0-14.392,11.708-26.1,26.1-26.1
						c14.391,0,26.098,11.708,26.098,26.1C297.589,213.947,285.882,225.654,271.491,225.654z M271.491,181.457
						c-9.98,0-18.1,8.119-18.1,18.1c0,9.979,8.12,18.098,18.1,18.098c9.979,0,18.098-8.118,18.098-18.098
						C289.589,189.576,281.471,181.457,271.491,181.457z"/>
				</g>
				<circle cx="262.123" cy="208.521" r="12.817"/>
			</g>
			<path d="M226.092,292.083c-19.161,0-44.035-4.418-67.861-21.755c-1.786-1.3-2.181-3.802-0.881-5.588s3.801-2.178,5.588-0.881
				c48.449,35.252,106.785,17.225,125.852,0.247c1.65-1.47,4.179-1.324,5.647,0.327c1.469,1.65,1.322,4.179-0.327,5.647
				c-12.927,11.51-35.182,19.789-58.079,21.607C232.939,291.934,229.611,292.083,226.092,292.083z"/>
		</g>
	</g>
	<path d="M15393.256,1051.961h-16737v-13953h16737V1051.961z M-1343.244,1050.961h16736l-0.5-13951h-16735.5l0.5,13951H-1343.244z"
		/>
</g>
<g id="linijsko" display="none">
	<g id="rdeča7bela_copy" display="inline">
	</g>
	<g display="inline">
		<g>
			<path fill="none" stroke="#000000" stroke-width="8" stroke-linecap="round" stroke-linejoin="round" stroke-miterlimit="10" d="
				M348.064,159.386c0-29.649-24.256-53.908-53.908-53.908c-25.336,0-46.629,17.251-52.291,41.239c-9.975-1.08-19.945-1.08-29.916,0
				c-5.932-23.988-27.229-41.239-52.564-41.239c-29.65,0-53.908,24.259-53.908,53.908c0,14.286,5.662,27.763,15.637,38.004
				c-10.246,15.097-15.637,32.077-15.637,49.598c0,55.798,54.449,101.077,121.297,101.077c66.844,0,121.291-45.279,121.291-101.077
				c0-17.521-5.387-34.501-15.627-49.598C342.406,187.148,348.064,173.672,348.064,159.386z"/>
			<g>
				
					<circle fill="none" stroke="#000000" stroke-width="8" stroke-linecap="round" stroke-linejoin="round" stroke-miterlimit="10" cx="179.687" cy="199.513" r="22.099"/>
				<circle cx="188.651" cy="208.881" r="12.817"/>
			</g>
			<g>
				
					<circle fill="none" stroke="#000000" stroke-width="8" stroke-linecap="round" stroke-linejoin="round" stroke-miterlimit="10" cx="271.491" cy="199.556" r="22.099"/>
				<circle cx="262.123" cy="208.521" r="12.817"/>
			</g>
			<path fill="none" stroke="#000000" stroke-width="8" stroke-linecap="round" stroke-linejoin="round" stroke-miterlimit="10" d="
				M160.584,267.094c48.193,35.066,108.531,19.886,130.865,0"/>
		</g>
	</g>
</g>
<g id="pivot">
	<circle fill="none" cx="223.748" cy="350.251" r="14.132"/>
</g>
</svg>
