<?xml version="1.0" encoding="utf-8"?>
<!-- Generator: Adobe Illustrator 16.0.0, SVG Export Plug-In . SVG Version: 6.00 Build 0)  -->
<!DOCTYPE svg PUBLIC "-//W3C//DTD SVG 1.1//EN" "http://www.w3.org/Graphics/SVG/1.1/DTD/svg11.dtd">
<svg version="1.1" xmlns="http://www.w3.org/2000/svg" xmlns:xlink="http://www.w3.org/1999/xlink" x="0px" y="0px"
	 width="453.543px" height="453.543px" viewBox="0 0 453.543 453.543" enable-background="new 0 0 453.543 453.543"
	 xml:space="preserve">
<g id="kvadrat">
</g>
<g id="bg" display="none">
	<rect x="-3384.14" y="-1255.332" display="inline" width="15266.867" height="13678.951"/>
</g>
<g id="color" display="none">
	<g id="rdeča7bela" display="inline">
	</g>
	<g display="inline">
		
			<path fill="#C8C8C8" stroke="#000000" stroke-width="8" stroke-linecap="round" stroke-linejoin="round" stroke-miterlimit="10" d="
			M310.318,209.315c0,0,8.861-16.053,12.91-23.661c16.409-28.942-14.83-58.419-21.807-92.417l-17.586,12.57
			c-10.84,18.147-19.45,39.993-22.021,65.624c-10.763-3.943-22.387-6.107-34.517-6.107c-0.105,0-0.212,0.002-0.316,0.002
			s-0.211-0.002-0.315-0.002c-12.131,0-23.754,2.164-34.518,6.107c-2.57-25.631-11.6-48.103-22.439-66.248l-35.339,32.838
			c-6.977,33.998-9.358,25.883-3.636,47.634c4.048,7.608,12.909,23.661,12.909,23.661c-10.915,16.059-17.297,35.447-17.297,56.326
			c0,55.404,44.914,100.318,100.317,100.318c0.106,0,0.211-0.004,0.316-0.004s0.21,0.004,0.316,0.004
			c55.403,0,100.316-44.914,100.316-100.318C327.615,244.762,321.233,225.375,310.318,209.315z"/>
		<g>
			
				<path fill="#FFFFFF" stroke="#000000" stroke-width="6" stroke-linecap="round" stroke-linejoin="round" stroke-miterlimit="10" d="
				M252.483,241.255c-6.729,0-12.184-8.208-12.184-18.334c0-10.128,5.452-18.337,12.182-18.337s12.183,8.208,12.183,18.339
				C264.664,233.048,259.21,241.257,252.483,241.255z"/>
			<circle cx="252.481" cy="234.71" r="5.646"/>
		</g>
		<g>
			
				<path fill="#FFFFFF" stroke="#000000" stroke-width="6" stroke-linecap="round" stroke-linejoin="round" stroke-miterlimit="10" d="
				M201.482,241.255c-6.729,0-12.184-8.208-12.184-18.334c0-10.128,5.455-18.337,12.183-18.337c6.729,0,12.183,8.208,12.183,18.339
				C213.664,233.048,208.21,241.257,201.482,241.255z"/>
			<circle cx="201.481" cy="234.71" r="5.646"/>
		</g>
		<g>
			
				<rect x="211.139" y="296.017" fill="#FFFFFF" stroke="#000000" stroke-width="6" stroke-linecap="round" stroke-linejoin="round" stroke-miterlimit="10" width="15.842" height="39.604"/>
			
				<rect x="226.981" y="296.017" fill="#FFFFFF" stroke="#000000" stroke-width="6" stroke-linecap="round" stroke-linejoin="round" stroke-miterlimit="10" width="15.842" height="39.604"/>
		</g>
		
			<ellipse fill="#C8C8C8" stroke="#000000" stroke-width="6" stroke-linecap="round" stroke-linejoin="round" stroke-miterlimit="10" cx="201.037" cy="291.794" rx="25.174" ry="18.009"/>
		
			<ellipse fill="#C8C8C8" stroke="#000000" stroke-width="6" stroke-linecap="round" stroke-linejoin="round" stroke-miterlimit="10" cx="252.925" cy="291.794" rx="25.173" ry="18.009"/>
		
			<path fill="#F4AFB4" stroke="#000000" stroke-width="8" stroke-linecap="round" stroke-linejoin="round" stroke-miterlimit="10" d="
			M230.574,286.682c3.226-0.805,6.288-2.692,8.78-5.691c6.803-8.187,1.238-14.89-12.371-14.89c-13.61,0-19.18,6.703-12.373,14.89
			c2.487,3,5.558,4.886,8.779,5.691H230.574z"/>
		<g>
			
				<line fill="none" stroke="#000000" stroke-width="4" stroke-linecap="round" stroke-linejoin="round" stroke-miterlimit="10" x1="200.111" y1="293.583" x2="99.437" y2="293.583"/>
			
				<line fill="none" stroke="#000000" stroke-width="4" stroke-linecap="round" stroke-linejoin="round" stroke-miterlimit="10" x1="200.111" y1="302.383" x2="103.158" y2="314.709"/>
			
				<line fill="none" stroke="#000000" stroke-width="4" stroke-linecap="round" stroke-linejoin="round" stroke-miterlimit="10" x1="253.852" y1="293.583" x2="354.526" y2="293.583"/>
			
				<line fill="none" stroke="#000000" stroke-width="4" stroke-linecap="round" stroke-linejoin="round" stroke-miterlimit="10" x1="200.111" y1="283.487" x2="99.437" y2="270.695"/>
			
				<line fill="none" stroke="#000000" stroke-width="4" stroke-linecap="round" stroke-linejoin="round" stroke-miterlimit="10" x1="253.852" y1="283.487" x2="354.526" y2="270.695"/>
			
				<line fill="none" stroke="#000000" stroke-width="4" stroke-linecap="round" stroke-linejoin="round" stroke-miterlimit="10" x1="253.852" y1="302.383" x2="350.805" y2="314.709"/>
		</g>
		
			<path fill="#C8C8C8" stroke="#000000" stroke-width="8" stroke-linecap="round" stroke-linejoin="round" stroke-miterlimit="10" d="
			M112.508,93.267c0.93-1.528,1.883-3.049,2.872-4.552c20.643-2.722,34.395-1.701,54.328,16.468
			c-6.978,33.998-22.807,61.683-38.974,80.473c-21.53,25.021-43.659,37.287-46.282,38.689l-0.119,0.246c0,0-0.004-0.063-0.014-0.177
			c-0.084,0.044-0.129,0.07-0.129,0.07l0.117-0.247C83.878,218.69,79.193,148.095,112.508,93.267z"/>
		
			<path fill="#C8C8C8" stroke="#000000" stroke-width="8" stroke-linecap="round" stroke-linejoin="round" stroke-miterlimit="10" d="
			M341.036,93.891c-0.931-1.528-1.882-3.049-2.872-4.552c-20.643-2.721-34.395-1.701-54.328,16.468
			c6.977,33.998,22.806,61.683,38.972,80.473c21.53,25.021,43.659,37.287,46.283,38.69l0.121,0.246c0,0,0.003-0.063,0.013-0.177
			c0.084,0.044,0.129,0.07,0.129,0.07l-0.117-0.247C369.665,219.314,374.349,148.72,341.036,93.891z"/>
	</g>
	
		<rect x="-3894.425" y="-1675.34" display="inline" fill="none" stroke="#000000" stroke-miterlimit="10" width="16736" height="13952"/>
</g>
<g id="cb_1_">
	<g id="rdeča7bela_copy_3">
	</g>
	<g>
		<g>
			<path fill="#C8C8C8" d="M310.318,209.315c0,0,8.861-16.053,12.91-23.661c16.409-28.942-14.83-58.419-21.807-92.417l-17.586,12.57
				c-10.84,18.147-19.45,39.993-22.021,65.624c-10.763-3.943-22.387-6.107-34.517-6.107c-0.105,0-0.212,0.002-0.316,0.002
				s-0.211-0.002-0.315-0.002c-12.131,0-23.754,2.164-34.518,6.107c-2.57-25.631-11.6-48.103-22.439-66.248l-35.339,32.838
				c-6.977,33.998-9.358,25.883-3.636,47.634c4.048,7.608,12.909,23.661,12.909,23.661c-10.915,16.059-17.297,35.447-17.297,56.326
				c0,55.404,44.914,100.318,100.317,100.318c0.106,0,0.211-0.004,0.316-0.004s0.21,0.004,0.316,0.004
				c55.403,0,100.316-44.914,100.316-100.318C327.615,244.762,321.233,225.375,310.318,209.315z"/>
			<path d="M227.296,369.959l-0.399-0.002l-0.233,0.002c-57.521,0-104.317-46.797-104.317-104.318
				c0-20.178,5.74-39.664,16.625-56.516c-2.55-4.631-8.63-15.693-11.768-21.591c-0.146-0.273-0.258-0.562-0.337-0.861
				c-4.204-15.979-4.246-17.073-1.111-29.266c1.157-4.5,2.741-10.662,4.696-20.19c0.167-0.815,0.585-1.559,1.196-2.126
				l35.339-32.838c0.884-0.822,2.091-1.2,3.288-1.03c1.195,0.17,2.25,0.872,2.869,1.909c11.985,20.063,19.511,41.208,22.404,62.924
				c10.053-3.142,20.498-4.732,31.119-4.732l0.315,0.002l0.316-0.002c10.621,0,21.064,1.589,31.116,4.731
				c2.88-21.739,10.266-42.674,21.988-62.299c0.283-0.473,0.66-0.883,1.108-1.203l17.586-12.569c1.102-0.788,2.527-0.964,3.787-0.47
				c1.261,0.495,2.185,1.593,2.458,2.92c2.398,11.689,7.897,23.052,13.214,34.04c9.688,20.02,19.704,40.722,8.181,61.107
				c-3.146,5.909-9.201,16.925-11.744,21.544c10.885,16.854,16.625,36.34,16.623,56.517
				C331.613,323.162,284.817,369.959,227.296,369.959z M226.98,361.955l0.316,0.004c53.109,0,96.316-43.208,96.316-96.318
				c0.002-19.394-5.739-38.093-16.603-54.077c-0.847-1.246-0.922-2.863-0.194-4.182c0.088-0.16,8.893-16.113,12.881-23.607
				c0.017-0.031,0.034-0.063,0.052-0.094c9.496-16.749,1.205-33.883-8.396-53.724c-4.666-9.642-9.465-19.56-12.413-30.03
				l-12.095,8.645c-11.754,19.899-18.836,41.177-21.051,63.258c-0.124,1.23-0.809,2.334-1.856,2.99
				c-1.048,0.657-2.34,0.792-3.5,0.367c-10.619-3.891-21.769-5.863-33.141-5.863l-0.316,0.002l-0.315-0.002
				c-11.372,0-22.522,1.973-33.142,5.863c-1.161,0.425-2.453,0.29-3.5-0.367c-1.048-0.656-1.732-1.76-1.856-2.99
				c-2.08-20.741-8.605-41.005-19.41-60.303l-30.729,28.555c-1.875,9.011-3.399,14.938-4.525,19.318
				c-2.71,10.54-2.738,10.65,0.98,24.787c4.081,7.649,12.575,23.039,12.662,23.196c0.728,1.319,0.653,2.936-0.194,4.182
				c-10.863,15.983-16.605,34.682-16.605,54.077c0,53.11,43.208,96.318,96.317,96.318L226.98,361.955z"/>
		</g>
		<g>
			<g>
				<path fill="#FFFFFF" d="M252.483,241.255c-6.729,0-12.184-8.208-12.184-18.334c0-10.128,5.452-18.337,12.182-18.337
					s12.183,8.208,12.183,18.339C264.664,233.048,259.21,241.257,252.483,241.255z"/>
				<path d="M252.485,244.255c0,0-0.003,0-0.003,0c-8.513,0-15.183-9.371-15.183-21.334c0-11.965,6.668-21.337,15.182-21.337
					c8.514,0,15.183,9.373,15.183,21.339C267.664,234.885,260.997,244.255,252.485,244.255z M252.481,207.584
					c-4.977,0-9.182,7.023-9.182,15.337c0,8.312,4.206,15.334,9.184,15.334h0.002c4.975,0,9.178-7.021,9.178-15.332
					C261.664,214.609,257.458,207.584,252.481,207.584z"/>
			</g>
			<circle cx="252.481" cy="234.71" r="5.646"/>
		</g>
		<g>
			<g>
				<path fill="#FFFFFF" d="M201.482,241.255c-6.729,0-12.184-8.208-12.184-18.334c0-10.128,5.455-18.337,12.183-18.337
					c6.729,0,12.183,8.208,12.183,18.339C213.664,233.048,208.21,241.257,201.482,241.255z"/>
				<path d="M201.484,244.255c0,0-0.003,0-0.003,0c-8.513,0-15.183-9.371-15.183-21.334c0-11.965,6.669-21.337,15.183-21.337
					s15.183,9.373,15.183,21.339C216.664,234.885,209.996,244.255,201.484,244.255z M201.481,207.584
					c-4.978,0-9.183,7.023-9.183,15.337c0,8.312,4.206,15.334,9.184,15.334h0.002c4.976,0,9.179-7.021,9.179-15.332
					C210.664,214.609,206.458,207.584,201.481,207.584z"/>
			</g>
			<circle cx="201.481" cy="234.71" r="5.646"/>
		</g>
		<g>
			<g>
				<rect x="211.139" y="296.017" fill="#FFFFFF" width="15.842" height="39.604"/>
				<path d="M226.981,338.62h-15.842c-1.657,0-3-1.343-3-3v-39.604c0-1.657,1.343-3,3-3h15.842c1.657,0,3,1.343,3,3v39.604
					C229.981,337.277,228.638,338.62,226.981,338.62z M214.139,332.62h9.842v-33.604h-9.842V332.62z"/>
			</g>
			<g>
				<rect x="226.981" y="296.017" fill="#FFFFFF" width="15.842" height="39.604"/>
				<path d="M242.823,338.62h-15.842c-1.657,0-3-1.343-3-3v-39.604c0-1.657,1.343-3,3-3h15.842c1.657,0,3,1.343,3,3v39.604
					C245.823,337.277,244.479,338.62,242.823,338.62z M229.981,332.62h9.842v-33.604h-9.842V332.62z"/>
			</g>
		</g>
		<g>
			<ellipse fill="#C8C8C8" cx="201.037" cy="291.794" rx="25.174" ry="18.009"/>
			<path d="M201.037,312.803c-15.535,0-28.173-9.425-28.173-21.009c0-11.584,12.638-21.009,28.173-21.009
				c15.535,0,28.174,9.425,28.174,21.009C229.21,303.378,216.572,312.803,201.037,312.803z M201.037,276.785
				c-12.226,0-22.173,6.733-22.173,15.009c0,8.276,9.947,15.009,22.173,15.009c12.227,0,22.174-6.733,22.174-15.009
				C223.21,283.518,213.263,276.785,201.037,276.785z"/>
		</g>
		<g>
			<ellipse fill="#C8C8C8" cx="252.925" cy="291.794" rx="25.173" ry="18.009"/>
			<path d="M252.925,312.803c-15.535,0-28.174-9.425-28.174-21.009c0-11.584,12.639-21.009,28.174-21.009
				c15.535,0,28.173,9.425,28.173,21.009C281.098,303.378,268.46,312.803,252.925,312.803z M252.925,276.785
				c-12.227,0-22.174,6.733-22.174,15.009c0,8.276,9.947,15.009,22.174,15.009c12.226,0,22.173-6.733,22.173-15.009
				C275.098,283.518,265.151,276.785,252.925,276.785z"/>
		</g>
		<g>
			<path fill="#C4C4C4" d="M230.574,286.682c3.226-0.805,6.288-2.692,8.78-5.691c6.803-8.187,1.238-14.89-12.371-14.89
				c-13.61,0-19.18,6.703-12.373,14.89c2.487,3,5.558,4.886,8.779,5.691H230.574z"/>
			<path d="M230.574,290.682h-7.185c-0.327,0-0.653-0.04-0.97-0.12c-4.183-1.045-7.948-3.472-10.889-7.019
				c-5.103-6.137-4.001-11.027-2.891-13.395c2.434-5.19,8.949-8.048,18.343-8.048c9.391,0,15.904,2.857,18.339,8.046
				c1.111,2.368,2.213,7.257-2.891,13.4c-2.948,3.548-6.713,5.974-10.888,7.016C231.226,290.642,230.9,290.682,230.574,290.682z
				 M223.919,282.682h6.124c2.343-0.687,4.49-2.148,6.234-4.248c0.787-0.947,2.538-3.32,1.802-4.889
				c-0.804-1.714-4.547-3.444-11.096-3.444c-6.551,0-10.296,1.73-11.1,3.446c-0.736,1.568,1.016,3.939,1.803,4.887
				C219.426,280.532,221.573,281.993,223.919,282.682z"/>
		</g>
		<g>
			<path d="M200.111,295.583H99.437c-1.104,0-2-0.896-2-2s0.896-2,2-2h100.674c1.104,0,2,0.896,2,2S201.215,295.583,200.111,295.583
				z"/>
			<path d="M103.155,316.709c-0.992,0-1.853-0.738-1.981-1.748c-0.14-1.096,0.636-2.097,1.731-2.236l96.953-12.326
				c1.101-0.137,2.097,0.637,2.236,1.732c0.14,1.096-0.636,2.097-1.731,2.236l-96.953,12.325
				C103.324,316.704,103.239,316.709,103.155,316.709z"/>
			<path d="M354.526,295.583H253.852c-1.104,0-2-0.896-2-2s0.896-2,2-2h100.674c1.104,0,2,0.896,2,2S355.63,295.583,354.526,295.583
				z"/>
			<path d="M200.113,285.488c-0.084,0-0.169-0.006-0.254-0.017L99.185,272.679c-1.096-0.139-1.871-1.14-1.732-2.236
				c0.139-1.095,1.142-1.868,2.236-1.731l100.674,12.792c1.096,0.139,1.871,1.14,1.732,2.236
				C201.966,284.75,201.105,285.488,200.113,285.488z"/>
			<path d="M253.85,285.488c-0.992,0-1.853-0.738-1.981-1.748c-0.139-1.096,0.636-2.097,1.732-2.236l100.674-12.792
				c1.094-0.137,2.096,0.636,2.236,1.731c0.139,1.096-0.636,2.097-1.732,2.236l-100.674,12.792
				C254.019,285.482,253.934,285.488,253.85,285.488z"/>
			<path d="M350.808,316.709c-0.084,0-0.169-0.006-0.255-0.017L253.6,304.368c-1.096-0.14-1.871-1.141-1.731-2.236
				c0.139-1.096,1.139-1.869,2.236-1.732l96.953,12.326c1.096,0.139,1.871,1.141,1.731,2.236
				C352.661,315.971,351.8,316.709,350.808,316.709z"/>
		</g>
		<g>
			<path fill="#C8C8C8" d="M112.508,93.267c0.93-1.528,1.883-3.049,2.872-4.552c20.643-2.722,34.395-1.701,54.328,16.468
				c-6.978,33.998-22.807,61.683-38.974,80.473c-21.53,25.021-43.659,37.287-46.282,38.689l-0.119,0.246
				c0,0-0.004-0.063-0.014-0.177c-0.084,0.044-0.129,0.07-0.129,0.07l0.117-0.247C83.878,218.69,79.193,148.095,112.508,93.267z"/>
			<path d="M84.335,228.591c-0.256,0-0.515-0.024-0.774-0.075c-0.77-0.151-1.454-0.519-1.991-1.033
				c-0.03-0.026-0.059-0.053-0.088-0.08c-1.021-0.951-1.465-2.336-1.22-3.66c-0.759-10.928-3.931-78.64,28.829-132.554
				c1.042-1.712,2.006-3.241,2.949-4.674c0.638-0.97,1.667-1.615,2.818-1.767c6.108-0.806,10.724-1.165,14.966-1.165
				c15.717,0,28.053,5.401,42.58,18.642c1.042,0.95,1.507,2.379,1.224,3.761c-8.431,41.079-28.592,69.182-39.86,82.278
				c-20.534,23.863-41.717,36.433-46.609,39.16C86.414,228.166,85.399,228.591,84.335,228.591z M117.728,92.448
				c-0.579,0.908-1.175,1.867-1.802,2.897c-27.704,45.594-28.521,103.257-27.938,122.277c8.183-5.147,24.083-16.408,39.715-34.576
				c10.556-12.269,29.287-38.336,37.612-76.427c-14.188-12.431-24.504-15.036-35.492-15.036
				C126.366,91.584,122.58,91.853,117.728,92.448z"/>
		</g>
		<g>
			<path fill="#C8C8C8" d="M341.036,93.891c-0.931-1.528-1.882-3.049-2.872-4.552c-20.643-2.721-34.395-1.701-54.328,16.468
				c6.977,33.998,22.806,61.683,38.972,80.473c21.53,25.021,43.659,37.287,46.283,38.69l0.121,0.246c0,0,0.003-0.063,0.013-0.177
				c0.084,0.044,0.129,0.07,0.129,0.07l-0.117-0.247C369.665,219.314,374.349,148.72,341.036,93.891z"/>
			<path d="M369.204,229.204c-1.057,0-2.066-0.417-2.808-1.148c-4.875-2.716-26.073-15.287-46.621-39.167
				c-11.268-13.096-31.428-41.201-39.858-82.278c-0.283-1.382,0.182-2.811,1.224-3.761c14.527-13.241,26.863-18.642,42.581-18.642
				c4.241,0,8.857,0.359,14.965,1.164c1.151,0.152,2.179,0.796,2.817,1.766c0.918,1.393,1.882,2.921,2.948,4.672
				c32.746,53.896,29.589,121.608,28.831,132.552c0.252,1.327-0.182,2.723-1.205,3.674c-0.188,0.175-0.39,0.33-0.602,0.462
				c-0.428,0.295-0.917,0.51-1.448,0.62C369.753,229.176,369.477,229.204,369.204,229.204z M288.229,107.245
				c8.324,38.088,27.054,64.157,37.61,76.426c15.633,18.168,31.534,29.429,39.716,34.576c0.58-19.023-0.243-76.696-27.938-122.279
				c-0.635-1.043-1.232-2.002-1.801-2.896c-4.852-0.595-8.638-0.863-12.094-0.863C312.733,92.208,302.417,94.813,288.229,107.245z"
				/>
		</g>
	</g>
	<path d="M12842.074,12277.16h-16737v-13953h16737V12277.16z M-3894.425,12276.16h16736l-0.5-13951h-16735.5l0.5,13951H-3894.425z"
		/>
</g>
<g id="cb" display="none">
	<g id="rdeča7bela_copy" display="inline">
	</g>
	<g display="inline">
		<path fill="none" stroke="#000000" stroke-width="6" stroke-linecap="round" stroke-linejoin="round" stroke-miterlimit="10" d="
			M252.483,241.255c-6.729,0-12.184-8.208-12.184-18.334c0-10.128,5.452-18.337,12.182-18.337s12.183,8.208,12.183,18.339
			C264.664,233.048,259.21,241.257,252.483,241.255z"/>
		<circle cx="252.481" cy="234.71" r="5.646"/>
		<path fill="none" stroke="#000000" stroke-width="6" stroke-linecap="round" stroke-linejoin="round" stroke-miterlimit="10" d="
			M201.482,241.255c-6.729,0-12.184-8.208-12.184-18.334c0-10.128,5.455-18.337,12.183-18.337c6.729,0,12.183,8.208,12.183,18.339
			C213.664,233.048,208.21,241.257,201.482,241.255z"/>
		<circle cx="201.481" cy="234.71" r="5.646"/>
		<g>
			
				<line fill="none" stroke="#000000" stroke-width="6" stroke-miterlimit="10" x1="225.508" y1="296.017" x2="226.981" y2="296.017"/>
			<polyline fill="none" stroke="#000000" stroke-width="6" stroke-miterlimit="10" points="211.139,308.29 211.139,335.62 
				226.981,335.62 			"/>
			<polyline fill="none" stroke="#000000" stroke-width="6" stroke-miterlimit="10" points="242.823,308.29 242.823,335.62 
				226.981,335.62 			"/>
			
				<line fill="none" stroke="#000000" stroke-width="6" stroke-miterlimit="10" x1="226.981" y1="296.017" x2="228.454" y2="296.017"/>
			
				<line fill="none" stroke="#000000" stroke-width="6" stroke-miterlimit="10" x1="226.981" y1="335.62" x2="226.981" y2="296.017"/>
			<path fill="none" stroke="#000000" stroke-width="6" stroke-miterlimit="10" d="M225.508,296.017
				c-1.852,5.514-7.247,10.038-14.369,12.273"/>
			<path fill="none" stroke="#000000" stroke-width="6" stroke-miterlimit="10" d="M225.508,296.017
				c0.455-1.355,0.703-2.767,0.703-4.222c0-1.777-0.365-3.491-1.035-5.113"/>
			<path fill="none" stroke="#000000" stroke-width="6" stroke-miterlimit="10" d="M211.811,275.516
				c-3.267-1.108-6.918-1.73-10.774-1.73c-13.902,0-25.173,8.063-25.173,18.009c0,9.947,11.271,18.009,25.173,18.009
				c3.594,0,7.01-0.542,10.103-1.513"/>
			<path fill="none" stroke="#000000" stroke-width="6" stroke-miterlimit="10" d="M242.823,308.29
				c-7.122-2.235-12.516-6.759-14.369-12.273"/>
			<path fill="none" stroke="#000000" stroke-width="6" stroke-miterlimit="10" d="M228.787,286.682
				c-0.67,1.622-1.036,3.336-1.036,5.113c0,1.455,0.248,2.867,0.703,4.222"/>
			<path fill="none" stroke="#000000" stroke-width="6" stroke-miterlimit="10" d="M242.152,275.516
				c3.267-1.108,6.918-1.73,10.773-1.73c13.902,0,25.173,8.063,25.173,18.009c0,9.947-11.271,18.009-25.173,18.009
				c-3.594,0-7.01-0.542-10.103-1.514"/>
			<path fill="none" stroke="#000000" stroke-width="6" stroke-miterlimit="10" d="M225.175,286.682h-1.786
				c-3.222-0.805-6.292-2.692-8.779-5.691c-1.605-1.931-2.515-3.777-2.799-5.475"/>
			
				<line fill="none" stroke="#000000" stroke-width="6" stroke-miterlimit="10" x1="225.175" y1="286.682" x2="228.787" y2="286.682"/>
			<path fill="none" stroke="#000000" stroke-width="6" stroke-miterlimit="10" d="M242.152,275.516
				c-0.285,1.697-1.193,3.543-2.798,5.475c-2.492,3-5.555,4.886-8.78,5.691h-1.787"/>
			<path fill="none" stroke="#000000" stroke-width="6" stroke-miterlimit="10" d="M242.152,275.516
				c0.924-5.499-4.77-9.415-15.169-9.415c-10.4,0-16.098,3.916-15.172,9.415"/>
		</g>
		<g>
			
				<line fill="none" stroke="#000000" stroke-width="4" stroke-linecap="round" stroke-linejoin="round" stroke-miterlimit="10" x1="200.111" y1="293.583" x2="99.437" y2="293.583"/>
			
				<line fill="none" stroke="#000000" stroke-width="4" stroke-linecap="round" stroke-linejoin="round" stroke-miterlimit="10" x1="200.111" y1="302.383" x2="103.158" y2="314.709"/>
			
				<line fill="none" stroke="#000000" stroke-width="4" stroke-linecap="round" stroke-linejoin="round" stroke-miterlimit="10" x1="253.852" y1="293.583" x2="354.526" y2="293.583"/>
			
				<line fill="none" stroke="#000000" stroke-width="4" stroke-linecap="round" stroke-linejoin="round" stroke-miterlimit="10" x1="200.111" y1="283.487" x2="99.437" y2="270.695"/>
			
				<line fill="none" stroke="#000000" stroke-width="4" stroke-linecap="round" stroke-linejoin="round" stroke-miterlimit="10" x1="253.852" y1="283.487" x2="354.526" y2="270.695"/>
			
				<line fill="none" stroke="#000000" stroke-width="4" stroke-linecap="round" stroke-linejoin="round" stroke-miterlimit="10" x1="253.852" y1="302.383" x2="350.805" y2="314.709"/>
		</g>
		<g>
			
				<line fill="none" stroke="#000000" stroke-width="8" stroke-linecap="round" stroke-linejoin="round" stroke-miterlimit="10" x1="283.835" y1="105.807" x2="301.417" y2="93.24"/>
			<path fill="none" stroke="#000000" stroke-width="8" stroke-linecap="round" stroke-linejoin="round" stroke-miterlimit="10" d="
				M169.708,105.183c10.84,18.146,19.869,40.617,22.439,66.248c10.764-3.943,22.387-6.107,34.518-6.107
				c0.104,0,0.211,0.002,0.315,0.002s0.211-0.002,0.316-0.002c12.13,0,23.754,2.164,34.517,6.107
				c2.571-25.631,11.182-47.477,22.021-65.624"/>
			
				<polyline fill="none" stroke="#000000" stroke-width="8" stroke-linecap="round" stroke-linejoin="round" stroke-miterlimit="10" points="
				301.421,93.238 301.421,93.237 301.417,93.24 			"/>
			<path fill="none" stroke="#000000" stroke-width="8" stroke-linecap="round" stroke-linejoin="round" stroke-miterlimit="10" d="
				M130.735,185.656c4.048,7.609,12.908,23.659,12.908,23.659c-10.915,16.059-17.297,35.447-17.297,56.326
				c0,55.404,44.914,100.318,100.317,100.318c0.106,0,0.211-0.004,0.316-0.004s0.21,0.004,0.316,0.004
				c55.403,0,100.316-44.914,100.316-100.318c0.002-20.879-6.38-40.266-17.295-56.326c0,0,8.352-15.129,12.543-22.973"/>
			<path fill="none" stroke="#000000" stroke-width="8" stroke-linecap="round" stroke-linejoin="round" stroke-miterlimit="10" d="
				M130.735,185.656L130.735,185.656c16.167-18.79,31.996-46.475,38.974-80.473"/>
			<path fill="none" stroke="#000000" stroke-width="8" stroke-linecap="round" stroke-linejoin="round" stroke-miterlimit="10" d="
				M169.708,105.183c-19.934-18.169-33.686-19.19-54.328-16.468c-0.989,1.503-1.942,3.024-2.872,4.552
				c-33.315,54.829-28.63,125.424-28.2,130.971l-0.117,0.247c0,0,0.045-0.025,0.129-0.07c0.01,0.114,0.014,0.177,0.014,0.177
				l0.119-0.246c2.623-1.402,24.752-13.668,46.282-38.689"/>
			<path fill="none" stroke="#000000" stroke-width="8" stroke-linecap="round" stroke-linejoin="round" stroke-miterlimit="10" d="
				M283.835,105.807c6.977,33.998,22.806,61.683,38.972,80.473c0.018,0.021,0.036,0.041,0.054,0.062"/>
			
				<line fill="none" stroke="#000000" stroke-width="8" stroke-linecap="round" stroke-linejoin="round" stroke-miterlimit="10" x1="301.417" y1="93.24" x2="301.421" y2="93.238"/>
			<path fill="none" stroke="#000000" stroke-width="8" stroke-linecap="round" stroke-linejoin="round" stroke-miterlimit="10" d="
				M301.417,93.24c-5.515,2.741-11.235,6.782-17.582,12.567"/>
			<path fill="none" stroke="#000000" stroke-width="8" stroke-linecap="round" stroke-linejoin="round" stroke-miterlimit="10" d="
				M322.861,186.342c21.513,24.979,43.607,37.226,46.229,38.628l0.121,0.246c0,0,0.003-0.063,0.013-0.177
				c0.084,0.044,0.129,0.07,0.129,0.07l-0.117-0.247c0.429-5.547,5.113-76.141-28.2-130.971c-0.931-1.528-1.882-3.049-2.872-4.552
				c-14.068-1.854-24.937-1.966-36.742,3.899"/>
		</g>
	</g>
</g>
<g id="pivot">
	<circle fill="none" cx="227.033" cy="365.648" r="14.133"/>
</g>
</svg>
