<?xml version="1.0" encoding="utf-8"?>
<!-- Generator: Adobe Illustrator 16.0.0, SVG Export Plug-In . SVG Version: 6.00 Build 0)  -->
<!DOCTYPE svg PUBLIC "-//W3C//DTD SVG 1.1//EN" "http://www.w3.org/Graphics/SVG/1.1/DTD/svg11.dtd">
<svg version="1.1" xmlns="http://www.w3.org/2000/svg" xmlns:xlink="http://www.w3.org/1999/xlink" x="0px" y="0px"
	 width="453.543px" height="453.543px" viewBox="0 0 453.543 453.543" enable-background="new 0 0 453.543 453.543"
	 xml:space="preserve">
<g id="kvadrat">
</g>
<g id="bg" display="none">
	<rect x="-322.723" y="-12990.767" display="inline" width="15266.867" height="13678.951"/>
</g>
<g id="barvno" display="none">
	<g id="rde훾a7bela" display="inline">
	</g>
	<g display="inline">
		
			<path fill="#E73088" stroke="#000000" stroke-width="8" stroke-linecap="round" stroke-linejoin="round" stroke-miterlimit="10" d="
			M368.844,160.944c0,0-7.492-50.23-35.053-58.755c-24.556-7.597-52.141-16.228-60.871-18.922l9.78,64.329l-55.55-27.706v-0.37
			l-0.006-0.005l-0.372,0.187l-0.372-0.187l-0.005,0.005v0.37l-55.55,27.706l9.78-64.329c-8.73,2.694-36.316,11.325-60.871,18.922
			C92.191,110.714,84.7,160.944,84.7,160.944l23.053,43.476l39.811-27.523c0,0-30.323,178.218-19.2,189.341
			c5.385,5.386,191.432,5.386,196.816,0c11.123-11.123-19.2-189.341-19.2-189.341l39.811,27.523L368.844,160.944z"/>
		
			<path fill="#FFFFFF" stroke="#000000" stroke-width="8" stroke-linecap="round" stroke-linejoin="round" stroke-miterlimit="10" d="
			M282.264,147.597l-55.12-28.081l-56.3,28.081l-9.173-58.473l18.953-5.856c6.49,19.13,18.48,32.109,46.529,32.109
			c28.04,0,40.031-12.979,46.521-32.109l18.729,5.788L282.264,147.597z"/>
		<circle cx="227.149" cy="183.692" r="9.994"/>
		<circle cx="227.149" cy="246.275" r="9.994"/>
		<circle cx="227.149" cy="308.859" r="9.994"/>
	</g>
	
		<rect x="-833.008" y="-13410.775" display="inline" fill="none" stroke="#000000" stroke-miterlimit="10" width="16736" height="13952"/>
</g>
<g id="barvno_copy_2">
	<g id="rde훾a7bela_copy_4">
	</g>
	<g>
		<g>
			<path fill="#FF00FF" d="M368.844,160.944c0,0-7.492-50.23-35.053-58.755c-24.556-7.597-52.141-16.228-60.871-18.922l9.78,64.329
				l-55.55-27.706v-0.37l-0.006-0.005l-0.372,0.187l-0.372-0.187l-0.005,0.005v0.37l-55.55,27.706l9.78-64.329
				c-8.73,2.694-36.316,11.325-60.871,18.922C92.191,110.714,84.7,160.944,84.7,160.944l23.053,43.476l39.811-27.523
				c0,0-30.323,178.218-19.2,189.341c5.385,5.386,191.432,5.386,196.816,0c11.123-11.123-19.2-189.341-19.2-189.341l39.811,27.523
				L368.844,160.944z"/>
			<path d="M226.771,374.276c-25.014,0-48.556-0.359-66.288-1.013c-31.926-1.175-33.532-2.781-34.949-4.198
				c-2.71-2.711-8.352-8.352,4.293-102.204c4.46-33.099,9.692-65.783,12.24-81.303l-32.041,22.151
				c-0.939,0.649-2.112,0.869-3.222,0.596c-1.11-0.271-2.051-1.003-2.586-2.012l-23.053-43.476c-0.4-0.755-0.549-1.619-0.422-2.464
				c0.321-2.152,8.203-52.824,37.828-61.986c14.509-4.489,30.078-9.339,42.187-13.111c8.385-2.613,15.113-4.709,18.686-5.812
				c1.315-0.405,2.748-0.106,3.791,0.792s1.551,2.271,1.344,3.632l-8.621,56.707l47.373-23.627c0.116-0.139,0.242-0.27,0.377-0.392
				c0.847-0.768,1.962-1.125,3.058-1.024c1.04-0.095,2.098,0.212,2.932,0.903c0.188,0.156,0.359,0.327,0.513,0.511l47.376,23.629
				l-8.622-56.707c-0.207-1.361,0.301-2.733,1.344-3.632s2.475-1.196,3.791-0.792c3.566,1.101,10.275,3.19,18.639,5.797
				c12.116,3.774,27.706,8.631,42.234,13.126c29.624,9.162,37.506,59.834,37.827,61.986c0.126,0.845-0.021,1.709-0.422,2.464
				l-23.054,43.476c-0.535,1.009-1.476,1.741-2.586,2.012c-1.11,0.271-2.283,0.055-3.223-0.596l-32.041-22.151
				c2.548,15.52,7.78,48.204,12.24,81.303c12.645,93.853,7.004,99.493,4.293,102.204c-1.417,1.417-3.022,3.023-34.948,4.198
				C275.327,373.917,251.786,374.276,226.771,374.276z M131.049,363.053c6.227,1.598,40.827,3.224,95.722,3.224
				s89.495-1.626,95.722-3.224c1.363-3.217,3.601-19.085-6.933-96.793c-6.068-44.763-13.45-88.258-13.524-88.692
				c-0.27-1.586,0.437-3.18,1.794-4.045c1.357-0.864,3.101-0.831,4.424,0.084l36.11,24.965l20.309-38.3
				c-1.369-7.624-9.53-47.291-32.064-54.261c-14.534-4.496-30.13-9.354-42.25-13.131c-4.82-1.502-9.09-2.832-12.524-3.9l8.82,58.016
				c0.225,1.477-0.393,2.955-1.6,3.835s-2.804,1.014-4.14,0.346l-54.143-27.004l-54.143,27.004c-1.336,0.667-2.933,0.532-4.14-0.346
				c-1.208-0.88-1.824-2.358-1.6-3.835l8.82-58.016c-3.445,1.071-7.732,2.407-12.571,3.915
				c-12.114,3.773-27.688,8.626-42.203,13.116c-22.573,6.981-30.702,46.634-32.065,54.26l20.31,38.301l36.109-24.965
				c1.324-0.915,3.067-0.948,4.424-0.084c1.357,0.865,2.064,2.459,1.794,4.045c-0.074,0.435-7.459,43.947-13.527,88.71
				C127.449,343.966,129.687,359.835,131.049,363.053z"/>
		</g>
		<g>
			<path fill="#FFFFFF" d="M282.264,147.597l-55.12-28.081l-56.3,28.081l-9.173-58.473l18.953-5.856
				c6.49,19.13,18.48,32.109,46.529,32.109c28.04,0,40.031-12.979,46.521-32.109l18.729,5.788L282.264,147.597z"/>
			<path d="M282.264,151.597c-0.623,0-1.246-0.146-1.816-0.436l-53.323-27.166l-54.496,27.181c-1.141,0.572-2.485,0.562-3.619-0.024
				c-1.133-0.585-1.92-1.675-2.118-2.935l-9.173-58.473c-0.308-1.964,0.872-3.855,2.771-4.441l18.953-5.856
				c2.071-0.642,4.273,0.484,4.969,2.536c6.99,20.604,19.772,29.395,42.741,29.395c22.963,0,35.743-8.791,42.733-29.395
				c0.696-2.052,2.899-3.182,4.969-2.536l18.729,5.788c1.922,0.594,3.104,2.522,2.76,4.504l-10.139,58.541
				c-0.217,1.252-1.015,2.326-2.151,2.895C283.49,151.456,282.877,151.597,282.264,151.597z M166.159,91.924l7.79,49.654
				l45.222-22.556c-20.537-1.916-33.45-11.665-40.996-30.812L166.159,91.924z M235.01,119.034l44.238,22.537l8.613-49.732
				l-11.738-3.628C268.562,107.396,255.615,117.146,235.01,119.034z"/>
		</g>
		<g>
			<circle cx="227.149" cy="183.692" r="9.994"/>
		</g>
		<g>
			<circle cx="227.149" cy="246.275" r="9.994"/>
		</g>
		<g>
			<circle cx="227.149" cy="308.859" r="9.994"/>
		</g>
	</g>
	<rect x="-833.008" y="-13410.775" fill="none" stroke="#000000" stroke-miterlimit="10" width="16736" height="13952"/>
</g>
<g id="sivinsko" display="none">
	<g id="rde훾a7bela_copy_3" display="inline">
	</g>
	<g display="inline">
		<g>
			<path fill="#717171" d="M368.844,160.944c0,0-7.492-50.23-35.053-58.755c-24.556-7.597-52.141-16.228-60.871-18.922l9.78,64.329
				l-55.55-27.706v-0.37l-0.006-0.005l-0.372,0.187l-0.372-0.187l-0.005,0.005v0.37l-55.55,27.706l9.78-64.329
				c-8.73,2.694-36.316,11.325-60.871,18.922C92.191,110.714,84.7,160.944,84.7,160.944l23.053,43.476l39.811-27.523
				c0,0-30.323,178.218-19.2,189.341c5.385,5.386,191.432,5.386,196.816,0c11.123-11.123-19.2-189.341-19.2-189.341l39.811,27.523
				L368.844,160.944z"/>
			<path d="M226.771,374.276c-25.014,0-48.556-0.359-66.288-1.013c-31.926-1.175-33.532-2.781-34.949-4.198
				c-2.711-2.711-8.352-8.352,4.293-102.204c4.46-33.099,9.692-65.783,12.24-81.303l-32.041,22.151
				c-0.939,0.649-2.112,0.869-3.223,0.596c-1.109-0.271-2.051-1.003-2.586-2.012l-23.053-43.476c-0.4-0.755-0.549-1.619-0.422-2.464
				c0.321-2.152,8.203-52.824,37.828-61.986c14.509-4.489,30.078-9.339,42.187-13.111c8.385-2.613,15.113-4.709,18.686-5.812
				c1.315-0.405,2.748-0.106,3.791,0.792s1.55,2.271,1.344,3.632l-8.621,56.707l47.373-23.627c0.116-0.139,0.242-0.27,0.377-0.391
				c0.847-0.769,1.962-1.125,3.058-1.025c1.04-0.095,2.098,0.212,2.932,0.903c0.188,0.156,0.358,0.327,0.513,0.511l47.376,23.629
				l-8.622-56.707c-0.207-1.361,0.301-2.733,1.344-3.632s2.475-1.196,3.791-0.792c3.566,1.101,10.275,3.19,18.639,5.797
				c12.116,3.775,27.706,8.631,42.234,13.126c29.624,9.162,37.506,59.834,37.827,61.986c0.126,0.845-0.021,1.709-0.422,2.464
				l-23.054,43.476c-0.535,1.009-1.476,1.741-2.585,2.012c-1.11,0.271-2.283,0.055-3.223-0.596l-32.041-22.151
				c2.548,15.52,7.78,48.204,12.24,81.303c12.645,93.853,7.004,99.493,4.293,102.204c-1.417,1.417-3.022,3.023-34.948,4.198
				C275.327,373.917,251.786,374.276,226.771,374.276z M131.049,363.053c6.227,1.598,40.827,3.224,95.722,3.224
				s89.495-1.626,95.722-3.224c1.363-3.217,3.601-19.085-6.933-96.793c-6.068-44.763-13.45-88.258-13.524-88.692
				c-0.27-1.586,0.437-3.18,1.794-4.045c1.357-0.864,3.101-0.831,4.424,0.084l36.11,24.965l20.309-38.3
				c-1.369-7.624-9.53-47.291-32.064-54.261c-14.535-4.496-30.13-9.354-42.25-13.131c-4.82-1.502-9.09-2.832-12.524-3.9l8.82,58.016
				c0.225,1.477-0.393,2.955-1.6,3.835s-2.804,1.014-4.14,0.346l-54.143-27.004l-54.143,27.004c-1.336,0.667-2.933,0.532-4.14-0.346
				c-1.208-0.88-1.824-2.358-1.6-3.835l8.82-58.016c-3.445,1.071-7.732,2.407-12.571,3.915
				c-12.114,3.773-27.688,8.626-42.203,13.116c-22.573,6.981-30.702,46.634-32.065,54.26l20.309,38.301l36.11-24.965
				c1.324-0.915,3.067-0.948,4.424-0.084c1.357,0.865,2.064,2.459,1.794,4.045c-0.074,0.435-7.459,43.947-13.527,88.71
				C127.449,343.966,129.687,359.835,131.049,363.053z"/>
		</g>
		<g>
			<path fill="#FFFFFF" d="M282.264,147.597l-55.12-28.081l-56.3,28.081l-9.173-58.473l18.953-5.856
				c6.49,19.13,18.48,32.109,46.529,32.109c28.04,0,40.031-12.979,46.521-32.109l18.729,5.788L282.264,147.597z"/>
			<path d="M282.264,151.597c-0.623,0-1.246-0.146-1.816-0.436l-53.323-27.166l-54.496,27.181c-1.141,0.572-2.485,0.562-3.619-0.024
				c-1.133-0.585-1.92-1.675-2.118-2.935l-9.173-58.473c-0.308-1.964,0.872-3.855,2.771-4.441l18.953-5.856
				c2.07-0.642,4.273,0.484,4.969,2.536c6.99,20.604,19.772,29.395,42.741,29.395c22.963,0,35.743-8.791,42.733-29.395
				c0.696-2.052,2.899-3.182,4.969-2.536l18.729,5.788c1.922,0.594,3.104,2.522,2.76,4.504l-10.139,58.541
				c-0.217,1.252-1.015,2.326-2.151,2.895C283.49,151.456,282.877,151.597,282.264,151.597z M166.159,91.924l7.79,49.654
				l45.222-22.556c-20.537-1.916-33.45-11.665-40.996-30.812L166.159,91.924z M235.01,119.034l44.238,22.537l8.613-49.732
				l-11.738-3.628C268.562,107.396,255.615,117.146,235.01,119.034z"/>
		</g>
		<circle cx="227.149" cy="183.692" r="9.994"/>
		<circle cx="227.149" cy="246.275" r="9.994"/>
		<circle cx="227.149" cy="308.859" r="9.994"/>
	</g>
	<path display="inline" d="M15903.492,541.725h-16737v-13953h16737V541.725z M-833.008,540.725h16736l-0.5-13951h-16735.5l0.5,13951
		H-833.008z"/>
</g>
<g id="linijsko" display="none">
	<g id="rde훾a7bela_copy" display="inline">
	</g>
	<g display="inline">
		
			<polyline fill="none" stroke="#000000" stroke-width="8" stroke-linecap="round" stroke-linejoin="round" stroke-miterlimit="10" points="
			226.394,119.891 226.394,119.521 226.399,119.516 226.771,119.701 		"/>
		<path fill="none" stroke="#000000" stroke-width="8" stroke-linecap="round" stroke-linejoin="round" stroke-miterlimit="10" d="
			M273.6,83.479c-0.235-0.073-0.468-0.146-0.68-0.211l0.228,1.496"/>
		
			<polyline fill="none" stroke="#000000" stroke-width="8" stroke-linecap="round" stroke-linejoin="round" stroke-miterlimit="10" points="
			226.771,119.701 226.771,119.702 227.144,119.516 		"/>
		<path fill="none" stroke="#000000" stroke-width="8" stroke-linecap="round" stroke-linejoin="round" stroke-miterlimit="10" d="
			M161.676,89.16c8.504-2.65,15.339-4.779,18.947-5.893"/>
		
			<line fill="none" stroke="#000000" stroke-width="8" stroke-linecap="round" stroke-linejoin="round" stroke-miterlimit="10" x1="282.298" y1="147.396" x2="261.931" y2="137.238"/>
		
			<polyline fill="none" stroke="#000000" stroke-width="8" stroke-linecap="round" stroke-linejoin="round" stroke-miterlimit="10" points="
			227.144,119.516 227.149,119.521 227.149,119.891 261.931,137.238 		"/>
		
			<polyline fill="none" stroke="#000000" stroke-width="8" stroke-linecap="round" stroke-linejoin="round" stroke-miterlimit="10" points="
			226.394,119.891 226.394,119.891 170.844,147.597 		"/>
		<path fill="none" stroke="#000000" stroke-width="8" stroke-linecap="round" stroke-linejoin="round" stroke-miterlimit="10" d="
			M292.358,89.313c-8.228-2.563-14.935-4.652-18.759-5.834"/>
		<path fill="none" stroke="#000000" stroke-width="8" stroke-linecap="round" stroke-linejoin="round" stroke-miterlimit="10" d="
			M161.676,89.16c-12.073,3.762-27.518,8.572-41.923,13.029C92.191,110.714,84.7,160.944,84.7,160.944l23.053,43.476l39.811-27.523
			c0,0-30.323,178.218-19.2,189.341c5.385,5.386,191.432,5.386,196.816,0c11.123-11.123-19.2-189.341-19.2-189.341l39.811,27.523
			l23.053-43.476c0,0-7.492-50.23-35.053-58.755c-14.212-4.396-29.433-9.139-41.432-12.877"/>
		
			<polyline fill="none" stroke="#000000" stroke-width="8" stroke-linecap="round" stroke-linejoin="round" stroke-miterlimit="10" points="
			282.298,147.396 282.7,147.597 282.496,146.256 		"/>
		
			<polyline fill="none" stroke="#000000" stroke-width="8" stroke-linecap="round" stroke-linejoin="round" stroke-miterlimit="10" points="
			261.931,137.238 282.264,147.597 282.298,147.396 		"/>
		<path fill="none" stroke="#000000" stroke-width="8" stroke-linecap="round" stroke-linejoin="round" stroke-miterlimit="10" d="
			M292.358,89.313l0.044-0.257l-18.729-5.788c-0.024,0.07-0.05,0.14-0.074,0.211"/>
		
			<polyline fill="none" stroke="#000000" stroke-width="8" stroke-linecap="round" stroke-linejoin="round" stroke-miterlimit="10" points="
			161.676,89.16 161.67,89.124 180.624,83.268 		"/>
		
			<line fill="none" stroke="#000000" stroke-width="8" stroke-linecap="round" stroke-linejoin="round" stroke-miterlimit="10" x1="226.394" y1="119.891" x2="226.771" y2="119.701"/>
		
			<line fill="none" stroke="#000000" stroke-width="8" stroke-linecap="round" stroke-linejoin="round" stroke-miterlimit="10" x1="282.496" y1="146.256" x2="282.298" y2="147.396"/>
		
			<line fill="none" stroke="#000000" stroke-width="8" stroke-linecap="round" stroke-linejoin="round" stroke-miterlimit="10" x1="161.676" y1="89.16" x2="170.844" y2="147.597"/>
		
			<line fill="none" stroke="#000000" stroke-width="8" stroke-linecap="round" stroke-linejoin="round" stroke-miterlimit="10" x1="227.144" y1="119.516" x2="226.771" y2="119.701"/>
		
			<line fill="none" stroke="#000000" stroke-width="8" stroke-linecap="round" stroke-linejoin="round" stroke-miterlimit="10" x1="226.394" y1="119.891" x2="170.844" y2="147.597"/>
		<path fill="none" stroke="#000000" stroke-width="8" stroke-linecap="round" stroke-linejoin="round" stroke-miterlimit="10" d="
			M180.624,83.268c6.49,19.13,18.48,32.109,46.529,32.109c27.301,0,39.386-12.307,45.994-30.613"/>
		<path fill="none" stroke="#000000" stroke-width="8" stroke-linecap="round" stroke-linejoin="round" stroke-miterlimit="10" d="
			M273.147,84.764c0.154-0.426,0.305-0.854,0.453-1.285"/>
		
			<line fill="none" stroke="#000000" stroke-width="8" stroke-linecap="round" stroke-linejoin="round" stroke-miterlimit="10" x1="261.931" y1="137.238" x2="227.144" y2="119.516"/>
		
			<line fill="none" stroke="#000000" stroke-width="8" stroke-linecap="round" stroke-linejoin="round" stroke-miterlimit="10" x1="292.358" y1="89.313" x2="282.496" y2="146.256"/>
		<circle cx="227.149" cy="183.692" r="9.994"/>
		<circle cx="227.149" cy="246.275" r="9.994"/>
		<circle cx="227.149" cy="308.859" r="9.994"/>
	</g>
</g>
<g id="pivot">
	<circle fill="none" cx="229.593" cy="366.754" r="14.133"/>
</g>
</svg>
