<?xml version="1.0" encoding="utf-8"?>
<!-- Generator: Adobe Illustrator 16.0.0, SVG Export Plug-In . SVG Version: 6.00 Build 0)  -->
<!DOCTYPE svg PUBLIC "-//W3C//DTD SVG 1.1//EN" "http://www.w3.org/Graphics/SVG/1.1/DTD/svg11.dtd">
<svg version="1.1" xmlns="http://www.w3.org/2000/svg" xmlns:xlink="http://www.w3.org/1999/xlink" x="0px" y="0px"
	 width="453.543px" height="453.543px" viewBox="0 0 453.543 453.543" enable-background="new 0 0 453.543 453.543"
	 xml:space="preserve">
<g id="kvadrat">
</g>
<g id="bg" display="none">
	<rect x="-4404.613" y="-10949.821" display="inline" width="15266.867" height="13678.951"/>
</g>
<g id="barvno" display="none">
	<g id="rde훾a7bela" display="inline">
	</g>
	<g display="inline">
		<g>
			<g>
				<path fill="#7E4E24" d="M207.438,383.784c-15.87,0-28.781-12.91-28.781-28.778c0-5.216,4.242-9.459,9.455-9.459
					c5.215,0,9.457,4.243,9.457,9.459c0,5.441,4.427,9.868,9.869,9.868c5.443,0,9.871-4.427,9.871-9.868V195.142
					c0-1.062,0.422-2.08,1.173-2.83c0.75-0.749,1.767-1.17,2.827-1.17c0.001,0,10.917,0.014,10.917,0.014
					c2.208,0.003,3.995,1.793,3.995,4v159.851C236.221,370.874,223.309,383.784,207.438,383.784z"/>
				<path d="M221.309,195.142l10.912,0.014v159.851c0,13.663-11.115,24.778-24.783,24.778c-13.664,0-24.781-11.115-24.781-24.778
					c0-3.017,2.439-5.459,5.455-5.459s5.457,2.442,5.457,5.459c0,7.646,6.223,13.868,13.869,13.868s13.871-6.223,13.871-13.868
					V195.142 M221.309,187.142c-2.12,0-4.153,0.841-5.653,2.34c-1.502,1.501-2.347,3.536-2.347,5.66v159.864
					c0,3.236-2.634,5.868-5.871,5.868c-3.236,0-5.869-2.632-5.869-5.868c0-7.422-6.037-13.459-13.457-13.459
					c-7.419,0-13.455,6.037-13.455,13.459c0,18.074,14.706,32.778,32.781,32.778c18.077,0,32.783-14.704,32.783-32.778V195.155
					c0-4.415-3.576-7.995-7.99-8l-10.912-0.014C221.315,187.142,221.312,187.142,221.309,187.142L221.309,187.142z"/>
			</g>
			
				<path fill="#0073B3" stroke="#000000" stroke-width="8" stroke-linecap="round" stroke-linejoin="round" stroke-miterlimit="10" d="
				M57.689,204.026c10.953-8.508,24.334-13.137,38.268-13.137c16.096,0,31.58,6.366,43.207,17.498
				c1.745-57.192,38.188-112.79,88.311-134.51h-1.643C147.252,76.009,79.305,128.614,57.689,204.026z"/>
			
				<path fill="#0073B3" stroke="#000000" stroke-width="8" stroke-linecap="round" stroke-linejoin="round" stroke-miterlimit="10" d="
				M221.314,73.878h0.518c0.557-0.016,1.109-0.036,1.666-0.047C222.768,73.851,222.037,73.858,221.314,73.878z"/>
			
				<path fill="#0073B3" stroke="#000000" stroke-width="8" stroke-linecap="round" stroke-linejoin="round" stroke-miterlimit="10" d="
				M227.721,73.878h-1.467c49.279,20.035,86.383,76.729,88.139,134.506c11.621-11.128,27.103-17.5,43.199-17.5
				c13.926,0,27.307,4.627,38.26,13.137C374.236,128.62,306.299,76.011,227.721,73.878z"/>
			
				<path fill="#0073B3" stroke="#000000" stroke-width="8" stroke-linecap="round" stroke-linejoin="round" stroke-miterlimit="10" d="
				M226.771,73.757c-1.068,0-2.123,0.044-3.186,0.069c-0.037,0.017-0.074,0.035-0.111,0.052h6.779
				c-0.037-0.015-0.072-0.032-0.109-0.047C229.016,73.801,227.9,73.757,226.771,73.757z"/>
			
				<path fill="#0073B3" stroke="#000000" stroke-width="8" stroke-linecap="round" stroke-linejoin="round" stroke-miterlimit="10" d="
				M230.252,73.837c0.49,0.008,0.98,0.027,1.469,0.041h0.506C231.572,73.854,230.908,73.851,230.252,73.837z"/>
			<g>
				
					<path fill="#0073B3" stroke="#000000" stroke-width="8" stroke-linecap="round" stroke-linejoin="round" stroke-miterlimit="10" d="
					M228.596,77.13l-1.822,0.034h-0.002v133.222c0.346,0.284,0.537,0.447,0.537,0.447s26.184-19.943,44.402-19.943
					c18.221,0,31.432,6.309,43.041,17.332C312.926,151.792,276.674,96.507,228.596,77.13z"/>
			</g>
			
				<path fill="#0073B3" stroke="#000000" stroke-width="8" stroke-linecap="round" stroke-linejoin="round" stroke-miterlimit="10" d="
				M224.951,77.199c-48.82,21.13-84.348,75.269-86.154,131.026c11.609-11.035,20.885-17.336,43.033-17.336
				c20.194,0,41.358,16.568,44.942,19.496V77.164L224.951,77.199z"/>
		</g>
	</g>
	
		<rect x="-4914.898" y="-11369.83" display="inline" fill="none" stroke="#000000" stroke-miterlimit="10" width="16736" height="13952"/>
</g>
<g id="barvno_copy_2">
	<g id="rde훾a7bela_copy_4">
	</g>
	<g>
		<g>
			<g>
				<path fill="#00FF00" d="M207.438,383.784c-15.87,0-28.781-12.91-28.781-28.778c0-5.216,4.242-9.459,9.455-9.459
					c5.215,0,9.457,4.243,9.457,9.459c0,5.441,4.427,9.868,9.869,9.868c5.443,0,9.871-4.427,9.871-9.868V195.142
					c0-1.062,0.422-2.08,1.173-2.83c0.75-0.749,1.767-1.17,2.827-1.17c0.001,0,10.917,0.014,10.917,0.014
					c2.208,0.003,3.995,1.793,3.995,4v159.851C236.221,370.874,223.309,383.784,207.438,383.784z"/>
				<path d="M221.309,195.142l10.912,0.014v159.851c0,13.663-11.115,24.778-24.783,24.778c-13.664,0-24.781-11.115-24.781-24.778
					c0-3.017,2.439-5.459,5.455-5.459s5.457,2.442,5.457,5.459c0,7.646,6.223,13.868,13.869,13.868s13.871-6.223,13.871-13.868
					V195.142 M221.309,187.142c-2.12,0-4.153,0.841-5.653,2.34c-1.502,1.501-2.347,3.536-2.347,5.66v159.864
					c0,3.236-2.634,5.868-5.871,5.868c-3.236,0-5.869-2.632-5.869-5.868c0-7.422-6.037-13.459-13.457-13.459
					c-7.419,0-13.455,6.037-13.455,13.459c0,18.074,14.706,32.778,32.781,32.778c18.077,0,32.783-14.704,32.783-32.778V195.155
					c0-4.415-3.576-7.995-7.99-8l-10.912-0.014C221.315,187.142,221.312,187.142,221.309,187.142L221.309,187.142z"/>
			</g>
			<g>
				<path fill="#2626FF" d="M57.689,204.026c10.953-8.508,24.334-13.137,38.268-13.137c16.096,0,31.58,6.366,43.207,17.498
					c1.745-57.192,38.188-112.79,88.311-134.51h-1.643C147.252,76.009,79.305,128.614,57.689,204.026z"/>
				<path d="M139.165,212.388c-1.012,0-2.008-0.384-2.767-1.11c-11.037-10.568-25.399-16.388-40.44-16.388
					c-13.074,0-25.458,4.252-35.814,12.296c-1.367,1.061-3.261,1.124-4.695,0.154s-2.081-2.752-1.604-4.416
					c10.842-37.826,33.01-70.544,64.106-94.615c31.098-24.072,68.365-37.36,107.773-38.429c0.036-0.001,0.072-0.002,0.108-0.002
					h1.643c1.896,0,3.532,1.331,3.917,3.188c0.385,1.857-0.586,3.729-2.326,4.482c-48.873,21.178-84.197,75.031-85.903,130.962
					c-0.048,1.579-1.021,2.981-2.483,3.58C140.188,212.29,139.674,212.388,139.165,212.388z M95.957,186.89
					c14.375,0,28.196,4.664,39.679,13.269c4.213-49.264,32.789-95.967,73.167-120.996c-66.006,8.152-121.568,52.506-143.893,115.43
					C74.421,189.527,84.974,186.89,95.957,186.89z"/>
			</g>
			<g>
				<path fill="#2626FF" d="M221.314,73.878h0.518c0.557-0.016,1.109-0.036,1.666-0.047
					C222.768,73.851,222.037,73.858,221.314,73.878z"/>
				<path d="M221.832,77.878h-0.518c-2.188,0-3.97-1.758-4-3.946c-0.03-2.188,1.704-3.993,3.892-4.053l2.214-0.047
					c0.026-0.001,0.053-0.001,0.079-0.001c2.167,0,3.947,1.731,3.998,3.908c0.051,2.202-1.689,4.031-3.892,4.091l-1.661,0.046
					C221.907,77.877,221.87,77.878,221.832,77.878z"/>
			</g>
			<g>
				<path fill="#2626FF" d="M227.721,73.878h-1.467c49.279,20.035,86.383,76.729,88.139,134.506
					c11.621-11.128,27.103-17.5,43.199-17.5c13.926,0,27.307,4.627,38.26,13.137C374.236,128.62,306.299,76.011,227.721,73.878z"/>
				<path d="M314.392,212.384c-0.51,0-1.024-0.098-1.514-0.298c-1.462-0.599-2.436-2.001-2.483-3.581
					c-1.713-56.381-37.733-111.441-85.647-130.922c-1.772-0.72-2.787-2.595-2.419-4.473s2.013-3.232,3.926-3.232h1.467
					c0.036,0,0.072,0.001,0.108,0.001c39.406,1.07,76.671,14.359,107.767,38.432c31.093,24.07,53.258,56.785,64.101,94.607
					c0.477,1.664-0.17,3.446-1.604,4.416c-1.435,0.969-3.329,0.905-4.695-0.154c-10.353-8.044-22.735-12.296-35.806-12.296
					c-15.037,0-29.396,5.82-40.433,16.389C316.4,212,315.404,212.384,314.392,212.384z M245.631,79.273
					c39.403,24.307,68.068,71.564,72.289,120.881c11.482-8.606,25.301-13.271,39.672-13.271c10.979,0,21.53,2.638,31.038,7.7
					C366.401,131.952,311.239,87.711,245.631,79.273z"/>
			</g>
			<g>
				<path fill="#2626FF" d="M226.771,73.757c-1.068,0-2.123,0.044-3.186,0.069c-0.037,0.017-0.074,0.035-0.111,0.052h6.779
					c-0.037-0.015-0.072-0.032-0.109-0.047C229.016,73.801,227.9,73.757,226.771,73.757z"/>
				<path d="M230.254,77.878h-6.779c-1.887,0-3.518-1.319-3.912-3.165s0.555-3.716,2.278-4.486l0.112-0.052
					c0.484-0.217,1.007-0.335,1.538-0.348l0.926-0.025c1.672-0.049,3.354-0.042,5.033,0.008l0.803,0.022
					c0.467,0.013,0.928,0.107,1.362,0.278c0.045,0.019,0.129,0.054,0.186,0.078c1.739,0.729,2.737,2.577,2.384,4.437
					C233.825,76.513,232.175,77.878,230.254,77.878z"/>
			</g>
			<g>
				<path fill="#2626FF" d="M230.252,73.837c0.49,0.008,0.98,0.027,1.469,0.041h0.506C231.572,73.854,230.908,73.851,230.252,73.837
					z"/>
				<path d="M232.227,77.878h-0.506c-0.037,0-0.075-0.001-0.112-0.002l-1.44-0.04c-2.205-0.046-3.957-1.867-3.916-4.072
					c0.041-2.184,1.823-3.927,3.998-3.927c0.022,0,0.043,0,0.065,0.001l0.659,0.011c0.466,0.008,0.933,0.016,1.395,0.032
					c2.18,0.078,3.896,1.888,3.856,4.068C236.187,76.131,234.408,77.878,232.227,77.878z"/>
			</g>
			<g>
				<g>
					<path fill="#2626FF" d="M228.596,77.13l-1.822,0.034h-0.002v133.222c0.346,0.284,0.537,0.447,0.537,0.447
						s26.184-19.943,44.402-19.943c18.221,0,31.432,6.309,43.041,17.332C312.926,151.792,276.674,96.507,228.596,77.13z"/>
					<path d="M227.31,214.833c-0.925,0-1.849-0.32-2.594-0.954c-0.014-0.013-0.185-0.157-0.484-0.403
						c-0.924-0.76-1.46-1.894-1.46-3.09V77.164c0-2.18,1.746-3.959,3.925-3.999l1.824-0.034c0.535-0.017,1.072,0.088,1.57,0.289
						c49.493,19.947,86.779,76.585,88.659,134.673c0.052,1.621-0.88,3.114-2.36,3.778c-1.479,0.663-3.215,0.369-4.392-0.749
						c-11.823-11.226-24.248-16.232-40.287-16.232c-16.676,0-41.728,18.935-41.979,19.125
						C229.015,214.562,228.162,214.833,227.31,214.833z M230.773,82.402l-0.002,121.095c9.08-6.071,26.867-16.607,40.939-16.607
						c14.73,0,27.15,3.922,38.434,12.237C305.142,148.837,273.048,101.334,230.773,82.402z"/>
				</g>
			</g>
			<g>
				<path fill="#2626FF" d="M224.951,77.199c-48.82,21.13-84.348,75.269-86.154,131.026c11.609-11.035,20.885-17.336,43.033-17.336
					c20.194,0,41.358,16.568,44.942,19.496V77.164L224.951,77.199z"/>
				<path d="M226.772,214.386c-0.905,0-1.803-0.308-2.531-0.902c-2.33-1.903-23.313-18.594-42.411-18.594
					c-21.583,0-29.959,6.429-40.277,16.235c-1.176,1.119-2.912,1.418-4.393,0.75c-1.481-0.664-2.414-2.157-2.361-3.779
					c1.862-57.469,38.281-112.805,88.563-134.567c0.478-0.207,0.991-0.318,1.512-0.328l1.82-0.035
					c1.106-0.03,2.111,0.391,2.878,1.144c0.767,0.752,1.199,1.781,1.199,2.855v133.222c0,1.545-0.89,2.952-2.286,3.614
					C227.939,214.259,227.354,214.386,226.772,214.386z M181.83,186.89c15.846,0,31.948,9.302,40.942,15.521V82.58
					c-42.844,20.356-74.282,66.705-79.335,116.236C153.581,190.761,163.722,186.89,181.83,186.89z"/>
			</g>
		</g>
	</g>
	<rect x="-4914.898" y="-11369.83" fill="none" stroke="#000000" stroke-miterlimit="10" width="16736" height="13952"/>
</g>
<g id="sivinsko" display="none">
	<g id="rde훾a7bela_copy_3" display="inline">
	</g>
	<g display="inline">
		<g>
			<g>
				<path fill="#585858" d="M221.309,195.142v159.864c0,7.646-6.225,13.868-13.871,13.868s-13.869-6.223-13.869-13.868
					c0-3.017-2.441-5.459-5.457-5.459s-5.455,2.442-5.455,5.459c0,13.663,11.117,24.778,24.781,24.778
					c13.668,0,24.783-11.115,24.783-24.778V195.155L221.309,195.142z"/>
				<path d="M221.309,195.142l10.912,0.014v159.851c0,13.663-11.115,24.778-24.783,24.778c-13.664,0-24.781-11.115-24.781-24.778
					c0-3.017,2.439-5.459,5.455-5.459s5.457,2.442,5.457,5.459c0,7.646,6.223,13.868,13.869,13.868s13.871-6.223,13.871-13.868
					V195.142 M221.309,187.142c-2.12,0-4.153,0.841-5.653,2.34c-1.502,1.501-2.347,3.536-2.347,5.66v159.864
					c0,3.236-2.634,5.868-5.871,5.868c-3.236,0-5.869-2.632-5.869-5.868c0-7.422-6.037-13.459-13.457-13.459
					c-7.419,0-13.455,6.037-13.455,13.459c0,18.074,14.706,32.778,32.781,32.778c18.077,0,32.783-14.704,32.783-32.778V195.155
					c0-4.415-3.576-7.995-7.99-8l-10.912-0.014C221.315,187.142,221.312,187.142,221.309,187.142L221.309,187.142z"/>
			</g>
			<g>
				<path fill="#585858" d="M57.689,204.026c10.953-8.508,24.334-13.137,38.268-13.137c16.096,0,31.58,6.366,43.207,17.498
					c1.745-57.192,38.188-112.79,88.311-134.51h-1.643C147.252,76.009,79.305,128.614,57.689,204.026z"/>
				<path d="M139.165,212.388c-1.012,0-2.008-0.384-2.767-1.11c-11.037-10.568-25.399-16.388-40.44-16.388
					c-13.074,0-25.458,4.252-35.814,12.296c-1.367,1.061-3.261,1.124-4.695,0.154s-2.081-2.752-1.604-4.416
					c10.842-37.826,33.01-70.544,64.106-94.615c31.098-24.072,68.365-37.36,107.773-38.429c0.036-0.001,0.072-0.002,0.108-0.002
					h1.643c1.896,0,3.532,1.331,3.917,3.188c0.385,1.857-0.586,3.729-2.326,4.482c-48.873,21.178-84.197,75.031-85.903,130.962
					c-0.048,1.579-1.021,2.981-2.483,3.58C140.188,212.29,139.674,212.388,139.165,212.388z M95.957,186.89
					c14.375,0,28.196,4.664,39.679,13.269c4.213-49.264,32.789-95.967,73.167-120.996c-66.006,8.152-121.568,52.506-143.893,115.43
					C74.421,189.527,84.974,186.89,95.957,186.89z"/>
			</g>
			<g>
				<path fill="#585858" d="M221.314,73.878h0.518c0.557-0.016,1.109-0.036,1.666-0.047
					C222.768,73.851,222.037,73.858,221.314,73.878z"/>
				<path d="M221.832,77.878h-0.518c-2.188,0-3.97-1.758-4-3.946c-0.03-2.188,1.704-3.993,3.892-4.053l2.214-0.047
					c0.026-0.001,0.053-0.001,0.079-0.001c2.167,0,3.947,1.731,3.997,3.908c0.051,2.202-1.689,4.031-3.892,4.091l-1.661,0.046
					C221.907,77.877,221.87,77.878,221.832,77.878z"/>
			</g>
			<g>
				<path fill="#585858" d="M227.721,73.878h-1.467c49.279,20.035,86.383,76.729,88.139,134.506
					c11.621-11.128,27.103-17.5,43.199-17.5c13.926,0,27.307,4.627,38.26,13.137C374.236,128.62,306.299,76.011,227.721,73.878z"/>
				<path d="M314.392,212.384c-0.51,0-1.024-0.098-1.514-0.298c-1.462-0.599-2.436-2.001-2.483-3.58
					c-1.713-56.382-37.733-111.442-85.647-130.923c-1.772-0.72-2.787-2.595-2.419-4.473s2.013-3.232,3.926-3.232h1.467
					c0.036,0,0.072,0.001,0.108,0.001c39.406,1.07,76.671,14.359,107.767,38.432c31.093,24.07,53.258,56.785,64.101,94.607
					c0.477,1.664-0.17,3.446-1.604,4.416c-1.435,0.969-3.329,0.905-4.695-0.154c-10.353-8.044-22.735-12.296-35.806-12.296
					c-15.037,0-29.396,5.82-40.433,16.389C316.4,212,315.404,212.384,314.392,212.384z M245.631,79.273
					c39.403,24.307,68.068,71.564,72.289,120.881c11.482-8.606,25.301-13.271,39.672-13.271c10.979,0,21.53,2.638,31.038,7.7
					C366.401,131.952,311.239,87.711,245.631,79.273z"/>
			</g>
			<g>
				<path fill="#585858" d="M226.771,73.757c-1.068,0-2.123,0.044-3.186,0.069c-0.037,0.017-0.074,0.035-0.111,0.052h6.779
					c-0.037-0.015-0.072-0.032-0.109-0.047C229.016,73.801,227.9,73.757,226.771,73.757z"/>
				<path d="M230.254,77.878h-6.779c-1.887,0-3.518-1.319-3.912-3.165s0.555-3.716,2.278-4.486l0.112-0.052
					c0.484-0.217,1.007-0.335,1.538-0.348l0.926-0.025c1.672-0.049,3.354-0.042,5.033,0.008l0.803,0.022
					c0.467,0.013,0.928,0.107,1.362,0.278c0.045,0.019,0.129,0.054,0.186,0.078c1.739,0.729,2.737,2.577,2.384,4.437
					C233.825,76.513,232.175,77.878,230.254,77.878z"/>
			</g>
			<g>
				<path fill="#585858" d="M230.252,73.837c0.49,0.008,0.98,0.027,1.469,0.041h0.506C231.572,73.854,230.908,73.851,230.252,73.837
					z"/>
				<path d="M232.227,77.878h-0.506c-0.037,0-0.075-0.001-0.112-0.002l-1.44-0.04c-2.205-0.046-3.957-1.867-3.916-4.072
					c0.041-2.184,1.823-3.927,3.998-3.927c0.022,0,0.043,0,0.065,0.001l0.659,0.011c0.466,0.008,0.933,0.016,1.395,0.032
					c2.18,0.078,3.896,1.888,3.856,4.068C236.187,76.131,234.408,77.878,232.227,77.878z"/>
			</g>
			<g>
				<g>
					<path fill="#585858" d="M228.596,77.13l-1.822,0.034h-0.002v133.222c0.346,0.284,0.537,0.447,0.537,0.447
						s26.184-19.943,44.402-19.943c18.221,0,31.432,6.309,43.041,17.332C312.926,151.792,276.674,96.507,228.596,77.13z"/>
					<path d="M227.31,214.833c-0.925,0-1.849-0.32-2.594-0.954c-0.014-0.013-0.185-0.157-0.484-0.403
						c-0.924-0.76-1.46-1.894-1.46-3.09V77.164c0-2.18,1.746-3.959,3.925-3.999l1.824-0.034c0.535-0.017,1.072,0.088,1.57,0.289
						c49.493,19.947,86.779,76.586,88.659,134.673c0.052,1.621-0.88,3.114-2.36,3.778c-1.479,0.663-3.215,0.369-4.392-0.749
						c-11.823-11.226-24.248-16.232-40.287-16.232c-16.676,0-41.728,18.935-41.979,19.125
						C229.015,214.562,228.162,214.833,227.31,214.833z M230.773,82.402l-0.002,121.095c9.08-6.071,26.867-16.607,40.939-16.607
						c14.73,0,27.15,3.922,38.434,12.237C305.142,148.837,273.048,101.334,230.773,82.402z"/>
				</g>
			</g>
			<g>
				<path fill="#585858" d="M224.951,77.199c-48.82,21.13-84.348,75.269-86.154,131.026c11.609-11.035,20.885-17.336,43.033-17.336
					c20.194,0,41.358,16.568,44.942,19.496V77.164L224.951,77.199z"/>
				<path d="M226.772,214.386c-0.905,0-1.803-0.308-2.531-0.902c-2.33-1.903-23.313-18.594-42.411-18.594
					c-21.583,0-29.959,6.429-40.277,16.235c-1.176,1.119-2.912,1.418-4.393,0.75c-1.481-0.664-2.414-2.157-2.361-3.779
					c1.862-57.469,38.281-112.805,88.563-134.567c0.478-0.207,0.991-0.318,1.512-0.328l1.82-0.035
					c1.106-0.03,2.111,0.391,2.878,1.144c0.767,0.752,1.199,1.781,1.199,2.855v133.222c0,1.545-0.89,2.952-2.286,3.614
					C227.939,214.259,227.354,214.386,226.772,214.386z M181.83,186.89c15.846,0,31.948,9.302,40.942,15.521V82.58
					c-42.844,20.356-74.282,66.705-79.335,116.236C153.581,190.761,163.722,186.89,181.83,186.89z"/>
			</g>
		</g>
	</g>
	<path display="inline" d="M11821.602,2582.67h-16737v-13953h16737V2582.67z M-4914.898,2581.67h16736l-0.5-13951h-16735.5
		l0.5,13951H-4914.898z"/>
</g>
<g id="linijsko" display="none">
	<g id="rde훾a7bela_copy" display="inline">
	</g>
</g>
<g id="pivot">
	<circle fill="none" cx="229.602" cy="372.151" r="14.133"/>
</g>
</svg>
