<?xml version="1.0" encoding="utf-8"?>
<!-- Generator: Adobe Illustrator 16.0.0, SVG Export Plug-In . SVG Version: 6.00 Build 0)  -->
<!DOCTYPE svg PUBLIC "-//W3C//DTD SVG 1.1//EN" "http://www.w3.org/Graphics/SVG/1.1/DTD/svg11.dtd">
<svg version="1.1" xmlns="http://www.w3.org/2000/svg" xmlns:xlink="http://www.w3.org/1999/xlink" x="0px" y="0px"
	 width="453.544px" height="453.543px" viewBox="0 0 453.544 453.543" enable-background="new 0 0 453.544 453.543"
	 xml:space="preserve">
<g id="kvadrat">
</g>
<g id="bg" display="none">
	<rect x="-8486.503" y="-2275.804" display="inline" width="15266.867" height="13678.951"/>
</g>
<g id="barvno" display="none">
	<g display="inline">
		<g>
			
				<path fill="#7E4E24" stroke="#000000" stroke-width="8" stroke-linecap="round" stroke-linejoin="round" stroke-miterlimit="10" d="
				M84.856,127.457c0,0,14.182,47.88,0,93.102c-14.188,45.217-10.632,86.889,0,112.615h80.695V312.78
				c0,0,46.997,20.395,91.33,20.395c44.335,0,107.292-10.64,119.708-15.071c0,0,10.648-35.471-25.718-42.573
				c-36.347-7.093-133.893-20.389-138.323-155.162l-64.353,46.185L84.856,127.457z"/>
		</g>
		
			<rect x="79.294" y="312.762" stroke="#000000" stroke-width="8" stroke-linecap="round" stroke-linejoin="round" stroke-miterlimit="10" width="86.258" height="20.251"/>
	</g>
	<g id="rde훾a7bela" display="inline">
	</g>
	
		<rect x="-8996.788" y="-2695.813" display="inline" fill="none" stroke="#000000" stroke-miterlimit="10" width="16736" height="13952"/>
</g>
<g id="barvno_copy_2">
	<g id="rde훾a7bela_copy_4">
	</g>
	<g>
		<g>
			<g>
				
					<path fill="#FF00FF" stroke="#000000" stroke-width="8" stroke-linecap="round" stroke-linejoin="round" stroke-miterlimit="10" d="
					M84.856,127.457c0,0,14.182,47.88,0,93.102c-14.188,45.217-10.632,86.889,0,112.615h80.695V312.78
					c0,0,46.997,20.395,91.33,20.395c44.335,0,107.292-10.64,119.708-15.071c0,0,10.648-35.471-25.718-42.573
					c-36.347-7.093-133.893-20.389-138.323-155.162l-64.353,46.185L84.856,127.457z"/>
			</g>
		</g>
	</g>
	<rect x="-8996.788" y="-2695.813" fill="none" stroke="#000000" stroke-miterlimit="10" width="16736" height="13952"/>
</g>
<g id="sivinsko" display="none">
	<g display="inline">
		<g>
			<g>
				<path fill="#585858" d="M84.856,127.457c0,0,14.182,47.88,0,93.102c-14.188,45.217-10.632,86.889,0,112.615h80.695V312.78
					c0,0,46.997,20.395,91.33,20.395c44.335,0,107.292-10.64,119.708-15.071c0,0,10.648-35.471-25.718-42.573
					c-36.347-7.093-133.893-20.389-138.323-155.162l-64.353,46.185L84.856,127.457z"/>
				<path d="M256.882,337.174c-36.175,0-73.446-13.048-87.33-18.452v14.452c0,2.209-1.791,4-4,4H84.856
					c-1.619,0-3.078-0.976-3.696-2.472c-12.924-31.272-12.969-74.39-0.12-115.341c13.658-43.554,0.119-90.302-0.019-90.768
					c-0.472-1.59,0.088-3.306,1.405-4.313c1.317-1.008,3.121-1.098,4.53-0.227l61.072,37.697l62.188-44.63
					c1.199-0.861,2.776-0.99,4.1-0.339c1.324,0.652,2.182,1.982,2.23,3.457c4.16,126.535,92.868,143.354,130.748,150.536
					c1.528,0.29,2.979,0.565,4.344,0.831c11.883,2.321,20.46,7.724,25.492,16.059c8.435,13.971,3.504,30.877,3.29,31.591
					c-0.365,1.218-1.289,2.189-2.486,2.617C365.145,326.436,302.044,337.174,256.882,337.174z M165.553,308.78
					c0.539,0,1.081,0.109,1.591,0.33c0.463,0.2,46.782,20.064,89.738,20.064c41.509,0,100.458-9.569,116.337-14.192
					c0.858-4.287,2.182-14.75-2.964-23.229c-3.82-6.294-10.6-10.431-20.149-12.296c-1.351-0.264-2.787-0.536-4.301-0.823
					c-39.012-7.396-129.379-24.537-136.912-150.717l-58.364,41.887c-1.312,0.942-3.061,1.001-4.433,0.154L91.033,135.97
					c3.446,16.521,8.352,51.629-2.36,85.785c-13.98,44.557-9.884,84.168-1.097,107.418h73.976V312.78
					c0-1.347,0.679-2.604,1.806-3.344C164.019,309.001,164.783,308.78,165.553,308.78z"/>
			</g>
		</g>
		<g>
			<rect x="79.294" y="312.762" width="86.258" height="20.251"/>
			<path d="M165.552,337.013H79.294c-2.209,0-4-1.791-4-4v-20.251c0-2.209,1.791-4,4-4h86.258c2.209,0,4,1.791,4,4v20.251
				C169.552,335.222,167.761,337.013,165.552,337.013z M83.294,329.013h78.258v-12.251H83.294V329.013z"/>
		</g>
	</g>
	<g id="rde훾a7bela_copy_3" display="inline">
	</g>
	<path display="inline" d="M7739.712,11256.688h-16737v-13953h16737V11256.688z M-8996.788,11255.688h16736l-0.5-13951h-16735.5
		l0.5,13951H-8996.788z"/>
</g>
<g id="linijsko" display="none">
	<g display="inline">
		<g>
			<path fill="none" stroke="#000000" stroke-width="8" stroke-linecap="round" stroke-linejoin="round" stroke-miterlimit="10" d="
				M84.856,127.457c0,0,14.182,47.88,0,93.102c-14.188,45.217-10.632,86.889,0,112.615h80.695V312.78
				c0,0,46.997,20.395,91.33,20.395c44.335,0,107.292-10.64,119.708-15.071c0,0,10.648-35.471-25.718-42.573
				c-36.347-7.093-133.893-20.389-138.323-155.162l-64.353,46.185L84.856,127.457z"/>
		</g>
		
			<rect x="79.294" y="312.762" fill="none" stroke="#000000" stroke-width="8" stroke-linecap="round" stroke-linejoin="round" stroke-miterlimit="10" width="86.258" height="20.251"/>
	</g>
	<g id="rde훾a7bela_copy" display="inline">
	</g>
</g>
<g id="pivot">
	<circle fill="none" cx="221.604" cy="330.415" r="14.133"/>
</g>
</svg>
