<?xml version="1.0" encoding="utf-8"?>
<!-- Generator: Adobe Illustrator 16.0.0, SVG Export Plug-In . SVG Version: 6.00 Build 0)  -->
<!DOCTYPE svg PUBLIC "-//W3C//DTD SVG 1.1//EN" "http://www.w3.org/Graphics/SVG/1.1/DTD/svg11.dtd">
<svg version="1.1" xmlns="http://www.w3.org/2000/svg" xmlns:xlink="http://www.w3.org/1999/xlink" x="0px" y="0px"
	 width="453.543px" height="453.543px" viewBox="0 0 453.543 453.543" enable-background="new 0 0 453.543 453.543"
	 xml:space="preserve">
<g id="kvadrat">
</g>
<g id="bg" display="none">
	<rect x="-3384.14" y="-10439.585" display="inline" width="15266.867" height="13678.951"/>
</g>
<g id="barvno" display="none">
	<g id="rde훾a7bela" display="inline">
	</g>
	<g display="inline">
		<g>
			
				<path fill="#00497E" stroke="#000000" stroke-width="8" stroke-linecap="round" stroke-linejoin="round" stroke-miterlimit="10" d="
				M359.264,321.94v-51.571c0-73.175-59.318-132.491-132.492-132.491c-73.172,0-132.492,59.316-132.492,132.491v51.571H359.264z"/>
			<g>
				<path fill="#57B2E5" d="M373.256,361.873c0,5.501-4.5,10.001-10,10.001H90.288c-5.5,0-10-4.5-10-10.001v-45.525
					c0-5.5,4.5-10,10-10h272.968c5.5,0,10,4.5,10,10V361.873z"/>
				
					<path fill="none" stroke="#000000" stroke-width="8" stroke-linecap="round" stroke-linejoin="round" stroke-miterlimit="10" d="
					M373.256,361.873c0,5.501-4.5,10.001-10,10.001H90.288c-5.5,0-10-4.5-10-10.001v-45.525c0-5.5,4.5-10,10-10h272.968
					c5.5,0,10,4.5,10,10V361.873z"/>
			</g>
			
				<line fill="none" stroke="#000000" stroke-width="8" stroke-linecap="round" stroke-linejoin="round" stroke-miterlimit="10" x1="227.174" y1="137.878" x2="227.174" y2="191.823"/>
			<path fill="none" stroke="#000000" stroke-width="8" stroke-linecap="round" stroke-linejoin="round" stroke-miterlimit="10" d="
				M287.709,210.062c0,0-24.117-70.979-60.535-70.979s-58.924,70.979-58.924,70.979"/>
			
				<circle fill="#57B2E5" stroke="#000000" stroke-width="8" stroke-linecap="round" stroke-linejoin="round" stroke-miterlimit="10" cx="226.773" cy="117.496" r="35.827"/>
		</g>
	</g>
	
		<rect x="-3894.425" y="-10859.594" display="inline" fill="none" stroke="#000000" stroke-miterlimit="10" width="16736" height="13952"/>
</g>
<g id="barvno_copy_2">
	<g id="rde훾a7bela_copy_4">
	</g>
	<g>
		<g>
			<g>
				<path fill="#0000FF" d="M359.264,321.94v-51.571c0-73.175-59.318-132.491-132.492-132.491
					c-73.172,0-132.492,59.316-132.492,132.491v51.571H359.264z"/>
				<path d="M359.264,325.94H94.28c-2.209,0-4-1.791-4-4v-51.571c0-75.262,61.23-136.491,136.492-136.491
					s136.492,61.229,136.492,136.491v51.571C363.264,324.149,361.473,325.94,359.264,325.94z M98.28,317.94h256.984v-47.571
					c0-70.851-57.641-128.491-128.492-128.491S98.28,199.519,98.28,270.369V317.94z"/>
			</g>
			<g>
				<path fill="#00FFFF" d="M373.256,361.873c0,5.501-4.5,10.001-10,10.001H90.288c-5.5,0-10-4.5-10-10.001v-45.525
					c0-5.5,4.5-10,10-10h272.968c5.5,0,10,4.5,10,10V361.873z"/>
				<path d="M363.256,375.874H90.288c-7.72,0-14-6.281-14-14.001v-45.525c0-7.72,6.281-14,14-14h272.968c7.72,0,14,6.28,14,14
					v45.525C377.256,369.593,370.976,375.874,363.256,375.874z M90.288,310.348c-3.309,0-6,2.691-6,6v45.525
					c0,3.309,2.692,6.001,6,6.001h272.968c3.309,0,6-2.692,6-6.001v-45.525c0-3.309-2.692-6-6-6H90.288z"/>
			</g>
			<path d="M227.174,195.823c-2.209,0-4-1.791-4-4v-53.945c0-2.209,1.791-4,4-4s4,1.791,4,4v53.945
				C231.174,194.032,229.383,195.823,227.174,195.823z"/>
			<path d="M287.709,214.063c-1.665,0-3.22-1.049-3.787-2.713c-0.232-0.683-23.615-68.268-56.748-68.268
				c-33.071,0-54.895,67.508-55.111,68.189c-0.668,2.105-2.916,3.263-5.022,2.603c-2.105-0.669-3.271-2.916-2.603-5.021
				c0.955-3.012,23.838-73.771,62.737-73.771c38.837,0,63.3,70.684,64.323,73.692c0.71,2.092-0.409,4.362-2.5,5.073
				C288.57,213.993,288.136,214.063,287.709,214.063z"/>
			<g>
				<circle fill="#00FFFF" cx="226.773" cy="117.496" r="35.827"/>
				<path d="M226.772,157.323c-21.96,0-39.826-17.866-39.826-39.827s17.866-39.827,39.826-39.827
					c21.961,0,39.828,17.866,39.828,39.827S248.733,157.323,226.772,157.323z M226.772,85.669
					c-17.549,0-31.826,14.277-31.826,31.827s14.277,31.827,31.826,31.827c17.55,0,31.828-14.277,31.828-31.827
					S244.322,85.669,226.772,85.669z"/>
			</g>
		</g>
	</g>
	<rect x="-3894.425" y="-10859.594" fill="none" stroke="#000000" stroke-miterlimit="10" width="16736" height="13952"/>
</g>
<g id="sivinsko" display="none">
	<g id="rde훾a7bela_copy_3" display="inline">
	</g>
	<g display="inline">
		<g>
			<g>
				<path fill="#393939" d="M359.264,321.94v-51.571c0-73.175-59.318-132.491-132.492-132.491
					c-73.172,0-132.492,59.316-132.492,132.491v51.571H359.264z"/>
				<path d="M359.264,325.94H94.28c-2.209,0-4-1.791-4-4v-51.571c0-75.262,61.23-136.491,136.492-136.491
					s136.492,61.229,136.492,136.491v51.571C363.264,324.149,361.473,325.94,359.264,325.94z M98.28,317.94h256.984v-47.571
					c0-70.851-57.641-128.491-128.492-128.491S98.28,199.519,98.28,270.369V317.94z"/>
			</g>
			<g>
				<g>
					<path fill="#9C9C9C" d="M373.256,361.873c0,5.501-4.5,10.001-10,10.001H90.288c-5.5,0-10-4.5-10-10.001v-45.525
						c0-5.5,4.5-10,10-10h272.968c5.5,0,10,4.5,10,10V361.873z"/>
				</g>
				<path d="M363.256,375.874H90.288c-7.72,0-14-6.281-14-14.001v-45.525c0-7.72,6.281-14,14-14h272.968c7.72,0,14,6.28,14,14
					v45.525C377.256,369.593,370.976,375.874,363.256,375.874z M90.288,310.348c-3.309,0-6,2.691-6,6v45.525
					c0,3.309,2.692,6.001,6,6.001h272.968c3.309,0,6-2.692,6-6.001v-45.525c0-3.309-2.692-6-6-6H90.288z"/>
			</g>
			<path d="M227.174,195.823c-2.209,0-4-1.791-4-4v-53.945c0-2.209,1.791-4,4-4s4,1.791,4,4v53.945
				C231.174,194.032,229.383,195.823,227.174,195.823z"/>
			<path d="M287.709,214.063c-1.665,0-3.22-1.049-3.787-2.713c-0.232-0.683-23.615-68.268-56.748-68.268
				c-33.071,0-54.895,67.508-55.111,68.189c-0.668,2.105-2.916,3.263-5.022,2.603c-2.105-0.669-3.271-2.916-2.603-5.021
				c0.955-3.012,23.838-73.771,62.737-73.771c38.837,0,63.3,70.684,64.323,73.692c0.71,2.092-0.409,4.362-2.5,5.073
				C288.57,213.993,288.136,214.063,287.709,214.063z"/>
			<g>
				<circle fill="#9C9C9C" cx="226.773" cy="117.496" r="35.827"/>
				<path d="M226.772,157.323c-21.96,0-39.826-17.866-39.826-39.827s17.866-39.827,39.826-39.827
					c21.961,0,39.828,17.866,39.828,39.827S248.733,157.323,226.772,157.323z M226.772,85.669
					c-17.549,0-31.826,14.277-31.826,31.827s14.277,31.827,31.826,31.827c17.55,0,31.828-14.277,31.828-31.827
					S244.322,85.669,226.772,85.669z"/>
			</g>
		</g>
	</g>
	<path display="inline" d="M12842.074,3092.906h-16737v-13953h16737V3092.906z M-3894.425,3091.906h16736l-0.5-13951h-16735.5
		l0.5,13951H-3894.425z"/>
</g>
<g id="linijsko" display="none">
	<g id="rde훾a7bela_copy" display="inline">
	</g>
</g>
<g id="pivot">
	<circle fill="none" cx="226.253" cy="370.406" r="14.133"/>
</g>
</svg>
