<?xml version="1.0" encoding="utf-8"?>
<!-- Generator: Adobe Illustrator 16.0.0, SVG Export Plug-In . SVG Version: 6.00 Build 0)  -->
<!DOCTYPE svg PUBLIC "-//W3C//DTD SVG 1.1//EN" "http://www.w3.org/Graphics/SVG/1.1/DTD/svg11.dtd">
<svg version="1.1" id="Layer_1" xmlns="http://www.w3.org/2000/svg" xmlns:xlink="http://www.w3.org/1999/xlink" x="0px" y="0px"
	 width="453.543px" height="453.543px" viewBox="0 0 453.543 453.543" enable-background="new 0 0 453.543 453.543"
	 xml:space="preserve">
<g id="kvadrat">
</g>
<g id="bg" display="none">
	<rect x="-322.723" y="-2275.804" display="inline" width="15266.867" height="13678.95"/>
</g>
<g id="barvno" display="none">
	
		<path display="inline" fill="#39A935" stroke="#000000" stroke-width="8" stroke-linecap="round" stroke-linejoin="round" stroke-miterlimit="10" d="
		M385.169,116.774c-4.548-4.311-34.108-19.336-64.36-27.747c-18.951-5.272-41.213-4.909-48.348-7.112
		c-6.424,18.935-18.247,31.838-45.689,32.099c-27.442-0.261-39.265-13.164-45.689-32.099c-7.134,2.203-29.395,1.84-48.346,7.112
		c-30.253,8.411-59.813,23.436-64.362,27.747c-7.396,7.01,11.744,63.077,17.942,69.275c6.197,6.199,61.705-19.51,61.705-19.51
		s-28.73,188.816-19.201,198.345c8.991,8.99,186.912,8.99,195.902,0c9.529-9.528-19.199-198.345-19.199-198.345
		s55.506,25.709,61.705,19.51C373.425,179.852,392.566,123.784,385.169,116.774z"/>
	<g id="rde훾a7bela" display="inline">
	</g>
	
		<rect x="-833.008" y="-2695.813" display="inline" fill="none" stroke="#000000" stroke-miterlimit="10" width="16736" height="13952"/>
</g>
<g id="barvno_copy_2">
	<g id="rde훾a7bela_copy_4">
	</g>
	<g>
		<g>
			<path fill="#00FF00" d="M385.169,116.774c-4.548-4.311-34.108-19.336-64.36-27.747c-18.951-5.272-41.213-4.909-48.348-7.112
				c-6.424,18.935-18.247,31.838-45.689,32.099c-27.442-0.261-39.265-13.164-45.689-32.099c-7.134,2.203-29.395,1.84-48.346,7.112
				c-30.253,8.411-59.813,23.436-64.362,27.747c-7.396,7.01,11.744,63.077,17.942,69.275c6.197,6.199,61.705-19.51,61.705-19.51
				s-28.73,188.816-19.201,198.345c8.991,8.99,186.912,8.99,195.902,0c9.529-9.528-19.199-198.345-19.199-198.345
				s55.506,25.709,61.705,19.51C373.425,179.852,392.566,123.784,385.169,116.774z"/>
			<path d="M226.772,375.627c-24.382,0-47.487-0.602-65.061-1.694c-31.452-1.954-34.228-4.729-35.719-6.221
				c-2.564-2.563-7.337-7.336,4.886-106.065c4.559-36.825,9.861-73.321,12.102-88.44c-13.316,5.9-41.609,17.807-53.081,17.807
				c-2.877,0-4.974-0.699-6.411-2.137c-6.2-6.2-21.021-48.226-20.785-65.938c0.059-4.354,0.986-7.236,2.92-9.069
				c5.421-5.138,36.304-20.43,66.042-28.698c11.756-3.271,24.372-4.403,34.508-5.313c6.059-0.544,11.292-1.014,13.729-1.767
				c2.069-0.641,4.272,0.485,4.968,2.537c6.915,20.383,19.458,29.17,41.939,29.384c22.406-0.214,34.948-9.001,41.863-29.384
				c0.697-2.052,2.896-3.176,4.969-2.537c2.438,0.752,7.67,1.223,13.729,1.767c10.137,0.91,22.753,2.042,34.51,5.313
				c29.739,8.269,60.62,23.56,66.04,28.698c1.934,1.832,2.861,4.713,2.92,9.067c0.238,17.711-14.583,59.737-20.784,65.938
				c-1.438,1.438-3.534,2.137-6.41,2.137c-0.001,0-0.001,0-0.001,0c-11.474,0-39.765-11.906-53.08-17.807
				c2.24,15.119,7.542,51.614,12.101,88.439c12.222,98.729,7.449,103.502,4.885,106.065c-1.491,1.491-4.267,4.267-35.718,6.221
				C274.26,375.025,251.154,375.627,226.772,375.627z M131.762,362.062c5.452,2.73,40.023,5.565,95.01,5.565
				c54.986,0,89.558-2.835,95.009-5.565c1.104-2.867,3.051-18.405-7.354-101.848c-5.854-46.94-12.788-92.617-12.857-93.073
				c-0.222-1.456,0.375-2.916,1.553-3.8c1.177-0.884,2.744-1.052,4.082-0.431c12.074,5.591,45.751,20.104,56.441,20.104
				c0.001,0,0.001,0,0.001,0c0.493,0,0.812-0.037,0.996-0.068c2.138-2.668,7.658-15.224,12.479-31.227
				c6.711-22.279,6.066-30.666,5.225-32.108c-4.299-3.927-33.489-18.633-62.608-26.729c-11.056-3.076-23.269-4.172-33.082-5.053
				c-4.605-0.414-8.553-0.768-11.628-1.267c-8.36,21.48-23.37,31.216-48.217,31.453c-24.919-0.237-39.933-9.973-48.293-31.453
				c-3.075,0.499-7.022,0.853-11.627,1.267c-9.813,0.881-22.026,1.978-33.08,5.053c-29.119,8.096-58.311,22.803-62.61,26.73
				c-0.842,1.443-1.486,9.83,5.225,32.107c4.821,16.003,10.342,28.559,12.479,31.227c0.185,0.032,0.504,0.069,0.997,0.069
				c10.691,0,44.368-14.512,56.441-20.104c1.335-0.619,2.905-0.454,4.083,0.431c1.178,0.884,1.774,2.344,1.553,3.8
				c-0.069,0.456-7.007,46.147-12.86,93.088C128.713,343.653,130.658,359.193,131.762,362.062z"/>
		</g>
	</g>
	<g>
		<path d="M15903.492,11256.688h-16737v-13953h16737V11256.688z M-833.008,11255.688h16736l-0.5-13951h-16735.5l0.5,13951H-833.008z
			"/>
	</g>
</g>
<g id="sivinsko" display="none">
	<g display="inline">
		<path fill="#7B7B7B" d="M385.169,116.774c-4.548-4.311-34.108-19.336-64.36-27.747c-18.951-5.272-41.213-4.909-48.348-7.112
			c-6.424,18.935-18.247,31.838-45.689,32.099c-27.442-0.261-39.265-13.164-45.689-32.099c-7.134,2.203-29.395,1.84-48.346,7.112
			c-30.253,8.411-59.813,23.436-64.362,27.747c-7.396,7.01,11.744,63.077,17.942,69.275c6.197,6.199,61.705-19.51,61.705-19.51
			s-28.73,188.816-19.201,198.345c8.991,8.99,186.912,8.99,195.902,0c9.529-9.528-19.199-198.345-19.199-198.345
			s55.506,25.709,61.705,19.51C373.425,179.852,392.566,123.784,385.169,116.774z"/>
		<path d="M226.772,375.627c-24.382,0-47.488-0.602-65.061-1.694c-31.452-1.954-34.228-4.729-35.719-6.221
			c-2.564-2.563-7.337-7.337,4.886-106.065c4.559-36.826,9.861-73.321,12.102-88.44c-13.316,5.9-41.61,17.807-53.082,17.807
			c-2.876,0-4.974-0.699-6.411-2.136c-6.2-6.201-21.022-48.228-20.784-65.939c0.059-4.354,0.986-7.235,2.92-9.068
			c5.422-5.139,36.306-20.43,66.042-28.697c11.756-3.27,24.372-4.403,34.508-5.313c6.059-0.544,11.292-1.014,13.729-1.766
			c2.07-0.639,4.272,0.485,4.968,2.537c6.916,20.384,19.458,29.17,41.939,29.384c22.405-0.213,34.947-9,41.863-29.384
			c0.696-2.05,2.896-3.176,4.969-2.537c2.438,0.752,7.67,1.222,13.729,1.766c10.137,0.91,22.752,2.043,34.509,5.313
			c29.735,8.268,60.619,23.56,66.041,28.697c1.935,1.833,2.862,4.714,2.92,9.068c0.238,17.711-14.583,59.738-20.784,65.939
			c-1.438,1.437-3.535,2.136-6.41,2.136h-0.002c-11.473-0.001-39.765-11.906-53.08-17.807c2.24,15.119,7.543,51.614,12.102,88.44
			c12.222,98.729,7.449,103.502,4.885,106.065c-1.49,1.491-4.266,4.267-35.718,6.221
			C274.26,375.026,251.154,375.627,226.772,375.627z M131.763,362.063c5.451,2.729,40.023,5.564,95.009,5.564
			s89.558-2.835,95.009-5.564c1.104-2.867,3.051-18.406-7.355-101.849c-5.854-46.94-12.79-92.617-12.857-93.073
			c-0.221-1.456,0.375-2.916,1.553-3.8c1.178-0.884,2.746-1.05,4.083-0.431c12.073,5.592,45.752,20.104,56.442,20.105l0,0
			c0.492,0,0.811-0.036,0.996-0.068c2.137-2.669,7.658-15.224,12.479-31.227c6.711-22.277,6.066-30.665,5.225-32.108
			c-4.301-3.927-33.492-18.634-62.609-26.729c-11.055-3.075-23.268-4.172-33.08-5.053c-4.605-0.414-8.553-0.768-11.629-1.267
			c-8.36,21.481-23.37,31.217-48.216,31.453c-24.918-0.236-39.932-9.972-48.293-31.453c-3.075,0.499-7.023,0.854-11.628,1.267
			c-9.814,0.881-22.026,1.978-33.08,5.053c-29.117,8.095-58.31,22.802-62.61,26.729c-0.842,1.443-1.486,9.831,5.225,32.108
			c4.82,16.003,10.342,28.558,12.479,31.227c0.185,0.032,0.503,0.068,0.997,0.068c10.687,0,44.367-14.513,56.442-20.105
			c1.336-0.619,2.905-0.453,4.083,0.431c1.178,0.884,1.774,2.344,1.553,3.8c-0.069,0.456-7.007,46.148-12.86,93.087
			C128.712,343.653,130.658,359.194,131.763,362.063z"/>
	</g>
	<g id="rde훾a7bela_copy_3" display="inline">
	</g>
	<path display="inline" d="M15903.492,11256.689h-16737V-2696.312h16737V11256.689z M-833.008,11255.689h16736l-0.5-13951.001
		h-16735.5l0.5,13951.001H-833.008z"/>
</g>
<g id="linijsko" display="none">
	<g id="rde훾a7bela_copy" display="inline">
	</g>
	
		<path display="inline" fill="none" stroke="#000000" stroke-width="8" stroke-linecap="square" stroke-linejoin="round" stroke-miterlimit="10" d="
		M385.169,116.774c-4.548-4.311-34.108-19.336-64.36-27.747c-18.951-5.272-41.213-4.909-48.348-7.112
		c-6.424,18.935-18.247,31.838-45.689,32.099c-27.442-0.261-39.265-13.164-45.689-32.099c-7.134,2.203-29.395,1.84-48.346,7.112
		c-30.253,8.411-59.813,23.436-64.362,27.747c-7.396,7.01,11.744,63.077,17.942,69.275c6.197,6.199,61.705-19.51,61.705-19.51
		s-28.73,188.816-19.201,198.345c8.991,8.99,186.912,8.99,195.902,0c9.529-9.528-19.199-198.345-19.199-198.345
		s55.506,25.709,61.705,19.51C373.425,179.852,392.566,123.784,385.169,116.774z"/>
</g>
<g id="pivot">
	<circle fill="none" cx="225.662" cy="368.034" r="14.133"/>
</g>
</svg>
