<?xml version="1.0" encoding="utf-8"?>
<!-- Generator: Adobe Illustrator 16.0.0, SVG Export Plug-In . SVG Version: 6.00 Build 0)  -->
<!DOCTYPE svg PUBLIC "-//W3C//DTD SVG 1.1//EN" "http://www.w3.org/Graphics/SVG/1.1/DTD/svg11.dtd">
<svg version="1.1" xmlns="http://www.w3.org/2000/svg" xmlns:xlink="http://www.w3.org/1999/xlink" x="0px" y="0px"
	 width="453.543px" height="453.543px" viewBox="0 0 453.543 453.543" enable-background="new 0 0 453.543 453.543"
	 xml:space="preserve">
<g id="kvadrat">
</g>
<g id="bg" display="none">
	<rect x="-2873.904" y="-12990.767" display="inline" width="15266.867" height="13678.951"/>
</g>
<g id="barvno" display="none">
	<g id="rde훾a7bela" display="inline">
	</g>
	<g display="inline">
		<g>
			<g id="XMLID_8_">
				<g>
					<path fill="#E20613" d="M363.043,381.626c0,0-47.18,17.09-134.17,17.83v0.029c-0.71,0-1.4-0.02-2.11-0.029
						c-0.69,0.01-1.39,0.029-2.1,0.029v-0.029c-87-0.74-134.16-16.83-134.16-16.83c10.49-65.83,60.12-136.74,60.12-136.74h152.29
						C302.914,245.886,352.543,315.785,363.043,381.626z"/>
					<path fill="#E20613" d="M302.914,154.246v91.64h-152.29v-91.64c39.12-22.9,13.35-94.461,13.35-94.461l27.67-5.729
						c0,0,24.74,54.4,35.13,54.4c10.4,0,35.12-54.4,35.12-54.4l27.66,5.729C289.553,59.785,263.793,131.346,302.914,154.246z"/>
				</g>
				<g>
					
						<path fill="none" stroke="#000000" stroke-width="8" stroke-linecap="round" stroke-linejoin="round" stroke-miterlimit="10" d="
						M302.914,245.886v-91.64c-39.12-22.9-13.36-94.461-13.36-94.461l-27.66-5.729c0,0-24.72,54.4-35.12,54.4
						c-10.39,0-35.13-54.4-35.13-54.4l-27.67,5.729c0,0,25.77,71.561-13.35,94.461v91.64"/>
					
						<path fill="none" stroke="#000000" stroke-width="8" stroke-linecap="round" stroke-linejoin="round" stroke-miterlimit="10" d="
						M302.914,245.886h-152.29c0,0-49.63,70.91-60.12,136.74c0,0,47.16,16.09,134.16,16.83v0.029c0.71,0,1.41-0.02,2.1-0.029
						c0.71,0.01,1.4,0.029,2.11,0.029v-0.029c86.99-0.74,134.17-17.83,134.17-17.83
						C352.543,315.785,302.914,245.886,302.914,245.886z"/>
				</g>
			</g>
			<path fill="none" stroke="#000000" stroke-width="8" stroke-linecap="round" stroke-linejoin="round" stroke-miterlimit="10" d="
				M158.121,393.716c0,0,9.26-120.912,26.631-147.83"/>
			<path fill="none" stroke="#000000" stroke-width="8" stroke-linecap="round" stroke-linejoin="round" stroke-miterlimit="10" d="
				M297.633,393.716c0,0-9.26-120.912-26.631-147.83"/>
			
				<line fill="none" stroke="#000000" stroke-width="8" stroke-linecap="round" stroke-linejoin="round" stroke-miterlimit="10" x1="226.766" y1="245.886" x2="226.766" y2="399.46"/>
		</g>
	</g>
	
		<rect x="-3384.189" y="-13410.775" display="inline" fill="none" stroke="#000000" stroke-miterlimit="10" width="16736" height="13952"/>
</g>
<g id="barvno_copy_2">
	<g id="rde훾a7bela_copy_4">
	</g>
	<g>
		<g>
			<g id="XMLID_30_">
				<g>
					<path fill="#00FF00" d="M363.043,381.626c0,0-47.18,17.09-134.17,17.83v0.029c-0.71,0-1.4-0.02-2.11-0.029
						c-0.69,0.01-1.39,0.029-2.1,0.029v-0.029c-87-0.74-134.16-16.83-134.16-16.83c10.49-65.83,60.12-136.74,60.12-136.74h152.29
						C302.914,245.886,352.543,315.785,363.043,381.626z"/>
					<path fill="#FF00FF" d="M302.914,154.246v91.64h-152.29v-91.64c39.12-22.9,13.35-94.461,13.35-94.461l27.67-5.729
						c0,0,24.74,54.4,35.13,54.4c10.4,0,35.12-54.4,35.12-54.4l27.66,5.729C289.553,59.785,263.793,131.346,302.914,154.246z"/>
				</g>
				<g>
					<path d="M302.914,249.886c-2.209,0-4-1.791-4-4v-89.415c-33.643-22.071-19.542-77.549-14.56-93.678l-20.168-4.178
						c-2.243,4.77-7.029,14.717-12.447,24.568c-14.187,25.795-20.581,29.272-24.965,29.272c-4.38,0-10.772-3.478-24.966-29.271
						c-5.421-9.853-10.211-19.801-12.456-24.569l-20.178,4.178c4.983,16.13,19.092,71.605-14.551,93.678v89.415c0,2.209-1.791,4-4,4
						s-4-1.791-4-4v-91.64c0-1.421,0.753-2.734,1.979-3.452c35.789-20.95,11.853-88.971,11.607-89.655
						c-0.392-1.09-0.292-2.298,0.275-3.309c0.566-1.011,1.543-1.727,2.678-1.962l27.67-5.729c1.829-0.372,3.678,0.561,4.452,2.261
						c0.059,0.129,5.944,13.039,13.047,26.043c12.456,22.806,17.585,25.649,18.443,25.982c0.858-0.332,5.993-3.175,18.457-26.014
						c7.097-13.005,12.962-25.882,13.021-26.011c0.773-1.702,2.622-2.638,4.453-2.262l27.66,5.729
						c1.135,0.235,2.111,0.951,2.678,1.962s0.667,2.218,0.275,3.309c-0.246,0.685-24.172,68.705,11.617,89.655
						c1.226,0.718,1.979,2.031,1.979,3.452v91.64C306.914,248.095,305.123,249.886,302.914,249.886z"/>
					<path d="M228.874,403.485c-0.495,0-0.981-0.009-1.471-0.018l-0.639-0.011l-0.605,0.01c-0.667,0.013-1.36,0.069-2.017-0.016
						c-86.335-0.792-132.983-16.375-134.929-17.039c-1.843-0.629-2.965-2.493-2.659-4.416
						c10.515-65.98,58.745-135.478,60.793-138.404c0.749-1.069,1.972-1.706,3.277-1.706h152.29c1.296,0,2.511,0.628,3.261,1.685
						c2.049,2.885,50.292,71.421,60.818,137.426c0.302,1.895-0.784,3.737-2.588,4.391c-1.949,0.706-48.651,17.269-135.014,18.064
						C229.222,403.474,229.049,403.485,228.874,403.485z M95.035,379.831c12.007,3.488,57.039,15.007,129.663,15.625
						c0.146,0.001,0.289,0.011,0.43,0.026c0.295-0.003,0.589-0.009,0.881-0.014l0.698-0.013c0.037,0,0.074,0,0.112,0l0.733,0.013
						c0.286,0.006,0.571,0.011,0.858,0.014c0.141-0.016,0.284-0.025,0.43-0.026c72.738-0.619,117.798-12.893,129.683-16.564
						c-10.34-57.577-50.345-118.214-57.707-129.006H152.738C145.381,260.818,105.386,322.232,95.035,379.831z"/>
				</g>
			</g>
			<g>
				<path d="M158.125,397.716c-0.103,0-0.206-0.004-0.31-0.012c-2.203-0.169-3.852-2.091-3.683-4.294
					c0.381-4.979,9.541-122.239,27.259-149.693c1.198-1.856,3.674-2.389,5.53-1.192c1.856,1.198,2.39,3.674,1.192,5.53
					c-16.629,25.768-25.912,144.768-26.004,145.967C161.949,396.12,160.196,397.716,158.125,397.716z"/>
			</g>
			<g>
				<path d="M297.629,397.716c-2.07,0-3.823-1.596-3.984-3.694c-0.092-1.199-9.378-120.204-26.003-145.967
					c-1.198-1.856-0.664-4.332,1.192-5.53c1.856-1.196,4.332-0.664,5.53,1.192c17.718,27.454,26.877,144.715,27.258,149.693
					c0.169,2.203-1.48,4.125-3.683,4.294C297.835,397.712,297.731,397.716,297.629,397.716z"/>
			</g>
			<g>
				<path d="M226.766,403.46c-2.209,0-4-1.791-4-4V245.886c0-2.209,1.791-4,4-4s4,1.791,4,4V399.46
					C230.766,401.669,228.975,403.46,226.766,403.46z"/>
			</g>
		</g>
	</g>
	<rect x="-3384.189" y="-13410.775" fill="none" stroke="#000000" stroke-miterlimit="10" width="16736" height="13952"/>
</g>
<g id="sivinsko" display="none">
	<g id="rde훾a7bela_copy_3" display="inline">
	</g>
	<path display="inline" d="M13352.311,541.725h-16737v-13953h16737V541.725z M-3384.189,540.725h16736l-0.5-13951h-16735.5
		l0.5,13951H-3384.189z"/>
	<g display="inline">
		<g>
			<path fill="#C6C6C5" d="M303.161,245.61v-0.07c1.83,2.59,49.89,71.551,60.13,135.771c0.02,0.12-0.05,0.229-0.17,0.27
				c-0.47,0.181-48.17,17.101-134.14,17.851c-0.03,0.02-0.07,0.029-0.11,0.029c-0.48,0-0.95-0.01-1.42-0.02l-0.69-0.01l-0.65,0.01
				c-0.48,0.01-0.96,0.02-1.45,0.02c-0.04,0-0.09-0.01-0.12-0.029c-85.97-0.75-133.65-16.681-134.12-16.84
				c-0.12-0.041-0.19-0.16-0.17-0.28c10.23-64.209,58.29-134.13,60.12-136.771v0.07"/>
			<path d="M228.871,403.46c-0.509,0-1.007-0.01-1.505-0.021l-0.602-0.009l-0.591,0.009c-0.658,0.014-1.367,0.074-2.051-0.013
				c-86.236-0.799-134.511-16.887-134.989-17.049c-1.977-0.662-3.174-2.651-2.828-4.727c10.373-65.103,58.725-135.427,60.779-138.39
				c0.996-1.438,2.81-2.062,4.481-1.539c1.669,0.522,2.806,2.068,2.806,3.817c0,0.935-0.32,1.8-0.857,2.488
				c-3.432,4.982-47.832,70.351-58.771,131.7c11.759,3.415,57.092,15.067,129.832,15.702c0.147,0.001,0.294,0.011,0.44,0.027
				c0.339-0.003,0.675-0.01,1.011-0.017l0.673-0.011c0.039,0,0.08,0,0.12,0l0.69,0.01c0.342,0.008,0.67,0.015,0.999,0.018
				c0.145-0.018,0.291-0.026,0.438-0.027c73.461-0.641,118.386-13.055,129.862-16.641c-10.778-60.321-54.585-124.69-58.62-130.52
				c-0.638-0.7-1.027-1.63-1.027-2.66v-0.07c0-1.742,1.128-3.284,2.789-3.813c1.66-0.527,3.472,0.081,4.478,1.504
				c2.051,2.903,50.352,71.841,60.813,137.449c0.341,2.042-0.858,4.028-2.855,4.694h0c-3.181,1.109-51.386,17.272-134.979,18.052
				C229.23,403.449,229.051,403.46,228.871,403.46z"/>
		</g>
		<path d="M268.995,249.05c-0.62-0.64-0.979-1.053-1.241-1.425l6.547-4.598l-0.063-0.085c0.105,0.13,0.277,0.309,0.503,0.543
			L268.995,249.05z"/>
		<path d="M151.566,251.519l-3.415-2.447c-1.115-0.798-1.78-2.092-1.78-3.461v-1.325l0.71-1.017c0.004-0.006,0.008-0.013,0.013-0.02
			l-0.019,0.026l0.333-0.442c0.239-0.277,0.512-0.521,0.812-0.727l0.338-0.468l0.574-0.008c0.469-0.177,0.973-0.271,1.489-0.271
			h152.29c0.496,0,0.98,0.087,1.433,0.25h0.63l0.367,0.516c0.276,0.193,0.53,0.42,0.754,0.676l0.143,0.146l0.17,0.256l0.752,0.994
			v1.343c0,1.584-0.813,2.99-2.121,3.74l-3.183,1.825l-1.038-1.495H152.796L151.566,251.519z"/>
		<path d="M302.911,249.86h-152.29c-0.667,0-1.316-0.156-1.93-0.463l-3.988-1.996l2.416-3.748c0.155-0.24,0.242-0.36,0.242-0.36
			l1.198-1.652l2.063-0.03h154.353l3.562,5.086l-3.083,2.313C304.72,249.559,303.818,249.86,302.911,249.86z"/>
		<g>
			<path d="M158.124,397.44c-0.102,0-0.206-0.004-0.31-0.012c-2.203-0.169-3.852-2.091-3.683-4.294
				c0.381-4.978,9.541-122.239,27.258-149.694c1.198-1.855,3.673-2.39,5.53-1.191c1.856,1.197,2.39,3.674,1.192,5.529
				c-16.626,25.764-25.912,144.769-26.003,145.968C161.947,395.845,160.194,397.44,158.124,397.44z"/>
		</g>
		<g>
			<path d="M297.626,397.44c-2.07,0-3.823-1.596-3.984-3.694c-0.092-1.199-9.377-120.204-26.003-145.968
				c-1.198-1.855-0.664-4.332,1.192-5.529c1.856-1.198,4.332-0.664,5.53,1.191c17.717,27.455,26.877,144.717,27.258,149.694
				c0.169,2.203-1.48,4.125-3.683,4.294C297.833,397.437,297.729,397.44,297.626,397.44z"/>
		</g>
		<g>
			<path d="M226.764,403.185c-2.209,0-4-1.791-4-4V245.61c0-2.21,1.791-4,4-4s4,1.79,4,4v153.574
				C230.764,401.394,228.973,403.185,226.764,403.185z"/>
		</g>
		<g>
			<path fill="#6F6F6E" d="M150.42,245.47c0.04-0.069,0.12-0.109,0.2-0.109h0.25v-91.25c20.21-11.92,22.76-37.009,21.34-55.98
				c-1.43-19.17-7.1-36.1-7.91-38.43l27.2-5.63c1.83,4.021,25.04,54.36,35.27,54.36c10.24,0,33.43-50.34,35.26-54.36l27.19,5.63
				c-0.81,2.33-6.48,19.26-7.91,38.43c-1.42,18.972,1.14,44.061,21.35,55.98v91.25h0.25c0.08,0,0.16,0.04,0.2,0.109"/>
			<path d="M303.115,249.471c-0.398,0-0.794-0.06-1.172-0.175c-1.866-0.338-3.282-1.972-3.282-3.936v-89.035
				c-20.189-13.366-22.796-39.021-21.339-58.494c1.106-14.822,4.693-28.364,6.732-35.116l-19.727-4.084
				c-2.375,5.065-7.486,15.697-13.28,26.077c-13.638,24.429-19.925,27.723-24.276,27.723c-4.348,0-10.633-3.294-24.277-27.723
				c-5.814-10.409-10.917-21.021-13.289-26.078l-19.737,4.086c2.039,6.752,5.626,20.295,6.731,35.116
				c1.458,19.475-1.147,45.132-21.329,58.493v89.035c0,1.964-1.416,3.598-3.282,3.936c-1.017,0.311-2.156,0.217-3.153-0.353
				c-1.871-1.069-2.552-3.422-1.565-5.317V154.11c0-1.416,0.749-2.727,1.968-3.445c18.438-10.875,20.718-34.409,19.383-52.236
				c-1.409-18.895-7.06-35.575-7.699-37.415c-0.378-1.088-0.269-2.286,0.299-3.287c0.568-1.002,1.541-1.709,2.668-1.943l27.2-5.63
				c1.828-0.379,3.677,0.56,4.451,2.26c0.661,1.451,6.663,14.554,13.88,27.574c12.065,21.766,17.007,24.173,17.75,24.423
				c0.743-0.249,5.685-2.652,17.744-24.418c7.19-12.978,13.212-26.123,13.875-27.579c0.774-1.7,2.625-2.639,4.452-2.26l27.19,5.63
				c1.127,0.234,2.1,0.941,2.668,1.943c0.568,1.001,0.677,2.199,0.299,3.287c-0.639,1.84-6.29,18.521-7.699,37.414
				c-1.334,17.825,0.947,41.357,19.394,52.237c1.219,0.719,1.968,2.029,1.968,3.445v89.516c0.986,1.896,0.306,4.248-1.565,5.317
				C304.469,249.301,303.787,249.471,303.115,249.471z"/>
		</g>
		<rect x="150.48" y="241.82" width="152.57" height="8"/>
	</g>
</g>
<g id="linijsko" display="none">
	<g id="rde훾a7bela_copy" display="inline">
	</g>
</g>
<g id="pivot">
	<circle fill="none" cx="232.098" cy="386.754" r="14.133"/>
</g>
</svg>
