<?xml version="1.0" encoding="utf-8"?>
<!-- Generator: Adobe Illustrator 16.0.0, SVG Export Plug-In . SVG Version: 6.00 Build 0)  -->
<!DOCTYPE svg PUBLIC "-//W3C//DTD SVG 1.1//EN" "http://www.w3.org/Graphics/SVG/1.1/DTD/svg11.dtd">
<svg version="1.1" id="Layer_1" xmlns="http://www.w3.org/2000/svg" xmlns:xlink="http://www.w3.org/1999/xlink" x="0px" y="0px"
	 width="453.543px" height="453.543px" viewBox="0 0 453.543 453.543" enable-background="new 0 0 453.543 453.543"
	 xml:space="preserve">
<g id="kvadrat">
</g>
<g id="bg" display="none">
	<rect x="-3894.376" y="-2275.804" display="inline" width="15266.866" height="13678.95"/>
</g>
<g id="barvno" display="none">
	<g display="inline">
		<g id="XMLID_3_">
			<g>
				<path fill="#FFDD00" d="M363.042,381.626c0,0-47.181,17.09-134.17,17.83v0.031c-0.71,0-1.399-0.021-2.11-0.031
					c-0.69,0.01-1.39,0.031-2.1,0.031v-0.031c-87-0.74-134.16-16.83-134.16-16.83c10.49-65.829,60.12-136.74,60.12-136.74h152.29
					C302.912,245.886,352.542,315.787,363.042,381.626z"/>
				<path fill="#E20613" d="M302.912,154.247v91.64h-152.29v-91.64c39.12-22.9,13.35-94.46,13.35-94.46l27.67-5.73
					c0,0,24.74,54.4,35.13,54.4c10.4,0,35.121-54.4,35.121-54.4l27.659,5.73C289.552,59.787,263.792,131.347,302.912,154.247z"/>
			</g>
			<g>
				
					<path fill="none" stroke="#000000" stroke-width="8" stroke-linecap="round" stroke-linejoin="round" stroke-miterlimit="10" d="
					M302.912,245.886v-91.64c-39.12-22.9-13.36-94.46-13.36-94.46l-27.659-5.73c0,0-24.721,54.4-35.121,54.4
					c-10.39,0-35.13-54.4-35.13-54.4l-27.67,5.73c0,0,25.77,71.56-13.35,94.46v91.64"/>
				
					<path fill="none" stroke="#000000" stroke-width="8" stroke-linecap="round" stroke-linejoin="round" stroke-miterlimit="10" d="
					M302.912,245.886h-152.29c0,0-49.63,70.911-60.12,136.74c0,0,47.16,16.09,134.16,16.83v0.031c0.71,0,1.41-0.021,2.1-0.031
					c0.71,0.01,1.4,0.031,2.11,0.031v-0.031c86.989-0.74,134.17-17.83,134.17-17.83
					C352.542,315.787,302.912,245.886,302.912,245.886z"/>
			</g>
		</g>
		<path fill="none" stroke="#000000" stroke-width="8" stroke-linecap="round" stroke-linejoin="round" stroke-miterlimit="10" d="
			M158.121,393.717c0,0,9.26-120.912,26.631-147.83"/>
		<path fill="none" stroke="#000000" stroke-width="8" stroke-linecap="round" stroke-linejoin="round" stroke-miterlimit="10" d="
			M297.632,393.717c0,0-9.26-120.912-26.631-147.83"/>
		
			<line fill="none" stroke="#000000" stroke-width="8" stroke-linecap="round" stroke-linejoin="round" stroke-miterlimit="10" x1="226.765" y1="245.886" x2="226.765" y2="399.461"/>
	</g>
	<g id="rde훾a7bela" display="inline">
	</g>
	
		<rect x="-4404.662" y="-2695.813" display="inline" fill="none" stroke="#000000" stroke-miterlimit="10" width="16736" height="13952"/>
</g>
<g id="barvno_copy_2">
	<g>
		<g id="XMLID_33_">
			<g>
				<g>
					<path fill="#FF00FF" d="M363.042,381.626c0,0-47.181,17.09-134.17,17.83v0.03c-0.71,0-1.399-0.021-2.11-0.03
						c-0.69,0.01-1.39,0.03-2.1,0.03v-0.03c-87-0.74-134.16-16.83-134.16-16.83c10.49-65.83,60.12-136.74,60.12-136.74h152.29
						C302.912,245.886,352.542,315.787,363.042,381.626z"/>
				</g>
				<g>
					<path fill="#00FF00" d="M302.912,154.247v91.64h-152.29v-91.64c39.12-22.9,13.35-94.46,13.35-94.46l27.67-5.73
						c0,0,24.74,54.4,35.13,54.4c10.4,0,35.121-54.4,35.121-54.4l27.659,5.73C289.552,59.787,263.792,131.347,302.912,154.247z"/>
				</g>
			</g>
			<g>
				<g>
					<path d="M302.912,249.886c-2.209,0-4-1.791-4-4v-89.415c-33.643-22.072-19.542-77.548-14.561-93.677l-20.167-4.178
						c-2.243,4.77-7.029,14.717-12.447,24.568c-14.188,25.794-20.582,29.272-24.965,29.272c-4.38,0-10.772-3.478-24.966-29.271
						c-5.421-9.852-10.211-19.8-12.455-24.569l-20.178,4.178c4.983,16.129,19.092,71.605-14.551,93.677v89.415c0,2.209-1.791,4-4,4
						s-4-1.791-4-4v-91.64c0-1.42,0.753-2.734,1.979-3.452c35.788-20.95,11.853-88.969,11.607-89.654
						c-0.392-1.091-0.292-2.298,0.274-3.309c0.567-1.011,1.543-1.727,2.678-1.962l27.67-5.73c1.826-0.379,3.678,0.56,4.452,2.261
						c0.059,0.129,5.944,13.039,13.047,26.042c12.456,22.806,17.585,25.649,18.442,25.983c0.857-0.333,5.988-3.173,18.438-25.979
						c7.1-13.005,12.981-25.917,13.04-26.045c0.772-1.702,2.622-2.64,4.453-2.262l27.659,5.73c1.135,0.235,2.111,0.951,2.678,1.962
						s0.666,2.218,0.274,3.309c-0.245,0.685-24.172,68.705,11.617,89.654c1.227,0.718,1.979,2.032,1.979,3.452v91.64
						C306.912,248.095,305.121,249.886,302.912,249.886z"/>
				</g>
				<g>
					<path d="M228.872,403.486c-0.489,0-0.969-0.009-1.452-0.019l-0.658-0.011l-0.625,0.011c-0.664,0.014-1.351,0.073-2.005-0.017
						c-86.335-0.792-132.975-16.375-134.922-17.039c-1.843-0.629-2.965-2.493-2.659-4.416
						c10.514-65.98,58.745-135.478,60.793-138.404c0.748-1.069,1.972-1.706,3.277-1.706h152.29c1.296,0,2.512,0.628,3.262,1.685
						c2.049,2.885,50.292,71.423,60.818,137.426c0.302,1.895-0.784,3.737-2.588,4.391c-1.949,0.706-48.644,17.269-135.007,18.064
						C229.226,403.475,229.05,403.486,228.872,403.486z M95.033,379.831c12.007,3.488,57.04,15.007,129.664,15.625
						c0.147,0.001,0.293,0.011,0.436,0.027c0.285-0.003,0.568-0.009,0.85-0.015l0.723-0.013c0.037,0,0.073,0,0.112,0l0.757,0.014
						c0.275,0.005,0.551,0.011,0.828,0.014c0.143-0.017,0.288-0.026,0.436-0.027c72.738-0.619,117.798-12.893,129.684-16.564
						c-10.346-57.611-50.346-118.22-57.707-129.006H152.737C145.379,260.818,105.385,322.232,95.033,379.831z"/>
				</g>
			</g>
		</g>
		<g>
			<g>
				<path d="M158.125,397.717c-0.103,0-0.206-0.004-0.31-0.012c-2.203-0.169-3.852-2.091-3.683-4.294
					c0.381-4.979,9.541-122.239,27.258-149.694c1.198-1.855,3.673-2.39,5.53-1.191c1.856,1.197,2.39,3.674,1.192,5.529
					c-16.626,25.764-25.912,144.769-26.003,145.968C161.948,396.121,160.195,397.717,158.125,397.717z"/>
			</g>
		</g>
		<g>
			<g>
				<path d="M297.628,397.717c-2.069,0-3.823-1.596-3.983-3.694c-0.093-1.199-9.377-120.204-26.004-145.968
					c-1.197-1.855-0.664-4.332,1.192-5.529c1.856-1.198,4.332-0.664,5.53,1.191c17.717,27.455,26.877,144.716,27.258,149.694
					c0.169,2.203-1.48,4.125-3.684,4.294C297.834,397.713,297.73,397.717,297.628,397.717z"/>
			</g>
		</g>
		<g>
			<g>
				<path d="M226.765,403.461c-2.209,0-4-1.791-4-4V245.886c0-2.209,1.791-4,4-4c2.209,0,4,1.791,4,4V399.46
					C230.766,401.67,228.975,403.461,226.765,403.461z"/>
			</g>
		</g>
	</g>
	<g id="rde훾a7bela_copy_4">
	</g>
	<g>
		<path d="M12331.838,11256.688h-16737v-13953h16737V11256.688z M-4404.662,11255.688h16736l-0.5-13951h-16735.5l0.5,13951
			H-4404.662z"/>
	</g>
</g>
<g id="sivinsko" display="none">
	<g display="inline">
		<path fill="#C6C6C5" d="M303.162,245.886v-0.069c1.83,2.59,49.89,71.551,60.13,135.771c0.021,0.119-0.05,0.23-0.17,0.271
			c-0.47,0.18-48.17,17.1-134.14,17.85c-0.03,0.021-0.07,0.031-0.11,0.031c-0.479,0-0.95-0.011-1.42-0.021l-0.69-0.01l-0.65,0.01
			c-0.48,0.011-0.96,0.021-1.45,0.021c-0.04,0-0.09-0.011-0.12-0.031c-85.97-0.75-133.65-16.679-134.12-16.84
			c-0.12-0.04-0.19-0.16-0.17-0.28c10.23-64.21,58.29-134.131,60.12-136.771v0.069"/>
		<path d="M228.872,403.737c-0.509,0-1.007-0.011-1.505-0.021l-0.602-0.008l-0.591,0.009c-0.658,0.015-1.367,0.074-2.051-0.013
			c-86.236-0.798-134.511-16.886-134.989-17.049c-1.977-0.662-3.174-2.652-2.827-4.728c10.372-65.102,58.725-135.428,60.778-138.389
			c0.996-1.438,2.81-2.063,4.481-1.539c1.669,0.521,2.806,2.068,2.806,3.818c0,0.934-0.32,1.799-0.857,2.486
			c-3.432,4.982-47.832,70.352-58.771,131.701c11.759,3.415,57.092,15.067,129.832,15.702c0.147,0.001,0.294,0.011,0.44,0.028
			c0.339-0.003,0.675-0.011,1.011-0.018l0.673-0.01c0.039-0.001,0.08-0.001,0.12,0l0.69,0.01c0.342,0.007,0.67,0.015,0.999,0.019
			c0.146-0.019,0.291-0.027,0.438-0.028c73.461-0.641,118.386-13.054,129.861-16.641c-10.777-60.321-54.584-124.691-58.619-130.519
			c-0.64-0.7-1.027-1.632-1.027-2.661v-0.068c0-1.743,1.128-3.285,2.789-3.813c1.66-0.526,3.472,0.081,4.479,1.504
			c2.051,2.903,50.352,71.841,60.813,137.448c0.341,2.043-0.858,4.029-2.855,4.695l0,0c-3.181,1.109-51.386,17.272-134.979,18.052
			C229.23,403.725,229.053,403.737,228.872,403.737z"/>
	</g>
	<path display="inline" d="M268.997,249.327c-0.62-0.64-0.979-1.054-1.241-1.425l6.547-4.598l-0.063-0.085
		c0.105,0.13,0.277,0.308,0.503,0.544L268.997,249.327z"/>
	<path display="inline" d="M151.567,251.795l-3.415-2.447c-1.115-0.799-1.78-2.093-1.78-3.462v-1.325l0.71-1.016
		c0.004-0.006,0.008-0.013,0.013-0.02l-0.019,0.025l0.333-0.441c0.239-0.278,0.512-0.522,0.812-0.728l0.338-0.467l0.574-0.008
		c0.469-0.177,0.973-0.271,1.489-0.271h152.29c0.496,0,0.98,0.087,1.434,0.25h0.629l0.367,0.517c0.276,0.192,0.53,0.418,0.754,0.675
		l0.144,0.147l0.17,0.254l0.752,0.994v1.344c0,1.584-0.813,2.99-2.121,3.74l-3.183,1.824l-1.039-1.494H152.798L151.567,251.795z"/>
	<path display="inline" d="M302.912,250.136h-152.29c-0.667,0-1.316-0.155-1.93-0.462l-3.988-1.996l2.416-3.748
		c0.155-0.24,0.242-0.361,0.242-0.361l1.198-1.653l2.063-0.029h154.354l3.562,5.087l-3.083,2.313
		C304.723,249.834,303.82,250.136,302.912,250.136z"/>
	<g display="inline">
		<path d="M158.125,397.717c-0.103,0-0.206-0.004-0.31-0.012c-2.203-0.169-3.852-2.091-3.683-4.293
			c0.381-4.979,9.541-122.239,27.258-149.694c1.198-1.856,3.673-2.39,5.53-1.192c1.855,1.199,2.39,3.675,1.192,5.531
			c-16.626,25.764-25.912,144.768-26.003,145.967C161.948,396.121,160.195,397.717,158.125,397.717z"/>
	</g>
	<g display="inline">
		<path d="M297.628,397.717c-2.069,0-3.823-1.596-3.983-3.694c-0.093-1.199-9.377-120.204-26.004-145.968
			c-1.197-1.855-0.664-4.332,1.192-5.529c1.856-1.198,4.332-0.664,5.53,1.191c17.717,27.455,26.877,144.716,27.258,149.694
			c0.169,2.202-1.48,4.125-3.684,4.293C297.834,397.713,297.73,397.717,297.628,397.717z"/>
	</g>
	<g display="inline">
		<path d="M226.765,403.461c-2.209,0-4-1.791-4-4V245.886c0-2.209,1.791-4,4-4c2.209,0,4,1.791,4,4V399.46
			C230.766,401.67,228.975,403.461,226.765,403.461z"/>
	</g>
	<g id="rde훾a7bela_copy_3" display="inline">
	</g>
	<path display="inline" d="M12331.838,11256.689h-16737V-2696.312h16737V11256.689z M-4404.662,11255.689h16736l-0.5-13951.001
		h-16735.5l0.5,13951.001H-4404.662z"/>
	<g display="inline">
		<path fill="#C6C6C5" d="M150.422,245.747c0.04-0.07,0.12-0.11,0.2-0.11h0.25v-91.25c20.21-11.92,22.76-37.01,21.34-55.98
			c-1.43-19.17-7.1-36.1-7.91-38.43l27.2-5.63c1.83,4.02,25.04,54.36,35.27,54.36c10.24,0,33.43-50.34,35.26-54.36l27.19,5.63
			c-0.811,2.33-6.48,19.26-7.91,38.43c-1.42,18.97,1.14,44.061,21.35,55.98v91.25h0.25c0.08,0,0.16,0.04,0.199,0.11"/>
		<path d="M303.116,249.748c-0.398,0-0.794-0.061-1.173-0.175c-1.865-0.339-3.281-1.972-3.281-3.937v-89.035
			c-20.189-13.366-22.796-39.021-21.339-58.494c1.106-14.822,4.692-28.364,6.731-35.116l-19.727-4.084
			c-2.375,5.065-7.486,15.697-13.28,26.077c-13.638,24.429-19.925,27.723-24.276,27.723c-4.348,0-10.633-3.293-24.277-27.722
			c-5.814-10.409-10.917-21.021-13.289-26.078l-19.737,4.085c2.039,6.752,5.626,20.294,6.731,35.116
			c1.458,19.475-1.147,45.131-21.329,58.493v89.035c0,1.965-1.416,3.598-3.282,3.937c-1.017,0.311-2.156,0.217-3.152-0.353
			c-1.872-1.07-2.552-3.422-1.565-5.316v-89.516c0-1.416,0.749-2.726,1.968-3.445c18.438-10.875,20.718-34.409,19.383-52.236
			c-1.409-18.894-7.06-35.575-7.699-37.415c-0.378-1.088-0.269-2.286,0.299-3.287c0.568-1.002,1.541-1.71,2.668-1.943l27.199-5.629
			c1.828-0.379,3.678,0.559,4.452,2.259c0.661,1.451,6.663,14.554,13.88,27.574c12.065,21.766,17.007,24.173,17.75,24.423
			c0.744-0.249,5.685-2.652,17.746-24.417c7.189-12.978,13.211-26.124,13.875-27.58c0.773-1.7,2.625-2.639,4.451-2.259l27.19,5.629
			c1.127,0.233,2.1,0.941,2.668,1.943c0.567,1.001,0.677,2.199,0.299,3.287c-0.64,1.84-6.29,18.521-7.7,37.415
			c-1.334,17.825,0.947,41.357,19.395,52.237c1.219,0.719,1.968,2.029,1.968,3.445v89.515c0.985,1.896,0.306,4.248-1.565,5.316
			C304.471,249.577,303.789,249.748,303.116,249.748z"/>
	</g>
	<rect x="150.482" y="242.098" display="inline" width="152.57" height="8"/>
</g>
<g id="linijsko" display="none">
	<g id="XMLID_16_" display="inline">
		<g>
			
				<path fill="none" stroke="#000000" stroke-width="8" stroke-linecap="square" stroke-linejoin="round" stroke-miterlimit="10" d="
				M302.912,245.886v-91.64c-39.12-22.9-13.36-94.46-13.36-94.46l-27.659-5.73c0,0-24.721,54.4-35.121,54.4
				c-10.39,0-35.13-54.4-35.13-54.4l-27.67,5.73c0,0,25.77,71.56-13.35,94.46v91.64"/>
			
				<path fill="none" stroke="#000000" stroke-width="8" stroke-linecap="square" stroke-linejoin="round" stroke-miterlimit="10" d="
				M302.912,245.886h-152.29c0,0-49.63,70.911-60.12,136.74c0,0,47.16,16.091,134.16,16.83v0.031c0.71,0,1.41-0.021,2.1-0.031
				c0.71,0.01,1.4,0.031,2.11,0.031v-0.031c86.989-0.74,134.17-17.83,134.17-17.83C352.542,315.787,302.912,245.886,302.912,245.886
				z"/>
		</g>
	</g>
	
		<path display="inline" fill="none" stroke="#000000" stroke-width="8" stroke-linecap="round" stroke-linejoin="round" stroke-miterlimit="10" d="
		M158.121,393.717c0,0,9.26-120.912,26.631-147.83"/>
	
		<path display="inline" fill="none" stroke="#000000" stroke-width="8" stroke-linecap="round" stroke-linejoin="round" stroke-miterlimit="10" d="
		M297.632,393.717c0,0-9.26-120.912-26.631-147.83"/>
	
		<line display="inline" fill="none" stroke="#000000" stroke-width="8" stroke-linecap="round" stroke-linejoin="round" stroke-miterlimit="10" x1="226.765" y1="245.886" x2="226.765" y2="399.461"/>
	<g id="rde훾a7bela_copy" display="inline">
	</g>
</g>
<g id="pivot">
	<circle fill="none" cx="221.715" cy="398.414" r="14.133"/>
</g>
</svg>
