<?xml version="1.0" encoding="utf-8"?>
<!-- Generator: Adobe Illustrator 16.0.0, SVG Export Plug-In . SVG Version: 6.00 Build 0)  -->
<!DOCTYPE svg PUBLIC "-//W3C//DTD SVG 1.1//EN" "http://www.w3.org/Graphics/SVG/1.1/DTD/svg11.dtd">
<svg version="1.1" id="Layer_1" xmlns="http://www.w3.org/2000/svg" xmlns:xlink="http://www.w3.org/1999/xlink" x="0px" y="0px"
	 width="453.543px" height="453.543px" viewBox="0 0 453.543 453.543" enable-background="new 0 0 453.543 453.543"
	 xml:space="preserve">
<g id="kvadrat">
</g>
<g id="bg" display="none">
	<rect x="-6955.794" y="-2275.804" display="inline" width="15266.867" height="13678.95"/>
</g>
<g id="barvno" display="none">
	<g display="inline">
		
			<path fill="#57B2E5" stroke="#000000" stroke-width="8" stroke-linecap="round" stroke-linejoin="round" stroke-miterlimit="10" d="
			M237.093,89.721c-11.969-5.526-26.581-8.334-43.489-8.363c-2.301,0.182-72.811,5.717-72.935,84.836
			c-0.142,82.156,0,203.679,0,203.679l156.584,0.186v-62.691c0,0,45.187-44.536,56.872-56.026
			c14.328-14.084,1.021-29.403,1.021-29.403s-14.396-15.913-30.217-4.857c-13.699,9.577-27.676,21.948-27.676,21.948l0.133-76.694
			C277.542,159.522,280.079,109.565,237.093,89.721z"/>
		<g>
			<path fill="#00497E" d="M287.133,362.185c0,5.5-4.5,10-10,10H122.774c-5.5,0-10-4.5-10-10v-23.437c0-5.5,4.5-10,10-10h154.358
				c5.5,0,10,4.5,10,10L287.133,362.185L287.133,362.185z"/>
			<path fill="none" stroke="#000000" stroke-width="8" stroke-linecap="round" stroke-linejoin="round" stroke-miterlimit="10" d="
				M287.133,362.185c0,5.5-4.5,10-10,10H122.774c-5.5,0-10-4.5-10-10v-23.437c0-5.5,4.5-10,10-10h154.358c5.5,0,10,4.5,10,10
				L287.133,362.185L287.133,362.185z"/>
		</g>
	</g>
	<g id="rde훾a7bela" display="inline">
	</g>
	
		<rect x="-7466.08" y="-2695.813" display="inline" fill="none" stroke="#000000" stroke-miterlimit="10" width="16736" height="13952"/>
</g>
<g id="barvno_copy_2">
	<g id="rde훾a7bela_copy_4">
	</g>
	<g>
		<g>
			<g>
				<path fill="#FFFF00" d="M237.093,89.721c-11.969-5.526-26.581-8.334-43.489-8.363c-2.301,0.182-72.811,5.717-72.935,84.836
					c-0.142,82.156,0,203.679,0,203.679l156.584,0.186v-62.691c0,0,45.187-44.536,56.872-56.026
					c14.328-14.084,1.021-29.403,1.021-29.403s-14.396-15.913-30.217-4.857c-13.699,9.577-27.676,21.948-27.676,21.948l0.133-76.694
					C277.542,159.522,280.079,109.565,237.093,89.721z"/>
				<path d="M277.253,374.059c-0.002,0-0.003,0-0.005,0l-156.584-0.186c-2.205-0.003-3.993-1.79-3.995-3.995
					c-0.001-1.216-0.141-122.469,0-203.691c0.067-42.802,20.422-64.615,37.486-75.376c17.85-11.257,35.727-13.171,39.129-13.44
					c0.108-0.008,0.236-0.004,0.327-0.013c17.482,0.03,32.676,2.968,45.159,8.731c44.113,20.364,42.94,70.178,42.617,76.356
					l-0.118,67.887c5.397-4.509,13.384-10.946,21.369-16.529c4.396-3.072,9.114-4.63,14.022-4.63c12.19,0,21.08,9.67,21.452,10.082
					c5.51,6.341,12.271,21.713-1.184,34.939c-10.557,10.381-48.459,47.735-55.676,54.848v61.018c0,1.062-0.422,2.08-1.173,2.83
					C279.33,373.638,278.313,374.059,277.253,374.059z M124.665,365.878l148.588,0.176v-58.687c0-1.071,0.43-2.097,1.192-2.849
					c0,0,45.189-44.539,56.875-56.03c11.515-11.317,1.249-23.417,0.807-23.927c-0.006-0.004-6.875-7.388-15.467-7.388
					c-3.237,0-6.413,1.072-9.439,3.187c-13.344,9.329-27.178,21.542-27.315,21.665c-1.179,1.043-2.861,1.3-4.297,0.65
					c-1.436-0.647-2.357-2.077-2.354-3.652l0.133-76.694c0-0.071,0.002-0.143,0.006-0.213c0.282-5.114,1.615-50.485-37.977-68.762
					c-11.389-5.259-25.402-7.948-41.652-7.995c-2.521,0.216-19.121,1.99-35.341,12.219c-22.348,14.094-33.705,37.182-33.754,68.623
					C124.543,239.079,124.642,344.196,124.665,365.878z"/>
			</g>
			<g>
				<g>
					<path fill="#0000FF" d="M287.133,362.185c0,5.5-4.5,10-10,10H122.774c-5.5,0-10-4.5-10-10v-23.437c0-5.5,4.5-10,10-10h154.358
						c5.5,0,10,4.5,10,10L287.133,362.185L287.133,362.185z"/>
				</g>
				<g>
					<path d="M277.133,376.185H122.774c-7.72,0-14-6.28-14-14v-23.437c0-7.72,6.28-14,14-14h154.358c7.72,0,14,6.28,14,14v23.437
						c0.001,3.728-1.458,7.241-4.108,9.891C284.374,374.726,280.861,376.185,277.133,376.185z M122.774,332.748
						c-3.309,0-6,2.691-6,6v23.437c0,3.309,2.691,6,6,6h154.359c3.309,0,6-2.691,6-6l-0.001-23.437c0-3.309-2.691-6-6-6H122.774z"/>
				</g>
			</g>
		</g>
	</g>
	<g>
		<path d="M9270.42,11256.688h-16737v-13953h16737V11256.688z M-7466.08,11255.688h16736l-0.5-13951h-16735.5l0.5,13951H-7466.08z"
			/>
	</g>
</g>
<g id="sivinsko" display="none">
	<g display="inline">
		<g>
			<path fill="#9C9C9C" d="M237.093,89.721c-11.969-5.526-26.581-8.334-43.489-8.363c-2.301,0.182-72.811,5.717-72.935,84.836
				c-0.142,82.156,0,203.679,0,203.679l156.584,0.186v-62.691c0,0,45.187-44.536,56.872-56.026
				c14.328-14.084,1.021-29.403,1.021-29.403s-14.396-15.913-30.217-4.857c-13.699,9.577-27.676,21.948-27.676,21.948l0.133-76.694
				C277.542,159.522,280.079,109.565,237.093,89.721z"/>
			<path d="M277.254,374.06c-0.001,0-0.003,0-0.005,0l-156.584-0.186c-2.206-0.002-3.993-1.79-3.995-3.995
				c-0.001-1.215-0.141-122.469,0-203.691c0.067-42.81,20.429-64.623,37.498-75.384c17.854-11.256,35.72-13.164,39.12-13.433
				c0.107-0.009,0.212-0.014,0.324-0.013c17.481,0.03,32.675,2.968,45.16,8.732c44.098,20.358,42.938,70.182,42.617,76.355
				l-0.119,67.886c5.397-4.509,13.383-10.946,21.369-16.528c4.396-3.073,9.114-4.63,14.021-4.63c12.189,0,21.08,9.67,21.451,10.081
				c5.511,6.341,12.273,21.713-1.182,34.939c-10.557,10.381-48.459,47.734-55.676,54.848v61.018c0,1.063-0.422,2.08-1.173,2.83
				C279.331,373.639,278.314,374.06,277.254,374.06z M124.665,365.878l148.589,0.177v-58.688c0-1.071,0.43-2.098,1.191-2.85
				c0,0,45.189-44.537,56.875-56.029c11.515-11.318,1.248-23.417,0.807-23.927c-0.006-0.004-6.875-7.388-15.467-7.388
				c-3.237,0-6.413,1.073-9.438,3.187c-13.346,9.33-27.18,21.542-27.318,21.666c-1.178,1.043-2.859,1.298-4.295,0.649
				c-1.437-0.647-2.357-2.077-2.354-3.653l0.134-76.693c0-0.071,0.002-0.142,0.006-0.212c0.28-5.114,1.598-50.494-37.978-68.764
				c-11.391-5.26-25.404-7.949-41.652-7.995c-2.518,0.216-19.106,1.984-35.33,12.213c-22.355,14.093-33.715,37.184-33.765,68.63
				C124.543,239.079,124.643,344.197,124.665,365.878z"/>
		</g>
		<g>
			<g>
				<path fill="#393939" d="M287.133,362.185c0,5.5-4.5,10-10,10H122.774c-5.5,0-10-4.5-10-10v-23.437c0-5.5,4.5-10,10-10h154.358
					c5.5,0,10,4.5,10,10L287.133,362.185L287.133,362.185z"/>
			</g>
			<path d="M277.133,376.185H122.774c-7.72,0-14-6.28-14-14v-23.437c0-7.72,6.281-14,14-14h154.358c7.72,0,14,6.281,14,14v23.437
				C291.133,369.905,284.854,376.185,277.133,376.185z M122.774,332.748c-3.309,0-6,2.692-6,6v23.437c0,3.31,2.692,6,6,6h154.358
				c3.31,0,6-2.69,6-6v-23.437c0-3.309-2.692-6-6-6H122.774z"/>
		</g>
	</g>
	<g id="rde훾a7bela_copy_3" display="inline">
	</g>
	<path display="inline" d="M9270.42,11256.689h-16737V-2696.312h16737V11256.689z M-7466.08,11255.689h16736l-0.5-13951.001
		h-16735.5l0.5,13951.001H-7466.08z"/>
</g>
<g id="linijsko" display="none">
	
		<path display="inline" fill="none" stroke="#000000" stroke-width="8" stroke-linecap="round" stroke-linejoin="round" stroke-miterlimit="10" d="
		M335.146,221.938c0,0-14.396-15.913-30.217-4.857c-13.699,9.577-27.676,21.948-27.676,21.948l0.133-76.694
		c0.154-2.813,2.692-52.77-40.294-72.614c-11.969-5.526-26.581-8.334-43.489-8.363c-2.301,0.182-72.811,5.717-72.935,84.836
		c-0.09,52.019-0.066,119.811-0.036,162.554h156.621v-21.38c0,0,45.186-44.536,56.872-56.026
		C348.454,237.256,335.146,221.938,335.146,221.938z"/>
	<g display="inline">
		<g>
			<path fill="none" stroke="#000000" stroke-width="8" stroke-linecap="round" stroke-linejoin="round" stroke-miterlimit="10" d="
				M287.133,362.185c0,5.5-4.5,10-10,10H122.774c-5.5,0-10-4.5-10-10v-23.437c0-5.5,4.5-10,10-10h154.358c5.5,0,10,4.5,10,10
				L287.133,362.185L287.133,362.185z"/>
		</g>
	</g>
	<g id="rde훾a7bela_copy" display="inline">
	</g>
</g>
<g id="pivot">
	<circle fill="none" cx="195.601" cy="368.031" r="14.133"/>
</g>
</svg>
