<?xml version="1.0" encoding="utf-8"?>
<!-- Generator: Adobe Illustrator 16.0.0, SVG Export Plug-In . SVG Version: 6.00 Build 0)  -->
<!DOCTYPE svg PUBLIC "-//W3C//DTD SVG 1.1//EN" "http://www.w3.org/Graphics/SVG/1.1/DTD/svg11.dtd">
<svg version="1.1" xmlns="http://www.w3.org/2000/svg" xmlns:xlink="http://www.w3.org/1999/xlink" x="0px" y="0px"
	 width="453.543px" height="453.543px" viewBox="0 0 453.543 453.543" enable-background="new 0 0 453.543 453.543"
	 xml:space="preserve">
<g id="kvadrat">
</g>
<g id="bg" display="none">
	<rect x="-5425.085" y="-2275.804" display="inline" width="15266.867" height="13678.951"/>
</g>
<g id="barvno" display="none">
	
		<path display="inline" fill="#C8C8C8" stroke="#000000" stroke-width="8" stroke-linecap="round" stroke-linejoin="round" stroke-miterlimit="10" d="
		M297.257,245.958c-2.078-36.413,7.708-73.716,7.812-82.785c0.551-48.754,3.063-89.869,3.063-89.869l-35.295-7.312
		c0,70.878-25.733,85.969-44.804,85.969c-0.408,0-0.822-0.011-1.238-0.024c-0.007,0-0.015,0-0.023,0c-0.008,0-0.017,0-0.024,0
		c-0.414,0.013-0.827,0.024-1.235,0.024c-19.071,0-44.807-15.091-44.807-85.969l-35.292,7.312c0,0,2.51,41.115,3.063,89.869
		c0.103,9.069,9.889,46.372,7.812,82.785c-3.306,57.955-19.038,123.266-18.382,141.593h88.866h88.865
		C316.294,369.224,300.564,303.913,297.257,245.958z"/>
	<g id="rde훾a7bela" display="inline">
	</g>
	
		<rect x="-5935.371" y="-2695.813" display="inline" fill="none" stroke="#000000" stroke-miterlimit="10" width="16736" height="13952"/>
</g>
<g id="barvno_copy_2">
	<g id="rde훾a7bela_copy_4">
	</g>
	<g>
		
			<path fill="#FF00FF" stroke="#000000" stroke-width="8" stroke-linecap="round" stroke-linejoin="round" stroke-miterlimit="10" d="
			M297.257,245.958c-2.078-36.413,7.708-73.716,7.812-82.785c0.551-48.754,3.063-89.869,3.063-89.869l-35.295-7.312
			c0,70.878-25.733,85.969-44.804,85.969c-0.408,0-0.822-0.011-1.238-0.024c-0.007,0-0.015,0-0.023,0c-0.008,0-0.017,0-0.024,0
			c-0.414,0.013-0.827,0.024-1.235,0.024c-19.071,0-44.807-15.091-44.807-85.969l-35.292,7.312c0,0,2.51,41.115,3.063,89.869
			c0.103,9.069,9.889,46.372,7.812,82.785c-3.306,57.955-19.038,123.266-18.382,141.593h88.866h88.865
			C316.294,369.224,300.564,303.913,297.257,245.958z"/>
	</g>
	<rect x="-5935.371" y="-2695.813" fill="none" stroke="#000000" stroke-miterlimit="10" width="16736" height="13952"/>
</g>
<g id="sivinsko" display="none">
	<g display="inline">
		<path fill="#C8C8C8" d="M297.257,245.958c-2.078-36.413,7.708-73.716,7.812-82.785c0.551-48.754,3.063-89.869,3.063-89.869
			l-35.295-7.312c0,70.878-25.733,85.969-44.804,85.969c-0.408,0-0.822-0.011-1.238-0.024c-0.007,0-0.015,0-0.023,0
			c-0.008,0-0.017,0-0.024,0c-0.414,0.013-0.827,0.024-1.235,0.024c-19.071,0-44.807-15.091-44.807-85.969l-35.292,7.312
			c0,0,2.51,41.115,3.063,89.869c0.103,9.069,9.889,46.372,7.812,82.785c-3.306,57.955-19.038,123.266-18.382,141.593h88.866h88.865
			C316.294,369.224,300.564,303.913,297.257,245.958z"/>
		<path d="M315.637,391.552H137.906c-2.153,0-3.92-1.705-3.998-3.857c-0.298-8.343,2.518-25.25,6.084-46.657
			c4.651-27.924,10.441-62.677,12.302-95.308c1.44-25.242-3.031-51.557-5.703-67.28c-1.208-7.11-2.081-12.247-2.114-15.231
			c-0.545-48.087-3.031-89.261-3.056-89.671c-0.121-1.984,1.234-3.757,3.181-4.16l35.292-7.313c1.181-0.244,2.404,0.056,3.337,0.815
			c0.933,0.759,1.475,1.899,1.475,3.102c0,52.093,14.874,81.969,40.807,81.969c0.366,0,0.737-0.01,1.108-0.022
			c0.084-0.002,0.217-0.002,0.301,0c0.374,0.012,0.745,0.022,1.112,0.022c25.931,0,40.804-29.876,40.804-81.969
			c0-1.203,0.542-2.343,1.475-3.102c0.933-0.76,2.159-1.059,3.337-0.815l35.295,7.313c1.947,0.403,3.302,2.176,3.181,4.16
			c-0.025,0.411-2.513,41.584-3.056,89.671c-0.034,2.983-0.907,8.119-2.115,15.226c-2.672,15.724-7.144,42.041-5.703,67.286
			c1.861,32.627,7.649,67.377,12.3,95.299c3.566,21.41,6.383,38.322,6.084,46.666C319.558,389.847,317.791,391.552,315.637,391.552z
			 M141.971,383.552h169.601c-0.482-8.602-2.929-23.298-5.913-41.208c-4.682-28.112-10.51-63.098-12.396-96.157
			c-1.492-26.148,3.075-53.024,5.804-69.083c1.104-6.493,1.975-11.621,2.002-13.976c0.455-40.244,2.266-75.675,2.872-86.607
			l-27.146-5.624c-0.519,30.033-5.871,52.539-15.928,66.949c-10.451,14.972-23.624,18.115-32.833,18.115
			c-0.418,0-0.842-0.01-1.269-0.023c-0.372,0.012-0.815,0.023-1.253,0.023c-9.21,0-22.384-3.143-32.835-18.115
			c-10.058-14.41-15.41-36.916-15.93-66.949l-27.144,5.624c0.605,10.929,2.416,46.36,2.872,86.607
			c0.027,2.355,0.898,7.486,2.002,13.981c2.728,16.057,7.294,42.931,5.803,69.077c-1.886,33.063-7.715,68.052-12.398,96.166
			C144.9,360.26,142.453,374.951,141.971,383.552z"/>
	</g>
	<g id="rde훾a7bela_copy_3" display="inline">
	</g>
	<path display="inline" d="M10801.129,11256.688h-16737v-13953h16737V11256.688z M-5935.371,11255.688h16736l-0.5-13951h-16735.5
		l0.5,13951H-5935.371z"/>
</g>
<g id="linijsko" display="none">
	
		<path display="inline" fill="none" stroke="#000000" stroke-width="8" stroke-linecap="round" stroke-linejoin="round" stroke-miterlimit="10" d="
		M297.257,245.958c-2.078-36.413,7.708-73.716,7.812-82.785c0.551-48.754,3.063-89.869,3.063-89.869l-35.295-7.312
		c0,70.878-25.733,85.969-44.804,85.969c-0.408,0-0.822-0.011-1.238-0.024c-0.007,0-0.015,0-0.023,0c-0.008,0-0.017,0-0.024,0
		c-0.414,0.013-0.827,0.024-1.235,0.024c-19.071,0-44.807-15.091-44.807-85.969l-35.292,7.312c0,0,2.51,41.115,3.063,89.869
		c0.103,9.069,9.889,46.372,7.812,82.785c-3.306,57.955-19.038,123.266-18.382,141.593h88.866h88.865
		C316.294,369.224,300.564,303.913,297.257,245.958z"/>
	<g id="rde훾a7bela_copy" display="inline">
	</g>
</g>
<g id="pivot">
	<circle fill="none" cx="227.465" cy="385.392" r="14.133"/>
</g>
</svg>
