<?xml version="1.0" encoding="utf-8"?>
<!-- Generator: Adobe Illustrator 16.0.0, SVG Export Plug-In . SVG Version: 6.00 Build 0)  -->
<!DOCTYPE svg PUBLIC "-//W3C//DTD SVG 1.1//EN" "http://www.w3.org/Graphics/SVG/1.1/DTD/svg11.dtd">
<svg version="1.1" xmlns="http://www.w3.org/2000/svg" xmlns:xlink="http://www.w3.org/1999/xlink" x="0px" y="0px"
	 width="453.543px" height="453.543px" viewBox="0 0 453.543 453.543" enable-background="new 0 0 453.543 453.543"
	 xml:space="preserve">
<g id="kvadrat">
</g>
<g id="bg" display="none">
	<rect x="-1343.195" y="-3296.276" display="inline" width="15266.867" height="13678.951"/>
</g>
<g id="barvno" display="none">
	<g display="inline">
		
			<path fill="#E20613" stroke="#000000" stroke-width="8" stroke-linecap="round" stroke-linejoin="round" stroke-miterlimit="10" d="
			M318.647,274.086c1.771,0.2,3.569,0.313,5.398,0.313c26.161,0,47.364-21.203,47.364-47.362c0-26.157-21.207-47.364-47.364-47.364
			c-9.045,0-17.499,2.538-24.688,6.939 M299.358,186.612c-14.53-16.194-34.765-27.144-57.547-29.703
			c4.168-3.132,6.882-8.101,6.882-13.72c0-9.477-7.683-17.159-17.158-17.159s-17.157,7.683-17.157,17.159
			c0,5.616,2.709,10.588,6.884,13.72c-33.618,3.774-60.688,29.836-73.045,60.01c-0.673,0.009-1.476-0.191-2.369-0.818
			c-2.648-1.854-16.864-38.806-43.639-42.138l-20.072,17.094c0,0-0.265,3.973,4.239,2.387c4.503-1.59,12.388-2.533,14.507,4.355
			c2.119,6.884,14.594,38.666,18.566,49.526c13.534,52.059,56.557,71.438,72.672,80.188h82.824
			c20.78-11.286,36.666-30.426,43.702-53.428 M321.963,258.393c0.431-3.601,0.665-7.265,0.665-10.979
			c0-17.6-5.004-34.023-13.646-47.952 M308.983,199.461c4.476-2.454,9.606-3.854,15.063-3.854c17.33,0,31.433,14.103,31.433,31.433
			s-14.103,31.429-31.433,31.429c-0.699,0-1.395-0.03-2.082-0.075"/>
		<path fill="none" stroke="#000000" stroke-width="8" stroke-linecap="round" stroke-linejoin="round" stroke-miterlimit="10" d="
			M181.629,178.228c0,0,51.802,21.983,98.144-3.154"/>
	</g>
	<g id="rde훾a7bela" display="inline">
	</g>
	
		<rect x="-1853.48" y="-3716.285" display="inline" fill="none" stroke="#000000" stroke-miterlimit="10" width="16736" height="13952"/>
</g>
<g id="barvno_copy_2">
	<g>
		<g>
			<path fill="#FF0000" d="M318.647,274.086c1.771,0.2,3.569,0.313,5.398,0.313c26.161,0,47.364-21.203,47.364-47.362
				c0-26.157-21.207-47.364-47.364-47.364c-9.045,0-17.499,2.538-24.688,6.939 M299.358,186.612
				c-14.53-16.194-34.765-27.144-57.547-29.703c4.168-3.132,6.882-8.101,6.882-13.72c0-9.477-7.683-17.159-17.158-17.159
				s-17.157,7.683-17.157,17.159c0,5.616,2.709,10.588,6.884,13.72c-33.618,3.774-60.688,29.836-73.045,60.01
				c-0.673,0.009-1.476-0.191-2.369-0.818c-2.648-1.854-16.864-38.806-43.639-42.138l-20.072,17.094c0,0-0.265,3.973,4.239,2.387
				c4.503-1.59,12.388-2.533,14.507,4.355c2.119,6.884,14.594,38.666,18.566,49.526c13.534,52.059,56.557,71.438,72.672,80.188
				h82.824c20.78-11.286,36.666-30.426,43.702-53.428 M321.963,258.393c0.431-3.601,0.665-7.265,0.665-10.979
				c0-17.6-5.004-34.023-13.646-47.952 M308.983,199.461c4.476-2.454,9.606-3.854,15.063-3.854c17.33,0,31.433,14.103,31.433,31.433
				s-14.103,31.429-31.433,31.429c-0.699,0-1.395-0.03-2.082-0.075"/>
			<path d="M274.945,331.514h-82.824c-0.667,0-1.323-0.167-1.909-0.485c-1.098-0.596-2.321-1.242-3.653-1.944
				c-18.781-9.911-57.836-30.524-70.932-80.563c-1.49-4.064-4.147-11.007-6.959-18.351c-5.036-13.156-10.243-26.759-11.608-31.195
				c-0.421-1.367-1.104-1.859-1.651-2.135c-1.663-0.837-4.686-0.69-7.701,0.375c-3.514,1.237-5.784,0.333-7.07-0.644
				c-2.606-1.979-2.533-5.163-2.492-5.781c0.072-1.077,0.576-2.079,1.398-2.779l20.072-17.094c0.854-0.728,1.975-1.063,3.087-0.924
				c23.354,2.906,37.533,28.387,43.589,39.268c0.169,0.305,0.343,0.617,0.516,0.926c13.646-29.017,38.844-50.15,66.614-56.053
				c-1.975-3.248-3.043-7.003-3.043-10.945c0-11.667,9.491-21.159,21.157-21.159c11.667,0,21.158,9.492,21.158,21.159
				c0,3.915-1.054,7.646-3.004,10.879c19.198,3.715,36.806,13.292,50.447,27.502c7.343-3.868,15.542-5.898,23.91-5.898
				c28.322,0,51.364,23.042,51.364,51.364c0,28.321-23.042,51.362-51.364,51.362c-0.844,0-1.704-0.023-2.574-0.068
				c-7.688,22.308-23.803,41.392-44.618,52.697C276.268,331.347,275.611,331.514,274.945,331.514z M193.13,323.514h80.786
				c19.485-10.883,34.354-29.243,40.885-50.531c0.101-0.354,0.249-0.686,0.436-0.99c0.307-0.501,0.717-0.92,1.192-1.236
				c0.495-0.33,1.064-0.551,1.672-0.635c0.347-0.048,0.705-0.051,1.064-0.003c1.668,0.186,3.31,0.28,4.88,0.28
				c23.911,0,43.364-19.452,43.364-43.362c0-23.911-19.453-43.364-43.364-43.364c-7.976,0-15.77,2.184-22.542,6.316
				c-0.306,0.195-0.632,0.344-0.968,0.447c-0.578,0.178-1.18,0.22-1.76,0.134c-0.573-0.084-1.131-0.292-1.629-0.623
				c0,0-0.001-0.001-0.003-0.002c-0.297-0.197-0.57-0.435-0.811-0.713c-14.292-15.904-33.812-25.971-54.97-28.348
				c-1.629-0.183-2.981-1.341-3.412-2.922c-0.432-1.582,0.146-3.266,1.456-4.25c3.358-2.523,5.285-6.359,5.285-10.522
				c0-7.256-5.903-13.159-13.158-13.159c-7.255,0-13.157,5.903-13.157,13.159c0,4.167,1.926,8.001,5.284,10.52
				c1.312,0.984,1.89,2.669,1.459,4.251s-1.784,2.741-3.413,2.924c-29.432,3.304-56.826,25.894-69.79,57.55
				c-0.608,1.485-2.045,2.463-3.649,2.484c-1.643,0.026-3.229-0.498-4.719-1.543c-1.288-0.901-2.094-2.351-4.25-6.223
				c-5.303-9.53-17.514-31.471-35.895-34.954l-11.904,10.138c2.401-0.142,5.069,0.134,7.505,1.36
				c2.762,1.391,4.733,3.786,5.699,6.927c1.287,4.179,6.677,18.262,11.434,30.688c2.863,7.481,5.568,14.548,7.065,18.641
				c0.044,0.121,0.083,0.243,0.115,0.368c12.157,46.764,49.18,66.301,66.972,75.69C191.301,322.542,192.25,323.042,193.13,323.514z
				 M324.045,262.468c-0.704,0-1.458-0.026-2.305-0.081c-0.059-0.003-0.117-0.008-0.176-0.014c-0.425-0.042-0.829-0.15-1.202-0.313
				c-0.002-0.001-0.005-0.003-0.008-0.004c-0.003-0.001-0.006-0.002-0.008-0.004c-0.591-0.261-1.102-0.659-1.497-1.149
				c-0.348-0.431-0.607-0.935-0.752-1.483c0,0-0.001-0.001-0.001-0.002c0-0.002-0.001-0.004-0.002-0.007
				c0-0.003-0.001-0.006-0.002-0.009l0,0c-0.116-0.446-0.157-0.919-0.109-1.403c0.003-0.036,0.007-0.072,0.012-0.107
				c0.42-3.523,0.633-7.049,0.633-10.478c0-16.225-4.504-32.067-13.027-45.815c-0.028-0.043-0.055-0.088-0.081-0.133
				c-0.225-0.389-0.378-0.801-0.461-1.22c0-0.001-0.001-0.003-0.001-0.005c0-0.001-0.001-0.003-0.001-0.004
				c-0.123-0.621-0.094-1.254,0.072-1.849c0.148-0.534,0.408-1.038,0.769-1.474c0-0.001,0.001-0.001,0.002-0.002
				c0.001-0.001,0.003-0.003,0.004-0.005c0.293-0.353,0.651-0.661,1.069-0.903c0.038-0.022,0.076-0.043,0.115-0.064
				c5.179-2.834,11.042-4.332,16.957-4.332c19.538,0,35.433,15.895,35.433,35.433C359.478,246.575,343.583,262.468,324.045,262.468z
				 M314.679,201.26c7.831,14.082,11.949,29.943,11.949,46.153c0,2.29-0.087,4.617-0.259,6.957
				c14.043-1.184,25.109-12.99,25.109-27.331c0-15.126-12.306-27.433-27.433-27.433C320.848,199.606,317.67,200.172,314.679,201.26z
				"/>
		</g>
		<path d="M229.684,191.206c-27.221,0-48.242-8.713-49.617-9.296c-2.034-0.863-2.983-3.211-2.12-5.245
			c0.862-2.033,3.209-2.98,5.242-2.121l0,0c0.501,0.212,50.638,20.902,94.677-2.987c1.941-1.053,4.37-0.333,5.423,1.609
			c1.053,1.942,0.333,4.37-1.609,5.423C264.036,188.16,245.775,191.206,229.684,191.206z"/>
	</g>
	<g id="rde훾a7bela_copy_4">
	</g>
	<rect x="-1853.48" y="-3716.285" fill="none" stroke="#000000" stroke-miterlimit="10" width="16736" height="13952"/>
</g>
<g id="sivinsko" display="none">
	<g display="inline">
		<g>
			<path fill="#494949" d="M318.647,274.086c1.771,0.2,3.569,0.313,5.398,0.313c26.161,0,47.364-21.203,47.364-47.362
				c0-26.157-21.207-47.364-47.364-47.364c-9.045,0-17.499,2.538-24.688,6.939 M299.358,186.612
				c-14.53-16.194-34.765-27.144-57.547-29.703c4.168-3.132,6.882-8.101,6.882-13.72c0-9.477-7.683-17.159-17.158-17.159
				s-17.157,7.683-17.157,17.159c0,5.616,2.709,10.588,6.884,13.72c-33.618,3.774-60.688,29.836-73.045,60.01
				c-0.673,0.009-1.476-0.191-2.369-0.818c-2.648-1.854-16.864-38.806-43.639-42.138l-20.072,17.094c0,0-0.265,3.973,4.239,2.387
				c4.503-1.59,12.388-2.533,14.507,4.355c2.119,6.884,14.594,38.666,18.566,49.526c13.534,52.059,56.557,71.438,72.672,80.188
				h82.824c20.78-11.286,36.666-30.426,43.702-53.428 M321.963,258.393c0.431-3.601,0.665-7.265,0.665-10.979
				c0-17.6-5.004-34.023-13.646-47.952 M308.983,199.461c4.476-2.454,9.606-3.854,15.063-3.854c17.33,0,31.433,14.103,31.433,31.433
				s-14.103,31.429-31.433,31.429c-0.699,0-1.395-0.03-2.082-0.075"/>
			<path d="M274.945,331.514h-82.824c-0.667,0-1.323-0.166-1.909-0.485c-1.098-0.595-2.321-1.242-3.653-1.944
				c-18.781-9.911-57.836-30.524-70.932-80.563c-1.49-4.064-4.147-11.007-6.959-18.351c-5.036-13.156-10.243-26.759-11.608-31.195
				c-0.421-1.367-1.104-1.858-1.651-2.135c-1.663-0.837-4.686-0.69-7.701,0.375c-3.514,1.237-5.784,0.333-7.07-0.644
				c-2.606-1.979-2.533-5.163-2.492-5.781c0.072-1.077,0.576-2.079,1.398-2.779l20.072-17.094c0.854-0.727,1.975-1.063,3.087-0.924
				c23.354,2.907,37.533,28.387,43.589,39.268c0.169,0.305,0.343,0.617,0.516,0.927c13.646-29.018,38.844-50.15,66.614-56.054
				c-1.975-3.248-3.043-7.003-3.043-10.945c0-11.667,9.491-21.159,21.157-21.159c11.667,0,21.158,9.492,21.158,21.159
				c0,3.915-1.054,7.646-3.004,10.879c19.198,3.716,36.806,13.292,50.447,27.502c7.343-3.868,15.542-5.898,23.91-5.898
				c28.322,0,51.364,23.042,51.364,51.364c0,28.321-23.042,51.362-51.364,51.362c-0.844,0-1.704-0.023-2.574-0.067
				c-7.688,22.308-23.803,41.392-44.618,52.697C276.267,331.348,275.611,331.514,274.945,331.514z M193.13,323.514h80.786
				c19.485-10.883,34.354-29.243,40.885-50.531c0.101-0.353,0.249-0.686,0.436-0.99c0.307-0.501,0.717-0.92,1.192-1.236
				c0.495-0.33,1.064-0.551,1.672-0.635c0.347-0.047,0.705-0.051,1.064-0.003c1.668,0.187,3.31,0.28,4.88,0.28
				c23.911,0,43.364-19.452,43.364-43.362c0-23.911-19.454-43.364-43.364-43.364c-7.976,0-15.77,2.184-22.542,6.316
				c-0.306,0.194-0.632,0.343-0.968,0.447c-0.578,0.178-1.18,0.22-1.76,0.133c-0.573-0.084-1.131-0.292-1.629-0.622
				c0,0-0.001-0.001-0.003-0.002c-0.296-0.197-0.569-0.435-0.81-0.713c-14.292-15.904-33.812-25.971-54.97-28.348
				c-1.629-0.183-2.981-1.341-3.412-2.922c-0.432-1.581,0.146-3.266,1.456-4.25c3.358-2.523,5.285-6.359,5.285-10.522
				c0-7.256-5.903-13.159-13.158-13.159c-7.255,0-13.157,5.903-13.157,13.159c0,4.167,1.926,8.001,5.284,10.52
				c1.312,0.984,1.89,2.669,1.459,4.251s-1.784,2.741-3.414,2.924c-29.432,3.304-56.826,25.894-69.789,57.55
				c-0.608,1.485-2.045,2.463-3.65,2.484c-1.642,0.026-3.228-0.498-4.718-1.543c-1.288-0.901-2.095-2.351-4.25-6.224
				c-5.303-9.529-17.514-31.47-35.895-34.954l-11.904,10.138c2.401-0.142,5.069,0.134,7.505,1.36
				c2.762,1.391,4.733,3.787,5.699,6.927c1.287,4.179,6.678,18.262,11.435,30.688c2.863,7.482,5.568,14.548,7.065,18.641
				c0.044,0.121,0.083,0.243,0.115,0.367c12.157,46.765,49.18,66.302,66.972,75.691C191.301,322.542,192.25,323.042,193.13,323.514z
				 M324.045,262.468c-0.704,0-1.458-0.026-2.305-0.081c-0.059-0.003-0.117-0.008-0.176-0.014c-0.425-0.042-0.829-0.15-1.202-0.313
				c-0.002-0.001-0.005-0.003-0.008-0.004c-0.003-0.001-0.006-0.002-0.008-0.004c-0.591-0.261-1.102-0.659-1.497-1.149
				c-0.348-0.431-0.607-0.935-0.752-1.483c0,0-0.001-0.001-0.001-0.002c0-0.001-0.001-0.004-0.002-0.007
				c0-0.003-0.001-0.005-0.002-0.009l0,0c-0.116-0.445-0.158-0.919-0.109-1.403c0.003-0.036,0.007-0.072,0.012-0.107
				c0.42-3.524,0.633-7.049,0.633-10.479c0-16.225-4.504-32.067-13.027-45.815c-0.027-0.043-0.054-0.088-0.081-0.133
				c-0.225-0.389-0.378-0.801-0.461-1.22c0-0.001-0.001-0.003-0.001-0.005c0-0.001-0.001-0.003-0.001-0.004
				c-0.123-0.62-0.094-1.254,0.072-1.849c0.148-0.534,0.408-1.037,0.769-1.474c0-0.001,0.001-0.002,0.002-0.003
				c0.001-0.001,0.003-0.003,0.004-0.005c0.293-0.353,0.651-0.661,1.069-0.903c0.038-0.021,0.076-0.043,0.115-0.063
				c5.179-2.834,11.042-4.332,16.957-4.332c19.538,0,35.433,15.895,35.433,35.433C359.478,246.575,343.583,262.468,324.045,262.468z
				 M314.679,201.26c7.831,14.082,11.949,29.943,11.949,46.153c0,2.29-0.087,4.617-0.259,6.957
				c14.043-1.184,25.109-12.989,25.109-27.331c0-15.126-12.306-27.433-27.433-27.433C320.848,199.606,317.67,200.172,314.679,201.26
				z"/>
		</g>
		<path d="M229.684,191.206c-27.221,0-48.242-8.713-49.617-9.296c-2.034-0.863-2.983-3.21-2.12-5.245
			c0.862-2.032,3.209-2.98,5.242-2.121l0,0c0.501,0.212,50.638,20.902,94.677-2.986c1.941-1.053,4.37-0.334,5.423,1.608
			c1.053,1.942,0.333,4.37-1.609,5.423C264.036,188.16,245.775,191.206,229.684,191.206z"/>
	</g>
	<g id="rde훾a7bela_copy_3" display="inline">
	</g>
	<path display="inline" d="M14883.02,10236.215h-16737v-13953h16737V10236.215z M-1853.48,10235.215h16736l-0.5-13951h-16735.5
		l0.5,13951H-1853.48z"/>
</g>
<g id="linijsko" display="none">
	<g display="inline">
		<path fill="none" stroke="#000000" stroke-width="8" stroke-linecap="round" stroke-linejoin="round" stroke-miterlimit="10" d="
			M318.647,274.086c1.771,0.2,3.569,0.313,5.398,0.313c26.161,0,47.364-21.203,47.364-47.362c0-26.157-21.207-47.364-47.364-47.364
			c-9.045,0-17.499,2.538-24.688,6.939 M299.358,186.612c-14.53-16.194-34.765-27.144-57.547-29.703
			c4.168-3.132,6.882-8.101,6.882-13.72c0-9.477-7.683-17.159-17.158-17.159s-17.157,7.683-17.157,17.159
			c0,5.616,2.709,10.588,6.884,13.72c-33.618,3.774-60.688,29.836-73.045,60.01c-0.673,0.009-1.476-0.191-2.369-0.818
			c-2.648-1.854-16.864-38.806-43.639-42.138l-20.072,17.094c0,0-0.265,3.973,4.239,2.387c4.503-1.59,12.388-2.533,14.507,4.355
			c2.119,6.884,14.594,38.666,18.566,49.526c13.534,52.059,56.557,71.438,72.672,80.188h82.824
			c20.78-11.286,36.666-30.426,43.702-53.428 M321.963,258.393c0.431-3.601,0.665-7.265,0.665-10.979
			c0-17.6-5.004-34.023-13.646-47.952 M308.983,199.461c4.476-2.454,9.606-3.854,15.063-3.854c17.33,0,31.433,14.103,31.433,31.433
			s-14.103,31.429-31.433,31.429c-0.699,0-1.395-0.03-2.082-0.075"/>
		<path fill="none" stroke="#000000" stroke-width="8" stroke-linecap="round" stroke-linejoin="round" stroke-miterlimit="10" d="
			M181.629,178.228c0,0,51.802,21.983,98.144-3.154"/>
	</g>
	<g id="rde훾a7bela_copy" display="inline">
	</g>
</g>
<g id="pivot">
	<circle fill="none" cx="225.16" cy="327.015" r="14.133"/>
</g>
</svg>
