<?xml version="1.0" encoding="utf-8"?>
<!-- Generator: Adobe Illustrator 16.0.0, SVG Export Plug-In . SVG Version: 6.00 Build 0)  -->
<!DOCTYPE svg PUBLIC "-//W3C//DTD SVG 1.1//EN" "http://www.w3.org/Graphics/SVG/1.1/DTD/svg11.dtd">
<svg version="1.1" xmlns="http://www.w3.org/2000/svg" xmlns:xlink="http://www.w3.org/1999/xlink" x="0px" y="0px"
	 width="453.543px" height="453.543px" viewBox="0 0 453.543 453.543" enable-background="new 0 0 453.543 453.543"
	 xml:space="preserve">
<g id="kvadrat">
</g>
<g id="bg" display="none">
	<rect x="-2873.904" y="-3806.513" display="inline" width="15266.867" height="13678.951"/>
</g>
<g id="barvno" display="none">
	<g id="rde훾a7bela" display="inline">
	</g>
	<g display="inline">
		
			<path fill="#009D73" stroke="#000000" stroke-width="8" stroke-linecap="round" stroke-linejoin="round" stroke-miterlimit="10" d="
			M154.186,186.613c-7.189-4.402-15.643-6.94-24.688-6.94c-26.157,0-47.364,21.208-47.364,47.365
			c0,26.158,21.203,47.361,47.364,47.361c1.83,0,3.627-0.113,5.399-0.313 M134.896,274.087
			c7.036,23.002,22.922,42.142,43.702,53.427h82.824c16.115-8.75,59.138-28.13,72.671-80.188
			c3.973-10.861,16.448-42.643,18.567-49.526c2.12-6.889,10.003-5.945,14.507-4.356c4.504,1.586,4.239-2.386,4.239-2.386
			l-20.072-17.094c-26.775,3.332-40.99,40.285-43.639,42.138c-0.894,0.626-1.697,0.827-2.369,0.818
			c-12.356-30.175-39.427-56.236-73.045-60.011c4.174-3.131,6.883-8.103,6.883-13.719c0-9.477-7.681-17.16-17.157-17.16
			s-17.158,7.684-17.158,17.16c0,5.619,2.714,10.588,6.882,13.719c-22.782,2.561-43.016,13.509-57.547,29.705 M144.561,199.461
			c-8.642,13.929-13.646,30.354-13.646,47.952c0,3.716,0.235,7.379,0.665,10.98 M131.58,258.393
			c-0.687,0.045-1.382,0.075-2.082,0.075c-17.33,0-31.432-14.098-31.432-31.428c0-17.331,14.103-31.433,31.432-31.433
			c5.457,0,10.587,1.4,15.063,3.854"/>
		<path fill="none" stroke="#000000" stroke-width="8" stroke-linecap="round" stroke-linejoin="round" stroke-miterlimit="10" d="
			M271.914,178.227c0,0-51.801,21.984-98.143-3.153"/>
	</g>
	
		<rect x="-3384.189" y="-4226.521" display="inline" fill="none" stroke="#000000" stroke-miterlimit="10" width="16736" height="13952"/>
</g>
<g id="barvno_copy_2">
	<g id="rde훾a7bela_copy_4">
	</g>
	<g>
		<path fill="#00FF00" d="M154.186,186.613c-7.189-4.402-15.643-6.94-24.688-6.94c-26.157,0-47.364,21.208-47.364,47.365
			c0,26.158,21.203,47.361,47.364,47.361c1.83,0,3.627-0.113,5.399-0.313 M134.896,274.087
			c7.036,23.002,22.922,42.142,43.702,53.427h82.824c16.115-8.75,59.138-28.13,72.671-80.188
			c3.973-10.861,16.448-42.643,18.567-49.526c2.12-6.889,10.003-5.945,14.507-4.356c4.504,1.586,4.239-2.386,4.239-2.386
			l-20.072-17.094c-26.775,3.332-40.99,40.285-43.639,42.138c-0.894,0.626-1.697,0.827-2.369,0.818
			c-12.356-30.175-39.427-56.236-73.045-60.011c4.174-3.131,6.883-8.103,6.883-13.719c0-9.477-7.681-17.16-17.157-17.16
			s-17.158,7.684-17.158,17.16c0,5.619,2.714,10.588,6.882,13.719c-22.782,2.561-43.016,13.509-57.547,29.705 M144.561,199.461
			c-8.642,13.929-13.646,30.354-13.646,47.952c0,3.716,0.235,7.379,0.665,10.98 M131.58,258.393
			c-0.687,0.045-1.382,0.075-2.082,0.075c-17.33,0-31.432-14.098-31.432-31.428c0-17.331,14.103-31.433,31.432-31.433
			c5.457,0,10.587,1.4,15.063,3.854"/>
		<path d="M261.423,331.514h-82.824c-0.667,0-1.323-0.167-1.909-0.485c-20.815-11.304-36.93-30.389-44.619-52.697
			c-0.871,0.045-1.73,0.068-2.573,0.068c-28.322,0-51.364-23.041-51.364-51.361c0-28.323,23.042-51.365,51.364-51.365
			c8.367,0,16.568,2.031,23.91,5.899c13.64-14.21,31.248-23.786,50.447-27.503c-1.95-3.233-3.004-6.964-3.004-10.879
			c0-11.668,9.491-21.16,21.158-21.16c11.666,0,21.157,9.492,21.157,21.16c0,3.942-1.068,7.697-3.042,10.944
			c27.77,5.903,52.968,27.037,66.613,56.054c0.173-0.31,0.347-0.622,0.517-0.927c6.055-10.881,20.235-36.361,43.588-39.267
			c1.114-0.139,2.233,0.197,3.087,0.924L374,188.012c0.822,0.7,1.326,1.702,1.398,2.779c0.041,0.619,0.115,3.802-2.491,5.781
			c-1.286,0.977-3.556,1.882-7.067,0.645c-3.019-1.065-6.042-1.211-7.704-0.375c-0.548,0.276-1.23,0.768-1.651,2.134
			c-1.366,4.436-6.574,18.042-11.611,31.199c-2.811,7.342-5.468,14.283-6.957,18.346c-13.096,50.041-52.151,70.654-70.933,80.564
			c-1.331,0.702-2.555,1.348-3.652,1.943C262.746,331.347,262.09,331.514,261.423,331.514z M179.627,323.514h80.786
			c0.88-0.471,1.828-0.972,2.836-1.504c17.792-9.389,54.815-28.925,66.973-75.69c0.032-0.125,0.071-0.247,0.115-0.368
			c1.497-4.092,4.201-11.157,7.065-18.637c4.757-12.428,10.149-26.513,11.436-30.693c0.966-3.139,2.937-5.535,5.698-6.925
			c2.435-1.227,5.102-1.503,7.506-1.36l-11.905-10.138c-18.38,3.483-30.591,25.423-35.894,34.953
			c-2.156,3.874-2.962,5.323-4.255,6.228c-1.487,1.042-3.07,1.585-4.711,1.54c-1.606-0.02-3.044-0.998-3.652-2.484
			c-12.963-31.657-40.357-54.247-69.79-57.551c-1.629-0.183-2.982-1.342-3.413-2.924c-0.431-1.582,0.147-3.267,1.459-4.25
			c3.358-2.519,5.283-6.353,5.283-10.519c0-7.256-5.902-13.16-13.157-13.16c-7.255,0-13.158,5.904-13.158,13.16
			c0,4.164,1.926,7.998,5.284,10.521c1.311,0.984,1.888,2.669,1.457,4.25c-0.431,1.581-1.783,2.74-3.412,2.923
			c-21.161,2.379-40.68,12.446-54.971,28.351c-0.234,0.271-0.499,0.503-0.786,0.697c-0.508,0.343-1.079,0.557-1.667,0.642
			c-0.573,0.083-1.167,0.042-1.739-0.133c-0.339-0.104-0.668-0.253-0.977-0.45c-6.772-4.133-14.565-6.316-22.542-6.316
			c-23.911,0-43.364,19.454-43.364,43.365c0,23.91,19.453,43.361,43.364,43.361c1.591,0,3.189-0.092,4.884-0.28
			c0.362-0.048,0.723-0.044,1.073,0.005c0.583,0.082,1.131,0.291,1.611,0.601c0.505,0.325,0.938,0.764,1.257,1.295
			c0.179,0.296,0.321,0.618,0.419,0.961C145.273,294.27,160.143,312.632,179.627,323.514z M129.498,262.468
			c-19.537,0-35.432-15.893-35.432-35.428c0-19.538,15.895-35.433,35.432-35.433c5.915,0,11.777,1.497,16.955,4.33
			c0.043,0.023,0.086,0.047,0.129,0.073c0.391,0.229,0.73,0.515,1.011,0.841c0.001,0.001,0.001,0.001,0.002,0.002
			c0.002,0.001,0.003,0.003,0.004,0.005c0.409,0.477,0.694,1.039,0.843,1.633c0.136,0.545,0.159,1.12,0.056,1.685
			c0,0.001,0,0.002-0.001,0.003c0,0.002-0.001,0.004-0.001,0.006c-0.082,0.443-0.24,0.88-0.48,1.291
			c-0.001,0.002-0.002,0.004-0.003,0.005c-0.022,0.039-0.046,0.077-0.069,0.114c-8.524,13.75-13.029,29.592-13.029,45.817
			c0,3.426,0.213,6.951,0.633,10.477c0.005,0.039,0.009,0.078,0.013,0.118c0.045,0.467,0.008,0.924-0.1,1.356c0,0,0,0,0,0.001
			c-0.001,0.003-0.001,0.006-0.002,0.009c-0.15,0.593-0.433,1.136-0.817,1.593c-0.001,0.002-0.003,0.003-0.004,0.005
			c-0.001,0.001-0.002,0.002-0.002,0.003c-0.373,0.441-0.841,0.803-1.379,1.051c-0.003,0.001-0.006,0.002-0.009,0.004
			c-0.395,0.181-0.825,0.3-1.28,0.344c-0.053,0.005-0.106,0.009-0.159,0.012C130.973,262.441,130.217,262.468,129.498,262.468z
			 M129.498,199.607c-15.126,0-27.432,12.307-27.432,27.433c0,14.341,11.066,26.146,25.108,27.33
			c-0.172-2.341-0.259-4.668-0.259-6.957c0-16.208,4.119-32.07,11.95-46.153C135.874,200.172,132.696,199.607,129.498,199.607z"/>
	</g>
	<path d="M223.858,191.206c-16.094,0-34.348-3.044-51.995-12.616c-1.942-1.053-2.662-3.481-1.609-5.423
		c1.054-1.942,3.482-2.661,5.423-1.609c44.039,23.888,94.175,3.198,94.676,2.986c2.035-0.857,4.381,0.092,5.242,2.125
		c0.861,2.033-0.087,4.379-2.119,5.241C272.102,182.493,251.075,191.206,223.858,191.206z"/>
	<rect x="-3384.189" y="-4226.521" fill="none" stroke="#000000" stroke-miterlimit="10" width="16736" height="13952"/>
</g>
<g id="sivinsko" display="none">
	<g id="rde훾a7bela_copy_3" display="inline">
	</g>
	<g display="inline">
		<g>
			<path fill="#696969" d="M154.186,186.613c-7.189-4.402-15.643-6.94-24.688-6.94c-26.157,0-47.364,21.208-47.364,47.365
				c0,26.158,21.203,47.361,47.364,47.361c1.83,0,3.627-0.113,5.399-0.313 M134.896,274.087
				c7.036,23.002,22.922,42.142,43.702,53.427h82.824c16.115-8.75,59.138-28.13,72.671-80.188
				c3.973-10.861,16.448-42.643,18.567-49.526c2.12-6.889,10.003-5.945,14.507-4.356c4.504,1.586,4.239-2.386,4.239-2.386
				l-20.072-17.094c-26.775,3.332-40.99,40.285-43.639,42.138c-0.894,0.626-1.697,0.827-2.369,0.818
				c-12.356-30.175-39.427-56.236-73.045-60.011c4.174-3.131,6.883-8.103,6.883-13.719c0-9.477-7.681-17.16-17.157-17.16
				s-17.158,7.684-17.158,17.16c0,5.619,2.714,10.588,6.882,13.719c-22.782,2.561-43.016,13.509-57.547,29.705 M144.561,199.461
				c-8.642,13.929-13.646,30.354-13.646,47.952c0,3.716,0.235,7.379,0.665,10.98 M131.58,258.393
				c-0.687,0.045-1.382,0.075-2.082,0.075c-17.33,0-31.432-14.098-31.432-31.428c0-17.331,14.103-31.433,31.432-31.433
				c5.457,0,10.587,1.4,15.063,3.854"/>
			<path d="M261.423,331.514h-82.824c-0.667,0-1.323-0.166-1.909-0.484c-20.815-11.304-36.93-30.389-44.619-52.698
				c-0.871,0.045-1.73,0.068-2.573,0.068c-28.322,0-51.364-23.041-51.364-51.361c0-28.323,23.042-51.365,51.364-51.365
				c8.367,0,16.568,2.031,23.91,5.899c13.64-14.21,31.248-23.786,50.447-27.502c-1.95-3.234-3.004-6.965-3.004-10.879
				c0-11.667,9.491-21.16,21.158-21.16c11.666,0,21.157,9.493,21.157,21.16c0,3.942-1.068,7.698-3.042,10.944
				c27.77,5.904,52.968,27.037,66.613,56.054c0.173-0.31,0.347-0.622,0.517-0.927c6.055-10.881,20.235-36.362,43.588-39.268
				c1.114-0.139,2.233,0.197,3.087,0.924L374,188.012c0.822,0.7,1.326,1.702,1.398,2.778c0.041,0.619,0.115,3.803-2.491,5.782
				c-1.286,0.977-3.556,1.882-7.067,0.645c-3.019-1.065-6.042-1.211-7.704-0.375c-0.548,0.276-1.23,0.768-1.651,2.134
				c-1.366,4.437-6.574,18.042-11.611,31.199c-2.811,7.342-5.468,14.283-6.957,18.346c-13.096,50.042-52.151,70.654-70.933,80.564
				c-1.331,0.703-2.555,1.348-3.652,1.944C262.746,331.348,262.09,331.514,261.423,331.514z M179.627,323.514h80.786
				c0.88-0.471,1.828-0.972,2.836-1.504c17.792-9.389,54.815-28.925,66.973-75.69c0.032-0.124,0.071-0.247,0.115-0.368
				c1.497-4.092,4.201-11.157,7.065-18.637c4.757-12.427,10.149-26.513,11.436-30.693c0.966-3.139,2.937-5.535,5.698-6.925
				c2.435-1.228,5.102-1.503,7.506-1.36l-11.905-10.139c-18.38,3.483-30.591,25.424-35.894,34.953
				c-2.156,3.874-2.962,5.323-4.255,6.228c-1.487,1.042-3.07,1.585-4.711,1.54c-1.606-0.02-3.044-0.998-3.652-2.484
				c-12.963-31.657-40.358-54.247-69.79-57.551c-1.629-0.183-2.982-1.342-3.413-2.924c-0.431-1.582,0.147-3.267,1.459-4.25
				c3.358-2.519,5.284-6.353,5.284-10.519c0-7.256-5.902-13.16-13.157-13.16c-7.255,0-13.158,5.904-13.158,13.16
				c0,4.164,1.926,7.999,5.284,10.521c1.31,0.984,1.888,2.668,1.457,4.25c-0.431,1.581-1.783,2.74-3.412,2.923
				c-21.161,2.379-40.68,12.446-54.971,28.351c-0.234,0.271-0.499,0.503-0.786,0.697c-0.508,0.343-1.079,0.557-1.667,0.642
				c-0.573,0.083-1.167,0.042-1.739-0.133c-0.339-0.104-0.668-0.253-0.977-0.45c-6.772-4.133-14.565-6.316-22.541-6.316
				c-23.911,0-43.364,19.454-43.364,43.365c0,23.91,19.453,43.361,43.364,43.361c1.591,0,3.189-0.092,4.884-0.279
				c0.362-0.048,0.723-0.044,1.073,0.005c0.583,0.082,1.131,0.291,1.611,0.601c0.505,0.325,0.938,0.764,1.257,1.295
				c0.179,0.296,0.321,0.618,0.419,0.961C145.273,294.271,160.143,312.632,179.627,323.514z M129.498,262.468
				c-19.537,0-35.432-15.893-35.432-35.428c0-19.538,15.895-35.433,35.432-35.433c5.915,0,11.777,1.498,16.955,4.33
				c0.043,0.023,0.086,0.047,0.129,0.073c0.391,0.229,0.73,0.515,1.011,0.841c0.001,0.001,0.001,0.001,0.002,0.002
				c0.002,0.002,0.003,0.003,0.004,0.005c0.409,0.477,0.694,1.039,0.843,1.633c0.136,0.545,0.159,1.12,0.056,1.685
				c0,0,0,0.002-0.001,0.003c0,0.002-0.001,0.004-0.001,0.006c-0.082,0.444-0.24,0.88-0.48,1.291
				c-0.001,0.002-0.002,0.004-0.003,0.005c-0.022,0.039-0.046,0.077-0.069,0.114c-8.524,13.75-13.029,29.593-13.029,45.817
				c0,3.426,0.213,6.951,0.633,10.477c0.005,0.04,0.009,0.078,0.013,0.118c0.045,0.467,0.008,0.924-0.1,1.356l0,0.001
				c-0.001,0.003-0.001,0.006-0.002,0.008c-0.15,0.594-0.433,1.137-0.817,1.594c-0.001,0.002-0.003,0.003-0.004,0.005
				c-0.001,0.001-0.002,0.002-0.002,0.003c-0.373,0.441-0.841,0.803-1.379,1.051c-0.003,0.001-0.006,0.002-0.009,0.004
				c-0.395,0.181-0.825,0.3-1.28,0.344c-0.053,0.005-0.106,0.009-0.159,0.012C130.973,262.441,130.217,262.468,129.498,262.468z
				 M129.498,199.607c-15.126,0-27.432,12.307-27.432,27.433c0,14.341,11.066,26.146,25.108,27.33
				c-0.172-2.341-0.259-4.668-0.259-6.957c0-16.208,4.119-32.07,11.95-46.153C135.874,200.172,132.696,199.607,129.498,199.607z"/>
		</g>
		<path d="M223.858,191.206c-16.094,0-34.348-3.044-51.995-12.616c-1.942-1.053-2.662-3.481-1.609-5.423
			c1.054-1.942,3.482-2.661,5.423-1.609c44.039,23.888,94.175,3.198,94.676,2.986c2.035-0.857,4.381,0.092,5.242,2.125
			c0.861,2.033-0.087,4.379-2.119,5.241C272.102,182.493,251.075,191.206,223.858,191.206z"/>
	</g>
	<path display="inline" d="M13352.311,9725.979h-16737v-13953h16737V9725.979z M-3384.189,9724.979h16736l-0.5-13951h-16735.5
		l0.5,13951H-3384.189z"/>
</g>
<g id="linijsko" display="none">
	<g id="rde훾a7bela_copy" display="inline">
	</g>
	<g display="inline">
		<path fill="none" stroke="#000000" stroke-width="8" stroke-linecap="round" stroke-linejoin="round" stroke-miterlimit="10" d="
			M154.186,186.613c-7.189-4.402-15.643-6.94-24.688-6.94c-26.157,0-47.364,21.208-47.364,47.365
			c0,26.158,21.203,47.361,47.364,47.361c1.83,0,3.627-0.113,5.399-0.313 M134.896,274.087
			c7.036,23.002,22.922,42.142,43.702,53.427h82.824c16.115-8.75,59.138-28.13,72.671-80.188
			c3.973-10.861,16.448-42.643,18.567-49.526c2.12-6.889,10.003-5.945,14.507-4.356c4.504,1.586,4.239-2.386,4.239-2.386
			l-20.072-17.094c-26.775,3.332-40.99,40.285-43.639,42.138c-0.894,0.626-1.697,0.827-2.369,0.818
			c-12.356-30.175-39.427-56.236-73.045-60.011c4.174-3.131,6.883-8.103,6.883-13.719c0-9.477-7.681-17.16-17.157-17.16
			s-17.158,7.684-17.158,17.16c0,5.619,2.714,10.588,6.882,13.719c-22.782,2.561-43.016,13.509-57.547,29.705 M144.561,199.461
			c-8.642,13.929-13.646,30.354-13.646,47.952c0,3.716,0.235,7.379,0.665,10.98 M131.58,258.393
			c-0.687,0.045-1.382,0.075-2.082,0.075c-17.33,0-31.432-14.098-31.432-31.428c0-17.331,14.103-31.433,31.432-31.433
			c5.457,0,10.587,1.4,15.063,3.854"/>
		<path fill="none" stroke="#000000" stroke-width="8" stroke-linecap="round" stroke-linejoin="round" stroke-miterlimit="10" d="
			M271.914,178.227c0,0-51.801,21.984-98.143-3.153"/>
	</g>
</g>
<g id="pivot">
	<circle fill="none" cx="214.995" cy="327.484" r="14.133"/>
</g>
</svg>
