<?xml version="1.0" encoding="utf-8"?>
<!-- Generator: Adobe Illustrator 16.0.0, SVG Export Plug-In . SVG Version: 6.00 Build 0)  -->
<!DOCTYPE svg PUBLIC "-//W3C//DTD SVG 1.1//EN" "http://www.w3.org/Graphics/SVG/1.1/DTD/svg11.dtd">
<svg version="1.1" xmlns="http://www.w3.org/2000/svg" xmlns:xlink="http://www.w3.org/1999/xlink" x="0px" y="0px"
	 width="453.544px" height="453.543px" viewBox="0 0 453.544 453.543" enable-background="new 0 0 453.544 453.543"
	 xml:space="preserve">
<g id="kvadrat">
</g>
<g id="bg" display="none">
	<rect x="-12568.394" y="-3806.513" display="inline" width="15266.867" height="13678.951"/>
</g>
<g id="barvno" display="none">
	<g id="rde훾a7bela" display="inline">
	</g>
	<g display="inline">
		<path fill="#C6C6C5" stroke="#1D1D1B" stroke-width="8" stroke-linecap="round" stroke-miterlimit="10" d="M153.286,152.379
			c-0.633-3.845-3.684-7.963-10.688-12.285l-39.922-24.633c-12.043-7.432-15.127-2.76-18.744,3.104
			c-3.625,5.876-6.414,10.721,5.629,18.152l39.922,24.633c7.004,4.323,12.053,5.208,15.771,4.043l55.926,34.51l8.031-13.016
			L153.286,152.379z"/>
		<path fill="#57B2E5" stroke="#1D1D1B" stroke-width="8" stroke-linecap="round" stroke-miterlimit="10" d="M372.722,287.503
			L195.347,178.052c-1.055,1.524-2.078,3.084-3.063,4.681c-30.268,49.051-15.041,113.352,34.012,143.618
			c49.051,30.269,113.35,15.041,143.619-34.01C370.899,290.744,371.833,289.131,372.722,287.503z M214.296,222.392
			c-3.242-2-4.248-6.247-2.248-9.486s6.246-4.245,9.484-2.247c3.24,2,4.246,6.247,2.246,9.485
			C221.78,223.384,217.534,224.39,214.296,222.392z M218.042,260.944c-3.24-1.999-4.244-6.245-2.246-9.485
			c2-3.239,6.244-4.244,9.484-2.246c3.238,1.999,4.244,6.246,2.246,9.486C225.526,261.938,221.28,262.943,218.042,260.944z
			 M219.806,298.336c-3.238-1.997-4.244-6.245-2.246-9.484c2-3.24,6.246-4.245,9.486-2.245c3.238,1.997,4.244,6.244,2.246,9.484
			C227.292,299.33,223.048,300.336,219.806,298.336z M252.226,245.797c-3.238-1.998-4.244-6.246-2.246-9.485
			c2-3.238,6.246-4.245,9.486-2.245c3.238,1.998,4.246,6.244,2.246,9.484C259.714,246.79,255.466,247.797,252.226,245.797z
			 M255.974,284.352c-3.24-2-4.246-6.245-2.246-9.485c1.998-3.24,6.246-4.246,9.486-2.247c3.238,1.999,4.244,6.246,2.244,9.485
			C263.462,285.344,259.214,286.35,255.974,284.352z M257.739,321.743c-3.24-1.999-4.246-6.245-2.246-9.485
			c1.998-3.24,6.244-4.244,9.484-2.246s4.246,6.245,2.246,9.484C265.226,322.736,260.978,323.742,257.739,321.743z M290.159,269.203
			c-3.238-1.999-4.246-6.245-2.246-9.485c1.998-3.239,6.244-4.244,9.484-2.246c3.24,2,4.246,6.245,2.246,9.486
			C297.646,270.197,293.397,271.202,290.159,269.203z M293.905,307.758c-3.238-1.999-4.244-6.246-2.246-9.485
			c2-3.239,6.246-4.245,9.486-2.247c3.238,1.999,4.244,6.247,2.246,9.486C301.392,308.751,297.146,309.757,293.905,307.758z
			 M328.091,292.609c-3.24-1.999-4.244-6.246-2.246-9.485s6.246-4.245,9.484-2.246c3.24,1.999,4.246,6.246,2.248,9.485
			C335.577,293.603,331.331,294.608,328.091,292.609z"/>
	</g>
	
		<rect x="-13078.679" y="-4226.521" display="inline" fill="none" stroke="#000000" stroke-miterlimit="10" width="16736" height="13952"/>
</g>
<g id="barvno_copy_2">
	<g id="rde훾a7bela_copy_4">
	</g>
	<g>
		<g>
			<path fill="#0000FF" d="M153.286,152.379c-0.633-3.845-3.684-7.963-10.688-12.285l-39.922-24.633
				c-12.043-7.432-15.127-2.76-18.744,3.104c-3.625,5.876-6.414,10.721,5.629,18.152l39.922,24.633
				c7.004,4.323,12.053,5.208,15.771,4.043l55.926,34.51l8.031-13.016L153.286,152.379z"/>
			<path d="M202.484,205.407l-57.932-35.747c-4.899,0.814-10.502-0.79-17.17-4.906l-39.922-24.632
				c-14.388-8.878-11.313-16.555-6.933-23.657c2.3-3.729,5.45-8.834,12.019-8.834c3.449,0,7.336,1.407,12.23,4.427l39.922,24.632
				c6.655,4.107,10.632,8.426,12.089,13.15l57.929,35.744L202.484,205.407z M145.802,161.03l54.075,33.368l3.83-6.208
				l-54.072-33.364l-0.296-1.798c-0.488-2.967-3.545-6.263-8.841-9.531l-39.922-24.632c-4.333-2.674-6.758-3.235-8.029-3.235
				c-1.813,0-2.842,1.195-5.21,5.035c-3.335,5.406-4.459,7.228,4.325,12.648l39.922,24.632c5.334,3.293,9.567,4.54,12.475,3.63
				L145.802,161.03z"/>
		</g>
		<g>
			<path fill="#FF00FF" d="M372.722,287.503L195.347,178.052c-1.055,1.524-2.078,3.084-3.063,4.681
				c-30.268,49.051-15.041,113.352,34.012,143.618c49.051,30.269,113.35,15.041,143.619-34.01
				C370.899,290.744,371.833,289.131,372.722,287.503z M214.296,222.392c-3.242-2-4.248-6.247-2.248-9.486s6.246-4.245,9.484-2.247
				c3.24,2,4.246,6.247,2.246,9.485C221.78,223.384,217.534,224.39,214.296,222.392z M218.042,260.944
				c-3.24-1.999-4.244-6.245-2.246-9.485c2-3.239,6.244-4.244,9.484-2.246c3.238,1.999,4.244,6.246,2.246,9.486
				C225.526,261.938,221.28,262.943,218.042,260.944z M219.806,298.336c-3.238-1.997-4.244-6.245-2.246-9.484
				c2-3.24,6.246-4.245,9.486-2.245c3.238,1.997,4.244,6.244,2.246,9.484C227.292,299.33,223.048,300.336,219.806,298.336z
				 M252.226,245.797c-3.238-1.998-4.244-6.246-2.246-9.485c2-3.238,6.246-4.245,9.486-2.245c3.238,1.998,4.246,6.244,2.246,9.484
				C259.714,246.79,255.466,247.797,252.226,245.797z M255.974,284.352c-3.24-2-4.246-6.245-2.246-9.485
				c1.998-3.24,6.246-4.246,9.486-2.247c3.238,1.999,4.244,6.246,2.244,9.485C263.462,285.344,259.214,286.35,255.974,284.352z
				 M257.739,321.743c-3.24-1.999-4.246-6.245-2.246-9.485c1.998-3.24,6.244-4.244,9.484-2.246s4.246,6.245,2.246,9.484
				C265.226,322.736,260.978,323.742,257.739,321.743z M290.159,269.203c-3.238-1.999-4.246-6.245-2.246-9.485
				c1.998-3.239,6.244-4.244,9.484-2.246c3.24,2,4.246,6.245,2.246,9.486C297.646,270.197,293.397,271.202,290.159,269.203z
				 M293.905,307.758c-3.238-1.999-4.244-6.246-2.246-9.485c2-3.239,6.246-4.245,9.486-2.247c3.238,1.999,4.244,6.247,2.246,9.486
				C301.392,308.751,297.146,309.757,293.905,307.758z M328.091,292.609c-3.24-1.999-4.244-6.246-2.246-9.485
				s6.246-4.245,9.484-2.246c3.24,1.999,4.246,6.246,2.248,9.485C335.577,293.603,331.331,294.608,328.091,292.609z"/>
			<path d="M281.011,345.914c-0.005,0-0.006,0-0.011,0c-20.034-0.002-39.677-5.589-56.805-16.159
				c-24.633-15.199-41.873-39.081-48.543-67.247c-6.67-28.166-1.972-57.243,13.228-81.875c0.991-1.607,2.061-3.242,3.178-4.856
				l2.159-3.122L378.05,286.09l-1.817,3.329c-0.937,1.715-1.916,3.405-2.912,5.021C353.43,326.671,318.921,345.914,281.011,345.914z
				 M196.535,183.485c-0.288,0.451-0.57,0.9-0.846,1.347c-14.079,22.815-18.43,49.746-12.252,75.832
				c6.178,26.086,22.145,48.206,44.959,62.283c15.864,9.79,34.055,14.966,52.604,14.967c0.002,0,0.008,0,0.01,0
				c35.117,0.001,67.078-17.82,85.5-47.673c0.276-0.448,0.551-0.902,0.824-1.361L196.535,183.485z M261.352,326.771
				c-2.017,0-3.992-0.562-5.714-1.624c-2.476-1.527-4.208-3.928-4.879-6.759s-0.198-5.754,1.33-8.231
				c1.997-3.238,5.465-5.173,9.274-5.173c2.017,0,3.992,0.562,5.714,1.623c2.477,1.527,4.21,3.928,4.881,6.76
				s0.198,5.755-1.331,8.231C268.63,324.836,265.162,326.771,261.352,326.771z M261.363,312.984c-1.014,0-1.936,0.514-2.466,1.374
				c-0.406,0.659-0.532,1.435-0.354,2.187c0.178,0.752,0.638,1.389,1.296,1.795c0.458,0.283,0.98,0.432,1.512,0.432
				c1.015,0,1.937-0.514,2.468-1.375c0.406-0.659,0.532-1.435,0.354-2.186c-0.179-0.751-0.639-1.389-1.296-1.794
				C262.419,313.134,261.896,312.984,261.363,312.984z M297.519,312.786c-2.017,0-3.992-0.562-5.714-1.624
				c-5.11-3.155-6.702-9.879-3.55-14.99c2.001-3.24,5.469-5.174,9.278-5.174c2.016,0,3.99,0.561,5.712,1.622
				c5.111,3.155,6.703,9.88,3.551,14.991C304.795,310.852,301.327,312.786,297.519,312.786z M297.533,298.999
				c-1.016,0-1.938,0.514-2.471,1.375c-0.836,1.356-0.413,3.142,0.944,3.98c0.457,0.282,0.98,0.432,1.512,0.432
				c1.015,0,1.938-0.514,2.47-1.375c0.837-1.356,0.414-3.143-0.944-3.981C298.588,299.147,298.064,298.999,297.533,298.999z
				 M223.421,303.364c-2.017,0-3.993-0.562-5.715-1.624c-2.476-1.526-4.209-3.927-4.88-6.759c-0.67-2.832-0.198-5.754,1.329-8.23
				c2-3.24,5.467-5.174,9.276-5.174c2.017,0,3.993,0.562,5.715,1.625c5.11,3.151,6.703,9.875,3.55,14.988
				C230.696,301.431,227.229,303.364,223.421,303.364z M223.432,289.578c-1.015,0-1.937,0.514-2.468,1.375
				c-0.405,0.656-0.53,1.433-0.353,2.185c0.178,0.752,0.638,1.389,1.294,1.793c1.34,0.828,3.168,0.378,3.983-0.942
				c0.836-1.356,0.414-3.142-0.942-3.978C224.486,289.728,223.963,289.578,223.432,289.578z M331.704,297.637
				c-2.017,0-3.992-0.562-5.714-1.624c-5.11-3.153-6.703-9.877-3.55-14.99c1.998-3.24,5.466-5.174,9.276-5.174
				c2.017,0,3.992,0.562,5.714,1.624c5.11,3.153,6.704,9.877,3.551,14.989C338.981,295.704,335.513,297.637,331.704,297.637z
				 M331.717,283.85c-1.015,0-1.938,0.514-2.468,1.374c-0.838,1.358-0.415,3.144,0.942,3.981c0.458,0.283,0.981,0.432,1.513,0.432
				c1.015,0,1.938-0.514,2.47-1.375c0.836-1.356,0.413-3.142-0.945-3.979C332.771,284,332.248,283.85,331.717,283.85z
				 M259.587,289.378c-2.017,0-3.991-0.561-5.713-1.622c-2.478-1.529-4.211-3.93-4.881-6.761c-0.671-2.831-0.198-5.754,1.33-8.23
				c1.998-3.239,5.466-5.174,9.277-5.174c2.017,0,3.992,0.562,5.714,1.624c2.476,1.529,4.208,3.93,4.878,6.761
				c0.671,2.832,0.198,5.754-1.331,8.23C266.866,287.444,263.398,289.378,259.587,289.378z M259.601,275.591
				c-1.015,0-1.938,0.514-2.469,1.375c-0.406,0.659-0.532,1.435-0.354,2.186c0.179,0.752,0.639,1.39,1.297,1.796
				c0.457,0.282,0.98,0.431,1.513,0.431c1.014,0,1.937-0.513,2.466-1.373c0.407-0.66,0.533-1.436,0.355-2.188
				c-0.179-0.752-0.639-1.389-1.296-1.795C260.655,275.741,260.132,275.591,259.601,275.591z M293.772,274.231
				c-2.017,0-3.993-0.562-5.715-1.624c-5.11-3.155-6.703-9.88-3.549-14.99c1.998-3.238,5.466-5.172,9.275-5.172
				c2.016,0,3.991,0.561,5.713,1.623c5.112,3.156,6.704,9.88,3.551,14.992C301.05,272.297,297.582,274.231,293.772,274.231z
				 M293.784,260.444c-1.014,0-1.937,0.513-2.467,1.374c-0.838,1.358-0.415,3.144,0.943,3.981c1.336,0.825,3.167,0.375,3.979-0.941
				c0.838-1.358,0.415-3.145-0.942-3.982C294.84,260.594,294.316,260.444,293.784,260.444z M221.654,265.972
				c-2.017,0-3.992-0.562-5.714-1.624c-5.109-3.152-6.702-9.876-3.549-14.989c2-3.24,5.468-5.174,9.276-5.174
				c2.015,0,3.99,0.561,5.712,1.623c5.11,3.155,6.703,9.879,3.551,14.991C228.931,264.039,225.463,265.972,221.654,265.972z
				 M221.668,252.186c-1.015,0-1.937,0.514-2.469,1.375c-0.836,1.356-0.414,3.143,0.943,3.979c1.343,0.828,3.168,0.375,3.98-0.942
				c0.836-1.356,0.413-3.143-0.944-3.981C222.723,252.335,222.199,252.186,221.668,252.186z M255.839,250.825
				c-2.017,0-3.992-0.562-5.714-1.625c-5.11-3.153-6.703-9.877-3.55-14.989c2.001-3.24,5.469-5.173,9.277-5.173
				c2.017,0,3.992,0.562,5.714,1.625c2.476,1.527,4.208,3.927,4.879,6.758c0.671,2.832,0.199,5.755-1.329,8.231
				C263.118,248.891,259.649,250.825,255.839,250.825z M255.853,237.038c-1.015,0-1.938,0.514-2.47,1.375
				c-0.837,1.356-0.414,3.142,0.943,3.979c0.458,0.283,0.981,0.433,1.513,0.433c1.015,0,1.938-0.514,2.469-1.375
				c0.406-0.658,0.531-1.434,0.354-2.186c-0.179-0.751-0.639-1.389-1.296-1.794C256.9,237.184,256.392,237.038,255.853,237.038z
				 M217.906,227.418c-2.016,0-3.99-0.561-5.711-1.623c-2.477-1.528-4.211-3.929-4.882-6.761s-0.198-5.755,1.331-8.231
				c2-3.239,5.468-5.172,9.276-5.172c2.016,0,3.991,0.561,5.712,1.623c2.477,1.529,4.209,3.93,4.88,6.761
				c0.671,2.832,0.198,5.755-1.331,8.231C225.185,225.484,221.717,227.418,217.906,227.418z M217.921,213.631
				c-1.015,0-1.938,0.514-2.47,1.375c-0.405,0.657-0.531,1.433-0.353,2.184c0.178,0.752,0.639,1.39,1.297,1.796
				c1.342,0.825,3.165,0.374,3.979-0.943c0.406-0.659,0.532-1.434,0.354-2.186c-0.178-0.752-0.639-1.39-1.296-1.796
				C218.975,213.78,218.452,213.631,217.921,213.631z"/>
		</g>
	</g>
	<rect x="-13078.679" y="-4226.521" fill="none" stroke="#000000" stroke-miterlimit="10" width="16736" height="13952"/>
</g>
<g id="sivinsko" display="none">
	<g id="rde훾a7bela_copy_3" display="inline">
	</g>
	<g display="inline">
		<g>
			<path fill="#C6C6C6" d="M153.286,152.379c-0.633-3.845-3.684-7.963-10.688-12.285l-39.922-24.633
				c-12.043-7.432-15.127-2.76-18.744,3.104c-3.625,5.876-6.414,10.721,5.629,18.152l39.922,24.633
				c7.004,4.323,12.053,5.208,15.771,4.043l55.926,34.51l8.031-13.016L153.286,152.379z"/>
			<path fill="#1D1D1D" d="M202.484,205.407l-57.933-35.747c-4.898,0.814-10.501-0.79-17.169-4.906l-39.922-24.632
				c-14.388-8.878-11.313-16.555-6.933-23.657c2.3-3.729,5.45-8.834,12.019-8.834c3.449,0,7.336,1.407,12.23,4.427l39.922,24.632
				c6.655,4.107,10.632,8.426,12.089,13.15l57.929,35.744L202.484,205.407z M145.802,161.03l54.075,33.368l3.829-6.208
				l-54.071-33.364l-0.296-1.798c-0.488-2.967-3.545-6.263-8.841-9.531l-39.922-24.632c-4.333-2.674-6.758-3.235-8.029-3.235
				c-1.813,0-2.842,1.195-5.21,5.034c-3.335,5.407-4.459,7.228,4.325,12.649l39.922,24.632c5.334,3.293,9.567,4.54,12.474,3.63
				L145.802,161.03z"/>
		</g>
		<g>
			<path fill="#9C9C9C" d="M372.722,287.503L195.347,178.052c-1.055,1.524-2.078,3.084-3.063,4.681
				c-30.268,49.051-15.041,113.352,34.012,143.618c49.051,30.269,113.35,15.041,143.619-34.01
				C370.899,290.744,371.833,289.131,372.722,287.503z M214.296,222.392c-3.242-2-4.248-6.247-2.248-9.486s6.246-4.245,9.484-2.247
				c3.24,2,4.246,6.247,2.246,9.485C221.78,223.384,217.534,224.39,214.296,222.392z M218.042,260.944
				c-3.24-1.999-4.244-6.245-2.246-9.485c2-3.239,6.244-4.244,9.484-2.246c3.238,1.999,4.244,6.246,2.246,9.486
				C225.526,261.938,221.28,262.943,218.042,260.944z M219.806,298.336c-3.238-1.997-4.244-6.245-2.246-9.484
				c2-3.24,6.246-4.245,9.486-2.245c3.238,1.997,4.244,6.244,2.246,9.484C227.292,299.33,223.048,300.336,219.806,298.336z
				 M252.226,245.797c-3.238-1.998-4.244-6.246-2.246-9.485c2-3.238,6.246-4.245,9.486-2.245c3.238,1.998,4.246,6.244,2.246,9.484
				C259.714,246.79,255.466,247.797,252.226,245.797z M255.974,284.352c-3.24-2-4.246-6.245-2.246-9.485
				c1.998-3.24,6.246-4.246,9.486-2.247c3.238,1.999,4.244,6.246,2.244,9.485C263.462,285.344,259.214,286.35,255.974,284.352z
				 M257.739,321.743c-3.24-1.999-4.246-6.245-2.246-9.485c1.998-3.24,6.244-4.244,9.484-2.246s4.246,6.245,2.246,9.484
				C265.226,322.736,260.978,323.742,257.739,321.743z M290.159,269.203c-3.238-1.999-4.246-6.245-2.246-9.485
				c1.998-3.239,6.244-4.244,9.484-2.246c3.24,2,4.246,6.245,2.246,9.486C297.646,270.197,293.397,271.202,290.159,269.203z
				 M293.905,307.758c-3.238-1.999-4.244-6.246-2.246-9.485c2-3.239,6.246-4.245,9.486-2.247c3.238,1.999,4.244,6.247,2.246,9.486
				C301.392,308.751,297.146,309.757,293.905,307.758z M328.091,292.609c-3.24-1.999-4.244-6.246-2.246-9.485
				s6.246-4.245,9.484-2.246c3.24,1.999,4.246,6.246,2.248,9.485C335.577,293.603,331.331,294.608,328.091,292.609z"/>
			<path fill="#1D1D1D" d="M281.011,345.914H281c-20.034-0.002-39.677-5.59-56.804-16.159
				c-24.634-15.199-41.873-39.082-48.544-67.248c-6.67-28.166-1.972-57.243,13.228-81.875c0.99-1.607,2.061-3.242,3.178-4.856
				l2.159-3.122L378.05,286.09l-1.817,3.329c-0.937,1.715-1.916,3.405-2.911,5.021C353.43,326.671,318.921,345.914,281.011,345.914z
				 M196.535,183.485c-0.288,0.451-0.57,0.9-0.847,1.346c-14.078,22.816-18.429,49.747-12.252,75.833
				c6.179,26.086,22.146,48.205,44.96,62.282c15.864,9.79,34.055,14.966,52.604,14.968h0.01c35.117,0,67.078-17.821,85.5-47.674
				c0.275-0.448,0.551-0.901,0.824-1.361L196.535,183.485z M261.352,326.771c-2.017,0-3.992-0.562-5.714-1.624
				c-2.476-1.527-4.208-3.928-4.879-6.759c-0.672-2.831-0.198-5.754,1.33-8.231c1.997-3.238,5.465-5.173,9.275-5.173
				c2.016,0,3.991,0.562,5.713,1.623c2.477,1.527,4.209,3.928,4.881,6.76c0.671,2.832,0.199,5.755-1.331,8.231
				C268.63,324.837,265.162,326.771,261.352,326.771z M261.364,312.984c-1.015,0-1.937,0.513-2.467,1.374
				c-0.406,0.659-0.532,1.435-0.354,2.187c0.178,0.752,0.638,1.389,1.295,1.795c0.459,0.283,0.982,0.432,1.513,0.432
				c1.015,0,1.937-0.514,2.468-1.375c0.406-0.659,0.532-1.435,0.354-2.186c-0.178-0.752-0.638-1.389-1.295-1.794
				C262.419,313.134,261.896,312.984,261.364,312.984z M297.519,312.786c-2.017,0-3.992-0.562-5.715-1.624
				c-5.109-3.155-6.701-9.879-3.549-14.99c2-3.24,5.469-5.174,9.278-5.174c2.016,0,3.989,0.561,5.712,1.622
				c5.111,3.155,6.703,9.88,3.551,14.991C304.795,310.853,301.327,312.786,297.519,312.786z M297.533,298.999
				c-1.016,0-1.938,0.514-2.471,1.375c-0.836,1.356-0.413,3.142,0.944,3.98c0.457,0.282,0.98,0.432,1.512,0.432
				c1.015,0,1.938-0.515,2.471-1.376c0.836-1.356,0.413-3.143-0.945-3.98C298.587,299.147,298.064,298.999,297.533,298.999z
				 M223.421,303.364c-2.016,0-3.993-0.562-5.715-1.624c-2.476-1.526-4.209-3.927-4.88-6.759c-0.669-2.832-0.198-5.754,1.329-8.23
				c2-3.24,5.467-5.173,9.276-5.173c2.017,0,3.993,0.562,5.715,1.625c5.11,3.151,6.703,9.875,3.55,14.988
				C230.696,301.431,227.229,303.364,223.421,303.364z M223.432,289.578c-1.015,0-1.937,0.514-2.468,1.375
				c-0.406,0.656-0.53,1.433-0.353,2.185s0.638,1.389,1.294,1.793c1.34,0.828,3.168,0.378,3.982-0.942
				c0.836-1.356,0.415-3.142-0.941-3.978C224.486,289.728,223.963,289.578,223.432,289.578z M331.704,297.638
				c-2.017,0-3.992-0.562-5.715-1.624c-5.109-3.153-6.703-9.877-3.549-14.99c1.998-3.24,5.467-5.174,9.276-5.174
				c2.017,0,3.992,0.562,5.714,1.624c5.109,3.153,6.704,9.877,3.551,14.989C338.981,295.704,335.513,297.638,331.704,297.638z
				 M331.717,283.85c-1.015,0-1.937,0.514-2.468,1.374c-0.838,1.358-0.415,3.144,0.941,3.981c0.459,0.283,0.982,0.433,1.514,0.433
				c1.015,0,1.938-0.515,2.469-1.376c0.837-1.356,0.414-3.142-0.944-3.979C332.771,284,332.248,283.85,331.717,283.85z
				 M259.587,289.379c-2.016,0-3.991-0.561-5.713-1.623c-2.478-1.529-4.211-3.93-4.881-6.76c-0.67-2.832-0.198-5.754,1.33-8.231
				c1.998-3.239,5.466-5.174,9.277-5.174c2.017,0,3.992,0.562,5.714,1.624c2.476,1.529,4.208,3.93,4.878,6.761
				c0.672,2.832,0.197,5.755-1.331,8.23C266.866,287.444,263.398,289.379,259.587,289.379z M259.601,275.591
				c-1.015,0-1.938,0.514-2.469,1.375c-0.406,0.659-0.532,1.435-0.354,2.186c0.179,0.752,0.639,1.39,1.296,1.796
				c0.458,0.282,0.981,0.431,1.514,0.431c1.014,0,1.936-0.513,2.465-1.373c0.408-0.66,0.534-1.436,0.355-2.188
				c-0.178-0.752-0.639-1.389-1.295-1.795C260.655,275.741,260.132,275.591,259.601,275.591z M293.772,274.231
				c-2.018,0-3.992-0.562-5.715-1.624c-5.109-3.155-6.703-9.88-3.549-14.99c1.998-3.238,5.465-5.172,9.275-5.172
				c2.016,0,3.99,0.561,5.713,1.623c5.112,3.156,6.704,9.88,3.551,14.992C301.05,272.297,297.582,274.231,293.772,274.231z
				 M293.784,260.444c-1.014,0-1.937,0.513-2.467,1.374c-0.838,1.358-0.415,3.144,0.943,3.981c1.336,0.825,3.167,0.375,3.979-0.941
				c0.838-1.358,0.416-3.145-0.942-3.982C294.839,260.594,294.316,260.444,293.784,260.444z M221.655,265.972
				c-2.018,0-3.993-0.562-5.715-1.624c-5.109-3.152-6.701-9.876-3.549-14.989c2-3.24,5.468-5.174,9.276-5.174
				c2.015,0,3.989,0.561,5.712,1.623c5.109,3.155,6.703,9.879,3.551,14.991C228.931,264.039,225.463,265.972,221.655,265.972z
				 M221.668,252.186c-1.015,0-1.937,0.514-2.469,1.375c-0.835,1.356-0.414,3.143,0.943,3.979c1.343,0.828,3.168,0.375,3.979-0.942
				c0.837-1.356,0.414-3.143-0.943-3.981C222.723,252.335,222.199,252.186,221.668,252.186z M255.839,250.825
				c-2.016,0-3.992-0.562-5.715-1.625c-5.109-3.153-6.702-9.877-3.549-14.989c2.001-3.24,5.469-5.173,9.277-5.173
				c2.017,0,3.992,0.562,5.714,1.625c2.476,1.527,4.208,3.927,4.88,6.758c0.67,2.831,0.198,5.754-1.33,8.231
				C263.118,248.891,259.649,250.825,255.839,250.825z M255.853,237.038c-1.015,0-1.938,0.514-2.47,1.376
				c-0.837,1.355-0.414,3.142,0.943,3.979c0.458,0.283,0.981,0.433,1.513,0.433c1.014,0,1.938-0.514,2.469-1.375
				c0.406-0.658,0.531-1.434,0.354-2.186c-0.179-0.751-0.639-1.389-1.296-1.794C256.9,237.184,256.392,237.038,255.853,237.038z
				 M217.907,227.419c-2.018,0-3.991-0.562-5.711-1.623c-2.478-1.528-4.212-3.929-4.883-6.761c-0.671-2.831-0.198-5.755,1.331-8.231
				c2-3.239,5.468-5.172,9.276-5.172c2.016,0,3.991,0.561,5.712,1.623c2.477,1.529,4.208,3.93,4.88,6.761
				c0.671,2.832,0.198,5.755-1.331,8.231C225.185,225.484,221.717,227.419,217.907,227.419z M217.921,213.631
				c-1.014,0-1.938,0.514-2.47,1.375c-0.405,0.657-0.532,1.433-0.353,2.184c0.178,0.752,0.639,1.39,1.297,1.796
				c1.342,0.825,3.165,0.374,3.979-0.943c0.406-0.658,0.533-1.434,0.354-2.186c-0.178-0.752-0.639-1.39-1.296-1.796
				C218.974,213.78,218.452,213.631,217.921,213.631z"/>
		</g>
	</g>
	<path display="inline" d="M3657.821,9725.979h-16737v-13953h16737V9725.979z M-13078.679,9724.979h16736l-0.5-13951h-16735.5
		l0.5,13951H-13078.679z"/>
</g>
<g id="linijsko" display="none">
	<g id="rde훾a7bela_copy" display="inline">
	</g>
	<g display="inline">
		<path fill="none" stroke="#1C1C1C" stroke-width="8" stroke-linecap="round" stroke-miterlimit="10" d="M153.286,152.379
			c-0.633-3.845-3.684-7.963-10.688-12.285l-39.922-24.633c-12.043-7.432-15.127-2.76-18.744,3.104
			c-3.625,5.876-6.414,10.721,5.629,18.152l39.922,24.633c7.004,4.323,12.053,5.208,15.771,4.043l42.061,25.675l8.031-13.016
			L153.286,152.379z"/>
		<path fill="none" stroke="#1C1C1C" stroke-width="8" stroke-linecap="round" stroke-miterlimit="10" d="M372.722,287.503
			L195.347,178.052c-1.055,1.524-2.078,3.084-3.063,4.681c-30.268,49.051-15.041,113.352,34.012,143.618
			c49.051,30.269,113.35,15.041,143.619-34.01C370.899,290.744,371.833,289.131,372.722,287.503z M214.296,222.392
			c-3.242-2-4.248-6.247-2.248-9.486s6.246-4.245,9.484-2.247c3.24,2,4.246,6.247,2.246,9.485
			C221.78,223.384,217.534,224.39,214.296,222.392z M218.042,260.944c-3.24-1.999-4.244-6.245-2.246-9.485
			c2-3.239,6.244-4.244,9.484-2.246c3.238,1.999,4.244,6.246,2.246,9.486C225.526,261.938,221.28,262.943,218.042,260.944z
			 M219.806,298.336c-3.238-1.997-4.244-6.245-2.246-9.484c2-3.24,6.246-4.245,9.486-2.245c3.238,1.997,4.244,6.244,2.246,9.484
			C227.292,299.33,223.048,300.336,219.806,298.336z M252.226,245.797c-3.238-1.998-4.244-6.246-2.246-9.485
			c2-3.238,6.246-4.245,9.486-2.245c3.238,1.998,4.246,6.244,2.246,9.484C259.714,246.79,255.466,247.797,252.226,245.797z
			 M255.974,284.352c-3.24-2-4.246-6.245-2.246-9.485c1.998-3.24,6.246-4.246,9.486-2.247c3.238,1.999,4.244,6.246,2.244,9.485
			C263.462,285.344,259.214,286.35,255.974,284.352z M257.739,321.743c-3.24-1.999-4.246-6.245-2.246-9.485
			c1.998-3.24,6.244-4.244,9.484-2.246s4.246,6.245,2.246,9.484C265.226,322.736,260.978,323.742,257.739,321.743z M290.159,269.203
			c-3.238-1.999-4.246-6.245-2.246-9.485c1.998-3.239,6.244-4.244,9.484-2.246c3.24,2,4.246,6.245,2.246,9.486
			C297.646,270.197,293.397,271.202,290.159,269.203z M293.905,307.758c-3.238-1.999-4.244-6.246-2.246-9.485
			c2-3.239,6.246-4.245,9.486-2.247c3.238,1.999,4.244,6.247,2.246,9.486C301.392,308.751,297.146,309.757,293.905,307.758z
			 M328.091,292.609c-3.24-1.999-4.244-6.246-2.246-9.485s6.246-4.245,9.484-2.246c3.24,1.999,4.246,6.246,2.248,9.485
			C335.577,293.603,331.331,294.608,328.091,292.609z"/>
	</g>
</g>
<g id="pivot">
	<circle fill="none" cx="264.429" cy="337.611" r="14.133"/>
</g>
</svg>
