<?xml version="1.0" encoding="utf-8"?>
<!-- Generator: Adobe Illustrator 16.0.0, SVG Export Plug-In . SVG Version: 6.00 Build 0)  -->
<!DOCTYPE svg PUBLIC "-//W3C//DTD SVG 1.1//EN" "http://www.w3.org/Graphics/SVG/1.1/DTD/svg11.dtd">
<svg version="1.1" xmlns="http://www.w3.org/2000/svg" xmlns:xlink="http://www.w3.org/1999/xlink" x="0px" y="0px"
	 width="453.544px" height="453.543px" viewBox="0 0 453.544 453.543" enable-background="new 0 0 453.544 453.543"
	 xml:space="preserve">
<g id="kvadrat">
</g>
<g id="bg" display="none">
	<rect x="-11037.685" y="-3806.513" display="inline" width="15266.867" height="13678.951"/>
</g>
<g id="barvno" display="none">
	<g id="rde훾a7bela" display="inline">
	</g>
	<g display="inline">
		
			<path fill="#009D73" stroke="#000000" stroke-width="8" stroke-linecap="round" stroke-linejoin="round" stroke-miterlimit="10" d="
			M355.324,209.642c0-14.793-57.557-37.787-128.554-37.787c-70.995,0-128.552,22.994-128.552,37.787l0.294,5.127
			c0,34.268,61.88,66.918,132.77,66.918s123.53-38.448,123.53-66.538C354.813,215.149,355.324,209.946,355.324,209.642z"/>
		
			<path fill="#FFFFFF" stroke="#000000" stroke-width="8" stroke-linecap="round" stroke-linejoin="round" stroke-miterlimit="10" d="
			M355.324,209.642c0-14.793-57.557-37.787-128.554-37.787c-70.995,0-128.552,22.994-128.552,37.787l0.294,5.127
			c16.07,14.333,67.457,30.619,128.369,30.619c60.373,0,111.388-16,127.931-30.238l0.428-4.599
			C355.29,210.249,355.324,209.946,355.324,209.642z"/>
	</g>
	
		<rect x="-11547.97" y="-4226.521" display="inline" fill="none" stroke="#000000" stroke-miterlimit="10" width="16736" height="13952"/>
</g>
<g id="barvno_copy_2">
	<g id="rde훾a7bela_copy_4">
	</g>
	<g>
		<g>
			<path fill="#00FF00" d="M355.324,209.642c0-14.793-57.557-37.787-128.554-37.787c-70.995,0-128.552,22.994-128.552,37.787
				l0.294,5.127c0,34.268,61.88,66.918,132.77,66.918s123.53-38.448,123.53-66.538C354.813,215.149,355.324,209.946,355.324,209.642
				z"/>
			<path d="M231.282,285.688c-34.091,0-68.641-7.672-94.79-21.048c-26.62-13.617-41.912-31.744-41.979-49.752l-0.287-5.017
				c-0.005-0.076-0.007-0.153-0.007-0.229c0-13.58,28.261-24.275,40.411-28.244c26.742-8.733,59.465-13.543,92.141-13.543
				c32.677,0,65.399,4.81,92.143,13.543c12.15,3.968,40.411,14.664,40.411,28.244c0,0.22,0,0.494-0.513,5.711
				C358.569,247.263,301.775,285.688,231.282,285.688z M102.221,209.558l0.285,4.982c0.005,0.076,0.007,0.153,0.007,0.229
				c0,14.937,13.713,30.518,37.623,42.749c25.059,12.818,58.28,20.17,91.146,20.17c69.339,0,119.53-37.355,119.53-62.538
				c0-0.131,0.007-0.261,0.02-0.392c0.213-2.167,0.445-4.608,0.49-5.202c-0.149-3.626-9.673-12.316-34.893-20.553
				c-15.036-4.911-46.678-13.148-89.659-13.148c-42.979,0-74.621,8.238-89.657,13.148
				C111.891,197.241,102.368,205.932,102.221,209.558z"/>
		</g>
		<g>
			<path fill="#FFFFFF" d="M355.324,209.642c0-14.793-57.557-37.787-128.554-37.787c-70.995,0-128.552,22.994-128.552,37.787
				l0.294,5.127c16.07,14.333,67.457,30.619,128.369,30.619c60.373,0,111.388-16,127.931-30.238l0.428-4.599
				C355.29,210.249,355.324,209.946,355.324,209.642z"/>
			<path d="M226.882,249.388c-59.817,0-113.597-16.084-131.031-31.633c-0.792-0.706-1.271-1.697-1.331-2.756l-0.294-5.127
				c-0.005-0.076-0.007-0.153-0.007-0.229c0-13.58,28.261-24.275,40.411-28.244c26.742-8.733,59.465-13.543,92.141-13.543
				c32.677,0,65.399,4.81,92.143,13.543c12.15,3.968,40.411,14.664,40.411,28.244c0,0.444-0.037,0.906-0.113,1.406l-0.416,4.472
				c-0.096,1.031-0.588,1.985-1.373,2.661C339.845,233.309,288.12,249.388,226.882,249.388z M102.408,212.823
				c15.246,12.205,62.442,28.564,124.474,28.564c61.28,0,108.583-16.204,124.103-28.275l0.273-2.933
				c0.009-0.094,0.021-0.188,0.036-0.28c0.029-0.181,0.03-0.25,0.03-0.258c0-3.573-9.474-12.336-34.895-20.639
				c-15.036-4.911-46.678-13.148-89.659-13.148c-42.979,0-74.621,8.238-89.657,13.148c-25.223,8.237-34.745,16.928-34.893,20.554
				L102.408,212.823z"/>
		</g>
	</g>
	<rect x="-11547.97" y="-4226.521" fill="none" stroke="#000000" stroke-miterlimit="10" width="16736" height="13952"/>
</g>
<g id="sivinsko" display="none">
	<g id="rde훾a7bela_copy_3" display="inline">
	</g>
	<g display="inline">
		<g>
			<path fill="#696969" d="M355.324,209.642c0-14.793-57.557-37.787-128.554-37.787c-70.995,0-128.552,22.994-128.552,37.787
				l0.294,5.127c0,34.268,61.88,66.918,132.77,66.918s123.53-38.448,123.53-66.538C354.813,215.149,355.324,209.946,355.324,209.642
				z"/>
			<path d="M231.282,285.688c-34.091,0-68.641-7.672-94.79-21.048c-26.62-13.617-41.912-31.744-41.979-49.752l-0.287-5.017
				c-0.005-0.076-0.007-0.153-0.007-0.229c0-13.58,28.261-24.275,40.411-28.244c26.742-8.733,59.465-13.543,92.141-13.543
				c32.677,0,65.399,4.81,92.143,13.543c12.15,3.968,40.411,14.664,40.411,28.244c0,0.22,0,0.494-0.513,5.711
				C358.569,247.263,301.775,285.688,231.282,285.688z M102.221,209.558l0.285,4.982c0.005,0.076,0.007,0.153,0.007,0.229
				c0,14.937,13.713,30.518,37.623,42.749c25.059,12.818,58.279,20.17,91.146,20.17c69.339,0,119.53-37.355,119.53-62.538
				c0-0.131,0.007-0.261,0.019-0.392c0.213-2.167,0.446-4.608,0.491-5.202c-0.149-3.626-9.673-12.316-34.894-20.553
				c-15.035-4.911-46.677-13.148-89.658-13.148c-42.979,0-74.621,8.238-89.657,13.148
				C111.891,197.241,102.368,205.932,102.221,209.558z"/>
		</g>
		<g>
			<path fill="#FFFFFF" d="M355.324,209.642c0-14.793-57.557-37.787-128.554-37.787c-70.995,0-128.552,22.994-128.552,37.787
				l0.294,5.127c16.07,14.333,67.457,30.619,128.369,30.619c60.373,0,111.388-16,127.931-30.238l0.428-4.599
				C355.29,210.249,355.324,209.946,355.324,209.642z"/>
			<path d="M226.882,249.388c-59.817,0-113.597-16.084-131.031-31.633c-0.792-0.707-1.271-1.698-1.331-2.757l-0.294-5.127
				c-0.005-0.076-0.007-0.153-0.007-0.229c0-13.58,28.261-24.275,40.411-28.244c26.742-8.733,59.465-13.543,92.141-13.543
				c32.677,0,65.399,4.81,92.143,13.543c12.15,3.968,40.411,14.664,40.411,28.244c0,0.445-0.037,0.906-0.113,1.406l-0.416,4.472
				c-0.097,1.031-0.588,1.985-1.373,2.661C339.845,233.309,288.12,249.388,226.882,249.388z M102.408,212.823
				c15.246,12.205,62.442,28.564,124.474,28.564c61.28,0,108.582-16.204,124.103-28.274l0.273-2.933
				c0.009-0.093,0.021-0.188,0.036-0.28c0.029-0.18,0.03-0.25,0.03-0.258c0-3.573-9.474-12.336-34.896-20.639
				c-15.035-4.911-46.677-13.148-89.658-13.148c-42.979,0-74.621,8.238-89.657,13.148c-25.223,8.237-34.745,16.928-34.893,20.554
				L102.408,212.823z"/>
		</g>
	</g>
	<path display="inline" d="M5188.53,9725.979h-16737v-13953h16737V9725.979z M-11547.97,9724.979h16736l-0.5-13951h-16735.5
		l0.5,13951H-11547.97z"/>
</g>
<g id="linijsko" display="none">
	<g id="rde훾a7bela_copy" display="inline">
	</g>
	<g display="inline">
		<path fill="none" stroke="#000000" stroke-width="8" stroke-linecap="round" stroke-linejoin="round" stroke-miterlimit="10" d="
			M355.324,209.642c0-14.793-57.557-37.787-128.554-37.787c-70.995,0-128.552,22.994-128.552,37.787l0.294,5.127
			c0,34.268,61.88,66.918,132.77,66.918s123.53-38.448,123.53-66.538C354.813,215.149,355.324,209.946,355.324,209.642z"/>
		<path fill="none" stroke="#000000" stroke-width="8" stroke-linecap="round" stroke-linejoin="round" stroke-miterlimit="10" d="
			M355.324,209.642c0-14.793-57.557-37.787-128.554-37.787c-70.995,0-128.552,22.994-128.552,37.787l0.294,5.127
			c16.07,14.333,67.457,30.619,128.369,30.619c60.373,0,111.388-16,127.931-30.238l0.428-4.599
			C355.29,210.249,355.324,209.946,355.324,209.642z"/>
	</g>
</g>
<g id="pivot">
	<circle fill="none" cx="225.402" cy="281.187" r="14.133"/>
</g>
</svg>
