<?xml version="1.0" encoding="utf-8"?>
<!-- Generator: Adobe Illustrator 16.0.0, SVG Export Plug-In . SVG Version: 6.00 Build 0)  -->
<!DOCTYPE svg PUBLIC "-//W3C//DTD SVG 1.1//EN" "http://www.w3.org/Graphics/SVG/1.1/DTD/svg11.dtd">
<svg version="1.1" xmlns="http://www.w3.org/2000/svg" xmlns:xlink="http://www.w3.org/1999/xlink" x="0px" y="0px"
	 width="453.544px" height="453.543px" viewBox="0 0 453.544 453.543" enable-background="new 0 0 453.544 453.543"
	 xml:space="preserve">
<g id="kvadrat">
</g>
<g id="bg" display="none">
	<rect x="-8486.503" y="-3296.276" display="inline" width="15266.867" height="13678.951"/>
</g>
<g id="barvno" display="none">
	<g id="rde훾a7bela" display="inline">
	</g>
	<g display="inline">
		
			<path fill="#C8C8C8" stroke="#000000" stroke-width="8" stroke-linecap="round" stroke-linejoin="round" stroke-miterlimit="10" d="
			M218.544,65.997c-1.727,0.136-3.102,1.58-3.102,3.343V175.4c0,1.855,1.514,3.37,3.367,3.37h1.922v73.853
			c0,5.26-3.434,11.55-9.969,14.064c-11.271,4.728-19.563,20.059-19.73,38.325c0,0.05-0.008,0.101-0.008,0.152v76.273
			c0,3.369,2.762,6.127,6.127,6.127h59.236c3.375,0,6.131-2.758,6.131-6.127v-76.273c0-0.052-0.008-0.103-0.008-0.152
			c-0.168-18.267-8.463-33.598-19.734-38.325c-6.535-2.514-9.967-8.805-9.967-14.064v-73.853h1.92c1.855,0,3.375-1.515,3.375-3.37
			V69.34c0-1.825-1.479-3.32-3.293-3.362L218.544,65.997z"/>
		<g>
			<path d="M226.772,285.897c-2.145,0-3.885-1.734-3.885-3.88c0-2.148,1.74-3.891,3.885-3.891c2.148,0,3.883,1.742,3.883,3.891
				C230.655,284.163,228.921,285.897,226.772,285.897z"/>
			<g>
				<path d="M210.765,371.242c-2.146,0-3.889-1.74-3.889-3.886c0-2.145,1.742-3.883,3.889-3.883c2.143,0,3.885,1.738,3.885,3.883
					C214.649,369.501,212.907,371.242,210.765,371.242z"/>
				<path d="M226.772,371.242c-2.145,0-3.885-1.74-3.885-3.886c0-2.145,1.74-3.883,3.885-3.883c2.148,0,3.883,1.738,3.883,3.883
					C230.655,369.501,228.921,371.242,226.772,371.242z"/>
				<circle cx="242.78" cy="367.357" r="3.885"/>
			</g>
			<g>
				<path d="M210.765,354.274c-2.146,0-3.889-1.737-3.889-3.884c0-2.144,1.742-3.887,3.889-3.887c2.143,0,3.885,1.743,3.885,3.887
					C214.649,352.538,212.907,354.274,210.765,354.274z"/>
				<path d="M226.772,354.274c-2.145,0-3.885-1.737-3.885-3.884c0-2.144,1.74-3.887,3.885-3.887c2.148,0,3.883,1.743,3.883,3.887
					C230.655,352.538,228.921,354.274,226.772,354.274z"/>
				<circle cx="242.78" cy="350.389" r="3.885"/>
			</g>
			<g>
				<path d="M210.765,337.306c-2.146,0-3.889-1.733-3.889-3.883c0-2.141,1.742-3.886,3.889-3.886c2.143,0,3.885,1.745,3.885,3.886
					C214.649,335.572,212.907,337.306,210.765,337.306z"/>
				<path d="M226.772,337.306c-2.145,0-3.885-1.733-3.885-3.883c0-2.141,1.74-3.886,3.885-3.886c2.148,0,3.883,1.745,3.883,3.886
					C230.655,335.572,228.921,337.306,226.772,337.306z"/>
				<path d="M242.78,337.306c-2.145,0-3.887-1.733-3.887-3.883c0-2.141,1.742-3.886,3.887-3.886c2.146,0,3.887,1.745,3.887,3.886
					C246.667,335.572,244.927,337.306,242.78,337.306z"/>
			</g>
			<g>
				<path d="M210.765,320.338c-2.146,0-3.889-1.74-3.889-3.884c0-2.148,1.742-3.886,3.889-3.886c2.143,0,3.885,1.738,3.885,3.886
					C214.649,318.598,212.907,320.338,210.765,320.338z"/>
				<path d="M226.772,320.338c-2.145,0-3.885-1.74-3.885-3.884c0-2.148,1.74-3.886,3.885-3.886c2.148,0,3.883,1.738,3.883,3.886
					C230.655,318.598,228.921,320.338,226.772,320.338z"/>
				<circle cx="242.78" cy="316.453" r="3.885"/>
			</g>
			<g>
				<path d="M210.765,303.37c-2.146,0-3.889-1.742-3.889-3.891c0-2.14,1.742-3.879,3.889-3.879c2.143,0,3.885,1.739,3.885,3.879
					C214.649,301.628,212.907,303.37,210.765,303.37z"/>
				<path d="M226.772,303.37c-2.145,0-3.885-1.742-3.885-3.891c0-2.14,1.74-3.879,3.885-3.879c2.148,0,3.883,1.739,3.883,3.879
					C230.655,301.628,228.921,303.37,226.772,303.37z"/>
				<path d="M242.78,303.37c-2.145,0-3.887-1.742-3.887-3.891c0-2.14,1.742-3.879,3.887-3.879c2.146,0,3.887,1.739,3.887,3.879
					C246.667,301.628,244.927,303.37,242.78,303.37z"/>
			</g>
		</g>
	</g>
	
		<rect x="-8996.788" y="-3716.285" display="inline" fill="none" stroke="#000000" stroke-miterlimit="10" width="16736" height="13952"/>
</g>
<g id="barvno_copy_2">
	<g id="rde훾a7bela_copy_4">
	</g>
	<g>
		<g>
			<path fill="#00FFFF" d="M218.544,65.997c-1.727,0.136-3.102,1.58-3.102,3.343V175.4c0,1.855,1.514,3.37,3.367,3.37h1.922v73.853
				c0,5.26-3.434,11.55-9.969,14.064c-11.271,4.728-19.563,20.059-19.73,38.325c0,0.05-0.008,0.101-0.008,0.152v76.273
				c0,3.369,2.762,6.127,6.127,6.127h59.236c3.375,0,6.131-2.758,6.131-6.127v-76.273c0-0.052-0.008-0.103-0.008-0.152
				c-0.168-18.267-8.463-33.598-19.734-38.325c-6.535-2.514-9.967-8.805-9.967-14.064v-73.853h1.92c1.855,0,3.375-1.515,3.375-3.37
				V69.34c0-1.825-1.479-3.32-3.293-3.362L218.544,65.997z"/>
			<path d="M256.388,391.565h-59.236c-5.584,0-10.127-4.543-10.127-10.127v-76.273c0-0.073,0.004-0.185,0.009-0.28
				c0.218-19.601,9.122-36.408,22.183-41.886c0.036-0.016,0.073-0.03,0.11-0.045c4.861-1.87,7.405-6.613,7.405-10.331v-70.151
				c-3.054-0.9-5.289-3.729-5.289-7.072V69.34c0-3.81,2.981-7.03,6.787-7.331c0.103-0.008,0.206-0.012,0.31-0.012l16.268-0.019
				c4.067,0.093,7.298,3.395,7.298,7.362V175.4c0,3.342-2.238,6.172-5.295,7.072v70.151c0,3.719,2.543,8.461,7.403,10.331
				c0.037,0.015,0.074,0.029,0.11,0.045c13.07,5.481,21.979,22.304,22.187,41.882c0.006,0.095,0.009,0.189,0.009,0.284v76.273
				C266.519,387.022,261.974,391.565,256.388,391.565z M195.024,305.267v76.171c0,1.153,0.974,2.127,2.127,2.127h59.236
				c1.155,0,2.131-0.974,2.131-2.127v-76.162c-0.005-0.09-0.008-0.177-0.008-0.264c-0.148-16.147-7.232-30.386-17.233-34.616
				c-8.565-3.328-12.468-11.539-12.468-17.773v-73.853c0-2.209,1.791-4,4-4h1.295V69.978l-14.662,0.019v104.774h1.289
				c2.209,0,4,1.791,4,4v73.853c0,6.234-3.903,14.445-12.47,17.773c-9.999,4.229-17.081,18.468-17.229,34.653
				C195.031,305.105,195.028,305.189,195.024,305.267z"/>
		</g>
		<g>
			<path fill="#00FFFF" d="M226.772,285.897c-2.145,0-3.885-1.734-3.885-3.88c0-2.148,1.74-3.891,3.885-3.891
				c2.148,0,3.883,1.742,3.883,3.891C230.655,284.163,228.921,285.897,226.772,285.897z"/>
			<g>
				<path fill="#00FFFF" d="M210.765,371.242c-2.146,0-3.889-1.74-3.889-3.886c0-2.145,1.742-3.883,3.889-3.883
					c2.143,0,3.885,1.738,3.885,3.883C214.649,369.501,212.907,371.242,210.765,371.242z"/>
				<path fill="#00FFFF" d="M226.772,371.242c-2.145,0-3.885-1.74-3.885-3.886c0-2.145,1.74-3.883,3.885-3.883
					c2.148,0,3.883,1.738,3.883,3.883C230.655,369.501,228.921,371.242,226.772,371.242z"/>
				<circle fill="#00FFFF" cx="242.78" cy="367.357" r="3.885"/>
			</g>
			<g>
				<path fill="#00FFFF" d="M210.765,354.274c-2.146,0-3.889-1.737-3.889-3.884c0-2.144,1.742-3.887,3.889-3.887
					c2.143,0,3.885,1.743,3.885,3.887C214.649,352.538,212.907,354.274,210.765,354.274z"/>
				<path fill="#00FFFF" d="M226.772,354.274c-2.145,0-3.885-1.737-3.885-3.884c0-2.144,1.74-3.887,3.885-3.887
					c2.148,0,3.883,1.743,3.883,3.887C230.655,352.538,228.921,354.274,226.772,354.274z"/>
				<circle fill="#00FFFF" cx="242.78" cy="350.389" r="3.885"/>
			</g>
			<g>
				<path fill="#00FFFF" d="M210.765,337.306c-2.146,0-3.889-1.733-3.889-3.883c0-2.141,1.742-3.886,3.889-3.886
					c2.143,0,3.885,1.745,3.885,3.886C214.649,335.572,212.907,337.306,210.765,337.306z"/>
				<path fill="#00FFFF" d="M226.772,337.306c-2.145,0-3.885-1.733-3.885-3.883c0-2.141,1.74-3.886,3.885-3.886
					c2.148,0,3.883,1.745,3.883,3.886C230.655,335.572,228.921,337.306,226.772,337.306z"/>
				<path fill="#00FFFF" d="M242.78,337.306c-2.145,0-3.887-1.733-3.887-3.883c0-2.141,1.742-3.886,3.887-3.886
					c2.146,0,3.887,1.745,3.887,3.886C246.667,335.572,244.927,337.306,242.78,337.306z"/>
			</g>
			<g>
				<path fill="#00FFFF" d="M210.765,320.338c-2.146,0-3.889-1.74-3.889-3.884c0-2.148,1.742-3.886,3.889-3.886
					c2.143,0,3.885,1.738,3.885,3.886C214.649,318.598,212.907,320.338,210.765,320.338z"/>
				<path fill="#00FFFF" d="M226.772,320.338c-2.145,0-3.885-1.74-3.885-3.884c0-2.148,1.74-3.886,3.885-3.886
					c2.148,0,3.883,1.738,3.883,3.886C230.655,318.598,228.921,320.338,226.772,320.338z"/>
				<circle fill="#00FFFF" cx="242.78" cy="316.453" r="3.885"/>
			</g>
			<g>
				<path fill="#00FFFF" d="M210.765,303.37c-2.146,0-3.889-1.742-3.889-3.891c0-2.14,1.742-3.879,3.889-3.879
					c2.143,0,3.885,1.739,3.885,3.879C214.649,301.628,212.907,303.37,210.765,303.37z"/>
				<path fill="#00FFFF" d="M226.772,303.37c-2.145,0-3.885-1.742-3.885-3.891c0-2.14,1.74-3.879,3.885-3.879
					c2.148,0,3.883,1.739,3.883,3.879C230.655,301.628,228.921,303.37,226.772,303.37z"/>
				<path fill="#00FFFF" d="M242.78,303.37c-2.145,0-3.887-1.742-3.887-3.891c0-2.14,1.742-3.879,3.887-3.879
					c2.146,0,3.887,1.739,3.887,3.879C246.667,301.628,244.927,303.37,242.78,303.37z"/>
			</g>
		</g>
	</g>
	<rect x="-8996.788" y="-3716.285" fill="none" stroke="#000000" stroke-miterlimit="10" width="16736" height="13952"/>
</g>
<g id="sivinsko" display="none">
	<g id="rde훾a7bela_copy_3" display="inline">
	</g>
	<g display="inline">
		<g>
			<path fill="#C8C8C8" d="M218.544,65.997c-1.727,0.136-3.102,1.58-3.102,3.343V175.4c0,1.855,1.514,3.37,3.367,3.37h1.922v73.853
				c0,5.26-3.434,11.55-9.969,14.064c-11.271,4.728-19.563,20.059-19.73,38.325c0,0.05-0.008,0.101-0.008,0.152v76.273
				c0,3.369,2.762,6.127,6.127,6.127h59.236c3.375,0,6.131-2.758,6.131-6.127v-76.273c0-0.052-0.008-0.103-0.008-0.152
				c-0.168-18.267-8.463-33.598-19.734-38.325c-6.535-2.514-9.967-8.805-9.967-14.064v-73.853h1.92c1.855,0,3.375-1.515,3.375-3.37
				V69.34c0-1.825-1.479-3.32-3.293-3.362L218.544,65.997z"/>
			<path d="M256.388,391.565h-59.236c-5.584,0-10.127-4.543-10.127-10.127v-76.273c0-0.073,0.004-0.185,0.009-0.28
				c0.218-19.601,9.122-36.408,22.183-41.886c0.036-0.016,0.073-0.03,0.11-0.045c4.861-1.87,7.405-6.613,7.405-10.331v-70.151
				c-3.054-0.9-5.289-3.729-5.289-7.072V69.34c0-3.81,2.981-7.03,6.787-7.331c0.103-0.008,0.206-0.012,0.31-0.012l16.268-0.019
				c4.067,0.093,7.298,3.395,7.298,7.362V175.4c0,3.342-2.238,6.173-5.295,7.072v70.151c0,3.719,2.543,8.461,7.403,10.331
				c0.037,0.015,0.074,0.029,0.11,0.045c13.07,5.481,21.979,22.304,22.187,41.882c0.006,0.095,0.009,0.189,0.009,0.284v76.273
				C266.519,387.022,261.974,391.565,256.388,391.565z M195.024,305.267v76.171c0,1.153,0.974,2.127,2.127,2.127h59.236
				c1.155,0,2.131-0.974,2.131-2.127v-76.162c-0.005-0.089-0.008-0.177-0.008-0.264c-0.148-16.147-7.232-30.386-17.233-34.616
				c-8.565-3.328-12.468-11.538-12.468-17.773v-73.853c0-2.209,1.791-4,4-4h1.295V69.978l-14.662,0.019v104.774h1.289
				c2.209,0,4,1.791,4,4v73.853c0,6.234-3.903,14.444-12.47,17.773c-9.999,4.229-17.081,18.468-17.229,34.653
				C195.031,305.105,195.028,305.189,195.024,305.267z"/>
		</g>
		<g>
			<path d="M226.772,285.897c-2.145,0-3.885-1.734-3.885-3.88c0-2.148,1.74-3.891,3.885-3.891c2.148,0,3.883,1.742,3.883,3.891
				C230.655,284.163,228.921,285.897,226.772,285.897z"/>
			<g>
				<path d="M210.765,371.242c-2.146,0-3.889-1.74-3.889-3.886c0-2.145,1.742-3.883,3.889-3.883c2.143,0,3.885,1.738,3.885,3.883
					C214.649,369.501,212.907,371.242,210.765,371.242z"/>
				<path d="M226.772,371.242c-2.145,0-3.885-1.74-3.885-3.886c0-2.145,1.74-3.883,3.885-3.883c2.148,0,3.883,1.738,3.883,3.883
					C230.655,369.501,228.921,371.242,226.772,371.242z"/>
				<circle cx="242.78" cy="367.357" r="3.885"/>
			</g>
			<g>
				<path d="M210.765,354.274c-2.146,0-3.889-1.737-3.889-3.884c0-2.144,1.742-3.887,3.889-3.887c2.143,0,3.885,1.743,3.885,3.887
					C214.649,352.538,212.907,354.274,210.765,354.274z"/>
				<path d="M226.772,354.274c-2.145,0-3.885-1.737-3.885-3.884c0-2.144,1.74-3.887,3.885-3.887c2.148,0,3.883,1.743,3.883,3.887
					C230.655,352.538,228.921,354.274,226.772,354.274z"/>
				<circle cx="242.78" cy="350.389" r="3.885"/>
			</g>
			<g>
				<path d="M210.765,337.306c-2.146,0-3.889-1.733-3.889-3.883c0-2.141,1.742-3.886,3.889-3.886c2.143,0,3.885,1.745,3.885,3.886
					C214.649,335.572,212.907,337.306,210.765,337.306z"/>
				<path d="M226.772,337.306c-2.145,0-3.885-1.733-3.885-3.883c0-2.141,1.74-3.886,3.885-3.886c2.148,0,3.883,1.745,3.883,3.886
					C230.655,335.572,228.921,337.306,226.772,337.306z"/>
				<path d="M242.78,337.306c-2.145,0-3.887-1.733-3.887-3.883c0-2.141,1.742-3.886,3.887-3.886c2.146,0,3.887,1.745,3.887,3.886
					C246.667,335.572,244.927,337.306,242.78,337.306z"/>
			</g>
			<g>
				<path d="M210.765,320.338c-2.146,0-3.889-1.74-3.889-3.884c0-2.148,1.742-3.886,3.889-3.886c2.143,0,3.885,1.738,3.885,3.886
					C214.649,318.598,212.907,320.338,210.765,320.338z"/>
				<path d="M226.772,320.338c-2.145,0-3.885-1.74-3.885-3.884c0-2.148,1.74-3.886,3.885-3.886c2.148,0,3.883,1.738,3.883,3.886
					C230.655,318.598,228.921,320.338,226.772,320.338z"/>
				<circle cx="242.78" cy="316.453" r="3.885"/>
			</g>
			<g>
				<path d="M210.765,303.37c-2.146,0-3.889-1.742-3.889-3.891c0-2.14,1.742-3.879,3.889-3.879c2.143,0,3.885,1.739,3.885,3.879
					C214.649,301.628,212.907,303.37,210.765,303.37z"/>
				<path d="M226.772,303.37c-2.145,0-3.885-1.742-3.885-3.891c0-2.14,1.74-3.879,3.885-3.879c2.148,0,3.883,1.739,3.883,3.879
					C230.655,301.628,228.921,303.37,226.772,303.37z"/>
				<path d="M242.78,303.37c-2.145,0-3.887-1.742-3.887-3.891c0-2.14,1.742-3.879,3.887-3.879c2.146,0,3.887,1.739,3.887,3.879
					C246.667,301.628,244.927,303.37,242.78,303.37z"/>
			</g>
		</g>
	</g>
	<path display="inline" d="M7739.712,10236.215h-16737v-13953h16737V10236.215z M-8996.788,10235.215h16736l-0.5-13951h-16735.5
		l0.5,13951H-8996.788z"/>
</g>
<g id="linijsko" display="none">
	<g id="rde훾a7bela_copy" display="inline">
	</g>
	<g display="inline">
		<path fill="none" stroke="#000000" stroke-width="8" stroke-linecap="round" stroke-linejoin="round" stroke-miterlimit="10" d="
			M218.544,65.997c-1.727,0.136-3.102,1.58-3.102,3.343V175.4c0,1.855,1.514,3.37,3.367,3.37h1.922v73.853
			c0,5.26-3.434,11.55-9.969,14.064c-11.271,4.728-19.563,20.059-19.73,38.325c0,0.05-0.008,0.101-0.008,0.152v76.273
			c0,3.369,2.762,6.127,6.127,6.127h59.236c3.375,0,6.131-2.758,6.131-6.127v-76.273c0-0.052-0.008-0.103-0.008-0.152
			c-0.168-18.267-8.463-33.598-19.734-38.325c-6.535-2.514-9.967-8.805-9.967-14.064v-73.853h1.92c1.855,0,3.375-1.515,3.375-3.37
			V69.34c0-1.825-1.479-3.32-3.293-3.362L218.544,65.997z"/>
		<g>
			<path d="M226.772,285.897c-2.145,0-3.885-1.734-3.885-3.88c0-2.148,1.74-3.891,3.885-3.891c2.148,0,3.883,1.742,3.883,3.891
				C230.655,284.163,228.921,285.897,226.772,285.897z"/>
			<g>
				<path d="M210.765,371.242c-2.146,0-3.889-1.74-3.889-3.886c0-2.145,1.742-3.883,3.889-3.883c2.143,0,3.885,1.738,3.885,3.883
					C214.649,369.501,212.907,371.242,210.765,371.242z"/>
				<path d="M226.772,371.242c-2.145,0-3.885-1.74-3.885-3.886c0-2.145,1.74-3.883,3.885-3.883c2.148,0,3.883,1.738,3.883,3.883
					C230.655,369.501,228.921,371.242,226.772,371.242z"/>
				<circle cx="242.78" cy="367.357" r="3.885"/>
			</g>
			<g>
				<path d="M210.765,354.274c-2.146,0-3.889-1.737-3.889-3.884c0-2.144,1.742-3.887,3.889-3.887c2.143,0,3.885,1.743,3.885,3.887
					C214.649,352.538,212.907,354.274,210.765,354.274z"/>
				<path d="M226.772,354.274c-2.145,0-3.885-1.737-3.885-3.884c0-2.144,1.74-3.887,3.885-3.887c2.148,0,3.883,1.743,3.883,3.887
					C230.655,352.538,228.921,354.274,226.772,354.274z"/>
				<circle cx="242.78" cy="350.389" r="3.885"/>
			</g>
			<g>
				<path d="M210.765,337.306c-2.146,0-3.889-1.733-3.889-3.883c0-2.141,1.742-3.886,3.889-3.886c2.143,0,3.885,1.745,3.885,3.886
					C214.649,335.572,212.907,337.306,210.765,337.306z"/>
				<path d="M226.772,337.306c-2.145,0-3.885-1.733-3.885-3.883c0-2.141,1.74-3.886,3.885-3.886c2.148,0,3.883,1.745,3.883,3.886
					C230.655,335.572,228.921,337.306,226.772,337.306z"/>
				<path d="M242.78,337.306c-2.145,0-3.887-1.733-3.887-3.883c0-2.141,1.742-3.886,3.887-3.886c2.146,0,3.887,1.745,3.887,3.886
					C246.667,335.572,244.927,337.306,242.78,337.306z"/>
			</g>
			<g>
				<path d="M210.765,320.338c-2.146,0-3.889-1.74-3.889-3.884c0-2.148,1.742-3.886,3.889-3.886c2.143,0,3.885,1.738,3.885,3.886
					C214.649,318.598,212.907,320.338,210.765,320.338z"/>
				<path d="M226.772,320.338c-2.145,0-3.885-1.74-3.885-3.884c0-2.148,1.74-3.886,3.885-3.886c2.148,0,3.883,1.738,3.883,3.886
					C230.655,318.598,228.921,320.338,226.772,320.338z"/>
				<circle cx="242.78" cy="316.453" r="3.885"/>
			</g>
			<g>
				<path d="M210.765,303.37c-2.146,0-3.889-1.742-3.889-3.891c0-2.14,1.742-3.879,3.889-3.879c2.143,0,3.885,1.739,3.885,3.879
					C214.649,301.628,212.907,303.37,210.765,303.37z"/>
				<path d="M226.772,303.37c-2.145,0-3.885-1.742-3.885-3.891c0-2.14,1.74-3.879,3.885-3.879c2.148,0,3.883,1.739,3.883,3.879
					C230.655,301.628,228.921,303.37,226.772,303.37z"/>
				<path d="M242.78,303.37c-2.145,0-3.887-1.742-3.887-3.891c0-2.14,1.742-3.879,3.887-3.879c2.146,0,3.887,1.739,3.887,3.879
					C246.667,301.628,244.927,303.37,242.78,303.37z"/>
			</g>
		</g>
	</g>
</g>
<g id="pivot">
	<circle fill="none" cx="224.501" cy="65.15" r="14.133"/>
</g>
</svg>
