<?xml version="1.0" encoding="utf-8"?>
<!-- Generator: Adobe Illustrator 16.0.0, SVG Export Plug-In . SVG Version: 6.00 Build 0)  -->
<!DOCTYPE svg PUBLIC "-//W3C//DTD SVG 1.1//EN" "http://www.w3.org/Graphics/SVG/1.1/DTD/svg11.dtd">
<svg version="1.1" xmlns="http://www.w3.org/2000/svg" xmlns:xlink="http://www.w3.org/1999/xlink" x="0px" y="0px"
	 width="453.544px" height="453.543px" viewBox="0 0 453.544 453.543" enable-background="new 0 0 453.544 453.543"
	 xml:space="preserve">
<g id="kvadrat">
</g>
<g id="bg" display="none">
	<rect x="-8996.739" y="-3296.276" display="inline" width="15266.867" height="13678.951"/>
</g>
<g id="barvno" display="none">
	<g id="rde훾a7bela" display="inline">
	</g>
	
		<path display="inline" fill="#575756" stroke="#000000" stroke-width="8" stroke-linecap="round" stroke-linejoin="round" stroke-miterlimit="10" d="
		M236.923,166.376c0.844-0.789,4.383-1.905,4.383-3.146V70.29c0-2.343-1.891-4.258-4.223-4.313l-20.857,0.025
		c-2.221,0.178-3.984,2.028-3.984,4.287v92.94c0,1.24,3.537,2.356,4.381,3.146l-10.752,75.852v124.44
		c0,11.542,9.357,20.897,20.902,20.897s20.9-9.355,20.9-20.897v-124.44L236.923,166.376z"/>
	
		<rect x="-9507.024" y="-3716.285" display="inline" fill="none" stroke="#000000" stroke-miterlimit="10" width="16736" height="13952"/>
</g>
<g id="barvno_copy_2">
	<g id="rde훾a7bela_copy_4">
	</g>
	<g>
		<path fill="#00FFFF" d="M236.923,166.376c0.844-0.789,4.383-1.905,4.383-3.146V70.29c0-2.343-1.891-4.258-4.223-4.313
			l-20.857,0.025c-2.221,0.178-3.984,2.028-3.984,4.287v92.94c0,1.24,3.537,2.356,4.381,3.146l-10.752,75.852v124.44
			c0,11.542,9.357,20.897,20.902,20.897s20.9-9.355,20.9-20.897v-124.44L236.923,166.376z"/>
		<path d="M226.772,391.565c-13.731,0-24.902-11.169-24.902-24.897v-124.44c0-0.188,0.014-0.375,0.04-0.562l10.367-73.141
			c-1.865-1.003-4.036-2.51-4.036-5.294V70.29c0-4.296,3.367-7.93,7.665-8.274c0.104-0.008,0.21-0.013,0.314-0.013l20.857-0.025
			c4.581,0.106,8.228,3.834,8.228,8.313v92.94c0,2.785-2.173,4.292-4.038,5.295l10.365,73.141c0.026,0.186,0.04,0.374,0.04,0.562
			v124.44C251.673,380.396,240.503,391.565,226.772,391.565z M209.87,242.51v124.158c0,9.317,7.582,16.897,16.902,16.897
			c9.319,0,16.9-7.58,16.9-16.897V242.509l-10.71-75.572c-0.184-1.292,0.274-2.592,1.228-3.483c0.715-0.668,1.604-1.117,2.545-1.592
			c0.163-0.083,0.366-0.185,0.57-0.292V70.29c0-0.163-0.147-0.31-0.316-0.313l-20.51,0.026c-0.125,0.037-0.238,0.147-0.238,0.288
			v91.281c0.204,0.106,0.407,0.209,0.57,0.292c0.94,0.475,1.829,0.924,2.543,1.592c0.953,0.891,1.411,2.191,1.228,3.483
			L209.87,242.51z"/>
	</g>
	<rect x="-9507.024" y="-3716.285" fill="none" stroke="#000000" stroke-miterlimit="10" width="16736" height="13952"/>
</g>
<g id="sivinsko" display="none">
	<g id="rde훾a7bela_copy_3" display="inline">
	</g>
	<g display="inline">
		<path fill="#575757" d="M236.923,166.376c0.844-0.789,4.383-1.905,4.383-3.146V70.29c0-2.343-1.891-4.258-4.223-4.313
			l-20.857,0.025c-2.221,0.178-3.984,2.028-3.984,4.287v92.94c0,1.24,3.537,2.356,4.381,3.146l-10.752,75.852v124.44
			c0,11.542,9.357,20.897,20.902,20.897s20.9-9.355,20.9-20.897v-124.44L236.923,166.376z"/>
		<path d="M226.772,391.565c-13.731,0-24.902-11.169-24.902-24.897v-124.44c0-0.188,0.014-0.375,0.04-0.562l10.367-73.141
			c-1.865-1.002-4.036-2.509-4.036-5.294V70.29c0-4.296,3.367-7.931,7.665-8.274c0.104-0.008,0.21-0.013,0.314-0.013l20.857-0.025
			c4.581,0.106,8.228,3.834,8.228,8.313v92.94c0,2.785-2.173,4.292-4.038,5.295l10.365,73.141c0.026,0.186,0.04,0.374,0.04,0.562
			v124.44C251.673,380.396,240.503,391.565,226.772,391.565z M209.87,242.51v124.158c0,9.317,7.582,16.897,16.902,16.897
			c9.319,0,16.9-7.58,16.9-16.897V242.509l-10.71-75.572c-0.184-1.292,0.274-2.592,1.228-3.483c0.715-0.668,1.604-1.117,2.545-1.592
			c0.163-0.083,0.366-0.185,0.57-0.292V70.29c0-0.163-0.147-0.31-0.316-0.313l-20.51,0.026c-0.125,0.038-0.238,0.148-0.238,0.288
			v91.281c0.204,0.106,0.407,0.209,0.57,0.292c0.94,0.475,1.829,0.923,2.543,1.591c0.953,0.891,1.411,2.191,1.228,3.483
			L209.87,242.51z"/>
	</g>
	<path display="inline" d="M7229.476,10236.215h-16737v-13953h16737V10236.215z M-9507.024,10235.215h16736l-0.5-13951h-16735.5
		l0.5,13951H-9507.024z"/>
</g>
<g id="linijsko" display="none">
	<g id="rde훾a7bela_copy" display="inline">
	</g>
	
		<path display="inline" fill="none" stroke="#000000" stroke-width="8" stroke-linecap="round" stroke-linejoin="round" stroke-miterlimit="10" d="
		M236.923,166.376c0.844-0.789,4.383-1.905,4.383-3.146V70.29c0-2.343-1.891-4.258-4.223-4.313l-20.857,0.025
		c-2.221,0.178-3.984,2.028-3.984,4.287v92.94c0,1.24,3.537,2.356,4.381,3.146l-10.752,75.852v124.44
		c0,11.542,9.357,20.897,20.902,20.897s20.9-9.355,20.9-20.897v-124.44L236.923,166.376z"/>
</g>
<g id="pivot">
	<circle fill="none" cx="227.864" cy="65.15" r="14.133"/>
</g>
</svg>
