<?xml version="1.0" encoding="utf-8"?>
<!-- Generator: Adobe Illustrator 16.0.0, SVG Export Plug-In . SVG Version: 6.00 Build 0)  -->
<!DOCTYPE svg PUBLIC "-//W3C//DTD SVG 1.1//EN" "http://www.w3.org/Graphics/SVG/1.1/DTD/svg11.dtd">
<svg version="1.1" xmlns="http://www.w3.org/2000/svg" xmlns:xlink="http://www.w3.org/1999/xlink" x="0px" y="0px"
	 width="453.543px" height="453.543px" viewBox="0 0 453.543 453.543" enable-background="new 0 0 453.543 453.543"
	 xml:space="preserve">
<g id="kvadrat">
</g>
<g id="bg" display="none">
	<rect x="-832.959" y="-3806.513" display="inline" width="15266.867" height="13678.951"/>
</g>
<g id="barvno" display="none">
	<g id="rde훾a7bela" display="inline">
	</g>
	<g display="inline">
		
			<path fill="#7E4E24" stroke="#000000" stroke-width="8" stroke-linecap="round" stroke-linejoin="round" stroke-miterlimit="10" d="
			M383.694,120.72h-48.645c-1.65,0-3.13,1.012-3.728,2.551l-9.2,23.669c-0.597,1.534-0.192,3.276,1.018,4.392
			c0.755,0.695,1.727,1.058,2.711,1.058c0.593,0,1.191-0.132,1.748-0.403l27.55-13.397h28.546c2.209,0,4-1.791,4-4v-9.869
			C387.694,122.51,385.903,120.72,383.694,120.72z"/>
		
			<path fill="#7E4E24" stroke="#000000" stroke-width="8" stroke-linecap="round" stroke-linejoin="round" stroke-miterlimit="10" d="
			M69.849,120.72h48.646c1.65,0,3.13,1.012,3.728,2.551l9.2,23.669c0.597,1.534,0.192,3.276-1.017,4.392
			c-0.755,0.695-1.728,1.058-2.712,1.058c-0.593,0-1.191-0.132-1.748-0.403l-27.55-13.397H69.849c-2.209,0-4-1.791-4-4v-9.869
			C65.849,122.51,67.64,120.72,69.849,120.72z"/>
		
			<path fill="#EED2A3" stroke="#000000" stroke-width="8" stroke-linecap="round" stroke-linejoin="round" stroke-miterlimit="10" d="
			M118.808,127.095l8.771,191.09c0,0,0.873,32.934,96.914,32.934s96.917-32.934,96.917-32.934l14.176-191.09
			c0,13.625-43.005,24.669-108.389,24.669C161.814,151.764,118.808,140.72,118.808,127.095z"/>
		
			<path fill="#FFFFFF" stroke="#000000" stroke-width="8" stroke-linecap="round" stroke-linejoin="round" stroke-miterlimit="10" d="
			M335.586,127.094c0,13.625-43.005,24.669-108.389,24.669c-65.383,0-108.389-11.045-108.389-24.669
			c0-13.624,43.006-24.669,108.389-24.669C292.582,102.425,335.586,113.471,335.586,127.094z"/>
	</g>
	
		<rect x="-1343.244" y="-4226.521" display="inline" fill="none" stroke="#000000" stroke-miterlimit="10" width="16736" height="13952"/>
</g>
<g id="barvno_copy_2">
	<g id="rde훾a7bela_copy_4">
	</g>
	<g>
		<g>
			<path fill="#00FF00" d="M383.694,120.72h-48.645c-1.65,0-3.13,1.012-3.728,2.551l-9.2,23.669
				c-0.597,1.534-0.192,3.276,1.018,4.392c0.755,0.695,1.727,1.058,2.711,1.058c0.593,0,1.191-0.132,1.748-0.403l27.55-13.397
				h28.546c2.209,0,4-1.791,4-4v-9.869C387.694,122.51,385.903,120.72,383.694,120.72z"/>
			<path d="M325.85,156.389c-2.014,0-3.939-0.751-5.42-2.115c-2.439-2.25-3.238-5.697-2.036-8.785l9.199-23.668
				c1.204-3.099,4.131-5.102,7.457-5.102h48.645c4.411,0,8,3.589,8,8v9.869c0,4.411-3.589,8-8,8h-27.625l-26.721,12.994
				C328.266,156.11,327.056,156.389,325.85,156.389z M325.85,148.389l0,4L325.85,148.389L325.85,148.389z M335.049,124.72
				l-9.2,23.669l27.549-13.397c0.545-0.265,1.144-0.403,1.75-0.403h28.546v-9.869H335.049z"/>
		</g>
		<g>
			<path fill="#00FF00" d="M69.849,120.72h48.646c1.65,0,3.13,1.012,3.728,2.551l9.2,23.669c0.597,1.534,0.192,3.276-1.017,4.392
				c-0.755,0.695-1.728,1.058-2.712,1.058c-0.593,0-1.191-0.132-1.748-0.403l-27.55-13.397H69.849c-2.209,0-4-1.791-4-4v-9.869
				C65.849,122.51,67.64,120.72,69.849,120.72z"/>
			<path d="M127.693,156.389c-1.205,0-2.415-0.279-3.499-0.807l-26.72-12.993H69.849c-4.411,0-8-3.589-8-8v-9.869
				c0-4.411,3.589-8,8-8h48.646c3.326,0,6.252,2.003,7.457,5.103l9.199,23.668c1.201,3.085,0.404,6.532-2.032,8.78
				C131.633,155.638,129.708,156.389,127.693,156.389z M118.494,124.72H69.849v9.869h28.547c0.606,0,1.204,0.138,1.75,0.403
				l27.55,13.397c0,0,0.001,0,0.001,0L118.494,124.72z"/>
		</g>
		<g>
			<path fill="#00FFFF" d="M118.808,127.095l8.771,191.09c0,0,0.873,32.934,96.914,32.934s96.917-32.934,96.917-32.934
				l14.176-191.09c0,13.625-43.005,24.669-108.389,24.669C161.814,151.764,118.808,140.72,118.808,127.095z"/>
			<path d="M224.493,355.119c-40.641,0-69.813-5.77-86.707-17.149c-13.542-9.121-14.178-18.625-14.206-19.678l-8.737-190.34
				c-0.023-0.285-0.035-0.57-0.035-0.856c0-2.173,1.735-3.949,3.908-3.999c2.176-0.037,3.988,1.645,4.087,3.815l0.022,0.48
				c0.405,3.401,7.801,8.931,27.386,13.443c19.396,4.468,46.737,6.929,76.985,6.929c68.803,0,102.818-12,104.342-20.186l0.058-0.779
				c0.159-2.146,1.983-3.792,4.137-3.701c2.15,0.08,3.852,1.846,3.852,3.997c0,0.459-0.031,0.923-0.091,1.381l-14.092,189.946
				c-0.078,1.545-1.103,10.725-14.202,19.548C294.307,349.349,265.134,355.119,224.493,355.119z M123.379,139.441l8.196,178.561
				c0.021,0.276,3.226,29.117,92.918,29.117c89.639,0,92.911-28.75,92.918-29.04c0.001-0.063,0.005-0.126,0.009-0.189
				l13.223-178.229c-18.832,11.686-64.073,16.104-103.446,16.104C187.397,155.764,141.941,151.284,123.379,139.441z"/>
		</g>
		<g>
			<path fill="#FFFFFF" d="M335.586,127.094c0,13.625-43.005,24.669-108.389,24.669c-65.383,0-108.389-11.045-108.389-24.669
				c0-13.624,43.006-24.669,108.389-24.669C292.582,102.425,335.586,113.471,335.586,127.094z"/>
			<path d="M227.197,155.764c-51.846,0-112.389-7.508-112.389-28.669s60.543-28.669,112.389-28.669s112.389,7.508,112.389,28.669
				S279.043,155.764,227.197,155.764z M227.197,106.425c-73.769,0-104.389,13.462-104.389,20.669s30.62,20.669,104.389,20.669
				s104.389-13.462,104.389-20.669S300.966,106.425,227.197,106.425z"/>
		</g>
	</g>
	<rect x="-1343.244" y="-4226.521" fill="none" stroke="#000000" stroke-miterlimit="10" width="16736" height="13952"/>
</g>
<g id="sivinsko" display="none">
	<g id="rde훾a7bela_copy_3" display="inline">
	</g>
	<g display="inline">
		<g>
			<path fill="#585858" d="M383.694,120.72h-48.645c-1.65,0-3.13,1.012-3.728,2.551l-9.2,23.669
				c-0.597,1.534-0.192,3.276,1.018,4.392c0.755,0.695,1.727,1.058,2.711,1.058c0.593,0,1.191-0.132,1.748-0.403l27.55-13.397
				h28.546c2.209,0,4-1.791,4-4v-9.869C387.694,122.51,385.903,120.72,383.694,120.72z"/>
			<path d="M325.85,156.389c-2.014,0-3.939-0.751-5.42-2.115c-2.439-2.25-3.238-5.697-2.036-8.785l9.199-23.668
				c1.204-3.099,4.131-5.102,7.457-5.102h48.645c4.411,0,8,3.589,8,8v9.869c0,4.411-3.589,8-8,8h-27.626l-26.721,12.994
				C328.266,156.11,327.056,156.389,325.85,156.389z M325.85,148.389l0,4L325.85,148.389L325.85,148.389z M335.049,124.72
				l-9.2,23.669l27.549-13.397c0.545-0.265,1.144-0.403,1.75-0.403h28.546v-9.869H335.049z"/>
		</g>
		<g>
			<path fill="#585858" d="M69.849,120.72h48.646c1.65,0,3.13,1.012,3.728,2.551l9.2,23.669c0.597,1.534,0.192,3.276-1.017,4.392
				c-0.755,0.695-1.728,1.058-2.712,1.058c-0.593,0-1.191-0.132-1.748-0.403l-27.55-13.397H69.849c-2.209,0-4-1.791-4-4v-9.869
				C65.849,122.51,67.64,120.72,69.849,120.72z"/>
			<path d="M127.693,156.389c-1.205,0-2.415-0.279-3.499-0.807l-26.719-12.993H69.849c-4.411,0-8-3.589-8-8v-9.869
				c0-4.411,3.589-8,8-8h48.646c3.326,0,6.252,2.003,7.457,5.103l9.199,23.668c1.201,3.085,0.404,6.532-2.032,8.78
				C131.633,155.638,129.708,156.389,127.693,156.389z M118.494,124.72H69.849v9.869h28.547c0.606,0,1.204,0.138,1.75,0.403
				l27.55,13.397l0.001,0L118.494,124.72z"/>
		</g>
		<g>
			<path fill="#D5D5D5" d="M118.808,127.095l8.771,191.09c0,0,0.873,32.934,96.914,32.934s96.917-32.934,96.917-32.934
				l14.176-191.09c0,13.625-43.005,24.669-108.389,24.669C161.814,151.764,118.808,140.72,118.808,127.095z"/>
			<path d="M224.493,355.119c-40.641,0-69.813-5.77-86.707-17.149c-13.542-9.122-14.178-18.625-14.206-19.679l-8.737-190.34
				c-0.024-0.285-0.035-0.57-0.035-0.856c0-2.173,1.735-3.949,3.908-3.999c2.176-0.037,3.988,1.645,4.087,3.815l0.022,0.48
				c0.405,3.401,7.801,8.931,27.386,13.443c19.396,4.468,46.737,6.929,76.985,6.929c68.803,0,102.818-12,104.342-20.186l0.058-0.779
				c0.159-2.146,1.983-3.792,4.137-3.701c2.15,0.08,3.852,1.846,3.852,3.997c0,0.459-0.031,0.923-0.091,1.381l-14.092,189.946
				c-0.078,1.545-1.103,10.725-14.202,19.548C294.307,349.349,265.134,355.119,224.493,355.119z M123.378,139.441l8.197,178.561
				c0.021,0.276,3.226,29.117,92.918,29.117c89.639,0,92.911-28.75,92.918-29.04c0.001-0.063,0.005-0.126,0.009-0.189
				l13.223-178.229c-18.832,11.686-64.073,16.104-103.446,16.104C187.397,155.764,141.941,151.284,123.378,139.441z"/>
		</g>
		<g>
			<path fill="#FFFFFF" d="M335.586,127.094c0,13.625-43.005,24.669-108.389,24.669c-65.383,0-108.389-11.045-108.389-24.669
				c0-13.624,43.006-24.669,108.389-24.669C292.582,102.425,335.586,113.471,335.586,127.094z"/>
			<path d="M227.197,155.764c-51.846,0-112.389-7.508-112.389-28.669s60.543-28.669,112.389-28.669s112.389,7.508,112.389,28.669
				S279.043,155.764,227.197,155.764z M227.197,106.425c-73.769,0-104.389,13.462-104.389,20.669s30.62,20.669,104.389,20.669
				s104.389-13.462,104.389-20.669S300.966,106.425,227.197,106.425z"/>
		</g>
	</g>
	<path display="inline" d="M15393.256,9725.979h-16737v-13953h16737V9725.979z M-1343.244,9724.979h16736l-0.5-13951h-16735.5
		l0.5,13951H-1343.244z"/>
</g>
<g id="linijsko" display="none">
	<g id="rde훾a7bela_copy" display="inline">
	</g>
	<g display="inline">
		<path fill="none" stroke="#000000" stroke-width="8" stroke-linecap="round" stroke-linejoin="round" stroke-miterlimit="10" d="
			M333.97,148.888l21.178-10.299h28.546c2.209,0,4-1.791,4-4v-9.869c0-2.209-1.791-4-4-4h-48.645c-0.773,0-1.505,0.229-2.131,0.624"
			/>
		
			<line fill="none" stroke="#000000" stroke-width="8" stroke-linecap="round" stroke-linejoin="round" stroke-miterlimit="10" x1="325.639" y1="137.89" x2="325.639" y2="137.889"/>
		<path fill="none" stroke="#000000" stroke-width="8" stroke-linecap="round" stroke-linejoin="round" stroke-miterlimit="10" d="
			M121.131,121.721c-0.715-0.629-1.643-1.001-2.637-1.001H69.849c-2.209,0-4,1.791-4,4v9.869c0,2.209,1.791,4,4,4h28.547
			l21.417,10.415"/>
		
			<line fill="none" stroke="#000000" stroke-width="8" stroke-linecap="round" stroke-linejoin="round" stroke-miterlimit="10" x1="127.689" y1="137.334" x2="127.688" y2="137.333"/>
		<path fill="none" stroke="#000000" stroke-width="8" stroke-linecap="round" stroke-linejoin="round" stroke-miterlimit="10" d="
			M335.523,127.944c0.037-0.282,0.063-0.565,0.063-0.85v0.001"/>
		<path fill="none" stroke="#000000" stroke-width="8" stroke-linecap="round" stroke-linejoin="round" stroke-miterlimit="10" d="
			M127.689,137.334c13.77,7.423,42.796,12.872,81.727,14.146"/>
		<path fill="none" stroke="#000000" stroke-width="8" stroke-linecap="round" stroke-linejoin="round" stroke-miterlimit="10" d="
			M233.261,151.731c1.999-0.021,3.976-0.053,5.929-0.095"/>
		<path fill="none" stroke="#000000" stroke-width="8" stroke-linecap="round" stroke-linejoin="round" stroke-miterlimit="10" d="
			M325.639,137.89c-14.167,7.138-42.707,12.348-80.659,13.59"/>
		
			<line fill="none" stroke="#000000" stroke-width="8" stroke-linecap="round" stroke-linejoin="round" stroke-miterlimit="10" x1="335.523" y1="127.943" x2="335.523" y2="127.944"/>
		<path fill="none" stroke="#000000" stroke-width="8" stroke-linecap="round" stroke-linejoin="round" stroke-miterlimit="10" d="
			M215.205,151.636c1.954,0.042,3.93,0.074,5.929,0.095"/>
		<path fill="none" stroke="#000000" stroke-width="8" stroke-linecap="round" stroke-linejoin="round" stroke-miterlimit="10" d="
			M325.639,137.89c5.996-3.021,9.414-6.388,9.885-9.945"/>
		<path fill="none" stroke="#000000" stroke-width="8" stroke-linecap="round" stroke-linejoin="round" stroke-miterlimit="10" d="
			M127.689,137.334c-5.786-3.119-8.881-6.586-8.881-10.239l1.005,21.909"/>
		<path fill="none" stroke="#000000" stroke-width="8" stroke-linecap="round" stroke-linejoin="round" stroke-miterlimit="10" d="
			M333.97,148.888l-12.56,169.297c0,0-0.876,32.934-96.917,32.934s-96.914-32.934-96.914-32.934l-7.766-169.181"/>
		
			<line fill="none" stroke="#000000" stroke-width="8" stroke-linecap="round" stroke-linejoin="round" stroke-miterlimit="10" x1="335.523" y1="127.943" x2="335.586" y2="127.096"/>
		
			<line fill="none" stroke="#000000" stroke-width="8" stroke-linecap="round" stroke-linejoin="round" stroke-miterlimit="10" x1="333.97" y1="148.888" x2="335.523" y2="127.944"/>
		<path fill="none" stroke="#000000" stroke-width="8" stroke-linecap="round" stroke-linejoin="round" stroke-miterlimit="10" d="
			M335.586,127.096v-0.001c0-1.98-0.915-3.905-2.668-5.75"/>
		<path fill="none" stroke="#000000" stroke-width="8" stroke-linecap="round" stroke-linejoin="round" stroke-miterlimit="10" d="
			M335.523,127.943c0.037-0.281,0.063-0.564,0.063-0.848"/>
		<path fill="none" stroke="#000000" stroke-width="8" stroke-linecap="round" stroke-linejoin="round" stroke-miterlimit="10" d="
			M209.416,151.479c-38.931-1.274-67.958-6.723-81.727-14.146"/>
		<path fill="none" stroke="#000000" stroke-width="8" stroke-linecap="round" stroke-linejoin="round" stroke-miterlimit="10" d="
			M325.639,137.889c-14.167,7.139-42.707,12.349-80.66,13.591"/>
		<path fill="none" stroke="#000000" stroke-width="8" stroke-linecap="round" stroke-linejoin="round" stroke-miterlimit="10" d="
			M127.688,137.333c-5.785-3.119-8.88-6.586-8.88-10.239c0-1.846,0.796-3.644,2.323-5.374"/>
		<path fill="none" stroke="#000000" stroke-width="8" stroke-linecap="round" stroke-linejoin="round" stroke-miterlimit="10" d="
			M325.639,137.889c5.996-3.021,9.414-6.388,9.884-9.945"/>
		<path fill="none" stroke="#000000" stroke-width="8" stroke-linecap="round" stroke-linejoin="round" stroke-miterlimit="10" d="
			M221.134,151.731c-1.999-0.021-3.975-0.053-5.929-0.095"/>
		<path fill="none" stroke="#000000" stroke-width="8" stroke-linecap="round" stroke-linejoin="round" stroke-miterlimit="10" d="
			M121.131,121.721c9.747-11.04,49.541-19.296,106.066-19.296c55.881,0,95.41,8.069,105.721,18.919"/>
		<path fill="none" stroke="#000000" stroke-width="8" stroke-linecap="round" stroke-linejoin="round" stroke-miterlimit="10" d="
			M239.189,151.636c-1.953,0.042-3.93,0.074-5.929,0.095"/>
		<path fill="none" stroke="#000000" stroke-width="8" stroke-linecap="round" stroke-linejoin="round" stroke-miterlimit="10" d="
			M215.205,151.636c-1.953-0.042-3.883-0.094-5.79-0.157"/>
		<path fill="none" stroke="#000000" stroke-width="8" stroke-linecap="round" stroke-linejoin="round" stroke-miterlimit="10" d="
			M244.979,151.479c-1.906,0.063-3.836,0.115-5.79,0.157"/>
		<path fill="none" stroke="#000000" stroke-width="8" stroke-linecap="round" stroke-linejoin="round" stroke-miterlimit="10" d="
			M233.261,151.731c-1.999,0.021-4.02,0.032-6.063,0.032c-2.043,0-4.064-0.011-6.063-0.032"/>
	</g>
</g>
<g id="pivot">
	<circle fill="none" cx="226.137" cy="352.079" r="14.133"/>
</g>
</svg>
