<?xml version="1.0" encoding="utf-8"?>
<!-- Generator: Adobe Illustrator 16.0.0, SVG Export Plug-In . SVG Version: 6.00 Build 0)  -->
<!DOCTYPE svg PUBLIC "-//W3C//DTD SVG 1.1//EN" "http://www.w3.org/Graphics/SVG/1.1/DTD/svg11.dtd">
<svg version="1.1" xmlns="http://www.w3.org/2000/svg" xmlns:xlink="http://www.w3.org/1999/xlink" x="0px" y="0px"
	 width="453.543px" height="453.543px" viewBox="0 0 453.543 453.543" enable-background="new 0 0 453.543 453.543"
	 xml:space="preserve">
<g id="kvadrat">
</g>
<g id="bg" display="none">
	<rect x="-832.959" y="-3296.276" display="inline" width="15266.867" height="13678.951"/>
</g>
<g id="barvno" display="none">
	<g id="rde훾a7bela" display="inline">
	</g>
	<g display="inline">
		<g>
			<g>
				
					<path fill="#7E4E24" stroke="#000000" stroke-width="8" stroke-linecap="round" stroke-linejoin="round" stroke-miterlimit="10" d="
					M387.271,149.748h-38.454c-3.322,0-6.187,2.336-6.856,5.59l-4.14,20.123c-0.472,2.293,0.234,4.669,1.88,6.333
					c1.328,1.343,3.125,2.077,4.977,2.077c0.444,0,0.892-0.042,1.335-0.128l42.594-8.28c3.289-0.64,5.664-3.521,5.664-6.872v-11.843
					C394.271,152.883,391.137,149.748,387.271,149.748z"/>
				
					<path fill="#7E4E24" stroke="#000000" stroke-width="8" stroke-linecap="round" stroke-linejoin="round" stroke-miterlimit="10" d="
					M113.041,155.797c-0.476-3.465-3.437-6.049-6.936-6.049H66.272c-3.866,0-7,3.135-7,7v11.843c0,3.352,2.375,6.232,5.664,6.872
					l42.593,8.28c0.444,0.086,0.891,0.128,1.336,0.128c1.772,0,3.498-0.673,4.81-1.914c1.641-1.551,2.432-3.799,2.125-6.036
					L113.041,155.797z"/>
			</g>
			
				<path fill="#FFFFFF" stroke="#000000" stroke-width="8" stroke-linecap="round" stroke-linejoin="round" stroke-miterlimit="10" d="
				M344.326,149.748c0-13.447-52.324-34.35-116.868-34.35c-64.542,0-116.866,20.902-116.866,34.35l8.657,150.367
				c0,21.005,47.254,38.03,105.539,38.03c58.29,0,105.543-17.025,105.543-38.03l13.917-149.54
				C344.295,150.301,344.326,150.025,344.326,149.748z"/>
		</g>
		<path fill="none" stroke="#000000" stroke-width="8" stroke-linecap="round" stroke-linejoin="round" stroke-miterlimit="10" d="
			M111.168,146.529c-0.045,0.272-0.076,0.546-0.076,0.82c0,13.332,51.877,34.056,115.868,34.056
			c63.988,0,115.865-20.724,115.865-34.056"/>
	</g>
	
		<rect x="-1343.244" y="-3716.285" display="inline" fill="none" stroke="#000000" stroke-miterlimit="10" width="16736" height="13952"/>
</g>
<g id="barvno_copy_2">
	<g id="rde훾a7bela_copy_4">
	</g>
	<g>
		<g>
			<g>
				<g>
					<path fill="#00FF00" d="M387.271,149.748h-38.454c-3.322,0-6.187,2.336-6.856,5.59l-4.14,20.123
						c-0.472,2.293,0.234,4.669,1.88,6.333c1.328,1.343,3.125,2.077,4.977,2.077c0.444,0,0.892-0.042,1.335-0.128l42.594-8.28
						c3.289-0.64,5.664-3.521,5.664-6.872v-11.843C394.271,152.883,391.137,149.748,387.271,149.748z"/>
					<path d="M344.678,187.871c-2.919,0-5.77-1.19-7.821-3.265c-2.592-2.621-3.696-6.341-2.954-9.952l4.14-20.123
						c1.047-5.089,5.578-8.784,10.774-8.784h38.454c6.065,0,11,4.935,11,11v11.843c0,5.254-3.743,9.795-8.9,10.798l-42.595,8.28
						C346.085,187.804,345.38,187.871,344.678,187.871z M348.817,153.748c-1.417,0-2.653,1.008-2.938,2.396l-4.14,20.123
						c-0.203,0.984,0.099,1.999,0.806,2.714c0.695,0.703,1.743,1.023,2.708,0.835l42.591-8.279c1.406-0.274,2.427-1.513,2.427-2.946
						v-11.843c0-1.654-1.346-3-3-3H348.817z"/>
				</g>
				<g>
					<path fill="#00FF00" d="M113.041,155.797c-0.476-3.465-3.437-6.049-6.936-6.049H66.272c-3.866,0-7,3.135-7,7v11.843
						c0,3.352,2.375,6.232,5.664,6.872l42.593,8.28c0.444,0.086,0.891,0.128,1.336,0.128c1.772,0,3.498-0.673,4.81-1.914
						c1.641-1.551,2.432-3.799,2.125-6.036L113.041,155.797z"/>
					<path d="M108.865,187.871c-0.703,0-1.408-0.067-2.096-0.201l-42.596-8.281c-5.158-1.003-8.901-5.544-8.901-10.798v-11.843
						c0-6.065,4.935-11,11-11h39.833c5.469,0,10.155,4.086,10.898,9.505l2.759,20.125c0.481,3.509-0.768,7.055-3.34,9.486
						C114.374,186.803,111.689,187.871,108.865,187.871z M66.272,153.748c-1.654,0-3,1.346-3,3v11.843
						c0,1.433,1.021,2.672,2.428,2.946l42.593,8.28c0.923,0.177,1.934-0.104,2.633-0.765c0.703-0.664,1.042-1.631,0.912-2.588
						l-2.759-20.124c-0.203-1.478-1.481-2.592-2.973-2.592H66.272z"/>
				</g>
			</g>
			<g>
				<path fill="#FFFFFF" d="M344.326,149.748c0-13.447-52.324-34.35-116.868-34.35c-64.542,0-116.866,20.902-116.866,34.35
					l8.657,150.367c0,21.005,47.254,38.03,105.539,38.03c58.29,0,105.543-17.025,105.543-38.03l13.917-149.54
					C344.295,150.301,344.326,150.025,344.326,149.748z"/>
				<path d="M224.789,342.146c-28.641,0-55.625-4.04-75.982-11.375c-21.565-7.771-33.475-18.61-33.556-30.533L106.6,149.978
					c-0.005-0.077-0.007-0.153-0.007-0.23c0-18.996,60.998-38.35,120.866-38.35c59.869,0,120.868,19.354,120.868,38.35
					c0,0.422-0.035,0.858-0.106,1.327l-13.889,149.238c-0.13,11.893-12.035,22.703-33.556,30.458
					C280.417,338.106,253.432,342.146,224.789,342.146z M114.595,149.67l8.648,150.215c0.005,0.077,0.007,0.153,0.007,0.23
					c0,16.096,41.701,34.03,101.539,34.03c59.841,0,101.543-17.935,101.543-34.03c0-0.124,0.006-0.248,0.017-0.371l13.917-149.54
					c0.009-0.097,0.022-0.193,0.038-0.29c0.01-0.058,0.021-0.114,0.022-0.172c0-2.65-7.693-10.645-31.472-18.41
					c-13.648-4.457-42.373-11.935-81.396-11.935c-39.022,0-67.746,7.478-81.394,11.935
					C122.514,139.024,114.742,146.939,114.595,149.67z"/>
			</g>
		</g>
		<path d="M226.96,185.405c-59.374,0-119.868-19.206-119.868-38.056c0-0.467,0.042-0.951,0.13-1.478
			c0.363-2.179,2.424-3.65,4.604-3.288c2.179,0.363,3.651,2.424,3.288,4.604c-0.01,0.056-0.02,0.112-0.022,0.168
			c0,2.618,7.621,10.526,31.179,18.219c13.53,4.418,42.004,11.831,80.689,11.831c38.683,0,67.157-7.412,80.687-11.831
			c23.558-7.693,31.179-15.601,31.179-18.225c0-2.209,1.791-4,4-4s4,1.791,4,4C346.826,166.2,286.333,185.405,226.96,185.405z"/>
	</g>
	<rect x="-1343.244" y="-3716.285" fill="none" stroke="#000000" stroke-miterlimit="10" width="16736" height="13952"/>
</g>
<g id="sivinsko" display="none">
	<g id="rde훾a7bela_copy_3" display="inline">
	</g>
	<g display="inline">
		<g>
			<g>
				<g>
					<path fill="#585858" d="M387.271,149.748h-38.454c-3.322,0-6.187,2.336-6.856,5.59l-4.14,20.123
						c-0.472,2.293,0.234,4.669,1.88,6.333c1.328,1.343,3.125,2.077,4.977,2.077c0.444,0,0.892-0.042,1.335-0.128l42.594-8.28
						c3.289-0.64,5.664-3.521,5.664-6.872v-11.843C394.271,152.883,391.137,149.748,387.271,149.748z"/>
					<path d="M344.678,187.871c-2.919,0-5.77-1.189-7.821-3.265c-2.592-2.621-3.696-6.341-2.954-9.951l4.14-20.124
						c1.046-5.089,5.578-8.784,10.774-8.784h38.454c6.065,0,11,4.935,11,11v11.843c0,5.254-3.743,9.795-8.9,10.799l-42.595,8.28
						C346.085,187.804,345.379,187.871,344.678,187.871z M348.817,153.748c-1.417,0-2.653,1.008-2.939,2.396l-4.139,20.123
						c-0.203,0.984,0.098,1.999,0.806,2.714c0.695,0.703,1.743,1.023,2.708,0.835l42.591-8.28c1.406-0.274,2.427-1.512,2.427-2.946
						v-11.843c0-1.654-1.346-3-3-3H348.817z"/>
				</g>
				<g>
					<path fill="#585858" d="M113.041,155.797c-0.476-3.465-3.437-6.049-6.936-6.049H66.272c-3.866,0-7,3.135-7,7v11.843
						c0,3.352,2.375,6.232,5.664,6.872l42.593,8.28c0.444,0.086,0.891,0.128,1.336,0.128c1.772,0,3.498-0.673,4.81-1.914
						c1.641-1.551,2.432-3.799,2.125-6.036L113.041,155.797z"/>
					<path d="M108.865,187.871c-0.703,0-1.408-0.067-2.096-0.201l-42.597-8.281c-5.157-1.003-8.9-5.545-8.9-10.799v-11.843
						c0-6.065,4.935-11,11-11h39.833c5.469,0,10.155,4.086,10.898,9.505l2.759,20.125c0.481,3.509-0.768,7.055-3.34,9.486
						C114.374,186.803,111.689,187.871,108.865,187.871z M66.272,153.748c-1.654,0-3,1.346-3,3v11.843
						c0,1.434,1.021,2.672,2.428,2.946l42.593,8.28c0.923,0.177,1.934-0.104,2.633-0.765c0.703-0.664,1.042-1.631,0.912-2.588
						l-2.759-20.123c-0.203-1.478-1.481-2.593-2.973-2.593H66.272z"/>
				</g>
			</g>
			<g>
				<path fill="#FFFFFF" d="M344.326,149.748c0-13.447-52.324-34.35-116.868-34.35c-64.542,0-116.866,20.902-116.866,34.35
					l8.657,150.367c0,21.005,47.254,38.03,105.539,38.03c58.29,0,105.543-17.025,105.543-38.03l13.917-149.54
					C344.295,150.301,344.326,150.025,344.326,149.748z"/>
				<path d="M224.789,342.146c-28.641,0-55.625-4.039-75.982-11.375c-21.565-7.771-33.475-18.61-33.556-30.533L106.6,149.978
					c-0.005-0.077-0.007-0.153-0.007-0.23c0-18.996,60.998-38.35,120.866-38.35c59.869,0,120.868,19.354,120.868,38.35
					c0,0.422-0.035,0.858-0.106,1.327l-13.889,149.238c-0.13,11.893-12.035,22.703-33.556,30.458
					C280.417,338.106,253.432,342.146,224.789,342.146z M114.595,149.67l8.648,150.215c0.005,0.077,0.007,0.153,0.007,0.23
					c0,16.096,41.701,34.03,101.539,34.03c59.84,0,101.543-17.935,101.543-34.03c0-0.124,0.005-0.248,0.017-0.371l13.917-149.54
					c0.009-0.097,0.022-0.193,0.038-0.29c0.01-0.058,0.021-0.114,0.022-0.172c0-2.65-7.693-10.645-31.472-18.41
					c-13.648-4.457-42.373-11.935-81.396-11.935c-39.022,0-67.746,7.478-81.394,11.935
					C122.514,139.024,114.742,146.939,114.595,149.67z"/>
			</g>
		</g>
		<path d="M226.96,185.405c-59.374,0-119.868-19.206-119.868-38.056c0-0.467,0.042-0.951,0.13-1.478
			c0.363-2.18,2.424-3.65,4.604-3.288c2.178,0.363,3.651,2.424,3.288,4.603c-0.01,0.056-0.02,0.112-0.022,0.168
			c0,2.618,7.621,10.526,31.179,18.22c13.53,4.418,42.004,11.83,80.689,11.83c38.683,0,67.157-7.412,80.687-11.83
			c23.558-7.694,31.179-15.602,31.179-18.226c0-2.209,1.791-4,4-4s4,1.791,4,4C346.826,166.2,286.333,185.405,226.96,185.405z"/>
	</g>
	<path display="inline" d="M15393.256,10236.215h-16737v-13953h16737V10236.215z M-1343.244,10235.215h16736l-0.5-13951h-16735.5
		l0.5,13951H-1343.244z"/>
</g>
<g id="linijsko" display="none">
	<g id="rde훾a7bela_copy" display="inline">
	</g>
	<g display="inline">
		<g>
			<path fill="none" stroke="#000000" stroke-width="8" stroke-linecap="round" stroke-linejoin="round" stroke-miterlimit="10" d="
				M341.235,182.959c1.048,0.592,2.232,0.912,3.442,0.912c0.444,0,0.892-0.042,1.335-0.128l42.594-8.28
				c3.289-0.64,5.664-3.521,5.664-6.872v-11.843c0-3.865-3.134-7-7-7h-38.454c-1.777,0-3.41,0.684-4.659,1.803"/>
			<path fill="none" stroke="#000000" stroke-width="8" stroke-linecap="round" stroke-linejoin="round" stroke-miterlimit="10" d="
				M110.691,151.461c-1.235-1.071-2.844-1.713-4.586-1.713H66.272c-3.866,0-7,3.135-7,7v11.843c0,3.352,2.375,6.232,5.664,6.872
				l42.593,8.28c0.444,0.086,0.891,0.128,1.336,0.128c1.283,0,2.539-0.357,3.633-1.022"/>
			<path fill="none" stroke="#000000" stroke-width="8" stroke-linecap="round" stroke-linejoin="round" stroke-miterlimit="10" d="
				M341.235,182.959l-10.903,117.156c0,21.005-47.253,38.03-105.543,38.03c-58.285,0-105.539-17.025-105.539-38.03l-6.751-117.267"
				/>
			
				<line fill="none" stroke="#000000" stroke-width="8" stroke-linecap="round" stroke-linejoin="round" stroke-miterlimit="10" x1="341.235" y1="182.959" x2="344.158" y2="151.551"/>
			
				<line fill="none" stroke="#000000" stroke-width="8" stroke-linecap="round" stroke-linejoin="round" stroke-miterlimit="10" x1="110.691" y1="151.461" x2="112.499" y2="182.849"/>
			<path fill="none" stroke="#000000" stroke-width="8" stroke-linecap="round" stroke-linejoin="round" stroke-miterlimit="10" d="
				M110.691,151.461l-0.099-1.713c0-13.447,52.324-34.35,116.866-34.35c64.543,0,116.868,20.902,116.868,34.35
				c0,0.277-0.031,0.553-0.077,0.827l-0.091,0.976"/>
		</g>
		<path fill="none" stroke="#000000" stroke-width="8" stroke-linecap="round" stroke-linejoin="round" stroke-miterlimit="10" d="
			M111.168,146.529c-0.045,0.272-0.076,0.546-0.076,0.82c0,13.332,51.877,34.056,115.868,34.056
			c63.988,0,115.865-20.724,115.865-34.056"/>
	</g>
</g>
<g id="pivot">
	<circle fill="none" cx="231.924" cy="337.143" r="14.133"/>
</g>
</svg>
