<?xml version="1.0" encoding="utf-8"?>
<!-- Generator: Adobe Illustrator 16.0.0, SVG Export Plug-In . SVG Version: 6.00 Build 0)  -->
<!DOCTYPE svg PUBLIC "-//W3C//DTD SVG 1.1//EN" "http://www.w3.org/Graphics/SVG/1.1/DTD/svg11.dtd">
<svg version="1.1" xmlns="http://www.w3.org/2000/svg" xmlns:xlink="http://www.w3.org/1999/xlink" x="0px" y="0px"
	 width="453.544px" height="453.543px" viewBox="0 0 453.544 453.543" enable-background="new 0 0 453.544 453.543"
	 xml:space="preserve">
<g id="kvadrat">
</g>
<g id="bg" display="none">
	<rect x="-11547.921" y="-3296.276" display="inline" width="15266.867" height="13678.951"/>
</g>
<g id="barvno" display="none">
	<g id="rde훾a7bela" display="inline">
	</g>
	<g display="inline">
		<path fill="none" stroke="#000000" stroke-width="8" stroke-linecap="round" stroke-linejoin="round" stroke-miterlimit="10" d="
			M262.915,173.207v-19.592h-72.973v19.68c-17.429,2.354-30.98,17.378-30.98,35.424v134.649c0,19.664,16.09,17.534,35.757,17.534
			h64.109c19.664,0,35.753,2.13,35.753-17.534V208.719C294.581,190.437,280.671,175.252,262.915,173.207z"/>
		<g>
			
				<path opacity="0.5" fill="#FFFFFF" stroke="#000000" stroke-width="8" stroke-linecap="round" stroke-linejoin="round" stroke-miterlimit="10" d="
				M263.206,173.207v-19.592h-72.972v19.68c-17.428,2.354-30.979,17.378-30.979,35.424v134.649
				c0,19.664,16.088,17.534,35.755,17.534h64.109c19.666,0,35.754,2.13,35.754-17.534V208.719
				C294.873,190.437,280.964,175.252,263.206,173.207z"/>
			<path d="M271.702,132.731v-27.995h-0.015c0.001-0.057,0.015-0.114,0.015-0.172c0-3.544-5.773-6.73-14.963-8.935
				c-1.017,1.53-3.176,2.59-5.684,2.59c-3.482,0-6.306-2.039-6.306-4.555c0-0.035,0.005-0.069,0.008-0.104
				c-3.818-0.451-7.912-0.768-12.199-0.925c0.616,0.704,0.979,1.536,0.979,2.431c0,2.516-2.823,4.555-6.307,4.555
				s-6.308-2.039-6.308-4.555c0-0.921,0.384-1.776,1.033-2.493c-4.291,0.107-8.405,0.373-12.266,0.775
				c0.011,0.104,0.021,0.21,0.021,0.316c0,2.516-2.824,4.555-6.305,4.555c-2.716,0-5.022-1.24-5.912-2.978
				c-10.172,2.209-16.664,5.564-16.664,9.322c0,0.058,0.015,0.115,0.016,0.172h-0.016v28.126c-1.345,0.507-2.309,1.796-2.309,3.318
				v13.769c0,1.962,1.592,3.554,3.555,3.554h88.807c1.962,0,3.553-1.592,3.553-3.554v-13.769
				C274.437,134.501,273.269,133.103,271.702,132.731z M215.318,112.936c-3.483,0-6.308-2.039-6.308-4.555s2.824-4.555,6.308-4.555
				c3.482,0,6.307,2.039,6.307,4.555S218.801,112.936,215.318,112.936z M237.04,112.936c-3.481,0-6.305-2.039-6.305-4.555
				s2.823-4.555,6.305-4.555c3.484,0,6.309,2.039,6.309,4.555S240.524,112.936,237.04,112.936z"/>
			<g>
				<path fill="#FFFFFF" stroke="#000000" stroke-width="8" stroke-linecap="round" stroke-miterlimit="10" d="M158.671,259.249
					v84.119c0,19.664,16.088,17.534,35.755,17.534h64.11c19.665,0,35.754,2.13,35.754-17.534v-84.119c0,0-17.527-3.555-66.263-3.555
					C179.291,255.694,158.671,259.249,158.671,259.249z"/>
			</g>
		</g>
	</g>
	
		<rect x="-12058.206" y="-3716.285" display="inline" fill="none" stroke="#000000" stroke-miterlimit="10" width="16736" height="13952"/>
</g>
<g id="barvno_copy_2">
	<g id="rde훾a7bela_copy_4">
	</g>
	<g>
		<path d="M268.922,364.97C268.922,364.97,268.922,364.97,268.922,364.97c-1.58,0-3.203-0.016-4.863-0.033
			c-1.708-0.017-3.454-0.035-5.23-0.035h-64.109c-1.776,0-3.523,0.018-5.231,0.035c-1.659,0.017-3.283,0.033-4.863,0.033
			c-11.812,0-29.662,0-29.662-21.602V208.719c0-18.62,13.091-34.703,30.98-38.762v-16.341c0-2.209,1.791-4,4-4h72.973
			c2.209,0,4,1.791,4,4v16.187c18.284,3.783,31.666,19.925,31.666,38.917v134.649c0,9.078-3.086,15.1-9.435,18.409
			C284.047,364.436,277.626,364.97,268.922,364.97z M194.719,356.902h64.109c1.803,0,3.576,0.018,5.311,0.035
			c1.633,0.016,3.229,0.032,4.782,0.032c7.287,0,12.887-0.389,16.528-2.287c2.389-1.246,5.132-3.657,5.132-11.315V208.719
			c0-16.133-12.091-29.691-28.124-31.538c-2.019-0.232-3.542-1.941-3.542-3.974v-15.592h-64.973v15.68
			c0,2.002-1.48,3.696-3.465,3.964c-15.687,2.119-27.516,15.644-27.516,31.46v134.649c0,11.547,5.676,13.602,21.662,13.602
			c1.554,0,3.151-0.016,4.783-0.032C191.142,356.92,192.915,356.902,194.719,356.902z"/>
		<g>
			<g>
				<path fill="#00FFFF" d="M263.206,173.207v-19.592h-72.972v19.68c-17.428,2.354-30.979,17.378-30.979,35.424v134.649
					c0,19.664,16.088,17.534,35.755,17.534h64.109c19.666,0,35.754,2.13,35.754-17.534V208.719
					C294.873,190.437,280.964,175.252,263.206,173.207z"/>
				<path d="M269.214,364.97C269.214,364.97,269.214,364.97,269.214,364.97c-1.58,0-3.204-0.016-4.863-0.033
					c-1.708-0.017-3.455-0.035-5.231-0.035H195.01c-1.776,0-3.523,0.018-5.231,0.035c-1.659,0.017-3.283,0.033-4.863,0.033
					c-11.811,0-29.66,0-29.66-21.602V208.719c0-18.619,13.093-34.702,30.979-38.762v-16.341c0-2.209,1.791-4,4-4h72.972
					c2.209,0,4,1.791,4,4v16.187c18.284,3.783,31.667,19.924,31.667,38.917v134.649c0,9.079-3.086,15.1-9.435,18.409
					C284.339,364.436,277.919,364.97,269.214,364.97z M195.01,356.902h64.109c1.804,0,3.577,0.018,5.312,0.035
					c1.632,0.016,3.229,0.032,4.782,0.032c7.288,0,12.887-0.389,16.528-2.287c2.39-1.246,5.132-3.657,5.132-11.315V208.719
					c0-16.133-12.091-29.691-28.125-31.538c-2.019-0.232-3.542-1.941-3.542-3.974v-15.592h-64.972v15.68
					c0,2.002-1.48,3.696-3.465,3.964c-15.686,2.119-27.515,15.644-27.515,31.46v134.649c0,11.547,5.676,13.602,21.66,13.602
					c1.554,0,3.151-0.016,4.783-0.032C191.433,356.92,193.206,356.902,195.01,356.902z"/>
			</g>
			<path fill="#FFFF00" d="M271.702,138.731v-27.995h-0.015c0.001-0.057,0.015-0.114,0.015-0.172c0-3.544-5.773-6.73-14.963-8.935
				c-1.017,1.53-3.176,2.59-5.684,2.59c-3.482,0-6.306-2.039-6.306-4.555c0-0.035,0.005-0.069,0.008-0.104
				c-3.818-0.451-7.912-0.768-12.199-0.925c0.616,0.704,0.979,1.536,0.979,2.431c0,2.516-2.823,4.555-6.307,4.555
				s-6.308-2.039-6.308-4.555c0-0.921,0.384-1.776,1.033-2.493c-4.291,0.107-8.405,0.373-12.266,0.775
				c0.011,0.104,0.021,0.21,0.021,0.316c0,2.516-2.824,4.555-6.305,4.555c-2.716,0-5.022-1.24-5.912-2.978
				c-10.172,2.209-16.664,5.564-16.664,9.322c0,0.058,0.015,0.115,0.016,0.172h-0.016v28.126c-1.345,0.507-2.309,1.796-2.309,3.318
				v13.769c0,1.962,1.592,3.554,3.555,3.554h88.807c1.962,0,3.553-1.592,3.553-3.554v-13.769
				C274.437,140.501,273.269,139.103,271.702,138.731z M215.318,118.936c-3.483,0-6.308-2.039-6.308-4.555s2.824-4.555,6.308-4.555
				c3.482,0,6.307,2.039,6.307,4.555S218.801,118.936,215.318,118.936z M237.04,118.936c-3.481,0-6.305-2.039-6.305-4.555
				s2.823-4.555,6.305-4.555c3.484,0,6.309,2.039,6.309,4.555S240.524,118.936,237.04,118.936z"/>
			<g>
				<g>
					<path fill="#00FF00" d="M158.671,259.249v84.119c0,19.664,16.088,17.534,35.755,17.534h64.11
						c19.665,0,35.754,2.13,35.754-17.534v-84.119c0,0-17.527-3.555-66.263-3.555C179.291,255.694,158.671,259.249,158.671,259.249z
						"/>
					<path d="M268.63,364.97c-1.579,0-3.203-0.016-4.863-0.033c-1.708-0.017-3.455-0.035-5.23-0.035h-64.11
						c-1.776,0-3.522,0.018-5.229,0.035c-1.659,0.017-3.282,0.033-4.861,0.033c-0.001,0-0.002,0-0.004,0
						c-11.811,0-29.66,0-29.66-21.602v-87.489l3.32-0.572c0.855-0.147,21.516-3.613,70.036-3.613
						c48.578,0,66.326,3.486,67.058,3.634l3.205,0.65v87.389C298.29,364.97,280.441,364.97,268.63,364.97z M194.426,356.902h64.11
						c1.803,0,3.576,0.018,5.311,0.035c1.633,0.016,3.229,0.032,4.783,0.032c15.984,0,21.66-2.055,21.66-13.602v-80.7
						c-6.979-0.962-25.917-2.974-62.263-2.974c-36.981,0-57.783,2.082-65.356,3.033v80.641c0,11.546,5.676,13.602,21.66,13.602
						c0.002,0,0.003,0,0.004,0c1.554,0,3.149-0.016,4.781-0.032C190.85,356.92,192.622,356.902,194.426,356.902z"/>
				</g>
			</g>
		</g>
	</g>
	<rect x="-12058.206" y="-3716.285" fill="none" stroke="#000000" stroke-miterlimit="10" width="16736" height="13952"/>
</g>
<g id="sivinsko" display="none">
	<g id="rde훾a7bela_copy_3" display="inline">
	</g>
	<g display="inline">
		<path d="M268.922,364.97L268.922,364.97c-1.58,0-3.203-0.016-4.863-0.033c-1.708-0.017-3.454-0.035-5.23-0.035h-64.109
			c-1.776,0-3.523,0.018-5.231,0.035c-1.659,0.017-3.283,0.033-4.863,0.033c-11.813,0-29.662,0-29.662-21.602V208.719
			c0-18.62,13.091-34.703,30.98-38.762v-16.341c0-2.209,1.791-4,4-4h72.973c2.209,0,4,1.791,4,4v16.187
			c18.284,3.783,31.666,19.925,31.666,38.917v134.649c0,9.078-3.086,15.1-9.436,18.409
			C284.046,364.436,277.626,364.97,268.922,364.97z M194.719,356.902h64.109c1.803,0,3.576,0.018,5.311,0.035
			c1.633,0.016,3.229,0.032,4.782,0.032c7.287,0,12.887-0.389,16.528-2.286c2.389-1.246,5.132-3.658,5.132-11.315V208.719
			c0-16.133-12.091-29.691-28.124-31.538c-2.019-0.232-3.542-1.941-3.542-3.974v-15.592h-64.973v15.68
			c0,2.002-1.48,3.696-3.465,3.964c-15.687,2.119-27.516,15.644-27.516,31.46v134.649c0,11.547,5.676,13.602,21.662,13.602
			c1.554,0,3.151-0.016,4.783-0.032C191.142,356.92,192.915,356.902,194.719,356.902z"/>
		<g>
			<g opacity="0.5">
				<path fill="#FFFFFF" d="M263.206,173.207v-19.592h-72.972v19.68c-17.428,2.354-30.979,17.378-30.979,35.424v134.649
					c0,19.664,16.088,17.534,35.755,17.534h64.109c19.666,0,35.754,2.13,35.754-17.534V208.719
					C294.873,190.437,280.964,175.252,263.206,173.207z"/>
				<path d="M269.214,364.97h-0.002c-1.578,0-3.202-0.016-4.861-0.033c-1.708-0.017-3.455-0.035-5.231-0.035H195.01
					c-1.776,0-3.523,0.018-5.231,0.035c-1.659,0.017-3.283,0.033-4.863,0.033c-11.811,0-29.66,0-29.66-21.602V208.719
					c0-18.619,13.093-34.702,30.979-38.762v-16.341c0-2.209,1.79-4,4-4h72.972c2.209,0,4,1.791,4,4v16.187
					c18.284,3.783,31.667,19.924,31.667,38.917v134.649c0,9.079-3.086,15.1-9.435,18.409
					C284.339,364.436,277.919,364.97,269.214,364.97z M195.01,356.902h64.109c1.804,0,3.577,0.018,5.312,0.035
					c1.632,0.016,3.229,0.032,4.781,0.032c7.289,0,12.888-0.389,16.529-2.286c2.39-1.246,5.132-3.658,5.132-11.315V208.719
					c0-16.133-12.091-29.691-28.125-31.538c-2.019-0.232-3.542-1.941-3.542-3.974v-15.592h-64.972v15.68
					c0,2.002-1.48,3.696-3.465,3.964c-15.686,2.119-27.515,15.644-27.515,31.46v134.649c0,11.547,5.676,13.602,21.66,13.602
					c1.554,0,3.151-0.016,4.783-0.032C191.433,356.92,193.206,356.902,195.01,356.902z"/>
			</g>
			<path d="M271.702,132.731v-27.995h-0.015c0.001-0.057,0.015-0.114,0.015-0.172c0-3.544-5.773-6.73-14.963-8.935
				c-1.017,1.53-3.176,2.59-5.684,2.59c-3.482,0-6.306-2.039-6.306-4.555c0-0.035,0.005-0.069,0.008-0.104
				c-3.818-0.451-7.912-0.768-12.199-0.925c0.616,0.704,0.979,1.536,0.979,2.431c0,2.516-2.823,4.555-6.307,4.555
				s-6.308-2.039-6.308-4.555c0-0.921,0.384-1.776,1.033-2.493c-4.291,0.107-8.405,0.373-12.266,0.775
				c0.011,0.104,0.021,0.21,0.021,0.316c0,2.516-2.824,4.555-6.305,4.555c-2.716,0-5.022-1.24-5.912-2.978
				c-10.172,2.209-16.664,5.564-16.664,9.322c0,0.058,0.015,0.115,0.016,0.172h-0.016v28.126c-1.345,0.507-2.309,1.796-2.309,3.318
				v13.769c0,1.962,1.592,3.554,3.555,3.554h88.807c1.962,0,3.553-1.592,3.553-3.554v-13.769
				C274.437,134.501,273.269,133.103,271.702,132.731z M215.318,112.936c-3.483,0-6.308-2.039-6.308-4.555s2.824-4.555,6.308-4.555
				c3.482,0,6.307,2.039,6.307,4.555S218.801,112.936,215.318,112.936z M237.04,112.936c-3.481,0-6.305-2.039-6.305-4.555
				s2.823-4.555,6.305-4.555c3.484,0,6.309,2.039,6.309,4.555S240.524,112.936,237.04,112.936z"/>
			<g>
				<g>
					<path fill="#FFFFFF" d="M158.671,259.249v84.119c0,19.664,16.088,17.534,35.755,17.534h64.11
						c19.665,0,35.754,2.13,35.754-17.534v-84.119c0,0-17.527-3.555-66.263-3.555C179.291,255.694,158.671,259.249,158.671,259.249z
						"/>
					<path d="M268.63,364.97c-1.579,0-3.203-0.016-4.863-0.033c-1.708-0.017-3.455-0.035-5.23-0.035h-64.11
						c-1.776,0-3.522,0.018-5.229,0.035c-1.659,0.017-3.282,0.033-4.861,0.033h-0.004c-11.811,0-29.66,0-29.66-21.602V255.88
						l3.32-0.572c0.855-0.148,21.516-3.613,70.036-3.613c48.578,0,66.326,3.486,67.058,3.634l3.205,0.65v87.389
						C298.29,364.97,280.441,364.97,268.63,364.97z M194.426,356.902h64.11c1.803,0,3.576,0.018,5.311,0.035
						c1.633,0.016,3.229,0.032,4.783,0.032c15.984,0,21.66-2.055,21.66-13.602v-80.7c-6.979-0.962-25.917-2.974-62.263-2.974
						c-36.981,0-57.783,2.081-65.356,3.033v80.641c0,11.546,5.676,13.602,21.66,13.602h0.004c1.554,0,3.149-0.016,4.781-0.032
						C190.85,356.92,192.622,356.902,194.426,356.902z"/>
				</g>
			</g>
		</g>
	</g>
	<path display="inline" d="M4678.294,10236.215h-16737v-13953h16737V10236.215z M-12058.206,10235.215h16736l-0.5-13951h-16735.5
		l0.5,13951H-12058.206z"/>
</g>
<g id="linijsko" display="none">
	<g id="rde훾a7bela_copy" display="inline">
	</g>
	<g display="inline">
		<path fill="none" stroke="#000000" stroke-width="8" stroke-linecap="round" stroke-linejoin="round" stroke-miterlimit="10" d="
			M262.915,173.207v-19.592h-72.973v19.68c-17.429,2.354-30.98,17.378-30.98,35.424v134.649c0,19.664,16.09,17.534,35.757,17.534
			h64.109c19.664,0,35.753,2.13,35.753-17.534V208.719C294.581,190.437,280.671,175.252,262.915,173.207z"/>
		<g>
			<path fill="none" stroke="#000000" stroke-width="8" stroke-linecap="round" stroke-linejoin="round" stroke-miterlimit="10" d="
				M271.702,132.731v-27.995h-0.015c0.001-0.057,0.015-0.114,0.015-0.172c0-3.544-5.773-6.73-14.963-8.935
				c-1.017,1.53-3.176,2.59-5.684,2.59c-3.482,0-6.306-2.039-6.306-4.555c0-0.035,0.005-0.069,0.008-0.104
				c-3.818-0.451-7.912-0.768-12.199-0.925c0.616,0.704,0.979,1.536,0.979,2.431c0,2.516-2.823,4.555-6.307,4.555
				s-6.308-2.039-6.308-4.555c0-0.921,0.384-1.776,1.033-2.493c-4.291,0.107-8.405,0.373-12.266,0.775
				c0.011,0.104,0.021,0.21,0.021,0.316c0,2.516-2.824,4.555-6.305,4.555c-2.716,0-5.022-1.24-5.912-2.978
				c-10.172,2.209-16.664,5.564-16.664,9.322c0,0.058,0.015,0.115,0.016,0.172h-0.016v28.126c-1.345,0.507-2.309,1.796-2.309,3.318
				v13.769c0,1.962,1.592,3.554,3.555,3.554h88.807c1.962,0,3.553-1.592,3.553-3.554v-13.769
				C274.437,134.501,273.269,133.103,271.702,132.731z"/>
			<g>
				<path fill="none" stroke="#000000" stroke-width="8" stroke-linecap="round" stroke-miterlimit="10" d="M293.874,259.992
					c0,0-16.527-3.555-65.263-3.555c-48.736,0-69.356,3.555-69.356,3.555"/>
			</g>
		</g>
	</g>
</g>
<g id="pivot">
	<circle fill="none" cx="230.212" cy="361.735" r="14.133"/>
</g>
</svg>
