<?xml version="1.0" encoding="utf-8"?>
<!-- Generator: Adobe Illustrator 16.0.0, SVG Export Plug-In . SVG Version: 6.00 Build 0)  -->
<!DOCTYPE svg PUBLIC "-//W3C//DTD SVG 1.1//EN" "http://www.w3.org/Graphics/SVG/1.1/DTD/svg11.dtd">
<svg version="1.1" xmlns="http://www.w3.org/2000/svg" xmlns:xlink="http://www.w3.org/1999/xlink" x="0px" y="0px"
	 width="453.543px" height="453.543px" viewBox="0 0 453.543 453.543" enable-background="new 0 0 453.543 453.543"
	 xml:space="preserve">
<g id="kvadrat">
</g>
<g id="bg" display="none">
	<rect x="-4404.613" y="-3296.276" display="inline" width="15266.867" height="13678.951"/>
</g>
<g id="barvno" display="none">
	<g id="rde훾a7bela" display="inline">
	</g>
	<g display="inline">
		
			<path fill="#424242" stroke="#000000" stroke-width="8" stroke-linecap="round" stroke-linejoin="round" stroke-miterlimit="10" d="
			M250.699,168.9c0,0,0.419,17.542,11.277,29.239c10.866,11.689,22.132,28.192,22.35,59.097
			c0.205,30.905,0.419,109.851,0.419,109.851v1.67c-0.005,11.38-25.967,20.602-57.977,20.602c-32.018,0-57.971-9.222-57.971-20.589
			v-1.666c0,0,0.211-78.94,0.413-109.852c0.209-30.912,11.491-47.407,22.349-59.105c10.853-11.687,11.279-29.23,11.279-29.23
			l-0.012-64.547c-0.005-4.688,10.708-8.496,23.936-8.496c13.218,0,23.931,3.808,23.931,8.496L250.699,168.9z"/>
		<g>
			<path d="M209.185,100.712c-3.407,1.163-5.828,2.778-6.09,4.958h-0.028c0,0.051,0.005,0.1,0.011,0.15
				c-0.006,0.051-0.011,0.106-0.011,0.157h0.028c0.324,2.653,3.862,4.476,8.484,5.644L209.185,100.712z"/>
			<path d="M251.034,105.664h-0.027c-0.269-2.169-2.677-3.784-6.075-4.941l-1.728,10.916l0.035-0.201
				c4.269-1.174,7.466-2.948,7.768-5.467h0.027c-0.004-0.049-0.01-0.1-0.01-0.15C251.023,105.765,251.029,105.714,251.034,105.664z"
				/>
		</g>
		
			<path fill="#925F36" stroke="#000000" stroke-width="8" stroke-linecap="round" stroke-linejoin="round" stroke-miterlimit="10" d="
			M206.347,64.186l5.231,47.436l0.005,0.018h0.05c4.762,1.195,10.658,1.699,15.414,1.699c4.762,0,10.658-0.504,15.414-1.699h0.743
			l1.728-10.916l3.203-36.537H206.347z"/>
	</g>
	
		<rect x="-4914.898" y="-3716.285" display="inline" fill="none" stroke="#000000" stroke-miterlimit="10" width="16736" height="13952"/>
</g>
<g id="barvno_copy_2">
	<g id="rde훾a7bela_copy_4">
	</g>
	<g>
		<g>
			<path fill="#0000FF" d="M250.699,168.9c0,0,0.419,17.542,11.277,29.239c10.866,11.689,22.132,28.192,22.35,59.097
				c0.205,30.905,0.419,109.851,0.419,109.851v1.67c-0.005,11.38-25.967,20.602-57.977,20.602c-32.018,0-57.971-9.222-57.971-20.589
				v-1.666c0,0,0.211-78.94,0.413-109.852c0.209-30.912,11.491-47.407,22.349-59.105c10.853-11.687,11.279-29.23,11.279-29.23
				l-0.012-64.547c-0.005-4.688,10.708-8.496,23.936-8.496c13.218,0,23.931,3.808,23.931,8.496L250.699,168.9z"/>
			<path d="M226.769,393.358c-30.042,0-61.971-8.618-61.971-24.589v-1.666c0.002-0.8,0.213-79.313,0.413-109.878
				c0.221-32.653,12.631-50.179,23.417-61.8c9.422-10.146,10.176-25.689,10.21-26.575l-0.012-64.48
				c-0.001-1.422,0.438-3.564,2.539-5.667c4.208-4.212,13.939-6.829,25.397-6.829c13.452,0,27.931,3.911,27.931,12.496l0.006,64.466
				c0.034,0.872,0.778,16.424,10.209,26.583c10.781,11.599,23.188,29.105,23.418,61.79c0.203,30.562,0.417,109.079,0.419,109.868
				v1.681C288.738,384.737,256.808,393.358,226.769,393.358z M206.827,104.569l0.012,64.346c-0.02,0.876-0.599,19.302-12.348,31.954
				c-10.41,11.215-21.08,26.688-21.28,56.41c-0.2,30.549-0.411,109.046-0.413,109.835v1.655c0,6.927,20.532,16.589,53.971,16.589
				c33.438,0,53.974-9.67,53.977-16.604v-1.668c-0.002-0.778-0.216-79.28-0.419-109.824c-0.209-29.751-10.875-45.206-21.28-56.4
				c-11.756-12.664-12.328-31.089-12.347-31.867l-0.007-64.424c-0.94-1.46-7.666-4.699-19.931-4.699
				C214.497,99.873,207.769,103.109,206.827,104.569z"/>
		</g>
		<g>
			<path d="M209.185,100.712c-3.407,1.163-5.828,2.778-6.09,4.958h-0.028c0,0.051,0.005,0.1,0.011,0.15
				c-0.006,0.051-0.011,0.106-0.011,0.157h0.028c0.324,2.653,3.862,4.476,8.484,5.644L209.185,100.712z"/>
			<path d="M251.034,105.664h-0.027c-0.269-2.169-2.677-3.784-6.075-4.941l-1.728,10.916l0.035-0.201
				c4.269-1.174,7.466-2.948,7.768-5.467h0.027c-0.004-0.049-0.01-0.1-0.01-0.15C251.023,105.765,251.029,105.714,251.034,105.664z"
				/>
		</g>
		<g>
			<path fill="#FF0000" d="M206.347,64.186l5.231,47.436l0.005,0.018h0.05c4.762,1.195,10.658,1.699,15.414,1.699
				c4.762,0,10.658-0.504,15.414-1.699h0.743l1.728-10.916l3.203-36.537H206.347z"/>
			<path d="M227.048,117.338c-5.767,0-11.697-0.654-16.291-1.795c-1.393-0.309-2.57-1.336-2.998-2.732
				c-0.074-0.239-0.129-0.502-0.157-0.751l-5.231-47.436c-0.125-1.13,0.238-2.26,0.997-3.107s1.842-1.331,2.979-1.331h41.787
				c1.122,0,2.192,0.471,2.949,1.298c0.758,0.827,1.133,1.934,1.036,3.051l-3.203,36.537c-0.008,0.092-0.02,0.185-0.034,0.276
				l-1.728,10.916c-0.308,1.943-1.983,3.375-3.951,3.375h-0.26C238.414,116.721,232.656,117.338,227.048,117.338z M215.239,108.322
				c3.54,0.646,7.767,1.016,11.809,1.016c4.375,0,8.96-0.433,12.657-1.178l1.254-7.925l2.81-32.049h-32.956L215.239,108.322z"/>
		</g>
	</g>
	<rect x="-4914.898" y="-3716.285" fill="none" stroke="#000000" stroke-miterlimit="10" width="16736" height="13952"/>
</g>
<g id="sivinsko" display="none">
	<g id="rde훾a7bela_copy_3" display="inline">
	</g>
	<g display="inline">
		<g>
			<path fill="#424242" d="M250.699,168.9c0,0,0.419,17.542,11.277,29.239c10.866,11.689,22.132,28.192,22.35,59.097
				c0.205,30.905,0.419,109.851,0.419,109.851v1.67c-0.005,11.38-25.967,20.602-57.977,20.602c-32.018,0-57.971-9.222-57.971-20.589
				v-1.666c0,0,0.211-78.94,0.413-109.852c0.209-30.912,11.491-47.407,22.349-59.105c10.853-11.687,11.279-29.23,11.279-29.23
				l-0.012-64.547c-0.005-4.688,10.708-8.496,23.936-8.496c13.218,0,23.931,3.808,23.931,8.496L250.699,168.9z"/>
			<path d="M226.769,393.358c-30.042,0-61.971-8.617-61.971-24.589v-1.666c0.002-0.8,0.213-79.313,0.413-109.878
				c0.221-32.652,12.631-50.179,23.417-61.8c9.422-10.146,10.176-25.69,10.21-26.575l-0.012-64.48
				c-0.001-1.422,0.438-3.564,2.539-5.667c4.208-4.212,13.939-6.829,25.397-6.829c13.452,0,27.931,3.911,27.931,12.496l0.006,64.466
				c0.034,0.872,0.778,16.424,10.209,26.583c10.781,11.599,23.188,29.106,23.418,61.79c0.203,30.562,0.417,109.079,0.419,109.868
				v1.681C288.738,384.737,256.808,393.358,226.769,393.358z M206.827,104.568l0.012,64.347c-0.02,0.877-0.599,19.302-12.348,31.954
				c-10.41,11.215-21.08,26.688-21.28,56.41c-0.2,30.549-0.411,109.046-0.413,109.835v1.655c0,6.927,20.532,16.589,53.971,16.589
				c33.438,0,53.974-9.67,53.977-16.604v-1.668c-0.002-0.778-0.216-79.28-0.419-109.824c-0.209-29.751-10.875-45.206-21.28-56.399
				c-11.756-12.664-12.328-31.089-12.347-31.867l-0.007-64.424c-0.94-1.46-7.666-4.699-19.931-4.699
				C214.497,99.873,207.769,103.109,206.827,104.568z"/>
		</g>
		<g>
			<path d="M209.185,100.712c-3.407,1.163-5.828,2.778-6.09,4.958h-0.028c0,0.051,0.005,0.1,0.011,0.15
				c-0.006,0.051-0.011,0.106-0.011,0.157h0.028c0.324,2.653,3.862,4.476,8.484,5.644L209.185,100.712z"/>
			<path d="M251.034,105.664h-0.027c-0.269-2.169-2.677-3.784-6.075-4.941l-1.728,10.916l0.035-0.201
				c4.269-1.174,7.466-2.948,7.768-5.467h0.027c-0.004-0.049-0.01-0.1-0.01-0.15C251.023,105.765,251.029,105.714,251.034,105.664z"
				/>
		</g>
		<g>
			<path fill="#6A6A6A" d="M206.347,64.186l5.231,47.436l0.005,0.018h0.05c4.762,1.195,10.658,1.699,15.414,1.699
				c4.762,0,10.658-0.504,15.414-1.699h0.743l1.728-10.916l3.203-36.537H206.347z"/>
			<path d="M227.048,117.338c-5.767,0-11.697-0.654-16.291-1.795c-1.393-0.309-2.57-1.336-2.998-2.732
				c-0.074-0.239-0.129-0.502-0.157-0.751l-5.232-47.436c-0.124-1.13,0.238-2.26,0.997-3.107s1.842-1.331,2.979-1.331h41.787
				c1.122,0,2.192,0.471,2.949,1.298c0.758,0.827,1.133,1.934,1.036,3.051l-3.203,36.537c-0.008,0.092-0.02,0.185-0.034,0.276
				l-1.728,10.916c-0.308,1.944-1.983,3.375-3.951,3.375h-0.26C238.414,116.721,232.656,117.338,227.048,117.338z M215.239,108.322
				c3.54,0.646,7.767,1.016,11.809,1.016c4.375,0,8.96-0.433,12.657-1.178l1.254-7.925l2.81-32.049h-32.956L215.239,108.322z"/>
		</g>
	</g>
	<path display="inline" d="M11821.602,10236.215h-16737v-13953h16737V10236.215z M-4914.898,10235.215h16736l-0.5-13951h-16735.5
		l0.5,13951H-4914.898z"/>
</g>
<g id="linijsko" display="none">
	<g id="rde훾a7bela_copy" display="inline">
	</g>
	<g display="inline">
		<g>
			<path fill="none" d="M209.185,100.712c-3.407,1.163-5.828,2.778-6.09,4.958h-0.028c0,0.051,0.005,0.1,0.011,0.15
				c-0.006,0.051-0.011,0.106-0.011,0.157h0.028c0.324,2.653,3.862,4.476,8.484,5.644L209.185,100.712z"/>
			<path fill="none" d="M251.034,105.664h-0.027c-0.269-2.169-2.677-3.784-6.075-4.941l-1.728,10.916l0.035-0.201
				c4.269-1.174,7.466-2.948,7.768-5.467h0.027c-0.004-0.049-0.01-0.1-0.01-0.15C251.023,105.765,251.029,105.714,251.034,105.664z"
				/>
		</g>
		<g>
			<path fill="none" stroke="#000000" stroke-width="8" stroke-linecap="round" stroke-linejoin="round" stroke-miterlimit="10" d="
				M210.106,98.27c-4.489,1.545-7.282,3.707-7.279,6.099l0.012,64.547c0,0-0.426,17.544-11.279,29.23
				c-10.858,11.698-22.14,28.193-22.349,59.105c-0.202,30.911-0.413,109.852-0.413,109.852v1.666
				c0,11.367,25.953,20.589,57.971,20.589c32.01,0,57.972-9.222,57.977-20.602v-1.67c0,0-0.214-78.945-0.419-109.851
				c-0.218-30.904-11.484-47.407-22.35-59.097c-10.858-11.697-11.277-29.239-11.277-29.239l-0.006-64.531
				c0-2.078-2.108-3.982-5.603-5.459"/>
			<path fill="none" stroke="#000000" stroke-width="8" stroke-linecap="round" stroke-linejoin="round" stroke-miterlimit="10" d="
				M245.09,98.91l-0.159,1.813l-1.728,10.916h-0.743c-4.755,1.195-10.652,1.699-15.414,1.699c-4.756,0-10.652-0.504-15.414-1.699
				h-0.05l-0.005-0.018l-1.473-13.351"/>
			
				<polyline fill="none" stroke="#000000" stroke-width="8" stroke-linecap="round" stroke-linejoin="round" stroke-miterlimit="10" points="
				245.09,98.91 248.134,64.186 206.347,64.186 210.106,98.27 			"/>
		</g>
	</g>
</g>
<g id="pivot">
	<circle fill="none" cx="223.638" cy="386.332" r="14.133"/>
</g>
</svg>
