<?xml version="1.0" encoding="utf-8"?>
<!-- Generator: Adobe Illustrator 16.0.0, SVG Export Plug-In . SVG Version: 6.00 Build 0)  -->
<!DOCTYPE svg PUBLIC "-//W3C//DTD SVG 1.1//EN" "http://www.w3.org/Graphics/SVG/1.1/DTD/svg11.dtd">
<svg version="1.1" xmlns="http://www.w3.org/2000/svg" xmlns:xlink="http://www.w3.org/1999/xlink" x="0px" y="0px"
	 width="453.543px" height="453.543px" viewBox="0 0 453.543 453.543" enable-background="new 0 0 453.543 453.543"
	 xml:space="preserve">
<g id="kvadrat">
</g>
<g id="bg" display="none">
	<rect x="-4914.849" y="-3296.276" display="inline" width="15266.867" height="13678.951"/>
</g>
<g id="barvno" display="none">
	<g id="rde훾a7bela" display="inline">
	</g>
	<g display="inline">
		
			<path fill="#C8C8C8" stroke="#000000" stroke-width="8" stroke-linecap="round" stroke-linejoin="round" stroke-miterlimit="10" d="
			M247.791,68.268c-5.362-5.411-12.806-8.755-21.021-8.755c-8.221,0-15.655,3.349-21.026,8.755
			c-14.557,14.731-23.552,34.97-23.552,57.313c0,13.236,2.063,26.353,8.75,36.78c3.264,5.091,5.807,7.896,9.226,11.956
			c9.556,11.347,15.656,27.712,14.482,46.356l-8.368,152.861c0,11.33,9.177,20.498,20.489,20.498l0,0
			c11.315,0,20.492-9.168,20.492-20.498l-8.367-152.857c-1.179-18.648,4.917-35.014,14.485-46.356
			c3.415-4.06,5.958-6.869,9.218-11.957c6.691-10.425,8.754-23.543,8.754-36.783C271.352,103.238,262.353,82.999,247.791,68.268z"/>
		<path fill="none" stroke="#000000" stroke-width="6" stroke-linecap="round" stroke-linejoin="round" stroke-miterlimit="10" d="
			M236.917,80.961c0,0,21.784,20.454,12.048,60.364"/>
	</g>
	
		<rect x="-5425.134" y="-3716.285" display="inline" fill="none" stroke="#000000" stroke-miterlimit="10" width="16736" height="13952"/>
</g>
<g id="barvno_copy_2">
	<g id="rde훾a7bela_copy_4">
	</g>
	<g>
		<g>
			<path fill="#00FFFF" d="M247.791,68.268c-5.362-5.411-12.806-8.755-21.021-8.755c-8.221,0-15.655,3.349-21.026,8.755
				c-14.557,14.731-23.552,34.97-23.552,57.313c0,13.236,2.063,26.353,8.75,36.78c3.264,5.091,5.807,7.896,9.226,11.956
				c9.556,11.347,15.656,27.712,14.482,46.356l-8.368,152.861c0,11.33,9.177,20.498,20.489,20.498l0,0
				c11.315,0,20.492-9.168,20.492-20.498l-8.367-152.857c-1.179-18.648,4.917-35.014,14.485-46.356
				c3.415-4.06,5.958-6.869,9.218-11.957c6.691-10.425,8.754-23.543,8.754-36.783C271.352,103.238,262.353,82.999,247.791,68.268z"
				/>
			<path d="M226.77,398.031c-13.503,0-24.489-10.99-24.489-24.498c0-0.073,0.002-0.146,0.006-0.219l8.368-152.861
				c1.023-16.258-3.915-32.124-13.547-43.561l-1.318-1.557c-2.813-3.317-5.244-6.181-8.215-10.817
				c-6.313-9.844-9.383-22.581-9.383-38.938c0-22.649,8.774-44.002,24.707-60.125c6.373-6.415,14.848-9.943,23.872-9.943
				c9.037,0,17.511,3.53,23.863,9.939c15.942,16.127,24.72,37.48,24.72,60.128c0,16.363-3.071,29.102-9.388,38.944
				c-2.964,4.626-5.391,7.491-8.201,10.807l-1.322,1.564c-9.642,11.43-14.581,27.294-13.554,43.529l8.369,152.891
				c0.004,0.073,0.006,0.146,0.006,0.219C251.262,387.042,240.274,398.031,226.77,398.031z M210.281,373.637
				c0.056,9.05,7.431,16.395,16.488,16.395c9.06,0,16.436-7.345,16.492-16.395L234.9,220.896
				c-1.153-18.24,4.467-36.168,15.422-49.154l1.337-1.582c2.733-3.226,4.892-5.773,7.571-9.954
				c5.466-8.516,8.122-19.841,8.122-34.625c0-20.529-7.957-39.884-22.406-54.501c-4.834-4.878-11.291-7.567-18.177-7.567
				c-6.876,0-13.336,2.69-18.188,7.574c-14.436,14.607-22.39,33.963-22.39,54.494c0,14.779,2.655,26.104,8.117,34.621
				c2.684,4.186,4.845,6.734,7.582,9.959l1.336,1.58c10.946,12.998,16.564,30.924,15.415,49.185L210.281,373.637z"/>
		</g>
		<g>
			<path fill="#00FFFF" d="M236.917,80.961c0,0,21.784,20.454,12.048,60.364"/>
			<path d="M248.967,144.326c-0.235,0-0.475-0.028-0.713-0.086c-1.61-0.393-2.596-2.016-2.204-3.625
				c9.214-37.773-10.982-57.274-11.187-57.466c-1.208-1.134-1.268-3.033-0.133-4.241c1.134-1.208,3.033-1.268,4.241-0.133
				c0.941,0.884,22.944,22.125,12.909,63.262C251.544,143.407,250.317,144.326,248.967,144.326z"/>
		</g>
	</g>
	<rect x="-5425.134" y="-3716.285" fill="none" stroke="#000000" stroke-miterlimit="10" width="16736" height="13952"/>
</g>
<g id="sivinsko" display="none">
	<g id="rde훾a7bela_copy_3" display="inline">
	</g>
	<g display="inline">
		<g>
			<path fill="#C8C8C8" d="M247.791,68.268c-5.362-5.411-12.806-8.755-21.021-8.755c-8.221,0-15.655,3.349-21.026,8.755
				c-14.557,14.731-23.552,34.97-23.552,57.313c0,13.236,2.063,26.353,8.75,36.78c3.264,5.091,5.807,7.896,9.226,11.956
				c9.556,11.347,15.656,27.712,14.482,46.356l-8.368,152.861c0,11.33,9.177,20.498,20.489,20.498l0,0
				c11.315,0,20.492-9.168,20.492-20.498l-8.367-152.857c-1.179-18.648,4.917-35.014,14.485-46.356
				c3.415-4.06,5.958-6.869,9.218-11.957c6.691-10.425,8.754-23.543,8.754-36.783C271.352,103.238,262.353,82.999,247.791,68.268z"
				/>
			<path d="M226.77,398.031c-13.503,0-24.489-10.989-24.489-24.498c0-0.073,0.002-0.146,0.006-0.219l8.368-152.861
				c1.023-16.258-3.915-32.124-13.547-43.561l-1.318-1.557c-2.813-3.317-5.244-6.181-8.215-10.817
				c-6.313-9.844-9.383-22.581-9.383-38.938c0-22.649,8.774-44.002,24.707-60.125c6.373-6.415,14.848-9.943,23.872-9.943
				c9.037,0,17.511,3.53,23.863,9.939c15.942,16.128,24.72,37.48,24.72,60.128c0,16.363-3.071,29.102-9.388,38.944
				c-2.964,4.626-5.391,7.491-8.201,10.807l-1.322,1.564c-9.642,11.43-14.581,27.294-13.554,43.53l8.369,152.89
				c0.004,0.073,0.006,0.146,0.006,0.219C251.262,387.042,240.274,398.031,226.77,398.031z M210.281,373.637
				c0.056,9.05,7.431,16.395,16.488,16.395c9.06,0,16.436-7.345,16.492-16.395L234.9,220.896
				c-1.153-18.24,4.467-36.168,15.422-49.154l1.337-1.582c2.733-3.226,4.892-5.773,7.571-9.953
				c5.466-8.517,8.122-19.842,8.122-34.625c0-20.529-7.957-39.884-22.406-54.5c-4.834-4.879-11.291-7.567-18.177-7.567
				c-6.876,0-13.336,2.69-18.188,7.574c-14.436,14.607-22.39,33.963-22.39,54.494c0,14.779,2.655,26.104,8.117,34.621
				c2.684,4.186,4.845,6.734,7.582,9.959l1.336,1.58c10.946,12.998,16.564,30.924,15.415,49.185L210.281,373.637z"/>
		</g>
		<path d="M248.967,144.326c-0.235,0-0.475-0.028-0.713-0.086c-1.61-0.392-2.596-2.016-2.204-3.625
			c9.214-37.773-10.982-57.273-11.187-57.466c-1.208-1.135-1.268-3.033-0.133-4.241c1.134-1.208,3.033-1.268,4.241-0.133
			c0.941,0.883,22.944,22.124,12.909,63.262C251.544,143.407,250.317,144.326,248.967,144.326z"/>
	</g>
	<path display="inline" d="M11311.365,10236.215h-16737v-13953h16737V10236.215z M-5425.134,10235.215h16736l-0.5-13951h-16735.5
		l0.5,13951H-5425.134z"/>
</g>
<g id="linijsko" display="none">
	<g id="rde훾a7bela_copy" display="inline">
	</g>
	<g display="inline">
		<path fill="none" stroke="#000000" stroke-width="8" stroke-linecap="round" stroke-linejoin="round" stroke-miterlimit="10" d="
			M247.791,68.268c-5.362-5.411-12.806-8.755-21.021-8.755c-8.221,0-15.655,3.349-21.026,8.755
			c-14.557,14.731-23.552,34.97-23.552,57.313c0,13.236,2.063,26.353,8.75,36.78c3.264,5.091,5.807,7.896,9.226,11.956
			c9.556,11.347,15.656,27.712,14.482,46.356l-8.368,152.861c0,11.33,9.177,20.498,20.489,20.498l0,0
			c11.315,0,20.492-9.168,20.492-20.498l-8.367-152.857c-1.179-18.648,4.917-35.014,14.485-46.356
			c3.415-4.06,5.958-6.869,9.218-11.957c6.691-10.425,8.754-23.543,8.754-36.783C271.352,103.238,262.353,82.999,247.791,68.268z"/>
		<path fill="none" stroke="#000000" stroke-width="6" stroke-linecap="round" stroke-linejoin="round" stroke-miterlimit="10" d="
			M236.917,80.961c0,0,21.784,20.454,12.048,60.364"/>
	</g>
</g>
<g id="pivot">
	<circle fill="none" cx="224.108" cy="387.778" r="14.133"/>
</g>
</svg>
