<?xml version="1.0" encoding="utf-8"?>
<!-- Generator: Adobe Illustrator 16.0.0, SVG Export Plug-In . SVG Version: 6.00 Build 0)  -->
<!DOCTYPE svg PUBLIC "-//W3C//DTD SVG 1.1//EN" "http://www.w3.org/Graphics/SVG/1.1/DTD/svg11.dtd">
<svg version="1.1" xmlns="http://www.w3.org/2000/svg" xmlns:xlink="http://www.w3.org/1999/xlink" x="0px" y="0px"
	 width="453.543px" height="453.543px" viewBox="0 0 453.543 453.543" enable-background="new 0 0 453.543 453.543"
	 xml:space="preserve">
<g id="kvadrat">
</g>
<g id="bg" display="none">
	<rect x="-5425.085" y="-4826.985" display="inline" width="15266.867" height="13678.951"/>
</g>
<g id="barvno" display="none">
	<g id="rdeča7bela" display="inline">
	</g>
	<g display="inline">
		<g>
			
				<path fill="#39A935" stroke="#000000" stroke-width="8" stroke-linecap="round" stroke-linejoin="round" stroke-miterlimit="10" d="
				M224.772,293.701c0,0-24.748-20.338-41.485-52.584c-16.739-32.247-19.129-64.19-19.129-64.19s24.748,20.338,41.486,52.584
				C222.382,261.757,224.772,293.701,224.772,293.701z"/>
			
				<path fill="#39A935" stroke="#000000" stroke-width="8" stroke-linecap="round" stroke-linejoin="round" stroke-miterlimit="10" d="
				M247.899,229.511c16.739-32.247,41.486-52.584,41.486-52.584s-2.391,31.943-19.129,64.19
				c-16.738,32.246-41.486,52.584-41.486,52.584S231.161,261.757,247.899,229.511z"/>
			
				<line fill="#FFCF00" stroke="#000000" stroke-width="8" stroke-linecap="round" stroke-linejoin="round" stroke-miterlimit="10" x1="226.772" y1="183.654" x2="226.772" y2="293.701"/>
			
				<path fill="#E5332A" stroke="#000000" stroke-width="8" stroke-linecap="round" stroke-linejoin="round" stroke-miterlimit="10" d="
				M241.458,112.198l-13.525-23.777l-13.671,23.648l-24.873-23.813c0,0-0.239,51.681-0.263,56.544
				c-0.096,20.467,15.483,37.293,35.555,38.854l6.715-0.04c19.606-1.844,34.828-18.325,34.923-38.452
				c0.021-4.864,0.259-56.545,0.259-56.545L241.458,112.198z"/>
		</g>
		<g>
			
				<polygon fill="#AB5C2E" stroke="#000000" stroke-width="8" stroke-linecap="round" stroke-linejoin="round" stroke-miterlimit="10" points="
				268.859,365.287 184.677,365.287 150.643,242.338 302.904,242.338 			"/>
			
				<rect x="146.514" y="242.338" fill="#BF6735" stroke="#000000" stroke-width="8" stroke-linecap="round" stroke-linejoin="round" stroke-miterlimit="10" width="160.516" height="19.647"/>
		</g>
	</g>
	
		<rect x="-5935.371" y="-5246.994" display="inline" fill="none" stroke="#000000" stroke-miterlimit="10" width="16736" height="13952"/>
</g>
<g id="sivinsko">
	<g id="rdeča7bela_copy_3">
	</g>
	<g>
		<g>
			<g>
				<path fill="#7B7B7B" d="M224.772,293.701c0,0-24.748-20.338-41.485-52.584c-16.739-32.247-19.129-64.19-19.129-64.19
					s24.748,20.338,41.486,52.584C222.382,261.757,224.772,293.701,224.772,293.701z"/>
				<path d="M224.772,297.701c-0.908,0-1.809-0.309-2.54-0.91c-1.037-0.852-25.575-21.233-42.496-53.832
					c-16.921-32.599-19.468-64.396-19.568-65.734c-0.12-1.597,0.725-3.111,2.146-3.849c1.42-0.738,3.145-0.557,4.382,0.46
					c1.037,0.852,25.576,21.233,42.497,53.832c16.067,30.951,19.173,61.18,19.532,65.302c0.043,0.237,0.066,0.481,0.066,0.73
					c0,2.209-1.791,4-4,4C224.785,297.701,224.779,297.701,224.772,297.701z M169.663,187.533
					c2.09,11.875,6.845,31.842,17.174,51.741c10.329,19.899,23.921,35.277,32.43,43.821c-2.09-11.875-6.844-31.842-17.174-51.741
					C191.764,211.455,178.171,196.076,169.663,187.533z"/>
			</g>
			<g>
				<path fill="#7B7B7B" d="M247.899,229.511c16.739-32.247,41.486-52.584,41.486-52.584s-2.391,31.943-19.129,64.19
					c-16.738,32.246-41.486,52.584-41.486,52.584S231.161,261.757,247.899,229.511z"/>
				<path d="M228.77,297.701c-0.629,0-1.261-0.148-1.842-0.45c-1.421-0.738-2.266-2.252-2.146-3.849
					c0.1-1.338,2.646-33.135,19.567-65.734c16.922-32.599,41.46-52.98,42.497-53.832c1.238-1.017,2.961-1.197,4.382-0.46
					c1.421,0.738,2.266,2.252,2.146,3.849c-0.1,1.337-2.647,33.135-19.567,65.734c-16.921,32.599-41.46,52.98-42.497,53.832
					C230.579,297.392,229.678,297.701,228.77,297.701z M283.888,187.525c-8.508,8.542-22.106,23.924-32.438,43.829
					c-10.351,19.94-15.099,39.889-17.182,51.749c8.508-8.542,22.107-23.924,32.438-43.829
					C277.057,219.333,281.805,199.386,283.888,187.525z"/>
			</g>
			<g>
				<line fill="#C7C7C7" x1="226.772" y1="183.654" x2="226.772" y2="293.701"/>
				<path d="M226.772,297.701c-2.209,0-4-1.791-4-4V183.654c0-2.209,1.791-4,4-4s4,1.791,4,4v110.047
					C230.772,295.91,228.981,297.701,226.772,297.701z"/>
			</g>
			<g>
				<path fill="#676767" d="M241.458,112.198l-13.525-23.777l-13.671,23.648l-24.873-23.813c0,0-0.239,51.681-0.263,56.544
					c-0.096,20.467,15.483,37.293,35.555,38.854l6.715-0.04c19.606-1.844,34.828-18.325,34.923-38.452
					c0.021-4.864,0.259-56.545,0.259-56.545L241.458,112.198z"/>
				<path d="M224.68,187.654c-0.104,0-0.208-0.004-0.311-0.012c-22.111-1.719-39.349-20.545-39.245-42.86
					c0.024-4.865,0.263-56.544,0.263-56.544c0.007-1.599,0.966-3.039,2.438-3.664c1.473-0.625,3.175-0.313,4.329,0.793l21.193,20.29
					l11.122-19.238c0.715-1.237,2.035-1.998,3.463-1.998c0.005,0,0.009,0,0.014,0c1.433,0.005,2.754,0.776,3.463,2.022
					l11.014,19.362L263.838,85.7c1.165-1.094,2.871-1.389,4.335-0.751c1.465,0.639,2.41,2.088,2.403,3.686
					c0,0-0.238,51.68-0.259,56.544c-0.104,22.125-16.676,40.36-38.548,42.417c-0.117,0.011-0.233,0.017-0.351,0.018l-6.715,0.04
					C224.696,187.654,224.688,187.654,224.68,187.654z M193.345,97.582c-0.07,15.117-0.203,43.684-0.22,47.238
					c-0.084,18.089,13.827,33.358,31.703,34.833l6.363-0.038c17.674-1.748,31.042-16.538,31.127-34.472
					c0.015-3.554,0.146-32.129,0.216-47.244l-18.338,17.216c-0.893,0.839-2.12,1.225-3.335,1.039
					c-1.212-0.183-2.273-0.912-2.88-1.977l-10.076-17.714l-10.18,17.609c-0.614,1.063-1.683,1.785-2.899,1.958
					c-1.216,0.172-2.443-0.222-3.33-1.071L193.345,97.582z"/>
			</g>
		</g>
		<g>
			<g>
				<polygon fill="#6F6F6F" points="268.859,365.287 184.677,365.287 150.643,242.338 302.904,242.338 				"/>
				<path d="M268.859,369.287h-84.183c-1.798,0-3.375-1.2-3.855-2.933l-34.034-122.949c-0.333-1.204-0.085-2.495,0.671-3.489
					c0.757-0.994,1.934-1.578,3.184-1.578h152.261c1.25,0,2.427,0.584,3.184,1.578c0.756,0.995,1.005,2.285,0.671,3.489
					l-34.044,122.949C272.234,368.087,270.657,369.287,268.859,369.287z M187.72,361.287h78.097l31.829-114.949H155.901
					L187.72,361.287z"/>
			</g>
			<g>
				<rect x="146.514" y="242.338" fill="#7C7C7C" width="160.516" height="19.647"/>
				<path d="M307.029,265.985H146.514c-2.209,0-4-1.791-4-4v-19.647c0-2.209,1.791-4,4-4h160.516c2.209,0,4,1.791,4,4v19.647
					C311.029,264.194,309.238,265.985,307.029,265.985z M150.514,257.985h152.516v-11.647H150.514V257.985z"/>
			</g>
		</g>
	</g>
	<path d="M10801.129,8705.506h-16737v-13953h16737V8705.506z M-5935.371,8704.506h16736l-0.5-13951h-16735.5l0.5,13951H-5935.371z"
		/>
</g>
<g id="linijsko" display="none">
	<g id="rdeča7bela_copy" display="inline">
	</g>
	<g display="inline">
		<path fill="none" stroke="#000000" stroke-width="8" stroke-linecap="round" stroke-linejoin="round" stroke-miterlimit="10" d="
			M183.937,242.338c-0.216-0.408-0.437-0.81-0.65-1.221c-16.739-32.247-19.129-64.19-19.129-64.19s24.748,20.338,41.486,52.584
			c2.236,4.307,4.208,8.606,5.96,12.827"/>
		<path fill="none" stroke="#000000" stroke-width="8" stroke-linecap="round" stroke-linejoin="round" stroke-miterlimit="10" d="
			M269.606,242.338c0.216-0.408,0.437-0.81,0.65-1.221c16.738-32.247,19.129-64.19,19.129-64.19s-24.748,20.338-41.486,52.584
			c-2.236,4.307-4.208,8.606-5.96,12.827"/>
		
			<line fill="none" stroke="#000000" stroke-width="8" stroke-linecap="round" stroke-linejoin="round" stroke-miterlimit="10" x1="226.772" y1="183.654" x2="226.772" y2="242.338"/>
		<path fill="none" stroke="#000000" stroke-width="8" stroke-linecap="round" stroke-linejoin="round" stroke-miterlimit="10" d="
			M224.68,183.654l6.715-0.04c19.606-1.844,34.828-18.325,34.923-38.452c0.021-4.864,0.259-56.545,0.259-56.545l-25.119,23.582
			l-13.525-23.777l-13.671,23.648l-24.873-23.813c0,0-0.239,51.681-0.263,56.544C189.029,165.268,204.608,182.093,224.68,183.654z"
			/>
		
			<line fill="none" stroke="#000000" stroke-width="8" stroke-linecap="round" stroke-linejoin="round" stroke-miterlimit="10" x1="241.939" y1="242.338" x2="226.772" y2="242.338"/>
		
			<line fill="none" stroke="#000000" stroke-width="8" stroke-linecap="round" stroke-linejoin="round" stroke-miterlimit="10" x1="183.937" y1="242.338" x2="211.604" y2="242.338"/>
		
			<line fill="none" stroke="#000000" stroke-width="8" stroke-linecap="round" stroke-linejoin="round" stroke-miterlimit="10" x1="226.772" y1="242.338" x2="211.604" y2="242.338"/>
		
			<line fill="none" stroke="#000000" stroke-width="8" stroke-linecap="round" stroke-linejoin="round" stroke-miterlimit="10" x1="241.939" y1="242.338" x2="269.606" y2="242.338"/>
		
			<polygon fill="none" stroke="#000000" stroke-width="8" stroke-linecap="round" stroke-linejoin="round" stroke-miterlimit="10" points="
			156.082,261.985 184.677,365.287 268.859,365.287 297.463,261.985 		"/>
		<g>
			
				<rect x="146.514" y="242.338" fill="none" stroke="#000000" stroke-width="8" stroke-linecap="round" stroke-linejoin="round" stroke-miterlimit="10" width="160.516" height="19.647"/>
		</g>
	</g>
</g>
<g id="pivot">
	<circle fill="none" cx="227.472" cy="355.916" r="14.133"/>
</g>
</svg>
