<?xml version="1.0" encoding="utf-8"?>
<!-- Generator: Adobe Illustrator 16.0.0, SVG Export Plug-In . SVG Version: 6.00 Build 0)  -->
<!DOCTYPE svg PUBLIC "-//W3C//DTD SVG 1.1//EN" "http://www.w3.org/Graphics/SVG/1.1/DTD/svg11.dtd">
<svg version="1.1" xmlns="http://www.w3.org/2000/svg" xmlns:xlink="http://www.w3.org/1999/xlink" x="0px" y="0px"
	 width="453.544px" height="453.543px" viewBox="0 0 453.544 453.543" enable-background="new 0 0 453.544 453.543"
	 xml:space="preserve">
<g id="kvadrat">
</g>
<g id="bg" display="none">
	<rect x="-8996.739" y="-4826.985" display="inline" width="15266.867" height="13678.951"/>
</g>
<g id="barvno" display="none">
	<g id="rdeča7bela" display="inline">
	</g>
	<g display="inline">
		<g>
			
				<path fill="#2D2E82" stroke="#000000" stroke-width="8" stroke-linecap="round" stroke-linejoin="round" stroke-miterlimit="10" d="
				M223.104,177.978c0,0-16.808-19.191-15.789-41.889c1.018-22.698,19.477-40.308,19.477-40.308s16.809,19.191,15.79,41.89
				C241.564,160.368,223.104,177.978,223.104,177.978z"/>
			
				<path fill="#39A935" stroke="#000000" stroke-width="8" stroke-linecap="round" stroke-linejoin="round" stroke-miterlimit="10" d="
				M223.165,288.167c0,0-31.197-10.41-44.616-36.263c-13.419-25.854-3.979-57.356-3.979-57.356s31.195,10.41,44.615,36.264
				C232.604,256.663,223.165,288.167,223.165,288.167z"/>
			
				<path fill="#39A935" stroke="#000000" stroke-width="8" stroke-linecap="round" stroke-linejoin="round" stroke-miterlimit="10" d="
				M234.069,288.167c0,0,31.197-10.41,44.616-36.263c13.419-25.854,3.979-57.356,3.979-57.356s-31.196,10.41-44.615,36.264
				C224.63,256.663,234.069,288.167,234.069,288.167z"/>
			
				<line fill="#FFCF00" stroke="#000000" stroke-width="8" stroke-linecap="round" stroke-linejoin="round" stroke-miterlimit="10" x1="226.772" y1="176.13" x2="226.772" y2="286.177"/>
			
				<path fill="#0073B3" stroke="#000000" stroke-width="8" stroke-linecap="round" stroke-linejoin="round" stroke-miterlimit="10" d="
				M224.239,178.518c0,0-24.152-8.215-34.619-28.381c-10.468-20.166-3.287-44.646-3.287-44.646s24.153,8.215,34.619,28.383
				C231.421,154.038,224.239,178.518,224.239,178.518z"/>
			
				<path fill="#0073B3" stroke="#000000" stroke-width="8" stroke-linecap="round" stroke-linejoin="round" stroke-miterlimit="10" d="
				M223.527,177.482c0,0-4.961-25.024,7.27-44.171c12.23-19.148,37.02-25.17,37.02-25.17s4.963,25.024-7.27,44.173
				C248.318,171.461,223.527,177.482,223.527,177.482z"/>
			
				<path fill="#57B2E5" stroke="#000000" stroke-width="8" stroke-linecap="round" stroke-linejoin="round" stroke-miterlimit="10" d="
				M224.142,177.265c0,0,8.216-24.152,28.38-34.619c20.166-10.468,44.646-3.287,44.646-3.287s-8.216,24.152-28.384,34.619
				C248.622,184.445,224.142,177.265,224.142,177.265z"/>
			
				<path fill="#57B2E5" stroke="#000000" stroke-width="8" stroke-linecap="round" stroke-linejoin="round" stroke-miterlimit="10" d="
				M224.239,178.518c0,0-25.023,4.961-44.172-7.269s-25.17-37.021-25.17-37.021s25.025-4.96,44.174,7.271
				C218.22,153.728,224.239,178.518,224.239,178.518z"/>
			
				<path fill="#39A935" stroke="#000000" stroke-width="8" stroke-linecap="round" stroke-linejoin="round" stroke-miterlimit="10" d="
				M226.175,255.036c0,0-11.529-11.76-11.634-26.365c-0.104-14.607,11.259-26.527,11.259-26.527s11.53,11.759,11.633,26.364
				C237.539,243.114,226.175,255.036,226.175,255.036z"/>
		</g>
		<g>
			
				<polygon fill="#AB5C2E" stroke="#000000" stroke-width="8" stroke-linecap="round" stroke-linejoin="round" stroke-miterlimit="10" points="
				268.861,357.763 184.678,357.763 150.645,234.814 302.904,234.814 			"/>
			
				<rect x="146.514" y="234.814" fill="#BF6735" stroke="#000000" stroke-width="8" stroke-linecap="round" stroke-linejoin="round" stroke-miterlimit="10" width="160.518" height="19.647"/>
		</g>
	</g>
	
		<rect x="-9507.024" y="-5246.994" display="inline" fill="none" stroke="#000000" stroke-miterlimit="10" width="16736" height="13952"/>
</g>
<g id="sivinsko">
	<g id="rdeča7bela_copy_3">
	</g>
	<g>
		<g>
			<g>
				<path fill="#373737" d="M223.104,177.978c0,0-16.808-19.191-15.789-41.889c1.018-22.698,19.477-40.308,19.477-40.308
					s16.809,19.191,15.79,41.89C241.564,160.368,223.104,177.978,223.104,177.978z"/>
				<path d="M223.104,181.978c-0.06,0-0.119-0.001-0.18-0.004c-1.089-0.049-2.111-0.541-2.829-1.361
					c-0.729-0.833-17.854-20.677-16.776-44.703c1.077-24.027,19.91-42.259,20.712-43.023c0.789-0.753,1.847-1.145,2.939-1.102
					c1.09,0.049,2.112,0.541,2.83,1.361c0.729,0.833,17.855,20.677,16.777,44.705c-1.076,24.026-19.911,42.257-20.713,43.022
					C225.119,181.583,224.13,181.978,223.104,181.978z M226.519,101.981c-5.008,5.875-14.521,18.965-15.208,34.287
					c-0.688,15.314,7.607,29.197,12.071,35.502c5.012-5.88,14.518-18.965,15.203-34.279
					C239.275,122.115,230.983,108.266,226.519,101.981z"/>
			</g>
			<g>
				<path fill="#7B7B7B" d="M223.165,288.167c0,0-31.197-10.41-44.616-36.263c-13.419-25.854-3.979-57.356-3.979-57.356
					s31.195,10.41,44.615,36.264C232.604,256.663,223.165,288.167,223.165,288.167z"/>
				<path d="M223.165,292.167c-0.427,0-0.854-0.068-1.267-0.206c-1.336-0.446-32.896-11.233-46.899-38.215
					c-14.005-26.982-4.666-58.998-4.262-60.347c0.311-1.037,1.028-1.904,1.989-2.402c0.962-0.499,2.081-0.587,3.109-0.244
					c1.336,0.446,32.894,11.233,46.898,38.215c14.006,26.979,4.667,58.997,4.263,60.347c-0.311,1.037-1.028,1.904-1.989,2.402
					C224.433,292.016,223.801,292.167,223.165,292.167z M177.382,199.958c-1.901,9.165-4.977,31.427,4.717,50.104
					c9.721,18.728,29.665,28.991,38.253,32.696c1.903-9.168,4.977-31.43-4.717-50.104
					C205.913,213.926,185.97,203.663,177.382,199.958z"/>
			</g>
			<g>
				<path fill="#7B7B7B" d="M234.069,288.167c0,0,31.197-10.41,44.616-36.263c13.419-25.854,3.979-57.356,3.979-57.356
					s-31.196,10.41-44.615,36.264C224.63,256.663,234.069,288.167,234.069,288.167z"/>
				<path d="M234.069,292.167c-0.636,0-1.268-0.151-1.843-0.45c-0.961-0.499-1.679-1.365-1.989-2.402
					c-0.404-1.35-9.743-33.368,4.263-60.347c14.004-26.982,45.563-37.769,46.899-38.215c1.026-0.341,2.147-0.254,3.108,0.244
					c0.961,0.499,1.679,1.365,1.989,2.402c0.404,1.35,9.743,33.365-4.262,60.347c-14.004,26.981-45.563,37.769-46.899,38.215
					C234.923,292.099,234.496,292.167,234.069,292.167z M279.854,199.964c-8.595,3.721-28.563,14.019-38.254,32.69
					c-9.691,18.669-6.621,40.924-4.719,50.097c8.597-3.722,28.563-14.019,38.255-32.689
					C284.826,231.391,281.756,209.136,279.854,199.964z"/>
			</g>
			<g>
				<line fill="#C7C7C7" x1="226.772" y1="176.13" x2="226.772" y2="286.177"/>
				<path d="M226.772,290.177c-2.209,0-4-1.791-4-4V176.13c0-2.209,1.791-4,4-4s4,1.791,4,4v110.047
					C230.772,288.386,228.981,290.177,226.772,290.177z"/>
			</g>
			<g>
				<path fill="#585858" d="M224.239,178.518c0,0-24.152-8.215-34.619-28.381c-10.468-20.166-3.287-44.646-3.287-44.646
					s24.153,8.215,34.619,28.383C231.421,154.038,224.239,178.518,224.239,178.518z"/>
				<path d="M224.239,182.518c-0.434,0-0.869-0.071-1.288-0.213c-1.048-0.357-25.802-8.979-36.881-30.326
					c-11.081-21.347-3.888-46.552-3.575-47.614c0.307-1.046,1.027-1.922,1.995-2.424c0.969-0.502,2.099-0.586,3.131-0.237
					c1.048,0.357,25.803,8.979,36.882,30.328c11.081,21.344,3.887,46.55,3.574,47.612c-0.307,1.046-1.027,1.922-1.995,2.424
					C225.507,182.367,224.874,182.518,224.239,182.518z M189.195,111.006c-1.399,7.595-3.089,23.681,3.975,37.288
					c7.063,13.606,21.188,21.482,28.207,24.709c1.399-7.598,3.089-23.682-3.975-37.286
					C210.341,122.109,196.215,114.233,189.195,111.006z"/>
			</g>
			<g>
				<path fill="#585858" d="M223.527,177.482c0,0-4.961-25.024,7.27-44.171c12.23-19.148,37.02-25.17,37.02-25.17
					s4.963,25.024-7.27,44.173C248.318,171.461,223.527,177.482,223.527,177.482z"/>
				<path d="M223.527,181.482c-0.757,0-1.505-0.215-2.153-0.629c-0.919-0.587-1.559-1.523-1.771-2.593
					c-0.215-1.086-5.124-26.833,7.822-47.103c12.947-20.27,38.37-26.642,39.446-26.903c1.059-0.258,2.179-0.071,3.098,0.516
					c0.919,0.587,1.559,1.523,1.771,2.593c0.215,1.086,5.127,26.834-7.822,47.104c-12.944,20.269-38.37,26.641-39.446,26.902
					C224.159,181.445,223.843,181.482,223.527,181.482z M264.472,113.377c-7.276,2.586-22.051,9.166-30.304,22.087
					c-8.252,12.919-8.01,29.089-7.296,36.782c7.279-2.586,22.053-9.166,30.304-22.085
					C265.43,137.241,265.187,121.069,264.472,113.377z"/>
			</g>
			<g>
				<path fill="#9C9C9C" d="M224.142,177.265c0,0,8.216-24.152,28.38-34.619c20.166-10.468,44.646-3.287,44.646-3.287
					s-8.216,24.152-28.384,34.619C248.622,184.445,224.142,177.265,224.142,177.265z"/>
				<path d="M243.139,183.667c-11.253,0-19.766-2.459-20.123-2.564c-1.046-0.307-1.922-1.028-2.424-1.996
					c-0.503-0.968-0.588-2.099-0.237-3.131c0.356-1.048,8.979-25.801,30.324-36.881c7.848-4.074,17.097-6.139,27.491-6.139
					c11.254,0,19.768,2.459,20.124,2.564c1.046,0.307,1.922,1.028,2.424,1.996c0.503,0.968,0.588,2.099,0.237,3.131
					c-0.356,1.048-8.979,25.801-30.328,36.881C262.78,181.601,253.532,183.667,243.139,183.667z M229.645,174.407
					c3.24,0.603,8.028,1.26,13.494,1.26c9.098,0,17.105-1.763,23.803-5.24c13.666-7.093,21.515-21.204,24.724-28.211
					c-3.241-0.603-8.029-1.26-13.495-1.26c-9.099,0-17.107,1.763-23.806,5.24C240.701,153.288,232.854,167.399,229.645,174.407z"/>
			</g>
			<g>
				<path fill="#9C9C9C" d="M224.239,178.518c0,0-25.023,4.961-44.172-7.269s-25.17-37.021-25.17-37.021s25.025-4.96,44.174,7.271
					C218.22,153.728,224.239,178.518,224.239,178.518z"/>
				<path d="M211.955,183.514c-9.178,0-22.532-1.543-34.041-8.894c-20.27-12.947-26.643-38.373-26.903-39.448
					c-0.258-1.06-0.071-2.179,0.516-3.098s1.523-1.559,2.594-1.771c0.221-0.043,5.491-1.071,13.059-1.071
					c9.179,0,22.536,1.543,34.046,8.896c20.27,12.945,26.641,38.37,26.901,39.446c0.258,1.06,0.071,2.178-0.516,3.097
					s-1.523,1.558-2.594,1.771C224.796,182.485,219.523,183.514,211.955,183.514z M160.13,137.561
					c2.583,7.273,9.163,22.06,22.091,30.317c9.88,6.311,21.623,7.636,29.734,7.636c2.742,0,5.153-0.151,7.052-0.332
					c-2.584-7.273-9.162-22.057-22.089-30.312c-9.882-6.313-21.626-7.638-29.739-7.638
					C164.424,137.232,162.019,137.382,160.13,137.561z"/>
			</g>
			<g>
				<path fill="#7B7B7B" d="M226.175,255.036c0,0-11.529-11.76-11.634-26.365c-0.104-14.607,11.259-26.527,11.259-26.527
					s11.53,11.759,11.633,26.364C237.539,243.114,226.175,255.036,226.175,255.036z"/>
				<path d="M226.175,259.036c-1.074,0-2.104-0.432-2.856-1.2c-0.517-0.527-12.662-13.099-12.777-29.137
					c-0.113-16.041,11.854-28.781,12.363-29.316c0.748-0.785,1.783-1.232,2.867-1.24c1.053-0.008,2.125,0.425,2.885,1.2
					c0.517,0.527,12.664,13.098,12.776,29.136c0.117,16.04-11.853,28.782-12.362,29.317c-0.748,0.785-1.783,1.232-2.867,1.24
					C226.193,259.036,226.184,259.036,226.175,259.036z M225.853,208.474c-3.025,4.241-7.371,11.801-7.312,20.168
					c0.06,8.358,4.504,15.85,7.589,20.052c3.026-4.245,7.363-11.798,7.303-20.158C233.374,220.125,228.936,212.656,225.853,208.474z
					"/>
			</g>
		</g>
		<g>
			<g>
				<polygon fill="#ECECEC" points="268.861,357.763 184.678,357.763 150.645,234.814 302.904,234.814 				"/>
				<path d="M268.861,361.763h-84.184c-1.798,0-3.375-1.2-3.855-2.933l-34.033-122.949c-0.333-1.204-0.084-2.495,0.672-3.489
					c0.757-0.994,1.935-1.578,3.184-1.578h152.26c1.249,0,2.427,0.584,3.184,1.578c0.757,0.995,1.005,2.285,0.671,3.489
					L272.716,358.83C272.236,360.563,270.659,361.763,268.861,361.763z M187.721,353.763h78.098l31.828-114.949H155.902
					L187.721,353.763z"/>
			</g>
			<g>
				<rect x="146.514" y="234.814" fill="#7C7C7C" width="160.518" height="19.647"/>
				<path d="M307.031,258.461H146.514c-2.209,0-4-1.791-4-4v-19.647c0-2.209,1.791-4,4-4h160.518c2.209,0,4,1.791,4,4v19.647
					C311.031,256.67,309.24,258.461,307.031,258.461z M150.514,250.461h152.518v-11.647H150.514V250.461z"/>
			</g>
		</g>
	</g>
	<path d="M7229.476,8705.506h-16737v-13953h16737V8705.506z M-9507.024,8704.506h16736l-0.5-13951h-16735.5l0.5,13951H-9507.024z"/>
</g>
<g id="linijsko" display="none">
	<g id="rdeča7bela_copy" display="inline">
	</g>
	<g display="inline">
		<path fill="none" stroke="#000000" stroke-width="8" stroke-linecap="round" stroke-linejoin="round" stroke-miterlimit="10" d="
			M223.876,177.2c0.139-0.145,0.295-0.308,0.467-0.49"/>
		<path fill="none" stroke="#000000" stroke-width="8" stroke-linecap="round" stroke-linejoin="round" stroke-miterlimit="10" d="
			M240.708,122.16c-4.213-15.287-13.917-26.379-13.917-26.379s-10.52,10.042-16.112,24.73"/>
		<path fill="none" stroke="#000000" stroke-width="8" stroke-linecap="round" stroke-linejoin="round" stroke-miterlimit="10" d="
			M224.343,176.71c0.146-0.157,0.305-0.325,0.473-0.509"/>
		<path fill="none" stroke="#000000" stroke-width="8" stroke-linecap="round" stroke-linejoin="round" stroke-miterlimit="10" d="
			M223.876,177.2c-0.093,0.096-0.174,0.179-0.251,0.257"/>
		<path fill="none" stroke="#000000" stroke-width="8" stroke-linecap="round" stroke-linejoin="round" stroke-miterlimit="10" d="
			M214.916,223.854c-14.802-20.78-40.347-29.307-40.347-29.307s-5.812,19.413-1.822,40.266"/>
		<path fill="none" stroke="#000000" stroke-width="8" stroke-linecap="round" stroke-linejoin="round" stroke-miterlimit="10" d="
			M237.166,232.619c-0.345,0.729-0.671,1.46-0.983,2.195"/>
		<path fill="none" stroke="#000000" stroke-width="8" stroke-linecap="round" stroke-linejoin="round" stroke-miterlimit="10" d="
			M284.487,234.814c3.989-20.854-1.822-40.266-1.822-40.266s-31.196,10.41-44.615,36.264c-0.311,0.599-0.597,1.203-0.884,1.808"/>
		
			<line fill="none" stroke="#000000" stroke-width="8" stroke-linecap="round" stroke-linejoin="round" stroke-miterlimit="10" x1="226.772" y1="176.518" x2="226.772" y2="176.13"/>
		
			<line fill="none" stroke="#000000" stroke-width="8" stroke-linecap="round" stroke-linejoin="round" stroke-miterlimit="10" x1="226.772" y1="177.91" x2="226.772" y2="176.518"/>
		
			<line fill="none" stroke="#000000" stroke-width="8" stroke-linecap="round" stroke-linejoin="round" stroke-miterlimit="10" x1="226.772" y1="177.91" x2="226.772" y2="203.219"/>
		<path fill="none" stroke="#000000" stroke-width="8" stroke-linecap="round" stroke-linejoin="round" stroke-miterlimit="10" d="
			M224.583,177.195c0.071-0.29,0.148-0.617,0.232-0.995"/>
		<path fill="none" stroke="#000000" stroke-width="8" stroke-linecap="round" stroke-linejoin="round" stroke-miterlimit="10" d="
			M225.121,174.759c-0.106,0.529-0.21,1.016-0.306,1.442"/>
		<path fill="none" stroke="#000000" stroke-width="8" stroke-linecap="round" stroke-linejoin="round" stroke-miterlimit="10" d="
			M224.54,177.374c0.014-0.055,0.029-0.121,0.043-0.179"/>
		<path fill="none" stroke="#000000" stroke-width="8" stroke-linecap="round" stroke-linejoin="round" stroke-miterlimit="10" d="
			M224.239,178.518c0,0-24.152-8.215-34.619-28.381c-2.491-4.799-3.975-9.84-4.801-14.74"/>
		<path fill="none" stroke="#000000" stroke-width="8" stroke-linecap="round" stroke-linejoin="round" stroke-miterlimit="10" d="
			M224.239,178.518c0,0,0.118-0.405,0.301-1.144"/>
		<path fill="none" stroke="#000000" stroke-width="8" stroke-linecap="round" stroke-linejoin="round" stroke-miterlimit="10" d="
			M225.2,145.758c2.631,11.852,1.068,23.296-0.079,29"/>
		<path fill="none" stroke="#000000" stroke-width="8" stroke-linecap="round" stroke-linejoin="round" stroke-miterlimit="10" d="
			M184.819,135.396c-2.648-15.688,1.514-29.905,1.514-29.905s13.226,4.506,24.346,15.02"/>
		<path fill="none" stroke="#000000" stroke-width="8" stroke-linecap="round" stroke-linejoin="round" stroke-miterlimit="10" d="
			M225.2,145.758c-0.884-3.985-2.238-8.014-4.248-11.884c-2.721-5.242-6.368-9.67-10.273-13.363"/>
		<path fill="none" stroke="#000000" stroke-width="8" stroke-linecap="round" stroke-linejoin="round" stroke-miterlimit="10" d="
			M223.928,177.377c0.091-0.024,0.191-0.052,0.312-0.085"/>
		<path fill="none" stroke="#000000" stroke-width="8" stroke-linecap="round" stroke-linejoin="round" stroke-miterlimit="10" d="
			M223.928,177.377c-0.131,0.035-0.237,0.063-0.303,0.08"/>
		<path fill="none" stroke="#000000" stroke-width="8" stroke-linecap="round" stroke-linejoin="round" stroke-miterlimit="10" d="
			M224.239,177.292c0.105-0.029,0.217-0.061,0.344-0.097"/>
		<path fill="none" stroke="#000000" stroke-width="8" stroke-linecap="round" stroke-linejoin="round" stroke-miterlimit="10" d="
			M266.681,137.944c3.995-15.346,1.136-29.804,1.136-29.804s-14.75,3.591-27.108,14.02"/>
		<path fill="none" stroke="#000000" stroke-width="8" stroke-linecap="round" stroke-linejoin="round" stroke-miterlimit="10" d="
			M240.708,122.16c-3.662,3.09-7.115,6.773-9.911,11.15c-2.547,3.987-4.341,8.229-5.597,12.448"/>
		<path fill="none" stroke="#000000" stroke-width="8" stroke-linecap="round" stroke-linejoin="round" stroke-miterlimit="10" d="
			M266.681,137.944c-1.262,4.844-3.199,9.775-6.134,14.369c-9.521,14.907-26.652,21.856-33.774,24.204"/>
		<path fill="none" stroke="#000000" stroke-width="8" stroke-linecap="round" stroke-linejoin="round" stroke-miterlimit="10" d="
			M223.625,177.457c-0.06,0.016-0.098,0.025-0.098,0.025s-0.19-0.973-0.405-2.664"/>
		<path fill="none" stroke="#000000" stroke-width="8" stroke-linecap="round" stroke-linejoin="round" stroke-miterlimit="10" d="
			M226.772,176.518c-0.902,0.297-1.645,0.521-2.189,0.678"/>
		<path fill="none" stroke="#000000" stroke-width="8" stroke-linecap="round" stroke-linejoin="round" stroke-miterlimit="10" d="
			M224.239,177.292c-0.06-0.017-0.098-0.027-0.098-0.027s0.068-0.199,0.201-0.555"/>
		<path fill="none" stroke="#000000" stroke-width="8" stroke-linecap="round" stroke-linejoin="round" stroke-miterlimit="10" d="
			M224.54,177.374c0.424,0.113,1.184,0.306,2.232,0.536"/>
		<path fill="none" stroke="#000000" stroke-width="8" stroke-linecap="round" stroke-linejoin="round" stroke-miterlimit="10" d="
			M224.239,177.292c0.064,0.019,0.17,0.047,0.301,0.082"/>
		<path fill="none" stroke="#000000" stroke-width="8" stroke-linecap="round" stroke-linejoin="round" stroke-miterlimit="10" d="
			M266.681,137.944c15.917-2.852,30.487,1.414,30.487,1.414s-8.216,24.152-28.384,34.619c-16.198,8.409-35.173,5.43-42.012,3.933"/>
		<path fill="none" stroke="#000000" stroke-width="8" stroke-linecap="round" stroke-linejoin="round" stroke-miterlimit="10" d="
			M225.121,174.759c-0.36,0.856-0.619,1.523-0.778,1.951"/>
		<path fill="none" stroke="#000000" stroke-width="8" stroke-linecap="round" stroke-linejoin="round" stroke-miterlimit="10" d="
			M224.239,178.518c0,0-0.1-0.409-0.312-1.141"/>
		<path fill="none" stroke="#000000" stroke-width="8" stroke-linecap="round" stroke-linejoin="round" stroke-miterlimit="10" d="
			M223.876,177.2c-0.179-0.61-0.428-1.416-0.754-2.382"/>
		<path fill="none" stroke="#000000" stroke-width="8" stroke-linecap="round" stroke-linejoin="round" stroke-miterlimit="10" d="
			M184.819,135.396c-15.39-4.041-29.922-1.169-29.922-1.169s6.021,24.791,25.17,37.021s44.172,7.269,44.172,7.269"/>
		<path fill="none" stroke="#000000" stroke-width="8" stroke-linecap="round" stroke-linejoin="round" stroke-miterlimit="10" d="
			M223.928,177.377c-0.016-0.054-0.035-0.12-0.052-0.177"/>
		<path fill="none" stroke="#000000" stroke-width="8" stroke-linecap="round" stroke-linejoin="round" stroke-miterlimit="10" d="
			M214.916,223.854c1.942-12.322,10.884-21.711,10.884-21.711s0.371,0.379,0.973,1.076"/>
		<path fill="none" stroke="#000000" stroke-width="8" stroke-linecap="round" stroke-linejoin="round" stroke-miterlimit="10" d="
			M214.916,223.854c-0.247,1.563-0.387,3.171-0.375,4.816c0.015,2.118,0.276,4.173,0.702,6.144"/>
		<path fill="none" stroke="#000000" stroke-width="8" stroke-linecap="round" stroke-linejoin="round" stroke-miterlimit="10" d="
			M226.772,203.219c2.777,3.211,10.576,13.285,10.66,25.288c0.01,1.398-0.086,2.771-0.267,4.112"/>
		<path fill="none" stroke="#000000" stroke-width="8" stroke-linecap="round" stroke-linejoin="round" stroke-miterlimit="10" d="
			M236.79,234.814c0.148-0.721,0.276-1.452,0.376-2.195"/>
		
			<polyline fill="none" stroke="#000000" stroke-width="8" stroke-linecap="round" stroke-linejoin="round" stroke-miterlimit="10" points="
			156.083,254.461 184.678,357.763 268.861,357.763 297.464,254.461 		"/>
		
			<line fill="none" stroke="#000000" stroke-width="8" stroke-linecap="round" stroke-linejoin="round" stroke-miterlimit="10" x1="297.464" y1="254.461" x2="277.268" y2="254.461"/>
		
			<polyline fill="none" stroke="#000000" stroke-width="8" stroke-linecap="round" stroke-linejoin="round" stroke-miterlimit="10" points="
			297.464,254.461 307.031,254.461 307.031,234.814 302.904,234.814 		"/>
		
			<line fill="none" stroke="#000000" stroke-width="8" stroke-linecap="round" stroke-linejoin="round" stroke-miterlimit="10" x1="277.268" y1="254.461" x2="174.85" y2="254.461"/>
		
			<polyline fill="none" stroke="#000000" stroke-width="8" stroke-linecap="round" stroke-linejoin="round" stroke-miterlimit="10" points="
			150.645,234.814 146.514,234.814 146.514,254.461 156.083,254.461 		"/>
		
			<line fill="none" stroke="#000000" stroke-width="8" stroke-linecap="round" stroke-linejoin="round" stroke-miterlimit="10" x1="179.967" y1="254.461" x2="156.083" y2="254.461"/>
		
			<line fill="none" stroke="#000000" stroke-width="8" stroke-linecap="round" stroke-linejoin="round" stroke-miterlimit="10" x1="284.487" y1="234.814" x2="236.79" y2="234.814"/>
		
			<line fill="none" stroke="#000000" stroke-width="8" stroke-linecap="round" stroke-linejoin="round" stroke-miterlimit="10" x1="172.747" y1="234.814" x2="215.243" y2="234.814"/>
		
			<line fill="none" stroke="#000000" stroke-width="8" stroke-linecap="round" stroke-linejoin="round" stroke-miterlimit="10" x1="221.052" y1="234.814" x2="226.772" y2="234.814"/>
		
			<line fill="none" stroke="#000000" stroke-width="8" stroke-linecap="round" stroke-linejoin="round" stroke-miterlimit="10" x1="150.645" y1="234.814" x2="172.747" y2="234.814"/>
		
			<line fill="none" stroke="#000000" stroke-width="8" stroke-linecap="round" stroke-linejoin="round" stroke-miterlimit="10" x1="236.79" y1="234.814" x2="236.183" y2="234.814"/>
		
			<line fill="none" stroke="#000000" stroke-width="8" stroke-linecap="round" stroke-linejoin="round" stroke-miterlimit="10" x1="221.052" y1="234.814" x2="215.243" y2="234.814"/>
		
			<line fill="none" stroke="#000000" stroke-width="8" stroke-linecap="round" stroke-linejoin="round" stroke-miterlimit="10" x1="284.487" y1="234.814" x2="302.904" y2="234.814"/>
		
			<line fill="none" stroke="#000000" stroke-width="8" stroke-linecap="round" stroke-linejoin="round" stroke-miterlimit="10" x1="236.183" y1="234.814" x2="226.772" y2="234.814"/>
	</g>
</g>
<g id="pivot">
	<circle fill="none" cx="225.63" cy="355.916" r="14.133"/>
</g>
</svg>
