<?xml version="1.0" encoding="utf-8"?>
<!-- Generator: Adobe Illustrator 16.0.0, SVG Export Plug-In . SVG Version: 6.00 Build 0)  -->
<!DOCTYPE svg PUBLIC "-//W3C//DTD SVG 1.1//EN" "http://www.w3.org/Graphics/SVG/1.1/DTD/svg11.dtd">
<svg version="1.1" xmlns="http://www.w3.org/2000/svg" xmlns:xlink="http://www.w3.org/1999/xlink" x="0px" y="0px"
	 width="453.543px" height="453.543px" viewBox="0 0 453.543 453.543" enable-background="new 0 0 453.543 453.543"
	 xml:space="preserve">
<g id="kvadrat">
</g>
<g id="bg" display="none">
	<rect x="-5935.322" y="-4826.985" display="inline" width="15266.867" height="13678.951"/>
</g>
<g id="barvno" display="none">
	<g id="rdeča7bela" display="inline">
	</g>
	<g display="inline">
		<g>
			
				<path fill="#39A935" stroke="#000000" stroke-width="8" stroke-linecap="round" stroke-linejoin="round" stroke-miterlimit="10" d="
				M224.772,293.701c0,0-24.748-20.338-41.486-52.584c-16.738-32.247-19.129-64.19-19.129-64.19s24.748,20.338,41.486,52.584
				C222.382,261.757,224.772,293.701,224.772,293.701z"/>
			
				<path fill="#39A935" stroke="#000000" stroke-width="8" stroke-linecap="round" stroke-linejoin="round" stroke-miterlimit="10" d="
				M247.899,229.511c16.739-32.247,41.487-52.584,41.487-52.584s-2.391,31.943-19.129,64.19
				c-16.738,32.246-41.486,52.584-41.486,52.584S231.162,261.757,247.899,229.511z"/>
			
				<line fill="#FFCF00" stroke="#000000" stroke-width="8" stroke-linecap="round" stroke-linejoin="round" stroke-miterlimit="10" x1="226.772" y1="183.654" x2="226.772" y2="293.701"/>
			
				<path fill="#CB78A6" stroke="#000000" stroke-width="8" stroke-linecap="round" stroke-linejoin="round" stroke-miterlimit="10" d="
				M241.457,112.198l-13.524-23.777l-13.671,23.648l-24.873-23.813c0,0-0.239,51.681-0.264,56.544
				c-0.096,20.467,15.483,37.293,35.555,38.854l6.714-0.04c19.606-1.844,34.829-18.325,34.923-38.452
				c0.02-4.864,0.259-56.545,0.259-56.545L241.457,112.198z"/>
		</g>
		<g>
			
				<polygon fill="#AB5C2E" stroke="#000000" stroke-width="8" stroke-linecap="round" stroke-linejoin="round" stroke-miterlimit="10" points="
				285.86,365.287 167.677,365.287 150.644,242.338 302.904,242.338 			"/>
			
				<rect x="146.514" y="242.338" fill="#BF6735" stroke="#000000" stroke-width="8" stroke-linecap="round" stroke-linejoin="round" stroke-miterlimit="10" width="160.516" height="19.647"/>
		</g>
	</g>
	
		<rect x="-6445.607" y="-5246.994" display="inline" fill="none" stroke="#000000" stroke-miterlimit="10" width="16736" height="13952"/>
</g>
<g id="sivinsko">
	<g id="rdeča7bela_copy_3">
	</g>
	<g>
		<g>
			<g>
				<path fill="#7B7B7B" d="M224.772,293.701c0,0-24.748-20.338-41.486-52.584c-16.738-32.247-19.129-64.19-19.129-64.19
					s24.748,20.338,41.486,52.584C222.382,261.757,224.772,293.701,224.772,293.701z"/>
				<path d="M224.773,297.701c-0.908,0-1.809-0.309-2.54-0.91c-1.037-0.852-25.575-21.233-42.497-53.832
					c-16.921-32.599-19.467-64.396-19.567-65.734c-0.12-1.597,0.725-3.111,2.146-3.849c1.419-0.738,3.145-0.557,4.382,0.46
					c1.037,0.852,25.575,21.233,42.497,53.832c16.066,30.951,19.173,61.18,19.532,65.302c0.043,0.237,0.066,0.481,0.066,0.73
					c0,2.209-1.791,4-4,4C224.785,297.701,224.779,297.701,224.773,297.701z M169.661,187.522
					c2.089,11.874,6.844,31.847,17.176,51.752c10.35,19.94,23.932,35.303,32.432,43.832c-2.089-11.874-6.843-31.847-17.176-51.751
					C191.743,211.414,178.162,196.051,169.661,187.522z"/>
			</g>
			<g>
				<path fill="#7B7B7B" d="M247.899,229.511c16.739-32.247,41.487-52.584,41.487-52.584s-2.391,31.943-19.129,64.19
					c-16.738,32.246-41.486,52.584-41.486,52.584S231.162,261.757,247.899,229.511z"/>
				<path d="M228.771,297.701c-0.629,0-1.261-0.148-1.842-0.45c-1.421-0.738-2.266-2.252-2.146-3.849
					c0.1-1.338,2.646-33.135,19.567-65.734c16.922-32.599,41.461-52.98,42.498-53.832c1.237-1.017,2.961-1.197,4.382-0.46
					c1.421,0.738,2.266,2.252,2.146,3.849c-0.1,1.337-2.647,33.135-19.567,65.734c-16.921,32.599-41.46,52.98-42.497,53.832
					C230.58,297.392,229.678,297.701,228.771,297.701z M283.889,187.525c-8.508,8.542-22.106,23.924-32.439,43.829
					c-10.35,19.94-15.098,39.888-17.181,51.749c8.508-8.542,22.106-23.924,32.438-43.829
					C277.057,219.333,281.805,199.385,283.889,187.525z"/>
			</g>
			<g>
				<line fill="#C7C7C7" x1="226.772" y1="183.654" x2="226.772" y2="293.701"/>
				<path d="M226.772,297.701c-2.209,0-4-1.791-4-4V183.654c0-2.209,1.791-4,4-4s4,1.791,4,4v110.047
					C230.772,295.91,228.981,297.701,226.772,297.701z"/>
			</g>
			<g>
				<path fill="#ECECEC" d="M241.457,112.198l-13.524-23.777l-13.671,23.648l-24.873-23.813c0,0-0.239,51.681-0.264,56.544
					c-0.096,20.467,15.483,37.293,35.555,38.854l6.714-0.04c19.606-1.844,34.829-18.325,34.923-38.452
					c0.02-4.864,0.259-56.545,0.259-56.545L241.457,112.198z"/>
				<path d="M224.681,187.654c-0.104,0-0.208-0.004-0.311-0.012c-22.111-1.719-39.35-20.545-39.245-42.86
					c0.024-4.865,0.264-56.544,0.264-56.544c0.007-1.599,0.966-3.04,2.438-3.664c1.473-0.625,3.174-0.313,4.329,0.793l21.193,20.29
					l11.122-19.238c0.715-1.237,2.035-1.998,3.463-1.998c0.005,0,0.009,0,0.014,0c1.433,0.005,2.754,0.776,3.463,2.022
					l11.013,19.361L263.839,85.7c1.165-1.093,2.871-1.389,4.335-0.75c1.465,0.638,2.41,2.087,2.403,3.686
					c0,0-0.239,51.68-0.259,56.543c-0.104,22.125-16.676,40.36-38.548,42.418c-0.117,0.011-0.233,0.017-0.351,0.018l-6.714,0.04
					C224.696,187.654,224.688,187.654,224.681,187.654z M193.346,97.583c-0.07,15.117-0.203,43.683-0.221,47.238
					c-0.084,18.089,13.827,33.358,31.703,34.833l6.362-0.038c17.674-1.748,31.043-16.538,31.127-34.472
					c0.015-3.554,0.146-32.13,0.216-47.245l-18.339,17.217c-0.894,0.838-2.121,1.225-3.335,1.039
					c-1.212-0.183-2.273-0.912-2.88-1.978l-10.076-17.714l-10.18,17.609c-0.615,1.063-1.683,1.785-2.899,1.958
					c-1.215,0.172-2.444-0.222-3.33-1.071L193.346,97.583z"/>
			</g>
		</g>
		<g>
			<g>
				<polygon fill="#6F6F6F" points="285.86,365.287 167.677,365.287 150.644,242.338 302.904,242.338 				"/>
				<path d="M285.86,369.287H167.677c-1.997,0-3.688-1.473-3.962-3.451l-17.034-122.949c-0.159-1.146,0.187-2.304,0.946-3.176
					c0.759-0.872,1.859-1.373,3.016-1.373h152.26c1.157,0,2.257,0.5,3.017,1.373c0.759,0.872,1.104,2.03,0.945,3.176
					l-17.044,122.949C289.548,367.814,287.857,369.287,285.86,369.287z M171.161,361.287h111.215l15.935-114.949H155.236
					L171.161,361.287z"/>
			</g>
			<g>
				<rect x="146.514" y="242.338" fill="#7C7C7C" width="160.516" height="19.647"/>
				<path d="M307.03,265.985H146.514c-2.209,0-4-1.791-4-4v-19.647c0-2.209,1.791-4,4-4H307.03c2.209,0,4,1.791,4,4v19.647
					C311.03,264.194,309.239,265.985,307.03,265.985z M150.514,257.985H303.03v-11.647H150.514V257.985z"/>
			</g>
		</g>
	</g>
	<path d="M10290.893,8705.506h-16737v-13953h16737V8705.506z M-6445.607,8704.506h16736l-0.5-13951h-16735.5l0.5,13951H-6445.607z"
		/>
</g>
<g id="linijsko" display="none">
	<g id="rdeča7bela_copy" display="inline">
	</g>
	<g display="inline">
		<path fill="none" stroke="#000000" stroke-width="8" stroke-linecap="round" stroke-linejoin="round" stroke-miterlimit="10" d="
			M183.937,242.338c-0.216-0.408-0.437-0.81-0.65-1.221c-16.738-32.247-19.129-64.19-19.129-64.19s24.748,20.338,41.486,52.584
			c2.236,4.307,4.208,8.606,5.96,12.827"/>
		<path fill="none" stroke="#000000" stroke-width="8" stroke-linecap="round" stroke-linejoin="round" stroke-miterlimit="10" d="
			M269.607,242.338c0.216-0.408,0.437-0.81,0.65-1.221c16.738-32.247,19.129-64.19,19.129-64.19s-24.748,20.338-41.487,52.584
			c-2.236,4.307-4.208,8.606-5.96,12.827"/>
		
			<line fill="none" stroke="#000000" stroke-width="8" stroke-linecap="round" stroke-linejoin="round" stroke-miterlimit="10" x1="226.772" y1="183.654" x2="226.772" y2="242.338"/>
		<path fill="none" stroke="#000000" stroke-width="8" stroke-linecap="round" stroke-linejoin="round" stroke-miterlimit="10" d="
			M224.68,183.654l6.714-0.04c19.606-1.844,34.829-18.325,34.923-38.452c0.02-4.864,0.259-56.545,0.259-56.545l-25.12,23.582
			l-13.524-23.777l-13.671,23.648l-24.873-23.813c0,0-0.239,51.681-0.264,56.544C189.029,165.268,204.608,182.093,224.68,183.654z"
			/>
		
			<line fill="none" stroke="#000000" stroke-width="8" stroke-linecap="round" stroke-linejoin="round" stroke-miterlimit="10" x1="241.939" y1="242.338" x2="269.607" y2="242.338"/>
		
			<line fill="none" stroke="#000000" stroke-width="8" stroke-linecap="round" stroke-linejoin="round" stroke-miterlimit="10" x1="241.939" y1="242.338" x2="226.772" y2="242.338"/>
		
			<line fill="none" stroke="#000000" stroke-width="8" stroke-linecap="round" stroke-linejoin="round" stroke-miterlimit="10" x1="183.937" y1="242.338" x2="211.604" y2="242.338"/>
		
			<line fill="none" stroke="#000000" stroke-width="8" stroke-linecap="round" stroke-linejoin="round" stroke-miterlimit="10" x1="226.772" y1="242.338" x2="211.604" y2="242.338"/>
		
			<polygon fill="none" stroke="#000000" stroke-width="8" stroke-linecap="round" stroke-linejoin="round" stroke-miterlimit="10" points="
			153.366,261.985 167.677,365.287 285.86,365.287 300.18,261.985 		"/>
		<g>
			
				<rect x="146.514" y="242.338" fill="none" stroke="#000000" stroke-width="8" stroke-linecap="round" stroke-linejoin="round" stroke-miterlimit="10" width="160.516" height="19.647"/>
		</g>
	</g>
</g>
<g id="pivot">
	<circle fill="none" cx="226.495" cy="355.916" r="14.133"/>
</g>
</svg>
