<?xml version="1.0" encoding="utf-8"?>
<!-- Generator: Adobe Illustrator 16.0.0, SVG Export Plug-In . SVG Version: 6.00 Build 0)  -->
<!DOCTYPE svg PUBLIC "-//W3C//DTD SVG 1.1//EN" "http://www.w3.org/Graphics/SVG/1.1/DTD/svg11.dtd">
<svg version="1.1" xmlns="http://www.w3.org/2000/svg" xmlns:xlink="http://www.w3.org/1999/xlink" x="0px" y="0px"
	 width="453.543px" height="453.543px" viewBox="0 0 453.543 453.543" enable-background="new 0 0 453.543 453.543"
	 xml:space="preserve">
<g id="kvadrat">
</g>
<g id="bg" display="none">
	<rect x="-4914.849" y="-4826.985" display="inline" width="15266.867" height="13678.951"/>
</g>
<g id="barvno" display="none">
	<g id="rdeča7bela" display="inline">
	</g>
	<g display="inline">
		
			<rect x="209.813" y="253.361" fill="#7E4E24" stroke="#000000" stroke-width="8" stroke-linecap="round" stroke-linejoin="round" stroke-miterlimit="10" width="33.917" height="139.719"/>
		
			<circle fill="#93C01F" stroke="#000000" stroke-width="8" stroke-linecap="round" stroke-linejoin="round" stroke-miterlimit="10" cx="226.772" cy="165.634" r="105.17"/>
		
			<line fill="#93C01F" stroke="#000000" stroke-width="8" stroke-linecap="round" stroke-linejoin="round" stroke-miterlimit="10" x1="240.491" y1="236.581" x2="287.125" y2="187.432"/>
		
			<line fill="#93C01F" stroke="#000000" stroke-width="8" stroke-linecap="round" stroke-linejoin="round" stroke-miterlimit="10" x1="234.013" y1="268.821" x2="245.287" y2="193.309"/>
		
			<line fill="#93C01F" stroke="#000000" stroke-width="8" stroke-linecap="round" stroke-linejoin="round" stroke-miterlimit="10" x1="236" y1="147.389" x2="209.931" y2="200.067"/>
		
			<line fill="#93C01F" stroke="#000000" stroke-width="8" stroke-linecap="round" stroke-linejoin="round" stroke-miterlimit="10" x1="213.452" y1="236.581" x2="164.231" y2="193.309"/>
		
			<line fill="#93C01F" stroke="#000000" stroke-width="8" stroke-linecap="round" stroke-linejoin="round" stroke-miterlimit="10" x1="218.93" y1="268.821" x2="201.507" y2="137.545"/>
	</g>
	
		<rect x="-5425.134" y="-5246.994" display="inline" fill="none" stroke="#000000" stroke-miterlimit="10" width="16736" height="13952"/>
</g>
<g id="sivinsko">
	<g id="rdeča7bela_copy_3">
	</g>
	<g>
		<g>
			<rect x="209.813" y="253.361" fill="#585858" width="33.917" height="139.719"/>
			<path d="M243.73,397.08h-33.917c-2.209,0-4-1.791-4-4V253.361c0-2.209,1.791-4,4-4h33.917c2.209,0,4,1.791,4,4V393.08
				C247.73,395.289,245.939,397.08,243.73,397.08z M213.813,389.08h25.917V257.361h-25.917V389.08z"/>
		</g>
		<g>
			<circle fill="#A1A1A1" cx="226.772" cy="165.634" r="105.17"/>
			<path d="M226.772,274.804c-60.196,0-109.17-48.973-109.17-109.169c0-60.197,48.974-109.17,109.17-109.17
				s109.17,48.974,109.17,109.17C335.942,225.831,286.968,274.804,226.772,274.804z M226.772,64.464
				c-55.785,0-101.17,45.385-101.17,101.17c0,55.785,45.385,101.169,101.17,101.169s101.17-45.384,101.17-101.169
				C327.942,109.849,282.557,64.464,226.772,64.464z"/>
		</g>
		<g>
			<line fill="#A1A1A1" x1="240.491" y1="236.581" x2="287.125" y2="187.432"/>
			<path d="M240.49,240.581c-0.989,0-1.979-0.364-2.753-1.098c-1.603-1.521-1.669-4.053-0.148-5.655l46.635-49.148
				c1.521-1.603,4.053-1.668,5.655-0.148c1.603,1.521,1.669,4.053,0.148,5.655l-46.635,49.148
				C242.606,240.163,241.549,240.581,240.49,240.581z"/>
		</g>
		<g>
			<line fill="#A1A1A1" x1="234.013" y1="268.821" x2="245.287" y2="193.309"/>
			<path d="M234.018,272.821c-0.196,0-0.395-0.015-0.596-0.044c-2.185-0.326-3.691-2.362-3.365-4.547l11.273-75.512
				c0.326-2.185,2.354-3.689,4.547-3.365c2.185,0.326,3.691,2.362,3.365,4.547l-11.273,75.512
				C237.673,271.396,235.966,272.821,234.018,272.821z"/>
		</g>
		<g>
			<line fill="#A1A1A1" x1="236" y1="147.389" x2="209.931" y2="200.067"/>
			<path d="M209.928,204.068c-0.596,0-1.201-0.134-1.771-0.416c-1.98-0.979-2.791-3.379-1.811-5.359l26.068-52.678
				c0.98-1.98,3.38-2.791,5.359-1.811c1.98,0.979,2.791,3.379,1.811,5.359l-26.068,52.678
				C212.818,203.25,211.401,204.068,209.928,204.068z"/>
		</g>
		<g>
			<line fill="#A1A1A1" x1="213.452" y1="236.581" x2="164.231" y2="193.309"/>
			<path d="M213.45,240.581c-0.938,0-1.88-0.328-2.64-0.996l-49.221-43.272c-1.659-1.458-1.822-3.986-0.363-5.645
				c1.458-1.659,3.986-1.822,5.645-0.363l49.221,43.272c1.659,1.458,1.822,3.986,0.363,5.645
				C215.665,240.121,214.561,240.581,213.45,240.581z"/>
		</g>
		<g>
			<line fill="#A1A1A1" x1="218.93" y1="268.821" x2="201.507" y2="137.545"/>
			<path d="M218.925,272.821c-1.976,0-3.693-1.463-3.96-3.474l-17.423-131.276c-0.291-2.19,1.249-4.201,3.439-4.492
				c2.19-0.286,4.201,1.249,4.492,3.439l17.423,131.276c0.291,2.19-1.249,4.201-3.439,4.492
				C219.278,272.81,219.101,272.821,218.925,272.821z"/>
		</g>
	</g>
	<path d="M11311.365,8705.506h-16737v-13953h16737V8705.506z M-5425.134,8704.506h16736l-0.5-13951h-16735.5l0.5,13951H-5425.134z"
		/>
</g>
<g id="linijsko" display="none">
	<g id="rdeča7bela_copy" display="inline">
	</g>
	<g display="inline">
		<path fill="none" stroke="#000000" stroke-width="8" stroke-linecap="round" stroke-linejoin="round" stroke-miterlimit="10" d="
			M226.772,270.804c-5.774,0-11.438-0.473-16.959-1.368V393.08h33.917V269.436C238.208,270.331,232.546,270.804,226.772,270.804z"/>
		
			<circle fill="none" stroke="#000000" stroke-width="8" stroke-linecap="round" stroke-linejoin="round" stroke-miterlimit="10" cx="226.772" cy="165.634" r="105.17"/>
		
			<line fill="#FFFFFF" stroke="#000000" stroke-width="8" stroke-linecap="round" stroke-linejoin="round" stroke-miterlimit="10" x1="240.491" y1="236.581" x2="287.125" y2="187.432"/>
		
			<line fill="#FFFFFF" stroke="#000000" stroke-width="8" stroke-linecap="round" stroke-linejoin="round" stroke-miterlimit="10" x1="234.013" y1="268.821" x2="245.287" y2="193.309"/>
		
			<line fill="#FFFFFF" stroke="#000000" stroke-width="8" stroke-linecap="round" stroke-linejoin="round" stroke-miterlimit="10" x1="236" y1="147.389" x2="209.931" y2="200.067"/>
		
			<line fill="#FFFFFF" stroke="#000000" stroke-width="8" stroke-linecap="round" stroke-linejoin="round" stroke-miterlimit="10" x1="213.452" y1="236.581" x2="164.231" y2="193.309"/>
		
			<line fill="#FFFFFF" stroke="#000000" stroke-width="8" stroke-linecap="round" stroke-linejoin="round" stroke-miterlimit="10" x1="218.93" y1="268.821" x2="201.507" y2="137.545"/>
	</g>
</g>
<g id="pivot">
	<circle fill="none" cx="224.108" cy="387.744" r="14.133"/>
</g>
</svg>
