<?xml version="1.0" encoding="utf-8"?>
<!-- Generator: Adobe Illustrator 16.0.0, SVG Export Plug-In . SVG Version: 6.00 Build 0)  -->
<!DOCTYPE svg PUBLIC "-//W3C//DTD SVG 1.1//EN" "http://www.w3.org/Graphics/SVG/1.1/DTD/svg11.dtd">
<svg version="1.1" xmlns="http://www.w3.org/2000/svg" xmlns:xlink="http://www.w3.org/1999/xlink" x="0px" y="0px"
	 width="453.543px" height="453.543px" viewBox="0 0 453.543 453.543" enable-background="new 0 0 453.543 453.543"
	 xml:space="preserve">
<g id="kvadrat">
</g>
<g id="bg" display="none">
	<rect x="-1343.195" y="-4826.985" display="inline" width="15266.867" height="13678.951"/>
</g>
<g id="barvno" display="none">
	<g display="inline">
		<path fill="none" stroke="#000000" stroke-width="8" stroke-linecap="round" stroke-linejoin="round" stroke-miterlimit="10" d="
			M274.184,168.986c0-75.235-74.734-79.414-74.734,5.374s0,208.388,0,208.388"/>
		
			<path fill="#FFFFFF" stroke="#000000" stroke-width="8" stroke-linecap="round" stroke-linejoin="round" stroke-miterlimit="10" d="
			M265.506,252.246c0,0-29.113-35.852-29.113-59.655c0-23.803,58.225-19.476,58.225,0
			C294.618,212.067,265.506,252.246,265.506,252.246z"/>
		
			<path fill="#FFFFFF" stroke="#000000" stroke-width="8" stroke-linecap="round" stroke-linejoin="round" stroke-miterlimit="10" d="
			M266.327,165.668c0,54.189,34.794,86.117,34.794,86.117s0.215-46.652,0.237-51.042c0.086-18.477-13.977-33.666-32.096-35.075
			l-6.061,0.036c-17.699,1.666-31.44,16.543-31.525,34.712c-0.019,4.392-0.234,51.043-0.234,51.043S266.327,219.679,266.327,165.668
			z"/>
		
			<path fill="#39A935" stroke="#000000" stroke-width="8" stroke-linecap="round" stroke-linejoin="round" stroke-miterlimit="10" d="
			M280.077,168.947c0,0,0.085-18.374,0.093-20.104c0.034-7.277-5.505-13.261-12.642-13.814l-2.387,0.014
			c-6.972,0.656-12.384,6.516-12.417,13.672c-0.007,1.729-0.092,20.104-0.092,20.104L280.077,168.947z"/>
		
			<path fill="#39A935" stroke="#000000" stroke-width="8" stroke-linecap="round" stroke-linejoin="round" stroke-miterlimit="10" d="
			M199.779,381.806c0,0-27.213-35.264-39.867-84.173c-12.654-48.911-5.958-92.946-5.958-92.946s27.214,35.263,39.868,84.172
			C206.476,337.769,199.779,381.806,199.779,381.806z"/>
		
			<path fill="#39A935" stroke="#000000" stroke-width="8" stroke-linecap="round" stroke-linejoin="round" stroke-miterlimit="10" d="
			M211.437,127.491c0,0-5.489-17.993,1.795-33.648c7.285-15.657,24.586-23.048,24.586-23.048s5.488,17.993-1.796,33.65
			C228.737,120.102,211.437,127.491,211.437,127.491z"/>
	</g>
	<g id="rdeča7bela" display="inline">
	</g>
	
		<rect x="-1853.48" y="-5246.994" display="inline" fill="none" stroke="#000000" stroke-miterlimit="10" width="16736" height="13952"/>
</g>
<g id="sivinsko">
	<g>
		<path d="M199.45,386.748c-2.209,0-4-1.791-4-4V174.36c0-20.458,4.305-37.594,12.449-49.557
			c7.525-11.053,17.869-17.14,29.127-17.14c20.453,0,41.158,21.064,41.158,61.323c0,2.209-1.791,4-4,4s-4-1.791-4-4
			c0-35.007-16.68-53.323-33.158-53.323c-8.529,0-16.524,4.845-22.514,13.643c-7.237,10.63-11.063,26.209-11.063,45.054v208.388
			C203.45,384.957,201.659,386.748,199.45,386.748z"/>
		<g>
			<path fill="#FFFFFF" d="M265.506,252.246c0,0-29.113-35.852-29.113-59.655c0-23.803,58.225-19.476,58.225,0
				C294.618,212.067,265.506,252.246,265.506,252.246z"/>
			<path d="M265.506,256.246c-1.203,0-2.345-0.542-3.105-1.479c-1.225-1.509-30.007-37.24-30.007-62.177
				c0-12.313,12.147-20.27,30.947-20.27c17.102,0,35.277,7.104,35.277,20.27c0,20.537-28.653,60.319-29.873,62.002
				c-0.729,1.007-1.886,1.617-3.129,1.651C265.579,256.246,265.542,256.246,265.506,256.246z M263.34,180.321
				c-11.422,0-22.947,3.793-22.947,12.27c0,17.536,17.544,42.941,24.966,52.903c9.14-13.365,25.258-39.678,25.258-52.903
				C290.618,186.055,277.871,180.321,263.34,180.321z"/>
		</g>
		<g>
			<path fill="#FFFFFF" d="M266.327,165.668c0,54.189,34.794,86.117,34.794,86.117s0.215-46.652,0.237-51.042
				c0.086-18.477-13.977-33.666-32.096-35.075l-6.061,0.036c-17.699,1.666-31.44,16.543-31.525,34.712
				c-0.019,4.392-0.234,51.043-0.234,51.043S266.327,219.679,266.327,165.668z"/>
			<path d="M301.122,255.785c-0.983,0-1.953-0.362-2.706-1.053c-1.163-1.067-22.965-21.473-32.108-57.213
				c-9.184,35.558-31.007,55.835-32.172,56.896c-1.173,1.069-2.868,1.344-4.319,0.698c-1.45-0.645-2.382-2.086-2.375-3.674
				c0,0,0.215-46.65,0.234-51.042c0.095-20.173,15.207-36.8,35.151-38.677c0.116-0.011,0.233-0.017,0.351-0.018l2.815-0.017
				c0.11-0.009,0.222-0.014,0.334-0.014c0,0,0,0,0,0c0.096,0,0.191,0.003,0.286,0.01l2.625-0.016
				c0.11-0.004,0.223,0.003,0.334,0.012c20.162,1.568,35.881,18.735,35.786,39.082c-0.022,4.391-0.237,51.042-0.237,51.042
				c-0.007,1.583-0.948,3.013-2.398,3.647C302.208,255.676,301.663,255.785,301.122,255.785z M270.398,169.803
				c1.202,34.908,17.366,59.92,26.771,71.612c0.064-14.013,0.174-37.631,0.189-40.692
				C297.432,185.038,285.701,171.731,270.398,169.803z M262.254,169.839c-15.172,2.08-26.504,15.005-26.578,30.596
				c-0.013,3.054-0.121,26.569-0.186,40.593C244.922,229.36,261.037,204.51,262.254,169.839z"/>
		</g>
		<g>
			<path fill="#7B7B7B" d="M280.077,168.947c0,0,0.085-18.374,0.093-20.104c0.034-7.277-5.505-13.261-12.642-13.814l-2.387,0.014
				c-6.972,0.656-12.384,6.516-12.417,13.672c-0.007,1.729-0.092,20.104-0.092,20.104L280.077,168.947z"/>
			<path d="M280.077,172.947c-0.006,0-0.012,0-0.019,0l-27.445-0.128c-2.209-0.01-3.992-1.81-3.981-4.019l0.092-20.103
				c0.042-9.199,6.939-16.78,16.042-17.637c0.117-0.011,0.234-0.017,0.352-0.018l2.387-0.014c0.111,0.002,0.222,0.003,0.333,0.012
				c9.202,0.714,16.375,8.542,16.332,17.821l-0.093,20.104c-0.005,1.061-0.431,2.076-1.185,2.823
				C282.143,172.531,281.131,172.947,280.077,172.947z M256.65,164.838l19.445,0.091l0.075-16.104c0.023-5.057-3.829-9.33-8.8-9.794
				l-2.015,0.012c-4.909,0.543-8.608,4.681-8.631,9.691L256.65,164.838z"/>
		</g>
		<g>
			<path fill="#7B7B7B" d="M199.779,381.806c0,0-27.213-35.264-39.867-84.173c-12.654-48.911-5.958-92.946-5.958-92.946
				s27.214,35.263,39.868,84.172C206.476,337.769,199.779,381.806,199.779,381.806z"/>
			<path d="M199.779,385.806c-1.221,0-2.398-0.56-3.167-1.556c-1.132-1.466-27.86-36.478-40.573-85.615
				c-12.713-49.14-6.318-92.719-6.04-94.55c0.241-1.583,1.402-2.87,2.953-3.271c1.551-0.402,3.19,0.161,4.169,1.429
				c1.131,1.466,27.86,36.477,40.573,85.614c12.713,49.139,6.317,92.719,6.039,94.551c-0.241,1.583-1.402,2.87-2.953,3.271
				C200.448,385.764,200.112,385.806,199.779,385.806z M156.852,215.877c-1.13,15.793-1.733,47.263,6.932,80.754
				c8.676,33.535,24.451,60.734,33.097,73.984c1.131-15.794,1.733-47.264-6.932-80.755
				C181.273,256.326,165.498,229.126,156.852,215.877z"/>
		</g>
		<g>
			<path fill="#7B7B7B" d="M211.437,127.491c0,0-5.489-17.993,1.795-33.648c7.285-15.657,24.586-23.048,24.586-23.048
				s5.488,17.993-1.796,33.65C228.737,120.102,211.437,127.491,211.437,127.491z"/>
			<path d="M211.437,131.491c-0.577,0-1.153-0.125-1.688-0.374c-1.03-0.479-1.807-1.373-2.138-2.459
				c-0.243-0.794-5.847-19.652,1.994-36.503c7.841-16.853,25.878-24.712,26.642-25.039c1.044-0.447,2.229-0.428,3.259,0.052
				c1.03,0.479,1.807,1.373,2.139,2.459c0.242,0.794,5.845,19.652-1.996,36.505c-7.841,16.852-25.876,24.71-26.64,25.037
				C212.506,131.384,211.972,131.491,211.437,131.491z M235.031,76.786c-5.217,3.102-13.793,9.334-18.172,18.745
				c-4.4,9.458-3.639,20.005-2.645,25.977c5.217-3.101,13.801-9.334,18.182-18.749C236.772,93.349,236.018,82.776,235.031,76.786z"
				/>
		</g>
	</g>
	<g id="rdeča7bela_copy_3">
	</g>
	<path d="M14883.02,8705.506h-16737v-13953h16737V8705.506z M-1853.48,8704.506h16736l-0.5-13951h-16735.5l0.5,13951H-1853.48z"/>
</g>
<g id="linijsko" display="none">
	<g display="inline">
		<path fill="none" stroke="#000000" stroke-width="8" stroke-linecap="round" stroke-linejoin="round" stroke-miterlimit="10" d="
			M199.45,318.484c-1.192-9.427-2.988-19.419-5.628-29.626c-12.654-48.909-39.868-84.172-39.868-84.172s-6.697,44.035,5.958,92.946
			c11.842,45.771,36.432,79.586,39.539,83.738"/>
		<path fill="none" stroke="#000000" stroke-width="8" stroke-linecap="round" stroke-linejoin="round" stroke-miterlimit="10" d="
			M266.803,176.425c-0.317-0.019-0.634-0.033-0.952-0.046"/>
		<path fill="none" stroke="#000000" stroke-width="8" stroke-linecap="round" stroke-linejoin="round" stroke-miterlimit="10" d="
			M282.086,226.185c-7.886,14.062-16.58,26.062-16.58,26.062s-8.522-10.503-16.345-23.908"/>
		<path fill="none" stroke="#000000" stroke-width="8" stroke-linecap="round" stroke-linejoin="round" stroke-miterlimit="10" d="
			M266.803,176.425c1.77,20.465,8.345,37.265,15.283,49.76"/>
		<path fill="none" stroke="#000000" stroke-width="8" stroke-linecap="round" stroke-linejoin="round" stroke-miterlimit="10" d="
			M282.086,226.185c9.209,16.583,19.035,25.601,19.035,25.601s0.215-46.652,0.237-51.042c0.068-14.583-8.681-27.111-21.279-32.44"/>
		<path fill="none" stroke="#000000" stroke-width="8" stroke-linecap="round" stroke-linejoin="round" stroke-miterlimit="10" d="
			M265.851,176.378c-1.889,21.732-9.25,39.298-16.69,51.96"/>
		<path fill="none" stroke="#000000" stroke-width="8" stroke-linecap="round" stroke-linejoin="round" stroke-miterlimit="10" d="
			M266.803,176.425c-0.212-2.459-0.346-4.977-0.412-7.541"/>
		<path fill="none" stroke="#000000" stroke-width="8" stroke-linecap="round" stroke-linejoin="round" stroke-miterlimit="10" d="
			M252.634,168.431c-12.313,5.362-20.89,17.646-20.958,31.985c-0.019,4.392-0.234,51.043-0.234,51.043s8.906-8.125,17.718-23.121"/>
		<path fill="none" stroke="#000000" stroke-width="8" stroke-linecap="round" stroke-linejoin="round" stroke-miterlimit="10" d="
			M265.851,176.378c0.212-2.445,0.346-4.947,0.412-7.496"/>
		
			<line fill="none" stroke="#000000" stroke-width="8" stroke-linecap="round" stroke-linejoin="round" stroke-miterlimit="10" x1="266.391" y1="168.884" x2="274.183" y2="168.92"/>
		<path fill="none" stroke="#000000" stroke-width="8" stroke-linecap="round" stroke-linejoin="round" stroke-miterlimit="10" d="
			M274.183,168.92l5.894,0.027c0,0,0.001-0.238,0.003-0.644"/>
		<path fill="none" stroke="#000000" stroke-width="8" stroke-linecap="round" stroke-linejoin="round" stroke-miterlimit="10" d="
			M252.634,168.431c0.012-2.635,0.083-18.134,0.09-19.716c0.033-7.156,5.445-13.016,12.417-13.672l2.387-0.014
			c0.032,0.002,0.063,0.009,0.095,0.012"/>
		<path fill="none" stroke="#000000" stroke-width="8" stroke-linecap="round" stroke-linejoin="round" stroke-miterlimit="10" d="
			M267.623,135.041c7.091,0.6,12.581,6.559,12.547,13.803c-0.007,1.537-0.075,16.212-0.09,19.459"/>
		<path fill="none" stroke="#000000" stroke-width="8" stroke-linecap="round" stroke-linejoin="round" stroke-miterlimit="10" d="
			M266.263,168.883l-13.631-0.063c0,0,0-0.143,0.002-0.389"/>
		
			<line fill="none" stroke="#000000" stroke-width="8" stroke-linecap="round" stroke-linejoin="round" stroke-miterlimit="10" x1="266.391" y1="168.884" x2="266.263" y2="168.883"/>
		<path fill="none" stroke="#000000" stroke-width="8" stroke-linecap="round" stroke-linejoin="round" stroke-miterlimit="10" d="
			M274.184,168.986c0-0.022-0.001-0.044-0.001-0.066"/>
		<path fill="none" stroke="#000000" stroke-width="8" stroke-linecap="round" stroke-linejoin="round" stroke-miterlimit="10" d="
			M267.623,135.041c-8.226-17.98-22.91-25.848-36.557-22.679"/>
		<path fill="none" stroke="#000000" stroke-width="8" stroke-linecap="round" stroke-linejoin="round" stroke-miterlimit="10" d="
			M231.066,112.362c-7.271,1.688-14.243,6.501-19.781,14.587"/>
		<path fill="none" stroke="#000000" stroke-width="8" stroke-linecap="round" stroke-linejoin="round" stroke-miterlimit="10" d="
			M199.45,318.484c0-42.66,0-98.909,0-144.124c0-21.353,4.743-37.057,11.835-47.411"/>
		<path fill="none" stroke="#000000" stroke-width="8" stroke-linecap="round" stroke-linejoin="round" stroke-miterlimit="10" d="
			M199.45,381.371c0,0.902,0,1.377,0,1.377"/>
		<path fill="none" stroke="#000000" stroke-width="8" stroke-linecap="round" stroke-linejoin="round" stroke-miterlimit="10" d="
			M199.45,318.484c0,32.4,0,56.96,0,62.887"/>
		<path fill="none" stroke="#000000" stroke-width="8" stroke-linecap="round" stroke-linejoin="round" stroke-miterlimit="10" d="
			M231.066,112.362c1.883-2.354,3.594-4.991,4.956-7.917c7.285-15.657,1.796-33.65,1.796-33.65s-17.301,7.391-24.586,23.048
			c-6.546,14.069-2.778,30.018-1.947,33.107"/>
	</g>
	<g id="rdeča7bela_copy" display="inline">
	</g>
</g>
<g id="pivot">
	<circle fill="none" cx="215.032" cy="380.509" r="14.133"/>
</g>
</svg>
