<?xml version="1.0" encoding="utf-8"?>
<!-- Generator: Adobe Illustrator 16.0.0, SVG Export Plug-In . SVG Version: 6.00 Build 0)  -->
<!DOCTYPE svg PUBLIC "-//W3C//DTD SVG 1.1//EN" "http://www.w3.org/Graphics/SVG/1.1/DTD/svg11.dtd">
<svg version="1.1" xmlns="http://www.w3.org/2000/svg" xmlns:xlink="http://www.w3.org/1999/xlink" x="0px" y="0px" width="220px"
	 height="220px" viewBox="0 0 220 220" enable-background="new 0 0 220 220" xml:space="preserve">
<g id="bg">
</g>
<g id="Layer_1">
	<g>
		
			<path fill="#EF7E08" stroke="#010202" stroke-width="2.5203" stroke-linecap="round" stroke-linejoin="round" stroke-miterlimit="10" d="
			M-50.563,151.78c-0.091,0.134,0.191,0.485,0.367,0.735c5.044,7.075,10.024,14.235,15.24,21.374
			c0.765,1.043,2.231,2.37,1.733,3.837c-0.205,0.605-0.853,1.32-1.293,1.928c-1.294,1.794-2.795,3.785-4.044,5.482
			c5.905,0.721,11.966,1.109,18.043,1.728c1.994,0.202,4.011,0.242,5.963,0.688c-1.973,7.392-6.356,19.388-6.356,19.388l4.391,4.356
			c0,0,3.384-13.384,4.921-20.203c0.201-0.893,0.272-1.876,0.849-2.621c0.961,0.297,1.855,0.811,2.76,1.265
			c6.298,3.175,12.81,6.286,19.149,9.452c-0.131-1.328-0.34-2.816-0.504-4.388c-0.153-1.479-0.528-3.091-0.295-4.456
			c0.397-2.325,2.419-2.661,4.04-3.391c7.89-3.559,16.568-7.156,24.058-10.694c-0.75-0.597-1.633-1.245-2.563-1.977
			c-0.744-0.583-2.236-1.55-2.441-2.19c-0.388-1.206,0.911-2.912,1.53-3.957c2.101-3.536,4.431-7.428,6.378-10.736
			c-2.83-0.133-6.54-0.347-9.673-0.568c-1.814-0.128-4.269-0.122-4.915-1.731c-0.328-0.827-0.3-2.349-0.411-3.349
			c-0.126-1.148-0.265-2.253-0.335-3.389c-0.673,0.205-1.245,0.72-1.836,1.144c-2.999,2.137-5.91,4.204-9.221,6.089
			c-0.567,0.321-1.157,0.697-1.938,1.053c-0.573,0.258-1.603,0.833-2.237,0.525c-0.919-0.443,0.084-2.584,0.479-3.357
			c3.787-7.428,7.563-15.104,11.367-22.428c-0.165-0.188-0.39,0.059-0.534,0.107c-2.39,0.771-4.711,1.574-7.294,2.307
			c-0.796,0.225-2.025,0.729-2.9,0.407c-1.196-0.444-1.265-3.303-1.498-4.472c-0.651-3.252-1.265-6.43-1.883-9.523
			c-0.327-1.634-0.542-3.33-0.922-4.944c-0.049-0.026-0.063,0.007-0.077,0.042c-3.732,4.111-7.6,8.226-11.475,12.443
			c-0.494,0.539-1.174,1.629-1.715,1.623c-0.993-0.018-2.009-1.232-2.556-1.781c-2.04-2.061-4.138-4.271-6.114-6.121
			c-0.407,8.279-0.887,16.699-1.271,25.142c-0.035,0.788-0.151,3.231-1.024,3.271c-0.807,0.034-1.528-1.078-1.804-1.511
			c-0.694-1.087-1.172-2.413-1.782-3.661c-1.743-3.561-3.526-7.484-5.324-10.85c-0.631,0.896-1.338,1.805-2.038,2.801
			c-0.676,0.957-1.211,2.153-1.952,2.95c-1.352,1.448-4.091-0.399-5.682-1.245c-2.609-1.385-5.576-2.941-8.206-4.284
			c0.068,4.356-0.02,9.476-0.051,14.251c-0.013,1.455-0.008,2.334-1.269,2.76C-46.427,151.67-48.721,151.493-50.563,151.78z"/>
		
			<line fill="none" stroke="#010202" stroke-width="1.8902" stroke-linecap="round" stroke-linejoin="round" stroke-miterlimit="10" x1="10.413" y1="170.07" x2="-10.061" y2="178.66"/>
	</g>
	<g>
		
			<path fill="#EF7E08" stroke="#010202" stroke-width="2.5203" stroke-linecap="round" stroke-linejoin="round" stroke-miterlimit="10" d="
			M169.427,151.78c-0.091,0.134,0.191,0.485,0.367,0.735c5.044,7.075,10.024,14.235,15.24,21.374
			c0.765,1.043,2.231,2.37,1.733,3.837c-0.205,0.605-0.853,1.32-1.293,1.928c-1.294,1.794-2.795,3.785-4.044,5.482
			c5.905,0.721,11.966,1.109,18.043,1.728c1.994,0.202,4.011,0.242,5.963,0.688c-1.973,7.392-6.356,19.388-6.356,19.388l4.391,4.356
			c0,0,3.384-13.384,4.921-20.203c0.201-0.893,0.272-1.876,0.849-2.621c0.961,0.297,1.855,0.811,2.76,1.265
			c6.298,3.175,12.81,6.286,19.149,9.452c-0.131-1.328-0.34-2.816-0.504-4.388c-0.153-1.479-0.528-3.091-0.295-4.456
			c0.397-2.325,2.419-2.661,4.04-3.391c7.89-3.559,16.568-7.156,24.058-10.694c-0.75-0.597-1.633-1.245-2.563-1.977
			c-0.744-0.583-2.236-1.55-2.441-2.19c-0.388-1.206,0.911-2.912,1.53-3.957c2.101-3.536,4.431-7.428,6.378-10.736
			c-2.83-0.133-6.54-0.347-9.673-0.568c-1.814-0.128-4.269-0.122-4.915-1.731c-0.328-0.827-0.3-2.349-0.411-3.349
			c-0.126-1.148-0.265-2.253-0.335-3.389c-0.673,0.205-1.245,0.72-1.836,1.144c-2.999,2.137-5.91,4.204-9.221,6.089
			c-0.567,0.321-1.157,0.697-1.938,1.053c-0.573,0.258-1.603,0.833-2.237,0.525c-0.919-0.443,0.084-2.584,0.479-3.357
			c3.787-7.428,7.563-15.104,11.367-22.428c-0.165-0.188-0.39,0.059-0.534,0.107c-2.39,0.771-4.711,1.574-7.294,2.307
			c-0.796,0.225-2.025,0.729-2.9,0.407c-1.196-0.444-1.265-3.303-1.498-4.472c-0.651-3.252-1.265-6.43-1.883-9.523
			c-0.327-1.634-0.542-3.33-0.922-4.944c-0.049-0.026-0.063,0.007-0.077,0.042c-3.732,4.111-7.6,8.226-11.475,12.443
			c-0.494,0.539-1.174,1.629-1.715,1.623c-0.993-0.018-2.009-1.232-2.556-1.781c-2.04-2.061-4.138-4.271-6.114-6.121
			c-0.407,8.279-0.887,16.699-1.271,25.142c-0.035,0.788-0.151,3.231-1.024,3.271c-0.807,0.034-1.528-1.078-1.804-1.511
			c-0.694-1.087-1.172-2.413-1.782-3.661c-1.743-3.561-3.526-7.484-5.324-10.85c-0.631,0.896-1.338,1.805-2.038,2.801
			c-0.676,0.957-1.211,2.153-1.952,2.95c-1.352,1.448-4.091-0.399-5.682-1.245c-2.609-1.385-5.576-2.941-8.206-4.284
			c0.068,4.356-0.02,9.476-0.051,14.251c-0.013,1.455-0.008,2.334-1.269,2.76C173.563,151.67,171.269,151.493,169.427,151.78z"/>
		
			<polyline fill="none" stroke="#010202" stroke-width="1.8902" stroke-linecap="round" stroke-linejoin="round" stroke-miterlimit="10" points="
			217.751,149.347 209.929,178.66 199.169,163.395 		"/>
		
			<line fill="none" stroke="#010202" stroke-width="1.8902" stroke-linecap="round" stroke-linejoin="round" stroke-miterlimit="10" x1="230.402" y1="170.07" x2="209.929" y2="178.66"/>
	</g>
	<g>
		
			<path fill="#3BAA35" stroke="#010202" stroke-width="2.4" stroke-linecap="round" stroke-linejoin="round" stroke-miterlimit="10" d="
			M190.355,11.825c2.573-1.415,35.865,13.83,48.542,36.886c7.799,14.181,5.483,30.608-4.95,37.895l6.003,10.507l-5.449-0.389
			l-4.349-8.031c-12.045,5.074-26.854-1.938-34.651-16.118C182.823,49.519,187.508,13.391,190.355,11.825z"/>
		<g>
			
				<line fill="none" stroke="#010202" stroke-width="1.9" stroke-linecap="round" stroke-linejoin="round" stroke-miterlimit="10" x1="198.171" y1="25.748" x2="229.847" y2="83.353"/>
			
				<line fill="none" stroke="#010202" stroke-width="1.9" stroke-linecap="round" stroke-linejoin="round" stroke-miterlimit="10" x1="204.409" y1="37.254" x2="196.637" y2="34.585"/>
			
				<line fill="none" stroke="#010202" stroke-width="1.9" stroke-linecap="round" stroke-linejoin="round" stroke-miterlimit="10" x1="214.196" y1="54.996" x2="199.65" y2="50.001"/>
			
				<line fill="none" stroke="#010202" stroke-width="1.9" stroke-linecap="round" stroke-linejoin="round" stroke-miterlimit="10" x1="224.017" y1="72.912" x2="200.397" y2="64.805"/>
			
				<line fill="none" stroke="#010202" stroke-width="1.9" stroke-linecap="round" stroke-linejoin="round" stroke-miterlimit="10" x1="204.6" y1="37.148" x2="206.51" y2="29.155"/>
			
				<line fill="none" stroke="#010202" stroke-width="1.9" stroke-linecap="round" stroke-linejoin="round" stroke-miterlimit="10" x1="214.34" y1="54.916" x2="217.914" y2="39.959"/>
		</g>
	</g>
	<g>
		
			<path fill="#3BAA35" stroke="#010202" stroke-width="2.4" stroke-linecap="round" stroke-linejoin="round" stroke-miterlimit="10" d="
			M80.393,11.825c2.573-1.415,35.865,13.83,48.542,36.886c7.799,14.181,5.483,30.608-4.95,37.895l6.003,10.507l-5.449-0.389
			l-4.349-8.031c-12.045,5.074-26.854-1.938-34.651-16.118C72.86,49.519,77.545,13.391,80.393,11.825z"/>
		<g>
			
				<line fill="none" stroke="#010202" stroke-width="1.9" stroke-linecap="round" stroke-linejoin="round" stroke-miterlimit="10" x1="88.208" y1="25.748" x2="119.884" y2="83.353"/>
			
				<line fill="none" stroke="#010202" stroke-width="1.9" stroke-linecap="round" stroke-linejoin="round" stroke-miterlimit="10" x1="94.446" y1="37.254" x2="86.674" y2="34.585"/>
			
				<line fill="none" stroke="#010202" stroke-width="1.9" stroke-linecap="round" stroke-linejoin="round" stroke-miterlimit="10" x1="104.233" y1="54.996" x2="89.688" y2="50.001"/>
			
				<line fill="none" stroke="#010202" stroke-width="1.9" stroke-linecap="round" stroke-linejoin="round" stroke-miterlimit="10" x1="114.054" y1="72.912" x2="90.435" y2="64.805"/>
			
				<line fill="none" stroke="#010202" stroke-width="1.9" stroke-linecap="round" stroke-linejoin="round" stroke-miterlimit="10" x1="94.637" y1="37.148" x2="96.547" y2="29.155"/>
			
				<line fill="none" stroke="#010202" stroke-width="1.9" stroke-linecap="round" stroke-linejoin="round" stroke-miterlimit="10" x1="104.377" y1="54.916" x2="107.951" y2="39.959"/>
			
				<line fill="none" stroke="#010202" stroke-width="1.9" stroke-linecap="round" stroke-linejoin="round" stroke-miterlimit="10" x1="114.245" y1="72.809" x2="120.051" y2="48.519"/>
		</g>
	</g>
	<g>
		
			<path fill="#3BAA35" stroke="#010202" stroke-width="2.4" stroke-linecap="round" stroke-linejoin="round" stroke-miterlimit="10" d="
			M-29.57,11.825c2.573-1.415,35.865,13.83,48.542,36.886c7.799,14.181,5.483,30.608-4.95,37.895l6.003,10.507l-5.449-0.389
			l-4.349-8.031c-12.045,5.074-26.854-1.938-34.651-16.118C-37.103,49.519-32.418,13.391-29.57,11.825z"/>
		<g>
			
				<line fill="none" stroke="#010202" stroke-width="1.9" stroke-linecap="round" stroke-linejoin="round" stroke-miterlimit="10" x1="-21.755" y1="25.748" x2="9.921" y2="83.353"/>
			
				<line fill="none" stroke="#010202" stroke-width="1.9" stroke-linecap="round" stroke-linejoin="round" stroke-miterlimit="10" x1="4.091" y1="72.912" x2="-19.528" y2="64.805"/>
			
				<line fill="none" stroke="#010202" stroke-width="1.9" stroke-linecap="round" stroke-linejoin="round" stroke-miterlimit="10" x1="4.282" y1="72.809" x2="10.088" y2="48.519"/>
		</g>
	</g>
	<g>
		
			<path fill="#3BAA35" stroke="#010202" stroke-width="2.4" stroke-linecap="round" stroke-linejoin="round" stroke-miterlimit="10" d="
			M80.424,127.472c2.573-1.415,35.866,13.83,48.543,36.886c7.798,14.181,5.483,30.608-4.95,37.895l6.003,10.507l-5.449-0.389
			l-4.349-8.031c-12.045,5.074-26.854-1.938-34.651-16.118C72.893,165.165,77.577,129.037,80.424,127.472z"/>
		<g>
			
				<line fill="none" stroke="#010202" stroke-width="1.9" stroke-linecap="round" stroke-linejoin="round" stroke-miterlimit="10" x1="88.239" y1="141.395" x2="119.915" y2="198.999"/>
			
				<line fill="none" stroke="#010202" stroke-width="1.9" stroke-linecap="round" stroke-linejoin="round" stroke-miterlimit="10" x1="94.479" y1="152.9" x2="86.706" y2="150.231"/>
			
				<line fill="none" stroke="#010202" stroke-width="1.9" stroke-linecap="round" stroke-linejoin="round" stroke-miterlimit="10" x1="104.265" y1="170.643" x2="89.719" y2="165.647"/>
			
				<line fill="none" stroke="#010202" stroke-width="1.9" stroke-linecap="round" stroke-linejoin="round" stroke-miterlimit="10" x1="114.086" y1="188.559" x2="90.467" y2="180.451"/>
			
				<line fill="none" stroke="#010202" stroke-width="1.9" stroke-linecap="round" stroke-linejoin="round" stroke-miterlimit="10" x1="94.669" y1="152.795" x2="96.579" y2="144.802"/>
			
				<line fill="none" stroke="#010202" stroke-width="1.9" stroke-linecap="round" stroke-linejoin="round" stroke-miterlimit="10" x1="104.409" y1="170.563" x2="107.983" y2="155.605"/>
			
				<line fill="none" stroke="#010202" stroke-width="1.9" stroke-linecap="round" stroke-linejoin="round" stroke-miterlimit="10" x1="114.277" y1="188.455" x2="120.082" y2="164.165"/>
		</g>
	</g>
</g>
</svg>
