<?xml version="1.0" encoding="utf-8"?>
<!-- Generator: Adobe Illustrator 16.0.0, SVG Export Plug-In . SVG Version: 6.00 Build 0)  -->
<!DOCTYPE svg PUBLIC "-//W3C//DTD SVG 1.1//EN" "http://www.w3.org/Graphics/SVG/1.1/DTD/svg11.dtd">
<svg version="1.1" xmlns="http://www.w3.org/2000/svg" xmlns:xlink="http://www.w3.org/1999/xlink" x="0px" y="0px" width="220px"
	 height="220px" viewBox="0 0 220 220" enable-background="new 0 0 220 220" xml:space="preserve">
<g id="bg">
</g>
<g id="Layer_1">
	<g>
		
			<path fill="#EF7E08" stroke="#010202" stroke-width="2.5203" stroke-linecap="round" stroke-linejoin="round" stroke-miterlimit="10" d="
			M160.599,43.78c0.091,0.134-0.191,0.485-0.367,0.735c-5.043,7.075-10.024,14.235-15.24,21.374
			c-0.764,1.043-2.231,2.37-1.733,3.837c0.205,0.605,0.853,1.32,1.293,1.928c1.294,1.794,2.795,3.785,4.044,5.482
			c-5.905,0.721-11.965,1.109-18.042,1.728c-1.995,0.202-4.011,0.242-5.963,0.688c1.973,7.392,6.357,19.388,6.357,19.388
			l-4.391,4.356c0,0-3.383-13.384-4.921-20.203c-0.201-0.893-0.272-1.876-0.848-2.621c-0.961,0.297-1.855,0.811-2.76,1.265
			c-6.298,3.175-12.81,6.286-19.15,9.452c0.131-1.328,0.34-2.816,0.504-4.388c0.154-1.479,0.529-3.091,0.295-4.456
			c-0.397-2.325-2.419-2.661-4.04-3.391c-7.89-3.559-16.569-7.156-24.058-10.694c0.75-0.597,1.633-1.245,2.564-1.977
			c0.744-0.583,2.236-1.55,2.441-2.19c0.388-1.206-0.911-2.912-1.53-3.957c-2.101-3.536-4.431-7.428-6.378-10.736
			c2.83-0.133,6.54-0.347,9.673-0.568c1.814-0.128,4.268-0.122,4.915-1.731c0.328-0.827,0.3-2.349,0.411-3.349
			c0.126-1.148,0.265-2.253,0.335-3.389c0.673,0.205,1.245,0.72,1.836,1.144c2.999,2.137,5.91,4.204,9.22,6.089
			c0.567,0.321,1.158,0.697,1.938,1.053c0.573,0.258,1.603,0.833,2.237,0.525c0.919-0.443-0.084-2.584-0.479-3.357
			c-3.788-7.428-7.563-15.104-11.368-22.428c0.165-0.188,0.39,0.059,0.534,0.107c2.39,0.771,4.711,1.574,7.294,2.307
			c0.796,0.225,2.026,0.729,2.901,0.407c1.196-0.444,1.265-3.303,1.498-4.472c0.651-3.252,1.265-6.43,1.883-9.523
			c0.328-1.634,0.542-3.33,0.922-4.944c0.048-0.026,0.063,0.007,0.077,0.042c3.732,4.111,7.6,8.226,11.475,12.443
			c0.494,0.539,1.174,1.629,1.714,1.623c0.994-0.018,2.009-1.232,2.556-1.781c2.041-2.061,4.138-4.271,6.115-6.121
			c0.407,8.279,0.886,16.699,1.271,25.142c0.035,0.788,0.151,3.231,1.024,3.271c0.807,0.034,1.528-1.078,1.804-1.511
			c0.694-1.087,1.171-2.413,1.782-3.661c1.743-3.561,3.526-7.484,5.324-10.85c0.631,0.896,1.338,1.805,2.039,2.801
			c0.676,0.957,1.21,2.153,1.952,2.95c1.352,1.448,4.091-0.399,5.682-1.245c2.609-1.385,5.576-2.941,8.206-4.284
			c-0.068,4.356,0.02,9.476,0.051,14.251c0.012,1.455,0.007,2.334,1.268,2.76C156.463,43.67,158.757,43.493,160.599,43.78z"/>
		
			<polyline fill="none" stroke="#010202" stroke-width="1.8902" stroke-linecap="round" stroke-linejoin="round" stroke-miterlimit="10" points="
			112.275,41.347 120.098,70.66 130.857,55.395 		"/>
		
			<line fill="none" stroke="#010202" stroke-width="1.8902" stroke-linecap="round" stroke-linejoin="round" stroke-miterlimit="10" x1="99.624" y1="62.07" x2="120.098" y2="70.66"/>
	</g>
	<g>
		
			<path fill="#EF7E08" stroke="#010202" stroke-width="2.5203" stroke-linecap="round" stroke-linejoin="round" stroke-miterlimit="10" d="
			M270.562,151.78c0.091,0.134-0.191,0.485-0.367,0.735c-5.044,7.075-10.024,14.235-15.24,21.374
			c-0.765,1.043-2.231,2.37-1.733,3.837c0.205,0.605,0.853,1.32,1.293,1.928c1.294,1.794,2.795,3.785,4.044,5.482
			c-5.905,0.721-11.966,1.109-18.043,1.728c-1.994,0.202-4.011,0.242-5.963,0.688c1.973,7.392,6.356,19.388,6.356,19.388
			l-4.391,4.356c0,0-3.384-13.384-4.921-20.203c-0.201-0.893-0.272-1.876-0.849-2.621c-0.961,0.297-1.855,0.811-2.76,1.265
			c-6.298,3.175-12.81,6.286-19.149,9.452c0.131-1.328,0.34-2.816,0.504-4.388c0.153-1.479,0.528-3.091,0.295-4.456
			c-0.397-2.325-2.419-2.661-4.04-3.391c-7.89-3.559-16.568-7.156-24.058-10.694c0.75-0.597,1.633-1.245,2.563-1.977
			c0.744-0.583,2.236-1.55,2.441-2.19c0.388-1.206-0.911-2.912-1.53-3.957c-2.101-3.536-4.431-7.428-6.378-10.736
			c2.83-0.133,6.54-0.347,9.673-0.568c1.814-0.128,4.269-0.122,4.915-1.731c0.328-0.827,0.3-2.349,0.411-3.349
			c0.126-1.148,0.265-2.253,0.335-3.389c0.673,0.205,1.245,0.72,1.836,1.144c2.999,2.137,5.91,4.204,9.221,6.089
			c0.567,0.321,1.157,0.697,1.938,1.053c0.573,0.258,1.603,0.833,2.237,0.525c0.919-0.443-0.084-2.584-0.479-3.357
			c-3.787-7.428-7.563-15.104-11.367-22.428c0.165-0.188,0.39,0.059,0.534,0.107c2.39,0.771,4.711,1.574,7.294,2.307
			c0.796,0.225,2.025,0.729,2.9,0.407c1.196-0.444,1.265-3.303,1.498-4.472c0.651-3.252,1.265-6.43,1.883-9.523
			c0.327-1.634,0.542-3.33,0.922-4.944c0.049-0.026,0.063,0.007,0.077,0.042c3.732,4.111,7.6,8.226,11.475,12.443
			c0.494,0.539,1.174,1.629,1.715,1.623c0.993-0.018,2.009-1.232,2.556-1.781c2.04-2.061,4.138-4.271,6.114-6.121
			c0.407,8.279,0.887,16.699,1.271,25.142c0.035,0.788,0.151,3.231,1.024,3.271c0.807,0.034,1.528-1.078,1.804-1.511
			c0.694-1.087,1.172-2.413,1.782-3.661c1.743-3.561,3.526-7.484,5.324-10.85c0.631,0.896,1.338,1.805,2.038,2.801
			c0.676,0.957,1.211,2.153,1.952,2.95c1.352,1.448,4.091-0.399,5.682-1.245c2.609-1.385,5.576-2.941,8.206-4.284
			c-0.068,4.356,0.02,9.476,0.051,14.251c0.013,1.455,0.008,2.334,1.269,2.76C266.426,151.67,268.72,151.493,270.562,151.78z"/>
		
			<line fill="none" stroke="#010202" stroke-width="1.8902" stroke-linecap="round" stroke-linejoin="round" stroke-miterlimit="10" x1="209.586" y1="170.07" x2="230.06" y2="178.66"/>
	</g>
	<g>
		
			<path fill="#EF7E08" stroke="#010202" stroke-width="2.5203" stroke-linecap="round" stroke-linejoin="round" stroke-miterlimit="10" d="
			M50.573,151.78c0.091,0.134-0.191,0.485-0.367,0.735c-5.044,7.075-10.024,14.235-15.24,21.374
			c-0.765,1.043-2.231,2.37-1.733,3.837c0.205,0.605,0.853,1.32,1.293,1.928c1.294,1.794,2.795,3.785,4.044,5.482
			c-5.905,0.721-11.966,1.109-18.043,1.728c-1.994,0.202-4.011,0.242-5.963,0.688c1.973,7.392,6.356,19.388,6.356,19.388
			l-4.391,4.356c0,0-3.384-13.384-4.921-20.203c-0.201-0.893-0.272-1.876-0.849-2.621c-0.961,0.297-1.855,0.811-2.76,1.265
			c-6.298,3.175-12.81,6.286-19.149,9.452c0.131-1.328,0.34-2.816,0.504-4.388c0.153-1.479,0.528-3.091,0.295-4.456
			c-0.397-2.325-2.419-2.661-4.04-3.391c-7.89-3.559-16.568-7.156-24.058-10.694c0.75-0.597,1.633-1.245,2.563-1.977
			c0.744-0.583,2.236-1.55,2.441-2.19c0.388-1.206-0.911-2.912-1.53-3.957c-2.101-3.536-4.431-7.428-6.378-10.736
			c2.83-0.133,6.54-0.347,9.673-0.568c1.814-0.128,4.269-0.122,4.915-1.731c0.328-0.827,0.3-2.349,0.411-3.349
			c0.126-1.148,0.265-2.253,0.335-3.389c0.673,0.205,1.245,0.72,1.836,1.144c2.999,2.137,5.91,4.204,9.221,6.089
			c0.567,0.321,1.157,0.697,1.938,1.053c0.573,0.258,1.603,0.833,2.237,0.525c0.919-0.443-0.084-2.584-0.479-3.357
			c-3.787-7.428-7.563-15.104-11.367-22.428c0.165-0.188,0.39,0.059,0.534,0.107c2.39,0.771,4.711,1.574,7.294,2.307
			c0.796,0.225,2.025,0.729,2.9,0.407c1.196-0.444,1.265-3.303,1.498-4.472c0.651-3.252,1.265-6.43,1.883-9.523
			c0.327-1.634,0.542-3.33,0.922-4.944c0.049-0.026,0.063,0.007,0.077,0.042c3.732,4.111,7.6,8.226,11.475,12.443
			c0.494,0.539,1.174,1.629,1.715,1.623c0.993-0.018,2.009-1.232,2.556-1.781c2.04-2.061,4.138-4.271,6.114-6.121
			c0.407,8.279,0.887,16.699,1.271,25.142c0.035,0.788,0.151,3.231,1.024,3.271c0.807,0.034,1.528-1.078,1.804-1.511
			c0.694-1.087,1.172-2.413,1.782-3.661c1.743-3.561,3.526-7.484,5.324-10.85c0.631,0.896,1.338,1.805,2.038,2.801
			c0.676,0.957,1.211,2.153,1.952,2.95c1.352,1.448,4.091-0.399,5.682-1.245c2.609-1.385,5.576-2.941,8.206-4.284
			c-0.068,4.356,0.02,9.476,0.051,14.251c0.013,1.455,0.008,2.334,1.269,2.76C46.438,151.67,48.731,151.493,50.573,151.78z"/>
		
			<polyline fill="none" stroke="#010202" stroke-width="1.8902" stroke-linecap="round" stroke-linejoin="round" stroke-miterlimit="10" points="
			2.249,149.347 10.071,178.66 20.831,163.395 		"/>
		
			<line fill="none" stroke="#010202" stroke-width="1.8902" stroke-linecap="round" stroke-linejoin="round" stroke-miterlimit="10" x1="-10.402" y1="170.07" x2="10.071" y2="178.66"/>
	</g>
	<g>
		
			<path fill="#3BAA35" stroke="#010202" stroke-width="2.4" stroke-linecap="round" stroke-linejoin="round" stroke-miterlimit="10" d="
			M-20.279,11.825c2.573-1.415,35.866,13.83,48.542,36.886c7.798,14.181,5.483,30.608-4.95,37.895l6.003,10.507l-5.449-0.389
			l-4.349-8.031C7.473,93.767-7.335,86.755-15.133,72.574C-27.811,49.519-23.126,13.391-20.279,11.825z"/>
		<g>
			
				<line fill="none" stroke="#010202" stroke-width="1.9" stroke-linecap="round" stroke-linejoin="round" stroke-miterlimit="10" x1="-12.464" y1="25.748" x2="19.212" y2="83.353"/>
			
				<line fill="none" stroke="#010202" stroke-width="1.9" stroke-linecap="round" stroke-linejoin="round" stroke-miterlimit="10" x1="3.562" y1="54.996" x2="-10.984" y2="50.001"/>
			
				<line fill="none" stroke="#010202" stroke-width="1.9" stroke-linecap="round" stroke-linejoin="round" stroke-miterlimit="10" x1="13.382" y1="72.912" x2="-10.237" y2="64.805"/>
			
				<line fill="none" stroke="#010202" stroke-width="1.9" stroke-linecap="round" stroke-linejoin="round" stroke-miterlimit="10" x1="3.706" y1="54.916" x2="7.28" y2="39.959"/>
			
				<line fill="none" stroke="#010202" stroke-width="1.9" stroke-linecap="round" stroke-linejoin="round" stroke-miterlimit="10" x1="13.574" y1="72.809" x2="19.379" y2="48.519"/>
		</g>
	</g>
	<g>
		
			<path fill="#3BAA35" stroke="#010202" stroke-width="2.4" stroke-linecap="round" stroke-linejoin="round" stroke-miterlimit="10" d="
			M199.646,11.825c2.573-1.415,35.866,13.83,48.542,36.886c7.798,14.181,5.483,30.608-4.95,37.895l6.003,10.507l-5.449-0.389
			l-4.349-8.031c-12.045,5.074-26.854-1.938-34.651-16.118C192.115,49.519,196.799,13.391,199.646,11.825z"/>
		<g>
			
				<line fill="none" stroke="#010202" stroke-width="1.9" stroke-linecap="round" stroke-linejoin="round" stroke-miterlimit="10" x1="207.462" y1="25.748" x2="239.138" y2="83.353"/>
			
				<line fill="none" stroke="#010202" stroke-width="1.9" stroke-linecap="round" stroke-linejoin="round" stroke-miterlimit="10" x1="213.701" y1="37.254" x2="205.928" y2="34.585"/>
			
				<line fill="none" stroke="#010202" stroke-width="1.9" stroke-linecap="round" stroke-linejoin="round" stroke-miterlimit="10" x1="223.487" y1="54.996" x2="208.941" y2="50.001"/>
			
				<line fill="none" stroke="#010202" stroke-width="1.9" stroke-linecap="round" stroke-linejoin="round" stroke-miterlimit="10" x1="233.308" y1="72.912" x2="209.689" y2="64.805"/>
			
				<line fill="none" stroke="#010202" stroke-width="1.9" stroke-linecap="round" stroke-linejoin="round" stroke-miterlimit="10" x1="213.891" y1="37.148" x2="215.801" y2="29.155"/>
		</g>
	</g>
	<g>
		
			<path fill="#3BAA35" stroke="#010202" stroke-width="2.4" stroke-linecap="round" stroke-linejoin="round" stroke-miterlimit="10" d="
			M89.653,127.472c2.573-1.415,35.866,13.83,48.542,36.886c7.798,14.181,5.483,30.608-4.95,37.895l6.003,10.507l-5.449-0.389
			l-4.349-8.031c-12.045,5.074-26.854-1.938-34.651-16.118C82.121,165.165,86.806,129.037,89.653,127.472z"/>
		<g>
			
				<line fill="none" stroke="#010202" stroke-width="1.9" stroke-linecap="round" stroke-linejoin="round" stroke-miterlimit="10" x1="97.468" y1="141.395" x2="129.144" y2="198.999"/>
			
				<line fill="none" stroke="#010202" stroke-width="1.9" stroke-linecap="round" stroke-linejoin="round" stroke-miterlimit="10" x1="103.707" y1="152.9" x2="95.935" y2="150.231"/>
			
				<line fill="none" stroke="#010202" stroke-width="1.9" stroke-linecap="round" stroke-linejoin="round" stroke-miterlimit="10" x1="113.494" y1="170.643" x2="98.948" y2="165.647"/>
			
				<line fill="none" stroke="#010202" stroke-width="1.9" stroke-linecap="round" stroke-linejoin="round" stroke-miterlimit="10" x1="123.314" y1="188.559" x2="99.695" y2="180.451"/>
			
				<line fill="none" stroke="#010202" stroke-width="1.9" stroke-linecap="round" stroke-linejoin="round" stroke-miterlimit="10" x1="103.897" y1="152.795" x2="105.808" y2="144.802"/>
			
				<line fill="none" stroke="#010202" stroke-width="1.9" stroke-linecap="round" stroke-linejoin="round" stroke-miterlimit="10" x1="113.638" y1="170.563" x2="117.212" y2="155.605"/>
			
				<line fill="none" stroke="#010202" stroke-width="1.9" stroke-linecap="round" stroke-linejoin="round" stroke-miterlimit="10" x1="123.506" y1="188.455" x2="129.311" y2="164.165"/>
		</g>
	</g>
</g>
</svg>
