<?xml version="1.0" encoding="utf-8"?>
<!-- Generator: Adobe Illustrator 16.0.0, SVG Export Plug-In . SVG Version: 6.00 Build 0)  -->
<!DOCTYPE svg PUBLIC "-//W3C//DTD SVG 1.1//EN" "http://www.w3.org/Graphics/SVG/1.1/DTD/svg11.dtd">
<svg version="1.1" xmlns="http://www.w3.org/2000/svg" xmlns:xlink="http://www.w3.org/1999/xlink" x="0px" y="0px" width="220px"
	 height="220px" viewBox="0 0 220 220" enable-background="new 0 0 220 220" xml:space="preserve">
<g id="bg">
	<g>
		<g>
			<g>
				<rect fill="#0073B3" width="220" height="220"/>
			</g>
		</g>
	</g>
</g>
<g id="Layer_1">
	<g>
		
			<path fill="#FFFFFF" stroke="#010202" stroke-width="3.2759" stroke-linecap="round" stroke-linejoin="round" stroke-miterlimit="10" d="
			M159.451,202.037c-7.483,0-13.05-1.971-17.015-6.009c-7.765-7.92-7.469-18.905-7.186-32.807c0.011-0.515,0.022-1.026,0.032-1.541
			c-3.968,5.324-9.875,10.415-16.553,11.108c-0.494,0.053-1.001-0.107-1.375-0.444c-0.37-0.345-0.584-0.813-0.584-1.324
			c0-10.142,3.322-19.262,11.459-31.442c0.873-1.256,8.576-11.927,16.346-11.927c0.359,0,0.701,0.021,1.044,0.07
			c3.078-4.653,8.271-7.482,13.83-7.482c5.559,0,10.751,2.836,13.831,7.479c0.369-0.042,0.707-0.071,1.04-0.071
			c7.767,0,15.475,10.671,16.333,11.896c8.158,12.212,11.478,21.332,11.478,31.484c0,0.516-0.22,0.98-0.589,1.324
			c-0.37,0.341-0.867,0.508-1.375,0.444c-6.673-0.686-12.583-5.787-16.549-11.111c0.006,0.519,0.021,1.025,0.027,1.548
			c0.286,13.905,0.577,24.876-7.18,32.803C172.501,200.066,166.931,202.037,159.451,202.037z"/>
		
			<path fill="none" stroke="#010202" stroke-width="3.6854" stroke-linecap="round" stroke-linejoin="round" stroke-miterlimit="10" d="
			M159.451,202.037c-7.483,0-13.05-1.971-17.015-6.009c-7.765-7.92-7.469-18.905-7.186-32.807c0.011-0.515,0.022-1.026,0.032-1.541
			c-3.968,5.324-9.875,10.415-16.553,11.108c-0.494,0.053-1.001-0.107-1.375-0.444c-0.37-0.345-0.584-0.813-0.584-1.324
			c0-10.142,3.322-19.262,11.459-31.442c0.873-1.256,8.576-11.927,16.346-11.927c0.359,0,0.701,0.021,1.044,0.07
			c3.078-4.653,8.271-7.482,13.83-7.482c5.559,0,10.751,2.836,13.831,7.479c0.369-0.042,0.707-0.071,1.04-0.071
			c7.767,0,15.475,10.671,16.333,11.896c8.158,12.212,11.478,21.332,11.478,31.484c0,0.516-0.22,0.98-0.589,1.324
			c-0.37,0.341-0.867,0.508-1.375,0.444c-6.673-0.686-12.583-5.787-16.549-11.111c0.006,0.519,0.021,1.025,0.027,1.548
			c0.286,13.905,0.577,24.876-7.18,32.803C172.501,200.066,166.931,202.037,159.451,202.037z"/>
		<g>
			<path fill="#010202" d="M150.33,165.722c-0.979,0-1.776-0.791-1.776-1.774v-7.1c0-0.977,0.796-1.775,1.776-1.775
				c0.977,0,1.774,0.799,1.774,1.775v7.1C152.104,164.931,151.307,165.722,150.33,165.722z"/>
			<path fill="#010202" d="M168.079,165.722c-0.977,0-1.776-0.791-1.776-1.774v-7.1c0-0.977,0.799-1.775,1.776-1.775
				c0.976,0,1.774,0.799,1.774,1.775v7.1C169.853,164.931,169.055,165.722,168.079,165.722z"/>
		</g>
		<g>
			
				<polyline fill="none" stroke="#010202" stroke-width="3.2759" stroke-linecap="round" stroke-linejoin="round" stroke-miterlimit="10" points="
				151.958,185.64 160.31,193.99 168.481,185.818 			"/>
			
				<line fill="none" stroke="#010202" stroke-width="3.2759" stroke-linecap="round" stroke-linejoin="round" stroke-miterlimit="10" x1="160.219" y1="193.743" x2="160.219" y2="202.01"/>
		</g>
		
			<path fill="#010202" stroke="#010202" stroke-width="3.2759" stroke-linecap="round" stroke-linejoin="round" stroke-miterlimit="10" d="
			M173.282,127.719c0.369-0.042,0.707-0.071,1.04-0.071c7.767,0,15.475,10.671,16.333,11.896
			c8.158,12.212,11.478,21.332,11.478,31.484c0,0.516-0.22,0.98-0.589,1.324c-0.37,0.341-0.867,0.508-1.375,0.444
			c-6.673-0.686-12.583-5.787-16.549-11.111L173.282,127.719z"/>
		
			<path fill="#010202" stroke="#010202" stroke-width="3.2759" stroke-linecap="round" stroke-linejoin="round" stroke-miterlimit="10" d="
			M135.283,161.681c-3.968,5.324-9.875,10.415-16.553,11.108c-0.494,0.053-1.001-0.107-1.375-0.444
			c-0.37-0.345-0.584-0.813-0.584-1.324c0-10.142,3.322-19.262,11.459-31.442c0.873-1.256,8.576-11.927,16.346-11.927
			c0.359,0,0.701,0.021,1.044,0.07L135.283,161.681z"/>
		
			<path fill="#FFFFFF" stroke="#010202" stroke-width="3.2759" stroke-linecap="round" stroke-linejoin="round" stroke-miterlimit="10" d="
			M181.55,119.715c-2.138-0.318-4.202,0.25-5.823,1.427c1.628-2.367,1.512-5.62-0.478-7.869c-2.345-2.65-6.395-2.897-9.045-0.552
			c-0.037,0.031-0.068,0.068-0.104,0.102c-0.393-2.98-2.847-5.362-5.959-5.553c-3.532-0.215-6.57,2.474-6.786,6.006
			c-0.003,0.048,0,0.096-0.001,0.146c-2.385-1.83-5.805-1.779-8.14,0.287c-2.465,2.181-2.848,5.835-1.004,8.467
			c-1.897-0.88-4.136-1.014-6.235-0.187c-4.069,1.604-6.068,6.2-4.464,10.269c1.604,4.069,6.201,6.067,10.27,4.464
			c0.943-0.371,1.774-0.906,2.475-1.555c0.281,1.272,0.875,2.493,1.799,3.538c2.898,3.274,7.902,3.58,11.177,0.683
			c0.759-0.673,1.353-1.462,1.79-2.313c0.698,1.102,1.678,2.047,2.906,2.712c3.842,2.088,8.649,0.662,10.735-3.18
			c0.483-0.891,0.776-1.833,0.896-2.781c1.032,0.796,2.274,1.346,3.653,1.551c4.325,0.646,8.354-2.336,9-6.66
			C188.857,124.391,185.875,120.362,181.55,119.715z"/>
	</g>
	<g>
		
			<path fill="#C9C9C9" stroke="#010202" stroke-width="3.2759" stroke-linecap="round" stroke-linejoin="round" stroke-miterlimit="10" d="
			M98.511,19.443c-12.729,0-23.048,10.319-23.048,23.048c0,2.092,0.284,4.118,0.807,6.045c-1.787-0.245-3.689-0.373-5.716-0.373
			h-0.603c-2.467,0-4.756,0.186-6.868,0.547c0.554-1.979,0.855-4.063,0.855-6.219c0-12.729-10.318-23.048-23.047-23.048
			S17.843,29.763,17.843,42.491c0,12.729,10.319,23.048,23.048,23.048c1.737,0,3.427-0.198,5.055-0.563
			c-0.018,0.099-0.039,0.191-0.056,0.291c-0.226,1.423-0.328,2.928-0.328,4.504c0,9.108,4.079,20.689,9.251,30.098
			c0,0,4.368,7.047,4.369,7.049c0.537,0.783,1.639,2.246,1.639,2.246l1.591,1.941c0.002,0.002,0.004,0.005,0.006,0.008
			c1.257,1.439,2.483,2.668,3.668,3.615c0.005,0.004,0.008,0.007,0.013,0.01c-0.29,0.604-0.465,1.271-0.465,1.986
			c0,2.551,2.067,4.618,4.619,4.618c2.551,0,4.618-2.067,4.618-4.618c0-0.715-0.175-1.383-0.464-1.986
			c0.003-0.003,0.008-0.006,0.012-0.01c1.185-0.947,2.411-2.176,3.668-3.615c0.001-0.003,0.004-0.006,0.006-0.008l1.592-1.941
			c0,0,1.102-1.463,1.639-2.246c0.001-0.002,4.368-7.049,4.368-7.049c5.174-9.408,9.253-20.989,9.253-30.098
			c0-1.576-0.103-3.081-0.329-4.504c-0.004-0.022-0.008-0.043-0.013-0.066c1.272,0.219,2.576,0.338,3.91,0.338
			c12.729,0,23.048-10.318,23.048-23.048C121.559,29.763,111.24,19.443,98.511,19.443z"/>
		<circle fill="#010202" cx="61.563" cy="75.558" r="2.69"/>
		<circle fill="#010202" cx="78.94" cy="75.558" r="2.69"/>
		<circle fill="#010202" cx="70.252" cy="116.343" r="4.999"/>
		<g>
			
				<path fill="none" stroke="#010202" stroke-width="2.4569" stroke-linecap="round" stroke-linejoin="round" stroke-miterlimit="10" d="
				M75.267,99.455c0,0,8.88-5.505,21.261-0.029"/>
			
				<path fill="none" stroke="#010202" stroke-width="2.4569" stroke-linecap="round" stroke-linejoin="round" stroke-miterlimit="10" d="
				M75.267,102.85c0,0,8.356-3.395,19.851,2.572"/>
			
				<path fill="none" stroke="#010202" stroke-width="2.4569" stroke-linecap="round" stroke-linejoin="round" stroke-miterlimit="10" d="
				M74.175,105.762c0,0,11.722-1.224,18.896,6.518"/>
			
				<path fill="none" stroke="#010202" stroke-width="2.4569" stroke-linecap="round" stroke-linejoin="round" stroke-miterlimit="10" d="
				M62.107,99.455c0,0-8.88-5.505-21.26-0.029"/>
			
				<path fill="none" stroke="#010202" stroke-width="2.4569" stroke-linecap="round" stroke-linejoin="round" stroke-miterlimit="10" d="
				M62.107,102.85c0,0-8.356-3.395-19.851,2.572"/>
			
				<path fill="none" stroke="#010202" stroke-width="2.4569" stroke-linecap="round" stroke-linejoin="round" stroke-miterlimit="10" d="
				M63.199,105.762c0,0-11.723-1.224-18.896,6.518"/>
		</g>
		
			<circle fill="#F5B0B5" stroke="#010202" stroke-width="3.2759" stroke-linecap="round" stroke-linejoin="round" stroke-miterlimit="10" cx="40.891" cy="42.491" r="11.524"/>
		
			<circle fill="#F5B0B5" stroke="#010202" stroke-width="3.2759" stroke-linecap="round" stroke-linejoin="round" stroke-miterlimit="10" cx="98.51" cy="42.491" r="11.524"/>
	</g>
	<line fill="none" stroke="#CC78A7" stroke-width="5" stroke-miterlimit="10" x1="8.104" y1="228.104" x2="228.104" y2="8.104"/>
</g>
</svg>
