<?xml version="1.0" encoding="utf-8"?>
<!-- Generator: Adobe Illustrator 16.0.0, SVG Export Plug-In . SVG Version: 6.00 Build 0)  -->
<!DOCTYPE svg PUBLIC "-//W3C//DTD SVG 1.1//EN" "http://www.w3.org/Graphics/SVG/1.1/DTD/svg11.dtd">
<svg version="1.1" xmlns="http://www.w3.org/2000/svg" xmlns:xlink="http://www.w3.org/1999/xlink" x="0px" y="0px" width="220px"
	 height="220px" viewBox="0 0 220 220" enable-background="new 0 0 220 220" xml:space="preserve">
<g id="bg">
	<g>
		<g>
			<g>
				<rect fill="#0073B3" width="220" height="220"/>
			</g>
		</g>
	</g>
</g>
<g id="Layer_1">
	<line fill="none" stroke="#CC78A7" stroke-width="5" stroke-miterlimit="10" x1="8.104" y1="228.104" x2="228.104" y2="8.104"/>
	<g>
		<g>
			
				<line fill="none" stroke="#CC78A7" stroke-width="5" stroke-miterlimit="10" stroke-dasharray="9.3149,9.3149" x1="3.191" y1="113.19" x2="131.63" y2="241.629"/>
		</g>
	</g>
	<circle fill="none" stroke="#57B3E6" stroke-width="5" stroke-miterlimit="10" stroke-dasharray="9" cx="220" cy="0" r="35.251"/>
	<circle fill="none" stroke="#57B3E6" stroke-width="5" stroke-miterlimit="10" stroke-dasharray="9" cx="0" cy="0" r="35.251"/>
	
		<circle fill="none" stroke="#57B3E6" stroke-width="5" stroke-miterlimit="10" stroke-dasharray="9" cx="220" cy="220" r="35.251"/>
	<circle fill="none" stroke="#57B3E6" stroke-width="5" stroke-miterlimit="10" stroke-dasharray="9" cx="0" cy="220" r="35.251"/>
	<g>
		
			<path fill="#FFFFFF" stroke="#010202" stroke-width="3.2759" stroke-linecap="round" stroke-linejoin="round" stroke-miterlimit="10" d="
			M159.451,202.037c-7.483,0-13.05-1.971-17.015-6.009c-7.765-7.92-7.469-18.905-7.186-32.807c0.011-0.515,0.022-1.026,0.032-1.541
			c-3.968,5.324-9.875,10.415-16.553,11.108c-0.494,0.053-1.001-0.107-1.374-0.444c-0.37-0.345-0.585-0.813-0.585-1.324
			c0-10.142,3.323-19.262,11.459-31.442c0.873-1.256,8.576-11.927,16.347-11.927c0.358,0,0.701,0.021,1.044,0.07
			c3.078-4.653,8.271-7.482,13.83-7.482c5.559,0,10.751,2.836,13.831,7.479c0.369-0.042,0.707-0.071,1.04-0.071
			c7.767,0,15.475,10.671,16.333,11.896c8.157,12.212,11.477,21.332,11.477,31.484c0,0.516-0.22,0.98-0.589,1.324
			c-0.37,0.341-0.867,0.508-1.375,0.444c-6.673-0.686-12.583-5.787-16.549-11.111c0.006,0.519,0.021,1.025,0.027,1.548
			c0.286,13.905,0.577,24.876-7.18,32.803C172.5,200.066,166.931,202.037,159.451,202.037z"/>
		
			<path fill="none" stroke="#010202" stroke-width="3.6854" stroke-linecap="round" stroke-linejoin="round" stroke-miterlimit="10" d="
			M159.451,202.037c-7.483,0-13.05-1.971-17.015-6.009c-7.765-7.92-7.469-18.905-7.186-32.807c0.011-0.515,0.022-1.026,0.032-1.541
			c-3.968,5.324-9.875,10.415-16.553,11.108c-0.494,0.053-1.001-0.107-1.374-0.444c-0.37-0.345-0.585-0.813-0.585-1.324
			c0-10.142,3.323-19.262,11.459-31.442c0.873-1.256,8.576-11.927,16.347-11.927c0.358,0,0.701,0.021,1.044,0.07
			c3.078-4.653,8.271-7.482,13.83-7.482c5.559,0,10.751,2.836,13.831,7.479c0.369-0.042,0.707-0.071,1.04-0.071
			c7.767,0,15.475,10.671,16.333,11.896c8.157,12.212,11.477,21.332,11.477,31.484c0,0.516-0.22,0.98-0.589,1.324
			c-0.37,0.341-0.867,0.508-1.375,0.444c-6.673-0.686-12.583-5.787-16.549-11.111c0.006,0.519,0.021,1.025,0.027,1.548
			c0.286,13.905,0.577,24.876-7.18,32.803C172.5,200.066,166.931,202.037,159.451,202.037z"/>
		<g>
			<path fill="#010202" d="M150.329,165.722c-0.979,0-1.776-0.791-1.776-1.774v-7.1c0-0.977,0.796-1.775,1.776-1.775
				c0.977,0,1.774,0.799,1.774,1.775v7.1C152.104,164.931,151.306,165.722,150.329,165.722z"/>
			<path fill="#010202" d="M168.079,165.722c-0.978,0-1.776-0.791-1.776-1.774v-7.1c0-0.977,0.799-1.775,1.776-1.775
				c0.975,0,1.773,0.799,1.773,1.775v7.1C169.853,164.931,169.054,165.722,168.079,165.722z"/>
		</g>
		<g>
			
				<polyline fill="none" stroke="#010202" stroke-width="3.2759" stroke-linecap="round" stroke-linejoin="round" stroke-miterlimit="10" points="
				151.958,185.64 160.309,193.99 168.48,185.818 			"/>
			
				<line fill="none" stroke="#010202" stroke-width="3.2759" stroke-linecap="round" stroke-linejoin="round" stroke-miterlimit="10" x1="160.218" y1="193.743" x2="160.218" y2="202.01"/>
		</g>
		
			<path fill="#010202" stroke="#010202" stroke-width="3.2759" stroke-linecap="round" stroke-linejoin="round" stroke-miterlimit="10" d="
			M173.281,127.719c0.369-0.042,0.707-0.071,1.04-0.071c7.767,0,15.475,10.671,16.333,11.896
			c8.157,12.212,11.477,21.332,11.477,31.484c0,0.516-0.22,0.98-0.589,1.324c-0.37,0.341-0.867,0.508-1.375,0.444
			c-6.673-0.686-12.583-5.787-16.549-11.111L173.281,127.719z"/>
		
			<path fill="#010202" stroke="#010202" stroke-width="3.2759" stroke-linecap="round" stroke-linejoin="round" stroke-miterlimit="10" d="
			M135.283,161.681c-3.968,5.324-9.875,10.415-16.553,11.108c-0.494,0.053-1.001-0.107-1.374-0.444
			c-0.37-0.345-0.585-0.813-0.585-1.324c0-10.142,3.323-19.262,11.459-31.442c0.873-1.256,8.576-11.927,16.347-11.927
			c0.358,0,0.701,0.021,1.044,0.07L135.283,161.681z"/>
		
			<path fill="#FFFFFF" stroke="#010202" stroke-width="3.2759" stroke-linecap="round" stroke-linejoin="round" stroke-miterlimit="10" d="
			M181.549,119.715c-2.138-0.318-4.202,0.25-5.822,1.427c1.627-2.367,1.512-5.62-0.479-7.869c-2.345-2.65-6.395-2.897-9.044-0.552
			c-0.037,0.031-0.068,0.068-0.104,0.102c-0.393-2.98-2.847-5.362-5.96-5.553c-3.532-0.215-6.57,2.474-6.786,6.006
			c-0.003,0.048,0,0.096-0.001,0.146c-2.385-1.83-5.806-1.779-8.141,0.287c-2.465,2.181-2.848,5.835-1.004,8.467
			c-1.896-0.88-4.136-1.014-6.235-0.187c-4.068,1.604-6.067,6.2-4.464,10.269c1.604,4.069,6.201,6.067,10.27,4.464
			c0.943-0.371,1.774-0.906,2.475-1.555c0.281,1.272,0.875,2.493,1.8,3.538c2.898,3.274,7.901,3.58,11.177,0.683
			c0.759-0.673,1.352-1.462,1.789-2.313c0.698,1.102,1.678,2.047,2.906,2.712c3.842,2.088,8.649,0.662,10.735-3.18
			c0.483-0.891,0.776-1.833,0.896-2.781c1.032,0.796,2.274,1.346,3.653,1.551c4.325,0.646,8.354-2.336,9-6.66
			C188.857,124.391,185.874,120.362,181.549,119.715z"/>
	</g>
	<g>
		
			<path fill="#FFFFFF" stroke="#010202" stroke-width="3.2759" stroke-linecap="round" stroke-linejoin="round" stroke-miterlimit="10" d="
			M60.522,114.224c-7.483,0-13.05-1.971-17.015-6.01c-7.765-7.92-7.469-18.904-7.186-32.807c0.011-0.514,0.022-1.025,0.032-1.541
			c-3.968,5.324-9.875,10.416-16.553,11.109c-0.494,0.053-1.001-0.107-1.374-0.445c-0.37-0.344-0.585-0.813-0.585-1.324
			c0-10.141,3.323-19.262,11.459-31.441c0.873-1.256,8.576-11.928,16.347-11.928c0.358,0,0.701,0.021,1.044,0.07
			c3.078-4.652,8.271-7.482,13.83-7.482c5.559,0,10.751,2.836,13.831,7.48c0.369-0.043,0.707-0.072,1.04-0.072
			c7.767,0,15.475,10.672,16.333,11.896c8.157,12.211,11.477,21.332,11.477,31.484c0,0.516-0.22,0.98-0.589,1.324
			c-0.37,0.34-0.867,0.508-1.375,0.443c-6.673-0.686-12.583-5.787-16.549-11.111c0.006,0.52,0.021,1.025,0.027,1.549
			c0.286,13.904,0.577,24.875-7.18,32.803C73.572,112.253,68.002,114.224,60.522,114.224z"/>
		
			<path fill="none" stroke="#010202" stroke-width="3.6854" stroke-linecap="round" stroke-linejoin="round" stroke-miterlimit="10" d="
			M60.522,114.224c-7.483,0-13.05-1.971-17.015-6.01c-7.765-7.92-7.469-18.904-7.186-32.807c0.011-0.514,0.022-1.025,0.032-1.541
			c-3.968,5.324-9.875,10.416-16.553,11.109c-0.494,0.053-1.001-0.107-1.374-0.445c-0.37-0.344-0.585-0.813-0.585-1.324
			c0-10.141,3.323-19.262,11.459-31.441c0.873-1.256,8.576-11.928,16.347-11.928c0.358,0,0.701,0.021,1.044,0.07
			c3.078-4.652,8.271-7.482,13.83-7.482c5.559,0,10.751,2.836,13.831,7.48c0.369-0.043,0.707-0.072,1.04-0.072
			c7.767,0,15.475,10.672,16.333,11.896c8.157,12.211,11.477,21.332,11.477,31.484c0,0.516-0.22,0.98-0.589,1.324
			c-0.37,0.34-0.867,0.508-1.375,0.443c-6.673-0.686-12.583-5.787-16.549-11.111c0.006,0.52,0.021,1.025,0.027,1.549
			c0.286,13.904,0.577,24.875-7.18,32.803C73.572,112.253,68.002,114.224,60.522,114.224z"/>
		<g>
			<path fill="#010202" d="M51.401,77.907c-0.979,0-1.776-0.791-1.776-1.773v-7.1c0-0.977,0.796-1.775,1.776-1.775
				c0.977,0,1.774,0.799,1.774,1.775v7.1C53.175,77.116,52.378,77.907,51.401,77.907z"/>
			<path fill="#010202" d="M69.151,77.907c-0.978,0-1.776-0.791-1.776-1.773v-7.1c0-0.977,0.799-1.775,1.776-1.775
				c0.975,0,1.773,0.799,1.773,1.775v7.1C70.924,77.116,70.126,77.907,69.151,77.907z"/>
		</g>
		<g>
			
				<polyline fill="none" stroke="#010202" stroke-width="3.2759" stroke-linecap="round" stroke-linejoin="round" stroke-miterlimit="10" points="
				53.03,97.825 61.381,106.177 69.552,98.005 			"/>
			
				<line fill="none" stroke="#010202" stroke-width="3.2759" stroke-linecap="round" stroke-linejoin="round" stroke-miterlimit="10" x1="61.29" y1="105.929" x2="61.29" y2="114.196"/>
		</g>
		
			<path fill="#010202" stroke="#010202" stroke-width="3.2759" stroke-linecap="round" stroke-linejoin="round" stroke-miterlimit="10" d="
			M74.353,39.905c0.369-0.043,0.707-0.072,1.04-0.072c7.767,0,15.475,10.672,16.333,11.896
			c8.157,12.211,11.477,21.332,11.477,31.484c0,0.516-0.22,0.98-0.589,1.324c-0.37,0.34-0.867,0.508-1.375,0.443
			c-6.673-0.686-12.583-5.787-16.549-11.111L74.353,39.905z"/>
		
			<path fill="#010202" stroke="#010202" stroke-width="3.2759" stroke-linecap="round" stroke-linejoin="round" stroke-miterlimit="10" d="
			M36.354,73.866c-3.968,5.324-9.875,10.416-16.553,11.109c-0.494,0.053-1.001-0.107-1.374-0.445
			c-0.37-0.344-0.585-0.813-0.585-1.324c0-10.141,3.323-19.262,11.459-31.441c0.873-1.256,8.576-11.928,16.347-11.928
			c0.358,0,0.701,0.021,1.044,0.07L36.354,73.866z"/>
		
			<path fill="#FFFFFF" stroke="#010202" stroke-width="3.2759" stroke-linecap="round" stroke-linejoin="round" stroke-miterlimit="10" d="
			M82.621,31.901c-2.138-0.318-4.202,0.25-5.822,1.426c1.627-2.367,1.512-5.619-0.479-7.869c-2.345-2.65-6.395-2.896-9.044-0.551
			c-0.037,0.031-0.068,0.068-0.104,0.102c-0.393-2.98-2.847-5.363-5.96-5.553c-3.532-0.215-6.57,2.473-6.786,6.006
			c-0.003,0.047,0,0.096-0.001,0.145c-2.385-1.83-5.806-1.779-8.141,0.287c-2.465,2.182-2.848,5.836-1.004,8.467
			c-1.896-0.879-4.136-1.014-6.235-0.186c-4.068,1.604-6.067,6.199-4.464,10.268c1.604,4.07,6.201,6.068,10.27,4.465
			c0.943-0.371,1.774-0.906,2.475-1.555c0.281,1.271,0.875,2.492,1.8,3.537c2.898,3.275,7.901,3.58,11.177,0.684
			c0.759-0.674,1.352-1.463,1.789-2.313c0.698,1.102,1.678,2.047,2.906,2.711c3.842,2.088,8.649,0.662,10.735-3.18
			c0.483-0.891,0.776-1.832,0.896-2.781c1.032,0.797,2.274,1.346,3.653,1.551c4.325,0.646,8.354-2.336,9-6.66
			C89.929,36.577,86.946,32.548,82.621,31.901z"/>
	</g>
</g>
</svg>
