<?xml version="1.0" encoding="utf-8"?>
<!-- Generator: Adobe Illustrator 16.0.0, SVG Export Plug-In . SVG Version: 6.00 Build 0)  -->
<!DOCTYPE svg PUBLIC "-//W3C//DTD SVG 1.1//EN" "http://www.w3.org/Graphics/SVG/1.1/DTD/svg11.dtd">
<svg version="1.1" xmlns="http://www.w3.org/2000/svg" xmlns:xlink="http://www.w3.org/1999/xlink" x="0px" y="0px" width="220px"
	 height="220px" viewBox="0 0 220 220" enable-background="new 0 0 220 220" xml:space="preserve">
<g id="bg">
</g>
<g id="Layer_1">
	<g>
		
			<path fill="none" stroke="#010202" stroke-width="2.6966" stroke-linecap="round" stroke-linejoin="round" stroke-miterlimit="10" d="
			M207.331-19.213c-1.722,6.133-6.37,18.926-21.499,18.926"/>
		
			<path fill="none" stroke="#010202" stroke-width="2.6966" stroke-linecap="round" stroke-linejoin="round" stroke-miterlimit="10" d="
			M207.331,18.637c-1.753-6.123-6.37-18.924-21.499-18.924"/>
		
			<path fill="#FFD009" stroke="#010202" stroke-width="2.6966" stroke-linecap="round" stroke-linejoin="round" stroke-miterlimit="10" d="
			M174.099-1.262c12.226,0,22.138-9.91,22.138-22.137s-9.912-22.137-22.138-22.137s-22.137,9.91-22.137,22.137
			c0,0.402,0.012,0.805,0.033,1.203c-2.356-4.559-7.11-7.678-12.596-7.678c-7.829,0-14.174,6.346-14.174,14.174
			s6.345,14.174,14.174,14.174C147.041-1.525,164.793-1.262,174.099-1.262z"/>
		
			<path fill="#FFD009" stroke="#010202" stroke-width="2.6966" stroke-linecap="round" stroke-linejoin="round" stroke-miterlimit="10" d="
			M174.099,45.535c12.226,0,22.138-9.91,22.138-22.137s-9.912-22.137-22.138-22.137c-9.306,0-27.058,0.262-34.699,0.262
			c-7.829,0-14.174,6.346-14.174,14.174c0,7.83,6.345,14.176,14.174,14.176c5.485,0,10.239-3.119,12.596-7.678
			c-0.021,0.398-0.033,0.799-0.033,1.203C151.962,35.625,161.873,45.535,174.099,45.535z"/>
		
			<path fill="#7F4F25" stroke="#010202" stroke-width="2.6966" stroke-linecap="round" stroke-linejoin="round" stroke-miterlimit="10" d="
			M123.313,0.381c0,3.973,14.141,4.52,14.141,4.52s37.333,0,40.629,0c4.087,0,11.827-0.023,11.827-4.688
			c0-4.662-7.74-4.688-11.827-4.688c-3.296,0-40.629,0-40.629,0S123.313-3.59,123.313,0.381z"/>
		<circle fill="#E8501D" stroke="#010202" stroke-width="2.0224" stroke-miterlimit="10" cx="174.099" cy="23.398" r="7.326"/>
		
			<circle fill="#E73389" stroke="#010202" stroke-width="2.6966" stroke-linecap="round" stroke-linejoin="round" stroke-miterlimit="10" cx="139.398" cy="15.698" r="4.3"/>
	</g>
	<g>
		
			<path fill="none" stroke="#010202" stroke-width="2.6966" stroke-linecap="round" stroke-linejoin="round" stroke-miterlimit="10" d="
			M102.187-19.213c-1.722,6.133-6.37,18.926-21.499,18.926"/>
		
			<path fill="none" stroke="#010202" stroke-width="2.6966" stroke-linecap="round" stroke-linejoin="round" stroke-miterlimit="10" d="
			M102.187,18.637c-1.753-6.123-6.37-18.924-21.499-18.924"/>
		
			<path fill="#FFD009" stroke="#010202" stroke-width="2.6966" stroke-linecap="round" stroke-linejoin="round" stroke-miterlimit="10" d="
			M68.954-1.262c12.226,0,22.138-9.91,22.138-22.137S81.18-45.535,68.954-45.535s-22.137,9.91-22.137,22.137
			c0,0.402,0.012,0.805,0.033,1.203c-2.356-4.559-7.11-7.678-12.595-7.678c-7.829,0-14.174,6.346-14.174,14.174
			S26.426-1.525,34.255-1.525C41.896-1.525,59.648-1.262,68.954-1.262z"/>
		
			<path fill="#FFD009" stroke="#010202" stroke-width="2.6966" stroke-linecap="round" stroke-linejoin="round" stroke-miterlimit="10" d="
			M68.954,45.535c12.226,0,22.138-9.91,22.138-22.137S81.18,1.262,68.954,1.262c-9.306,0-27.058,0.262-34.699,0.262
			c-7.829,0-14.174,6.346-14.174,14.174c0,7.83,6.345,14.176,14.174,14.176c5.485,0,10.239-3.119,12.595-7.678
			c-0.021,0.398-0.033,0.799-0.033,1.203C46.817,35.625,56.729,45.535,68.954,45.535z"/>
		
			<path fill="#7F4F25" stroke="#010202" stroke-width="2.6966" stroke-linecap="round" stroke-linejoin="round" stroke-miterlimit="10" d="
			M18.168,0.381c0,3.973,14.14,4.52,14.14,4.52s37.333,0,40.629,0c4.087,0,11.827-0.023,11.827-4.688
			c0-4.662-7.74-4.688-11.827-4.688c-3.296,0-40.629,0-40.629,0S18.168-3.59,18.168,0.381z"/>
		<circle fill="#E8501D" stroke="#010202" stroke-width="2.0224" stroke-miterlimit="10" cx="68.954" cy="23.398" r="7.326"/>
		
			<circle fill="#E73389" stroke="#010202" stroke-width="2.6966" stroke-linecap="round" stroke-linejoin="round" stroke-miterlimit="10" cx="34.254" cy="15.698" r="4.3"/>
	</g>
	<g>
		
			<path fill="#FFD009" stroke="#010202" stroke-width="2.6966" stroke-linecap="round" stroke-linejoin="round" stroke-miterlimit="10" d="
			M228.776,108.738c12.226,0,22.138-9.91,22.138-22.137s-9.912-22.137-22.138-22.137s-22.137,9.91-22.137,22.137
			c0,0.402,0.012,0.805,0.033,1.203c-2.356-4.559-7.11-7.678-12.596-7.678c-7.829,0-14.174,6.346-14.174,14.174
			s6.345,14.174,14.174,14.174C201.719,108.475,219.471,108.738,228.776,108.738z"/>
		
			<path fill="#FFD009" stroke="#010202" stroke-width="2.6966" stroke-linecap="round" stroke-linejoin="round" stroke-miterlimit="10" d="
			M228.776,155.535c12.226,0,22.138-9.91,22.138-22.137s-9.912-22.137-22.138-22.137c-9.306,0-27.058,0.262-34.699,0.262
			c-7.829,0-14.174,6.346-14.174,14.174c0,7.83,6.345,14.176,14.174,14.176c5.485,0,10.239-3.119,12.596-7.678
			c-0.021,0.398-0.033,0.799-0.033,1.203C206.64,145.625,216.551,155.535,228.776,155.535z"/>
		
			<path fill="#7F4F25" stroke="#010202" stroke-width="2.6966" stroke-linecap="round" stroke-linejoin="round" stroke-miterlimit="10" d="
			M177.99,110.381c0,3.973,14.141,4.52,14.141,4.52s37.333,0,40.629,0c4.087,0,11.827-0.023,11.827-4.688
			c0-4.662-7.74-4.688-11.827-4.688c-3.296,0-40.629,0-40.629,0S177.99,106.41,177.99,110.381z"/>
		
			<circle fill="#E73389" stroke="#010202" stroke-width="2.6966" stroke-linecap="round" stroke-linejoin="round" stroke-miterlimit="10" cx="194.076" cy="94.302" r="4.3"/>
		
			<circle fill="#E73389" stroke="#010202" stroke-width="2.6966" stroke-linecap="round" stroke-linejoin="round" stroke-miterlimit="10" cx="194.076" cy="125.698" r="4.3"/>
	</g>
	<g>
		
			<path fill="none" stroke="#010202" stroke-width="2.6966" stroke-linecap="round" stroke-linejoin="round" stroke-miterlimit="10" d="
			M152.01,90.787c-1.723,6.133-6.371,18.926-21.5,18.926"/>
		
			<path fill="none" stroke="#010202" stroke-width="2.6966" stroke-linecap="round" stroke-linejoin="round" stroke-miterlimit="10" d="
			M152.01,128.637c-1.754-6.123-6.371-18.924-21.5-18.924"/>
		
			<path fill="#FFD009" stroke="#010202" stroke-width="2.6966" stroke-linecap="round" stroke-linejoin="round" stroke-miterlimit="10" d="
			M118.778,108.738c12.225,0,22.136-9.91,22.136-22.137s-9.912-22.137-22.136-22.137c-12.227,0-22.137,9.91-22.137,22.137
			c0,0.402,0.012,0.805,0.033,1.203c-2.357-4.559-7.111-7.678-12.596-7.678c-7.83,0-14.173,6.346-14.173,14.174
			s6.343,14.174,14.173,14.174C91.719,108.475,109.471,108.738,118.778,108.738z"/>
		
			<path fill="#FFD009" stroke="#010202" stroke-width="2.6966" stroke-linecap="round" stroke-linejoin="round" stroke-miterlimit="10" d="
			M118.778,155.535c12.225,0,22.136-9.91,22.136-22.137s-9.912-22.137-22.136-22.137c-9.307,0-27.059,0.262-34.7,0.262
			c-7.83,0-14.173,6.346-14.173,14.174c0,7.83,6.343,14.176,14.173,14.176c5.485,0,10.239-3.119,12.596-7.678
			c-0.021,0.398-0.033,0.799-0.033,1.203C96.641,145.625,106.551,155.535,118.778,155.535z"/>
		
			<path fill="#7F4F25" stroke="#010202" stroke-width="2.6966" stroke-linecap="round" stroke-linejoin="round" stroke-miterlimit="10" d="
			M67.991,110.381c0,3.973,14.141,4.52,14.141,4.52s37.334,0,40.629,0c4.088,0,11.828-0.023,11.828-4.688
			c0-4.662-7.74-4.688-11.828-4.688c-3.295,0-40.629,0-40.629,0S67.991,106.41,67.991,110.381z"/>
		<circle fill="#E8501D" stroke="#010202" stroke-width="2.0224" stroke-miterlimit="10" cx="118.778" cy="86.602" r="7.326"/>
		
			<circle fill="#E73389" stroke="#010202" stroke-width="2.6966" stroke-linecap="round" stroke-linejoin="round" stroke-miterlimit="10" cx="84.077" cy="94.302" r="4.3"/>
		<circle fill="#E8501D" stroke="#010202" stroke-width="2.0224" stroke-miterlimit="10" cx="118.778" cy="133.398" r="7.326"/>
		
			<circle fill="#E73389" stroke="#010202" stroke-width="2.6966" stroke-linecap="round" stroke-linejoin="round" stroke-miterlimit="10" cx="84.077" cy="125.698" r="4.3"/>
	</g>
	<g>
		
			<path fill="none" stroke="#010202" stroke-width="2.6966" stroke-linecap="round" stroke-linejoin="round" stroke-miterlimit="10" d="
			M207.331,200.787c-1.722,6.133-6.37,18.926-21.499,18.926"/>
		
			<path fill="none" stroke="#010202" stroke-width="2.6966" stroke-linecap="round" stroke-linejoin="round" stroke-miterlimit="10" d="
			M207.331,238.637c-1.753-6.123-6.37-18.924-21.499-18.924"/>
		
			<path fill="#FFD009" stroke="#010202" stroke-width="2.6966" stroke-linecap="round" stroke-linejoin="round" stroke-miterlimit="10" d="
			M174.099,218.738c12.226,0,22.138-9.91,22.138-22.137s-9.912-22.137-22.138-22.137s-22.137,9.91-22.137,22.137
			c0,0.402,0.012,0.805,0.033,1.203c-2.356-4.559-7.11-7.678-12.596-7.678c-7.829,0-14.174,6.346-14.174,14.174
			s6.345,14.174,14.174,14.174C147.041,218.475,164.793,218.738,174.099,218.738z"/>
		
			<path fill="#FFD009" stroke="#010202" stroke-width="2.6966" stroke-linecap="round" stroke-linejoin="round" stroke-miterlimit="10" d="
			M174.099,265.535c12.226,0,22.138-9.91,22.138-22.137s-9.912-22.137-22.138-22.137c-9.306,0-27.058,0.262-34.699,0.262
			c-7.829,0-14.174,6.346-14.174,14.174c0,7.83,6.345,14.176,14.174,14.176c5.485,0,10.239-3.119,12.596-7.678
			c-0.021,0.398-0.033,0.799-0.033,1.203C151.962,255.625,161.873,265.535,174.099,265.535z"/>
		
			<path fill="#7F4F25" stroke="#010202" stroke-width="2.6966" stroke-linecap="round" stroke-linejoin="round" stroke-miterlimit="10" d="
			M123.313,220.381c0,3.973,14.141,4.52,14.141,4.52s37.333,0,40.629,0c4.087,0,11.827-0.023,11.827-4.688
			c0-4.662-7.74-4.688-11.827-4.688c-3.296,0-40.629,0-40.629,0S123.313,216.41,123.313,220.381z"/>
		<circle fill="#E8501D" stroke="#010202" stroke-width="2.0224" stroke-miterlimit="10" cx="174.099" cy="196.602" r="7.326"/>
		
			<circle fill="#E73389" stroke="#010202" stroke-width="2.6966" stroke-linecap="round" stroke-linejoin="round" stroke-miterlimit="10" cx="139.398" cy="204.302" r="4.3"/>
	</g>
	<g>
		
			<path fill="none" stroke="#010202" stroke-width="2.6966" stroke-linecap="round" stroke-linejoin="round" stroke-miterlimit="10" d="
			M102.187,200.787c-1.722,6.133-6.37,18.926-21.499,18.926"/>
		
			<path fill="none" stroke="#010202" stroke-width="2.6966" stroke-linecap="round" stroke-linejoin="round" stroke-miterlimit="10" d="
			M102.187,238.637c-1.753-6.123-6.37-18.924-21.499-18.924"/>
		
			<path fill="#FFD009" stroke="#010202" stroke-width="2.6966" stroke-linecap="round" stroke-linejoin="round" stroke-miterlimit="10" d="
			M68.954,218.738c12.226,0,22.138-9.91,22.138-22.137s-9.912-22.137-22.138-22.137s-22.137,9.91-22.137,22.137
			c0,0.402,0.012,0.805,0.033,1.203c-2.356-4.559-7.11-7.678-12.595-7.678c-7.829,0-14.174,6.346-14.174,14.174
			s6.345,14.174,14.174,14.174C41.896,218.475,59.648,218.738,68.954,218.738z"/>
		
			<path fill="#FFD009" stroke="#010202" stroke-width="2.6966" stroke-linecap="round" stroke-linejoin="round" stroke-miterlimit="10" d="
			M68.954,265.535c12.226,0,22.138-9.91,22.138-22.137s-9.912-22.137-22.138-22.137c-9.306,0-27.058,0.262-34.699,0.262
			c-7.829,0-14.174,6.346-14.174,14.174c0,7.83,6.345,14.176,14.174,14.176c5.485,0,10.239-3.119,12.595-7.678
			c-0.021,0.398-0.033,0.799-0.033,1.203C46.817,255.625,56.729,265.535,68.954,265.535z"/>
		
			<path fill="#7F4F25" stroke="#010202" stroke-width="2.6966" stroke-linecap="round" stroke-linejoin="round" stroke-miterlimit="10" d="
			M18.168,220.381c0,3.973,14.14,4.52,14.14,4.52s37.333,0,40.629,0c4.087,0,11.827-0.023,11.827-4.688
			c0-4.662-7.74-4.688-11.827-4.688c-3.296,0-40.629,0-40.629,0S18.168,216.41,18.168,220.381z"/>
		<circle fill="#E8501D" stroke="#010202" stroke-width="2.0224" stroke-miterlimit="10" cx="68.954" cy="196.602" r="7.326"/>
		
			<circle fill="#E73389" stroke="#010202" stroke-width="2.6966" stroke-linecap="round" stroke-linejoin="round" stroke-miterlimit="10" cx="34.254" cy="204.302" r="4.3"/>
	</g>
	<g>
		
			<path fill="none" stroke="#010202" stroke-width="2.6966" stroke-linecap="round" stroke-linejoin="round" stroke-miterlimit="10" d="
			M207.331,200.787c-1.722,6.133-6.37,18.926-21.499,18.926"/>
		
			<path fill="none" stroke="#010202" stroke-width="2.6966" stroke-linecap="round" stroke-linejoin="round" stroke-miterlimit="10" d="
			M207.331,238.637c-1.753-6.123-6.37-18.924-21.499-18.924"/>
		
			<path fill="#FFD009" stroke="#010202" stroke-width="2.6966" stroke-linecap="round" stroke-linejoin="round" stroke-miterlimit="10" d="
			M174.099,218.738c12.226,0,22.138-9.91,22.138-22.137s-9.912-22.137-22.138-22.137s-22.137,9.91-22.137,22.137
			c0,0.402,0.012,0.805,0.033,1.203c-2.356-4.559-7.11-7.678-12.596-7.678c-7.829,0-14.174,6.346-14.174,14.174
			s6.345,14.174,14.174,14.174C147.041,218.475,164.793,218.738,174.099,218.738z"/>
		
			<path fill="#FFD009" stroke="#010202" stroke-width="2.6966" stroke-linecap="round" stroke-linejoin="round" stroke-miterlimit="10" d="
			M174.099,265.535c12.226,0,22.138-9.91,22.138-22.137s-9.912-22.137-22.138-22.137c-9.306,0-27.058,0.262-34.699,0.262
			c-7.829,0-14.174,6.346-14.174,14.174c0,7.83,6.345,14.176,14.174,14.176c5.485,0,10.239-3.119,12.596-7.678
			c-0.021,0.398-0.033,0.799-0.033,1.203C151.962,255.625,161.873,265.535,174.099,265.535z"/>
		
			<path fill="#7F4F25" stroke="#010202" stroke-width="2.6966" stroke-linecap="round" stroke-linejoin="round" stroke-miterlimit="10" d="
			M123.313,220.381c0,3.973,14.141,4.52,14.141,4.52s37.333,0,40.629,0c4.087,0,11.827-0.023,11.827-4.688
			c0-4.662-7.74-4.688-11.827-4.688c-3.296,0-40.629,0-40.629,0S123.313,216.41,123.313,220.381z"/>
		<circle fill="#E8501D" stroke="#010202" stroke-width="2.0224" stroke-miterlimit="10" cx="174.099" cy="196.602" r="7.326"/>
		
			<circle fill="#E73389" stroke="#010202" stroke-width="2.6966" stroke-linecap="round" stroke-linejoin="round" stroke-miterlimit="10" cx="139.398" cy="204.302" r="4.3"/>
	</g>
	<g>
		
			<path fill="none" stroke="#010202" stroke-width="2.6966" stroke-linecap="round" stroke-linejoin="round" stroke-miterlimit="10" d="
			M102.187,200.787c-1.722,6.133-6.37,18.926-21.499,18.926"/>
		
			<path fill="none" stroke="#010202" stroke-width="2.6966" stroke-linecap="round" stroke-linejoin="round" stroke-miterlimit="10" d="
			M102.187,238.637c-1.753-6.123-6.37-18.924-21.499-18.924"/>
		
			<path fill="#FFD009" stroke="#010202" stroke-width="2.6966" stroke-linecap="round" stroke-linejoin="round" stroke-miterlimit="10" d="
			M68.954,218.738c12.226,0,22.138-9.91,22.138-22.137s-9.912-22.137-22.138-22.137s-22.137,9.91-22.137,22.137
			c0,0.402,0.012,0.805,0.033,1.203c-2.356-4.559-7.11-7.678-12.595-7.678c-7.829,0-14.174,6.346-14.174,14.174
			s6.345,14.174,14.174,14.174C41.896,218.475,59.648,218.738,68.954,218.738z"/>
		
			<path fill="#FFD009" stroke="#010202" stroke-width="2.6966" stroke-linecap="round" stroke-linejoin="round" stroke-miterlimit="10" d="
			M68.954,265.535c12.226,0,22.138-9.91,22.138-22.137s-9.912-22.137-22.138-22.137c-9.306,0-27.058,0.262-34.699,0.262
			c-7.829,0-14.174,6.346-14.174,14.174c0,7.83,6.345,14.176,14.174,14.176c5.485,0,10.239-3.119,12.595-7.678
			c-0.021,0.398-0.033,0.799-0.033,1.203C46.817,255.625,56.729,265.535,68.954,265.535z"/>
		
			<path fill="#7F4F25" stroke="#010202" stroke-width="2.6966" stroke-linecap="round" stroke-linejoin="round" stroke-miterlimit="10" d="
			M18.168,220.381c0,3.973,14.14,4.52,14.14,4.52s37.333,0,40.629,0c4.087,0,11.827-0.023,11.827-4.688
			c0-4.662-7.74-4.688-11.827-4.688c-3.296,0-40.629,0-40.629,0S18.168,216.41,18.168,220.381z"/>
		<circle fill="#E8501D" stroke="#010202" stroke-width="2.0224" stroke-miterlimit="10" cx="68.954" cy="196.602" r="7.326"/>
		
			<circle fill="#E73389" stroke="#010202" stroke-width="2.6966" stroke-linecap="round" stroke-linejoin="round" stroke-miterlimit="10" cx="34.254" cy="204.302" r="4.3"/>
	</g>
	<g>
		
			<path fill="none" stroke="#010202" stroke-width="2.6966" stroke-linecap="round" stroke-linejoin="round" stroke-miterlimit="10" d="
			M42.01,90.787c-1.723,6.133-6.371,18.926-21.5,18.926"/>
		
			<path fill="none" stroke="#010202" stroke-width="2.6966" stroke-linecap="round" stroke-linejoin="round" stroke-miterlimit="10" d="
			M42.01,128.637c-1.754-6.123-6.371-18.924-21.5-18.924"/>
		
			<path fill="#FFD009" stroke="#010202" stroke-width="2.6966" stroke-linecap="round" stroke-linejoin="round" stroke-miterlimit="10" d="
			M8.777,108.738c12.225,0,22.137-9.91,22.137-22.137S21.002,64.465,8.777,64.465c-12.227,0-22.137,9.91-22.137,22.137
			c0,0.402,0.012,0.805,0.033,1.203c-2.357-4.559-7.111-7.678-12.596-7.678c-7.83,0-14.174,6.346-14.174,14.174
			s6.344,14.174,14.174,14.174C-18.281,108.475-0.529,108.738,8.777,108.738z"/>
		
			<path fill="#FFD009" stroke="#010202" stroke-width="2.6966" stroke-linecap="round" stroke-linejoin="round" stroke-miterlimit="10" d="
			M8.777,155.535c12.225,0,22.137-9.91,22.137-22.137s-9.912-22.137-22.137-22.137c-9.307,0-27.059,0.262-34.699,0.262
			c-7.83,0-14.174,6.346-14.174,14.174c0,7.83,6.344,14.176,14.174,14.176c5.484,0,10.238-3.119,12.596-7.678
			c-0.021,0.398-0.033,0.799-0.033,1.203C-13.359,145.625-3.449,155.535,8.777,155.535z"/>
		
			<path fill="#7F4F25" stroke="#010202" stroke-width="2.6966" stroke-linecap="round" stroke-linejoin="round" stroke-miterlimit="10" d="
			M-42.01,110.381c0,3.973,14.141,4.52,14.141,4.52s37.334,0,40.629,0c4.088,0,11.828-0.023,11.828-4.688
			c0-4.662-7.74-4.688-11.828-4.688c-3.295,0-40.629,0-40.629,0S-42.01,106.41-42.01,110.381z"/>
		<circle fill="#E8501D" stroke="#010202" stroke-width="2.0224" stroke-miterlimit="10" cx="8.777" cy="86.602" r="7.326"/>
		<circle fill="#E8501D" stroke="#010202" stroke-width="2.0224" stroke-miterlimit="10" cx="8.777" cy="133.398" r="7.326"/>
	</g>
</g>
</svg>
