<?xml version="1.0" encoding="utf-8"?>
<!-- Generator: Adobe Illustrator 16.0.0, SVG Export Plug-In . SVG Version: 6.00 Build 0)  -->
<!DOCTYPE svg PUBLIC "-//W3C//DTD SVG 1.1//EN" "http://www.w3.org/Graphics/SVG/1.1/DTD/svg11.dtd">
<svg version="1.1" xmlns="http://www.w3.org/2000/svg" xmlns:xlink="http://www.w3.org/1999/xlink" x="0px" y="0px" width="220px"
	 height="220px" viewBox="0 0 220 220" enable-background="new 0 0 220 220" xml:space="preserve">
<g id="bg">
</g>
<g id="Layer_1">
	<g>
		<g>
			
				<path fill="none" stroke="#010202" stroke-width="2.6966" stroke-linecap="round" stroke-linejoin="round" stroke-miterlimit="10" d="
				M-19.213,12.669c6.133,1.722,18.926,6.37,18.926,21.499"/>
			
				<path fill="none" stroke="#010202" stroke-width="2.6966" stroke-linecap="round" stroke-linejoin="round" stroke-miterlimit="10" d="
				M18.638,12.669c-6.125,1.753-18.925,6.37-18.925,21.499"/>
			
				<path fill="#FFD009" stroke="#010202" stroke-width="2.6966" stroke-linecap="round" stroke-linejoin="round" stroke-miterlimit="10" d="
				M-1.262,45.901c0-12.226-9.911-22.138-22.137-22.138s-22.137,9.912-22.137,22.138s9.911,22.137,22.137,22.137
				c0.404,0,0.805-0.012,1.203-0.033c-4.559,2.356-7.677,7.11-7.677,12.596c0,7.829,6.346,14.174,14.174,14.174
				S-1.525,88.43-1.525,80.601C-1.525,72.959-1.262,55.207-1.262,45.901z"/>
			
				<path fill="#FFD009" stroke="#010202" stroke-width="2.6966" stroke-linecap="round" stroke-linejoin="round" stroke-miterlimit="10" d="
				M45.536,45.901c0-12.226-9.911-22.138-22.137-22.138S1.261,33.676,1.261,45.901c0,9.306,0.263,27.058,0.263,34.699
				c0,7.829,6.346,14.174,14.174,14.174s14.174-6.345,14.174-14.174c0-5.485-3.118-10.239-7.677-12.596
				c0.398,0.021,0.799,0.033,1.203,0.033C35.625,68.038,45.536,58.127,45.536,45.901z"/>
			
				<path fill="#7F4F25" stroke="#010202" stroke-width="2.6966" stroke-linecap="round" stroke-linejoin="round" stroke-miterlimit="10" d="
				M0.382,96.688c3.972,0,4.519-14.141,4.519-14.141s0-37.333,0-40.629c0-4.087-0.024-11.827-4.688-11.827s-4.688,7.74-4.688,11.827
				c0,3.296,0,40.629,0,40.629S-3.59,96.688,0.382,96.688z"/>
			<circle fill="#0073B3" stroke="#010202" stroke-width="2.0224" stroke-miterlimit="10" cx="23.398" cy="45.901" r="7.326"/>
			
				<circle fill="#010202" stroke="#010202" stroke-width="2.6966" stroke-linecap="round" stroke-linejoin="round" stroke-miterlimit="10" cx="15.698" cy="80.602" r="4.3"/>
		</g>
		<g>
			
				<path fill="none" stroke="#010202" stroke-width="2.6966" stroke-linecap="round" stroke-linejoin="round" stroke-miterlimit="10" d="
				M-19.213,117.813c6.133,1.722,18.926,6.37,18.926,21.499"/>
			
				<path fill="none" stroke="#010202" stroke-width="2.6966" stroke-linecap="round" stroke-linejoin="round" stroke-miterlimit="10" d="
				M18.638,117.813c-6.125,1.753-18.925,6.37-18.925,21.499"/>
			
				<path fill="#FFD009" stroke="#010202" stroke-width="2.6966" stroke-linecap="round" stroke-linejoin="round" stroke-miterlimit="10" d="
				M-1.262,151.046c0-12.226-9.911-22.138-22.137-22.138s-22.137,9.912-22.137,22.138s9.911,22.137,22.137,22.137
				c0.404,0,0.805-0.012,1.203-0.033c-4.559,2.356-7.677,7.11-7.677,12.596c0,7.829,6.346,14.174,14.174,14.174
				s14.174-6.345,14.174-14.174C-1.525,178.104-1.262,160.352-1.262,151.046z"/>
			
				<path fill="#FFD009" stroke="#010202" stroke-width="2.6966" stroke-linecap="round" stroke-linejoin="round" stroke-miterlimit="10" d="
				M45.536,151.046c0-12.226-9.911-22.138-22.137-22.138S1.261,138.82,1.261,151.046c0,9.306,0.263,27.058,0.263,34.699
				c0,7.829,6.346,14.174,14.174,14.174s14.174-6.345,14.174-14.174c0-5.485-3.118-10.239-7.677-12.596
				c0.398,0.021,0.799,0.033,1.203,0.033C35.625,173.183,45.536,163.271,45.536,151.046z"/>
			
				<path fill="#7F4F25" stroke="#010202" stroke-width="2.6966" stroke-linecap="round" stroke-linejoin="round" stroke-miterlimit="10" d="
				M0.382,201.832c3.972,0,4.519-14.141,4.519-14.141s0-37.333,0-40.629c0-4.087-0.024-11.827-4.688-11.827
				s-4.688,7.74-4.688,11.827c0,3.296,0,40.629,0,40.629S-3.59,201.832,0.382,201.832z"/>
			<circle fill="#0073B3" stroke="#010202" stroke-width="2.0224" stroke-miterlimit="10" cx="23.398" cy="151.046" r="7.326"/>
			
				<circle fill="#010202" stroke="#010202" stroke-width="2.6966" stroke-linecap="round" stroke-linejoin="round" stroke-miterlimit="10" cx="15.698" cy="185.746" r="4.3"/>
		</g>
		<g>
			
				<path fill="none" stroke="#010202" stroke-width="2.6966" stroke-linecap="round" stroke-linejoin="round" stroke-miterlimit="10" d="
				M129.214,42.01c-6.133-1.723-18.926-6.371-18.926-21.5"/>
			
				<path fill="none" stroke="#010202" stroke-width="2.6966" stroke-linecap="round" stroke-linejoin="round" stroke-miterlimit="10" d="
				M91.363,42.01c6.125-1.754,18.925-6.371,18.925-21.5"/>
			
				<path fill="#FFD009" stroke="#010202" stroke-width="2.6966" stroke-linecap="round" stroke-linejoin="round" stroke-miterlimit="10" d="
				M111.262,8.777c0,12.225,9.911,22.137,22.137,22.137s22.137-9.912,22.137-22.137c0-12.227-9.91-22.137-22.137-22.137
				c-0.404,0-0.805,0.012-1.203,0.033c4.559-2.357,7.677-7.111,7.677-12.596c0-7.83-6.346-14.174-14.174-14.174
				c-7.828,0-14.174,6.344-14.174,14.174C111.525-18.281,111.262-0.529,111.262,8.777z"/>
			
				<path fill="#FFD009" stroke="#010202" stroke-width="2.6966" stroke-linecap="round" stroke-linejoin="round" stroke-miterlimit="10" d="
				M64.465,8.777c0,12.225,9.911,22.137,22.137,22.137s22.137-9.912,22.137-22.137c0-9.307-0.263-27.059-0.263-34.699
				c0-7.83-6.346-14.174-14.174-14.174s-14.174,6.344-14.174,14.174c0,5.484,3.118,10.238,7.677,12.596
				c-0.398-0.021-0.799-0.033-1.203-0.033C74.376-13.359,64.465-3.449,64.465,8.777z"/>
			
				<path fill="#7F4F25" stroke="#010202" stroke-width="2.6966" stroke-linecap="round" stroke-linejoin="round" stroke-miterlimit="10" d="
				M109.619-42.01c-3.972,0-4.519,14.141-4.519,14.141s0,37.334,0,40.629c0,4.088,0.024,11.828,4.688,11.828
				s4.688-7.74,4.688-11.828c0-3.295,0-40.629,0-40.629S113.59-42.01,109.619-42.01z"/>
			<circle fill="#0073B3" stroke="#010202" stroke-width="2.0224" stroke-miterlimit="10" cx="133.399" cy="8.777" r="7.326"/>
			<circle fill="#0073B3" stroke="#010202" stroke-width="2.0224" stroke-miterlimit="10" cx="86.602" cy="8.777" r="7.326"/>
		</g>
		<g>
			
				<path fill="none" stroke="#010202" stroke-width="2.6966" stroke-linecap="round" stroke-linejoin="round" stroke-miterlimit="10" d="
				M129.214,152.01c-6.133-1.723-18.926-6.371-18.926-21.5"/>
			
				<path fill="none" stroke="#010202" stroke-width="2.6966" stroke-linecap="round" stroke-linejoin="round" stroke-miterlimit="10" d="
				M91.363,152.01c6.125-1.754,18.925-6.371,18.925-21.5"/>
			
				<path fill="#FFD009" stroke="#010202" stroke-width="2.6966" stroke-linecap="round" stroke-linejoin="round" stroke-miterlimit="10" d="
				M111.262,118.777c0,12.225,9.911,22.137,22.137,22.137s22.137-9.912,22.137-22.137c0-12.227-9.91-22.137-22.137-22.137
				c-0.404,0-0.805,0.012-1.203,0.033c4.559-2.357,7.677-7.111,7.677-12.596c0-7.83-6.346-14.174-14.174-14.174
				c-7.828,0-14.174,6.344-14.174,14.174C111.525,91.719,111.262,109.471,111.262,118.777z"/>
			
				<path fill="#FFD009" stroke="#010202" stroke-width="2.6966" stroke-linecap="round" stroke-linejoin="round" stroke-miterlimit="10" d="
				M64.465,118.777c0,12.225,9.911,22.137,22.137,22.137s22.137-9.912,22.137-22.137c0-9.307-0.263-27.059-0.263-34.699
				c0-7.83-6.346-14.174-14.174-14.174s-14.174,6.344-14.174,14.174c0,5.484,3.118,10.238,7.677,12.596
				c-0.398-0.021-0.799-0.033-1.203-0.033C74.376,96.641,64.465,106.551,64.465,118.777z"/>
			
				<path fill="#7F4F25" stroke="#010202" stroke-width="2.6966" stroke-linecap="round" stroke-linejoin="round" stroke-miterlimit="10" d="
				M109.619,67.99c-3.972,0-4.519,14.141-4.519,14.141s0,37.334,0,40.629c0,4.088,0.024,11.828,4.688,11.828
				s4.688-7.74,4.688-11.828c0-3.295,0-40.629,0-40.629S113.59,67.99,109.619,67.99z"/>
			<circle fill="#0073B3" stroke="#010202" stroke-width="2.0224" stroke-miterlimit="10" cx="133.399" cy="118.777" r="7.326"/>
			
				<path fill="#010202" stroke="#010202" stroke-width="2.6966" stroke-linecap="round" stroke-linejoin="round" stroke-miterlimit="10" d="
				M121.399,84.076c0-2.373,1.925-4.299,4.3-4.299s4.3,1.926,4.3,4.299c0,2.377-1.925,4.301-4.3,4.301
				S121.399,86.453,121.399,84.076z"/>
			<circle fill="#0073B3" stroke="#010202" stroke-width="2.0224" stroke-miterlimit="10" cx="86.602" cy="118.777" r="7.326"/>
			
				<path fill="#010202" stroke="#010202" stroke-width="2.6966" stroke-linecap="round" stroke-linejoin="round" stroke-miterlimit="10" d="
				M98.603,84.076c0-2.373-1.925-4.299-4.3-4.299s-4.3,1.926-4.3,4.299c0,2.377,1.925,4.301,4.3,4.301S98.603,86.453,98.603,84.076z
				"/>
		</g>
		<g>
			
				<path fill="none" stroke="#010202" stroke-width="2.6966" stroke-linecap="round" stroke-linejoin="round" stroke-miterlimit="10" d="
				M200.787,12.669c6.133,1.722,18.926,6.37,18.926,21.499"/>
			
				<path fill="none" stroke="#010202" stroke-width="2.6966" stroke-linecap="round" stroke-linejoin="round" stroke-miterlimit="10" d="
				M238.638,12.669c-6.125,1.753-18.925,6.37-18.925,21.499"/>
			
				<path fill="#FFD009" stroke="#010202" stroke-width="2.6966" stroke-linecap="round" stroke-linejoin="round" stroke-miterlimit="10" d="
				M218.738,45.901c0-12.226-9.911-22.138-22.137-22.138s-22.137,9.912-22.137,22.138s9.911,22.137,22.137,22.137
				c0.404,0,0.805-0.012,1.203-0.033c-4.559,2.356-7.677,7.11-7.677,12.596c0,7.829,6.346,14.174,14.174,14.174
				s14.174-6.345,14.174-14.174C218.475,72.959,218.738,55.207,218.738,45.901z"/>
			
				<path fill="#FFD009" stroke="#010202" stroke-width="2.6966" stroke-linecap="round" stroke-linejoin="round" stroke-miterlimit="10" d="
				M265.536,45.901c0-12.226-9.911-22.138-22.137-22.138s-22.137,9.912-22.137,22.138c0,9.306,0.263,27.058,0.263,34.699
				c0,7.829,6.346,14.174,14.174,14.174s14.174-6.345,14.174-14.174c0-5.485-3.118-10.239-7.677-12.596
				c0.398,0.021,0.799,0.033,1.203,0.033C255.625,68.038,265.536,58.127,265.536,45.901z"/>
			
				<path fill="#7F4F25" stroke="#010202" stroke-width="2.6966" stroke-linecap="round" stroke-linejoin="round" stroke-miterlimit="10" d="
				M220.382,96.688c3.972,0,4.519-14.141,4.519-14.141s0-37.333,0-40.629c0-4.087-0.024-11.827-4.688-11.827
				s-4.688,7.74-4.688,11.827c0,3.296,0,40.629,0,40.629S216.41,96.688,220.382,96.688z"/>
			<circle fill="#0073B3" stroke="#010202" stroke-width="2.0224" stroke-miterlimit="10" cx="196.601" cy="45.901" r="7.326"/>
			
				<circle fill="#010202" stroke="#010202" stroke-width="2.6966" stroke-linecap="round" stroke-linejoin="round" stroke-miterlimit="10" cx="204.301" cy="80.602" r="4.3"/>
		</g>
		<g>
			
				<path fill="none" stroke="#010202" stroke-width="2.6966" stroke-linecap="round" stroke-linejoin="round" stroke-miterlimit="10" d="
				M200.787,117.813c6.133,1.722,18.926,6.37,18.926,21.499"/>
			
				<path fill="none" stroke="#010202" stroke-width="2.6966" stroke-linecap="round" stroke-linejoin="round" stroke-miterlimit="10" d="
				M238.638,117.813c-6.125,1.753-18.925,6.37-18.925,21.499"/>
			
				<path fill="#FFD009" stroke="#010202" stroke-width="2.6966" stroke-linecap="round" stroke-linejoin="round" stroke-miterlimit="10" d="
				M218.738,151.046c0-12.226-9.911-22.138-22.137-22.138s-22.137,9.912-22.137,22.138s9.911,22.137,22.137,22.137
				c0.404,0,0.805-0.012,1.203-0.033c-4.559,2.356-7.677,7.11-7.677,12.596c0,7.829,6.346,14.174,14.174,14.174
				s14.174-6.345,14.174-14.174C218.475,178.104,218.738,160.352,218.738,151.046z"/>
			
				<path fill="#FFD009" stroke="#010202" stroke-width="2.6966" stroke-linecap="round" stroke-linejoin="round" stroke-miterlimit="10" d="
				M265.536,151.046c0-12.226-9.911-22.138-22.137-22.138s-22.137,9.912-22.137,22.138c0,9.306,0.263,27.058,0.263,34.699
				c0,7.829,6.346,14.174,14.174,14.174s14.174-6.345,14.174-14.174c0-5.485-3.118-10.239-7.677-12.596
				c0.398,0.021,0.799,0.033,1.203,0.033C255.625,173.183,265.536,163.271,265.536,151.046z"/>
			
				<path fill="#7F4F25" stroke="#010202" stroke-width="2.6966" stroke-linecap="round" stroke-linejoin="round" stroke-miterlimit="10" d="
				M220.382,201.832c3.972,0,4.519-14.141,4.519-14.141s0-37.333,0-40.629c0-4.087-0.024-11.827-4.688-11.827
				s-4.688,7.74-4.688,11.827c0,3.296,0,40.629,0,40.629S216.41,201.832,220.382,201.832z"/>
			<circle fill="#0073B3" stroke="#010202" stroke-width="2.0224" stroke-miterlimit="10" cx="196.601" cy="151.046" r="7.326"/>
			
				<circle fill="#010202" stroke="#010202" stroke-width="2.6966" stroke-linecap="round" stroke-linejoin="round" stroke-miterlimit="10" cx="204.301" cy="185.746" r="4.3"/>
		</g>
		<g>
			
				<path fill="none" stroke="#010202" stroke-width="2.6966" stroke-linecap="round" stroke-linejoin="round" stroke-miterlimit="10" d="
				M200.787,12.669c6.133,1.722,18.926,6.37,18.926,21.499"/>
			
				<path fill="none" stroke="#010202" stroke-width="2.6966" stroke-linecap="round" stroke-linejoin="round" stroke-miterlimit="10" d="
				M238.638,12.669c-6.125,1.753-18.925,6.37-18.925,21.499"/>
			
				<path fill="#FFD009" stroke="#010202" stroke-width="2.6966" stroke-linecap="round" stroke-linejoin="round" stroke-miterlimit="10" d="
				M218.738,45.901c0-12.226-9.911-22.138-22.137-22.138s-22.137,9.912-22.137,22.138s9.911,22.137,22.137,22.137
				c0.404,0,0.805-0.012,1.203-0.033c-4.559,2.356-7.677,7.11-7.677,12.596c0,7.829,6.346,14.174,14.174,14.174
				s14.174-6.345,14.174-14.174C218.475,72.959,218.738,55.207,218.738,45.901z"/>
			
				<path fill="#FFD009" stroke="#010202" stroke-width="2.6966" stroke-linecap="round" stroke-linejoin="round" stroke-miterlimit="10" d="
				M265.536,45.901c0-12.226-9.911-22.138-22.137-22.138s-22.137,9.912-22.137,22.138c0,9.306,0.263,27.058,0.263,34.699
				c0,7.829,6.346,14.174,14.174,14.174s14.174-6.345,14.174-14.174c0-5.485-3.118-10.239-7.677-12.596
				c0.398,0.021,0.799,0.033,1.203,0.033C255.625,68.038,265.536,58.127,265.536,45.901z"/>
			
				<path fill="#7F4F25" stroke="#010202" stroke-width="2.6966" stroke-linecap="round" stroke-linejoin="round" stroke-miterlimit="10" d="
				M220.382,96.688c3.972,0,4.519-14.141,4.519-14.141s0-37.333,0-40.629c0-4.087-0.024-11.827-4.688-11.827
				s-4.688,7.74-4.688,11.827c0,3.296,0,40.629,0,40.629S216.41,96.688,220.382,96.688z"/>
			<circle fill="#0073B3" stroke="#010202" stroke-width="2.0224" stroke-miterlimit="10" cx="196.601" cy="45.901" r="7.326"/>
			
				<circle fill="#010202" stroke="#010202" stroke-width="2.6966" stroke-linecap="round" stroke-linejoin="round" stroke-miterlimit="10" cx="204.301" cy="80.602" r="4.3"/>
		</g>
		<g>
			
				<path fill="none" stroke="#010202" stroke-width="2.6966" stroke-linecap="round" stroke-linejoin="round" stroke-miterlimit="10" d="
				M200.787,117.813c6.133,1.722,18.926,6.37,18.926,21.499"/>
			
				<path fill="none" stroke="#010202" stroke-width="2.6966" stroke-linecap="round" stroke-linejoin="round" stroke-miterlimit="10" d="
				M238.638,117.813c-6.125,1.753-18.925,6.37-18.925,21.499"/>
			
				<path fill="#FFD009" stroke="#010202" stroke-width="2.6966" stroke-linecap="round" stroke-linejoin="round" stroke-miterlimit="10" d="
				M218.738,151.046c0-12.226-9.911-22.138-22.137-22.138s-22.137,9.912-22.137,22.138s9.911,22.137,22.137,22.137
				c0.404,0,0.805-0.012,1.203-0.033c-4.559,2.356-7.677,7.11-7.677,12.596c0,7.829,6.346,14.174,14.174,14.174
				s14.174-6.345,14.174-14.174C218.475,178.104,218.738,160.352,218.738,151.046z"/>
			
				<path fill="#FFD009" stroke="#010202" stroke-width="2.6966" stroke-linecap="round" stroke-linejoin="round" stroke-miterlimit="10" d="
				M265.536,151.046c0-12.226-9.911-22.138-22.137-22.138s-22.137,9.912-22.137,22.138c0,9.306,0.263,27.058,0.263,34.699
				c0,7.829,6.346,14.174,14.174,14.174s14.174-6.345,14.174-14.174c0-5.485-3.118-10.239-7.677-12.596
				c0.398,0.021,0.799,0.033,1.203,0.033C255.625,173.183,265.536,163.271,265.536,151.046z"/>
			
				<path fill="#7F4F25" stroke="#010202" stroke-width="2.6966" stroke-linecap="round" stroke-linejoin="round" stroke-miterlimit="10" d="
				M220.382,201.832c3.972,0,4.519-14.141,4.519-14.141s0-37.333,0-40.629c0-4.087-0.024-11.827-4.688-11.827
				s-4.688,7.74-4.688,11.827c0,3.296,0,40.629,0,40.629S216.41,201.832,220.382,201.832z"/>
			<circle fill="#0073B3" stroke="#010202" stroke-width="2.0224" stroke-miterlimit="10" cx="196.601" cy="151.046" r="7.326"/>
			
				<circle fill="#010202" stroke="#010202" stroke-width="2.6966" stroke-linecap="round" stroke-linejoin="round" stroke-miterlimit="10" cx="204.301" cy="185.746" r="4.3"/>
		</g>
		
			<path fill="#FFD009" stroke="#010202" stroke-width="2.6966" stroke-linecap="round" stroke-linejoin="round" stroke-miterlimit="10" d="
			M111.262,228.777c0,12.225,9.911,22.137,22.137,22.137s22.137-9.912,22.137-22.137c0-12.227-9.91-22.137-22.137-22.137
			c-0.404,0-0.805,0.012-1.203,0.033c4.559-2.357,7.677-7.111,7.677-12.596c0-7.83-6.346-14.174-14.174-14.174
			c-7.828,0-14.174,6.344-14.174,14.174C111.525,201.719,111.262,219.471,111.262,228.777z"/>
		
			<path fill="#FFD009" stroke="#010202" stroke-width="2.6966" stroke-linecap="round" stroke-linejoin="round" stroke-miterlimit="10" d="
			M64.465,228.777c0,12.225,9.911,22.137,22.137,22.137s22.137-9.912,22.137-22.137c0-9.307-0.263-27.059-0.263-34.699
			c0-7.83-6.346-14.174-14.174-14.174s-14.174,6.344-14.174,14.174c0,5.484,3.118,10.238,7.677,12.596
			c-0.398-0.021-0.799-0.033-1.203-0.033C74.376,206.641,64.465,216.551,64.465,228.777z"/>
		
			<path fill="#7F4F25" stroke="#010202" stroke-width="2.6966" stroke-linecap="round" stroke-linejoin="round" stroke-miterlimit="10" d="
			M109.619,177.99c-3.972,0-4.519,14.141-4.519,14.141s0,37.334,0,40.629c0,4.088,0.024,11.828,4.688,11.828
			s4.688-7.74,4.688-11.828c0-3.295,0-40.629,0-40.629S113.59,177.99,109.619,177.99z"/>
		
			<path fill="#010202" stroke="#010202" stroke-width="2.6966" stroke-linecap="round" stroke-linejoin="round" stroke-miterlimit="10" d="
			M121.399,194.076c0-2.373,1.925-4.299,4.3-4.299s4.3,1.926,4.3,4.299c0,2.377-1.925,4.301-4.3,4.301
			S121.399,196.453,121.399,194.076z"/>
		
			<path fill="#010202" stroke="#010202" stroke-width="2.6966" stroke-linecap="round" stroke-linejoin="round" stroke-miterlimit="10" d="
			M98.603,194.076c0-2.373-1.925-4.299-4.3-4.299s-4.3,1.926-4.3,4.299c0,2.377,1.925,4.301,4.3,4.301
			S98.603,196.453,98.603,194.076z"/>
	</g>
</g>
</svg>
