<?xml version="1.0" encoding="utf-8"?>
<!-- Generator: Adobe Illustrator 16.0.0, SVG Export Plug-In . SVG Version: 6.00 Build 0)  -->
<!DOCTYPE svg PUBLIC "-//W3C//DTD SVG 1.1//EN" "http://www.w3.org/Graphics/SVG/1.1/DTD/svg11.dtd">
<svg version="1.1" xmlns="http://www.w3.org/2000/svg" xmlns:xlink="http://www.w3.org/1999/xlink" x="0px" y="0px" width="220px"
	 height="220px" viewBox="0 0 220 220" enable-background="new 0 0 220 220" xml:space="preserve">
<g id="bg">
</g>
<g id="Layer_1">
	<g>
		<g>
			
				<path fill="none" stroke="#010202" stroke-width="2.6966" stroke-linecap="round" stroke-linejoin="round" stroke-miterlimit="10" d="
				M12.669,239.213c1.722-6.133,6.37-18.926,21.499-18.926"/>
			
				<path fill="none" stroke="#010202" stroke-width="2.6966" stroke-linecap="round" stroke-linejoin="round" stroke-miterlimit="10" d="
				M12.669,201.363c1.753,6.123,6.37,18.924,21.499,18.924"/>
			
				<path fill="#FFD009" stroke="#010202" stroke-width="2.6966" stroke-linecap="round" stroke-linejoin="round" stroke-miterlimit="10" d="
				M45.901,221.262c-12.226,0-22.138,9.91-22.138,22.137s9.912,22.137,22.138,22.137s22.137-9.91,22.137-22.137
				c0-0.402-0.012-0.805-0.033-1.203c2.356,4.559,7.11,7.678,12.596,7.678c7.829,0,14.174-6.346,14.174-14.174
				s-6.345-14.174-14.174-14.174C72.959,221.525,55.207,221.262,45.901,221.262z"/>
			
				<path fill="#FFD009" stroke="#010202" stroke-width="2.6966" stroke-linecap="round" stroke-linejoin="round" stroke-miterlimit="10" d="
				M45.901,174.465c-12.226,0-22.138,9.91-22.138,22.137s9.912,22.137,22.138,22.137c9.306,0,27.058-0.262,34.699-0.262
				c7.829,0,14.174-6.346,14.174-14.174c0-7.83-6.345-14.176-14.174-14.176c-5.485,0-10.239,3.119-12.596,7.678
				c0.021-0.398,0.033-0.799,0.033-1.203C68.038,184.375,58.127,174.465,45.901,174.465z"/>
			
				<path fill="#7F4F25" stroke="#010202" stroke-width="2.6966" stroke-linecap="round" stroke-linejoin="round" stroke-miterlimit="10" d="
				M96.688,219.619c0-3.973-14.141-4.52-14.141-4.52s-37.333,0-40.629,0c-4.087,0-11.827,0.023-11.827,4.688
				c0,4.662,7.74,4.688,11.827,4.688c3.296,0,40.629,0,40.629,0S96.688,223.59,96.688,219.619z"/>
			<circle fill="#0073B3" stroke="#010202" stroke-width="2.0224" stroke-miterlimit="10" cx="45.901" cy="196.602" r="7.326"/>
			
				<circle fill="#010202" stroke="#010202" stroke-width="2.6966" stroke-linecap="round" stroke-linejoin="round" stroke-miterlimit="10" cx="80.602" cy="204.302" r="4.3"/>
		</g>
		<g>
			
				<path fill="none" stroke="#010202" stroke-width="2.6966" stroke-linecap="round" stroke-linejoin="round" stroke-miterlimit="10" d="
				M117.813,239.213c1.722-6.133,6.37-18.926,21.499-18.926"/>
			
				<path fill="none" stroke="#010202" stroke-width="2.6966" stroke-linecap="round" stroke-linejoin="round" stroke-miterlimit="10" d="
				M117.813,201.363c1.753,6.123,6.37,18.924,21.499,18.924"/>
			
				<path fill="#FFD009" stroke="#010202" stroke-width="2.6966" stroke-linecap="round" stroke-linejoin="round" stroke-miterlimit="10" d="
				M151.046,221.262c-12.226,0-22.138,9.91-22.138,22.137s9.912,22.137,22.138,22.137s22.137-9.91,22.137-22.137
				c0-0.402-0.012-0.805-0.033-1.203c2.356,4.559,7.11,7.678,12.596,7.678c7.829,0,14.174-6.346,14.174-14.174
				s-6.345-14.174-14.174-14.174C178.104,221.525,160.352,221.262,151.046,221.262z"/>
			
				<path fill="#FFD009" stroke="#010202" stroke-width="2.6966" stroke-linecap="round" stroke-linejoin="round" stroke-miterlimit="10" d="
				M151.046,174.465c-12.226,0-22.138,9.91-22.138,22.137s9.912,22.137,22.138,22.137c9.306,0,27.058-0.262,34.699-0.262
				c7.829,0,14.174-6.346,14.174-14.174c0-7.83-6.345-14.176-14.174-14.176c-5.485,0-10.239,3.119-12.596,7.678
				c0.021-0.398,0.033-0.799,0.033-1.203C173.183,184.375,163.271,174.465,151.046,174.465z"/>
			
				<path fill="#7F4F25" stroke="#010202" stroke-width="2.6966" stroke-linecap="round" stroke-linejoin="round" stroke-miterlimit="10" d="
				M201.832,219.619c0-3.973-14.141-4.52-14.141-4.52s-37.333,0-40.629,0c-4.087,0-11.827,0.023-11.827,4.688
				c0,4.662,7.74,4.688,11.827,4.688c3.296,0,40.629,0,40.629,0S201.832,223.59,201.832,219.619z"/>
			<circle fill="#0073B3" stroke="#010202" stroke-width="2.0224" stroke-miterlimit="10" cx="151.046" cy="196.602" r="7.326"/>
			
				<circle fill="#010202" stroke="#010202" stroke-width="2.6966" stroke-linecap="round" stroke-linejoin="round" stroke-miterlimit="10" cx="185.746" cy="204.302" r="4.3"/>
		</g>
		<g>
			
				<path fill="none" stroke="#010202" stroke-width="2.6966" stroke-linecap="round" stroke-linejoin="round" stroke-miterlimit="10" d="
				M42.01,90.787c-1.723,6.133-6.371,18.926-21.5,18.926"/>
			
				<path fill="none" stroke="#010202" stroke-width="2.6966" stroke-linecap="round" stroke-linejoin="round" stroke-miterlimit="10" d="
				M42.01,128.637c-1.754-6.123-6.371-18.924-21.5-18.924"/>
			
				<path fill="#FFD009" stroke="#010202" stroke-width="2.6966" stroke-linecap="round" stroke-linejoin="round" stroke-miterlimit="10" d="
				M8.777,108.738c12.225,0,22.137-9.91,22.137-22.137S21.002,64.465,8.777,64.465c-12.227,0-22.137,9.91-22.137,22.137
				c0,0.402,0.012,0.805,0.033,1.203c-2.357-4.559-7.111-7.678-12.596-7.678c-7.83,0-14.174,6.346-14.174,14.174
				s6.344,14.174,14.174,14.174C-18.281,108.475-0.529,108.738,8.777,108.738z"/>
			
				<path fill="#FFD009" stroke="#010202" stroke-width="2.6966" stroke-linecap="round" stroke-linejoin="round" stroke-miterlimit="10" d="
				M8.777,155.535c12.225,0,22.137-9.91,22.137-22.137s-9.912-22.137-22.137-22.137c-9.307,0-27.059,0.262-34.699,0.262
				c-7.83,0-14.174,6.346-14.174,14.174c0,7.83,6.344,14.176,14.174,14.176c5.484,0,10.238-3.119,12.596-7.678
				c-0.021,0.398-0.033,0.799-0.033,1.203C-13.359,145.625-3.449,155.535,8.777,155.535z"/>
			
				<path fill="#7F4F25" stroke="#010202" stroke-width="2.6966" stroke-linecap="round" stroke-linejoin="round" stroke-miterlimit="10" d="
				M-42.01,110.381c0,3.973,14.141,4.52,14.141,4.52s37.334,0,40.629,0c4.088,0,11.828-0.023,11.828-4.688
				c0-4.662-7.74-4.688-11.828-4.688c-3.295,0-40.629,0-40.629,0S-42.01,106.41-42.01,110.381z"/>
			<circle fill="#0073B3" stroke="#010202" stroke-width="2.0224" stroke-miterlimit="10" cx="8.777" cy="86.602" r="7.326"/>
			<circle fill="#0073B3" stroke="#010202" stroke-width="2.0224" stroke-miterlimit="10" cx="8.777" cy="133.398" r="7.326"/>
		</g>
		<g>
			
				<path fill="none" stroke="#010202" stroke-width="2.6966" stroke-linecap="round" stroke-linejoin="round" stroke-miterlimit="10" d="
				M152.01,90.787c-1.723,6.133-6.371,18.926-21.5,18.926"/>
			
				<path fill="none" stroke="#010202" stroke-width="2.6966" stroke-linecap="round" stroke-linejoin="round" stroke-miterlimit="10" d="
				M152.01,128.637c-1.754-6.123-6.371-18.924-21.5-18.924"/>
			
				<path fill="#FFD009" stroke="#010202" stroke-width="2.6966" stroke-linecap="round" stroke-linejoin="round" stroke-miterlimit="10" d="
				M118.777,108.738c12.225,0,22.137-9.91,22.137-22.137s-9.912-22.137-22.137-22.137c-12.227,0-22.137,9.91-22.137,22.137
				c0,0.402,0.012,0.805,0.033,1.203c-2.357-4.559-7.111-7.678-12.596-7.678c-7.83,0-14.174,6.346-14.174,14.174
				s6.344,14.174,14.174,14.174C91.719,108.475,109.471,108.738,118.777,108.738z"/>
			
				<path fill="#FFD009" stroke="#010202" stroke-width="2.6966" stroke-linecap="round" stroke-linejoin="round" stroke-miterlimit="10" d="
				M118.777,155.535c12.225,0,22.137-9.91,22.137-22.137s-9.912-22.137-22.137-22.137c-9.307,0-27.059,0.262-34.699,0.262
				c-7.83,0-14.174,6.346-14.174,14.174c0,7.83,6.344,14.176,14.174,14.176c5.484,0,10.238-3.119,12.596-7.678
				c-0.021,0.398-0.033,0.799-0.033,1.203C96.641,145.625,106.551,155.535,118.777,155.535z"/>
			
				<path fill="#7F4F25" stroke="#010202" stroke-width="2.6966" stroke-linecap="round" stroke-linejoin="round" stroke-miterlimit="10" d="
				M67.99,110.381c0,3.973,14.141,4.52,14.141,4.52s37.334,0,40.629,0c4.088,0,11.828-0.023,11.828-4.688
				c0-4.662-7.74-4.688-11.828-4.688c-3.295,0-40.629,0-40.629,0S67.99,106.41,67.99,110.381z"/>
			<circle fill="#0073B3" stroke="#010202" stroke-width="2.0224" stroke-miterlimit="10" cx="118.777" cy="86.602" r="7.326"/>
			
				<path fill="#010202" stroke="#010202" stroke-width="2.6966" stroke-linecap="round" stroke-linejoin="round" stroke-miterlimit="10" d="
				M84.076,98.602c-2.373,0-4.298-1.926-4.298-4.301s1.926-4.299,4.298-4.299c2.377,0,4.301,1.924,4.301,4.299
				S86.453,98.602,84.076,98.602z"/>
			<circle fill="#0073B3" stroke="#010202" stroke-width="2.0224" stroke-miterlimit="10" cx="118.777" cy="133.398" r="7.326"/>
			
				<path fill="#010202" stroke="#010202" stroke-width="2.6966" stroke-linecap="round" stroke-linejoin="round" stroke-miterlimit="10" d="
				M84.076,121.398c-2.373,0-4.298,1.924-4.298,4.299s1.926,4.301,4.298,4.301c2.377,0,4.301-1.926,4.301-4.301
				S86.453,121.398,84.076,121.398z"/>
		</g>
		<g>
			
				<path fill="none" stroke="#010202" stroke-width="2.6966" stroke-linecap="round" stroke-linejoin="round" stroke-miterlimit="10" d="
				M12.669,19.213c1.722-6.133,6.37-18.926,21.499-18.926"/>
			
				<path fill="none" stroke="#010202" stroke-width="2.6966" stroke-linecap="round" stroke-linejoin="round" stroke-miterlimit="10" d="
				M12.669-18.637c1.753,6.123,6.37,18.924,21.499,18.924"/>
			
				<path fill="#FFD009" stroke="#010202" stroke-width="2.6966" stroke-linecap="round" stroke-linejoin="round" stroke-miterlimit="10" d="
				M45.901,1.262c-12.226,0-22.138,9.91-22.138,22.137s9.912,22.137,22.138,22.137s22.137-9.91,22.137-22.137
				c0-0.402-0.012-0.805-0.033-1.203c2.356,4.559,7.11,7.678,12.596,7.678c7.829,0,14.174-6.346,14.174-14.174
				S88.43,1.525,80.601,1.525C72.959,1.525,55.207,1.262,45.901,1.262z"/>
			
				<path fill="#FFD009" stroke="#010202" stroke-width="2.6966" stroke-linecap="round" stroke-linejoin="round" stroke-miterlimit="10" d="
				M45.901-45.535c-12.226,0-22.138,9.91-22.138,22.137S33.676-1.262,45.901-1.262c9.306,0,27.058-0.262,34.699-0.262
				c7.829,0,14.174-6.346,14.174-14.174c0-7.83-6.345-14.176-14.174-14.176c-5.485,0-10.239,3.119-12.596,7.678
				c0.021-0.398,0.033-0.799,0.033-1.203C68.038-35.625,58.127-45.535,45.901-45.535z"/>
			
				<path fill="#7F4F25" stroke="#010202" stroke-width="2.6966" stroke-linecap="round" stroke-linejoin="round" stroke-miterlimit="10" d="
				M96.688-0.381c0-3.973-14.141-4.52-14.141-4.52s-37.333,0-40.629,0c-4.087,0-11.827,0.023-11.827,4.688
				c0,4.662,7.74,4.688,11.827,4.688c3.296,0,40.629,0,40.629,0S96.688,3.59,96.688-0.381z"/>
			<circle fill="#0073B3" stroke="#010202" stroke-width="2.0224" stroke-miterlimit="10" cx="45.901" cy="23.398" r="7.326"/>
			
				<circle fill="#010202" stroke="#010202" stroke-width="2.6966" stroke-linecap="round" stroke-linejoin="round" stroke-miterlimit="10" cx="80.602" cy="15.698" r="4.3"/>
		</g>
		<g>
			
				<path fill="none" stroke="#010202" stroke-width="2.6966" stroke-linecap="round" stroke-linejoin="round" stroke-miterlimit="10" d="
				M117.813,19.213c1.722-6.133,6.37-18.926,21.499-18.926"/>
			
				<path fill="none" stroke="#010202" stroke-width="2.6966" stroke-linecap="round" stroke-linejoin="round" stroke-miterlimit="10" d="
				M117.813-18.637c1.753,6.123,6.37,18.924,21.499,18.924"/>
			
				<path fill="#FFD009" stroke="#010202" stroke-width="2.6966" stroke-linecap="round" stroke-linejoin="round" stroke-miterlimit="10" d="
				M151.046,1.262c-12.226,0-22.138,9.91-22.138,22.137s9.912,22.137,22.138,22.137s22.137-9.91,22.137-22.137
				c0-0.402-0.012-0.805-0.033-1.203c2.356,4.559,7.11,7.678,12.596,7.678c7.829,0,14.174-6.346,14.174-14.174
				s-6.345-14.174-14.174-14.174C178.104,1.525,160.352,1.262,151.046,1.262z"/>
			
				<path fill="#FFD009" stroke="#010202" stroke-width="2.6966" stroke-linecap="round" stroke-linejoin="round" stroke-miterlimit="10" d="
				M151.046-45.535c-12.226,0-22.138,9.91-22.138,22.137s9.912,22.137,22.138,22.137c9.306,0,27.058-0.262,34.699-0.262
				c7.829,0,14.174-6.346,14.174-14.174c0-7.83-6.345-14.176-14.174-14.176c-5.485,0-10.239,3.119-12.596,7.678
				c0.021-0.398,0.033-0.799,0.033-1.203C173.183-35.625,163.271-45.535,151.046-45.535z"/>
			
				<path fill="#7F4F25" stroke="#010202" stroke-width="2.6966" stroke-linecap="round" stroke-linejoin="round" stroke-miterlimit="10" d="
				M201.832-0.381c0-3.973-14.141-4.52-14.141-4.52s-37.333,0-40.629,0c-4.087,0-11.827,0.023-11.827,4.688
				c0,4.662,7.74,4.688,11.827,4.688c3.296,0,40.629,0,40.629,0S201.832,3.59,201.832-0.381z"/>
			<circle fill="#0073B3" stroke="#010202" stroke-width="2.0224" stroke-miterlimit="10" cx="151.046" cy="23.398" r="7.326"/>
			
				<circle fill="#010202" stroke="#010202" stroke-width="2.6966" stroke-linecap="round" stroke-linejoin="round" stroke-miterlimit="10" cx="185.746" cy="15.698" r="4.3"/>
		</g>
		<g>
			
				<path fill="none" stroke="#010202" stroke-width="2.6966" stroke-linecap="round" stroke-linejoin="round" stroke-miterlimit="10" d="
				M12.669,19.213c1.722-6.133,6.37-18.926,21.499-18.926"/>
			
				<path fill="none" stroke="#010202" stroke-width="2.6966" stroke-linecap="round" stroke-linejoin="round" stroke-miterlimit="10" d="
				M12.669-18.637c1.753,6.123,6.37,18.924,21.499,18.924"/>
			
				<path fill="#FFD009" stroke="#010202" stroke-width="2.6966" stroke-linecap="round" stroke-linejoin="round" stroke-miterlimit="10" d="
				M45.901,1.262c-12.226,0-22.138,9.91-22.138,22.137s9.912,22.137,22.138,22.137s22.137-9.91,22.137-22.137
				c0-0.402-0.012-0.805-0.033-1.203c2.356,4.559,7.11,7.678,12.596,7.678c7.829,0,14.174-6.346,14.174-14.174
				S88.43,1.525,80.601,1.525C72.959,1.525,55.207,1.262,45.901,1.262z"/>
			
				<path fill="#FFD009" stroke="#010202" stroke-width="2.6966" stroke-linecap="round" stroke-linejoin="round" stroke-miterlimit="10" d="
				M45.901-45.535c-12.226,0-22.138,9.91-22.138,22.137S33.676-1.262,45.901-1.262c9.306,0,27.058-0.262,34.699-0.262
				c7.829,0,14.174-6.346,14.174-14.174c0-7.83-6.345-14.176-14.174-14.176c-5.485,0-10.239,3.119-12.596,7.678
				c0.021-0.398,0.033-0.799,0.033-1.203C68.038-35.625,58.127-45.535,45.901-45.535z"/>
			
				<path fill="#7F4F25" stroke="#010202" stroke-width="2.6966" stroke-linecap="round" stroke-linejoin="round" stroke-miterlimit="10" d="
				M96.688-0.381c0-3.973-14.141-4.52-14.141-4.52s-37.333,0-40.629,0c-4.087,0-11.827,0.023-11.827,4.688
				c0,4.662,7.74,4.688,11.827,4.688c3.296,0,40.629,0,40.629,0S96.688,3.59,96.688-0.381z"/>
			<circle fill="#0073B3" stroke="#010202" stroke-width="2.0224" stroke-miterlimit="10" cx="45.901" cy="23.398" r="7.326"/>
			
				<circle fill="#010202" stroke="#010202" stroke-width="2.6966" stroke-linecap="round" stroke-linejoin="round" stroke-miterlimit="10" cx="80.602" cy="15.698" r="4.3"/>
		</g>
		<g>
			
				<path fill="none" stroke="#010202" stroke-width="2.6966" stroke-linecap="round" stroke-linejoin="round" stroke-miterlimit="10" d="
				M117.813,19.213c1.722-6.133,6.37-18.926,21.499-18.926"/>
			
				<path fill="none" stroke="#010202" stroke-width="2.6966" stroke-linecap="round" stroke-linejoin="round" stroke-miterlimit="10" d="
				M117.813-18.637c1.753,6.123,6.37,18.924,21.499,18.924"/>
			
				<path fill="#FFD009" stroke="#010202" stroke-width="2.6966" stroke-linecap="round" stroke-linejoin="round" stroke-miterlimit="10" d="
				M151.046,1.262c-12.226,0-22.138,9.91-22.138,22.137s9.912,22.137,22.138,22.137s22.137-9.91,22.137-22.137
				c0-0.402-0.012-0.805-0.033-1.203c2.356,4.559,7.11,7.678,12.596,7.678c7.829,0,14.174-6.346,14.174-14.174
				s-6.345-14.174-14.174-14.174C178.104,1.525,160.352,1.262,151.046,1.262z"/>
			
				<path fill="#FFD009" stroke="#010202" stroke-width="2.6966" stroke-linecap="round" stroke-linejoin="round" stroke-miterlimit="10" d="
				M151.046-45.535c-12.226,0-22.138,9.91-22.138,22.137s9.912,22.137,22.138,22.137c9.306,0,27.058-0.262,34.699-0.262
				c7.829,0,14.174-6.346,14.174-14.174c0-7.83-6.345-14.176-14.174-14.176c-5.485,0-10.239,3.119-12.596,7.678
				c0.021-0.398,0.033-0.799,0.033-1.203C173.183-35.625,163.271-45.535,151.046-45.535z"/>
			
				<path fill="#7F4F25" stroke="#010202" stroke-width="2.6966" stroke-linecap="round" stroke-linejoin="round" stroke-miterlimit="10" d="
				M201.832-0.381c0-3.973-14.141-4.52-14.141-4.52s-37.333,0-40.629,0c-4.087,0-11.827,0.023-11.827,4.688
				c0,4.662,7.74,4.688,11.827,4.688c3.296,0,40.629,0,40.629,0S201.832,3.59,201.832-0.381z"/>
			<circle fill="#0073B3" stroke="#010202" stroke-width="2.0224" stroke-miterlimit="10" cx="151.046" cy="23.398" r="7.326"/>
			
				<circle fill="#010202" stroke="#010202" stroke-width="2.6966" stroke-linecap="round" stroke-linejoin="round" stroke-miterlimit="10" cx="185.746" cy="15.698" r="4.3"/>
		</g>
		
			<path fill="#FFD009" stroke="#010202" stroke-width="2.6966" stroke-linecap="round" stroke-linejoin="round" stroke-miterlimit="10" d="
			M228.777,108.738c12.225,0,22.137-9.91,22.137-22.137s-9.912-22.137-22.137-22.137c-12.227,0-22.137,9.91-22.137,22.137
			c0,0.402,0.012,0.805,0.033,1.203c-2.357-4.559-7.111-7.678-12.596-7.678c-7.83,0-14.174,6.346-14.174,14.174
			s6.344,14.174,14.174,14.174C201.719,108.475,219.471,108.738,228.777,108.738z"/>
		
			<path fill="#FFD009" stroke="#010202" stroke-width="2.6966" stroke-linecap="round" stroke-linejoin="round" stroke-miterlimit="10" d="
			M228.777,155.535c12.225,0,22.137-9.91,22.137-22.137s-9.912-22.137-22.137-22.137c-9.307,0-27.059,0.262-34.699,0.262
			c-7.83,0-14.174,6.346-14.174,14.174c0,7.83,6.344,14.176,14.174,14.176c5.484,0,10.238-3.119,12.596-7.678
			c-0.021,0.398-0.033,0.799-0.033,1.203C206.641,145.625,216.551,155.535,228.777,155.535z"/>
		
			<path fill="#7F4F25" stroke="#010202" stroke-width="2.6966" stroke-linecap="round" stroke-linejoin="round" stroke-miterlimit="10" d="
			M177.99,110.381c0,3.973,14.141,4.52,14.141,4.52s37.334,0,40.629,0c4.088,0,11.828-0.023,11.828-4.688
			c0-4.662-7.74-4.688-11.828-4.688c-3.295,0-40.629,0-40.629,0S177.99,106.41,177.99,110.381z"/>
		
			<path fill="#010202" stroke="#010202" stroke-width="2.6966" stroke-linecap="round" stroke-linejoin="round" stroke-miterlimit="10" d="
			M194.076,98.602c-2.373,0-4.298-1.926-4.298-4.301s1.926-4.299,4.298-4.299c2.377,0,4.301,1.924,4.301,4.299
			S196.453,98.602,194.076,98.602z"/>
		
			<path fill="#010202" stroke="#010202" stroke-width="2.6966" stroke-linecap="round" stroke-linejoin="round" stroke-miterlimit="10" d="
			M194.076,121.398c-2.373,0-4.298,1.924-4.298,4.299s1.926,4.301,4.298,4.301c2.377,0,4.301-1.926,4.301-4.301
			S196.453,121.398,194.076,121.398z"/>
	</g>
</g>
</svg>
