<?xml version="1.0" encoding="utf-8"?>
<!-- Generator: Adobe Illustrator 16.0.0, SVG Export Plug-In . SVG Version: 6.00 Build 0)  -->
<!DOCTYPE svg PUBLIC "-//W3C//DTD SVG 1.1//EN" "http://www.w3.org/Graphics/SVG/1.1/DTD/svg11.dtd">
<svg version="1.1" xmlns="http://www.w3.org/2000/svg" xmlns:xlink="http://www.w3.org/1999/xlink" x="0px" y="0px"
	 width="220.001px" height="220px" viewBox="0 0 220.001 220" enable-background="new 0 0 220.001 220" xml:space="preserve">
<g id="bg">
	<g>
		<g>
			<rect fill="#E8C9DD" width="220.001" height="220"/>
		</g>
	</g>
</g>
<g id="Layer_1">
	<g>
		
			<polygon fill="#7F4F25" stroke="#010202" stroke-width="2" stroke-linecap="round" stroke-linejoin="round" stroke-miterlimit="10" points="
			35.548,43.535 19.63,-10.018 51.466,-10.018 		"/>
	</g>
	<g>
		
			<polygon fill="#7F4F25" stroke="#010202" stroke-width="2" stroke-linecap="round" stroke-linejoin="round" stroke-miterlimit="10" points="
			182.923,43.535 167.005,-10.018 198.841,-10.018 		"/>
	</g>
	<g>
		
			<polygon fill="#7F4F25" stroke="#010202" stroke-width="2" stroke-linecap="round" stroke-linejoin="round" stroke-miterlimit="10" points="
			114.579,-45.336 130.497,8.217 98.661,8.217 		"/>
		
			<path fill="#CB78A6" stroke="#010202" stroke-width="2" stroke-linecap="round" stroke-linejoin="round" stroke-miterlimit="10" d="
			M114.587,18.219c0-6.902-1.875-12.5,12.5-12.5c6.904,0,12.502,5.598,12.502,12.5c0,6.904-5.598,12.502-12.502,12.502
			S114.587,25.123,114.587,18.219z"/>
		
			<path fill="#E6A004" stroke="#010202" stroke-width="2" stroke-linecap="round" stroke-linejoin="round" stroke-miterlimit="10" d="
			M90.208,18.219c0-6.902,5.598-12.5,12.502-12.5c15.002,0,12.502,5.598,12.502,12.5c0,6.904-5.598,12.502-12.502,12.502
			S90.208,25.123,90.208,18.219z"/>
		
			<circle fill="#CABAA0" stroke="#010202" stroke-width="2" stroke-linecap="round" stroke-linejoin="round" stroke-miterlimit="10" cx="114.58" cy="31.033" r="12.501"/>
	</g>
	<g>
		
			<polygon fill="#7F4F25" stroke="#010202" stroke-width="2" stroke-linecap="round" stroke-linejoin="round" stroke-miterlimit="10" points="
			35.548,263.803 19.63,210.25 51.466,210.25 		"/>
		
			<path fill="#CB78A6" stroke="#010202" stroke-width="2" stroke-linecap="round" stroke-linejoin="round" stroke-miterlimit="10" d="
			M35.541,200.247c0,6.903,1.875,12.501-12.501,12.501c-6.904,0-12.502-5.598-12.502-12.501c0-6.904,5.598-12.501,12.502-12.501
			S35.541,193.343,35.541,200.247z"/>
		
			<path fill="#E6A004" stroke="#010202" stroke-width="2" stroke-linecap="round" stroke-linejoin="round" stroke-miterlimit="10" d="
			M59.919,200.247c0,6.903-5.598,12.501-12.502,12.501c-15.001,0-12.501-5.598-12.501-12.501c0-6.904,5.597-12.501,12.501-12.501
			S59.919,193.343,59.919,200.247z"/>
		
			<circle fill="#CABAA0" stroke="#010202" stroke-width="2" stroke-linecap="round" stroke-linejoin="round" stroke-miterlimit="10" cx="35.547" cy="187.434" r="12.501"/>
	</g>
	<g>
		
			<polygon fill="#7F4F25" stroke="#010202" stroke-width="2" stroke-linecap="round" stroke-linejoin="round" stroke-miterlimit="10" points="
			182.923,263.803 167.005,210.25 198.841,210.25 		"/>
		
			<path fill="#CB78A6" stroke="#010202" stroke-width="2" stroke-linecap="round" stroke-linejoin="round" stroke-miterlimit="10" d="
			M182.916,200.247c0,6.903,1.875,12.501-12.501,12.501c-6.904,0-12.502-5.598-12.502-12.501c0-6.904,5.598-12.501,12.502-12.501
			S182.916,193.343,182.916,200.247z"/>
		
			<path fill="#E6A004" stroke="#010202" stroke-width="2" stroke-linecap="round" stroke-linejoin="round" stroke-miterlimit="10" d="
			M207.294,200.247c0,6.903-5.598,12.501-12.502,12.501c-15.001,0-12.501-5.598-12.501-12.501c0-6.904,5.597-12.501,12.501-12.501
			S207.294,193.343,207.294,200.247z"/>
		
			<circle fill="#CABAA0" stroke="#010202" stroke-width="2" stroke-linecap="round" stroke-linejoin="round" stroke-miterlimit="10" cx="182.922" cy="187.434" r="12.501"/>
	</g>
	<g>
		
			<polygon fill="#7F4F25" stroke="#010202" stroke-width="2" stroke-linecap="round" stroke-linejoin="round" stroke-miterlimit="10" points="
			114.579,174.932 130.497,228.484 98.661,228.484 		"/>
	</g>
	<g>
		
			<path fill="#AC5D2E" stroke="#010202" stroke-width="2" stroke-linecap="round" stroke-linejoin="round" stroke-miterlimit="10" d="
			M60.83,153.678c0,3.221-2.61,5.832-5.83,5.832l0,0c-3.22,0-5.831-2.611-5.831-5.832v-36.329c0-3.22,2.611-5.83,5.831-5.83l0,0
			c3.22,0,5.83,2.61,5.83,5.83V153.678z"/>
		
			<path fill="#CABAA0" stroke="#010202" stroke-width="2" stroke-linecap="round" stroke-linejoin="round" stroke-miterlimit="10" d="
			M72.268,114.449c0,5.316-4.31,9.627-9.627,9.627H47.359c-5.316,0-9.627-4.311-9.627-9.627V80.546
			c0-4.37,2.466-20.056,17.268-20.056c14.801,0,17.268,14.738,17.268,20.056V114.449z"/>
		
			<path fill="#422A19" stroke="#010202" stroke-width="2" stroke-linecap="round" stroke-linejoin="round" stroke-miterlimit="10" d="
			M72.268,112.416v-31.87c0-5.317-2.467-20.056-17.268-20.056c-14.802,0-17.268,15.686-17.268,20.056v31.87H72.268z"/>
	</g>
	<g>
		
			<path fill="#AC5D2E" stroke="#010202" stroke-width="2" stroke-linecap="round" stroke-linejoin="round" stroke-miterlimit="10" d="
			M170.83,153.678c0,3.221-2.61,5.832-5.83,5.832l0,0c-3.22,0-5.831-2.611-5.831-5.832v-36.329c0-3.22,2.611-5.83,5.831-5.83l0,0
			c3.22,0,5.83,2.61,5.83,5.83V153.678z"/>
		
			<path fill="#CABAA0" stroke="#010202" stroke-width="2" stroke-linecap="round" stroke-linejoin="round" stroke-miterlimit="10" d="
			M182.268,114.449c0,5.316-4.31,9.627-9.627,9.627h-15.281c-5.316,0-9.627-4.311-9.627-9.627V80.546
			c0-4.37,2.466-20.056,17.268-20.056c14.801,0,17.268,14.738,17.268,20.056V114.449z"/>
		
			<path fill="#422A19" stroke="#010202" stroke-width="2" stroke-linecap="round" stroke-linejoin="round" stroke-miterlimit="10" d="
			M182.268,112.416v-31.87c0-5.317-2.467-20.056-17.268-20.056c-14.802,0-17.268,15.686-17.268,20.056v31.87H182.268z"/>
	</g>
	
		<circle fill="#CB78A6" stroke="#010202" stroke-width="2" stroke-linecap="round" stroke-linejoin="round" stroke-miterlimit="10" cx="220" cy="110" r="16.499"/>
	
		<circle fill="#CB78A6" stroke="#010202" stroke-width="2" stroke-linecap="round" stroke-linejoin="round" stroke-miterlimit="10" cx="110" cy="110" r="16.499"/>
	
		<circle fill="#CB78A6" stroke="#010202" stroke-width="2" stroke-linecap="round" stroke-linejoin="round" stroke-miterlimit="10" cx="0" cy="110" r="16.499"/>
</g>
</svg>
