<?xml version="1.0" encoding="utf-8"?>
<!-- Generator: Adobe Illustrator 16.0.0, SVG Export Plug-In . SVG Version: 6.00 Build 0)  -->
<!DOCTYPE svg PUBLIC "-//W3C//DTD SVG 1.1//EN" "http://www.w3.org/Graphics/SVG/1.1/DTD/svg11.dtd">
<svg version="1.1" xmlns="http://www.w3.org/2000/svg" xmlns:xlink="http://www.w3.org/1999/xlink" x="0px" y="0px"
	 width="220.001px" height="220px" viewBox="0 0 220.001 220" enable-background="new 0 0 220.001 220" xml:space="preserve">
<g id="bg">
	<g>
		<g>
			<rect fill="#E8C9DD" width="220.001" height="220"/>
		</g>
	</g>
</g>
<g id="Layer_1">
	<g>
		
			<polygon fill="#7F4F25" stroke="#010202" stroke-width="2" stroke-linecap="round" stroke-linejoin="round" stroke-miterlimit="10" points="
			140.415,65.564 156.333,119.117 124.497,119.117 		"/>
		
			<path fill="#CB78A6" stroke="#010202" stroke-width="2" stroke-linecap="round" stroke-linejoin="round" stroke-miterlimit="10" d="
			M140.423,129.119c0-6.902-1.875-12.5,12.5-12.5c6.904,0,12.502,5.598,12.502,12.5c0,6.904-5.598,12.502-12.502,12.502
			S140.423,136.023,140.423,129.119z"/>
		
			<path fill="#E6A004" stroke="#010202" stroke-width="2" stroke-linecap="round" stroke-linejoin="round" stroke-miterlimit="10" d="
			M116.044,129.119c0-6.902,5.598-12.5,12.502-12.5c15.002,0,12.502,5.598,12.502,12.5c0,6.904-5.598,12.502-12.502,12.502
			S116.044,136.023,116.044,129.119z"/>
		
			<circle fill="#CABAA0" stroke="#010202" stroke-width="2" stroke-linecap="round" stroke-linejoin="round" stroke-miterlimit="10" cx="140.416" cy="141.934" r="12.501"/>
	</g>
	<g>
		
			<polygon fill="#7F4F25" stroke="#010202" stroke-width="2" stroke-linecap="round" stroke-linejoin="round" stroke-miterlimit="10" points="
			73.349,154.436 57.431,100.883 89.267,100.883 		"/>
		
			<path fill="#CB78A6" stroke="#010202" stroke-width="2" stroke-linecap="round" stroke-linejoin="round" stroke-miterlimit="10" d="
			M73.341,90.881c0,6.902,1.875,12.5-12.5,12.5c-6.904,0-12.502-5.598-12.502-12.5c0-6.904,5.598-12.502,12.502-12.502
			S73.341,83.977,73.341,90.881z"/>
		
			<path fill="#E6A004" stroke="#010202" stroke-width="2" stroke-linecap="round" stroke-linejoin="round" stroke-miterlimit="10" d="
			M97.72,90.881c0,6.902-5.598,12.5-12.502,12.5c-15.002,0-12.502-5.598-12.502-12.5c0-6.904,5.598-12.502,12.502-12.502
			S97.72,83.977,97.72,90.881z"/>
		
			<circle fill="#CABAA0" stroke="#010202" stroke-width="2" stroke-linecap="round" stroke-linejoin="round" stroke-miterlimit="10" cx="73.348" cy="78.066" r="12.501"/>
	</g>
	<g>
		
			<path fill="#AC5D2E" stroke="#010202" stroke-width="2" stroke-linecap="round" stroke-linejoin="round" stroke-miterlimit="10" d="
			M176.062,178.459c0-3.221,2.611-5.832,5.83-5.832l0,0c3.221,0,5.832,2.611,5.832,5.832v36.328c0,3.221-2.611,5.83-5.832,5.83l0,0
			c-3.219,0-5.83-2.609-5.83-5.83V178.459z"/>
		
			<path fill="#CABAA0" stroke="#010202" stroke-width="2" stroke-linecap="round" stroke-linejoin="round" stroke-miterlimit="10" d="
			M164.624,217.688c0-5.316,4.311-9.627,9.627-9.627h15.281c5.316,0,9.627,4.311,9.627,9.627v33.902
			c0,4.371-2.465,20.057-17.268,20.057c-14.801,0-17.268-14.738-17.268-20.057V217.688z"/>
		
			<path fill="#422A19" stroke="#010202" stroke-width="2" stroke-linecap="round" stroke-linejoin="round" stroke-miterlimit="10" d="
			M164.624,219.721v31.869c0,5.318,2.467,20.057,17.268,20.057c14.803,0,17.268-15.686,17.268-20.057v-31.869H164.624z"/>
	</g>
	<g>
		
			<path fill="#AC5D2E" stroke="#010202" stroke-width="2" stroke-linecap="round" stroke-linejoin="round" stroke-miterlimit="10" d="
			M29.54,178.459c0-3.221,2.611-5.832,5.83-5.832l0,0c3.221,0,5.832,2.611,5.832,5.832v36.328c0,3.221-2.611,5.83-5.832,5.83l0,0
			c-3.219,0-5.83-2.609-5.83-5.83V178.459z"/>
		
			<path fill="#CABAA0" stroke="#010202" stroke-width="2" stroke-linecap="round" stroke-linejoin="round" stroke-miterlimit="10" d="
			M18.103,217.688c0-5.316,4.311-9.627,9.627-9.627h15.281c5.316,0,9.627,4.311,9.627,9.627v33.902
			c0,4.371-2.465,20.057-17.268,20.057c-14.801,0-17.268-14.738-17.268-20.057V217.688z"/>
		
			<path fill="#422A19" stroke="#010202" stroke-width="2" stroke-linecap="round" stroke-linejoin="round" stroke-miterlimit="10" d="
			M18.103,219.721v31.869c0,5.318,2.467,20.057,17.268,20.057c14.803,0,17.268-15.686,17.268-20.057v-31.869H18.103z"/>
	</g>
	<g>
		
			<path fill="#AC5D2E" stroke="#010202" stroke-width="2" stroke-linecap="round" stroke-linejoin="round" stroke-miterlimit="10" d="
			M102.802,178.459c0-3.221,2.609-5.832,5.83-5.832l0,0c3.219,0,5.83,2.611,5.83,5.832v36.328c0,3.221-2.611,5.83-5.83,5.83l0,0
			c-3.221,0-5.83-2.609-5.83-5.83V178.459z"/>
		
			<path fill="#CABAA0" stroke="#010202" stroke-width="2" stroke-linecap="round" stroke-linejoin="round" stroke-miterlimit="10" d="
			M91.364,217.688c0-5.316,4.309-9.627,9.627-9.627h15.281c5.316,0,9.627,4.311,9.627,9.627v33.902
			c0,4.371-2.467,20.057-17.268,20.057s-17.268-14.738-17.268-20.057V217.688z"/>
		
			<path fill="#422A19" stroke="#010202" stroke-width="2" stroke-linecap="round" stroke-linejoin="round" stroke-miterlimit="10" d="
			M91.364,219.721v31.869c0,5.318,2.467,20.057,17.268,20.057s17.268-15.686,17.268-20.057v-31.869H91.364z"/>
	</g>
	<g>
		
			<path fill="#AC5D2E" stroke="#010202" stroke-width="2" stroke-linecap="round" stroke-linejoin="round" stroke-miterlimit="10" d="
			M176.062-41.455c0-3.221,2.611-5.832,5.83-5.832l0,0c3.221,0,5.832,2.611,5.832,5.832v36.33c0,3.219-2.611,5.83-5.832,5.83l0,0
			c-3.219,0-5.83-2.611-5.83-5.83V-41.455z"/>
		
			<path fill="#CABAA0" stroke="#010202" stroke-width="2" stroke-linecap="round" stroke-linejoin="round" stroke-miterlimit="10" d="
			M164.624-2.227c0-5.316,4.311-9.627,9.627-9.627h15.281c5.316,0,9.627,4.311,9.627,9.627v33.904
			c0,4.369-2.465,20.055-17.268,20.055c-14.801,0-17.268-14.738-17.268-20.055V-2.227z"/>
		
			<path fill="#422A19" stroke="#010202" stroke-width="2" stroke-linecap="round" stroke-linejoin="round" stroke-miterlimit="10" d="
			M164.624-0.193v31.871c0,5.316,2.467,20.055,17.268,20.055c14.803,0,17.268-15.686,17.268-20.055V-0.193H164.624z"/>
	</g>
	<g>
		
			<path fill="#AC5D2E" stroke="#010202" stroke-width="2" stroke-linecap="round" stroke-linejoin="round" stroke-miterlimit="10" d="
			M29.54-41.455c0-3.221,2.611-5.832,5.83-5.832l0,0c3.221,0,5.832,2.611,5.832,5.832v36.33c0,3.219-2.611,5.83-5.832,5.83l0,0
			c-3.219,0-5.83-2.611-5.83-5.83V-41.455z"/>
		
			<path fill="#CABAA0" stroke="#010202" stroke-width="2" stroke-linecap="round" stroke-linejoin="round" stroke-miterlimit="10" d="
			M18.103-2.227c0-5.316,4.311-9.627,9.627-9.627h15.281c5.316,0,9.627,4.311,9.627,9.627v33.904
			c0,4.369-2.465,20.055-17.268,20.055c-14.801,0-17.268-14.738-17.268-20.055V-2.227z"/>
		
			<path fill="#422A19" stroke="#010202" stroke-width="2" stroke-linecap="round" stroke-linejoin="round" stroke-miterlimit="10" d="
			M18.103-0.193v31.871c0,5.316,2.467,20.055,17.268,20.055c14.803,0,17.268-15.686,17.268-20.055V-0.193H18.103z"/>
	</g>
	<g>
		
			<path fill="#AC5D2E" stroke="#010202" stroke-width="2" stroke-linecap="round" stroke-linejoin="round" stroke-miterlimit="10" d="
			M102.802-41.455c0-3.221,2.609-5.832,5.83-5.832l0,0c3.219,0,5.83,2.611,5.83,5.832v36.33c0,3.219-2.611,5.83-5.83,5.83l0,0
			c-3.221,0-5.83-2.611-5.83-5.83V-41.455z"/>
		
			<path fill="#CABAA0" stroke="#010202" stroke-width="2" stroke-linecap="round" stroke-linejoin="round" stroke-miterlimit="10" d="
			M91.364-2.227c0-5.316,4.309-9.627,9.627-9.627h15.281c5.316,0,9.627,4.311,9.627,9.627v33.904
			c0,4.369-2.467,20.055-17.268,20.055S91.364,36.994,91.364,31.678V-2.227z"/>
		
			<path fill="#422A19" stroke="#010202" stroke-width="2" stroke-linecap="round" stroke-linejoin="round" stroke-miterlimit="10" d="
			M91.364-0.193v31.871c0,5.316,2.467,20.055,17.268,20.055s17.268-15.686,17.268-20.055V-0.193H91.364z"/>
	</g>
	
		<rect x="-15.973" y="94.028" transform="matrix(0.7071 0.7071 -0.7071 0.7071 77.7815 32.2189)" fill="#CB78A6" stroke="#010202" stroke-width="2" stroke-linecap="round" stroke-linejoin="round" stroke-miterlimit="10" width="31.944" height="31.944"/>
	
		<rect x="204.233" y="94.028" transform="matrix(0.7071 0.7071 -0.7071 0.7071 142.2783 -123.4902)" fill="#CB78A6" stroke="#010202" stroke-width="2" stroke-linecap="round" stroke-linejoin="round" stroke-miterlimit="10" width="31.944" height="31.944"/>
</g>
</svg>
