<?xml version="1.0" encoding="utf-8"?>
<!-- Generator: Adobe Illustrator 16.0.0, SVG Export Plug-In . SVG Version: 6.00 Build 0)  -->
<!DOCTYPE svg PUBLIC "-//W3C//DTD SVG 1.1//EN" "http://www.w3.org/Graphics/SVG/1.1/DTD/svg11.dtd">
<svg version="1.1" xmlns="http://www.w3.org/2000/svg" xmlns:xlink="http://www.w3.org/1999/xlink" x="0px" y="0px"
	 width="220.001px" height="220px" viewBox="0 0 220.001 220" enable-background="new 0 0 220.001 220" xml:space="preserve">
<g id="bg">
	<g>
		<g>
			<rect fill="#E8C9DD" width="220.001" height="220"/>
		</g>
	</g>
</g>
<g id="Layer_1">
	<g>
		
			<polygon fill="#7F4F25" stroke="#010202" stroke-width="2" stroke-linecap="round" stroke-linejoin="round" stroke-miterlimit="10" points="
			141.325,154.436 125.407,100.883 157.243,100.883 		"/>
		
			<path fill="#CB78A6" stroke="#010202" stroke-width="2" stroke-linecap="round" stroke-linejoin="round" stroke-miterlimit="10" d="
			M141.318,90.88c0,6.903,1.875,12.501-12.501,12.501c-6.904,0-12.502-5.598-12.502-12.501c0-6.904,5.598-12.501,12.502-12.501
			S141.318,83.976,141.318,90.88z"/>
		
			<path fill="#E6A004" stroke="#010202" stroke-width="2" stroke-linecap="round" stroke-linejoin="round" stroke-miterlimit="10" d="
			M165.696,90.88c0,6.903-5.598,12.501-12.502,12.501c-15.001,0-12.501-5.598-12.501-12.501c0-6.904,5.597-12.501,12.501-12.501
			S165.696,83.976,165.696,90.88z"/>
		
			<circle fill="#CABAA0" stroke="#010202" stroke-width="2" stroke-linecap="round" stroke-linejoin="round" stroke-miterlimit="10" cx="141.324" cy="78.066" r="12.501"/>
	</g>
	<g>
		
			<polygon fill="#7F4F25" stroke="#010202" stroke-width="2" stroke-linecap="round" stroke-linejoin="round" stroke-miterlimit="10" points="
			73.62,154.436 57.702,100.883 89.538,100.883 		"/>
		
			<path fill="#CB78A6" stroke="#010202" stroke-width="2" stroke-linecap="round" stroke-linejoin="round" stroke-miterlimit="10" d="
			M73.612,90.881c0,6.902,1.875,12.5-12.5,12.5c-6.904,0-12.502-5.598-12.502-12.5c0-6.904,5.598-12.502,12.502-12.502
			S73.612,83.977,73.612,90.881z"/>
		
			<path fill="#E6A004" stroke="#010202" stroke-width="2" stroke-linecap="round" stroke-linejoin="round" stroke-miterlimit="10" d="
			M97.991,90.881c0,6.902-5.598,12.5-12.502,12.5c-15.002,0-12.502-5.598-12.502-12.5c0-6.904,5.598-12.502,12.502-12.502
			S97.991,83.977,97.991,90.881z"/>
		
			<circle fill="#CABAA0" stroke="#010202" stroke-width="2" stroke-linecap="round" stroke-linejoin="round" stroke-miterlimit="10" cx="73.619" cy="78.066" r="12.501"/>
	</g>
	<g>
		
			<path fill="#CABAA0" stroke="#010202" stroke-width="2" stroke-linecap="round" stroke-linejoin="round" stroke-miterlimit="10" d="
			M52.909,226.586c0,5.316-4.31,9.627-9.627,9.627H28.001c-5.316,0-9.627-4.311-9.627-9.627v-33.903
			c0-4.37,2.466-20.056,17.268-20.056c14.801,0,17.268,14.738,17.268,20.056V226.586z"/>
		
			<path fill="#422A19" stroke="#010202" stroke-width="2" stroke-linecap="round" stroke-linejoin="round" stroke-miterlimit="10" d="
			M52.909,224.553v-31.87c0-5.317-2.467-20.056-17.268-20.056c-14.802,0-17.268,15.686-17.268,20.056v31.87H52.909z"/>
	</g>
	<g>
		
			<path fill="#CABAA0" stroke="#010202" stroke-width="2" stroke-linecap="round" stroke-linejoin="round" stroke-miterlimit="10" d="
			M199.431,226.586c0,5.316-4.31,9.627-9.627,9.627h-15.281c-5.316,0-9.627-4.311-9.627-9.627v-33.903
			c0-4.37,2.466-20.056,17.268-20.056c14.801,0,17.268,14.738,17.268,20.056V226.586z"/>
		
			<path fill="#422A19" stroke="#010202" stroke-width="2" stroke-linecap="round" stroke-linejoin="round" stroke-miterlimit="10" d="
			M199.431,224.553v-31.87c0-5.317-2.467-20.056-17.268-20.056c-14.802,0-17.268,15.686-17.268,20.056v31.87H199.431z"/>
	</g>
	<g>
		
			<path fill="#CABAA0" stroke="#010202" stroke-width="2" stroke-linecap="round" stroke-linejoin="round" stroke-miterlimit="10" d="
			M126.17,226.586c0,5.316-4.31,9.627-9.627,9.627h-15.281c-5.316,0-9.627-4.311-9.627-9.627v-33.903
			c0-4.37,2.466-20.056,17.268-20.056c14.801,0,17.268,14.738,17.268,20.056V226.586z"/>
		
			<path fill="#422A19" stroke="#010202" stroke-width="2" stroke-linecap="round" stroke-linejoin="round" stroke-miterlimit="10" d="
			M126.17,224.553v-31.87c0-5.317-2.467-20.056-17.268-20.056c-14.802,0-17.268,15.686-17.268,20.056v31.87H126.17z"/>
	</g>
	<g>
		
			<path fill="#AC5D2E" stroke="#010202" stroke-width="2" stroke-linecap="round" stroke-linejoin="round" stroke-miterlimit="10" d="
			M41.472,45.901c0,3.221-2.61,5.832-5.83,5.832l0,0c-3.22,0-5.831-2.611-5.831-5.832V9.572c0-3.22,2.611-5.83,5.831-5.83l0,0
			c3.22,0,5.83,2.61,5.83,5.83V45.901z"/>
		
			<path fill="#CABAA0" stroke="#010202" stroke-width="2" stroke-linecap="round" stroke-linejoin="round" stroke-miterlimit="10" d="
			M52.909,6.673c0,5.316-4.31,9.627-9.627,9.627H28.001c-5.316,0-9.627-4.311-9.627-9.627V-27.23c0-4.37,2.466-20.056,17.268-20.056
			c14.801,0,17.268,14.738,17.268,20.056V6.673z"/>
		
			<path fill="#422A19" stroke="#010202" stroke-width="2" stroke-linecap="round" stroke-linejoin="round" stroke-miterlimit="10" d="
			M52.909,4.64v-31.87c0-5.317-2.467-20.056-17.268-20.056c-14.802,0-17.268,15.686-17.268,20.056V4.64H52.909z"/>
	</g>
	<g>
		
			<path fill="#AC5D2E" stroke="#010202" stroke-width="2" stroke-linecap="round" stroke-linejoin="round" stroke-miterlimit="10" d="
			M187.993,45.901c0,3.221-2.61,5.832-5.83,5.832l0,0c-3.22,0-5.831-2.611-5.831-5.832V9.572c0-3.22,2.611-5.83,5.831-5.83l0,0
			c3.22,0,5.83,2.61,5.83,5.83V45.901z"/>
		
			<path fill="#CABAA0" stroke="#010202" stroke-width="2" stroke-linecap="round" stroke-linejoin="round" stroke-miterlimit="10" d="
			M199.431,6.673c0,5.316-4.31,9.627-9.627,9.627h-15.281c-5.316,0-9.627-4.311-9.627-9.627V-27.23
			c0-4.37,2.466-20.056,17.268-20.056c14.801,0,17.268,14.738,17.268,20.056V6.673z"/>
		
			<path fill="#422A19" stroke="#010202" stroke-width="2" stroke-linecap="round" stroke-linejoin="round" stroke-miterlimit="10" d="
			M199.431,4.64v-31.87c0-5.317-2.467-20.056-17.268-20.056c-14.802,0-17.268,15.686-17.268,20.056V4.64H199.431z"/>
	</g>
	<g>
		
			<path fill="#AC5D2E" stroke="#010202" stroke-width="2" stroke-linecap="round" stroke-linejoin="round" stroke-miterlimit="10" d="
			M114.732,45.901c0,3.221-2.61,5.832-5.83,5.832l0,0c-3.22,0-5.831-2.611-5.831-5.832V9.572c0-3.22,2.611-5.83,5.831-5.83l0,0
			c3.22,0,5.83,2.61,5.83,5.83V45.901z"/>
		
			<path fill="#CABAA0" stroke="#010202" stroke-width="2" stroke-linecap="round" stroke-linejoin="round" stroke-miterlimit="10" d="
			M126.17,6.673c0,5.316-4.31,9.627-9.627,9.627h-15.281c-5.316,0-9.627-4.311-9.627-9.627V-27.23
			c0-4.37,2.466-20.056,17.268-20.056c14.801,0,17.268,14.738,17.268,20.056V6.673z"/>
		
			<path fill="#422A19" stroke="#010202" stroke-width="2" stroke-linecap="round" stroke-linejoin="round" stroke-miterlimit="10" d="
			M126.17,4.64v-31.87c0-5.317-2.467-20.056-17.268-20.056c-14.802,0-17.268,15.686-17.268,20.056V4.64H126.17z"/>
	</g>
	
		<circle fill="#CB78A6" stroke="#010202" stroke-width="2" stroke-linecap="round" stroke-linejoin="round" stroke-miterlimit="10" cx="219.836" cy="110" r="16.499"/>
	
		<circle fill="#CB78A6" stroke="#010202" stroke-width="2" stroke-linecap="round" stroke-linejoin="round" stroke-miterlimit="10" cx="-0.164" cy="110" r="16.499"/>
</g>
</svg>
