<?xml version="1.0" encoding="utf-8"?>
<!-- Generator: Adobe Illustrator 16.0.0, SVG Export Plug-In . SVG Version: 6.00 Build 0)  -->
<!DOCTYPE svg PUBLIC "-//W3C//DTD SVG 1.1//EN" "http://www.w3.org/Graphics/SVG/1.1/DTD/svg11.dtd">
<svg version="1.1" xmlns="http://www.w3.org/2000/svg" xmlns:xlink="http://www.w3.org/1999/xlink" x="0px" y="0px" width="220px"
	 height="220px" viewBox="0 0 220 220" enable-background="new 0 0 220 220" xml:space="preserve">
<g id="bg" display="none">
	<rect x="-1045.836" y="-381.787" display="inline" fill="#FFFFFF" width="3240.076" height="8444.104"/>
</g>
<g id="Layer_3" display="none">
</g>
<g id="Layer_1">
	<g>
		<defs>
			<rect id="SVGID_223_" width="220" height="220"/>
		</defs>
		<clipPath id="SVGID_2_">
			<use xlink:href="#SVGID_223_"  overflow="visible"/>
		</clipPath>
		<rect clip-path="url(#SVGID_2_)" fill="#E69F02" width="220" height="220"/>
		<g clip-path="url(#SVGID_2_)">
			
				<path fill="#FFCF04" stroke="#000100" stroke-width="3.0341" stroke-linecap="round" stroke-linejoin="round" stroke-miterlimit="10" d="
				M87.523,144.23c1.387,1.768,6.255,2.159,6.255,2.159l5.345,13.401c-0.25,0.775-0.219,1.482,0.169,1.982
				c0.905,1.17,3.38,0.77,5.531-0.893c2.147-1.662,3.161-3.958,2.256-5.127c-0.171-0.222-0.403-0.387-0.674-0.499l-3.555-11.635
				c0,0,3.972-27.855,21.684-34.771c26.843-10.48,45.04-16.485,51.044-21.021c2.73-2.063,5.373-5.712,0.485-10.066
				c-4.894-4.356-8.84-7.267-13.11-7.946c-4.271-0.683-41.03-1.262-61.228,15.974C85.18,99.912,73.361,126.177,87.523,144.23z"/>
			
				<path fill="none" stroke="#000100" stroke-width="2.2756" stroke-linecap="round" stroke-linejoin="round" stroke-miterlimit="10" d="
				M154.995,79.335c0,0-40.271-1.269-53.335,21.713"/>
		</g>
		<g clip-path="url(#SVGID_2_)">
			
				<path fill="#FFCF04" stroke="#000100" stroke-width="3.0341" stroke-linecap="round" stroke-linejoin="round" stroke-miterlimit="10" d="
				M31.185,72.302c-1.762-1.393-6.587-0.634-6.587-0.634L16.263,59.89c0.064-0.812-0.133-1.491-0.627-1.888
				c-1.152-0.925-3.465,0.044-5.167,2.164c-1.7,2.12-2.148,4.588-0.994,5.513c0.22,0.176,0.481,0.282,0.772,0.328l6.18,10.48
				c0,0,2.658,28.01-12.943,38.881c-23.643,16.472-39.928,26.57-44.704,32.384c-2.171,2.646-3.888,6.811,1.885,9.9
				c5.775,3.09,10.295,4.995,14.605,4.658c4.313-0.337,40.186-8.378,55.787-29.865C43.837,114.841,49.179,86.538,31.185,72.302z"/>
			
				<path fill="none" stroke="#000100" stroke-width="2.2756" stroke-linecap="round" stroke-linejoin="round" stroke-miterlimit="10" d="
				M-19.221,151.189c0,0,39.449-8.193,46.77-33.595"/>
		</g>
		<g clip-path="url(#SVGID_2_)">
			
				<path fill="#FFCF04" stroke="#000100" stroke-width="3.0341" stroke-linecap="round" stroke-linejoin="round" stroke-miterlimit="10" d="
				M251.185,72.302c-1.762-1.393-6.587-0.634-6.587-0.634l-8.335-11.778c0.064-0.812-0.133-1.491-0.627-1.888
				c-1.152-0.925-3.465,0.044-5.167,2.164c-1.7,2.12-2.148,4.588-0.994,5.513c0.22,0.176,0.481,0.282,0.772,0.328l6.18,10.48
				c0,0,2.658,28.01-12.943,38.881c-23.643,16.472-39.928,26.57-44.704,32.384c-2.171,2.646-3.888,6.811,1.885,9.9
				c5.775,3.09,10.295,4.995,14.605,4.658c4.313-0.337,40.186-8.378,55.787-29.865C263.837,114.841,269.179,86.538,251.185,72.302z"
				/>
			
				<path fill="none" stroke="#000100" stroke-width="2.2756" stroke-linecap="round" stroke-linejoin="round" stroke-miterlimit="10" d="
				M200.779,151.189c0,0,39.449-8.193,46.77-33.595"/>
		</g>
		<g clip-path="url(#SVGID_2_)">
			
				<path fill="#FFCF04" stroke="#000100" stroke-width="3.0341" stroke-linecap="round" stroke-linejoin="round" stroke-miterlimit="10" d="
				M151.651-47.056c-1.762-1.393-6.587-0.634-6.587-0.634l-8.335-11.778c0.064-0.812-0.133-1.491-0.627-1.887
				c-1.152-0.926-3.465,0.043-5.167,2.163c-1.7,2.12-2.147,4.588-0.994,5.513c0.22,0.176,0.481,0.282,0.772,0.328l6.18,10.479
				c0,0,2.658,28.011-12.943,38.882c-23.643,16.472-39.928,26.57-44.703,32.384c-2.172,2.646-3.889,6.811,1.885,9.9
				c5.775,3.09,10.294,4.995,14.605,4.658c4.313-0.337,40.186-8.379,55.787-29.865C164.303-4.518,169.646-32.821,151.651-47.056z"/>
			
				<path fill="none" stroke="#000100" stroke-width="2.2756" stroke-linecap="round" stroke-linejoin="round" stroke-miterlimit="10" d="
				M101.245,31.831c0,0,39.449-8.194,46.77-33.595"/>
		</g>
		<g clip-path="url(#SVGID_2_)">
			
				<path fill="#FFCF04" stroke="#000100" stroke-width="3.0341" stroke-linecap="round" stroke-linejoin="round" stroke-miterlimit="10" d="
				M151.651,172.944c-1.762-1.393-6.587-0.634-6.587-0.634l-8.335-11.778c0.064-0.812-0.133-1.491-0.627-1.887
				c-1.152-0.926-3.465,0.043-5.167,2.163c-1.7,2.12-2.147,4.588-0.994,5.513c0.22,0.176,0.481,0.282,0.772,0.328l6.18,10.479
				c0,0,2.658,28.011-12.943,38.882c-23.643,16.472-39.928,26.571-44.703,32.385c-2.172,2.646-3.889,6.811,1.885,9.9
				c5.775,3.09,10.294,4.995,14.605,4.657c4.313-0.336,40.186-8.378,55.787-29.865C164.303,215.482,169.646,187.179,151.651,172.944
				z"/>
			
				<path fill="none" stroke="#000100" stroke-width="2.2756" stroke-linecap="round" stroke-linejoin="round" stroke-miterlimit="10" d="
				M101.245,251.831c0,0,39.449-8.194,46.77-33.595"/>
		</g>
	</g>
</g>
</svg>
