<?xml version="1.0" encoding="utf-8"?>
<!-- Generator: Adobe Illustrator 16.0.0, SVG Export Plug-In . SVG Version: 6.00 Build 0)  -->
<!DOCTYPE svg PUBLIC "-//W3C//DTD SVG 1.1//EN" "http://www.w3.org/Graphics/SVG/1.1/DTD/svg11.dtd">
<svg version="1.1" xmlns="http://www.w3.org/2000/svg" xmlns:xlink="http://www.w3.org/1999/xlink" x="0px" y="0px" width="220px"
	 height="220px" viewBox="0 0 220 220" enable-background="new 0 0 220 220" xml:space="preserve">
<g id="bg" display="none">
	<rect x="-1645.836" y="-381.787" display="inline" fill="#FFFFFF" width="3240.076" height="8444.104"/>
</g>
<g id="Layer_3" display="none">
</g>
<g id="Layer_1">
	<g>
		<defs>
			<rect id="SVGID_227_" width="220" height="220"/>
		</defs>
		<clipPath id="SVGID_2_">
			<use xlink:href="#SVGID_227_"  overflow="visible"/>
		</clipPath>
		<rect clip-path="url(#SVGID_2_)" fill="#E69F02" width="220" height="220"/>
		<g clip-path="url(#SVGID_2_)">
			
				<path fill="#FFCF04" stroke="#000100" stroke-width="3.0341" stroke-linecap="round" stroke-linejoin="round" stroke-miterlimit="10" d="
				M31.185,72.302c-1.762-1.393-6.587-0.634-6.587-0.634L16.263,59.89c0.064-0.812-0.133-1.491-0.627-1.888
				c-1.152-0.925-3.465,0.044-5.167,2.164c-1.7,2.12-2.148,4.588-0.994,5.513c0.22,0.176,0.481,0.282,0.772,0.328l6.18,10.48
				c0,0,2.658,28.01-12.943,38.881c-23.643,16.472-39.928,26.57-44.704,32.384c-2.171,2.646-3.888,6.811,1.885,9.9
				c5.775,3.09,10.295,4.995,14.605,4.658c4.313-0.337,40.186-8.378,55.787-29.865C43.837,114.841,49.179,86.538,31.185,72.302z"/>
			
				<path fill="none" stroke="#000100" stroke-width="2.2756" stroke-linecap="round" stroke-linejoin="round" stroke-miterlimit="10" d="
				M-19.221,151.189c0,0,39.449-8.193,46.77-33.595"/>
		</g>
		<g clip-path="url(#SVGID_2_)">
			
				<path fill="#FFCF04" stroke="#000100" stroke-width="3.0341" stroke-linecap="round" stroke-linejoin="round" stroke-miterlimit="10" d="
				M251.185,72.302c-1.762-1.393-6.587-0.634-6.587-0.634l-8.335-11.778c0.064-0.812-0.133-1.491-0.627-1.888
				c-1.152-0.925-3.465,0.044-5.167,2.164c-1.7,2.12-2.148,4.588-0.994,5.513c0.22,0.176,0.481,0.282,0.772,0.328l6.18,10.48
				c0,0,2.658,28.01-12.943,38.881c-23.643,16.472-39.928,26.57-44.704,32.384c-2.171,2.646-3.888,6.811,1.885,9.9
				c5.775,3.09,10.295,4.995,14.605,4.658c4.313-0.337,40.186-8.378,55.787-29.865C263.837,114.841,269.179,86.538,251.185,72.302z"
				/>
			
				<path fill="none" stroke="#000100" stroke-width="2.2756" stroke-linecap="round" stroke-linejoin="round" stroke-miterlimit="10" d="
				M200.779,151.189c0,0,39.449-8.193,46.77-33.595"/>
		</g>
		<g clip-path="url(#SVGID_2_)">
			
				<path fill="#FFCF04" stroke="#000100" stroke-width="3.0341" stroke-linecap="round" stroke-linejoin="round" stroke-miterlimit="10" d="
				M151.651-47.056c-1.762-1.393-6.587-0.634-6.587-0.634l-8.335-11.778c0.064-0.812-0.133-1.491-0.627-1.887
				c-1.152-0.926-3.465,0.043-5.167,2.163c-1.7,2.12-2.147,4.588-0.994,5.513c0.22,0.176,0.481,0.282,0.772,0.328l6.18,10.479
				c0,0,2.658,28.011-12.943,38.882c-23.643,16.472-39.928,26.57-44.703,32.384c-2.172,2.646-3.889,6.811,1.885,9.9
				c5.775,3.09,10.294,4.995,14.605,4.658c4.313-0.337,40.186-8.379,55.787-29.865C164.304-4.518,169.646-32.821,151.651-47.056z"/>
			
				<path fill="none" stroke="#000100" stroke-width="2.2756" stroke-linecap="round" stroke-linejoin="round" stroke-miterlimit="10" d="
				M101.245,31.831c0,0,39.449-8.194,46.77-33.595"/>
		</g>
		<g clip-path="url(#SVGID_2_)">
			
				<path fill="#FFCF04" stroke="#000100" stroke-width="3.0341" stroke-linecap="round" stroke-linejoin="round" stroke-miterlimit="10" d="
				M151.651,172.944c-1.762-1.393-6.587-0.634-6.587-0.634l-8.335-11.778c0.064-0.812-0.133-1.491-0.627-1.887
				c-1.152-0.926-3.465,0.043-5.167,2.163c-1.7,2.12-2.147,4.588-0.994,5.513c0.22,0.176,0.481,0.282,0.772,0.328l6.18,10.479
				c0,0,2.658,28.011-12.943,38.882c-23.643,16.472-39.928,26.571-44.703,32.385c-2.172,2.646-3.889,6.811,1.885,9.9
				c5.775,3.09,10.294,4.995,14.605,4.657c4.313-0.336,40.186-8.378,55.787-29.865C164.304,215.482,169.646,187.179,151.651,172.944
				z"/>
			
				<path fill="none" stroke="#000100" stroke-width="2.2756" stroke-linecap="round" stroke-linejoin="round" stroke-miterlimit="10" d="
				M101.245,251.831c0,0,39.449-8.194,46.77-33.595"/>
		</g>
		<g clip-path="url(#SVGID_2_)">
			
				<path fill="#E10717" stroke="#000100" stroke-width="3.3407" stroke-linecap="round" stroke-linejoin="round" stroke-miterlimit="10" d="
				M141.056,69.778c-12.495-0.393-29.159,9.504-39.633,18.102c-8.745,7.176-20.964,19.089-26.096,39.584
				c-3.852,15.354-1.506,31.071,5.223,35.014c1.937,1.134,3.4,1.504,4.351,1.097c2.31-0.987,3.974-6.823,5.293-12.401
				c3.838-16.234,15.534-29.083,24.382-35.153c4.982-3.421,12.689-6.209,20.146-8.908c6.607-2.393,16.684-9.77,21.054-15.753
				c4.371-5.985-1.627-14.32-1.627-14.32l-6.514-6.003C146.056,70.262,143.417,69.716,141.056,69.778z"/>
			
				<path fill="none" stroke="#000100" stroke-width="2.5055" stroke-linecap="round" stroke-linejoin="round" stroke-miterlimit="10" d="
				M93.894,125.566c0,0,4.932-17.508,28.169-23.863"/>
			
				<path fill="#39A935" stroke="#000100" stroke-width="3.3407" stroke-linecap="round" stroke-linejoin="round" stroke-miterlimit="10" d="
				M148.95,68.034c1.488,1.098,4.664,3.741,6.097,7.204c0.54,1.307,1.085,3.281,1.085,3.281l11.597-2.345l2.717,5.568l-12.675,1.967
				c0,0,0.06,1.433,0.245,3.115c0.411,3.724-1.102,7.572-1.878,9.249c-1.675-2.218-2.842-4.343-3.496-6.346
				c-1.514,1.259-3.483,2.426-5.901,3.491c-0.297-1.958-0.647-6.318,1.333-9.643c0.206-0.346,0.435-0.67,0.683-0.974
				c-0.149-0.065-0.3-0.134-0.45-0.209c-2.521-1.278-4.725-3.901-6.556-7.807c1.499-0.247,4.314-0.559,7.064-0.067
				C148.554,72.62,148.598,70.454,148.95,68.034z"/>
		</g>
		<g clip-path="url(#SVGID_2_)">
			
				<path fill="#E10717" stroke="#000100" stroke-width="2.3542" stroke-linecap="round" stroke-linejoin="round" stroke-miterlimit="10" d="
				M28.423,181.753c3.12,8.238,14.065,16.408,22.49,20.902c7.033,3.752,18.089,8.485,32.814,6.285
				c11.034-1.642,20.628-7.416,21.376-12.86c0.214-1.568,0.06-2.62-0.462-3.128c-1.267-1.237-5.515-0.743-9.5-0.094
				c-11.603,1.891-23.125-2.25-29.467-6.367c-3.573-2.319-7.47-6.581-11.242-10.704c-3.342-3.654-10.866-8.218-15.942-9.445
				c-5.076-1.226-8.879,4.929-8.879,4.929l-2.146,5.862C27.386,178.369,27.744,180.233,28.423,181.753z"/>
			
				<path fill="none" stroke="#000100" stroke-width="1.7656" stroke-linecap="round" stroke-linejoin="round" stroke-miterlimit="10" d="
				M77.475,197.37c0,0-12.727,1.522-23.143-11.883"/>
			
				<path fill="#39A935" stroke="#000100" stroke-width="2.3542" stroke-linecap="round" stroke-linejoin="round" stroke-miterlimit="10" d="
				M25.154,177.086c0.313-1.264,1.174-4.046,3.041-5.915c0.705-0.704,1.842-1.592,1.842-1.592l-4.659-6.914l2.89-3.273l4.705,7.718
				c0,0,0.916-0.426,1.962-1.001c2.312-1.274,5.225-1.329,6.526-1.277c-0.991,1.69-2.059,3.024-3.186,3.991
				c1.229,0.645,2.52,1.611,3.867,2.896c-1.195,0.723-3.937,2.128-6.636,1.739c-0.282-0.04-0.554-0.102-0.818-0.182
				c-0.003,0.115-0.007,0.231-0.016,0.35c-0.149,1.986-1.261,4.129-3.309,6.376c-0.565-0.909-1.529-2.656-1.953-4.579
				C28.246,176.106,26.824,176.662,25.154,177.086z"/>
		</g>
		<g clip-path="url(#SVGID_2_)">
			
				<path fill="#E10717" stroke="#000100" stroke-width="2.1157" stroke-linecap="round" stroke-linejoin="round" stroke-miterlimit="10" d="
				M208.181,83.345c2.872-7.377,0.477-19.416-2.447-27.485c-2.44-6.734-6.976-16.546-18.132-23.935
				c-8.356-5.54-18.236-7.454-22.011-4.268c-1.085,0.917-1.615,1.712-1.572,2.366c0.102,1.589,3.236,3.814,6.288,5.778
				c8.884,5.717,14.089,15.411,15.848,21.976c0.992,3.696,1.03,8.887,1.069,13.909c0.034,4.451,2.314,12.024,4.965,15.896
				c2.651,3.873,8.895,2.049,8.895,2.049l4.959-2.622C206.837,86.229,207.72,84.769,208.181,83.345z"/>
			
				<path fill="none" stroke="#000100" stroke-width="1.5868" stroke-linecap="round" stroke-linejoin="round" stroke-miterlimit="10" d="
				M184.818,43.414c0,0,9.414,6.638,8.307,21.854"/>
			
				<path fill="#39A935" stroke="#000100" stroke-width="2.1157" stroke-linecap="round" stroke-linejoin="round" stroke-miterlimit="10" d="
				M207.557,88.427c-0.969,0.658-3.218,1.997-5.588,2.122c-0.894,0.046-2.187-0.043-2.187-0.043l-1.047,7.419l-3.898,0.449
				l1.501-7.985c0,0-0.869-0.266-1.913-0.511c-2.31-0.541-4.288-2.254-5.126-3.074c1.678-0.532,3.193-0.781,4.527-0.747
				c-0.432-1.17-0.714-2.593-0.84-4.262c1.232,0.236,3.909,0.947,5.477,2.831c0.164,0.197,0.309,0.402,0.438,0.614
				c0.071-0.075,0.144-0.15,0.22-0.224c1.295-1.237,3.326-1.999,6.045-2.269c-0.169,0.948-0.577,2.693-1.45,4.233
				C204.902,87.225,206.186,87.707,207.557,88.427z"/>
		</g>
		<g clip-path="url(#SVGID_2_)">
			
				<path fill="#E10717" stroke="#000100" stroke-width="1.7058" stroke-linecap="round" stroke-linejoin="round" stroke-miterlimit="10" d="
				M31.268,32.801c0.58,6.356,6.635,14.184,11.645,18.956c4.182,3.983,10.982,9.433,21.689,10.755
				c8.022,0.994,15.841-1.175,17.419-4.832c0.454-1.053,0.55-1.816,0.284-2.273c-0.645-1.109-3.706-1.588-6.615-1.909
				c-8.467-0.933-15.708-6.058-19.336-10.164c-2.045-2.312-3.938-6.042-5.772-9.654c-1.624-3.199-5.991-7.846-9.296-9.686
				c-3.306-1.843-7.155,1.718-7.155,1.718l-2.636,3.676C31.201,30.236,31.088,31.607,31.268,32.801z"/>
			
				<path fill="none" stroke="#000100" stroke-width="1.2794" stroke-linecap="round" stroke-linejoin="round" stroke-miterlimit="10" d="
				M62.482,53.221c0,0-9.181-1.406-13.851-12.786"/>
			
				<path fill="#39A935" stroke="#000100" stroke-width="1.7058" stroke-linecap="round" stroke-linejoin="round" stroke-miterlimit="10" d="
				M29.891,28.909c0.464-0.823,1.604-2.598,3.271-3.54c0.628-0.355,1.595-0.755,1.595-0.755l-1.911-5.73l2.652-1.724l1.787,6.301
				c0,0,0.723-0.119,1.564-0.318c1.862-0.44,3.906,0.086,4.805,0.376c-1.021,0.986-2.024,1.71-2.999,2.167
				c0.732,0.689,1.447,1.614,2.138,2.773c-0.974,0.272-3.162,0.722-4.97-0.074c-0.189-0.083-0.367-0.179-0.537-0.286
				c-0.023,0.08-0.05,0.16-0.078,0.241c-0.49,1.358-1.682,2.639-3.548,3.81c-0.218-0.745-0.552-2.151-0.475-3.576
				C32.239,28.823,31.139,28.937,29.891,28.909z"/>
		</g>
	</g>
</g>
</svg>
