<?xml version="1.0" encoding="utf-8"?>
<!-- Generator: Adobe Illustrator 16.0.0, SVG Export Plug-In . SVG Version: 6.00 Build 0)  -->
<!DOCTYPE svg PUBLIC "-//W3C//DTD SVG 1.1//EN" "http://www.w3.org/Graphics/SVG/1.1/DTD/svg11.dtd">
<svg version="1.1" xmlns="http://www.w3.org/2000/svg" xmlns:xlink="http://www.w3.org/1999/xlink" x="0px" y="0px" width="220px"
	 height="220px" viewBox="0 0 220 220" enable-background="new 0 0 220 220" xml:space="preserve">
<g id="bg" display="none">
	<rect x="-1345.836" y="-381.787" display="inline" fill="#FFFFFF" width="3240.076" height="8444.104"/>
</g>
<g id="Layer_3" display="none">
</g>
<g id="Layer_1">
	<g>
		<defs>
			<rect id="SVGID_225_" width="220" height="220"/>
		</defs>
		<clipPath id="SVGID_2_">
			<use xlink:href="#SVGID_225_"  overflow="visible"/>
		</clipPath>
		<rect clip-path="url(#SVGID_2_)" fill="#E69F02" width="220" height="220"/>
		<g clip-path="url(#SVGID_2_)">
			
				<path fill="#FFCF04" stroke="#000100" stroke-width="3.0341" stroke-linecap="round" stroke-linejoin="round" stroke-miterlimit="10" d="
				M31.185,72.302c-1.762-1.393-6.587-0.634-6.587-0.634L16.263,59.89c0.064-0.812-0.133-1.491-0.627-1.888
				c-1.152-0.925-3.465,0.044-5.167,2.164c-1.7,2.12-2.148,4.588-0.994,5.513c0.22,0.176,0.481,0.282,0.772,0.328l6.18,10.48
				c0,0,2.658,28.01-12.943,38.881c-23.643,16.472-39.928,26.57-44.704,32.384c-2.171,2.646-3.888,6.811,1.885,9.9
				c5.775,3.09,10.295,4.995,14.605,4.658c4.313-0.337,40.186-8.378,55.787-29.865C43.837,114.841,49.179,86.538,31.185,72.302z"/>
			
				<path fill="none" stroke="#000100" stroke-width="2.2756" stroke-linecap="round" stroke-linejoin="round" stroke-miterlimit="10" d="
				M-19.221,151.189c0,0,39.449-8.193,46.77-33.595"/>
		</g>
		<g clip-path="url(#SVGID_2_)">
			
				<path fill="#FFCF04" stroke="#000100" stroke-width="3.0341" stroke-linecap="round" stroke-linejoin="round" stroke-miterlimit="10" d="
				M251.185,72.302c-1.762-1.393-6.587-0.634-6.587-0.634l-8.335-11.778c0.064-0.812-0.133-1.491-0.627-1.888
				c-1.152-0.925-3.465,0.044-5.167,2.164c-1.7,2.12-2.148,4.588-0.994,5.513c0.22,0.176,0.481,0.282,0.772,0.328l6.18,10.48
				c0,0,2.658,28.01-12.943,38.881c-23.643,16.472-39.928,26.57-44.704,32.384c-2.171,2.646-3.888,6.811,1.885,9.9
				c5.775,3.09,10.295,4.995,14.605,4.658c4.313-0.337,40.186-8.378,55.787-29.865C263.837,114.841,269.179,86.538,251.185,72.302z"
				/>
			
				<path fill="none" stroke="#000100" stroke-width="2.2756" stroke-linecap="round" stroke-linejoin="round" stroke-miterlimit="10" d="
				M200.779,151.189c0,0,39.449-8.193,46.77-33.595"/>
		</g>
		<g clip-path="url(#SVGID_2_)">
			
				<path fill="#FFCF04" stroke="#000100" stroke-width="3.0341" stroke-linecap="round" stroke-linejoin="round" stroke-miterlimit="10" d="
				M151.651-47.056c-1.762-1.393-6.587-0.634-6.587-0.634l-8.335-11.778c0.064-0.812-0.133-1.491-0.627-1.887
				c-1.152-0.926-3.465,0.043-5.167,2.163c-1.7,2.12-2.147,4.588-0.994,5.513c0.22,0.176,0.481,0.282,0.772,0.328l6.18,10.479
				c0,0,2.658,28.011-12.943,38.882c-23.643,16.472-39.928,26.57-44.703,32.384c-2.172,2.646-3.889,6.811,1.885,9.9
				c5.775,3.09,10.294,4.995,14.605,4.658c4.313-0.337,40.186-8.379,55.787-29.865C164.303-4.518,169.646-32.821,151.651-47.056z"/>
			
				<path fill="none" stroke="#000100" stroke-width="2.2756" stroke-linecap="round" stroke-linejoin="round" stroke-miterlimit="10" d="
				M101.245,31.831c0,0,39.449-8.194,46.77-33.595"/>
		</g>
		<g clip-path="url(#SVGID_2_)">
			
				<path fill="#FFCF04" stroke="#000100" stroke-width="3.0341" stroke-linecap="round" stroke-linejoin="round" stroke-miterlimit="10" d="
				M151.651,172.944c-1.762-1.393-6.587-0.634-6.587-0.634l-8.335-11.778c0.064-0.812-0.133-1.491-0.627-1.887
				c-1.152-0.926-3.465,0.043-5.167,2.163c-1.7,2.12-2.147,4.588-0.994,5.513c0.22,0.176,0.481,0.282,0.772,0.328l6.18,10.479
				c0,0,2.658,28.011-12.943,38.882c-23.643,16.472-39.928,26.571-44.703,32.385c-2.172,2.646-3.889,6.811,1.885,9.9
				c5.775,3.09,10.294,4.995,14.605,4.657c4.313-0.336,40.186-8.378,55.787-29.865C164.303,215.482,169.646,187.179,151.651,172.944
				z"/>
			
				<path fill="none" stroke="#000100" stroke-width="2.2756" stroke-linecap="round" stroke-linejoin="round" stroke-miterlimit="10" d="
				M101.245,251.831c0,0,39.449-8.194,46.77-33.595"/>
		</g>
		<g clip-path="url(#SVGID_2_)">
			
				<path fill="#E10717" stroke="#000100" stroke-width="3.3407" stroke-linecap="round" stroke-linejoin="round" stroke-miterlimit="10" d="
				M72.041,137.382c0.259-12.497,11.015-28.622,20.147-38.633c7.622-8.358,20.158-19.938,40.895-23.992
				c15.534-3.045,31.106,0.12,34.693,7.045c1.031,1.994,1.325,3.474,0.868,4.402c-1.106,2.255-7.022,3.612-12.661,4.638
				c-16.412,2.985-29.854,13.994-36.379,22.512c-3.677,4.797-6.864,12.348-9.949,19.655c-2.734,6.472-10.627,16.15-16.831,20.201
				c-6.205,4.051-14.215-2.374-14.215-2.374l-5.655-6.819C72.263,142.401,71.854,139.738,72.041,137.382z"/>
			
				<path fill="none" stroke="#000100" stroke-width="2.5055" stroke-linecap="round" stroke-linejoin="round" stroke-miterlimit="10" d="
				M130.217,93.2c0,0-17.742,4.01-25.303,26.885"/>
			
				<path fill="#39A935" stroke="#000100" stroke-width="3.3407" stroke-linecap="round" stroke-linejoin="round" stroke-miterlimit="10" d="
				M69.886,145.175c1.018,1.544,3.493,4.853,6.876,6.466c1.276,0.606,3.219,1.254,3.219,1.254l-2.947,11.459l5.419,3.004
				l2.625-12.555c0,0,1.427,0.135,3.099,0.407c3.698,0.604,7.618-0.706,9.334-1.393c-2.129-1.788-4.19-3.065-6.155-3.822
				c1.336-1.447,2.604-3.352,3.794-5.711c-1.939-0.399-6.275-0.977-9.699,0.828c-0.356,0.188-0.691,0.399-1.008,0.63
				c-0.058-0.153-0.119-0.306-0.187-0.46c-1.143-2.585-3.648-4.922-7.453-6.955c-0.325,1.484-0.784,4.278-0.437,7.05
				C74.487,145.019,72.321,144.95,69.886,145.175z"/>
		</g>
	</g>
</g>
</svg>
