<?xml version="1.0" encoding="utf-8"?>
<!-- Generator: Adobe Illustrator 16.0.0, SVG Export Plug-In . SVG Version: 6.00 Build 0)  -->
<!DOCTYPE svg PUBLIC "-//W3C//DTD SVG 1.1//EN" "http://www.w3.org/Graphics/SVG/1.1/DTD/svg11.dtd">
<svg version="1.1" xmlns="http://www.w3.org/2000/svg" xmlns:xlink="http://www.w3.org/1999/xlink" x="0px" y="0px" width="220px"
	 height="220px" viewBox="0 0 220 220" enable-background="new 0 0 220 220" xml:space="preserve">
<g id="bg" display="none">
	<rect x="-745.836" y="-381.787" display="inline" fill="#FFFFFF" width="3240.076" height="8444.104"/>
</g>
<g id="Layer_3" display="none">
</g>
<g id="Layer_1">
	<g>
		<defs>
			<rect id="SVGID_221_" width="220" height="220"/>
		</defs>
		<clipPath id="SVGID_2_">
			<use xlink:href="#SVGID_221_"  overflow="visible"/>
		</clipPath>
		<rect clip-path="url(#SVGID_2_)" fill="#E69F02" width="220" height="220"/>
		<g clip-path="url(#SVGID_2_)">
			
				<path fill="#FFCF04" stroke="#000100" stroke-width="3.0341" stroke-linecap="round" stroke-linejoin="round" stroke-miterlimit="10" d="
				M144.23,132.477c1.767-1.386,2.159-6.254,2.159-6.254l13.401-5.345c0.775,0.25,1.482,0.219,1.982-0.168
				c1.17-0.906,0.769-3.38-0.893-5.531c-1.662-2.148-3.958-3.162-5.127-2.256c-0.222,0.171-0.388,0.402-0.499,0.674l-11.636,3.554
				c0,0-27.855-3.971-34.771-21.683c-10.481-26.843-16.485-45.04-21.021-51.044c-2.063-2.731-5.712-5.373-10.066-0.485
				c-4.356,4.894-7.267,8.84-7.947,13.11c-0.682,4.271-1.262,41.03,15.975,61.228C99.912,134.821,126.177,146.64,144.23,132.477z"/>
			
				<path fill="none" stroke="#000100" stroke-width="2.2756" stroke-linecap="round" stroke-linejoin="round" stroke-miterlimit="10" d="
				M79.335,65.005c0,0-1.269,40.27,21.713,53.335"/>
		</g>
		<g clip-path="url(#SVGID_2_)">
			
				<path fill="#E10717" stroke="#000100" stroke-width="2.2586" stroke-linecap="round" stroke-linejoin="round" stroke-miterlimit="10" d="
				M206.632,132.865c2.082,8.19-2.02,20.635-6.167,28.804c-3.461,6.82-9.543,16.626-22.324,23.004
				c-9.573,4.785-20.291,5.528-23.877,1.661c-1.031-1.113-1.488-2.025-1.358-2.712c0.315-1.668,3.926-3.619,7.415-5.304
				c10.157-4.903,16.932-14.499,19.647-21.225c1.533-3.787,2.248-9.282,2.942-14.599c0.614-4.71,4.014-12.44,7.326-16.197
				c3.313-3.758,9.69-1.015,9.69-1.015l4.914,3.423C205.583,129.635,206.329,131.296,206.632,132.865z"/>
			
				<path fill="none" stroke="#000100" stroke-width="1.6939" stroke-linecap="round" stroke-linejoin="round" stroke-miterlimit="10" d="
				M176.685,172.139c0,0,10.84-5.81,11.645-22.078"/>
			
				<path fill="#39A935" stroke="#000100" stroke-width="2.2586" stroke-linecap="round" stroke-linejoin="round" stroke-miterlimit="10" d="
				M206.632,127.399c-0.942-0.822-3.15-2.533-5.646-2.974c-0.94-0.166-2.323-0.237-2.323-0.237l-0.145-7.999l-4.073-0.98
				l0.552,8.653c0,0-0.955,0.17-2.093,0.293c-2.519,0.273-4.836,1.833-5.832,2.59c1.71,0.782,3.282,1.242,4.699,1.381
				c-0.61,1.184-1.09,2.654-1.442,4.406c1.335-0.089,4.265-0.495,6.171-2.287c0.2-0.187,0.379-0.386,0.544-0.593
				c0.064,0.089,0.132,0.178,0.205,0.266c1.21,1.479,3.263,2.55,6.11,3.189c-0.057-1.026-0.261-2.929-0.987-4.673
				C203.662,128.33,205.086,127.984,206.632,127.399z"/>
		</g>
		<g clip-path="url(#SVGID_2_)">
			
				<path fill="#E10717" stroke="#000100" stroke-width="2.0406" stroke-linecap="round" stroke-linejoin="round" stroke-miterlimit="10" d="
				M20.915,37.533c2.344-7.266,11.464-14.816,18.562-19.072c5.926-3.555,15.292-8.134,28.135-6.869
				c9.624,0.941,18.18,5.523,19.065,10.205c0.254,1.348,0.165,2.265-0.265,2.727c-1.042,1.125-4.742,0.882-8.221,0.494
				c-10.127-1.129-19.922,2.955-25.233,6.795c-2.993,2.163-6.181,6.021-9.267,9.755c-2.735,3.309-9.051,7.589-13.39,8.871
				c-4.341,1.282-7.902-3.882-7.902-3.882l-2.113-4.98C20.166,40.509,20.393,38.879,20.915,37.533z"/>
			
				<path fill="none" stroke="#000100" stroke-width="1.5305" stroke-linecap="round" stroke-linejoin="round" stroke-miterlimit="10" d="
				M62.702,21.881c0,0-11.086-0.767-19.52,11.293"/>
			
				<path fill="#39A935" stroke="#000100" stroke-width="2.0406" stroke-linecap="round" stroke-linejoin="round" stroke-miterlimit="10" d="
				M18.288,41.715c0.326,1.082,1.193,3.453,2.891,4.99c0.64,0.579,1.663,1.297,1.663,1.297l-3.733,6.188l2.644,2.708l3.737-6.884
				c0,0,0.812,0.328,1.743,0.781c2.058,1.001,4.581,0.922,5.706,0.821c-0.932-1.419-1.914-2.528-2.931-3.315
				c1.035-0.612,2.11-1.506,3.221-2.677c-1.064-0.573-3.501-1.671-5.821-1.215c-0.242,0.046-0.475,0.111-0.7,0.191
				c-0.006-0.098-0.016-0.2-0.029-0.303c-0.216-1.713-1.272-3.519-3.142-5.375c-0.45,0.81-1.208,2.365-1.491,4.049
				C21.008,42.431,19.752,42.011,18.288,41.715z"/>
		</g>
		<g clip-path="url(#SVGID_2_)">
			
				<path fill="#E10717" stroke="#000100" stroke-width="2.0406" stroke-linecap="round" stroke-linejoin="round" stroke-miterlimit="10" d="
				M59.609,153.609c-7.614-0.549-18.032,5.077-24.637,10.063c-5.517,4.163-13.271,11.13-16.911,23.511
				c-2.734,9.275-1.691,18.925,2.316,21.5c1.155,0.743,2.038,1.002,2.629,0.777c1.434-0.544,2.595-4.066,3.537-7.438
				c2.748-9.811,10.205-17.363,15.755-20.847c3.126-1.966,7.898-3.475,12.518-4.937c4.093-1.296,10.427-5.549,13.241-9.091
				c2.816-3.545-0.638-8.782-0.638-8.782l-3.827-3.825C62.649,154.03,61.052,153.63,59.609,153.609z"/>
			
				<path fill="none" stroke="#000100" stroke-width="1.5305" stroke-linecap="round" stroke-linejoin="round" stroke-miterlimit="10" d="
				M29.44,186.489c0,0,3.443-10.567,17.784-13.867"/>
			
				<path fill="#39A935" stroke="#000100" stroke-width="2.0406" stroke-linecap="round" stroke-linejoin="round" stroke-miterlimit="10" d="
				M64.47,152.741c0.881,0.708,2.755,2.399,3.543,4.549c0.298,0.81,0.58,2.028,0.58,2.028l7.137-1.141l1.52,3.464l-7.783,0.885
				c0,0,0,0.877,0.071,1.91c0.158,2.283-0.862,4.591-1.377,5.597c-0.966-1.396-1.627-2.721-1.975-3.959
				c-0.955,0.731-2.188,1.393-3.689,1.983c-0.132-1.202-0.237-3.872,1.054-5.852c0.133-0.207,0.282-0.4,0.44-0.578
				c-0.09-0.043-0.18-0.09-0.27-0.141c-1.508-0.842-2.786-2.498-3.807-4.927c0.92-0.113,2.646-0.233,4.313,0.135
				C64.114,155.53,64.197,154.21,64.47,152.741z"/>
		</g>
		<g clip-path="url(#SVGID_2_)">
			
				<path fill="#FFCF04" stroke="#000100" stroke-width="3.0341" stroke-linecap="round" stroke-linejoin="round" stroke-miterlimit="10" d="
				M72.302,188.815c-1.393,1.762-0.635,6.587-0.635,6.587l-11.777,8.334c-0.812-0.064-1.491,0.133-1.888,0.627
				c-0.925,1.152,0.043,3.465,2.163,5.167c2.12,1.7,4.588,2.147,5.513,0.994c0.176-0.22,0.282-0.481,0.328-0.773l10.48-6.179
				c0,0,28.011-2.658,38.881,12.943c16.472,23.643,26.57,39.928,32.384,44.703c2.646,2.172,6.812,3.889,9.9-1.885
				c3.09-5.775,4.995-10.295,4.657-14.604c-0.337-4.313-8.378-40.186-29.864-55.788C114.84,176.164,86.538,170.821,72.302,188.815z"
				/>
			
				<path fill="none" stroke="#000100" stroke-width="2.2756" stroke-linecap="round" stroke-linejoin="round" stroke-miterlimit="10" d="
				M151.189,239.221c0,0-8.193-39.449-33.595-46.77"/>
		</g>
		<g clip-path="url(#SVGID_2_)">
			
				<path fill="#FFCF04" stroke="#000100" stroke-width="3.0341" stroke-linecap="round" stroke-linejoin="round" stroke-miterlimit="10" d="
				M72.302-31.185c-1.393,1.762-0.635,6.587-0.635,6.587L59.89-16.263c-0.812-0.065-1.491,0.133-1.888,0.626
				c-0.925,1.153,0.043,3.465,2.163,5.167c2.12,1.7,4.588,2.147,5.513,0.994c0.176-0.22,0.282-0.481,0.328-0.773l10.48-6.179
				c0,0,28.011-2.658,38.881,12.944c16.472,23.643,26.57,39.927,32.384,44.702c2.646,2.172,6.812,3.889,9.9-1.884
				c3.09-5.776,4.995-10.295,4.657-14.605c-0.337-4.313-8.378-40.186-29.864-55.788C114.84-43.837,86.538-49.179,72.302-31.185z"/>
			
				<path fill="none" stroke="#000100" stroke-width="2.2756" stroke-linecap="round" stroke-linejoin="round" stroke-miterlimit="10" d="
				M151.189,19.221c0,0-8.193-39.449-33.595-46.77"/>
		</g>
		<g clip-path="url(#SVGID_2_)">
			
				<path fill="#FFCF04" stroke="#000100" stroke-width="3.0341" stroke-linecap="round" stroke-linejoin="round" stroke-miterlimit="10" d="
				M-47.056,68.349c-1.394,1.762-0.635,6.587-0.635,6.587l-11.778,8.335c-0.812-0.065-1.491,0.133-1.887,0.626
				c-0.926,1.153,0.043,3.465,2.163,5.167c2.119,1.701,4.588,2.148,5.513,0.995c0.176-0.22,0.282-0.482,0.328-0.773l10.48-6.18
				c0,0,28.011-2.658,38.881,12.944c16.473,23.642,26.57,39.927,32.385,44.703c2.646,2.172,6.812,3.889,9.9-1.884
				c3.09-5.776,4.995-10.295,4.657-14.605c-0.337-4.313-8.378-40.187-29.864-55.788C-4.518,55.697-32.821,50.355-47.056,68.349z"/>
			
				<path fill="none" stroke="#000100" stroke-width="2.2756" stroke-linecap="round" stroke-linejoin="round" stroke-miterlimit="10" d="
				M31.831,118.755c0,0-8.193-39.449-33.595-46.77"/>
		</g>
		<g clip-path="url(#SVGID_2_)">
			
				<path fill="#FFCF04" stroke="#000100" stroke-width="3.0341" stroke-linecap="round" stroke-linejoin="round" stroke-miterlimit="10" d="
				M172.944,68.349c-1.394,1.762-0.635,6.587-0.635,6.587l-11.778,8.335c-0.812-0.065-1.491,0.133-1.887,0.626
				c-0.926,1.153,0.043,3.465,2.163,5.167c2.119,1.701,4.588,2.148,5.513,0.995c0.176-0.22,0.282-0.482,0.328-0.773l10.48-6.18
				c0,0,28.011-2.658,38.881,12.944c16.473,23.642,26.57,39.927,32.385,44.703c2.646,2.172,6.812,3.889,9.9-1.884
				c3.09-5.776,4.995-10.295,4.657-14.605c-0.337-4.313-8.378-40.187-29.864-55.788C215.482,55.697,187.179,50.355,172.944,68.349z"
				/>
			
				<path fill="none" stroke="#000100" stroke-width="2.2756" stroke-linecap="round" stroke-linejoin="round" stroke-miterlimit="10" d="
				M251.831,118.755c0,0-8.193-39.449-33.595-46.77"/>
		</g>
	</g>
</g>
</svg>
