<?xml version="1.0" encoding="utf-8"?>
<!-- Generator: Adobe Illustrator 16.0.0, SVG Export Plug-In . SVG Version: 6.00 Build 0)  -->
<!DOCTYPE svg PUBLIC "-//W3C//DTD SVG 1.1//EN" "http://www.w3.org/Graphics/SVG/1.1/DTD/svg11.dtd">
<svg version="1.1" xmlns="http://www.w3.org/2000/svg" xmlns:xlink="http://www.w3.org/1999/xlink" x="0px" y="0px" width="220px"
	 height="220px" viewBox="0 0 220 220" enable-background="new 0 0 220 220" xml:space="preserve">
<g id="bg" display="none">
	<rect x="-2845.836" y="-381.787" display="inline" fill="#FFFFFF" width="3240.076" height="8444.104"/>
</g>
<g id="Layer_3" display="none">
</g>
<g id="Layer_1">
	<g>
		<defs>
			<rect id="SVGID_229_" x="-300" width="220" height="220"/>
		</defs>
		<clipPath id="SVGID_2_">
			<use xlink:href="#SVGID_229_"  overflow="visible"/>
		</clipPath>
		<g clip-path="url(#SVGID_2_)">
			
				<path fill="#E10717" stroke="#000100" stroke-width="3.4503" stroke-linecap="round" stroke-linejoin="round" stroke-miterlimit="10" d="
				M-106.682,166.892c10.606,7.362,30.609,8.148,44.516,6.584c11.609-1.305,28.893-4.763,44.855-19.641
				c11.965-11.142,18.763-26.08,15.148-33.278c-1.042-2.07-2.102-3.213-3.155-3.394c-2.557-0.443-7.278,3.679-11.554,7.771
				c-12.448,11.911-29.803,16.475-40.881,16.764c-6.24,0.166-14.484-1.75-22.464-3.6c-7.069-1.64-19.946-0.908-27.096,1.822
				c-7.15,2.731-6.635,13.325-6.635,13.325l2.272,8.861C-110.744,163.665-108.765,165.621-106.682,166.892z"/>
		</g>
	</g>
	<g>
		<defs>
			<rect id="SVGID_231_" x="0" width="220" height="220"/>
		</defs>
		<clipPath id="SVGID_4_">
			<use xlink:href="#SVGID_231_"  overflow="visible"/>
		</clipPath>
		<rect x="0" clip-path="url(#SVGID_4_)" fill="#E69F02" width="220" height="220"/>
		<g clip-path="url(#SVGID_4_)">
			
				<path fill="#E10717" stroke="#000100" stroke-width="3.7593" stroke-linecap="round" stroke-linejoin="round" stroke-miterlimit="10" d="
				M141.904,158.498c-13.286,4.624-34.508-0.401-48.647-6.112c-11.804-4.765-28.932-13.45-41.334-33.735
				c-9.299-15.195-12.064-32.859-6.164-39.358c1.698-1.869,3.145-2.758,4.303-2.641c2.812,0.283,6.562,5.991,9.854,11.538
				c9.579,16.143,26.461,26.009,38.003,29.553c6.501,1.999,15.714,2.4,24.63,2.793c7.9,0.348,21.202,4.881,27.907,9.837
				c6.705,4.957,3.066,15.925,3.066,15.925l-4.976,8.638C147.112,156.297,144.462,157.772,141.904,158.498z"/>
			
				<path fill="none" stroke="#000100" stroke-width="2.8195" stroke-linecap="round" stroke-linejoin="round" stroke-miterlimit="10" d="
				M72.499,114.446c0,0,11.184,17.143,38.276,16.155"/>
			
				<path fill="#39A935" stroke="#000100" stroke-width="3.7593" stroke-linecap="round" stroke-linejoin="round" stroke-miterlimit="10" d="
				M150.968,157.717c1.229-1.679,3.751-5.585,4.125-9.787c0.14-1.584,0.063-3.888,0.063-3.888l13.242-1.381l1.045-6.892
				l-14.271,2.148c0,0-0.419-1.558-0.786-3.426c-0.81-4.137-3.729-7.76-5.127-9.301c-1.052,2.945-1.592,5.621-1.62,7.992
				c-2.05-0.844-4.556-1.435-7.512-1.766c0.341,2.203,1.431,7.003,4.674,9.907c0.338,0.303,0.694,0.574,1.062,0.814
				c-0.137,0.122-0.276,0.246-0.412,0.377c-2.28,2.219-3.764,5.778-4.417,10.589c1.693-0.238,4.822-0.851,7.609-2.303
				C149.001,152.926,149.777,155.237,150.968,157.717z"/>
		</g>
		<g clip-path="url(#SVGID_4_)">
			
				<path fill="#E10717" stroke="#000100" stroke-width="3.3407" stroke-linecap="round" stroke-linejoin="round" stroke-miterlimit="10" d="
				M247.912,146.303c0.394-12.494-9.504-29.158-18.102-39.633c-7.175-8.745-19.089-20.964-39.584-26.096
				c-15.354-3.852-31.07-1.506-35.014,5.223c-1.134,1.938-1.504,3.4-1.097,4.351c0.987,2.31,6.823,3.974,12.401,5.292
				c16.234,3.84,29.083,15.535,35.153,24.382c3.421,4.982,6.209,12.689,8.909,20.146c2.392,6.608,9.77,16.685,15.753,21.054
				c5.985,4.371,14.32-1.626,14.32-1.626l6.004-6.515C247.428,151.303,247.975,148.665,247.912,146.303z"/>
			
				<path fill="none" stroke="#000100" stroke-width="2.5055" stroke-linecap="round" stroke-linejoin="round" stroke-miterlimit="10" d="
				M192.124,99.141c0,0,17.508,4.932,23.863,28.169"/>
			
				<path fill="#39A935" stroke="#000100" stroke-width="3.3407" stroke-linecap="round" stroke-linejoin="round" stroke-miterlimit="10" d="
				M249.656,154.197c-1.098,1.488-3.741,4.664-7.204,6.097c-1.307,0.54-3.281,1.085-3.281,1.085l2.344,11.597l-5.568,2.717
				l-1.967-12.675c0,0-1.433,0.06-3.116,0.246c-3.724,0.412-7.571-1.103-9.249-1.879c2.218-1.674,4.343-2.842,6.346-3.496
				c-1.259-1.514-2.426-3.483-3.491-5.9c1.958-0.298,6.318-0.648,9.643,1.333c0.347,0.205,0.67,0.434,0.974,0.682
				c0.066-0.149,0.135-0.3,0.21-0.45c1.277-2.521,3.9-4.724,7.807-6.555c0.247,1.499,0.56,4.313,0.068,7.063
				C245.07,153.801,247.236,153.845,249.656,154.197z"/>
		</g>
		<g clip-path="url(#SVGID_4_)">
			
				<path fill="#E10717" stroke="#000100" stroke-width="3.3407" stroke-linecap="round" stroke-linejoin="round" stroke-miterlimit="10" d="
				M27.912,146.303c0.394-12.494-9.504-29.158-18.102-39.633C2.635,97.925-9.279,85.706-29.774,80.574
				c-15.354-3.852-31.07-1.506-35.014,5.223c-1.134,1.938-1.504,3.4-1.097,4.351c0.987,2.31,6.823,3.974,12.401,5.292
				c16.234,3.84,29.083,15.535,35.153,24.382c3.421,4.982,6.209,12.689,8.909,20.146c2.392,6.608,9.77,16.685,15.753,21.054
				c5.985,4.371,14.32-1.626,14.32-1.626l6.004-6.515C27.428,151.303,27.975,148.665,27.912,146.303z"/>
			
				<path fill="#39A935" stroke="#000100" stroke-width="3.3407" stroke-linecap="round" stroke-linejoin="round" stroke-miterlimit="10" d="
				M29.656,154.197c-1.098,1.488-3.741,4.664-7.204,6.097c-1.307,0.54-3.281,1.085-3.281,1.085l2.344,11.597l-5.568,2.717
				l-1.967-12.675c0,0-1.433,0.06-3.116,0.246c-3.724,0.412-7.571-1.103-9.249-1.879c2.218-1.674,4.343-2.842,6.346-3.496
				c-1.259-1.514-2.426-3.483-3.491-5.9c1.958-0.298,6.318-0.648,9.643,1.333c0.347,0.205,0.67,0.434,0.974,0.682
				c0.066-0.149,0.135-0.3,0.21-0.45c1.277-2.521,3.9-4.724,7.807-6.555c0.247,1.499,0.56,4.313,0.068,7.063
				C25.07,153.801,27.236,153.845,29.656,154.197z"/>
		</g>
		<g clip-path="url(#SVGID_4_)">
			
				<path fill="#E10717" stroke="#000100" stroke-width="3.4503" stroke-linecap="round" stroke-linejoin="round" stroke-miterlimit="10" d="
				M53.107-26.682c-7.362,10.606-8.148,30.609-6.584,44.516c1.305,11.609,4.763,28.893,19.641,44.855
				c11.142,11.966,26.08,18.763,33.279,15.148c2.07-1.042,3.212-2.101,3.393-3.155c0.443-2.557-3.679-7.278-7.771-11.554
				C83.154,50.681,78.59,33.326,78.302,22.248c-0.166-6.24,1.749-14.484,3.6-22.463c1.64-7.07,0.908-19.947-1.822-27.096
				c-2.731-7.149-13.324-6.635-13.324-6.635l-8.862,2.272C56.335-30.743,54.379-28.764,53.107-26.682z"/>
			
				<path fill="none" stroke="#000100" stroke-width="2.5877" stroke-linecap="round" stroke-linejoin="round" stroke-miterlimit="10" d="
				M74.952,45.533c0,0-12.402-14.109-4.852-37.818"/>
		</g>
		<g clip-path="url(#SVGID_4_)">
			
				<path fill="#E10717" stroke="#000100" stroke-width="3.4503" stroke-linecap="round" stroke-linejoin="round" stroke-miterlimit="10" d="
				M53.107,193.318c-7.362,10.606-8.148,30.609-6.584,44.516c1.305,11.609,4.763,28.893,19.641,44.855
				c11.142,11.966,26.08,18.763,33.279,15.148c2.07-1.042,3.212-2.101,3.393-3.154c0.443-2.558-3.679-7.278-7.771-11.555
				c-11.911-12.447-16.475-29.803-16.764-40.881c-0.166-6.24,1.749-14.484,3.6-22.463c1.64-7.07,0.908-19.947-1.822-27.097
				c-2.731-7.149-13.324-6.635-13.324-6.635l-8.862,2.272C56.335,189.257,54.379,191.236,53.107,193.318z"/>
			
				<path fill="#39A935" stroke="#000100" stroke-width="3.4503" stroke-linecap="round" stroke-linejoin="round" stroke-miterlimit="10" d="
				M56.031,185.498c1.787-0.672,5.862-1.94,9.667-1.237c1.436,0.268,3.453,0.903,3.453,0.903l4.485-11.366l6.352,0.773
				l-5.418,12.089c0,0,1.275,0.752,2.838,1.539c3.458,1.736,5.942,5.208,6.958,6.823c-2.863,0.206-5.36,0.023-7.463-0.536
				c0.24,2.02,0.145,4.382-0.29,7.076c-1.864-0.842-5.838-2.989-7.606-6.574c-0.186-0.372-0.337-0.752-0.461-1.138
				c-0.142,0.091-0.285,0.184-0.435,0.271c-2.522,1.469-6.034,1.904-10.449,1.296c0.629-1.438,1.939-4.052,3.911-6.159
				C59.782,188.417,57.93,187.162,56.031,185.498z"/>
		</g>
		<g clip-path="url(#SVGID_4_)">
			
				<path fill="#E10717" stroke="#000100" stroke-width="2.1157" stroke-linecap="round" stroke-linejoin="round" stroke-miterlimit="10" d="
				M136.654,208.181c7.378,2.872,19.417,0.477,27.485-2.447c6.735-2.44,16.546-6.976,23.935-18.133
				c5.54-8.356,7.454-18.235,4.268-22.011c-0.917-1.084-1.712-1.615-2.366-1.572c-1.588,0.102-3.813,3.236-5.777,6.289
				c-5.717,8.882-15.412,14.088-21.977,15.847c-3.697,0.992-8.887,1.03-13.909,1.069c-4.451,0.033-12.024,2.314-15.896,4.965
				c-3.873,2.651-2.049,8.895-2.049,8.895l2.623,4.959C133.771,206.838,135.231,207.721,136.654,208.181z"/>
			
				<path fill="none" stroke="#000100" stroke-width="1.5868" stroke-linecap="round" stroke-linejoin="round" stroke-miterlimit="10" d="
				M176.586,184.818c0,0-6.639,9.414-21.855,8.308"/>
			
				<path fill="#39A935" stroke="#000100" stroke-width="2.1157" stroke-linecap="round" stroke-linejoin="round" stroke-miterlimit="10" d="
				M131.572,207.557c-0.658-0.969-1.996-3.218-2.122-5.588c-0.045-0.895,0.044-2.188,0.044-2.188l-7.419-1.047l-0.448-3.898
				l7.985,1.501c0,0,0.266-0.869,0.511-1.913c0.541-2.311,2.255-4.288,3.074-5.125c0.532,1.677,0.781,3.192,0.748,4.527
				c1.17-0.433,2.593-0.715,4.261-0.841c-0.236,1.232-0.947,3.909-2.831,5.477c-0.197,0.165-0.402,0.31-0.613,0.437
				c0.074,0.072,0.15,0.144,0.224,0.221c1.237,1.295,1.999,3.326,2.269,6.045c-0.948-0.168-2.693-0.576-4.233-1.449
				C132.775,204.902,132.292,206.187,131.572,207.557z"/>
		</g>
		<g clip-path="url(#SVGID_4_)">
			
				<path fill="#E10717" stroke="#000100" stroke-width="1.7058" stroke-linecap="round" stroke-linejoin="round" stroke-miterlimit="10" d="
				M19.066,28.964c-4.77,4.243-7.469,13.763-8.332,20.629c-0.721,5.729-1.065,14.437,4.232,23.837
				c3.966,7.043,10.355,12.045,14.234,11.143c1.116-0.261,1.788-0.637,1.997-1.123c0.51-1.177-0.923-3.924-2.394-6.455
				c-4.279-7.365-4.457-16.234-3.31-21.591c0.645-3.019,2.521-6.758,4.337-10.379c1.609-3.207,2.753-9.479,2.27-13.231
				c-0.481-3.754-5.633-4.736-5.633-4.736l-4.522,0.062C21.089,27.387,19.919,28.11,19.066,28.964z"/>
			
				<path fill="none" stroke="#000100" stroke-width="1.2794" stroke-linecap="round" stroke-linejoin="round" stroke-miterlimit="10" d="
				M21.181,66.205c0,0-4.322-8.221,2.059-18.737"/>
			
				<path fill="#39A935" stroke="#000100" stroke-width="1.7058" stroke-linecap="round" stroke-linejoin="round" stroke-miterlimit="10" d="
				M21.378,25.545c0.938-0.115,3.044-0.251,4.79,0.529c0.659,0.293,1.556,0.834,1.556,0.834l3.475-4.942l2.963,1.108l-4.008,5.181
				c0,0,0.525,0.511,1.186,1.069c1.46,1.237,2.25,3.193,2.552,4.089c-1.4-0.236-2.578-0.613-3.525-1.125
				c-0.118,0.999-0.438,2.122-0.96,3.366c-0.798-0.621-2.459-2.114-2.893-4.042c-0.045-0.202-0.074-0.402-0.09-0.601
				c-0.077,0.028-0.158,0.055-0.239,0.081c-1.384,0.412-3.122,0.214-5.173-0.591c0.471-0.618,1.402-1.721,2.596-2.506
				C22.843,27.383,22.099,26.565,21.378,25.545z"/>
		</g>
		<g clip-path="url(#SVGID_4_)">
			
				<path fill="#E10717" stroke="#000100" stroke-width="2.2752" stroke-linecap="round" stroke-linejoin="round" stroke-miterlimit="10" d="
				M154.415,14.05c-8.296,1.911-17.548,11.325-22.952,18.806c-4.51,6.244-10.486,16.213-10.302,30.603
				c0.132,10.781,4.409,20.722,9.526,22.148c1.473,0.41,2.499,0.4,3.055-0.034c1.35-1.051,1.432-5.183,1.33-9.085
				c-0.295-11.357,5.174-21.85,9.945-27.385c2.687-3.12,7.275-6.294,11.718-9.37c3.936-2.723,9.288-9.33,11.124-14.032
				c1.839-4.699-3.562-9.146-3.562-9.146l-5.332-2.822C157.794,13.498,155.961,13.597,154.415,14.05z"/>
			
				<path fill="none" stroke="#000100" stroke-width="1.7064" stroke-linecap="round" stroke-linejoin="round" stroke-miterlimit="10" d="
				M133.058,58.981c0,0,0.203-12.385,14.401-20.608"/>
			
				<path fill="#39A935" stroke="#000100" stroke-width="2.2752" stroke-linecap="round" stroke-linejoin="round" stroke-miterlimit="10" d="
				M159.31,11.528c1.171,0.465,3.724,1.654,5.268,3.685c0.584,0.765,1.286,1.972,1.286,1.972l7.229-3.559l2.759,3.194l-8.007,3.497
				c0,0,0.288,0.935,0.703,2.01c0.917,2.382,0.59,5.176,0.369,6.417c-1.487-1.172-2.624-2.367-3.404-3.573
				c-0.777,1.093-1.872,2.202-3.278,3.325c-0.536-1.237-1.523-4.047-0.798-6.581c0.076-0.266,0.17-0.518,0.279-0.761
				c-0.108-0.016-0.22-0.037-0.332-0.059c-1.883-0.404-3.791-1.748-5.675-4.001c0.947-0.423,2.743-1.118,4.642-1.273
				C159.848,14.617,159.501,13.184,159.31,11.528z"/>
		</g>
	</g>
</g>
</svg>
