<?xml version="1.0" encoding="utf-8"?>
<!-- Generator: Adobe Illustrator 16.0.0, SVG Export Plug-In . SVG Version: 6.00 Build 0)  -->
<!DOCTYPE svg PUBLIC "-//W3C//DTD SVG 1.1//EN" "http://www.w3.org/Graphics/SVG/1.1/DTD/svg11.dtd">
<svg version="1.1" xmlns="http://www.w3.org/2000/svg" xmlns:xlink="http://www.w3.org/1999/xlink" x="0px" y="0px"
	 width="453.543px" height="453.543px" viewBox="0 0 453.543 453.543" enable-background="new 0 0 453.543 453.543"
	 xml:space="preserve">
<g id="kvadrat" display="none">
</g>
<g id="color">
	<g id="rdeča7bela">
	</g>
	<g>
		<g>
			
				<rect x="219.462" y="95.559" stroke="#000000" stroke-width="8" stroke-linecap="round" stroke-linejoin="round" stroke-miterlimit="10" width="4.821" height="212.006"/>
			
				<path fill="#EED2A3" stroke="#000000" stroke-width="8" stroke-linecap="round" stroke-linejoin="round" stroke-miterlimit="10" d="
				M299.397,357.98c-46.447,0-113.387,0-145.25,0s-50-63.867-50-63.867h245.25C349.397,294.113,345.843,357.98,299.397,357.98z"/>
			<g>
				<g>
					
						<path fill="#57B2E5" stroke="#000000" stroke-width="8" stroke-linecap="round" stroke-linejoin="round" stroke-miterlimit="10" d="
						M218.701,95.906v164.484h-89.382C129.319,260.391,209.714,146.734,218.701,95.906z"/>
					
						<path fill="#0075A5" stroke="#000000" stroke-width="8" stroke-linecap="round" stroke-linejoin="round" stroke-miterlimit="10" d="
						M348.635,260.391c0,0-114.756-113.354-129.935-164.832v164.832H348.635z"/>
					
						<line fill="#57B2E5" stroke="#000000" stroke-width="8" stroke-linecap="round" stroke-linejoin="round" stroke-miterlimit="10" x1="218.701" y1="247.559" x2="218.701" y2="291.865"/>
				</g>
			</g>
		</g>
	</g>
</g>
<g id="cb" display="none">
	<g id="rdeča7bela_copy" display="inline">
	</g>
	<g display="inline">
		<g>
			<g>
				
					<path fill="none" stroke="#000000" stroke-width="8" stroke-linecap="round" stroke-linejoin="round" stroke-miterlimit="10" d="
					M299.397,357.98c-46.447,0-113.387,0-145.25,0s-50-63.867-50-63.867h245.25C349.397,294.113,345.843,357.98,299.397,357.98z"/>
			</g>
		</g>
		<g>
			<g>
				<g>
					
						<path fill="none" stroke="#000000" stroke-width="8" stroke-linecap="round" stroke-linejoin="round" stroke-miterlimit="10" d="
						M222.21,95.906v164.484h-89.382C132.829,260.391,213.224,146.734,222.21,95.906z"/>
					
						<path fill="none" stroke="#000000" stroke-width="8" stroke-linecap="round" stroke-linejoin="round" stroke-miterlimit="10" d="
						M352.145,260.391c0,0-114.756-113.354-129.935-164.832v164.832H352.145z"/>
					
						<line fill="none" stroke="#000000" stroke-width="8" stroke-linecap="round" stroke-linejoin="round" stroke-miterlimit="10" x1="222.21" y1="247.559" x2="222.21" y2="291.865"/>
				</g>
			</g>
		</g>
	</g>
</g>
<g id="pivot">
	<circle fill="none" cx="221.026" cy="358.583" r="14.133"/>
</g>
</svg>
