<?xml version="1.0" encoding="utf-8"?>
<!-- Generator: Adobe Illustrator 16.0.0, SVG Export Plug-In . SVG Version: 6.00 Build 0)  -->
<!DOCTYPE svg PUBLIC "-//W3C//DTD SVG 1.1//EN" "http://www.w3.org/Graphics/SVG/1.1/DTD/svg11.dtd">
<svg version="1.1" xmlns="http://www.w3.org/2000/svg" xmlns:xlink="http://www.w3.org/1999/xlink" x="0px" y="0px"
	 width="453.543px" height="453.543px" viewBox="0 0 453.543 453.543" enable-background="new 0 0 453.543 453.543"
	 xml:space="preserve">
<g id="kvadrat" display="none">
</g>
<g id="color">
	<g>
		<path fill="none" stroke="#000000" stroke-width="15" stroke-linecap="round" stroke-linejoin="round" stroke-miterlimit="10" d="
			M153.365,122.736c0,0,4.364,0,14.949,0c10.584,0,10.706,5.818,10.706,22.111s0,47.717,0,47.717"/>
		
			<polygon fill="#575756" stroke="#000000" stroke-width="8" stroke-linecap="round" stroke-linejoin="round" stroke-miterlimit="10" points="
			231.437,214.119 146.015,214.119 152.765,161.393 217.937,161.393 		"/>
		
			<path fill="#575756" stroke="#000000" stroke-width="8" stroke-linecap="round" stroke-linejoin="round" stroke-miterlimit="10" d="
			M379.155,266.99c0-44.021-311.346-123.152-311.346-1.912C67.809,386.32,379.155,311.012,379.155,266.99z"/>
		
			<circle fill="#FFFFFF" stroke="#000000" stroke-width="8" stroke-linecap="round" stroke-linejoin="round" stroke-miterlimit="10" cx="138.36" cy="255.895" r="19.441"/>
		
			<circle fill="#FFFFFF" stroke="#000000" stroke-width="8" stroke-linecap="round" stroke-linejoin="round" stroke-miterlimit="10" cx="194.154" cy="255.895" r="19.44"/>
		
			<circle fill="#FFFFFF" stroke="#000000" stroke-width="8" stroke-linecap="round" stroke-linejoin="round" stroke-miterlimit="10" cx="249.948" cy="255.895" r="19.44"/>
		<path stroke="#000000" stroke-width="8" stroke-linecap="round" stroke-linejoin="round" stroke-miterlimit="10" d="
			M379.011,266.846c2.909,0,13.434-35.053,0.208-35.053C365.995,231.793,376.103,266.846,379.011,266.846z"/>
		<path stroke="#000000" stroke-width="8" stroke-linecap="round" stroke-linejoin="round" stroke-miterlimit="10" d="
			M379.011,266.846c2.909,0,13.434,35.051,0.208,35.051C365.995,301.896,376.103,266.846,379.011,266.846z"/>
	</g>
	<g id="rdeča7bela">
	</g>
</g>
<g id="cb" display="none">
	<g display="inline">
		<path fill="none" stroke="#000000" stroke-width="8" stroke-linecap="round" stroke-linejoin="round" stroke-miterlimit="10" d="
			M179.02,161.393c0-6.025,0-11.9,0-16.545c0-16.293-0.122-22.111-10.706-22.111c-10.585,0-14.949,0-14.949,0"/>
		
			<polyline fill="none" stroke="#000000" stroke-width="8" stroke-linecap="round" stroke-linejoin="round" stroke-miterlimit="10" points="
			179.02,161.393 217.937,161.393 229.058,204.825 		"/>
		
			<polyline fill="none" stroke="#000000" stroke-width="8" stroke-linecap="round" stroke-linejoin="round" stroke-miterlimit="10" points="
			179.02,161.393 152.765,161.393 147.565,202.011 		"/>
		<path fill="none" stroke="#000000" stroke-width="8" stroke-linecap="round" stroke-linejoin="round" stroke-miterlimit="10" d="
			M379.15,266.893c0,0.033,0.005,0.065,0.005,0.098c0,3.15-1.601,6.461-4.561,9.848"/>
		<path fill="none" stroke="#000000" stroke-width="8" stroke-linecap="round" stroke-linejoin="round" stroke-miterlimit="10" d="
			M379.145,266.8c-0.062-3.062-1.62-6.291-4.464-9.609"/>
		<path fill="none" stroke="#000000" stroke-width="8" stroke-linecap="round" stroke-linejoin="round" stroke-miterlimit="10" d="
			M147.565,202.011c-45.641,4.765-79.756,22.937-79.756,63.067c0,112.566,268.375,55.705,306.785,11.76"/>
		<path fill="none" stroke="#000000" stroke-width="8" stroke-linecap="round" stroke-linejoin="round" stroke-miterlimit="10" d="
			M379.15,266.893c-0.001-0.03-0.005-0.062-0.005-0.093"/>
		<path fill="none" stroke="#000000" stroke-width="8" stroke-linecap="round" stroke-linejoin="round" stroke-miterlimit="10" d="
			M374.68,257.19c-17.099-19.948-80.709-43.103-145.623-52.365"/>
		<path fill="none" stroke="#000000" stroke-width="8" stroke-linecap="round" stroke-linejoin="round" stroke-miterlimit="10" d="
			M147.565,202.011c24.95-2.604,53.341-1.202,81.493,2.814"/>
		
			<circle fill="none" stroke="#000000" stroke-width="8" stroke-linecap="round" stroke-linejoin="round" stroke-miterlimit="10" cx="138.361" cy="255.894" r="19.44"/>
		
			<circle fill="none" stroke="#000000" stroke-width="8" stroke-linecap="round" stroke-linejoin="round" stroke-miterlimit="10" cx="194.154" cy="255.895" r="19.44"/>
		
			<circle fill="none" stroke="#000000" stroke-width="8" stroke-linecap="round" stroke-linejoin="round" stroke-miterlimit="10" cx="249.948" cy="255.895" r="19.44"/>
		<path fill="none" stroke="#000000" stroke-width="8" stroke-linecap="round" stroke-linejoin="round" stroke-miterlimit="10" d="
			M379.145,266.8c-0.044,0.015-0.092,0.046-0.133,0.046"/>
		<path fill="none" stroke="#000000" stroke-width="8" stroke-linecap="round" stroke-linejoin="round" stroke-miterlimit="10" d="
			M379.145,266.8c3.075-0.966,13.113-35.007,0.075-35.007c-8.658,0-7.314,15.021-4.539,25.397"/>
		<path fill="none" stroke="#000000" stroke-width="8" stroke-linecap="round" stroke-linejoin="round" stroke-miterlimit="10" d="
			M379.011,266.846c-1.004,0-2.867-4.182-4.331-9.655"/>
		<path fill="none" stroke="#000000" stroke-width="8" stroke-linecap="round" stroke-linejoin="round" stroke-miterlimit="10" d="
			M374.594,276.838c-2.715,10.36-3.94,25.059,4.625,25.059c13.031,0,3.011-34.003-0.069-35.004"/>
		<path fill="none" stroke="#000000" stroke-width="8" stroke-linecap="round" stroke-linejoin="round" stroke-miterlimit="10" d="
			M379.011,266.846c-1.024,0-2.941,4.356-4.417,9.992"/>
		<path fill="none" stroke="#000000" stroke-width="8" stroke-linecap="round" stroke-linejoin="round" stroke-miterlimit="10" d="
			M379.15,266.893c-0.046-0.015-0.096-0.047-0.139-0.047"/>
	</g>
	<g id="rdeča7bela_copy" display="inline">
	</g>
</g>
<g id="pivot">
	<circle fill="none" cx="217.854" cy="327.883" r="14.133"/>
</g>
</svg>
