<?xml version="1.0" encoding="utf-8"?>
<!-- Generator: Adobe Illustrator 16.0.0, SVG Export Plug-In . SVG Version: 6.00 Build 0)  -->
<!DOCTYPE svg PUBLIC "-//W3C//DTD SVG 1.1//EN" "http://www.w3.org/Graphics/SVG/1.1/DTD/svg11.dtd">
<svg version="1.1" xmlns="http://www.w3.org/2000/svg" xmlns:xlink="http://www.w3.org/1999/xlink" x="0px" y="0px"
	 width="453.88px" height="453.879px" viewBox="0 0 453.88 453.879" enable-background="new 0 0 453.88 453.879"
	 xml:space="preserve">
<g id="kvadrat" display="none">
	
		<rect x="0.479" y="-453.375" display="inline" fill="none" stroke="#BD1622" stroke-width="0.3359" stroke-miterlimit="10" width="453.544" height="453.543"/>
	
		<rect x="453.712" y="-453.375" display="inline" fill="none" stroke="#BD1622" stroke-width="0.3359" stroke-miterlimit="10" width="453.543" height="453.543"/>
	
		<rect x="-453.375" y="0.168" display="inline" fill="none" stroke="#BD1622" stroke-width="0.3359" stroke-miterlimit="10" width="453.543" height="453.543"/>
	
		<rect x="0.168" y="0.168" display="inline" fill="none" stroke="#BD1622" stroke-width="0.3359" stroke-miterlimit="10" width="453.544" height="453.543"/>
	
		<rect x="453.712" y="0.168" display="inline" fill="none" stroke="#BD1622" stroke-width="0.3359" stroke-miterlimit="10" width="453.543" height="453.543"/>
</g>
<g id="Layer_1" display="none">
</g>
<g id="Layer_2">
	<g id="rdeÄa7bela">
	</g>
	<g>
		
			<path fill="#C8C8C8" stroke="#000000" stroke-width="8" stroke-linecap="round" stroke-linejoin="round" stroke-miterlimit="10" d="
			M219.133,65.688c-1.727,0.136-3.103,1.58-3.103,3.343v106.061c0,1.855,1.515,3.37,3.367,3.37h1.921v73.852
			c0,5.26-3.433,11.551-9.967,14.065c-11.273,4.728-19.564,20.059-19.731,38.325c0,0.05-0.008,0.101-0.008,0.153v76.273
			c0,3.37,2.761,6.127,6.127,6.127h59.237c3.374,0,6.131-2.757,6.131-6.127v-76.273c0-0.052-0.009-0.103-0.009-0.153
			c-0.168-18.266-8.462-33.597-19.734-38.325c-6.535-2.514-9.967-8.805-9.967-14.065v-73.852h1.921c1.855,0,3.374-1.515,3.374-3.37
			V69.031c0-1.825-1.478-3.32-3.293-3.362L219.133,65.688z"/>
		<g>
			<path d="M227.361,285.589c-2.145,0-3.884-1.735-3.884-3.88c0-2.149,1.739-3.891,3.884-3.891c2.148,0,3.884,1.742,3.884,3.891
				C231.245,283.854,229.509,285.589,227.361,285.589z"/>
			<g>
				<path d="M211.354,370.933c-2.148,0-3.89-1.74-3.89-3.886c0-2.145,1.742-3.883,3.89-3.883c2.142,0,3.884,1.738,3.884,3.883
					C215.238,369.193,213.496,370.933,211.354,370.933z"/>
				<path d="M227.361,370.933c-2.145,0-3.884-1.74-3.884-3.886c0-2.145,1.739-3.883,3.884-3.883c2.148,0,3.884,1.738,3.884,3.883
					C231.245,369.193,229.509,370.933,227.361,370.933z"/>
				<circle cx="243.369" cy="367.049" r="3.885"/>
			</g>
			<g>
				<path d="M211.354,353.966c-2.148,0-3.89-1.737-3.89-3.883c0-2.144,1.742-3.887,3.89-3.887c2.142,0,3.884,1.743,3.884,3.887
					C215.238,352.229,213.496,353.966,211.354,353.966z"/>
				<path d="M227.361,353.966c-2.145,0-3.884-1.737-3.884-3.883c0-2.144,1.739-3.887,3.884-3.887c2.148,0,3.884,1.743,3.884,3.887
					C231.245,352.229,229.509,353.966,227.361,353.966z"/>
				<circle cx="243.369" cy="350.081" r="3.885"/>
			</g>
			<g>
				<path d="M211.354,336.997c-2.148,0-3.89-1.733-3.89-3.883c0-2.141,1.742-3.886,3.89-3.886c2.142,0,3.884,1.745,3.884,3.886
					C215.238,335.263,213.496,336.997,211.354,336.997z"/>
				<path d="M227.361,336.997c-2.145,0-3.884-1.733-3.884-3.883c0-2.141,1.739-3.886,3.884-3.886c2.148,0,3.884,1.745,3.884,3.886
					C231.245,335.263,229.509,336.997,227.361,336.997z"/>
				<path d="M243.369,336.997c-2.145,0-3.886-1.733-3.886-3.883c0-2.141,1.741-3.886,3.886-3.886c2.146,0,3.888,1.745,3.888,3.886
					C247.256,335.263,245.515,336.997,243.369,336.997z"/>
			</g>
			<g>
				<path d="M211.354,320.029c-2.148,0-3.89-1.74-3.89-3.884c0-2.148,1.742-3.886,3.89-3.886c2.142,0,3.884,1.738,3.884,3.886
					C215.238,318.29,213.496,320.029,211.354,320.029z"/>
				<path d="M227.361,320.029c-2.145,0-3.884-1.74-3.884-3.884c0-2.148,1.739-3.886,3.884-3.886c2.148,0,3.884,1.738,3.884,3.886
					C231.245,318.29,229.509,320.029,227.361,320.029z"/>
				<circle cx="243.369" cy="316.144" r="3.885"/>
			</g>
			<g>
				<path d="M211.354,303.061c-2.148,0-3.89-1.742-3.89-3.891c0-2.14,1.742-3.879,3.89-3.879c2.142,0,3.884,1.739,3.884,3.879
					C215.238,301.319,213.496,303.061,211.354,303.061z"/>
				<path d="M227.361,303.061c-2.145,0-3.884-1.742-3.884-3.891c0-2.14,1.739-3.879,3.884-3.879c2.148,0,3.884,1.739,3.884,3.879
					C231.245,301.319,229.509,303.061,227.361,303.061z"/>
				<path d="M243.369,303.061c-2.145,0-3.886-1.742-3.886-3.891c0-2.14,1.741-3.879,3.886-3.879c2.146,0,3.888,1.739,3.888,3.879
					C247.256,301.319,245.515,303.061,243.369,303.061z"/>
			</g>
		</g>
	</g>
</g>
<g id="pivot" display="none">
	<circle display="inline" fill="#EC008C" cx="227.36" cy="379.4" r="7.857"/>
</g>
</svg>
