<?xml version="1.0" encoding="utf-8"?>
<!-- Generator: Adobe Illustrator 16.0.0, SVG Export Plug-In . SVG Version: 6.00 Build 0)  -->
<!DOCTYPE svg PUBLIC "-//W3C//DTD SVG 1.1//EN" "http://www.w3.org/Graphics/SVG/1.1/DTD/svg11.dtd">
<svg version="1.1" xmlns="http://www.w3.org/2000/svg" xmlns:xlink="http://www.w3.org/1999/xlink" x="0px" y="0px"
	 width="453.879px" height="453.879px" viewBox="0 0 453.879 453.879" enable-background="new 0 0 453.879 453.879"
	 xml:space="preserve">
<g id="kvadrat" display="none">
	
		<rect x="-453.375" y="-453.375" display="inline" fill="none" stroke="#BD1622" stroke-width="0.3359" stroke-miterlimit="10" width="453.543" height="453.543"/>
	
		<rect x="0.168" y="-453.375" display="inline" fill="none" stroke="#BD1622" stroke-width="0.3359" stroke-miterlimit="10" width="453.543" height="453.543"/>
	
		<rect x="453.711" y="-453.375" display="inline" fill="none" stroke="#BD1622" stroke-width="0.3359" stroke-miterlimit="10" width="453.543" height="453.543"/>
	
		<rect x="-453.375" y="0.168" display="inline" fill="none" stroke="#BD1622" stroke-width="0.3359" stroke-miterlimit="10" width="453.543" height="453.543"/>
	
		<rect x="0.168" y="0.168" display="inline" fill="none" stroke="#BD1622" stroke-width="0.3359" stroke-miterlimit="10" width="453.543" height="453.543"/>
	
		<rect x="453.711" y="0.168" display="inline" fill="none" stroke="#BD1622" stroke-width="0.3359" stroke-miterlimit="10" width="453.543" height="453.543"/>
	
		<rect x="-453.375" y="453.711" display="inline" fill="none" stroke="#BD1622" stroke-width="0.3359" stroke-miterlimit="10" width="453.543" height="453.543"/>
	
		<rect x="0.168" y="453.711" display="inline" fill="none" stroke="#BD1622" stroke-width="0.3359" stroke-miterlimit="10" width="453.543" height="453.543"/>
	
		<rect x="453.711" y="453.711" display="inline" fill="none" stroke="#BD1622" stroke-width="0.3359" stroke-miterlimit="10" width="453.543" height="453.543"/>
</g>
<g id="Layer_1" display="none">
</g>
<g id="Layer_2">
	<g id="rdeÄa7bela">
	</g>
	<g>
		<path fill="#8BC53F" stroke="#000000" stroke-width="8" stroke-miterlimit="10" d="M287.012,297.633
			c41.95-21.004,70.754-64.384,70.754-114.493H101.815c0,50.109,28.804,93.489,70.755,114.493H287.012z"/>
		<path fill="#7FB439" stroke="#000000" stroke-width="8" stroke-miterlimit="10" d="M358.75,162.388
			c5.938,0,10.751,4.815,10.751,10.752c0,5.939-4.814,10.752-10.751,10.752H100.833c-5.939,0-10.752-4.813-10.752-10.752
			c0-5.937,4.813-10.752,10.752-10.752H358.75z"/>
	</g>
</g>
<g id="pivot" display="none">
	<circle display="inline" fill="#EC008C" cx="229.791" cy="289.776" r="7.857"/>
</g>
</svg>
