<?xml version="1.0" encoding="utf-8"?>
<!-- Generator: Adobe Illustrator 16.0.0, SVG Export Plug-In . SVG Version: 6.00 Build 0)  -->
<!DOCTYPE svg PUBLIC "-//W3C//DTD SVG 1.1//EN" "http://www.w3.org/Graphics/SVG/1.1/DTD/svg11.dtd">
<svg version="1.1" xmlns="http://www.w3.org/2000/svg" xmlns:xlink="http://www.w3.org/1999/xlink" x="0px" y="0px"
	 width="453.879px" height="453.879px" viewBox="0 0 453.879 453.879" enable-background="new 0 0 453.879 453.879"
	 xml:space="preserve">
<g id="kvadrat" display="none">
	
		<rect x="0.168" y="451.097" display="inline" fill="none" stroke="#BD1622" stroke-width="0.3359" stroke-miterlimit="10" width="453.543" height="453.542"/>
	
		<rect x="450.986" y="451.097" display="inline" fill="none" stroke="#BD1622" stroke-width="0.3359" stroke-miterlimit="10" width="453.543" height="453.542"/>
	
		<rect x="0.168" y="0.168" display="inline" fill="none" stroke="#BD1622" stroke-width="0.3359" stroke-miterlimit="10" width="453.543" height="453.543"/>
	
		<rect x="450.986" y="0.168" display="inline" fill="none" stroke="#BD1622" stroke-width="0.3359" stroke-miterlimit="10" width="453.543" height="453.543"/>
</g>
<g id="Layer_1" display="none">
</g>
<g id="Layer_2">
	<g>
		
			<path fill="#009D73" stroke="#000000" stroke-width="8" stroke-linecap="round" stroke-linejoin="round" stroke-miterlimit="10" d="
			M141.703,178.78c-7.189-4.402-15.643-6.939-24.688-6.939c-26.157,0-47.364,21.207-47.364,47.364
			c0,26.159,21.203,47.362,47.364,47.362c1.83,0,3.627-0.114,5.399-0.313 M122.414,266.253
			c7.036,23.002,22.922,42.142,43.702,53.427h82.824c16.115-8.75,59.138-28.13,72.671-80.188
			c3.973-10.861,16.448-42.643,18.567-49.526c2.12-6.889,10.003-5.945,14.507-4.356c4.504,1.586,4.239-2.386,4.239-2.386
			l-20.071-17.094c-26.775,3.331-40.99,40.284-43.639,42.138c-0.894,0.626-1.696,0.826-2.369,0.818
			c-12.356-30.175-39.427-56.236-73.045-60.01c4.174-3.131,6.883-8.104,6.883-13.719c0-9.476-7.681-17.16-17.157-17.16
			s-17.158,7.683-17.158,17.16c0,5.619,2.714,10.588,6.882,13.719c-22.782,2.56-43.017,13.509-57.547,29.704 M132.078,191.628
			c-8.642,13.929-13.646,30.353-13.646,47.952c0,3.715,0.235,7.379,0.665,10.98 M119.097,250.56
			c-0.687,0.045-1.382,0.075-2.082,0.075c-17.33,0-31.432-14.098-31.432-31.428c0-17.33,14.103-31.433,31.432-31.433
			c5.457,0,10.587,1.401,15.063,3.854"/>
		<path fill="none" stroke="#000000" stroke-width="8" stroke-linecap="round" stroke-linejoin="round" stroke-miterlimit="10" d="
			M259.431,170.394c0,0-51.801,21.983-98.143-3.154"/>
	</g>
	<g id="rdeÄa7bela">
	</g>
</g>
<g id="pivot" display="none">
	<circle display="inline" fill="#EC008C" cx="214.289" cy="311.824" r="7.857"/>
</g>
</svg>
