<?xml version="1.0" encoding="utf-8"?>
<!-- Generator: Adobe Illustrator 16.0.0, SVG Export Plug-In . SVG Version: 6.00 Build 0)  -->
<!DOCTYPE svg PUBLIC "-//W3C//DTD SVG 1.1//EN" "http://www.w3.org/Graphics/SVG/1.1/DTD/svg11.dtd">
<svg version="1.1" xmlns="http://www.w3.org/2000/svg" xmlns:xlink="http://www.w3.org/1999/xlink" x="0px" y="0px"
	 width="453.879px" height="453.879px" viewBox="0 0 453.879 453.879" enable-background="new 0 0 453.879 453.879"
	 xml:space="preserve">
<g id="kvadrat" display="none">
	
		<rect x="-453.529" y="-450.597" display="inline" fill="none" stroke="#BD1622" stroke-width="0.3359" stroke-miterlimit="10" width="453.544" height="453.544"/>
	
		<rect x="0.168" y="-450.597" display="inline" fill="none" stroke="#BD1622" stroke-width="0.3359" stroke-miterlimit="10" width="453.543" height="453.544"/>
	
		<rect x="450.917" y="-450.597" display="inline" fill="none" stroke="#BD1622" stroke-width="0.3359" stroke-miterlimit="10" width="453.543" height="453.544"/>
	
		<rect x="0.168" y="0.168" display="inline" fill="none" stroke="#BD1622" stroke-width="0.3359" stroke-miterlimit="10" width="453.543" height="453.543"/>
	
		<rect x="450.917" y="0.168" display="inline" fill="none" stroke="#BD1622" stroke-width="0.3359" stroke-miterlimit="10" width="453.543" height="453.543"/>
</g>
<g id="Layer_1" display="none">
</g>
<g id="Layer_2">
	<g id="rdeÄa7bela">
	</g>
	<g>
		<g>
			<path fill="#C8C8C8" d="M268.233,331.556h-45.846V169.528c6.655-5.131,11.043-20.65,11.043-67.17
				c0-13.564-10.991-24.562-24.56-24.562c-13.564,0-24.56,10.998-24.56,24.562c0,46.52,4.391,62.04,11.04,67.17v162.027
				c0,33.756,27.366,61.124,61.127,61.124c33.752,0,61.121-27.368,61.121-61.124H268.233z"/>
		</g>
		<g>
			<path fill="none" stroke="#000000" stroke-width="8" stroke-linecap="round" stroke-linejoin="round" stroke-miterlimit="10" d="
				M268.233,331.556h-45.846V169.528c6.655-5.131,11.043-20.65,11.043-67.17c0-13.564-10.991-24.562-24.56-24.562
				c-13.564,0-24.56,10.998-24.56,24.562c0,46.52,4.391,62.04,11.04,67.17v162.027c0,33.756,27.366,61.124,61.127,61.124
				c33.752,0,61.121-27.368,61.121-61.124H268.233z"/>
		</g>
	</g>
	<rect x="-453.529" y="0.168" fill="none" width="453.544" height="453.543"/>
</g>
<g id="pivot" display="none">
	<circle display="inline" fill="#EC008C" cx="239.955" cy="384.823" r="7.857"/>
</g>
</svg>
