<?xml version="1.0" encoding="utf-8"?>
<!-- Generator: Adobe Illustrator 16.0.0, SVG Export Plug-In . SVG Version: 6.00 Build 0)  -->
<!DOCTYPE svg PUBLIC "-//W3C//DTD SVG 1.1//EN" "http://www.w3.org/Graphics/SVG/1.1/DTD/svg11.dtd">
<svg version="1.1" xmlns="http://www.w3.org/2000/svg" xmlns:xlink="http://www.w3.org/1999/xlink" x="0px" y="0px"
	 width="453.88px" height="453.879px" viewBox="0 0 453.88 453.879" enable-background="new 0 0 453.88 453.879"
	 xml:space="preserve">
<g id="kvadrat" display="none">
	
		<rect x="-453.375" y="-453.375" display="inline" fill="none" stroke="#BD1622" stroke-width="0.3359" stroke-miterlimit="10" width="453.543" height="453.543"/>
	
		<rect x="0.168" y="-453.375" display="inline" fill="none" stroke="#BD1622" stroke-width="0.3359" stroke-miterlimit="10" width="453.544" height="453.543"/>
	
		<rect x="453.712" y="-453.375" display="inline" fill="none" stroke="#BD1622" stroke-width="0.3359" stroke-miterlimit="10" width="453.543" height="453.543"/>
	
		<rect x="-453.375" y="0.168" display="inline" fill="none" stroke="#BD1622" stroke-width="0.3359" stroke-miterlimit="10" width="453.543" height="453.543"/>
	
		<rect x="0.168" y="0.168" display="inline" fill="none" stroke="#BD1622" stroke-width="0.3359" stroke-miterlimit="10" width="453.544" height="453.543"/>
	
		<rect x="453.712" y="0.168" display="inline" fill="none" stroke="#BD1622" stroke-width="0.3359" stroke-miterlimit="10" width="453.543" height="453.543"/>
	
		<rect x="-453.375" y="453.711" display="inline" fill="none" stroke="#BD1622" stroke-width="0.3359" stroke-miterlimit="10" width="453.543" height="453.543"/>
	
		<rect x="0.168" y="453.711" display="inline" fill="none" stroke="#BD1622" stroke-width="0.3359" stroke-miterlimit="10" width="453.544" height="453.543"/>
	
		<rect x="453.712" y="453.711" display="inline" fill="none" stroke="#BD1622" stroke-width="0.3359" stroke-miterlimit="10" width="453.543" height="453.543"/>
</g>
<g id="Layer_1" display="none">
</g>
<g id="Layer_2">
	<g id="rdeÄa7bela">
	</g>
	<g>
		
			<path fill="#CB78A6" stroke="#000000" stroke-width="6.8951" stroke-linecap="round" stroke-linejoin="round" stroke-miterlimit="10" d="
			M225.875,122.061c-68.037,0-110.505,20.313-110.505,104.206c0,150.446,14.447,159.375,110.505,159.375
			c96.056,0,110.504-8.929,110.504-159.375C336.379,142.373,293.912,122.061,225.875,122.061z M309.981,248.299
			c-29.69-19.542-50.715-55.754-54.382-98.173c41.051,5.815,54.506,26.807,54.506,76.141
			C310.105,233.884,310.069,241.235,309.981,248.299z"/>
		
			<path fill="#81358A" stroke="#000000" stroke-width="6.8951" stroke-linecap="round" stroke-linejoin="round" stroke-miterlimit="10" d="
			M178.89,159.83c34.109,0,39.658,43.308,64.867,75.372c25.212,32.068,77.578,58.953,53.365,100.01
			c-18.2,30.864-93.83,36.451-124.81,11.042c-14.41-11.814-29.455-39.857-29.514-89.178
			C142.712,184.722,155.308,159.83,178.89,159.83z"/>
		
			<polygon fill="#81358A" stroke="#000000" stroke-width="6.8951" stroke-linecap="round" stroke-linejoin="round" stroke-miterlimit="10" points="
			248.015,96.535 248.015,70.532 241.447,70.532 212.639,70.532 206.069,70.532 206.069,96.535 183.586,96.535 183.586,125.963 
			268.16,125.963 268.16,96.535 		"/>
	</g>
</g>
<g id="pivot" display="none">
	<circle display="inline" fill="#EC008C" cx="225.874" cy="377.785" r="7.857"/>
</g>
</svg>
