<?xml version="1.0" encoding="utf-8"?>
<!-- Generator: Adobe Illustrator 16.0.0, SVG Export Plug-In . SVG Version: 6.00 Build 0)  -->
<!DOCTYPE svg PUBLIC "-//W3C//DTD SVG 1.1//EN" "http://www.w3.org/Graphics/SVG/1.1/DTD/svg11.dtd">
<svg version="1.1" xmlns="http://www.w3.org/2000/svg" xmlns:xlink="http://www.w3.org/1999/xlink" x="0px" y="0px"
	 width="453.543px" height="453.543px" viewBox="0 0 453.543 453.543" enable-background="new 0 0 453.543 453.543"
	 xml:space="preserve">
<g id="kvadrat">
</g>
<g id="color">
	<g id="rdeča7bela">
	</g>
	<g>
		<g>
			<g>
				<path fill="#7E4E24" d="M207.438,383.784c-15.87,0-28.781-12.91-28.781-28.778c0-5.216,4.242-9.459,9.455-9.459
					c5.215,0,9.457,4.243,9.457,9.459c0,5.441,4.427,9.868,9.869,9.868c5.443,0,9.871-4.427,9.871-9.868V195.142
					c0-1.062,0.422-2.08,1.173-2.83c0.75-0.749,1.767-1.17,2.827-1.17c0.001,0,10.917,0.014,10.917,0.014
					c2.208,0.003,3.995,1.793,3.995,4v159.851C236.221,370.874,223.309,383.784,207.438,383.784z"/>
				<path d="M221.309,195.142l10.912,0.014v159.851c0,13.663-11.115,24.778-24.783,24.778c-13.664,0-24.781-11.115-24.781-24.778
					c0-3.017,2.439-5.459,5.455-5.459s5.457,2.442,5.457,5.459c0,7.646,6.223,13.868,13.869,13.868s13.871-6.223,13.871-13.868
					V195.142 M221.309,187.142c-2.12,0-4.153,0.841-5.653,2.34c-1.502,1.501-2.347,3.536-2.347,5.66v159.864
					c0,3.236-2.634,5.868-5.871,5.868c-3.236,0-5.869-2.632-5.869-5.868c0-7.422-6.037-13.459-13.457-13.459
					c-7.419,0-13.455,6.037-13.455,13.459c0,18.074,14.706,32.778,32.781,32.778c18.077,0,32.783-14.704,32.783-32.778V195.155
					c0-4.415-3.576-7.995-7.99-8l-10.912-0.014C221.315,187.142,221.312,187.142,221.309,187.142L221.309,187.142z"/>
			</g>
			
				<path fill="#0073B3" stroke="#000000" stroke-width="8" stroke-linecap="round" stroke-linejoin="round" stroke-miterlimit="10" d="
				M57.689,204.026c10.953-8.508,24.334-13.137,38.268-13.137c16.096,0,31.58,6.366,43.207,17.498
				c1.745-57.192,38.188-112.79,88.311-134.51h-1.643C147.252,76.009,79.305,128.614,57.689,204.026z"/>
			
				<path fill="#0073B3" stroke="#000000" stroke-width="8" stroke-linecap="round" stroke-linejoin="round" stroke-miterlimit="10" d="
				M221.314,73.878h0.518c0.557-0.016,1.109-0.036,1.666-0.047C222.768,73.851,222.037,73.858,221.314,73.878z"/>
			
				<path fill="#0073B3" stroke="#000000" stroke-width="8" stroke-linecap="round" stroke-linejoin="round" stroke-miterlimit="10" d="
				M227.721,73.878h-1.467c49.279,20.035,86.383,76.729,88.139,134.506c11.621-11.128,27.103-17.5,43.199-17.5
				c13.926,0,27.307,4.627,38.26,13.137C374.236,128.62,306.299,76.011,227.721,73.878z"/>
			
				<path fill="#0073B3" stroke="#000000" stroke-width="8" stroke-linecap="round" stroke-linejoin="round" stroke-miterlimit="10" d="
				M226.771,73.757c-1.068,0-2.123,0.044-3.186,0.069c-0.037,0.017-0.074,0.035-0.111,0.052h6.779
				c-0.037-0.015-0.072-0.032-0.109-0.047C229.016,73.801,227.9,73.757,226.771,73.757z"/>
			
				<path fill="#0073B3" stroke="#000000" stroke-width="8" stroke-linecap="round" stroke-linejoin="round" stroke-miterlimit="10" d="
				M230.252,73.837c0.49,0.008,0.98,0.027,1.469,0.041h0.506C231.572,73.854,230.908,73.851,230.252,73.837z"/>
			<g>
				
					<path fill="#0073B3" stroke="#000000" stroke-width="8" stroke-linecap="round" stroke-linejoin="round" stroke-miterlimit="10" d="
					M228.596,77.13l-1.822,0.034h-0.002v133.222c0.346,0.284,0.537,0.447,0.537,0.447s26.184-19.943,44.402-19.943
					c18.221,0,31.432,6.309,43.041,17.332C312.926,151.792,276.674,96.507,228.596,77.13z"/>
			</g>
			
				<path fill="#0073B3" stroke="#000000" stroke-width="8" stroke-linecap="round" stroke-linejoin="round" stroke-miterlimit="10" d="
				M224.951,77.199c-48.82,21.13-84.348,75.269-86.154,131.026c11.609-11.035,20.885-17.336,43.033-17.336
				c20.194,0,41.358,16.568,44.942,19.496V77.164L224.951,77.199z"/>
		</g>
	</g>
</g>
<g id="cb" display="none">
	<g id="rdeča7bela_copy" display="inline">
	</g>
</g>
<g id="pivot">
	<circle fill="none" cx="229.602" cy="372.151" r="14.133"/>
</g>
</svg>
