<?xml version="1.0" encoding="utf-8"?>
<!-- Generator: Adobe Illustrator 16.0.0, SVG Export Plug-In . SVG Version: 6.00 Build 0)  -->
<!DOCTYPE svg PUBLIC "-//W3C//DTD SVG 1.1//EN" "http://www.w3.org/Graphics/SVG/1.1/DTD/svg11.dtd">
<svg version="1.1" xmlns="http://www.w3.org/2000/svg" xmlns:xlink="http://www.w3.org/1999/xlink" x="0px" y="0px"
	 width="453.543px" height="453.543px" viewBox="0 0 453.543 453.543" enable-background="new 0 0 453.543 453.543"
	 xml:space="preserve">
<g id="kvadrat">
</g>
<g id="color">
	<g id="rdeča7bela">
	</g>
	<g>
		<g>
			<g>
				<path fill="#7E4E24" d="M207.438,383.784c-15.87,0-28.781-12.91-28.781-28.778c0-5.216,4.241-9.459,9.455-9.459
					c5.215,0,9.457,4.243,9.457,9.459c0,5.441,4.427,9.868,9.869,9.868c5.443,0,9.871-4.427,9.871-9.868V195.142
					c0-1.062,0.422-2.08,1.174-2.83c0.75-0.749,1.767-1.17,2.826-1.17c0.002,0,10.917,0.014,10.917,0.014
					c2.207,0.003,3.995,1.793,3.995,4v159.851C236.221,370.874,223.309,383.784,207.438,383.784z"/>
				<path d="M221.309,195.142l10.912,0.014v159.851c0,13.663-11.115,24.778-24.783,24.778c-13.664,0-24.781-11.115-24.781-24.778
					c0-3.017,2.439-5.459,5.455-5.459s5.457,2.442,5.457,5.459c0,7.646,6.223,13.868,13.869,13.868
					c7.647,0,13.871-6.223,13.871-13.868V195.142 M221.309,187.142c-2.12,0-4.153,0.841-5.653,2.34
					c-1.502,1.501-2.347,3.536-2.347,5.66v159.864c0,3.236-2.634,5.868-5.871,5.868c-3.236,0-5.869-2.632-5.869-5.868
					c0-7.422-6.037-13.459-13.457-13.459c-7.419,0-13.455,6.037-13.455,13.459c0,18.074,14.706,32.778,32.781,32.778
					c18.077,0,32.783-14.704,32.783-32.778V195.155c0-4.415-3.576-7.995-7.99-8l-10.912-0.014
					C221.316,187.142,221.312,187.142,221.309,187.142L221.309,187.142z"/>
			</g>
			
				<path fill="#39A935" stroke="#000000" stroke-width="8" stroke-linecap="round" stroke-linejoin="round" stroke-miterlimit="10" d="
				M57.69,204.026c10.953-8.508,24.334-13.137,38.268-13.137c16.096,0,31.58,6.366,43.207,17.498
				c1.744-57.192,38.187-112.79,88.311-134.51h-1.643C147.252,76.009,79.305,128.614,57.69,204.026z"/>
			
				<path fill="#FFCF00" stroke="#000000" stroke-width="8" stroke-linecap="round" stroke-linejoin="round" stroke-miterlimit="10" d="
				M221.315,73.878h0.518c0.557-0.016,1.109-0.036,1.666-0.047C222.768,73.851,222.038,73.858,221.315,73.878z"/>
			
				<path fill="#FFCF00" stroke="#000000" stroke-width="8" stroke-linecap="round" stroke-linejoin="round" stroke-miterlimit="10" d="
				M227.721,73.878h-1.467c49.279,20.035,86.383,76.729,88.138,134.506c11.621-11.128,27.104-17.5,43.199-17.5
				c13.926,0,27.307,4.627,38.26,13.137C374.237,128.62,306.299,76.011,227.721,73.878z"/>
			
				<path fill="#FFCF00" stroke="#000000" stroke-width="8" stroke-linecap="round" stroke-linejoin="round" stroke-miterlimit="10" d="
				M226.772,73.757c-1.068,0-2.123,0.044-3.186,0.069c-0.038,0.017-0.074,0.035-0.111,0.052h6.779
				c-0.037-0.015-0.072-0.032-0.11-0.047C229.016,73.801,227.901,73.757,226.772,73.757z"/>
			
				<path fill="#FFCF00" stroke="#000000" stroke-width="8" stroke-linecap="round" stroke-linejoin="round" stroke-miterlimit="10" d="
				M230.252,73.837c0.49,0.008,0.98,0.027,1.469,0.041h0.506C231.573,73.854,230.909,73.851,230.252,73.837z"/>
			<g>
				
					<path fill="#0073B3" stroke="#000000" stroke-width="8" stroke-linecap="round" stroke-linejoin="round" stroke-miterlimit="10" d="
					M228.596,77.13l-1.822,0.034h-0.002v133.222c0.346,0.284,0.537,0.447,0.537,0.447s26.184-19.943,44.403-19.943
					c18.221,0,31.431,6.309,43.041,17.332C312.926,151.792,276.674,96.507,228.596,77.13z"/>
			</g>
			
				<path fill="#E20613" stroke="#000000" stroke-width="8" stroke-linecap="round" stroke-linejoin="round" stroke-miterlimit="10" d="
				M224.952,77.199c-48.821,21.13-84.348,75.269-86.155,131.026c11.61-11.035,20.885-17.336,43.034-17.336
				c20.193,0,41.357,16.568,44.941,19.496V77.164L224.952,77.199z"/>
		</g>
		
			<rect x="216.694" y="44.464" stroke="#000000" stroke-width="8" stroke-linecap="round" stroke-linejoin="round" stroke-miterlimit="10" width="18.955" height="29.293"/>
	</g>
</g>
<g id="cb" display="none">
	<g id="rdeča7bela_copy" display="inline">
	</g>
	<g display="inline">
		<path fill="none" stroke="#000000" stroke-width="8" stroke-linecap="round" stroke-linejoin="round" stroke-miterlimit="10" d="
			M226.882,74.149c0.199-0.087,0.394-0.185,0.593-0.271"/>
		<path fill="none" stroke="#000000" stroke-width="8" stroke-linecap="round" stroke-linejoin="round" stroke-miterlimit="10" d="
			M154.281,147.236c-8.995,18.918-14.371,39.651-15.09,60.617"/>
		<path fill="none" stroke="#000000" stroke-width="8" stroke-linecap="round" stroke-linejoin="round" stroke-miterlimit="10" d="
			M226.882,74.149c-31.321,13.771-57.238,40.772-72.601,73.087"/>
		<path fill="none" stroke="#000000" stroke-width="8" stroke-linecap="round" stroke-linejoin="round" stroke-miterlimit="10" d="
			M138.805,208.06c0.028,0.026,0.057,0.052,0.085,0.077"/>
		<path fill="none" stroke="#000000" stroke-width="8" stroke-linecap="round" stroke-linejoin="round" stroke-miterlimit="10" d="
			M225.833,73.878c-78.58,2.131-146.527,54.736-168.143,130.148c10.953-8.508,24.334-13.137,38.268-13.137
			c15.933,0,31.261,6.246,42.848,17.17"/>
		<path fill="none" stroke="#000000" stroke-width="8" stroke-linecap="round" stroke-linejoin="round" stroke-miterlimit="10" d="
			M139.191,207.854c-0.006,0.179-0.021,0.355-0.026,0.534c-0.09-0.086-0.184-0.165-0.274-0.251"/>
		<path fill="none" stroke="#000000" stroke-width="8" stroke-linecap="round" stroke-linejoin="round" stroke-miterlimit="10" d="
			M221.315,73.878h0.518c0.557-0.016,1.109-0.036,1.666-0.047C222.768,73.851,222.038,73.858,221.315,73.878z"/>
		<path fill="none" stroke="#000000" stroke-width="8" stroke-linecap="round" stroke-linejoin="round" stroke-miterlimit="10" d="
			M299.094,146.513c9.078,19.122,14.552,40.156,15.274,61.356"/>
		<path fill="none" stroke="#000000" stroke-width="8" stroke-linecap="round" stroke-linejoin="round" stroke-miterlimit="10" d="
			M227.721,73.878c78.578,2.133,146.516,54.742,168.131,130.143c-10.953-8.51-24.334-13.137-38.26-13.137
			c-15.937,0-31.266,6.255-42.848,17.179"/>
		<path fill="none" stroke="#000000" stroke-width="8" stroke-linecap="round" stroke-linejoin="round" stroke-miterlimit="10" d="
			M314.662,208.139c-0.088,0.083-0.181,0.161-0.269,0.245c-0.005-0.172-0.02-0.343-0.025-0.515"/>
		<path fill="none" stroke="#000000" stroke-width="8" stroke-linecap="round" stroke-linejoin="round" stroke-miterlimit="10" d="
			M314.744,208.063c-0.027,0.025-0.055,0.051-0.083,0.076"/>
		<path fill="none" stroke="#000000" stroke-width="8" stroke-linecap="round" stroke-linejoin="round" stroke-miterlimit="10" d="
			M226.882,74.149c-0.21-0.087-0.417-0.186-0.627-0.271"/>
		<path fill="none" stroke="#000000" stroke-width="8" stroke-linecap="round" stroke-linejoin="round" stroke-miterlimit="10" d="
			M299.094,146.513c-15.48-32.607-41.439-59.63-72.212-72.363"/>
		<path fill="none" stroke="#000000" stroke-width="8" stroke-linecap="round" stroke-linejoin="round" stroke-miterlimit="10" d="
			M226.772,73.757c1.129,0,2.244,0.044,3.373,0.074c0.037,0.015,0.073,0.032,0.11,0.047h-2.533"/>
		<path fill="none" stroke="#000000" stroke-width="8" stroke-linecap="round" stroke-linejoin="round" stroke-miterlimit="10" d="
			M226.772,73.757c-1.068,0-2.123,0.044-3.186,0.069c-0.038,0.017-0.074,0.035-0.111,0.052h2.357"/>
		
			<line fill="none" stroke="#000000" stroke-width="8" stroke-linecap="round" stroke-linejoin="round" stroke-miterlimit="10" x1="225.833" y1="73.878" x2="226.254" y2="73.878"/>
		
			<line fill="none" stroke="#000000" stroke-width="8" stroke-linecap="round" stroke-linejoin="round" stroke-miterlimit="10" x1="227.721" y1="73.878" x2="227.475" y2="73.878"/>
		
			<line fill="none" stroke="#000000" stroke-width="8" stroke-linecap="round" stroke-linejoin="round" stroke-miterlimit="10" x1="227.475" y1="73.878" x2="226.254" y2="73.878"/>
		<path fill="none" stroke="#000000" stroke-width="8" stroke-linecap="round" stroke-linejoin="round" stroke-miterlimit="10" d="
			M231.721,73.878h0.506c-0.654-0.023-1.318-0.027-1.974-0.041C230.743,73.845,231.233,73.864,231.721,73.878z"/>
		<path fill="none" stroke="#000000" stroke-width="8" stroke-linecap="round" stroke-linejoin="round" stroke-miterlimit="10" d="
			M314.662,208.139c-0.097-0.092-0.197-0.178-0.294-0.27"/>
		<path fill="none" stroke="#000000" stroke-width="8" stroke-linecap="round" stroke-linejoin="round" stroke-miterlimit="10" d="
			M226.772,210.386c0.346,0.284,0.537,0.447,0.537,0.447s1.859-1.413,4.912-3.479"/>
		<path fill="none" stroke="#000000" stroke-width="8" stroke-linecap="round" stroke-linejoin="round" stroke-miterlimit="10" d="
			M314.662,208.139c0.03,0.028,0.061,0.055,0.091,0.083c-0.002-0.053-0.006-0.106-0.008-0.159"/>
		<path fill="none" stroke="#000000" stroke-width="8" stroke-linecap="round" stroke-linejoin="round" stroke-miterlimit="10" d="
			M299.094,146.513c9.311,19.103,14.937,40.239,15.65,61.55"/>
		<path fill="none" stroke="#000000" stroke-width="8" stroke-linecap="round" stroke-linejoin="round" stroke-miterlimit="10" d="
			M314.367,207.869c-11.518-10.801-24.635-16.979-42.656-16.979c-13.381,0-31.046,10.751-39.49,16.464"/>
		<path fill="none" stroke="#000000" stroke-width="8" stroke-linecap="round" stroke-linejoin="round" stroke-miterlimit="10" d="
			M226.772,77.164h0.002l1.822-0.034c29.876,12.041,55.178,37.952,70.498,69.383"/>
		<path fill="none" stroke="#000000" stroke-width="8" stroke-linecap="round" stroke-linejoin="round" stroke-miterlimit="10" d="
			M226.772,77.164l-1.82,0.035c-30.316,13.121-55.498,38.975-70.671,70.037"/>
		<path fill="none" stroke="#000000" stroke-width="8" stroke-linecap="round" stroke-linejoin="round" stroke-miterlimit="10" d="
			M221.309,206.269c-8.35-5.884-24.189-15.379-39.478-15.379c-21.897,0-31.212,6.161-42.64,16.964"/>
		<path fill="none" stroke="#000000" stroke-width="8" stroke-linecap="round" stroke-linejoin="round" stroke-miterlimit="10" d="
			M138.805,208.06c-0.002,0.056-0.007,0.11-0.009,0.166c0.031-0.03,0.062-0.059,0.094-0.089"/>
		<path fill="none" stroke="#000000" stroke-width="8" stroke-linecap="round" stroke-linejoin="round" stroke-miterlimit="10" d="
			M138.805,208.06c0.708-21.077,6.238-41.914,15.475-60.823"/>
		<path fill="none" stroke="#000000" stroke-width="8" stroke-linecap="round" stroke-linejoin="round" stroke-miterlimit="10" d="
			M139.191,207.854c-0.1,0.096-0.2,0.188-0.301,0.283"/>
		<path fill="none" stroke="#000000" stroke-width="8" stroke-linecap="round" stroke-linejoin="round" stroke-miterlimit="10" d="
			M221.309,206.269c2.678,1.888,4.593,3.406,5.463,4.117"/>
		
			<line fill="none" stroke="#000000" stroke-width="8" stroke-linecap="round" stroke-linejoin="round" stroke-miterlimit="10" x1="226.772" y1="210.386" x2="226.772" y2="195.148"/>
		
			<line fill="none" stroke="#000000" stroke-width="8" stroke-linecap="round" stroke-linejoin="round" stroke-miterlimit="10" x1="226.772" y1="77.164" x2="226.772" y2="195.148"/>
		
			<polyline fill="none" stroke="#000000" stroke-width="8" stroke-linecap="round" stroke-linejoin="round" stroke-miterlimit="10" points="
			226.772,73.757 235.649,73.757 235.649,44.464 216.694,44.464 216.694,73.757 226.772,73.757 		"/>
	</g>
	
		<path display="inline" fill="none" stroke="#000000" stroke-width="8" stroke-linecap="round" stroke-linejoin="round" stroke-miterlimit="10" d="
		M218.902,206.269v148.737c0,6.084-4.951,11.033-11.036,11.033c-6.084,0-11.034-4.949-11.034-11.033c0-4.573-3.72-8.294-8.292-8.294
		c-4.571,0-8.29,3.721-8.29,8.294c0,15.226,12.389,27.613,27.616,27.613c15.229,0,27.618-12.388,27.618-27.613V207.354
		L218.902,206.269z"/>
</g>
<g id="pivot">
	<circle fill="none" cx="232.098" cy="372.151" r="14.133"/>
</g>
</svg>
