<?xml version="1.0" encoding="utf-8"?>
<!-- Generator: Adobe Illustrator 16.0.0, SVG Export Plug-In . SVG Version: 6.00 Build 0)  -->
<!DOCTYPE svg PUBLIC "-//W3C//DTD SVG 1.1//EN" "http://www.w3.org/Graphics/SVG/1.1/DTD/svg11.dtd">
<svg version="1.1" xmlns="http://www.w3.org/2000/svg" xmlns:xlink="http://www.w3.org/1999/xlink" x="0px" y="0px"
	 width="453.544px" height="453.543px" viewBox="0 0 453.544 453.543" enable-background="new 0 0 453.544 453.543"
	 xml:space="preserve">
<g id="kvadrat" display="none">
</g>
<g id="color">
	<g>
		<g>
			<path fill="#7E4E24" d="M207.438,383.786c-15.87,0-28.781-12.91-28.781-28.779c0-5.217,4.24-9.46,9.455-9.46
				s9.457,4.243,9.457,9.46c0,5.441,4.428,9.868,9.869,9.868c5.443,0,9.871-4.427,9.871-9.868V195.143
				c0-1.062,0.422-2.08,1.174-2.831c0.75-0.749,1.767-1.169,2.826-1.169l10.917,0.013c2.207,0.002,3.995,1.793,3.995,4v159.851
				C236.222,370.875,223.31,383.786,207.438,383.786z"/>
			<path d="M221.31,195.143l10.912,0.013v159.851c0,13.663-11.115,24.779-24.783,24.779c-13.664,0-24.781-11.116-24.781-24.779
				c0-3.016,2.439-5.46,5.455-5.46s5.457,2.444,5.457,5.46c0,7.646,6.223,13.868,13.869,13.868s13.871-6.222,13.871-13.868V195.143
				 M221.31,187.143c-2.12,0-4.153,0.841-5.653,2.34c-1.503,1.5-2.347,3.537-2.347,5.66v159.864c0,3.236-2.634,5.868-5.871,5.868
				c-3.236,0-5.869-2.632-5.869-5.868c0-7.422-6.037-13.46-13.457-13.46c-7.419,0-13.455,6.038-13.455,13.46
				c0,18.074,14.705,32.779,32.781,32.779s32.783-14.705,32.783-32.779V195.156c0-4.414-3.576-7.994-7.99-8l-10.912-0.013H221.31
				L221.31,187.143z"/>
		</g>
		
			<path fill="#39A935" stroke="#000000" stroke-width="8" stroke-linecap="round" stroke-linejoin="round" stroke-miterlimit="10" d="
			M57.69,204.027c10.953-8.507,24.334-13.136,38.268-13.136c16.096,0,31.58,6.366,43.207,17.498
			c1.744-57.193,38.188-112.791,88.311-134.51h-1.643C147.253,76.01,79.306,128.615,57.69,204.027z"/>
		
			<path fill="#FFCF00" stroke="#000000" stroke-width="8" stroke-linecap="round" stroke-linejoin="round" stroke-miterlimit="10" d="
			M221.315,73.879h0.518c0.557-0.015,1.109-0.036,1.666-0.047C222.769,73.852,222.038,73.859,221.315,73.879z"/>
		
			<path fill="#FFCF00" stroke="#000000" stroke-width="8" stroke-linecap="round" stroke-linejoin="round" stroke-miterlimit="10" d="
			M227.722,73.879h-1.467c49.279,20.035,86.383,76.729,88.139,134.506c11.621-11.128,27.104-17.5,43.199-17.5
			c13.926,0,27.307,4.626,38.26,13.137C374.237,128.621,306.3,76.012,227.722,73.879z"/>
		
			<path fill="#FFCF00" stroke="#000000" stroke-width="8" stroke-linecap="round" stroke-linejoin="round" stroke-miterlimit="10" d="
			M226.772,73.758c-1.068,0-2.123,0.043-3.186,0.069c-0.037,0.017-0.074,0.035-0.111,0.052h6.779
			c-0.037-0.015-0.072-0.032-0.109-0.047C229.017,73.801,227.901,73.758,226.772,73.758z"/>
		
			<path fill="#FFCF00" stroke="#000000" stroke-width="8" stroke-linecap="round" stroke-linejoin="round" stroke-miterlimit="10" d="
			M230.253,73.837c0.49,0.009,0.98,0.028,1.469,0.042h0.506C231.573,73.855,230.909,73.852,230.253,73.837z"/>
		<g>
			
				<path fill="#0073B3" stroke="#000000" stroke-width="8" stroke-linecap="round" stroke-linejoin="round" stroke-miterlimit="10" d="
				M228.597,77.131l-1.822,0.034h-0.002v133.222c0.346,0.284,0.537,0.447,0.537,0.447s26.184-19.943,44.402-19.943
				c18.221,0,31.432,6.308,43.041,17.332C312.927,151.793,276.675,96.508,228.597,77.131z"/>
		</g>
		
			<path fill="#E20613" stroke="#000000" stroke-width="8" stroke-linecap="round" stroke-linejoin="round" stroke-miterlimit="10" d="
			M224.952,77.2c-48.82,21.13-84.348,75.27-86.154,131.027c11.609-11.036,20.885-17.336,43.033-17.336
			c20.193,0,41.357,16.568,44.941,19.496V77.165L224.952,77.2z"/>
	</g>
	<g id="rdeča7bela">
	</g>
</g>
<g id="cb" display="none">
	<g display="inline">
		<path fill="none" stroke="#000000" stroke-width="8" stroke-linecap="round" stroke-linejoin="round" stroke-miterlimit="10" d="
			M57.69,204.027c10.953-8.507,24.334-13.136,38.268-13.136c16.096,0,31.58,6.366,43.207,17.498
			c1.744-57.193,38.188-112.791,88.311-134.51h-1.643C147.253,76.01,79.306,128.615,57.69,204.027z"/>
		<path fill="none" stroke="#000000" stroke-width="8" stroke-linecap="round" stroke-linejoin="round" stroke-miterlimit="10" d="
			M221.315,73.879h0.518c0.557-0.015,1.109-0.036,1.666-0.047C222.769,73.852,222.038,73.859,221.315,73.879z"/>
		<path fill="none" stroke="#000000" stroke-width="8" stroke-linecap="round" stroke-linejoin="round" stroke-miterlimit="10" d="
			M227.722,73.879h-1.467c49.279,20.035,86.383,76.729,88.139,134.506c11.621-11.128,27.104-17.5,43.199-17.5
			c13.926,0,27.307,4.626,38.26,13.137C374.237,128.621,306.3,76.012,227.722,73.879z"/>
		<path fill="none" stroke="#000000" stroke-width="8" stroke-linecap="round" stroke-linejoin="round" stroke-miterlimit="10" d="
			M226.772,73.758c-1.068,0-2.123,0.043-3.186,0.069c-0.037,0.017-0.074,0.035-0.111,0.052h6.779
			c-0.037-0.015-0.072-0.032-0.109-0.047C229.017,73.801,227.901,73.758,226.772,73.758z"/>
		<path fill="none" stroke="#000000" stroke-width="8" stroke-linecap="round" stroke-linejoin="round" stroke-miterlimit="10" d="
			M230.253,73.837c0.49,0.009,0.98,0.028,1.469,0.042h0.506C231.573,73.855,230.909,73.852,230.253,73.837z"/>
		<g>
			<path fill="none" stroke="#000000" stroke-width="8" stroke-linecap="round" stroke-linejoin="round" stroke-miterlimit="10" d="
				M226.772,77.165h0.002l1.822-0.034c48.078,19.377,84.33,74.662,86.156,131.092c-11.609-11.024-24.82-17.332-43.041-17.332
				c-13.381,0-31.045,10.751-39.49,16.464"/>
			<path fill="none" stroke="#000000" stroke-width="8" stroke-linecap="round" stroke-linejoin="round" stroke-miterlimit="10" d="
				M226.772,210.387c0.346,0.284,0.537,0.447,0.537,0.447s1.859-1.413,4.912-3.479"/>
			<path fill="none" stroke="#000000" stroke-width="8" stroke-linecap="round" stroke-linejoin="round" stroke-miterlimit="10" d="
				M221.31,206.269c2.678,1.888,4.592,3.407,5.463,4.118"/>
			<path fill="none" stroke="#000000" stroke-width="8" stroke-linecap="round" stroke-linejoin="round" stroke-miterlimit="10" d="
				M226.772,77.165l-1.82,0.035c-48.82,21.13-84.348,75.27-86.154,131.027c11.609-11.036,20.885-17.336,43.033-17.336
				c15.289,0,31.128,9.494,39.479,15.378"/>
			
				<line fill="none" stroke="#000000" stroke-width="8" stroke-linecap="round" stroke-linejoin="round" stroke-miterlimit="10" x1="226.772" y1="210.387" x2="226.772" y2="195.15"/>
			
				<line fill="none" stroke="#000000" stroke-width="8" stroke-linecap="round" stroke-linejoin="round" stroke-miterlimit="10" x1="226.772" y1="77.165" x2="226.772" y2="195.15"/>
			<path fill="none" stroke="#000000" stroke-width="8" stroke-linecap="round" stroke-linejoin="round" stroke-miterlimit="10" d="
				M218.474,204.852V353.59c0,6.084-4.95,11.033-11.036,11.033c-6.084,0-11.034-4.949-11.034-11.033c0-4.573-3.72-8.294-8.292-8.294
				c-4.57,0-8.289,3.721-8.289,8.294c0,15.226,12.388,27.613,27.615,27.613s27.618-12.388,27.618-27.613V205.937L218.474,204.852z"
				/>
		</g>
	</g>
	<g id="rdeča7bela_copy" display="inline">
	</g>
</g>
<g id="pivot">
	<circle fill="none" cx="212.383" cy="379.605" r="14.133"/>
</g>
</svg>
