<?xml version="1.0" encoding="utf-8"?>
<!-- Generator: Adobe Illustrator 16.0.0, SVG Export Plug-In . SVG Version: 6.00 Build 0)  -->
<!DOCTYPE svg PUBLIC "-//W3C//DTD SVG 1.1//EN" "http://www.w3.org/Graphics/SVG/1.1/DTD/svg11.dtd">
<svg version="1.1" xmlns="http://www.w3.org/2000/svg" xmlns:xlink="http://www.w3.org/1999/xlink" x="0px" y="0px"
	 width="453.544px" height="453.543px" viewBox="0 0 453.544 453.543" enable-background="new 0 0 453.544 453.543"
	 xml:space="preserve">
<g id="kvadrat" display="none">
</g>
<g id="color">
	<g>
		
			<path fill="#B17F49" stroke="#000000" stroke-width="8" stroke-linecap="round" stroke-linejoin="round" stroke-miterlimit="10" d="
			M338.693,64.116H226.837h-0.064h-0.064H114.852c0,0-20.198,317.537-15.345,322.39c4.853,4.853,100.001,2.806,102.808,0
			c2.806-2.806,8.929-193.606,24.458-193.606s21.651,190.8,24.458,193.606c2.806,2.806,97.955,4.853,102.808,0
			C358.891,381.652,338.693,64.116,338.693,64.116z"/>
		<g>
			
				<line fill="none" stroke="#000000" stroke-width="8" stroke-linecap="round" stroke-linejoin="round" stroke-miterlimit="10" x1="227.064" y1="115.065" x2="227.064" y2="64.329"/>
			
				<path fill="#422918" stroke="#000000" stroke-width="8" stroke-linecap="round" stroke-linejoin="round" stroke-miterlimit="10" d="
				M114.021,64.116l-2.529,53.161c40.341,0,73.262-22.947,73.262-53.161H114.021z"/>
			
				<path fill="#422918" stroke="#000000" stroke-width="8" stroke-linecap="round" stroke-linejoin="round" stroke-miterlimit="10" d="
				M268.789,64.116c0,30.214,32.922,53.161,73.264,53.161l-2.529-53.161H268.789z"/>
			
				<line fill="#422918" stroke="#000000" stroke-width="8" stroke-linecap="round" stroke-linejoin="round" stroke-miterlimit="10" x1="114.469" y1="64.116" x2="337.833" y2="64.116"/>
		</g>
	</g>
	<g id="rdeča7bela">
	</g>
</g>
<g id="cb" display="none">
	<g display="inline">
		<path fill="none" stroke="#000000" stroke-width="8" stroke-linecap="round" stroke-linejoin="round" stroke-miterlimit="10" d="
			M338.693,64.116H226.837h-0.064h-0.064H114.852c0,0-20.198,317.537-15.345,322.39c4.853,4.853,100.001,2.806,102.808,0
			c2.806-2.806,8.929-193.606,24.458-193.606s21.651,190.8,24.458,193.606c2.806,2.806,97.955,4.853,102.808,0
			C358.891,381.652,338.693,64.116,338.693,64.116z"/>
		<g>
			
				<line fill="none" stroke="#000000" stroke-width="8" stroke-linecap="round" stroke-linejoin="round" stroke-miterlimit="10" x1="227.064" y1="115.065" x2="227.064" y2="64.329"/>
			<path fill="none" stroke="#000000" stroke-width="8" stroke-linecap="round" stroke-linejoin="round" stroke-miterlimit="10" d="
				M114.021,64.116l-2.529,53.161c40.341,0,73.262-22.947,73.262-53.161H114.021z"/>
			<path fill="none" stroke="#000000" stroke-width="8" stroke-linecap="round" stroke-linejoin="round" stroke-miterlimit="10" d="
				M268.789,64.116c0,30.214,32.922,53.161,73.264,53.161l-2.529-53.161H268.789z"/>
			
				<line fill="none" stroke="#000000" stroke-width="8" stroke-linecap="round" stroke-linejoin="round" stroke-miterlimit="10" x1="114.469" y1="64.116" x2="337.833" y2="64.116"/>
		</g>
	</g>
	<g id="rdeča7bela_copy" display="inline">
	</g>
</g>
<g id="pivot">
	<circle fill="none" cx="227.541" cy="382.5" r="14.133"/>
</g>
</svg>
