<?xml version="1.0" encoding="utf-8"?>
<!-- Generator: Adobe Illustrator 16.0.0, SVG Export Plug-In . SVG Version: 6.00 Build 0)  -->
<!DOCTYPE svg PUBLIC "-//W3C//DTD SVG 1.1//EN" "http://www.w3.org/Graphics/SVG/1.1/DTD/svg11.dtd">
<svg version="1.1" xmlns="http://www.w3.org/2000/svg" xmlns:xlink="http://www.w3.org/1999/xlink" x="0px" y="0px"
	 width="453.543px" height="453.543px" viewBox="0 0 453.543 453.543" enable-background="new 0 0 453.543 453.543"
	 xml:space="preserve">
<g id="kvadrat">
</g>
<g id="color">
	<g id="rdeča7bela">
	</g>
	
		<path fill="#57B2E5" stroke="#000000" stroke-width="8" stroke-linecap="round" stroke-linejoin="round" stroke-miterlimit="10" d="
		M274.803,111.975h-95.102l-67.246,67.246v95.1l67.246,67.246h95.102l67.246-67.246v-95.1L274.803,111.975z M200.643,267.583
		c-9.014,0-16.322-7.309-16.322-16.323s7.309-16.323,16.322-16.323s16.322,7.309,16.322,16.323S209.656,267.583,200.643,267.583z
		 M200.643,217.798c-9.014,0-16.322-7.309-16.322-16.323s7.309-16.323,16.322-16.323s16.322,7.309,16.322,16.323
		S209.656,217.798,200.643,217.798z M253.355,267.583c-9.014,0-16.322-7.309-16.322-16.323s7.309-16.323,16.322-16.323
		s16.324,7.309,16.324,16.323S262.369,267.583,253.355,267.583z M253.355,217.798c-9.014,0-16.322-7.309-16.322-16.323
		s7.309-16.323,16.322-16.323s16.324,7.309,16.324,16.323S262.369,217.798,253.355,217.798z"/>
</g>
<g id="cb" display="none">
	<g id="rdeča7bela_copy" display="inline">
	</g>
	
		<path display="inline" fill="none" stroke="#000000" stroke-width="8" stroke-linecap="round" stroke-linejoin="round" stroke-miterlimit="10" d="
		M274.803,111.975h-95.102l-67.246,67.246v95.1l67.246,67.246h95.102l67.246-67.246v-95.1L274.803,111.975z M200.643,267.583
		c-9.014,0-16.322-7.309-16.322-16.323s7.309-16.323,16.322-16.323s16.322,7.309,16.322,16.323S209.656,267.583,200.643,267.583z
		 M200.643,217.798c-9.014,0-16.322-7.309-16.322-16.323s7.309-16.323,16.322-16.323s16.322,7.309,16.322,16.323
		S209.656,217.798,200.643,217.798z M253.355,267.583c-9.014,0-16.322-7.309-16.322-16.323s7.309-16.323,16.322-16.323
		s16.324,7.309,16.324,16.323S262.369,267.583,253.355,267.583z M253.355,217.798c-9.014,0-16.322-7.309-16.322-16.323
		s7.309-16.323,16.322-16.323s16.324,7.309,16.324,16.323S262.369,217.798,253.355,217.798z"/>
</g>
<g id="pivot">
	<circle fill="none" cx="232.956" cy="346.934" r="14.133"/>
</g>
</svg>
