<?xml version="1.0" encoding="utf-8"?>
<!-- Generator: Adobe Illustrator 16.0.0, SVG Export Plug-In . SVG Version: 6.00 Build 0)  -->
<!DOCTYPE svg PUBLIC "-//W3C//DTD SVG 1.1//EN" "http://www.w3.org/Graphics/SVG/1.1/DTD/svg11.dtd">
<svg version="1.1" xmlns="http://www.w3.org/2000/svg" xmlns:xlink="http://www.w3.org/1999/xlink" x="0px" y="0px"
	 width="453.544px" height="453.543px" viewBox="0 0 453.544 453.543" enable-background="new 0 0 453.544 453.543"
	 xml:space="preserve">
<g id="kvadrat" display="none">
</g>
<g id="color">
	
		<path fill="#57B2E5" stroke="#000000" stroke-width="8" stroke-linecap="round" stroke-linejoin="round" stroke-miterlimit="10" d="
		M226.771,114.785c-61.847,0-111.985,50.138-111.985,111.986s50.139,111.987,111.985,111.987
		c61.849,0,111.986-50.138,111.986-111.987S288.62,114.785,226.771,114.785z M200.644,267.583c-9.015,0-16.323-7.308-16.323-16.323
		c0-9.015,7.309-16.323,16.323-16.323c9.014,0,16.322,7.308,16.322,16.323C216.966,260.276,209.657,267.583,200.644,267.583z
		 M200.644,217.798c-9.015,0-16.323-7.308-16.323-16.323c0-9.015,7.309-16.323,16.323-16.323c9.014,0,16.322,7.308,16.322,16.323
		C216.966,210.49,209.657,217.798,200.644,217.798z M253.356,267.583c-9.014,0-16.323-7.308-16.323-16.323
		c0-9.015,7.31-16.323,16.323-16.323s16.323,7.308,16.323,16.323C269.68,260.276,262.37,267.583,253.356,267.583z M253.356,217.798
		c-9.014,0-16.323-7.308-16.323-16.323c0-9.015,7.31-16.323,16.323-16.323s16.323,7.308,16.323,16.323
		C269.68,210.49,262.37,217.798,253.356,217.798z"/>
	<g id="rdeča7bela">
	</g>
</g>
<g id="cb" display="none">
	
		<path display="inline" fill="none" stroke="#000000" stroke-width="8" stroke-linecap="round" stroke-linejoin="round" stroke-miterlimit="10" d="
		M226.771,114.785c-61.847,0-111.985,50.138-111.985,111.986s50.139,111.987,111.985,111.987
		c61.849,0,111.986-50.138,111.986-111.987S288.62,114.785,226.771,114.785z M200.644,267.583c-9.015,0-16.323-7.308-16.323-16.323
		c0-9.015,7.309-16.323,16.323-16.323c9.014,0,16.322,7.308,16.322,16.323C216.966,260.276,209.657,267.583,200.644,267.583z
		 M200.644,217.798c-9.015,0-16.323-7.308-16.323-16.323c0-9.015,7.309-16.323,16.323-16.323c9.014,0,16.322,7.308,16.322,16.323
		C216.966,210.49,209.657,217.798,200.644,217.798z M253.356,267.583c-9.014,0-16.323-7.308-16.323-16.323
		c0-9.015,7.31-16.323,16.323-16.323s16.323,7.308,16.323,16.323C269.68,260.276,262.37,267.583,253.356,267.583z M253.356,217.798
		c-9.014,0-16.323-7.308-16.323-16.323c0-9.015,7.31-16.323,16.323-16.323s16.323,7.308,16.323,16.323
		C269.68,210.49,262.37,217.798,253.356,217.798z"/>
	<g id="rdeča7bela_copy" display="inline">
	</g>
</g>
<g id="pivot">
	<circle fill="none" cx="229.78" cy="341.989" r="14.133"/>
</g>
</svg>
