<?xml version="1.0" encoding="utf-8"?>
<!-- Generator: Adobe Illustrator 16.0.0, SVG Export Plug-In . SVG Version: 6.00 Build 0)  -->
<!DOCTYPE svg PUBLIC "-//W3C//DTD SVG 1.1//EN" "http://www.w3.org/Graphics/SVG/1.1/DTD/svg11.dtd">
<svg version="1.1" xmlns="http://www.w3.org/2000/svg" xmlns:xlink="http://www.w3.org/1999/xlink" x="0px" y="0px"
	 width="453.543px" height="453.543px" viewBox="0 0 453.543 453.543" enable-background="new 0 0 453.543 453.543"
	 xml:space="preserve">
<g id="kvadrat">
</g>
<g id="color">
	<g id="rdeča7bela">
	</g>
	<g>
		
			<path fill="#57B2E5" stroke="#000000" stroke-width="8" stroke-linecap="round" stroke-linejoin="round" stroke-miterlimit="10" d="
			M359.264,321.94v-51.571c0-73.175-59.318-132.491-132.492-132.491c-73.172,0-132.492,59.316-132.492,132.491v51.571H359.264z"/>
		<g>
			<path fill="#00497E" d="M373.256,361.873c0,5.501-4.5,10.001-10,10.001H90.288c-5.5,0-10-4.5-10-10.001v-45.525
				c0-5.5,4.5-10,10-10h272.968c5.5,0,10,4.5,10,10V361.873z"/>
			<path fill="none" stroke="#000000" stroke-width="8" stroke-linecap="round" stroke-linejoin="round" stroke-miterlimit="10" d="
				M373.256,361.873c0,5.501-4.5,10.001-10,10.001H90.288c-5.5,0-10-4.5-10-10.001v-45.525c0-5.5,4.5-10,10-10h272.968
				c5.5,0,10,4.5,10,10V361.873z"/>
		</g>
		
			<circle fill="#FFFFFF" stroke="#000000" stroke-width="8" stroke-linecap="round" stroke-linejoin="round" stroke-miterlimit="10" cx="226.772" cy="117.496" r="35.827"/>
		
			<line fill="none" stroke="#000000" stroke-width="8" stroke-linecap="round" stroke-linejoin="round" stroke-miterlimit="10" x1="95.724" y1="250.785" x2="357.82" y2="250.785"/>
		
			<line fill="none" stroke="#000000" stroke-width="8" stroke-linecap="round" stroke-linejoin="round" stroke-miterlimit="10" x1="121.724" y1="190.785" x2="331.82" y2="190.785"/>
	</g>
</g>
<g id="cb" display="none">
	<g id="rdeča7bela_copy" display="inline">
	</g>
	<g display="inline">
		<path fill="none" stroke="#000000" stroke-width="8" stroke-linecap="round" stroke-linejoin="round" stroke-miterlimit="10" d="
			M254.062,140.697c53.815,11.27,95.624,55.187,103.758,110.088"/>
		<path fill="none" stroke="#000000" stroke-width="8" stroke-linecap="round" stroke-linejoin="round" stroke-miterlimit="10" d="
			M94.279,306.348v-35.979c0-63.819,45.124-117.092,105.204-129.672"/>
		<path fill="none" stroke="#000000" stroke-width="8" stroke-linecap="round" stroke-linejoin="round" stroke-miterlimit="10" d="
			M359.264,306.348v-35.979c0-6.654-0.497-13.193-1.444-19.584"/>
		
			<line fill="none" stroke="#000000" stroke-width="8" stroke-linecap="round" stroke-linejoin="round" stroke-miterlimit="10" x1="359.264" y1="306.348" x2="94.279" y2="306.348"/>
		
			<polyline fill="none" stroke="#000000" stroke-width="8" stroke-linecap="round" stroke-linejoin="round" stroke-miterlimit="10" points="
			94.279,306.348 80.287,306.348 80.287,371.874 373.256,371.874 373.256,306.348 359.264,306.348 		"/>
		<path fill="none" stroke="#000000" stroke-width="8" stroke-linecap="round" stroke-linejoin="round" stroke-miterlimit="10" d="
			M254.062,140.697c-6.572,7.723-16.355,12.626-27.291,12.626c-10.935,0-20.718-4.903-27.289-12.626"/>
		<path fill="none" stroke="#000000" stroke-width="8" stroke-linecap="round" stroke-linejoin="round" stroke-miterlimit="10" d="
			M254.062,140.697c5.32-6.252,8.538-14.349,8.538-23.201c0-19.788-16.039-35.827-35.828-35.827
			c-19.788,0-35.826,16.039-35.826,35.827c0,8.853,3.217,16.949,8.538,23.201"/>
		
			<line fill="none" stroke="#000000" stroke-width="8" stroke-linecap="round" stroke-linejoin="round" stroke-miterlimit="10" x1="357.82" y1="250.785" x2="357.82" y2="250.785"/>
		
			<line fill="none" stroke="#000000" stroke-width="8" stroke-linecap="round" stroke-linejoin="round" stroke-miterlimit="10" x1="95.724" y1="250.785" x2="357.82" y2="250.785"/>
		
			<line fill="none" stroke="#000000" stroke-width="8" stroke-linecap="round" stroke-linejoin="round" stroke-miterlimit="10" x1="121.724" y1="190.785" x2="331.82" y2="190.785"/>
	</g>
</g>
<g id="pivot">
	<circle fill="none" cx="232.956" cy="370.406" r="14.133"/>
</g>
</svg>
