<?xml version="1.0" encoding="utf-8"?>
<!-- Generator: Adobe Illustrator 16.0.0, SVG Export Plug-In . SVG Version: 6.00 Build 0)  -->
<!DOCTYPE svg PUBLIC "-//W3C//DTD SVG 1.1//EN" "http://www.w3.org/Graphics/SVG/1.1/DTD/svg11.dtd">
<svg version="1.1" xmlns="http://www.w3.org/2000/svg" xmlns:xlink="http://www.w3.org/1999/xlink" x="0px" y="0px"
	 width="453.543px" height="453.543px" viewBox="0 0 453.543 453.543" enable-background="new 0 0 453.543 453.543"
	 xml:space="preserve">
<g id="kvadrat">
</g>
<g id="color">
	<g id="rdeča7bela">
	</g>
	<g>
		<g>
			
				<path fill="#D45F14" stroke="#000000" stroke-width="8" stroke-linecap="round" stroke-linejoin="round" stroke-miterlimit="10" d="
				M359.264,321.94v-51.571c0-73.175-59.318-132.491-132.492-132.491c-73.172,0-132.492,59.316-132.492,132.491v51.571H359.264z"/>
			<g>
				<path fill="#E69F00" d="M373.256,361.873c0,5.501-4.5,10.001-10,10.001H90.288c-5.5,0-10-4.5-10-10.001v-45.525
					c0-5.5,4.5-10,10-10h272.968c5.5,0,10,4.5,10,10V361.873z"/>
				
					<path fill="none" stroke="#000000" stroke-width="8" stroke-linecap="round" stroke-linejoin="round" stroke-miterlimit="10" d="
					M373.256,361.873c0,5.501-4.5,10.001-10,10.001H90.288c-5.5,0-10-4.5-10-10.001v-45.525c0-5.5,4.5-10,10-10h272.968
					c5.5,0,10,4.5,10,10V361.873z"/>
			</g>
			
				<line fill="none" stroke="#000000" stroke-width="8" stroke-linecap="round" stroke-linejoin="round" stroke-miterlimit="10" x1="227.174" y1="137.878" x2="227.174" y2="191.823"/>
			<path fill="none" stroke="#000000" stroke-width="8" stroke-linecap="round" stroke-linejoin="round" stroke-miterlimit="10" d="
				M287.709,210.062c0,0-24.117-70.979-60.535-70.979s-58.924,70.979-58.924,70.979"/>
			
				<circle fill="#FFFFFF" stroke="#000000" stroke-width="8" stroke-linecap="round" stroke-linejoin="round" stroke-miterlimit="10" cx="226.772" cy="117.496" r="35.827"/>
		</g>
	</g>
</g>
<g id="cb" display="none">
	<g id="rdeča7bela_copy" display="inline">
	</g>
</g>
<g id="pivot">
	<circle fill="none" cx="229.602" cy="365.388" r="14.133"/>
</g>
</svg>
