<?xml version="1.0" encoding="utf-8"?>
<!-- Generator: Adobe Illustrator 16.0.0, SVG Export Plug-In . SVG Version: 6.00 Build 0)  -->
<!DOCTYPE svg PUBLIC "-//W3C//DTD SVG 1.1//EN" "http://www.w3.org/Graphics/SVG/1.1/DTD/svg11.dtd">
<svg version="1.1" xmlns="http://www.w3.org/2000/svg" xmlns:xlink="http://www.w3.org/1999/xlink" x="0px" y="0px"
	 width="453.544px" height="453.543px" viewBox="0 0 453.544 453.543" enable-background="new 0 0 453.544 453.543"
	 xml:space="preserve">
<g id="kvadrat" display="none">
</g>
<g id="color">
	<g>
		
			<path fill="#FFCF00" stroke="#000000" stroke-width="8" stroke-linecap="round" stroke-linejoin="round" stroke-miterlimit="10" d="
			M88.045,373.086c23.005,0,23.005,10,46.008,10c23.006,0,23.006-10,46.011-10c23.006,0,23.006,10,46.012,10s23.006-10,46.011-10
			c23.008,0,23.008,10,46.018,10c23.009,0,23.009-10,46.017-10l0,0c11.836,0-56.492-302.629-56.492-302.629h-79.494h-0.092h-79.494
			C148.549,70.457,88.82,339.755,88.045,373.086"/>
		
			<polyline fill="none" stroke="#000000" stroke-width="8" stroke-linecap="round" stroke-linejoin="round" stroke-miterlimit="10" points="
			147.571,94.021 228.088,94.021 308.61,94.021 		"/>
		
			<line fill="none" stroke="#000000" stroke-width="8" stroke-linecap="round" stroke-linejoin="round" stroke-miterlimit="10" x1="184.081" y1="146.849" x2="188.502" y2="96.304"/>
		
			<line fill="none" stroke="#000000" stroke-width="8" stroke-linecap="round" stroke-linejoin="round" stroke-miterlimit="10" x1="276.61" y1="146.849" x2="272.188" y2="96.304"/>
	</g>
	<g id="rdeča7bela">
	</g>
</g>
<g id="cb" display="none">
	<g display="inline">
		<path fill="none" stroke="#000000" stroke-width="8" stroke-linecap="round" stroke-linejoin="round" stroke-miterlimit="10" d="
			M88.045,373.086c23.005,0,23.005,10,46.008,10c23.006,0,23.006-10,46.011-10c23.006,0,23.006,10,46.012,10s23.006-10,46.011-10
			c23.008,0,23.008,10,46.018,10c23.009,0,23.009-10,46.017-10l0,0c11.836,0-56.492-302.629-56.492-302.629h-79.494h-0.092h-79.494
			C148.549,70.457,88.82,339.755,88.045,373.086"/>
		
			<polyline fill="none" stroke="#000000" stroke-width="8" stroke-linecap="round" stroke-linejoin="round" stroke-miterlimit="10" points="
			147.571,94.021 228.088,94.021 308.61,94.021 		"/>
		
			<line fill="none" stroke="#000000" stroke-width="8" stroke-linecap="round" stroke-linejoin="round" stroke-miterlimit="10" x1="184.081" y1="146.849" x2="188.502" y2="96.304"/>
		
			<line fill="none" stroke="#000000" stroke-width="8" stroke-linecap="round" stroke-linejoin="round" stroke-miterlimit="10" x1="276.61" y1="146.849" x2="272.188" y2="96.304"/>
	</g>
	<g id="rdeča7bela_copy" display="inline">
	</g>
</g>
<g id="pivot">
	<circle fill="none" cx="228.48" cy="378.159" r="14.133"/>
</g>
</svg>
