<?xml version="1.0" encoding="utf-8"?>
<!-- Generator: Adobe Illustrator 16.0.0, SVG Export Plug-In . SVG Version: 6.00 Build 0)  -->
<!DOCTYPE svg PUBLIC "-//W3C//DTD SVG 1.1//EN" "http://www.w3.org/Graphics/SVG/1.1/DTD/svg11.dtd">
<svg version="1.1" xmlns="http://www.w3.org/2000/svg" xmlns:xlink="http://www.w3.org/1999/xlink" x="0px" y="0px"
	 width="453.544px" height="453.543px" viewBox="0 0 453.544 453.543" enable-background="new 0 0 453.544 453.543"
	 xml:space="preserve">
<g id="kvadrat" display="none">
</g>
<g id="color">
	<g>
		
			<path fill="#FFCF00" stroke="#000000" stroke-width="8" stroke-linecap="round" stroke-linejoin="round" stroke-miterlimit="10" d="
			M119.995,315.07c2.368,56.876,89.1,52.136,86.733-3.789l2.366-168.733c-2.843-78.675-107.114-39.336-105.218,12.323
			L119.995,315.07z"/>
		<g>
			
				<path fill="none" stroke="#000000" stroke-width="12" stroke-linecap="round" stroke-linejoin="round" stroke-miterlimit="10" d="
				M131.769,265.294c-17.162-53.632,0-105.979,24.885-105.12s37.328,57.494,28.746,101.258"/>
			
				<path fill="none" stroke="#000000" stroke-width="12" stroke-linecap="round" stroke-linejoin="round" stroke-miterlimit="10" d="
				M161.372,134.861c0,0-5.08,9.009-4.899,27.029"/>
		</g>
		<g>
			
				<path fill="#FFCF00" stroke="#000000" stroke-width="8" stroke-linecap="round" stroke-linejoin="round" stroke-miterlimit="10" d="
				M349.667,154.871c1.896-51.659-102.375-90.998-105.219-12.323l2.367,168.733c-2.367,55.925,84.364,60.665,86.732,3.789
				L349.667,154.871z"/>
			<g>
				
					<path fill="none" stroke="#000000" stroke-width="12" stroke-linecap="round" stroke-linejoin="round" stroke-miterlimit="10" d="
					M321.775,265.294c17.162-53.632-0.001-105.979-24.886-105.12s-37.327,57.494-28.746,101.258"/>
				
					<path fill="none" stroke="#000000" stroke-width="12" stroke-linecap="round" stroke-linejoin="round" stroke-miterlimit="10" d="
					M292.171,134.861c0,0,5.08,9.009,4.899,27.029"/>
			</g>
		</g>
	</g>
	<g id="rdeča7bela">
	</g>
</g>
<g id="cb" display="none">
	<g display="inline">
		<path fill="none" stroke="#000000" stroke-width="8" stroke-linecap="round" stroke-linejoin="round" stroke-miterlimit="10" d="
			M119.995,315.07c2.368,56.876,89.1,52.136,86.733-3.789l2.366-168.733c-2.843-78.675-107.114-39.336-105.218,12.323
			L119.995,315.07z"/>
		<g>
			
				<path fill="none" stroke="#000000" stroke-width="12" stroke-linecap="round" stroke-linejoin="round" stroke-miterlimit="10" d="
				M131.769,265.294c-17.162-53.632,0-105.979,24.885-105.12s37.328,57.494,28.746,101.258"/>
			
				<path fill="none" stroke="#000000" stroke-width="12" stroke-linecap="round" stroke-linejoin="round" stroke-miterlimit="10" d="
				M161.372,134.861c0,0-5.08,9.009-4.899,27.029"/>
		</g>
		<g>
			<path fill="none" stroke="#000000" stroke-width="8" stroke-linecap="round" stroke-linejoin="round" stroke-miterlimit="10" d="
				M349.667,154.871c1.896-51.659-102.375-90.998-105.219-12.323l2.367,168.733c-2.367,55.925,84.364,60.665,86.732,3.789
				L349.667,154.871z"/>
			<g>
				
					<path fill="none" stroke="#000000" stroke-width="12" stroke-linecap="round" stroke-linejoin="round" stroke-miterlimit="10" d="
					M321.775,265.294c17.162-53.632-0.001-105.979-24.886-105.12s-37.327,57.494-28.746,101.258"/>
				
					<path fill="none" stroke="#000000" stroke-width="12" stroke-linecap="round" stroke-linejoin="round" stroke-miterlimit="10" d="
					M292.171,134.861c0,0,5.08,9.009,4.899,27.029"/>
			</g>
		</g>
	</g>
	<g id="rdeča7bela_copy" display="inline">
	</g>
</g>
<g id="pivot">
	<circle fill="none" cx="223.523" cy="347.776" r="14.133"/>
</g>
</svg>
