<?xml version="1.0" encoding="utf-8"?>
<!-- Generator: Adobe Illustrator 16.0.0, SVG Export Plug-In . SVG Version: 6.00 Build 0)  -->
<!DOCTYPE svg PUBLIC "-//W3C//DTD SVG 1.1//EN" "http://www.w3.org/Graphics/SVG/1.1/DTD/svg11.dtd">
<svg version="1.1" xmlns="http://www.w3.org/2000/svg" xmlns:xlink="http://www.w3.org/1999/xlink" x="0px" y="0px"
	 width="453.544px" height="453.543px" viewBox="0 0 453.544 453.543" enable-background="new 0 0 453.544 453.543"
	 xml:space="preserve">
<g id="kvadrat" display="none">
</g>
<g id="color">
	<g id="rdeča7bela">
	</g>
	<g>
		<g id="XMLID_1_">
			<g>
				<path fill="#FFFFFF" d="M117.862,343.113c-20.697-52.155,30.576-85.439,30.576-85.439l74.645-49.748L222.19,76.161L340,75.709
					v170.889c5.88,47.868-33.159,65.288-44.278,72.575c-11.109,7.297-103.215,57.235-103.215,57.235
					S138.546,395.288,117.862,343.113z"/>
			</g>
			<g>
				
					<path fill="none" stroke="#000000" stroke-width="8" stroke-linecap="round" stroke-linejoin="round" stroke-miterlimit="10" d="
					M223.083,207.926l-74.645,49.748c0,0-51.273,33.284-30.576,85.439c20.684,52.175,74.645,33.295,74.645,33.295
					s92.105-49.938,103.215-57.235c11.119-7.287,50.158-24.707,44.278-72.575V75.709l-117.81,0.452L223.083,207.926z"/>
			</g>
		</g>
		<g>
			<path stroke="#000000" stroke-width="8" stroke-linecap="round" stroke-linejoin="round" d="M294.204,316.913l-13.253-69.541
				l57.53-16.014C344.729,309.786,294.204,316.913,294.204,316.913z"/>
			<path stroke="#000000" stroke-width="8" stroke-linecap="round" stroke-linejoin="round" d="M192.038,376.248
				c-20.119-72.04-72.157-85.165-72.157-85.165s-15.854,36.485,6.979,68.393C149.69,391.381,192.038,376.248,192.038,376.248z"/>
			
				<line fill="none" stroke="#000000" stroke-width="8" stroke-linecap="round" stroke-linejoin="round" stroke-miterlimit="10" x1="338.03" y1="111.612" x2="223.757" y2="111.612"/>
		</g>
	</g>
</g>
<g id="cb" display="none">
	<g id="rdeča7bela_copy" display="inline">
	</g>
</g>
<g id="pivot">
	<circle fill="none" cx="231.66" cy="378.158" r="14.133"/>
</g>
</svg>
