<?xml version="1.0" encoding="utf-8"?>
<!-- Generator: Adobe Illustrator 16.0.0, SVG Export Plug-In . SVG Version: 6.00 Build 0)  -->
<!DOCTYPE svg PUBLIC "-//W3C//DTD SVG 1.1//EN" "http://www.w3.org/Graphics/SVG/1.1/DTD/svg11.dtd">
<svg version="1.1" id="Layer_1" xmlns="http://www.w3.org/2000/svg" xmlns:xlink="http://www.w3.org/1999/xlink" x="0px" y="0px"
	 width="453.543px" height="453.543px" viewBox="0 0 453.543 453.543" enable-background="new 0 0 453.543 453.543"
	 xml:space="preserve">
<g id="kvadrat" display="none">
</g>
<g id="color">
	<g>
		
			<path fill="#57B2E5" stroke="#000000" stroke-width="8" stroke-linecap="square" stroke-linejoin="round" stroke-miterlimit="10" d="
			M237.094,89.721c-11.969-5.526-26.581-8.334-43.489-8.363c-2.301,0.183-72.811,5.718-72.935,84.836
			c-0.142,82.156,0,203.679,0,203.679l156.584,0.187v-62.692c0,0,45.186-44.535,56.871-56.025
			c14.328-14.084,1.021-29.403,1.021-29.403s-14.396-15.913-30.216-4.856c-13.7,9.577-27.677,21.947-27.677,21.947l0.134-76.693
			C277.542,159.522,280.081,109.565,237.094,89.721z"/>
		<g>
			<path fill="#00497E" d="M287.133,362.185c0,5.5-4.5,10-10,10H122.775c-5.5,0-10-4.5-10-10v-23.438c0-5.5,4.5-10,10-10h154.358
				c5.5,0,10,4.5,10,10V362.185L287.133,362.185z"/>
			<path fill="none" stroke="#000000" stroke-width="8" stroke-linecap="round" stroke-linejoin="round" stroke-miterlimit="10" d="
				M287.133,362.185c0,5.5-4.5,10-10,10H122.775c-5.5,0-10-4.5-10-10v-23.438c0-5.5,4.5-10,10-10h154.358c5.5,0,10,4.5,10,10
				V362.185L287.133,362.185z"/>
		</g>
	</g>
	<g id="rdeča7bela">
	</g>
</g>
<g id="cb" display="none">
	
		<path display="inline" fill="none" stroke="#000000" stroke-width="8" stroke-linecap="round" stroke-linejoin="round" stroke-miterlimit="10" d="
		M335.146,221.938c0,0-14.396-15.913-30.216-4.856c-13.7,9.577-27.676,21.947-27.676,21.947l0.133-76.693
		c0.154-2.813,2.691-52.771-40.295-72.614c-11.968-5.526-26.58-8.334-43.488-8.363c-2.301,0.183-72.811,5.718-72.935,84.836
		c-0.09,52.02-0.066,119.812-0.036,162.554h156.622v-21.38c0,0,45.186-44.535,56.871-56.025
		C348.454,237.256,335.146,221.938,335.146,221.938z"/>
	<g display="inline">
		<g>
			<path fill="none" stroke="#000000" stroke-width="8" stroke-linecap="round" stroke-linejoin="round" stroke-miterlimit="10" d="
				M287.133,362.185c0,5.5-4.5,10-10,10H122.775c-5.5,0-10-4.5-10-10v-23.438c0-5.5,4.5-10,10-10h154.358c5.5,0,10,4.5,10,10
				V362.185L287.133,362.185z"/>
		</g>
	</g>
	<g id="rdeča7bela_copy" display="inline">
	</g>
</g>
<g id="pivot">
	<circle fill="none" cx="195.601" cy="368.031" r="14.133"/>
</g>
</svg>
