<?xml version="1.0" encoding="utf-8"?>
<!-- Generator: Adobe Illustrator 16.0.0, SVG Export Plug-In . SVG Version: 6.00 Build 0)  -->
<!DOCTYPE svg PUBLIC "-//W3C//DTD SVG 1.1//EN" "http://www.w3.org/Graphics/SVG/1.1/DTD/svg11.dtd">
<svg version="1.1" xmlns="http://www.w3.org/2000/svg" xmlns:xlink="http://www.w3.org/1999/xlink" x="0px" y="0px"
	 width="453.544px" height="453.543px" viewBox="0 0 453.544 453.543" enable-background="new 0 0 453.544 453.543"
	 xml:space="preserve">
<g id="kvadrat">
</g>
<g id="bg" display="none">
	<rect x="-10017.212" y="-7888.403" display="inline" width="15266.867" height="13678.951"/>
</g>
<g id="barvno" display="none">
	<g display="inline">
		
			<circle fill="#84D7CE" stroke="#000000" stroke-width="20" stroke-linecap="round" stroke-linejoin="round" stroke-miterlimit="10" cx="226.771" cy="226.771" r="113.386"/>
		
			<line fill="#84D7CE" stroke="#000000" stroke-width="20" stroke-linecap="round" stroke-linejoin="round" stroke-miterlimit="10" x1="306.948" y1="146.596" x2="146.596" y2="306.947"/>
		
			<line fill="#84D7CE" stroke="#000000" stroke-width="20" stroke-linecap="round" stroke-linejoin="round" stroke-miterlimit="10" x1="306.947" y1="306.947" x2="146.596" y2="146.596"/>
	</g>
	<g id="rdeča7bela" display="inline">
	</g>
	
		<rect x="-10527.497" y="-8308.412" display="inline" fill="none" stroke="#000000" stroke-miterlimit="10" width="16736" height="13952"/>
</g>
<g id="sivinsko">
	<g>
		<g>
			<circle fill="#BDBDBD" cx="226.771" cy="226.771" r="113.386"/>
			<path d="M226.771,350.157c-68.034,0-123.385-55.351-123.385-123.386s55.351-123.386,123.385-123.386
				c68.035,0,123.386,55.351,123.386,123.386S294.807,350.157,226.771,350.157z M226.771,123.386
				c-57.007,0-103.385,46.379-103.385,103.386s46.378,103.386,103.385,103.386s103.386-46.379,103.386-103.386
				S283.778,123.386,226.771,123.386z"/>
		</g>
		<g>
			<line fill="#BDBDBD" x1="306.948" y1="146.596" x2="146.596" y2="306.947"/>
			<path d="M146.596,316.947c-2.56,0-5.118-0.977-7.071-2.929c-3.905-3.905-3.905-10.237,0-14.143l160.353-160.352
				c3.906-3.904,10.238-3.902,14.143,0c3.905,3.905,3.905,10.237,0,14.143L153.667,314.019
				C151.715,315.971,149.154,316.947,146.596,316.947z"/>
		</g>
		<g>
			<line fill="#BDBDBD" x1="306.947" y1="306.947" x2="146.596" y2="146.596"/>
			<path d="M306.947,316.947c-2.56,0-5.118-0.977-7.071-2.929L139.524,153.667c-3.905-3.905-3.905-10.237,0-14.143
				c3.906-3.904,10.236-3.904,14.143,0l160.352,160.352c3.905,3.905,3.905,10.237,0,14.143
				C312.065,315.971,309.507,316.947,306.947,316.947z"/>
		</g>
	</g>
	<g id="rdeča7bela_copy_3">
	</g>
	<path d="M6209.003,5644.088h-16737v-13953h16737V5644.088z M-10527.497,5643.088h16736l-0.5-13951h-16735.5l0.5,13951H-10527.497z"
		/>
</g>
<g id="linijsko" display="none">
	<g display="inline">
		
			<circle fill="none" stroke="#000000" stroke-width="10" stroke-linecap="round" stroke-linejoin="round" stroke-miterlimit="10" cx="226.771" cy="226.771" r="113.386"/>
		
			<line fill="none" stroke="#000000" stroke-width="10" stroke-linecap="round" stroke-linejoin="round" stroke-miterlimit="10" x1="306.948" y1="146.596" x2="146.596" y2="306.947"/>
		
			<line fill="none" stroke="#000000" stroke-width="10" stroke-linecap="round" stroke-linejoin="round" stroke-miterlimit="10" x1="306.947" y1="306.947" x2="146.596" y2="146.596"/>
	</g>
	<g id="rdeča7bela_copy" display="inline">
	</g>
</g>
<g id="pivot">
</g>
</svg>
