<?xml version="1.0" encoding="utf-8"?>
<!-- Generator: Adobe Illustrator 16.0.0, SVG Export Plug-In . SVG Version: 6.00 Build 0)  -->
<!DOCTYPE svg PUBLIC "-//W3C//DTD SVG 1.1//EN" "http://www.w3.org/Graphics/SVG/1.1/DTD/svg11.dtd">
<svg version="1.1" xmlns="http://www.w3.org/2000/svg" xmlns:xlink="http://www.w3.org/1999/xlink" x="0px" y="0px"
	 width="453.544px" height="453.543px" viewBox="0 0 453.544 453.543" enable-background="new 0 0 453.544 453.543"
	 xml:space="preserve">
<g id="kvadrat">
</g>
<g id="bg" display="none">
	<rect x="-9506.976" y="-7888.403" display="inline" width="15266.867" height="13678.951"/>
</g>
<g id="barvno" display="none">
	<g display="inline">
		
			<circle fill="#84D7CE" stroke="#000000" stroke-width="20" stroke-linecap="round" stroke-linejoin="round" stroke-miterlimit="10" cx="226.771" cy="226.771" r="113.386"/>
		
			<line fill="#84D7CE" stroke="#000000" stroke-width="20" stroke-linecap="round" stroke-linejoin="round" stroke-miterlimit="10" x1="340.157" y1="226.771" x2="113.386" y2="226.771"/>
	</g>
	<g id="rdeča7bela" display="inline">
	</g>
	
		<rect x="-10017.261" y="-8308.412" display="inline" fill="none" stroke="#000000" stroke-miterlimit="10" width="16736" height="13952"/>
</g>
<g id="sivinsko">
	<g>
		<g>
			<circle fill="#BDBDBD" cx="226.771" cy="226.771" r="113.386"/>
			<path d="M226.772,350.157c-68.036,0-123.387-55.351-123.387-123.386s55.351-123.386,123.387-123.386
				c68.034,0,123.385,55.351,123.385,123.386S294.807,350.157,226.772,350.157z M226.772,123.386
				c-57.008,0-103.387,46.379-103.387,103.386s46.379,103.386,103.387,103.386c57.007,0,103.385-46.379,103.385-103.386
				S283.779,123.386,226.772,123.386z"/>
		</g>
		<g>
			<line fill="#BDBDBD" x1="340.157" y1="226.771" x2="113.386" y2="226.771"/>
			<path d="M340.157,236.771H113.386c-5.522,0-10-4.478-10-10s4.478-10,10-10h226.771c5.522,0,10,4.478,10,10
				S345.68,236.771,340.157,236.771z"/>
		</g>
	</g>
	<g id="rdeča7bela_copy_3">
	</g>
	<path d="M6719.239,5644.088h-16737v-13953h16737V5644.088z M-10017.261,5643.088h16736l-0.5-13951h-16735.5l0.5,13951H-10017.261z"
		/>
</g>
<g id="linijsko" display="none">
	<g display="inline">
		
			<circle fill="none" stroke="#000000" stroke-width="10" stroke-linecap="round" stroke-linejoin="round" stroke-miterlimit="10" cx="226.771" cy="226.771" r="113.386"/>
		
			<line fill="none" stroke="#000000" stroke-width="10" stroke-linecap="round" stroke-linejoin="round" stroke-miterlimit="10" x1="340.157" y1="226.771" x2="113.386" y2="226.771"/>
	</g>
	<g id="rdeča7bela_copy" display="inline">
	</g>
</g>
<g id="pivot">
</g>
</svg>
