<?xml version="1.0" encoding="utf-8"?>
<!-- Generator: Adobe Illustrator 16.0.0, SVG Export Plug-In . SVG Version: 6.00 Build 0)  -->
<!DOCTYPE svg PUBLIC "-//W3C//DTD SVG 1.1//EN" "http://www.w3.org/Graphics/SVG/1.1/DTD/svg11.dtd">
<svg version="1.1" xmlns="http://www.w3.org/2000/svg" xmlns:xlink="http://www.w3.org/1999/xlink" x="0px" y="0px"
	 width="453.543px" height="453.543px" viewBox="0 0 453.543 453.543" enable-background="new 0 0 453.543 453.543"
	 xml:space="preserve">
<g id="kvadrat">
</g>
<g id="bg" display="none">
	<rect x="-1853.431" y="-8398.64" display="inline" width="15266.867" height="13678.951"/>
</g>
<g id="barvno" display="none">
	<g display="inline">
		
			<rect x="113.386" y="113.385" fill="#84D7CE" stroke="#000000" stroke-width="20" stroke-linecap="round" stroke-linejoin="round" stroke-miterlimit="10" width="226.771" height="226.772"/>
		
			<line fill="#84D7CE" stroke="#000000" stroke-width="20" stroke-linecap="round" stroke-linejoin="round" stroke-miterlimit="10" x1="340.157" y1="226.771" x2="113.386" y2="226.771"/>
	</g>
	<g id="rdeča7bela" display="inline">
	</g>
	
		<rect x="-2363.716" y="-8818.648" display="inline" fill="none" stroke="#000000" stroke-miterlimit="10" width="16736" height="13952"/>
</g>
<g id="sivinsko">
	<g>
		<g>
			<rect x="113.386" y="113.385" fill="#BDBDBD" width="226.771" height="226.772"/>
			<path d="M340.157,350.158l-226.771-0.001c-5.523,0-10-4.478-10-10V113.385c0-5.522,4.478-10,10-10h226.771
				c5.523,0,10,4.478,10,10v226.773c0,2.652-1.054,5.195-2.929,7.071C345.353,349.104,342.809,350.158,340.157,350.158z
				 M123.386,330.157l206.771,0.001V123.385H123.386V330.157z"/>
		</g>
		<g>
			<line fill="#BDBDBD" x1="340.157" y1="226.771" x2="113.386" y2="226.771"/>
			<path d="M340.157,236.771H113.386c-5.523,0-10-4.478-10-10s4.477-10,10-10h226.771c5.523,0,10,4.478,10,10
				S345.68,236.771,340.157,236.771z"/>
		</g>
	</g>
	<g id="rdeča7bela_copy_3">
	</g>
	<path d="M14372.783,5133.852h-16737v-13953h16737V5133.852z M-2363.716,5132.852h16736l-0.5-13951h-16735.5l0.5,13951H-2363.716z"
		/>
</g>
<g id="linijsko" display="none">
	<g display="inline">
		
			<rect x="113.386" y="113.385" fill="none" stroke="#000000" stroke-width="10" stroke-linecap="round" stroke-linejoin="round" stroke-miterlimit="10" width="226.771" height="226.772"/>
		
			<line fill="none" stroke="#000000" stroke-width="10" stroke-linecap="round" stroke-linejoin="round" stroke-miterlimit="10" x1="340.157" y1="226.771" x2="113.386" y2="226.771"/>
	</g>
	<g id="rdeča7bela_copy" display="inline">
	</g>
</g>
<g id="pivot">
	<circle fill="none" cx="222.097" cy="323.718" r="14.133"/>
</g>
</svg>
