<?xml version="1.0" encoding="utf-8"?>
<!-- Generator: Adobe Illustrator 16.0.0, SVG Export Plug-In . SVG Version: 6.00 Build 0)  -->
<!DOCTYPE svg PUBLIC "-//W3C//DTD SVG 1.1//EN" "http://www.w3.org/Graphics/SVG/1.1/DTD/svg11.dtd">
<svg version="1.1" xmlns="http://www.w3.org/2000/svg" xmlns:xlink="http://www.w3.org/1999/xlink" x="0px" y="0px"
	 width="453.543px" height="453.543px" viewBox="0 0 453.543 453.543" enable-background="new 0 0 453.543 453.543"
	 xml:space="preserve">
<g id="kvadrat">
</g>
<g id="bg" display="none">
	<rect x="-832.959" y="-8398.64" display="inline" width="15266.867" height="13678.951"/>
</g>
<g id="barvno" display="none">
	<g display="inline">
		
			<rect x="113.385" y="113.386" fill="#84D7CE" stroke="#000000" stroke-width="20" stroke-linecap="round" stroke-linejoin="round" stroke-miterlimit="10" width="226.773" height="226.771"/>
		
			<line fill="#84D7CE" stroke="#000000" stroke-width="20" stroke-linecap="round" stroke-linejoin="round" stroke-miterlimit="10" x1="329.955" y1="123.59" x2="123.589" y2="329.954"/>
	</g>
	<g id="rdeča7bela" display="inline">
	</g>
	
		<rect x="-1343.244" y="-8818.648" display="inline" fill="none" stroke="#000000" stroke-miterlimit="10" width="16736" height="13952"/>
</g>
<g id="sivinsko">
	<g>
		<g>
			<rect x="113.385" y="113.386" fill="#BDBDBD" width="226.773" height="226.771"/>
			<path d="M340.158,350.157H113.385c-5.523,0-10-4.478-10-10V113.386c0-5.522,4.477-10,10-10h226.773c5.523,0,10,4.478,10,10
				v226.771C350.158,345.68,345.681,350.157,340.158,350.157z M123.385,330.157h206.773V123.386H123.385V330.157z"/>
		</g>
		<g>
			<line fill="#BDBDBD" x1="329.955" y1="123.59" x2="123.589" y2="329.954"/>
			<path d="M123.589,339.954c-2.56,0-5.118-0.977-7.071-2.929c-3.905-3.905-3.905-10.237,0-14.143l206.365-206.364
				c3.905-3.905,10.237-3.905,14.143,0s3.905,10.237,0,14.143L130.66,337.025C128.708,338.978,126.148,339.954,123.589,339.954z"/>
		</g>
	</g>
	<g id="rdeča7bela_copy_3">
	</g>
	<path d="M15393.256,5133.852h-16737v-13953h16737V5133.852z M-1343.244,5132.852h16736l-0.5-13951h-16735.5l0.5,13951H-1343.244z"
		/>
</g>
<g id="linijsko" display="none">
	<g display="inline">
		
			<rect x="113.385" y="113.386" fill="none" stroke="#000000" stroke-width="10" stroke-linecap="round" stroke-linejoin="round" stroke-miterlimit="10" width="226.773" height="226.771"/>
		
			<line fill="none" stroke="#000000" stroke-width="10" stroke-linecap="round" stroke-linejoin="round" stroke-miterlimit="10" x1="336.86" y1="116.685" x2="116.683" y2="336.861"/>
	</g>
	<g id="rdeča7bela_copy" display="inline">
	</g>
</g>
<g id="pivot">
	<circle fill="none" cx="218.748" cy="328.736" r="14.132"/>
</g>
</svg>
