<?xml version="1.0" encoding="utf-8"?>
<!-- Generator: Adobe Illustrator 16.0.0, SVG Export Plug-In . SVG Version: 6.00 Build 0)  -->
<!DOCTYPE svg PUBLIC "-//W3C//DTD SVG 1.1//EN" "http://www.w3.org/Graphics/SVG/1.1/DTD/svg11.dtd">
<svg version="1.1" xmlns="http://www.w3.org/2000/svg" xmlns:xlink="http://www.w3.org/1999/xlink" x="0px" y="0px"
	 width="453.543px" height="453.543px" viewBox="0 0 453.543 453.543" enable-background="new 0 0 453.543 453.543"
	 xml:space="preserve">
<g id="kvadrat">
</g>
<g id="bg" display="none">
	<rect x="-6955.794" y="-8398.64" display="inline" width="15266.867" height="13678.951"/>
</g>
<g id="barvno" display="none">
	<g id="rdeča7bela" display="inline">
	</g>
	<g display="inline">
		
			<polygon fill="#84D7CE" stroke="#000000" stroke-width="20" stroke-linecap="round" stroke-linejoin="round" stroke-miterlimit="10" points="
			160.353,328.979 119.304,202.645 226.772,124.564 334.239,202.645 293.19,328.979 		"/>
		
			<line fill="#84D7CE" stroke="#000000" stroke-width="20" stroke-linecap="round" stroke-linejoin="round" stroke-miterlimit="10" x1="161.763" y1="327.979" x2="330.239" y2="202.539"/>
	</g>
	
		<rect x="-7466.08" y="-8818.648" display="inline" fill="none" stroke="#000000" stroke-miterlimit="10" width="16736" height="13952"/>
</g>
<g id="sivinsko">
	<g id="rdeča7bela_copy_3">
	</g>
	<g>
		<g>
			<polygon fill="#BDBDBD" points="160.353,328.979 119.304,202.645 226.772,124.564 334.239,202.645 293.19,328.979 			"/>
			<path d="M293.19,338.979H160.353c-4.333,0-8.172-2.79-9.511-6.91l-41.049-126.334c-1.338-4.12,0.128-8.634,3.633-11.18
				l107.468-78.08c3.505-2.547,8.251-2.547,11.756,0l107.467,78.08c3.505,2.546,4.971,7.06,3.633,11.18l-41.049,126.334
				C301.362,336.188,297.522,338.979,293.19,338.979z M167.619,318.979h118.306l36.559-112.515l-95.711-69.539l-95.712,69.539
				L167.619,318.979z"/>
		</g>
		<g>
			<line fill="#BDBDBD" x1="161.763" y1="327.979" x2="330.239" y2="202.539"/>
			<path d="M161.771,337.979c-3.052,0-6.066-1.393-8.029-4.029c-3.298-4.43-2.381-10.694,2.049-13.992l168.476-125.439
				c4.43-3.3,10.695-2.381,13.993,2.049c3.298,4.43,2.381,10.694-2.049,13.992L167.735,335.999
				C165.941,337.335,163.847,337.979,161.771,337.979z"/>
		</g>
	</g>
	<path d="M9270.42,5133.852h-16737v-13953h16737V5133.852z M-7466.08,5132.852h16736l-0.5-13951h-16735.5l0.5,13951H-7466.08z"/>
</g>
<g id="linijsko" display="none">
	<g id="rdeča7bela_copy" display="inline">
	</g>
	<g display="inline">
		
			<polygon fill="none" stroke="#000000" stroke-width="10" stroke-linecap="round" stroke-linejoin="round" stroke-miterlimit="10" points="
			160.353,328.979 119.304,202.645 226.772,124.564 334.239,202.645 293.19,328.979 		"/>
		
			<line fill="none" stroke="#000000" stroke-width="10" stroke-linecap="round" stroke-linejoin="round" stroke-miterlimit="10" x1="161.763" y1="327.979" x2="330.239" y2="202.539"/>
	</g>
</g>
<g id="pivot">
	<circle fill="none" cx="223.326" cy="326.227" r="14.133"/>
</g>
</svg>
