<?xml version="1.0" encoding="utf-8"?>
<!-- Generator: Adobe Illustrator 16.0.0, SVG Export Plug-In . SVG Version: 6.00 Build 0)  -->
<!DOCTYPE svg PUBLIC "-//W3C//DTD SVG 1.1//EN" "http://www.w3.org/Graphics/SVG/1.1/DTD/svg11.dtd">
<svg version="1.1" xmlns="http://www.w3.org/2000/svg" xmlns:xlink="http://www.w3.org/1999/xlink" x="0px" y="0px"
	 width="453.544px" height="453.543px" viewBox="0 0 453.544 453.543" enable-background="new 0 0 453.544 453.543"
	 xml:space="preserve">
<g id="kvadrat">
</g>
<g id="bg" display="none">
	<rect x="-8486.503" y="-8398.64" display="inline" width="15266.867" height="13678.951"/>
</g>
<g id="barvno" display="none">
	
		<polygon display="inline" fill="#84D7CE" stroke="#000000" stroke-width="20" stroke-linecap="round" stroke-linejoin="round" stroke-miterlimit="10" points="
		293.189,328.979 334.238,202.645 226.771,124.564 119.304,202.645 160.353,328.979 	"/>
	<g id="rdeča7bela" display="inline">
	</g>
	<g display="inline">
		
			<line fill="#84D7CE" stroke="#000000" stroke-width="20" stroke-linecap="round" stroke-linejoin="round" stroke-miterlimit="10" x1="161.763" y1="327.979" x2="330.238" y2="202.539"/>
	</g>
	<g display="inline">
		
			<line fill="#84D7CE" stroke="#000000" stroke-width="20" stroke-linecap="round" stroke-linejoin="round" stroke-miterlimit="10" x1="291.78" y1="327.979" x2="123.304" y2="202.539"/>
	</g>
	
		<rect x="-8996.788" y="-8818.648" display="inline" fill="none" stroke="#000000" stroke-miterlimit="10" width="16736" height="13952"/>
</g>
<g id="sivinsko">
	<g>
		<polygon fill="#BDBDBD" points="293.189,328.979 334.238,202.645 226.771,124.564 119.304,202.645 160.353,328.979 		"/>
		<path d="M293.189,338.979H160.353c-4.332,0-8.172-2.79-9.511-6.91l-41.049-126.334c-1.339-4.12,0.128-8.634,3.633-11.18
			l107.467-78.08c3.506-2.547,8.25-2.547,11.756,0l107.468,78.08c3.505,2.546,4.972,7.06,3.633,11.18L302.7,332.068
			C301.361,336.188,297.521,338.979,293.189,338.979z M167.618,318.979h118.306l36.559-112.515l-95.712-69.539l-95.711,69.539
			L167.618,318.979z"/>
	</g>
	<g id="rdeča7bela_copy_3">
	</g>
	<g>
		<g>
			<line fill="#BDBDBD" x1="161.763" y1="327.979" x2="330.238" y2="202.539"/>
			<path d="M161.771,337.979c-3.053,0-6.065-1.393-8.028-4.029c-3.299-4.43-2.381-10.694,2.049-13.992l168.476-125.439
				c4.429-3.301,10.694-2.381,13.992,2.049c3.299,4.43,2.381,10.694-2.049,13.992L167.734,335.999
				C165.941,337.335,163.847,337.979,161.771,337.979z"/>
		</g>
	</g>
	<g>
		<g>
			<line fill="#BDBDBD" x1="291.78" y1="327.979" x2="123.304" y2="202.539"/>
			<path d="M291.772,337.979c-2.076,0-4.171-0.645-5.964-1.98L117.332,210.56c-4.43-3.298-5.348-9.563-2.049-13.992
				c3.297-4.432,9.563-5.35,13.992-2.049l168.477,125.439c4.43,3.298,5.348,9.563,2.049,13.992
				C297.839,336.587,294.824,337.979,291.772,337.979z"/>
		</g>
	</g>
	<path d="M7739.712,5133.852h-16737v-13953h16737V5133.852z M-8996.788,5132.852h16736l-0.5-13951h-16735.5l0.5,13951H-8996.788z"/>
</g>
<g id="linijsko" display="none">
	<g id="rdeča7bela_copy" display="inline">
	</g>
	<g display="inline">
		
			<line fill="none" stroke="#000000" stroke-width="10" stroke-linecap="round" stroke-linejoin="round" stroke-miterlimit="10" x1="161.763" y1="327.979" x2="330.238" y2="202.539"/>
	</g>
	<g display="inline">
		
			<polygon fill="none" stroke="#000000" stroke-width="10" stroke-linecap="round" stroke-linejoin="round" stroke-miterlimit="10" points="
			293.189,328.979 334.238,202.645 226.771,124.564 119.304,202.645 160.353,328.979 		"/>
		
			<line fill="none" stroke="#000000" stroke-width="10" stroke-linecap="round" stroke-linejoin="round" stroke-miterlimit="10" x1="291.78" y1="327.979" x2="123.304" y2="202.539"/>
	</g>
</g>
<g id="pivot">
	<circle fill="none" cx="228.413" cy="326.227" r="14.133"/>
</g>
</svg>
