<?xml version="1.0" encoding="utf-8"?>
<!-- Generator: Adobe Illustrator 16.0.0, SVG Export Plug-In . SVG Version: 6.00 Build 0)  -->
<!DOCTYPE svg PUBLIC "-//W3C//DTD SVG 1.1//EN" "http://www.w3.org/Graphics/SVG/1.1/DTD/svg11.dtd">
<svg version="1.1" xmlns="http://www.w3.org/2000/svg" xmlns:xlink="http://www.w3.org/1999/xlink" x="0px" y="0px"
	 width="453.544px" height="453.543px" viewBox="0 0 453.544 453.543" enable-background="new 0 0 453.544 453.543"
	 xml:space="preserve">
<g id="kvadrat">
</g>
<g id="bg" display="none">
	<rect x="-7466.03" y="-7888.403" display="inline" width="15266.867" height="13678.951"/>
</g>
<g id="barvno" display="none">
	
		<polygon display="inline" stroke="#000000" stroke-width="8" stroke-linecap="round" stroke-linejoin="round" stroke-miterlimit="10" points="
		160.353,328.979 119.304,202.644 226.772,124.564 334.239,202.644 293.19,328.979 	"/>
	<g id="rdeča7bela" display="inline">
	</g>
	
		<rect x="-7976.315" y="-8308.412" display="inline" fill="none" stroke="#000000" stroke-miterlimit="10" width="16736" height="13952"/>
</g>
<g id="sivinsko">
	<g>
		<polygon points="160.353,328.979 119.304,202.644 226.772,124.564 334.239,202.644 293.19,328.979 		"/>
		<path d="M293.19,332.979H160.353c-1.732,0-3.269-1.116-3.804-2.764l-41.05-126.335c-0.535-1.648,0.052-3.454,1.453-4.473
			l107.469-78.079c1.402-1.018,3.301-1.018,4.703,0l107.467,78.079c1.401,1.019,1.988,2.824,1.453,4.473l-41.05,126.335
			C296.459,331.862,294.923,332.979,293.19,332.979z M163.259,324.979h127.025l39.253-120.807l-102.765-74.663l-102.767,74.663
			L163.259,324.979z"/>
	</g>
	<g id="rdeča7bela_copy_3">
	</g>
	<path d="M8760.185,5644.088h-16737v-13953h16737V5644.088z M-7976.315,5643.088h16736l-0.5-13951h-16735.5l0.5,13951H-7976.315z"/>
</g>
<g id="linijsko" display="none">
	
		<polygon display="inline" stroke="#000000" stroke-width="8" stroke-linecap="round" stroke-linejoin="round" stroke-miterlimit="10" points="
		160.353,328.979 119.304,202.644 226.772,124.564 334.239,202.644 293.19,328.979 	"/>
	<g id="rdeča7bela_copy" display="inline">
	</g>
</g>
<g id="pivot">
	<circle fill="none" cx="217.519" cy="337.971" r="14.133"/>
</g>
</svg>
