<?xml version="1.0" encoding="utf-8"?>
<!-- Generator: Adobe Illustrator 16.0.0, SVG Export Plug-In . SVG Version: 6.00 Build 0)  -->
<!DOCTYPE svg PUBLIC "-//W3C//DTD SVG 1.1//EN" "http://www.w3.org/Graphics/SVG/1.1/DTD/svg11.dtd">
<svg version="1.1" xmlns="http://www.w3.org/2000/svg" xmlns:xlink="http://www.w3.org/1999/xlink" x="0px" y="0px"
	 width="453.544px" height="453.543px" viewBox="0 0 453.544 453.543" enable-background="new 0 0 453.544 453.543"
	 xml:space="preserve">
<g id="kvadrat">
</g>
<g id="bg" display="none">
	<rect x="-11547.921" y="-7888.403" display="inline" width="15266.867" height="13678.951"/>
</g>
<g id="barvno" display="none">
	
		<polygon display="inline" fill="#84D7CE" stroke="#000000" stroke-width="20" stroke-linecap="round" stroke-linejoin="round" stroke-miterlimit="10" points="
		167.763,328.979 108.753,226.771 167.763,124.564 285.782,124.564 344.792,226.771 285.782,328.979 	"/>
	<g id="rdeča7bela" display="inline">
	</g>
	
		<rect x="-12058.206" y="-8308.412" display="inline" fill="none" stroke="#000000" stroke-miterlimit="10" width="16736" height="13952"/>
</g>
<g id="sivinsko">
	<g>
		<polygon fill="#BDBDBD" points="167.763,328.979 108.753,226.771 167.763,124.564 285.782,124.564 344.792,226.771 
			285.782,328.979 		"/>
		<path d="M285.782,338.979h-118.02c-3.572,0-6.874-1.906-8.66-5l-59.01-102.207c-1.786-3.094-1.786-6.906,0-10l59.01-102.207
			c1.786-3.094,5.088-5,8.66-5h118.02c3.572,0,6.874,1.906,8.66,5l59.01,102.207c1.786,3.094,1.786,6.906,0,10l-59.01,102.207
			C292.656,337.072,289.354,338.979,285.782,338.979z M173.536,318.979h106.473l53.236-92.207l-53.236-92.207H173.536L120.3,226.771
			L173.536,318.979z"/>
	</g>
	<g id="rdeča7bela_copy_3">
	</g>
	<path d="M4678.294,5644.088h-16737v-13953h16737V5644.088z M-12058.206,5643.088h16736l-0.5-13951h-16735.5l0.5,13951H-12058.206z"
		/>
</g>
<g id="linijsko" display="none">
	
		<polygon display="inline" fill="none" stroke="#000000" stroke-width="10" stroke-linecap="round" stroke-linejoin="round" stroke-miterlimit="10" points="
		167.763,328.979 108.753,226.771 167.763,124.564 285.782,124.564 344.792,226.771 285.782,328.979 	"/>
	<g id="rdeča7bela_copy" display="inline">
	</g>
</g>
<g id="pivot">
</g>
</svg>
