<?xml version="1.0" encoding="utf-8"?>
<!-- Generator: Adobe Illustrator 16.0.0, SVG Export Plug-In . SVG Version: 6.00 Build 0)  -->
<!DOCTYPE svg PUBLIC "-//W3C//DTD SVG 1.1//EN" "http://www.w3.org/Graphics/SVG/1.1/DTD/svg11.dtd">
<svg version="1.1" xmlns="http://www.w3.org/2000/svg" xmlns:xlink="http://www.w3.org/1999/xlink" x="0px" y="0px"
	 width="453.544px" height="453.543px" viewBox="0 0 453.544 453.543" enable-background="new 0 0 453.544 453.543"
	 xml:space="preserve">
<g id="kvadrat">
</g>
<g id="bg" display="none">
	<rect x="-12568.394" y="-7888.403" display="inline" width="15266.867" height="13678.951"/>
</g>
<g id="barvno" display="none">
	
		<polygon display="inline" fill="#84D7CE" stroke="#000000" stroke-width="20" stroke-linecap="round" stroke-linejoin="round" stroke-miterlimit="10" points="
		226.771,124.564 285.781,226.771 344.79,328.979 226.771,328.979 108.753,328.979 167.763,226.771 	"/>
	<g id="rdeča7bela" display="inline">
	</g>
	
		<rect x="-13078.679" y="-8308.412" display="inline" fill="none" stroke="#000000" stroke-miterlimit="10" width="16736" height="13952"/>
</g>
<g id="sivinsko">
	<g>
		<polygon fill="#BDBDBD" points="226.771,124.564 285.781,226.771 344.79,328.979 226.771,328.979 108.753,328.979 
			167.763,226.771 		"/>
		<path d="M344.811,338.979c-0.006,0.001-0.013,0.001-0.021,0H108.753c-3.572,0-6.874-1.906-8.66-5s-1.786-6.906,0-10
			l118.019-204.414c1.786-3.094,5.088-5,8.66-5s6.874,1.906,8.66,5l117.721,203.897c1.048,1.581,1.658,3.478,1.658,5.517
			C354.811,334.501,350.333,338.979,344.811,338.979z M126.073,318.979H327.47L226.771,144.564L126.073,318.979z"/>
	</g>
	<g id="rdeča7bela_copy_3">
	</g>
	<path d="M3657.821,5644.088h-16737v-13953h16737V5644.088z M-13078.679,5643.088h16736l-0.5-13951h-16735.5l0.5,13951H-13078.679z"
		/>
</g>
<g id="linijsko" display="none">
	
		<polygon display="inline" fill="none" stroke="#000000" stroke-width="10" stroke-linecap="round" stroke-linejoin="round" stroke-miterlimit="10" points="
		226.771,124.564 285.781,226.771 344.79,328.979 226.771,328.979 108.753,328.979 167.763,226.771 	"/>
	<g id="rdeča7bela_copy" display="inline">
	</g>
</g>
<g id="pivot">
</g>
</svg>
