<?xml version="1.0" encoding="utf-8"?>
<!-- Generator: Adobe Illustrator 16.0.0, SVG Export Plug-In . SVG Version: 6.00 Build 0)  -->
<!DOCTYPE svg PUBLIC "-//W3C//DTD SVG 1.1//EN" "http://www.w3.org/Graphics/SVG/1.1/DTD/svg11.dtd">
<svg version="1.1" xmlns="http://www.w3.org/2000/svg" xmlns:xlink="http://www.w3.org/1999/xlink" x="0px" y="0px"
	 width="453.543px" height="453.543px" viewBox="0 0 453.543 453.543" enable-background="new 0 0 453.543 453.543"
	 xml:space="preserve">
<g id="kvadrat">
</g>
<g id="bg" display="none">
	<rect x="-6445.558" y="-7888.403" display="inline" width="15266.867" height="13678.951"/>
</g>
<g id="barvno" display="none">
	
		<polygon display="inline" stroke="#000000" stroke-width="8" stroke-linecap="round" stroke-linejoin="round" stroke-miterlimit="10" points="
		226.771,124.564 285.781,226.771 344.791,328.979 226.771,328.979 108.752,328.979 167.762,226.771 	"/>
	<g id="rdeča7bela" display="inline">
	</g>
	
		<rect x="-6955.843" y="-8308.412" display="inline" fill="none" stroke="#000000" stroke-miterlimit="10" width="16736" height="13952"/>
</g>
<g id="sivinsko">
	<g>
		<polygon points="226.771,124.564 285.781,226.771 344.791,328.979 226.771,328.979 108.752,328.979 167.762,226.771 		"/>
		<path d="M344.811,332.979c-0.007-0.001-0.013-0.001-0.02,0H108.752c-1.429,0-2.75-0.763-3.464-2c-0.715-1.237-0.715-2.763,0-4
			l118.018-204.414c0.715-1.237,2.035-2,3.464-2s2.75,0.763,3.464,2l117.837,204.098c0.465,0.653,0.739,1.453,0.739,2.316
			C348.811,331.188,347.02,332.979,344.811,332.979z M115.681,324.979h222.182L226.771,132.564L115.681,324.979z"/>
	</g>
	<g id="rdeča7bela_copy_3">
	</g>
	<path d="M9780.656,5644.088h-16737v-13953h16737V5644.088z M-6955.843,5643.088h16736l-0.5-13951h-16735.5l0.5,13951H-6955.843z"/>
</g>
<g id="linijsko" display="none">
	
		<polygon display="inline" stroke="#000000" stroke-width="8" stroke-linecap="round" stroke-linejoin="round" stroke-miterlimit="10" points="
		226.771,124.564 285.781,226.771 344.791,328.979 226.771,328.979 108.752,328.979 167.762,226.771 	"/>
	<g id="rdeča7bela_copy" display="inline">
	</g>
</g>
<g id="pivot">
	<circle fill="none" cx="221.68" cy="340.48" r="14.133"/>
</g>
</svg>
