<?xml version="1.0" encoding="utf-8"?>
<!-- Generator: Adobe Illustrator 16.0.0, SVG Export Plug-In . SVG Version: 6.00 Build 0)  -->
<!DOCTYPE svg PUBLIC "-//W3C//DTD SVG 1.1//EN" "http://www.w3.org/Graphics/SVG/1.1/DTD/svg11.dtd">
<svg version="1.1" xmlns="http://www.w3.org/2000/svg" xmlns:xlink="http://www.w3.org/1999/xlink" x="0px" y="0px"
	 width="453.543px" height="453.543px" viewBox="0 0 453.543 453.543" enable-background="new 0 0 453.543 453.543"
	 xml:space="preserve">
<g id="kvadrat">
</g>
<g id="bg" display="none">
	<rect x="-4404.613" y="-8398.64" display="inline" width="15266.867" height="13678.951"/>
</g>
<g id="barvno" display="none">
	<g id="rdeča7bela" display="inline">
	</g>
	<g display="inline">
		
			<polygon fill="#84D7CE" stroke="#000000" stroke-width="20" stroke-linecap="round" stroke-linejoin="round" stroke-miterlimit="10" points="
			226.772,124.564 167.762,226.771 108.752,328.979 226.772,328.979 344.791,328.979 285.781,226.771 		"/>
		
			<line fill="#84D7CE" stroke="#000000" stroke-width="20" stroke-linecap="round" stroke-linejoin="round" stroke-miterlimit="10" x1="174.925" y1="239.664" x2="338.618" y2="325.979"/>
	</g>
	
		<rect x="-4914.898" y="-8818.648" display="inline" fill="none" stroke="#000000" stroke-miterlimit="10" width="16736" height="13952"/>
</g>
<g id="sivinsko">
	<g id="rdeča7bela_copy_3">
	</g>
	<g>
		<g>
			<polygon fill="#BDBDBD" points="226.772,124.564 167.762,226.771 108.752,328.979 226.772,328.979 344.791,328.979 
				285.781,226.771 			"/>
			<path d="M344.791,338.979H108.752c-3.573,0-6.874-1.906-8.66-5c-1.787-3.094-1.787-6.906,0-10l118.02-204.414
				c1.786-3.094,5.087-5,8.66-5s6.874,1.906,8.66,5l118.019,204.414c1.787,3.094,1.787,6.906,0,10
				C351.665,337.072,348.363,338.979,344.791,338.979z M126.073,318.979H327.47L226.772,144.564L126.073,318.979z"/>
		</g>
		<g>
			<line fill="#BDBDBD" x1="174.925" y1="239.664" x2="338.618" y2="325.979"/>
			<path d="M338.609,335.98c-1.573,0-3.168-0.372-4.656-1.156L170.261,248.51c-4.885-2.576-6.757-8.625-4.182-13.51
				c2.576-4.885,8.625-6.756,13.51-4.182l163.692,86.314c4.885,2.576,6.757,8.625,4.182,13.51
				C345.672,334.04,342.2,335.98,338.609,335.98z"/>
		</g>
	</g>
	<path d="M11821.602,5133.852h-16737v-13953h16737V5133.852z M-4914.898,5132.852h16736l-0.5-13951h-16735.5l0.5,13951H-4914.898z"
		/>
</g>
<g id="linijsko" display="none">
	<g id="rdeča7bela_copy" display="inline">
	</g>
	<g display="inline">
		
			<polygon fill="none" stroke="#000000" stroke-width="10" stroke-linecap="round" stroke-linejoin="round" stroke-miterlimit="10" points="
			226.772,124.564 167.762,226.771 108.752,328.979 226.772,328.979 344.791,328.979 285.781,226.771 		"/>
		
			<line fill="none" stroke="#000000" stroke-width="10" stroke-linecap="round" stroke-linejoin="round" stroke-miterlimit="10" x1="170.925" y1="236.664" x2="338.618" y2="325.979"/>
	</g>
</g>
<g id="pivot">
	<circle fill="none" cx="230.513" cy="326.227" r="14.133"/>
</g>
</svg>
